<svg width="50" height="51" viewBox="0 0 50 51" fill="none" xmlns="http://www.w3.org/2000/svg">
<g clip-path="url(#clip0_592_22122)">
<path d="M40.4636 22.7329C40.4636 15.7198 33.9763 10.0918 26.1901 10.5881C19.575 11.0098 14.241 15.9404 13.8471 21.9933C13.6342 25.289 14.8585 28.322 16.9985 30.6186C19.9831 33.8202 21.7327 37.8328 21.7327 42.04C21.7327 42.851 22.4496 43.5062 23.3368 43.5062H30.8994C31.815 43.5062 32.5567 42.8283 32.5567 41.9914C32.5567 37.8036 34.3063 33.8137 37.2838 30.6283C39.2677 28.5036 40.4636 25.7464 40.4636 22.7362V22.7329Z" fill="#F7FDFE"/>
<path d="M28.7525 44.3724H21.1898C19.7845 44.3724 18.6382 43.3279 18.6382 42.0401C18.6382 38.154 17.0376 34.2971 14.1311 31.1798C11.7356 28.6107 10.5361 25.328 10.7562 21.9415C11.1785 15.4312 16.8602 10.1794 23.9757 9.72531C24.3128 9.7026 24.6571 9.69287 24.9942 9.69287C32.8621 9.69287 39.2607 15.5415 39.2607 22.733C39.2607 25.8308 38.0505 28.8346 35.8537 31.1863C32.9508 34.2939 31.3538 38.1313 31.3538 41.9882C31.3538 43.3019 30.1862 44.3691 28.7489 44.3691L28.7525 44.3724ZM24.9978 11.4251C24.7032 11.4251 24.4051 11.4348 24.1105 11.4543C17.9391 11.8468 13.0132 16.4011 12.6477 22.0453C12.4561 24.9842 13.4959 27.8322 15.5755 30.0607C18.773 33.4927 20.5333 37.7453 20.5333 42.0433C20.5333 42.3742 20.8278 42.6434 21.1898 42.6434H28.7525C29.1464 42.6434 29.4658 42.3515 29.4658 41.9914C29.4658 37.7226 31.226 33.4862 34.42 30.0672C36.3257 28.0269 37.3762 25.4221 37.3762 22.7362C37.3762 16.4984 31.8258 11.4251 25.0013 11.4251H24.9978Z" fill="black"/>
<path d="M27.358 50.5H23.1917C21.5663 50.5 20.2461 49.2934 20.2461 47.8077V42.6436H30.3036V47.8077C30.3036 49.2934 28.9834 50.5 27.358 50.5ZM22.1376 44.3725V47.8077C22.1376 48.3397 22.6096 48.7711 23.1917 48.7711H27.358C27.94 48.7711 28.412 48.3397 28.412 47.8077V44.3725H22.1376Z" fill="black"/>
<path d="M24.998 32.4515L18.248 27.7188L19.4014 26.3467L24.998 30.2717L30.5981 26.3467L31.7479 27.7188L24.998 32.4515Z" fill="black"/>
<path d="M25.9453 31.3618H24.0537V43.5066H25.9453V31.3618Z" fill="black"/>
<path d="M8.06658 22.4863H0V24.2153H8.06658V22.4863Z" fill="black"/>
<path d="M50.0002 22.4863H41.9336V24.2153H50.0002V22.4863Z" fill="black"/>
<path d="M7.99085 6.58214L6.65332 7.80469L12.3573 13.0183L13.6948 11.7958L7.99085 6.58214Z" fill="black"/>
<path d="M37.6412 33.6808L36.3037 34.9033L42.0076 40.1169L43.3452 38.8944L37.6412 33.6808Z" fill="black"/>
<path d="M25.9462 0.5H24.0547V7.87317H25.9462V0.5Z" fill="black"/>
<path d="M42.0037 6.57942L36.3008 11.7939L37.6385 13.0163L43.3415 7.80176L42.0037 6.57942Z" fill="black"/>
<path d="M12.3563 33.681L6.65332 38.8955L7.99108 40.1178L13.694 34.9033L12.3563 33.681Z" fill="black"/>
</g>
<defs>
<clipPath id="clip0_592_22122">
<rect width="50" height="50" fill="white" transform="translate(0 0.5)"/>
</clipPath>
</defs>
</svg>
