<svg width="460" height="460" viewBox="0 0 460 460" fill="none" xmlns="http://www.w3.org/2000/svg">
<g clip-path="url(#clip0_760_14802)">
<rect width="460" height="460" fill="white"/>
<path d="M461.911 272.439C460.791 271.983 459.55 272.311 458.787 273.164L406.931 234.643C407.008 234.517 407.077 234.384 407.136 234.244C407.714 232.815 407.027 231.19 405.599 230.61C404.172 230.029 402.545 230.719 401.965 232.146C401.872 232.374 401.815 232.607 401.784 232.841L365.92 231.601C365.858 230.559 365.217 229.595 364.186 229.178C362.759 228.598 361.131 229.287 360.551 230.714C360.296 231.346 360.288 232.017 360.481 232.618L324.235 248.107C323.936 247.557 323.454 247.103 322.83 246.848C322.152 246.575 321.433 246.588 320.8 246.825L280.079 163.046C280.576 162.747 280.985 162.29 281.222 161.711C281.802 160.284 281.112 158.657 279.685 158.077C278.258 157.496 276.631 158.186 276.05 159.613C275.883 160.029 275.825 160.461 275.858 160.879L164.879 179.995C165.27 178.64 164.581 177.181 163.246 176.638C161.818 176.058 160.191 176.747 159.611 178.175C159.558 178.305 159.519 178.436 159.488 178.57L118.512 172.624C118.571 171.469 117.908 170.353 116.777 169.895C116.208 169.664 115.608 169.637 115.054 169.776L97.768 120.34L98.4682 120.429L97.5988 119.864L97.4945 119.566L97.3523 119.704L22.9612 71.261C23.0028 71.1797 23.0425 71.0967 23.0785 71.0101C23.6588 69.5828 22.9694 67.9556 21.5421 67.3754C20.1149 66.7951 18.4877 67.4845 17.9074 68.9117C17.3271 70.339 18.0165 71.9662 19.4438 72.5465C19.9742 72.7621 20.5345 72.8003 21.0564 72.6919L32.6963 110.857C32.6616 110.923 32.6288 110.992 32.5997 111.064C32.4541 111.419 32.3909 111.789 32.3949 112.151L-34.9358 119.306C-35.1158 118.418 -35.7193 117.635 -36.6217 117.269C-38.0489 116.689 -39.6761 117.378 -40.2564 118.805C-40.8367 120.233 -40.1473 121.86 -38.72 122.44C-38.1565 122.67 -37.5582 122.698 -37.0097 122.561L-21.6958 166.947C-22.3243 167.231 -22.8519 167.746 -23.1326 168.439C-23.5092 169.367 -23.3479 170.376 -22.8016 171.128L-47.8988 193.223C-48.1435 192.991 -48.4328 192.798 -48.7643 192.665C-50.1915 192.084 -51.8188 192.774 -52.3991 194.201C-52.9793 195.628 -52.2899 197.256 -50.8627 197.836C-49.9953 198.187 -49.0564 198.069 -48.3215 197.605L-25.685 226.963C-25.975 227.231 -26.2123 227.563 -26.3715 227.955C-26.8918 229.237 -26.3895 230.676 -25.2487 231.379L-43.5329 264.626C-44.954 264.07 -46.5613 264.757 -47.1363 266.175C-47.7166 267.602 -47.0272 269.229 -45.6 269.809C-45.3513 269.91 -45.0965 269.971 -44.8407 269.997L-44.3929 298.44C-45.3795 298.548 -46.2776 299.18 -46.6763 300.165C-46.7807 300.421 -46.8413 300.683 -46.8654 300.944L-90.1103 300.754C-90.2005 299.745 -90.8351 298.82 -91.8387 298.414C-93.2659 297.834 -94.8931 298.523 -95.4734 299.95C-96.0537 301.378 -95.3643 303.005 -93.937 303.585C-93.8321 303.628 -93.7274 303.66 -93.6209 303.69L-104.628 366.517C-105.811 366.42 -106.97 367.092 -107.439 368.248C-108.02 369.676 -107.33 371.303 -105.903 371.883C-104.476 372.463 -102.848 371.774 -102.268 370.347C-102.102 369.94 -102.044 369.515 -102.073 369.104L-9.93383 354.083C-9.6898 354.844 -9.12436 355.494 -8.32695 355.818C-6.89971 356.398 -5.27248 355.709 -4.69219 354.281C-4.11191 352.854 -4.80132 351.227 -6.22858 350.647C-6.37036 350.59 -6.51538 350.548 -6.66022 350.514L-4.16873 317.773C-3.06075 317.78 -2.00478 317.124 -1.56325 316.034C-1.41946 315.68 -1.3544 315.312 -1.35833 314.954L75.5816 304.525C75.7789 305.38 76.3761 306.127 77.249 306.484C78.6763 307.064 80.3035 306.374 80.8838 304.947C81.4641 303.52 80.7746 301.893 79.3474 301.312C79.0196 301.179 78.6809 301.117 78.3491 301.111L75.6659 265.298C76.5874 265.143 77.4112 264.529 77.7877 263.598L77.7084 263.842L164.589 291.943C164.295 293.252 164.978 294.617 166.259 295.137C166.921 295.406 167.624 295.399 168.246 295.176L184.35 329.794C183.835 330.093 183.41 330.556 183.171 331.153C182.592 332.582 183.28 334.207 184.707 334.788C186.134 335.368 187.761 334.679 188.342 333.251C188.568 332.695 188.6 332.108 188.469 331.564L243.145 313.246C243.428 313.888 243.946 314.422 244.646 314.707C246.073 315.287 247.701 314.597 248.281 313.17C248.522 312.575 248.542 311.948 248.38 311.375L281.379 298.817C281.67 299.412 282.171 299.906 282.832 300.175C284.259 300.755 285.887 300.065 286.467 298.638C286.529 298.487 286.572 298.333 286.606 298.181L351.001 304.774C351.013 305.865 351.669 306.892 352.742 307.328C353.551 307.655 354.423 307.578 355.134 307.187L380.678 343.536C380.328 343.822 380.043 344.198 379.86 344.645C379.279 346.072 379.969 347.7 381.396 348.28C382.825 348.858 384.451 348.171 385.031 346.744C385.034 346.733 385.038 346.722 385.043 346.712L418.629 353.002L436.382 356.327C436.382 357.431 437.036 358.478 438.122 358.92C439.55 359.5 441.177 358.811 441.757 357.384C442.207 356.273 441.891 355.046 441.058 354.281L461.459 320.123C461.494 320.139 461.53 320.158 461.568 320.173C462.995 320.754 464.623 320.064 465.203 318.637C465.783 317.21 465.094 315.582 463.667 315.002C463.328 314.865 462.978 314.8 462.634 314.8L461.225 277.79C462.188 277.662 463.057 277.038 463.447 276.073C464.027 274.646 463.338 273.019 461.911 272.439ZM438.623 353.599C437.735 353.779 436.952 354.383 436.586 355.285C436.516 355.46 436.466 355.636 436.43 355.812L416.3 352.043L385.187 346.217C385.238 345.949 385.247 345.681 385.22 345.418L434.598 328.002L438.621 353.598L438.623 353.599ZM243.998 309.908L226.089 290.555L251.883 263.685C252.087 263.847 252.317 263.987 252.571 264.09C252.691 264.139 252.814 264.174 252.937 264.206L245.868 309.336C245.191 309.294 244.526 309.501 243.998 309.908ZM187.49 330.021C187.285 329.859 187.056 329.719 186.802 329.617C186.653 329.557 186.506 329.513 186.355 329.481L195.051 260.281C195.698 260.302 196.331 260.096 196.838 259.708L225.382 290.552L187.492 330.023L187.49 330.021ZM-16.4748 165.662L-2.48597 195.492L-18.7708 171.637C-18.4266 171.353 -18.1467 170.979 -17.9633 170.535C-17.5577 169.535 -17.7759 168.44 -18.43 167.674L-16.4748 165.662ZM-35.0871 120.902C-34.9435 120.545 -34.8784 120.177 -34.8824 119.814L32.4484 112.664C32.5426 113.129 32.7545 113.565 33.0646 113.927L-16.3234 164.766L-36.2597 122.254C-35.7483 121.954 -35.3268 121.491 -35.0854 120.9L-35.0871 120.902ZM276.688 162.665C276.916 162.885 277.183 163.067 277.485 163.205L262.496 206.781C261.174 206.456 259.778 207.142 259.251 208.442L232.541 200.403L276.688 162.665ZM460.627 315.627C460.587 315.669 460.544 315.714 460.507 315.761L430.686 288.907C430.825 288.72 430.944 288.516 431.036 288.291C431.278 287.7 431.296 287.075 431.139 286.503L438.742 283.637L460.627 315.627ZM376.412 253.28L366.265 246.718C366.307 246.641 366.345 246.56 366.379 246.475C366.593 245.947 366.633 245.392 366.528 244.873L375.132 242.292L425.268 284.877L376.412 253.28ZM365.987 247.15L401.47 270.099L425.979 285.95C425.937 286.027 425.9 286.108 425.865 286.193C425.674 286.665 425.623 287.156 425.69 287.628L374.279 299.713L364.561 248.11C365.118 247.949 365.62 247.619 365.987 247.154L365.987 247.15ZM430.957 286.021C430.666 285.422 430.165 284.925 429.5 284.657C428.857 284.395 428.174 284.393 427.564 284.598L405.914 235.648L438.443 283.2L430.955 286.023L430.957 286.021ZM403.499 235.779C404.142 236.041 404.825 236.043 405.436 235.838L427.093 284.805C426.88 284.926 426.68 285.073 426.502 285.245L375.723 242.114L401.965 234.238C402.239 234.914 402.772 235.483 403.501 235.777L403.499 235.779ZM401.813 233.746L375.253 241.719L365.418 233.365C365.536 233.196 365.64 233.011 365.721 232.814C365.813 232.586 365.871 232.353 365.901 232.119L401.765 233.359C401.772 233.49 401.786 233.621 401.813 233.75L401.813 233.746ZM363.526 234.524C364.111 234.44 364.659 234.176 365.084 233.759L374.664 241.894L366.381 244.381C366.106 243.705 365.574 243.136 364.844 242.842C364.542 242.719 364.229 242.656 363.919 242.642L363.526 234.524ZM361.33 246.733L331.721 266.127L323.391 251.709C323.811 251.412 324.156 250.997 324.366 250.483C324.507 250.137 324.57 249.778 324.57 249.426L361.054 245.946C361.107 246.22 361.199 246.485 361.33 246.733ZM285.537 295.348C285.353 295.213 285.15 295.094 284.927 295.003C284.49 294.827 284.039 294.768 283.603 294.812L274.349 258.095L319.089 250.173C319.224 250.663 319.489 251.11 319.863 251.465L285.535 295.35L285.537 295.348ZM73.6366 260.237L55.8292 236.474C56.1553 236.194 56.4247 235.836 56.5957 235.409C56.6795 235.2 56.7341 234.989 56.7668 234.775L67.498 234.203L74.0821 259.992C73.9253 260.06 73.7762 260.142 73.633 260.237L73.6366 260.237ZM-41.3894 301.883C-41.1734 301.016 -41.3919 300.116 -41.9341 299.449L-28.7138 286.43L-6.21652 313.117C-6.429 313.352 -6.60767 313.626 -6.73439 313.936L-41.3876 301.881L-41.3894 301.883ZM-5.83938 312.768L-28.348 286.067L12.7837 245.567C13.0035 245.751 13.2536 245.907 13.5335 246.02C13.5647 246.032 13.5978 246.042 13.6291 246.054L-3.73999 312.228C-4.49358 312.117 -5.24801 312.321 -5.83761 312.766L-5.83938 312.768ZM260.784 212.077C260.903 212.126 261.023 212.161 261.146 212.193L253.797 258.723C253.005 258.67 252.227 258.962 251.664 259.515L225.067 236.995L259.753 211.347C260.029 211.655 260.375 211.909 260.784 212.077ZM251.332 259.909C251.214 260.078 251.113 260.26 251.031 260.458C250.947 260.663 250.894 260.872 250.862 261.082L197.9 257.843C197.932 257.589 197.929 257.338 197.892 257.093L224.64 237.314L251.33 259.911L251.332 259.909ZM197.757 256.55C197.634 256.212 197.449 255.898 197.207 255.629L205.599 227.398L206.411 224.664C207.309 224.844 208.224 224.569 208.874 223.958L224.241 236.967L197.761 256.546L197.757 256.55ZM205.91 224.515C205.91 224.515 205.912 224.517 205.914 224.518L205.105 227.242L196.779 255.249C196.599 255.117 196.399 255.002 196.182 254.913C195.823 254.767 195.451 254.702 195.089 254.706L185.498 232.516L204.583 223.394C204.884 223.882 205.335 224.286 205.908 224.517L205.91 224.515ZM259.447 210.933L224.663 236.654L209.212 223.572C209.344 223.392 209.457 223.194 209.545 222.978C209.726 222.529 209.783 222.061 209.731 221.611L259.181 210.357C259.246 210.557 259.337 210.75 259.447 210.933ZM164.019 181.332L204.741 220.242C204.595 220.433 204.47 220.648 204.374 220.88C204.096 221.565 204.112 222.294 204.358 222.932L185.296 232.04L163.527 181.674C163.703 181.579 163.866 181.463 164.017 181.33L164.019 181.332ZM184.832 232.264L162.653 242.864C162.354 242.42 161.925 242.059 161.391 241.844C161.183 241.76 160.97 241.703 160.758 241.673L161.739 205.445L162.373 182.011C162.608 181.995 162.836 181.953 163.055 181.88L184.832 232.264ZM36.5804 114.529L51.1972 135.565L60.2305 148.569C59.8935 148.853 59.6189 149.218 59.4409 149.656C59.0916 150.514 59.2052 151.442 59.658 152.174L48.6434 160.503L36.2026 114.713C36.3342 114.661 36.4602 114.599 36.5823 114.53L36.5804 114.529ZM89.6388 230.438L59.9051 197.304C60.1265 197.063 60.3159 196.781 60.4442 196.459C60.6683 195.905 60.7004 195.321 60.5732 194.777L75.379 188.867L90.1214 230.151C89.9504 230.23 89.7871 230.327 89.6352 230.438L89.6388 230.438ZM60.4128 194.288C60.13 193.647 59.6112 193.108 58.9078 192.824C58.731 192.752 58.5529 192.7 58.3716 192.667L62.023 153.495C62.258 153.494 62.4904 153.462 62.7148 153.406L75.2059 188.383L60.411 194.29L60.4128 194.288ZM59.9676 152.585C60.2396 152.882 60.5776 153.128 60.9772 153.291C61.1522 153.361 61.3321 153.414 61.5097 153.448L60.1999 167.439L57.842 192.619C57.6853 192.619 57.5309 192.636 57.3785 192.662L48.7868 161.036L59.9675 152.581L59.9676 152.585ZM56.8829 192.799C56.1774 193.063 55.5794 193.607 55.273 194.361C55.1498 194.666 55.087 194.979 55.0732 195.29L1.86601 197.896C1.81043 197.513 1.67698 197.149 1.47343 196.821L48.3438 161.376L56.8811 192.801L56.8829 192.799ZM1.69236 199.337C1.81554 199.031 1.87841 198.718 1.89215 198.408L55.0994 195.801C55.1777 196.358 55.4265 196.882 55.8091 197.298L34.3358 221.127L1.56981 199.597C1.61496 199.512 1.65459 199.425 1.69049 199.335L1.69236 199.337ZM56.1916 197.643C56.3793 197.782 56.5847 197.903 56.8094 197.995C56.8776 198.024 56.9473 198.045 57.0153 198.066L54.1505 231.579C53.2584 231.535 52.3903 231.922 51.8292 232.622L34.7714 221.413L56.1916 197.643ZM55.0575 231.776C54.9268 231.723 54.7928 231.684 54.6607 231.651L57.5229 198.175C57.7842 198.207 58.0428 198.2 58.2968 198.16L67.3699 233.694L56.7988 234.259C56.76 233.196 56.1108 232.2 55.0612 231.776L55.0575 231.776ZM58.7945 198.033C59.0076 197.958 59.2127 197.858 59.4025 197.732L89.249 230.789C89.0293 231.028 88.8453 231.308 88.7153 231.629C88.5903 231.936 88.5275 232.253 88.5158 232.568L67.894 233.67L58.7964 198.034L58.7945 198.033ZM157.758 243.378C157.743 243.417 157.731 243.455 157.717 243.496L120.052 237.212L94.0865 232.88C94.1293 232.288 93.9792 231.706 93.6747 231.211L133.369 201.282L158.812 242.095C158.354 242.395 157.979 242.831 157.758 243.378ZM92.1072 230.004C91.6058 229.851 91.0919 229.85 90.6124 229.974L75.8621 188.672L113.238 173.752C113.495 174.255 113.906 174.683 114.438 174.961L92.1072 230.004ZM113.045 173.274L75.6873 188.187L63.2021 153.229C63.7476 152.976 64.2119 152.55 64.5032 151.985L113.049 171.68C112.886 172.214 112.893 172.768 113.045 173.274ZM63.0755 148.116C62.2542 147.784 61.3692 147.871 60.6528 148.274L54.0676 138.794L37.0026 114.23C37.088 114.155 37.1716 114.074 37.2495 113.988L74.4489 141.871L64.7627 151.248C65.0205 149.958 64.3388 148.629 63.0755 148.116ZM34.401 114.797C34.838 114.924 35.2829 114.938 35.7072 114.858L48.2004 160.839L1.16563 196.408C0.955516 196.176 0.706183 195.979 0.419722 195.824L34.401 114.797ZM1.28768 200.025L33.9906 221.514L16.2496 241.2C16.0619 241.061 15.8565 240.941 15.6318 240.849C15.0683 240.619 14.4736 240.591 13.9269 240.726L0.251948 200.828C0.649903 200.648 1.00719 200.377 1.28768 200.025ZM16.6321 241.546L34.4245 221.801L51.5453 233.052C51.5002 233.137 51.4605 233.224 51.4246 233.314C51.2346 233.78 51.1836 234.268 51.2469 234.736L17.2309 242.565C17.1081 242.189 16.9041 241.843 16.6322 241.549L16.6321 241.546ZM74.5753 259.832L68.0238 234.176L88.5438 233.082C88.6567 233.846 89.0813 234.543 89.7416 234.989L76.0877 259.907C75.584 259.738 75.0624 259.719 74.577 259.83L74.5753 259.832ZM76.5596 260.117L90.1944 235.234C90.2147 235.242 90.2331 235.253 90.2534 235.261C91.6807 235.842 93.3079 235.152 93.8882 233.725C93.9327 233.615 93.9698 233.501 93.9996 233.387L152.08 243.079L157.59 243.997C157.561 244.185 157.551 244.375 157.56 244.56L77.8171 261.591C77.5916 260.979 77.1586 260.447 76.5595 260.113L76.5596 260.117ZM162.902 243.316L185.037 232.739L194.56 254.769C193.727 254.948 192.993 255.505 192.61 256.327L163.083 244.959C163.192 244.395 163.121 243.826 162.902 243.32L162.902 243.316ZM254.67 258.922C254.55 258.872 254.431 258.837 254.308 258.806L261.656 212.276C261.861 212.289 262.065 212.28 262.262 212.247L273.714 257.687L256.307 260.77C256.083 259.962 255.504 259.263 254.666 258.922L254.67 258.922ZM319.194 248.39C319.022 248.81 318.966 249.247 319.001 249.671L274.225 257.601L262.764 212.123C263.244 211.954 263.677 211.655 264.005 211.249L319.325 248.113C319.276 248.202 319.231 248.294 319.194 248.39ZM259.102 208.939C259.041 209.247 259.031 209.557 259.071 209.859L209.631 221.11C209.545 220.83 209.412 220.566 209.242 220.323L232.076 200.803L259.104 208.938L259.102 208.939ZM208.906 219.932C208.655 219.688 208.355 219.488 208.01 219.345C206.984 218.93 205.859 219.169 205.09 219.863L164.376 180.96C164.485 180.822 164.583 180.674 164.666 180.511L231.487 200.624L208.904 219.927L208.906 219.932ZM161.142 181.815C161.378 181.911 161.618 181.968 161.857 181.997L160.243 241.642C159.905 241.655 159.573 241.727 159.267 241.856L133.78 200.972L160.129 181.105C160.401 181.406 160.74 181.651 161.142 181.815ZM133.095 200.844L93.3652 230.8C93.1476 230.561 92.8889 230.355 92.586 230.199L114.916 175.156C115.62 175.369 116.35 175.288 116.972 174.977L133.097 200.842L133.095 200.844ZM113.244 171.204L65.0779 151.664L74.869 142.188L113.347 171.029C113.31 171.086 113.277 171.143 113.244 171.204ZM37.5576 113.577C37.638 113.448 37.7092 113.313 37.7692 113.167C37.8291 113.022 37.8708 112.873 37.9051 112.725L96.8157 120.225L74.8258 141.511L37.5595 113.579L37.5576 113.577ZM33.4312 114.292C33.5503 114.388 33.6802 114.475 33.817 114.552L33.8709 114.731L-0.055456 195.629C-0.656236 195.439 -1.27865 195.466 -1.83822 195.667L-16.0933 165.272L33.4276 114.292L33.4312 114.292ZM-47.5624 193.613L-22.4653 171.518C-22.2205 171.751 -21.9312 171.944 -21.5998 172.077C-21.3879 172.164 -21.1716 172.217 -20.9539 172.25L-22.2485 196.706L-47.0261 195.17C-47.0426 194.607 -47.2317 194.066 -47.5606 193.615L-47.5624 193.613ZM-20.4394 172.276C-20.0007 172.259 -19.5739 172.139 -19.1968 171.928L-2.67133 196.137C-3.01554 196.421 -3.29544 196.794 -3.47877 197.238C-3.5627 197.443 -3.61553 197.652 -3.64838 197.858L-21.7356 196.738L-20.4394 172.276ZM-3.68051 198.371C-3.65693 199.132 -3.32282 199.854 -2.75194 200.364L-22.2377 226.687C-22.3917 226.583 -22.5617 226.493 -22.7403 226.419C-22.9245 226.344 -23.1135 226.292 -23.3021 226.259L-21.766 197.249L-3.68238 198.37L-3.68051 198.371ZM-21.8375 227.013L-4.97903 204.238L-21.0515 229.545C-20.8681 228.615 -21.1755 227.663 -21.8375 227.013ZM-2.16562 200.768C-2.09361 200.804 -2.01981 200.839 -1.94425 200.871C-1.38072 201.101 -0.786016 201.129 -0.239292 200.994L13.4356 240.891C12.8035 241.176 12.2741 241.693 11.9934 242.385C11.7452 242.995 11.7312 243.642 11.9068 244.228L-42.1194 265.865C-42.3163 265.511 -42.5942 265.198 -42.934 264.953L-2.16571 200.764L-2.16562 200.768ZM12.0997 244.705C12.1899 244.88 12.2945 245.046 12.4206 245.202L-28.6808 285.673L-42.577 269.191C-42.3232 268.935 -42.1144 268.629 -41.9707 268.271C-41.7088 267.629 -41.7084 266.947 -41.912 266.338L12.098 244.707L12.0997 244.705ZM-42.973 269.518L-29.0504 286.033L-42.3009 299.079C-42.5207 298.895 -42.7708 298.74 -43.0507 298.627C-43.3251 298.516 -43.6055 298.452 -43.8867 298.43L-44.3323 270C-43.8432 269.96 -43.3757 269.793 -42.9748 269.517L-42.973 269.518ZM-45.1472 303.8C-43.7549 304.365 -42.1775 303.724 -41.5625 302.369L-7.05088 314.374L-89.541 301.273L-46.8792 301.46C-46.789 302.469 -46.1544 303.394 -45.1508 303.8L-45.1472 303.8ZM-90.3114 302.047C-90.2635 301.929 -90.2266 301.808 -90.197 301.687L-6.94208 314.91C-6.95297 315.33 -6.86927 315.743 -6.70089 316.119L-39.0767 333.562L-90.3961 302.223C-90.3685 302.164 -90.339 302.106 -90.3133 302.045L-90.3114 302.047ZM-3.10328 312.399C-3.14933 312.38 -3.19704 312.367 -3.24298 312.352L14.1245 246.186C14.9572 246.327 15.7978 246.073 16.4177 245.532L33.7587 261.988L-2.73959 312.581C-2.85615 312.513 -2.97439 312.451 -3.10328 312.399ZM16.7723 245.159C16.931 244.958 17.0654 244.734 17.1663 244.482C17.3564 244.016 17.4074 243.528 17.3441 243.059L51.36 235.23C51.5145 235.7 51.7953 236.126 52.1738 236.457L34.0627 261.563L16.7722 245.155L16.7723 245.159ZM52.5954 236.761C52.7119 236.829 52.832 236.894 52.9609 236.945C53.53 237.176 54.1301 237.202 54.6822 237.066L77.1386 301.361C76.8937 301.473 76.6662 301.619 76.4595 301.8L34.4421 261.927L52.5972 236.763L52.5954 236.761ZM77.6242 301.19L55.1697 236.896C55.2508 236.859 55.3317 236.819 55.4088 236.771L73.2388 260.563C72.9759 260.821 72.7619 261.136 72.6147 261.497C72.0363 262.926 72.7238 264.552 74.1511 265.132C74.4789 265.266 74.8176 265.328 75.1493 265.334L77.8307 301.144C77.76 301.155 77.6911 301.172 77.6223 301.188L77.6242 301.19ZM77.9486 262.088L157.631 245.069C157.832 245.916 158.427 246.658 159.296 247.011C159.687 247.168 160.093 247.231 160.489 247.209L166.656 289.84C165.829 290.038 165.106 290.613 164.747 291.451L77.8723 263.351C77.9998 262.929 78.0213 262.498 77.9504 262.087L77.9486 262.088ZM168.354 289.966C167.964 289.809 167.558 289.747 167.163 289.766L161.132 248.074L172.127 286.061L168.831 290.213C168.684 290.116 168.523 290.031 168.354 289.963L168.354 289.966ZM161.365 247.021C162.052 246.749 162.632 246.213 162.931 245.475C162.935 245.467 162.936 245.458 162.941 245.449L192.438 256.807C192.185 257.796 192.498 258.825 193.212 259.509L172.523 285.57L161.366 247.022L161.365 247.021ZM193.614 259.83C193.761 259.927 193.921 260.012 194.091 260.08C194.238 260.138 194.387 260.184 194.537 260.216L185.842 329.416C185.634 329.41 185.428 329.425 185.225 329.463L172.697 286.176L193.614 259.83ZM197.213 259.357C197.424 259.124 197.599 258.853 197.726 258.544C197.751 258.479 197.771 258.413 197.793 258.349L250.833 261.592C250.854 262.232 251.096 262.845 251.511 263.328L225.737 290.178L197.213 259.357ZM255.607 263.465C255.857 263.213 256.064 262.905 256.206 262.553C256.377 262.133 256.433 261.696 256.398 261.273L273.84 258.183L283.097 294.911C282.837 294.987 282.59 295.101 282.362 295.247L255.607 263.462L255.607 263.465ZM285.923 295.693L320.272 251.782C320.414 251.875 320.568 251.956 320.73 252.021C321.474 252.322 322.269 252.278 322.944 251.967L331.29 266.41L286.155 295.977C286.083 295.877 286.006 295.782 285.922 295.692L285.923 295.693ZM331.981 266.576L361.612 247.165C361.902 247.529 362.284 247.827 362.746 248.013C362.856 248.058 362.967 248.091 363.079 248.123L355.816 291.13L353.988 301.963C353.499 301.928 353.015 302.026 352.585 302.233L331.983 266.578L331.981 266.576ZM354.841 302.157C354.728 302.111 354.613 302.076 354.495 302.046L363.586 248.21C363.744 248.222 363.899 248.22 364.056 248.205L373.778 299.83L356.451 303.902C356.209 303.136 355.642 302.48 354.841 302.157ZM374.375 300.219L425.808 288.128C425.955 288.561 426.205 288.955 426.545 289.274L384.291 343.605C384.062 343.402 383.797 343.232 383.496 343.111C383.143 342.967 382.775 342.902 382.416 342.906L374.378 300.219L374.375 300.219ZM385.119 344.907C385.02 344.574 384.86 344.259 384.645 343.984L426.949 289.59C427.09 289.681 427.241 289.761 427.402 289.824C427.805 289.987 428.22 290.047 428.628 290.022L434.515 327.483L385.118 344.905L385.119 344.907ZM429.137 289.945C429.586 289.831 430 289.609 430.343 289.292L460.206 316.182C460.14 316.297 460.08 316.413 460.028 316.539C459.763 317.192 459.765 317.887 459.981 318.504L435.012 327.311L429.137 289.945ZM461.027 315.295L439.242 283.45L458.355 276.245C458.646 276.844 459.147 277.341 459.812 277.61C460.107 277.73 460.409 277.793 460.71 277.809L462.119 314.844C461.728 314.916 461.356 315.068 461.027 315.295ZM458.48 273.576C458.404 273.702 458.334 273.835 458.276 273.975C458.034 274.566 458.016 275.192 458.173 275.763L438.942 283.014L406.332 235.342C406.435 235.256 406.535 235.158 406.625 235.056L458.48 273.576ZM360.683 233.094C360.981 233.644 361.463 234.097 362.088 234.353C362.39 234.476 362.703 234.539 363.013 234.552L363.406 242.67C362.455 242.804 361.598 243.426 361.211 244.38C361.071 244.726 361.008 245.085 361.008 245.437L324.524 248.917C324.503 248.805 324.474 248.693 324.44 248.583L360.686 233.094L360.683 233.094ZM320.337 247.054C320.065 247.218 319.819 247.428 319.612 247.683L264.293 210.819C264.342 210.73 264.386 210.638 264.424 210.542C264.991 209.148 264.344 207.565 262.984 206.952L277.973 163.376C278.532 163.513 279.101 163.47 279.615 163.277L320.336 247.056L320.337 247.054ZM275.942 161.392C276.027 161.707 276.168 162.008 276.357 162.276L231.957 200.229L165.903 180.346L275.944 161.39L275.942 161.392ZM159.411 179.085C159.38 179.657 159.53 180.217 159.823 180.694L133.511 200.533L117.412 174.705C117.798 174.41 118.115 174.016 118.31 173.533C118.363 173.402 118.402 173.272 118.433 173.138L159.409 179.084L159.411 179.085ZM114.565 169.951C114.225 170.107 113.916 170.332 113.659 170.614L75.2475 141.823L97.2748 120.501L114.567 169.949L114.565 169.951ZM21.55 72.546C21.9862 72.3669 22.3794 72.0761 22.6792 71.6965L96.2993 119.639L37.9701 112.215C38.0078 111.079 37.3469 109.986 36.2328 109.533C35.0892 109.069 33.8229 109.419 33.0627 110.306L21.5463 72.5461L21.55 72.546ZM-35.8478 124.349L-16.7065 165.166L-18.7965 167.316C-19.0031 167.148 -19.2382 167.006 -19.4978 166.902C-20.0614 166.673 -20.6598 166.645 -21.2101 166.779L-35.8496 124.347L-35.8478 124.349ZM-47.9124 197.294C-47.6225 197.026 -47.3834 196.692 -47.226 196.301C-47.1421 196.097 -47.0911 195.89 -47.0564 195.681L-22.2733 197.218L-23.8097 226.218C-24.3325 226.222 -24.8386 226.378 -25.276 226.651L-47.9124 197.294ZM-24.7854 231.609C-23.867 231.962 -22.8728 231.798 -22.131 231.252L-40.4643 260.117L-24.7872 231.611L-24.7854 231.609ZM-93.1156 303.782C-92.1625 303.859 -91.2298 303.438 -90.6541 302.667L-39.5922 333.847L-102.527 367.754C-102.827 367.302 -103.261 366.933 -103.801 366.712C-103.906 366.669 -104.012 366.635 -104.117 366.607L-93.1138 303.78L-93.1156 303.782ZM-102.155 368.596C-102.19 368.464 -102.232 368.332 -102.286 368.206L-39.0866 334.16L-9.79768 352.046C-9.82016 352.093 -9.84263 352.139 -9.86324 352.187C-10.0498 352.645 -10.1029 353.124 -10.0453 353.583L-102.155 368.596ZM-7.16849 350.447C-8.09319 350.411 -8.98571 350.839 -9.53423 351.601L-38.5583 333.876L-6.43939 316.573C-6.14017 317.006 -5.71727 317.362 -5.19427 317.574C-5.02486 317.642 -4.85227 317.692 -4.6783 317.726L-7.16849 350.447ZM-1.40995 314.443C-1.52951 313.843 -1.84458 313.292 -2.31438 312.885L34.1435 262.35L76.1104 302.175C75.9517 302.376 75.8173 302.6 75.7164 302.852C75.5624 303.235 75.4999 303.63 75.5155 304.018L-1.40809 314.445L-1.40995 314.443ZM169.896 293.603C170.338 292.513 170.04 291.307 169.238 290.539L172.307 286.672L184.575 329.059L168.714 294.96C169.23 294.661 169.655 294.198 169.896 293.599L169.896 293.603ZM188.305 331.079C188.193 330.826 188.044 330.59 187.862 330.381L225.733 290.931L243.621 310.26C243.41 310.494 243.233 310.766 243.108 311.074C242.882 311.63 242.85 312.217 242.981 312.76L188.305 331.079ZM248.198 310.893C247.907 310.298 247.406 309.804 246.745 309.535C246.625 309.486 246.502 309.451 246.379 309.419L253.447 264.289C254.081 264.329 254.701 264.15 255.215 263.796L281.961 295.569C281.682 295.834 281.45 296.16 281.298 296.542C281.056 297.136 281.036 297.764 281.199 298.337L248.2 310.895L248.198 310.893ZM286.669 297.669C286.682 297.237 286.592 296.811 286.414 296.426L331.549 266.859L352.14 302.496C351.736 302.79 351.404 303.196 351.204 303.695C351.129 303.883 351.075 304.07 351.042 304.263L286.666 297.673L286.669 297.669ZM355.562 306.901C355.912 306.615 356.197 306.239 356.381 305.792C356.565 305.335 356.62 304.862 356.563 304.406L373.875 300.338L381.9 342.963C381.623 343.019 381.354 343.116 381.108 343.252L355.562 306.901ZM440.645 353.967C440.512 353.883 440.372 353.811 440.221 353.749C439.865 353.603 439.497 353.538 439.135 353.542L435.093 327.828L460.196 318.974C460.394 319.322 460.67 319.63 461.01 319.867L440.644 353.966L440.645 353.967Z" fill="#3A8AA2"/>
<path d="M278.947 172.174C274.148 160.398 263.12 151.366 248.569 154.201C246.664 154.572 244.808 155.099 242.995 155.755C241.091 150.93 239.111 145.163 234.915 141.693C224.667 133.237 212.698 129.907 199.486 131.311C186.279 132.715 174.24 140.628 167.892 152.296C160.006 139.396 138.079 135.26 123.64 139.751C110.692 143.775 98.4106 157.224 101.273 175.455C95.0592 172.749 87.9583 173.755 81.5836 176.262C71.9435 180.055 65.4397 189.302 62.6047 199.27C59.0381 211.788 61.4589 225.915 69.4474 236.19C77.4306 246.465 86.1023 251.823 99.11 251.462C106.394 251.258 114.232 249.477 120.225 243.877C122.909 253.533 132.42 258.956 142.221 261.065C152.023 263.173 164.11 261.317 172.648 256.067C179.819 251.661 186.123 244.878 187.414 236.556C198.265 243.49 211.719 246.954 224.275 244.098C236.831 241.241 248.031 231.397 250.677 218.792C251.172 216.447 251.312 214.037 251.145 211.643C256.181 212.585 261.501 212.041 266.203 209.992C281.685 203.24 284.52 185.854 278.941 172.168L278.947 172.174Z" fill="#D8F5FD"/>
<path d="M194.763 458.777H329.224V377.256H194.763V458.777Z" fill="#F29EC3"/>
<path d="M347.115 337.653C335.125 331.24 321.778 327.754 308.184 327.496L218.002 325.753C194.644 325.301 174.428 341.913 170.345 364.916L161.679 421.82H208.959L211.826 405.38L328.874 398.694L366.089 405.101L370.07 349.929L347.121 337.653H347.115Z" fill="#F29EC3"/>
<path d="M249.683 326.361L305.097 327.432C305.097 327.432 302.515 343.28 280.12 343.441C257.725 343.603 249.683 326.361 249.683 326.361Z" fill="#FFBE97"/>
<path d="M254.459 327.894H294.154L295.435 315.123L258.843 312.492L254.459 327.894Z" fill="#FFBE97"/>
<path d="M294.5 326L296 309.5C284.5 304.667 251 297.7 259 310.5C267 323.3 290.167 326.333 294.5 326Z" fill="#4F2B2B"/>
<path d="M235.426 283.735C235.426 283.735 259.209 318.33 281.437 314.887C303.665 311.444 314.042 276.408 314.042 276.408C314.042 276.408 316.344 246.944 306.758 239.262C298.312 232.495 283.18 228.568 274.002 228.896C257.568 229.482 244.695 244.055 244.695 244.055C244.695 244.055 234.673 247.068 231.768 261.442C229.724 271.561 235.421 283.74 235.421 283.74L235.426 283.735Z" fill="#4F2B2B"/>
<path d="M247.912 276.09C242.661 295.677 255.943 317.663 275.433 320.364C296.284 323.252 314.273 314.177 317.313 294.128C320.212 275.014 315.037 256.423 296.031 251.334C277.026 246.24 253.167 256.504 247.917 276.096L247.912 276.09Z" fill="#FFBE97"/>
<path d="M250.57 282.083C252.21 288.13 253.867 293.316 248.8 294.688C243.732 296.065 236.809 292.428 235.168 286.382C233.527 280.335 236.308 274.321 241.376 272.944C246.443 271.566 248.929 276.037 250.57 282.083Z" fill="#FFBE97"/>
<path d="M276.709 274.197C276.961 275.73 276.294 277.118 275.208 277.295C274.126 277.478 273.04 276.381 272.787 274.848C272.534 273.314 273.201 271.926 274.288 271.749C275.369 271.566 276.456 272.663 276.709 274.197Z" fill="#562A2F"/>
<path d="M303.428 270.136C303.681 271.669 303.014 273.057 301.927 273.234C300.846 273.417 299.759 272.32 299.507 270.787C299.254 269.254 299.921 267.866 301.008 267.688C302.089 267.505 303.175 268.603 303.428 270.136Z" fill="#562A2F"/>
<path d="M304.999 284.446C298.194 284.446 292.228 279.437 291.227 272.514C290.695 268.834 291.626 265.165 293.853 262.185C296.08 259.205 299.334 257.274 303.014 256.741C306.699 256.209 310.362 257.139 313.343 259.366C316.323 261.593 318.254 264.848 318.787 268.528C319.319 272.207 318.389 275.876 316.161 278.856C313.934 281.836 310.68 283.768 307 284.3C306.328 284.397 305.655 284.446 304.999 284.446ZM292.728 272.293C293.707 279.066 300.012 283.778 306.785 282.794C310.066 282.321 312.966 280.594 314.946 277.942C316.931 275.29 317.759 272.019 317.286 268.737C316.812 265.456 315.086 262.556 312.433 260.577C309.781 258.592 306.511 257.763 303.229 258.237C296.462 259.216 291.749 265.52 292.728 272.293Z" fill="white"/>
<path d="M272.405 289.157C269.419 289.157 266.53 288.2 264.099 286.387C261.119 284.16 259.187 280.905 258.655 277.226C258.122 273.546 259.053 269.877 261.28 266.897C263.507 263.917 266.762 261.986 270.441 261.453C274.121 260.92 277.79 261.851 280.77 264.078C283.75 266.305 285.681 269.56 286.214 273.24C286.746 276.919 285.816 280.588 283.589 283.568C281.362 286.548 278.107 288.48 274.427 289.012C273.75 289.109 273.077 289.157 272.405 289.157ZM272.458 262.819C271.861 262.819 271.259 262.862 270.656 262.949C267.375 263.422 264.475 265.149 262.496 267.801C260.511 270.453 259.682 273.724 260.156 277.005C260.629 280.287 262.356 283.181 265.008 285.166C267.66 287.151 270.931 287.979 274.212 287.506C277.494 287.033 280.393 285.306 282.373 282.654C284.358 280.002 285.186 276.731 284.713 273.449C284.24 270.168 282.513 267.274 279.861 265.289C277.693 263.669 275.116 262.819 272.458 262.819Z" fill="white"/>
<path d="M298.382 279.173L295.268 284.364L289.286 269.442L298.382 279.173Z" fill="#FFBE97"/>
<path d="M284.202 270.016L283.643 268.602C286.929 267.305 289.824 266.891 292.492 267.337L292.244 268.838C289.856 268.44 287.225 268.822 284.207 270.016H284.202Z" fill="white"/>
<path d="M249.09 248.671C249.09 248.671 265.369 260.226 271.953 260.727C278.538 261.227 284.514 258.736 284.514 258.736L280.872 254.578C280.872 254.578 285.348 258.268 290.007 258.295C294.665 258.322 300.782 256.332 300.782 256.332L296.026 251.329C296.026 251.329 304.73 258.516 311.815 256.165C311.815 256.165 293.81 233.678 277.822 236.836C261.834 239.999 249.09 248.666 249.09 248.666V248.671Z" fill="#4F2B2B"/>
<path d="M295.337 285.467C295.214 285.467 295.09 285.435 294.972 285.37C294.606 285.166 294.471 284.708 294.67 284.337L297.446 279.286L289.339 270.609C289.054 270.302 289.07 269.823 289.377 269.533C289.684 269.248 290.162 269.264 290.453 269.571L298.936 278.651C299.162 278.893 299.205 279.248 299.049 279.533L296.004 285.063C295.865 285.316 295.606 285.456 295.337 285.456V285.467Z" fill="#562A2F"/>
<path d="M247.142 285.085C246.868 285.085 246.599 284.934 246.465 284.676C246.373 284.499 244.167 280.356 240.171 281.293C239.762 281.389 239.353 281.136 239.256 280.728C239.159 280.319 239.412 279.91 239.821 279.813C243.952 278.845 246.852 282.116 247.809 283.977C248.003 284.348 247.852 284.811 247.481 284.999C247.368 285.058 247.25 285.085 247.137 285.085H247.142Z" fill="#562A2F"/>
<path d="M298.78 295.242C298.78 295.242 298.727 295.242 298.7 295.242L287.005 294.021C286.585 293.978 286.284 293.601 286.327 293.187C286.37 292.773 286.741 292.466 287.161 292.509L298.856 293.73C299.275 293.773 299.577 294.15 299.534 294.564C299.49 294.957 299.162 295.247 298.78 295.247V295.242Z" fill="#562A2F"/>
<path d="M347.659 279.108L349.408 250.543C349.569 247.913 351.441 245.707 354.012 245.126C357.111 244.421 360.215 246.288 361.049 249.354L365.433 265.531L359.898 277.333L347.659 279.114V279.108Z" fill="#FFBE97"/>
<path d="M361.016 267.408C361.979 267.462 362.937 267.774 363.781 268.365L364.325 268.747C361.845 266.73 362.318 262.798 364.093 260.592C365.874 258.386 368.144 257.327 370.737 258.548L370.689 258.51C368.445 256.848 369.844 252.797 371.463 251.038C373.077 249.279 376.429 247.617 379.527 249.854L380.393 250.527C380.264 248.074 379.678 247.24 378.596 246.175C377.515 245.11 371.447 239.128 369.225 236.911C367.004 234.695 366.008 231.08 368.026 228.401C370.043 225.722 374.207 225.146 377.192 226.9C380.178 228.659 387.596 235.421 387.596 235.421C395.8 241.602 399.243 252.27 396.198 262.077L383.508 302.95L393.272 349.182L340.526 355.067L339.912 342.226H339.794L339.536 334.253L338.358 298.297C338.358 298.222 338.358 298.146 338.352 298.071C338.008 286.941 344.017 276.574 353.818 271.292L361.011 267.413L361.016 267.408Z" fill="#FFBE97"/>
<path d="M393.277 349.181L397.898 371.049C401.637 388.737 388.14 405.381 370.065 405.381C354.878 405.381 342.371 393.46 341.645 378.29L340.531 355.067L393.277 349.181Z" fill="#F29EC3"/>
<path d="M391.464 261C391.287 261 391.109 260.941 390.964 260.812L379.032 250.43C378.715 250.155 378.683 249.676 378.957 249.359C379.231 249.042 379.71 249.009 380.028 249.284L391.959 259.666C392.277 259.941 392.309 260.419 392.035 260.737C391.884 260.909 391.674 261 391.459 261H391.464Z" fill="#4F2B2B"/>
<path d="M381.453 268.559C381.276 268.559 381.098 268.5 380.953 268.371L369.021 257.988C368.704 257.714 368.671 257.235 368.946 256.918C369.22 256.6 369.699 256.568 370.016 256.842L381.948 267.225C382.265 267.499 382.298 267.978 382.023 268.295C381.873 268.467 381.663 268.559 381.448 268.559H381.453Z" fill="#4F2B2B"/>
<path d="M369.763 290.253C369.586 290.253 369.408 290.194 369.263 290.065L357.331 279.682C357.014 279.408 356.982 278.929 357.256 278.612C357.53 278.295 358.009 278.262 358.326 278.537L370.258 288.919C370.576 289.193 370.608 289.672 370.333 289.99C370.183 290.162 369.973 290.253 369.758 290.253H369.763Z" fill="#4F2B2B"/>
<path d="M360.79 287.241C358.994 287.241 357.202 286.58 355.798 285.278C354.249 283.842 353.361 281.803 353.361 279.694V275.38C353.361 273.319 354.131 271.35 355.519 269.839L356.406 268.87C358.601 266.482 362.35 266.299 364.766 268.462L375.503 278.08C375.815 278.36 375.842 278.839 375.563 279.151C375.283 279.463 374.804 279.49 374.492 279.21L363.755 269.591C361.958 267.983 359.16 268.117 357.53 269.893L356.643 270.861C355.508 272.098 354.884 273.701 354.884 275.374V279.689C354.884 281.378 355.594 283.013 356.836 284.159C358.913 286.085 362.055 286.241 364.309 284.53C364.642 284.277 365.121 284.342 365.374 284.675C365.627 285.009 365.562 285.488 365.229 285.741C363.911 286.741 362.35 287.231 360.796 287.231L360.79 287.241Z" fill="#4F2B2B"/>
<path d="M328.868 399.452C328.465 399.452 328.126 399.134 328.11 398.726L327.249 377.794C327.233 377.374 327.556 377.019 327.975 377.003C328.4 376.971 328.75 377.31 328.766 377.729L329.627 398.661C329.643 399.081 329.32 399.436 328.901 399.452C328.89 399.452 328.879 399.452 328.868 399.452Z" fill="#4F2B2B"/>
<path d="M342.091 382.873C341.688 382.873 341.354 382.561 341.333 382.152L338.777 334.29C338.756 333.871 339.079 333.516 339.493 333.489C339.912 333.473 340.268 333.79 340.294 334.204L342.85 382.066C342.871 382.485 342.548 382.84 342.134 382.867C342.118 382.867 342.107 382.867 342.091 382.867V382.873Z" fill="#4F2B2B"/>
<path d="M166.112 406.278C155.025 426.37 165.644 451.541 187.775 457.62C207.233 462.967 227.228 451.03 231.747 431.362L236.944 408.769L179.383 382.226L166.112 406.278Z" fill="#F29EC3"/>
<path d="M197.254 459.583C194.037 459.583 190.793 459.148 187.598 458.271C187.242 458.174 187.027 457.803 187.129 457.448C187.226 457.093 187.598 456.877 187.953 456.98C197.184 459.513 206.797 458.212 215.017 453.3C223.237 448.389 228.944 440.551 231.091 431.217L236.287 408.623C236.368 408.263 236.734 408.037 237.094 408.118C237.455 408.198 237.681 408.559 237.6 408.925L232.403 431.518C230.176 441.212 224.248 449.357 215.705 454.451C210.014 457.851 203.682 459.583 197.254 459.583Z" fill="#4F2B2B"/>
<path d="M213.225 320.884L179.383 382.226L236.943 408.769L253.356 337.367L213.225 320.884Z" fill="#FFBE97"/>
<path d="M171.249 397.721C171.125 397.721 171.002 397.688 170.883 397.624C170.517 397.419 170.383 396.957 170.587 396.591L178.716 381.856C178.92 381.491 179.383 381.356 179.749 381.561C180.114 381.765 180.249 382.228 180.045 382.593L171.916 397.328C171.776 397.581 171.518 397.721 171.249 397.721Z" fill="#4F2B2B"/>
<path d="M213.156 321.105L218.541 303.106C219.423 300.152 221.424 297.667 224.119 296.171L235.201 290.023C238.934 287.306 244.002 287.349 247.692 290.125L266.504 304.273C271.206 307.807 272.088 314.51 268.462 319.142L249.268 343.656L213.156 321.116V321.105Z" fill="#FFBE97"/>
<path d="M249.262 344.409C249.101 344.409 248.934 344.355 248.794 344.248C248.466 343.989 248.407 343.511 248.665 343.182L267.859 318.668C269.484 316.592 270.194 314.004 269.85 311.39C269.506 308.775 268.155 306.462 266.047 304.875L247.234 290.727C243.792 288.134 239.133 288.096 235.647 290.635C235.308 290.883 234.835 290.808 234.587 290.469C234.34 290.13 234.415 289.656 234.754 289.409C238.783 286.477 244.163 286.52 248.149 289.516L266.961 303.665C269.398 305.499 270.958 308.173 271.356 311.196C271.754 314.219 270.936 317.205 269.059 319.609L249.865 344.124C249.714 344.317 249.494 344.414 249.268 344.414L249.262 344.409Z" fill="#4F2B2B"/>
<path d="M228.277 302.513C228.148 302.513 228.013 302.481 227.89 302.406C227.529 302.191 227.411 301.728 227.621 301.367L234.544 289.629C234.759 289.269 235.222 289.151 235.582 289.36C235.943 289.576 236.061 290.038 235.851 290.399L228.928 302.137C228.788 302.379 228.535 302.508 228.272 302.508L228.277 302.513Z" fill="#4F2B2B"/>
<path d="M243.544 302.859C243.42 302.859 243.297 302.827 243.178 302.767C242.813 302.568 242.673 302.106 242.877 301.735L248.348 291.707C248.547 291.341 249.01 291.201 249.381 291.406C249.747 291.605 249.887 292.068 249.682 292.439L244.211 302.466C244.071 302.719 243.813 302.864 243.544 302.864V302.859Z" fill="#4F2B2B"/>
<path d="M251.769 308.689C251.646 308.689 251.522 308.657 251.409 308.597C251.043 308.398 250.903 307.936 251.108 307.565L256.579 297.537C256.778 297.171 257.24 297.032 257.611 297.236C257.977 297.435 258.117 297.898 257.913 298.269L252.442 308.296C252.302 308.549 252.044 308.694 251.775 308.694L251.769 308.689Z" fill="#4F2B2B"/>
<path d="M259.29 314.548C259.166 314.548 259.042 314.516 258.929 314.457C258.564 314.258 258.424 313.795 258.628 313.424L264.104 303.397C264.303 303.031 264.766 302.891 265.137 303.095C265.503 303.294 265.643 303.757 265.439 304.128L259.962 314.156C259.822 314.408 259.564 314.554 259.295 314.554L259.29 314.548Z" fill="#4F2B2B"/>
<path d="M335.849 241.552C327.515 232.937 331.681 222.908 334.806 218.97C340.624 213.094 348.295 211.192 353.052 211.02C357.808 210.848 374.482 213.491 371.431 231.285C368.38 249.079 346.266 252.322 335.849 241.552Z" fill="#DB0C18"/>
<path d="M332.137 216.038C332.707 216.33 334.569 216.466 337.454 214.674C341.061 212.434 346.317 210.541 348.099 211.571C348.129 211.108 348.102 210.213 347.882 209.323C347.686 208.526 347.815 207.598 348.53 207.196C349.361 206.728 350.335 206.414 350.943 206.896C351.888 207.646 351.213 209.871 350.758 210.889C351.706 210.261 354.523 209.468 358.214 211.319C361.905 213.17 365.001 211.379 366.088 210.252C366.132 211.41 365.69 213.786 363.571 214.03C361.687 214.247 357.702 213.432 355.351 212.854C356.484 213.314 358.041 214.625 358.722 217.594C356.522 216.201 351.54 213.762 349.209 215.146C346.295 216.877 343.361 219.362 343.625 220.727C342.97 219.854 341.974 217.664 343.229 215.888C344.799 213.668 336.067 221.274 332.137 216.038Z" fill="#8DC545"/>
<path d="M203.348 249.552C197.533 246.082 188.248 250.687 188.856 259.031C189.297 265.094 194.612 269.639 200.411 268.095C207.469 266.218 209.615 257.406 205.494 251.591C204.86 250.693 204.133 250.026 203.348 249.558V249.552Z" fill="#D8F5FD"/>
<path d="M218.249 271.56C216.447 269.623 213.096 269.725 210.54 271.162C207.899 272.647 207.749 275.003 208.728 277.483C209.674 279.893 211.853 281.899 214.43 282.206C217.001 282.507 219.788 280.796 220.299 278.257C220.718 276.175 219.831 273.26 218.249 271.565V271.56Z" fill="#D8F5FD"/>
<g filter="url(#filter0_bf_760_14802)">
<ellipse cx="173.382" cy="212.838" rx="43.5" ry="2.43622" transform="rotate(-3 173.382 212.838)" fill="#2B6577"/>
</g>
<path d="M174.585 196.405C164.331 202.612 139.955 206.862 129.049 208.211C123.989 208.91 121.291 209.897 119.267 212.933C117.243 215.969 113.533 223.727 131.747 226.088C146.319 227.977 176.721 214.957 190.101 208.211C200.895 203.826 223.022 192.762 225.181 183.588C227.879 172.119 217.76 173.469 212.7 173.806C207.641 174.143 187.403 188.647 174.585 196.405Z" fill="#F9BA84"/>
<path d="M164.86 184.826C154.606 191.033 130.23 195.283 119.324 196.632C114.264 197.331 111.565 198.318 109.542 201.354C107.518 204.39 103.807 212.148 122.022 214.509C136.594 216.398 166.996 203.378 180.376 196.632C191.17 192.247 213.297 181.183 215.456 172.009C218.154 160.54 208.035 161.889 202.975 162.227C197.916 162.564 177.677 177.068 164.86 184.826Z" fill="#F9BA84"/>
<path d="M104.763 218.33C107.191 223.187 115.219 223.727 118.929 223.39C141.529 224.402 219.784 185.274 224.169 174.48C228.554 163.687 215.399 163.687 210.339 165.036C205.28 166.385 191.45 175.492 169.525 189.659C147.6 203.826 126.35 203.489 117.243 204.163C108.136 204.838 101.727 212.259 104.763 218.33Z" fill="#854747"/>
<path d="M129.923 222.345C129.451 212.827 129.989 196.066 135.923 205.165C143.341 216.538 146.312 222.39 147.762 208.633C149.211 194.876 148.742 196.886 153.466 204.05C158.19 211.214 161.225 215.849 160.41 203.6C159.595 191.352 161.541 195.93 164.897 201.394C168.253 206.859 171.246 212.305 169.704 200.019C168.163 187.732 167.778 188.119 173.698 193.312C179.618 198.504 187.036 209.878 183.293 197.883C179.551 185.888 177.263 180.886 182.842 185.654C188.42 190.421 198.102 200.286 195.921 193.255C193.739 186.225 186.065 172.803 192.455 175.986C199.172 179.864 211.461 185.852 206.878 178.776C202.295 171.701 200.167 170.152 199.675 170.262" stroke="#DB0C18" stroke-width="1.34922" stroke-linecap="round"/>
</g>
<defs>
<filter id="filter0_bf_760_14802" x="109.941" y="189.506" width="126.881" height="46.6641" filterUnits="userSpaceOnUse" color-interpolation-filters="sRGB">
<feFlood flood-opacity="0" result="BackgroundImageFix"/>
<feGaussianBlur in="BackgroundImageFix" stdDeviation="2"/>
<feComposite in2="SourceAlpha" operator="in" result="effect1_backgroundBlur_760_14802"/>
<feBlend mode="normal" in="SourceGraphic" in2="effect1_backgroundBlur_760_14802" result="shape"/>
<feGaussianBlur stdDeviation="10" result="effect2_foregroundBlur_760_14802"/>
</filter>
<clipPath id="clip0_760_14802">
<rect width="460" height="460" fill="white"/>
</clipPath>
</defs>
</svg>
