<svg width="460" height="460" viewBox="0 0 460 460" fill="none" xmlns="http://www.w3.org/2000/svg">
<g clip-path="url(#clip0_760_10736)">
<rect width="460" height="460" fill="white"/>
<path d="M477.578 403.998C476.772 403.082 475.503 402.819 474.43 403.246L444.94 345.103C445.067 345.024 445.189 344.935 445.305 344.834C446.471 343.804 446.582 342.027 445.554 340.86C444.526 339.693 442.746 339.583 441.579 340.611C441.393 340.775 441.236 340.96 441.103 341.157L409.269 323.887C409.683 322.918 409.537 321.759 408.794 320.917C407.766 319.75 405.986 319.64 404.819 320.668C404.304 321.124 403.995 321.726 403.898 322.356L364.186 320.023C364.164 319.392 363.933 318.765 363.484 318.254C362.995 317.701 362.339 317.39 361.66 317.318L362.609 223.312C363.193 223.266 363.768 223.037 364.242 222.621C365.409 221.593 365.519 219.813 364.491 218.646C363.463 217.479 361.683 217.369 360.516 218.397C360.177 218.697 359.931 219.061 359.772 219.453L250.927 186.744C251.89 185.696 251.925 184.067 250.964 182.976C249.936 181.809 248.156 181.699 246.989 182.727C246.882 182.821 246.789 182.921 246.7 183.028L212.368 159.206C212.942 158.19 212.845 156.883 212.03 155.96C211.62 155.495 211.09 155.201 210.528 155.076L217.176 102.641L217.769 103.037L217.238 102.135L217.278 101.819L217.087 101.88L171.712 24.6261C171.786 24.5714 171.86 24.5143 171.931 24.4523C173.098 23.4245 173.208 21.6444 172.18 20.4775C171.152 19.3107 169.372 19.2006 168.205 20.2284C167.039 21.2562 166.928 23.0363 167.956 24.2032C168.338 24.6368 168.827 24.9236 169.347 25.0607L162.674 64.7732C162.613 64.8176 162.552 64.8645 162.494 64.9163C162.202 65.1718 161.979 65.4772 161.819 65.8064L97.7839 41.9479C98.0213 41.0648 97.8284 40.0865 97.1783 39.3493C96.1506 38.1825 94.3704 38.0724 93.2036 39.1002C92.0367 40.128 91.9266 41.9081 92.9544 43.075C93.3601 43.5359 93.8879 43.8307 94.4447 43.9545L88.2884 90.9399C87.5928 90.9137 86.8844 91.1411 86.319 91.6401C85.561 92.3089 85.2523 93.2926 85.4068 94.2185L52.7892 102.873C52.6727 102.553 52.4982 102.249 52.259 101.979C51.2312 100.812 49.451 100.702 48.2842 101.73C47.1173 102.757 47.0072 104.538 48.035 105.704C48.6604 106.412 49.5614 106.728 50.434 106.641L57.6591 143.35C57.2764 143.461 56.9125 143.655 56.5921 143.937C55.5449 144.861 55.3506 146.387 56.0645 147.535L24.5782 169.33C23.5453 168.188 21.7842 168.084 20.6263 169.106C19.4595 170.134 19.3494 171.914 20.3771 173.081C20.5562 173.284 20.7591 173.454 20.9783 173.593L8.57451 199.484C7.63492 199.137 6.53912 199.303 5.73532 200.013C5.52571 200.198 5.35298 200.407 5.21357 200.632L-33.7596 180.986C-33.3867 180.034 -33.5432 178.913 -34.267 178.095C-35.2948 176.928 -37.075 176.818 -38.2418 177.845C-39.4087 178.873 -39.5187 180.653 -38.491 181.82C-38.4154 181.906 -38.3352 181.982 -38.2526 182.057L-76.4862 233.846C-77.5113 233.226 -78.861 233.31 -79.8054 234.144C-80.9722 235.172 -81.0823 236.952 -80.0545 238.119C-79.0267 239.285 -77.2466 239.396 -76.0797 238.368C-75.7464 238.075 -75.5029 237.718 -75.344 237.334L14.6406 265.259C14.5184 266.056 14.7363 266.898 15.3109 267.549C16.3387 268.716 18.1188 268.826 19.2857 267.798C20.4525 266.77 20.5626 264.99 19.5348 263.823C19.4322 263.708 19.32 263.605 19.2047 263.509L36.199 235.059C37.1964 235.565 38.4457 235.448 39.3354 234.662C39.6245 234.407 39.8489 234.104 40.007 233.778L114.196 259.007C113.989 259.867 114.191 260.812 114.82 261.527C115.847 262.693 117.628 262.803 118.794 261.776C119.961 260.748 120.071 258.968 119.043 257.801C118.808 257.533 118.53 257.324 118.233 257.169L131.936 223.615C132.838 223.89 133.859 223.706 134.619 223.034L134.437 223.219L200.253 287.725C199.398 288.774 199.4 290.315 200.323 291.362C200.799 291.902 201.438 292.212 202.1 292.292L201.057 330.81C200.456 330.849 199.864 331.076 199.379 331.507C198.213 332.537 198.102 334.315 199.13 335.481C200.158 336.648 201.938 336.758 203.105 335.73C203.559 335.33 203.853 334.814 203.979 334.264L261.612 342.341C261.578 343.047 261.806 343.764 262.31 344.336C263.338 345.503 265.118 345.613 266.285 344.585C266.771 344.156 267.071 343.599 267.183 343.008L302.643 346.526C302.637 347.195 302.868 347.866 303.344 348.406C304.372 349.573 306.152 349.683 307.319 348.656C307.442 348.547 307.551 348.427 307.65 348.305L362.843 383.258C362.363 384.249 362.492 385.472 363.265 386.35C363.848 387.009 364.671 387.332 365.49 387.299L372.192 431.633C371.747 431.734 371.32 431.944 370.953 432.266C369.787 433.294 369.676 435.074 370.704 436.241C371.734 437.407 373.512 437.518 374.679 436.49C374.687 436.481 374.695 436.473 374.704 436.467L402.206 457.273L416.744 468.27C416.246 469.267 416.366 470.508 417.148 471.396C418.176 472.563 419.956 472.673 421.123 471.645C422.029 470.845 422.296 469.594 421.889 468.528L455.697 446.864C455.722 446.893 455.745 446.926 455.773 446.958C456.801 448.125 458.581 448.235 459.748 447.207C460.914 446.179 461.025 444.399 459.997 443.232C459.752 442.956 459.466 442.739 459.155 442.584L474.549 408.522C475.476 408.841 476.542 408.669 477.329 407.973C478.496 406.945 478.606 405.165 477.578 403.998ZM419.996 466.815C419.113 466.578 418.134 466.771 417.397 467.421C417.255 467.547 417.131 467.684 417.019 467.827L400.535 455.358L375.057 436.084C375.224 435.866 375.353 435.628 375.447 435.378L427.888 441.883L419.995 466.813L419.996 466.815ZM263.885 339.71L256.425 314.166L291.822 301.512C291.934 301.75 292.078 301.98 292.262 302.187C292.348 302.286 292.443 302.373 292.54 302.457L265.833 340.036C265.24 339.692 264.546 339.58 263.885 339.71ZM203.79 332.43C203.678 332.191 203.534 331.961 203.35 331.754C203.243 331.633 203.13 331.527 203.009 331.43L242.024 272.845C242.6 273.156 243.263 273.254 243.897 273.132L255.788 313.844L203.791 332.432L203.79 332.43ZM93.5826 92.1308L92.7843 125.373L88.8184 96.493C89.2573 96.3913 89.6783 96.18 90.0438 95.8616C90.8605 95.1411 91.1565 94.054 90.9107 93.0673L93.5826 92.1308ZM96.9283 43.3217C97.219 43.0637 97.4434 42.7607 97.603 42.4315L161.637 66.2933C161.512 66.7564 161.507 67.2451 161.624 67.7114L94.1232 91.3891L95.2606 44.0144C95.8573 43.9743 96.4465 43.746 96.9308 43.3208L96.9283 43.3217ZM359.718 221.44C359.825 221.742 359.984 222.027 360.195 222.287L327.033 254.895C325.985 254.007 324.416 253.997 323.354 254.934L302.85 235.645L359.718 221.44ZM456.971 442.427C456.914 442.448 456.856 442.469 456.801 442.495L441.96 404.812C442.17 404.705 442.369 404.574 442.554 404.413C443.038 403.988 443.336 403.431 443.451 402.844L451.609 403.679L456.971 442.427ZM408.983 348.192L402.773 337.696C402.846 337.645 402.916 337.589 402.985 337.528C403.417 337.147 403.703 336.663 403.842 336.148L412.775 337.691L438.881 398.731L408.983 348.192ZM402.327 337.961L424.042 374.667L439.04 400.02C438.968 400.072 438.897 400.128 438.828 400.189C438.442 400.528 438.175 400.949 438.023 401.406L386.147 389.17L400.608 338.186C401.183 338.292 401.785 338.219 402.325 337.964L402.327 337.961ZM443.504 402.327C443.511 401.655 443.282 400.98 442.803 400.438C442.34 399.912 441.724 399.602 441.08 399.513L443.569 345.552L451.536 403.149L443.501 402.328L443.504 402.327ZM441.329 344.583C441.792 345.109 442.408 345.419 443.052 345.508L440.562 399.489C440.315 399.501 440.068 399.544 439.83 399.62L413.388 337.797L440.637 342.5C440.581 343.234 440.806 343.988 441.332 344.582L441.329 344.583ZM440.722 341.988L413.143 337.228L408.021 325.254C408.203 325.155 408.381 325.035 408.542 324.893C408.729 324.728 408.886 324.544 409.018 324.346L440.853 341.616C440.8 341.738 440.754 341.863 440.721 341.991L440.722 341.988ZM405.79 325.449C406.356 325.636 406.971 325.645 407.542 325.459L412.531 337.121L403.93 335.638C403.986 334.903 403.762 334.15 403.235 333.555C403.018 333.308 402.764 333.11 402.49 332.958L405.79 325.449ZM398.309 335.487L362.833 339.671L361.801 322.897C362.315 322.818 362.813 322.598 363.235 322.229C363.517 321.979 363.736 321.684 363.894 321.366L398.414 334.652C398.339 334.923 398.303 335.204 398.309 335.487ZM307.96 345.265C307.855 345.06 307.725 344.862 307.564 344.679C307.25 344.324 306.868 344.067 306.455 343.91L314.631 306.58L358.608 319.572C358.509 320.076 358.547 320.598 358.725 321.087L307.958 345.266L307.96 345.265ZM132.382 218.13L127 188.648C127.42 188.542 127.825 188.34 128.172 188.031C128.341 187.881 128.486 187.715 128.612 187.536L138.562 191.851L132.895 218.109C132.723 218.1 132.551 218.107 132.379 218.128L132.382 218.13ZM9.73675 203.946C10.3224 203.26 10.5303 202.349 10.341 201.502L28.144 195.697L36.4462 229.931C36.1484 230.048 35.8635 230.215 35.6097 230.438L9.73919 203.945L9.73675 203.946ZM36.9439 229.786L28.6379 195.534L84.0261 177.477C84.1419 177.742 84.2976 177.995 84.4996 178.223C84.5225 178.248 84.5478 178.272 84.5707 178.297L39.0831 230.244C38.4527 229.804 37.6795 229.649 36.9464 229.785L36.9439 229.786ZM323.102 258.907C323.188 259.006 323.28 259.092 323.377 259.175L295.786 297.892C295.094 297.488 294.26 297.401 293.503 297.647L279.621 265.33L322.5 257.785C322.61 258.187 322.808 258.572 323.102 258.907ZM293.025 297.854C292.843 297.953 292.67 298.072 292.506 298.214C292.338 298.361 292.196 298.526 292.072 298.701L245.696 271.926C245.839 271.711 245.949 271.483 246.026 271.244L279.092 265.426L293.023 297.855L293.025 297.854ZM246.149 270.693C246.189 270.333 246.164 269.966 246.066 269.614L266.36 247.895L268.324 245.791C269.054 246.358 270.004 246.522 270.867 246.263L278.888 264.933L246.154 270.692L246.149 270.693ZM267.939 245.431C267.939 245.431 267.94 245.433 267.94 245.436L265.984 247.531L245.852 269.078C245.748 268.878 245.62 268.684 245.463 268.506C245.205 268.213 244.898 267.987 244.569 267.827L245.899 243.466L267.245 243.821C267.297 244.397 267.523 244.965 267.936 245.432L267.939 245.431ZM322.41 257.272L279.41 264.84L271.346 246.066C271.546 245.963 271.738 245.835 271.913 245.68C272.28 245.356 272.542 244.959 272.698 244.529L322.429 256.632C322.398 256.843 322.393 257.057 322.41 257.272ZM249.549 187.563L268.807 241.045C268.589 241.152 268.379 241.29 268.188 241.456C267.629 241.95 267.315 242.615 267.25 243.302L245.931 242.945L248.95 187.651C249.152 187.644 249.351 187.613 249.548 187.561L249.549 187.563ZM245.411 242.938L220.606 242.524C220.535 241.988 220.311 241.47 219.926 241.034C219.775 240.865 219.609 240.718 219.431 240.595L236.631 208.316L247.757 187.435C247.976 187.527 248.201 187.592 248.431 187.624L245.411 242.938ZM164.529 69.8385L168.257 95.4212L170.56 111.234C170.128 111.339 169.716 111.544 169.358 111.86C168.656 112.478 168.341 113.367 168.42 114.232L154.721 116.795L164.104 69.8353C164.247 69.8471 164.388 69.8481 164.53 69.841L164.529 69.8385ZM160.255 198.422L148.32 155.105C148.629 154.987 148.927 154.818 149.188 154.584C149.64 154.185 149.932 153.672 150.061 153.124L166.095 154.453L160.82 198.379C160.63 198.374 160.439 198.388 160.251 198.42L160.255 198.422ZM150.137 152.609C150.17 151.903 149.944 151.183 149.437 150.61C149.309 150.465 149.172 150.338 149.023 150.226L169.961 116.49C170.174 116.595 170.398 116.671 170.626 116.721L166.157 153.938L150.135 152.61L150.137 152.609ZM168.515 114.743C168.626 115.133 168.821 115.508 169.109 115.835C169.235 115.977 169.373 116.106 169.519 116.217L162.035 128.264L148.567 149.944C148.425 149.874 148.278 149.82 148.129 149.775L154.61 117.341L168.516 114.739L168.515 114.743ZM147.619 149.675C146.863 149.596 146.078 149.818 145.462 150.361C145.213 150.581 145.015 150.836 144.863 151.11L95.6325 129.504C95.7547 129.133 95.7984 128.743 95.7623 128.355L154.057 117.448L147.617 149.676L147.619 149.675ZM94.827 130.726C95.0759 130.506 95.2738 130.251 95.4258 129.977L144.657 151.583C144.476 152.122 144.465 152.707 144.623 153.255L114.498 165.108L94.5992 130.906C94.6783 130.85 94.7531 130.789 94.8261 130.724L94.827 130.726ZM144.813 153.739C144.92 153.949 145.052 154.151 145.213 154.335C145.261 154.392 145.315 154.442 145.367 154.492L127.688 183.471C126.902 183.029 125.944 182.988 125.122 183.367L114.763 165.562L144.813 153.739ZM128.419 184.057C128.324 183.95 128.221 183.855 128.116 183.766L145.776 154.819C145.998 154.965 146.235 155.076 146.482 155.154L138.675 191.334L128.873 187.084C129.317 186.106 129.179 184.914 128.422 184.058L128.419 184.057ZM146.989 155.263C147.215 155.291 147.445 155.293 147.673 155.266L159.745 198.563C159.439 198.68 159.146 198.85 158.885 199.081C158.633 199.302 158.434 199.56 158.281 199.84L139.16 191.548L146.99 155.265L146.989 155.263ZM215.953 240.784C215.922 240.812 215.894 240.842 215.864 240.872L184.674 218.236L163.172 202.63C163.477 202.115 163.604 201.521 163.552 200.937L212.882 191.78L217.483 240.1C216.934 240.165 216.399 240.39 215.953 240.784ZM162.68 199.141C162.296 198.777 161.832 198.545 161.343 198.44L166.62 154.495L207.097 157.849C207.102 158.42 207.28 158.992 207.636 159.482L162.68 199.141ZM207.138 157.331L166.68 153.977L171.146 116.781C171.753 116.798 172.364 116.623 172.881 116.243L207.859 155.893C207.471 156.302 207.229 156.805 207.138 157.331ZM173.334 112.106C172.742 111.436 171.903 111.116 171.075 111.158L169.396 99.6295L165.045 69.7587C165.156 69.7293 165.267 69.6942 165.376 69.6517L186.419 111.587L173.448 115.694C174.261 114.646 174.244 113.139 173.334 112.106ZM162.439 69.0995C162.777 69.4111 163.172 69.6239 163.592 69.7424L154.17 116.898L95.6702 127.844C95.5846 127.54 95.4483 127.25 95.2593 126.981L162.439 69.0995ZM94.1515 131.166L114.012 165.301L89.123 175.093C89.0161 174.883 88.8848 174.682 88.7235 174.497C88.3178 174.036 87.7934 173.743 87.239 173.619L92.8543 131.425C93.2947 131.442 93.7398 131.357 94.1515 131.166ZM89.3131 175.578L114.275 165.756L124.672 183.628C124.593 183.684 124.518 183.745 124.445 183.81C124.063 184.145 123.798 184.563 123.644 185.015L89.3949 176.768C89.4532 176.373 89.4249 175.968 89.3115 175.581L89.3131 175.578ZM133.413 218.187L139.049 192.064L158.075 200.316C157.833 201.057 157.903 201.878 158.298 202.578L134.745 218.936C134.366 218.556 133.904 218.304 133.415 218.186L133.413 218.187ZM135.077 219.338L158.597 203.003C158.611 203.02 158.623 203.038 158.638 203.055C159.666 204.222 161.446 204.332 162.613 203.304C162.703 203.224 162.787 203.138 162.866 203.049L210.96 237.957L215.523 241.267C215.411 241.424 215.317 241.591 215.241 241.763L135.549 221.235C135.621 220.581 135.469 219.906 135.078 219.334L135.077 219.338ZM220.627 243.045L245.383 243.46L244.063 267.646C243.23 267.432 242.316 267.604 241.6 268.175L220.051 244.61C220.404 244.15 220.595 243.604 220.625 243.048L220.627 243.045ZM296.484 298.465C296.398 298.366 296.306 298.281 296.21 298.197L323.8 259.48C323.979 259.584 324.167 259.668 324.36 259.727L314.241 305.926L297.131 300.872C297.293 300.041 297.084 299.148 296.481 298.463L296.484 298.465ZM359.505 318.009C359.161 318.311 358.914 318.681 358.755 319.079L314.742 306.078L324.869 259.841C325.379 259.904 325.905 259.829 326.384 259.61L359.748 317.818C359.664 317.876 359.582 317.939 359.505 318.009ZM322.996 255.316C322.802 255.567 322.653 255.842 322.554 256.133L272.832 244.031C272.881 243.74 272.88 243.441 272.836 243.145L302.25 235.798L322.998 255.316L322.996 255.316ZM272.708 242.641C272.592 242.307 272.41 241.991 272.163 241.708C271.424 240.87 270.3 240.579 269.293 240.86L250.038 187.388C250.199 187.313 250.355 187.223 250.503 187.114L301.798 235.37L272.708 242.635L272.708 242.641ZM246.733 186.704C246.902 186.897 247.093 187.057 247.297 187.191L218.98 240.336C218.668 240.195 218.336 240.111 218.002 240.089L213.392 191.685L246.137 185.607C246.247 186.001 246.444 186.375 246.733 186.704ZM212.831 191.261L163.458 200.426C163.368 200.113 163.228 199.81 163.024 199.533L207.98 159.874C208.52 160.383 209.216 160.639 209.918 160.637L212.834 191.261L212.831 191.261ZM208.249 155.551L173.545 116.212L186.656 112.063L208.422 155.439C208.362 155.474 208.307 155.511 208.249 155.551ZM165.84 69.4195C165.971 69.3386 166.096 69.2488 166.215 69.1444C166.335 69.04 166.44 68.9245 166.538 68.8058L216.368 102.108L186.921 111.432L165.841 69.4219L165.84 69.4195ZM161.791 68.2069C161.855 68.3466 161.933 68.4843 162.022 68.6151L161.99 68.801L94.918 126.591C94.461 126.148 93.8866 125.893 93.2909 125.822L94.1031 91.9497L161.787 68.2054L161.791 68.2069ZM52.9172 103.377L85.5348 94.7225C85.6513 95.0425 85.8258 95.3469 86.065 95.6167C86.217 95.791 86.3887 95.936 86.5707 96.0634L74.3883 117.569L52.7007 105.024C52.9391 104.509 53.0122 103.934 52.9181 103.379L52.9172 103.377ZM87.0234 96.3191C87.4272 96.5014 87.867 96.5847 88.3023 96.5646L92.3267 125.871C91.8879 125.973 91.4669 126.184 91.1014 126.503C90.9335 126.649 90.7916 126.814 90.6689 126.986L74.8371 117.829L87.0234 96.3191ZM90.4089 127.435C90.0875 128.133 90.0642 128.936 90.3503 129.653L60.897 144.653C60.8046 144.49 60.6917 144.332 60.5635 144.185C60.4311 144.034 60.2836 143.902 60.1283 143.787L74.5796 118.277L90.408 127.433L90.4089 127.435ZM61.1115 145.128L86.5944 132.149L60.6812 147.769C61.2658 147.011 61.4169 146.013 61.1115 145.128ZM90.698 130.282C90.7467 130.347 90.7978 130.411 90.8514 130.475C91.2571 130.936 91.7815 131.229 92.3359 131.354L86.7205 173.547C86.0216 173.519 85.3107 173.748 84.7454 174.247C84.2467 174.686 83.9426 175.264 83.8375 175.872L25.2972 171.086C25.2787 170.677 25.1688 170.269 24.9719 169.895L90.6996 130.278L90.698 130.282ZM83.7965 176.39C83.7995 176.588 83.8189 176.786 83.8629 176.983L28.5147 195.028L23.386 173.884C23.7306 173.767 24.0571 173.584 24.3477 173.326C24.8737 172.864 25.1809 172.248 25.2711 171.607L83.7941 176.391L83.7965 176.39ZM22.8809 174.001L28.0191 195.187L10.1761 201.003C10.0603 200.738 9.90452 200.485 9.70256 200.257C9.50482 200.033 9.28023 199.849 9.03609 199.703L21.4361 173.824C21.8959 174.008 22.3934 174.068 22.88 173.999L22.8809 174.001ZM5.47952 203.985C6.48264 205.122 8.19597 205.254 9.36172 204.307L35.1265 230.691L-33.4791 181.711L4.96873 201.092C4.59588 202.044 4.75234 203.165 5.47619 203.984L5.47952 203.985ZM-34.5237 182.064C-34.4274 181.979 -34.3394 181.886 -34.2582 181.79L34.9832 231.225C34.7845 231.599 34.674 232.009 34.6566 232.425L-2.44007 233.6L-34.6792 182.184C-34.6276 182.143 -34.5752 182.105 -34.5246 182.061L-34.5237 182.064ZM39.5812 230.685C39.5481 230.648 39.511 230.614 39.4763 230.58L84.9583 178.64C85.6472 179.142 86.5206 179.291 87.3241 179.082L95.576 201.754L39.8278 231.013C39.7532 230.899 39.6745 230.79 39.5812 230.685ZM87.8126 178.904C88.0465 178.794 88.2688 178.652 88.4735 178.47C88.8549 178.134 89.1207 177.717 89.2745 177.265L123.523 185.512C123.451 186.006 123.513 186.517 123.706 186.987L96.0421 201.507L87.8142 178.901L87.8126 178.904ZM123.95 187.451C124.024 187.565 124.104 187.677 124.197 187.782C124.607 188.247 125.137 188.541 125.697 188.666L117.027 256.85C116.755 256.841 116.484 256.871 116.216 256.941L96.2211 202.006L123.95 187.454L123.95 187.451ZM117.542 256.914L126.214 188.732C126.304 188.736 126.395 188.736 126.486 188.727L131.877 218.245C131.523 218.36 131.187 218.548 130.892 218.808C129.726 219.838 129.615 221.616 130.643 222.783C130.879 223.051 131.157 223.26 131.454 223.414L117.749 256.966C117.68 256.944 117.611 256.928 117.541 256.912L117.542 256.914ZM135.443 221.744L215.077 242.254C214.877 243.11 215.08 244.049 215.707 244.758C215.988 245.076 216.327 245.315 216.695 245.475L203.068 286.756C202.231 286.562 201.319 286.756 200.618 287.351L134.806 222.85C135.111 222.526 135.325 222.147 135.446 221.743L135.443 221.744ZM204.544 287.635C204.262 287.317 203.923 287.078 203.558 286.917L216.885 246.545L209.71 285.807L204.863 288.072C204.775 287.919 204.668 287.769 204.546 287.631L204.544 287.635ZM217.57 245.698C218.313 245.763 219.078 245.54 219.681 245.008C219.688 245.002 219.693 244.995 219.702 244.989L241.229 268.531C240.555 269.31 240.375 270.38 240.711 271.32L210.289 285.541L217.571 245.701L217.57 245.698ZM240.93 271.791C241.019 271.944 241.126 272.093 241.248 272.231C241.355 272.35 241.469 272.458 241.59 272.555L202.574 331.141C202.389 331.042 202.196 330.963 201.996 330.905L210.173 286.167L240.93 271.791ZM244.393 272.984C244.689 272.868 244.969 272.703 245.223 272.48C245.275 272.434 245.323 272.383 245.372 272.335L291.817 299.148C291.547 299.736 291.489 300.399 291.647 301.022L256.276 313.666L244.393 272.984ZM295.285 302.99C295.624 302.875 295.95 302.69 296.237 302.436C296.58 302.134 296.828 301.765 296.987 301.367L314.131 306.43L305.953 343.772C305.684 343.723 305.41 343.715 305.138 343.745L295.286 302.987L295.285 302.99ZM308.154 345.751L358.951 321.558C359.039 321.706 359.14 321.849 359.257 321.98C359.794 322.587 360.532 322.905 361.282 322.928L362.316 339.732L308.235 346.112C308.215 345.989 308.188 345.869 308.153 345.749L308.154 345.751ZM362.865 340.193L398.37 336.004C398.468 336.464 398.678 336.904 399.012 337.281C399.091 337.371 399.176 337.451 399.263 337.53L373.336 373.104L366.807 382.064C366.381 381.813 365.899 381.684 365.418 381.676L362.866 340.195L362.865 340.193ZM367.489 382.624C367.409 382.532 367.32 382.448 367.227 382.368L399.681 337.837C399.819 337.919 399.96 337.987 400.108 338.044L385.641 389.05L368.158 384.926C368.284 384.124 368.067 383.277 367.489 382.624ZM386.005 389.67L437.905 401.911C437.842 402.368 437.891 402.837 438.055 403.278L375.424 433.322C375.308 433.035 375.145 432.762 374.929 432.517C374.674 432.228 374.371 432.004 374.045 431.846L386.009 389.671L386.005 389.67ZM375.586 434.87C375.646 434.525 375.644 434.169 375.573 433.824L438.277 403.745C438.363 403.891 438.464 404.031 438.58 404.16C438.871 404.489 439.219 404.73 439.599 404.891L428.047 441.377L375.585 434.868L375.586 434.87ZM440.094 405.051C440.551 405.15 441.024 405.136 441.477 405.004L456.34 442.74C456.229 442.814 456.121 442.891 456.019 442.981C455.485 443.452 455.174 444.08 455.091 444.735L428.573 441.446L440.094 405.051ZM457.48 442.308L452.144 403.736L472.653 405.835C472.646 406.507 472.875 407.182 473.354 407.724C473.566 407.964 473.811 408.158 474.076 408.307L458.67 442.392C458.284 442.281 457.88 442.251 457.48 442.308ZM473.968 403.481C473.841 403.56 473.719 403.649 473.603 403.749C473.119 404.174 472.821 404.731 472.705 405.318L452.071 403.206L444.084 345.464C444.217 345.433 444.35 345.389 444.478 345.337L473.968 403.481ZM403.866 322.877C403.889 323.508 404.119 324.135 404.569 324.646C404.786 324.894 405.04 325.091 405.314 325.243L402.014 332.752C401.094 332.445 400.04 332.621 399.262 333.309C398.979 333.558 398.76 333.854 398.602 334.171L364.082 320.886C364.114 320.774 364.138 320.66 364.157 320.545L403.87 322.878L403.866 322.877ZM361.14 317.317C360.82 317.342 360.503 317.422 360.202 317.559L326.838 259.351C326.922 259.293 327.004 259.23 327.081 259.16C328.22 258.157 328.349 256.436 327.397 255.269L360.558 222.662C361.002 223.037 361.535 223.255 362.086 223.311L361.137 317.318L361.14 317.317ZM359.617 219.955C359.552 220.278 359.544 220.613 359.594 220.94L302.401 235.225L251.694 187.521L359.62 219.954L359.617 219.955ZM246.398 183.459C246.113 183.961 245.996 184.535 246.046 185.098L213.348 191.168L210.437 160.59C210.918 160.497 211.383 160.284 211.776 159.936C211.883 159.842 211.977 159.742 212.065 159.635L246.397 183.457L246.398 183.459ZM210.007 155.014C209.629 155.002 209.249 155.066 208.89 155.205L187.162 111.903L216.659 102.564L210.009 155.013L210.007 155.014ZM169.859 25.1512C170.333 25.1859 170.82 25.1003 171.261 24.8925L216.166 101.347L166.826 68.3744C167.372 67.3653 167.267 66.0811 166.465 65.1696C165.64 64.2357 164.339 63.9818 163.253 64.4408L169.856 25.1496L169.859 25.1512ZM94.689 46.0926L93.597 91.5778L90.7411 92.5785C90.63 92.334 90.4814 92.1004 90.2938 91.8893C89.8881 91.4283 89.3604 91.1335 88.8026 91.0073L94.6882 46.0901L94.689 46.0926ZM50.9437 106.544C51.3263 106.432 51.6928 106.238 52.0107 105.956C52.1786 105.809 52.318 105.645 52.4432 105.472L74.1351 118.021L59.6885 143.521C59.2142 143.29 58.6872 143.203 58.1688 143.253L50.9437 106.544ZM56.3794 147.951C57.0499 148.684 58.0219 148.983 58.9378 148.824L29.3805 166.639L56.3769 147.952L56.3794 147.951ZM-37.8378 182.368C-37.0117 182.867 -35.9793 182.906 -35.1122 182.469L-3.03397 233.625L-75.1461 235.909C-75.2135 235.366 -75.4393 234.837 -75.8272 234.395C-75.9028 234.309 -75.9839 234.23 -76.0656 234.158L-37.8354 182.367L-37.8378 182.368ZM-75.1898 236.838C-75.1614 236.703 -75.1397 236.565 -75.1319 236.427L-2.71821 234.136L15.6808 263.48C15.6397 263.512 15.5987 263.543 15.5585 263.577C15.1834 263.908 14.9199 264.316 14.765 264.757L-75.1898 236.838ZM18.7757 263.22C17.9567 262.771 16.9579 262.755 16.1196 263.196L-2.11342 234.117L34.6883 232.953C34.7635 233.479 34.9856 233.99 35.3624 234.417C35.4846 234.556 35.6179 234.679 35.7598 234.787L18.7757 263.22ZM40.1903 233.294C40.3525 232.698 40.3161 232.058 40.0749 231.479L95.7607 202.254L115.731 257.122C115.497 257.232 115.275 257.374 115.07 257.557C114.759 257.833 114.525 258.162 114.364 258.519L40.1912 233.296L40.1903 233.294ZM204.299 291.613C205.189 290.828 205.463 289.605 205.085 288.55L209.598 286.44L201.591 330.248L202.621 292.307C203.221 292.269 203.813 292.042 204.301 291.61L204.299 291.613ZM204.05 333.752C204.062 333.473 204.035 333.193 203.964 332.922L255.934 314.344L263.386 339.858C263.091 339.974 262.808 340.14 262.557 340.362C262.102 340.763 261.809 341.279 261.682 341.828L204.05 333.752ZM267.235 342.491C267.241 341.822 267.01 341.151 266.534 340.61C266.448 340.511 266.353 340.424 266.256 340.341L292.963 302.762C293.517 303.083 294.158 303.201 294.781 303.113L304.631 343.855C304.26 343.968 303.903 344.158 303.594 344.434C303.108 344.863 302.807 345.42 302.696 346.011L267.236 342.493L267.235 342.491ZM307.938 347.871C308.144 347.487 308.255 347.062 308.267 346.634L362.348 340.254L364.898 381.714C364.4 381.798 363.917 382.015 363.512 382.376C363.359 382.511 363.227 382.656 363.11 382.815L307.933 347.873L307.938 347.871ZM366.005 387.234C366.45 387.133 366.876 386.922 367.243 386.6C367.616 386.271 367.879 385.868 368.032 385.431L385.5 389.552L373.554 431.665C373.278 431.591 372.992 431.557 372.708 431.569L366.005 387.234ZM421.657 468.059C421.575 467.923 421.481 467.794 421.372 467.67C421.116 467.379 420.813 467.154 420.484 466.995L428.413 441.949L455.073 445.256C455.096 445.66 455.206 446.063 455.406 446.43L421.656 468.056L421.657 468.059Z" fill="#2B6577"/>
<path d="M149.494 324.692C168.896 325.509 177.39 317.989 181.07 311.941L167.452 308.547L119.657 302.463L111.691 304.243C117.103 312.186 128.542 323.809 149.491 324.692H149.494Z" fill="#FFBE97"/>
<path d="M237.867 349.624C230.128 332.821 215.178 320.442 197.23 315.969L181.07 311.941C177.39 317.989 168.896 325.509 149.493 324.692C128.542 323.809 117.105 312.186 111.693 304.243L75.4665 312.338C53.3777 317.275 36.7007 335.449 33.6756 357.879L22.3266 442.051C19.6301 462.046 33.9331 478.407 54.1083 478.407C66.2194 478.407 77.9452 474.157 87.2446 466.399L95.3985 459.629H211.476V421.945L224.996 455.194L286.684 455.592L237.87 349.626L237.867 349.624Z" fill="#9F5656"/>
<path d="M87.4895 408.021C87.4664 408.021 87.4413 408.021 87.4162 408.017C87.0352 407.977 86.7588 407.636 86.7986 407.257C87.7679 397.947 90.2885 373.578 90.3011 372.628C90.3053 372.249 90.6151 371.939 90.994 371.939H90.9982C91.3792 371.941 91.687 372.247 91.687 372.628C91.687 373.685 88.5362 403.951 88.1782 407.399C88.1406 407.755 87.8412 408.021 87.4895 408.021Z" fill="#4F2B2B"/>
<path d="M211.156 453.85H211.15C210.767 453.846 210.461 453.534 210.463 453.151C210.472 452.332 211.255 371.212 211.255 370.176C211.255 369.793 211.564 369.483 211.948 369.483C212.331 369.483 212.64 369.793 212.64 370.176C212.64 371.219 211.881 449.818 211.849 453.163C211.845 453.544 211.535 453.85 211.156 453.85Z" fill="#4F2B2B"/>
<path d="M129.651 263.792L119.657 302.463L167.452 308.547V291.6L129.651 263.792Z" fill="#FFBE97"/>
<path d="M115.421 241.261C115.421 241.261 128.141 286.385 152.887 290.731C177.632 295.077 201.191 261.751 201.191 261.751C201.191 261.751 214.21 231.417 206.833 219.853C200.332 209.666 185.743 200.071 175.92 197.123C158.33 191.844 139.482 202.625 139.482 202.625C139.482 202.625 127.8 202.213 119.566 216.367C113.772 226.332 115.419 241.261 115.419 241.261H115.421Z" fill="#4F2B2B"/>
<path d="M131.37 237.665C118.781 256.494 124.928 284.511 144.567 294.366C165.578 304.911 187.593 300.012 198.011 279.899C207.94 260.729 205.506 237.895 187.238 225.681C168.969 213.47 143.956 218.833 131.368 237.662L131.37 237.665Z" fill="#FFBE97"/>
<path d="M131.058 250.188C130.62 257.172 130.507 263.249 124.656 262.883C118.802 262.517 112.79 256.186 113.227 249.202C113.665 242.218 118.765 236.854 124.618 237.221C130.472 237.587 131.497 243.204 131.06 250.188H131.058Z" fill="#FFBE97"/>
<path d="M161.475 251.578C161.163 253.479 159.93 254.861 158.72 254.662C157.509 254.463 156.781 252.761 157.093 250.86C157.405 248.959 158.638 247.577 159.848 247.776C161.058 247.975 161.787 249.677 161.475 251.578Z" fill="#4F2B2B"/>
<path d="M191.182 256.933C190.87 258.834 189.637 260.216 188.427 260.017C187.217 259.818 186.488 258.116 186.8 256.215C187.112 254.314 188.345 252.933 189.555 253.131C190.765 253.33 191.494 255.032 191.182 256.933Z" fill="#4F2B2B"/>
<path d="M192.813 272.915C191.868 272.915 190.916 272.827 189.965 272.651C185.923 271.9 182.414 269.618 180.086 266.226C177.758 262.837 176.891 258.742 177.643 254.7C179.194 246.353 187.248 240.826 195.595 242.375C199.637 243.127 203.146 245.408 205.474 248.8C207.802 252.191 208.669 256.284 207.917 260.327C207.166 264.37 204.884 267.878 201.494 270.206C198.901 271.988 195.894 272.913 192.813 272.913V272.915ZM192.775 243.501C186.159 243.501 180.258 248.218 179.006 254.953C178.321 258.633 179.113 262.358 181.229 265.443C183.348 268.529 186.54 270.606 190.221 271.289C193.899 271.973 197.626 271.184 200.711 269.065C203.797 266.947 205.874 263.754 206.557 260.074C207.241 256.393 206.452 252.669 204.333 249.583C202.215 246.497 199.022 244.42 195.342 243.738C194.479 243.577 193.621 243.501 192.775 243.501Z" fill="black"/>
<path d="M156.67 266.197C155.726 266.197 154.773 266.109 153.823 265.933C149.78 265.182 146.269 262.9 143.943 259.508C141.616 256.119 140.749 252.024 141.5 247.981C143.052 239.635 151.103 234.108 159.452 235.657C163.495 236.408 167.004 238.69 169.332 242.082C171.66 245.473 172.526 249.566 171.775 253.609C171.023 257.651 168.741 261.16 165.352 263.488C162.758 265.27 159.752 266.195 156.67 266.195V266.197ZM156.632 236.783C150.017 236.783 144.115 241.502 142.861 248.235C142.177 251.915 142.968 255.64 145.084 258.725C147.203 261.811 150.396 263.888 154.076 264.57C157.754 265.255 161.481 264.466 164.567 262.347C167.653 260.229 169.729 257.036 170.412 253.355C171.097 249.675 170.307 245.951 168.189 242.865C166.07 239.779 162.877 237.702 159.197 237.02C158.334 236.859 157.476 236.783 156.63 236.783H156.632Z" fill="black"/>
<path d="M180.274 263.679L175.118 268.048L174.153 250.119L180.274 263.679Z" fill="#FFBE97"/>
<path d="M179.958 251.013C177.549 249.719 174.603 249.177 170.952 249.353L170.885 247.969C174.793 247.78 177.978 248.375 180.614 249.792L179.958 251.013Z" fill="black"/>
<path d="M141.586 213.847C141.586 213.847 154.648 231.914 161.433 234.809C168.218 237.704 175.432 237.219 175.432 237.219L173.073 231.512C173.073 231.512 176.479 237.022 181.394 238.722C186.312 240.422 193.495 240.516 193.495 240.516L190.26 233.517C190.26 233.517 196.882 244.242 205.221 244.303C205.221 244.303 194.261 214.054 176.217 211.652C158.173 209.251 141.584 213.842 141.584 213.842L141.586 213.847Z" fill="#4F2B2B"/>
<path d="M175.07 269.126C174.882 269.126 174.695 269.051 174.559 268.9C174.302 268.617 174.321 268.18 174.603 267.922L179.437 263.505L173.931 251.312C173.774 250.965 173.929 250.554 174.277 250.397C174.626 250.24 175.037 250.395 175.194 250.743L181.112 263.85L175.535 268.946C175.403 269.067 175.235 269.128 175.068 269.128L175.07 269.126Z" fill="#4F2B2B"/>
<path d="M172.763 281.532H172.744C172.641 281.53 162.385 281.141 159.159 271.144C159.042 270.78 159.241 270.388 159.605 270.273C159.971 270.154 160.359 270.355 160.476 270.719C163.405 279.795 172.685 280.146 172.78 280.148C173.163 280.159 173.464 280.477 173.454 280.86C173.443 281.237 173.136 281.534 172.763 281.534V281.532Z" fill="#4F2B2B"/>
<path d="M126.628 252.022C126.291 252.022 125.996 251.775 125.943 251.434C125.91 251.208 125.053 245.921 120.364 245.465C119.983 245.427 119.705 245.09 119.742 244.709C119.78 244.328 120.119 244.048 120.498 244.087C126.272 244.649 127.302 251.166 127.312 251.231C127.369 251.609 127.107 251.959 126.73 252.016C126.697 252.02 126.661 252.024 126.628 252.024V252.022Z" fill="#4F2B2B"/>
<path d="M264.633 449.655H135.909V459.691H264.633V449.655Z" fill="#357E94"/>
<path d="M177.132 386.847C177.132 386.847 184.899 399.722 189.407 404.148C194.207 408.862 200.398 411.898 199.062 416.146C197.726 420.394 187.336 419.675 181.273 411.691C175.21 403.706 177.132 386.847 177.132 386.847Z" fill="#FFBE97"/>
<path d="M119.171 372.485L53.3002 413.889C37.2366 423.986 33.7635 445.93 45.9247 460.493C56.9032 473.64 76.4044 475.535 89.7087 464.747L128.889 432.971C128.889 432.971 142.708 432.113 145.005 431.596C147.302 431.079 148.072 428.571 148.072 428.571C148.072 428.571 150.31 431.569 155.32 430.715C160.327 429.86 161.462 427.193 161.462 427.193C161.462 427.193 163.633 429.842 166.964 429.701C170.295 429.561 172.87 429.216 172.87 429.216C172.87 429.216 185.674 446.445 191.992 443.112C196.784 440.583 189.26 429.121 185.95 418.949C183.739 412.153 181.045 392.156 181.045 392.156C178.307 379.963 168 370.94 155.552 369.837L136.989 368.194C130.74 367.641 124.48 369.148 119.169 372.487L119.171 372.485Z" fill="#FFBE97"/>
<path d="M169.958 430.059C169.6 430.059 169.296 429.785 169.267 429.421C169.237 429.04 169.522 428.707 169.903 428.676C171.287 428.567 172.533 427.916 173.412 426.84C174.291 425.763 174.681 424.413 174.511 423.036L171.346 397.323C171.3 396.944 171.57 396.599 171.949 396.55C172.33 396.496 172.673 396.772 172.721 397.153L175.886 422.866C176.102 424.622 175.606 426.345 174.486 427.717C173.366 429.088 171.779 429.919 170.014 430.057C169.995 430.057 169.979 430.057 169.96 430.057L169.958 430.059Z" fill="#4F2B2B"/>
<path d="M161.667 428.062C161.336 428.062 161.043 427.823 160.985 427.486L156.245 399.605C156.18 399.228 156.436 398.87 156.812 398.805C157.191 398.747 157.547 398.996 157.612 399.372L162.352 427.254C162.417 427.631 162.161 427.989 161.784 428.054C161.745 428.06 161.707 428.064 161.667 428.064V428.062Z" fill="#4F2B2B"/>
<path d="M148.409 429.911C148.087 429.911 147.798 429.683 147.731 429.354L142.106 401.391C142.03 401.016 142.273 400.652 142.648 400.574C143.02 400.495 143.387 400.742 143.464 401.116L149.09 429.08C149.165 429.454 148.922 429.819 148.547 429.896C148.501 429.907 148.455 429.909 148.409 429.909V429.911Z" fill="#4F2B2B"/>
<path d="M128.889 433.664C128.594 433.664 128.32 433.474 128.227 433.177L125.606 424.717C125.003 422.768 125.204 420.705 126.172 418.909C127.141 417.115 128.753 415.815 130.715 415.25L132.339 414.781C132.703 414.676 133.091 414.886 133.197 415.254C133.304 415.62 133.091 416.006 132.724 416.112L131.1 416.581C129.5 417.042 128.183 418.103 127.392 419.569C126.601 421.034 126.437 422.717 126.929 424.308L129.551 432.768C129.664 433.133 129.458 433.522 129.094 433.635C129.025 433.656 128.956 433.666 128.889 433.666V433.664Z" fill="#4F2B2B"/>
<path d="M134.027 421.715C133.71 421.715 133.424 421.497 133.352 421.174L129.454 403.907C129.371 403.534 129.605 403.164 129.978 403.078C130.352 402.994 130.721 403.229 130.807 403.601L134.705 420.869C134.789 421.241 134.554 421.612 134.182 421.698C134.129 421.71 134.079 421.715 134.029 421.715H134.027Z" fill="#4F2B2B"/>
<path d="M220.64 399.169C220.64 399.169 217.33 407.401 213.62 413.204C210.112 418.696 207.84 422.02 209.546 424.172C212.737 428.198 221.191 420.816 221.191 420.816L220.638 399.167L220.64 399.169Z" fill="#FFBE97"/>
<path d="M266.831 396.006L258.478 387.349C253.55 382.241 246.103 380.462 239.396 382.788L233.073 384.982C224.241 388.047 218.387 396.458 218.603 405.806C218.789 413.874 219.752 423.239 219.313 427.932C218.417 437.496 215.488 448.376 218.419 449.5C222.482 451.057 227.9 443.2 230.59 434.533L255.776 430.673L266.833 396.006H266.831Z" fill="#FFBE97"/>
<path d="M232.566 434.87C231.101 434.87 229.686 434.33 228.576 433.325C227.22 432.094 226.51 430.342 226.631 428.514L227.858 409.997C227.883 409.616 228.214 409.34 228.595 409.352C228.976 409.377 229.265 409.708 229.24 410.089L228.013 428.606C227.921 430.009 228.463 431.353 229.506 432.297C230.548 433.242 231.943 433.65 233.326 433.422C233.703 433.355 234.059 433.614 234.122 433.991C234.185 434.368 233.929 434.726 233.552 434.789C233.224 434.843 232.893 434.87 232.564 434.87H232.566Z" fill="#4F2B2B"/>
<path d="M240.547 433.57C240.526 433.57 240.505 433.57 240.484 433.568C240.103 433.535 239.823 433.198 239.856 432.814L241.902 410.324C241.935 409.943 242.274 409.658 242.653 409.698C243.034 409.731 243.315 410.07 243.281 410.451L241.236 432.942C241.203 433.302 240.901 433.572 240.547 433.572V433.57Z" fill="#4F2B2B"/>
<path d="M360.954 459.689H230.394L263.666 362.401H394.226L360.954 459.689Z" fill="#357E94"/>
<path d="M318.891 416.012C327.901 416.012 335.206 413.856 335.206 411.197C335.206 408.537 327.901 406.382 318.891 406.382C309.88 406.382 302.576 408.537 302.576 411.197C302.576 413.856 309.88 416.012 318.891 416.012Z" fill="white"/>
<path d="M164.337 300.456C150.582 300.456 140.588 291.091 140.138 290.662C139.861 290.398 139.851 289.961 140.115 289.684C140.378 289.408 140.818 289.398 141.094 289.659C141.207 289.768 152.661 300.485 167.393 298.906C167.77 298.869 168.115 299.141 168.155 299.522C168.197 299.903 167.921 300.244 167.54 300.284C166.451 300.401 165.383 300.456 164.334 300.456H164.337Z" fill="#4F2B2B"/>
<path d="M263.357 362.282L230.034 459.554L230.689 459.778L264.012 362.506L263.357 362.282Z" fill="white"/>
<path d="M395.428 263.606H314.85L341.75 181H422.327L395.428 263.606Z" fill="#E95D9A"/>
<path d="M345.338 318.806H261.262L295.036 218.091H379.109L345.338 318.806Z" fill="#FBE4C6"/>
<path d="M348.638 274.703L291.381 273.849L304.937 231.195L305.686 231.432L292.453 273.077L348.65 273.916L348.638 274.703Z" fill="black"/>
<path d="M297.356 264.191L296.878 263.566L316.666 248.445L321.2 254.131L340.066 237.325L345.389 248.243L354.439 253.743L354.03 254.416L344.783 248.795L339.814 238.604L321.103 255.272L316.53 249.537L297.356 264.191Z" fill="black"/>
<path d="M302.074 235.101L301.517 234.545L305.462 230.607L307.022 234.683L306.287 234.963L305.16 232.02L302.074 235.101Z" fill="black"/>
<path d="M344.57 276.938L344.184 276.253L347.984 274.111L345.452 272.233L345.92 271.602L349.425 274.201L344.57 276.938Z" fill="black"/>
<path d="M418.237 334.494H356.044L376.807 270.737H439L418.237 334.494Z" fill="#F2AE54"/>
<path d="M381.73 283.261C386.79 283.246 391.849 283.232 396.909 283.216C405.013 283.192 413.114 283.168 421.217 283.144C423.07 283.139 424.922 283.132 426.774 283.128C427.913 283.125 427.915 281.354 426.774 281.358C421.714 281.373 416.654 281.387 411.594 281.404C403.491 281.427 395.39 281.451 387.286 281.475C385.434 281.48 383.582 281.487 381.73 281.492C380.591 281.494 380.588 283.265 381.73 283.261Z" fill="white"/>
<path d="M378.845 292.689C382.937 292.674 387.029 292.658 391.124 292.643C397.644 292.62 404.163 292.596 410.683 292.572C412.177 292.567 413.67 292.56 415.161 292.555C416.3 292.551 416.302 290.782 415.161 290.786C411.068 290.801 406.976 290.817 402.882 290.832C396.362 290.855 389.842 290.879 383.322 290.903C381.829 290.908 380.336 290.915 378.845 290.919C377.706 290.924 377.704 292.693 378.845 292.689Z" fill="white"/>
<path d="M375.961 302.116C381.021 302.102 386.081 302.088 391.14 302.071C399.244 302.047 407.345 302.024 415.448 302C417.301 301.995 419.153 301.988 421.005 301.983C422.144 301.981 422.147 300.209 421.005 300.214C415.945 300.228 410.885 300.243 405.826 300.259C397.722 300.283 389.621 300.307 381.518 300.331C379.665 300.335 377.813 300.343 375.961 300.347C374.822 300.35 374.819 302.121 375.961 302.116Z" fill="white"/>
<path d="M373.074 311.544C378.094 311.48 383.116 311.413 388.135 311.349C396.141 311.245 404.145 311.142 412.151 311.038C413.991 311.014 415.834 310.99 417.674 310.966C418.813 310.952 418.816 309.181 417.674 309.197C412.655 309.262 407.633 309.328 402.613 309.392C394.608 309.497 386.604 309.599 378.598 309.704C376.758 309.728 374.915 309.751 373.074 309.775C371.936 309.789 371.933 311.561 373.074 311.544Z" fill="white"/>
<path d="M370.19 323.16C374.054 323.145 377.915 323.129 381.779 323.114C387.902 323.091 394.025 323.067 400.145 323.043C401.562 323.038 402.977 323.031 404.394 323.027C405.533 323.022 405.535 321.253 404.394 321.257C400.53 321.272 396.669 321.288 392.805 321.303C386.682 321.326 380.559 321.35 374.439 321.374C373.022 321.379 371.607 321.386 370.19 321.391C369.051 321.395 369.048 323.164 370.19 323.16Z" fill="white"/>
<path d="M288.68 285.983C293.74 285.969 298.8 285.955 303.86 285.938C311.963 285.914 320.064 285.891 328.168 285.867C330.02 285.862 331.872 285.855 333.725 285.85C334.483 285.85 334.486 284.668 333.725 284.671C328.665 284.685 323.605 284.699 318.545 284.716C310.442 284.74 302.341 284.763 294.237 284.787C292.385 284.792 290.533 284.799 288.68 284.804C287.922 284.804 287.919 285.986 288.68 285.983Z" fill="black"/>
<path d="M347.58 194.679C350.046 194.641 352.511 194.603 354.979 194.563C355.334 194.558 355.69 194.551 356.045 194.546C356.682 194.537 357.224 194.011 357.224 193.367C357.224 192.722 356.684 192.178 356.045 192.187C353.579 192.225 351.113 192.264 348.645 192.304C348.291 192.309 347.934 192.316 347.58 192.321C346.943 192.33 346.401 192.856 346.401 193.5C346.401 194.144 346.94 194.689 347.58 194.679Z" fill="white"/>
<path d="M345.925 201.292C348.39 201.254 350.856 201.216 353.324 201.175C353.679 201.171 354.035 201.163 354.389 201.159C355.027 201.149 355.569 200.624 355.569 199.979C355.569 199.335 355.029 198.79 354.389 198.8C351.924 198.838 349.458 198.876 346.99 198.916L345.925 198.933C345.287 198.943 344.745 199.468 344.745 200.113C344.745 200.757 345.285 201.301 345.925 201.292Z" fill="white"/>
<path d="M343.972 208.057C346.438 208.019 348.904 207.981 351.372 207.94C351.726 207.935 352.083 207.928 352.437 207.923C353.075 207.914 353.617 207.388 353.617 206.744C353.617 206.1 353.077 205.555 352.437 205.565C349.972 205.603 347.506 205.641 345.038 205.681C344.683 205.686 344.327 205.693 343.972 205.698C343.335 205.707 342.793 206.233 342.793 206.877C342.793 207.522 343.333 208.066 343.972 208.057Z" fill="white"/>
<path d="M384.735 240.87C387.2 240.832 389.666 240.794 392.134 240.753C392.489 240.749 392.845 240.741 393.2 240.737C393.837 240.727 394.379 240.202 394.379 239.557C394.379 238.913 393.839 238.368 393.2 238.378C390.734 238.416 388.268 238.454 385.8 238.494L384.735 238.511C384.097 238.521 383.555 239.046 383.555 239.69C383.555 240.335 384.095 240.879 384.735 240.87Z" fill="white"/>
<path d="M383.079 247.485C385.545 247.447 388.011 247.409 390.479 247.368C390.833 247.364 391.19 247.356 391.544 247.352C392.182 247.342 392.724 246.817 392.724 246.172C392.724 245.528 392.184 244.983 391.544 244.993C389.079 245.031 386.613 245.069 384.145 245.109C383.79 245.114 383.434 245.121 383.079 245.126C382.442 245.136 381.9 245.661 381.9 246.305C381.9 246.95 382.44 247.494 383.079 247.485Z" fill="white"/>
<path d="M381.125 254.25C383.591 254.212 386.057 254.173 388.525 254.133C388.879 254.128 389.236 254.121 389.59 254.116C390.227 254.107 390.769 253.581 390.769 252.937C390.769 252.293 390.23 251.748 389.59 251.758C387.124 251.796 384.658 251.834 382.19 251.874C381.836 251.879 381.479 251.886 381.125 251.891C380.488 251.9 379.946 252.426 379.946 253.07C379.946 253.715 380.485 254.259 381.125 254.25Z" fill="white"/>
<path d="M285.796 295.411C290.815 295.347 295.837 295.28 300.856 295.216C308.862 295.111 316.866 295.009 324.872 294.905C326.712 294.881 328.555 294.857 330.395 294.833C331.154 294.824 331.156 293.644 330.395 293.654C325.376 293.718 320.354 293.785 315.335 293.849C307.329 293.953 299.325 294.056 291.319 294.16C289.479 294.184 287.636 294.208 285.796 294.232C285.037 294.241 285.035 295.421 285.796 295.411Z" fill="black"/>
<path d="M282.912 307.027C286.776 307.012 290.637 306.996 294.501 306.981C300.624 306.958 306.747 306.934 312.867 306.91C314.284 306.905 315.699 306.898 317.116 306.893C317.874 306.891 317.877 305.712 317.116 305.714C313.252 305.728 309.391 305.745 305.527 305.759C299.404 305.783 293.281 305.807 287.161 305.831C285.744 305.835 284.329 305.842 282.912 305.847C282.153 305.85 282.151 307.029 282.912 307.027Z" fill="black"/>
<path d="M384.737 226.078C384.652 226.078 384.568 226.078 384.483 226.078C380.678 226.009 377.333 224.385 375.057 221.505C372.259 217.962 371.327 212.869 372.499 207.534C374.67 197.649 383.403 189.715 392.054 189.715C392.139 189.715 392.222 189.715 392.306 189.715C396.11 189.783 399.456 191.407 401.731 194.287C404.53 197.83 405.462 202.923 404.29 208.259C402.119 218.143 393.383 226.078 384.735 226.078H384.737ZM392.051 190.499C383.753 190.499 375.362 198.158 373.267 207.702C372.147 212.807 373.024 217.66 375.676 221.018C377.801 223.709 380.933 225.227 384.497 225.291C384.578 225.291 384.659 225.291 384.74 225.291C393.038 225.291 401.429 217.632 403.524 208.088C404.644 202.982 403.767 198.129 401.115 194.772C398.99 192.08 395.858 190.563 392.294 190.499C392.213 190.499 392.132 190.499 392.054 190.499H392.051Z" fill="white"/>
<path d="M387.814 208.556L392.703 189.836L393.461 190.036L388.974 207.234L403.861 201.156L404.159 201.884L387.814 208.556Z" fill="white"/>
<path d="M394.01 222.682L387.804 207.491L403.914 207.778L403.899 208.565L388.984 208.299L394.738 222.385L394.01 222.682Z" fill="white"/>
<path d="M380.932 202.666L372.142 194.228H362.857V193.44H372.458L381.479 202.1L380.932 202.666Z" fill="white"/>
<path d="M397.463 233.175H384.392L384.685 222.359L385.472 222.38L385.201 232.391H397.463V233.175Z" fill="white"/>
</g>
<defs>
<clipPath id="clip0_760_10736">
<rect width="460" height="460" fill="white"/>
</clipPath>
</defs>
</svg>
