<svg width="460" height="460" viewBox="0 0 460 460" fill="none" xmlns="http://www.w3.org/2000/svg">
<g clip-path="url(#clip0_760_13362)">
<rect width="460" height="460" fill="white"/>
<path d="M133.268 683.441C132.827 682.268 133.2 680.991 134.104 680.224L95.5975 625.448C95.465 625.524 95.3253 625.592 95.1786 625.649C93.6822 626.21 92.0167 625.453 91.4541 623.958C90.8916 622.464 91.6501 620.796 93.1447 620.234C93.3838 620.144 93.6267 620.091 93.87 620.066L93.5582 582.871C92.4798 582.779 91.4989 582.088 91.0943 581.009C90.5317 579.514 91.2902 577.847 92.7848 577.284C93.4462 577.037 94.1414 577.047 94.7596 577.263L111.792 540.126C111.23 539.802 110.773 539.29 110.526 538.636C110.261 537.927 110.294 537.182 110.557 536.532L24.8528 492.066C24.5294 492.573 24.0447 492.984 23.4391 493.213C21.9445 493.776 20.2771 493.017 19.7146 491.523C19.152 490.028 19.9105 488.361 21.4051 487.798C21.8409 487.636 22.2896 487.587 22.722 487.633L45.541 373.159C44.1265 373.527 42.6328 372.774 42.1068 371.376C41.5443 369.881 42.3027 368.214 43.7973 367.652C43.9343 367.6 44.0704 367.564 44.2099 367.535L39.1613 324.916C37.9631 324.946 36.8248 324.228 36.3802 323.044C36.1562 322.448 36.1454 321.826 36.3038 321.256L-14.4507 302.003L-14.3773 302.731L-14.9399 301.815L-15.2457 301.699L-15.0983 301.555L-63.275 223.159C-63.3603 223.2 -63.4474 223.239 -63.5381 223.274C-65.0327 223.837 -66.7001 223.078 -67.2626 221.583C-67.8252 220.089 -67.0667 218.421 -65.5721 217.859C-64.0775 217.296 -62.4101 218.055 -61.8475 219.549C-61.6384 220.105 -61.6141 220.687 -61.7406 221.224L-22.5112 234.321C-22.4413 234.287 -22.3697 234.254 -22.2945 234.226C-21.9222 234.085 -21.5374 234.03 -21.162 234.044L-11.9219 164.472C-12.8372 164.262 -13.6314 163.615 -13.9864 162.67C-14.549 161.175 -13.7905 159.508 -12.2959 158.945C-10.8013 158.383 -9.13389 159.141 -8.57134 160.636C-8.34895 161.226 -8.3361 161.847 -8.49236 162.412L37.083 179.483C37.3946 178.84 37.9425 178.307 38.6675 178.035C39.6395 177.67 40.6804 177.865 41.4456 178.451L65.0205 153.046C64.7864 152.786 64.5944 152.481 64.4652 152.134C63.9026 150.639 64.6612 148.972 66.1558 148.409C67.6504 147.847 69.3177 148.605 69.8803 150.1C70.2202 151.008 70.073 151.978 69.5725 152.727L99.3773 176.978C99.663 176.685 100.014 176.448 100.425 176.294C101.767 175.79 103.244 176.349 103.941 177.55L138.887 159.507C138.349 158.019 139.104 156.373 140.589 155.815C142.084 155.253 143.751 156.011 144.314 157.506C144.412 157.766 144.468 158.032 144.488 158.298L173.947 159.533C174.085 158.514 174.765 157.601 175.796 157.214C176.064 157.113 176.338 157.057 176.609 157.039L177.585 112.226C176.542 112.105 175.601 111.422 175.208 110.371C174.645 108.877 175.404 107.209 176.898 106.647C178.393 106.084 180.06 106.843 180.623 108.337C180.664 108.447 180.694 108.556 180.723 108.668L246.12 98.9674C246.052 97.7388 246.78 96.5557 247.991 96.1011C249.485 95.5386 251.153 96.2971 251.715 97.7917C252.278 99.2863 251.519 100.954 250.025 101.516C249.598 101.677 249.157 101.726 248.732 101.685L230.668 196.748C231.449 197.022 232.108 197.625 232.421 198.46C232.984 199.955 232.225 201.622 230.731 202.185C229.236 202.748 227.569 201.989 227.006 200.494C226.952 200.346 226.912 200.195 226.881 200.044L192.888 201.737C192.865 202.885 192.157 203.961 191.015 204.389C190.645 204.529 190.262 204.586 189.89 204.572L176.997 284.012C177.877 284.239 178.636 284.878 178.981 285.793C179.544 287.287 178.785 288.955 177.29 289.517C175.796 290.08 174.128 289.321 173.566 287.827C173.436 287.483 173.381 287.131 173.384 286.787L136.349 283.035C136.164 283.985 135.505 284.822 134.53 285.187L134.785 285.112L161.545 375.896C162.909 375.628 164.305 376.372 164.809 377.714C165.07 378.406 165.043 379.135 164.796 379.774L200.228 397.399C200.553 396.874 201.044 396.446 201.669 396.214C203.165 395.653 204.831 396.41 205.393 397.905C205.956 399.399 205.197 401.066 203.703 401.629C203.12 401.848 202.51 401.865 201.951 401.715L181.487 457.871C182.144 458.182 182.684 458.734 182.959 459.467C183.522 460.961 182.763 462.628 181.269 463.191C180.646 463.425 179.995 463.429 179.406 463.245L165.499 497.097C166.108 497.414 166.605 497.947 166.866 498.639C167.428 500.134 166.67 501.801 165.175 502.364C165.017 502.423 164.856 502.464 164.698 502.495L169.782 569.398C170.912 569.44 171.958 570.147 172.381 571.271C172.698 572.118 172.594 573.02 172.17 573.746L209.141 601.2C209.446 600.845 209.843 600.56 210.312 600.382C211.807 599.82 213.474 600.578 214.037 602.073C214.597 603.569 213.841 605.235 212.346 605.797C212.335 605.8 212.323 605.804 212.313 605.809L217.92 640.78L220.883 659.265C222.027 659.295 223.094 660.001 223.522 661.139C224.085 662.634 223.326 664.301 221.832 664.864C220.669 665.3 219.406 664.939 218.636 664.055L182.689 684.267C182.704 684.304 182.723 684.341 182.738 684.381C183.301 685.876 182.542 687.543 181.048 688.106C179.553 688.668 177.886 687.91 177.323 686.415C177.19 686.061 177.132 685.696 177.141 685.34L138.831 682.876C138.673 683.87 138.003 684.754 136.992 685.132C135.498 685.694 133.831 684.936 133.268 683.441ZM217.996 661.513C218.206 660.598 218.853 659.803 219.798 659.448C219.981 659.381 220.165 659.333 220.348 659.301L216.989 638.341L211.796 605.944C211.517 605.99 211.239 605.993 210.967 605.957L191.581 656.648L217.994 661.511L217.996 661.513ZM178.005 458.664L158.438 439.583L129.896 465.58C130.059 465.797 130.197 466.039 130.297 466.305C130.345 466.43 130.378 466.558 130.407 466.687L177.362 460.587C177.336 459.885 177.568 459.201 178.005 458.664ZM200.379 400.659C200.216 400.442 200.078 400.201 199.978 399.935C199.92 399.779 199.879 399.625 199.85 399.469L127.911 406.601C127.916 407.272 127.685 407.922 127.269 408.437L158.454 438.85L200.381 400.661L200.379 400.659ZM35.6103 184.858L66.1393 200.163L41.863 182.642C41.5593 182.991 41.1646 183.27 40.6997 183.448C39.6525 183.842 38.5241 183.586 37.7478 182.887L35.6103 184.858ZM-10.2637 164.359C-10.6377 164.498 -11.0207 164.555 -11.3962 164.541L-20.6325 234.113C-20.1524 234.223 -19.707 234.454 -19.3406 234.786L34.677 184.991L-8.83135 163.18C-9.1555 163.702 -9.64656 164.126 -10.2657 164.36L-10.2637 164.359ZM24.5498 488.541C24.7715 488.784 24.9533 489.066 25.088 489.383L70.6464 475.034C70.3462 473.655 71.0941 472.227 72.4555 471.716L64.8506 443.822L24.5498 488.541ZM178.052 683.283C178.098 683.242 178.146 683.199 178.195 683.162L151.179 651.534C150.981 651.673 150.767 651.791 150.532 651.88C149.913 652.115 149.264 652.117 148.676 651.938L145.5 659.738L178.052 683.283ZM115.736 594.331L109.213 583.639C109.131 583.68 109.046 583.717 108.957 583.75C108.404 583.957 107.828 583.984 107.294 583.861L104.386 592.706L147.15 645.811L115.736 594.331ZM109.668 583.362L132.483 620.751L148.242 646.577C148.324 646.536 148.409 646.499 148.498 646.465C148.991 646.28 149.502 646.24 149.989 646.322L163.906 593.381L110.7 581.911C110.519 582.484 110.163 582.995 109.672 583.362L109.668 583.362ZM148.182 651.737C147.569 651.419 147.068 650.886 146.807 650.19C146.553 649.517 146.57 648.809 146.799 648.182L96.6665 624.421L145.055 659.416L148.184 651.735L148.182 651.737ZM96.8674 621.923C97.1214 622.596 97.1051 623.304 96.8756 623.931L147.027 647.7C147.157 647.482 147.315 647.279 147.499 647.099L104.186 593.314L95.312 620.291C96.0051 620.594 96.5803 621.161 96.8654 621.924L96.8674 621.923ZM94.8066 620.121L103.788 592.816L95.3998 582.399C95.2216 582.516 95.0271 582.619 94.8207 582.697C94.5816 582.787 94.3387 582.84 94.0954 582.865L94.4072 620.06C94.5427 620.071 94.6779 620.089 94.8104 620.121L94.8066 620.121ZM96.6521 580.47C96.5487 581.073 96.2603 581.635 95.8162 582.063L103.986 592.21L106.788 583.695C106.095 583.392 105.52 582.825 105.235 582.062C105.115 581.745 105.059 581.419 105.053 581.097L96.6521 580.47ZM109.362 578.525L130.261 548.373L115.547 539.35C115.228 539.777 114.789 540.123 114.25 540.327C113.888 540.463 113.514 540.519 113.15 540.509L108.554 578.218C108.836 578.28 109.108 578.383 109.362 578.525ZM161.792 501.311C161.656 501.117 161.539 500.903 161.451 500.669C161.28 500.212 161.231 499.743 161.289 499.292L123.495 488.708L114.072 534.85C114.577 535.003 115.032 535.29 115.39 535.687L161.794 501.309L161.792 501.311ZM131.16 280.795L107.021 261.699C106.722 262.029 106.343 262.298 105.896 262.464C105.678 262.545 105.458 262.596 105.235 262.624L104.351 273.728L130.894 281.25C130.969 281.089 131.058 280.937 131.16 280.791L131.16 280.795ZM177.433 162.739C176.529 162.939 175.602 162.688 174.925 162.108L161.078 175.454L188.119 199.489C188.368 199.275 188.657 199.097 188.981 198.974L177.431 162.741L177.433 162.739ZM187.747 199.87L160.692 175.823L117.611 217.343C117.796 217.576 117.95 217.839 118.059 218.132C118.071 218.165 118.08 218.2 118.092 218.232L187.131 202.031C187.036 201.247 187.268 200.471 187.745 199.872L187.747 199.87ZM76.1802 473.403C76.2285 473.528 76.2617 473.653 76.2909 473.781L124.703 467.429C124.67 466.607 124.994 465.809 125.581 465.241L102.969 437.071L75.4527 472.316C75.7643 472.61 76.0174 472.975 76.1802 473.403ZM125.999 464.907C126.178 464.79 126.368 464.69 126.576 464.61C126.79 464.529 127.009 464.48 127.227 464.452L125.308 409.487C125.044 409.513 124.784 409.503 124.531 409.458L103.311 436.637L126.001 464.906L125.999 464.907ZM123.972 409.304C123.625 409.167 123.305 408.966 123.033 408.708L93.5531 416.638L90.698 417.406C90.8607 418.341 90.5505 419.281 89.8998 419.939L102.963 436.214L123.968 409.307L123.972 409.304ZM90.5571 416.882C90.5571 416.882 90.5589 416.884 90.5607 416.886L93.4044 416.122L122.65 408.255C122.519 408.065 122.405 407.855 122.318 407.627C122.177 407.251 122.12 406.865 122.134 406.489L99.4014 395.949L89.4322 415.477C89.9294 415.802 90.3353 416.281 90.5591 416.88L90.5571 416.882ZM75.0313 471.987L102.626 436.643L89.4906 420.278C89.3003 420.41 89.0922 420.522 88.8666 420.607C88.3961 420.782 87.9097 420.829 87.4443 420.763L74.4416 471.696C74.6476 471.769 74.8447 471.868 75.0313 471.987ZM46.9488 372.305L86.1613 415.555C86.3637 415.409 86.5895 415.285 86.8326 415.192C87.55 414.923 88.3043 414.959 88.9593 415.231L98.914 395.727L47.3172 371.804C47.2133 371.984 47.0893 372.149 46.9471 372.303L46.9488 372.305ZM99.1582 395.252L110.743 372.559C110.291 372.237 109.929 371.783 109.721 371.224C109.639 371.006 109.587 370.784 109.56 370.563L71.9966 370.596L47.697 370.618C47.6748 370.861 47.6247 371.096 47.543 371.321L99.1582 395.252ZM-18.8121 238.445L2.58884 254.161L15.818 263.874C16.1213 263.532 16.5063 263.258 16.9652 263.085C17.8639 262.747 18.8225 262.89 19.5682 263.379L28.4972 252.192L-18.6104 238.058C-18.6685 238.193 -18.7357 238.322 -18.8103 238.447L-18.8121 238.445ZM99.8495 296.567L66.3236 264.859C66.0681 265.082 65.7708 265.271 65.4335 265.395C64.8531 265.612 64.2472 265.629 63.6877 265.483L57.1621 280.664L99.5383 297.059C99.625 296.884 99.7301 296.718 99.8497 296.563L99.8495 296.567ZM63.1848 265.303C62.5281 264.993 61.9842 264.441 61.709 263.704C61.6393 263.519 61.5904 263.333 61.5606 263.144L20.8728 265.865C20.8657 266.108 20.8266 266.348 20.7616 266.579L56.6655 280.471L63.1868 265.302L63.1848 265.303ZM19.9856 263.71C20.2861 264 20.5321 264.357 20.6897 264.776C20.7577 264.959 20.8083 265.147 20.8383 265.332L35.3707 264.354L61.5252 262.594C61.5299 262.432 61.5515 262.272 61.5824 262.115L29.0463 252.355L19.9818 263.71L19.9856 263.71ZM61.7377 261.605C62.0308 260.881 62.6108 260.277 63.3996 259.98C63.7196 259.86 64.0459 259.804 64.3676 259.798L68.5122 204.737C68.1169 204.669 67.7428 204.521 67.4084 204.301L29.4102 251.905L61.7397 261.604L61.7377 261.605ZM70.0093 204.596C69.6892 204.716 69.363 204.772 69.0413 204.778L64.8967 259.839C65.472 259.935 66.0079 260.207 66.4289 260.615L91.7026 239.011L70.2822 204.476C70.1929 204.521 70.102 204.56 70.0075 204.594L70.0093 204.596ZM66.7763 261.021C66.9152 261.219 67.0343 261.435 67.1241 261.67C67.1525 261.742 67.1713 261.814 67.1922 261.885L101.994 259.826C101.973 258.901 102.398 258.012 103.138 257.449L91.9867 239.471L66.7763 261.021ZM102.174 260.772C102.122 260.635 102.086 260.495 102.055 260.357L67.2911 262.414C67.3166 262.686 67.3026 262.954 67.2548 263.216L103.828 273.581L104.699 262.643C103.599 262.574 102.585 261.874 102.173 260.775L102.174 260.772ZM67.1089 263.728C67.0256 263.947 66.9163 264.157 66.7814 264.35L100.224 296.173C100.477 295.952 100.772 295.769 101.108 295.642C101.43 295.521 101.76 295.465 102.087 295.461L103.788 274.124L67.1106 263.73L67.1089 263.728ZM111.409 367.501C111.45 367.486 111.49 367.475 111.532 367.462L106.043 328.264L102.259 301.242C101.645 301.27 101.045 301.099 100.54 300.77L68.452 341.087L110.051 368.558C110.374 368.091 110.836 367.715 111.409 367.501ZM99.3323 299.113C99.1878 298.589 99.2006 298.057 99.3417 297.563L56.9471 281.159L40.4727 319.482C40.9873 319.762 41.42 320.199 41.6932 320.757L99.3323 299.113ZM39.9828 319.269L56.4487 280.965L20.5652 267.079C20.2883 267.638 19.8346 268.107 19.2411 268.394L38.3307 319.229C38.889 319.075 39.4625 319.098 39.9828 319.269ZM15.2709 266.81C14.9492 265.949 15.0633 265.035 15.5005 264.303L5.85581 257.223L-19.1333 238.874C-19.2135 238.961 -19.2992 239.045 -19.3903 239.124L8.49161 278.425L18.4699 268.643C17.1269 268.875 15.7687 268.132 15.2709 266.81ZM-18.4749 236.194C-18.3551 236.65 -18.3528 237.112 -18.4476 237.549L28.8573 251.742L66.9889 203.971C66.7549 203.747 66.557 203.483 66.4045 203.182L-18.4749 236.194ZM70.7336 204.196L92.1121 238.664L112.992 220.816C112.853 220.618 112.734 220.402 112.644 220.166C112.422 219.576 112.409 218.959 112.563 218.396L71.594 203.144C71.3969 203.552 71.1056 203.915 70.7336 204.196ZM113.34 221.222L92.3982 239.122L103.591 257.167C103.681 257.122 103.771 257.084 103.866 257.049C104.354 256.865 104.861 256.825 105.344 256.903L114.379 221.87C113.993 221.732 113.64 221.511 113.343 221.222L113.34 221.222ZM130.715 281.756L104.309 274.272L102.618 295.504C103.407 295.642 104.118 296.101 104.562 296.797L130.752 283.325C130.59 282.799 130.584 282.258 130.713 281.758L130.715 281.756ZM130.956 283.82L104.803 297.273C104.812 297.294 104.822 297.314 104.83 297.335C105.393 298.829 104.634 300.497 103.14 301.059C103.024 301.102 102.905 301.138 102.786 301.166L111.253 361.61L112.054 367.344C112.25 367.318 112.447 367.313 112.639 367.327L132.449 285.163C131.822 284.913 131.283 284.45 130.953 283.82L130.956 283.82ZM111.205 372.829L99.6454 395.478L122.214 405.943C122.421 405.084 123.018 404.339 123.881 403.964L112.902 373.062C112.315 373.159 111.728 373.07 111.209 372.829L111.205 372.829ZM124.886 468.339C124.837 468.213 124.804 468.089 124.775 467.961L76.3632 474.312C76.371 474.525 76.3562 474.736 76.3171 474.94L123.089 488.038L126.756 470.085C125.925 469.832 125.216 469.212 124.886 468.335L124.886 468.339ZM112.222 534.91C112.662 534.744 113.116 534.698 113.554 534.746L122.986 488.566L76.1747 475.456C75.9863 475.949 75.6645 476.389 75.2351 476.719L111.932 535.039C112.025 534.991 112.122 534.947 112.222 534.91ZM72.9752 471.575C73.2957 471.52 73.6172 471.518 73.9284 471.568L86.9287 420.645C86.6407 420.549 86.3704 420.404 86.1229 420.221L65.278 443.351L72.9732 471.577L72.9752 471.575ZM85.7277 419.862C85.4808 419.596 85.2818 419.279 85.1439 418.918C84.7407 417.844 85.0189 416.685 85.7592 415.907L46.5538 372.664C46.4081 372.774 46.2518 372.871 46.0811 372.953L65.108 442.736L85.7221 419.86L85.7277 419.862ZM47.5278 369.337C47.6207 369.584 47.6738 369.834 47.6967 370.083L109.543 370.029C109.565 369.679 109.649 369.337 109.79 369.023L68.1201 341.505L46.8201 368.267C47.1244 368.558 47.3684 368.916 47.5278 369.337ZM68.0062 340.792L100.123 300.438C99.8819 300.206 99.6751 299.932 99.5216 299.614L41.8825 321.259C42.0841 321.993 41.9802 322.748 41.6406 323.384L68.0042 340.793L68.0062 340.792ZM37.8331 319.419L18.8927 268.981L8.80862 278.869L37.6481 319.521C37.7086 319.484 37.769 319.451 37.8331 319.419ZM-19.8242 239.432C-19.9607 239.511 -20.1024 239.582 -20.2548 239.64C-20.4072 239.698 -20.5624 239.737 -20.7171 239.769L-14.5444 301.013L8.1087 278.806L-19.8224 239.434L-19.8242 239.432ZM-18.9716 235.175C-18.8761 235.301 -18.7888 235.438 -18.7131 235.582L-18.5291 235.643L66.2151 202.685C66.0344 202.057 66.0795 201.413 66.3024 200.838L35.195 185.243L-18.9714 235.172L-18.9716 235.175ZM65.4157 153.405L41.8407 178.81C42.0748 179.07 42.2667 179.375 42.396 179.722C42.4808 179.944 42.5295 180.17 42.5573 180.396L67.9329 179.718L67.0139 154.003C66.4315 153.971 65.8754 153.76 65.4174 153.407L65.4157 153.405ZM42.5709 180.93C42.5414 181.384 42.405 181.823 42.1769 182.208L66.812 199.988C67.1158 199.639 67.5104 199.359 67.9754 199.181C68.1895 199.1 68.4076 199.051 68.6227 199.022L67.9523 180.251L42.5709 180.93ZM69.1549 199.003C69.9428 199.048 70.6817 199.414 71.1945 200.019L98.9977 180.543C98.8947 180.381 98.8057 180.202 98.7342 180.015C98.6612 179.822 98.6129 179.625 98.5835 179.428L68.4826 180.233L69.1532 199.001L69.1549 199.003ZM99.3252 180.967L75.2686 197.817L101.928 181.85C100.959 182.014 99.9803 181.67 99.3252 180.967ZM71.5968 200.638C71.6326 200.713 71.6663 200.791 71.6981 200.87C71.9205 201.46 71.9335 202.077 71.7793 202.64L112.748 217.892C113.06 217.245 113.61 216.71 114.335 216.438C114.973 216.197 115.644 216.2 116.247 216.398L140.132 161.005C139.771 160.792 139.454 160.495 139.21 160.136L71.5931 200.637L71.5968 200.638ZM116.736 216.611C116.915 216.709 117.085 216.822 117.242 216.957L160.292 175.467L143.591 160.621C143.319 160.877 142.996 161.085 142.622 161.225C141.949 161.479 141.243 161.461 140.617 161.233L116.738 216.609L116.736 216.611ZM143.941 160.22L160.675 175.094L174.553 161.718C174.368 161.486 174.214 161.222 174.104 160.929C173.997 160.642 173.938 160.35 173.923 160.058L144.477 158.825C144.422 159.33 144.237 159.81 143.939 160.218L143.941 160.22ZM179.521 158.897C180.069 160.355 179.362 161.972 177.941 162.573L189.444 198.658L178.107 112.83L177.144 157.039C178.187 157.16 179.128 157.843 179.521 158.894L179.521 158.897ZM178.931 112.052C178.807 112.099 178.681 112.134 178.554 112.161L189.997 198.785C190.432 198.786 190.858 198.884 191.243 199.068L210.195 165.995L179.115 111.969C179.053 111.996 178.993 112.025 178.929 112.05L178.931 112.052ZM187.291 202.695C187.273 202.647 187.26 202.597 187.246 202.549L118.216 218.749C118.339 219.616 118.054 220.48 117.476 221.108L134.057 239.522L187.469 203.077C187.402 202.954 187.34 202.83 187.291 202.695ZM117.079 221.465C116.867 221.624 116.631 221.757 116.367 221.855C115.879 222.039 115.372 222.079 114.889 222L105.854 257.034C106.336 257.207 106.77 257.509 107.103 257.911L133.608 239.826L117.076 221.465L117.079 221.465ZM107.406 258.356C107.474 258.478 107.537 258.604 107.587 258.739C107.811 259.335 107.821 259.958 107.665 260.526L173.676 285.539C173.799 285.288 173.957 285.057 174.149 284.847L133.974 240.229L107.408 258.358L107.406 258.356ZM173.486 286.038L107.476 261.027C107.436 261.11 107.392 261.192 107.341 261.271L131.508 280.391C131.783 280.126 132.116 279.913 132.494 279.77C133.99 279.209 135.656 279.966 136.218 281.461C136.348 281.804 136.403 282.157 136.4 282.5L173.433 286.25C173.446 286.177 173.465 286.107 173.484 286.036L173.486 286.038ZM132.961 285.313L113.164 367.415C114.037 367.646 114.79 368.283 115.132 369.193C115.284 369.602 115.338 370.025 115.305 370.435L159.309 377.982C159.537 377.13 160.152 376.396 161.031 376.047L134.272 285.268C133.831 285.389 133.384 285.399 132.959 285.315L132.961 285.313ZM159.395 379.744C159.242 379.335 159.189 378.913 159.219 378.504L116.184 371.124L155.246 383.548L159.637 380.245C159.541 380.09 159.457 379.921 159.391 379.744L159.395 379.744ZM115.085 371.337C114.786 372.041 114.214 372.627 113.441 372.918C113.433 372.921 113.424 372.923 113.414 372.928L124.383 403.8C125.414 403.564 126.472 403.917 127.161 404.675L154.726 383.944L115.087 371.339L115.085 371.337ZM127.483 405.1C127.579 405.254 127.663 405.423 127.729 405.601C127.785 405.755 127.828 405.91 127.858 406.067L199.796 398.935C199.796 398.719 199.817 398.506 199.862 398.297L155.349 384.141L127.483 405.1ZM126.895 408.816C126.648 409.028 126.363 409.202 126.039 409.325C125.971 409.35 125.902 409.369 125.835 409.39L127.756 464.436C128.419 464.475 129.048 464.742 129.537 465.185L158.057 439.207L126.895 408.816ZM129.568 469.433C129.299 469.685 128.975 469.892 128.606 470.029C128.167 470.195 127.712 470.241 127.274 470.194L123.6 488.182L161.405 498.771C161.491 498.503 161.615 498.25 161.773 498.019L129.564 469.433L129.568 469.433ZM162.139 501.72L115.707 536.119C115.8 536.27 115.88 536.431 115.943 536.601C116.235 537.38 116.167 538.202 115.827 538.893L130.566 547.933L162.426 501.968C162.325 501.891 162.229 501.808 162.137 501.719L162.139 501.72ZM130.719 548.654L109.801 578.83C110.171 579.14 110.469 579.544 110.65 580.028C110.693 580.143 110.725 580.258 110.754 580.375L155.514 574.017L166.788 572.417C166.765 571.909 166.88 571.41 167.106 570.97L130.721 548.656L130.719 548.654ZM166.966 573.305C166.921 573.188 166.888 573.067 166.86 572.944L110.831 580.903C110.839 581.068 110.833 581.228 110.813 581.39L164.041 592.864L168.731 575.022C167.944 574.75 167.28 574.144 166.966 573.305ZM164.428 593.493L150.504 646.459C150.949 646.622 151.351 646.893 151.672 647.254L209.114 604.945C208.91 604.702 208.741 604.423 208.623 604.109C208.484 603.738 208.426 603.355 208.44 602.984L164.428 593.497L164.428 593.493ZM210.44 605.839C210.098 605.727 209.776 605.553 209.497 605.323L151.988 647.681C152.079 647.829 152.157 647.988 152.219 648.156C152.376 648.578 152.427 649.01 152.39 649.431L191.046 656.548L210.438 605.837L210.44 605.839ZM152.296 649.958C152.166 650.42 151.925 650.842 151.587 651.189L178.64 682.862C178.76 682.797 178.883 682.737 179.014 682.687C179.698 682.43 180.418 682.451 181.052 682.692L190.855 657.058L152.296 649.958ZM177.699 683.688L145.293 660.251L137.308 679.86C137.921 680.178 138.423 680.711 138.683 681.407C138.799 681.716 138.856 682.031 138.865 682.343L177.201 684.808C177.287 684.404 177.454 684.023 177.699 683.688ZM134.54 679.918C134.672 679.841 134.812 679.773 134.959 679.717C135.578 679.482 136.226 679.48 136.814 679.659L144.849 659.929L96.338 624.846C96.2455 624.951 96.142 625.051 96.0332 625.142L134.54 679.918ZM95.2471 577.485C95.8085 577.809 96.2657 578.321 96.5131 578.975C96.6327 579.291 96.6893 579.617 96.6951 579.939L105.096 580.566C105.261 579.584 105.928 578.714 106.927 578.339C107.29 578.203 107.663 578.147 108.027 578.157L112.624 540.448C112.508 540.423 112.393 540.39 112.279 540.352L95.2468 577.489L95.2471 577.485ZM110.807 536.059C110.984 535.781 111.208 535.532 111.478 535.325L74.7816 477.005C74.6883 477.053 74.5915 477.097 74.4913 477.133C73.0314 477.683 71.4089 476.97 70.8106 475.543L25.2522 489.892C25.3785 490.475 25.3193 491.064 25.1045 491.592L110.808 536.057L110.807 536.059ZM23.2517 487.734C23.5756 487.831 23.8832 487.985 24.1561 488.188L64.6859 443.213L45.8762 374.23L23.2497 487.736L23.2517 487.734ZM44.7465 367.469C45.3391 367.453 45.9162 367.623 46.4025 367.939L67.6721 341.215L41.3468 323.832C41.0314 324.224 40.6139 324.542 40.1087 324.731C39.9718 324.783 39.8357 324.819 39.6961 324.848L44.7447 367.467L44.7465 367.469ZM36.4984 320.754C36.6698 320.405 36.9112 320.091 37.2102 319.832L8.41997 279.251L-14.271 301.496L36.4964 320.755L36.4984 320.754ZM-61.9052 221.732C-62.1026 222.179 -62.4146 222.579 -62.816 222.879L-15.1374 300.462L-21.2474 239.822C-22.4256 239.83 -23.5395 239.116 -23.9793 237.949C-24.4289 236.752 -24.0316 235.449 -23.0918 234.685L-61.905 221.728L-61.9052 221.732ZM-6.67129 163.664L35.1018 184.605L37.3863 182.498C37.2182 182.279 37.078 182.032 36.977 181.76C36.7546 181.17 36.7417 180.549 36.8962 179.982L-6.67307 163.662L-6.67129 163.664ZM69.2388 153.142C68.9531 153.435 68.6003 153.674 68.1915 153.827C67.9774 153.908 67.7613 153.955 67.5442 153.985L68.4648 179.706L98.5544 178.901C98.5733 178.36 98.748 177.84 99.0436 177.394L69.2388 153.142ZM104.167 178.037C104.508 178.998 104.311 180.024 103.725 180.777L134.131 162.564L104.169 178.035L104.167 178.037ZM180.805 109.194C180.859 110.183 180.396 111.138 179.582 111.714L210.504 165.468L247.345 101.177C246.885 100.855 246.514 100.395 246.3 99.8294C246.258 99.7195 246.226 99.6082 246.2 99.499L180.803 109.195L180.805 109.194ZM248.208 101.585C248.072 101.546 247.936 101.499 247.807 101.44L210.815 166.001L228.554 196.834C228.602 196.812 228.65 196.79 228.701 196.77C229.181 196.589 229.678 196.547 230.153 196.619L248.208 101.585ZM226.825 199.515C226.813 198.556 227.28 197.643 228.084 197.095L210.507 166.54L191.706 199.351C192.147 199.673 192.504 200.121 192.709 200.669C192.776 200.846 192.823 201.026 192.853 201.208L226.825 199.515ZM189.363 204.505C188.744 204.365 188.182 204.023 187.773 203.526L134.421 239.931L174.548 284.496C174.76 284.337 174.996 284.204 175.26 284.106C175.661 283.957 176.072 283.903 176.474 283.929L189.364 204.507L189.363 204.505ZM163.121 381.441C161.979 381.868 160.738 381.527 159.964 380.676L155.874 383.751L199.461 397.613L164.559 380.253C164.235 380.779 163.744 381.207 163.117 381.44L163.121 381.441ZM201.452 401.532C201.194 401.409 200.953 401.249 200.742 401.054L158.837 439.224L178.38 458.283C178.628 458.071 178.915 457.895 179.237 457.774C179.819 457.555 180.429 457.538 180.988 457.688L201.452 401.532ZM178.912 463.043C178.302 462.726 177.805 462.193 177.544 461.5C177.496 461.375 177.463 461.247 177.434 461.118L130.48 467.218C130.504 467.875 130.302 468.513 129.921 469.036L162.118 497.611C162.399 497.329 162.744 497.098 163.143 496.95C163.766 496.717 164.417 496.713 165.006 496.897L178.913 463.045L178.912 463.043ZM164.166 502.547C163.717 502.548 163.279 502.444 162.884 502.249L131.023 548.214L167.39 570.516C167.707 570.106 168.136 569.773 168.659 569.579C168.855 569.506 169.051 569.456 169.251 569.427L164.17 502.543L164.166 502.547ZM171.862 574.182C171.556 574.537 171.159 574.822 170.691 575C170.212 575.179 169.72 575.223 169.25 575.151L164.565 592.979L208.514 602.451C208.58 602.165 208.687 601.889 208.834 601.637L171.862 574.182ZM218.322 663.619C218.239 663.479 218.167 663.331 218.107 663.173C217.966 662.801 217.909 662.418 217.923 662.042L191.388 657.156L181.533 682.927C181.888 683.142 182.2 683.436 182.436 683.795L218.32 663.617L218.322 663.619Z" fill="#EE81B0"/>
<path d="M327.488 683.441C327.93 682.268 327.557 680.991 326.652 680.224L365.159 625.448C365.291 625.524 365.431 625.592 365.578 625.649C367.074 626.21 368.74 625.453 369.302 623.958C369.865 622.464 369.106 620.796 367.612 620.234C367.373 620.144 367.13 620.091 366.886 620.066L367.198 582.871C368.277 582.779 369.257 582.088 369.662 581.009C370.225 579.514 369.466 577.847 367.972 577.284C367.31 577.037 366.615 577.047 365.997 577.263L348.964 540.126C349.526 539.802 349.983 539.29 350.23 538.636C350.496 537.927 350.462 537.182 350.2 536.532L435.904 492.066C436.227 492.573 436.712 492.984 437.317 493.213C438.812 493.776 440.479 493.017 441.042 491.523C441.604 490.028 440.846 488.361 439.351 487.798C438.915 487.636 438.467 487.587 438.034 487.633L415.215 373.159C416.63 373.527 418.124 372.774 418.65 371.376C419.212 369.881 418.454 368.214 416.959 367.652C416.822 367.6 416.686 367.564 416.546 367.535L421.595 324.916C422.793 324.946 423.932 324.228 424.376 323.044C424.6 322.448 424.611 321.826 424.453 321.256L475.207 302.003L475.134 302.731L475.696 301.815L476.002 301.699L475.855 301.555L524.031 223.159C524.117 223.2 524.204 223.239 524.294 223.274C525.789 223.837 527.456 223.078 528.019 221.583C528.582 220.089 527.823 218.421 526.328 217.859C524.834 217.296 523.166 218.055 522.604 219.549C522.395 220.105 522.37 220.687 522.497 221.224L483.268 234.321C483.198 234.287 483.126 234.254 483.051 234.226C482.679 234.085 482.294 234.03 481.918 234.044L472.678 164.472C473.594 164.262 474.388 163.615 474.743 162.67C475.305 161.175 474.547 159.508 473.052 158.945C471.558 158.383 469.89 159.141 469.328 160.636C469.105 161.226 469.092 161.847 469.249 162.412L423.673 179.483C423.362 178.84 422.814 178.307 422.089 178.035C421.117 177.67 420.076 177.865 419.311 178.451L395.736 153.046C395.97 152.786 396.162 152.481 396.291 152.134C396.854 150.639 396.095 148.972 394.601 148.409C393.106 147.847 391.439 148.605 390.876 150.1C390.536 151.008 390.683 151.978 391.184 152.727L361.379 176.978C361.093 176.685 360.742 176.448 360.332 176.294C358.99 175.79 357.512 176.349 356.815 177.55L321.869 159.507C322.407 158.019 321.652 156.373 320.167 155.815C318.672 155.253 317.005 156.011 316.442 157.506C316.345 157.766 316.289 158.032 316.268 158.298L286.809 159.533C286.671 158.514 285.992 157.601 284.96 157.214C284.692 157.113 284.419 157.057 284.147 157.039L283.171 112.226C284.214 112.105 285.156 111.422 285.549 110.371C286.111 108.877 285.353 107.209 283.858 106.647C282.364 106.084 280.696 106.843 280.134 108.337C280.092 108.447 280.062 108.556 280.034 108.668L214.636 98.9674C214.704 97.7388 213.977 96.5557 212.766 96.1011C211.271 95.5386 209.604 96.2971 209.041 97.7917C208.479 99.2863 209.237 100.954 210.732 101.516C211.158 101.677 211.599 101.726 212.024 101.685L230.089 196.748C229.307 197.022 228.649 197.625 228.335 198.46C227.772 199.955 228.531 201.622 230.026 202.185C231.52 202.748 233.188 201.989 233.75 200.494C233.805 200.346 233.844 200.195 233.876 200.044L267.869 201.737C267.891 202.885 268.6 203.961 269.741 204.389C270.111 204.529 270.494 204.586 270.866 204.572L283.76 284.012C282.879 284.239 282.121 284.878 281.775 285.793C281.213 287.287 281.971 288.955 283.466 289.517C284.961 290.08 286.628 289.321 287.19 287.827C287.32 287.483 287.375 287.131 287.372 286.787L324.407 283.035C324.593 283.985 325.251 284.822 326.227 285.187L325.971 285.112L299.211 375.896C297.847 375.628 296.451 376.372 295.947 377.714C295.686 378.406 295.713 379.135 295.96 379.774L260.528 397.399C260.204 396.874 259.712 396.446 259.088 396.214C257.591 395.653 255.926 396.41 255.363 397.905C254.801 399.399 255.559 401.066 257.054 401.629C257.636 401.848 258.246 401.865 258.805 401.715L279.269 457.871C278.612 458.182 278.072 458.734 277.797 459.467C277.234 460.961 277.993 462.628 279.488 463.191C280.11 463.425 280.761 463.429 281.351 463.245L295.258 497.097C294.649 497.414 294.151 497.947 293.891 498.639C293.328 500.134 294.086 501.801 295.581 502.364C295.739 502.423 295.9 502.464 296.059 502.495L290.975 569.398C289.844 569.44 288.798 570.147 288.375 571.271C288.058 572.118 288.162 573.02 288.586 573.746L251.616 601.2C251.31 600.845 250.913 600.56 250.444 600.382C248.95 599.82 247.282 600.578 246.72 602.073C246.159 603.569 246.916 605.235 248.41 605.797C248.422 605.8 248.433 605.804 248.443 605.809L242.837 640.78L239.873 659.265C238.729 659.295 237.662 660.001 237.234 661.139C236.672 662.634 237.43 664.301 238.925 664.864C240.088 665.3 241.35 664.939 242.121 664.055L278.067 684.267C278.052 684.304 278.033 684.341 278.018 684.381C277.456 685.876 278.214 687.543 279.709 688.106C281.203 688.668 282.871 687.91 283.433 686.415C283.566 686.061 283.624 685.696 283.615 685.34L321.925 682.876C322.083 683.87 322.753 684.754 323.764 685.132C325.258 685.694 326.926 684.936 327.488 683.441ZM242.761 661.513C242.55 660.598 241.904 659.803 240.959 659.448C240.775 659.381 240.591 659.333 240.408 659.301L243.768 638.341L248.961 605.944C249.239 605.99 249.517 605.993 249.789 605.957L269.175 656.648L242.762 661.511L242.761 661.513ZM282.751 458.664L302.318 439.583L330.86 465.58C330.697 465.797 330.559 466.039 330.459 466.305C330.411 466.43 330.378 466.558 330.349 466.687L283.395 460.587C283.42 459.885 283.188 459.201 282.751 458.664ZM260.378 400.659C260.54 400.442 260.679 400.201 260.778 399.935C260.836 399.779 260.877 399.625 260.907 399.469L332.845 406.601C332.841 407.272 333.071 407.922 333.488 408.437L302.302 438.85L260.376 400.661L260.378 400.659ZM425.146 184.858L394.617 200.163L418.893 182.642C419.197 182.991 419.592 183.27 420.057 183.448C421.104 183.842 422.232 183.586 423.009 182.887L425.146 184.858ZM471.02 164.359C471.394 164.498 471.777 164.555 472.153 164.541L481.389 234.113C480.909 234.223 480.463 234.454 480.097 234.786L426.079 184.991L469.588 163.18C469.912 163.702 470.403 164.126 471.022 164.36L471.02 164.359ZM436.207 488.541C435.985 488.784 435.803 489.066 435.668 489.383L390.11 475.034C390.41 473.655 389.662 472.227 388.301 471.716L395.906 443.822L436.207 488.541ZM282.704 683.283C282.658 683.242 282.611 683.199 282.561 683.162L309.577 651.534C309.775 651.673 309.989 651.791 310.225 651.88C310.844 652.115 311.492 652.117 312.08 651.938L315.257 659.738L282.704 683.283ZM345.02 594.331L351.544 583.639C351.625 583.68 351.71 583.717 351.799 583.75C352.352 583.957 352.928 583.984 353.463 583.861L356.371 592.706L313.606 645.811L345.02 594.331ZM351.088 583.362L328.273 620.751L312.514 646.577C312.432 646.536 312.347 646.499 312.259 646.465C311.765 646.28 311.254 646.24 310.767 646.322L296.85 593.381L350.056 581.911C350.237 582.484 350.593 582.995 351.085 583.362L351.088 583.362ZM312.574 651.737C313.187 651.419 313.689 650.886 313.949 650.19C314.203 649.517 314.187 648.809 313.957 648.182L364.09 624.421L315.701 659.416L312.573 651.735L312.574 651.737ZM363.889 621.923C363.635 622.596 363.651 623.304 363.881 623.931L313.73 647.7C313.599 647.482 313.441 647.279 313.258 647.099L356.571 593.314L365.444 620.291C364.751 620.594 364.176 621.161 363.891 621.924L363.889 621.923ZM365.95 620.121L356.968 592.816L365.357 582.399C365.535 582.516 365.729 582.619 365.936 582.697C366.175 582.787 366.418 582.84 366.661 582.865L366.349 620.06C366.214 620.071 366.078 620.089 365.946 620.121L365.95 620.121ZM364.104 580.47C364.208 581.073 364.496 581.635 364.94 582.063L356.77 592.21L353.968 583.695C354.661 583.392 355.236 582.825 355.522 582.062C355.641 581.745 355.698 581.419 355.704 581.097L364.104 580.47ZM351.395 578.525L330.495 548.373L345.209 539.35C345.528 539.777 345.968 540.123 346.506 540.327C346.868 540.463 347.242 540.519 347.606 540.509L352.203 578.218C351.921 578.28 351.648 578.383 351.395 578.525ZM298.965 501.311C299.1 501.117 299.217 500.903 299.305 500.669C299.476 500.212 299.525 499.743 299.468 499.292L337.262 488.708L346.684 534.85C346.18 535.003 345.724 535.29 345.367 535.687L298.963 501.309L298.965 501.311ZM329.596 280.795L353.735 261.699C354.034 262.029 354.413 262.298 354.86 262.464C355.078 262.545 355.298 262.596 355.521 262.624L356.405 273.728L329.862 281.25C329.787 281.089 329.698 280.937 329.596 280.791L329.596 280.795ZM283.323 162.739C284.228 162.939 285.154 162.688 285.831 162.108L299.679 175.454L272.638 199.489C272.388 199.275 272.099 199.097 271.775 198.974L283.325 162.741L283.323 162.739ZM273.009 199.87L300.065 175.823L343.145 217.343C342.961 217.576 342.806 217.839 342.697 218.132C342.685 218.165 342.676 218.2 342.664 218.232L273.625 202.031C273.72 201.247 273.489 200.471 273.011 199.872L273.009 199.87ZM384.576 473.403C384.528 473.528 384.495 473.653 384.465 473.781L336.054 467.429C336.086 466.607 335.763 465.809 335.175 465.241L357.788 437.071L385.304 472.316C384.992 472.61 384.739 472.975 384.576 473.403ZM334.757 464.907C334.579 464.79 334.388 464.69 334.18 464.61C333.966 464.529 333.748 464.48 333.529 464.452L335.448 409.487C335.712 409.513 335.973 409.503 336.226 409.458L357.445 436.637L334.755 464.906L334.757 464.907ZM336.785 409.304C337.131 409.167 337.451 408.966 337.723 408.708L367.203 416.638L370.058 417.406C369.896 418.341 370.206 419.281 370.857 419.939L357.794 436.214L336.789 409.307L336.785 409.304ZM370.199 416.882C370.199 416.882 370.197 416.884 370.196 416.886L367.352 416.122L338.106 408.255C338.238 408.065 338.352 407.855 338.438 407.627C338.579 407.251 338.636 406.865 338.622 406.489L361.355 395.949L371.324 415.477C370.827 415.802 370.421 416.281 370.197 416.88L370.199 416.882ZM385.725 471.987L358.13 436.643L371.266 420.278C371.456 420.41 371.664 420.522 371.89 420.607C372.36 420.782 372.847 420.829 373.312 420.763L386.315 471.696C386.109 471.769 385.912 471.868 385.725 471.987ZM413.808 372.305L374.595 415.555C374.393 415.409 374.167 415.285 373.924 415.192C373.206 414.923 372.452 414.959 371.797 415.231L361.842 395.727L413.439 371.804C413.543 371.984 413.667 372.149 413.809 372.303L413.808 372.305ZM361.598 395.252L350.013 372.559C350.465 372.237 350.827 371.783 351.036 371.224C351.117 371.006 351.17 370.784 351.196 370.563L388.76 370.596L413.059 370.618C413.082 370.861 413.132 371.096 413.213 371.321L361.598 395.252ZM479.568 238.445L458.168 254.161L444.938 263.874C444.635 263.532 444.25 263.258 443.791 263.085C442.892 262.747 441.934 262.89 441.188 263.379L432.259 252.192L479.367 238.058C479.425 238.193 479.492 238.322 479.567 238.447L479.568 238.445ZM360.907 296.567L394.433 264.859C394.688 265.082 394.986 265.271 395.323 265.395C395.903 265.612 396.509 265.629 397.069 265.483L403.594 280.664L361.218 297.059C361.131 296.884 361.026 296.718 360.907 296.563L360.907 296.567ZM397.572 265.303C398.228 264.993 398.772 264.441 399.047 263.704C399.117 263.519 399.166 263.333 399.196 263.144L439.884 265.865C439.891 266.108 439.93 266.348 439.995 266.579L404.091 280.471L397.57 265.302L397.572 265.303ZM440.771 263.71C440.47 264 440.224 264.357 440.067 264.776C439.999 264.959 439.948 265.147 439.918 265.332L425.386 264.354L399.231 262.594C399.226 262.432 399.205 262.272 399.174 262.115L431.71 252.355L440.775 263.71L440.771 263.71ZM399.019 261.605C398.726 260.881 398.146 260.277 397.357 259.98C397.037 259.86 396.71 259.804 396.389 259.798L392.244 204.737C392.639 204.669 393.014 204.521 393.348 204.301L431.346 251.905L399.017 261.604L399.019 261.605ZM390.747 204.596C391.067 204.716 391.393 204.772 391.715 204.778L395.86 259.839C395.284 259.935 394.748 260.207 394.327 260.615L369.054 239.011L390.474 204.476C390.563 204.521 390.654 204.56 390.749 204.594L390.747 204.596ZM393.98 261.021C393.841 261.219 393.722 261.435 393.632 261.67C393.604 261.742 393.585 261.814 393.564 261.885L358.762 259.826C358.783 258.901 358.359 258.012 357.618 257.449L368.77 239.471L393.98 261.021ZM358.583 260.772C358.634 260.635 358.67 260.495 358.701 260.357L393.465 262.414C393.44 262.686 393.454 262.954 393.502 263.216L356.929 273.581L356.057 262.643C357.157 262.574 358.172 261.874 358.583 260.775L358.583 260.772ZM393.647 263.728C393.731 263.947 393.84 264.157 393.975 264.35L360.533 296.173C360.279 295.952 359.984 295.769 359.648 295.642C359.326 295.521 358.996 295.465 358.669 295.461L356.969 274.124L393.646 263.73L393.647 263.728ZM349.347 367.501C349.307 367.486 349.266 367.475 349.224 367.462L354.713 328.264L358.498 301.242C359.112 301.27 359.711 301.099 360.216 300.77L392.304 341.087L350.705 368.558C350.382 368.091 349.92 367.715 349.347 367.501ZM361.424 299.113C361.569 298.589 361.556 298.057 361.415 297.563L403.809 281.159L420.284 319.482C419.769 319.762 419.336 320.199 419.063 320.757L361.424 299.113ZM420.774 319.269L404.308 280.965L440.191 267.079C440.468 267.638 440.922 268.107 441.515 268.394L422.426 319.229C421.867 319.075 421.294 319.098 420.774 319.269ZM445.485 266.81C445.807 265.949 445.693 265.035 445.256 264.303L454.901 257.223L479.89 238.874C479.97 238.961 480.056 239.045 480.147 239.124L452.265 278.425L442.286 268.643C443.629 268.875 444.988 268.132 445.485 266.81ZM479.231 236.194C479.111 236.65 479.109 237.112 479.204 237.549L431.899 251.742L393.767 203.971C394.001 203.747 394.199 203.483 394.352 203.182L479.231 236.194ZM390.023 204.196L368.644 238.664L347.764 220.816C347.903 220.618 348.022 220.402 348.112 220.166C348.334 219.576 348.347 218.959 348.193 218.396L389.162 203.144C389.359 203.552 389.651 203.915 390.023 204.196ZM347.417 221.222L368.358 239.122L357.165 257.167C357.076 257.122 356.985 257.084 356.89 257.049C356.402 256.865 355.896 256.825 355.412 256.903L346.377 221.87C346.763 221.732 347.116 221.511 347.413 221.222L347.417 221.222ZM330.042 281.756L356.447 274.272L358.138 295.504C357.35 295.642 356.638 296.101 356.195 296.797L330.005 283.325C330.166 282.799 330.172 282.258 330.044 281.758L330.042 281.756ZM329.8 283.82L355.953 297.273C355.945 297.294 355.934 297.314 355.926 297.335C355.363 298.829 356.122 300.497 357.616 301.059C357.732 301.102 357.851 301.138 357.97 301.166L349.504 361.61L348.702 367.344C348.506 367.318 348.309 367.313 348.117 367.327L328.307 285.163C328.935 284.913 329.474 284.45 329.804 283.82L329.8 283.82ZM349.551 372.829L361.111 395.478L338.543 405.943C338.335 405.084 337.738 404.339 336.875 403.964L347.854 373.062C348.441 373.159 349.028 373.07 349.547 372.829L349.551 372.829ZM335.871 468.339C335.919 468.213 335.952 468.089 335.981 467.961L384.393 474.312C384.385 474.525 384.4 474.736 384.439 474.94L337.667 488.038L334 470.085C334.832 469.832 335.54 469.212 335.871 468.335L335.871 468.339ZM348.534 534.91C348.094 534.744 347.64 534.698 347.202 534.746L337.77 488.566L384.582 475.456C384.77 475.949 385.092 476.389 385.521 476.719L348.824 535.039C348.731 534.991 348.634 534.947 348.534 534.91ZM387.781 471.575C387.461 471.52 387.139 471.518 386.828 471.568L373.828 420.645C374.116 420.549 374.386 420.404 374.633 420.221L395.478 443.351L387.783 471.577L387.781 471.575ZM375.029 419.862C375.276 419.596 375.475 419.279 375.612 418.918C376.016 417.844 375.737 416.685 374.997 415.907L414.203 372.664C414.348 372.774 414.505 372.871 414.675 372.953L395.648 442.736L375.034 419.86L375.029 419.862ZM413.229 369.337C413.136 369.584 413.083 369.834 413.06 370.083L351.213 370.029C351.191 369.679 351.107 369.337 350.966 369.023L392.636 341.505L413.936 368.267C413.632 368.558 413.388 368.916 413.229 369.337ZM392.75 340.792L360.633 300.438C360.874 300.206 361.081 299.932 361.235 299.614L418.874 321.259C418.672 321.993 418.776 322.748 419.116 323.384L392.752 340.793L392.75 340.792ZM422.923 319.419L441.864 268.981L451.948 278.869L423.108 319.521C423.048 319.484 422.987 319.451 422.923 319.419ZM480.581 239.432C480.717 239.511 480.859 239.582 481.011 239.64C481.164 239.698 481.319 239.737 481.473 239.769L475.301 301.013L452.648 278.806L480.579 239.434L480.581 239.432ZM479.728 235.175C479.632 235.301 479.545 235.438 479.469 235.582L479.285 235.643L394.541 202.685C394.722 202.057 394.677 201.413 394.454 200.838L425.561 185.243L479.728 235.172L479.728 235.175ZM395.341 153.405L418.916 178.81C418.682 179.07 418.49 179.375 418.36 179.722C418.276 179.944 418.227 180.17 418.199 180.396L392.823 179.718L393.742 154.003C394.325 153.971 394.881 153.76 395.339 153.407L395.341 153.405ZM418.185 180.93C418.215 181.384 418.351 181.823 418.579 182.208L393.944 199.988C393.641 199.639 393.246 199.359 392.781 199.181C392.567 199.1 392.349 199.051 392.134 199.022L392.804 180.251L418.185 180.93ZM391.601 199.003C390.814 199.048 390.075 199.414 389.562 200.019L361.759 180.543C361.862 180.381 361.951 180.202 362.022 180.015C362.095 179.822 362.143 179.625 362.173 179.428L392.274 180.233L391.603 199.001L391.601 199.003ZM361.431 180.967L385.488 197.817L358.829 181.85C359.798 182.014 360.776 181.67 361.431 180.967ZM389.159 200.638C389.124 200.713 389.09 200.791 389.058 200.87C388.836 201.46 388.823 202.077 388.977 202.64L348.008 217.892C347.696 217.245 347.146 216.71 346.421 216.438C345.783 216.197 345.112 216.2 344.51 216.398L320.624 161.005C320.985 160.792 321.303 160.495 321.547 160.136L389.163 200.637L389.159 200.638ZM344.02 216.611C343.842 216.709 343.672 216.822 343.514 216.957L300.464 175.467L317.165 160.621C317.438 160.877 317.761 161.085 318.135 161.225C318.808 161.479 319.514 161.461 320.139 161.233L344.018 216.609L344.02 216.611ZM316.815 160.22L300.081 175.094L286.204 161.718C286.388 161.486 286.543 161.222 286.652 160.929C286.76 160.642 286.818 160.35 286.833 160.058L316.279 158.825C316.334 159.33 316.52 159.81 316.817 160.218L316.815 160.22ZM281.235 158.897C280.688 160.355 281.394 161.972 282.815 162.573L271.312 198.658L282.649 112.83L283.612 157.039C282.569 157.16 281.628 157.843 281.235 158.894L281.235 158.897ZM281.826 112.052C281.949 112.099 282.076 112.134 282.202 112.161L270.759 198.785C270.325 198.786 269.899 198.884 269.513 199.068L250.561 165.995L281.642 111.969C281.704 111.996 281.764 112.025 281.827 112.05L281.826 112.052ZM273.465 202.695C273.484 202.647 273.496 202.597 273.511 202.549L342.54 218.749C342.417 219.616 342.703 220.48 343.28 221.108L326.7 239.522L273.287 203.077C273.354 202.954 273.416 202.83 273.465 202.695ZM343.677 221.465C343.889 221.624 344.125 221.757 344.389 221.855C344.877 222.039 345.384 222.079 345.868 222L354.903 257.034C354.42 257.207 353.986 257.509 353.654 257.911L327.148 239.826L343.681 221.465L343.677 221.465ZM353.35 258.356C353.283 258.478 353.219 258.604 353.17 258.739C352.946 259.335 352.935 259.958 353.091 260.526L287.08 285.539C286.957 285.288 286.8 285.057 286.607 284.847L326.782 240.229L353.348 258.358L353.35 258.356ZM287.271 286.038L353.28 261.027C353.32 261.11 353.364 261.192 353.416 261.271L329.248 280.391C328.973 280.126 328.641 279.913 328.263 279.77C326.766 279.209 325.101 279.966 324.538 281.461C324.409 281.804 324.353 282.157 324.356 282.5L287.323 286.25C287.31 286.177 287.291 286.107 287.272 286.036L287.271 286.038ZM327.795 285.313L347.592 367.415C346.72 367.646 345.966 368.283 345.625 369.193C345.472 369.602 345.419 370.025 345.452 370.435L301.447 377.982C301.219 377.13 300.604 376.396 299.726 376.047L326.484 285.268C326.925 285.389 327.372 285.399 327.797 285.315L327.795 285.313ZM301.362 379.744C301.514 379.335 301.568 378.913 301.537 378.504L344.573 371.124L305.51 383.548L301.12 380.245C301.215 380.09 301.299 379.921 301.366 379.744L301.362 379.744ZM345.671 371.337C345.971 372.041 346.542 372.627 347.315 372.918C347.323 372.921 347.333 372.923 347.342 372.928L336.373 403.8C335.342 403.564 334.285 403.917 333.595 404.675L306.03 383.944L345.669 371.339L345.671 371.337ZM333.273 405.1C333.177 405.254 333.093 405.423 333.027 405.601C332.971 405.755 332.928 405.91 332.898 406.067L260.96 398.935C260.96 398.719 260.94 398.506 260.895 398.297L305.407 384.141L333.273 405.1ZM333.861 408.816C334.108 409.028 334.394 409.202 334.718 409.325C334.785 409.35 334.854 409.369 334.921 409.39L333.001 464.436C332.337 464.475 331.708 464.742 331.219 465.185L302.699 439.207L333.861 408.816ZM331.189 469.433C331.457 469.685 331.782 469.892 332.15 470.029C332.59 470.195 333.044 470.241 333.482 470.194L337.156 488.182L299.352 498.771C299.266 498.503 299.141 498.25 298.983 498.019L331.192 469.433L331.189 469.433ZM298.618 501.72L345.049 536.119C344.957 536.27 344.876 536.431 344.813 536.601C344.522 537.38 344.589 538.202 344.93 538.893L330.191 547.933L298.33 501.968C298.432 501.891 298.528 501.808 298.619 501.719L298.618 501.72ZM330.038 548.654L350.955 578.83C350.586 579.14 350.287 579.544 350.107 580.028C350.063 580.143 350.032 580.258 350.002 580.375L305.242 574.017L293.969 572.417C293.991 571.909 293.876 571.41 293.651 570.97L330.036 548.656L330.038 548.654ZM293.79 573.305C293.835 573.188 293.868 573.067 293.896 572.944L349.926 580.903C349.917 581.068 349.924 581.228 349.943 581.39L296.715 592.864L292.025 575.022C292.813 574.75 293.477 574.144 293.79 573.305ZM296.328 593.493L310.252 646.459C309.807 646.622 309.406 646.893 309.084 647.254L251.642 604.945C251.847 604.702 252.015 604.423 252.133 604.109C252.272 603.738 252.33 603.355 252.316 602.984L296.329 593.497L296.328 593.493ZM250.316 605.839C250.658 605.727 250.98 605.553 251.259 605.323L308.768 647.681C308.678 647.829 308.599 647.988 308.538 648.156C308.38 648.578 308.329 649.01 308.366 649.431L269.71 656.548L250.318 605.837L250.316 605.839ZM308.46 649.958C308.59 650.42 308.832 650.842 309.169 651.189L282.117 682.862C281.996 682.797 281.874 682.737 281.743 682.687C281.058 682.43 280.339 682.451 279.705 682.692L269.902 657.058L308.46 649.958ZM283.058 683.688L315.463 660.251L323.448 679.86C322.835 680.178 322.334 680.711 322.073 681.407C321.957 681.716 321.9 682.031 321.892 682.343L283.555 684.808C283.47 684.404 283.302 684.023 283.058 683.688ZM326.217 679.918C326.084 679.841 325.944 679.773 325.798 679.717C325.179 679.482 324.53 679.48 323.942 679.659L315.908 659.929L364.418 624.846C364.511 624.951 364.614 625.051 364.723 625.142L326.217 679.918ZM365.509 577.485C364.948 577.809 364.491 578.321 364.243 578.975C364.124 579.291 364.067 579.617 364.061 579.939L355.661 580.566C355.496 579.584 354.828 578.714 353.829 578.339C353.467 578.203 353.093 578.147 352.729 578.157L348.132 540.448C348.248 540.423 348.364 540.39 348.477 540.352L365.51 577.489L365.509 577.485ZM349.95 536.059C349.773 535.781 349.548 535.532 349.278 535.325L385.975 477.005C386.068 477.053 386.165 477.097 386.265 477.133C387.725 477.683 389.347 476.97 389.946 475.543L435.504 489.892C435.378 490.475 435.437 491.064 435.652 491.592L349.948 536.057L349.95 536.059ZM437.505 487.734C437.181 487.831 436.873 487.985 436.6 488.188L396.07 443.213L414.88 374.23L437.507 487.736L437.505 487.734ZM416.01 367.469C415.417 367.453 414.84 367.623 414.354 367.939L393.084 341.215L419.41 323.832C419.725 324.224 420.142 324.542 420.648 324.731C420.785 324.783 420.921 324.819 421.06 324.848L416.012 367.467L416.01 367.469ZM424.258 320.754C424.087 320.405 423.845 320.091 423.546 319.832L452.336 279.251L475.027 301.496L424.26 320.755L424.258 320.754ZM522.662 221.732C522.859 222.179 523.171 222.579 523.572 222.879L475.894 300.462L482.004 239.822C483.182 239.83 484.296 239.116 484.736 237.949C485.185 236.752 484.788 235.449 483.848 234.685L522.661 221.728L522.662 221.732ZM467.428 163.664L425.655 184.605L423.37 182.498C423.538 182.279 423.678 182.032 423.779 181.76C424.002 181.17 424.015 180.549 423.86 179.982L467.429 163.662L467.428 163.664ZM391.518 153.142C391.803 153.435 392.156 153.674 392.565 153.827C392.779 153.908 392.995 153.955 393.212 153.985L392.292 179.706L362.202 178.901C362.183 178.36 362.008 177.84 361.713 177.394L391.518 153.142ZM356.589 178.037C356.248 178.998 356.446 180.024 357.031 180.777L326.625 162.564L356.587 178.035L356.589 178.037ZM279.952 109.194C279.898 110.183 280.36 111.138 281.175 111.714L250.252 165.468L213.412 101.177C213.871 100.855 214.242 100.395 214.457 99.8294C214.498 99.7195 214.53 99.6082 214.556 99.499L279.954 109.195L279.952 109.194ZM212.548 101.585C212.684 101.546 212.82 101.499 212.949 101.44L249.942 166.001L232.203 196.834C232.154 196.812 232.106 196.79 232.056 196.77C231.576 196.589 231.078 196.547 230.604 196.619L212.548 101.585ZM233.931 199.515C233.943 198.556 233.476 197.643 232.672 197.095L250.25 166.54L269.05 199.351C268.609 199.673 268.253 200.121 268.047 200.669C267.981 200.846 267.933 201.026 267.903 201.208L233.931 199.515ZM271.394 204.505C272.012 204.365 272.575 204.023 272.983 203.526L326.335 239.931L286.209 284.496C285.996 284.337 285.76 284.204 285.496 284.106C285.095 283.957 284.684 283.903 284.283 283.929L271.392 204.507L271.394 204.505ZM297.636 381.441C298.777 381.868 300.018 381.527 300.792 380.676L304.882 383.751L261.295 397.613L296.197 380.253C296.522 380.779 297.013 381.207 297.639 381.44L297.636 381.441ZM259.304 401.532C259.562 401.409 259.803 401.249 260.014 401.054L301.919 439.224L282.376 458.283C282.129 458.071 281.842 457.895 281.519 457.774C280.937 457.555 280.327 457.538 279.768 457.688L259.304 401.532ZM281.845 463.043C282.454 462.726 282.951 462.193 283.212 461.5C283.26 461.375 283.293 461.247 283.322 461.118L330.277 467.218C330.252 467.875 330.454 468.513 330.835 469.036L298.639 497.611C298.357 497.329 298.012 497.098 297.613 496.95C296.99 496.717 296.34 496.713 295.75 496.897L281.843 463.045L281.845 463.043ZM296.591 502.547C297.039 502.548 297.478 502.444 297.872 502.249L329.733 548.214L293.366 570.516C293.05 570.106 292.62 569.773 292.098 569.579C291.901 569.506 291.705 569.456 291.505 569.427L296.587 502.543L296.591 502.547ZM288.894 574.182C289.2 574.537 289.597 574.822 290.066 575C290.544 575.179 291.036 575.223 291.507 575.151L296.192 592.979L252.243 602.451C252.177 602.165 252.07 601.889 251.922 601.637L288.894 574.182ZM242.434 663.619C242.518 663.479 242.589 663.331 242.649 663.173C242.79 662.801 242.848 662.418 242.834 662.042L269.368 657.156L279.224 682.927C278.868 683.142 278.557 683.436 278.32 683.795L242.436 663.617L242.434 663.619Z" fill="#F5C07A"/>
<path d="M193.92 335.5L180.71 329.039C164.214 320.967 145.111 330.832 139.932 350.099C139.932 350.099 106.588 409.44 116.691 412.562C126.794 415.683 151.092 412.562 151.092 412.562L145.814 459.637H298.166L287.713 351.743C285.567 331.06 265.511 319.211 248.99 328.867L238.675 334.901L193.916 335.505L193.92 335.5Z" fill="#854747"/>
<path d="M115.24 300.488L107.161 293.539C104.234 291.023 99.8425 291.268 97.2173 294.096C94.5608 296.956 94.6754 301.42 97.4829 304.139L105.135 311.556C108.067 314.4 112.74 314.369 115.636 311.494C118.74 308.41 118.558 303.342 115.24 300.488Z" fill="#FFBE97"/>
<path d="M323.602 368.229L354.855 360.655C358.022 360.176 360.23 357.254 359.814 354.076C359.366 350.675 356.115 348.378 352.761 349.086L321.597 357.15L323.602 368.229Z" fill="#FFBE97"/>
<path d="M326.598 300.488L334.676 293.539C337.604 291.023 341.995 291.268 344.62 294.096C347.277 296.956 347.162 301.42 344.354 304.139L336.703 311.556C333.77 314.4 329.098 314.369 326.202 311.494C323.097 308.41 323.28 303.342 326.598 300.488Z" fill="#FFBE97"/>
<path d="M273.046 279.001C273.046 279.001 249.82 326.053 221.703 325.771C193.586 325.49 173.48 301.42 171.323 272.178C170.256 257.682 174.865 240.639 181.392 234.013C188.841 226.46 204.811 219.407 219.062 217.86C239.496 215.647 254.477 231.565 254.477 231.565C254.477 231.565 268.587 235.586 274.406 250.4C278.224 260.125 273.046 279.001 273.046 279.001Z" fill="#4F2B2B"/>
<path d="M262.66 271.781C267.483 283.022 265.561 306.779 255.081 319.697C243.845 333.547 232.433 335.391 218.166 335.391C203.899 335.391 187.325 325.776 180.824 306.915C172.563 282.949 181.037 256.874 203.639 247.17C226.24 237.471 252.664 248.487 262.665 271.781H262.66Z" fill="#FFBE97"/>
<path d="M260.446 288.002C259.498 295.773 258.378 302.487 264.894 303.279C271.411 304.071 279.323 298.336 280.266 290.564C281.214 282.793 276.698 275.844 270.181 275.053C263.665 274.261 261.389 280.23 260.441 288.002H260.446Z" fill="#FFBE97"/>
<path d="M235.985 281.138C235.938 283.294 237.011 285.065 238.387 285.097C239.762 285.128 240.908 283.404 240.955 281.247C241.001 279.091 239.928 277.32 238.553 277.289C237.178 277.257 236.032 278.981 235.985 281.138Z" fill="#4F2B2B"/>
<path d="M202.201 280.95C202.154 283.106 203.227 284.877 204.602 284.908C205.978 284.94 207.124 283.216 207.17 281.059C207.217 278.903 206.144 277.132 204.769 277.1C203.399 277.069 202.248 278.793 202.201 280.95Z" fill="#4F2B2B"/>
<path d="M200.326 298.404C190.872 298.404 183.178 290.711 183.178 281.257C183.178 271.803 190.872 264.109 200.326 264.109C209.78 264.109 217.473 271.803 217.473 281.257C217.473 290.711 209.78 298.404 200.326 298.404ZM200.326 265.489C191.632 265.489 184.559 272.563 184.559 281.257C184.559 289.95 191.632 297.024 200.326 297.024C209.019 297.024 216.093 289.95 216.093 281.257C216.093 272.563 209.019 265.489 200.326 265.489Z" fill="white"/>
<path d="M241.465 298.404C232.011 298.404 224.317 290.711 224.317 281.257C224.317 271.803 232.011 264.109 241.465 264.109C250.919 264.109 258.612 271.803 258.612 281.257C258.612 290.711 250.919 298.404 241.465 298.404ZM241.465 265.489C232.771 265.489 225.698 272.563 225.698 281.257C225.698 289.95 232.771 297.024 241.465 297.024C250.158 297.024 257.232 289.95 257.232 281.257C257.232 272.563 250.158 265.489 241.465 265.489Z" fill="white"/>
<path d="M212.822 290.601L217.603 296.466L222.333 276.938L212.822 290.601Z" fill="#FFBE97"/>
<path d="M182.673 288.403C183.621 296.175 184.777 302.488 178.266 303.285C171.75 304.077 163.838 298.342 162.895 290.57C161.947 282.799 166.463 275.85 172.98 275.058C179.496 274.267 181.73 280.632 182.678 288.408L182.673 288.403Z" fill="#FFBE97"/>
<path d="M226.031 276.664C222.031 275.716 218.666 275.716 215.734 276.648L215.317 275.335C218.494 274.32 222.099 274.32 226.349 275.32L226.031 276.658V276.664Z" fill="white"/>
<path d="M256.295 243.488C256.295 243.488 238.226 260.698 230.168 262.495C222.11 264.292 214.27 262.281 214.27 262.281L218.031 256.484C218.031 256.484 213.156 261.849 207.4 262.714C201.644 263.578 193.716 262.214 193.716 262.214L198.706 255.177C198.706 255.177 189.226 265.62 180.038 263.985C180.038 263.985 198.285 232.945 218.63 233.992C238.976 235.039 256.29 243.488 256.29 243.488H256.295Z" fill="#4F2B2B"/>
<path d="M216.577 297.56C216.368 297.56 216.16 297.467 216.025 297.284L210.972 290.586L220.129 277.428C220.348 277.116 220.775 277.038 221.088 277.256C221.4 277.475 221.478 277.902 221.26 278.215L212.67 290.555L217.124 296.456C217.353 296.758 217.29 297.191 216.988 297.42C216.863 297.514 216.717 297.56 216.577 297.56Z" fill="#4F2B2B"/>
<path d="M218.349 311.781C217.208 311.781 216.494 311.677 216.468 311.672C216.093 311.615 215.838 311.26 215.895 310.885C215.953 310.51 216.302 310.255 216.682 310.312C217.109 310.38 227.146 311.828 232.24 302.411C232.423 302.077 232.84 301.952 233.173 302.135C233.506 302.317 233.631 302.734 233.449 303.067C229.261 310.807 221.818 311.781 218.349 311.781Z" fill="#4F2B2B"/>
<path d="M264.775 291.315C264.702 291.315 264.624 291.305 264.551 291.279C264.191 291.154 263.999 290.763 264.124 290.404C264.15 290.336 266.598 283.445 272.994 283.997C273.374 284.028 273.65 284.362 273.619 284.742C273.588 285.122 273.26 285.403 272.874 285.367C267.551 284.903 265.509 290.607 265.426 290.852C265.327 291.138 265.061 291.315 264.775 291.315Z" fill="#4F2B2B"/>
<path d="M177.167 291.315C176.881 291.315 176.615 291.138 176.516 290.852C176.433 290.607 174.386 284.909 169.068 285.367C168.682 285.403 168.354 285.122 168.323 284.742C168.291 284.362 168.568 284.028 168.948 283.997C175.36 283.445 177.792 290.336 177.818 290.404C177.943 290.763 177.751 291.154 177.391 291.279C177.318 291.305 177.24 291.315 177.167 291.315Z" fill="#4F2B2B"/>
<path d="M324.754 270.537C324.754 270.537 272.999 277.251 249.648 283.246C226.297 289.242 220.463 300.284 220.463 300.284C220.463 300.284 214.629 289.242 191.278 283.246C167.927 277.251 116.172 270.537 116.172 270.537L100.077 273.777L220.463 317.64L340.849 273.777L324.754 270.537Z" fill="#FFF4E9"/>
<path d="M212.025 437.031L111.594 399.663L96.2588 270.537L212.025 306.561V437.031Z" fill="#3F97B1"/>
<path d="M228.907 437.031L331.286 401.83L344.673 270.537L228.907 306.561V437.031Z" fill="#3F97B1"/>
<path d="M228.907 437.031C223.281 439.625 217.656 439.625 212.03 437.031V306.561C217.656 309.473 223.281 309.473 228.907 306.561V437.031Z" fill="#3F97B1"/>
<path d="M221.593 316.983C218.764 317.717 217.025 321.108 218.202 323.817C219.348 326.468 222.9 327.546 225.364 326.109C225.677 325.926 225.76 325.53 225.598 325.218C224.781 323.66 222.463 324.108 221.171 324.676C219.634 325.348 218.488 326.702 218.332 328.406C218.192 329.932 218.947 331.51 220.421 332.078C221.791 332.604 223.437 332.182 224.239 330.916C224.505 330.494 224.156 329.937 223.676 329.937C221.009 329.947 218.155 331.385 217.483 334.151C216.874 336.667 218.301 339.339 221.02 339.521C222.327 339.61 223.614 339.037 224.322 337.922C224.525 337.599 224.348 337.031 223.932 336.969C220.754 336.479 217.728 338.948 217.936 342.251C218.03 343.782 218.785 345.381 220.166 346.162C221.484 346.907 223.452 346.506 223.801 344.85C223.869 344.537 223.713 344.105 223.348 344.053C220.41 343.6 217.874 346.079 218.436 349.043C218.692 350.397 219.723 351.814 221.161 352.022C222.583 352.225 223.791 350.871 223.182 349.512C223.062 349.251 222.702 349.147 222.447 349.215C220.421 349.725 218.744 351.251 218.051 353.226C217.316 355.32 217.879 357.679 219.306 359.336C219.853 359.971 220.77 359.049 220.223 358.419C219.093 357.106 218.723 355.21 219.301 353.575C219.848 352.028 221.218 350.871 222.791 350.475C222.546 350.376 222.301 350.277 222.056 350.178C222.176 350.444 221.791 350.72 221.577 350.757C221.129 350.835 220.666 350.481 220.384 350.173C219.832 349.569 219.593 348.736 219.65 347.928C219.77 346.293 221.385 345.063 222.999 345.313C222.848 345.048 222.697 344.782 222.546 344.516C222.291 345.73 220.832 345.204 220.244 344.6C219.483 343.824 219.16 342.699 219.244 341.631C219.405 339.5 221.494 337.912 223.593 338.235C223.463 337.917 223.333 337.599 223.202 337.281C222.661 338.136 221.551 338.401 220.608 338.172C219.473 337.891 218.765 336.912 218.65 335.766C218.369 332.911 221.145 331.265 223.682 331.255C223.494 330.927 223.307 330.604 223.119 330.276C222.65 331.015 221.624 331.177 220.848 330.869C219.89 330.484 219.52 329.38 219.634 328.421C219.765 327.307 220.556 326.442 221.53 325.952C222.181 325.629 224.015 324.994 224.479 325.89C224.557 325.593 224.635 325.296 224.713 324.999C222.905 326.051 220.223 325.259 219.384 323.296C218.525 321.29 219.89 318.78 221.947 318.248C222.754 318.04 222.411 316.785 221.603 316.993L221.593 316.983Z" fill="#4F2B2B"/>
<path d="M303.355 311.842C303.345 314.004 301.131 316.004 298.944 315.53C296.912 315.087 295.563 312.79 296.131 310.811C295.865 310.962 295.599 311.113 295.334 311.264C296.266 311.483 296.146 313.295 296.027 313.983C295.829 315.082 295.209 316.103 294.151 316.556C293.276 316.931 292.099 316.884 291.464 316.098C290.917 315.421 290.792 314.332 291.417 313.665C291.057 313.571 290.693 313.472 290.328 313.379C290.943 315.837 290 318.994 287.135 319.364C286.01 319.509 284.921 319.061 284.38 318.046C283.921 317.186 283.916 316.046 284.609 315.311C284.27 315.269 283.927 315.223 283.588 315.181C284.432 317.176 283.343 319.608 281.28 320.259C280.312 320.567 279.213 320.525 278.311 320.03C277.561 319.619 276.598 318.306 277.759 317.738C277.462 317.66 277.166 317.582 276.869 317.504C277.509 319.009 276.707 320.885 275.144 321.395C274.379 321.645 273.514 321.619 272.795 321.234C272.446 321.046 272.077 320.749 271.967 320.348C271.899 320.108 272.03 319.556 272.389 319.614C272.228 319.405 272.071 319.197 271.91 318.989C271.91 320.608 271.123 322.213 269.764 323.124C268.316 324.093 266.394 324.197 264.841 323.426C264.097 323.057 263.435 324.177 264.185 324.546C266.144 325.52 268.576 325.474 270.42 324.244C272.165 323.083 273.212 321.077 273.207 318.989C273.207 318.728 273.009 318.41 272.728 318.363C271.238 318.113 270.233 319.671 270.826 320.999C271.41 322.312 273.014 322.937 274.379 322.853C277.389 322.661 279.145 319.582 277.983 316.853C277.837 316.514 277.374 316.483 277.093 316.619C275.608 317.348 275.671 319.306 276.671 320.405C277.738 321.577 279.489 321.932 280.999 321.666C284.291 321.088 285.968 317.52 284.703 314.53C284.541 314.144 283.942 314.124 283.682 314.4C282.64 315.504 282.525 317.119 283.135 318.468C283.791 319.91 285.26 320.744 286.833 320.692C288.51 320.635 290.068 319.702 290.943 318.275C291.896 316.717 292.016 314.78 291.578 313.04C291.464 312.571 290.823 312.399 290.49 312.754C289.474 313.832 289.464 315.525 290.302 316.723C291.24 318.056 293.021 318.384 294.49 317.822C296.11 317.202 297.089 315.697 297.324 314.014C297.511 312.634 297.334 310.42 295.672 310.024C295.329 309.941 294.974 310.128 294.875 310.477C294.11 313.16 295.948 316.311 298.735 316.827C301.704 317.379 304.637 314.848 304.652 311.858C304.652 311.019 303.355 311.019 303.35 311.858L303.355 311.842Z" fill="#4F2B2B"/>
<path d="M230.933 435.344C230.552 435.344 230.245 435.036 230.245 434.656V310.712C230.245 310.332 230.552 310.025 230.933 310.025C231.313 310.025 231.62 310.332 231.62 310.712V434.656C231.62 435.036 231.313 435.344 230.933 435.344Z" fill="white"/>
<path d="M209.999 435.344C209.618 435.344 209.311 435.036 209.311 434.656V310.712C209.311 310.332 209.618 310.025 209.999 310.025C210.379 310.025 210.686 310.332 210.686 310.712V434.656C210.686 435.036 210.379 435.344 209.999 435.344Z" fill="white"/>
<path d="M220.463 309.358C215.483 309.358 212.306 307.54 211.733 307.186L96.0506 271.188C95.686 271.073 95.4828 270.688 95.5974 270.328C95.712 269.964 96.0975 269.766 96.4569 269.875L212.228 305.899C212.29 305.92 212.348 305.946 212.405 305.982C212.436 306.003 215.499 307.977 220.463 307.977C225.427 307.977 228.49 305.998 228.521 305.977C228.573 305.941 228.636 305.915 228.698 305.894L344.469 269.87C344.829 269.76 345.219 269.958 345.329 270.323C345.443 270.688 345.24 271.073 344.875 271.182L229.193 307.18C228.62 307.535 225.443 309.353 220.463 309.353V309.358Z" fill="white"/>
<path d="M222.333 303.082C222.245 303.082 222.161 303.05 222.093 302.983C221.958 302.847 221.953 302.634 222.088 302.498C222.177 302.404 231.376 293.096 246.424 288.653C260.311 284.554 328.16 271.506 328.843 271.376C329.03 271.339 329.207 271.464 329.244 271.646C329.28 271.834 329.155 272.011 328.973 272.047C328.291 272.178 260.472 285.221 246.617 289.309C231.751 293.695 222.666 302.878 222.578 302.972C222.51 303.04 222.422 303.076 222.333 303.076V303.082Z" fill="white"/>
<path d="M223.484 306.269C223.38 306.269 223.276 306.223 223.208 306.129C223.094 305.978 223.125 305.759 223.276 305.65C223.37 305.577 232.897 298.555 250.268 293.753C264.212 289.903 330.52 272.287 331.192 272.11C331.374 272.058 331.562 272.173 331.614 272.355C331.661 272.537 331.552 272.725 331.369 272.777C330.703 272.954 264.394 290.57 250.456 294.419C233.22 299.18 223.781 306.134 223.688 306.202C223.625 306.249 223.552 306.269 223.484 306.269Z" fill="white"/>
<path d="M218.166 303.081C218.078 303.081 217.989 303.044 217.922 302.977C217.833 302.883 208.749 293.7 193.883 289.314C180.027 285.225 112.209 272.182 111.526 272.052C111.339 272.015 111.219 271.833 111.256 271.651C111.292 271.463 111.474 271.344 111.657 271.38C112.339 271.51 180.189 284.558 194.076 288.658C209.124 293.101 218.323 302.409 218.411 302.503C218.541 302.638 218.541 302.857 218.406 302.987C218.338 303.055 218.255 303.086 218.166 303.086V303.081Z" fill="white"/>
<path d="M217.015 306.269C216.942 306.269 216.869 306.249 216.812 306.202C216.718 306.134 207.285 299.18 190.044 294.419C176.105 290.57 109.797 272.954 109.13 272.777C108.948 272.73 108.838 272.537 108.885 272.355C108.932 272.173 109.125 272.058 109.307 272.11C109.974 272.287 176.287 289.903 190.231 293.753C207.603 298.55 217.13 305.577 217.223 305.65C217.374 305.764 217.406 305.978 217.291 306.129C217.223 306.217 217.119 306.269 217.015 306.269Z" fill="white"/>
<path d="M336.671 309.056L326.561 312.42C322.899 313.639 320.857 317.535 321.936 321.239C323.024 324.989 326.915 327.177 330.686 326.166L340.979 323.411C344.927 322.354 347.297 318.332 346.318 314.369C345.266 310.123 340.823 307.675 336.671 309.056Z" fill="#FFBE97"/>
<path d="M336.619 324.391L326.509 327.756C322.847 328.975 320.805 332.871 321.883 336.575C322.972 340.325 326.863 342.513 330.634 341.502L340.927 338.747C344.875 337.689 347.245 333.668 346.266 329.704C345.214 325.459 340.771 323.011 336.619 324.391Z" fill="#FFBE97"/>
<path d="M336.505 339.074L327.364 342.116C324.056 343.22 322.207 346.741 323.181 350.091C324.165 353.482 327.681 355.461 331.093 354.549L340.401 352.054C343.969 351.096 346.115 347.46 345.225 343.877C344.271 340.038 340.255 337.824 336.505 339.074Z" fill="#FFBE97"/>
<path d="M328.181 327.469C327.863 327.469 327.576 327.251 327.509 326.928C327.431 326.558 327.665 326.188 328.035 326.11L340.833 323.334C341.203 323.256 341.572 323.49 341.651 323.86C341.729 324.23 341.494 324.599 341.124 324.678L328.326 327.454C328.28 327.464 328.227 327.469 328.181 327.469Z" fill="#4F2B2B"/>
<path d="M327.639 342.439C327.321 342.439 327.035 342.221 326.967 341.898C326.889 341.528 327.123 341.158 327.493 341.08L340.291 338.303C340.661 338.22 341.031 338.46 341.109 338.83C341.187 339.199 340.953 339.569 340.583 339.647L327.785 342.424C327.738 342.434 327.686 342.439 327.639 342.439Z" fill="#4F2B2B"/>
<path d="M333.656 355.003C333.364 355.003 333.098 354.821 332.999 354.529C332.88 354.17 333.077 353.779 333.437 353.659L342.209 350.774C342.568 350.654 342.959 350.852 343.078 351.211C343.198 351.571 343 351.961 342.641 352.081L333.869 354.967C333.796 354.993 333.723 355.003 333.656 355.003Z" fill="#4F2B2B"/>
<path d="M105.166 309.056L115.276 312.42C118.938 313.639 120.98 317.535 119.902 321.239C118.813 324.989 114.922 327.177 111.151 326.166L100.858 323.411C96.91 322.354 94.5399 318.332 95.5192 314.369C96.5714 310.123 101.014 307.675 105.166 309.056Z" fill="#FFBE97"/>
<path d="M105.218 324.391L115.328 327.756C118.99 328.975 121.032 332.871 119.954 336.575C118.865 340.325 114.974 342.513 111.203 341.502L100.91 338.747C96.962 337.689 94.5919 333.668 95.5712 329.704C96.6234 325.459 101.066 323.011 105.218 324.391Z" fill="#FFBE97"/>
<path d="M105.332 339.074L114.474 342.116C117.781 343.22 119.63 346.741 118.656 350.091C117.672 353.482 114.156 355.461 110.744 354.549L101.436 352.054C97.8681 351.096 95.722 347.46 96.6127 343.877C97.5659 340.038 101.582 337.824 105.332 339.074Z" fill="#FFBE97"/>
<path d="M103.754 352.394L111.406 354.941C114.177 355.863 115.724 358.811 114.906 361.613C114.078 364.452 111.135 366.108 108.28 365.343L100.488 363.254C97.5034 362.452 95.7063 359.41 96.4512 356.41C97.2481 353.196 100.613 351.347 103.754 352.388V352.394Z" fill="#FFBE97"/>
<path d="M113.656 327.469C113.61 327.469 113.558 327.469 113.511 327.453L100.713 324.677C100.343 324.599 100.103 324.229 100.186 323.859C100.265 323.489 100.634 323.25 101.004 323.333L113.802 326.109C114.172 326.188 114.412 326.557 114.328 326.927C114.261 327.25 113.974 327.469 113.656 327.469Z" fill="#4F2B2B"/>
<path d="M114.193 342.439C114.146 342.439 114.094 342.439 114.047 342.424L101.249 339.647C100.879 339.569 100.64 339.199 100.723 338.83C100.801 338.46 101.171 338.22 101.541 338.303L114.339 341.08C114.709 341.158 114.948 341.528 114.865 341.898C114.797 342.221 114.511 342.439 114.193 342.439Z" fill="#4F2B2B"/>
<path d="M108.182 355.003C108.109 355.003 108.036 354.993 107.969 354.967L99.1969 352.081C98.8375 351.961 98.6396 351.571 98.7594 351.211C98.8792 350.852 99.2646 350.654 99.6292 350.774L108.401 353.659C108.76 353.779 108.958 354.17 108.838 354.529C108.745 354.821 108.474 355.003 108.182 355.003Z" fill="#4F2B2B"/>
<path d="M222.521 189.613C249.2 189.613 270.827 167.985 270.827 141.306C270.827 114.628 249.2 93 222.521 93C195.842 93 174.214 114.628 174.214 141.306C174.214 167.985 195.842 189.613 222.521 189.613Z" fill="#E95D9A"/>
<path d="M242.321 159.886C253.226 148.981 253.226 131.3 242.321 120.395C231.415 109.49 213.735 109.49 202.83 120.395C191.924 131.3 191.924 148.981 202.83 159.886C213.735 170.792 231.415 170.792 242.321 159.886Z" fill="#FBE4C6"/>
<path d="M194.283 143.869C192.981 144.671 191.783 145.656 190.778 146.812C189.83 147.901 189.027 149.208 189.335 150.714C189.626 152.13 190.934 153.052 192.252 153.422C193.736 153.839 195.377 153.766 196.898 153.625C200.388 153.313 203.841 152.401 207.211 151.469C210.686 150.511 214.097 149.349 217.525 148.239C223.624 146.271 229.776 144.458 235.693 141.978C238.667 140.734 241.631 139.411 244.522 137.978C246.991 136.754 249.439 135.358 251.439 133.431C252.919 132.009 254.981 129.67 253.924 127.472C253.049 125.654 250.622 125.071 248.793 124.925C248.272 124.883 247.746 124.888 247.225 124.925C246.397 124.993 246.392 126.29 247.225 126.227C248.866 126.097 251.07 126.274 252.33 127.477C253.861 128.936 251.955 131.04 250.892 132.144C249.163 133.936 246.996 135.238 244.803 136.379C242.215 137.723 239.532 138.9 236.865 140.072C231.469 142.447 225.864 144.229 220.254 146.005C214.087 147.958 207.987 150.089 201.669 151.516C199.867 151.922 198.044 152.266 196.2 152.375C194.757 152.459 193.028 152.558 191.726 151.802C188.345 149.854 193.2 146.062 194.95 144.984C195.658 144.546 195.007 143.421 194.294 143.864L194.283 143.869Z" fill="#4F2B2B"/>
<path d="M237.983 129.591C238.764 126.279 236.713 122.96 233.401 122.179C230.089 121.397 226.77 123.448 225.988 126.76C225.206 130.073 227.258 133.391 230.57 134.173C233.882 134.955 237.201 132.904 237.983 129.591Z" fill="#854747"/>
<path d="M220.916 136.837C220.916 138.509 219.562 139.863 217.89 139.863C216.218 139.863 214.864 138.509 214.864 136.837C214.864 135.165 216.218 133.81 217.89 133.81C219.562 133.81 220.916 135.165 220.916 136.837Z" fill="#854747"/>
<path d="M242.111 148.202C242.111 149.874 240.757 151.229 239.085 151.229C237.413 151.229 236.059 149.874 236.059 148.202C236.059 146.53 237.413 145.176 239.085 145.176C240.757 145.176 242.111 146.53 242.111 148.202Z" fill="#854747"/>
<path d="M102.306 244.023C128.985 244.023 150.613 222.396 150.613 195.717C150.613 169.038 128.985 147.41 102.306 147.41C75.6276 147.41 54 169.038 54 195.717C54 222.396 75.6276 244.023 102.306 244.023Z" fill="#F8D2A0"/>
<path d="M82.8257 190.951C81.31 190.055 79.539 189.649 77.6377 189.998C76.1793 190.264 74.8198 191.061 73.6686 191.972C70.7621 194.28 69.387 198.4 70.4652 201.947C71.5434 205.494 75.1011 208.177 78.8097 208.093C80.0182 208.067 81.211 207.771 82.3413 207.333C84.2113 206.609 85.9927 205.427 86.925 203.65C87.5397 202.484 87.7428 201.135 87.7533 199.817C87.7741 196.332 85.7999 192.701 82.8309 190.946L82.8257 190.951Z" fill="#6A3939"/>
<path d="M75.5336 198.484C75.5284 198.411 75.518 198.333 75.5075 198.26C75.4867 198.161 75.4502 198.062 75.4086 197.974C75.3461 197.838 75.2575 197.708 75.1533 197.614C75.0127 197.489 74.8669 197.369 74.6845 197.333C74.5231 197.302 74.4397 197.302 74.2783 197.333C74.1897 197.348 74.1064 197.395 74.0282 197.442C73.9657 197.479 73.9084 197.546 73.8616 197.619C73.8407 197.64 73.8095 197.661 73.7886 197.687C73.674 197.833 73.5646 198.02 73.5334 198.218C73.5021 198.411 73.4917 198.609 73.5542 198.797C73.6115 198.974 73.6845 199.135 73.8095 199.26C73.9449 199.401 74.0595 199.468 74.2262 199.547C74.3356 199.593 74.4554 199.614 74.57 199.614C74.7418 199.62 74.8877 199.567 75.0387 199.489C75.1898 199.411 75.294 199.271 75.3877 199.125C75.4867 198.968 75.5284 198.76 75.5336 198.567C75.5336 198.541 75.5336 198.52 75.5336 198.494V198.484ZM74.5335 198.588C74.5335 198.588 74.5179 198.588 74.5127 198.588C74.5335 198.578 74.5543 198.578 74.5752 198.562C74.5595 198.567 74.5491 198.578 74.5335 198.583V198.588Z" fill="white"/>
<path d="M82.7218 197.108C82.7166 197.035 82.7062 196.957 82.6958 196.884C82.6749 196.785 82.6385 196.686 82.5968 196.598C82.5343 196.462 82.4457 196.332 82.3416 196.238C82.2009 196.113 82.0551 195.993 81.8728 195.957C81.7113 195.926 81.628 195.926 81.4665 195.957C81.3779 195.973 81.2946 196.019 81.2165 196.066C81.154 196.103 81.0967 196.171 81.0498 196.243C81.0289 196.264 80.9977 196.285 80.9769 196.311C80.8623 196.457 80.7529 196.645 80.7216 196.842C80.6904 197.035 80.68 197.233 80.7425 197.421C80.7998 197.598 80.8727 197.759 80.9977 197.884C81.1331 198.025 81.2477 198.093 81.4144 198.171C81.5238 198.218 81.6436 198.238 81.7582 198.238C81.9301 198.244 82.0759 198.192 82.227 198.113C82.378 198.035 82.4822 197.9 82.576 197.749C82.6749 197.593 82.7166 197.384 82.7218 197.191C82.7218 197.165 82.7218 197.145 82.7218 197.119V197.108ZM81.7217 197.212C81.7217 197.212 81.7061 197.212 81.7009 197.212C81.7217 197.202 81.7426 197.202 81.7634 197.186C81.7478 197.191 81.7373 197.202 81.7217 197.207V197.212Z" fill="white"/>
<path d="M76.143 203.261C77.2369 203.797 78.4922 203.953 79.6694 203.61C80.7632 203.292 81.6852 202.594 82.3363 201.667C82.5395 201.38 82.3884 200.943 82.1019 200.776C81.779 200.588 81.4143 200.719 81.2112 201.01C80.2372 202.401 78.3255 202.886 76.7993 202.135C76.4868 201.979 76.0962 202.052 75.9086 202.37C75.742 202.656 75.8253 203.104 76.143 203.261Z" fill="white"/>
<path d="M96.8166 197.926C93.2798 196.405 89.0659 196.832 85.6749 198.661C85.6749 198.661 84.3779 203.088 84.9301 204.911C85.4822 206.734 86.7531 208.261 88.1751 209.521C89.7586 210.927 91.5973 212.089 93.6392 212.662C95.681 213.235 97.9312 213.188 99.8481 212.287C100.614 211.928 101.327 211.427 101.864 210.771C102.734 209.698 103.067 208.271 103.057 206.891C103.025 203.041 100.353 199.452 96.8166 197.931V197.926Z" fill="#6A3939"/>
<path d="M113.36 191.056C118.392 198.832 122.751 207.198 125.012 216.146C129.054 215.297 132.935 213.662 136.362 211.354C134.56 202.213 130.195 193.462 124.35 186.289C120.387 186.977 116.678 188.743 113.36 191.061V191.056Z" fill="#BF8888"/>
<path d="M139.607 190.372C135.763 186.716 130.059 185.413 124.814 186.205C124.658 186.226 124.507 186.257 124.355 186.283C130.205 193.456 134.565 202.207 136.367 211.348C136.773 211.072 137.18 210.796 137.57 210.504C139.602 208.988 141.487 207.186 142.623 204.92C144.998 200.175 143.451 194.029 139.607 190.372Z" fill="#6A3939"/>
<path d="M110.688 193.102C105.786 197.207 100.588 202.087 99.9629 208.447L100.442 211.14C105.906 215.161 111.803 216.849 118.584 216.834C120.746 216.828 122.902 216.594 125.012 216.146C122.751 207.197 118.386 198.837 113.36 191.055C112.438 191.701 111.547 192.383 110.688 193.102Z" fill="#6A3939"/>
<path d="M74.0021 192.196C73.101 190.024 72.1061 187.899 70.83 185.919C69.559 183.951 68.0953 182.107 66.7046 180.221C66.4077 179.815 65.8764 179.794 65.5847 180.221C65.1003 180.924 64.6211 181.622 64.1367 182.325C63.6627 183.018 64.7878 183.669 65.2565 182.982C65.741 182.278 66.2202 181.58 66.7046 180.877H65.5847C66.9494 182.726 68.3818 184.539 69.6372 186.466C70.8873 188.383 71.8769 190.435 72.752 192.545C73.0698 193.306 74.3251 192.972 74.0073 192.201L74.0021 192.196Z" fill="#6A3939"/>
<path d="M81.4718 193.087C81.576 189.805 81.4926 186.519 80.9509 183.274C80.404 180.034 79.3726 176.919 78.1277 173.887C77.961 173.486 77.3933 173.184 77.0391 173.601C76.5026 174.247 75.9609 174.887 75.4244 175.533C74.8931 176.169 75.8046 177.096 76.3411 176.45C76.8776 175.809 77.4193 175.163 77.9558 174.517C77.5912 174.424 77.2318 174.325 76.8672 174.231C78.0913 177.21 79.1122 180.273 79.6643 183.456C80.2165 186.633 80.2686 189.868 80.1696 193.087C80.1435 193.926 81.4405 193.92 81.4718 193.087Z" fill="#6A3939"/>
<path d="M87.686 206.615C85.1701 213.194 83.8784 220.21 83.8836 227.252C83.8836 228.091 85.1858 228.091 85.1858 227.252C85.1858 220.32 86.4619 213.434 88.9413 206.959C89.2382 206.178 87.9829 205.839 87.686 206.615Z" fill="#6A3939"/>
<path d="M93.8011 209.193C92.2384 215.251 91.7176 221.559 92.2801 227.794C92.353 228.622 93.6552 228.627 93.5823 227.794C93.0302 221.668 93.525 215.496 95.0564 209.542C95.2648 208.73 94.0094 208.386 93.8011 209.198V209.193Z" fill="#6A3939"/>
<path d="M100.146 208.823C100.234 215.23 100.625 221.642 101.26 228.018C101.344 228.841 102.641 228.851 102.562 228.018C101.927 221.642 101.536 215.23 101.448 208.823C101.437 207.99 100.135 207.985 100.146 208.823Z" fill="#6A3939"/>
<path d="M106.849 210.469C108.354 215.866 109.349 221.398 109.813 226.981C109.881 227.81 111.183 227.815 111.115 226.981C110.646 221.283 109.641 215.637 108.11 210.126C107.886 209.324 106.63 209.662 106.854 210.469H106.849Z" fill="#6A3939"/>
<path d="M372.333 227.73C391.198 208.865 391.198 178.279 372.333 159.414C353.468 140.549 322.882 140.549 304.017 159.414C285.152 178.279 285.152 208.865 304.017 227.73C322.882 246.595 353.468 246.595 372.333 227.73Z" fill="#F2AE54"/>
<path d="M313.497 175.379C314.779 178.092 316.06 180.806 317.341 183.52C319.368 187.807 321.394 192.094 323.42 196.381L324.826 199.355C325.269 200.287 326.66 200.579 327.493 200.053C328.551 199.386 329.613 198.725 330.671 198.058C333.197 196.469 335.723 194.886 338.255 193.297C341.328 191.365 344.401 189.437 347.474 187.505C350.131 185.833 352.792 184.166 355.449 182.494C356.736 181.687 358.079 180.931 359.324 180.061C359.34 180.051 359.361 180.041 359.376 180.025C358.397 179.462 357.423 178.905 356.444 178.343C356.798 181.442 357.1 184.546 357.381 187.651C357.949 193.896 358.428 200.157 358.642 206.428C358.751 209.616 358.803 212.82 358.616 216.007C358.553 217.028 359.554 218.002 360.564 217.956C361.674 217.903 362.45 217.096 362.512 216.007C362.866 210.002 362.497 203.939 362.101 197.943C361.736 192.49 361.257 187.046 360.694 181.614C360.58 180.525 360.465 179.431 360.345 178.343C360.267 177.639 360.022 177.035 359.382 176.66C358.793 176.316 358.001 176.29 357.413 176.66C356.355 177.327 355.293 177.988 354.235 178.655C351.709 180.244 349.183 181.827 346.651 183.416C343.578 185.348 340.505 187.276 337.432 189.208C334.775 190.88 332.114 192.547 329.457 194.219C328.17 195.026 326.827 195.782 325.582 196.651C325.566 196.662 325.545 196.672 325.53 196.688C326.42 196.922 327.306 197.157 328.196 197.386C326.915 194.672 325.634 191.958 324.352 189.245C322.326 184.958 320.3 180.671 318.274 176.384C317.805 175.394 317.336 174.399 316.867 173.41C316.43 172.483 315.034 172.175 314.2 172.712C313.247 173.326 313.034 174.389 313.502 175.379H313.497Z" fill="#F7FDFE"/>
<path d="M316.107 179.661C319.818 179.661 322.826 176.652 322.826 172.941C322.826 169.23 319.818 166.222 316.107 166.222C312.396 166.222 309.387 169.23 309.387 172.941C309.387 176.652 312.396 179.661 316.107 179.661Z" fill="#6A3939"/>
<path d="M333.173 199.508C334.025 195.896 331.788 192.277 328.176 191.425C324.565 190.572 320.946 192.809 320.093 196.421C319.241 200.033 321.478 203.651 325.089 204.504C328.701 205.356 332.32 203.12 333.173 199.508Z" fill="#6A3939"/>
<path d="M365.433 178.768C366.028 175.105 363.54 171.653 359.877 171.058C356.214 170.464 352.763 172.951 352.168 176.614C351.573 180.277 354.061 183.729 357.724 184.324C361.387 184.918 364.838 182.431 365.433 178.768Z" fill="#6A3939"/>
<path d="M365.909 221.697C368.533 219.073 368.533 214.819 365.909 212.195C363.285 209.57 359.03 209.57 356.406 212.195C353.782 214.819 353.782 219.073 356.406 221.697C359.03 224.321 363.285 224.321 365.909 221.697Z" fill="#6A3939"/>
</g>
<defs>
<clipPath id="clip0_760_13362">
<rect width="460" height="460" fill="white"/>
</clipPath>
</defs>
</svg>
