<svg width="460" height="460" viewBox="0 0 460 460" fill="none" xmlns="http://www.w3.org/2000/svg">
<g clip-path="url(#clip0_760_10952)">
<rect width="460" height="460" fill="white"/>
<path d="M435.379 -28.3013C434.584 -27.0601 434.701 -25.4991 435.554 -24.3949L377.85 29.2152C377.716 29.095 377.572 28.9823 377.417 28.8813C375.832 27.8703 373.731 28.3334 372.718 29.9156C371.705 31.4978 372.17 33.6019 373.752 34.6147C374.005 34.7763 374.272 34.8971 374.545 34.9854L365.09 77.7073C363.826 77.5499 362.529 78.1044 361.799 79.248C360.786 80.8302 361.251 82.9342 362.833 83.9471C363.534 84.3931 364.336 84.5516 365.1 84.4545L375.616 131.351C374.891 131.587 374.239 132.064 373.795 132.756C373.316 133.508 373.172 134.373 373.316 135.185L263.825 165.388C263.577 164.726 263.12 164.134 262.479 163.723C260.897 162.71 258.792 163.175 257.78 164.757C256.767 166.339 257.232 168.443 258.814 169.456C259.276 169.75 259.78 169.915 260.289 169.968L258.548 307.269C257.01 306.499 255.107 307 254.16 308.48C253.147 310.063 253.612 312.167 255.194 313.179C255.339 313.272 255.487 313.347 255.641 313.414L239.408 361.219C238.036 360.892 236.551 361.439 235.75 362.693C235.346 363.324 235.182 364.037 235.224 364.732L172.115 374.472L172.377 373.652L171.506 374.569L171.126 374.628L171.26 374.829L96.6518 453.252C96.5636 453.184 96.4729 453.118 96.3771 453.056C94.7949 452.043 92.6909 452.508 91.678 454.09C90.6652 455.672 91.1301 457.776 92.7123 458.789C94.2945 459.802 96.3986 459.337 97.4114 457.755C97.7878 457.167 97.9581 456.504 97.9441 455.854L146.287 450.379C146.359 450.435 146.433 450.49 146.513 450.541C146.907 450.794 147.336 450.952 147.771 451.028L141.388 533.34C140.283 533.359 139.211 533.909 138.571 534.909C137.559 536.491 138.023 538.595 139.606 539.608C141.188 540.621 143.292 540.156 144.305 538.574C144.705 537.949 144.872 537.238 144.83 536.55L201.447 528.053C201.648 528.87 202.148 529.617 202.916 530.107C203.945 530.765 205.19 530.795 206.214 530.308L227.127 565.306C226.794 565.548 226.498 565.852 226.265 566.22C225.252 567.802 225.717 569.906 227.299 570.919C228.881 571.932 230.985 571.467 231.998 569.885C232.612 568.923 232.679 567.771 232.287 566.787L272.513 546.171C272.77 546.579 273.116 546.937 273.551 547.215C274.972 548.123 276.808 547.841 277.904 546.629L313.702 575.938C312.719 577.518 313.185 579.598 314.758 580.602C316.34 581.615 318.444 581.15 319.457 579.568C319.633 579.292 319.762 579 319.851 578.699L354.05 584.483C353.96 585.689 354.518 586.906 355.611 587.603C355.894 587.785 356.195 587.916 356.503 588.003L346.666 639.807C345.436 639.691 344.186 640.246 343.476 641.359C342.464 642.942 342.929 645.046 344.511 646.059C346.093 647.071 348.197 646.606 349.21 645.024C349.284 644.908 349.346 644.789 349.406 644.668L422.283 671.825C421.904 673.222 422.452 674.761 423.734 675.58C425.316 676.593 427.42 676.128 428.433 674.546C429.446 672.964 428.981 670.86 427.399 669.847C426.948 669.557 426.452 669.393 425.953 669.337L428.418 555.534C429.384 555.41 430.289 554.877 430.854 553.993C431.867 552.41 431.402 550.306 429.82 549.294C428.238 548.281 426.134 548.746 425.121 550.328C425.022 550.485 424.939 550.65 424.866 550.816L386.166 540.554C386.421 539.227 385.869 537.815 384.66 537.044C384.268 536.793 383.842 536.633 383.41 536.558L388.004 441.997C389.072 441.951 390.102 441.401 390.723 440.434C391.735 438.851 391.27 436.747 389.688 435.735C388.106 434.722 386.002 435.187 384.989 436.769C384.756 437.132 384.606 437.524 384.526 437.921L340.994 433.18C341.013 432.041 340.46 430.917 339.426 430.258L339.702 430.408L392.698 332.491C394.201 333.134 395.989 332.619 396.898 331.198C397.367 330.465 397.514 329.621 397.386 328.825L442.467 317.21C442.712 317.894 443.173 318.506 443.835 318.926C445.419 319.937 447.521 319.474 448.534 317.892C449.547 316.31 449.082 314.205 447.499 313.193C446.883 312.798 446.186 312.629 445.505 312.665L435.693 243.044C436.525 242.847 437.281 242.344 437.777 241.569C438.79 239.986 438.325 237.882 436.743 236.869C436.083 236.448 435.336 236.285 434.612 236.352L426.889 193.999C427.668 193.783 428.371 193.291 428.84 192.559C429.853 190.976 429.388 188.872 427.806 187.859C427.638 187.752 427.463 187.666 427.288 187.591L449.501 111.853C450.812 112.081 452.189 111.523 452.951 110.333C453.522 109.436 453.623 108.373 453.313 107.434L502.567 84.8865C502.833 85.3692 503.22 85.7947 503.715 86.1138C505.298 87.1267 507.402 86.6617 508.415 85.0795C509.426 83.4948 508.962 81.3933 507.38 80.3804C507.368 80.3739 507.355 80.3675 507.345 80.3592L522.349 41.4909L530.28 20.9454C531.604 21.191 533.005 20.6393 533.776 19.4348C534.788 17.8526 534.323 15.7486 532.741 14.7357C531.51 13.9493 529.969 14.056 528.866 14.8842L492.448 -17.1647C492.474 -17.2032 492.505 -17.2411 492.532 -17.284C493.545 -18.8661 493.08 -20.9702 491.498 -21.9831C489.915 -22.9959 487.811 -22.5309 486.798 -20.9488C486.559 -20.573 486.403 -20.1682 486.326 -19.7554L441.642 -26.2908C441.703 -27.4728 441.148 -28.6534 440.078 -29.3356C438.496 -30.3485 436.392 -29.8835 435.379 -28.3013ZM527.508 17.6528C527.526 18.7575 528.076 19.8295 529.076 20.4691C529.271 20.5921 529.471 20.6912 529.674 20.7728L520.682 44.069L506.783 80.0767C506.474 79.9558 506.155 79.885 505.833 79.8587L495.925 16.7901L527.505 17.6547L527.508 17.6528ZM431.88 241.28L404.699 258.45L378.215 221.556C378.455 221.346 378.674 221.102 378.854 220.82C378.94 220.688 379.009 220.548 379.074 220.408L431.61 238.91C431.409 239.712 431.509 240.556 431.88 241.28ZM443.438 313.496C443.198 313.705 442.979 313.949 442.8 314.231C442.695 314.397 442.61 314.563 442.538 314.736L361.506 288.935C361.676 288.163 361.569 287.36 361.216 286.665L404.538 259.297L443.44 313.494L443.438 313.496ZM201.067 521.508L239.938 511.365L207.719 525.588C207.455 525.112 207.069 524.694 206.578 524.375C205.469 523.667 204.108 523.685 203.044 524.299L201.067 521.508ZM143.268 533.877C142.872 533.625 142.445 533.465 142.009 533.389L148.397 451.078C148.977 451.068 149.546 450.911 150.048 450.62L200.025 521.127L144.628 535.583C144.382 534.903 143.921 534.295 143.266 533.874L143.268 533.877ZM262.614 169.37C262.929 169.145 263.207 168.866 263.439 168.534L312.352 196.187C311.669 197.7 312.18 199.526 313.622 200.447L298.049 230.683L262.614 169.37ZM486.872 -17.1664C486.914 -17.1079 486.958 -17.0469 487.006 -16.9922L448.185 12.7928C447.991 12.5844 447.773 12.397 447.525 12.2362C446.869 11.8154 446.124 11.6546 445.403 11.7159L443.656 1.96389L486.872 -17.1664ZM393.412 69.9453L383.29 80.6529C383.207 80.5857 383.118 80.5222 383.024 80.4623C382.438 80.0884 381.781 79.917 381.137 79.9273L379.954 69.0393L442.149 18.3935L393.412 69.9453ZM383.746 81.0827L419.143 43.641L443.593 17.779C443.677 17.8462 443.766 17.9098 443.86 17.9696C444.382 18.3043 444.96 18.4745 445.541 18.499L448.606 82.8201L384.58 83.0045C384.511 82.3011 384.227 81.6265 383.751 81.0833L383.746 81.0827ZM444.785 11.8271C444.003 12.0427 443.295 12.5332 442.825 13.2705C442.369 13.9829 442.214 14.8017 442.325 15.5792L378.828 30.6586L443.066 2.22568L444.787 11.8297L444.785 11.8271ZM378.449 33.5823C378.905 32.8699 379.06 32.0511 378.949 31.2736L442.469 16.1889C442.566 16.4718 442.698 16.7446 442.865 16.9959L379.872 68.291L376.26 35.0794C377.131 34.9003 377.932 34.3886 378.447 33.5797L378.449 33.5823ZM375.637 35.1515L379.293 68.766L367.093 78.7014C366.917 78.5228 366.718 78.3565 366.5 78.2162C366.247 78.0547 365.98 77.9338 365.706 77.8454L375.162 35.1236C375.321 35.1442 375.481 35.1561 375.641 35.1522L375.637 35.1515ZM368.062 81.2271C368.091 80.5076 367.896 79.791 367.49 79.1893L379.373 69.5116L380.514 79.9952C379.643 80.1742 378.842 80.6859 378.327 81.4948C378.112 81.8295 377.967 82.1911 377.882 82.5598L368.062 81.2271ZM382.211 86.5732L398.884 126.38L379.747 133.164C379.484 132.594 379.063 132.088 378.494 131.722C378.11 131.477 377.694 131.321 377.272 131.243L381.206 86.7289C381.546 86.7265 381.885 86.6745 382.211 86.5732ZM423.655 188.243C423.451 188.433 423.264 188.651 423.106 188.898C422.797 189.382 422.626 189.91 422.582 190.443L376.506 193.378L376.95 137.98C377.567 137.927 378.162 137.709 378.67 137.339L423.657 188.246L423.655 188.243ZM334.475 434.488L302.029 450.558C301.766 450.104 301.396 449.702 300.922 449.402C300.691 449.255 300.45 449.143 300.201 449.056L301.899 436.063L334.281 433.9C334.327 434.103 334.393 434.3 334.475 434.493L334.475 434.488ZM358.845 581.647C357.853 581.195 356.726 581.257 355.806 581.759L343.136 563.016L380.129 541.974C380.363 542.281 380.653 542.556 380.995 542.777L358.843 581.644L358.845 581.647ZM379.794 541.445L342.782 562.497L303.366 504.185C303.635 503.963 303.877 503.697 304.075 503.387C304.096 503.352 304.115 503.315 304.137 503.28L379.614 538.808C379.313 539.686 379.39 540.636 379.793 541.442L379.794 541.445ZM318.32 199.417C318.406 199.284 318.475 199.149 318.54 199.009L372.691 218.158C372.453 219.096 372.63 220.093 373.167 220.891L340.258 247.774L317.217 200.49C317.648 200.228 318.028 199.87 318.32 199.417ZM373.567 221.377C373.743 221.556 373.938 221.717 374.158 221.86C374.385 222.006 374.624 222.115 374.868 222.201L359.217 284.977C358.919 284.883 358.617 284.83 358.315 284.821L340.546 248.357L373.569 221.38L373.567 221.377ZM357.634 284.861C357.202 284.934 356.785 285.086 356.409 285.317L324.427 268.982L321.329 267.401C321.745 266.365 321.618 265.207 321.03 264.291L340.042 248.758L357.63 284.856L357.634 284.861ZM321.039 267.969C321.039 267.969 321.042 267.967 321.044 267.965L324.13 269.54L355.857 285.744C355.659 285.931 355.477 286.145 355.322 286.386C355.068 286.784 354.907 287.215 354.831 287.651L326.096 294.218L319.401 269.31C320.053 269.058 320.637 268.606 321.041 267.971L321.039 267.969ZM316.652 200.765L339.76 248.183L320.643 263.8C320.456 263.602 320.244 263.422 320.005 263.27C319.507 262.952 318.958 262.78 318.407 262.742L315.902 200.956C316.157 200.922 316.408 200.856 316.652 200.765ZM259.959 308.596L315.657 268.42C315.854 268.638 316.083 268.836 316.34 269.003C317.1 269.487 317.977 269.631 318.797 269.477L325.481 294.355L260.26 309.262C260.184 309.03 260.082 308.809 259.956 308.598L259.959 308.596ZM325.646 294.961L333.426 323.906C332.827 324.167 332.3 324.6 331.923 325.193C331.776 325.423 331.661 325.666 331.577 325.914L288.362 316.688L260.407 310.72C260.441 310.435 260.441 310.152 260.402 309.874L325.646 294.961ZM151.552 446.538L180.02 433.689L197.618 425.748C197.884 426.215 198.259 426.625 198.745 426.936C199.697 427.546 200.834 427.616 201.812 427.235L209.35 442.291L151.689 447.032C151.655 446.863 151.609 446.698 151.554 446.536L151.552 446.538ZM302.305 408.682L255.973 436.967C255.734 436.648 255.438 436.358 255.08 436.133C254.465 435.741 253.773 435.573 253.093 435.605L249.297 416.541L302.067 408.04C302.124 408.262 302.205 408.479 302.304 408.686L302.305 408.682ZM252.47 435.688C251.639 435.885 250.878 436.387 250.381 437.167C250.256 437.363 250.154 437.565 250.073 437.775L203.921 424.694C203.973 424.412 203.986 424.126 203.968 423.844L248.679 416.641L252.472 435.691L252.47 435.688ZM202.374 426.956C202.79 426.696 203.161 426.345 203.444 425.902C203.567 425.708 203.672 425.504 203.751 425.299L220.234 429.978L249.898 438.4C249.864 438.588 249.85 438.776 249.847 438.965L210.022 442.238L202.369 426.955L202.374 426.956ZM249.901 439.59C250.061 440.494 250.58 441.332 251.415 441.867C251.754 442.082 252.116 442.227 252.485 442.313L243.787 506.682C243.316 506.663 242.849 506.742 242.41 506.913L210.331 442.845L249.903 439.592L249.901 439.59ZM245.475 507.21C245.136 506.994 244.775 506.849 244.406 506.764L253.104 442.395C253.789 442.425 254.472 442.243 255.056 441.877L278.854 472.916L245.76 507.415C245.668 507.342 245.573 507.275 245.473 507.212L245.475 507.21ZM255.555 441.495C255.764 441.301 255.954 441.081 256.114 440.832C256.165 440.757 256.204 440.678 256.246 440.601L295.787 451.482C295.536 452.542 295.807 453.669 296.521 454.497L279.293 472.457L255.555 441.495ZM296.224 450.439C296.132 450.584 296.056 450.736 295.987 450.887L256.489 440.017C256.584 439.71 256.634 439.399 256.643 439.086L301.26 436.104L299.589 448.903C298.306 448.713 296.967 449.27 296.225 450.434L296.224 450.439ZM256.6 438.461C256.558 438.189 256.483 437.92 256.376 437.665L302.639 409.227C302.877 409.544 303.172 409.827 303.527 410.054C303.868 410.272 304.234 410.418 304.609 410.502L301.347 435.47L256.603 438.459L256.6 438.461ZM332.955 329.889C332.998 329.916 333.042 329.939 333.087 329.964L317.184 373.724L306.221 403.892C305.521 403.709 304.789 403.76 304.128 404.015L277.066 349.776L331.651 328.34C331.909 328.957 332.348 329.503 332.955 329.889ZM302.333 405.626C302.038 406.193 301.923 406.809 301.964 407.412L249.171 415.918L239.587 367.793C240.248 367.596 240.853 367.2 241.304 366.624L302.333 405.626ZM238.972 367.918L248.55 416.02L203.865 423.221C203.682 422.511 203.275 421.859 202.662 421.384L237.061 367.559C237.666 367.873 238.331 367.988 238.972 367.918ZM197.707 422.237C197.126 423.147 197.034 424.228 197.358 425.176L184.528 430.965L151.287 445.966C151.216 445.847 151.138 445.728 151.052 445.616L192.747 407.213L201.836 420.91C200.347 420.314 198.603 420.836 197.707 422.237ZM151.389 449.211C151.638 448.715 151.754 448.185 151.752 447.658L209.654 442.897L241.847 507.191C241.523 507.391 241.231 507.646 240.982 507.955L151.389 449.211ZM246.211 507.848L279.24 473.416L298.901 499.06C298.692 499.254 298.502 499.473 298.341 499.722C297.941 500.347 297.775 501.053 297.815 501.739L246.944 509.268C246.816 508.751 246.57 508.263 246.211 507.848ZM299.399 498.678L279.681 472.959L296.974 454.933C297.066 455.006 297.161 455.073 297.261 455.136C297.778 455.467 298.351 455.637 298.927 455.665L300.754 498.186C300.277 498.25 299.816 498.418 299.404 498.678L299.399 498.678ZM334.198 433.273L301.984 435.427L305.231 410.582C306.172 410.617 307.103 410.263 307.784 409.57L334.624 431.476C334.309 432.043 334.171 432.664 334.196 433.27L334.198 433.273ZM334.981 430.957L308.178 409.082C308.193 409.059 308.209 409.039 308.224 409.017C309.237 407.435 308.772 405.331 307.19 404.318C307.067 404.24 306.939 404.17 306.809 404.109L331.334 336.63L333.659 330.228C333.878 330.305 334.104 330.359 334.328 330.39L337.027 429.777C336.243 429.912 335.51 430.313 334.976 430.957L334.981 430.957ZM334.024 323.709L326.262 294.82L354.79 288.298C354.818 289.337 355.323 290.341 356.224 290.983L336.033 323.856C335.381 323.6 334.684 323.559 334.028 323.709L334.024 323.709ZM373.124 217.156C373.038 217.289 372.97 217.424 372.905 217.564L318.753 198.415C318.814 198.173 318.849 197.926 318.854 197.682L375.876 194.05L375.704 215.604C374.685 215.692 373.718 216.232 373.124 217.161L373.124 217.156ZM374.835 137.458C375.301 137.757 375.812 137.921 376.328 137.974L375.886 193.417L318.816 197.053C318.72 196.44 318.457 195.854 318.044 195.371L374.533 137.24C374.628 137.318 374.729 137.392 374.835 137.458ZM314.185 200.736C314.541 200.878 314.91 200.959 315.28 200.977L317.784 262.751C317.43 262.792 317.083 262.892 316.754 263.042L298.426 231.329L314.183 200.733L314.185 200.736ZM316.211 263.359C315.862 263.605 315.555 263.921 315.308 264.302C314.582 265.439 314.618 266.841 315.28 267.918L259.592 308.086C259.451 307.924 259.295 307.774 259.119 307.638L298.079 231.996L316.204 263.36L316.211 263.359ZM259.899 312.153C260.066 311.892 260.189 311.616 260.276 311.336L331.426 326.524C331.366 326.933 331.379 327.346 331.465 327.742L276.786 349.214L258.823 313.21C259.244 312.951 259.613 312.598 259.899 312.153ZM276.481 350.007L303.567 404.295C303.232 404.503 302.927 404.767 302.673 405.095L241.644 366.093C242.056 365.297 242.121 364.403 241.886 363.588L276.479 350.004L276.481 350.007ZM236.535 367.22L202.405 420.624L193.22 406.78L236.347 367.057C236.408 367.114 236.469 367.167 236.535 367.22ZM150.628 445.155C150.491 445.03 150.345 444.915 150.184 444.811C150.023 444.706 149.854 444.623 149.683 444.549L171.765 375.588L192.399 406.682L150.631 445.153L150.628 445.155ZM150.568 450.261C150.709 450.14 150.843 450.003 150.965 449.856L151.192 449.832L240.642 508.482C240.281 509.16 240.175 509.912 240.291 510.627L200.683 520.964L150.568 450.266L150.568 450.261ZM227.669 564.99L206.756 529.991C207.089 529.749 207.385 529.445 207.618 529.078C207.77 528.843 207.881 528.595 207.969 528.342L237.002 535.328L229.655 564.693C228.977 564.587 228.285 564.694 227.672 564.988L227.669 564.99ZM208.115 527.731C208.192 527.201 208.143 526.663 207.974 526.164L240.669 511.731C240.933 512.206 241.319 512.625 241.811 512.943C242.037 513.089 242.276 513.199 242.517 513.285L237.154 534.72L208.115 527.731ZM243.124 513.437C244.042 513.578 244.982 513.338 245.72 512.767L272.948 541.977C272.79 542.139 272.644 542.322 272.516 542.52C272.384 542.724 272.281 542.939 272.199 543.158L237.76 534.87L243.122 513.439L243.124 513.437ZM273.428 541.57L249.869 516.297L276.639 541.19C275.564 540.763 274.354 540.92 273.428 541.57ZM246.334 512.153C246.393 512.075 246.451 511.994 246.507 511.911C246.907 511.286 247.073 510.58 247.033 509.894L297.905 502.365C298.105 503.186 298.607 503.935 299.375 504.426C300.051 504.859 300.823 505.019 301.565 504.939L315.501 574.519C315.033 574.676 314.595 574.939 314.227 575.293L246.329 512.153L246.334 512.153ZM302.18 504.814C302.41 504.744 302.633 504.656 302.847 504.539L342.235 562.809L319.387 575.806C319.136 575.445 318.815 575.127 318.419 574.875C317.707 574.418 316.89 574.266 316.115 574.375L302.182 504.816L302.18 504.814ZM319.691 576.354L342.584 563.332L355.281 582.117C355.012 582.339 354.77 582.604 354.572 582.915C354.378 583.219 354.239 583.541 354.151 583.873L319.967 578.091C320.028 577.495 319.931 576.898 319.689 576.356L319.691 576.354ZM360.308 586.578C361.295 585.034 360.877 583.001 359.389 581.962L381.451 543.254L347.414 639.24L357.118 588.134C358.348 588.251 359.598 587.695 360.308 586.582L360.308 586.578ZM348.172 640.336C348.041 640.252 347.904 640.181 347.765 640.118L382.118 543.243C382.618 543.349 383.132 543.34 383.621 543.222L397.339 585.913L348.363 640.476C348.298 640.43 348.236 640.382 348.169 640.338L348.172 640.336ZM379.96 538.082C379.928 538.133 379.901 538.188 379.873 538.239L304.406 502.715C304.759 501.748 304.642 500.684 304.131 499.821L327.714 482.687L380.259 537.687C380.152 537.811 380.051 537.939 379.96 538.082ZM303.762 499.312C303.557 499.078 303.318 498.867 303.038 498.69C302.522 498.358 301.948 498.189 301.372 498.16L299.545 455.639C300.142 455.558 300.716 455.316 301.196 454.936L327.271 482.228L303.758 499.312L303.762 499.312ZM301.655 454.498C301.762 454.374 301.866 454.244 301.956 454.101C302.359 453.47 302.524 452.756 302.483 452.064L384.557 439.428C384.637 439.746 384.761 440.052 384.932 440.339L327.792 481.854L301.657 454.497L301.655 454.498ZM384.459 438.808L302.388 451.442C302.362 451.337 302.332 451.231 302.292 451.128L334.777 435.038C335.028 435.41 335.359 435.737 335.759 435.994C337.344 437.005 339.445 436.542 340.458 434.959C340.691 434.596 340.841 434.204 340.922 433.807L384.451 438.55C384.448 438.637 384.452 438.723 384.457 438.809L384.459 438.808ZM337.653 429.73L334.954 330.417C336.014 330.365 337.036 329.816 337.652 328.852C337.928 328.419 338.093 327.946 338.155 327.466L390.635 329.545C390.689 330.581 391.217 331.575 392.142 332.192L339.15 430.102C338.672 429.856 338.16 429.734 337.651 429.728L337.653 429.73ZM391.164 327.538C390.888 327.971 390.724 328.444 390.659 328.922L339.335 326.888L387.321 322.146L391.565 327.021C391.417 327.175 391.279 327.349 391.16 327.537L391.164 327.538ZM338.123 326.375C337.951 325.491 337.437 324.676 336.618 324.153C336.61 324.147 336.599 324.144 336.589 324.135L356.761 291.295C357.89 291.818 359.193 291.671 360.172 290.968L386.819 321.563L338.126 326.373L338.123 326.375ZM360.647 290.557C360.795 290.403 360.933 290.229 361.052 290.041C361.155 289.878 361.242 289.709 361.314 289.536L442.346 315.338C442.293 315.586 442.265 315.835 442.265 316.087L387.584 321.489L360.647 290.557ZM360.879 286.137C360.646 285.833 360.361 285.563 360.018 285.342C359.946 285.297 359.872 285.258 359.799 285.218L375.472 222.349C376.245 222.467 377.034 222.313 377.705 221.922L404.169 258.789L360.879 286.137ZM378.78 217.042C378.532 216.686 378.209 216.37 377.819 216.121C377.354 215.823 376.842 215.658 376.327 215.606L376.498 194.009L422.588 191.071C422.622 191.401 422.704 191.722 422.828 192.027L378.775 217.042L378.78 217.042ZM424.154 187.857L379.141 136.919C379.284 136.769 379.416 136.603 379.53 136.423C380.056 135.598 380.18 134.635 379.957 133.757L399.127 126.96L424.546 187.642C424.41 187.706 424.279 187.778 424.152 187.859L424.154 187.857ZM399.48 126.168L382.792 86.3302C383.293 86.0632 383.734 85.6723 384.061 85.1596C384.139 85.037 384.203 84.9123 384.266 84.7851L434.214 103.048L446.795 107.647C446.644 108.226 446.655 108.828 446.806 109.389L399.482 126.167L399.48 126.168ZM447.217 106.668C447.137 106.793 447.069 106.924 447.007 107.058L384.483 84.1966C384.533 84.0089 384.565 83.8228 384.581 83.6321L448.635 83.4475L449.667 105.125C448.695 105.245 447.783 105.78 447.217 106.668ZM449.234 82.8183L446.167 18.4677C446.719 18.3887 447.247 18.1756 447.705 17.839L503.453 80.5702C503.158 80.8 502.896 81.08 502.684 81.4129C502.433 81.8049 502.273 82.2315 502.198 82.6626L449.235 82.8139L449.234 82.8183ZM505.197 79.866C504.776 79.9118 504.364 80.0331 503.986 80.2296L448.173 17.4251C448.314 17.2765 448.443 17.1126 448.555 16.9346C448.839 16.4872 449.003 16.0029 449.064 15.5088L495.284 16.7741L505.195 79.8679L505.197 79.866ZM449.084 14.8803C449.048 14.3168 448.873 13.772 448.57 13.2899L487.445 -16.5382C487.567 -16.4334 487.693 -16.3347 487.832 -16.2453C488.557 -15.7819 489.39 -15.6299 490.178 -15.7523L495.189 16.1406L449.084 14.8803ZM486.563 -17.7189L443.544 1.32328L439.152 -23.1931C439.935 -23.4087 440.643 -23.8992 441.112 -24.6366C441.322 -24.9632 441.464 -25.3116 441.55 -25.669L486.265 -19.1287C486.265 -18.6431 486.364 -18.1642 486.563 -17.7189ZM435.981 -23.9361C436.114 -23.816 436.258 -23.7032 436.413 -23.6023C437.068 -23.1814 437.814 -23.0206 438.534 -23.0819L442.954 1.58507L378.554 30.089C378.474 29.9458 378.379 29.805 378.276 29.674L435.981 -23.9361ZM365.716 84.3182C366.441 84.0823 367.092 83.6053 367.537 82.9135C367.752 82.5787 367.897 82.2172 367.982 81.8485L377.802 83.1811C377.751 84.3514 378.306 85.5163 379.364 86.192C379.748 86.4372 380.164 86.5931 380.586 86.6711L376.652 131.185C376.512 131.185 376.372 131.194 376.232 131.211L365.716 84.3137L365.716 84.3182ZM373.487 135.79C373.623 136.153 373.821 136.495 374.081 136.799L317.592 194.93C317.496 194.852 317.396 194.778 317.289 194.711C315.744 193.722 313.702 194.146 312.665 195.641L263.753 167.987C264.041 167.347 264.117 166.656 263.998 165.996L373.489 135.793L373.487 135.79ZM260.923 169.981C261.319 169.95 261.711 169.847 262.075 169.68L297.71 231.344L259.195 306.119L260.921 169.979L260.923 169.981ZM256.242 313.622C256.92 313.786 257.625 313.731 258.262 313.486L276.2 349.438L241.657 363.001C241.39 362.473 240.988 362.005 240.453 361.664C240.308 361.571 240.16 361.496 240.006 361.429L256.239 313.624L256.242 313.622ZM235.326 365.358C235.438 365.8 235.638 366.221 235.919 366.592L192.866 406.245L172.198 375.099L235.324 365.355L235.326 365.358ZM97.8788 455.23C97.7611 454.667 97.4997 454.131 97.1113 453.687L170.948 376.077L149.086 444.358C147.733 444.06 146.276 444.61 145.485 445.845C144.674 447.113 144.813 448.709 145.708 449.817L97.8781 455.234L97.8788 455.23ZM147.232 535.554L200.42 521.675L202.533 524.659C202.286 524.869 202.064 525.12 201.881 525.408C201.481 526.033 201.314 526.744 201.354 527.433L147.229 535.556L147.232 535.554ZM232.004 566.227C231.747 565.82 231.4 565.459 230.966 565.184C230.74 565.038 230.503 564.93 230.261 564.843L237.611 535.472L272.036 543.757C271.926 544.385 271.999 545.026 272.231 545.612L232.004 566.227ZM278.283 546.125C278.911 545.102 278.934 543.874 278.445 542.863L308.977 571.257L278.285 546.128L278.283 546.125ZM349.629 644.083C349.933 642.958 349.635 641.746 348.838 640.884L397.566 586.594L424.232 669.582C423.625 669.841 423.085 670.279 422.7 670.877C422.626 670.993 422.562 671.114 422.505 671.233L349.627 644.081L349.629 644.083ZM425.325 669.323C425.159 669.335 424.992 669.356 424.829 669.393L398.053 586.058L426.006 554.918C426.056 554.955 426.107 554.992 426.159 555.028C426.668 555.353 427.23 555.523 427.794 555.556L425.325 669.323ZM424.673 551.41C424.424 552.511 424.739 553.676 425.53 554.503L397.831 585.362L384.223 543.009C384.809 542.747 385.329 542.319 385.7 541.739C385.819 541.551 385.918 541.355 385.997 541.154L424.673 551.41ZM382.787 536.506C382.041 536.516 381.31 536.772 380.718 537.244L328.233 482.306L385.304 440.841C385.51 441.076 385.749 441.287 386.029 441.464C386.454 441.734 386.913 441.897 387.382 441.964L382.789 536.504L382.787 536.506ZM395.866 326.497C394.657 325.726 393.146 325.814 392.047 326.605L388.093 322.066L441.637 316.777L397.231 328.215C396.986 327.531 396.526 326.919 395.862 326.496L395.866 326.497ZM444.886 312.754C444.559 312.833 444.243 312.958 443.952 313.13L405.07 258.961L432.219 241.81C432.452 242.115 432.739 242.387 433.08 242.605C433.697 243 434.394 243.169 435.074 243.133L444.886 312.754ZM433.994 236.463C433.216 236.68 432.513 237.171 432.044 237.904C431.958 238.036 431.888 238.176 431.823 238.316L379.287 219.814C379.476 219.064 379.4 218.28 379.089 217.586L423.125 192.58C423.38 192.973 423.72 193.324 424.143 193.591C424.803 194.012 425.55 194.176 426.274 194.108L433.997 236.461L433.994 236.463ZM426.689 187.401C426.173 187.291 425.643 187.303 425.141 187.431L399.723 126.749L447.023 109.981C447.287 110.531 447.7 111.019 448.253 111.37C448.462 111.502 448.674 111.607 448.897 111.69L426.692 187.407L426.689 187.401ZM453.065 106.857C452.8 106.374 452.413 105.949 451.917 105.63C451.41 105.306 450.855 105.135 450.296 105.103L449.265 83.4439L502.152 83.2939C502.158 83.6389 502.214 83.9827 502.322 84.3079L453.065 106.857ZM528.398 15.3093C528.268 15.4505 528.15 15.6027 528.042 15.77C527.789 16.1638 527.629 16.5905 527.553 17.0259L495.827 16.1585L490.789 -15.9051C491.251 -16.0658 491.681 -16.3282 492.041 -16.6827L528.396 15.3111L528.398 15.3093Z" fill="#DF8711"/>
<path d="M-210.779 29.7409C-209.926 30.9427 -208.435 31.4189 -207.091 31.042L-179.002 104.627C-179.163 104.706 -179.322 104.798 -179.473 104.903C-181.004 105.994 -181.362 108.116 -180.275 109.648C-179.187 111.18 -177.062 111.537 -175.53 110.449C-175.285 110.275 -175.074 110.073 -174.889 109.852L-138.82 134.623C-139.44 135.736 -139.411 137.147 -138.625 138.252C-137.537 139.783 -135.412 140.141 -133.88 139.053C-133.204 138.57 -132.757 137.886 -132.56 137.141L-85.1393 144.959C-85.1923 145.72 -84.994 146.503 -84.5191 147.174C-84.0016 147.899 -83.2531 148.357 -82.4465 148.528L-95.4583 261.361C-96.1652 261.343 -96.8852 261.545 -97.5071 261.985C-99.0389 263.072 -99.3959 265.197 -98.3084 266.729C-97.2208 268.261 -95.0957 268.618 -93.564 267.53C-93.1189 267.212 -92.7766 266.806 -92.5364 266.355L34.1139 319.403C32.8243 320.54 32.5762 322.492 33.5938 323.925C34.6814 325.457 36.8064 325.814 38.3381 324.726C38.4784 324.626 38.6034 324.518 38.7231 324.4L76.966 357.359C76.1487 358.508 76.0997 360.09 76.962 361.303C77.3958 361.913 77.9958 362.333 78.6561 362.554L64.0454 424.717L63.3838 424.166L63.9072 425.317L63.8193 425.692L64.0563 425.643L108.82 524.196C108.724 524.253 108.629 524.312 108.535 524.377C107.003 525.465 106.646 527.59 107.734 529.122C108.821 530.654 110.946 531.011 112.478 529.923C114.01 528.836 114.367 526.711 113.28 525.179C112.875 524.61 112.324 524.203 111.716 523.973L124.75 477.1C124.829 477.054 124.908 477.005 124.985 476.95C125.367 476.68 125.674 476.341 125.908 475.966L199.835 512.72C199.438 513.751 199.546 514.951 200.234 515.918C201.322 517.45 203.447 517.807 204.979 516.72C206.511 515.632 206.868 513.507 205.78 511.975C205.351 511.37 204.754 510.949 204.101 510.73L217.431 455.053C218.264 455.173 219.144 454.989 219.886 454.461C220.881 453.753 221.376 452.61 221.308 451.478L261.592 445.198C261.691 445.597 261.862 445.985 262.116 446.34C263.203 447.871 265.329 448.229 266.86 447.141C268.392 446.053 268.749 443.928 267.662 442.397C266.999 441.468 265.957 440.973 264.897 440.969L260.852 395.949C261.326 395.863 261.788 395.677 262.208 395.378C263.583 394.4 264.009 392.592 263.297 391.122L303.881 368.91C304.978 370.413 307.081 370.76 308.601 369.678C310.133 368.591 310.49 366.466 309.402 364.934C309.213 364.667 308.991 364.438 308.745 364.243L326.918 334.701C328.003 335.236 329.341 335.175 330.396 334.423C330.671 334.228 330.905 333.998 331.101 333.745L375.448 362.272C374.88 363.369 374.926 364.736 375.692 365.811C376.78 367.343 378.905 367.7 380.437 366.612C381.969 365.525 382.326 363.4 381.238 361.868C381.158 361.755 381.071 361.654 380.982 361.553L433.461 304.155C434.614 305.03 436.247 305.099 437.487 304.217C439.018 303.129 439.375 301.004 438.288 299.472C437.2 297.94 435.075 297.583 433.543 298.671C433.106 298.981 432.768 299.379 432.529 299.821L327.936 254.904C328.183 253.962 328.028 252.922 327.42 252.067C326.332 250.536 324.207 250.179 322.675 251.266C321.143 252.354 320.786 254.479 321.874 256.01C321.983 256.161 322.105 256.299 322.231 256.43L298.219 288.467C297.084 287.734 295.568 287.717 294.4 288.548C294.021 288.818 293.713 289.154 293.482 289.525L207.527 249.843C207.884 248.835 207.76 247.675 207.096 246.737C206.008 245.205 203.883 244.848 202.351 245.936C200.82 247.023 200.463 249.148 201.55 250.68C201.8 251.032 202.107 251.318 202.445 251.541L181.742 290.127C180.693 289.683 179.443 289.775 178.446 290.486L178.687 290.287L107.753 204.47C108.913 203.316 109.105 201.465 108.128 200.091C107.624 199.381 106.896 198.928 106.11 198.749L112.229 152.599C112.955 152.629 113.695 152.431 114.332 151.975C115.863 150.884 116.221 148.762 115.133 147.23C114.046 145.698 111.921 145.341 110.389 146.429C109.792 146.853 109.375 147.436 109.153 148.08L40.9256 131.098C41.0549 130.253 40.8719 129.363 40.3384 128.612C39.2508 127.081 37.1258 126.723 35.594 127.811C34.9562 128.265 34.5246 128.897 34.3162 129.593L-7.84605 120.887C-7.75488 120.085 -7.94709 119.249 -8.45093 118.539C-9.53847 117.008 -11.6635 116.651 -13.1953 117.738C-13.3576 117.853 -13.5032 117.983 -13.6381 118.117L-75.5398 69.1498C-74.8375 68.0198 -74.8389 66.5344 -75.657 65.3821C-76.2742 64.5164 -77.2223 64.0245 -78.2095 63.9599L-80.6639 9.84573C-80.1169 9.78057 -79.5774 9.58127 -79.0958 9.24109C-77.564 8.15352 -77.2069 6.02849 -78.2945 4.4967C-79.3851 2.96567 -81.5071 2.60787 -83.0389 3.69538C-83.0496 3.70452 -83.0602 3.71366 -83.0717 3.71978L-113.489 -24.7521L-129.568 -39.8021C-128.844 -40.9374 -128.831 -42.4426 -129.659 -43.6086C-130.746 -45.1403 -132.871 -45.4974 -134.403 -44.4099C-135.594 -43.5628 -136.072 -42.0937 -135.717 -40.7612L-179.075 -19.0005C-179.101 -19.0394 -179.124 -19.082 -179.154 -19.1232C-180.242 -20.655 -182.367 -21.012 -183.898 -19.9245C-185.43 -18.837 -185.787 -16.7119 -184.7 -15.1801C-184.441 -14.8173 -184.124 -14.5208 -183.77 -14.2952L-206.569 24.6871C-207.642 24.1875 -208.944 24.2597 -209.978 24.9964C-211.509 26.084 -211.867 28.2091 -210.779 29.7409ZM-133.659 -38.4648C-132.628 -38.068 -131.428 -38.1762 -130.46 -38.8642C-130.273 -38.9982 -130.106 -39.1466 -129.955 -39.3042L-111.723 -22.2402L-83.5442 4.13538C-83.7721 4.37671 -83.9574 4.64627 -84.1023 4.93483L-146.29 -9.50447L-133.658 -38.4617L-133.659 -38.4648ZM37.8616 133.972L43.5996 165.606L-0.529526 176.34C-0.633691 176.039 -0.778266 175.745 -0.972341 175.473C-1.06292 175.343 -1.16644 175.227 -1.27226 175.114L35.5631 133.334C36.2316 133.822 37.0511 134.045 37.8616 133.972ZM109.149 150.308C109.253 150.609 109.398 150.903 109.592 151.176C109.706 151.335 109.828 151.476 109.962 151.608L55.6841 217.073C55.0323 216.627 54.2471 216.425 53.4708 216.492L44.3245 166.073L109.148 150.305L109.149 150.308ZM211.221 452.954L216.378 413.113L217.496 448.314C216.956 448.381 216.423 448.582 215.944 448.918C214.871 449.681 214.378 450.949 214.549 452.166L211.221 452.954ZM201.037 511.177C200.655 511.45 200.347 511.786 200.113 512.161L126.188 475.404C126.397 474.863 126.464 474.277 126.382 473.702L210.477 453.777L203.128 510.555C202.406 510.528 201.669 510.728 201.033 511.178L201.037 511.177ZM-92.2203 263.975C-92.3107 263.599 -92.4658 263.236 -92.6866 262.896L-48.7241 227.905C-47.5769 229.104 -45.6925 229.314 -44.2986 228.323L-22.098 254.088L-92.2203 263.975ZM-181.165 -13.8311C-181.095 -13.8486 -181.022 -13.8668 -180.954 -13.8904L-167.88 33.2613C-168.146 33.3632 -168.401 33.4948 -168.643 33.6653C-169.279 34.1151 -169.707 34.7463 -169.92 35.4371L-179.617 33.404L-181.165 -13.8311ZM-135.408 105.456L-129.271 118.851C-129.365 118.904 -129.457 118.963 -129.548 119.027C-130.114 119.431 -130.519 119.975 -130.751 120.577L-141.289 117.595L-164.948 40.956L-135.408 105.456ZM-128.702 118.59L-150.157 71.7443L-164.977 39.3868C-164.883 39.3343 -164.791 39.2757 -164.7 39.2111C-164.194 38.8518 -163.82 38.3798 -163.58 37.8505L-102.794 59.1035L-126.608 118.537C-127.286 118.337 -128.018 118.348 -128.7 118.586L-128.702 118.59ZM-170.049 36.0517C-170.142 36.8584 -169.952 37.6979 -169.445 38.4097C-168.955 39.1002 -168.254 39.55 -167.492 39.7387L-177.297 104.26L-179.595 34.0492L-170.046 36.051L-170.049 36.0517ZM-174.728 105.708C-175.217 105.017 -175.919 104.568 -176.681 104.379L-166.872 39.8335C-166.574 39.8497 -166.271 39.8294 -165.976 39.7686L-142.013 117.39L-174.16 108.298C-173.999 107.423 -174.174 106.489 -174.731 105.709L-174.728 105.708ZM-174.326 108.903L-141.79 118.105L-137.148 133.138C-137.38 133.235 -137.608 133.357 -137.82 133.507C-138.065 133.681 -138.277 133.883 -138.461 134.103L-174.53 109.332C-174.452 109.193 -174.381 109.049 -174.324 108.899L-174.326 108.903ZM-134.443 133.186C-135.1 132.89 -135.837 132.802 -136.547 132.953L-141.069 118.31L-130.921 121.179C-131.081 122.054 -130.907 122.988 -130.35 123.769C-130.12 124.093 -129.839 124.363 -129.529 124.58L-134.443 133.186ZM-124.186 122.07L-81.0324 121.523L-81.9113 141.808C-82.5382 141.838 -83.1645 142.039 -83.7178 142.43C-84.0889 142.694 -84.3892 143.021 -84.6195 143.383L-124.418 123.06C-124.293 122.744 -124.215 122.411 -124.186 122.07ZM-14.3945 121.73C-14.2941 121.99 -14.1625 122.245 -13.9928 122.485C-13.6594 122.952 -13.2339 123.309 -12.7564 123.549L-27.2953 167.37L-78.4938 146.206C-78.3114 145.613 -78.2912 144.98 -78.4432 144.371L-14.3915 121.73L-14.3945 121.73ZM180.513 296.661L183.258 332.764C182.739 332.839 182.227 333.031 181.771 333.358C181.548 333.517 181.354 333.699 181.18 333.897L169.77 327.456L179.894 296.621C180.1 296.654 180.307 296.667 180.517 296.664L180.513 296.661ZM326.085 329.192C325.295 329.943 324.93 331.011 325.05 332.053L302.926 336.779L297.274 294.597C297.647 294.494 298.01 294.329 298.343 294.094L326.082 329.193L326.085 329.192ZM296.658 294.709L302.312 336.913L233.481 351.614C233.375 351.281 233.22 350.957 233.006 350.658C232.982 350.625 232.955 350.593 232.93 350.56L294.145 293.888C294.847 294.496 295.757 294.781 296.655 294.709L296.658 294.709ZM-43.4935 223.581C-43.5841 223.451 -43.6838 223.337 -43.7896 223.224L-5.74919 180.189C-4.96875 180.761 -3.97783 180.971 -3.03697 180.772L9.56097 221.355L-42.9117 225.005C-42.9936 224.508 -43.183 224.021 -43.4935 223.581ZM-2.4366 180.583C-2.20495 180.487 -1.98245 180.367 -1.76756 180.216C-1.5473 180.061 -1.35602 179.88 -1.18452 179.685L51.1567 217.713C50.9577 217.954 50.7961 218.214 50.674 218.491L10.2092 221.306L-2.43352 180.583L-2.4366 180.583ZM50.4565 219.137C50.3625 219.565 50.347 220.009 50.4199 220.444L23.2938 243.978L20.6674 246.258C19.8627 245.484 18.7416 245.168 17.672 245.37L10.3924 221.924L50.4504 219.139L50.4565 219.137ZM21.0853 246.74C21.0853 246.74 21.0845 246.736 21.0837 246.733L23.6995 244.463L50.6099 221.116C50.7088 221.369 50.8388 221.619 51.004 221.853C51.278 222.237 51.6175 222.548 51.9929 222.781L47.318 251.884L21.7155 248.761C21.7258 248.062 21.5259 247.351 21.0883 246.739L21.0853 246.74ZM-42.8686 225.632L9.7533 221.97L17.0717 245.546C16.8179 245.644 16.5718 245.774 16.3409 245.938C15.86 246.281 15.4948 246.725 15.2531 247.223L-42.972 226.399C-42.9078 226.15 -42.8749 225.893 -42.8686 225.632ZM35.8733 318.592L19.4877 251.899C19.7635 251.798 20.0333 251.66 20.284 251.484C21.0179 250.961 21.4792 250.202 21.6443 249.384L47.214 252.506L36.6037 318.562C36.36 318.545 36.117 318.557 35.874 318.595L35.8733 318.592ZM47.8378 252.58L77.5899 256.209C77.607 256.862 77.8115 257.514 78.2194 258.085C78.3785 258.308 78.5604 258.505 78.7584 258.676L54.0159 295.288L38.0105 318.972C37.7591 318.834 37.4964 318.728 37.2238 318.66L47.8378 252.58ZM123.161 470.779L121.912 439.57L121.142 420.279C121.674 420.208 122.195 420.013 122.665 419.679C123.587 419.025 124.078 417.996 124.092 416.947L140.875 415.598L123.671 470.837C123.501 470.804 123.331 470.785 123.16 470.776L123.161 470.779ZM144.535 316.822L153.404 370.376C153.018 370.478 152.639 370.644 152.296 370.891C151.702 371.314 151.287 371.894 151.062 372.536L131.964 368.914L143.85 316.801C144.078 316.832 144.309 316.839 144.538 316.824L144.535 316.822ZM150.906 373.144C150.777 373.989 150.957 374.883 151.495 375.636C151.629 375.825 151.779 375.995 151.943 376.149L122.525 414.04C122.283 413.886 122.023 413.767 121.755 413.678L131.825 369.525L150.909 373.144L150.906 373.144ZM124.043 416.322C123.958 415.838 123.771 415.364 123.467 414.934C123.333 414.748 123.183 414.575 123.022 414.424L133.535 400.894L152.456 376.545C152.618 376.647 152.787 376.731 152.961 376.804L141.077 414.956L124.04 416.326L124.043 416.322ZM153.56 376.988C154.459 377.179 155.431 377.011 156.239 376.437C156.566 376.203 156.836 375.922 157.053 375.613L213.477 407.79C213.283 408.22 213.182 408.682 213.176 409.153L141.755 414.897L153.564 376.988L153.56 376.988ZM214.599 406.423C214.272 406.656 214.003 406.937 213.785 407.247L157.361 375.07C157.646 374.445 157.733 373.744 157.612 373.065L195.306 362.628L214.896 406.235C214.794 406.293 214.696 406.356 214.6 406.426L214.599 406.423ZM157.445 372.459C157.343 372.193 157.211 371.935 157.04 371.693C156.989 371.618 156.931 371.552 156.875 371.485L181.777 338.898C182.665 339.528 183.812 339.699 184.847 339.347L195.045 362.049L157.445 372.459ZM180.973 338.102C181.072 338.242 181.185 338.369 181.299 338.49L156.425 371.04C156.176 370.837 155.906 370.674 155.619 370.548L169.568 328.063L180.809 334.407C180.152 335.526 180.168 336.976 180.969 338.1L180.973 338.102ZM155.023 370.354C154.755 370.291 154.479 370.26 154.202 370.264L145.165 316.716C145.548 316.614 145.92 316.447 146.264 316.203C146.594 315.968 146.866 315.684 147.085 315.367L169.013 327.745L155.023 370.351L155.023 370.354ZM82.9608 258.887C83.0019 258.858 83.0393 258.826 83.0797 258.793L117.696 289.93L141.56 311.397C141.129 311.977 140.901 312.675 140.89 313.383L80.4629 318.156L81.0362 259.516C81.7043 259.508 82.3755 259.305 82.9608 258.887ZM141.712 315.651C142.127 316.137 142.655 316.475 143.229 316.662L131.34 368.798L83.1286 359.655C83.1938 358.969 83.0526 358.26 82.6873 357.626L141.712 315.651ZM83.0139 360.273L131.201 369.412L121.138 413.541C120.412 413.443 119.655 413.577 118.985 413.967L81.9655 361.91C82.483 361.467 82.8384 360.893 83.0139 360.273ZM117.919 418.881C118.546 419.761 119.513 420.251 120.514 420.306L121.075 434.37L122.531 470.81C122.394 470.831 122.255 470.859 122.119 470.897L102.132 417.852L118.235 414.556C117.125 415.713 116.956 417.526 117.919 418.881ZM125.578 471.931C125.212 471.514 124.763 471.208 124.275 471.013L141.551 415.543L213.222 409.779C213.287 410.155 213.414 410.521 213.607 410.868L125.578 471.931ZM215.466 405.98L195.914 362.457L227.056 353.834C227.158 354.1 227.29 354.359 227.461 354.601C227.89 355.206 228.483 355.625 229.133 355.844L217.058 405.832C216.531 405.756 215.985 405.802 215.466 405.98ZM226.889 353.229L195.656 361.877L185.421 339.09C185.523 339.033 185.62 338.969 185.716 338.9C186.217 338.546 186.589 338.077 186.831 337.554L226.941 351.788C226.821 352.255 226.804 352.745 226.891 353.225L226.889 353.229ZM179.282 296.463L169.212 327.138L147.392 314.821C147.777 313.961 147.797 312.966 147.41 312.075L177.776 295.395C178.183 295.899 178.707 296.26 179.279 296.464L179.282 296.463ZM177.428 294.87L147.105 311.526C147.09 311.504 147.078 311.481 147.062 311.459C145.975 309.927 143.85 309.57 142.318 310.658C142.2 310.742 142.087 310.835 141.982 310.933L88.6035 262.915L83.5385 258.361C83.6925 258.187 83.8267 257.998 83.9396 257.802L177.101 292.531C176.932 293.307 177.029 294.138 177.426 294.874L177.428 294.87ZM77.6307 255.581L47.938 251.956L52.5778 223.062C53.5518 223.425 54.6716 223.333 55.6044 222.738L78.52 253.773C78.0383 254.282 77.7393 254.913 77.633 255.577L77.6307 255.581ZM-6.51573 179.412C-6.42515 179.542 -6.32547 179.656 -6.21966 179.769L-44.2601 222.804C-44.4618 222.657 -44.6774 222.532 -44.902 222.436L-26.9089 168.206L-6.98843 176.439C-7.28841 177.417 -7.15048 178.515 -6.51195 179.415L-6.51573 179.412ZM-79.7694 147.971C-79.3182 147.651 -78.9744 147.238 -78.7327 146.78L-27.4915 167.959L-45.4991 222.236C-46.1038 222.095 -46.7452 222.119 -47.3487 222.321L-80.0856 148.169C-79.9774 148.11 -79.8707 148.045 -79.7694 147.971ZM-43.8193 227.909C-43.5547 227.632 -43.3412 227.32 -43.1856 226.983L15.0287 247.803C14.9333 248.147 14.8965 248.506 14.9123 248.868L-21.3575 253.981L-43.8223 227.909L-43.8193 227.909ZM15.0026 249.489C15.0998 249.905 15.2778 250.308 15.5389 250.68C16.3212 251.779 17.6349 252.271 18.8805 252.06L35.263 318.741C35.0603 318.811 34.8622 318.899 34.6702 319.012L-20.8688 254.552L15.001 249.496L15.0026 249.489ZM39.1486 319.979C38.969 319.726 38.7597 319.51 38.532 319.324L79.2678 259.044C79.6241 259.253 80.0125 259.396 80.4116 259.465L79.8375 318.205L39.7259 321.373C39.6432 320.886 39.4538 320.412 39.1486 319.979ZM80.4579 318.785L140.939 314.009C141.007 314.396 141.138 314.778 141.347 315.137L82.3228 357.111C81.7389 356.431 80.9348 356.036 80.0908 355.949L80.4549 318.786L80.4579 318.785ZM81.4534 362.271L118.184 413.921L101.907 417.251L81.2324 362.384C81.3078 362.349 81.3795 362.312 81.4534 362.271ZM121.533 471.117C121.365 471.198 121.204 471.29 121.047 471.4C120.89 471.51 120.75 471.636 120.617 471.766L64.9491 425.459L101.508 417.975L121.532 471.114L121.533 471.117ZM126.245 473.085C126.185 472.909 126.108 472.734 126.018 472.566L126.08 472.346L213.968 411.38C214.461 411.969 215.119 412.349 215.826 412.51L210.572 453.106L126.248 473.088L126.245 473.085ZM261.502 444.577L221.217 450.856C221.118 450.457 220.947 450.069 220.693 449.715C220.533 449.486 220.345 449.29 220.142 449.114L237.496 424.813L261.97 442.625C261.618 443.214 261.458 443.895 261.501 444.574L261.502 444.577ZM219.631 448.75C219.168 448.48 218.65 448.324 218.125 448.293L216.99 412.572C217.53 412.505 218.063 412.305 218.542 411.968C218.763 411.813 218.954 411.633 219.123 411.441L236.989 424.444L219.631 448.75ZM219.492 410.935C219.966 410.137 220.096 409.176 219.843 408.278L257.126 393.974C257.217 394.182 257.332 394.386 257.468 394.579C257.608 394.777 257.768 394.954 257.94 395.111L237.355 423.938L219.493 410.938L219.492 410.935ZM256.928 393.376L224.671 405.753L257.779 390.258C256.981 391.094 256.673 392.275 256.928 393.376ZM219.504 407.478C219.454 407.394 219.401 407.31 219.344 407.227C218.915 406.622 218.322 406.203 217.672 405.983L229.747 355.996C230.584 356.117 231.467 355.933 232.209 355.405C232.863 354.94 233.302 354.284 233.505 353.567L303.239 366.71C303.209 367.203 303.29 367.707 303.479 368.181L219.502 407.482L219.504 407.478ZM233.62 352.949C233.641 352.71 233.643 352.47 233.615 352.228L302.396 337.536L305.888 363.59C305.46 363.687 305.044 363.865 304.662 364.138C303.972 364.627 303.525 365.328 303.336 366.087L233.623 352.948L233.62 352.949ZM306.51 363.512L303.012 337.408L325.185 332.673C325.291 333.006 325.446 333.33 325.66 333.629C325.869 333.923 326.116 334.173 326.391 334.379L308.224 363.907C307.695 363.628 307.104 363.494 306.511 363.515L306.51 363.512ZM331.205 329.683C330.143 328.19 328.101 327.816 326.581 328.806L298.956 293.851L375.202 361.366L331.453 333.224C332.022 332.127 331.975 330.76 331.209 329.685L331.205 329.683ZM376.502 361.074C376.376 361.164 376.258 361.264 376.148 361.369L299.195 293.228C299.481 292.804 299.666 292.324 299.739 291.827L344.461 295.1L376.704 360.949C376.637 360.992 376.569 361.031 376.503 361.077L376.502 361.074ZM293.603 293.295C293.638 293.345 293.678 293.39 293.715 293.435L232.508 350.099C231.743 349.409 230.713 349.119 229.721 349.269L222.669 320.986L293.348 292.87C293.423 293.016 293.504 293.158 293.603 293.295ZM229.112 349.421C228.817 349.524 228.532 349.666 228.263 349.86C227.762 350.214 227.39 350.683 227.148 351.206L187.038 336.972C187.187 336.387 187.178 335.765 187.005 335.177L222.078 321.224L229.109 349.425L229.112 349.421ZM186.771 334.588C186.696 334.442 186.614 334.297 186.515 334.16C186.082 333.549 185.482 333.129 184.824 332.908L203.854 252.077C204.179 252.122 204.509 252.121 204.839 252.071L221.926 320.602L186.77 334.585L186.771 334.588ZM203.242 251.935L184.212 332.763C184.105 332.747 183.995 332.736 183.884 332.734L181.135 296.587C181.575 296.494 182.002 296.31 182.39 296.035C183.921 294.944 184.278 292.822 183.191 291.29C182.941 290.938 182.634 290.653 182.296 290.429L203 251.846C203.08 251.881 203.161 251.91 203.243 251.938L203.242 251.935ZM177.292 291.933L84.1989 257.232C84.5477 256.229 84.4219 255.076 83.7591 254.144C83.4607 253.726 83.0838 253.396 82.662 253.158L104.249 205.279C105.23 205.617 106.35 205.499 107.268 204.872L178.197 290.684C177.79 291.035 177.485 291.464 177.288 291.933L177.292 291.933ZM102.586 204.036C102.884 204.454 103.261 204.784 103.68 205.022L82.5683 251.848L96.1475 205.58L102.257 203.471C102.345 203.666 102.454 203.858 102.584 204.04L102.586 204.036ZM81.6385 252.779C80.7542 252.608 79.8064 252.779 79.0146 253.342C79.0063 253.348 78.9986 253.356 78.9872 253.362L56.0952 222.357C57.0029 221.506 57.3549 220.243 57.0692 219.071L95.4191 205.826L81.6377 252.776L81.6385 252.779ZM56.8662 218.478C56.7787 218.283 56.6692 218.09 56.5398 217.909C56.4264 217.752 56.3031 217.608 56.1698 217.477L110.447 152.011C110.657 152.153 110.878 152.272 111.112 152.366L95.6367 205.089L56.8662 218.478ZM52.8553 216.607C52.4858 216.709 52.1285 216.872 51.7954 217.107C51.7268 217.157 51.6628 217.212 51.598 217.263L-0.821584 179.18C-0.422775 178.508 -0.269892 177.719 -0.380615 176.95L43.715 166.225L52.8553 216.607ZM-4.50293 174.126C-4.92574 174.222 -5.34025 174.403 -5.71671 174.672C-6.16785 174.991 -6.51167 175.404 -6.75342 175.862L-26.7135 167.613L-12.1715 123.779C-11.854 123.871 -11.5257 123.915 -11.1958 123.914L-4.50522 174.13L-4.50293 174.126ZM-14.5655 121.122L-78.6561 143.776C-78.742 143.588 -78.8463 143.403 -78.9704 143.23C-79.5381 142.433 -80.3849 141.958 -81.2829 141.835L-80.4032 121.515L-14.6178 120.679C-14.6095 120.829 -14.5921 120.977 -14.5648 121.125L-14.5655 121.122ZM-81.0053 120.891L-124.194 121.441C-124.254 120.876 -124.451 120.32 -124.804 119.826C-124.889 119.707 -124.98 119.601 -125.074 119.495L-89.4302 80.0255L-80.4536 70.0837C-79.9732 70.4397 -79.4112 70.6556 -78.8338 70.7253L-81.0061 120.888L-81.0053 120.891ZM-81.2027 69.3252C-81.1175 69.4464 -81.0216 69.5584 -80.9203 69.6659L-125.539 119.073C-125.694 118.957 -125.855 118.857 -126.025 118.77L-102.201 59.3118L-81.7159 66.4752C-81.9686 67.4219 -81.8146 68.4679 -81.2027 69.3252ZM-102.56 58.5209L-163.374 37.2587C-163.241 36.7172 -163.24 36.1475 -163.381 35.5966L-84.3339 7.40732C-84.2313 7.7669 -84.07 8.11512 -83.841 8.43675C-83.5716 8.81626 -83.2358 9.12418 -82.8642 9.35524L-102.564 58.5186L-102.56 58.5209ZM-84.3335 5.52659C-84.4488 5.93401 -84.4909 6.36214 -84.4501 6.78567L-163.589 35.0077C-163.674 34.8218 -163.778 34.6404 -163.901 34.4704C-164.21 34.0391 -164.597 33.7052 -165.033 33.4642L-146.545 -8.91657L-84.3328 5.52961L-84.3335 5.52659ZM-165.608 33.2095C-166.144 33.0324 -166.714 32.9902 -167.275 33.0911L-180.368 -14.127C-180.225 -14.2015 -180.086 -14.2814 -179.952 -14.3766C-179.25 -14.875 -178.798 -15.59 -178.616 -16.3669L-147.168 -9.0655L-165.608 33.2095ZM-181.793 -13.7523L-180.253 33.268L-204.629 28.1557C-204.536 27.3491 -204.726 26.5096 -205.233 25.7978C-205.458 25.4815 -205.727 25.2185 -206.027 25.005L-183.212 -14.0038C-182.762 -13.8215 -182.281 -13.7343 -181.793 -13.7523ZM-206.506 30.8184C-206.345 30.7392 -206.186 30.648 -206.035 30.5421C-205.399 30.0924 -204.971 29.4612 -204.758 28.7704L-180.231 33.9132L-177.927 104.301C-178.09 104.322 -178.256 104.357 -178.416 104.404L-206.506 30.8184ZM-132.456 136.52C-132.403 135.759 -132.602 134.976 -133.077 134.305C-133.306 133.98 -133.587 133.71 -133.897 133.493L-128.983 124.888C-127.917 125.373 -126.629 125.294 -125.606 124.567C-125.235 124.303 -124.935 123.975 -124.704 123.614L-84.9055 143.936C-84.9574 144.066 -85.0017 144.2 -85.0391 144.335L-132.46 136.517L-132.456 136.52ZM-81.8211 148.596C-81.4334 148.606 -81.0426 148.55 -80.6632 148.423L-47.9262 222.575C-48.0344 222.635 -48.1411 222.7 -48.2425 222.774C-49.7384 223.836 -50.1107 225.888 -49.113 227.409L-93.0755 262.401C-93.5612 261.894 -94.1742 261.565 -94.8299 261.427L-81.8181 148.595L-81.8211 148.596ZM-92.2869 265.772C-92.1679 265.392 -92.1158 264.991 -92.1346 264.591L-21.6116 254.65L33.2903 318.372L-92.29 265.772L-92.2869 265.772ZM39.1408 323.921C39.5464 323.353 39.7601 322.679 39.7712 321.996L79.8256 318.833L79.4609 355.941C78.8712 355.991 78.2861 356.189 77.7694 356.557C77.6292 356.657 77.5042 356.765 77.3846 356.883L39.1416 323.924L39.1408 323.921ZM79.2738 362.694C79.7262 362.756 80.1917 362.728 80.6404 362.606L101.279 417.379L64.6578 424.875L79.2708 362.695L79.2738 362.694ZM111.113 523.799C110.547 523.698 109.952 523.739 109.395 523.933L65.0963 426.4L120.216 472.248C119.433 473.392 119.397 474.948 120.245 476.145C121.118 477.371 122.649 477.84 124.012 477.426L111.117 523.802L111.113 523.799ZM204.077 508.131L211.133 453.616L214.691 452.775C214.794 453.082 214.943 453.382 215.142 453.659C215.571 454.264 216.168 454.685 216.822 454.907L204.078 508.134L204.077 508.131ZM264.273 441.021C263.799 441.107 263.334 441.294 262.916 441.592C262.696 441.748 262.508 441.927 262.336 442.119L237.857 424.302L258.435 395.487C258.976 395.824 259.598 395.996 260.227 396.001L264.273 441.021ZM262.971 390.581C262.258 389.617 261.128 389.135 260.007 389.21L297.771 371.537L262.974 390.581L262.971 390.581ZM380.522 361.127C379.593 360.423 378.357 360.246 377.26 360.662L345.177 295.145L432.111 301.507C432.124 302.168 432.328 302.832 432.738 303.413C432.818 303.526 432.906 303.63 432.995 303.728L380.519 361.128L380.522 361.127ZM432.281 300.397C432.23 300.555 432.186 300.718 432.159 300.884L344.863 294.492L326.461 256.909C326.515 256.876 326.568 256.844 326.621 256.808C327.113 256.459 327.481 256.001 327.723 255.491L432.281 300.397ZM322.71 256.831C323.637 257.474 324.835 257.619 325.898 257.195L344.134 294.437L299.768 291.188C299.744 290.547 299.542 289.905 299.143 289.344C299.014 289.162 298.869 288.998 298.712 288.849L322.71 256.831ZM293.2 290.084C292.93 290.779 292.893 291.553 293.11 292.279L222.51 320.362L205.444 251.913C205.739 251.811 206.024 251.668 206.293 251.475C206.702 251.182 207.025 250.817 207.263 250.408L293.199 290.081L293.2 290.084ZM103.383 199.286C102.214 200.118 101.731 201.553 102.052 202.868L96.3628 204.833L111.516 153.208L105.487 198.665C104.761 198.635 104.021 198.833 103.38 199.29L103.383 199.286ZM109.004 148.687C108.954 149.02 108.951 149.361 109.002 149.694L44.2122 165.453L38.4802 133.856C38.8498 133.755 39.2102 133.59 39.5401 133.356C40.1368 132.932 40.5547 132.349 40.776 131.705L109.004 148.687ZM34.1878 130.207C34.0967 131.01 34.2889 131.846 34.7927 132.555C34.8833 132.685 34.9868 132.802 35.0926 132.914L-1.74273 174.694C-2.36784 174.238 -3.1226 174.015 -3.88283 174.043L-10.5719 123.846C-10.1118 123.757 -9.65919 123.573 -9.25298 123.281C-8.61513 122.827 -8.18355 122.195 -7.97515 121.499L34.1871 130.204L34.1878 130.207ZM-14.0383 118.602C-14.3342 119.038 -14.5211 119.535 -14.5907 120.048L-80.3761 120.884L-78.2039 70.7462C-77.5952 70.7078 -76.988 70.5078 -76.4553 70.1258C-76.2548 69.9819 -76.0773 69.8243 -75.9172 69.6485L-14.0322 118.601L-14.0383 118.602ZM-78.8372 63.974C-79.3841 64.0391 -79.9236 64.2384 -80.4052 64.5786C-80.8945 64.9271 -81.2612 65.3778 -81.5007 65.8843L-101.969 58.7262L-82.2962 9.63443C-81.974 9.75805 -81.6343 9.83519 -81.2923 9.85673L-78.8372 63.974ZM-135.498 -40.1684C-135.416 -39.9947 -135.319 -39.8278 -135.205 -39.6655C-134.934 -39.2829 -134.599 -38.975 -134.223 -38.7417L-146.912 -9.65032L-178.528 -16.9907C-178.505 -17.4789 -178.587 -17.9764 -178.78 -18.4428L-135.497 -40.1654L-135.498 -40.1684Z" fill="#4F2B2B"/>
<path d="M255.048 88H64V350.469H255.048V88Z" fill="#FBE4C6"/>
<path d="M241.211 206.469H77.8368C77.4904 206.469 77.2108 206.189 77.2108 205.843V106.748C77.2108 106.401 77.4904 106.122 77.8368 106.122H241.211C241.557 106.122 241.837 106.401 241.837 106.748V205.843C241.837 206.189 241.557 206.469 241.211 206.469ZM78.4628 205.217H240.585V107.374H78.4628V205.217Z" fill="black"/>
<path d="M182.736 224.323H80.9632C80.6168 224.323 80.3372 224.044 80.3372 223.697C80.3372 223.351 80.6168 223.071 80.9632 223.071H182.736C183.083 223.071 183.362 223.351 183.362 223.697C183.362 224.044 183.083 224.323 182.736 224.323Z" fill="black"/>
<path d="M225.589 224.323H190.771C190.425 224.323 190.145 224.044 190.145 223.697C190.145 223.351 190.425 223.071 190.771 223.071H225.589C225.935 223.071 226.215 223.351 226.215 223.697C226.215 224.044 225.935 224.323 225.589 224.323Z" fill="black"/>
<path d="M150.597 241.286H80.9632C80.6168 241.286 80.3372 241.007 80.3372 240.66C80.3372 240.314 80.6168 240.034 80.9632 240.034H150.599C150.945 240.034 151.225 240.314 151.225 240.66C151.225 241.007 150.945 241.286 150.599 241.286H150.597Z" fill="black"/>
<path d="M199.697 241.287H158.632C158.285 241.287 158.006 241.007 158.006 240.661C158.006 240.314 158.285 240.034 158.632 240.034H199.697C200.044 240.034 200.323 240.314 200.323 240.661C200.323 241.007 200.044 241.287 199.697 241.287Z" fill="black"/>
<path d="M125.599 258.248H80.9612C80.6148 258.248 80.3352 257.968 80.3352 257.622C80.3352 257.275 80.6148 256.996 80.9612 256.996H125.599C125.945 256.996 126.225 257.275 126.225 257.622C126.225 257.968 125.945 258.248 125.599 258.248Z" fill="black"/>
<path d="M213.982 258.248H133.636C133.289 258.248 133.01 257.968 133.01 257.622C133.01 257.275 133.289 256.996 133.636 256.996H213.982C214.329 256.996 214.608 257.275 214.608 257.622C214.608 257.968 214.329 258.248 213.982 258.248Z" fill="black"/>
<path d="M160.417 275.211H80.9632C80.6168 275.211 80.3372 274.931 80.3372 274.585C80.3372 274.238 80.6168 273.959 80.9632 273.959H160.419C160.765 273.959 161.045 274.238 161.045 274.585C161.045 274.931 160.765 275.211 160.419 275.211H160.417Z" fill="black"/>
<path d="M205.054 275.211H168.451C168.105 275.211 167.825 274.931 167.825 274.585C167.825 274.238 168.105 273.959 168.451 273.959H205.054C205.4 273.959 205.68 274.238 205.68 274.585C205.68 274.931 205.4 275.211 205.054 275.211Z" fill="black"/>
<path d="M134.527 292.172H80.9632C80.6168 292.172 80.3372 291.892 80.3372 291.546C80.3372 291.2 80.6168 290.92 80.9632 290.92H134.529C134.875 290.92 135.155 291.2 135.155 291.546C135.155 291.892 134.875 292.172 134.529 292.172H134.527Z" fill="black"/>
<path d="M234.515 292.172H142.562C142.216 292.172 141.936 291.892 141.936 291.546C141.936 291.2 142.216 290.92 142.562 290.92H234.515C234.862 290.92 235.141 291.2 235.141 291.546C235.141 291.892 234.862 292.172 234.515 292.172Z" fill="black"/>
<path d="M122.029 309.135H80.9632C80.6168 309.135 80.3372 308.856 80.3372 308.509C80.3372 308.163 80.6168 307.883 80.9632 307.883H122.029C122.375 307.883 122.655 308.163 122.655 308.509C122.655 308.856 122.375 309.135 122.029 309.135Z" fill="black"/>
<path d="M195.234 309.135H130.064C129.717 309.135 129.438 308.856 129.438 308.509C129.438 308.163 129.717 307.883 130.064 307.883H195.234C195.581 307.883 195.86 308.163 195.86 308.509C195.86 308.856 195.581 309.135 195.234 309.135Z" fill="black"/>
<path d="M147.027 326.096H80.9632C80.6168 326.096 80.3372 325.817 80.3372 325.47C80.3372 325.124 80.6168 324.844 80.9632 324.844H147.027C147.374 324.844 147.653 325.124 147.653 325.47C147.653 325.817 147.374 326.096 147.027 326.096Z" fill="black"/>
<path d="M190.771 326.096H155.06C154.713 326.096 154.434 325.817 154.434 325.47C154.434 325.124 154.713 324.844 155.06 324.844H190.771C191.118 324.844 191.397 325.124 191.397 325.47C191.397 325.817 191.118 326.096 190.771 326.096Z" fill="black"/>
<path d="M129.616 120.139H103.727V188.882H129.616V120.139Z" fill="#9F5656"/>
<path d="M172.469 145.135H146.579V188.879H172.469V145.135Z" fill="#F2AE54"/>
<path d="M215.321 165.668H189.432V188.879H215.321V165.668Z" fill="#2B6577"/>
<path d="M403.664 241.64L302.446 296.255C300.319 297.402 299.658 300.038 301.008 301.985L327.718 340.522L429.687 285.358L409.549 243.463C408.522 241.326 405.807 240.485 403.666 241.64H403.664Z" fill="black"/>
<path d="M434.368 302.554L406.89 244.657L303.03 299.402L336.59 348.616L434.368 302.554Z" fill="#FBE4C6"/>
<path d="M419.248 270.536L408.838 248.763L304.466 301.509L328.71 337.062L419.248 270.536Z" fill="white"/>
<path d="M306.581 301.065C306.354 301.065 306.135 300.941 306.024 300.724C305.866 300.417 305.985 300.04 306.293 299.882L407.08 248.01C407.388 247.851 407.763 247.971 407.923 248.279C408.081 248.587 407.961 248.964 407.653 249.122L306.867 300.994C306.776 301.043 306.676 301.063 306.581 301.063V301.065Z" fill="black"/>
<path d="M429.297 371.821C421.999 362.262 420.526 349.092 425.545 338.269C427.941 333.099 431.604 328.707 435.146 324.458C436.422 322.927 437.741 321.345 438.96 319.77C441.065 317.054 443.436 313.492 443.087 310.03C442.931 308.474 441.779 306.81 440.283 305.984C439.607 305.609 438.584 305.257 437.567 305.7L435.492 301.336C437.802 300.329 440.393 300.508 442.79 301.833C445.689 303.435 447.761 306.472 448.073 309.572C448.586 314.659 445.624 319.219 442.984 322.627C441.712 324.27 440.365 325.887 439.06 327.451C435.563 331.646 432.259 335.611 430.121 340.218C425.816 349.501 427.08 360.798 433.341 368.997L429.297 371.825V371.821Z" fill="#9F5656"/>
<path d="M308.646 334.787C305.931 332.645 306.255 328.573 309.28 326.851L422.856 262.134C424.353 261.265 426.308 261.863 427.001 263.403L439.404 304.308C439.829 305.71 439.193 307.21 437.868 307.933L341.326 360.573L308.646 334.787Z" fill="#FBE4C6"/>
<path d="M342.874 313.103C342.66 313.103 342.451 312.992 342.333 312.793C342.159 312.493 342.26 312.11 342.558 311.936L421.187 265.98C422.368 265.34 423.839 265.755 424.475 266.889C424.495 266.926 424.514 266.966 424.526 267.007L435.105 300.374C435.211 300.704 435.026 301.055 434.698 301.16C434.364 301.268 434.015 301.083 433.912 300.753L423.355 267.453C423.041 266.956 422.342 266.778 421.801 267.072L343.19 313.018C343.091 313.077 342.982 313.103 342.874 313.103Z" fill="black"/>
<path d="M413.63 311.262C413.569 311.262 413.508 311.253 413.448 311.235C412.623 310.986 411.989 310.37 411.659 309.505C411.262 308.46 411.373 307.228 411.948 306.286C412.046 306.128 412.151 305.976 412.265 305.832C411.26 305.583 410.21 305.255 409.303 304.647C407.915 303.717 407.175 302.242 407.414 300.889C407.577 299.969 408.113 299.27 408.82 298.731C407.179 297.854 405.777 296.555 404.846 294.999C404.574 294.545 404.278 293.94 404.406 293.275C404.515 292.72 404.87 292.315 405.237 291.96C405.324 291.875 405.415 291.792 405.504 291.709C402.787 291.008 400.261 289.639 398.34 287.7C398.097 287.455 398.099 287.058 398.344 286.814C398.589 286.571 398.987 286.573 399.23 286.819C401.213 288.82 403.899 290.161 406.748 290.712C408.535 289.458 410.646 288.654 412.858 288.405C413.494 288.334 414.232 288.312 414.868 288.693C415.299 288.95 415.609 289.418 415.678 289.912C415.735 290.336 415.613 290.731 415.334 291.024C415.079 291.29 414.756 291.411 414.475 291.505C412.113 292.278 409.542 292.43 407.062 292.035C406.728 292.293 406.406 292.568 406.102 292.862C405.881 293.075 405.672 293.302 405.63 293.514C405.583 293.761 405.757 294.094 405.915 294.357C406.861 295.939 408.367 297.218 410.111 297.969C410.796 297.653 411.519 297.422 412.161 297.242C412.483 297.153 412.848 297.039 413.239 296.92C415.931 296.093 418.079 295.526 419.24 296.34C419.538 296.549 419.898 296.95 419.935 297.676C419.969 298.356 419.72 298.942 419.213 299.369C417.441 300.87 412.874 300.026 411.515 299.73C411.057 299.631 410.605 299.499 410.168 299.339C409.392 299.768 408.776 300.338 408.64 301.107C408.466 302.092 409.193 303.073 409.993 303.608C410.954 304.252 412.161 304.531 413.33 304.801C414.218 304.138 415.269 303.689 416.248 303.304C417.645 302.757 419.424 302.252 420.816 303.204C421.055 303.368 421.15 303.674 421.045 303.946C420.534 305.273 419.084 306.27 417.348 306.484C416.079 306.64 414.811 306.415 413.654 306.158C413.403 306.393 413.184 306.653 413.008 306.942C412.635 307.55 412.562 308.383 412.822 309.061C412.955 309.412 413.233 309.866 413.804 310.04C414.134 310.139 414.321 310.49 414.222 310.82C414.141 311.089 413.891 311.264 413.622 311.264L413.63 311.262ZM415.125 305.163C415.822 305.271 416.517 305.321 417.204 305.238C418.235 305.111 419.116 304.645 419.602 303.999C418.733 303.759 417.627 304.108 416.714 304.467C416.189 304.671 415.644 304.898 415.125 305.165V305.163ZM412.09 298.565C414.532 299.059 417.463 299.215 418.413 298.409C418.622 298.233 418.707 298.024 418.693 297.73C418.681 297.497 418.604 297.412 418.529 297.36C417.781 296.833 415.174 297.633 413.616 298.111C413.213 298.235 412.836 298.35 412.506 298.443C412.37 298.482 412.23 298.522 412.088 298.565H412.09ZM408.731 290.964C410.549 291.081 412.38 290.87 414.092 290.309C414.191 290.277 414.376 290.216 414.434 290.153C414.426 289.959 414.337 289.827 414.232 289.764C413.912 289.572 413.429 289.594 413.004 289.645C411.499 289.813 410.046 290.267 408.731 290.962V290.964Z" fill="black"/>
<path d="M405.968 367.501L399.586 330.261C399.037 327.06 396.148 324.708 392.759 324.703C388.932 324.699 385.826 327.663 385.822 331.324L385.775 363.764L405.968 367.501Z" fill="#FFBE97"/>
<path d="M395.873 363.725L389.491 326.484C388.942 323.283 386.053 320.931 382.664 320.927C378.837 320.923 375.731 323.887 375.727 327.548L375.68 359.987L395.873 363.725Z" fill="#FFBE97"/>
<path d="M383.719 363.709L377.338 326.468C376.789 323.267 373.9 320.915 370.51 320.911C366.683 320.907 363.577 323.871 363.573 327.532L363.527 359.971L383.719 363.709Z" fill="#FFBE97"/>
<path d="M371.202 367.455L364.821 330.214C364.272 327.013 361.383 324.661 357.993 324.657C354.166 324.653 351.061 327.617 351.056 331.278L351.01 363.717L371.202 367.455Z" fill="#FFBE97"/>
<path d="M405.968 367.502L383.695 382.167L333.374 380.048L318.391 359.501L324.946 350.393C328.091 346.025 333.634 343.847 339.077 344.843L345.577 346.033L354.645 347.161L405.968 367.504V367.502Z" fill="#FFBE97"/>
<path d="M394.584 356.841C394.286 356.841 394.021 356.626 393.968 356.32L389.27 328.903C389.213 328.563 389.442 328.239 389.783 328.18C390.117 328.121 390.447 328.35 390.506 328.693L395.204 356.11C395.261 356.45 395.032 356.774 394.691 356.833C394.655 356.839 394.62 356.841 394.584 356.841Z" fill="#4F2B2B"/>
<path d="M382.108 356.823C381.807 356.823 381.541 356.604 381.49 356.296L376.719 326.567C376.665 326.227 376.898 325.905 377.24 325.85C377.572 325.802 377.903 326.028 377.957 326.371L382.728 356.099C382.783 356.44 382.55 356.762 382.208 356.817C382.175 356.821 382.141 356.825 382.106 356.825L382.108 356.823Z" fill="#4F2B2B"/>
<path d="M363.743 353.002C363.399 353.002 363.119 352.724 363.117 352.38L362.949 327.536C362.947 327.191 363.225 326.908 363.571 326.906H363.575C363.919 326.906 364.199 327.183 364.201 327.528L364.369 352.372C364.371 352.716 364.094 353 363.747 353.002H363.743Z" fill="#4F2B2B"/>
<path d="M270.896 340.427L168.23 340.415L171.95 276.231C180.519 252.692 206.522 239.379 231.739 245.621C254.853 251.344 270.222 271.744 269.211 294.025C268.826 302.516 269.164 311.02 269.665 319.507L270.898 340.427H270.896Z" fill="#4F2B2B"/>
<path d="M266.136 451.489C265.54 449.781 318.214 359.428 318.214 359.428L360.767 380.573L344.102 451.489H266.136Z" fill="#B4185C"/>
<path d="M42.3526 451.489C42.3526 451.489 12.235 445.636 21.8197 414.749C31.7448 382.763 81.7976 325.538 106.632 315.636C149.484 298.547 283.397 322.471 300.656 335.573C317.915 348.675 333.391 451.489 333.391 451.489H42.3526Z" fill="#B4185C"/>
<path d="M215.844 335.003C226.198 335.003 234.592 326.97 234.592 317.06C234.592 307.15 226.198 299.116 215.844 299.116C205.489 299.116 197.096 307.15 197.096 317.06C197.096 326.97 205.489 335.003 215.844 335.003Z" fill="#FFBE97"/>
<path d="M223.321 327.104C208.955 328.109 197.751 317.907 197.246 317.439C196.936 317.151 196.889 316.641 197.142 316.299C197.395 315.957 197.853 315.913 198.163 316.198C198.29 316.317 211.129 327.991 226.387 325.072C226.778 325.001 227.161 325.293 227.234 325.735C227.308 326.177 227.048 326.596 226.653 326.67C225.525 326.886 224.415 327.028 223.319 327.104L223.321 327.104Z" fill="#4F2B2B"/>
<path d="M258.536 300.762C261.863 283.661 247.247 266.428 225.889 262.273C204.531 258.118 184.52 268.613 181.193 285.714C177.866 302.816 192.482 320.048 213.84 324.204C235.197 328.359 255.208 317.864 258.536 300.762Z" fill="#FFBE97"/>
<path d="M259.154 310.542C264.054 310.542 268.026 306.741 268.026 302.052C268.026 297.362 264.054 293.561 259.154 293.561C254.255 293.561 250.283 297.362 250.283 302.052C250.283 306.741 254.255 310.542 259.154 310.542Z" fill="#FFBE97"/>
<path d="M179.328 292.013C184.228 292.013 188.2 288.212 188.2 283.522C188.2 278.833 184.228 275.032 179.328 275.032C174.428 275.032 170.457 278.833 170.457 283.522C170.457 288.212 174.428 292.013 179.328 292.013Z" fill="#FFBE97"/>
<path d="M245.272 291.417C245.155 291.417 245.037 291.385 244.934 291.318C241.794 289.294 237.612 288.749 234.022 289.894C233.688 290.003 233.341 289.817 233.234 289.489C233.129 289.16 233.311 288.806 233.639 288.703C237.582 287.447 242.166 288.046 245.61 290.267C245.902 290.455 245.985 290.842 245.797 291.132C245.677 291.318 245.477 291.419 245.27 291.419L245.272 291.417Z" fill="#4F2B2B"/>
<path d="M210.787 284.74C210.665 284.74 210.542 284.703 210.432 284.631C207.41 282.556 203.556 281.565 199.851 281.914C199.512 281.948 199.2 281.693 199.168 281.349C199.136 281.004 199.389 280.698 199.733 280.666C203.73 280.295 207.884 281.361 211.143 283.599C211.429 283.796 211.5 284.185 211.305 284.47C211.184 284.647 210.989 284.742 210.789 284.742L210.787 284.74Z" fill="#4F2B2B"/>
<path d="M220.021 301.782C219.683 301.782 219.405 301.515 219.395 301.176C219.249 296.59 221.251 290.824 227.367 289.669C227.699 289.604 228.036 289.827 228.099 290.167C228.163 290.508 227.941 290.834 227.6 290.899C222.266 291.906 220.511 296.849 220.649 301.138C220.659 301.484 220.388 301.772 220.043 301.782C220.037 301.782 220.029 301.782 220.023 301.782H220.021Z" fill="#4F2B2B"/>
<path d="M245.852 315.279C246.238 313.562 243.857 311.565 240.535 310.82C237.213 310.074 234.207 310.862 233.822 312.579C233.436 314.296 235.817 316.293 239.139 317.038C242.461 317.784 245.467 316.996 245.852 315.279Z" fill="#EE898E"/>
<path d="M204.622 305.712C205.008 303.995 202.627 301.998 199.305 301.253C195.983 300.507 192.977 301.295 192.592 303.012C192.206 304.729 194.587 306.726 197.909 307.471C201.231 308.217 204.237 307.429 204.622 305.712Z" fill="#EE898E"/>
<path d="M245.852 315.279C246.238 313.562 243.857 311.565 240.535 310.82C237.213 310.074 234.207 310.862 233.822 312.579C233.436 314.296 235.817 316.293 239.139 317.038C242.461 317.784 245.467 316.996 245.852 315.279Z" fill="#FB8876"/>
<path d="M204.622 305.712C205.008 303.995 202.627 301.998 199.305 301.253C195.983 300.507 192.977 301.295 192.592 303.012C192.206 304.729 194.587 306.726 197.909 307.471C201.231 308.217 204.237 307.429 204.622 305.712Z" fill="#FB8876"/>
<path d="M176.433 284.511L181.429 285.67C182.233 285.856 183.043 285.384 183.238 284.614C183.432 283.844 182.938 283.069 182.134 282.882L177.138 281.723C176.334 281.537 175.523 282.009 175.329 282.779C175.134 283.549 175.628 284.325 176.433 284.511Z" fill="#4F2B2B"/>
<path d="M235.439 306.059C234.559 305.854 234.018 305.005 234.231 304.165L234.855 301.699C235.068 300.856 235.955 300.34 236.835 300.544C237.714 300.749 238.255 301.598 238.042 302.439L237.418 304.904C237.205 305.747 236.318 306.264 235.439 306.059Z" fill="#4F2B2B"/>
<path d="M204.626 298.907C203.747 298.703 203.206 297.854 203.419 297.013L204.043 294.547C204.255 293.705 205.143 293.188 206.022 293.393C206.901 293.597 207.442 294.446 207.229 295.287L206.605 297.753C206.393 298.595 205.505 299.112 204.626 298.907Z" fill="#4F2B2B"/>
<path d="M217.878 317.418C217.094 317.418 216.302 317.333 215.515 317.155C210.738 316.077 207.365 311.879 207.499 307.177C207.519 306.519 207.831 305.909 208.358 305.5C208.899 305.08 209.6 304.926 210.274 305.078L225.797 308.581C226.474 308.733 227.031 309.173 227.325 309.785C227.612 310.384 227.61 311.073 227.317 311.673C225.588 315.224 221.842 317.418 217.88 317.418H217.878ZM209.762 306.274C209.533 306.274 209.31 306.349 209.128 306.49C208.899 306.669 208.763 306.932 208.753 307.214C208.635 311.318 211.597 314.987 215.793 315.933C219.995 316.883 224.371 314.862 226.19 311.126C226.316 310.866 226.318 310.583 226.194 310.328C226.067 310.062 225.821 309.872 225.52 309.805L209.997 306.302C209.918 306.284 209.839 306.276 209.76 306.276L209.762 306.274Z" fill="#4F2B2B"/>
<path d="M258.206 303.49L263.202 304.649C264.006 304.835 264.817 304.363 265.011 303.593C265.206 302.823 264.711 302.048 263.907 301.861L258.911 300.702C258.107 300.516 257.296 300.988 257.102 301.758C256.907 302.528 257.402 303.304 258.206 303.49Z" fill="#4F2B2B"/>
<path d="M220.198 277.216C223.672 280.259 227.635 283.15 232.298 283.79C234.57 284.102 236.944 283.865 239.114 284.582C240.641 285.086 241.958 286.028 243.324 286.855C249.454 290.564 257.025 292.039 264.183 290.919C264.602 289.347 263.717 287.752 262.844 286.363C257.572 277.971 251.373 269.878 243.036 264.203C236.138 259.509 224.199 254.732 215.54 257.513C205.044 260.884 215.414 273.026 220.2 277.218L220.198 277.216Z" fill="#4F2B2B"/>
<path d="M285.181 417.939C285.078 417.939 284.973 417.913 284.877 417.86C284.575 417.692 284.466 417.311 284.634 417.009L314.095 364.035C314.262 363.731 314.647 363.626 314.946 363.792C315.248 363.96 315.358 364.341 315.189 364.643L285.728 417.617C285.615 417.822 285.4 417.939 285.181 417.939Z" fill="#4F2B2B"/>
<path d="M102.168 432.463C102.105 432.463 102.04 432.453 101.978 432.435C101.649 432.33 101.467 431.977 101.572 431.647L124.784 359.021C124.889 358.693 125.241 358.514 125.572 358.616C125.9 358.721 126.082 359.074 125.977 359.404L102.766 432.03C102.681 432.295 102.433 432.465 102.168 432.465V432.463Z" fill="#4F2B2B"/>
<path d="M69.7432 388.709L101.879 374.049C107.053 371.689 113.208 372.607 117.387 376.359L135.556 392.674L69.7432 388.709Z" fill="#4F2B2B"/>
<path d="M153.124 417.824L143.398 410.53L141.923 412.331L151.65 419.625C152.17 420.014 152.922 419.927 153.329 419.43C153.736 418.932 153.645 418.213 153.124 417.824Z" fill="black"/>
<path d="M60.8816 342.667L55.4439 338.589C53.8272 337.376 51.4873 337.647 50.2211 339.195L47.2713 342.799C46.0031 344.347 46.2887 346.586 47.9054 347.797L53.343 351.875L60.8836 342.667H60.8816Z" fill="black"/>
<path d="M150.221 412.09L134.64 396.691L125.788 407.502L145.136 418.3C146.931 419.554 149.443 419.222 150.815 417.546C152.186 415.871 151.923 413.458 150.221 412.09Z" fill="black"/>
<path d="M80.7928 384.321L45.6468 357.961L52.2068 349.949L58.9147 354.979L57.61 356.574L86.0481 377.901L80.7928 384.321Z" fill="black"/>
<path d="M134.849 396.847L61.0132 341.474L52.1619 352.285L125.999 407.658L134.849 396.847Z" fill="#FBE4C6"/>
<path d="M120.179 400.129L61.1938 355.893L62.2432 354.608L121.228 398.845L120.179 400.129Z" fill="black"/>
<path d="M124.767 394.524L65.7822 350.287L66.8337 349.003L125.819 393.239L124.767 394.524Z" fill="black"/>
<path d="M70.44 355.222L63.0089 349.649L61.2605 351.784L68.6916 357.358L70.44 355.222Z" fill="black"/>
<path d="M75.4603 358.986L72.0243 356.409L70.2759 358.545L73.7119 361.122L75.4603 358.986Z" fill="black"/>
<path d="M74.9214 454.896C61.0194 458.906 46.2989 451.383 42.1681 438.063C39.4594 429.331 38.5538 419.416 43.2074 410.82C54.6316 389.72 92.3566 380.21 92.3566 380.21L96.5848 448.648L74.9214 454.896Z" fill="#FFBE97"/>
<path d="M92.3567 380.21L144.938 395.38C148.654 396.531 150.902 400.141 150.187 403.816C149.468 407.518 145.975 410.121 142.049 409.88L90.3754 405.506L92.3547 380.21H92.3567Z" fill="#FFBE97"/>
<path d="M81.834 396L126.522 407.99C130.282 408.999 132.677 412.522 132.116 416.221C131.551 419.947 128.165 422.68 124.235 422.587L77.6281 421.495L81.836 395.998L81.834 396Z" fill="#FFBE97"/>
<path d="M74.1759 409.26L118.864 421.25C122.624 422.259 125.019 425.782 124.458 429.481C123.892 433.207 120.507 435.94 116.577 435.847L69.9701 434.755L74.178 409.258L74.1759 409.26Z" fill="#FFBE97"/>
<path d="M63.4891 421.669L108.177 433.659C111.937 434.667 114.332 438.191 113.771 441.89C113.206 445.616 109.82 448.349 105.89 448.255L59.2832 447.163L63.4911 421.667L63.4891 421.669Z" fill="#FFBE97"/>
<path d="M126.522 408.618C126.49 408.618 126.455 408.616 126.423 408.61L96.3415 403.845C96.0011 403.79 95.7661 403.47 95.8208 403.128C95.8755 402.787 96.2017 402.554 96.538 402.607L126.619 407.372C126.96 407.427 127.195 407.747 127.14 408.089C127.091 408.397 126.824 408.618 126.522 408.618Z" fill="#4F2B2B"/>
<path d="M123.797 423.188C123.765 423.188 123.73 423.186 123.698 423.18L98.3392 419.165C97.9988 419.11 97.7638 418.79 97.8185 418.448C97.8732 418.105 98.1994 417.876 98.5357 417.927L123.894 421.942C124.235 421.997 124.47 422.317 124.415 422.66C124.366 422.968 124.099 423.188 123.797 423.188Z" fill="#4F2B2B"/>
<path d="M112.606 436.13C112.574 436.13 112.539 436.128 112.507 436.122L95.5072 433.43C95.1668 433.375 94.9318 433.055 94.9865 432.712C95.0412 432.37 95.3653 432.139 95.7037 432.192L112.703 434.884C113.044 434.939 113.279 435.259 113.224 435.601C113.175 435.909 112.908 436.13 112.606 436.13Z" fill="#4F2B2B"/>
<path d="M195.546 438.008H103.72L104.731 434.999C107.549 426.61 115.703 420.919 124.911 420.919H174.354C183.562 420.919 191.719 426.608 194.535 434.999L195.546 438.008Z" fill="#FBE4C6"/>
<path d="M182.428 438.008H274.253L273.243 434.999C270.424 426.61 262.27 420.919 253.062 420.919H203.619C194.411 420.919 186.255 426.608 183.439 434.999L182.428 438.008Z" fill="#FBE4C6"/>
<path d="M280.493 436.298H97.4802V447.406H280.493V436.298Z" fill="#2B6577"/>
<path d="M12 460.034C12 452.956 17.9948 447.218 25.3915 447.218H348.567C355.964 447.218 361.959 452.956 361.959 460.034H12Z" fill="#3F97B1"/>
<path d="M180.282 432.242H113.327C112.981 432.242 112.701 431.962 112.701 431.616C112.701 431.27 112.981 430.99 113.327 430.99H180.282C180.629 430.99 180.908 431.27 180.908 431.616C180.908 431.962 180.629 432.242 180.282 432.242Z" fill="#2B6577"/>
<path d="M263.308 432.242H196.353C196.006 432.242 195.727 431.962 195.727 431.616C195.727 431.27 196.006 430.99 196.353 430.99H263.308C263.654 430.99 263.934 431.27 263.934 431.616C263.934 431.962 263.654 432.242 263.308 432.242Z" fill="#2B6577"/>
<path d="M239.734 273.014C239.603 273.014 239.475 272.976 239.361 272.896C233.073 268.496 227.905 262.561 224.41 255.728C223.267 253.491 222.005 250.533 222.393 247.494C222.44 247.135 222.773 246.884 223.123 246.931C223.482 246.977 223.733 247.304 223.687 247.661C223.341 250.345 224.512 253.065 225.571 255.135C228.966 261.778 233.993 267.551 240.108 271.828C240.401 272.035 240.475 272.442 240.266 272.736C240.139 272.917 239.937 273.014 239.732 273.014H239.734Z" fill="#4F2B2B"/>
<path d="M261.783 278.781C261.652 278.781 261.521 278.743 261.407 278.663C253.503 273.086 246.508 266.365 240.618 258.688C238.998 256.578 237.54 254.27 237.829 251.702C237.869 251.343 238.213 251.09 238.55 251.126C238.909 251.166 239.166 251.489 239.126 251.847C238.888 253.958 240.2 256 241.654 257.893C247.464 265.464 254.364 272.094 262.161 277.595C262.454 277.802 262.526 278.209 262.317 278.505C262.19 278.684 261.988 278.781 261.785 278.781H261.783Z" fill="#4F2B2B"/>
</g>
<defs>
<clipPath id="clip0_760_10952">
<rect width="460" height="460" fill="white"/>
</clipPath>
</defs>
</svg>
