<svg width="460" height="460" viewBox="0 0 460 460" fill="none" xmlns="http://www.w3.org/2000/svg">
<g clip-path="url(#clip0_760_11926)">
<rect width="460" height="460" fill="white"/>
<path d="M672.064 422.565C670.706 421.679 668.988 421.793 667.765 422.72L609.352 358.735C609.486 358.589 609.611 358.432 609.724 358.263C610.851 356.529 610.362 354.213 608.631 353.084C606.901 351.955 604.582 352.446 603.453 354.177C603.272 354.454 603.137 354.745 603.037 355.046L556.137 344.235C556.323 342.847 555.725 341.414 554.474 340.601C552.744 339.472 550.425 339.963 549.296 341.693C548.798 342.46 548.616 343.341 548.716 344.182L497.032 355.298C496.78 354.498 496.261 353.777 495.504 353.282C494.682 352.748 493.732 352.581 492.837 352.731L460.667 232.01C461.398 231.744 462.053 231.246 462.512 230.545C463.641 228.815 463.15 226.496 461.42 225.367C459.689 224.238 457.37 224.729 456.241 226.459C455.914 226.964 455.727 227.518 455.663 228.077L304.661 224.844C305.522 223.16 304.989 221.062 303.37 220.006C301.639 218.877 299.32 219.368 298.191 221.099C298.088 221.257 298.004 221.419 297.929 221.587L245.503 203.273C245.876 201.768 245.288 200.129 243.917 199.236C243.227 198.786 242.444 198.598 241.679 198.638L231.572 129.129L232.471 129.426L231.471 128.459L231.41 128.04L231.187 128.186L145.644 45.3697C145.72 45.2733 145.793 45.1742 145.863 45.0694C146.992 43.3388 146.501 41.0201 144.77 39.8908C143.04 38.7616 140.721 39.2528 139.592 40.9834C138.462 42.714 138.954 45.0327 140.684 46.162C141.327 46.5816 142.055 46.7753 142.77 46.7662L148.328 99.9916C148.265 100.07 148.204 100.152 148.148 100.239C147.865 100.67 147.687 101.14 147.6 101.618L57.1239 93.8068C57.1143 92.5915 56.5198 91.4072 55.4256 90.6941C53.695 89.5648 51.3762 90.0561 50.247 91.7866C49.1178 93.5172 49.609 95.836 51.3396 96.9652C52.0228 97.4114 52.8034 97.6015 53.5604 97.5622L62.3631 159.918C61.463 160.131 60.6365 160.674 60.0898 161.514C59.3565 162.639 59.3106 164.009 59.8372 165.14L21.1409 187.806C20.8781 187.438 20.5466 187.11 20.1443 186.849C18.4138 185.72 16.095 186.212 14.9658 187.942C13.8365 189.673 14.3278 191.991 16.0583 193.121C17.1105 193.804 18.3767 193.89 19.4629 193.467L41.7522 237.911C41.3018 238.19 40.9044 238.567 40.5945 239.043C39.5814 240.597 39.8745 242.62 41.1965 243.837L8.61582 282.93C6.88725 281.834 4.59539 282.327 3.4754 284.046C2.34617 285.777 2.8374 288.096 4.56795 289.225C4.86944 289.422 5.18942 289.567 5.51946 289.667L-1.16981 327.228C-2.49622 327.117 -3.84038 327.719 -4.61746 328.914C-4.82048 329.225 -4.96727 329.554 -5.06588 329.892L-61.9517 318.574C-61.8122 317.223 -62.4109 315.843 -63.6284 315.052C-65.359 313.923 -67.6778 314.414 -68.807 316.144C-69.9362 317.875 -69.445 320.194 -67.7144 321.323C-67.5872 321.406 -67.4575 321.475 -67.325 321.542L-97.8944 401.44C-99.4275 401.01 -101.126 401.598 -102.039 403C-103.168 404.731 -102.677 407.05 -100.947 408.179C-99.2161 409.308 -96.8973 408.817 -95.7681 407.086C-95.4453 406.593 -95.2602 406.049 -95.1931 405.501L29.9577 409.304C30.0843 410.368 30.6624 411.369 31.6294 411.999C33.36 413.128 35.6788 412.637 36.808 410.906C37.9372 409.176 37.446 406.857 35.7154 405.728C35.5432 405.617 35.363 405.525 35.1811 405.443L46.8402 362.975C48.297 363.268 49.8552 362.674 50.7155 361.352C50.9953 360.923 51.1751 360.456 51.2618 359.982L155.227 365.942C155.268 367.118 155.863 368.255 156.921 368.947C158.651 370.077 160.97 369.585 162.099 367.855C163.229 366.124 162.737 363.806 161.007 362.676C160.609 362.417 160.179 362.248 159.744 362.155L165.376 314.32C166.629 314.351 167.871 313.754 168.605 312.623L168.438 312.925L275.63 372.156C274.908 373.804 275.458 375.776 277.012 376.789C277.814 377.312 278.741 377.482 279.618 377.348L291.961 427.046C291.206 427.308 290.528 427.809 290.06 428.533C288.932 430.266 289.422 432.582 291.152 433.712C292.883 434.841 295.202 434.35 296.331 432.619C296.771 431.945 296.963 431.179 296.93 430.431L373.602 420.306C373.81 421.223 374.356 422.06 375.205 422.613C376.936 423.742 379.254 423.251 380.384 421.52C380.853 420.799 381.04 419.978 380.973 419.182L427.632 411.094C427.863 411.952 428.396 412.73 429.198 413.253C430.929 414.382 433.247 413.891 434.377 412.16C434.496 411.977 434.593 411.785 434.677 411.594L517.769 436.753C517.506 438.193 518.106 439.713 519.408 440.562C520.389 441.199 521.557 441.32 522.594 440.989L546.921 495.381C546.388 495.668 545.916 496.089 545.56 496.632C544.431 498.362 544.922 500.681 546.653 501.81C548.386 502.938 550.702 502.448 551.831 500.718C551.838 500.704 551.846 500.691 551.855 500.68L594.463 517.556L616.985 526.477C616.702 527.93 617.296 529.476 618.613 530.336C620.344 531.465 622.663 530.974 623.792 529.243C624.669 527.896 624.566 526.2 623.666 524.979L659.266 485.23C659.309 485.259 659.35 485.293 659.397 485.323C661.128 486.453 663.446 485.961 664.575 484.231C665.705 482.5 665.214 480.181 663.483 479.052C663.072 478.785 662.628 478.609 662.175 478.521L669.792 429.435C671.092 429.514 672.396 428.915 673.156 427.744C674.286 426.013 673.794 423.695 672.064 422.565ZM620.633 523.459C619.418 523.468 618.234 524.063 617.521 525.157C617.384 525.369 617.273 525.589 617.181 525.811L591.643 515.697L552.171 500.064C552.307 499.725 552.388 499.374 552.42 499.021L621.886 488.728L620.631 523.456L620.633 523.459ZM375.579 416.129L356.954 386.067L397.789 357.292C398.017 357.558 398.284 357.8 398.592 358C398.737 358.097 398.89 358.174 399.044 358.247L378.189 415.855C377.308 415.626 376.379 415.728 375.579 416.129ZM296.036 428.149C295.808 427.883 295.542 427.64 295.233 427.44C295.052 427.323 294.87 427.228 294.681 427.147L323.838 338.266C324.685 338.46 325.57 338.35 326.337 337.968L356.024 385.882L296.038 428.151L296.036 428.149ZM69.5656 159.563L80.3489 202.415L65.0139 166.841C65.5398 166.555 66.0039 166.135 66.3589 165.597C67.1488 164.384 67.1418 162.887 66.4767 161.711L69.5656 159.563ZM56.5161 95.8698C56.7967 95.4363 56.9766 94.9685 57.064 94.4903L147.539 102.307C147.544 102.944 147.711 103.571 148.027 104.127L69.9945 158.421L54.6264 97.3493C55.3764 97.0859 56.0498 96.5844 56.5189 95.8678L56.5161 95.8698ZM456.299 230.64C456.543 230.988 456.848 231.297 457.211 231.556L426.325 285.09C424.668 284.325 422.654 284.869 421.628 286.446L388.52 269.027L456.299 230.64ZM659.322 479.096C659.257 479.143 659.19 479.191 659.129 479.242L626.74 436.257C626.972 436.045 627.18 435.808 627.359 435.535C627.828 434.819 628.012 434 627.952 433.207L638.695 431.379L659.322 479.096ZM564.403 375.461L552.723 364.226C552.797 364.135 552.868 364.038 552.935 363.935C553.352 363.294 553.547 362.573 553.541 361.864L565.529 360.668L620.638 429.564L564.403 375.461ZM552.246 364.724L593.089 404.017L621.3 431.158C621.225 431.249 621.155 431.347 621.088 431.449C620.715 432.021 620.522 432.655 620.49 433.294L549.712 436.048L550.124 365.622C550.898 365.553 551.643 365.247 552.245 364.728L552.246 364.724ZM627.835 432.527C627.606 431.663 627.073 430.881 626.266 430.357C625.487 429.847 624.588 429.67 623.732 429.784L607.755 359.798L638.413 430.728L627.832 432.529L627.835 432.527ZM604.543 359.352C605.322 359.862 606.221 360.039 607.078 359.925L623.06 429.937C622.748 430.04 622.447 430.183 622.169 430.365L566.353 360.585L602.917 356.93C603.106 357.891 603.661 358.776 604.546 359.35L604.543 359.352ZM602.844 356.244L565.836 359.944L555.025 346.429C555.223 346.237 555.408 346.02 555.564 345.781C555.744 345.504 555.88 345.212 555.979 344.912L602.879 355.723C602.855 355.897 602.841 356.073 602.843 356.249L602.844 356.244ZM552.237 347.471C553.028 347.509 553.818 347.302 554.484 346.861L565.015 360.024L553.473 361.179C553.284 360.219 552.729 359.333 551.844 358.759C551.478 358.519 551.082 358.357 550.677 358.259L552.237 347.471ZM546.221 362.982L502.277 380.939L494.999 359.825C495.628 359.541 496.188 359.083 496.597 358.46C496.87 358.04 497.046 357.584 497.136 357.121L546.06 361.875C546.059 362.249 546.113 362.622 546.221 362.982ZM433.994 407.591C433.787 407.366 433.549 407.157 433.279 406.981C432.75 406.637 432.17 406.444 431.585 406.39L428.799 355.682L489.728 356.701C489.781 357.381 490.015 358.037 490.416 358.6L433.992 407.593L433.994 407.591ZM164 307.137L146.637 271.295C147.137 271.009 147.584 270.606 147.918 270.087C148.082 269.835 148.208 269.571 148.306 269.298L162.58 271.29L164.649 306.928C164.425 306.978 164.208 307.048 163.995 307.136L164 307.137ZM1.90337 332.53C2.40971 331.443 2.35228 330.202 1.80919 329.185L22.5461 315.429L45.3358 356.32C44.9958 356.576 44.6904 356.891 44.4444 357.266L1.90618 332.528L1.90337 332.53ZM45.9215 355.958L23.1206 315.045L87.6375 272.25C87.8798 272.548 88.1692 272.817 88.5088 273.037C88.5469 273.061 88.5879 273.083 88.6261 273.107L48.8236 355.785C47.86 355.445 46.8146 355.52 45.9243 355.956L45.9215 355.958ZM422.715 291.624C422.86 291.72 423.008 291.797 423.162 291.87L401.58 351.248C400.55 350.977 399.452 351.162 398.569 351.745L369.315 315.29L421.546 290.4C421.83 290.877 422.22 291.298 422.715 291.624ZM398.031 352.18C397.832 352.372 397.653 352.585 397.494 352.826C397.331 353.074 397.208 353.335 397.111 353.604L328.213 335.786C328.32 335.459 328.38 335.128 328.394 334.796L368.671 315.601L398.028 352.182L398.031 352.18ZM328.356 334.046C328.279 333.57 328.116 333.109 327.866 332.694L346.141 297.673L347.909 294.281C349.045 294.749 350.32 294.62 351.333 293.982L368.235 315.043L328.361 334.042L328.356 334.046ZM347.288 293.957C347.288 293.957 347.29 293.96 347.292 293.962L345.53 297.341L327.401 332.083C327.198 331.864 326.964 331.661 326.701 331.488C326.265 331.205 325.793 331.024 325.315 330.937L318.366 299.267L345.828 292.142C346.099 292.861 346.59 293.508 347.285 293.959L347.288 293.957ZM421.249 289.776L368.87 314.738L351.877 293.561C352.096 293.357 352.296 293.126 352.466 292.864C352.82 292.319 353.015 291.718 353.062 291.111L421.045 288.95C421.08 289.23 421.15 289.507 421.249 289.776ZM303.187 226.383L346.842 288.032C346.601 288.247 346.381 288.497 346.195 288.778C345.655 289.609 345.489 290.572 345.649 291.476L318.222 298.589L302.451 226.708C302.708 226.627 302.951 226.517 303.185 226.38L303.187 226.383ZM317.554 298.764L285.642 307.044C285.361 306.383 284.889 305.799 284.241 305.378C283.989 305.215 283.723 305.086 283.451 304.991L294.014 257.547L300.846 226.856C301.159 226.896 301.471 226.898 301.777 226.858L317.554 298.764ZM152.502 105.82L166.362 137.256L174.927 156.689C174.411 156.976 173.956 157.386 173.61 157.917C172.93 158.958 172.842 160.209 173.251 161.287L156.618 169.434L151.957 105.966C152.144 105.931 152.326 105.882 152.504 105.822L152.502 105.82ZM192.694 272L162.027 220.767C162.38 220.507 162.702 220.184 162.953 219.793C163.39 219.12 163.582 218.36 163.553 217.612L184.558 213.62L193.403 271.745C193.157 271.805 192.917 271.891 192.689 271.999L192.694 272ZM163.467 216.926C163.259 216.01 162.714 215.168 161.86 214.614C161.646 214.474 161.425 214.361 161.195 214.27L176.027 163.632C176.336 163.691 176.65 163.709 176.96 163.691L184.454 212.939L163.464 216.928L163.467 216.926ZM173.553 161.908C173.835 162.369 174.218 162.779 174.702 163.096C174.914 163.233 175.138 163.349 175.363 163.439L170.058 181.524L160.51 214.071C160.303 214.032 160.096 214.014 159.888 214.009L156.67 170.174L173.554 161.903L173.553 161.908ZM159.201 214.063C158.204 214.23 157.278 214.794 156.682 215.707C156.441 216.078 156.278 216.474 156.181 216.879L85.4634 206.694C85.4882 206.176 85.4058 205.662 85.2218 205.178L156 170.507L159.198 214.065L159.201 214.063ZM84.8662 208.546C85.1066 208.175 85.2695 207.779 85.3669 207.374L156.085 217.559C156.045 218.312 156.239 219.065 156.636 219.712L122.267 245.589L84.6382 208.857C84.7194 208.757 84.7938 208.653 84.8641 208.543L84.8662 208.546ZM157.051 220.264C157.263 220.495 157.502 220.706 157.774 220.885C157.857 220.941 157.943 220.985 158.027 221.032L145.679 264.42C144.516 264.133 143.274 264.421 142.356 265.199L122.767 246.076L157.051 220.264ZM146.823 264.911C146.664 264.808 146.498 264.723 146.332 264.646L158.668 221.305C159.004 221.413 159.346 221.47 159.69 221.483L162.542 270.588L148.48 268.626C148.701 267.216 148.101 265.739 146.828 264.912L146.823 264.911ZM160.378 221.442C160.678 221.398 160.974 221.319 161.256 221.203L192.091 272.362C191.74 272.621 191.426 272.942 191.173 273.331C190.93 273.704 190.766 274.105 190.67 274.517L163.238 270.689L160.38 221.445L160.378 221.442ZM279.065 306.469C279.035 306.516 279.01 306.563 278.982 306.613L231.001 288.702L197.924 276.353C198.132 275.585 198.084 274.779 197.81 274.05L257.728 244.805L280.782 305.049C280.101 305.327 279.496 305.805 279.065 306.469ZM196.055 272.06C195.434 271.73 194.757 271.597 194.094 271.637L185.244 213.487L238.27 203.408C238.48 204.137 238.911 204.806 239.54 205.307L196.055 272.06ZM238.139 202.73L185.138 212.803L177.647 163.583C178.43 163.39 179.15 162.948 179.678 162.279L238.552 200.631C238.201 201.294 238.068 202.024 238.139 202.73ZM178.789 156.82C177.793 156.172 176.605 156.06 175.559 156.408L169.315 142.241L153.134 105.534C153.266 105.457 153.397 105.372 153.521 105.279L195.361 151.509L180.209 161.374C180.878 159.743 180.321 157.819 178.789 156.82ZM149.564 105.615C150.107 105.894 150.689 106.026 151.268 106.029L155.949 169.763L84.9222 204.555C84.7048 204.197 84.427 203.873 84.0895 203.596L149.564 105.615ZM84.1572 209.349L121.713 246.009L93.3181 267.388C93.1066 267.157 92.867 266.946 92.5948 266.766C91.9116 266.32 91.1358 266.131 90.3816 266.168L82.588 210.141C83.158 210.006 83.6979 209.74 84.1572 209.349ZM93.7334 267.94L122.211 246.499L141.872 265.692C141.791 265.793 141.717 265.897 141.646 266.006C141.277 266.571 141.085 267.2 141.048 267.833L94.2609 269.435C94.1954 268.909 94.0154 268.401 93.7326 267.945L93.7334 267.94ZM165.339 306.843L163.28 271.39L190.576 275.2C190.529 276.235 190.909 277.262 191.664 278.017L167.311 307.329C166.691 306.978 166.01 306.819 165.342 306.841L165.339 306.843ZM167.879 307.727L192.198 278.456C192.222 278.472 192.244 278.491 192.269 278.507C193.999 279.636 196.318 279.145 197.447 277.415C197.534 277.281 197.612 277.14 197.68 276.998L271.667 304.621L278.686 307.24C278.599 307.481 278.538 307.728 278.501 307.974L169.157 309.989C169.017 309.126 168.583 308.315 167.88 307.722L167.879 307.727ZM285.853 307.704L317.703 299.443L324.603 330.884C323.46 330.906 322.35 331.451 321.636 332.436L285.672 309.912C285.96 309.198 286.011 308.431 285.852 307.709L285.853 307.704ZM402.677 351.734C402.532 351.638 402.384 351.561 402.231 351.488L423.813 292.11C424.079 292.179 424.35 292.219 424.618 292.227L428.066 354.982L404.36 354.587C404.273 353.465 403.689 352.396 402.673 351.733L402.677 351.734ZM490.322 354.381C489.989 354.89 489.804 355.451 489.741 356.017L428.762 354.999L425.31 292.192C425.986 292.092 426.633 291.809 427.169 291.359L490.566 354.05C490.479 354.155 490.396 354.265 490.322 354.381ZM421.304 287.063C421.145 287.453 421.052 287.858 421.029 288.266L353.057 290.427C353.016 290.036 352.909 289.654 352.747 289.29L387.805 269.435L421.307 287.061L421.304 287.063ZM352.404 288.69C352.137 288.304 351.793 287.964 351.376 287.688C350.132 286.878 348.589 286.905 347.399 287.622L303.751 225.984C303.931 225.831 304.098 225.661 304.249 225.468L387.075 269.048L352.403 288.683L352.404 288.69ZM299.275 226.283C299.561 226.47 299.863 226.607 300.171 226.705L282.782 304.819C282.333 304.749 281.878 304.76 281.442 304.85L258.349 244.502L298.123 225.09C298.404 225.555 298.789 225.964 299.275 226.283ZM257.48 244.159L197.507 273.43C197.282 273.06 196.994 272.722 196.635 272.439L240.121 205.687C240.992 206.147 241.974 206.227 242.873 205.976L257.483 244.157L257.48 244.159ZM238.93 200.056L180.517 162.003L195.833 152.033L239.111 199.851C239.048 199.917 238.989 199.984 238.93 200.056ZM154.032 104.817C154.171 104.667 154.299 104.508 154.415 104.332C154.531 104.155 154.624 103.97 154.708 103.784L230.348 128.734L195.949 151.131L154.034 104.82L154.032 104.817ZM148.416 104.702C148.549 104.858 148.697 105.007 148.858 105.143L148.883 105.392L83.5138 203.217C82.7716 202.813 81.9451 202.69 81.1571 202.811L70.1679 159.146L148.411 104.702L148.416 104.702ZM21.4838 188.406L60.1802 165.74C60.443 166.108 60.7745 166.436 61.1767 166.696C61.4332 166.866 61.7046 166.99 61.9829 167.089L54.0198 198.956L21.7916 190.593C21.9138 189.848 21.8035 189.086 21.4858 188.409L21.4838 188.406ZM62.6534 167.256C63.2353 167.346 63.8281 167.296 64.3784 167.116L79.94 203.216C79.4141 203.502 78.95 203.922 78.595 204.46C78.4322 204.708 78.3091 204.969 78.213 205.233L54.6868 199.129L62.6534 167.256ZM78.0395 205.9C77.8757 206.908 78.1309 207.944 78.752 208.761L46.3614 238.43C46.1853 238.254 45.9846 238.092 45.7682 237.949C45.545 237.803 45.3094 237.687 45.0697 237.595L54.5161 199.794L78.0374 205.897L78.0395 205.9ZM46.8049 238.962L74.8286 213.291L47.1917 242.497C47.6712 241.319 47.5102 239.987 46.8049 238.962ZM79.4206 209.443C79.5061 209.509 79.5945 209.573 79.6856 209.636C80.3688 210.082 81.1446 210.271 81.8988 210.234L89.6924 266.261C88.7874 266.474 87.9582 267.018 87.4114 267.858C86.9286 268.597 86.7445 269.446 86.8259 270.262L10.1599 284.922C9.99114 284.406 9.70551 283.922 9.32065 283.514L79.4215 209.438L79.4206 209.443ZM86.9576 270.94C87.0317 271.193 87.1268 271.439 87.2531 271.676L22.7833 314.441L8.70609 289.184C9.10587 288.912 9.45909 288.562 9.73971 288.129C10.249 287.35 10.4239 286.453 10.3116 285.599L86.9548 270.942L86.9576 270.94ZM8.10106 289.514L22.2047 314.819L1.42082 328.605C1.17844 328.307 0.889072 328.038 0.549464 327.817C0.216686 327.601 -0.136237 327.445 -0.500818 327.345L6.18805 289.801C6.84221 289.873 7.50049 289.773 8.09906 289.511L8.10106 289.514ZM-3.53453 334.091C-1.84612 335.191 0.394701 334.751 1.55118 333.124L43.9155 357.762L-61.335 319.403L-5.21612 330.568C-5.35557 331.919 -4.75689 333.3 -3.53936 334.091L-3.53453 334.091ZM-62.5475 320.226C-62.4543 320.083 -62.3746 319.933 -62.3047 319.781L43.9215 358.496C43.7998 359.046 43.8043 359.611 43.9296 360.15L-3.15892 374.828L-62.7039 320.435C-62.6524 320.364 -62.599 320.297 -62.5495 320.223L-62.5475 320.226ZM49.6181 356.173C49.5623 356.136 49.5029 356.106 49.4463 356.075L89.2443 273.408C90.3047 273.806 91.4762 273.688 92.4308 273.134L111.05 299.237L50.0504 356.505C49.9144 356.386 49.7747 356.273 49.6181 356.173ZM92.9933 272.733C93.2537 272.509 93.488 272.248 93.6854 271.942C94.0548 271.377 94.2468 270.748 94.2834 270.115L141.071 268.513C141.154 269.171 141.415 269.804 141.828 270.336L111.559 298.755L92.9941 272.728L92.9933 272.733ZM142.306 270.845C142.442 270.964 142.583 271.079 142.74 271.18C143.43 271.63 144.213 271.818 144.975 271.779L158.086 362.175C157.735 362.26 157.398 362.394 157.08 362.579L111.966 299.331L142.308 270.848L142.306 270.845ZM158.769 362.074L145.66 271.681C145.776 271.653 145.893 271.621 146.007 271.578L163.393 307.464C162.981 307.737 162.618 308.097 162.332 308.535C161.205 310.268 161.694 312.584 163.424 313.713C163.822 313.973 164.252 314.141 164.687 314.234L159.053 362.067C158.957 362.063 158.862 362.067 158.767 362.071L158.769 362.074ZM169.203 310.678L278.466 308.662C278.513 309.829 279.107 310.959 280.161 311.645C280.634 311.952 281.153 312.138 281.681 312.212L278.89 369.915C277.75 369.965 276.651 370.536 275.964 371.548L168.78 312.321C169.055 311.797 169.194 311.236 169.206 310.676L169.203 310.678ZM281.093 370.517C280.619 370.209 280.101 370.024 279.576 369.948L282.305 313.515L287.06 366.341L281.658 370.963C281.489 370.798 281.299 370.645 281.094 370.512L281.093 370.517ZM282.881 312.187C283.855 312.006 284.756 311.448 285.339 310.553C285.346 310.544 285.35 310.532 285.359 310.521L321.287 333.024C320.701 334.261 320.85 335.695 321.615 336.779L287.706 365.795L282.883 312.19L282.881 312.187ZM322.062 337.305C322.23 337.469 322.42 337.623 322.625 337.756C322.804 337.87 322.989 337.968 323.178 338.049L294.021 426.93C293.749 426.869 293.474 426.836 293.197 426.834L287.781 366.638L322.062 337.305ZM326.921 337.603C327.258 337.35 327.558 337.038 327.804 336.663C327.854 336.585 327.898 336.503 327.943 336.424L396.943 354.267C396.806 355.116 396.968 355.985 397.391 356.727L356.586 385.481L326.921 337.603ZM402.748 357.955C403.143 357.687 403.494 357.335 403.771 356.908C404.104 356.399 404.289 355.838 404.352 355.271L428.105 355.667L430.894 406.391C430.531 406.424 430.178 406.511 429.841 406.646L402.749 357.951L402.748 357.955ZM434.415 408.144L490.874 359.122C491.038 359.281 491.219 359.428 491.416 359.555C492.318 360.142 493.376 360.286 494.345 360.05L501.636 381.201L434.647 408.577C434.578 408.427 434.5 408.282 434.413 408.141L434.415 408.144ZM502.504 381.596L546.483 363.623C546.772 364.177 547.197 364.666 547.758 365.03C547.892 365.117 548.029 365.189 548.168 365.26L527.601 420.023L522.422 433.817C521.787 433.646 521.124 433.652 520.505 433.813L502.506 381.599L502.504 381.596ZM523.494 434.291C523.358 434.201 523.215 434.125 523.068 434.056L548.813 365.504C549.019 365.561 549.224 365.597 549.433 365.618L549.022 436.073L525.168 437.001C525.045 435.93 524.466 434.922 523.494 434.291ZM549.708 436.738L620.518 433.982C620.599 434.59 620.829 435.173 621.195 435.68L551.66 496.397C551.41 496.07 551.105 495.779 550.741 495.542C550.312 495.262 549.844 495.082 549.371 494.996L549.713 436.739L549.708 436.738ZM552.418 498.322C552.372 497.858 552.242 497.403 552.03 496.986L621.645 436.199C621.808 436.355 621.987 436.499 622.181 436.623C622.671 436.94 623.202 437.126 623.745 437.197L621.909 488.023L552.416 498.319L552.418 498.322ZM624.436 437.226C625.056 437.191 625.657 437.004 626.19 436.675L658.626 479.72C658.509 479.855 658.399 479.992 658.3 480.144C657.783 480.937 657.608 481.851 657.735 482.719L622.607 487.925L624.436 437.226ZM659.933 478.763L639.401 431.262L666.409 426.667C666.639 427.53 667.171 428.313 667.978 428.836C668.335 429.07 668.717 429.23 669.109 429.328L661.486 478.448C660.952 478.443 660.424 478.548 659.933 478.763ZM667.257 423.185C667.123 423.331 666.998 423.489 666.885 423.658C666.416 424.374 666.232 425.193 666.292 425.986L639.118 430.61L608.384 359.502C608.543 359.415 608.699 359.312 608.844 359.2L667.257 423.185ZM548.86 344.86C549.112 345.66 549.631 346.381 550.387 346.877C550.754 347.116 551.15 347.279 551.555 347.377L549.995 358.165C548.708 358.098 547.421 358.698 546.668 359.854C546.394 360.274 546.219 360.73 546.129 361.193L497.205 356.439C497.206 356.286 497.197 356.131 497.181 355.977L548.865 344.861L548.86 344.86ZM492.17 352.914C491.769 353.06 491.392 353.274 491.055 353.557L427.657 290.866C427.744 290.762 427.827 290.652 427.901 290.535C429.004 288.845 428.558 286.595 426.923 285.44L457.809 231.906C458.51 232.229 459.27 232.319 459.997 232.195L492.167 352.916L492.17 352.914ZM455.643 228.774C455.674 229.21 455.783 229.642 455.963 230.044L387.796 268.648L305.919 225.567L455.646 228.772L455.643 228.774ZM297.694 222.246C297.508 222.99 297.561 223.767 297.825 224.47L258.108 243.855L243.521 205.731C244.105 205.442 244.624 205.004 245.004 204.418C245.107 204.26 245.191 204.098 245.267 203.93L297.692 222.244L297.694 222.246ZM240.99 198.744C240.502 198.863 240.037 199.079 239.627 199.385L196.425 151.649L230.881 129.215L240.993 198.742L240.99 198.744ZM143.457 46.7003C144.078 46.5762 144.67 46.2939 145.161 45.8709L229.818 127.83L154.924 103.129C155.264 101.643 154.674 100.036 153.323 99.1531C151.936 98.2498 150.179 98.3868 148.951 99.3603L143.453 46.6995L143.457 46.7003ZM54.6326 100.214L69.3878 158.849L66.0859 161.145C65.8568 160.871 65.5835 160.625 65.2683 160.421C64.5851 159.975 63.8045 159.785 63.0455 159.821L54.6306 100.211L54.6326 100.214ZM20.0811 193.162C20.5315 192.883 20.9318 192.505 21.2389 192.031C21.4017 191.783 21.522 191.523 21.6209 191.258L53.856 199.624L44.412 237.41C43.7225 237.282 43.0164 237.357 42.3705 237.606L20.0811 193.162ZM41.7476 244.259C42.8664 244.958 44.2174 244.996 45.3338 244.467L13.8099 277.778L41.7448 244.261L41.7476 244.259ZM-66.6834 321.793C-65.4483 322.138 -64.1124 321.822 -63.1572 320.954L-3.91047 375.072L-95.4457 403.606C-95.7248 402.935 -96.2019 402.338 -96.8558 401.909C-96.9831 401.825 -97.1147 401.754 -97.2452 401.69L-66.6806 321.791L-66.6834 321.793ZM-95.1718 404.811C-95.1833 404.628 -95.2045 404.444 -95.2437 404.264L-3.3249 375.613L30.6583 406.658C30.6169 406.713 30.5755 406.768 30.5361 406.825C30.173 407.381 29.9807 407.998 29.9389 408.618L-95.1718 404.811ZM34.529 405.225C33.3208 404.941 32.0363 405.276 31.1192 406.138L-2.55687 375.375L44.1577 360.814C44.4408 361.461 44.9067 362.037 45.5409 362.45C45.7465 362.584 45.9609 362.694 46.1813 362.783L34.529 405.225ZM51.3245 359.297C51.3206 358.476 51.0468 357.67 50.5324 357.014L111.464 299.812L156.524 362.984C156.264 363.208 156.03 363.468 155.832 363.775C155.531 364.239 155.348 364.744 155.269 365.258L51.3265 359.299L51.3245 359.297ZM282.193 375.699C283.053 374.377 282.97 372.713 282.111 371.497L287.141 367.192L292.445 426.136L280.29 377.183C281.044 376.921 281.723 376.42 282.193 375.694L282.193 375.699ZM296.838 429.749C296.755 429.388 296.62 429.039 296.434 428.718L356.388 386.47L374.993 416.497C374.655 416.75 374.353 417.063 374.11 417.436C373.67 418.111 373.477 418.876 373.511 419.625L296.838 429.749ZM380.857 418.501C380.626 417.643 380.093 416.865 379.291 416.342C379.146 416.246 378.993 416.168 378.839 416.095L399.695 358.487C400.518 358.702 401.381 358.626 402.147 358.291L429.229 406.967C428.794 407.243 428.405 407.614 428.107 408.077C427.638 408.798 427.451 409.619 427.518 410.416L380.859 418.504L380.857 418.501ZM434.891 410.936C435.018 410.37 435.009 409.787 434.874 409.234L501.863 381.858L519.852 434.045C519.245 434.33 518.704 434.78 518.313 435.385C518.166 435.613 518.047 435.846 517.955 436.091L434.885 410.94L434.891 410.936ZM523.23 440.721C523.764 440.434 524.236 440.013 524.592 439.47C524.952 438.916 525.145 438.307 525.186 437.692L549.02 436.767L548.677 494.939C548.297 494.942 547.919 495 547.56 495.116L523.23 440.721ZM623.203 524.461C623.049 524.316 622.882 524.184 622.699 524.065C622.269 523.782 621.801 523.602 621.323 523.515L622.581 488.626L657.897 483.393C658.069 483.902 658.354 484.378 658.74 484.777L623.201 524.458L623.203 524.461Z" fill="#DF8711"/>
<path d="M129.71 421.579H333.821C333.821 421.579 287.009 266.861 231.766 251.256C211.562 245.564 196.71 249.199 186.706 254.532C175.79 260.329 170.656 268.167 170.656 268.167L150.988 270.763C150.988 270.763 142.469 273.841 130.945 278.029C107.306 286.585 70.9972 299.79 69.2419 300.666C66.6462 301.973 129.71 421.582 129.71 421.582V421.579Z" fill="#DF8711"/>
<path d="M427.793 286.007H269.386V308.492H427.793C430.116 308.492 432 306.607 432 304.285V290.211C432 287.889 430.116 286.004 427.793 286.004V286.007Z" fill="#F5C07A"/>
<path d="M269.386 308.491H190.973V286.007H269.386V308.491Z" fill="#FFF4E9"/>
<path d="M196.128 292.56H262.625C263.105 292.56 263.494 292.171 263.494 291.691C263.494 291.212 263.105 290.823 262.625 290.823H196.128C195.649 290.823 195.259 291.212 195.259 291.691C195.259 292.171 195.649 292.56 196.128 292.56Z" fill="#3A8AA2"/>
<path d="M196.128 297.364H262.625C263.105 297.364 263.494 296.975 263.494 296.495C263.494 296.016 263.105 295.627 262.625 295.627H196.128C195.649 295.627 195.259 296.016 195.259 296.495C195.259 296.975 195.649 297.364 196.128 297.364Z" fill="#3A8AA2"/>
<path d="M196.128 302.163H262.625C263.105 302.163 263.494 301.774 263.494 301.294C263.494 300.815 263.105 300.426 262.625 300.426H196.128C195.649 300.426 195.259 300.815 195.259 301.294C195.259 301.774 195.649 302.163 196.128 302.163Z" fill="#3A8AA2"/>
<path d="M187.374 306.01H266.904V288.492H187.374V286.008H273.678V308.492H187.374V306.007V306.01Z" fill="#F5C07A"/>
<path d="M354.181 301.545H416.74C419.111 301.545 421.037 299.622 421.037 297.248C421.037 294.877 419.114 292.951 416.74 292.951H354.181C351.81 292.951 349.884 294.874 349.884 297.248C349.884 299.619 351.807 301.545 354.181 301.545Z" fill="#FFF4E9"/>
<path d="M363.51 355.791H407.169V391.903H363.51V355.791Z" fill="#FFF4E9"/>
<path d="M363.509 391.906H189.317V355.652H363.509V391.906Z" fill="#9F5656"/>
<path d="M407.169 355.649H361.432V391.904H407.169V387.738H365.587V359.805H407.169V355.649Z" fill="#854747"/>
<path d="M366.957 384.645H405.957C406.436 384.645 406.825 384.256 406.825 383.776C406.825 383.297 406.436 382.908 405.957 382.908H366.957C366.478 382.908 366.089 383.297 366.089 383.776C366.089 384.256 366.478 384.645 366.957 384.645Z" fill="#307286"/>
<path d="M366.957 378.591H405.957C406.436 378.591 406.825 378.201 406.825 377.722C406.825 377.242 406.436 376.853 405.957 376.853H366.957C366.478 376.853 366.089 377.242 366.089 377.722C366.089 378.201 366.478 378.591 366.957 378.591Z" fill="#307286"/>
<path d="M366.957 372.535H405.957C406.436 372.535 406.825 372.146 406.825 371.667C406.825 371.187 406.436 370.798 405.957 370.798H366.957C366.478 370.798 366.089 371.187 366.089 371.667C366.089 372.146 366.478 372.535 366.957 372.535Z" fill="#307286"/>
<path d="M366.957 366.483H405.957C406.436 366.483 406.825 366.094 406.825 365.615C406.825 365.135 406.436 364.746 405.957 364.746H366.957C366.478 364.746 366.089 365.135 366.089 365.615C366.089 366.094 366.478 366.483 366.957 366.483Z" fill="#307286"/>
<path d="M197.417 382.217H358.649C359.129 382.217 359.518 381.828 359.518 381.348V365.612C359.518 365.132 359.129 364.743 358.649 364.743H197.417C196.937 364.743 196.548 365.132 196.548 365.612V381.348C196.548 381.828 196.937 382.217 197.417 382.217ZM357.781 380.48H198.285V366.48H357.781V380.48Z" fill="#FFF4E9"/>
<path d="M188.615 458.71H353.484V390.81H188.344C183.348 390.81 179.291 394.867 179.291 399.862V448.79C179.291 453.786 183.348 458.71 188.344 458.71H188.615Z" fill="#3A8AA2"/>
<path d="M354.564 390.812H398.224V457.848H354.564V390.812Z" fill="#FFF4E9"/>
<path d="M398.224 390.812H352.486V458.71H375.355H398.224V446.994H356.642V399.586H398.224V390.812Z" fill="#357E94"/>
<path d="M205.266 408.404H327.474V440.256H205.266V408.404Z" fill="#FFF4E9"/>
<path d="M359.226 422.151H396.213C396.692 422.151 397.081 421.762 397.081 421.282C397.081 420.803 396.692 420.414 396.213 420.414H359.226C358.747 420.414 358.358 420.803 358.358 421.282C358.358 421.762 358.747 422.151 359.226 422.151Z" fill="#2B6577"/>
<path d="M359.226 416.096H396.213C396.692 416.096 397.081 415.707 397.081 415.228C397.081 414.748 396.692 414.359 396.213 414.359H359.226C358.747 414.359 358.358 414.748 358.358 415.228C358.358 415.707 358.747 416.096 359.226 416.096Z" fill="#2B6577"/>
<path d="M359.226 410.042H396.212C396.692 410.042 397.081 409.652 397.081 409.173C397.081 408.693 396.692 408.304 396.212 408.304H359.226C358.747 408.304 358.358 408.693 358.358 409.173C358.358 409.652 358.747 410.042 359.226 410.042Z" fill="#2B6577"/>
<path d="M359.226 440.352H396.213C396.692 440.352 397.081 439.963 397.081 439.483C397.081 439.004 396.692 438.615 396.213 438.615H359.226C358.747 438.615 358.358 439.004 358.358 439.483C358.358 439.963 358.747 440.352 359.226 440.352Z" fill="#2B6577"/>
<path d="M359.226 434.299H396.213C396.692 434.299 397.081 433.91 397.081 433.431C397.081 432.951 396.692 432.562 396.213 432.562H359.226C358.747 432.562 358.358 432.951 358.358 433.431C358.358 433.91 358.747 434.299 359.226 434.299Z" fill="#2B6577"/>
<path d="M359.226 428.245H396.213C396.692 428.245 397.081 427.855 397.081 427.376C397.081 426.897 396.692 426.507 396.213 426.507H359.226C358.747 426.507 358.358 426.897 358.358 427.376C358.358 427.855 358.747 428.245 359.226 428.245Z" fill="#2B6577"/>
<path d="M192.437 446.935C192.916 446.935 193.306 446.546 193.306 446.066V400.37C193.306 399.891 192.916 399.501 192.437 399.501C191.958 399.501 191.568 399.891 191.568 400.37V446.066C191.568 446.546 191.958 446.935 192.437 446.935Z" fill="#3A8AA2"/>
<path d="M184.845 446.935C185.325 446.935 185.714 446.546 185.714 446.066V400.37C185.714 399.891 185.325 399.501 184.845 399.501C184.366 399.501 183.977 399.891 183.977 400.37V446.066C183.977 446.546 184.366 446.935 184.845 446.935Z" fill="#3A8AA2"/>
<path d="M348.037 446.935C348.516 446.935 348.905 446.546 348.905 446.067V400.371C348.905 399.891 348.516 399.502 348.037 399.502C347.557 399.502 347.168 399.891 347.168 400.371V446.067C347.168 446.546 347.557 446.935 348.037 446.935Z" fill="#3A8AA2"/>
<path d="M340.444 446.935C340.923 446.935 341.312 446.546 341.312 446.067V400.371C341.312 399.891 340.923 399.502 340.444 399.502C339.964 399.502 339.575 399.891 339.575 400.371V446.067C339.575 446.546 339.964 446.935 340.444 446.935Z" fill="#3A8AA2"/>
<path d="M280.925 430.157C281.136 430.157 281.345 430.149 281.559 430.129C283.155 429.974 284.99 429.038 285.843 427.283C286.776 427.824 287.784 428.237 288.874 428.414C290.988 428.76 293.483 427.961 294.872 426.084C295.416 426.443 296.001 426.78 296.623 427.09C299.757 428.654 303.239 429.543 306.693 429.657C307.193 429.657 307.575 429.299 307.59 428.817C307.606 428.337 307.232 427.938 306.753 427.92C303.546 427.814 300.311 426.992 297.401 425.535C296.95 425.311 296.337 424.973 295.674 424.522C295.692 424.468 295.708 424.411 295.723 424.357C296.192 422.71 295.741 420.813 294.548 419.406C293.499 418.166 292.089 417.56 290.686 417.702C290.225 417.753 289.887 418.161 289.918 418.625C290.078 420.996 291.341 423.228 293.481 425.043C292.491 426.37 290.661 426.94 289.16 426.705C288.15 426.54 287.199 426.107 286.312 425.538C286.426 424.03 285.874 422.354 284.642 420.452C283.113 418.081 281.276 417.068 279.587 417.689C279.237 417.815 279.007 418.155 279.018 418.529C279.085 420.999 280.76 422.952 282.214 424.378C282.879 425.033 283.601 425.698 284.384 426.303C283.884 427.6 282.513 428.304 281.397 428.409C280.043 428.536 278.682 428.1 277.053 427.401C275.631 426.791 274.074 425.986 272.646 424.955C272.865 424.27 272.96 423.55 272.919 422.836C272.826 421.215 272.032 419.676 270.743 418.617C269.591 417.671 268.215 417.246 266.895 417.434C266.66 417.465 266.446 417.594 266.31 417.784C266.171 417.978 266.117 418.217 266.16 418.452C266.653 421.091 268.13 423.463 270.504 425.478C270.352 425.718 270.179 425.948 269.986 426.159C269.297 426.904 268.416 427.342 267.57 427.36C267.091 427.37 266.712 427.767 266.72 428.247C266.73 428.721 267.117 429.097 267.588 429.097H267.606C268.939 429.069 270.238 428.443 271.259 427.337C271.488 427.087 271.7 426.821 271.885 426.543C273.182 427.448 274.679 428.27 276.373 428.994C277.803 429.608 279.34 430.165 280.933 430.165L280.925 430.157ZM280.853 419.274C281.884 419.504 282.861 420.893 283.18 421.388C283.827 422.385 284.248 423.282 284.449 424.092C284.093 423.775 283.753 423.45 283.425 423.13C282.322 422.048 281.196 420.767 280.853 419.274ZM268.127 419.187C268.65 419.303 269.166 419.56 269.635 419.947C270.537 420.689 271.115 421.803 271.182 422.924C271.197 423.19 271.182 423.458 271.145 423.723C269.803 422.481 268.699 420.981 268.127 419.187ZM291.805 419.522C292.313 419.687 292.805 420.029 293.223 420.522C293.908 421.331 294.244 422.357 294.158 423.311C293.115 422.331 292.176 421.071 291.805 419.522Z" fill="#2B6577"/>
<path d="M234.063 430.046C234.272 430.046 234.483 430.038 234.692 430.018C236.285 429.863 238.123 428.927 238.976 427.172C239.909 427.713 240.917 428.123 242.01 428.301C244.121 428.646 246.619 427.847 248.008 425.971C248.552 426.329 249.134 426.667 249.758 426.976C252.895 428.543 256.377 429.43 259.829 429.543C260.264 429.536 260.71 429.185 260.723 428.703C260.739 428.224 260.362 427.821 259.883 427.806C256.682 427.703 253.447 426.878 250.531 425.422C250.08 425.197 249.467 424.86 248.804 424.409C248.822 424.355 248.838 424.298 248.853 424.244C249.322 422.597 248.871 420.699 247.678 419.289C246.629 418.05 245.224 417.434 243.817 417.588C243.355 417.64 243.018 418.047 243.049 418.511C243.208 420.882 244.469 423.115 246.611 424.929C245.618 426.259 243.781 426.829 242.291 426.592C241.28 426.427 240.329 425.994 239.442 425.424C239.553 423.916 239.004 422.241 237.772 420.339C236.238 417.972 234.401 416.967 232.717 417.575C232.367 417.702 232.137 418.042 232.148 418.416C232.215 420.888 233.89 422.839 235.344 424.264C236.009 424.916 236.731 425.584 237.514 426.187C237.014 427.484 235.643 428.187 234.527 428.296C233.176 428.427 231.818 427.986 230.184 427.288C228.761 426.68 227.204 425.873 225.776 424.842C225.995 424.156 226.09 423.437 226.049 422.723C225.956 421.102 225.162 419.565 223.874 418.503C222.724 417.557 221.36 417.129 220.025 417.318C219.791 417.349 219.579 417.477 219.44 417.668C219.301 417.862 219.247 418.101 219.291 418.336C219.783 420.975 221.257 423.347 223.631 425.365C223.479 425.605 223.307 425.834 223.113 426.043C222.425 426.788 221.543 427.226 220.698 427.244C220.219 427.254 219.84 427.651 219.847 428.131C219.858 428.61 220.172 429.005 220.734 428.981C222.067 428.953 223.366 428.327 224.387 427.221C224.616 426.971 224.825 426.705 225.01 426.427C226.307 427.334 227.804 428.154 229.498 428.881C230.934 429.494 232.473 430.051 234.06 430.051L234.063 430.046ZM233.988 419.163C235.019 419.393 235.996 420.782 236.316 421.274C236.96 422.272 237.38 423.169 237.581 423.978C237.228 423.661 236.885 423.336 236.558 423.017C235.455 421.934 234.328 420.656 233.986 419.163H233.988ZM221.263 419.076C221.786 419.192 222.301 419.449 222.77 419.836C223.673 420.578 224.25 421.692 224.317 422.816C224.332 423.079 224.317 423.349 224.281 423.615C222.938 422.372 221.835 420.872 221.265 419.078L221.263 419.076ZM244.94 419.408C245.448 419.573 245.938 419.916 246.358 420.408C247.044 421.218 247.379 422.243 247.294 423.197C246.25 422.218 245.314 420.957 244.94 419.408Z" fill="#3A8AA2"/>
<path d="M212.204 335.732H255.863V355.65H212.204V335.732Z" fill="#FFF4E9"/>
<path d="M426.464 335.655H255.865V355.652H426.464C428.447 355.652 430.058 354.041 430.058 352.059V339.251C430.058 337.269 428.447 335.658 426.464 335.658V335.655Z" fill="#F5C07A"/>
<path d="M212.205 335.655H257.939V355.65H212.205V353.353H253.784V337.947H212.205V335.655Z" fill="#F5C07A"/>
<path d="M213.413 352.036H252.413C252.892 352.036 253.281 351.647 253.281 351.167C253.281 350.688 252.892 350.299 252.413 350.299H213.413C212.934 350.299 212.545 350.688 212.545 351.167C212.545 351.647 212.934 352.036 213.413 352.036Z" fill="#2B6577"/>
<path d="M213.413 347.028H252.413C252.892 347.028 253.281 346.639 253.281 346.159C253.281 345.68 252.892 345.291 252.413 345.291H213.413C212.934 345.291 212.545 345.68 212.545 346.159C212.545 346.639 212.934 347.028 213.413 347.028Z" fill="#2B6577"/>
<path d="M213.413 342.017H252.413C252.892 342.017 253.281 341.628 253.281 341.148C253.281 340.669 252.892 340.28 252.413 340.28H213.413C212.934 340.28 212.545 340.669 212.545 341.148C212.545 341.628 212.934 342.017 213.413 342.017Z" fill="#2B6577"/>
<path d="M263.043 352.036C263.523 352.036 263.912 351.647 263.912 351.167V341.151C263.912 340.671 263.523 340.282 263.043 340.282C262.564 340.282 262.175 340.671 262.175 341.151V351.167C262.175 351.647 262.564 352.036 263.043 352.036Z" fill="#2B6577"/>
<path d="M268.126 352.036C268.606 352.036 268.995 351.647 268.995 351.167V341.151C268.995 340.671 268.606 340.282 268.126 340.282C267.647 340.282 267.258 340.671 267.258 341.151V351.167C267.258 351.647 267.647 352.036 268.126 352.036Z" fill="#2B6577"/>
<path d="M362.672 349.066C366.389 349.066 370.103 348.525 373.668 347.445C374.872 347.081 376.073 346.653 377.274 346.226C380.811 344.965 384.151 343.767 387.636 344.107C389.572 344.292 391.41 344.939 393.356 345.625C393.933 345.829 394.511 346.032 395.091 346.223C401.14 348.215 407.682 348.855 414.003 348.074C414.48 348.017 414.817 347.581 414.758 347.105C414.699 346.63 414.25 346.29 413.791 346.349C407.718 347.097 401.442 346.481 395.635 344.573C395.067 344.385 394.5 344.187 393.936 343.986C391.977 343.295 389.951 342.581 387.804 342.377C383.935 342.009 380.254 343.318 376.694 344.589C375.519 345.006 374.346 345.426 373.168 345.782C367.51 347.496 361.455 347.795 355.653 346.643C355.181 346.545 354.725 346.857 354.632 347.324C354.54 347.795 354.844 348.252 355.315 348.344C357.741 348.826 360.21 349.066 362.677 349.066H362.672Z" fill="#2B6577"/>
<path d="M290.943 349.067C294.66 349.067 298.374 348.525 301.939 347.445C303.143 347.082 304.344 346.654 305.543 346.226C309.079 344.966 312.42 343.77 315.907 344.107C317.841 344.293 319.678 344.94 321.625 345.625C322.202 345.829 322.779 346.033 323.359 346.223C329.409 348.216 335.951 348.855 342.271 348.074C342.748 348.018 343.086 347.582 343.026 347.105C342.967 346.631 342.521 346.291 342.06 346.35C335.987 347.097 329.71 346.481 323.903 344.574C323.336 344.386 322.769 344.187 322.204 343.986C320.245 343.295 318.219 342.581 316.075 342.378C312.198 342.019 308.522 343.321 304.963 344.589C303.787 345.007 302.615 345.427 301.437 345.783C295.779 347.497 289.724 347.796 283.922 346.644C283.458 346.546 282.994 346.858 282.901 347.324C282.808 347.796 283.112 348.252 283.584 348.345C286.01 348.827 288.479 349.067 290.946 349.067H290.943Z" fill="#2B6577"/>
<path d="M328.357 309.748H409.769V333.696H328.357V309.748Z" fill="#FFF4E9"/>
<path d="M334.788 317.632H404.984C405.463 317.632 405.853 317.243 405.853 316.764C405.853 316.284 405.463 315.895 404.984 315.895H334.788C334.308 315.895 333.919 316.284 333.919 316.764C333.919 317.243 334.308 317.632 334.788 317.632Z" fill="#3A8AA2"/>
<path d="M334.788 322.589H404.984C405.463 322.589 405.853 322.2 405.853 321.72C405.853 321.241 405.463 320.852 404.984 320.852H334.788C334.308 320.852 333.919 321.241 333.919 321.72C333.919 322.2 334.308 322.589 334.788 322.589Z" fill="#3A8AA2"/>
<path d="M334.788 327.545H404.984C405.463 327.545 405.853 327.156 405.853 326.677C405.853 326.197 405.463 325.808 404.984 325.808H334.788C334.308 325.808 333.919 326.197 333.919 326.677C333.919 327.156 334.308 327.545 334.788 327.545Z" fill="#3A8AA2"/>
<path d="M332.502 312.152V331.288H410.614C411.759 331.288 412.687 332.216 412.687 333.361C412.687 334.505 411.759 335.433 410.614 335.433H328.357V308.01H410.614C411.759 308.01 412.687 308.938 412.687 310.082C412.687 311.227 411.759 312.155 410.614 312.155H332.502" fill="#E43A83"/>
<path d="M206.686 308.01H329.347V335.433H206.686V308.01Z" fill="#E95D9A"/>
<path d="M315.095 308.01H320.222V335.433H315.095V308.01Z" fill="#FFF4E9"/>
<path d="M306.096 308.009H311.223V335.433H306.096V308.009Z" fill="#FFF4E9"/>
<path d="M222.07 308.01H227.196V335.433H222.07V308.01Z" fill="#FFF4E9"/>
<path d="M213.07 308.01H218.197V335.433H213.07V308.01Z" fill="#FFF4E9"/>
<path d="M235.948 314.663H300.084V328.778H235.948V314.663Z" fill="#FFF4E9"/>
<path d="M426.41 254.178H197.618V286.953H426.41C428.732 286.953 430.616 285.068 430.616 282.746V258.385C430.616 256.062 428.732 254.178 426.41 254.178Z" fill="#9F5656"/>
<path d="M283.545 275.737H414.38C417.236 275.737 419.551 273.423 419.551 270.567C419.551 267.711 417.236 265.396 414.38 265.396H283.545C280.689 265.396 278.375 267.711 278.375 270.567C278.375 273.423 280.689 275.737 283.545 275.737Z" fill="#FFF4E9"/>
<path d="M192.905 254.178H242.872V286.953H192.905V254.178Z" fill="#FFF4E9"/>
<path d="M194.334 263.68H234.04C234.519 263.68 234.908 263.29 234.908 262.811C234.908 262.332 234.519 261.942 234.04 261.942H194.334C193.855 261.942 193.466 262.332 193.466 262.811C193.466 263.29 193.855 263.68 194.334 263.68Z" fill="#3A8AA2"/>
<path d="M194.334 270.631H234.04C234.519 270.631 234.909 270.242 234.909 269.763C234.909 269.283 234.519 268.894 234.04 268.894H194.334C193.855 268.894 193.466 269.283 193.466 269.763C193.466 270.242 193.855 270.631 194.334 270.631Z" fill="#3A8AA2"/>
<path d="M194.334 277.581H234.04C234.519 277.581 234.909 277.192 234.909 276.712C234.909 276.233 234.519 275.844 234.04 275.844H194.334C193.855 275.844 193.466 276.233 193.466 276.712C193.466 277.192 193.855 277.581 194.334 277.581Z" fill="#3A8AA2"/>
<path d="M188.759 282.29H238.211V258.841H188.759V254.178H248.16V286.953H188.759V282.29Z" fill="#854747"/>
<path d="M244.096 284.556C244.575 284.556 244.964 284.167 244.964 283.687V256.965C244.964 256.486 244.575 256.096 244.096 256.096C243.616 256.096 243.227 256.486 243.227 256.965V283.687C243.227 284.167 243.616 284.556 244.096 284.556Z" fill="#FFF4E9"/>
<path d="M402.554 199.575H211.444C197.992 199.575 187.068 210.499 187.068 223.951C187.068 237.404 197.992 248.328 211.444 248.328H402.554V199.575Z" fill="#FFF4E9"/>
<path d="M211.443 254.697H402.555V243.961H211.443C200.962 243.961 192.435 235.435 192.435 224.954C192.435 214.473 200.962 205.947 211.443 205.947H402.555V195.211H211.443C195.041 195.211 181.699 208.555 181.699 224.954C181.699 241.353 195.044 254.7 211.443 254.7V254.697Z" fill="#3A8AA2"/>
<path d="M263.556 425.304C263.556 425.304 283.31 430.628 283.35 430.64C285.945 431.339 288.336 433.164 289.69 435.488C290.587 437.026 290.975 439.097 290.616 440.849C289.945 444.146 286.083 443.73 283.552 443.277C278.701 442.41 273.862 441.507 268.997 440.693C263.42 439.76 257.845 438.826 252.268 437.893C252.261 437.893 252.195 437.874 252.19 437.879L263.556 425.306V425.304Z" fill="#FCA89B"/>
<path d="M263.556 425.304C263.556 425.304 283.31 430.628 283.35 430.64C285.945 431.339 288.336 433.164 289.69 435.488C290.587 437.026 290.975 439.097 290.616 440.849C289.945 444.146 286.083 443.73 283.552 443.277C278.701 442.41 273.862 441.507 268.997 440.693C263.42 439.76 257.845 438.826 252.268 437.893C252.261 437.893 252.195 437.874 252.19 437.879L263.556 425.306V425.304Z" fill="#FFBE97"/>
<path d="M286.759 443.523L236.005 454.02L254.629 425.09L286.759 443.523Z" fill="#FFBE97"/>
<path d="M182.131 396.738L123.748 410.647L208.848 458.711H227.441L245.731 449.783L260.688 439.425L263.433 425.397L228.066 410.504L182.131 396.738Z" fill="#FCA89B"/>
<path d="M182.131 396.738L123.748 410.647L208.848 458.711L228.268 458.289L245.731 449.783L260.688 439.425L263.433 425.397L228.066 410.504L182.131 396.738Z" fill="#FFBE97"/>
<path d="M187.279 404.943L227.861 395.993C227.861 395.993 265.492 403.157 265.515 403.161C269.221 403.867 272.706 407.828 270.313 411.518C268.621 414.127 265.113 415.932 262.076 416.265L232.558 419.525L187.276 404.943H187.279Z" fill="#FCA89B"/>
<path d="M187.279 404.943L227.861 395.993C227.861 395.993 265.492 403.157 265.515 403.161C269.221 403.867 272.706 407.828 270.313 411.518C268.621 414.127 265.113 415.932 262.076 416.265L232.558 419.525L187.276 404.943H187.279Z" fill="#FFBE97"/>
<path d="M235.726 440.307C235.85 440.387 235.997 440.44 236.156 440.452L279.242 443.748C279.748 443.787 280.19 443.408 280.229 442.902C280.268 442.397 279.891 441.951 279.383 441.916L236.296 438.619C235.791 438.58 235.349 438.96 235.31 439.465C235.282 439.813 235.453 440.128 235.726 440.307Z" fill="#FB8876"/>
<path d="M229.051 449.33C229.189 449.42 229.355 449.473 229.529 449.48L251.939 450.011C252.447 450.022 252.868 449.62 252.879 449.114C252.893 448.604 252.486 448.188 251.983 448.174L229.573 447.643C229.065 447.631 228.644 448.034 228.633 448.539C228.626 448.87 228.794 449.165 229.051 449.333V449.33Z" fill="#FB8876"/>
<path d="M221.16 457.011C221.28 457.089 221.418 457.14 221.57 457.156L229.666 457.963C230.172 458.013 230.62 457.643 230.671 457.14C230.722 456.636 230.356 456.183 229.848 456.133L221.751 455.326C221.245 455.275 220.797 455.645 220.747 456.149C220.712 456.503 220.88 456.829 221.16 457.011Z" fill="#FB8876"/>
<path d="M166.105 268.005C166.105 268.005 98.2729 235.829 63.9225 248.004C29.5721 260.179 22.6155 315.836 34.3561 358.447C46.0967 401.059 107.363 486.726 203.021 451.507L189.149 394.972C189.149 394.972 146.973 391.059 134.364 373.231C121.754 355.403 115.666 313.661 115.666 313.661L166.105 268.005Z" fill="#DF8711"/>
<path d="M130.945 278.024C136.742 285.092 145.547 289.621 155.388 289.621C172.8 289.621 186.902 275.501 186.902 258.089C186.902 256.891 186.83 255.692 186.706 254.527C175.79 260.324 170.656 268.162 170.656 268.162L150.988 270.758C150.988 270.758 142.469 273.836 130.945 278.024Z" fill="#FFBE97"/>
<path d="M181.22 274.663L130.946 278.027L115.021 236.071C132.322 249.727 153.005 258.442 175.631 259.293L181.22 274.663Z" fill="#FFBE97"/>
<path d="M163.668 226.397L175.631 259.29C153.005 258.442 132.322 249.724 115.021 236.068L111.502 226.394H163.668V226.397Z" fill="#FB8876"/>
<path d="M106.816 172.662C106.816 172.662 116.881 157.415 145.441 157.005C174.001 156.595 186.846 180 182.002 209.602L104.383 236.844C104.383 236.844 89.9763 226.377 84.1071 215.924C78.2378 205.472 86.2413 169.942 106.816 172.662Z" fill="black"/>
<path d="M100.175 229.97C108.407 247.841 135.199 254.457 156.645 244.577C178.091 234.697 186.066 212.061 177.833 194.19C169.6 176.319 145.541 169.842 124.095 179.722C102.649 189.602 91.9417 212.099 100.175 229.97Z" fill="#FFBE97"/>
<path d="M163.507 200.776C163.698 200.776 163.891 200.711 164.051 200.582C168.188 197.236 172.65 196.589 176.073 196.401C176.552 196.376 176.918 195.966 176.892 195.486C176.867 195.007 176.467 194.638 175.977 194.667C172.291 194.87 167.482 195.574 162.958 199.232C162.584 199.533 162.527 200.08 162.829 200.453C162.999 200.665 163.252 200.776 163.504 200.776H163.507Z" fill="black"/>
<path d="M124.665 212.641C124.856 212.641 125.049 212.579 125.209 212.45C133.078 206.117 141.139 206.537 143.422 206.815C143.91 206.882 144.332 206.534 144.389 206.06C144.448 205.583 144.108 205.15 143.634 205.093C141.18 204.789 132.524 204.335 124.121 211.099C123.747 211.401 123.688 211.947 123.99 212.321C124.162 212.535 124.413 212.646 124.668 212.646L124.665 212.641Z" fill="black"/>
<path d="M160.286 220.258C160.515 220.258 160.744 220.167 160.915 219.987C161.244 219.639 161.229 219.09 160.884 218.76C159.239 217.2 158.19 214.414 158.141 211.488C158.089 208.38 159.141 205.57 161.105 203.58C161.443 203.24 161.438 202.688 161.098 202.353C160.757 202.018 160.206 202.021 159.871 202.361C157.577 204.686 156.347 207.937 156.406 211.517C156.463 214.891 157.721 218.149 159.69 220.018C159.858 220.178 160.074 220.255 160.288 220.255L160.286 220.258Z" fill="#E8646A"/>
<path d="M141.992 221.53C142.868 221.242 143.347 220.296 143.059 219.419L142.213 216.852C141.925 215.976 140.979 215.496 140.102 215.785C139.226 216.074 138.746 217.02 139.035 217.896L139.881 220.463C140.169 221.34 141.115 221.819 141.992 221.53Z" fill="black"/>
<path d="M173.093 212.35C173.969 212.061 174.449 211.115 174.16 210.238L173.315 207.671C173.026 206.795 172.08 206.315 171.204 206.604C170.327 206.893 169.848 207.839 170.137 208.715L170.982 211.282C171.271 212.159 172.217 212.638 173.093 212.35Z" fill="black"/>
<path d="M128.598 231.55C129.152 233.457 132.477 234.171 136.026 233.14C139.576 232.109 142.004 229.727 141.45 227.817C140.896 225.91 137.57 225.196 134.021 226.227C130.472 227.258 128.044 229.64 128.598 231.55Z" fill="#FB8876"/>
<path d="M96.0684 238.467C90.7971 237.852 87.0228 233.08 87.6383 227.808C88.2538 222.537 93.026 218.763 98.2973 219.378C103.569 219.994 107.343 224.766 106.727 230.037C106.112 235.308 101.34 239.083 96.0684 238.467Z" fill="#FFBE97"/>
<path d="M95.3477 231.708L100.464 229.517C101.289 229.164 101.671 228.21 101.317 227.385C100.964 226.56 100.011 226.179 99.1858 226.532L94.0692 228.723C93.2444 229.076 92.8629 230.03 93.216 230.855C93.5692 231.68 94.5229 232.061 95.3477 231.708Z" fill="#FB8876"/>
<path d="M115.832 190.442C115.832 190.442 124.621 199.451 145.616 194.585L139.775 188.2C139.775 188.2 183.736 196.304 186.938 174.801C161.674 174.154 159.29 167.906 145.629 169.133C138.324 169.791 130.011 171.817 123.817 175.882C121.324 177.516 119.018 179.575 117.533 182.192C116.762 183.552 114.437 189.007 115.832 190.437V190.442Z" fill="black"/>
<path d="M115.832 190.442C115.832 190.442 114.34 206.766 103.913 214.076C103.913 214.076 106.638 230.877 105.851 231.076C105.065 231.274 93.2675 215.478 93.2675 215.478C93.2675 215.478 83.2921 184.508 120.505 178.479L115.829 190.442H115.832Z" fill="black"/>
<path d="M109.473 179.426C109.669 179.426 109.865 179.359 110.027 179.224C119.98 170.925 133.566 167.174 146.369 169.2C151.921 170.077 157.291 171.999 161.812 173.762C166.17 175.464 170.521 177.335 174.746 179.328C175.179 179.534 175.697 179.346 175.901 178.913C176.105 178.48 175.919 177.961 175.486 177.758C171.225 175.75 166.838 173.86 162.441 172.146C157.832 170.35 152.352 168.391 146.64 167.489C133.347 165.39 119.248 169.28 108.914 177.894C108.545 178.201 108.496 178.748 108.803 179.116C108.973 179.322 109.221 179.428 109.471 179.428L109.473 179.426Z" fill="black"/>
<path d="M130.253 191.321C130.691 191.321 131.065 190.991 131.114 190.548C131.166 190.071 130.823 189.643 130.346 189.589C124.173 188.911 118.587 184.789 116.115 179.09C115.927 178.649 115.414 178.446 114.973 178.639C114.532 178.83 114.331 179.34 114.522 179.781C117.236 186.042 123.374 190.568 130.155 191.316C130.186 191.318 130.22 191.321 130.251 191.321H130.253Z" fill="black"/>
<path d="M152.399 184.351C152.726 184.351 153.051 184.346 153.376 184.338C153.855 184.325 154.234 183.928 154.224 183.449C154.211 182.969 153.822 182.572 153.334 182.601C145.545 182.81 137.621 180.629 131.004 176.523C130.597 176.27 130.061 176.396 129.808 176.804C129.556 177.211 129.68 177.747 130.089 178C136.711 182.111 144.596 184.351 152.399 184.351Z" fill="black"/>
<path d="M92.6904 216.025C92.8863 216.025 93.0822 215.958 93.2446 215.824C101.202 209.186 106.318 199.049 106.934 188.705C106.963 188.225 106.597 187.815 106.12 187.787C105.648 187.761 105.231 188.122 105.202 188.601C104.614 198.476 99.7273 208.153 92.1336 214.491C91.765 214.798 91.7161 215.347 92.0228 215.713C92.1929 215.919 92.4404 216.025 92.6904 216.025Z" fill="black"/>
<path d="M155.289 233.733C156.068 233.733 156.854 233.653 157.627 233.488C160.661 232.844 163.355 230.936 164.659 228.508C164.886 228.085 164.729 227.56 164.306 227.333C163.883 227.106 163.357 227.266 163.131 227.686C162.079 229.645 159.777 231.256 157.267 231.787C154.758 232.323 152.024 231.782 150.291 230.418C149.913 230.122 149.369 230.189 149.072 230.563C148.776 230.939 148.84 231.485 149.217 231.782C150.82 233.045 153.016 233.73 155.289 233.73V233.733Z" fill="#E8646A"/>
<path d="M205.993 216.288H393.091C393.571 216.288 393.96 215.899 393.96 215.419C393.96 214.94 393.571 214.551 393.091 214.551H205.99C205.511 214.551 205.121 214.94 205.121 215.419C205.121 215.899 205.511 216.288 205.99 216.288H205.993Z" fill="#3A8AA2"/>
<path d="M205.993 224.791H393.091C393.571 224.791 393.96 224.402 393.96 223.922C393.96 223.443 393.571 223.054 393.091 223.054H205.99C205.511 223.054 205.121 223.443 205.121 223.922C205.121 224.402 205.511 224.791 205.99 224.791H205.993Z" fill="#3A8AA2"/>
<path d="M205.993 233.298H393.091C393.571 233.298 393.96 232.908 393.96 232.429C393.96 231.95 393.571 231.56 393.091 231.56H205.99C205.511 231.56 205.121 231.95 205.121 232.429C205.121 232.908 205.511 233.298 205.99 233.298H205.993Z" fill="#3A8AA2"/>
<path d="M183.726 394.672C184.143 394.672 184.512 394.371 184.581 393.945C184.659 393.471 184.336 393.025 183.865 392.948C183.46 392.881 143.172 386.073 123.6 364.689C104.026 343.303 100.515 306.654 100.484 306.286C100.44 305.809 100.015 305.469 99.5406 305.5C99.0638 305.541 98.7106 305.963 98.7544 306.443C98.7879 306.817 102.348 344.04 122.322 365.862C142.301 387.692 183.174 394.595 183.586 394.659C183.633 394.667 183.679 394.672 183.728 394.672H183.726Z" fill="#4F2B2B"/>
</g>
<defs>
<clipPath id="clip0_760_11926">
<rect width="460" height="460" fill="white"/>
</clipPath>
</defs>
</svg>
