<svg width="460" height="460" viewBox="0 0 460 460" fill="none" xmlns="http://www.w3.org/2000/svg">
<g clip-path="url(#clip0_761_12294)">
<rect width="460" height="460" fill="white"/>
<path d="M-209.467 151.294C-208.218 152.124 -206.628 152.033 -205.49 151.185L-151.986 210.83C-152.11 210.964 -152.228 211.109 -152.333 211.264C-153.39 212.858 -152.956 215.004 -151.364 216.062C-149.773 217.121 -147.625 216.685 -146.566 215.094C-146.398 214.839 -146.27 214.57 -146.175 214.293L-102.889 224.67C-103.072 225.952 -102.531 227.281 -101.38 228.044C-99.7892 229.102 -97.6408 228.667 -96.5825 227.075C-96.1164 226.371 -95.9409 225.557 -96.0261 224.779L-48.1389 214.915C-47.9119 215.657 -47.4383 216.328 -46.7425 216.793C-45.9865 217.293 -45.1088 217.455 -44.2804 217.323L-15.5033 329.227C-16.1812 329.467 -16.7913 329.922 -17.2215 330.566C-18.2798 332.158 -17.8442 334.306 -16.2529 335.364C-14.6616 336.422 -12.5132 335.987 -11.4549 334.396C-11.1482 333.931 -10.9711 333.421 -10.9076 332.905L128.715 337.113C127.904 338.663 128.381 340.608 129.869 341.598C131.461 342.656 133.609 342.22 134.667 340.629C134.764 340.483 134.843 340.334 134.914 340.179L183.25 357.539C182.893 358.928 183.423 360.449 184.684 361.286C185.318 361.707 186.041 361.888 186.749 361.856L195.535 426.22L194.706 425.939L195.623 426.841L195.676 427.229L195.883 427.096L274.326 504.375C274.255 504.464 274.186 504.555 274.121 504.651C273.063 506.243 273.498 508.391 275.09 509.449C276.681 510.508 278.829 510.072 279.888 508.481C280.946 506.889 280.51 504.741 278.919 503.683C278.328 503.289 277.656 503.104 276.995 503.107L272.285 453.839C272.343 453.767 272.4 453.692 272.453 453.612C272.718 453.216 272.886 452.782 272.971 452.34L356.581 460.295C356.58 461.419 357.12 462.519 358.126 463.187C359.717 464.245 361.866 463.81 362.924 462.219C363.982 460.627 363.547 458.479 361.955 457.421C361.327 457.002 360.607 456.82 359.906 456.85L352.269 399.113C353.103 398.922 353.872 398.427 354.384 397.655C355.071 396.62 355.125 395.354 354.647 394.304L390.617 373.654C390.857 373.997 391.161 374.303 391.53 374.547C393.122 375.605 395.27 375.169 396.328 373.578C397.387 371.987 396.951 369.838 395.36 368.78C394.392 368.139 393.222 368.05 392.214 368.432L371.959 327.15C372.378 326.896 372.749 326.551 373.039 326.113C373.989 324.684 373.734 322.811 372.521 321.674L402.968 285.784C404.557 286.812 406.681 286.374 407.73 284.793C408.789 283.202 408.353 281.053 406.762 279.995C406.485 279.811 406.19 279.674 405.885 279.579L412.375 244.896C413.601 245.009 414.849 244.463 415.577 243.364C415.767 243.079 415.906 242.775 415.999 242.463L468.517 253.389C468.377 254.638 468.919 255.919 470.039 256.661C471.63 257.719 473.778 257.283 474.837 255.692C475.895 254.101 475.459 251.952 473.868 250.894C473.751 250.816 473.632 250.751 473.51 250.689L502.425 177.045C503.84 177.455 505.415 176.925 506.271 175.635C507.329 174.044 506.894 171.895 505.302 170.837C503.711 169.779 501.563 170.214 500.504 171.806C500.202 172.259 500.026 172.761 499.96 173.267L384.25 168.74C384.142 167.755 383.615 166.825 382.726 166.234C381.135 165.176 378.986 165.612 377.928 167.203C376.87 168.794 377.305 170.943 378.897 172.001C379.055 172.104 379.221 172.191 379.389 172.269L368.263 211.449C366.919 211.166 365.473 211.703 364.666 212.919C364.404 213.313 364.234 213.744 364.15 214.181L268.051 207.831C268.022 206.743 267.481 205.686 266.508 205.037C264.917 203.979 262.769 204.415 261.71 206.006C260.652 207.597 261.088 209.746 262.679 210.804C263.044 211.047 263.441 211.207 263.843 211.296L258.248 255.489C257.089 255.45 255.936 255.993 255.248 257.032L255.405 256.755L156.751 201.112C157.432 199.594 156.94 197.766 155.511 196.817C154.773 196.327 153.917 196.162 153.105 196.278L142.091 150.218C142.792 149.981 143.423 149.524 143.861 148.858C144.918 147.264 144.484 145.118 142.893 144.06C141.302 143.002 139.153 143.437 138.095 145.028C137.683 145.649 137.499 146.355 137.523 147.047L66.5345 155.792C66.3493 154.943 65.8511 154.164 65.0708 153.646C63.4794 152.587 61.3311 153.023 60.2728 154.614C59.8324 155.278 59.6529 156.035 59.7088 156.772L16.4926 163.876C16.2865 163.08 15.7993 162.356 15.0621 161.866C13.4708 160.808 11.3225 161.243 10.2642 162.835C10.1519 163.003 10.0611 163.18 9.98183 163.356L-66.6595 139.418C-66.4045 138.089 -66.9473 136.678 -68.1444 135.882C-69.0462 135.285 -70.1259 135.164 -71.087 135.462L-93.1461 84.9634C-92.6504 84.7021 -92.2107 84.3162 -91.8773 83.8175C-90.819 82.2262 -91.2546 80.0778 -92.846 79.0195C-94.4399 77.963 -96.5857 78.3968 -97.644 79.9881C-97.6508 80.0007 -97.6576 80.0133 -97.6662 80.0232L-136.934 64.0719L-157.691 55.6402C-157.418 54.2982 -157.954 52.8639 -159.165 52.0584C-160.757 51.0001 -162.905 51.4357 -163.963 53.027C-164.785 54.2655 -164.704 55.8352 -163.881 56.9713L-197.126 93.4446C-197.165 93.4171 -197.203 93.3852 -197.246 93.3569C-198.837 92.2987 -200.985 92.7343 -202.044 94.3256C-203.102 95.9169 -202.666 98.0653 -201.075 99.1236C-200.697 99.3737 -200.288 99.5399 -199.87 99.6252L-207.31 144.959C-208.512 144.876 -209.722 145.419 -210.435 146.496C-211.493 148.087 -211.058 150.235 -209.467 151.294ZM-161.089 58.4019C-159.965 58.4028 -158.865 57.8626 -158.197 56.8564C-158.068 56.6611 -157.964 56.4593 -157.877 56.2543L-134.342 65.8138L-97.9635 80.5902C-98.092 80.9025 -98.1696 81.226 -98.202 81.5529L-162.527 90.5111L-161.087 58.4045L-161.089 58.4019ZM64.6724 159.639L81.6547 187.591L43.6574 213.873C43.4487 213.625 43.2042 213.398 42.9207 213.211C42.7874 213.121 42.6466 213.048 42.505 212.979L62.2571 159.871C63.0696 160.09 63.9291 160.003 64.6724 159.639ZM138.331 149.165C138.54 149.413 138.784 149.64 139.068 149.827C139.234 149.937 139.402 150.026 139.577 150.103L111.895 232.065C111.113 231.879 110.294 231.973 109.581 232.32L82.5132 187.77L138.329 149.162L138.331 149.165ZM345.605 399.383L335.978 359.665L349.873 392.689C349.385 392.949 348.952 393.334 348.619 393.828C347.879 394.943 347.874 396.328 348.479 397.421L345.605 399.383ZM357.159 458.392C356.896 458.79 356.726 459.222 356.641 459.663L273.033 451.704C273.033 451.115 272.883 450.533 272.596 450.017L345.199 400.435L358.919 457.039C358.223 457.276 357.596 457.735 357.157 458.394L357.159 458.392ZM-11.4751 330.529C-11.6979 330.205 -11.9775 329.917 -12.311 329.675L16.6845 280.415C18.2114 281.136 20.0776 280.649 21.0398 279.199L51.5175 295.575L-11.4751 330.529ZM-197.227 99.1162C-197.166 99.0741 -197.104 99.0301 -197.047 98.9827L-167.441 138.998C-167.656 139.191 -167.851 139.409 -168.019 139.66C-168.458 140.319 -168.635 141.074 -168.586 141.808L-178.536 143.412L-197.227 99.1162ZM-110.281 195.725L-99.5699 206.209C-99.6398 206.293 -99.706 206.383 -99.7685 206.477C-100.159 207.067 -100.345 207.731 -100.346 208.387L-111.442 209.397L-161.851 145.237L-110.281 195.725ZM-99.1247 205.753L-136.58 169.085L-162.451 143.757C-162.381 143.673 -162.315 143.584 -162.252 143.489C-161.902 142.963 -161.719 142.379 -161.684 141.788L-96.2059 139.812L-97.1552 204.94C-97.8718 204.997 -98.5631 205.274 -99.1239 205.749L-99.1247 205.753ZM-168.483 142.438C-168.278 143.239 -167.792 143.967 -167.05 144.458C-166.334 144.935 -165.504 145.107 -164.711 145.008L-150.5 209.86L-178.28 144.017L-168.481 142.437L-168.483 142.438ZM-147.533 210.298C-148.25 209.821 -149.08 209.65 -149.873 209.748L-164.088 144.872C-163.799 144.779 -163.519 144.649 -163.26 144.484L-112.204 209.467L-146.049 212.551C-146.216 211.662 -146.722 210.838 -147.536 210.3L-147.533 210.298ZM-145.987 213.186L-111.731 210.064L-101.842 222.649C-102.027 222.826 -102.2 223.025 -102.346 223.244C-102.515 223.499 -102.643 223.768 -102.738 224.045L-146.024 213.668C-146 213.508 -145.985 213.345 -145.986 213.182L-145.987 213.186ZM-99.2562 221.708C-99.9876 221.667 -100.72 221.852 -101.339 222.254L-110.972 209.996L-100.288 209.021C-100.122 209.911 -99.6153 210.734 -98.8017 211.272C-98.4651 211.497 -98.0999 211.651 -97.7264 211.744L-99.2562 221.708ZM-93.5673 207.412L-52.7825 191.16L-46.2222 210.746C-46.8066 211.003 -47.328 211.422 -47.7111 211.995C-47.9673 212.381 -48.1332 212.801 -48.22 213.229L-93.4269 208.437C-93.4232 208.091 -93.4701 207.746 -93.5673 207.412ZM10.5807 167.063C10.7708 167.274 10.9888 167.468 11.2373 167.633C11.7242 167.956 12.2584 168.139 12.7994 168.193L14.967 215.111L-41.3731 213.677C-41.4159 213.047 -41.6275 212.439 -41.994 211.915L10.5833 167.062L10.5807 167.063ZM259.463 262.143L275.231 295.43C274.766 295.69 274.349 296.06 274.036 296.537C273.883 296.769 273.764 297.012 273.671 297.264L260.486 295.306L258.861 262.331C259.068 262.287 259.27 262.224 259.467 262.144L259.463 262.143ZM409.576 239.968C409.099 240.969 409.142 242.117 409.636 243.062L390.347 255.616L369.601 217.616C369.917 217.382 370.202 217.093 370.433 216.748L409.573 239.97L409.576 239.968ZM369.056 217.946L389.813 255.967L329.802 295.023C329.58 294.745 329.314 294.494 329.002 294.288C328.967 294.265 328.929 294.245 328.894 294.223L366.371 218.083C367.26 218.405 368.227 218.344 369.054 217.948L369.056 217.946ZM20.0757 274.401C19.9424 274.311 19.806 274.239 19.6644 274.171L40.1033 219.431C41.0532 219.69 42.0706 219.528 42.8917 218.996L69.6513 252.946L21.1477 275.543C20.8885 275.1 20.5311 274.707 20.0757 274.401ZM43.3931 218.598C43.5779 218.422 43.7454 218.227 43.8946 218.005C44.0471 217.777 44.163 217.536 44.2549 217.289L107.828 234.323C107.727 234.624 107.668 234.93 107.653 235.237L70.2494 252.664L43.3957 218.596L43.3931 218.598ZM107.682 235.931C107.749 236.372 107.896 236.799 108.124 237.186L90.9414 269.425L89.2782 272.548C88.2319 272.106 87.0519 272.215 86.1097 272.797L70.6486 253.184L107.677 235.934L107.682 235.931ZM89.8506 272.853C89.8506 272.853 89.8488 272.85 89.847 272.848L91.5034 269.738L108.549 237.754C108.736 237.959 108.95 238.148 109.192 238.31C109.593 238.575 110.028 238.746 110.47 238.831L116.64 268.175L91.186 274.543C90.9412 273.876 90.4922 273.273 89.8533 272.851L89.8506 272.853ZM21.4171 276.122L70.0584 253.46L85.6035 273.182C85.3986 273.369 85.212 273.581 85.0527 273.822C84.7211 274.323 84.5361 274.878 84.4878 275.438L21.5986 276.888C21.5687 276.628 21.5061 276.372 21.4171 276.122ZM130.09 335.702L90.2145 278.336C90.4395 278.139 90.6452 277.909 90.8192 277.651C91.3256 276.887 91.487 275.998 91.3456 275.161L116.768 268.804L130.773 335.407C130.535 335.48 130.309 335.58 130.092 335.704L130.09 335.702ZM117.387 268.647L146.967 261.247C147.221 261.861 147.653 262.405 148.249 262.799C148.481 262.952 148.726 263.074 148.976 263.164L138.825 306.955L132.258 335.283C131.969 335.244 131.681 335.239 131.397 335.274L117.387 268.647ZM268.471 448.416L255.907 419.231L248.143 401.19C248.623 400.929 249.047 400.554 249.371 400.065C250.008 399.108 250.1 397.952 249.73 396.951L265.178 389.551L268.976 448.284C268.803 448.316 268.635 448.359 268.47 448.413L268.471 448.416ZM232.643 294.406L260.59 342.034C260.261 342.272 259.962 342.568 259.726 342.928C259.316 343.546 259.133 344.248 259.153 344.94L239.695 348.462L231.985 294.637C232.213 294.583 232.435 294.505 232.647 294.407L232.643 294.406ZM259.227 345.575C259.412 346.424 259.91 347.207 260.695 347.726C260.892 347.857 261.095 347.964 261.307 348.05L247.182 394.76C246.896 394.703 246.606 394.684 246.319 394.698L239.786 349.093L259.23 345.573L259.227 345.575ZM249.455 396.375C249.198 395.946 248.848 395.564 248.403 395.267C248.207 395.139 248.002 395.029 247.794 394.944L252.846 378.262L261.939 348.239C262.13 348.277 262.322 348.295 262.513 348.301L265.136 388.867L249.455 396.379L249.455 396.375ZM263.15 348.258C264.073 348.111 264.934 347.597 265.493 346.757C265.718 346.416 265.872 346.051 265.965 345.678L331.283 355.667C331.256 356.146 331.328 356.622 331.494 357.072L265.758 388.564L263.152 348.256L263.15 348.258ZM331.85 353.959C331.625 354.3 331.471 354.666 331.378 355.039L266.06 345.05C266.102 344.353 265.93 343.655 265.568 343.054L297.561 319.4L332.064 353.673C331.988 353.766 331.918 353.861 331.852 353.962L331.85 353.959ZM265.188 342.54C264.994 342.324 264.774 342.127 264.524 341.959C264.448 341.907 264.369 341.865 264.291 341.822L276.061 301.796C277.135 302.07 278.285 301.814 279.14 301.103L297.102 318.945L265.188 342.54ZM275.007 301.333C275.153 301.429 275.306 301.509 275.459 301.582L263.701 341.564C263.391 341.461 263.075 341.406 262.757 341.391L260.516 295.956L273.505 297.884C273.289 299.185 273.832 300.556 275.003 301.332L275.007 301.333ZM262.12 341.423C261.843 341.461 261.569 341.532 261.307 341.638L233.204 294.076C233.53 293.84 233.823 293.545 234.06 293.188C234.288 292.845 234.442 292.475 234.535 292.095L259.873 295.856L262.118 341.421L262.12 341.423ZM153.044 261.832C153.072 261.789 153.096 261.745 153.122 261.699L197.35 278.651L227.841 290.339C227.642 291.047 227.681 291.792 227.928 292.469L172.279 319.032L151.445 263.131C152.077 262.88 152.64 262.443 153.044 261.832ZM229.535 294.324C230.107 294.634 230.731 294.762 231.345 294.73L239.06 348.58L189.94 357.473C189.751 356.797 189.359 356.175 188.781 355.706L229.535 294.324ZM190.056 358.101L239.152 349.213L245.683 394.792C244.958 394.965 244.288 395.367 243.794 395.982L189.657 360.038C189.987 359.429 190.115 358.754 190.056 358.101ZM244.573 401.038C245.489 401.645 246.586 401.758 247.557 401.445L253.216 414.597L267.884 448.674C267.762 448.745 267.64 448.822 267.524 448.907L229.204 405.816L243.296 396.814C242.664 398.318 243.164 400.101 244.573 401.038ZM271.187 448.628C270.687 448.366 270.15 448.239 269.614 448.232L265.8 389.252L331.766 357.649C331.965 357.983 332.219 358.284 332.529 358.543L271.187 448.628ZM332.513 353.223L298.076 319.016L324.509 299.474C324.703 299.689 324.923 299.886 325.173 300.054C325.801 300.473 326.517 300.654 327.215 300.625L333.97 352.502C333.442 352.623 332.94 352.865 332.513 353.223ZM324.129 298.96L297.62 318.559L279.592 300.65C279.668 300.558 279.737 300.462 279.803 300.361C280.15 299.842 280.332 299.262 280.371 298.677L323.653 297.573C323.71 298.06 323.872 298.531 324.13 298.955L324.129 298.96ZM258.222 262.404L259.84 295.208L234.628 291.464C234.679 290.508 234.336 289.555 233.643 288.85L256.402 261.938C256.972 262.268 257.601 262.421 258.219 262.406L258.222 262.404ZM255.88 261.566L233.154 288.44C233.131 288.425 233.111 288.407 233.089 288.392C231.497 287.334 229.349 287.769 228.291 289.36C228.209 289.484 228.136 289.613 228.072 289.744L159.871 263.601L153.401 261.122C153.484 260.9 153.542 260.672 153.578 260.444L254.716 259.464C254.839 260.263 255.234 261.017 255.879 261.571L255.88 261.566ZM146.776 260.635L117.255 268.018L111.128 238.885C112.185 238.874 113.215 238.379 113.884 237.474L146.962 258.594C146.69 259.253 146.636 259.961 146.777 260.631L146.776 260.635ZM39.0921 218.973C39.2254 219.063 39.3617 219.135 39.5033 219.204L19.0645 273.943C18.8192 273.877 18.5692 273.838 18.3208 273.828L15.6387 215.764L37.5592 216.321C37.6308 217.359 38.1623 218.353 39.0966 218.974L39.0921 218.973ZM-41.9411 215.818C-41.6292 215.35 -41.4531 214.833 -41.3906 214.309L14.9956 215.743L17.6806 273.855C17.055 273.942 16.4546 274.199 15.9552 274.611L-42.1691 216.122C-42.0879 216.026 -42.0105 215.925 -41.9411 215.818ZM21.3441 278.631C21.4946 278.272 21.5835 277.897 21.6086 277.521L84.4863 276.071C84.5211 276.433 84.617 276.787 84.7639 277.125L52.1818 295.204L21.3415 278.632L21.3441 278.631ZM85.0762 277.682C85.3202 278.042 85.6359 278.359 86.0194 278.617C87.1634 279.376 88.5902 279.364 89.6965 278.71L129.565 336.066C129.398 336.206 129.242 336.362 129.1 336.539L52.854 295.568L85.0773 277.689L85.0762 277.682ZM133.707 335.825C133.444 335.651 133.166 335.521 132.882 335.428L149.594 263.328C150.008 263.396 150.429 263.39 150.833 263.31L171.703 319.307L134.763 336.939C134.507 336.506 134.154 336.125 133.707 335.825ZM172.504 319.631L228.203 293.045C228.408 293.389 228.672 293.704 229.001 293.968L188.247 355.351C187.445 354.918 186.537 354.836 185.704 355.06L172.501 319.633L172.504 319.631ZM189.302 360.568L243.016 396.231L228.772 405.327L189.134 360.756C189.193 360.695 189.247 360.634 189.302 360.568ZM267.048 449.33C266.919 449.468 266.799 449.614 266.69 449.776C266.581 449.938 266.494 450.109 266.415 450.281L196.664 426.596L228.657 406.16L267.047 449.327L267.048 449.33ZM272.241 449.482C272.119 449.336 271.983 449.198 271.836 449.071L271.815 448.84L333.058 358.898C333.741 359.278 334.505 359.399 335.234 359.293L345.045 399.764L272.245 449.482L272.241 449.482ZM390.304 373.096L354.335 393.746C354.095 393.403 353.791 393.097 353.421 392.853C353.185 392.695 352.935 392.577 352.678 392.484L360.3 363.078L390.037 371.072C389.918 371.76 390.014 372.465 390.302 373.094L390.304 373.096ZM352.06 392.324C351.522 392.236 350.974 392.277 350.463 392.44L336.363 358.928C336.852 358.668 337.284 358.283 337.617 357.789C337.77 357.561 337.885 357.32 337.977 357.077L359.684 362.912L352.06 392.324ZM338.142 356.461C338.302 355.53 338.074 354.57 337.507 353.81L367.701 326.633C367.863 326.797 368.047 326.949 368.246 327.083C368.451 327.22 368.668 327.329 368.889 327.416L359.848 362.298L338.144 356.464L338.142 356.461ZM367.295 326.137L341.171 349.652L366.966 322.865C366.513 323.951 366.651 325.184 367.295 326.137ZM336.894 353.174C336.815 353.112 336.734 353.052 336.65 352.993C336.022 352.575 335.306 352.394 334.608 352.422L327.853 300.545C328.691 300.356 329.463 299.859 329.975 299.087C330.428 298.407 330.605 297.624 330.536 296.868L401.556 283.929C401.708 284.408 401.968 284.857 402.32 285.238L336.893 353.178L336.894 353.174ZM330.42 296.24C330.353 296.006 330.267 295.777 330.152 295.557L390.12 256.528L402.935 279.999C402.563 280.248 402.233 280.568 401.97 280.967C401.493 281.683 401.324 282.512 401.421 283.302L330.422 296.238L330.42 296.24ZM403.497 279.699L390.658 256.183L409.99 243.602C410.212 243.879 410.477 244.13 410.79 244.337C411.096 244.54 411.421 244.687 411.757 244.783L405.268 279.449C404.664 279.377 404.054 279.465 403.499 279.702L403.497 279.699ZM414.617 238.568C413.065 237.537 410.989 237.925 409.906 239.421L370.926 216.294L467.953 252.618L416.144 241.84C416.284 240.591 415.741 239.309 414.622 238.568L414.617 238.568ZM469.081 251.867C468.993 251.998 468.919 252.136 468.853 252.276L370.927 215.615C371.043 215.108 371.044 214.585 370.932 214.086L414.599 200.891L469.227 251.675C469.179 251.74 469.129 251.802 469.083 251.869L469.081 251.867ZM365.639 217.718C365.691 217.752 365.745 217.78 365.798 217.81L328.325 293.939C327.348 293.562 326.263 293.663 325.376 294.167L308.367 269.876L365.242 217.407C365.367 217.518 365.495 217.623 365.639 217.718ZM324.852 294.533C324.61 294.738 324.391 294.977 324.206 295.259C323.86 295.778 323.677 296.359 323.638 296.944L280.356 298.048C280.284 297.439 280.048 296.851 279.67 296.355L307.893 270.318L324.852 294.538L324.852 294.533ZM279.233 295.881C279.108 295.77 278.978 295.662 278.834 295.568C278.199 295.146 277.476 294.966 276.772 294.995L265.376 211.291C265.701 211.215 266.014 211.094 266.31 210.926L307.521 269.782L279.231 295.879L279.233 295.881ZM264.743 211.379L276.137 295.081C276.029 295.106 275.921 295.135 275.816 295.173L260.027 261.846C260.41 261.597 260.748 261.266 261.017 260.864C262.073 259.27 261.639 257.124 260.048 256.066C259.683 255.823 259.286 255.663 258.884 255.574L264.481 211.383C264.57 211.387 264.657 211.385 264.745 211.382L264.743 211.379ZM254.679 258.827L153.616 259.809C153.582 258.729 153.042 257.68 152.073 257.036C151.637 256.748 151.159 256.572 150.671 256.5L153.718 203.158C154.773 203.122 155.793 202.602 156.437 201.672L255.084 257.311C254.825 257.792 254.692 258.31 254.677 258.828L254.679 258.827ZM151.686 202.584C152.121 202.872 152.599 203.048 153.084 203.122L150.105 255.29L146.134 206.397L151.167 202.167C151.321 202.32 151.496 202.463 151.685 202.589L151.686 202.584ZM149.561 256.513C148.659 256.673 147.821 257.181 147.275 258.005C147.269 258.013 147.265 258.024 147.256 258.034L114.211 236.933C114.763 235.794 114.637 234.466 113.939 233.457L145.532 206.897L149.559 256.51L149.561 256.513ZM113.529 232.968C113.375 232.814 113.201 232.671 113.012 232.546C112.847 232.439 112.678 232.347 112.503 232.271L140.185 150.309C140.436 150.367 140.69 150.4 140.946 150.404L145.47 206.118L113.529 232.968ZM109.038 232.653C108.724 232.884 108.444 233.17 108.214 233.515C108.167 233.587 108.126 233.662 108.083 233.735L44.4155 216.677C44.5491 215.893 44.4067 215.088 44.0213 214.398L81.9898 188.136L109.038 232.653ZM39.0766 213.219C38.71 213.464 38.3823 213.787 38.1227 214.179C37.8108 214.647 37.6347 215.165 37.5722 215.688L15.6082 215.13L13.4386 168.198C13.7739 168.17 14.1019 168.093 14.4146 167.971L39.0759 213.223L39.0766 213.219ZM10.1966 166.548L-42.4129 211.429C-42.5634 211.281 -42.7296 211.143 -42.9105 211.024C-43.7403 210.474 -44.7177 210.332 -45.6152 210.543L-52.1878 190.923L9.98534 166.146C10.0479 166.286 10.1183 166.42 10.1985 166.551L10.1966 166.548ZM-52.987 190.551L-93.8042 206.818C-94.0668 206.303 -94.4567 205.847 -94.9724 205.506C-95.0957 205.424 -95.2213 205.356 -95.3496 205.29L-75.8867 154.811L-70.9859 142.096C-70.3998 142.259 -69.7873 142.259 -69.2136 142.115L-52.9889 190.548L-52.987 190.551ZM-71.9738 141.649C-71.8486 141.733 -71.7167 141.804 -71.5814 141.87L-95.9443 205.059C-96.1343 205.005 -96.323 204.969 -96.5167 204.949L-95.5673 139.794L-73.5001 139.129C-73.395 140.121 -72.8675 141.058 -71.9738 141.649ZM-96.1966 139.174L-161.705 141.152C-161.775 140.589 -161.982 140.047 -162.317 139.575L-97.5206 83.9855C-97.2921 84.2896 -97.012 84.5616 -96.6772 84.7835C-96.2829 85.0457 -95.8518 85.2158 -95.4147 85.2997L-96.2011 139.173L-96.1966 139.174ZM-98.2059 82.1992C-98.1668 82.6282 -98.0508 83.0501 -97.8576 83.4375L-162.729 139.092C-162.878 138.946 -163.042 138.812 -163.221 138.696C-163.671 138.398 -164.161 138.222 -164.663 138.152L-162.555 91.1623L-98.2041 82.2018L-98.2059 82.1992ZM-165.302 138.12C-165.875 138.147 -166.433 138.315 -166.928 138.615L-196.578 98.5447C-196.469 98.4217 -196.366 98.2953 -196.273 98.1557C-195.788 97.4267 -195.619 96.5825 -195.73 95.7784L-163.201 91.248L-165.302 138.12ZM-197.794 99.4199L-179.189 143.515L-204.204 147.546C-204.409 146.746 -204.896 146.018 -205.637 145.527C-205.966 145.309 -206.318 145.157 -206.68 145.063L-199.233 99.6984C-198.739 99.7075 -198.25 99.6147 -197.794 99.4199ZM-205.016 150.759C-204.891 150.625 -204.774 150.481 -204.669 150.325C-204.229 149.666 -204.052 148.91 -204.102 148.177L-178.933 144.12L-151.084 210.129C-151.232 210.208 -151.376 210.302 -151.512 210.404L-205.016 150.759ZM-96.1539 224.15C-96.3809 223.408 -96.8545 222.738 -97.5503 222.273C-97.887 222.048 -98.2521 221.895 -98.6257 221.801L-97.0958 211.837C-95.9064 211.909 -94.7116 211.365 -94.0056 210.301C-93.7494 209.915 -93.5835 209.495 -93.4966 209.067L-48.2898 213.859C-48.2919 214.001 -48.2851 214.144 -48.2712 214.286L-96.1584 224.15L-96.1539 224.15ZM-43.6619 217.159C-43.29 217.028 -42.939 216.833 -42.6249 216.574L15.4993 275.063C15.4182 275.159 15.3407 275.26 15.2714 275.367C14.2379 276.921 14.6322 279.005 16.1345 280.086L-12.861 329.346C-13.507 329.042 -14.2093 328.952 -14.8822 329.061L-43.6593 217.157L-43.6619 217.159ZM-10.8833 332.26C-10.9085 331.856 -11.0054 331.456 -11.1691 331.083L52.1842 295.931L127.557 336.434L-10.8859 332.261L-10.8833 332.26ZM135.136 339.571C135.314 338.885 135.271 338.166 135.033 337.514L171.92 319.907L185.102 355.282C184.561 355.545 184.077 355.946 183.72 356.484C183.624 356.63 183.545 356.779 183.474 356.934L135.138 339.574L135.136 339.571ZM187.387 361.765C187.839 361.659 188.271 361.462 188.652 361.183L228.221 405.677L196.174 426.147L187.384 361.766L187.387 361.765ZM276.359 503.162C275.784 503.272 275.234 503.528 274.776 503.916L197.147 427.436L266.21 450.884C265.883 452.256 266.416 453.747 267.658 454.574C268.934 455.421 270.56 455.308 271.703 454.418L276.363 503.163L276.359 503.162ZM358.936 454.39L345.764 400.044L348.836 397.948C349.046 398.202 349.296 398.432 349.586 398.624C350.214 399.042 350.935 399.224 351.637 399.196L358.938 454.393L358.936 454.39ZM391.64 368.709C391.221 368.963 390.848 369.311 390.56 369.746C390.407 369.974 390.294 370.213 390.2 370.458L360.457 362.461L369.496 327.592C370.132 327.716 370.786 327.652 371.385 327.427L391.64 368.709ZM372.015 321.28C370.986 320.624 369.737 320.578 368.7 321.058L398.122 290.506L372.018 321.278L372.015 321.28ZM472.918 250.451C471.779 250.122 470.541 250.404 469.651 251.199L415.296 200.672L500.178 175.022C500.431 175.644 500.867 176.201 501.469 176.603C501.586 176.681 501.707 176.748 501.827 176.808L472.916 250.453L472.918 250.451ZM499.935 173.905C499.944 174.074 499.962 174.245 499.997 174.412L414.758 200.166L383.581 171.182C383.62 171.131 383.659 171.081 383.695 171.028C384.036 170.517 384.219 169.948 384.262 169.375L499.935 173.905ZM379.99 172.476C381.105 172.748 382.296 172.449 383.151 171.659L414.046 200.38L370.727 213.469C370.47 212.869 370.044 212.332 369.461 211.945C369.272 211.82 369.074 211.716 368.871 211.632L379.99 172.476ZM364.087 214.815C364.084 215.574 364.33 216.321 364.801 216.932L307.989 269.342L266.827 210.556C267.07 210.351 267.288 210.112 267.473 209.83C267.755 209.403 267.929 208.938 268.006 208.463L364.085 214.812L364.087 214.815ZM150.711 197.783C149.904 198.999 149.968 200.538 150.753 201.669L146.066 205.61L141.636 151.056L152.483 196.425C151.782 196.662 151.151 197.119 150.71 197.787L150.711 197.783ZM137.602 147.678C137.677 148.013 137.798 148.337 137.968 148.635L82.1807 187.222L65.2179 159.304C65.5317 159.072 65.814 158.785 66.042 158.442C66.4542 157.822 66.6384 157.115 66.6137 156.423L137.602 147.678ZM59.8109 157.403C60.017 158.198 60.5042 158.922 61.2414 159.412C61.3746 159.502 61.5155 159.575 61.6571 159.644L41.905 212.752C41.1451 212.547 40.3471 212.61 39.6352 212.914L14.9823 167.679C15.387 167.427 15.7497 167.087 16.0289 166.661C16.4694 165.998 16.6488 165.241 16.593 164.504L59.8091 157.4L59.8109 157.403ZM9.77853 163.963C9.65663 164.485 9.66009 165.025 9.78083 165.537L-52.3924 190.314L-68.6076 141.905C-68.0436 141.647 -67.5398 141.236 -67.1731 140.678C-67.0352 140.469 -66.9241 140.254 -66.8361 140.029L9.78377 163.959L9.77853 163.963ZM-71.678 135.704C-72.1737 135.966 -72.6134 136.351 -72.9468 136.85C-73.2844 137.36 -73.4683 137.921 -73.5112 138.49L-95.5598 139.153L-94.7734 85.3578C-94.4224 85.3577 -94.0716 85.3071 -93.739 85.2029L-71.678 135.704ZM-163.457 57.4544C-163.316 57.5895 -163.163 57.7127 -162.995 57.825C-162.599 58.0898 -162.168 58.2599 -161.726 58.3446L-163.172 90.5994L-195.874 95.1542C-196.029 94.6818 -196.289 94.2392 -196.643 93.867L-163.455 57.4571L-163.457 57.4544Z" fill="#B4185C"/>
<path d="M441.367 403.687H403.306L409.041 451.134H436.153L441.367 403.687Z" fill="#DF8711"/>
<path d="M404.413 377.896L410.086 403.166V403.687H414.778L409.113 377.42C409.067 377.207 408.968 377.011 408.825 376.847L407.056 374.825C406.366 374.037 405.073 374.367 404.846 375.389L404.413 377.339C404.372 377.522 404.372 377.713 404.413 377.896Z" fill="#8FC6D7"/>
<path d="M418.19 368.192L418.878 402.705L418.717 404.08L423.419 404.08L422.934 368.241C422.931 368.062 422.891 367.886 422.816 367.723L421.508 364.888C421.02 363.829 419.486 363.923 419.13 365.033L418.251 367.776C418.207 367.911 418.187 368.051 418.19 368.192Z" fill="#BF8888"/>
<path d="M439.586 376.186L433.904 403.642V404.207H429.212L434.886 375.671C434.926 375.469 435.015 375.279 435.145 375.118L436.894 372.949C437.573 372.108 438.924 372.436 439.141 373.495L439.587 375.67C439.622 375.841 439.621 376.016 439.586 376.186Z" fill="#FADBE9"/>
<path d="M432.691 378.715L431.057 403.608L430.776 403.688L426.083 403.688L427.654 379.151C427.669 378.924 427.744 378.706 427.871 378.518L429.523 376.069C430.083 375.239 431.337 375.346 431.748 376.259L432.581 378.106C432.667 378.297 432.704 378.506 432.691 378.715Z" fill="#FBE4C6"/>
<path d="M408.521 410.464H436.154" stroke="#4F2B2B" stroke-width="3" stroke-linecap="round"/>
<path d="M47.0311 458.679H192.34L155.309 350H10.0003L47.0311 458.679Z" fill="#F2AE54"/>
<path d="M93.3214 392.264C83.3177 392.264 75.2082 389.831 75.2082 386.83C75.2082 383.829 83.3177 381.396 93.3214 381.396C103.325 381.396 111.435 383.829 111.435 386.83C111.435 389.831 103.325 392.264 93.3214 392.264Z" fill="white"/>
<path d="M435.547 451H15.4529C11.0542 451 11 453.686 11 457C11 460.314 11.0542 463 15.4529 463H435.547C439.946 463 440 460.314 440 457C440 453.686 439.946 451 435.547 451Z" fill="#307286"/>
<path d="M269.265 356.565V315.033L230.034 303.99C213.962 299.464 196.694 303.69 184.521 315.119C171.33 327.511 166.3 346.306 173.509 363.631L192.157 425.262L269.26 356.555L269.265 356.565Z" fill="#854747"/>
<path d="M309.14 356.565V315.033L348.371 303.99C364.443 299.464 381.712 303.69 393.884 315.119C407.075 327.511 412.105 346.306 406.866 363.631L388.218 425.262L309.145 356.555L309.14 356.565Z" fill="#854747"/>
<path d="M226.047 362.726C225.721 362.726 225.426 362.502 225.349 362.171L222.743 350.976C222.651 350.589 222.896 350.202 223.277 350.116C223.664 350.024 224.051 350.268 224.143 350.65L226.75 361.845C226.841 362.232 226.597 362.619 226.215 362.706C226.159 362.716 226.103 362.726 226.052 362.726H226.047Z" fill="#4F2B2B"/>
<path d="M354.232 362.726C354.176 362.726 354.125 362.721 354.069 362.705C353.682 362.614 353.443 362.227 353.534 361.845L356.141 350.65C356.232 350.263 356.614 350.019 357.006 350.115C357.393 350.207 357.632 350.594 357.541 350.976L354.934 362.171C354.858 362.502 354.563 362.726 354.237 362.726H354.232Z" fill="#4F2B2B"/>
<path d="M344.438 322.244H228.363V451.591H344.438V322.244Z" fill="#854747"/>
<path d="M269.269 315.036H309.594L307.736 300.46L271.936 299.203L269.269 315.036Z" fill="#4F2B2B"/>
<path d="M261.862 312.949L269.274 315.036L309.376 314.66L317.725 312.527C317.725 312.527 321.314 334.851 290.982 335.355C260.65 335.859 261.867 312.949 261.867 312.949H261.862Z" fill="#FFBE97"/>
<path d="M278.662 360.76L271.153 356.565L238.943 338.574L212.139 388.17L268.409 416.944L278.662 360.76Z" fill="#FFBE97"/>
<path d="M212.136 388.169L192.083 425.272L194.511 433.295C199.226 448.868 213.577 459.524 229.853 459.524C247.687 459.524 262.975 446.776 266.177 429.227L268.417 416.943L212.141 388.169H212.136Z" fill="#854747"/>
<path d="M229.848 460.244C229.451 460.244 229.13 459.923 229.13 459.526C229.13 459.129 229.451 458.808 229.848 458.808C247.345 458.808 262.323 446.315 265.464 429.102L267.704 416.818C267.776 416.426 268.147 416.166 268.539 416.242C268.931 416.314 269.191 416.685 269.12 417.077L266.879 429.362C263.616 447.257 248.043 460.244 229.848 460.244Z" fill="#4F2B2B"/>
<path d="M202.727 406.287C202.61 406.287 202.493 406.262 202.386 406.201C202.035 406.013 201.907 405.575 202.096 405.229L211.499 387.828C211.687 387.476 212.125 387.349 212.471 387.537C212.822 387.726 212.95 388.164 212.761 388.51L203.358 405.911C203.226 406.15 202.982 406.287 202.727 406.287Z" fill="#4F2B2B"/>
<path d="M278.605 360.759L282.311 347.553C284.612 339.351 281.374 330.6 274.287 325.865L246.2 307.115L239.241 281.864C238.589 279.496 236.365 277.908 233.911 278.061C231.208 278.229 229.09 280.443 229.039 283.147L228.525 310.719C228.474 313.56 229.044 316.375 230.194 318.977L238.895 338.572L278.61 360.759H278.605Z" fill="#FFBE97"/>
<path d="M334.673 275.646C334.673 275.646 315.001 315.493 291.191 315.259C267.38 315.02 250.351 294.636 248.523 269.868C247.617 257.589 251.522 243.156 257.051 237.545C263.359 231.151 276.885 225.174 288.951 223.866C306.255 221.992 318.942 235.468 318.942 235.468C318.942 235.468 330.895 238.874 335.824 251.418C339.056 259.656 334.673 275.641 334.673 275.641V275.646Z" fill="#4F2B2B"/>
<path d="M284.023 324.902C304.713 324.902 311.706 317.529 317.904 313.927L318.671 317.538C317.23 321.527 293.591 329.076 284.023 324.902Z" fill="#4F2B2B"/>
<path d="M325.876 269.532C329.964 279.052 328.329 299.172 319.456 310.112C309.941 321.842 300.273 323.405 288.192 323.405C276.111 323.405 262.075 315.259 256.567 299.289C249.567 278.991 256.75 256.907 275.887 248.69C295.024 240.473 317.409 249.805 325.876 269.532Z" fill="#FFBE97"/>
<path d="M323.997 283.274C323.192 289.856 322.245 295.543 327.764 296.215C333.283 296.887 339.982 292.03 340.782 285.448C341.586 278.865 337.763 272.98 332.244 272.308C326.725 271.636 324.796 276.691 323.997 283.274Z" fill="#FFBE97"/>
<path d="M303.285 270.549C303.245 272.377 304.156 273.873 305.317 273.899C306.478 273.924 307.455 272.463 307.491 270.636C307.531 268.808 306.62 267.311 305.459 267.286C304.299 267.26 303.321 268.721 303.285 270.549Z" fill="#4F2B2B"/>
<path d="M274.667 270.389C274.627 272.217 275.538 273.713 276.699 273.739C277.859 273.764 278.837 272.303 278.872 270.475C278.913 268.648 278.002 267.151 276.841 267.126C275.68 267.1 274.703 268.561 274.667 270.389Z" fill="#4F2B2B"/>
<path d="M273.081 292.218C265.001 292.218 258.424 285.645 258.424 277.561C258.424 269.477 264.996 262.904 273.081 262.904C281.165 262.904 287.738 269.477 287.738 277.561C287.738 285.645 281.165 292.218 273.081 292.218ZM273.081 264.345C265.79 264.345 259.865 270.276 259.865 277.566C259.865 284.856 265.796 290.782 273.081 290.782C280.366 290.782 286.302 284.851 286.302 277.566C286.302 270.281 280.371 264.345 273.081 264.345Z" fill="white"/>
<path d="M307.923 292.218C299.843 292.218 293.266 285.645 293.266 277.561C293.266 269.477 299.838 262.904 307.923 262.904C316.007 262.904 322.579 269.477 322.579 277.561C322.579 285.645 316.007 292.218 307.923 292.218ZM307.923 264.345C300.632 264.345 294.706 270.276 294.706 277.566C294.706 284.856 300.637 290.782 307.923 290.782C315.208 290.782 321.144 284.851 321.144 277.566C321.144 270.281 315.213 264.345 307.923 264.345Z" fill="white"/>
<path d="M283.231 285.038L287.279 290.002L291.285 273.461L283.231 285.038Z" fill="#FFBE97"/>
<path d="M258.134 283.609C258.938 290.192 259.915 295.538 254.402 296.21C248.883 296.882 242.183 292.025 241.384 285.442C240.58 278.86 244.403 272.974 249.922 272.302C255.44 271.63 257.334 277.022 258.139 283.609H258.134Z" fill="#FFBE97"/>
<path d="M294.819 273.798C291.459 273.003 288.628 272.998 286.174 273.782L285.736 272.413C288.45 271.542 291.53 271.542 295.15 272.398L294.819 273.798Z" fill="white"/>
<path d="M321.72 240.681C321.72 240.681 306.416 253.012 299.594 254.3C292.767 255.588 287.931 254.452 287.931 254.452L290.471 248.491C290.471 248.491 285.187 253.842 280.315 254.458C275.443 255.074 270.723 254.335 270.723 254.335L272.953 249.051C272.953 249.051 264.925 256.535 257.141 255.364C257.141 255.364 272.597 233.121 289.825 233.875C307.053 234.628 321.72 240.676 321.72 240.676V240.681Z" fill="#4F2B2B"/>
<path d="M286.407 291.067C286.188 291.067 285.974 290.97 285.831 290.782L281.804 285.447C281.616 285.197 281.611 284.856 281.789 284.602L289.303 273.804C289.527 273.478 289.975 273.396 290.306 273.625C290.632 273.854 290.714 274.303 290.484 274.628L283.271 284.999L286.982 289.917C287.221 290.232 287.16 290.685 286.839 290.925C286.712 291.021 286.559 291.072 286.407 291.072V291.067Z" fill="#4F2B2B"/>
<path d="M327.664 286.216C327.588 286.216 327.507 286.206 327.43 286.176C327.053 286.043 326.855 285.636 326.987 285.264C327.7 283.187 330.22 279.364 334.639 279.746C335.036 279.781 335.326 280.128 335.291 280.525C335.255 280.922 334.909 281.212 334.512 281.176C330.118 280.795 328.413 285.529 328.342 285.733C328.24 286.028 327.96 286.216 327.664 286.216Z" fill="#4F2B2B"/>
<path d="M253.469 286.216C253.174 286.216 252.894 286.028 252.792 285.733C252.721 285.529 251.03 280.81 246.622 281.176C246.23 281.212 245.878 280.917 245.843 280.525C245.807 280.128 246.102 279.781 246.494 279.746C250.913 279.364 253.433 283.187 254.146 285.264C254.273 285.641 254.075 286.048 253.703 286.176C253.627 286.201 253.545 286.216 253.469 286.216Z" fill="#4F2B2B"/>
<path d="M254.799 316.181L248.664 286.343C248.14 283.798 245.9 281.97 243.303 281.97C240.193 281.97 237.708 284.561 237.836 287.667L238.895 313.478L254.804 316.181H254.799Z" fill="#FFBE97"/>
<path d="M254.801 316.901C254.465 316.901 254.17 316.667 254.098 316.326L247.964 286.488C247.511 284.289 245.551 282.69 243.305 282.69C241.997 282.69 240.78 283.209 239.874 284.151C238.968 285.093 238.5 286.335 238.556 287.638L239.614 313.45C239.63 313.847 239.324 314.183 238.927 314.198C238.52 314.213 238.194 313.908 238.179 313.511L237.12 287.7C237.049 285.999 237.66 284.385 238.841 283.158C240.022 281.931 241.605 281.254 243.31 281.254C246.238 281.254 248.788 283.337 249.379 286.203L255.514 316.041C255.595 316.428 255.34 316.81 254.954 316.891C254.903 316.901 254.857 316.907 254.806 316.907L254.801 316.901Z" fill="#4F2B2B"/>
<path d="M264.285 321.249L259.219 296.599C258.786 294.496 256.938 292.989 254.79 292.989C252.219 292.989 250.167 295.127 250.269 297.698L251.14 319.019L264.285 321.249Z" fill="#FFBE97"/>
<path d="M264.285 321.971C263.949 321.971 263.654 321.736 263.582 321.395L258.517 296.745C258.155 294.983 256.587 293.705 254.79 293.705C253.747 293.705 252.769 294.123 252.046 294.876C251.323 295.63 250.947 296.623 250.987 297.666L251.863 318.987C251.878 319.384 251.573 319.72 251.176 319.736C250.768 319.746 250.443 319.445 250.427 319.048L249.552 297.727C249.491 296.287 250.01 294.922 251.008 293.884C252.006 292.845 253.35 292.27 254.79 292.27C257.265 292.27 259.423 294.031 259.922 296.455L264.988 321.105C265.069 321.492 264.814 321.874 264.428 321.955C264.377 321.965 264.331 321.971 264.28 321.971H264.285Z" fill="#4F2B2B"/>
<path d="M249.123 342.672C249.047 342.672 248.971 342.662 248.899 342.636L238.666 339.256C238.29 339.134 238.086 338.727 238.208 338.35C238.33 337.973 238.738 337.764 239.114 337.892L249.347 341.272C249.724 341.394 249.928 341.802 249.806 342.178C249.704 342.479 249.424 342.672 249.123 342.672Z" fill="#4F2B2B"/>
<path d="M301.633 360.758L309.137 356.563L341.348 338.572L368.157 388.168L311.881 416.942L301.633 360.758Z" fill="#FFBE97"/>
<path d="M368.156 388.166L388.209 425.269L385.781 433.293C381.066 448.866 366.715 459.521 350.439 459.521C332.605 459.521 317.317 446.774 314.115 429.225L311.875 416.94L368.151 388.166H368.156Z" fill="#854747"/>
<path d="M350.446 460.241C332.256 460.241 316.682 447.254 313.414 429.359L311.174 417.075C311.103 416.683 311.362 416.311 311.754 416.24C312.146 416.164 312.518 416.428 312.589 416.815L314.829 429.1C317.97 446.312 332.948 458.806 350.446 458.806C350.843 458.806 351.164 459.126 351.164 459.523C351.164 459.921 350.843 460.241 350.446 460.241Z" fill="#4F2B2B"/>
<path d="M377.558 406.286C377.303 406.286 377.054 406.149 376.926 405.909L367.523 388.508C367.335 388.157 367.462 387.724 367.814 387.536C368.165 387.348 368.598 387.475 368.786 387.826L378.189 405.227C378.377 405.578 378.25 406.011 377.899 406.199C377.792 406.255 377.675 406.286 377.558 406.286Z" fill="#4F2B2B"/>
<path d="M301.677 360.759L297.971 347.553C295.67 339.351 298.908 330.6 305.995 325.865L334.081 307.115L341.041 281.864C341.693 279.496 343.917 277.908 346.371 278.061C349.074 278.229 351.192 280.443 351.243 283.147L351.757 310.719C351.808 313.56 351.238 316.375 350.088 318.977L341.387 338.572L301.672 360.759H301.677Z" fill="#FFBE97"/>
<path d="M325.484 316.181L331.618 286.343C332.143 283.798 334.383 281.97 336.979 281.97C340.09 281.97 342.574 284.561 342.447 287.667L341.388 313.478L325.479 316.181H325.484Z" fill="#FFBE97"/>
<path d="M325.483 316.9C325.437 316.9 325.386 316.9 325.335 316.885C324.948 316.804 324.694 316.427 324.775 316.035L330.91 286.197C331.5 283.331 334.051 281.248 336.978 281.248C338.678 281.248 340.267 281.925 341.448 283.152C342.629 284.379 343.24 285.993 343.169 287.693L342.11 313.505C342.094 313.902 341.769 314.212 341.361 314.192C340.964 314.177 340.659 313.841 340.674 313.444L341.733 287.632C341.784 286.329 341.316 285.087 340.414 284.145C339.513 283.203 338.292 282.684 336.983 282.684C334.738 282.684 332.778 284.283 332.325 286.482L326.19 316.32C326.119 316.661 325.819 316.895 325.488 316.895L325.483 316.9Z" fill="#4F2B2B"/>
<path d="M315.997 321.249L321.063 296.599C321.495 294.496 323.343 292.989 325.492 292.989C328.063 292.989 330.114 295.127 330.013 297.698L329.142 319.019L315.997 321.249Z" fill="#FFBE97"/>
<path d="M315.998 321.971C315.952 321.971 315.902 321.971 315.851 321.955C315.464 321.874 315.209 321.497 315.291 321.105L320.356 296.455C320.855 294.031 323.014 292.27 325.488 292.27C326.929 292.27 328.273 292.84 329.27 293.884C330.268 294.922 330.788 296.287 330.726 297.727L329.851 319.048C329.836 319.445 329.505 319.751 329.102 319.736C328.705 319.72 328.4 319.384 328.415 318.987L329.291 297.666C329.332 296.623 328.96 295.63 328.232 294.876C327.509 294.123 326.531 293.705 325.488 293.705C323.691 293.705 322.123 294.983 321.761 296.745L316.696 321.395C316.624 321.736 316.324 321.971 315.993 321.971H315.998Z" fill="#4F2B2B"/>
<path d="M331.16 342.672C330.86 342.672 330.575 342.479 330.478 342.178C330.356 341.802 330.559 341.394 330.936 341.272L341.169 337.892C341.546 337.764 341.953 337.973 342.075 338.35C342.197 338.727 341.994 339.134 341.617 339.256L331.384 342.636C331.308 342.662 331.231 342.672 331.16 342.672Z" fill="#4F2B2B"/>
<path d="M316.516 286.974H267.76V298.515H316.516V286.974Z" fill="#F8D2A0"/>
<path d="M316.519 286.974L313.999 289.86V295.628L316.519 298.515L319.039 295.628V289.86L316.519 286.974Z" fill="#FBE4C6"/>
<path d="M316.519 295.063C317.011 295.063 317.41 294.024 317.41 292.742C317.41 291.46 317.011 290.42 316.519 290.42C316.027 290.42 315.628 291.46 315.628 292.742C315.628 294.024 316.027 295.063 316.519 295.063Z" fill="#4F2B2B"/>
<path d="M313.996 295.277H267.76V295.994H313.996V295.277Z" fill="#F2AE54"/>
<path d="M313.996 289.679H267.76V290.397H313.996V289.679Z" fill="#F2AE54"/>
<path d="M271.378 289.805L267.759 286.974L255.703 290.864C255.846 291.454 255.927 292.086 255.927 292.742C255.927 293.399 255.846 294.03 255.703 294.621L267.759 298.511L271.378 295.624L267.759 292.737L271.378 289.795V289.805Z" fill="#FBE4C6"/>
<path d="M255.703 290.866L254.12 291.38C252.455 291.92 252.455 293.58 254.12 294.114L255.703 294.628C255.846 294.038 255.927 293.407 255.927 292.75C255.927 292.093 255.846 291.462 255.703 290.871V290.866Z" fill="#4F2B2B"/>
<path d="M287.259 297.311C279.587 297.311 276.776 301.108 276.776 301.108L297.685 301.831C297.685 301.831 294.931 297.311 287.259 297.311Z" fill="#FFBE97"/>
<path d="M297.683 302.557C297.438 302.557 297.204 302.434 297.067 302.21C296.96 302.042 294.389 298.031 287.256 298.031C280.124 298.031 277.375 301.503 277.349 301.538C277.115 301.859 276.662 301.925 276.341 301.691C276.02 301.457 275.954 301.004 276.194 300.688C276.316 300.52 279.314 296.595 287.256 296.595C295.198 296.595 298.176 301.263 298.294 301.462C298.502 301.803 298.39 302.241 298.054 302.45C297.937 302.521 297.81 302.557 297.683 302.557Z" fill="#4F2B2B"/>
<path d="M229.301 174.171C234.712 165.211 232.243 152.336 223.899 146.013C215.555 139.69 202.497 140.794 195.329 148.426C190.604 139.114 178.915 134.217 169.385 138.478C162.176 141.701 157.075 149.775 156.653 157.727C145.396 152.936 133.076 161.194 130.556 168.612C127.771 176.818 131.793 186.099 139.455 191.419C129.075 194.52 122.467 206.208 125.928 216.477C129.385 226.74 138.87 232.122 149.006 228.308C143.172 233.028 145.702 243.907 149.943 250.098C154.183 256.288 162.538 258.997 169.864 257.373C177.19 255.749 183.334 250.266 186.71 243.566C194.534 251.33 208.504 251.671 216.701 244.299C224.892 236.927 226.022 222.993 219.124 214.4C229.958 215.062 241.407 208.504 244.523 198.104C247.638 187.703 240.129 174.894 229.301 174.171Z" fill="#FADBE9"/>
<path d="M337.335 191.794C327.917 187.228 322.973 175.091 326.522 165.24C330.075 155.394 341.627 149.203 351.793 151.698C350.684 141.317 357.816 130.84 368.13 129.221C375.93 127.994 384.605 131.985 389.294 138.426C396.121 128.274 410.956 128.488 417.106 133.335C423.912 138.695 425.597 148.674 422.069 157.308C432.46 154.253 444.373 160.454 447.066 170.947C449.759 181.439 444.739 191.117 434.16 193.444C441.624 194.223 445.432 204.72 445.249 212.224C445.065 219.728 439.536 226.55 432.506 229.182C425.475 231.814 417.34 230.562 410.854 226.78C408.522 237.552 396.991 245.453 386.102 243.732C375.212 242.012 366.674 230.949 367.779 219.978C359.053 226.433 345.878 227.177 337.605 220.151C329.327 213.125 328.645 198.295 337.33 191.789L337.335 191.794Z" fill="#FADBE9"/>
<path d="M361.813 237.991C358.545 241.84 351.255 241.112 349.692 235.446C346.795 224.943 365.285 223.676 363.279 234.815C363.05 236.087 362.526 237.146 361.813 237.991Z" fill="#FADBE9"/>
<path d="M344.705 245.964C342.7 248.326 338.225 247.878 337.267 244.401C335.491 237.956 346.833 237.177 345.607 244.014C345.464 244.798 345.143 245.445 344.705 245.964Z" fill="#FADBE9"/>
<path d="M229.678 227.14C233.028 230.917 240.298 230.041 241.744 224.345C244.422 213.781 225.911 212.9 228.146 223.993C228.4 225.261 228.945 226.31 229.678 227.14Z" fill="#FADBE9"/>
<path d="M244.93 233.591C246.986 235.912 251.446 235.373 252.337 231.875C253.981 225.394 242.623 224.85 243.993 231.661C244.151 232.44 244.482 233.082 244.935 233.591H244.93Z" fill="#FADBE9"/>
</g>
<defs>
<clipPath id="clip0_761_12294">
<rect width="460" height="460" fill="white"/>
</clipPath>
</defs>
</svg>
