<svg width="460" height="460" viewBox="0 0 460 460" fill="none" xmlns="http://www.w3.org/2000/svg">
<g clip-path="url(#clip0_761_9434)">
<rect width="460" height="460" fill="white"/>
<path d="M-158.798 262.329C-157.458 262.735 -156.061 262.226 -155.271 261.162L-91.3777 300.114C-91.4531 300.268 -91.5191 300.429 -91.5715 300.596C-92.0876 302.306 -91.1226 304.108 -89.4148 304.627C-87.7069 305.145 -85.9027 304.178 -85.3842 302.47C-85.3018 302.197 -85.2599 301.922 -85.2497 301.649L-43.7463 299.287C-43.5647 300.483 -42.7233 301.526 -41.4895 301.899C-39.7816 302.417 -37.9774 301.45 -37.4589 299.742C-37.2316 298.986 -37.2934 298.212 -37.5791 297.538L2.59563 275.837C2.99826 276.44 3.60223 276.913 4.34944 277.141C5.16014 277.385 5.98856 277.294 6.69407 276.953L62.5281 369.293C61.9866 369.691 61.5632 370.261 61.3518 370.953C60.8333 372.661 61.8007 374.465 63.5085 374.984C65.2163 375.502 67.0206 374.535 67.539 372.827C67.6884 372.329 67.7096 371.825 67.6275 371.346L193.629 337.557C193.322 339.162 194.271 340.773 195.868 341.257C197.576 341.776 199.38 340.809 199.899 339.101C199.946 338.944 199.977 338.79 199.998 338.632L247.896 341.157C247.95 342.496 248.834 343.713 250.187 344.123C250.867 344.329 251.562 344.296 252.187 344.077L277.356 399.278L276.539 399.249L277.602 399.809L277.753 400.142L277.903 399.967L368.842 447.983C368.803 448.082 368.766 448.182 368.733 448.285C368.215 449.993 369.182 451.797 370.89 452.316C372.598 452.834 374.402 451.867 374.921 450.159C375.439 448.451 374.472 446.647 372.764 446.129C372.129 445.936 371.479 445.951 370.888 446.131L353.425 403.336C353.458 403.255 353.488 403.173 353.514 403.087C353.644 402.662 353.678 402.228 353.635 401.811L430.55 386.437C430.852 387.443 431.631 388.281 432.711 388.608C434.418 389.127 436.223 388.159 436.741 386.451C437.26 384.744 436.292 382.939 434.584 382.421C433.91 382.216 433.217 382.247 432.598 382.462L410.239 332.879C410.934 332.485 411.488 331.835 411.738 331.006C412.075 329.896 411.782 328.749 411.072 327.939L437.687 299.796C437.994 300.038 438.348 300.23 438.745 300.349C440.453 300.867 442.257 299.9 442.775 298.192C443.294 296.484 442.326 294.68 440.619 294.162C439.581 293.849 438.51 294.084 437.711 294.696L408.494 263.224C408.8 262.884 409.038 262.475 409.181 262.006C409.645 260.472 408.914 258.866 407.523 258.176L425.1 217.888C426.798 218.38 428.579 217.418 429.093 215.721C429.611 214.013 428.644 212.209 426.936 211.691C426.639 211.6 426.338 211.557 426.04 211.554L422.516 178.791C423.643 178.562 424.612 177.738 424.968 176.559C425.061 176.253 425.103 175.944 425.103 175.64L475.01 171.286C475.221 172.441 476.051 173.441 477.251 173.803C478.959 174.321 480.763 173.354 481.282 171.646C481.8 169.938 480.833 168.134 479.125 167.615C478.999 167.577 478.875 167.552 478.749 167.528L484.802 93.8881C486.178 93.8744 487.444 92.9769 487.863 91.5932C488.381 89.8854 487.414 88.0812 485.706 87.5627C483.998 87.0442 482.194 88.0116 481.675 89.7194C481.527 90.2065 481.505 90.7021 481.582 91.1731L376.88 118.245C376.518 117.393 375.797 116.703 374.843 116.414C373.135 115.896 371.331 116.863 370.812 118.571C370.294 120.279 371.261 122.083 372.969 122.602C373.139 122.652 373.31 122.685 373.481 122.709L374.069 160.742C372.79 160.851 371.642 161.719 371.248 163.024C371.119 163.447 371.083 163.878 371.126 164.292L283.472 184.459C283.154 183.494 282.386 182.694 281.341 182.376C279.633 181.857 277.829 182.825 277.311 184.532C276.792 186.24 277.759 188.044 279.467 188.563C279.86 188.682 280.257 188.718 280.64 188.69L287.523 229.719C286.476 229.995 285.591 230.79 285.255 231.905L285.321 231.615L182.125 208.385C182.325 206.845 181.394 205.342 179.86 204.877C179.069 204.637 178.259 204.72 177.564 205.043L155.326 166.812C155.888 166.412 156.33 165.832 156.543 165.119C157.059 163.409 156.094 161.607 154.386 161.088C152.678 160.57 150.874 161.537 150.356 163.245C150.154 163.911 150.179 164.592 150.387 165.205L89.251 192.118C88.8569 191.408 88.202 190.846 87.3647 190.593C85.6568 190.074 83.8526 191.041 83.3342 192.749C83.1187 193.461 83.1619 194.187 83.4101 194.831L46.6706 212.807C46.2723 212.151 45.6419 211.635 44.8508 211.395C43.143 210.876 41.3388 211.844 40.8203 213.551C40.7652 213.732 40.7315 213.915 40.708 214.094L-34.274 213.298C-34.4034 212.041 -35.2681 210.926 -36.5528 210.536C-37.52 210.244 -38.5183 210.426 -39.2976 210.951L-72.6081 171.721C-72.2351 171.354 -71.9456 170.891 -71.7816 170.355C-71.2631 168.647 -72.2305 166.843 -73.9383 166.324C-75.648 165.808 -77.4504 166.773 -77.9689 168.481C-77.9716 168.494 -77.9742 168.507 -77.9793 168.519L-117.389 164.814L-138.22 162.856C-138.337 161.582 -139.202 160.444 -140.502 160.049C-142.21 159.531 -144.014 160.498 -144.533 162.206C-144.934 163.535 -144.44 164.917 -143.398 165.711L-163.32 207.273C-163.362 207.258 -163.405 207.24 -163.451 207.226C-165.159 206.708 -166.963 207.675 -167.482 209.383C-168 211.091 -167.033 212.895 -165.325 213.414C-164.92 213.536 -164.509 213.574 -164.112 213.538L-158.574 256.083C-159.67 256.332 -160.607 257.144 -160.955 258.298C-161.473 260.006 -160.506 261.81 -158.798 262.329ZM-140.516 166.24C-139.511 165.938 -138.672 165.159 -138.345 164.08C-138.283 163.871 -138.244 163.662 -138.221 163.455L-114.601 165.675L-78.0927 169.106C-78.1236 169.419 -78.106 169.73 -78.0471 170.031L-133.167 195.343L-140.514 166.242L-140.516 166.24ZM88.6203 196.059L111.326 216.49L84.4125 250.216C84.1592 250.05 83.8796 249.913 83.5756 249.822C83.4322 249.777 83.2866 249.749 83.1415 249.726L86.5227 196.917C87.3082 196.894 88.0536 196.585 88.6203 196.059ZM151.68 166.881C151.933 167.047 152.212 167.184 152.516 167.275C152.695 167.328 152.869 167.363 153.046 167.385L150.333 248.132C149.584 248.176 148.876 248.481 148.332 248.982L112.142 216.42L151.677 166.879L151.68 166.881ZM404.352 334.913L385.06 301.981L406.368 327.778C406.001 328.142 405.718 328.603 405.554 329.134C405.191 330.331 405.559 331.571 406.394 332.386L404.352 334.913ZM430.556 384.579C430.428 385.007 430.392 385.438 430.435 385.856L353.519 401.225C353.361 400.698 353.071 400.218 352.675 399.834L404.272 335.963L431.766 382.896C431.208 383.296 430.77 383.874 430.554 384.582L430.556 384.579ZM66.481 369.374C66.1947 369.145 65.8672 368.962 65.5037 368.835L78.1867 316.982C79.7462 317.216 81.2841 316.278 81.7547 314.722L113.417 321.171L66.481 369.374ZM-161.885 212.372C-161.843 212.318 -161.798 212.262 -161.76 212.204L-124.52 240.028C-124.66 240.26 -124.776 240.507 -124.859 240.776C-125.075 241.483 -125.029 242.207 -124.788 242.85L-133.255 246.96L-161.885 212.372ZM-58.1425 275.388L-45.7428 281.884C-45.7827 281.978 -45.818 282.076 -45.8485 282.177C-46.0393 282.809 -46.0269 283.454 -45.8514 284.041L-55.5031 287.928L-117.843 244.105L-58.1425 275.388ZM-45.4673 281.356L-88.8271 258.636L-118.777 242.943C-118.737 242.849 -118.702 242.751 -118.671 242.65C-118.5 242.086 -118.493 241.513 -118.621 240.976L-60.5924 221.598L-43.9247 280.099C-44.5503 280.343 -45.0939 280.777 -45.4679 281.352L-45.4673 281.356ZM-124.527 243.386C-124.128 244.047 -123.497 244.567 -122.702 244.806C-121.933 245.041 -121.144 244.971 -120.462 244.669L-90.31 298.847L-132.864 247.433L-124.525 243.384L-124.527 243.386ZM-87.5386 298.441C-88.3078 298.207 -89.0963 298.277 -89.7788 298.579L-119.941 244.38C-119.708 244.219 -119.492 244.028 -119.305 243.81L-56.1662 288.195L-85.6056 300.057C-85.9939 299.306 -86.6681 298.706 -87.5405 298.444L-87.5386 298.441ZM-85.379 300.608L-55.5827 288.602L-43.3535 297.198C-43.4714 297.406 -43.5723 297.63 -43.6443 297.866C-43.7268 298.139 -43.7687 298.414 -43.7789 298.687L-85.2823 301.049C-85.3043 300.899 -85.3347 300.75 -85.3795 300.604L-85.379 300.608ZM-41.2937 295.661C-41.959 295.821 -42.5642 296.183 -43.0097 296.71L-54.9215 288.337L-45.629 284.592C-45.2407 285.343 -44.5664 285.943 -43.6941 286.206C-43.3326 286.316 -42.9646 286.355 -42.6055 286.338L-41.2937 295.661ZM-40.0509 281.345L-7.94652 255.841L3.1883 271.593C2.73476 271.98 2.38139 272.495 2.19273 273.11C2.06745 273.525 2.03215 273.945 2.06945 274.351L-39.6496 282.224C-39.7394 281.914 -39.8743 281.618 -40.0509 281.345ZM42.2408 217.248C42.4673 217.385 42.7146 217.5 42.9813 217.581C43.5034 217.739 44.0306 217.759 44.529 217.662L59.0866 259.04L8.31338 272.91C8.1059 272.359 7.75299 271.871 7.28441 271.502L42.2426 217.246L42.2408 217.248ZM290.399 235.343L313.454 260.872C313.108 261.229 312.835 261.672 312.683 262.182C312.608 262.431 312.567 262.68 312.552 262.931L300.234 264.726L289.911 235.672C290.085 235.577 290.248 235.467 290.403 235.342L290.399 235.343ZM418.687 175.136C418.53 176.16 418.877 177.175 419.573 177.887L405.699 194.303L376.924 165.897C377.144 165.603 377.321 165.268 377.435 164.898L418.685 175.139L418.687 175.136ZM376.526 166.339L405.315 194.76L362.149 245.83C361.876 245.641 361.571 245.488 361.237 245.388C361.199 245.377 361.16 245.369 361.123 245.359L374.161 167.184C375.042 167.233 375.891 166.918 376.524 166.342L376.526 166.339ZM79.6021 310.691C79.4588 310.647 79.3174 310.619 79.1723 310.595L82.7289 256.142C83.6482 256.119 84.5144 255.7 85.1056 255.003L118.169 278.169L80.8678 311.423C80.5169 311.097 80.0916 310.842 79.6021 310.691ZM85.447 254.513C85.5649 254.305 85.6622 254.086 85.736 253.847C85.8112 253.603 85.85 253.356 85.8655 253.11L147.303 251.246C147.294 251.542 147.324 251.832 147.393 252.11L118.628 277.755L85.4489 254.51L85.447 254.513ZM147.605 252.723C147.784 253.099 148.03 253.442 148.338 253.726L141.642 287.181L140.994 290.421C139.94 290.307 138.914 290.722 138.228 291.496L119.125 278.113L147.602 252.727L147.605 252.723ZM141.588 290.54C141.588 290.54 141.586 290.538 141.584 290.536L142.229 287.309L148.871 254.12C149.093 254.253 149.335 254.365 149.596 254.444C150.025 254.574 150.461 254.61 150.878 254.567L164.289 279.151L143.237 291.692C142.839 291.161 142.275 290.743 141.59 290.537L141.588 290.54ZM81.2647 311.87L118.671 278.519L137.879 291.977C137.745 292.198 137.636 292.439 137.558 292.696C137.396 293.234 137.38 293.78 137.487 294.294L81.633 312.506C81.5364 312.281 81.4115 312.069 81.2647 311.87ZM194.48 335.925L143.388 295.345C143.537 295.109 143.659 294.848 143.745 294.57C143.992 293.751 143.898 292.912 143.546 292.201L164.572 279.679L195.011 335.478C194.818 335.607 194.643 335.757 194.482 335.927L194.48 335.925ZM165.084 279.372L189.548 264.798C189.941 265.279 190.473 265.649 191.112 265.841C191.361 265.916 191.612 265.959 191.86 265.972L194.56 307.867L196.306 334.968C196.037 335.01 195.778 335.083 195.534 335.191L165.084 279.372ZM348.556 399.511L329.469 376.789L317.673 362.743C318.032 362.38 318.31 361.931 318.469 361.406C318.781 360.379 318.552 359.321 317.953 358.525L329.778 347.752L348.972 399.258C348.826 399.332 348.687 399.417 348.553 399.509L348.556 399.511ZM275.09 271.41L312.895 306.489C312.665 306.791 312.476 307.136 312.362 307.521C312.162 308.184 312.187 308.861 312.391 309.474L295.937 317.858L274.564 271.793C274.753 271.684 274.931 271.555 275.095 271.41L275.09 271.41ZM312.628 310.022C313.022 310.732 313.678 311.298 314.519 311.552C314.731 311.616 314.942 311.657 315.154 311.676L315.085 357.251C314.814 357.276 314.549 357.337 314.296 357.427L296.187 318.398L312.63 310.02L312.628 310.022ZM317.552 358.083C317.207 357.769 316.791 357.521 316.313 357.376C316.103 357.313 315.89 357.27 315.682 357.25L315.713 340.972L315.77 311.676C315.951 311.659 316.127 311.623 316.3 311.577L329.556 347.151L317.552 358.087L317.552 358.083ZM316.858 311.367C317.644 310.987 318.276 310.296 318.55 309.395C318.659 309.029 318.699 308.661 318.682 308.302L379.785 299.668C379.89 300.104 380.082 300.51 380.352 300.867L330.031 346.713L316.86 311.364L316.858 311.367ZM379.833 297.988C379.723 298.354 379.684 298.722 379.701 299.081L318.598 307.715C318.448 307.08 318.106 306.503 317.621 306.063L339.872 276.303L379.947 297.675C379.904 297.778 379.867 297.882 379.836 297.99L379.833 297.988ZM317.143 305.705C316.912 305.564 316.662 305.447 316.393 305.364C316.311 305.338 316.229 305.322 316.148 305.304L315.909 266.342C316.942 266.298 317.903 265.76 318.476 264.893L339.339 276.019L317.143 305.705ZM314.841 266.211C314.998 266.258 315.157 266.288 315.312 266.312L315.551 305.232C315.246 305.224 314.948 305.259 314.66 305.331L300.435 265.299L312.57 263.53C312.727 264.752 313.581 265.833 314.837 266.211L314.841 266.211ZM314.099 305.531C313.861 305.64 313.635 305.777 313.429 305.942L275.503 270.964C275.731 270.665 275.914 270.323 276.03 269.94C276.142 269.572 276.18 269.2 276.161 268.834L299.833 265.383L314.097 305.529L314.099 305.531ZM195.141 263.687C195.154 263.641 195.164 263.595 195.175 263.547L239.289 266.812L269.701 269.064C269.715 269.751 269.949 270.407 270.353 270.946L227.728 309.67L194.06 265.279C194.558 264.884 194.944 264.341 195.141 263.687ZM272.289 272.173C272.883 272.296 273.476 272.243 274.017 272.049L295.4 318.134L253.862 339.299C253.512 338.745 252.993 338.295 252.35 338.031L272.289 272.173ZM254.135 339.83L295.653 318.676L313.753 357.682C313.15 358.032 312.659 358.572 312.383 359.255L254.299 341.669C254.43 341.036 254.363 340.398 254.135 339.83ZM314.439 363.567C315.422 363.863 316.434 363.669 317.217 363.128L325.817 373.369L348.1 399.9C348.01 399.996 347.922 400.098 347.841 400.205L301.98 371.974L312.162 360.133C312.001 361.648 312.928 363.108 314.439 363.567ZM351.041 398.971C350.524 398.87 350.009 398.901 349.528 399.039L330.254 347.317L380.751 301.311C381.017 301.556 381.326 301.757 381.673 301.905L351.041 398.971ZM380.227 297.151L340.229 275.821L358.613 251.234C358.844 251.375 359.094 251.492 359.363 251.575C360.037 251.78 360.726 251.749 361.343 251.536L381.337 296.115C380.897 296.365 380.514 296.716 380.227 297.151ZM358.135 250.876L339.698 275.535L318.758 264.367C318.801 264.264 318.838 264.16 318.87 264.052C319.04 263.494 319.047 262.926 318.924 262.393L357.337 249.764C357.518 250.184 357.79 250.562 358.135 250.872L358.135 250.876ZM289.359 235.91L299.63 264.812L276.074 268.245C275.863 267.376 275.299 266.616 274.491 266.172L287.606 235.983C288.205 236.124 288.809 236.091 289.357 235.912L289.359 235.91ZM287.04 235.79L273.942 265.937C273.918 265.929 273.896 265.919 273.871 265.912C272.164 265.393 270.359 266.36 269.841 268.068C269.801 268.2 269.77 268.336 269.748 268.47L201.722 263.432L195.269 262.956C195.283 262.735 195.274 262.515 195.245 262.302L285.433 234.223C285.758 234.905 286.314 235.473 287.04 235.795L287.04 235.79ZM189.213 264.302L164.797 278.845L151.482 254.438C152.424 254.144 153.212 253.424 153.567 252.435L188.83 262.427C188.764 263.089 188.907 263.737 189.213 264.298L189.213 264.302ZM81.7013 256.005C81.8447 256.049 81.9861 256.077 82.1311 256.1L78.5745 310.554C78.3374 310.56 78.1032 310.592 77.8785 310.651L59.8629 259.443L79.6172 254.045C79.9604 254.955 80.7028 255.7 81.7055 256.004L81.7013 256.005ZM8.3813 274.978C8.5344 274.475 8.55276 273.965 8.46784 273.48L59.2819 259.597L77.3132 310.847C76.7771 311.093 76.3092 311.484 75.9734 311.987L8.25919 275.311C8.30598 275.203 8.34808 275.092 8.3813 274.978ZM81.8741 314.132C81.9121 313.771 81.891 313.412 81.8122 313.069L137.656 294.86C137.785 295.175 137.966 295.465 138.188 295.728L113.911 320.66L81.8722 314.135L81.8741 314.132ZM138.617 296.143C138.932 296.399 139.3 296.597 139.712 296.725C140.939 297.096 142.212 296.702 143.026 295.819L194.108 336.392C193.996 336.562 193.899 336.744 193.82 336.94L114.61 320.805L138.62 296.149L138.617 296.143ZM197.748 335.063C197.466 334.978 197.182 334.937 196.903 334.929L192.457 265.952C192.846 265.902 193.221 265.783 193.561 265.603L227.286 310.07L198.992 335.775C198.646 335.456 198.228 335.21 197.748 335.063ZM228.09 310.145L270.754 271.387C271.03 271.639 271.35 271.85 271.716 271.998L251.777 337.856C250.943 337.685 250.109 337.856 249.424 338.281L228.088 310.148L228.09 310.145ZM254.124 342.238L311.754 359.686L301.461 371.653L254.024 342.452C254.06 342.382 254.092 342.312 254.124 342.238ZM347.529 400.711C347.45 400.869 347.382 401.033 347.328 401.207C347.274 401.381 347.242 401.557 347.218 401.732L278.467 399.31L301.583 372.429L347.527 400.71L347.529 400.711ZM352.213 399.45C352.066 399.353 351.907 399.266 351.741 399.192L351.66 398.991L382.242 302.08C382.955 302.236 383.67 302.139 384.294 301.849L403.953 335.404L352.218 399.45L352.213 399.45ZM437.258 299.381L410.643 327.524C410.336 327.282 409.982 327.09 409.585 326.971C409.332 326.893 409.077 326.855 408.822 326.84L407.729 298.491L436.475 297.643C436.553 298.29 436.829 298.895 437.256 299.38L437.258 299.381ZM408.226 326.864C407.722 326.93 407.242 327.114 406.829 327.397L385.205 301.218C385.572 300.854 385.856 300.394 386.02 299.862C386.096 299.617 386.134 299.371 386.15 299.129L407.134 298.508L408.226 326.864ZM386.133 298.534C386.026 297.658 385.564 296.861 384.851 296.333L404.546 263.907C404.735 264.01 404.94 264.096 405.154 264.162C405.375 264.23 405.598 264.269 405.819 264.288L407.115 297.916L386.136 298.535L386.133 298.534ZM404.05 263.573L387.011 291.629L402.875 260.735C402.762 261.827 403.218 262.893 404.05 263.573ZM384.132 295.929C384.045 295.895 383.957 295.863 383.866 295.833C383.192 295.628 382.503 295.659 381.886 295.872L361.892 251.293C362.591 250.898 363.147 250.246 363.398 249.418C363.619 248.688 363.567 247.94 363.303 247.283L423.338 216.609C423.603 216.996 423.956 217.329 424.374 217.575L384.133 295.934L384.132 295.929ZM363.029 246.752C362.907 246.561 362.769 246.379 362.607 246.214L405.741 195.179L423.514 212.724C423.249 213.046 423.04 213.421 422.912 213.849C422.678 214.618 422.75 215.404 423.049 216.085L363.031 246.75L363.029 246.752ZM423.936 212.304L406.129 194.726L420.035 178.274C420.308 178.463 420.613 178.616 420.948 178.717C421.276 178.816 421.606 178.86 421.933 178.855L425.454 211.604C424.894 211.702 424.372 211.945 423.939 212.306L423.936 212.304ZM422.819 172.528C421.153 172.023 419.401 172.929 418.835 174.558L377.754 164.358L474.298 170.748L425.065 175.043C424.854 173.889 424.024 172.889 422.823 172.527L422.819 172.528ZM475.105 169.773C475.062 169.914 475.033 170.058 475.011 170.201L377.571 163.751C377.54 163.266 377.399 162.798 377.165 162.382L412.669 138.837L475.184 169.562C475.159 169.633 475.131 169.702 475.108 169.775L475.105 169.773ZM373.409 167.054C373.464 167.071 373.52 167.081 373.575 167.094L360.537 245.258C359.562 245.184 358.619 245.565 357.961 246.255L336.216 229.105L372.97 166.883C373.111 166.949 373.254 167.008 373.409 167.054ZM357.591 246.723C357.429 246.972 357.298 247.244 357.208 247.546C357.038 248.104 357.031 248.672 357.154 249.206L318.741 261.834C318.514 261.309 318.145 260.847 317.673 260.505L335.911 229.628L357.592 246.727L357.591 246.723ZM317.154 260.199C317.013 260.133 316.867 260.071 316.713 260.026C316.032 259.819 315.337 259.853 314.715 260.068L282.01 188.273C282.281 188.118 282.528 187.925 282.747 187.695L335.434 229.249L317.152 260.197L317.154 260.199ZM281.468 188.522L314.17 260.315C314.081 260.366 313.992 260.422 313.908 260.485L290.823 234.925C291.099 234.599 291.313 234.213 291.445 233.781C291.961 232.071 290.996 230.269 289.288 229.75C288.896 229.631 288.498 229.595 288.115 229.623L281.235 188.596C281.315 188.576 281.393 188.55 281.47 188.524L281.468 188.522ZM285.229 233.663L195.108 261.723C194.787 260.767 194.022 259.974 192.982 259.659C192.515 259.519 192.04 259.49 191.585 259.556L179.962 211.031C180.896 210.715 181.669 209.975 181.994 208.97L285.183 232.198C285.081 232.699 285.102 233.198 285.227 233.665L285.229 233.663ZM177.99 211.064C178.457 211.205 178.932 211.233 179.386 211.169L190.752 258.626L174.051 215.968L177.415 210.831C177.594 210.926 177.788 211.007 177.991 211.068L177.99 211.064ZM190.595 259.867C189.831 260.252 189.219 260.932 188.952 261.816C188.948 261.824 188.947 261.835 188.942 261.846L153.714 251.863C153.901 250.696 153.431 249.542 152.535 248.828L173.647 216.577L190.593 259.865L190.595 259.867ZM152.038 248.5C151.859 248.404 151.664 248.323 151.461 248.262C151.285 248.211 151.109 248.174 150.932 248.153L153.645 167.405C153.885 167.39 154.121 167.351 154.351 167.286L173.381 215.896L152.038 248.5ZM147.936 249.427C147.718 249.718 147.544 250.049 147.431 250.419C147.408 250.496 147.392 250.574 147.373 250.651L85.8447 252.519C85.7533 251.782 85.4094 251.101 84.8792 250.587L111.773 216.888L147.936 249.427ZM80.1399 250.863C79.8778 251.18 79.6717 251.558 79.5451 251.978C79.392 252.481 79.3736 252.991 79.4585 253.476L59.6652 258.884L45.1019 217.494C45.3943 217.379 45.6667 217.222 45.9138 217.029L80.1404 250.867L80.1399 250.863ZM41.7587 216.891L6.77888 271.179C6.60442 271.087 6.41888 271.009 6.22508 270.951C5.33499 270.682 4.42252 270.818 3.67662 271.248L-7.47842 255.469L41.4616 216.588C41.5551 216.696 41.6542 216.797 41.7611 216.893L41.7587 216.891ZM-8.29338 255.351L-40.4228 280.877C-40.796 280.488 -41.2674 280.185 -41.8203 280.018C-41.9524 279.979 -42.0831 279.952 -42.2156 279.927L-38.3861 229.546L-37.4228 216.857C-36.8548 216.845 -36.307 216.681 -35.8327 216.397L-8.29572 255.349L-8.29338 255.351ZM-38.4266 216.723C-38.2921 216.764 -38.1549 216.793 -38.0164 216.815L-42.8097 279.88C-42.9942 279.883 -43.1725 279.902 -43.3512 279.936L-60.0261 221.41L-40.4694 214.88C-40.1088 215.738 -39.3849 216.434 -38.4266 216.723ZM-60.7558 221.024L-118.81 240.412C-119.025 239.927 -119.356 239.499 -119.782 239.167L-76.7834 172.023C-76.4972 172.234 -76.1736 172.401 -75.8144 172.51C-75.3913 172.638 -74.96 172.674 -74.5465 172.632L-60.76 221.025L-60.7558 221.024ZM-77.8767 170.61C-77.7264 170.983 -77.5091 171.329 -77.2321 171.624L-120.281 238.846C-120.453 238.755 -120.636 238.679 -120.828 238.623C-121.31 238.479 -121.795 238.453 -122.263 238.525L-133.016 195.933L-77.8744 170.612L-77.8767 170.61ZM-122.843 238.668C-123.349 238.847 -123.802 239.147 -124.164 239.549L-161.458 211.686C-161.394 211.547 -161.336 211.406 -161.29 211.256C-161.053 210.474 -161.129 209.674 -161.444 208.984L-133.571 196.184L-122.843 238.668ZM-162.311 212.796L-133.812 247.228L-155.099 257.562C-155.498 256.901 -156.129 256.381 -156.924 256.141C-157.277 256.034 -157.632 255.993 -157.981 256.007L-163.523 213.432C-163.079 213.308 -162.667 213.093 -162.311 212.796ZM-154.961 260.654C-154.886 260.5 -154.82 260.339 -154.768 260.172C-154.552 259.464 -154.597 258.741 -154.838 258.098L-133.421 247.7L-90.7603 299.245C-90.8704 299.356 -90.9748 299.478 -91.0681 299.606L-154.961 260.654ZM-37.8624 297.011C-38.265 296.408 -38.8689 295.936 -39.6161 295.707C-39.9776 295.597 -40.3456 295.558 -40.7048 295.575L-42.0166 286.252C-40.9334 285.996 -40.0112 285.188 -39.6659 284.047C-39.5406 283.633 -39.5053 283.212 -39.5426 282.807L2.17647 274.933C2.21277 275.06 2.25746 275.187 2.30818 275.311L-37.8665 297.011L-37.8624 297.011ZM7.20314 276.64C7.50034 276.422 7.76176 276.153 7.97301 275.837L75.6872 312.514C75.6404 312.621 75.5983 312.732 75.5651 312.847C75.0589 314.515 75.9719 316.272 77.6064 316.836L64.9234 368.689C64.2638 368.591 63.6117 368.7 63.039 368.978L7.20499 276.638L7.20314 276.64ZM67.4758 370.763C67.3447 370.409 67.1504 370.077 66.9037 369.787L114.109 321.31L192.411 337.262L67.4739 370.765L67.4758 370.763ZM200.033 338.029C200.008 337.367 199.777 336.736 199.388 336.216L227.642 310.549L248.946 338.641C248.532 339.021 248.207 339.51 248.033 340.087C247.986 340.244 247.955 340.398 247.934 340.556L200.036 338.031L200.033 338.029ZM252.733 343.824C253.109 343.607 253.442 343.315 253.708 342.963L301.063 372.114L277.908 399.04L252.731 343.826L252.733 343.824ZM370.334 446.352C369.85 446.605 369.427 446.982 369.121 447.451L279.124 399.931L347.197 402.327C347.274 403.642 348.152 404.832 349.485 405.237C350.853 405.651 352.277 405.114 353.06 404.01L370.338 446.351L370.334 446.352ZM431.069 380.523L404.671 335.462L406.855 332.76C407.111 332.932 407.397 333.07 407.708 333.163C408.382 333.368 409.075 333.337 409.696 333.124L431.071 380.524L431.069 380.523ZM437.272 295.099C436.966 295.439 436.726 295.85 436.586 296.317C436.51 296.561 436.473 296.806 436.456 297.05L407.704 297.897L406.409 264.282C407.012 264.221 407.579 263.988 408.055 263.626L437.272 295.099ZM406.965 257.959C405.868 257.649 404.738 257.944 403.94 258.652L422.037 223.415L406.966 257.957L406.965 257.959ZM478.157 167.475C477.049 167.487 476.018 168.072 475.435 169.022L413.233 138.453L482.249 92.6835C482.642 93.1724 483.182 93.5527 483.828 93.7505C483.954 93.7887 484.08 93.8163 484.204 93.8378L478.155 167.477L478.157 167.475ZM481.731 91.7504C481.784 91.8992 481.846 92.0469 481.922 92.1867L412.617 138.146L376.938 120.609C376.959 120.554 376.98 120.498 376.999 120.441C377.166 119.892 377.176 119.334 377.061 118.81L481.731 91.7504ZM374.074 122.732C375.145 122.676 376.129 122.088 376.682 121.152L412.038 138.529L376.816 161.886C376.425 161.418 375.899 161.053 375.273 160.863C375.071 160.802 374.866 160.763 374.662 160.742L374.074 122.732ZM371.239 164.875C371.44 165.555 371.862 166.157 372.447 166.577L335.734 228.729L283.11 187.225C283.272 186.977 283.403 186.704 283.493 186.402C283.63 185.944 283.661 185.482 283.602 185.036L371.237 164.873L371.239 164.875ZM175.827 207.032C175.433 208.337 175.904 209.696 176.91 210.497L173.778 215.282L155.144 167.683L177.047 205.342C176.484 205.742 176.043 206.321 175.828 207.037L175.827 207.032ZM150.628 165.748C150.784 166.027 150.98 166.284 151.212 166.505L111.698 216.02L89.018 195.613C89.2364 195.322 89.4116 194.989 89.5232 194.621C89.7251 193.955 89.6999 193.274 89.4915 192.661L150.628 165.748ZM83.6711 195.367C84.0694 196.023 84.6998 196.54 85.4909 196.78C85.6343 196.824 85.7799 196.852 85.925 196.875L82.5438 249.684C81.809 249.705 81.1123 249.977 80.5573 250.439L46.3429 216.615C46.637 216.281 46.87 215.879 47.0052 215.423C47.2207 214.712 47.1775 213.986 46.9293 213.342L83.6687 195.365L83.6711 195.367ZM40.6893 214.691C40.7208 215.191 40.869 215.672 41.1148 216.098L-7.82527 254.979L-35.3472 216.047C-34.9123 215.664 -34.5723 215.161 -34.3942 214.564C-34.3273 214.339 -34.2855 214.117 -34.2675 213.892L40.693 214.686L40.6893 214.691ZM-39.761 211.327C-40.134 211.694 -40.4235 212.157 -40.5876 212.693C-40.7525 213.239 -40.7659 213.791 -40.6514 214.311L-60.1918 220.835L-73.9574 172.511C-73.6435 172.417 -73.3434 172.277 -73.0739 172.095L-39.761 211.327ZM-142.889 166.029C-142.726 166.112 -142.557 166.181 -142.376 166.237C-141.95 166.367 -141.519 166.403 -141.101 166.36L-133.719 195.596L-161.741 208.465C-162.007 208.084 -162.358 207.758 -162.775 207.52L-142.887 166.031L-142.889 166.029Z" fill="#4F2B2B"/>
<path d="M234.158 30.2268C234.158 24.5787 229.58 20 223.931 20H24.2266C18.5785 20 13.9998 24.5787 13.9998 30.2268V162.958C13.9998 168.606 18.5785 173.185 24.2266 173.185H223.931C229.58 173.185 234.158 168.606 234.158 162.958V30.2268Z" fill="#BF8888"/>
<path fill-rule="evenodd" clip-rule="evenodd" d="M233.907 27.8359C239.555 27.8359 244.134 32.4146 244.134 38.0627V170.794C244.134 176.442 239.555 181.021 233.907 181.021H100.932C94.9993 188.967 95.6092 199.767 101.945 221.874C85.4785 208.008 77.6263 198.683 70.6898 181.021H34.2022C28.5541 181.021 23.9754 176.442 23.9754 170.794V38.0627C23.9754 32.4146 28.5541 27.8359 34.2022 27.8359H233.907Z" fill="#F4C9C9"/>
<path d="M75.5024 88.8672H74.0225V99.5883L75.5024 99.2316V88.8672Z" fill="#F6D6B3"/>
<path d="M67.5877 87.2437C67.4287 87.2437 67.2822 87.2982 67.1641 87.389H68.0103C67.8933 87.2982 67.7467 87.2437 67.5866 87.2437H67.5877Z" fill="#D8B694"/>
<path d="M68.3267 88.8672H66.8467V101.315L68.3267 100.958V88.8672Z" fill="#F6D6B3"/>
<path d="M74.7616 87.2437C74.6025 87.2437 74.456 87.2982 74.3379 87.389H75.1841C75.0671 87.2982 74.9206 87.2437 74.7604 87.2437H74.7616Z" fill="#D8B694"/>
<path d="M79.7202 99.7368L69.3569 102.231C69.283 102.263 69.2024 102.282 69.1172 102.289L66.8467 102.835V157.174H79.7202V99.7368Z" fill="#FBE4C6"/>
<path d="M109.238 99.5383H81.1963V157.174H109.238V99.5383ZM101.069 149.923C101.069 150.33 100.738 150.661 100.33 150.661H89.3629C88.9552 150.661 88.6246 150.33 88.6246 149.923V138.147C88.6246 136.327 89.8138 134.732 91.5823 134.18C92.0685 134.028 92.5319 133.814 92.959 133.544L94.4526 132.601C94.6934 132.449 95 132.449 95.2408 132.601L96.7345 133.544C97.1615 133.814 97.6249 134.028 98.1111 134.18C99.8807 134.733 101.069 136.328 101.069 138.147V149.923ZM101.069 124.326C101.069 124.733 100.738 125.064 100.33 125.064H89.3629C88.9552 125.064 88.6246 124.733 88.6246 124.326V112.55C88.6246 110.73 89.8138 109.135 91.5823 108.583C92.0685 108.431 92.5319 108.217 92.959 107.947L94.4526 107.004C94.6934 106.852 95 106.852 95.2408 107.004L96.7345 107.947C97.1615 108.217 97.6249 108.431 98.1111 108.583C99.8807 109.136 101.069 110.731 101.069 112.55V124.326Z" fill="#FBE4C6"/>
<path d="M97.6717 135.587C97.0629 135.397 96.4825 135.129 95.9464 134.789L94.848 134.095L93.7497 134.789C93.2136 135.128 92.6332 135.396 92.0244 135.587C90.8749 135.945 90.1025 136.973 90.1025 138.146V149.182H99.5935V138.146C99.5935 136.975 98.8212 135.947 97.6717 135.587Z" fill="#FBE4C6"/>
<path d="M97.6717 109.991C97.0629 109.801 96.4825 109.532 95.9464 109.194L94.848 108.5L93.7486 109.194C93.2124 109.532 92.632 109.8 92.0244 109.991C90.8749 110.35 90.1025 111.378 90.1025 112.55V123.587H99.5935V112.55C99.5935 111.379 98.8212 110.351 97.6717 109.991Z" fill="#FBE4C6"/>
<path d="M51.8969 69.999H59.758L60.2316 68.9631C61.1301 67.0004 60.8109 64.4391 59.4888 63.0045C58.972 62.4446 58.4961 62.1379 57.9906 61.8142C57.2478 61.3371 56.4823 60.8453 55.8269 59.6379C55.1704 60.8453 54.4048 61.3371 53.6631 61.8142C53.1588 62.139 52.6818 62.4446 52.165 63.0045C50.8429 64.4391 50.5226 67.0004 51.4221 68.9631L51.8958 69.9979L51.8969 69.999Z" fill="#FBE4C6"/>
<path d="M52.151 71.4775L52.1465 74.6249H59.6475L59.643 71.4775H52.151Z" fill="#FBE4C6"/>
<path d="M52.0732 125.045H59.7151L59.681 99.5383H52.1096L52.0732 125.045Z" fill="#FBE4C6"/>
<path d="M221.51 158.648H212.299H212.298H60.4977H51.2872H51.2861H45.4014V165.358H224.132V158.648H221.511H221.51Z" fill="#FBE4C6"/>
<path d="M52.0273 157.171H59.7589L59.7181 126.519H52.0716L52.0273 157.171Z" fill="#FBE4C6"/>
<path d="M52.1123 98.0594H59.6792L59.6497 76.1016H52.1441L52.1123 98.0594Z" fill="#FBE4C6"/>
<path d="M212.91 69.999H220.771L221.244 68.9631C222.143 67.0004 221.824 64.4391 220.501 63.0045C219.985 62.4446 219.509 62.1379 219.003 61.8142C218.261 61.3371 217.495 60.8453 216.84 59.6379C216.183 60.8453 215.418 61.3371 214.676 61.8142C214.172 62.139 213.694 62.4446 213.178 63.0045C211.856 64.4391 211.535 67.0004 212.435 68.9631L212.908 69.9979L212.91 69.999Z" fill="#FBE4C6"/>
<path d="M213.163 71.4775L213.158 74.6249H220.659L220.656 71.4775H213.163Z" fill="#FBE4C6"/>
<path d="M213.085 125.045H220.727L220.693 99.5383H213.121L213.085 125.045Z" fill="#FBE4C6"/>
<path d="M213.124 98.0594H220.691L220.661 76.1016H213.156L213.124 98.0594Z" fill="#FBE4C6"/>
<path d="M164.036 90.4623L162.707 88.5166V98.0644H164.092V90.5338C164.072 90.5111 164.053 90.4873 164.036 90.4623Z" fill="#FBE4C6"/>
<path d="M162.707 157.174H191.197V99.5383H162.707V157.174ZM170.77 112.552C170.77 110.731 171.96 109.136 173.728 108.584C174.214 108.432 174.676 108.218 175.105 107.948L176.598 107.005C176.839 106.853 177.146 106.853 177.387 107.005L178.88 107.948C179.307 108.218 179.771 108.432 180.257 108.584C182.026 109.137 183.214 110.732 183.214 112.552V124.327C183.214 124.734 182.884 125.065 182.476 125.065H171.509C171.101 125.065 170.77 124.734 170.77 124.327V112.552ZM170.77 138.149C170.77 136.328 171.96 134.733 173.728 134.181C174.214 134.029 174.676 133.815 175.105 133.545L176.597 132.602C176.838 132.45 177.145 132.45 177.385 132.602L178.879 133.545C179.306 133.815 179.769 134.029 180.256 134.181C182.025 134.734 183.213 136.329 183.213 138.149V149.924C183.213 150.332 182.883 150.662 182.475 150.662H171.507C171.1 150.662 170.769 150.332 170.769 149.924V138.149H170.77Z" fill="#FBE4C6"/>
<path d="M187.165 98.0573V91.1924H165.566V98.0573H166.451V94.6033C166.451 93.0642 167.704 91.8114 169.243 91.8114H169.368C170.907 91.8114 172.16 93.0642 172.16 94.6033V98.0573H173.51V94.6033C173.51 93.0642 174.763 91.8114 176.302 91.8114H176.427C177.966 91.8114 179.219 93.0642 179.219 94.6033V98.0573H180.471V94.6033C180.471 93.0642 181.724 91.8114 183.263 91.8114H183.388C184.927 91.8114 186.179 93.0642 186.179 94.6033V98.0573H187.163H187.165Z" fill="#FBE4C6"/>
<path d="M181.739 138.146C181.739 136.975 180.967 135.947 179.817 135.587C179.208 135.397 178.628 135.129 178.092 134.789L176.994 134.095L175.895 134.789C175.359 135.128 174.779 135.396 174.17 135.587C173.02 135.945 172.248 136.973 172.248 138.146V149.182H181.739V138.146Z" fill="#FBE4C6"/>
<path d="M213.039 157.171H220.771L220.73 126.519H213.083L213.039 157.171Z" fill="#FBE4C6"/>
<path d="M196.86 87.4082C196.701 87.4082 196.555 87.4627 196.437 87.5536H197.283C197.166 87.4627 197.019 87.4082 196.859 87.4082H196.86Z" fill="#D8B694"/>
<path d="M204.775 89.0276H203.296V101.736L204.775 102.22V89.0276Z" fill="#F6D6B3"/>
<path d="M204.035 87.4082C203.876 87.4082 203.729 87.4627 203.611 87.5536H204.458C204.341 87.4627 204.194 87.4082 204.034 87.4082H204.035Z" fill="#D8B694"/>
<path d="M197.6 89.0276H196.121V99.3898L197.6 99.8736V89.0276Z" fill="#FBE4C6"/>
<path d="M181.739 112.55C181.739 111.379 180.967 110.351 179.817 109.991C179.208 109.801 178.628 109.532 178.092 109.194L176.994 108.5L175.895 109.194C175.359 109.532 174.779 109.8 174.17 109.991C173.02 110.35 172.248 111.378 172.248 112.55V123.587H181.739V112.55Z" fill="#FBE4C6"/>
<path d="M204.788 103.779L195.407 100.711C195.398 100.711 195.388 100.712 195.379 100.712C195.205 100.712 195.046 100.652 194.919 100.551L192.67 99.8149V157.17H204.787V103.778L204.788 103.779Z" fill="#FBE4C6"/>
<path d="M84.1581 89.7211H106.276C106.292 89.6893 106.309 89.6587 106.329 89.628L108.192 86.8997C108.259 86.8009 108.324 86.6998 108.388 86.5987L105.225 81.9657C103.458 79.376 102.337 76.5046 101.901 73.5423C101.862 73.5253 101.824 73.5083 101.785 73.4924C101.769 73.4856 101.753 73.4787 101.737 73.4719H88.6991C88.6832 73.4787 88.6673 73.4856 88.6514 73.4924C87.293 74.0785 85.8879 74.6839 84.4011 75.7652C82.5861 77.0861 81.3696 78.941 80.9766 80.99C80.5847 83.0288 81.0357 85.1278 82.2442 86.8986L84.107 89.6268C84.1274 89.6564 84.1444 89.6882 84.1603 89.72L84.1581 89.7211Z" fill="#FBE4C6"/>
<path d="M150.742 124.612C150.742 120.707 148.178 117.281 144.36 116.088C142.753 115.586 141.218 114.878 139.801 113.983L135.973 111.564L132.145 113.983C130.728 114.878 129.195 115.586 127.586 116.088C123.769 117.281 121.205 120.706 121.205 124.612V135.763H131.731V128.926C131.731 127.646 132.566 126.523 133.808 126.136C134.097 126.046 134.372 125.919 134.625 125.759L135.579 125.156C135.82 125.004 136.126 125.004 136.367 125.156L137.321 125.759C137.576 125.919 137.85 126.046 138.138 126.136C139.381 126.524 140.215 127.646 140.215 128.926V135.763H150.741V124.612H150.742Z" fill="#FBE4C6"/>
<path d="M150.741 137.24H144.832V157.17H150.741V137.24Z" fill="#FBE4C6"/>
<path d="M143.356 157.17V137.24H128.589V157.17H131.729V150.385C131.729 149.105 132.564 147.983 133.807 147.595C134.095 147.506 134.37 147.378 134.624 147.218L135.578 146.615C135.818 146.463 136.125 146.463 136.366 146.615L137.32 147.218C137.573 147.378 137.848 147.506 138.137 147.595C139.379 147.984 140.214 149.105 140.214 150.385V157.17H143.355H143.356Z" fill="#FBE4C6"/>
<path d="M161.23 157.173V95.3674H110.714V157.173H114.478V105.467C114.478 105.059 114.809 104.729 115.216 104.729H156.726C157.134 104.729 157.465 105.059 157.465 105.467V157.173H161.229H161.23Z" fill="#FBE4C6"/>
<path d="M155.99 157.172V106.205H115.956V157.172H119.727V124.613C119.727 120.059 122.709 116.067 127.145 114.68C128.631 114.217 130.047 113.562 131.356 112.735L135.578 110.068C135.818 109.916 136.125 109.916 136.366 110.068L140.588 112.735C141.896 113.562 143.314 114.216 144.798 114.68C149.235 116.066 152.216 120.057 152.216 124.613V157.172H155.987H155.99Z" fill="#FBE4C6"/>
<path d="M95.92 69.2442L95.2169 68.2446L94.5138 69.2442C93.6256 70.5061 92.667 71.3489 91.6572 71.994H98.7766C97.7669 71.3489 96.8071 70.5072 95.92 69.2442Z" fill="#FBE4C6"/>
<path d="M137.696 127.545C137.285 127.416 136.893 127.236 136.531 127.006L135.971 126.653L135.411 127.006C135.049 127.236 134.657 127.416 134.246 127.545C133.623 127.739 133.204 128.294 133.204 128.925V135.762H138.736V128.925C138.736 128.293 138.318 127.739 137.694 127.545H137.696Z" fill="#FBE4C6"/>
<path d="M136.532 148.467L135.972 148.114L135.412 148.467C135.05 148.695 134.658 148.877 134.247 149.005C133.624 149.199 133.205 149.755 133.205 150.385V157.171H138.737V150.385C138.737 149.754 138.319 149.199 137.695 149.005C137.284 148.877 136.892 148.696 136.53 148.467H136.532Z" fill="#FBE4C6"/>
<path d="M161.23 88.8672H110.714V93.8898H161.23V88.8672Z" fill="#FBE4C6"/>
<path d="M127.114 137.24H121.205V157.17H127.114V137.24Z" fill="#FBE4C6"/>
<path d="M107.493 90.5306V98.0611H109.238V88.1294C109.238 88.0681 109.246 88.0102 109.259 87.9534L107.549 90.459C107.532 90.484 107.512 90.5079 107.493 90.5306Z" fill="#FBE4C6"/>
<path d="M138.253 40.9586L135.96 37.6965L133.665 40.9586C130.76 45.0897 127.461 47.1296 123.956 48.7743H147.962C144.457 47.1296 141.158 45.0897 138.253 40.9586Z" fill="#FBE4C6"/>
<path d="M163.361 86.8501C163.373 86.866 163.383 86.883 163.393 86.8989L165.255 89.6272C165.275 89.6567 165.292 89.6885 165.308 89.7203H187.426C187.442 89.6885 187.459 89.6579 187.48 89.6272L189.342 86.8989C190.551 85.1282 191.002 83.0292 190.61 80.9903C190.217 78.9413 189 77.0854 187.185 75.7655C185.786 74.7478 184.459 74.1515 183.176 73.5961L170.017 73.562C169.58 76.5174 168.46 79.382 166.696 81.966L163.361 86.8512V86.8501Z" fill="#FBE4C6"/>
<path d="M177.07 69.2442L176.367 68.2446L175.663 69.2442C174.731 70.5708 173.719 71.434 172.652 72.0906L180.111 72.1099C179.033 71.4499 178.011 70.5833 177.068 69.243L177.07 69.2442Z" fill="#FBE4C6"/>
<path d="M106.018 98.0573V91.1924H84.4189V98.0573H85.3049V94.6033C85.3049 93.0642 86.5577 91.8114 88.0968 91.8114H88.2217C89.7608 91.8114 91.0136 93.0642 91.0136 94.6033V98.0573H92.3641V94.6033C92.3641 93.0642 93.6169 91.8114 95.156 91.8114H95.2809C96.8199 91.8114 98.0728 93.0642 98.0728 94.6033V98.0573H99.3256V94.6033C99.3256 93.0642 100.578 91.8114 102.117 91.8114H102.242C103.781 91.8114 105.034 93.0642 105.034 94.6033V98.0573H106.018Z" fill="#FBE4C6"/>
<path d="M109.745 85.9702C109.856 86.0611 109.935 86.1803 109.978 86.3109L110.574 87.1833C110.62 87.2491 110.651 87.3196 110.673 87.3922H161.248C161.27 87.3196 161.301 87.2491 161.347 87.1833L161.882 86.3995L163.673 83.7769H152.515C152.107 83.7769 151.776 83.4464 151.776 83.0386C151.776 82.6308 152.107 82.3003 152.515 82.3003H164.682L165.478 81.1338C168.296 77.0062 169.344 72.113 168.43 67.3539C168.147 65.8785 167.68 64.4462 167.048 63.0821H148.502C148.094 63.0821 147.764 62.7515 147.764 62.3438C147.764 61.936 148.094 61.6055 148.502 61.6055H166.281C165.691 60.5787 165.002 59.5985 164.222 58.6762H144.095C143.687 58.6762 143.356 58.3456 143.356 57.9379C143.356 57.5301 143.687 57.1996 144.095 57.1996H162.843C162.114 56.4897 161.325 55.8241 160.48 55.2096C157.257 52.8641 154.23 51.5159 151.303 50.2517H120.618C117.691 51.5159 114.664 52.8653 111.441 55.2096C107.23 58.2729 104.408 62.5857 103.492 67.3551C102.579 72.1142 103.627 77.0073 106.444 81.135L109.746 85.9713L109.745 85.9702ZM142.117 82.3003H148.275C148.682 82.3003 149.013 82.6308 149.013 83.0386C149.013 83.4464 148.682 83.7769 148.275 83.7769H142.117C141.71 83.7769 141.379 83.4464 141.379 83.0386C141.379 82.6308 141.71 82.3003 142.117 82.3003Z" fill="#FBE4C6"/>
<path d="M98.1124 108.581C97.6263 108.429 97.1629 108.215 96.7358 107.945L95.2422 107.002C95.0014 106.85 94.6947 106.85 94.4539 107.002L92.9603 107.945C92.5332 108.215 92.0698 108.429 91.5837 108.581C89.8141 109.134 88.626 110.729 88.626 112.549V124.324C88.626 124.732 88.9565 125.062 89.3643 125.062H100.332C100.74 125.062 101.07 124.732 101.07 124.324V112.549C101.07 110.728 99.8809 109.133 98.1124 108.581ZM99.5936 123.585H90.1026V112.549C90.1026 111.378 90.8749 110.35 92.0244 109.99C92.6332 109.8 93.2136 109.531 93.7486 109.192L94.8481 108.498L95.9464 109.192C96.4825 109.531 97.0629 109.799 97.6717 109.99C98.8212 110.348 99.5936 111.376 99.5936 112.549V123.585Z" fill="#3A312B"/>
<path d="M98.1124 134.179C97.6263 134.026 97.1629 133.813 96.7358 133.542L95.2422 132.6C95.0014 132.448 94.6947 132.448 94.4539 132.6L92.9603 133.542C92.5332 133.813 92.0698 134.026 91.5837 134.179C89.8141 134.732 88.626 136.326 88.626 138.146V149.921C88.626 150.329 88.9565 150.659 89.3643 150.659H100.332C100.74 150.659 101.07 150.329 101.07 149.921V138.146C101.07 136.325 99.8809 134.731 98.1124 134.179ZM99.5936 149.183H90.1026V138.146C90.1026 136.975 90.8749 135.947 92.0244 135.587C92.6332 135.397 93.2136 135.129 93.7497 134.79L94.8481 134.096L95.9464 134.79C96.4825 135.128 97.0629 135.396 97.6717 135.587C98.8212 135.946 99.5936 136.974 99.5936 138.146V149.183Z" fill="#3A312B"/>
<path d="M171.508 125.062H182.475C182.883 125.062 183.214 124.732 183.214 124.324V112.549C183.214 110.728 182.024 109.133 180.256 108.581C179.77 108.429 179.306 108.215 178.879 107.945L177.386 107.002C177.145 106.85 176.838 106.85 176.597 107.002L175.104 107.945C174.677 108.215 174.213 108.429 173.727 108.581C171.958 109.134 170.77 110.729 170.77 112.549V124.324C170.77 124.732 171.1 125.062 171.508 125.062ZM172.246 112.549C172.246 111.378 173.018 110.35 174.168 109.99C174.777 109.8 175.357 109.532 175.893 109.192L176.992 108.498L178.09 109.192C178.626 109.531 179.206 109.799 179.815 109.99C180.965 110.348 181.737 111.376 181.737 112.549V123.585H172.246V112.549Z" fill="#3A312B"/>
<path d="M171.507 150.659H182.474C182.882 150.659 183.213 150.329 183.213 149.921V138.146C183.213 136.325 182.023 134.731 180.255 134.179C179.769 134.026 179.305 133.813 178.878 133.542L177.385 132.6C177.144 132.448 176.837 132.448 176.596 132.6L175.104 133.542C174.676 133.813 174.213 134.026 173.727 134.179C171.958 134.732 170.77 136.326 170.77 138.146V149.921C170.77 150.329 171.1 150.659 171.508 150.659H171.507ZM172.245 138.146C172.245 136.975 173.017 135.947 174.167 135.587C174.776 135.397 175.355 135.129 175.892 134.79L176.99 134.096L178.089 134.79C178.625 135.128 179.205 135.396 179.814 135.587C180.964 135.946 181.736 136.974 181.736 138.146V149.183H172.245V138.146Z" fill="#3A312B"/>
<path d="M142.117 83.7737H148.275C148.682 83.7737 149.013 83.4432 149.013 83.0354C149.013 82.6276 148.682 82.2971 148.275 82.2971H142.117C141.709 82.2971 141.379 82.6276 141.379 83.0354C141.379 83.4432 141.709 83.7737 142.117 83.7737Z" fill="#4F2B2B"/>
<path d="M224.871 157.172H222.247L222.206 126.519H222.713C223.12 126.519 223.451 126.188 223.451 125.781C223.451 125.373 223.12 125.042 222.713 125.042H222.205L222.171 99.5362H222.714C223.121 99.5362 223.452 99.2057 223.452 98.7979C223.452 98.3901 223.121 98.0596 222.714 98.0596H222.17L222.14 75.7507C222.209 75.6383 222.25 75.5054 222.25 75.3634C222.25 75.2214 222.209 75.0874 222.139 74.975L222.133 70.7372C222.133 70.6917 222.129 70.6486 222.121 70.6054L222.591 69.5798C223.742 67.0673 223.321 63.8813 221.592 62.006C220.947 61.3075 220.341 60.9179 219.807 60.5738C219.056 60.091 218.513 59.7423 218 58.6553L217.512 57.6206C217.39 57.3616 217.13 57.1969 216.844 57.1969C216.558 57.1969 216.297 57.3616 216.176 57.6206L215.687 58.6553C215.175 59.7423 214.632 60.091 213.88 60.5738C213.345 60.9168 212.74 61.3064 212.096 62.006C210.366 63.8824 209.946 67.0673 211.096 69.5798L211.69 70.8758L211.685 74.9613C211.61 75.0772 211.566 75.2146 211.566 75.3634C211.566 75.5122 211.609 75.6474 211.684 75.7632L211.652 98.0596H211.102C210.694 98.0596 210.364 98.3901 210.364 98.7979C210.364 99.2057 210.694 99.5362 211.102 99.5362H211.65L211.613 125.042H211.102C210.694 125.042 210.364 125.373 210.364 125.781C210.364 126.188 210.694 126.519 211.102 126.519H211.611L211.567 157.172H206.271V103.245C206.271 103.195 206.265 103.147 206.256 103.099V88.2903C206.256 88.1972 206.237 88.1086 206.206 88.0268C206.175 87.1215 205.589 86.3583 204.777 86.063V84.2138C204.777 83.8061 204.446 83.4755 204.038 83.4755C203.631 83.4755 203.3 83.8061 203.3 84.2138V86.063C202.489 86.3583 201.903 87.1215 201.871 88.0268C201.839 88.1086 201.821 88.1983 201.821 88.2915V101.256L199.079 100.359V88.2915C199.079 88.1983 199.061 88.1097 199.029 88.0268C198.999 87.1227 198.413 86.3583 197.6 86.063V84.2138C197.6 83.8061 197.27 83.4755 196.862 83.4755C196.454 83.4755 196.124 83.8061 196.124 84.2138V86.063C195.313 86.3583 194.727 87.1215 194.695 88.0268C194.663 88.1086 194.645 88.1983 194.645 88.2915V98.9092L192.166 98.0982C192.166 98.0982 192.164 98.0982 192.163 98.0982C192.145 98.0925 192.127 98.088 192.109 98.0835C192.103 98.0823 192.096 98.08 192.091 98.0789C192.077 98.0755 192.063 98.0744 192.05 98.0721C192.038 98.0698 192.027 98.0676 192.016 98.0664C192.008 98.0664 191.999 98.0664 191.991 98.0653C191.974 98.0641 191.957 98.063 191.941 98.063C191.94 98.063 191.938 98.063 191.937 98.063H188.646V90.5324C188.665 90.5097 188.684 90.4859 188.701 90.4609L190.564 87.7326C193.511 83.4142 192.434 77.7566 188.056 74.5729C186.482 73.428 184.976 72.7646 183.639 72.1876C183.629 72.1831 183.618 72.1786 183.608 72.174C183.58 72.1615 183.55 72.149 183.522 72.1365C181.511 71.2699 179.775 70.5202 178.28 68.3962L176.974 66.538C176.835 66.3415 176.61 66.2245 176.37 66.2245C176.129 66.2245 175.904 66.3415 175.765 66.538L174.459 68.3962C173.215 70.1659 171.802 70.9803 170.203 71.7049C170.28 70.167 170.176 68.6143 169.881 67.0753C169.547 65.3386 168.98 63.6587 168.201 62.0697C168.188 62.0379 168.173 62.0072 168.156 61.9777C167.364 60.3807 166.357 58.8757 165.158 57.4957C165.134 57.4639 165.108 57.4332 165.078 57.4059C163.987 56.1645 162.74 55.0252 161.35 54.0143C157.992 51.5712 154.883 50.1866 151.878 48.8895C151.813 48.8486 151.741 48.8168 151.665 48.7975C151.599 48.7691 151.533 48.7407 151.469 48.7123C146.884 46.7348 142.925 45.0276 139.465 40.1084L136.568 35.9876C136.429 35.7911 136.204 35.6741 135.963 35.6741C135.723 35.6741 135.498 35.7911 135.359 35.9876L132.462 40.1084C129.002 45.0276 125.042 46.7348 120.458 48.7123C120.367 48.752 120.275 48.7907 120.183 48.8304C120.181 48.8304 120.18 48.8315 120.178 48.8327C117.133 50.1468 113.982 51.536 110.575 54.0143C106.06 57.298 103.031 61.9368 102.045 67.0753C101.74 68.6654 101.638 70.2692 101.731 71.8582C99.9906 71.0927 98.464 70.2919 97.1317 68.3974L95.8255 66.5391C95.6869 66.3427 95.462 66.2257 95.2212 66.2257C94.9804 66.2257 94.7555 66.3427 94.6169 66.5391L93.3107 68.3974C91.8648 70.4521 90.1929 71.221 88.2654 72.0536C88.2631 72.0536 88.2608 72.0559 88.2574 72.057C88.195 72.0843 88.1325 72.1115 88.0689 72.1388C86.7025 72.7283 85.1543 73.3962 83.5346 74.574C79.1572 77.7589 78.0792 83.4165 81.0267 87.7338L82.8895 90.462C82.9065 90.487 82.9258 90.5109 82.9451 90.5336V98.0641H80.4622C80.4622 98.0641 80.4565 98.0641 80.4531 98.0641C80.4384 98.0641 80.4236 98.0653 80.4088 98.0664C80.3975 98.0664 80.3861 98.0676 80.3759 98.0698C80.3645 98.071 80.3532 98.0732 80.343 98.0744C80.3282 98.0766 80.3134 98.0789 80.2998 98.0823C80.2964 98.0823 80.2941 98.0823 80.2907 98.0846L76.9832 98.8808V88.1324C76.9832 88.0393 76.965 87.9507 76.9332 87.8678C76.9025 86.9637 76.3164 86.1993 75.5043 85.9039V84.0548C75.5043 83.647 75.1738 83.3165 74.766 83.3165C74.3583 83.3165 74.0277 83.647 74.0277 84.0548V85.9039C73.2168 86.1993 72.6307 86.9625 72.5989 87.8678C72.5671 87.9496 72.5489 88.0393 72.5489 88.1324V99.9474L69.807 100.607V88.1324C69.807 88.0393 69.7888 87.9507 69.757 87.8678C69.7263 86.9637 69.1403 86.1993 68.3281 85.9039V84.0548C68.3281 83.647 67.9976 83.3165 67.5898 83.3165C67.1821 83.3165 66.8516 83.647 66.8516 84.0548V85.9039C66.0406 86.1993 65.4545 86.9625 65.4227 87.8678C65.3909 87.9496 65.3727 88.0393 65.3727 88.1324V157.175H61.2371L61.1963 126.522H61.7028C62.1106 126.522 62.4411 126.192 62.4411 125.784C62.4411 125.376 62.1106 125.046 61.7028 125.046H61.1951L61.161 99.5396H61.704C62.1117 99.5396 62.4423 99.2091 62.4423 98.8013C62.4423 98.3935 62.1117 98.063 61.704 98.063H61.1599L61.1304 75.753C61.1997 75.6406 61.2405 75.5088 61.2405 75.3657C61.2405 75.2226 61.1997 75.0897 61.1292 74.9772L61.1236 70.7395C61.1236 70.694 61.119 70.6509 61.1111 70.6077L61.5813 69.582C62.7319 67.0696 62.3116 63.8836 60.5818 62.0083C59.9378 61.3098 59.3312 60.9202 58.7974 60.576C58.0466 60.0933 57.5037 59.7446 56.9903 58.6576L56.5019 57.6229C56.3803 57.3639 56.1202 57.1992 55.834 57.1992C55.5478 57.1992 55.2877 57.3639 55.1661 57.6229L54.6777 58.6576C54.1655 59.7446 53.6225 60.0933 52.8706 60.576C52.3356 60.9191 51.7302 61.3086 51.0862 62.0083C49.3563 63.8847 48.9361 67.0696 50.0867 69.582L50.6807 70.878L50.675 74.9636C50.6001 75.0795 50.5558 75.2169 50.5558 75.3657C50.5558 75.5145 50.5989 75.6497 50.6739 75.7655L50.6421 98.0619H50.0924C49.6846 98.0619 49.3541 98.3924 49.3541 98.8002C49.3541 99.2079 49.6846 99.5385 50.0924 99.5385H50.641L50.6046 125.045H50.0935C49.6857 125.045 49.3552 125.375 49.3552 125.783C49.3552 126.191 49.6857 126.521 50.0935 126.521H50.6024L50.5581 157.174H44.6631C44.2553 157.174 43.9248 157.504 43.9248 157.912V166.098C43.9248 166.506 44.2553 166.836 44.6631 166.836H224.871C225.278 166.836 225.609 166.506 225.609 166.098V157.912C225.609 157.504 225.278 157.174 224.871 157.174V157.172ZM213.178 63.0067C213.695 62.4468 214.171 62.1401 214.677 61.8164C215.419 61.3393 216.185 60.8475 216.84 59.6401C217.497 60.8475 218.262 61.3393 219.004 61.8164C219.508 62.1412 219.985 62.4468 220.502 63.0067C221.824 64.4413 222.145 67.0026 221.245 68.9653L220.771 70.0012H212.91L212.437 68.9664C211.538 67.0037 211.857 64.4424 213.18 63.0079L213.178 63.0067ZM220.661 76.1017L220.691 98.0596H213.124L213.156 76.1017H220.661ZM213.158 74.6251L213.163 71.4766H220.656L220.66 74.6251H213.159H213.158ZM220.693 99.5362L220.727 125.042H213.085L213.122 99.5362H220.692H220.693ZM220.729 126.519L220.77 157.172H213.04L213.084 126.519H220.729ZM204.035 87.4066C204.194 87.4066 204.341 87.4612 204.459 87.552H203.612C203.729 87.4612 203.876 87.4066 204.036 87.4066H204.035ZM203.296 89.0286H204.776V102.221L203.296 101.737V89.0286ZM196.861 87.4066C197.02 87.4066 197.167 87.4612 197.285 87.552H196.439C196.556 87.4612 196.702 87.4066 196.862 87.4066H196.861ZM196.122 89.0286H197.602V99.8747L196.122 99.3908V89.0286ZM192.674 99.8167L194.923 100.553C195.049 100.654 195.208 100.714 195.383 100.714C195.392 100.714 195.403 100.714 195.412 100.713L204.793 103.781V157.173H192.676V99.8179L192.674 99.8167ZM191.198 99.5373V157.173H162.708V99.5373H191.198ZM162.708 98.0607V88.5129L164.037 90.4586C164.054 90.4836 164.073 90.5075 164.092 90.5302V98.0607H162.708ZM183.392 91.8137H183.267C181.728 91.8137 180.476 93.0665 180.476 94.6055V98.0596H179.224V94.6055C179.224 93.0665 177.971 91.8137 176.432 91.8137H176.307C174.768 91.8137 173.515 93.0665 173.515 94.6055V98.0596H172.165V94.6055C172.165 93.0665 170.912 91.8137 169.373 91.8137H169.248C167.709 91.8137 166.456 93.0665 166.456 94.6055V98.0596H165.571V91.1946H187.17V98.0596H186.187V94.6055C186.187 93.0665 184.934 91.8137 183.395 91.8137H183.392ZM184.708 94.6055V98.0596H181.951V94.6055C181.951 93.8797 182.542 93.2902 183.266 93.2902H183.391C184.117 93.2902 184.707 93.8809 184.707 94.6055H184.708ZM177.746 94.6055V98.0596H174.989V94.6055C174.989 93.8797 175.58 93.2902 176.305 93.2902H176.43C177.156 93.2902 177.745 93.8809 177.745 94.6055H177.746ZM170.687 94.6055V98.0596H167.93V94.6055C167.93 93.8797 168.521 93.2902 169.246 93.2902H169.371C170.096 93.2902 170.686 93.8809 170.686 94.6055H170.687ZM175.665 69.2436L176.368 68.244L177.071 69.2436C178.013 70.5827 179.036 71.4505 180.114 72.1104L172.655 72.0911C173.722 71.4334 174.733 70.5702 175.666 69.2447L175.665 69.2436ZM170.018 73.5597L183.177 73.5938C184.46 74.1492 185.787 74.7455 187.186 75.7632C189.001 77.0842 190.218 78.939 190.611 80.9881C191.002 83.0269 190.552 85.1259 189.343 86.8967L187.48 89.6249C187.46 89.6545 187.443 89.6863 187.427 89.7181H165.309C165.293 89.6863 165.276 89.6556 165.255 89.6249L163.394 86.8967C163.382 86.8808 163.372 86.8637 163.362 86.8478L166.697 81.9626C168.461 79.3786 169.581 76.514 170.018 73.5586V73.5597ZM133.666 40.9568L135.96 37.6947L138.253 40.9568C141.159 45.0878 144.457 47.1278 147.962 48.7725H123.957C127.462 47.1278 130.76 45.0878 133.666 40.9568ZM103.491 67.3524C104.407 62.583 107.229 58.2703 111.44 55.207C114.663 52.8615 117.69 51.5132 120.617 50.2491H151.302C154.229 51.5132 157.256 52.8626 160.479 55.207C161.324 55.8214 162.113 56.4882 162.842 57.1969H144.094C143.686 57.1969 143.355 57.5275 143.355 57.9352C143.355 58.343 143.686 58.6735 144.094 58.6735H164.221C165.001 59.5958 165.689 60.576 166.28 61.6028H148.501C148.093 61.6028 147.762 61.9334 147.762 62.3411C147.762 62.7489 148.093 63.0794 148.501 63.0794H167.047C167.679 64.4447 168.146 65.8758 168.429 67.3513C169.342 72.1104 168.294 77.0036 165.477 81.1312L164.681 82.2977H152.514C152.106 82.2977 151.775 82.6282 151.775 83.036C151.775 83.4437 152.106 83.7743 152.514 83.7743H163.672L161.881 86.3969L161.346 87.1806C161.3 87.2465 161.269 87.3169 161.247 87.3896H110.672C110.65 87.3169 110.619 87.2465 110.573 87.1806L109.977 86.3083C109.934 86.1777 109.855 86.0584 109.744 85.9675L106.442 81.1312C103.624 77.0036 102.576 72.1104 103.49 67.3513L103.491 67.3524ZM156.726 104.728H115.216C114.809 104.728 114.478 105.059 114.478 105.466V157.172H110.714V95.3665H161.23V157.172H157.466V105.466C157.466 105.059 157.135 104.728 156.728 104.728H156.726ZM144.799 114.681C143.313 114.218 141.897 113.563 140.589 112.736L136.367 110.069C136.126 109.917 135.819 109.917 135.578 110.069L131.357 112.736C130.048 113.563 128.631 114.217 127.146 114.681C122.709 116.067 119.728 120.058 119.728 124.614V157.173H115.957V106.206H155.99V157.173H152.219V124.614C152.219 120.06 149.238 116.068 144.801 114.681H144.799ZM140.214 135.765V128.927C140.214 127.647 139.379 126.525 138.136 126.137C137.848 126.048 137.573 125.92 137.32 125.76L136.366 125.157C136.125 125.005 135.818 125.005 135.577 125.157L134.623 125.76C134.37 125.92 134.095 126.048 133.807 126.137C132.564 126.526 131.729 127.647 131.729 128.927V135.765H121.203V124.613C121.203 120.708 123.768 117.282 127.584 116.09C129.192 115.588 130.726 114.879 132.144 113.984L135.971 111.566L139.799 113.984C141.217 114.879 142.75 115.588 144.358 116.09C148.176 117.282 150.741 120.707 150.741 124.613V135.765H140.215H140.214ZM150.739 137.241V157.172H144.831V137.241H150.739ZM138.136 147.597C137.848 147.507 137.573 147.38 137.32 147.22L136.366 146.616C136.125 146.464 135.818 146.464 135.577 146.616L134.623 147.22C134.369 147.38 134.094 147.507 133.807 147.597C132.564 147.985 131.729 149.106 131.729 150.386V157.172H128.589V137.241H143.355V157.172H140.215V150.386C140.215 149.106 139.38 147.984 138.137 147.597H138.136ZM138.737 150.386V157.172H133.206V150.386C133.206 149.755 133.624 149.2 134.247 149.006C134.657 148.878 135.049 148.697 135.413 148.468L135.973 148.115L136.533 148.468C136.895 148.696 137.287 148.878 137.698 149.006C138.32 149.2 138.739 149.756 138.739 150.386H138.737ZM133.206 135.765V128.927C133.206 128.295 133.624 127.741 134.247 127.547C134.658 127.419 135.05 127.238 135.413 127.009L135.973 126.655L136.533 127.009C136.895 127.238 137.287 127.419 137.698 127.547C138.32 127.741 138.739 128.297 138.739 128.927V135.765H133.208H133.206ZM127.112 137.241V157.172H121.203V137.241H127.112ZM110.714 93.89V88.8673H161.23V93.89H110.714ZM94.5147 69.2447L95.2178 68.2452L95.9209 69.2447C96.8091 70.5066 97.7677 71.3494 98.7775 71.9945H91.6581C92.6679 71.3494 93.6276 70.5077 94.5147 69.2447ZM82.2432 86.8989C81.0335 85.1282 80.5838 83.0291 80.9756 80.9903C81.3686 78.9413 82.5851 77.0853 84.4001 75.7655C85.8869 74.6842 87.292 74.0777 88.6504 73.4927C88.6663 73.4859 88.6822 73.4791 88.6981 73.4723H101.736C101.752 73.4791 101.768 73.4859 101.784 73.4927C101.823 73.5097 101.861 73.5268 101.9 73.5427C102.335 76.5049 103.456 79.3763 105.224 81.966L108.387 86.5991C108.323 86.7002 108.259 86.8012 108.191 86.9001L106.328 89.6283C106.308 89.6579 106.291 89.6897 106.275 89.7215H84.1571C84.1412 89.6897 84.1241 89.659 84.1037 89.6283L82.2409 86.9001L82.2432 86.8989ZM109.26 87.953C109.246 88.0098 109.239 88.0688 109.239 88.129V98.0607H107.494V90.5302C107.513 90.5075 107.532 90.4836 107.55 90.4586L109.26 87.953ZM102.242 91.8137H102.117C100.578 91.8137 99.325 93.0665 99.325 94.6055V98.0596H98.0721V94.6055C98.0721 93.0665 96.8193 91.8137 95.2803 91.8137H95.1553C93.6163 91.8137 92.3635 93.0665 92.3635 94.6055V98.0596H91.013V94.6055C91.013 93.0665 89.7601 91.8137 88.2211 91.8137H88.0961C86.5571 91.8137 85.3043 93.0665 85.3043 94.6055V98.0596H84.4183V91.1946H106.017V98.0596H105.034V94.6055C105.034 93.0665 103.781 91.8137 102.242 91.8137ZM103.557 94.6055V98.0596H100.802V94.6055C100.802 93.8797 101.392 93.2902 102.117 93.2902H102.242C102.968 93.2902 103.557 93.8809 103.557 94.6055ZM96.5956 94.6055V98.0596H93.8389V94.6055C93.8389 93.8797 94.4295 93.2902 95.1542 93.2902H95.2791C96.0049 93.2902 96.5944 93.8809 96.5944 94.6055H96.5956ZM89.5364 94.6055V98.0596H86.7808V94.6055C86.7808 93.8797 87.3715 93.2902 88.0961 93.2902H88.2211C88.9469 93.2902 89.5364 93.8809 89.5364 94.6055ZM81.1971 99.5362H109.239V157.172H81.1971V99.5362ZM74.7615 87.2442C74.9205 87.2442 75.067 87.2987 75.1851 87.3896H74.339C74.4559 87.2987 74.6025 87.2442 74.7626 87.2442H74.7615ZM74.0221 88.8662H75.502V99.2306L74.0221 99.5862V88.865V88.8662ZM67.5864 87.2442C67.7455 87.2442 67.892 87.2987 68.0101 87.3896H67.1639C67.2809 87.2987 67.4274 87.2442 67.5876 87.2442H67.5864ZM66.847 88.8662H68.327V100.957L66.847 101.313V88.865V88.8662ZM66.847 102.832L69.1175 102.286C69.2016 102.28 69.2822 102.26 69.3572 102.228L79.7205 99.7338V157.171H66.847V102.832ZM52.1664 63.0067C52.6832 62.4468 53.1591 62.1401 53.6646 61.8164C54.4074 61.3393 55.1729 60.8464 55.8283 59.6401C56.4848 60.8475 57.2504 61.3393 57.9921 61.8164C58.4964 62.1412 58.9734 62.4468 59.4902 63.0067C60.8123 64.4413 61.1326 67.0026 60.2331 68.9653L59.7594 70.0012H51.8983L51.4247 68.9664C50.5263 67.0037 50.8454 64.4424 52.1675 63.0079L52.1664 63.0067ZM59.6493 76.1017L59.6788 98.0596H52.1119L52.1437 76.1017H59.6493ZM52.1459 74.6251L52.1505 71.4766H59.6436L59.6481 74.6251H52.1471H52.1459ZM59.6811 99.5362L59.7151 125.042H52.0733L52.1096 99.5362H59.6799H59.6811ZM59.7174 126.519L59.7583 157.172H52.0278L52.0721 126.519H59.7174ZM224.132 165.356H45.4014V158.647H224.132V165.356Z" fill="#4F2B2B"/>
<path d="M360.334 328.679C360.334 328.679 408.694 330.972 434.675 372.222C460.657 413.472 451.9 459.636 451.9 459.636H238.811L229.706 323.37L360.334 328.679Z" fill="#357E94"/>
<path d="M426.565 433.591C426.349 433.591 426.133 433.53 425.943 433.401L372.577 397.558C372.065 397.215 371.927 396.521 372.272 396.008C372.619 395.495 373.318 395.363 373.822 395.703L427.188 431.546C427.701 431.889 427.838 432.583 427.493 433.096C427.277 433.417 426.924 433.59 426.565 433.59V433.591Z" fill="#4F2B2B"/>
<path d="M303.385 276.602C303.385 276.602 304.006 213.573 355.509 217.307C407.011 221.039 417.99 252.781 418.586 265.437C418.586 265.437 436.78 271.758 433.011 298.634C429.351 324.725 402.672 340.792 383.384 347.287L303.386 276.602H303.385Z" fill="#4F2B2B"/>
<path d="M411.772 321.247C410.801 320.835 409.807 320.564 408.808 320.4C414.771 299.637 408.484 274.185 383.805 258.304C356.998 241.05 321.807 248.047 306.718 269.912C291.625 291.776 296.994 323.733 323.23 341.843C346.884 358.168 379.414 357.659 396.65 341.383C397.943 342.969 399.622 344.276 401.635 345.132C408.231 347.93 415.846 344.854 418.647 338.258C421.445 331.663 418.367 324.047 411.772 321.247Z" fill="#FFBE97"/>
<path d="M409.199 336.923L402.281 333.987C401.167 333.514 400.647 332.228 401.12 331.113C401.594 329.999 402.88 329.479 403.994 329.952L410.912 332.888C412.027 333.362 412.547 334.648 412.073 335.762C411.6 336.877 410.314 337.397 409.199 336.923Z" fill="#4F2B2B"/>
<path d="M326.319 303.381C327.498 300.971 324.821 297.24 320.339 295.047C315.857 292.854 311.268 293.031 310.089 295.441C308.91 297.851 311.587 301.582 316.069 303.775C320.551 305.968 325.14 305.791 326.319 303.381Z" fill="#FF9D6C"/>
<path d="M385.645 329.872C386.824 327.461 384.147 323.73 379.665 321.537C375.184 319.345 370.595 319.521 369.415 321.931C368.236 324.341 370.913 328.073 375.395 330.265C379.877 332.458 384.466 332.282 385.645 329.872Z" fill="#FF9D6C"/>
<path d="M350.836 238.829C336.716 240.359 319.203 225.536 319.203 225.536C312.066 252.176 336.107 261.878 336.107 261.878C336.107 261.878 343.232 270.711 398.189 275.168C398.189 275.168 391.326 301.848 402.207 313.731L401.398 329.259L419.14 310.55C419.14 310.55 416.655 231.701 350.834 238.829H350.836Z" fill="#4F2B2B"/>
<path d="M369.004 297.231C368.232 300.241 368.788 302.894 370.245 303.145C371.707 303.397 373.513 301.157 374.285 298.147C375.056 295.137 374.5 292.484 373.044 292.234C371.581 291.982 369.775 294.221 369.004 297.231Z" fill="#4F2B2B"/>
<path d="M329.185 285.571C328.489 288.373 329.101 290.872 330.552 291.14C332.007 291.41 333.747 289.352 334.443 286.55C335.14 283.747 334.527 281.248 333.077 280.981C331.627 280.713 329.882 282.768 329.185 285.571Z" fill="#4F2B2B"/>
<path d="M347.251 313.716C347.038 313.716 346.819 313.637 346.655 313.473L340.144 307.15L347.726 291.639C347.933 291.213 348.45 291.037 348.876 291.244C349.302 291.45 349.478 291.968 349.271 292.394L342.237 306.791L347.853 312.25C348.194 312.578 348.2 313.126 347.872 313.467C347.701 313.643 347.482 313.728 347.257 313.728L347.251 313.716Z" fill="#4F2B2B"/>
<path d="M339.413 326.537C338.992 326.318 338.832 325.795 339.048 325.38C339.267 324.958 339.784 324.795 340.205 325.015C340.637 325.239 350.239 330.094 358.566 322.361C358.911 322.04 359.458 322.057 359.779 322.403C360.1 322.748 360.083 323.295 359.737 323.616C350.513 332.178 339.564 326.615 339.407 326.534L339.413 326.537Z" fill="#4F2B2B"/>
<path d="M365.74 283.485C365.319 283.704 365.159 284.227 365.375 284.642C365.594 285.063 366.111 285.226 366.532 285.007C366.964 284.782 376.566 279.928 384.893 287.661C385.238 287.982 385.785 287.964 386.106 287.619C386.427 287.274 386.41 286.727 386.065 286.406C376.84 277.844 365.891 283.406 365.735 283.488L365.74 283.485Z" fill="#4F2B2B"/>
<path d="M323.112 272.186C322.658 272.322 322.402 272.805 322.536 273.253C322.672 273.708 323.149 273.966 323.603 273.83C324.07 273.691 334.415 270.734 341.134 279.899C341.413 280.279 341.953 280.365 342.333 280.086C342.714 279.808 342.8 279.268 342.521 278.887C335.077 268.739 323.276 272.137 323.106 272.188L323.112 272.186Z" fill="#4F2B2B"/>
<path d="M277.447 427.977L230.985 425.816V407.268L277.447 409.428V427.977Z" fill="#69ABDD"/>
<path d="M277.446 429.097C277.429 429.097 277.411 429.097 277.393 429.097L230.931 426.936C230.336 426.907 229.866 426.416 229.866 425.819V407.271C229.866 406.966 229.991 406.674 230.211 406.463C230.434 406.253 230.72 406.127 231.036 406.157L277.497 408.317C278.092 408.346 278.562 408.837 278.562 409.434V427.982C278.562 428.287 278.437 428.579 278.217 428.79C278.008 428.989 277.73 429.098 277.446 429.098V429.097ZM232.102 424.751L276.328 426.807V410.495L232.102 408.439V424.751Z" fill="#775340"/>
<path d="M295.842 212.221L321.68 198.703L320.149 446.483L294.311 460L295.842 212.221Z" fill="#F8D2A0"/>
<path d="M110.354 205.462L136.192 191.943L321.679 198.7L295.841 212.218L110.354 205.462Z" fill="#F8D2A0"/>
<path d="M313.775 450.067H313.768C313.151 450.062 312.654 449.56 312.657 448.944L314.183 204.553L139.525 197.838C138.91 197.816 138.43 197.296 138.452 196.679C138.476 196.063 138.915 195.555 139.613 195.605L315.351 202.362C315.953 202.384 316.43 202.881 316.425 203.485L314.893 448.956C314.888 449.572 314.389 450.067 313.775 450.067Z" fill="#4F2B2B"/>
<path d="M305.28 454.846H305.274C304.656 454.841 304.159 454.338 304.162 453.723L305.689 208.801L129.571 202.085C128.956 202.063 128.476 201.543 128.498 200.926C128.522 200.31 128.935 199.782 129.659 199.852L306.858 206.609C307.46 206.631 307.937 207.129 307.932 207.732L306.4 453.735C306.395 454.35 305.896 454.846 305.282 454.846H305.28Z" fill="#4F2B2B"/>
<path d="M295.841 212.218L294.31 459.997L108.822 453.241L110.354 205.462L295.841 212.218Z" fill="#F5C07A"/>
<path d="M269.533 296.022L132.532 289.649V234.956L269.533 241.327V296.022Z" fill="white"/>
<path d="M195.673 327.353L132.532 324.415V299.21L195.673 302.146V327.353Z" fill="white"/>
<path d="M196.64 252.386C196.623 252.386 196.602 252.386 196.583 252.386L140.829 249.597C140.213 249.566 139.74 249.042 139.771 248.426C139.8 247.809 140.261 247.339 140.942 247.366L196.697 250.155C197.312 250.185 197.786 250.71 197.755 251.326C197.726 251.924 197.232 252.387 196.64 252.387V252.386Z" fill="#4F2B2B"/>
<path d="M171.947 266.323C171.923 266.323 171.899 266.323 171.875 266.321L140.814 264.33C140.198 264.29 139.731 263.759 139.771 263.143C139.81 262.526 140.356 262.071 140.958 262.1L172.019 264.091C172.635 264.131 173.101 264.662 173.062 265.278C173.024 265.87 172.532 266.324 171.947 266.324V266.323Z" fill="#4F2B2B"/>
<path d="M169.835 307.35C169.811 307.35 169.787 307.35 169.763 307.348L138.701 305.357C138.086 305.317 137.619 304.786 137.659 304.17C137.698 303.553 138.243 303.098 138.845 303.128L169.907 305.119C170.523 305.158 170.989 305.69 170.95 306.305C170.912 306.897 170.42 307.351 169.835 307.351V307.35Z" fill="#4F2B2B"/>
<path d="M259.167 287.223C259.148 287.223 259.127 287.223 259.109 287.223L240.788 286.241C240.171 286.206 239.699 285.682 239.732 285.064C239.763 284.449 240.315 283.994 240.907 284.008L259.227 284.99C259.844 285.025 260.316 285.55 260.283 286.167C260.252 286.762 259.76 287.225 259.169 287.225L259.167 287.223Z" fill="#4F2B2B"/>
<path d="M184.41 320.505C184.391 320.505 184.371 320.505 184.352 320.505L166.032 319.523C165.414 319.488 164.943 318.964 164.975 318.346C165.006 317.731 165.558 317.276 166.15 317.29L184.47 318.272C185.087 318.307 185.559 318.832 185.526 319.449C185.496 320.044 185.003 320.507 184.412 320.507L184.41 320.505Z" fill="#4F2B2B"/>
<path d="M274.612 378.3C276.018 374.382 279.755 371.748 283.915 371.744L318.971 371.715C319.588 371.715 320.089 371.213 320.089 370.597C320.089 369.981 319.59 369.479 318.971 369.479L283.915 369.508C283.711 369.508 283.516 369.546 283.315 369.556C283.274 369.541 283.243 369.513 283.2 369.503C280.619 368.879 278.645 367.416 277.491 365.276C276.22 362.919 276.092 360.023 277.133 357.118C278.534 353.199 282.272 350.565 286.434 350.56L321.49 350.531C322.107 350.531 322.608 350.029 322.608 349.413C322.608 348.797 322.109 348.295 321.49 348.295L286.434 348.324C285.575 348.324 284.74 348.447 283.92 348.624C283.056 346.757 282.912 344.997 283.497 342.703C284.522 338.667 287.995 335.694 292.138 335.298L327.034 331.961C336.771 331.024 346.486 335.315 352.362 343.147C368.202 364.259 373.911 386.679 369.33 409.791C366.633 423.395 360.211 434.269 352.149 438.879C346.531 442.089 340.083 442.458 332.982 439.983L332.299 440.926L332.678 439.875C332.275 439.731 331.896 439.58 331.548 439.433C321.675 435.183 308.714 413.004 308.586 412.783C308.424 412.504 308.148 412.31 307.833 412.246L284.869 407.779C282.434 407.188 280.314 405.553 279.101 403.303C277.887 401.053 277.687 398.385 278.548 395.982C278.945 394.869 279.57 393.889 280.326 393.04C280.527 392.951 280.708 392.818 280.83 392.618C280.864 392.56 280.873 392.494 280.895 392.433C282.531 390.908 284.707 389.997 287.036 389.996L313.859 389.97C314.474 389.97 314.974 389.468 314.974 388.852C314.974 388.236 314.474 387.734 313.855 387.734L287.035 387.76C284.258 387.76 281.662 388.814 279.654 390.567C276.876 388.684 272.381 384.525 274.608 378.299L274.612 378.3Z" fill="#FFBE97"/>
<path d="M278.112 392.177C277.413 393.087 276.845 394.113 276.444 395.231C275.37 398.232 275.621 401.562 277.135 404.368C278.647 407.173 281.292 409.214 284.391 409.967L306.912 414.347C308.865 417.643 320.804 437.246 330.669 441.49C331.06 441.658 331.476 441.821 331.919 441.984L332.246 442.099C335.587 443.267 338.804 443.85 341.88 443.85C345.929 443.85 349.733 442.841 353.259 440.825C365.675 433.723 370.164 417.066 371.521 410.233C376.231 386.469 370.385 363.45 354.151 341.812C347.809 333.358 337.314 328.751 326.82 329.739L291.924 333.076C286.845 333.562 282.586 337.209 281.331 342.157C280.644 344.859 280.808 347.051 281.787 349.299C278.706 350.591 276.197 353.099 275.029 356.368C273.772 359.877 273.949 363.416 275.525 366.338C276.445 368.045 277.848 369.389 279.539 370.372C276.334 371.625 273.714 374.186 272.508 377.549C270.56 382.995 272.681 388.363 278.112 392.175V392.177ZM274.612 378.303C276.018 374.385 279.755 371.751 283.916 371.747L318.971 371.718C319.589 371.718 320.089 371.216 320.089 370.6C320.089 369.984 319.59 369.482 318.971 369.482L283.916 369.511C283.711 369.511 283.516 369.549 283.315 369.559C283.274 369.543 283.243 369.516 283.2 369.506C280.62 368.882 278.646 367.419 277.492 365.279C276.221 362.922 276.092 360.026 277.133 357.121C278.534 353.202 282.273 350.568 286.435 350.563L321.49 350.534C322.108 350.534 322.609 350.031 322.609 349.416C322.609 348.8 322.11 348.298 321.49 348.298L286.435 348.327C285.576 348.327 284.74 348.45 283.921 348.627C283.056 346.759 282.912 345 283.497 342.705C284.523 338.67 287.995 335.697 292.138 335.301L327.035 331.963C336.772 331.027 346.487 335.318 352.362 343.15C368.202 364.262 373.911 386.682 369.331 409.794C366.633 423.398 360.211 434.272 352.149 438.882C346.531 442.092 340.083 442.461 332.982 439.986L332.299 440.929L332.678 439.878C332.275 439.734 331.896 439.583 331.548 439.435C321.676 435.186 308.715 413.007 308.586 412.786C308.425 412.507 308.149 412.313 307.833 412.249L284.869 407.782C282.434 407.19 280.314 405.556 279.102 403.306C277.888 401.056 277.687 398.388 278.548 395.985C278.946 394.872 279.57 393.891 280.326 393.043C280.527 392.953 280.709 392.821 280.83 392.621C280.865 392.562 280.873 392.497 280.896 392.436C282.532 390.911 284.708 390 287.037 389.999L313.859 389.973C314.475 389.973 314.974 389.471 314.974 388.855C314.974 388.239 314.475 387.737 313.856 387.737L287.035 387.762C284.259 387.762 281.662 388.817 279.654 390.57C276.876 388.687 272.381 384.528 274.609 378.301L274.612 378.303Z" fill="#FFBE97"/>
<path d="M322.297 331.96C332.077 329.937 353.66 331.657 361.754 354.724" stroke="#4F2B2B" stroke-width="1.5" stroke-linecap="round" stroke-linejoin="round"/>
<path d="M278.488 392.323L315.207 394.385C317.077 394.49 318.8 395.433 319.896 396.951L323.958 402.575" stroke="#4F2B2B" stroke-width="1.5" stroke-linecap="round"/>
<path d="M280.313 370.253L317.032 372.315C318.902 372.42 320.625 373.363 321.721 374.881L325.783 380.506" stroke="#4F2B2B" stroke-width="1.5" stroke-linecap="round"/>
<path d="M282.053 349.526L318.926 352.626C320.732 352.778 322.382 353.711 323.443 355.18L327.566 360.89" stroke="#4F2B2B" stroke-width="1.5" stroke-linecap="round"/>
<path d="M100.229 375.679L112.64 373.722L115.168 373.232C115.663 373.136 116.155 373.117 116.646 373.091L120.655 372.458C125.316 371.724 128.643 367.468 128.228 362.769C127.851 358.455 124.423 355.099 120.215 354.641C119.563 354.759 118.896 354.828 118.215 354.828C118.009 354.828 117.802 354.822 117.596 354.81L114.495 354.639L98.4063 354.946C95.8819 354.994 93.5617 356.054 91.8743 357.932C90.1868 359.809 89.3791 362.229 89.6003 364.743L89.849 367.569C90.0719 370.085 91.2895 372.326 93.277 373.88C95.2629 375.432 97.7289 376.077 100.227 375.681L100.229 375.679Z" fill="#FFBE97"/>
<path d="M111.365 394.51L119.286 391.615C119.72 391.458 120.161 391.363 120.603 391.276C124.307 389.614 126.362 385.486 125.297 381.496C124.305 377.778 120.91 375.269 117.185 375.269C117.166 375.269 117.149 375.274 117.13 375.274L113.006 375.924L96.5397 379.124C94.2331 379.572 92.2747 380.916 91.028 382.909C89.7813 384.9 89.428 387.248 90.0351 389.52L90.721 392.092C91.3247 394.363 92.8012 396.223 94.8745 397.331C96.9461 398.437 99.3075 398.629 101.539 397.87L111.365 394.512V394.51Z" fill="#FFBE97"/>
<path d="M114.515 352.399L119.038 352.314C119.346 352.309 119.641 352.365 119.945 352.386C123.647 351.643 126.665 348.61 127.156 344.693C127.737 340.013 124.568 335.64 119.936 334.738L99.6387 330.782C99.0539 330.668 98.4674 330.612 97.8861 330.612C96.0066 330.612 94.1871 331.2 92.6265 332.332C90.5824 333.814 89.2859 336.009 88.9738 338.512L88.624 341.328C88.3119 343.834 89.0321 346.279 90.651 348.217C92.2681 350.153 94.5455 351.297 97.0664 351.437L114.514 352.401L114.515 352.399Z" fill="#FFBE97"/>
<path d="M128.606 397.338C127.488 394.826 124.993 393.305 122.374 393.305C122.023 393.305 121.668 393.341 121.314 393.398C121.081 393.497 120.869 393.627 120.625 393.71L112.15 396.606L104.86 399.271C103.068 399.926 101.672 401.253 100.93 403.009C100.185 404.766 100.203 406.691 100.979 408.432L101.881 410.461C102.657 412.201 104.076 413.505 105.879 414.125C107.686 414.744 109.602 414.597 111.286 413.704L125.579 406.122C128.728 404.453 130.057 400.595 128.606 397.342V397.338Z" fill="#FFBE97"/>
<path d="M124.474 391.331C127.204 388.726 128.484 384.77 127.456 380.918C126.676 377.996 124.704 375.7 122.205 374.352C127.369 372.934 130.933 368.014 130.452 362.571C130.085 358.393 127.372 354.945 123.757 353.324C126.741 351.618 128.919 348.596 129.372 344.969C130.099 339.127 126.143 333.67 120.364 332.543L100.066 328.587C96.9812 327.985 93.867 328.669 91.3152 330.52C88.7634 332.368 87.1446 335.109 86.757 338.235L86.4072 341.051C86.0179 344.177 86.9165 347.229 88.9367 349.647C90.5195 351.544 92.6185 352.803 94.9628 353.353C93.1656 353.962 91.5244 354.972 90.2125 356.433C88.1066 358.777 87.0983 361.796 87.3727 364.934L87.6213 367.76C87.8991 370.898 89.4168 373.695 91.9 375.635C92.8209 376.355 93.8327 376.899 94.8907 377.297C92.5122 378.056 90.4818 379.564 89.1304 381.719C87.5527 384.242 87.1052 387.215 87.8717 390.091L88.5577 392.664C89.3259 395.54 91.1934 397.894 93.8172 399.297C95.3863 400.135 97.0892 400.559 98.8058 400.559C99.1351 400.559 99.4626 400.508 99.7919 400.477C99.4301 400.993 99.1179 401.545 98.8693 402.132C97.8952 404.429 97.9192 407.055 98.9345 409.332L99.8365 411.361C100.853 413.642 102.79 415.415 105.151 416.23C106.103 416.559 107.097 416.72 108.09 416.72C109.556 416.72 111.019 416.367 112.333 415.669L126.626 408.087C130.807 405.868 132.575 400.744 130.648 396.423C129.466 393.77 127.129 391.962 124.473 391.326L124.474 391.331ZM90.6533 348.215C89.0344 346.278 88.3141 343.831 88.6263 341.327L88.9761 338.511C89.2882 336.007 90.5847 333.812 92.6288 332.33C94.1894 331.199 96.0089 330.61 97.8884 330.61C98.4697 330.61 99.0562 330.667 99.641 330.78L119.938 334.736C124.569 335.638 127.738 340.011 127.158 344.691C126.669 348.608 123.649 351.642 119.947 352.384C119.643 352.364 119.348 352.307 119.04 352.312L114.518 352.398L97.0704 351.434C94.5495 351.295 92.2721 350.152 90.655 348.214L90.6533 348.215ZM93.2787 373.875C91.2912 372.322 90.0736 370.08 89.8507 367.565L89.602 364.738C89.3808 362.224 90.1885 359.805 91.876 357.927C93.5634 356.049 95.8819 354.989 98.408 354.941L114.497 354.634L117.598 354.806C117.805 354.818 118.013 354.823 118.217 354.823C118.897 354.823 119.565 354.756 120.216 354.636C124.423 355.094 127.853 358.45 128.23 362.763C128.645 367.463 125.318 371.72 120.657 372.454L116.648 373.086C116.157 373.11 115.665 373.131 115.169 373.227L112.642 373.718L100.231 375.674C97.7323 376.072 95.2663 375.427 93.2805 373.874L93.2787 373.875ZM94.8736 397.33C92.8003 396.222 91.3255 394.361 90.7201 392.091L90.0342 389.519C89.4271 387.248 89.7804 384.9 91.0271 382.908C92.2755 380.915 94.2322 379.572 96.5388 379.123L113.005 375.923L117.129 375.273C117.147 375.273 117.165 375.268 117.184 375.268C120.909 375.268 124.305 377.775 125.296 381.495C126.361 385.485 124.306 389.613 120.602 391.275C120.161 391.364 119.721 391.456 119.285 391.614L111.364 394.509L101.538 397.867C99.3049 398.626 96.9435 398.434 94.8736 397.328V397.33ZM125.58 406.119L111.287 413.7C109.603 414.594 107.686 414.743 105.88 414.122C104.077 413.5 102.656 412.198 101.882 410.457L100.98 408.429C100.203 406.688 100.186 404.762 100.931 403.006C101.673 401.25 103.069 399.923 104.861 399.268L112.151 396.603L120.626 393.706C120.87 393.622 121.082 393.492 121.315 393.394C121.669 393.338 122.024 393.302 122.375 393.302C124.994 393.302 127.491 394.823 128.607 397.335C130.058 400.59 128.729 404.447 125.58 406.117V406.119Z" fill="#FFBE97"/>
<path d="M82.5263 366.759C77.1608 334.367 87.0825 331.643 94.6178 332.79L113.018 411.478C113.543 413.771 111.753 418.644 98.7148 415.204C85.6771 411.764 84.9242 381.235 82.5263 366.759Z" fill="#FFBE97"/>
<path d="M123.796 353.093L99.4603 353.949" stroke="#4F2B2B" stroke-width="1.5" stroke-linecap="round"/>
<path d="M121.779 374.49L102.398 377.77" stroke="#4F2B2B" stroke-width="1.5" stroke-linecap="round"/>
<path d="M123.796 391.429L106.684 395.73" stroke="#4F2B2B" stroke-width="1.5" stroke-linecap="round"/>
</g>
<defs>
<clipPath id="clip0_761_9434">
<rect width="460" height="460" fill="white"/>
</clipPath>
</defs>
</svg>
