<svg width="460" height="460" viewBox="0 0 460 460" fill="none" xmlns="http://www.w3.org/2000/svg">
<g clip-path="url(#clip0_761_10241)">
<rect width="460" height="460" fill="white"/>
<path d="M-162.953 150.132C-161.721 150.947 -160.147 150.851 -159.017 150.01L-106.279 208.686C-106.403 208.819 -106.519 208.962 -106.624 209.116C-107.676 210.693 -107.255 212.81 -105.683 213.849C-104.112 214.887 -101.984 214.449 -100.93 212.874C-100.762 212.622 -100.635 212.357 -100.54 212.083L-57.7314 222.163C-57.9169 223.429 -57.3864 224.74 -56.2507 225.488C-54.6795 226.527 -52.5512 226.089 -51.4976 224.514C-51.0336 223.816 -50.8568 223.013 -50.9382 222.244L-3.49879 212.328C-3.27684 213.06 -2.81055 213.72 -2.12355 214.176C-1.37709 214.667 -0.508914 214.823 0.31161 214.69L28.3761 325.046C27.7041 325.286 27.0985 325.737 26.6702 326.374C25.6167 327.949 26.0398 330.068 27.611 331.107C29.1822 332.146 31.3105 331.708 32.364 330.133C32.6694 329.673 32.8466 329.169 32.9115 328.659L171.104 332.288C170.296 333.821 170.76 335.739 172.23 336.71C173.801 337.749 175.93 337.311 176.983 335.736C177.08 335.592 177.158 335.444 177.229 335.291L225.01 352.246C224.651 353.618 225.171 355.117 226.416 355.939C227.042 356.353 227.757 356.528 228.458 356.494L236.913 419.997L236.093 419.722L236.997 420.61L237.048 420.993L237.254 420.86L314.611 496.85C314.541 496.938 314.472 497.028 314.408 497.123C313.354 498.698 313.777 500.817 315.348 501.856C316.92 502.894 319.048 502.456 320.101 500.882C321.155 499.307 320.732 497.188 319.161 496.149C318.577 495.763 317.913 495.583 317.258 495.588L312.781 446.972C312.839 446.9 312.896 446.826 312.949 446.747C313.212 446.355 313.38 445.926 313.466 445.49L396.199 453.027C396.194 454.136 396.725 455.22 397.718 455.876C399.289 456.915 401.418 456.477 402.471 454.902C403.525 453.327 403.102 451.208 401.531 450.17C400.91 449.759 400.198 449.582 399.504 449.614L392.162 392.648C392.988 392.457 393.751 391.965 394.261 391.201C394.945 390.177 395.003 388.927 394.534 387.892L430.217 367.373C430.453 367.71 430.753 368.011 431.118 368.251C432.689 369.289 434.818 368.851 435.871 367.276C436.925 365.701 436.502 363.582 434.93 362.544C433.975 361.915 432.817 361.831 431.818 362.212L411.924 321.537C412.339 321.285 412.707 320.943 412.996 320.51C413.942 319.095 413.697 317.247 412.5 316.13L442.773 280.586C444.343 281.595 446.447 281.155 447.492 279.59C448.545 278.016 448.122 275.896 446.551 274.858C446.277 274.677 445.986 274.543 445.685 274.45L452.239 240.189C453.452 240.296 454.69 239.752 455.415 238.665C455.604 238.383 455.742 238.082 455.836 237.774L507.781 248.362C507.637 249.595 508.17 250.858 509.275 251.585C510.846 252.624 512.975 252.186 514.028 250.611C515.082 249.036 514.659 246.917 513.087 245.879C512.972 245.802 512.854 245.739 512.734 245.677L541.634 172.872C543.032 173.271 544.593 172.742 545.446 171.466C546.499 169.891 546.076 167.772 544.505 166.733C542.934 165.695 540.805 166.133 539.752 167.708C539.451 168.157 539.275 168.652 539.207 169.153L424.686 165.119C424.583 164.147 424.065 163.231 423.187 162.651C421.616 161.612 419.487 162.051 418.434 163.625C417.38 165.2 417.803 167.319 419.375 168.358C419.531 168.46 419.695 168.545 419.86 168.621L408.7 207.339C407.37 207.065 405.937 207.6 405.134 208.803C404.873 209.193 404.703 209.62 404.619 210.051L309.516 204.144C309.492 203.07 308.961 202.029 308 201.393C306.429 200.354 304.3 200.792 303.247 202.367C302.193 203.942 302.616 206.061 304.188 207.099C304.548 207.338 304.94 207.494 305.337 207.581L299.633 251.227C298.486 251.192 297.343 251.732 296.658 252.761L296.814 252.486L199.369 197.931C200.048 196.43 199.568 194.627 198.157 193.695C197.429 193.214 196.582 193.055 195.778 193.173L185.049 147.747C185.743 147.511 186.37 147.056 186.806 146.397C187.858 144.82 187.437 142.704 185.866 141.665C184.294 140.626 182.166 141.064 181.112 142.639C180.702 143.253 180.517 143.951 180.539 144.634L110.236 153.533C110.056 152.696 109.566 151.929 108.795 151.42C107.224 150.382 105.096 150.82 104.042 152.395C103.604 153.051 103.423 153.799 103.476 154.527L60.6705 161.701C60.4695 160.917 59.9899 160.204 59.262 159.723C57.6908 158.684 55.5626 159.123 54.509 160.697C54.3973 160.864 54.3067 161.039 54.2276 161.213L-21.5477 137.871C-21.2902 136.558 -21.8222 135.168 -23.0042 134.387C-23.8946 133.801 -24.963 133.685 -25.9155 133.983L-47.5611 84.2171C-47.0695 83.9573 -46.6328 83.5747 -46.3009 83.0812C-45.2473 81.5064 -45.6704 79.3873 -47.2416 78.3486C-48.8154 77.3117 -50.9411 77.748 -51.9947 79.3228C-52.0015 79.3353 -52.0082 79.3477 -52.0168 79.3575L-90.8272 63.7593L-111.342 55.5142C-111.066 54.1884 -111.592 52.7746 -112.788 51.984C-114.359 50.9453 -116.488 51.3834 -117.541 52.9582C-118.359 54.1838 -118.285 55.733 -117.475 56.8515L-150.52 92.9807C-150.558 92.9537 -150.596 92.9223 -150.638 92.8946C-152.209 91.8559 -154.338 92.294 -155.391 93.8688C-156.445 95.4436 -156.022 97.5627 -154.451 98.6014C-154.077 98.8469 -153.673 99.0094 -153.259 99.092L-160.795 143.871C-161.984 143.793 -163.185 144.334 -163.894 145.399C-164.948 146.974 -164.525 149.093 -162.953 150.132ZM-114.716 58.2531C-113.604 58.2498 -112.513 57.7124 -111.847 56.7166C-111.719 56.5233 -111.615 56.3237 -111.529 56.1211L-88.2674 65.469L-52.3132 79.9183C-52.4416 80.2271 -52.5197 80.5468 -52.553 80.8696L-116.261 89.9546L-114.714 58.2557L-114.716 58.2531ZM108.378 157.338L125.083 184.866L87.372 210.953C87.1664 210.709 86.9252 210.487 86.6453 210.302C86.5137 210.214 86.3746 210.143 86.2346 210.075L105.987 157.576C106.79 157.789 107.641 157.7 108.378 157.338ZM181.331 146.722C181.537 146.965 181.778 147.188 182.058 147.372C182.222 147.48 182.388 147.567 182.56 147.642L154.85 228.654C154.077 228.473 153.265 228.569 152.559 228.915L125.933 185.04L181.329 146.719L181.331 146.722ZM385.564 392.94L376.185 353.77L389.814 386.316C389.33 386.575 388.9 386.956 388.569 387.445C387.832 388.549 387.821 389.916 388.416 390.993L385.564 392.94ZM396.779 451.146C396.517 451.541 396.347 451.967 396.262 452.403L313.529 444.862C313.532 444.28 313.386 443.706 313.104 443.197L385.158 393.981L398.526 449.804C397.837 450.041 397.214 450.496 396.777 451.148L396.779 451.146ZM32.3586 326.316C32.1393 325.997 31.8636 325.714 31.5344 325.476L60.4217 276.741C61.9304 277.447 63.7796 276.959 64.7376 275.524L94.845 291.575L32.3586 326.316ZM-150.641 98.5797C-150.581 98.5378 -150.519 98.4942 -150.463 98.4472L-121.307 137.836C-121.521 138.028 -121.714 138.244 -121.881 138.492C-122.319 139.144 -122.497 139.89 -122.451 140.614L-132.306 142.235L-150.641 98.5797ZM-64.9398 193.618L-54.3762 203.927C-54.4457 204.011 -54.5116 204.099 -54.5739 204.192C-54.9628 204.776 -55.1495 205.433 -55.1529 206.08L-66.14 207.119L-115.798 143.974L-64.9398 193.618ZM-53.9338 203.475L-90.8714 167.42L-116.385 142.515C-116.316 142.432 -116.25 142.344 -116.188 142.25C-115.84 141.73 -115.656 141.152 -115.619 140.569L-50.7964 138.372L-51.9812 202.665C-52.6908 202.724 -53.3761 203 -53.9331 203.471L-53.9338 203.475ZM-122.352 141.236C-122.152 142.025 -121.673 142.742 -120.941 143.224C-120.233 143.693 -119.412 143.859 -118.627 143.758L-104.805 207.723L-132.055 142.831L-122.349 141.235L-122.352 141.236ZM-101.869 208.144C-102.577 207.676 -103.398 207.51 -104.183 207.61L-118.01 143.622C-117.723 143.529 -117.446 143.4 -117.189 143.236L-66.895 207.19L-100.409 210.363C-100.57 209.485 -101.069 208.674 -101.872 208.146L-101.869 208.144ZM-100.35 210.989L-66.4292 207.778L-56.6877 220.165C-56.8712 220.339 -57.0429 220.536 -57.1888 220.754C-57.3569 221.006 -57.4843 221.272 -57.5791 221.545L-100.388 211.465C-100.364 211.306 -100.348 211.146 -100.349 210.985L-100.35 210.989ZM-54.1241 219.226C-54.8479 219.187 -55.5735 219.373 -56.188 219.772L-65.6768 207.708L-55.0979 206.706C-54.9363 207.584 -54.4382 208.394 -53.6349 208.922C-53.3025 209.143 -52.9416 209.293 -52.5722 209.384L-54.1241 219.226ZM-48.4389 205.092L-8.00594 188.896L-1.58576 208.204C-2.16526 208.46 -2.68289 208.877 -3.06428 209.443C-3.31934 209.825 -3.48514 210.241 -3.57271 210.663L-48.3038 206.103C-48.2989 205.762 -48.344 205.421 -48.4389 205.092ZM54.8064 164.871C54.9938 165.077 55.2089 165.268 55.4542 165.431C55.9349 165.747 56.4631 165.926 56.9984 165.978L58.9674 212.284L3.20316 211.08C3.16321 210.459 2.95605 209.859 2.59521 209.343L54.809 164.869L54.8064 164.871ZM300.811 257.79L316.294 290.59C315.832 290.848 315.419 291.214 315.107 291.686C314.954 291.916 314.836 292.156 314.743 292.405L301.699 290.522L300.214 257.978C300.419 257.934 300.619 257.871 300.815 257.791L300.811 257.79ZM449.487 235.335C449.011 236.325 449.049 237.458 449.535 238.389L430.394 250.855L410.001 213.421C410.315 213.189 410.599 212.903 410.828 212.562L449.484 235.337L449.487 235.335ZM409.461 213.749L429.864 251.203L370.314 289.982C370.095 289.709 369.833 289.462 369.525 289.259C369.49 289.238 369.453 289.218 369.418 289.196L406.802 213.894C407.681 214.209 408.638 214.145 409.458 213.751L409.461 213.749ZM63.8012 270.792C63.6696 270.704 63.5349 270.633 63.395 270.566L83.833 216.453C84.7723 216.706 85.78 216.542 86.5948 216.013L112.956 249.426L64.8581 271.914C64.6032 271.478 64.2509 271.091 63.8012 270.792ZM87.0926 215.619C87.2762 215.444 87.4427 215.251 87.5912 215.031C87.7431 214.806 87.8587 214.568 87.9506 214.323L150.816 230.899C150.715 231.196 150.656 231.499 150.639 231.802L113.549 249.145L87.0952 215.617L87.0926 215.619ZM150.666 232.486C150.73 232.921 150.874 233.343 151.098 233.723L133.968 265.613L132.31 268.702C131.276 268.27 130.108 268.381 129.173 268.959L113.942 249.657L150.661 232.49L150.666 232.486ZM132.876 269.001C132.876 269.001 132.874 268.998 132.872 268.995L134.523 265.919L151.517 234.283C151.701 234.484 151.912 234.67 152.151 234.829C152.547 235.09 152.977 235.257 153.414 235.339L159.411 264.282L134.191 270.664C133.951 270.006 133.509 269.413 132.878 268.999L132.876 269.001ZM65.1226 272.486L113.357 249.932L128.67 269.342C128.467 269.526 128.281 269.737 128.122 269.975C127.792 270.471 127.607 271.019 127.557 271.573L65.2993 273.241C65.2707 272.985 65.2098 272.732 65.1226 272.486ZM172.471 330.889L133.215 274.412C133.439 274.217 133.643 273.989 133.816 273.733C134.32 272.977 134.483 272.099 134.347 271.273L159.535 264.902L173.148 330.596C172.912 330.668 172.688 330.768 172.473 330.892L172.471 330.889ZM160.149 264.745L189.457 257.329C189.706 257.934 190.132 258.47 190.72 258.856C190.949 259.007 191.191 259.126 191.438 259.213L181.225 302.48L174.619 330.468C174.333 330.43 174.048 330.427 173.767 330.462L160.149 264.745ZM309.027 441.632L296.7 412.87L289.082 395.091C289.558 394.831 289.979 394.459 290.302 393.976C290.936 393.029 291.031 391.887 290.669 390.9L305.988 383.537L309.527 441.501C309.356 441.532 309.189 441.576 309.025 441.63L309.027 441.632ZM274.141 289.739L301.626 336.649C301.3 336.885 301.002 337.179 300.767 337.535C300.359 338.147 300.175 338.84 300.193 339.523L280.919 343.073L273.489 289.969C273.714 289.915 273.935 289.838 274.145 289.74L274.141 289.739ZM300.263 340.149C300.444 340.987 300.933 341.758 301.708 342.267C301.903 342.396 302.104 342.501 302.313 342.585L288.155 388.748C287.872 388.692 287.585 388.674 287.301 388.689L281.006 343.696L300.266 340.147L300.263 340.149ZM290.399 390.333C290.146 389.911 289.801 389.534 289.361 389.243C289.169 389.117 288.966 389.009 288.761 388.927L293.824 372.44L302.938 342.769C303.127 342.806 303.316 342.823 303.506 342.828L305.949 382.862L290.399 390.337L290.399 390.333ZM304.136 342.783C305.05 342.634 305.905 342.124 306.461 341.293C306.685 340.956 306.839 340.595 306.933 340.225L371.552 349.841C371.523 350.314 371.593 350.783 371.756 351.226L306.566 382.561L304.139 342.781L304.136 342.783ZM372.12 348.153C371.895 348.49 371.742 348.851 371.648 349.22L307.029 339.605C307.074 338.917 306.905 338.229 306.549 337.637L338.308 314.167L372.332 347.87C372.256 347.961 372.187 348.055 372.122 348.155L372.12 348.153ZM306.175 337.131C305.984 336.919 305.767 336.725 305.52 336.561C305.446 336.509 305.367 336.468 305.29 336.426L317.092 296.87C318.153 297.137 319.293 296.88 320.142 296.174L337.855 313.72L306.175 337.131ZM316.05 296.417C316.194 296.512 316.346 296.59 316.496 296.661L304.707 336.174C304.401 336.073 304.088 336.019 303.773 336.006L301.726 291.164L314.576 293.018C314.357 294.304 314.89 295.655 316.046 296.416L316.05 296.417ZM303.143 336.04C302.868 336.079 302.597 336.15 302.337 336.255L274.697 289.411C275.021 289.177 275.312 288.885 275.548 288.531C275.775 288.192 275.929 287.826 276.022 287.45L301.09 291.068L303.141 336.038L303.143 336.04ZM195.47 257.884C195.499 257.841 195.522 257.798 195.549 257.752L239.265 274.32L269.402 285.742C269.204 286.442 269.239 287.178 269.481 287.845L214.295 314.275L193.883 259.172C194.509 258.922 195.069 258.488 195.47 257.884ZM271.065 289.67C271.63 289.973 272.247 290.098 272.855 290.064L280.289 343.191L231.633 352.155C231.449 351.489 231.062 350.876 230.492 350.416L271.065 289.67ZM231.745 352.775L280.378 343.816L286.671 388.784C285.952 388.958 285.288 389.358 284.797 389.966L231.343 354.689C231.672 354.086 231.802 353.419 231.745 352.775ZM285.548 394.954C286.453 395.55 287.539 395.657 288.501 395.345L294.054 408.306L308.445 441.89C308.323 441.96 308.203 442.036 308.088 442.121L270.317 399.729L284.301 390.79C283.669 392.276 284.158 394.035 285.548 394.954ZM311.714 441.832C311.22 441.575 310.689 441.452 310.159 441.446L306.605 383.24L372.023 351.796C372.218 352.124 372.468 352.421 372.774 352.675L311.714 441.832ZM372.778 347.423L338.819 313.786L365.058 294.396C365.249 294.608 365.466 294.801 365.713 294.966C366.333 295.377 367.041 295.553 367.732 295.522L374.223 346.706C373.7 346.827 373.203 347.068 372.778 347.423ZM364.684 293.89L338.369 313.337L320.591 295.726C320.666 295.635 320.736 295.54 320.801 295.44C321.146 294.926 321.329 294.353 321.37 293.775L364.218 292.522C364.272 293.003 364.431 293.468 364.685 293.885L364.684 293.89ZM299.581 258.052L301.06 290.428L276.117 286.828C276.171 285.883 275.835 284.944 275.152 284.25L297.781 257.6C298.345 257.923 298.967 258.071 299.578 258.054L299.581 258.052ZM297.266 257.234L274.669 283.848C274.647 283.833 274.627 283.816 274.605 283.8C273.034 282.762 270.905 283.2 269.852 284.775C269.771 284.897 269.698 285.025 269.633 285.154L202.222 259.604L195.826 257.182C195.909 256.962 195.968 256.737 196.004 256.512L296.122 255.163C296.241 255.952 296.629 256.694 297.266 257.239L297.266 257.234ZM189.271 256.726L160.021 264.124L154.065 235.39C155.112 235.375 156.133 234.882 156.799 233.986L189.462 254.71C189.19 255.362 189.135 256.061 189.272 256.722L189.271 256.726ZM82.8338 216.005C82.9653 216.093 83.1 216.164 83.2399 216.231L62.802 270.343C62.5594 270.279 62.3121 270.241 62.0663 270.233L59.6299 212.926L81.3263 213.393C81.3933 214.418 81.9157 215.396 82.8381 216.006L82.8338 216.005ZM2.63288 213.195C2.94342 212.732 3.11967 212.221 3.18349 211.704L58.9933 212.907L61.4324 270.262C60.8129 270.35 60.2176 270.606 59.7217 271.014L2.4061 213.496C2.48676 213.401 2.56383 213.301 2.63288 213.195ZM65.0409 274.962C65.1912 274.607 65.2807 274.237 65.3069 273.866L127.553 272.197C127.587 272.554 127.68 272.903 127.824 273.236L95.504 291.206L65.0383 274.964L65.0409 274.962ZM128.131 273.786C128.371 274.14 128.683 274.452 129.061 274.705C130.191 275.45 131.603 275.433 132.701 274.783L171.95 331.25C171.784 331.39 171.629 331.544 171.488 331.719L96.168 291.562L128.132 273.793L128.131 273.786ZM176.05 330.998C175.791 330.826 175.516 330.7 175.236 330.608L192.05 259.373C192.46 259.439 192.876 259.432 193.277 259.351L213.724 314.549L177.092 332.093C176.84 331.666 176.492 331.292 176.05 330.998ZM214.516 314.866L269.751 288.413C269.953 288.751 270.213 289.061 270.538 289.321L229.965 350.067C229.173 349.642 228.274 349.565 227.448 349.79L214.513 314.868L214.516 314.866ZM230.99 355.213L284.026 390.214L269.891 399.247L230.823 355.399C230.881 355.339 230.935 355.278 230.99 355.213ZM307.615 442.54C307.486 442.677 307.367 442.822 307.258 442.982C307.15 443.142 307.063 443.311 306.984 443.481L238.029 420.364L269.775 400.07L307.613 442.538L307.615 442.54ZM312.754 442.67C312.635 442.528 312.5 442.391 312.355 442.266L312.335 442.039L373.297 353.023C373.971 353.396 374.726 353.512 375.449 353.405L385.008 393.318L312.758 442.671L312.754 442.67ZM429.91 366.823L394.227 387.343C393.99 387.005 393.691 386.705 393.325 386.465C393.092 386.309 392.845 386.194 392.592 386.103L400.247 357.046L429.653 364.826C429.533 365.505 429.625 366.201 429.908 366.821L429.91 366.823ZM391.98 385.948C391.448 385.863 390.905 385.906 390.399 386.068L376.568 353.04C377.053 352.782 377.482 352.4 377.814 351.911C377.965 351.686 378.081 351.447 378.172 351.207L399.638 356.885L391.98 385.948ZM378.339 350.599C378.5 349.679 378.278 348.732 377.719 347.984L407.71 321.043C407.869 321.204 408.051 321.353 408.248 321.485C408.45 321.619 408.665 321.726 408.883 321.812L399.802 356.279L378.34 350.601L378.339 350.599ZM407.31 320.555L381.363 343.866L406.997 317.326C406.544 318.4 406.676 319.617 407.31 320.555ZM377.115 347.358C377.037 347.297 376.957 347.238 376.875 347.181C376.254 346.771 375.546 346.594 374.855 346.625L368.364 295.441C369.195 295.251 369.96 294.757 370.47 293.993C370.92 293.32 371.099 292.547 371.034 291.801L441.383 278.761C441.531 279.233 441.787 279.676 442.135 280.05L377.114 347.363L377.115 347.358ZM370.921 291.181C370.856 290.95 370.772 290.725 370.659 290.508L430.166 251.756L442.763 274.876C442.393 275.123 442.066 275.441 441.804 275.835C441.329 276.544 441.159 277.363 441.252 278.142L370.923 291.179L370.921 291.181ZM443.32 274.578L430.7 251.413L449.884 238.921C450.102 239.194 450.364 239.441 450.672 239.643C450.974 239.843 451.296 239.986 451.628 240.08L445.075 274.325C444.477 274.256 443.873 274.345 443.322 274.581L443.32 274.578ZM454.483 233.934C452.95 232.922 450.894 233.314 449.816 234.794L411.318 212.111L507.226 247.602L455.982 237.158C456.125 235.925 455.593 234.662 454.487 233.935L454.483 233.934ZM508.345 246.857C508.258 246.987 508.183 247.124 508.118 247.262L411.321 211.441C411.439 210.94 411.441 210.424 411.332 209.931L454.606 196.742L508.491 246.667C508.443 246.731 508.393 246.793 508.347 246.86L508.345 246.857ZM406.08 213.537C406.13 213.57 406.184 213.598 406.236 213.627L368.856 288.918C367.89 288.55 366.816 288.653 365.936 289.154L349.191 265.24L405.688 213.231C405.811 213.341 405.937 213.444 406.08 213.537ZM365.416 289.518C365.175 289.721 364.958 289.958 364.774 290.236C364.429 290.75 364.246 291.324 364.205 291.901L321.357 293.154C321.288 292.553 321.057 291.974 320.685 291.486L348.719 265.677L365.415 289.522L365.416 289.518ZM320.254 291.02C320.13 290.91 320.002 290.804 319.86 290.712C319.233 290.298 318.518 290.123 317.82 290.155L306.855 207.57C307.178 207.494 307.488 207.373 307.781 207.206L348.354 265.15L320.252 291.017L320.254 291.02ZM306.229 207.659L317.192 290.241C317.086 290.266 316.978 290.295 316.874 290.334L301.37 257.494C301.751 257.247 302.086 256.92 302.354 256.522C303.405 254.944 302.984 252.828 301.413 251.789C301.052 251.55 300.66 251.394 300.263 251.308L305.969 207.664C306.057 207.668 306.144 207.665 306.231 207.662L306.229 207.659ZM296.088 254.534L196.045 255.884C196.015 254.819 195.484 253.785 194.527 253.153C194.097 252.871 193.624 252.699 193.142 252.629L196.358 199.962C197.403 199.922 198.415 199.405 199.056 198.484L296.495 253.036C296.236 253.513 296.103 254.025 296.085 254.536L296.088 254.534ZM194.349 199.403C194.779 199.686 195.252 199.858 195.731 199.929L192.586 251.437L188.839 203.188L193.837 198.993C193.989 199.144 194.161 199.285 194.348 199.407L194.349 199.403ZM192.043 252.646C191.149 252.807 190.318 253.312 189.774 254.127C189.768 254.135 189.764 254.146 189.755 254.156L157.125 233.451C157.675 232.324 157.556 231.014 156.868 230.021L188.241 203.684L192.041 252.644L192.043 252.646ZM156.465 229.539C156.313 229.389 156.141 229.248 155.954 229.125C155.791 229.02 155.624 228.93 155.451 228.855L183.162 147.843C183.41 147.9 183.661 147.932 183.915 147.935L188.182 202.914L156.465 229.539ZM152.02 229.246C151.708 229.475 151.43 229.758 151.201 230.099C151.154 230.171 151.113 230.245 151.071 230.317L88.1119 213.718C88.2471 212.944 88.1091 212.15 87.7302 211.47L125.413 185.403L152.02 229.246ZM82.8401 210.325C82.4762 210.568 82.1507 210.888 81.8922 211.277C81.5817 211.74 81.4054 212.251 81.3416 212.768L59.6021 212.3L57.6311 165.98C57.9631 165.951 58.2881 165.873 58.5981 165.752L82.8393 210.329L82.8401 210.325ZM54.4282 164.364L2.18243 208.864C2.03399 208.719 1.86995 208.584 1.69135 208.467C0.872001 207.927 -0.0949586 207.79 -0.984174 208.002L-7.4164 188.66L54.2205 163.968C54.282 164.105 54.3512 164.237 54.43 164.366L54.4282 164.364ZM-8.20608 188.295L-48.6712 204.506C-48.9293 203.999 -49.3134 203.55 -49.8226 203.216C-49.9443 203.136 -50.0685 203.069 -50.1952 203.004L-30.7393 153.101L-25.8403 140.531C-25.2608 140.69 -24.6545 140.688 -24.086 140.543L-8.20789 188.292L-8.20608 188.295ZM-26.8165 140.094C-26.693 140.176 -26.5626 140.246 -26.4289 140.31L-50.783 202.778C-50.9709 202.726 -51.1576 202.691 -51.3493 202.672L-50.1642 138.352L-28.3179 137.612C-28.2176 138.59 -27.6989 139.514 -26.8165 140.094ZM-50.7848 137.742L-115.637 139.941C-115.705 139.385 -115.908 138.851 -116.237 138.387L-51.8877 83.2683C-51.6626 83.5677 -51.3863 83.8351 -51.0557 84.0529C-50.6665 84.3102 -50.2404 84.4765 -49.808 84.5577L-50.7892 137.741L-50.7848 137.742ZM-52.5593 81.5076C-52.5222 81.9309 -52.4089 82.347 -52.2191 82.7286L-116.643 137.911C-116.79 137.768 -116.952 137.636 -117.129 137.522C-117.573 137.23 -118.058 137.058 -118.554 136.991L-116.291 90.5976L-52.5574 81.5102L-52.5593 81.5076ZM-119.186 136.961C-119.754 136.991 -120.306 137.158 -120.798 137.457L-149.996 98.0131C-149.888 97.8912 -149.786 97.766 -149.693 97.6279C-149.211 96.9065 -149.04 96.0725 -149.147 95.2792L-116.93 90.6846L-119.186 136.961ZM-151.204 98.8816L-132.953 142.339L-157.73 146.413C-157.93 145.624 -158.409 144.907 -159.141 144.425C-159.466 144.211 -159.813 144.062 -160.171 143.971L-152.63 99.1619C-152.141 99.169 -151.656 99.0756 -151.204 98.8816ZM-158.546 149.588C-158.422 149.455 -158.305 149.312 -158.2 149.158C-157.763 148.506 -157.585 147.759 -157.631 147.035L-132.703 142.935L-105.384 207.99C-105.53 208.069 -105.674 208.163 -105.808 208.264L-158.546 149.588ZM-51.0624 221.625C-51.2843 220.893 -51.7506 220.233 -52.4376 219.777C-52.77 219.556 -53.1309 219.406 -53.5003 219.315L-51.9484 209.473C-50.7713 209.54 -49.5866 208.998 -48.8837 207.946C-48.6286 207.564 -48.4628 207.148 -48.3752 206.726L-3.64419 211.285C-3.64678 211.426 -3.64055 211.567 -3.62734 211.708L-51.0668 221.624L-51.0624 221.625ZM0.924468 214.526C1.29312 214.395 1.64127 214.201 1.95313 213.944L59.2687 271.462C59.188 271.557 59.111 271.657 59.0419 271.763C58.0131 273.301 58.3955 275.357 59.8785 276.419L30.9912 325.154C30.3529 324.856 29.6581 324.77 28.9915 324.88L0.927068 214.524L0.924468 214.526ZM32.9379 328.022C32.9145 327.624 32.8201 327.229 32.6595 326.862L95.5036 291.924L169.96 331.622L32.9353 328.024L32.9379 328.022ZM177.451 334.69C177.63 334.012 177.59 333.303 177.357 332.66L213.937 315.141L226.853 350.011C226.315 350.272 225.835 350.67 225.48 351.203C225.384 351.347 225.305 351.494 225.234 351.647L177.453 334.693L177.451 334.69ZM229.089 356.401C229.538 356.295 229.965 356.099 230.344 355.822L269.345 399.595L237.546 419.922L229.087 356.403L229.089 356.401ZM316.628 495.645C316.059 495.756 315.514 496.011 315.059 496.395L238.503 421.191L306.779 444.078C306.45 445.433 306.973 446.903 308.199 447.715C309.458 448.545 311.068 448.428 312.203 447.545L316.633 495.646L316.628 495.645ZM398.553 447.189L385.719 393.592L388.768 391.511C388.974 391.762 389.222 391.988 389.508 392.175C390.128 392.586 390.841 392.763 391.536 392.733L398.555 447.192L398.553 447.189ZM431.248 362.488C430.833 362.74 430.462 363.084 430.175 363.515C430.024 363.741 429.911 363.977 429.817 364.22L400.405 356.437L409.483 321.983C410.113 322.103 410.76 322.037 411.354 321.813L431.248 362.488ZM412.001 315.743C410.984 315.099 409.748 315.058 408.72 315.536L437.96 285.267L412.003 315.741L412.001 315.743ZM512.149 245.445C511.022 245.124 509.796 245.407 508.911 246.195L455.297 196.523L539.417 170.884C539.665 171.497 540.094 172.045 540.688 172.439C540.804 172.516 540.923 172.582 541.042 172.641L512.146 245.447L512.149 245.445ZM539.18 169.782C539.188 169.949 539.206 170.118 539.239 170.282L454.767 196.026L424.015 167.532C424.053 167.482 424.092 167.432 424.128 167.379C424.467 166.873 424.65 166.311 424.696 165.746L539.18 169.782ZM420.455 168.823C421.558 169.087 422.737 168.787 423.587 168.004L454.061 196.24L411.131 209.323C410.88 208.732 410.46 208.204 409.884 207.824C409.697 207.701 409.502 207.6 409.301 207.517L420.455 168.823ZM404.553 210.677C404.547 211.426 404.789 212.163 405.252 212.764L348.819 264.713L308.294 206.839C308.535 206.636 308.753 206.399 308.937 206.12C309.218 205.697 309.391 205.237 309.469 204.768L404.552 210.674L404.553 210.677ZM193.402 194.667C192.599 195.87 192.656 197.389 193.429 198.504L188.775 202.411L184.595 148.575L195.161 193.32C194.467 193.557 193.84 194.011 193.401 194.672L193.402 194.667ZM180.615 145.257C180.687 145.586 180.806 145.906 180.973 146.2L125.606 184.501L108.92 157.005C109.231 156.775 109.512 156.49 109.739 156.151C110.149 155.537 110.334 154.84 110.312 154.156L180.615 145.257ZM103.575 155.149C103.776 155.934 104.255 156.646 104.983 157.127C105.115 157.215 105.254 157.287 105.394 157.354L85.6416 209.853C84.8902 209.654 84.1 209.719 83.3941 210.022L59.1612 165.462C59.5626 165.211 59.923 164.874 60.201 164.453C60.6395 163.797 60.82 163.048 60.7675 162.321L103.573 155.146L103.575 155.149ZM54.024 161.813C53.9014 162.329 53.9028 162.861 54.0204 163.367L-7.61655 188.059L-23.4854 140.334C-22.9261 140.077 -22.4259 139.669 -22.0608 139.118C-21.9235 138.91 -21.8127 138.698 -21.7248 138.475L54.0292 161.809L54.024 161.813ZM-26.5014 134.224C-26.9931 134.484 -27.4298 134.867 -27.7617 135.36C-28.0978 135.864 -28.2819 136.42 -28.3265 136.981L-50.1543 137.719L-49.1734 84.6126C-48.826 84.6112 -48.4786 84.56 -48.1489 84.4558L-26.5014 134.224ZM-117.057 57.3268C-116.917 57.4596 -116.767 57.5806 -116.6 57.6908C-116.209 57.9508 -115.783 58.117 -115.346 58.199L-116.899 90.0443L-149.287 94.6635C-149.439 94.1978 -149.694 93.7618 -150.043 93.3958L-117.055 57.3294L-117.057 57.3268Z" fill="#B06D6D"/>
<path d="M440.748 81H229.252C224.695 81 221 84.4232 221 88.646V233.07C221 237.293 224.695 240.716 229.252 240.716H440.748C445.305 240.716 449 237.293 449 233.07V88.646C449 84.4232 445.305 81 440.748 81Z" fill="#DF8711"/>
<path d="M432.159 92.573H237.841C233.653 92.573 230.259 95.5249 230.259 99.1662V223.706C230.259 227.347 233.653 230.299 237.841 230.299H432.159C436.346 230.299 439.741 227.347 439.741 223.706V99.1662C439.741 95.5249 436.346 92.573 432.159 92.573Z" fill="#FBE4C6"/>
<ellipse cx="335.935" cy="166.94" rx="42.6983" ry="65.0661" transform="rotate(-67.0739 335.935 166.94)" fill="#BF8888"/>
<path d="M351.437 116.992L351.335 144.28L324.86 143.817L324.963 116.53L351.437 116.992Z" fill="#D4A99A"/>
<path d="M324.962 116.53L324.859 143.817L320.778 146.007L320.881 118.719L324.962 116.53Z" fill="#91766D"/>
<path d="M347.253 146.47L320.778 146.008L324.859 143.818L351.333 144.281L347.253 146.47Z" fill="#6A554D"/>
<path d="M354.225 216.174L351.373 213.787L352.701 213.793L355.553 216.18L354.225 216.174Z" fill="#00302D"/>
<path d="M341.336 221.423L338.484 219.036L338.476 217.584L341.328 219.971L341.336 221.423Z" fill="#002926"/>
<path d="M340.001 219.964L337.149 217.577L337.127 213.729L339.979 216.117L340.001 219.964Z" fill="#002926"/>
<path d="M339.979 216.117L337.127 213.729L338.455 213.735L341.307 216.122L339.979 216.117Z" fill="#00302D"/>
<path d="M341.307 216.122L338.455 213.735L338.331 194.708L341.183 197.095L341.307 216.122Z" fill="#002926"/>
<path d="M341.183 197.096L338.331 194.709L351.259 193.986L354.111 196.373L341.183 197.096Z" fill="#00302D"/>
<path d="M354.111 196.374L354.225 216.176L355.553 216.182L355.575 220.03L354.247 220.024L354.255 221.477L341.338 221.424L341.33 219.972L340.002 219.966L339.979 216.119L341.308 216.124L341.184 197.098L354.111 196.374Z" fill="#004742"/>
<path d="M341.199 197.673L338.34 196.239L337.075 180.174L339.934 181.608L341.199 197.673Z" fill="#002926"/>
<path d="M339.934 181.609L337.075 180.176L349.242 179.214L352.101 180.648L339.934 181.609Z" fill="#002E2B"/>
<path d="M352.102 180.648L354.151 196.652L341.201 197.674L339.936 181.61L352.102 180.648Z" fill="#004743"/>
<path d="M355.631 216.245L354.236 215.011L354.32 216.237L355.631 216.245Z" fill="#DDDBDB"/>
<path d="M341.375 219.941L338.436 218.646L338.442 219.028L341.35 221.486L341.375 219.941Z" fill="#706F6F"/>
<path d="M340.037 216.15L337.077 213.683L337.06 217.537L339.984 220.056L340.037 216.15Z" fill="#898888"/>
<path d="M341.349 216.158L338.434 213.683H337.078L340.037 216.15L341.349 216.158Z" fill="#A3A2A2"/>
<path d="M354.278 220.053L354.305 221.501L341.347 221.488L341.373 219.996L354.278 220.053Z" fill="#B5B5B5"/>
<path d="M355.656 216.244L355.63 220.107L339.992 220.028L340.027 216.148L355.656 216.244Z" fill="#DDDBDB"/>
<path d="M361.921 164.878L366.651 162.015L369.553 178.998L364.823 181.86L361.921 164.878Z" fill="#00443F"/>
<path d="M353.108 145.489L357.839 142.626L366.649 162.013L361.919 164.876L353.108 145.489Z" fill="#004742"/>
<path d="M343.237 149.561L347.967 146.699L357.838 142.626L353.108 145.489L343.237 149.561Z" fill="#002926"/>
<path d="M353.108 145.489L361.919 164.877L364.821 181.86L354.167 183.377L351.548 167.85L343.237 149.562L353.108 145.489Z" fill="#003835"/>
<path d="M353.172 183.228L354.182 182.409L354.281 183.101L353.172 183.228Z" fill="#033D37"/>
<path d="M365.487 184.362L369.65 181.715L369.963 184.006L366.292 189.179L365.487 184.362Z" fill="#AA8277"/>
<path d="M366.097 181.598L370.385 178.141L370.703 181.08L366.591 184.475L366.097 181.598Z" fill="#01332D"/>
<path d="M365.512 184.348L366.298 189.184L355.362 190.335L354.611 185.529L365.512 184.348Z" fill="#D4A99A"/>
<path d="M365.047 181.738L369.254 178.328L370.361 178.191L366.158 181.598L365.047 181.738Z" fill="#033D37"/>
<path d="M365.041 181.73L366.129 181.595L366.589 184.477L353.578 186.147L353.172 183.231L354.262 183.105L365.041 181.73Z" fill="#00514C"/>
<path d="M356.649 143.236L348.186 146.81L348.984 147.022L354.739 144.586L356.649 143.236Z" fill="#9E9E9E"/>
<path d="M356.648 143.236L364.711 160.414L362.758 161.685L354.737 144.586L356.648 143.236Z" fill="#DDDBDB"/>
<path d="M315.727 216.244L320.456 213.381L321.634 213.422L316.903 216.285L315.727 216.244Z" fill="#002E2A"/>
<path d="M328.295 220.284L333.025 217.42L333.004 218.78L328.273 221.643L328.295 220.284Z" fill="#00332E"/>
<path d="M328.347 216.678L333.077 213.816L334.254 213.856L329.524 216.719L328.347 216.678Z" fill="#002E2A"/>
<path d="M329.526 216.719L334.256 213.857L334.2 217.459L329.47 220.322L329.526 216.719Z" fill="#00332E"/>
<path d="M328.634 198.137L333.364 195.274L333.077 213.814L328.347 216.677L328.634 198.137Z" fill="#00332E"/>
<path d="M317.188 197.745L321.917 194.882L333.363 195.276L328.633 198.138L317.188 197.745Z" fill="#002E2A"/>
<path d="M317.189 197.746L328.635 198.139L328.348 216.679L329.525 216.719L329.469 220.322L328.293 220.282L328.271 221.641L316.825 221.248L316.847 219.888L315.67 219.848L315.726 216.245L316.902 216.286L317.189 197.746Z" fill="#003D37"/>
<path d="M315.624 216.185L316.881 215.493L316.938 216.235L315.624 216.185Z" fill="#BAB9B9"/>
<path d="M328.172 220.236L333.191 217.867L333.125 218.895L328.185 221.699L328.172 220.236Z" fill="#706F6F"/>
<path d="M329.365 216.629L334.403 213.854L334.308 217.535L329.323 220.332L329.365 216.629Z" fill="#898888"/>
<path d="M327.203 220.194L328.202 220.228L328.192 221.707L316.671 221.253L316.688 219.845L317.652 219.882L327.203 220.194Z" fill="#B5B5B5"/>
<path d="M328.25 216.602L333.231 213.793L334.475 213.833L329.431 216.64L328.25 216.602Z" fill="#A3A2A2"/>
<path d="M328.244 216.591L329.401 216.63L329.322 220.332L315.536 219.843L315.624 216.186L316.781 216.235L328.244 216.591Z" fill="#DDDBDB"/>
<path d="M321.265 179.888L325.995 177.025L337.235 179.124L332.505 181.987L321.265 179.888Z" fill="#003532"/>
<path d="M332.505 181.989L337.235 179.126L333.334 196.954L328.604 199.817L332.505 181.989Z" fill="#00322F"/>
<path d="M321.265 179.888L332.505 181.988L328.604 199.816L317.206 197.693L321.265 179.888Z" fill="#00413D"/>
<path d="M324.593 180.248L319.843 178.815L320.145 145.582L324.895 147.015L324.593 180.248Z" fill="#002926"/>
<path d="M324.895 147.015L320.146 145.582H347.695L352.445 147.015H324.895Z" fill="#002F2C"/>
<path d="M352.445 147.016L352.143 180.249H324.594L324.896 147.016H352.445Z" fill="#004844"/>
<path d="M313.813 169.201L318.544 166.338L317.745 181.998L313.015 184.861L313.813 169.201Z" fill="#003532"/>
<path d="M319.955 150.392L324.685 147.529L318.543 166.342L313.812 169.205L319.955 150.392Z" fill="#00302D"/>
<path d="M309.659 147.027L314.389 144.164L324.685 147.528L319.955 150.391L309.659 147.027Z" fill="#003834"/>
<path d="M309.659 147.028L319.955 150.391L313.812 169.204L313.014 184.864L302.235 184.104L303.109 166.97L309.659 147.028Z" fill="#00413D"/>
<path d="M301.024 183.769L302.276 183.16L302.275 183.891L301.024 183.769Z" fill="#033D37"/>
<path d="M312.891 187.25L317.486 185.453L317.293 187.462L312.744 191.796L312.891 187.25Z" fill="#AA8277"/>
<path d="M314.023 184.655L318.896 182.087L318.643 185.033L313.955 187.574L314.023 184.655Z" fill="#01332D"/>
<path d="M312.923 187.239L312.753 191.8L301.776 190.969L301.998 186.303L312.923 187.239Z" fill="#D4A99A"/>
<path d="M312.964 184.591L317.749 182.054L318.861 182.131L314.081 184.667L312.964 184.591Z" fill="#033D37"/>
<path d="M312.961 184.579L314.055 184.656L313.953 187.572L300.862 186.708L301.025 183.769L302.118 183.855L312.961 184.579Z" fill="#00514C"/>
<path d="M317.774 145.25L312.753 148.025L315.937 149.04L320.736 146.21L317.774 145.25Z" fill="#CECCCC"/>
<path d="M312.755 148.025L306.881 165.149L310.006 166.211L315.939 149.041L312.755 148.025Z" fill="#DDDBDB"/>
<path d="M330.006 145.564L333.379 147.017L341.697 146.996L343.662 145.558L330.006 145.564Z" fill="#89625D"/>
<path d="M333.378 147.017L336.654 153.577L339.035 153.586L341.696 146.996L333.378 147.017Z" fill="#A37E74"/>
<path d="M334.559 149.457H340.747L339.035 153.583L336.654 153.574L334.559 149.457Z" fill="#DDDBDB"/>
<path d="M330.486 126.589L336.662 126.749L336.576 131.449H330.504L330.486 126.589Z" fill="white"/>
<path d="M331.948 128.544L335.425 128.594L335.419 131.478L331.959 131.47L331.948 128.544Z" fill="#3D2823"/>
<path d="M334.131 128.932L335.141 128.946L335.139 129.784L334.134 129.782L334.131 128.932Z" fill="white"/>
<path d="M333.864 130.08L334.454 130.088L334.453 130.578L333.866 130.576L333.864 130.08Z" fill="white"/>
<path d="M346.003 126.589L339.826 126.749L339.813 131.61H345.885L346.003 126.589Z" fill="white"/>
<path d="M344.536 128.702L341.059 128.752L341.064 131.636L344.525 131.627L344.536 128.702Z" fill="#3D2823"/>
<path d="M344.202 128.953L343.191 128.967L343.193 129.805L344.198 129.803L344.202 128.953Z" fill="white"/>
<path d="M343.53 130.124L342.94 130.133L342.941 130.622L343.528 130.621L343.53 130.124Z" fill="white"/>
<path d="M341.967 138.731H335.582C334.346 138.731 334.633 137.729 334.633 136.494H342.788C342.788 137.729 343.203 138.731 341.967 138.731H341.967Z" fill="#89625D"/>
<path d="M336.827 153.547L337.311 180.277L339.128 180.256L338.926 153.556L336.827 153.547Z" fill="#01332D"/>
<path d="M346.553 127.316L346.027 127.604L339.694 127.028L340.22 126.74L346.553 127.316Z" fill="#1F1412"/>
<path d="M340.22 126.74L339.694 127.028L339.763 124.851L340.289 124.563L340.22 126.74Z" fill="#1F1412"/>
<path d="M340.29 124.563L346.622 125.139L346.554 127.315L340.221 126.74L340.29 124.563Z" fill="#3A2621"/>
<path d="M337.071 126.822L336.545 127.11L330.231 127.298L330.758 127.009L337.071 126.822Z" fill="#1F1412"/>
<path d="M330.757 127.008L330.231 127.296L330.053 125.088L330.579 124.8L330.757 127.008Z" fill="#1F1412"/>
<path d="M336.893 124.612L337.071 126.819L330.757 127.007L330.579 124.799L336.893 124.612Z" fill="#3A2621"/>
<path d="M352.116 122.483L351.59 122.771L343.968 122.494L344.494 122.206L352.116 122.483Z" fill="#121212"/>
<path d="M344.493 122.205L343.967 122.493L343.911 119.63L344.437 119.342L344.493 122.205Z" fill="#121212"/>
<path d="M344.438 119.342L352.06 119.619L352.116 122.482L344.493 122.205L344.438 119.342Z" fill="#212121"/>
<path d="M337.034 121.725L336.507 122.013L324.322 121.57L324.848 121.282L337.034 121.725Z" fill="#121212"/>
<path d="M324.848 121.281L324.321 121.569L324.266 118.707L324.792 118.418L324.848 121.281Z" fill="#121212"/>
<path d="M324.792 118.418L336.977 118.861L337.033 121.724L324.848 121.281L324.792 118.418Z" fill="#212121"/>
<path d="M324.481 115.724L325.41 115.873L325.49 119.133L324.561 118.984L324.481 115.724Z" fill="#202020"/>
<path d="M324.559 118.985L325.488 119.134L321.082 120.535L320.153 120.385L324.559 118.985Z" fill="#121212"/>
<path d="M324.481 115.724L324.56 118.984L320.154 120.384C320.153 120.259 320.132 117.889 320.13 117.766L324.481 115.724Z" fill="#191919"/>
<path d="M323.773 122.057L324.702 122.206L324.768 124.937L323.84 124.787L323.773 122.057Z" fill="#202020"/>
<path d="M323.838 124.787L324.766 124.936L321.086 125.129L320.157 124.98L323.838 124.787Z" fill="#121212"/>
<path d="M323.772 122.057L323.838 124.787L320.158 124.98C320.157 124.875 320.14 122.891 320.138 122.787L323.772 122.057Z" fill="#191919"/>
<path d="M323.692 124.407L324.621 124.556L324.687 127.286L323.758 127.137L323.692 124.407Z" fill="#202020"/>
<path d="M323.755 127.137L324.684 127.285L321.245 127.456L320.316 127.306L323.755 127.137Z" fill="#121212"/>
<path d="M323.692 124.406L323.758 127.137L320.319 127.307C320.318 127.202 320.299 125.218 320.297 125.114L323.692 124.406Z" fill="#191919"/>
<path d="M324.133 126.977L325.062 127.126L324.951 129.866L324.022 129.717L324.133 126.977Z" fill="#1F1F1F"/>
<path d="M324.024 129.718L324.952 129.867L321.226 129.726L320.297 129.576L324.024 129.718Z" fill="#121212"/>
<path d="M324.134 126.977L324.024 129.717L320.297 129.576C320.303 129.471 320.414 127.482 320.419 127.378L324.134 126.977H324.134Z" fill="#191919"/>
<path d="M322.978 128.676L323.906 128.825L323.95 132.421L323.021 132.272L322.978 128.676Z" fill="#1F1F1F"/>
<path d="M323.021 132.273L323.95 132.423L321.299 132.434L320.37 132.285L323.021 132.273Z" fill="#121212"/>
<path d="M322.977 128.676L323.021 132.272L320.37 132.283C320.369 132.146 320.36 129.534 320.358 129.398L322.978 128.676L322.977 128.676Z" fill="#191919"/>
<path d="M324.106 119.328L325.035 119.477L324.808 122.214L323.879 122.065L324.106 119.328Z" fill="#1F1F1F"/>
<path d="M323.88 122.067L324.809 122.216L320.935 122.824L320.006 122.675L323.88 122.067Z" fill="#121212"/>
<path d="M320.222 120.48L324.107 119.328L323.88 122.065L320.006 122.674C320.016 122.569 320.213 120.583 320.222 120.48Z" fill="#191919"/>
<path d="M351.505 119.619L350.978 119.907L324.567 118.948L325.094 118.66L351.505 119.619Z" fill="#121212"/>
<path d="M325.093 118.66L324.567 118.948L324.511 116.085L325.037 115.797L325.093 118.66Z" fill="#121212"/>
<path d="M325.037 115.797L351.448 116.755L351.504 119.618L325.093 118.66L325.037 115.797Z" fill="#212121"/>
<path d="M350.595 152.611H340.942V158.06H350.595V152.611Z" fill="#01332D"/>
<path d="M343.944 153.474V155.866H344.205V156.489H343.944V157.134H343.028V156.489H341.94V155.866L342.732 153.474H343.945H343.944ZM343.028 155.866V154.308L342.624 155.866H343.028Z" fill="white"/>
<path d="M346.631 153.474V154.06H345.496V154.682C345.638 154.514 345.821 154.431 346.044 154.431C346.296 154.431 346.488 154.501 346.617 154.642C346.746 154.783 346.81 155.054 346.81 155.454V155.976C346.81 156.236 346.798 156.426 346.773 156.547C346.748 156.668 346.695 156.781 346.613 156.884C346.532 156.987 346.418 157.067 346.272 157.121C346.126 157.176 345.948 157.204 345.738 157.204C345.502 157.204 345.294 157.163 345.115 157.081C344.935 156.998 344.807 156.876 344.731 156.713C344.656 156.551 344.618 156.299 344.618 155.958V155.759H345.534V155.988C345.534 156.224 345.542 156.392 345.559 156.492C345.576 156.591 345.633 156.641 345.731 156.641C345.776 156.641 345.813 156.627 345.841 156.598C345.869 156.569 345.884 156.539 345.887 156.505C345.889 156.472 345.891 156.328 345.895 156.074V155.348C345.895 155.211 345.88 155.118 345.851 155.068C345.823 155.018 345.775 154.993 345.709 154.993C345.666 154.993 345.631 155.006 345.602 155.031C345.573 155.057 345.555 155.085 345.547 155.114C345.538 155.143 345.534 155.212 345.534 155.318H344.627L344.666 153.474H346.632L346.631 153.474Z" fill="white"/>
<path d="M349.56 154.446H348.645C348.645 154.276 348.642 154.169 348.639 154.124C348.635 154.08 348.617 154.042 348.584 154.012C348.552 153.982 348.508 153.967 348.452 153.967C348.405 153.967 348.366 153.981 348.336 154.01C348.306 154.039 348.288 154.075 348.284 154.12C348.28 154.166 348.277 154.257 348.277 154.394V154.977C348.324 154.879 348.393 154.806 348.484 154.757C348.574 154.708 348.686 154.683 348.819 154.683C348.987 154.683 349.135 154.728 349.264 154.819C349.392 154.909 349.473 155.017 349.508 155.144C349.543 155.271 349.56 155.442 349.56 155.657V155.949C349.56 156.205 349.55 156.396 349.531 156.521C349.511 156.646 349.459 156.762 349.373 156.868C349.288 156.974 349.171 157.056 349.022 157.115C348.873 157.174 348.7 157.203 348.502 157.203C348.255 157.203 348.054 157.169 347.896 157.101C347.739 157.034 347.618 156.936 347.533 156.809C347.447 156.681 347.397 156.548 347.383 156.407C347.369 156.267 347.361 155.995 347.361 155.592V155.085C347.361 154.65 347.368 154.358 347.38 154.212C347.393 154.065 347.446 153.926 347.538 153.794C347.63 153.663 347.756 153.565 347.915 153.499C348.075 153.434 348.259 153.401 348.467 153.401C348.724 153.401 348.935 153.443 349.1 153.525C349.264 153.608 349.382 153.725 349.453 153.876C349.524 154.026 349.56 154.216 349.56 154.445L349.56 154.446ZM348.645 155.588C348.645 155.458 348.63 155.369 348.601 155.321C348.573 155.273 348.526 155.249 348.461 155.249C348.396 155.249 348.351 155.272 348.321 155.318C348.292 155.364 348.277 155.454 348.277 155.588V156.25C348.277 156.411 348.291 156.517 348.319 156.566C348.347 156.616 348.393 156.641 348.458 156.641C348.498 156.641 348.538 156.622 348.581 156.583C348.623 156.545 348.644 156.441 348.644 156.273V155.588H348.645Z" fill="white"/>
<path d="M329.042 125.844L328.516 126.132L324.205 125.976L324.731 125.688L329.042 125.844Z" fill="#121212"/>
<path d="M324.73 125.688L324.204 125.976L324.159 123.673L324.685 123.385L324.73 125.688Z" fill="#121212"/>
<path d="M324.686 123.385L328.996 123.541L329.041 125.845L324.73 125.688L324.686 123.385Z" fill="#212121"/>
<path d="M334.705 123.728L334.179 124.016L324.338 123.506L324.864 123.218L334.705 123.728Z" fill="#121212"/>
<path d="M324.863 123.216L324.337 123.504L324.328 121.683L324.854 121.395L324.863 123.216Z" fill="#121212"/>
<path d="M324.854 121.395L334.696 121.905L334.705 123.727L324.864 123.216L324.854 121.395Z" fill="#212121"/>
<g style="mix-blend-mode:soft-light">
<mask id="mask0_761_10241" style="mask-type:luminance" maskUnits="userSpaceOnUse" x="324" y="160" width="29" height="24">
<path d="M352.198 183.551H324.329L324.434 160.872H352.198V183.551Z" fill="white"/>
</mask>
<g mask="url(#mask0_761_10241)">
<path d="M333.87 177.362H330.833V180.302H333.87V177.362Z" fill="#1E1E1E"/>
<path d="M330.811 177.362H327.774V180.302H330.811V177.362Z" fill="#424241"/>
<path d="M339.992 177.362H336.955V180.302H339.992V177.362Z" fill="#262423"/>
<path d="M336.933 177.362H333.896V180.302H336.933V177.362Z" fill="#333333"/>
<path d="M346.111 177.362H343.074V180.302H346.111V177.362Z" fill="#1E1E1E"/>
<path d="M343.053 177.362H340.017V180.302H343.053V177.362Z" fill="#333333"/>
<path d="M349.177 177.362H346.141V180.302H349.177V177.362Z" fill="#424241"/>
<path d="M327.754 174.422H324.718V177.362H327.754V174.422Z" fill="#666666"/>
<path d="M333.87 174.422H330.833V177.362H333.87V174.422Z" fill="#666666"/>
<path d="M330.811 174.422H327.774V177.362H330.811V174.422Z" fill="#999999"/>
<path d="M339.992 174.422H336.955V177.362H339.992V174.422Z" fill="#666666"/>
<path d="M336.933 174.422H333.896V177.362H336.933V174.422Z" fill="#A09A90"/>
<path d="M346.111 174.422H343.074V177.362H346.111V174.422Z" fill="#666666"/>
<path d="M343.053 174.422H340.017V177.362H343.053V174.422Z" fill="#7C7874"/>
<path d="M352.232 174.422H349.195V177.362H352.232V174.422Z" fill="#666666"/>
<path d="M349.177 174.422H346.141V177.362H349.177V174.422Z" fill="#999999"/>
<path d="M327.752 171.471H324.716V174.411H327.752V171.471Z" fill="#CCCCCC"/>
<path d="M333.867 171.471H330.83V174.411H333.867V171.471Z" fill="#999999"/>
<path d="M330.809 171.471H327.772V174.411H330.809V171.471Z" fill="#E0DFDE"/>
<path d="M339.99 171.471H336.953V174.411H339.99V171.471Z" fill="#CCCCCC"/>
<path d="M336.936 171.471H333.899V174.411H336.936V171.471Z" fill="#E0DFDE"/>
<path d="M330.874 168.571H327.838V171.511H330.874V168.571Z" fill="#CCCCCC"/>
<path d="M327.75 165.604H324.714V168.544H327.75V165.604Z" fill="#CCCCCC"/>
<path d="M327.817 168.571H324.78V171.511H327.817V168.571Z" fill="#E0DFDE"/>
<path d="M333.942 168.571H330.905V171.511H333.942V168.571Z" fill="#E0DFDE"/>
<path d="M349.137 168.615H346.101V171.555H349.137V168.615Z" fill="#999999"/>
<path d="M352.204 165.872H349.168V168.812H352.204V165.872Z" fill="#CCCCCC"/>
<path d="M352.204 168.615H349.168V171.555H352.204V168.615Z" fill="#E0DFDE"/>
<path d="M346.108 171.471H343.071V174.411H346.108V171.471Z" fill="#999999"/>
<path d="M343.05 171.471H340.014V174.411H343.05V171.471Z" fill="#E0DFDE"/>
<path d="M352.234 171.471H349.197V174.411H352.234V171.471Z" fill="#CCCCCC"/>
<path d="M349.175 171.471H346.139V174.411H349.175V171.471Z" fill="#E0DFDE"/>
</g>
</g>
<g style="mix-blend-mode:soft-light">
<mask id="mask1_761_10241" style="mask-type:luminance" maskUnits="userSpaceOnUse" x="324" y="143" width="29" height="22">
<path d="M324.939 143.89H352.574L352.471 164.916H324.939V143.89Z" fill="white"/>
</mask>
<g mask="url(#mask1_761_10241)">
<path d="M343.128 149.623H346.14V146.897H343.128V149.623Z" fill="#1E1E1E"/>
<path d="M346.159 149.623H349.17V146.897H346.159V149.623Z" fill="#424241"/>
<path d="M333.314 146.896H330.987V149.622H333.998" fill="#1E1E1E"/>
<path d="M327.946 149.623H330.957V146.897H327.946V149.623Z" fill="#424241"/>
<path d="M349.192 152.347H352.203V149.622H349.192V152.347Z" fill="#666666"/>
<path d="M343.128 152.347H346.14V149.622H343.128V152.347Z" fill="#666666"/>
<path d="M346.159 152.347H349.17V149.622H346.159V152.347Z" fill="#999999"/>
<path d="M340.087 152.347H343.099V149.622H340.087V152.347Z" fill="#A09A90"/>
<path d="M330.991 152.347H334.002V149.622H330.991V152.347Z" fill="#666666"/>
<path d="M324.916 152.347H327.927V149.622H324.916V152.347Z" fill="#666666"/>
<path d="M327.946 152.347H330.957V149.622H327.946V152.347Z" fill="#999999"/>
<path d="M327.987 157.731H330.998V155.006H327.987V157.731Z" fill="#999999"/>
<path d="M324.948 160.277H327.959V157.552H324.948V160.277Z" fill="#CCCCCC"/>
<path d="M324.944 157.731H327.955V155.006H324.944V157.731Z" fill="#E0DFDE"/>
<path d="M330.992 155.085H334.003V152.359H330.992V155.085Z" fill="#999999"/>
<path d="M324.916 155.085H327.927V152.359H324.916V155.085Z" fill="#CCCCCC"/>
<path d="M327.947 155.085H330.958V152.359H327.947V155.085Z" fill="#E0DFDE"/>
</g>
</g>
<g style="mix-blend-mode:soft-light">
<path d="M333.67 141.617L330.741 141.56L330.696 143.889L333.625 143.946L333.67 141.617Z" fill="#1E1E1E"/>
<path d="M330.721 141.556L327.793 141.499L327.748 143.828L330.676 143.885L330.721 141.556Z" fill="#424241"/>
<path d="M339.576 141.729L336.647 141.673L336.602 144.001L339.531 144.058L339.576 141.729Z" fill="#262423"/>
<path d="M336.629 141.67L333.7 141.613L333.655 143.942L336.584 143.999L336.629 141.67Z" fill="#333333"/>
<path d="M345.476 141.84L342.548 141.784L342.503 144.112L345.431 144.169L345.476 141.84Z" fill="#1E1E1E"/>
<path d="M342.525 141.786L339.597 141.729L339.552 144.058L342.48 144.114L342.525 141.786Z" fill="#333333"/>
<path d="M348.432 141.901L345.504 141.844L345.459 144.173L348.387 144.23L348.432 141.901Z" fill="#424241"/>
<path d="M327.814 139.171L324.886 139.114L324.841 141.443L327.769 141.5L327.814 139.171Z" fill="#666666"/>
<path d="M333.712 139.283L330.783 139.226L330.738 141.555L333.667 141.612L333.712 139.283Z" fill="#666666"/>
<path d="M330.761 139.227L327.833 139.17L327.788 141.499L330.716 141.556L330.761 139.227Z" fill="#999999"/>
<path d="M336.67 139.342L333.741 139.286L333.696 141.614L336.625 141.671L336.67 139.342Z" fill="#A09A90"/>
<path d="M345.517 139.513L342.589 139.456L342.544 141.785L345.472 141.841L345.517 139.513Z" fill="#666666"/>
<path d="M351.421 139.628L348.492 139.571L348.447 141.9L351.376 141.957L351.421 139.628Z" fill="#666666"/>
<path d="M348.475 139.572L345.547 139.515L345.502 141.844L348.43 141.901L348.475 139.572Z" fill="#999999"/>
<path d="M327.861 136.834L324.933 136.777L324.887 139.106L327.816 139.162L327.861 136.834Z" fill="#CCCCCC"/>
<path d="M330.809 136.89L327.881 136.833L327.836 139.162L330.764 139.219L330.809 136.89Z" fill="#E0DFDE"/>
<path d="M348.526 134.971L345.598 134.914L345.553 137.243L348.481 137.3L348.526 134.971Z" fill="#999999"/>
<path d="M351.486 135.027L348.558 134.971L348.512 137.299L351.441 137.356L351.486 135.027Z" fill="#E0DFDE"/>
<path d="M351.468 137.291L348.539 137.234L348.494 139.563L351.422 139.62L351.468 137.291Z" fill="#CCCCCC"/>
<path d="M348.52 137.235L345.592 137.178L345.547 139.507L348.475 139.563L348.52 137.235Z" fill="#E0DFDE"/>
</g>
<g style="mix-blend-mode:soft-light">
<path d="M321.494 177.114L319.889 176.677L319.945 178.94L321.55 179.377L321.494 177.114Z" fill="#1E1E1E"/>
<path d="M323.116 177.557L321.511 177.121L321.567 179.384L323.172 179.821L323.116 177.557Z" fill="#424241"/>
<path d="M321.443 174.851L319.838 174.414L319.894 176.678L321.499 177.115L321.443 174.851Z" fill="#666666"/>
<path d="M324.612 175.734L323.075 175.297L323.132 177.56L324.634 177.929L324.612 175.734Z" fill="#666666"/>
<path d="M323.063 175.292L321.458 174.855L321.514 177.119L323.12 177.555L323.063 175.292Z" fill="#999999"/>
<path d="M322.929 170.816L321.324 170.379L321.38 172.642L322.985 173.079L322.929 170.816Z" fill="#999999"/>
<path d="M324.669 169.156L322.893 168.708L322.949 170.972L324.725 171.409L324.669 169.156Z" fill="#CCCCCC"/>
<path d="M324.689 171.258L322.947 170.821L323.003 173.085L324.677 173.521L324.689 171.258Z" fill="#E0DFDE"/>
<path d="M321.385 172.581L319.78 172.144L319.836 174.408L321.441 174.845L321.385 172.581Z" fill="#999999"/>
<path d="M324.622 173.461L323.018 173.024L323.074 175.287L324.61 175.724L324.622 173.461Z" fill="#CCCCCC"/>
<path d="M323.005 173.022L321.4 172.585L321.457 174.849L323.062 175.285L323.005 173.022Z" fill="#E0DFDE"/>
</g>
<g style="mix-blend-mode:soft-light">
<path d="M323.517 141.923L322.164 142.698L322.136 145.281L323.489 144.541L323.517 141.923Z" fill="#424241"/>
<path d="M322.18 140.052L320.827 140.826L320.799 143.477L322.152 142.704L322.18 140.052Z" fill="#666666"/>
<path d="M324.908 138.493L323.555 139.267L323.527 141.919L324.88 141.145L324.908 138.493Z" fill="#666666"/>
<path d="M323.547 139.271L322.194 140.045L322.166 142.697L323.519 141.923L323.547 139.271Z" fill="#999999"/>
<path d="M323.586 134.042L322.233 134.816L322.205 137.468L323.558 136.694L323.586 134.042Z" fill="#999999"/>
<path d="M322.209 137.39L320.856 138.164L320.828 140.816L322.181 140.042L322.209 137.39Z" fill="#999999"/>
<path d="M324.867 135.827L323.582 136.601L323.555 139.253L324.908 138.479L324.867 135.827Z" fill="#CCCCCC"/>
<path d="M323.574 136.606L322.22 137.381L322.192 140.032L323.546 139.258L323.574 136.606Z" fill="#E0DFDE"/>
</g>
<g style="mix-blend-mode:soft-light">
<path d="M323.951 213.365H321.633V216.38L323.951 216.448V213.365Z" fill="#1E1E1E"/>
<path d="M321.617 213.365H319.299V216.277L321.617 216.346V213.365Z" fill="#424241"/>
<path d="M328.626 213.365H326.309V216.483L328.626 216.448V213.365Z" fill="#262423"/>
<path d="M326.292 213.365H323.974V216.414L326.292 216.517V213.365Z" fill="#333333"/>
<path d="M333.123 213.365H330.976L330.942 215.05L333.07 213.883L333.123 213.365Z" fill="#1E1E1E"/>
<path d="M330.963 213.365H328.645L328.542 216.483L330.944 215.05L330.963 213.365Z" fill="#333333"/>
<path d="M319.283 210.078H316.965V213.367H319.283V210.078Z" fill="#666666"/>
<path d="M323.951 210.078H321.633V213.367H323.951V210.078Z" fill="#666666"/>
<path d="M321.617 210.078H319.299V213.367H321.617V210.078Z" fill="#999999"/>
<path d="M328.625 210.078H326.308V213.367H328.625V210.078Z" fill="#666666"/>
<path d="M326.292 210.078H323.974V213.367H326.292V210.078Z" fill="#A09A90"/>
<path d="M333.158 210.078H330.977V213.367H333.124L333.158 210.078Z" fill="#666666"/>
<path d="M330.96 210.078H328.643V213.367H330.96V210.078Z" fill="#7C7874"/>
<path d="M319.286 206.773H317.07L317.036 210.062H319.286V206.773Z" fill="#CCCCCC"/>
<path d="M323.95 206.773H321.632V210.062H323.95V206.773Z" fill="#999999"/>
<path d="M321.618 206.773H319.3V210.062H321.618V206.773Z" fill="#E0DFDE"/>
<path d="M328.626 206.773H326.309V210.062H328.626V206.773Z" fill="#CCCCCC"/>
<path d="M326.292 206.773H323.975V210.062H326.292V206.773Z" fill="#E0DFDE"/>
<path d="M321.665 203.529H319.347V206.819H321.665V203.529Z" fill="#CCCCCC"/>
<path d="M319.282 200.963L317.169 200.21L317.135 203.534H319.282V200.963Z" fill="#CCCCCC"/>
<path d="M319.332 203.529H317.117L317.083 206.818H319.332V203.529Z" fill="#E0DFDE"/>
<path d="M324.007 204.351L321.688 203.529V206.818H324.007V204.351Z" fill="#E0DFDE"/>
<path d="M333.193 206.773H330.978V210.062H333.159L333.193 206.773Z" fill="#999999"/>
<path d="M330.96 206.773H328.643V210.062H330.96V206.773Z" fill="#E0DFDE"/>
</g>
<g style="mix-blend-mode:soft-light">
<path d="M346.344 213.517L348.926 213.56L348.917 216.182L346.242 216.195L346.344 213.517Z" fill="#1E1E1E"/>
<path d="M348.942 213.559L351.524 213.602L351.478 216.212L348.895 216.201L348.942 213.559Z" fill="#424241"/>
<path d="M341.251 213.416L343.833 213.46L343.721 216.143L341.348 216.047L341.251 213.416Z" fill="#262423"/>
<path d="M343.735 213.471L346.318 213.514L346.242 216.193L343.682 216.137L343.735 213.471Z" fill="#333333"/>
<path d="M338.46 211.382L339.998 212.373L339.965 214.989L338.46 213.7L338.46 211.382Z" fill="#1E1E1E"/>
<path d="M340.008 212.435L341.242 213.33L341.281 216.12L339.996 214.986L340.008 212.435Z" fill="#00514C"/>
<path d="M351.536 213.606L354.118 213.649L354.17 210.508L351.588 210.465L351.536 213.606Z" fill="#666666"/>
<path d="M346.338 213.52L348.92 213.562L348.972 210.421L346.39 210.378L346.338 213.52Z" fill="#666666"/>
<path d="M348.938 213.564L351.521 213.606L351.573 210.465L348.99 210.422L348.938 213.564Z" fill="#999999"/>
<path d="M341.132 213.433L343.714 213.476L343.766 210.335L341.184 210.292L341.132 213.433Z" fill="#666666"/>
<path d="M343.73 213.477L346.312 213.52L346.365 210.379L343.782 210.336L343.73 213.477Z" fill="#A09A90"/>
<path d="M338.406 208.45L340.065 209.157L340.013 212.401L338.457 211.408L338.406 208.45Z" fill="#666666"/>
<path d="M339.998 212.443L341.263 213.23L341.31 216.089L339.965 214.99L339.998 212.443Z" fill="#666666"/>
<path d="M340.041 209.228L341.234 209.687L341.26 213.229L339.996 212.441L340.041 209.228Z" fill="#7C7874"/>
<path d="M351.646 207.308L354.114 207.349L354.1 210.491L351.594 210.449L351.646 207.308Z" fill="#CCCCCC"/>
<path d="M346.392 210.364L348.975 210.407L349.027 207.266L346.445 207.223L346.392 210.364Z" fill="#999999"/>
<path d="M348.993 210.408L351.575 210.451L351.627 207.31L349.045 207.267L348.993 210.408Z" fill="#E0DFDE"/>
<path d="M341.183 210.276L343.766 210.319L343.818 207.178L341.236 207.135L341.183 210.276Z" fill="#CCCCCC"/>
<path d="M343.782 210.322L346.364 210.364L346.416 207.223L343.834 207.18L343.782 210.322Z" fill="#E0DFDE"/>
<path d="M348.987 207.311L351.569 207.354L351.621 204.212L349.039 204.17L348.987 207.311Z" fill="#CCCCCC"/>
<path d="M351.749 201.039L351.697 204.18L354.051 204.219L354.103 201.078L351.749 201.039Z" fill="#CCCCCC"/>
<path d="M351.642 204.21L354.11 204.251L354.096 207.393L351.59 207.351L351.642 204.21Z" fill="#E0DFDE"/>
<path d="M346.382 207.267L348.964 207.309L349.016 204.168L346.434 204.125L346.382 207.267Z" fill="#E0DFDE"/>
<path d="M338.373 205.606L340.121 206.471L340.075 209.264L338.413 208.583L338.373 205.606Z" fill="#999999"/>
<path d="M340.104 206.472L341.214 207.098L341.203 209.789L340.058 209.266L340.104 206.472Z" fill="#E0DFDE"/>
</g>
<g style="mix-blend-mode:soft-light">
<path d="M308.956 181.059H306.704L306.682 184.107L308.956 184.212V181.059Z" fill="#1E1E1E"/>
<path d="M306.691 181.059H304.438L304.448 184.004L306.683 184.107L306.691 181.059Z" fill="#424241"/>
<path d="M313.295 181.059H311.248V184.349L313.089 184.52L313.295 181.059Z" fill="#262423"/>
<path d="M311.233 181.059H308.98V184.212L311.233 184.349V181.059Z" fill="#333333"/>
<path d="M317.8 181.046L315.782 181.06L315.724 183.096L317.749 182.051L317.8 181.046Z" fill="#1E1E1E"/>
<path d="M315.766 181.059L313.232 181.11L313.05 184.484L315.722 183.096L315.766 181.059Z" fill="#333333"/>
<path d="M304.42 177.766L302.572 177.764L302.396 181.057L304.42 181.055V177.766Z" fill="#666666"/>
<path d="M308.953 177.766H306.701V181.055H308.953V177.766Z" fill="#666666"/>
<path d="M306.688 177.766H304.436V181.055H306.688V177.766Z" fill="#999999"/>
<path d="M313.496 177.766H311.244V181.054H313.257L313.496 177.766Z" fill="#666666"/>
<path d="M311.228 177.766H308.976V181.055H311.228V177.766Z" fill="#A09A90"/>
<path d="M317.93 177.766H315.78V181.054L317.798 181.039L317.93 177.766Z" fill="#666666"/>
<path d="M315.768 177.766H313.516V181.055H315.768V177.766Z" fill="#7C7874"/>
<path d="M304.466 174.514L302.728 174.458L302.557 177.765L304.419 177.756L304.466 174.514Z" fill="#CCCCCC"/>
<path d="M308.955 174.467H306.703V177.756H308.955V174.467Z" fill="#999999"/>
<path d="M306.688 174.467H304.436V177.756H306.688V174.467Z" fill="#E0DFDE"/>
<path d="M313.497 174.467H311.245V177.756H313.497V174.467Z" fill="#CCCCCC"/>
<path d="M311.232 174.467H308.979V177.756H311.232V174.467Z" fill="#E0DFDE"/>
<path d="M306.737 171.223H304.484V174.513H306.737V171.223Z" fill="#CCCCCC"/>
<path d="M304.42 167.904L303.049 168.014L302.903 171.217L304.484 171.224L304.42 167.904Z" fill="#CCCCCC"/>
<path d="M304.471 171.226L302.905 171.219L302.733 174.459L304.471 174.516V171.226Z" fill="#E0DFDE"/>
<path d="M309.012 171.223H306.76V174.513H309.012V171.223Z" fill="#E0DFDE"/>
<path d="M318.068 174.467H315.781V177.756H317.931L318.068 174.467Z" fill="#999999"/>
<path d="M315.769 174.467H313.517V177.756H315.769V174.467Z" fill="#B2AFAD"/>
</g>
<g style="mix-blend-mode:soft-light">
<mask id="mask2_761_10241" style="mask-type:luminance" maskUnits="userSpaceOnUse" x="352" y="165" width="18" height="18">
<path d="M364.957 181.744L369.458 178.367L367.264 165.786L352.168 171.799L354.144 182.772L364.957 181.744Z" fill="white"/>
</mask>
<g mask="url(#mask2_761_10241)">
<path d="M363.419 182.625L365.654 182.213L365.056 178.972L362.821 179.384L363.419 182.625Z" fill="#1E1E1E"/>
<path d="M365.669 182.212L367.904 181.8L367.306 178.558L365.071 178.971L365.669 182.212Z" fill="#424241"/>
<path d="M358.912 183.456L361.146 183.044L360.549 179.803L358.314 180.215L358.912 183.456Z" fill="#262423"/>
<path d="M361.16 183.041L363.395 182.629L362.797 179.388L360.562 179.8L361.16 183.041Z" fill="#333333"/>
<path d="M354.409 184.286L356.644 183.873L356.046 180.632L353.811 181.044L354.409 184.286Z" fill="#1E1E1E"/>
<path d="M356.661 183.875L358.896 183.463L358.298 180.222L356.063 180.634L356.661 183.875Z" fill="#333333"/>
<path d="M352.15 184.705L354.385 184.293L353.787 181.051L351.552 181.463L352.15 184.705Z" fill="#424241"/>
<path d="M367.324 178.561L369.559 178.149L368.961 174.908L366.726 175.32L367.324 178.561Z" fill="#666666"/>
<path d="M362.823 179.389L365.058 178.977L364.46 175.736L362.225 176.148L362.823 179.389Z" fill="#666666"/>
<path d="M365.072 178.976L367.307 178.564L366.709 175.323L364.474 175.735L365.072 178.976Z" fill="#999999"/>
<path d="M358.314 180.22L360.549 179.808L359.951 176.567L357.716 176.979L358.314 180.22Z" fill="#666666"/>
<path d="M360.562 179.806L362.797 179.393L362.199 176.152L359.964 176.564L360.562 179.806Z" fill="#A09A90"/>
<path d="M353.811 181.05L356.046 180.638L355.448 177.396L353.213 177.808L353.811 181.05Z" fill="#666666"/>
<path d="M356.06 180.64L358.295 180.227L357.697 176.986L355.462 177.398L356.06 180.64Z" fill="#7C7874"/>
<path d="M351.553 181.469L353.788 181.057L353.19 177.816L350.955 178.228L351.553 181.469Z" fill="#999999"/>
<path d="M366.72 175.303L368.955 174.89L368.357 171.649L366.122 172.061L366.72 175.303Z" fill="#CCCCCC"/>
<path d="M362.224 176.135L364.459 175.723L363.861 172.482L361.626 172.894L362.224 176.135Z" fill="#999999"/>
<path d="M364.473 175.717L366.708 175.305L366.11 172.064L363.875 172.476L364.473 175.717Z" fill="#E0DFDE"/>
<path d="M357.715 176.963L359.95 176.551L359.352 173.309L357.117 173.722L357.715 176.963Z" fill="#CCCCCC"/>
<path d="M359.963 176.547L362.198 176.135L361.6 172.893L359.365 173.305L359.963 176.547Z" fill="#E0DFDE"/>
<path d="M363.837 172.53L366.072 172.118L365.474 168.877L363.239 169.289L363.837 172.53Z" fill="#CCCCCC"/>
<path d="M365.533 168.835L367.768 168.423L367.17 165.182L364.935 165.594L365.533 168.835Z" fill="#CCCCCC"/>
<path d="M366.087 172.118L368.322 171.706L367.724 168.465L365.489 168.877L366.087 172.118Z" fill="#E0DFDE"/>
<path d="M361.578 172.948L363.813 172.536L363.216 169.294L360.981 169.707L361.578 172.948Z" fill="#E0DFDE"/>
<path d="M350.404 175.053L352.639 174.641L352.041 171.4L349.806 171.812L350.404 175.053Z" fill="#999999"/>
<path d="M352.586 174.552L354.855 174.134L355.453 177.375L353.319 177.768L352.586 174.552Z" fill="#999999"/>
<path d="M355.462 177.376L357.697 176.964L357.099 173.723L354.864 174.135L355.462 177.376Z" fill="#B2AFAD"/>
<path d="M350.954 178.21L353.189 177.798L352.592 174.557L350.357 174.969L350.954 178.21Z" fill="#E0DFDE"/>
</g>
</g>
<g style="mix-blend-mode:soft-light">
<path d="M324.146 196.819L324.146 196.821L321.909 196.331L321.447 198.436L323.699 198.858L324.146 196.819Z" fill="#1E1E1E"/>
<path d="M321.899 196.325L321.898 196.327L319.661 195.837L319.185 198.012L321.437 198.433L321.899 196.325Z" fill="#424241"/>
<path d="M328.008 200.782L328.011 200.767L327.98 200.776L328.008 200.782Z" fill="#262423"/>
<path d="M328.544 198.338L328.66 197.808L328.66 197.81L326.423 197.32L325.992 199.286L328.199 199.699L328.544 198.338Z" fill="#262423"/>
<path d="M326.408 197.313L326.408 197.315L324.171 196.824L323.725 198.861L325.977 199.282L326.408 197.313Z" fill="#333333"/>
<path d="M327.92 200.799L327.983 200.778L327.928 200.767L327.92 200.799Z" fill="#333333"/>
<path d="M328.68 197.809L328.546 198.335L328.246 199.704L328.623 199.775L329.024 197.886L328.679 197.81L328.68 197.809Z" fill="#333333"/>
<path d="M328.197 199.698L328.243 199.707L328.543 198.337L328.197 199.698Z" fill="#333333"/>
<path d="M319.644 195.831L320.339 192.659L318.472 192.25L317.759 195.418L319.644 195.831Z" fill="#666666"/>
<path d="M317.759 195.419L319.644 195.832L319.644 195.83L317.759 195.418L317.759 195.419Z" fill="#666666"/>
<path d="M324.15 196.818L324.845 193.645L322.607 193.156L321.912 196.33L321.912 196.328L324.15 196.818Z" fill="#666666"/>
<path d="M321.911 196.33L321.91 196.332L324.147 196.822L324.148 196.821L321.911 196.33Z" fill="#666666"/>
<path d="M321.898 196.324L322.593 193.152L320.356 192.662L319.66 195.836L319.66 195.835L321.898 196.324Z" fill="#999999"/>
<path d="M319.661 195.835L319.66 195.837L321.897 196.327L321.898 196.325L319.661 195.835Z" fill="#999999"/>
<path d="M327.118 194.143L326.422 197.317L326.422 197.315L328.659 197.806L329.355 194.633L327.118 194.143Z" fill="#666666"/>
<path d="M326.423 197.318L326.423 197.32L328.66 197.81L328.66 197.808L326.423 197.318Z" fill="#666666"/>
<path d="M326.407 197.315L327.102 194.142L324.865 193.652L324.17 196.826L324.17 196.825L326.407 197.315Z" fill="#A09A90"/>
<path d="M324.17 196.826L324.17 196.827L326.407 197.318L326.407 197.316L324.17 196.826Z" fill="#A09A90"/>
<path d="M330.916 198.303L330.917 198.301L330.916 198.303Z" fill="#7C7874"/>
<path d="M328.678 197.809L329.022 197.885L329.696 194.707L329.373 194.637L328.678 197.809Z" fill="#7C7874"/>
<path d="M328.678 197.809L328.678 197.81L329.022 197.886L329.023 197.884L328.678 197.809Z" fill="#7C7874"/>
<path d="M321.028 189.513L319.18 189.108L318.477 192.234L320.342 192.642L321.028 189.513Z" fill="#CCCCCC"/>
<path d="M323.293 190.011L322.607 193.14L324.845 193.63L325.53 190.501L323.348 190.023L323.358 189.978L323.335 189.973L323.325 190.018L323.293 190.011Z" fill="#999999"/>
<path d="M321.044 189.517L320.358 192.646L322.595 193.136L323.281 190.007L321.091 189.527L321.101 189.482L321.086 189.479L321.076 189.524L321.044 189.517Z" fill="#E0DFDE"/>
<path d="M327.817 190.957L327.121 194.131L329.358 194.621L330.054 191.447L327.817 190.957Z" fill="#CCCCCC"/>
<path d="M325.557 190.508L324.871 193.637L327.108 194.127L327.804 190.953L325.598 190.47L325.588 190.515L325.557 190.508Z" fill="#E0DFDE"/>
<path d="M323.281 190.01L323.296 190.013L323.306 189.968L323.338 189.975L324.023 186.846L321.786 186.356L321.101 189.485L323.291 189.965L323.281 190.01Z" fill="#CCCCCC"/>
<path d="M323.306 189.969L323.296 190.015L323.328 190.023L323.338 189.977L323.306 189.969Z" fill="#CCCCCC"/>
<path d="M321.101 189.484L321.091 189.529L323.281 190.009L323.291 189.964L321.101 189.484Z" fill="#CCCCCC"/>
<path d="M321.722 186.339L322.265 183.862L320.598 182.821L319.896 185.939L321.722 186.339Z" fill="#CCCCCC"/>
<path d="M319.894 185.943L319.19 189.065L321.038 189.47L321.028 189.515L321.043 189.518L321.053 189.473L321.085 189.48L321.77 186.351L321.721 186.34L321.721 186.343L319.894 185.943Z" fill="#E0DFDE"/>
<path d="M319.19 189.066L319.18 189.111L321.027 189.516L321.037 189.471L319.19 189.066Z" fill="#E0DFDE"/>
<path d="M321.053 189.479L321.043 189.525L321.075 189.532L321.085 189.486L321.053 189.479Z" fill="#E0DFDE"/>
<path d="M319.896 185.943L319.896 185.946L321.723 186.346L321.723 186.343L319.896 185.943Z" fill="#E0DFDE"/>
<path d="M325.533 190.502L325.556 190.507L325.566 190.461L325.597 190.469L326.109 188.133L324.046 186.849L323.36 189.978L325.543 190.457L325.533 190.502Z" fill="#E0DFDE"/>
<path d="M323.361 189.979L323.351 190.025L325.533 190.503L325.543 190.457L323.361 189.979Z" fill="#E0DFDE"/>
<path d="M325.565 190.465L325.555 190.511L325.587 190.518L325.597 190.472L325.565 190.465Z" fill="#E0DFDE"/>
<path d="M329.376 194.624L329.698 194.694L330.373 191.515L330.072 191.449L329.376 194.624Z" fill="#E0DFDE"/>
</g>
<g style="mix-blend-mode:soft-light">
<path d="M346.637 195.441V195.442L349.152 195.133L349.443 197.502L346.918 197.733L346.637 195.441Z" fill="#1E1E1E"/>
<path d="M349.169 195.132L349.169 195.134L351.685 194.825L351.985 197.271L349.46 197.503L349.169 195.132Z" fill="#424241"/>
<path d="M341.974 199.412L341.972 199.395L342.004 199.409L341.974 199.412Z" fill="#262423"/>
<path d="M341.637 196.659L341.563 196.063V196.065L344.079 195.756L344.351 197.968L341.877 198.195L341.637 196.659Z" fill="#262423"/>
<path d="M344.096 195.755L344.096 195.757L346.611 195.448L346.893 197.737L344.368 197.969L344.096 195.755Z" fill="#333333"/>
<path d="M342.073 199.437L342.006 199.407L342.067 199.401L342.073 199.437Z" fill="#333333"/>
<path d="M341.545 196.066L341.638 196.66L341.827 198.2L341.22 198.269L341.158 196.116L341.545 196.068L341.545 196.066Z" fill="#333333"/>
<path d="M341.877 198.198L341.826 198.203L341.637 196.663L341.877 198.198Z" fill="#333333"/>
<path d="M351.7 194.821L351.262 191.253L353.36 190.995L353.819 194.56L351.7 194.821Z" fill="#666666"/>
<path d="M353.815 194.565L351.695 194.825L351.696 194.827L353.815 194.567L353.815 194.565Z" fill="#666666"/>
<path d="M346.636 195.441L346.198 191.874L348.714 191.565L349.152 195.134L349.152 195.132L346.636 195.441Z" fill="#666666"/>
<path d="M349.149 195.138L346.633 195.446L346.633 195.448L349.149 195.14L349.149 195.138Z" fill="#666666"/>
<path d="M349.17 195.131L348.731 191.564L351.247 191.255L351.685 194.824L351.685 194.823L349.17 195.131Z" fill="#999999"/>
<path d="M351.68 194.825L349.164 195.133L349.164 195.135L351.68 194.827L351.68 194.825Z" fill="#999999"/>
<path d="M343.64 192.188L344.079 195.757L344.079 195.755L341.563 196.064L341.125 192.497L343.64 192.188Z" fill="#666666"/>
<path d="M344.076 195.757L341.561 196.066L341.561 196.068L344.076 195.759L344.076 195.757Z" fill="#666666"/>
<path d="M344.095 195.756L343.657 192.189L346.173 191.879L346.611 195.449L346.611 195.447L344.095 195.756Z" fill="#A09A90"/>
<path d="M346.607 195.447L344.091 195.756L344.091 195.758L346.607 195.449L346.607 195.447Z" fill="#A09A90"/>
<path d="M341.545 196.07L341.158 196.117L340.744 192.547L341.107 192.502L341.545 196.07Z" fill="#7C7874"/>
<path d="M341.545 196.066L341.545 196.068L341.158 196.116V196.114L341.545 196.066Z" fill="#7C7874"/>
<path d="M350.827 187.717L352.905 187.462L353.358 190.978L351.259 191.235L350.827 187.717Z" fill="#CCCCCC"/>
<path d="M348.28 188.031L348.712 191.549L346.197 191.858L345.765 188.34L348.219 188.038L348.213 187.987L348.238 187.984L348.244 188.035L348.28 188.031Z" fill="#999999"/>
<path d="M350.811 187.718L351.243 191.236L348.728 191.545L348.296 188.027L350.759 187.724L350.752 187.673L350.769 187.671L350.775 187.722L350.811 187.718Z" fill="#E0DFDE"/>
<path d="M343.196 188.605L340.681 188.914L341.119 192.483L343.635 192.175L343.196 188.605Z" fill="#CCCCCC"/>
<path d="M345.739 188.342L346.171 191.86L343.655 192.17L343.217 188.6L345.697 188.296L345.703 188.346L345.739 188.342Z" fill="#E0DFDE"/>
<path d="M348.298 188.028L348.281 188.03L348.275 187.979L348.239 187.983L347.807 184.465L350.322 184.156L350.754 187.674L348.291 187.977L348.298 188.028Z" fill="#CCCCCC"/>
<path d="M348.273 187.983L348.236 187.987L348.243 188.04L348.28 188.035L348.273 187.983Z" fill="#CCCCCC"/>
<path d="M350.747 187.682L348.284 187.984L348.29 188.035L350.753 187.733L350.747 187.682Z" fill="#CCCCCC"/>
<path d="M350.391 184.148L350.049 181.362L351.994 180.387L352.445 183.896L350.391 184.148Z" fill="#CCCCCC"/>
<path d="M352.447 183.896L352.899 187.409L350.822 187.664L350.828 187.715L350.811 187.717L350.805 187.666L350.769 187.671L350.337 184.152L350.392 184.145L350.392 184.149L352.447 183.896Z" fill="#E0DFDE"/>
<path d="M352.898 187.41L352.905 187.461L350.827 187.716L350.82 187.665L352.898 187.41Z" fill="#E0DFDE"/>
<path d="M350.807 187.667L350.77 187.671L350.776 187.724L350.813 187.719L350.807 187.667Z" fill="#E0DFDE"/>
<path d="M352.443 183.901L350.389 184.153L350.389 184.156L352.444 183.904L352.443 183.901Z" fill="#E0DFDE"/>
<path d="M345.764 188.341L345.739 188.344L345.733 188.293L345.697 188.298L345.374 185.671L347.78 184.47L348.212 187.989L345.758 188.29L345.764 188.341Z" fill="#E0DFDE"/>
<path d="M348.209 187.991L345.755 188.293L345.761 188.344L348.215 188.042L348.209 187.991Z" fill="#E0DFDE"/>
<path d="M345.732 188.291L345.695 188.296L345.702 188.348L345.739 188.344L345.732 188.291Z" fill="#E0DFDE"/>
<path d="M341.102 192.483L340.739 192.528L340.481 188.98L340.664 188.914L341.102 192.483Z" fill="#E0DFDE"/>
</g>
<circle cx="246.125" cy="102.543" r="3.40102" fill="#4F2B2B"/>
<circle cx="255.647" cy="102.543" r="3.40102" fill="white"/>
<circle cx="265.171" cy="102.543" r="3.40102" fill="white"/>
<path d="M304.329 102.988L427.009 102.988" stroke="#4F2B2B" stroke-width="5.44162" stroke-linecap="round"/>
<path d="M25.8652 196.477L26.1456 210.407L27.1183 214.271L49.5541 191.063L34.5048 189.638C30.2562 189.235 26.4454 192.252 25.8652 196.479V196.477Z" fill="#FFBE97"/>
<path d="M87.0029 261.614C87.0029 261.614 94.9767 239.345 94.6203 231.571C93.9334 216.518 73.7935 175.046 73.7843 175.019C72.3083 171.066 67.2818 167.969 63.6641 171.302C61.1065 173.658 59.7773 177.868 59.979 181.281L61.9477 214.45L87.0029 261.614Z" fill="#FFBE97"/>
<path d="M83.179 159.775C83.8883 159.418 84.7104 159.991 84.622 160.78L84.155 164.948L79.7324 161.508L83.179 159.775Z" fill="#4F2B2B"/>
<path d="M22.1778 253.716C21.2113 255.015 19.7945 255.862 18.192 256.097C16.6107 256.33 15.0323 255.94 13.742 255.002C13.7241 254.989 13.7072 254.977 13.6894 254.964C11.0046 252.968 10.4445 249.161 12.4409 246.476L19.5861 236.865L29.322 244.104L22.1769 253.714L22.1778 253.716Z" fill="#4F2B2B"/>
<path d="M19.6445 236.999L71.9251 166.681L79.7328 161.511L84.1549 164.949L81.2065 174.286L29.3804 244.237L19.6445 236.999Z" fill="#8FC6D7"/>
<path d="M34.8446 187.181C34.8192 187.668 34.8283 188.155 34.8764 188.639C34.9869 189.765 36.7494 192.708 36.339 193.625L28.2586 211.808L27.5705 208.291L25.0165 212.39C23.8881 214.2 23.0121 216.158 22.4136 218.207L19.9975 226.481L21.8815 247.043L41.834 271.338L37.586 282.432C49.5613 287.72 71.019 300.298 78.6333 293.692L87.0039 261.614L87.0122 252.116L86.6012 251.099L72.7503 217.694L61.0461 199.354L48.6762 176.673C46.8082 175.351 44.3492 175.105 42.2952 176.116C39.2988 177.592 36.9385 180.395 35.6982 183.469C35.222 184.65 34.9138 185.908 34.8468 187.181L34.8446 187.181Z" fill="#FFBE97"/>
<path d="M41.8331 211.46C42.0857 211.674 42.4438 211.754 42.7815 211.639C43.2934 211.465 43.5674 210.907 43.3934 210.395L36.4782 190.098C36.2976 189.588 35.7464 189.31 35.2343 189.486C34.7224 189.66 34.4484 190.218 34.6224 190.73L41.5376 211.027C41.5982 211.201 41.7016 211.348 41.8331 211.46Z" fill="#4F2B2B"/>
<path d="M29.8627 223.987C30.0825 224.173 30.3797 224.26 30.6816 224.199C31.2132 224.093 31.56 223.581 31.4563 223.049L28.8195 209.567C28.7136 209.038 28.1991 208.689 27.6699 208.793C27.1383 208.898 26.7915 209.411 26.8952 209.942L29.532 223.424C29.5764 223.652 29.6963 223.847 29.8627 223.987Z" fill="#4F2B2B"/>
<path d="M22.8795 234.139C23.1015 234.325 23.4008 234.413 23.705 234.349C24.2366 234.241 24.5794 233.724 24.4713 233.195L23.0295 226.069C22.9236 225.54 22.409 225.193 21.875 225.303C21.3434 225.411 21.0006 225.928 21.1087 226.457L22.5505 233.583C22.5951 233.808 22.7152 233.999 22.8795 234.139Z" fill="#4F2B2B"/>
<path d="M74.769 216.461C75.1938 216.776 75.7912 216.7 76.1212 216.284C76.4576 215.859 76.3865 215.244 75.9638 214.906C75.2974 214.375 74.6072 213.847 73.8977 213.301C69.951 210.269 65.4781 206.829 60.8218 200.279C60.4983 199.833 59.8945 199.736 59.4545 200.046C59.0124 200.359 58.9089 200.972 59.2216 201.414C64.046 208.205 68.644 211.74 72.7029 214.858C73.4038 215.395 74.0832 215.919 74.7431 216.443C74.7517 216.45 74.7603 216.456 74.7668 216.461H74.769Z" fill="#4F2B2B"/>
<path d="M162.955 295.21L156.325 329.149L196.254 336.95L201.214 314.238C188.492 310.412 176.594 302.999 165.521 295.302L162.957 295.207L162.955 295.21Z" fill="#FFBE97"/>
<path d="M165.518 295.306C176.592 303.001 188.488 310.415 201.211 314.241L205.028 296.757L165.516 295.306H165.518Z" fill="#4F2B2B"/>
<path d="M300.847 265.346L305.466 231.182C306.21 225.683 310.25 221.201 315.644 219.892L339.089 214.203L300.847 265.346Z" fill="#FFBE97"/>
<path d="M359.638 297.804C355.666 311.291 341.492 319.055 328.022 315.027C319.192 312.385 310.316 307.627 305.504 299.095C293.692 278.15 305.636 242.31 305.636 242.31L365.83 276.787L359.638 297.804Z" fill="#FFBE97"/>
<path d="M305.634 242.31L346.35 208.097C349.294 205.722 353.542 205.901 356.277 208.515C359.029 211.146 359.382 215.421 357.099 218.468L326.004 257.924L305.632 242.31H305.634Z" fill="#FFBE97"/>
<path d="M313.43 259.584L347.27 230.007C350.119 227.519 354.372 227.529 357.206 230.033C360.061 232.554 360.581 236.812 358.42 239.947L332.79 277.115L313.43 259.584Z" fill="#FFBE97"/>
<path d="M320.597 273.134L354.437 243.557C357.286 241.069 361.539 241.079 364.373 243.583C367.228 246.104 367.748 250.362 365.587 253.497L339.957 290.665L320.597 273.134Z" fill="#FFBE97"/>
<path d="M325.441 288.669L359.282 259.092C362.131 256.603 366.384 256.614 369.217 259.118C372.073 261.639 372.593 265.896 370.432 269.032L344.802 306.2L325.441 288.669Z" fill="#FFBE97"/>
<path d="M326.704 252.386L326.704 252.386C326.351 252.062 326.33 251.516 326.651 251.167L326.651 251.167L346.631 229.425C346.631 229.425 346.631 229.425 346.631 229.425C346.955 229.073 347.5 229.052 347.85 229.373L347.85 229.373C348.202 229.697 348.223 230.242 347.902 230.592L347.902 230.592L327.923 252.333C327.923 252.333 327.923 252.333 327.923 252.334C327.753 252.519 327.522 252.612 327.288 252.613L326.704 252.386ZM326.704 252.386C326.87 252.536 327.078 252.612 327.286 252.613L326.704 252.386Z" fill="#4F2B2B" stroke="#4F2B2B" stroke-width="0.3"/>
<path d="M340.738 259.25L340.737 259.249C340.384 258.925 340.364 258.38 340.685 258.03L340.685 258.03L357.526 239.702C357.849 239.35 358.397 239.329 358.745 239.651C359.098 239.974 359.118 240.52 358.797 240.869L358.797 240.869L341.956 259.197C341.956 259.197 341.956 259.197 341.956 259.197C341.787 259.382 341.555 259.476 341.321 259.476L340.738 259.25ZM340.738 259.25C340.903 259.4 341.111 259.476 341.319 259.476L340.738 259.25Z" fill="#4F2B2B" stroke="#4F2B2B" stroke-width="0.3"/>
<path d="M320.478 234.672L320.477 234.671C320.125 234.347 320.104 233.802 320.425 233.452L320.425 233.452L337.266 215.125C337.59 214.773 338.138 214.751 338.486 215.073C338.838 215.396 338.859 215.942 338.538 216.292L338.538 216.292L321.696 234.619C321.696 234.619 321.696 234.619 321.696 234.619C321.527 234.804 321.295 234.898 321.062 234.898L320.478 234.672ZM320.478 234.672C320.643 234.822 320.851 234.898 321.059 234.898L320.478 234.672Z" fill="#4F2B2B" stroke="#4F2B2B" stroke-width="0.3"/>
<path d="M351.317 269.448L351.316 269.447C350.963 269.124 350.943 268.578 351.264 268.228L351.264 268.228L362.554 255.942C362.554 255.942 362.554 255.942 362.554 255.942C362.877 255.59 363.425 255.568 363.773 255.89C364.125 256.213 364.146 256.759 363.825 257.109L363.825 257.109L352.535 269.395C352.535 269.395 352.535 269.395 352.535 269.395C352.366 269.58 352.134 269.674 351.9 269.675L351.317 269.448ZM351.317 269.448C351.482 269.598 351.69 269.674 351.898 269.675L351.317 269.448Z" fill="#4F2B2B" stroke="#4F2B2B" stroke-width="0.3"/>
<path d="M80.9494 305.231C100.15 295.269 114.764 297.601 135.77 302.766L235.852 327.382C256.526 332.179 265.04 339.472 270.279 348.395L277.726 361.274L304.708 299.807L360.138 324.216C356.101 345.36 351.883 394.836 340.306 418.296C305.853 488.103 235.546 439.147 235.546 439.147L229.8 459.84H66.3595L78.4067 389.818C78.4067 389.818 0.324598 395.783 1.61644 355.745C3.1412 308.451 30.0952 276.412 30.0952 276.412L85.5258 278.445L80.9494 305.229V305.231Z" fill="#E95D9A"/>
<path d="M186.6 263.974C202.817 262.447 215.181 252.897 214.216 242.644C213.25 232.392 199.321 225.318 183.103 226.845C166.885 228.373 154.521 237.922 155.487 248.175C156.452 258.428 170.382 265.502 186.6 263.974Z" fill="#4F2B2B"/>
<path d="M145.699 291.164C154.285 308.012 180.266 313.347 200.485 303.045C220.704 292.74 227.504 270.699 218.916 253.852C210.33 237.004 186.978 231.698 166.759 242.001C146.54 252.305 137.111 274.316 145.697 291.164H145.699Z" fill="#FFBE97"/>
<path d="M196.468 275.249C199.916 274.396 202.339 272.202 201.881 270.347C201.423 268.493 198.256 267.68 194.808 268.532C191.36 269.384 188.936 271.578 189.394 273.433C189.853 275.288 193.019 276.101 196.468 275.249Z" fill="#FB8876"/>
<path d="M214.493 255.154L225.844 261.523C227.31 262.347 227.539 264.363 226.294 265.493L220.344 270.893L214.493 255.154Z" fill="#FFBE97"/>
<path d="M204.133 280.801L204.133 280.801L204.133 280.801C203.68 280.673 203.197 280.933 203.066 281.394C202.936 281.852 203.199 282.33 203.659 282.461C207.095 283.442 210.637 283.937 214.205 283.937H214.207C214.495 283.937 214.783 283.933 215.071 283.927C215.546 283.916 215.925 283.522 215.914 283.044V283.044C215.904 282.578 215.552 282.179 215.03 282.201C211.334 282.285 207.677 281.812 204.133 280.801Z" fill="#4F2B2B" stroke="#4F2B2B" stroke-width="0.3"/>
<path d="M211.946 263.459C211.197 263.933 210.207 263.711 209.733 262.963L208.346 260.776C207.872 260.028 208.094 259.038 208.842 258.563C209.591 258.089 210.581 258.311 211.055 259.059L212.442 261.246C212.916 261.995 212.694 262.984 211.946 263.459Z" fill="#4F2B2B"/>
<path d="M201.434 260.113C201.521 260.179 201.618 260.226 201.719 260.253L201.688 260.284H201.929C202.172 260.284 202.413 260.176 202.574 259.969C204.356 257.67 206.849 255.863 209.587 254.88L209.587 254.88C210.009 254.728 210.231 254.263 210.079 253.84C209.926 253.415 209.46 253.196 209.039 253.348C206.012 254.433 203.26 256.43 201.29 258.971C201.012 259.325 201.079 259.837 201.432 260.112L201.432 260.112L201.434 260.113Z" fill="#4F2B2B" stroke="#4F2B2B" stroke-width="0.2"/>
<path d="M169.944 234.377C169.944 234.377 191.461 225.338 201.813 231.664C210.259 236.825 209.239 247.069 208.424 248.615L201.643 251.835V246.75L196.387 256.921L187.234 262.176L186.557 254.21C186.557 254.21 176.386 271.5 177.404 281.502L171.81 270.993L169.944 234.377Z" fill="#4F2B2B"/>
<path d="M178.929 235.226C178.929 235.226 167.248 229.013 151.977 238.107C136.891 247.092 128.415 266.416 134.008 284.385C139.6 302.354 124.346 327.272 124.346 327.272L146.383 331.001L150.45 321.001L151.975 332.528L166.892 332.699L174.691 268.792L178.929 235.228V235.226Z" fill="#4F2B2B"/>
<path d="M177.553 286.458C180.848 282.565 180.364 276.738 176.471 273.443C172.579 270.148 166.752 270.632 163.456 274.524C160.161 278.417 160.645 284.244 164.538 287.54C168.43 290.835 174.257 290.351 177.553 286.458Z" fill="#FFBE97"/>
<path d="M168.829 283.208L173.675 280.94C174.455 280.575 174.792 279.646 174.425 278.865C174.061 278.084 173.131 277.748 172.35 278.114L167.504 280.383C166.724 280.748 166.387 281.677 166.754 282.458C167.118 283.239 168.048 283.575 168.829 283.208Z" fill="#4F2B2B"/>
<path d="M78.0618 388.167L78.1893 388.186L78.0618 388.167C77.9916 388.638 78.313 389.079 78.7853 389.148C78.8308 389.157 78.8762 389.159 78.9153 389.159C79.336 389.159 79.7037 388.851 79.7689 388.423L79.7689 388.423L84.8543 354.35L84.8543 354.35C84.9246 353.879 84.6023 353.437 84.1292 353.368C83.6613 353.293 83.2174 353.626 83.1472 354.094L83.1472 354.094L78.0618 388.167Z" fill="#4F2B2B" stroke="#4F2B2B" stroke-width="0.3"/>
<path d="M276.384 362.494L276.384 362.494C276.096 362.11 276.178 361.572 276.558 361.285L276.558 361.285L276.558 361.285C276.942 360.998 277.482 361.079 277.767 361.46M276.384 362.494L277.647 361.55M276.384 362.494C286.146 375.536 294.281 389.772 300.565 404.808M276.384 362.494L300.704 404.75M277.767 361.46C277.767 361.46 277.767 361.46 277.767 361.46L277.647 361.55M277.767 361.46C277.767 361.46 277.767 361.46 277.767 361.46L277.647 361.55M277.767 361.46C287.613 374.615 295.819 388.976 302.16 404.144L302.16 404.144C302.342 404.583 302.137 405.089 301.695 405.272L301.694 405.273C301.587 405.316 301.475 405.34 301.361 405.34C301.025 405.34 300.704 405.142 300.565 404.808M277.647 361.55C287.485 374.695 295.685 389.045 302.021 404.202C302.172 404.564 302.002 404.983 301.637 405.134C301.547 405.17 301.454 405.19 301.361 405.19C301.083 405.19 300.818 405.026 300.704 404.75M300.565 404.808C300.565 404.808 300.565 404.808 300.565 404.808L300.704 404.75M300.565 404.808C300.565 404.807 300.565 404.807 300.565 404.807L300.704 404.75" fill="#4F2B2B" stroke="#4F2B2B" stroke-width="0.3"/>
<path d="M35.0702 329.016L35.0699 329.016C34.6814 329.295 34.5926 329.833 34.8691 330.221H34.8691C35.0367 330.457 35.3034 330.582 35.5714 330.582C35.746 330.582 35.9209 330.53 36.0721 330.423L36.0727 330.422C46.8058 322.758 65.3947 312.024 78.6995 307.229L78.6552 307.106L78.6995 307.229C79.1486 307.067 79.3807 306.571 79.219 306.123L79.2189 306.123C79.0567 305.675 78.5633 305.447 78.1162 305.603L78.1162 305.603L78.1147 305.603C64.5108 310.507 46.1647 321.094 35.0702 329.016Z" fill="#4F2B2B" stroke="#4F2B2B" stroke-width="0.3"/>
</g>
<defs>
<clipPath id="clip0_761_10241">
<rect width="460" height="460" fill="white"/>
</clipPath>
</defs>
</svg>
