<svg xmlns="http://www.w3.org/2000/svg" viewBox="0 0 460 460" xmlns:v="https://vecta.io/nano"><style><![CDATA[.n{fill:#de463b}.o{fill:#e73e3c}.p{fill:#d4503a}.q{fill:#754044}.r{fill:#dedede}.s{fill:#eb3b3c}.t{fill:#403232}.u{fill:#e75243}.v{fill:#4f2b2b}.w{fill:#fbece4}.x{fill:#84524e}.y{fill:#bf7c56}.z{fill:#f2313d}.AA{fill:#de5b44}.AB{fill:#d18455}.AC{fill:#dc955c}.AD{fill:#d46543}.AE{fill:#884f4e}.AF{fill:#c9885a}.AG{fill:#fcf0e9}.AH{fill:#6f4643}.AI{fill:#312624}.AJ{fill:#291e1c}.AK{fill:#201412}.AL{fill:#ffbe97}.AM{fill:#554548}.AN{fill:#e29357}]]></style><defs><clipPath id="A"><path d="M0 0h460v460H0z" fill="none"/></clipPath></defs><g clip-path="url(#A)"><path d="M0 0h460v460H0z" fill="#fff"/><path d="M-170 18.3c.1.1.3.3.5.4.4.3.8.4 1.3.5l-1.5 32.8-33.3 4.6c-.2-.5-.4-1-.8-1.3l33.8-37h0zM-76.8 98c-.5.3-1 .7-1.3 1.2-.3.5-.5 1-.6 1.7l-22.4.7.8-54.7c.4 0 .7 0 1-.2L-76.8 98zm83 28.8c-.1.5-.1 1 0 1.6L-57 153.5l-16.5-49.2c.6-.3 1-.7 1.5-1.2.1-.2.3-.4.3-.7l78 24.3h0zm51-6.7c.2.8.7 1.5 1.5 2 .1.1.3.2.4.2l-20 54c-.8-.2-1.6-.1-2.3.2l-25-46c.4-.3.8-.6 1-1 .4-.7.6-1.5.6-2.2l44-7.2h0zm79-10c.1.3.2.7.4 1l-56.7 39.3L62.5 122c.3-.2.6-.5.8-1 .4-.6.6-1.3.6-2l72.2-9zm13.3 51c-.8 1.2-.8 2.8 0 4l-4.8 4-4.5-55.5 11 46.2c-.7.2-1.3.7-1.8 1.4h0zm217 17.3c0 .8.3 1.5.7 2.2L309.5 234l-42-59.8c.3-.2.5-.4.7-.7.3-.4.5-1 .5-1.4l97.7 6.5h0zm16.2-43c1 .3 2.4 0 3.2-.8l31.4 29.2-44 13.3c-.3-.6-.7-1.2-1.3-1.6-.2-.1-.4-.2-.6-.3l11.3-39.8zm122 1.4c0 .2 0 .3.1.5L418 163.5 386.4 134h.1c.4-.5.5-1 .6-1.7l117.7 4.6zm-27.5 78c-1.2-.3-2.4-.1-3.3.8L418.6 164l86.3-26c.3.6.7 1.2 1.3 1.6.1.1.2.2.4.2l-29.4 75h0zm-102.6 72c-1-.7-2.3-.7-3.4-.2l30-31-26.6 31.3h0zm20 48.3c-.4.3-.8.6-1 1-.2.2-.3.5-.4.7l-30.3-8L372 293c.6.1 1.3.1 2-.2l20.6 42zM361.3 422L348 366.8l3-2c.2.3.5.5.8.7.6.4 1.4.6 2 .6l7.4 56h0zm-84 49.6c-.6.1-1 .4-1.6.8l-79-77.8 70.2 24c-.3 1.4.2 3 1.5 3.8 1.3 1 3 .8 4-.2l4.7 49.6h0zM186.8 328c.5-.1 1-.3 1.3-.6l40.3 45.3-32.6 20.8-9-65.5h0zm-53-22.6c.2-.7.1-1.4-.1-2l37.5-18 13.4 36c-.6.3-1 .7-1.4 1.2-.1.1-.2.3-.2.5l-49.2-17.7h0zM-15 298c0-.4-.1-.8-.3-1.2L49.2 261 126 302-15 298h0zm-33.3-117c.4-.1.7-.3 1-.6l59 59.5-.2.3c-1 1.6-.7 3.7 1 4.8L-17 295c-.7-.3-1.4-.4-2-.3l-29.3-113.8h0zm-53.4 7c-.2-.7-.7-1.4-1.4-2-.3-.2-.7-.4-1-.5l1.6-10c1.2.1 2.4-.5 3-1.6.3-.4.4-.8.5-1.3l46 5c0 .1 0 .3 0 .4l-48.7 10h0zm-110.7-74.7c.1-.1.3-.3.3-.4.4-.7.6-1.4.6-2.2l25.6-4 28.3 67.2c-.2.1-.3.2-.4.3l-54.4-60.7zM-205 61l19 45-25.4 4c-.2-.8-.7-1.5-1.5-2-.3-.2-.7-.4-1-.5l7.6-46c.5 0 1-.1 1.5-.3zm33 39.4c-.6 0-1.2.2-1.7.5L-203.8 60c.1-.1.2-.2.3-.4.5-.7.7-1.6.6-2.4l33-4.6-2 47.7zm68.3-57c0 .4.2 1 .3 1.3l-66 56.6c-.2-.2-.3-.3-.5-.4-.5-.3-1-.5-1.5-.5l2-47.8 65.5-9h0zm2 58l-66.6 2c-.1-.6-.3-1-.6-1.6l66-56.5c.2.3.5.6 1 .8.4.3.8.4 1.3.5l-.8 54.8h0zM-77 104c.1.1.3.2.4.2l-24.8 64.3c-.2-.1-.4-.1-.6-.1l1-66.3 22.5-.7c.1 1 .6 2 1.5 2.6zm19.3 49.8l-41.5 16.6c-.3-.5-.7-1-1.2-1.3l-.4-.2 19.8-51.3 5-13c.6.2 1.2.2 1.8 0l16.5 49.3h0zm64.3-24.4L-47 175c-.1-.2-.3-.3-.5-.4-.8-.6-1.8-.7-2.7-.5l-6.7-20L6.3 129c.1.1.1.3.2.4h0zM36 176.8c-.4.3-.7.6-1 1-.3.5-.5 1-.6 1.5l-22.3-.6L9.8 131c.3 0 .7-.1 1-.2l25 46h0zm71.2 19.8c-.3.2-.6.5-.8 1 0 .1-.1.2-.1.2l-64.8-17.3c.1-.8 0-1.6-.4-2.3l38.6-26.7 27.5 45.3zm4.6.3c-.2-.2-.3-.3-.5-.4l-.5-.3 28.2-83.4c.3.1.5.1.8.1l4.6 56.7-32.5 27.3zm36.7 24c-1 .2-1.8.7-2.3 1.5 0 0 0 0 0 0L112.3 201c.6-1.2.4-2.5-.3-3.5l32-27 4 50.5h0zm2.2-55c.4.3 1 .5 1.4.6l-3 53-4-49.7 5-4.3c.2.2.3.3.5.4h0zm104.8 57.2l-102.8 1c0-1-.6-2.2-1.6-2.8-.4-.3-1-.5-1.4-.6l3-54.3c1 0 2-.6 2.8-1.5l100.4 56.6c-.3.5-.4 1-.4 1.5h0zm10.2-48.3l11.6 85h-.3l-16-34c.4-.2.7-.6 1-1 1-1.6.6-3.8-1-5-.4-.2-.8-.4-1.2-.5l5.7-45h.3 0zm14.7 86c-.1-.1-.3-.2-.4-.3-.6-.4-1.4-.6-2-.6l-11.6-85c.3-.1.6-.2 1-.4l42 60-28.8 26.5h0zm46.4-1.4c-.2.2-.5.4-.7.7-.4.5-.5 1-.6 1.7l-44 1c-.1-.6-.3-1.2-.7-1.7l28.7-26.5 17.3 24.6h0zm41.5-78l.2.1-38 77.4c-1-.4-2-.3-3 .2L310 234.4l58-53.4.4.3zM473.3 216c-.1.1-.2.3-.2.4l-99.6-37.3c.1-.5.1-1 0-1.6l44.4-13.4 55.6 51.7h-.1 0zM418 202.5c-1.6-1-3.7-.7-4.8 1L373.5 180l98.7 37-52.7-11c.1-1.3-.4-2.6-1.6-3.3h0zm-11.3 41.8l-13-24 19.7-12.8c.2.3.5.5.8.8s.6.4 1 .4l-6.6 35.3c-.6-.1-1.2 0-1.8.3h0zm-74.3 16.8l-.3-.7 61-39.7 13 24c-.4.3-.7.6-1 1-.5.7-.7 1.6-.6 2.4l-72.2 13.2h0zm6.6 58h-.2c-.6-.4-1.4-.6-2-.6l-7-52.8c1-.2 1.6-.7 2.2-1.5.5-.7.6-1.5.6-2.3l72.2-13.2c.1.5.4 1 .8 1.3L339 319h0zm31-27.5l-26.6 24 26.2-27.2c-.5 1-.3 2.4.3 3.3zm-29.7 31c.2-1-.1-2-.6-2.7l30.7-27.6c.2.2.4.3.6.5.2.1.4.3.6.3l-9.2 35.5-22-6h0zm14.2 36.5c-.6-.1-1-.1-1.6.1l-14.3-34c.5-.3 1-.7 1.3-1.2.2-.2.3-.5.4-.7l22 6-7.8 30zm39-19.6l-36.6 21c-.2-.4-.6-.7-1-1-.2-.2-.5-.3-.8-.4l7.8-30 30.3 8c-.1.7 0 1.4.3 2h0zM273 417c-.1-.1-.3-.3-.4-.4v-.2L335 325c.7.4 1.5.5 2.2.4l10 41.2-74 50.6h0zm-5.3-.1c-.1.1-.2.3-.4.4s-.2.3-.3.5l-71-24 32.5-20.8 39 44h0zm-79-90.3l54.6 36.3-14.5 9.3-40.3-45.3.2-.2zm-17-41.6l56.7-27c.2.4.5.7.8 1l-41.5 62.4c-.8-.4-1.7-.5-2.6-.3l-13.4-36h0zm-39.5 16.5c-.3-.2-.6-.3-.8-.4l17-73.3c.4.1.8.1 1.3 0l21.2 57-37.6 18c-.3-.4-.6-.8-1-1zm-49.5-59c.3.4.6.7 1 1 1.2.8 2.6.8 3.7.1l40.6 58.3c-.2.1-.3.3-.5.5L50 260.5l32.8-18.2h0zm-64.8 1c.1-.4.2-.7.3-1l64-1.5c0 .4.1.7.3 1l-33 18.4-31.4-17h0zm-64.4-64c.3-.5.5-1 .6-1.5l57.4 1.5 2.7 59c-.6.1-1.2.3-1.8.8l-59-59.5.2-.3zm82.4 3.2c.1.1.3.2.4.2l-20.8 55.7c-.2-.1-.5-.1-.8-.1l-2.7-59 22.3.6c.1 1 .6 2 1.6 2.7h0zM145.5 225l-30 7.5-6.2-29.6c1 0 2-.5 2.8-1.4l33.7 21.5c-.3.7-.3 1.4-.2 2h0zm111 1l-23 27.3v-.1c-1.6-1-3.8-.6-5 1l-.2.4-69.4-26.6-6.6-2.5c.1-.2.1-.5.2-.7l103-1c.1.8.5 1.6 1.2 2h0zm2.4.8l1.6 33.4-25.7-3.8c.1-1-.3-2-1-2.7l23.2-27.4c.6.3 1.2.5 2 .5h0zm67 37.2l-27 20-18.3-18.2c.1-.1.1-.2.2-.3.4-.5.5-1 .6-1.7l44-1c.1.5.2 1 .5 1.4h0zm8.5 55.2l-35-34.8 27-20c.2.2.4.4.7.6.6.4 1.4.6 2 .6l7 52.8c-.5.1-1 .4-1.5.7zm-62.4 97c-.5-.3-1-.4-1.6-.4l-4-60 67-32c.2.3.5.6.8 1L272 416.2zm-27-48.4c1 .6 2 .7 3 .4l5.8 13.4 15 34.7-.4.2-39-43.8 14.3-9.2c-.6 1.5-.1 3.3 1.3 4.3zM189.5 324l50-9 6.6 46.4c-.7.2-1.4.6-2 1.2L189 326c.3-.6.5-1.3.4-2zm40.2-65c.6.3 1.2.4 1.8.4l7.8 54.8-50 9c-.2-.7-.6-1.3-1.2-1.8l41.5-62.4zm-77.8-33v-.1l45 17.2 31 12c-.2.7-.2 1.5.1 2.2l-56.6 27-21.2-57c.6-.3 1.2-.7 1.6-1.3zm111 81c-.3 0-.6.1-.8.2L233.4 259c.3-.2.6-.5 1-1 .2-.4.4-.7.5-1l25.8 3.8 2.3 46.4h0zm13-40.8c.1.1.3.2.5.3l-12 40.7c-.3-.1-.6-.2-1-.2l-2.3-46.2 13.2 2c-.2 1.3.3 2.7 1.5 3.5h0zm-10 42c-.2-.2-.4-.4-.7-.6l-.2-.1 12-40.7c1 .3 2.3 0 3-.7l18.3 18-32.5 24zm67.8 11.6c-.2.4-.4.7-.5 1L266.8 311c0-.7-.1-1.4-.5-2l32.6-24 35 35c-.1.1-.1.2-.2.3h0zm-70-5.8c1-.1 1.8-.7 2.4-1.5.2-.4.4-.7.5-1l66.4 10.2c0 .5.1 1 .2 1.4l-67 32-2.6-41h0zm-14 49c-.3-.4-.6-.8-1-1-.2-.1-.4-.2-.6-.3l5-17 9.3-30.5c.2 0 .4.1.6.1l2.7 41.3-16 7.6h0zm10-51.7c.2 1 .7 1.7 1.5 2.2.2.1.4.2.6.3l-14.4 47.5c-.3-.1-.6-.1-1-.1L240 315l19.8-3.6h0zm-27-52l28.4 48.4c-.3.2-.6.5-1 1-.4.6-.6 1.3-.6 2l-19.8 3.6-7.8-54.7c.2-.1.5-.1.7-.2h0zM269.3 416l-12.8-29.7-8-18.4c.5-.3 1-.6 1.3-1 .7-1 .7-2 .4-3.2L266 356l4 59.8c-.2 0-.4.1-.5.1h0zM115.6 233l30-7.5c.3.6.7 1.2 1.3 1.6.2.2.5.3.7.4L137.4 272l-6.7 28.8c-.3 0-.6-.1-1 0l-14.2-67.8zm13 68.2L88 243c.2-.2.4-.4.6-.7.5-.8.7-1.7.5-2.5l26-6.5 14.3 67.8c-.2.1-.5.2-.7.3h0zM18 240.7l49.5-23 15.8 20c-.2.2-.4.4-.6.7-.3.5-.5 1-.6 1.6l-64 1.5c0-.3-.1-.5-.2-.8zm69.6-3.3l1.7-3.2 17.3-32.5c.2.2.4.4.7.6.4.3.8.4 1.3.5l6.3 29.8-26 6.5c-.2-.7-.7-1.3-1.4-1.7h0zm18-37.6c.1.4.2 1 .5 1.3L88.7 234 87 237c-1-.4-2.3-.3-3.2.3l-15.7-20 37.7-17.6h0zm-65.4-17.6c.2-.2.4-.4.5-.6.2-.2.3-.5.4-.7l64.7 17.3c-.1.3-.2.6-.2 1l-38 17.7-27.3-34.7h0zM16.6 239l-.4-.2L37 183c1 .3 2 .1 2.8-.4L67 217.2l-49.3 23c-.3-.4-.6-.8-1-1.2zm355-57.4l21 38.7-61 39.7c-.2-.3-.5-.5-.8-.7 0 0-.1 0-.1-.1l38-77.4c1 .3 2 .3 2.7-.1h0zm41.2 22.4c-.5 1-.4 2.2.1 3.2L393.2 220l-21-38.7c.3-.2.6-.5 1-1l39.8 23.6h0zM260 226.5l16 34c-.5.3-1 .6-1.2 1-.2.2-.3.5-.4.7l-13.4-2-1.6-33.5c.2 0 .4-.1.6-.2h0zM7 129.8c.2.2.4.4.7.6.5.3 1 .5 1.6.6l2.2 47.7-57.3-1.5c0-.6-.3-1.3-.6-1.8L7 129.8h0zm-106 41l41.5-16.5 6.7 20c-.6.3-1 .7-1.5 1.3-.3.4-.4.8-.5 1.3l-46-5c0-.3 0-.7-.1-1zm-5.8 14.5c-.7 0-1.5.2-2 .6l-9.8-12.5 11-1c.2 1 .7 1.7 1.5 2.3.3.2.7.4 1 .5l-1.6 10zm-47.5-8.7l34.8-3.2 10 12.8c-.2.2-.4.4-.5.6-.2.3-.3.5-.4.8l-44-10.6c0-.2 0-.3 0-.5h0zm-1.6-3c-.7-.5-1.6-.7-2.4-.6l-14.5-66c.3-.1.6-.2.8-.4l52 66-34.4 3c-.2-1-.7-1.7-1.5-2.3h0zm-21.3-69c.2.8.7 1.5 1.5 2 .7.5 1.6.7 2.4.6l14.5 66-28.3-67 10-1.6h0zm70.6 64.4l-38-37.3L-169 106v-.3c.4-.5.5-1 .6-1.7l66.6-2-1 66.3c-.7.1-1.4.3-2 .8h0zM-116 159l11 10.7-.2.3c-.4.6-.6 1.3-.6 2l-11.3 1-51.3-65.3L-116 159zm-88.4-98.3c.1 0 .1-.1.2-.1l30 40.7c-.2.2-.4.4-.6.7-.4.7-.6 1.4-.6 2.2l-10 1.6-19-45zm189 235.4c-.2-.3-.5-.6-1-1L13 245c1.6.7 3.4.2 4.4-1.2l31 16.7-64 35.6zm375 130c-.3.4-.4.8-.5 1.3l-85-8c0-.6-.1-1.2-.4-1.7l74-50.4 14 57.6c-.7.2-1.4.7-1.8 1.4h0zm-11.7-60l-9.8-40.4 14 33.6c-.5.3-1 .7-1.3 1.2-.7 1-.8 2.5-.1 3.6l-3 2zM137 111.6c.2.3.5.5.8.7.2.1.3.2.5.3L110 196c-.8-.2-1.6-.1-2.3.3L80 151l56.8-39.3h0zm-75 10.7l17.3 28.4-38.6 26.7c-.2-.2-.5-.5-.7-.7l-.4-.2 20-54c.8.2 1.7.1 2.5-.2zm-229.6-103c1 0 2.3-.6 3-1.6.1-.2.2-.4.3-.6l24 9.7 37 15c-.1.3-.2.6-.2 1l-65.4 9 1.5-32.7h0zm-49.2 94.5c1.3.8 3 .8 4-.1l54.4 60.7c-.1.1-.2.3-.3.4-1 1.6-.6 3.8 1 5s3.8.6 5-1c.2-.3.3-.5.4-.8l44 10.6c-.2 1.3.4 2.7 1.5 3.4 1.6 1 3.8.6 5-1 .5-.7.7-1.5.6-2.3l48.7-10c.2.8.7 1.4 1.4 2 .8.5 1.7.7 2.5.5l29.3 113.8c-.7.2-1.3.7-1.7 1.4-1 1.6-.6 3.8 1 5s3.8.6 5-1c.3-.5.5-1 .6-1.5l142 4.3c-.8 1.6-.3 3.6 1.2 4.6 1.6 1 3.8.6 5-1 .1-.1.2-.3.3-.5l49.2 17.7c-.4 1.4.2 3 1.5 3.8.7.4 1.4.6 2 .6l9 65.5-.8-.3 1 1v.4l.2-.1 79.8 78.6-.2.3c-1 1.6-.6 3.8 1 5s3.8.6 5-1 .6-3.8-1-5c-.6-.4-1.3-.6-2-.6l-4.8-50 .2-.2c.3-.4.4-.8.5-1.3l85 8c0 1 .6 2.3 1.6 3 1.6 1 3.8.6 5-1s.6-3.8-1-5c-.6-.4-1.4-.6-2-.6l-7.8-58.7c1-.2 1.6-.7 2-1.5.7-1 .8-2.3.3-3.4l36.6-21c.2.4.6.7 1 1 1.6 1 3.8.6 5-1s.6-3.8-1-5c-1-.6-2.2-.7-3.2-.4l-20.6-42c.4-.3.8-.6 1-1 1-1.4.7-3.4-.5-4.5l31-36.5c1.6 1 3.8.6 5-1 1-1.6.6-3.8-1-5-.3-.2-.6-.3-1-.4l6.6-35.3c1.3.1 2.5-.4 3.3-1.6.2-.3.3-.6.4-1l53.4 11c-.1 1.3.4 2.6 1.6 3.3 1.6 1 3.8.6 5-1s.6-3.8-1-5l-.4-.2 29.4-75c1.4.4 3-.1 4-1.4 1-1.6.6-3.8-1-5s-3.8-.6-5 1c-.3.5-.5 1-.6 1.5L387 131.4c-.1-1-.6-2-1.6-2.6-1.6-1-3.8-.6-5 1s-.6 3.8 1 5c.2.1.3.2.5.3l-11.3 40c-1.4-.3-2.8.3-3.7 1.5-.3.4-.4.8-.5 1.3l-97.8-6.5c0-1-.6-2.2-1.6-2.8-1.6-1-3.8-.6-5 1s-.6 3.8 1 5c.4.3.8.4 1.2.5l-5.7 45c-1.2 0-2.4.5-3 1.6l.2-.3-100.4-56.6c.7-1.5.2-3.4-1.3-4.4-.7-.5-1.6-.7-2.4-.6l-11.2-46.8c.7-.2 1.3-.7 1.8-1.4 1-1.6.6-3.8-1-5s-3.8-.6-5 1c-.4.6-.6 1.3-.6 2l-72.2 9c-.2-1-.7-1.7-1.5-2.2-1.6-1-3.8-.6-5 1-.5.7-.6 1.5-.6 2.2l-44 7.2c-.2-.8-.7-1.5-1.5-2-1.6-1-3.8-.6-5 1l-.3.5-78-24.4c.3-1.3-.3-2.8-1.5-3.6-1-.6-2-.7-3-.4l-22.4-51.4c.5-.3 1-.7 1.3-1.2 1-1.6.6-3.8-1-5-1.6-1-3.8-.6-5 1 0 0 0 0 0 0l-40-16.2-21-8.6c.3-1.4-.3-2.8-1.5-3.6-1.6-1-3.8-.6-5 1-.8 1.3-.7 3 .1 4l-33.8 37-.1-.1c-1.6-1-3.8-.6-5 1s-.6 3.8 1 5c.4.3.8.4 1.2.5l-7.6 46c-1.2-.1-2.4.5-3.2 1.6-1 1.6-.6 3.8 1 5z" fill="#bf8888"/><path d="M191.5 90h178v175h-178z" fill="#9de8fb"/><path d="M267.5 142.4c0 .5.4 1 1 1 .4 0 .8-.4.8-.8 0-.5-.4-1-1-1-.5 0-.8.3-.8 1zm-9.6 14.8h.3c.5 0 .5-.4.6-.8.1-.3-.1-.4-.3-.6-.3-.2-.6-.4-1-.6-.2-.1-.5-.2-.5-.1-.1.2-.2.4-.2.6 0 .2.1.5.1.7.1.6.3.7 1 .7h0zM248 170v.3c.1.8.6 1.4 1 1.5.6.1 1-.3 1.4-1l1-2.3 1-2.2c.1-.1-.1-.3-.1-.5-.2 0-.4 0-.6.1l-3.3 3c-.4.3-.5.7-.5 1h0zm9-20.7c-.2.3-.4.5-.6.8-.6.5-.8 1-.3 1.8.1.2.1.4.3.6.1.1.1.3.3.3.6.4 1.8.5 2.4.1.7-.4 1-1 1.2-1.8.1-.3.2-.6.4-.8l3.4-2.3 2-.3c.3 0 .4-.2.4-.5-.1-.7-.2-1.3-.4-2 0-.1-.2-.3-.3-.3-.1 0-.3.1-.4.2-.1.1-.1.2-.2.3-.4 1-1 1.8-2.3 1.7-1 0-1.7 0-2.6 0-.7 0-1.3.2-1.8.7-.5.5-1 1-1.3 1.6zm-3.2-1.4l1-1.8h.1l.8-.7h2.2c.4 0 1 .3 1.3.4l1.4.4c.6.1 1.3 0 1.8-.4l.6-.6c.5-.4.7-.8.8-1.4l.1-.3h0c.1-.1.1-.2.2-.3l.4-.7.4-.6 1-1.8.1-.3.5-.8.3-.6c.1 0 .2.1.2.1l.7 1c.4.6 1 .5 1.7.6.4.1.3-.4.5-.6.3 0 .6 0 .8-.1.8-.2 1.3-.1 1.8.6.2.3.4.7.6 1 .2.2.6.4 1 .5l.1 1.7-.1 2v3c0 .7-.4 1.3-1 1.8-.8.6-1.6.6-2.5.4-1.7-.3-3.3 1-3.2 2.7l.3 3c-.7 0-1.2.3-1.6 1l-.6 1c-.8 1.4-1.6 3-3.2 3.7-.6.3-1.2.7-1.4 1.5a6 6 0 0 1-.2.9l-1 3c-.2 1-.7 1.7-1.6 2.2-1 .5-1.3 1.2-1.6 2.2-.4 1.5-1 3-1.3 4.6-.2 1-.7 1.4-1.6 1.6-.5.1-1 .2-1.3.5-.7.5-1.2 1-1.8 1.7-1 1-2 .8-2.7-.4-.4-.7-.1-1.4 0-2.2.1-1.2.1-2.4-1-3.2-.4-.4-1-.6-1.5-.3l-1.6 1c-.6.4-1.2.4-1.6-.1-.2-.2-.4-.4-.6-.6-.6-.7-1.2-1.3-1-2.3l.8-4.4c.1-.5.4-1 1-1l4.3-2.2c.5-.3 1-.5 1.6-.7.7-.2 1.5-.4 2.2-.5 1-.2 1.4-.8 1.4-1.8l.1-3.4.2-4.5c0-.2-.2-.3-.3-.5l.6-1.3.5-.8c.5-.6.8-1.3 1-2h0z" class="AM"/><path d="M316 164.2l2 3 1.3 2c.1.1.1.3.1.4l3 4.8-.1 1c-.1.6-.2 1-.3 1.7 0 .1-.1.2-.1.2-.4 1.3-.8 2.7-1 4-.3 1.2-.8 2-2 2.4l-4.2 1c-.6.2-1.2.3-1.8.7-.7.4-1 1.2-1 2-.1.8-.4 1.5-1.2 2-1.4.7-2.7 1.5-4.2 2-.6.2-1.3.4-1.7 1l-1.2 2c-.3-.1-.6-.2-1-.4l-5.7-3.2.7-1.7 1.2-3.2c.3-.7.7-1.3.8-2 .1-1 0-2.2-.1-3.3-.1-.8-.2-1.6-.3-2.3l-.4-3-.5-4.2-.3-3-.3-2.4-.5-4.2c-.1-.5-.2-1-.4-1.6.7.1 1.4 0 1.8.8.2.4.6.5 1 .1.4-.4 1-.3 1.4-.3.7 0 .7.6 1 1 .1.1.1.2.1.3.2.4.5.4 1 .4h.5c.1 0 .1.1.2.1-.3.4-.6.8-1 1.2-.3.2-.7.4-1 .5-1 .1-1 0-1.4 1 0 .1 0 .1-.1.2-.2.4-.2.8 0 1.2l1 1.8c.3.7.8 1.3.7 2.2v4.6c0 .4.1.8.3 1 .7.8 1.6 1.6 2.3 2.4.3.3.7.3 1 .2l3-1.7c.3-.2.4-.3.3-.7a274 274 0 0 1-1.2-4.1c-.2-.6-.4-1.2-.3-2 .2-1.2 1.6-2 2.7-1 1 .8 1.8 1.5 3 2 .3.1.6.2 1 .2.4 0 .6-.2.5-.6-.4-1.5-.8-3-1.4-4.5-.4-1-1-1.8-1.5-2.8-.4-.7-.6-1.5-.4-2.3.2-.7.6-1.4 1-2 .1-.3.3-.4.6-.3h.1c.1.1.1.1.2.2 0 .1 0 .2 0 .3h.1c0 .1.1.1.1.2 0 0 0 0 0 .1 0 0 .1 0 .1 0l.6.8c.3.6.7 1 1 1.7.1.6.5 1 1 1.4l.6.8h0z" class="t"/><path d="M290.2 137.3c0-.4-.3-.6-.7-.6s-.7.3-.7.6.4.7.7.7c.4 0 .7-.3.7-.7h0zm16 26.5c0-.5-.3-.8-.6-.8-.5 0-1 .3-1 .6 0 .3.7 1 1 1 .4 0 .6-.2.6-.7h0zm-7-18c0-.8-.2-1-1-1.4-.5-.2-1-.3-1.4-.8-.2-.3-.5-.5-.8-.7-.1-.1-.4-.1-.5 0-.1.1-.2.3-.1.4.1.3.1.6.3.8l1.7 2.7c.1.1.2.2.3.2.6.1 1.5-.7 1.5-1.3h0zm13 12.7c-.3-.2-.5 0-.6.3l-1 2c-.2.8 0 1.6.4 2.3.5 1 1 1.8 1.5 2.8.6 1.5 1 3 1.4 4.5.1.4-.1.7-.5.6-.3 0-.6-.1-1-.2-1-.4-2-1.2-3-2-1-1-2.5-.1-2.7 1-.1.7.1 1.3.3 2l1.2 4c.1.3 0 .5-.3.7l-3 1.7c-.4.2-.7.2-1-.2-.8-.8-1.6-1.6-2.3-2.4-.2-.3-.3-.7-.3-1V170c0-.8-.4-1.5-.7-2.2l-1-1.8c-.2-.4-.2-.8 0-1.2 0-.1 0-.1.1-.2.4-1 .4-1 1.4-1 .4 0 .7-.2 1-.5.4-.3.7-.8 1-1.2h-.2c.8-.1 1-.2 1-1 .1-.4 0-.8-.4-1l-2.5-2c-.3-.2-.6-.3-1-.2h-.4l-2.5.6c0 0 0-.1 0-.1-.8-1.2-1.6-2.5-2.5-3.7-.5-.7-1-1.4-2-1.7-.8-.3-1.5-.8-2-1.6-.7-1.3-1.8-2.5-2.4-4l-2.3-4.6-.6-1.4c-.2-.3-.4-.7-.6-1l-.3-1.4-.6-3c.7-.1 1.4.2 2 .5.6.3 1 .2 1.5-.3.2-.3.4-.6.7-.8.6.2 1-.2 1.2-.6l1-1c.1.1.2.1.3.1l.4.3 3 2.5 5.7 5 .6 1.2.6 1.3.3.6v.2c-.1.1-.2.3-.3.4 0 .4-.1.8 0 1 .2.8-.1 1.4-.6 2l-1 1c-.3.3-.3.7-.1 1 .3.4.6.8 1 1 .7.6 1.3 1.3 1.7 2.2.2.3.3.6.6 1 .4.4.7.5 1 .3.4-.2.5-.6.3-1l-.6-1.5c-.2-.5-.1-1 .4-1l.7 1.8.5 2c0 .1.2.2.4.3.4.8 1.2 1 2 1l1.6.2c.2.1.5.1.7.2.1 0 .1 0 .2 0l1 .2.2.2 1 1.2h0z" class="AM"/><path d="M322.5 174.4l-3-4.7c-.1-.1-.1-.2-.1-.4l5.3 3 7.2 4 1.4.7 3.4 2c.1.1.3.1.4.2l1.2.8c.7.4 1.4.7 2 1l4.8 2.6 3.5 2 .4.3-5.5 3c-.5.3-1 .5-1 1.2 0 .6-.4 1-1 1-.4.2-1 .4-1.3.5-.4.1-.7 0-1 0-.2 0-.4-.1-.6 0-.4.2-1 .5-1.3.7l-.8.3c-.5.2-.7.5-.6 1 .1.5-.2.8-.6 1l-1.7 1c-.3.2-.6.3-1 .5-.3-.2-.6-.4-.4-.8 0-.1 0-.1 0-.2-.1-.3-.3-.6-.4-1-.1-.5-.5-1-1-.8-.3.1-.6.3-1 .4-.3.1-.6.1-.8.1-.1 0-.1-.3-.1-.4 0-.1 0-.3-.1-.3-.4-.3-.2-.4.1-.6.7-.4 1.4-.3 2-.3.2 0 .5-.1.5-.1 0-.5 1-.6.7-1.3 0 0 .2-.2.3-.2.4-.1.7-.1 1-.1.2 0 .4-.2.4-.4.1-.5.1-1 .1-1.5 0-.5.5-1 1-1 1 .1 2-.1 3-.4.1 0 .2-.1.3-.2.3-.5.4-1 .5-1.6.1-.4.1-.7-.2-1-.1-.1-.2-.2-.2-.3 0-.5-.3-.8-1-.8h-2.2c-.2 0-.4 0-.5-.1-.7-.3-1-1.3-.6-2 .2-.4 0-.7-.4-.7-.5 0-1 .1-1.4.2-.7 0-1.4.1-2 0-.5-.1-1-.2-1.4-.2.1-.8-.2-1.6-.4-2.3-.1-.3-.3-.5-.7-.5l-1.7.1c-.2 0-.5.1-.7.2-.7.3-1 0-1-.8 0-.7-.2-1.3-1-1.7-.2-.1-.5-.3-.7-.4-.2-.1-.4-.1-.6-.2h0z" class="AE"/><path d="M266.8 138.4c-.1 0-.2-.1-.2-.1l-.4-2c0-.2 0-.5.1-.7l1.3-2h0 0l.2-.4v-.3h0 0 0c0-.1.1-.1.1-.2.1-.1.1-.1.2-.2l.1-.2 2.4-3.7c.2-.4.5-.5 1-.3l1.8.6.1.3c.2.6.3 1 .3 1.7 0 .4.1 1 .3 1.3 0 .1.3.2.5.2.5-.1 1-.3 1.4-.4.2-.1.5 0 .7 0 .4.1.6.2 1-.1.4-.4.8-.7 1.2-1 .4.2.7.2 1 0 .2-.1.4-.1.6-.1l2-.6h.1c.8.1 1.5-.3 2.2-.8l.8-.1.8-.1c.1 0 .1-.1.1-.2.2 0 .4.1.5.1.4-.2.8-.1 1 0 .3.3.6.7 1 1 .1.1.1.2.2.3-.1.1-.3.2-.3.3-.2.4-.5.6-1 .6h-1c-.4 0-.7.2-.7.6 0 .7-.4 1-1 1-.1 0-.4 0-.4-.1-.5-.7-1.2-1-2-.7-.3.1-.7.2-1 .2-.5.1-.8.3-1 .7-.4.3-.7.6-.8 1-.1.7-.1 1.4-.1 2.2v.2l-1-.1-.4-.2c-.2-.1-.4-.2-.5-.2-.6 0-.8-.1-1-.7-.1-.5-.1-1-.3-1.4-.1-.2-.4-.4-.6-.6-.1-.1-.3-.1-.4-.1-1-.5-1.8-.6-2.7-.1-.4.2-.8.4-1.2.6-.4.2-.6.2-1-.1-.1-.2-.3-.3-.5-.4-.2-.2-.4-.4-.7-.1-.1.1-.2.1-.2.1l-.5 1.3-.2.6c-.2.3-.6.5-1 .4-.1 0-.2-.4-.3-.7 0-.1 0-.3-.1-.4 0-.1-.1-.2-.2-.2-.1 0-.2.1-.2.1-.1.3-.2.7-.2 1 0 .3 0 .5-.4.6-.1 0-.2.2-.2.3v1.8h0z" class="u"/><path d="M281.2 133.3c.1-.5.4-.7 1-.7.3 0 .7-.1 1-.2 1-.2 1.5 0 2 .7.1.1.3.2.4.1.5-.2 1-.4 1-1 0-.4.3-.6.7-.6h1c.4 0 .8-.2 1-.6.1-.1.2-.2.3-.3l.3.4 1 1.4v.7c0 0-.1.1-.1.1l-.4.5c-.4.3-.7.7-1 1-.3.3-.6.8-1.2.6l-.1-.2c-.4-.7-.7-.7-1.2 0-.1.2-.4.4-.7.4-.2 0-.4-.2-.6-.4-.3-.2-.4-.6-.8-.8-.4-.2-1-.1-1.4-.2h-.2c0 0 0 0-.1 0l-1 .2c-.7.1-.7-.5-1-1h0z" class="z"/><path d="M303.8 151.3c-.5.2-.6.5-.4 1l.6 1.5c.2.5.1 1-.3 1-.4.2-.7.1-1-.3-.2-.3-.4-.6-.6-1-.4-.8-1-1.6-1.7-2.2-.4-.3-.7-.7-1-1-.3-.4-.3-.7.1-1l1-1c.5-.6.8-1.2.6-2-.1-.4 0-.7 0-1 0-.1.2-.3.3-.4l.8 2c0 .1-.1.1-.1.2l.5 1.5h.1c.1.1.2.1.2.2l1 2.7h0z" class="t"/><path d="M275.5 129.4c.1.1.1.2.2.2l3 1.3c-.4.3-1 .7-1.2 1-.3.3-.6.2-1 .1-.2-.1-.5-.1-.7 0-.5.1-1 .3-1.4.4-.1 0-.4-.1-.5-.2-.1-.4-.3-1-.3-1.3.1-.6 0-1-.2-1.7 0-.1-.1-.2-.1-.3l1.4.4c.2 0 .4 0 .6 0h0z" class="AA"/><g class="r"><path d="M317.2 128c0-.4.2-.6.6-.7.4 0 .7 0 1 .4a3 3 0 0 0 .5.7c.3.3.3.8 0 1-.4.3-.8.4-1-.1-.4-.5-1-1-1-1.5h0zm-10 .5c0 .5-.4.8-.8 1-.4 0-.8-.4-.8-1 0-.4.4-.8.8-.8s.8.4.8.8zm-47-.3c0-.6.2-.7.7-.8.5 0 .8.3 1 1 0 .4-.4.8-.8.8s-.8-.4-.8-.8h0zm47 8.4c0 .5-.4.8-.8.8s-.8-.4-.8-.8.4-.8 1-.8c.4 0 .8.3.7.8zm16.4-1.6c-.4 0-1-.4-.8-.8 0-.3.5-.8 1-.8.4 0 .8.4.8.8 0 .5-.3.8-.8.8h0zm-66.7 1.4c.5.5.6 1 .2 1.3-.3.3-.6.3-1 .2s-.4-.5-.4-1c0-.4.3-.6.6-.6h.5 0zm-11-4.4c.3-.3.7-.4 1-.1.3.2.4.5.2.8-.1.3-.6.4-1 .3-.1 0-.2-.1-.3-.2v-.8h0zm52-4.8h.4c.1 0 .3.1.4.1-.1.2-.1.4-.2.5-.4.3-1 .2-1.3-.3 0-.1.1-.3.2-.3.2-.1.4 0 .5 0h0z"/></g><path d="M262.8 145l-.6.6.6-1.4c.1-.2.2-.4.4-.6.1-.1.3-.2.4-.3 0 .1-.1.2-.1.3l-.8 1.4h0z" class="w"/><path d="M285 129.6c-.7.5-1.4.8-2.2.8l.3-.2 1-.3c.3-.1.6-.1 1-.2h0z" class="AB"/><path d="M309.8 156.8l-.7-.2 2 .2c.1 0 .2.2.3.3-.1 0-.3 0-.4 0h-1c-.1 0-.1 0-.2 0h0z" class="AF"/><path d="M265.6 140l-1 1.8v-.4c.2-.4.4-.7.6-1 .1-.1.2-.2.3-.3h0z" class="r"/><g class="x"><path d="M311 157h.4c.5.3 1 .8 1 1.3h-.1c-.4-.4-.8-.8-1-1.2h-.2 0zm-5.5-1.7c-.1-.1-.3-.2-.4-.3-.2-.6-.4-1.3-.5-2l1 2.3h0z"/></g><path d="M291 132.4l-1-1.4c.4 0 .7.1.8.5.1.3.4.5.3.8h0z" class="AG"/><path d="M312.7 159v-.3c.5.4 1 .8 1 1.5-.2-.3-.4-.5-.6-.8v-.1c0-.1-.1-.1-.1-.2h-.1z" class="r"/><g class="x"><path d="M302.7 148.3l-.1.1-.5-1.5s0-.1.1-.2l.6 1.6zm12.7 15c-.4-.4-.8-.8-1-1.4l.7 1h.1.1v.3h0z"/></g><path d="M291 133v-.7c.4 0 .5.1.6.5 0 .1-.1.2-.1.4l-.3-.2z" class="AG"/><path d="M315.4 163.3v-.3c.5.2.7.5.6 1l-.6-.8h0z" class="r"/><g class="w"><path d="M286.7 129c0 .1-.1.2-.1.2-.3.1-.5.1-.8.1.2-.4.6-.3 1-.3h0zm-22 12.4v.4l-.4.6c0-.4 0-.7.4-1z"/></g><g class="AG"><path d="M290.5 133.7l.4-.5c.1.2.2.5-.1.7l-.3-.1h0zm-35 11.3l-.8.7c.1-.6.2-.7.8-.7z"/></g><path d="M266.2 139l-.5.8c-.2-.5.3-.6.5-.8z" class="w"/><g class="AG"><path d="M246 132v.8c-.4-.3-.4-.7 0-.8zm11 4.4h-.5c.1-.1.2-.2.3-.2s.2.2.2.2h0zm34.2-5.4l-.3.2-.2-.2.2-.3h.2 0zm-53 5.8h-.4c.1-.2.2-.2.4 0z"/></g><path d="M264 143l-.2.3c.1-.1.1-.2.2-.3z" class="y"/><g class="w"><path d="M268 133c-.1.1-.1.2-.2.3l.2-.3z"/><path d="M268.3 132.6l-.2.2.2-.2zm-.7 1h0 0 0zm.8-1.2h0zm-.4.5h0 0 0 0z"/></g><path d="M315.4 163h-.1.1z" class="r"/><path d="M271 218.6h-1.3c-2.3 0-4.6 0-7 0-.7 0-.8.2-.6 1 .1.3.1.7.2 1 0 0-.1 0-.1.1-.2.7-.7.8-1.3 1-.5.1-.6 0-.8-.5l-.8-1.7-.8-1.6c-.1-.2-.1-.4-.2-.6-.2-.2-.1-.4.1-.6.1-.1.2-.2.2-.3l-.8-2.2c0 0 0-.1-.1-.1-.3-.2-.4-.6-.4-1l.2-.4c0 0 0-.1 0-.1 0-.1.1-.1.1-.2 0 0 0-.1.1-.1l.1-.2.4-.8h0c.3-.3.6-.7.5-1 0-.5.1-1-.3-1.4-.1-.1-.2-.2-.3-.3.2-.3.4-.6.6-1l4-4.4c.7-.8 1.6-1.5 2-2.6.1 0 .1 0 .1-.1.1-.5.5-.5 1-.4.4.1.4.4.3.8-.1.5.1.8.7 1l.5-.8c.1.1.1.2.1.2-.1.8.3 1.7-.3 2.5 0 .1-.1.1-.1.2-.2.3-.4.6-.6.8-.2.3-.4.5-.3 1 0 .1-.1.3-.1.5-.1.4-.6.7-.5 1.2v.1c-.6.1-.3.5-.4.8h-.3c-.1 0-.3 0-.4 0-.1-.1-.3-.2-.3-.3.1-.6.3-1 .4-1.6.1-.2 0-.4 0-.6h-.2c-.2.3-.5.5-.6.8-.2.7-.7 1.3-.6 2 0 .1-.1.1-.1.2-.4.5-1 .5-1.4.8-.1.1-.2.2-.3.2.1.1.2.3.3.3.4.1.6.4.5.8 0 .5-.4.7-.7.8-.7.3-1.4 1.2-.6 2 .1.1.2.2.4.3.6.5 2 .1 2-.7.1 0 .1 0 .2-.1.2-.3.4-.3.7-.1.6.3.7.8 1 1.3.3.6.4.7 1 .4l2 .2c.1.2.3.6.4.6.2 0 .5-.2.7-.3h.8c0 .3 0 .7.4.8.4.1.4.3.4.6v1.4 1h0z" class="z"/><path d="M257.3 213c0 .4.1.7.4 1 0 0 .1 0 .1.1l.8 2.2c0 .1-.1.2-.2.3-.2.2-.3.3-.1.6.1.2.1.4.2.6l.8 1.6.8 1.7c.2.5.4.6.8.5.6-.1 1-.3 1.3-1 0 0 .1 0 .1-.1.1 1-.4 1.6-1.2 2h-.7l-3-2.2c-.1-.1-.2-.2-.3-.2-1-1-1.3-2.5-1.2-4 .4-.3.7-.7.4-1.3l1-1.8h0z" class="n"/><g fill="#fbede5"><path d="M260.4 222.5h.7c0 .4-.2.5-.6.4-.2 0-.3-.2-.1-.4h0zm30.4 1v.3h-.1c0-.1-.1-.2-.1-.2h.2 0zm4.4-.5c0 .1.1.1.1.1s0 .1-.1.1c0 0-.1 0-.1-.1 0 0 0-.1.1-.1zm3 .2h-.1v-.1h.1v.1z"/></g><path d="M251.7 152c.1.2.3.3.3.5l-.2 4.5-.1 3.4c0 1-.4 1.7-1.4 1.8a21 21 0 0 0-2.2.5c-.6.2-1 .4-1.6.7l-4.3 2.2c-.5.2-.8.6-1 1-.3 1.5-.6 3-.8 4.4-.2 1 .4 1.6 1 2.3.2.2.4.4.6.6.5.5 1 .4 1.6.1l1.6-1c.6-.3 1-.1 1.5.3 1 1 1 2 1 3.3-.1.7-.4 1.4 0 2.2.7 1.2 1.7 1.3 2.7.4.6-.6 1.2-1.2 1.8-1.7.4-.3 1-.4 1.3-.5 1-.2 1.4-.7 1.6-1.6l1.4-4.6c.3-1 .8-1.7 1.6-2.2 1-.5 1.3-1.2 1.6-2.2l1-3 .2-1c.1-.8.8-1.2 1.4-1.5 1.6-.8 2.4-2.2 3.2-3.7.2-.3.4-.6.6-1 .4-.6 1-1 1.6-1 0 1 .1 2.3-.2 3.4l-1.7 6.4c-.2.8-.6 1.4-1.4 1.8l-1 .4c-1 .5-1.6 1.5-1.6 2.6v1.8.8l.3 1.2c-.1.3-.2.5-.3.8l-.1 2.5v2.6c0 .5-.2.8-.4 1.2a62 62 0 0 0-1.7 2.6c-.1.2-.2.6-.2.8v3.6c0 .8.2 1.6.7 2.3.1.1.1.3.1.4l-.4.3-4.2 2.3-1.4.6-.8-1.4c-.3-.6-.8-1-1.5-1l-2.5-.1c-.4-.2-1-.3-1.3-.7-.7-.6-.8-1.5-.8-2.3 0-1.2-.7-2-2-2.4-1.6-.4-3-1-4.7-1.4-1.2-.4-2-1-1.7-2.5.1-.5.3-1 .4-1.4.3-1 .3-1.8-.4-2.5-1-1-2-1.8-2.8-2.7-.6-.7-.8-1.4-.5-2.3.2-.5.3-1 .5-1.4l1-2 .7-1.4c.1-.3.1-.6.2-1l1-2.4 1.2-1.6c0 0 .1 0 .1-.1 0 0 0 0 .1-.1l2.4-1.4.2-.1c.1 0 .1-.1.1-.1l1.7-1 2.3-1.2c.1 0 .1 0 .2 0 .1 0 .3.1.3 0 .5-.4 1-.8 1-1.5.2 0 .2-.1.1-.2l1-2c.1-.1.1-.3.2-.5l.5-.7h.1l.1-.2h.1v-.1l.1-.2.6-1.2c0-.1 0-.2-.1-.3l.5-1h0z" class="t"/><path d="M257 208.8L253 211l-11 6-2.2 1.3c-.3.2-.6.2-1 0l-7.3-4-10.2-5.6-7.3-4-4.6-2.6c-.3-.2-.6-.4-.8-.5v-4.7c.2 0 .4.1.5.1l1.3.7 3 1.6 2 1c.3.2.7.4.7.7 0 .7.4 1 .8 1.5.8.7 1.7 1.2 2.8 1 1-.1 1.6.1 2.4.5l4.8 2.7c.2.1.4.4.5.7l.1 2.4c0 .2.1.4.2.5.4.3.8.6 1.2.8l5.3 3 2 1c.3.1.6.2.8-.2.2-.4.1-.7-.2-1l-2.2-1.5c-.3-.3-.7-.6-.7-1 0-.2 0-.4.1-.5.1-.1.3 0 .4.1l4.5 2.4c.4.2.7.2 1 0 .3-.3.7-.6 1-.8l4.3-2.2 2-1 2.8-1.6 2.3-1.2 3.3-2c.1.6.1 1 .2 1.6.1.3.2.6.4.7.6.3.6.7.6 1.2 0 .2.2.4.3.6h0z" class="AC"/><path d="M237 170.2l-1 2c-.4-.1-.6.2-.8.4l-2.8 1.7c-.7.4-1 1-.5 1.4l1.5 2c.3.4.3.6 0 1l-2 2.3c-.2.2-.4.5-.6.8-.2.3-.2.7-.4 1l-1-.2c-.3-.1-.4-.3-.4-.6 0-.2-.1-.4-.2-.6.3-.2.5-.5.8-.7.1-.2.2-.4.2-.6 0-.1-.3-.2-.5-.2-.2 0-.5 0-.7.1l-1.8.3c-.7.2-1.6 0-2 1-.5.1-.8.3-1 .7-.2.4-.4 1-.7 1.3-.3.4-1 .4-1 1 0 0 0 0 0 0-.7.2-1.3.5-2 .1-.6-.4-.8-.3-1 .4-.2.4-.4 1-.7 1.3-.3.3-.7.5-1 .7-.1.1-.2.3-.3.4.1.1.2.2.4.2.7.1 1.3.2 2 .3.4 0 .7.3 1 .6-.4.1-.5.3-.4.6 0 .1 0 .2 0 .3 0 .4 0 .8.4 1 .1 0 .2.2.1.3 0 .3-.1.7-.2 1-.3.7-.7 1.3-.7 2h-.6L214 190l-3-2c-.3-.2-.6-.5-.7-.8 0-.6-.3-1-.8-1-.3-.1-.6-.3-1-.5.7-.4 1.4-1 2.2-1.3l3.6-2 7.3-4 6.7-3.7 4.5-2.5 1.6-.8 2.3-1.3c.1 0 .1.1.2.1h0z" class="AE"/><path d="M208.4 193.6c0-.1-.1-.2-.1-.2l.1-1.4c.2.1.3.1.5.2l.7.4.3.2 2.2 1.4 3.2 1.7c.3.2.5.2.8-.1.3-.2.5-.5 1-.5 1 0 1.4.7 2 1.2.1.1.1.4.2.7.1.4.2.8.4 1 .3.3.8.5 1.2.7.4.2.8.3 1 .3.5.1 1 0 1.5.1.3.1.6.2 1 .3 1 .3 1.8 1 2.5 1.6.8.8 1.5 2 2.7 2.4a16 16 0 0 1 1.4.7l3.2 1.8 2 1 2.2 1.3c.5.3 1 .4 1.5 0l1-.8 4.4-2.4 3.5-1.8c.4-.2.8-.7 1-1 .2-.2.3-.6.6-.8l2.5-1.7c.3-.2.6-.2 1 .1.1.1.5.3.7.2.7-.3 1.5-.8 2.2-1l3.3-1.8c.3-.2.8-.2.7-.7 1 .2 1.3.7 1.2 1.4l-3 1.7-3.5 2c-1.2.7-2.4 1.3-3.6 2l-4.2 2.3c-1 .6-2.3 1.2-3.4 1.8-.7.4-1.4.8-2 1.2l-2.5 1.4c-.4.3-1 .2-1.3 0l-1-.6c-1.4-.8-2.8-1.5-4.2-2.3a175 175 0 0 1-3-1.7l-2.4-1.3-4-2.3c-.7-.4-1.5-.7-2.3-1.2l-3-1.8-6.7-3.6c-.5-.3-1-.6-1.6-1-.6-.3-1-.7-1.6-1 0 0-.1 0-.2 0h0z" class="AB"/><path d="M255.3 204.6l-3.3 2c-.8.4-1.5.8-2.3 1.2l-2.8 1.6-2 1-4.2 2.2c-.4.2-.7.5-1 .8s-.7.2-1 0l-4.5-2.4c-.1-.1-.4-.1-.4-.1-.1.1-.1.3-.1.5 0 .5.3.8.7 1l2.2 1.5c.3.2.4.6.2 1-.2.4-.6.3-.8.2l-2-1-5.3-3-1.2-.8c-.1-.1-.2-.3-.2-.5l-.1-2.4c0-.2-.2-.6-.5-.7L222 204c-.8-.4-1.5-.7-2.4-.5-1 .1-2-.3-2.8-1-.5-.4-.8-.8-.8-1.5 0-.2-.4-.5-.7-.7l-2-1c-1-.5-2-1-3-1.6l-1.2-.7c-.2-.1-.3-.1-.5-.1v-1.5l2.5 1.2c.6.3 1 .7 1.7 1l5.4 3 5.8 3.3 8.4 4.6 6.2 3.4c.7.4 1.2.2 1.8-.1l5.8-3.3 3.5-2 2.5-1.4 3.8-2 1.6-.8c-.1.1-.1.3-.2.4l-.8.8c-.3.4-.5.8-.7 1.2l-.3.2h0z" class="AF"/><path d="M257.4 202l-1.6.8-3.8 2-2.5 1.4c-1.2.6-2.3 1.2-3.5 2l-5.7 3.3c-.6.3-1 .5-1.8.1l-6.2-3.4-8.4-4.6-5.8-3.3c-1.8-1-3.6-2-5.4-3l-1.7-1-2.5-1.2v-.6-1c.1 0 .1 0 .2 0l1.6 1c.5.3 1 .6 1.6 1l6.7 3.6 3 1.8 2.3 1.2 4 2.3 2.4 1.3 3 1.7 4.2 2.3 1 .6c.4.2.8.3 1.3 0l2.5-1.4 2-1.2 3.4-1.8 4.2-2.3 3.6-2 3.5-2 3-1.7 1.8-1 1.7-1h.6l-.6 1c-.1.3-.2.6-.3 1-.2 0-.5 0-.7.1l-3.2 1.7-.8.4c-.4.2-.7.4-1 .7l-2.3 1.3h0z" class="y"/><path d="M209.6 192.6c-.2-.1-.4-.2-.7-.4-.2-.1-.3-.1-.5-.2v-4.7c0-.5.1-1 .1-1.6l1 .5c.5.2.8.4.8 1 0 .3.4.6.7.8l3 2h-.7c-.6.2-1.2.4-1.7.5-1 .1-2 1-2 2h0z" class="AC"/><path d="M237 170.2c-.1 0-.1-.1-.2-.1.2-.3.4-.6.5-1l.6-1.4c-.1.3-.1.7-.2 1l-.7 1.4z" class="x"/><path d="M240 163.8l-1.2 1.6c-.1-.5.1-1 .5-1.4.2-.1.4-.1.7-.2h0z" class="r"/><path d="M248.6 158.4c0 .7-.5 1-1 1.5-.1.1-.2 0-.3 0l1.3-1.5z" class="x"/><path d="M253.8 147.7c-.2.8-.4 1.5-1 2l.2-.6c0 0 0-.1 0-.1 0-.1.1-.2.1-.2l.7-1h0z" class="y"/><g class="r"><path d="M244.7 161.2l-1.7 1c.5-.5 1-1 1.7-1zm8.3-12l-.2.6-.5.8-.1-.1.8-1.4h0zm-2.8 5.8l-.5.7a2 2 0 0 1 .7-1.6c0 .2 0 .3-.1.5l-.1.2c0 .1-.1.1-.1.2z"/></g><path d="M234.4 171.4l-1.6.8 1.6-.8z" class="AC"/><path d="M251.2 153c0 .1.1.2.1.3-.2.4-.4.8-.6 1.2l.3-1 .2-.4z" class="AH"/><path d="M251 153.4l-.3 1-.1.2-.1.1h0 0c0-.2 0-.3.1-.5l.5-.8z" class="y"/><path d="M248.6 158.2c.2.2.1.2-.1.2v-.2z" class="x"/><path d="M240.3 163.7h-.1c0 0 0 0 .1-.1z" class="r"/><path d="M255.3 204.6l.3-.2 1-.5 1.4-.7 2.2-1.3 3-1.8c.4-.2 1-.4 1.4-.6l-.2 1c-.4 1-1.2 1.8-2 2.6l-4 4.4c-.2.3-.4.6-.6 1-.2 0-.4.1-.5.1-.2.1-.4.2-.6.3-.1-.2-.3-.4-.3-.6 0-.5-.1-1-.6-1.2-.2-.1-.4-.4-.4-.7-.1-.5-.2-1-.2-1.6h0z" class="AN"/><path d="M256.2 214.8c.3.6 0 1-.4 1.3l.4-1.3z" class="AD"/><g class="AN"><path d="M258.6 210c.1.5-.2.8-.4 1l.4-1zm-1 2.2s0 .1-.1.1c0 0 0-.1.1-.1zm-.2.2v.1-.1zM333 196l1-.5 1.7-1c.4-.2.6-.6.6-1-.1-.5.1-1 .6-1 .3-.1.6-.2.8-.3.7.4 1.3 1 2 1 .5.1 1.2-.1 1.4-.6.3-.6.6-1 1-1.6.8-.6 1.5-1 2.5-.7.4.1 1 .1 1.3 0 .6-.1 1-.1 1.5.2.1.1.3.1.4.1.3-.1.5-.2.5-.6 0-.1.2-.3.3-.4l.2.4.3.8v.4.1.2.4l-2 1.3-4.5 2.5-3.7 2c-.2.1-.6.1-.8.1-.5-.2-1-.3-1.5-.2l-2 .6c-.2.1-.4.1-.5.2l-2 1.6-3.2 2.5-4.2 3c-1.7 1.3-3.5 2-5.5 2.4-.4.1-.8.2-.7.8 0 .1-.1.2-.1.4l-1.7-1-6.2-3.4c-1.5-.8-3-1.7-4.6-2.5l-2.6-1.5-1.6-1c-.4-.2-.8-.3-1.2-.6l-2-1.3c-.2-.2-.5-.3-.7-.5.2-.2.4-.3.7-.5.8-.5 1.7-.8 2.7-.6.7.1 1.5.1 2-.6l1-1 1.7 1 .5.3 2.7 1.4 1.5 1 1.5 1v.5c0 .7.3 1 1 1.4l2.4 1c.3.1.7.2 1 .1.6-.3 1-.1 1.5.2.1.1.3.2.4.2.3 0 .7.1 1 0 .5-.2 1-.5 1.4-.7l2.7-1.5 1-.6c.3-.1.5-.1.7.2.4.5.8.5 1.3.2l1.2-.6 2.2-1.2 1-.5 2-1 .6-.3h0z"/></g><path d="M311.2 212c.2-.1.4-.3.4-.4 0-.2-.1-.5-.3-.6-.5-.3-1-.6-1.5-1-.1-.1-.3-.1-.4-.1-.4 0-.5.3-.3.6.2.2.5.4.7.6.4.3.8.5 1.3.8h0zm38-15.3v4.5c0 .3-.2.5-.5.6l-7 4-2.2 1.2-4 2.2-4.8 2.7c-1.6.8-3 1.7-4.7 2.5l-7 4c-.8.5-1.3 0-1.8-.3l-2.5-1.4c-.6-.3-1.2-.7-1.8-1-1-.6-2.2-1.2-3.3-1.8l-3-1.7c-.3-.2-.6-.2-1-.4-.1-.1-.2-.2-.3-.3l-2-1-3.2-1.8c-.3-.2-.4-.4-.4-.7l-.1-1c.1-.8-.4-1.3-.8-1.8 0-.1-.1-.2-.1-.2-.4-.6-1-1.2-1-2 .2-.2.3-.2.5 0l3.3 1.8 4.4 2.4 3.2 1.8 3.6 2 5 2.8c.2.1.6.1 1 .1.4-.1.7-.3 1-.6.5-.4 1-.6 1.6-.3.3.1.5.1.7-.2.2-.3.4-.6.7-.8.5-.4 1-.8 1.6-1.2l2.5-1.3c.4-.2 1 0 1.3.3.3.4 0 .7-.2 1-.2.2-.4.4-.2.8.3.4.6.5 1 .3l2.5-1.5c.4-.2.6-.5.6-1 0-.4.1-.8.3-1 .2-.4.6-.7 1-1 .6-.4 1.2-.7 2-.5 1 .2 1.8.4 2.6-.1l1.8-1 4-2.5 2.8-1.6c.4-.2.6-.6.6-1 0-.3 0-.7 0-1-.1-.8.1-1.4 1-1.7.1 0 .1-.1.1-.1.4-.2.7-.3 1-.5h0z" class="AC"/><path d="M299.5 206.6c0 .4.1.7.1 1 0 .3.1.6.4.7l3.2 1.8-.2.4c-.1.2-.2.4-.2.6 0 .4-.2.6-.6.7-.6.1-1.2.2-1.8.2-.6 0-1 .3-1.6.5-.1 0-.1.2-.1.3 0 .2 0 .4 0 .5-.4.6-1 1-1.3 1.7-.6 1-1 2-2 2.7-1 .6-2 1.3-2.8 2l-1.5 1c-.5.3-1 .2-1.4 0-.7-.3-1.2-.7-1.4-1.5-.1-.5.1-1 .4-1.2.4-.5.4-1 .2-1.6 0-.1 0-.2 0-.3.1.1.1.1.1.2.3.7 1 1 1.7.8.3-.1.7-.2.8-.5.3-.6.8-1.2.6-2-.1-.3-.1-.5-.5-.4-.2 0-.4.1-.6-.2l-.6-2c.2-.1.5-.1.7-.2.2-.1.4-.3.4-.4 0-.2-.2-.5-.4-.7-.1-.1-.4.1-.6.2-.3.4-.6.4-1 .2-.3-.1-.7-.1-1-.2 0 .4.1.8-.1 1-.5.4-.6 1-.8 1.5-.1.3 0 .5 0 .8l-.6-.2c0 0-.1-.1-.1-.1-.1-.2-.2-.3-.2-.5 0-.8-.3-1.4-.7-2-.1-.2-.3-.5-.2-.7 0-.3-.1-.4-.3-.4h-1.3c-.4 0-.5.1-.5.5 0 .5 0 1 0 1.6-.5-.1-.7.2-.8.6 0 .3 0 .7.1 1-1.3.2-2 1.2-3 2l-1 1c-.4-.1-.8 0-1.2-.2-.4-.2-.8-.6-1-1-.3-.4-.6-.5-1-.5-.4 0-.8 0-1.2 0 0 0 0 0 0 0-.2.5-.7.7-.8 1.3-.1.8 0 1.6-.7 2.2h-1c.1-.3.4-.5.2-.8-.2-.4-.2-1-.1-1.4.1-.4-.2-1-.6-1l-1-.3.2-2c.5 0 .8.4 1 .8.1.5.2.8.8.8 0 0 .1 0 .1.1.3.2.6.2.8-.2.1-.2.3-.3.5-.4.5 0 1 0 1.4 0 .1 0 .2-.1.4-.2-.1-.1-.2-.2-.4-.2-.4 0-.7 0-1.2 0 .2-.5.4-1 .7-1.3.4-.6.5-.8.1-1.4 0-.1 0-.1 0-.2 0-.3-.1-.3-.4-.3l.8-1.5c.4-.6.5-.6 1.2-.3l.8.2.7.4c.3.1.5.3.5.7 0 .2.1.4.1.6 0 .4.2.5.6.5h2.7c.6 0 1-.3 1-1 .1-.5.3-1 .5-1.4.3-.7 1-1 1.6-1.5.4-.3.8-.3 1.3 0 .7.6 1.4 1 2.2 1.6.4.3.7.3 1 0 .3-.2.6-.3 1-.5l.2.5c.1.5 0 1.2.8 1.3.1 0 .1.1.2.1.3.4.6.8.4 1.3l-.2 1c-.2.5.1 1 .5 1 .1 0 .4-.1.4-.2.3-.4.5-.8.4-1.3 0 0 .1-.1.1-.2.1-.1.2-.3.2-.4 0-.5.3-.8.7-1 .1-.1.3-.2.4-.3.4-.8 1-1 2-1 .1 0 .3 0 .4 0 .3-.1.5-.3.4-.6-.2-.6 0-1 .5-1.3.2-.2.6-.2.7-.4.4-.4.5-.4 1-.1.1.1.2.1.3.1h0z" class="o"/><path d="M349.2 196.7l-1 .5c-.1 0-.1.1-.1.1-.8.3-1 1-1 1.7 0 .3 0 .7 0 1 0 .5-.2.8-.6 1l-2.7 1.6-4 2.5-1.8 1c-1 .5-1.7.3-2.6.1-.8-.2-1.4.1-2 .5-.4.3-.7.6-1 1-.2.3-.3.8-.3 1 0 .5-.2.7-.6 1l-2.5 1.5c-.5.3-.8.2-1-.2-.2-.3 0-.6.2-.8.3-.3.6-.6.2-1-.2-.3-1-.5-1.3-.3-1 .4-1.7 1-2.5 1.3-.6.3-1 .8-1.6 1.2-.3.2-.4.6-.7.8-.2.2-.4.3-.7.2-.6-.2-1-.1-1.6.3-.3.2-.6.4-1 .6-.2.1-.6.1-1-.1-1.7-1-3.4-1.8-5-2.8-1.2-.7-2.4-1.3-3.6-2l-3.2-1.8-4.4-2.4-3.3-1.8c-.2-.1-.4-.2-.5 0l-.7-2c.2 0 .4 0 .5 0l1.8 1 2.8 1.5 1.8 1 2.8 1.5 2.3 1.3 1.7 1 2.8 1.6 3.4 2c.5.3 1 .8 1.7.7.5-.1 1-.4 1.5-.7l3.5-2 4.7-2.6 6.2-3.4 4.2-2.3 5.7-3.2 4.2-2.3c.2-.1.5-.2.7-.3v1.4h0z" class="AF"/><path d="M303 195.6c-.5.7-1.3.8-2 .6-1-.2-2 0-2.7.6-.2.2-.4.3-.7.5.2.2.5.3.7.5l2 1.3c.4.2.8.3 1.2.6l1.6 1 2.6 1.5 4.6 2.5 6.2 3.4 1.7 1c.1-.2.1-.3.1-.4-.1-.6.3-.7.7-.8 2-.4 4-1 5.5-2.4 1.4-1 2.8-2 4.2-3 1-.8 2-1.7 3.2-2.5.7-.6 1.5-1 2.3-1.7.1-.1.3-.2.5-.2l2-.6c.5-.1 1 0 1.5.2.2.1.6.1.8-.1l3.7-2 4.5-2.5 2-1.3v1.2.8h-.8l-2.5 1.4-6.3 3.3-2.6 1.5-5.2 3-5 2.8-5.5 3c-.8.4-1.6 1-2.4 1.3-.2.1-.6.1-1 0l-1.5-.8-2.7-1.4c-.5-.3-1-.6-1.6-1l-.8-.5-3-1.7-1.8-1c-.8-.4-1.6-.8-2.3-1.2-1-.6-2.3-1.2-3.4-1.8l-2.4-1.4c0-.6-.4-1-.8-1-.4-.2-.4-.4-.4-.8.1-.8.8-1.2 1-2 0-.1.1-.1.2-.1.4-.1.8-.3 1.3-.3 1 0 2 .1 3.2.2h0z" class="AB"/><path d="M298.3 199.6l2.4 1.4 3.4 1.8 2.3 1.2 1.8 1 3 1.7c.3.1.5.3.8.5l1.6 1 2.8 1.4 1.5.8c.2.1.6.1 1 0 .8-.4 1.6-.8 2.4-1.3l5.5-3 5-2.7 5.2-3 2.6-1.5 6.3-3.3 2.5-1.4c.3-.1.6-.2.8-.2v1.3l-.7.3-4.2 2.3-5.7 3.2-4.2 2.3-6.2 3.4-4.7 2.6-3.5 2c-.5.3-1 .6-1.5.7-.7.1-1.2-.4-1.7-.7-1-.6-2.3-1.3-3.4-2l-2.8-1.6-1.7-1-2.3-1.2-2.8-1.5-1.8-1-2.8-1.5c-.6-.3-1.2-.7-1.8-1-.1-.1-.4 0-.5 0-.2-1-1-1.6-2-1.8 0 0 0 0 0 0l-3.4-1.4c-.1-.3-.2-.5-.3-.8 0-.2 0-.5 0-.8l.7.3 3 1.6 3.3 1.8h0z" class="y"/><path d="M349.2 191c-.1-.3-.2-.5-.3-.8-.1-.1-.2-.2-.2-.4-.1.1-.3.3-.3.4 0 .3-.2.5-.5.6-.1 0-.3 0-.4-.1-.5-.3-1-.3-1.5-.2-.4.1-1 .1-1.3 0-1-.2-1.7.1-2.5.7-.6.4-1 1-1 1.6-.2.5-1 .7-1.4.6-.8-.2-1.5-.7-2-1 .4-.2.8-.5 1.3-.7.1-.1.4 0 .6 0 .4 0 .7.1 1 0 .4-.1 1-.3 1.3-.5.5-.2.8-.5 1-1 0-.7.5-1 1-1.2l5.5-3h.1c0 .1.1.3.1.4v4.7h0z" class="AC"/><path d="M290.8 215.8l.4.3c.1-.1.3-.2.3-.3 0-.1-.2-.3-.3-.4l-.3.3zm-3.2-1.8c0-.3-.1-.6 0-.8.1-.6.3-1 .8-1.5.1-.1.1-.6.1-1l1 .2c.4.2.7.1 1-.2.1-.1.5-.3.6-.2.2.2.3.4.4.7 0 .1-.2.3-.4.4-.2.1-.5.1-.7.2l.6 2c.1.3.3.3.6.3.4 0 .4.1.5.4.2.8-.3 1.4-.6 2-.1.2-.5.4-.8.5-.7.2-1.4-.2-1.7-.8 0-.1-.1-.1-.1-.2l-.3-.8c0 0 0 0 0-.1 0-.1-.1-.1-.1-.1l-.2-.4c0 0-.1-.1-.1-.1-.1-.1-.1-.1-.1-.2 0 0-.1-.1-.1-.1 0 0-.1-.1-.1-.1h-.2 0z" class="z"/><g class="n"><path d="M273 218.6c.7-.6.6-1.4.7-2.2.1-.6.6-1 .8-1.3.4 0 .8.1 1.2 0 .4 0 .8.1 1 .5.3.4.7.7 1 1 .3.2.8.1 1.2.2-.4.3-.7.6-1.3.7-.7.1-1.4.4-2 .6l-2.6.6h0zm10-5c0-.3-.1-.7-.1-1 0-.4.3-.6.8-.6v-1.6c0-.4.1-.6.5-.5h1.3c.2 0 .3.2.3.4s.1.5.2.7c.4.6.7 1.3.7 2 0 .2.1.3.2.5l-.6-.1h-.1-2.6-.3-.4 0zm15.6-.2v-.5c0-.1.1-.3.1-.3.5-.2 1-.6 1.6-.5.6 0 1.2-.1 1.8-.2.4-.1.6-.3.6-.7 0-.2.2-.4.2-.6.1-.1.1-.3.2-.4l2 1 .3.3-.3.3h-.2c-1 1-2 1.4-3.6 1.2-1-.2-2-.3-2.7.1h0z"/></g><path d="M270.4 215c.3.1.6.2 1 .3.4.2.7.7.6 1-.1.5-.1 1 .1 1.4.2.4-.1.6-.2.8l-1 .1v-1-1.4c0-.3-.1-.5-.4-.6-.4-.1-.4-.4-.4-.8h.4 0z" class="s"/><path d="M288.5 215.2l.3.8v.3c-.6-.2-.3-.6-.2-1z" class="w"/><path d="M349.2 191.5c-.1-.1-.1-.1-.1-.2l.1-.1v.3h0z" class="AC"/><path d="M270.2 219h.1c0 0 0 .1 0 .1 0 0 0 0-.1 0 0 0 0-.1 0-.1h0z" class="w"/><g fill="#fcf1eb"><path d="M348.8 184.6v.1h-.1v-.1h.1zm-1.8-1.4v-.1h.1v.1h-.1z"/></g><path d="M287.6 214l.2.2-.2-.2z" class="o"/><path d="M286.2 213.6s0 0 .1 0h-.1z" class="r"/><path d="M287 213.7v.1c0 0-.1-.1-.1-.1z" class="n"/><path d="M288 214.5l.1.1c0 0-.1-.1-.1-.1z" class="w"/><path d="M261.6 173v-.8-1.8c.1-1.2.5-2 1.6-2.6l1-.4c.8-.3 1.2-1 1.4-1.8l1.7-6.4c.3-1 .2-2.3.2-3.4l-.2-3c0-1.7 1.5-3 3.2-2.7 1 .2 1.7.2 2.5-.4.6-.5 1-1 1-1.8 0-1 0-2 0-3 0-.7.1-1.3.1-2l-.1-1.7c0-.2.1-.4 0-.6l-.8-2.2-.4-1.2-1-2 1.6-.2c-.2.5-.3 1 0 1.4.6 1 1.2 2 1.7 3 .2.4.5 1 .5 1.3.1 1 0 2-.1 3l-.3 6.5c0 .7-.3 1.2-1 1.4-1 .3-2 .5-2.8.8-.5.2-1 .4-1.3.8-.3.5-.4 1.2-.5 1.8l-.3 2.4-.7 3.5-.4 3-.7 5-.2 1.2c-.1.7-.8 1-1.7 1-.8 0-1.4.5-1.5 1.3 0 .4.2 1 .2 1.3v2l-1-1-1.8-2h0z" class="AI"/><path d="M270.2 133.2c.3-.3.5-.1.7.1-.1.1-.1.2-.2.2-.4.3-.4.7-.1 1 .2.2.4.3.6.5.1.1.2.3.3.4l-.2.4c-.1.1-.1.2-.2.3l-1.5 3.2c-.2.2-.1.7-.5.6-.6-.1-1.3 0-1.7-.6l-.7-1v-1.8c0-.1.1-.3.2-.3.4-.1.4-.3.4-.6 0-.3.1-.7.2-1 0-.1.1-.1.2-.1.1 0 .1.1.2.2.1.1 0 .3.1.4.1.2.1.6.3.7.4.1.7-.1 1-.4.1-.2.2-.4.2-.6.4-.1 1-1 .8-1.4 0 0 0 0-.1-.1h0z" class="s"/><path d="M248 170c0-.4.1-.8.5-1l3.3-3c.1-.1.4-.1.6-.1 0 .2.1.4.1.5-.3.7-.6 1.4-1 2.2l-1 2.3c-.3.8-1 1-1.4 1-.6-.1-1-.8-1-1.5v-.3h0z" class="t"/><path d="M264 147.8l-3.4 2.3c-.2.2-.4.5-.4.8-.2.8-.4 1.4-1.2 1.8-.1-.1-.2-.2-.2-.3l-.6-1c.4-.1.8-.3.8-.8v-2c0-.4.2-.6.5-.8.6-.4 1.3-.2 2-.3.3 0 .6-.2 1-.3.3-.1.6-.2 1-.4.3-.1.4-.1.5.2.1.2.1.3.1.5h0z" class="s"/><path d="M269.6 139.4l1.5-3.2.2-.3c.1-.1.1-.3.2-.4.1 0 .2-.1.3-.1l1 2 .4 1.2.8 2.2c.1.2 0 .4 0 .6-.3-.2-.6-.3-1-.5-.3-.2-.4-.6-.6-1-.5-.7-1-.8-1.8-.6-.3.1-.6 0-.8.1h0z" class="t"/><path d="M262.3 147.6c-.3.1-.6.2-1 .3-.6.1-1.3-.1-2 .3-.3.2-.5.4-.5.8v2c0 .5-.4.7-.8.8-.6-.1-1-.7-1-1v-1.3l1.3-1.6c.5-.5 1-.6 1.8-.7h2.6l-.3.6h0z" class="u"/><path d="M257 149.2v1.3c0 .5.5 1 1 1l.6 1c.1.1.1.2.2.3-.6.4-1.8.3-2.4-.1-.1-.1-.2-.2-.3-.3-.1-.2-.1-.4-.2-.6-.5-.7-.3-1.3.3-1.8.2-.2.4-.5.6-.7h0z" class="p"/><g class="n"><path d="M262.3 147.6l.3-.6c1.3.1 1.8-.7 2.3-1.7.1-.1.1-.2.2-.3s.3-.2.4-.2.3.2.3.3l.4 2c.1.3-.1.4-.4.5l-2 .3-.1-.5c-.1-.2-.2-.3-.5-.2-.3.2-.6.2-1 .4h0zm-4.3 9.6c-.6 0-.8-.1-1-.7-.1-.2-.1-.5-.1-.7s.1-.5.2-.6.4.1.5.1c.3.2.6.4 1 .6.3.1.4.3.3.6s-.1.8-.6.8h-.3zm9.5-14.8c0-.6.3-1 .8-1 .4 0 1 .6 1 1s-.4.8-.8.8c-.5 0-1-.5-1-1z"/></g><path d="M262.8 145l.8-1.4c0 .6-.3 1-.8 1.4z" class="y"/><path d="M296.6 159.7l.4 1.6.5 4.3.3 2.4c.1 1 .2 2 .3 3l.5 4.2.4 3 .3 2.3.1 3.3c-.1.7-.5 1.4-.8 2l-1.2 3.2c-.2.6-.5 1.2-.7 1.7-.2.1-.4.3-.6.4l-1.3 1-.7-2c-.3-1-.7-1.7-.6-2.6l.3-3.2.3-2.5c.3-1.3.6-2.6 1-3.8.4-1.4.4-2.7.1-4.2-.2-1.2-.4-2.4-.6-3.7-.2-1.2-.5-2.4-.7-3.6l-.3-2.4c.2-.2.5-.3.6-.5l.7-2 .5-1.4c.2-.6.3-.7 1-.6h.4 0z" class="AI"/><path d="M305.5 195.5l-1.7-1-.3-.3c.4-.7.8-1.4 1.2-2 .4-.6 1-.8 1.7-1 1.5-.4 2.8-1.2 4.2-2 .8-.4 1-1 1.2-2 .1-.8.3-1.6 1-2 .6-.3 1.2-.5 1.8-.7l4.2-1c1.2-.3 1.8-1.2 2-2.4l1-4c0-.1.1-.2.1-.2.3.1.4.3.3.6-.2.6 0 1 0 1.7 0 .4.1.6.4.7.3.1.6.2 1 .3.1.1.3.2.3.3 0 .1-.1.3-.2.4 0 .1-.1.1-.3.2l1 .3c.4.1.4.3.2.6-.1.1-.2.3-.2.4-.2.6-.4.7-1 .7h-2.2c-.6 0-1 .3-1.3.8-.6 1.2-.4 2.4-.3 3.6.1.8.5 1.6.7 2.3-.2.1-.3.2-.5.3-.4.1-.8.3-1.2.2l-4-.6c-.8-.1-1.6-.1-2.3.4-.4.3-.4.6-.3 1 .1.2.2.4.3.6.3.5.6 1 .4 1.6-.1.3-.1.6-.2 1-.1.6-.2 1.2-.8 1.6-.1-.1-.1-.2-.2-.2l-.6-2.7c-.1-.4-.3-.7-.7-.8-1.4-.1-2.7-.3-4-.3-.2 0-.6.1-.7.3-.4.6-.6 1.3-.4 2l.3 1.2h0z" class="AH"/><path d="M320.5 190c-.2-.8-.6-1.5-.7-2.3-.1-1.2-.3-2.5.3-3.6.3-.5.6-.8 1.3-.8h2.2c.6 0 .8-.2 1-.7.1-.2.1-.3.2-.4.2-.3.2-.5-.2-.6-.3-.1-.6-.2-1-.3.1-.1.2-.1.3-.2.1-.1.2-.3.2-.4 0-.1-.2-.2-.3-.3-.3-.1-.6-.2-1-.3-.3-.1-.4-.4-.4-.7 0-.6-.2-1 0-1.7.1-.3 0-.5-.3-.6l.3-1.7c.1-.3 0-.7.1-1l.6.2c.2.1.5.3.7.4.7.4 1 1 1 1.7 0 .8.4 1 1 .8.2-.1.5-.1.7-.2l1.7-.1c.4 0 .6.2.7.5.2.8.4 1.5.4 2.3l-.2 1c-.4.3-1 .8-1.4 1-.6.3-1.2.6-1.8.8-.3.1-.6.2-.8.3-.6.3-1.2.7-2 1-.5.2-.8.5-.8 1 0 .6.1.8.6 1l.6.3c.6.3.8 1 .4 1.5-.2.3-.5.4-.7.7l-1.4.5-1.6.5h0z" class="q"/><path d="M303.5 194.4l.3.3-1 1-3.2-.2c-.4 0-.8.2-1.2.3-.1 0-.2.1-.2.1-.3.7-1 1-1 2 0 .3 0 .6.4.8.4.2.8.5.8 1l-3.3-1.8-3-1.6c-.2-.1-.4-.2-.7-.3l-.2-1.3.4-.1c.1 0 .3-.1.4-.1.2-.1.4-.1.5-.2l2.5-2c.4-.3 1-.6 1.3-1l.6-.4 5.7 3.2c.3.2.6.3 1 .4h0z" class="AF"/><path d="M296.6 159.7l-.4-.1c-.6-.1-.7 0-1 .6l-.5 1.4v-.4c.1-.4-.1-.6-.5-.5-.2 0-.4.1-.6.1l1-1.5 2-.7c.4.6 1 .6 1.7.8.4.1.7 0 1-.4.1-.1.3-.2.4-.3.1.1.3.1.4.2.6.5 1.2 1 1.8 1.4.2.1.4.3.5.4.1.3.4.4.7.4.2 0 .5 0 .7 0 0 .8-.1 1-1 1h-.5c-.4 0-.7 0-1-.4l-.1-.3c-.2-.4-.2-1-1-1-.5 0-1 0-1.4.3-.4.3-.8.3-1-.1-.4-1-1-.7-1.8-.8h0z" class="n"/><g class="AM"><path d="M312.7 159h.1-.1zm.3.3v.1h-.1v-.1z"/></g><path d="M297 158.5l-2 .7c-.2-.1-.3-.2-.5-.3l-3-.7c-1.2-.2-2.2-.8-2.6-2l-1.4-5.3c-.4-1.3-.8-2.6-1-3.8l-.7-3.6c-.2-1-.4-2-.5-3l.6 1 .6 1.4 2.3 4.6c.6 1.4 1.7 2.6 2.4 4 .4.8 1 1.3 2 1.6 1 .3 1.4 1 2 1.7 1 1.2 1.7 2.4 2.5 3.7 0 0 0 .1 0 .1l-.4.2h0z" class="t"/><path d="M285 140.4l.5 3 .7 3.6 1 3.8 1.4 5.3c.4 1.3 1.3 1.8 2.6 2l3 .7c.2 0 .3.2.5.3l-1 1.5-.1.3c-.1.1-.1.2-.2.3 0 .1-.1.1-.1.2l-.7.5c-.1-.7-.6-1.2-1-1.6-.3-.2-.7-.4-1-.4-1 0-2 .1-3 .1-.7 0-1.4-.4-1.5-1.2l-.4-3.6-.6-4.7-.7-5c-.5-2.6-1-5.2-1.5-7.8-.1-.6-.1-1-.1-1.7 0-.6.1-1 .2-1.7h.3c0 0 .1 0 .1 0 .1 0 .1 0 .2 0l.4.1v1.8l.6 3c.1.5.2 1 .3 1.4h0z" class="AI"/><g class="t"><path d="M299.3 145.7c0 .6-1 1.4-1.5 1.3-.1 0-.3-.1-.3-.2l-1.7-2.7c-.1-.2-.2-.6-.3-.8 0-.1 0-.4.1-.4.1-.1.4-.1.5 0 .3.2.6.4.8.7.4.4 1 .6 1.4.8.8.3 1 .6 1 1.4h0zM284 136v-1.8l-.4-.1c.4.1 1 0 1.4.2.3.1.5.5.8.8.2.2.4.4.6.4s.6-.2.7-.4c.4-.7.8-.7 1.2 0 0 .1.1.2.1.2l-.7.8c-.4.5-1 .5-1.5.3-.6-.3-1.3-.6-2-.5h0z"/></g><path d="M304 161h-.7c-.3 0-.5-.1-.7-.4-.1-.2-.3-.3-.5-.4l-1.8-1.4c-.1-.1-.2-.1-.4-.2l.2-1c.4-.1.7-.1 1 .2l2.5 2c.4.3.5.7.4 1z" class="u"/><path d="M300.2 157.7l-.2 1c-.1.1-.4.1-.4.3-.2.4-.5.5-1 .4-.6-.2-1.3-.2-1.7-.8l.4-.2 2.5-.6c.1 0 .3 0 .4-.1h0z" class="AD"/><path d="M306.4 163.8c0 .5-.2.7-.6.7-.4 0-1-.6-1-1 0-.3.6-.6 1-.6.4 0 .6.3.6.8h0z" class="o"/><path d="M290.2 137.3c0 .3-.3.7-.7.7-.3 0-.7-.4-.7-.7s.3-.6.7-.6c.4 0 .7.2.7.6h0z" class="s"/><path d="M299.8 141.5c.2.1.4.2.5.3.4.7.8 1.3.8 2l-.6-1.3c-.2-.4-.4-.8-.6-1.2h0z" class="r"/><g class="x"><path d="M309.8 156.8h.2-.2zm7.4 35.2c-.5 0-.8.3-.8.7 0 .3.4.6.8.6.5 0 .8-.2.8-.7 0-.4-.3-.7-1-.7h0zm12-10.7l.2-1c.5 0 1 .1 1.4.2.6.2 1.3.1 2 0 .5 0 1-.1 1.4-.2.4 0 .6.2.4.7-.4.8-.1 1.8.6 2 .2.1.4.1.5.1h2.2c.6 0 .8.2 1 .8 0 .1.1.3.2.3.4.3.3.6.3 1-.1.6-.1 1-.5 1.6-.1.1-.2.2-.3.2-1 .3-2 .4-3 .4-.5 0-1 .5-1 1l-.1 1.5c0 .1-.3.3-.4.4-.4.1-.7.1-1 .1-.1 0-.3.2-.3.2.3.7-.6.8-.7 1.3 0 .1-.3.1-.5.1-.7 0-1.4-.1-2 .3-.3.2-.5.3-.1.6.1.1.1.2.1.3s.1.4.1.4c.3 0 .6 0 .8-.1.3-.1.6-.3 1-.4.3-.1.7.3 1 .8l.4 1c0 .1.1.2 0 .2-.2.5.1.7.4.8l-.6.3c-.4 0-1-.1-1.3 0s-.6.3-.8.4c-.1 0-.1.2-.1.3s.1.3.1.4l-1 .5v-.6h-.7c.1-.2.2-.2.3-.2.4 0 .6-.1.7-.5.1-.3.1-.5 0-.7-.1-.3-.1-.7-.1-1s-.1-.4-.4-.4h-.5l-1.3.2H326c-1 0-1.7.6-2 1.5-.1.4.4 1.3.8 1.4.3.1.7.2 1 .4.4.5.1 1-.5 1-.2 0-.3.1-.5.1-.3 0-.4.1-.4.4l-1 .6c0-.1 0-.3-.1-.4-.5-.4-1-.8-1.7-.8h-6.2l-3.3.2-1.5-1-1.5-1c.2-.4.6-.6 1-.6.8.1 1.5 0 2-.6.6-.3.7-1 .8-1.6.1-.3.1-.7.2-1 .2-.6-.1-1-.4-1.6l-.3-.6c-.1-.4-.1-.7.3-1 .7-.5 1.4-.5 2.3-.4l4 .6c.4 0 .8-.1 1.2-.2.2-.1.3-.2.5-.3l1.6-.5 1.4-.5 1.3.3c1 .1 1.3 0 1.6-1l1 .2c1 .2 2-.5 2-1.6l.8-.3c.1 0 .3-.1.3-.1.2-.4.6-.8.5-1 0-1 .4-1.7 0-2.6-.2-.5-.2-1-.6-1.4-.3-.3-1-.3-1.4-.5h0z"/></g><path d="M279.8 150.6h-.1c0 .1 0 .2 0 .3v5.7c0 .1 0 .3.1.3.1.1.2.2.3.3.1-.1.3-.2.3-.4l.2-2.3.1-1.3c0-.3-.1-.6-.2-1-.2-.4-.5-.8-.4-1.3 0-.2-.1-.3-.2-.5h0zm.5-14v-.2l.8-.2-.3 1v1l.1 1c0 .2 0 .3 0 .5v.6c0 .3 0 .6 0 1v1.4c0 .1 0 .3 0 .4l.3 5.3.4 5.5.3 6v1.3l1 3.8c.4 1 .8 2 1 3.2-.6 0-.6 0-.6-.6 0-.2 0-.6-.1-.6-.5-.3-1-.7-1.6-.6-.3.1-.5.2-.8.3l-.4-3.6-.3-2c0-.3.2-.8.1-1-.2-.4-.3-.7-.3-1 0-.1 0-.2-.1-.3l-.5-.7c-.3-.2-.7-.6-1.3-.3 0-.8 0-1.7 0-2.5l-.1-17c.4.4.6 0 .8-.2l.2 3.4c.1 2.2.1 4.3.1 6.5h0l.3.8h.2c.1-.2.2-.3.2-.4l.1-2.7V140c0-.2 0-.3 0-.4.1-1 .2-2-.1-3h0z" class="p"/><path d="M279.4 138c-.2.2-.4.6-.8.2-.5-.2-1-.6-1.4-.7-.4-.1-.7-.4-1-.7-.2-.3-.3-.6-.4-1-.2-.5-.3-1-1-1h-1.4l-1.6.3-.2.1-.3-.4c-.2-.2-.4-.3-.6-.5-.4-.3-.3-.8.1-1 .1-.1.1-.2.2-.2.2.1.4.3.5.4.3.3.6.3 1 .1l1.2-.6c1-.5 2-.4 2.8.1.1.1.3.1.4.1.2.2.5.4.6.6.2.4.2 1 .3 1.4.1.6.3.7 1 .7.2 0 .4.1.5.2.1.1.2.2.4.2v1.4z" class="o"/><path d="M279.4 138v-1.4l1 .1c.3 1 .2 2 .1 3v.4 5.7l-.1 2.7c0 .2-.1.3-.2.4h-.2l-.3-.8c0-.1 0-.1 0-.2l-.1-6.5-.2-3.4h0z" class="AD"/><g class="o"><path d="M281 136.4l-.8.2c0-.7 0-1.4.1-2.2.1-.5.4-.8.8-1 .3.4.3 1 1 1h0c-.1.2-.2.3-.3.5l-.8 1.6h0zm-10.8-3.2s.1 0 .1.1c.1.4-.4 1.2-.8 1.4l.5-1.3c0-.1.1-.1.2-.1zm13 .8h-.3-.1-.1-.5 0 1 0 0z"/></g><path d="M283.2 134s0-.1 0-.1c0 0 0 0 .1 0 0 0-.1 0-.1 0z" class="t"/><path d="M270.5 215h-.4-.8l-1.2-.3-2-.2c-.3-.4-.3-.7-.1-1.2.3-.6.5-1.2.8-1.8.4-.8.7-1.8 1.4-2.4l2.8-3.3a4 4 0 0 0 .6-.9c.1-.2 0-.5-.1-.6-.8-.7-1.8-.4-2.2.5-.2.5-.5 1-.8 1.3-.2.3-.4.3-.7.1l-1.2-1c-.2-.2-.2-.4 0-.6s.4-.5.5-.8c.3-.5.7-1 .6-1.6 0 0 .1-.1.1-.2l.5-1.2.3-.3h1.3l1.4.2c.1 0 .2.2.2.3 0 .2-.1.4-.2.5-.6.6-.3 1-.1 1.7.2.5.8.7 1.4.6.2-.1.5 0 .7 0-.2.6-.4 1.2-.5 1.7 0 .1.1.3.2.5.1.1.3 0 .4 0h.6c0 .3.1.5.1.8 0 .6.4 1.3 1 1.7.5-.3.3-.8.3-1.2.6-.2.7-.1.8.4.1.2.4.4.6.4.6 0 .6.1.8.7l-.8-.2c-.7-.2-.8-.3-1.2.3-.3.5-.6 1-.8 1.5-.5.7-1.2 1-2 1-.5.2-1 .2-1.5.7-.1.2-.2.5-.2.7l-.2 2h0z" class="u"/><path d="M268.2 201l-.5 1.2c0 .1-.1.1-.1.2.1.7-.3 1-.6 1.6-.1.3-.3.6-.5.8-.2.2-.2.4 0 .6l1.2 1c.3.2.5.2.7-.1l.8-1.3c.4-1 1.4-1.2 2.2-.5.1.1.2.4.1.6-.1.3-.4.6-.6 1L268 209h-.6c-.6-.2-.8-.4-1-1 0-.3-.1-.5-.2-.8-.1-.3-.4-.4-.7-.1-.1.1-.2.2-.4.3-.1-.5.4-.8.5-1.2 0-.2.1-.3.1-.5-.1-.4.1-.6.3-1 .2-.2.4-.5.6-.8 0-.1.1-.1.1-.2.6-.8.3-1.6.3-2.5 0-.1 0-.1-.1-.2l-.5.8c-.6-.2-.8-.5-.7-1 .1-.4.1-.7-.3-.8-.3-.1-.7-.1-1 .4 0 0-.1.1-.1.1l.2-1 .6-1.7.3-1c.2-.3.4-.7.6-1l.4-.3c0 .7.5 1.2 1 1.6.2.2.4.3.7.2.2-.1.4.1.6.1v.8h.1l.5-.4c.2-.2.3-.4.5-.6.4-.3.7-1.6.5-2 0-.1-.1-.2-.2-.2l-.4-.6c-.2-.4-.4-.8-.6-1.2.1-.1.2-.2.3-.3h.4c.8-.1 1 .1 1 1 .1.6.1 1.3.2 2 0 .2 0 .4.1.5.4 1 0 1.6-1 1.8-.4.1-1 .2-1 .7h-2c.1.8.3 1.5.8 2z" class="s"/><path d="M265.3 207.3c.1-.1.3-.2.4-.3.3-.3.6-.2.7.1.1.3.2.5.2.8.1.6.3 1 1 1 .2.1.4.1.6.2-.7.7-1 1.6-1.4 2.4l-.8 1.8c-.2.4-.2.8.1 1.2-.7.3-.8.2-1-.4-.2-.5-.4-1-1-1.3-.3-.2-.5-.2-.7.1 0 0-.1.1-.2.1.1-.7.1-1.4.6-2 .1-.2.2-.4.3-.6.1-.3 0-.6-.3-.8-.3-.2-.6-.1-1 .1l-.4.3c-.3-.4-.2-.5.1-.7.1 0 .1-.1.2-.1.3-.5.7-.7 1.3-.6.3 0 .6 0 .7-.3h.3c.2 0 .4-.1.4-.3v-.5-.1h0z" class="o"/><path d="M262.4 210l.4-.3c.3-.2.6-.3 1-.1.3.2.4.5.3.8-.1.2-.1.4-.3.6-.4.6-.5 1.3-.6 2-.2.8-1.5 1.3-2 .8-.1-.1-.2-.2-.4-.3-.8-.8-.1-1.7.6-2 .4-.2.7-.4.7-.8l.4-.5h0z" class="u"/><g class="s"><path d="M262.4 210c-.1.2-.2.4-.4.5 0-.4-.1-.7-.5-.7-.1 0-.2-.2-.3-.3l.3-.2c.5-.2 1-.3 1.4-.8 0-.1.1-.1.1-.2-.1-.8.3-1.4.6-2 .1-.3.4-.5.6-.8h.2v.6c-.1.6-.3 1-.4 1.6 0 .1.1.3.3.3.1.1.3 0 .4 0-.1.4-.4.4-.7.3-.6-.1-1 .1-1.2.6 0 .1-.1.1-.2.1-.4.2-.4.3-.1.7h0zm5.6 4.7l1.2.3c-.2.1-.5.3-.7.3s-.3-.4-.4-.6zm-2.7-7.3v.5c0 .3-.1.4-.4.3.1-.3-.2-.7.4-.8h0z"/></g><path d="M236 175.8c1 1 2 1.8 2.8 2.7.7.7.7 1.6.4 2.5-.2.5-.4 1-.4 1.4-.1 1.5.5 2 1.7 2.5l4.7 1.4c1.2.3 2 1.2 2 2.4 0 1 0 1.8.8 2.3.4.3 1 .4 1.3.7-.1 0-.2.1-.3.1-.8.1-1.5.2-2.2.6-.3.2-.5.4-.4.7 0 .4-.2.6-.6.6-.2 0-.5 0-.7 0-.1 0-.3.1-.3.3 0 0 .1.2.2.3.1.1.2.1.2.2.3.6 1 .5 1.5 1 0 0 .1 0 .1 0 .1.1.3.2.4.3l1.3 1.6-1.2.7-2-1.3c-.5-.3-1-.6-1.4-1-.6-.8-.5-1.6.1-2.4.5-.7.6-1.3-.1-2-.1-.1-.1-.2-.2-.2-.4-.4-.8-.6-1.3-.3-.1.1-.3.1-.4.2-.3.1-.7.2-1-.1l-1.2-1c-.4-.3-.7-.6-.8-1l-.8-3.6c-.2-1-1-1.2-1.8-.7-.7.4-.7 1-.7 1.7 0 1-.7 1.8-1.7 2-.7.1-1-.1-1.4-.8-.2-.3-.3-.6-.5-1-.8-1.2-1.5-2.5-1.2-4 .3.1.6.1.8.3.7.7 1.6.7 2.5.5.7-.2 1.4-.4 2-.5.3-.1.6-.2.7-.5.1-.3.3-.4.7-.4.2 0 .4-.1.7-.1 0-.1 0-.1 0-.2l-.7-.2c-.6-.1-.8-.3-.7-1 .1-.8.1-1.5-.1-2.3-.1-.2 0-.5 0-.7 0-.6.1-1-.3-1.6-.1-.1-.1-.2-.1-.3h0z" class="AH"/><path d="M260 191c-.1-.2-.1-.3-.1-.4-.6-.7-.7-1.5-.7-2.3a88 88 0 0 1 .1-3.6c0-.3.1-.6.2-.8l1.7-2.6c.3-.4.4-.7.4-1.2v-2.6a42 42 0 0 1 .1-2.5c0-.3.2-.5.3-.8l.4.4c.4.4.8 1 .7 1.6 0 .2.1.4.3.5.5.2.6.6.6 1 .1.4.1.8.2 1.3v.4.2c-.1.6.2 1 .6 1.4-.1.1-.3.1-.4.2-.4.6-.8 1.3-1.2 2-.3.4-.1.8-.1 1.3v5.2c0 .2-.1.3-.1.5 0 .5-.1 1-.1 1.4-.8 0-1.6.1-2.4-.3-.1-.1-.3-.1-.5-.1h0z" class="AI"/><path d="M236 175.8c0 .1 0 .2.1.3.5.4.4 1 .3 1.6 0 .2 0 .5 0 .7.2.8.2 1.5.1 2.3-.1.7 0 .8.7 1 .2 0 .5.1.7.2 0 .1 0 .1 0 .2-.2 0-.4.1-.7.1-.3 0-.6.1-.7.4-.1.3-.4.4-.7.5-.7.1-1.4.3-2 .5-1 .2-1.7.2-2.5-.5-.2-.2-.6-.2-.8-.3v-.2c.1-.4.2-.7.4-1 .1-.3.3-.5.6-.8.7-.8 1.4-1.5 2-2.3.3-.4.3-.6 0-1l-1.5-2c-.4-.5-.2-1 .5-1.4l2.8-1.7c.3-.2.4-.5.8-.4l-.5 1.4c-.3 1-.1 1.6.5 2.3h0z" class="q"/><path d="M260 191c.2 0 .3.1.5.1.8.4 1.6.4 2.4.3h1.4c-.1.1-.1.2-.2.2-.4 0-.7 0-1 0-.2 0-.4.2-.6.3.1.1.1.2.2.3.6.3.7.8.4 1.5-.2.6-.7.7-1.2 1-.3.2-.2.3-.1.6.4.7 1.5.7 2-.1.1 0 .1 0 .2.1.4.4.8.4 1.3.4.1 0 .3.1.4.1l-1.7 1-1.8 1c.1-.7-.3-1.2-1.2-1.4l-1.5.1-.3-1c-.1-.1-.2-.3-.3-.3-.4 0-1-.2-1.4 0-.6.3-1.3.5-2 .7-.2-.1-.4-.1-.6-.2-.4-.3-1-.7-1.3-1l.3-.3c.5-.2 1-.3 1.4-.6l4.2-2.3c.1-.1.3-.2.4-.3h0z" class="AF"/><path d="M254 194.4c-.1.1-.2.2-.3.3l-1.8 1a299 299 0 0 1-3.5 1.9L247 196c-.1-.1-.3-.2-.4-.3 0 0-.1 0-.1 0-.4-.5-1.2-.4-1.5-1 0-.1-.1-.2-.2-.2-.1-.1-.2-.2-.2-.3.1-.1.2-.2.3-.2.2 0 .5 0 .7 0 .4 0 .7-.2.6-.6 0-.3.2-.6.4-.7a5 5 0 0 1 2.2-.6c.1 0 .2-.1.3-.1l2.5.1c.7.1 1.2.5 1.5 1 .2.5.6 1 .8 1.4h0z" class="q"/><path d="M264 179v-1.3c-.1-.5-.1-1-.6-1-.1-.1-.3-.3-.3-.5.1-.7-.3-1-.7-1.6l-.4-.4-.3-1.2 1.8 2 1 1c.1.3.2.5.3.8.2.8.4 1.6.5 2.4-.3-.2-.7-.3-1-.2h0z" class="n"/><path d="M250.2 155c0-.1.1-.1.1-.2 0 .1-.1.1-.1.2z" class="y"/><path d="M250.5 154.7l.1-.1-.1.1z" class="AH"/><path d="M230.4 182.6v.2c-.3 1.6.4 2.8 1.2 4 .2.3.3.6.5 1 .3.6.8.8 1.4.8 1-.1 1.7-1 1.7-2 0-.7.1-1.3.7-1.7.8-.5 1.6-.2 1.8.7.3 1.2.5 2.4.8 3.6.1.5.4.8.8 1l1.2 1c.3.3.7.3 1 .1.1-.1.3-.1.4-.2.6-.3 1-.1 1.3.3.1.1.1.2.2.2.7.6.6 1.2.1 2-.6.8-.7 1.6-.1 2.4.4.4 1 .7 1.4 1l2 1.3c-.1.1-.2.1-.3.2l-1.2.6-.1 1c-.1.1-.2.3-.3.3l-2.2 1.3c-.8.4-.8.4-1.3-.3-.1-.2-.2-.2-.5-.1-.4.3-1 .6-1.3 1-.3.2-.6.2-1 0l-4.7-2.6-3.4-2c-.3-.2-.6-.2-1 0-.2.2-.6.2-.8.1-1-.4-2.2-1-2.7-2-.2-.5-.6-.8-1-1l-1.5-.8c-.8-.5-1.6-1-2.7-.5-.7.3-1.2 0-1.7-.4 0-.7.4-1.4.7-2 .1-.3.2-.6.2-1 0-.1-.1-.3-.1-.3-.5-.2-.5-.6-.4-1 0-.1 0-.2 0-.3-.1-.3 0-.5.4-.6-.3-.3-.5-.6-1-.6l-2-.3c-.1 0-.2-.1-.4-.2.1-.1.2-.3.3-.4.4-.2.8-.4 1-.7.3-.4.5-.8.7-1.3.3-.6.5-.7 1-.4.7.4 1.3.1 2-.1 0 0 0 0 0 0 .1-.7.8-.6 1-1 .3-.4.5-.8.7-1.2.2-.5.5-.7 1-.7 0 .3.1.7.1 1 .2.8.7 1.4 1.2 2 .3.4 1 .5 1.5.3.2-.1.4-.2.3-.5 0-.2-.1-.5 0-.7.1-.7.5-1.3.8-2 .1.2.2.4.2.6 0 .3.1.5.4.6.4.1.8.2 1 .3h0z" class="x"/><path d="M234.5 203.8c-.2.1-.3.1-.5.2.1.2.1.4.3.6.3.2.7.3 1 .5.1 0 .4 0 .4-.1 0-.2.1-.4 0-.5-.3-.3-.7-.7-1.2-.7zM219.3 193c.5.4 1 .7 1.7.4 1-.4 1.8.1 2.7.5l1.5.8c.5.2.8.5 1 1 .5 1.2 1.6 1.7 2.7 2 .2.1.6 0 .8-.1.3-.2.6-.2 1 0l3.4 2 4.7 2.6c.3.2.6.2 1 0l1.3-1c.2-.2.3-.1.5.1.5.8.5.8 1.3.3l2.2-1.3c.1-.1.2-.2.3-.3 0-.4.1-.7.1-1l1.2-.6c.1-.1.2-.1.3-.2l1.2-.7 3.5-2 1.8-1 1.3 1c.2.1.4.2.6.2l1.8.5c.7.1 1.4.1 2 .1l1.5-.1c.1.6-.4.6-.7.7L257 199c-.7.4-1.4.8-2.2 1-.2.1-.5 0-.7-.2-.3-.3-.6-.3-1-.1l-2.5 1.7c-.3.2-.4.6-.6.8-.3.4-.7.8-1 1-1 .7-2.3 1.2-3.5 1.8l-4.4 2.4c-.4.2-.8.5-1 .8-.5.4-1 .2-1.5 0l-2.2-1.3c-.7-.4-1.3-.7-2-1l-3.2-1.8c-.5-.3-1-.5-1.4-.7-1.2-.5-1.8-1.6-2.7-2.4-.7-.7-1.5-1.4-2.5-1.6-.3-.1-.6-.3-1-.3-.5-.1-1 0-1.5-.1-.4-.1-.8-.2-1-.3-.4-.2-1-.4-1.2-.7-.2-.2-.3-.7-.4-1-.1-.2 0-.5-.2-.7-.6-.5-1-1.2-2-1.2-.4 0-.7.3-1 .5-.3.2-.5.2-.8.1-1-.6-2.2-1-3.2-1.7l-2.2-1.4-.3-.2c0-1 1-2 2-2 .6-.1 1-.3 1.7-.5.2 0 .4 0 .7 0l4.7 2.8.6.3h0z" class="AN"/><path d="M228.7 181c-.4.6-.8 1.2-.8 2 0 .2 0 .5 0 .8 0 .3-.1.4-.3.5-.5.2-1.2.2-1.5-.3-.4-.7-1-1.2-1.2-2-.1-.3-.1-.7-.1-1 .3-1 1.2-.8 2-1 .6-.2 1.2-.2 1.8-.3.2 0 .5-.1.7-.1.2 0 .5.1.5.2 0 .2-.1.4-.2.6-.2.3-.5.5-.8.7h0z" class="q"/><g class="AB"><path d="M265.4 198l-.6 1.7-1.4.6-3 1.8-2.2 1.3c-.5.3-1 .5-1.4.7-.3.2-.6.3-1 .5.2-.4.4-.8.8-1.2.2-.3.6-.5.8-.8.1-.1.1-.3.2-.4l2.3-1.3c.4-.2.7-.4 1-.7.3-.2.6-.3.8-.4l3.2-1.7c.2-.1.5-.1.7-.1h0zm.3-2h-.4c-.5 0-1 0-1.3-.4 0 0-.1 0-.2-.1-.4.7-1.5.8-2 .1-.1-.2-.2-.4.1-.6.4-.3 1-.5 1.2-1 .3-.7.2-1-.4-1.5-.1 0-.1-.2-.2-.2.2-.1.4-.3.6-.3.4-.1.7 0 1 0 .1 0 .1-.1.2-.2h3 .1l.2.1 2.3 1-.3.4-.3.3-1 .7-1.8 1.6-.4.3h-.6z"/></g><path d="M311.7 199h3.3 6.2c.7 0 1.2.4 1.7.8.1.1.1.2.1.4l-2.7 1.5c-.5.3-1 .6-1.4.7-.3.1-.7 0-1 0-.1 0-.3-.1-.4-.2-.4-.3-1-.6-1.5-.2-.2.1-.6.1-1-.1l-2.4-1c-.6-.2-1-.7-1-1.4v-.5h0z" class="AE"/><path d="M312 196c-.6.6-1.4.7-2 .6-.5 0-1 .1-1 .6l-2.7-1.4c-.2-.1-.3-.2-.5-.3l-.3-1.2c-.2-.7.1-1.4.4-2 .1-.2.5-.3.7-.3l4 .3c.4 0 .6.3.7.8.2 1 .4 1.8.6 2.7 0 .1.1.2.2.2z" class="q"/><g class="AE"><path d="M324 199.4c0-.3.1-.4.4-.4.2 0 .3 0 .5-.1.6-.2.8-.6.5-1-.2-.2-.6-.3-1-.4-.4-.2-1-1-.8-1.4.3-1 1-1.5 2-1.5h1.7c.4 0 1-.1 1.3-.2h.5c.2 0 .4.2.4.4 0 .3 0 .7.1 1s.1.4 0 .7c-.1.4-.3.6-.7.5-.1 0-.2.1-.3.2l.7.1.1.6-2.2 1.3-1.2.6c-.6.3-1 .2-1.3-.2-.2-.2-.4-.3-.7-.2h0zm6.3-2c0-.1-.1-.2-.1-.4 0-.1 0-.2.1-.3.3-.2.5-.4.8-.4.4-.1.8 0 1.3 0l-2 1h0z"/></g><path d="M291.5 197.3l3.4 1.4c0 0 0 0 0 0 1 .2 1.7.7 2 1.8l.7 2c.1.8.5 1.4 1 2 .1.1.1.2.1.2-1-.4-2-.7-3-.5-.2 0-.4 0-.6 0l-.3-.1c-.6-.5-1.2-1-2-1.4-1.3-.6-2.6-1-4-1.6l-3.6-1.5c-.4-.2-.8-.3-.8-.8h2.2c.2 0 .4-.2.7-.2.1 0 .4-.1.4 0 .2.4.5.3.8.3h1.7c.5 0 1 0 1-.6 0-.1.1-.1.1-.2l.3-.8h0z" class="p"/><path d="M295 204.3h.6c1-.1 2 .2 3 .5.4.5 1 1 .8 1.8l-.3-.1c-.4-.3-.6-.3-1 .1-.2.2-.5.3-.7.4-.5.3-.7.7-.5 1.3.1.3-.1.5-.4.6-.1 0-.3 0-.4 0-.8 0-1.5.2-2 1-.1.1-.2.3-.4.3-.4.2-.7.5-.7 1 0 .1-.1.3-.2.4 0 .1-.1.1-.1.2.1.5-.1 1-.4 1.3-.1.1-.3.3-.4.2-.5-.1-.7-.7-.5-1 .1-.3.2-.6.3-1 .1-.5-.1-1-.4-1.3 0-.1-.1-.1-.2-.1-.8-.1-.7-.8-.8-1.3 0-.2-.1-.3-.2-.5.1-.1.2-.2.4-.3.3-.3.6-.5.8-.8.1-.3.1-.7.1-1 .2-.1.5-.1.7-.2.3 0 .5.1.8.1.6-.1 1 .2 1.5.6l1 .8c.1.1.3.2.5.2.4.1 1.4-1 1.3-1.4-.1-.2-.3-.4-.5-.6l-1.8-1.4z" class="n"/><path d="M311.2 212l-1.3-.8c-.3-.2-.5-.3-.7-.6-.3-.3-.1-.6.3-.6.1 0 .3 0 .4.1l1.5 1c.2.1.3.4.3.6 0 .1-.2.3-.4.4h0z" class="AB"/><path d="M291.6 206.2c0 .3 0 .7-.1 1-.2.3-.5.5-.8.8-.1.1-.2.2-.4.3-.3.2-.6.3-1 .5-.4.3-.7.3-1 0-.7-.5-1.5-1-2.2-1.6-.5-.4-1-.3-1.3 0-.6.4-1.3.8-1.6 1.5-.2.4-.4 1-.5 1.4-.1.6-.4 1-1 1H279c-.4 0-.6-.2-.6-.5.1 0 .3 0 .4 0 .4.1.5 0 .5-.4 0-.2.1-.3.2-.4.3-.3.5-.6.5-1v-1c0-.4-.2-.8.3-1 0 0 0-.2 0-.3.1-.1.3-.1.4-.2l1.4-1c.2-.1.4-.2.7-.3 1 0 .8.1.8-.7l1.7-.2c.1 0 .1-.1.1-.2h.7s0 .1.1.1c.6.1.8.6 1.2 1 .4.3.8.5 1.3.8.1 0 .1 0 .2 0 .2-.1.3-.2.5-.2 1-.3 1.5-.2 1.8.8 0 .1.3.2.4.3h0z" class="u"/><path d="M280.4 206c0 .1 0 .2 0 .3-.5.2-.3.7-.3 1v1c0 .4-.2.8-.5 1-.1.1-.2.3-.2.4 0 .4-.1.5-.5.4-.1 0-.3 0-.4 0 0-.2-.1-.4-.1-.6 0-.3-.1-.6-.5-.7-.2-.1-.5-.2-.7-.4-.1-.6-.2-.6-.7-.7-.2 0-.5-.3-.6-.4-.1-.5-.2-.6-.8-.4 0 .4.3 1-.3 1.3-.6-.3-1-1-1-1.7 0-.2-.1-.5-.1-.8h.6c.6-.1 1.3.2 1.8-.3 0 0 .1 0 .2 0h3c.1 0 .2.1.3.1.2.1.5.2.7.3h0z" class="AA"/><path d="M270.6 213c.1-.2.1-.5.3-.7.3-.5 1-.5 1.5-.7.7-.2 1.5-.4 2-1 .2 0 .4 0 .4.3 0 .1 0 .1 0 .2.4.7.3 1-.1 1.4-.3.4-.4.8-.7 1.3h1.2c.1 0 .2.1.4.2-.1.1-.2.2-.4.2-.5 0-1 0-1.4 0-.2 0-.4.2-.5.4-.2.3-.4.4-.8.2 0 0-.1-.1-.1-.1-.6.1-.7-.3-.8-.8-.1-.4-.4-.8-1-.8h0z" class="s"/><path d="M291.5 197.3l-.3.8c0 .1-.1.1-.1.2-.1.6-.5.6-1 .6-.6 0-1 0-1.7 0-.3 0-.6.1-.8-.3 0 0-.2 0-.4 0-.2.1-.4.2-.7.2h-2.2v-1c0-.3.2-.5.5-.4.2 0 .4.1.5.1l1.5.5c.6.2 1-.3 1.4-.7.3-.3.1-.6 0-1-.2-.6-.4-1.2-.6-2-.2-.7-.6-1-1.4-1-.4-.1-1-.3-1.3-.3-1-.1-1-.3-1-1.2 0-.3 0-.5 0-.8 0-.2-.1-.4-.2-.5l-1.8-1c-.4-.2-.5-.4-.5-.7v-2.6h1.4c.6 0 .8.2.8.8v2.4c.1 0 .1 0 .1 0l.2-.4a1 1 0 0 1 1.6-.5c.1 0 .2 0 .3.1.3.2.5.5.8.6 1.5.6 2.7 1.6 3.6 3l.6 1.5.3.7.2 1.3v.8c.1.3.2.5.3.8h0z" class="n"/><path d="M290.8 215.8c.1-.2.2-.2.3-.3.1.1.3.2.3.4 0 .1-.2.2-.3.3-.1-.1-.2-.2-.4-.3z" class="o"/><g class="AJ"><path d="M265.2 179.2l-.5-2.4c-.1-.3-.2-.5-.3-.8v-2c0-.4-.2-1-.2-1.3.1-.7.7-1.2 1.5-1.3 1 0 1.6-.5 1.7-1l.2-1.2.7-5c.1-1 .2-2 .4-3l.7-3.5.3-2.4c.1-.6.2-1.3.5-1.8.2-.4.8-.6 1.3-.8l2.8-.8c.7-.2 1-.7 1-1.4l.3-6.5c0-1 .1-2 .1-3 0-.4-.3-1-.5-1.3-.6-1-1-2-1.7-3-.3-.5-.2-1 0-1.4h1.4l.4 1c.2.8.6 1.6 1 2.3.6 1 1.3 2.2 1 3.6-.3 1.5-.3 3-.4 4.5-.1 1.8-.4 3.6-.4 5.4-.1 1.2-.5 2.2-1.4 3-.6.6-1 1.3-1 2l-.6-.6-.3-1.6c-.1-.2-.4-.3-.6-.4h-.2-.3-.1c-.1.1-.3.2-.4.3l-1 1c-.1.1-.1.2-.2.3h-.1c0 .1-.1.1-.1.2l-.1.8v1.3l-.3 2.4-.3 2c-.1.7.3 1.3 1 1.6.7.2 1.4.1 1.5-.8.1-.3.2-.6.2-1l.5-2.8v-.1l.1-.3.8-.5c.1.3.3.6.2 1l-.1 2c0 1-.4 1.7-.8 2.5l-1.3 2c-.2.3-.4.7-.8.8-1 .7-1.4 1.5-1.4 2.7v5.2c0 .8-.3 1.5-1 2a3 3 0 0 0-1 1.7l-.3 1-1.8-.7h-.1 0 0zm29.8 13l-2.5 2c-.1.1-.3.1-.5.2 0-.1 0-.2.1-.2.3-.2.2-.3.1-.6l-1-2.6c-.4-.8-.7-1.6-.6-2.6l.3-2.6.4-4.3 1-5.7c.1-.6.2-1.2 0-1.7l-1-3.8c-.1-.4-.3-.6-.7-.5l.4-1.4.8-2.3h.1v-.2-.1l.2-.6c.2-.5.5-.7 1-.6h.7l.3 2.4.7 3.6.6 3.7c.3 1.4.3 2.8-.1 4.2l-1 3.8c-.2.8-.2 1.7-.3 2.5l-.3 3.2c-.1 1 .3 1.8.6 2.6l.7 2h0z"/></g><path d="M293.6 164h-.7c-.5-.1-1 .1-1 .6h-.4c.1.2.1.3.2.5 0 0 0 0 0 .1 0 .1-.1.1-.1.2l-.1.2c-1-.1-.3-.6-.3-1l-1 .4.3-1.3c0 0 0 0 0 0 0 0 .1-.1.1-.1 0 0 0 0 0-.1 0 0 .1-.1.1-.1.2-.3.4-.7.8-1 .4-.3.8-.5 1.2-.8l.7-.5.1-.2.2-.3c0-.1.1-.2.1-.2l.6-.1c.4-.1.6 0 .5.5 0 .1 0 .3 0 .4l-.7 2c-.1.2-.4.3-.6.5h0z" class="s"/><path d="M326.3 188.5c-.3 1-.6 1-1.6 1-.4-.1-1-.2-1.3-.3.2-.2.5-.4.7-.7.4-.6.2-1.2-.4-1.5-.2-.1-.4-.2-.6-.3-.6-.3-.6-.5-.6-1 0-.6.3-1 .8-1 .6-.3 1.2-.7 2-1 .3-.1.6-.2.8-.3l1.8-.8c.5-.3 1-.7 1.4-1 .5.2 1 .2 1.4.5s.4 1 .6 1.4c.3.8-.1 1.7 0 2.6 0 .4-.3.8-.5 1 0 .1-.2.1-.3.1h-.8l-1.4-1.8c-.2-.3-.5-.5-.8-.7-.3-.2-.7 0-.7.4 0 .2 0 .3.1.5.1.6.1 1-.3 1.6-.3.4-.2 1 .1 1.3h0z" class="AE"/><path d="M290.3 169.6c.4 0 .6.2.7.5l1 3.8c.1.6 0 1.2 0 1.7l-1 5.7-.4 4.3-.3 2.6c-.1 1 .2 1.8.6 2.6l1 2.6c.1.2.2.4-.1.6-.1 0 0 .2-.1.3l-.4.1c-.3-.1-.5-.3-.5-.7 0 0-.1-.1-.2-.2v-.2c-.1-.1-.1-.2-.2-.3l-.5-.8c-1-1.4-2-2.4-3.6-3-.3-.1-.5-.4-.8-.6l-.2-3.8v-.1l-.1-2.2-.1-1-.1-3.2c0-.3.1-.5.4-.5.6-.2 1-.6 1-1.2.1-1.2.2-2.5-.3-3.7 0-.1 0-.2 0-.3-.1-.7-.1-.7.5-1l2.3-1.2 1-.8h0z" class="AK"/><g class="AJ"><path d="M291 193.6c.1.1.2.1.2.2-.1.4.2.6.5.7l-.4.1-.3-.7c0-.1.1-.2.1-.3h0zm-.5-29.6l-.8 1-.3-.7c-.1-1-.5-1.8-1.4-2.3-.5-.3-1-.3-1.6-.4s-1.2-.2-1.7-.6c-.8-.6-1-1.5-1-2.4 0-.7-.1-1.4-.2-2l-.3-2.6v-3l-.4-4-.3-2.8-.5-4.4c-.1-.7-.3-1.4-1-2v-.3l.3-1 .8-1.6c.1-.2.2-.3.3-.5h.5s.1 0 .1.1h.1l-.2 1.7c0 .6 0 1 .1 1.7l1.5 7.8.8 5 .6 4.7.4 3.6c.1.8.8 1.2 1.5 1.2h3c.3 0 .7.2 1 .4.5.4 1 1 1 1.6l-1.2.8c-.3.2-.5.6-.8 1h-.1v.1l-.1.1z"/></g><path d="M293.7 161c-.1.1-.1.2-.2.3l.2-.3z" class="n"/><g class="q"><path d="M326.3 188.5c-.3-.4-.4-1-.1-1.3.4-.5.4-1 .3-1.6 0-.2-.1-.3-.1-.5 0-.4.4-.6.7-.4s.6.4.8.7l1.4 1.8c0 1-1 1.8-2 1.6l-1-.2h0zm-9 3.5c.6 0 1 .2 1 .7s-.3.7-.8.7-.8-.2-.8-.6.3-.7.8-.7h0z"/></g><g class="AK"><path d="M280.8 137.7c.6.5.8 1.2 1 2l.5 4.4.3 2.8.4 4 .3 3 .3 2.6a15 15 0 0 1 .2 2c.1 1 .3 1.8 1 2.4.5.4 1 .5 1.7.6l1.6.4c1 .5 1.3 1.3 1.4 2.3 0 .2.2.4.3.7l-.4.7-1.2 2-.1.1v.1c-.1.3-.4.5-.8.5h-.6-1.4-.6l-.3-.2-1-3.2-1-3.8c-.1-.4-.1-1-.1-1.3l-.3-6-.4-5.5-.3-5.3v-.4-1.4-1-.6-.5l-.1-1 .1-.7h0zm-6.8 19c0-.8.4-1.5 1-2 1-.8 1.3-1.8 1.4-3l.4-5.4.4-4.5c.3-1.4-.4-2.5-1-3.6-.4-.7-.8-1.4-1-2.3-.1-.3-.3-.7-.4-1 .8-.1 1 .6 1 1 .2.3.3.7.4 1 .2.3.4.6 1 .7.5.2 1 .5 1.4.7.3 5.7.1 11.4.1 17v2.5.3.1l-1 .6c-.5.1-1 .3-1.4-.1l-2.2-2h0z"/></g><path d="M280.6 161.3l.3 2 .4 3.6c0 .2 0 .4.1.7l.4 1.6.8 2c-.8.3-1.6.4-2.4.4-.2 0-.4 0-.7 0l.1-4 .1-1.6.1-2-.1-1.6c0-.6.4-1 1-1h0z" class="AA"/><path d="M282.6 171c-.3-.7-.6-1.4-.8-2-.2-.5-.3-1-.4-1.6-.1-.2-.1-.4-.1-.7.3-.1.5-.3.8-.3.6-.2 1 .2 1.6.6.1.1.1.4.1.6 0 .6 0 .6.6.6.1.1.2.2.3.2-.5.1-1 .6-1 1.2v2l-1-.1-.2-.4h0z" class="n"/><path d="M280.6 161.3c-.5-.2-1 .3-1 1v1.6c-.5.1-1 .1-1.4-.2l-.1-.3c.1-.1.3-.2.4-.3.1-.2.2-.4.4-.6.4-.4.4-1 .4-1.5-.1-.3 0-.4.3-.4.1 0 .3-.2.4-.3 0-.3 0-.6 0-.8 0 0-.1-.1-.2-.1l-2.2-.4 1-.6s0 0 0 0c0 0 0 0 0-.1v-.3c.6-.3 1 .1 1.3.3l.5.7c0 .1.1.2.1.3 0 .4 0 .7.3 1 .1.2-.1.7-.1 1h0z" class="o"/><path d="M279.8 150.6c.1.2.2.3.2.5-.1.5.2 1 .4 1.3.1.3.2.6.2 1 0 .4 0 1-.1 1.3-.1.8-.1 1.5-.2 2.3 0 .1-.2.2-.3.4-.1-.1-.2-.2-.3-.3-.1-.1-.1-.2-.1-.3V151c0-.1 0-.2 0-.3h.1 0z" class="AD"/><g class="t"><path d="M280.8 137.7l-.1.7v-1c0 .1.1.2.1.3zm.2 5v.4-.4z"/></g><path d="M273.8 206h-.6c-.1 0-.3.1-.4 0-.1-.1-.2-.3-.2-.5l.5-1.7c-.2 0-.5-.1-.7 0-.6.1-1.2-.1-1.4-.6-.2-.6-.5-1.2.1-1.7.1-.1.2-.3.2-.5 0-.1-.1-.3-.2-.3-.4-.1-1-.2-1.4-.2-.4 0-.8 0-1.3 0l.4-.8c.2 0 .3.1.5.1h2.2c.2 0 .4.1.6.2l-.6.4v.1h1c.4 0 .6.2.6.5 0 .2 0 .5 0 .7-.1.5-.1 1 .3 1.4.1.1.2.3.2.4l.2 2.3h0z" class="AA"/><path d="M268.8 200l-.4.8-.3.3c-.6-.5-.7-1.2-.8-2h2.2l-.7 1h0z" class="p"/><path d="M266.8 195.6l1.8-1.6c.3-.2.6-.4 1-.7l.6 1.2c.1.2.3.4.4.6.1.1.1.2.2.2.2.4-.1 1.7-.5 2-.2.2-.4.4-.5.6l-.5.4h-.1v-.8c-.1 0-.4-.2-.6-.1-.3.1-.5-.1-.7-.2-.5-.4-1-1-1-1.6h0z" class="z"/><path d="M269.6 199h-.1c.1-.5.6-.6 1-.7 1-.2 1.4-.8 1-1.8-.1-.2 0-.3-.1-.5-.1-.7-.1-1.3-.2-2-.1-.8-.4-1-1-1h-.4l.3-.4 1.5-.3c.6.1.7.4.6 1 0 .2 0 .3.1.5.2.7.2 1.3.3 2 0 .4-.3.8-.3 1.2-.1.8-.6 1.3-1.4 1.6-.1 0-.1.2-.1.3l-1.2.1h0z" class="o"/><path d="M267.4 191.6h-3c-.5 0-1 0-1.4 0l.1-1.4c0-.2.1-.3.1-.5v-5.2c0-.4-.2-.8.1-1.2l1.2-2c.1-.1.3-.2.4-.2.3.3.5.6.8 1 .3.4.7.7 1.2.6 0 .2.1.5.1.7-.1.8-.3 1.6-.4 2.4-.1.4-.1.8 0 1 .1.8.3 1.5.5 2.2l.6 2.5h0z" class="AJ"/><path d="M266.7 182.6c-.5.1-1-.2-1.2-.6-.2-.3-.5-.6-.8-1-.4-.4-.6-.8-.6-1.4 0-.1 0-.1 0-.2v-.4c.4-.2.8-.1 1 .2h0l.1.1 1.8.7c.4.2.8.4 1.2.6 0 .2.1.3 0 .5-.2.5-.5 1-.7 1.4l-.8.1h0z" class="z"/><g class="AB"><path d="M259.5 196.6c-.7 0-1.4 0-2-.1s-1.2-.3-1.8-.5c.7-.2 1.3-.3 2-.7.4-.2 1-.1 1.4 0 .1 0 .3.2.3.3.1.3.2.7.3 1h0zm-25 7.2c.6 0 1 .3 1.2.7.1.1.1.3 0 .5 0 .1-.3.1-.4.1-.4-.1-.7-.3-1-.5-.2-.1-.2-.4-.3-.6.2-.1.3-.1.5-.2z"/></g><path d="M266.7 182.6l.8-.1c.2 0 .4 0 .5 0 1.2-.3 2.2.1 3 .8 0 0 .1 0 .1.1l1.8 2c.3.4.5.4 1 .2.4-.2.7-.4 1-.7l.7.3c0 0 0 .1 0 .1 0 .1 0 .1 0 .2l-1.5 4.7c-.1.3-.3.6-.4 1-.1.4-.3.6-.7.7l-1.7.4-1.5.3-2.3-1c-.1 0-.1-.1-.2-.1h-.1l-.6-2.5-.5-2.2c-.1-.4 0-.8 0-1l.4-2.4c0-.2 0-.5-.1-.7h0z" class="AK"/><path d="M269.6 199l1.2-.1 2.6-.5c.2-.1.5-.4.6-.7l1-3.7c.1-.4.3-.7.6-1 .5-.5 1-1 1.6-1.4.5-.4 1-1 1-1.6v-.2l.4-2.6h.1c.3 0 .4.1.3.4l-.2 1c-.1 1 .1 2.2.8 3 .4.5.6 1 1.3 1.2.6.1 1.2.2 1.8.3.6.1 1-.2 1.2-.8 0-.1.2-.2.3-.3 0 1 .2 1 1 1.2.4 0 1 .2 1.3.3 0 .1.1.2.1.3.3.6.2.6-.4.8-1.4.4-1.3.6-1 1.6 0 0 0 0 0 0 .1.3-.1.5-.3.5-.3 0-.5 0-.8-.1-.3-.1-.4 0-.4.3v1c0 1-.1.8.8.8.1.5.4.7.8.8l3.6 1.5c-.2.3-.4.6-.1 1 0 .1 0 .3-.1.4-.2.2-.3.4 0 .5.1 0 .1.1.1.2 0 .4.3.7.6 1 .1.1.1.2.1.3 0 .1-.1.1-.2.1-.6.1-.8 0-.8-.6 0-.3-.1-.4-.4-.4-.6 0-1.2-.1-2-.1h-.7-1.4c-.3 0-.4.1-.4.4 0 .8.1.7-.8.7h-1c-.8 0-1.5.7-1.6 1.4l-.7-.3c-.1 0-.2-.1-.3-.1h-3c-.1 0-.2 0-.2 0-.5.6-1.2.3-1.8.3-.2 0-.4 0-.6 0-.1-.8-.1-1.6-.2-2.3 0-.1-.1-.3-.2-.4-.4-.4-.4-1-.3-1.4 0-.2.1-.5 0-.7 0-.3-.2-.6-.6-.5h-1v-.1l.6-.4c-.3-.1-.5-.2-.6-.2-.7 0-1.4 0-2.2 0-.2 0-.3-.1-.5-.1l.7-1h0z" class="AD"/><g class="AA"><path d="M286.2 203.5c.6 0 1.3.1 2 .1.3 0 .4.1.4.4 0 .6.2.7.8.6.1 0 .2-.1.2-.1 0-.1 0-.2-.1-.3-.3-.2-.6-.4-.6-1 0-.1-.1-.1-.1-.2-.3-.2-.2-.3 0-.5.1-.1.2-.3.1-.4-.2-.4 0-.7.1-1l4 1.6c.7.3 1.3 1 2 1.4.1.1.2.1.3.1l1.8 1.4c.2.2.4.3.5.6s-1 1.5-1.3 1.4c-.2 0-.3-.1-.5-.2-.3-.3-.6-.5-1-.8-.4-.4-1-.6-1.5-.6-.2 0-.5-.1-.7-.1s-.5.1-.7.2c-.1-.1-.4-.2-.4-.3-.3-1-1-1-1.8-.8-.2.1-.3.2-.5.2h-.2c-.4-.2-1-.4-1.3-.8-.4-.3-.6-.8-1.2-1 0 0 0-.1-.1-.1h0zm-5.8 2.5c.1-.8.8-1.4 1.6-1.4h1l-.7.3c-.5.3-1 .6-1.4 1-.1.1-.2.1-.4.2h0zm3.3-2c0-.3.1-.4.4-.4h1.4c0 .1-.1.2-.1.2l-1.7.2h0z"/></g><path d="M285.5 182.6l.1 2.3s0 0 0 0c0 0 0 0 0 .1l.2 3.8c-.1 0-.2 0-.3-.1-.6-.4-1.2-.2-1.6.5l-.2.4c-.1 0-.1 0-.1 0V187c0-.5-.2-.7-.8-.7h-1.4c0-.2.1-.3.1-.5l.2-3.5c.1-1.5.1-3 .1-4.6v-.4h.1l1.5.4a10 10 0 0 1-.4.4l.5.2c0-.1.1-.3.1-.4v-3.4c0-.3.1-.4.4-.3a4 4 0 0 0 1.5.1c.2 0 .3-.4.4-.7s.2-.5.3-.7c.5 1.2.4 2.5.3 3.7-.1.6-.5 1-1 1.2-.3.1-.4.2-.4.5l.1 3.2.1 1h0z" class="p"/><g class="AA"><path d="M282 177.3v.4l-1.8.3c-.1 0-.2.3-.2.6 0 .2.1.5.2.6.4.1.5.4.6.8 0 .2.1.4.2.6.3.6.4 1.2.4 1.8v1.3c0 1-.2 1.6-1 2.2-.1.1-.1.3-.1.4s.2.1.4.1h1v2.6c0 .3.2.6.5.8l1.8 1c.1.1.2.3.2.5v.8c-.1.1-.3.2-.3.3-.2.6-.6 1-1.2.8l-1.8-.3c-.7-.1-1-.7-1.3-1.2-.7-1-1-2-.8-3 0-.4.1-.7.2-1s0-.4-.3-.4v-.5l.3-1.3.4-2c.2-.6-.1-1-.7-1-1-.2-1-1-1.6-1.6l1.6-2c.4-.6 1-1 .8-2 .1.1.3.1.3.3.2.4.6.6 1 .5s.8-.1 1.2 0h0zm2.5 21.7c-1 0-.8.1-.8-.8v-1c0-.3.1-.4.4-.3s.5.1.8.1.4-.2.3-.5c-.3-1-.3-1.2 1-1.6.6-.2.6-.2.4-.8-.1-.1-.1-.2-.1-.3.8.1 1 .4 1.4 1 .2.6.4 1.2.6 2 .1.3.3.6 0 1-.4.4-.8.8-1.4.7-.5-.1-1-.3-1.5-.5-.2-.1-.4-.1-.5-.1-.3 0-.5.1-.5.4v1h0z"/></g><path d="M291 193.6l-.1.3-.6-1.5.5.8.2.3v.2h0z" class="q"/><path d="M268.2 180.6l-1.2-.6.3-1c.2-.7.5-1.3 1-1.7.7-.5 1-1.2 1-2V170c0-1.2.4-2 1.4-2.7.3-.2.6-.5.8-.8l1.3-2c.4-.8.8-1.6.8-2.5l.1-2c0-.3-.2-.6-.2-1 .4 0 .8.2 1 .5 1 1.4 2.4 2.6 3.8 3.7l.1.3-.1 1c0 0 0 .1 0 .1v.4c-.1 1.2-.2 2.3-.3 3.5-.1 1-.1 2.3-.2 3.4l-.5 4s0 0 0 .1c0 .5-.3.7-.7.7-.2 0-.4.1-.6.2-.2.1-.5.3-.6.5l-1.3 2.4-.7 1.4-.6.3h-.3-1c-1 .1-2-.2-2.8-.7-.2-.1-.4-.1-.6-.2h0z" class="AK"/><path d="M278.3 163.2c-1.4-1-2.7-2.3-3.8-3.7-.3-.3-.6-.5-1-.5l-.8.5-.1.3c0 0 0 .1 0 .1-.5-.1-1 0-1.5-.4.1-.6.1-1.2.3-1.8.2-.7.5-1.3.4-2h1.4c.1.2.1.3.2.5l.6.6 2.3 2c.4.4 1 .2 1.4.1l2.3.4c.1 0 .1 0 .2.1 0 .3.1.6 0 .8 0 .1-.2.2-.4.3-.3 0-.4.2-.3.4.1.5 0 1-.4 1.5-.1.2-.2.4-.4.6-.1.1-.3.2-.4.3h0z" class="z"/><path d="M271 159.4c.4.4 1 .4 1.5.4l-.5 2.8-.2 1c-.2 1-.8 1-1.5.8-.7-.2-1-1-1-1.6 1 0 1-.1 1.3-1l.3-2v-.5h0z" class="o"/><path d="M271 159.4v.5l-.3 2c-.2 1-.4 1-1.3 1l.3-2 .3-2.4V157c0-.3.1-.5.1-.8l.1-.2c0-.1 0-.1.1-.2l.2-.3h1.2c.1.7-.3 1.3-.4 2-.1.6-.2 1.2-.3 1.8h0z" class="u"/><path d="M271.7 155.7h-1.2l1-1c.1-.1.3-.2.4-.3 0 0 0 0 0 0 0 0 .1 0 .1 0 .1 0 .2 0 .3 0h.2c.5.4.6 1 .6 1.5h-1.4z" class="p"/><path d="M273.2 155.7c0-.6-.2-1-.6-1.5.2.1.5.2.6.4.1.5.2 1 .3 1.6l-.2-.5h0z" class="q"/><path d="M270.3 156c0 .1-.1.1-.1.2l.1-.2z" class="p"/><path d="M272.5 159.8c0-.1 0-.2.1-.3l-.1.3z" class="o"/><path d="M272 154.2s0 0 0 0c0 0 0 0 0 0z" class="q"/><g class="o"><path d="M288 167.8l1.2-2c.1-.2.3-.5.4-.7l.8-1-.3 1.3 1-.4c.1.4-.5 1 .3 1l-.8 2.3c-.1.5-.3 1-.4 1.4l-1 .8c0-.1 0-.3.1-.3.3-.2.3-.4.2-.6 0-.1 0-.2 0-.3.1-.5.1-1-.4-1-.1 0-.1-.1-.1-.2-.1-.4-.3-.3-.6-.1-.1.1-.2.1-.3.1h0z"/><path d="M291.6 165.3l-.2-.5h.4a14 14 0 0 0-.2.6h0z"/></g><path d="M288 167.8c.1 0 .2-.1.3-.1.3-.2.4-.2.6.1 0 .1.1.2.1.2.6.2.6.7.4 1 0 .1 0 .2 0 .3.1.3.1.5-.2.6-.1 0-.1.2-.1.3-.8.4-1.5.8-2.3 1.2-.6.3-.7.3-.5 1v.3l-.3.7c-.1.2-.3.6-.4.7a4 4 0 0 1-1.5-.1c-.4-.1-.4-.1-.4.3v3.4c0 .1-.1.3-.1.4l-.5-.2.4-.4-1.5-.4c0-.5 0-1 0-1.6 0-.5.2-1 .6-1 .7-.4.7-.6.6-1.3l-.4-1.7 1 .1v-2c0-.6.4-1 1-1.2h.6 0 0 1.4.6c.4 0 .6-.2.8-.5 0 0 0 0 .1-.1 0 0 .1-.1.1-.1h0z" class="s"/><path d="M285.5 182.6l-.1-1 .1 1z" class="q"/><path d="M291 193.4c-.1-.1-.1-.2-.2-.3l.2.3z" class="AJ"/><g class="q"><path d="M285.7 185h0 0 0zm-.5-16.5h0 0 .1z"/></g><path d="M288 168s0 0-.1.1c0 0 0 0 .1-.1z" class="o"/><path d="M278.6 158.2s0 0 0 .1h0v-.1z" class="p"/><path d="M273.3 181.2c.2-.5.4-1 .7-1.4l1.3-2.4c.1-.2.4-.4.6-.5.2-.1.4-.2.6-.2.4-.1.7-.3.7-.7 0 0 0 0 0-.1h1c.4 0 .6-.2.6-.6v-.3l.2-3.5-.2-3c0-.4.2-.8.6-1l-.1 4-.2 5c.2.8-.4 1.4-.8 2l-1.6 2-.4.6c-.2-.2-.3-.4-.5-.4-.4-.1-1-.1-1.2.1-.5.2-1 .7-1.5.6h0z" class="n"/><path d="M279.4 176.5l.2-5h.7c.8.1 1.6-.1 2.4-.4l.2.4.4 1.7c.2.8.1 1-.6 1.3-.5.2-.7.6-.6 1 0 .5 0 1 0 1.6h-.1c-.4-.2-.8-.2-1.2 0-.4.1-.8-.1-1-.5-.1-.1-.2-.2-.3-.3h0z" class="u"/><path d="M279.6 167.5c-.4.2-.6.6-.6 1l.2 3-.2 3.5v.3c0 .4-.2.6-.6.6h-1c.2-1.3.4-2.7.5-4l.2-3.4.3-3.5c.1.1.2.1.3.2.1.7.7.7 1.2.7l-.1 1.6h0z" class="p"/><path d="M279.7 165.8c-.5 0-1 0-1.2-.7 0-.1-.2-.1-.3-.2 0-.1 0-.2 0-.4 0 0 0 0 0 0 0 0 0 0 0-.1l.1-1c.4.3 1 .3 1.4.2l-.1 2h0z" class="n"/><path d="M278 189.8c0 .7-.4 1.2-1 1.6l-1.6 1.4c-.3.3-.5.7-.6 1-.4 1.2-.7 2.5-1 3.7-.1.3-.3.6-.6.7l-2.6.5c0-.1.1-.2.1-.2.7-.3 1.2-.8 1.4-1.6.1-.4.4-.7.3-1.2 0-.7 0-1.4-.3-2-.1-.2-.1-.3-.1-.5 0-.5-.1-1-.6-1 .6-.1 1-.3 1.7-.4.4-.1.6-.3.8-.7.1-.3.2-.6.4-1 .1.2.2.5.4.7 1 1 2.5.7 3-.5.1-.2.3-.4.4-.6h0z" class="p"/><path d="M268.2 180.6c.2.1.4.1.6.2 1 .4 1.8.8 2.8.7l-.3 1.8-.1-.1c-1-.8-2-1-3-.8-.2 0-.4 0-.5 0l.7-1.4c.1-.1 0-.3 0-.5h0z" class="n"/><path d="M271.3 183.4l.3-1.8h1c.1 0 .2 0 .3 0l.6-.3c.6.1 1-.3 1.5-.6.4-.2.8-.1 1.3-.1.2 0 .3.3.5.4l-.4 1.2c-.3.3-.7.5-1 .8-.2.6-.2 1.3-.2 2l-1 .7c-.4.2-.6.2-1-.2l-1.8-2h0z" class="s"/><path d="M278 189.8c-.1.2-.3.4-.4.6-.5 1.2-2 1.6-3 .5-.1-.2-.2-.4-.4-.7l1.5-4.7c.5.2.5.4.4 1 0 .1.1.2.1.3.5.5 1.4.4 2 0 .1-.1.2-.1.3-.2v.5h-.1c-.1 0-.1.1-.2.1-.8.8-.5 1.6-.3 2.5v.2h0z" class="n"/><path d="M278.5 186.4c-.1.1-.2.1-.3.2-.5.5-1.4.5-2 0-.1-.1-.1-.2-.1-.3.1-.6.1-.7-.4-1 0-.1 0-.1 0-.2 0 0 0 0 0 0 0 0 0 0-.1-.1l-.7-.3c.1-.6 0-1.3.2-2 .1-.3.6-.6 1-.8 0 .6.3 1 .7 1.6.1.1.4.2.4.1.3-.2.5-.4.7-.7.2-.4.4-.8.6-1.2.7 0 1 .4.7 1-.2.7-.3 1.3-.4 2l-.3 1.3h0z" class="o"/><path d="M275.8 185.2s0 0 .1.1c0 0 0 0 0 0 0 0 0-.1 0-.1h0z" class="n"/><path d="M278 189.6c-.3-1-.5-1.7.3-2.5.1-.1.1-.1.2-.1l-.4 2.6h0z" class="p"/><path d="M281.5 186.3h-1c-.1 0-.4-.1-.4-.1 0-.1 0-.3.1-.4.6-.6 1-1.4 1-2.2v-1.2c0-.6-.1-1.2-.4-1.8-.1-.2-.1-.4-.2-.6-.1-.4-.2-.6-.6-.7-.1 0-.2-.4-.2-.6 0-.2.1-.5.2-.6l1.8-.3-.1 4.6-.2 3.5c0 .2-.1.3-.1.5h0z" class="AD"/><path d="M278.5 182l-.6 1.2c-.2.3-.4.5-.7.7-.1.1-.4 0-.4-.1-.4-.5-.7-1-.7-1.6l.4-1.2.4-.6c.5.6.8 1.4 1.6 1.6h0z" class="u"/><path d="M272.7 181.5h-.3c.1 0 .2 0 .3 0z" class="n"/><g class="p"><path d="M278.3 164.5v.1-.1h0zm-1 11.3v.1-.1z"/></g><g fill="#df8711"><path d="M370.6 98h-184c-3 0-5.5-2.5-5.5-5.5s2.5-5.5 5.5-5.5h184c3 0 5.5 2.5 5.5 5.5s-2.5 5.5-5.5 5.5zm0 161.7h-184c-3 0-5.5 2.5-5.5 5.5s2.5 5.5 5.5 5.5h184c3 0 5.5-2.5 5.5-5.5s-2.5-5.5-5.5-5.5z"/></g><path d="M307 170.2c-.2 0-.3-.1-.5-.2-.3-.3-.3-.7 0-1l44.4-44.4c.1-.1.3-.2.5-.2h25c.4 0 .7.3.7.7s-.3.7-.7.7h-24.6L307.5 170c-.1.1-.3.2-.5.2h0z" class="v"/><path d="M362.5 107.6H444v44.8h-81.5z" fill="#8fc6d7"/><path d="M345.7 210.7h-44.8c-.4 0-.7-.3-.7-.7s.3-.7.7-.7h44.8c.4 0 .7.3.7.7s-.3.7-.7.7z" class="v"/><path d="M332.6 195.3h57.8V227h-57.8z" fill="#8fc6d7"/><g class="v"><path d="M345 202.2h-7.3c-.4 0-.7-.3-.7-.7s.3-.7.7-.7h7.3c.4 0 .7.3.7.7s-.3.7-.7.7zm13.4 0h-10.7c-.4 0-.7-.3-.7-.7s.3-.7.7-.7h10.7c.4 0 .7.3.7.7s-.3.7-.7.7zm23.6 0h-20c-.4 0-.7-.3-.7-.7s.3-.7.7-.7h20c.4 0 .7.3.7.7s-.3.7-.7.7zm-31 5h-13.4c-.4 0-.7-.3-.7-.7s.3-.7.7-.7H351c.4 0 .7.3.7.7s-.3.7-.7.7zm7.4 0h-4.6c-.4 0-.7-.3-.7-.7s.3-.7.7-.7h4.6c.4 0 .7.3.7.7s-.3.7-.7.7zm14 0H362c-.4 0-.7-.3-.7-.7s.3-.7.7-.7h10.4c.4 0 .7.3.7.7s-.3.7-.7.7zm-10.7 4.4h-24c-.4 0-.7-.3-.7-.7s.3-.7.7-.7h24c.4 0 .7.3.7.7s-.3.7-.7.7zm15.6 0h-13c-.4 0-.7-.3-.7-.7s.3-.7.7-.7h13c.4 0 .7.3.7.7s-.3.7-.7.7zm-30.6 4.3h-9c-.4 0-.7-.3-.7-.7s.3-.7.7-.7h9c.4 0 .7.3.7.7s-.3.7-.7.7zm11.7 0h-9c-.4 0-.7-.3-.7-.7s.3-.7.7-.7h9c.4 0 .7.3.7.7s-.3.7-.7.7zm23.8 0H362c-.4 0-.7-.3-.7-.7s.3-.7.7-.7h20.2c.4 0 .7.3.7.7s-.3.7-.7.7zm-29 4.6h-15.6c-.4 0-.7-.3-.7-.7s.3-.7.7-.7h15.6c.4 0 .7.3.7.7s-.3.7-.7.7zm5 0H356c-.4 0-.7-.3-.7-.7s.3-.7.7-.7h2.5c.4 0 .7.3.7.7s-.3.7-.7.7zm21.3-75.2h-12c-.4 0-.7-.3-.7-.7s.3-.7.7-.7h12c.4 0 .7.3.7.7s-.3.7-.7.7zm21.6 0H384c-.4 0-.7-.3-.7-.7s.3-.7.7-.7h17.4c.4 0 .7.3.7.7s-.3.7-.7.7zm38.4 0h-32.5c-.4 0-.7-.3-.7-.7s.3-.7.7-.7h32.5c.4 0 .7.3.7.7s-.3.7-.7.7zm-50-27.4h-21.8c-.4 0-.7-.3-.7-.7s.3-.7.7-.7h21.8c.4 0 .7.3.7.7s-.3.7-.7.7zm11.7 0h-7.5c-.4 0-.7-.3-.7-.7s.3-.7.7-.7h7.5c.4 0 .7.3.7.7s-.3.7-.7.7zm22.7 0h-17c-.4 0-.7-.3-.7-.7s.3-.7.7-.7h17c.4 0 .7.3.7.7s-.3.7-.7.7zm-17.4 7h-38.8c-.4 0-.7-.3-.7-.7s.3-.7.7-.7h38.8c.4 0 .7.3.7.7s-.3.7-.7.7zm25.4 0h-21c-.4 0-.7-.3-.7-.7s.3-.7.7-.7h21c.4 0 .7.3.7.7s-.3.7-.7.7zm-49.6 6.7h-14.6c-.4 0-.7-.3-.7-.7s.3-.7.7-.7h14.6c.4 0 .7.3.7.7s-.3.7-.7.7zm19 0h-14.7c-.4 0-.7-.3-.7-.7s.3-.7.7-.7h14.7c.4 0 .7.3.7.7s-.3.7-.7.7zm38.7 0h-32.7c-.4 0-.7-.3-.7-.7s.3-.7.7-.7H440c.4 0 .7.3.7.7s-.3.7-.7.7zm-47 6.8h-25.2c-.4 0-.7-.3-.7-.7s.3-.7.7-.7H393c.4 0 .7.3.7.7s-.3.7-.7.7zm8.4 0h-4c-.4 0-.7-.3-.7-.7s.3-.7.7-.7h4c.4 0 .7.3.7.7s-.3.7-.7.7z"/></g><g class="AL"><path d="M250 289.3l16.7-26.2 26.7-14.2 20.8 50.2-49 21.8-15.2-31.7z"/><path d="M293.4 249l46.3-5.2c3-.4 6 1.8 6.6 4.8.6 3-1 6-4 7L293 271.6l.4-22.7h0z"/><path d="M322.3 259.2l1.5 6.5c.7 3-.6 6-3.3 7.6l-.3.1 1.4 5.6c.7 2.7-.3 5.6-2.6 7.2v.1l.7 4.6c.4 3-1 5.7-3.5 7l-2 1-30.2-21.6.3-12.3 38-6h0z"/></g><g class="v"><path d="M307 265.4c-.3 0-.6-.2-.6-.6-.1-.4.2-.7.6-.8l15.7-2.8c.4-.1.7.2.8.6s-.2.7-.6.8l-15.7 2.8h-.2 0zm2 11.4c-.3 0-.5-.2-.6-.5-.1-.4.2-.7.5-.8l11-2.6c.3-.2.8 0 1 .3s0 .8-.3 1c-1.4.7-10.4 2.6-11.4 2.8h-.2zm.8 12.5c-.3 0-.5-.2-.6-.5-.1-.4.1-.7.5-.8l9-2.2c.4-.1.7.1.8.5s-.1.7-.5.8l-9 2.2h-.2zm-184.3-119c-8.4-5.7-21-6.3-29.3-1.2-5.7 3.3-9.3 8.6-14.2 12.8a43 43 0 0 1-20 9.2c-6.4 1.2-13 1-19.7 1.3-6.6.4-13.3 1.3-18.7 4.5s-9 9-7.3 14.6c1 3.6 4 6.6 7.7 8.7a44 44 0 0 0 11.8 4.2c10 2.4 20.7 3.5 31 2.2 14.3-2 26.6-8.7 39.7-13.4 11.6-4.3 21-11.3 24.5-22.2l-5.5-20.6z"/></g><path d="M195 381.3l14.8 78.6h-152l16.6-78.6H195z" fill="#2b6577"/><path d="M125 217.8h39.5v45.4H125z" class="AL"/><path d="M154.5 227.3c-6.3.7-27-5.2-29.6-5.5v12.4c1.8 4.6 27-1.5 29.6-7z" class="v"/><path d="M56.2 261c9.8-13.2 48.3-14.8 48.3-14.8l5.4-.2 73.7.2c15.2-3 61.3 29.3 56.7 37.5l21.3-15.6 34.6 38.6s-41 62.3-65 66c-21.6 3.2-31.7-18-31.7-18-.4.4-4.7 26.7-4.7 26.7H83.5L79.3 431l-36.4-.7S37.3 286.5 56.2 261h0z" fill="#357e94"/><path d="M79.3 430.3l2.5 29.6H38l5-29.6h36.4z" class="AL"/><g class="v"><path d="M218.7 308.8c-.2 0-.4-.1-.5-.2-.4-.3-.6-1-.3-1.3a228 228 0 0 1 21.9-24.3c.4-.4 1-.4 1.3 0 .4.4.4 1 0 1.4-9.4 9.2-19.2 20.3-21.7 24-.2.3-.5.4-.8.4h0zm-19 46.8h-.2c-.5-.1-.8-.6-.7-1l11.5-53.3c.1-.5.6-1 1-.7.5.1.8.6.7 1L200.6 355c-.1.4-.5.8-1 .8h0zM83 381.6a1 1 0 0 1-1-1l-5-71.3a1 1 0 1 1 2 0l5 71.4a1 1 0 0 1-1 1h0 0zm100.8-191.2c13.4-24-12-33-12-33s-10.7-17.5-39-7c-27.3 10.3-30.8 32.3-26.2 54.5l77.3-14.4z"/></g><path d="M111.8 200c.5-.1 1-.1 1.5-.1-2-16.3 5.6-35 24.4-42 19-7.2 39.2 3.7 45 21.4s-3.3 41.2-22 49c-15.7 6.6-33-.6-41.7-13-1.2 1.4-2.8 2.4-4.6 2.8-4.4.8-8.6-2.7-9.3-7.7-.7-5 2.3-9.7 6.8-10.5z" class="AL"/><g class="v"><path d="M159 210.3c.1 0 .3-.1.3-.1l3.8-3.7-4.4-9c-.1-.2-.4-.3-.7-.2s-.3.4-.2.7l4 8.4-3.3 3.2c-.2.2-.2.5 0 .7.1.1.2.2.4.2h0zm-7-18c.4.1.5.5.4 1s-.5.5-1 .4c-.4-.1-8.6-3-14.4 4-.2.3-.7.3-1 .1s-.3-.7-.1-1c6.5-7.8 15.8-4.5 16-4.5h0zm9 28.8c.3-.2.4-.6.2-1-.2-.3-.6-.4-1-.2-.6 1.7-8 6.8-15-1-.3-.2-.7-.2-1 .1s-.2.7.1 1c7.2 8.8 15.8 3 16.5 1h0zm17.6-30.3c.3.2.4.7.2 1s-.7.4-1 .2-7.4-5.2-15 0c-.3.2-.7.1-1-.2-.2-.3-.1-.7.2-1 8.3-5.8 16.4-.1 16.5 0h0zm-34 14.8c-1.2 0-2-1-2-2.2l.1-3.5c0-1.2 1-2 2.2-2s2 1 2 2.2l-.1 3.5c0 1.2-1 2-2.2 2zm28-5c-1.2 0-2-1-2-2.2l.1-3.5c0-1.2 1-2 2.2-2s2 1 2 2.2l-.1 3.5c0 1.2-1 2-2.2 2z"/></g><ellipse cx="132.5" cy="214" rx="5.7" ry="3" transform="matrix(.99 -.12 .12 .99 -24.57 17.32)" fill="#ff9d6c"/><g class="v"><path d="M110.8 212l2.2-.7c.7-.2 1-1 1-1.7s-1-1-1.7-1l-2.2.7c-.7.2-1 1-1 1.7s1 1 1.7 1zm68-51.3s6.7 12 1.6 19l-20 3-2.7-8-2.7 8.4-19.2 3-1-7.4-2 9.6-9 2.3-10.2 11.8L110 189s13.8-57.4 69-28.2z"/></g></g></svg>