<svg width="460" height="460" viewBox="0 0 460 460" fill="none" xmlns="http://www.w3.org/2000/svg">
<g clip-path="url(#clip0_761_11084)">
<rect width="460" height="460" fill="white"/>
<path d="M-178.799 272.63C-177.397 272.97 -175.99 272.364 -175.239 271.223L-107.225 307.549C-107.294 307.711 -107.352 307.881 -107.396 308.056C-107.827 309.845 -106.728 311.643 -104.941 312.076C-103.154 312.51 -101.354 311.409 -100.921 309.621C-100.852 309.335 -100.825 309.05 -100.831 308.769L-58.2726 303.905C-58.0156 305.124 -57.0888 306.149 -55.7977 306.46C-54.0103 306.893 -52.2109 305.792 -51.7777 304.005C-51.5882 303.214 -51.6971 302.421 -52.0305 301.744L-11.9731 277.064C-11.5236 277.66 -10.8745 278.111 -10.0924 278.302C-9.24411 278.506 -8.39724 278.363 -7.6914 277.972L55.1624 369.693C54.6286 370.133 54.2265 370.745 54.0496 371.47C53.6163 373.257 54.7173 375.056 56.5047 375.49C58.292 375.923 60.0914 374.822 60.5246 373.034C60.6491 372.514 60.6414 371.994 60.5288 371.506L188.172 329.357C187.95 331.026 189.021 332.628 190.693 333.033C192.48 333.466 194.279 332.365 194.713 330.577C194.752 330.414 194.775 330.253 194.788 330.09L244.211 329.879C244.345 331.253 245.325 332.453 246.741 332.795C247.453 332.967 248.166 332.892 248.796 332.631L277.925 387.943L277.083 387.961L278.209 388.476L278.385 388.809L278.528 388.62L374.898 432.685C374.863 432.788 374.831 432.893 374.804 433.002C374.37 434.789 375.471 436.588 377.259 437.022C379.046 437.455 380.845 436.354 381.279 434.567C381.712 432.779 380.611 430.98 378.824 430.547C378.159 430.386 377.491 430.439 376.894 430.659L356.419 387.657C356.448 387.573 356.475 387.486 356.497 387.396C356.606 386.951 356.615 386.503 356.546 386.076L434.772 365.751C435.141 366.767 435.991 367.584 437.121 367.857C438.909 368.291 440.708 367.19 441.141 365.402C441.574 363.615 440.473 361.816 438.686 361.382C437.98 361.211 437.269 361.283 436.646 361.541L410.736 311.844C411.427 311.397 411.959 310.696 412.169 309.829C412.449 308.667 412.081 307.504 411.303 306.712L437.033 276.2C437.363 276.431 437.739 276.608 438.154 276.707C439.941 277.14 441.741 276.039 442.174 274.252C442.607 272.464 441.506 270.665 439.719 270.232C438.633 269.971 437.545 270.275 436.759 270.952L404.856 240.288C405.151 239.92 405.373 239.486 405.491 238.995C405.88 237.39 405.033 235.78 403.562 235.152L419.281 192.675C421.057 193.082 422.834 191.987 423.262 190.212C423.695 188.424 422.594 186.625 420.807 186.192C420.496 186.116 420.184 186.089 419.878 186.104L414.331 152.605C415.476 152.304 416.425 151.399 416.722 150.165C416.8 149.845 416.825 149.525 416.808 149.212L467.894 141.807C468.179 142.982 469.091 143.962 470.348 144.264C472.135 144.697 473.934 143.596 474.367 141.809C474.801 140.022 473.7 138.222 471.912 137.789C471.781 137.757 471.652 137.738 471.521 137.721L473.43 61.609C474.844 61.5142 476.094 60.5167 476.444 59.0686C476.877 57.2813 475.776 55.4819 473.989 55.0487C472.201 54.6154 470.402 55.7164 469.969 57.5037C469.844 58.0135 469.851 58.5246 469.957 59.0047L363.833 92.9944C363.41 92.1394 362.628 91.4716 361.63 91.2304C359.842 90.7971 358.043 91.8981 357.61 93.6855C357.176 95.4728 358.277 97.2722 360.065 97.7054C360.242 97.747 360.421 97.7707 360.598 97.7858L363.433 136.878C362.124 137.065 360.993 138.026 360.664 139.391C360.557 139.834 360.545 140.279 360.613 140.702L271.621 166.589C271.237 165.615 270.4 164.837 269.307 164.571C267.52 164.137 265.72 165.238 265.287 167.026C264.854 168.813 265.955 170.612 267.742 171.046C268.153 171.146 268.563 171.159 268.956 171.108L278.442 212.913C277.382 213.258 276.518 214.128 276.238 215.295L276.288 214.992L168.763 197.146C168.879 195.549 167.832 194.058 166.227 193.67C165.399 193.469 164.571 193.602 163.875 193.974L138.756 155.948C139.311 155.504 139.731 154.882 139.908 154.135C140.339 152.346 139.241 150.549 137.453 150.115C135.666 149.682 133.867 150.783 133.433 152.571C133.265 153.267 133.331 153.966 133.581 154.584L72.265 185.857C71.818 185.15 71.1112 184.61 70.235 184.398C68.4476 183.964 66.6483 185.065 66.215 186.853C66.0351 187.598 66.1221 188.342 66.4152 188.99L29.6734 209.637C29.2251 208.985 28.5464 208.491 27.7184 208.291C25.9311 207.858 24.1317 208.958 23.6985 210.746C23.6524 210.935 23.6284 211.125 23.6148 211.31L-53.5698 214.888C-53.7767 213.603 -54.7317 212.506 -56.0762 212.18C-57.0882 211.937 -58.1046 212.182 -58.8755 212.769L-95.4441 174.364C-95.0818 173.964 -94.8112 173.471 -94.6738 172.91C-94.2406 171.123 -95.3416 169.323 -97.1289 168.89C-98.918 168.459 -100.716 169.558 -101.149 171.345C-101.151 171.359 -101.153 171.372 -101.157 171.384L-141.917 169.884L-163.462 169.091C-163.657 167.787 -164.614 166.667 -165.974 166.337C-167.762 165.904 -169.561 167.005 -169.994 168.792C-170.33 170.183 -169.74 171.575 -168.622 172.332L-186.68 216.256C-186.724 216.244 -186.769 216.228 -186.817 216.216C-188.605 215.783 -190.404 216.884 -190.837 218.672C-191.27 220.459 -190.169 222.258 -188.382 222.692C-187.958 222.793 -187.533 222.809 -187.127 222.748L-178.935 266.192C-180.048 266.512 -180.964 267.402 -181.255 268.61C-181.688 270.397 -180.587 272.197 -178.799 272.63ZM-165.626 172.707C-164.61 172.338 -163.793 171.487 -163.519 170.357C-163.467 170.138 -163.439 169.921 -163.429 169.708L-138.999 170.606L-101.24 171.995C-101.253 172.319 -101.217 172.637 -101.139 172.944L-156.359 202.216L-165.624 172.709L-165.626 172.707ZM71.8473 189.948L96.404 209.635L70.6939 245.908C70.4236 245.753 70.1279 245.628 69.8098 245.552C69.6597 245.514 69.5083 245.495 69.3577 245.479L69.7396 190.953C70.5464 190.884 71.295 190.522 71.8473 189.948ZM135.009 156.233C135.279 156.389 135.575 156.513 135.893 156.59C136.079 156.634 136.261 156.66 136.444 156.671L138.387 239.9C137.619 239.989 136.909 240.343 136.379 240.892L97.2392 209.515L135.006 156.232L135.009 156.233ZM404.799 314.281L383.021 281.534L406.455 306.823C406.099 307.219 405.834 307.71 405.696 308.266C405.394 309.518 405.844 310.772 406.752 311.561L404.799 314.281ZM434.669 363.839C434.562 364.286 434.55 364.732 434.619 365.159L356.393 385.481C356.2 384.948 355.873 384.471 355.443 384.099L404.778 315.367L435.814 362.037C435.264 362.48 434.848 363.101 434.667 363.842L434.669 363.839ZM59.2337 369.544C58.9256 369.325 58.5781 369.157 58.1967 369.047L68.2039 314.959C69.822 315.109 71.3491 314.053 71.742 312.426L104.693 317.203L59.2337 369.544ZM-184.904 221.418C-184.864 221.36 -184.821 221.3 -184.786 221.238L-144.843 247.679C-144.974 247.925 -145.078 248.186 -145.148 248.468C-145.329 249.208 -145.24 249.95 -144.953 250.597L-153.423 255.322L-184.904 221.418ZM-74.484 280.163L-61.3469 286.119C-61.3824 286.218 -61.4129 286.32 -61.4384 286.426C-61.5977 287.088 -61.5471 287.75 -61.3321 288.344L-71.0334 292.909L-137.735 251.481L-74.484 280.163ZM-61.0944 285.56L-107.033 264.729L-138.764 250.34C-138.729 250.241 -138.698 250.139 -138.673 250.033C-138.53 249.442 -138.556 248.853 -138.719 248.308L-80.1583 224.97L-59.5812 284.176C-60.2104 284.464 -60.7442 284.942 -61.0952 285.556L-61.0944 285.56ZM-144.653 251.134C-144.204 251.79 -143.525 252.288 -142.693 252.488C-141.888 252.684 -141.081 252.566 -140.396 252.215L-106.201 306.183L-152.993 255.785L-144.652 251.131L-144.653 251.134ZM-103.374 305.603C-104.179 305.407 -104.986 305.525 -105.67 305.875L-139.878 251.888C-139.647 251.708 -139.436 251.499 -139.257 251.264L-71.6999 293.223L-101.29 307.152C-101.734 306.402 -102.463 305.824 -103.375 305.606L-103.374 305.603ZM-101.025 307.706L-71.0758 293.607L-57.9909 301.734C-58.1 301.954 -58.1907 302.19 -58.2509 302.437C-58.3198 302.723 -58.3468 303.008 -58.3413 303.29L-100.899 308.154C-100.931 308 -100.971 307.848 -101.026 307.701L-101.025 307.706ZM-55.962 300.031C-56.6371 300.234 -57.2384 300.643 -57.6659 301.21L-70.411 293.296L-61.071 288.898C-60.6275 289.648 -59.8986 290.226 -58.9858 290.445C-58.6075 290.537 -58.2266 290.556 -57.8581 290.517L-55.962 300.031ZM-55.5229 285.231L-23.9908 257.111L-11.6123 272.662C-12.0562 273.087 -12.3895 273.638 -12.5475 274.282C-12.6521 274.716 -12.6637 275.15 -12.6016 275.566L-55.0586 286.112C-55.1691 285.798 -55.3252 285.501 -55.5229 285.231ZM25.3766 214.466C25.6176 214.593 25.8788 214.697 26.1579 214.765C26.7042 214.896 27.2478 214.886 27.7548 214.757L45.1572 256.471L-6.26261 273.717C-6.50837 273.162 -6.9 272.682 -7.40372 272.329L25.3783 214.463L25.3766 214.466ZM281.731 218.53L306.946 243.441C306.611 243.829 306.356 244.3 306.229 244.834C306.167 245.095 306.14 245.354 306.139 245.612L293.571 248.181L281.248 218.897C281.421 218.789 281.583 218.666 281.735 218.529L281.731 218.53ZM410.177 149.07C410.076 150.132 410.492 151.156 411.25 151.848L397.94 169.549L366.672 142.014C366.881 141.699 367.044 141.343 367.139 140.956L410.176 149.072L410.177 149.07ZM366.288 142.492L397.572 170.042L356.159 225.111C355.867 224.933 355.545 224.794 355.194 224.71C355.155 224.701 355.115 224.695 355.076 224.687L363.905 143.499C364.814 143.498 365.669 143.124 366.287 142.494L366.288 142.492ZM69.2912 308.405C69.1411 308.367 68.994 308.347 68.8434 308.331L69.3094 252.104C70.2537 252.026 71.1203 251.544 71.6877 250.793L107.06 272.686L70.6362 309.084C70.2561 308.769 69.8036 308.531 69.2912 308.405ZM72.0101 250.268C72.1192 250.048 72.2064 249.816 72.2684 249.567C72.3314 249.311 72.3569 249.054 72.3584 248.8L135.454 243.28C135.461 243.586 135.509 243.882 135.596 244.165L107.508 272.234L72.0119 250.266L72.0101 250.268ZM135.851 244.782C136.056 245.159 136.33 245.497 136.663 245.771L131.736 280.581L131.26 283.952C130.169 283.897 129.137 284.383 128.477 285.22L108.04 272.573L135.847 244.787L135.851 244.782ZM131.878 284.039C131.878 284.039 131.876 284.037 131.873 284.036L132.347 280.678L137.235 246.145C137.471 246.269 137.727 246.37 137.999 246.436C138.449 246.545 138.899 246.556 139.326 246.487L154.564 270.992L133.642 285.128C133.201 284.605 132.597 284.208 131.88 284.037L131.878 284.039ZM71.0707 309.519L107.598 273.017L128.146 285.735C128.022 285.971 127.923 286.225 127.858 286.494C127.723 287.057 127.739 287.619 127.879 288.142L71.4869 310.152C71.3744 309.927 71.2334 309.716 71.0707 309.519ZM188.952 327.628L134.012 288.877C134.15 288.626 134.261 288.35 134.333 288.059C134.54 287.202 134.393 286.344 133.989 285.634L154.886 271.518L189.472 327.137C189.281 327.281 189.109 327.446 188.954 327.63L188.952 327.628ZM155.395 271.172L179.708 254.745C180.14 255.217 180.709 255.567 181.378 255.727C181.638 255.789 181.899 255.818 182.155 255.817L187.389 298.758L190.775 326.536C190.5 326.596 190.238 326.686 189.993 326.811L155.395 271.172ZM351.186 384.008L330.218 361.752L317.26 347.994C317.607 347.599 317.867 347.121 318 346.572C318.261 345.497 317.963 344.421 317.3 343.638L328.833 331.862L351.599 383.723C351.453 383.809 351.315 383.904 351.183 384.006L351.186 384.008ZM268.097 256.532L309.045 290.403C308.826 290.726 308.653 291.092 308.558 291.496C308.391 292.189 308.456 292.884 308.702 293.503L292.266 303.093L267.578 256.957C267.766 256.833 267.942 256.69 268.101 256.531L268.097 256.532ZM308.978 294.053C309.425 294.76 310.133 295.304 311.013 295.515C311.235 295.569 311.454 295.599 311.674 295.606L314.275 342.496C313.997 342.538 313.729 342.616 313.474 342.723L292.556 303.633L308.98 294.05L308.978 294.053ZM316.862 343.207C316.488 342.904 316.046 342.673 315.545 342.552C315.326 342.5 315.104 342.468 314.889 342.46L313.967 325.712L312.308 295.57C312.493 295.542 312.672 295.495 312.847 295.437L328.57 331.257L316.862 343.211L316.862 343.207ZM313.408 295.188C314.194 294.751 314.804 294.004 315.033 293.06C315.125 292.678 315.144 292.297 315.105 291.928L377.459 279.463C377.592 279.906 377.814 280.313 378.112 280.664L329.033 330.778L313.41 295.186L313.408 295.188ZM377.41 277.732C377.318 278.115 377.3 278.496 377.338 278.864L314.984 291.329C314.793 290.685 314.407 290.111 313.882 289.687L335.028 257.767L377.509 277.404C377.47 277.512 377.439 277.621 377.412 277.734L377.41 277.732ZM313.369 289.347C313.123 289.216 312.86 289.11 312.578 289.04C312.492 289.018 312.407 289.007 312.322 288.993L309.792 248.924C310.853 248.819 311.809 248.208 312.348 247.283L334.463 257.506L313.369 289.347ZM308.686 248.852C308.85 248.891 309.015 248.913 309.177 248.929L311.704 288.954C311.39 288.963 311.086 289.017 310.793 289.108L293.812 248.759L306.192 246.227C306.426 247.476 307.368 248.537 308.682 248.853L308.686 248.852ZM310.228 289.347C309.99 289.473 309.765 289.627 309.563 289.808L268.495 256.049C268.713 255.728 268.88 255.365 268.977 254.964C269.071 254.579 269.089 254.194 269.047 253.819L293.198 248.881L310.225 289.345L310.228 289.347ZM185.396 253.274C185.407 253.226 185.414 253.178 185.423 253.128L230.997 253.901L262.416 254.434C262.469 255.14 262.749 255.802 263.196 256.332L221.616 298.668L184.378 254.975C184.866 254.54 185.232 253.959 185.396 253.274ZM265.26 257.481C265.879 257.572 266.485 257.483 267.03 257.252L291.73 303.408L250.239 327.617C249.846 327.068 249.286 326.635 248.609 326.401L265.26 257.481ZM250.551 328.147L292.022 303.951L312.929 343.017C312.33 343.412 311.857 343.997 311.613 344.716L250.827 330.03C250.925 329.37 250.819 328.718 250.551 328.147ZM313.981 349.031C315.009 349.278 316.039 349.019 316.813 348.417L326.26 358.447L350.74 384.435C350.653 384.539 350.568 384.649 350.491 384.764L301.656 358.41L311.437 345.632C311.36 347.2 312.399 348.648 313.981 349.031ZM353.711 383.307C353.173 383.234 352.645 383.296 352.159 383.466L329.297 331.387L378.549 281.097C378.837 281.333 379.167 281.522 379.532 281.654L353.711 383.307ZM377.766 276.848L335.367 257.25L352.838 230.878C353.084 231.009 353.348 231.115 353.63 231.185C354.335 231.356 355.042 231.284 355.664 231.029L378.847 275.717C378.409 276 378.035 276.384 377.766 276.848ZM352.326 230.538L334.804 256.987L312.607 246.725C312.646 246.617 312.677 246.508 312.704 246.395C312.846 245.811 312.82 245.227 312.663 244.685L351.439 229.441C351.65 229.863 351.952 230.235 352.325 230.534L352.326 230.538ZM280.694 219.174L292.955 248.305L268.924 253.218C268.655 252.336 268.031 251.588 267.173 251.178L278.896 219.352C279.52 219.462 280.139 219.393 280.693 219.176L280.694 219.174ZM278.302 219.187L266.595 250.969C266.57 250.962 266.546 250.953 266.521 250.946C264.733 250.513 262.934 251.614 262.501 253.402C262.468 253.54 262.444 253.681 262.429 253.82L192.152 252.626L185.485 252.515C185.486 252.287 185.464 252.061 185.422 251.844L276.557 217.669C276.931 218.352 277.536 218.903 278.302 219.192L278.302 219.187ZM179.334 254.255L155.068 270.647L139.939 246.32C140.891 245.962 141.66 245.175 141.967 244.136L178.83 252.348C178.801 253.033 178.985 253.692 179.333 254.251L179.334 254.255ZM68.2442 252.023C68.3943 252.06 68.5414 252.081 68.692 252.096L68.226 308.323C67.9824 308.344 67.7434 308.391 67.5157 308.464L45.9795 256.84L65.9853 250.129C66.3917 251.045 67.1991 251.768 68.2485 252.022L68.2442 252.023ZM-6.07149 275.84C-5.94346 275.314 -5.95447 274.789 -6.07027 274.295L45.3908 257.033L66.9456 308.699C66.4086 308.984 65.9501 309.413 65.6341 309.95L-6.17758 276.19C-6.13575 276.077 -6.09896 275.96 -6.07149 275.84ZM71.8303 311.812C71.8482 311.438 71.8054 311.07 71.7042 310.721L128.086 288.715C128.237 289.03 128.44 289.319 128.684 289.576L105.171 316.649L71.8285 311.814L71.8303 311.812ZM129.15 289.978C129.489 290.222 129.879 290.405 130.311 290.512C131.595 290.822 132.881 290.342 133.667 289.387L188.596 328.13C188.492 328.312 188.402 328.505 188.332 328.711L105.899 316.757L129.153 289.984L129.15 289.978ZM192.263 326.55C191.968 326.478 191.674 326.453 191.386 326.462L182.768 255.762C183.165 255.688 183.544 255.544 183.883 255.338L221.185 299.106L193.584 327.209C193.21 326.902 192.766 326.673 192.263 326.55ZM222.016 299.137L263.634 256.763C263.933 257.006 264.275 257.204 264.66 257.335L248.009 326.255C247.141 326.128 246.293 326.352 245.614 326.83L222.015 299.139L222.016 299.137ZM250.681 330.626L310.991 345.196L301.104 358.11L250.59 330.851C250.624 330.777 250.652 330.703 250.681 330.626ZM350.2 385.303C350.128 385.471 350.068 385.642 350.023 385.825C349.978 386.007 349.955 386.19 349.94 386.371L279.07 387.911L301.274 358.901L350.198 385.302L350.2 385.303ZM354.945 383.731C354.788 383.64 354.619 383.559 354.444 383.493L354.349 383.291L380.127 281.801C380.87 281.92 381.6 281.778 382.225 281.442L404.417 314.81L354.95 383.731L354.945 383.731ZM436.568 275.799L410.837 306.311C410.507 306.08 410.132 305.903 409.717 305.804C409.452 305.738 409.187 305.714 408.924 305.714L406.138 276.614L435.66 274.056C435.779 274.717 436.097 275.323 436.565 275.797L436.568 275.799ZM408.312 305.774C407.797 305.871 407.315 306.089 406.906 306.404L383.126 280.74C383.482 280.344 383.747 279.854 383.885 279.297C383.948 279.041 383.973 278.785 383.976 278.535L405.526 276.667L408.312 305.774ZM383.923 277.924C383.761 277.03 383.239 276.237 382.475 275.735L400.835 241.222C401.035 241.317 401.252 241.394 401.476 241.449C401.706 241.506 401.939 241.533 402.167 241.539L405.472 276.058L383.926 277.926L383.923 277.924ZM400.305 240.907L384.421 270.77L398.93 238.057C398.878 239.187 399.409 240.257 400.305 240.907ZM381.712 275.362C381.621 275.332 381.527 275.304 381.432 275.279C380.727 275.108 380.02 275.179 379.398 275.435L356.215 230.747C356.911 230.299 357.445 229.596 357.654 228.729C357.839 227.965 357.742 227.199 357.431 226.538L417.394 191.463C417.689 191.845 418.072 192.166 418.517 192.395L381.713 275.367L381.712 275.362ZM357.119 226.008C356.982 225.819 356.829 225.64 356.652 225.479L398.034 170.448L417.348 187.455C417.093 187.802 416.901 188.201 416.794 188.648C416.598 189.453 416.718 190.257 417.066 190.94L357.121 226.006L357.119 226.008ZM417.757 186.999L398.407 169.959L411.748 152.219C412.04 152.397 412.363 152.537 412.713 152.621C413.057 152.704 413.399 152.729 413.735 152.706L419.277 186.19C418.707 186.324 418.184 186.603 417.76 187L417.757 186.999ZM414.276 146.144C412.532 145.723 410.783 146.758 410.296 148.466L367.435 140.382L467.131 141.295L416.733 148.6C416.449 147.425 415.536 146.445 414.28 146.143L414.276 146.144ZM467.904 140.244C467.868 140.392 467.846 140.542 467.832 140.69L367.212 139.768C367.151 139.271 366.979 138.798 366.714 138.384L401.858 112.079L467.973 140.023C467.95 140.097 467.926 140.17 467.906 140.246L467.904 140.244ZM363.123 143.41C363.181 143.424 363.24 143.431 363.297 143.441L354.467 224.617C353.459 224.598 352.512 225.046 351.875 225.794L328.5 209.426L362.662 143.259C362.811 143.319 362.962 143.372 363.123 143.41ZM351.523 226.298C351.371 226.563 351.252 226.851 351.177 227.167C351.035 227.75 351.061 228.335 351.218 228.877L312.442 244.121C312.177 243.594 311.77 243.14 311.265 242.816L328.216 209.982L351.523 226.302L351.523 226.298ZM310.713 242.532C310.564 242.472 310.411 242.417 310.249 242.379C309.537 242.207 308.824 242.282 308.196 242.541L270.341 170.598C270.61 170.423 270.853 170.21 271.065 169.961L327.704 209.62L310.711 242.53L310.713 242.532ZM269.798 170.886L307.65 242.827C307.561 242.884 307.473 242.946 307.39 243.016L282.143 218.075C282.408 217.724 282.605 217.314 282.715 216.861C283.146 215.072 282.047 213.275 280.26 212.841C279.849 212.742 279.439 212.728 279.046 212.78L269.562 170.976C269.644 170.951 269.722 170.92 269.801 170.888L269.798 170.886ZM276.314 217.105L185.247 251.256C184.861 250.291 184.027 249.52 182.939 249.257C182.45 249.14 181.96 249.138 181.495 249.233L166.693 199.994C167.635 199.614 168.387 198.808 168.663 197.755L276.181 215.601C276.105 216.122 276.156 216.634 276.312 217.107L276.314 217.105ZM164.667 200.144C165.155 200.261 165.646 200.263 166.109 200.17L180.585 248.325L160.901 205.42L164.061 199.938C164.251 200.025 164.455 200.098 164.668 200.148L164.667 200.144ZM180.496 249.611C179.732 250.052 179.142 250.787 178.919 251.712C178.916 251.721 178.916 251.733 178.911 251.744L142.085 243.539C142.209 242.328 141.658 241.169 140.694 240.486L160.521 206.07L180.493 249.609L180.496 249.611ZM140.163 240.178C139.973 240.09 139.768 240.018 139.556 239.967C139.372 239.925 139.188 239.897 139.005 239.886L137.062 156.657C137.308 156.627 137.548 156.574 137.781 156.493L160.209 205.385L140.163 240.178ZM135.998 241.372C135.79 241.684 135.631 242.035 135.536 242.422C135.517 242.503 135.505 242.585 135.491 242.664L72.3023 248.194C72.1652 247.441 71.7713 246.76 71.1958 246.263L96.8865 210.018L135.998 241.372ZM66.3364 246.824C66.0854 247.167 65.8955 247.567 65.7899 248.007C65.6618 248.533 65.6728 249.059 65.7886 249.553L45.7433 256.277L28.3345 214.551C28.6284 214.416 28.8995 214.237 29.1423 214.025L66.3371 246.829L66.3364 246.824ZM24.8597 214.126L-7.94271 272.026C-8.12758 271.942 -8.32303 271.873 -8.52579 271.825C-9.45724 271.6 -10.388 271.793 -11.1301 272.279L-23.5311 256.701L24.5363 213.832C24.6389 213.938 24.7466 214.036 24.8622 214.128L24.8597 214.126ZM-24.3764 256.627L-55.9329 284.771C-56.3396 284.393 -56.8424 284.108 -57.421 283.97C-57.5592 283.937 -57.6953 283.916 -57.833 283.899L-56.8474 231.845L-56.6005 218.734C-56.0169 218.689 -55.463 218.487 -54.9916 218.168L-24.3789 256.625L-24.3764 256.627ZM-57.6411 218.655C-57.5003 218.69 -57.3574 218.711 -57.2136 218.725L-58.4469 283.886C-58.6365 283.899 -58.8189 283.929 -59.0008 283.974L-79.5868 224.743L-59.8506 216.879C-59.4293 217.741 -58.6438 218.415 -57.6411 218.655ZM-80.36 224.39L-138.947 247.739C-139.196 247.253 -139.562 246.832 -140.019 246.515L-99.7217 174.919C-99.4149 175.119 -99.0721 175.273 -98.6963 175.363C-98.2535 175.471 -97.8077 175.482 -97.3847 175.414L-80.3643 224.39L-80.36 224.39ZM-100.929 173.529C-100.753 173.904 -100.509 174.248 -100.207 174.534L-140.552 246.214C-140.734 246.131 -140.927 246.063 -141.127 246.017C-141.632 245.896 -142.133 245.898 -142.609 246L-156.169 202.814L-100.927 173.531L-100.929 173.529ZM-143.198 246.181C-143.707 246.395 -144.156 246.73 -144.506 247.165L-184.506 220.688C-184.448 220.541 -184.396 220.393 -184.358 220.236C-184.16 219.417 -184.285 218.598 -184.649 217.907L-156.725 203.104L-143.198 246.181ZM-185.318 221.88L-153.98 255.63L-175.274 267.509C-175.723 266.853 -176.402 266.355 -177.235 266.155C-177.604 266.066 -177.972 266.044 -178.33 266.079L-186.527 222.605C-186.078 222.451 -185.666 222.206 -185.318 221.88ZM-174.951 270.682C-174.882 270.52 -174.824 270.351 -174.78 270.175C-174.599 269.435 -174.688 268.693 -174.974 268.046L-153.55 256.093L-106.641 306.618C-106.748 306.739 -106.848 306.871 -106.936 307.008L-174.951 270.682ZM-52.3529 301.218C-52.8024 300.622 -53.4514 300.171 -54.2335 299.98C-54.6118 299.888 -54.9927 299.869 -55.3612 299.908L-57.2574 290.394C-56.1581 290.067 -55.2567 289.182 -54.9684 287.988C-54.8638 287.554 -54.8521 287.119 -54.9143 286.704L-12.4573 276.158C-12.4125 276.287 -12.3591 276.415 -12.2997 276.539L-52.3572 301.219L-52.3529 301.218ZM-7.18605 277.62C-6.89307 277.378 -6.63989 277.086 -6.44111 276.749L65.3706 310.509C65.3287 310.622 65.2919 310.739 65.2645 310.859C64.8416 312.605 65.8839 314.359 67.5984 314.843L57.5912 368.931C56.9068 368.868 56.2423 369.019 55.6695 369.338L-7.18428 277.617L-7.18605 277.62ZM60.3385 370.915C60.1829 370.558 59.9635 370.228 59.6928 369.945L105.413 317.306L186.902 329.125L60.3368 370.917L60.3385 370.915ZM194.788 329.467C194.724 328.787 194.448 328.152 194.018 327.64L221.58 299.578L245.143 327.229C244.74 327.644 244.434 328.166 244.289 328.77C244.25 328.934 244.227 329.094 244.214 329.258L194.791 329.469L194.788 329.467ZM249.342 332.338C249.717 332.094 250.042 331.774 250.295 331.396L300.722 358.608L278.479 387.666L249.341 332.341L249.342 332.338ZM376.337 430.919C375.854 431.207 375.441 431.62 375.154 432.121L279.783 388.512L349.953 386.985C350.109 388.333 351.082 389.506 352.478 389.845C353.91 390.19 355.343 389.554 356.084 388.372L376.342 430.918L376.337 430.919ZM434.958 359.636L405.16 314.827L407.248 311.92C407.521 312.081 407.824 312.207 408.149 312.284C408.854 312.456 409.566 312.383 410.192 312.127L434.961 359.637L434.958 359.636ZM436.331 271.392C436.036 271.76 435.813 272.196 435.696 272.685C435.633 272.941 435.609 273.195 435.605 273.447L406.076 276.005L402.774 241.499C403.39 241.401 403.96 241.128 404.428 240.728L436.331 271.392ZM402.974 234.962C401.828 234.707 400.683 235.076 399.904 235.852L416.454 198.54L402.976 234.959L402.974 234.962ZM470.908 137.701C469.769 137.778 468.742 138.441 468.199 139.453L402.416 111.652L470.732 60.5194C471.166 60.9993 471.743 61.3589 472.419 61.5244C472.551 61.5565 472.683 61.5774 472.811 61.5923L470.906 137.704L470.908 137.701ZM470.144 59.5899C470.208 59.7398 470.281 59.8881 470.367 60.0274L401.764 111.372L364.031 95.4231C364.05 95.3647 364.068 95.3062 364.084 95.246C364.223 94.6718 364.201 94.0972 364.052 93.565L470.144 59.5899ZM361.21 97.7751C362.307 97.6543 363.286 96.9918 363.799 95.9961L401.191 111.8L366.325 137.894C365.896 137.435 365.334 137.09 364.679 136.932C364.467 136.881 364.254 136.852 364.043 136.843L361.21 97.7751ZM360.764 141.296C361.011 141.983 361.48 142.578 362.106 142.976L327.982 209.067L271.411 169.456C271.563 169.191 271.682 168.903 271.757 168.587C271.871 168.108 271.875 167.63 271.788 167.175L360.761 141.294L360.764 141.296ZM162.205 196.123C161.876 197.488 162.44 198.859 163.522 199.624L160.581 204.73L138.62 156.855L163.36 194.312C162.805 194.757 162.385 195.378 162.206 196.127L162.205 196.123ZM133.86 155.129C134.037 155.407 134.254 155.66 134.506 155.874L96.7584 209.129L72.2302 189.466C72.4378 189.153 72.5985 188.8 72.6918 188.415C72.8604 187.719 72.7945 187.019 72.5442 186.401L133.86 155.129ZM66.7151 189.526C67.1634 190.178 67.8422 190.672 68.6701 190.873C68.8202 190.91 68.9716 190.93 69.1222 190.945L68.7403 245.471C67.9856 245.536 67.2848 245.856 66.7409 246.365L29.5595 213.574C29.8424 213.212 30.0586 212.786 30.171 212.309C30.351 211.564 30.2639 210.82 29.9708 210.172L66.7126 189.525L66.7151 189.526ZM23.6306 211.926C23.6922 212.438 23.873 212.925 24.1508 213.348L-23.9167 256.217L-54.5128 217.779C-54.0878 217.36 -53.7675 216.822 -53.6193 216.197C-53.5636 215.962 -53.5337 215.732 -53.5283 215.499L23.6341 211.921L23.6306 211.926ZM-59.3302 213.182C-59.6924 213.582 -59.9631 214.075 -60.1004 214.636C-60.238 215.208 -60.2195 215.776 -60.0712 216.304L-79.791 224.161L-96.7857 175.256C-96.4683 175.14 -96.1678 174.979 -95.9013 174.775L-59.3302 213.182ZM-168.079 172.629C-167.907 172.705 -167.729 172.766 -167.539 172.812C-167.094 172.921 -166.648 172.933 -166.221 172.865L-156.912 202.508L-184.985 217.39C-185.281 217.014 -185.661 216.699 -186.104 216.479L-168.077 172.631L-168.079 172.629Z" fill="#EF9C2E"/>
<path fill-rule="evenodd" clip-rule="evenodd" d="M249.683 20C255.331 20 259.909 24.5787 259.909 30.2268V83.1102L302.762 136.095L259.909 122.773V145.674C259.909 151.322 255.331 155.901 249.683 155.901H20.227C14.5789 155.901 10.0002 151.322 10.0002 145.674V30.2268C10.0002 24.5787 14.5789 20 20.227 20H249.683Z" fill="#D8F5FD"/>
<path d="M138.536 86.4951L148.81 88.1967C156.032 89.3938 162.679 92.8839 167.764 98.1479L198.499 129.966L191.217 152.828L185.632 152.932C180.885 153.018 176.287 151.281 172.787 148.071L158.293 135.153L159.353 157.189H81.8889L84.8262 142.073L81.8889 137.282C75.1622 135.732 76.5481 130.633 77.5763 123.81L86.5579 106.867C88.0495 96.9687 86.3347 76.988 96.2063 78.6509L110.391 81.0404L138.531 86.4951H138.536Z" fill="#6A3939"/>
<path d="M190.661 152.795L198.418 129.765L178.328 108.908C178.017 107.819 176.944 104.948 175.147 102.171C173.351 99.3953 169.426 98.1409 167.688 97.8607C162.951 92.9423 158.575 91.0644 156.98 90.7403L157.796 112.174C157.796 114.827 158.219 128.912 158.219 134.966L171.677 147.692C175.176 150.911 180.811 153.291 185.558 153.204L190.661 152.795Z" fill="#FFBE97"/>
<path d="M123.041 92.9881C108.982 89.4015 110.394 81.0385 110.394 81.0385L114.524 81.7336L134.236 85.6581L138.534 86.4932C137.528 91.2552 130.552 94.9045 123.041 92.9881Z" fill="#FFBE97"/>
<path d="M126.015 108.846C127.027 113.82 131.182 117.849 133.426 119.532L130.985 124.967C129.503 124.741 127.054 122.459 126.015 120.884V137.402H131.938V143.384H113.361V137.402H118.832V108.846H126.015Z" fill="white"/>
<path d="M117.186 68.0515L114.527 81.739L134.296 85.7938L134.422 79.5836L117.186 68.0515Z" fill="#FFBE97"/>
<path d="M210.903 87.9349L200.1 142.562C198.505 150.628 190.289 155.549 182.425 153.15C174.429 150.71 170.386 141.811 173.806 134.184L190.662 91.5576L210.903 87.9349Z" fill="#FFBE97"/>
<path d="M191.072 90.1292L189.493 82.1682C189.352 80.7534 190.77 77.3421 191.684 76.2485L193.255 73.4477C194.407 71.6549 196.639 70.8216 198.758 71.3925L209.556 74.3049C212.254 75.0317 213.843 77.7601 213.081 80.3567L209.049 94.1007L190.255 92.7829L191.072 90.1292Z" fill="#FFBE97"/>
<path d="M192.571 87.2899C192.432 87.2565 190.966 84.7816 189.983 83.1C189.409 82.1169 189.176 80.9716 189.321 79.8413L190.065 74.0565C190.217 72.8873 192.715 70.3832 193.884 70.2331C195.197 70.0648 195.367 72.2363 195.677 73.5239L196.07 77.571L192.571 87.2899Z" fill="#FFBE97"/>
<path d="M189.866 81.5076L196.829 69.1804C197.403 67.9871 198.749 67.3829 200.01 67.753C201.434 68.1711 202.247 69.6723 201.826 71.1063L198.098 83.8143L189.866 81.5076Z" fill="#FFBE97"/>
<path d="M194.347 82.692L201.02 68.8087C201.594 67.6155 202.94 67.0112 204.201 67.3813C205.625 67.7994 206.438 69.3007 206.017 70.7347L202.289 83.4427L194.347 82.692Z" fill="#FFBE97"/>
<path d="M198.868 84.0198L205.542 70.1365C206.116 68.9432 207.462 68.339 208.723 68.7091C210.147 69.1272 210.96 70.6284 210.539 72.0624L206.81 84.7705L198.868 84.0198Z" fill="#FFBE97"/>
<path d="M203.091 86.8586L209.765 72.9753C210.338 71.7821 211.684 71.1778 212.946 71.5479C214.369 71.966 215.182 73.4673 214.761 74.9013L211.033 87.6093L203.091 86.8586Z" fill="#FFBE97"/>
<path d="M196.714 76.722C196.824 76.7546 196.942 76.718 196.99 76.6302L201.21 68.7583C201.262 68.6604 201.206 68.5362 201.085 68.4809C200.966 68.4262 200.822 68.4601 200.769 68.5584L196.549 76.4302C196.497 76.5281 196.553 76.6524 196.674 76.7077C196.687 76.7136 196.7 76.718 196.714 76.722Z" fill="#4F2B2B"/>
<path d="M201.276 78.5883C201.388 78.6214 201.507 78.5811 201.555 78.4891L206.108 69.5873C206.16 69.4854 206.104 69.3577 205.981 69.3028C205.862 69.251 205.718 69.2867 205.666 69.3892L201.113 78.291C201.06 78.3929 201.117 78.5206 201.239 78.5755C201.251 78.5803 201.263 78.5854 201.276 78.5891L201.276 78.5883Z" fill="#4F2B2B"/>
<path d="M208.051 80.2675C208.179 80.3053 208.31 80.2459 208.343 80.1343L210.783 72.0893C210.817 71.9778 210.741 71.8553 210.612 71.8166L210.611 71.8162C210.483 71.7784 210.352 71.8378 210.319 71.9494L207.879 79.9944C207.845 80.106 207.921 80.2284 208.05 80.2671L208.051 80.2675Z" fill="#4F2B2B"/>
<path d="M107.096 80.3843L100.403 130.292C99.2298 138.431 91.2819 143.772 83.3026 141.786C75.1905 139.766 70.6891 131.089 73.7085 123.295L92.3173 75.4581L107.096 80.3843Z" fill="#FFBE97"/>
<path d="M111.545 58.7074C111.545 58.7074 120.852 77.5575 132.116 77.4465C143.381 77.3354 151.437 67.6907 152.301 55.9752C152.731 50.1657 150.882 43.3376 148.266 40.6851C145.28 37.6585 138.884 34.8322 133.174 34.2143C124.987 33.3285 118.984 39.7028 118.984 39.7028C118.984 39.7028 113.331 41.315 111 47.2501C109.47 51.1456 111.543 58.7074 111.543 58.7074H111.545Z" fill="#4F2B2B"/>
<path d="M154.779 50.1561C160.665 55.8038 157.074 58.53 152.424 58.2268C149.979 60.1408 146.885 62.7588 145.803 54.9794C144.4 44.8959 139.827 51.6919 135.201 52.743C131.5 53.5839 128.129 52.7184 126.924 52.2376C123.663 56.1896 118.488 52.0173 116.538 53.5519C114.402 55.2325 104.679 51.0781 105.782 43.3198C106.664 37.1132 114.749 34.2716 118.681 33.6266C118.827 30.7449 120.768 28.9784 121.72 28.4553C127.337 25.2507 134.04 31.3236 136.69 34.7607C142.188 29.0584 146.969 33.3116 148.672 36.151C150.392 35.6283 154.563 35.8357 157.484 40.8467C160.406 45.8578 156.898 49.1409 154.779 50.1561Z" fill="#4F2B2B"/>
<path d="M115.707 55.8145C113.773 60.3183 114.546 69.8351 118.743 75.0122C123.244 80.5611 127.818 81.2996 133.533 81.2996C139.249 81.2996 145.889 77.4475 148.495 69.8906C151.807 60.2893 148.408 49.8409 139.355 45.955C130.302 42.0692 119.713 46.4836 115.707 55.817V55.8145Z" fill="#FFBE97"/>
<path d="M116.595 62.3137C116.974 65.4272 117.423 68.1159 114.814 68.4345C112.205 68.7531 109.033 66.4554 108.654 63.3394C108.275 60.2259 110.083 57.443 112.694 57.1245C115.304 56.8059 116.218 59.1977 116.597 62.3137H116.595Z" fill="#FFBE97"/>
<path d="M126.395 59.5595C126.414 60.4235 125.982 61.1331 125.432 61.1452C124.882 61.1573 124.421 60.467 124.404 59.6029C124.384 58.7388 124.816 58.0293 125.367 58.0172C125.917 58.0051 126.378 58.6954 126.395 59.5595Z" fill="#4F2B2B"/>
<path d="M139.93 59.4842C139.949 60.3482 139.517 61.0578 138.967 61.0699C138.417 61.0819 137.956 60.3917 137.939 59.5276C137.92 58.6635 138.352 57.9539 138.902 57.9419C139.452 57.9298 139.913 58.6201 139.93 59.4842Z" fill="#4F2B2B"/>
<path d="M135.675 63.3526L133.758 65.7034L131.864 57.8785L135.675 63.3526Z" fill="#FFBE97"/>
<path d="M147.755 62.473C147.376 65.5866 146.91 68.116 149.522 68.4346C152.131 68.7532 155.302 66.4555 155.681 63.3395C156.06 60.226 154.252 57.4431 151.641 57.1245C149.032 56.8059 148.134 59.3571 147.755 62.473Z" fill="#FFBE97"/>
<path d="M118.258 44.4771C118.258 44.4771 125.497 51.3727 128.726 52.092C131.955 52.8112 135.096 52.0075 135.096 52.0075L133.587 49.6856C133.587 49.6856 135.54 51.8361 137.847 52.1813C140.154 52.5264 143.328 51.9809 143.328 51.9809L141.33 49.1595C141.33 49.1595 145.129 53.3446 148.81 52.6881C148.81 52.6881 141.499 40.2509 133.348 40.6709C125.197 41.0908 118.258 44.4747 118.258 44.4747V44.4771Z" fill="#4F2B2B"/>
<path d="M134.171 66.1597C134.26 66.1597 134.35 66.1187 134.408 66.0415L136.442 63.3479L132.766 58.0646C132.672 57.9294 132.489 57.898 132.354 57.9897C132.219 58.0839 132.187 58.2673 132.279 58.4025L135.711 63.3358L133.935 65.6891C133.836 65.8194 133.862 66.0053 133.993 66.1042C134.046 66.1453 134.108 66.1646 134.171 66.1646V66.1597Z" fill="#4F2B2B"/>
<path d="M133.461 71.8574C133.919 71.8574 134.204 71.8164 134.216 71.814C134.378 71.7874 134.487 71.6378 134.462 71.4761C134.438 71.3144 134.286 71.2058 134.125 71.2299C133.956 71.2564 129.947 71.8333 127.912 68.0753C127.835 67.9305 127.656 67.8774 127.511 67.9547C127.367 68.0319 127.313 68.2129 127.391 68.3553C129.073 71.4664 132.063 71.8574 133.461 71.8574Z" fill="#4F2B2B"/>
<path d="M114.86 63.6613C114.891 63.6613 114.925 63.6564 114.957 63.6444C115.111 63.5913 115.193 63.4223 115.14 63.2678C115.13 63.2389 114.16 60.4633 111.566 60.6877C111.404 60.7022 111.283 60.8446 111.298 61.0087C111.312 61.1704 111.455 61.2959 111.619 61.2766C113.738 61.0932 114.549 63.3644 114.583 63.4609C114.626 63.584 114.739 63.6588 114.863 63.6588L114.86 63.6613Z" fill="#4F2B2B"/>
<path d="M149.958 63.6588C150.081 63.6588 150.195 63.5816 150.238 63.4609C150.272 63.3644 151.09 61.0908 153.202 61.2766C153.366 61.2887 153.509 61.1704 153.523 61.0087C153.538 60.847 153.417 60.7022 153.255 60.6877C150.675 60.4632 149.69 63.2413 149.681 63.2678C149.628 63.4223 149.71 63.5913 149.864 63.6444C149.896 63.6564 149.929 63.6613 149.961 63.6613L149.958 63.6588Z" fill="#4F2B2B"/>
<path d="M105.89 81.9214C105.89 81.9214 108.733 81.079 110.208 79.264C111.683 77.449 114.275 73.5028 114.275 73.5028L123.447 70.4737C124.472 70.1334 125.066 69.0618 124.808 68.0119C124.576 67.0682 123.719 66.4141 122.747 66.4358L114.862 66.6241L115.192 61.0752L124.089 49.9607C124.777 49.0483 124.735 47.7788 123.99 46.9123C123.126 45.9107 121.617 45.7827 120.599 46.6299L111.77 53.9551L103.607 54.0227C100.315 54.0493 97.4378 56.2553 96.5568 59.4292L91.1239 79.0227L105.89 81.9214Z" fill="#FFBE97"/>
<path d="M103.72 82.5244C104.471 82.5244 105.651 82.4158 106.909 81.8824C107.022 81.8341 107.075 81.7038 107.027 81.5928C106.979 81.4793 106.848 81.4262 106.737 81.4745C104.785 82.3024 102.984 82.0393 102.967 82.0345C102.847 82.0176 102.733 82.0996 102.714 82.2203C102.695 82.341 102.779 82.4544 102.9 82.4737C102.931 82.4786 103.235 82.5244 103.723 82.5244H103.72Z" fill="#4F2B2B"/>
<path d="M114.275 73.7232C114.299 73.7232 114.321 73.7208 114.345 73.7111L123.517 70.6821C124.646 70.3079 125.308 69.1108 125.023 67.9571C124.765 66.9048 123.821 66.1952 122.742 66.2121L115.096 66.3955L115.407 61.158L124.26 50.099C124.337 50.0024 124.32 49.8624 124.226 49.7876C124.13 49.7128 123.992 49.7273 123.915 49.8214L114.975 60.9915L114.625 66.8517L122.752 66.6562C123.635 66.6296 124.383 67.2137 124.591 68.0633C124.82 68.995 124.287 69.9604 123.374 70.2621L114.203 73.2911C114.087 73.3298 114.024 73.4553 114.063 73.5711C114.094 73.6652 114.181 73.7232 114.273 73.7232H114.275Z" fill="#4F2B2B"/>
<path d="M110.654 65.24C111.866 65.24 112.955 64.5304 113.445 63.4177L113.978 62.2037C114.468 61.0886 114.478 59.8046 114.005 58.6847L111.975 53.8696C111.926 53.7561 111.796 53.7055 111.685 53.7513C111.572 53.7996 111.519 53.9299 111.567 54.0409L113.597 58.8561C114.024 59.8674 114.014 61.021 113.575 62.0251L113.042 63.2391C112.614 64.2118 111.649 64.82 110.589 64.7959L102.25 64.5835C101.584 64.5666 100.945 64.277 100.491 63.7894L100.112 63.3839C99.8247 63.075 99.7402 62.6237 99.8923 62.2327C100.107 61.6824 100.713 61.4 101.27 61.5858L101.536 61.6751C101.652 61.7113 101.777 61.651 101.816 61.5351C101.855 61.4193 101.792 61.2938 101.676 61.2552L101.41 61.1659C100.626 60.9052 99.7789 61.3034 99.4772 62.0734C99.2648 62.6213 99.3854 63.256 99.7861 63.6881L100.165 64.0935C100.698 64.668 101.454 65.0083 102.238 65.0276L110.577 65.24C110.604 65.24 110.63 65.24 110.657 65.24H110.654Z" fill="#4F2B2B"/>
<path d="M106.446 65.1455C107.657 65.1455 108.746 64.4359 109.236 63.3232L109.769 62.1092C110.259 60.9941 110.269 59.7101 109.796 58.5902L108.053 54.2192C108.007 54.1057 107.877 54.0502 107.766 54.0961C107.652 54.1419 107.597 54.2698 107.643 54.3833L109.388 58.7591C109.815 59.7728 109.808 60.9289 109.366 61.933L108.833 63.147C108.405 64.1197 107.445 64.7279 106.38 64.7038H106.376C106.255 64.7038 106.156 64.8003 106.153 64.921C106.151 65.0441 106.248 65.1455 106.371 65.1479C106.397 65.1479 106.424 65.1479 106.45 65.1479L106.446 65.1455Z" fill="#4F2B2B"/>
<path d="M102.325 65.0288C103.537 65.0288 104.626 64.3192 105.115 63.2065L105.649 61.9925C106.139 60.8774 106.149 59.5934 105.675 58.4735L103.807 54.2739C103.757 54.1628 103.626 54.1121 103.515 54.1604C103.404 54.2111 103.354 54.3414 103.402 54.4525L105.268 58.6473C105.692 59.6537 105.683 60.8074 105.243 61.8115L104.71 63.0255C104.283 63.9982 103.317 64.6016 102.258 64.5823C102.125 64.5799 102.033 64.6764 102.031 64.7995C102.029 64.9226 102.125 65.024 102.248 65.0264C102.275 65.0264 102.301 65.0264 102.328 65.0264L102.325 65.0288Z" fill="#4F2B2B"/>
<path d="M100.802 61.5183C100.829 61.5183 100.855 61.5135 100.882 61.5038C100.995 61.4604 101.053 61.3325 101.01 61.219L99.9963 58.5448C99.9528 58.4289 99.8249 58.3734 99.7115 58.4168C99.5956 58.4603 99.5401 58.5882 99.5835 58.7016L100.597 61.3759C100.631 61.4652 100.716 61.5183 100.805 61.5183H100.802Z" fill="#4F2B2B"/>
<path d="M106.368 72.1919C106.455 72.1919 106.54 72.1388 106.574 72.0519C108.389 67.5144 114.814 66.8507 114.879 66.8434C114.999 66.8314 115.091 66.7227 115.079 66.6021C115.067 66.479 114.958 66.3945 114.838 66.4017C114.563 66.4283 108.08 67.0944 106.163 71.8878C106.117 72.0013 106.173 72.1316 106.286 72.175C106.313 72.1847 106.342 72.1919 106.368 72.1919Z" fill="#4F2B2B"/>
<path d="M132.85 81.8444C133.719 81.8444 134.24 81.7841 134.257 81.7841C134.419 81.7648 134.535 81.6176 134.515 81.4559C134.496 81.2942 134.347 81.1783 134.187 81.1976C134.122 81.2048 127.733 81.9265 121.941 78.0817C121.806 77.9899 121.622 78.0286 121.53 78.1637C121.441 78.2989 121.477 78.4823 121.612 78.574C125.935 81.4438 130.581 81.8469 132.85 81.8469V81.8444Z" fill="#4F2B2B"/>
<path d="M180.813 95.98L176.966 99.0146" stroke="black" stroke-width="0.487046" stroke-linecap="round"/>
<path d="M182.092 100.949L178.19 101.716" stroke="black" stroke-width="0.487046" stroke-linecap="round"/>
<path d="M174.421 97.4109L175.558 93.6007" stroke="black" stroke-width="0.487046" stroke-linecap="round"/>
<path d="M244.647 415.964L236.796 459.539H399.418L392.689 413.89L244.647 415.964Z" fill="#69ABDD"/>
<path d="M403.506 267.225C403.506 267.225 415.901 268.879 420.035 273.838C424.167 278.796 448.134 372.184 448.134 372.184L401.027 405.241L372.929 357.308L403.507 267.225H403.506Z" fill="#FFB8BD"/>
<path d="M394.415 427.555L388.63 376.317L403.506 267.226L367.592 254.48L315.905 326.454L263.748 257.464L248.534 263.63C234.087 269.484 226.155 285.085 229.935 300.208L240.697 374.663L242.52 427.555H394.415Z" fill="#FFB8BD"/>
<path d="M367.591 254.478L353.646 250.146L315.078 244.084L278.238 250.863L263.746 257.463L315.903 326.453L367.591 254.478Z" fill="#FFB8BD"/>
<path d="M449.788 375.487C445.811 362.561 416.731 334.164 416.731 334.164L385.325 361.436C385.325 361.436 385.911 384.703 391.111 396.973C411.772 445.733 459.705 407.717 449.788 375.485V375.487Z" fill="#FFB8BD"/>
<path d="M418.597 421.366C406.959 421.366 396.701 412.925 390.122 397.398C384.903 385.081 384.275 362.426 384.252 361.469C384.246 361.148 384.381 360.842 384.623 360.632L416.026 333.361C416.446 332.993 417.08 333.015 417.479 333.402C418.675 334.569 446.801 362.139 450.813 375.176C456.7 394.307 443.432 413.972 427.843 419.657C424.695 420.805 421.601 421.366 418.599 421.366H418.597ZM386.413 361.917C386.538 365.359 387.455 385.605 392.098 396.56C399.874 414.916 412.965 422.796 427.106 417.641C441.76 412.299 454.134 393.273 448.761 375.806C445.25 364.391 421.132 340.052 416.682 335.632L386.414 361.919L386.413 361.917Z" fill="#FFB8BD"/>
<path d="M399.735 300.427L372.389 297.064C370.274 296.793 368.291 297.931 367.427 299.862C366.809 301.238 366.819 302.922 367.455 304.37C368.002 305.615 368.937 306.512 370.088 306.893C370.174 306.921 370.24 306.975 370.31 307.02L390.58 311.152C391.161 311.272 391.535 311.837 391.416 312.418C391.298 313.001 390.73 313.376 390.15 313.256L367.967 308.734C365.493 308.312 363.122 310.027 362.705 312.532C362.511 313.703 362.862 314.984 363.669 316.046C364.477 317.11 365.642 317.838 366.865 318.04C367.017 318.065 367.153 318.123 367.274 318.202L388.684 322.566C389.266 322.686 389.639 323.251 389.521 323.832C389.402 324.415 388.831 324.791 388.255 324.671L366.071 320.148C363.6 319.723 361.225 321.441 360.808 323.948C360.607 325.161 360.891 326.38 361.607 327.383C362.323 328.384 363.385 329.046 364.601 329.249L386.822 333.778C387.403 333.898 387.777 334.463 387.658 335.044C387.54 335.627 386.975 336.004 386.392 335.882L364.209 331.36C361.755 330.95 359.362 332.651 358.946 335.159C358.736 336.421 359.025 337.806 359.734 338.963C360.452 340.131 361.482 340.88 362.636 341.071L374.011 344.858C374.306 344.958 374.545 345.18 374.663 345.467L376.066 348.882C378.7 355.295 384.291 360.107 391.024 361.756C399.603 363.852 408.43 360.74 413.514 353.811C417.341 348.599 419.181 343.911 418.983 339.879C418.792 338.46 412.539 319.333 408.446 307.468C407.119 303.624 403.781 300.926 399.735 300.431V300.427Z" fill="#FFBE97"/>
<path d="M399.997 298.297L372.651 294.934C369.612 294.567 366.724 296.187 365.469 298.98C364.606 300.902 364.614 303.239 365.489 305.23C365.713 305.741 365.996 306.2 366.309 306.625C363.468 307.027 361.082 309.204 360.588 312.177C360.296 313.929 360.797 315.811 361.959 317.343C362.256 317.733 362.592 318.089 362.952 318.41C360.787 319.242 359.097 321.145 358.692 323.593C358.397 325.371 358.812 327.161 359.861 328.629C360.149 329.03 360.482 329.386 360.84 329.711C358.794 330.59 357.221 332.449 356.829 334.803C356.536 336.566 356.928 338.492 357.906 340.082C358.954 341.789 360.51 342.89 362.119 343.144L372.865 346.734L374.082 349.695C376.974 356.74 383.118 362.027 390.514 363.837C392.461 364.314 394.42 364.545 396.352 364.545C403.771 364.545 410.801 361.131 415.243 355.079C419.37 349.46 421.35 344.308 421.127 339.771C421.051 338.256 413.601 315.826 410.475 306.763C408.878 302.137 404.863 298.895 399.997 298.297ZM413.514 353.807C408.428 360.736 399.601 363.848 391.025 361.752C384.291 360.103 378.7 355.291 376.066 348.878L374.663 345.463C374.545 345.176 374.307 344.954 374.011 344.853L362.636 341.067C361.482 340.876 360.452 340.127 359.734 338.959C359.025 337.803 358.736 336.417 358.946 335.155C359.362 332.647 361.755 330.944 364.209 331.356L386.392 335.878C386.975 336 387.54 335.623 387.658 335.04C387.777 334.46 387.403 333.894 386.822 333.773L364.601 329.245C363.387 329.044 362.323 328.382 361.607 327.379C360.891 326.377 360.607 325.157 360.808 323.943C361.225 321.437 363.6 319.719 366.072 320.144L388.255 324.666C388.831 324.787 389.402 324.411 389.521 323.828C389.64 323.248 389.266 322.682 388.684 322.562L367.274 318.198C367.154 318.118 367.017 318.061 366.865 318.036C365.642 317.834 364.477 317.106 363.669 316.042C362.86 314.98 362.509 313.698 362.705 312.527C363.122 310.023 365.493 308.308 367.967 308.73L390.15 313.252C390.728 313.372 391.298 312.997 391.416 312.414C391.535 311.834 391.161 311.268 390.58 311.147L370.311 307.015C370.238 306.969 370.172 306.917 370.088 306.889C368.937 306.507 368.002 305.611 367.455 304.366C366.819 302.918 366.809 301.233 367.427 299.858C368.293 297.927 370.274 296.789 372.389 297.06L399.735 300.423C403.781 300.92 407.119 303.616 408.447 307.46C412.539 319.326 418.792 338.454 418.983 339.872C419.181 343.903 417.341 348.592 413.514 353.804V353.807Z" fill="#FFBE97"/>
<path d="M367.69 307.887L388.061 311.782C389.633 312.082 391.051 312.918 392.076 314.147L393.845 316.27" stroke="#4F2B2B" stroke-width="1.38322" stroke-linecap="round"/>
<path d="M363.65 319.961L384.021 323.855C385.593 324.155 387.011 324.991 388.036 326.221L389.805 328.343" stroke="#4F2B2B" stroke-width="1.38322" stroke-linecap="round"/>
<path d="M361.64 330.017L382.01 333.912C383.582 334.212 385.001 335.048 386.025 336.277L387.794 338.4" stroke="#4F2B2B" stroke-width="1.38322" stroke-linecap="round"/>
<path d="M429.39 345.779C436.319 354.05 451.185 372.604 450.514 376.293" stroke="#775340" stroke-width="1.38322" stroke-linecap="round"/>
<path d="M265.228 270.507C259.318 267.964 264.026 261.501 267.118 258.587C277.427 246.667 267.118 255.726 258.872 207.73C250.625 159.734 288.079 132.24 324.845 141.934C361.612 151.629 359.035 186.911 357.66 210.273C356.286 233.635 358.863 241.423 362.127 250.799C365.354 260.069 361.53 265.456 354.139 275.865L353.881 276.228C346.321 286.876 315.224 286.876 312.303 283.539C309.383 280.201 272.616 273.685 265.228 270.507Z" fill="#FBE4C6"/>
<path d="M275.07 239.379C278.05 243.692 287.584 253.202 301.886 256.73" stroke="black" stroke-width="1.08451" stroke-linecap="round"/>
<path d="M322.918 271.449C329.556 269.307 344.634 261.548 351.837 247.658" stroke="black" stroke-width="1.08451" stroke-linecap="round"/>
<path d="M349.966 199.795C348.776 180.338 336.542 160.728 313.882 157.494C291.13 154.249 270.546 172.451 267.625 194.55C264.703 216.65 278.182 238.898 300.834 243.002C319.903 246.458 339.389 235.951 346.818 219.355C349.426 214.696 350.003 204.374 349.966 199.795Z" fill="#FFBE97"/>
<path d="M298.057 222.714C297.704 219.835 302.906 218.887 308.527 218.197C314.148 217.507 318.052 217.332 318.406 220.215C318.76 223.099 314.491 225.991 308.87 226.681C303.249 227.371 298.407 225.594 298.053 222.714L298.057 222.714Z" fill="white"/>
<path d="M320.366 195.868C320.321 197.881 321.327 199.534 322.609 199.562C323.891 199.59 324.965 197.982 325.004 195.969C325.049 193.957 324.043 192.304 322.761 192.276C321.479 192.248 320.405 193.855 320.366 195.868Z" fill="#562A2F"/>
<path d="M288.835 195.694C288.79 197.707 289.797 199.36 291.079 199.388C292.361 199.416 293.434 197.808 293.474 195.795C293.519 193.782 292.512 192.129 291.231 192.101C289.949 192.073 288.875 193.681 288.835 195.694Z" fill="#562A2F"/>
<path d="M287.081 212.033C278.232 212.033 271.035 204.836 271.035 195.987C271.035 187.137 278.232 179.941 287.081 179.941C295.931 179.941 303.127 187.137 303.127 195.987C303.127 204.836 295.931 212.033 287.081 212.033ZM287.081 181.312C278.991 181.312 272.413 187.896 272.413 195.981C272.413 204.066 278.996 210.65 287.081 210.65C295.166 210.65 301.75 204.066 301.75 195.981C301.75 187.896 295.166 181.312 287.081 181.312Z" fill="white"/>
<path d="M325.481 212.033C316.631 212.033 309.435 204.836 309.435 195.987C309.435 187.137 316.631 179.941 325.481 179.941C334.33 179.941 341.527 187.137 341.527 195.987C341.527 204.836 334.33 212.033 325.481 212.033ZM325.481 181.312C317.39 181.312 310.812 187.896 310.812 195.981C310.812 204.066 317.396 210.65 325.481 210.65C333.566 210.65 340.149 204.066 340.149 195.981C340.149 187.896 333.566 181.312 325.481 181.312Z" fill="white"/>
<path d="M311.066 191.737C307.344 190.854 304.206 190.854 301.48 191.72L301.063 190.405C304.038 189.46 307.411 189.454 311.386 190.388L311.071 191.732L311.066 191.737Z" fill="white"/>
<path d="M302.25 211.241C302.042 211.241 301.834 211.146 301.699 210.966L296.959 204.691L305.522 192.384C305.741 192.069 306.168 191.996 306.483 192.21C306.798 192.429 306.871 192.856 306.657 193.171L298.663 204.663L302.801 210.145C303.031 210.448 302.969 210.881 302.666 211.112C302.542 211.207 302.396 211.252 302.25 211.252V211.241Z" fill="#562A2F"/>
<path d="M289.389 219.255C289.398 217.177 286.274 215.48 282.412 215.463C278.549 215.446 275.41 217.116 275.401 219.194C275.392 221.271 278.516 222.969 282.379 222.986C286.242 223.002 289.38 221.332 289.389 219.255Z" fill="#FF9D6C"/>
<path d="M339.661 219.257C339.67 217.179 336.546 215.482 332.683 215.465C328.82 215.448 325.682 217.118 325.673 219.196C325.664 221.273 328.788 222.971 332.65 222.987C336.513 223.004 339.652 221.334 339.661 219.257Z" fill="#FF9D6C"/>
<path d="M385.152 362.536L394.662 427.205" stroke="#4F2B2B" stroke-width="1.47115" stroke-linecap="round"/>
<path d="M336.555 408.032H221.313L202.145 263.029H317.387L336.555 408.032Z" fill="white" stroke="black" stroke-width="1.5"/>
<path d="M208.778 349.321L224.954 345.247C228.555 344.338 230.861 340.763 230.2 337.107C229.542 333.449 226.131 330.895 222.442 331.312C222.276 331.33 222.121 331.303 221.976 331.254C221.625 331.335 221.281 331.435 220.916 331.475L205.974 333.098C205.934 333.107 205.903 333.13 205.862 333.135C203.887 333.352 202.143 334.348 200.954 335.941C199.765 337.533 199.304 339.488 199.656 341.445L200.062 343.697C200.414 345.656 201.529 347.325 203.199 348.403C204.869 349.48 206.853 349.807 208.778 349.32V349.321Z" fill="#FFBE97"/>
<path d="M204.099 331.145L220.681 329.343C224.373 328.941 227.15 325.717 227.003 322.006C226.857 318.294 223.833 315.304 220.12 315.197L203.445 314.714C203.374 314.712 203.304 314.709 203.233 314.709C201.324 314.709 199.544 315.453 198.195 316.815C196.797 318.23 196.072 320.101 196.151 322.089L196.242 324.374C196.321 326.361 197.194 328.17 198.701 329.466C200.206 330.764 202.123 331.359 204.099 331.143V331.145Z" fill="#FFBE97"/>
<path d="M226.935 360.569C226.935 360.569 226.935 360.569 226.938 360.569L227.081 360.517C230.327 359.341 232.125 355.82 231.177 352.503C230.228 349.186 226.839 347.141 223.463 347.867C223.415 347.877 223.369 347.864 223.321 347.867L209.3 351.398C209.032 351.466 208.762 351.507 208.49 351.55C206.484 351.984 204.771 353.164 203.793 354.792C202.94 356.212 202.731 357.799 203.185 359.39L203.775 361.454C204.284 363.231 205.47 364.67 207.115 365.512C208.758 366.351 210.621 366.47 212.36 365.843L226.935 360.568V360.569Z" fill="#FFBE97"/>
<path d="M227.637 362.598C227.637 362.598 227.633 362.598 227.632 362.598L215.246 367.08C215.157 367.148 215.065 367.214 214.953 367.252C213.602 367.718 212.606 368.602 212.067 369.808C211.496 371.094 211.519 372.601 212.135 374.053L212.833 375.7C213.415 377.07 214.505 378.108 215.905 378.62C217.306 379.129 218.806 379.04 220.135 378.366L231.77 372.459C234.254 371.201 235.347 368.207 234.26 365.644C233.154 363.032 230.244 361.697 227.635 362.598H227.637Z" fill="#FFBE97"/>
<path d="M231.061 360.392C233.181 358.208 234.124 355.005 233.238 351.912C232.468 349.214 230.48 347.174 228.026 346.206C231.181 344.259 232.998 340.542 232.311 336.725C231.669 333.161 229.022 330.404 225.712 329.467C227.911 327.684 229.268 324.927 229.147 321.92C228.956 317.084 225.017 313.19 220.182 313.048L203.508 312.565C200.977 312.49 198.465 313.489 196.67 315.304C194.877 317.119 193.907 319.621 194.007 322.17L194.098 324.456C194.2 327.007 195.367 329.424 197.299 331.091C198.351 331.997 199.603 332.613 200.924 332.97C200.3 333.462 199.715 334.007 199.233 334.653C197.706 336.698 197.09 339.31 197.541 341.822L197.946 344.075C198.399 346.586 199.89 348.819 202.032 350.202C202.716 350.644 203.457 350.975 204.222 351.22C203.318 351.905 202.53 352.724 201.951 353.684C200.802 355.598 200.507 357.834 201.12 359.98L201.709 362.043C202.373 364.364 203.987 366.323 206.134 367.42C207.376 368.056 208.745 368.375 210.117 368.375C210.225 368.375 210.332 368.352 210.441 368.347C210.329 368.543 210.194 368.725 210.102 368.932C209.285 370.765 209.303 372.88 210.153 374.889L210.851 376.536C211.656 378.433 213.227 379.925 215.162 380.633C215.988 380.934 216.855 381.084 217.72 381.084C218.886 381.084 220.047 380.814 221.101 380.279L232.736 374.372C236.221 372.603 237.756 368.402 236.231 364.803C235.261 362.519 233.294 360.94 231.056 360.388L231.061 360.392ZM198.701 329.467C197.194 328.169 196.321 326.361 196.242 324.375L196.151 322.089C196.072 320.103 196.798 318.231 198.195 316.816C199.544 315.454 201.326 314.71 203.233 314.71C203.304 314.71 203.374 314.711 203.445 314.715L220.119 315.197C223.831 315.304 226.857 318.295 227.003 322.007C227.152 325.719 224.375 328.942 220.681 329.344L204.099 331.145C202.123 331.361 200.206 330.766 198.701 329.469V329.467ZM203.196 348.401C201.527 347.324 200.412 345.654 200.059 343.696L199.654 341.443C199.302 339.488 199.763 337.532 200.952 335.939C202.141 334.347 203.885 333.35 205.859 333.133C205.901 333.128 205.934 333.105 205.971 333.097L220.913 331.473C221.279 331.433 221.623 331.333 221.974 331.252C222.119 331.302 222.275 331.326 222.44 331.31C226.129 330.893 229.539 333.447 230.198 337.105C230.857 340.759 228.551 344.335 224.951 345.245L208.776 349.32C206.851 349.806 204.866 349.48 203.196 348.402V348.401ZM207.114 365.512C205.469 364.672 204.283 363.231 203.775 361.454L203.185 359.39C202.73 357.799 202.94 356.212 203.793 354.792C204.771 353.162 206.484 351.983 208.489 351.55C208.761 351.507 209.033 351.466 209.3 351.398L223.321 347.867C223.369 347.864 223.413 347.877 223.463 347.867C226.839 347.139 230.226 349.185 231.176 352.503C232.125 355.82 230.327 359.341 227.081 360.517L226.937 360.569C226.937 360.569 226.937 360.569 226.934 360.569L212.36 365.844C210.62 366.472 208.76 366.353 207.114 365.513V365.512ZM231.769 372.458L220.134 378.365C218.805 379.037 217.303 379.128 215.904 378.619C214.505 378.107 213.414 377.071 212.832 375.699L212.134 374.052C211.518 372.6 211.495 371.093 212.066 369.807C212.603 368.599 213.601 367.715 214.952 367.251C215.064 367.213 215.156 367.147 215.245 367.079L227.631 362.597C227.631 362.597 227.634 362.597 227.636 362.597C230.243 361.696 233.154 363.033 234.261 365.643C235.348 368.206 234.254 371.201 231.771 372.458H231.769Z" fill="#FFBE97"/>
<path d="M195.277 341.148C190.792 314.71 199.084 312.487 205.382 313.423L220.76 377.647C221.199 379.518 219.702 383.495 208.806 380.687C197.91 377.88 197.281 352.963 195.277 341.148Z" fill="#FFBE97"/>
<path d="M225.62 330.021L209.425 330.725" stroke="#4F2B2B" stroke-width="1.38322" stroke-linecap="round"/>
<path d="M227.631 346.117L211.436 348.799" stroke="#4F2B2B" stroke-width="1.38322" stroke-linecap="round"/>
<path d="M230.984 360.87L215.46 364.894" stroke="#4F2B2B" stroke-width="1.38322" stroke-linecap="round"/>
</g>
<defs>
<clipPath id="clip0_761_11084">
<rect width="460" height="460" fill="white"/>
</clipPath>
</defs>
</svg>
