<svg width="460" height="460" viewBox="0 0 460 460" fill="none" xmlns="http://www.w3.org/2000/svg">
<g clip-path="url(#clip0_760_13793)">
<rect width="460" height="460" fill="white"/>
<path d="M488.754 493.65C487.443 493.289 486.559 492.146 486.462 490.862L413.765 489.728C413.747 489.893 413.718 490.06 413.674 490.225C413.212 491.897 411.484 492.877 409.812 492.418C408.14 491.958 407.159 490.227 407.619 488.555C407.693 488.288 407.801 488.041 407.934 487.811L375.06 464.345C374.291 465.233 373.058 465.654 371.851 465.321C370.179 464.861 369.199 463.13 369.659 461.458C369.864 460.72 370.316 460.115 370.9 459.71L349.147 421.045C348.504 421.331 347.763 421.406 347.031 421.206C346.238 420.986 345.605 420.481 345.202 419.836L251.438 466.745C251.677 467.352 251.729 468.041 251.543 468.719C251.084 470.391 249.353 471.371 247.681 470.912C246.009 470.452 245.028 468.721 245.488 467.049C245.623 466.563 245.867 466.138 246.183 465.787L160.184 372.677C159.605 374.155 157.99 374.986 156.426 374.556C154.754 374.096 153.773 372.366 154.233 370.694C154.275 370.541 154.33 370.398 154.394 370.257L113.732 347.49C112.993 348.562 111.636 349.104 110.312 348.739C109.646 348.555 109.092 348.167 108.692 347.664L59.3846 379.963L60.0709 380.363L58.907 380.273L58.6097 380.467L58.5777 380.246L-41.0409 372.532C-41.0594 372.633 -41.0808 372.734 -41.108 372.836C-41.5677 374.508 -43.2983 375.489 -44.9703 375.029C-46.6424 374.57 -47.623 372.839 -47.1632 371.167C-46.7035 369.495 -44.9729 368.514 -43.3009 368.974C-42.6795 369.145 -42.153 369.495 -41.7613 369.949L-5.21788 343.846C-5.2033 343.762 -5.18583 343.679 -5.1626 343.595C-5.04903 343.178 -4.85215 342.804 -4.6002 342.483L-59.8202 289.962C-60.5894 290.631 -61.6643 290.916 -62.721 290.625C-64.393 290.165 -65.3737 288.435 -64.9139 286.763C-64.4541 285.091 -62.7236 284.11 -61.0516 284.57C-60.3912 284.751 -59.8377 285.136 -59.4414 285.634L-15.3552 256.493C-15.7215 255.808 -15.8399 254.987 -15.6161 254.176C-15.3164 253.09 -14.4812 252.299 -13.4777 252.001L-20.7489 215.076C-21.1266 215.116 -21.5171 215.09 -21.9045 214.982C-23.5765 214.522 -24.5572 212.792 -24.0974 211.12C-23.6376 209.448 -21.9071 208.467 -20.2351 208.927C-19.2202 209.208 -18.4624 209.956 -18.1239 210.874L22.2039 200.169C22.1287 199.731 22.1446 199.272 22.2712 198.813C22.6848 197.311 24.1193 196.371 25.6193 196.525L32.0731 154.309C30.4226 153.833 29.4582 152.118 29.9163 150.458C30.376 148.786 32.1066 147.805 33.7786 148.265C34.0698 148.345 34.339 148.465 34.5853 148.617L54.4732 123.527C53.6662 122.754 53.2973 121.575 53.6163 120.422C53.6985 120.122 53.824 119.846 53.9814 119.596L15.2361 90.1361C14.4643 90.9751 13.2636 91.3666 12.0896 91.0411C10.4176 90.5813 9.43692 88.8508 9.89668 87.1787C10.3564 85.5067 12.087 84.5261 13.759 84.9858C13.8821 85.0195 13.9974 85.0628 14.113 85.1089L47.3319 21.467C46.2092 20.7426 45.6342 19.3484 46.0078 17.9944C46.4676 16.3223 48.1981 15.3417 49.8702 15.8015C51.5422 16.2612 52.5228 17.9918 52.0631 19.6638C51.9325 20.141 51.6937 20.5597 51.3862 20.9068L123.369 97.4509C124.108 96.9389 125.058 96.7457 125.992 97.0032C127.664 97.463 128.644 99.1935 128.185 100.866C127.725 102.538 125.994 103.518 124.322 103.058C124.157 103.012 123.999 102.95 123.846 102.881L103.637 133.824C104.632 134.577 105.125 135.886 104.772 137.162C104.659 137.576 104.465 137.949 104.215 138.267L165.772 200.297C166.534 199.668 167.58 199.41 168.603 199.69C170.275 200.15 171.256 201.88 170.796 203.552C170.336 205.224 168.606 206.205 166.934 205.745C166.549 205.64 166.204 205.463 165.904 205.241L138.97 235.381C139.687 236.151 140.002 237.264 139.7 238.353L139.796 238.081L236.629 272.516C237.264 271.147 238.808 270.395 240.31 270.809C241.084 271.022 241.707 271.51 242.111 272.135L280.209 252.258C279.954 251.638 279.892 250.933 280.087 250.236C280.55 248.564 282.277 247.584 283.949 248.044C285.621 248.503 286.602 250.234 286.142 251.906C285.963 252.557 285.589 253.104 285.1 253.499L321.371 307.319C322.063 306.94 322.893 306.818 323.712 307.044C325.384 307.503 326.365 309.234 325.905 310.906C325.713 311.602 325.301 312.176 324.763 312.577L345.625 346.4C346.293 346.068 347.078 345.971 347.853 346.184C349.525 346.643 350.505 348.374 350.046 350.046C349.997 350.223 349.93 350.39 349.857 350.55L411.874 388.784C412.633 387.818 413.922 387.351 415.18 387.696C416.125 387.958 416.851 388.626 417.219 389.461L464.933 374.506C464.817 374.011 464.819 373.48 464.962 372.955C465.422 371.283 467.153 370.302 468.825 370.762C470.497 371.225 471.477 372.952 471.018 374.624C471.013 374.637 471.008 374.649 471.007 374.66L505.307 392.056L523.437 401.251C524.194 400.265 525.495 399.778 526.768 400.128C528.44 400.588 529.42 402.319 528.961 403.991C528.602 405.291 527.479 406.17 526.211 406.283L521.024 450.761C521.066 450.772 521.11 450.779 521.155 450.791C522.827 451.251 523.808 452.982 523.348 454.654C522.888 456.326 521.158 457.306 519.486 456.847C519.089 456.737 518.732 456.556 518.425 456.32L491.809 488.402C492.581 489.175 492.93 490.328 492.617 491.457C492.157 493.129 490.427 494.11 488.754 493.65ZM523.569 405.222C522.899 404.453 522.614 403.378 522.906 402.321C522.963 402.117 523.039 401.925 523.128 401.744L502.57 391.317L470.796 375.202C470.658 375.475 470.483 375.721 470.278 375.938L502.436 425.322L523.566 405.222L523.569 405.222ZM319.845 310.884L290.594 315.894L295.215 357.561C295.509 357.556 295.81 357.589 296.107 357.671C296.248 357.709 296.382 357.762 296.513 357.818L321.124 312.676C320.49 312.25 320.038 311.61 319.845 310.884ZM283.169 254.207C282.875 254.211 282.574 254.179 282.277 254.096C282.103 254.047 281.942 253.986 281.785 253.912L242.136 321.661C242.728 322.085 243.152 322.702 243.338 323.397L289.96 315.413L283.172 254.206L283.169 254.207ZM-11.5733 261.217L21.3565 244.166L-9.52999 254.309C-9.41731 254.799 -9.42332 255.324 -9.56376 255.846C-9.88671 257.017 -10.8316 257.845 -11.9408 258.081L-11.5733 261.217ZM-58.8615 288.433C-58.978 288.85 -59.172 289.223 -59.4239 289.544L-4.20134 342.063C-3.79809 341.711 -3.31063 341.468 -2.78587 341.357L-12.0525 262.122L-58.9825 286.422C-58.731 287.04 -58.6717 287.742 -58.8612 288.435L-58.8615 288.433ZM248.148 464.761C248.502 464.721 248.866 464.741 249.23 464.825L265.703 415.645C264.3 415.028 263.523 413.46 263.943 411.938L234.585 400.815L248.148 464.761ZM517.2 454.207C517.193 454.14 517.186 454.071 517.184 454.004L472.157 457.55C472.153 457.813 472.119 458.076 472.048 458.34C471.858 459.033 471.446 459.604 470.914 460.007L475.739 467.776L517.2 454.207ZM399.283 452.176L385.726 451.082C385.71 451.18 385.689 451.279 385.661 451.378C385.49 451.996 385.146 452.519 384.697 452.911L390.611 461.11L464.557 457.437L399.283 452.176ZM385.774 450.506L433.181 454.327L465.927 456.966C465.943 456.868 465.965 456.77 465.992 456.671C466.144 456.118 466.436 455.645 466.819 455.269L429.193 409.253L385.158 448.673C385.546 449.198 385.767 449.836 385.776 450.503L385.774 450.506ZM470.421 460.313C469.751 460.648 468.963 460.749 468.185 460.533C467.432 460.327 466.82 459.86 466.416 459.259L413.545 488.134L475.172 467.961L470.421 460.31L470.421 460.313ZM411.478 486.363C412.232 486.569 412.844 487.035 413.248 487.637L466.138 458.751C466.03 458.498 465.952 458.229 465.912 457.953L391.017 461.674L409.052 486.688C409.761 486.272 410.626 486.129 411.479 486.365L411.478 486.363ZM408.58 487.023L390.326 461.706L375.821 462.426C375.81 462.657 375.777 462.894 375.713 463.125C375.639 463.392 375.531 463.64 375.398 463.869L408.272 487.335C408.368 487.223 408.471 487.116 408.583 487.02L408.58 487.023ZM374.926 460.094C375.39 460.57 375.699 461.182 375.792 461.846L389.921 461.145L384.228 453.248C383.52 453.664 382.655 453.807 381.802 453.571C381.448 453.474 381.125 453.315 380.838 453.115L374.926 460.094ZM381.329 447.688L368.18 410.083L350.862 417.25C351.034 417.803 351.057 418.41 350.893 419.013C350.781 419.418 350.592 419.782 350.351 420.096L380.544 448.202C380.778 447.994 381.043 447.82 381.329 447.688ZM346.961 352.347C346.704 352.342 346.441 352.308 346.18 352.236C345.67 352.095 345.226 351.838 344.867 351.5L311.446 377.946L345.968 415.674C346.424 415.329 346.967 415.111 347.544 415.051L346.961 352.344L346.961 352.347ZM133.691 238.51L101.508 247.527C101.607 248.001 101.602 248.506 101.462 249.004C101.394 249.248 101.299 249.473 101.181 249.687L110.371 257.551L133.921 239.034C133.827 238.866 133.75 238.69 133.687 238.507L133.691 238.51ZM59.5144 122.51C59.1129 123.433 58.3013 124.086 57.3599 124.311L60.2451 144.993L98.6185 136.579C98.5899 136.223 98.6183 135.856 98.7171 135.493L59.5147 122.513L59.5144 122.51ZM98.7163 137.148L60.323 145.568L69.3015 209.914C69.6237 209.901 69.9536 209.933 70.2809 210.024C70.317 210.035 70.3534 210.049 70.3895 210.059L100.221 139.069C99.4719 138.652 98.9379 137.953 98.7166 137.151L98.7163 137.148ZM267.803 409.742C267.944 409.78 268.074 409.83 268.205 409.887L293.525 363.304C292.782 362.807 292.287 362.014 292.163 361.135L252.983 363.02L266.383 409.688C266.84 409.602 267.323 409.612 267.803 409.742ZM292.137 360.555C292.147 360.323 292.181 360.092 292.244 359.858C292.309 359.618 292.405 359.395 292.52 359.185L243.01 325.79C242.864 326.038 242.689 326.261 242.488 326.454L252.821 362.442L292.136 360.552L292.137 360.555ZM241.996 326.847C241.654 327.063 241.274 327.217 240.873 327.291L229.024 358.25L227.876 361.248C228.801 361.702 229.429 362.575 229.592 363.566L252.227 362.478L241.996 326.853L241.996 326.847ZM227.326 361.038C227.326 361.038 227.329 361.038 227.332 361.037L228.476 358.051L240.231 327.338C239.98 327.333 239.723 327.298 239.468 327.229C239.047 327.113 238.671 326.916 238.35 326.664L214.582 339.908L225.374 361.129C225.977 360.9 226.656 360.849 227.326 361.035L227.326 361.038ZM265.826 409.848L252.389 363.047L229.629 364.142C229.623 364.394 229.589 364.648 229.519 364.9C229.373 365.426 229.103 365.883 228.748 366.249L265.193 410.18C265.389 410.046 265.602 409.936 265.826 409.848ZM160.332 370.895L223.355 364.053C223.356 363.781 223.391 363.504 223.464 363.231C223.686 362.429 224.199 361.789 224.856 361.388L214.075 340.194L160.128 370.252C160.219 370.458 160.286 370.673 160.329 370.895L160.332 370.895ZM213.814 339.676L201.273 315.015C200.701 315.206 200.072 315.235 199.447 315.061C199.204 314.993 198.975 314.898 198.764 314.78L174.818 347.801L159.328 369.161C159.527 369.336 159.702 369.53 159.847 369.745L213.814 339.676ZM0.766108 343.228L28.2318 334.459L45.2079 329.036C45.1016 328.552 45.106 328.039 45.2473 327.525C45.5235 326.52 46.2608 325.769 47.1664 325.426L43.0378 310.442L0.555398 342.804C0.636866 342.942 0.707104 343.083 0.768991 343.228L0.766108 343.228ZM127.562 276.083L78.309 285.297C78.3417 285.664 78.3177 286.045 78.2114 286.421C78.0317 287.069 77.6603 287.613 77.1745 288.011L86.3456 303.432L127.796 276.67C127.697 276.482 127.618 276.284 127.559 276.08L127.562 276.083ZM76.6958 288.338C76.004 288.717 75.1718 288.842 74.349 288.614C74.1419 288.557 73.9474 288.481 73.7626 288.387L50.1832 325.867C50.3926 326.028 50.5784 326.216 50.7399 326.42L85.8596 303.746L76.6955 288.335L76.6958 288.338ZM47.7244 325.271C48.1708 325.192 48.6414 325.204 49.1097 325.332C49.3139 325.39 49.5113 325.465 49.6929 325.557L58.1095 312.166L73.2567 288.067C73.1171 287.959 72.9907 287.838 72.8724 287.711L43.5315 310.063L47.7218 325.274L47.7244 325.271ZM72.5236 287.249C72.0748 286.529 71.9136 285.634 72.1561 284.751C72.2556 284.394 72.414 284.071 72.6142 283.785L26.8897 245.001C26.5776 245.305 26.2087 245.539 25.8021 245.692L43.3686 309.457L72.5233 287.246L72.5236 287.249ZM27.7215 243.596C27.622 243.953 27.4635 244.276 27.2633 244.562L72.9879 283.346C73.4397 282.902 74.0207 282.605 74.6476 282.495L71.8005 246.504L27.7903 243.28C27.7723 243.387 27.7483 243.491 27.7186 243.596L27.7215 243.596ZM75.2257 282.449C75.4886 282.454 75.7544 282.487 76.0185 282.558C76.0993 282.579 76.1753 282.609 76.2511 282.636L96.6548 250.748C95.828 250.177 95.3182 249.236 95.2966 248.227L72.3852 246.548L75.2257 282.449ZM97.5995 251.194C97.4464 251.152 97.3004 251.095 97.16 251.034L76.7788 282.887C77.0337 283.038 77.26 283.221 77.4598 283.43L109.908 257.917L100.856 250.17C100.093 251.093 98.8308 251.537 97.6027 251.197L97.5995 251.194ZM77.8166 283.885C77.9556 284.098 78.0701 284.328 78.1538 284.57L127.454 275.502C127.422 275.138 127.45 274.762 127.553 274.387C127.652 274.027 127.813 273.701 128.019 273.411L110.359 258.298L77.8195 283.885L77.8166 283.885ZM197.254 311.202C197.267 311.157 197.283 311.114 197.299 311.069L159.361 290.873L133.207 276.95C132.84 277.507 132.306 277.925 131.695 278.158L146.633 332.08L197.317 313.07C197.113 312.488 197.077 311.841 197.254 311.202ZM129.468 278.162C128.916 277.955 128.457 277.604 128.113 277.165L86.6435 303.938L109.794 342.87C110.369 342.596 111.029 342.495 111.694 342.612L129.468 278.162ZM109.295 343.164L86.1547 304.251L51.0539 326.912C51.3676 327.512 51.4906 328.21 51.3635 328.914L108.206 344.59C108.427 344.002 108.813 343.512 109.295 343.164ZM47.4377 331.391C46.4768 331.124 45.7461 330.44 45.3827 329.59L33.0067 333.543L0.938249 343.784C0.963116 343.91 0.982527 344.039 0.993281 344.169L53.3146 344.76L51.0899 329.75C50.4366 331.078 48.9176 331.798 47.4377 331.391ZM-0.996023 341.495C-0.518804 341.681 -0.112017 341.974 0.211759 342.336L42.8724 309.838L25.2444 245.85C24.8983 245.913 24.5403 245.918 24.1786 245.86L-0.996023 341.495ZM27.8318 242.704L71.7569 245.923L69.4042 216.188C69.1413 216.184 68.8755 216.151 68.6115 216.079C67.9511 215.898 67.4007 215.516 67.0048 215.021L27.4573 241.277C27.6894 241.71 27.8223 242.198 27.8318 242.704ZM69.9823 216.142L72.3413 245.964L95.3378 247.648C95.3558 247.541 95.3798 247.437 95.4095 247.332C95.5591 246.785 95.8478 246.315 96.2252 245.94L71.2154 215.642C70.8482 215.894 70.4288 216.063 69.9849 216.139L69.9823 216.142ZM134.251 239.515L110.823 257.935L128.395 272.972C129.02 272.367 129.877 272.035 130.772 272.09L135.653 240.484C135.087 240.29 134.609 239.95 134.251 239.518L134.251 239.515ZM136.218 240.62L131.344 272.181C131.368 272.187 131.392 272.191 131.416 272.197C133.088 272.657 134.068 274.387 133.609 276.059C133.573 276.188 133.528 276.316 133.476 276.438L191.979 307.579L197.528 310.535C197.631 310.346 197.752 310.17 197.887 310.01L138.351 240.166C137.73 240.557 136.98 240.735 136.216 240.623L136.218 240.62ZM201.805 314.781L214.324 339.393L237.921 326.246C237.299 325.515 237.025 324.515 237.247 323.518L203.092 313.439C202.803 314.018 202.35 314.476 201.808 314.778L201.805 314.781ZM294.44 363.723C294.299 363.686 294.169 363.635 294.037 363.579L268.718 410.162C268.91 410.291 269.086 410.438 269.24 410.603L310.599 377.874L297.169 363.195C296.415 363.763 295.419 363.991 294.437 363.721L294.44 363.723ZM344.84 417.338C344.975 416.845 345.224 416.417 345.545 416.062L310.997 378.302L269.602 411.057C269.915 411.538 270.097 412.102 270.112 412.689L344.767 417.675C344.785 417.562 344.808 417.449 344.84 417.338ZM264.151 411.391C264.308 411.075 264.511 410.791 264.754 410.55L228.316 366.627C228.047 366.819 227.748 366.964 227.429 367.064L234.444 400.139L264.152 411.394L264.151 411.391ZM226.861 367.182C226.47 367.229 226.065 367.202 225.66 367.093C224.459 366.761 223.618 365.777 223.407 364.63L160.396 371.472C160.399 371.669 160.385 371.869 160.348 372.071L233.795 399.896L226.856 367.186L226.861 367.182ZM158.094 368.492C158.371 368.568 158.624 368.681 158.858 368.82L198.284 314.455C197.99 314.211 197.744 313.92 197.558 313.595L146.788 332.638L156.703 368.431C157.152 368.349 157.623 368.364 158.094 368.492ZM146.089 332.283L131.137 278.313C130.78 278.377 130.407 278.384 130.03 278.316L112.256 342.765C113.03 343.057 113.626 343.63 113.968 344.335L146.089 332.286L146.089 332.283ZM108.055 345.149L51.6565 329.595L53.9069 344.765L108.026 345.376C108.033 345.3 108.042 345.226 108.055 345.149ZM0.986968 344.747C0.969945 344.918 0.941083 345.087 0.894924 345.258C0.848769 345.429 0.784099 345.591 0.713056 345.747L58.4552 379.414L53.4046 345.339L0.989851 344.747L0.986968 344.747ZM-2.20785 341.282C-2.03622 341.278 -1.8602 341.289 -1.68554 341.314L-1.5148 341.191L23.6205 245.709C22.9537 245.467 22.4166 245.016 22.0543 244.454L-11.5004 261.827L-2.21104 341.279L-2.20785 341.282ZM-20.1812 214.958L-12.9099 251.883C-12.5322 251.844 -12.1418 251.87 -11.7544 251.978C-11.5054 252.045 -11.2761 252.146 -11.0594 252.266L4.54127 229.541L-18.6358 213.936C-19.0361 214.427 -19.576 214.781 -20.1783 214.958L-20.1812 214.958ZM-10.5818 252.595C-10.2017 252.911 -9.90313 253.311 -9.71048 253.757L21.6324 243.463C21.5198 242.974 21.5258 242.448 21.6662 241.927C21.7314 241.686 21.8275 241.464 21.9398 241.256L5.0212 229.864L-10.5818 252.595ZM22.2625 240.776C22.8049 240.113 23.5979 239.697 24.4569 239.633L25.0929 202.778C24.8846 202.765 24.6709 202.729 24.4609 202.672C24.2448 202.613 24.0407 202.53 23.8496 202.43L5.34419 229.387L22.2596 240.777L22.2625 240.776ZM25.6741 202.76L25.1224 234.649L28.1109 201.038C27.6371 201.994 26.7103 202.634 25.6741 202.76ZM25.2571 239.675C25.3463 239.692 25.4359 239.711 25.5257 239.734C26.1861 239.915 26.7364 240.298 27.1324 240.792L66.6798 214.536C66.3102 213.849 66.1915 213.025 66.4154 212.214C66.6114 211.5 67.0423 210.913 67.6005 210.51L34.1838 154.172C33.7655 154.353 33.3027 154.442 32.8318 154.428L25.2545 239.678L25.2571 239.675ZM68.1001 210.215C68.3001 210.121 68.5077 210.044 68.7267 209.992L59.7559 145.692L36.0541 150.888C36.1052 151.291 36.0819 151.707 35.9655 152.125C35.759 152.878 35.2924 153.487 34.6935 153.891L68.0998 210.213L68.1001 210.215ZM35.9249 150.325L59.6722 145.118L56.7793 124.389C56.4572 124.403 56.1273 124.37 55.8 124.279C55.4787 124.191 55.1847 124.055 54.9187 123.882L35.0414 148.963C35.4506 149.334 35.7535 149.803 35.922 150.325L35.9249 150.325ZM57.4723 118.224C59.1024 118.673 60.072 120.326 59.6925 121.958L98.7348 134.884L16.1 90.0628L54.3226 119.126C55.0944 118.287 56.2951 117.896 57.4691 118.221L57.4723 118.224ZM15.9427 88.8433C15.9047 88.9814 15.8546 89.1149 15.7981 89.2433L99.1996 134.48C99.4772 134.098 99.835 133.786 100.243 133.566L83.285 95.8074L15.9872 88.6287C15.9714 88.7003 15.9585 88.7717 15.9398 88.8436L15.9427 88.8433ZM100.907 139.352C100.853 139.338 100.801 139.317 100.75 139.299L70.9229 210.28C71.7626 210.725 72.3396 211.528 72.5224 212.435L99.282 209.623L101.356 139.439C101.205 139.42 101.057 139.395 100.907 139.352ZM72.583 213.012C72.5871 213.3 72.5536 213.592 72.4709 213.887C72.3213 214.433 72.0326 214.904 71.6552 215.278L96.6651 245.576C97.1247 245.262 97.6676 245.074 98.2322 245.038L99.2622 210.211L72.5804 213.015L72.583 213.012ZM98.8171 245.055C98.9678 245.075 99.119 245.099 99.2693 245.142C99.9357 245.326 100.49 245.713 100.889 246.214L164.995 204.188C164.853 203.92 164.75 203.634 164.689 203.331L99.85 210.146L98.82 245.055L98.8171 245.055ZM165.311 204.674L101.208 246.699C101.255 246.787 101.3 246.879 101.336 246.974L133.559 237.947C133.501 237.536 133.526 237.108 133.642 236.684C134.104 235.012 135.832 234.032 137.504 234.491C137.888 234.597 138.233 234.773 138.533 234.995L165.464 204.856C165.409 204.798 165.358 204.736 165.308 204.674L165.311 204.674ZM138.809 239.811L198.299 309.605C199.059 308.986 200.099 308.731 201.117 309.012C201.573 309.139 201.979 309.361 202.318 309.652L237.034 275.812C236.431 275.067 236.179 274.059 236.433 273.065L139.606 238.631C139.431 239.096 139.155 239.495 138.81 239.814L138.809 239.811ZM238.637 276.862C238.18 276.735 237.775 276.512 237.436 276.224L203.484 309.32L239.33 282.934L239.231 276.968C239.034 276.954 238.832 276.92 238.634 276.865L238.637 276.862ZM202.97 310.42C203.398 311.133 203.548 312.009 203.31 312.874C203.308 312.883 203.303 312.892 203.301 312.904L237.423 322.972C237.874 321.916 238.859 321.212 239.965 321.09L239.347 283.643L202.973 310.42L202.97 310.42ZM240.544 321.079C240.741 321.093 240.943 321.127 241.141 321.182C241.312 321.231 241.476 321.293 241.633 321.367L281.282 253.618C281.093 253.48 280.919 253.327 280.764 253.153L239.918 283.222L240.544 321.079ZM243.433 323.967C243.462 324.32 243.433 324.681 243.334 325.044C243.313 325.12 243.285 325.192 243.261 325.265L292.844 358.711C293.301 358.153 293.937 357.771 294.639 357.624L290.021 315.989L243.433 323.967ZM298.39 360.308C298.44 360.705 298.414 361.122 298.3 361.534C298.165 362.026 297.916 362.454 297.595 362.809L311.052 377.518L344.483 351.065C344.303 350.819 344.16 350.548 344.057 350.261L298.387 360.312L298.39 360.308ZM347.543 352.303L348.126 415.048C348.318 415.063 348.51 415.095 348.7 415.148C349.57 415.389 350.25 415.973 350.64 416.713L367.988 409.535L347.944 352.208C347.811 352.249 347.677 352.28 347.54 352.303L347.543 352.303ZM368.719 409.86L381.877 447.496C382.386 447.37 382.931 447.365 383.471 447.515C383.6 447.551 383.722 447.597 383.843 447.645L406.826 404.266L412.616 393.341C412.155 393.037 411.79 392.618 411.548 392.139L368.722 409.86L368.719 409.86ZM413.51 393.752C413.378 393.716 413.251 393.668 413.125 393.614L384.356 447.915C384.506 448.013 384.643 448.121 384.772 448.241L428.825 408.805L416.144 393.297C415.403 393.815 414.447 394.012 413.51 393.752ZM429.625 408.867L467.267 454.904C467.695 454.617 468.189 454.437 468.711 454.385L468.207 376.92C467.862 376.944 467.509 376.914 467.158 376.817C466.744 376.703 466.371 376.509 466.053 376.26L429.628 408.869L429.625 408.867ZM469.838 376.325C469.521 376.554 469.163 376.726 468.783 376.824L469.288 454.38C469.476 454.395 469.666 454.428 469.852 454.481C470.324 454.612 470.736 454.843 471.082 455.145L502.007 425.728L469.835 376.326L469.838 376.325ZM471.485 455.563C471.808 455.972 472.024 456.454 472.114 456.972L517.205 453.422C517.224 453.274 517.25 453.129 517.29 452.982C517.501 452.216 517.978 451.597 518.594 451.195L502.333 426.222L471.485 455.563ZM517.33 454.776L476.058 468.285L488.188 487.815C488.858 487.479 489.646 487.379 490.424 487.595C490.769 487.69 491.082 487.84 491.362 488.032L517.996 455.927C517.695 455.595 517.468 455.205 517.33 454.776ZM486.471 490.284C486.489 490.119 486.518 489.952 486.562 489.788C486.751 489.094 487.163 488.523 487.695 488.12L475.491 468.47L413.709 488.694C413.742 488.842 413.764 488.997 413.774 489.15L486.471 490.284ZM371.406 459.423C372.05 459.137 372.791 459.062 373.523 459.262C373.878 459.359 374.2 459.518 374.487 459.718L380.4 452.738C379.642 451.967 379.303 450.825 379.612 449.708C379.724 449.303 379.913 448.939 380.154 448.625L349.961 420.519C349.865 420.605 349.763 420.686 349.657 420.761L371.41 459.426L371.406 459.423ZM344.946 419.315C344.814 418.981 344.739 418.625 344.729 418.256L270.074 413.27C270.057 413.383 270.034 413.496 270.002 413.607C269.552 415.24 267.891 416.211 266.256 415.826L249.783 465.006C250.376 465.268 250.855 465.695 251.182 466.221L344.945 419.312L344.946 419.315ZM246.61 465.386C246.902 465.163 247.234 464.991 247.586 464.882L233.945 400.571L161.339 373.066L246.611 465.389L246.61 465.386ZM154.678 369.743C155.042 369.212 155.56 368.814 156.149 368.589L146.247 332.847L114.174 344.878C114.317 345.406 114.33 345.976 114.174 346.54C114.132 346.693 114.077 346.836 114.013 346.977L154.675 369.744L154.678 369.743ZM108.375 347.173C108.179 346.8 108.057 346.387 108.02 345.96L53.9946 345.35L59.0542 379.482L108.376 347.176L108.375 347.173ZM-41.4205 370.418C-41.1537 370.876 -41.0018 371.406 -40.9942 371.95L57.5927 379.583L0.421618 346.247C-0.323176 347.287 -1.66167 347.809 -2.96741 347.451C-4.30638 347.082 -5.19711 345.901 -5.26807 344.588L-41.4237 370.415L-41.4205 370.418ZM-57.1788 284.833L-12.1205 261.502L-12.5137 258.15C-12.8131 258.158 -13.1199 258.123 -13.4232 258.039C-14.0836 257.857 -14.6371 257.473 -15.0363 256.975L-57.1817 284.834L-57.1788 284.833ZM-17.972 211.432C-17.8968 211.87 -17.9123 212.332 -18.0393 212.789C-18.1044 213.029 -18.2008 213.249 -18.3128 213.459L4.87033 229.067L23.368 202.12C22.9043 201.757 22.5588 201.272 22.3559 200.728L-17.972 211.432ZM26.1907 196.637C27.2528 196.951 28.0278 197.779 28.3161 198.775L31.7232 160.439L26.1904 196.634L26.1907 196.637ZM14.6276 85.3726C15.5314 85.9568 16.0754 86.9724 16.061 88.0554L83.02 95.1998L50.0548 21.8018C49.478 21.9994 48.8371 22.0318 48.2039 21.8593C48.0809 21.8256 47.9627 21.7826 47.8499 21.7362L14.6279 85.3755L14.6276 85.3726ZM50.9645 21.3039C50.8432 21.3982 50.7156 21.4875 50.5807 21.5629L83.6858 95.2668L122.094 99.3631C122.106 99.3065 122.118 99.2499 122.132 99.193C122.28 98.6556 122.56 98.1918 122.926 97.821L50.9645 21.3039ZM123.346 102.593C122.496 101.991 121.992 100.998 122.024 99.9418L83.9633 95.8819L100.788 133.339C101.352 133.158 101.973 133.13 102.585 133.299C102.783 133.354 102.972 133.428 103.15 133.517L123.346 102.593ZM103.819 138.688C103.301 139.142 102.642 139.418 101.944 139.459L99.8734 209.564L164.634 202.757C164.63 202.469 164.664 202.177 164.746 201.882C164.871 201.435 165.086 201.039 165.366 200.704L103.822 138.687L103.819 138.688ZM242.505 274.671C242.153 275.947 241.061 276.82 239.819 276.956L239.91 282.511L279.907 253.069L242.38 272.649C242.635 273.27 242.697 273.974 242.503 274.674L242.505 274.671ZM284.621 253.821C284.348 253.969 284.053 254.079 283.748 254.14L290.533 315.315L319.75 310.311C319.722 309.958 319.75 309.594 319.85 309.234C320.029 308.582 320.403 308.036 320.892 307.64L284.621 253.821ZM324.27 312.882C323.603 313.215 322.817 313.312 322.043 313.099C321.902 313.061 321.768 313.008 321.637 312.952L297.026 358.094C297.619 358.492 298.051 359.076 298.267 359.744L343.92 349.699C343.851 349.272 343.868 348.821 343.993 348.376C344.185 347.68 344.597 347.106 345.135 346.705L324.273 312.882L324.27 312.882ZM349.562 351.05C349.277 351.444 348.906 351.763 348.483 351.986L368.527 409.312L411.331 391.599C411.172 391.059 411.154 390.469 411.317 389.886C411.378 389.667 411.459 389.463 411.561 389.269L349.562 351.044L349.562 351.05ZM417.405 390.01C417.521 390.505 417.519 391.036 417.376 391.561C417.228 392.096 416.953 392.556 416.589 392.924L429.26 408.418L465.632 375.855C465.423 375.615 465.248 375.344 465.122 375.055L417.405 390.01ZM525.627 406.28C525.451 406.263 525.276 406.232 525.098 406.184C524.681 406.07 524.308 405.876 523.987 405.624L502.759 425.815L519.108 450.922C519.524 450.747 519.981 450.661 520.447 450.682L525.624 406.28L525.627 406.28Z" fill="#2B6577"/>
<path d="M263.4 324.299L235.08 317.384C231.982 316.624 230.01 313.58 230.59 310.442C231.169 307.304 234.107 305.166 237.272 305.572L266.185 309.283L263.393 324.306L263.4 324.299Z" fill="#FB8876"/>
<path d="M286.217 309.223L262.161 291.015L234.16 290.189C231.236 290.103 228.724 292.255 228.358 295.159C227.985 298.13 229.983 300.875 232.928 301.441L253.06 306.291L273.213 329.049L286.217 309.216V309.223Z" fill="#FFBE97"/>
<path d="M264.992 321.101L229.877 310.549C226.779 309.789 224.807 306.745 225.387 303.607C225.966 300.469 228.904 298.33 232.069 298.737L257.051 305.599L264.992 321.101Z" fill="#FB8876"/>
<path d="M244.927 179.288C244.927 175.104 241.536 171.713 237.352 171.713H54.4541C50.2703 171.713 46.8794 175.104 46.8794 179.288V190.227H244.927V179.288Z" fill="#FADBE9"/>
<path d="M244.927 190.227V303.281C244.927 307.464 241.536 310.855 237.352 310.855H54.4541C50.2703 310.855 46.8794 307.464 46.8794 303.281V190.227H244.927Z" fill="#F29EC3"/>
<path d="M62.0284 181.247C62.0284 183.419 60.2696 185.178 58.0978 185.178C55.926 185.178 54.1672 183.419 54.1672 181.247C54.1672 179.075 55.926 177.317 58.0978 177.317C60.2696 177.317 62.0284 179.075 62.0284 181.247Z" fill="#4F2B2B"/>
<path d="M75.4922 181.247C75.4922 183.419 73.7335 185.178 71.5617 185.178C69.3899 185.178 67.6311 183.419 67.6311 181.247C67.6311 179.075 69.3899 177.317 71.5617 177.317C73.7335 177.317 75.4922 179.075 75.4922 181.247Z" fill="white"/>
<path d="M88.9631 181.247C88.9631 183.419 87.2044 185.178 85.0326 185.178C82.8607 185.178 81.1086 183.419 81.1086 181.247C81.1086 179.075 82.8674 177.317 85.0326 177.317C87.1977 177.317 88.9631 179.075 88.9631 181.247Z" fill="white"/>
<path d="M114.778 260.671H85.4916C81.0481 260.671 77.5905 256.8 78.0835 252.384L80.4552 231.392C80.8815 227.621 84.066 224.776 87.8633 224.776H114.784V260.671H114.778Z" fill="#FADBE9"/>
<path d="M177.034 260.671H206.32C210.764 260.671 214.221 256.8 213.728 252.384L211.357 231.392C210.93 227.621 207.746 224.776 203.948 224.776H177.027V260.671H177.034Z" fill="#FADBE9"/>
<path d="M206.32 261.377H177.034C176.641 261.377 176.321 261.058 176.321 260.665V224.77C176.321 224.377 176.641 224.057 177.034 224.057H203.955C208.112 224.057 211.603 227.175 212.063 231.305L214.435 252.297C214.694 254.602 213.955 256.921 212.409 258.653C210.864 260.385 208.645 261.377 206.32 261.377ZM177.74 259.958H206.32C208.239 259.958 210.071 259.139 211.35 257.707C212.629 256.274 213.235 254.362 213.022 252.457L210.651 231.465C210.264 228.054 207.386 225.483 203.955 225.483H177.747V259.952L177.74 259.958Z" fill="#4F2B2B"/>
<path d="M170.345 286.14H121.466C104.864 286.14 91.6737 272.203 92.5797 255.628L94.0387 228.967C94.8781 213.625 107.562 201.62 122.925 201.62H168.879C184.242 201.62 196.926 213.625 197.766 228.967L199.225 255.628C200.131 272.203 186.94 286.14 170.338 286.14H170.345Z" fill="white"/>
<path d="M199.232 256.341C198.858 256.341 198.545 256.048 198.525 255.668L197.066 229.007C196.247 214.05 183.869 202.332 168.886 202.332C168.493 202.332 168.173 202.012 168.173 201.619C168.173 201.226 168.493 200.906 168.886 200.906C184.622 200.906 197.619 213.211 198.479 228.927L199.938 255.588C199.958 255.981 199.658 256.314 199.265 256.334C199.252 256.334 199.238 256.334 199.225 256.334L199.232 256.341Z" fill="#4F2B2B"/>
<path d="M117.582 258.26L119.188 229C119.321 226.569 121.333 224.67 123.764 224.67H168.053C170.485 224.67 172.497 226.575 172.63 229L174.235 258.26C174.382 260.884 172.29 263.096 169.659 263.096H122.159C119.527 263.096 117.435 260.891 117.582 258.26Z" fill="#F29EC3"/>
<path d="M135.177 247.134C133.558 247.134 132.252 245.821 132.252 244.209V237.707C132.252 236.088 133.564 234.782 135.177 234.782C136.795 234.782 138.101 236.095 138.101 237.707V244.209C138.101 245.828 136.789 247.134 135.177 247.134Z" fill="#4F2B2B"/>
<path d="M156.635 247.134C155.016 247.134 153.71 245.821 153.71 244.209V237.707C153.71 236.088 155.023 234.782 156.635 234.782C158.254 234.782 159.56 236.095 159.56 237.707V244.209C159.56 245.828 158.247 247.134 156.635 247.134Z" fill="#4F2B2B"/>
<path d="M192.81 310.856H101.274L105.777 300.037C108.116 294.374 113.639 290.697 119.748 290.697H174.316C180.425 290.697 185.948 294.374 188.306 300.037L192.81 310.856Z" fill="white"/>
<path d="M146.256 259.419C141.785 259.419 137.788 256.587 136.309 252.377C135.969 251.404 136.116 250.325 136.709 249.492C137.302 248.653 138.234 248.173 139.267 248.173H153.251C154.277 248.173 155.209 248.653 155.802 249.492C156.395 250.332 156.542 251.411 156.202 252.377C154.723 256.587 150.726 259.419 146.256 259.419ZM139.267 249.586C138.707 249.586 138.194 249.852 137.868 250.305C137.535 250.771 137.455 251.351 137.648 251.897C138.927 255.541 142.392 257.993 146.256 257.993C150.119 257.993 153.584 255.541 154.863 251.897C155.056 251.351 154.976 250.771 154.643 250.305C154.317 249.845 153.81 249.586 153.251 249.586H139.267Z" fill="#4F2B2B"/>
<path d="M69.1833 196.315H25.5074C20.8107 196.315 17 200.126 17 204.823V225.808C17 230.505 20.8107 234.315 25.5074 234.315H50.0768L64.007 241.69L60.4695 234.315H69.1833C73.88 234.315 77.6907 230.505 77.6907 225.808V204.823C77.6907 200.126 73.88 196.315 69.1833 196.315Z" fill="#DF8711"/>
<path d="M37.5386 206.668H22.9555C22.5625 206.668 22.2427 206.348 22.2427 205.955C22.2427 205.562 22.5625 205.242 22.9555 205.242H37.5386C37.9317 205.242 38.2514 205.562 38.2514 205.955C38.2514 206.348 37.9317 206.668 37.5386 206.668Z" fill="white"/>
<path d="M60.6026 206.668H42.0756C41.6826 206.668 41.3628 206.348 41.3628 205.955C41.3628 205.562 41.6826 205.242 42.0756 205.242H60.6026C60.9957 205.242 61.3154 205.562 61.3154 205.955C61.3154 206.348 60.9957 206.668 60.6026 206.668Z" fill="white"/>
<path d="M54.1738 215.176H22.9558C22.5627 215.176 22.2429 214.856 22.2429 214.463C22.2429 214.07 22.5627 213.75 22.9558 213.75H54.1738C54.5669 213.75 54.8867 214.07 54.8867 214.463C54.8867 214.856 54.5669 215.176 54.1738 215.176Z" fill="white"/>
<path d="M68.3571 215.176H58.7172C58.3242 215.176 58.0044 214.856 58.0044 214.463C58.0044 214.07 58.3242 213.75 58.7172 213.75H68.3571C68.7502 213.75 69.07 214.07 69.07 214.463C69.07 214.856 68.7502 215.176 68.3571 215.176Z" fill="white"/>
<path d="M38.4848 223.683H22.9558C22.5627 223.683 22.2429 223.364 22.2429 222.97C22.2429 222.577 22.5627 222.258 22.9558 222.258H38.4848C38.8779 222.258 39.1977 222.577 39.1977 222.97C39.1977 223.364 38.8779 223.683 38.4848 223.683Z" fill="white"/>
<path d="M62.4947 223.683H43.0217C42.6286 223.683 42.3088 223.363 42.3088 222.97C42.3088 222.577 42.6286 222.257 43.0217 222.257H62.4947C62.8877 222.257 63.2075 222.577 63.2075 222.97C63.2075 223.363 62.8877 223.683 62.4947 223.683Z" fill="white"/>
<path d="M244.927 190.933C244.534 190.933 244.214 190.613 244.214 190.22V179.288C244.214 175.504 241.136 172.426 237.352 172.426C236.959 172.426 236.639 172.106 236.639 171.713C236.639 171.32 236.959 171 237.352 171C241.922 171 245.633 174.717 245.633 179.288V190.226C245.633 190.62 245.313 190.939 244.92 190.939L244.927 190.933Z" fill="#4F2B2B"/>
<path d="M237.351 311.568H54.4533C54.0603 311.568 53.7405 311.248 53.7405 310.855C53.7405 310.462 54.0603 310.142 54.4533 310.142H237.351C241.135 310.142 244.213 307.064 244.213 303.28V190.226C244.213 189.833 244.533 189.514 244.926 189.514C245.319 189.514 245.639 189.833 245.639 190.226V303.28C245.639 307.85 241.922 311.568 237.351 311.568Z" fill="#4F2B2B"/>
<path d="M142.825 398.62L172.757 423.329L171.458 365.15L142.825 398.62Z" fill="#FFBE97"/>
<path d="M254.68 275.74H171.212V341.407H254.68V275.74Z" fill="#FADBE9"/>
<path d="M172.111 275.74H133.099V341.407H172.111V275.74Z" fill="#F29EC3"/>
<path d="M266.058 333.606H122.379C118.965 333.606 116.197 336.374 116.197 339.789V343.679C116.197 347.094 118.965 349.862 122.379 349.862H266.058C269.473 349.862 272.24 347.094 272.24 343.679V339.789C272.24 336.374 269.473 333.606 266.058 333.606Z" fill="#DF8711"/>
<path d="M172.757 281.003H132.772C132.379 281.003 132.059 280.683 132.059 280.29C132.059 279.897 132.379 279.577 132.772 279.577H172.757C173.15 279.577 173.47 279.897 173.47 280.29C173.47 280.683 173.15 281.003 172.757 281.003Z" fill="#4F2B2B"/>
<path d="M172.757 285.227H132.772C132.379 285.227 132.059 284.907 132.059 284.514C132.059 284.121 132.379 283.801 132.772 283.801H172.757C173.15 283.801 173.47 284.121 173.47 284.514C173.47 284.907 173.15 285.227 172.757 285.227Z" fill="#4F2B2B"/>
<path d="M172.757 289.451H132.772C132.379 289.451 132.059 289.131 132.059 288.738C132.059 288.345 132.379 288.025 132.772 288.025H172.757C173.15 288.025 173.47 288.345 173.47 288.738C173.47 289.131 173.15 289.451 172.757 289.451Z" fill="#4F2B2B"/>
<path d="M172.757 293.681H132.772C132.379 293.681 132.059 293.361 132.059 292.968C132.059 292.575 132.379 292.255 132.772 292.255H172.757C173.15 292.255 173.47 292.575 173.47 292.968C173.47 293.361 173.15 293.681 172.757 293.681Z" fill="#4F2B2B"/>
<path d="M172.757 297.904H132.772C132.379 297.904 132.059 297.584 132.059 297.191C132.059 296.798 132.379 296.479 132.772 296.479H172.757C173.15 296.479 173.47 296.798 173.47 297.191C173.47 297.584 173.15 297.904 172.757 297.904Z" fill="#4F2B2B"/>
<path d="M172.757 302.129H132.772C132.379 302.129 132.059 301.809 132.059 301.416C132.059 301.023 132.379 300.703 132.772 300.703H172.757C173.15 300.703 173.47 301.023 173.47 301.416C173.47 301.809 173.15 302.129 172.757 302.129Z" fill="#4F2B2B"/>
<path d="M172.757 306.359H132.772C132.379 306.359 132.059 306.039 132.059 305.646C132.059 305.253 132.379 304.933 132.772 304.933H172.757C173.15 304.933 173.47 305.253 173.47 305.646C173.47 306.039 173.15 306.359 172.757 306.359Z" fill="#4F2B2B"/>
<path d="M172.757 310.583H132.772C132.379 310.583 132.059 310.263 132.059 309.87C132.059 309.477 132.379 309.157 132.772 309.157H172.757C173.15 309.157 173.47 309.477 173.47 309.87C173.47 310.263 173.15 310.583 172.757 310.583Z" fill="#4F2B2B"/>
<path d="M172.757 314.813H132.772C132.379 314.813 132.059 314.493 132.059 314.1C132.059 313.707 132.379 313.387 132.772 313.387H172.757C173.15 313.387 173.47 313.707 173.47 314.1C173.47 314.493 173.15 314.813 172.757 314.813Z" fill="#4F2B2B"/>
<path d="M172.757 319.036H132.772C132.379 319.036 132.059 318.716 132.059 318.323C132.059 317.93 132.379 317.61 132.772 317.61H172.757C173.15 317.61 173.47 317.93 173.47 318.323C173.47 318.716 173.15 319.036 172.757 319.036Z" fill="#4F2B2B"/>
<path d="M172.757 323.26H132.772C132.379 323.26 132.059 322.94 132.059 322.547C132.059 322.154 132.379 321.835 132.772 321.835H172.757C173.15 321.835 173.47 322.154 173.47 322.547C173.47 322.94 173.15 323.26 172.757 323.26Z" fill="#4F2B2B"/>
<path d="M172.757 327.49H132.772C132.379 327.49 132.059 327.17 132.059 326.777C132.059 326.384 132.379 326.065 132.772 326.065H172.757C173.15 326.065 173.47 326.384 173.47 326.777C173.47 327.17 173.15 327.49 172.757 327.49Z" fill="#4F2B2B"/>
<path d="M172.757 331.714H132.772C132.379 331.714 132.059 331.395 132.059 331.002C132.059 330.609 132.379 330.289 132.772 330.289H172.757C173.15 330.289 173.47 330.609 173.47 331.002C173.47 331.395 173.15 331.714 172.757 331.714Z" fill="#4F2B2B"/>
<path d="M254.313 281.003H172.764C172.371 281.003 172.051 280.683 172.051 280.29C172.051 279.897 172.371 279.577 172.764 279.577H254.313C254.707 279.577 255.026 279.897 255.026 280.29C255.026 280.683 254.707 281.003 254.313 281.003Z" fill="#F29EC3"/>
<path d="M254.313 285.227H172.764C172.371 285.227 172.051 284.907 172.051 284.514C172.051 284.121 172.371 283.801 172.764 283.801H254.313C254.707 283.801 255.026 284.121 255.026 284.514C255.026 284.907 254.707 285.227 254.313 285.227Z" fill="#F29EC3"/>
<path d="M254.313 289.451H172.764C172.371 289.451 172.051 289.131 172.051 288.738C172.051 288.345 172.371 288.025 172.764 288.025H254.313C254.707 288.025 255.026 288.345 255.026 288.738C255.026 289.131 254.707 289.451 254.313 289.451Z" fill="#F29EC3"/>
<path d="M254.313 293.681H172.764C172.371 293.681 172.051 293.361 172.051 292.968C172.051 292.575 172.371 292.255 172.764 292.255H254.313C254.707 292.255 255.026 292.575 255.026 292.968C255.026 293.361 254.707 293.681 254.313 293.681Z" fill="#F29EC3"/>
<path d="M254.313 297.904H172.764C172.371 297.904 172.051 297.584 172.051 297.191C172.051 296.798 172.371 296.479 172.764 296.479H254.313C254.707 296.479 255.026 296.798 255.026 297.191C255.026 297.584 254.707 297.904 254.313 297.904Z" fill="#F29EC3"/>
<path d="M254.313 302.129H172.764C172.371 302.129 172.051 301.809 172.051 301.416C172.051 301.023 172.371 300.703 172.764 300.703H254.313C254.707 300.703 255.026 301.023 255.026 301.416C255.026 301.809 254.707 302.129 254.313 302.129Z" fill="#F29EC3"/>
<path d="M254.313 306.359H172.764C172.371 306.359 172.051 306.039 172.051 305.646C172.051 305.253 172.371 304.933 172.764 304.933H254.313C254.707 304.933 255.026 305.253 255.026 305.646C255.026 306.039 254.707 306.359 254.313 306.359Z" fill="#F29EC3"/>
<path d="M254.313 310.583H172.764C172.371 310.583 172.051 310.263 172.051 309.87C172.051 309.477 172.371 309.157 172.764 309.157H254.313C254.707 309.157 255.026 309.477 255.026 309.87C255.026 310.263 254.707 310.583 254.313 310.583Z" fill="#F29EC3"/>
<path d="M254.313 314.813H172.764C172.371 314.813 172.051 314.493 172.051 314.1C172.051 313.707 172.371 313.387 172.764 313.387H254.313C254.707 313.387 255.026 313.707 255.026 314.1C255.026 314.493 254.707 314.813 254.313 314.813Z" fill="#F29EC3"/>
<path d="M254.313 319.036H172.764C172.371 319.036 172.051 318.716 172.051 318.323C172.051 317.93 172.371 317.61 172.764 317.61H254.313C254.707 317.61 255.026 317.93 255.026 318.323C255.026 318.716 254.707 319.036 254.313 319.036Z" fill="#F29EC3"/>
<path d="M254.313 323.26H172.764C172.371 323.26 172.051 322.94 172.051 322.547C172.051 322.154 172.371 321.835 172.764 321.835H254.313C254.707 321.835 255.026 322.154 255.026 322.547C255.026 322.94 254.707 323.26 254.313 323.26Z" fill="#F29EC3"/>
<path d="M254.313 327.49H172.764C172.371 327.49 172.051 327.17 172.051 326.777C172.051 326.384 172.371 326.065 172.764 326.065H254.313C254.707 326.065 255.026 326.384 255.026 326.777C255.026 327.17 254.707 327.49 254.313 327.49Z" fill="#F29EC3"/>
<path d="M254.313 331.714H172.764C172.371 331.714 172.051 331.395 172.051 331.002C172.051 330.609 172.371 330.289 172.764 330.289H254.313C254.707 330.289 255.026 330.609 255.026 331.002C255.026 331.395 254.707 331.714 254.313 331.714Z" fill="#F29EC3"/>
<path d="M242.975 303.214L239.471 301.442L235.82 303.214V291.508H242.975V303.214Z" fill="white"/>
<path d="M228.065 320.282L224.534 317.983L220.917 320.282V308.577H228.065V320.282Z" fill="white"/>
<path d="M199.139 313.101L195.601 310.796L191.984 313.101V304.467H199.139V313.101Z" fill="white"/>
<path d="M264.759 320.928L236.825 318.623C232.595 318.276 228.811 321.241 228.138 325.438C227.512 329.388 229.857 333.212 233.667 334.438L255.325 341.407L262.154 355.057L302.792 337.176L286.21 309.216L265.405 300.762L264.752 320.914L264.759 320.928Z" fill="#FFBE97"/>
<path d="M142.225 376.509L109.948 360.966L85.7182 341.187C82.8469 338.842 78.6632 339.055 76.045 341.673C73.8133 343.905 73.287 347.329 74.7526 350.127L90.2884 377.068L120.107 395.036L142.219 376.509H142.225Z" fill="#FFBE97"/>
<path d="M142.286 369.021L110.008 353.479L85.7785 333.699C82.9072 331.354 78.7235 331.567 76.1053 334.186C73.8736 336.417 73.3473 339.842 74.8129 342.64L86.105 364.238L120.174 387.548L142.286 369.021Z" fill="#FFBE97"/>
<path d="M145.216 360.967L112.939 345.425L88.7092 325.645C85.8379 323.3 81.6542 323.513 79.036 326.131C76.8042 328.363 76.2779 331.787 77.7436 334.585L89.0356 356.184L123.105 379.494L145.216 360.967Z" fill="#FFBE97"/>
<path d="M155.376 354.391V332.873L143.424 322.114L114.824 318.363C110.534 317.804 106.637 320.922 106.25 325.225C105.964 328.39 107.669 331.394 110.527 332.773L129.248 340.001L134.544 353.239L155.383 354.385L155.376 354.391Z" fill="#FFBE97"/>
<path d="M155.376 354.391L134.91 344.165L117.896 341.52L98.8757 319.076C96.0044 316.731 91.8207 316.944 89.2025 319.562C86.9707 321.794 86.4444 325.218 87.9101 328.016L99.2021 349.614L133.272 372.925L155.383 354.398L155.376 354.391Z" fill="#FFBE97"/>
<path d="M120.114 395.037L142.825 398.621L171.458 365.151L155.376 332.88L118.315 355.591L120.114 395.037Z" fill="#FFBE97"/>
<path d="M298.729 281.262C311.926 281.262 322.625 271.729 322.625 259.97C322.625 248.211 311.926 238.678 298.729 238.678C285.531 238.678 274.832 248.211 274.832 259.97C274.832 271.729 285.531 281.262 298.729 281.262Z" fill="#4F2B2B"/>
<path d="M301.833 320.661L296.823 293.727L335.609 286.512L335.862 287.858C329.307 303.02 316.563 313.14 301.84 320.661H301.833Z" fill="#FB8876"/>
<path d="M335.863 287.858L341.858 320.075L303.072 327.29L301.84 320.668C316.563 313.14 329.307 303.027 335.863 287.865V287.858Z" fill="#FFBE97"/>
<path d="M301.953 307.983C281.448 305.245 268.91 288.344 271.208 271.256C271.668 267.765 272.807 264.514 274.519 261.562C274.613 261.369 274.719 261.196 274.839 261.023C274.859 260.996 274.879 260.976 274.879 260.95C275.066 260.636 275.252 260.343 275.465 260.05C275.619 259.79 275.792 259.544 275.965 259.297C277.457 257.152 279.263 255.214 281.355 253.501C281.355 253.501 281.361 253.493 281.375 253.475C282.274 252.735 283.213 252.029 284.193 251.376C291.754 246.307 301.827 243.848 312.473 245.267C332.978 248.005 347.755 264.081 345.476 281.169C343.198 298.263 322.466 310.728 301.96 307.99L301.953 307.983Z" fill="#FFBE97"/>
<path d="M301.906 283.48C301.513 285.179 298.642 285.965 295.484 285.239C292.326 284.513 290.088 282.548 290.481 280.849C290.874 279.15 293.745 278.364 296.903 279.09C300.061 279.816 302.299 281.782 301.906 283.48Z" fill="#FB8876"/>
<path d="M277.39 266.007L268.316 273.648C267.144 274.634 267.284 276.479 268.589 277.279L274.838 281.096L277.39 266V266.007Z" fill="#FFBE97"/>
<path d="M282.36 276.013C283.146 276.193 283.932 275.706 284.112 274.914L284.645 272.615C284.825 271.829 284.338 271.043 283.546 270.863C282.759 270.683 281.973 271.17 281.793 271.962L281.261 274.261C281.081 275.047 281.567 275.833 282.36 276.013Z" fill="#4F2B2B"/>
<path d="M311.38 260.629L337.022 297.423C337.022 297.423 352.764 282.66 345.889 266.099C333.664 236.666 289.562 240.696 284.186 251.382L311.38 260.636V260.629Z" fill="#4F2B2B"/>
<path d="M291.68 269.19C291.52 269.19 291.36 269.137 291.227 269.024C288.049 266.386 283.846 265.02 279.742 265.266C279.309 265.293 279.009 264.993 278.989 264.6C278.962 264.207 279.262 263.874 279.655 263.847C284.119 263.581 288.682 265.067 292.14 267.931C292.439 268.184 292.486 268.631 292.233 268.931C292.093 269.097 291.893 269.19 291.687 269.19H291.68Z" fill="#4F2B2B"/>
<path d="M324.903 289.39C319.874 289.39 315.803 285.313 315.803 280.29C315.803 275.26 319.88 271.19 324.903 271.19C329.933 271.19 334.004 275.267 334.004 280.29C334.004 285.32 329.927 289.39 324.903 289.39Z" fill="#FFBE97"/>
<path d="M327.628 249.305C329.567 246.374 333.237 245.141 336.702 244.568C348.154 242.676 358.899 246.4 367.853 253.422C377.719 261.163 386.267 279.53 400.097 280.183C409.91 280.65 419.85 277.519 427.624 271.509L436.372 282.835L428.897 287.385L438.65 286.732L442.874 292.908C442.874 292.908 414.947 318.636 388.292 311.814C359.412 304.42 348.633 260.124 334.33 261.423L327.628 249.292V249.305Z" fill="#4F2B2B"/>
<path d="M411.169 274.9C404.361 274.9 396.766 272.082 389.365 266.673C386.247 264.394 383.262 261.83 380.378 259.351C375.481 255.141 370.418 250.791 364.636 247.806C352.058 241.311 336.815 242.29 326.702 250.251C326.396 250.491 325.949 250.444 325.703 250.131C325.463 249.825 325.51 249.378 325.823 249.132C336.362 240.831 352.224 239.792 365.288 246.54C371.218 249.605 376.341 254.008 381.304 258.265C384.168 260.724 387.133 263.269 390.204 265.52C394.981 269.011 407.319 276.646 418.704 272.082C419.064 271.936 419.477 272.109 419.624 272.475C419.77 272.842 419.59 273.255 419.231 273.401C416.732 274.401 414.021 274.894 411.169 274.894V274.9Z" fill="#4F2B2B"/>
<path d="M318.402 281.262L321.653 272.162L330.107 246.48C330.107 246.48 305.078 229.578 287.523 243.229C271.675 255.56 295.651 266.959 295.651 266.959L295.977 261.11L318.408 281.262H318.402Z" fill="#4F2B2B"/>
<path d="M340.039 243.609C340.859 247.199 338.62 250.77 335.03 251.59C331.439 252.409 327.868 250.171 327.048 246.58C326.229 242.989 328.467 239.418 332.058 238.599C335.649 237.779 339.22 240.018 340.039 243.609Z" fill="#EF9C2E"/>
<path d="M344.536 251.583C345.356 255.174 343.117 258.745 339.527 259.564C335.936 260.383 332.365 258.145 331.546 254.554C330.726 250.963 332.965 247.393 336.555 246.573C340.146 245.754 343.717 247.992 344.536 251.583Z" fill="#EF9C2E"/>
<path d="M322.085 249.685C321.925 249.685 321.765 249.631 321.632 249.518C316.189 245.001 308.348 244.302 302.126 244.202C301.733 244.195 301.42 243.869 301.426 243.482C301.433 243.089 301.799 242.769 302.153 242.783C308.608 242.889 316.756 243.629 322.545 248.425C322.845 248.679 322.891 249.125 322.638 249.425C322.498 249.591 322.298 249.685 322.092 249.685H322.085Z" fill="#4F2B2B"/>
<path d="M314.051 256.28C312.752 256.28 311.447 256.173 310.154 255.967C309.768 255.907 309.501 255.541 309.568 255.154C309.634 254.768 310.014 254.501 310.381 254.568C314.418 255.227 318.555 254.788 322.359 253.295C322.732 253.149 323.138 253.335 323.278 253.695C323.418 254.062 323.238 254.475 322.878 254.615C320.054 255.72 317.063 256.28 314.051 256.28Z" fill="#4F2B2B"/>
<path d="M404.287 284.446C401.103 284.446 397.725 283.939 394.241 282.927C388.405 281.235 382.816 278.337 378.066 274.546C375.108 272.181 372.423 269.45 369.825 266.798C367.72 264.653 365.541 262.428 363.243 260.436C359.019 256.779 352.504 252.495 345.369 252.875C345.009 252.901 344.643 252.595 344.623 252.202C344.603 251.809 344.902 251.476 345.295 251.456C351.298 251.156 357.833 253.874 364.175 259.363C366.52 261.395 368.719 263.634 370.844 265.806C373.409 268.424 376.06 271.128 378.952 273.433C383.555 277.111 388.985 279.916 394.641 281.554C400.983 283.393 406.952 283.5 411.882 281.854C412.255 281.728 412.655 281.928 412.781 282.301C412.908 282.674 412.701 283.073 412.335 283.2C409.863 284.026 407.159 284.432 404.287 284.432V284.446Z" fill="#4F2B2B"/>
<path d="M411.363 293.84H411.356C397.433 293.646 383.203 292.267 373.436 283.507C370.398 280.782 367.894 277.418 365.475 274.16C361.758 269.164 358.254 264.44 352.957 261.836C352.604 261.662 352.458 261.236 352.631 260.883C352.804 260.53 353.23 260.39 353.584 260.556C359.186 263.314 362.957 268.398 366.614 273.307C368.993 276.505 371.451 279.816 374.382 282.441C383.802 290.882 397.726 292.221 411.376 292.407C411.769 292.407 412.082 292.734 412.076 293.127C412.076 293.513 411.756 293.826 411.363 293.826V293.84Z" fill="#4F2B2B"/>
<path d="M337.402 285.752C337.222 285.752 337.042 285.685 336.902 285.545C336.622 285.272 336.616 284.819 336.889 284.539C339.287 282.094 340.579 278.39 340.533 274.107C340.493 270.209 339.414 266.359 338.374 262.628C338.268 262.248 338.488 261.855 338.867 261.755C339.247 261.642 339.64 261.869 339.74 262.248C340.806 266.066 341.912 270.01 341.952 274.093C342.005 278.757 340.566 282.821 337.901 285.539C337.761 285.679 337.575 285.752 337.395 285.752H337.402Z" fill="#4F2B2B"/>
<path d="M281.068 293.453C278.763 293.453 276.958 290.942 276.958 287.731C276.958 284.519 278.763 282.008 281.068 282.008C283.373 282.008 285.178 284.519 285.178 287.731C285.178 290.942 283.373 293.453 281.068 293.453ZM281.068 283.434C279.609 283.434 278.377 285.405 278.377 287.737C278.377 290.069 279.609 292.034 281.068 292.034C282.527 292.034 283.759 290.062 283.759 287.737C283.759 285.412 282.527 283.434 281.068 283.434Z" fill="#4F2B2B"/>
<path d="M339.746 314.046C318.595 310.015 294.445 316.584 276.138 328.402C244.926 348.555 216.32 386.268 216.32 386.268L171.458 365.15L140.247 415.521C140.247 415.521 187.06 457.785 225.42 454.534C263.78 451.283 280.688 432.429 280.688 432.429L289.142 460.389H405.92C406.819 451.289 406.36 431.656 402.269 409.678C397.466 383.843 389.944 360.526 375.535 337.982C366.714 324.185 353.903 316.744 339.74 314.046H339.746Z" fill="#3F97B1"/>
<path d="M102.387 353.198C102.14 353.198 101.9 353.072 101.774 352.839L87.0242 327.123C86.831 326.784 86.9443 326.351 87.284 326.157C87.6238 325.964 88.0568 326.078 88.2567 326.417L103.006 352.133C103.2 352.472 103.086 352.905 102.746 353.099C102.633 353.165 102.513 353.192 102.393 353.192L102.387 353.198Z" fill="#4F2B2B"/>
<path d="M92.94 361.899C92.6935 361.899 92.4604 361.772 92.3271 361.546L77.2044 335.451C77.0045 335.111 77.1245 334.678 77.4642 334.478C77.7973 334.278 78.237 334.398 78.4369 334.738L93.5596 360.833C93.7594 361.173 93.6395 361.606 93.2998 361.806C93.1865 361.872 93.0666 361.899 92.94 361.899Z" fill="#4F2B2B"/>
<path d="M90.6683 369.461C90.4285 369.461 90.1953 369.341 90.0621 369.121L76.0719 346.057C75.8721 345.724 75.9786 345.284 76.3117 345.078C76.6448 344.878 77.0845 344.985 77.2911 345.318L91.2812 368.382C91.4811 368.715 91.3745 369.154 91.0414 369.361C90.9281 369.427 90.8016 369.461 90.675 369.461H90.6683Z" fill="#4F2B2B"/>
<path d="M129.241 339.961C129.241 339.961 129.174 339.961 129.141 339.961C128.795 339.914 120.607 338.762 113.012 334.585C105.131 330.248 105.518 325.371 105.538 325.165C105.578 324.771 105.937 324.498 106.317 324.525C106.704 324.565 106.99 324.905 106.957 325.298C106.957 325.371 106.744 329.508 113.705 333.339C121.06 337.383 129.261 338.542 129.341 338.548C129.727 338.602 130.001 338.962 129.947 339.348C129.901 339.701 129.594 339.961 129.248 339.961H129.241Z" fill="#4F2B2B"/>
<path d="M209.951 411.199C209.591 411.199 209.285 410.925 209.245 410.559C208.379 402.172 210.737 393.458 215.714 386.649C215.947 386.329 216.393 386.263 216.706 386.496C217.019 386.729 217.093 387.175 216.859 387.489C212.089 394.017 209.824 402.371 210.657 410.412C210.697 410.806 210.417 411.152 210.024 411.192C209.998 411.192 209.978 411.192 209.951 411.192V411.199Z" fill="#4F2B2B"/>
</g>
<defs>
<clipPath id="clip0_760_13793">
<rect width="460" height="460" fill="white"/>
</clipPath>
</defs>
</svg>
