<svg width="460" height="460" viewBox="0 0 460 460" fill="none" xmlns="http://www.w3.org/2000/svg">
<g clip-path="url(#clip0_760_14284)">
<rect width="460" height="460" fill="white"/>
<path d="M571.578 145.649C570.161 145.559 568.9 146.387 568.368 147.621L496.24 124.037C496.279 123.868 496.307 123.694 496.32 123.516C496.431 121.709 495.059 120.154 493.253 120.04C491.447 119.925 489.891 121.3 489.777 123.106C489.759 123.395 489.781 123.676 489.835 123.948L449.418 135.935C448.961 134.797 447.888 133.962 446.583 133.882C444.777 133.767 443.221 135.142 443.107 136.948C443.058 137.747 443.299 138.497 443.738 139.095L409.132 169.861C408.594 169.36 407.888 169.034 407.098 168.983C406.241 168.93 405.444 169.213 404.827 169.714L328.234 91.5587C328.676 91.0404 328.961 90.3787 329.009 89.6464C329.123 87.84 327.749 86.2842 325.943 86.1698C324.136 86.0553 322.58 87.4299 322.466 89.2363C322.434 89.7624 322.531 90.2647 322.723 90.7183L206.214 153.383C206.144 151.728 204.833 150.358 203.143 150.251C201.337 150.137 199.781 151.512 199.666 153.318C199.656 153.483 199.662 153.643 199.677 153.804L151.812 162.454C151.447 161.146 150.292 160.15 148.862 160.06C148.142 160.015 147.463 160.209 146.898 160.57L109.213 111.94L110.026 111.778L108.847 111.472L108.619 111.179L108.513 111.386L7.58044 85.1482C7.5965 85.0422 7.60981 84.9349 7.61764 84.825C7.7321 83.0186 6.3575 81.4628 4.55117 81.3484C2.74486 81.2339 1.18905 82.6085 1.07461 84.4148C0.960159 86.2212 2.33475 87.777 4.14107 87.8914C4.81234 87.934 5.45082 87.7677 5.99182 87.4524L33.1853 125.631C33.1714 125.718 33.1603 125.806 33.1547 125.897C33.125 126.347 33.1924 126.783 33.332 127.185L-39.0104 160.253C-39.5419 159.331 -40.5059 158.685 -41.6477 158.613C-43.454 158.498 -45.0098 159.873 -45.1243 161.679C-45.2387 163.486 -43.8641 165.041 -42.0578 165.156C-41.3445 165.201 -40.6674 165.01 -40.1072 164.653L-6.50207 208.392C-7.09621 208.943 -7.49212 209.714 -7.5467 210.59C-7.62021 211.764 -7.06454 212.828 -6.17538 213.463L-25.8987 247.432C-26.258 247.265 -26.6521 247.158 -27.0711 247.133C-28.8774 247.018 -30.4332 248.393 -30.5477 250.199C-30.6621 252.006 -29.2875 253.561 -27.4812 253.676C-26.3842 253.743 -25.382 253.263 -24.7362 252.472L11.4248 276.739C11.2018 277.146 11.0613 277.605 11.0302 278.101C10.9283 279.723 12.0243 281.139 13.557 281.496L5.58085 325.351C3.79008 325.261 2.25566 326.625 2.14358 328.419C2.02913 330.226 3.40372 331.781 5.21004 331.896C5.52466 331.916 5.83121 331.888 6.12588 331.822L17.2268 363.341C16.168 363.829 15.403 364.868 15.3261 366.114C15.3052 366.438 15.3354 366.753 15.4059 367.053L-32.8417 382.961C-33.3182 381.87 -34.3701 381.076 -35.6393 380.998C-37.4456 380.884 -39.0015 382.258 -39.1159 384.065C-39.2304 385.871 -37.8558 387.427 -36.0494 387.541C-35.9165 387.55 -35.788 387.546 -35.6582 387.54L-24.5014 461.635C-25.8555 461.968 -26.8968 463.149 -26.9881 464.612C-27.1026 466.418 -25.728 467.974 -23.9217 468.088C-22.1153 468.203 -20.5595 466.828 -20.4451 465.022C-20.4118 464.507 -20.5052 464.012 -20.6907 463.565L76.357 412.486C76.9124 413.242 77.7847 413.756 78.7937 413.819C80.6 413.934 82.1558 412.559 82.2702 410.753C82.3847 408.946 81.0101 407.391 79.2038 407.276C79.0248 407.266 78.8477 407.274 78.6735 407.289L69.2447 369.886C70.4818 369.481 71.4136 368.356 71.4991 366.977C71.5275 366.53 71.4628 366.095 71.3247 365.697L153.152 325.399C153.69 326.278 154.634 326.889 155.739 326.96C157.546 327.074 159.101 325.7 159.216 323.894C159.33 322.087 157.956 320.531 156.149 320.417C155.734 320.39 155.334 320.447 154.962 320.564L138.624 281.668C139.592 281.152 140.282 280.161 140.354 278.982L140.356 279.284L247.62 278.206C247.78 279.773 249.05 281.039 250.671 281.141C251.508 281.194 252.289 280.924 252.9 280.444L283.744 313.006C283.281 313.532 282.98 314.206 282.936 314.96C282.824 316.768 284.196 318.322 286.002 318.437C287.809 318.551 289.365 317.177 289.479 315.37C289.523 314.666 289.34 314 288.992 313.444L343.075 272.656C343.629 273.265 344.407 273.667 345.292 273.723C347.098 273.837 348.654 272.463 348.769 270.656C348.816 269.904 348.604 269.197 348.209 268.619L380.291 242.329C380.837 242.884 381.579 243.247 382.416 243.3C384.222 243.414 385.778 242.04 385.892 240.233C385.905 240.042 385.896 239.854 385.877 239.672L460.073 223.013C460.493 224.224 461.606 225.124 462.965 225.21C463.988 225.273 464.931 224.861 465.578 224.161L507.583 255.134C507.3 255.583 507.123 256.108 507.085 256.675C506.971 258.481 508.345 260.037 510.152 260.151C511.959 260.263 513.514 258.891 513.628 257.085C513.628 257.071 513.628 257.058 513.63 257.045L553.391 251.534L574.408 248.62C574.819 249.85 575.938 250.773 577.313 250.86C579.12 250.974 580.675 249.6 580.79 247.793C580.877 246.388 580.068 245.139 578.855 244.597L588.85 198.94C588.895 198.944 588.941 198.952 588.99 198.955C590.796 199.069 592.352 197.695 592.466 195.888C592.581 194.082 591.206 192.526 589.4 192.412C588.972 192.386 588.557 192.443 588.174 192.571L572.809 151.865C573.834 151.365 574.57 150.346 574.645 149.125C574.759 147.319 573.385 145.763 571.578 145.649ZM575.887 244.746C574.965 245.277 574.318 246.241 574.247 247.383C574.234 247.604 574.244 247.819 574.27 248.028L550.439 251.333L513.605 256.44C513.563 256.123 513.473 255.82 513.345 255.537L561.862 217.729L575.884 244.745L575.887 244.746ZM342.781 268.619L315.616 253.735L334.335 214.185C334.624 214.29 334.932 214.36 335.253 214.379C335.405 214.39 335.555 214.383 335.704 214.373L344.652 267.284C343.882 267.49 343.218 267.968 342.781 268.619ZM287.326 312.089C287.038 311.985 286.73 311.915 286.409 311.895C286.22 311.884 286.04 311.89 285.861 311.91L269.753 231.577C270.483 231.36 271.11 230.895 271.53 230.273L314.827 253.995L287.329 312.091L287.326 312.089ZM-1.16446 205.015L25.5389 233.032L-1.49532 212.527C-1.21777 212.082 -1.04517 211.561 -1.0064 210.999C-0.927252 209.733 -1.57837 208.595 -2.59275 207.985L-1.16446 205.015ZM-38.584 162.088C-38.557 161.637 -38.6217 161.202 -38.7613 160.8L33.5826 127.736C33.8612 128.22 34.2595 128.626 34.7398 128.913L-1.33002 203.96L-39.3864 164.031C-38.9283 163.507 -38.6313 162.834 -38.5827 162.085L-38.584 162.088ZM324.314 92.3982C324.65 92.5583 325.015 92.662 325.404 92.7028L324.948 146.835C323.354 146.967 322.054 148.251 321.952 149.896L289.2 150.896L324.314 92.3982ZM586.247 194.24C586.218 194.303 586.187 194.369 586.163 194.435L542.932 175.634C543.017 175.374 543.073 175.103 543.092 174.818C543.141 174.069 542.928 173.366 542.54 172.787L549.941 166.76L586.247 194.24ZM469.188 156.175L455.438 152.648C455.455 152.546 455.467 152.441 455.474 152.334C455.515 151.665 455.353 151.032 455.043 150.494L463.665 144.411L535.393 173.164L469.188 156.175ZM455.288 153.232L503.372 165.571L536.585 174.094C536.568 174.196 536.556 174.301 536.549 174.408C536.511 175.004 536.638 175.571 536.888 176.072L484.12 208.698L454.058 154.832C454.619 154.446 455.055 153.891 455.29 153.236L455.288 153.232ZM542.158 172.319C541.61 171.76 540.866 171.393 540.026 171.341C539.212 171.289 538.45 171.541 537.847 171.998L495.481 125.536L549.445 166.385L542.156 172.321L542.158 172.319ZM492.84 126.581C493.654 126.634 494.416 126.381 495.019 125.925L537.4 172.404C537.207 172.618 537.039 172.856 536.905 173.115L464.258 143.993L490.556 125.436C491.114 126.087 491.92 126.523 492.842 126.579L492.84 126.581ZM490.205 124.945L463.587 143.727L449.517 138.087C449.585 137.855 449.632 137.61 449.648 137.361C449.666 137.072 449.644 136.791 449.59 136.519L490.006 124.532C490.063 124.675 490.128 124.816 490.206 124.949L490.205 124.945ZM447.841 140.084C448.461 139.772 448.974 139.273 449.291 138.65L462.996 144.143L454.695 150.001C454.137 149.35 453.332 148.915 452.41 148.859C452.028 148.834 451.655 148.881 451.305 148.981L447.841 140.084ZM449.945 154.503L424.189 187.146L409.534 174.189C409.892 173.701 410.121 173.11 410.164 172.459C410.191 172.021 410.128 171.598 409.997 171.206L449.344 153.729C449.505 154.015 449.707 154.276 449.945 154.503ZM383.63 236.915C383.375 236.832 383.104 236.776 382.822 236.758C382.27 236.725 381.745 236.827 381.276 237.039L357.28 199.584L404.169 174.081C404.502 174.577 404.964 174.976 405.513 175.232L383.629 236.918L383.63 236.915ZM134.477 276.786L105.781 256.951C106.04 256.518 106.206 256.018 106.237 255.478C106.253 255.215 106.235 254.96 106.192 254.709L117.933 250.071L134.881 276.347C134.732 276.481 134.597 276.629 134.472 276.788L134.477 276.786ZM21.8564 366.058C21.7736 365.011 21.1948 364.09 20.342 363.549L30.2174 344.118L65.2278 365.462C65.0787 365.803 64.9819 366.175 64.9561 366.567L21.8577 366.055L21.8564 366.058ZM65.5179 364.932L30.4896 343.577L61.2156 283.127C61.529 283.249 61.8655 283.329 62.2195 283.351C62.2588 283.353 62.2993 283.351 62.3386 283.353L67.6556 363.549C66.7745 363.705 66.01 364.214 65.5192 364.93L65.5179 364.932ZM325.014 153.374C325.166 153.384 325.312 153.379 325.461 153.368L334.618 207.943C333.716 208.181 332.959 208.796 332.537 209.621L294.513 194.447L323.595 152.945C324.017 153.186 324.496 153.339 325.014 153.374ZM332.314 210.185C332.246 210.417 332.201 210.656 332.184 210.908C332.167 211.167 332.186 211.42 332.228 211.667L272.019 227.799C271.96 227.505 271.863 227.226 271.73 226.967L294.156 194.962L332.313 210.187L332.314 210.185ZM271.378 226.412C271.114 226.082 270.791 225.801 270.421 225.592L269.247 191.013L269.133 187.664C270.2 187.53 271.117 186.883 271.614 185.959L293.582 194.724L271.38 226.406L271.378 226.412ZM268.519 187.685C268.519 187.685 268.522 187.686 268.524 187.687L268.639 191.022L269.803 225.327C269.553 225.247 269.288 225.194 269.013 225.175C268.558 225.147 268.12 225.213 267.718 225.353L248.762 204.207L266.623 186.931C267.14 187.362 267.794 187.644 268.518 187.687L268.519 187.685ZM323.099 152.597L293.935 194.218L271.846 185.403C271.926 185.153 271.979 184.891 271.996 184.618C272.03 184.05 271.919 183.507 271.693 183.025L322.588 152.055C322.735 152.254 322.908 152.435 323.099 152.597ZM205.754 155.192L265.624 183.36C265.533 183.628 265.473 183.914 265.452 184.208C265.399 185.075 265.688 185.88 266.2 186.5L248.359 203.752L205.334 155.757C205.494 155.585 205.632 155.395 205.751 155.19L205.754 155.192ZM247.925 204.174L227.169 224.25C226.669 223.867 226.058 223.625 225.382 223.584C225.119 223.568 224.861 223.585 224.613 223.63L212.202 182.905L204.174 156.562C204.429 156.457 204.668 156.325 204.884 156.162L247.925 204.174ZM38.881 128.274L63.0062 146.261L77.917 157.381C77.6475 157.823 77.4773 158.331 77.4423 158.886C77.3732 159.972 77.8457 160.963 78.6228 161.61L69.4567 174.994L38.529 128.62C38.656 128.513 38.7734 128.397 38.8837 128.275L38.881 128.274ZM141.196 237.624L95.7204 211.794C95.8773 211.443 95.9833 211.059 96.006 210.652C96.0491 209.951 95.8672 209.289 95.523 208.731L109.814 196.628L141.626 237.124C141.465 237.276 141.32 237.445 141.192 237.626L141.196 237.624ZM95.1618 208.245C94.6078 207.636 93.8291 207.23 92.9395 207.175C92.7158 207.161 92.4981 207.17 92.2836 207.2L81.7498 162.2C82.0114 162.111 82.2585 161.989 82.4873 161.842L109.441 196.153L95.1605 208.248L95.1618 208.245ZM79.1208 161.952C79.5346 162.182 80.003 162.33 80.5088 162.362C80.7298 162.375 80.9503 162.368 81.1607 162.339L84.9165 178.414L91.6757 207.344C91.5013 207.403 91.3355 207.479 91.1754 207.565L69.8154 175.535L79.1193 161.948L79.1208 161.952ZM90.6743 207.902C89.9869 208.46 89.5235 209.289 89.463 210.242C89.4397 210.628 89.4864 211.001 89.5867 211.351L31.2833 234.088C31.0786 233.683 30.794 233.326 30.445 233.037L69.4484 176.079L90.673 207.905L90.6743 207.902ZM31.6267 235.758C31.65 235.371 31.6032 234.999 31.503 234.648L89.8064 211.911C90.1014 212.503 90.5737 212.994 91.1552 213.315L76.1155 247.866L31.5871 236.093C31.6057 235.982 31.6176 235.87 31.6239 235.756L31.6267 235.758ZM91.71 213.557C91.9709 213.642 92.2446 213.699 92.5294 213.718C92.6163 213.726 92.7014 213.722 92.7853 213.721L102.086 252.123C101.075 252.407 100.253 253.161 99.8884 254.15L76.7072 248.022L91.71 213.557ZM103.169 252.004C103.004 251.994 102.84 252.001 102.681 252.013L93.3913 213.653C93.6942 213.591 93.9797 213.487 94.248 213.348L117.601 249.552L106.035 254.122C105.596 252.952 104.501 252.084 103.174 252.003L103.169 252.004ZM94.7548 213.02C94.9643 212.857 95.1554 212.669 95.3203 212.459L140.893 238.16C140.737 238.508 140.636 238.889 140.611 239.294C140.586 239.684 140.634 240.06 140.739 240.416L118.176 249.329L94.7576 213.021L94.7548 213.02ZM221.907 226.648C221.904 226.697 221.906 226.744 221.906 226.794L177.603 233.834L147.061 238.686C146.888 238.011 146.504 237.418 145.98 236.98L179.045 188.842L222.603 224.826C222.204 225.331 221.949 225.956 221.907 226.648ZM143.784 236.22C143.168 236.237 142.596 236.427 142.107 236.744L110.28 196.23L146.356 165.676C146.831 166.141 147.447 166.465 148.144 166.576L143.784 236.22ZM145.963 165.216L109.904 195.755L82.9643 161.464C83.4777 160.979 83.8363 160.331 83.9502 159.593L145.373 163.438C145.391 164.094 145.606 164.708 145.963 165.216ZM80.9174 155.815C79.8787 155.751 78.9252 156.178 78.2773 156.894L67.4072 148.787L39.2399 127.783C39.3071 127.668 39.3702 127.547 39.425 127.422L91.2601 144.619L83.9644 158.675C83.7709 157.142 82.5163 155.916 80.9174 155.815ZM36.5531 129.385C37.0873 129.364 37.5881 129.213 38.0308 128.966L69.0883 175.533L29.9482 232.691C29.6279 232.512 29.2765 232.385 28.8997 232.319L36.5531 129.385ZM31.4325 236.676L75.8749 248.425L63.4489 276.97C63.1881 276.885 62.9144 276.827 62.6296 276.808C61.9163 276.762 61.2432 276.953 60.6843 277.306L30.578 237.956C30.9543 237.608 31.2511 237.172 31.4325 236.676ZM64.0038 277.212L76.4654 248.583L99.7325 254.735C99.7139 254.847 99.702 254.958 99.6956 255.072C99.6576 255.662 99.7826 256.224 100.028 256.723L65.0508 278.124C64.774 277.751 64.4176 277.441 64.0053 277.216L64.0038 277.212ZM135.371 275.985L118.509 249.846L140.961 240.977C141.372 241.786 142.105 242.405 143.007 242.655L137.084 275.505C136.46 275.504 135.872 275.677 135.372 275.982L135.371 275.985ZM137.688 275.563L143.602 242.759C143.628 242.761 143.653 242.766 143.679 242.768C145.485 242.883 147.041 241.508 147.155 239.702C147.163 239.562 147.162 239.421 147.153 239.283L215.47 228.431L221.951 227.399C221.988 227.62 222.048 227.835 222.127 228.039L139.638 276.736C139.159 276.138 138.479 275.708 137.687 275.559L137.688 275.563ZM227.614 224.662L248.332 204.627L267.153 225.62C266.291 226.13 265.68 227.024 265.56 228.083L228.429 226.424C228.34 225.755 228.049 225.148 227.616 224.666L227.614 224.662ZM335.665 207.84C335.513 207.83 335.367 207.835 335.218 207.846L326.061 153.271C326.293 153.209 326.517 153.123 326.725 153.013L356.42 199.366L338.178 209.289C337.627 208.472 336.721 207.909 335.661 207.842L335.665 207.84ZM403.621 172.056C403.587 172.588 403.688 173.095 403.884 173.554L356.958 199.079L327.237 152.687C327.709 152.32 328.08 151.825 328.295 151.251L403.664 171.699C403.643 171.816 403.627 171.935 403.621 172.056ZM321.971 150.506C322.018 150.871 322.122 151.22 322.28 151.541L271.395 182.505C271.195 182.225 270.949 181.98 270.668 181.772L288.831 151.515L321.972 150.503L321.971 150.506ZM270.148 181.463C269.778 181.284 269.369 181.173 268.932 181.143C267.634 181.062 266.47 181.748 265.872 182.808L206.012 154.644C206.083 154.45 206.137 154.248 206.169 154.036L288.107 151.535L270.144 181.458L270.148 181.463ZM202.729 156.803C203.027 156.822 203.316 156.796 203.594 156.738L224.029 223.788C223.656 223.928 223.314 224.132 223.021 224.389L179.387 188.344L201.336 156.39C201.751 156.624 202.22 156.769 202.729 156.803ZM178.577 188.457L145.482 236.638C145.151 236.453 144.786 236.32 144.39 236.259L148.75 166.615C149.613 166.59 150.396 166.228 150.973 165.649L178.578 188.454L178.577 188.457ZM145.414 162.836L84.4706 159.021L91.8463 144.815L145.463 162.602C145.443 162.68 145.428 162.756 145.414 162.836ZM39.6151 126.85C39.6563 126.675 39.6854 126.498 39.6979 126.314C39.7105 126.13 39.7015 125.948 39.6844 125.77L108.109 112.166L91.5459 144.077L39.6178 126.851L39.6151 126.85ZM35.2846 129.184C35.4528 129.246 35.6301 129.295 35.8111 129.329L35.9378 129.509L28.2975 232.279C27.5574 232.291 26.8741 232.553 26.3255 232.985L-0.885124 204.438L35.2806 129.186L35.2846 129.184ZM-25.3785 247.742L-5.65521 213.772C-5.29595 213.94 -4.90179 214.047 -4.48279 214.072C-4.21425 214.09 -3.95358 214.068 -3.69894 214.023L3.97495 241.751L-24.2008 249.276C-24.429 248.655 -24.8415 248.122 -25.3758 247.743L-25.3785 247.742ZM-3.11585 213.861C-2.63348 213.679 -2.20288 213.385 -1.86115 213.011L25.5726 233.819C25.295 234.264 25.1224 234.785 25.0836 235.348C25.0664 235.607 25.0854 235.859 25.1259 236.102L4.55823 241.596L-3.11585 213.861ZM25.2813 236.685C25.5912 237.524 26.2325 238.204 27.0585 238.559L15.1623 275.147C14.9523 275.089 14.7293 275.052 14.5028 275.036C14.2695 275.021 14.0397 275.034 13.8173 275.067L4.71488 242.176L25.2785 236.684L25.2813 236.685ZM15.73 275.361L26.0213 243.704L17.5495 277.889C17.4069 276.784 16.7096 275.838 15.73 275.361ZM27.8622 238.79C27.956 238.804 28.051 238.815 28.1474 238.823C28.8607 238.868 29.5337 238.678 30.0926 238.324L60.1989 277.674C59.6007 278.227 59.2036 279 59.149 279.876C59.0997 280.647 59.3253 281.374 59.7393 281.961L7.61717 326.204C7.26591 325.883 6.83954 325.638 6.36987 325.492L27.8607 238.786L27.8622 238.79ZM60.1323 282.421C60.2978 282.582 60.4764 282.728 60.6748 282.854L29.972 343.262L8.34716 330.08C8.53442 329.7 8.65294 329.281 8.67986 328.83C8.73209 328.016 8.4785 327.257 8.02478 326.654L60.131 282.424L60.1323 282.421ZM8.02813 330.592L29.6943 343.8L19.7957 363.274C19.4824 363.151 19.1458 363.071 18.7919 363.049C18.4447 363.028 18.1086 363.061 17.7872 363.142L6.69342 331.636C7.22331 331.409 7.68186 331.049 8.02539 330.591L8.02813 330.592ZM18.3845 369.594C20.1461 369.704 21.6646 368.402 21.8445 366.663L64.7669 367.173L-32.014 383.326L15.5828 367.633C16.0594 368.723 17.1113 369.518 18.3805 369.595L18.3845 369.594ZM-32.5836 384.476C-32.5742 384.327 -32.5782 384.179 -32.5904 384.033L65.088 367.73C65.2322 368.201 65.4795 368.631 65.8074 368.987L36.2412 400.487L-32.6126 384.703C-32.6039 384.627 -32.5924 384.553 -32.5864 384.475L-32.5836 384.476ZM68.4286 363.502C68.3703 363.498 68.3122 363.501 68.2553 363.501L62.9401 283.316C63.92 283.162 64.762 282.567 65.251 281.733L90.7036 293.602L68.9016 363.569C68.7464 363.537 68.5913 363.511 68.4286 363.502ZM65.5067 281.184C65.6087 280.901 65.6749 280.602 65.6933 280.283C65.7313 279.693 65.6063 279.131 65.3612 278.633L100.338 257.231C100.685 257.697 101.157 258.067 101.702 258.295L90.8838 293.015L65.5053 281.18L65.5067 281.184ZM102.285 258.476C102.44 258.509 102.598 258.535 102.761 258.545C103.481 258.59 104.159 258.395 104.723 258.037L153.707 321.295C153.476 321.511 153.277 321.758 153.114 322.036L91.442 293.278L102.288 258.478L102.285 258.476ZM154.184 320.923L105.203 257.667C105.28 257.596 105.355 257.521 105.423 257.439L134.155 277.297C133.958 277.683 133.837 278.114 133.808 278.571C133.696 280.379 135.068 281.933 136.874 282.048C137.289 282.074 137.69 282.017 138.062 281.9L154.397 320.795C154.322 320.834 154.252 320.878 154.181 320.921L154.184 320.923ZM139.97 277.241L222.396 228.579C222.935 229.448 223.875 230.053 224.975 230.122C225.468 230.152 225.944 230.07 226.378 229.898L249.139 275.091C248.291 275.62 247.7 276.53 247.613 277.598L140.356 278.676C140.341 278.158 140.204 277.671 139.972 277.238L139.97 277.241ZM251.077 274.599C250.584 274.57 250.108 274.652 249.676 274.82L227.416 230.622L253.825 268.843L251.7 274.696C251.501 274.643 251.29 274.608 251.076 274.595L251.077 274.599ZM227.283 229.362C227.947 228.803 228.393 227.99 228.451 227.055C228.453 227.046 228.451 227.035 228.453 227.023L265.548 228.682C265.635 229.877 266.367 230.906 267.417 231.403L254.082 268.148L227.285 229.363L227.283 229.362ZM267.985 231.611C268.184 231.664 268.395 231.698 268.609 231.712C268.795 231.721 268.977 231.716 269.157 231.697L285.264 312.029C285.031 312.101 284.807 312.193 284.595 312.312L254.503 268.758L267.985 231.611ZM271.818 229.742C271.966 229.404 272.06 229.037 272.086 228.645C272.09 228.564 272.088 228.483 272.088 228.403L332.386 212.244C332.647 212.951 333.145 213.544 333.788 213.927L315.083 253.446L271.818 229.742ZM338.402 212.552C338.587 212.178 338.703 211.758 338.73 211.313C338.764 210.781 338.663 210.274 338.467 209.815L356.745 199.872L380.749 237.337C380.487 237.519 380.255 237.738 380.056 237.986L338.401 212.548L338.402 212.552ZM384.189 237.155L406.087 175.433C406.28 175.483 406.481 175.517 406.686 175.529C407.627 175.587 408.496 175.241 409.133 174.643L423.814 187.622L384.553 237.385C384.436 237.3 384.314 237.224 384.187 237.154L384.189 237.155ZM424.646 187.549L450.421 154.879C450.88 155.176 451.416 155.366 452 155.402C452.14 155.41 452.275 155.406 452.411 155.4L460.352 206.019L462.353 218.768C461.795 218.912 461.293 219.202 460.891 219.592L424.649 187.551L424.646 187.549ZM463.375 218.667C463.233 218.657 463.091 218.661 462.949 218.672L453.009 155.308C453.19 155.262 453.362 155.202 453.53 155.127L483.605 209.016L465.82 220.011C465.265 219.248 464.388 218.729 463.375 218.667ZM484.415 209.226L537.207 176.584C537.531 177.013 537.958 177.358 538.455 177.587L511.634 253.864C511.303 253.723 510.944 253.633 510.565 253.609C510.117 253.581 509.683 253.646 509.285 253.784L484.419 209.225L484.415 209.226ZM513.042 255.005C512.807 254.672 512.512 254.381 512.17 254.154L539.023 177.788C539.214 177.837 539.412 177.87 539.614 177.88C540.124 177.911 540.609 177.823 541.053 177.643L561.576 217.182L513.039 255.004L513.042 255.005ZM541.593 177.367C542.05 177.073 542.428 176.672 542.692 176.191L585.985 195.016C585.954 195.169 585.93 195.321 585.919 195.48C585.868 196.307 586.128 197.079 586.6 197.687L562.066 216.806L541.593 177.367ZM586.569 193.722L550.429 166.366L569.036 151.214C569.584 151.773 570.327 152.14 571.168 152.192C571.541 152.215 571.901 152.173 572.243 152.078L587.617 192.812C587.208 193.039 586.851 193.346 586.569 193.722ZM568.181 148.195C568.142 148.363 568.114 148.537 568.102 148.715C568.053 149.464 568.266 150.167 568.654 150.746L549.933 165.991L495.833 125.039C495.916 124.904 495.991 124.758 496.053 124.611L568.181 148.195ZM444.14 139.55C444.678 140.051 445.384 140.377 446.174 140.429C446.557 140.453 446.929 140.407 447.28 140.306L450.744 149.203C449.734 149.707 449.012 150.719 448.936 151.926C448.909 152.364 448.972 152.788 449.103 153.179L409.756 170.656C409.691 170.539 409.617 170.425 409.538 170.315L444.144 139.549L444.14 139.55ZM404.397 170.141C404.155 170.425 403.959 170.751 403.824 171.112L328.455 150.664C328.476 150.547 328.491 150.428 328.498 150.307C328.609 148.543 327.299 147.02 325.555 146.845L326.01 92.712C326.684 92.6557 327.303 92.3964 327.803 91.9888L404.396 170.144L404.397 170.141ZM323.009 91.2588C323.22 91.5779 323.489 91.8603 323.8 92.0887L288.484 150.92L207.485 153.391L323.01 91.2561L323.009 91.2588ZM199.783 154.407C199.962 155.055 200.337 155.624 200.842 156.046L178.924 187.954L151.361 165.182C151.681 164.71 151.888 164.152 151.926 163.542C151.936 163.377 151.93 163.217 151.915 163.056L199.78 154.406L199.783 154.407ZM146.418 160.947C146.097 161.248 145.837 161.614 145.656 162.024L92.1318 144.267L108.723 112.303L146.419 160.944L146.418 160.947ZM6.48732 87.1058C6.90657 86.7437 7.2362 86.2731 7.4287 85.7385L107.315 111.706L39.5667 125.178C39.1852 123.898 38.0418 122.928 36.6315 122.837C35.1845 122.747 33.9044 123.609 33.3882 124.881L6.4833 87.1072L6.48732 87.1058ZM-38.1464 166.212L-1.60772 204.548L-3.13466 207.722C-3.42736 207.613 -3.74198 207.543 -4.07012 207.523C-4.78344 207.478 -5.46049 207.67 -6.02342 208.025L-38.1491 166.211L-38.1464 166.212ZM-24.3965 251.973C-24.1735 251.566 -24.0317 251.104 -24.0019 250.611C-23.9846 250.352 -24.005 250.102 -24.0442 249.856L4.13836 242.331L13.2363 275.21C12.6556 275.41 12.1497 275.772 11.7645 276.24L-24.3965 251.973ZM14.159 281.58C15.3138 281.631 16.36 281.077 16.9829 280.193L7.31841 319.183L14.1577 281.583L14.159 281.58ZM-35.0609 387.455C-33.9703 387.185 -33.0883 386.368 -32.7346 385.294L35.7731 400.997L-21.7005 462.23C-22.2026 461.838 -22.824 461.589 -23.5075 461.544C-23.6404 461.535 -23.7717 461.538 -23.8987 461.545L-35.0596 387.452L-35.0609 387.455ZM-20.972 463.03C-21.0596 462.896 -21.1552 462.764 -21.2627 462.644L36.453 401.157L75.7495 410.166C75.7416 410.226 75.7338 410.286 75.7287 410.347C75.6917 410.927 75.8111 411.48 76.0465 411.971L-20.972 463.03ZM78.0823 407.404C77.0388 407.709 76.204 408.518 75.8767 409.571L36.9359 400.644L66.268 369.396C66.7628 369.767 67.3663 370.005 68.028 370.046C68.2423 370.059 68.4532 370.051 68.6596 370.023L78.0823 407.404ZM71.0769 365.147C70.72 364.524 70.1636 364.027 69.4886 363.749L91.267 293.861L152.865 322.585C152.763 322.868 152.697 323.167 152.678 323.486C152.65 323.97 152.727 324.434 152.889 324.86L71.0796 365.149L71.0769 365.147ZM254.151 278.076C254.236 276.697 253.455 275.464 252.276 274.908L254.254 269.456L283.72 312.104L253.34 280.028C253.802 279.503 254.104 278.828 254.149 278.072L254.151 278.076ZM288.628 312.964C288.409 312.724 288.156 312.516 287.875 312.352L315.359 254.286L342.492 269.152C342.344 269.49 342.249 269.86 342.224 270.249C342.18 270.953 342.363 271.619 342.711 272.176L288.628 312.964ZM347.827 268.151C347.281 267.596 346.539 267.233 345.702 267.18C345.55 267.169 345.4 267.176 345.252 267.187L336.303 214.275C337.024 214.083 337.648 213.653 338.089 213.067L379.729 238.494C379.516 238.893 379.38 239.343 379.352 239.824C379.305 240.577 379.517 241.283 379.911 241.861L347.83 268.152L347.827 268.151ZM385.757 239.078C385.609 238.592 385.351 238.151 385.009 237.788L424.27 188.025L460.493 220.051C460.153 220.53 459.934 221.106 459.897 221.736C459.884 221.973 459.894 222.202 459.929 222.428L385.754 239.084L385.757 239.078ZM465.948 223.683C466.231 223.234 466.408 222.709 466.446 222.142C466.481 221.564 466.366 221.017 466.132 220.53L483.902 209.545L508.731 254.04C508.443 254.206 508.18 254.414 507.956 254.657L465.948 223.683ZM578.278 244.402C578.098 244.358 577.915 244.329 577.723 244.317C577.273 244.287 576.839 244.352 576.437 244.491L562.349 217.352L587.014 198.13C587.365 198.444 587.787 198.684 588.254 198.822L578.275 244.4L578.278 244.402Z" fill="#EE81B0"/>
<path d="M359.198 304.96C359.198 304.96 352.614 329.862 350.228 339.939C345.629 359.335 352.921 422.9 352.921 422.9L436.774 377.609L433.189 305.86C433.189 305.86 415.7 293.306 402.246 287.028C388.792 280.751 359.198 304.967 359.198 304.967V304.96Z" fill="#DF8711"/>
<path d="M281.621 378.955C281.621 387.125 258.583 393.752 230.168 393.752C201.752 393.752 178.714 387.125 178.714 378.955V371.557H281.964L281.628 378.955H281.621Z" fill="#07C198"/>
<path d="M259.577 178.704C259.577 173.348 255.236 169 249.873 169H19.704C14.3476 169 10 173.341 10 178.704V185.062H259.577V178.704Z" fill="#8FC6D7"/>
<path d="M10 185.063V341.969C10 347.325 14.3405 351.673 19.704 351.673H249.88C255.236 351.673 259.584 347.332 259.584 341.969V185.063H10Z" fill="#3F97B1"/>
<path d="M249.872 352.424H19.7032C19.2841 352.424 18.9431 352.083 18.9431 351.663C18.9431 351.244 19.2841 350.903 19.7032 350.903H249.879C254.809 350.903 258.823 346.89 258.823 341.959V185.061C258.823 184.642 259.164 184.301 259.583 184.301C260.002 184.301 260.343 184.642 260.343 185.061V341.966C260.343 347.735 255.647 352.424 249.886 352.424H249.872Z" fill="#0151A1"/>
<path d="M231.366 338.287H35.986C31.5531 338.287 27.9585 334.692 27.9585 330.259C27.9585 325.826 31.5531 322.232 35.986 322.232H231.366C235.799 322.232 239.394 325.826 239.394 330.259C239.394 334.692 235.799 338.287 231.366 338.287Z" fill="white"/>
<path d="M54.5774 335.919C53.5047 335.919 52.503 335.677 51.7997 335.066C51.48 334.789 51.2669 334.484 51.139 334.164C50.4357 334.434 49.6898 334.675 48.9155 334.881C48.0204 335.116 46.8411 335.357 45.7045 335.123C44.5039 334.874 43.6657 334.164 43.2252 333.311C41.2361 334.199 38.9913 334.796 36.654 335.016L36.583 334.263C38.8279 334.05 41.0159 333.468 42.9553 332.594C42.8629 332.224 42.8487 331.841 42.8984 331.486C43.1187 330.015 44.2411 328.758 45.2285 327.657C46.0597 326.726 47.381 325.916 48.5674 326.413C49.1286 326.655 49.3275 327.046 49.3915 327.337C49.5264 327.912 49.2849 328.651 48.7379 329.305C47.5018 330.775 45.8395 332.033 43.9072 332.999C44.2553 333.645 44.9089 334.192 45.8537 334.391C46.8411 334.597 47.9067 334.377 48.7237 334.157C49.5193 333.951 50.2724 333.702 50.9827 333.425C50.933 332.118 51.9063 330.768 52.3112 330.214C52.8937 329.411 53.5544 328.502 54.5703 327.834C55.1457 327.458 57.3763 326.57 58.1222 327.323C58.4987 327.699 58.4135 328.296 57.8736 329.099C56.5167 331.123 54.4637 332.75 51.8423 333.887C51.9347 334.121 52.0839 334.327 52.297 334.505C53.4407 335.492 55.8277 335.279 57.5965 334.555C58.4987 334.185 59.337 333.723 60.0829 333.191C59.1381 331.812 59.2091 330.029 60.2747 328.495C60.5092 328.161 60.8928 327.692 61.5535 327.536C62.5125 327.316 63.4857 327.898 63.7628 328.573C64.0612 329.298 63.7415 330.044 63.4786 330.548C62.9387 331.564 62.1573 332.502 61.1769 333.311C62.2638 334.32 64.1464 334.832 65.7377 334.484L65.894 335.222C64.0043 335.641 61.8234 335.016 60.566 333.78C59.7704 334.356 58.861 334.853 57.8736 335.258C56.8861 335.663 55.6927 335.926 54.5703 335.933L54.5774 335.919ZM57.2413 327.763C56.6659 327.763 55.5648 328.076 54.9823 328.452C54.0801 329.042 53.4904 329.859 52.9221 330.64C52.2117 331.621 51.821 332.423 51.75 333.084C54.1369 332.011 56.0053 330.512 57.2484 328.665C57.6321 328.097 57.6108 327.87 57.5823 327.841C57.5255 327.784 57.4047 327.763 57.2413 327.763ZM61.9655 328.239C61.8802 328.239 61.8021 328.246 61.7239 328.268C61.4114 328.346 61.1556 328.545 60.8928 328.921C60.019 330.179 59.9408 331.614 60.6797 332.722C61.589 331.969 62.3207 331.102 62.8109 330.186C63.1234 329.603 63.2016 329.191 63.0595 328.857C62.9245 328.538 62.4486 328.239 61.9655 328.239ZM47.7931 327.017C47.0756 327.017 46.3012 327.586 45.7826 328.161C44.8662 329.184 43.8219 330.349 43.6372 331.599C43.6088 331.812 43.6088 332.04 43.6444 332.26C45.4559 331.344 47.0187 330.171 48.1483 328.822C48.5248 328.367 48.7237 327.841 48.6455 327.515C48.6029 327.337 48.475 327.209 48.2619 327.117C48.1127 327.053 47.9494 327.024 47.786 327.024L47.7931 327.017Z" fill="#B4185C"/>
<path d="M210.681 335.919C209.608 335.919 208.607 335.677 207.903 335.066C207.584 334.789 207.37 334.484 207.243 334.164C206.539 334.434 205.793 334.675 205.019 334.881C204.124 335.116 202.945 335.357 201.808 335.123C200.607 334.874 199.769 334.164 199.329 333.311C197.34 334.199 195.095 334.796 192.758 335.016L192.687 334.263C194.931 334.05 197.119 333.468 199.059 332.594C198.966 332.224 198.952 331.841 199.002 331.486C199.222 330.015 200.345 328.758 201.332 327.657C202.163 326.726 203.477 325.916 204.671 326.413C205.232 326.655 205.431 327.046 205.495 327.337C205.63 327.912 205.388 328.651 204.841 329.305C203.605 330.775 201.943 332.033 200.011 332.999C200.359 333.645 201.012 334.192 201.957 334.391C202.945 334.597 204.01 334.377 204.827 334.157C205.623 333.951 206.376 333.702 207.086 333.425C207.037 332.118 208.01 330.768 208.415 330.214C208.997 329.411 209.651 328.502 210.674 327.834C211.249 327.458 213.48 326.57 214.226 327.323C214.602 327.699 214.517 328.296 213.977 329.099C212.62 331.123 210.567 332.75 207.946 333.887C208.038 334.121 208.187 334.327 208.4 334.505C209.544 335.492 211.931 335.279 213.7 334.555C214.602 334.185 215.441 333.723 216.186 333.191C215.242 331.812 215.313 330.029 216.378 328.495C216.613 328.161 216.996 327.692 217.657 327.536C218.616 327.316 219.589 327.898 219.866 328.573C220.165 329.298 219.852 330.044 219.582 330.548C219.042 331.564 218.254 332.502 217.28 333.311C218.367 334.32 220.25 334.832 221.841 334.484L221.997 335.222C220.108 335.641 217.927 335.016 216.67 333.78C215.874 334.356 214.965 334.853 213.977 335.258C212.997 335.663 211.796 335.926 210.674 335.933L210.681 335.919ZM213.345 327.763C212.769 327.763 211.668 328.076 211.086 328.452C210.184 329.042 209.594 329.859 209.026 330.64C208.315 331.621 207.925 332.423 207.853 333.084C210.24 332.011 212.109 330.512 213.345 328.665C213.728 328.097 213.707 327.87 213.679 327.841C213.622 327.784 213.501 327.763 213.338 327.763H213.345ZM218.069 328.239C217.984 328.239 217.906 328.246 217.827 328.268C217.515 328.346 217.259 328.545 216.996 328.921C216.123 330.179 216.044 331.614 216.783 332.722C217.692 331.969 218.424 331.102 218.914 330.186C219.227 329.603 219.305 329.191 219.163 328.857C219.028 328.538 218.552 328.239 218.069 328.239ZM203.897 327.017C203.179 327.017 202.405 327.586 201.886 328.161C200.97 329.184 199.925 330.349 199.741 331.599C199.712 331.812 199.712 332.04 199.748 332.26C201.559 331.344 203.122 330.171 204.252 328.822C204.628 328.367 204.827 327.841 204.749 327.515C204.706 327.337 204.579 327.209 204.365 327.117C204.216 327.053 204.053 327.024 203.889 327.024L203.897 327.017Z" fill="#B4185C"/>
<path d="M132.629 335.919C131.556 335.919 130.555 335.677 129.851 335.066C129.532 334.789 129.319 334.484 129.191 334.164C128.488 334.434 127.742 334.675 126.967 334.881C126.072 335.116 124.893 335.357 123.756 335.123C122.556 334.874 121.717 334.164 121.277 333.311C119.288 334.199 117.043 334.796 114.706 335.016L114.635 334.263C116.88 334.05 119.068 333.468 121.007 332.594C120.915 332.224 120.9 331.841 120.95 331.486C121.17 330.015 122.293 328.758 123.28 327.657C124.111 326.726 125.433 325.916 126.619 326.413C127.18 326.655 127.379 327.046 127.443 327.337C127.578 327.912 127.337 328.651 126.79 329.305C125.554 330.775 123.891 332.033 121.959 332.999C122.307 333.645 122.961 334.192 123.905 334.391C124.893 334.597 125.958 334.377 126.775 334.157C127.571 333.951 128.324 333.702 129.035 333.425C128.985 332.118 129.958 330.768 130.363 330.214C130.945 329.411 131.599 328.502 132.622 327.834C133.197 327.458 135.428 326.57 136.174 327.323C136.551 327.699 136.465 328.296 135.925 329.099C134.568 331.123 132.515 332.75 129.894 333.887C129.986 334.121 130.136 334.327 130.349 334.505C131.492 335.492 133.879 335.279 135.648 334.555C136.551 334.185 137.389 333.723 138.135 333.191C137.19 331.812 137.261 330.029 138.326 328.495C138.561 328.161 138.945 327.692 139.605 327.536C140.557 327.316 141.537 327.898 141.815 328.573C142.113 329.298 141.8 330.044 141.53 330.548C140.99 331.564 140.202 332.502 139.229 333.311C140.316 334.32 142.198 334.832 143.789 334.484L143.946 335.222C142.056 335.641 139.875 335.016 138.618 333.78C137.822 334.356 136.913 334.853 135.925 335.258C134.945 335.663 133.744 335.926 132.622 335.933L132.629 335.919ZM135.293 327.763C134.718 327.763 133.617 328.076 133.034 328.452C132.132 329.042 131.542 329.859 130.974 330.64C130.263 331.621 129.873 332.423 129.802 333.084C132.189 332.011 134.057 330.512 135.293 328.665C135.677 328.097 135.655 327.87 135.627 327.841C135.57 327.784 135.449 327.763 135.286 327.763H135.293ZM140.017 328.239C139.932 328.239 139.854 328.246 139.776 328.268C139.463 328.346 139.207 328.545 138.945 328.921C138.071 330.179 137.993 331.614 138.731 332.722C139.641 331.969 140.372 331.102 140.863 330.186C141.175 329.603 141.253 329.191 141.111 328.857C140.976 328.538 140.5 328.239 140.017 328.239ZM125.845 327.017C125.127 327.017 124.353 327.586 123.834 328.161C122.918 329.184 121.874 330.349 121.689 331.599C121.661 331.812 121.661 332.04 121.696 332.26C123.508 331.344 125.071 330.171 126.2 328.822C126.577 328.367 126.775 327.841 126.697 327.515C126.655 327.337 126.527 327.209 126.314 327.117C126.165 327.053 126.001 327.024 125.838 327.024L125.845 327.017Z" fill="#B4185C"/>
<path d="M179.585 336.181C179.145 336.181 178.719 336.081 178.314 335.854C177.831 335.577 177.49 335.186 177.241 334.738C176.467 335.044 175.607 335.2 174.797 335.2C173.312 335.186 172.027 334.639 171.103 333.644C170.009 334.44 168.943 335.03 168.453 335.243C166.549 336.067 163.836 336.401 162.372 335.186C162.046 334.916 161.825 334.611 161.69 334.298C160.994 334.582 160.255 334.838 159.481 335.058C158.593 335.314 157.421 335.577 156.27 335.371C155.062 335.15 154.21 334.447 153.755 333.616C151.787 334.547 149.557 335.186 147.22 335.449L147.134 334.696C149.379 334.44 151.546 333.808 153.471 332.891C153.372 332.522 153.343 332.146 153.393 331.783C153.585 330.306 154.679 329.034 155.645 327.904C156.462 326.952 157.755 326.107 158.962 326.597C159.524 326.825 159.73 327.215 159.808 327.5C159.957 328.075 159.73 328.814 159.19 329.482C157.989 330.98 156.348 332.266 154.437 333.268C154.799 333.907 155.467 334.447 156.412 334.618C157.407 334.802 158.465 334.561 159.275 334.326C160.064 334.099 160.809 333.843 161.52 333.545C161.442 332.238 162.394 330.874 162.784 330.306C163.353 329.489 163.992 328.565 165.001 327.876C165.569 327.492 167.778 326.548 168.539 327.293C168.922 327.663 168.851 328.267 168.333 329.077C167.018 331.13 164.994 332.792 162.401 333.985C162.5 334.213 162.649 334.419 162.862 334.596C164.028 335.563 166.407 335.3 168.162 334.54C168.716 334.298 169.675 333.751 170.641 333.048C170.613 333.005 170.577 332.955 170.549 332.906C169.739 331.627 169.682 329.957 170.407 328.743C170.826 328.047 171.643 327.535 172.439 327.464C173.028 327.414 173.54 327.613 173.888 328.032C174.335 328.565 174.485 329.183 174.321 329.872C174.051 331.03 172.929 332.209 171.714 333.176C172.495 333.985 173.568 334.426 174.804 334.44C175.536 334.447 176.275 334.305 176.95 334.035C176.729 333.332 176.687 332.565 176.708 331.904C176.729 331.165 177.127 329.297 178.143 328.586C178.555 328.302 179.017 328.224 179.5 328.38C180.246 328.622 180.8 329.41 180.843 330.291C180.871 330.966 180.644 331.677 180.161 332.415C179.614 333.247 178.839 333.929 177.937 334.412C178.115 334.731 178.356 335.001 178.69 335.193C179.891 335.875 181.489 334.98 182.448 333.737C182.782 333.311 183.073 332.849 183.315 332.366C182.626 331.208 181.837 329.276 182.114 328.295C182.505 326.924 183.237 326.931 183.542 326.995C184.416 327.187 185.091 328.622 184.892 329.894C184.764 330.732 184.522 331.549 184.174 332.323C184.253 332.43 184.324 332.529 184.395 332.607C185.624 333.978 187.527 334.703 189.36 334.511L189.438 335.264C187.357 335.47 185.219 334.653 183.826 333.112C183.812 333.097 183.798 333.083 183.791 333.069C183.571 333.46 183.322 333.843 183.038 334.199C182.178 335.314 180.85 336.181 179.578 336.181H179.585ZM179.01 329.055C178.861 329.055 178.719 329.105 178.584 329.204C177.887 329.695 177.497 331.215 177.475 331.925C177.461 332.408 177.482 333.076 177.66 333.701C178.413 333.282 179.067 332.7 179.535 331.996C179.933 331.4 180.118 330.838 180.097 330.327C180.075 329.844 179.784 329.261 179.273 329.098C179.18 329.069 179.095 329.055 179.017 329.055H179.01ZM167.7 327.762C167.132 327.762 166.01 328.103 165.427 328.501C164.539 329.112 163.964 329.936 163.409 330.732C162.72 331.726 162.344 332.543 162.287 333.197C164.653 332.074 166.493 330.54 167.693 328.665C168.063 328.089 168.041 327.855 168.013 327.833C167.963 327.784 167.849 327.762 167.7 327.762ZM172.609 328.217C172.574 328.217 172.538 328.217 172.503 328.217C171.948 328.26 171.352 328.636 171.06 329.126C170.478 330.1 170.528 331.456 171.188 332.494C171.21 332.522 171.224 332.55 171.245 332.579C172.368 331.684 173.369 330.632 173.589 329.688C173.696 329.233 173.604 328.849 173.312 328.508C173.106 328.267 172.829 328.21 172.609 328.21V328.217ZM158.238 327.208C157.513 327.208 156.732 327.805 156.227 328.395C155.332 329.439 154.316 330.625 154.153 331.876C154.125 332.089 154.132 332.316 154.174 332.536C155.972 331.584 157.506 330.384 158.607 329.006C158.977 328.544 159.168 328.018 159.076 327.684C159.048 327.571 158.977 327.407 158.678 327.293C158.536 327.237 158.38 327.208 158.231 327.208H158.238ZM183.35 327.727C183.18 327.727 182.981 328.025 182.846 328.501C182.683 329.077 183.151 330.455 183.698 331.506C183.904 330.945 184.061 330.37 184.153 329.78C184.302 328.814 183.784 327.819 183.386 327.734C183.379 327.734 183.365 327.734 183.357 327.734L183.35 327.727Z" fill="#B4185C"/>
<path d="M101.528 336.181C101.087 336.181 100.661 336.081 100.256 335.854C99.7729 335.577 99.4319 335.186 99.1904 334.738C98.416 335.044 97.592 335.214 96.7466 335.2C95.2619 335.186 93.976 334.639 93.0525 333.644C91.9585 334.44 90.8929 335.03 90.4027 335.243C88.4989 336.067 85.7852 336.401 84.3218 335.186C83.995 334.916 83.7747 334.611 83.6398 334.298C82.9436 334.582 82.2048 334.838 81.4304 335.058C80.5424 335.314 79.3703 335.577 78.2194 335.371C77.0118 335.15 76.1593 334.447 75.7046 333.616C73.7368 334.547 71.5062 335.186 69.169 335.449L69.0837 334.696C71.3286 334.44 73.4953 333.808 75.4205 332.891C75.321 332.522 75.2926 332.146 75.3423 331.783C75.5341 330.306 76.6282 329.034 77.5943 327.904C78.4113 326.952 79.7042 326.107 80.9118 326.597C81.4731 326.825 81.6791 327.215 81.7572 327.5C81.9064 328.075 81.6791 328.814 81.1392 329.482C79.9386 330.98 78.2976 332.266 76.3866 333.268C76.7489 333.907 77.4167 334.447 78.3615 334.618C79.3561 334.802 80.4146 334.561 81.2244 334.326C82.013 334.099 82.7589 333.843 83.4693 333.545C83.3911 332.238 84.3431 330.874 84.7338 330.306C85.295 329.489 85.9343 328.572 86.9502 327.876C87.5185 327.492 89.7279 326.555 90.488 327.293C90.8716 327.663 90.8006 328.267 90.282 329.077C88.9677 331.13 86.9431 332.792 84.3502 333.985C84.4496 334.213 84.5988 334.419 84.8119 334.596C85.977 335.563 88.3568 335.3 90.1115 334.54C90.6656 334.298 91.6246 333.751 92.5908 333.048C92.5624 333.005 92.5268 332.955 92.4984 332.906C91.6886 331.627 91.6317 329.957 92.3563 328.743C92.7755 328.047 93.5924 327.535 94.3881 327.464C94.9706 327.414 95.4892 327.613 95.8373 328.032C96.2848 328.565 96.434 329.183 96.2706 329.872C96.0007 331.03 94.8782 332.209 93.6635 333.176C94.4449 333.985 95.5176 334.426 96.7537 334.44C97.4854 334.447 98.2242 334.305 98.8991 334.035C98.6789 333.332 98.6362 332.565 98.6576 331.904C98.6789 331.165 99.0767 329.297 100.093 328.586C100.505 328.302 100.973 328.224 101.449 328.38C102.195 328.622 102.749 329.41 102.792 330.291C102.82 330.966 102.593 331.677 102.11 332.415C101.563 333.247 100.782 333.929 99.8865 334.412C100.064 334.731 100.306 335.001 100.632 335.193C101.833 335.875 103.431 334.98 104.39 333.737C104.724 333.311 105.016 332.849 105.257 332.366C104.568 331.208 103.78 329.276 104.057 328.295C104.447 326.924 105.186 326.931 105.484 326.995C106.358 327.187 107.033 328.622 106.834 329.894C106.706 330.732 106.465 331.549 106.117 332.323C106.195 332.43 106.266 332.529 106.337 332.607C107.566 333.978 109.47 334.703 111.303 334.511L111.381 335.264C109.306 335.47 107.161 334.653 105.769 333.112C105.754 333.097 105.74 333.083 105.733 333.069C105.513 333.467 105.264 333.843 104.98 334.199C104.12 335.314 102.792 336.181 101.52 336.181H101.528ZM100.952 329.055C100.803 329.055 100.661 329.105 100.526 329.204C99.8297 329.695 99.439 331.215 99.4177 331.925C99.4035 332.408 99.4248 333.076 99.6024 333.701C100.355 333.282 101.009 332.7 101.478 331.996C101.876 331.4 102.06 330.838 102.039 330.327C102.018 329.844 101.726 329.261 101.215 329.098C101.123 329.069 101.037 329.055 100.959 329.055H100.952ZM89.6426 327.762C89.0743 327.762 87.9519 328.103 87.3694 328.501C86.4743 329.112 85.9059 329.936 85.3518 330.732C84.6627 331.726 84.2862 332.543 84.2294 333.197C86.595 332.074 88.4349 330.54 89.6355 328.665C90.0049 328.089 89.9836 327.855 89.9552 327.833C89.9055 327.784 89.7918 327.762 89.6426 327.762ZM94.5515 328.217C94.5159 328.217 94.4804 328.217 94.4449 328.217C93.8908 328.26 93.2941 328.636 93.0028 329.126C92.4203 330.1 92.47 331.456 93.1307 332.494C93.152 332.522 93.1662 332.55 93.1875 332.579C94.3099 331.684 95.3116 330.632 95.5318 329.688C95.6384 329.233 95.546 328.849 95.2548 328.508C95.0487 328.267 94.7717 328.21 94.5515 328.21V328.217ZM80.1801 327.208C79.4555 327.208 78.6741 327.805 78.1697 328.395C77.2746 329.439 76.2587 330.625 76.0954 331.876C76.0669 332.089 76.074 332.316 76.1167 332.536C77.914 331.584 79.4484 330.384 80.5495 329.006C80.9189 328.544 81.1108 328.018 81.0184 327.684C80.99 327.571 80.919 327.407 80.6206 327.293C80.4785 327.237 80.3222 327.208 80.173 327.208H80.1801ZM105.293 327.727C105.122 327.727 104.923 328.025 104.788 328.501C104.625 329.077 105.094 330.455 105.641 331.499C105.847 330.945 106.003 330.362 106.095 329.773C106.245 328.807 105.726 327.812 105.328 327.727C105.321 327.727 105.307 327.727 105.3 327.727H105.293Z" fill="#B4185C"/>
<path d="M133.226 311.739C161.125 311.739 183.742 289.122 183.742 261.223C183.742 233.324 161.125 210.707 133.226 210.707C105.326 210.707 82.7095 233.324 82.7095 261.223C82.7095 289.122 105.326 311.739 133.226 311.739Z" fill="#C8F7E1"/>
<path d="M25.1174 181.163C27.1536 181.163 28.8043 179.512 28.8043 177.476C28.8043 175.44 27.1536 173.789 25.1174 173.789C23.0811 173.789 21.4304 175.44 21.4304 177.476C21.4304 179.512 23.0811 181.163 25.1174 181.163Z" fill="#4F2B2B"/>
<path d="M37.4924 181.163C39.5286 181.163 41.1793 179.512 41.1793 177.476C41.1793 175.44 39.5286 173.789 37.4924 173.789C35.4561 173.789 33.8054 175.44 33.8054 177.476C33.8054 179.512 35.4561 181.163 37.4924 181.163Z" fill="white"/>
<path d="M49.861 181.163C51.8973 181.163 53.548 179.512 53.548 177.476C53.548 175.44 51.8973 173.789 49.861 173.789C47.8248 173.789 46.1741 175.44 46.1741 177.476C46.1741 179.512 47.8248 181.163 49.861 181.163Z" fill="white"/>
<path d="M109.52 274.14C109.435 274.14 109.343 274.125 109.258 274.09C108.867 273.941 108.668 273.507 108.81 273.117L110.117 269.621C110.266 269.231 110.7 269.032 111.09 269.174C111.481 269.323 111.68 269.756 111.538 270.147L110.231 273.642C110.117 273.948 109.826 274.132 109.52 274.132V274.14Z" fill="#4F2B2B"/>
<path d="M117.328 273.272C117.328 273.272 117.264 273.272 117.228 273.272C116.816 273.222 116.518 272.838 116.575 272.419C116.71 271.354 116.752 270.267 116.688 269.194C116.667 268.775 116.98 268.42 117.399 268.391C117.818 268.342 118.173 268.683 118.202 269.102C118.273 270.274 118.23 271.453 118.081 272.611C118.031 272.995 117.704 273.272 117.328 273.272Z" fill="#4F2B2B"/>
<path d="M124.097 272.107C123.785 272.107 123.486 271.908 123.38 271.595L122.094 267.866C121.959 267.468 122.165 267.042 122.563 266.9C122.961 266.765 123.387 266.971 123.522 267.368L124.808 271.098C124.943 271.496 124.737 271.922 124.339 272.064C124.261 272.093 124.176 272.107 124.09 272.107H124.097Z" fill="#4F2B2B"/>
<path d="M130.889 271.183C130.57 271.183 130.279 270.984 130.172 270.665C129.795 269.556 128.73 267.113 128.091 265.649L127.799 264.981C127.629 264.598 127.806 264.15 128.19 263.987C128.574 263.823 129.021 263.994 129.185 264.378L129.476 265.045C130.122 266.53 131.209 269.009 131.607 270.181C131.742 270.579 131.529 271.006 131.131 271.14C131.053 271.169 130.968 271.183 130.889 271.183Z" fill="#4F2B2B"/>
<path d="M138.59 269.897C138.206 269.897 137.879 269.606 137.837 269.222C137.687 267.858 137.226 266.516 136.487 265.358C136.26 265.003 136.366 264.534 136.721 264.313C137.077 264.093 137.538 264.193 137.766 264.548C138.625 265.905 139.172 267.468 139.343 269.059C139.385 269.478 139.087 269.847 138.668 269.89C138.639 269.89 138.611 269.89 138.59 269.89V269.897Z" fill="#4F2B2B"/>
<path d="M148.534 268.141C148.328 268.141 148.115 268.056 147.966 267.885L145.344 264.937C145.067 264.624 145.096 264.148 145.408 263.864C145.721 263.587 146.197 263.616 146.481 263.928L149.102 266.876C149.379 267.189 149.351 267.665 149.038 267.949C148.896 268.077 148.712 268.141 148.534 268.141Z" fill="#4F2B2B"/>
<path d="M155.675 265.025C155.505 265.025 155.334 264.968 155.192 264.847C154.183 264.002 153.253 263.05 152.443 262.02C152.187 261.693 152.237 261.217 152.571 260.954C152.898 260.698 153.374 260.755 153.636 261.082C154.382 262.034 155.235 262.908 156.165 263.682C156.485 263.952 156.528 264.428 156.265 264.748C156.116 264.925 155.903 265.018 155.682 265.018L155.675 265.025Z" fill="#4F2B2B"/>
<path d="M154.915 259.198C154.51 259.198 154.126 258.885 154.105 258.48C154.084 258.061 154.354 257.706 154.773 257.692L159.454 257.472C159.824 257.408 160.229 257.77 160.25 258.189C160.271 258.608 159.945 258.964 159.533 258.985L154.958 259.205C154.958 259.205 154.929 259.205 154.922 259.205L154.915 259.198Z" fill="#4F2B2B"/>
<path d="M155.029 254.703C154.631 254.703 154.297 254.39 154.276 253.993C154.248 253.573 154.567 253.218 154.987 253.19C156.613 253.09 158.183 252.7 159.661 252.032C160.045 251.861 160.492 252.032 160.663 252.408C160.833 252.792 160.663 253.24 160.286 253.41C158.638 254.156 156.883 254.596 155.072 254.703C155.058 254.703 155.043 254.703 155.022 254.703H155.029Z" fill="#4F2B2B"/>
<path d="M152.35 249.145C151.973 249.145 151.647 248.868 151.597 248.485C151.547 248.066 151.838 247.689 152.25 247.639C153.806 247.441 155.312 246.872 156.612 245.998C156.96 245.764 157.429 245.856 157.664 246.204C157.898 246.553 157.806 247.021 157.458 247.256C155.966 248.257 154.225 248.911 152.435 249.138C152.407 249.138 152.371 249.138 152.336 249.138L152.35 249.145Z" fill="#4F2B2B"/>
<path d="M148.541 243.995C148.293 243.995 148.051 243.875 147.909 243.654C147.682 243.306 147.781 242.837 148.129 242.603C150.353 241.154 152.74 239.946 155.226 239.023C155.617 238.88 156.057 239.079 156.2 239.47C156.349 239.861 156.15 240.301 155.752 240.443C153.372 241.331 151.085 242.482 148.954 243.875C148.826 243.96 148.684 243.995 148.541 243.995Z" fill="#4F2B2B"/>
<path d="M142.71 239.705C142.454 239.705 142.205 239.578 142.063 239.343C141.843 238.988 141.957 238.519 142.312 238.299C143.74 237.425 145.011 236.338 146.098 235.074C146.375 234.754 146.851 234.718 147.164 234.995C147.484 235.265 147.519 235.748 147.242 236.061C146.049 237.446 144.656 238.633 143.093 239.592C142.973 239.67 142.83 239.705 142.695 239.705H142.71Z" fill="#4F2B2B"/>
<path d="M138.398 237.076C138.32 237.076 138.249 237.062 138.17 237.04C137.773 236.912 137.552 236.493 137.673 236.088C138.256 234.227 139.108 232.465 140.202 230.853C140.437 230.505 140.905 230.412 141.254 230.647C141.602 230.881 141.694 231.35 141.46 231.698C140.451 233.197 139.662 234.824 139.122 236.543C139.023 236.863 138.725 237.076 138.398 237.076Z" fill="#4F2B2B"/>
<path d="M133.17 235.329C132.751 235.329 132.41 234.988 132.41 234.569V229.66C132.41 229.241 132.751 228.9 133.17 228.9C133.589 228.9 133.93 229.241 133.93 229.66V234.569C133.93 234.988 133.589 235.329 133.17 235.329Z" fill="#4F2B2B"/>
<path d="M125.383 234.882C125.028 234.882 124.708 234.626 124.637 234.264L123.714 229.362C123.636 228.95 123.905 228.552 124.317 228.474C124.73 228.403 125.127 228.666 125.198 229.078L126.122 233.98C126.2 234.392 125.93 234.789 125.518 234.868C125.468 234.875 125.426 234.882 125.376 234.882H125.383Z" fill="#4F2B2B"/>
<path d="M119.885 234.604C119.63 234.604 119.381 234.476 119.239 234.235L116.866 230.306C116.653 229.951 116.767 229.482 117.122 229.269C117.477 229.056 117.946 229.17 118.159 229.525L120.532 233.453C120.745 233.809 120.631 234.277 120.276 234.491C120.155 234.562 120.02 234.597 119.885 234.597V234.604Z" fill="#4F2B2B"/>
<path d="M114.656 238.008C114.5 238.008 114.35 237.965 114.215 237.866C113.526 237.368 112.432 236.452 111.282 235.479C110.202 234.569 109.079 233.632 108.433 233.163C108.092 232.921 108.014 232.445 108.262 232.104C108.504 231.763 108.98 231.685 109.321 231.934C110.01 232.431 111.104 233.347 112.255 234.321C113.335 235.23 114.457 236.168 115.103 236.637C115.444 236.878 115.523 237.354 115.274 237.695C115.125 237.901 114.897 238.008 114.656 238.008Z" fill="#4F2B2B"/>
<path d="M108.412 241.573C108.319 241.573 108.234 241.559 108.142 241.524C106.515 240.906 101.706 239.222 100.015 238.902C99.6027 238.824 99.3328 238.433 99.4109 238.021C99.4891 237.609 99.8869 237.339 100.292 237.418C102.103 237.759 106.955 239.456 108.674 240.11C109.065 240.259 109.264 240.692 109.115 241.083C109.001 241.389 108.71 241.573 108.405 241.573H108.412Z" fill="#4F2B2B"/>
<path d="M101.06 245.473H101.031L95.2202 245.281C94.8011 245.267 94.4743 244.919 94.4885 244.499C94.5027 244.08 94.865 243.796 95.2699 243.768L101.074 243.96C101.493 243.974 101.82 244.322 101.806 244.741C101.791 245.153 101.457 245.473 101.053 245.473H101.06Z" fill="#4F2B2B"/>
<path d="M93.8981 253.586C93.6282 253.586 93.3653 253.444 93.2304 253.188C93.0315 252.819 93.1664 252.357 93.5358 252.158C95.0064 251.369 96.5692 250.758 98.1889 250.339C98.5939 250.24 99.0059 250.481 99.1125 250.886C99.219 251.291 98.9704 251.703 98.5654 251.81C97.0665 252.193 95.6173 252.762 94.2604 253.494C94.1468 253.557 94.026 253.586 93.8981 253.586Z" fill="#4F2B2B"/>
<path d="M91.4685 260.768C91.1275 260.768 90.822 260.54 90.7368 260.192C90.6373 259.787 90.8859 259.375 91.2909 259.276C93.074 258.835 94.7789 257.99 96.2139 256.839C96.5407 256.584 97.0167 256.633 97.2795 256.96C97.5424 257.287 97.4855 257.763 97.1587 258.026C95.5532 259.311 93.6494 260.249 91.6532 260.746C91.5892 260.761 91.5324 260.768 91.4685 260.768Z" fill="#4F2B2B"/>
<path d="M94.19 267.823C93.8632 267.823 93.5648 267.617 93.4654 267.29C93.3375 266.893 93.5648 266.466 93.9627 266.346C95.8452 265.763 97.6212 264.896 99.2338 263.767C99.5748 263.532 100.051 263.618 100.285 263.959C100.527 264.3 100.441 264.776 100.093 265.01C98.3529 266.218 96.4348 267.155 94.4102 267.788C94.3321 267.809 94.261 267.823 94.1829 267.823H94.19Z" fill="#4F2B2B"/>
<path d="M99.951 272.824C99.6739 272.824 99.4111 272.675 99.2761 272.419C99.0843 272.05 99.2264 271.588 99.6029 271.396C101.762 270.281 103.823 268.945 105.719 267.446C106.046 267.191 106.522 267.248 106.785 267.574C107.041 267.901 106.991 268.377 106.657 268.64C104.682 270.203 102.544 271.581 100.292 272.746C100.178 272.803 100.065 272.831 99.9439 272.831L99.951 272.824Z" fill="#4F2B2B"/>
<path d="M97.5927 250.02C95.1915 255.632 95.9303 262.822 100.555 266.871C106.288 271.886 115.203 270.473 122.457 267.993C129.937 265.436 137.56 265.422 145.438 265.13C149.288 264.988 154.012 262.971 155.859 259.646C158.154 255.519 155.888 250.503 153.33 247.065C139.819 228.95 107.311 227.323 97.5927 250.02Z" fill="#BF8888"/>
<path d="M110.906 260.022C109.549 260.022 108.284 259.837 107.268 259.447C105.222 258.665 103.951 257.515 103.482 256.016C103.07 254.701 103.333 253.202 104.235 251.682C105.755 249.132 108.881 246.88 111.673 246.319C114.941 245.672 120.61 247.889 122.322 251.313C123.266 253.195 122.798 255.113 121.015 256.719C118.777 258.736 114.5 260.015 110.898 260.015L110.906 260.022ZM112.888 247.732C112.561 247.732 112.248 247.761 111.971 247.81C109.598 248.279 106.835 250.283 105.535 252.456C105.059 253.252 104.576 254.438 104.924 255.561C105.244 256.591 106.21 257.415 107.801 258.026C111.048 259.262 117.313 258.012 120.006 255.596C121.292 254.438 121.604 253.259 120.972 251.995C119.764 249.586 115.63 247.725 112.888 247.725V247.732Z" fill="#4F2B2B"/>
<path d="M136.466 251.809C135.763 251.809 134.995 251.738 134.164 251.603C132.566 251.34 130.996 250.864 130.058 250.58C128.417 250.083 126.641 249.358 125.938 247.746C125.448 246.623 125.618 245.238 126.385 244.052C128.843 240.251 133.674 240.308 137.368 242.055C138.277 242.489 141.297 244.087 141.915 246.609C142.192 247.731 141.929 248.868 141.154 249.898C140.195 251.177 138.618 251.816 136.466 251.816V251.809ZM134.413 250.104C137.176 250.566 139.03 250.182 139.94 248.975C140.444 248.307 140.607 247.646 140.444 246.964C140.075 245.479 138.206 244.13 136.722 243.419C133.624 241.956 129.625 241.828 127.664 244.861C127.181 245.607 127.053 246.474 127.337 247.128C127.792 248.172 129.191 248.719 130.506 249.117C131.408 249.394 132.921 249.848 134.42 250.097L134.413 250.104Z" fill="#4F2B2B"/>
<path d="M135.677 262.218C134.242 262.218 132.75 262.012 131.408 261.621C129.951 261.202 128.197 260.549 127.543 259.256C127.238 258.645 127.209 257.949 127.472 257.245C127.856 256.229 128.829 255.413 130.079 255.064C131.493 254.667 138.974 255.647 140.828 257.949C141.389 258.638 141.474 259.44 141.076 260.194C140.302 261.678 137.375 262.147 136.409 262.197C136.167 262.211 135.926 262.218 135.684 262.218H135.677ZM131.045 256.478C130.79 256.478 130.598 256.492 130.484 256.528C129.71 256.741 129.099 257.217 128.893 257.778C128.744 258.183 128.822 258.432 128.893 258.581C129.333 259.455 131.209 259.995 131.827 260.172C133.226 260.577 134.867 260.769 136.324 260.691C137.61 260.627 139.428 260.066 139.727 259.497C139.826 259.306 139.84 259.156 139.641 258.908C138.427 257.409 132.971 256.485 131.038 256.485L131.045 256.478Z" fill="#4F2B2B"/>
<path d="M158.374 270.155C157.99 270.155 157.664 269.864 157.621 269.48L157.394 267.328C157.351 266.908 157.649 266.539 158.069 266.496C158.495 266.454 158.857 266.752 158.9 267.171L159.127 269.324C159.17 269.743 158.871 270.112 158.452 270.155C158.424 270.155 158.395 270.155 158.374 270.155Z" fill="#4F2B2B"/>
<path d="M155.135 272.254C154.872 272.254 154.616 272.119 154.474 271.87C154.126 271.266 153.835 270.62 153.608 269.966C153.473 269.568 153.679 269.142 154.077 269C154.474 268.858 154.908 269.071 155.043 269.462C155.242 270.03 155.497 270.584 155.796 271.11C156.002 271.472 155.881 271.934 155.519 272.147C155.398 272.218 155.27 272.246 155.142 272.246L155.135 272.254Z" fill="#4F2B2B"/>
<path d="M152.754 274.439C152.563 274.439 152.371 274.368 152.222 274.219L150.588 272.613C150.289 272.322 150.282 271.839 150.581 271.541C150.872 271.242 151.355 271.235 151.653 271.533L153.287 273.139C153.586 273.43 153.593 273.913 153.294 274.212C153.145 274.361 152.946 274.439 152.754 274.439Z" fill="#4F2B2B"/>
<path d="M149.65 276.736C149.48 276.736 149.309 276.679 149.167 276.558C148.521 276.018 147.895 275.45 147.306 274.86C147.007 274.569 147.007 274.086 147.306 273.787C147.604 273.489 148.08 273.489 148.379 273.787C148.94 274.349 149.536 274.888 150.14 275.4C150.46 275.67 150.503 276.146 150.233 276.466C150.083 276.643 149.87 276.736 149.65 276.736Z" fill="#4F2B2B"/>
<path d="M146.028 279.534C145.893 279.534 145.758 279.498 145.638 279.427C144.799 278.923 144.075 278.219 143.542 277.395C143.315 277.04 143.421 276.571 143.769 276.351C144.117 276.124 144.586 276.23 144.813 276.578C145.218 277.211 145.773 277.743 146.412 278.127C146.774 278.34 146.888 278.809 146.675 279.164C146.533 279.399 146.284 279.534 146.021 279.534H146.028Z" fill="#4F2B2B"/>
<path d="M141.609 282.075C141.517 282.075 141.418 282.061 141.325 282.026L139.201 281.173C138.81 281.017 138.626 280.576 138.782 280.193C138.938 279.802 139.379 279.617 139.769 279.774L141.894 280.619C142.284 280.775 142.469 281.216 142.313 281.607C142.192 281.905 141.908 282.083 141.609 282.083V282.075Z" fill="#4F2B2B"/>
<path d="M138.661 285.416C138.554 285.416 138.441 285.394 138.341 285.345C137.723 285.053 137.077 284.833 136.416 284.67C136.011 284.57 135.756 284.165 135.855 283.761C135.954 283.356 136.359 283.093 136.764 283.199C137.524 283.377 138.277 283.64 138.988 283.974C139.364 284.151 139.528 284.606 139.35 284.982C139.222 285.259 138.945 285.416 138.661 285.416Z" fill="#4F2B2B"/>
<path d="M136.181 288.818C135.918 288.818 135.656 288.676 135.521 288.428C135.315 288.065 135.442 287.604 135.812 287.398L138.177 286.069C138.54 285.863 139.009 285.991 139.208 286.36C139.414 286.723 139.286 287.184 138.916 287.39L136.544 288.719C136.423 288.783 136.302 288.818 136.174 288.818H136.181Z" fill="#4F2B2B"/>
<path d="M137.361 291.795C137.191 291.795 137.027 291.738 136.885 291.625C136.558 291.362 136.509 290.886 136.772 290.559C137.461 289.714 138.285 289.003 139.222 288.464C139.585 288.25 140.046 288.378 140.26 288.741C140.473 289.103 140.345 289.565 139.983 289.778C139.201 290.232 138.519 290.815 137.951 291.518C137.802 291.703 137.581 291.802 137.361 291.802V291.795Z" fill="#4F2B2B"/>
<path d="M140.459 294.196C140.331 294.196 140.203 294.167 140.09 294.096C139.727 293.89 139.599 293.429 139.806 293.066C140.345 292.114 141.106 291.29 142.015 290.679C142.363 290.445 142.832 290.537 143.066 290.885C143.301 291.234 143.208 291.702 142.86 291.937C142.143 292.413 141.546 293.066 141.12 293.812C140.978 294.061 140.722 294.196 140.459 294.196Z" fill="#4F2B2B"/>
<path d="M143.05 297.365C142.865 297.365 142.681 297.301 142.532 297.159C142.226 296.875 142.205 296.392 142.496 296.087C143.484 295.028 144.357 293.856 145.089 292.599C145.302 292.236 145.764 292.116 146.126 292.329C146.489 292.542 146.609 293.004 146.396 293.366C145.608 294.716 144.67 295.98 143.604 297.124C143.455 297.28 143.249 297.365 143.05 297.365Z" fill="#4F2B2B"/>
<path d="M148.697 297.237C148.633 297.237 148.577 297.23 148.513 297.216C148.108 297.116 147.859 296.704 147.966 296.299C148.228 295.241 148.662 294.232 149.237 293.301C149.457 292.946 149.926 292.84 150.282 293.06C150.637 293.28 150.743 293.749 150.523 294.104C150.026 294.9 149.663 295.759 149.436 296.669C149.351 297.017 149.038 297.244 148.704 297.244L148.697 297.237Z" fill="#4F2B2B"/>
<path d="M152.839 297.948C152.839 297.948 152.776 297.948 152.74 297.948C152.328 297.891 152.03 297.515 152.086 297.096C152.214 296.094 152.2 295.071 152.044 294.069C151.98 293.657 152.257 293.267 152.676 293.203C153.088 293.139 153.479 293.416 153.543 293.835C153.727 294.986 153.742 296.151 153.593 297.295C153.543 297.678 153.216 297.955 152.839 297.955V297.948Z" fill="#4F2B2B"/>
<path d="M157.223 296.796C156.946 296.796 156.676 296.646 156.548 296.376L155.276 293.833C155.092 293.457 155.241 293.002 155.617 292.817C155.994 292.633 156.448 292.782 156.633 293.158L157.905 295.702C158.089 296.078 157.94 296.533 157.564 296.717C157.457 296.774 157.336 296.796 157.223 296.796Z" fill="#4F2B2B"/>
<path d="M161.855 294.764C161.628 294.764 161.4 294.657 161.251 294.465L159.503 292.164C159.248 291.83 159.312 291.354 159.646 291.098C159.979 290.849 160.455 290.913 160.704 291.24L162.452 293.542C162.707 293.876 162.643 294.352 162.31 294.607C162.175 294.714 162.011 294.764 161.855 294.764Z" fill="#4F2B2B"/>
<path d="M165.272 292.605C165.137 292.605 164.995 292.569 164.867 292.491L162.615 291.071C162.26 290.85 162.16 290.381 162.381 290.026C162.608 289.671 163.07 289.572 163.425 289.792L165.67 291.213C166.025 291.433 166.132 291.902 165.904 292.257C165.762 292.484 165.514 292.612 165.265 292.612L165.272 292.605Z" fill="#4F2B2B"/>
<path d="M169.072 288.996C169.03 288.996 168.994 288.996 168.951 288.989L166.117 288.527C165.705 288.463 165.421 288.072 165.492 287.66C165.556 287.241 165.947 286.957 166.359 287.035L169.193 287.497C169.605 287.561 169.889 287.952 169.818 288.364C169.754 288.733 169.435 289.003 169.072 289.003V288.996Z" fill="#4F2B2B"/>
<path d="M169.072 284.413C168.688 284.413 168.362 284.122 168.319 283.732C168.276 283.312 168.582 282.943 168.994 282.9C169.981 282.801 170.969 282.609 171.914 282.339C172.318 282.218 172.738 282.453 172.851 282.858C172.965 283.263 172.738 283.682 172.333 283.795C171.295 284.094 170.223 284.3 169.143 284.406C169.115 284.406 169.093 284.406 169.065 284.406L169.072 284.413Z" fill="#4F2B2B"/>
<path d="M169.967 280.664C169.682 280.664 169.405 280.501 169.278 280.224C169.1 279.84 169.27 279.392 169.647 279.215L172.709 277.808C173.092 277.631 173.54 277.801 173.71 278.178C173.888 278.561 173.718 279.009 173.341 279.179L170.286 280.586C170.187 280.636 170.073 280.657 169.967 280.657V280.664Z" fill="#4F2B2B"/>
<path d="M169.705 276.676C169.491 276.676 169.285 276.591 169.129 276.413C168.852 276.101 168.888 275.618 169.207 275.348C169.541 275.064 170.159 274.694 170.877 274.268C171.637 273.813 172.916 273.06 173.143 272.734C173.384 272.393 173.853 272.307 174.201 272.549C174.542 272.79 174.628 273.259 174.386 273.6C173.995 274.154 173.051 274.737 171.651 275.568C171.047 275.923 170.429 276.293 170.202 276.492C170.06 276.619 169.882 276.676 169.705 276.676Z" fill="#4F2B2B"/>
<path d="M168.937 272.94C168.83 272.94 168.724 272.919 168.624 272.869C168.241 272.691 168.077 272.244 168.255 271.867C168.773 270.745 169.541 269.722 170.485 268.919C170.805 268.642 171.281 268.685 171.551 269.004C171.821 269.324 171.785 269.8 171.466 270.07C170.691 270.731 170.059 271.576 169.626 272.5C169.498 272.777 169.221 272.94 168.937 272.94Z" fill="#4F2B2B"/>
<path d="M165.585 270.113C165.464 270.113 165.336 270.084 165.223 270.02C164.853 269.821 164.718 269.36 164.924 268.99C165.528 267.882 166.302 266.873 167.212 265.999C167.51 265.708 167.993 265.722 168.284 266.021C168.576 266.319 168.561 266.802 168.263 267.093C167.467 267.861 166.793 268.742 166.26 269.715C166.125 269.971 165.862 270.113 165.592 270.113H165.585Z" fill="#4F2B2B"/>
<path d="M161.258 269.908C161.151 269.908 161.037 269.886 160.938 269.837C160.562 269.659 160.398 269.204 160.576 268.828C161.208 267.485 161.968 266.2 162.842 264.999C163.091 264.658 163.559 264.587 163.9 264.828C164.241 265.077 164.312 265.546 164.064 265.887C163.247 267.009 162.536 268.21 161.947 269.467C161.819 269.744 161.542 269.901 161.258 269.901V269.908Z" fill="#4F2B2B"/>
<path d="M171.218 275.901C170.977 272.193 168.611 268.464 165.024 267.497C160.577 266.297 156.179 269.465 152.968 272.761C149.651 276.164 145.552 278.793 141.403 281.073C139.378 282.188 137.411 283.979 137.325 286.294C137.219 289.164 139.812 291.296 142.121 292.482C154.318 298.748 172.206 290.912 171.218 275.901Z" fill="#BF8888"/>
<path d="M160.882 283.051C159.603 283.051 158.324 282.759 157.436 282.106C156.762 281.609 155.753 280.472 156.527 278.44C157.472 275.961 160.889 273.304 163.425 273.062C164.825 272.927 165.912 273.247 166.636 274.007C167.283 274.682 167.574 275.662 167.489 276.842C167.354 278.703 166.238 280.848 164.846 281.935C163.951 282.631 162.409 283.051 160.875 283.051H160.882ZM164.022 274.547C163.88 274.547 163.724 274.554 163.567 274.568C161.621 274.746 158.68 277.055 157.941 278.973C157.508 280.102 157.962 280.6 158.339 280.877C159.71 281.893 162.743 281.658 163.922 280.735C164.988 279.904 165.876 278.177 165.983 276.721C166.018 276.202 165.975 275.499 165.542 275.044C165.222 274.711 164.711 274.54 164.029 274.54L164.022 274.547Z" fill="#4F2B2B"/>
<path d="M151.952 291.227C151.221 291.227 149.196 291.106 148.138 289.87C147.619 289.259 147.427 288.485 147.576 287.625C147.818 286.233 148.997 285.21 151.072 284.578C151.938 284.315 152.798 284.158 153.594 284.031C154.68 283.853 155.916 283.768 156.826 284.542C157.465 285.082 157.792 285.977 157.692 286.929C157.394 289.849 154.638 291.198 152.045 291.234H151.952V291.227ZM151.519 286.02C150.034 286.474 149.21 287.099 149.075 287.881C149.004 288.3 149.075 288.62 149.296 288.883C149.736 289.401 150.787 289.707 152.031 289.707C153.956 289.678 155.988 288.755 156.194 286.758C156.236 286.311 156.108 285.899 155.853 285.686C155.412 285.309 154.595 285.387 153.849 285.515C153.26 285.615 152.372 285.764 151.519 286.02Z" fill="#4F2B2B"/>
<path d="M89.678 253.177H63.443C63.1518 253.177 62.8818 253.006 62.754 252.743L53.7461 233.563C53.5685 233.186 53.7319 232.731 54.1084 232.554C54.4849 232.376 54.9396 232.54 55.1172 232.916L63.919 251.664H89.6709C90.09 251.664 90.431 252.005 90.431 252.424C90.431 252.843 90.09 253.184 89.6709 253.184L89.678 253.177Z" fill="#8FC6D7"/>
<path d="M69.1552 216.733H20.5356V239.48H69.1552V216.733Z" fill="#8FC6D7"/>
<path d="M46.6349 223.289H24.1083C23.6891 223.289 23.3481 222.948 23.3481 222.529C23.3481 222.11 23.6891 221.769 24.1083 221.769H46.6349C47.0541 221.769 47.3951 222.11 47.3951 222.529C47.3951 222.948 47.0541 223.289 46.6349 223.289Z" fill="#4F2B2B"/>
<path d="M61.1347 223.289H50.8766C50.4574 223.289 50.1165 222.948 50.1165 222.529C50.1165 222.11 50.4574 221.769 50.8766 221.769H61.1347C61.5538 221.769 61.8948 222.11 61.8948 222.529C61.8948 222.948 61.5538 223.289 61.1347 223.289Z" fill="#4F2B2B"/>
<path d="M38.1599 228.641H24.1083C23.6891 228.641 23.3481 228.3 23.3481 227.881C23.3481 227.461 23.6891 227.12 24.1083 227.12H38.1599C38.5791 227.12 38.92 227.461 38.92 227.881C38.92 228.3 38.5791 228.641 38.1599 228.641Z" fill="#4F2B2B"/>
<path d="M52.4313 228.641H42.3934C41.9743 228.641 41.6333 228.3 41.6333 227.88C41.6333 227.461 41.9743 227.12 42.3934 227.12H52.4313C52.8505 227.12 53.1915 227.461 53.1915 227.88C53.1915 228.3 52.8505 228.641 52.4313 228.641Z" fill="#4F2B2B"/>
<path d="M32.1362 233.994H24.1088C23.6896 233.994 23.3486 233.653 23.3486 233.234C23.3486 232.815 23.6896 232.474 24.1088 232.474H32.1362C32.5554 232.474 32.8964 232.815 32.8964 233.234C32.8964 233.653 32.5554 233.994 32.1362 233.994Z" fill="#4F2B2B"/>
<path d="M55.999 233.994H36.3707C35.9516 233.994 35.6106 233.653 35.6106 233.234C35.6106 232.815 35.9516 232.474 36.3707 232.474H55.999C56.4181 232.474 56.7591 232.815 56.7591 233.234C56.7591 233.653 56.4181 233.994 55.999 233.994Z" fill="#4F2B2B"/>
<path d="M57.3415 311.635H22.5463C22.1271 311.635 21.7861 311.294 21.7861 310.875V268.99C21.7861 268.571 22.1271 268.23 22.5463 268.23H38.9422C39.1411 268.23 39.3329 268.308 39.475 268.45L44.6041 273.579H57.3344C57.7535 273.579 58.0945 273.92 58.0945 274.339V310.875C58.0945 311.294 57.7535 311.635 57.3344 311.635H57.3415ZM23.3064 310.122H56.5814V275.1H44.2915C44.0926 275.1 43.9008 275.021 43.7587 274.879L38.6296 269.75H23.3064V310.122Z" fill="#2B6577"/>
<path d="M41.7616 285.701H27.9515C27.5324 285.701 27.1914 285.36 27.1914 284.941C27.1914 284.522 27.5324 284.181 27.9515 284.181H41.7616C42.1808 284.181 42.5218 284.522 42.5218 284.941C42.5218 285.36 42.1808 285.701 41.7616 285.701Z" fill="white"/>
<path d="M50.6494 285.701H44.3624C43.9433 285.701 43.6023 285.36 43.6023 284.941C43.6023 284.522 43.9433 284.181 44.3624 284.181H50.6494C51.0686 284.181 51.4096 284.522 51.4096 284.941C51.4096 285.36 51.0686 285.701 50.6494 285.701Z" fill="white"/>
<path d="M41.762 284.191H27.9519V285.705H41.762V284.191Z" fill="#4F2B2B"/>
<path d="M50.6501 284.192H44.363V285.705H50.6501V284.192Z" fill="#4F2B2B"/>
<path d="M41.7616 302.433H27.9515C27.5324 302.433 27.1914 302.092 27.1914 301.672C27.1914 301.253 27.5324 300.912 27.9515 300.912H41.7616C42.1808 300.912 42.5218 301.253 42.5218 301.672C42.5218 302.092 42.1808 302.433 41.7616 302.433Z" fill="white"/>
<path d="M50.6494 302.433H44.3624C43.9433 302.433 43.6023 302.092 43.6023 301.672C43.6023 301.253 43.9433 300.912 44.3624 300.912H50.6494C51.0686 300.912 51.4096 301.253 51.4096 301.672C51.4096 302.092 51.0686 302.433 50.6494 302.433Z" fill="white"/>
<path d="M41.762 300.912H27.9519V302.425H41.762V300.912Z" fill="#4F2B2B"/>
<path d="M50.6501 300.912H44.363V302.425H50.6501V300.912Z" fill="#4F2B2B"/>
<path d="M36.5696 291.056H27.9596C27.5405 291.056 27.1995 290.715 27.1995 290.296C27.1995 289.877 27.5405 289.536 27.9596 289.536H36.5696C36.9887 289.536 37.3297 289.877 37.3297 290.296C37.3297 290.715 36.9887 291.056 36.5696 291.056Z" fill="white"/>
<path d="M45.3155 291.056H39.1634C38.7443 291.056 38.4033 290.715 38.4033 290.296C38.4033 289.877 38.7443 289.536 39.1634 289.536H45.3155C45.7346 289.536 46.0756 289.877 46.0756 290.296C46.0756 290.715 45.7346 291.056 45.3155 291.056Z" fill="white"/>
<path d="M36.5636 289.542H27.9536V291.055H36.5636V289.542Z" fill="#4F2B2B"/>
<path d="M45.3163 289.542H39.1643V291.055H45.3163V289.542Z" fill="#4F2B2B"/>
<path d="M32.8748 296.409H27.9518C27.5326 296.409 27.1917 296.068 27.1917 295.649C27.1917 295.23 27.5326 294.889 27.9518 294.889H32.8748C33.294 294.889 33.6349 295.23 33.6349 295.649C33.6349 296.068 33.294 296.409 32.8748 296.409Z" fill="white"/>
<path d="M47.5032 296.409H35.4762C35.0571 296.409 34.7161 296.068 34.7161 295.649C34.7161 295.23 35.0571 294.889 35.4762 294.889H47.5032C47.9223 294.889 48.2633 295.23 48.2633 295.649C48.2633 296.068 47.9223 296.409 47.5032 296.409Z" fill="white"/>
<path d="M32.8757 294.893H27.9526V296.406H32.8757V294.893Z" fill="#4F2B2B"/>
<path d="M47.5026 294.893H35.4756V296.406H47.5026V294.893Z" fill="#4F2B2B"/>
<path d="M230.168 363.706C254.841 363.706 275.444 368.698 280.45 375.368C281.207 374.354 281.621 373.304 281.621 372.225C281.621 364.056 258.583 357.429 230.168 357.429C201.752 357.429 178.714 364.056 178.714 372.225C178.714 373.304 179.121 374.354 179.886 375.368C184.892 368.705 205.502 363.706 230.168 363.706Z" fill="#2B6577"/>
<path d="M230.169 387.023C254.842 387.023 275.445 382.031 280.451 375.361C275.445 368.698 254.835 363.699 230.169 363.699C205.503 363.699 184.893 368.691 179.887 375.361C184.893 382.024 205.503 387.023 230.169 387.023Z" fill="#8FC6D7"/>
<path d="M239.025 380.273C239.025 381.523 236.818 382.537 234.09 382.537C231.362 382.537 229.155 381.523 229.155 380.273C229.155 379.024 231.362 378.01 234.09 378.01C236.818 378.01 239.025 379.024 239.025 380.273Z" fill="#BF8888"/>
<path d="M230.168 387.022C205.494 387.022 184.892 382.03 179.886 375.36C179.129 376.374 178.714 377.424 178.714 378.502C178.714 386.672 201.752 393.299 230.168 393.299C258.583 393.299 281.621 386.672 281.621 378.502C281.621 377.424 281.214 376.374 280.45 375.36C275.444 382.023 254.834 387.022 230.168 387.022Z" fill="#2B6577"/>
<path d="M215.029 197.008C215.029 197.008 196.868 201.378 185.771 209.448C174.673 217.518 165.253 249.804 183.078 260.901L222.427 252.16L247.315 258.216L260.769 242.412L262.447 224.252L215.029 197.008Z" fill="#FFBE97"/>
<path d="M192.497 215.503C192.497 215.503 178.372 227.607 178.036 237.362C177.701 247.117 179.379 267.627 191.155 272.676C202.924 277.718 208.308 269.648 206.623 263.257C204.938 256.865 204.602 244.09 204.602 244.09L219.399 232.321L192.49 215.503H192.497Z" fill="#FFBE97"/>
<path d="M201.239 221.893C201.239 221.893 187.114 233.997 186.778 243.752C186.442 253.507 188.12 274.017 199.897 279.066C211.666 284.108 217.05 276.038 215.365 269.647C213.687 263.255 213.344 250.479 213.344 250.479L228.141 238.71L201.232 221.893H201.239Z" fill="#FFBE97"/>
<path d="M262.455 224.242C262.455 224.242 276.202 198.198 317.272 225.028C334.089 236.011 349.779 280.745 349.779 280.745L422.871 301.819L403.41 241.439C390.52 199.433 355.314 162.963 311.23 154.893C272.995 147.894 236.888 155.628 215.029 196.998L262.447 224.242H262.455Z" fill="#DF8711"/>
<path d="M199.989 232.621C199.989 232.621 191.963 249.403 195.598 258.458C199.232 267.513 209.059 285.602 221.863 285.459C234.668 285.317 236.332 275.762 232.211 270.591C228.091 265.428 222.62 253.873 222.62 253.873L231.397 237.127L199.989 232.621Z" fill="#FFBE97"/>
<path d="M223.106 293.414V354.029C223.106 355.986 223.349 357.943 223.842 359.835L226.47 370.09H232.861L235.489 359.835C235.975 357.936 236.225 355.986 236.225 354.029V293.414H223.106Z" fill="#C8F7E1"/>
<path d="M227.934 368.207L225.67 359.366C225.22 357.623 224.999 355.823 224.999 354.024V327.244H234.339V354.024C234.339 355.823 234.111 357.623 233.668 359.366L231.404 368.207H227.941H227.934Z" fill="#BF8888"/>
<path d="M245.636 276.204C245.636 285.023 238.481 300.249 229.661 300.249C220.842 300.249 213.686 285.023 213.686 276.204C213.686 267.384 220.842 260.228 229.661 260.228C238.481 260.228 245.636 267.384 245.636 276.204Z" fill="#2B6577"/>
<path d="M262.454 224.242C262.454 224.242 269.181 250.472 265.817 258.885C263.518 264.64 252.87 271.81 242.065 275.117C234.752 277.359 227.154 272.56 225.961 265.012C225.233 260.413 227.104 255.792 230.817 252.986L241.265 245.095L262.454 224.242Z" fill="#FFBE97"/>
<path d="M200.816 416.003L212.892 424.451L216.799 426.029L210.964 392.379L200.359 404.348C197.367 407.726 197.567 412.868 200.816 416.003Z" fill="#FFBE97"/>
<path d="M197.839 405.092C198.26 405.391 198.696 405.663 199.16 405.899C200.224 406.441 203.852 406.548 204.437 407.441L216.028 425.016L212.5 423.623L214.692 428.237C215.664 430.279 216.906 432.172 218.392 433.878L224.383 440.755L237.081 447.34C241.444 449.604 246.386 450.503 251.27 449.925L276.808 446.897L285.278 445.904C296.818 438.249 301.753 408.855 300.21 398.3L285.463 395.672L284.321 395.458L246.657 388.738L223.641 388.702L196.375 386.781C194.132 387.695 192.511 389.738 192.24 392.144C191.847 395.658 192.997 399.357 195.025 402.221C195.804 403.32 196.753 404.313 197.846 405.099L197.839 405.092Z" fill="#FFBE97"/>
<path d="M223.455 412.716C223.79 412.609 224.069 412.338 224.155 411.974C224.29 411.417 223.948 410.852 223.398 410.717L201.367 405.296C200.81 405.168 200.245 405.496 200.11 406.053C199.974 406.61 200.317 407.175 200.867 407.31L222.898 412.731C223.091 412.773 223.276 412.766 223.455 412.716Z" fill="#4F2B2B"/>
<path d="M227.781 430.528C228.074 430.435 228.317 430.221 228.438 429.921C228.646 429.385 228.388 428.786 227.853 428.571L214.334 423.23C213.799 423.022 213.199 423.28 212.985 423.815C212.778 424.351 213.035 424.951 213.57 425.165L227.089 430.507C227.317 430.599 227.56 430.599 227.774 430.535L227.781 430.528Z" fill="#4F2B2B"/>
<path d="M232.846 442.541C233.139 442.448 233.389 442.233 233.503 441.926C233.71 441.391 233.446 440.791 232.91 440.584L225.74 437.806C225.205 437.599 224.605 437.856 224.398 438.399C224.191 438.934 224.455 439.534 224.99 439.741L232.16 442.519C232.389 442.605 232.625 442.612 232.839 442.541H232.846Z" fill="#4F2B2B"/>
<path d="M300.203 398.284L246.75 368.011C245.036 367.04 243.022 366.74 241.101 367.176C236.216 368.283 233.567 373.589 235.631 378.159L239.944 387.721L261.968 404.118L300.203 398.291V398.284Z" fill="#FFBE97"/>
<path d="M271.216 393.569C271.131 393.569 271.052 393.555 270.966 393.526C262.154 390.484 252.563 389.12 243.258 389.556C242.837 389.606 242.479 389.256 242.458 388.834C242.437 388.413 242.765 388.056 243.179 388.042C252.684 387.577 262.461 388.991 271.459 392.091C271.859 392.226 272.066 392.662 271.93 393.062C271.823 393.376 271.523 393.576 271.209 393.576L271.216 393.569Z" fill="#4F2B2B"/>
<path d="M280.722 446.661L315.929 446.889L321.977 398.457L293.533 392.893L280.722 446.661Z" fill="#F5C07A"/>
<path d="M291.713 391.058V454.287C291.713 454.287 380.501 470.206 408.753 448.232C437.004 426.258 468.618 316.395 426.013 301.82C379.037 285.752 360.098 344.868 351.129 389.258L291.713 391.051V391.058Z" fill="#DF8711"/>
<path d="M351.129 390.023C351.079 390.023 351.029 390.023 350.979 390.009C350.565 389.923 350.301 389.523 350.386 389.109C358.57 348.603 369.904 322.316 385.036 308.747C385.35 308.462 385.829 308.49 386.114 308.805C386.393 309.119 386.371 309.597 386.057 309.883C371.175 323.23 359.999 349.239 351.879 389.416C351.807 389.78 351.486 390.03 351.136 390.03L351.129 390.023Z" fill="#4F2B2B"/>
<path d="M397.64 268.034L394.255 258.55L350.307 274.247L362.319 307.89C379.072 298.506 393.905 287.037 397.633 268.034H397.64Z" fill="#4F2B2B"/>
<path d="M407.681 296.136L397.647 268.035C393.912 287.038 379.087 298.507 362.333 307.891L363.74 311.833L407.688 296.136H407.681Z" fill="#FFBE97"/>
<path d="M365.926 255.187C365.926 266.892 350.658 276.711 338.46 276.711C326.263 276.711 316.372 267.228 316.372 255.523C316.372 243.818 328.391 231.2 340.588 231.2C352.786 231.2 365.926 243.49 365.926 255.187Z" fill="#4F2B2B"/>
<path d="M369.118 297.021C347.115 303.619 326.712 292.25 321.221 273.904C320.092 270.155 319.764 266.356 320.142 262.585C320.15 262.35 320.178 262.128 320.221 261.9C320.228 261.864 320.235 261.835 320.228 261.807C320.278 261.407 320.328 261.021 320.407 260.628C320.435 260.293 320.507 259.964 320.571 259.643C321.099 256.794 322.049 254.001 323.377 251.316C323.377 251.316 323.38 251.304 323.385 251.28C323.956 250.116 324.584 248.981 325.277 247.867C330.612 239.283 339.681 232.184 351.1 228.764C373.103 222.165 395.398 231.685 400.904 250.009C406.41 268.348 391.12 290.436 369.125 297.028L369.118 297.021Z" fill="#FFBE97"/>
<path d="M357.877 272.24C358.255 274.139 355.706 276.246 352.178 276.953C348.65 277.66 345.487 276.696 345.108 274.796C344.73 272.897 347.279 270.79 350.807 270.083C354.335 269.376 357.498 270.34 357.877 272.24Z" fill="#FB8876"/>
<path d="M325.084 265.763L319.392 277.646C318.657 279.181 319.642 280.988 321.335 281.195L329.404 282.202L325.084 265.763Z" fill="#FFBE97"/>
<path d="M334.689 273.618C335.567 273.439 336.139 272.59 335.96 271.711L335.446 269.14C335.267 268.262 334.418 267.691 333.539 267.869C332.661 268.048 332.089 268.898 332.268 269.776L332.782 272.347C332.961 273.225 333.811 273.797 334.689 273.618Z" fill="#28151F"/>
<path d="M357.021 244.796L399.783 270.312C399.783 270.312 408.967 248.181 394.441 234.563C368.625 210.361 325.834 234.598 325.277 247.86L357.021 244.796Z" fill="#4F2B2B"/>
<path d="M326.756 264.012C326.484 264.012 326.22 263.862 326.084 263.605C325.892 263.234 326.034 262.77 326.406 262.577C330.805 260.256 336.082 259.685 340.881 261.006C341.288 261.12 341.524 261.534 341.41 261.941C341.295 262.348 340.881 262.584 340.474 262.477C336.047 261.256 331.176 261.784 327.113 263.926C326.998 263.984 326.877 264.012 326.756 264.012Z" fill="#4F2B2B"/>
<path d="M340.938 288.108C340.503 288.108 340.131 288.087 339.831 288.058C338.36 287.916 336.568 287.437 335.961 286.509C335.732 286.159 335.832 285.687 336.182 285.452C336.532 285.223 337.003 285.323 337.239 285.673C337.353 285.845 338.282 286.394 340.081 286.544C341.574 286.666 345.366 286.623 348.408 283.474C348.701 283.174 349.179 283.167 349.486 283.459C349.793 283.752 349.801 284.231 349.508 284.538C346.573 287.573 343.052 288.108 340.952 288.108H340.938Z" fill="#4F2B2B"/>
<path d="M206.467 279.194C206.231 279.194 205.995 279.087 205.852 278.88C202.218 273.881 198.461 268.703 196.069 262.819C192.748 254.635 193.055 245.815 196.919 238.603C197.119 238.231 197.583 238.088 197.947 238.288C198.318 238.488 198.454 238.945 198.261 239.317C194.612 246.122 194.326 254.478 197.476 262.241C199.797 267.954 203.496 273.045 207.081 277.98C207.331 278.323 207.252 278.794 206.909 279.044C206.774 279.144 206.617 279.187 206.46 279.187L206.467 279.194Z" fill="#4F2B2B"/>
<path d="M190.855 269.926C190.52 269.926 190.213 269.704 190.12 269.369L187.278 259.106C186.228 255.329 185.149 251.422 185.199 247.359C185.278 241.132 188.185 235.04 192.984 231.07C193.305 230.798 193.79 230.848 194.055 231.169C194.319 231.491 194.276 231.976 193.955 232.241C189.499 235.933 186.799 241.596 186.721 247.38C186.671 251.222 187.727 255.022 188.742 258.699L191.584 268.962C191.698 269.369 191.455 269.79 191.055 269.897C190.984 269.918 190.92 269.926 190.848 269.926H190.855Z" fill="#4F2B2B"/>
<path d="M178.936 255.5C178.643 255.5 178.372 255.335 178.243 255.057C173.058 243.666 176.251 228.862 185.684 220.628C185.999 220.35 186.484 220.386 186.756 220.7C187.034 221.014 186.998 221.5 186.684 221.778C177.743 229.584 174.708 243.624 179.628 254.428C179.8 254.814 179.628 255.264 179.25 255.435C179.15 255.478 179.043 255.507 178.936 255.507V255.5Z" fill="#4F2B2B"/>
<path d="M238.182 302.269H221.142C218.793 302.269 216.879 300.362 216.879 298.005C216.879 295.656 218.786 293.742 221.142 293.742H238.182C240.531 293.742 242.445 295.649 242.445 298.005C242.445 300.355 240.538 302.269 238.182 302.269Z" fill="#2B6577"/>
<path d="M214.585 381.195C219.168 381.195 222.884 379.488 222.884 377.382C222.884 375.276 219.168 373.568 214.585 373.568C210.002 373.568 206.287 375.276 206.287 377.382C206.287 379.488 210.002 381.195 214.585 381.195Z" fill="#BF8888"/>
<path d="M235.546 313.796H231.511C231.089 313.796 230.747 313.453 230.747 313.032C230.747 312.611 231.089 312.268 231.511 312.268H235.546C235.967 312.268 236.31 312.611 236.31 313.032C236.31 313.453 235.967 313.796 235.546 313.796Z" fill="#4F2B2B"/>
<path d="M235.546 319.844H231.511C231.089 319.844 230.747 319.502 230.747 319.08C230.747 318.659 231.089 318.316 231.511 318.316H235.546C235.967 318.316 236.31 318.659 236.31 319.08C236.31 319.502 235.967 319.844 235.546 319.844Z" fill="#4F2B2B"/>
<path d="M235.546 325.901H231.511C231.089 325.901 230.747 325.558 230.747 325.137C230.747 324.716 231.089 324.373 231.511 324.373H235.546C235.967 324.373 236.31 324.716 236.31 325.137C236.31 325.558 235.967 325.901 235.546 325.901Z" fill="#4F2B2B"/>
<path d="M235.546 331.957H231.511C231.089 331.957 230.747 331.614 230.747 331.192C230.747 330.771 231.089 330.428 231.511 330.428H235.546C235.967 330.428 236.31 330.771 236.31 331.192C236.31 331.614 235.967 331.957 235.546 331.957Z" fill="#4F2B2B"/>
<path d="M235.546 338.004H231.511C231.089 338.004 230.747 337.661 230.747 337.24C230.747 336.818 231.089 336.476 231.511 336.476H235.546C235.967 336.476 236.31 336.818 236.31 337.24C236.31 337.661 235.967 338.004 235.546 338.004Z" fill="#4F2B2B"/>
<path d="M235.546 344.059H231.511C231.089 344.059 230.747 343.717 230.747 343.295C230.747 342.874 231.089 342.531 231.511 342.531H235.546C235.967 342.531 236.31 342.874 236.31 343.295C236.31 343.717 235.967 344.059 235.546 344.059Z" fill="#4F2B2B"/>
<g opacity="0.46">
<path d="M347.044 277.505L330.297 280.354C328.441 280.669 326.612 279.676 325.863 277.948L322.877 271.056C321.821 268.621 323.327 265.85 325.941 265.4L347.094 261.801C349.893 261.323 352.314 263.779 351.8 266.579L350.379 274.22C350.065 275.905 348.736 277.219 347.044 277.505Z" fill="white"/>
</g>
<path d="M322.877 271.813C322.584 271.813 322.306 271.642 322.177 271.356C321.584 269.978 321.649 268.435 322.363 267.121C323.077 265.8 324.334 264.9 325.812 264.65L346.965 261.051C348.529 260.78 350.121 261.301 351.235 262.429C352.349 263.558 352.835 265.157 352.549 266.714C352.471 267.128 352.071 267.4 351.664 267.321C351.25 267.243 350.978 266.85 351.057 266.436C351.257 265.35 350.928 264.279 350.157 263.493C349.386 262.708 348.314 262.365 347.229 262.551L326.076 266.15C325.062 266.321 324.198 266.943 323.713 267.842C323.22 268.742 323.177 269.806 323.584 270.749C323.748 271.135 323.577 271.584 323.184 271.749C323.084 271.792 322.984 271.813 322.884 271.813H322.877Z" fill="#0151A1"/>
<path d="M324.598 276.205L320.621 276.883C319.478 277.076 318.393 276.305 318.193 275.162C318 274.02 318.771 272.934 319.914 272.734L323.891 272.056C325.034 271.863 326.12 272.634 326.319 273.777C326.512 274.919 325.741 276.005 324.598 276.205Z" fill="#0151A1"/>
<path d="M361.976 265.522L351.007 268.986L349.843 263.215L361.227 261.816L361.976 265.522Z" fill="#0151A1"/>
<path d="M359.648 264.864C359.305 264.864 358.991 264.628 358.905 264.285C358.805 263.878 359.055 263.464 359.462 263.364L388.556 256.301C388.842 256.237 389.142 256.337 389.327 256.558L393.027 261.1C393.291 261.429 393.241 261.907 392.92 262.171C392.598 262.436 392.113 262.393 391.848 262.064L388.449 257.894L359.827 264.842C359.762 264.857 359.705 264.864 359.648 264.864Z" fill="#0151A1"/>
<path d="M393.043 271.844C397.515 269.552 399.282 264.069 396.989 259.597C394.697 255.126 389.214 253.359 384.743 255.651C380.271 257.943 378.505 263.426 380.797 267.898C383.089 272.369 388.572 274.136 393.043 271.844Z" fill="#FFBE97"/>
<path d="M391.983 264.364L387.098 266.349C386.313 266.67 385.413 266.292 385.092 265.506C384.77 264.721 385.149 263.821 385.934 263.5L390.819 261.514C391.604 261.193 392.504 261.572 392.826 262.357C393.147 263.143 392.768 264.042 391.983 264.364Z" fill="#4F2B2B"/>
<path d="M418.207 259.133C424.085 266.353 427.362 275.266 431.433 283.635C435.504 292.005 440.852 300.339 449.136 304.588C434.918 303.402 421.892 295.24 412.616 284.706C408.124 279.608 404.296 273.787 401.853 267.431C400.104 262.882 396.762 255.141 399.34 250.335C399.925 249.235 400.768 248.436 401.982 248.064C407.16 246.493 415.372 255.641 418.207 259.133Z" fill="#4F2B2B"/>
<path d="M340.139 233.214C340.139 233.214 325.099 234.935 321.757 245.768C317.051 261.015 361.67 259.223 361.67 259.223C361.67 259.223 357.635 253.838 357.407 251.374L378.259 264.157L383.194 272.006L380.502 248.461L340.146 233.214H340.139Z" fill="#4F2B2B"/>
</g>
<defs>
<clipPath id="clip0_760_14284">
<rect width="460" height="460" fill="white"/>
</clipPath>
</defs>
</svg>
