<svg width="460" height="460" viewBox="0 0 460 460" fill="none" xmlns="http://www.w3.org/2000/svg">
<g clip-path="url(#clip0_760_15240)">
<rect width="460" height="460" fill="white"/>
<path d="M427.714 48.6259C426.785 49.6526 426.652 51.117 427.27 52.2722L365.498 92.9935C365.393 92.8614 365.277 92.7346 365.149 92.617C363.837 91.4347 361.819 91.538 360.635 92.8468C359.451 94.1556 359.556 96.177 360.865 97.3607C361.074 97.5496 361.302 97.7029 361.542 97.8272L346.158 135.941C345.012 135.599 343.724 135.912 342.871 136.858C341.687 138.167 341.792 140.189 343.101 141.372C343.681 141.894 344.399 142.165 345.122 142.194L347.594 187.272C346.885 187.378 346.208 187.719 345.689 188.291C345.129 188.913 344.861 189.693 344.868 190.467L238.747 201.474C238.62 200.823 238.288 200.203 237.758 199.723C236.449 198.539 234.428 198.643 233.244 199.952C232.06 201.261 232.165 203.283 233.474 204.466C233.856 204.81 234.298 205.041 234.761 205.17L211.861 332.103C210.556 331.151 208.715 331.321 207.608 332.545C206.425 333.854 206.529 335.875 207.838 337.059C207.958 337.167 208.083 337.26 208.215 337.346L185.765 379.118C184.545 378.602 183.084 378.879 182.147 379.916C181.676 380.438 181.412 381.074 181.344 381.724L121.366 380.964L121.736 380.245L120.787 380.959L120.425 380.955L120.519 381.162L39.2385 442.251C39.1673 442.174 39.0935 442.099 39.0145 442.026C37.7057 440.843 35.6842 440.947 34.5006 442.256C33.3169 443.565 33.4215 445.586 34.7303 446.77C36.0391 447.953 38.0605 447.849 39.2442 446.54C39.6841 446.054 39.9447 445.466 40.0324 444.861L85.6685 447.284C85.7265 447.348 85.7871 447.41 85.853 447.469C86.1786 447.765 86.5517 447.978 86.9434 448.116L68.2678 523.385C67.2415 523.231 66.1632 523.574 65.4155 524.402C64.2318 525.71 64.3364 527.732 65.6452 528.915C66.954 530.099 68.9754 529.995 70.1591 528.686C70.6267 528.169 70.8913 527.536 70.9593 526.892L124.73 527.798C124.79 528.586 125.137 529.355 125.772 529.928C126.624 530.697 127.773 530.919 128.797 530.626L142.746 566.293C142.4 566.465 142.079 566.701 141.806 567.006C140.622 568.314 140.727 570.336 142.035 571.519C143.344 572.703 145.366 572.598 146.549 571.29C147.267 570.494 147.508 569.437 147.297 568.464L187.761 555.601C187.936 556.019 188.201 556.404 188.561 556.729C189.736 557.791 191.482 557.814 192.685 556.862L221.306 589.565C220.15 590.876 220.26 592.875 221.561 594.05C222.87 595.233 224.891 595.129 226.075 593.82C226.281 593.592 226.446 593.342 226.574 593.076L257.362 603.736C257.091 604.84 257.42 606.055 258.324 606.87C258.559 607.082 258.817 607.25 259.089 607.379L241.943 653.848C240.822 653.55 239.578 653.87 238.748 654.791C237.564 656.1 237.669 658.122 238.978 659.305C240.287 660.489 242.308 660.384 243.492 659.075C243.579 658.979 243.654 658.879 243.728 658.776L307.036 695.234C306.468 696.47 306.737 697.981 307.798 698.939C309.107 700.122 311.128 700.018 312.312 698.709C313.496 697.4 313.391 695.379 312.082 694.195C311.709 693.857 311.275 693.628 310.822 693.498L330.749 588.446C331.663 588.482 332.585 588.128 333.245 587.396C334.429 586.087 334.324 584.066 333.015 582.882C331.707 581.699 329.685 581.803 328.501 583.112C328.385 583.243 328.283 583.382 328.19 583.525L293.927 568.017C294.369 566.828 294.076 565.434 293.076 564.532C292.752 564.239 292.381 564.024 291.993 563.888L310.909 476.994C311.907 477.116 312.945 476.767 313.671 475.967C314.854 474.658 314.75 472.636 313.441 471.453C312.132 470.269 310.111 470.374 308.927 471.682C308.655 471.983 308.455 472.323 308.319 472.678L268.724 461.537C268.917 460.484 268.58 459.357 267.724 458.587L267.956 458.768L332.235 376.268C333.529 377.097 335.265 376.897 336.327 375.722C336.876 375.115 337.143 374.356 337.148 373.598L380.714 369.827C380.835 370.499 381.167 371.138 381.715 371.629C383.026 372.811 385.045 372.708 386.229 371.399C387.412 370.09 387.308 368.069 385.999 366.885C385.489 366.424 384.869 366.16 384.233 366.088L385.936 300.065C386.737 300.012 387.516 299.663 388.096 299.021C389.28 297.712 389.175 295.691 387.866 294.507C387.321 294.015 386.653 293.747 385.973 293.698L385.384 253.262C386.139 253.182 386.866 252.836 387.414 252.23C388.598 250.921 388.493 248.9 387.185 247.716C387.046 247.59 386.897 247.483 386.747 247.387L419.068 180.663C420.247 181.077 421.609 180.774 422.5 179.789C423.168 179.047 423.427 178.078 423.285 177.159L472.413 163.906C472.584 164.395 472.876 164.849 473.286 165.222C474.595 166.405 476.616 166.301 477.8 164.992C478.982 163.68 478.879 161.662 477.57 160.478C477.56 160.47 477.549 160.462 477.541 160.453L497.468 126.769L508.001 108.964C509.189 109.397 510.572 109.103 511.473 108.107C512.657 106.798 512.552 104.776 511.244 103.593C510.225 102.673 508.78 102.533 507.63 103.129L478.859 67.7913C478.889 67.7597 478.924 67.7294 478.956 67.6938C480.139 66.385 480.035 64.3635 478.726 63.1799C477.417 61.9962 475.396 62.1008 474.212 63.4096C473.932 63.7207 473.724 64.0714 473.589 64.442L433.204 51.4596C433.445 50.374 433.113 49.1941 432.228 48.3962C430.919 47.2125 428.897 47.3171 427.714 48.6259ZM505.943 105.484C505.789 106.51 506.132 107.589 506.96 108.336C507.12 108.48 507.29 108.603 507.466 108.71L495.523 128.899L477.064 160.104C476.797 159.944 476.512 159.829 476.218 159.755L476.816 99.788L505.94 105.485L505.943 105.484ZM382.677 297.84L354.833 309.533L336.017 271.246C336.272 271.089 336.512 270.897 336.722 270.663C336.823 270.554 336.909 270.435 336.991 270.315L382.795 295.602C382.484 296.314 382.446 297.111 382.677 297.84ZM382.189 366.537C381.934 366.693 381.694 366.886 381.484 367.119C381.361 367.256 381.257 367.397 381.163 367.546L310.091 331.079C310.367 330.391 310.393 329.63 310.173 328.932L354.552 310.293L382.192 366.535L382.189 366.537ZM125.393 521.675L162.978 518.305L130.923 526.487C130.752 526.005 130.46 525.557 130.054 525.186C129.137 524.358 127.873 524.164 126.792 524.568L125.393 521.675ZM69.9267 524.173C69.5985 523.879 69.228 523.664 68.8363 523.527L87.5159 448.259C88.0541 448.34 88.6057 448.282 89.1165 448.09L124.487 521.161L70.9221 525.965C70.8002 525.297 70.4671 524.662 69.9254 524.171L69.9267 524.173ZM237.008 204.975C237.334 204.816 237.635 204.6 237.902 204.329L278.93 237.531C278.063 238.827 278.254 240.598 279.446 241.675L260.331 267.273L237.008 204.975ZM473.693 66.9252C473.724 66.9859 473.755 67.0493 473.791 67.1074L433.207 88.6834C433.06 88.4602 432.887 88.2529 432.681 88.0653C432.14 87.5739 431.474 87.3092 430.797 87.2544L430.69 77.9486L473.693 66.9252ZM373.601 133.141L362.564 141.492C362.497 141.417 362.424 141.344 362.347 141.274C361.862 140.837 361.28 140.576 360.681 140.486L361.273 130.215L426.747 92.9363L373.601 133.141ZM362.92 141.961L401.519 112.76L428.18 92.591C428.247 92.6663 428.319 92.7389 428.397 92.8089C428.83 93.1999 429.339 93.4473 429.873 93.56L422.741 153.626L363.394 143.87C363.439 143.208 363.281 142.539 362.924 141.962L362.92 141.961ZM430.207 87.2616C429.448 87.3399 428.717 87.6848 428.168 88.295C427.634 88.8842 427.364 89.6188 427.346 90.3563L366.181 94.4825L430.103 78.0997L430.208 87.2643L430.207 87.2616ZM365.376 97.1322C365.91 96.5431 366.18 95.8085 366.198 95.0709L427.385 90.9435C427.431 91.2206 427.511 91.4938 427.627 91.7525L361.314 129.509L363.116 98.1799C363.951 98.1492 364.772 97.7991 365.375 97.1296L365.376 97.1322ZM362.527 98.1502L360.704 129.86L347.86 137.173C347.725 136.98 347.567 136.795 347.386 136.631C347.177 136.442 346.948 136.289 346.708 136.165L362.092 98.0507C362.236 98.0944 362.382 98.1302 362.531 98.1515L362.527 98.1502ZM348.367 139.663C348.505 139.001 348.436 138.307 348.153 137.686L360.662 130.563L360.094 140.452C359.259 140.483 358.438 140.833 357.835 141.502C357.584 141.779 357.394 142.092 357.258 142.42L348.367 139.663ZM360.646 146.81L369.922 186.274L351.14 189.592C350.985 189.023 350.673 188.49 350.203 188.062C349.885 187.775 349.524 187.566 349.145 187.428L359.691 146.798C360.006 146.848 360.328 146.853 360.646 146.81ZM383.279 247.428C383.062 247.573 382.854 247.745 382.669 247.95C382.309 248.35 382.068 248.813 381.945 249.3L338.802 244.876L347.802 193.62C348.382 193.667 348.967 193.557 349.495 193.293L383.281 247.43L383.279 247.428ZM262.481 461.738L229.93 471.595C229.757 471.135 229.476 470.704 229.083 470.353C228.892 470.181 228.686 470.04 228.469 469.921L232.056 458.147L262.392 461.163C262.404 461.358 262.434 461.551 262.48 461.742L262.481 461.738ZM262.244 601.853C261.395 601.28 260.341 601.163 259.411 601.485L250.578 582.157L288.113 568.397C288.283 568.718 288.508 569.018 288.792 569.276L262.243 601.85L262.244 601.853ZM287.886 567.855L250.331 581.621L222.854 521.486C223.138 521.322 223.404 521.114 223.635 520.857C223.66 520.828 223.684 520.796 223.709 520.767L288.127 565.384C287.712 566.151 287.636 567.043 287.884 567.852L287.886 567.855ZM283.959 241.449C284.059 241.34 284.144 241.225 284.226 241.105L331.426 267.242C331.06 268.074 331.069 269.025 331.443 269.847L296.787 289.652L282.771 242.272C283.21 242.096 283.618 241.823 283.959 241.449ZM331.738 270.36C331.874 270.552 332.029 270.732 332.211 270.898C332.398 271.069 332.603 271.208 332.816 271.325L308.583 327.058C308.322 326.924 308.05 326.829 307.772 326.773L296.963 290.236L331.739 270.362L331.738 270.36ZM307.135 326.705C306.723 326.706 306.313 326.782 305.929 326.937L278.832 306.845L276.207 304.9C276.753 304.005 276.815 302.912 276.412 301.973L296.433 290.53L307.132 326.7L307.135 326.705ZM275.85 305.381C275.85 305.381 275.853 305.38 275.855 305.379L278.469 307.316L305.352 327.248C305.139 327.39 304.937 327.56 304.756 327.759C304.459 328.089 304.243 328.463 304.106 328.855L276.465 330.485L274.125 306.37C274.767 306.238 275.378 305.91 275.851 305.384L275.85 305.381ZM282.204 242.439L296.261 289.953L276.129 301.458C275.987 301.245 275.818 301.046 275.62 300.867C275.208 300.496 274.726 300.251 274.221 300.131L281.48 242.5C281.721 242.509 281.964 242.487 282.204 242.439ZM212.963 333.551L270.793 304.965C270.942 305.198 271.124 305.417 271.336 305.611C271.965 306.178 272.755 306.446 273.539 306.431L275.874 330.516L213.139 334.215C213.105 333.988 213.044 333.768 212.96 333.553L212.963 333.551ZM275.933 331.103L278.653 359.126C278.058 359.274 277.502 359.594 277.061 360.084C276.889 360.275 276.745 360.482 276.629 360.699L238.023 345.452L213.049 335.588C213.124 335.33 213.168 335.067 213.175 334.804L275.933 331.103ZM91.1418 444.542L119.509 437.051L137.044 432.423C137.217 432.897 137.502 433.335 137.904 433.698C138.691 434.41 139.734 434.652 140.699 434.451L145.348 449.568L91.1927 445.021C91.1876 444.859 91.1707 444.699 91.1445 444.541L91.1418 444.542ZM236.678 432.842L189.368 451.864C189.196 451.531 188.967 451.217 188.67 450.953C188.161 450.494 187.545 450.231 186.911 450.155L186.35 431.905L236.557 432.21C236.576 432.425 236.616 432.639 236.677 432.846L236.678 432.842ZM186.321 450.136C185.52 450.189 184.737 450.537 184.156 451.183C184.01 451.345 183.884 451.516 183.777 451.698L143.047 432.423C143.138 432.17 143.195 431.907 143.222 431.644L185.761 431.902L186.322 450.139L186.321 450.136ZM141.262 434.279C141.689 434.102 142.086 433.835 142.418 433.469C142.562 433.308 142.69 433.135 142.796 432.957L157.341 439.848L183.518 452.249C183.457 452.418 183.414 452.591 183.383 452.765L145.979 449.623L141.258 434.277L141.262 434.279ZM183.336 453.352C183.344 454.215 183.695 455.072 184.386 455.696C184.667 455.949 184.979 456.139 185.307 456.275L167.27 514.562C166.836 514.472 166.391 514.473 165.958 514.564L146.171 450.233L183.337 453.355L183.336 453.352ZM168.752 515.314C168.471 515.061 168.159 514.871 167.831 514.735L185.868 456.448C186.499 456.582 187.16 456.519 187.758 456.27L204.993 488.716L168.984 515.547C168.91 515.466 168.833 515.389 168.749 515.315L168.752 515.314ZM188.279 455.994C188.502 455.846 188.712 455.672 188.9 455.467C188.958 455.405 189.007 455.338 189.057 455.273L224.004 471.484C223.607 472.427 223.683 473.513 224.217 474.391L205.471 488.359L188.279 455.994ZM224.571 470.585C224.462 470.705 224.368 470.834 224.281 470.964L189.373 454.769C189.509 454.5 189.603 454.219 189.66 453.931L231.459 458.085L227.926 469.684C226.766 469.309 225.44 469.618 224.572 470.581L224.571 470.585ZM189.718 453.345C189.72 453.086 189.693 452.826 189.633 452.573L236.903 433.399C237.074 433.729 237.303 434.037 237.597 434.302C237.879 434.557 238.196 434.749 238.531 434.885L231.638 457.512L189.72 453.343L189.718 453.345ZM277.29 364.596C277.325 364.627 277.362 364.655 277.4 364.685L255.883 402.762L241.048 429.012C240.428 428.734 239.742 428.667 239.09 428.801L222.428 374.355L276.322 362.958C276.465 363.569 276.787 364.144 277.29 364.596ZM237.177 430.015C236.816 430.495 236.614 431.048 236.559 431.612L186.329 431.309L184.912 385.237C185.554 385.157 186.176 384.883 186.683 384.419L237.177 430.015ZM184.322 385.257L185.738 431.307L143.223 431.05C143.164 430.364 142.888 429.697 142.394 429.162L182.608 384.628C183.119 385.013 183.718 385.222 184.322 385.257ZM137.67 429.183C136.991 429.937 136.738 430.924 136.891 431.853L124.108 435.226L90.9854 443.971C90.9381 443.849 90.8841 443.728 90.8222 443.61L135.404 414.496L141.702 428.594C140.415 427.811 138.718 428.025 137.67 429.183ZM90.577 446.993C90.8849 446.572 91.0741 446.099 91.1538 445.611L145.536 450.177L165.394 514.733C165.062 514.869 164.752 515.06 164.473 515.307L90.577 446.993ZM169.334 516.019L205.273 489.239L219.512 516.045C219.289 516.193 219.079 516.367 218.891 516.572C218.424 517.089 218.16 517.718 218.091 518.359L169.793 517.448C169.756 516.949 169.603 516.458 169.334 516.019ZM220.033 515.769L205.753 488.885L224.568 474.865C224.642 474.947 224.72 475.024 224.803 475.098C225.23 475.485 225.735 475.731 226.264 475.846L221.365 515.524C220.912 515.509 220.46 515.593 220.037 515.77L220.033 515.769ZM262.413 460.569L232.234 457.57L239.094 435.056C239.96 435.234 240.878 435.05 241.616 434.514L263.086 458.971C262.707 459.447 262.482 460.001 262.411 460.567L262.413 460.569ZM263.497 458.545L242.057 434.123C242.074 434.104 242.093 434.088 242.11 434.07C243.293 432.761 243.189 430.74 241.88 429.556C241.779 429.465 241.67 429.38 241.56 429.304L274.743 370.589L277.889 365.018C278.081 365.124 278.281 365.209 278.484 365.272L265.576 457.769C264.829 457.772 264.087 458.03 263.493 458.544L263.497 458.545ZM279.238 359.035L276.525 331.068L303.967 329.448C303.832 330.415 304.144 331.424 304.879 332.158L281.077 359.483C280.512 359.145 279.873 358.999 279.242 359.037L279.238 359.035ZM331.983 266.381C331.882 266.49 331.798 266.605 331.716 266.725L284.515 240.588C284.609 240.373 284.68 240.15 284.722 239.925L338.114 245.4L334.613 265.343C333.656 265.266 332.676 265.616 331.981 266.385L331.983 266.381ZM345.924 192.809C346.309 193.158 346.757 193.389 347.227 193.518L338.221 244.816L284.785 239.336C284.791 238.753 284.638 238.17 284.33 237.658L345.677 192.559C345.754 192.647 345.835 192.731 345.924 192.809ZM279.924 242.03C280.231 242.217 280.561 242.349 280.901 242.423L273.644 300.043C273.308 300.026 272.972 300.065 272.643 300.153L260.58 267.93L279.922 242.028L279.924 242.03ZM272.092 300.362C271.73 300.536 271.397 300.781 271.109 301.096C270.26 302.037 270.076 303.342 270.522 304.441L212.702 333.022C212.597 332.85 212.475 332.687 212.333 332.533L260.156 268.495L272.085 300.362L272.092 300.362ZM212.356 336.837C212.551 336.621 212.707 336.385 212.832 336.138L276.395 361.241C276.276 361.61 276.224 361.995 276.242 362.375L222.256 373.791L211.195 337.65C211.626 337.475 212.022 337.205 212.356 336.837ZM221.85 374.478L238.527 428.973C238.185 429.114 237.861 429.311 237.575 429.576L187.081 383.98C187.586 383.307 187.785 382.489 187.693 381.697L221.848 374.475L221.85 374.478ZM182.173 384.232L142.273 428.418L135.91 414.168L182.024 384.053C182.071 384.115 182.12 384.173 182.173 384.232ZM90.5009 443.118C90.3928 442.98 90.2756 442.851 90.1425 442.729C90.0093 442.608 89.8656 442.505 89.7193 442.41L120.869 381.943L135.165 413.949L90.5035 443.116L90.5009 443.118ZM89.6537 447.839C89.8029 447.748 89.9482 447.643 90.0842 447.525L90.298 447.537L164.077 515.742C163.637 516.314 163.423 516.995 163.419 517.676L125.121 521.112L89.6524 447.843L89.6537 447.839ZM143.298 566.084L129.349 530.417C129.695 530.244 130.015 530.008 130.289 529.704C130.466 529.51 130.607 529.298 130.728 529.076L156.542 540.05L145.183 566.116C144.571 565.914 143.914 565.905 143.3 566.082L143.298 566.084ZM130.958 528.533C131.111 528.054 131.149 527.548 131.07 527.06L163.599 518.757C163.77 519.238 164.062 519.686 164.468 520.057C164.655 520.228 164.859 520.366 165.069 520.483L156.778 539.511L130.958 528.533ZM165.608 520.718C166.437 520.991 167.345 520.914 168.117 520.499L188.814 551.783C188.643 551.908 188.479 552.056 188.329 552.219C188.176 552.388 188.047 552.571 187.937 552.761L157.316 539.744L165.606 520.72L165.608 520.718ZM189.322 551.48L171.414 524.414L192.356 551.626C191.426 551.064 190.281 551.022 189.322 551.48ZM168.781 520.026C168.848 519.963 168.914 519.897 168.979 519.829C169.447 519.312 169.71 518.683 169.779 518.042L218.077 518.953C218.136 519.745 218.484 520.517 219.12 521.09C219.679 521.596 220.37 521.865 221.069 521.905L223.193 588.529C222.735 588.602 222.288 588.778 221.892 589.048L168.777 520.025L168.781 520.026ZM221.659 521.885C221.882 521.856 222.102 521.809 222.318 521.734L249.777 581.825L226.593 590.324C226.417 589.951 226.169 589.606 225.841 589.311C225.252 588.778 224.519 588.51 223.784 588.491L221.66 521.887L221.659 521.885ZM226.79 590.879L250.019 582.363L258.87 601.735C258.586 601.9 258.32 602.108 258.089 602.365C257.862 602.617 257.683 602.894 257.55 603.188L226.777 592.53C226.925 591.988 226.928 591.42 226.788 590.88L226.79 590.879ZM262.835 606.648C263.989 605.371 263.917 603.422 262.699 602.229L289.14 569.788L242.725 653.438L259.639 607.596C260.76 607.894 262.004 607.573 262.834 606.652L262.835 606.648ZM243.257 654.571C243.149 654.473 243.033 654.386 242.914 654.307L289.76 569.881C290.207 570.057 290.684 570.129 291.155 570.095L297.246 611.773L243.412 654.731C243.359 654.678 243.309 654.624 243.254 654.572L243.257 654.571ZM288.561 564.766C288.522 564.808 288.489 564.854 288.455 564.897L224.046 520.286C224.523 519.445 224.58 518.441 224.24 517.561L248.745 505.344L288.899 564.445C288.78 564.544 288.666 564.647 288.561 564.766ZM223.977 517.033C223.823 516.784 223.634 516.551 223.403 516.344C222.975 515.957 222.47 515.711 221.941 515.596L226.841 475.918C227.407 475.936 227.975 475.801 228.48 475.523L248.406 504.85L223.973 517.032L223.977 517.033ZM228.972 475.188C229.091 475.089 229.207 474.985 229.313 474.867C229.785 474.345 230.048 473.709 230.117 473.061L308.114 474.079C308.139 474.386 308.207 474.688 308.32 474.981L248.946 504.584L228.975 475.187L228.972 475.188ZM308.12 473.489L230.126 472.47C230.118 472.369 230.106 472.266 230.085 472.164L262.676 462.294C262.851 462.678 263.107 463.032 263.437 463.332C264.749 464.514 266.768 464.411 267.951 463.102C268.223 462.802 268.423 462.461 268.559 462.107L308.152 473.249C308.136 473.329 308.127 473.41 308.117 473.49L308.12 473.489ZM266.163 457.822L279.059 365.394C280.05 365.51 281.082 365.161 281.802 364.363C282.124 364.005 282.351 363.592 282.483 363.157L330.781 373.219C330.67 374.187 331.006 375.19 331.767 375.905L267.492 458.399C267.087 458.097 266.633 457.905 266.162 457.82L266.163 457.822ZM331.582 371.441C331.26 371.8 331.034 372.213 330.9 372.645L283.666 362.804L328.858 365.851L332.034 371.025C331.873 371.145 331.718 371.285 331.578 371.44L331.582 371.441ZM282.623 362.141C282.6 361.295 282.25 360.461 281.572 359.849C281.566 359.843 281.557 359.837 281.549 359.828L305.329 332.531C306.294 333.19 307.523 333.256 308.54 332.756L328.484 365.233L282.625 362.14L282.623 362.141ZM309.043 332.449C309.204 332.329 309.358 332.19 309.498 332.034C309.619 331.898 309.726 331.756 309.82 331.607L380.892 368.074C380.804 368.295 380.739 368.522 380.701 368.756L329.204 365.283L309.043 332.449ZM309.943 328.39C309.775 328.072 309.552 327.778 309.269 327.52C309.209 327.467 309.146 327.42 309.085 327.371L333.353 271.555C334.051 271.785 334.805 271.764 335.488 271.506L354.289 309.765L309.943 328.39ZM337.24 267.152C337.066 266.784 336.816 266.44 336.493 266.15C336.108 265.801 335.659 265.569 335.19 265.441L338.697 245.459L381.853 249.883C381.833 250.193 381.859 250.503 381.927 250.805L337.236 267.15L337.24 267.152ZM383.802 247.147L349.996 192.977C350.152 192.86 350.3 192.727 350.434 192.578C351.049 191.895 351.313 191.022 351.243 190.174L370.057 186.849L384.198 247.009C384.062 247.047 383.93 247.093 383.8 247.149L383.802 247.147ZM370.506 186.17L361.222 146.674C361.727 146.505 362.197 146.211 362.579 145.787C362.67 145.685 362.749 145.58 362.827 145.472L406.27 170.135L417.213 176.346C416.984 176.859 416.9 177.419 416.954 177.962L370.509 186.169L370.506 186.17ZM417.756 175.505C417.662 175.608 417.579 175.719 417.501 175.833L363.119 144.96C363.195 144.794 363.253 144.626 363.298 144.452L422.67 154.212L420.266 174.455C419.346 174.416 418.418 174.77 417.756 175.505ZM423.322 153.722L430.457 93.6279C430.981 93.6404 431.504 93.5249 431.98 93.284L473.903 160.045C473.594 160.212 473.308 160.431 473.059 160.706C472.766 161.031 472.552 161.401 472.415 161.789L423.324 153.718L423.322 153.722ZM475.628 159.663C475.231 159.64 474.83 159.688 474.449 159.812L432.478 92.9732C432.631 92.8573 432.776 92.7255 432.907 92.5778C433.24 92.2075 433.467 91.7843 433.6 91.3358L476.225 99.6739L475.625 159.664L475.628 159.663ZM433.717 90.7567C433.77 90.229 433.693 89.6972 433.486 89.2035L474.127 67.5959C474.224 67.7121 474.326 67.8231 474.44 67.9275C475.04 68.4691 475.788 68.7391 476.537 68.7479L476.235 99.0722L433.717 90.7567ZM473.493 66.3656L430.685 77.3378L430.418 53.9434C431.177 53.8651 431.908 53.5203 432.457 52.91C432.702 52.6398 432.888 52.3392 433.023 52.0215L473.436 65.0131C473.36 65.4629 473.378 65.9221 473.493 66.3656ZM427.594 52.7634C427.7 52.8954 427.816 53.0222 427.943 53.1398C428.485 53.6312 429.151 53.8958 429.828 53.9507L430.098 77.4888L366.015 93.9123C365.963 93.7671 365.897 93.6219 365.822 93.4846L427.594 52.7634ZM345.713 142.163C346.422 142.057 347.099 141.716 347.618 141.144C347.869 140.867 348.06 140.555 348.196 140.226L357.087 142.983C356.859 144.06 357.193 145.225 358.068 146.015C358.385 146.302 358.747 146.511 359.125 146.648L348.579 187.279C348.45 187.257 348.318 187.244 348.186 187.237L345.715 142.159L345.713 142.163ZM344.934 191.055C345.003 191.412 345.133 191.759 345.327 192.081L283.98 237.18C283.903 237.092 283.822 237.008 283.733 236.93C282.455 235.774 280.498 235.85 279.305 237.074L238.277 203.871C238.643 203.323 238.821 202.694 238.814 202.064L344.935 191.057L344.934 191.055ZM235.346 205.28C235.719 205.312 236.097 205.278 236.46 205.179L259.915 267.833L212.639 331.138L235.345 205.277L235.346 205.28ZM208.74 337.631C209.343 337.888 210.005 337.947 210.633 337.818L221.677 373.908L187.572 381.118C187.407 380.587 187.107 380.091 186.664 379.692C186.544 379.584 186.419 379.491 186.287 379.405L208.737 337.633L208.74 337.631ZM181.341 382.319C181.376 382.747 181.497 383.168 181.7 383.555L135.665 413.617L121.345 381.557L181.34 382.317L181.341 382.319ZM40.0687 444.273C40.0469 443.733 39.8879 443.196 39.5968 442.725L120.036 382.27L89.1958 442.14C87.9878 441.654 86.5533 441.938 85.6286 442.959C84.6814 444.008 84.5623 445.508 85.2193 446.674L40.0674 444.277L40.0687 444.273ZM73.3388 526.342L124.767 521.73L126.262 524.822C126.001 524.978 125.757 525.176 125.543 525.415C125.075 525.931 124.81 526.564 124.74 527.209L73.3362 526.344L73.3388 526.342ZM147.122 567.902C146.947 567.485 146.681 567.097 146.322 566.774C146.135 566.604 145.932 566.468 145.721 566.349L157.084 540.278L187.694 553.291C187.494 553.856 187.463 554.461 187.586 555.039L147.122 567.902ZM193.114 556.453C193.854 555.603 194.066 554.469 193.769 553.456L217.654 584.496L193.115 556.456L193.114 556.453ZM244.026 658.269C244.482 657.273 244.394 656.104 243.789 655.182L297.35 612.44L309.19 693.458C308.587 693.604 308.019 693.926 307.57 694.421C307.482 694.517 307.405 694.618 307.333 694.72L244.024 658.266L244.026 658.269ZM310.243 693.388C310.087 693.373 309.929 693.367 309.772 693.376L297.885 612.018L328.61 587.502C328.651 587.544 328.692 587.586 328.735 587.627C329.156 588.008 329.65 588.252 330.167 588.37L310.243 693.388ZM327.919 584.046C327.518 585.027 327.629 586.155 328.233 587.044L297.787 611.338L291.746 569.991C292.33 569.839 292.878 569.523 293.311 569.043C293.451 568.888 293.573 568.722 293.677 568.547L327.919 584.046ZM291.424 563.744C290.731 563.637 290.015 563.761 289.393 564.107L249.284 505.072L308.587 475.504C308.742 475.754 308.93 475.986 309.162 476.194C309.514 476.509 309.915 476.731 310.338 476.867L291.426 563.742L291.424 563.744ZM336.1 371.206C335.1 370.304 333.686 370.152 332.545 370.714L329.586 365.896L380.012 369.297L337.098 373.01C336.978 372.338 336.646 371.699 336.096 371.205L336.1 371.206ZM383.646 366.074C383.331 366.096 383.018 366.163 382.722 366.277L355.098 310.064L382.909 298.383C383.077 298.702 383.301 298.999 383.583 299.254C384.094 299.715 384.713 299.979 385.349 300.051L383.646 366.074ZM385.383 293.705C384.628 293.785 383.901 294.131 383.352 294.737C383.252 294.847 383.166 294.965 383.084 295.085L337.28 269.799C337.571 269.133 337.622 268.395 337.442 267.704L382.117 251.364C382.292 251.767 382.552 252.145 382.903 252.458C383.449 252.951 384.116 253.218 384.797 253.268L385.385 293.704L385.383 293.705ZM386.221 247.118C385.76 246.936 385.267 246.865 384.783 246.906L370.641 186.746L417.063 178.544C417.222 179.095 417.529 179.611 417.987 180.022C418.16 180.176 418.34 180.307 418.534 180.418L386.223 247.124L386.221 247.118ZM423.145 176.587C422.974 176.098 422.681 175.644 422.271 175.271C421.852 174.894 421.364 174.649 420.851 174.532L423.254 154.306L472.275 162.367C472.227 162.687 472.225 163.014 472.275 163.332L423.145 176.587ZM507.131 103.451C506.989 103.561 506.855 103.684 506.73 103.822C506.434 104.148 506.22 104.518 506.082 104.91L476.823 99.1877L477.127 68.701C477.58 68.6237 478.019 68.4474 478.407 68.1747L507.129 103.452L507.131 103.451Z" fill="#2B6577"/>
<path d="M-124.729 129.472C-123.908 130.586 -122.499 131.009 -121.244 130.633L-93.6556 199.284C-93.8061 199.361 -93.9534 199.449 -94.0942 199.551C-95.5142 200.6 -95.8155 202.599 -94.769 204.02C-93.7224 205.441 -91.7207 205.741 -90.2999 204.695C-90.073 204.527 -89.8773 204.334 -89.7076 204.124L-55.4258 226.798C-55.9891 227.853 -55.9396 229.177 -55.1824 230.202C-54.1359 231.623 -52.1342 231.923 -50.7133 230.877C-50.0864 230.413 -49.6773 229.762 -49.5052 229.06L-4.83915 235.625C-4.87647 236.34 -4.67738 237.072 -4.22035 237.695C-3.72239 238.368 -3.0119 238.785 -2.25155 238.933L-12.6225 345.118C-13.2867 345.113 -13.9596 345.314 -14.5365 345.738C-15.9573 346.784 -16.2578 348.786 -15.2113 350.207C-14.1647 351.628 -12.163 351.928 -10.7422 350.882C-10.3294 350.576 -10.0146 350.189 -9.79639 349.761L110.023 397.507C108.831 398.596 108.63 400.434 109.609 401.763C110.655 403.184 112.657 403.484 114.078 402.438C114.208 402.342 114.324 402.237 114.434 402.125L150.892 432.453C150.143 433.546 150.123 435.033 150.953 436.157C151.37 436.723 151.941 437.108 152.565 437.304L139.861 495.927L139.231 495.421L139.741 496.494L139.665 496.847L139.887 496.797L183.545 588.624C183.455 588.679 183.367 588.736 183.28 588.799C181.859 589.846 181.558 591.847 182.605 593.268C183.652 594.689 185.653 594.99 187.074 593.943C188.495 592.896 188.795 590.895 187.749 589.474C187.36 588.946 186.836 588.573 186.261 588.367L197.734 544.13C197.807 544.086 197.88 544.039 197.952 543.986C198.306 543.726 198.589 543.403 198.802 543.046L268.837 576.353C268.482 577.328 268.603 578.453 269.265 579.351C270.312 580.772 272.313 581.072 273.734 580.026C275.155 578.979 275.455 576.978 274.409 575.557C273.996 574.996 273.428 574.61 272.811 574.415L284.418 521.905C285.202 522.003 286.026 521.816 286.714 521.308C287.637 520.627 288.084 519.545 288.001 518.483L325.732 511.925C325.832 512.298 326 512.66 326.243 512.988C327.29 514.409 329.292 514.71 330.712 513.663C332.133 512.617 332.434 510.615 331.387 509.194C330.75 508.332 329.763 507.885 328.768 507.898L324.23 465.682C324.674 465.594 325.105 465.411 325.495 465.123C326.77 464.183 327.141 462.477 326.447 461.108L364.2 439.582C365.254 440.976 367.235 441.267 368.645 440.226C370.066 439.18 370.367 437.178 369.32 435.757C369.138 435.51 368.925 435.298 368.691 435.119L385.275 407.075C386.303 407.56 387.558 407.48 388.537 406.757C388.793 406.569 389.009 406.349 389.188 406.109L431.306 432.174C430.791 433.214 430.857 434.497 431.594 435.494C432.641 436.915 434.642 437.215 436.063 436.169C437.484 435.122 437.785 433.12 436.738 431.7C436.661 431.595 436.578 431.501 436.492 431.408L484.839 376.64C485.937 377.442 487.471 377.48 488.621 376.631C490.042 375.585 490.343 373.583 489.296 372.162C488.25 370.742 486.248 370.441 484.827 371.488C484.421 371.786 484.111 372.165 483.893 372.584L384.923 332.113C385.14 331.224 384.977 330.251 384.392 329.457C383.345 328.037 381.343 327.736 379.923 328.783C378.502 329.829 378.201 331.831 379.248 333.252C379.352 333.392 379.469 333.519 379.59 333.64L357.563 364.123C356.485 363.452 355.062 363.461 353.978 364.262C353.626 364.521 353.342 364.841 353.131 365.194L271.753 329.334C272.071 328.381 271.936 327.294 271.296 326.423C270.25 325.003 268.248 324.702 266.827 325.749C265.406 326.795 265.106 328.797 266.153 330.218C266.393 330.544 266.686 330.808 267.007 331.012L248.195 367.591C247.203 367.191 246.031 367.298 245.105 367.982L245.329 367.791L177.301 288.355C178.371 287.253 178.521 285.511 177.581 284.236C177.096 283.578 176.405 283.164 175.664 283.009L180.654 239.565C181.336 239.581 182.028 239.383 182.619 238.944C184.039 237.894 184.341 235.895 183.294 234.475C182.248 233.054 180.246 232.753 178.825 233.8C178.272 234.208 177.889 234.762 177.691 235.371L113.334 220.539C113.441 219.744 113.255 218.911 112.741 218.215C111.695 216.794 109.693 216.494 108.272 217.54C107.681 217.977 107.286 218.577 107.101 219.234L67.36 211.75C67.4324 210.994 67.2382 210.212 66.7534 209.554C65.7068 208.133 63.7052 207.833 62.2844 208.879C62.1338 208.99 61.9992 209.115 61.8747 209.243L2.93385 164.267C3.57491 163.195 3.5493 161.8 2.76203 160.731C2.16812 159.928 1.26963 159.481 0.341415 159.437L-2.85086 108.653C-2.33822 108.583 -1.83483 108.387 -1.38804 108.059C0.0327785 107.013 0.33329 105.011 -0.713227 103.59C-1.76265 102.17 -3.76149 101.869 -5.18232 102.916C-5.1922 102.924 -5.20204 102.933 -5.21269 102.939L-34.2474 76.697L-49.5951 62.8256C-48.9341 61.7475 -48.9464 60.3336 -49.7432 59.252C-50.7897 57.8312 -52.7914 57.5307 -54.2122 58.5773C-55.3164 59.3923 -55.7417 60.7799 -55.3866 62.0256L-95.7513 83.174C-95.7763 83.1379 -95.7991 83.0982 -95.8276 83.06C-96.8742 81.6392 -98.8759 81.3387 -100.297 82.3853C-101.718 83.4318 -102.018 85.4335 -100.972 86.8543C-100.723 87.1908 -100.42 87.4641 -100.084 87.6702L-120.857 124.656C-121.873 124.204 -123.095 124.294 -124.054 125.003C-125.475 126.049 -125.775 128.051 -124.729 129.472ZM-53.4158 64.1487C-52.4408 64.5044 -51.3157 64.3831 -50.418 63.7211C-50.2449 63.5922 -50.0905 63.4501 -49.9506 63.2996L-32.548 79.0271L-5.6497 103.337C-5.8598 103.567 -6.02936 103.824 -6.16074 104.097L-64.8043 91.5552L-53.415 64.1515L-53.4158 64.1487ZM110.503 223.289L116.411 252.906L75.1407 263.711C75.0379 263.43 74.8974 263.156 74.7106 262.904C74.6234 262.783 74.5243 262.676 74.423 262.571L108.334 222.728C108.97 223.175 109.743 223.371 110.503 223.289ZM177.724 237.464C177.827 237.745 177.967 238.019 178.154 238.271C178.264 238.419 178.381 238.549 178.508 238.671L128.604 301.046C127.985 300.637 127.244 300.46 126.516 300.536L117.099 253.332L177.723 237.461L177.724 237.464ZM278.551 520.035L282.741 482.532L284.368 515.574C283.862 515.646 283.365 515.843 282.921 516.167C281.926 516.901 281.484 518.1 281.664 519.24L278.551 520.035ZM269.941 574.885C269.586 575.148 269.303 575.468 269.09 575.825L199.057 542.514C199.244 542.003 199.297 541.451 199.211 540.912L277.866 520.82L271.895 574.267C271.216 574.253 270.527 574.453 269.938 574.886L269.941 574.885ZM-9.5385 347.52C-9.62956 347.169 -9.78125 346.831 -9.99409 346.515L30.7218 312.93C31.8189 314.038 33.5922 314.204 34.885 313.25L56.1583 337.085L-9.5385 347.52ZM-97.6299 88.0634C-97.5644 88.0458 -97.496 88.0275 -97.432 88.0042L-84.3802 132.075C-84.6283 132.175 -84.8659 132.303 -85.0907 132.467C-85.6802 132.9 -86.0723 133.499 -86.261 134.152L-95.4013 132.401L-97.6299 88.0634ZM-52.6987 199.348L-46.7157 211.828C-46.8028 211.879 -46.8885 211.935 -46.9726 211.998C-47.4978 212.386 -47.8691 212.904 -48.077 213.473L-58.0235 210.845L-81.5007 139.254L-52.6987 199.348ZM-46.1853 211.573L-67.1041 167.927L-81.5533 137.78C-81.4662 137.729 -81.3805 137.673 -81.2964 137.611C-80.8271 137.265 -80.4832 136.815 -80.2662 136.314L-22.8278 155.279L-44.2195 211.489C-44.8594 211.312 -45.5467 211.335 -46.1833 211.569L-46.1853 211.573ZM-86.3715 134.731C-86.446 135.49 -86.2539 136.276 -85.7655 136.936C-85.2946 137.576 -84.6285 137.987 -83.9094 138.152L-92.0604 198.911L-95.3703 133.007L-86.3686 134.73L-86.3715 134.731ZM-89.6243 200.229C-90.0953 199.588 -90.7613 199.177 -91.4804 199.013L-83.3262 138.231C-83.0455 138.241 -82.7619 138.217 -82.4852 138.155L-58.7071 210.664L-89.0483 202.652C-88.9119 201.828 -89.0912 200.953 -89.6272 200.229L-89.6243 200.229ZM-89.1947 203.223L-58.4855 211.332L-53.8796 225.375C-54.0955 225.47 -54.3082 225.588 -54.5047 225.732C-54.7316 225.9 -54.9274 226.093 -55.097 226.303L-89.3789 203.63C-89.3074 203.497 -89.2432 203.361 -89.1926 203.219L-89.1947 203.223ZM-51.3384 225.376C-51.9597 225.108 -52.6537 225.038 -53.318 225.191L-57.8048 211.513L-48.2271 214.041C-48.3635 214.866 -48.1842 215.74 -47.6481 216.464C-47.427 216.765 -47.1587 217.014 -46.8641 217.213L-51.3384 225.376ZM-41.8872 214.768L-1.36614 213.546L-1.8591 232.612C-2.44739 232.65 -3.03229 232.85 -3.54552 233.226C-3.88976 233.48 -4.16646 233.792 -4.37681 234.136L-42.089 215.701C-41.9767 215.402 -41.9083 215.088 -41.8872 214.768ZM61.2235 212.649C61.322 212.891 61.4498 213.129 61.6132 213.351C61.9339 213.784 62.3395 214.112 62.7918 214.33L49.8553 255.724L1.4227 236.687C1.5843 236.127 1.5929 235.532 1.44019 234.962L61.2263 212.648L61.2235 212.649ZM247.148 373.748L250.318 407.611C249.832 407.69 249.354 407.879 248.931 408.193C248.725 408.347 248.545 408.52 248.385 408.709L237.563 402.846L246.567 373.721C246.76 373.748 246.955 373.757 247.152 373.75L247.148 373.748ZM384.403 401.915C383.673 402.633 383.347 403.642 383.478 404.618L362.776 409.42L356.776 369.895C357.125 369.793 357.463 369.632 357.772 369.406L384.4 401.916L384.403 401.915ZM356.199 370.01L362.202 409.556L297.797 424.492C297.692 424.181 297.541 423.879 297.335 423.601C297.312 423.571 297.285 423.541 297.262 423.511L353.826 369.281C354.495 369.841 355.354 370.093 356.196 370.011L356.199 370.01ZM35.5634 308.783C35.4763 308.663 35.3807 308.557 35.2795 308.453L70.3015 267.411C71.0439 267.936 71.978 268.116 72.8584 267.914L85.3556 305.823L36.1333 310.112C36.0481 309.646 35.8623 309.192 35.5634 308.783ZM73.4192 267.727C73.6351 267.633 73.8421 267.516 74.0415 267.371C74.2458 267.222 74.4225 267.049 74.5804 266.863L124.363 301.721C124.18 301.95 124.032 302.198 123.922 302.459L85.9637 305.767L73.422 267.726L73.4192 267.727ZM123.728 303.07C123.647 303.474 123.64 303.891 123.715 304.298L98.6244 326.846L96.1951 329.03C95.4267 328.316 94.3685 328.038 93.3672 328.245L86.1459 306.344L123.723 303.072L123.728 303.07ZM96.5954 329.475C96.5954 329.475 96.5947 329.473 96.5939 329.47L99.0134 327.294L123.905 304.926C124.002 305.162 124.128 305.394 124.287 305.611C124.551 305.968 124.875 306.254 125.231 306.467L121.318 333.877L97.2205 331.363C97.2187 330.707 97.0193 330.043 96.5983 329.475L96.5954 329.475ZM36.1839 310.7L85.5464 306.398L92.8063 328.42C92.5696 328.517 92.3406 328.642 92.1264 328.801C91.6804 329.131 91.3447 329.554 91.1258 330.025L36.0995 311.422C36.1556 311.187 36.1823 310.945 36.1839 310.7ZM111.662 396.717L95.1796 334.348C95.437 334.248 95.688 334.114 95.9206 333.944C96.6013 333.441 97.0222 332.721 97.1638 331.95L121.23 334.463L112.348 396.676C112.119 396.665 111.891 396.68 111.663 396.719L111.662 396.717ZM121.817 334.522L149.82 337.443C149.847 338.056 150.049 338.665 150.442 339.195C150.595 339.401 150.769 339.583 150.958 339.741L128.32 374.532L113.676 397.038C113.437 396.913 113.189 396.818 112.932 396.758L121.817 334.522ZM196.138 538.22L194.453 508.928L193.413 490.823C193.912 490.748 194.398 490.556 194.835 490.235C195.689 489.606 196.134 488.631 196.129 487.646L211.87 486.104L196.617 538.265C196.457 538.238 196.297 538.223 196.137 538.217L196.138 538.22ZM213.688 393.273L222.896 443.425C222.536 443.528 222.182 443.69 221.864 443.928C221.313 444.335 220.932 444.886 220.732 445.492L202.736 442.404L213.044 393.265C213.259 393.29 213.476 393.293 213.691 393.275L213.688 393.273ZM220.595 446.067C220.488 446.862 220.672 447.698 221.189 448.397C221.319 448.573 221.462 448.73 221.618 448.871L194.61 484.941C194.38 484.801 194.134 484.692 193.881 484.614L202.615 442.98L220.598 446.066L220.595 446.067ZM196.073 487.059C195.985 486.606 195.802 486.164 195.509 485.766C195.38 485.592 195.237 485.432 195.083 485.293L204.735 472.414L222.107 449.235C222.26 449.328 222.421 449.404 222.585 449.47L212.05 485.497L196.071 487.063L196.073 487.059ZM223.151 449.633C223.999 449.797 224.908 449.624 225.658 449.071C225.961 448.847 226.21 448.578 226.409 448.284L279.93 477.58C279.755 477.987 279.667 478.423 279.67 478.865L212.685 485.43L223.154 449.632L223.151 449.633ZM280.961 476.277C280.658 476.502 280.409 476.77 280.21 477.065L226.69 447.769C226.947 447.178 227.017 446.517 226.893 445.882L262.123 435.461L281.237 476.096C281.142 476.152 281.051 476.213 280.962 476.28L280.961 476.277ZM226.726 445.316C226.626 445.068 226.497 444.827 226.333 444.602C226.284 444.533 226.228 444.472 226.174 444.41L249.027 413.397C249.872 413.974 250.952 414.115 251.918 413.767L261.869 434.922L226.726 445.316ZM248.259 412.662C248.355 412.792 248.463 412.91 248.572 413.021L225.744 444C225.507 443.813 225.251 443.665 224.979 443.551L237.384 403.42L248.045 409.195C247.447 410.256 247.485 411.617 248.256 412.66L248.259 412.662ZM224.417 443.378C224.164 443.324 223.904 443.299 223.643 443.307L214.279 393.163C214.636 393.061 214.983 392.898 215.302 392.663C215.608 392.438 215.859 392.166 216.059 391.865L236.857 403.13L224.416 443.375L224.417 443.378ZM154.908 339.87C154.946 339.842 154.981 339.811 155.018 339.78L188.041 368.457L210.806 388.227C210.41 388.779 210.208 389.438 210.209 390.103L153.534 395.576L153.111 340.492C153.738 340.474 154.365 340.272 154.908 339.87ZM211.017 392.22C211.416 392.669 211.917 392.978 212.459 393.144L202.147 442.305L156.718 434.509C156.768 433.863 156.623 433.199 156.27 432.61L211.017 392.22ZM156.62 435.091L202.027 442.884L193.3 484.495C192.616 484.415 191.907 484.553 191.285 484.931L155.662 436.645C156.141 436.221 156.465 435.676 156.62 435.091ZM190.363 489.563C190.967 490.379 191.883 490.824 192.824 490.859L193.581 504.058L195.547 538.259C195.418 538.281 195.288 538.31 195.161 538.347L175.519 488.856L190.59 485.496C189.566 486.601 189.437 488.306 190.363 489.563ZM198.427 539.262C198.076 538.876 197.65 538.597 197.187 538.421L212.504 486.041L279.723 479.453C279.79 479.804 279.915 480.146 280.102 480.469L198.427 539.262ZM281.769 475.847L262.692 435.291L291.799 426.682C291.899 426.93 292.027 427.171 292.191 427.396C292.604 427.957 293.168 428.34 293.783 428.536L283.261 475.682C282.765 475.62 282.253 475.671 281.769 475.847ZM291.632 426.116L262.44 434.75L252.453 413.517C252.548 413.461 252.639 413.4 252.728 413.334C253.192 412.992 253.534 412.547 253.752 412.051L291.657 424.762C291.552 425.203 291.544 425.663 291.634 426.112L291.632 426.116ZM245.989 373.582L237.034 402.558L216.339 391.347C216.686 390.533 216.689 389.598 216.311 388.767L244.557 372.604C244.948 373.07 245.446 373.401 245.986 373.583L245.989 373.582ZM244.222 372.117L216.015 388.257C216.001 388.237 215.989 388.215 215.974 388.195C214.927 386.774 212.926 386.473 211.505 387.52C211.395 387.601 211.291 387.69 211.194 387.784L160.274 343.561L155.442 339.367C155.584 339.2 155.707 339.021 155.809 338.835L243.876 369.925C243.73 370.657 243.835 371.435 244.22 372.12L244.222 372.117ZM149.848 336.852L121.901 333.935L125.785 306.722C126.706 307.046 127.756 306.942 128.622 306.368L150.653 335.14C150.209 335.625 149.939 336.223 149.85 336.849L149.848 336.852ZM69.5689 266.694C69.656 266.814 69.7515 266.92 69.8528 267.024L34.8307 308.066C34.6388 307.931 34.4344 307.818 34.2218 307.732L50.2319 256.503L69.0761 263.909C68.8104 264.833 68.958 265.862 69.5724 266.696L69.5689 266.694ZM0.253632 238.365C0.672133 238.058 0.988274 237.664 1.20782 237.23L49.6807 256.281L33.6577 307.553C33.0875 307.431 32.4855 307.464 31.922 307.664L-0.0401294 238.557C0.0605418 238.499 0.159651 238.436 0.253632 238.365ZM35.3285 312.853C35.5723 312.59 35.7677 312.293 35.9084 311.974L90.9246 330.573C90.8406 330.898 90.8119 331.236 90.8327 331.575L56.852 336.973L35.3256 312.854L35.3285 312.853ZM90.9276 332.158C91.0258 332.547 91.1996 332.922 91.4508 333.267C92.2037 334.287 93.4456 334.727 94.612 334.509L111.092 396.866C110.902 396.936 110.718 397.022 110.539 397.131L57.3203 337.501L90.9263 332.164L90.9276 332.158ZM114.761 397.966C114.588 397.732 114.388 397.532 114.171 397.361L151.442 340.078C151.78 340.269 152.147 340.396 152.523 340.454L152.947 395.633L115.326 399.266C115.241 398.809 115.055 398.367 114.761 397.966ZM153.539 396.167L210.265 390.69C210.335 391.053 210.464 391.409 210.666 391.743L155.919 432.133C155.36 431.504 154.598 431.146 153.804 431.078L153.536 396.168L153.539 396.167ZM155.187 436.993L190.531 484.9L175.299 488.295L154.981 437.103C155.052 437.069 155.118 437.032 155.187 436.993ZM194.614 538.564C194.458 538.642 194.308 538.732 194.162 538.838C194.017 538.944 193.887 539.064 193.764 539.189L140.722 496.61L174.936 488.981L194.613 538.561L194.614 538.564ZM199.072 540.335C199.012 540.171 198.938 540.008 198.85 539.851L198.905 539.644L280.45 480.944C280.922 481.489 281.547 481.835 282.213 481.974L277.944 520.188L199.075 540.337L199.072 540.335ZM325.637 511.343L287.906 517.901C287.806 517.527 287.638 517.166 287.395 516.837C287.24 516.625 287.06 516.444 286.867 516.282L302.767 493.174L326.045 509.502C325.725 510.061 325.585 510.703 325.637 511.34L325.637 511.343ZM286.381 515.948C285.942 515.702 285.453 515.565 284.959 515.544L283.308 482.014C283.814 481.942 284.311 481.745 284.756 481.421C284.96 481.272 285.137 481.099 285.293 480.917L302.285 492.835L286.381 515.948ZM285.631 480.435C286.063 479.678 286.169 478.773 285.917 477.934L320.699 463.889C320.787 464.082 320.899 464.272 321.029 464.451C321.164 464.634 321.318 464.798 321.482 464.943L302.621 492.355L285.632 480.438L285.631 480.435ZM320.503 463.33L290.41 475.483L321.251 460.387C320.515 461.186 320.245 462.3 320.503 463.33ZM285.586 477.188C285.537 477.11 285.486 477.032 285.431 476.955C285.018 476.394 284.454 476.01 283.84 475.814L294.362 428.668C295.149 428.768 295.975 428.581 296.664 428.072C297.271 427.626 297.672 427.002 297.851 426.325L363.56 437.526C363.541 437.99 363.625 438.462 363.81 438.904L285.583 477.192L285.586 477.188ZM297.949 425.743C297.965 425.519 297.963 425.293 297.932 425.066L362.291 410.14L365.998 434.552C365.597 434.65 365.21 434.824 364.855 435.087C364.215 435.558 363.807 436.223 363.641 436.94L297.951 425.742L297.949 425.743ZM366.581 434.469L362.867 410.01L383.615 405.199C383.72 405.51 383.871 405.811 384.076 406.089C384.278 406.362 384.513 406.592 384.775 406.781L368.196 434.812C367.695 434.558 367.138 434.442 366.581 434.472L366.581 434.469ZM389.219 402.292C388.198 400.907 386.274 400.589 384.862 401.544L358.344 369.167L431.061 431.327L389.511 405.613C390.026 404.574 389.96 403.291 389.223 402.294L389.219 402.292ZM432.277 431.032C432.16 431.118 432.051 431.214 431.95 431.315L358.558 368.578C358.82 368.175 358.985 367.721 359.046 367.253L401.102 369.594L432.465 430.911C432.402 430.952 432.339 430.991 432.278 431.035L432.277 431.032ZM353.307 368.733C353.34 368.779 353.379 368.82 353.415 368.863L296.858 423.085C296.128 422.449 295.156 422.194 294.227 422.351L287.14 395.903L353.06 368.338C353.133 368.474 353.212 368.606 353.307 368.733ZM293.657 422.504C293.382 422.605 293.116 422.743 292.867 422.929C292.402 423.271 292.061 423.716 291.842 424.212L253.938 411.501C254.068 410.95 254.049 410.365 253.877 409.816L286.589 396.136L293.655 422.507L293.657 422.504ZM253.648 409.266C253.574 409.13 253.496 408.995 253.4 408.868C252.983 408.302 252.413 407.917 251.792 407.72L268.339 331.492C268.645 331.529 268.955 331.522 269.264 331.47L286.436 395.554L253.647 409.263L253.648 409.266ZM267.762 331.369L251.214 407.594C251.113 407.581 251.01 407.572 250.906 407.573L247.732 373.668C248.143 373.573 248.541 373.394 248.9 373.129C250.32 372.08 250.622 370.081 249.575 368.66C249.335 368.334 249.041 368.07 248.721 367.866L267.533 331.289C267.609 331.321 267.686 331.346 267.763 331.371L267.762 331.369ZM244.045 369.36L156.044 338.295C156.355 337.348 156.218 336.266 155.58 335.402C155.293 335.015 154.934 334.711 154.533 334.494L174.023 289.172C174.95 289.474 175.999 289.345 176.852 288.741L244.875 368.172C244.498 368.509 244.219 368.916 244.042 369.361L244.045 369.36ZM172.441 288.032C172.728 288.42 173.087 288.723 173.484 288.941L154.424 333.265L166.419 289.588L172.123 287.507C172.208 287.688 172.314 287.868 172.439 288.036L172.441 288.032ZM153.566 334.155C152.733 334.009 151.845 334.185 151.111 334.727C151.103 334.732 151.096 334.74 151.085 334.746L129.077 306.001C129.916 305.187 130.225 303.996 129.938 302.9L165.739 289.831L153.565 334.152L153.566 334.155ZM129.738 302.346C129.652 302.164 129.546 301.985 129.422 301.816C129.313 301.671 129.194 301.538 129.067 301.417L178.971 239.041C179.171 239.171 179.38 239.28 179.601 239.364L165.931 289.135L129.738 302.346ZM125.94 300.654C125.594 300.756 125.262 300.915 124.953 301.141C124.889 301.189 124.83 301.242 124.77 301.291L74.913 266.383C75.2765 265.745 75.4072 265.002 75.2906 264.281L116.529 253.485L125.94 300.654ZM71.3726 261.697C70.9771 261.793 70.5907 261.97 70.2416 262.229C69.8231 262.536 69.507 262.93 69.2874 263.364L50.4057 255.943L63.3449 214.536C63.6447 214.617 63.9537 214.654 64.2635 214.647L71.3705 261.7L71.3726 261.697ZM61.0529 212.08L1.23049 234.408C1.14666 234.232 1.04572 234.06 0.926366 233.9C0.380087 233.16 -0.422972 232.728 -1.26841 232.628L-0.775298 213.528L60.9965 211.665C61.0068 211.806 61.0255 211.944 61.0536 212.083L61.0529 212.08ZM-1.35106 212.953L-41.905 214.177C-41.9704 213.647 -42.1645 213.128 -42.5043 212.67C-42.5855 212.56 -42.6731 212.461 -42.7635 212.363L-9.9337 174.71L-1.66589 165.225C-1.20884 165.552 -0.677437 165.745 -0.134029 165.801L-1.35182 212.95L-1.35106 212.953ZM-2.38184 164.525C-2.29981 164.637 -2.2079 164.741 -2.11103 164.84L-43.2065 211.975C-43.3544 211.868 -43.5069 211.778 -43.6685 211.699L-22.268 155.465L-2.91051 161.857C-3.13237 162.75 -2.9706 163.73 -2.38184 164.525ZM-22.6182 154.728L-80.0831 135.755C-79.9665 135.244 -79.9755 134.709 -80.1166 134.194L-6.33775 106.423C-6.23548 106.759 -6.07833 107.083 -5.85789 107.382C-5.59862 107.734 -5.27824 108.018 -4.92548 108.228L-22.6218 154.726L-22.6182 154.728ZM-6.36821 104.657C-6.46979 105.041 -6.50235 105.444 -6.45703 105.841L-80.3219 133.645C-80.4049 133.471 -80.5051 133.303 -80.6237 133.145C-80.9203 132.745 -81.2897 132.438 -81.7027 132.219L-65.0339 92.1115L-6.36743 104.66L-6.36821 104.657ZM-82.2469 131.989C-82.7533 131.831 -83.2899 131.801 -83.8148 131.905L-96.8863 87.7724C-96.7529 87.7 -96.624 87.6228 -96.4988 87.5312C-95.8485 87.0515 -95.4349 86.3726 -95.2769 85.64L-65.6215 91.9819L-82.2469 131.989ZM-98.2182 88.1477L-96.0008 132.284L-118.979 127.882C-118.904 127.123 -119.096 126.338 -119.585 125.677C-119.801 125.384 -120.058 125.141 -120.343 124.946L-99.555 87.9347C-99.1293 88.0986 -98.6758 88.1726 -98.2182 88.1477ZM-120.698 130.414C-120.548 130.337 -120.4 130.248 -120.26 130.146C-119.67 129.714 -119.278 129.114 -119.089 128.461L-95.9698 132.889L-92.6521 198.96C-92.8048 198.983 -92.9602 199.018 -93.1098 199.064L-120.698 130.414ZM-49.4177 228.474C-49.3803 227.759 -49.5794 227.027 -50.0364 226.404C-50.2576 226.103 -50.5259 225.854 -50.8205 225.655L-46.3463 217.493C-45.337 217.931 -44.1284 217.836 -43.1799 217.136C-42.8356 216.882 -42.5589 216.569 -42.3486 216.226L-4.63637 234.66C-4.68296 234.783 -4.72233 234.909 -4.75525 235.037L-49.4213 228.472L-49.4177 228.474ZM-1.6631 238.986C-1.29879 238.989 -0.932652 238.931 -0.578392 238.805L31.3838 307.912C31.2831 307.969 31.184 308.032 31.09 308.103C29.7024 309.126 29.3864 311.058 30.3484 312.471L-10.3675 346.056C-10.832 345.588 -11.4131 345.289 -12.0312 345.17L-1.66027 238.985L-1.6631 238.986ZM-9.57163 349.209C-9.46601 348.851 -9.42375 348.473 -9.44795 348.098L56.6243 337.605L109.233 396.552L-9.57449 349.21L-9.57163 349.209ZM114.818 401.668C115.19 401.129 115.38 400.491 115.379 399.85L152.946 396.222L153.212 431.08C152.659 431.137 152.113 431.332 151.633 431.687C151.503 431.782 151.388 431.887 151.277 431.999L114.819 401.671L114.818 401.668ZM153.147 437.426C153.573 437.477 154.01 437.443 154.429 437.321L174.71 488.425L140.439 496.065L153.144 437.427L153.147 437.426ZM185.692 588.214C185.159 588.128 184.6 588.176 184.081 588.368L140.876 497.491L193.396 539.648C192.679 540.735 192.671 542.197 193.487 543.307C194.327 544.444 195.773 544.86 197.046 544.448L185.695 588.216L185.692 588.214ZM272.746 571.974L278.48 520.658L281.808 519.809C281.909 520.097 282.054 520.376 282.245 520.633C282.658 521.194 283.226 521.58 283.844 521.778L272.747 571.977L272.746 571.974ZM328.182 507.958C327.738 508.046 327.305 508.229 326.917 508.516C326.713 508.666 326.539 508.838 326.381 509.021L303.098 492.688L321.953 465.287C322.466 465.596 323.053 465.747 323.644 465.741L328.182 507.958ZM326.132 460.606C325.447 459.712 324.377 459.277 323.326 459.367L358.504 442.149L326.135 460.605L326.132 460.606ZM436.054 431.015C435.169 430.37 434.006 430.223 432.982 430.632L401.776 369.624L483.528 374.175C483.551 374.795 483.754 375.416 484.149 375.955C484.226 376.059 484.31 376.156 484.395 376.246L436.051 431.016L436.054 431.015ZM483.67 373.129C483.624 373.279 483.586 373.433 483.564 373.589L401.47 369.016L383.571 334.021C383.621 333.989 383.67 333.957 383.719 333.923C384.176 333.587 384.514 333.151 384.733 332.668L483.67 373.129ZM380.046 334.009C380.928 334.597 382.056 334.714 383.047 334.298L400.784 368.977L359.063 366.653C359.03 366.051 358.829 365.451 358.445 364.931C358.321 364.763 358.182 364.61 358.033 364.473L380.046 334.009ZM352.876 365.724C352.634 366.381 352.612 367.108 352.827 367.786L286.981 395.32L269.83 331.312C270.105 331.211 270.371 331.073 270.62 330.887C271 330.605 271.297 330.256 271.514 329.868L352.875 365.721L352.876 365.724ZM173.111 283.558C172.028 284.359 171.597 285.714 171.92 286.944L166.609 288.883L179.995 240.148L175.077 282.94C174.395 282.924 173.703 283.122 173.109 283.562L173.111 283.558ZM177.561 235.944C177.52 236.257 177.523 236.577 177.576 236.889L116.984 252.752L111.082 223.171C111.428 223.069 111.763 222.909 112.069 222.683C112.623 222.275 113.006 221.721 113.203 221.112L177.561 235.944ZM106.991 219.814C106.918 220.569 107.113 221.351 107.598 222.009C107.685 222.129 107.784 222.237 107.885 222.341L73.9743 262.185C73.3797 261.767 72.6672 261.57 71.9536 261.608L64.8483 214.573C65.279 214.482 65.7011 214.302 66.0778 214.02C66.6695 213.584 67.0644 212.983 67.2487 212.326L106.99 219.811L106.991 219.814ZM61.5067 209.705C61.236 210.119 61.0686 210.589 61.0116 211.071L-0.760246 212.935L0.457962 165.81C1.02899 165.764 1.59602 165.567 2.09007 165.199C2.27595 165.061 2.44012 164.91 2.5876 164.742L61.5124 209.703L61.5067 209.705ZM-0.247832 159.46C-0.760506 159.53 -1.2639 159.726 -1.71065 160.054C-2.16445 160.389 -2.50146 160.819 -2.7181 161.298L-22.059 154.911L-4.38738 108.481C-4.08278 108.592 -3.76248 108.659 -3.44091 108.674L-0.247832 159.46ZM-55.1712 62.5787C-55.0912 62.7406 -54.9977 62.8957 -54.8871 63.0463C-54.6271 63.4012 -54.3067 63.6849 -53.9503 63.8978L-65.3911 91.4284L-95.2052 85.0527C-95.1907 84.5937 -95.2758 84.1278 -95.4656 83.693L-55.1704 62.5816L-55.1712 62.5787Z" fill="#B4185C"/>
<path d="M384.055 421.737L354.746 334.69C345.774 308.039 323.219 288.227 295.634 282.768L275.048 278.231C270.983 287.432 253.75 294.34 233.1 294.34C212.45 294.34 194.452 287.113 190.908 277.605L164.836 282.768C137.251 288.233 114.696 308.039 105.724 334.69L76.4092 421.737L132.847 439.665L143.973 392.677L140.498 460H320.333L316.496 392.677L327.623 439.665L384.06 421.737H384.055Z" fill="#FBE4C6"/>
<path d="M233.095 294.34C253.739 294.34 270.973 287.431 275.042 278.231L256.589 274.167H208.253L190.903 277.605C194.447 287.113 211.983 294.34 233.095 294.34Z" fill="#FFBE97"/>
<path d="M313.812 381.477C313.494 381.477 313.212 381.248 313.159 380.925L305.917 339.609C305.853 339.248 306.097 338.903 306.458 338.839C306.824 338.776 307.164 339.02 307.227 339.38L314.47 380.697C314.533 381.057 314.289 381.402 313.929 381.466C313.891 381.471 313.849 381.477 313.812 381.477Z" fill="#4F2B2B"/>
<path d="M150.059 381.476C150.022 381.476 149.979 381.476 149.937 381.466C149.576 381.402 149.337 381.052 149.401 380.691L156.288 343.2C156.357 342.84 156.696 342.601 157.062 342.665C157.423 342.728 157.662 343.078 157.598 343.439L150.711 380.93C150.653 381.248 150.372 381.476 150.059 381.476Z" fill="#4F2B2B"/>
<path d="M211.553 252.583L208.253 274.167H256.589L254.19 246.853L211.553 252.583Z" fill="#FFBE97"/>
<path d="M255.5 261.5L254.5 250C236 247.833 205 242.8 219 256C233 269.2 248 262.334 255.5 261.5Z" fill="#4F2B2B"/>
<path d="M274.799 211.506C274.799 211.506 253.867 253.905 228.532 253.65C203.197 253.395 185.078 231.705 183.136 205.357C182.17 192.294 186.324 176.933 192.209 170.97C198.92 164.162 213.31 157.806 226.15 156.416C244.561 154.421 258.059 168.763 258.059 168.763C258.059 168.763 270.777 172.386 276.019 185.736C279.462 194.496 274.793 211.506 274.793 211.506H274.799Z" fill="#4F2B2B"/>
<path d="M265.444 205.001C269.795 215.13 268.054 236.539 258.615 248.174C248.492 260.654 238.209 262.314 225.348 262.314C212.487 262.314 197.562 253.65 191.699 236.656C184.255 215.061 191.89 191.562 212.253 182.823C232.617 174.079 256.43 184.012 265.439 205.001H265.444Z" fill="#FFBE97"/>
<path d="M263.449 219.619C262.595 226.622 261.587 232.671 267.455 233.387C273.323 234.104 280.454 228.936 281.309 221.932C282.163 214.928 278.093 208.668 272.225 207.951C266.357 207.235 264.303 212.615 263.449 219.619Z" fill="#FFBE97"/>
<path d="M209.272 229.037C200.729 229.037 193.779 222.086 193.779 213.544C193.779 205.001 200.729 198.051 209.272 198.051C217.814 198.051 224.765 205.001 224.765 213.544C224.765 222.086 217.814 229.037 209.272 229.037ZM209.272 199.377C201.462 199.377 195.105 205.734 195.105 213.544C195.105 221.354 201.462 227.71 209.272 227.71C217.082 227.71 223.438 221.354 223.438 213.544C223.438 205.734 217.082 199.377 209.272 199.377Z" fill="white"/>
<path d="M246.349 229.037C237.807 229.037 230.856 222.086 230.856 213.544C230.856 205.001 237.807 198.051 246.349 198.051C254.891 198.051 261.842 205.001 261.842 213.544C261.842 222.086 254.891 229.037 246.349 229.037ZM246.349 199.377C238.539 199.377 232.182 205.734 232.182 213.544C232.182 221.354 238.539 227.71 246.349 227.71C254.159 227.71 260.515 221.354 260.515 213.544C260.515 205.734 254.159 199.377 246.349 199.377Z" fill="white"/>
<path d="M220.536 221.958L224.844 227.243L229.105 209.644L220.536 221.958Z" fill="#FFBE97"/>
<path d="M193.37 219.974C194.225 226.978 195.27 232.666 189.396 233.382C183.528 234.098 176.397 228.93 175.543 221.927C174.689 214.923 178.758 208.662 184.626 207.946C190.495 207.23 192.516 212.971 193.365 219.974H193.37Z" fill="#FFBE97"/>
<path d="M232.427 209.442C228.835 208.593 225.805 208.588 223.173 209.426L222.77 208.158C225.64 207.24 228.898 207.24 232.734 208.142L232.427 209.437V209.442Z" fill="white"/>
<path d="M259.709 179.502C259.709 179.502 243.431 195.01 236.167 196.629C228.904 198.247 221.842 196.438 221.842 196.438L225.232 191.217C225.232 191.217 220.839 196.056 215.65 196.83C210.461 197.61 203.319 196.379 203.319 196.379L207.813 190.039C207.813 190.039 199.271 199.451 190.994 197.976C190.994 197.976 207.436 170.004 225.768 170.949C244.099 171.893 259.704 179.502 259.704 179.502H259.709Z" fill="#4F2B2B"/>
<path d="M223.916 228.272C223.714 228.272 223.512 228.182 223.385 228.007L218.812 221.948L227.083 210.063C227.295 209.76 227.709 209.686 228.012 209.898C228.314 210.111 228.388 210.524 228.176 210.827L220.456 221.921L224.452 227.211C224.674 227.503 224.616 227.922 224.324 228.145C224.202 228.235 224.064 228.278 223.926 228.278L223.916 228.272Z" fill="#4F2B2B"/>
<path d="M267.349 222.648C267.275 222.648 267.206 222.637 267.132 222.611C266.787 222.489 266.601 222.112 266.718 221.767C266.739 221.704 268.925 215.464 274.756 215.963C275.122 215.995 275.393 216.318 275.361 216.684C275.329 217.05 275.006 217.332 274.64 217.289C269.864 216.875 268.05 221.985 267.975 222.202C267.88 222.478 267.62 222.648 267.344 222.648H267.349Z" fill="#4F2B2B"/>
<path d="M188.409 222.648C188.133 222.648 187.879 222.473 187.783 222.202C187.709 221.985 185.863 216.87 181.119 217.289C180.758 217.321 180.429 217.05 180.398 216.684C180.366 216.318 180.636 215.995 181.002 215.963C186.812 215.459 189.019 221.704 189.041 221.767C189.163 222.118 188.977 222.494 188.627 222.611C188.558 222.637 188.484 222.648 188.409 222.648Z" fill="#4F2B2B"/>
<path d="M228.537 438.96C248.709 438.96 265.062 435.245 265.062 430.662C265.062 426.079 248.709 422.363 228.537 422.363C208.365 422.363 192.012 426.079 192.012 430.662C192.012 435.245 208.365 438.96 228.537 438.96Z" fill="#FBE4C6"/>
<path d="M264.335 307.838H192.829V428.969H192.84C193.089 432.933 208.985 436.132 228.569 436.132C248.153 436.132 264.049 432.933 264.298 428.969H264.335V307.838Z" fill="#EF9C2E"/>
<path d="M228.537 315.907C248.709 315.907 265.062 312.394 265.062 308.06C265.062 303.726 248.709 300.213 228.537 300.213C208.365 300.213 192.012 303.726 192.012 308.06C192.012 312.394 208.365 315.907 228.537 315.907Z" fill="#FBE4C6"/>
<path d="M228.537 313.642C246.948 313.642 261.873 311.143 261.873 308.06C261.873 304.978 246.948 302.479 228.537 302.479C210.126 302.479 195.201 304.978 195.201 308.06C195.201 311.143 210.126 313.642 228.537 313.642Z" fill="#F5C07A"/>
<path d="M226.638 307.997C226.754 309.35 224.128 310.921 218.35 310.56C212.773 310.21 209.701 309.483 209.717 307.976C209.733 306.469 212.551 306.002 218.122 305.588C223.762 305.169 226.515 306.644 226.632 307.997H226.638Z" fill="#4F2B2B"/>
<path d="M218.546 310.544C216.769 310.565 214.736 310.3 212.561 309.891V271.557C212.561 267.227 213.537 262.866 215.389 258.95L224.637 239.388L229.253 243.07L220.801 261.508C219.326 264.627 218.546 268.103 218.546 271.557V310.549V310.544Z" fill="white"/>
<path d="M229.943 247.612C229.588 247.612 229.29 247.33 229.28 246.97C229.052 240.173 222.754 239.595 222.488 239.573C222.122 239.542 221.852 239.223 221.878 238.857C221.905 238.491 222.228 238.22 222.589 238.247C222.669 238.252 230.341 238.921 230.612 246.922C230.622 247.288 230.336 247.596 229.97 247.606C229.964 247.606 229.954 247.606 229.948 247.606L229.943 247.612Z" fill="#4F2B2B"/>
<path d="M238.183 324.396L214.11 357.208L229.863 365.426L223.21 396.497L244.486 360.423L231.535 353.488L238.183 324.396Z" fill="#854747"/>
<path d="M155.646 363.081L89.0795 404.912C73.6502 414.611 70.3182 435.686 81.9962 449.672C92.5389 462.299 110.854 461.562 124.045 453.757C137.24 445.952 160.251 416.176 160.251 416.176L155.646 363.081Z" fill="#FFBE97"/>
<path d="M155.646 363.081L176.163 348.183C180.716 344.877 186.812 344.623 191.624 347.546L209.086 358.147C211.468 359.59 212.418 362.567 211.325 365.129C210.195 367.766 207.255 369.119 204.523 368.265L188.971 363.41L208.184 373.741C210.55 375.014 211.739 377.736 211.065 380.336C210.205 383.657 206.671 385.52 203.446 384.358L187.815 378.723L203.865 385.599C206.268 386.629 207.573 389.255 206.937 391.796C206.199 394.746 203.148 396.481 200.236 395.611L188.685 392.157L202.618 398.031C204.671 398.896 205.817 401.103 205.34 403.278C204.788 405.804 202.273 407.385 199.758 406.785L187.289 405.56L173.001 416.123C168.862 418.999 163.535 419.551 158.893 417.588L155.619 416.203L155.656 363.081H155.646Z" fill="#FFBE97"/>
<path d="M203.642 385.674C203.552 385.674 203.462 385.658 203.372 385.615L181.549 375.975C181.215 375.826 181.061 375.434 181.21 375.099C181.358 374.765 181.751 374.611 182.085 374.76L203.908 384.4C204.242 384.549 204.396 384.942 204.247 385.276C204.136 385.525 203.892 385.674 203.637 385.674H203.642Z" fill="#4F2B2B"/>
<path d="M194.649 366.387C194.559 366.387 194.468 366.371 194.384 366.328L181.984 360.895C181.65 360.747 181.496 360.354 181.639 360.02C181.788 359.686 182.175 359.526 182.514 359.675L194.914 365.108C195.248 365.257 195.402 365.649 195.259 365.984C195.148 366.233 194.904 366.381 194.649 366.381V366.387Z" fill="#4F2B2B"/>
<path d="M200.427 397.357C200.342 397.357 200.257 397.341 200.172 397.304L179.097 388.603C178.758 388.465 178.599 388.072 178.737 387.733C178.875 387.393 179.267 387.234 179.607 387.372L200.681 396.073C201.021 396.211 201.18 396.604 201.042 396.944C200.936 397.198 200.687 397.352 200.427 397.352V397.357Z" fill="#4F2B2B"/>
<path d="M158.888 418.256C158.729 418.256 158.564 418.198 158.437 418.081L154.882 414.808C154.611 414.558 154.596 414.139 154.845 413.868C155.094 413.598 155.513 413.582 155.784 413.831L159.339 417.105C159.609 417.354 159.625 417.773 159.376 418.044C159.243 418.187 159.068 418.256 158.888 418.256Z" fill="#4F2B2B"/>
<path d="M304.813 363.081L371.379 404.912C386.809 414.611 390.141 435.686 378.463 449.672C367.92 462.299 349.604 461.562 336.414 453.757C323.219 445.952 300.208 416.176 300.208 416.176L304.813 363.081Z" fill="#FFBE97"/>
<path d="M304.813 363.081L284.296 348.183C279.743 344.877 273.647 344.623 268.835 347.546L251.373 358.147C248.991 359.59 248.041 362.567 249.134 365.129C250.264 367.766 253.204 369.119 255.936 368.265L271.487 363.41L252.275 373.741C249.909 375.014 248.72 377.736 249.394 380.336C250.254 383.657 253.787 385.52 257.013 384.358L272.644 378.723L256.594 385.599C254.191 386.629 252.885 389.255 253.522 391.796C254.26 394.746 257.31 396.481 260.223 395.611L271.774 392.157L257.841 398.031C255.788 398.896 254.642 401.103 255.119 403.278C255.671 405.804 258.186 407.385 260.701 406.785L274.756 404.44L287.458 416.123C291.596 418.999 296.923 419.551 301.566 417.588L304.84 416.203L304.803 363.081H304.813Z" fill="#FFBE97"/>
<path d="M256.822 385.674C256.562 385.674 256.318 385.52 256.212 385.265C256.069 384.926 256.228 384.539 256.567 384.395L279.297 374.781C279.637 374.638 280.024 374.797 280.167 375.137C280.311 375.476 280.152 375.864 279.812 376.007L257.082 385.621C256.997 385.658 256.907 385.674 256.822 385.674Z" fill="#4F2B2B"/>
<path d="M266.85 365.724C266.585 365.724 266.336 365.565 266.229 365.305C266.097 364.966 266.261 364.578 266.606 364.44L278.311 359.835C278.65 359.702 279.038 359.867 279.176 360.212C279.308 360.551 279.144 360.938 278.799 361.076L267.094 365.682C267.015 365.714 266.93 365.73 266.85 365.73V365.724Z" fill="#4F2B2B"/>
<path d="M260.032 397.357C259.762 397.357 259.507 397.188 259.406 396.917C259.279 396.572 259.459 396.19 259.804 396.063L281.064 388.338C281.409 388.216 281.791 388.391 281.919 388.736C282.046 389.08 281.866 389.462 281.521 389.59L260.26 397.315C260.186 397.342 260.107 397.357 260.032 397.357Z" fill="#4F2B2B"/>
<path d="M301.571 418.256C301.391 418.256 301.216 418.182 301.083 418.044C300.834 417.773 300.85 417.354 301.12 417.105L304.675 413.831C304.946 413.582 305.365 413.598 305.614 413.868C305.864 414.139 305.848 414.558 305.577 414.808L302.022 418.081C301.895 418.198 301.73 418.256 301.571 418.256Z" fill="#4F2B2B"/>
<path d="M253.49 210.784H253.479L239.509 210.593C239.143 210.593 238.846 210.285 238.851 209.919C238.851 209.553 239.154 209.261 239.514 209.261H239.525L253.495 209.452C253.861 209.452 254.158 209.759 254.153 210.126C254.153 210.492 253.851 210.784 253.49 210.784Z" fill="#4F2B2B"/>
<path d="M253.49 214.328H253.479L239.509 214.137C239.143 214.137 238.846 213.83 238.851 213.464C238.851 213.097 239.154 212.806 239.514 212.806H239.525L253.495 212.997C253.861 212.997 254.158 213.304 254.153 213.671C254.153 214.037 253.851 214.328 253.49 214.328Z" fill="#4F2B2B"/>
<path d="M253.49 217.877H253.479L239.509 217.686C239.143 217.686 238.846 217.379 238.851 217.012C238.851 216.646 239.159 216.333 239.525 216.355L253.495 216.546C253.861 216.546 254.158 216.853 254.153 217.219C254.153 217.585 253.851 217.877 253.49 217.877Z" fill="#4F2B2B"/>
<path d="M202.252 210.784C201.891 210.784 201.594 210.492 201.589 210.126C201.589 209.759 201.875 209.457 202.247 209.452L216.212 209.261H216.222C216.583 209.261 216.88 209.553 216.885 209.919C216.885 210.285 216.599 210.587 216.228 210.593L202.263 210.784H202.252Z" fill="#4F2B2B"/>
<path d="M202.252 214.328C201.891 214.328 201.594 214.037 201.589 213.671C201.589 213.304 201.875 213.002 202.247 212.997L216.212 212.806H216.222C216.583 212.806 216.88 213.097 216.885 213.464C216.885 213.83 216.599 214.132 216.228 214.137L202.263 214.328H202.252Z" fill="#4F2B2B"/>
<path d="M202.252 217.878C201.891 217.878 201.594 217.586 201.589 217.22C201.589 216.854 201.875 216.552 202.247 216.546L216.212 216.355H216.222C216.583 216.355 216.88 216.647 216.885 217.013C216.885 217.379 216.599 217.682 216.228 217.687L202.263 217.878H202.252Z" fill="#4F2B2B"/>
<path d="M297.488 151.487C295.806 162.258 293.339 173.007 290.113 183.423C289.731 184.654 291.657 185.179 292.039 183.953C295.265 173.538 297.727 162.788 299.414 152.018C299.61 150.76 297.69 150.219 297.488 151.487Z" fill="#EF9C2E"/>
<path d="M283.698 154.962C290.039 163.404 297.228 171.166 303.568 179.602C304.332 180.616 306.062 179.623 305.293 178.594C298.952 170.153 291.763 162.39 285.423 153.954C284.659 152.941 282.929 153.933 283.698 154.962Z" fill="#EF9C2E"/>
<path d="M280.51 173.299C290.262 170.196 299.892 166.731 309.379 162.905C310.556 162.433 310.042 160.502 308.848 160.979C299.356 164.8 289.726 168.27 279.979 171.373C278.759 171.761 279.279 173.687 280.51 173.299Z" fill="#EF9C2E"/>
<path d="M216.052 110.556C207.568 119.199 198.5 127.311 189.141 134.989C186.652 137.032 184.127 139.042 181.564 140.99C180.556 141.754 181.548 143.489 182.572 142.714C192.324 135.312 201.599 127.237 210.481 118.817C212.847 116.572 215.182 114.296 217.468 111.967C218.37 111.049 216.959 109.638 216.057 110.556H216.052Z" fill="#EF9C2E"/>
<path d="M197.603 102.963C197.869 114.625 199.073 126.234 199.758 137.87C199.949 141.096 200.097 144.327 200.171 147.553C200.203 148.837 202.198 148.837 202.166 147.553C201.901 135.891 200.697 124.282 200.012 112.646C199.821 109.42 199.673 106.189 199.598 102.963C199.567 101.679 197.572 101.679 197.603 102.963Z" fill="#EF9C2E"/>
<path d="M178.693 120.897C189.379 124.356 200.166 127.513 211.038 130.341C214.136 131.148 217.24 131.928 220.355 132.681C221.601 132.983 222.132 131.063 220.885 130.755C209.966 128.102 199.126 125.136 188.387 121.852C185.326 120.918 182.27 119.952 179.224 118.965C177.998 118.568 177.473 120.494 178.693 120.891V120.897Z" fill="#EF9C2E"/>
<path d="M156.658 182.229C151.077 191.445 144.8 200.353 137.945 208.662C137.133 209.644 138.539 211.066 139.356 210.074C146.323 201.632 152.716 192.596 158.383 183.237C159.051 182.133 157.327 181.13 156.658 182.229Z" fill="#EF9C2E"/>
<path d="M142.736 180.239C145.389 190.41 149.076 200.279 151.724 210.456C152.047 211.697 153.973 211.172 153.65 209.925C150.997 199.754 147.309 189.885 144.662 179.709C144.338 178.467 142.412 178.992 142.736 180.239Z" fill="#EF9C2E"/>
<path d="M132.957 195.812C143.112 196.64 153.294 197.085 163.487 197.154C164.771 197.165 164.771 195.17 163.487 195.159C153.299 195.09 143.112 194.645 132.957 193.817C131.678 193.711 131.684 195.706 132.957 195.812Z" fill="#EF9C2E"/>
</g>
<defs>
<clipPath id="clip0_760_15240">
<rect width="460" height="460" fill="white"/>
</clipPath>
</defs>
</svg>
