<svg width="460" height="460" viewBox="0 0 460 460" fill="none" xmlns="http://www.w3.org/2000/svg">
<g clip-path="url(#clip0_760_13008)">
<rect width="460" height="460" fill="white"/>
<path d="M-227.917 141.953C-226.686 142.772 -225.119 142.682 -223.997 141.846L-171.256 200.64C-171.379 200.772 -171.494 200.915 -171.598 201.068C-172.64 202.64 -172.212 204.755 -170.643 205.798C-169.075 206.841 -166.957 206.412 -165.914 204.843C-165.747 204.592 -165.622 204.327 -165.528 204.054L-122.86 214.282C-123.04 215.546 -122.506 216.857 -121.373 217.609C-119.804 218.652 -117.686 218.223 -116.643 216.654C-116.184 215.959 -116.011 215.158 -116.095 214.39L-68.8907 204.667C-68.6668 205.399 -68.2 206.06 -67.5141 206.518C-66.7689 207.011 -65.9038 207.171 -65.0872 207.041L-36.7207 317.348C-37.3889 317.585 -37.9903 318.033 -38.4144 318.668C-39.4576 320.237 -39.0282 322.354 -37.4596 323.398C-35.891 324.441 -33.7732 324.011 -32.7301 322.443C-32.4277 321.985 -32.2531 321.482 -32.1905 320.973L105.44 325.122C104.641 326.65 105.11 328.566 106.578 329.542C108.146 330.585 110.264 330.156 111.307 328.587C111.403 328.444 111.481 328.297 111.551 328.144L159.197 345.256C158.845 346.625 159.367 348.124 160.61 348.949C161.236 349.365 161.948 349.543 162.646 349.512L171.307 412.957L170.489 412.68L171.393 413.57L171.446 413.952L171.65 413.821L248.973 489.997C248.903 490.085 248.836 490.174 248.771 490.269C247.728 491.838 248.157 493.956 249.726 494.999C251.295 496.042 253.412 495.613 254.456 494.044C255.499 492.476 255.069 490.358 253.501 489.315C252.918 488.927 252.256 488.745 251.604 488.747L246.961 440.182C247.019 440.111 247.075 440.037 247.127 439.958C247.388 439.568 247.554 439.14 247.638 438.705L330.054 446.546C330.054 447.654 330.586 448.738 331.578 449.397C333.147 450.44 335.264 450.011 336.307 448.442C337.351 446.873 336.921 444.756 335.353 443.713C334.733 443.3 334.023 443.121 333.333 443.151L325.804 386.237C326.627 386.049 327.384 385.561 327.889 384.8C328.567 383.779 328.619 382.531 328.148 381.496L363.605 361.141C363.841 361.479 364.141 361.78 364.506 362.021C366.074 363.064 368.192 362.635 369.235 361.066C370.278 359.498 369.849 357.38 368.28 356.337C367.327 355.705 366.173 355.617 365.18 355.994L345.214 315.301C345.627 315.05 345.992 314.71 346.278 314.279C347.214 312.87 346.963 311.023 345.768 309.903L375.78 274.525C377.347 275.538 379.44 275.107 380.474 273.548C381.518 271.979 381.088 269.862 379.52 268.818C379.246 268.637 378.956 268.502 378.656 268.408L385.053 234.22C386.261 234.332 387.491 233.793 388.209 232.71C388.397 232.429 388.533 232.129 388.626 231.822L440.393 242.592C440.255 243.823 440.79 245.086 441.894 245.817C443.462 246.86 445.58 246.431 446.623 244.862C447.667 243.294 447.237 241.176 445.669 240.133C445.553 240.056 445.436 239.992 445.315 239.93L473.818 167.337C475.212 167.741 476.765 167.219 477.609 165.947C478.652 164.379 478.223 162.261 476.654 161.218C475.086 160.175 472.968 160.604 471.925 162.173C471.627 162.62 471.454 163.114 471.388 163.614L357.329 159.151C357.222 158.18 356.703 157.263 355.827 156.681C354.258 155.638 352.141 156.067 351.097 157.636C350.054 159.204 350.484 161.322 352.052 162.365C352.208 162.467 352.372 162.553 352.537 162.629L341.571 201.251C340.245 200.972 338.82 201.501 338.025 202.699C337.766 203.088 337.599 203.513 337.516 203.944L242.788 197.684C242.76 196.611 242.226 195.57 241.267 194.93C239.699 193.887 237.581 194.317 236.538 195.885C235.495 197.454 235.924 199.572 237.493 200.615C237.853 200.855 238.243 201.012 238.64 201.1L233.125 244.662C231.983 244.624 230.846 245.158 230.168 246.183L230.322 245.91L133.076 191.061C133.747 189.565 133.262 187.763 131.853 186.827C131.127 186.344 130.282 186.181 129.482 186.296L118.626 140.893C119.316 140.66 119.938 140.209 120.37 139.552C121.412 137.981 120.984 135.866 119.416 134.823C117.847 133.78 115.729 134.209 114.686 135.778C114.28 136.389 114.098 137.085 114.123 137.768L44.1466 146.387C43.9641 145.55 43.473 144.783 42.7038 144.272C41.1352 143.229 39.0175 143.658 37.9743 145.227C37.5401 145.881 37.3632 146.627 37.4183 147.354L-5.18125 154.356C-5.38443 153.571 -5.8647 152.858 -6.59132 152.375C-8.15995 151.332 -10.2776 151.761 -11.3208 153.33C-11.4315 153.496 -11.521 153.67 -11.5992 153.844L-87.147 130.247C-86.8956 128.937 -87.4307 127.547 -88.6107 126.762C-89.4996 126.173 -90.564 126.053 -91.5113 126.348L-113.256 76.5694C-112.767 76.3119 -112.334 75.9315 -112.005 75.44C-110.962 73.8713 -111.391 71.7536 -112.96 70.7104C-114.531 69.669 -116.646 70.0966 -117.689 71.6652C-117.696 71.6776 -117.703 71.69 -117.711 71.6998L-156.419 55.9761L-176.88 47.6647C-176.61 46.3418 -177.139 44.928 -178.333 44.134C-179.902 43.0908 -182.019 43.5202 -183.063 45.0888C-183.873 46.3096 -183.793 47.8569 -182.982 48.9768L-215.752 84.9297C-215.79 84.9026 -215.827 84.8711 -215.87 84.8433C-217.439 83.8001 -219.556 84.2295 -220.6 85.7981C-221.643 87.3667 -221.213 89.4844 -219.645 90.5276C-219.272 90.7742 -218.869 90.938 -218.457 91.0221L-225.791 135.709C-226.975 135.627 -228.169 136.163 -228.871 137.224C-229.914 138.792 -229.485 140.91 -227.917 141.953ZM-180.229 50.3869C-179.121 50.3878 -178.037 49.8554 -177.378 48.8635C-177.252 48.671 -177.149 48.472 -177.063 48.27L-153.863 57.6931L-118.004 72.2587C-118.131 72.5665 -118.208 72.8854 -118.24 73.2077L-181.647 82.038L-180.228 50.3895L-180.229 50.3869ZM42.3111 150.179L59.0511 177.733L21.5959 203.64C21.3903 203.395 21.1492 203.172 20.8697 202.987C20.7384 202.898 20.5996 202.826 20.46 202.759L39.9302 150.409C40.7311 150.624 41.5784 150.539 42.3111 150.179ZM114.919 139.855C115.125 140.099 115.366 140.323 115.645 140.508C115.809 140.616 115.975 140.704 116.147 140.779L88.8596 221.572C88.0892 221.389 87.2814 221.481 86.5788 221.823L59.8974 177.909L114.917 139.853L114.919 139.855ZM319.236 386.503L309.746 347.352L323.443 379.904C322.961 380.161 322.535 380.54 322.207 381.027C321.477 382.127 321.472 383.492 322.069 384.569L319.236 386.503ZM330.625 444.67C330.366 445.063 330.198 445.488 330.114 445.923L247.698 438.078C247.699 437.497 247.551 436.924 247.268 436.415L318.835 387.54L332.359 443.336C331.674 443.57 331.056 444.022 330.622 444.672L330.625 444.67ZM-32.7499 318.631C-32.9695 318.312 -33.2451 318.028 -33.5739 317.789L-4.99212 269.233C-3.48701 269.943 -1.64743 269.463 -0.698916 268.033L29.3439 284.176L-32.7499 318.631ZM-215.851 90.5204C-215.792 90.4788 -215.73 90.4354 -215.674 90.3887L-186.49 129.833C-186.703 130.024 -186.894 130.239 -187.06 130.485C-187.493 131.135 -187.668 131.88 -187.619 132.603L-197.427 134.184L-215.851 90.5204ZM-130.146 185.75L-119.588 196.085C-119.657 196.168 -119.722 196.256 -119.784 196.349C-120.169 196.931 -120.352 197.586 -120.353 198.232L-131.29 199.228L-180.981 135.983L-130.146 185.75ZM-119.149 195.636L-156.069 159.491L-181.571 134.524C-181.503 134.441 -181.437 134.353 -181.376 134.26C-181.031 133.742 -180.85 133.166 -180.815 132.584L-116.272 130.636L-117.208 194.834C-117.914 194.89 -118.595 195.164 -119.148 195.632L-119.149 195.636ZM-187.518 133.225C-187.316 134.013 -186.836 134.731 -186.105 135.215C-185.399 135.685 -184.581 135.855 -183.799 135.757L-169.792 199.684L-197.175 134.78L-187.515 133.223L-187.518 133.225ZM-166.867 200.116C-167.573 199.646 -168.391 199.477 -169.173 199.574L-183.185 135.623C-182.9 135.531 -182.624 135.404 -182.369 135.24L-132.042 199.296L-165.404 202.337C-165.568 201.46 -166.067 200.648 -166.869 200.118L-166.867 200.116ZM-165.343 202.963L-131.576 199.885L-121.828 212.291C-122.01 212.465 -122.18 212.661 -122.325 212.877C-122.491 213.128 -122.617 213.393 -122.71 213.666L-165.379 203.438C-165.355 203.28 -165.341 203.119 -165.342 202.959L-165.343 202.963ZM-119.279 211.363C-120 211.322 -120.721 211.505 -121.332 211.901L-130.827 199.818L-120.296 198.857C-120.132 199.734 -119.633 200.546 -118.831 201.076C-118.499 201.298 -118.139 201.449 -117.771 201.541L-119.279 211.363ZM-113.671 197.271L-73.468 181.251L-67.0012 200.557C-67.5774 200.81 -68.0912 201.224 -68.4689 201.788C-68.7215 202.169 -68.885 202.583 -68.9706 203.005L-113.532 198.282C-113.529 197.941 -113.575 197.6 -113.671 197.271ZM-11.0088 157.498C-10.8215 157.705 -10.6065 157.897 -10.3616 158.06C-9.88169 158.378 -9.35506 158.559 -8.82174 158.612L-6.68514 204.861L-62.2214 203.446C-62.2635 202.826 -62.4721 202.226 -62.8334 201.71L-11.0063 157.496L-11.0088 157.498ZM234.322 251.221L249.866 284.034C249.407 284.29 248.997 284.654 248.687 285.124C248.536 285.353 248.419 285.592 248.328 285.841L235.331 283.911L233.729 251.406C233.933 251.363 234.132 251.301 234.327 251.222L234.322 251.221ZM382.293 229.363C381.823 230.349 381.866 231.481 382.353 232.412L363.339 244.788L342.889 207.329C343.201 207.099 343.482 206.814 343.709 206.474L382.291 229.364L382.293 229.363ZM342.352 207.655L362.812 245.133L303.658 283.632C303.439 283.358 303.177 283.111 302.869 282.907C302.835 282.885 302.798 282.865 302.763 282.843L339.705 207.79C340.581 208.107 341.535 208.047 342.35 207.657L342.352 207.655ZM-1.64934 263.305C-1.78068 263.216 -1.91509 263.145 -2.0547 263.077L18.0925 209.119C19.0289 209.374 20.0318 209.214 20.8412 208.69L47.219 242.155L-0.592614 264.43C-0.848119 263.993 -1.20035 263.606 -1.64934 263.305ZM21.3354 208.298C21.5176 208.124 21.6827 207.931 21.8297 207.713C21.9801 207.489 22.0944 207.251 22.1849 207.007L84.8512 223.798C84.7514 224.095 84.6936 224.397 84.6787 224.699L47.8085 241.877L21.338 208.296L21.3354 208.298ZM84.7074 225.383C84.7733 225.817 84.9184 226.239 85.1429 226.62L68.2053 258.399L66.5658 261.478C65.5345 261.042 64.3713 261.149 63.4425 261.723L48.2021 242.39L84.7023 225.387L84.7074 225.383ZM67.1301 261.778C67.1301 261.778 67.1283 261.776 67.1265 261.773L68.7593 258.707L85.562 227.18C85.7457 227.382 85.957 227.568 86.1957 227.728C86.5905 227.99 87.0199 228.158 87.4552 228.242L93.5372 257.167L68.4465 263.444C68.2051 262.786 67.7626 262.193 67.1327 261.776L67.1301 261.778ZM-0.327014 265.001L47.6203 242.662L62.9436 262.103C62.7416 262.287 62.5577 262.496 62.4006 262.733C62.0738 263.227 61.8914 263.774 61.8437 264.326L-0.148142 265.756C-0.177596 265.5 -0.239271 265.247 -0.327014 265.001ZM106.795 323.73L67.4887 267.183C67.7106 266.989 67.9134 266.762 68.0849 266.508C68.5841 265.755 68.7431 264.878 68.6037 264.053L93.6632 257.787L107.468 323.44C107.234 323.511 107.011 323.61 106.797 323.733L106.795 323.73ZM94.2739 257.632L123.431 250.338C123.682 250.943 124.108 251.479 124.695 251.868C124.924 252.019 125.165 252.139 125.412 252.227L115.405 295.394L108.933 323.318C108.648 323.279 108.364 323.274 108.084 323.308L94.2739 257.632ZM243.202 434.836L230.817 406.068L223.164 388.285C223.637 388.027 224.055 387.657 224.375 387.175C225.002 386.232 225.093 385.093 224.728 384.106L239.956 376.811L243.7 434.707C243.529 434.738 243.364 434.781 243.201 434.833L243.202 434.836ZM207.885 283.024L235.434 329.973C235.11 330.207 234.814 330.499 234.582 330.854C234.178 331.463 233.997 332.155 234.017 332.837L214.837 336.309L207.237 283.251C207.461 283.198 207.68 283.122 207.889 283.025L207.885 283.024ZM234.09 333.462C234.273 334.3 234.763 335.071 235.537 335.583C235.731 335.712 235.932 335.818 236.141 335.902L222.217 381.947C221.935 381.89 221.649 381.871 221.366 381.885L214.926 336.931L234.093 333.461L234.09 333.462ZM224.458 383.538C224.204 383.116 223.859 382.738 223.42 382.446C223.228 382.319 223.025 382.211 222.82 382.128L227.8 365.684L236.764 336.089C236.951 336.127 237.14 336.144 237.329 336.15L239.914 376.137L224.457 383.542L224.458 383.538ZM237.957 336.107C238.866 335.962 239.715 335.456 240.266 334.628C240.488 334.292 240.64 333.932 240.732 333.564L305.118 343.411C305.091 343.883 305.162 344.353 305.326 344.795L240.528 375.838L237.959 336.105L237.957 336.107ZM305.677 341.727C305.455 342.064 305.303 342.424 305.211 342.792L240.825 332.945C240.867 332.258 240.697 331.57 240.34 330.978L271.877 307.661L305.887 341.446C305.813 341.537 305.744 341.631 305.679 341.73L305.677 341.727ZM239.966 330.471C239.775 330.259 239.558 330.064 239.311 329.899C239.237 329.847 239.158 329.806 239.082 329.763L250.684 290.308C251.742 290.579 252.876 290.326 253.719 289.625L271.425 307.213L239.966 330.471ZM249.645 289.852C249.789 289.947 249.94 290.026 250.09 290.098L238.5 329.509C238.195 329.408 237.883 329.353 237.569 329.338L235.36 284.551L248.164 286.452C247.951 287.735 248.486 289.087 249.64 289.851L249.645 289.852ZM236.942 329.37C236.668 329.408 236.398 329.478 236.14 329.582L208.438 282.699C208.759 282.466 209.048 282.175 209.282 281.823C209.506 281.485 209.659 281.121 209.75 280.746L234.727 284.453L236.94 329.368L236.942 329.37ZM129.422 250.915C129.45 250.872 129.473 250.829 129.499 250.784L173.096 267.494L203.151 279.015C202.956 279.713 202.994 280.448 203.238 281.115L148.382 307.299L127.846 252.195C128.469 251.948 129.024 251.516 129.422 250.915ZM204.822 282.943C205.385 283.248 206.001 283.375 206.605 283.344L214.211 336.425L165.791 345.191C165.606 344.525 165.218 343.912 164.649 343.449L204.822 282.943ZM165.906 345.81L214.302 337.049L220.739 381.978C220.024 382.148 219.364 382.545 218.877 383.151L165.513 347.72C165.838 347.119 165.964 346.454 165.906 345.81ZM219.645 388.135C220.548 388.732 221.629 388.844 222.586 388.536L228.165 401.5L242.624 435.091C242.503 435.16 242.383 435.237 242.269 435.32L204.495 392.844L218.386 383.971C217.763 385.453 218.256 387.211 219.645 388.135ZM245.879 435.046C245.386 434.787 244.857 434.662 244.329 434.655L240.569 376.517L305.594 345.365C305.79 345.693 306.04 345.991 306.346 346.246L245.879 435.046ZM306.33 341.001L272.385 307.283L298.44 288.019C298.631 288.232 298.848 288.426 299.095 288.592C299.714 289.004 300.42 289.183 301.108 289.155L307.767 340.291C307.246 340.41 306.752 340.648 306.33 341.001ZM298.066 287.512L271.935 306.832L254.164 289.179C254.239 289.088 254.308 288.994 254.373 288.894C254.714 288.382 254.894 287.81 254.932 287.234L297.597 286.145C297.653 286.625 297.813 287.09 298.067 287.508L298.066 287.512ZM233.099 251.478L234.694 283.814L209.841 280.124C209.892 279.181 209.554 278.242 208.871 277.547L231.305 251.019C231.867 251.345 232.488 251.495 233.096 251.48L233.099 251.478ZM230.791 250.653L208.388 277.143C208.366 277.128 208.347 277.111 208.324 277.096C206.756 276.052 204.638 276.482 203.595 278.05C203.515 278.172 203.442 278.299 203.379 278.428L136.152 252.658L129.774 250.215C129.855 249.996 129.913 249.771 129.948 249.547L229.643 248.58C229.764 249.368 230.154 250.111 230.79 250.657L230.791 250.653ZM123.244 249.735L94.1436 257.012L88.1038 228.295C89.146 228.284 90.1614 227.796 90.8208 226.904L123.427 247.723C123.158 248.372 123.105 249.071 123.245 249.731L123.244 249.735ZM17.0958 208.667C17.2271 208.756 17.3616 208.827 17.5012 208.895L-2.64611 262.853C-2.88787 262.788 -3.13431 262.749 -3.37917 262.74L-6.02301 205.504L15.5848 206.053C15.6553 207.077 16.1792 208.055 17.1002 208.668L17.0958 208.667ZM-62.7813 205.557C-62.4738 205.096 -62.3002 204.586 -62.2386 204.07L-6.65696 205.483L-4.01023 262.766C-4.62688 262.852 -5.21875 263.105 -5.71097 263.511L-63.006 205.857C-62.926 205.762 -62.8496 205.663 -62.7813 205.557ZM-0.398967 267.474C-0.250651 267.12 -0.162954 266.751 -0.138242 266.38L61.8423 264.95C61.8766 265.307 61.9711 265.656 62.1159 265.989L29.9987 283.81L-0.401542 267.475L-0.398967 267.474ZM62.4238 266.539C62.6643 266.893 62.9756 267.206 63.3536 267.46C64.4812 268.208 65.8877 268.196 66.9782 267.552L106.278 324.089C106.113 324.227 105.959 324.381 105.82 324.556L30.6613 284.169L62.4249 266.545L62.4238 266.539ZM110.36 323.852C110.101 323.68 109.827 323.553 109.547 323.46L126.021 252.389C126.43 252.456 126.844 252.45 127.243 252.371L147.815 307.569L111.402 324.95C111.149 324.523 110.801 324.147 110.36 323.852ZM148.604 307.889L203.508 281.683C203.711 282.021 203.971 282.332 204.295 282.593L164.123 343.099C163.332 342.672 162.437 342.591 161.615 342.813L148.601 307.891L148.604 307.889ZM165.163 348.242L218.11 383.396L204.069 392.362L164.997 348.427C165.055 348.367 165.108 348.307 165.163 348.242ZM241.8 435.737C241.672 435.873 241.554 436.017 241.446 436.177C241.339 436.337 241.253 436.505 241.175 436.674L172.42 413.328L203.956 393.183L241.798 435.735L241.8 435.737ZM246.918 435.887C246.798 435.744 246.664 435.607 246.519 435.482L246.498 435.254L306.867 346.596C307.541 346.97 308.293 347.089 309.013 346.985L318.683 386.878L246.922 435.888L246.918 435.887ZM363.297 360.591L327.841 380.947C327.604 380.609 327.304 380.307 326.94 380.066C326.707 379.91 326.461 379.794 326.208 379.702L333.721 350.716L363.034 358.596C362.916 359.274 363.011 359.969 363.295 360.589L363.297 360.591ZM325.598 379.545C325.068 379.458 324.527 379.499 324.024 379.659L310.125 346.625C310.607 346.369 311.034 345.989 311.361 345.502C311.512 345.278 311.626 345.04 311.716 344.8L333.114 350.552L325.598 379.545ZM311.879 344.194C312.037 343.276 311.812 342.33 311.253 341.58L341.016 314.791C341.175 314.953 341.357 315.102 341.553 315.234C341.755 315.369 341.969 315.477 342.187 315.563L333.275 349.947L311.881 344.196L311.879 344.194ZM340.616 314.302L314.865 337.482L340.292 311.077C339.845 312.147 339.981 313.363 340.616 314.302ZM310.648 340.953C310.571 340.892 310.491 340.833 310.408 340.775C309.789 340.363 309.083 340.184 308.396 340.212L301.737 289.076C302.563 288.889 303.324 288.399 303.829 287.638C304.275 286.968 304.449 286.196 304.381 285.451L374.388 272.696C374.538 273.168 374.794 273.611 375.142 273.987L310.648 340.958L310.648 340.953ZM304.267 284.832C304.201 284.601 304.117 284.375 304.003 284.159L363.115 245.687L375.747 268.822C375.38 269.068 375.056 269.383 374.796 269.776C374.326 270.483 374.159 271.299 374.255 272.078L304.269 284.83L304.267 284.832ZM376.301 268.527L363.645 245.346L382.702 232.944C382.921 233.218 383.182 233.465 383.49 233.669C383.792 233.869 384.112 234.014 384.444 234.109L378.047 268.281C377.452 268.209 376.851 268.296 376.303 268.529L376.301 268.527ZM387.263 227.982C385.733 226.966 383.686 227.349 382.619 228.823L344.195 206.026L439.838 241.832L388.768 231.208C388.906 229.977 388.371 228.713 387.267 227.983L387.263 227.982ZM440.95 241.092C440.863 241.221 440.79 241.357 440.725 241.495L344.196 205.357C344.311 204.857 344.311 204.342 344.201 203.85L387.245 190.843L441.094 240.902C441.046 240.966 440.997 241.028 440.951 241.094L440.95 241.092ZM338.984 207.43C339.035 207.463 339.089 207.491 339.14 207.52L302.202 282.563C301.238 282.192 300.169 282.291 299.295 282.788L282.529 258.844L338.593 207.123C338.716 207.233 338.842 207.337 338.984 207.43ZM298.779 283.149C298.54 283.351 298.324 283.587 298.142 283.865C297.8 284.377 297.62 284.949 297.582 285.525L254.917 286.614C254.847 286.013 254.614 285.434 254.241 284.945L282.061 259.279L298.778 283.154L298.779 283.149ZM253.81 284.478C253.687 284.368 253.559 284.262 253.417 284.169C252.792 283.754 252.079 283.576 251.384 283.605L240.151 201.095C240.472 201.02 240.78 200.9 241.072 200.735L281.695 258.751L253.808 284.476L253.81 284.478ZM239.527 201.182L250.759 283.689C250.653 283.713 250.546 283.742 250.442 283.78L234.878 250.928C235.256 250.683 235.589 250.357 235.854 249.96C236.895 248.389 236.468 246.274 234.899 245.231C234.539 244.991 234.148 244.834 233.752 244.746L239.269 201.186C239.356 201.19 239.443 201.187 239.529 201.184L239.527 201.182ZM229.607 247.952L129.986 248.92C129.952 247.856 129.42 246.822 128.464 246.187C128.035 245.903 127.564 245.73 127.083 245.659L130.086 193.078C131.126 193.042 132.132 192.53 132.766 191.612L230.006 246.458C229.751 246.933 229.62 247.443 229.604 247.954L229.607 247.952ZM128.083 192.512C128.512 192.796 128.984 192.969 129.461 193.042L126.525 244.466L122.61 196.271L127.572 192.101C127.724 192.252 127.896 192.393 128.082 192.516L128.083 192.512ZM125.989 245.672C125.099 245.829 124.274 246.33 123.735 247.142C123.729 247.15 123.725 247.161 123.716 247.17L91.1432 226.371C91.6872 225.248 91.5629 223.939 90.8744 222.945L122.017 196.763L125.987 245.669L125.989 245.672ZM90.4711 222.462C90.3191 222.311 90.1472 222.17 89.9609 222.047C89.7986 221.941 89.6314 221.851 89.4593 221.775L116.746 140.982C116.994 141.04 117.244 141.072 117.497 141.076L121.955 195.995L90.4711 222.462ZM86.0438 222.152C85.7344 222.38 85.4587 222.662 85.2314 223.001C85.185 223.072 85.1447 223.147 85.1027 223.218L22.3432 206.404C22.4749 205.631 22.3345 204.837 21.9546 204.158L59.3814 178.27L86.0438 222.152ZM17.0805 202.995C16.7191 203.237 16.3961 203.555 16.1402 203.942C15.8327 204.403 15.6592 204.913 15.5976 205.429L-6.05301 204.879L-8.1917 158.617C-7.86117 158.589 -7.5379 158.513 -7.22958 158.393L17.0798 203L17.0805 202.995ZM-11.3874 156.99L-63.2463 201.23C-63.3947 201.084 -63.5585 200.949 -63.7368 200.832C-64.5548 200.29 -65.5183 200.149 -66.4029 200.357L-72.8818 181.018L-11.5957 156.594C-11.534 156.732 -11.4646 156.864 -11.3856 156.993L-11.3874 156.99ZM-73.6696 180.65L-113.904 196.685C-114.163 196.178 -114.548 195.728 -115.056 195.392C-115.177 195.312 -115.301 195.245 -115.428 195.179L-96.2425 145.42L-91.4116 132.887C-90.8339 133.048 -90.2301 133.048 -89.6646 132.906L-73.6714 180.648L-73.6696 180.65ZM-92.3854 132.446C-92.2621 132.529 -92.132 132.599 -91.9986 132.664L-116.014 194.952C-116.201 194.898 -116.387 194.863 -116.578 194.843L-115.642 130.618L-93.89 129.963C-93.7864 130.94 -93.2664 131.864 -92.3854 132.446ZM-116.263 130.007L-180.836 131.956C-180.905 131.401 -181.11 130.867 -181.439 130.402L-117.568 75.6056C-117.343 75.9054 -117.066 76.1734 -116.736 76.3922C-116.348 76.6506 -115.923 76.8183 -115.492 76.901L-116.267 130.006L-116.263 130.007ZM-118.243 73.8448C-118.205 74.2676 -118.09 74.6835 -117.9 75.0654L-181.846 129.926C-181.993 129.782 -182.155 129.65 -182.331 129.535C-182.775 129.242 -183.258 129.069 -183.752 129L-181.674 82.68L-118.241 73.8473L-118.243 73.8448ZM-184.382 128.968C-184.947 128.995 -185.497 129.16 -185.985 129.456L-215.211 89.957C-215.104 89.8357 -215.003 89.7111 -214.911 89.5735C-214.434 88.8549 -214.267 88.0228 -214.375 87.2302L-182.311 82.7645L-184.382 128.968ZM-216.41 90.8197L-198.071 134.285L-222.729 138.259C-222.931 137.471 -223.411 136.753 -224.142 136.269C-224.466 136.054 -224.812 135.904 -225.169 135.812L-217.829 91.0942C-217.342 91.1032 -216.86 91.0118 -216.41 90.8197ZM-223.529 141.427C-223.406 141.295 -223.291 141.152 -223.187 140.999C-222.754 140.349 -222.579 139.604 -222.628 138.881L-197.819 134.882L-170.367 199.949C-170.512 200.028 -170.655 200.12 -170.788 200.221L-223.529 141.427ZM-116.221 213.771C-116.444 213.039 -116.911 212.378 -117.597 211.92C-117.929 211.699 -118.289 211.547 -118.657 211.455L-117.149 201.633C-115.977 201.704 -114.799 201.168 -114.103 200.119C-113.85 199.738 -113.687 199.324 -113.601 198.903L-69.0394 203.626C-69.0414 203.766 -69.0347 203.907 -69.021 204.047L-116.225 213.77L-116.221 213.771ZM-64.4775 206.879C-64.1109 206.749 -63.7649 206.557 -63.4553 206.302L-6.16037 263.957C-6.24035 264.051 -6.31673 264.151 -6.38507 264.256C-7.40377 265.788 -7.01517 267.842 -5.53425 268.909L-34.116 317.465C-34.7529 317.165 -35.4451 317.077 -36.1084 317.184L-64.4749 206.877L-64.4775 206.879ZM-32.1666 320.337C-32.1914 319.94 -32.287 319.545 -32.4483 319.177L30.0011 284.527L104.298 324.452L-32.1692 320.339L-32.1666 320.337ZM111.769 327.545C111.945 326.868 111.903 326.16 111.668 325.517L148.029 308.161L161.023 343.032C160.489 343.29 160.012 343.686 159.661 344.216C159.565 344.36 159.487 344.507 159.417 344.659L111.771 327.547L111.769 327.545ZM163.275 349.421C163.72 349.317 164.146 349.123 164.522 348.848L203.527 392.708L171.937 412.885L163.272 349.423L163.275 349.421ZM250.977 488.802C250.411 488.91 249.869 489.163 249.417 489.544L172.895 414.156L240.973 437.27C240.651 438.622 241.177 440.092 242.401 440.907C243.658 441.741 245.261 441.63 246.388 440.753L250.981 488.803L250.977 488.802ZM332.377 440.725L319.392 387.155L322.42 385.088C322.627 385.339 322.874 385.566 323.16 385.754C323.779 386.167 324.489 386.346 325.181 386.319L332.378 440.728L332.377 440.725ZM364.613 356.267C364.201 356.517 363.833 356.86 363.549 357.289C363.399 357.514 363.287 357.749 363.195 357.991L333.875 350.107L342.785 315.736C343.413 315.858 344.057 315.796 344.648 315.574L364.613 356.267ZM345.269 309.515C344.254 308.868 343.023 308.822 342.001 309.296L371.004 279.18L345.271 309.513L345.269 309.515ZM444.732 239.696C443.609 239.371 442.389 239.649 441.511 240.433L387.932 190.627L471.603 165.343C471.852 165.957 472.283 166.505 472.875 166.902C472.991 166.978 473.11 167.045 473.228 167.104L444.73 239.698L444.732 239.696ZM471.363 164.242C471.372 164.409 471.39 164.577 471.424 164.742L387.402 190.129L356.67 161.558C356.708 161.508 356.746 161.458 356.782 161.406C357.118 160.902 357.298 160.341 357.341 159.777L471.363 164.242ZM353.13 162.833C354.229 163.102 355.403 162.807 356.245 162.028L386.7 190.34L343.999 203.242C343.746 202.65 343.326 202.121 342.751 201.739C342.564 201.616 342.37 201.514 342.17 201.431L353.13 162.833ZM337.453 204.568C337.45 205.316 337.694 206.053 338.157 206.655L282.156 258.317L241.581 200.37C241.82 200.168 242.036 199.932 242.219 199.655C242.496 199.233 242.668 198.775 242.743 198.307L337.452 204.566L337.453 204.568ZM127.122 187.779C126.327 188.978 126.39 190.495 127.163 191.61L122.543 195.495L118.177 141.719L128.868 186.441C128.178 186.674 127.556 187.125 127.121 187.784L127.122 187.779ZM114.201 138.39C114.274 138.719 114.394 139.039 114.561 139.333L59.5697 177.369L42.8488 149.849C43.1581 149.621 43.4365 149.338 43.6611 149C44.0674 148.388 44.249 147.692 44.2247 147.009L114.201 138.39ZM37.519 147.975C37.7221 148.76 38.2024 149.473 38.9291 149.956C39.0604 150.045 39.1992 150.117 39.3388 150.184L19.8686 202.535C19.1195 202.333 18.3328 202.395 17.6311 202.694L-6.67002 158.105C-6.27116 157.856 -5.91359 157.522 -5.63834 157.102C-5.20418 156.448 -5.02726 155.701 -5.08234 154.975L37.5172 147.973L37.519 147.975ZM-11.7995 154.442C-11.9197 154.956 -11.9163 155.488 -11.7973 155.993L-73.0834 180.417L-89.0673 132.699C-88.5113 132.444 -88.0147 132.039 -87.6533 131.49C-87.5173 131.283 -87.4078 131.072 -87.3211 130.849L-11.7944 154.438L-11.7995 154.442ZM-92.0939 126.586C-92.5825 126.844 -93.016 127.224 -93.3446 127.716C-93.6774 128.218 -93.8587 128.772 -93.9009 129.332L-115.635 129.986L-114.86 76.9582C-114.514 76.9582 -114.168 76.9083 -113.84 76.8056L-92.0939 126.586ZM-182.563 49.453C-182.424 49.5862 -182.274 49.7076 -182.108 49.8183C-181.717 50.0793 -181.292 50.247 -180.857 50.3305L-182.282 82.1251L-214.518 86.6149C-214.671 86.1492 -214.927 85.7129 -215.276 85.3461L-182.562 49.4556L-182.563 49.453Z" fill="#2B6577"/>
<path d="M208.121 321.445L191.69 314.249C171.172 305.257 147.41 316.246 140.969 337.706C140.969 337.706 96.2495 413.487 108.816 416.963C121.382 420.44 154.85 407.279 154.85 407.279L148.284 459.712H337.784L324.783 339.537C322.114 316.499 297.167 303.302 276.618 314.058L263.788 320.778L208.116 321.45L208.121 321.445Z" fill="#DF8711"/>
<path d="M210.92 300.509L208.121 321.441C208.121 321.441 209.984 338.715 235.655 338.715C261.326 338.715 263.793 320.768 263.793 320.768L257.057 288.092L210.915 300.503L210.92 300.509Z" fill="#FFBE97"/>
<path d="M270.198 263.327C270.198 263.327 250.027 304.187 225.608 303.949C201.189 303.706 183.723 282.8 181.85 257.403C180.919 244.811 184.923 230.009 190.599 224.256C197.071 217.696 210.936 211.571 223.311 210.231C241.056 208.312 254.067 222.13 254.067 222.13C254.067 222.13 266.323 225.622 271.378 238.489C274.694 246.932 270.198 263.327 270.198 263.327Z" fill="#4F2B2B"/>
<path d="M261.18 257.056C265.371 266.819 263.7 287.451 254.6 298.672C244.843 310.7 234.93 312.299 222.54 312.299C210.149 312.299 195.757 303.949 190.107 287.565C182.931 266.752 190.293 244.102 209.922 235.68C229.55 227.252 252.499 236.823 261.186 257.056H261.18Z" fill="#FFBE97"/>
<path d="M259.256 271.144C258.433 277.896 257.461 283.726 263.121 284.414C268.78 285.102 275.651 280.12 276.473 273.369C277.296 266.617 273.375 260.585 267.715 259.897C262.055 259.209 260.079 264.393 259.256 271.144Z" fill="#FFBE97"/>
<path d="M238.014 265.179C237.972 267.051 238.909 268.588 240.098 268.614C241.288 268.64 242.287 267.145 242.328 265.272C242.37 263.399 241.433 261.862 240.243 261.837C239.053 261.811 238.055 263.306 238.014 265.179Z" fill="#4F2B2B"/>
<path d="M208.669 265.019C208.628 266.892 209.564 268.428 210.754 268.454C211.944 268.48 212.943 266.985 212.984 265.112C213.025 263.239 212.089 261.703 210.899 261.677C209.709 261.651 208.711 263.146 208.669 265.019Z" fill="#4F2B2B"/>
<path d="M207.04 280.223C198.804 280.223 192.104 273.524 192.104 265.287C192.104 257.051 198.804 250.352 207.04 250.352C215.276 250.352 221.976 257.051 221.976 265.287C221.976 273.524 215.276 280.223 207.04 280.223ZM207.04 251.64C199.513 251.64 193.387 257.765 193.387 265.293C193.387 272.82 199.513 278.945 207.04 278.945C214.568 278.945 220.693 272.82 220.693 265.293C220.693 257.765 214.568 251.64 207.04 251.64Z" fill="white"/>
<path d="M242.773 280.223C234.537 280.223 227.837 273.524 227.837 265.287C227.837 257.051 234.537 250.352 242.773 250.352C251.009 250.352 257.709 257.051 257.709 265.287C257.709 273.524 251.009 280.223 242.773 280.223ZM242.773 251.64C235.245 251.64 229.12 257.765 229.12 265.293C229.12 272.82 235.245 278.945 242.773 278.945C250.3 278.945 256.426 272.82 256.426 265.293C256.426 257.765 250.3 251.64 242.773 251.64Z" fill="white"/>
<path d="M217.894 273.405L222.048 278.496L226.156 261.532L217.894 273.405Z" fill="#FFBE97"/>
<path d="M191.711 271.49C192.534 278.242 193.543 283.726 187.883 284.414C182.223 285.102 175.353 280.12 174.53 273.368C173.707 266.617 177.629 260.585 183.289 259.897C188.948 259.209 190.889 264.739 191.711 271.49Z" fill="#FFBE97"/>
<path d="M229.359 261.341C225.897 260.524 222.98 260.519 220.439 261.326L220.046 260.105C222.814 259.22 225.954 259.215 229.648 260.089L229.353 261.336L229.359 261.341Z" fill="white"/>
<path d="M255.65 232.482C255.65 232.482 239.959 247.428 232.959 248.991C225.959 250.553 219.151 248.809 219.151 248.809L222.421 243.776C222.421 243.776 218.189 248.437 213.186 249.187C208.183 249.937 201.303 248.753 201.303 248.753L205.638 242.638C205.638 242.638 197.407 251.712 189.424 250.289C189.424 250.289 205.271 223.33 222.943 224.241C240.611 225.151 255.65 232.487 255.65 232.487V232.482Z" fill="#4F2B2B"/>
<path d="M221.153 279.489C220.956 279.489 220.765 279.401 220.641 279.235L216.233 273.394L224.205 261.94C224.407 261.651 224.806 261.578 225.1 261.78C225.39 261.982 225.463 262.38 225.261 262.675L217.821 273.369L221.67 278.47C221.883 278.754 221.826 279.152 221.546 279.37C221.432 279.458 221.293 279.499 221.158 279.499L221.153 279.489Z" fill="#4F2B2B"/>
<path d="M222.695 291.843C221.702 291.843 221.081 291.75 221.055 291.745C220.703 291.688 220.465 291.362 220.522 291.01C220.579 290.659 220.905 290.426 221.257 290.478C221.624 290.535 230.316 291.787 234.724 283.638C234.894 283.328 235.282 283.214 235.593 283.38C235.903 283.55 236.022 283.938 235.851 284.249C232.204 290.995 225.722 291.843 222.695 291.843Z" fill="#4F2B2B"/>
<path d="M263.012 274.067C262.945 274.067 262.872 274.056 262.805 274.03C262.469 273.917 262.293 273.549 262.406 273.218C262.427 273.156 264.538 267.139 270.156 267.626C270.508 267.657 270.772 267.967 270.741 268.319C270.71 268.671 270.394 268.94 270.048 268.903C265.454 268.495 263.695 273.425 263.622 273.637C263.529 273.901 263.281 274.067 263.017 274.067H263.012Z" fill="#4F2B2B"/>
<path d="M186.931 274.067C186.667 274.067 186.419 273.901 186.326 273.637C186.253 273.425 184.468 268.505 179.9 268.903C179.548 268.929 179.238 268.671 179.207 268.319C179.176 267.967 179.44 267.657 179.791 267.626C185.394 267.139 187.521 273.156 187.541 273.218C187.655 273.554 187.479 273.917 187.143 274.03C187.076 274.056 187.003 274.067 186.936 274.067H186.931Z" fill="#4F2B2B"/>
<path d="M169.532 160.585H291.409V190.214H169.532C163.226 190.214 158.109 185.097 158.109 178.791V172.008C158.109 165.702 163.226 160.585 169.532 160.585Z" fill="#F5C07A"/>
<path d="M167.308 179.739C169.17 179.418 171.126 179.051 172.647 177.846C174.033 176.749 174.882 175.026 174.53 173.252C174.478 172.998 174.162 172.734 173.893 172.77C172.409 172.962 171.126 173.919 170.644 175.362C170.174 176.759 170.696 178.399 171.808 179.341C173.117 180.453 174.887 180.37 176.47 179.998C178.084 179.615 179.636 178.922 180.997 177.975C181.674 177.499 182.321 176.971 182.9 176.382C183.428 175.843 183.816 175.197 183.563 174.426C183.035 172.827 181.017 172.869 180.06 174.017C179.155 175.104 179.279 176.635 180.071 177.747C180.94 178.963 182.321 179.656 183.816 179.589C185.777 179.501 187.541 178.394 189.047 177.22C189.698 176.713 190.324 176.071 190.469 175.223C190.614 174.395 190.319 173.598 189.616 173.127C189.388 172.977 189 173.019 188.819 173.231C187.96 174.235 187.82 175.58 188.307 176.795C188.85 178.151 190.04 179.056 191.478 179.279C194.975 179.817 197.484 177.059 199.43 174.581C199.714 174.224 199.668 173.821 199.295 173.546C198.188 172.729 196.693 173.609 196.227 174.726C195.736 175.911 196.114 177.23 196.9 178.192C198.954 180.712 202.441 179.724 204.738 178.135C205.431 177.659 204.774 176.516 204.076 176.997C202.529 178.063 200.17 179.165 198.436 177.861C197.836 177.411 197.345 176.687 197.319 175.921C197.298 175.305 197.893 174.131 198.628 174.679C198.581 174.333 198.54 173.991 198.493 173.645C196.983 175.564 195.177 177.897 192.513 178.022C191.416 178.073 190.309 177.701 189.724 176.718C189.269 175.952 189.124 174.881 189.745 174.157C189.481 174.193 189.212 174.224 188.948 174.26C189.274 174.478 189.222 174.964 189.078 175.274C188.845 175.771 188.327 176.128 187.898 176.444C186.936 177.147 185.891 177.815 184.727 178.12C183.713 178.384 182.647 178.332 181.793 177.675C181.152 177.183 180.593 176.345 180.759 175.502C180.836 175.104 181.105 174.685 181.498 174.524C181.829 174.39 182.378 174.535 182.326 174.98C182.28 175.368 181.535 175.875 181.255 176.118C180.826 176.49 180.365 176.826 179.889 177.132C178.958 177.727 177.955 178.197 176.899 178.518C175.823 178.844 174.55 179.16 173.448 178.782C172.424 178.435 171.72 177.37 171.798 176.288C171.876 175.197 172.817 174.224 173.904 174.085C173.692 173.924 173.479 173.764 173.267 173.603C173.547 175.016 172.59 176.382 171.441 177.101C170.101 177.944 168.497 178.203 166.966 178.466C166.133 178.611 166.485 179.879 167.318 179.734L167.308 179.739Z" fill="#4F2B2B"/>
<path d="M291.72 190.22H278.403C272.097 190.22 266.98 185.104 266.98 178.797V172.015C266.98 165.708 272.097 160.592 278.403 160.592H291.72V190.22Z" fill="#F2AE54"/>
<path d="M291.72 185.662H281.373C277.006 185.662 273.463 182.118 273.463 177.752V173.054C273.463 168.688 277.006 165.144 281.373 165.144H291.72V185.662Z" fill="#FFF4E9"/>
<path d="M303.8 225.302L181.101 225.302V189.962H303.8C310.748 189.962 316.393 195.601 316.393 202.554V212.715C316.393 219.663 310.753 225.307 303.8 225.307V225.302Z" fill="#357E94"/>
<path d="M239.053 211.545C242.789 212.191 246.746 211.85 250.275 210.443C251.925 209.786 253.534 208.916 254.858 207.721C255.391 207.24 255.805 206.594 255.583 205.854C255.397 205.238 254.822 204.819 254.258 204.576C252.934 204.007 251.232 204.105 250.254 205.264C249.168 206.552 249.597 208.337 250.596 209.532C251.734 210.898 253.493 211.705 255.184 212.129C257.202 212.636 259.297 212.626 261.336 212.279C263.653 211.886 265.914 211.038 267.963 209.894C269.846 208.849 271.564 207.499 272.836 205.75C273.214 205.233 272.593 204.7 272.091 204.783C270.255 205.098 267.756 205.481 266.861 207.38C266.478 208.192 266.576 209.087 267.187 209.76C267.844 210.489 268.894 210.805 269.82 211.017C273.576 211.886 277.679 211.607 281.3 210.282C283.23 209.579 285.041 208.575 286.562 207.178C286.836 206.93 286.789 206.506 286.562 206.247C285.03 204.529 280.757 205.755 281.305 208.353C281.626 209.863 283.354 210.727 284.735 210.975C286.593 211.312 288.465 210.815 290.152 210.044C292.133 209.144 293.882 207.783 295.967 207.101C296.396 206.961 296.552 206.526 296.36 206.133C295.362 204.048 291.616 204.384 290.256 205.869C289.288 206.93 289.547 208.409 290.406 209.439C291.461 210.701 293.158 211.27 294.756 211.353C296.909 211.462 299.04 210.743 300.908 209.713C301.648 209.304 300.985 208.166 300.246 208.575C298.631 209.47 296.821 210.091 294.953 210.044C293.551 210.008 291.595 209.449 291.032 207.98C290.266 205.988 294.482 205.254 295.222 206.795C295.351 206.475 295.486 206.149 295.615 205.828C293.773 206.433 292.19 207.494 290.499 208.399C288.843 209.289 286.831 210.075 284.922 209.667C284.192 209.511 281.755 208.503 282.806 207.406C283.432 206.759 284.973 206.433 285.636 207.173V206.242C283.349 208.337 280.302 209.47 277.275 209.951C275.63 210.21 273.938 210.251 272.283 210.086C271.455 210.003 270.632 209.863 269.825 209.651C269.236 209.496 268.17 209.232 267.968 208.544C267.725 207.706 268.842 207.038 269.458 206.769C270.4 206.366 271.44 206.206 272.443 206.035L271.698 205.067C269.789 207.69 266.623 209.372 263.591 210.344C260.42 211.364 256.726 211.669 253.648 210.168C252.515 209.615 251.165 208.699 250.942 207.354C250.735 206.102 251.827 205.409 252.96 205.549C253.358 205.595 253.984 205.74 254.243 206.092C254.496 206.433 253.876 206.811 253.612 207.023C252.515 207.918 251.232 208.622 249.918 209.149C246.612 210.468 242.903 210.862 239.395 210.251C238.567 210.106 238.21 211.374 239.043 211.519L239.053 211.545Z" fill="#4F2B2B"/>
<path d="M148.761 189.961H192.937C199.885 189.961 205.53 195.6 205.53 202.553V212.714C205.53 219.662 199.891 225.306 192.937 225.306H148.761V189.966V189.961Z" fill="#307286"/>
<path d="M148.668 195.398H190.33C195.141 195.398 199.047 199.304 199.047 204.116V211.151C199.047 215.963 195.141 219.869 190.33 219.869H148.668V195.398Z" fill="#FFF4E9"/>
<path d="M297.199 160.638L173.123 160.638V134L297.199 134C301.555 134 305.093 137.539 305.093 141.895V152.743C305.093 157.1 301.555 160.638 297.199 160.638Z" fill="#E95D9A"/>
<path d="M154.11 134H189.657C194.013 134 197.552 137.538 197.552 141.894V152.748C197.552 157.104 194.013 160.643 189.657 160.643H154.11V134Z" fill="#E43A83"/>
<path d="M154.012 138.097H185.601C188.617 138.097 191.064 140.544 191.064 143.56V151.077C191.064 154.093 188.617 156.54 185.601 156.54H154.012V138.097Z" fill="#FFF4E9"/>
<path d="M185.441 169.623L180.78 166.643L175.653 169.623V143.213H185.441V169.623Z" fill="#357E94"/>
<path d="M263.157 149.794C265.019 149.474 266.975 149.106 268.496 147.901C269.882 146.804 270.731 145.081 270.379 143.307C270.327 143.053 270.012 142.789 269.743 142.826C268.258 143.017 266.975 143.974 266.494 145.418C266.023 146.814 266.545 148.454 267.658 149.396C268.967 150.508 270.736 150.425 272.319 150.053C273.933 149.67 275.485 148.977 276.846 148.03C277.524 147.554 278.17 147.026 278.75 146.437C279.277 145.899 279.665 145.252 279.412 144.481C278.884 142.883 276.866 142.924 275.909 144.072C275.004 145.159 275.128 146.69 275.92 147.803C276.789 149.018 278.17 149.712 279.665 149.644C281.626 149.556 283.39 148.449 284.896 147.275C285.548 146.768 286.174 146.126 286.318 145.278C286.463 144.45 286.168 143.653 285.465 143.183C285.237 143.033 284.849 143.074 284.668 143.286C283.809 144.29 283.67 145.635 284.156 146.851C284.699 148.206 285.889 149.111 287.327 149.334C290.825 149.872 293.334 147.114 295.279 144.636C295.563 144.279 295.517 143.876 295.144 143.602C294.037 142.784 292.542 143.664 292.077 144.781C291.585 145.966 291.963 147.285 292.749 148.247C294.803 150.767 298.29 149.779 300.587 148.191C301.28 147.715 300.623 146.571 299.925 147.052C298.378 148.118 296.019 149.22 294.286 147.916C293.686 147.466 293.194 146.742 293.168 145.976C293.147 145.361 293.742 144.186 294.477 144.735C294.43 144.388 294.389 144.047 294.343 143.7C292.832 145.619 291.026 147.953 288.362 148.077C287.265 148.128 286.158 147.756 285.573 146.773C285.118 146.007 284.973 144.936 285.594 144.212C285.33 144.248 285.061 144.279 284.797 144.316C285.123 144.533 285.072 145.019 284.927 145.33C284.694 145.826 284.177 146.183 283.747 146.499C282.785 147.202 281.74 147.87 280.576 148.175C279.562 148.439 278.496 148.387 277.643 147.73C277.001 147.239 276.442 146.4 276.608 145.557C276.685 145.159 276.954 144.74 277.348 144.579C277.679 144.445 278.227 144.59 278.175 145.035C278.129 145.423 277.384 145.93 277.104 146.173C276.675 146.545 276.215 146.882 275.739 147.187C274.807 147.782 273.804 148.253 272.748 148.573C271.672 148.899 270.4 149.215 269.298 148.837C268.273 148.491 267.57 147.425 267.647 146.344C267.725 145.252 268.667 144.279 269.753 144.14C269.541 143.979 269.329 143.819 269.117 143.659C269.396 145.071 268.439 146.437 267.29 147.156C265.95 147.999 264.347 148.258 262.815 148.522C261.982 148.666 262.334 149.934 263.167 149.789L263.157 149.794Z" fill="#4F2B2B"/>
<path d="M167.784 271.496L133.225 248.458L89.0741 345.735L150.442 362.979L167.784 271.496Z" fill="#FFBE97"/>
<path d="M89.0741 345.736L79.3427 370.755C71.4739 390.993 84.2265 413.343 105.65 416.861C123.649 419.815 140.793 408.118 144.601 390.285L150.437 362.974L89.0689 345.736H89.0741Z" fill="#DF8711"/>
<path d="M133.225 248.458C133.225 248.458 138.652 235.271 139.893 222.865C141.135 210.459 137.1 165.486 141.135 165.486C145.17 165.486 148.58 167.038 150.747 186.268C150.747 186.268 149.764 181.182 153.577 180.69C157.39 180.204 160.008 192.724 162.072 204.168C164.136 215.612 167.328 230.247 168.829 238.132C170.329 246.011 174.271 259.954 167.784 271.496C161.296 283.032 133.225 248.458 133.225 248.458Z" fill="#FFBE97"/>
<path d="M292.216 271.496L326.77 248.458L370.926 345.735L309.553 362.979L292.216 271.496Z" fill="#FFBE97"/>
<path d="M370.926 345.736L380.657 370.755C388.526 390.993 375.774 413.343 354.35 416.861C336.352 419.815 319.207 408.118 315.399 390.285L309.563 362.974L370.931 345.736H370.926Z" fill="#DF8711"/>
<path d="M326.77 248.458C326.77 248.458 321.343 235.271 320.102 222.865C318.86 210.459 322.895 165.486 318.86 165.486C314.825 165.486 311.415 167.038 309.248 186.268C309.248 186.268 310.231 181.182 306.418 180.69C302.605 180.204 299.987 192.724 297.923 204.168C295.859 215.612 292.667 230.247 291.166 238.132C289.666 246.011 285.724 259.954 292.211 271.496C298.699 283.038 326.77 248.458 326.77 248.458Z" fill="#FFBE97"/>
<path d="M307.918 212.833C307.918 212.833 307.887 212.833 307.876 212.833C307.525 212.807 307.256 212.502 307.281 212.15L309.242 183.142C309.268 182.791 309.578 182.537 309.925 182.547C310.277 182.573 310.546 182.879 310.52 183.23L308.559 212.238C308.539 212.574 308.254 212.838 307.918 212.838V212.833Z" fill="#4F2B2B"/>
<path d="M151.518 209.578C151.177 209.578 150.897 209.309 150.877 208.968L149.583 182.692C149.568 182.34 149.837 182.04 150.194 182.019C150.53 181.993 150.846 182.272 150.866 182.629L152.16 208.906C152.175 209.257 151.906 209.557 151.549 209.578C151.539 209.578 151.529 209.578 151.518 209.578Z" fill="#4F2B2B"/>
<path d="M225.318 313.385C216.264 313.385 209.994 310.54 209.896 310.493C209.575 310.343 209.435 309.966 209.585 309.645C209.735 309.324 210.118 309.185 210.434 309.335C210.589 309.407 225.804 316.283 242.944 308.124C243.265 307.974 243.647 308.108 243.797 308.429C243.947 308.75 243.813 309.133 243.492 309.283C236.932 312.402 230.646 313.391 225.318 313.391V313.385Z" fill="#4F2B2B"/>
<path d="M154.855 407.92C154.855 407.92 154.808 407.92 154.783 407.92C154.431 407.878 154.177 407.563 154.219 407.211L158.461 369.672C158.502 369.32 158.813 369.072 159.17 369.108C159.521 369.15 159.775 369.465 159.734 369.817L155.491 407.356C155.455 407.682 155.176 407.925 154.855 407.925V407.92Z" fill="#4F2B2B"/>
<path d="M331.768 413.611C331.669 413.611 331.571 413.59 331.478 413.544C315.249 405.318 309.17 364.789 308.916 363.071C308.865 362.72 309.108 362.394 309.46 362.347C309.811 362.295 310.137 362.538 310.184 362.89C310.246 363.304 316.418 404.48 332.057 412.406C332.373 412.566 332.497 412.954 332.337 413.27C332.223 413.492 332 413.621 331.763 413.621L331.768 413.611Z" fill="#4F2B2B"/>
<path d="M147.1 390.595C147.074 390.595 147.048 390.595 147.023 390.595C146.671 390.554 146.422 390.233 146.464 389.881L149.811 362.901C149.852 362.55 150.173 362.296 150.525 362.343C150.877 362.384 151.125 362.705 151.084 363.057L147.736 390.036C147.695 390.362 147.421 390.6 147.1 390.6V390.595Z" fill="#4F2B2B"/>
</g>
<defs>
<clipPath id="clip0_760_13008">
<rect width="460" height="460" fill="white"/>
</clipPath>
</defs>
</svg>
