<svg width="460" height="460" viewBox="0 0 460 460" fill="none" xmlns="http://www.w3.org/2000/svg">
<g clip-path="url(#clip0_760_12567)">
<rect width="460" height="460" fill="white"/>
<path d="M-170.515 273.006C-169.165 272.519 -167.708 272.966 -166.844 274.013L-103.509 230.769C-103.594 230.616 -103.67 230.455 -103.733 230.286C-104.352 228.564 -103.459 226.668 -101.739 226.047C-100.018 225.426 -98.1204 226.321 -97.4994 228.042C-97.4006 228.317 -97.3432 228.596 -97.3184 228.875L-54.7158 229.099C-54.5931 227.865 -53.7871 226.753 -52.544 226.306C-50.8235 225.685 -48.9258 226.58 -48.3049 228.3C-48.0323 229.062 -48.0546 229.858 -48.3114 230.562L-6.04646 250.649C-5.66625 250.011 -5.07307 249.496 -4.32037 249.223C-3.50355 248.93 -2.65086 248.98 -1.91076 249.291L50.3534 151.832C49.7781 151.454 49.3147 150.892 49.0617 150.195C48.4408 148.474 49.3355 146.577 51.056 145.956C52.7765 145.335 54.6743 146.23 55.2952 147.95C55.4744 148.452 55.5227 148.966 55.464 149.461L186.21 177.383C185.81 175.757 186.696 174.058 188.306 173.478C190.026 172.857 191.924 173.752 192.545 175.472C192.602 175.63 192.641 175.786 192.672 175.947L241.561 170.83C241.545 169.458 242.385 168.165 243.748 167.675C244.434 167.427 245.147 167.425 245.797 167.615L268.64 109.789L267.805 109.861L268.863 109.231L269.001 108.883L269.163 109.054L359.699 55.1037C359.654 55.0054 359.611 54.905 359.572 54.8006C358.951 53.0801 359.846 51.1824 361.567 50.5615C363.287 49.9405 365.185 50.8352 365.806 52.5558C366.427 54.2763 365.532 56.174 363.811 56.7949C363.172 57.0257 362.505 57.0445 361.891 56.8912L346.28 101.615C346.318 101.695 346.353 101.778 346.385 101.864C346.54 102.293 346.598 102.734 346.576 103.164L426.109 114.833C426.365 113.788 427.118 112.889 428.206 112.497C429.926 111.876 431.824 112.771 432.445 114.491C433.066 116.212 432.171 118.11 430.45 118.731C429.771 118.976 429.06 118.981 428.416 118.793L408.152 170.722C408.884 171.089 409.485 171.725 409.786 172.56C410.188 173.679 409.949 174.868 409.266 175.735L437.993 203.131C438.295 202.867 438.647 202.652 439.046 202.51C440.767 201.889 442.665 202.783 443.285 204.504C443.906 206.224 443.012 208.122 441.291 208.743C440.246 209.118 439.137 208.934 438.288 208.349L410.047 242.105C410.379 242.437 410.644 242.842 410.815 243.315C411.371 244.86 410.708 246.543 409.321 247.323L429.439 287.627C431.152 287.034 433.026 287.925 433.641 289.634C434.262 291.355 433.367 293.252 431.647 293.873C431.347 293.981 431.042 294.041 430.737 294.06L428.862 327.779C430.027 327.954 431.062 328.746 431.489 329.934C431.6 330.242 431.66 330.556 431.676 330.867L482.985 332.685C483.139 331.493 483.936 330.425 485.146 329.991C486.866 329.37 488.764 330.265 489.385 331.986C490.006 333.706 489.111 335.604 487.39 336.225C487.264 336.27 487.138 336.303 487.01 336.334L497.098 411.383C498.506 411.324 499.85 412.176 500.351 413.57C500.972 415.29 500.077 417.188 498.357 417.809C496.636 418.43 494.739 417.535 494.118 415.815C493.94 415.324 493.891 414.818 493.945 414.332L385.354 392.158C385.029 393.049 384.327 393.794 383.366 394.14C381.646 394.761 379.748 393.866 379.127 392.145C378.506 390.425 379.401 388.527 381.121 387.906C381.292 387.846 381.466 387.803 381.64 387.769L380.232 348.812C378.917 348.769 377.695 347.94 377.223 346.626C377.069 346.2 377.009 345.76 377.031 345.335L286.253 329.327C285.979 330.332 285.235 331.191 284.183 331.572C282.462 332.193 280.565 331.298 279.944 329.578C279.323 327.857 280.218 325.959 281.938 325.339C282.333 325.196 282.738 325.138 283.132 325.147L288.007 282.791C286.922 282.563 285.973 281.796 285.571 280.673L285.653 280.967L181.263 310.196C181.549 311.762 180.675 313.349 179.13 313.906C178.333 314.193 177.499 314.151 176.771 313.858L156.032 354.162C156.629 354.542 157.111 355.111 157.367 355.83C157.985 357.553 157.093 359.448 155.373 360.069C153.652 360.69 151.754 359.795 151.133 358.075C150.892 357.404 150.881 356.706 151.062 356.068L87.0682 331.754C86.7025 332.501 86.0619 333.111 85.2183 333.415C83.4978 334.036 81.6001 333.141 80.9792 331.421C80.721 330.704 80.7269 329.958 80.9469 329.286L42.3947 312.83C42.0218 313.522 41.4038 314.084 40.6069 314.371C38.8864 314.992 36.9887 314.098 36.3677 312.377C36.3018 312.195 36.2577 312.01 36.2242 311.828L-40.4761 316.605C-40.5421 317.899 -41.3682 319.086 -42.6624 319.553C-43.6369 319.903 -44.6683 319.77 -45.4936 319.273L-77.5126 361.185C-77.1114 361.541 -76.7907 362 -76.5945 362.539C-75.9736 364.26 -76.8683 366.157 -78.5888 366.778C-80.3113 367.397 -82.207 366.505 -82.828 364.784C-82.8314 364.771 -82.8349 364.758 -82.8406 364.746L-122.979 370.621L-144.196 373.726C-144.248 375.036 -145.074 376.247 -146.384 376.719C-148.104 377.34 -150.002 376.445 -150.623 374.725C-151.104 373.386 -150.671 371.946 -149.647 371.077L-172.234 329.593C-172.276 329.61 -172.318 329.631 -172.365 329.647C-174.086 330.268 -175.983 329.374 -176.604 327.653C-177.225 325.933 -176.33 324.035 -174.61 323.414C-174.201 323.268 -173.783 323.206 -173.375 323.223L-169.955 279.386C-171.091 279.189 -172.092 278.408 -172.509 277.245C-173.13 275.524 -172.236 273.627 -170.515 273.006ZM-146.725 370.384C-145.68 370.639 -144.781 371.392 -144.389 372.48C-144.314 372.691 -144.263 372.902 -144.229 373.112L-120.172 369.593L-82.9877 364.152C-83.0359 363.832 -83.0344 363.514 -82.99 363.202L-140.741 340.209L-146.723 370.382L-146.725 370.384ZM86.2145 327.753L108.373 305.642L79.0454 272.548C78.795 272.731 78.516 272.886 78.2096 272.996C78.0653 273.049 77.9177 273.085 77.7705 273.116L84.0222 326.986C84.8274 326.968 85.6066 327.245 86.2145 327.753ZM152.296 354.284C152.547 354.101 152.826 353.946 153.132 353.836C153.312 353.772 153.488 353.727 153.668 353.696L146.623 271.196C145.855 271.191 145.114 270.917 144.531 270.432L109.212 305.672L152.294 354.286L152.296 354.284ZM402.019 168.952L384.015 203.676L404.46 176.147C404.065 175.794 403.751 175.338 403.554 174.803C403.121 173.597 403.431 172.309 404.243 171.431L402.019 168.952ZM426.213 116.734C426.06 116.304 426 115.864 426.022 115.434L346.488 103.769C346.355 104.318 346.083 104.824 345.698 105.238L401.882 167.881L427.541 118.393C426.948 118.014 426.47 117.445 426.211 116.732L426.213 116.734ZM54.3948 151.54C54.1139 151.79 53.7883 151.994 53.4231 152.143L69.1445 204.544C70.7283 204.221 72.3518 205.1 72.9157 206.667L104.98 198.394L54.3948 151.54ZM-171.034 324.298C-170.988 324.351 -170.939 324.406 -170.898 324.463L-134.254 294.018C-134.41 293.788 -134.541 293.541 -134.64 293.27C-134.898 292.558 -134.89 291.815 -134.677 291.144L-143.56 287.385L-171.034 324.298ZM-68.1868 254.319L-55.8394 247.016C-55.8851 246.922 -55.9263 246.824 -55.9629 246.721C-56.1917 246.084 -56.2131 245.424 -56.0644 244.814L-66.1482 241.346L-127.635 289.493L-68.1868 254.319ZM-55.5295 247.541L-98.7063 273.086L-128.53 290.731C-128.484 290.825 -128.443 290.924 -128.406 291.026C-128.201 291.594 -128.164 292.179 -128.266 292.736L-67.8511 309.502L-53.8842 248.746C-54.5373 248.53 -55.1167 248.114 -55.5298 247.545L-55.5295 247.541ZM-134.438 290.581C-134.065 289.884 -133.447 289.319 -132.645 289.031C-131.871 288.751 -131.06 288.781 -130.345 289.053L-102.349 232.01L-143.185 286.881L-134.436 290.584L-134.438 290.581ZM-99.4915 232.279C-100.266 232.559 -101.077 232.529 -101.791 232.257L-129.797 289.321C-129.55 289.474 -129.319 289.659 -129.117 289.871L-66.841 241.107L-97.5985 230.523C-97.9562 231.312 -98.6146 231.962 -99.4935 232.276L-99.4915 232.279ZM-97.3957 229.947L-66.2653 240.66L-54.2034 231.215C-54.335 231.009 -54.4502 230.785 -54.5363 230.548C-54.6351 230.272 -54.6925 229.993 -54.7174 229.714L-97.32 229.49C-97.3346 229.645 -97.3578 229.8 -97.396 229.951L-97.3957 229.947ZM-52.0139 232.68C-52.7033 232.552 -53.3418 232.213 -53.8257 231.698L-65.5745 240.896L-55.8659 244.238C-55.5082 243.449 -54.8498 242.799 -53.9709 242.484C-53.6068 242.352 -53.2322 242.293 -52.8637 242.291L-52.0139 232.68ZM-49.9854 247.266L-15.7792 271.672L-5.21552 254.962C-5.70017 254.59 -6.08909 254.081 -6.31469 253.462C-6.4648 253.044 -6.52315 252.616 -6.50644 252.199L-49.6211 246.345C-49.6966 246.668 -49.819 246.978 -49.9854 247.266ZM37.6261 308.518C37.8507 308.366 38.0978 308.235 38.3664 308.138C38.8925 307.95 39.4309 307.901 39.9462 307.974L52.6585 264.855L-0.0397632 253.343C-0.222956 253.918 -0.558389 254.436 -1.01844 254.839L37.6282 308.521L37.6261 308.518ZM290.654 276.883L312.901 249.536C312.528 249.188 312.225 248.75 312.042 248.235C311.953 247.984 311.898 247.731 311.869 247.476L299.166 246.29L290.137 276.571C290.32 276.659 290.493 276.764 290.658 276.883L290.654 276.883ZM425.136 331.722C424.921 330.683 425.222 329.626 425.897 328.86L410.83 312.792L382.881 343.385C383.122 343.674 383.321 344.008 383.456 344.381L425.134 331.72L425.136 331.722ZM382.45 342.954L410.413 312.344L363.534 262.357C363.265 262.564 362.961 262.737 362.624 262.858C362.586 262.871 362.546 262.881 362.508 262.894L379.985 342.215C380.884 342.118 381.77 342.395 382.448 342.952L382.45 342.954ZM70.9257 210.907C70.7813 210.96 70.6381 210.996 70.4908 211.028L77.009 266.571C77.9511 266.547 78.8598 266.93 79.5017 267.611L112.117 242.155L72.1823 210.091C71.8405 210.443 71.4186 210.727 70.9257 210.907ZM79.8771 268.096C80.0087 268.302 80.1199 268.521 80.208 268.761C80.2979 269.008 80.3507 269.258 80.3796 269.509L143.358 268.17C143.333 267.867 143.348 267.569 143.404 267.28L112.609 242.553L79.8792 268.098L79.8771 268.096ZM143.589 266.642C143.752 266.248 143.986 265.884 144.286 265.576L135.665 231.69L134.83 228.408C133.757 228.58 132.685 228.21 131.942 227.455L113.098 242.161L143.585 266.638L143.589 266.642ZM135.432 228.255C135.432 228.255 135.43 228.257 135.428 228.259L136.258 231.528L144.811 265.145C145.031 264.997 145.273 264.87 145.535 264.775C145.968 264.619 146.412 264.56 146.842 264.582L159.268 238.711L137.059 226.989C136.679 227.553 136.124 228.011 135.434 228.258L135.432 228.255ZM72.565 209.613L112.613 241.769L131.559 226.981C131.411 226.761 131.286 226.521 131.193 226.261C130.999 225.719 130.954 225.162 131.036 224.63L72.9083 208.942C72.8213 209.177 72.7047 209.401 72.565 209.613ZM187.167 179.009L137.02 223.242C137.185 223.476 137.324 223.736 137.427 224.016C137.723 224.842 137.67 225.705 137.348 226.451L159.53 238.157L187.734 179.439C187.53 179.317 187.342 179.172 187.169 179.007L187.167 179.009ZM160.07 238.444L185.879 252.066C186.255 251.554 186.78 251.146 187.424 250.916C187.675 250.826 187.93 250.769 188.183 250.743L188.732 207.722L189.087 179.892C188.809 179.863 188.54 179.802 188.284 179.705L160.07 238.444ZM341.499 105.787L323.165 130.051L311.835 145.05C312.221 145.403 312.53 145.848 312.72 146.376C313.094 147.411 312.915 148.506 312.343 149.353L325.016 159.753L341.938 106.024C341.784 105.955 341.638 105.876 341.496 105.789L341.499 105.787ZM273.08 240.777L309.917 202.877C309.666 202.581 309.455 202.237 309.318 201.849C309.078 201.181 309.068 200.487 309.244 199.848L291.96 192.137L272.521 240.413C272.72 240.515 272.909 240.638 273.084 240.778L273.08 240.777ZM309.458 199.275C309.823 198.528 310.464 197.913 311.312 197.61C311.525 197.533 311.739 197.48 311.956 197.449L309.476 150.808C309.197 150.796 308.923 150.747 308.659 150.669L292.188 191.572L309.46 199.277L309.458 199.275ZM311.957 149.825C311.62 150.165 311.207 150.441 310.726 150.615C310.515 150.69 310.299 150.745 310.087 150.777L310.979 167.435L312.586 197.417C312.772 197.425 312.954 197.452 313.134 197.49L324.821 160.38L311.957 149.821L311.957 149.825ZM313.715 197.675C314.54 198.022 315.223 198.696 315.551 199.604C315.683 199.973 315.743 200.347 315.744 200.716L378.739 206.323C378.823 205.871 378.998 205.445 379.255 205.065L325.33 160.803L313.717 197.678L313.715 197.675ZM378.876 208.039C378.745 207.671 378.685 207.296 378.683 206.928L315.689 201.321C315.57 201.978 315.25 202.588 314.777 203.064L339.123 232.346L379.01 208.354C378.96 208.251 378.917 208.146 378.879 208.037L378.876 208.039ZM314.306 203.455C314.077 203.611 313.828 203.744 313.557 203.843C313.475 203.875 313.391 203.895 313.309 203.918L315.124 243.808C316.184 243.798 317.196 244.298 317.828 245.154L338.593 232.664L314.306 203.455ZM314.039 243.998C314.196 243.941 314.357 243.902 314.515 243.869L312.702 204.023C312.391 204.048 312.084 204.028 311.785 203.969L299.342 245.692L311.856 246.862C311.952 245.603 312.769 244.452 314.034 243.998L314.039 243.998ZM311.2 203.794C310.951 203.695 310.713 203.566 310.493 203.409L273.525 241.212C273.775 241.506 273.98 241.847 274.119 242.233C274.253 242.604 274.312 242.982 274.311 243.357L298.722 245.638L311.198 203.796L311.2 203.794ZM191.661 252.908C191.677 252.954 191.69 253.001 191.704 253.049L236.681 247.376L267.688 243.463C267.665 242.76 267.871 242.076 268.255 241.503L222.583 204.123L190.471 251.336C191.001 251.713 191.425 252.249 191.661 252.908ZM270.172 240.145C270.774 239.988 271.384 240.011 271.947 240.18L291.396 191.883L247.764 172.417C247.435 173.002 246.928 173.491 246.284 173.795L270.172 240.145ZM248.015 171.859L291.627 191.316L308.089 150.437C307.454 150.111 306.924 149.584 306.605 148.9L248.086 169.968C248.254 170.61 248.219 171.266 248.015 171.859ZM308.481 144.377C309.471 144.022 310.517 144.167 311.348 144.68L319.608 133.744L341.012 105.412C340.914 105.319 340.819 105.219 340.73 105.114L295.285 136.432L306.332 148.013C306.087 146.471 306.958 144.927 308.481 144.377ZM344.071 106.208C343.547 106.338 343.018 106.333 342.519 106.218L325.526 160.173L379.64 204.59C379.9 204.325 380.205 204.103 380.552 203.933L344.071 106.208ZM379.324 208.875L339.514 232.821L359.629 257.013C359.858 256.857 360.108 256.723 360.379 256.624C361.058 256.379 361.765 256.374 362.407 256.559L380.515 209.877C380.051 209.645 379.64 209.306 379.324 208.875ZM359.159 257.404L338.986 233.141L318.145 245.678C318.194 245.781 318.237 245.886 318.275 245.995C318.479 246.556 318.516 247.137 318.419 247.69L358.401 258.585C358.564 258.145 358.822 257.744 359.159 257.408L359.159 257.404ZM289.56 276.358L298.544 246.233L274.254 243.965C274.084 244.866 273.547 245.673 272.743 246.171L287.762 276.375C288.367 276.199 288.987 276.2 289.558 276.355L289.56 276.358ZM287.192 276.602L272.194 246.44C272.169 246.449 272.147 246.461 272.123 246.47C270.402 247.091 268.504 246.196 267.883 244.475C267.836 244.342 267.797 244.205 267.767 244.069L198.411 252.821L191.831 253.649C191.857 253.874 191.86 254.1 191.841 254.32L285.631 278.291C285.927 277.576 286.466 276.966 287.192 276.598L287.192 276.602ZM185.562 252.591L159.804 238.998L147.466 264.681C148.446 264.933 149.291 265.628 149.706 266.622L185.269 254.531C185.166 253.857 185.278 253.186 185.562 252.596L185.562 252.591ZM75.9646 266.766C76.109 266.713 76.2522 266.677 76.3995 266.646L69.8812 211.102C69.6382 211.108 69.3968 211.088 69.1637 211.04L53.4318 264.402L73.9351 268.882C74.2383 267.933 74.9588 267.131 75.9689 266.767L75.9646 266.766ZM-0.0795352 251.223C0.103723 251.73 0.149481 252.251 0.0881939 252.751L52.829 264.275L68.5748 210.869C68.0131 210.645 67.5135 210.27 67.1433 209.773L-0.222111 250.889C-0.168537 250.997 -0.119554 251.108 -0.0795352 251.223ZM73.069 207.265C73.1271 207.633 73.1244 208.001 73.0619 208.357L131.179 224.041C131.294 223.713 131.464 223.405 131.678 223.125L105.513 198.89L73.067 207.263L73.069 207.265ZM132.095 222.678C132.404 222.399 132.77 222.176 133.185 222.024C134.422 221.579 135.745 221.916 136.624 222.776L186.761 178.551C186.638 178.382 186.529 178.202 186.438 178.005L106.221 198.705L132.098 222.671L132.095 222.678ZM190.557 179.718C190.272 179.821 189.985 179.878 189.699 179.9L188.795 250.731C189.196 250.762 189.586 250.864 189.943 251.03L222.11 203.737L191.792 178.924C191.455 179.268 191.041 179.542 190.557 179.718ZM222.928 203.617L268.642 241.03C268.911 240.758 269.228 240.525 269.595 240.354L245.707 174.004C244.862 174.223 244 174.093 243.276 173.694L222.926 203.615L222.928 203.617ZM247.877 169.395L305.938 148.491L294.771 136.788L247.763 169.182C247.804 169.252 247.841 169.321 247.877 169.395ZM340.384 104.612C340.295 104.454 340.217 104.291 340.153 104.116C340.089 103.94 340.046 103.762 340.012 103.584L269.775 109.697L294.855 135.987L340.382 104.614L340.384 104.612ZM345.246 105.655C345.1 105.762 344.942 105.86 344.776 105.945L344.703 106.154L381.125 203.724C381.847 203.527 382.584 203.588 383.238 203.853L401.585 168.47L345.25 105.655L345.246 105.655ZM437.576 203.578L408.848 176.182C408.547 176.446 408.195 176.661 407.795 176.803C407.54 176.897 407.281 176.949 407.021 176.978L407.401 206.05L436.866 205.399C436.912 204.733 437.162 204.099 437.573 203.58L437.576 203.578ZM406.409 176.985C405.89 176.944 405.389 176.781 404.952 176.514L384.204 204.45C384.599 204.803 384.913 205.259 385.11 205.795C385.2 206.041 385.253 206.292 385.282 206.538L406.791 206.064L406.409 176.985ZM385.296 207.148C385.232 208.05 384.801 208.89 384.1 209.468L405.971 241.614C406.159 241.499 406.364 241.4 406.58 241.321C406.802 241.24 407.029 241.188 407.254 241.157L406.803 206.671L385.298 207.146L385.296 207.148ZM405.481 241.983L386.559 214.168L404.429 244.949C404.255 243.837 404.665 242.722 405.481 241.983ZM383.385 209.919C383.298 209.959 383.209 209.997 383.118 210.032C382.439 210.277 381.732 210.282 381.09 210.097L362.982 256.779C363.718 257.146 364.322 257.784 364.622 258.619C364.888 259.354 364.874 260.122 364.638 260.809L427.704 289.029C427.954 288.619 428.299 288.26 428.714 287.987L383.386 209.915L383.385 209.919ZM364.386 261.366C364.271 261.569 364.139 261.762 363.982 261.94L410.826 311.892L428.09 292.997C427.801 292.681 427.568 292.308 427.414 291.877C427.134 291.102 427.165 290.294 427.436 289.582L364.388 261.369L364.386 261.366ZM428.544 293.404L411.248 312.336L426.35 328.439C426.619 328.231 426.923 328.059 427.26 327.938C427.591 327.819 427.927 327.756 428.261 327.744L430.134 294.04C429.555 293.969 429.009 293.749 428.546 293.402L428.544 293.404ZM429.503 334.173C427.825 334.778 425.984 333.943 425.318 332.306L383.811 344.916L482.285 333.274L431.668 331.48C431.513 332.672 430.717 333.74 429.507 334.174L429.503 334.173ZM483.162 334.229C483.111 334.087 483.073 333.941 483.043 333.796L383.657 345.547C383.65 346.045 383.531 346.532 383.314 346.97L420.895 369.192L483.254 334.441C483.224 334.37 483.192 334.3 483.164 334.227L483.162 334.229ZM379.222 342.387C379.277 342.367 379.334 342.354 379.39 342.338L361.915 263.028C360.92 263.155 359.935 262.814 359.225 262.143L337.877 280.845L378.782 342.586C378.923 342.511 379.066 342.442 379.222 342.387ZM358.822 261.683C358.643 261.438 358.494 261.165 358.387 260.861C358.183 260.3 358.146 259.719 358.243 259.166L318.261 248.271C318.056 248.821 317.703 249.313 317.238 249.688L337.536 280.326L358.822 261.679L358.822 261.683ZM316.724 250.029C316.582 250.104 316.437 250.175 316.281 250.229C315.595 250.477 314.882 250.479 314.234 250.291L284.556 325.501C284.841 325.645 285.104 325.83 285.341 326.053L337.069 280.739L316.721 250.031L316.724 250.029ZM283.988 325.275L313.663 250.067C313.569 250.02 313.475 249.968 313.386 249.908L291.11 277.288C291.41 277.607 291.649 277.991 291.807 278.426C292.425 280.149 291.533 282.044 289.812 282.665C289.417 282.808 289.012 282.866 288.619 282.857L283.745 325.211C283.829 325.227 283.909 325.25 283.99 325.273L283.988 325.275ZM285.451 278.875L191.732 254.919C191.454 255.915 190.712 256.767 189.665 257.145C189.194 257.313 188.709 257.368 188.24 257.324L178.91 307.602C179.882 307.877 180.712 308.593 181.098 309.604L285.482 280.377C285.351 279.87 285.346 279.358 285.449 278.873L285.451 278.875ZM176.89 307.673C177.36 307.504 177.845 307.45 178.312 307.491L187.437 258.319L172.598 302.862L176.313 307.942C176.491 307.835 176.686 307.741 176.89 307.668L176.89 307.673ZM187.211 257.058C186.409 256.704 185.746 256.04 185.426 255.15C185.422 255.141 185.42 255.13 185.415 255.119L149.887 267.199C150.14 268.384 149.72 269.589 148.841 270.368L172.153 302.26L187.208 257.06L187.211 257.058ZM148.349 270.73C148.171 270.837 147.976 270.93 147.772 271.003C147.594 271.065 147.416 271.112 147.236 271.144L154.28 353.643C154.527 353.647 154.77 353.673 155.009 353.728L171.917 302.971L148.349 270.73ZM144.102 269.998C143.863 269.711 143.668 269.382 143.533 269.009C143.505 268.931 143.484 268.852 143.461 268.775L80.3894 270.114C80.3349 270.874 80.0189 271.59 79.5034 272.143L108.809 305.212L144.102 269.998ZM74.6383 272.112C74.3533 271.8 74.1224 271.425 73.9705 271.001C73.7873 270.495 73.7416 269.974 73.8028 269.473L53.2589 264.984L40.5415 308.115C40.8468 308.218 41.1339 308.365 41.397 308.549L74.6386 272.107L74.6383 272.112ZM37.1517 308.91L-1.51879 255.196C-1.69249 255.299 -1.87825 255.389 -2.07354 255.458C-2.97035 255.78 -3.91137 255.69 -4.69753 255.289L-15.2805 272.028L36.8636 309.235C36.9536 309.12 37.0496 309.011 37.154 308.908L37.1517 308.91ZM-16.1083 272.192L-50.3412 247.765C-50.7025 248.183 -51.169 248.518 -51.7261 248.718C-51.8593 248.765 -51.9916 248.8 -52.1259 248.832L-45.5436 300.193L-43.887 313.129C-43.305 313.112 -42.7357 313.251 -42.2352 313.516L-16.1106 272.194L-16.1083 272.192ZM-44.9073 313.32C-44.7718 313.27 -44.6329 313.234 -44.4922 313.204L-52.7314 248.911C-52.9204 248.918 -53.1039 248.908 -53.2886 248.883L-67.2616 309.664L-46.9006 315.314C-46.5769 314.417 -45.8728 313.666 -44.9073 313.32ZM-67.988 310.097L-128.43 293.323C-128.624 293.831 -128.94 294.286 -129.359 294.649L-81.8019 361.096C-81.5202 360.866 -81.1977 360.677 -80.8359 360.547C-80.4097 360.393 -79.9702 360.333 -79.5447 360.355L-67.9923 310.097L-67.988 310.097ZM-82.8462 362.601C-82.7121 362.211 -82.508 361.845 -82.2401 361.529L-129.852 295.004C-130.024 295.105 -130.207 295.193 -130.4 295.26C-130.886 295.434 -131.382 295.486 -131.864 295.437L-140.619 339.597L-82.8439 362.599L-82.8462 362.601ZM-132.465 295.321C-132.992 295.165 -133.472 294.882 -133.864 294.49L-170.561 324.977C-170.488 325.117 -170.421 325.258 -170.366 325.409C-170.083 326.197 -170.117 327.02 -170.404 327.742L-141.2 339.37L-132.465 295.321ZM-171.492 323.887L-144.144 287.14L-166.478 277.689C-166.851 278.386 -167.469 278.952 -168.27 279.239C-168.626 279.367 -168.987 279.428 -169.345 279.433L-172.767 323.3C-172.306 323.404 -171.872 323.601 -171.492 323.887ZM-166.5 274.517C-166.415 274.67 -166.339 274.831 -166.276 275C-166.018 275.713 -166.025 276.456 -166.239 277.126L-143.769 286.636L-102.831 231.627C-102.95 231.519 -103.063 231.399 -103.165 231.273L-166.5 274.517ZM-48.5734 231.117C-48.9536 231.755 -49.5468 232.271 -50.2995 232.544C-50.6636 232.676 -51.0381 232.736 -51.4066 232.737L-52.2564 242.348C-51.1344 242.553 -50.1478 243.331 -49.734 244.481C-49.5839 244.898 -49.5256 245.327 -49.5423 245.744L-6.42766 251.597C-6.39726 251.465 -6.35819 251.333 -6.31282 251.204L-48.5777 231.117L-48.5734 231.117ZM-1.37321 249.584C-1.05752 249.791 -0.775746 250.053 -0.542841 250.365L66.8225 209.249C66.7689 209.141 66.7199 209.03 66.6799 208.914C66.0737 207.234 66.9152 205.387 68.5583 204.724L52.8369 152.323C52.167 152.459 51.4938 152.382 50.893 152.128L-1.3712 249.586L-1.37321 249.584ZM55.3395 150.066C55.2241 150.435 55.0428 150.785 54.8056 151.095L105.681 198.215L184.979 177.75L55.3375 150.064L55.3395 150.066ZM192.739 176.562C192.749 177.241 192.545 177.899 192.175 178.451L222.449 203.228L242.768 173.35C242.324 172.983 241.966 172.5 241.757 171.918C241.701 171.761 241.661 171.604 241.631 171.444L192.742 176.56L192.739 176.562ZM246.369 167.846C246.766 168.047 247.122 168.329 247.413 168.675L294.34 136.337L269.217 110.002L246.367 167.843L246.369 167.846ZM361.313 56.6948C360.804 56.4617 360.351 56.0981 360.013 55.6337L270.415 109.026L339.959 102.976C339.968 101.627 340.804 100.362 342.147 99.8765C343.526 99.3804 345.011 99.8556 345.871 100.944L361.317 56.6951L361.313 56.6948ZM426.953 120.859L402.317 168.373L404.695 171.023C404.948 170.834 405.234 170.677 405.546 170.565C406.226 170.32 406.937 170.315 407.583 170.501L426.955 120.857L426.953 120.859ZM437.817 207.961C437.486 207.629 437.218 207.221 437.05 206.751C436.96 206.504 436.909 206.256 436.878 206.007L407.406 206.659L407.858 241.132C408.478 241.163 409.071 241.371 409.577 241.716L437.817 207.961ZM408.761 247.574C407.654 247.95 406.483 247.707 405.629 247.025L426.012 282.133L408.763 247.576L408.761 247.574ZM486.407 336.42C485.272 336.466 484.186 335.922 483.539 334.98L421.493 369.554L494.548 412.751C494.925 412.229 495.457 411.812 496.108 411.575C496.234 411.529 496.362 411.495 496.488 411.466L486.405 336.417L486.407 336.42ZM494.067 413.733C494.114 413.578 494.17 413.423 494.24 413.276L420.879 369.901L385.289 389.735C385.314 389.791 385.338 389.847 385.36 389.905C385.56 390.458 385.6 391.028 385.51 391.57L494.067 413.733ZM382.246 387.714C383.344 387.715 384.383 388.265 384.998 389.194L420.265 369.54L382.982 347.497C382.606 347.996 382.088 348.397 381.458 348.624C381.253 348.698 381.046 348.749 380.838 348.781L382.246 387.714ZM377.116 344.732C377.287 344.026 377.686 343.387 378.263 342.926L337.403 281.256L285.737 326.515C285.916 326.761 286.065 327.033 286.173 327.337C286.337 327.799 286.393 328.27 286.356 328.729L377.114 344.734L377.116 344.732ZM174.889 311.913C174.416 310.599 174.826 309.183 175.814 308.31L172.356 303.578L155.8 353.28L176.226 313.579C175.629 313.2 175.147 312.63 174.889 311.909L174.889 311.913ZM151.28 355.499C151.425 355.205 151.612 354.932 151.838 354.693L108.779 306.105L86.645 328.189C86.884 328.476 87.0809 328.807 87.2146 329.178C87.4564 329.848 87.4666 330.547 87.2857 331.185L151.28 355.499ZM81.1856 328.723C81.5586 328.031 82.1765 327.469 82.9735 327.181C83.1179 327.128 83.2654 327.092 83.4127 327.061L77.1609 273.191C76.4078 273.208 75.6804 272.967 75.0878 272.523L41.858 308.95C42.1767 309.276 42.4364 309.675 42.5989 310.134C42.8571 310.851 42.8512 311.596 42.6312 312.269L81.1833 328.725L81.1856 328.723ZM36.1735 311.218C36.1792 310.705 36.3055 310.204 36.5345 309.755L-15.6096 272.548L-41.7198 313.849C-41.2545 314.218 -40.8799 314.715 -40.6661 315.317C-40.5857 315.543 -40.5312 315.768 -40.5009 315.997L36.1775 311.223L36.1735 311.218ZM-45.9877 318.913C-46.389 318.557 -46.7097 318.098 -46.9059 317.559C-47.1036 317.008 -47.1465 316.444 -47.0567 315.906L-67.4008 310.262L-78.9353 360.447C-78.609 360.527 -78.2946 360.654 -78.0091 360.827L-45.9877 318.913ZM-149.143 370.725C-148.98 370.631 -148.81 370.552 -148.628 370.486C-148.2 370.33 -147.76 370.27 -147.33 370.292L-141.32 339.98L-170.68 328.29C-170.932 328.693 -171.274 329.046 -171.688 329.311L-149.14 370.723L-149.143 370.725Z" fill="#6A3939"/>
<path d="M431.932 129H179.718C174.283 129 169.877 133.406 169.877 138.841V324.729C169.877 330.164 174.283 334.57 179.718 334.57H431.932C437.367 334.57 441.773 330.164 441.773 324.729V138.841C441.773 133.406 437.367 129 431.932 129Z" fill="#FBE4C6"/>
<path d="M425.624 326.055L352.614 326.299C349.391 326.309 346.769 323.705 346.759 320.482L346.735 313.184C346.725 309.96 349.329 307.339 352.553 307.329L425.562 307.085C428.786 307.076 431.407 309.679 431.417 312.903L431.441 320.2C431.451 323.424 428.848 326.045 425.624 326.055Z" fill="white"/>
<path d="M414.459 307.129L363.65 307.297L363.713 326.265L414.522 326.097L414.459 307.129Z" fill="#3F97B1"/>
<path d="M455.652 325.16H156V340.214H455.652V325.16Z" fill="#2B6577"/>
<path d="M202.484 203.462C202.141 203.462 201.852 203.196 201.828 202.849C201.802 202.486 202.075 202.171 202.439 202.145C206.075 201.884 209.682 200.808 212.868 199.033C215.494 197.568 218.081 195.005 217.469 192.204C216.934 189.764 214.161 188.455 211.946 188.076C210.847 187.889 209.688 187.827 208.569 187.767C207.013 187.683 205.405 187.598 203.845 187.179C200.972 186.407 198.165 184.017 198.361 180.943C198.518 178.453 200.559 176.659 202.079 175.528C203.849 174.212 208.38 171.379 212.19 173.489C212.509 173.667 212.625 174.068 212.447 174.387C212.27 174.706 211.869 174.82 211.549 174.644C208.411 172.905 204.431 175.424 202.865 176.588C200.785 178.136 199.771 179.546 199.678 181.026C199.528 183.366 201.89 185.288 204.186 185.904C205.613 186.287 207.081 186.367 208.637 186.449C209.794 186.51 210.991 186.574 212.166 186.776C214.909 187.247 218.081 188.845 218.755 191.921C219.523 195.43 216.549 198.49 213.511 200.184C210.155 202.053 206.359 203.186 202.53 203.46C202.514 203.46 202.498 203.46 202.482 203.46L202.484 203.462Z" fill="#9F5656"/>
<path d="M228.287 197.716C228.263 197.716 228.237 197.716 228.213 197.712C227.85 197.67 227.591 197.345 227.631 196.982C227.828 195.227 227.936 193.673 227.262 192.42C226.898 191.749 226.142 191.213 225.376 191.085C225.009 191.021 224.489 191.031 224.074 191.412C223.407 192.027 223.21 193.724 223.361 195.085C223.399 195.428 223.168 195.741 222.831 195.805C222.486 195.869 222.16 195.666 222.071 195.332C221.724 194.076 221.616 192.619 221.512 191.211L221.472 190.67C221.444 190.307 221.716 189.99 222.079 189.962C222.452 189.928 222.759 190.205 222.787 190.568L222.809 190.866C222.919 190.712 223.04 190.568 223.18 190.441C223.808 189.86 224.662 189.625 225.596 189.782C226.761 189.978 227.87 190.766 228.423 191.793C229.35 193.511 229.115 195.602 228.943 197.13C228.905 197.467 228.62 197.716 228.287 197.716Z" fill="#9F5656"/>
<path d="M234.324 177.641C234.042 177.641 233.783 177.461 233.693 177.178C233.584 176.831 233.777 176.46 234.126 176.352C237.986 175.143 241.99 174.341 246.024 173.972C246.383 173.934 246.708 174.208 246.742 174.569C246.774 174.932 246.509 175.253 246.146 175.287C242.206 175.648 238.296 176.43 234.523 177.611C234.457 177.631 234.392 177.641 234.326 177.641H234.324Z" fill="#9F5656"/>
<path d="M236.674 186.578C236.372 186.578 236.099 186.371 236.031 186.064C235.951 185.708 236.175 185.355 236.53 185.276L246.884 182.941C247.239 182.862 247.592 183.085 247.672 183.44C247.752 183.795 247.528 184.148 247.173 184.228L236.819 186.562C236.769 186.572 236.721 186.578 236.674 186.578Z" fill="#9F5656"/>
<path d="M254.66 177.477C254.333 177.477 254.05 177.236 254.006 176.903C253.93 176.33 253.854 175.752 253.786 175.171L252.182 162.467C252.137 162.106 252.394 161.775 252.755 161.729C253.122 161.685 253.447 161.941 253.493 162.302L254.086 167C254.73 164.763 255.927 162.936 257.551 161.741C260.039 159.914 263.516 159.884 265.642 161.671C266.891 162.723 267.579 164.257 268.036 165.474C269.243 168.674 269.828 172.175 269.726 175.596C269.716 175.961 269.415 176.256 269.046 176.236C268.681 176.224 268.395 175.921 268.405 175.556C268.503 172.306 267.949 168.981 266.801 165.938C266.398 164.871 265.808 163.535 264.793 162.681C263.147 161.296 260.31 161.35 258.333 162.802C256.581 164.091 255.362 166.383 254.989 169.092C254.722 171.048 254.866 173.052 255.099 175.029L255.315 176.731V176.735C255.36 177.096 255.105 177.425 254.744 177.473C254.716 177.477 254.688 177.479 254.66 177.479V177.477Z" fill="#9F5656"/>
<path d="M281.403 177.938C281.321 177.938 281.239 177.924 281.159 177.892C278.237 176.733 275.031 175.243 273.967 172.191C273.463 170.744 273.561 169.216 273.69 167.899C274.141 163.333 275.258 158.868 277.014 154.627C277.153 154.29 277.542 154.132 277.876 154.27C278.213 154.41 278.372 154.795 278.233 155.132C276.527 159.251 275.442 163.592 275.003 168.029C274.887 169.206 274.797 170.563 275.212 171.758C276.092 174.283 278.993 175.616 281.642 176.667C281.981 176.803 282.147 177.186 282.013 177.523C281.911 177.782 281.662 177.94 281.399 177.94L281.403 177.938Z" fill="#9F5656"/>
<path d="M285.339 171.008C284.599 171.008 283.824 170.836 283.058 170.501C280.094 169.202 278.33 165.713 279.043 162.555C279.757 159.399 282.915 157.005 286.081 157.105C286.446 157.115 286.731 157.42 286.719 157.785C286.709 158.148 286.41 158.423 286.039 158.423C283.453 158.334 280.898 160.327 280.329 162.844C279.761 165.362 281.221 168.255 283.587 169.29C284.15 169.535 285.009 169.795 285.905 169.635C287.655 169.324 288.786 167.524 289.097 165.986C289.47 164.131 289.057 162.134 288.692 160.371C288.632 160.081 288.772 159.788 289.033 159.652C289.297 159.517 289.616 159.571 289.817 159.784L295.908 166.22C296.159 166.485 296.147 166.902 295.882 167.153C295.619 167.403 295.202 167.393 294.948 167.127L290.396 162.316C290.583 163.59 290.657 164.923 290.39 166.248C289.981 168.277 288.505 170.511 286.137 170.934C285.875 170.98 285.61 171.004 285.339 171.004V171.008Z" fill="#9F5656"/>
<path d="M301.946 167.333C301.677 167.333 301.422 167.165 301.326 166.896C299.77 162.577 298.529 158.1 297.637 153.59C297.568 153.233 297.799 152.886 298.158 152.814C298.515 152.742 298.862 152.975 298.934 153.334C299.812 157.779 301.035 162.192 302.569 166.449C302.693 166.792 302.515 167.169 302.172 167.293C302.098 167.321 302.022 167.333 301.948 167.333H301.946Z" fill="#9F5656"/>
<path d="M295.479 160.72C295.19 160.72 294.924 160.528 294.845 160.235C294.747 159.884 294.954 159.521 295.305 159.423L303.774 157.079C304.121 156.983 304.488 157.187 304.586 157.54C304.684 157.891 304.476 158.254 304.125 158.352L295.656 160.696C295.599 160.712 295.539 160.72 295.479 160.72Z" fill="#9F5656"/>
<path d="M313.531 166.529C313.31 166.529 313.093 166.417 312.967 166.212C310.192 161.661 308.343 156.464 307.622 151.182C307.572 150.821 307.826 150.488 308.187 150.44C308.542 150.392 308.881 150.643 308.929 151.004C309.625 156.107 311.411 161.129 314.092 165.524C314.282 165.835 314.184 166.242 313.873 166.429C313.765 166.495 313.647 166.525 313.529 166.525L313.531 166.529Z" fill="#9F5656"/>
<path d="M322.479 170.226C322.371 170.226 322.261 170.2 322.161 170.144C321.842 169.968 321.724 169.567 321.9 169.248C323.257 166.768 323.476 163.572 322.59 159.19C321.635 154.461 319.945 149.937 317.567 145.742C317.387 145.424 317.499 145.021 317.816 144.842C318.134 144.662 318.535 144.774 318.716 145.091C321.164 149.408 322.901 154.062 323.885 158.928C324.483 161.889 325.048 166.248 323.057 169.882C322.937 170.102 322.712 170.226 322.479 170.226Z" fill="#9F5656"/>
<path d="M251.197 191.494C250.897 191.494 250.624 191.288 250.554 190.983C250.473 190.628 250.692 190.273 251.047 190.191L327.843 172.354C328.204 172.266 328.553 172.492 328.635 172.847C328.717 173.202 328.495 173.557 328.142 173.639L251.346 191.476C251.296 191.488 251.247 191.494 251.197 191.494Z" fill="#9F5656"/>
<path d="M285.157 201.135C284.848 201.135 284.573 200.918 284.511 200.605C284.441 200.258 284.658 199.916 285.003 199.835C286.805 199.4 288.882 198.789 290.619 197.552C292.343 196.326 293.468 194.558 293.628 192.822C293.805 190.911 292.68 188.99 291.068 188.449C290.236 188.17 289.217 188.332 288.405 188.866C287.705 189.329 287.27 190.004 287.214 190.718C287.186 191.081 286.861 191.356 286.504 191.324C286.141 191.294 285.869 190.977 285.897 190.614C285.985 189.493 286.635 188.453 287.677 187.765C288.838 186.997 290.262 186.786 291.487 187.197C293.689 187.937 295.176 190.409 294.94 192.942C294.743 195.087 293.446 197.157 291.383 198.626C291.264 198.712 291.142 198.793 291.018 198.875L302.433 197.062C302.798 197 303.132 197.249 303.189 197.61C303.247 197.971 303.002 198.309 302.641 198.366L285.261 201.125C285.225 201.131 285.191 201.133 285.157 201.133V201.135Z" fill="#9F5656"/>
<path d="M247.133 252.687C245.847 252.687 244.514 252.384 243.277 251.779C242.95 251.62 242.814 251.225 242.974 250.895C243.135 250.568 243.53 250.435 243.858 250.592C245.904 251.594 248.235 251.63 249.946 250.688C251.784 249.676 252.797 247.392 252.207 245.595C251.614 243.793 249.687 242.485 246.479 241.701L245.607 241.493C243.193 240.929 240.7 240.344 238.99 238.461C237.067 236.34 236.873 232.859 238.545 230.537C240.219 228.215 243.58 227.299 246.202 228.444C246.535 228.592 246.686 228.981 246.541 229.314C246.393 229.647 246.006 229.797 245.671 229.653C243.596 228.741 240.939 229.47 239.616 231.307C238.294 233.144 238.449 235.897 239.969 237.573C241.4 239.151 243.692 239.688 245.908 240.208L246.792 240.418C250.473 241.318 252.715 242.92 253.459 245.182C254.253 247.594 252.989 250.52 250.581 251.843C249.561 252.404 248.37 252.683 247.133 252.683V252.687Z" fill="#9F5656"/>
<path d="M269.112 245.39C268.84 245.39 268.585 245.22 268.489 244.951C267.444 242.008 265.714 239.299 263.484 237.113C262.967 236.606 262.405 236.129 261.788 236.065C261.359 236.025 260.968 236.179 260.617 236.534C260.079 237.081 259.751 238.004 259.785 238.84C259.793 238.86 259.801 238.88 259.807 238.902L260.936 242.537C261.112 243.006 261.272 243.484 261.385 243.985C261.463 244.33 261.254 244.677 260.913 244.767C260.575 244.859 260.216 244.663 260.111 244.326L259.688 242.964C259.592 242.71 259.49 242.455 259.386 242.196C259.005 241.248 258.614 240.267 258.491 239.193C258.341 237.897 258.808 236.49 259.678 235.608C260.306 234.974 261.104 234.675 261.922 234.753C262.945 234.856 263.753 235.529 264.41 236.171C266.782 238.497 268.623 241.38 269.734 244.51C269.856 244.853 269.676 245.23 269.333 245.354C269.259 245.38 269.186 245.392 269.112 245.392V245.39Z" fill="#9F5656"/>
<path d="M271.966 234.114C271.711 234.114 271.47 233.967 271.362 233.719C271.216 233.386 271.368 232.997 271.701 232.849C275.047 231.383 278.574 230.366 282.187 229.821C282.55 229.775 282.883 230.017 282.937 230.376C282.991 230.737 282.743 231.072 282.382 231.126C278.885 231.652 275.47 232.638 272.23 234.056C272.144 234.094 272.054 234.112 271.966 234.112V234.114Z" fill="#9F5656"/>
<path d="M274.309 239.267C274.039 239.267 273.788 239.101 273.69 238.836C273.564 238.493 273.74 238.116 274.081 237.988L283.018 234.694C283.36 234.569 283.739 234.744 283.866 235.085C283.992 235.427 283.816 235.806 283.475 235.933L274.538 239.227C274.462 239.255 274.386 239.267 274.31 239.267H274.309Z" fill="#9F5656"/>
<path d="M362.573 208.808C362.368 208.808 362.162 208.71 362.035 208.529C356.804 201.117 355.858 190.997 359.623 182.744C359.774 182.413 360.171 182.267 360.496 182.417C360.83 182.568 360.975 182.959 360.824 183.29C357.251 191.125 358.148 200.732 363.112 207.767C363.321 208.064 363.251 208.477 362.954 208.686C362.839 208.768 362.705 208.806 362.573 208.806V208.808Z" fill="#9F5656"/>
<path d="M372.38 197.608C372.095 197.608 371.81 197.574 371.531 197.506C370.138 197.167 368.965 196.066 368.043 194.237C367.353 192.866 366.358 190.203 367.459 187.759C368.001 186.552 369.163 185.585 370.487 185.23C371.592 184.932 372.666 185.104 373.508 185.712C373.803 185.926 373.871 186.339 373.655 186.634C373.442 186.929 373.029 186.995 372.733 186.782C372.221 186.411 371.544 186.313 370.826 186.504C369.889 186.754 369.039 187.458 368.662 188.3C367.786 190.245 368.636 192.481 369.22 193.642C369.96 195.111 370.842 195.98 371.84 196.224C372.702 196.433 373.45 196.098 373.922 195.781C374.86 195.148 375.57 194.009 375.732 192.882C376.043 190.73 375.05 188.459 374.252 186.634C374.112 186.313 374.246 185.938 374.559 185.78C374.87 185.623 375.253 185.736 375.427 186.041C377.489 189.64 380.729 192.517 384.55 194.141C384.887 194.283 385.042 194.672 384.899 195.007C384.755 195.342 384.366 195.5 384.035 195.356C381.336 194.209 378.908 192.477 376.935 190.323C377.11 191.216 377.172 192.14 377.039 193.072C376.821 194.574 375.911 196.032 374.661 196.876C373.944 197.361 373.156 197.61 372.378 197.61L372.38 197.608Z" fill="#9F5656"/>
<path d="M85.1352 244.587C85.1352 244.587 39.0818 171.683 5 155.173L79.7933 117C79.7933 117 136.524 160.974 160.218 209.328L85.1352 244.587Z" fill="#FBE4C6"/>
<path d="M21.559 158.499C21.317 158.499 21.0853 158.37 20.9623 158.144C20.7838 157.814 20.9069 157.404 21.235 157.226C34.3878 150.095 48.0288 143.49 61.7763 137.597C62.1208 137.447 62.5186 137.607 62.6663 137.951C62.8139 138.296 62.654 138.694 62.3115 138.841C48.6009 144.721 34.9969 151.307 21.8809 158.417C21.7784 158.472 21.6677 158.499 21.559 158.499Z" fill="black"/>
<path d="M67.8236 135.466C67.5714 135.466 67.3274 135.325 67.2105 135.081C67.0485 134.742 67.1921 134.338 67.5304 134.176L81.969 127.264C82.3033 127.102 82.7114 127.243 82.8734 127.583C83.0354 127.922 82.8918 128.326 82.5535 128.488L68.1148 135.4C68.0205 135.446 67.92 135.466 67.8236 135.466Z" fill="black"/>
<path d="M29.7801 165.268C29.5381 165.268 29.3064 165.139 29.1833 164.913C29.0049 164.583 29.128 164.173 29.4561 163.995C42.6089 156.864 56.2498 150.259 69.9974 144.366C70.3398 144.216 70.7397 144.376 70.8873 144.721C71.035 145.065 70.875 145.463 70.5326 145.611C56.822 151.49 43.218 158.076 30.102 165.186C29.9995 165.241 29.8887 165.268 29.7801 165.268Z" fill="black"/>
<path d="M76.0447 142.235C75.7925 142.235 75.5485 142.094 75.4316 141.85C75.2696 141.511 75.4131 141.107 75.7515 140.945L90.1901 134.032C90.5243 133.868 90.9324 134.012 91.0944 134.352C91.2564 134.691 91.1129 135.095 90.7745 135.257L76.3359 142.169C76.2416 142.215 76.1411 142.235 76.0447 142.235Z" fill="black"/>
<path d="M38.0011 172.039C37.7488 172.039 37.5048 171.898 37.39 171.654C37.228 171.315 37.3695 170.911 37.7078 170.749C46.4292 166.564 55.8253 161.686 62.2295 158.015C62.5514 157.83 62.9677 157.941 63.1543 158.265C63.3409 158.591 63.2281 159.003 62.9041 159.19C56.4713 162.877 47.0424 167.774 38.2943 171.972C38.2 172.017 38.0995 172.039 38.0011 172.039Z" fill="black"/>
<path d="M68.3445 155.849C68.0922 155.849 67.8482 155.708 67.7313 155.464C67.5693 155.125 67.7129 154.721 68.0512 154.559C70.4505 153.411 74.3857 151.418 78.1917 149.49C82.0038 147.559 85.9472 145.561 88.3608 144.405C88.6971 144.243 89.1032 144.384 89.2652 144.725C89.4272 145.063 89.2836 145.467 88.9453 145.629C86.546 146.777 82.6108 148.77 78.8048 150.698C74.9927 152.63 71.0493 154.627 68.6357 155.784C68.5413 155.829 68.4408 155.849 68.3445 155.849Z" fill="black"/>
<path d="M46.2199 178.809C45.978 178.809 45.7462 178.679 45.6232 178.454C45.4448 178.124 45.5678 177.714 45.8959 177.535C54.035 173.124 60.3756 170.015 65.9677 167.272C69.3964 165.59 72.6343 164.003 75.7903 162.354C76.1225 162.18 76.5306 162.309 76.7049 162.641C76.8771 162.974 76.75 163.384 76.4178 163.556C73.2475 165.213 70.0013 166.804 66.5644 168.49C60.9826 171.225 54.6563 174.328 46.5419 178.727C46.4394 178.782 46.3286 178.809 46.2199 178.809Z" fill="black"/>
<path d="M81.8849 160.203C81.6327 160.203 81.3887 160.062 81.2718 159.818C81.1098 159.479 81.2533 159.075 81.5917 158.913C84.0032 157.759 87.5775 156.131 91.0329 154.556C94.4821 152.983 98.0502 151.359 100.449 150.208C100.786 150.044 101.192 150.188 101.354 150.528C101.516 150.867 101.372 151.271 101.034 151.433C98.6223 152.587 95.048 154.215 91.5927 155.79C88.1435 157.363 84.5754 158.987 82.1761 160.138C82.0818 160.183 81.9813 160.203 81.8849 160.203Z" fill="black"/>
<path d="M54.4413 185.578C54.1993 185.578 53.9676 185.448 53.8445 185.223C53.6661 184.893 53.7892 184.483 54.1173 184.304C63.5523 179.19 64.0916 178.821 65.0698 178.152C65.4676 177.882 65.9351 177.562 67.0486 176.881C67.3685 176.686 67.7848 176.786 67.9796 177.106C68.1744 177.426 68.074 177.845 67.7541 178.039C66.6734 178.698 66.2202 179.009 65.8347 179.272C64.8196 179.965 64.2618 180.348 54.7653 185.496C54.6627 185.551 54.552 185.578 54.4433 185.578H54.4413Z" fill="black"/>
<path d="M73.1799 174.707C72.9276 174.707 72.6836 174.566 72.5667 174.322C72.4047 173.983 72.5483 173.579 72.8866 173.417C75.2736 172.275 80.8882 169.621 86.5316 166.956C92.2632 164.247 98.0235 161.526 100.449 160.363C100.786 160.201 101.192 160.344 101.354 160.683C101.516 161.021 101.372 161.425 101.034 161.587C98.6079 162.75 92.8456 165.473 87.1099 168.182C81.4706 170.848 75.858 173.499 73.471 174.641C73.3767 174.687 73.2762 174.707 73.1799 174.707Z" fill="black"/>
<path d="M71.246 208.558C70.9835 208.558 70.7334 208.406 70.6226 208.149C70.4729 207.805 70.6308 207.407 70.9753 207.257C82.2457 202.365 93.3848 196.889 104.081 190.979C104.409 190.797 104.821 190.918 105.002 191.246C105.184 191.574 105.063 191.986 104.735 192.167C94 198.097 82.8219 203.593 71.5126 208.502C71.4244 208.541 71.3321 208.558 71.244 208.558H71.246Z" fill="black"/>
<path d="M110.448 189.8C110.202 189.8 109.964 189.667 109.845 189.433C109.673 189.101 109.804 188.691 110.137 188.521L123.905 181.425C124.237 181.251 124.647 181.384 124.817 181.717C124.989 182.049 124.858 182.459 124.526 182.629L110.758 189.724C110.66 189.776 110.553 189.8 110.448 189.8Z" fill="black"/>
<path d="M66.8948 201.302C66.6385 201.302 66.3945 201.159 66.2796 200.911C66.1217 200.572 66.2673 200.168 66.6077 200.008C79.3566 194.051 91.9845 187.432 104.141 180.332C104.465 180.144 104.881 180.254 105.068 180.576C105.256 180.9 105.148 181.315 104.824 181.503C92.6325 188.623 79.9677 195.263 67.1799 201.237C67.0876 201.28 66.9891 201.3 66.8928 201.3L66.8948 201.302Z" fill="black"/>
<path d="M110.327 179.141C110.083 179.141 109.849 179.01 109.726 178.78C109.55 178.45 109.677 178.04 110.009 177.863L123.357 170.793C123.685 170.614 124.097 170.744 124.274 171.076C124.45 171.406 124.323 171.816 123.991 171.992L110.643 179.063C110.542 179.116 110.434 179.141 110.327 179.141Z" fill="black"/>
<path d="M62.4425 191.888C62.1985 191.888 61.9627 191.756 61.8417 191.527C61.6674 191.195 61.7945 190.784 62.1247 190.61C70.7149 186.078 80.2647 181.417 87.0462 178.45C87.3887 178.298 87.7886 178.456 87.9382 178.8C88.0879 179.143 87.9321 179.543 87.5876 179.693C80.8328 182.647 71.3177 187.29 62.7563 191.81C62.6558 191.863 62.5471 191.888 62.4405 191.888H62.4425Z" fill="black"/>
<path d="M93.5161 177.15C93.2721 177.15 93.0363 177.018 92.9153 176.789C92.7389 176.457 92.8661 176.046 93.1983 175.872C95.5647 174.621 99.5163 172.642 103.337 170.729C107.151 168.82 111.096 166.845 113.448 165.6C113.781 165.424 114.191 165.551 114.365 165.883C114.541 166.216 114.414 166.626 114.082 166.8C111.716 168.051 107.764 170.03 103.944 171.943C100.129 173.852 96.184 175.827 93.8319 177.072C93.7314 177.125 93.6227 177.15 93.5161 177.15Z" fill="black"/>
<path d="M85.1083 220.905C84.852 220.905 84.6079 220.759 84.4931 220.513C84.3352 220.172 84.4828 219.771 84.8212 219.611C93.1919 215.708 99.4526 212.472 104.977 209.618C108.375 207.862 111.584 206.203 114.8 204.643C115.136 204.481 115.542 204.62 115.706 204.957C115.87 205.293 115.729 205.699 115.392 205.863C112.191 207.415 108.99 209.07 105.6 210.822C100.066 213.682 93.7907 216.926 85.3954 220.839C85.3031 220.882 85.2047 220.903 85.1083 220.903V220.905Z" fill="black"/>
<path d="M121.292 203.33C121.048 203.33 120.812 203.199 120.691 202.969C120.515 202.637 120.642 202.227 120.974 202.053C123.326 200.808 126.757 198.911 130.073 197.074C133.395 195.234 136.83 193.333 139.194 192.085C139.526 191.908 139.937 192.035 140.111 192.368C140.287 192.7 140.16 193.11 139.828 193.284C137.476 194.529 134.045 196.426 130.729 198.263C127.407 200.103 123.972 202.004 121.608 203.252C121.507 203.306 121.399 203.33 121.292 203.33Z" fill="black"/>
<path d="M76.0814 215.327C75.8313 215.327 75.5893 215.187 75.4724 214.947C75.3084 214.611 75.4478 214.205 75.7841 214.039C79.8854 212.033 82.8629 210.374 85.4919 208.91C88.4469 207.264 90.7805 205.963 93.3889 204.934C93.7355 204.797 94.1313 204.967 94.2686 205.315C94.406 205.664 94.2358 206.058 93.8872 206.195C91.3608 207.192 89.062 208.473 86.1522 210.096C83.6401 211.494 80.5149 213.235 76.3808 215.257C76.2845 215.304 76.184 215.327 76.0835 215.327H76.0814Z" fill="black"/>
<path d="M100.706 203.357C100.459 203.357 100.224 203.224 100.103 202.99C99.9304 202.658 100.06 202.248 100.392 202.075C103.09 200.677 109.456 197.338 115.802 194.01C122.092 190.711 128.365 187.421 131.041 186.035C131.373 185.861 131.783 185.992 131.955 186.324C132.128 186.657 131.998 187.067 131.666 187.239C128.992 188.623 122.721 191.912 116.434 195.21C110.083 198.54 103.718 201.881 101.017 203.277C100.917 203.328 100.81 203.353 100.706 203.353V203.357Z" fill="black"/>
<path d="M65.7631 241.636L65.9956 253.189L66.8023 256.395L85.4098 237.147L72.9285 235.965C69.4048 235.63 66.2442 238.132 65.7631 241.638V241.636Z" fill="#FFBE97"/>
<path d="M71.2954 234.702C71.299 235.106 71.3312 235.508 71.3956 235.907C71.5441 236.834 73.1521 239.181 72.8587 239.96L67.0903 255.422L66.3426 252.545L64.4359 256.067C63.5934 257.624 62.9674 259.289 62.5757 261.015L60.9945 267.987L63.5952 284.913L81.3424 304.014L78.3875 313.414C88.5686 317.184 106.969 326.51 112.937 320.656L118.243 293.678L117.769 285.815L117.377 284.994L104.219 258.042L93.6019 243.452L82.2135 225.302C80.6001 224.302 78.5521 224.224 76.9029 225.165C74.4971 226.538 72.6852 228.978 71.8142 231.586C71.4797 232.588 71.2883 233.645 71.2972 234.702H71.2954Z" fill="#FFBE97"/>
<path d="M118.241 293.678C118.241 293.678 123.714 274.84 123.025 268.422C121.695 255.996 102.923 222.684 102.914 222.662C101.492 219.464 97.1738 217.155 94.3477 220.097C92.3497 222.178 91.4626 225.73 91.8024 228.545L95.1114 255.903L118.241 293.678Z" fill="#FFBE97"/>
<path d="M78.3086 254.445C78.5286 254.61 78.8291 254.658 79.1028 254.545C79.5178 254.375 79.7163 253.9 79.5464 253.485L72.7942 237.032C72.6189 236.619 72.1485 236.417 71.7335 236.589C71.3185 236.759 71.12 237.235 71.2899 237.65L78.0421 254.102C78.1012 254.243 78.1942 254.359 78.3086 254.445Z" fill="#FB8876"/>
<path d="M69.0343 265.422C69.2257 265.565 69.4761 265.623 69.723 265.556C70.1576 265.442 70.4188 265 70.3061 264.566L67.4406 253.538C67.3262 253.106 66.8826 252.843 66.4497 252.955C66.0151 253.07 65.7539 253.512 65.8666 253.946L68.732 264.973C68.7803 265.159 68.8894 265.315 69.0343 265.422Z" fill="#FB8876"/>
<path d="M63.7684 274.179C63.9616 274.322 64.2138 274.38 64.4624 274.312C64.8971 274.195 65.1547 273.75 65.0384 273.317L63.484 267.492C63.3696 267.059 62.926 266.798 62.4895 266.916C62.0549 267.032 61.7973 267.477 61.9136 267.91L63.4679 273.736C63.5162 273.92 63.6253 274.072 63.7684 274.179Z" fill="#FB8876"/>
<path d="M106.323 258.21C106.675 258.471 107.171 258.409 107.444 258.064C107.723 257.711 107.664 257.201 107.314 256.921C106.761 256.481 106.189 256.042 105.6 255.59C102.327 253.075 98.6173 250.222 94.7556 244.79C94.4873 244.42 93.9864 244.339 93.6215 244.597C93.2549 244.856 93.169 245.364 93.4284 245.731C97.4296 251.363 101.243 254.295 104.609 256.881C105.191 257.327 105.754 257.761 106.301 258.196C106.309 258.201 106.316 258.207 106.321 258.21H106.323Z" fill="#FB8876"/>
<path d="M172.915 303.525L166.611 335.796L204.577 343.213L209.294 321.618C197.197 317.98 185.883 310.932 175.355 303.613L172.917 303.523L172.915 303.525Z" fill="#FFBE97"/>
<path d="M175.353 303.615C185.883 310.932 197.195 317.982 209.292 321.62L212.921 304.995L175.351 303.615H175.353Z" fill="#FB8876"/>
<path d="M304.028 275.13L308.42 242.645C309.128 237.416 312.968 233.155 318.097 231.91L340.39 226.5L304.028 275.13Z" fill="#FFBE97"/>
<path d="M295.302 247.053L363.347 215.395C366.35 213.998 369.92 215.302 371.316 218.303L374.48 225.105C375.877 228.107 374.573 231.677 371.572 233.073L303.526 264.731C300.524 266.128 296.954 264.824 295.558 261.823L292.393 255.022C290.996 252.019 292.301 248.449 295.302 247.053Z" fill="#9F5656"/>
<path d="M353.002 220.208L305.649 242.239L313.873 259.917L361.227 237.886L353.002 220.208Z" fill="#EF9C2E"/>
<path d="M359.93 305.994C356.153 318.818 342.676 326.201 329.868 322.37C321.473 319.858 313.032 315.334 308.457 307.222C297.226 287.306 308.582 253.229 308.582 253.229L365.818 286.01L359.93 305.994Z" fill="#FFBE97"/>
<path d="M308.58 253.227L347.294 220.695C350.093 218.437 354.133 218.607 356.733 221.093C359.35 223.595 359.686 227.659 357.515 230.557L327.948 268.073L308.578 253.227H308.58Z" fill="#FFBE97"/>
<path d="M315.993 269.652L348.17 241.53C350.879 239.163 354.923 239.173 357.617 241.554C360.332 243.951 360.827 247.999 358.772 250.981L334.402 286.322L315.993 269.652Z" fill="#FFBE97"/>
<path d="M322.809 282.536L354.986 254.414C357.695 252.047 361.739 252.057 364.433 254.438C367.149 256.836 367.643 260.883 365.588 263.865L341.218 299.206L322.809 282.536Z" fill="#FFBE97"/>
<path d="M327.415 297.305L359.592 269.183C362.301 266.816 366.345 266.827 369.039 269.207C371.755 271.605 372.249 275.653 370.194 278.634L345.824 313.975L327.415 297.305Z" fill="#FFBE97"/>
<path d="M329.171 262.879C329.007 262.879 328.843 262.819 328.711 262.701C328.434 262.446 328.418 262.018 328.67 261.743L347.668 241.07C347.922 240.793 348.35 240.777 348.625 241.029C348.902 241.284 348.918 241.712 348.666 241.987L329.669 262.66C329.536 262.805 329.353 262.879 329.169 262.879H329.171Z" fill="#FB8876"/>
<path d="M342.514 269.406C342.35 269.406 342.186 269.347 342.055 269.228C341.778 268.974 341.762 268.545 342.014 268.27L358.027 250.844C358.282 250.567 358.712 250.551 358.985 250.803C359.262 251.057 359.278 251.486 359.026 251.76L343.013 269.187C342.879 269.332 342.697 269.406 342.512 269.406H342.514Z" fill="#FB8876"/>
<path d="M352.573 279.104C352.409 279.104 352.245 279.044 352.113 278.925C351.837 278.671 351.82 278.242 352.072 277.968L362.808 266.285C363.062 266.008 363.492 265.992 363.765 266.244C364.042 266.498 364.058 266.927 363.806 267.202L353.071 278.884C352.938 279.03 352.755 279.104 352.571 279.104H352.573Z" fill="#FB8876"/>
<path d="M94.9393 313.054C113.196 303.582 127.091 305.799 147.065 310.71L242.227 334.116C261.885 338.677 269.981 345.612 274.962 354.096L282.042 366.342L307.698 307.897L360.404 331.106C356.565 351.211 352.554 398.254 341.546 420.561C308.787 486.937 241.936 440.387 241.936 440.387L236.473 460.063H81.0667L92.5216 393.483C92.5216 393.483 18.2779 399.155 19.5062 361.084C20.956 316.116 46.585 285.651 46.585 285.651L99.2908 287.585L94.9393 313.052V313.054Z" fill="#E95D9A"/>
<path d="M195.396 273.822C210.817 272.37 222.573 263.29 221.655 253.541C220.737 243.792 207.492 237.066 192.072 238.519C176.651 239.971 164.895 249.051 165.813 258.8C166.731 268.549 179.976 275.275 195.396 273.822Z" fill="black"/>
<path d="M156.506 299.678C164.67 315.697 189.374 320.771 208.599 310.975C227.823 301.177 234.289 280.219 226.123 264.2C217.96 248.18 195.755 243.135 176.531 252.931C157.306 262.729 148.34 283.658 156.504 299.678H156.506Z" fill="#FFBE97"/>
<path d="M204.778 284.544C208.057 283.734 210.361 281.647 209.926 279.884C209.49 278.12 206.479 277.347 203.2 278.157C199.921 278.968 197.617 281.054 198.053 282.817C198.488 284.581 201.5 285.354 204.778 284.544Z" fill="#FB8876"/>
<path d="M221.92 265.436L232.712 271.492C234.107 272.275 234.324 274.192 233.141 275.267L227.483 280.402L221.92 265.436Z" fill="#FFBE97"/>
<path d="M221.989 288.711C218.61 288.711 215.255 288.241 212.001 287.312C211.64 287.21 211.432 286.835 211.535 286.474C211.638 286.113 212.017 285.908 212.374 286.008C215.757 286.974 219.25 287.425 222.779 287.345C223.187 287.327 223.464 287.634 223.472 288.008C223.48 288.383 223.183 288.692 222.809 288.701C222.537 288.707 222.264 288.711 221.991 288.711H221.989Z" fill="black"/>
<path d="M216.795 272.747C216.083 273.198 215.142 272.987 214.691 272.275L213.372 270.196C212.921 269.484 213.133 268.543 213.844 268.092C214.556 267.641 215.497 267.852 215.948 268.563L217.267 270.643C217.718 271.354 217.507 272.296 216.795 272.747Z" fill="black"/>
<path d="M206.361 267.807C206.216 267.807 206.07 267.759 205.945 267.665C205.65 267.435 205.595 267.009 205.826 266.714C207.688 264.312 210.291 262.424 213.151 261.398C213.502 261.271 213.891 261.454 214.019 261.808C214.146 262.161 213.961 262.549 213.608 262.676C210.988 263.617 208.603 265.346 206.897 267.546C206.763 267.718 206.562 267.809 206.359 267.809L206.361 267.807Z" fill="black"/>
<path d="M179.559 245.68C179.559 245.68 200.019 237.086 209.862 243.101C217.892 248.008 216.922 257.748 216.147 259.219L209.7 262.28V257.445L204.702 267.116L195.999 272.113L195.356 264.538C195.356 264.538 185.685 280.978 186.653 290.489L181.333 280.496L179.559 245.68Z" fill="black"/>
<path d="M188.102 246.486C188.102 246.486 176.996 240.578 162.475 249.226C148.131 257.769 140.072 276.143 145.389 293.229C150.707 310.315 136.203 334.008 136.203 334.008L157.156 337.553L161.024 328.044L162.473 339.005L176.658 339.167L184.073 278.402L188.102 246.488V246.486Z" fill="black"/>
<path d="M186.791 295.203C189.925 291.501 189.464 285.961 185.763 282.827C182.062 279.694 176.521 280.154 173.388 283.856C170.254 287.557 170.715 293.097 174.416 296.231C178.117 299.364 183.658 298.904 186.791 295.203Z" fill="#FFBE97"/>
<path d="M178.495 292.113L183.103 289.956C183.845 289.609 184.165 288.725 183.816 287.983C183.47 287.241 182.586 286.921 181.844 287.269L177.236 289.427C176.494 289.773 176.174 290.657 176.522 291.399C176.869 292.142 177.753 292.461 178.495 292.113Z" fill="#FB8876"/>
<path d="M93.0056 392.712C92.9728 392.712 92.938 392.71 92.9052 392.703C92.534 392.65 92.2797 392.303 92.3351 391.932L97.1705 359.534C97.2259 359.165 97.5765 358.905 97.9416 358.964C98.3127 359.017 98.567 359.364 98.5116 359.735L93.6762 392.133C93.6249 392.47 93.3358 392.712 93.0056 392.712Z" fill="#4F2B2B"/>
<path d="M304.516 408.1C304.251 408.1 303.999 407.944 303.89 407.681C297.91 393.374 290.169 379.827 280.88 367.417C280.654 367.115 280.718 366.693 281.017 366.467C281.319 366.242 281.743 366.305 281.967 366.605C291.322 379.103 299.118 392.748 305.143 407.16C305.287 407.505 305.125 407.903 304.778 408.046C304.692 408.081 304.604 408.1 304.516 408.1Z" fill="#4F2B2B"/>
<path d="M51.7936 337.016C51.5824 337.016 51.3732 336.917 51.242 336.733C51.0246 336.427 51.0943 336.005 51.3999 335.785C61.9422 328.257 79.3748 318.199 92.2939 313.542C92.6466 313.419 93.0342 313.599 93.1613 313.95C93.2885 314.303 93.1059 314.692 92.7532 314.82C80.0864 319.384 62.3995 329.599 52.1873 336.891C52.0684 336.975 51.931 337.016 51.7936 337.016Z" fill="#4F2B2B"/>
</g>
<defs>
<clipPath id="clip0_760_12567">
<rect width="460" height="460" fill="white"/>
</clipPath>
</defs>
</svg>
