<svg width="460" height="460" viewBox="0 0 460 460" fill="none" xmlns="http://www.w3.org/2000/svg">
<g clip-path="url(#clip0_761_5130)">
<rect width="460" height="460" fill="white"/>
<path d="M-190.815 156.29C-189.62 157.085 -188.098 156.998 -187.008 156.186L-135.792 213.281C-135.911 213.409 -136.023 213.548 -136.124 213.697C-137.135 215.223 -136.72 217.277 -135.197 218.29C-133.674 219.303 -131.617 218.886 -130.604 217.362C-130.443 217.119 -130.32 216.861 -130.23 216.596L-88.7943 226.529C-88.9691 227.756 -88.4512 229.029 -87.3502 229.759C-85.8269 230.772 -83.7704 230.355 -82.7573 228.832C-82.3112 228.157 -82.1432 227.379 -82.2247 226.633L-36.385 217.192C-36.1677 217.902 -35.7143 218.544 -35.0483 218.989C-34.3246 219.468 -33.4845 219.622 -32.6915 219.497L-5.14481 326.615C-5.79372 326.846 -6.37772 327.281 -6.78955 327.898C-7.80259 329.421 -7.38563 331.477 -5.86235 332.491C-4.33907 333.504 -2.28254 333.087 -1.2695 331.563C-0.975908 331.119 -0.806364 330.63 -0.745548 330.136L132.907 334.165C132.131 335.649 132.587 337.51 134.012 338.457C135.535 339.47 137.592 339.053 138.605 337.53C138.698 337.391 138.773 337.248 138.841 337.1L185.111 353.717C184.768 355.047 185.276 356.502 186.483 357.304C187.09 357.707 187.783 357.88 188.46 357.85L196.87 419.462L196.077 419.192L196.954 420.056L197.005 420.428L197.203 420.3L272.292 494.275C272.224 494.36 272.158 494.447 272.096 494.539C271.083 496.063 271.5 498.119 273.023 499.132C274.547 500.145 276.603 499.728 277.616 498.205C278.629 496.682 278.212 494.625 276.689 493.612C276.123 493.236 275.48 493.059 274.847 493.061L270.338 445.9C270.394 445.831 270.449 445.759 270.5 445.682C270.753 445.303 270.914 444.888 270.995 444.465L351.03 452.08C351.029 453.155 351.546 454.208 352.51 454.848C354.033 455.861 356.089 455.444 357.102 453.921C358.115 452.398 357.698 450.341 356.175 449.328C355.574 448.928 354.884 448.754 354.214 448.782L346.903 393.513C347.701 393.331 348.437 392.857 348.928 392.118C349.585 391.127 349.637 389.915 349.179 388.91L383.611 369.143C383.841 369.471 384.132 369.764 384.486 369.998C386.009 371.011 388.065 370.594 389.078 369.071C390.092 367.547 389.675 365.491 388.151 364.478C387.225 363.864 386.105 363.779 385.14 364.144L365.751 324.628C366.152 324.384 366.507 324.054 366.785 323.635C367.694 322.267 367.45 320.474 366.289 319.386L395.434 285.03C396.955 286.014 398.988 285.595 399.993 284.081C401.006 282.558 400.589 280.502 399.066 279.489C398.8 279.312 398.518 279.181 398.227 279.09L404.439 245.891C405.612 245.999 406.807 245.476 407.504 244.424C407.686 244.151 407.819 243.86 407.908 243.562L458.18 254.02C458.046 255.216 458.565 256.443 459.637 257.152C461.16 258.165 463.217 257.748 464.23 256.225C465.243 254.701 464.826 252.645 463.303 251.632C463.191 251.557 463.077 251.495 462.96 251.435L490.639 180.94C491.993 181.333 493.501 180.825 494.32 179.591C495.333 178.068 494.916 176.011 493.393 174.998C491.87 173.985 489.813 174.402 488.8 175.925C488.511 176.359 488.343 176.839 488.279 177.324L377.517 172.99C377.413 172.048 376.909 171.157 376.058 170.592C374.534 169.579 372.478 169.996 371.465 171.519C370.452 173.042 370.869 175.099 372.392 176.112C372.544 176.211 372.702 176.294 372.863 176.369L362.213 213.874C360.926 213.603 359.542 214.117 358.77 215.281C358.519 215.658 358.356 216.071 358.276 216.489L266.285 210.41C266.258 209.369 265.74 208.357 264.809 207.736C263.286 206.723 261.229 207.14 260.216 208.663C259.203 210.187 259.62 212.243 261.143 213.256C261.493 213.489 261.873 213.642 262.257 213.727L256.902 256.031C255.793 255.993 254.689 256.513 254.03 257.508L254.18 257.242L159.745 203.979C160.396 202.526 159.925 200.776 158.557 199.867C157.851 199.398 157.032 199.24 156.254 199.351L145.712 155.261C146.382 155.034 146.986 154.596 147.406 153.959C148.417 152.433 148.002 150.379 146.479 149.366C144.956 148.353 142.899 148.77 141.886 150.293C141.492 150.887 141.315 151.563 141.339 152.226L73.3854 160.596C73.2081 159.783 72.7312 159.038 71.9842 158.542C70.4609 157.529 68.4044 157.946 67.3914 159.469C66.9698 160.104 66.798 160.829 66.8515 161.535L25.4831 168.334C25.2858 167.573 24.8194 166.88 24.1138 166.411C22.5905 165.398 20.534 165.815 19.521 167.338C19.4135 167.499 19.3266 167.668 19.2507 167.837L-54.1137 144.922C-53.8696 143.65 -54.3892 142.3 -55.5351 141.538C-56.3984 140.966 -57.4319 140.85 -58.3519 141.136L-79.4679 92.796C-78.9934 92.5458 -78.5725 92.1764 -78.2533 91.6991C-77.2403 90.1758 -77.6573 88.1193 -79.1805 87.1062C-80.7063 86.095 -82.7603 86.5102 -83.7734 88.0334C-83.7799 88.0455 -83.7864 88.0575 -83.7947 88.067L-121.384 72.7978L-141.253 64.7266C-140.991 63.4419 -141.505 62.069 -142.664 61.2979C-144.188 60.2849 -146.244 60.7018 -147.257 62.2251C-148.044 63.4106 -147.966 64.9132 -147.179 66.0008L-179.002 100.915C-179.039 100.888 -179.075 100.858 -179.116 100.831C-180.64 99.8176 -182.696 100.235 -183.709 101.758C-184.722 103.281 -184.305 105.338 -182.782 106.351C-182.42 106.59 -182.029 106.749 -181.628 106.831L-188.751 150.226C-189.901 150.147 -191.06 150.667 -191.742 151.697C-192.755 153.221 -192.338 155.277 -190.815 156.29ZM-144.506 67.3702C-143.43 67.371 -142.377 66.854 -141.737 65.8907C-141.614 65.7038 -141.514 65.5106 -141.431 65.3144L-118.902 74.4652L-84.0792 88.6098C-84.2022 88.9087 -84.2766 89.2184 -84.3076 89.5314L-145.883 98.1065L-144.504 67.3727L-144.506 67.3702ZM71.6029 164.278L87.8591 191.035L51.4864 216.194C51.2867 215.957 51.0526 215.74 50.7812 215.56C50.6537 215.474 50.5188 215.404 50.3833 215.338L69.2908 164.501C70.0686 164.711 70.8914 164.627 71.6029 164.278ZM142.112 154.253C142.312 154.49 142.546 154.707 142.818 154.886C142.977 154.991 143.138 155.077 143.305 155.15L116.806 233.608C116.058 233.43 115.273 233.52 114.591 233.852L88.6809 191.207L142.111 154.25L142.112 154.253ZM340.524 393.772L331.309 355.753L344.61 387.364C344.142 387.613 343.728 387.982 343.409 388.455C342.701 389.522 342.695 390.848 343.275 391.894L340.524 393.772ZM351.584 450.258C351.332 450.64 351.169 451.052 351.088 451.475L271.054 443.856C271.055 443.292 270.912 442.735 270.636 442.241L340.135 394.78L353.268 448.963C352.602 449.19 352.002 449.629 351.582 450.26L351.584 450.258ZM-1.2888 327.862C-1.50207 327.552 -1.7697 327.276 -2.08895 327.044L25.6668 279.891C27.1284 280.581 28.9148 280.114 29.8359 278.726L59.0105 294.403L-1.2888 327.862ZM-179.098 106.344C-179.041 106.303 -178.98 106.261 -178.926 106.216L-150.586 144.52C-150.792 144.705 -150.978 144.914 -151.139 145.154C-151.56 145.784 -151.729 146.508 -151.682 147.21L-161.206 148.746L-179.098 106.344ZM-95.8704 198.821L-85.617 208.858C-85.6839 208.938 -85.7472 209.024 -85.8071 209.114C-86.1811 209.678 -86.3592 210.315 -86.3601 210.943L-96.9813 211.909L-145.235 150.492L-95.8704 198.821ZM-85.1908 208.421L-121.044 173.321L-145.809 149.076C-145.742 148.995 -145.679 148.91 -145.619 148.819C-145.284 148.316 -145.109 147.756 -145.075 147.191L-82.3968 145.3L-83.3055 207.643C-83.9915 207.697 -84.6532 207.963 -85.1901 208.417L-85.1908 208.421ZM-151.584 147.814C-151.387 148.58 -150.922 149.277 -150.212 149.747C-149.526 150.203 -148.732 150.368 -147.973 150.273L-134.37 212.353L-160.962 149.325L-151.581 147.812L-151.584 147.814ZM-131.53 212.772C-132.215 212.315 -133.01 212.151 -133.769 212.246L-147.377 150.143C-147.099 150.054 -146.832 149.93 -146.584 149.771L-97.7112 211.976L-130.109 214.929C-130.269 214.077 -130.753 213.289 -131.532 212.774L-131.53 212.772ZM-130.049 215.537L-97.2586 212.548L-87.7924 224.595C-87.9692 224.764 -88.1346 224.954 -88.2748 225.164C-88.4364 225.408 -88.5587 225.666 -88.6493 225.931L-130.085 215.998C-130.062 215.844 -130.048 215.688 -130.049 215.532L-130.049 215.537ZM-85.3167 223.694C-86.0168 223.654 -86.7178 223.831 -87.3106 224.217L-96.5313 212.483L-86.3046 211.55C-86.1451 212.401 -85.6605 213.189 -84.8817 213.704C-84.5594 213.919 -84.2098 214.067 -83.8523 214.156L-85.3167 223.694ZM-79.871 210.009L-40.8301 194.452L-34.5502 213.2C-35.1097 213.446 -35.6087 213.848 -35.9755 214.396C-36.2207 214.766 -36.3795 215.168 -36.4626 215.577L-79.7366 210.99C-79.7331 210.659 -79.778 210.329 -79.871 210.009ZM19.824 171.386C20.0059 171.587 20.2146 171.773 20.4524 171.931C20.9185 172.24 21.4299 172.416 21.9478 172.467L24.0227 217.379L-29.9085 216.006C-29.9494 215.404 -30.152 214.821 -30.5028 214.32L19.8265 171.384L19.824 171.386ZM258.065 262.4L273.159 294.264C272.713 294.513 272.315 294.866 272.015 295.323C271.868 295.545 271.754 295.778 271.666 296.019L259.044 294.145L257.488 262.58C257.687 262.538 257.88 262.477 258.069 262.401L258.065 262.4ZM401.759 241.173C401.303 242.131 401.344 243.23 401.817 244.135L383.353 256.152L363.494 219.776C363.797 219.553 364.07 219.276 364.29 218.946L401.757 241.175L401.759 241.173ZM362.972 220.093L382.841 256.488L325.396 293.874C325.184 293.608 324.93 293.368 324.631 293.17C324.597 293.149 324.561 293.13 324.528 293.108L360.402 220.224C361.252 220.532 362.178 220.473 362.97 220.095L362.972 220.093ZM28.9129 274.134C28.7854 274.048 28.6549 273.979 28.5193 273.913L48.0843 221.514C48.9936 221.763 49.9675 221.607 50.7534 221.098L76.3689 253.596L29.9391 275.227C29.691 274.803 29.349 274.426 28.9129 274.134ZM51.2334 220.717C51.4103 220.548 51.5706 220.361 51.7134 220.149C51.8595 219.931 51.9704 219.701 52.0583 219.464L112.914 235.77C112.817 236.058 112.761 236.351 112.746 236.645L76.9414 253.326L51.2359 220.715L51.2334 220.717ZM112.774 237.309C112.838 237.73 112.979 238.14 113.197 238.51L96.7487 269.371L95.1566 272.36C94.155 271.937 93.0255 272.041 92.1236 272.598L77.3236 253.824L112.769 237.312L112.774 237.309ZM95.7046 272.652C95.7046 272.652 95.7028 272.65 95.7011 272.647L97.2867 269.67L113.604 239.054C113.782 239.25 113.987 239.431 114.219 239.586C114.603 239.84 115.02 240.004 115.442 240.085L121.349 268.174L96.9829 274.27C96.7485 273.631 96.3188 273.055 95.7071 272.65L95.7046 272.652ZM30.197 275.782L76.7586 254.089L91.6391 272.967C91.4429 273.146 91.2643 273.349 91.1118 273.579C90.7944 274.059 90.6173 274.59 90.571 275.127L30.3708 276.515C30.3422 276.266 30.2823 276.021 30.197 275.782ZM134.223 332.814L96.0528 277.9C96.2683 277.712 96.4652 277.492 96.6318 277.245C97.1165 276.513 97.271 275.662 97.1356 274.861L121.471 268.776L134.877 332.531C134.65 332.601 134.433 332.697 134.225 332.816L134.223 332.814ZM122.064 268.626L150.379 261.542C150.622 262.13 151.035 262.651 151.606 263.028C151.828 263.175 152.062 263.291 152.302 263.377L142.585 305.296L136.299 332.413C136.022 332.375 135.746 332.371 135.475 332.404L122.064 268.626ZM266.688 440.708L254.661 412.771L247.229 395.502C247.688 395.252 248.094 394.893 248.405 394.425C249.014 393.509 249.102 392.402 248.748 391.444L263.535 384.361L267.171 440.583C267.006 440.613 266.845 440.655 266.686 440.706L266.688 440.708ZM232.392 293.284L259.144 338.875C258.829 339.103 258.542 339.386 258.317 339.731C257.925 340.323 257.749 340.995 257.768 341.657L239.143 345.029L231.762 293.505C231.98 293.453 232.193 293.378 232.396 293.285L232.392 293.284ZM257.839 342.264C258.016 343.077 258.493 343.827 259.244 344.324C259.433 344.449 259.628 344.552 259.83 344.634L246.309 389.347C246.036 389.292 245.758 389.274 245.483 389.287L239.229 345.632L257.842 342.263L257.839 342.264ZM248.485 390.893C248.239 390.482 247.904 390.116 247.478 389.832C247.291 389.709 247.094 389.604 246.895 389.523L251.731 373.554L260.435 344.815C260.618 344.851 260.801 344.869 260.985 344.875L263.495 383.706L248.484 390.897L248.485 390.893ZM261.594 344.833C262.477 344.692 263.302 344.2 263.837 343.397C264.052 343.07 264.2 342.721 264.289 342.363L326.814 351.925C326.788 352.384 326.857 352.84 327.016 353.27L264.091 383.415L261.596 344.831L261.594 344.833ZM327.357 350.291C327.142 350.617 326.994 350.967 326.905 351.324L264.38 341.762C264.42 341.095 264.255 340.427 263.908 339.852L294.534 317.209L327.561 350.017C327.489 350.105 327.422 350.197 327.359 350.293L327.357 350.291ZM263.545 339.359C263.36 339.153 263.149 338.965 262.91 338.804C262.837 338.754 262.761 338.714 262.687 338.672L273.953 300.358C274.981 300.62 276.083 300.375 276.901 299.694L294.095 316.773L263.545 339.359ZM272.944 299.914C273.084 300.007 273.231 300.083 273.377 300.153L262.122 338.425C261.825 338.327 261.523 338.274 261.218 338.26L259.073 294.767L271.506 296.612C271.3 297.858 271.819 299.171 272.94 299.913L272.944 299.914ZM260.609 338.29C260.343 338.327 260.081 338.395 259.83 338.496L232.928 292.968C233.24 292.742 233.521 292.46 233.748 292.118C233.966 291.789 234.114 291.436 234.203 291.071L258.457 294.672L260.607 338.288L260.609 338.29ZM156.196 262.103C156.223 262.061 156.246 262.019 156.271 261.975L198.608 278.203L227.795 289.39C227.605 290.068 227.641 290.782 227.879 291.43L174.609 316.857L154.666 263.346C155.27 263.106 155.81 262.687 156.196 262.103ZM229.417 293.205C229.964 293.502 230.562 293.624 231.149 293.594L238.534 345.141L191.514 353.654C191.334 353.007 190.958 352.412 190.405 351.963L229.417 293.205ZM191.626 354.256L238.623 345.747L244.874 389.378C244.18 389.543 243.539 389.928 243.066 390.517L191.244 356.11C191.56 355.526 191.682 354.88 191.626 354.256ZM243.811 395.356C244.688 395.937 245.739 396.045 246.668 395.746L252.085 408.336L266.126 440.956C266.009 441.023 265.893 441.097 265.782 441.179L229.1 399.93L242.589 391.313C241.984 392.753 242.463 394.46 243.811 395.356ZM269.287 440.912C268.809 440.661 268.295 440.539 267.782 440.532L264.131 384.075L327.277 353.823C327.467 354.142 327.71 354.431 328.007 354.679L269.287 440.912ZM327.991 349.585L295.027 316.841L320.33 298.135C320.515 298.341 320.726 298.53 320.965 298.69C321.567 299.091 322.252 299.264 322.92 299.237L329.386 348.896C328.881 349.011 328.401 349.243 327.991 349.585ZM319.966 297.642L294.59 316.404L277.333 299.26C277.406 299.172 277.472 299.081 277.536 298.984C277.867 298.487 278.042 297.932 278.079 297.372L319.511 296.315C319.565 296.781 319.72 297.232 319.967 297.638L319.966 297.642ZM256.877 262.65L258.426 294.051L234.291 290.468C234.341 289.552 234.012 288.64 233.349 287.965L255.135 262.204C255.681 262.52 256.283 262.666 256.874 262.651L256.877 262.65ZM254.635 261.848L232.88 287.573C232.859 287.558 232.84 287.541 232.818 287.527C231.295 286.514 229.238 286.93 228.225 288.454C228.147 288.572 228.077 288.696 228.016 288.821L162.731 263.795L156.538 261.423C156.617 261.211 156.673 260.992 156.707 260.774L253.521 259.836C253.639 260.601 254.016 261.322 254.634 261.852L254.635 261.848ZM150.196 260.957L121.937 268.024L116.072 240.137C117.084 240.126 118.07 239.652 118.711 238.786L150.374 259.003C150.114 259.633 150.062 260.312 150.197 260.953L150.196 260.957ZM47.1163 221.076C47.2439 221.162 47.3744 221.231 47.51 221.297L27.945 273.696C27.7102 273.632 27.4709 273.595 27.2331 273.586L24.6657 218.004L45.649 218.538C45.7175 219.531 46.2263 220.482 47.1206 221.077L47.1163 221.076ZM-30.4522 218.056C-30.1536 217.608 -29.985 217.112 -29.9252 216.611L24.0501 217.984L26.6203 273.612C26.0215 273.695 25.4467 273.94 24.9687 274.335L-30.6704 218.347C-30.5927 218.255 -30.5186 218.158 -30.4522 218.056ZM30.1272 278.183C30.2712 277.839 30.3564 277.481 30.3804 277.121L90.5696 275.732C90.6029 276.079 90.6947 276.418 90.8353 276.741L59.6463 294.047L30.1247 278.184L30.1272 278.183ZM91.1343 277.275C91.3679 277.619 91.6701 277.923 92.0372 278.17C93.1322 278.896 94.498 278.885 95.557 278.259L133.721 333.162C133.561 333.296 133.411 333.446 133.276 333.615L60.2898 294.396L91.1353 277.281L91.1343 277.275ZM137.685 332.932C137.434 332.765 137.168 332.641 136.896 332.551L152.893 263.534C153.29 263.6 153.693 263.594 154.08 263.517L174.057 317.12L138.696 333.998C138.451 333.583 138.114 333.218 137.685 332.932ZM174.824 317.43L228.141 291.981C228.338 292.31 228.59 292.611 228.906 292.865L189.894 351.622C189.126 351.208 188.257 351.13 187.459 351.345L174.821 317.432L174.824 317.43ZM190.904 356.616L242.321 390.754L228.686 399.462L190.743 356.797C190.799 356.738 190.851 356.68 190.904 356.616ZM265.326 441.584C265.202 441.715 265.087 441.855 264.983 442.011C264.879 442.166 264.795 442.329 264.72 442.493L197.951 419.822L228.576 400.259L265.324 441.581L265.326 441.584ZM270.296 441.729C270.18 441.59 270.05 441.457 269.909 441.335L269.889 441.114L328.513 355.018C329.167 355.382 329.898 355.497 330.596 355.396L339.987 394.136L270.301 441.729L270.296 441.729ZM383.312 368.609L348.88 388.376C348.65 388.048 348.359 387.755 348.005 387.522C347.78 387.37 347.54 387.257 347.295 387.168L354.59 359.019L383.056 366.671C382.942 367.33 383.034 368.005 383.31 368.607L383.312 368.609ZM346.702 387.015C346.188 386.931 345.663 386.97 345.174 387.126L331.677 355.047C332.145 354.798 332.559 354.429 332.877 353.956C333.023 353.738 333.134 353.507 333.221 353.275L354.001 358.86L346.702 387.015ZM333.38 352.686C333.533 351.795 333.315 350.876 332.772 350.147L361.675 324.133C361.83 324.29 362.006 324.435 362.196 324.563C362.393 324.694 362.601 324.799 362.812 324.882L354.158 358.273L333.382 352.688L333.38 352.686ZM361.287 323.658L336.28 346.167L360.971 320.526C360.538 321.565 360.67 322.746 361.287 323.658ZM332.185 349.539C332.11 349.479 332.032 349.422 331.952 349.366C331.35 348.966 330.665 348.792 329.997 348.819L323.531 299.16C324.333 298.979 325.072 298.503 325.562 297.764C325.995 297.113 326.165 296.364 326.099 295.641L394.082 283.254C394.228 283.713 394.477 284.143 394.814 284.508L332.184 349.543L332.185 349.539ZM325.988 295.039C325.924 294.815 325.842 294.596 325.732 294.386L383.135 257.025L395.402 279.493C395.046 279.731 394.731 280.037 394.479 280.419C394.022 281.105 393.86 281.898 393.953 282.654L325.99 295.037L325.988 295.039ZM395.94 279.205L383.65 256.695L402.156 244.651C402.368 244.917 402.622 245.157 402.921 245.355C403.214 245.55 403.525 245.69 403.847 245.782L397.636 278.966C397.057 278.897 396.474 278.981 395.942 279.208L395.94 279.205ZM406.585 239.833C405.099 238.846 403.112 239.218 402.076 240.649L364.762 218.511L457.64 253.282L408.047 242.965C408.181 241.77 407.661 240.543 406.589 239.833L406.585 239.833ZM458.72 252.563C458.637 252.689 458.565 252.821 458.502 252.955L364.763 217.861C364.875 217.376 364.875 216.875 364.768 216.397L406.567 203.767L458.86 252.379C458.814 252.441 458.766 252.501 458.722 252.566L458.72 252.563ZM359.702 219.874C359.751 219.907 359.803 219.934 359.853 219.962L323.983 292.836C323.047 292.476 322.009 292.572 321.16 293.055L304.878 269.803L359.321 219.577C359.441 219.683 359.564 219.784 359.702 219.874ZM320.658 293.405C320.426 293.602 320.217 293.83 320.04 294.1C319.708 294.597 319.533 295.153 319.496 295.713L278.064 296.77C277.996 296.187 277.77 295.624 277.408 295.15L304.424 270.225L320.658 293.41L320.658 293.405ZM276.989 294.696C276.87 294.589 276.745 294.486 276.608 294.396C276 293.992 275.308 293.82 274.633 293.848L263.725 213.722C264.036 213.65 264.336 213.534 264.619 213.373L304.069 269.713L276.988 294.693L276.989 294.696ZM263.119 213.807L274.026 293.93C273.923 293.953 273.819 293.981 273.718 294.018L258.605 262.115C258.972 261.877 259.295 261.561 259.552 261.176C260.563 259.65 260.148 257.596 258.625 256.583C258.275 256.35 257.896 256.197 257.511 256.112L262.868 213.811C262.953 213.815 263.037 213.812 263.121 213.809L263.119 213.807ZM253.486 259.225L156.744 260.166C156.711 259.132 156.194 258.128 155.266 257.512C154.849 257.236 154.391 257.067 153.925 256.998L156.841 205.937C157.851 205.902 158.828 205.405 159.444 204.514L253.873 257.774C253.625 258.236 253.498 258.731 253.483 259.227L253.486 259.225ZM154.896 205.388C155.313 205.663 155.77 205.832 156.234 205.903L153.383 255.84L149.581 209.038L154.4 204.988C154.547 205.135 154.714 205.272 154.895 205.392L154.896 205.388ZM152.862 257.011C151.998 257.164 151.197 257.65 150.673 258.439C150.668 258.447 150.664 258.457 150.655 258.466L119.024 238.268C119.552 237.177 119.431 235.906 118.763 234.941L149.005 209.516L152.86 257.008L152.862 257.011ZM118.371 234.472C118.223 234.325 118.056 234.188 117.876 234.069C117.718 233.966 117.556 233.878 117.388 233.805L143.887 155.347C144.128 155.403 144.37 155.435 144.615 155.438L148.945 208.77L118.371 234.472ZM114.072 234.171C113.771 234.392 113.503 234.666 113.283 234.996C113.238 235.065 113.199 235.137 113.158 235.207L52.2121 218.878C52.34 218.127 52.2036 217.357 51.8347 216.697L88.1798 191.557L114.072 234.171ZM47.1015 215.568C46.7505 215.802 46.4369 216.112 46.1884 216.487C45.8898 216.935 45.7212 217.43 45.6614 217.931L24.6365 217.397L22.5597 172.472C22.8806 172.445 23.1946 172.371 23.494 172.255L47.1008 215.572L47.1015 215.568ZM19.4563 170.893L-30.9038 213.854C-31.0479 213.712 -31.207 213.581 -31.3801 213.467C-32.1745 212.94 -33.1101 212.804 -33.9692 213.006L-40.2608 194.225L19.2541 170.508C19.314 170.641 19.3814 170.77 19.4581 170.895L19.4563 170.893ZM-41.0258 193.869L-80.0978 209.44C-80.3492 208.948 -80.7224 208.511 -81.216 208.184C-81.334 208.107 -81.4543 208.041 -81.5771 207.978L-62.9464 159.657L-58.2551 147.486C-57.6941 147.642 -57.1078 147.642 -56.5586 147.504L-41.0276 193.866L-41.0258 193.869ZM-59.2008 147.058C-59.081 147.138 -58.9547 147.207 -58.8251 147.269L-82.1464 207.757C-82.3283 207.705 -82.5089 207.671 -82.6944 207.651L-81.7855 145.283L-60.6619 144.646C-60.5613 145.595 -60.0562 146.492 -59.2008 147.058ZM-82.3879 144.689L-145.095 146.582C-145.162 146.043 -145.361 145.525 -145.681 145.073L-83.6553 91.8599C-83.4366 92.1511 -83.1684 92.4114 -82.8479 92.6238C-82.4706 92.8748 -82.0579 93.0376 -81.6394 93.118L-82.3922 144.688L-82.3879 144.689ZM-84.3113 90.15C-84.2739 90.5607 -84.1628 90.9645 -83.9779 91.3353L-146.076 144.61C-146.218 144.471 -146.376 144.342 -146.547 144.231C-146.978 143.946 -147.447 143.778 -147.927 143.711L-145.909 98.7299L-84.3095 90.1525L-84.3113 90.15ZM-148.538 143.68C-149.087 143.706 -149.621 143.867 -150.095 144.154L-178.477 105.797C-178.373 105.679 -178.274 105.558 -178.185 105.424C-177.722 104.726 -177.559 103.918 -177.665 103.149L-146.528 98.8119L-148.538 143.68ZM-179.641 106.634L-161.832 148.844L-185.777 152.703C-185.974 151.937 -186.439 151.24 -187.149 150.77C-187.464 150.561 -187.8 150.416 -188.147 150.326L-181.019 106.901C-180.546 106.91 -180.078 106.821 -179.641 106.634ZM-186.554 155.779C-186.435 155.65 -186.323 155.512 -186.222 155.363C-185.801 154.732 -185.632 154.009 -185.679 153.307L-161.587 149.423L-134.929 212.61C-135.07 212.686 -135.208 212.776 -135.338 212.874L-186.554 155.779ZM-82.347 226.032C-82.5644 225.321 -83.0177 224.679 -83.6837 224.235C-84.006 224.02 -84.3556 223.873 -84.7131 223.783L-83.2487 214.245C-82.1102 214.314 -80.9664 213.793 -80.2906 212.775C-80.0453 212.405 -79.8865 212.003 -79.8034 211.594L-36.5295 216.18C-36.5315 216.316 -36.5249 216.453 -36.5116 216.59L-82.3513 226.031L-82.347 226.032ZM-32.0994 219.34C-31.7434 219.214 -31.4074 219.027 -31.1068 218.779L24.5323 274.767C24.4546 274.859 24.3805 274.956 24.3141 275.058C23.3248 276.546 23.7022 278.541 25.1403 279.576L-2.61543 326.73C-3.23385 326.438 -3.90608 326.353 -4.55025 326.457L-32.0969 219.338L-32.0994 219.34ZM-0.722306 329.519C-0.746413 329.132 -0.839207 328.749 -0.995855 328.392L59.6487 294.744L131.798 333.515L-0.724814 329.52L-0.722306 329.519ZM139.054 336.518C139.224 335.861 139.183 335.173 138.955 334.548L174.265 317.694L186.884 351.557C186.365 351.808 185.902 352.192 185.561 352.707C185.468 352.847 185.393 352.99 185.325 353.138L139.055 336.52L139.054 336.518ZM189.07 357.762C189.503 357.661 189.916 357.472 190.282 357.205L228.159 399.797L197.482 419.392L189.068 357.764L189.07 357.762ZM274.238 493.114C273.688 493.219 273.162 493.465 272.723 493.835L198.413 420.625L264.523 443.071C264.211 444.384 264.721 445.812 265.91 446.603C267.131 447.414 268.687 447.306 269.782 446.454L274.242 493.115L274.238 493.114ZM353.285 446.427L340.676 394.405L343.617 392.398C343.817 392.642 344.057 392.862 344.335 393.045C344.936 393.445 345.626 393.62 346.298 393.593L353.287 446.43L353.285 446.427ZM384.59 364.41C384.189 364.653 383.832 364.985 383.557 365.402C383.411 365.62 383.302 365.849 383.212 366.084L354.741 358.428L363.393 325.051C364.002 325.169 364.628 325.108 365.202 324.893L384.59 364.41ZM365.804 319.009C364.819 318.38 363.624 318.336 362.631 318.796L390.796 289.551L365.807 319.007L365.804 319.009ZM462.394 251.208C461.303 250.893 460.118 251.163 459.266 251.924L407.235 203.557L488.488 179.004C488.73 179.6 489.148 180.133 489.723 180.517C489.835 180.592 489.951 180.656 490.066 180.714L462.391 251.21L462.394 251.208ZM488.255 177.935C488.264 178.097 488.281 178.26 488.314 178.42L406.72 203.073L376.876 175.328C376.913 175.28 376.95 175.231 376.986 175.181C377.311 174.691 377.486 174.147 377.528 173.598L488.255 177.935ZM373.438 176.567C374.506 176.827 375.646 176.541 376.464 175.785L406.039 203.278L364.571 215.807C364.326 215.232 363.918 214.719 363.359 214.348C363.179 214.229 362.99 214.129 362.795 214.049L373.438 176.567ZM358.215 217.095C358.212 217.822 358.448 218.538 358.899 219.122L304.516 269.291L265.114 213.019C265.346 212.822 265.556 212.594 265.733 212.324C266.003 211.915 266.169 211.47 266.242 211.015L358.213 217.093L358.215 217.095ZM153.962 200.792C153.191 201.955 153.252 203.429 154.003 204.512L149.516 208.284L145.276 156.062L155.659 199.492C154.988 199.719 154.384 200.157 153.962 200.796L153.962 200.792ZM141.415 152.83C141.486 153.15 141.602 153.46 141.765 153.746L88.3626 190.683L72.125 163.958C72.4254 163.736 72.6957 163.461 72.9139 163.133C73.3084 162.539 73.4848 161.863 73.4611 161.2L141.415 152.83ZM66.9493 162.138C67.1465 162.9 67.6129 163.593 68.3186 164.062C68.4461 164.148 68.581 164.218 68.7165 164.283L49.809 215.121C49.0816 214.924 48.3176 214.985 47.6362 215.276L24.0374 171.975C24.4247 171.734 24.7719 171.408 25.0392 171.001C25.4608 170.366 25.6326 169.641 25.5792 168.935L66.9475 162.136L66.9493 162.138ZM19.0561 168.418C18.9394 168.917 18.9427 169.434 19.0583 169.924L-40.4566 193.642L-55.9786 147.303C-55.4386 147.056 -54.9564 146.662 -54.6054 146.129C-54.4734 145.928 -54.367 145.723 -54.2828 145.507L19.0611 168.414L19.0561 168.418ZM-58.9177 141.367C-59.3922 141.618 -59.8131 141.987 -60.1322 142.464C-60.4554 142.952 -60.6314 143.49 -60.6725 144.034L-81.7783 144.669L-81.0256 93.1735C-80.6896 93.1735 -80.3538 93.125 -80.0354 93.0253L-58.9177 141.367ZM-146.773 66.4632C-146.637 66.5925 -146.491 66.7105 -146.33 66.8179C-145.951 67.0714 -145.538 67.2342 -145.115 67.3154L-146.499 98.191L-177.804 102.551C-177.952 102.099 -178.2 101.675 -178.539 101.319L-146.771 66.4657L-146.773 66.4632Z" fill="#E95D9A"/>
<path d="M196.801 395.344L192.289 417.149V417.598H188.564L193.071 394.933C193.101 394.782 193.167 394.639 193.264 394.519L194.738 392.693C195.246 392.062 196.259 392.308 196.421 393.102L196.802 394.958C196.828 395.086 196.828 395.217 196.801 395.344Z" fill="#FADBE9"/>
<path d="M198.212 417.186H168L172.553 454.848H194.074L198.212 417.186Z" fill="#D6D6D6"/>
<path d="M168.874 396.699L173.38 416.77V417.184H177.105L172.605 396.319C172.57 396.16 172.496 396.013 172.389 395.89L170.901 394.189C170.384 393.599 169.415 393.846 169.245 394.612L168.874 396.282C168.843 396.419 168.844 396.562 168.874 396.699Z" fill="#8FC6D7"/>
<path d="M179.815 389L180.362 416.406L180.234 417.496L183.966 417.496L183.581 389.037C183.579 388.903 183.549 388.77 183.493 388.649L182.388 386.254C182.022 385.461 180.873 385.531 180.606 386.363L179.861 388.689C179.829 388.789 179.813 388.895 179.815 389Z" fill="#BF8888"/>
<path d="M191.326 397.348L190.028 417.122L189.805 417.185L186.08 417.185L187.328 397.693C187.339 397.524 187.395 397.36 187.49 397.219L188.868 395.178C189.288 394.556 190.227 394.636 190.535 395.32L191.243 396.892C191.308 397.035 191.336 397.192 191.326 397.348Z" fill="#FBE4C6"/>
<path d="M172.139 422.565H194.074" stroke="#4F2B2B" stroke-width="2.24756" stroke-linecap="round"/>
<path d="M354.421 305.242H322.869V328.132H354.421V305.242Z" fill="#FFBE97"/>
<path d="M330.755 314.8C341.858 316.342 348.453 310.371 354.461 309.943V312.944C351.46 316.028 337.657 319.735 330.755 314.8Z" fill="#4F2B2B"/>
<path d="M431.968 369.187C429.667 352.011 417.446 337.81 400.806 332.974L354.565 321.397L339.85 327.825L322.683 321.397L293.066 327.825L275.348 332.974C258.707 337.81 246.486 352.011 244.185 369.187L233.041 452.364H443.112L431.968 369.187Z" fill="#9F5656"/>
<path d="M324.767 233.615C324.767 233.615 333.133 226.103 355.424 233.761C384.932 243.898 378.026 279.377 378.026 279.377L302.373 293.497C302.373 293.497 285.735 263.809 300.804 244.622C310.94 231.714 324.767 233.615 324.767 233.615Z" fill="#4F2B2B"/>
<path d="M378.388 279.679C377.731 278.415 376.825 277.357 375.75 276.594C374.461 275.679 372.934 275.188 371.316 275.281C370.798 275.312 370.302 275.421 369.821 275.564C369.748 275.585 369.672 275.599 369.6 275.622C367.63 260.279 357.488 245.546 339.604 242.99C320.522 240.264 303.257 255.55 300.806 274.11C300.769 274.392 300.746 274.674 300.713 274.955C300.669 274.955 300.623 274.947 300.578 274.947C296.013 274.947 292.31 279.286 292.31 284.64C292.31 289.994 296.011 294.333 300.578 294.333C301.55 294.333 302.48 294.126 303.346 293.764C303.348 293.769 303.35 293.774 303.352 293.778C304.148 295.718 305.101 297.579 306.201 299.344C306.235 299.399 306.269 299.454 306.303 299.508C306.659 300.071 307.026 300.623 307.411 301.164C307.417 301.173 307.425 301.184 307.432 301.194C308.229 302.314 309.091 303.384 310.013 304.4C310.072 304.466 310.134 304.529 310.193 304.594C310.584 305.017 310.984 305.432 311.396 305.836C311.485 305.923 311.571 306.009 311.661 306.095C312.101 306.518 312.551 306.93 313.014 307.329C313.052 307.363 313.09 307.398 313.127 307.432C313.647 307.875 314.18 308.304 314.727 308.716C314.77 308.75 314.817 308.779 314.859 308.812C315.336 309.166 315.822 309.508 316.32 309.837C316.463 309.932 316.608 310.024 316.752 310.116C317.173 310.386 317.599 310.647 318.033 310.898C318.188 310.989 318.341 311.079 318.496 311.167C319.012 311.453 319.535 311.728 320.068 311.988C320.132 312.021 320.195 312.054 320.259 312.086C320.861 312.375 321.474 312.643 322.099 312.898C322.255 312.96 322.413 313.016 322.57 313.077C323.04 313.259 323.513 313.433 323.995 313.594C324.205 313.664 324.416 313.732 324.628 313.798C325.089 313.942 325.557 314.077 326.031 314.201C326.23 314.254 326.428 314.311 326.63 314.36C327.298 314.524 327.972 314.675 328.66 314.799C345.54 317.862 362.8 307.859 368.161 292.575C368.267 292.639 368.382 292.687 368.491 292.745C369.586 293.335 370.795 293.672 372.084 293.599C376.398 293.35 379.724 289.047 379.512 283.989C379.446 282.408 379.042 280.941 378.385 279.677L378.388 279.679Z" fill="#FFBE97"/>
<path d="M347.545 282.919C347.515 284.293 348.202 285.422 349.077 285.441C349.952 285.46 350.685 284.362 350.712 282.988C350.743 281.614 350.056 280.485 349.181 280.466C348.305 280.447 347.572 281.545 347.545 282.919Z" fill="#4F2B2B"/>
<path d="M320.655 282.919C320.625 284.293 321.312 285.422 322.187 285.441C323.062 285.46 323.795 284.362 323.822 282.988C323.853 281.614 323.166 280.485 322.291 280.466C321.415 280.447 320.682 281.545 320.655 282.919Z" fill="#4F2B2B"/>
<path d="M322.162 293.656C316.12 293.656 311.207 288.742 311.207 282.7C311.207 276.658 316.12 271.745 322.162 271.745C328.204 271.745 333.117 276.658 333.117 282.7C333.117 288.742 328.204 293.656 322.162 293.656ZM322.162 272.681C316.638 272.681 312.147 277.176 312.147 282.696C312.147 288.216 316.642 292.711 322.162 292.711C327.682 292.711 332.177 288.216 332.177 282.696C332.177 277.176 327.682 272.681 322.162 272.681Z" fill="white"/>
<path d="M348.38 293.656C342.338 293.656 337.424 288.742 337.424 282.7C337.424 276.658 342.338 271.745 348.38 271.745C354.422 271.745 359.335 276.658 359.335 282.7C359.335 288.742 354.422 293.656 348.38 293.656ZM348.38 272.681C342.856 272.681 338.365 277.176 338.365 282.696C338.365 288.216 342.86 292.711 348.38 292.711C353.9 292.711 358.395 288.216 358.395 282.696C358.395 277.176 353.9 272.681 348.38 272.681Z" fill="white"/>
<path d="M338.537 279.8C335.996 279.197 333.854 279.197 331.993 279.788L331.708 278.89C333.739 278.245 336.042 278.241 338.756 278.879L338.541 279.796L338.537 279.8Z" fill="white"/>
<path d="M329.198 289.675L329.108 289.804L329.203 289.929L332.438 294.212C332.439 294.212 332.439 294.213 332.439 294.213C332.526 294.329 332.643 294.409 332.771 294.452V294.495H332.988C333.132 294.495 333.279 294.45 333.403 294.354C333.704 294.125 333.766 293.695 333.536 293.392C333.536 293.392 333.536 293.391 333.536 293.391L330.806 289.774L336.175 282.057L336.175 282.057L336.176 282.055C336.387 281.744 336.316 281.319 336.002 281.1L336.002 281.1L335.999 281.098C335.689 280.887 335.263 280.958 335.044 281.272L335.044 281.273L329.198 289.675Z" fill="#4F2B2B" stroke="#4F2B2B" stroke-width="0.432463"/>
<path d="M331.404 302.96L331.405 302.96C331.525 302.979 333.154 303.215 335.147 302.712C337.133 302.211 339.479 300.978 341.062 298.054C341.242 297.717 341.657 297.596 341.991 297.774C342.328 297.953 342.451 298.373 342.272 298.705M331.404 302.96L331.226 304.102M331.404 302.96C331.033 302.904 330.677 303.154 330.621 303.533C330.565 303.907 330.817 304.254 331.191 304.316L331.191 304.316M331.404 302.96L331.191 304.316M342.272 298.705L342.082 298.602L342.272 298.705C342.272 298.705 342.272 298.705 342.272 298.705ZM342.272 298.705C339.54 303.757 334.68 304.388 332.427 304.388C331.722 304.388 331.263 304.328 331.191 304.316M331.191 304.316L331.226 304.102M331.226 304.102C331.245 304.106 331.698 304.172 332.427 304.172C334.65 304.172 339.406 303.55 342.082 298.602C342.204 298.375 342.12 298.087 341.89 297.965C341.659 297.842 341.375 297.926 341.252 298.156C338.016 304.133 331.641 303.216 331.372 303.173C331.115 303.135 330.873 303.308 330.834 303.565C330.796 303.822 330.969 304.06 331.226 304.102Z" fill="#4F2B2B" stroke="#4F2B2B" stroke-width="0.432463"/>
<path d="M328.146 277.809L328.144 277.808C328.047 277.736 326.715 276.769 324.717 276.287C322.726 275.807 320.075 275.808 317.314 277.661C316.998 277.875 316.574 277.79 316.361 277.477C316.146 277.161 316.233 276.732 316.546 276.522M328.146 277.809L328.835 276.88M328.146 277.809C328.449 278.03 328.879 277.975 329.106 277.665C329.329 277.36 329.268 276.935 328.965 276.707L328.965 276.707M328.146 277.809L328.965 276.707M316.546 276.522L316.666 276.702L316.546 276.522C316.546 276.522 316.546 276.522 316.546 276.522ZM316.546 276.522C321.314 273.32 325.909 275.021 327.904 276.068C328.528 276.397 328.907 276.663 328.965 276.707M328.965 276.707L328.835 276.88M328.835 276.88C328.819 276.867 328.449 276.599 327.803 276.26C325.835 275.226 321.336 273.565 316.666 276.702C316.452 276.845 316.393 277.139 316.54 277.355C316.687 277.571 316.977 277.628 317.193 277.482C322.837 273.695 328.055 277.472 328.273 277.634C328.483 277.788 328.778 277.747 328.931 277.538C329.085 277.328 329.043 277.037 328.835 276.88Z" fill="#4F2B2B" stroke="#4F2B2B" stroke-width="0.432463"/>
<path d="M354.309 278.535L354.308 278.534C354.211 278.462 352.879 277.495 350.881 277.014C348.889 276.533 346.239 276.535 343.478 278.387C343.162 278.601 342.737 278.516 342.525 278.203C342.31 277.887 342.396 277.458 342.709 277.248M354.309 278.535L354.998 277.606M354.309 278.535C354.612 278.757 355.043 278.701 355.269 278.392C355.493 278.087 355.431 277.662 355.128 277.433L355.128 277.433M354.309 278.535L355.128 277.433M342.709 277.248L342.83 277.428L342.709 277.249C342.709 277.249 342.709 277.249 342.709 277.248ZM342.709 277.248C347.477 274.046 352.073 275.747 354.067 276.795C354.692 277.123 355.07 277.39 355.128 277.433M355.128 277.433L354.998 277.606M354.998 277.606C354.983 277.594 354.612 277.325 353.967 276.986C351.999 275.953 347.499 274.292 342.83 277.428C342.616 277.572 342.557 277.866 342.703 278.082C342.85 278.297 343.141 278.355 343.357 278.208C349.001 274.421 354.219 278.198 354.437 278.361C354.647 278.514 354.941 278.474 355.095 278.264C355.248 278.054 355.206 277.763 354.998 277.606Z" fill="#4F2B2B" stroke="#4F2B2B" stroke-width="0.432463"/>
<path d="M321.609 297.165C321.709 295.539 319.339 294.07 316.316 293.884C313.292 293.698 310.76 294.866 310.66 296.491C310.56 298.117 312.93 299.586 315.954 299.772C318.977 299.958 321.509 298.79 321.609 297.165Z" fill="#FF9D6C"/>
<path d="M361.029 298.206C361.129 296.581 358.759 295.112 355.735 294.926C352.712 294.74 350.18 295.907 350.08 297.533C349.98 299.159 352.349 300.627 355.373 300.813C358.397 300.999 360.929 299.832 361.029 298.206Z" fill="#FF9D6C"/>
<path d="M375.575 286.16L371.345 286.333C370.664 286.361 370.083 285.924 370.05 285.355C370.017 284.786 370.542 284.303 371.224 284.275L375.454 284.102C376.136 284.075 376.716 284.512 376.749 285.081C376.782 285.648 376.257 286.133 375.575 286.16Z" fill="#4F2B2B"/>
<path d="M299.823 286.16L296.298 286.333C295.73 286.361 295.247 285.924 295.219 285.355C295.192 284.786 295.628 284.303 296.197 284.275L299.722 284.102C300.291 284.075 300.773 284.512 300.801 285.081C300.828 285.648 300.391 286.133 299.823 286.16Z" fill="#4F2B2B"/>
<path d="M320.616 249.833C320.616 249.833 319.159 261.093 300.718 279.264L300.236 266.472L305.671 252.77L316.182 245.298L320.616 249.833Z" fill="#4F2B2B"/>
<path d="M313.484 247.673L327.071 241.899L345.657 241.22L368.113 259.176L372.925 279.262C363.034 277.436 351.004 270.74 351.004 270.74L356.351 276.522C342.124 275.276 330.415 274.926 320.529 262.218C318.753 259.937 314.049 253.147 314.843 250.051" fill="#4F2B2B"/>
<path d="M302.501 276.338C302.206 276.338 301.926 276.131 301.81 275.792C301.66 275.348 301.848 274.847 302.23 274.672C310.573 270.848 316.581 255.271 316.641 255.114C316.808 254.68 317.247 254.48 317.62 254.673C317.995 254.865 318.165 255.377 317.999 255.812C317.745 256.478 311.687 272.193 302.773 276.277C302.684 276.32 302.592 276.338 302.501 276.338Z" fill="#4F2B2B"/>
<path d="M279.553 446.258C279.177 446.258 278.853 445.974 278.811 445.591L272.412 387.297C272.367 386.886 272.664 386.517 273.074 386.471C273.484 386.428 273.854 386.723 273.9 387.134L280.299 445.428C280.343 445.839 280.047 446.207 279.636 446.254C279.609 446.256 279.581 446.258 279.553 446.258Z" fill="#4F2B2B"/>
<path d="M399.572 438.44C399.545 438.44 399.518 438.438 399.491 438.436C399.081 438.392 398.783 438.024 398.826 437.613L404.159 387.138C404.202 386.727 404.569 386.429 404.982 386.473C405.392 386.516 405.69 386.885 405.646 387.296L400.314 437.771C400.273 438.155 399.95 438.44 399.572 438.44Z" fill="#4F2B2B"/>
<path d="M400.003 403.93L387.993 408.436C387.608 408.579 387.175 408.385 387.029 407.998C386.884 407.611 387.08 407.179 387.467 407.034L399.477 402.528C400.017 402.325 400.562 402.155 401.11 401.996L390.215 400.122C384.98 399.243 379.834 401.304 377.085 405.427C376.463 406.361 375.962 407.37 375.597 408.427L371.8 419.397L374.398 416.81C374.693 416.519 375.164 416.519 375.456 416.813C375.747 417.106 375.747 417.579 375.454 417.871L363.549 429.726C362.658 431.115 362.535 432.831 363.222 434.335C363.791 435.582 364.823 436.501 366.127 436.921C367.432 437.345 368.803 437.203 369.996 436.524L379.355 429.564C379.387 429.54 379.426 429.532 379.46 429.514C379.781 429.062 380.143 428.632 380.586 428.258L388.124 421.912C388.44 421.647 388.916 421.69 389.179 422.003C389.444 422.319 389.403 422.791 389.088 423.057L381.549 429.403C379.339 431.263 379.052 434.577 380.913 436.789C381.814 437.86 383.088 438.506 384.476 438.635C385.87 438.756 387.228 438.324 388.298 437.424C388.405 437.336 388.529 437.292 388.655 437.271C388.688 437.242 388.71 437.206 388.744 437.179L394.802 432.88C395.139 432.642 395.607 432.72 395.845 433.058C396.083 433.396 395.68 433.013 395.343 433.251L392.286 435.629L389.088 438.346C386.926 440.17 387.212 443.497 389.074 445.709C391.15 448.178 394.017 447.997 397.593 445.197C397.799 444.951 398.03 444.72 398.286 444.511L402.721 440.867C403.04 440.603 403.514 440.651 403.773 440.971C404.035 441.289 403.991 441.761 403.669 442.023L399.234 445.667C399.103 445.774 398.994 445.896 398.882 446.016C398.836 446.103 398.772 446.182 398.69 446.247C398.681 446.255 398.672 446.261 398.662 446.269C397.712 447.494 397.599 449.214 398.473 450.566C399.016 451.409 399.859 451.983 400.84 452.187C401.834 452.395 402.824 452.197 403.663 451.642L409.984 447.432C409.984 447.432 409.984 447.432 409.986 447.431L419.08 441.449C428.702 435.121 431.489 422.072 425.296 412.364C419.95 403.981 409.314 400.432 400 403.926L400.003 403.93Z" fill="#FFBE97"/>
<path d="M374.867 410.544C373.667 413.185 372.167 419.046 371.566 421.647L371.866 422.247L402.174 403.942C402.975 403.742 403.855 403.102 400.974 402.142C397.373 400.942 376.368 407.243 374.867 410.544Z" fill="#FFBE97"/>
<path d="M226.864 438.044H319.726C328.946 438.044 336.432 445.531 336.432 454.751H226.864V438.044Z" fill="#FBE4C6"/>
<path d="M446 454.748H336.433C336.433 445.528 343.919 438.042 353.139 438.042H446V454.748Z" fill="#FBE4C6"/>
<path d="M235.411 427.088L238.998 439.254C239.797 441.962 242.617 443.615 245.416 443.015C248.215 442.417 250.09 439.757 249.668 436.968C249.649 436.842 249.665 436.725 249.698 436.613C249.627 436.349 249.54 436.091 249.499 435.814L247.835 424.517C247.828 424.488 247.809 424.464 247.805 424.432C247.582 422.939 246.767 421.642 245.506 420.783C244.244 419.924 242.727 419.627 241.229 419.947L239.504 420.315C238.006 420.635 236.748 421.528 235.965 422.824C235.181 424.121 234.983 425.636 235.411 427.085V427.088Z" fill="#FFBE97"/>
<path d="M247.202 424.34L249.049 436.876C249.461 439.667 252.022 441.687 254.879 441.475C257.735 441.263 259.957 438.886 259.936 436.065L259.847 423.397C259.847 423.344 259.847 423.29 259.844 423.237C259.792 421.788 259.17 420.457 258.082 419.47C256.953 418.447 255.49 417.948 253.961 418.061L252.201 418.192C250.672 418.306 249.303 419.018 248.344 420.197C247.386 421.375 246.981 422.846 247.201 424.34H247.202Z" fill="#FFBE97"/>
<path d="M230.012 441.176C230.012 441.176 230.012 441.176 230.012 441.178L230.056 441.285C231.051 443.717 233.814 444.986 236.346 444.176C238.876 443.365 240.359 440.739 239.707 438.195C239.698 438.16 239.707 438.125 239.702 438.088L236.594 427.543C236.534 427.342 236.495 427.137 236.454 426.932C236.063 425.421 235.108 424.153 233.825 423.454C232.707 422.846 231.478 422.73 230.264 423.119L228.69 423.622C227.334 424.057 226.257 424.995 225.656 426.268C225.052 427.538 225.015 428.954 225.545 430.257L230.011 441.175L230.012 441.176Z" fill="#FFBE97"/>
<path d="M230.798 441.766C230.798 441.766 230.798 441.763 230.798 441.762L227.002 432.482C226.947 432.416 226.894 432.348 226.862 432.265C226.466 431.254 225.757 430.521 224.813 430.145C223.805 429.746 222.645 429.804 221.543 430.311L220.293 430.887C219.253 431.366 218.484 432.221 218.128 433.297C217.774 434.374 217.885 435.511 218.44 436.501L223.314 445.171C224.351 447.022 226.691 447.771 228.635 446.876C230.618 445.965 231.567 443.72 230.801 441.764L230.798 441.766Z" fill="#FFBE97"/>
<path d="M217.29 433.471L219.58 438.686C223.638 433.796 248.222 429.064 260.157 427.479L259.78 422.331C259.638 420.394 258.831 418.527 257.309 417.322C243.632 406.494 224.179 414.185 217.275 427.595C216.332 429.426 216.461 431.585 217.29 433.471Z" fill="#FFBE97"/>
<path d="M231.514 444.129L226.74 433.26" stroke="#4F2B2B" stroke-width="1.61695" stroke-linecap="round"/>
<path d="M239.868 441.41L237.481 429.862" stroke="#4F2B2B" stroke-width="1.61695" stroke-linecap="round"/>
<path d="M250.012 439.37L248.222 427.822" stroke="#4F2B2B" stroke-width="1.61695" stroke-linecap="round"/>
<path d="M391.947 419.666L378.841 430.806C378.521 431.078 378.18 431.325 377.821 431.544L372.246 434.951" stroke="#4F2B2B" stroke-width="1.61695" stroke-linecap="round"/>
<path d="M389.229 437.33L400.777 429.178" stroke="#4F2B2B" stroke-width="1.61695" stroke-linecap="round"/>
<path d="M406.892 438.007L413.685 433.252" stroke="#4F2B2B" stroke-width="1.61695" stroke-linecap="round"/>
<path d="M451.404 454.844H7.70315C3.05729 454.844 3 456.031 3 457.495C3 458.959 3.05729 460.146 7.70315 460.146H451.404C456.05 460.146 456.107 458.959 456.107 457.495C456.107 456.031 456.05 454.844 451.404 454.844Z" fill="#307286"/>
<rect x="20.7446" y="193.944" width="221.256" height="120.319" rx="10.2327" fill="#8FC6D7"/>
<path fill-rule="evenodd" clip-rule="evenodd" d="M22.3118 201.454C16.6604 201.454 12.0791 206.035 12.0791 211.687V311.541C12.0791 317.192 16.6604 321.773 22.3118 321.773H149.039C150.116 332.563 145.24 337.944 137.902 346.043C137.192 346.826 136.459 347.635 135.706 348.477C162.306 344.318 175.029 338.494 190.891 321.773H223.103C228.754 321.773 233.335 317.192 233.335 311.541V211.687C233.335 206.035 228.754 201.454 223.102 201.454H22.3118Z" fill="#B1EDFC"/>
<mask id="mask0_761_5130" style="mask-type:alpha" maskUnits="userSpaceOnUse" x="12" y="201" width="222" height="121">
<rect x="12.0791" y="201.454" width="221.256" height="120.319" rx="10.2327" fill="#D9D9D9"/>
</mask>
<g mask="url(#mask0_761_5130)">
<path d="M138.593 231.496H197.517" stroke="#4F2B2B" stroke-width="2.42458" stroke-linecap="round"/>
<path d="M138.593 247.66H197.517" stroke="#4F2B2B" stroke-width="2.42458" stroke-linecap="round"/>
<path d="M138.593 263.823H197.517" stroke="#4F2B2B" stroke-width="2.42458" stroke-linecap="round"/>
<path d="M138.593 279.987H197.517" stroke="#4F2B2B" stroke-width="2.42458" stroke-linecap="round"/>
<path d="M84.7767 263.584L90.062 283.14L82.6624 274.155L84.7767 263.584Z" fill="#F2AE54"/>
<path d="M65.2214 258.827L46.9877 273.89L50.6874 332.027L94.8188 328.856L90.0623 283.139C90.0623 283.139 77.3818 265.725 65.2222 258.827H65.2214Z" fill="#F2AE54"/>
<path d="M67.4202 284.87L58.7788 300.424C63.2723 304.975 72.3285 314.354 72.605 315.46" stroke="#4F2B2B" stroke-width="1.21229" stroke-linecap="round"/>
<path d="M73.175 246.967L88.1895 253.866L82.4517 266.353L67.4372 259.453L73.175 246.967Z" fill="#FFBE97"/>
<path d="M84.8685 260.958L86.6016 257.203L76.2031 251.137C78.2828 254.834 82.3652 259.61 84.8685 260.958Z" fill="#4F2B2B"/>
<path d="M86.8359 219.993C99.0848 219.745 106.312 229.294 106.312 229.294C106.312 229.294 112.39 229.714 111.995 234.426C111.599 239.138 105.513 238.808 105.513 238.808L86.8359 219.992V219.993Z" fill="#4F2B2B"/>
<path d="M71.5852 234.395C68.7117 243.116 74.8888 254.213 84.4063 258.005C93.9238 261.797 103.178 256.849 106.051 248.128C108.925 239.407 103.539 229.262 94.0219 225.471C84.5044 221.679 74.4595 225.675 71.5852 234.396V234.395Z" fill="#FFBE97"/>
<path d="M90.6418 247.889C89.3144 247.026 88.6146 245.747 89.0789 245.034C89.5431 244.32 90.9956 244.441 92.323 245.304C93.6505 246.168 94.3502 247.446 93.886 248.16C93.4217 248.874 91.9693 248.753 90.6418 247.889Z" fill="#FF9D6C"/>
<path d="M104.423 248.056L105.806 253.691C105.984 254.419 105.397 255.108 104.65 255.047L101.081 254.754L104.424 248.056H104.423Z" fill="#FFBE97"/>
<path d="M100.236 247.278C99.8538 247.179 99.6245 246.788 99.7234 246.407L100.013 245.289C100.112 244.907 100.503 244.677 100.884 244.776C101.266 244.875 101.495 245.266 101.396 245.648L101.107 246.766C101.008 247.147 100.617 247.377 100.236 247.278Z" fill="#4F2B2B"/>
<path d="M102.811 243.235C103.013 243.235 103.208 243.125 103.307 242.933C103.447 242.659 103.339 242.324 103.066 242.184C101.759 241.512 100.23 241.219 98.7683 241.352C98.4627 241.38 98.2368 241.65 98.2657 241.957C98.2937 242.263 98.5538 242.489 98.8707 242.459C100.127 242.342 101.436 242.597 102.557 243.173C102.639 243.215 102.725 243.235 102.811 243.235Z" fill="#4F2B2B"/>
<path d="M95.5576 255.605C95.7357 255.701 95.8548 255.89 95.8506 256.106C95.8439 256.414 95.5904 256.657 95.2835 256.651C93.8139 256.623 92.3291 256.156 91.1052 255.345C90.8495 255.175 90.779 254.83 90.9498 254.574C91.1198 254.317 91.4559 254.242 91.7207 254.419C92.771 255.118 94.0445 255.514 95.3046 255.539C95.3963 255.541 95.4821 255.564 95.5576 255.605Z" fill="#4F2B2B"/>
<path d="M106.789 229.058C106.789 229.058 99.5606 219.508 87.3126 219.756C75.0637 220.005 68.0826 225.988 67.6238 233.615C67.1659 241.242 72.7774 247.193 72.7774 247.193C72.7774 247.193 87.1926 233.837 87.3126 234.577C87.4325 235.317 106.789 229.058 106.789 229.058V229.058Z" fill="#4F2B2B"/>
<circle cx="9.33266" cy="9.33266" r="9.33266" transform="matrix(-1 0 0 1 87.1221 223.344)" fill="#4F2B2B"/>
<path d="M71.6167 244.452C71.8058 244.452 71.9905 244.356 72.0947 244.182C72.2523 243.919 72.1665 243.578 71.9047 243.419C71.7279 243.311 67.7698 240.806 68.1996 233.65C68.6733 225.775 76.1876 220.539 87.3447 220.313C99.1069 220.06 106.295 229.303 106.366 229.395C106.463 229.523 106.611 229.602 106.77 229.615C106.8 229.616 109.72 229.843 111.161 231.526C111.772 232.239 112.025 233.096 111.938 234.144C111.592 238.257 106.534 238.041 106.306 238.034C106.015 237.997 106.149 238.247 106.133 238.553C106.117 238.859 106.464 241.648 106.77 241.664C109.065 241.795 112.698 238.388 113.046 234.237C113.159 232.894 112.808 231.737 112.003 230.797C110.512 229.059 107.914 228.625 107.097 228.529C105.979 227.171 98.9265 219.196 87.7947 219.196C87.638 219.196 87.4813 219.197 87.322 219.201C75.5415 219.44 67.5999 225.085 67.0895 233.582C66.6168 241.456 71.1387 244.258 71.3313 244.373C71.4206 244.428 71.5195 244.453 71.6167 244.453V244.452Z" fill="#4F2B2B"/>
<path d="M80.3466 242.554C80.278 240.282 82.0645 238.384 84.337 238.315C86.6095 238.247 88.5073 240.033 88.5759 242.306C88.6446 244.578 86.858 246.476 84.5855 246.544C82.3131 246.613 80.4153 244.827 80.3466 242.554Z" fill="#FFBE97"/>
<path d="M82.3647 242.298L84.1148 243.917C84.3967 244.178 84.8371 244.162 85.098 243.88C85.3589 243.598 85.3422 243.158 85.0603 242.897L83.3102 241.277C83.0283 241.016 82.588 241.033 82.3271 241.315C82.0662 241.597 82.0828 242.037 82.3647 242.298Z" fill="#4F2B2B"/>
<path d="M106.592 230.318C106.592 230.318 104.231 237.785 96.2269 236.383C88.2233 234.98 85.2344 232.539 85.2344 232.539L96.4598 226L106.591 230.318H106.592Z" fill="#4F2B2B"/>
<path d="M97.2308 237.315C98.6272 237.315 99.9352 237.106 101.154 236.689C105.024 235.362 106.482 232.402 106.542 232.277C106.675 232.001 106.559 231.67 106.283 231.536C106.007 231.402 105.675 231.519 105.541 231.794C105.528 231.821 104.199 234.481 100.767 235.645C97.3 236.821 92.9663 236.133 87.8824 233.597C87.6058 233.458 87.2722 233.573 87.1365 233.845C86.999 234.12 87.1111 234.454 87.386 234.591C91.0201 236.403 94.3146 237.314 97.2308 237.314V237.315Z" fill="#4F2B2B"/>
<path d="M69.4563 241.883C69.7557 241.883 70.0026 241.645 70.0122 241.343C70.1453 236.85 71.6187 232.334 74.1594 228.629C74.3327 228.375 74.2688 228.03 74.0158 227.856C73.7628 227.683 73.4161 227.749 73.2427 228C70.5821 231.88 69.0395 236.607 68.8994 241.312C68.8907 241.618 69.1315 241.875 69.4396 241.884H69.4563V241.883Z" fill="#4F2B2B"/>
<path d="M65.2217 258.828L70.7714 252.486L84.7773 263.585L82.6631 274.155L65.2217 258.828Z" fill="#F2AE54"/>
<path d="M65.2212 258.828C65.2212 258.828 56.7649 258.299 53.0651 260.413C49.3653 262.528 26.7026 290.876 29.6783 303.686C31.8802 313.163 52.6685 325.686 52.6685 325.686L70.77 316.436L55.2451 296.353L68.9201 274.419L65.2203 258.828H65.2212Z" fill="#F2AE54"/>
<path d="M66.7546 314.918L68.8058 315.317C70.7074 315.683 72.4513 316.625 73.7199 317.967C75.8911 320.265 76.9224 322.924 76.7859 325.865C76.6204 329.446 74.6724 333.215 71.4305 336.356L71.0961 332.108L71.7921 328.377C71.849 328.075 71.6494 327.785 71.3482 327.728C71.0514 327.671 70.7564 327.869 70.6995 328.172L69.9895 331.975C69.9799 332.024 69.9772 332.072 69.9816 332.121L70.7004 341.235C70.738 342.03 70.1917 342.746 69.3985 342.921C68.9652 343.017 68.5187 342.938 68.144 342.698C67.7693 342.459 67.5101 342.086 67.4156 341.65L65.6033 333.29L65.5981 328.713C65.5981 328.406 65.3485 328.157 65.0421 328.157H65.0412C64.7348 328.157 64.4862 328.407 64.4862 328.714L64.4914 333.351C64.4914 333.39 64.4958 333.429 64.5046 333.468L66.3195 341.84C66.3072 341.889 66.2932 341.939 66.2958 341.994C66.337 342.849 65.9736 343.368 65.2155 343.537C64.7821 343.635 64.3356 343.554 63.9609 343.313C63.5853 343.073 63.327 342.702 63.2325 342.266L61.007 334.089L61.3134 329.482C61.3344 329.176 61.1016 328.911 60.7952 328.89C60.4668 328.857 60.2243 329.102 60.2033 329.409L59.8908 334.109C59.8864 334.171 59.8925 334.232 59.9092 334.293L61.7415 341.021C61.7415 341.031 61.7363 341.041 61.7372 341.052C61.8221 342.787 61.2495 342.914 61.0333 342.962C60.5982 343.058 60.1525 342.979 59.7778 342.74C59.4031 342.5 59.1449 342.127 59.0503 341.692L57.2363 333.333L57.2617 329.137C57.2635 328.83 57.0166 328.58 56.7093 328.578C56.3573 328.572 56.1525 328.823 56.1498 329.13L56.1244 333.388C56.1244 333.428 56.1288 333.469 56.1376 333.509L57.836 341.338C57.182 341.475 56.69 341.328 56.3906 341.153C55.9765 340.911 55.6832 340.515 55.586 340.064L54.7788 337.995C54.1152 336.306 53.6451 334.54 53.3807 332.742L53.0419 330.438C52.7302 328.326 52.9622 326.161 53.7116 324.174C55.4608 319.535 59.1624 314.175 66.7537 314.919L66.7546 314.918Z" fill="#FFBE97"/>
<path d="M51.9411 330.601L52.2799 332.904C52.5565 334.786 53.0485 336.635 53.7445 338.402L54.5255 340.385C54.6621 341.053 55.148 341.714 55.8291 342.114C56.287 342.381 56.8079 342.516 57.3515 342.516C57.6037 342.516 57.8619 342.477 58.1211 342.418C58.3365 342.931 58.698 343.369 59.1769 343.676C59.6287 343.966 60.1435 344.115 60.6679 344.115C60.8684 344.115 61.0715 344.093 61.2737 344.048C61.7824 343.936 62.1623 343.657 62.4267 343.232C62.6456 343.635 62.9564 343.991 63.36 344.249C63.8126 344.539 64.3265 344.688 64.8509 344.688C65.0514 344.688 65.2545 344.667 65.455 344.622C66.2587 344.443 66.8444 343.985 67.1552 343.329C67.2752 343.44 67.403 343.545 67.5439 343.635C67.9957 343.924 68.5096 344.073 69.0331 344.073C69.2336 344.073 69.4367 344.051 69.639 344.006C70.9627 343.713 71.8758 342.517 71.8093 341.163L71.5431 337.781C75.39 334.333 77.7074 330.021 77.8965 325.915C78.0453 322.705 76.8801 319.692 74.5277 317.2C73.1015 315.691 71.1439 314.632 69.0156 314.222L66.9145 313.817C58.0948 312.944 54.2164 319.683 52.6712 323.778C51.8553 325.941 51.6022 328.299 51.9402 330.598L51.9411 330.601Z" fill="#FFBE97"/>
<path d="M114.545 270.953L119.442 261.459L128.161 255.754L136.87 272.321L120.752 281.337L114.545 270.953Z" fill="#FFBE97"/>
<path d="M128.161 255.755L143.873 252.519C144.937 252.299 145.991 252.935 146.295 253.976C146.59 254.987 146.086 256.057 145.12 256.475L128.714 263.563L128.157 255.755H128.161Z" fill="#FFBE97"/>
<path d="M138.407 258.366L139.135 260.539C139.47 261.539 139.102 262.642 138.23 263.236L138.14 263.298L138.814 265.187C139.138 266.094 138.875 267.107 138.153 267.743L138.089 267.798L138.473 269.362C138.71 270.33 138.318 271.345 137.491 271.902L136.87 272.321L125.817 265.856L125.526 261.613L138.407 258.368V258.366Z" fill="#FFBE97"/>
<path d="M132.956 260.871C132.89 260.634 133.033 260.398 133.261 260.334L133.262 260.334L133.262 260.334L138.56 258.872L138.562 258.871L138.562 258.871C138.791 258.811 139.034 258.942 139.097 259.179C139.162 259.415 139.02 259.651 138.791 259.715L138.791 259.715L133.497 261.176C133.452 261.19 133.409 261.193 133.378 261.193H133.176V261.141C133.072 261.088 132.99 260.993 132.956 260.871ZM132.956 260.871C132.956 260.871 132.956 260.871 132.956 260.871L133.151 260.817L132.956 260.872C132.956 260.871 132.956 260.871 132.956 260.871Z" fill="#4F2B2B" stroke="#4F2B2B" stroke-width="0.404097"/>
<path d="M133.955 264.702L133.955 264.702C134.012 264.889 134.184 265.013 134.373 265.013C134.419 265.013 134.464 265.004 134.499 264.993L134.499 264.993C134.672 264.941 135.517 264.685 136.376 264.407C136.806 264.267 137.24 264.122 137.596 263.993C137.943 263.868 138.24 263.75 138.375 263.665L138.376 263.665C138.579 263.536 138.638 263.267 138.512 263.064L138.512 263.064L138.511 263.062C138.383 262.859 138.113 262.8 137.91 262.926L137.91 262.926L137.909 262.926C137.856 262.96 137.691 263.03 137.427 263.127C137.171 263.221 136.843 263.333 136.482 263.453C135.76 263.692 134.909 263.957 134.246 264.157L134.246 264.157C134.016 264.227 133.885 264.472 133.955 264.702Z" fill="#4F2B2B" stroke="#4F2B2B" stroke-width="0.404097"/>
<path d="M134.646 268.985L134.646 268.985C134.708 269.167 134.88 269.281 135.059 269.281C135.107 269.281 135.156 269.273 135.204 269.256L138.232 268.211L138.232 268.211L138.234 268.21C138.461 268.129 138.58 267.883 138.503 267.655L138.503 267.655L138.502 267.652C138.421 267.425 138.175 267.306 137.947 267.383L137.947 267.383L137.946 267.384L134.916 268.43L134.916 268.43L134.914 268.43C134.688 268.511 134.568 268.757 134.646 268.985Z" fill="#4F2B2B" stroke="#4F2B2B" stroke-width="0.404097"/>
<path d="M115.117 268.762C115.117 268.762 101.165 275.704 94.0395 274.568C89.2791 273.808 85.8025 270.834 83.2748 267.146C74.9761 269.979 66.9263 273.647 60.3032 279.504C60.6709 280.616 61.0849 281.761 61.5627 282.955C72.6488 310.671 113.18 299.73 122.643 284.245L115.115 268.759L115.117 268.762Z" fill="#F2AE54"/>
</g>
<path d="M11 361.153H159.912L154.272 454.94H16.6406L11 361.153Z" fill="#357E94"/>
<path d="M85.7364 417.481C95.3054 417.481 103.063 415.191 103.063 412.367C103.063 409.543 95.3054 407.253 85.7364 407.253C76.1674 407.253 68.4102 409.543 68.4102 412.367C68.4102 415.191 76.1674 417.481 85.7364 417.481Z" fill="#FFF4E9"/>
</g>
<defs>
<clipPath id="clip0_761_5130">
<rect width="460" height="460" fill="white"/>
</clipPath>
</defs>
</svg>
