<svg width="460" height="460" viewBox="0 0 460 460" fill="none" xmlns="http://www.w3.org/2000/svg">
<g clip-path="url(#clip0_761_11924)">
<rect width="460" height="460" fill="white"/>
<path d="M-157.484 169.799C-156.316 170.576 -154.828 170.491 -153.762 169.697L-103.681 225.526C-103.798 225.652 -103.908 225.787 -104.006 225.933C-104.995 227.425 -104.589 229.433 -103.1 230.424C-101.61 231.414 -99.5993 231.006 -98.6088 229.517C-98.4508 229.279 -98.3313 229.027 -98.2426 228.768L-57.7262 238.48C-57.897 239.68 -57.3907 240.925 -56.314 241.639C-54.8245 242.629 -52.8136 242.222 -51.823 240.732C-51.3868 240.072 -51.2225 239.311 -51.3023 238.582L-6.47913 229.35C-6.26662 230.045 -5.82331 230.672 -5.17204 231.107C-4.46441 231.576 -3.6429 231.727 -2.86749 231.604L24.0683 336.347C23.4338 336.572 22.8627 336.998 22.46 337.601C21.4694 339.09 21.8771 341.101 23.3666 342.092C24.8561 343.082 26.8671 342.675 27.8576 341.185C28.1447 340.751 28.3105 340.273 28.37 339.79L159.058 343.729C158.3 345.18 158.746 347 160.139 347.926C161.629 348.917 163.64 348.509 164.63 347.02C164.721 346.883 164.795 346.744 164.861 346.599L210.104 362.848C209.77 364.148 210.266 365.571 211.447 366.355C212.04 366.749 212.717 366.918 213.379 366.889L221.603 427.135L220.827 426.871L221.686 427.716L221.735 428.079L221.929 427.954L295.353 500.289C295.286 500.372 295.222 500.457 295.161 500.547C294.17 502.037 294.578 504.048 296.068 505.038C297.557 506.029 299.568 505.621 300.559 504.132C301.549 502.642 301.141 500.631 299.652 499.641C299.098 499.272 298.47 499.099 297.851 499.102L293.442 452.986C293.497 452.918 293.55 452.848 293.6 452.773C293.848 452.403 294.005 451.997 294.084 451.583L372.344 459.029C372.344 460.081 372.849 461.111 373.791 461.736C375.281 462.727 377.291 462.319 378.282 460.83C379.273 459.34 378.865 457.329 377.375 456.339C376.787 455.947 376.113 455.777 375.457 455.805L368.309 401.761C369.089 401.583 369.809 401.12 370.289 400.397C370.932 399.428 370.982 398.243 370.535 397.26L404.203 377.932C404.427 378.252 404.712 378.539 405.058 378.767C406.548 379.758 408.558 379.35 409.549 377.861C410.54 376.371 410.132 374.36 408.642 373.37C407.737 372.77 406.641 372.686 405.698 373.044L386.739 334.403C387.131 334.165 387.478 333.842 387.75 333.433C388.639 332.095 388.4 330.342 387.265 329.278L415.763 295.684C417.251 296.646 419.239 296.237 420.221 294.756C421.212 293.267 420.804 291.256 419.315 290.265C419.055 290.093 418.779 289.965 418.495 289.876L424.569 257.412C425.716 257.518 426.884 257.007 427.566 255.978C427.744 255.711 427.874 255.427 427.961 255.135L477.118 265.362C476.987 266.531 477.495 267.73 478.543 268.424C480.033 269.415 482.043 269.007 483.034 267.517C484.025 266.028 483.617 264.017 482.127 263.026C482.018 262.953 481.906 262.893 481.792 262.834L508.857 193.902C510.181 194.286 511.656 193.79 512.457 192.583C513.448 191.094 513.04 189.083 511.55 188.092C510.061 187.101 508.05 187.509 507.059 188.999C506.776 189.423 506.612 189.892 506.55 190.367L398.244 186.129C398.142 185.207 397.649 184.336 396.817 183.784C395.328 182.793 393.317 183.201 392.326 184.69C391.335 186.18 391.743 188.191 393.233 189.181C393.381 189.278 393.536 189.359 393.693 189.432L383.28 226.106C382.021 225.841 380.668 226.343 379.913 227.481C379.667 227.85 379.508 228.254 379.43 228.663L289.479 222.719C289.453 221.7 288.946 220.711 288.036 220.104C286.546 219.114 284.535 219.521 283.545 221.011C282.554 222.5 282.962 224.511 284.451 225.502C284.793 225.73 285.164 225.879 285.54 225.962L280.303 267.328C279.219 267.291 278.14 267.799 277.496 268.772L277.642 268.512L185.301 216.43C185.938 215.009 185.478 213.298 184.14 212.409C183.45 211.951 182.648 211.796 181.888 211.905L171.579 168.792C172.235 168.571 172.826 168.142 173.236 167.519C174.225 166.027 173.819 164.019 172.33 163.028C170.84 162.038 168.829 162.445 167.839 163.935C167.453 164.515 167.28 165.176 167.303 165.825L100.857 174.009C100.684 173.214 100.217 172.486 99.4868 172.001C97.9973 171.01 95.9865 171.418 94.9959 172.907C94.5836 173.528 94.4156 174.237 94.4679 174.927L54.017 181.576C53.8241 180.831 53.368 180.154 52.678 179.695C51.1885 178.704 49.1776 179.112 48.1871 180.602C48.082 180.759 47.997 180.925 47.9228 181.09L-23.8147 158.683C-23.576 157.439 -24.0841 156.119 -25.2045 155.374C-26.0487 154.815 -27.0593 154.701 -27.9589 154.981L-48.6066 107.713C-48.1426 107.468 -47.731 107.107 -47.419 106.64C-46.4284 105.151 -46.8361 103.14 -48.3256 102.149C-49.8175 101.161 -51.826 101.567 -52.8166 103.056C-52.823 103.068 -52.8293 103.08 -52.8374 103.089L-89.5928 88.1583L-109.022 80.266C-108.766 79.0099 -109.268 77.6674 -110.402 76.9134C-111.891 75.9228 -113.902 76.3306 -114.893 77.8201C-115.662 78.9793 -115.586 80.4485 -114.816 81.512L-145.933 115.652C-145.969 115.626 -146.005 115.596 -146.045 115.569C-147.535 114.579 -149.546 114.987 -150.536 116.476C-151.527 117.966 -151.119 119.977 -149.63 120.967C-149.276 121.201 -148.893 121.357 -148.501 121.437L-155.466 163.87C-156.59 163.792 -157.724 164.301 -158.391 165.308C-159.381 166.798 -158.974 168.809 -157.484 169.799ZM-112.202 82.851C-111.15 82.8518 -110.121 82.3462 -109.495 81.4044C-109.375 81.2216 -109.277 81.0327 -109.196 80.8408L-87.1661 89.7886L-53.1157 103.62C-53.2359 103.912 -53.3086 104.215 -53.339 104.521L-113.549 112.906L-112.201 82.8535L-112.202 82.851ZM99.114 177.61L115.01 203.774L79.4436 228.374C79.2483 228.142 79.0194 227.93 78.754 227.755C78.6293 227.67 78.4975 227.602 78.365 227.538L96.8532 177.828C97.6137 178.033 98.4182 177.951 99.114 177.61ZM168.06 167.807C168.255 168.039 168.484 168.251 168.749 168.426C168.905 168.529 169.062 168.613 169.226 168.684L143.315 245.402C142.583 245.228 141.816 245.316 141.149 245.641L115.813 203.941L168.058 167.804L168.06 167.807ZM362.071 402.014L353.061 364.838L366.066 395.749C365.609 395.992 365.204 396.352 364.893 396.815C364.2 397.859 364.194 399.155 364.761 400.178L362.071 402.014ZM372.886 457.248C372.64 457.621 372.481 458.024 372.401 458.438L294.142 450.988C294.143 450.436 294.003 449.892 293.734 449.409L361.691 403L374.533 455.981C373.882 456.204 373.295 456.633 372.884 457.249L372.886 457.248ZM27.8388 337.566C27.6302 337.263 27.3685 336.993 27.0564 336.767L54.1966 290.659C55.6257 291.334 57.3725 290.877 58.2732 289.52L86.8008 304.849L27.8388 337.566ZM-146.027 120.96C-145.971 120.921 -145.912 120.88 -145.859 120.835L-118.147 158.29C-118.349 158.471 -118.531 158.675 -118.688 158.91C-119.1 159.526 -119.265 160.234 -119.219 160.92L-128.533 162.422L-146.027 120.96ZM-64.6454 211.387L-54.6193 221.201C-54.6847 221.28 -54.7467 221.363 -54.8052 221.452C-55.1709 222.003 -55.345 222.625 -55.3459 223.239L-65.7316 224.185L-112.916 164.13L-64.6454 211.387ZM-54.2026 220.774L-89.2609 186.452L-113.477 162.745C-113.411 162.666 -113.349 162.582 -113.291 162.494C-112.963 162.002 -112.792 161.454 -112.759 160.902L-51.4706 159.053L-52.3591 220.013C-53.0299 220.066 -53.6769 220.326 -54.2019 220.77L-54.2026 220.774ZM-119.123 161.511C-118.931 162.259 -118.476 162.941 -117.782 163.401C-117.111 163.847 -116.334 164.008 -115.592 163.915L-102.291 224.618L-128.293 162.988L-119.121 161.509L-119.123 161.511ZM-99.5137 225.028C-100.184 224.582 -100.961 224.421 -101.703 224.514L-115.009 163.788C-114.738 163.701 -114.476 163.58 -114.234 163.425L-66.4453 224.25L-98.1247 227.137C-98.2807 226.304 -98.7546 225.534 -99.5162 225.03L-99.5137 225.028ZM-98.0664 227.732L-66.0027 224.809L-56.7464 236.589C-56.9194 236.754 -57.081 236.94 -57.2182 237.146C-57.3762 237.384 -57.4958 237.636 -57.5844 237.895L-98.1008 228.183C-98.0786 228.032 -98.0646 227.88 -98.0656 227.727L-98.0664 227.732ZM-54.3257 235.708C-55.0102 235.669 -55.6957 235.843 -56.2754 236.219L-65.2915 224.745L-55.2917 223.833C-55.1358 224.666 -54.6618 225.437 -53.9003 225.94C-53.5852 226.15 -53.2434 226.294 -52.8937 226.382L-54.3257 235.708ZM-49.0008 222.327L-10.8256 207.115L-4.68504 225.447C-5.23209 225.688 -5.72006 226.08 -6.07866 226.616C-6.31847 226.978 -6.47375 227.371 -6.55503 227.771L-48.8693 223.286C-48.8659 222.963 -48.9098 222.639 -49.0008 222.327ZM48.4833 184.56C48.6612 184.757 48.8653 184.939 49.0979 185.093C49.5536 185.395 50.0537 185.567 50.5601 185.618L52.5889 229.533L-0.14625 228.191C-0.186267 227.602 -0.384321 227.032 -0.72739 226.542L48.4858 184.558L48.4833 184.56ZM281.441 273.556L296.2 304.713C295.764 304.956 295.375 305.302 295.081 305.749C294.938 305.966 294.827 306.193 294.74 306.429L282.399 304.597L280.877 273.731C281.071 273.69 281.26 273.631 281.445 273.557L281.441 273.556ZM421.949 252.8C421.502 253.737 421.542 254.811 422.005 255.696L403.95 267.447L384.532 231.877C384.828 231.659 385.095 231.388 385.311 231.066L421.946 252.801L421.949 252.8ZM384.022 232.187L403.45 267.775L347.279 304.332C347.071 304.072 346.823 303.837 346.531 303.644C346.498 303.623 346.462 303.604 346.43 303.583L381.509 232.315C382.34 232.616 383.246 232.559 384.02 232.189L384.022 232.187ZM57.3708 285.03C57.246 284.946 57.1184 284.878 56.9858 284.814L76.1169 233.577C77.0061 233.82 77.9584 233.667 78.7269 233.17L103.774 264.947L58.3742 286.098C58.1316 285.684 57.7971 285.315 57.3708 285.03ZM79.1963 232.797C79.3692 232.632 79.526 232.449 79.6656 232.242C79.8084 232.029 79.9169 231.803 80.0028 231.571L139.508 247.516C139.414 247.798 139.359 248.084 139.345 248.372L104.334 264.683L79.1987 232.795L79.1963 232.797ZM139.372 249.021C139.434 249.433 139.572 249.833 139.785 250.195L123.702 280.372L122.145 283.295C121.166 282.882 120.062 282.983 119.18 283.528L104.708 265.17L139.367 249.024L139.372 249.021ZM122.681 283.58C122.681 283.58 122.679 283.578 122.678 283.576L124.228 280.664L140.183 250.727C140.358 250.919 140.559 251.096 140.785 251.248C141.16 251.496 141.568 251.656 141.981 251.735L147.756 279.202L123.931 285.162C123.702 284.538 123.282 283.974 122.684 283.579L122.681 283.58ZM58.6264 286.641L104.155 265.429L118.706 283.889C118.514 284.063 118.339 284.262 118.19 284.487C117.88 284.956 117.707 285.475 117.661 286L58.7962 287.358C58.7683 287.114 58.7097 286.874 58.6264 286.641ZM160.346 342.408L123.022 288.712C123.232 288.528 123.425 288.313 123.588 288.071C124.062 287.356 124.213 286.524 124.08 285.74L147.876 279.79L160.985 342.132C160.762 342.2 160.551 342.294 160.348 342.41L160.346 342.408ZM148.456 279.643L176.143 272.717C176.381 273.292 176.785 273.801 177.343 274.17C177.56 274.313 177.789 274.427 178.023 274.511L168.522 315.501L162.375 342.016C162.105 341.979 161.835 341.975 161.57 342.007L148.456 279.643ZM289.873 447.91L278.112 420.592L270.845 403.706C271.294 403.461 271.691 403.11 271.995 402.653C272.591 401.757 272.677 400.675 272.331 399.738L286.79 392.812L290.345 447.787C290.184 447.816 290.026 447.857 289.871 447.907L289.873 447.91ZM256.337 303.755L282.496 348.335C282.188 348.558 281.908 348.835 281.687 349.172C281.304 349.75 281.132 350.407 281.151 351.055L262.938 354.352L255.721 303.97C255.934 303.92 256.142 303.847 256.341 303.756L256.337 303.755ZM281.22 351.649C281.394 352.444 281.859 353.177 282.594 353.663C282.778 353.785 282.969 353.886 283.167 353.966L269.946 397.688C269.678 397.634 269.407 397.616 269.138 397.629L263.023 354.942L281.223 351.647L281.22 351.649ZM272.074 399.199C271.833 398.798 271.505 398.439 271.088 398.162C270.906 398.042 270.713 397.939 270.519 397.86L275.248 382.245L283.759 354.143C283.937 354.179 284.117 354.195 284.296 354.201L286.751 392.171L272.073 399.203L272.074 399.199ZM284.892 354.16C285.756 354.023 286.562 353.542 287.085 352.756C287.296 352.437 287.44 352.095 287.527 351.745L348.666 361.096C348.64 361.544 348.708 361.99 348.863 362.41L287.333 391.887L284.894 354.159L284.892 354.16ZM349.197 359.497C348.986 359.816 348.842 360.158 348.754 360.508L287.616 351.158C287.656 350.505 287.494 349.852 287.155 349.29L317.101 327.149L349.396 359.23C349.325 359.316 349.26 359.405 349.198 359.5L349.197 359.497ZM286.8 348.808C286.618 348.607 286.412 348.422 286.178 348.265C286.107 348.216 286.033 348.177 285.96 348.137L296.977 310.672C297.982 310.928 299.059 310.689 299.859 310.022L316.672 326.723L286.8 348.808ZM295.99 310.238C296.127 310.329 296.271 310.403 296.413 310.471L285.408 347.895C285.118 347.799 284.822 347.747 284.524 347.733L282.427 305.205L294.584 307.009C294.382 308.228 294.89 309.511 295.986 310.237L295.99 310.238ZM283.928 347.763C283.668 347.799 283.412 347.865 283.167 347.964L256.862 303.446C257.167 303.225 257.441 302.949 257.663 302.614C257.877 302.293 258.021 301.947 258.108 301.591L281.825 305.112L283.926 347.761L283.928 347.763ZM181.831 273.265C181.858 273.225 181.88 273.183 181.905 273.141L223.303 289.008L251.842 299.947C251.656 300.61 251.692 301.308 251.924 301.942L199.835 326.805L180.335 274.481C180.926 274.246 181.453 273.836 181.831 273.265ZM253.428 303.678C253.963 303.968 254.547 304.088 255.122 304.058L262.343 354.462L216.366 362.786C216.19 362.154 215.822 361.571 215.281 361.132L253.428 303.678ZM216.475 363.374L262.43 355.055L268.543 397.717C267.864 397.879 267.237 398.256 266.774 398.831L216.102 365.187C216.41 364.617 216.53 363.985 216.475 363.374ZM267.503 403.564C268.361 404.131 269.388 404.237 270.296 403.945L275.594 416.255L289.323 448.152C289.209 448.218 289.095 448.29 288.987 448.37L253.118 408.036L266.309 399.61C265.717 401.018 266.185 402.687 267.503 403.564ZM292.415 448.109C291.947 447.863 291.444 447.744 290.943 447.738L287.372 392.532L349.118 362.951C349.303 363.263 349.541 363.546 349.832 363.788L292.415 448.109ZM349.816 358.808L317.584 326.79L342.325 308.498C342.506 308.7 342.712 308.884 342.946 309.041C343.534 309.433 344.204 309.602 344.858 309.576L351.181 358.134C350.686 358.246 350.217 358.472 349.816 358.808ZM341.97 308.017L317.156 326.362L300.282 309.599C300.353 309.513 300.418 309.423 300.48 309.329C300.804 308.843 300.975 308.299 301.011 307.752L341.524 306.718C341.577 307.174 341.729 307.616 341.97 308.012L341.97 308.017ZM280.279 273.8L281.794 304.505L258.195 301.001C258.243 300.105 257.921 299.213 257.273 298.554L278.576 273.364C279.109 273.673 279.698 273.816 280.276 273.802L280.279 273.8ZM278.087 273.016L256.815 298.17C256.794 298.156 256.775 298.14 256.754 298.125C255.265 297.135 253.254 297.542 252.263 299.032C252.187 299.147 252.118 299.268 252.058 299.391L188.222 274.92L182.165 272.6C182.243 272.393 182.297 272.179 182.331 271.966L276.998 271.048C277.113 271.796 277.482 272.501 278.087 273.02L278.087 273.016ZM175.965 272.145L148.332 279.055L142.597 251.786C143.587 251.776 144.551 251.312 145.177 250.465L176.138 270.234C175.884 270.851 175.833 271.514 175.965 272.141L175.965 272.145ZM75.1705 233.148C75.2952 233.232 75.4228 233.3 75.5553 233.364L56.4243 284.601C56.1947 284.539 55.9607 284.502 55.7282 284.493L53.2177 230.145L73.7356 230.666C73.8026 231.638 74.3001 232.567 75.1746 233.149L75.1705 233.148ZM-0.677885 230.195C-0.385905 229.757 -0.221088 229.272 -0.162601 228.782L52.6157 230.124L55.1289 284.519C54.5434 284.6 53.9814 284.84 53.514 285.226L-0.891243 230.479C-0.815305 230.39 -0.742796 230.295 -0.677885 230.195ZM58.5581 288.988C58.6989 288.653 58.7822 288.302 58.8056 287.95L117.66 286.592C117.693 286.931 117.782 287.262 117.92 287.579L87.4226 304.501L58.5556 288.99L58.5581 288.988ZM118.212 288.101C118.441 288.437 118.736 288.734 119.095 288.976C120.166 289.686 121.501 289.675 122.537 289.063L159.854 342.748C159.698 342.88 159.552 343.026 159.42 343.191L88.0518 304.842L118.213 288.107L118.212 288.101ZM163.731 342.524C163.485 342.36 163.225 342.239 162.959 342.151L178.602 274.665C178.99 274.729 179.384 274.723 179.762 274.648L199.296 327.062L164.72 343.566C164.48 343.16 164.15 342.804 163.731 342.524ZM200.046 327.366L252.181 302.481C252.373 302.803 252.62 303.097 252.928 303.345L214.782 360.799C214.031 360.394 213.181 360.318 212.401 360.528L200.043 327.367L200.046 327.366ZM215.769 365.683L266.046 399.064L252.713 407.578L215.612 365.859C215.667 365.802 215.718 365.744 215.769 365.683ZM288.541 448.766C288.419 448.895 288.307 449.032 288.205 449.183C288.103 449.335 288.022 449.494 287.948 449.655L222.66 427.486L252.606 408.358L288.539 448.763L288.541 448.766ZM293.401 448.908C293.288 448.772 293.16 448.642 293.022 448.523L293.002 448.307L350.327 364.12C350.966 364.475 351.681 364.588 352.364 364.49L361.547 402.371L293.405 448.908L293.401 448.908ZM403.91 377.41L370.242 396.738C370.018 396.417 369.733 396.131 369.387 395.903C369.166 395.754 368.932 395.644 368.692 395.557L375.826 368.032L403.66 375.515C403.549 376.159 403.639 376.819 403.909 377.407L403.91 377.41ZM368.113 395.407C367.61 395.325 367.096 395.363 366.619 395.515L353.421 364.148C353.878 363.904 354.283 363.544 354.594 363.082C354.737 362.868 354.846 362.643 354.931 362.415L375.25 367.877L368.113 395.407ZM355.086 361.839C355.235 360.968 355.022 360.069 354.491 359.357L382.753 333.92C382.904 334.073 383.077 334.215 383.263 334.34C383.455 334.469 383.658 334.571 383.865 334.652L375.403 367.302L355.088 361.842L355.086 361.839ZM382.373 333.455L357.921 355.466L382.065 330.393C381.641 331.409 381.771 332.563 382.373 333.455ZM353.917 358.762C353.844 358.704 353.768 358.648 353.689 358.593C353.101 358.202 352.431 358.032 351.778 358.058L345.455 309.501C346.24 309.324 346.962 308.858 347.441 308.135C347.865 307.499 348.031 306.766 347.966 306.059L414.442 293.948C414.584 294.396 414.828 294.817 415.158 295.173L353.916 358.766L353.917 358.762ZM347.858 305.471C347.795 305.252 347.715 305.038 347.607 304.832L403.738 268.3L415.732 290.269C415.384 290.502 415.076 290.802 414.83 291.175C414.383 291.846 414.225 292.621 414.316 293.361L347.86 305.469L347.858 305.471ZM416.259 289.988L404.241 267.977L422.337 256.201C422.544 256.461 422.793 256.696 423.085 256.889C423.371 257.079 423.676 257.216 423.991 257.306L417.917 289.755C417.351 289.687 416.78 289.769 416.26 289.991L416.259 289.988ZM426.668 251.489C425.214 250.524 423.271 250.888 422.258 252.287L385.772 230.64L476.591 264.64L428.097 254.552C428.228 253.383 427.72 252.183 426.672 251.49L426.668 251.489ZM477.646 263.937C477.565 264.06 477.495 264.189 477.433 264.32L385.772 230.005C385.882 229.53 385.882 229.041 385.778 228.573L426.65 216.223L477.783 263.757C477.738 263.818 477.691 263.876 477.648 263.939L477.646 263.937ZM380.824 231.973C380.872 232.005 380.923 232.031 380.972 232.059L345.897 303.317C344.982 302.965 343.967 303.059 343.136 303.531L327.216 280.794L380.452 231.682C380.569 231.786 380.689 231.885 380.824 231.973ZM342.646 303.874C342.419 304.065 342.215 304.289 342.041 304.553C341.717 305.039 341.546 305.582 341.51 306.13L300.997 307.163C300.93 306.593 300.709 306.043 300.355 305.579L326.772 281.208L342.646 303.878L342.646 303.874ZM299.946 305.135C299.829 305.031 299.707 304.93 299.572 304.842C298.978 304.447 298.302 304.279 297.642 304.306L286.975 225.958C287.28 225.887 287.573 225.773 287.85 225.616L326.424 280.706L299.944 305.133L299.946 305.135ZM286.383 226.04L297.048 304.386C296.947 304.409 296.846 304.436 296.747 304.473L281.969 273.278C282.327 273.044 282.644 272.735 282.895 272.359C283.884 270.867 283.478 268.858 281.988 267.868C281.646 267.64 281.275 267.491 280.899 267.407L286.138 226.044C286.221 226.048 286.303 226.045 286.385 226.042L286.383 226.04ZM276.963 270.452L182.367 271.371C182.335 270.36 181.829 269.378 180.922 268.776C180.514 268.506 180.067 268.341 179.61 268.274L182.462 218.345C183.449 218.311 184.405 217.824 185.007 216.954L277.342 269.033C277.1 269.484 276.975 269.968 276.961 270.453L276.963 270.452ZM180.56 217.808C180.967 218.077 181.415 218.242 181.869 218.311L179.08 267.141L175.363 221.377L180.074 217.417C180.219 217.561 180.382 217.695 180.559 217.812L180.56 217.808ZM178.571 268.286C177.727 268.436 176.943 268.912 176.431 269.682C176.425 269.69 176.421 269.7 176.413 269.709L145.483 249.959C146 248.892 145.882 247.65 145.228 246.706L174.799 221.845L178.569 268.284L178.571 268.286ZM144.845 246.247C144.701 246.104 144.537 245.97 144.36 245.853C144.206 245.752 144.048 245.666 143.884 245.595L169.795 168.877C170.03 168.932 170.267 168.963 170.507 168.966L174.741 221.115L144.845 246.247ZM140.641 245.953C140.347 246.169 140.085 246.437 139.87 246.759C139.825 246.827 139.787 246.897 139.747 246.965L80.1532 230.999C80.2783 230.265 80.1449 229.511 79.7842 228.866L115.323 204.284L140.641 245.953ZM75.156 227.762C74.8127 227.991 74.5061 228.294 74.2631 228.661C73.9711 229.099 73.8063 229.583 73.7478 230.073L53.1892 229.551L51.1584 185.622C51.4722 185.596 51.7792 185.523 52.0719 185.41L75.1552 227.766L75.156 227.762ZM48.1238 184.078L-1.11944 226.086C-1.26034 225.948 -1.41593 225.819 -1.58524 225.708C-2.36197 225.193 -3.27682 225.06 -4.1169 225.257L-10.269 206.893L47.9261 183.701C47.9846 183.832 48.0505 183.958 48.1255 184.08L48.1238 184.078ZM-11.017 206.544L-49.2225 221.77C-49.4684 221.289 -49.8332 220.862 -50.3159 220.542C-50.4313 220.466 -50.549 220.403 -50.669 220.341L-32.4514 173.091L-27.8642 161.19C-27.3156 161.343 -26.7423 161.343 -26.2053 161.208L-11.0187 206.542L-11.017 206.544ZM-28.7889 160.772C-28.6718 160.85 -28.5483 160.917 -28.4216 160.978L-51.2257 220.124C-51.4036 220.074 -51.5802 220.04 -51.7615 220.021L-50.8728 159.036L-30.2176 158.413C-30.1192 159.341 -29.6254 160.218 -28.7889 160.772ZM-51.4619 158.455L-112.778 160.306C-112.844 159.779 -113.038 159.272 -113.351 158.831L-52.7012 106.798C-52.4872 107.082 -52.2251 107.337 -51.9117 107.545C-51.5427 107.79 -51.1391 107.949 -50.7299 108.028L-51.466 158.454L-51.4619 158.455ZM-53.3426 105.126C-53.306 105.527 -53.1974 105.922 -53.0165 106.285L-113.737 158.378C-113.877 158.242 -114.031 158.116 -114.198 158.007C-114.619 157.729 -115.078 157.564 -115.547 157.499L-113.574 113.515L-53.3409 105.128L-53.3426 105.126ZM-116.145 157.468C-116.682 157.494 -117.204 157.651 -117.668 157.932L-145.42 120.425C-145.318 120.31 -145.222 120.192 -145.135 120.061C-144.681 119.379 -144.523 118.589 -144.626 117.836L-114.179 113.595L-116.145 157.468ZM-146.559 121.245L-129.144 162.518L-152.558 166.291C-152.75 165.543 -153.206 164.861 -153.9 164.401C-154.207 164.197 -154.537 164.055 -154.876 163.967L-147.906 121.505C-147.443 121.514 -146.986 121.427 -146.559 121.245ZM-153.318 169.299C-153.202 169.174 -153.092 169.038 -152.993 168.892C-152.582 168.276 -152.416 167.568 -152.463 166.882L-128.905 163.084L-102.838 224.87C-102.975 224.944 -103.111 225.032 -103.237 225.128L-153.318 169.299ZM-51.4219 237.994C-51.6344 237.3 -52.0777 236.672 -52.7289 236.237C-53.044 236.027 -53.3858 235.883 -53.7355 235.795L-52.3035 226.469C-51.1902 226.536 -50.0719 226.027 -49.411 225.031C-49.1712 224.67 -49.0159 224.276 -48.9346 223.876L-6.62038 228.361C-6.62232 228.494 -6.61593 228.628 -6.60292 228.761L-51.426 237.993L-51.4219 237.994ZM-2.28856 231.45C-1.94043 231.327 -1.61192 231.145 -1.31796 230.902L53.0872 285.649C53.0113 285.739 52.9388 285.833 52.8739 285.933C51.9066 287.388 52.2756 289.339 53.6818 290.351L26.5416 336.459C25.9369 336.174 25.2795 336.09 24.6497 336.192L-2.28611 231.449L-2.28856 231.45ZM28.3927 339.186C28.3691 338.808 28.2784 338.434 28.1252 338.085L87.4249 305.182L157.975 343.093L28.3903 339.188L28.3927 339.186ZM165.069 346.03C165.236 345.387 165.196 344.714 164.973 344.104L199.5 327.624L211.838 360.736C211.331 360.981 210.878 361.357 210.545 361.86C210.454 361.997 210.38 362.136 210.314 362.281L165.071 346.032L165.069 346.03ZM213.976 366.803C214.4 366.704 214.804 366.52 215.161 366.258L252.198 407.906L222.202 427.066L213.974 366.805L213.976 366.803ZM297.256 499.154C296.718 499.256 296.203 499.496 295.774 499.859L223.112 428.272L287.756 450.221C287.45 451.504 287.949 452.9 289.112 453.674C290.306 454.467 291.827 454.361 292.898 453.528L297.26 499.154L297.256 499.154ZM374.549 453.502L362.22 402.633L365.095 400.671C365.292 400.909 365.526 401.125 365.798 401.304C366.386 401.695 367.06 401.865 367.717 401.84L374.551 453.504L374.549 453.502ZM405.16 373.303C404.768 373.541 404.419 373.866 404.15 374.274C404.007 374.487 403.901 374.711 403.813 374.94L375.973 367.455L384.433 334.817C385.029 334.933 385.641 334.873 386.202 334.663L405.16 373.303ZM386.791 328.909C385.828 328.295 384.659 328.252 383.688 328.701L411.228 300.104L386.794 328.907L386.791 328.909ZM481.238 262.612C480.172 262.304 479.013 262.568 478.18 263.312L427.303 216.018L506.754 192.009C506.991 192.592 507.399 193.113 507.962 193.489C508.071 193.562 508.185 193.625 508.297 193.681L481.236 262.614L481.238 262.612ZM506.526 190.964C506.535 191.122 506.552 191.282 506.584 191.438L426.8 215.545L397.617 188.415C397.654 188.368 397.69 188.32 397.724 188.271C398.043 187.792 398.214 187.26 398.255 186.724L506.526 190.964ZM394.256 189.626C395.3 189.881 396.414 189.601 397.214 188.861L426.133 215.745L385.585 227.996C385.345 227.434 384.946 226.932 384.4 226.57C384.224 226.453 384.039 226.356 383.849 226.277L394.256 189.626ZM379.37 229.256C379.367 229.966 379.598 230.666 380.039 231.238L326.862 280.294L288.334 225.269C288.561 225.078 288.766 224.854 288.939 224.59C289.203 224.19 289.365 223.755 289.437 223.31L379.369 229.253L379.37 229.256ZM179.647 213.314C178.892 214.452 178.952 215.892 179.686 216.952L175.3 220.64L171.153 169.576L181.306 212.043C180.65 212.264 180.059 212.693 179.646 213.318L179.647 213.314ZM167.378 166.415C167.447 166.728 167.561 167.032 167.72 167.311L115.502 203.429L99.6245 177.297C99.9183 177.08 100.183 176.811 100.396 176.49C100.782 175.909 100.954 175.248 100.931 174.6L167.378 166.415ZM94.5635 175.517C94.7565 176.262 95.2125 176.939 95.9025 177.398C96.0272 177.483 96.1591 177.551 96.2916 177.615L77.8034 227.325C77.0921 227.133 76.3451 227.192 75.6787 227.476L52.6033 185.136C52.9821 184.9 53.3216 184.582 53.5829 184.184C53.9952 183.563 54.1632 182.854 54.1109 182.164L94.5618 175.515L94.5635 175.517ZM47.7325 181.657C47.6184 182.146 47.6216 182.651 47.7346 183.131L-10.4604 206.323L-25.6382 161.011C-25.1102 160.77 -24.6386 160.385 -24.2955 159.863C-24.1664 159.667 -24.0623 159.466 -23.98 159.255L47.7374 181.654L47.7325 181.657ZM-28.5121 155.207C-28.9761 155.452 -29.3876 155.813 -29.6997 156.28C-30.0157 156.757 -30.1879 157.282 -30.228 157.814L-50.8658 158.436L-50.1297 108.082C-49.8012 108.082 -49.4729 108.035 -49.1615 107.937L-28.5121 155.207ZM-114.419 81.9642C-114.286 82.0906 -114.143 82.2059 -113.986 82.311C-113.615 82.5589 -113.212 82.7181 -112.798 82.7974L-114.151 112.988L-144.762 117.252C-144.907 116.81 -145.149 116.395 -145.481 116.047L-114.417 81.9666L-114.419 81.9642Z" fill="#4F2B2B"/>
<path d="M309.105 130.38C307.691 126.652 304.087 124 299.863 124H16.884C12.6603 124 9.05568 126.652 7.64204 130.38C7.22862 131.47 7 132.649 7 133.884V320.589C7 326.047 11.4257 330.473 16.884 330.473H299.863C305.321 330.473 309.747 326.047 309.747 320.589V133.884C309.747 132.649 309.518 131.47 309.105 130.38Z" fill="#2B6577"/>
<path d="M299.865 124H16.8855C12.6618 124 9.05719 126.652 7.64355 130.381H309.107C307.693 126.652 304.088 124 299.865 124Z" fill="#3F97B1"/>
<path d="M7 293.353V320.588C7 326.046 11.4257 330.472 16.884 330.472H299.863C305.321 330.472 309.747 326.046 309.747 320.588V293.353H7Z" fill="#3F97B1"/>
<path d="M284.36 147.512H32.7954C29.9765 147.512 27.6914 149.798 27.6914 152.616V270.829C27.6914 273.647 29.9765 275.932 32.7954 275.932H284.36C287.179 275.932 289.464 273.647 289.464 270.829V152.616C289.464 149.798 287.179 147.512 284.36 147.512Z" fill="#D8F5FD"/>
<path d="M159.361 173.375H253.412" stroke="#F7FDFE" stroke-width="4" stroke-linecap="round"/>
<path d="M160.302 191.715L272.222 190.75" stroke="#F7FDFE" stroke-width="4" stroke-linecap="round"/>
<path d="M160.302 209.609L272.222 208.644" stroke="#F7FDFE" stroke-width="4" stroke-linecap="round"/>
<path d="M42.7393 226.514L273.163 226.514" stroke="#F7FDFE" stroke-width="4" stroke-linecap="round"/>
<path d="M42.7393 242.502L273.163 242.502" stroke="#F7FDFE" stroke-width="4" stroke-linecap="round"/>
<path d="M43.6797 259.431L274.103 259.431" stroke="#F7FDFE" stroke-width="4" stroke-linecap="round"/>
<rect x="41.7988" y="165.381" width="110.039" height="50.7872" rx="6.5" fill="white"/>
<path d="M221.087 394.266C221.003 393.506 220.759 392.744 220.327 392.016L198.25 354.827H198.394V330.658H118.358V354.827H118.286L96.3763 392.033C95.9514 392.755 95.7095 393.512 95.6257 394.266C95.2732 397.423 97.708 400.502 101.215 400.502H215.497C219.007 400.502 221.439 397.423 221.087 394.266Z" fill="#357E94"/>
<path d="M199.225 329.546H117.957V354.859H199.225V329.546Z" fill="#8FC6D7"/>
<path d="M95.6257 394.268C95.2732 397.425 97.708 400.504 101.215 400.504H215.497C219.007 400.504 221.439 397.425 221.087 394.268H95.6257Z" fill="#3F97B1"/>
<path d="M30.4951 306.982V364.4H71.9117L87.9132 348.398V306.982H30.4951Z" fill="#FBE4C6"/>
<path d="M71.918 364.387L87.9195 348.385H71.918V364.387Z" fill="#BF8888"/>
<path d="M77.3793 318.992H41.0229C40.4971 318.992 40.0703 318.565 40.0703 318.039C40.0703 317.513 40.4971 317.087 41.0229 317.087H77.3793C77.9051 317.087 78.3319 317.513 78.3319 318.039C78.3319 318.565 77.9051 318.992 77.3793 318.992Z" fill="#35345F"/>
<path d="M61.1434 328.169H41.0229C40.4971 328.169 40.0703 327.742 40.0703 327.216C40.0703 326.691 40.4971 326.264 41.0229 326.264H61.1434C61.6692 326.264 62.096 326.691 62.096 327.216C62.096 327.742 61.6692 328.169 61.1434 328.169Z" fill="#35345F"/>
<path d="M170.468 338.314L154.703 330.056L149.076 309.789C149.076 309.789 134.104 307.771 134.091 307.771C132.206 307.518 130.361 308.191 129.016 309.516C126.831 311.661 125.959 314.724 126.358 317.721C127.111 323.302 132.379 328.018 135.736 332.187C137.174 333.625 152.785 353.352 152.819 353.319L170.454 338.307L170.468 338.314Z" fill="#FFBE97"/>
<path d="M124.647 219.122L96.5429 238.079C92.9319 240.514 91.9776 245.424 94.4132 249.035L100.499 258.057L141.694 230.27L135.609 221.248C133.173 217.637 128.263 216.683 124.652 219.118L124.647 219.122Z" fill="#DF8711"/>
<path d="M141.023 228.904L199.558 319.334L161.602 344.935L99.6838 256.783L141.023 228.904Z" fill="#9F5656"/>
<path d="M186.735 325.528C186.875 325.528 187.008 325.488 187.135 325.408C187.461 325.188 187.547 324.749 187.328 324.422L131.93 242.284C131.71 241.958 131.27 241.871 130.944 242.091C130.618 242.311 130.531 242.75 130.751 243.077L186.149 325.215C186.289 325.421 186.509 325.528 186.742 325.528H186.735Z" fill="#4F2B2B"/>
<path d="M171.491 335.809C171.631 335.809 171.764 335.769 171.89 335.689C172.217 335.469 172.303 335.029 172.084 334.703L116.685 252.565C116.466 252.238 116.026 252.159 115.7 252.372C115.373 252.591 115.287 253.031 115.507 253.357L170.905 335.496C171.045 335.702 171.264 335.809 171.497 335.809H171.491Z" fill="#4F2B2B"/>
<path d="M104.313 259.999L142.268 234.397C143.813 233.352 144.22 231.254 143.181 229.709C142.135 228.164 140.037 227.757 138.492 228.796L100.536 254.398C98.9913 255.443 98.585 257.541 99.6239 259.086C100.67 260.631 102.767 261.038 104.313 259.999Z" fill="white"/>
<path d="M209.121 335.691L203.027 308.698C201.895 303.676 198.638 299.387 194.103 296.95L181.728 290.283L183.227 312.8L183.074 313.18C180.456 319.694 174.596 324.342 167.656 325.421L148.948 328.318L145.318 355.591L156.573 373.227L176.84 380.733L209.114 335.698L209.121 335.691Z" fill="#FFBE97"/>
<path d="M219.258 342.815L211.073 333.418C209.867 332.032 207.942 331.52 206.204 332.119C197.886 334.97 174.496 344.307 172.345 359.705C169.72 378.466 177.226 390.854 177.226 390.854L219.258 342.815Z" fill="#EF9C2E"/>
<path d="M285.559 268.479H312.572C304.127 277.704 295.23 286.615 288.137 296.658L285.559 268.479Z" fill="#4F2B2B"/>
<path d="M312.564 268.479H323.54L331.712 297.071L288.681 302.665L288.129 296.658C295.222 286.608 304.119 277.704 312.564 268.479Z" fill="#FFBE97"/>
<path d="M323.62 264.529C320.603 278.702 302.435 287.799 285.432 284.176C268.429 280.56 259.025 265.595 262.042 251.422C265.059 237.25 281.289 228.698 298.292 232.315C315.295 235.931 326.637 250.357 323.62 264.523V264.529Z" fill="#FFBE97"/>
<path d="M266.871 248.944C265.864 231.155 281.72 215.791 302.285 214.627C322.85 213.463 340.338 226.94 341.345 244.728C342.352 262.517 326.497 277.882 305.931 279.046C285.366 280.21 267.878 266.733 266.871 248.944Z" fill="#28151F"/>
<path d="M254.089 264.976C251.443 260.901 252.602 255.452 256.678 252.806C260.753 250.161 266.202 251.32 268.847 255.395C271.493 259.471 270.334 264.92 266.258 267.565C262.183 270.211 256.734 269.052 254.089 264.976Z" fill="#FFBE97"/>
<path d="M278.425 425.38L274.795 478H430.5C430.5 478 420.417 333.212 361.862 299.659C343.074 288.896 301.795 289.809 274.795 302.283C253.796 311.987 245.744 328.617 235.894 352.693L224.466 343.435C214.575 335.43 200.383 335.49 190.626 343.662C179.504 352.972 168.801 368.177 174.229 390.468C174.229 390.468 206.876 469.776 278.432 425.367L278.425 425.38Z" fill="#EF9C2E"/>
<path d="M278.425 426.095C278.632 426.095 278.831 426.008 278.971 425.835C279.118 425.655 293.663 407.846 303.593 384.503C303.747 384.143 303.58 383.724 303.221 383.571C302.861 383.417 302.441 383.584 302.288 383.944C292.438 407.087 278.019 424.75 277.872 424.929C277.626 425.229 277.666 425.682 277.972 425.928C278.106 426.035 278.265 426.088 278.425 426.088V426.095Z" fill="#4F2B2B"/>
<path d="M220.883 384.435C221.149 384.435 221.402 384.289 221.522 384.036L236.534 353.013C236.707 352.66 236.554 352.234 236.201 352.067C235.841 351.901 235.422 352.047 235.255 352.4L220.244 383.423C220.07 383.776 220.224 384.202 220.577 384.369C220.676 384.415 220.783 384.442 220.883 384.442V384.435Z" fill="#4F2B2B"/>
<path d="M326.458 276.396C326.458 276.396 354.949 248.724 336.967 224.608C320.457 202.463 300.19 212.227 300.19 212.227C300.19 212.227 275.422 204.721 261.915 226.113C247.836 248.404 267.709 266.093 281.256 276.702C285.945 280.372 291.659 282.497 297.613 282.663C305.339 282.883 316.448 281.944 326.464 276.403L326.458 276.396Z" fill="#4F2B2B"/>
<path d="M314.84 222.937C325.611 215.551 341.712 214.874 352.652 221.346C359.948 225.664 364.653 232.481 370.933 237.85C377.9 243.808 386.901 247.97 396.598 249.717C404.872 251.208 413.488 250.963 421.968 251.421C430.447 251.879 439.146 253.149 446.044 257.248C452.943 261.347 457.606 268.873 455.483 276.08C454.126 280.684 450.22 284.578 445.599 287.225C440.982 289.872 435.674 291.411 430.371 292.667C417.39 295.741 403.636 297.185 390.46 295.462C372.016 293.049 356.121 284.312 339.333 278.158C324.352 272.666 312.093 263.644 307.796 249.487L314.84 222.937Z" fill="#4F2B2B"/>
<path d="M130.188 320.552L129.968 335.73C129.948 337.095 130.287 338.441 130.953 339.633L144.853 364.555C147.304 368.95 151.513 372.087 156.428 373.179L156.588 373.213L155.962 351.195L130.194 320.545L130.188 320.552Z" fill="#FFBE97"/>
<path d="M145.451 350.156C145.578 350.156 145.711 350.123 145.831 350.043C146.164 349.836 146.264 349.397 146.051 349.064L131.166 325.547C130.959 325.214 130.52 325.114 130.187 325.327C129.854 325.534 129.754 325.973 129.967 326.306L144.852 349.823C144.985 350.036 145.218 350.156 145.451 350.156Z" fill="#4F2B2B"/>
<path d="M254.618 145H376.516C382.506 145 387.376 149.851 387.376 155.86V181.253C387.376 187.243 382.525 192.113 376.516 192.113H285.235L259.528 202.325L266.912 192.113H254.638C248.648 192.113 243.778 187.262 243.778 181.253V155.86C243.778 149.87 248.629 145 254.638 145H254.618Z" fill="#3A8AA2"/>
<path d="M313.377 158.785H370.918V163.204H313.377V158.785Z" fill="white"/>
<path d="M263.2 158.785H305.993V163.204H263.2V158.785Z" fill="white"/>
<path d="M326.652 173.533H370.918V177.952H326.652V173.533Z" fill="white"/>
<path d="M280.168 173.533H319.269V177.952H280.168V173.533Z" fill="white"/>
</g>
<defs>
<clipPath id="clip0_761_11924">
<rect width="460" height="460" fill="white"/>
</clipPath>
</defs>
</svg>
