<svg width="460" height="460" viewBox="0 0 460 460" fill="none" xmlns="http://www.w3.org/2000/svg">
<g clip-path="url(#clip0_760_15659)">
<rect width="460" height="460" fill="white"/>
<path d="M688.575 109.786C688.057 111.11 686.773 111.903 685.428 111.864L676.313 187.263C676.482 187.299 676.652 187.348 676.818 187.411C678.505 188.075 679.335 189.976 678.675 191.663C678.015 193.35 676.11 194.18 674.423 193.52C674.153 193.414 673.908 193.274 673.684 193.111L645.716 224.701C646.555 225.597 646.858 226.923 646.379 228.141C645.719 229.828 643.814 230.657 642.128 229.997C641.383 229.704 640.804 229.167 640.447 228.516L597.903 246.893C598.13 247.593 598.127 248.371 597.84 249.11C597.525 249.909 596.931 250.512 596.216 250.86L634.711 353.391C635.368 353.21 636.089 353.231 636.773 353.497C638.46 354.158 639.29 356.062 638.63 357.749C637.969 359.436 636.065 360.266 634.378 359.606C633.887 359.412 633.472 359.112 633.142 358.746L527.022 437.921C528.494 438.684 529.182 440.453 528.564 442.031C527.904 443.718 525.999 444.547 524.312 443.887C524.157 443.827 524.015 443.754 523.876 443.672L495.784 483.43C496.817 484.314 497.232 485.783 496.708 487.118C496.444 487.791 495.981 488.324 495.414 488.684L523.585 543.435L524.076 542.766L523.855 543.965L524.024 544.295L523.791 544.304L504.9 646.954C505.003 646.984 505.105 647.017 505.208 647.057C506.895 647.717 507.725 649.622 507.065 651.309C506.405 652.995 504.5 653.825 502.813 653.165C501.126 652.505 500.296 650.6 500.957 648.913C501.202 648.286 501.623 647.777 502.138 647.42L479.009 606.606C478.925 606.581 478.84 606.554 478.755 606.521C478.334 606.357 477.968 606.112 477.662 605.815L417.069 657.447C417.68 658.319 417.859 659.467 417.441 660.533C416.781 662.22 414.876 663.05 413.189 662.39C411.502 661.729 410.673 659.825 411.333 658.138C411.593 657.471 412.053 656.938 412.614 656.581L387.154 607.599C386.403 607.905 385.536 607.938 384.719 607.617C383.622 607.187 382.893 606.233 382.693 605.158L343.538 608.68C343.538 609.077 343.468 609.48 343.314 609.87C342.654 611.557 340.749 612.387 339.062 611.727C337.375 611.067 336.545 609.162 337.205 607.475C337.608 606.451 338.468 605.746 339.459 605.494L332.742 562.43C332.278 562.46 331.803 562.393 331.339 562.212C329.825 561.618 329.004 560.025 329.328 558.484L286.176 547.169C285.501 548.832 283.614 549.647 281.939 548.989C280.253 548.329 279.423 546.424 280.083 544.738C280.198 544.444 280.352 544.177 280.537 543.938L256.643 520.537C255.752 521.291 254.486 521.546 253.324 521.088C253.021 520.97 252.748 520.81 252.506 520.619L217.67 557.654C218.457 558.547 218.733 559.837 218.266 561.022C217.606 562.708 215.701 563.538 214.014 562.878C212.327 562.218 211.498 560.313 212.158 558.626C212.206 558.502 212.264 558.387 212.324 558.272L149.835 516.812C148.96 517.899 147.449 518.345 146.083 517.809C144.396 517.148 143.567 515.244 144.227 513.557C144.887 511.87 146.792 511.04 148.479 511.7C148.96 511.888 149.369 512.182 149.696 512.539L237.076 446.116C236.625 445.292 236.528 444.284 236.897 443.342C237.557 441.655 239.462 440.826 241.149 441.486C242.836 442.146 243.666 444.051 243.006 445.738C242.939 445.904 242.857 446.062 242.769 446.213L272.709 470.586C273.599 469.635 275.013 469.266 276.3 469.771C276.718 469.935 277.085 470.177 277.388 470.471L348.55 413.294C347.981 412.434 347.826 411.319 348.229 410.287C348.889 408.6 350.794 407.77 352.481 408.43C354.168 409.09 354.998 410.995 354.337 412.682C354.186 413.07 353.965 413.409 353.701 413.697L382.072 444.968C382.95 444.308 384.14 444.102 385.24 444.535L384.967 444.405L431.314 347.568C429.961 346.759 429.349 345.072 429.943 343.558C430.248 342.777 430.824 342.183 431.517 341.832L415.027 300.082C414.355 300.278 413.616 300.266 412.914 299.988C411.227 299.324 410.397 297.423 411.057 295.736C411.717 294.049 413.622 293.219 415.309 293.879C415.966 294.137 416.493 294.585 416.851 295.136L476.723 263.331C476.405 262.571 476.369 261.696 476.693 260.869C477.353 259.182 479.258 258.353 480.945 259.013C481.647 259.288 482.198 259.779 482.556 260.382L519.972 242.402C519.7 241.672 519.684 240.845 519.99 240.064C520.651 238.377 522.555 237.547 524.242 238.207C524.421 238.277 524.587 238.365 524.745 238.459L571.238 178.205C570.317 177.311 569.972 175.921 570.468 174.652C570.844 173.698 571.616 173.017 572.525 172.726L562.198 121.524C561.671 121.591 561.12 121.53 560.59 121.325C558.903 120.664 558.073 118.759 558.733 117.073C559.396 115.386 561.298 114.556 562.985 115.216C562.997 115.222 563.009 115.228 563.021 115.231L584.838 81.4974L596.371 63.666C595.429 62.7726 595.065 61.3674 595.568 60.0833C596.228 58.3965 598.133 57.5667 599.82 58.2269C601.131 58.7418 601.922 60.0046 601.901 61.3341L647.542 71.5793C647.558 71.5369 647.57 71.4915 647.588 71.446C648.248 69.7592 650.153 68.9294 651.84 69.5896C653.527 70.2498 654.356 72.1547 653.696 73.8416C653.539 74.2413 653.312 74.5926 653.033 74.8864L683.457 106.04C684.344 105.322 685.58 105.086 686.718 105.534C688.405 106.194 689.235 108.099 688.575 109.786ZM600.511 63.9628C599.638 64.5745 598.491 64.7532 597.425 64.3353C597.219 64.2535 597.028 64.1536 596.849 64.0415L583.772 84.2594L563.561 115.51C563.83 115.683 564.066 115.891 564.269 116.128L619.084 88.1116L600.511 63.9658V63.9628ZM480.26 265.306L482.271 296.241L526.062 295.99C526.09 295.684 526.156 295.375 526.274 295.076C526.329 294.933 526.398 294.8 526.471 294.67L482.262 264.173C481.75 264.785 481.035 265.185 480.26 265.306ZM417.374 297.22C417.347 297.526 417.281 297.834 417.162 298.134C417.093 298.31 417.011 298.47 416.917 298.625L482.971 347.213C483.476 346.644 484.164 346.271 484.906 346.153L481.702 296.847L417.374 297.217V297.22ZM392.475 604.186L378.356 568.114L385.521 601.309C386.042 601.245 386.587 601.309 387.114 601.512C388.295 601.975 389.052 603.047 389.177 604.225L392.475 604.186ZM415.585 656.284C416.006 656.451 416.372 656.693 416.678 656.99L477.268 605.355C476.947 604.898 476.747 604.365 476.69 603.807L393.362 604.783L413.483 656.19C414.152 655.997 414.888 656.012 415.588 656.284H415.585ZM632.291 356.592C632.288 356.22 632.349 355.844 632.476 355.475L583.182 332.992C582.388 334.382 580.674 335.018 579.139 334.415L564.378 363.7L632.291 356.592ZM650.704 75.9282C650.634 75.9282 650.562 75.9282 650.492 75.9221L649.26 123.087C649.532 123.12 649.802 123.184 650.068 123.287C650.768 123.56 651.316 124.05 651.676 124.647L660.274 120.483L650.704 75.9282ZM635.719 198.208L633.103 212.172C633.203 212.199 633.303 212.232 633.403 212.272C634.026 212.517 634.532 212.932 634.89 213.441L644.054 208.192L648.312 130.97L635.719 198.208ZM632.509 212.06L641.655 163.226L647.972 129.495C647.872 129.468 647.773 129.435 647.673 129.395C647.115 129.177 646.655 128.823 646.307 128.384L594.393 162.448L630.538 212.499C631.125 212.154 631.813 211.993 632.506 212.057L632.509 212.06ZM651.94 125.192C652.215 125.925 652.233 126.755 651.925 127.539C651.628 128.299 651.077 128.884 650.407 129.238L674.632 187.317L660.404 121.091L651.937 125.192H651.94ZM672.566 189.271C672.863 188.511 673.414 187.926 674.084 187.572L649.85 129.471C649.574 129.556 649.287 129.607 648.996 129.619L644.684 207.832L672.639 191.827C672.285 191.045 672.23 190.131 672.569 189.271H672.566ZM672.936 192.354L644.641 208.553L643.805 223.701C644.045 223.737 644.287 223.798 644.52 223.889C644.79 223.995 645.035 224.134 645.259 224.298L673.227 192.708C673.121 192.596 673.021 192.478 672.933 192.351L672.936 192.354ZM641.286 224.376C641.831 223.946 642.5 223.692 643.2 223.668L644.014 208.913L635.189 213.965C635.544 214.746 635.598 215.661 635.259 216.521C635.12 216.878 634.92 217.196 634.681 217.472L641.286 224.376ZM629.096 216.369L588.594 225.924L594.148 244.697C594.741 244.579 595.374 244.622 595.983 244.858C596.392 245.018 596.749 245.255 597.049 245.539L629.544 217.241C629.354 216.975 629.202 216.681 629.096 216.369ZM526.296 241.663C526.262 241.929 526.199 242.199 526.096 242.462C525.893 242.977 525.578 243.41 525.187 243.746L549.012 281.354L591.976 249.609C591.668 249.098 591.501 248.51 591.501 247.904L526.292 241.663H526.296ZM384.746 450.795L390.6 485.213C391.103 485.162 391.627 485.223 392.129 485.422C392.375 485.519 392.599 485.643 392.808 485.789L401.981 477.1L385.315 450.613C385.131 450.692 384.94 450.753 384.743 450.798L384.746 450.795ZM256.137 515.189C257.052 515.707 257.642 516.621 257.772 517.624L279.574 516.885L275.022 476.101C274.65 476.092 274.271 476.022 273.905 475.88L256.14 515.189H256.137ZM275.625 476.061L280.18 516.867L348.008 514.565C348.029 514.229 348.099 513.89 348.229 513.56C348.244 513.523 348.262 513.487 348.277 513.451L277.784 474.708C277.269 475.441 276.485 475.919 275.628 476.061H275.625ZM577.279 330.166C577.334 330.024 577.401 329.894 577.473 329.763L531.844 298.374C531.247 299.091 530.369 299.518 529.442 299.552L527.122 340.46L577.067 331.635C577.028 331.15 577.092 330.651 577.279 330.166ZM528.836 299.515C528.597 299.479 528.361 299.418 528.125 299.327C527.882 299.234 527.661 299.109 527.455 298.967L487.356 346.756C487.598 346.935 487.81 347.141 487.989 347.371L526.505 340.566L528.833 299.515H528.836ZM488.343 347.925C488.531 348.303 488.649 348.715 488.682 349.139L519.551 364.83L522.54 366.35C523.113 365.438 524.088 364.881 525.136 364.821L526.477 341.187L488.349 347.925H488.343ZM522.262 366.898C522.262 366.898 522.262 366.895 522.262 366.892L519.285 365.378L488.661 349.812C488.628 350.072 488.564 350.336 488.464 350.593C488.298 351.017 488.052 351.386 487.756 351.692L498.918 377.831L522.144 368.936C521.971 368.285 521.992 367.573 522.259 366.898H522.262ZM577.173 332.232L527.086 341.081L525.738 364.845C525.999 364.878 526.259 364.942 526.514 365.042C527.044 365.251 527.489 365.581 527.831 365.99L577.449 332.925C577.331 332.707 577.24 332.474 577.173 332.232ZM525.187 437.573L524.96 371.353C524.678 371.323 524.394 371.256 524.118 371.15C523.309 370.832 522.701 370.229 522.355 369.503L499.161 378.388L524.497 437.715C524.721 437.643 524.951 437.597 525.187 437.576V437.573ZM498.594 378.603L471.605 388.939C471.741 389.554 471.702 390.211 471.453 390.841C471.357 391.086 471.232 391.313 471.087 391.519L502.777 420.002L523.276 438.427C523.479 438.239 523.7 438.079 523.939 437.952L498.594 378.603ZM479.021 600.322L472.91 570.831L469.131 552.602C468.616 552.66 468.083 552.599 467.565 552.396C466.55 552 465.851 551.152 465.593 550.174L449.576 552.827L478.558 600.494C478.71 600.425 478.864 600.367 479.021 600.319V600.322ZM423.11 461.265L427.305 513.439C427.689 513.445 428.083 513.511 428.462 513.663C429.116 513.92 429.64 514.365 430 514.913L447.023 507.07L423.746 461.086C423.54 461.168 423.325 461.228 423.107 461.268L423.11 461.265ZM430.288 515.446C430.606 516.207 430.645 517.085 430.318 517.915C430.236 518.124 430.136 518.317 430.018 518.499L466.381 547.088C466.572 546.888 466.787 546.715 467.017 546.57L447.296 507.609L430.285 515.446H430.288ZM465.493 549.577C465.46 549.105 465.524 548.617 465.708 548.145C465.79 547.939 465.89 547.742 466.005 547.563L453.013 537.357L429.631 518.99C429.503 519.123 429.364 519.241 429.219 519.35L449.237 552.272L465.496 549.58L465.493 549.577ZM428.701 519.662C427.904 520.05 426.956 520.119 426.066 519.771C425.706 519.629 425.388 519.429 425.112 519.19L379.828 562.457C380.109 562.814 380.312 563.223 380.427 563.662L448.589 552.375L428.698 519.662H428.701ZM378.459 561.439C378.819 561.582 379.137 561.782 379.413 562.021L424.697 518.753C424.285 518.236 424.04 517.6 423.995 516.936L386.294 515.964L378.138 561.333C378.247 561.364 378.353 561.4 378.459 561.442V561.439ZM424.01 516.331C424.043 516.058 424.107 515.786 424.21 515.519C424.24 515.437 424.279 515.362 424.316 515.286L393.416 490.607C392.732 491.404 391.699 491.831 390.648 491.743L386.403 515.362L424.01 516.331ZM393.983 489.674C393.922 489.829 393.846 489.974 393.768 490.113L424.634 514.765C424.818 514.517 425.033 514.302 425.273 514.117L402.311 477.621L393.274 486.18C394.149 487.073 394.473 488.433 393.986 489.671L393.983 489.674ZM425.784 513.796C426.021 513.675 426.272 513.581 426.532 513.52L422.496 461.313C422.114 461.307 421.726 461.237 421.348 461.089C420.984 460.947 420.663 460.744 420.385 460.498L402.756 477.194L425.784 513.793V513.796ZM467.204 392.697C467.159 392.679 467.117 392.658 467.071 392.637L441.947 429.844L424.628 455.495C425.167 455.937 425.542 456.537 425.718 457.197L483.367 447.567L469.152 392.837C468.525 392.985 467.85 392.952 467.204 392.697ZM425.479 459.511C425.203 460.062 424.788 460.501 424.294 460.81L447.58 506.815L490.554 487.015C490.333 486.388 490.299 485.692 490.493 485.014L425.479 459.511ZM490.805 487.567L447.853 507.357L467.562 546.297C468.219 546.037 468.958 545.985 469.676 546.194L492.168 488.854C491.58 488.56 491.114 488.106 490.805 487.567ZM471.82 550.543C471.438 551.512 470.648 552.197 469.724 552.481L472.48 565.77L479.618 600.204C479.751 600.191 479.888 600.185 480.024 600.188L486.35 545.897L470.515 546.57C471.823 547.394 472.404 549.05 471.82 550.543ZM477.029 601.963C477.274 601.488 477.622 601.097 478.034 600.8L448.931 552.933L380.53 564.259C380.558 564.625 380.524 564.998 380.424 565.367L477.029 601.963ZM377.544 561.227L385.685 515.946L354.537 515.144C354.504 515.416 354.44 515.689 354.337 515.955C354.077 516.621 353.62 517.151 353.062 517.509L376.021 561.461C376.497 561.267 377.017 561.182 377.544 561.227ZM354.552 514.538L385.791 515.343L390.052 491.637C389.943 491.607 389.837 491.57 389.731 491.528C389.18 491.313 388.722 490.961 388.374 490.528L354.168 513.202C354.389 513.611 354.519 514.065 354.549 514.535L354.552 514.538ZM385.851 450.323L402.429 476.673L419.97 460.059C419.41 459.344 419.158 458.418 419.313 457.494L387.011 448.972C386.748 449.538 386.342 449.999 385.854 450.323H385.851ZM387.214 448.4L419.47 456.91C419.479 456.885 419.485 456.861 419.494 456.837C420.155 455.15 422.059 454.32 423.746 454.98C423.877 455.032 424.004 455.093 424.125 455.159L462.865 397.782L466.541 392.34C466.357 392.213 466.187 392.068 466.036 391.91L386.975 446.134C387.314 446.822 387.417 447.621 387.217 448.403L387.214 448.4ZM471.42 388.361L498.355 378.043L487.274 352.092C486.447 352.658 485.378 352.834 484.367 352.495L470.166 386.877C470.736 387.24 471.163 387.761 471.417 388.358L471.42 388.361ZM532.38 297.468C532.325 297.61 532.259 297.741 532.186 297.871L577.815 329.261C577.97 329.076 578.143 328.909 578.33 328.767L548.845 282.226L532.128 294.576C532.637 295.421 532.764 296.481 532.377 297.471L532.38 297.468ZM593.582 250.963C593.085 250.769 592.667 250.464 592.334 250.091L549.333 281.859L578.842 328.44C579.375 328.167 579.981 328.04 580.593 328.089L593.924 251.075C593.809 251.045 593.694 251.009 593.582 250.963ZM578.594 334.139C578.282 333.943 578.009 333.7 577.785 333.422L528.176 366.48C528.346 366.78 528.464 367.107 528.534 367.449L563.66 363.773L578.597 334.139H578.594ZM528.594 368.052C528.6 368.464 528.527 368.882 528.37 369.291C527.895 370.502 526.78 371.268 525.566 371.362L525.793 437.57C525.999 437.588 526.205 437.624 526.411 437.685L563.336 364.421L528.597 368.058L528.594 368.052ZM522.446 439.635C522.555 439.357 522.701 439.105 522.87 438.878L470.696 391.983C470.412 392.261 470.082 392.485 469.724 392.643L483.964 447.467L522.231 441.074C522.195 440.598 522.262 440.111 522.446 439.635ZM483.519 448.154L425.818 457.794C425.845 458.172 425.812 458.56 425.7 458.945L490.714 484.447C491.102 483.675 491.762 483.118 492.531 482.839L483.522 448.154H483.519ZM492.731 489.072L470.415 545.964L486.42 545.283L492.964 489.126C492.886 489.111 492.81 489.093 492.731 489.072ZM480.624 600.258C480.799 600.294 480.972 600.343 481.144 600.409C481.317 600.476 481.478 600.561 481.632 600.652L522.913 544.341L486.962 545.867L480.624 600.255V600.258ZM476.674 603.199C476.69 603.02 476.72 602.838 476.765 602.66L476.656 602.469L380.206 565.931C379.882 566.597 379.355 567.106 378.732 567.421L393.117 604.177L476.671 603.202L476.674 603.199ZM343.477 608.077L382.632 604.555C382.632 604.159 382.702 603.756 382.856 603.365C382.953 603.114 383.083 602.887 383.232 602.675L361.327 583.986L342.584 606.36C343.05 606.83 343.359 607.429 343.477 608.074V608.077ZM383.625 602.214C383.995 601.854 384.443 601.588 384.928 601.436L377.656 567.751C377.135 567.814 376.59 567.751 376.063 567.548C375.821 567.454 375.6 567.33 375.397 567.19L361.715 583.523L383.625 602.214ZM374.934 566.803C374.304 566.167 373.959 565.298 373.986 564.398L335.767 559.713C335.731 559.928 335.67 560.146 335.588 560.358C335.503 560.576 335.394 560.779 335.27 560.967L361.254 583.135L374.934 566.806V566.803ZM335.812 559.108L368.88 563.163L334.289 556.388C335.231 556.985 335.794 558.017 335.812 559.108ZM374.116 563.571C374.143 563.481 374.174 563.39 374.207 563.299C374.467 562.633 374.925 562.103 375.482 561.745L352.523 517.793C351.769 518.102 350.9 518.136 350.082 517.815C349.362 517.533 348.798 517.021 348.441 516.397L286.264 544.962C286.406 545.416 286.449 545.907 286.382 546.394L374.119 563.574L374.116 563.571ZM348.19 515.846C348.114 515.628 348.056 515.404 348.026 515.171L280.246 517.469L283.057 542.66C283.481 542.651 283.911 542.721 284.332 542.887C285.092 543.184 285.673 543.735 286.028 544.401L348.187 515.846H348.19ZM282.457 542.733L279.641 517.494L257.791 518.236C257.769 518.572 257.7 518.911 257.569 519.241C257.442 519.565 257.27 519.856 257.061 520.113L280.946 543.502C281.376 543.117 281.897 542.854 282.457 542.736V542.733ZM251.461 516.843C252.106 515.198 253.929 514.371 255.583 514.944L273.275 475.795L217.688 556.748L252.055 520.213C251.267 519.32 250.992 518.03 251.458 516.846L251.461 516.843ZM216.404 556.779C216.543 556.833 216.676 556.9 216.804 556.972L272.905 475.268C272.539 474.938 272.254 474.532 272.07 474.084L230.992 487.579L216.186 556.709C216.258 556.733 216.331 556.754 216.404 556.782V556.779ZM278.154 474.026C278.133 474.081 278.105 474.132 278.081 474.184L348.565 512.921C349.119 512.097 350.016 511.585 350.979 511.494V483.387L278.293 473.569C278.257 473.724 278.214 473.875 278.154 474.026ZM351.585 511.494C351.884 511.522 352.184 511.588 352.481 511.706C353.032 511.921 353.489 512.273 353.838 512.706L388.044 490.032C387.768 489.52 387.632 488.935 387.656 488.345L351.588 483.472V511.497L351.585 511.494ZM387.738 487.739C387.774 487.585 387.817 487.43 387.877 487.279C388.141 486.607 388.604 486.074 389.168 485.713L352.508 414.527C352.214 414.645 351.906 414.72 351.585 414.751V482.854L387.738 487.736V487.739ZM353.047 414.251L389.707 485.435C389.803 485.395 389.903 485.359 390.006 485.332L384.146 450.871C383.713 450.886 383.271 450.813 382.844 450.647C381.157 449.984 380.327 448.082 380.988 446.395C381.139 446.007 381.36 445.668 381.624 445.38L353.253 414.112C353.187 414.163 353.117 414.209 353.047 414.254V414.251ZM386.657 445.62L465.66 391.438C465.1 390.581 464.948 389.472 465.351 388.446C465.533 387.985 465.808 387.588 466.148 387.267L434.782 347.507C433.943 348.052 432.868 348.204 431.863 347.831L385.518 444.663C385.982 444.896 386.366 445.226 386.66 445.62H386.657ZM436.048 345.956C435.866 346.417 435.591 346.814 435.254 347.135L465.93 386.02L442.432 345.899L436.224 345.351C436.187 345.554 436.13 345.76 436.051 345.96L436.048 345.956ZM467.017 386.674C467.804 386.307 468.731 386.247 469.603 386.589C469.612 386.592 469.621 386.598 469.633 386.601L483.819 352.253C482.771 351.668 482.147 350.569 482.141 349.406L443.171 345.96L467.017 386.671V386.674ZM482.192 348.803C482.229 348.6 482.286 348.394 482.365 348.194C482.435 348.022 482.516 347.858 482.61 347.704L416.557 299.115C416.393 299.297 416.215 299.461 416.018 299.603L442.795 345.32L482.192 348.803ZM485.508 346.117C485.878 346.126 486.25 346.196 486.617 346.338C486.693 346.368 486.765 346.405 486.838 346.438L526.998 298.579C526.468 298.043 526.141 297.341 526.065 296.596L482.307 296.847L485.508 346.117ZM529.263 292.992C529.681 292.983 530.111 293.056 530.526 293.219C531.023 293.413 531.441 293.719 531.774 294.091L548.524 281.717L524.694 244.098C524.418 244.258 524.121 244.376 523.812 244.452L529.266 292.995L529.263 292.992ZM526.314 241.054L591.562 247.299C591.598 247.102 591.652 246.905 591.728 246.714C592.073 245.836 592.755 245.194 593.566 244.87L588.003 226.063L526.259 240.627C526.286 240.769 526.305 240.912 526.314 241.057V241.054ZM588.421 225.34L628.957 215.779C628.881 215.237 628.936 214.67 629.151 214.125C629.202 213.995 629.263 213.874 629.326 213.753L586.771 185.14L576.053 177.932C575.686 178.377 575.211 178.711 574.687 178.91L588.421 225.336V225.34ZM576.577 177.048C576.525 177.181 576.462 177.308 576.392 177.433L629.662 213.25C629.781 213.105 629.908 212.974 630.047 212.853L593.887 162.781L576.392 174.262C576.849 175.089 576.949 176.103 576.577 177.048ZM594.039 161.957L645.977 127.878C645.725 127.403 645.592 126.87 645.595 126.321L565.063 118.387C565.051 118.747 564.981 119.111 564.842 119.465C564.678 119.883 564.436 120.249 564.142 120.552L594.042 161.954L594.039 161.957ZM564.624 116.627C564.826 116.982 564.966 117.372 565.026 117.778L645.653 125.722C645.689 125.528 645.743 125.334 645.819 125.146C646.007 124.671 646.292 124.268 646.643 123.941L619.46 88.6022L564.624 116.63V116.627ZM647.121 123.569C647.582 123.278 648.106 123.105 648.654 123.069L649.889 75.8373C649.738 75.801 649.59 75.7585 649.441 75.701C648.669 75.3982 648.078 74.8349 647.727 74.1505L620.008 88.3175L647.121 123.569ZM651.31 75.8555L660.837 120.207L682.451 109.738C682.176 109.005 682.158 108.175 682.466 107.391C682.603 107.042 682.794 106.733 683.024 106.464L652.579 75.2891C652.2 75.5648 651.77 75.7585 651.31 75.8555ZM684.829 111.791C684.659 111.755 684.489 111.706 684.323 111.643C683.623 111.37 683.075 110.879 682.715 110.283L660.967 120.816L675.231 187.208C675.389 187.19 675.552 187.184 675.713 187.19L684.829 111.791ZM640.204 227.959C639.977 227.26 639.98 226.481 640.268 225.742C640.407 225.385 640.607 225.067 640.846 224.791L634.241 217.887C633.357 218.589 632.134 218.816 631.007 218.374C630.598 218.214 630.241 217.977 629.941 217.693L597.446 245.991C597.525 246.1 597.597 246.215 597.664 246.333L640.207 227.956L640.204 227.959ZM595.647 251.069C595.287 251.169 594.908 251.209 594.523 251.178L581.192 328.192C581.307 328.222 581.422 328.258 581.534 328.304C583.182 328.949 584.009 330.781 583.43 332.437L632.724 354.921C633.06 354.333 633.557 353.882 634.138 353.6L595.644 251.069H595.647ZM632.773 358.258C632.573 357.931 632.43 357.568 632.355 357.189L564.054 364.339L527.552 436.764L632.776 358.258H632.773ZM523.373 443.321C522.861 442.885 522.504 442.303 522.334 441.667L484.121 448.051L493.119 482.685C493.682 482.594 494.276 482.642 494.845 482.866C495 482.927 495.142 483 495.281 483.081L523.373 443.324V443.321ZM494.869 488.96C494.46 489.123 494.018 489.205 493.57 489.196L487.038 545.255L523.049 543.726L494.872 488.96H494.869ZM502.662 647.117C503.167 646.89 503.734 646.79 504.3 646.842L522.995 545.255L482.12 601.009C483.119 601.896 483.516 603.344 483.001 604.661C482.471 606.012 481.147 606.809 479.776 606.739L502.659 647.12L502.662 647.117ZM412.029 654.143L392.711 604.786L389.186 604.828C389.161 605.14 389.092 605.455 388.971 605.761C388.71 606.427 388.25 606.96 387.69 607.32L412.029 654.146V654.143ZM340.055 605.397C340.519 605.367 340.997 605.434 341.457 605.615C341.7 605.709 341.918 605.833 342.124 605.973L360.87 583.593L334.895 561.433C334.468 561.876 333.926 562.181 333.338 562.333L340.055 605.397ZM329.507 557.902C329.949 556.833 330.894 556.118 331.96 555.928L292.506 548.202L329.504 557.902H329.507ZM212.655 557.766C213.36 556.891 214.475 556.436 215.598 556.57L230.332 487.788L150.481 514.02C150.623 514.641 150.587 515.31 150.338 515.949C150.29 516.073 150.232 516.191 150.172 516.303L212.658 557.766H212.655ZM150.063 513.021C150.147 513.157 150.226 513.299 150.29 513.448L230.474 487.103L238.923 447.649C238.866 447.63 238.808 447.612 238.751 447.591C238.209 447.379 237.757 447.037 237.412 446.616L150.063 513.021ZM242.415 446.701C241.697 447.518 240.61 447.933 239.517 447.785L231.143 486.882L271.894 473.493C271.767 472.888 271.806 472.24 272.048 471.622C272.127 471.422 272.224 471.234 272.336 471.059L242.415 446.701ZM277.781 470.928C278.196 471.516 278.411 472.231 278.378 472.96L350.982 482.766V414.745C350.682 414.717 350.382 414.651 350.085 414.533C349.634 414.354 349.247 414.087 348.929 413.76L277.781 470.925V470.928ZM434.194 341.698C435.482 342.204 436.269 343.434 436.275 344.739L442.056 345.251L415.836 300.484L432.081 341.608C432.753 341.411 433.492 341.423 434.197 341.701L434.194 341.698ZM417.132 295.669C417.256 295.969 417.338 296.287 417.368 296.611L481.662 296.241L479.654 265.342C479.285 265.333 478.909 265.264 478.546 265.121C477.889 264.864 477.362 264.416 477.005 263.864L417.132 295.669ZM482.819 260.927C483.092 261.657 483.107 262.483 482.801 263.265C482.746 263.407 482.677 263.54 482.604 263.671L526.813 294.167C527.292 293.595 527.946 293.21 528.664 293.059L523.213 244.534C522.761 244.558 522.295 244.491 521.847 244.313C521.144 244.037 520.593 243.547 520.236 242.944L482.819 260.924V260.927ZM525.233 238.819C525.611 239.158 525.902 239.579 526.087 240.043L587.831 225.479L574.103 179.077C573.524 179.183 572.909 179.138 572.322 178.904C572.101 178.817 571.898 178.711 571.707 178.583L525.226 238.819H525.233ZM573.115 172.593C573.642 172.526 574.193 172.587 574.723 172.793C575.262 173.005 575.711 173.341 576.053 173.759L593.533 162.287L563.676 120.946C563.403 121.137 563.103 121.288 562.788 121.388L573.115 172.593ZM601.834 61.9398C601.798 62.1215 601.746 62.3001 601.677 62.4788C601.513 62.8998 601.271 63.2662 600.974 63.5721L619.632 87.83L647.5 73.5872C647.364 73.1359 647.324 72.6514 647.397 72.1699L601.834 61.9428V61.9398Z" fill="#4F2B2B"/>
<path d="M-234.773 350.83C-234.255 349.507 -232.971 348.713 -231.627 348.753L-222.511 273.354C-222.68 273.317 -222.85 273.269 -223.017 273.205C-224.703 272.542 -225.533 270.64 -224.873 268.953C-224.213 267.266 -222.308 266.437 -220.621 267.097C-220.352 267.203 -220.106 267.342 -219.882 267.506L-191.914 235.916C-192.753 235.02 -193.056 233.693 -192.578 232.476C-191.918 230.789 -190.013 229.959 -188.326 230.619C-187.581 230.913 -187.002 231.449 -186.645 232.1L-144.101 213.723C-144.329 213.024 -144.325 212.246 -144.038 211.507C-143.723 210.707 -143.129 210.104 -142.415 209.756L-180.909 107.225C-181.566 107.407 -182.287 107.386 -182.971 107.119C-184.658 106.459 -185.488 104.554 -184.828 102.867C-184.168 101.18 -182.263 100.351 -180.576 101.011C-180.085 101.205 -179.67 101.504 -179.34 101.871L-73.2206 22.6952C-74.6924 21.932 -75.3799 20.1634 -74.7621 18.5856C-74.1019 16.8988 -72.197 16.069 -70.5102 16.7292C-70.3557 16.7897 -70.2133 16.8624 -70.074 16.9442L-41.9822 -22.8132C-43.0149 -23.6976 -43.4298 -25.1664 -42.9059 -26.5019C-42.6424 -27.1742 -42.179 -27.7072 -41.6127 -28.0676L-69.7833 -82.8189L-70.2739 -82.1496L-70.0529 -83.3488L-70.2224 -83.6789L-69.9892 -83.688L-51.0978 -186.337C-51.2007 -186.367 -51.3037 -186.401 -51.4067 -186.44C-53.0935 -187.1 -53.9233 -189.005 -53.2631 -190.692C-52.6029 -192.379 -50.6981 -193.209 -49.0112 -192.549C-47.3244 -191.888 -46.4946 -189.983 -47.1548 -188.297C-47.4001 -187.67 -47.821 -187.161 -48.3358 -186.804L-25.2076 -145.989C-25.1228 -145.965 -25.038 -145.938 -24.9532 -145.904C-24.5323 -145.741 -24.1658 -145.496 -23.86 -145.199L36.7332 -196.831C36.1214 -197.703 35.9427 -198.851 36.3607 -199.917C37.0209 -201.604 38.9258 -202.433 40.6126 -201.773C42.2994 -201.113 43.1292 -199.208 42.4691 -197.521C42.2086 -196.855 41.7483 -196.322 41.188 -195.965L66.6481 -146.983C67.3992 -147.288 68.2654 -147.322 69.083 -147.001C70.1793 -146.571 70.9092 -145.617 71.1091 -144.542L110.264 -148.064C110.264 -148.46 110.333 -148.863 110.488 -149.254C111.148 -150.941 113.053 -151.771 114.74 -151.11C116.427 -150.45 117.257 -148.545 116.596 -146.858C116.194 -145.835 115.333 -145.129 114.343 -144.878L121.06 -101.813C121.524 -101.844 121.999 -101.777 122.462 -101.595C123.977 -101.002 124.797 -99.4087 124.473 -97.8672L167.626 -86.5529C168.301 -88.2156 170.188 -89.0302 171.862 -88.373C173.549 -87.7128 174.379 -85.8079 173.719 -84.1211C173.604 -83.8273 173.449 -83.5608 173.265 -83.3216L197.159 -59.9208C198.049 -60.6749 199.315 -60.9293 200.478 -60.472C200.781 -60.3539 201.054 -60.1933 201.296 -60.0026L236.132 -97.0374C235.345 -97.9308 235.069 -99.2209 235.535 -100.405C236.196 -102.092 238.101 -102.922 239.787 -102.261C241.474 -101.601 242.304 -99.6964 241.644 -98.0096C241.595 -97.8854 241.538 -97.7703 241.477 -97.6552L303.966 -56.1958C304.841 -57.283 306.353 -57.7282 307.719 -57.1922C309.405 -56.532 310.235 -54.6271 309.575 -52.9402C308.915 -51.2534 307.01 -50.4236 305.323 -51.0838C304.841 -51.2716 304.433 -51.5653 304.106 -51.9227L216.726 14.5002C217.177 15.324 217.274 16.3324 216.904 17.2743C216.244 18.9611 214.339 19.7909 212.653 19.1307C210.966 18.4705 210.136 16.5656 210.796 14.8788C210.863 14.7122 210.945 14.5547 211.032 14.4033L181.093 -9.9696C180.203 -9.01868 178.788 -8.6492 177.501 -9.15495C177.083 -9.31848 176.717 -9.56078 176.414 -9.85454L105.252 47.3225C105.821 48.1826 105.976 49.2971 105.573 50.3298C104.913 52.0166 103.008 52.8464 101.321 52.1862C99.634 51.526 98.8042 49.6211 99.4644 47.9343C99.6158 47.5466 99.8369 47.2074 100.1 46.9197L71.7299 15.648C70.8516 16.3082 69.6615 16.5141 68.5621 16.0811L68.8347 16.2113L22.4874 113.049C23.8411 113.857 24.4528 115.544 23.8593 117.059C23.5534 117.84 22.978 118.433 22.2845 118.785L38.7744 160.535C39.4467 160.338 40.1856 160.35 40.8882 160.629C42.575 161.292 43.4048 163.194 42.7446 164.881C42.0844 166.568 40.1795 167.397 38.4927 166.737C37.8355 166.48 37.3086 166.032 36.9512 165.48L-22.9211 197.285C-22.6031 198.045 -22.5668 198.92 -22.8909 199.747C-23.5511 201.434 -25.4559 202.264 -27.1428 201.604C-27.8454 201.328 -28.3966 200.837 -28.7539 200.235L-66.1704 218.215C-65.8978 218.945 -65.8827 219.771 -66.1886 220.553C-66.8488 222.239 -68.7536 223.069 -70.4405 222.409C-70.6191 222.339 -70.7857 222.252 -70.9432 222.158L-117.436 282.412C-116.515 283.305 -116.17 284.695 -116.667 285.964C-117.042 286.918 -117.814 287.599 -118.723 287.89L-108.396 339.092C-107.869 339.025 -107.318 339.086 -106.788 339.292C-105.101 339.952 -104.271 341.857 -104.931 343.544C-105.595 345.231 -107.497 346.06 -109.183 345.4C-109.195 345.394 -109.208 345.388 -109.22 345.385L-131.037 379.119L-142.569 396.951C-141.627 397.844 -141.264 399.249 -141.766 400.533C-142.427 402.22 -144.332 403.05 -146.018 402.39C-147.33 401.875 -148.12 400.612 -148.099 399.282L-193.741 389.037C-193.756 389.08 -193.768 389.125 -193.786 389.17C-194.446 390.857 -196.351 391.687 -198.038 391.027C-199.725 390.367 -200.555 388.462 -199.894 386.775C-199.737 386.375 -199.51 386.024 -199.231 385.73L-229.655 354.576C-230.542 355.294 -231.778 355.53 -232.917 355.082C-234.603 354.422 -235.433 352.517 -234.773 350.83ZM-146.709 396.654C-145.837 396.042 -144.689 395.863 -143.623 396.281C-143.417 396.363 -143.226 396.463 -143.047 396.575L-129.971 376.357L-109.759 345.107C-110.028 344.934 -110.265 344.725 -110.467 344.489L-165.282 372.505L-146.709 396.651V396.654ZM-26.4583 195.311L-28.4692 164.375L-72.2606 164.626C-72.2878 164.932 -72.3545 165.241 -72.4726 165.541C-72.5271 165.683 -72.5967 165.816 -72.6694 165.947L-28.4601 196.443C-27.9483 195.831 -27.2336 195.432 -26.4583 195.311ZM36.4273 163.397C36.4546 163.091 36.5212 162.782 36.6393 162.482C36.709 162.307 36.7907 162.146 36.8846 161.992L-29.1688 113.403C-29.6746 113.973 -30.3621 114.345 -31.104 114.463L-27.8999 163.769L36.4273 163.4V163.397ZM61.3272 -143.569L75.4458 -107.498L68.2805 -140.692C67.7596 -140.629 67.2145 -140.692 66.6875 -140.895C65.5064 -141.359 64.7493 -142.431 64.6252 -143.609L61.3272 -143.569ZM38.2171 -195.668C37.7961 -195.834 37.4297 -196.077 37.1238 -196.373L-23.4662 -144.738C-23.1452 -144.281 -22.9454 -143.748 -22.8878 -143.191L60.4398 -144.166L40.3188 -195.574C39.6496 -195.38 38.9137 -195.395 38.2141 -195.668H38.2171ZM-178.489 104.024C-178.486 104.397 -178.547 104.772 -178.674 105.142L-129.38 127.625C-128.587 126.235 -126.873 125.599 -125.337 126.201L-110.576 96.9164L-178.489 104.024ZM-196.902 384.688C-196.833 384.688 -196.76 384.688 -196.69 384.694L-195.458 337.529C-195.73 337.496 -196 337.432 -196.266 337.329C-196.966 337.057 -197.514 336.566 -197.874 335.97L-206.472 340.134L-196.902 384.688ZM-181.918 262.409L-179.301 248.445C-179.401 248.417 -179.501 248.384 -179.601 248.345C-180.225 248.099 -180.73 247.684 -181.088 247.176L-190.252 252.424L-194.51 329.646L-181.918 262.409ZM-178.707 248.557L-187.853 297.39L-194.171 331.121C-194.071 331.148 -193.971 331.182 -193.871 331.221C-193.314 331.439 -192.853 331.794 -192.505 332.233L-140.591 298.169L-176.736 248.118C-177.323 248.463 -178.011 248.623 -178.704 248.56L-178.707 248.557ZM-198.138 335.425C-198.414 334.692 -198.432 333.862 -198.123 333.078C-197.826 332.317 -197.275 331.733 -196.606 331.379L-220.83 273.299L-206.602 339.525L-198.135 335.425H-198.138ZM-218.765 271.346C-219.061 272.106 -219.613 272.69 -220.282 273.045L-196.048 331.145C-195.773 331.061 -195.485 331.009 -195.194 330.997L-190.882 252.784L-218.837 268.79C-218.483 269.571 -218.429 270.486 -218.768 271.346H-218.765ZM-219.134 268.263L-190.839 252.064L-190.004 236.915C-190.243 236.879 -190.485 236.818 -190.718 236.728C-190.988 236.622 -191.233 236.482 -191.457 236.319L-219.425 267.908C-219.319 268.02 -219.219 268.139 -219.131 268.266L-219.134 268.263ZM-187.484 236.24C-188.029 236.67 -188.698 236.924 -189.398 236.949L-190.212 251.703L-181.388 246.652C-181.742 245.87 -181.796 244.956 -181.457 244.096C-181.318 243.738 -181.118 243.42 -180.879 243.145L-187.484 236.24ZM-175.294 244.247L-134.792 234.692L-140.346 215.919C-140.94 216.037 -141.573 215.995 -142.181 215.759C-142.59 215.598 -142.948 215.362 -143.247 215.077L-175.743 243.375C-175.552 243.641 -175.4 243.935 -175.294 244.247ZM-72.4938 218.954C-72.4604 218.687 -72.3969 218.418 -72.2939 218.154C-72.091 217.639 -71.776 217.206 -71.3853 216.87L-95.2101 179.263L-138.175 211.007C-137.866 211.519 -137.699 212.106 -137.699 212.712L-72.4907 218.954H-72.4938ZM69.0558 9.82129L63.2018 -24.597C62.6991 -24.5455 62.1751 -24.6061 61.6724 -24.806C61.4271 -24.9029 61.203 -25.027 60.994 -25.1724L51.8209 -16.4838L68.4864 10.003C68.6712 9.92424 68.862 9.86368 69.0588 9.81825L69.0558 9.82129ZM197.665 -54.5726C196.75 -55.0904 196.16 -56.005 196.029 -57.0074L174.228 -56.2685L178.779 -15.4844C179.152 -15.4753 179.53 -15.4057 179.897 -15.2633L197.662 -54.5726H197.665ZM178.177 -15.445L173.622 -56.2503L105.794 -53.9487C105.773 -53.6125 105.703 -53.2733 105.573 -52.9433C105.558 -52.9069 105.539 -52.8706 105.524 -52.8342L176.017 -14.0913C176.532 -14.8242 177.317 -15.3027 178.174 -15.445H178.177ZM-123.478 130.45C-123.532 130.593 -123.599 130.723 -123.671 130.853L-78.0419 162.243C-77.4453 161.525 -76.567 161.098 -75.6403 161.065L-73.3205 120.157L-123.266 128.982C-123.226 129.466 -123.29 129.966 -123.478 130.45ZM-75.0346 161.101C-74.7954 161.138 -74.5592 161.198 -74.323 161.289C-74.0807 161.383 -73.8596 161.507 -73.6537 161.649L-33.554 113.86C-33.7963 113.682 -34.0083 113.476 -34.187 113.246L-72.7028 120.051L-75.0316 161.101H-75.0346ZM-34.5413 112.691C-34.7291 112.313 -34.8472 111.901 -34.8805 111.477L-65.7494 95.7867L-68.7385 94.2665C-69.3109 95.178 -70.286 95.7353 -71.3339 95.7958L-72.6755 119.43L-34.5474 112.691H-34.5413ZM-68.4599 93.7183C-68.4599 93.7183 -68.4599 93.7213 -68.4599 93.7244L-65.4829 95.2386L-34.8593 110.805C-34.826 110.544 -34.7624 110.281 -34.6624 110.023C-34.4959 109.599 -34.2505 109.23 -33.9538 108.924L-45.1166 82.7856L-68.3418 91.6802C-68.1692 92.3313 -68.1904 93.043 -68.4568 93.7183H-68.4599ZM-123.372 128.385L-73.2842 119.536L-71.9366 95.7716C-72.197 95.7383 -72.4574 95.6747 -72.7118 95.5747C-73.2418 95.3658 -73.687 95.0357 -74.0292 94.6268L-123.647 127.691C-123.529 127.909 -123.438 128.143 -123.372 128.385ZM-71.3853 23.0435L-71.1582 89.2635C-70.8766 89.2938 -70.5919 89.3604 -70.3163 89.4664C-69.5077 89.7844 -68.899 90.387 -68.5537 91.1138L-45.3589 82.2284L-70.6949 22.9011C-70.919 22.9738 -71.1491 23.0193 -71.3853 23.0405V23.0435ZM-44.7926 82.0134L-17.8031 71.6773C-17.9394 71.0625 -17.9 70.4053 -17.6516 69.7754C-17.5547 69.5301 -17.4306 69.303 -17.2852 69.097L-48.9749 40.6145L-69.4744 22.1895C-69.6773 22.3772 -69.8984 22.5377 -70.1376 22.6649L-44.7926 82.0134ZM-25.2197 -139.705L-19.1083 -110.214L-15.3288 -91.986C-14.814 -92.0435 -14.281 -91.9829 -13.7631 -91.78C-12.7486 -91.3833 -12.049 -90.5353 -11.7916 -89.5572L4.22583 -92.2101L-24.7564 -139.878C-24.9078 -139.808 -25.0623 -139.751 -25.2197 -139.702V-139.705ZM30.6914 -0.648056L26.497 -52.8221C26.1124 -52.8282 25.7187 -52.8948 25.3401 -53.0462C24.686 -53.3036 24.1621 -53.7488 23.8017 -54.297L6.77881 -46.4533L30.0555 -0.469376C30.2614 -0.551132 30.4764 -0.611725 30.6945 -0.651093L30.6914 -0.648056ZM23.514 -54.83C23.196 -55.5901 23.1566 -56.4684 23.4837 -57.2982C23.5655 -57.5071 23.6654 -57.7009 23.7835 -57.8826L-12.579 -86.4712C-12.7698 -86.2713 -12.9848 -86.0987 -13.215 -85.9533L6.50626 -46.9924L23.517 -54.83H23.514ZM-11.6917 -88.9606C-11.6583 -88.4881 -11.722 -88.0005 -11.9067 -87.5281C-11.9885 -87.3222 -12.0884 -87.1253 -12.2035 -86.9466L0.788544 -76.7408L24.1712 -58.3733C24.2984 -58.5065 24.4377 -58.6246 24.583 -58.7336L4.565 -91.6559L-11.6947 -88.9636L-11.6917 -88.9606ZM25.1009 -59.0456C25.8974 -59.4332 26.8453 -59.5029 27.7357 -59.1546C28.096 -59.0123 28.414 -58.8124 28.6896 -58.5731L73.974 -101.841C73.6923 -102.198 73.4894 -102.607 73.3743 -103.046L5.2131 -91.7588L25.1039 -59.0456H25.1009ZM75.3428 -100.823C74.9824 -100.965 74.6644 -101.165 74.3889 -101.404L29.1045 -58.137C29.5164 -57.6192 29.7617 -56.9832 29.8071 -56.32L67.5082 -55.3478L75.6638 -100.717C75.5548 -100.747 75.4488 -100.784 75.3428 -100.826V-100.823ZM29.792 -55.7143C29.7587 -55.4417 29.6951 -55.1692 29.5921 -54.9027C29.5618 -54.8209 29.5224 -54.7452 29.4861 -54.6695L60.3853 -29.9907C61.0697 -30.7872 62.1025 -31.2142 63.1533 -31.1263L67.3992 -54.7452L29.792 -55.7143ZM59.819 -29.0579C59.8796 -29.2124 59.9553 -29.3577 60.034 -29.497L29.1681 -54.1486C28.9834 -53.9002 28.7683 -53.6852 28.5291 -53.5005L51.4908 -17.0047L60.5277 -25.5631C59.6525 -26.4565 59.3284 -27.8162 59.816 -29.0549L59.819 -29.0579ZM28.0173 -53.1795C27.7811 -53.0583 27.5297 -52.9644 27.2693 -52.9039L31.3062 -0.696503C31.6878 -0.690445 32.0754 -0.620789 32.454 -0.472397C32.8174 -0.330063 33.1384 -0.127151 33.417 0.118149L51.0456 -16.5777L28.0173 -53.1764V-53.1795ZM-13.4027 67.919C-13.3573 67.9372 -13.3149 67.9583 -13.2695 67.9796L11.8545 30.7721L29.1742 5.12112C28.6351 4.67897 28.2596 4.07935 28.0839 3.41914L-29.5656 13.0496L-15.35 67.7797C-14.7231 67.6313 -14.0478 67.6646 -13.4027 67.919ZM28.3232 1.10541C28.5988 0.55423 29.0137 0.115112 29.5073 -0.193787L6.22159 -46.1989L-36.752 -26.3989C-36.531 -25.772 -36.4977 -25.0755 -36.6915 -24.3971L28.3232 1.10541ZM-37.0034 -26.9501L5.94901 -46.741L-13.7601 -85.6807C-14.4173 -85.4203 -15.1562 -85.3688 -15.874 -85.5778L-38.3662 -28.2372C-37.7787 -27.9434 -37.3123 -27.4892 -37.0034 -26.9501ZM-18.0181 -89.9266C-17.6365 -90.8957 -16.8461 -91.5802 -15.9224 -91.8648L-18.6783 -105.154L-25.8163 -139.587C-25.9496 -139.575 -26.0859 -139.569 -26.2222 -139.572L-32.5486 -85.281L-16.7128 -85.9533C-18.0211 -86.777 -18.6026 -88.4336 -18.0181 -89.9266ZM-23.227 -141.347C-23.4723 -140.871 -23.8206 -140.48 -24.2325 -140.184L4.87088 -92.3161L73.2714 -103.642C73.2441 -104.009 73.2774 -104.381 73.3774 -104.751L-23.227 -141.347ZM76.2574 -100.611L68.117 -55.3297L99.2645 -54.5271C99.2978 -54.7997 99.3614 -55.0723 99.4644 -55.3388C99.7249 -56.005 100.182 -56.535 100.739 -56.8923L77.7807 -100.844C77.3053 -100.65 76.7844 -100.566 76.2574 -100.611ZM99.2494 -53.9214L68.011 -54.727L63.7499 -31.0203C63.859 -30.9901 63.965 -30.9537 64.071 -30.9113C64.6221 -30.6963 65.0794 -30.345 65.4277 -29.9119L99.634 -52.5859C99.4129 -52.9947 99.2827 -53.449 99.2524 -53.9184L99.2494 -53.9214ZM67.9504 10.2937L51.3727 -16.0568L33.8319 0.557251C34.3922 1.27197 34.6435 2.19868 34.4891 3.12236L66.7905 11.6444C67.054 11.0781 67.4598 10.6178 67.9474 10.2937H67.9504ZM66.5876 12.2168L34.3316 3.70685C34.3225 3.73108 34.3165 3.75529 34.3074 3.77953C33.6472 5.46637 31.7423 6.29617 30.0555 5.63597C29.9252 5.58449 29.798 5.52393 29.6769 5.45731L-9.06299 62.8342L-12.7395 68.2763C-12.5548 68.4035 -12.3852 68.5489 -12.2338 68.7064L66.8268 14.4821C66.4877 13.7946 66.3847 12.9951 66.5846 12.2138L66.5876 12.2168ZM-17.6183 72.2557L-44.5533 82.5736L-33.4723 108.524C-32.6455 107.958 -31.5764 107.782 -30.5649 108.122L-16.3646 73.7397C-16.9339 73.3763 -17.3609 72.8553 -17.6153 72.2587L-17.6183 72.2557ZM-78.5779 163.148C-78.5234 163.006 -78.4568 162.876 -78.3841 162.746L-124.014 131.356C-124.168 131.541 -124.341 131.707 -124.529 131.849L-95.0436 178.391L-78.3265 166.041C-78.8353 165.196 -78.9626 164.136 -78.5749 163.145L-78.5779 163.148ZM-139.78 209.653C-139.283 209.847 -138.865 210.153 -138.532 210.525L-95.5312 178.757L-125.04 132.177C-125.573 132.449 -126.179 132.576 -126.791 132.528L-140.122 209.541C-140.007 209.571 -139.892 209.608 -139.78 209.653ZM-124.792 126.477C-124.48 126.674 -124.208 126.916 -123.983 127.195L-74.3745 94.1362C-74.544 93.8364 -74.6621 93.5093 -74.7318 93.1671L-109.859 96.8437L-124.795 126.477H-124.792ZM-74.7923 92.5645C-74.7984 92.1526 -74.7257 91.7347 -74.5682 91.3258C-74.0928 90.1145 -72.9783 89.3483 -71.7639 89.2544L-71.991 23.0465C-72.197 23.0283 -72.4029 22.992 -72.6089 22.9314L-109.535 96.1956L-74.7954 92.5584L-74.7923 92.5645ZM-68.6446 20.9811C-68.7536 21.2597 -68.899 21.5111 -69.0686 21.7382L-16.8945 68.6337C-16.6099 68.3551 -16.2798 68.131 -15.9224 67.9735L-30.1621 13.1495L-68.4296 19.5426C-68.3933 20.0181 -68.4599 20.5056 -68.6446 20.9811ZM-29.717 12.4621L27.984 2.82256C27.9567 2.44398 27.9901 2.05635 28.1021 1.67174L-36.9126 -23.8308C-37.3002 -23.0585 -37.9604 -22.5013 -38.7296 -22.2227L-29.72 12.4621H-29.717ZM-38.9295 -28.4552L-16.6129 -85.3476L-32.6182 -84.6662L-39.1627 -28.5098C-39.084 -28.4946 -39.0082 -28.4764 -38.9295 -28.4552ZM-26.8218 -139.642C-26.9974 -139.678 -27.17 -139.726 -27.3427 -139.793C-27.5153 -139.86 -27.6758 -139.944 -27.8303 -140.035L-69.111 -83.7244L-33.1603 -85.2507L-26.8218 -139.639V-139.642ZM-22.8727 -142.582C-22.8878 -142.404 -22.9181 -142.222 -22.9636 -142.043L-22.8545 -141.852L73.5954 -105.314C73.9194 -105.98 74.4464 -106.489 75.0703 -106.804L60.6851 -143.56L-22.8697 -142.585L-22.8727 -142.582ZM110.324 -147.461L71.1696 -143.939C71.1696 -143.542 71.1 -143.139 70.9455 -142.749C70.8486 -142.497 70.7184 -142.27 70.57 -142.058L92.4747 -123.37L111.218 -145.744C110.751 -146.213 110.443 -146.813 110.324 -147.458V-147.461ZM70.1763 -141.598C69.8068 -141.238 69.3586 -140.971 68.8741 -140.82L76.1454 -107.134C76.6663 -107.198 77.2114 -107.134 77.7383 -106.931C77.9806 -106.837 78.2017 -106.713 78.4046 -106.574L92.0871 -122.906L70.1763 -141.598ZM78.8679 -106.186C79.4978 -105.55 79.8431 -104.681 79.8158 -103.782L118.035 -99.0968C118.071 -99.3118 118.132 -99.5298 118.214 -99.7418C118.298 -99.9599 118.407 -100.163 118.531 -100.351L92.5474 -122.519L78.8679 -106.189V-106.186ZM117.989 -98.4911L84.9218 -102.546L119.513 -95.7715C118.571 -96.3681 118.008 -97.4008 117.989 -98.4911ZM79.6856 -102.955C79.6584 -102.864 79.6281 -102.773 79.5948 -102.682C79.3343 -102.016 78.877 -101.486 78.3198 -101.129L101.278 -57.177C102.033 -57.4859 102.902 -57.5192 103.719 -57.1982C104.44 -56.9166 105.003 -56.4048 105.361 -55.7809L167.538 -84.3452C167.395 -84.7995 167.353 -85.2901 167.42 -85.7777L79.6826 -102.958L79.6856 -102.955ZM105.612 -55.2297C105.688 -55.0117 105.745 -54.7876 105.776 -54.5544L173.555 -56.853L170.745 -82.0436C170.321 -82.0345 169.891 -82.1042 169.47 -82.2707C168.71 -82.5675 168.128 -83.1187 167.774 -83.7849L105.615 -55.2297H105.612ZM171.345 -82.1163L174.161 -56.8772L196.011 -57.6192C196.032 -57.9553 196.102 -58.2945 196.232 -58.6246C196.36 -58.9487 196.532 -59.2394 196.741 -59.4968L172.856 -82.8855C172.426 -82.5009 171.905 -82.2374 171.345 -82.1193V-82.1163ZM202.341 -56.2261C201.696 -54.5816 199.873 -53.7549 198.219 -54.3273L180.527 -15.1785L236.114 -96.1319L201.747 -59.5967C202.535 -58.7034 202.81 -57.4132 202.344 -56.2291L202.341 -56.2261ZM237.398 -96.1622C237.259 -96.2167 237.125 -96.2833 236.998 -96.356L180.896 -14.6516C181.263 -14.3215 181.547 -13.9157 181.732 -13.4675L222.81 -26.9622L237.616 -96.0925C237.543 -96.1168 237.471 -96.138 237.398 -96.1652V-96.1622ZM175.648 -13.4099C175.669 -13.4644 175.696 -13.5159 175.721 -13.5674L105.237 -52.3043C104.682 -51.4805 103.786 -50.9687 102.823 -50.8779V-22.7708L175.509 -12.9526C175.545 -13.1071 175.587 -13.2585 175.648 -13.4099ZM102.217 -50.8779C101.917 -50.9051 101.618 -50.9717 101.321 -51.0898C100.77 -51.3049 100.312 -51.6562 99.9641 -52.0892L65.7578 -29.4153C66.0334 -28.9035 66.1697 -28.319 66.1454 -27.7284L102.214 -22.8557V-50.8809L102.217 -50.8779ZM66.0637 -27.1227C66.0273 -26.9683 65.9849 -26.8138 65.9244 -26.6624C65.6609 -25.9901 65.1975 -25.4571 64.6342 -25.0967L101.294 46.09C101.587 45.9718 101.896 45.8961 102.217 45.8658V-22.2378L66.0637 -27.1197V-27.1227ZM100.755 46.3655L64.0952 -24.8181C63.9983 -24.7787 63.8983 -24.7424 63.7954 -24.7151L69.6554 9.74557C70.0885 9.73042 70.5306 9.8031 70.9576 9.96967C72.6445 10.6329 73.4743 12.5348 72.8141 14.2216C72.6627 14.6092 72.4416 14.9484 72.1781 15.2361L100.549 46.5048C100.615 46.4534 100.685 46.4079 100.755 46.3625V46.3655ZM67.1448 14.9969L-11.8582 69.1788C-11.298 70.0359 -11.1465 71.1443 -11.5493 72.1709C-11.731 72.6313 -12.0066 73.028 -12.3458 73.349L19.0198 113.109C19.8587 112.564 20.9337 112.413 21.9392 112.785L68.2835 15.9539C67.8202 15.7207 67.4355 15.3906 67.1418 14.9969H67.1448ZM17.7539 114.66C17.9356 114.2 18.2112 113.803 18.5474 113.482L-12.1278 74.5967L11.3699 114.718L17.5782 115.266C17.6146 115.063 17.6721 114.857 17.7509 114.657L17.7539 114.66ZM-13.215 73.9426C-14.0023 74.309 -14.9291 74.3696 -15.8013 74.0273C-15.8104 74.0243 -15.8194 74.0182 -15.8315 74.0152L-30.0168 108.364C-28.9689 108.948 -28.3451 110.048 -28.3391 111.211L10.631 114.657L-13.215 73.9456V73.9426ZM-28.3905 111.813C-28.4268 112.016 -28.4844 112.222 -28.5631 112.422C-28.6328 112.595 -28.7145 112.758 -28.8084 112.913L37.245 161.501C37.4085 161.319 37.5872 161.156 37.784 161.013L11.0065 115.296L-28.3905 111.813ZM-31.7067 114.499C-32.0761 114.49 -32.4486 114.421 -32.8151 114.278C-32.8908 114.248 -32.9635 114.212 -33.0362 114.178L-73.1964 162.037C-72.6664 162.573 -72.3393 163.276 -72.2636 164.021L-28.5056 163.769L-31.7067 114.499ZM-75.4616 167.624C-75.8796 167.634 -76.3096 167.561 -76.7245 167.397C-77.2212 167.204 -77.6391 166.898 -77.9722 166.525L-94.7226 178.899L-70.8918 216.519C-70.6161 216.358 -70.3194 216.24 -70.0104 216.164L-75.4647 167.621L-75.4616 167.624ZM-72.512 219.562L-137.76 213.318C-137.796 213.515 -137.851 213.711 -137.926 213.902C-138.272 214.78 -138.953 215.422 -139.765 215.746L-134.201 234.553L-72.4574 219.989C-72.4847 219.847 -72.5029 219.705 -72.512 219.559V219.562ZM-134.619 235.277L-175.155 244.838C-175.079 245.38 -175.134 245.946 -175.349 246.491C-175.4 246.621 -175.461 246.743 -175.525 246.864L-132.969 275.477L-122.251 282.684C-121.885 282.239 -121.409 281.906 -120.885 281.706L-134.619 235.28V235.277ZM-122.775 283.569C-122.724 283.435 -122.66 283.308 -122.59 283.184L-175.861 247.366C-175.979 247.512 -176.106 247.642 -176.245 247.763L-140.086 297.836L-122.59 286.355C-123.048 285.528 -123.148 284.513 -122.775 283.569ZM-140.237 298.659L-192.175 332.738C-191.924 333.214 -191.79 333.747 -191.793 334.295L-111.261 342.229C-111.249 341.869 -111.179 341.506 -111.04 341.151C-110.876 340.733 -110.634 340.367 -110.34 340.064L-140.24 298.662L-140.237 298.659ZM-110.822 343.989C-111.025 343.635 -111.164 343.244 -111.225 342.838L-191.851 334.895C-191.887 335.088 -191.942 335.282 -192.017 335.47C-192.205 335.945 -192.49 336.348 -192.841 336.675L-165.658 372.014L-110.822 343.986V343.989ZM-193.32 337.048C-193.78 337.339 -194.304 337.511 -194.852 337.548L-196.088 384.779C-195.936 384.815 -195.788 384.858 -195.639 384.915C-194.867 385.218 -194.277 385.782 -193.925 386.466L-166.206 372.299L-193.32 337.048ZM-197.508 384.761L-207.036 340.409L-228.65 350.879C-228.374 351.612 -228.356 352.441 -228.665 353.226C-228.801 353.574 -228.992 353.883 -229.222 354.153L-198.777 385.327C-198.398 385.052 -197.968 384.858 -197.508 384.761ZM-231.027 348.825C-230.857 348.862 -230.688 348.91 -230.521 348.974C-229.822 349.246 -229.273 349.737 -228.913 350.334L-207.166 339.801L-221.43 273.408C-221.587 273.426 -221.751 273.432 -221.911 273.426L-231.027 348.825ZM-186.403 232.657C-186.176 233.357 -186.179 234.135 -186.466 234.874C-186.606 235.231 -186.805 235.549 -187.045 235.825L-180.44 242.73C-179.555 242.027 -178.332 241.8 -177.205 242.242C-176.796 242.403 -176.439 242.639 -176.139 242.924L-143.644 214.626C-143.723 214.517 -143.796 214.402 -143.862 214.284L-186.406 232.66L-186.403 232.657ZM-141.845 209.547C-141.485 209.447 -141.106 209.408 -140.722 209.438L-127.39 132.425C-127.505 132.395 -127.621 132.358 -127.733 132.313C-129.38 131.668 -130.207 129.836 -129.628 128.179L-178.922 105.696C-179.259 106.283 -179.755 106.735 -180.337 107.016L-141.842 209.547H-141.845ZM-178.971 102.358C-178.771 102.686 -178.629 103.049 -178.553 103.428L-110.252 96.2773L-73.7506 23.8521L-178.974 102.358H-178.971ZM-69.5713 17.2955C-69.0595 17.7316 -68.7021 18.313 -68.5326 18.949L-30.3196 12.565L-39.3172 -22.0683C-39.8805 -21.9774 -40.474 -22.0259 -41.0434 -22.25C-41.1978 -22.3105 -41.3401 -22.3832 -41.4794 -22.465L-69.5713 17.2924V17.2955ZM-41.0676 -28.3432C-40.6587 -28.5067 -40.2166 -28.5885 -39.7684 -28.5794L-33.236 -84.639L-69.2473 -83.1096L-41.0706 -28.3432H-41.0676ZM-48.8598 -186.501C-49.3655 -186.274 -49.9319 -186.174 -50.4982 -186.225L-69.1927 -84.639L-28.3178 -140.393C-29.3172 -141.28 -29.714 -142.728 -29.1991 -144.045C-28.6691 -145.396 -27.3457 -146.192 -25.9738 -146.122L-48.8568 -186.504L-48.8598 -186.501ZM41.7725 -193.527L61.091 -144.169L64.6161 -144.212C64.6403 -144.523 64.7099 -144.838 64.8311 -145.144C65.0915 -145.811 65.5519 -146.344 66.1121 -146.704L41.7725 -193.53V-193.527ZM113.747 -144.781C113.283 -144.751 112.805 -144.817 112.344 -144.999C112.102 -145.093 111.884 -145.217 111.678 -145.356L92.932 -122.976L118.907 -100.817C119.334 -101.259 119.876 -101.565 120.464 -101.716L113.747 -144.781ZM124.295 -97.2858C123.852 -96.2167 122.908 -95.502 121.842 -95.3112L161.296 -87.5856L124.298 -97.2858H124.295ZM241.147 -97.1495C240.442 -96.2743 239.327 -95.82 238.204 -95.9532L223.47 -27.1712L303.321 -53.4036C303.179 -54.0244 303.215 -54.6937 303.464 -55.3327C303.512 -55.4569 303.57 -55.575 303.63 -55.687L241.144 -97.1495H241.147ZM303.739 -52.4042C303.654 -52.5405 303.576 -52.6828 303.512 -52.8312L223.328 -26.4868L214.878 12.9678C214.936 12.986 214.994 13.0042 215.051 13.0254C215.593 13.2374 216.044 13.5796 216.39 14.0005L303.739 -52.4042ZM211.387 13.9157C212.104 13.0981 213.192 12.6832 214.285 12.8316L222.659 -26.2657L181.908 -12.8769C182.035 -12.2712 181.996 -11.6232 181.753 -11.0053C181.675 -10.8055 181.578 -10.6177 181.466 -10.442L211.387 13.9157ZM176.02 -10.3118C175.606 -10.8993 175.391 -11.6141 175.424 -12.3439L102.82 -22.15V45.8719C103.12 45.8991 103.42 45.9658 103.716 46.0839C104.168 46.2626 104.555 46.5291 104.873 46.8561L176.02 -10.3088V-10.3118ZM19.6073 118.918C18.3202 118.412 17.5328 117.183 17.5268 115.877L11.7455 115.366L37.9658 160.132L21.7212 119.009C21.0489 119.206 20.3099 119.194 19.6043 118.915L19.6073 118.918ZM36.6696 164.947C36.5454 164.648 36.4637 164.33 36.4333 164.005L-27.8605 164.375L-25.8527 195.274C-25.4832 195.283 -25.1077 195.353 -24.7443 195.495C-24.0871 195.753 -23.5601 196.201 -23.2028 196.752L36.6696 164.947ZM-29.0174 199.69C-29.29 198.96 -29.3051 198.133 -28.9992 197.352C-28.9447 197.209 -28.8751 197.076 -28.8024 196.946L-73.0117 166.449C-73.4901 167.022 -74.1443 167.406 -74.862 167.558L-69.4108 216.083C-68.9596 216.058 -68.4932 216.125 -68.045 216.304C-67.3424 216.579 -66.7912 217.07 -66.4338 217.673L-29.0174 199.693V199.69ZM-71.4308 221.797C-71.8093 221.458 -72.1001 221.037 -72.2848 220.574L-134.029 235.138L-120.301 281.539C-119.722 281.433 -119.108 281.479 -118.52 281.712C-118.299 281.8 -118.096 281.906 -117.905 282.033L-71.4247 221.797H-71.4308ZM-119.314 288.023C-119.84 288.09 -120.392 288.029 -120.922 287.823C-121.461 287.612 -121.909 287.275 -122.251 286.857L-139.731 298.329L-109.874 339.67C-109.601 339.48 -109.301 339.328 -108.987 339.228L-119.314 288.023ZM-148.032 398.677C-147.996 398.495 -147.944 398.316 -147.875 398.138C-147.711 397.717 -147.469 397.35 -147.172 397.044L-165.83 372.786L-193.698 387.029C-193.562 387.481 -193.523 387.965 -193.595 388.447L-148.032 398.674V398.677Z" fill="#B4185C"/>
<path d="M299.587 216.032C299.587 216.032 329.376 156.071 358.252 121.683L429.354 208.172L344.042 292.527L299.58 216.039L299.587 216.032Z" fill="#FBE4C6"/>
<path d="M344.041 293.307C343.843 293.307 343.637 293.226 343.482 293.072C343.18 292.763 343.18 292.27 343.482 291.961L428.286 208.113L357.641 122.176C357.368 121.838 357.413 121.345 357.751 121.073C358.09 120.793 358.583 120.845 358.855 121.183L429.956 207.672C430.214 207.988 430.192 208.445 429.905 208.724L344.593 293.079C344.439 293.234 344.24 293.307 344.041 293.307Z" fill="#4F2B2B"/>
<path d="M390.344 238.842L401.265 253.258L408.072 245.311L398.005 231.491L390.344 238.842Z" fill="#2B6577"/>
<path d="M294.098 214.14C294.098 214.14 323.886 154.18 352.763 119.792L423.864 206.28L344.035 292.526L294.09 214.147L294.098 214.14Z" fill="#FBE4C6"/>
<path d="M344.04 293.306C343.849 293.306 343.658 293.24 343.511 293.1C343.194 292.806 343.172 292.306 343.466 291.989L422.825 206.243L352.157 120.284C351.885 119.953 351.929 119.453 352.268 119.181C352.606 118.901 353.099 118.952 353.371 119.291L424.473 205.78C424.723 206.082 424.708 206.523 424.444 206.81L344.614 293.056C344.46 293.225 344.246 293.306 344.04 293.306Z" fill="#4F2B2B"/>
<path d="M396.703 224.037L407.631 238.453L414.438 230.498L404.363 216.678L396.703 224.037Z" fill="#B4185C"/>
<path d="M296.981 203.132C296.981 203.132 316.21 157.028 344.159 121.875L417.549 206.428L344.041 292.52L296.981 203.132Z" fill="#FBE4C6"/>
<path d="M344.041 293.307C343.857 293.307 343.681 293.248 343.533 293.116C343.202 292.836 343.165 292.336 343.445 292.012L416.519 206.436L343.57 122.397C343.283 122.073 343.32 121.573 343.651 121.293C343.982 121.006 344.475 121.043 344.755 121.374L418.145 205.928C418.403 206.222 418.403 206.656 418.145 206.951L344.637 293.042C344.483 293.226 344.262 293.314 344.041 293.314V293.307Z" fill="#4F2B2B"/>
<path d="M284.545 212.24L320.346 137.776C322.422 133.456 328.051 132.308 331.65 135.465L352.703 153.929C354.602 155.592 355.5 158.13 355.066 160.618L351.666 180.17C351.666 180.17 370.541 203.976 383.905 225.538C386.363 229.504 386.076 234.582 383.169 238.232L343.821 287.706C340.716 291.613 334.549 290.73 332.687 286.101C325.645 268.609 309.558 234.31 287.143 220.681C284.244 218.915 283.074 215.302 284.545 212.24Z" fill="#DF8711"/>
<path d="M186.87 201.337L201.101 144.16L209.471 141.271L290.749 174.383C290.749 174.383 308.555 172.216 311.4 190.564L344.331 271.914L271.687 361.101L186.861 201.328L186.87 201.337Z" fill="#4F2B2B"/>
<path d="M338.136 269.556L266.62 355.185L257.22 354.77L326.514 268.788L338.136 269.556Z" fill="#FFE4C7"/>
<path d="M190.844 151.952L208.073 147.672L294.642 180.767L304.285 188.315L338.138 269.557L326.517 268.789L190.844 151.952Z" fill="#FBE4C6"/>
<path d="M291.462 190.5L190.843 151.952L168.341 282.08L231.811 304.592L291.462 190.5Z" fill="#FBE4C6"/>
<path d="M220.207 236.922C220.081 236.922 219.954 236.895 219.828 236.841L201.57 228.994C201.082 228.786 200.856 228.217 201.064 227.73C201.272 227.242 201.841 227.016 202.328 227.224L220.586 235.071C221.074 235.279 221.3 235.848 221.092 236.335C220.939 236.696 220.577 236.922 220.207 236.922Z" fill="#4F2B2B"/>
<path d="M227.91 248.932C227.783 248.932 227.657 248.905 227.53 248.851L220.541 245.853C220.054 245.645 219.828 245.076 220.036 244.589C220.243 244.101 220.812 243.866 221.3 244.083L228.289 247.081C228.777 247.289 229.002 247.858 228.795 248.345C228.641 248.706 228.28 248.932 227.91 248.932Z" fill="#4F2B2B"/>
<path d="M215.855 243.767C215.729 243.767 215.602 243.74 215.476 243.686L198.861 236.561C198.374 236.353 198.148 235.785 198.356 235.297C198.563 234.809 199.132 234.584 199.62 234.791L216.235 241.916C216.722 242.123 216.948 242.692 216.74 243.18C216.587 243.541 216.225 243.767 215.855 243.767Z" fill="#4F2B2B"/>
<path d="M231.567 258.765C231.441 258.765 231.314 258.738 231.188 258.684L210.907 250.006C210.419 249.799 210.194 249.23 210.401 248.742C210.609 248.255 211.178 248.02 211.666 248.237L231.946 256.914C232.434 257.122 232.66 257.691 232.452 258.178C232.299 258.539 231.937 258.765 231.567 258.765Z" fill="#4F2B2B"/>
<path d="M206.483 248.03C206.356 248.03 206.23 248.003 206.103 247.948L196.288 243.75C195.8 243.542 195.575 242.973 195.782 242.485C195.99 241.998 196.559 241.772 197.046 241.98L206.862 246.179C207.349 246.386 207.575 246.955 207.367 247.443C207.214 247.804 206.853 248.03 206.483 248.03Z" fill="#0151A1"/>
<path d="M214.446 259.316C214.32 259.316 214.194 259.289 214.067 259.234L193.831 250.593C193.344 250.385 193.118 249.816 193.326 249.329C193.533 248.841 194.102 248.615 194.59 248.823L214.826 257.465C215.313 257.672 215.539 258.241 215.331 258.729C215.178 259.099 214.817 259.316 214.446 259.316Z" fill="#4F2B2B"/>
<path d="M218.501 268.545C218.375 268.545 218.248 268.518 218.122 268.463L191.493 257.122C191.005 256.914 190.78 256.346 190.987 255.858C191.195 255.37 191.755 255.136 192.252 255.352L218.88 266.694C219.368 266.901 219.594 267.47 219.386 267.958C219.233 268.328 218.871 268.545 218.501 268.545Z" fill="#4F2B2B"/>
<path d="M222.175 277.25C222.049 277.25 221.922 277.223 221.796 277.169L200.323 268.04C199.835 267.832 199.61 267.263 199.817 266.775C200.025 266.288 200.594 266.053 201.082 266.27L222.554 275.399C223.042 275.607 223.268 276.175 223.06 276.663C222.907 277.024 222.545 277.25 222.175 277.25Z" fill="#4F2B2B"/>
<path d="M197.868 266.92C197.742 266.92 197.615 266.893 197.489 266.839L189.263 263.344C188.775 263.137 188.549 262.568 188.757 262.08C188.965 261.592 189.533 261.358 190.021 261.574L198.247 265.069C198.735 265.277 198.961 265.845 198.753 266.333C198.599 266.694 198.238 266.92 197.868 266.92Z" fill="#0151A1"/>
<path d="M219.332 282.865C219.206 282.865 219.079 282.838 218.953 282.793L187.132 269.294C186.644 269.086 186.41 268.517 186.617 268.03C186.825 267.542 187.394 267.316 187.881 267.515L219.702 281.014C220.19 281.222 220.425 281.791 220.217 282.279C220.064 282.649 219.702 282.865 219.332 282.865Z" fill="#4F2B2B"/>
<path d="M216.605 288.23C216.478 288.23 216.352 288.203 216.225 288.158L185.1 274.975C184.612 274.767 184.377 274.198 184.585 273.71C184.793 273.223 185.362 272.997 185.849 273.196L216.975 286.379C217.463 286.587 217.697 287.156 217.49 287.643C217.336 288.014 216.975 288.23 216.605 288.23Z" fill="#4F2B2B"/>
<path d="M249.5 190.174C249.373 190.174 249.247 190.147 249.12 190.093L230.862 182.246C230.375 182.038 230.149 181.469 230.356 180.982C230.564 180.494 231.133 180.268 231.621 180.476L249.879 188.323C250.366 188.531 250.592 189.1 250.385 189.587C250.231 189.948 249.87 190.174 249.5 190.174Z" fill="#4F2B2B"/>
<path d="M257.203 202.183C257.077 202.183 256.95 202.156 256.824 202.102L249.835 199.104C249.347 198.896 249.121 198.328 249.329 197.84C249.537 197.352 250.097 197.127 250.593 197.334L257.582 200.332C258.07 200.54 258.296 201.109 258.088 201.596C257.935 201.958 257.573 202.183 257.203 202.183Z" fill="#4F2B2B"/>
<path d="M245.148 197.01C245.021 197.01 244.895 196.983 244.768 196.929L228.154 189.804C227.666 189.597 227.44 189.028 227.648 188.54C227.856 188.053 228.425 187.827 228.912 188.034L245.527 195.159C246.015 195.367 246.24 195.936 246.033 196.423C245.879 196.784 245.518 197.01 245.148 197.01Z" fill="#4F2B2B"/>
<path d="M260.86 212.007C260.733 212.007 260.607 211.98 260.48 211.926L240.2 203.249C239.712 203.041 239.486 202.472 239.694 201.984C239.902 201.497 240.47 201.262 240.958 201.479L261.239 210.156C261.727 210.364 261.952 210.933 261.745 211.421C261.591 211.782 261.23 212.007 260.86 212.007Z" fill="#4F2B2B"/>
<path d="M235.776 201.271C235.65 201.271 235.523 201.244 235.397 201.19L225.581 196.991C225.094 196.783 224.868 196.214 225.076 195.727C225.283 195.239 225.852 195.013 226.34 195.221L236.155 199.42C236.643 199.628 236.869 200.196 236.661 200.684C236.507 201.045 236.146 201.271 235.776 201.271Z" fill="#4F2B2B"/>
<path d="M243.749 212.56C243.622 212.56 243.496 212.533 243.369 212.479L223.134 203.837C222.646 203.629 222.42 203.06 222.628 202.573C222.836 202.085 223.405 201.859 223.892 202.067L244.128 210.709C244.616 210.916 244.841 211.485 244.634 211.973C244.48 212.334 244.119 212.56 243.749 212.56Z" fill="#4F2B2B"/>
<path d="M247.795 221.788C247.668 221.788 247.542 221.76 247.415 221.706L220.786 210.356C220.299 210.148 220.073 209.579 220.281 209.092C220.488 208.604 221.057 208.378 221.545 208.586L248.174 219.936C248.661 220.144 248.887 220.713 248.68 221.201C248.526 221.571 248.165 221.788 247.795 221.788Z" fill="#4F2B2B"/>
<path d="M251.469 230.502C251.342 230.502 251.216 230.475 251.089 230.421L229.617 221.292C229.129 221.084 228.903 220.515 229.111 220.027C229.319 219.54 229.878 219.305 230.375 219.522L251.848 228.651C252.336 228.858 252.561 229.427 252.354 229.915C252.2 230.285 251.839 230.502 251.469 230.502Z" fill="#4F2B2B"/>
<path d="M227.16 220.162C227.034 220.162 226.908 220.135 226.781 220.081L218.555 216.587C218.067 216.379 217.842 215.81 218.049 215.322C218.257 214.835 218.826 214.609 219.314 214.817L227.54 218.311C228.027 218.519 228.253 219.088 228.045 219.575C227.892 219.937 227.531 220.162 227.16 220.162Z" fill="#4F2B2B"/>
<path d="M248.626 236.109C248.499 236.109 248.373 236.082 248.246 236.037L216.425 222.537C215.938 222.329 215.703 221.761 215.911 221.273C216.118 220.785 216.687 220.56 217.175 220.758L248.996 234.258C249.484 234.465 249.718 235.034 249.511 235.522C249.357 235.892 248.996 236.109 248.626 236.109Z" fill="#4F2B2B"/>
<path d="M245.898 241.48C245.772 241.48 245.645 241.453 245.519 241.407L214.393 228.224C213.906 228.016 213.671 227.447 213.879 226.96C214.086 226.472 214.655 226.246 215.143 226.445L246.268 239.629C246.756 239.836 246.991 240.405 246.783 240.893C246.63 241.263 246.268 241.48 245.898 241.48Z" fill="#4F2B2B"/>
<path d="M291.462 190.498L326.516 268.786L257.221 354.768L231.812 304.589L291.462 190.498Z" fill="#FBE4C6"/>
<path d="M213.654 377.48L243.118 362.472C243.118 362.472 238.757 336.006 245.845 324.547C249.331 318.913 252.672 313.179 256.058 307.481C258.839 302.794 261.367 296.392 267.435 295.39C270.514 294.884 273.684 295.995 273.684 302.722C273.684 315.815 264.13 328.918 276.962 336.006C282.515 339.528 288.908 337.117 293.658 332.566C301.116 325.423 312.548 311.057 312.548 311.057C312.548 311.057 310.805 336.006 308.62 348.828C306.435 361.651 288.43 390.573 259.507 392.207L230.314 410.213L213.672 377.471L213.654 377.48Z" fill="#FFBE97"/>
<path d="M162.534 319.454L143.978 249.609C143.978 249.609 115.056 251.243 101.412 268.165C88.1561 284.599 2.81099 395.356 9.35759 473.5C9.72781 477.87 59.7943 468.856 63.8577 470.5C78.9103 476.577 117.822 477.221 166.357 467L162.525 319.463L162.534 319.454Z" fill="#2B6577"/>
<path d="M165.608 300.999L176.179 276.888L147.807 246.331L131.807 269.854C136.276 287.309 150.465 291.211 165.608 300.999Z" fill="#4F2B2B"/>
<path d="M131.806 269.855L119.977 287.255L161.451 315.627L165.607 300.999C150.464 291.202 136.276 287.31 131.806 269.855Z" fill="#FFBE97"/>
<path d="M267.605 309.513C267.424 309.513 267.235 309.459 267.072 309.351C265.221 308.122 262.891 307.599 260.697 307.906C260.174 307.987 259.686 307.617 259.614 307.084C259.541 306.56 259.903 306.073 260.435 306C263.09 305.621 265.907 306.262 268.147 307.743C268.589 308.032 268.716 308.637 268.418 309.08C268.228 309.36 267.93 309.513 267.614 309.513H267.605Z" fill="#4F2B2B"/>
<path d="M115.065 280.526L126.343 275.794C126.343 275.794 128.529 293.619 163.447 312.175V324.546C163.447 324.546 106.695 297.989 115.065 280.526Z" fill="#8FC6D7"/>
<path d="M224.686 362.102L241.698 352.503C241.698 352.503 277.628 357.253 272.535 391.259L254.376 408.425L224.686 362.102Z" fill="#8FC6D7"/>
<path d="M110.152 321.087C110.152 321.087 127.616 300.897 157.08 309.628C186.544 318.36 167.627 352.204 219.467 351.111C271.307 350.019 273.311 394.039 256.57 410.771C232.172 435.17 155.075 462.421 117.782 374.02L110.143 321.087H110.152Z" fill="#2B6577"/>
<path d="M160.168 422.638C160.042 422.638 159.915 422.611 159.789 422.557C159.437 422.403 124.32 407.016 114.487 369.164C114.351 368.649 114.658 368.125 115.173 367.99C115.688 367.845 116.211 368.161 116.347 368.676C125.927 405.59 160.195 420.633 160.539 420.778C161.026 420.986 161.252 421.554 161.044 422.042C160.891 422.412 160.529 422.629 160.159 422.629L160.168 422.638Z" fill="#4F2B2B"/>
<path d="M87.3984 292.383C87.0913 292.383 86.7934 292.238 86.6037 291.967C86.2967 291.534 86.4141 290.929 86.8475 290.631C92.2293 286.902 98.0535 283.822 104.167 281.466C104.663 281.276 105.223 281.52 105.413 282.016C105.602 282.513 105.359 283.073 104.862 283.263C98.8933 285.565 93.2045 288.572 87.9492 292.211C87.7776 292.328 87.588 292.383 87.3984 292.383Z" fill="#4F2B2B"/>
<path d="M171.61 220.885C183.99 222.213 194.672 227.766 201.797 235.559C202.727 236.57 203.585 237.617 204.398 238.701C204.398 238.701 204.404 238.713 204.416 238.737C206.294 241.247 207.802 243.929 208.894 246.756C209.021 247.081 209.156 247.406 209.247 247.74C209.409 248.128 209.536 248.516 209.662 248.914C209.662 248.941 209.671 248.977 209.689 249.013C209.77 249.239 209.843 249.465 209.897 249.708C211.007 253.492 211.396 257.438 210.962 261.483L213.554 265.032C214.601 266.468 213.942 268.508 212.244 269.05L208.922 270.107C203.106 285.674 186.491 296.636 166.183 294.46C142.318 291.905 122.38 272.147 124.52 252.246C126.66 232.362 147.745 218.312 171.61 220.876V220.885Z" fill="#FFBE97"/>
<path d="M172.981 266.865C172.954 268.888 175.979 270.567 179.735 270.612C183.492 270.658 186.562 269.068 186.589 267.046C186.616 265.023 183.591 263.343 179.835 263.298C176.078 263.253 173.008 264.842 172.981 266.865Z" fill="#FB8876"/>
<path d="M168.603 238.503L129.568 272.907C129.568 272.907 115.887 251.931 128.204 235.153C150.083 205.346 198.691 222.042 201.806 235.56L168.612 238.494L168.603 238.503Z" fill="#4F2B2B"/>
<path d="M188.649 253.736C188.287 253.736 187.944 253.537 187.782 253.194C187.547 252.716 187.746 252.138 188.224 251.903C192.938 249.609 198.509 249.185 203.521 250.729C204.026 250.883 204.315 251.424 204.153 251.93C203.999 252.436 203.458 252.725 202.952 252.562C198.41 251.154 193.353 251.542 189.073 253.628C188.938 253.691 188.793 253.727 188.649 253.727V253.736Z" fill="#4F2B2B"/>
<path d="M85.4022 278.749C83.9755 284.249 80.3816 289.079 76.3995 293.314C76.6614 292.195 76.6794 291.03 76.4446 289.928C75.0992 292.998 73.9615 296.15 73.0494 299.355C72.7786 300.303 71.5776 300.529 70.9907 299.735C70.2231 298.696 69.3924 297.694 68.6248 296.655C66.4396 293.703 64.742 290.326 64.137 286.659C63.532 282.993 64.0738 279.011 66.0875 275.697C67.1349 273.973 68.5526 272.465 70.0335 271.065C72.309 268.907 79.894 261.918 82.8107 264.871C86.1607 268.266 86.5941 274.198 85.4203 278.749H85.4022Z" fill="#4F2B2B"/>
<path d="M132.951 263.479C132.536 269.068 136.735 273.926 142.324 274.332C147.914 274.748 152.772 270.549 153.178 264.96C153.584 259.37 149.394 254.512 143.805 254.106C138.216 253.69 133.358 257.889 132.951 263.479Z" fill="#FFBE97"/>
<path d="M139.993 265.936L145.853 266.37C146.801 266.442 147.614 265.729 147.686 264.79C147.759 263.841 147.045 263.029 146.106 262.957L140.246 262.523C139.298 262.451 138.485 263.164 138.413 264.103C138.341 265.051 139.054 265.864 139.993 265.936Z" fill="#4F2B2B"/>
<path d="M154.579 248.895L155.88 267.623L146.127 254.268L154.579 248.895Z" fill="#4F2B2B"/>
<path d="M151.373 235.939C151.409 236.887 153.973 255.082 153.973 255.082L173.198 252.554L174.236 245.827L176.358 251.543L201.614 248.319L199.474 241.366L204.495 248.048C204.495 248.048 213.859 247.118 212.92 246.694C211.981 246.269 199.014 211.577 166.488 218.602L151.382 235.948L151.373 235.939Z" fill="#4F2B2B"/>
<path d="M126.661 239.132C135.416 237.792 141.427 229.608 140.088 220.853C138.748 212.098 130.564 206.087 121.809 207.427C113.054 208.766 107.043 216.95 108.383 225.705C109.722 234.46 117.906 240.471 126.661 239.132Z" fill="#4F2B2B"/>
<path d="M100.313 248.562C108.857 247.862 115.216 240.369 114.517 231.825C113.818 223.281 106.324 216.922 97.78 217.621C89.2359 218.32 82.8766 225.814 83.576 234.358C84.2755 242.902 91.7689 249.261 100.313 248.562Z" fill="#4F2B2B"/>
<path d="M96.6552 262.873C100.702 256.252 98.6143 247.604 91.993 243.558C85.3717 239.511 76.7239 241.599 72.6775 248.22C68.6311 254.841 70.7184 263.489 77.3397 267.535C83.961 271.582 92.6088 269.494 96.6552 262.873Z" fill="#4F2B2B"/>
<path d="M66.476 289.692C66.0245 289.692 65.6181 289.367 65.5278 288.907C64.7513 284.771 65.3021 280.392 67.081 276.572C67.3067 276.093 67.8756 275.886 68.3632 276.112C68.8418 276.337 69.0495 276.906 68.8237 277.394C67.2074 280.843 66.7107 284.807 67.4151 288.555C67.5144 289.078 67.1713 289.584 66.6475 289.683C66.5843 289.692 66.5301 289.701 66.4669 289.701L66.476 289.692Z" fill="#1E0A15"/>
<path d="M197.49 280.862C197.426 280.862 197.363 280.862 197.3 280.844C193.191 280.023 189.435 277.81 186.717 274.614C186.374 274.207 186.419 273.602 186.825 273.259C187.232 272.916 187.837 272.97 188.18 273.368C190.609 276.239 193.986 278.217 197.67 278.957C198.194 279.065 198.528 279.571 198.429 280.086C198.338 280.546 197.932 280.862 197.49 280.862Z" fill="#4F2B2B"/>
<path d="M199.005 264.969C198.084 264.969 197.335 264.219 197.335 263.298V260.589C197.335 259.668 198.084 258.919 199.005 258.919C199.926 258.919 200.676 259.668 200.676 260.589V263.298C200.676 264.219 199.926 264.969 199.005 264.969Z" fill="#4F2B2B"/>
<path d="M231.81 305.549C231.656 305.549 231.503 305.513 231.358 305.441C230.889 305.197 230.708 304.61 230.952 304.141L289.492 192.885C289.736 192.415 290.323 192.235 290.792 192.478C291.262 192.722 291.442 193.309 291.199 193.779L232.658 305.035C232.487 305.36 232.153 305.549 231.81 305.549Z" fill="#4F2B2B"/>
<path d="M326.515 269.745C326.145 269.745 325.793 269.537 325.64 269.176L290.748 191.249L190.5 152.845C190.003 152.655 189.75 152.096 189.949 151.599C190.138 151.102 190.698 150.859 191.195 151.048L291.823 189.596C292.058 189.687 292.256 189.867 292.356 190.102L327.409 268.39C327.626 268.878 327.409 269.447 326.922 269.663C326.795 269.718 326.66 269.745 326.533 269.745H326.515Z" fill="#4F2B2B"/>
<path d="M329.983 266.576C329.612 266.576 329.251 266.359 329.098 265.998L295.362 187.836L201.615 152.701C201.118 152.511 200.866 151.96 201.055 151.464C201.245 150.967 201.805 150.714 202.292 150.904L296.419 186.183C296.663 186.274 296.861 186.463 296.961 186.707L330.859 265.248C331.066 265.736 330.84 266.305 330.353 266.512C330.226 266.567 330.1 266.594 329.974 266.594L329.983 266.576Z" fill="#4F2B2B"/>
<path d="M290.72 216.763L256.615 275.791L266.584 299.133L303.308 246.498L290.72 216.763Z" fill="#BF8888"/>
<path d="M314.849 279.636C314.479 279.636 314.127 279.419 313.964 279.058L302.948 253.874C302.731 253.386 302.948 252.818 303.445 252.61C303.932 252.393 304.501 252.619 304.709 253.106L315.725 278.291C315.942 278.778 315.725 279.347 315.229 279.555C315.102 279.609 314.976 279.636 314.84 279.636H314.849Z" fill="#4F2B2B"/>
<path d="M310.398 285.93C310.027 285.93 309.675 285.714 309.513 285.353L298.496 260.168C298.28 259.681 298.496 259.112 298.993 258.904C299.481 258.688 300.05 258.913 300.257 259.401L311.274 284.585C311.49 285.073 311.274 285.641 310.777 285.849C310.651 285.903 310.524 285.93 310.389 285.93H310.398Z" fill="#4F2B2B"/>
<path d="M305.937 292.225C305.567 292.225 305.215 292.008 305.052 291.647L294.036 266.463C293.819 265.975 294.036 265.406 294.533 265.199C295.02 264.982 295.589 265.208 295.797 265.695L306.813 290.879C307.03 291.367 306.813 291.936 306.316 292.144C306.19 292.198 306.064 292.225 305.928 292.225H305.937Z" fill="#4F2B2B"/>
<path d="M301.476 298.519C301.106 298.519 300.754 298.302 300.591 297.941L289.575 272.757C289.358 272.269 289.575 271.7 290.072 271.492C290.559 271.276 291.128 271.501 291.336 271.989L302.352 297.173C302.569 297.661 302.352 298.23 301.856 298.437C301.729 298.491 301.603 298.519 301.467 298.519H301.476Z" fill="#4F2B2B"/>
<path d="M297.016 304.821C296.646 304.821 296.293 304.604 296.131 304.243L285.115 279.059C284.898 278.571 285.115 278.002 285.611 277.795C286.099 277.578 286.668 277.804 286.875 278.291L297.892 303.475C298.108 303.963 297.892 304.532 297.395 304.74C297.269 304.794 297.142 304.821 297.007 304.821H297.016Z" fill="#4F2B2B"/>
<path d="M292.554 311.115C292.184 311.115 291.832 310.899 291.67 310.537L280.653 285.353C280.436 284.866 280.653 284.297 281.15 284.089C281.637 283.872 282.206 284.098 282.414 284.586L293.43 309.77C293.647 310.257 293.43 310.826 292.934 311.034C292.807 311.088 292.681 311.115 292.545 311.115H292.554Z" fill="#4F2B2B"/>
<path d="M288.092 317.408C287.722 317.408 287.37 317.191 287.207 316.83L276.191 291.646C275.974 291.158 276.191 290.589 276.687 290.382C277.175 290.165 277.744 290.391 277.952 290.878L288.968 316.063C289.185 316.55 288.968 317.119 288.471 317.327C288.345 317.381 288.218 317.408 288.083 317.408H288.092Z" fill="#4F2B2B"/>
<path d="M283.635 323.702C283.264 323.702 282.912 323.486 282.75 323.125L271.733 297.94C271.517 297.453 271.733 296.884 272.23 296.676C272.717 296.46 273.286 296.685 273.494 297.173L284.51 322.357C284.727 322.845 284.51 323.413 284.014 323.621C283.887 323.675 283.761 323.702 283.626 323.702H283.635Z" fill="#4F2B2B"/>
<path d="M227.061 183.885L195.936 170.945L184.739 221.665L210.97 232.158L227.061 183.885Z" fill="#BF8888"/>
</g>
<defs>
<clipPath id="clip0_760_15659">
<rect width="460" height="460" fill="white"/>
</clipPath>
</defs>
</svg>
