<?xml version="1.0" encoding="utf-8"?>
<!-- Generator: Adobe Illustrator 27.7.0, SVG Export Plug-In . SVG Version: 6.00 Build 0)  -->
<svg version="1.1" id="Layer_1" xmlns:v="https://vecta.io/nano"
	 xmlns="http://www.w3.org/2000/svg" xmlns:xlink="http://www.w3.org/1999/xlink" x="0px" y="0px" viewBox="0 0 460 460"
	 style="enable-background:new 0 0 460 460;" xml:space="preserve">
<style type="text/css">
	.st0{clip-path:url(#SVGID_00000147216287976433322080000014319184382366416802_);fill:#FFFFFF;}
	.st1{clip-path:url(#SVGID_00000147216287976433322080000014319184382366416802_);fill:#EE81B0;}
	.st2{clip-path:url(#SVGID_00000147216287976433322080000014319184382366416802_);fill:#F8D2A0;}
	.st3{clip-path:url(#SVGID_00000147216287976433322080000014319184382366416802_);fill:#4F2B2B;}
	.st4{clip-path:url(#SVGID_00000147216287976433322080000014319184382366416802_);fill:#FFF4E9;}
	.st5{clip-path:url(#SVGID_00000147216287976433322080000014319184382366416802_);}
	.st6{clip-path:url(#SVGID_00000137837298576722266210000016500346708073863595_);}
	.st7{clip-path:url(#SVGID_00000116956468088411863220000005396188309150579098_);}
	.st8{clip-path:url(#SVGID_00000083770162827004641980000011787537892223097228_);}
	.st9{clip-path:url(#SVGID_00000147216287976433322080000014319184382366416802_);fill:#F2AE54;}
	.st10{clip-path:url(#SVGID_00000147216287976433322080000014319184382366416802_);fill:#FFBE97;}
	.st11{clip-path:url(#SVGID_00000147216287976433322080000014319184382366416802_);fill:#B4185C;}
	.st12{clip-path:url(#SVGID_00000147216287976433322080000014319184382366416802_);fill:#562A2F;}
	.st13{clip-path:url(#SVGID_00000147216287976433322080000014319184382366416802_);fill:#9DE8FB;}
	.st14{clip-path:url(#SVGID_00000147216287976433322080000014319184382366416802_);fill:#BF8888;}
	.st15{clip-path:url(#SVGID_00000147216287976433322080000014319184382366416802_);fill:#FF9D6C;}
	.st16{clip-path:url(#SVGID_00000147216287976433322080000014319184382366416802_);fill:#2B6577;}
	.st17{clip-path:url(#SVGID_00000147216287976433322080000014319184382366416802_);fill:#DF8711;}
	.st18{clip-path:url(#SVGID_00000147216287976433322080000014319184382366416802_);fill:#F29EC3;}
</style>
<g>
	<g>
		<defs>
			<polyline id="SVGID_1_" points="0,0 460,0 460,460 0,460 0,0 			"/>
		</defs>
		<clipPath id="SVGID_00000064328178914021679450000005310471860823594407_">
			<use xlink:href="#SVGID_1_"  style="overflow:visible;"/>
		</clipPath>
		<polyline style="clip-path:url(#SVGID_00000064328178914021679450000005310471860823594407_);fill:#FFFFFF;" points="0,0 460,0 
			460,460 0,460 0,0 		"/>
		<path style="clip-path:url(#SVGID_00000064328178914021679450000005310471860823594407_);fill:#EE81B0;" d="M-179.3,47.8
			c0.4,0.4,1.3,0.9,1.8,0.9l-1.5,33.5l-34,4.7c-0.2-0.5-0.4-1-0.8-1.3l34.5-38V47.8 M-83.8,129.2c-1.1,0.6-1.7,1.6-1.9,2.9l-23,0.7
			l0.8-56c0.4,0,0.7,0,1-0.2C-106.8,76.7-84,129.2-83.8,129.2 M0.8,158.6c-0.1,0.5-0.1,1,0,1.6L-63.8,186l-17-50.3
			c0.7-0.4,1.6-1.1,1.8-2L0.8,158.6L0.8,158.6 M52.8,151.8c0.2,0.9,0.9,1.9,1.9,2.2l-20.5,55.2c-0.8-0.2-1.6-0.2-2.4,0.2l-25.6-47
			c1.1-0.7,1.7-2,1.6-3.2L52.8,151.8 M133.8,141.8c0.1,0.3,0.2,0.7,0.4,1l-58,40l-17.6-29c0.8-0.5,1.7-2,1.6-3l73.8-9H133.8
			 M147.4,193.8c-0.8,1.3-0.8,3,0,4l-5,4L138,145l11.3,47.2C148.5,192.5,147.8,193,147.4,193.8 M369.4,211.5c0,0.8,0.3,1.6,0.7,2.2
			l-59,54.5l-42.8-61c0.7-0.5,1.1-1.3,1.3-2.1l100,6.6L369.4,211.5 M385.9,167.5c1.2,0.3,2.4,0,3.3-0.8l32,30l-45,13.6
			c-0.4-0.8-1-1.6-1.9-1.9C374.3,208.1,386,167.7,385.9,167.5 M510.7,169c0,0.2,0,0.3,0.1,0.5L422,196.2L389.6,166h0.1
			c0.4-0.5,0.5-1,0.6-1.7C390.4,164.3,510.6,169,510.7,169 M482.7,248.6c-1.2-0.3-2.5-0.1-3.4,0.8l-56.5-52.5L511,170
			c0.4,0.8,0.9,1.5,1.7,1.8C512.7,172,482.6,248.4,482.7,248.6 M377.7,322.3c-1-0.7-2.4-0.7-3.4-0.2l30.6-31.8l-27,32H377.7
			 M398.1,371.6c-0.7,0.4-1.1,1-1.4,1.7l-31-8.3l9.4-36.3c0.7,0.1,1.3,0.1,2-0.2C377.1,328.6,398.2,371.5,398.1,371.6 M364.1,460.6
			L350.3,404l3.2-2.2c0.6,0.8,1.9,1.3,2.8,1.3l7.6,57.4L364.1,460.6 M278.1,511.3c-0.6,0.1-1.2,0.4-1.6,0.8l-80.7-79.5l71.8,24.4
			c-0.9,3.1,3.2,5.9,5.7,3.6l5,50.7H278.1 M185.6,364.3c0.5-0.1,1-0.3,1.3-0.6L228,410l-33.3,21.3L185.6,364.3L185.6,364.3
			 M131.3,341.3c0.2-0.7,0.1-1.5-0.1-2l38.4-18.3l13.7,36.8c-0.8,0.4-1.3,1-1.7,1.8l-50.3-18V341.3 M-20.7,333.7
			c0-0.4-0.1-0.8-0.3-1.2l66-36.6l78.4,42l-144-4.3L-20.7,333.7 M-54.7,214c0.4-0.1,0.8-0.3,1-0.6L6.8,274c-1.2,1.6-1,4,0.8,5.3
			l-30.2,51.2c-0.7-0.3-1.4-0.4-2-0.3l-30-116.4L-54.7,214 M-109.3,221.3c-0.2-1.1-1.4-2.1-2.5-2.5l1.6-10.4
			c1.7,0.2,3.5-1.1,3.7-2.9l47,5c0,0.2,0,0.3,0,0.4L-109.3,221.3L-109.3,221.3 M-222.5,145c0.8-0.6,1-1.8,1-2.6l26.2-4.2l29,68.7
			c-0.2,0.1-0.3,0.2-0.4,0.3C-166.9,207-222.3,145.2-222.5,145 M-215,91.6l19.3,46l-26,4.2c-0.2-1.2-1.4-2.1-2.5-2.5l7.7-47.2
			c0.5,0,1-0.1,1.5-0.3V91.6 M-181.2,131.9c-0.6,0-1.2,0.2-1.7,0.5l-30.8-41.7c0.7-0.8,1-1.9,0.9-2.9L-179,83
			C-179,83.1-181.2,131.8-181.2,131.9 M-111.4,73.7c0,0.5,0.2,1,0.4,1.3l-67.5,58c-0.6-0.6-1.3-0.8-2-1l2.2-49l67-9.3H-111.4
			 M-109.4,133l-68,2c-0.1-0.6-0.3-1.2-0.6-1.6l67.4-57.8c0.3,0.6,1.7,1.3,2.3,1.3l-0.8,56L-109.4,133 M-84.2,135.6
			c0.1,0.1,0.3,0.2,0.4,0.2l-25.3,65.7c-0.2-0.1-0.4-0.1-0.6-0.1l1-67.8l23-0.7C-85.6,133.9-85,134.9-84.2,135.6L-84.2,135.6
			 M-64.4,186.6l-42.4,17c-0.4-0.6-0.9-1.3-1.6-1.6c3.8-9.8,21.9-56.9,25.2-65.7c0.6,0.2,1.3,0.2,1.8,0l17,50.4V186.6 M1.3,161.6
			L-53.5,208c-0.9-0.9-2.4-1.2-3.3-0.9l-6.8-20.4L1,160.8C1.1,161,1.3,161.4,1.3,161.6 M31.3,210.1c-0.9,0.6-1.4,1.5-1.6,2.6
			L7,211.8L4.6,163c0.3,0,0.7-0.1,1-0.2C5.6,163.2,31.6,209.7,31.3,210.1 M104,230c-0.3,0.2-0.6,0.5-1,1c0,0.1-0.1,0.2-0.1,0.2
			l-66.2-17.7c0.1-0.8,0-1.7-0.4-2.4L76,183.7L104,230 M108.7,230.3c-0.3-0.3-0.7-0.5-1-0.7l28.8-85.2c0.3,0.1,0.5,0.1,0.8,0.1
			l4.7,58l-33.2,28L108.7,230.3 M146.2,254.8c-1,0.2-1.8,0.7-2.4,1.5l-34.4-22c0.6-1.2,0.4-2.6-0.3-3.6l33-27.6l4.2,51.6
			L146.2,254.8 M148.4,198.8c0.4,0.3,1,0.5,1.4,0.6l-3,54.3l-4-50.8l5.2-4.4c0.2,0.2,0.3,0.3,0.5,0.4L148.4,198.8 M255.4,257.3
			l-105,1c0-1.5-1.4-3.4-3.1-3.6l3.2-55.5c1,0,2.2-0.6,2.8-1.6l102.6,58C255.6,256.1,255.5,256.6,255.4,257.3L255.4,257.3 M266,208
			l12,87c-0.1,0-0.2,0.1-0.3,0.1L261,260.4c2.6-1.7,1.7-6-1.2-6.5l5.8-46h0.3L266,208 M281,296c-0.7-0.6-1.7-0.9-2.4-0.9l-12-87
			c0.3-0.1,0.7-0.2,1-0.4l43,61.2C310.4,269,281.3,296,281,296 M328.4,294.6c-0.7,0.7-1.3,1.4-1.3,2.6l-45,1
			c-0.1-0.6-0.3-1.2-0.7-1.8l29.4-27L328.4,294.6L328.4,294.6 M370.8,214.6c0.1,0,0.1,0.1,0.2,0.1l-39,79.2c-1-0.4-2-0.3-3,0.2
			l-17.7-25.3l59-54.6C370.4,214.3,370.7,214.5,370.8,214.6 M478.5,250l-0.2,0.4l-102-38c0.1-0.5,0.1-1,0-1.6L422,197l56.8,52.8
			l-0.1,0.2H478.5 M422,236.2c-1.6-1-3.8-0.7-5,1l-40.5-24l101,37.8l-54-11.2c0.1-1.3-0.4-2.6-1.6-3.4L422,236.2 M410.3,279
			L397,254.5l20-13c0.4,0.6,1.1,1.1,1.8,1.3l-6.7,36C411.5,278.7,410.8,278.8,410.3,279L410.3,279 M334.3,296.2l-0.3-0.7l62.4-40.6
			l13.3,24.4c-1.1,0.7-1.8,2.2-1.6,3.4L334.3,296V296.2 M341,355.4c-0.5-0.6-1.5-0.8-2.2-0.8l-7-54c1.8-0.3,2.9-2.1,2.8-3.8l74-13.5
			c0.2,0.5,0.4,1,0.8,1.4l-68,70.7H341 M372.6,327.4l-27.2,24.5l26.8-28C371.7,324.9,371.9,326.5,372.6,327.4 M342.3,358.9
			c0.2-1-0.1-2-0.7-2.8l31.4-28.3c0.4,0.3,0.7,0.7,1.3,0.9l-9.4,36.3L342.3,358.9L342.3,358.9 M356.8,396.2c-0.6-0.1-1-0.1-1.7,0.1
			l-14.7-35c0.7-0.4,1.4-1.1,1.7-1.9l22.6,6l-8,30.6L356.8,396.2 M396.6,376.2l-37.4,21.5c-0.4-0.6-1.1-1.2-1.8-1.4l8-30.6l31,8.3
			c-0.1,0.7,0,1.4,0.3,2L396.6,376.2 M273.8,455.6l-0.4-0.4V455l63.7-93.5c0.7,0.4,1.5,0.5,2.3,0.4l10.2,42l-75.7,51.7H273.8
			 M268.4,455.4c-0.2,0.2-0.5,0.7-0.7,1l-72.5-24.6l33.3-21.2l40,45L268.4,455.4 M187.4,363.1l56,37l-14.8,9.5L187.4,363.1l0.2-0.1
			L187.4,363.1 M170,320.4l58-27.6c0.2,0.4,0.5,0.7,0.8,1l-42.4,63.8c-0.8-0.4-1.8-0.5-2.7-0.3L170,320.4L170,320.4 M129.7,337.2
			c-0.3-0.2-0.6-0.3-1-0.4l17.4-75c0.4,0.1,1,0.1,1.3,0l21.7,58.2l-38.4,18.3c-0.3-0.4-0.6-1-1-1.2V337.2 M79,276.8
			c1,1.6,3.3,2.1,4.8,1.1l41.5,59.6c-0.2,0.1-0.3,0.3-0.5,0.5l-79.3-42.6L79,276.8 M12.7,277.8c0.2-0.4,0.3-0.8,0.3-1l65.4-1.5
			c0,0.4,0.1,0.7,0.3,1L45,295C44.7,295,13,277.5,12.7,277.8 M-53,212.5c0.3-0.5,0.5-1,0.6-1.6l58.6,1.5L9,272.8
			c-0.7,0.1-1.3,0.4-1.8,0.8l-60.4-60.8L-53,212.5 M31.3,215.8c0.1,0.1,0.3,0.2,0.4,0.2l-21.3,57c-0.3-0.1-0.5-0.1-0.8-0.1L7,212.4
			l22.8,0.6C29.9,214,30.4,215,31.3,215.8L31.3,215.8 M143.3,259.1l-30.7,7.7l-6.4-30.3c1,0,2.2-0.5,3-1.5l34.4,22
			c-0.3,0.7-0.3,1.4-0.2,2L143.3,259.1 M256.8,260.1l-23.6,28h-0.1c-1.7-1-4-0.6-5,1v0.4c-2.2-0.8-78.3-30-77.7-29.8
			c0.1-0.2,0.2-0.5,0.2-0.7l105.2-1c0.1,0.8,0.5,1.6,1.2,2.2L256.8,260.1 M259.2,261.1l1.7,34l-26.2-4c0.1-1-0.3-2-1-2.7l23.7-28
			c0.6,0.3,1.3,0.5,2,0.5L259.2,261.1 M327.8,299.1l-27.6,20.4l-18.7-18.6c0.4-0.6,0.8-1.2,0.8-2l45-1c0.1,0.5,0.2,1,0.5,1.4V299.1
			 M336.5,355.5l-35.8-35.6l27.5-20.3c0.6,0.7,1.8,1.2,2.7,1.2l7,54c-0.6,0.1-1,0.4-1.5,0.8L336.5,355.5 M272.7,454.7
			c-0.5-0.3-1-0.4-1.6-0.4l-4-61.3l68.6-33c0.2,0.4,0.5,0.7,0.8,1L272.7,454.7 M245,405c1,0.6,2,0.8,3,0.4c4,9,17.2,39.5,21.3,49.1
			l-0.4,0.2l-40-44.8l14.7-9.4C242.9,402.2,243.6,404,245,405 M188.3,360.3l51-9.2l6.8,47.4c-0.7,0.2-1.4,0.6-2,1.2L188,362.5
			C188.3,361.9,188.6,361,188.3,360.3 M229.3,294c0.6,0.3,1.2,0.5,2,0.4l8,56l-51,9.3c-0.2-0.7-0.6-1.4-1.2-1.8l42.4-63.8L229.3,294
			 M150,260.3L150,260.3c18.8,7.1,59.2,22.6,77.7,29.7c-0.2,0.7-0.2,1.5,0.1,2.2l-58,27.6l-21.7-58
			C148.9,261.5,149.3,260.8,150,260.3 M263.3,343c-0.3,0-0.6,0.1-1,0.2L233.2,294c0.5-0.3,1.3-1.3,1.5-2l26.3,4l2.3,47.4V343
			 M276.7,301.3c0.1,0.1,0.3,0.2,0.5,0.3L265,343.3c-0.3-0.1-0.6-0.2-1-0.2l-2.3-47.2l13.5,2c-0.2,1.4,0.3,2.8,1.6,3.6L276.7,301.3
			 M266.5,344.3c-0.2-0.2-0.5-0.5-0.9-0.7l12.2-41.6c1,0.3,2.3,0,3.2-0.7l18.7,18.6L266.5,344.3L266.5,344.3 M335.8,356.3
			c-0.2,0.4-0.4,0.7-0.5,1l-68-10.4c0-0.7-0.1-1.4-0.5-2l33.3-24.6l36,35.6C336,356,335.9,356.2,335.8,356.3 M264.4,350.3
			c1.5-0.1,2.5-1.4,2.9-2.6l68,10.4c0,0.5,0.1,1,0.2,1.5L267,392l-2.7-42L264.4,350.3 M250.2,400.3c-0.4-0.6-0.9-1-1.6-1.3
			c3.3-10.8,11.4-37.5,14.8-48.6c0.2,0,0.4,0.1,0.6,0.1l2.7,42.2l-16.3,7.8L250.2,400.3 M260.4,347.5c0.2,1.2,1,2.1,2.1,2.5
			l-14.7,48.6c-0.3-0.1-0.6-0.1-1-0.1L240,351l20.2-3.7L260.4,347.5 M232.7,294.3l29,49.5c-0.8,0.6-1.7,1.9-1.6,3l-20.2,3.7l-8-56
			C232.2,294.5,232.4,294.3,232.7,294.3 M270,454.4c-5-11.6-16.2-37.8-21-49.2c1.5-0.8,2.4-2.9,1.7-4.4l16-7.7l4,61
			c-0.2,0-0.4,0.1-0.5,0.1L270,454.4 M113,267.4l30.8-7.7c0.4,0.9,1.1,1.7,2.1,2c-4.3,17.9-13.7,57.5-17.7,75.1c-0.3,0-0.6-0.1-1,0
			l-14.6-69.3L113,267.4 M126.2,337.1l-41.5-59.7c0.9-0.8,1.4-2.1,1.1-3.3l26.4-6.6l14.6,69.3C126.6,336.9,126.3,337,126.2,337.1
			L126.2,337.1 M13.2,275.1l50.6-23.6L79.7,272c-0.7,0.6-1.1,1.4-1.2,2.4L13,276c0-0.3-0.1-0.5-0.2-0.8L13.2,275.1 M84.4,271.7
			c-0.3,0.6,19-35.7,19.4-36.5c0.4,0.5,1.4,1,2,1.1L112,267l-26.5,6.6c-0.2-0.7-0.7-1.3-1.4-1.8L84.4,271.7 M102.9,233.3
			c0.1,0.5,0.2,1,0.5,1.3c-0.9,1.7-19.4,36.1-19.7,36.8c-1-0.5-2.3-0.4-3.3,0.3l-16-20.4L102.9,233.3L102.9,233.3 M35.9,215.3
			c0.4-0.4,0.7-0.8,0.9-1.3l66,17.7c-0.1,0.3-0.2,0.6-0.2,1l-39,18l-28-35.4H35.9 M11.7,273.3l-0.4-0.2l21.3-57c1,0.3,2,0.1,3-0.4
			L63,251l-50.4,23.5C12.3,274,12,273.5,11.7,273.3L11.7,273.3 M374.7,214.6l21.6,39.5l-62.4,40.6c-0.2-0.3-0.5-0.6-0.8-0.8
			c-0.4,0,39-79.2,38.9-79.3c1,0.3,2,0.3,2.8-0.1L374.7,214.6 M416.7,237.6c-0.5,1-0.4,2.2,0.1,3.2l-20,13l-21.6-39.5
			c0.3-0.2,0.6-0.5,1-1l40.7,24.2L416.7,237.6 M260.7,260.6l16.4,34.6c-0.8,0.5-1.3,0.9-1.6,1.8l-13.7-2l-1.7-34.3
			C260.3,260.6,260.5,260.6,260.7,260.6L260.7,260.6 M1.7,161.6c0.6,0.6,1.4,1.1,2.3,1.2l2.3,48.8l-58.6-1.5c0-0.7-0.3-1.3-0.6-1.8
			L1.7,161.6L1.7,161.6 M-106.6,203.6l42.4-17l6.8,20.4c-0.9,0.5-1.9,1.4-2,2.6l-47-5C-106.4,204.2-106.4,203.9-106.6,203.6
			 M-112.6,218.6c-0.8,0-1.5,0.2-2.2,0.6l-10-12.7l11-1c0.2,1.4,1.2,2.4,2.5,2.8l-1.6,10.4L-112.6,218.6 M-161.2,209.6l35.6-3.2
			l10.3,13c-0.4,0.4-0.7,0.9-0.9,1.4l-45-10.8V209.6L-161.2,209.6 M-162.8,206.6c-0.7-0.5-1.6-0.7-2.4-0.6l-14.8-67.5
			c0.3-0.1,0.6-0.2,1-0.4l53,67.6l-35.2,3.2C-161.4,207.9-161.9,207.1-162.8,206.6 M-184.6,136c0.3,1.7,2.3,2.8,3.9,2.6l14.8,67.5
			l-29-68.5C-194.8,137.6-184.7,136-184.6,136 M-112.6,202c-16-15.6-50.3-49-66-64.3c0.5-0.6,0.8-1.4,0.8-2.1l68-2l-1,67.7
			c-0.7,0.1-1.5,0.3-2,0.8L-112.6,202 M-124.2,191.6l11,11v0.3c-0.4,0.6-0.6,1.3-0.6,2l-11.5,1l-52.4-66.7l53.6,52.5L-124.2,191.6
			 M-214.5,91h0.2l30.8,41.6c-0.8,0.7-1.3,1.9-1.2,2.9l-10.3,1.7C-195.1,136.9-214.4,91.2-214.5,91 M-21.3,331.7
			c-0.2-0.3-0.5-0.6-1-1l30.3-51c1.6,0.8,3.5,0.2,4.5-1.3l31.7,17l-65.5,36.4V331.7 M362.1,464.7c-0.3,0.4-0.4,1-0.5,1.3l-87-8.3
			c0-0.6-0.2-1.2-0.4-1.8l75.5-51.6l14.3,59c-0.7,0.3-1.4,0.7-1.8,1.4H362.1 M350.1,403.3L340,362l14.4,34.4
			c-1.7,0.9-2.5,3.3-1.4,4.9L350.1,403.3L350.1,403.3 M134.5,143.2c0.3,0.5,0.8,0.7,1.3,1L107,229.4c-0.8-0.2-1.7-0.1-2.4,0.3
			l-28.2-46.3l58-40.2H134.5 M58,154l17.7,29L36,210.5c-0.3-0.4-0.8-0.7-1.2-0.9l20.5-55.2C56.3,154.6,57.3,154.6,58,154 M-177,48.8
			c1.4,0,2.8-0.9,3.3-2.2c14.5,5.9,47.5,19.4,62.3,25.4c-0.1,0.3-0.2,0.7-0.2,1l-67,9.3L-177,48.8L-177,48.8 M-227.3,145.4
			c1.3,1,3,0.8,4-0.1l55.7,62c-0.1,0.1-0.2,0.3-0.4,0.4c-2.9,4.5,4.7,8.1,6.4,3.2l45,10.8c-0.7,5.2,7.8,5.4,7.2,0.1l49.8-10.3
			c0.4,1.7,2.4,2.8,4.1,2.6l30,116.4c-7,3.6,3,11.3,4.8,3.8l145.2,4.4c-2.2,4.2,4.6,7.5,6.5,3.2l50.3,18c-0.7,2.1,1.3,4.8,3.7,4.6
			l9,67l-1-0.3l1,1l0.1,0.4l0.2-0.1l81.6,80.4c-3,4,3.1,8.2,5.8,4.3c1.5-2.3-0.2-5.7-3-5.6c0-0.3-5-51.1-5-51.4
			c0.3-0.4,0.4-1,0.5-1.3l87,8.3c-0.2,3.5,4.9,4.8,6.6,2c1.5-2.3-0.2-5.7-3-5.6l-8-60c2.2-0.4,3.4-3,2.5-5l37.4-21.5
			c6.1,6.2,10-7.1,1.7-5.4l-21-43c1.9-1.2,2.1-4.1,0.5-5.6l31.7-37.3c4.6,2.9,8.1-5,3-6.4l6.8-36c1.7,0.2,3.3-0.9,3.7-2.6l54.6,11.4
			c0.4,8.2,11.9,1.8,5.2-2.8l30-76.6c3.7,1.3,6.3-4.5,3-6.5c-2.2-1.4-5.3-0.1-5.6,2.5L390,164.1c-1.8-7.4-11.5-0.2-5.1,3.7
			L373.7,208c-1.9-0.5-4,0.9-4.2,2.8l-100-6.6c-1.6-8.6-12.3,0.3-4.4,3.5l-5.8,46c-1.2,0-2.4,0.5-3,1.6l0.2-0.3l-102.6-58
			c1.2-2.5-1.1-5.5-3.8-5.1l-11.4-48c7.3-3.8-3.7-11.6-4.8-3.4L60,150c-0.8-4.3-7.5-3.2-7.1,1l-45,7.4c-0.7-3.1-5.6-3.5-6.8-0.5
			l-79.7-25c0.6-2.5-2.1-5-4.5-4.1l-23-52.5c5.2-3-1.4-10-4.7-5.2c-14.1-5.7-48.7-19.8-62.4-25.4c0.9-6.9-10.1-4.3-6.4,1.3l-34.6,38
			h-0.1c-4.8-3.1-8.2,5.5-2.7,6.5l-7.7,47c-3.5-0.4-5.2,4.9-2.2,6.6L-227.3,145.4"/>
		<path style="clip-path:url(#SVGID_00000064328178914021679450000005310471860823594407_);fill:#F8D2A0;" d="M226,427.2
			c-9.6,1.4-25.5-19.4-32.3-24.2c-5.5-4.8-2.2-14.4,5.1-14.7c7.9,1.3,114.1-14,117.2-4.1c0,0,21.5,20,21.5,20
			c5.5,4.8,2.1,14.3-5.1,14.7c-1.9,0-104.6,8.4-106.4,8.2V427.2z"/>
		<path style="clip-path:url(#SVGID_00000064328178914021679450000005310471860823594407_);fill:#4F2B2B;" d="M305,386.4
			c-0.6-0.1-105,8.2-105.7,8.2c-1.9,0.3-2.9,2.2-1.4,3.7c5.1,3.1,21.9,24.3,28.8,22.5c0,0,105-8.2,105-8.2c1-0.1,1.6-0.8,2-1.4
			c2.3-1.6-21.8-21.2-22.1-22.3c-1.8-1.6-4-2.6-6.5-2.6L305,386.4z M226,422c-6.7,1.2-23.9-19.8-28.8-23c-2.1-2.1-1.1-5.5,2-5.7
			c3.4,1,114.2-12.3,113-5.4c0,0,21.5,20,21.5,20c2.1,2.1,1.2,5.4-2,5.7C330.3,413.6,227.4,422.2,226,422z"/>
		<path style="clip-path:url(#SVGID_00000064328178914021679450000005310471860823594407_);fill:#4F2B2B;" d="M236.7,421.2
			c-0.6,0-29.2-27-29.7-27.2c-0.2-0.2-0.2-0.6,0-0.8c1.1-1.1,29.3,27,30.1,27C237.5,420.5,237.2,421.2,236.7,421.2z"/>
		<path style="clip-path:url(#SVGID_00000064328178914021679450000005310471860823594407_);fill:#4F2B2B;" d="M251.6,420
			c-0.6,0-29.2-27-29.7-27.2c-0.2-0.2-0.2-0.6,0-0.8c1.1-1.1,29.3,27,30.1,27C252.4,419.3,252.1,420,251.6,420z"/>
		<path style="clip-path:url(#SVGID_00000064328178914021679450000005310471860823594407_);fill:#4F2B2B;" d="M266.4,419
			c-0.6,0-29.2-27-29.7-27.2c-0.2-0.2-0.2-0.6,0-0.8c1.1-1.1,29.3,27,30.1,27C267.2,418.3,266.9,419,266.4,419z"/>
		<path style="clip-path:url(#SVGID_00000064328178914021679450000005310471860823594407_);fill:#4F2B2B;" d="M274,411
			c-0.6,0-21.9-20.1-22.4-20.4c-0.2-0.2-0.2-0.6,0-0.8c0.2-0.2,0.6-0.2,0.8,0l22,20.2C274.8,410.3,274.5,411,274,411z"/>
		<path style="clip-path:url(#SVGID_00000064328178914021679450000005310471860823594407_);fill:#FFF4E9;" d="M288.7,409.8
			c-0.6,0-21.9-20.1-22.4-20.4c-0.2-0.2-0.2-0.6,0-0.8s0.6-0.2,0.8,0l22,20.2C289.5,409.1,289.2,409.8,288.7,409.8z M311,415.4
			c-0.6,0-29.2-27-29.7-27.2c-0.2-0.2-0.2-0.6,0-0.8c1.1-1.1,29.3,27,30.1,27C311.8,414.7,311.5,415.4,311,415.4z"/>
		<path style="clip-path:url(#SVGID_00000064328178914021679450000005310471860823594407_);fill:#4F2B2B;" d="M200.3,402
			c-3.2-2.3,105.6-9.4,105.5-8.8C306,394.8,200.8,401.4,200.3,402L200.3,402z"/>
		<path style="clip-path:url(#SVGID_00000064328178914021679450000005310471860823594407_);fill:#4F2B2B;" d="M208.3,409
			c-3.2-2.3,105.6-9.4,105.5-8.8c0.2,1.7-105,8.2-105.6,8.8H208.3 M215,415.5c-3.2-2.3,105.6-9.4,105.5-8.8
			c0.2,1.7-105,8.2-105.6,8.8H215 M134.8,211.5v113c0,4.7,4,8.5,8.7,8.2l160.8-9.2c4.4-0.2,7.8-4,7.8-8.2v-113c0-4.7-4-8.5-8.7-8.2
			l-160.8,9.2C138.2,203.6,134.8,207.1,134.8,211.5"/>
		<path style="clip-path:url(#SVGID_00000064328178914021679450000005310471860823594407_);fill:#FFFFFF;" d="M145,326
			c0,0,157.6-9.7,157.6-9.7c2-0.1,3.4-1.7,3.4-3.7c-2.3-1.8,5.1-116.9-4-112.1c0,0-157.6,9.7-157.6,9.7c-2,0.1-3.4,1.7-3.4,3.7
			C143.3,215.7,135.9,330.8,145,326"/>
		<g style="clip-path:url(#SVGID_00000064328178914021679450000005310471860823594407_);">
			<defs>
				<polyline id="SVGID_00000107550966880397086670000004654288524245345707_" points="168.2,250.4 269.2,246.3 270.5,280.7 
					169.5,284.8 168.2,250.4 				"/>
			</defs>
			<clipPath id="SVGID_00000098938157333402520210000011430057205403928490_">
				<use xlink:href="#SVGID_00000107550966880397086670000004654288524245345707_"  style="overflow:visible;"/>
			</clipPath>
			<g style="clip-path:url(#SVGID_00000098938157333402520210000011430057205403928490_);">
				<defs>
					<polyline id="SVGID_00000051385925280450948750000008761210510612271535_" points="168.2,250.4 269.2,246.3 270.5,280.7 
						169.5,284.8 168.2,250.4 					"/>
				</defs>
				<clipPath id="SVGID_00000150814399932397187720000010880949080271360177_">
					<use xlink:href="#SVGID_00000051385925280450948750000008761210510612271535_"  style="overflow:visible;"/>
				</clipPath>
				<g style="clip-path:url(#SVGID_00000150814399932397187720000010880949080271360177_);">
					<defs>
						<path id="SVGID_00000180335715603683661260000008655626467279215540_" d="M269.3,249.5c-14.7,0.1-87.5-0.4-100.4,0.8
							c-0.1,8.5,0.1,25.6,0.6,34.1c0.1,0.6,97.5-3.6,101-3.7L269.3,249.5"/>
					</defs>
					<clipPath id="SVGID_00000106147453184324570050000011381131096441031045_">
						<use xlink:href="#SVGID_00000180335715603683661260000008655626467279215540_"  style="overflow:visible;"/>
					</clipPath>
					<g style="clip-path:url(#SVGID_00000106147453184324570050000011381131096441031045_);">
						<defs>
							<rect id="SVGID_00000023252444112556118510000011498261946366798742_" x="168.8" y="249.5" width="34" height="35"/>
						</defs>
						<clipPath id="SVGID_00000084489709193505396560000003012259430767598209_">
							<use xlink:href="#SVGID_00000023252444112556118510000011498261946366798742_"  style="overflow:visible;"/>
						</clipPath>
						<g style="clip-path:url(#SVGID_00000084489709193505396560000003012259430767598209_);">
							
								<image style="overflow:visible;" width="850" height="876" xlink:href="2C4C891023CDF16E.jpg"  transform="matrix(4.000000e-02 0 0 4.000000e-02 168.8 249.47)">
							</image>
						</g>
					</g>
					<g style="clip-path:url(#SVGID_00000106147453184324570050000011381131096441031045_);">
						<defs>
							<rect id="SVGID_00000061455972419271244880000012546426321940922814_" x="202.7" y="249.5" width="34" height="35"/>
						</defs>
						<clipPath id="SVGID_00000087393257349344072090000005378509288658175906_">
							<use xlink:href="#SVGID_00000061455972419271244880000012546426321940922814_"  style="overflow:visible;"/>
						</clipPath>
						<g style="clip-path:url(#SVGID_00000087393257349344072090000005378509288658175906_);">
							
								<image style="overflow:visible;" width="849" height="876" xlink:href="2C4C891023CDF172.jpg"  transform="matrix(4.000000e-02 0 0 4.000000e-02 202.72 249.47)">
							</image>
						</g>
					</g>
					<g style="clip-path:url(#SVGID_00000106147453184324570050000011381131096441031045_);">
						<defs>
							<rect id="SVGID_00000041284431251306289410000001306172669891222674_" x="236.6" y="249.5" width="34" height="35"/>
						</defs>
						<clipPath id="SVGID_00000183957759859567452720000004196740798362798231_">
							<use xlink:href="#SVGID_00000041284431251306289410000001306172669891222674_"  style="overflow:visible;"/>
						</clipPath>
						
							<g transform="matrix(1 0 0 1 -1.525879e-05 0)" style="clip-path:url(#SVGID_00000183957759859567452720000004196740798362798231_);">
							
								<image style="overflow:visible;" width="850" height="876" xlink:href="2C4C891023CDF175.jpg"  transform="matrix(4.000000e-02 0 0 4.000000e-02 236.6 249.47)">
							</image>
						</g>
					</g>
				</g>
			</g>
		</g>
		
			<rect x="269.8" y="306.4" style="clip-path:url(#SVGID_00000064328178914021679450000005310471860823594407_);fill:#F2AE54;" width="172" height="126"/>
		<path style="clip-path:url(#SVGID_00000064328178914021679450000005310471860823594407_);fill:#FFBE97;" d="M302,276.7
			c-3.5-5.6-14.5-2.8-19.8-3l-8.3-14c-2.9-5.2-11.2-1.1-8.8,4.3c0,0,10.6,25.3,10.6,25.3c-2.9,16.9,1.7,17.7,13,27
			c0,0,37.8,58,37.8,58l36-25L302,276.7L302,276.7z"/>
		<path style="clip-path:url(#SVGID_00000064328178914021679450000005310471860823594407_);fill:#4F2B2B;" d="M287,282.5
			c-0.2,0-0.3-0.1-0.4-0.2l-4.8-8c-0.1-0.2-0.1-0.5,0.2-0.7c0.6-1,5.2,8.1,5.5,8.2c0.2,0.2-0.1,0.8-0.4,0.8L287,282.5z M292.2,280
			c-0.3,0.4-3.8-5.9-3.9-6c-0.3-0.5,0.5-1.1,0.9-0.5c0,0.5,4.7,6.4,3.1,6.6L292.2,280z M281,301.5c-0.2,0-0.4-0.1-0.4-0.3l-5.4-11.7
			c-0.1-0.2,0-0.5,0.2-0.6c0.6-1,5.7,11.9,6,11.9C281.5,301.1,281.3,301.5,281,301.5L281,301.5z M337.7,326.8
			c30.5,10.7,58.1-29.9,34.7-46.5c-5.2-19.7-45.5-22.5-54.7-0.4l17.6,5l4-1C339.4,284.2,337.4,326.6,337.7,326.8z"/>
		<path style="clip-path:url(#SVGID_00000064328178914021679450000005310471860823594407_);fill:#FFBE97;" d="M274,381.5
			c-7.7-11.3-11.3-14.5-25.2-21.7c-3.5-1.8-6.8,3.3-3.6,5.7c0,0,6.4,5.3,6.4,5.3l-11.3-3.6l-11.6-7c-3.1-2.1-6.6,2.5-3.9,5
			c0,0,6.5,6.4,6.5,6.4c-2.6-1.5-8.1-9.8-11.5-5.6c-3.4,3.7,5.6,8.7,7.3,11.1c-2.5-1.4-8.1-9.8-11.3-5.6c-3.4,3.5,5.7,8.7,7.2,11
			c-2-1.3-6.6-8.4-9.4-4.7c-3.9,4.8,17.1,17.9,20.9,21.4c7.2,4.3,23.8,10,23.8,10l52.2,41.7l20.6-29.5
			C330.7,421.1,274.3,381.7,274,381.5z"/>
		<path style="clip-path:url(#SVGID_00000064328178914021679450000005310471860823594407_);fill:#4F2B2B;" d="M236,375.8
			c-0.4,0.1-11.7-10.2-12-10.3c-0.2-0.2-0.2-0.5,0-0.7s0.5-0.2,0.7,0l11.6,10.3c0.3,0.3,0.1,0.9-0.4,0.9L236,375.8z M231.6,381.3
			c-0.4,0.1-11.6-10.2-11.9-10.3c-0.2-0.2-0.2-0.5,0-0.7s0.5-0.2,0.7,0l11.6,10.3c0.3,0.3,0.1,0.9-0.4,0.9V381.3z M228,387.3
			c-0.4,0.1-11.7-10.4-12-10.5c-0.2-0.2-0.2-0.5,0-0.7s0.5-0.2,0.7,0l11.6,10.3C228.6,386.7,228.4,387.3,228,387.3L228,387.3z"/>
		<path style="clip-path:url(#SVGID_00000064328178914021679450000005310471860823594407_);fill:#B4185C;" d="M337.3,338
			c-34.2,9.7-45.2,31.2-32.2,64.4c0,0-7.5,38-7.5,38l17,14.2c16.1,13.5,39.9-1.9,34.8-22.2h85.3L408,355.7
			c-4.6-13.2-16.7-22.3-30.7-23c-5.4-1.8-33.9,4.5-39.8,5.4L337.3,338z"/>
		<path style="clip-path:url(#SVGID_00000064328178914021679450000005310471860823594407_);fill:#FFBE97;" d="M336.2,327.8l1,10.2
			c0,0,24.7,5,31.8-5.8l-3.8-10.2l-29.2,5.8H336.2z"/>
		<path style="clip-path:url(#SVGID_00000064328178914021679450000005310471860823594407_);fill:#4F2B2B;" d="M337.7,337.3l-1.2-7.3
			l24-7C351.1,333.4,342.1,338,337.7,337.3L337.7,337.3z"/>
		<path style="clip-path:url(#SVGID_00000064328178914021679450000005310471860823594407_);fill:#FFBE97;" d="M367.7,304.2
			c2.9,36.7-56.5,38.2-55.5,2.6c-0.4-41.3,49.9-39.7,55.6-2.7L367.7,304.2z"/>
		<path style="clip-path:url(#SVGID_00000064328178914021679450000005310471860823594407_);fill:#4F2B2B;" d="M318,323
			c4.2,2.2,9.5-0.1,9.3-5.6h-1.7c0.1,4.4-3.6,5.8-7,4.2l-0.7,1.6L318,323z M327.4,317.4c0-1.3-1.6-1.2-1.8-0.2l1.7,0.1L327.4,317.4z
			 M318.8,321.4c-1-0.5-1.8,1.1-0.8,1.6L318.8,321.4L318.8,321.4z M320.3,289c3.9-2.2,10.8-0.7,10.4,5.3l-1.7,0.1
			c0.2-4.9-5-5.3-8-3.7C321,290.6,320.2,289.1,320.3,289z M330.9,294.2c0,1.3-1.6,1.2-1.8,0.2l1.7-0.1L330.9,294.2z M321.1,290.6
			c-1,0.5-1.8-1.1-0.8-1.6L321.1,290.6L321.1,290.6z"/>
		<path style="clip-path:url(#SVGID_00000064328178914021679450000005310471860823594407_);fill:#562A2F;" d="M379.6,305.2
			c6-19.7-11.8-26.4-24.2-30.3l-10.2,11.3l-2,15.8c0.8,7.6,3.5,23.8,8.8,27l14.4-4.4C366.4,324.6,376.4,315.6,379.6,305.2
			L379.6,305.2z"/>
		<path style="clip-path:url(#SVGID_00000064328178914021679450000005310471860823594407_);fill:#4F2B2B;" d="M321.6,294.3
			c-1.1,2.9,1.8,4.1,2.8,1.1C325.5,292.5,322.6,291.5,321.6,294.3L321.6,294.3z"/>
		<path style="clip-path:url(#SVGID_00000064328178914021679450000005310471860823594407_);fill:#FFBE97;" d="M308.4,296
			c-0.3,1,4.5,6.4,4.5,6.4l4.3-14.4L308.4,296L308.4,296z"/>
		<path style="clip-path:url(#SVGID_00000064328178914021679450000005310471860823594407_);fill:#FFFFFF;" d="M324.3,285.7
			c-7.1-0.5-11.9,16.1-4.8,18.2C328.1,306,334,287.1,324.3,285.7L324.3,285.7z M320.9,305.2c-11.3-0.4-4.2-23.8,5.1-20.2
			C334.6,288.7,329.4,304.8,320.9,305.2z"/>
		<path style="clip-path:url(#SVGID_00000064328178914021679450000005310471860823594407_);fill:#4F2B2B;" d="M351,300.7l-7.8,1.3
			c-1-7.4-2.6-15-9.3-23c0,0-8,5.2-16,0.8c0,0,14-13.5,35.4-4.4l-2.2,25.2L351,300.7z"/>
		<path style="clip-path:url(#SVGID_00000064328178914021679450000005310471860823594407_);fill:#FFFFFF;" d="M343.8,299.8
			c-0.2-0.3-15.5-3.7-14.7-4.6c0.2-1,14.4,3.8,14.9,3.7c0.6,0.1,0.3,1-0.2,1V299.8z"/>
		<path style="clip-path:url(#SVGID_00000064328178914021679450000005310471860823594407_);fill:#FFBE97;" d="M339.8,305.2
			c-7.7,11.4,6,13.8,11,5.4c5-9.5-6.9-16.1-10.9-5.3L339.8,305.2z"/>
		<path style="clip-path:url(#SVGID_00000064328178914021679450000005310471860823594407_);fill:#4F2B2B;" d="M343,308
			c1.3,0,5.5,2.3,5.9,0c0.7-2.1-4.3-2.1-5.3-2.6C342,305,341.3,307.6,343,308z"/>
		<path style="clip-path:url(#SVGID_00000064328178914021679450000005310471860823594407_);fill:#FFFFFF;" d="M317.4,290.5
			c-0.7-0.2-0.5-0.6-1.8-1.5c-0.2-0.1-0.3-0.4-0.1-0.7C316.4,287.5,318.9,290.6,317.4,290.5z"/>
		<path style="clip-path:url(#SVGID_00000064328178914021679450000005310471860823594407_);fill:#4F2B2B;" d="M312,305
			c-3,8.5-0.9,23.5,10.4,25.8l0.5-1.7c-10.9-2.8-11.6-15.9-9.2-23.5L312,305L312,305z M307,298.5l5.3,7.3l1.4-1l-5.3-7.3L307,298.5z
			 M313.6,290.9l-6.5,6.5l1.2,1.2l6.5-6.5L313.6,290.9z M322.6,330.9c1.2,0.4,1.4-1.5,0.4-1.6l-0.5,1.7L322.6,330.9z M313.1,305.3
			l0.8,0.3l0.1-0.4l-0.2-0.4L313.1,305.3L313.1,305.3z M307.8,298l-0.6-0.6l-0.5,0.5l0.4,0.6L307.8,298z M314.8,292
			c0.8-0.9-0.5-1.8-1.2-1.2L314.8,292z"/>
		<path style="clip-path:url(#SVGID_00000064328178914021679450000005310471860823594407_);fill:#9DE8FB;" d="M411.4,211.8h-86.2
			c-29.3,0.5-29.3,44.1,0,44.6c0,0,57,0,57,0L379,275l13.8-18.4h18.6c29.3-0.5,29.3-44.1,0-44.6V211.8z"/>
		<path style="clip-path:url(#SVGID_00000064328178914021679450000005310471860823594407_);fill:#4F2B2B;" d="M349,433.3
			c-1.2,0.1-7.2-40.2-7.7-40.6c-0.1-0.3,0.1-0.5,0.4-0.6c1.5-0.4,7.2,40.2,7.8,40.6c0.1,0.3-0.1,0.5-0.4,0.6H349z M309.7,422.3
			c-0.2,0-0.4-0.1-0.5-0.4l-4.7-18.6c-0.1-0.2,0.1-0.5,0.4-0.6s0.5,0.1,0.6,0.4C305.2,403.5,311.3,422.7,309.7,422.3z M319.7,239.3
			c5.9,1.3,15.3-1.5,16.5-8.1c-0.8-2.8-5-0.9-5.4,1.3c-2.8,13,19.6,9.2,21,0.4c-4.3-3.5-8.5,3.9-3.9,6.6c3.5,4.4,26.6-5.4,19.8-10.9
			c-4.5-1.2-6.9,6.5-4,9.5c4.8,6.3,23.8-2,22.8-9.1c-0.7-1-2-1-3.2-0.5c-5.5,2.8-4.7,12.8,2.7,11.2c4-0.8,13.1-2.7,12.7-7.9
			c-2.7-2.9-6.7,2.4-4.5,5c4.4,5.5,13-0.1,15.5-4.9c0.1-0.3-0.1-0.7-0.3-0.8c-7.7-1.1-4.1,10,4.5,6.7c1.4-0.1,9.6-3.2,5.7-3.8
			c-3.4,1.8-11.1,5.3-13,0.1c-0.1-1,1-2.3,2-1.8l-0.3-0.8c-1.7,3.4-6.4,6.1-10.2,6.2c-3.2,0.1-4.3-5-0.8-5.2
			c0.3,2.8-9.3,5.9-12.1,5.8c-5.5,0.5-4.4-7.4-0.5-8.7c5.1,2-14.4,12.1-17.4,9c-4.3-0.8-3.8-9.1,0.5-8.4c1.4,4.4-10.9,8.3-14.3,9.1
			c-6.2,1.3-7.7-7.5-2.2-5.4l-0.1-1c-3.2,4.8-12.6,9-17.4,4.6c-1.8-1.7-2.1-7,1.3-6.6c0.3,2-2.9,3.9-4.4,5c-3,1.8-6.8,2.5-10.3,1.7
			c-1-0.2-1.3,1.2-0.4,1.4L319.7,239.3z"/>
		
			<rect x="20.4" y="87.7" style="clip-path:url(#SVGID_00000064328178914021679450000005310471860823594407_);fill:#BF8888;" width="165.6" height="131.3"/>
		<polygon style="clip-path:url(#SVGID_00000064328178914021679450000005310471860823594407_);fill:#BF8888;" points="141,180.7 
			178.3,172 195.3,244.7 		"/>
		<path style="clip-path:url(#SVGID_00000064328178914021679450000005310471860823594407_);fill:#4F2B2B;" d="M160,157.7
			c6.5-6.5,2.8-18.6-6.4-20.2c4.7-6.2,1.7-19.2-7.5-15.8c3.2-6.8,3-19.8-6.9-19.6c7-7.3,0-20.3-10.1-18.1
			c1.6-10.5-12.4-13.1-19.2-7.5c-4.7-7.9-16.1-3.9-19,3.6c-6.9-4.1-16.8,0.5-16.5,9c-7.7-3.2-16.1,6.3-10.8,13.2
			c-7.3,0.3-10.4,10.5-5.7,15.4c-8,0.9-10.3,10.8-5.5,16.4c-5.8,3.7-5.2,13.4,1,16.4c-6.7,3.3-4.1,15.2,3.2,16
			c-7.5,4.8-4.6,17.8,5,14.7c-5.8,7.6,3.8,16,11.6,12.6c-1.5,9.1,12.8,13.4,16.3,4.7c1.5,11.4,17.7,9.8,17.4-1.5
			c4.6,8.7,18.2,8.1,21.9-1.1c4.6,7.4,16.6,5.9,19.2-2.5c8.3,2,15.2-8,10.2-15c8.8-2.9,9.9-16,1.7-20.3L160,157.7z"/>
		<path style="clip-path:url(#SVGID_00000064328178914021679450000005310471860823594407_);fill:#FFBE97;" d="M87.2,103.6
			c-21,33,29.5,63.9,48,30.4c18.3-33.3-25.8-61.3-47.9-30.4H87.2z"/>
		<path style="clip-path:url(#SVGID_00000064328178914021679450000005310471860823594407_);fill:#FFBE97;" d="M87,112.7
			c1.3,14.4-12.5,9.4-12.8-0.7C74.9,101,89.2,100,87,112.7z"/>
		<path style="clip-path:url(#SVGID_00000064328178914021679450000005310471860823594407_);fill:#4F2B2B;" d="M77.7,113l4.2,1
			c1.5,0.5,2.3-2.3,0.5-2.5c0,0-4.2-1-4.2-1C76.7,110,75.9,112.8,77.7,113z"/>
		<path style="clip-path:url(#SVGID_00000064328178914021679450000005310471860823594407_);fill:#4F2B2B;" d="M111,115.5
			c-0.3,3.3-3.8,2.6-3.2-0.5C108.2,111.8,111.6,112.4,111,115.5z"/>
		<path style="clip-path:url(#SVGID_00000064328178914021679450000005310471860823594407_);fill:#FF9D6C;" d="M102.7,125.2
			c-4.8-1.5-3.4-5.7,1.4-4C108.9,122.7,107.5,126.9,102.7,125.2z"/>
		<path style="clip-path:url(#SVGID_00000064328178914021679450000005310471860823594407_);fill:#FF9D6C;" d="M131,131.6
			c-4.8-1.5-3.4-5.7,1.4-4C137.2,129.1,135.8,133.3,131,131.6z"/>
		<path style="clip-path:url(#SVGID_00000064328178914021679450000005310471860823594407_);fill:#4F2B2B;" d="M104.7,134.7
			c1,5.8,6.5,7.5,13.6,5.3l-0.5-1.6c-6.2,1.8-10.5,0.8-11.4-4l-1.7,0.2V134.7z M118.3,140.1c1-0.3,0.6-1.8-0.4-1.6L118.3,140.1
			L118.3,140.1z M106.3,134.5c-0.1-1.1-1.9-1.1-1.8,0.2C104.6,134.7,106.2,134.5,106.3,134.5z M100,113.7c2.9-5.2,8.7-4.9,14.8-0.5
			l-1,1.3c-5.4-3.8-9.4-4.4-12.1-0.3l-1.5-0.7L100,113.7z M114.6,113.2c0.9,0.6-0.1,2.1-1,1.4l1-1.3V113.2z M101.6,114.4
			c-0.5,1-1.7,0.2-1.4-0.6l1.5,0.7L101.6,114.4z M122,114.5c4.2-4.3,9.6-2.8,14.5,2.9l-1.3,1c-4.2-4.9-8.3-6.3-11.6-3l-1.3-1
			L122,114.5z M136.3,117.5c0.8,0.8-0.7,2-1.3,1.1l1.3-1V117.5z M123.3,115.7c-0.7,0.9-2.1-0.2-1.3-1.1l1.3,1L123.3,115.7z
			 M133,119.4c-0.3,3.3-3.8,2.6-3.2-0.5C130.2,115.7,133.6,116.3,133,119.4z"/>
		<polygon style="clip-path:url(#SVGID_00000064328178914021679450000005310471860823594407_);fill:#FFBE97;" points="122.4,122.4 
			118.7,125.6 118,112.6 		"/>
		<path style="clip-path:url(#SVGID_00000064328178914021679450000005310471860823594407_);fill:#4F2B2B;" d="M118.7,126.3
			c-2.1-0.4,3-3.6,3.1-4.1c0.1-0.4-5-9.5-3.7-9.5c0.8-0.9,4.7,9.5,5,9.7l-4,3.7C119,126.2,118.9,126.2,118.7,126.3L118.7,126.3z
			 M84.5,99.3c-0.8,11.3,11.4,12.9,14.7,2.2c3.3,8.2,14.1,4.3,18-1.6c-1.2,7.5,8.8,10.8,13.5,5.5c-0.9,6.1,6.9,11.2,11.6,6.4
			C133,75.8,105.2,83.3,84.5,99.3L84.5,99.3z"/>
		<path style="clip-path:url(#SVGID_00000064328178914021679450000005310471860823594407_);fill:#FFBE97;" d="M94.8,166.6
			c16,0.4,21.7-7,23.6-11.3l-8-2.7l0.7-10.3l-25.3-18.6l-5.6,23.7c0,0-4.8,0.7-11.5,2.3c2,4.8,9,16.4,26,17L94.8,166.6z"/>
		<path style="clip-path:url(#SVGID_00000064328178914021679450000005310471860823594407_);fill:#4F2B2B;" d="M110.3,151.8l1.2-3.5
			c-10.7,0-15.3-2.8-21.5-12c3,12.5,14.7,14.5,20.3,15.6V151.8z"/>
		<path style="clip-path:url(#SVGID_00000064328178914021679450000005310471860823594407_);fill:#2B6577;" d="M146,172.3
			c-6.6-8-19.3-13.8-27.6-17c-8.6,18.8-45,12.2-49.6-5.7c-10.6,2.6-32.8,9.4-40,18C7,195.1,15.3,314.4,72.8,273l2.3-54H161
			C161,219,156,184.3,146,172.3z"/>
		<path style="clip-path:url(#SVGID_00000064328178914021679450000005310471860823594407_);fill:#4F2B2B;" d="M60.6,225.4
			L60.6,225.4v0.8V225.4z M60.6,225.3c0,0,0,0.1-0.1,0.1l0.1,0.8c0.5-0.1,1-0.5,0.8-1L60.6,225.3L60.6,225.3z M58,196l2.6,29.3h0.8
			L58.8,196H58z M57.9,195.9L57.9,195.9c0,0,0,0,0,0.1h0.8c0-0.5-0.5-1-1-0.8l0.1,0.8L57.9,195.9z M57.8,196c0,0,0-0.1,0.1-0.1
			l-0.1-0.8c-0.5,0.1-1,0.5-0.8,1L57.8,196L57.8,196z M60.4,225.3L57.8,196H57l2.6,29.3H60.4z M60.5,225.4c0,0-0.1,0-0.1-0.1h-0.8
			c0,0.5,0.4,0.8,1,0.8v-0.8L60.5,225.4z M60.5,225.8v0.4V225.8z M61,225.3h0.4H61z M58.4,196H58H58.4z M57.9,195.6v0.4V195.6z
			 M57.4,196.1H57H57.4z M60,225.4h-0.4H60z"/>
		<path style="clip-path:url(#SVGID_00000064328178914021679450000005310471860823594407_);fill:#4F2B2B;" d="M60.5,225.8
			c-1.3,0.2-2.7-29.4-3.1-29.8c0-0.3,0.2-0.5,0.5-0.5c1.3-0.2,2.6,29.3,3.1,29.7c0,0.3-0.2,0.5-0.5,0.5V225.8z"/>
		<path style="clip-path:url(#SVGID_00000064328178914021679450000005310471860823594407_);fill:#FFBE97;" d="M72.8,273
			c11.8-11,25.8-55,25.8-55L76,198.5l-35.4,43.8c5,16.2,14,28,32,30.8L72.8,273z"/>
		<path style="clip-path:url(#SVGID_00000064328178914021679450000005310471860823594407_);fill:#DF8711;" d="M162,154.4
			c-0.5-1.8-2.3-3-4-2.5l-28,7c-2-0.7-6.8-4.3-9-3.3c0,0-17.8,4.5-17.8,4.5c-5.5,1.2,0,11.3,0.1,14.4l60-15.2l-1.3-5.2L162,154.4z"
			/>
		<polygon style="clip-path:url(#SVGID_00000064328178914021679450000005310471860823594407_);fill:#F8D2A0;" points="106.6,169 
			157.3,156.2 160,167 109.3,179.8 		"/>
		
			<rect x="106.4" y="166.7" transform="matrix(0.9694 -0.2456 0.2456 0.9694 -41.0305 39.3582)" style="clip-path:url(#SVGID_00000064328178914021679450000005310471860823594407_);fill:#DF8711;" width="61.9" height="35.1"/>
		<path style="clip-path:url(#SVGID_00000064328178914021679450000005310471860823594407_);fill:#562A2F;" d="M103,175.3
			c-0.5-0.1-0.8-0.9-0.1-1c0.6,0.4,60-16.1,60.2-14.6C163.4,161,103.5,174.8,103,175.3z"/>
		<path style="clip-path:url(#SVGID_00000064328178914021679450000005310471860823594407_);fill:#FFBE97;" d="M76,198.5
			c10-11.7,11.7-15.9,28.8-17l1.5,5.2l16-3.4c4.7-1.1,6.8,5.9,2.3,7.6c0,0-8.2,3.2-8.2,3.2c-1.3,19.9,1.1,17.8-18.2,24L76,198.5z"/>
		<path style="clip-path:url(#SVGID_00000064328178914021679450000005310471860823594407_);fill:#4F2B2B;" d="M109.6,197.3v0.8
			c0.1,0,0.2,0,0.3-0.1L109.6,197.3L109.6,197.3z M116.3,194.7l-6.7,2.6l0.3,0.8l6.7-2.6L116.3,194.7z M116.3,194.6
			c-0.1,0,0.3,0.9,0.3,0.9c0.5-0.2,0.7-0.7,0.5-1.2L116.3,194.6L116.3,194.6z M116.2,194.6c0,0.1,0.9-0.3,0.9-0.3
			c-0.2-0.5-0.7-0.7-1.2-0.5L116.2,194.6z M109.5,197.2l6.7-2.6l-0.3-0.8l-6.7,2.6L109.5,197.2z M109.5,197.3c0.1,0-0.3-0.9-0.3-0.9
			c-0.5,0.2-0.7,0.7-0.5,1.2L109.5,197.3z M109.6,197.4l-0.8,0.3c0.1,0.4,0.5,0.6,1,0.6v-0.8L109.6,197.4z M109.8,197.8l-0.2-0.4
			L109.8,197.8z M116.5,195.2l-0.2-0.4L116.5,195.2z M116.1,194.2v-0.4V194.2z M109.4,196.8l0.2,0.4L109.4,196.8z M109.1,197.4
			l0.4-0.2L109.1,197.4z"/>
		<path style="clip-path:url(#SVGID_00000064328178914021679450000005310471860823594407_);fill:#4F2B2B;" d="M109.6,197.7
			c-0.5,0.1-0.8-0.9-0.2-0.9c0.4,0.1,7.3-3.4,7.3-2.3C117.5,195.2,109.7,197.6,109.6,197.7L109.6,197.7z M102.6,187.7L102.6,187.7
			v0.8V187.7z M107.9,186.9l-5.3,0.8l0.1,0.8l5.3-0.8L107.9,186.9z M108,186.8c0,0,0,0.1-0.1,0.1l0.1,0.8c0.5-0.1,0.8-0.5,0.8-1
			L108,186.8z M107.9,186.7c0,0,0.1,0,0.1,0.1l0.8-0.1c-0.1-0.5-0.5-0.8-1-0.8L107.9,186.7z M102.6,187.5l5.3-0.8l-0.1-0.8l-5.3,0.8
			L102.6,187.5z M102.5,187.6C102.5,187.6,102.5,187.5,102.5,187.6v-0.9c-0.5,0.1-0.8,0.5-0.8,1L102.5,187.6z M102.6,187.7
			c0,0-0.1,0-0.1-0.1l-0.8,0.1c0.1,0.4,0.5,0.8,1,0.8L102.6,187.7L102.6,187.7z M102.7,188.1v0.4h0.1L102.7,188.1L102.7,188.1z
			 M108,187.3v0.4V187.3z M107.8,186.3l-0.1-0.4L107.8,186.3z M102.5,187.1l-0.1-0.4L102.5,187.1z M102.1,187.7l-0.4,0.1
			L102.1,187.7z"/>
		<path style="clip-path:url(#SVGID_00000064328178914021679450000005310471860823594407_);fill:#4F2B2B;" d="M102.4,188
			c-0.6,0-0.7-0.8-0.1-1c0.5,0.1,5.9-1.4,5.9-0.4C108.7,187.6,102.8,187.8,102.4,188z M111,203.2L111,203.2v0.8c0.1,0,0.2,0,0.3-0.1
			l-0.3-0.8V203.2z M115.4,201.4l-4.4,1.8l0.3,0.8l4.4-1.8L115.4,201.4z M115.4,201.3c-0.1,0,0.3,0.9,0.3,0.9
			c0.5-0.2,0.7-0.7,0.5-1.2L115.4,201.3z M115.3,201.3c0,0.1,0.9-0.3,0.9-0.3c-0.2-0.5-0.7-0.7-1.2-0.5L115.3,201.3z M111,203
			l4.4-1.8l-0.3-0.8l-4.4,1.8L111,203z M111,203.1L111,203.1l-0.3-0.8c-0.5,0.2-0.7,0.7-0.5,1.2l0.8-0.3V203.1z M111.1,203.1
			c0,0-0.1,0-0.1-0.1l-0.8,0.3c0.1,0.4,0.5,0.6,0.8,0.6L111.1,203.1L111.1,203.1z M111.3,203.5l0.2,0.4L111.3,203.5z M115.7,201.7
			l-0.2-0.4L115.7,201.7z M116,201h0.4H116z M115.3,200.7l-0.2-0.4L115.3,200.7z M110.9,202.5v0.4V202.5z M110.6,203.2l-0.4,0.2
			L110.6,203.2z"/>
		<path style="clip-path:url(#SVGID_00000064328178914021679450000005310471860823594407_);fill:#4F2B2B;" d="M111,203.7
			c-2.5-0.8,3.9-2.5,4.2-2.8c0.6-0.3,1.1,0.8,0.4,1c0,0-4.4,1.8-4.4,1.8H111z M111.5,209L111.5,209v0.8V209z M111.5,209L111.5,209
			v0.8c0.1,0,0.2,0,0.3-0.1l-0.3-0.8V209z M115.3,207.4l-3.8,1.6l0.3,0.8l3.8-1.6L115.3,207.4z M115.3,207.3c-0.1,0,0.3,0.9,0.3,0.9
			c0.5-0.2,0.7-0.7,0.5-1.2L115.3,207.3L115.3,207.3z M115.2,207.2c0,0.1,0.9-0.3,0.9-0.3c-0.2-0.5-0.7-0.7-1.2-0.5L115.2,207.2z
			 M111.4,208.8l3.8-1.6l-0.3-0.8l-3.8,1.6L111.4,208.8z M111.4,208.9c0.1,0-0.3-0.9-0.3-0.9c-0.5,0.2-0.7,0.7-0.5,1.2L111.4,208.9
			L111.4,208.9z M111.5,209c0,0-0.1,0-0.1-0.1l-0.8,0.3c0.1,0.4,0.5,0.6,0.8,0.6L111.5,209L111.5,209z M111.7,209.4l0.2,0.4
			L111.7,209.4z M115.5,207.8l0.2,0.4L115.5,207.8z M115.8,207.1l-0.4,0.2L115.8,207.1z M115.1,206.8l0.2,0.4L115.1,206.8z
			 M111.3,208.4l-0.2-0.4L111.3,208.4z M111,209.1h0.4H111z"/>
		<path style="clip-path:url(#SVGID_00000064328178914021679450000005310471860823594407_);fill:#4F2B2B;" d="M111.5,209.5
			c-0.6,0-0.8-0.8-0.2-1c0.5,0,4.2-2.3,4.5-1.3C116.3,208,111.9,209.3,111.5,209.5z"/>
		<path style="clip-path:url(#SVGID_00000064328178914021679450000005310471860823594407_);fill:#F29EC3;" d="M183.7,22h-75.2
			c-30.5,0.5-30.5,45.9,0,46.4c0,0,52.7,0,52.7,0l-3.7,20.4l15.3-20.4C214.1,74.5,218.5,25,183.7,22z"/>
		<path style="clip-path:url(#SVGID_00000064328178914021679450000005310471860823594407_);fill:#4F2B2B;" d="M31,251.4
			c0,0,0,0-0.1,0v0.8c0.2,0,0.5-0.1,0.6-0.3l-0.6-0.6L31,251.4z M43,239.4l-12,12l0.6,0.6l12-12L43,239.4z M43,239.3v0.1l0.6,0.6
			c0.4-0.4,0.4-1,0-1.3L43,239.3L43,239.3z M42.9,239.3L42.9,239.3l0.7-0.6c-0.4-0.4-1-0.4-1.3,0L42.9,239.3z M30.9,251.3l12-12
			l-0.6-0.6l-12,12L30.9,251.3z M30.9,251.4v-0.1l-0.6-0.6c-0.4,0.4-0.4,1,0,1.3L30.9,251.4L30.9,251.4z M31,251.4c0,0,0,0-0.1,0
			l-0.6,0.6c0.2,0.2,0.4,0.3,0.6,0.3v-0.8L31,251.4z M31.4,251.7l0.3,0.3L31.4,251.7z M43.4,239.7l-0.3-0.3L43.4,239.7z M42.7,239
			l-0.3-0.3L42.7,239z M30.7,251l0.3,0.3L30.7,251z M30.7,251.7l-0.3,0.3L30.7,251.7z"/>
		<path style="clip-path:url(#SVGID_00000064328178914021679450000005310471860823594407_);fill:#4F2B2B;" d="M31,252
			c-0.4,0-0.8-0.6-0.4-0.9c0,0,12-12,12-12c0.2-0.2,0.5-0.2,0.7,0s0.2,0.5,0,0.7l-12,12c-0.1,0.1-0.2,0.2-0.4,0.2H31z M103.4,49.5
			c5.8-0.4,13.3-6.5,11.6-12.7c-5.5-2.7-9.1,7-7.2,11.2c4.4,8.9,16.7,2.4,20.5-4c3.6-6.3-3.7-5.7-4.8-0.2
			c-3.1,14.7,13.1,4.7,16.5-1.8c0.3-0.4,0-1-0.4-1c-2.5-1-5.2,1.3-5.6,3.7c1.5,17.3,31-6.3,20.1-7.8c-4.3,2.3-7,10.1-2.6,13.7
			c6.7,3.9,16-2.4,19.8-7.9c2.1-9.1-7.9-1.4-8.3,3c-1,7.1,9,10.6,13.2,5c2.8-1.8,5.9-9.1,0-8c-7.5,6.3,3.8,13.1,11.7,5
			c1.1-0.6,5.3-5.4,1.8-4c-1.5,2-3.5,3.8-5.7,5c-4,3-12,0.4-7.4-4.7c2.8-0.6,0.7,2.9-0.1,3.8c-7.8,10.6-18.7-1.9-7.2-8
			c1.9,0.8-0.8,3.8-1.7,4.7c-6.8,7.7-23.5,8.3-14.6-5.3c0.4-0.5,1.8-1.7,1.7-0.3c-2.8,5.6-11.6,13.3-17.9,9.1
			c-2.6-1.9-1.1-6.6,2.3-5.7l-0.4-1c-16.5,20.2-16.5-0.9-10.8,0c-2.9,11.4-25.6,14.3-17-1.8c5.4-5.7,2.8,2.2,0.2,4.4
			c-2,2-4.7,3.5-7.5,3.8c-1,0.1-1,1.6,0,1.5L103.4,49.5z"/>
	</g>
</g>
</svg>
