<svg width="460" height="460" viewBox="0 0 460 460" fill="none" xmlns="http://www.w3.org/2000/svg">
<g clip-path="url(#clip0_761_8502)">
<rect width="460" height="460" fill="white"/>
<path d="M-185.934 118.511C-184.704 119.329 -183.138 119.239 -182.017 118.404L-129.305 177.166C-129.428 177.298 -129.543 177.44 -129.647 177.593C-130.688 179.164 -130.261 181.278 -128.693 182.32C-127.125 183.363 -125.009 182.934 -123.966 181.366C-123.8 181.115 -123.674 180.85 -123.581 180.577L-80.936 190.8C-81.1158 192.063 -80.5829 193.373 -79.4497 194.124C-77.882 195.167 -75.7654 194.738 -74.7228 193.17C-74.2636 192.476 -74.0907 191.675 -74.1747 190.907L-26.9971 181.19C-26.7734 181.921 -26.3068 182.582 -25.6213 183.04C-24.8765 183.533 -24.0118 183.692 -23.1957 183.562L5.15495 293.808C4.4871 294.045 3.88606 294.492 3.46221 295.127C2.4196 296.695 2.84872 298.812 4.41646 299.854C5.9842 300.897 8.10075 300.468 9.14336 298.9C9.44552 298.443 9.62002 297.94 9.68261 297.431L147.236 301.577C146.438 303.105 146.907 305.02 148.373 305.995C149.941 307.038 152.058 306.609 153.1 305.041C153.196 304.897 153.274 304.751 153.343 304.598L200.963 321.7C200.611 323.069 201.134 324.567 202.376 325.392C203.001 325.807 203.713 325.985 204.41 325.954L213.066 389.364L212.249 389.087L213.153 389.976L213.205 390.358L213.409 390.227L290.689 466.361C290.62 466.448 290.552 466.538 290.488 466.633C289.445 468.201 289.874 470.317 291.442 471.36C293.01 472.402 295.126 471.973 296.169 470.406C297.211 468.838 296.782 466.721 295.214 465.679C294.632 465.291 293.97 465.109 293.319 465.112L288.678 416.574C288.736 416.502 288.792 416.429 288.844 416.35C289.105 415.959 289.271 415.532 289.355 415.097L371.725 422.934C371.725 424.041 372.257 425.125 373.248 425.783C374.816 426.826 376.932 426.397 377.975 424.829C379.017 423.261 378.588 421.145 377.021 420.102C376.402 419.69 375.692 419.511 375.002 419.54L367.478 362.658C368.299 362.471 369.057 361.983 369.562 361.222C370.239 360.202 370.291 358.955 369.82 357.92L405.257 337.576C405.494 337.914 405.793 338.216 406.157 338.456C407.725 339.499 409.842 339.07 410.884 337.502C411.927 335.934 411.498 333.818 409.93 332.775C408.977 332.144 407.824 332.056 406.831 332.432L386.876 291.762C387.289 291.511 387.654 291.171 387.94 290.74C388.876 289.332 388.625 287.487 387.43 286.367L417.425 251.008C418.991 252.021 421.083 251.59 422.117 250.032C423.16 248.465 422.731 246.348 421.163 245.305C420.89 245.124 420.6 244.989 420.3 244.895L426.693 210.727C427.901 210.838 429.13 210.3 429.847 209.217C430.035 208.936 430.171 208.637 430.264 208.33L482.003 219.094C481.865 220.324 482.399 221.587 483.502 222.317C485.07 223.359 487.187 222.93 488.229 221.363C489.272 219.795 488.843 217.678 487.275 216.636C487.16 216.559 487.042 216.495 486.922 216.433L515.409 143.881C516.802 144.284 518.354 143.763 519.198 142.492C520.24 140.924 519.811 138.808 518.244 137.765C516.676 136.722 514.559 137.152 513.517 138.719C513.219 139.166 513.046 139.66 512.98 140.159L398.985 135.699C398.878 134.728 398.36 133.812 397.483 133.23C395.916 132.188 393.799 132.617 392.757 134.185C391.714 135.752 392.143 137.869 393.711 138.912C393.867 139.014 394.03 139.099 394.195 139.176L383.235 177.776C381.91 177.497 380.486 178.025 379.691 179.223C379.433 179.612 379.265 180.036 379.183 180.467L284.507 174.21C284.479 173.139 283.946 172.098 282.988 171.459C281.42 170.416 279.304 170.845 278.261 172.413C277.218 173.981 277.648 176.097 279.215 177.14C279.575 177.38 279.966 177.537 280.362 177.624L274.85 221.163C273.708 221.125 272.572 221.659 271.894 222.683L272.049 222.409L174.857 167.592C175.528 166.096 175.043 164.295 173.635 163.36C172.908 162.877 172.065 162.715 171.265 162.829L160.415 117.452C161.104 117.218 161.726 116.768 162.158 116.112C163.199 114.541 162.772 112.427 161.204 111.385C159.636 110.342 157.52 110.771 156.477 112.339C156.071 112.95 155.89 113.646 155.914 114.328L85.9772 122.943C85.7947 122.106 85.3039 121.339 84.5351 120.828C82.9674 119.786 80.8508 120.215 79.8082 121.783C79.3743 122.436 79.1975 123.183 79.2525 123.909L36.6768 130.907C36.4737 130.123 35.9937 129.41 35.2675 128.927C33.6998 127.884 31.5832 128.314 30.5406 129.881C30.43 130.047 30.3406 130.221 30.2625 130.395L-45.2432 106.811C-44.992 105.502 -45.5267 104.113 -46.7061 103.328C-47.5945 102.74 -48.6583 102.62 -49.6051 102.914L-71.3374 53.1638C-70.849 52.9064 -70.4158 52.5262 -70.0874 52.0349C-69.0448 50.4672 -69.4739 48.3507 -71.0416 47.308C-72.612 46.2672 -74.7259 46.6946 -75.7685 48.2623C-75.7752 48.2747 -75.7819 48.2871 -75.7904 48.2969L-114.477 32.582L-134.926 24.2752C-134.657 22.9531 -135.185 21.54 -136.378 20.7465C-137.946 19.7038 -140.063 20.133 -141.105 21.7007C-141.915 22.9208 -141.835 24.4673 -141.024 25.5866L-173.776 61.5194C-173.814 61.4923 -173.852 61.4609 -173.894 61.433C-175.462 60.3904 -177.579 60.8196 -178.621 62.3873C-179.664 63.9551 -179.235 66.0716 -177.667 67.1142C-177.295 67.3607 -176.892 67.5244 -176.479 67.6084L-183.81 112.271C-184.993 112.188 -186.186 112.724 -186.888 113.784C-187.931 115.352 -187.502 117.469 -185.934 118.511ZM-138.274 26.9959C-137.166 26.9968 -136.083 26.4647 -135.424 25.4733C-135.298 25.2809 -135.195 25.0821 -135.109 24.8802L-111.922 34.298L-76.0833 48.8555C-76.2099 49.1631 -76.2864 49.4819 -76.3184 49.8039L-139.691 58.6294L-138.272 26.9985L-138.274 26.9959ZM84.1427 126.733L100.873 154.27L63.439 180.163C63.2335 179.919 62.9925 179.696 62.7133 179.511C62.582 179.422 62.4432 179.35 62.3037 179.283L81.7631 126.962C82.5635 127.177 83.4104 127.092 84.1427 126.733ZM156.71 116.414C156.916 116.658 157.157 116.882 157.436 117.067C157.6 117.175 157.765 117.262 157.937 117.338L130.665 198.085C129.895 197.902 129.088 197.995 128.386 198.337L101.719 154.447L156.708 116.412L156.71 116.414ZM360.913 362.924L351.429 323.795L365.117 356.33C364.636 356.586 364.21 356.965 363.882 357.452C363.153 358.551 363.147 359.915 363.744 360.992L360.913 362.924ZM372.296 421.059C372.036 421.452 371.869 421.876 371.785 422.311L289.415 414.47C289.416 413.89 289.268 413.317 288.985 412.808L360.513 363.961L374.029 419.726C373.344 419.96 372.726 420.412 372.293 421.061L372.296 421.059ZM9.1235 295.09C8.904 294.772 8.62856 294.488 8.3 294.249L36.8658 245.719C38.3701 246.43 40.2086 245.949 41.1566 244.521L71.1827 260.655L9.1235 295.09ZM-173.876 67.107C-173.816 67.0655 -173.754 67.0221 -173.699 66.9754L-144.531 106.397C-144.743 106.588 -144.935 106.803 -145.1 107.05C-145.534 107.699 -145.708 108.443 -145.659 109.166L-155.462 110.746L-173.876 67.107ZM-88.2186 162.284L-77.6659 172.613C-77.7348 172.696 -77.8 172.784 -77.8616 172.877C-78.2465 173.458 -78.4298 174.113 -78.4307 174.759L-89.3619 175.754L-139.024 112.544L-88.2186 162.284ZM-77.2273 172.164L-114.127 136.039L-139.615 111.086C-139.546 111.003 -139.481 110.915 -139.419 110.822C-139.075 110.304 -138.894 109.728 -138.859 109.147L-74.3518 107.2L-75.287 171.362C-75.993 171.419 -76.674 171.692 -77.2266 172.159L-77.2273 172.164ZM-145.558 109.787C-145.356 110.576 -144.877 111.293 -144.146 111.777C-143.44 112.247 -142.623 112.416 -141.841 112.319L-127.842 176.21L-155.21 111.342L-145.556 109.785L-145.558 109.787ZM-124.919 176.642C-125.624 176.171 -126.442 176.002 -127.223 176.1L-141.228 112.185C-140.943 112.093 -140.667 111.965 -140.412 111.802L-90.1131 175.822L-123.457 178.861C-123.621 177.985 -124.12 177.174 -124.921 176.644L-124.919 176.642ZM-123.395 179.487L-89.6473 176.411L-79.9048 188.81C-80.0869 188.983 -80.257 189.179 -80.4014 189.396C-80.5677 189.647 -80.6935 189.912 -80.7868 190.184L-123.431 179.962C-123.408 179.803 -123.393 179.643 -123.394 179.482L-123.395 179.487ZM-77.3569 187.883C-78.0774 187.841 -78.7989 188.024 -79.409 188.42L-88.8988 176.344L-78.3736 175.384C-78.2095 176.26 -77.7107 177.071 -76.9092 177.601C-76.5775 177.822 -76.2177 177.974 -75.8497 178.066L-77.3569 187.883ZM-71.7523 173.798L-31.5718 157.787L-25.1087 177.082C-25.6845 177.335 -26.1981 177.749 -26.5756 178.313C-26.828 178.693 -26.9914 179.107 -27.0769 179.529L-71.6139 174.808C-71.6104 174.467 -71.6566 174.127 -71.7523 173.798ZM30.8525 134.047C31.0397 134.254 31.2545 134.446 31.4993 134.609C31.979 134.926 32.5053 135.107 33.0383 135.161L35.1737 181.383L-20.3315 179.97C-20.3736 179.35 -20.5821 178.75 -20.9432 178.235L30.855 134.046L30.8525 134.047ZM276.047 227.718L291.581 260.512C291.123 260.768 290.713 261.132 290.404 261.602C290.253 261.831 290.136 262.07 290.045 262.318L277.055 260.389L275.454 227.903C275.658 227.86 275.856 227.798 276.051 227.719L276.047 227.718ZM423.935 205.872C423.465 206.858 423.508 207.989 423.994 208.92L404.991 221.288L384.553 183.85C384.865 183.621 385.145 183.336 385.373 182.996L423.933 205.874L423.935 205.872ZM384.016 184.176L404.465 221.634L345.343 260.111C345.125 259.837 344.863 259.59 344.556 259.386C344.521 259.365 344.484 259.344 344.449 259.323L381.371 184.311C382.246 184.628 383.199 184.568 384.014 184.178L384.016 184.176ZM40.2067 239.795C40.0755 239.706 39.9411 239.635 39.8016 239.568L59.9376 185.639C60.8735 185.895 61.8758 185.735 62.6847 185.21L89.0478 218.657L41.2629 240.919C41.0075 240.483 40.6555 240.095 40.2067 239.795ZM63.1787 184.818C63.3607 184.645 63.5257 184.452 63.6727 184.234C63.823 184.01 63.9372 183.772 64.0276 183.528L126.659 200.31C126.559 200.607 126.502 200.909 126.487 201.211L89.637 218.379L63.1813 184.817L63.1787 184.818ZM126.515 201.894C126.581 202.328 126.726 202.75 126.951 203.13L110.022 234.892L108.384 237.969C107.353 237.534 106.191 237.641 105.262 238.214L90.0303 218.891L126.51 201.898L126.515 201.894ZM108.948 238.269C108.948 238.269 108.946 238.267 108.944 238.264L110.576 235.2L127.369 203.69C127.553 203.892 127.764 204.078 128.003 204.238C128.397 204.5 128.826 204.668 129.262 204.752L135.34 233.661L110.263 239.934C110.022 239.277 109.58 238.684 108.95 238.267L108.948 238.269ZM41.5283 241.49L89.4489 219.164L104.764 238.594C104.562 238.777 104.378 238.987 104.221 239.224C103.894 239.717 103.712 240.264 103.664 240.816L41.7071 242.245C41.6777 241.989 41.616 241.736 41.5283 241.49ZM148.591 300.187L109.306 243.671C109.528 243.477 109.731 243.251 109.902 242.996C110.401 242.243 110.56 241.367 110.421 240.543L135.466 234.28L149.264 299.896C149.029 299.968 148.806 300.066 148.593 300.189L148.591 300.187ZM136.076 234.125L165.218 226.835C165.468 227.44 165.893 227.976 166.48 228.364C166.709 228.516 166.95 228.635 167.197 228.724L157.196 271.866L150.727 299.775C150.442 299.736 150.158 299.731 149.879 299.765L136.076 234.125ZM284.922 411.23L272.544 382.478L264.894 364.705C265.367 364.447 265.785 364.078 266.105 363.596C266.732 362.654 266.822 361.515 266.458 360.528L281.677 353.238L285.419 411.101C285.249 411.132 285.083 411.175 284.92 411.228L284.922 411.23ZM249.624 259.503L277.157 306.426C276.834 306.66 276.538 306.951 276.306 307.306C275.903 307.915 275.722 308.607 275.742 309.288L256.572 312.758L248.976 259.73C249.2 259.677 249.419 259.601 249.629 259.504L249.624 259.503ZM275.815 309.913C275.997 310.75 276.487 311.521 277.26 312.033C277.454 312.162 277.655 312.268 277.864 312.352L263.948 358.37C263.666 358.314 263.38 358.295 263.098 358.309L256.662 313.38L275.817 309.912L275.815 309.913ZM266.188 359.961C265.934 359.539 265.589 359.162 265.15 358.87C264.958 358.743 264.756 358.635 264.551 358.551L269.528 342.117L278.487 312.538C278.674 312.576 278.863 312.594 279.052 312.6L281.636 352.564L266.187 359.965L266.188 359.961ZM279.679 312.557C280.588 312.412 281.437 311.906 281.987 311.079C282.209 310.743 282.361 310.383 282.453 310.015L346.803 319.856C346.776 320.328 346.847 320.798 347.011 321.24L282.249 352.265L279.681 312.555L279.679 312.557ZM347.362 318.174C347.14 318.51 346.988 318.87 346.896 319.238L282.546 309.396C282.588 308.71 282.418 308.022 282.061 307.43L313.581 284.127L347.572 317.892C347.497 317.983 347.428 318.077 347.363 318.176L347.362 318.174ZM281.687 306.924C281.496 306.711 281.279 306.517 281.033 306.352C280.958 306.3 280.88 306.259 280.804 306.216L292.399 266.784C293.457 267.054 294.59 266.802 295.433 266.1L313.128 283.678L281.687 306.924ZM291.361 266.327C291.504 266.422 291.655 266.501 291.806 266.573L280.222 305.962C279.917 305.861 279.606 305.806 279.292 305.792L277.084 261.03L289.881 262.929C289.668 264.211 290.203 265.562 291.356 266.326L291.361 266.327ZM278.665 305.823C278.391 305.861 278.121 305.931 277.864 306.035L250.177 259.178C250.498 258.945 250.786 258.655 251.02 258.303C251.245 257.965 251.397 257.601 251.488 257.226L276.451 260.932L278.663 305.821L278.665 305.823ZM171.205 227.412C171.233 227.369 171.256 227.326 171.282 227.281L214.855 243.982L244.893 255.496C244.698 256.194 244.735 256.928 244.979 257.595L190.155 283.764L169.63 228.692C170.252 228.444 170.807 228.013 171.205 227.412ZM246.562 259.422C247.126 259.727 247.741 259.854 248.345 259.823L255.946 312.874L207.554 321.635C207.368 320.97 206.981 320.357 206.412 319.895L246.562 259.422ZM207.668 322.255L256.037 313.498L262.471 358.402C261.756 358.572 261.097 358.968 260.61 359.574L207.275 324.163C207.601 323.562 207.727 322.898 207.668 322.255ZM261.377 364.555C262.28 365.153 263.361 365.264 264.317 364.956L269.893 377.913L284.343 411.486C284.223 411.555 284.103 411.631 283.989 411.715L246.236 369.262L260.12 360.394C259.497 361.875 259.989 363.632 261.377 364.555ZM287.597 411.44C287.105 411.181 286.575 411.056 286.048 411.049L282.29 352.944L347.279 321.809C347.474 322.138 347.725 322.435 348.03 322.69L287.597 411.44ZM348.014 317.448L314.088 283.748L340.129 264.496C340.32 264.708 340.536 264.902 340.783 265.068C341.402 265.48 342.107 265.658 342.795 265.63L349.45 316.739C348.93 316.857 348.436 317.095 348.014 317.448ZM339.755 263.989L313.638 283.298L295.877 265.654C295.952 265.564 296.021 265.469 296.086 265.37C296.427 264.859 296.607 264.287 296.645 263.71L339.286 262.623C339.342 263.103 339.502 263.567 339.756 263.985L339.755 263.989ZM274.824 227.975L276.419 260.293L251.579 256.605C251.63 255.662 251.292 254.724 250.61 254.029L273.031 227.516C273.593 227.842 274.213 227.992 274.821 227.977L274.824 227.975ZM272.517 227.15L250.127 253.625C250.105 253.61 250.085 253.593 250.063 253.578C248.496 252.535 246.379 252.964 245.336 254.532C245.256 254.654 245.184 254.781 245.121 254.91L177.931 229.154L171.556 226.712C171.638 226.494 171.696 226.269 171.731 226.045L271.37 225.079C271.491 225.866 271.88 226.608 272.516 227.154L272.517 227.15ZM165.03 226.233L135.946 233.506L129.91 204.805C130.951 204.794 131.966 204.306 132.625 203.415L165.213 224.222C164.945 224.871 164.892 225.569 165.031 226.228L165.03 226.233ZM58.9414 185.188C59.0727 185.276 59.207 185.348 59.3465 185.415L39.2105 239.343C38.9689 239.278 38.7226 239.239 38.4779 239.23L35.8355 182.027L57.4312 182.575C57.5017 183.598 58.0254 184.576 58.9458 185.188L58.9414 185.188ZM-20.8911 182.079C-20.5838 181.618 -20.4103 181.109 -20.3487 180.593L35.2019 182.005L37.8471 239.257C37.2308 239.342 36.6393 239.595 36.1474 240.001L-21.1156 182.379C-21.0357 182.284 -20.9594 182.185 -20.8911 182.079ZM41.4564 243.961C41.6046 243.608 41.6923 243.239 41.717 242.868L103.663 241.44C103.697 241.796 103.792 242.145 103.936 242.478L71.8371 260.289L41.4538 243.963L41.4564 243.961ZM104.244 243.027C104.485 243.381 104.796 243.694 105.173 243.948C106.3 244.696 107.706 244.684 108.796 244.04L148.073 300.545C147.909 300.683 147.755 300.837 147.616 301.012L72.4994 260.647L104.245 243.034L104.244 243.027ZM152.154 300.309C151.895 300.136 151.621 300.009 151.341 299.917L167.806 228.885C168.214 228.953 168.629 228.947 169.027 228.868L189.587 284.035L153.194 301.405C152.942 300.979 152.595 300.603 152.154 300.309ZM190.376 284.355L245.25 258.163C245.452 258.501 245.712 258.811 246.037 259.072L205.886 319.545C205.096 319.118 204.201 319.037 203.38 319.259L190.373 284.356L190.376 284.355ZM206.926 324.684L259.844 359.819L245.81 368.78L206.76 324.87C206.818 324.81 206.871 324.749 206.926 324.684ZM283.52 412.131C283.392 412.267 283.274 412.411 283.167 412.571C283.059 412.73 282.973 412.898 282.896 413.068L214.178 389.734L245.697 369.601L283.518 412.129L283.52 412.131ZM288.635 412.281C288.516 412.138 288.382 412.001 288.237 411.876L288.216 411.648L348.551 323.039C349.224 323.414 349.976 323.533 350.695 323.429L360.36 363.299L288.64 412.282L288.635 412.281ZM404.949 337.027L369.513 357.371C369.276 357.033 368.977 356.732 368.612 356.491C368.38 356.335 368.134 356.219 367.881 356.127L375.39 327.157L404.686 335.033C404.569 335.71 404.664 336.405 404.948 337.025L404.949 337.027ZM367.271 355.97C366.742 355.884 366.202 355.924 365.699 356.084L351.808 323.069C352.289 322.813 352.715 322.433 353.043 321.946C353.193 321.722 353.307 321.485 353.397 321.245L374.783 326.994L367.271 355.97ZM353.56 320.639C353.718 319.722 353.493 318.776 352.934 318.026L382.681 291.253C382.84 291.414 383.022 291.564 383.218 291.695C383.42 291.83 383.634 291.938 383.851 292.024L374.944 326.389L353.562 320.641L353.56 320.639ZM382.281 290.764L356.545 313.93L381.957 287.54C381.511 288.61 381.647 289.825 382.281 290.764ZM352.33 317.4C352.253 317.339 352.173 317.28 352.09 317.222C351.471 316.81 350.766 316.632 350.079 316.66L343.423 265.551C344.25 265.365 345.009 264.875 345.514 264.114C345.96 263.445 346.134 262.673 346.067 261.929L416.034 249.181C416.184 249.653 416.44 250.096 416.787 250.471L352.329 317.404L352.33 317.4ZM345.952 261.31C345.887 261.079 345.802 260.854 345.689 260.637L404.768 222.186L417.392 245.31C417.026 245.555 416.701 245.87 416.442 246.263C415.972 246.969 415.806 247.785 415.901 248.563L345.955 261.308L345.952 261.31ZM417.946 245.014L405.298 221.846L424.344 209.451C424.562 209.725 424.823 209.972 425.131 210.176C425.433 210.376 425.753 210.52 426.084 210.615L419.692 244.768C419.096 244.697 418.496 244.783 417.948 245.017L417.946 245.014ZM428.902 204.492C427.372 203.476 425.327 203.859 424.261 205.332L385.858 182.548L481.447 218.334L430.406 207.716C430.544 206.486 430.009 205.223 428.906 204.493L428.902 204.492ZM482.559 217.594C482.473 217.724 482.399 217.86 482.334 217.997L385.859 181.879C385.974 181.38 385.974 180.865 385.864 180.373L428.884 167.373L482.703 217.405C482.655 217.469 482.606 217.53 482.56 217.597L482.559 217.594ZM380.65 183.951C380.701 183.985 380.754 184.012 380.806 184.042L343.888 259.043C342.925 258.672 341.857 258.771 340.983 259.267L324.227 235.337L380.259 183.645C380.382 183.755 380.508 183.858 380.65 183.951ZM340.467 259.628C340.228 259.83 340.013 260.066 339.83 260.343C339.489 260.855 339.309 261.427 339.271 262.003L296.63 263.091C296.56 262.491 296.327 261.912 295.955 261.423L323.759 235.772L340.467 259.633L340.467 259.628ZM295.524 260.957C295.401 260.847 295.273 260.74 295.131 260.648C294.506 260.232 293.793 260.055 293.099 260.084L281.872 177.62C282.193 177.545 282.501 177.425 282.792 177.26L323.393 235.244L295.522 260.954L295.524 260.957ZM281.249 177.706L292.474 260.168C292.368 260.192 292.261 260.221 292.157 260.259L276.602 227.425C276.98 227.18 277.313 226.854 277.577 226.458C278.618 224.888 278.191 222.774 276.623 221.731C276.263 221.491 275.873 221.334 275.477 221.247L280.99 177.711C281.078 177.715 281.164 177.712 281.251 177.709L281.249 177.706ZM271.334 224.451L171.769 225.419C171.735 224.355 171.203 223.321 170.248 222.687C169.819 222.403 169.348 222.23 168.867 222.159L171.869 169.607C172.908 169.571 173.913 169.059 174.547 168.143L271.733 222.957C271.478 223.432 271.347 223.942 271.331 224.453L271.334 224.451ZM169.866 169.042C170.296 169.325 170.767 169.499 171.244 169.572L168.309 220.966L164.397 172.799L169.356 168.631C169.508 168.782 169.68 168.923 169.866 169.046L169.866 169.042ZM167.774 222.172C166.885 222.329 166.06 222.83 165.521 223.641C165.515 223.649 165.511 223.66 165.502 223.67L132.948 202.882C133.491 201.759 133.367 200.451 132.679 199.458L163.804 173.291L167.772 222.169L167.774 222.172ZM132.276 198.975C132.124 198.824 131.952 198.683 131.766 198.56C131.604 198.454 131.437 198.364 131.265 198.288L158.536 117.541C158.784 117.598 159.034 117.631 159.286 117.635L163.743 172.523L132.276 198.975ZM127.851 198.665C127.542 198.893 127.266 199.174 127.039 199.514C126.993 199.585 126.952 199.659 126.91 199.731L64.1859 182.926C64.3176 182.153 64.1772 181.36 63.7975 180.681L101.203 154.808L127.851 198.665ZM58.9262 179.519C58.5649 179.76 58.2421 180.079 57.9864 180.465C57.6791 180.926 57.5056 181.436 57.444 181.952L35.8055 181.402L33.668 135.165C33.9984 135.138 34.3215 135.061 34.6296 134.942L58.9254 179.523L58.9262 179.519ZM30.4741 133.54L-21.3558 177.755C-21.5041 177.609 -21.6679 177.474 -21.8461 177.357C-22.6636 176.815 -23.6265 176.675 -24.5107 176.882L-30.986 157.554L30.2659 133.144C30.3276 133.281 30.397 133.413 30.4759 133.543L30.4741 133.54ZM-31.7733 157.187L-71.9857 173.212C-72.2444 172.706 -72.6285 172.256 -73.1365 171.92C-73.258 171.84 -73.3818 171.773 -73.5082 171.708L-54.3336 121.976L-49.5054 109.45C-48.9281 109.611 -48.3246 109.611 -47.7594 109.469L-31.7751 157.184L-31.7733 157.187ZM-50.4787 109.009C-50.3554 109.092 -50.2255 109.163 -50.0921 109.227L-74.094 171.48C-74.2813 171.427 -74.4672 171.392 -74.658 171.372L-73.7226 107.182L-51.9825 106.527C-51.8789 107.504 -51.3592 108.427 -50.4787 109.009ZM-74.3426 106.571L-138.88 108.519C-138.949 107.965 -139.154 107.432 -139.483 106.967L-75.647 52.2005C-75.4219 52.5001 -75.1459 52.768 -74.8161 52.9866C-74.4277 53.245 -74.0029 53.4125 -73.5723 53.4952L-74.347 106.571L-74.3426 106.571ZM-76.3221 50.4406C-76.2837 50.8633 -76.1693 51.279 -75.979 51.6606L-139.889 106.49C-140.036 106.347 -140.198 106.215 -140.374 106.1C-140.818 105.807 -141.3 105.634 -141.794 105.565L-139.718 59.2709L-76.3203 50.4432L-76.3221 50.4406ZM-142.424 105.533C-142.989 105.56 -143.538 105.725 -144.026 106.021L-173.236 66.5439C-173.129 66.4227 -173.028 66.2982 -172.936 66.1607C-172.459 65.4425 -172.292 64.6108 -172.401 63.8187L-140.354 59.3554L-142.424 105.533ZM-174.435 67.4062L-156.106 110.848L-180.749 114.819C-180.952 114.031 -181.431 113.314 -182.162 112.83C-182.485 112.615 -182.832 112.466 -183.188 112.373L-175.853 67.6805C-175.366 67.6894 -174.884 67.5981 -174.435 67.4062ZM-181.549 117.985C-181.427 117.853 -181.311 117.71 -181.207 117.557C-180.774 116.908 -180.6 116.163 -180.649 115.441L-155.854 111.443L-128.417 176.475C-128.562 176.553 -128.705 176.645 -128.838 176.746L-181.549 117.985ZM-74.3006 190.288C-74.5242 189.557 -74.9908 188.896 -75.6763 188.439C-76.0079 188.218 -76.3677 188.066 -76.7357 187.974L-75.2285 178.158C-74.0568 178.229 -72.8796 177.692 -72.1841 176.644C-71.9317 176.264 -71.7682 175.85 -71.6827 175.429L-27.1457 180.149C-27.1478 180.289 -27.141 180.43 -27.1274 180.571L-74.3049 190.288L-74.3006 190.288ZM-22.5864 183.401C-22.2199 183.271 -21.8742 183.079 -21.5648 182.824L35.6982 240.446C35.6183 240.541 35.542 240.64 35.4736 240.746C34.4555 242.277 34.8439 244.33 36.324 245.396L7.75815 293.925C7.12168 293.626 6.42983 293.537 5.76686 293.644L-22.5838 183.399L-22.5864 183.401ZM9.70653 296.796C9.68172 296.398 9.58622 296.004 9.425 295.636L71.8395 261.006L146.095 300.908L9.70395 296.798L9.70653 296.796ZM153.562 303.999C153.738 303.323 153.695 302.615 153.461 301.972L189.802 284.626L202.788 319.477C202.254 319.736 201.778 320.131 201.427 320.661C201.331 320.805 201.253 320.952 201.184 321.104L153.564 304.002L153.562 303.999ZM205.039 325.864C205.484 325.759 205.909 325.565 206.286 325.29L245.268 369.125L213.696 389.292L205.036 325.865L205.039 325.864ZM292.692 465.166C292.126 465.274 291.584 465.527 291.133 465.908L214.654 390.562L282.694 413.663C282.372 415.014 282.897 416.483 284.121 417.298C285.377 418.132 286.979 418.021 288.105 417.144L292.697 465.167L292.692 465.166ZM374.046 417.116L361.069 363.576L364.095 361.51C364.302 361.761 364.549 361.988 364.835 362.176C365.454 362.588 366.163 362.768 366.855 362.74L374.048 417.119L374.046 417.116ZM406.265 332.705C405.853 332.956 405.485 333.298 405.201 333.727C405.051 333.951 404.939 334.187 404.847 334.428L375.544 326.549L384.449 292.197C385.076 292.319 385.72 292.256 386.311 292.035L406.265 332.705ZM386.931 285.979C385.917 285.332 384.687 285.287 383.665 285.76L412.652 255.661L386.934 285.977L386.931 285.979ZM486.339 216.199C485.217 215.875 483.997 216.153 483.12 216.936L429.57 167.158L513.195 141.888C513.444 142.501 513.874 143.049 514.467 143.445C514.582 143.522 514.701 143.589 514.82 143.648L486.337 216.201L486.339 216.199ZM512.955 140.788C512.964 140.954 512.982 141.122 513.016 141.287L429.041 166.66L398.326 138.105C398.364 138.055 398.402 138.005 398.438 137.953C398.774 137.449 398.954 136.889 398.997 136.325L512.955 140.788ZM394.788 139.38C395.886 139.648 397.059 139.353 397.902 138.575L428.339 166.871L385.662 179.765C385.409 179.174 384.989 178.646 384.415 178.264C384.228 178.141 384.034 178.039 383.834 177.956L394.788 139.38ZM379.12 181.091C379.117 181.839 379.36 182.575 379.824 183.177L323.854 234.81L283.302 176.895C283.541 176.693 283.756 176.458 283.939 176.18C284.216 175.759 284.387 175.301 284.463 174.833L379.118 181.089L379.12 181.091ZM168.906 164.311C168.112 165.509 168.174 167.026 168.947 168.141L164.33 172.023L159.966 118.277L170.652 162.974C169.962 163.207 169.34 163.658 168.905 164.316L168.906 164.311ZM155.992 114.95C156.065 115.279 156.185 115.598 156.352 115.892L101.392 153.908L84.68 126.403C84.9892 126.175 85.2674 125.891 85.4919 125.554C85.898 124.943 86.0795 124.247 86.0551 123.565L155.992 114.95ZM79.3532 124.53C79.5562 125.314 80.0363 126.027 80.7625 126.51C80.8938 126.598 81.0325 126.67 81.172 126.738L61.7126 179.059C60.964 178.857 60.1778 178.919 59.4764 179.218L35.1889 134.654C35.5875 134.405 35.9449 134.071 36.22 133.651C36.6539 132.998 36.8307 132.252 36.7757 131.525L79.3514 124.527L79.3532 124.53ZM30.0622 130.993C29.9421 131.507 29.9455 132.039 30.0644 132.543L-31.1875 156.953L-47.1625 109.262C-46.6068 109.007 -46.1104 108.602 -45.7492 108.053C-45.6134 107.847 -45.5038 107.636 -45.4172 107.414L30.0673 130.989L30.0622 130.993ZM-50.1873 103.153C-50.6757 103.41 -51.1089 103.791 -51.4374 104.282C-51.77 104.784 -51.9512 105.337 -51.9934 105.897L-73.7152 106.551L-72.9405 53.5524C-72.5947 53.5524 -72.2492 53.5025 -71.9214 53.3998L-50.1873 103.153ZM-140.606 26.0625C-140.467 26.1956 -140.317 26.317 -140.151 26.4276C-139.761 26.6885 -139.336 26.856 -138.901 26.9395L-140.325 58.7164L-172.543 63.2037C-172.696 62.7382 -172.951 62.3022 -173.3 61.9355L-140.605 26.0651L-140.606 26.0625Z" fill="#357E94"/>
<rect width="221.316" height="120.352" rx="10.23" transform="matrix(-1 0 0 1 242.316 31)" fill="#B4185C"/>
<path fill-rule="evenodd" clip-rule="evenodd" d="M238.424 38.8689C244.074 38.8689 248.654 43.449 248.654 49.0989V100.989C264.04 109.415 270.033 119.519 276.231 141.191C275.988 140.99 275.747 140.791 275.508 140.593C265.186 132.049 258.574 126.577 248.654 128.182V148.991C248.654 154.641 244.074 159.221 238.424 159.221H37.568C31.9181 159.221 27.338 154.641 27.338 148.991V49.0989C27.338 43.449 31.9181 38.8689 37.568 38.8689H238.424Z" fill="#F29EC3"/>
<path d="M217.277 59.972H60.2473" stroke="white" stroke-width="1.5" stroke-linecap="round" stroke-linejoin="round"/>
<path d="M217.277 71.0615H60.2473" stroke="white" stroke-width="1.5" stroke-linecap="round" stroke-linejoin="round"/>
<path d="M217.277 82.1492H60.2473" stroke="white" stroke-width="1.5" stroke-linecap="round" stroke-linejoin="round"/>
<path d="M217.277 93.2385H60.2473" stroke="white" stroke-width="1.5" stroke-linecap="round" stroke-linejoin="round"/>
<path d="M217.277 104.326H160.045" stroke="white" stroke-width="1.5" stroke-linecap="round" stroke-linejoin="round"/>
<path d="M217.277 116.13H160.045" stroke="white" stroke-width="1.5" stroke-linecap="round" stroke-linejoin="round"/>
<path d="M217.277 127.934H160.045" stroke="white" stroke-width="1.5" stroke-linecap="round" stroke-linejoin="round"/>
<path d="M217.277 139.739H160.045" stroke="white" stroke-width="1.5" stroke-linecap="round" stroke-linejoin="round"/>
<rect x="-0.5" y="0.5" width="89.8557" height="36.9161" transform="matrix(-1 0 0 1 150.103 102.538)" fill="white" stroke="white"/>
<path d="M79.8146 303.966C75.3825 308.715 68.6076 322.201 76.9654 338.157C87.4126 358.101 116.38 372.347 114.955 393.717C115.058 397.991 112.51 409.862 101.493 423.159C90.4763 436.455 108.142 452.443 118.114 459.249" stroke="#BF8888" stroke-width="1.5" stroke-linecap="round"/>
<path d="M90.5335 289.023L164.883 229.646C164.979 230.991 173.728 243.099 178.091 248.984C153.248 263.992 102.434 294.766 97.9181 297.792C92.273 301.574 90.2322 296.65 89.2117 294.187L89.2117 294.187C88.3953 292.218 89.7527 289.924 90.5335 289.023Z" fill="#F8D2A0"/>
<circle cx="179.053" cy="232.412" r="21.0323" transform="rotate(-4.07687 179.053 232.412)" fill="#FBE4C6"/>
<rect x="81.6406" y="308.732" width="9.04621" height="14.5855" rx="1.77485" transform="rotate(-128.075 81.6406 308.732)" fill="#F8D2A0"/>
<rect x="85.666" y="291.878" width="5.05696" height="11.6942" rx="2.52848" transform="rotate(-33.7539 85.666 291.878)" fill="#FBE4C6"/>
<path d="M138.533 457.825C136.956 457.825 135.684 456.718 135.684 455.348V273.203C135.684 271.832 136.956 270.726 138.533 270.726C140.109 270.726 141.382 271.832 141.382 273.203V455.348C141.382 456.718 140.109 457.825 138.533 457.825Z" fill="#BF8888"/>
<path d="M138.449 250.758L121.896 264.18C121.614 264.409 121.473 264.774 121.563 265.126C123.008 270.791 130.483 273.544 134.834 274.378C135.321 274.471 135.685 274.89 135.685 275.386V275.422C135.685 275.975 136.132 276.422 136.685 276.422H140.383C140.935 276.422 141.383 275.975 141.383 275.422V273.123C141.383 272.809 141.531 272.512 141.783 272.323L148.605 267.207C148.843 267.029 148.992 266.751 148.995 266.453C149.085 259.125 143.141 253.171 139.605 250.703C139.253 250.457 138.784 250.487 138.449 250.758Z" fill="#BF8888"/>
<path d="M166.976 442.228H94.8938C89.0968 442.228 84.3975 445.163 84.3975 448.785V453.716C84.3975 457.337 89.0968 460.273 94.8938 460.273H166.976C172.773 460.273 177.472 457.337 177.472 453.716V448.785C177.472 445.163 172.773 442.228 166.976 442.228Z" fill="#DF8711"/>
<path d="M239.843 417.594L232.714 460.372H380.399L374.287 415.558L239.843 417.594Z" fill="#9F5656"/>
<path d="M391.448 268.615C391.448 268.615 403.828 270.266 407.956 275.218C412.082 280.17 436.017 373.434 436.017 373.434L388.973 406.447L360.912 358.578L391.45 268.615H391.448Z" fill="#BF8888"/>
<path d="M382.37 428.733L376.593 377.563L391.449 268.617L355.582 255.888L303.965 327.766L251.877 258.868L236.683 265.025C222.255 270.872 214.334 286.452 218.109 301.555L228.856 375.911L230.677 428.733H382.37Z" fill="#BF8888"/>
<path d="M355.581 255.884L341.654 251.559L303.138 245.505L266.347 252.274L251.874 258.866L303.962 327.764L355.581 255.884Z" fill="#BF8888"/>
<path d="M328.481 228.935H280.994V253.628H328.481V228.935Z" fill="#FFBE97"/>
<path d="M297.14 241.937C311.819 243.955 320.538 230.92 328.481 230.36V240.333C324.514 244.368 306.264 248.393 297.14 241.937Z" fill="#4F2B2B"/>
<path d="M335.002 164.263C335.002 164.263 349.756 146.302 376.057 160.415C402.359 174.527 392.095 199.867 420.32 202.753C420.32 202.753 376.057 223.28 346.228 186.716L335.002 164.263Z" fill="#4F2B2B"/>
<path d="M255.702 206.141C234.225 181.253 263.076 163.219 263.076 163.219C263.076 163.219 272.219 139.265 308.597 144.103C343.859 148.792 352.835 174.04 352.194 201.813L255.702 206.141Z" fill="#4F2B2B"/>
<path d="M258.201 210.414C257.909 210.414 255.316 206.958 255.11 206.721C248.742 199.338 246.013 191.771 247.001 184.226C248.677 171.445 260.394 163.174 262.482 161.792C263.913 158.645 274.841 137.635 309.255 142.205C339.823 146.272 354.909 166.239 354.093 201.55C354.079 202.189 353.625 202.704 353.059 202.731L258.676 211.364C260.662 214.215 261.425 215.165 258.676 211.364L258.201 210.414ZM299.85 143.983C272.049 143.983 264.378 162.93 264.297 163.14C264.203 163.384 264.037 163.591 263.832 163.719C263.702 163.801 250.773 172.038 249.135 184.591C248.27 191.215 250.689 197.96 256.328 204.641L351.962 200.351C352.419 166.756 338.359 148.52 309.005 144.615C305.735 144.179 302.687 143.982 299.85 143.982V143.983Z" fill="#4F2B2B"/>
<path d="M347.372 195.707C346.734 195.742 346.114 195.854 345.513 196.018C344.23 175.519 331.039 154.859 306.605 151.452C282.072 148.033 259.877 167.209 256.728 190.492C253.576 213.775 268.111 237.215 292.535 241.538C313.098 245.179 334.108 234.11 342.12 216.626C343.882 218.035 346.046 218.82 348.36 218.689C353.909 218.376 358.185 212.979 357.911 206.633C357.637 200.285 352.919 195.393 347.37 195.707H347.372Z" fill="#FFBE97"/>
<path d="M310.316 199.252C310.271 201.262 311.276 202.912 312.556 202.941C313.836 202.969 314.909 201.363 314.948 199.353C314.993 197.343 313.988 195.692 312.708 195.664C311.428 195.636 310.355 197.241 310.316 199.252Z" fill="#4F2B2B"/>
<path d="M278.828 199.077C278.783 201.087 279.788 202.737 281.068 202.765C282.348 202.794 283.421 201.188 283.46 199.178C283.505 197.167 282.5 195.517 281.22 195.489C279.939 195.461 278.867 197.066 278.828 199.077Z" fill="#4F2B2B"/>
<path d="M267.697 192.445C271.338 188.963 280.519 184.277 288.117 193.395" stroke="#4F2B2B" stroke-width="1.5" stroke-linecap="round" stroke-linejoin="round"/>
<path d="M305.688 191.495C309.328 188.013 318.509 183.327 326.107 192.445" stroke="#4F2B2B" stroke-width="1.5" stroke-linecap="round" stroke-linejoin="round"/>
<path d="M277.075 215.395C268.237 215.395 261.05 208.208 261.05 199.37C261.05 190.532 268.237 183.345 277.075 183.345C285.912 183.345 293.099 190.532 293.099 199.37C293.099 208.208 285.912 215.395 277.075 215.395ZM277.075 184.715C268.995 184.715 262.425 191.29 262.425 199.365C262.425 207.439 269 214.014 277.075 214.014C285.149 214.014 291.724 207.439 291.724 199.365C291.724 191.29 285.149 184.715 277.075 184.715Z" fill="white"/>
<path d="M315.424 215.395C306.586 215.395 299.399 208.208 299.399 199.37C299.399 190.532 306.586 183.345 315.424 183.345C324.262 183.345 331.449 190.532 331.449 199.37C331.449 208.208 324.262 215.395 315.424 215.395ZM315.424 184.715C307.344 184.715 300.775 191.29 300.775 199.365C300.775 207.439 307.35 214.014 315.424 214.014C323.498 214.014 330.073 207.439 330.073 199.365C330.073 191.29 323.498 184.715 315.424 184.715Z" fill="white"/>
<path d="M301.028 195.124C297.311 194.243 294.178 194.243 291.455 195.108L291.039 193.794C294.009 192.85 297.378 192.845 301.348 193.777L301.033 195.119L301.028 195.124Z" fill="white"/>
<path d="M292.223 214.603C292.015 214.603 291.808 214.508 291.673 214.328L286.939 208.062L295.491 195.771C295.71 195.456 296.137 195.383 296.451 195.597C296.765 195.816 296.838 196.242 296.625 196.557L288.641 208.034L292.773 213.508C293.003 213.811 292.942 214.244 292.639 214.474C292.515 214.569 292.369 214.614 292.223 214.614V214.603Z" fill="#4F2B2B"/>
<path d="M311.385 226.086C311.069 229.41 307.207 235.298 294.29 232.259" stroke="#4F2B2B" stroke-width="1.5" stroke-linecap="round" stroke-linejoin="round"/>
<path d="M352.209 209.528L346.405 209.815C345.471 209.861 344.675 209.14 344.629 208.204C344.583 207.27 345.303 206.474 346.239 206.428L352.043 206.142C352.977 206.096 353.773 206.816 353.819 207.752C353.865 208.686 353.145 209.482 352.209 209.528Z" fill="#4F2B2B"/>
<path d="M279.785 219.454C279.794 217.379 276.674 215.684 272.816 215.667C268.959 215.65 265.824 217.318 265.815 219.393C265.806 221.468 268.926 223.163 272.784 223.18C276.641 223.197 279.776 221.529 279.785 219.454Z" fill="#FF9D6C"/>
<path d="M329.99 219.458C329.999 217.384 326.879 215.688 323.021 215.672C319.164 215.655 316.029 217.323 316.02 219.397C316.011 221.472 319.131 223.167 322.989 223.184C326.846 223.201 329.981 221.533 329.99 219.458Z" fill="#FF9D6C"/>
<path d="M274.57 148.953C274.57 148.953 247.433 168.557 250.912 193.125L258.676 211.362C258.676 211.362 250.216 185.837 274.57 177.646C274.57 177.646 274.604 183.518 291.443 188.569C293.722 189.252 296.815 179.891 295.716 177.646C295.716 177.646 302.562 185.124 309.295 185.372C311.794 185.464 313.532 182.721 312.506 180.28L312.376 179.97C312.376 179.97 333.318 203.901 347.003 195.217C347.003 195.217 345.079 118.678 274.57 148.951V148.953Z" fill="#4F2B2B"/>
<path d="M300.11 251.834H309.463L318.267 263.388L314.14 271.641L296.258 271.366L292.406 263.114L300.11 251.834Z" fill="#9F5656"/>
<path d="M296.259 271.367L288.006 306.306L303.962 327.765L322.396 302.454L314.141 271.641L296.259 271.367Z" fill="#9F5656"/>
<path d="M314.14 272.713H314.124L296.242 272.439C295.832 272.432 295.46 272.192 295.288 271.82L291.438 263.568C291.278 263.224 291.309 262.823 291.523 262.51L299.227 251.231C299.427 250.938 299.758 250.764 300.111 250.764H309.466C309.802 250.764 310.116 250.92 310.32 251.185L319.124 262.74C319.37 263.066 319.413 263.503 319.229 263.87L315.103 272.123C314.92 272.487 314.548 272.715 314.144 272.715L314.14 272.713ZM296.946 270.306L313.484 270.561L317.012 263.508L308.935 252.907H300.677L293.638 263.216L296.947 270.307L296.946 270.306Z" fill="#9F5656"/>
<path d="M279.657 240.243L267.277 251.522L283.508 272.431L299.465 251.799L279.657 240.243Z" fill="#FBE4C6"/>
<path d="M329.948 239.571L342.329 250.85L326.098 271.759L310.14 251.127L329.948 239.571Z" fill="#FBE4C6"/>
<path d="M303.962 328.839C303.623 328.839 303.304 328.679 303.102 328.406L287.144 306.948C286.955 306.695 286.889 306.371 286.961 306.064L295.214 271.123C295.351 270.546 295.928 270.195 296.504 270.325C297.081 270.462 297.438 271.039 297.301 271.615L289.162 306.068L303.952 325.959L321.226 302.24L313.106 271.92C312.953 271.35 313.292 270.761 313.865 270.608C314.435 270.457 315.026 270.795 315.177 271.366L323.43 302.179C323.514 302.491 323.451 302.825 323.262 303.087L304.831 328.398C304.628 328.674 304.23 328.779 303.964 328.839H303.962Z" fill="#9F5656"/>
<path d="M437.668 376.735C433.696 363.826 404.655 335.467 404.655 335.467L373.291 362.703C373.291 362.703 373.877 385.938 379.069 398.193C399.703 446.888 447.572 408.923 437.668 376.733V376.735Z" fill="#BF8888"/>
<path d="M346.381 368.827L350.993 364.809L346.381 362.8V368.827Z" fill="#4F2B2B"/>
<path d="M393.701 269.765C394.296 268.317 394.293 266.722 393.689 265.278C393.095 263.852 391.987 262.739 390.568 262.137C390.548 262.129 390.53 262.12 390.51 262.112C387.52 260.882 384.088 262.313 382.858 265.303L378.453 276.005L389.295 280.466L393.699 269.765H393.701Z" fill="#F8D2A0"/>
<path d="M346.306 363.232L350.994 365.145L357.021 358.782L346.507 354.094L346.306 363.232Z" fill="#FBE4C6"/>
<path d="M378.592 275.988L346.366 354.292L357.188 358.801L389.433 280.45L378.592 275.988Z" fill="#DF8711"/>
<path d="M387.683 301.767L360.374 298.408C358.262 298.137 356.282 299.273 355.418 301.202C354.802 302.576 354.812 304.258 355.446 305.704C355.992 306.947 356.927 307.844 358.076 308.224C358.162 308.251 358.227 308.306 358.298 308.35L378.541 312.477C379.121 312.597 379.495 313.161 379.376 313.741C379.258 314.324 378.69 314.699 378.111 314.578L355.958 310.062C353.488 309.641 351.119 311.353 350.703 313.855C350.509 315.024 350.859 316.304 351.665 317.365C352.473 318.427 353.636 319.154 354.858 319.356C355.009 319.381 355.145 319.438 355.265 319.517L376.648 323.876C377.228 323.996 377.602 324.56 377.483 325.14C377.365 325.723 376.794 326.098 376.218 325.978L354.065 321.461C351.596 321.037 349.225 322.752 348.809 325.256C348.608 326.468 348.891 327.685 349.606 328.686C350.322 329.686 351.382 330.347 352.596 330.55L374.788 335.073C375.368 335.193 375.741 335.757 375.623 336.337C375.505 336.919 374.94 337.296 374.358 337.174L352.205 332.658C349.754 332.249 347.365 333.948 346.948 336.452C346.74 337.712 347.027 339.095 347.736 340.252C348.453 341.418 349.481 342.166 350.634 342.357L361.994 346.138C362.288 346.238 362.527 346.46 362.645 346.746L364.046 350.157C366.676 356.562 372.26 361.367 378.985 363.014C387.552 365.107 396.367 361.999 401.444 355.08C405.266 349.874 407.103 345.192 406.906 341.166C406.715 339.748 400.47 320.647 396.384 308.797C395.058 304.959 391.724 302.265 387.683 301.77V301.767Z" fill="#FFBE97"/>
<path d="M387.945 299.641L360.635 296.283C357.601 295.916 354.716 297.535 353.463 300.324C352.601 302.243 352.609 304.577 353.483 306.565C353.706 307.075 353.989 307.534 354.302 307.958C351.465 308.36 349.082 310.534 348.588 313.502C348.297 315.252 348.797 317.132 349.958 318.662C350.254 319.052 350.59 319.407 350.95 319.728C348.787 320.558 347.1 322.459 346.695 324.903C346.401 326.679 346.815 328.467 347.863 329.933C348.151 330.334 348.483 330.689 348.84 331.013C346.797 331.891 345.227 333.748 344.835 336.098C344.542 337.86 344.934 339.782 345.911 341.371C346.957 343.075 348.511 344.175 350.118 344.429L360.849 348.014L362.065 350.971C364.953 358.007 371.089 363.286 378.475 365.094C380.419 365.571 382.376 365.801 384.305 365.801C391.714 365.801 398.735 362.392 403.171 356.347C407.293 350.736 409.27 345.591 409.047 341.06C408.972 339.547 401.531 317.147 398.41 308.096C396.815 303.477 392.805 300.238 387.945 299.641ZM401.444 355.078C396.366 361.997 387.55 365.105 378.985 363.012C372.26 361.365 366.676 356.56 364.046 350.155L362.645 346.744C362.527 346.458 362.29 346.236 361.994 346.136L350.634 342.355C349.481 342.164 348.453 341.416 347.736 340.25C347.027 339.095 346.74 337.71 346.949 336.45C347.365 333.946 349.754 332.245 352.205 332.656L374.358 337.172C374.941 337.294 375.505 336.917 375.623 336.335C375.742 335.756 375.368 335.191 374.788 335.07L352.596 330.548C351.384 330.347 350.322 329.686 349.606 328.684C348.891 327.684 348.608 326.466 348.809 325.254C349.225 322.75 351.596 321.035 354.065 321.459L376.219 325.976C376.794 326.096 377.365 325.721 377.483 325.138C377.602 324.56 377.228 323.994 376.648 323.874L355.266 319.515C355.146 319.436 355.009 319.379 354.858 319.354C353.636 319.152 352.473 318.425 351.665 317.362C350.858 316.302 350.508 315.022 350.703 313.853C351.119 311.351 353.488 309.639 355.958 310.06L378.111 314.576C378.689 314.697 379.258 314.322 379.376 313.739C379.495 313.16 379.121 312.595 378.541 312.475L358.298 308.348C358.226 308.302 358.16 308.249 358.076 308.221C356.927 307.84 355.993 306.945 355.446 305.702C354.812 304.256 354.802 302.574 355.419 301.2C356.284 299.271 358.262 298.135 360.374 298.406L387.683 301.765C391.724 302.261 395.058 304.954 396.384 308.792C400.471 320.642 406.715 339.745 406.906 341.161C407.103 345.187 405.266 349.869 401.444 355.074V355.078Z" fill="#FFBE97"/>
<path d="M355.682 309.218L375.975 313.097C377.577 313.404 379.024 314.256 380.068 315.509L381.802 317.59" stroke="#4F2B2B" stroke-width="1.41034" stroke-linecap="round"/>
<path d="M351.648 321.275L371.941 325.155C373.543 325.461 374.99 326.314 376.034 327.567L377.768 329.647" stroke="#4F2B2B" stroke-width="1.41034" stroke-linecap="round"/>
<path d="M349.638 331.32L369.931 335.2C371.533 335.506 372.98 336.359 374.024 337.612L375.758 339.692" stroke="#4F2B2B" stroke-width="1.41034" stroke-linecap="round"/>
<path d="M309.74 280.721H193.643L212.9 407.273H328.998L309.74 280.721Z" fill="#FCE9CC"/>
<path d="M196.979 350.6L213.133 346.531C216.73 345.623 219.032 342.053 218.373 338.402C217.715 334.749 214.309 332.198 210.625 332.614C210.458 332.632 210.304 332.606 210.159 332.557C209.809 332.637 209.465 332.738 209.1 332.777L194.178 334.399C194.139 334.407 194.107 334.43 194.066 334.435C192.094 334.652 190.353 335.647 189.165 337.237C187.978 338.828 187.517 340.78 187.869 342.734L188.274 344.984C188.626 346.939 189.739 348.607 191.407 349.682C193.074 350.758 195.056 351.085 196.979 350.599V350.6Z" fill="#FFBE97"/>
<path d="M192.306 332.447L208.866 330.647C212.554 330.246 215.326 327.026 215.18 323.32C215.034 319.613 212.014 316.627 208.305 316.52L191.653 316.038C191.583 316.036 191.512 316.033 191.441 316.033C189.535 316.033 187.757 316.776 186.41 318.136C185.014 319.549 184.29 321.418 184.369 323.403L184.46 325.685C184.539 327.669 185.41 329.476 186.915 330.771C188.418 332.067 190.333 332.66 192.306 332.445V332.447Z" fill="#FFBE97"/>
<path d="M215.111 361.833C215.111 361.833 215.111 361.833 215.114 361.833L215.257 361.78C218.499 360.606 220.295 357.09 219.347 353.778C218.4 350.465 215.015 348.423 211.644 349.148C211.596 349.158 211.55 349.145 211.502 349.148L197.5 352.674C197.232 352.741 196.962 352.782 196.691 352.825C194.687 353.259 192.977 354.437 192 356.064C191.148 357.481 190.939 359.067 191.393 360.655L191.982 362.716C192.49 364.491 193.674 365.928 195.317 366.769C196.959 367.607 198.819 367.726 200.556 367.099L215.111 361.831V361.833Z" fill="#FFBE97"/>
<path d="M215.812 363.859C215.812 363.859 215.808 363.859 215.807 363.859L203.437 368.336C203.349 368.403 203.256 368.469 203.145 368.507C201.796 368.973 200.801 369.856 200.263 371.06C199.692 372.344 199.715 373.849 200.331 375.3L201.028 376.944C201.608 378.313 202.697 379.349 204.095 379.86C205.495 380.368 206.993 380.28 208.32 379.607L219.94 373.707C222.42 372.451 223.512 369.461 222.427 366.902C221.321 364.293 218.415 362.96 215.81 363.859H215.812Z" fill="#FFBE97"/>
<path d="M219.233 361.656C221.349 359.475 222.292 356.276 221.407 353.188C220.637 350.494 218.652 348.456 216.201 347.489C219.353 345.545 221.167 341.833 220.481 338.021C219.839 334.461 217.196 331.708 213.891 330.773C216.086 328.991 217.442 326.238 217.321 323.235C217.131 318.406 213.197 314.517 208.368 314.375L191.716 313.893C189.188 313.818 186.68 314.816 184.887 316.628C183.096 318.441 182.127 320.939 182.228 323.485L182.318 325.768C182.42 328.315 183.586 330.73 185.515 332.394C186.566 333.299 187.816 333.914 189.135 334.271C188.512 334.762 187.928 335.307 187.446 335.952C185.922 337.994 185.307 340.603 185.757 343.111L186.162 345.361C186.614 347.869 188.103 350.099 190.242 351.48C190.925 351.921 191.665 352.252 192.43 352.497C191.527 353.181 190.739 353.998 190.162 354.957C189.014 356.868 188.719 359.102 189.331 361.245L189.92 363.305C190.583 365.623 192.194 367.58 194.339 368.675C195.579 369.31 196.946 369.629 198.316 369.629C198.424 369.629 198.531 369.606 198.64 369.601C198.528 369.797 198.393 369.978 198.301 370.185C197.485 372.016 197.503 374.127 198.352 376.134L199.049 377.778C199.854 379.673 201.423 381.163 203.355 381.87C204.179 382.171 205.046 382.321 205.909 382.321C207.074 382.321 208.233 382.051 209.286 381.517L220.905 375.617C224.385 373.851 225.918 369.655 224.395 366.062C223.426 363.781 221.463 362.204 219.228 361.653L219.233 361.656ZM186.915 330.773C185.41 329.477 184.539 327.671 184.46 325.687L184.369 323.404C184.29 321.421 185.015 319.551 186.41 318.138C187.757 316.778 189.537 316.035 191.441 316.035C191.512 316.035 191.583 316.036 191.653 316.04L208.305 316.522C212.013 316.628 215.034 319.615 215.18 323.322C215.328 327.029 212.555 330.248 208.866 330.649L192.306 332.448C190.333 332.664 188.418 332.07 186.915 330.774V330.773ZM191.405 349.681C189.737 348.606 188.624 346.938 188.272 344.982L187.867 342.732C187.515 340.78 187.976 338.826 189.163 337.236C190.351 335.646 192.092 334.651 194.064 334.434C194.105 334.429 194.138 334.406 194.176 334.397L209.098 332.776C209.463 332.736 209.807 332.636 210.157 332.555C210.302 332.605 210.458 332.629 210.623 332.613C214.307 332.197 217.713 334.748 218.371 338.4C219.029 342.05 216.726 345.62 213.131 346.53L196.977 350.599C195.054 351.084 193.073 350.758 191.405 349.683V349.681ZM195.318 366.769C193.675 365.93 192.49 364.491 191.982 362.717L191.393 360.656C190.94 359.067 191.148 357.482 192 356.064C192.977 354.436 194.688 353.258 196.691 352.826C196.962 352.783 197.234 352.742 197.5 352.674L211.503 349.148C211.55 349.145 211.595 349.158 211.644 349.148C215.016 348.421 218.399 350.464 219.348 353.778C220.295 357.09 218.499 360.607 215.257 361.781L215.114 361.833C215.114 361.833 215.114 361.833 215.111 361.833L200.556 367.101C198.819 367.728 196.961 367.61 195.318 366.771V366.769ZM219.94 373.706L208.32 379.606C206.993 380.277 205.493 380.367 204.095 379.859C202.699 379.347 201.608 378.313 201.028 376.943L200.331 375.298C199.715 373.848 199.692 372.343 200.263 371.058C200.799 369.853 201.796 368.97 203.145 368.506C203.256 368.468 203.348 368.402 203.437 368.335L215.807 363.858C215.807 363.858 215.81 363.858 215.812 363.858C218.415 362.958 221.323 364.294 222.428 366.901C223.514 369.46 222.422 372.451 219.941 373.706H219.94Z" fill="#FFBE97"/>
<path d="M183.496 342.437C179.017 316.034 187.298 313.815 193.587 314.749L208.945 378.888C209.383 380.757 207.889 384.728 197.007 381.924C186.125 379.121 185.497 354.237 183.496 342.437Z" fill="#FFBE97"/>
<path d="M213.798 331.326L197.625 332.029" stroke="#4F2B2B" stroke-width="1.41034" stroke-linecap="round"/>
<path d="M215.808 347.399L199.635 350.078" stroke="#4F2B2B" stroke-width="1.41034" stroke-linecap="round"/>
<path d="M219.156 362.134L203.653 366.152" stroke="#4F2B2B" stroke-width="1.41034" stroke-linecap="round"/>
<path d="M417.298 347.065C424.218 355.325 439.064 373.854 438.394 377.537" stroke="#4F2B2B" stroke-width="1.41034" stroke-linecap="round"/>
</g>
<defs>
<clipPath id="clip0_761_8502">
<rect width="460" height="460" fill="white"/>
</clipPath>
</defs>
</svg>
