<svg width="460" height="460" viewBox="0 0 460 460" fill="none" xmlns="http://www.w3.org/2000/svg">
<g clip-path="url(#clip0_761_12645)">
<rect width="460" height="460" fill="white"/>
<path d="M693.715 190.221C692.304 190.78 690.748 190.355 689.799 189.276L624.246 237.089C624.342 237.248 624.427 237.416 624.499 237.592C625.21 239.394 624.328 241.428 622.529 242.141C620.73 242.854 618.694 241.97 617.981 240.171C617.867 239.883 617.798 239.59 617.762 239.296L572.703 240.46C572.614 241.769 571.798 242.972 570.498 243.485C568.699 244.198 566.663 243.315 565.95 241.516C565.637 240.72 565.634 239.877 565.882 239.123L520.527 219.272C520.146 219.959 519.536 220.524 518.749 220.838C517.895 221.174 516.991 221.149 516.198 220.845L464.135 325.625C464.756 326.006 465.265 326.585 465.555 327.314C466.268 329.113 465.385 331.149 463.586 331.862C461.787 332.576 459.75 331.692 459.037 329.893C458.831 329.368 458.763 328.826 458.809 328.301L319.629 303.074C320.105 304.78 319.224 306.606 317.541 307.273C315.742 307.986 313.706 307.102 312.992 305.303C312.927 305.138 312.88 304.974 312.843 304.806L261.312 311.824C261.373 313.275 260.528 314.669 259.102 315.233C258.385 315.517 257.631 315.543 256.937 315.364L234.683 377.265L235.564 377.161L234.466 377.862L234.331 378.235L234.154 378.06L140.188 438.089C140.239 438.192 140.288 438.296 140.333 438.406C141.046 440.205 140.162 442.241 138.363 442.954C136.564 443.667 134.528 442.783 133.815 440.984C133.101 439.185 133.985 437.149 135.784 436.436C136.453 436.171 137.157 436.129 137.811 436.271L152.849 388.463C152.806 388.379 152.766 388.293 152.73 388.203C152.551 387.755 152.476 387.289 152.485 386.834L67.9957 377.11C67.7599 378.224 66.9933 379.2 65.8559 379.65C64.0569 380.363 62.0207 379.479 61.3075 377.68C60.5943 375.881 61.4781 373.845 63.277 373.132C63.9874 372.85 64.7392 372.821 65.4266 372.999L85.1474 317.418C84.3611 317.054 83.704 316.401 83.3591 315.529C82.8963 314.359 83.1099 313.093 83.8043 312.154L52.5244 284.127C52.2144 284.417 51.849 284.656 51.4312 284.82C49.6322 285.533 47.5959 284.649 46.8827 282.85C46.1696 281.051 47.0533 279.015 48.8523 278.302C49.9455 277.87 51.1235 278.028 52.0414 278.619L80.7947 241.994C80.4335 241.654 80.1391 241.234 79.9435 240.74C79.304 239.124 79.9507 237.322 81.3912 236.452L58.7906 194.493C56.9995 195.176 54.9884 194.296 54.2816 192.509C53.5684 190.71 54.4522 188.673 56.2512 187.96C56.5645 187.836 56.8853 187.763 57.2068 187.733L58.081 152.014C56.8431 151.867 55.722 151.064 55.232 149.822C55.1037 149.499 55.0305 149.169 55.0031 148.841L0.685266 148.606C0.560931 149.872 -0.246275 151.027 -1.51126 151.526C-3.31025 152.239 -5.34649 151.355 -6.05969 149.556C-6.77289 147.757 -5.88913 145.721 -4.09014 145.008C-3.95782 144.955 -3.82598 144.916 -3.69194 144.88L-16.8279 65.8484C-18.3151 65.9567 -19.7639 65.1004 -20.3403 63.6427C-21.0535 61.8437 -20.1697 59.8074 -18.3707 59.0942C-16.5717 58.381 -14.5355 59.2648 -13.8223 61.0638C-13.6182 61.5768 -13.5498 62.1103 -13.5907 62.6262L101.972 82.5026C102.287 81.5499 103.004 80.7394 104.009 80.3418C105.808 79.6286 107.844 80.5124 108.557 82.3114C109.271 84.1104 108.387 86.1466 106.588 86.8598C106.409 86.9291 106.227 86.98 106.044 87.0217L108.815 128.172C110.206 128.175 111.525 129.011 112.068 130.385C112.245 130.83 112.323 131.293 112.314 131.744L208.836 145.686C209.093 144.614 209.852 143.682 210.952 143.244C212.751 142.531 214.787 143.414 215.5 145.213C216.214 147.012 215.33 149.049 213.531 149.762C213.118 149.926 212.692 150 212.275 150.004L208.512 194.955C209.668 195.16 210.696 195.94 211.158 197.115L211.062 196.807L320.492 162.464C320.137 160.817 321.009 159.11 322.625 158.47C323.458 158.14 324.341 158.157 325.121 158.443L345.727 115.14C345.083 114.758 344.554 114.172 344.26 113.42C343.549 111.619 344.431 109.585 346.23 108.872C348.029 108.158 350.065 109.042 350.778 110.841C351.056 111.542 351.09 112.28 350.919 112.961L419.392 136.568C419.754 135.766 420.411 135.1 421.294 134.751C423.093 134.037 425.129 134.921 425.842 136.72C426.139 137.47 426.157 138.258 425.946 138.976L467.256 155.111C467.628 154.366 468.263 153.752 469.096 153.421C470.895 152.708 472.931 153.592 473.644 155.391C473.72 155.581 473.773 155.775 473.814 155.967L554.766 148.392C554.794 147.022 555.628 145.739 556.982 145.203C558.001 144.801 559.096 144.908 559.985 145.406L592.466 100.032C592.03 99.6685 591.676 99.1937 591.45 98.6295C590.737 96.8305 591.621 94.7943 593.42 94.0811C595.221 93.3703 597.255 94.2517 597.968 96.0506C597.972 96.0645 597.976 96.0784 597.983 96.0901L640.236 88.5578L662.57 84.5763C662.582 83.1895 663.415 81.8817 664.785 81.339C666.584 80.6258 668.62 81.5095 669.333 83.3085C669.886 84.7082 669.476 86.2459 668.421 87.198L693.671 130.324C693.715 130.305 693.759 130.281 693.808 130.262C695.607 129.549 697.643 130.433 698.357 132.232C699.07 134.031 698.186 136.067 696.387 136.78C695.96 136.948 695.52 137.027 695.087 137.023L692.913 183.492C694.12 183.663 695.205 184.456 695.685 185.672C696.398 187.471 695.514 189.507 693.715 190.221ZM665.355 88.0272C664.241 87.7914 663.265 87.0248 662.815 85.8874C662.729 85.6669 662.668 85.445 662.626 85.2238L637.301 89.7372L598.158 96.7143C598.22 97.0506 598.228 97.3874 598.192 97.7181L660.019 120.134L665.352 88.0294L665.355 88.0272ZM420.426 140.77L397.721 164.881L429.823 198.913C430.082 198.712 430.372 198.539 430.692 198.413C430.843 198.351 430.998 198.309 431.153 198.271L422.77 141.509C421.919 141.555 421.086 141.288 420.426 140.77ZM349.673 114.889C349.414 115.09 349.124 115.263 348.804 115.389C348.616 115.463 348.431 115.516 348.242 115.555L358.405 202.566C359.218 202.546 360.01 202.812 360.643 203.305L396.833 164.878L349.675 114.886L349.673 114.889ZM91.6909 319.088L109.588 281.775L88.8726 311.559C89.3018 311.92 89.6493 312.392 89.8747 312.952C90.3732 314.212 90.0872 315.585 89.2572 316.54L91.6909 319.088ZM67.8231 375.104C67.9997 375.554 68.0774 376.017 68.0683 376.472L152.558 386.191C152.681 385.607 152.952 385.063 153.345 384.612L91.8713 320.216L66.3651 373.393C67.0042 373.775 67.5286 374.361 67.8253 375.106L67.8231 375.104ZM459.871 326.067C460.16 325.793 460.498 325.567 460.879 325.397L442.53 270.501C440.866 270.894 439.12 270.018 438.472 268.38L404.837 278.184L459.871 326.067ZM692.577 135.962C692.526 135.908 692.473 135.851 692.427 135.792L654.678 169.194C654.85 169.431 654.997 169.688 655.111 169.971C655.407 170.716 655.423 171.502 655.22 172.218L664.738 175.902L692.577 135.962ZM586.119 213.347L573.302 221.477C573.353 221.575 573.4 221.677 573.442 221.784C573.705 222.45 573.749 223.148 573.612 223.797L584.39 227.134L647.828 174.197L586.119 213.347ZM572.957 220.931L617.776 192.497L648.733 172.857C648.682 172.759 648.635 172.657 648.593 172.55C648.357 171.956 648.299 171.338 648.388 170.746L583.949 155.003L571.177 219.711C571.875 219.918 572.502 220.339 572.957 220.927L572.957 220.931ZM654.986 172.821C654.614 173.571 653.979 174.189 653.141 174.519C652.331 174.841 651.473 174.837 650.708 174.572L622.979 235.816L664.357 176.447L654.984 172.819L654.986 172.821ZM619.948 235.625C620.758 235.303 621.617 235.308 622.381 235.573L650.12 174.306C649.853 174.153 649.603 173.966 649.382 173.747L585.13 227.363L618.004 237.544C618.356 236.698 619.031 235.989 619.95 235.627L619.948 235.625ZM617.809 238.16L584.536 227.855L572.092 238.239C572.238 238.453 572.367 238.686 572.466 238.934C572.579 239.222 572.649 239.515 572.685 239.81L617.744 238.645C617.754 238.481 617.773 238.317 617.809 238.155L617.809 238.16ZM569.728 236.763C570.461 236.875 571.148 237.213 571.676 237.742L583.798 227.628L573.421 224.413C573.069 225.26 572.394 225.968 571.475 226.33C571.094 226.482 570.7 226.557 570.311 226.571L569.728 236.763ZM567.103 221.405L530.128 196.721L519.507 214.738C520.031 215.116 520.459 215.642 520.718 216.289C520.891 216.726 520.967 217.177 520.963 217.619L566.748 222.39C566.817 222.047 566.937 221.715 567.103 221.405ZM472.44 159.513C472.208 159.681 471.951 159.828 471.67 159.939C471.12 160.156 470.552 160.225 470.005 160.165L457.98 206.18L514.086 216.621C514.261 216.007 514.599 215.448 515.072 215.007L472.438 159.51L472.44 159.513ZM205.908 201.29L183.281 230.941C183.688 231.296 184.022 231.75 184.232 232.288C184.335 232.55 184.401 232.816 184.44 233.085L197.912 233.922L206.465 201.602C206.268 201.515 206.082 201.41 205.903 201.29L205.908 201.29ZM61.8913 147.722C62.153 148.814 61.8687 149.941 61.1803 150.773L77.6424 167.269L106.192 133.998C105.927 133.7 105.706 133.354 105.55 132.964L61.8935 147.724L61.8913 147.722ZM106.661 134.44L78.0979 167.729L129.316 219.048C129.594 218.82 129.909 218.627 130.262 218.488C130.302 218.474 130.343 218.461 130.383 218.447L109.292 135.141C108.345 135.272 107.399 135.008 106.664 134.442L106.661 134.44ZM440.437 263.831C440.588 263.77 440.739 263.727 440.893 263.689L432.173 205.167C431.178 205.224 430.204 204.849 429.503 204.149L395.85 232.142L439.135 264.735C439.485 264.352 439.922 264.037 440.437 263.831ZM429.09 203.649C428.944 203.436 428.82 203.207 428.718 202.956C428.615 202.699 428.551 202.435 428.512 202.171L361.957 205.659C361.994 205.978 361.988 206.294 361.938 206.601L395.317 231.736L429.088 203.647L429.09 203.649ZM361.763 207.282C361.604 207.704 361.369 208.097 361.062 208.432L371.293 243.982L372.283 247.425C373.413 247.208 374.558 247.564 375.369 248.339L394.812 232.167L361.768 207.287L361.763 207.282ZM371.652 247.607C371.652 247.607 371.654 247.605 371.657 247.603L370.671 244.173L360.521 208.905C360.293 209.069 360.041 209.211 359.767 209.32C359.314 209.499 358.847 209.577 358.392 209.568L346.102 237.334L369.974 249C370.356 248.39 370.928 247.889 371.65 247.605L371.652 247.607ZM438.746 265.253L395.339 232.566L375.789 248.827C375.953 249.055 376.093 249.305 376.2 249.577C376.423 250.143 376.49 250.731 376.42 251.297L438.405 265.974C438.49 265.722 438.606 265.482 438.746 265.253ZM318.564 301.386L370.137 252.961C369.956 252.719 369.8 252.448 369.682 252.155C369.342 251.292 369.369 250.377 369.685 249.578L345.843 237.929L317.949 300.95C318.169 301.073 318.373 301.219 318.561 301.388L318.564 301.386ZM345.263 237.643L317.522 224.087C317.141 224.641 316.599 225.089 315.926 225.354C315.664 225.457 315.396 225.526 315.129 225.562L315.964 271.074L316.504 300.515C316.799 300.537 317.085 300.593 317.359 300.687L345.263 237.643ZM157.768 383.894L176.357 357.632L187.846 341.398C187.426 341.038 187.085 340.577 186.866 340.025C186.437 338.943 186.589 337.778 187.166 336.865L173.423 326.283L157.295 383.658C157.46 383.725 157.618 383.804 157.77 383.892L157.768 383.894ZM225.68 238.893L187.971 280.184C188.247 280.489 188.481 280.845 188.639 281.251C188.914 281.95 188.948 282.683 188.783 283.364L207.314 290.95L226.283 239.259C226.069 239.158 225.865 239.034 225.675 238.893L225.68 238.893ZM188.576 283.977C188.214 284.78 187.556 285.45 186.669 285.799C186.447 285.888 186.222 285.951 185.994 285.991L190.151 335.231C190.446 335.235 190.738 335.277 191.019 335.351L207.091 291.556L188.574 283.975L188.576 283.977ZM187.559 336.352C187.904 335.982 188.332 335.676 188.835 335.476C189.056 335.39 189.282 335.325 189.506 335.284L188.014 317.698L185.329 286.046C185.132 286.043 184.938 286.02 184.747 285.986L173.609 325.614L187.559 336.356L187.559 336.352ZM184.126 285.809C183.243 285.469 182.498 284.779 182.121 283.83C181.97 283.445 181.894 283.05 181.88 282.661L115.08 278.804C115.006 279.284 114.835 279.74 114.575 280.15L173.056 325.183L184.124 285.807L184.126 285.809ZM114.878 276.993C115.029 277.378 115.105 277.772 115.119 278.162L181.919 282.019C182.023 281.32 182.341 280.665 182.826 280.146L156.117 249.981L114.727 276.665C114.783 276.772 114.832 276.881 114.876 276.995L114.878 276.993ZM183.311 279.717C183.548 279.544 183.807 279.395 184.091 279.281C184.176 279.246 184.264 279.221 184.35 279.194L181.119 237.071C179.998 237.117 178.912 236.621 178.215 235.736L156.667 249.627L183.311 279.717ZM182.26 236.834C182.096 236.899 181.927 236.946 181.761 236.986L184.989 279.063C185.317 279.027 185.642 279.038 185.961 279.09L197.746 234.559L184.475 233.734C184.414 235.069 183.588 236.313 182.265 236.834L182.26 236.834ZM186.584 279.256C186.851 279.353 187.108 279.481 187.345 279.64L225.194 238.448C224.921 238.145 224.693 237.792 224.533 237.388C224.379 237 224.304 236.601 224.293 236.205L198.404 234.596L186.587 279.254L186.584 279.256ZM311.38 223.387C311.361 223.338 311.347 223.29 311.33 223.239L263.954 230.718L231.293 235.875C231.34 236.618 231.145 237.348 230.758 237.967L280.285 275.993L312.69 225.01C312.117 224.628 311.651 224.076 311.38 223.387ZM228.776 239.466C228.144 239.652 227.499 239.648 226.898 239.487L207.919 291.2L254.699 310.35C255.028 309.72 255.548 309.187 256.219 308.844L228.776 239.466ZM254.452 310.948L207.694 291.808L191.629 335.578C192.311 335.902 192.89 336.442 193.25 337.155L254.439 312.951C254.241 312.277 254.256 311.582 254.452 310.948ZM191.414 341.999C190.379 342.407 189.268 342.288 188.373 341.774L179.998 353.609L158.295 384.274C158.401 384.369 158.505 384.472 158.602 384.58L205.631 349.967L193.568 338.084C193.877 339.706 193.006 341.368 191.414 341.999ZM155.034 383.533C155.584 383.378 156.143 383.366 156.675 383.471L172.87 325.856L114.184 280.665C113.918 280.954 113.603 281.199 113.241 281.39L155.034 383.533ZM114.377 276.124L155.688 249.492L133.621 224.571C133.384 224.744 133.124 224.893 132.841 225.006C132.131 225.288 131.383 225.317 130.698 225.142L113.085 275.103C113.583 275.334 114.029 275.679 114.377 276.124ZM134.105 224.142L156.236 249.136L177.863 235.192C177.807 235.085 177.758 234.976 177.714 234.862C177.481 234.275 177.422 233.662 177.507 233.074L134.868 222.868C134.71 223.339 134.45 223.771 134.105 224.137L134.105 224.142ZM207.082 201.809L198.572 233.961L224.334 235.561C224.484 234.602 225.025 233.731 225.859 233.178L208.983 201.731C208.348 201.938 207.693 201.957 207.085 201.812L207.082 201.809ZM209.578 201.473L226.43 232.876C226.456 232.865 226.479 232.852 226.505 232.842C228.304 232.128 230.34 233.012 231.053 234.811C231.108 234.95 231.153 235.094 231.189 235.237L304.245 223.701L311.176 222.608C311.141 222.371 311.131 222.133 311.143 221.9L211.173 199.636C210.883 200.401 210.334 201.064 209.578 201.478L209.578 201.473ZM317.84 223.521L345.526 237.048L357.728 209.483C356.684 209.249 355.767 208.542 355.296 207.505L318.086 221.46C318.217 222.17 318.121 222.883 317.84 223.516L317.84 223.521ZM433.271 204.926C433.12 204.987 432.97 205.03 432.816 205.068L441.535 263.59C441.792 263.576 442.048 263.59 442.296 263.633L457.177 206.686L435.348 202.622C435.059 203.635 434.323 204.507 433.267 204.926L433.271 204.926ZM514.198 218.861C513.988 218.332 513.922 217.783 513.971 217.251L457.819 206.8L442.925 263.794C443.526 264.012 444.067 264.393 444.475 264.906L514.36 219.21C514.3 219.098 514.244 218.982 514.198 218.861ZM438.291 267.753C438.217 267.366 438.208 266.976 438.262 266.598L376.288 251.924C376.177 252.275 376.008 252.605 375.791 252.909L404.257 277.676L438.293 267.755L438.291 267.753ZM375.364 253.395C375.047 253.7 374.667 253.948 374.233 254.123C372.94 254.634 371.53 254.321 370.572 253.441L319.007 301.857C319.143 302.031 319.265 302.219 319.367 302.424L403.515 277.895L375.362 253.402L375.364 253.395ZM314.955 300.747C315.252 300.63 315.555 300.56 315.856 300.527L314.482 225.594C314.057 225.575 313.642 225.48 313.258 225.316L280.798 276.386L313.675 301.628C314.02 301.253 314.449 300.95 314.955 300.747ZM279.937 276.539L230.364 238.479C230.088 238.777 229.761 239.033 229.379 239.226L256.823 308.604C257.709 308.344 258.625 308.454 259.403 308.852L279.939 276.542L279.937 276.539ZM254.679 313.55L193.968 337.565L206.162 349.573L254.806 313.771C254.761 313.699 254.72 313.626 254.679 313.55ZM158.985 385.099C159.084 385.263 159.172 385.433 159.246 385.617C159.32 385.8 159.37 385.987 159.412 386.174L233.486 377.4L206.1 350.423L158.987 385.097L158.985 385.099ZM153.81 384.156C153.961 384.038 154.125 383.929 154.297 383.835L154.367 383.61L112.642 281.63C111.885 281.862 111.104 281.821 110.403 281.563L92.1658 319.583L153.805 384.156L153.81 384.156ZM52.9511 283.641L84.231 311.667C84.541 311.378 84.9065 311.139 85.3242 310.975C85.5913 310.868 85.8636 310.804 86.1373 310.766L84.7794 280.035L53.6418 281.692C53.6149 282.398 53.3714 283.077 52.9535 283.639L52.9511 283.641ZM86.7839 310.738C87.3346 310.764 87.8694 310.92 88.3408 311.188L109.362 280.964C108.933 280.603 108.585 280.131 108.36 279.572C108.257 279.314 108.193 279.051 108.154 278.791L85.4239 280L86.7839 310.738ZM108.119 278.146C108.157 277.191 108.585 276.288 109.307 275.654L85.1215 242.379C84.927 242.507 84.7126 242.618 84.4873 242.709C84.2552 242.802 84.0172 242.864 83.7801 242.904L85.3914 279.358L108.117 278.148L108.119 278.146ZM85.6279 241.973L106.552 270.764L86.6428 238.801C86.8629 239.972 86.4665 241.164 85.6279 241.973ZM110.048 275.153C110.139 275.108 110.232 275.065 110.327 275.025C111.038 274.743 111.785 274.715 112.47 274.89L130.083 224.928C129.292 224.564 128.633 223.909 128.288 223.037C127.983 222.268 127.972 221.455 128.2 220.721L60.5796 192.953C60.3284 193.395 59.9759 193.786 59.5464 194.089L110.048 275.157L110.048 275.153ZM128.447 220.123C128.562 219.905 128.695 219.697 128.856 219.504L77.6756 168.22L60.0412 188.77C60.3572 189.095 60.6161 189.481 60.7927 189.932C61.1146 190.742 61.1076 191.598 60.8452 192.36L128.445 220.121L128.447 220.123ZM59.5475 188.355L77.2153 167.765L60.7156 151.233C60.4375 151.462 60.1218 151.654 59.769 151.793C59.4231 151.93 59.0702 152.007 58.7168 152.031L57.8454 187.734C58.4593 187.79 59.0447 188.005 59.5451 188.357L59.5475 188.355ZM57.1925 145.273C58.9473 144.579 60.9216 145.401 61.6791 147.11L105.157 132.41L1.406 147.96L54.9913 148.193C55.1157 146.927 55.9229 145.771 57.1879 145.273L57.1925 145.273ZM0.446779 146.979C0.505687 147.128 0.550712 147.28 0.586597 147.433L105.3 131.737C105.291 131.21 105.401 130.692 105.616 130.221L65.1432 107.958L0.342327 146.758C0.376354 146.833 0.41275 146.905 0.44441 146.981L0.446779 146.979ZM110.094 134.933C110.036 134.956 109.976 134.972 109.918 134.991L131.006 218.285C132.054 218.118 133.107 218.446 133.879 219.132L155.84 198.653L110.553 134.709C110.406 134.793 110.256 134.87 110.094 134.933ZM134.321 219.605C134.518 219.859 134.684 220.142 134.808 220.46C135.042 221.047 135.101 221.661 135.016 222.248L177.654 232.454C177.853 231.866 178.211 231.334 178.69 230.922L156.217 199.191L134.321 219.61L134.321 219.605ZM179.223 230.545C179.37 230.461 179.521 230.381 179.684 230.318C180.401 230.034 181.155 230.008 181.847 230.186L210.757 149.676C210.451 149.533 210.167 149.347 209.909 149.118L156.698 198.738L179.225 230.543L179.223 230.545ZM211.365 149.897L182.458 230.404C182.559 230.451 182.66 230.502 182.756 230.563L205.412 200.876C205.084 200.549 204.819 200.151 204.638 199.696C203.927 197.895 204.809 195.861 206.608 195.147C207.021 194.983 207.447 194.909 207.864 194.905L211.624 149.956C211.535 149.942 211.449 149.92 211.363 149.899L211.365 149.897ZM211.344 199.012L311.239 221.262C311.5 220.2 312.256 219.274 313.352 218.841C313.844 218.647 314.355 218.574 314.852 218.605L323.065 165.129C322.028 164.871 321.127 164.141 320.685 163.084L211.262 197.425C211.417 197.957 211.44 198.498 211.346 199.014L211.344 199.012ZM325.199 164.988C324.707 165.182 324.196 165.255 323.701 165.226L315.668 217.525L329.896 169.934L325.8 164.684C325.615 164.803 325.413 164.909 325.199 164.993L325.199 164.988ZM315.949 218.851C316.809 219.2 317.532 219.88 317.9 220.81C317.904 220.82 317.906 220.831 317.913 220.843L355.085 206.9C354.779 205.655 355.183 204.367 356.087 203.515L330.387 170.556L315.952 218.849L315.949 218.851ZM356.596 203.116C356.781 202.997 356.983 202.891 357.197 202.807C357.383 202.736 357.57 202.681 357.759 202.642L347.596 115.631C347.335 115.636 347.077 115.615 346.822 115.565L330.612 169.797L356.596 203.116ZM361.111 203.75C361.373 204.045 361.59 204.387 361.745 204.777C361.777 204.858 361.802 204.941 361.828 205.022L428.482 201.531C428.515 200.726 428.825 199.959 429.352 199.357L397.274 165.351L361.111 203.75ZM434.498 199.23C434.81 199.55 435.066 199.939 435.241 200.382C435.451 200.911 435.517 201.461 435.468 201.992L457.341 206.064L469.371 160.035C469.045 159.937 468.736 159.791 468.452 159.605L434.498 199.234L434.498 199.23ZM472.929 159.084L515.59 214.613C515.77 214.498 515.963 214.397 516.168 214.317C517.105 213.947 518.103 214.012 518.948 214.41L529.589 196.361L473.223 158.73C473.132 158.855 473.034 158.973 472.927 159.086L472.929 159.084ZM530.459 196.16L567.463 220.865C567.831 220.411 568.314 220.041 568.896 219.812C569.035 219.757 569.174 219.717 569.315 219.678L560.665 165.581L558.488 151.956C557.873 151.994 557.266 151.865 556.728 151.601L530.461 196.158L530.459 196.16ZM559.56 151.721C559.419 151.777 559.273 151.82 559.125 151.856L569.953 219.574C570.153 219.561 570.347 219.565 570.543 219.586L583.32 154.851L561.603 149.546C561.29 150.506 560.57 151.323 559.56 151.721ZM584.074 154.369L648.543 170.119C648.731 169.577 649.05 169.084 649.481 168.687L597.005 99.9841C596.714 100.237 596.379 100.448 596.001 100.597C595.555 100.774 595.093 100.851 594.642 100.842L584.079 154.369L584.074 154.369ZM598.059 98.359C597.93 98.7757 597.727 99.1692 597.454 99.5122L649.991 168.295C650.169 168.182 650.36 168.084 650.562 168.006C651.07 167.806 651.593 167.735 652.104 167.771L659.91 120.785L598.057 98.3612L598.059 98.359ZM652.744 167.874C653.306 168.022 653.823 168.305 654.251 168.707L692.054 135.26C691.972 135.115 691.897 134.968 691.834 134.81C691.508 133.986 691.518 133.114 691.797 132.341L660.531 121.006L652.744 167.874ZM693.075 136.383L665.363 176.141L689.291 185.401C689.663 184.652 690.298 184.033 691.136 183.703C691.508 183.555 691.888 183.479 692.266 183.463L694.442 136.962C693.951 136.867 693.486 136.672 693.075 136.383ZM689.419 188.754C689.324 188.595 689.238 188.428 689.167 188.251C688.87 187.506 688.854 186.72 689.057 186.004L664.983 176.686L623.501 236.205C623.63 236.314 623.754 236.438 623.866 236.568L689.419 188.754ZM566.141 238.528C566.522 237.841 567.133 237.276 567.92 236.963C568.3 236.811 568.694 236.736 569.084 236.722L569.667 226.53C568.473 226.351 567.404 225.561 566.929 224.358C566.757 223.922 566.681 223.471 566.685 223.029L520.899 218.257C520.871 218.398 520.834 218.539 520.791 218.677L566.146 238.528L566.141 238.528ZM515.62 220.552C515.28 220.343 514.973 220.076 514.716 219.754L444.831 265.449C444.891 265.561 444.947 265.678 444.993 265.798C445.689 267.556 444.86 269.537 443.144 270.292L461.493 325.187C462.197 325.022 462.911 325.081 463.555 325.33L515.618 220.55L515.62 220.552ZM458.921 327.657C459.031 327.262 459.211 326.886 459.452 326.551L404.101 278.396L320.919 302.645L458.923 327.659L458.921 327.657ZM312.751 304.157C312.719 303.439 312.913 302.736 313.286 302.14L280.456 276.935L259.952 309.199C260.433 309.573 260.828 310.072 261.068 310.68C261.133 310.845 261.18 311.009 261.217 311.177L312.748 304.159L312.751 304.157ZM256.324 315.138C255.899 314.938 255.513 314.652 255.193 314.295L206.633 350.036L234.066 377.058L256.327 315.141L256.324 315.138ZM138.43 436.46C138.975 436.689 139.466 437.059 139.839 437.539L232.831 378.13L159.488 386.816C159.523 388.243 158.681 389.608 157.277 390.165C155.835 390.735 154.249 390.281 153.303 389.159L138.425 436.46L138.43 436.46ZM66.9056 370.766L91.3945 319.71L88.793 316.986C88.5316 317.195 88.2348 317.37 87.9075 317.498C87.1972 317.78 86.4454 317.809 85.7556 317.634L66.9032 370.768L66.9056 370.766ZM52.5518 279.014C52.9131 279.354 53.2097 279.777 53.4031 280.269C53.5063 280.527 53.5681 280.787 53.6093 281.05L84.7539 279.39L83.142 242.951C82.4855 242.939 81.8515 242.738 81.3051 242.39L52.5518 279.014ZM81.9756 236.168C83.1331 235.735 84.3799 235.952 85.3057 236.646L62.5954 200.191L81.9734 236.166L81.9756 236.168ZM-3.05627 144.769C-1.85832 144.683 -0.691391 145.223 0.0231131 146.198L64.4989 107.595L-14.1763 64.318C-14.5577 64.8816 -15.1071 65.3408 -15.7873 65.6124C-15.9196 65.665 -16.0538 65.7061 -16.1855 65.7404L-3.05406 144.772L-3.05627 144.769ZM-13.6999 63.2634C-13.7446 63.4289 -13.7985 63.5941 -13.8681 63.7519L65.1374 107.207L102.12 85.0625C102.093 85.0043 102.065 84.9461 102.04 84.8857C101.81 84.3077 101.749 83.7058 101.826 83.1293L-13.6999 63.2634ZM105.405 87.1001C104.243 87.135 103.127 86.5879 102.446 85.6256L65.7977 107.569L105.95 129.654C106.33 129.113 106.865 128.672 107.524 128.411C107.738 128.327 107.955 128.266 108.174 128.225L105.405 87.1001ZM112.243 132.385C112.086 133.137 111.685 133.826 111.09 134.331L156.327 198.203L209.475 148.643C209.277 148.389 209.111 148.106 208.987 147.788C208.798 147.305 208.724 146.808 208.748 146.321L112.246 132.382L112.243 132.385ZM327.176 160.438C327.718 161.812 327.331 163.323 326.316 164.279L330.128 169.169L346.001 116.065L325.707 158.72C326.35 159.102 326.879 159.688 327.176 160.442L327.176 160.438ZM350.708 113.57C350.564 113.885 350.375 114.181 350.144 114.44L397.277 164.406L419.957 140.324C419.695 140.028 419.475 139.684 419.322 139.297C419.044 138.596 419.01 137.857 419.181 137.177L350.708 113.57ZM425.712 139.579C425.341 140.324 424.706 140.938 423.872 141.269C423.721 141.33 423.567 141.372 423.412 141.41L431.795 198.172C432.591 198.129 433.368 198.359 434.009 198.81L467.951 159.196C467.603 158.861 467.316 158.448 467.129 157.968C466.832 157.218 466.814 156.43 467.024 155.711L425.715 139.577L425.712 139.579ZM473.888 156.61C473.899 157.153 473.782 157.687 473.554 158.169L529.92 195.8L556.172 151.266C555.668 150.891 555.256 150.378 555.01 149.749C554.917 149.512 554.852 149.276 554.813 149.034L473.883 156.606L473.888 156.61ZM560.519 145.77C560.955 146.133 561.309 146.608 561.535 147.172C561.762 147.748 561.826 148.343 561.748 148.915L583.448 154.214L593.995 100.765C593.647 100.691 593.31 100.567 593.003 100.394L560.519 145.77ZM667.9 87.5872C667.731 87.6912 667.554 87.7812 667.364 87.8569C666.916 88.0359 666.453 88.1135 665.998 88.1045L660.639 120.357L692.071 131.753C692.324 131.318 692.674 130.934 693.104 130.64L667.897 87.5894L667.9 87.5872Z" fill="#4F2B2B"/>
<path d="M191 410.929H160L164.671 449.573H186.753L191 410.929Z" fill="#DF8711"/>
<path d="M160.912 389.974L165.521 410.503V410.928H169.343L164.741 389.594C164.696 389.382 164.597 389.185 164.454 389.022L163.361 387.773C162.672 386.985 161.379 387.315 161.151 388.338L160.912 389.416C160.871 389.6 160.871 389.79 160.912 389.974Z" fill="#8FC6D7"/>
<path d="M172.124 382.059L172.684 410.129L172.553 411.248L176.382 411.248L175.988 382.11C175.985 381.931 175.945 381.754 175.87 381.592L175.081 379.881C174.593 378.823 173.059 378.916 172.703 380.026L172.185 381.643C172.142 381.777 172.121 381.918 172.124 382.059Z" fill="#BF8888"/>
<path d="M189.54 388.578L184.923 410.892V411.353H181.101L185.71 388.169C185.751 387.966 185.84 387.776 185.969 387.615L187.041 386.286C187.72 385.445 189.072 385.773 189.289 386.832L189.541 388.063C189.576 388.233 189.576 388.408 189.54 388.578Z" fill="#FADBE9"/>
<path d="M183.929 390.649L182.602 410.865L182.373 410.93L178.551 410.93L179.827 391.01C179.841 390.783 179.916 390.564 180.043 390.376L181.115 388.788C181.675 387.958 182.929 388.065 183.34 388.978L183.819 390.04C183.905 390.231 183.942 390.44 183.929 390.649Z" fill="#FBE4C6"/>
<path d="M164.246 416.45H186.753" stroke="#4F2B2B" stroke-width="3" stroke-linecap="round"/>
<path d="M348.864 283.701H314.02V308.979H348.864V283.701Z" fill="#FFBE97"/>
<path d="M322.73 294.256C334.992 295.959 342.275 289.365 348.91 288.892V292.206C345.596 295.613 330.352 299.706 322.73 294.256Z" fill="#4F2B2B"/>
<path d="M434.502 354.316C431.961 335.348 418.465 319.666 400.088 314.325L349.023 301.54L332.773 308.639L313.814 301.54L281.106 308.639L261.54 314.325C243.162 319.666 229.666 335.348 227.125 354.316L214.818 446.172H446.809L434.502 354.316Z" fill="#77DFF9"/>
<path d="M316.117 204.599C316.117 204.599 325.356 196.303 349.973 204.76C382.559 215.955 374.933 255.136 374.933 255.136L291.387 270.729C291.387 270.729 273.013 237.944 289.653 216.755C300.847 202.499 316.117 204.599 316.117 204.599Z" fill="#4F2B2B"/>
<path d="M329.153 255.233C335.86 252.685 343.54 253.917 350.015 257.005C356.489 260.093 361.978 264.882 367.303 269.689C372.629 274.495 377.948 279.43 384.227 282.9C387.752 284.847 392.261 286.262 395.658 284.096C395.658 284.096 381.277 295.187 360.118 290.206C338.96 285.225 325.028 261.717 325.028 261.717" fill="#4F2B2B"/>
<path d="M358.997 291.209C338.047 285.773 324.531 263.316 323.959 262.35C323.609 261.76 323.803 260.998 324.393 260.648C324.983 260.304 325.747 260.498 326.094 261.085C326.23 261.31 339.674 283.629 359.638 288.809C359.893 288.875 360.145 288.939 360.403 288.997C373.198 292.008 383.515 288.927 389.429 286.21C387.327 285.798 385.305 284.917 383.625 283.986C377.553 280.631 372.348 275.924 367.316 271.373L366.469 270.61C360.839 265.53 355.672 261.082 349.478 258.127C342.596 254.84 335.344 254.209 329.594 256.396C328.954 256.634 328.237 256.317 327.991 255.675C327.747 255.036 328.068 254.317 328.71 254.072C335.093 251.65 343.052 252.313 350.547 255.883C357.035 258.976 362.567 263.742 368.132 268.764L368.98 269.53C373.908 273.987 379.004 278.595 384.824 281.81C387.247 283.148 391.785 285.089 394.986 283.047C395.547 282.691 396.289 282.835 396.669 283.381C397.051 283.924 396.938 284.673 396.413 285.078C395.807 285.545 381.316 296.473 359.83 291.415C359.55 291.35 359.271 291.28 358.995 291.208L358.997 291.209Z" fill="#4F2B2B"/>
<path d="M333.691 255.233C326.984 252.685 319.304 253.917 312.829 257.005C306.354 260.093 300.866 264.882 295.541 269.689C290.215 274.495 284.896 279.43 278.617 282.9C275.091 284.847 270.583 286.262 267.186 284.096C267.186 284.096 281.567 295.187 302.725 290.206C323.884 285.225 337.816 261.717 337.816 261.717" fill="#4F2B2B"/>
<path d="M303.847 291.209C324.797 285.773 338.313 263.316 338.884 262.35C339.234 261.76 339.041 260.998 338.451 260.648C337.86 260.304 337.097 260.498 336.75 261.085C336.614 261.31 323.169 283.629 303.206 288.809C302.951 288.875 302.698 288.939 302.441 288.997C289.646 292.008 279.329 288.927 273.415 286.21C275.517 285.798 277.539 284.917 279.219 283.986C285.291 280.631 290.495 275.924 295.528 271.373L296.374 270.61C302.005 265.53 307.171 261.082 313.366 258.127C320.247 254.84 327.499 254.209 333.25 256.396C333.889 256.634 334.607 256.317 334.853 255.675C335.097 255.036 334.775 254.317 334.134 254.072C327.751 251.65 319.792 252.313 312.296 255.883C305.809 258.976 300.276 263.742 294.711 268.764L293.863 269.53C288.936 273.987 283.839 278.595 278.02 281.81C275.597 283.148 271.059 285.089 267.858 283.047C267.297 282.691 266.554 282.835 266.175 283.381C265.792 283.924 265.906 284.673 266.431 285.078C267.037 285.545 281.528 296.473 303.014 291.415C303.294 291.35 303.573 291.28 303.849 291.208L303.847 291.209Z" fill="#4F2B2B"/>
<path d="M375.333 255.469C374.608 254.074 373.607 252.906 372.419 252.063C370.997 251.052 369.31 250.51 367.523 250.613C366.951 250.647 366.404 250.767 365.872 250.925C365.791 250.948 365.708 250.964 365.628 250.989C363.453 234.045 352.252 217.775 332.502 214.953C311.429 211.942 292.363 228.823 289.656 249.32C289.615 249.631 289.589 249.943 289.553 250.252C289.504 250.252 289.454 250.244 289.405 250.244C284.362 250.244 280.273 255.036 280.273 260.948C280.273 266.861 284.361 271.653 289.405 271.653C290.478 271.653 291.505 271.424 292.461 271.025C292.464 271.03 292.465 271.035 292.468 271.04C293.346 273.182 294.399 275.237 295.614 277.186C295.651 277.247 295.689 277.308 295.726 277.367C296.119 277.989 296.525 278.598 296.95 279.196C296.957 279.206 296.966 279.218 296.973 279.23C297.854 280.466 298.806 281.648 299.824 282.771C299.889 282.843 299.957 282.913 300.022 282.984C300.454 283.451 300.896 283.91 301.351 284.355C301.449 284.452 301.544 284.547 301.644 284.642C302.129 285.109 302.626 285.564 303.137 286.005C303.179 286.042 303.221 286.081 303.263 286.118C303.836 286.607 304.426 287.081 305.029 287.537C305.077 287.574 305.129 287.606 305.175 287.642C305.702 288.033 306.238 288.411 306.789 288.775C306.946 288.88 307.106 288.981 307.265 289.083C307.73 289.381 308.201 289.669 308.681 289.946C308.851 290.046 309.02 290.146 309.192 290.243C309.761 290.559 310.339 290.862 310.928 291.15C310.999 291.186 311.068 291.223 311.139 291.259C311.803 291.577 312.481 291.873 313.171 292.154C313.343 292.224 313.518 292.285 313.691 292.352C314.21 292.554 314.732 292.745 315.264 292.923C315.497 293.001 315.729 293.075 315.963 293.148C316.473 293.307 316.99 293.456 317.513 293.593C317.732 293.653 317.952 293.715 318.174 293.77C318.912 293.951 319.656 294.117 320.416 294.254C339.058 297.637 358.119 286.59 364.039 269.711C364.156 269.782 364.283 269.834 364.403 269.899C365.612 270.551 366.948 270.923 368.371 270.842C373.136 270.568 376.809 265.815 376.575 260.229C376.501 258.483 376.055 256.863 375.33 255.468L375.333 255.469Z" fill="#FFBE97"/>
<path d="M341.271 259.048C341.237 260.565 341.996 261.812 342.962 261.833C343.929 261.854 344.738 260.642 344.768 259.124C344.802 257.606 344.043 256.36 343.076 256.339C342.11 256.318 341.3 257.53 341.271 259.048Z" fill="#4F2B2B"/>
<path d="M311.575 259.048C311.541 260.565 312.3 261.812 313.267 261.833C314.233 261.854 315.043 260.642 315.073 259.124C315.107 257.606 314.348 256.36 313.381 256.339C312.415 256.318 311.605 257.53 311.575 259.048Z" fill="#4F2B2B"/>
<path d="M313.239 270.904C306.567 270.904 301.141 265.478 301.141 258.806C301.141 252.133 306.567 246.707 313.239 246.707C319.911 246.707 325.338 252.133 325.338 258.806C325.338 265.478 319.911 270.904 313.239 270.904ZM313.239 247.742C307.139 247.742 302.179 252.706 302.179 258.802C302.179 264.897 307.143 269.861 313.239 269.861C319.335 269.861 324.299 264.897 324.299 258.802C324.299 252.706 319.335 247.742 313.239 247.742Z" fill="white"/>
<path d="M342.192 270.904C335.52 270.904 330.094 265.478 330.094 258.806C330.094 252.133 335.52 246.707 342.192 246.707C348.865 246.707 354.291 252.133 354.291 258.806C354.291 265.478 348.865 270.904 342.192 270.904ZM342.192 247.742C336.092 247.742 331.132 252.706 331.132 258.802C331.132 264.897 336.096 269.861 342.192 269.861C348.288 269.861 353.252 264.897 353.252 258.802C353.252 252.706 348.288 247.742 342.192 247.742Z" fill="white"/>
<path d="M331.323 255.603C328.516 254.937 326.151 254.937 324.095 255.59L323.781 254.598C326.024 253.886 328.567 253.882 331.564 254.585L331.327 255.599L331.323 255.603Z" fill="white"/>
<path d="M321 266.501L320.896 266.65L321.006 266.795L324.579 271.525C324.579 271.525 324.579 271.525 324.579 271.525C324.675 271.653 324.804 271.742 324.944 271.791V271.841H325.194C325.356 271.841 325.52 271.791 325.66 271.683C325.996 271.427 326.067 270.945 325.809 270.605C325.809 270.605 325.809 270.605 325.809 270.605L322.798 266.617L328.723 258.101L328.723 258.101L328.724 258.098C328.961 257.75 328.881 257.273 328.529 257.028L328.529 257.028L328.527 257.026C328.179 256.79 327.702 256.869 327.456 257.222L327.456 257.222L321 266.501Z" fill="#4F2B2B" stroke="#4F2B2B" stroke-width="0.5"/>
<path d="M323.451 281.169L323.449 281.168C323.033 281.106 322.635 281.386 322.571 281.811C322.509 282.23 322.791 282.619 323.21 282.688L323.21 282.688C323.291 282.702 323.799 282.768 324.578 282.768C327.067 282.768 332.439 282.071 335.459 276.486C335.66 276.115 335.522 275.644 335.145 275.443C334.77 275.243 334.305 275.379 334.103 275.757C332.357 278.982 329.769 280.343 327.578 280.896C325.379 281.45 323.582 281.189 323.451 281.169Z" fill="#4F2B2B" stroke="#4F2B2B" stroke-width="0.5"/>
<path d="M319.838 253.412L319.84 253.413C320.179 253.662 320.662 253.6 320.916 253.252C321.166 252.911 321.097 252.435 320.758 252.179L320.758 252.179C320.692 252.129 320.274 251.835 319.584 251.473C317.38 250.315 312.3 248.434 307.03 251.974C306.679 252.209 306.582 252.69 306.823 253.044C307.061 253.395 307.537 253.49 307.891 253.25C310.937 251.207 313.861 251.205 316.058 251.735C318.262 252.267 319.732 253.333 319.838 253.412Z" fill="#4F2B2B" stroke="#4F2B2B" stroke-width="0.5"/>
<path d="M348.731 254.215L348.733 254.216C349.072 254.464 349.554 254.402 349.808 254.055C350.058 253.713 349.99 253.237 349.65 252.981L349.65 252.981C349.585 252.932 349.167 252.637 348.477 252.275C346.273 251.117 341.193 249.237 335.923 252.777C335.572 253.012 335.475 253.493 335.715 253.847C335.954 254.197 336.43 254.293 336.784 254.053C339.83 252.009 342.753 252.008 344.95 252.538C347.155 253.069 348.624 254.136 348.731 254.215Z" fill="#4F2B2B" stroke="#4F2B2B" stroke-width="0.5"/>
<path d="M312.629 274.78C312.74 272.985 310.123 271.363 306.784 271.157C303.445 270.952 300.648 272.241 300.538 274.036C300.427 275.831 303.045 277.453 306.384 277.659C309.723 277.864 312.519 276.575 312.629 274.78Z" fill="#FF9D6C"/>
<path d="M356.161 275.929C356.271 274.134 353.654 272.512 350.315 272.306C346.976 272.101 344.18 273.39 344.069 275.185C343.959 276.981 346.576 278.602 349.915 278.808C353.254 279.013 356.05 277.724 356.161 275.929Z" fill="#FF9D6C"/>
<path d="M372.226 262.626L367.554 262.817C366.802 262.847 366.161 262.365 366.125 261.736C366.088 261.108 366.667 260.575 367.421 260.544L372.092 260.353C372.846 260.323 373.486 260.805 373.522 261.434C373.558 262.061 372.979 262.595 372.226 262.626Z" fill="#4F2B2B"/>
<path d="M288.57 262.626L284.677 262.817C284.05 262.847 283.516 262.365 283.486 261.736C283.455 261.108 283.938 260.575 284.566 260.544L288.459 260.353C289.087 260.323 289.62 260.805 289.65 261.434C289.681 262.061 289.198 262.595 288.57 262.626Z" fill="#4F2B2B"/>
<path d="M311.532 222.509C311.532 222.509 309.923 234.944 289.557 255.011L289.025 240.885L295.027 225.753L306.635 217.5L311.532 222.509Z" fill="#4F2B2B"/>
<path d="M303.654 220.125L318.659 213.748L339.185 212.998L363.984 232.828L369.298 255.01C358.375 252.994 345.09 245.599 345.09 245.599L350.995 251.984C335.283 250.608 322.352 250.222 311.435 236.188C309.474 233.668 304.278 226.17 305.155 222.751" fill="#4F2B2B"/>
<path d="M291.528 251.781C291.201 251.781 290.893 251.553 290.764 251.178C290.598 250.688 290.806 250.134 291.227 249.941C300.442 245.718 307.076 228.516 307.142 228.343C307.327 227.862 307.812 227.642 308.223 227.856C308.638 228.067 308.825 228.633 308.642 229.113C308.362 229.849 301.672 247.204 291.828 251.714C291.73 251.761 291.627 251.781 291.528 251.781Z" fill="#4F2B2B"/>
<path d="M266.184 439.428C265.768 439.428 265.411 439.116 265.364 438.693L258.298 374.315C258.248 373.862 258.576 373.455 259.029 373.404C259.481 373.356 259.89 373.681 259.941 374.135L267.007 438.512C267.057 438.966 266.729 439.373 266.276 439.424C266.245 439.427 266.215 439.428 266.184 439.428Z" fill="#4F2B2B"/>
<path d="M398.726 430.795C398.697 430.795 398.666 430.793 398.637 430.79C398.184 430.742 397.855 430.335 397.903 429.882L403.792 374.139C403.84 373.686 404.245 373.357 404.7 373.405C405.154 373.453 405.483 373.86 405.435 374.314L399.546 430.056C399.501 430.481 399.143 430.795 398.726 430.795Z" fill="#4F2B2B"/>
<path d="M399.2 392.686L385.937 397.663C385.513 397.82 385.034 397.606 384.873 397.178C384.713 396.751 384.93 396.274 385.357 396.114L398.62 391.137C399.216 390.913 399.818 390.726 400.423 390.55L388.392 388.481C382.611 387.509 376.927 389.786 373.891 394.339C373.205 395.371 372.651 396.485 372.248 397.652L368.055 409.767L370.924 406.91C371.249 406.588 371.77 406.588 372.093 406.913C372.414 407.237 372.414 407.759 372.09 408.082L358.943 421.173C357.959 422.707 357.823 424.603 358.582 426.263C359.21 427.64 360.35 428.655 361.79 429.119C363.231 429.587 364.746 429.43 366.063 428.681L376.398 420.994C376.434 420.968 376.476 420.959 376.514 420.939C376.869 420.44 377.269 419.965 377.757 419.552L386.083 412.544C386.432 412.252 386.956 412.3 387.247 412.644C387.54 412.993 387.494 413.515 387.147 413.809L378.822 420.817C376.38 422.871 376.063 426.531 378.119 428.974C379.114 430.156 380.521 430.87 382.054 431.012C383.593 431.146 385.093 430.669 386.275 429.675C386.392 429.577 386.529 429.529 386.669 429.506C386.705 429.474 386.73 429.435 386.767 429.404L393.457 424.657C393.829 424.394 394.346 424.479 394.609 424.853C394.872 425.227 394.427 424.803 394.055 425.067L390.679 427.692L387.147 430.693C384.76 432.707 385.075 436.382 387.131 438.824C389.424 441.55 392.591 441.351 396.54 438.259C396.766 437.987 397.022 437.732 397.304 437.501L402.203 433.477C402.555 433.186 403.078 433.238 403.364 433.591C403.654 433.943 403.604 434.464 403.25 434.753L398.351 438.778C398.207 438.896 398.087 439.031 397.963 439.163C397.912 439.259 397.841 439.346 397.751 439.419C397.741 439.428 397.73 439.434 397.72 439.442C396.67 440.796 396.545 442.695 397.511 444.188C398.111 445.119 399.042 445.752 400.125 445.978C401.223 446.208 402.316 445.989 403.242 445.376L410.223 440.728C410.223 440.728 410.223 440.728 410.226 440.726L420.268 434.119C430.894 427.132 433.972 412.721 427.132 402C421.229 392.742 409.483 388.822 399.197 392.681L399.2 392.686Z" fill="#FFBE97"/>
<path d="M371.442 399.99C370.117 402.906 368.46 409.38 367.797 412.252L368.128 412.915L401.599 392.7C402.482 392.479 403.454 391.772 400.273 390.711C396.296 389.386 373.099 396.345 371.442 399.99Z" fill="#FFBE97"/>
<path d="M207.998 430.36H310.549C320.731 430.36 328.999 438.628 328.999 448.81H207.998V430.36Z" fill="#FBE4C6"/>
<path d="M449.998 448.806H328.998C328.998 438.624 337.265 430.357 347.447 430.357H449.998V448.806Z" fill="#FBE4C6"/>
<path d="M217.438 418.264L221.398 431.699C222.281 434.69 225.396 436.515 228.486 435.853C231.578 435.192 233.648 432.255 233.182 429.176C233.161 429.036 233.179 428.906 233.216 428.783C233.137 428.491 233.04 428.206 232.995 427.9L231.158 415.425C231.15 415.393 231.129 415.366 231.124 415.332C230.878 413.682 229.979 412.25 228.586 411.301C227.193 410.352 225.516 410.025 223.863 410.378L221.958 410.785C220.303 411.138 218.914 412.124 218.049 413.556C217.184 414.988 216.965 416.661 217.438 418.261V418.264Z" fill="#FFBE97"/>
<path d="M230.459 415.227L232.499 429.072C232.954 432.154 235.782 434.385 238.936 434.15C242.091 433.916 244.544 431.291 244.522 428.176L244.424 414.187C244.424 414.128 244.424 414.068 244.42 414.009C244.362 412.409 243.676 410.939 242.474 409.849C241.227 408.72 239.612 408.168 237.923 408.293L235.98 408.438C234.291 408.564 232.778 409.35 231.72 410.652C230.661 411.953 230.214 413.578 230.457 415.227H230.459Z" fill="#FFBE97"/>
<path d="M211.475 433.819C211.475 433.819 211.475 433.819 211.475 433.821L211.523 433.94C212.622 436.625 215.674 438.027 218.469 437.132C221.264 436.237 222.901 433.336 222.181 430.527C222.171 430.488 222.181 430.45 222.176 430.408L218.743 418.763C218.677 418.541 218.633 418.315 218.588 418.088C218.157 416.42 217.102 415.02 215.685 414.248C214.451 413.577 213.093 413.448 211.753 413.878L210.014 414.434C208.517 414.914 207.328 415.95 206.663 417.355C205.997 418.758 205.956 420.322 206.541 421.76L211.473 433.818L211.475 433.819Z" fill="#FFBE97"/>
<path d="M212.344 434.47C212.344 434.47 212.344 434.467 212.344 434.465L208.152 424.217C208.09 424.144 208.033 424.07 207.997 423.978C207.56 422.861 206.776 422.052 205.734 421.637C204.621 421.196 203.34 421.26 202.122 421.82L200.742 422.456C199.593 422.985 198.744 423.929 198.352 425.117C197.961 426.307 198.083 427.563 198.696 428.656L204.078 438.231C205.224 440.275 207.807 441.101 209.955 440.113C212.144 439.107 213.193 436.628 212.347 434.469L212.344 434.47Z" fill="#FFBE97"/>
<path d="M197.491 425.461L199.954 431.068C204.435 425.667 231.585 420.442 244.764 418.692L244.359 413.162C244.195 410.923 243.265 408.762 241.497 407.378C226.45 395.602 205.154 403.994 197.484 418.673C196.381 420.783 196.533 423.281 197.491 425.461Z" fill="#FFBE97"/>
<path d="M213.133 437.079L207.861 425.075" stroke="#4F2B2B" stroke-width="1.86946" stroke-linecap="round"/>
<path d="M222.359 434.077L219.723 421.323" stroke="#4F2B2B" stroke-width="1.86946" stroke-linecap="round"/>
<path d="M233.562 431.824L231.586 419.07" stroke="#4F2B2B" stroke-width="1.86946" stroke-linecap="round"/>
<path d="M390.305 410.064L375.857 422.345C375.487 422.66 375.092 422.945 374.678 423.199L368.549 426.944" stroke="#4F2B2B" stroke-width="1.86946" stroke-linecap="round"/>
<path d="M387.305 429.57L400.058 420.567" stroke="#4F2B2B" stroke-width="1.86946" stroke-linecap="round"/>
<path d="M406.811 430.319L414.313 425.068" stroke="#4F2B2B" stroke-width="1.86946" stroke-linecap="round"/>
<rect x="14.4219" y="167" width="240.578" height="130.827" rx="12.6612" fill="#854747"/>
<path fill-rule="evenodd" clip-rule="evenodd" d="M17.6612 175.166C10.6686 175.166 5 180.834 5 187.827V293.331C5 300.324 10.6686 305.992 17.6612 305.992H153.919C155.09 317.724 149.789 323.575 141.809 332.381C141.037 333.233 140.24 334.112 139.422 335.028C168.345 330.505 182.179 324.173 199.426 305.992H232.917C239.909 305.992 245.578 300.324 245.578 293.331V187.827C245.578 180.834 239.909 175.166 232.917 175.166H17.6612Z" fill="#FBE4C6"/>
<mask id="mask0_761_12645" style="mask-type:alpha" maskUnits="userSpaceOnUse" x="5" y="175" width="241" height="131">
<rect x="5" y="175.166" width="240.578" height="130.827" rx="12.6612" fill="#D9D9D9"/>
</mask>
<g mask="url(#mask0_761_12645)">
<path d="M142.562 196.673H206.633" stroke="#4F2B2B" stroke-width="3" stroke-linecap="round"/>
<path d="M142.562 216.673H206.633" stroke="#4F2B2B" stroke-width="3" stroke-linecap="round"/>
<path d="M142.562 236.673H206.633" stroke="#4F2B2B" stroke-width="3" stroke-linecap="round"/>
<path d="M142.562 256.673H206.633" stroke="#4F2B2B" stroke-width="3" stroke-linecap="round"/>
<path d="M84.0461 242.72L89.793 263.984L81.7472 254.214L84.0461 242.72Z" fill="#E95D9A"/>
<path d="M62.7827 237.548L42.9567 253.926L46.9796 317.14L94.9648 313.693L89.793 263.983C89.793 263.983 76.0051 245.048 62.7836 237.548H62.7827Z" fill="#E95D9A"/>
<path d="M65.173 265.864L55.777 282.776C60.6629 287.725 70.5099 297.923 70.8105 299.125" stroke="#4F2B2B" stroke-width="1.5" stroke-linecap="round"/>
<path d="M71.4302 224.653L87.7559 232.155L81.517 245.732L65.1913 238.23L71.4302 224.653Z" fill="#FFBE97"/>
<path d="M84.1448 239.864L86.0292 235.781L74.7227 229.186C76.984 233.206 81.4228 238.399 84.1448 239.864Z" fill="#4F2B2B"/>
<path d="M86.2861 195.322C99.6047 195.051 107.463 205.435 107.463 205.435C107.463 205.435 114.072 205.891 113.642 211.014C113.212 216.138 106.594 215.78 106.594 215.78L86.2861 195.321V195.322Z" fill="#4F2B2B"/>
<path d="M69.7012 210.981C66.5768 220.463 73.2933 232.529 83.642 236.653C93.9906 240.776 104.053 235.396 107.177 225.913C110.301 216.431 104.446 205.4 94.0973 201.277C83.7486 197.154 72.8265 201.499 69.7012 210.982V210.981Z" fill="#FFBE97"/>
<path d="M90.4218 225.654C88.9785 224.715 88.2176 223.325 88.7224 222.549C89.2272 221.773 90.8065 221.904 92.2498 222.843C93.6932 223.782 94.4541 225.172 93.9493 225.948C93.4445 226.724 91.8652 226.593 90.4218 225.654Z" fill="#FF9D6C"/>
<path d="M105.407 225.836L106.91 231.962C107.104 232.754 106.466 233.503 105.654 233.437L101.773 233.118L105.408 225.836H105.407Z" fill="#FFBE97"/>
<path d="M100.853 224.989C100.438 224.881 100.189 224.457 100.296 224.042L100.612 222.826C100.719 222.411 101.144 222.161 101.559 222.269C101.974 222.377 102.223 222.801 102.116 223.216L101.801 224.432C101.693 224.847 101.268 225.096 100.853 224.989Z" fill="#4F2B2B"/>
<path d="M103.654 220.593C103.874 220.593 104.085 220.474 104.193 220.264C104.345 219.966 104.228 219.603 103.931 219.45C102.51 218.719 100.848 218.4 99.2582 218.545C98.9259 218.575 98.6803 218.87 98.7118 219.203C98.7422 219.536 99.0249 219.782 99.3695 219.749C100.736 219.622 102.159 219.9 103.378 220.525C103.467 220.571 103.561 220.593 103.654 220.593Z" fill="#4F2B2B"/>
<path d="M95.767 234.044C95.9606 234.149 96.0901 234.354 96.0855 234.589C96.0782 234.924 95.8026 235.188 95.4689 235.181C93.871 235.151 92.2565 234.643 90.9257 233.761C90.6477 233.577 90.5711 233.202 90.7568 232.923C90.9416 232.644 91.307 232.562 91.595 232.754C92.737 233.514 94.1217 233.945 95.4919 233.973C95.5915 233.975 95.6849 234 95.767 234.044Z" fill="#4F2B2B"/>
<path d="M107.98 205.179C107.98 205.179 100.121 194.795 86.8037 195.065C73.4851 195.336 65.8943 201.841 65.3955 210.135C64.8977 218.427 70.9992 224.898 70.9992 224.898C70.9992 224.898 86.6732 210.376 86.8037 211.18C86.9341 211.984 107.98 205.18 107.98 205.18V205.179Z" fill="#4F2B2B"/>
<path d="M66.8529 202.058C63.8332 206.232 66.3729 207.521 69.2284 206.807C70.9638 207.72 73.1827 208.997 72.9762 204.041C72.7085 197.616 76.3181 201.323 79.3117 201.453C81.7066 201.557 83.7038 200.639 84.398 200.204C86.871 202.291 89.616 199.113 91.0012 199.847C92.5182 200.65 98.0909 196.969 96.529 192.273C95.2795 188.515 89.9343 187.663 87.4179 187.707C87.0014 185.932 85.5957 185.054 84.9449 184.836C81.0922 183.48 77.6127 188.011 76.3545 190.446C72.2935 187.524 69.8032 190.707 69.0656 192.664C67.9376 192.534 65.3691 193.134 64.1196 196.578C62.8701 200.022 65.4212 201.666 66.8529 202.058Z" fill="#4F2B2B"/>
<circle cx="10.1477" cy="10.1477" r="10.1477" transform="matrix(-1 0 0 1 86.5957 198.966)" fill="#4F2B2B"/>
<path d="M69.7367 221.917C69.9423 221.917 70.1431 221.812 70.2564 221.623C70.4278 221.337 70.3345 220.966 70.0499 220.794C69.8576 220.677 65.5538 217.952 66.0212 210.171C66.5362 201.608 74.7067 195.916 86.8382 195.67C99.6275 195.394 107.444 205.445 107.521 205.544C107.626 205.683 107.787 205.77 107.96 205.783C107.992 205.785 111.168 206.032 112.734 207.862C113.398 208.637 113.674 209.569 113.579 210.709C113.203 215.181 107.703 214.946 107.455 214.939C107.138 214.898 107.285 215.17 107.267 215.502C107.249 215.836 107.627 218.868 107.96 218.885C110.456 219.028 114.405 215.323 114.784 210.81C114.907 209.349 114.525 208.091 113.65 207.07C112.028 205.18 109.204 204.708 108.316 204.603C107.099 203.127 99.4314 194.455 87.3275 194.455C87.1571 194.455 86.9867 194.456 86.8135 194.46C74.0042 194.72 65.3692 200.858 64.8142 210.098C64.3001 218.659 69.2169 221.706 69.4263 221.831C69.5234 221.89 69.631 221.918 69.7367 221.918V221.917Z" fill="#4F2B2B"/>
<path d="M79.2314 219.852C79.1568 217.381 81.0993 215.318 83.5702 215.243C86.0411 215.168 88.1047 217.111 88.1793 219.582C88.254 222.053 86.3114 224.116 83.8405 224.191C81.3696 224.266 79.306 222.323 79.2314 219.852Z" fill="#FFBE97"/>
<path d="M81.4243 219.575L83.3272 221.336C83.6337 221.62 84.1126 221.601 84.3962 221.295C84.6799 220.988 84.6618 220.51 84.3553 220.226L82.4524 218.465C82.1459 218.181 81.667 218.199 81.3834 218.506C81.0997 218.812 81.1178 219.291 81.4243 219.575Z" fill="#4F2B2B"/>
<path d="M107.766 206.55C107.766 206.55 105.198 214.669 96.4956 213.144C87.793 211.619 84.5431 208.965 84.5431 208.965L96.7489 201.854L107.765 206.55H107.766Z" fill="#4F2B2B"/>
<path d="M97.5872 214.156C99.1055 214.156 100.528 213.929 101.853 213.475C106.06 212.033 107.646 208.814 107.712 208.678C107.856 208.377 107.73 208.019 107.43 207.873C107.129 207.726 106.769 207.854 106.623 208.153C106.609 208.182 105.164 211.074 101.432 212.34C97.6624 213.619 92.9503 212.871 87.4224 210.113C87.1216 209.962 86.7589 210.087 86.6114 210.383C86.4619 210.682 86.5837 211.046 86.8827 211.194C90.8342 213.165 94.4163 214.155 97.5872 214.155V214.156Z" fill="#4F2B2B"/>
<path d="M67.3876 219.124C67.7132 219.124 67.9816 218.866 67.9921 218.537C68.1368 213.652 69.7389 208.742 72.5014 204.713C72.6899 204.437 72.6204 204.061 72.3453 203.873C72.0702 203.684 71.6932 203.755 71.5048 204.029C68.6118 208.248 66.9345 213.387 66.7822 218.503C66.7727 218.836 67.0345 219.115 67.3695 219.125H67.3876V219.124Z" fill="#4F2B2B"/>
<path d="M62.7834 237.549L68.8178 230.653L84.0469 242.721L81.748 254.215L62.7834 237.549Z" fill="#E95D9A"/>
<path d="M62.783 237.548C62.783 237.548 53.5883 236.973 49.5654 239.272C45.5425 241.571 20.9006 272.395 24.1363 286.324C26.5304 296.628 49.1341 310.245 49.1341 310.245L68.8164 300.188L51.9357 278.35L66.805 254.501L62.7821 237.548H62.783Z" fill="#E95D9A"/>
<path d="M64.4488 298.537L66.6792 298.97C68.7468 299.368 70.6431 300.393 72.0224 301.852C74.3832 304.351 75.5046 307.242 75.3561 310.44C75.1762 314.334 73.0581 318.432 69.5331 321.846L69.1695 317.228L69.9263 313.171C69.9881 312.843 69.7711 312.528 69.4436 312.466C69.1209 312.403 68.8001 312.619 68.7382 312.949L67.9662 317.084C67.9557 317.136 67.9529 317.189 67.9576 317.242L68.7392 327.152C68.7801 328.016 68.1861 328.795 67.3237 328.985C66.8524 329.09 66.367 329.004 65.9595 328.743C65.5521 328.482 65.2703 328.077 65.1675 327.604L63.197 318.514L63.1913 313.536C63.1913 313.203 62.92 312.932 62.5868 312.932H62.5859C62.2527 312.932 61.9823 313.204 61.9823 313.538L61.988 318.579C61.988 318.622 61.9928 318.664 62.0023 318.707L63.9757 327.809C63.9624 327.864 63.9471 327.918 63.95 327.977C63.9947 328.907 63.5997 329.471 62.7753 329.655C62.3041 329.762 61.8186 329.673 61.4112 329.411C61.0028 329.151 60.722 328.747 60.6192 328.273L58.1993 319.382L58.5325 314.373C58.5553 314.04 58.3021 313.752 57.969 313.729C57.612 313.693 57.3483 313.96 57.3255 314.293L56.9856 319.404C56.9808 319.471 56.9875 319.538 57.0056 319.604L58.998 326.919C58.998 326.931 58.9923 326.941 58.9932 326.953C59.0856 328.839 58.463 328.977 58.2279 329.03C57.7548 329.134 57.2702 329.048 56.8628 328.788C56.4554 328.527 56.1746 328.122 56.0717 327.649L54.0993 318.56L54.1269 313.998C54.1288 313.664 53.8604 313.392 53.5263 313.389C53.1436 313.383 52.9208 313.656 52.918 313.99L52.8904 318.619C52.8904 318.663 52.8951 318.708 52.9046 318.752L54.7514 327.264C54.0403 327.413 53.5053 327.253 53.1798 327.063C52.7295 326.799 52.4106 326.369 52.3049 325.879L51.4272 323.629C50.7057 321.793 50.1945 319.872 49.907 317.918L49.5386 315.412C49.1997 313.115 49.452 310.761 50.2668 308.601C52.1688 303.557 56.1936 297.729 64.4478 298.538L64.4488 298.537Z" fill="#FFBE97"/>
<path d="M48.3423 315.589L48.7107 318.094C49.0115 320.139 49.5465 322.15 50.3033 324.071L51.1524 326.228C51.3009 326.954 51.8292 327.673 52.5698 328.107C53.0677 328.398 53.6341 328.545 54.2252 328.545C54.4994 328.545 54.7802 328.502 55.062 328.438C55.2962 328.996 55.6893 329.472 56.21 329.806C56.7012 330.121 57.261 330.283 57.8312 330.283C58.0492 330.283 58.27 330.26 58.4899 330.211C59.043 330.088 59.4561 329.785 59.7436 329.324C59.9816 329.762 60.3195 330.148 60.7584 330.429C61.2505 330.744 61.8093 330.907 62.3795 330.907C62.5975 330.907 62.8184 330.883 63.0364 330.834C63.9102 330.64 64.5471 330.142 64.885 329.428C65.0155 329.549 65.1544 329.664 65.3077 329.762C65.7989 330.076 66.3577 330.238 66.9269 330.238C67.1449 330.238 67.3658 330.214 67.5857 330.165C69.025 329.846 70.0179 328.546 69.9455 327.073L69.6561 323.396C73.839 319.647 76.3587 314.959 76.5644 310.493C76.7262 307.004 75.4592 303.727 72.9013 301.018C71.3506 299.377 69.2221 298.226 66.9079 297.78L64.6233 297.34C55.0334 296.391 50.8163 303.718 49.1362 308.171C48.249 310.522 47.9739 313.087 48.3413 315.586L48.3423 315.589Z" fill="#FFBE97"/>
<path d="M116.414 250.734L121.739 240.411L131.219 234.208L140.688 252.221L123.163 262.025L116.414 250.734Z" fill="#FFBE97"/>
<path d="M131.218 234.209L148.302 230.689C149.458 230.45 150.605 231.142 150.935 232.274C151.256 233.373 150.708 234.537 149.657 234.992L131.819 242.698L131.213 234.209H131.218Z" fill="#FFBE97"/>
<path d="M142.357 237.047L143.149 239.41C143.513 240.497 143.114 241.697 142.166 242.343L142.067 242.41L142.8 244.464C143.152 245.45 142.867 246.552 142.082 247.244L142.012 247.304L142.429 249.003C142.687 250.057 142.261 251.16 141.361 251.766L140.686 252.221L128.668 245.192L128.352 240.579L142.357 237.05V237.047Z" fill="#FFBE97"/>
<path d="M137.027 240.132L142.783 238.544L142.784 238.543C143.047 238.469 143.213 238.197 143.137 237.923C143.064 237.65 142.783 237.498 142.518 237.568L142.518 237.568L142.516 237.568L136.755 239.158L136.755 239.158L136.754 239.158C136.49 239.233 136.325 239.505 136.401 239.78L137.027 240.132ZM137.027 240.132C136.974 240.148 136.924 240.152 136.889 240.152H136.639V240.083L137.027 240.132Z" fill="#4F2B2B" stroke="#4F2B2B" stroke-width="0.5"/>
<path d="M137.728 243.873C137.687 243.738 137.764 243.595 137.898 243.554L137.728 243.873ZM137.728 243.873C137.761 243.983 137.862 244.055 137.972 244.055C137.996 244.055 138.022 244.05 138.046 244.043C138.42 243.93 141.716 242.932 142.207 242.623C142.324 242.549 142.36 242.391 142.286 242.271C142.212 242.154 142.054 242.118 141.934 242.192L137.728 243.873ZM137.489 243.945L137.489 243.945C137.554 244.162 137.753 244.305 137.972 244.305C138.026 244.305 138.077 244.294 138.118 244.282L138.118 244.282C138.306 244.225 139.225 243.947 140.16 243.644C140.627 243.493 141.1 243.334 141.487 243.194C141.863 243.058 142.19 242.929 142.34 242.834L142.341 242.834C142.576 242.686 142.644 242.374 142.499 242.139L142.499 242.139L142.497 242.137C142.349 241.902 142.037 241.834 141.802 241.979L141.802 241.979L141.801 241.98C141.746 242.015 141.571 242.089 141.282 242.196C141.005 242.298 140.649 242.42 140.256 242.549C139.471 242.809 138.546 243.097 137.825 243.315L137.825 243.315C137.559 243.396 137.408 243.679 137.489 243.945Z" fill="#4F2B2B" stroke="#4F2B2B" stroke-width="0.5"/>
<path d="M138.24 248.604L138.24 248.604C138.312 248.815 138.511 248.946 138.719 248.946C138.774 248.946 138.831 248.937 138.886 248.917L142.178 247.781L142.178 247.781L142.181 247.78C142.443 247.686 142.581 247.402 142.491 247.138L142.491 247.138L142.49 247.135C142.396 246.872 142.113 246.735 141.849 246.824L141.849 246.824L141.848 246.824L138.553 247.962L138.553 247.962L138.551 247.963C138.289 248.056 138.151 248.34 138.24 248.604Z" fill="#4F2B2B" stroke="#4F2B2B" stroke-width="0.5"/>
<path d="M117.035 248.351C117.035 248.351 101.863 255.899 94.1159 254.664C88.9399 253.838 85.1596 250.604 82.4112 246.594C73.3879 249.675 64.635 253.663 57.4336 260.032C57.8334 261.241 58.2835 262.486 58.803 263.783C70.8573 293.92 114.928 282.024 125.218 265.186L117.032 248.348L117.035 248.351Z" fill="#E95D9A"/>
</g>
<path d="M7 354.799H157L151.318 449.271H12.6818L7 354.799Z" fill="#357E94"/>
<path d="M82.2809 411.539C91.9198 411.539 99.7337 409.232 99.7337 406.387C99.7337 403.542 91.9198 401.236 82.2809 401.236C72.642 401.236 64.8281 403.542 64.8281 406.387C64.8281 409.232 72.642 411.539 82.2809 411.539Z" fill="#FFF4E9"/>
<path d="M450.329 449H9.6709C5.0569 449 5 451.462 5 454.5C5 457.538 5.0569 460 9.6709 460H450.329C454.943 460 455 457.538 455 454.5C455 451.462 454.943 449 450.329 449Z" fill="#F2AE54"/>
</g>
<defs>
<clipPath id="clip0_761_12645">
<rect width="460" height="460" fill="white"/>
</clipPath>
</defs>
</svg>
