<svg width="460" height="460" viewBox="0 0 460 460" fill="none" xmlns="http://www.w3.org/2000/svg">
<g clip-path="url(#clip0_761_9832)">
<rect width="460" height="460" fill="white"/>
<path d="M-196.794 276.546C-195.47 275.953 -193.968 276.294 -193.018 277.284L-132.452 228.924C-132.55 228.776 -132.638 228.62 -132.714 228.454C-133.468 226.765 -132.711 224.787 -131.024 224.032C-129.337 223.276 -127.357 224.035 -126.601 225.722C-126.481 225.992 -126.402 226.269 -126.356 226.548L-83.4044 223.559C-83.3738 222.307 -82.6455 221.125 -81.4264 220.581C-79.7393 219.825 -77.7593 220.584 -77.0037 222.271C-76.6716 223.018 -76.634 223.822 -76.8396 224.551L-32.7296 241.605C-32.3945 240.934 -31.8356 240.37 -31.0977 240.037C-30.2966 239.681 -29.4335 239.667 -28.6642 239.924L16.6542 137.762C16.0459 137.424 15.5364 136.893 15.2289 136.21C14.4733 134.523 15.2319 132.543 16.9189 131.787C18.606 131.032 20.586 131.79 21.3416 133.477C21.5601 133.969 21.6476 134.484 21.6258 134.987L155.498 153.262C154.973 151.654 155.737 149.875 157.315 149.168C159.002 148.413 160.983 149.171 161.738 150.858C161.807 151.013 161.859 151.168 161.902 151.327L210.786 142.482C210.667 141.1 211.415 139.734 212.752 139.137C213.425 138.836 214.143 138.779 214.813 138.922L233.471 78.9212L232.635 79.0574L233.653 78.3426L233.766 77.9811L233.942 78.1412L321.114 16.9393C321.061 16.8437 321.01 16.7458 320.963 16.6434C320.207 14.9564 320.966 12.9763 322.653 12.2208C324.34 11.4652 326.32 12.2237 327.076 13.9108C327.831 15.5979 327.073 17.5779 325.386 18.3335C324.759 18.6143 324.088 18.6835 323.458 18.5754L311.099 64.8254C311.143 64.9037 311.186 64.9842 311.224 65.0691C311.413 65.4892 311.504 65.9299 311.515 66.3647L392.549 72.1241C392.727 71.0517 393.418 70.0884 394.485 69.6115C396.172 68.8559 398.152 69.6144 398.907 71.3015C399.663 72.9886 398.905 74.9686 397.217 75.7242C396.551 76.0228 395.835 76.0815 395.172 75.9409L378.668 129.804C379.433 130.118 380.088 130.714 380.453 131.532C380.943 132.629 380.792 133.846 380.169 134.771L411.187 160.214C411.471 159.925 411.81 159.682 412.202 159.508C413.889 158.752 415.869 159.511 416.624 161.198C417.38 162.885 416.621 164.865 414.934 165.62C413.909 166.077 412.778 165.976 411.878 165.45L385.964 201.6C386.323 201.909 386.621 202.298 386.829 202.762C387.506 204.277 386.964 206.023 385.626 206.913L408.942 246.014C410.623 245.287 412.579 246.043 413.328 247.72C414.083 249.407 413.325 251.387 411.638 252.142C411.344 252.274 411.041 252.357 410.735 252.399L411.389 286.523C412.577 286.611 413.68 287.331 414.199 288.496C414.335 288.798 414.419 289.11 414.459 289.422L466.304 287.383C466.37 286.17 467.093 285.034 468.279 284.505C469.966 283.75 471.946 284.508 472.702 286.195C473.457 287.882 472.699 289.862 471.012 290.618C470.887 290.674 470.763 290.716 470.637 290.757L486.466 365.63C487.88 365.464 489.299 366.221 489.909 367.588C490.665 369.275 489.906 371.255 488.219 372.011C486.532 372.767 484.552 372.008 483.797 370.321C483.58 369.84 483.493 369.334 483.511 368.84L372.4 354.686C372.139 355.609 371.489 356.412 370.546 356.833C368.859 357.589 366.879 356.83 366.123 355.143C365.368 353.456 366.126 351.476 367.813 350.721C367.981 350.647 368.153 350.591 368.325 350.544L363.967 311.389C362.639 311.444 361.345 310.702 360.77 309.413C360.583 308.995 360.489 308.556 360.479 308.126L267.786 298.843C267.585 299.876 266.9 300.798 265.869 301.261C264.181 302.017 262.201 301.258 261.446 299.571C260.69 297.884 261.449 295.904 263.136 295.149C263.523 294.975 263.927 294.886 264.324 294.865L266.042 251.811C264.931 251.663 263.917 250.962 263.427 249.86L263.532 250.15L160.533 287.484C160.94 289.041 160.179 290.706 158.664 291.384C157.882 291.733 157.039 291.754 156.283 291.514L138.423 333.697C139.053 334.034 139.582 334.571 139.894 335.277C140.647 336.966 139.891 338.944 138.204 339.699C136.517 340.455 134.537 339.697 133.781 338.009C133.487 337.352 133.424 336.649 133.558 335.992L67.2306 316.317C66.9183 317.098 66.3188 317.761 65.4916 318.131C63.8045 318.886 61.8245 318.128 61.0689 316.441C60.7546 315.737 60.7044 314.986 60.8753 314.292L20.7809 300.616C20.4573 301.342 19.8769 301.955 19.0954 302.305C17.4083 303.06 15.4283 302.302 14.6728 300.615C14.5925 300.436 14.5341 300.253 14.4867 300.072L-62.4512 310.674C-62.4201 311.983 -63.1631 313.241 -64.4322 313.81C-65.3879 314.235 -66.4374 314.179 -67.3066 313.741L-96.413 358.395C-95.9818 358.724 -95.624 359.162 -95.3855 359.691C-94.6299 361.378 -95.3885 363.358 -97.0756 364.114C-98.7648 364.867 -100.743 364.111 -101.498 362.424C-101.503 362.411 -101.507 362.397 -101.514 362.387L-141.522 371.335L-162.67 376.065C-162.624 377.389 -163.364 378.672 -164.649 379.247C-166.336 380.003 -168.316 379.244 -169.072 377.557C-169.658 376.244 -169.33 374.76 -168.363 373.807L-194.256 333.704C-194.297 333.724 -194.339 333.749 -194.385 333.769C-196.072 334.524 -198.052 333.766 -198.807 332.079C-199.563 330.392 -198.804 328.412 -197.117 327.656C-196.717 327.478 -196.3 327.384 -195.887 327.37L-195.748 282.933C-196.907 282.821 -197.976 282.109 -198.484 280.968C-199.24 279.281 -198.481 277.301 -196.794 276.546ZM-165.471 372.888C-164.399 373.067 -163.436 373.758 -162.959 374.824C-162.867 375.031 -162.8 375.24 -162.75 375.45L-138.771 370.087L-101.707 361.798C-101.78 361.48 -101.802 361.159 -101.781 360.842L-161.717 342.026L-165.469 372.886L-165.471 372.888ZM66.0683 312.35L86.7319 288.394L54.6781 257.255C54.4395 257.458 54.17 257.635 53.8696 257.769C53.7281 257.834 53.5821 257.881 53.436 257.924L63.8011 311.742C64.6112 311.663 65.4174 311.883 66.0683 312.35ZM134.667 334.101C134.906 333.898 135.175 333.721 135.476 333.587C135.652 333.509 135.826 333.45 136.005 333.405L122.681 250.794C121.906 250.846 121.139 250.626 120.514 250.181L87.5795 288.361L134.665 334.103L134.667 334.101ZM372.354 128.482L356.829 164.836L375.357 135.55C374.932 135.223 374.581 134.787 374.342 134.263C373.814 133.081 374.03 131.759 374.782 130.812L372.354 128.482ZM392.797 74.0319C392.61 73.6096 392.516 73.1711 392.506 72.7363L311.472 66.9814C311.379 67.5438 311.143 68.0747 310.786 68.5215L372.134 127.413L394.26 75.6035C393.634 75.2659 393.109 74.7285 392.795 74.0298L392.797 74.0319ZM20.705 137.163C20.4408 137.436 20.1281 137.666 19.7713 137.844L39.569 189.467C41.1408 189.023 42.8433 189.786 43.5298 191.323L75.2201 180.565L20.705 137.163ZM-193.447 328.277C-193.396 328.327 -193.343 328.379 -193.297 328.433L-158.664 294.985C-158.839 294.766 -158.989 294.527 -159.11 294.262C-159.424 293.563 -159.472 292.814 -159.308 292.122L-168.544 289.003L-193.447 328.277ZM-95.0775 249.993L-83.1849 241.701C-83.2382 241.609 -83.2871 241.513 -83.3317 241.413C-83.6103 240.789 -83.6816 240.125 -83.5778 239.499L-94.0019 236.764L-152.336 289.926L-95.0775 249.993ZM-82.833 242.207L-124.419 271.209L-153.144 291.242C-153.091 291.333 -153.042 291.429 -152.997 291.529C-152.747 292.086 -152.666 292.673 -152.726 293.242L-90.5756 305.58L-81.084 243.297C-81.7585 243.128 -82.3737 242.753 -82.833 242.211L-82.833 242.207ZM-159.109 291.536C-158.786 290.806 -158.206 290.189 -157.42 289.839C-156.66 289.498 -155.841 289.467 -155.1 289.688L-131.19 230.087L-168.203 288.467L-159.107 291.539L-159.109 291.536ZM-128.289 230.142C-129.049 230.483 -129.868 230.514 -130.609 230.294L-154.528 289.916C-154.266 290.052 -154.02 290.22 -153.8 290.419L-94.7182 236.576L-126.514 228.23C-126.815 229.052 -127.43 229.757 -128.292 230.14L-128.289 230.142ZM-126.353 227.634L-94.1718 236.082L-82.7283 225.654C-82.8765 225.456 -83.0095 225.239 -83.1142 225.006C-83.2346 224.736 -83.3135 224.459 -83.3597 224.18L-126.311 227.168C-126.314 227.326 -126.326 227.483 -126.353 227.638L-126.353 227.634ZM-80.4113 226.964C-81.1157 226.887 -81.7848 226.594 -82.3113 226.111L-93.4577 236.268L-83.4213 238.903C-83.1203 238.081 -82.5058 237.376 -81.6438 236.993C-81.2868 236.832 -80.9138 236.744 -80.5426 236.714L-80.4113 226.964ZM-77.2664 241.511L-40.952 263.527L-31.5667 245.89C-32.0833 245.551 -32.5136 245.067 -32.7877 244.46C-32.9705 244.051 -33.0616 243.623 -33.0762 243.202L-76.9687 240.556C-77.0205 240.886 -77.1204 241.208 -77.2664 241.511ZM15.6498 296.631C15.8647 296.461 16.1038 296.31 16.3672 296.192C16.8831 295.962 17.4221 295.872 17.9469 295.907L27.505 251.493L-26.4728 243.867C-26.614 244.461 -26.913 245.008 -27.3463 245.448L15.652 296.633L15.6498 296.631ZM268.264 245.657L288.621 216.418C288.218 216.096 287.88 215.677 287.657 215.172C287.548 214.926 287.474 214.676 287.426 214.42L274.534 214.183L267.719 245.382C267.91 245.457 268.092 245.55 268.268 245.657L268.264 245.657ZM407.932 290.777C407.637 289.746 407.861 288.658 408.483 287.835L392.086 272.779L366.227 305.72C366.492 305.993 366.718 306.314 366.883 306.68L407.93 290.775L407.932 290.777ZM365.761 305.318L391.632 272.359L340.616 225.519C340.361 225.749 340.067 225.946 339.736 226.093C339.699 226.108 339.66 226.122 339.623 226.138L363.221 304.758C364.12 304.593 365.033 304.806 365.758 305.315L365.761 305.318ZM41.8441 195.746C41.7027 195.81 41.561 195.857 41.415 195.9L52.1748 251.385C53.1225 251.289 54.0671 251.607 54.7655 252.245L85.7143 224.129L43.049 194.828C42.7311 195.209 42.3274 195.527 41.8441 195.746ZM55.1803 252.705C55.3285 252.903 55.4571 253.116 55.5641 253.351C55.6732 253.592 55.7453 253.841 55.7934 254.092L119.162 247.99C119.114 247.687 119.107 247.385 119.141 247.09L86.2397 224.494L55.1826 252.707L55.1803 252.705ZM119.28 246.433C119.414 246.023 119.622 245.639 119.901 245.306L108.656 211.807L107.568 208.562C106.499 208.816 105.391 208.524 104.585 207.819L86.7037 224.061L119.275 246.429L119.28 246.433ZM108.163 208.362C108.163 208.362 108.16 208.364 108.158 208.367L109.242 211.598L120.398 244.832C120.608 244.667 120.843 244.52 121.1 244.404C121.524 244.215 121.967 244.121 122.402 244.111L132.973 217.101L109.706 206.963C109.366 207.561 108.842 208.063 108.165 208.364L108.163 208.362ZM43.3986 194.318L86.1848 223.703L104.163 207.37C103.998 207.16 103.854 206.927 103.74 206.672C103.504 206.141 103.416 205.582 103.459 205.04L43.694 193.616C43.6241 193.859 43.5234 194.094 43.3986 194.318ZM156.585 154.828L109.385 203.19C109.568 203.413 109.728 203.665 109.853 203.94C110.214 204.749 110.226 205.623 109.957 206.399L133.195 216.523L157.189 155.219C156.974 155.111 156.774 154.98 156.587 154.826L156.585 154.828ZM133.761 216.771L160.799 228.553C161.139 228.008 161.638 227.557 162.269 227.277C162.515 227.167 162.768 227.091 163.021 227.045L160.328 183.647L158.586 155.574C158.304 155.565 158.029 155.524 157.764 155.445L133.761 216.771ZM306.596 69.3907L289.95 95.2273L279.663 111.198C280.079 111.525 280.423 111.95 280.655 112.468C281.11 113.482 281.012 114.6 280.5 115.496L294.056 125.022L307.056 69.5965C306.896 69.5388 306.743 69.4702 306.593 69.3929L306.596 69.3907ZM247.828 210.596L282.094 169.621C281.818 169.341 281.579 169.011 281.412 168.63C281.12 167.975 281.057 167.276 281.187 166.619L263.186 160.153L247.237 210.271C247.446 210.359 247.646 210.469 247.832 210.596L247.828 210.596ZM281.358 166.026C281.671 165.245 282.27 164.578 283.102 164.207C283.311 164.114 283.522 164.044 283.738 163.997L277.72 117.179C277.438 117.188 277.158 117.16 276.886 117.101L263.373 159.565L281.361 166.028L281.358 166.026ZM280.146 116.002C279.832 116.37 279.437 116.679 278.965 116.891C278.758 116.982 278.545 117.054 278.333 117.102L280.49 133.823L284.371 163.917C284.559 163.911 284.745 163.924 284.929 163.949L293.907 125.668L280.146 115.998L280.146 116.002ZM285.529 164.092C286.386 164.38 287.126 165.007 287.524 165.898C287.685 166.259 287.773 166.632 287.803 167.003L351.711 167.901C351.762 167.439 351.907 166.997 352.137 166.595L294.452 126.057L285.531 164.095L285.529 164.092ZM351.98 169.621C351.819 169.259 351.731 168.886 351.701 168.515L287.793 167.617C287.722 168.289 287.446 168.927 287.005 169.442L313.751 197.116L352.138 169.927C352.08 169.827 352.029 169.725 351.982 169.618L351.98 169.621ZM286.56 169.872C286.341 170.047 286.1 170.2 285.834 170.32C285.754 170.358 285.671 170.385 285.591 170.414L290.429 210.478C291.497 210.388 292.554 210.816 293.256 211.631L313.24 197.477L286.56 169.872ZM289.35 210.752C289.504 210.683 289.663 210.631 289.82 210.586L284.986 170.566C284.674 170.614 284.364 170.617 284.058 170.58L274.666 213.568L287.366 213.803C287.368 212.526 288.104 211.305 289.345 210.752L289.35 210.752ZM283.456 170.448C283.197 170.367 282.947 170.256 282.714 170.114L248.31 211.001C248.584 211.278 248.816 211.606 248.985 211.985C249.148 212.348 249.237 212.726 249.264 213.104L274.037 213.56L283.454 170.45L283.456 170.448ZM166.69 228.965C166.71 229.01 166.726 229.056 166.744 229.104L211.644 219.992L242.597 213.71C242.521 213.003 242.677 212.298 243.021 211.692L194.172 177.467L165.372 227.47C165.935 227.811 166.402 228.318 166.69 228.965ZM244.85 210.179C245.445 209.975 246.061 209.952 246.641 210.08L262.598 159.939L217.157 143.613C216.87 144.228 216.396 144.758 215.77 145.114L244.85 210.179ZM217.369 143.032L262.788 159.35L276.295 116.91C275.63 116.629 275.055 116.138 274.682 115.473L217.297 141.121C217.515 141.755 217.529 142.419 217.369 143.032ZM276.232 110.774C277.203 110.341 278.268 110.408 279.144 110.862L286.643 99.2183L306.077 69.0499C305.971 68.9634 305.868 68.8703 305.771 68.7707L262.333 103.762L274.34 114.599C273.977 113.064 274.739 111.442 276.232 110.774ZM309.22 69.6213C308.701 69.7919 308.168 69.8271 307.656 69.7486L294.601 125.406L352.489 166.087C352.731 165.801 353.022 165.553 353.359 165.356L309.22 69.6213ZM352.494 170.429L314.181 197.565L336.278 220.428C336.497 220.253 336.738 220.1 337.004 219.98C337.67 219.681 338.382 219.623 339.043 219.761L353.77 171.349C353.285 171.15 352.845 170.839 352.494 170.429ZM335.833 220.858L313.672 197.928L293.614 212.135C293.672 212.235 293.723 212.337 293.77 212.444C294.017 212.995 294.099 213.578 294.043 214.142L335.158 222.105C335.29 221.649 335.52 221.226 335.833 220.862L335.833 220.858ZM267.121 245.211L273.903 214.174L249.252 213.72C249.148 214.641 248.668 215.495 247.895 216.057L265.311 245.364C265.908 245.14 266.532 245.095 267.119 245.208L267.121 245.211ZM264.754 245.635L247.363 216.37C247.339 216.381 247.317 216.394 247.293 216.405C245.606 217.161 243.626 216.402 242.87 214.715C242.812 214.585 242.763 214.45 242.723 214.315L173.486 228.368L166.917 229.699C166.961 229.924 166.98 230.151 166.978 230.374L263.308 247.455C263.552 246.712 264.049 246.057 264.754 245.631L264.754 245.635ZM160.52 229.106L133.535 217.35L123.038 244.165C124.045 244.344 124.949 244.98 125.443 245.951L160.371 231.083C160.216 230.411 160.278 229.726 160.52 229.11L160.52 229.106ZM51.137 251.661C51.2785 251.596 51.4201 251.549 51.5662 251.506L40.8063 196.021C40.5618 196.045 40.317 196.043 40.0785 196.012L28.2501 250.977L49.2513 253.946C49.4853 252.967 50.1509 252.104 51.1414 251.661L51.137 251.661ZM-26.6728 241.734C-26.4499 242.23 -26.3645 242.752 -26.3885 243.261L27.6331 250.895L39.472 195.884C38.8891 195.702 38.3573 195.361 37.9467 194.888L-26.8417 241.408C-26.7796 241.512 -26.7219 241.621 -26.6728 241.734ZM43.7294 191.914C43.8157 192.28 43.8408 192.651 43.8046 193.014L103.559 204.436C103.65 204.096 103.798 203.774 103.992 203.475L75.7945 181.026L43.7272 191.911L43.7294 191.914ZM104.379 202.993C104.669 202.689 105.021 202.437 105.428 202.252C106.64 201.71 108 201.95 108.951 202.75L156.142 154.397C156.005 154.237 155.881 154.063 155.774 153.872L76.4939 180.786L104.381 202.986L104.379 202.993ZM160.055 155.288C159.776 155.412 159.49 155.491 159.205 155.535L163.637 226.987C164.044 226.988 164.444 227.061 164.817 227.202L193.666 177.113L161.24 154.394C160.926 154.766 160.529 155.074 160.055 155.288ZM194.482 176.931L243.375 211.186C243.626 210.891 243.927 210.633 244.284 210.433L215.204 145.368C214.369 145.652 213.49 145.586 212.731 145.238L194.48 176.928L194.482 176.931ZM217.043 140.559L273.98 115.112L261.843 104.159L216.913 140.353C216.959 140.42 217.001 140.487 217.043 140.559ZM305.384 68.2911C305.282 68.139 305.191 67.9802 305.113 67.8083C305.035 67.6363 304.979 67.4598 304.932 67.2832L234.608 78.7429L261.866 103.346L305.382 68.2933L305.384 68.2911ZM310.362 68.9754C310.223 69.0946 310.071 69.2052 309.91 69.3027L309.853 69.5196L353.92 165.102C354.633 164.849 355.38 164.855 356.06 165.072L371.88 128.03L310.366 68.9753L310.362 68.9754ZM410.8 160.696L379.782 135.253C379.498 135.542 379.159 135.785 378.767 135.959C378.517 136.073 378.26 136.145 378 136.193L380.577 165.464L410.222 162.585C410.219 161.909 410.423 161.252 410.798 160.698L410.8 160.696ZM377.384 136.247C376.858 136.245 376.341 136.118 375.88 135.882L357.078 165.601C357.503 165.927 357.854 166.363 358.093 166.888C358.202 167.13 358.274 167.378 358.322 167.625L379.963 165.524L377.384 136.247ZM358.382 168.238C358.386 169.152 358.015 170.031 357.352 170.666L381.819 201.413C381.999 201.283 382.199 201.167 382.41 201.071C382.628 200.973 382.853 200.904 383.077 200.856L380.021 166.135L358.384 168.236L358.382 168.238ZM381.353 201.822L360.185 175.218L380.516 204.891C380.257 203.783 380.586 202.628 381.353 201.822ZM356.666 171.175C356.581 171.222 356.494 171.266 356.405 171.308C355.739 171.607 355.027 171.666 354.365 171.527L339.639 219.94C340.409 220.254 341.065 220.852 341.431 221.67C341.754 222.391 341.798 223.166 341.612 223.876L407.299 247.558C407.52 247.126 407.84 246.738 408.238 246.431L356.666 171.171L356.666 171.175ZM341.4 224.457C341.3 224.67 341.181 224.874 341.036 225.065L392.015 271.873L407.987 251.527C407.672 251.231 407.409 250.872 407.222 250.45C406.881 249.69 406.852 248.873 407.07 248.135L341.403 224.459L341.4 224.457ZM408.476 251.903L392.473 272.288L408.907 287.377C409.163 287.148 409.457 286.95 409.788 286.803C410.112 286.658 410.446 286.57 410.782 286.532L410.126 252.424C409.538 252.397 408.97 252.216 408.478 251.901L408.476 251.903ZM412.518 292.918C410.872 293.654 408.954 292.952 408.16 291.352L367.281 307.192L465.644 288.029L414.497 290.04C414.431 291.254 413.709 292.39 412.522 292.918L412.518 292.918ZM466.6 288.926C466.537 288.786 466.488 288.643 466.447 288.499L367.173 307.84C367.203 308.343 367.12 308.842 366.934 309.3L406.485 328.859L466.709 289.132C466.673 289.063 466.635 288.995 466.602 288.923L466.6 288.926ZM362.464 304.99C362.519 304.966 362.576 304.948 362.63 304.927L339.035 226.317C338.042 226.521 337.023 226.252 336.258 225.629L316.153 246.087L362.036 305.223C362.173 305.137 362.312 305.057 362.464 304.99ZM335.817 225.196C335.618 224.962 335.447 224.699 335.316 224.401C335.068 223.85 334.987 223.267 335.043 222.703L293.928 214.74C293.762 215.309 293.443 215.832 293.003 216.245L315.771 245.59L335.817 225.192L335.817 225.196ZM292.511 216.627C292.374 216.713 292.232 216.796 292.08 216.862C291.407 217.163 290.689 217.22 290.021 217.079L265.786 295.114C266.085 295.239 266.364 295.404 266.619 295.612L315.331 246.042L292.508 216.629L292.511 216.627ZM265.197 294.929L289.429 216.896C289.331 216.856 289.232 216.811 289.138 216.757L268.754 246.031C269.08 246.33 269.35 246.699 269.542 247.126C270.295 248.815 269.539 250.793 267.852 251.548C267.464 251.722 267.061 251.811 266.663 251.832L264.947 294.884C265.033 294.894 265.116 294.911 265.199 294.927L265.197 294.929ZM263.171 248.058L166.913 230.986C166.708 232.011 166.025 232.926 164.998 233.385C164.536 233.59 164.052 233.682 163.575 233.673L157.966 285.048C158.966 285.251 159.857 285.91 160.322 286.9L263.315 249.569C263.145 249.067 263.101 248.552 263.169 248.055L263.171 248.058ZM155.935 285.271C156.397 285.066 156.881 284.974 157.356 284.981L162.842 234.737L151.248 280.746L155.374 285.586C155.546 285.464 155.735 285.356 155.935 285.266L155.935 285.271ZM162.518 233.483C161.683 233.187 160.965 232.568 160.575 231.695C160.571 231.686 160.568 231.675 160.562 231.664L125.668 246.519C126.013 247.694 125.681 248.941 124.853 249.791L150.753 280.174L162.516 233.485L162.518 233.483ZM124.385 250.193C124.213 250.315 124.024 250.424 123.824 250.513C123.65 250.589 123.473 250.649 123.294 250.694L136.618 333.306C136.867 333.291 137.114 333.299 137.359 333.336L150.569 280.907L124.385 250.193ZM120.05 249.776C119.787 249.506 119.566 249.188 119.401 248.823C119.368 248.747 119.341 248.668 119.312 248.592L55.849 254.701C55.8513 255.47 55.5869 256.216 55.1091 256.812L87.1386 287.928L120.05 249.776ZM50.2036 257.148C49.893 256.855 49.632 256.495 49.4469 256.079C49.2241 255.583 49.1387 255.061 49.1626 254.552L28.1198 251.577L18.5575 296.004C18.8729 296.085 19.1734 296.211 19.4524 296.377L50.2036 257.143L50.2036 257.148ZM15.2012 297.061L-27.8236 245.846C-27.9908 245.963 -28.1713 246.068 -28.3629 246.152C-29.2423 246.545 -30.1975 246.525 -31.02 246.18L-40.4225 263.848L14.9355 297.411C15.0174 297.288 15.106 297.171 15.2034 297.059L15.2012 297.061ZM-41.2444 264.076L-77.5873 242.041C-77.92 242.489 -78.3647 242.863 -78.9112 243.106C-79.0418 243.164 -79.1725 243.208 -79.3054 243.251L-68.7966 294.516L-66.151 307.428C-65.5658 307.366 -64.9815 307.464 -64.4572 307.693L-41.2466 264.078L-41.2444 264.076ZM-67.1649 307.697C-67.0321 307.637 -66.8948 307.59 -66.7553 307.549L-79.9097 243.377C-80.0996 243.398 -80.2853 243.402 -80.4734 243.39L-89.9693 305.7L-69.0233 309.857C-68.7648 308.928 -68.1118 308.118 -67.1649 307.697ZM-90.6687 306.191L-152.848 293.846C-153.005 294.372 -153.289 294.855 -153.684 295.252L-100.742 358.63C-100.476 358.376 -100.165 358.161 -99.8104 358.003C-99.3924 357.816 -98.9539 357.722 -98.5235 357.712L-90.6731 306.191L-90.6687 306.191ZM-101.681 360.224C-101.576 359.821 -101.398 359.437 -101.151 359.099L-154.154 295.648C-154.319 295.763 -154.498 295.865 -154.687 295.947C-155.164 296.159 -155.659 296.249 -156.149 296.235L-161.64 341.401L-101.679 360.222L-101.681 360.224ZM-156.763 296.164C-157.306 296.047 -157.811 295.798 -158.236 295.432L-192.919 328.926C-192.835 329.061 -192.757 329.198 -192.69 329.346C-192.345 330.119 -192.318 330.951 -192.552 331.701L-162.242 341.216L-156.763 296.164ZM-193.94 327.897L-169.151 288.801L-192.372 280.961C-192.695 281.692 -193.275 282.308 -194.061 282.658C-194.41 282.814 -194.769 282.903 -195.13 282.934L-195.268 327.402C-194.796 327.472 -194.344 327.638 -193.94 327.897ZM-192.633 277.766C-192.536 277.914 -192.447 278.07 -192.371 278.236C-192.057 278.935 -192.009 279.684 -192.173 280.376L-168.811 288.264L-131.704 229.737C-131.832 229.638 -131.955 229.525 -132.068 229.406L-192.633 277.766ZM-77.0618 225.13C-77.3969 225.802 -77.9558 226.366 -78.6937 226.698C-79.0507 226.858 -79.4237 226.947 -79.7949 226.976L-79.9262 236.727C-78.78 236.848 -77.727 237.557 -77.2233 238.685C-77.0405 239.094 -76.9493 239.522 -76.9347 239.944L-33.0423 242.589C-33.0216 242.454 -32.9922 242.318 -32.9562 242.184L-77.0662 225.13L-77.0618 225.13ZM-28.1003 240.18C-27.7665 240.365 -27.4628 240.607 -27.2045 240.904L37.5839 194.384C37.5218 194.28 37.464 194.171 37.4149 194.058C36.6772 192.41 37.3859 190.485 38.9918 189.693L19.1941 138.07C18.5292 138.257 17.845 138.23 17.2203 138.02L-28.0981 240.182L-28.1003 240.18ZM21.546 135.606C21.4575 135.987 21.3011 136.354 21.0855 136.683L75.913 180.332L154.285 153.725L21.5437 135.604L21.546 135.606ZM162.016 151.942C162.077 152.626 161.921 153.304 161.59 153.889L193.97 176.574L212.193 144.931C211.718 144.594 211.32 144.134 211.066 143.564C210.997 143.409 210.946 143.254 210.903 143.095L162.019 151.94L162.016 151.942ZM215.407 139.111C215.821 139.285 216.202 139.541 216.522 139.869L261.374 103.737L234.069 79.0929L215.405 139.109L215.407 139.111ZM322.86 18.4211C322.33 18.2246 321.846 17.8923 321.471 17.4498L235.202 78.0188L304.832 66.6743C304.74 65.3136 305.486 63.9762 306.803 63.3856C308.155 62.7816 309.688 63.1485 310.637 64.1804L322.865 18.421L322.86 18.4211ZM393.853 78.1334L372.611 127.877L375.207 130.367C375.447 130.158 375.723 129.978 376.03 129.842C376.696 129.543 377.413 129.485 378.078 129.623L393.855 78.1312L393.853 78.1334ZM411.374 165.094C411.015 164.785 410.715 164.394 410.509 163.933C410.4 163.691 410.33 163.445 410.28 163.196L380.628 166.077L383.684 200.785C384.311 200.769 384.925 200.934 385.461 201.244L411.374 165.094ZM385.08 207.209C383.993 207.671 382.795 207.515 381.882 206.891L405.074 240.735L385.082 207.211L385.08 207.209ZM470.035 290.889C468.895 291.021 467.759 290.555 467.037 289.654L407.115 329.179L483.999 367.201C484.339 366.647 484.845 366.186 485.482 365.898C485.606 365.843 485.733 365.798 485.857 365.76L470.033 290.887L470.035 290.889ZM483.588 368.227C483.624 368.067 483.669 367.907 483.728 367.754L406.522 329.576L372.152 352.25C372.181 352.304 372.209 352.358 372.236 352.415C372.479 352.957 372.563 353.529 372.513 354.082L483.588 368.227ZM368.932 350.442C370.039 350.36 371.127 350.836 371.817 351.726L405.877 329.258L366.639 309.855C366.299 310.387 365.807 310.831 365.188 311.107C364.988 311.196 364.783 311.264 364.576 311.311L368.932 350.442ZM360.52 307.511C360.638 306.787 360.993 306.113 361.539 305.606L315.707 246.537L267.053 296.047C267.252 296.282 267.423 296.545 267.554 296.843C267.755 297.296 267.846 297.767 267.844 298.233L360.517 307.514L360.52 307.511ZM154.239 289.696C153.664 288.407 153.97 286.949 154.899 285.994L151.057 281.487L138.122 332.825L155.712 291.274C155.082 290.936 154.553 290.399 154.239 289.691L154.239 289.696ZM133.734 335.403C133.859 335.096 134.026 334.806 134.236 334.548L87.1749 288.83L66.5352 312.756C66.7976 313.027 67.0211 313.347 67.1838 313.71C67.478 314.367 67.541 315.071 67.4069 315.727L133.734 335.403ZM61.0734 313.707C61.3971 312.98 61.9774 312.368 62.7589 312.018C62.9004 311.953 63.0464 311.906 63.1925 311.863L52.8274 258.045C52.0697 258.119 51.3185 257.931 50.6877 257.528L19.9473 296.746C20.2931 297.051 20.5849 297.434 20.7833 297.884C21.0976 298.587 21.1479 299.339 20.9769 300.033L61.0713 313.709L61.0734 313.707ZM14.3895 299.461C14.3566 298.943 14.4461 298.429 14.643 297.96L-40.715 264.397L-63.9126 307.99C-63.4158 308.326 -63.0008 308.799 -62.74 309.389C-62.6419 309.611 -62.57 309.834 -62.5221 310.063L14.3939 299.465L14.3895 299.461ZM-67.8317 313.415C-68.2629 313.087 -68.6208 312.649 -68.8593 312.12C-69.1 311.58 -69.1858 311.015 -69.1359 310.466L-90.0644 306.312L-97.9025 357.759C-97.5676 357.815 -97.2411 357.92 -96.9403 358.072L-67.8317 313.415ZM-167.882 373.414C-167.725 373.308 -167.56 373.215 -167.381 373.134C-166.961 372.945 -166.523 372.852 -166.088 372.841L-162.318 341.839L-192.789 332.273C-193.013 332.699 -193.331 333.08 -193.728 333.378L-167.88 373.412L-167.882 373.414Z" fill="#2B6577"/>
<path d="M514.969 452.031H-53.9693C-59.9265 452.031 -60 453.815 -60 456.016C-60 458.216 -59.9265 460 -53.9693 460H514.969C520.927 460 521 458.216 521 456.016C521 453.815 520.927 452.031 514.969 452.031Z" fill="#DF8711"/>
<path d="M66.3939 331.646C71.5143 326.17 85.4219 317.159 100.089 324.927C96.4485 331.645 84.6128 342.394 66.3939 331.646Z" fill="#2B6577"/>
<path d="M66.7184 331.531C68.8175 331.532 78.7318 331.596 82.6358 329.198" stroke="#4F2B2B" stroke-linecap="round" stroke-linejoin="round"/>
<path d="M65.7578 325.842C62.759 318.971 52.6568 305.835 36.2383 308.261C37.4275 315.809 44.9962 329.892 65.7578 325.842Z" fill="#2B6577"/>
<path d="M65.49 325.622C63.5109 324.922 54.1439 321.673 51.2645 318.109" stroke="#4F2B2B" stroke-linecap="round" stroke-linejoin="round"/>
<path d="M69.4644 308.5C69.8059 313.736 68.5764 327.215 60.9263 339.237C51.3636 354.264 40.4348 356.996 40.7764 392.514" stroke="#4F2B2B" stroke-width="3.80899" stroke-linecap="round"/>
<path d="M82.1488 258.701C79.1434 254.876 76.3429 257.108 75.3183 258.701C53.1192 282.608 61.3158 291.829 63.7065 297.293C66.0971 302.758 83.5149 311.979 93.0776 297.293C102.64 282.608 85.9056 263.483 82.1488 258.701Z" fill="#B4185C"/>
<path d="M64.3871 258.022C61.3817 254.197 58.5812 256.428 57.5566 258.022C35.3575 281.929 43.5541 291.15 45.9448 296.614C48.3354 302.078 65.7532 311.3 75.3158 296.614C84.8785 281.928 68.1438 262.803 64.3871 258.022Z" fill="#B4185C"/>
<path d="M99.1218 269.845C99.3705 264.987 95.7933 264.828 93.9737 265.356C61.5302 268.785 61.6479 281.122 59.8585 286.811C58.0691 292.501 65.1367 310.898 81.9957 306.114C98.8546 301.331 98.811 275.918 99.1218 269.845Z" fill="#E43A83"/>
<path d="M39.9592 269.845C39.7105 264.987 43.2877 264.828 45.1074 265.356C77.5509 268.785 77.4331 281.122 79.2225 286.811C81.0119 292.501 73.9444 310.898 57.0854 306.114C40.2264 301.331 40.2701 275.918 39.9592 269.845Z" fill="#E43A83"/>
<path d="M73.5629 263.082C70.5574 259.256 67.7569 261.488 66.7324 263.082C44.5333 286.988 52.7299 296.209 55.1205 301.674C57.5112 307.138 74.9289 316.359 84.4916 301.674C94.0543 286.988 77.3196 267.863 73.5629 263.082Z" fill="#E95D9A"/>
<path d="M71.1606 352.486H28.0193C26.1654 352.486 24.7552 354.151 25.0601 355.98L28.1717 374.64C28.3808 375.894 28.3489 377.177 28.0775 378.419L12 452.012H86.4201L70.3824 378.601C70.0853 377.241 70.0754 375.834 70.3534 374.47L74.1002 356.085C74.4792 354.226 73.0582 352.486 71.1606 352.486Z" fill="#9F5656"/>
<path d="M34.415 362.347H64.9004" stroke="#4F2B2B" stroke-width="4" stroke-linecap="round"/>
<path d="M294.995 375.975V449.923C294.995 450.018 294.962 450.107 294.926 450.191H452.401L412.926 375.975H294.993H294.995Z" fill="#FBE4C6"/>
<path d="M273.151 398.274C271.074 398.274 269.918 398.919 269.893 399.145C269.939 399.328 270.915 399.9 272.866 399.9C274.92 399.9 276.105 399.246 276.124 399.029C276.086 398.856 275.085 398.274 273.151 398.274Z" fill="#FCE9CC"/>
<path d="M357.945 405.764L356.785 406.038L357.882 405.87C357.977 406.253 359.463 406.958 361.608 406.958C363.044 406.958 364.027 406.633 364.335 406.331C364.284 405.844 362.789 405.14 360.668 405.14C359.244 405.14 358.257 405.463 357.945 405.762V405.764Z" fill="#FCE9CC"/>
<path d="M359.755 399.9C361.475 399.9 362.378 399.44 362.448 399.258C362.365 398.978 361.009 398.274 358.865 398.274C357.159 398.274 356.258 398.725 356.174 398.911C356.252 399.199 357.593 399.9 359.755 399.9Z" fill="#FCE9CC"/>
<path d="M292.763 375.975H174.833L135.357 450.191H292.831C292.795 450.105 292.761 450.018 292.761 449.923V375.975H292.763Z" fill="#FBE4C6"/>
<path d="M220.314 406.958C222.469 406.958 223.979 406.243 224.082 405.855C223.724 405.458 222.752 405.14 221.335 405.14C219.203 405.14 217.682 405.853 217.564 406.241C217.558 406.258 217.553 406.277 217.615 406.34C217.914 406.637 218.884 406.958 220.314 406.958Z" fill="#FCE9CC"/>
<path d="M225.949 398.894C225.88 398.725 224.985 398.274 223.292 398.274C221.101 398.274 219.76 398.978 219.669 399.28L218.583 399.075L219.669 399.284C219.739 399.448 220.635 399.9 222.328 399.9C224.507 399.9 225.873 399.185 225.951 398.894H225.949Z" fill="#FCE9CC"/>
<path d="M275.66 405.99C275.665 405.952 275.614 405.886 275.532 405.817C275.127 405.479 274.054 405.14 272.577 405.14C270.443 405.14 269.22 405.825 269.193 406.106C269.188 406.142 269.235 406.205 269.311 406.27C269.711 406.612 270.783 406.956 272.276 406.956C274.34 406.956 275.639 406.285 275.66 405.99Z" fill="#FCE9CC"/>
<path d="M409.43 405.716L408.389 406.038L409.443 405.743C409.658 406.226 411.417 406.958 413.574 406.958C415.285 406.958 416.012 406.504 416.054 406.384C415.803 405.857 414.078 405.14 411.913 405.14C410.2 405.14 409.473 405.593 409.43 405.713V405.716Z" fill="#FCE9CC"/>
<path d="M406.329 398.784C406.504 399.164 408.058 399.9 410.296 399.9C411.892 399.9 412.628 399.507 412.702 399.372C412.476 398.944 410.787 398.274 408.725 398.274C407.187 398.274 406.447 398.636 406.329 398.784Z" fill="#FCE9CC"/>
<path d="M414.7 374.753C414.527 374.426 414.12 374.213 413.671 374.213H174.09C173.641 374.213 173.234 374.426 173.061 374.753L132.649 450.732C132.504 451.004 132.541 451.316 132.748 451.559C132.955 451.806 133.305 451.953 133.678 451.953H454.08C454.453 451.953 454.803 451.806 455.01 451.559C455.217 451.314 455.255 451.002 455.109 450.732L414.698 374.753H414.7ZM135.357 450.19L174.832 375.974H292.762V449.922C292.762 450.017 292.796 450.106 292.832 450.19H135.357ZM294.926 450.19C294.962 450.104 294.996 450.017 294.996 449.922V375.974H412.928L452.404 450.19H294.928H294.926Z" fill="#4F2B2B"/>
<path d="M232.983 391.615C236.173 394.579 244.598 399.231 252.777 394.132C250.394 390.389 243.098 384.645 232.983 391.615Z" stroke="#4F2B2B" stroke-width="2" stroke-linecap="round" stroke-linejoin="round"/>
<path d="M233.175 391.671C234.391 391.585 240.132 391.143 242.491 392.373" stroke="#4F2B2B" stroke-width="2" stroke-linecap="round" stroke-linejoin="round"/>
<path d="M232.853 395.002C231.396 399.105 226.08 407.128 216.469 406.393C216.85 401.972 220.66 393.504 232.853 395.002Z" stroke="#4F2B2B" stroke-width="2" stroke-linecap="round" stroke-linejoin="round"/>
<path d="M232.708 395.142C231.59 395.629 226.296 397.893 224.774 400.076" stroke="#4F2B2B" stroke-width="2" stroke-linecap="round" stroke-linejoin="round"/>
<path d="M235.706 404.901C235.69 401.853 234.427 394.095 229.504 387.443C223.351 379.128 216.908 377.992 215.655 357.401" stroke="#4F2B2B" stroke-width="2" stroke-linecap="round"/>
<path d="M230.867 435.611L231.55 434.88L231.615 434.941L231.668 435.012L230.867 435.611ZM234.824 435.332L235.652 435.893L235.652 435.893L234.824 435.332ZM226.601 431.216L226.377 430.242L226.963 430.107L227.357 430.562L226.601 431.216ZM223.359 431.872L223.013 430.934L223.097 430.903L223.184 430.887L223.359 431.872ZM220.193 429.482L221.193 429.462L221.193 429.462L220.193 429.482ZM220.173 428.732L219.173 428.762L219.173 428.762L220.173 428.732ZM228.633 407.771L228.293 406.83L228.293 406.83L228.633 407.771ZM230.65 407.226L231.203 408.06L231.029 408.175L230.823 408.211L230.65 407.226ZM241.872 406.558L241.761 407.552L241.53 407.526L241.334 407.402L241.872 406.558ZM243.063 406.75L243.268 405.771L243.268 405.771L243.063 406.75ZM249.982 411.599L249.172 412.185L249.165 412.175L249.158 412.165L249.982 411.599ZM250.76 412.85L249.89 413.342L249.883 413.329L249.876 413.316L250.76 412.85ZM254.381 426.317L255.375 426.207L255.375 426.21L254.381 426.317ZM254.381 426.318L253.387 426.426L253.387 426.425L254.381 426.318ZM254.381 426.319L253.387 426.429L253.387 426.427L254.381 426.319ZM254.466 427.062L255.459 426.941L255.459 426.941L254.466 427.062ZM251.667 429.873L251.702 428.874L251.791 428.877L251.877 428.896L251.667 429.873ZM248.085 429.654L247.223 429.146L247.545 428.601L248.174 428.658L248.085 429.654ZM245.517 433.602L246.339 434.172L246.339 434.172L245.517 433.602ZM245.091 434.219L245.919 434.78L245.919 434.78L245.091 434.219ZM241.134 434.498L241.818 433.768L241.882 433.829L241.936 433.9L241.134 434.498ZM239.333 432.752L238.646 432.026L239.355 431.356L240.043 432.048L239.333 432.752ZM236.513 432.855L235.677 432.306L236.283 431.385L237.141 432.077L236.513 432.855ZM235.25 434.714L236.072 435.284L236.069 435.287L235.25 434.714ZM235.25 434.714L234.43 434.142L234.431 434.141L235.25 434.714ZM235.25 434.714L234.429 434.144L234.43 434.142L235.25 434.714ZM235.249 434.715L236.071 435.286L236.07 435.286L235.249 434.715ZM235.249 434.715L234.428 434.145L234.428 434.144L235.249 434.715ZM231.668 435.012C231.913 435.339 232.301 435.635 232.655 435.691C232.877 435.726 233.356 435.716 233.996 434.771L235.652 435.893C234.708 437.286 233.537 437.856 232.342 437.666C231.279 437.498 230.481 436.764 230.066 436.209L231.668 435.012ZM227.357 430.562C228.511 431.896 229.895 433.332 231.55 434.88L230.184 436.341C228.485 434.752 227.051 433.265 225.844 431.871L227.357 430.562ZM223.184 430.887C224.321 430.686 225.384 430.47 226.377 430.242L226.824 432.191C225.796 432.427 224.701 432.649 223.534 432.857L223.184 430.887ZM221.193 429.462C221.215 430.604 221.61 430.874 221.816 430.965C222.144 431.111 222.63 431.075 223.013 430.934L223.704 432.81C223.055 433.05 221.985 433.23 221.002 432.792C219.896 432.3 219.226 431.184 219.193 429.501L221.193 429.462ZM221.172 428.702C221.181 428.987 221.189 429.244 221.193 429.462L219.193 429.501C219.189 429.296 219.182 429.051 219.173 428.762L221.172 428.702ZM228.973 408.711C224.945 410.167 222.927 413.872 221.951 418.012C220.977 422.139 221.104 426.444 221.172 428.702L219.173 428.762C219.105 426.516 218.963 421.967 220.004 417.553C221.042 413.151 223.324 408.627 228.293 406.83L228.973 408.711ZM230.823 408.211C230.236 408.314 229.619 408.477 228.973 408.711L228.293 406.83C229.042 406.56 229.77 406.365 230.478 406.241L230.823 408.211ZM230.097 406.393C233.163 404.36 238.066 402.947 242.409 405.715L241.334 407.402C237.929 405.231 233.927 406.253 231.203 408.06L230.097 406.393ZM242.859 407.729C242.48 407.65 242.115 407.592 241.761 407.552L241.983 405.564C242.401 405.611 242.83 405.68 243.268 405.771L242.859 407.729ZM249.158 412.165C247.649 409.967 245.626 408.308 242.859 407.729L243.268 405.771C246.658 406.48 249.083 408.523 250.806 411.033L249.158 412.165ZM249.876 413.316C249.674 412.933 249.44 412.556 249.172 412.185L250.792 411.013C251.115 411.459 251.399 411.917 251.645 412.383L249.876 413.316ZM253.387 426.427C253.079 423.648 252.422 417.825 249.89 413.342L251.631 412.358C254.394 417.25 255.072 423.478 255.375 426.207L253.387 426.427ZM253.387 426.425L253.387 426.424L255.375 426.21L255.375 426.21L253.387 426.425ZM253.387 426.427L253.387 426.426L255.375 426.21L255.375 426.211L253.387 426.427ZM253.473 427.184C253.447 426.967 253.419 426.712 253.387 426.429L255.375 426.209C255.407 426.495 255.434 426.738 255.459 426.941L253.473 427.184ZM251.877 428.896C252.276 428.981 252.763 428.949 253.067 428.759C253.258 428.639 253.612 428.317 253.473 427.184L255.459 426.941C255.663 428.612 255.155 429.811 254.129 430.453C253.217 431.025 252.133 430.996 251.457 430.851L251.877 428.896ZM248.174 428.658C249.269 428.757 250.443 428.83 251.702 428.874L251.632 430.873C250.339 430.827 249.129 430.752 247.995 430.65L248.174 428.658ZM244.696 433.032C245.336 432.109 246.268 430.765 247.223 429.146L248.946 430.162C247.95 431.851 246.981 433.247 246.339 434.172L244.696 433.032ZM244.264 433.658C244.386 433.478 244.533 433.266 244.696 433.032L246.339 434.172C246.174 434.409 246.034 434.611 245.919 434.78L244.264 433.658ZM241.936 433.9C242.18 434.227 242.568 434.522 242.922 434.579C243.144 434.614 243.623 434.603 244.264 433.658L245.919 434.78C244.975 436.174 243.804 436.744 242.609 436.554C241.546 436.385 240.748 435.651 240.333 435.097L241.936 433.9ZM240.043 432.048C240.597 432.605 241.188 433.179 241.818 433.768L240.451 435.229C239.804 434.623 239.196 434.033 238.624 433.457L240.043 432.048ZM240.02 433.479C239.309 434.151 238.515 434.44 237.722 434.391C236.967 434.344 236.336 433.998 235.885 433.634L237.141 432.077C237.386 432.275 237.632 432.381 237.846 432.394C238.023 432.405 238.29 432.362 238.646 432.026L240.02 433.479ZM234.428 434.144C234.774 433.646 235.204 433.027 235.677 432.306L237.349 433.405C236.86 434.149 236.417 434.786 236.072 435.284L234.428 434.144ZM234.431 434.141L234.431 434.141L236.069 435.287L236.069 435.287L234.431 434.141ZM234.43 434.142L234.43 434.142L236.07 435.286L236.07 435.286L234.43 434.142ZM234.428 434.144L234.429 434.144L236.071 435.285L236.071 435.286L234.428 434.144ZM234.428 434.144L234.429 434.144L236.07 435.286L236.07 435.286L234.428 434.144ZM233.996 434.771C234.119 434.59 234.265 434.379 234.428 434.145L236.071 435.286C235.906 435.522 235.767 435.724 235.652 435.893L233.996 434.771Z" fill="#4F2B2B"/>
<path d="M338.551 234.346C336.112 234.02 334.599 233.84 334.41 233.84L257.876 239.264C251.547 239.437 245.183 239.821 238.82 239.76L297.161 296.156L338.551 234.349V234.346Z" fill="#F29EC3"/>
<path d="M315.782 214.282H273.613V242.395H315.782V214.282Z" fill="#FFBE97"/>
<path d="M273.456 231.147V222.263L312.94 219.302C303.464 228.778 283.327 232.299 273.456 231.147Z" fill="#4F2B2B"/>
<path d="M242.829 210.565C242.921 210.538 242.992 210.519 243.065 210.498C242.992 210.519 242.923 210.538 242.829 210.565Z" fill="#FFB8BD"/>
<path d="M243.305 210.434C243.317 210.43 243.334 210.426 243.345 210.424C243.33 210.428 243.321 210.43 243.305 210.434Z" fill="#FFB8BD"/>
<path d="M242.772 210.58C242.79 210.575 242.813 210.569 242.828 210.565C242.811 210.569 242.79 210.575 242.772 210.58Z" fill="#FCE9CC"/>
<path d="M243.063 210.499C243.151 210.473 243.243 210.448 243.302 210.432C243.241 210.448 243.164 210.471 243.063 210.499Z" fill="#FCE9CC"/>
<path d="M270.367 137.087C270.367 137.087 286.576 126.075 314.056 134.907C350.433 146.596 341.083 190.384 341.083 190.384L246.856 197.761C246.856 197.761 227.783 168.241 246.921 147.998C259.796 134.382 270.367 137.087 270.367 137.087Z" fill="#4F2B2B"/>
<path d="M342.587 190.961C341.797 189.598 340.689 188.447 339.365 187.605C337.777 186.595 335.881 186.034 333.859 186.089C333.212 186.108 332.592 186.209 331.986 186.351C331.896 186.372 331.801 186.384 331.71 186.408C329.601 170.016 317.277 154.058 295.01 150.859C271.252 147.445 249.349 163.263 245.868 182.96C245.815 183.259 245.779 183.559 245.733 183.858C245.676 183.858 245.621 183.848 245.564 183.845C239.864 183.723 235.144 188.244 235.022 193.947C234.9 199.647 239.421 204.367 245.121 204.489C246.334 204.514 247.5 204.32 248.588 203.957C248.59 203.962 248.592 203.968 248.597 203.972C249.546 206.058 250.693 208.068 252.026 209.974C252.068 210.033 252.108 210.092 252.15 210.151C252.58 210.758 253.027 211.357 253.495 211.944C253.504 211.954 253.512 211.965 253.521 211.975C254.491 213.188 255.543 214.352 256.669 215.459C256.741 215.531 256.817 215.598 256.888 215.67C257.367 216.132 257.856 216.583 258.363 217.026C258.47 217.121 258.578 217.216 258.687 217.308C259.227 217.77 259.78 218.222 260.347 218.658C260.393 218.696 260.44 218.734 260.486 218.77C261.125 219.257 261.781 219.727 262.454 220.181C262.506 220.217 262.563 220.25 262.616 220.286C263.204 220.676 263.803 221.054 264.415 221.419C264.59 221.524 264.769 221.625 264.948 221.729C265.467 222.028 265.994 222.317 266.532 222.595C266.722 222.694 266.912 222.796 267.104 222.893C267.741 223.213 268.388 223.519 269.048 223.81C269.128 223.846 269.204 223.884 269.284 223.92C270.029 224.242 270.79 224.546 271.562 224.833C271.754 224.904 271.952 224.968 272.146 225.037C272.728 225.244 273.314 225.44 273.913 225.626C274.175 225.706 274.434 225.784 274.7 225.86C275.273 226.026 275.853 226.182 276.442 226.328C276.688 226.389 276.935 226.454 277.186 226.514C278.017 226.705 278.854 226.885 279.71 227.034C300.714 230.748 322.488 220.558 329.529 204.426C329.66 204.497 329.802 204.55 329.936 204.615C331.29 205.273 332.792 205.666 334.403 205.621C339.795 205.472 344.045 200.98 343.897 195.585C343.851 193.9 343.378 192.327 342.587 190.963V190.961Z" fill="#FFBE97"/>
<path d="M247.418 195.71L241.763 195.866C240.852 195.891 240.092 195.172 240.067 194.261C240.042 193.35 240.761 192.591 241.672 192.566L247.328 192.407C248.239 192.382 248.998 193.101 249.023 194.012C249.049 194.923 248.329 195.682 247.418 195.708V195.71Z" fill="#4F2B2B"/>
<path d="M283.496 203.405C283.287 203.405 283.078 203.34 282.901 203.205C282.469 202.876 282.38 202.258 282.711 201.824C283.823 200.354 284.249 198.002 283.823 195.687C283.333 193.04 281.868 190.834 279.696 189.476C279.234 189.187 279.092 188.58 279.381 188.118C279.67 187.656 280.284 187.519 280.739 187.806C283.388 189.459 285.172 192.133 285.761 195.33C286.292 198.217 285.74 201.09 284.282 203.015C284.09 203.27 283.793 203.405 283.496 203.405Z" fill="#4F2B2B"/>
<path d="M260.114 177.919C258.796 177.919 257.518 178.037 256.335 178.286C255.802 178.398 255.46 178.919 255.572 179.452C255.682 179.986 256.217 180.329 256.738 180.216C261.844 179.146 268.82 180.724 272.953 183.891C273.377 184.222 274.003 184.144 274.334 183.708C274.665 183.275 274.585 182.655 274.151 182.324C270.57 179.579 265.045 177.919 260.114 177.919Z" fill="#4F2B2B"/>
<path d="M278.746 212.691C277.474 212.347 276.271 211.9 275.194 211.351C274.708 211.104 274.514 210.512 274.761 210.026C275.006 209.539 275.613 209.347 276.086 209.593C280.736 211.957 287.882 212.255 292.698 210.276C293.194 210.067 293.778 210.306 293.984 210.813C294.191 211.317 293.951 211.895 293.446 212.101C289.272 213.817 283.506 213.978 278.746 212.691Z" fill="#4F2B2B"/>
<path d="M266.689 196.62C265.525 196.62 264.58 195.675 264.58 194.511V192.168C264.58 191.004 265.525 190.06 266.689 190.06C267.853 190.06 268.798 191.004 268.798 192.168V194.511C268.798 195.675 267.853 196.62 266.689 196.62Z" fill="#4F2B2B"/>
<path d="M305.947 177.148C303.773 175.847 299.562 173.035 297.982 171.057C306.034 173.871 325.899 176.483 334.41 177.032C330.633 170.941 327.08 161.949 323.166 155.948C316.768 146.141 297.683 144.092 285.977 143.839C276.907 143.642 267.801 145.241 259.338 148.51C254.989 150.19 246.693 154.212 251.963 158.782C256.586 162.791 263.18 165.642 268.72 168.111C280.527 173.373 293.041 176.38 305.947 177.148Z" fill="#4F2B2B"/>
<path d="M313.919 178.452C308.608 178.452 301.755 180.413 297.524 183.21C297.071 183.509 296.945 184.121 297.246 184.574C297.546 185.027 298.155 185.154 298.611 184.852C302.816 182.073 309.815 180.162 314.855 180.445C315.397 180.462 315.863 180.055 315.89 179.513C315.92 178.969 315.502 178.505 314.958 178.475C314.619 178.458 314.273 178.45 313.919 178.45V178.452Z" fill="#4F2B2B"/>
<path d="M303.467 196.62C302.303 196.62 301.358 195.675 301.358 194.511V192.168C301.358 191.004 302.303 190.06 303.467 190.06C304.631 190.06 305.576 191.004 305.576 192.168V194.511C305.576 195.675 304.631 196.62 303.467 196.62Z" fill="#4F2B2B"/>
<path d="M257.047 242.664L275.387 265.001L294.913 243.847L273.759 231.424L257.047 242.664Z" fill="#FBE4C6"/>
<path d="M334.283 239.701L316.714 263.596L294.913 243.849L316.067 227.052L334.283 239.701Z" fill="#FBE4C6"/>
<path d="M418.568 254.515C408.846 244.793 354.118 236.434 338.55 234.346L297.16 296.154L238.819 239.757C227.324 239.643 215.826 239.203 204.525 241.432C188.975 244.5 175.126 253.458 164.154 264.688C151.876 277.257 141.501 292.421 133.373 307.963C126.583 320.945 116.669 338.398 117.008 353.314C117.519 375.834 139.889 381.138 159.645 384.236L212.589 374.396L347.059 373.46L417.809 361.747C417.809 361.747 429.814 265.757 418.57 254.513L418.568 254.515Z" fill="#F29EC3"/>
<path d="M337.01 197.627L331.354 197.785C330.443 197.81 329.684 197.091 329.659 196.18C329.634 195.269 330.353 194.51 331.264 194.485L336.92 194.329C337.831 194.303 338.59 195.023 338.615 195.934C338.64 196.845 337.921 197.604 337.01 197.629V197.627Z" fill="#FF9D6C"/>
<path d="M332.434 161.866C330.572 159.778 327.429 159.508 325.257 161.231C323.041 162.992 322.619 166.155 324.3 168.433C324.378 168.541 324.433 168.659 324.462 168.781L350.19 196.048C350.563 196.445 350.546 197.069 350.15 197.442C349.96 197.621 349.718 197.71 349.475 197.71C349.214 197.71 348.952 197.607 348.758 197.4L320.131 167.06C318.269 164.97 315.122 164.702 312.952 166.425C310.738 168.186 310.316 171.35 311.995 173.627C312.159 173.849 312.214 174.116 312.172 174.369C313.336 174.753 314.422 175.415 315.293 176.39L338.452 202.354C338.815 202.761 338.779 203.383 338.374 203.745C337.965 204.108 337.343 204.068 336.982 203.667L313.823 177.701C311.978 175.633 308.834 175.365 306.664 177.086C304.449 178.846 304.028 182.01 305.706 184.287L325.934 211.721C326.223 212.111 326.183 212.655 325.841 213.001C325.496 213.345 324.954 213.389 324.563 213.107L311.468 203.638C309.213 202.01 306.132 202.356 304.302 204.444C302.383 206.626 302.572 209.994 304.721 211.949L321.156 226.89C321.31 227.031 321.415 227.215 321.457 227.419C321.508 227.658 326.385 251.213 327.455 254.963C328.14 257.361 335.131 261.355 339.646 263.453L371.869 249.718L360.863 191.997L332.432 161.866H332.434Z" fill="#FFBE97"/>
<path d="M362.746 191.345C362.713 191.159 362.624 190.99 362.493 190.853L333.885 160.534C331.348 157.685 327.016 157.312 324.032 159.687C322.193 161.146 321.27 163.31 321.318 165.484C318.752 162.882 314.618 162.588 311.729 164.883C308.92 167.112 308.237 170.969 309.943 174.016C308.359 174.01 306.767 174.493 305.441 175.547C302.389 177.97 301.809 182.325 304.123 185.463L320.599 207.808L312.626 202.043C309.542 199.816 305.331 200.29 302.822 203.143C300.198 206.13 300.458 210.735 303.399 213.409L319.595 228.135C320.205 231.077 324.528 251.881 325.565 255.506C326.751 259.652 337.955 264.848 339.226 265.428C339.355 265.487 339.496 265.517 339.636 265.517C339.766 265.517 339.899 265.489 340.024 265.439L373.379 251.221C373.805 251.039 374.048 250.586 373.961 250.128L362.753 191.347L362.746 191.345ZM339.646 263.452C335.131 261.354 328.14 257.36 327.455 254.962C326.384 251.212 321.508 227.659 321.457 227.418C321.415 227.214 321.31 227.03 321.156 226.889L304.722 211.948C302.573 209.993 302.383 206.627 304.302 204.443C306.132 202.355 309.213 202.009 311.468 203.637L324.564 213.106C324.954 213.388 325.496 213.346 325.842 213C326.183 212.654 326.223 212.112 325.934 211.72L305.706 184.286C304.028 182.007 304.45 178.843 306.664 177.085C308.834 175.362 311.978 175.632 313.823 177.7L336.983 203.666C337.343 204.069 337.965 204.107 338.374 203.745C338.781 203.382 338.815 202.76 338.452 202.353L315.293 176.389C314.424 175.412 313.336 174.752 312.172 174.368C312.212 174.115 312.157 173.848 311.995 173.626C310.316 171.346 310.738 168.183 312.952 166.424C315.122 164.704 318.269 164.971 320.131 167.059L348.758 197.399C348.95 197.604 349.212 197.709 349.475 197.709C349.718 197.709 349.96 197.62 350.15 197.441C350.547 197.068 350.564 196.444 350.19 196.047L324.462 168.78C324.431 168.658 324.378 168.54 324.3 168.432C322.619 166.154 323.041 162.991 325.257 161.23C327.43 159.51 330.572 159.779 332.434 161.865L360.865 191.996L371.871 249.717L339.648 263.452H339.646Z" fill="#FFBE97"/>
<path d="M309.978 174.124L326.869 192.284C328.749 194.305 330.191 196.693 331.103 199.298L333.175 205.219" stroke="#4F2B2B" stroke-width="1.76251" stroke-linecap="round"/>
<path d="M321.52 165.241L338.411 183.4C340.291 185.421 341.733 187.81 342.645 190.415L344.717 196.336" stroke="#4F2B2B" stroke-width="1.76251" stroke-linecap="round"/>
<path d="M307.018 189.918L320.344 205.263C322.293 207.508 323.718 210.159 324.513 213.024L325.772 217.557" stroke="#4F2B2B" stroke-width="1.76251" stroke-linecap="round"/>
<path d="M417.807 360.345C416.101 386.375 363.066 402.037 344.601 370.324C341.648 365.255 340.041 359.515 339.472 353.675L330.661 263.36L373.298 245.087L417.809 360.345H417.807Z" fill="#F29EC3"/>
<path d="M331.201 261.746C331.53 291.853 335.15 355.028 346.995 366.873" stroke="#4F2B2B" stroke-width="2"/>
<path d="M372.993 245.954C386.059 273.08 410.853 331.299 405.495 347.17" stroke="#4F2B2B" stroke-width="2"/>
<path d="M346.588 375.386H209.309C208.765 375.386 208.324 374.945 208.324 374.399C208.324 373.852 208.765 373.414 209.309 373.414H346.588C347.132 373.414 347.575 373.855 347.575 374.399C347.575 374.943 347.134 375.386 346.588 375.386Z" fill="#775340"/>
<path d="M212.119 354.77C211.634 354.77 211.212 354.414 211.144 353.918L202.007 287.854C201.931 287.315 202.308 286.817 202.848 286.743C203.39 286.654 203.886 287.045 203.96 287.584L213.097 353.648C213.173 354.188 212.796 354.686 212.256 354.759C212.211 354.766 212.165 354.77 212.121 354.77H212.119Z" fill="#4F2B2B"/>
<path d="M151.429 322.623C142.981 334.301 141.596 355.43 148.207 371.769C151.374 379.603 158.774 385.181 167.515 386.32L178.606 387.777L187.651 387.522C192.366 387.391 196.484 384.454 198.146 380.036L198.69 378.593C197.672 378.656 196.641 378.699 195.586 378.699C185.782 378.699 174.955 376.206 174.359 376.067C173.827 375.942 173.498 375.413 173.62 374.882C173.745 374.352 174.268 374.021 174.806 374.144C174.993 374.19 193.798 378.524 203.87 375.852C207.594 374.865 210.002 373.397 210.837 371.607C211.276 370.666 211.179 369.869 211.065 369.411C208.077 370.002 204.981 370.255 201.936 370.255C190.211 370.255 179.3 366.763 178.715 366.573C178.197 366.406 177.914 365.849 178.083 365.331C178.249 364.812 178.808 364.527 179.325 364.698C179.504 364.757 197.315 370.455 211.485 367.326C213.79 366.809 215.812 365.086 216.93 362.709C215.447 362.844 213.973 362.912 212.516 362.912C194.721 362.912 179.314 353.629 179.114 353.506C178.65 353.224 178.505 352.617 178.789 352.153C179.072 351.689 179.681 351.543 180.145 351.826C180.396 351.978 205.261 366.923 227.733 358.209C227.912 358.055 228.128 357.969 228.355 357.965C229.969 357.279 231.192 355.881 231.628 354.194C232.014 352.709 231.789 351.176 230.996 349.873C230.207 348.578 228.956 347.682 227.478 347.344C226.01 347.013 224.498 346.68 222.948 346.339C212.151 343.968 199.916 341.282 188.374 335.417C187.889 335.17 187.695 334.578 187.942 334.092C188.186 333.607 188.783 333.418 189.266 333.66C193.996 336.064 198.861 337.905 203.705 339.432L172.241 312.911C172.14 312.937 172.037 312.958 171.931 312.945C163.504 312.38 156.41 315.733 151.431 322.616L151.429 322.623ZM208.203 349.244C208.414 348.743 208.99 348.506 209.494 348.717C209.996 348.928 210.234 349.504 210.021 350.008C209.19 351.992 208.91 354.259 209.237 356.391C209.319 356.931 208.95 357.433 208.412 357.515C208.359 357.524 208.311 357.526 208.26 357.526C207.784 357.526 207.364 357.178 207.288 356.691C206.9 354.169 207.216 351.594 208.203 349.244Z" fill="#FFBE97"/>
<path d="M204.748 317.461C208.451 319.083 218.196 324.205 219.735 328.832C220.258 330.407 220.864 332.434 221.534 334.863L196.403 313.682C199.124 314.671 201.914 315.92 204.748 317.463V317.461Z" fill="#FFBE97"/>
<path d="M149.831 321.467C140.875 333.848 139.424 355.316 146.377 372.509C149.813 381.003 157.816 387.045 167.261 388.277L178.505 389.743L187.704 389.496C193.225 389.342 198.048 385.9 199.99 380.734L200.711 378.821C200.762 378.686 200.777 378.547 200.768 378.41C202.036 378.26 203.255 378.057 204.37 377.76C208.776 376.592 211.561 374.782 212.647 372.383C213.282 370.98 213.168 369.715 212.981 368.935C215.509 368.015 217.626 365.999 218.807 363.355L219.216 362.442C222.222 362.013 225.248 361.267 228.242 360.124L232.806 363.968C232.861 364.015 232.926 364.04 232.987 364.072C233.019 364.089 233.04 364.114 233.072 364.126L250.984 371.381C251.104 371.429 251.229 371.453 251.353 371.453C251.629 371.453 251.899 371.337 252.091 371.121C252.367 370.809 252.418 370.356 252.216 369.991L242.747 352.844C242.747 352.844 242.747 352.844 242.747 352.842L242.734 352.821C242.707 352.77 242.66 352.737 242.627 352.692C242.587 352.642 242.557 352.585 242.506 352.543L242.485 352.524C242.485 352.524 242.479 352.519 242.477 352.517L224.079 337.011C224.094 336.891 224.09 336.769 224.058 336.646C223.124 333.135 222.297 330.297 221.604 328.209C219.47 321.806 206.175 315.94 205.61 315.693C201.334 313.363 197.063 311.606 192.989 310.511C192.86 310.478 192.734 310.473 192.611 310.488L171.072 292.333C169.539 291.038 167.594 290.421 165.603 290.596C163.609 290.764 161.799 291.703 160.509 293.234C157.845 296.393 158.25 301.131 161.409 303.793L169.924 310.969C161.708 311.043 154.798 314.598 149.829 321.469L149.831 321.467ZM178.126 300.853L171.004 309.301L162.681 302.285C160.352 300.321 160.055 296.829 162.016 294.501C162.967 293.373 164.302 292.681 165.77 292.557C167.238 292.437 168.672 292.886 169.8 293.837L178.124 300.853H178.126ZM221.534 334.862L196.403 313.681C199.123 314.67 201.913 315.918 204.748 317.462C208.451 319.084 218.196 324.206 219.735 328.833C220.258 330.408 220.863 332.435 221.534 334.864V334.862ZM245.244 366.929L247.199 364.974L249.151 368.511L245.244 366.929ZM235.079 362.813L241.703 355.023L246.205 363.18L243.297 366.086C243.285 366.098 243.28 366.115 243.268 366.13L235.077 362.813H235.079ZM230.195 359.188C231.823 358.161 233.05 356.571 233.538 354.689C234.056 352.686 233.751 350.611 232.677 348.85C231.608 347.095 229.917 345.881 227.911 345.427C226.439 345.094 224.923 344.759 223.367 344.419C218.561 343.365 213.461 342.228 208.282 340.794C208.232 340.716 208.183 340.638 208.107 340.575L172.512 310.573L179.634 302.125L240.484 353.414L233.329 361.83L230.197 359.19L230.195 359.188ZM151.428 322.62C156.405 315.737 163.501 312.382 171.928 312.949C172.033 312.962 172.137 312.941 172.238 312.915L203.702 339.436C198.858 337.912 193.993 336.068 189.263 333.664C188.78 333.42 188.183 333.609 187.938 334.097C187.689 334.582 187.883 335.174 188.37 335.421C199.912 341.286 212.15 343.972 222.945 346.343C224.495 346.684 226.009 347.017 227.475 347.349C228.953 347.686 230.203 348.582 230.992 349.877C231.785 351.18 232.011 352.713 231.625 354.198C231.188 355.885 229.965 357.283 228.352 357.969C228.124 357.973 227.909 358.059 227.73 358.213C205.258 366.927 180.393 351.984 180.142 351.83C179.678 351.547 179.068 351.693 178.786 352.157C178.503 352.621 178.647 353.228 179.111 353.511C179.311 353.633 194.718 362.916 212.512 362.916C213.97 362.916 215.444 362.846 216.926 362.714C215.809 365.09 213.786 366.813 211.481 367.33C197.312 370.459 179.501 364.761 179.321 364.702C178.805 364.533 178.248 364.818 178.079 365.335C177.913 365.854 178.195 366.408 178.712 366.577C179.296 366.765 190.207 370.259 201.932 370.259C204.978 370.259 208.073 370.006 211.062 369.415C211.175 369.873 211.272 370.67 210.834 371.611C209.999 373.401 207.588 374.869 203.866 375.856C193.794 378.528 174.992 374.194 174.802 374.148C174.264 374.025 173.744 374.356 173.617 374.886C173.495 375.415 173.824 375.944 174.355 376.071C174.952 376.21 185.777 378.703 195.583 378.703C196.637 378.703 197.67 378.661 198.687 378.597L198.143 380.04C196.481 384.458 192.363 387.395 187.647 387.526L178.602 387.781L167.512 386.324C158.771 385.183 151.371 379.607 148.203 371.773C141.592 355.434 142.98 334.303 151.426 322.627L151.428 322.62Z" fill="#FFBE97"/>
<path d="M209.494 348.715C209.996 348.926 210.234 349.502 210.021 350.006C209.19 351.99 208.91 354.257 209.237 356.389C209.319 356.929 208.95 357.431 208.412 357.513C208.359 357.522 208.311 357.524 208.26 357.524C207.784 357.524 207.364 357.176 207.288 356.689C206.9 354.167 207.216 351.592 208.203 349.243C208.414 348.741 208.99 348.504 209.494 348.715Z" fill="#4F2B2B"/>
<path d="M233.538 354.695C234.057 352.691 233.751 350.616 232.677 348.855C231.608 347.101 229.917 345.886 227.912 345.433C226.44 345.099 224.923 344.764 223.367 344.425C218.561 343.37 213.462 342.233 208.282 340.799C208.232 340.721 208.183 340.643 208.107 340.58L171.29 312.091L180.668 300.246L241.868 352.069L231.997 363.914L227.912 360.459C229.54 359.432 233.053 356.578 233.54 354.697L233.538 354.695Z" fill="#DF8711"/>
<path d="M159.937 302.713C157.608 300.75 158.47 295.664 160.431 293.335C161.407 291.189 164.614 289.82 168.328 290.869C172.909 292.163 176.263 296.519 180.667 300.245L176.175 306.553L171.289 312.09L159.938 302.713H159.937Z" fill="#FBE4C6"/>
<path d="M246.207 363.182L243.299 366.088C243.286 366.101 241.881 367.849 241.868 367.864L231.997 363.916L241.868 351.577L247.791 361.941L246.207 363.182Z" fill="#FBE4C6"/>
<path d="M252.725 371.315C252.609 371.938 250.835 371.787 250.75 371.808L242.854 368.354L248.283 362.925L252.231 369.341C252.231 369.341 252.84 370.692 252.725 371.315Z" fill="#4F2B2B"/>
<path d="M212.748 369.078L202.617 369.856C200.824 369.994 199.021 369.889 197.256 369.545L179.68 366.117" stroke="#4F2B2B" stroke-width="1.76251" stroke-linecap="round"/>
<path d="M218.178 361.675L207.727 361.675C205.496 361.674 203.281 361.301 201.173 360.57L180.174 353.285" stroke="#4F2B2B" stroke-width="1.76251" stroke-linecap="round"/>
<path d="M199.916 378.455L189.854 378.455C188.341 378.456 186.832 378.284 185.357 377.943L174.744 375.495" stroke="#4F2B2B" stroke-width="1.76251" stroke-linecap="round"/>
<path d="M189.057 334.528L196.62 338.087C197.171 338.346 197.744 338.555 198.333 338.709L206.825 340.944" stroke="#4F2B2B" stroke-width="1.76251" stroke-linecap="round"/>
</g>
<defs>
<clipPath id="clip0_761_9832">
<rect width="460" height="460" fill="white"/>
</clipPath>
</defs>
</svg>
