<svg width="460" height="460" viewBox="0 0 460 460" fill="none" xmlns="http://www.w3.org/2000/svg">
<g clip-path="url(#clip0_761_6789)">
<rect width="460" height="460" fill="white"/>
<path d="M-247.851 157.421C-246.578 158.268 -244.957 158.175 -243.797 157.311L-189.248 218.12C-189.375 218.257 -189.495 218.404 -189.602 218.563C-190.679 220.188 -190.237 222.376 -188.615 223.454C-186.992 224.533 -184.802 224.089 -183.723 222.467C-183.551 222.207 -183.421 221.933 -183.324 221.651L-139.193 232.23C-139.379 233.537 -138.828 234.893 -137.655 235.67C-136.033 236.749 -133.842 236.305 -132.763 234.682C-132.288 233.964 -132.109 233.135 -132.196 232.341L-83.3742 222.285C-83.1427 223.042 -82.6599 223.725 -81.9505 224.199C-81.1797 224.709 -80.2849 224.874 -79.4403 224.74L-50.1015 338.828C-50.7926 339.073 -51.4146 339.536 -51.8533 340.193C-52.9322 341.816 -52.4881 344.006 -50.8657 345.085C-49.2434 346.164 -47.053 345.72 -45.9741 344.098C-45.6614 343.624 -45.4808 343.104 -45.416 342.577L96.9317 346.868C96.1057 348.449 96.5912 350.431 98.1089 351.44C99.7313 352.519 101.922 352.075 103.001 350.453C103.099 350.304 103.18 350.152 103.252 349.994L152.532 367.693C152.167 369.109 152.708 370.659 153.994 371.513C154.64 371.943 155.378 372.126 156.099 372.094L165.057 437.715L164.211 437.428L165.146 438.348L165.2 438.743L165.411 438.608L245.385 517.396C245.313 517.486 245.243 517.579 245.176 517.677C244.098 519.299 244.542 521.49 246.164 522.568C247.786 523.647 249.977 523.203 251.056 521.581C252.135 519.959 251.69 517.768 250.068 516.689C249.465 516.288 248.78 516.1 248.106 516.102L243.304 465.873C243.364 465.799 243.422 465.723 243.476 465.641C243.746 465.237 243.918 464.795 244.004 464.345L329.246 472.454C329.245 473.6 329.796 474.722 330.821 475.403C332.444 476.482 334.634 476.038 335.713 474.416C336.792 472.793 336.348 470.603 334.726 469.524C334.085 469.098 333.351 468.912 332.637 468.943L324.85 410.078C325.7 409.884 326.484 409.379 327.007 408.592C327.707 407.537 327.762 406.246 327.275 405.175L363.946 384.122C364.191 384.472 364.501 384.784 364.878 385.033C366.5 386.111 368.691 385.667 369.77 384.045C370.849 382.423 370.404 380.232 368.782 379.153C367.796 378.5 366.603 378.409 365.575 378.798L344.925 336.711C345.352 336.452 345.73 336.099 346.026 335.654C346.994 334.196 346.734 332.286 345.498 331.128L376.538 294.537C378.159 295.585 380.324 295.139 381.394 293.527C382.473 291.904 382.029 289.714 380.407 288.635C380.124 288.447 379.823 288.308 379.513 288.211L386.129 252.851C387.379 252.966 388.651 252.409 389.394 251.289C389.588 250.998 389.729 250.688 389.825 250.371L443.367 261.51C443.224 262.783 443.777 264.09 444.919 264.845C446.541 265.924 448.731 265.48 449.81 263.858C450.889 262.235 450.445 260.045 448.823 258.966C448.704 258.886 448.582 258.821 448.458 258.757L477.938 183.675C479.38 184.093 480.986 183.553 481.858 182.238C482.937 180.616 482.493 178.425 480.871 177.346C479.248 176.267 477.058 176.711 475.979 178.334C475.671 178.796 475.492 179.307 475.424 179.824L357.456 175.208C357.345 174.204 356.808 173.256 355.902 172.654C354.279 171.575 352.089 172.019 351.01 173.641C349.931 175.264 350.375 177.454 351.998 178.533C352.159 178.638 352.328 178.727 352.499 178.806L341.157 218.751C339.786 218.463 338.311 219.01 337.489 220.25C337.222 220.652 337.049 221.091 336.963 221.537L238.988 215.062C238.959 213.953 238.407 212.876 237.415 212.214C235.793 211.135 233.603 211.579 232.524 213.202C231.445 214.824 231.889 217.015 233.511 218.093C233.884 218.342 234.288 218.504 234.697 218.595L228.993 263.651C227.812 263.611 226.637 264.164 225.935 265.224L226.095 264.941L125.516 208.212C126.21 206.665 125.708 204.801 124.251 203.833C123.499 203.333 122.626 203.165 121.798 203.284L110.57 156.325C111.284 156.084 111.927 155.617 112.374 154.938C113.451 153.313 113.009 151.125 111.387 150.046C109.764 148.967 107.574 149.411 106.495 151.034C106.075 151.666 105.887 152.386 105.912 153.092L33.5378 162.007C33.349 161.141 32.841 160.348 32.0455 159.819C30.4231 158.74 28.2328 159.184 27.1538 160.807C26.7048 161.483 26.5218 162.255 26.5788 163.007L-17.481 170.249C-17.6911 169.438 -18.1878 168.7 -18.9394 168.2C-20.5618 167.121 -22.7521 167.565 -23.831 169.188C-23.9455 169.359 -24.038 169.539 -24.1189 169.719L-102.256 145.314C-101.996 143.959 -102.55 142.521 -103.77 141.709C-104.69 141.1 -105.79 140.976 -106.77 141.281L-129.26 89.7963C-128.755 89.5299 -128.306 89.1364 -127.966 88.628C-126.887 87.0056 -127.332 84.8153 -128.954 83.7364C-130.579 82.6593 -132.767 83.1015 -133.846 84.7239C-133.853 84.7367 -133.859 84.7495 -133.868 84.7597L-173.903 68.497L-195.065 59.9007C-194.786 58.5325 -195.333 57.0702 -196.568 56.249C-198.19 55.17 -200.381 55.6141 -201.46 57.2365C-202.297 58.4991 -202.215 60.0994 -201.376 61.2578L-235.269 98.4431C-235.309 98.415 -235.348 98.3825 -235.392 98.3537C-237.014 97.2747 -239.204 97.7188 -240.283 99.3412C-241.362 100.964 -240.918 103.154 -239.296 104.233C-238.91 104.488 -238.494 104.657 -238.067 104.744L-245.653 150.963C-246.877 150.878 -248.112 151.432 -248.839 152.53C-249.918 154.152 -249.473 156.342 -247.851 157.421ZM-198.529 62.7163C-197.383 62.7172 -196.262 62.1665 -195.58 61.1406C-195.449 60.9415 -195.343 60.7357 -195.255 60.5268L-171.26 70.2728L-134.171 85.3377C-134.302 85.6561 -134.382 85.9859 -134.415 86.3192L-199.996 95.4523L-198.527 62.7189L-198.529 62.7163ZM31.6394 165.929L48.9531 194.427L10.2141 221.222C10.0013 220.97 9.75203 220.739 9.463 220.547C9.32715 220.455 9.18357 220.381 9.03919 220.311L29.1768 166.166C30.0052 166.39 30.8815 166.301 31.6394 165.929ZM106.736 155.251C106.949 155.504 107.198 155.735 107.487 155.926C107.657 156.038 107.828 156.129 108.006 156.207L79.7834 239.769C78.9866 239.579 78.151 239.675 77.4244 240.029L49.8284 194.609L106.734 155.249L106.736 155.251ZM318.056 410.354L308.242 369.861L322.408 403.529C321.909 403.794 321.468 404.186 321.129 404.69C320.374 405.827 320.369 407.239 320.986 408.354L318.056 410.354ZM329.836 470.514C329.568 470.921 329.394 471.36 329.308 471.811L244.067 463.696C244.068 463.095 243.915 462.502 243.622 461.976L317.642 411.427L331.63 469.135C330.92 469.377 330.281 469.844 329.833 470.516L329.836 470.514ZM-45.9946 340.155C-46.2218 339.825 -46.5068 339.532 -46.8468 339.285L-17.2854 289.063C-15.7287 289.799 -13.826 289.301 -12.845 287.823L18.2276 304.519L-45.9946 340.155ZM-235.372 104.225C-235.311 104.182 -235.247 104.138 -235.189 104.089L-205.005 144.885C-205.225 145.083 -205.423 145.305 -205.594 145.56C-206.042 146.232 -206.223 147.002 -206.172 147.75L-216.316 149.386L-235.372 104.225ZM-146.73 202.72L-135.809 213.409C-135.88 213.495 -135.948 213.586 -136.012 213.682C-136.41 214.283 -136.6 214.961 -136.601 215.629L-147.913 216.659L-199.306 151.246L-146.73 202.72ZM-135.355 212.944L-173.541 175.56L-199.917 149.737C-199.846 149.652 -199.779 149.561 -199.715 149.464C-199.358 148.929 -199.171 148.332 -199.136 147.731L-132.38 145.716L-133.347 212.115C-134.078 212.173 -134.783 212.456 -135.354 212.939L-135.355 212.944ZM-206.068 148.393C-205.859 149.209 -205.363 149.951 -204.607 150.452C-203.876 150.939 -203.03 151.114 -202.222 151.013L-187.734 217.131L-216.056 150.003L-206.065 148.391L-206.068 148.393ZM-184.709 217.578C-185.439 217.091 -186.285 216.916 -187.094 217.017L-201.587 150.874C-201.292 150.779 -201.006 150.647 -200.743 150.478L-148.69 216.73L-183.196 219.875C-183.366 218.968 -183.882 218.128 -184.711 217.58L-184.709 217.578ZM-183.132 220.522L-148.208 217.339L-138.126 230.17C-138.314 230.35 -138.49 230.553 -138.64 230.777C-138.812 231.036 -138.942 231.31 -139.039 231.593L-183.17 221.014C-183.146 220.85 -183.13 220.684 -183.131 220.518L-183.132 220.522ZM-135.489 229.211C-136.235 229.168 -136.982 229.357 -137.613 229.767L-147.433 217.27L-136.542 216.276C-136.372 217.183 -135.855 218.022 -135.026 218.571C-134.683 218.8 -134.31 218.957 -133.93 219.052L-135.489 229.211ZM-129.689 214.635L-88.1084 198.066L-81.42 218.034C-82.0159 218.296 -82.5474 218.724 -82.938 219.307C-83.1992 219.701 -83.3683 220.13 -83.4569 220.565L-129.546 215.68C-129.542 215.328 -129.59 214.976 -129.689 214.635ZM-23.5083 173.499C-23.3145 173.713 -23.0922 173.912 -22.8389 174.08C-22.3425 174.409 -21.7978 174.596 -21.2462 174.651L-19.0364 222.485L-76.4763 221.022C-76.5199 220.381 -76.7356 219.76 -77.1093 219.227L-23.5056 173.497L-23.5083 173.499ZM230.232 270.435L246.308 304.372C245.834 304.637 245.409 305.013 245.09 305.499C244.933 305.736 244.813 305.984 244.718 306.241L231.275 304.245L229.618 270.626C229.83 270.581 230.035 270.517 230.237 270.436L230.232 270.435ZM383.275 247.827C382.789 248.847 382.833 250.017 383.337 250.981L363.671 263.78L342.52 225.038C342.843 224.8 343.134 224.505 343.369 224.154L383.273 247.829L383.275 247.827ZM341.965 225.375L363.127 264.138L301.944 303.956C301.718 303.673 301.447 303.417 301.129 303.207C301.093 303.184 301.055 303.163 301.019 303.141L339.227 225.514C340.133 225.843 341.119 225.78 341.962 225.377L341.965 225.375ZM-13.828 282.932C-13.9638 282.841 -14.1029 282.767 -14.2472 282.697L6.59061 226.889C7.55908 227.153 8.59635 226.988 9.43341 226.445L36.7154 261.058L-12.7351 284.096C-12.9993 283.644 -13.3636 283.243 -13.828 282.932ZM9.94466 226.04C10.133 225.86 10.3038 225.661 10.4559 225.435C10.6114 225.203 10.7296 224.957 10.8232 224.705L75.6376 242.072C75.5343 242.379 75.4746 242.691 75.4592 243.004L37.3251 260.77L9.94733 226.038L9.94466 226.04ZM75.4889 243.711C75.557 244.16 75.707 244.596 75.9393 244.99L58.4211 277.859L56.7254 281.042C55.6587 280.592 54.4557 280.703 53.4951 281.296L37.7322 261.3L75.4836 243.714L75.4889 243.711ZM57.3091 281.354C57.3091 281.354 57.3072 281.351 57.3053 281.348L58.9941 278.177L76.3727 245.569C76.5628 245.778 76.7813 245.971 77.0282 246.136C77.4365 246.407 77.8806 246.581 78.3308 246.668L84.6214 276.585L58.6705 283.076C58.4209 282.396 57.9632 281.782 57.3117 281.352L57.3091 281.354ZM-12.4604 284.687L37.1305 261.582L52.9791 281.689C52.7701 281.879 52.5799 282.096 52.4174 282.341C52.0794 282.852 51.8908 283.418 51.8415 283.989L-12.2753 285.468C-12.3058 285.203 -12.3696 284.941 -12.4604 284.687ZM98.3339 345.429L57.68 286.943C57.9094 286.743 58.1191 286.509 58.2966 286.245C58.8128 285.466 58.9774 284.56 58.8332 283.706L84.7517 277.225L99.03 345.129C98.7877 345.203 98.5569 345.305 98.3357 345.432L98.3339 345.429ZM85.3833 277.065L115.54 269.521C115.799 270.147 116.24 270.702 116.847 271.104C117.084 271.26 117.333 271.383 117.588 271.475L107.239 316.121L100.544 345.003C100.25 344.962 99.956 344.957 99.6668 344.993L85.3833 277.065ZM239.417 460.343L226.607 430.589L218.691 412.196C219.18 411.929 219.613 411.547 219.944 411.049C220.593 410.074 220.686 408.895 220.309 407.874L236.059 400.33L239.931 460.21C239.755 460.242 239.583 460.286 239.415 460.341L239.417 460.343ZM202.889 303.328L231.382 351.885C231.046 352.128 230.741 352.43 230.501 352.797C230.083 353.427 229.896 354.142 229.917 354.848L210.079 358.439L202.218 303.563C202.45 303.508 202.677 303.428 202.893 303.329L202.889 303.328ZM229.992 355.495C230.181 356.361 230.688 357.159 231.488 357.688C231.689 357.822 231.897 357.931 232.113 358.018L217.712 405.641C217.42 405.582 217.124 405.563 216.832 405.577L210.171 359.082L229.995 355.493L229.992 355.495ZM220.029 407.287C219.767 406.85 219.41 406.46 218.956 406.157C218.757 406.026 218.548 405.915 218.336 405.828L223.487 388.821L232.757 358.211C232.951 358.25 233.147 358.268 233.342 358.275L236.016 399.632L220.029 407.291L220.029 407.287ZM233.991 358.23C234.932 358.08 235.81 357.557 236.38 356.701C236.609 356.353 236.766 355.981 236.862 355.6L303.455 365.784C303.427 366.273 303.5 366.758 303.67 367.216L236.65 399.323L233.994 358.228L233.991 358.23ZM304.033 364.043C303.803 364.391 303.646 364.763 303.551 365.144L236.958 354.96C237.001 354.249 236.825 353.538 236.456 352.925L269.074 328.809L304.25 363.752C304.173 363.846 304.102 363.943 304.035 364.046L304.033 364.043ZM236.069 352.401C235.872 352.181 235.647 351.98 235.392 351.809C235.315 351.756 235.234 351.713 235.155 351.669L247.154 310.862C248.249 311.141 249.422 310.88 250.294 310.155L268.606 328.345L236.069 352.401ZM246.08 310.389C246.229 310.488 246.385 310.569 246.54 310.644L234.553 351.406C234.237 351.301 233.915 351.245 233.591 351.229L231.306 304.907L244.548 306.873C244.328 308.2 244.882 309.598 246.075 310.388L246.08 310.389ZM232.942 351.262C232.659 351.301 232.379 351.374 232.112 351.481L203.46 302.991C203.793 302.75 204.091 302.45 204.333 302.086C204.566 301.736 204.723 301.359 204.818 300.971L230.65 304.806L232.94 351.26L232.942 351.262ZM121.736 270.118C121.765 270.074 121.789 270.029 121.816 269.982L166.907 287.265L197.993 299.181C197.79 299.903 197.83 300.663 198.082 301.353L141.346 328.434L120.106 271.442C120.75 271.186 121.325 270.74 121.736 270.118ZM199.72 303.244C200.303 303.56 200.94 303.69 201.565 303.658L209.431 358.559L159.352 367.625C159.16 366.937 158.76 366.302 158.17 365.824L199.72 303.244ZM159.471 368.266L209.525 359.204L216.184 405.673C215.444 405.849 214.761 406.26 214.257 406.887L159.064 370.241C159.4 369.62 159.531 368.932 159.471 368.266ZM215.051 412.041C215.985 412.659 217.104 412.775 218.094 412.456L223.864 425.865L238.818 460.607C238.693 460.679 238.569 460.758 238.451 460.844L199.383 416.912L213.75 407.735C213.106 409.268 213.615 411.086 215.051 412.041ZM242.185 460.56C241.676 460.293 241.128 460.163 240.582 460.156L236.693 400.025L303.947 367.805C304.149 368.145 304.408 368.453 304.724 368.717L242.185 460.56ZM304.708 363.292L269.599 328.418L296.548 308.494C296.746 308.714 296.97 308.915 297.225 309.086C297.865 309.512 298.595 309.697 299.307 309.668L306.194 362.558C305.655 362.68 305.144 362.927 304.708 363.292ZM296.161 307.97L269.134 327.952L250.754 309.693C250.832 309.599 250.903 309.502 250.97 309.399C251.323 308.87 251.509 308.278 251.549 307.681L295.676 306.556C295.733 307.052 295.899 307.533 296.162 307.965L296.161 307.97ZM228.967 270.7L230.617 304.145L204.912 300.328C204.965 299.353 204.615 298.381 203.909 297.663L227.111 270.226C227.693 270.562 228.335 270.718 228.964 270.702L228.967 270.7ZM226.58 269.847L203.409 297.245C203.386 297.229 203.366 297.212 203.343 297.196C201.721 296.117 199.53 296.561 198.452 298.183C198.369 298.309 198.294 298.441 198.228 298.574L128.697 271.921L122.1 269.394C122.184 269.168 122.244 268.935 122.28 268.703L225.393 267.703C225.518 268.518 225.921 269.286 226.579 269.851L226.58 269.847ZM115.346 268.898L85.2485 276.424L79.0017 246.723C80.0796 246.712 81.1298 246.207 81.8118 245.284L115.535 266.817C115.258 267.488 115.203 268.21 115.347 268.893L115.346 268.898ZM5.5597 226.422C5.69555 226.514 5.83455 226.587 5.97893 226.657L-14.8589 282.465C-15.109 282.398 -15.3639 282.358 -15.6171 282.348L-18.3516 223.151L3.99685 223.718C4.06985 224.777 4.61171 225.789 5.56421 226.423L5.5597 226.422ZM-77.0554 223.205C-76.7374 222.728 -76.5578 222.201 -76.4941 221.667L-19.0073 223.128L-16.2698 282.376C-16.9076 282.464 -17.5197 282.726 -18.0289 283.146L-77.2878 223.515C-77.2051 223.417 -77.1261 223.314 -77.0554 223.205ZM-12.5347 287.244C-12.3814 286.878 -12.2907 286.497 -12.2651 286.113L51.84 284.634C51.8755 285.003 51.9732 285.364 52.123 285.709L18.9049 304.141L-12.5374 287.246L-12.5347 287.244ZM52.4415 286.277C52.6902 286.644 53.0121 286.967 53.4031 287.23C54.5694 288.004 56.024 287.992 57.1519 287.325L97.7983 345.8C97.6281 345.943 97.4691 346.102 97.325 346.283L19.5902 304.512L52.4425 286.284L52.4415 286.277ZM102.021 345.555C101.753 345.377 101.47 345.245 101.18 345.15L118.218 271.642C118.641 271.712 119.07 271.706 119.482 271.624L140.759 328.714L103.098 346.69C102.837 346.249 102.477 345.86 102.021 345.555ZM141.575 329.045L198.362 301.94C198.572 302.291 198.84 302.612 199.176 302.881L157.626 365.462C156.808 365.02 155.883 364.937 155.033 365.166L141.573 329.047L141.575 329.045ZM158.702 370.781L213.464 407.14L198.942 416.414L158.53 370.972C158.59 370.911 158.646 370.848 158.702 370.781ZM237.966 461.276C237.833 461.416 237.711 461.565 237.6 461.73C237.489 461.896 237.4 462.069 237.32 462.245L166.208 438.098L198.825 417.263L237.964 461.273L237.966 461.276ZM243.26 461.43C243.136 461.282 242.997 461.141 242.847 461.011L242.825 460.776L305.264 369.078C305.961 369.466 306.739 369.589 307.483 369.481L317.485 410.742L243.264 461.431L243.26 461.43ZM363.628 383.554L326.956 404.607C326.711 404.257 326.401 403.945 326.024 403.696C325.784 403.535 325.529 403.415 325.267 403.32L333.038 373.339L363.356 381.49C363.234 382.191 363.332 382.91 363.626 383.551L363.628 383.554ZM324.637 403.157C324.089 403.067 323.529 403.109 323.009 403.275L308.634 369.109C309.132 368.844 309.573 368.451 309.912 367.947C310.068 367.715 310.186 367.469 310.279 367.221L332.41 373.17L324.637 403.157ZM310.448 366.594C310.61 365.645 310.378 364.666 309.799 363.891L340.583 336.184C340.748 336.351 340.936 336.506 341.139 336.642C341.348 336.782 341.569 336.893 341.794 336.982L332.577 372.545L310.45 366.597L310.448 366.594ZM340.17 335.678L313.536 359.652L339.834 332.342C339.372 333.449 339.513 334.706 340.17 335.678ZM309.175 363.242C309.095 363.179 309.012 363.118 308.926 363.058C308.286 362.632 307.556 362.447 306.845 362.476L299.957 309.587C300.812 309.393 301.599 308.887 302.121 308.099C302.582 307.406 302.763 306.608 302.693 305.838L375.099 292.646C375.254 293.134 375.519 293.592 375.879 293.981L309.174 363.247L309.175 363.242ZM302.574 305.197C302.506 304.958 302.419 304.725 302.302 304.501L363.44 264.71L376.505 288.639C376.125 288.893 375.79 289.219 375.521 289.626C375.035 290.356 374.862 291.201 374.961 292.006L302.577 305.195L302.574 305.197ZM377.078 288.333L363.988 264.358L383.698 251.531C383.924 251.814 384.195 252.07 384.513 252.281C384.825 252.488 385.157 252.637 385.499 252.735L378.884 288.079C378.268 288.005 377.646 288.094 377.08 288.336L377.078 288.333ZM388.415 246.399C386.832 245.348 384.716 245.744 383.612 247.269L343.871 223.69L442.792 260.723L389.972 249.735C390.114 248.462 389.561 247.155 388.42 246.4L388.415 246.399ZM443.942 259.958C443.853 260.092 443.777 260.233 443.71 260.375L343.872 222.998C343.991 222.481 343.991 221.948 343.878 221.439L388.396 207.987L444.091 259.762C444.042 259.828 443.991 259.892 443.944 259.96L443.942 259.958ZM338.482 225.142C338.534 225.177 338.59 225.206 338.643 225.236L300.439 302.851C299.442 302.467 298.336 302.569 297.432 303.084L280.091 278.319L338.077 224.825C338.204 224.939 338.335 225.046 338.482 225.142ZM296.898 303.457C296.651 303.666 296.428 303.91 296.239 304.197C295.886 304.727 295.7 305.318 295.66 305.915L251.533 307.04C251.46 306.419 251.22 305.82 250.834 305.315L279.607 278.769L296.897 303.462L296.898 303.457ZM250.388 304.832C250.261 304.718 250.128 304.608 249.981 304.512C249.335 304.082 248.597 303.898 247.879 303.928L236.261 218.59C236.592 218.513 236.911 218.389 237.213 218.218L279.229 278.223L250.386 304.829L250.388 304.832ZM235.616 218.68L247.232 304.015C247.122 304.041 247.012 304.07 246.904 304.11L230.807 270.132C231.198 269.878 231.543 269.541 231.816 269.131C232.893 267.506 232.451 265.318 230.829 264.239C230.456 263.991 230.052 263.828 229.642 263.737L235.348 218.684C235.439 218.688 235.528 218.685 235.618 218.682L235.616 218.68ZM225.355 267.054L122.32 268.055C122.284 266.954 121.734 265.884 120.746 265.228C120.302 264.935 119.814 264.755 119.317 264.681L122.423 210.298C123.498 210.261 124.539 209.731 125.195 208.783L225.768 265.508C225.504 265.999 225.369 266.527 225.353 267.055L225.355 267.054ZM120.351 209.713C120.795 210.007 121.283 210.186 121.777 210.262L118.74 263.448L114.691 213.601L119.823 209.288C119.98 209.444 120.158 209.59 120.35 209.718L120.351 209.713ZM118.185 264.695C117.265 264.858 116.411 265.376 115.854 266.216C115.848 266.224 115.844 266.235 115.835 266.245L82.1453 244.732C82.708 243.571 82.5794 242.217 81.8673 241.189L114.077 214.11L118.183 264.692L118.185 264.695ZM81.4501 240.69C81.2929 240.533 81.1151 240.388 80.9225 240.26C80.7546 240.151 80.5817 240.057 80.4037 239.979L108.626 156.417C108.882 156.476 109.141 156.51 109.402 156.514L114.014 213.315L81.4501 240.69ZM76.871 240.369C76.5511 240.605 76.2659 240.896 76.0308 241.247C75.9828 241.321 75.9412 241.398 75.8977 241.472L10.987 224.081C11.1232 223.282 10.978 222.461 10.5851 221.758L49.2948 194.983L76.871 240.369ZM5.54391 220.555C5.17008 220.805 4.83604 221.135 4.57137 221.535C4.25334 222.012 4.07382 222.539 4.01012 223.073L-18.3826 222.504L-20.5946 174.656C-20.2528 174.627 -19.9184 174.548 -19.5995 174.424L5.54311 220.56L5.54391 220.555ZM-23.8999 172.974L-77.5363 218.73C-77.6898 218.579 -77.8593 218.439 -78.0437 218.318C-78.8897 217.757 -79.8862 217.612 -80.8012 217.827L-87.5021 197.825L-24.1153 172.564C-24.0515 172.706 -23.9797 172.843 -23.898 172.977L-23.8999 172.974ZM-88.3169 197.445L-129.931 214.029C-130.199 213.505 -130.596 213.039 -131.122 212.692C-131.248 212.609 -131.376 212.539 -131.506 212.472L-111.664 161.007L-106.667 148.044C-106.07 148.21 -105.445 148.211 -104.86 148.064L-88.3188 197.442L-88.3169 197.445ZM-107.674 147.588C-107.547 147.674 -107.412 147.747 -107.274 147.813L-132.113 212.236C-132.306 212.181 -132.499 212.145 -132.696 212.124L-131.728 145.698L-109.23 145.02C-109.123 146.03 -108.585 146.986 -107.674 147.588ZM-132.37 145.065L-199.157 147.081C-199.229 146.507 -199.44 145.955 -199.781 145.474L-133.72 88.7993C-133.487 89.1094 -133.201 89.3866 -132.86 89.6129C-132.458 89.8802 -132.018 90.0536 -131.573 90.1392L-132.375 145.064L-132.37 145.065ZM-134.418 86.9781C-134.379 87.4155 -134.26 87.8457 -134.063 88.2406L-200.201 144.982C-200.353 144.833 -200.521 144.696 -200.703 144.577C-201.162 144.274 -201.661 144.095 -202.173 144.024L-200.024 96.1162L-134.417 86.9808L-134.418 86.9781ZM-202.824 143.991C-203.409 144.018 -203.977 144.189 -204.482 144.496L-234.71 103.643C-234.599 103.517 -234.495 103.388 -234.4 103.246C-233.906 102.503 -233.733 101.642 -233.846 100.822L-200.682 96.2036L-202.824 143.991ZM-235.951 104.535L-216.983 149.491L-242.486 153.601C-242.695 152.785 -243.191 152.043 -243.947 151.542C-244.282 151.319 -244.641 151.165 -245.01 151.069L-237.418 104.819C-236.914 104.828 -236.416 104.734 -235.951 104.535ZM-243.313 156.877C-243.186 156.74 -243.067 156.593 -242.959 156.434C-242.511 155.762 -242.331 154.992 -242.381 154.244L-216.722 150.107L-188.329 217.405C-188.479 217.486 -188.627 217.582 -188.765 217.686L-243.313 156.877ZM-132.326 231.7C-132.558 230.944 -133.041 230.26 -133.75 229.786C-134.093 229.557 -134.466 229.401 -134.846 229.305L-133.287 219.147C-132.074 219.22 -130.856 218.665 -130.136 217.581C-129.875 217.187 -129.706 216.758 -129.617 216.323L-83.528 221.208C-83.5301 221.352 -83.5232 221.499 -83.509 221.644L-132.331 231.699L-132.326 231.7ZM-78.8098 224.573C-78.4306 224.439 -78.0727 224.24 -77.7526 223.976L-18.4937 283.607C-18.5764 283.704 -18.6554 283.807 -18.7261 283.916C-19.7797 285.501 -19.3777 287.626 -17.8461 288.728L-47.4076 338.95C-48.0662 338.639 -48.7822 338.548 -49.4683 338.659L-78.8071 224.571L-78.8098 224.573ZM-45.3913 341.92C-45.417 341.508 -45.5158 341.1 -45.6826 340.72L18.9074 304.883L95.751 346.176L-45.394 341.922L-45.3913 341.92ZM103.478 349.374C103.66 348.674 103.616 347.942 103.373 347.277L140.981 329.326L154.42 365.392C153.868 365.66 153.375 366.069 153.011 366.617C152.913 366.766 152.832 366.918 152.76 367.076L103.48 349.377L103.478 349.374ZM156.749 372.001C157.21 371.893 157.65 371.692 158.04 371.408L198.381 416.771L165.708 437.64L156.747 372.003L156.749 372.001ZM247.458 516.159C246.872 516.271 246.312 516.532 245.844 516.927L166.7 438.954L237.111 462.86C236.778 464.259 237.321 465.779 238.588 466.622C239.888 467.485 241.546 467.37 242.711 466.463L247.462 516.16L247.458 516.159ZM331.648 466.434L318.218 411.028L321.35 408.89C321.564 409.15 321.819 409.385 322.115 409.579C322.755 410.006 323.49 410.191 324.206 410.163L331.649 466.437L331.648 466.434ZM364.989 379.081C364.563 379.34 364.182 379.694 363.889 380.138C363.733 380.37 363.617 380.614 363.522 380.864L333.198 372.71L342.413 337.161C343.062 337.287 343.728 337.222 344.339 336.993L364.989 379.081ZM344.981 330.726C343.932 330.057 342.659 330.01 341.602 330.5L371.599 299.352L344.984 330.724L344.981 330.726ZM447.855 258.515C446.693 258.179 445.431 258.466 444.523 259.277L389.107 207.763L475.647 181.613C475.904 182.248 476.349 182.815 476.962 183.225C477.081 183.304 477.205 183.373 477.328 183.434L447.852 258.516L447.855 258.515ZM475.398 180.474C475.408 180.647 475.426 180.821 475.462 180.991L388.559 207.248L356.773 177.698C356.813 177.646 356.852 177.595 356.89 177.541C357.237 177.019 357.423 176.44 357.468 175.856L475.398 180.474ZM353.112 179.017C354.249 179.295 355.463 178.989 356.334 178.184L387.833 207.466L343.668 220.81C343.407 220.198 342.972 219.652 342.377 219.257C342.185 219.129 341.983 219.024 341.776 218.938L353.112 179.017ZM336.898 222.183C336.895 222.956 337.147 223.719 337.626 224.341L279.706 277.774L237.74 217.84C237.987 217.631 238.21 217.388 238.399 217.101C238.686 216.665 238.864 216.191 238.942 215.706L336.897 222.18L336.898 222.183ZM119.357 204.818C118.535 206.058 118.6 207.627 119.4 208.781L114.622 212.798L110.106 157.179L121.164 203.434C120.45 203.675 119.806 204.142 119.356 204.822L119.357 204.818ZM105.993 153.736C106.069 154.076 106.193 154.407 106.366 154.711L49.4894 194.051L32.1954 165.588C32.5154 165.352 32.8032 165.059 33.0356 164.709C33.4558 164.077 33.6437 163.357 33.6185 162.651L105.993 153.736ZM26.6829 163.65C26.8931 164.461 27.3898 165.199 28.1413 165.698C28.2772 165.79 28.4208 165.865 28.5652 165.935L8.42751 220.079C7.65279 219.87 6.83915 219.935 6.11334 220.244L-19.0207 174.127C-18.6082 173.87 -18.2384 173.523 -17.9537 173.089C-17.5047 172.413 -17.3217 171.641 -17.3787 170.889L26.6811 163.647L26.6829 163.65ZM-24.3261 170.338C-24.4504 170.87 -24.4469 171.42 -24.3238 171.943L-87.7106 197.203L-104.242 147.85C-103.667 147.586 -103.154 147.167 -102.78 146.599C-102.639 146.385 -102.526 146.167 -102.436 145.937L-24.3208 170.334L-24.3261 170.338ZM-107.373 141.528C-107.878 141.794 -108.326 142.188 -108.666 142.696C-109.011 143.215 -109.198 143.788 -109.242 144.367L-131.721 145.044L-130.919 90.1984C-130.561 90.1983 -130.204 90.1467 -129.864 90.0405L-107.373 141.528ZM-200.943 61.7503C-200.799 61.888 -200.644 62.0136 -200.472 62.1281C-200.068 62.3981 -199.629 62.5715 -199.179 62.6579L-200.652 95.5423L-233.993 100.186C-234.152 99.7043 -234.416 99.2531 -234.777 98.8737L-200.942 61.753L-200.943 61.7503Z" fill="#8FC6D7"/>
<rect x="226.088" y="77.7139" width="203.384" height="111.108" rx="10.2268" fill="#9F5656"/>
<path fill-rule="evenodd" clip-rule="evenodd" d="M229.67 85.6108C224.022 85.6108 219.443 90.1895 219.443 95.8376V125.065C193.931 136.634 182.743 148.573 170.006 175.71C189.701 160.187 201.359 152.599 219.443 156.664V186.07C219.443 191.718 224.021 196.297 229.67 196.297H412.757C418.405 196.297 422.984 191.718 422.984 186.07V95.8376C422.984 90.1895 418.405 85.6108 412.757 85.6108H229.67Z" fill="#F4C9C9"/>
<rect x="238.431" y="99.4269" width="71.0578" height="82.2428" rx="10" fill="#F7FDFE"/>
<mask id="mask0_761_6789" style="mask-type:alpha" maskUnits="userSpaceOnUse" x="238" y="99" width="72" height="83">
<rect x="238.431" y="99.4269" width="71.0578" height="82.2428" rx="10" fill="#F7FDFE"/>
</mask>
<g mask="url(#mask0_761_6789)">
<path d="M242.051 142.852L241.232 143.427C241.709 144.107 242.458 144.541 243.285 144.617C243.285 144.617 243.285 144.617 243.285 144.617C243.286 144.617 243.286 144.617 243.286 144.617L246.937 144.954L246.949 144.955L246.962 144.956C248.129 145.034 249.215 144.241 249.474 143.076L249.498 142.969V142.954C249.683 141.86 249.097 140.794 248.102 140.354L248.042 140.223L247.618 140.088L244.571 139.122L244.317 139.041L244.226 139.061C243.541 138.89 242.825 138.979 242.197 139.32L242.197 139.32L242.195 139.32C241.504 139.697 241.009 140.329 240.81 141.092L240.81 141.092C240.601 141.896 240.755 142.748 241.233 143.428L242.051 142.852ZM242.051 142.852C242.359 143.292 242.843 143.572 243.377 143.621M242.051 142.852L243.377 143.621M243.377 143.621L247.029 143.958L243.377 143.621Z" fill="#FFBE97" stroke="#FFBE97" stroke-width="2"/>
<path d="M247.211 141.473L247.202 141.47L243.076 140.161L243.075 140.161C242.178 139.876 241.452 139.213 241.089 138.344C240.725 137.476 240.76 136.494 241.187 135.654C241.591 134.856 242.294 134.275 243.153 134.026L243.154 134.025L243.154 134.025C243.952 133.796 244.788 133.879 245.519 134.259L245.661 134.268L245.899 134.448C245.962 134.496 246.018 134.534 246.071 134.565L246.072 134.566L249.18 136.395L249.39 136.519L249.428 136.579C250.574 137.298 251.023 138.765 250.444 140.013L247.211 141.473ZM247.211 141.473L247.221 141.475M247.211 141.473L247.221 141.475M247.221 141.475C248.502 141.854 249.883 141.225 250.444 140.014L247.221 141.475Z" fill="#FFBE97" stroke="#FFBE97" stroke-width="2"/>
<path d="M244.849 135.455C244.305 134.976 243.935 134.324 243.809 133.597C243.648 132.669 243.902 131.72 244.504 130.997L244.849 135.455ZM244.849 135.455V135.522L245.342 135.812L249.073 138.008L249.081 138.013L249.09 138.018C250.256 138.674 251.742 138.366 252.558 137.31L244.849 135.455ZM252.559 137.31C253.439 136.172 253.278 134.55 252.195 133.607L249.181 130.73C249.181 130.73 249.181 130.73 249.181 130.73C248.581 130.157 247.798 129.843 246.972 129.843C246.916 129.843 246.852 129.844 246.782 129.849C245.89 129.9 245.076 130.311 244.504 130.997L252.559 137.31Z" fill="#FFBE97" stroke="#FFBE97" stroke-width="2"/>
<path d="M262.386 126.41C261.676 126.379 260.954 126.759 260.491 127.409C259.877 128.273 258.737 129.86 258.011 130.775C257.671 131.204 257.162 131.466 256.615 131.492C256.072 131.524 255.535 131.309 255.153 130.914L246.41 121.881C245.982 121.558 245.417 121.412 244.845 121.499C244.275 121.587 243.778 121.895 243.445 122.366C242.896 123.145 242.941 124.199 243.554 124.928L248.445 130.678C248.462 130.697 248.47 130.72 248.48 130.741C248.619 130.832 248.754 130.931 248.877 131.049L251.898 133.934C252.81 134.709 252.952 136.078 252.209 137.038C251.769 137.608 251.093 137.916 250.407 137.916C250.277 137.916 250.146 137.9 250.016 137.877C250.307 138.471 250.344 139.182 250.045 139.828C249.734 140.5 249.117 140.952 248.426 141.093C248.942 141.552 249.203 142.261 249.044 142.981C248.844 143.879 248.033 144.52 247.123 144.52C247.078 144.52 247.031 144.518 246.984 144.515L243.87 144.228C243.921 144.273 243.972 144.315 244.024 144.361C244.636 144.902 245.269 145.463 246.14 145.983L246.325 146.14C246.382 146.191 246.416 146.264 246.418 146.341L246.534 151.002L260.636 150.409L259.238 142.718C259.224 142.642 259.242 142.564 259.288 142.502C260.474 140.899 261.026 139.344 261.08 137.461C261.101 136.711 261.68 135.331 262.351 133.733C263.366 131.312 264.758 127.997 263.886 127.082C263.499 126.676 262.967 126.438 262.387 126.41H262.386ZM253.842 135.711C253.912 135.572 254.08 135.519 254.216 135.588C254.354 135.657 254.409 135.825 254.339 135.962C253.59 137.441 252.788 139.374 253.25 141.218C253.287 141.367 253.197 141.519 253.047 141.556C253.025 141.562 253.002 141.564 252.98 141.564C252.855 141.564 252.742 141.48 252.71 141.353C252.203 139.331 253.049 137.275 253.842 135.711ZM258.121 144.145C255.852 145.677 253.227 146.733 250.531 147.199C250.515 147.201 250.499 147.202 250.483 147.202C250.35 147.202 250.232 147.106 250.209 146.971C250.183 146.819 250.284 146.676 250.436 146.649C253.055 146.197 255.605 145.172 257.81 143.684C257.935 143.597 258.109 143.631 258.196 143.759C258.282 143.886 258.249 144.059 258.121 144.145V144.145Z" fill="#FFBE97"/>
<path d="M257.809 143.686C255.604 145.174 253.055 146.2 250.436 146.652C250.284 146.678 250.182 146.822 250.208 146.974C250.231 147.109 250.35 147.205 250.482 147.205C250.498 147.205 250.515 147.204 250.53 147.201C253.226 146.736 255.851 145.68 258.12 144.148C258.248 144.062 258.282 143.889 258.195 143.762C258.109 143.634 257.934 143.6 257.809 143.687V143.686Z" fill="#4F2B2B"/>
<path d="M252.979 141.563C253.002 141.563 253.025 141.56 253.047 141.555C253.196 141.517 253.286 141.366 253.249 141.217C252.788 139.373 253.589 137.439 254.338 135.96C254.408 135.823 254.353 135.656 254.215 135.586C254.079 135.517 253.911 135.571 253.841 135.709C253.048 137.274 252.203 139.329 252.709 141.351C252.741 141.478 252.854 141.563 252.979 141.563Z" fill="#4F2B2B"/>
<path d="M251.551 135.26C251.67 135.858 251.623 137.052 250.476 137.052C249.33 137.052 245.222 134.783 244.386 134.186" stroke="#4F2B2B" stroke-linecap="round"/>
<path d="M249.651 138.591C249.832 139.172 249.909 140.365 248.769 140.484C247.629 140.604 243.129 140.068 242.235 139.561" stroke="#4F2B2B" stroke-linecap="round"/>
<path d="M248.298 142.074C248.479 142.655 248.556 143.848 247.416 143.967C246.276 144.087 244.562 144.474 243.669 143.967" stroke="#4F2B2B" stroke-linecap="round"/>
<path d="M276.118 141.783L278.1 141.235L300.942 141.339C300.942 141.339 302.011 141.556 303.615 141.948L285.137 155.564L276.118 141.783V141.783Z" fill="#E95D9A"/>
<path d="M258.7 157.858C259.327 150.911 264.194 145.081 270.916 143.223L276.118 141.784L285.137 155.565L303.615 141.949C307.112 142.804 313.154 144.492 316.205 146.59C320.655 149.65 328.721 183.245 328.721 183.245H255.849L258.7 157.858Z" fill="#E95D9A"/>
<path d="M303.496 124.339C306.29 124.339 308.555 122.074 308.555 119.28C308.555 116.487 306.29 114.222 303.496 114.222C300.702 114.222 298.438 116.487 298.438 119.28C298.438 122.074 300.702 124.339 303.496 124.339Z" fill="#4F2B2B"/>
<path d="M287.904 112.447C289.574 110.777 289.574 108.07 287.904 106.4C286.234 104.73 283.527 104.73 281.857 106.4C280.187 108.07 280.187 110.777 281.857 112.447C283.527 114.117 286.234 114.117 287.904 112.447Z" fill="#4F2B2B"/>
<path d="M295.831 130.285H283.211V143.579H295.831V130.285Z" fill="#FFBE97"/>
<path d="M275.304 121.548C271.829 113.874 280.729 112.422 280.729 112.422C280.729 112.422 285.05 107.795 294.004 112.267C302.684 116.601 302.915 123.201 300.466 129.487L275.304 121.548Z" fill="#4F2B2B"/>
<path d="M298.857 128.822C298.69 128.771 298.522 128.738 298.355 128.72C299.679 124.01 297.965 118.164 291.978 115.148C285.967 112.119 278.733 114.367 276.049 119.292C273.364 124.217 275.199 130.808 281.109 134.03C286.084 136.742 292.361 136.2 295.824 133.023C296.162 133.501 296.653 133.876 297.257 134.061C298.704 134.503 300.235 133.688 300.677 132.241C301.118 130.794 300.304 129.263 298.857 128.822Z" fill="#FFBE97"/>
<path d="M298.911 132.171L297.393 131.707C297.149 131.633 297.011 131.374 297.086 131.13C297.161 130.885 297.419 130.747 297.663 130.822L299.181 131.285C299.425 131.36 299.563 131.619 299.488 131.863C299.414 132.107 299.155 132.245 298.911 132.171Z" fill="#4F2B2B"/>
<path d="M279.913 124.531C279.702 124.468 279.582 124.246 279.645 124.034L279.851 123.342C279.914 123.131 280.137 123.01 280.348 123.074C280.559 123.137 280.679 123.359 280.616 123.57L280.41 124.263C280.347 124.474 280.124 124.594 279.913 124.531Z" fill="#4F2B2B"/>
<path d="M288.683 127.687C288.471 127.624 288.351 127.402 288.414 127.191L288.621 126.498C288.684 126.287 288.906 126.167 289.118 126.23C289.329 126.293 289.449 126.515 289.386 126.727L289.179 127.419C289.116 127.63 288.894 127.751 288.683 127.687Z" fill="#4F2B2B"/>
<path d="M293.534 126.643C293.423 126.643 293.319 126.577 293.275 126.468C292.835 125.373 289.717 124.267 288.358 124.516C288.209 124.545 288.062 124.444 288.034 124.292C288.006 124.141 288.107 123.996 288.258 123.968C289.751 123.693 293.21 124.813 293.792 126.261C293.849 126.404 293.78 126.566 293.637 126.623C293.603 126.637 293.568 126.643 293.534 126.643Z" fill="#4F2B2B"/>
<path d="M282.494 122.384C282.398 122.384 282.305 122.334 282.253 122.245C281.857 121.56 279.67 120.635 277.726 121.164C277.573 121.206 277.424 121.117 277.384 120.968C277.344 120.82 277.431 120.667 277.58 120.626C279.739 120.039 282.195 121.034 282.735 121.966C282.812 122.099 282.766 122.27 282.634 122.346C282.59 122.372 282.541 122.384 282.494 122.384Z" fill="#4F2B2B"/>
<path d="M279.921 126.846C280.116 126.314 279.471 125.59 278.481 125.229C277.491 124.867 276.531 125.006 276.337 125.538C276.143 126.071 276.788 126.795 277.777 127.156C278.767 127.517 279.727 127.379 279.921 126.846Z" fill="#FF9D6C"/>
<path d="M292.823 131.493C293.017 130.961 292.372 130.237 291.382 129.876C290.392 129.514 289.433 129.653 289.238 130.185C289.044 130.718 289.689 131.442 290.679 131.803C291.669 132.164 292.628 132.026 292.823 131.493Z" fill="#FF9D6C"/>
<path d="M283.365 126.717C283.281 126.717 283.199 126.68 283.143 126.609C283.05 126.487 283.073 126.312 283.194 126.218C283.603 125.903 283.892 125.3 283.948 124.642C284.012 123.89 283.779 123.186 283.292 122.658C283.188 122.545 283.195 122.369 283.308 122.265C283.421 122.16 283.597 122.167 283.701 122.28C284.296 122.924 284.581 123.78 284.503 124.689C284.434 125.51 284.071 126.246 283.534 126.66C283.484 126.698 283.424 126.717 283.365 126.717V126.717Z" fill="#4F2B2B"/>
<path d="M284.659 130.732C283.222 130.732 281.916 130.297 281.233 129.693C281.117 129.591 281.107 129.415 281.209 129.299C281.311 129.183 281.487 129.173 281.602 129.275C282.562 130.125 285.586 130.849 287.943 129.2C288.068 129.113 288.242 129.142 288.33 129.269C288.419 129.395 288.387 129.568 288.261 129.657C287.162 130.426 285.864 130.732 284.659 130.732Z" fill="#4F2B2B"/>
<path d="M284.417 111.316C284.417 111.316 276.427 113.342 275.293 119.078L275.651 120.324C275.651 120.324 279.262 115.294 285.684 115.557C285.684 115.557 282.809 118.687 286.395 121.241C286.881 121.587 287.547 121.196 287.466 120.605C287.466 120.605 288.166 121.711 289.741 122.34C290.325 122.574 290.956 122.114 290.907 121.487L290.901 121.407C290.901 121.407 295.967 128.196 299.901 127.439C299.901 127.439 303.533 110.625 284.418 111.316L284.417 111.316Z" fill="#4F2B2B"/>
<path d="M255.803 118.496C256.635 120.054 257.431 120.851 258.989 121.682C257.431 122.514 256.634 123.311 255.803 124.869C254.972 123.311 254.175 122.514 252.616 121.682C254.174 120.851 254.971 120.055 255.803 118.496Z" fill="#DF8711"/>
<path d="M261.779 148.274L267.834 183.244H249.24L244.727 151.116L261.779 148.274Z" fill="#E95D9A"/>
<path d="M270.059 182.961C269.917 182.961 269.796 182.854 269.782 182.709L267.434 158.928C267.419 158.775 267.531 158.639 267.684 158.623C267.842 158.614 267.973 158.72 267.988 158.873L270.336 182.655C270.352 182.807 270.24 182.944 270.087 182.959C270.077 182.96 270.068 182.96 270.059 182.96L270.059 182.961Z" fill="#4F2B2B"/>
<path d="M308.491 182.96C308.362 182.96 308.246 182.871 308.219 182.74L304.388 165.014C304.356 164.864 304.451 164.715 304.601 164.683C304.75 164.65 304.9 164.746 304.932 164.896L308.763 182.622C308.795 182.772 308.7 182.921 308.55 182.953C308.53 182.958 308.51 182.96 308.491 182.96Z" fill="#4F2B2B"/>
<path d="M300.94 141.343L296.038 136.754L286.39 143.581L290.448 148.894L300.94 141.343Z" fill="#E95D9A"/>
<path d="M278.101 141.234L283.036 137.398L286.497 143.576L281.801 147.407L278.101 141.234Z" fill="#E95D9A"/>
<path d="M298.159 167.859C300.102 167.859 301.677 166.284 301.677 164.342C301.677 162.399 300.102 160.824 298.159 160.824C296.217 160.824 294.642 162.399 294.642 164.342C294.642 166.284 296.217 167.859 298.159 167.859Z" fill="#F8D2A0"/>
</g>
<path d="M317.384 106.662H403.245" stroke="#4F2B2B" stroke-width="2" stroke-linecap="round"/>
<path d="M317.384 116.53H403.245" stroke="#4F2B2B" stroke-width="2" stroke-linecap="round"/>
<path d="M317.384 126.401H403.245" stroke="#4F2B2B" stroke-width="2" stroke-linecap="round"/>
<path d="M317.384 136.269H403.245" stroke="#4F2B2B" stroke-width="2" stroke-linecap="round"/>
<path d="M317.384 146.139H403.245" stroke="#4F2B2B" stroke-width="2" stroke-linecap="round"/>
<path d="M317.384 156.008H403.245" stroke="#4F2B2B" stroke-width="2" stroke-linecap="round"/>
<path d="M317.384 165.878H403.245" stroke="#4F2B2B" stroke-width="2" stroke-linecap="round"/>
<path d="M317.384 175.746H403.245" stroke="#4F2B2B" stroke-width="2" stroke-linecap="round"/>
<path d="M149.38 191.52C149.38 191.52 164.19 178.919 189.298 189.025C222.536 202.4 213.993 252.504 213.993 252.504L127.898 260.945C127.898 260.945 110.472 227.167 127.958 204.005C139.721 188.424 149.38 191.52 149.38 191.52Z" fill="#4F2B2B"/>
<path d="M73.5859 459.423H227.065V355.194H73.5859V459.423Z" fill="#DF8711"/>
<path d="M239.089 310.086C225.355 302.741 218.79 298.925 203.22 298.63L99.928 296.633C73.1747 296.116 50.0197 315.142 45.3431 341.489L34.6406 408.015L91.3364 410.878L92.8545 387.836L226.917 380.177L247.817 319.249L241.953 312.376L239.089 310.086Z" fill="#DF8711"/>
<path d="M136.215 297.332L199.685 298.558C199.685 298.558 196.727 316.71 171.077 316.895C145.426 317.079 136.215 297.332 136.215 297.332Z" fill="#FFBE97"/>
<path d="M141.687 299.086H187.152L188.619 284.459L146.708 281.446L141.687 299.086Z" fill="#FFBE97"/>
<path d="M187.178 296.422L189.708 281.242L147.54 274.495C152.6 293.724 176.073 297.125 187.178 296.422Z" fill="#4F2B2B"/>
<path d="M134.185 239.746C128.172 262.181 143.384 287.363 165.708 290.456C189.59 293.764 210.194 283.37 213.675 260.406C216.996 238.514 211.069 217.22 189.3 211.391C167.531 205.556 140.205 217.312 134.191 239.753L134.185 239.746Z" fill="#FFBE97"/>
<path d="M170.242 262.549C170.291 260.944 167.912 259.568 164.928 259.476C161.943 259.384 159.483 260.61 159.434 262.215C159.384 263.82 161.763 265.196 164.748 265.288C167.732 265.38 170.192 264.154 170.242 262.549Z" fill="#FF9D6C"/>
<path d="M212.411 256.645C212.46 255.04 210.081 253.664 207.097 253.572C204.112 253.479 201.652 254.705 201.603 256.31C201.553 257.915 203.932 259.291 206.917 259.383C209.901 259.476 212.361 258.249 212.411 256.645Z" fill="#FF9D6C"/>
<path d="M174.369 240.408L174.476 240.182C175.073 240.463 175.322 241.22 175.102 241.856C174.878 242.506 174.211 242.872 173.589 242.579L173.588 242.579C172.643 242.132 171.308 241.886 169.789 241.832C168.274 241.778 166.596 241.915 164.975 242.22C163.354 242.526 161.801 242.997 160.533 243.607C159.258 244.22 158.303 244.957 157.838 245.777L157.837 245.778C157.671 246.071 157.411 246.27 157.119 246.342V246.376H156.869C156.642 246.376 156.415 246.299 156.22 246.149L156.22 246.149C155.699 245.744 155.573 244.953 155.902 244.371L155.902 244.371C156.605 243.135 157.854 242.132 159.373 241.355C160.894 240.576 162.707 240.013 164.565 239.664C166.424 239.316 168.337 239.18 170.064 239.263C171.788 239.346 173.343 239.646 174.476 240.182L174.369 240.408ZM174.369 240.408C174.831 240.625 175.052 241.237 174.866 241.774L156.373 245.951C155.959 245.63 155.846 244.978 156.12 244.494C158.796 239.782 170.004 238.344 174.369 240.408Z" fill="#4F2B2B" stroke="black" stroke-width="0.5"/>
<path d="M206.605 236.614L206.711 236.387C207.308 236.668 207.557 237.426 207.337 238.061C207.114 238.712 206.447 239.077 205.824 238.785L205.823 238.785C204.879 238.338 203.544 238.092 202.025 238.038C200.51 237.984 198.831 238.121 197.211 238.426C195.59 238.731 194.036 239.203 192.768 239.813C191.494 240.425 190.539 241.163 190.073 241.983L190.073 241.983C189.906 242.277 189.646 242.475 189.355 242.548V242.582H189.105C188.877 242.582 188.65 242.505 188.456 242.355L188.455 242.354C187.935 241.95 187.808 241.159 188.137 240.577L188.138 240.577C188.84 239.34 190.089 238.338 191.608 237.561C193.13 236.782 194.942 236.218 196.8 235.87C198.659 235.521 200.573 235.386 202.3 235.469C204.023 235.551 205.579 235.852 206.712 236.388L206.605 236.614ZM206.605 236.614C207.066 236.831 207.287 237.443 207.101 237.98L188.608 242.157C188.195 241.836 188.081 241.184 188.355 240.7C191.032 235.988 202.239 234.549 206.605 236.614Z" fill="#4F2B2B" stroke="black" stroke-width="0.5"/>
<path d="M179.455 274.8L179.455 274.8C179.238 274.592 178.972 274.47 178.711 274.482L178.694 274.439L178.462 274.533C178.268 274.611 178.119 274.768 178.029 274.973L178.029 274.974C177.91 275.248 177.91 275.571 177.985 275.867C178.06 276.164 178.217 276.459 178.446 276.679L178.446 276.679C180.39 278.548 183.602 278.94 186.581 278.489C188.079 278.261 189.538 277.819 190.778 277.228C192.015 276.639 193.053 275.893 193.69 275.048C193.869 274.813 193.919 274.5 193.888 274.204C193.856 273.904 193.738 273.592 193.541 273.333C193.345 273.074 193.09 272.897 192.819 272.849C192.537 272.799 192.258 272.895 192.07 273.142L192.07 273.142C191.557 273.822 190.687 274.436 189.605 274.932C188.527 275.425 187.257 275.791 185.966 275.986C184.674 276.18 183.37 276.202 182.223 276.012C181.074 275.823 180.104 275.425 179.455 274.8Z" fill="#4F2B2B" stroke="black" stroke-width="0.5"/>
<path d="M137.23 246.612C139.109 253.538 141.007 259.478 135.203 261.049C129.399 262.626 121.469 258.461 119.59 251.535C117.71 244.61 120.896 237.721 126.7 236.144C132.504 234.567 135.351 239.687 137.23 246.612Z" fill="#FFBE97"/>
<path d="M130.93 251.644L125.169 249.957C124.241 249.684 123.717 248.743 124.001 247.852C124.285 246.962 125.266 246.46 126.194 246.732L131.956 248.419C132.884 248.692 133.407 249.633 133.123 250.524C132.84 251.414 131.858 251.917 130.93 251.644Z" fill="#4F2B2B"/>
<path d="M174.018 248.74C174.307 251.08 173.543 253.198 172.299 253.468C171.06 253.748 169.816 252.073 169.526 249.733C169.237 247.394 170.001 245.276 171.245 245.005C172.484 244.726 173.728 246.4 174.018 248.74Z" fill="#562A2F"/>
<path d="M205.222 243.679C205.512 246.019 204.748 248.137 203.503 248.408C202.264 248.687 201.02 247.012 200.73 244.673C200.441 242.333 201.205 240.215 202.449 239.944C203.688 239.665 204.932 241.34 205.222 243.679Z" fill="#562A2F"/>
<path d="M191.994 243.279L188.427 249.225L181.575 232.133L191.994 243.279Z" fill="#FFBE97"/>
<path d="M189.001 267.321L189.245 267.374L189.254 267.335C189.562 267.333 189.867 267.205 190.088 266.954L190.088 266.953L194.849 261.511L194.849 261.511C195.164 261.148 195.214 260.623 194.965 260.204L194.965 260.204L187.696 247.967L187.696 247.967L187.695 247.965C187.375 247.435 186.691 247.259 186.159 247.574L186.159 247.574L186.157 247.575C185.627 247.895 185.451 248.579 185.766 249.111L185.766 249.111L192.62 260.649L188.397 265.485L188.395 265.487C187.993 265.957 188.042 266.657 188.503 267.066L188.505 267.068C188.651 267.194 188.819 267.281 189.001 267.321Z" fill="#562A2F" stroke="black" stroke-width="0.5"/>
<path d="M190.645 230.6C189.004 229.785 185.824 228.026 184.632 226.788C190.71 228.548 205.707 230.184 212.132 230.527C209.281 226.715 206.598 221.087 203.643 217.331C198.813 211.193 184.406 209.911 175.569 209.752C168.722 209.629 161.848 210.63 155.459 212.676C152.177 213.728 145.914 216.245 149.892 219.105C153.382 221.614 158.36 223.398 162.542 224.944C171.455 228.237 180.902 230.119 190.645 230.6Z" fill="#4F2B2B"/>
<path d="M224.807 356.251L224.807 356.251C224.784 355.636 225.256 355.112 225.875 355.086C226.512 355.04 227.021 355.548 227.045 356.157L227.045 356.157L226.795 356.167L227.045 356.157L224.807 356.251ZM224.807 356.251L224.808 356.251L225.793 380.225L224.807 356.251Z" fill="#4F2B2B" stroke="black" stroke-width="0.5"/>
<path d="M89.369 386.027L89.369 386.027C89.3454 385.413 89.8174 384.889 90.4364 384.862C91.073 384.817 91.5825 385.325 91.6062 385.934L91.6062 385.934L91.3564 385.944L91.6062 385.934L89.369 386.027ZM89.369 386.027L89.369 386.028L90.3549 410.002L89.369 386.027Z" fill="#4F2B2B" stroke="black" stroke-width="0.5"/>
<path d="M302.888 287.048L326.139 249.957L287.301 234.908L269.521 258.245L278.679 281.673L302.888 287.048Z" fill="#FFBE97"/>
<path d="M268.869 274.58L247.68 319.919L287.3 341.829L302.887 287.043L268.869 274.58Z" fill="#FFBE97"/>
<path d="M287.3 341.829L247.68 319.919L226.49 379.954C243.098 418.897 270.014 397.135 276.314 379.381L287.3 341.829Z" fill="#FFBE97"/>
<path d="M268.966 276.577L262.48 260.64C261.195 257.485 261.081 253.974 262.16 250.744L267.119 235.86C267.86 233.639 270.177 232.354 272.45 232.902C274.622 233.424 276.084 235.461 275.882 237.685L274.574 252.223L279.963 263.321C281.867 267.239 282.196 271.742 280.884 275.897L279.063 281.668L268.966 276.573V276.577Z" fill="#FFBE97"/>
<rect x="277.65" y="207.578" width="44.6694" height="75.4447" rx="6.79059" transform="rotate(4.5 277.65 207.578)" fill="#2B6577"/>
<rect x="279.972" y="210.536" width="39.1092" height="69.8986" rx="6.79059" transform="rotate(4.5 279.972 210.536)" fill="#D8F5FD"/>
<path d="M283.897 237.902L306.931 224.738" stroke="#F7FDFE" stroke-width="2" stroke-linecap="round"/>
<path d="M281.631 253.412L308.882 236.545" stroke="#F7FDFE" stroke-width="2" stroke-linecap="round"/>
<path d="M287.535 265.217L309.726 251.724" stroke="#F7FDFE" stroke-width="2" stroke-linecap="round"/>
<circle cx="293.728" cy="276.692" r="3.04841" fill="#4F2B2B"/>
<path d="M317.271 255.549L310.788 254.451L309.467 254.176C309.209 254.122 308.951 254.111 308.695 254.097L306.601 253.741C304.166 253.33 302.428 250.94 302.645 248.303C302.842 245.881 304.632 243.997 306.831 243.74C307.171 243.807 307.52 243.845 307.876 243.845C307.983 243.845 308.091 243.842 308.199 243.836L309.819 243.739L318.224 243.912C319.542 243.939 320.755 244.534 321.636 245.588C322.518 246.642 322.94 248 322.824 249.411L322.694 250.997C322.578 252.409 321.942 253.667 320.903 254.539C319.866 255.411 318.578 255.773 317.272 255.55L317.271 255.549Z" fill="#FFBE97"/>
<path d="M311.452 266.122L307.314 264.497C307.087 264.409 306.857 264.356 306.626 264.307C304.691 263.374 303.617 261.057 304.174 258.817C304.692 256.73 306.465 255.322 308.411 255.322C308.421 255.322 308.43 255.325 308.44 255.325L310.594 255.69L319.197 257.486C320.402 257.737 321.425 258.492 322.076 259.61C322.727 260.728 322.912 262.046 322.595 263.321L322.236 264.765C321.921 266.039 321.15 267.084 320.066 267.706C318.984 268.327 317.751 268.434 316.585 268.008L311.452 266.123V266.122Z" fill="#FFBE97"/>
<path d="M309.808 242.484L307.446 242.436C307.284 242.433 307.13 242.465 306.972 242.476C305.037 242.059 303.461 240.357 303.205 238.158C302.901 235.531 304.556 233.077 306.976 232.57L317.58 230.35C317.885 230.286 318.192 230.254 318.495 230.254C319.477 230.254 320.428 230.585 321.243 231.22C322.311 232.052 322.988 233.284 323.151 234.689L323.334 236.269C323.497 237.676 323.121 239.048 322.275 240.136C321.43 241.223 320.24 241.865 318.924 241.944L309.809 242.485L309.808 242.484Z" fill="#FFBE97"/>
<path d="M302.446 267.709C303.03 266.299 304.333 265.445 305.701 265.445C305.885 265.445 306.071 265.465 306.255 265.497C306.377 265.553 306.488 265.626 306.615 265.672L311.043 267.298L314.851 268.794C315.787 269.162 316.516 269.907 316.904 270.892C317.293 271.878 317.284 272.959 316.878 273.936L316.407 275.075C316.002 276.052 315.26 276.783 314.319 277.132C313.375 277.479 312.374 277.396 311.494 276.895L304.027 272.639C302.382 271.703 301.688 269.537 302.446 267.711V267.709Z" fill="#FFBE97"/>
<path d="M304.604 264.336C303.178 262.874 302.51 260.653 303.046 258.492C303.454 256.851 304.484 255.562 305.789 254.806C303.092 254.01 301.23 251.248 301.481 248.193C301.673 245.848 303.09 243.913 304.979 243.003C303.42 242.045 302.282 240.349 302.046 238.313C301.666 235.034 303.732 231.971 306.752 231.338L317.355 229.118C318.967 228.78 320.594 229.164 321.927 230.203C323.26 231.24 324.105 232.778 324.308 234.533L324.491 236.114C324.694 237.869 324.225 239.582 323.169 240.939C322.342 242.004 321.246 242.71 320.021 243.019C320.96 243.361 321.817 243.928 322.503 244.748C323.603 246.064 324.13 247.758 323.986 249.519L323.856 251.106C323.711 252.867 322.918 254.437 321.621 255.526C321.14 255.93 320.612 256.235 320.059 256.459C321.301 256.885 322.362 257.731 323.068 258.941C323.892 260.357 324.126 262.026 323.726 263.64L323.367 265.084C322.966 266.698 321.99 268.02 320.62 268.807C319.8 269.278 318.91 269.516 318.014 269.516C317.842 269.516 317.67 269.487 317.498 269.47C317.687 269.759 317.851 270.069 317.98 270.399C318.489 271.688 318.477 273.162 317.946 274.44L317.475 275.579C316.944 276.859 315.932 277.855 314.699 278.312C314.202 278.497 313.682 278.587 313.163 278.587C312.397 278.587 311.633 278.389 310.947 277.997L303.48 273.742C301.296 272.496 300.372 269.62 301.379 267.194C301.996 265.705 303.217 264.69 304.605 264.333L304.604 264.336ZM322.273 240.135C323.118 239.048 323.494 237.674 323.331 236.269L323.149 234.688C322.986 233.283 322.308 232.051 321.24 231.219C320.425 230.584 319.475 230.254 318.493 230.254C318.189 230.254 317.883 230.285 317.577 230.349L306.974 232.57C304.555 233.076 302.899 235.53 303.202 238.157C303.457 240.356 305.035 242.059 306.969 242.475C307.128 242.464 307.282 242.432 307.443 242.435L309.806 242.483L318.92 241.942C320.237 241.864 321.427 241.222 322.272 240.134L322.273 240.135ZM320.901 254.538C321.939 253.666 322.575 252.408 322.692 250.996L322.822 249.41C322.937 247.999 322.515 246.64 321.634 245.586C320.752 244.532 319.541 243.938 318.221 243.911L309.816 243.738L308.197 243.835C308.088 243.841 307.98 243.844 307.873 243.844C307.518 243.844 307.169 243.807 306.829 243.739C304.631 243.996 302.839 245.88 302.642 248.301C302.425 250.939 304.163 253.328 306.598 253.74L308.693 254.096C308.949 254.109 309.206 254.121 309.465 254.174L310.786 254.45L317.269 255.548C318.574 255.771 319.863 255.409 320.9 254.537L320.901 254.538ZM320.068 267.703C321.151 267.082 321.921 266.037 322.238 264.763L322.596 263.319C322.913 262.044 322.729 260.727 322.077 259.608C321.425 258.49 320.403 257.736 319.198 257.484L310.596 255.688L308.441 255.323C308.432 255.323 308.422 255.32 308.413 255.32C306.467 255.32 304.693 256.727 304.175 258.815C303.619 261.055 304.692 263.372 306.627 264.305C306.857 264.355 307.088 264.407 307.315 264.495L311.453 266.12L316.586 268.005C317.753 268.431 318.986 268.323 320.068 267.702V267.703ZM304.026 272.636L311.493 276.892C312.373 277.393 313.375 277.477 314.318 277.129C315.26 276.779 316.002 276.049 316.406 275.072L316.878 273.933C317.283 272.956 317.292 271.875 316.904 270.889C316.516 269.904 315.786 269.159 314.85 268.791L311.042 267.295L306.614 265.669C306.487 265.622 306.376 265.549 306.254 265.494C306.07 265.462 305.884 265.442 305.701 265.442C304.333 265.442 303.028 266.296 302.445 267.706C301.687 269.533 302.381 271.698 304.026 272.636V272.636Z" fill="#FFBE97"/>
<path d="M326.518 250.544C329.321 232.362 324.138 230.834 320.201 231.477L310.589 275.645C310.314 276.932 311.25 279.667 318.061 277.736C324.872 275.805 325.265 258.67 326.518 250.544Z" fill="#FFBE97"/>
<path d="M304.958 242.871L317.671 243.351" stroke="#4F2B2B" stroke-width="1.35812" stroke-linecap="round"/>
<path d="M306.014 254.884L316.139 256.725" stroke="#4F2B2B" stroke-width="1.35812" stroke-linecap="round"/>
<path d="M304.958 264.389L313.898 266.803" stroke="#4F2B2B" stroke-width="1.35812" stroke-linecap="round"/>
<path d="M91.6098 410.477L34.914 405.896C33.1959 411.432 35.5468 399.31 32.3398 426.341C28.331 460.129 60.4128 465.856 95.9192 454.975C131.426 444.094 165.486 434.531 171.786 430.522C178.085 426.513 190.684 415.059 195.266 404.178C199.847 393.297 218.173 392.725 225.618 380.698C231.574 371.077 222.373 372.108 217.028 373.826C215.692 374.208 214.279 374.399 219.319 372.108C225.618 369.245 229.054 362.372 225.618 358.364C222.869 355.157 213.783 359.7 209.583 362.372L211.874 360.654C212.828 358.173 212.332 353.324 202.711 353.782C193.09 354.24 179.612 360.463 174.076 363.518C175.031 360.463 175.909 353.896 171.786 352.064C167.662 350.231 162.05 363.517 159.759 370.389L142.006 403.033L91.6098 410.477Z" fill="#FFBE97"/>
<path d="M210.931 361.058L192.703 367.93" stroke="#4F2B2B" stroke-width="3" stroke-linecap="round"/>
<path d="M215.512 374.803L197.284 381.675" stroke="#4F2B2B" stroke-width="3" stroke-linecap="round"/>
<path d="M425.682 451.526H29.2026C25.0512 451.526 25 453.423 25 455.763C25 458.103 25.0512 460 29.2026 460H425.682C429.833 460 429.884 458.103 429.884 455.763C429.884 453.423 429.833 451.526 425.682 451.526Z" fill="#F5C07A"/>
<path d="M386.323 393.096C386.302 387.559 386.28 382.023 386.255 376.486C386.255 376.437 386.255 376.388 386.255 376.338C382.754 377.422 378.871 377.539 375.301 376.733C375.425 380.968 375.549 385.204 375.673 389.44C375.676 389.497 375.671 389.551 375.662 389.601C375.678 390.178 375.694 390.754 375.708 391.331C375.859 397.536 375.927 403.744 375.978 409.951C376.034 416.772 376.062 423.594 376.074 430.416C376.083 435.963 376.083 441.509 376.074 447.056C376.074 447.352 376.073 447.648 376.072 447.944C379.32 448.604 382.808 448.441 385.964 447.449C386.141 447.393 386.296 447.407 386.424 447.463C386.434 443.682 386.436 439.901 386.434 436.12C386.43 428.95 386.414 421.78 386.395 414.61C386.375 407.439 386.351 400.266 386.324 393.095L386.323 393.096Z" fill="#F5C07A"/>
<path d="M401.963 412.669C402.919 414.855 404.09 416.952 405.255 419.032C405.883 420.154 406.519 421.271 407.142 422.396C407.28 422.647 407.418 422.897 407.555 423.149C407.607 423.245 407.656 423.359 407.72 423.454C407.802 423.423 407.882 423.389 407.958 423.345C408.44 423.117 408.918 422.879 409.397 422.642C407.976 418.821 405.903 415.252 403.971 411.669C403.301 412.002 402.633 412.336 401.963 412.67V412.669Z" fill="white"/>
<path d="M397.026 403.422C397.644 403.012 398.201 402.612 398.729 402.094C398.623 401.511 398.518 400.927 398.415 400.344C396.974 392.253 395.582 384.144 394.492 375.998C391.669 377.085 388.942 378.405 386.102 379.451C386.124 384.645 386.145 389.839 386.164 395.032C386.178 398.906 386.189 402.78 386.201 406.653C387.804 406.609 389.396 406.424 390.958 406.042C393.112 405.514 395.177 404.651 397.026 403.422Z" fill="#FADBE9"/>
<path d="M419.572 442.388C417.808 439.223 416.066 436.044 414.336 432.861C412.16 428.856 410.005 424.841 407.882 420.808C405.857 416.961 403.854 413.1 401.928 409.203C400.71 406.738 399.492 404.254 398.447 401.706C394.978 404.602 390.465 405.993 385.99 406.219C386.865 407.751 387.661 409.343 388.502 410.887C390.606 414.743 392.709 418.598 394.813 422.454C397.237 426.896 399.661 431.339 402.085 435.781C404.098 439.469 406.11 443.157 408.123 446.844C408.909 448.285 409.695 449.727 410.482 451.167C413.141 451.555 415.907 450.126 418.087 448.771C419.34 447.991 420.557 447.117 421.675 446.144C421.522 445.881 421.381 445.607 421.234 445.349C420.674 444.367 420.122 443.379 419.571 442.389L419.572 442.388ZM403.495 423.362C402.725 423.738 401.963 424.154 401.176 424.49C400.47 424.791 399.814 424.636 399.394 423.977C398.639 422.793 398.016 421.494 397.327 420.27C395.861 417.664 394.383 415.049 393.23 412.286C393.198 412.21 393.19 412.13 393.198 412.05C393.191 411.834 393.294 411.62 393.554 411.49C393.569 411.482 393.584 411.475 393.599 411.467C393.6 411.467 393.601 411.466 393.602 411.465C394.659 410.938 395.715 410.412 396.772 409.885C397.102 409.72 397.549 409.786 397.737 410.139C399.901 414.196 402.286 418.213 403.822 422.565C403.919 422.841 403.759 423.234 403.498 423.362H403.495Z" fill="#3F97B1"/>
<path d="M418.747 428.009C418.616 427.512 418.374 426.954 418.321 426.439C418.273 426.342 418.228 426.243 418.181 426.145C417.62 424.958 417.06 423.769 416.499 422.581C414.162 417.626 411.83 412.668 409.503 407.708C406.572 401.46 403.648 395.21 400.742 388.95C399.042 385.286 396.064 379.674 394.39 375.997C394.24 375.031 394.533 376.964 394.39 375.997C395.396 382.503 397.352 395.421 398.534 401.898C398.432 401.65 398.631 402.148 398.534 401.898C397.115 399.057 399.692 404.72 398.534 401.898C396.495 398.042 400.484 405.799 398.534 401.898C399.919 406.2 418.874 442.633 421.586 446.188C419.908 443.183 423.232 449.211 421.586 446.188C421.286 445.658 421.883 446.719 421.586 446.188C421.434 443.651 421.245 438.67 420.719 436.202C420.133 433.455 419.465 430.724 418.748 428.009H418.747Z" fill="#3F97B1"/>
<path d="M326.446 450.904C326.411 450.827 326.396 450.942 326.448 450.921C326.448 450.921 326.448 450.919 326.448 450.918C326.448 450.918 326.446 450.918 326.446 450.917C326.408 450.893 326.432 450.896 326.446 450.904Z" fill="white"/>
<path d="M326.449 450.919C326.449 450.919 326.453 450.921 326.454 450.922C326.454 450.92 326.452 450.916 326.452 450.913C326.452 450.916 326.452 450.917 326.449 450.919Z" fill="white"/>
<path d="M331.827 387.556C331.859 394.015 331.827 400.474 331.776 406.933C331.752 409.926 331.723 412.919 331.685 415.912C333.961 416.094 336.251 415.988 338.528 416.171C338.531 414.796 338.535 413.422 338.539 412.047C338.557 404.949 338.576 397.852 338.595 390.755C338.606 386.546 338.617 382.336 338.628 378.127C336.322 378.204 334.015 378.281 331.709 378.359C331.783 381.424 331.812 384.491 331.827 387.557V387.556Z" fill="#8FC6D7"/>
<path d="M375.616 376.916C378.99 377.687 382.662 377.548 385.964 376.509C386.067 376.477 386.161 376.468 386.249 376.477C386.242 375.069 386.236 373.661 386.23 372.253C382.618 372.973 378.726 372.985 375.124 372.261C375.139 372.776 375.154 373.289 375.169 373.803C375.2 374.843 375.229 375.883 375.26 376.923C375.367 376.893 375.485 376.885 375.617 376.916H375.616Z" fill="#F29EC3"/>
<path d="M379.556 451.703C379.556 451.703 379.556 451.703 379.556 451.702C379.53 451.718 379.512 451.73 379.505 451.735C379.521 451.725 379.538 451.714 379.554 451.703H379.556Z" fill="white"/>
<path d="M359.295 435.482C359.327 438.924 359.36 442.366 359.392 445.81C359.412 448.011 359.432 450.213 359.453 452.415C360.449 452.751 361.464 453.027 362.498 453.226C366.317 453.963 370.406 453.756 374.127 452.611C374.645 452.451 375.182 452.269 375.653 452.052C375.826 451.972 375.991 451.883 376.157 451.792C376.162 451.789 376.165 451.785 376.17 451.783C376.172 451.754 376.174 451.725 376.174 451.697C376.184 448.625 376.191 445.554 376.194 442.482C376.197 440.102 376.19 437.721 376.19 435.34C370.676 436.809 364.838 436.856 359.296 435.483L359.295 435.482ZM371.949 449.554C369.45 450.434 366.698 450.502 364.155 449.767C363.284 449.514 363.656 448.154 364.529 448.407C366.851 449.078 369.297 448.996 371.574 448.194C371.935 448.067 372.346 448.339 372.441 448.686C372.547 449.071 372.308 449.427 371.949 449.553V449.554ZM371.949 445.375C369.45 446.256 366.698 446.324 364.155 445.588C363.284 445.337 363.656 443.976 364.529 444.229C366.851 444.899 369.297 444.817 371.574 444.016C371.935 443.889 372.346 444.161 372.441 444.508C372.547 444.893 372.308 445.249 371.949 445.374V445.375Z" fill="#854747"/>
<path d="M376.068 447.304C376.066 448.233 376.065 449.162 376.062 450.09C376.06 450.572 376.093 451.073 376.084 451.564C379.363 452.544 383.084 452.228 386.402 451.529C386.404 451.235 386.406 450.941 386.407 450.647C386.414 449.332 386.415 448.016 386.419 446.7C386.392 446.712 386.367 446.726 386.338 446.735C383.063 447.765 379.451 447.934 376.067 447.303L376.068 447.304Z" fill="#F29EC3"/>
<path d="M376.189 435.43C376.187 432.499 376.191 429.567 376.184 426.635C376.167 419.909 376.134 413.183 376.068 406.457C376.015 400.939 375.944 395.422 375.798 389.906C370.344 391.743 364.385 391.91 358.829 390.393C358.831 390.646 358.831 390.899 358.834 391.152C358.905 397.234 358.968 403.317 359.028 409.399C359.098 416.345 359.166 423.291 359.232 430.237C359.249 432.023 359.265 433.809 359.282 435.594C359.323 435.598 359.366 435.603 359.41 435.615C364.917 437.026 370.716 436.954 376.188 435.43H376.189Z" fill="#B06D6D"/>
<path d="M386.183 372.527C386.159 372.217 386.136 371.909 386.112 371.599C385.761 366.931 385.4 362.262 385.136 357.587H375.489C375.477 358.028 375.467 358.469 375.456 358.91C375.342 363.447 375.227 367.985 375.113 372.523C378.683 373.292 382.599 373.282 386.184 372.527H386.183Z" fill="#FBE4C6"/>
<path d="M344.408 379.969C344.408 375.859 344.411 371.749 344.407 367.639C342.625 367.833 340.838 367.962 339.049 368.045C334.635 368.25 330.192 368.247 325.775 368.03C325.789 368.626 325.803 369.222 325.816 369.817C325.968 376.905 326.037 383.996 326.078 391.086C326.12 398.492 326.13 405.899 326.147 413.307C326.164 420.677 326.187 428.048 326.26 435.419C326.295 438.922 326.341 442.424 326.406 445.927C326.437 447.604 326.504 449.282 326.512 450.959C326.544 450.978 326.575 450.998 326.608 451.017C326.909 451.187 327.095 451.248 327.427 451.362C329.745 452.16 332.265 452.474 334.701 452.621C337.907 452.815 341.151 452.629 344.276 451.865C344.253 451.253 344.31 450.615 344.311 450.018C344.314 448.371 344.318 446.722 344.322 445.075C344.332 439.761 344.343 434.446 344.352 429.131C344.365 422.178 344.376 415.224 344.385 408.271C344.395 400.919 344.404 393.566 344.408 386.213C344.408 384.281 344.407 382.347 344.408 380.415C344.36 380.275 344.362 380.119 344.408 379.97V379.969ZM339.013 447.428C336.386 447.806 333.749 447.756 331.141 447.261C330.765 447.19 330.554 446.738 330.649 446.394C330.755 446.007 331.142 445.831 331.516 445.902C333.855 446.346 336.279 446.409 338.638 446.07C339.016 446.015 339.394 446.157 339.505 446.562C339.596 446.896 339.39 447.374 339.013 447.428ZM340.026 382.289C340.008 389.386 339.989 396.483 339.971 403.581C339.959 408.033 339.948 412.486 339.936 416.937C339.936 417.286 339.611 417.684 339.231 417.642C336.487 417.34 333.718 417.562 330.973 417.259C330.597 417.217 330.262 416.966 330.268 416.554C330.283 415.421 330.295 414.288 330.308 413.154C330.369 407.528 330.411 401.901 330.425 396.273C330.441 390.075 330.449 383.873 330.287 377.676C330.278 377.362 330.443 377.159 330.662 377.063C330.754 377.011 330.863 376.976 330.992 376.971C333.773 376.879 336.554 376.785 339.334 376.692C339.715 376.679 340.04 377.026 340.039 377.397C340.035 379.027 340.031 380.657 340.026 382.289Z" fill="#2B6577"/>
<path d="M344.259 362.102C344.06 359.54 343.717 356.981 343.442 354.438C340.973 354.521 338.503 354.557 336.032 354.607C334.771 354.632 333.509 354.658 332.247 354.689C331.75 354.701 331.253 354.714 330.755 354.73C330.692 354.732 330.617 354.742 330.542 354.747C329.976 355.935 329.473 357.075 329.005 358.338C327.987 361.082 326.808 365.425 325.902 368.207C325.753 368.202 326.05 368.213 325.902 368.207C331.829 368.43 338.39 368.343 344.294 367.689C344.306 366.491 344.377 363.828 344.294 362.629C344.218 362.463 344.21 362.272 344.259 362.101V362.102Z" fill="#FBE4C6"/>
<path d="M360.014 363.097C360.014 363.097 360.011 363.095 360.009 363.094H360.007C360.037 363.111 360.052 363.121 360.014 363.097Z" fill="white"/>
<path d="M344.129 368.724C344.129 369.424 344.131 370.125 344.131 370.825C344.135 374.352 344.131 377.877 344.131 381.404C347.439 381.982 350.844 381.991 354.184 381.771C355.793 381.666 357.393 381.517 358.965 381.267C358.803 381.155 358.686 380.976 358.673 380.727C358.503 377.247 358.331 373.766 358.161 370.287C358.151 370.23 358.15 370.174 358.152 370.116C358.096 368.963 358.039 367.81 357.983 366.657C357.956 366.11 357.93 365.562 357.902 365.015C357.901 364.995 357.897 364.964 357.893 364.93C357.421 364.901 356.947 364.889 356.475 364.88C354.73 364.842 352.983 364.839 351.238 364.84C349.419 364.84 347.602 364.849 345.784 364.864C345.204 364.869 344.623 364.874 344.042 364.882C344.122 366.163 344.164 367.444 344.129 368.722V368.724Z" fill="#FADBE9"/>
<path d="M359.545 444.108C359.49 438.132 359.433 432.157 359.376 426.181C359.309 419.228 359.242 412.274 359.17 405.321C359.111 399.492 359.051 393.662 358.981 387.832C358.958 385.996 358.936 384.159 358.908 382.322C358.901 381.827 358.905 381.328 358.894 380.83C357.333 381.064 355.754 381.214 354.183 381.317C350.837 381.536 347.445 381.509 344.13 380.965C344.13 383.595 344.131 386.225 344.13 388.855C344.125 396.204 344.116 403.554 344.106 410.903C344.096 417.727 344.084 424.551 344.073 431.374C344.063 436.421 344.054 441.468 344.043 446.514C344.039 448.341 344.036 450.167 344.031 451.995C345.074 452.525 346.277 452.753 347.426 452.887C350.219 453.213 353.071 453.064 355.863 452.794C357.136 452.672 358.354 452.528 359.594 452.328C359.553 451.558 359.608 450.758 359.6 450C359.582 448.036 359.564 446.071 359.546 444.107L359.545 444.108ZM354.66 407.704C352.707 407.558 350.762 407.956 348.809 407.809C348.428 407.78 348.104 407.509 348.104 407.104C348.104 406.743 348.429 406.37 348.809 406.399C350.762 406.545 352.707 406.148 354.66 406.295C355.041 406.323 355.365 406.594 355.365 406.999C355.365 407.36 355.04 407.733 354.66 407.704ZM354.66 401.866C352.707 401.72 350.762 402.117 348.809 401.97C348.428 401.942 348.104 401.67 348.104 401.266C348.104 400.905 348.429 400.532 348.809 400.561C350.762 400.707 352.707 400.309 354.66 400.456C355.041 400.485 355.365 400.756 355.365 401.161C355.365 401.522 355.04 401.895 354.66 401.866ZM354.66 396.027C352.707 395.881 350.762 396.278 348.809 396.131C348.428 396.103 348.104 395.832 348.104 395.426C348.104 395.065 348.429 394.693 348.809 394.721C350.762 394.867 352.707 394.47 354.66 394.617C355.041 394.646 355.365 394.917 355.365 395.322C355.365 395.683 355.04 396.056 354.66 396.027ZM354.66 390.189C352.707 390.043 350.762 390.44 348.809 390.293C348.428 390.264 348.104 389.994 348.104 389.588C348.104 389.227 348.429 388.855 348.809 388.883C350.762 389.029 352.707 388.632 354.66 388.779C355.041 388.808 355.365 389.078 355.365 389.484C355.365 389.845 355.04 390.218 354.66 390.189Z" fill="#B4185C"/>
<path d="M359.13 390.599C364.602 392.109 370.425 391.885 375.773 390.008C375.755 389.37 375.735 388.734 375.716 388.096C375.554 382.589 375.393 377.082 375.231 371.575C374.305 371.624 373.379 371.656 372.454 371.688C367.643 371.854 362.83 371.977 358.018 372.095C358.179 375.397 358.341 378.699 358.503 382.001C358.644 381.888 358.515 382.243 358.503 382.001C358.732 382.104 358.668 382.854 358.691 383.158C358.696 383.234 358.697 383.311 358.7 383.386C358.803 385.78 358.804 388.183 358.816 390.582C358.911 390.565 359.016 390.569 359.129 390.6L359.13 390.599Z" fill="#FBE4C6"/>
<path d="M326.448 450.906C326.434 450.898 326.408 450.894 326.448 450.92C326.448 450.92 326.449 450.92 326.45 450.921C326.453 450.92 326.451 450.918 326.453 450.916C326.451 450.913 326.449 450.91 326.448 450.906Z" fill="#5A281C"/>
<path d="M371.574 448.193C369.298 448.996 366.85 449.077 364.53 448.406C363.657 448.154 363.284 449.514 364.155 449.766C366.699 450.502 369.45 450.434 371.949 449.553C372.308 449.426 372.548 449.072 372.441 448.686C372.345 448.338 371.935 448.067 371.574 448.195V448.193Z" fill="#5A281C"/>
<path d="M371.574 444.016C369.298 444.818 366.85 444.9 364.53 444.229C363.657 443.977 363.284 445.337 364.155 445.589C366.699 446.325 369.45 446.256 371.949 445.376C372.308 445.249 372.548 444.895 372.441 444.509C372.345 444.161 371.935 443.889 371.574 444.017V444.016Z" fill="#5A281C"/>
<path d="M339.335 376.692C336.554 376.786 333.773 376.878 330.993 376.971C330.864 376.975 330.755 377.01 330.663 377.062C330.444 377.159 330.279 377.362 330.288 377.676C330.45 383.873 330.442 390.074 330.426 396.273C330.412 401.9 330.37 407.528 330.309 413.154C330.297 414.287 330.285 415.421 330.269 416.554C330.263 416.966 330.598 417.217 330.973 417.259C333.717 417.561 336.487 417.338 339.232 417.642C339.612 417.683 339.936 417.285 339.937 416.937C339.948 412.485 339.96 408.032 339.972 403.581C339.99 396.483 340.009 389.386 340.027 382.288C340.032 380.658 340.036 379.028 340.04 377.397C340.041 377.025 339.716 376.679 339.335 376.692ZM338.595 390.753C338.577 397.851 338.558 404.949 338.539 412.045C338.536 413.42 338.531 414.795 338.528 416.169C336.252 415.986 333.961 416.094 331.685 415.911C331.723 412.918 331.753 409.924 331.776 406.931C331.829 400.472 331.858 394.014 331.827 387.555C331.813 384.488 331.782 381.422 331.709 378.356C334.016 378.278 336.322 378.202 338.628 378.124C338.617 382.333 338.606 386.543 338.595 390.752V390.753Z" fill="#8FC6D7"/>
<path d="M354.66 388.776C352.708 388.63 350.762 389.027 348.809 388.881C348.429 388.852 348.104 389.224 348.104 389.585C348.104 389.991 348.428 390.262 348.809 390.29C350.762 390.436 352.708 390.039 354.66 390.186C355.04 390.215 355.365 389.842 355.365 389.481C355.365 389.075 355.041 388.805 354.66 388.776Z" fill="#5A281C"/>
<path d="M354.66 394.616C352.708 394.47 350.762 394.868 348.809 394.721C348.429 394.692 348.104 395.065 348.104 395.425C348.104 395.831 348.428 396.102 348.809 396.13C350.762 396.276 352.708 395.879 354.66 396.026C355.04 396.055 355.365 395.682 355.365 395.321C355.365 394.916 355.041 394.645 354.66 394.616Z" fill="#5A281C"/>
<path d="M354.66 400.454C352.708 400.308 350.762 400.705 348.809 400.558C348.429 400.53 348.104 400.902 348.104 401.263C348.104 401.668 348.428 401.939 348.809 401.968C350.762 402.114 352.708 401.717 354.66 401.864C355.04 401.891 355.365 401.52 355.365 401.159C355.365 400.753 355.041 400.483 354.66 400.454Z" fill="#5A281C"/>
<path d="M354.66 406.294C352.708 406.148 350.762 406.545 348.809 406.398C348.429 406.37 348.104 406.742 348.104 407.103C348.104 407.509 348.428 407.779 348.809 407.808C350.762 407.954 352.708 407.557 354.66 407.704C355.04 407.733 355.365 407.36 355.365 406.999C355.365 406.593 355.041 406.323 354.66 406.294Z" fill="#5A281C"/>
<path d="M397.737 410.137C397.549 409.786 397.102 409.72 396.772 409.884C395.716 410.411 394.659 410.937 393.602 411.464C393.601 411.464 393.6 411.465 393.599 411.466C393.584 411.474 393.569 411.481 393.554 411.489C393.293 411.619 393.191 411.831 393.198 412.049C393.191 412.129 393.198 412.208 393.229 412.285C394.384 415.048 395.861 417.663 397.327 420.269C398.016 421.493 398.639 422.792 399.393 423.976C399.814 424.635 400.47 424.79 401.176 424.488C401.964 424.152 402.726 423.736 403.495 423.361C403.757 423.233 403.917 422.84 403.819 422.564C402.282 418.212 399.898 414.195 397.733 410.137H397.737ZM400.818 423.104C400.743 423.148 402.339 422.37 402.258 422.4C402.31 422.496 402.194 422.306 402.258 422.4C402.396 422.651 402.121 422.149 402.258 422.4C402.187 421.123 398.086 412.373 396.832 411.427C398.158 413.449 396.003 409.191 396.832 411.427C396.162 411.76 397.501 411.093 396.832 411.427C398.763 415.01 400.836 418.579 402.258 422.4C402.741 422.173 401.779 422.637 402.258 422.4L400.818 423.104Z" fill="#6A3939"/>
<path d="M338.638 446.069C336.279 446.409 333.855 446.346 331.515 445.902C331.142 445.831 330.755 446.007 330.649 446.394C330.554 446.738 330.765 447.19 331.14 447.261C333.749 447.756 336.386 447.806 339.012 447.428C339.389 447.374 339.597 446.895 339.504 446.561C339.392 446.157 339.016 446.014 338.638 446.069Z" fill="#5A281C"/>
<path d="M300.043 398.299C302.301 395.884 308.433 391.912 314.9 395.336C313.294 398.298 308.076 403.038 300.043 398.299Z" fill="#2B6577"/>
<path d="M300.186 398.247C301.112 398.247 305.483 398.276 307.205 397.218" stroke="#4F2B2B" stroke-linecap="round" stroke-linejoin="round"/>
<path d="M299.762 395.741C298.44 392.712 293.986 386.92 286.747 387.99C287.271 391.318 290.608 397.527 299.762 395.741Z" fill="#2B6577"/>
<path d="M299.645 395.645C298.772 395.336 294.642 393.904 293.372 392.332" stroke="#4F2B2B" stroke-linecap="round" stroke-linejoin="round"/>
<path d="M301.396 388.092C301.547 390.401 301.005 396.344 297.632 401.644C293.416 408.27 288.597 409.475 288.748 425.135" stroke="#4F2B2B" stroke-width="3.80899" stroke-linecap="round"/>
<path d="M306.989 366.136C305.664 364.45 304.429 365.434 303.977 366.136C294.189 376.677 297.803 380.743 298.857 383.152C299.911 385.561 307.591 389.627 311.807 383.152C316.024 376.677 308.645 368.245 306.989 366.136Z" fill="#B4185C"/>
<path d="M299.158 365.835C297.832 364.149 296.598 365.132 296.146 365.835C286.358 376.376 289.972 380.442 291.026 382.851C292.08 385.26 299.76 389.326 303.976 382.851C308.193 376.376 300.814 367.943 299.158 365.835Z" fill="#B4185C"/>
<path d="M314.473 371.049C314.582 368.907 313.005 368.837 312.203 369.07C297.898 370.582 297.95 376.021 297.161 378.53C296.372 381.038 299.488 389.15 306.921 387.041C314.355 384.931 314.336 373.726 314.473 371.049Z" fill="#E43A83"/>
<path d="M288.387 371.049C288.277 368.907 289.854 368.837 290.657 369.07C304.961 370.582 304.909 376.021 305.698 378.53C306.487 381.038 303.371 389.15 295.938 387.041C288.505 384.931 288.524 373.726 288.387 371.049Z" fill="#E43A83"/>
<path d="M303.204 368.066C301.879 366.379 300.645 367.363 300.193 368.066C290.405 378.607 294.019 382.672 295.073 385.081C296.127 387.491 303.807 391.556 308.023 385.081C312.239 378.606 304.861 370.174 303.204 368.066Z" fill="#E95D9A"/>
<path d="M300.09 407.485H285.102C283.248 407.485 281.838 409.15 282.143 410.979L283.012 416.191C283.221 417.446 283.189 418.728 282.918 419.971L276.059 451.367H308.871L302.052 420.153C301.755 418.793 301.745 417.385 302.023 416.021L303.029 411.084C303.408 409.225 301.987 407.485 300.09 407.485Z" fill="#9F5656"/>
<path d="M285.942 411.834H299.384" stroke="#4F2B2B" stroke-width="4" stroke-linecap="round"/>
</g>
<defs>
<clipPath id="clip0_761_6789">
<rect width="460" height="460" fill="white"/>
</clipPath>
</defs>
</svg>
