<svg width="460" height="460" viewBox="0 0 460 460" fill="none" xmlns="http://www.w3.org/2000/svg">
<g clip-path="url(#clip0_760_16206)">
<rect width="460" height="460" fill="white"/>
<path d="M436.329 20.0771C435.526 21.3314 435.644 22.9089 436.506 24.0247L378.193 78.1997C378.058 78.0783 377.912 77.9644 377.756 77.8623C376.154 76.8407 374.031 77.3087 373.007 78.9076C371.984 80.5064 372.453 82.6327 374.052 83.6562C374.308 83.8194 374.577 83.9416 374.854 84.0308L365.299 127.203C364.022 127.044 362.711 127.604 361.973 128.76C360.95 130.359 361.42 132.485 363.019 133.508C363.727 133.959 364.537 134.119 365.31 134.021L375.936 181.412C375.203 181.651 374.545 182.133 374.095 182.832C373.612 183.591 373.466 184.466 373.611 185.286L262.967 215.808C262.716 215.139 262.254 214.541 261.606 214.125C260.007 213.101 257.881 213.571 256.858 215.17C255.834 216.769 256.304 218.895 257.903 219.919C258.369 220.215 258.879 220.382 259.393 220.436L257.634 359.184C256.08 358.406 254.157 358.912 253.2 360.408C252.176 362.007 252.646 364.133 254.245 365.157C254.392 365.25 254.541 365.326 254.696 365.394L238.292 413.703C236.906 413.372 235.405 413.925 234.596 415.192C234.188 415.829 234.021 416.551 234.065 417.253L170.29 427.095L170.555 426.267L169.675 427.193L169.291 427.253L169.426 427.456L94.0317 506.706C93.9426 506.637 93.8509 506.57 93.7541 506.507C92.1553 505.484 90.029 505.954 89.0055 507.552C87.982 509.151 88.4519 511.277 90.0507 512.301C91.6496 513.324 93.7758 512.855 94.7993 511.256C95.1797 510.662 95.3518 509.991 95.3377 509.335L144.19 503.802C144.262 503.859 144.338 503.914 144.418 503.966C144.816 504.222 145.25 504.381 145.69 504.458L139.239 587.638C138.123 587.657 137.039 588.212 136.393 589.223C135.37 590.822 135.839 592.948 137.438 593.972C139.037 594.995 141.163 594.525 142.187 592.926C142.591 592.295 142.76 591.577 142.718 590.881L199.931 582.295C200.134 583.12 200.64 583.875 201.415 584.37C202.455 585.035 203.714 585.066 204.749 584.573L225.882 619.941C225.545 620.185 225.247 620.492 225.011 620.864C223.987 622.463 224.457 624.589 226.056 625.613C227.655 626.636 229.781 626.166 230.805 624.567C231.424 623.595 231.493 622.431 231.096 621.437L271.746 600.604C272.006 601.016 272.355 601.378 272.795 601.659C274.231 602.577 276.087 602.291 277.194 601.067L313.369 630.684C312.376 632.281 312.847 634.383 314.436 635.398C316.035 636.421 318.161 635.952 319.185 634.353C319.363 634.074 319.494 633.779 319.583 633.475L354.142 639.319C354.052 640.539 354.616 641.769 355.72 642.473C356.006 642.657 356.31 642.789 356.621 642.877L346.68 695.227C345.438 695.11 344.174 695.671 343.458 696.795C342.434 698.394 342.904 700.521 344.503 701.544C346.102 702.568 348.228 702.098 349.251 700.499C349.327 700.381 349.389 700.262 349.449 700.139L423.094 727.582C422.712 728.994 423.265 730.549 424.561 731.377C426.16 732.401 428.286 731.931 429.31 730.332C430.333 728.733 429.863 726.607 428.265 725.583C427.809 725.291 427.308 725.125 426.803 725.068L429.294 610.065C430.271 609.94 431.185 609.401 431.756 608.508C432.78 606.909 432.31 604.783 430.711 603.759C429.112 602.736 426.986 603.206 425.962 604.804C425.862 604.964 425.779 605.13 425.705 605.298L386.597 594.927C386.855 593.587 386.297 592.16 385.075 591.38C384.679 591.127 384.248 590.965 383.813 590.889L388.454 495.332C389.534 495.285 390.574 494.73 391.202 493.752C392.225 492.153 391.755 490.027 390.156 489.003C388.558 487.98 386.431 488.45 385.408 490.049C385.172 490.416 385.021 490.812 384.939 491.213L340.949 486.422C340.968 485.271 340.409 484.135 339.365 483.47L339.643 483.62L393.198 384.672C394.717 385.322 396.524 384.801 397.442 383.365C397.916 382.625 398.065 381.771 397.936 380.967L443.492 369.229C443.739 369.921 444.205 370.54 444.874 370.964C446.475 371.986 448.599 371.518 449.622 369.919C450.646 368.32 450.176 366.194 448.577 365.17C447.954 364.771 447.249 364.601 446.562 364.637L436.646 294.282C437.486 294.083 438.251 293.575 438.752 292.791C439.776 291.192 439.306 289.066 437.707 288.043C437.041 287.617 436.285 287.451 435.554 287.52L427.75 244.72C428.536 244.502 429.247 244.005 429.721 243.265C430.744 241.666 430.274 239.539 428.675 238.516C428.506 238.407 428.329 238.32 428.153 238.245L450.6 161.709C451.924 161.939 453.316 161.375 454.086 160.173C454.663 159.266 454.765 158.192 454.452 157.243L504.225 134.458C504.493 134.946 504.884 135.376 505.385 135.698C506.984 136.722 509.11 136.252 510.134 134.653C511.156 133.051 510.688 130.928 509.089 129.904C509.076 129.898 509.064 129.891 509.054 129.883L524.216 90.6048L532.23 69.8428C533.568 70.091 534.983 69.5335 535.762 68.3163C536.786 66.7174 536.316 64.5912 534.717 63.5677C533.473 62.773 531.915 62.8808 530.801 63.7177L493.999 31.3311C494.026 31.2922 494.057 31.2539 494.084 31.2105C495.108 29.6117 494.638 27.4854 493.039 26.4619C491.44 25.4384 489.314 25.9083 488.29 27.5071C488.048 27.8869 487.89 28.2959 487.813 28.7131L442.658 22.1088C442.72 20.9143 442.159 19.7212 441.077 19.0319C439.479 18.0084 437.352 18.4782 436.329 20.0771ZM529.429 66.5156C529.447 67.6319 530.003 68.7151 531.014 69.3615C531.21 69.4857 531.412 69.586 531.617 69.6684L522.531 93.21L508.485 129.597C508.173 129.475 507.85 129.404 507.525 129.377L497.512 65.6437L529.426 66.5174L529.429 66.5156ZM432.793 292.499L405.325 309.851L378.563 272.567C378.805 272.356 379.026 272.109 379.208 271.824C379.295 271.69 379.365 271.549 379.43 271.407L432.52 290.104C432.317 290.915 432.418 291.767 432.793 292.499ZM444.473 365.477C444.23 365.688 444.009 365.935 443.828 366.22C443.722 366.387 443.636 366.555 443.563 366.73L361.677 340.657C361.849 339.877 361.741 339.065 361.384 338.363L405.162 310.707L444.475 365.475L444.473 365.477ZM199.547 575.681L238.828 565.431L206.27 579.804C206.003 579.323 205.613 578.9 205.116 578.578C203.996 577.863 202.621 577.881 201.545 578.501L199.547 575.681ZM141.139 588.18C140.739 587.925 140.307 587.764 139.867 587.687L146.323 504.508C146.908 504.499 147.483 504.34 147.991 504.045L198.495 575.296L142.513 589.904C142.265 589.217 141.799 588.602 141.137 588.177L141.139 588.18ZM261.743 219.832C262.061 219.605 262.342 219.322 262.577 218.987L312.005 246.931C311.315 248.46 311.832 250.305 313.288 251.236L297.551 281.79L261.743 219.832ZM488.364 31.3294C488.407 31.3884 488.452 31.4501 488.5 31.5054L449.27 61.6043C449.074 61.3937 448.854 61.2044 448.602 61.0419C447.94 60.6166 447.187 60.4541 446.459 60.516L444.693 50.6613L488.364 31.3294ZM393.919 119.359L383.691 130.18C383.607 130.112 383.517 130.047 383.422 129.987C382.83 129.609 382.166 129.436 381.515 129.446L380.319 118.444L443.17 67.264L393.919 119.359ZM384.152 130.614L419.922 92.7776L444.63 66.6431C444.714 66.711 444.804 66.7752 444.899 66.8357C445.427 67.1738 446.011 67.3459 446.598 67.3706L449.696 132.37L384.994 132.556C384.925 131.845 384.637 131.163 384.156 130.615L384.152 130.614ZM445.834 60.6285C445.043 60.8463 444.328 61.342 443.854 62.0871C443.392 62.807 443.236 63.6343 443.348 64.4201L379.182 79.6584L444.097 50.9258L445.836 60.631L445.834 60.6285ZM378.798 82.6128C379.26 81.8929 379.416 81.0656 379.304 80.2798L443.493 65.0362C443.591 65.3221 443.725 65.5977 443.894 65.8517L380.237 117.687L376.586 84.1257C377.467 83.9448 378.276 83.4277 378.796 82.6103L378.798 82.6128ZM375.957 84.1987L379.652 118.167L367.323 128.207C367.145 128.027 366.944 127.859 366.724 127.717C366.468 127.554 366.199 127.432 365.922 127.343L375.477 84.1704C375.638 84.1913 375.799 84.2033 375.961 84.1994L375.957 84.1987ZM368.303 130.76C368.332 130.033 368.135 129.309 367.725 128.701L379.733 118.921L380.886 129.515C380.005 129.696 379.196 130.213 378.676 131.03C378.459 131.369 378.312 131.734 378.226 132.107L368.303 130.76ZM382.601 136.162L399.449 176.388L380.111 183.244C379.845 182.668 379.419 182.157 378.844 181.787C378.456 181.539 378.036 181.381 377.61 181.303L381.585 136.32C381.928 136.317 382.271 136.265 382.601 136.162ZM424.481 238.904C424.275 239.096 424.086 239.316 423.926 239.566C423.615 240.055 423.441 240.589 423.397 241.127L376.835 244.093L377.283 188.111C377.908 188.057 378.508 187.837 379.022 187.464L424.483 238.906L424.481 238.904ZM334.362 487.744L301.574 503.983C301.308 503.525 300.934 503.118 300.454 502.815C300.221 502.666 299.978 502.553 299.726 502.465L301.442 489.336L334.165 487.15C334.212 487.355 334.278 487.554 334.361 487.749L334.362 487.744ZM358.989 636.453C357.986 635.997 356.847 636.06 355.917 636.567L343.113 617.627L380.496 596.363C380.733 596.673 381.026 596.951 381.372 597.174L358.987 636.451L358.989 636.453ZM380.158 595.827L342.755 617.102L302.924 558.176C303.196 557.95 303.441 557.682 303.641 557.369C303.662 557.333 303.682 557.296 303.703 557.26L379.976 593.163C379.672 594.051 379.749 595.011 380.156 595.825L380.158 595.827ZM318.036 250.195C318.123 250.061 318.193 249.924 318.258 249.783L372.981 269.134C372.74 270.082 372.919 271.089 373.461 271.896L340.206 299.062L316.922 251.28C317.357 251.014 317.741 250.653 318.036 250.195ZM373.865 272.387C374.043 272.567 374.24 272.73 374.463 272.874C374.691 273.022 374.933 273.133 375.181 273.22L359.364 336.657C359.063 336.562 358.758 336.509 358.453 336.499L340.496 299.651L373.867 272.389L373.865 272.387ZM357.765 336.54C357.328 336.614 356.906 336.768 356.526 337L324.207 320.493L321.077 318.896C321.497 317.849 321.369 316.679 320.775 315.753L339.987 300.057L357.761 336.535L357.765 336.54ZM320.784 319.469C320.784 319.469 320.787 319.468 320.789 319.466L323.907 321.057L355.969 337.433C355.769 337.621 355.585 337.837 355.428 338.081C355.171 338.483 355.009 338.919 354.932 339.359L325.894 345.996L319.129 320.825C319.787 320.57 320.377 320.114 320.786 319.472L320.784 319.469ZM316.35 251.557L339.702 299.475L320.383 315.257C320.195 315.057 319.98 314.875 319.739 314.721C319.235 314.4 318.681 314.226 318.124 314.188L315.593 251.751C315.85 251.717 316.104 251.65 316.35 251.557ZM259.06 360.525L315.345 319.926C315.544 320.146 315.776 320.346 316.035 320.515C316.803 321.004 317.689 321.149 318.518 320.994L325.273 346.134L259.364 361.198C259.288 360.963 259.185 360.74 259.057 360.527L259.06 360.525ZM325.439 346.746L333.301 375.997C332.696 376.26 332.163 376.698 331.782 377.297C331.634 377.53 331.518 377.775 331.433 378.025L287.762 368.702L259.513 362.671C259.547 362.384 259.547 362.097 259.507 361.816L325.439 346.746ZM149.51 499.921L178.279 486.936L196.062 478.912C196.33 479.384 196.71 479.798 197.201 480.112C198.162 480.728 199.312 480.799 200.3 480.415L207.918 495.629L149.649 500.42C149.615 500.249 149.569 500.083 149.513 499.919L149.51 499.921ZM301.852 461.666L255.032 490.249C254.79 489.927 254.491 489.634 254.13 489.406C253.509 489.01 252.808 488.84 252.122 488.872L248.286 469.608L301.612 461.017C301.67 461.242 301.751 461.461 301.852 461.67L301.852 461.666ZM251.492 488.957C250.652 489.155 249.883 489.663 249.381 490.451C249.254 490.65 249.152 490.854 249.07 491.066L202.432 477.846C202.484 477.561 202.498 477.273 202.479 476.988L247.661 469.709L251.494 488.959L251.492 488.957ZM200.868 480.132C201.289 479.869 201.663 479.515 201.95 479.067C202.074 478.871 202.179 478.665 202.26 478.457L218.916 483.186L248.893 491.697C248.858 491.887 248.844 492.077 248.841 492.268L208.597 495.576L200.863 480.131L200.868 480.132ZM248.896 492.899C249.058 493.813 249.583 494.66 250.426 495.2C250.769 495.418 251.134 495.564 251.507 495.651L242.718 560.698C242.241 560.68 241.77 560.76 241.326 560.932L208.909 496.189L248.898 492.902L248.896 492.899ZM244.424 561.232C244.081 561.014 243.716 560.868 243.343 560.782L252.132 495.734C252.825 495.764 253.515 495.58 254.106 495.21L278.154 526.577L244.711 561.439C244.619 561.365 244.522 561.298 244.421 561.234L244.424 561.232ZM254.61 494.824C254.821 494.628 255.012 494.406 255.175 494.155C255.226 494.079 255.266 493.999 255.307 493.921L295.266 504.917C295.012 505.988 295.286 507.127 296.008 507.964L278.598 526.113L254.61 494.824ZM295.708 503.863C295.614 504.009 295.537 504.163 295.468 504.315L255.553 493.331C255.65 493.021 255.7 492.706 255.709 492.39L300.797 489.377L299.107 502.311C297.811 502.119 296.458 502.682 295.708 503.858L295.708 503.863ZM255.666 491.758C255.623 491.483 255.548 491.212 255.439 490.954L302.19 462.217C302.43 462.537 302.728 462.822 303.087 463.052C303.432 463.272 303.801 463.42 304.181 463.505L300.885 488.736L255.668 491.756L255.666 491.758ZM332.825 382.043C332.869 382.07 332.913 382.093 332.959 382.118L316.889 426.34L305.809 456.826C305.102 456.641 304.363 456.692 303.695 456.95L276.347 402.139L331.508 380.477C331.768 381.1 332.212 381.652 332.825 382.043ZM301.88 458.578C301.583 459.151 301.466 459.773 301.508 460.382L248.158 468.978L238.474 420.346C239.141 420.147 239.753 419.746 240.208 419.164L301.88 458.578ZM237.852 420.472L247.531 469.081L202.374 476.358C202.19 475.64 201.779 474.982 201.16 474.502L235.921 420.11C236.532 420.427 237.204 420.543 237.852 420.472ZM196.152 475.363C195.565 476.284 195.471 477.375 195.799 478.334L182.834 484.183L149.243 499.342C149.171 499.222 149.092 499.103 149.006 498.989L191.14 460.182L200.324 474.022C198.82 473.42 197.057 473.948 196.152 475.363ZM149.346 502.622C149.598 502.121 149.715 501.585 149.713 501.053L208.225 496.242L240.757 561.213C240.43 561.415 240.134 561.673 239.883 561.985L149.346 502.622ZM245.167 561.877L278.544 527.082L298.412 552.996C298.201 553.192 298.009 553.414 297.847 553.665C297.442 554.297 297.275 555.011 297.315 555.703L245.908 563.312C245.779 562.79 245.53 562.296 245.167 561.877ZM298.916 552.61L278.99 526.62L296.465 508.404C296.558 508.478 296.654 508.546 296.755 508.609C297.277 508.944 297.857 509.115 298.439 509.144L300.285 552.113C299.803 552.178 299.337 552.347 298.921 552.611L298.916 552.61ZM334.081 486.516L301.528 488.692L304.809 463.586C305.76 463.621 306.701 463.263 307.389 462.563L334.512 484.701C334.194 485.273 334.054 485.9 334.079 486.513L334.081 486.516ZM334.872 484.176L307.787 462.07C307.802 462.047 307.819 462.027 307.834 462.004C308.857 460.405 308.387 458.279 306.789 457.256C306.665 457.177 306.535 457.106 306.404 457.045L331.187 388.854L333.537 382.385C333.758 382.463 333.986 382.517 334.213 382.549L336.94 482.983C336.148 483.119 335.407 483.524 334.868 484.175L334.872 484.176ZM333.905 375.797L326.061 346.604L354.89 340.013C354.919 341.063 355.429 342.078 356.339 342.726L335.936 375.946C335.277 375.687 334.572 375.646 333.91 375.798L333.905 375.797ZM373.418 268.121C373.331 268.255 373.262 268.392 373.196 268.534L318.474 249.183C318.535 248.938 318.57 248.689 318.575 248.442L376.198 244.772L376.025 266.553C374.995 266.642 374.018 267.187 373.417 268.126L373.418 268.121ZM375.147 187.584C375.617 187.885 376.134 188.051 376.655 188.104L376.209 244.132L318.537 247.807C318.44 247.187 318.175 246.595 317.757 246.106L374.841 187.363C374.938 187.441 375.039 187.517 375.147 187.584ZM313.858 251.528C314.217 251.671 314.59 251.753 314.964 251.772L317.495 314.197C317.136 314.238 316.786 314.339 316.453 314.491L297.932 282.444L313.856 251.526L313.858 251.528ZM315.905 314.811C315.552 315.06 315.242 315.379 314.993 315.764C314.259 316.913 314.295 318.33 314.964 319.418L258.689 360.01C258.547 359.846 258.389 359.694 258.211 359.557L297.582 283.118L315.898 314.812L315.905 314.811ZM258.999 364.119C259.168 363.855 259.292 363.577 259.38 363.293L331.28 378.642C331.219 379.055 331.233 379.473 331.319 379.873L276.065 401.571L257.912 365.188C258.338 364.926 258.71 364.569 258.999 364.119ZM275.756 402.372L303.127 457.232C302.789 457.442 302.481 457.71 302.224 458.041L240.552 418.628C240.968 417.824 241.034 416.921 240.796 416.097L275.754 402.37L275.756 402.372ZM235.389 419.767L200.899 473.734L191.618 459.744L235.199 419.602C235.26 419.66 235.323 419.713 235.389 419.767ZM148.577 498.524C148.438 498.397 148.291 498.28 148.128 498.175C147.965 498.07 147.794 497.986 147.622 497.911L169.937 428.223L190.788 459.644L148.58 498.522L148.577 498.524ZM148.517 503.683C148.659 503.56 148.794 503.423 148.918 503.274L149.147 503.249L239.539 562.517C239.174 563.202 239.067 563.963 239.185 564.685L199.159 575.131L148.516 503.688L148.517 503.683ZM226.43 619.621L205.297 584.254C205.633 584.009 205.932 583.702 206.168 583.33C206.321 583.093 206.434 582.843 206.522 582.587L235.861 589.647L228.436 619.321C227.751 619.214 227.052 619.322 226.433 619.619L226.43 619.621ZM206.67 581.969C206.748 581.434 206.698 580.89 206.527 580.386L239.567 565.8C239.834 566.281 240.224 566.704 240.72 567.026C240.949 567.174 241.191 567.285 241.434 567.371L236.015 589.032L206.67 581.969ZM242.048 567.525C242.975 567.667 243.925 567.424 244.671 566.847L272.186 596.366C272.026 596.529 271.878 596.715 271.749 596.914C271.616 597.121 271.511 597.338 271.429 597.559L236.627 589.184L242.045 567.527L242.048 567.525ZM272.671 595.954L248.863 570.415L275.916 595.57C274.83 595.139 273.607 595.298 272.671 595.954ZM245.291 566.228C245.352 566.149 245.41 566.067 245.466 565.983C245.871 565.351 246.039 564.637 245.998 563.945L297.406 556.336C297.608 557.165 298.116 557.923 298.891 558.418C299.574 558.856 300.355 559.018 301.104 558.937L315.187 629.25C314.714 629.409 314.272 629.675 313.9 630.032L245.287 566.227L245.291 566.228ZM301.726 558.811C301.958 558.74 302.183 558.651 302.4 558.533L342.203 617.417L319.114 630.551C318.861 630.186 318.537 629.865 318.136 629.61C317.416 629.149 316.591 628.995 315.808 629.105L301.728 558.813L301.726 558.811ZM319.422 631.105L342.556 617.945L355.387 636.928C355.115 637.153 354.87 637.421 354.671 637.735C354.474 638.042 354.334 638.368 354.244 638.704L319.701 632.86C319.762 632.258 319.664 631.654 319.419 631.106L319.422 631.105ZM360.467 641.436C361.464 639.877 361.042 637.822 359.538 636.772L381.832 597.656L347.437 694.654L357.243 643.01C358.486 643.127 359.75 642.566 360.466 641.441L360.467 641.436ZM348.202 695.761C348.07 695.676 347.932 695.604 347.792 695.541L382.506 597.645C383.012 597.752 383.531 597.743 384.025 597.624L397.888 640.765L348.396 695.903C348.33 695.856 348.268 695.808 348.2 695.763L348.202 695.761ZM380.326 592.43C380.293 592.481 380.266 592.536 380.237 592.588L303.975 556.69C304.333 555.713 304.214 554.637 303.698 553.765L327.529 536.451L380.628 592.03C380.519 592.156 380.417 592.285 380.326 592.43ZM303.325 553.251C303.117 553.014 302.876 552.801 302.593 552.622C302.071 552.287 301.492 552.116 300.91 552.087L299.063 509.118C299.667 509.036 300.246 508.792 300.732 508.407L327.082 535.987L303.32 553.251L303.325 553.251ZM301.195 507.965C301.304 507.839 301.409 507.708 301.5 507.563C301.907 506.926 302.074 506.205 302.032 505.505L384.971 492.736C385.052 493.057 385.178 493.366 385.35 493.657L327.608 535.609L301.198 507.963L301.195 507.965ZM384.872 492.109L301.937 504.876C301.91 504.77 301.879 504.663 301.839 504.559L334.667 488.299C334.921 488.676 335.255 489.006 335.659 489.265C337.26 490.287 339.384 489.819 340.408 488.22C340.643 487.853 340.794 487.457 340.876 487.056L384.864 491.848C384.861 491.937 384.866 492.024 384.87 492.111L384.872 492.109ZM337.573 482.936L334.845 382.576C335.917 382.523 336.95 381.969 337.572 380.995C337.85 380.557 338.017 380.079 338.08 379.594L391.113 381.695C391.167 382.742 391.701 383.747 392.636 384.37L339.085 483.312C338.602 483.063 338.085 482.94 337.571 482.933L337.573 482.936ZM391.648 379.666C391.369 380.104 391.203 380.582 391.138 381.065L339.272 379.01L387.764 374.218L392.053 379.144C391.903 379.3 391.764 379.476 391.643 379.666L391.648 379.666ZM338.048 378.491C337.874 377.598 337.354 376.775 336.527 376.246C336.519 376.24 336.508 376.236 336.498 376.228L356.882 343.042C358.024 343.57 359.34 343.422 360.33 342.711L387.257 373.629L338.051 378.489L338.048 378.491ZM360.809 342.296C360.959 342.14 361.098 341.965 361.219 341.775C361.322 341.609 361.41 341.439 361.484 341.264L443.369 367.338C443.316 367.588 443.287 367.84 443.288 368.095L388.03 373.554L360.809 342.296ZM361.044 337.83C360.808 337.522 360.52 337.249 360.173 337.026C360.101 336.98 360.026 336.941 359.953 336.9L375.791 273.369C376.572 273.488 377.369 273.333 378.047 272.938L404.789 310.193L361.044 337.83ZM379.133 268.006C378.883 267.646 378.557 267.327 378.162 267.076C377.692 266.774 377.175 266.608 376.654 266.555L376.828 244.73L423.403 241.762C423.437 242.094 423.52 242.419 423.646 242.727L379.128 268.006L379.133 268.006ZM424.986 238.513L379.498 187.039C379.643 186.887 379.776 186.72 379.891 186.538C380.423 185.704 380.548 184.731 380.323 183.843L399.695 176.975L425.381 238.296C425.244 238.361 425.112 238.433 424.983 238.515L424.986 238.513ZM400.051 176.175L383.187 135.917C383.693 135.647 384.14 135.252 384.47 134.734C384.548 134.61 384.614 134.484 384.677 134.355L435.151 152.811L447.865 157.458C447.713 158.043 447.723 158.651 447.877 159.219L400.054 176.173L400.051 176.175ZM448.292 156.469C448.21 156.595 448.142 156.727 448.079 156.863L384.896 133.761C384.947 133.571 384.979 133.383 384.996 133.19L449.725 133.004L450.768 154.909C449.785 155.031 448.863 155.571 448.292 156.469ZM450.33 132.368L447.23 67.339C447.788 67.2592 448.322 67.0438 448.785 66.7036L505.121 130.096C504.823 130.328 504.557 130.611 504.343 130.948C504.089 131.344 503.928 131.775 503.852 132.21L450.33 132.363L450.33 132.368ZM506.883 129.384C506.458 129.431 506.041 129.553 505.659 129.752L449.258 66.2855C449.4 66.1353 449.531 65.9696 449.643 65.7898C449.931 65.3377 450.097 64.8482 450.158 64.3489L496.865 65.6275L506.88 129.386L506.883 129.384ZM450.179 63.7138C450.142 63.1444 449.965 62.5938 449.658 62.1067L488.943 31.9641C489.067 32.0701 489.194 32.1698 489.335 32.2602C490.067 32.7284 490.909 32.8821 491.705 32.7584L496.769 64.9874L450.179 63.7138ZM488.053 30.771L444.58 50.0139L440.142 25.2391C440.933 25.0213 441.648 24.5255 442.123 23.7805C442.334 23.4504 442.478 23.0983 442.565 22.7372L487.751 29.3463C487.751 29.8371 487.851 30.3211 488.053 30.771ZM436.937 24.4883C437.072 24.6097 437.217 24.7236 437.374 24.8257C438.036 25.2509 438.79 25.4135 439.517 25.3515L443.983 50.2784L378.905 79.0828C378.824 78.9381 378.728 78.7957 378.624 78.6634L436.937 24.4883ZM365.931 133.883C366.664 133.645 367.322 133.163 367.772 132.464C367.989 132.126 368.135 131.76 368.222 131.388L378.145 132.734C378.094 133.917 378.655 135.094 379.724 135.777C380.112 136.025 380.532 136.182 380.958 136.261L376.983 181.244C376.842 181.245 376.699 181.254 376.558 181.27L365.932 133.879L365.931 133.883ZM373.785 185.898C373.922 186.265 374.122 186.61 374.384 186.918L317.3 245.661C317.204 245.582 317.102 245.507 316.994 245.44C315.433 244.441 313.37 244.868 312.322 246.379L262.894 218.435C263.185 217.788 263.261 217.089 263.142 216.422L373.787 185.9L373.785 185.898ZM260.034 220.449C260.435 220.417 260.831 220.314 261.198 220.145L297.209 282.459L258.288 358.022L260.032 220.447L260.034 220.449ZM255.304 365.604C255.989 365.769 256.702 365.714 257.345 365.466L275.472 401.798L240.565 415.503C240.296 414.97 239.889 414.496 239.348 414.152C239.202 414.058 239.052 413.982 238.897 413.914L255.301 365.606L255.304 365.604ZM234.167 417.885C234.28 418.332 234.483 418.757 234.767 419.132L191.26 459.203L170.374 427.729L234.165 417.882L234.167 417.885ZM95.2717 508.704C95.1527 508.135 94.8886 507.593 94.4961 507.145L169.111 428.717L147.019 497.718C145.651 497.417 144.179 497.972 143.379 499.22C142.561 500.502 142.7 502.114 143.605 503.235L95.271 508.708L95.2717 508.704ZM145.145 589.875L198.893 575.85L201.029 578.865C200.779 579.078 200.555 579.331 200.37 579.622C199.966 580.253 199.797 580.972 199.837 581.669L145.142 589.877L145.145 589.875ZM230.811 620.871C230.551 620.46 230.2 620.095 229.762 619.817C229.533 619.669 229.294 619.561 229.049 619.472L236.476 589.792L271.265 598.165C271.153 598.799 271.227 599.447 271.461 600.039L230.811 620.871ZM277.577 600.557C278.211 599.524 278.235 598.283 277.74 597.261L308.595 625.954L277.579 600.56L277.577 600.557ZM349.675 699.548C349.982 698.41 349.681 697.186 348.876 696.315L398.117 641.453L425.065 725.315C424.45 725.577 423.905 726.02 423.517 726.624C423.441 726.742 423.376 726.863 423.319 726.983L349.673 699.545L349.675 699.548ZM426.169 725.054C426.002 725.066 425.832 725.087 425.667 725.124L398.61 640.911L426.857 609.443C426.908 609.48 426.959 609.518 427.012 609.554C427.526 609.883 428.094 610.055 428.663 610.088L426.169 725.054ZM425.51 605.898C425.258 607.011 425.576 608.188 426.376 609.024L398.385 640.207L384.634 597.409C385.226 597.144 385.751 596.711 386.126 596.125C386.247 595.935 386.346 595.737 386.426 595.534L425.51 605.898ZM383.182 590.837C382.429 590.847 381.69 591.105 381.092 591.583L328.053 536.066L385.726 494.164C385.934 494.401 386.175 494.615 386.458 494.793C386.888 495.066 387.352 495.231 387.826 495.299L383.185 590.835L383.182 590.837ZM396.4 378.615C395.178 377.835 393.65 377.925 392.54 378.724L388.545 374.137L442.652 368.792L397.779 380.351C397.532 379.66 397.066 379.041 396.395 378.614L396.4 378.615ZM445.936 364.727C445.606 364.806 445.286 364.933 444.992 365.107L405.7 310.367L433.135 293.035C433.371 293.343 433.661 293.618 434.005 293.839C434.629 294.238 435.333 294.408 436.021 294.372L445.936 364.727ZM434.929 287.632C434.143 287.851 433.432 288.347 432.958 289.088C432.871 289.222 432.801 289.363 432.736 289.505L379.646 270.807C379.836 270.049 379.759 269.258 379.446 268.556L423.946 243.286C424.203 243.684 424.547 244.038 424.975 244.308C425.641 244.734 426.397 244.899 427.128 244.831L434.932 287.63L434.929 287.632ZM427.547 238.053C427.026 237.941 426.49 237.954 425.983 238.083L400.297 176.761L448.095 159.817C448.362 160.373 448.779 160.866 449.339 161.22C449.549 161.354 449.764 161.46 449.99 161.544L427.551 238.058L427.547 238.053ZM454.201 156.66C453.933 156.172 453.542 155.742 453.041 155.419C452.529 155.093 451.968 154.92 451.403 154.887L450.361 133L503.805 132.848C503.811 133.197 503.868 133.544 503.977 133.873L454.201 156.66ZM530.328 64.1473C530.197 64.2901 530.077 64.4438 529.968 64.6129C529.712 65.0109 529.551 65.442 529.474 65.8821L497.414 65.0055L492.323 32.6039C492.789 32.4415 493.224 32.1764 493.588 31.8182L530.326 64.1492L530.328 64.1473Z" fill="#B4185C"/>
<path d="M-216.64 78.73C-215.777 79.9445 -214.271 80.4258 -212.913 80.0448L-184.527 154.406C-184.69 154.486 -184.851 154.578 -185.004 154.685C-186.551 155.787 -186.913 157.931 -185.814 159.479C-184.715 161.027 -182.567 161.388 -181.019 160.289C-180.772 160.113 -180.558 159.909 -180.372 159.686L-143.923 184.718C-144.548 185.842 -144.52 187.268 -143.725 188.384C-142.626 189.932 -140.478 190.293 -138.93 189.194C-138.247 188.707 -137.795 188.015 -137.597 187.262L-89.6758 195.163C-89.7294 195.932 -89.529 196.722 -89.049 197.401C-88.5261 198.134 -87.7697 198.596 -86.9546 198.769L-100.104 312.791C-100.818 312.773 -101.546 312.977 -102.174 313.421C-103.722 314.52 -104.083 316.668 -102.984 318.216C-101.885 319.764 -99.7372 320.125 -98.1893 319.026C-97.7395 318.704 -97.3937 318.294 -97.1509 317.838L30.8342 371.445C29.531 372.594 29.2803 374.567 30.3086 376.014C31.4076 377.562 33.555 377.923 35.103 376.824C35.2447 376.723 35.371 376.613 35.4919 376.495L74.138 409.801C73.312 410.962 73.2625 412.561 74.1339 413.786C74.5723 414.403 75.1786 414.828 75.8458 415.051L61.0812 477.868L60.4126 477.312L60.9414 478.476L60.8527 478.854L61.0921 478.804L106.328 578.397C106.231 578.454 106.135 578.513 106.04 578.58C104.492 579.679 104.131 581.826 105.23 583.374C106.329 584.922 108.476 585.283 110.024 584.184C111.572 583.085 111.933 580.937 110.834 579.389C110.426 578.814 109.869 578.403 109.255 578.171L122.425 530.803C122.505 530.757 122.585 530.708 122.663 530.653C123.049 530.38 123.36 530.037 123.595 529.658L198.302 566.799C197.901 567.841 198.01 569.053 198.706 570.031C199.805 571.579 201.952 571.94 203.5 570.841C205.048 569.742 205.409 567.595 204.31 566.047C203.876 565.435 203.273 565.01 202.612 564.789L216.083 508.525C216.925 508.645 217.814 508.46 218.564 507.926C219.57 507.211 220.07 506.056 220.001 504.912L260.71 498.566C260.81 498.969 260.983 499.361 261.239 499.719C262.338 501.267 264.486 501.628 266.034 500.529C267.581 499.43 267.942 497.283 266.843 495.735C266.174 494.796 265.121 494.297 264.05 494.292L259.962 448.798C260.441 448.711 260.907 448.523 261.333 448.22C262.722 447.233 263.153 445.405 262.432 443.92L303.444 421.474C304.553 422.993 306.678 423.343 308.214 422.25C309.762 421.151 310.123 419.004 309.024 417.456C308.832 417.186 308.608 416.954 308.359 416.758L326.724 386.904C327.821 387.445 329.172 387.383 330.239 386.623C330.517 386.426 330.753 386.194 330.951 385.938L375.765 414.766C375.191 415.874 375.238 417.256 376.013 418.342C377.112 419.89 379.259 420.251 380.807 419.152C382.355 418.053 382.716 415.905 381.617 414.357C381.536 414.243 381.448 414.141 381.358 414.039L434.39 356.037C435.555 356.92 437.205 356.99 438.458 356.098C440.006 354.999 440.367 352.852 439.268 351.304C438.169 349.756 436.021 349.395 434.473 350.494C434.031 350.807 433.69 351.21 433.448 351.656L327.753 306.266C328.003 305.314 327.846 304.264 327.231 303.4C326.132 301.852 323.985 301.491 322.437 302.59C320.889 303.689 320.528 305.836 321.627 307.384C321.737 307.537 321.86 307.676 321.988 307.808L297.723 340.183C296.576 339.442 295.044 339.425 293.864 340.265C293.48 340.537 293.169 340.877 292.935 341.252L206.075 301.152C206.436 300.133 206.311 298.961 205.639 298.013C204.54 296.465 202.393 296.104 200.845 297.203C199.297 298.302 198.936 300.45 200.035 301.998C200.287 302.353 200.598 302.642 200.939 302.868L180.018 341.861C178.958 341.412 177.695 341.504 176.687 342.223L176.931 342.022L105.25 255.3C106.421 254.135 106.616 252.264 105.628 250.875C105.119 250.158 104.383 249.7 103.589 249.519L109.772 202.883C110.506 202.913 111.254 202.713 111.898 202.252C113.445 201.15 113.807 199.005 112.708 197.458C111.609 195.91 109.461 195.549 107.913 196.648C107.31 197.076 106.888 197.666 106.664 198.317L37.7177 181.155C37.8484 180.301 37.6634 179.402 37.1243 178.644C36.0253 177.096 33.8779 176.735 32.3299 177.834C31.6853 178.292 31.2492 178.931 31.0386 179.634L-11.568 170.837C-11.4758 170.026 -11.6701 169.181 -12.1792 168.464C-13.2782 166.916 -15.4256 166.556 -16.9736 167.655C-17.1376 167.771 -17.2847 167.902 -17.4211 168.038L-79.9752 118.554C-79.2655 117.412 -79.2668 115.911 -80.0936 114.747C-80.7173 113.872 -81.6754 113.375 -82.673 113.31L-85.1532 58.6252C-84.6005 58.5593 -84.0553 58.358 -83.5686 58.0142C-82.0207 56.9152 -81.6599 54.7678 -82.7589 53.2198C-83.861 51.6727 -86.0053 51.311 -87.5533 52.4101C-87.5641 52.4193 -87.5748 52.4285 -87.5864 52.4347L-118.324 23.6628L-134.572 8.45417C-133.841 7.30691 -133.828 5.78586 -134.665 4.60758C-135.764 3.05965 -137.911 2.69881 -139.459 3.79783C-140.662 4.65382 -141.145 6.13841 -140.787 7.48496L-184.601 29.475C-184.628 29.4357 -184.651 29.3926 -184.681 29.351C-185.78 27.803 -187.928 27.4422 -189.476 28.5413C-191.024 29.6403 -191.385 31.7877 -190.286 33.3356C-190.024 33.7022 -189.704 34.0019 -189.346 34.2299L-212.385 73.623C-213.469 73.1181 -214.786 73.1911 -215.83 73.9356C-217.378 75.0346 -217.739 77.1821 -216.64 78.73ZM-138.707 9.80558C-137.665 10.2065 -136.452 10.0972 -135.474 9.40194C-135.286 9.26658 -135.117 9.11659 -134.964 8.95735L-116.54 26.2011L-88.0639 52.8547C-88.2942 53.0985 -88.4815 53.3709 -88.6279 53.6626L-151.471 39.0711L-138.706 9.80866L-138.707 9.80558ZM34.6214 184.06L40.4199 216.027L-4.17434 226.874C-4.27961 226.57 -4.4257 226.273 -4.62182 225.998C-4.71334 225.867 -4.81796 225.749 -4.92488 225.635L32.2987 183.415C32.9742 183.908 33.8024 184.133 34.6214 184.06ZM106.66 200.568C106.765 200.872 106.911 201.17 107.107 201.444C107.223 201.605 107.347 201.748 107.481 201.881L52.6317 268.037C51.9731 267.586 51.1796 267.382 50.3951 267.45L41.1524 216.499L106.659 200.565L106.66 200.568ZM209.807 506.403L215.019 466.143L216.149 501.715C215.603 501.782 215.065 501.985 214.58 502.325C213.497 503.095 212.999 504.378 213.171 505.607L209.807 506.403ZM199.516 565.24C199.13 565.516 198.819 565.856 198.583 566.235L123.879 529.09C124.089 528.544 124.158 527.951 124.075 527.37L209.056 507.235L201.629 564.612C200.9 564.584 200.155 564.786 199.513 565.241L199.516 565.24ZM-96.8314 315.432C-96.9228 315.053 -97.0796 314.686 -97.3026 314.343L-52.8768 278.982C-51.7175 280.195 -49.8132 280.407 -48.4047 279.405L-25.9701 305.442L-96.8314 315.432ZM-186.714 34.6988C-186.643 34.6812 -186.569 34.6627 -186.5 34.6389L-173.288 82.2876C-173.557 82.3906 -173.815 82.5236 -174.06 82.6959C-174.702 83.1504 -175.135 83.7882 -175.35 84.4863L-185.149 82.4317L-186.714 34.6988ZM-140.474 155.243L-134.273 168.78C-134.367 168.833 -134.461 168.892 -134.552 168.957C-135.124 169.365 -135.534 169.915 -135.768 170.523L-146.417 167.51L-170.326 90.0634L-140.474 155.243ZM-133.697 168.515L-155.379 121.176L-170.355 88.4776C-170.26 88.4246 -170.167 88.3654 -170.075 88.3C-169.564 87.937 -169.186 87.46 -168.943 86.9251L-107.516 108.402L-131.581 168.462C-132.266 168.26 -133.006 168.271 -133.695 168.512L-133.697 168.515ZM-175.48 85.1074C-175.575 85.9226 -175.383 86.771 -174.87 87.4903C-174.375 88.188 -173.667 88.6426 -172.896 88.8332L-182.804 154.035L-185.127 83.0837L-175.477 85.1067L-175.48 85.1074ZM-180.209 155.498C-180.703 154.8 -181.412 154.345 -182.182 154.155L-172.27 88.9291C-171.969 88.9454 -171.663 88.9248 -171.364 88.8634L-147.149 167.303L-179.635 158.115C-179.472 157.231 -179.649 156.287 -180.212 155.498L-180.209 155.498ZM-179.803 158.726L-146.923 168.025L-142.233 183.217C-142.467 183.315 -142.698 183.438 -142.912 183.589C-143.159 183.765 -143.373 183.969 -143.56 184.192L-180.009 159.16C-179.929 159.019 -179.858 158.874 -179.801 158.722L-179.803 158.726ZM-139.499 183.265C-140.163 182.966 -140.908 182.877 -141.625 183.03L-146.195 168.233L-135.94 171.132C-136.102 172.016 -135.926 172.96 -135.363 173.749C-135.13 174.077 -134.847 174.349 -134.533 174.569L-139.499 183.265ZM-129.134 172.032L-85.5256 171.479L-86.4138 191.978C-87.0473 192.008 -87.6802 192.212 -88.2393 192.606C-88.6143 192.873 -88.9178 193.204 -89.1505 193.57L-129.369 173.033C-129.242 172.713 -129.163 172.376 -129.134 172.032ZM-18.1854 171.689C-18.084 171.952 -17.951 172.21 -17.7795 172.451C-17.4426 172.923 -17.0125 173.284 -16.53 173.527L-31.2222 217.809L-82.9603 196.422C-82.776 195.824 -82.7556 195.184 -82.9091 194.568L-18.1824 171.688L-18.1854 171.689ZM178.776 348.464L181.55 384.947C181.025 385.022 180.508 385.217 180.048 385.547C179.823 385.708 179.626 385.891 179.451 386.092L167.92 379.582L178.151 348.423C178.359 348.456 178.568 348.47 178.78 348.466L178.776 348.464ZM325.882 381.337C325.084 382.096 324.715 383.176 324.837 384.228L302.48 389.004L296.768 346.377C297.144 346.274 297.512 346.107 297.848 345.869L325.879 381.338L325.882 381.337ZM296.145 346.49L301.859 389.139L232.302 403.996C232.196 403.659 232.039 403.332 231.823 403.029C231.798 402.996 231.77 402.964 231.746 402.931L293.606 345.661C294.315 346.276 295.234 346.564 296.142 346.491L296.145 346.49ZM-47.5911 274.613C-47.6826 274.482 -47.7834 274.366 -47.8903 274.252L-9.44898 230.764C-8.66034 231.342 -7.65898 231.554 -6.70819 231.353L6.02251 272.363L-47.0032 276.052C-47.086 275.55 -47.2773 275.058 -47.5911 274.613ZM-6.10149 231.162C-5.86742 231.065 -5.64257 230.943 -5.4254 230.791C-5.20284 230.634 -5.00953 230.452 -4.83621 230.255L48.0566 268.684C47.8555 268.927 47.6922 269.19 47.5688 269.469L6.67759 272.315L-6.09841 231.161L-6.10149 231.162ZM47.349 270.123C47.2541 270.555 47.2384 271.004 47.312 271.443L19.9001 295.225L17.246 297.529C16.4328 296.747 15.2999 296.428 14.219 296.632L6.86274 272.939L47.3429 270.124L47.349 270.123ZM17.6683 298.016C17.6683 298.016 17.6675 298.013 17.6667 298.009L20.3101 295.715L47.504 272.122C47.604 272.378 47.7354 272.63 47.9023 272.866C48.1792 273.255 48.5223 273.569 48.9016 273.805L44.1774 303.214L18.3051 300.058C18.3156 299.352 18.1136 298.634 17.6714 298.015L17.6683 298.016ZM-46.9597 276.686L6.21687 272.985L13.6124 296.809C13.356 296.909 13.1073 297.04 12.8739 297.206C12.388 297.553 12.0189 298.001 11.7746 298.504L-47.0641 277.461C-46.9993 277.209 -46.966 276.949 -46.9597 276.686ZM32.6121 370.625L16.0539 303.23C16.3326 303.128 16.6052 302.988 16.8585 302.81C17.6001 302.282 18.0664 301.514 18.2332 300.688L44.0723 303.843L33.3503 370.595C33.104 370.578 32.8585 370.59 32.6129 370.628L32.6121 370.625ZM44.7027 303.918L74.7684 307.585C74.7857 308.245 74.9923 308.903 75.4046 309.481C75.5653 309.706 75.7492 309.905 75.9492 310.078L50.946 347.076L34.7718 371.009C34.5179 370.87 34.2524 370.762 33.9769 370.694L44.7027 303.918ZM120.82 524.416L119.557 492.878L118.779 473.384C119.317 473.312 119.844 473.115 120.319 472.778C121.25 472.117 121.746 471.077 121.76 470.017L138.721 468.654L121.335 524.474C121.163 524.442 120.991 524.423 120.819 524.413L120.82 524.416ZM142.419 368.836L151.381 422.955C150.992 423.058 150.608 423.226 150.262 423.476C149.662 423.903 149.242 424.489 149.015 425.138L129.716 421.478L141.727 368.816C141.957 368.847 142.191 368.854 142.422 368.839L142.419 368.836ZM148.857 425.753C148.727 426.606 148.909 427.509 149.452 428.27C149.588 428.462 149.739 428.634 149.905 428.789L120.177 467.079C119.932 466.924 119.67 466.803 119.399 466.714L129.575 422.095L148.86 425.752L148.857 425.753ZM121.711 469.385C121.625 468.896 121.436 468.417 121.129 467.983C120.993 467.795 120.842 467.62 120.68 467.467L131.303 453.795L150.424 429.189C150.587 429.292 150.759 429.377 150.934 429.451L138.925 468.004L121.708 469.389L121.711 469.385ZM151.54 429.637C152.448 429.829 153.429 429.66 154.247 429.08C154.577 428.844 154.85 428.56 155.069 428.247L212.088 460.763C211.892 461.198 211.789 461.665 211.784 462.141L139.61 467.945L151.543 429.636L151.54 429.637ZM213.222 459.382C212.891 459.618 212.619 459.902 212.399 460.215L155.38 427.698C155.668 427.067 155.756 426.358 155.634 425.672L193.725 415.125L213.521 459.192C213.418 459.251 213.32 459.315 213.223 459.385L213.222 459.382ZM155.465 425.06C155.362 424.791 155.229 424.53 155.056 424.286C155.005 424.21 154.946 424.143 154.889 424.075L180.053 391.146C180.951 391.782 182.11 391.955 183.156 391.599L193.462 414.54L155.465 425.06ZM179.241 390.341C179.342 390.483 179.455 390.611 179.571 390.733L154.434 423.626C154.183 423.421 153.91 423.256 153.62 423.129L167.716 380.196L179.075 386.607C178.412 387.738 178.427 389.203 179.237 390.339L179.241 390.341ZM153.018 422.933C152.747 422.869 152.468 422.838 152.187 422.842L143.056 368.73C143.443 368.627 143.819 368.458 144.166 368.211C144.5 367.974 144.775 367.686 144.996 367.366L167.155 379.874L153.017 422.929L153.018 422.933ZM80.1959 310.291C80.2375 310.261 80.2752 310.229 80.316 310.196L115.298 341.662L139.413 363.355C138.977 363.941 138.747 364.646 138.736 365.362L77.6716 370.185L78.251 310.927C78.9261 310.919 79.6044 310.714 80.1959 310.291ZM139.566 367.654C139.986 368.144 140.519 368.486 141.099 368.675L129.085 421.36L80.3655 412.121C80.4314 411.428 80.2886 410.711 79.9195 410.07L139.566 367.654ZM80.2496 412.746L128.945 421.981L118.776 466.575C118.041 466.476 117.277 466.611 116.6 467.006L79.1901 414.4C79.7131 413.952 80.0722 413.372 80.2496 412.746ZM115.522 471.972C116.156 472.86 117.133 473.356 118.145 473.411L118.712 487.623L120.183 524.448C120.045 524.469 119.904 524.497 119.767 524.535L99.5687 470.932L115.842 467.6C114.721 468.77 114.549 470.602 115.522 471.972ZM123.262 525.58C122.892 525.159 122.439 524.85 121.945 524.653L139.403 468.598L211.83 462.774C211.895 463.153 212.024 463.524 212.219 463.874L123.262 525.58ZM214.098 458.934L194.34 414.952L225.81 406.239C225.913 406.508 226.046 406.769 226.219 407.014C226.652 407.625 227.252 408.048 227.909 408.27L215.706 458.785C215.174 458.708 214.622 458.754 214.098 458.934ZM225.641 405.627L194.079 414.366L183.736 391.34C183.839 391.281 183.937 391.218 184.034 391.148C184.54 390.789 184.916 390.316 185.161 389.787L225.693 404.172C225.572 404.643 225.555 405.138 225.643 405.623L225.641 405.627ZM177.532 348.263L167.356 379.262L145.307 366.815C145.695 365.946 145.716 364.94 145.324 364.039L176.01 347.184C176.422 347.693 176.951 348.058 177.529 348.264L177.532 348.263ZM175.659 346.653L145.016 363.485C145.001 363.463 144.988 363.44 144.973 363.417C143.874 361.869 141.727 361.509 140.179 362.608C140.059 362.693 139.945 362.787 139.839 362.885L85.8981 314.362L80.7797 309.76C80.9353 309.584 81.0709 309.393 81.185 309.194L175.328 344.289C175.157 345.074 175.255 345.913 175.657 346.657L175.659 346.653ZM74.8096 306.95L44.804 303.287L49.4926 274.089C50.4769 274.455 51.6086 274.363 52.5511 273.761L75.7083 305.123C75.2215 305.637 74.9193 306.275 74.8119 306.946L74.8096 306.95ZM-10.2236 229.979C-10.1321 230.11 -10.0314 230.225 -9.92444 230.339L-48.3658 273.828C-48.5697 273.679 -48.7875 273.553 -49.0145 273.456L-30.8317 218.654L-10.7013 226.974C-11.0044 227.962 -10.8651 229.072 -10.2198 229.981L-10.2236 229.979ZM-84.2493 198.206C-83.7934 197.883 -83.446 197.466 -83.2016 197.003L-31.4204 218.405L-49.6178 273.253C-50.2289 273.111 -50.8771 273.136 -51.4869 273.34L-84.5689 198.407C-84.4595 198.347 -84.3517 198.28 -84.2493 198.206ZM-47.9203 278.986C-47.653 278.707 -47.4372 278.391 -47.28 278.051L11.5479 299.09C11.4515 299.438 11.4143 299.801 11.4302 300.166L-25.2218 305.334L-47.9234 278.987L-47.9203 278.986ZM11.5215 300.794C11.6197 301.215 11.7996 301.621 12.0634 301.997C12.854 303.108 14.1816 303.605 15.4403 303.393L31.9954 370.776C31.7906 370.846 31.5904 370.936 31.3964 371.049L-24.728 305.91L11.5199 300.801L11.5215 300.794ZM35.922 372.027C35.7405 371.772 35.5289 371.553 35.2989 371.365L76.4639 310.45C76.8241 310.661 77.2165 310.805 77.6198 310.875L77.0396 370.235L36.5053 373.436C36.4217 372.943 36.2304 372.464 35.922 372.027ZM77.6666 370.821L138.786 365.994C138.854 366.386 138.986 366.771 139.197 367.134L79.5512 409.551C78.9612 408.864 78.1485 408.464 77.2957 408.376L77.6635 370.821L77.6666 370.821ZM78.6726 414.764L115.79 466.959L99.342 470.324L78.4493 414.879C78.5255 414.844 78.5979 414.806 78.6726 414.764ZM119.175 524.758C119.005 524.839 118.842 524.932 118.683 525.044C118.525 525.155 118.383 525.282 118.249 525.414L61.9944 478.619L98.9389 471.056L119.174 524.755L119.175 524.758ZM123.936 526.747C123.875 526.569 123.798 526.392 123.707 526.222L123.769 526L212.584 464.392C213.082 464.987 213.747 465.371 214.461 465.533L209.152 506.557L123.94 526.749L123.936 526.747ZM260.618 497.938L219.91 504.283C219.809 503.88 219.636 503.488 219.38 503.13C219.218 502.899 219.028 502.701 218.823 502.523L236.359 477.965L261.091 495.965C260.736 496.561 260.574 497.249 260.618 497.935L260.618 497.938ZM218.306 502.155C217.839 501.882 217.316 501.725 216.784 501.693L215.638 465.596C216.184 465.528 216.722 465.326 217.206 464.986C217.429 464.829 217.622 464.646 217.793 464.453L235.848 477.592L218.306 502.155ZM218.166 463.942C218.646 463.135 218.776 462.164 218.52 461.256L256.197 446.802C256.288 447.012 256.405 447.218 256.542 447.413C256.684 447.613 256.846 447.792 257.02 447.951L236.217 477.082L218.167 463.945L218.166 463.942ZM255.997 446.198L223.399 458.705L256.857 443.046C256.05 443.892 255.739 445.085 255.997 446.198ZM218.178 460.448C218.128 460.363 218.074 460.278 218.017 460.194C217.583 459.583 216.984 459.16 216.327 458.938L228.529 408.423C229.374 408.546 230.267 408.36 231.017 407.826C231.678 407.357 232.121 406.693 232.327 405.968L302.795 419.251C302.766 419.749 302.847 420.258 303.038 420.737L218.176 460.452L218.178 460.448ZM232.442 405.344C232.464 405.103 232.466 404.861 232.438 404.616L301.944 389.769L305.473 416.097C305.04 416.195 304.62 416.375 304.234 416.651C303.536 417.146 303.085 417.854 302.893 418.621L232.446 405.344L232.442 405.344ZM306.101 416.019L302.566 389.64L324.973 384.855C325.08 385.191 325.237 385.518 325.453 385.821C325.665 386.118 325.914 386.37 326.192 386.579L307.833 416.418C307.298 416.136 306.702 416 306.102 416.022L306.101 416.019ZM331.056 381.833C329.984 380.325 327.92 379.946 326.384 380.947L298.467 345.623L375.517 413.85L331.307 385.411C331.882 384.303 331.835 382.921 331.06 381.836L331.056 381.833ZM376.831 413.555C376.703 413.646 376.584 413.747 376.473 413.854L298.709 344.994C298.998 344.565 299.185 344.08 299.259 343.578L344.452 346.886L377.035 413.429C376.967 413.472 376.899 413.512 376.832 413.558L376.831 413.555ZM293.058 345.062C293.093 345.112 293.134 345.157 293.172 345.204L231.319 402.465C230.546 401.768 229.505 401.474 228.503 401.626L221.377 373.045L292.8 344.632C292.876 344.78 292.958 344.923 293.058 345.062ZM227.887 401.78C227.589 401.883 227.301 402.027 227.029 402.223C226.523 402.581 226.147 403.054 225.903 403.583L185.37 389.199C185.521 388.608 185.511 387.979 185.337 387.385L220.779 373.285L227.885 401.784L227.887 401.78ZM185.1 386.79C185.024 386.642 184.942 386.496 184.842 386.357C184.404 385.74 183.797 385.316 183.133 385.092L202.363 303.409C202.691 303.455 203.025 303.454 203.359 303.403L220.626 372.656L185.099 386.787L185.1 386.79ZM201.745 303.266L182.514 384.945C182.406 384.93 182.295 384.918 182.183 384.917L179.405 348.389C179.849 348.294 180.281 348.108 180.673 347.83C182.22 346.728 182.581 344.584 181.482 343.036C181.23 342.68 180.919 342.391 180.578 342.166L201.5 303.176C201.581 303.212 201.663 303.24 201.745 303.269L201.745 303.266ZM175.521 343.685L81.447 308.619C81.7995 307.605 81.6724 306.44 81.0026 305.498C80.7011 305.076 80.3203 304.742 79.894 304.502L101.708 256.118C102.7 256.459 103.831 256.341 104.759 255.707L176.436 342.423C176.024 342.778 175.717 343.211 175.518 343.686L175.521 343.685ZM100.028 254.862C100.329 255.284 100.71 255.618 101.133 255.859L79.7993 303.178L93.5216 256.422L99.6957 254.291C99.7841 254.488 99.8948 254.683 100.026 254.866L100.028 254.862ZM78.8596 304.119C77.966 303.946 77.0083 304.119 76.2082 304.688C76.1997 304.693 76.192 304.702 76.1804 304.708L53.0471 273.376C53.9645 272.516 54.3201 271.24 54.0314 270.056L92.7855 256.671L78.8589 304.115L78.8596 304.119ZM53.8263 269.456C53.7379 269.259 53.6272 269.064 53.4964 268.881C53.3818 268.723 53.2572 268.578 53.1226 268.444L107.972 202.289C108.184 202.432 108.408 202.553 108.644 202.648L93.0054 255.926L53.8263 269.456ZM49.7731 267.565C49.3997 267.668 49.0386 267.834 48.7021 268.071C48.6327 268.121 48.568 268.177 48.5026 268.229L-4.46947 229.745C-4.06645 229.065 -3.91196 228.268 -4.02386 227.491L40.5365 216.652L49.7731 267.565ZM-8.18961 224.637C-8.61689 224.734 -9.03574 224.917 -9.41618 225.188C-9.87209 225.511 -10.2195 225.928 -10.4638 226.391L-30.6342 218.055L-15.939 173.759C-15.6181 173.852 -15.2864 173.897 -14.953 173.896L-8.19192 224.641L-8.18961 224.637ZM-18.3583 171.075L-83.1243 193.967C-83.2111 193.777 -83.3165 193.59 -83.4418 193.415C-84.0156 192.61 -84.8713 192.13 -85.7787 192.006L-84.8897 171.471L-18.4111 170.627C-18.4027 170.778 -18.3851 170.928 -18.3575 171.078L-18.3583 171.075ZM-85.4982 170.841L-129.142 171.396C-129.203 170.826 -129.402 170.264 -129.759 169.764C-129.844 169.645 -129.936 169.537 -130.032 169.43L-94.012 129.545L-84.9408 119.498C-84.4553 119.858 -83.8873 120.076 -83.3039 120.146L-85.499 170.838L-85.4982 170.841ZM-85.6977 118.732C-85.6116 118.854 -85.5147 118.967 -85.4124 119.076L-130.501 169.004C-130.658 168.886 -130.82 168.786 -130.993 168.698L-106.918 108.613L-86.2163 115.852C-86.4717 116.808 -86.3161 117.865 -85.6977 118.732ZM-107.281 107.813L-168.735 86.3272C-168.6 85.7799 -168.6 85.2041 -168.742 84.6475L-88.8619 56.1611C-88.7583 56.5245 -88.5953 56.8764 -88.3638 57.2014C-88.0915 57.5849 -87.7523 57.8961 -87.3768 58.1296L-107.284 107.811L-107.281 107.813ZM-88.8615 54.2606C-88.978 54.6723 -89.0206 55.1049 -88.9793 55.5329L-168.953 84.0523C-169.039 83.8645 -169.143 83.6812 -169.268 83.5095C-169.579 83.0736 -169.971 82.7362 -170.411 82.4926L-151.729 39.6652L-88.8608 54.2636L-88.8615 54.2606ZM-170.992 82.2352C-171.534 82.0562 -172.11 82.0135 -172.677 82.1156L-185.909 34.3999C-185.764 34.3245 -185.624 34.2438 -185.487 34.1477C-184.779 33.6439 -184.321 32.9214 -184.137 32.1364L-152.358 39.5147L-170.992 82.2352ZM-187.348 34.7785L-185.792 82.2943L-210.425 77.1282C-210.331 76.3131 -210.523 75.4647 -211.035 74.7454C-211.262 74.4258 -211.535 74.16 -211.837 73.9443L-188.782 34.5243C-188.327 34.7086 -187.841 34.7967 -187.348 34.7785ZM-212.322 79.8189C-212.159 79.7389 -211.998 79.6467 -211.845 79.5398C-211.203 79.0852 -210.77 78.4474 -210.555 77.7493L-185.77 82.9463L-183.442 154.076C-183.606 154.098 -183.774 154.133 -183.936 154.18L-212.322 79.8189ZM-137.492 186.634C-137.438 185.865 -137.638 185.074 -138.118 184.396C-138.351 184.068 -138.634 183.795 -138.948 183.576L-133.982 174.88C-132.904 175.37 -131.603 175.291 -130.569 174.555C-130.194 174.289 -129.891 173.958 -129.658 173.592L-89.4396 194.129C-89.492 194.26 -89.5367 194.395 -89.5745 194.532L-137.495 186.632L-137.492 186.634ZM-86.3227 198.837C-85.9308 198.848 -85.5359 198.792 -85.1525 198.663L-52.0705 273.597C-52.1799 273.657 -52.2877 273.723 -52.3901 273.797C-53.9019 274.871 -54.278 276.944 -53.2699 278.482L-97.6957 313.842C-98.1865 313.33 -98.8059 312.997 -99.4686 312.858L-86.3196 198.837L-86.3227 198.837ZM-96.8988 317.248C-96.7784 316.865 -96.7259 316.459 -96.7449 316.055L-25.4786 306.009L30.0019 370.403L-96.9018 317.249L-96.8988 317.248ZM35.9141 376.01C36.324 375.437 36.5399 374.755 36.5511 374.065L77.0277 370.869L76.6591 408.368C76.0632 408.418 75.472 408.618 74.9498 408.99C74.8081 409.091 74.6818 409.201 74.5609 409.32L35.9149 376.013L35.9141 376.01ZM76.4701 415.193C76.9273 415.255 77.3976 415.226 77.851 415.103L98.7069 470.453L61.7 478.028L76.467 415.193L76.4701 415.193ZM108.645 577.995C108.073 577.893 107.472 577.935 106.909 578.131L62.1432 479.569L117.844 525.901C117.052 527.057 117.016 528.629 117.874 529.838C118.755 531.077 120.303 531.552 121.68 531.133L108.649 577.998L108.645 577.995ZM202.589 562.161L209.719 507.073L213.315 506.222C213.418 506.533 213.569 506.836 213.77 507.116C214.203 507.728 214.807 508.153 215.468 508.377L202.589 562.165L202.589 562.161ZM263.419 494.345C262.94 494.431 262.47 494.62 262.048 494.922C261.826 495.079 261.635 495.26 261.461 495.454L236.725 477.449L257.52 448.33C258.066 448.672 258.695 448.845 259.331 448.85L263.419 494.345ZM262.103 443.374C261.382 442.399 260.24 441.911 259.108 441.988L297.27 424.128L262.106 443.373L262.103 443.374ZM380.894 413.609C379.954 412.897 378.706 412.718 377.597 413.138L345.176 346.931L433.026 353.361C433.039 354.028 433.245 354.7 433.66 355.286C433.741 355.4 433.829 355.506 433.919 355.604L380.891 413.609L380.894 413.609ZM433.198 352.239C433.146 352.399 433.102 352.563 433.075 352.73L344.858 346.271L326.263 308.292C326.317 308.259 326.37 308.226 326.424 308.19C326.921 307.837 327.293 307.375 327.538 306.859L433.198 352.239ZM322.472 308.214C323.409 308.863 324.62 309.01 325.694 308.582L344.121 346.216L299.288 342.933C299.264 342.285 299.059 341.636 298.656 341.069C298.526 340.886 298.38 340.719 298.221 340.569L322.472 308.214ZM292.651 341.817C292.378 342.52 292.341 343.301 292.56 344.035L221.216 372.414L203.97 303.244C204.268 303.14 204.556 302.996 204.828 302.801C205.242 302.505 205.568 302.136 205.809 301.723L292.65 341.814L292.651 341.817ZM100.833 250.062C99.6524 250.903 99.1635 252.353 99.4883 253.682L93.7391 255.668L109.052 203.498L102.96 249.434C102.226 249.404 101.478 249.604 100.831 250.066L100.833 250.062ZM106.513 198.93C106.463 199.266 106.46 199.61 106.512 199.948L41.0389 215.873L35.2466 183.943C35.62 183.84 35.9842 183.674 36.3176 183.437C36.9206 183.009 37.3429 182.419 37.5665 181.768L106.513 198.93ZM30.9089 180.255C30.8168 181.067 31.011 181.911 31.5202 182.628C31.6117 182.759 31.7163 182.877 31.8232 182.991L-5.40034 225.211C-6.03203 224.75 -6.79472 224.525 -7.56297 224.553L-14.3226 173.827C-13.8576 173.737 -13.4002 173.551 -12.9897 173.256C-12.3451 172.797 -11.909 172.159 -11.6984 171.455L30.9082 180.252L30.9089 180.255ZM-17.8255 168.528C-18.1244 168.969 -18.3134 169.471 -18.3837 169.989L-84.8624 170.833L-82.6673 120.168C-82.0522 120.129 -81.4386 119.927 -80.9003 119.541C-80.6977 119.395 -80.5183 119.236 -80.3565 119.058L-17.8193 168.526L-17.8255 168.528ZM-83.3072 113.324C-83.86 113.39 -84.4051 113.591 -84.8918 113.935C-85.3863 114.287 -85.7568 114.743 -85.9988 115.254L-106.683 108.021L-86.8027 58.4117C-86.4772 58.5366 -86.1339 58.6145 -85.7883 58.6363L-83.3072 113.324ZM-140.565 8.08399C-140.482 8.25955 -140.385 8.42816 -140.269 8.59219C-139.996 8.97879 -139.656 9.28998 -139.277 9.52577L-152.1 38.9237L-184.049 31.506C-184.025 31.0126 -184.108 30.5098 -184.304 30.0386L-140.565 8.08707L-140.565 8.08399Z" fill="#2B6577"/>
<path d="M234.682 154L43.3145 222.967L46.4143 241.875L237.881 173.493L234.682 154Z" fill="#F5C07A"/>
<path d="M261.243 315.973L237.881 173.494L46.4141 241.876L69.873 384.943L261.243 315.973Z" fill="#FBE4C6"/>
<path d="M132.596 227.92C132.596 227.92 132.351 220.826 149.965 218.38C167.58 215.933 185.194 231.347 188.618 241.13C192.043 250.917 202.074 291.282 202.074 291.282L125.013 313.301C125.013 313.301 107.155 270.243 112.781 249.939C118.408 229.634 132.596 227.92 132.596 227.92Z" fill="#4F2B2B"/>
<path d="M146.64 301.697C141.186 303.838 135.99 305.991 131.288 308.052C118.766 313.541 109.909 325.022 107.708 338.517L101.923 373.981L254.85 318.542C254.85 318.542 244.893 291.003 221.145 283.823C214.822 281.912 202.235 283.935 187.68 287.868L146.64 301.697Z" fill="#F29EC3"/>
<path d="M171.68 271.63L147.284 277.935L153.467 301.857L177.862 295.552L171.68 271.63Z" fill="#FFBE97"/>
<path d="M175.5 285.799L172.5 275.299L150.5 283.799C162.9 290.599 172.333 287.965 175.5 285.799Z" fill="#4F2B2B"/>
<path d="M123.699 279.949C127.644 278.118 129.357 273.436 127.526 269.491C125.695 265.546 121.013 263.833 117.068 265.664C113.124 267.495 111.41 272.177 113.241 276.122C115.072 280.067 119.754 281.78 123.699 279.949Z" fill="#FFBE97"/>
<path d="M122.656 275.731L118.2 276.704C117.481 276.862 116.773 276.406 116.615 275.689C116.457 274.97 116.913 274.262 117.63 274.104L122.087 273.131C122.806 272.973 123.514 273.429 123.671 274.146C123.829 274.865 123.373 275.573 122.656 275.731Z" fill="#4F2B2B"/>
<path d="M187.453 257.197C191.801 257.133 195.274 253.555 195.21 249.207C195.145 244.858 191.568 241.385 187.219 241.45C182.871 241.514 179.398 245.092 179.463 249.44C179.527 253.789 183.104 257.262 187.453 257.197Z" fill="#FFBE97"/>
<path d="M189.972 250.031L185.633 251.441C184.934 251.669 184.184 251.285 183.956 250.586C183.728 249.886 184.112 249.137 184.811 248.909L189.15 247.499C189.849 247.271 190.599 247.655 190.827 248.354C191.055 249.053 190.671 249.803 189.972 250.031Z" fill="#4F2B2B"/>
<path d="M187.432 253.803C189.223 269.83 173.227 285.82 153.992 287.971C134.76 290.119 119.574 277.615 117.783 261.587C115.992 245.56 129.33 228.342 148.483 225.571C170.732 222.355 185.641 237.775 187.432 253.803Z" fill="#FFBE97"/>
<path d="M143.063 266.974C142.451 267.145 141.817 266.788 141.649 266.176L141.09 264.175C140.919 263.563 141.276 262.93 141.888 262.761C142.499 262.59 143.133 262.947 143.302 263.559L143.861 265.56C144.032 266.172 143.674 266.806 143.063 266.974Z" fill="#775340"/>
<path d="M169.089 260.532C168.477 260.703 167.844 260.345 167.675 259.734L167.116 257.732C166.945 257.12 167.302 256.487 167.914 256.318C168.526 256.147 169.159 256.504 169.328 257.116L169.887 259.118C170.058 259.729 169.701 260.363 169.089 260.532Z" fill="#775340"/>
<path d="M161.612 249.39C161.261 249.39 160.917 249.217 160.711 248.901C160.386 248.404 160.527 247.737 161.024 247.413C164.747 244.986 175.368 244.116 178.593 247.387C179.009 247.81 179.005 248.489 178.582 248.908C178.161 249.324 177.479 249.32 177.06 248.897C174.743 246.549 165.461 247.088 162.197 249.215C162.017 249.333 161.814 249.39 161.612 249.39Z" fill="#4F2B2B"/>
<path d="M131.476 261.342C131.252 261.342 131.026 261.271 130.833 261.127C130.358 260.772 130.259 260.099 130.616 259.623C134.54 254.375 142.033 252.255 144.991 253.445C145.541 253.669 145.809 254.294 145.587 254.844C145.363 255.394 144.741 255.659 144.188 255.44C142.465 254.75 135.88 256.177 132.339 260.912C132.129 261.195 131.805 261.344 131.478 261.344L131.476 261.342Z" fill="#4F2B2B"/>
<path d="M139.103 276.049C142.03 275.268 144.063 273.36 143.643 271.786C143.224 270.213 140.511 269.57 137.584 270.351C134.657 271.131 132.624 273.039 133.044 274.613C133.463 276.186 136.176 276.829 139.103 276.049Z" fill="#FF9D6C"/>
<path d="M176.83 264.561C179.757 263.781 181.789 261.873 181.37 260.299C180.95 258.726 178.237 258.083 175.311 258.863C172.384 259.644 170.351 261.552 170.77 263.125C171.19 264.699 173.903 265.342 176.83 264.561Z" fill="#FF9D6C"/>
<path d="M155.29 264.999C155.182 264.999 155.075 264.983 154.968 264.948C154.4 264.771 154.086 264.166 154.264 263.6C154.687 262.254 154.382 260.441 153.466 258.863C152.859 257.815 151.449 255.973 148.832 255.401C148.251 255.276 147.882 254.702 148.009 254.123C148.134 253.544 148.709 253.172 149.288 253.301C151.826 253.853 153.97 255.447 155.325 257.782C156.55 259.897 156.921 262.311 156.314 264.242C156.169 264.703 155.746 264.994 155.288 264.994L155.29 264.999Z" fill="#4F2B2B"/>
<path d="M157.904 277.407C155.503 277.407 153.256 276.649 151.651 275.204C150.875 274.505 150.533 273.47 150.742 272.44C150.95 271.396 151.673 270.565 152.673 270.215L165.02 265.887C166.019 265.536 167.104 265.738 167.918 266.422C168.722 267.099 169.101 268.119 168.93 269.149C168.389 272.44 165.622 275.412 161.882 276.721C160.565 277.184 159.21 277.409 157.904 277.409V277.407ZM165.73 267.917L153.385 272.242C152.986 272.383 152.879 272.722 152.85 272.863C152.824 272.996 152.793 273.338 153.092 273.606C154.992 275.318 158.169 275.743 161.174 274.691C164.182 273.637 166.396 271.324 166.813 268.796C166.879 268.402 166.642 268.154 166.537 268.066C166.427 267.974 166.127 267.775 165.732 267.917H165.73Z" fill="#4F2B2B"/>
<path d="M118.408 264.372C137.98 252.628 137 238.685 137 238.685C137 238.685 149.233 248.226 182.015 239.909C182.015 239.909 172.229 207.126 137.491 226.21C102.751 245.291 118.41 264.374 118.41 264.374L118.408 264.372Z" fill="#4F2B2B"/>
<path d="M187.68 287.869C174.551 291.418 159.824 296.52 146.64 301.698L175.702 315.441L187.68 287.869Z" fill="#FFBE97"/>
<path d="M95.1499 265.705L103.259 262.783L90.1867 183.062L-4 217.007L9.07003 296.727L77.8072 271.955L97.6446 276.679L95.1499 265.705Z" fill="#F2AE54"/>
<path d="M118 378.298C109.181 389.713 107.216 401.283 107.501 403.298C127.244 415.294 144.847 417.175 152 410.298C134.544 404.786 123.07 382.909 118 378.298Z" fill="#8FC6D7"/>
<path d="M108 372.798L103.5 378.298C102.038 380.194 100.769 380.311 98.4998 379.798C97.5528 382.784 95.8781 395.345 107.769 403.651C107.598 399.627 110.349 388.586 118.5 378.298L108 372.798Z" fill="#3F97B1"/>
<path d="M142.777 340.627C138.355 339.126 130.462 342.465 127 345.9L157.454 356.799C158.015 356.996 158.002 355.201 157.807 355.762C158.252 355.762 157.651 356.207 157.807 355.762C157.689 355.762 157.57 355.743 157.454 355.703L129.308 345.9C124.79 344.354 117.47 348.134 114 351.771C115.524 351.749 118.724 352.803 120.186 353.298L148 363.298C148.561 363.496 148.527 361.383 148.332 361.944C148.177 362.389 149.13 362.004 148.685 362.004C148.567 362.004 148.448 361.984 148.332 361.944L120.186 352.141C115.629 350.589 110.514 352.016 107.042 355.732L104.304 359.388C104.591 359.349 107.211 358.818 107.5 358.798C109.274 358.684 110.827 359.235 112.5 359.798L140.171 369.174C140.732 369.369 140.366 368.344 140.171 368.905C140.727 369.095 139.975 369.468 140.171 368.905L112.022 359.101C110.519 358.588 109.039 358.393 107.546 358.494C106.491 358.562 105.474 358.81 104.51 359.189C104.442 359.215 104.376 359.248 104.304 359.261C101.274 360.53 98.8427 363.238 97.8496 366.684L96.1989 375.942C95.8745 377.744 96.8237 379.509 98.5007 380.234C100.145 380.947 102.067 380.456 103.168 379.031L107.274 373.71C107.607 373.278 108.206 373.166 108.675 373.443L118.752 379.443C118.77 379.454 118.772 379.476 118.788 379.487C118.82 379.509 118.858 379.515 118.888 379.541C119.027 379.655 119.116 379.8 119.18 379.956C119.184 379.969 119.2 379.973 119.204 379.986C119.314 380.269 130.321 408.312 153.769 411.403L195.974 373.544L162.088 346.776L142.77 340.632L142.777 340.627Z" fill="#FFBE97"/>
<path d="M104.5 359.299C108 358.465 115.4 357.299 117 359.299L137 371.799" stroke="black" stroke-width="1.5" stroke-linecap="round"/>
<path d="M114 351.903C117.5 351.07 121.9 348.798 123.5 350.798L139.5 361.299" stroke="black" stroke-width="1.5" stroke-linecap="round"/>
<path d="M128 345.705C131.5 344.872 134.9 344.299 136.5 346.299L146.5 353.799" stroke="black" stroke-width="1.5" stroke-linecap="round"/>
<path d="M202.302 458.72C202.302 458.72 214.462 360.348 245.469 338.428C276.478 316.508 364.691 301.005 364.691 301.005C364.691 301.005 387.082 296.633 418.624 306.79C447.927 316.228 463.062 458.72 463.062 458.72" fill="#FFB8BD"/>
<path d="M202.301 458.719L160.759 425.875C156.225 422.291 153.772 416.709 154.171 410.944C155.304 394.574 160.971 362.653 187.855 360.319C227.558 356.872 288.506 406.592 288.506 406.592L202.301 458.719Z" fill="#DF8711"/>
<path d="M343.18 260.976L295.013 273.873L305.738 313.93L353.906 301.033L343.18 260.976Z" fill="#FFBE97"/>
<path d="M301 295.299L296 278.299C316.833 269.132 348.1 250.599 330.5 269.799C312.9 288.999 305.5 296.465 301 295.299Z" fill="#4F2B2B"/>
<path d="M292.518 321.854L293.587 301.539L358.679 283.896L367.5 306.35L292.518 321.854Z" fill="#BF8888"/>
<path d="M355.028 222.226C359.515 250.124 335.966 280.014 305.886 286.005C275.804 291.995 250.579 271.823 246.093 243.923C241.608 216.023 262.356 188.551 292.439 182.56C322.521 176.569 350.544 194.326 355.03 222.224L355.028 222.226Z" fill="#FFBE97"/>
<path d="M252.164 246.279L245.166 262.329C244.263 264.402 245.657 266.752 247.911 266.952L258.677 267.908L252.164 246.279Z" fill="#FFBE97"/>
<path d="M260.118 247.343C261.234 246.928 261.804 245.687 261.39 244.572L260.178 241.305C259.763 240.189 258.523 239.619 257.407 240.034C256.291 240.448 255.721 241.689 256.135 242.805L257.347 246.071C257.762 247.187 259.003 247.757 260.118 247.343Z" fill="#4F2B2B"/>
<path d="M252.253 234.659C251.836 234.659 251.437 234.414 251.264 234.006C251.031 233.46 251.286 232.829 251.832 232.594C255.806 230.895 260.346 230.345 264.61 231.049C265.195 231.145 265.592 231.697 265.496 232.283C265.399 232.868 264.84 233.265 264.262 233.168C260.399 232.539 256.282 233.033 252.676 234.571C252.538 234.631 252.395 234.657 252.253 234.657V234.659Z" fill="#4F2B2B"/>
<path d="M353.853 257.1C353.803 257.1 353.752 257.097 353.702 257.089C353.114 257.005 352.704 256.462 352.788 255.872C354.708 242.328 352.623 228.026 346.915 215.596C346.667 215.057 346.904 214.419 347.443 214.172C347.98 213.926 348.62 214.161 348.868 214.7C354.745 227.498 356.891 242.228 354.914 256.175C354.837 256.712 354.377 257.1 353.851 257.1H353.853Z" fill="#775340"/>
<path d="M299.581 232.014H290.406L284.079 223.156L269.526 223.473L267.628 212.083L262.883 223.789L246.748 223.473C248.185 194.897 273.955 182.029 273.955 182.029C273.955 182.029 319.102 154.001 354.699 183.893C390.296 213.785 387.638 258.458 379.621 274.407L321.726 287.378C321.726 287.378 320.37 250.287 306.926 237.944" fill="#4F2B2B"/>
<path d="M299.873 256.51C306.558 254.963 310.723 248.291 309.176 241.606C307.629 234.921 300.956 230.757 294.271 232.304C287.587 233.85 283.422 240.523 284.969 247.208C286.516 253.892 293.189 258.057 299.873 256.51Z" fill="#FFBE97"/>
<path d="M302.927 241.951L298.076 245.618C297.295 246.208 296.25 245.95 295.741 245.042C295.234 244.134 295.456 242.918 296.236 242.326L301.087 238.659C301.868 238.068 302.913 238.327 303.422 239.235C303.929 240.143 303.707 241.358 302.927 241.951Z" fill="#4F2B2B"/>
<path d="M202.302 458.72C202.302 458.72 214.462 360.348 245.469 338.428C276.478 316.508 364.691 301.005 364.691 301.005C364.691 301.005 387.082 296.633 418.624 306.79C447.927 316.228 463.062 458.72 463.062 458.72H202.302Z" fill="#DF8711"/>
<path d="M266.908 276.853C266.45 276.853 266.027 276.56 265.882 276.099C265.705 275.534 266.021 274.929 266.586 274.751C271.926 273.076 276.493 269.282 279.113 264.338C279.391 263.814 280.042 263.612 280.566 263.891C281.09 264.169 281.292 264.82 281.013 265.344C278.128 270.783 273.104 274.959 267.229 276.801C267.121 276.834 267.014 276.851 266.906 276.851L266.908 276.853Z" fill="#4F2B2B"/>
<path d="M283.682 256.634C288.072 254.747 290.808 251.303 289.793 248.943C288.778 246.582 284.396 246.2 280.006 248.087C275.616 249.975 272.88 253.419 273.895 255.779C274.91 258.14 279.292 258.522 283.682 256.634Z" fill="#FF9D6C"/>
<path d="M279.151 459.795C279.051 459.795 278.945 459.78 278.842 459.749C278.272 459.578 277.95 458.978 278.121 458.41L287.745 426.333C287.914 425.765 288.512 425.439 289.084 425.612C289.654 425.783 289.977 426.384 289.806 426.951L280.182 459.028C280.041 459.495 279.614 459.795 279.151 459.795Z" fill="#4F2B2B"/>
<path d="M37.6788 228.477C37.2382 228.477 36.826 228.205 36.6682 227.767C36.4665 227.208 36.7559 226.592 37.3149 226.392L84.8423 209.264C85.4035 209.06 86.0173 209.352 86.2168 209.911C86.4185 210.47 86.1291 211.086 85.5701 211.286L38.0427 228.413C37.9221 228.457 37.7994 228.477 37.6788 228.477Z" fill="#4F2B2B"/>
<path d="M10.3219 238.337C9.88124 238.337 9.4691 238.065 9.31126 237.627C9.10958 237.068 9.39895 236.452 9.95797 236.252L24.4376 231.035C24.9922 230.829 25.6104 231.123 25.8121 231.682C26.0138 232.241 25.7244 232.857 25.1654 233.056L10.6858 238.274C10.5652 238.318 10.4424 238.337 10.3219 238.337Z" fill="#4F2B2B"/>
<path d="M49.4236 241.435C48.9742 241.435 48.5554 241.152 48.4042 240.703C48.2156 240.139 48.5182 239.53 49.0816 239.341L66.1941 233.6C66.7553 233.416 67.3669 233.716 67.5554 234.277C67.744 234.841 67.4414 235.45 66.878 235.639L49.7655 241.38C49.6516 241.418 49.5376 241.435 49.4236 241.435Z" fill="#4F2B2B"/>
<path d="M14.5372 254.433C14.1031 254.433 13.6953 254.17 13.5331 253.74C13.3227 253.185 13.6011 252.563 14.1557 252.352L36.1656 243.993C36.7225 243.781 37.3429 244.061 37.5533 244.616C37.7638 245.171 37.4854 245.793 36.9307 246.004L14.9208 254.363C14.7958 254.411 14.6665 254.433 14.5394 254.433H14.5372Z" fill="#4F2B2B"/>
<path d="M46.1114 260.67C45.6708 260.67 45.2587 260.398 45.1008 259.959C44.8991 259.4 45.1885 258.784 45.7475 258.585L76.8902 247.363C77.4471 247.157 78.0653 247.45 78.2648 248.01C78.4664 248.569 78.1771 249.185 77.6181 249.384L46.4753 260.606C46.3548 260.65 46.232 260.67 46.1114 260.67Z" fill="#4F2B2B"/>
<path d="M18.7545 270.53C18.3139 270.53 17.9017 270.258 17.7439 269.82C17.5422 269.261 17.8316 268.645 18.3906 268.445L32.8702 263.228C33.427 263.024 34.0452 263.315 34.2447 263.874C34.4464 264.433 34.1571 265.049 33.598 265.249L19.1184 270.466C18.9978 270.51 18.8751 270.53 18.7545 270.53Z" fill="#4F2B2B"/>
<path d="M420.671 459.123C420.654 459.123 420.636 459.123 420.621 459.123C420.027 459.094 419.568 458.592 419.597 457.998L423.175 382.369C423.203 381.775 423.745 381.319 424.299 381.345C424.893 381.373 425.352 381.875 425.323 382.469L421.745 458.099C421.719 458.675 421.243 459.123 420.671 459.123Z" fill="#4F2B2B"/>
</g>
<defs>
<clipPath id="clip0_760_16206">
<rect width="460" height="460" fill="white"/>
</clipPath>
</defs>
</svg>
