<?xml version="1.0" encoding="utf-8"?>
<!-- Generator: Adobe Illustrator 27.7.0, SVG Export Plug-In . SVG Version: 6.00 Build 0)  -->
<svg version="1.1" id="Layer_1" xmlns="http://www.w3.org/2000/svg" xmlns:xlink="http://www.w3.org/1999/xlink" x="0px" y="0px"
	 viewBox="0 0 460 460" style="enable-background:new 0 0 460 460;" xml:space="preserve">
<style type="text/css">
	.st0{clip-path:url(#SVGID_00000085933333496135412980000007215482093430272937_);}
	.st1{fill:#FFFFFF;}
	.st2{fill:#F29EC3;}
	.st3{fill:#F8D2A0;}
	.st4{fill:#FBE4C6;}
	.st5{fill:#4F2B2B;}
	.st6{fill:#2B6577;}
	.st7{fill:#3F97B1;}
	.st8{fill:#854747;}
	.st9{fill:#BF8888;}
	.st10{clip-path:url(#SVGID_00000098211734278610428850000001784455835616059831_);}
	.st11{fill:#D8F5FD;}
	.st12{fill:#0267A4;}
	.st13{opacity:0.46;fill:#1F1F3B;enable-background:new    ;}
	.st14{fill:#F7FDFE;}
	.st15{opacity:0.26;fill:#2B6577;enable-background:new    ;}
	.st16{fill:#357E94;}
	.st17{opacity:0.2;fill:#0D0D1E;enable-background:new    ;}
	.st18{fill:#FFBE97;}
	.st19{opacity:0.85;fill:#0D0D1E;enable-background:new    ;}
	.st20{opacity:0.85;fill:#FDFFFD;enable-background:new    ;}
	.st21{opacity:0.17;fill:#1F1F39;enable-background:new    ;}
	.st22{fill:#E43A83;}
	.st23{fill:none;}
	.st24{fill:#FF9D6C;}
</style>
<g>
	<defs>
		<rect id="SVGID_1_" x="-0.1" y="0.8" width="460" height="460"/>
	</defs>
	<clipPath id="SVGID_00000181789253470697783560000003913823442047049635_">
		<use xlink:href="#SVGID_1_"  style="overflow:visible;"/>
	</clipPath>
	<g style="clip-path:url(#SVGID_00000181789253470697783560000003913823442047049635_);">
		<rect x="-0.1" y="0.8" class="st1" width="460" height="460"/>
		<path class="st2" d="M-141.9,82.7c0.1,0.1,0.3,0.2,0.4,0.3c0.4,0.2,0.8,0.4,1.2,0.5l-1.4,30.5l-30.9,4.3c-0.2-0.4-0.4-0.9-0.7-1.2
			L-141.9,82.7L-141.9,82.7L-141.9,82.7z M-55.2,156.6c-0.5,0.2-0.9,0.6-1.2,1.1c-0.3,0.5-0.5,1-0.5,1.5l-20.8,0.6L-77,109
			c0.3,0,0.7-0.1,1-0.2L-55.2,156.6L-55.2,156.6z M21.8,183.3c-0.1,0.5-0.1,1,0,1.5L-37,208.2l-15.3-45.7c0.5-0.2,1-0.6,1.4-1.2
			c0.1-0.2,0.2-0.4,0.3-0.6L21.8,183.3L21.8,183.3L21.8,183.3z M69,177.1c0.2,0.8,0.6,1.4,1.4,1.9c0.1,0.1,0.3,0.1,0.4,0.2
			l-18.6,50.2c-0.7-0.2-1.5-0.1-2.1,0.1l-23.3-42.7c0.4-0.2,0.7-0.6,1-1c0.4-0.6,0.6-1.3,0.5-2L69,177.1L69,177.1L69,177.1z
			 M142.5,167.9c0.1,0.3,0.2,0.6,0.4,0.9l-52.7,36.4l-16-26.4c0.3-0.2,0.6-0.5,0.8-0.8c0.4-0.6,0.6-1.2,0.5-1.9L142.5,167.9
			L142.5,167.9z M154.9,215.2c-0.8,1.1-0.7,2.6,0,3.7l-4.4,3.7l-4.2-51.5l10.2,42.9C155.9,214.2,155.3,214.6,154.9,215.2
			L154.9,215.2L154.9,215.2z M356.4,231.3c0,0.7,0.2,1.4,0.7,2l-53.6,49.5l-38.9-55.5c0.2-0.2,0.4-0.4,0.6-0.7
			c0.3-0.4,0.4-0.8,0.5-1.3L356.4,231.3L356.4,231.3z M371.4,191.3c1,0.3,2.2,0,3-0.8l29.2,27.1L362.7,230c-0.2-0.6-0.6-1.1-1.2-1.4
			c-0.2-0.1-0.4-0.2-0.6-0.3L371.4,191.3z M484.7,192.7c0,0.2,0,0.3,0.1,0.5l-80.5,24.3l-29.4-27.4c0,0,0.1-0.1,0.1-0.1
			c0.3-0.5,0.5-1,0.5-1.6L484.7,192.7L484.7,192.7z M459.2,265c-1.1-0.3-2.2,0-3.1,0.7l-51.3-47.7l80.2-24.2
			c0.2,0.6,0.7,1.1,1.2,1.5c0.1,0.1,0.2,0.1,0.3,0.2L459.2,265L459.2,265L459.2,265z M363.9,331.8c-1-0.6-2.2-0.7-3.1-0.2l27.8-28.9
			L363.9,331.8L363.9,331.8L363.9,331.8z M382.4,376.6c-0.4,0.2-0.8,0.6-1,1c-0.1,0.2-0.2,0.4-0.3,0.7l-28.1-7.5l8.5-32.9
			c0.6,0.1,1.2,0.1,1.8-0.2L382.4,376.6L382.4,376.6z M351.5,457.6l-12.4-51.3l2.9-2c0.2,0.2,0.4,0.5,0.7,0.6
			c0.6,0.4,1.3,0.6,1.9,0.5L351.5,457.6L351.5,457.6L351.5,457.6z M273.5,503.6c-0.5,0.1-1.1,0.4-1.5,0.7l-73.3-72.2l65.2,22.1
			c-0.3,1.3,0.2,2.7,1.4,3.5c1.2,0.8,2.7,0.7,3.8-0.1L273.5,503.6L273.5,503.6z M189.5,370.1c0.4-0.1,0.8-0.3,1.2-0.5l37.4,42
			l-30.3,19.3L189.5,370.1L189.5,370.1L189.5,370.1z M140.1,349.1c0.2-0.6,0.1-1.3-0.1-1.9l34.8-16.6l12.5,33.4
			c-0.5,0.2-1,0.6-1.3,1.1c-0.1,0.1-0.2,0.3-0.2,0.4L140.1,349.1L140.1,349.1L140.1,349.1z M2.2,342.2c0-0.4-0.1-0.8-0.3-1.1
			l59.8-33.2l71.2,38.2L2.2,342.2L2.2,342.2L2.2,342.2z M-28.7,233.5c0.4-0.1,0.7-0.3,1-0.5l54.9,55.2c-0.1,0.1-0.1,0.2-0.2,0.3
			c-1,1.5-0.6,3.4,0.8,4.5L0.4,339.5c-0.6-0.3-1.3-0.4-1.9-0.3L-28.7,233.5L-28.7,233.5L-28.7,233.5z M-78.3,240.1
			c-0.2-0.7-0.7-1.3-1.3-1.8c-0.3-0.2-0.7-0.4-1-0.5l1.4-9.4c1.1,0.1,2.2-0.4,2.9-1.4c0.2-0.4,0.4-0.8,0.5-1.2l42.7,4.5
			c0,0.1,0,0.3,0,0.4L-78.3,240.1L-78.3,240.1L-78.3,240.1z M-181.1,170.8c0.1-0.1,0.2-0.3,0.3-0.4c0.4-0.6,0.6-1.3,0.5-2l23.8-3.8
			l26.3,62.3c-0.1,0.1-0.3,0.2-0.4,0.3L-181.1,170.8z M-174.3,122.3l17.6,41.6l-23.6,3.8c-0.2-0.8-0.6-1.4-1.3-1.9
			c-0.3-0.2-0.6-0.4-1-0.4l7-42.8C-175.2,122.6-174.7,122.5-174.3,122.3L-174.3,122.3z M-143.6,158.9c-0.5,0-1.1,0.2-1.5,0.5
			l-28-37.8c0.1-0.1,0.2-0.2,0.3-0.4c0.5-0.7,0.6-1.5,0.5-2.2l30.7-4.3L-143.6,158.9z M-80.2,106.1c0,0.4,0.2,0.8,0.3,1.2
			l-61.3,52.6c-0.1-0.1-0.3-0.3-0.5-0.4c-0.4-0.3-0.9-0.5-1.4-0.5l2-44.4L-80.2,106.1L-80.2,106.1L-80.2,106.1z M-78.3,159.9
			l-61.9,1.9c-0.1-0.5-0.3-1-0.6-1.5l61.2-52.5c0.2,0.3,0.5,0.5,0.8,0.8c0.4,0.2,0.8,0.4,1.2,0.5L-78.3,159.9L-78.3,159.9
			L-78.3,159.9z M-55.4,162.2c0.1,0.1,0.2,0.1,0.4,0.2l-23,59.7c-0.2-0.1-0.4-0.1-0.5-0.1l0.9-61.5l20.8-0.6
			C-56.8,160.8-56.3,161.7-55.4,162.2L-55.4,162.2z M-37.5,208.4l-38.6,15.4c-0.2-0.5-0.6-0.9-1.1-1.2c-0.1-0.1-0.2-0.1-0.4-0.2
			l18.4-47.7l4.6-12c0.6,0.1,1.1,0.1,1.7,0L-37.5,208.4L-37.5,208.4L-37.5,208.4z M22.2,185.7l-49.7,42.4c-0.1-0.1-0.3-0.3-0.5-0.4
			c-0.8-0.5-1.7-0.6-2.6-0.5l-6.2-18.5L22,185.3C22,185.5,22.1,185.6,22.2,185.7L22.2,185.7L22.2,185.7z M49.4,229.8
			c-0.4,0.2-0.7,0.5-0.9,0.9c-0.3,0.4-0.5,0.9-0.5,1.4l-20.7-0.5l-2.1-44.3c0.3,0,0.6-0.1,0.9-0.2L49.4,229.8L49.4,229.8L49.4,229.8
			z M115.5,248.1c-0.3,0.2-0.6,0.5-0.8,0.8c0,0.1-0.1,0.1-0.1,0.2l-60.1-16.1c0.1-0.7,0-1.5-0.4-2.1L90,206.1L115.5,248.1
			L115.5,248.1z M119.7,248.4c-0.1-0.1-0.3-0.3-0.5-0.4c-0.2-0.1-0.3-0.2-0.5-0.3l26.1-77.4c0.2,0,0.5,0.1,0.7,0.1l4.3,52.6
			L119.7,248.4L119.7,248.4z M153.8,270.7c-0.9,0.1-1.6,0.6-2.2,1.4c0,0,0,0,0,0l-31.2-19.9c0.5-1.1,0.4-2.3-0.3-3.3l29.8-25.1
			L153.8,270.7L153.8,270.7L153.8,270.7z M155.8,219.8c0.4,0.3,0.9,0.4,1.3,0.5l-2.8,49.3l-3.8-46.2l4.8-4
			C155.4,219.5,155.6,219.6,155.8,219.8L155.8,219.8z M253.1,272.9l-95.4,0.9c0-1-0.5-2-1.5-2.6c-0.4-0.3-0.9-0.4-1.3-0.5l2.9-50.4
			c1,0,2-0.5,2.6-1.4l93.2,52.5C253.2,271.9,253.1,272.4,253.1,272.9L253.1,272.9L253.1,272.9z M262.6,228.1l10.8,79.1
			c-0.1,0-0.2,0-0.3,0.1l-14.9-31.5c0.4-0.2,0.7-0.5,0.9-0.9c1-1.5,0.6-3.5-0.9-4.5c-0.4-0.2-0.7-0.4-1.1-0.5l5.3-41.7
			C262.4,228.1,262.5,228.1,262.6,228.1L262.6,228.1L262.6,228.1z M276.2,307.9c-0.1-0.1-0.2-0.2-0.4-0.3c-0.6-0.4-1.3-0.6-2-0.5
			L263.1,228c0.3-0.1,0.6-0.2,0.9-0.3l38.9,55.6L276.2,307.9L276.2,307.9L276.2,307.9z M319.3,306.6c-0.2,0.2-0.4,0.4-0.6,0.7
			c-0.3,0.5-0.5,1-0.5,1.6l-40.9,1c-0.1-0.6-0.3-1.1-0.6-1.6l26.6-24.6L319.3,306.6L319.3,306.6L319.3,306.6z M357.8,234.1
			c0,0,0.1,0.1,0.2,0.1L322.6,306c-0.9-0.4-2-0.3-2.8,0.2l-16.1-22.9l53.7-49.6C357.6,233.9,357.7,234,357.8,234.1L357.8,234.1z
			 M455.5,266.3c-0.1,0.1-0.2,0.2-0.2,0.4l-92.5-34.6c0.1-0.5,0.1-1,0-1.4l41.2-12.5l51.6,48C455.6,266.2,455.6,266.3,455.5,266.3
			L455.5,266.3L455.5,266.3z M404.1,253.7c-1.5-1-3.4-0.6-4.5,0.8l-36.8-21.8l91.6,34.3l-48.9-10.2
			C405.7,255.7,405.1,254.5,404.1,253.7L404.1,253.7L404.1,253.7z M393.6,292.6l-12.1-22.2l18.3-11.9c0.2,0.3,0.5,0.5,0.8,0.7
			c0.3,0.2,0.6,0.3,0.9,0.4l-6.1,32.7C394.7,292.3,394.1,292.4,393.6,292.6L393.6,292.6z M324.6,308.2c-0.1-0.2-0.1-0.4-0.2-0.6
			l56.6-36.9l12.1,22.2c-0.3,0.2-0.7,0.5-0.9,0.9c-0.5,0.7-0.6,1.5-0.5,2.2L324.6,308.2L324.6,308.2L324.6,308.2z M330.7,362
			c-0.1-0.1-0.2-0.1-0.2-0.2c-0.6-0.4-1.3-0.6-1.9-0.5l-6.4-49c0.8-0.2,1.5-0.6,2-1.4c0.4-0.6,0.6-1.4,0.5-2.1l67.1-12.2
			c0.1,0.5,0.4,0.9,0.7,1.2L330.7,362L330.7,362L330.7,362z M359.4,336.5l-24.7,22.2l24.4-25.3C358.6,334.4,358.8,335.6,359.4,336.5
			z M331.9,365.1c0.2-0.9-0.1-1.8-0.6-2.5l28.5-25.7c0.2,0.1,0.3,0.3,0.5,0.4c0.2,0.1,0.4,0.2,0.6,0.3l-8.5,32.9L331.9,365.1
			L331.9,365.1L331.9,365.1z M345,399c-0.5-0.1-1,0-1.5,0.1l-13.3-31.6c0.5-0.2,0.9-0.6,1.2-1.1c0.1-0.2,0.2-0.4,0.3-0.7l20.5,5.5
			L345,399L345,399z M381.1,380.8l-34,19.5c-0.2-0.3-0.5-0.6-0.9-0.8c-0.2-0.1-0.5-0.3-0.7-0.4l7.2-27.8l28.1,7.5
			C380.8,379.5,380.8,380.2,381.1,380.8L381.1,380.8L381.1,380.8z M269.6,452.9c-0.1-0.1-0.2-0.3-0.4-0.4l0-0.2l57.8-84.9
			c0.7,0.4,1.4,0.5,2.1,0.4l9.3,38.2L269.6,452.9L269.6,452.9L269.6,452.9z M264.7,452.8c-0.1,0.1-0.2,0.3-0.3,0.4
			c-0.1,0.1-0.2,0.3-0.3,0.5l-65.9-22.4l30.2-19.3L264.7,452.8L264.7,452.8L264.7,452.8z M191.3,369l50.7,33.7l-13.5,8.6l-37.4-42.1
			C191.2,369.1,191.2,369,191.3,369z M175.4,330.3l52.6-25.1c0.2,0.3,0.4,0.6,0.8,0.9l-38.5,58c-0.8-0.4-1.6-0.5-2.4-0.3
			L175.4,330.3L175.4,330.3L175.4,330.3z M138.8,345.6c-0.2-0.2-0.5-0.3-0.8-0.4l15.8-68.1c0.4,0.1,0.8,0.1,1.2,0l19.7,52.9
			l-34.9,16.6C139.5,346.2,139.2,345.9,138.8,345.6L138.8,345.6z M92.8,290.7c0.2,0.3,0.5,0.6,0.9,0.9c1.1,0.7,2.4,0.7,3.5,0.1
			l37.6,54.2c-0.2,0.1-0.3,0.3-0.4,0.5l-72-38.7L92.8,290.7L92.8,290.7L92.8,290.7z M32.7,291.6c0.1-0.3,0.2-0.7,0.2-1l59.4-1.4
			c0,0.3,0.1,0.7,0.3,1l-30.8,17.1L32.7,291.6L32.7,291.6L32.7,291.6z M-27.1,232.3c0.3-0.4,0.5-0.9,0.5-1.4l53.2,1.4l2.5,54.9
			c-0.6,0.1-1.2,0.3-1.6,0.7l-54.9-55.2C-27.2,232.5-27.2,232.4-27.1,232.3L-27.1,232.3z M49.4,235.3c0.1,0.1,0.2,0.1,0.4,0.2
			l-19.3,51.7c-0.2-0.1-0.5-0.1-0.7-0.1l-2.5-54.8l20.7,0.5C48,233.7,48.5,234.7,49.4,235.3L49.4,235.3L49.4,235.3z M151.1,274.6
			l-27.9,7l-5.8-27.5c1,0,2-0.5,2.6-1.3l31.2,20C151,273.3,151,274,151.1,274.6L151.1,274.6L151.1,274.6z M254.2,275.5l-21.5,25.4
			c0,0,0,0-0.1,0c-1.5-1-3.5-0.6-4.5,0.9c-0.1,0.1-0.1,0.2-0.2,0.4l-64.4-24.7l-6.1-2.3c0.1-0.2,0.1-0.4,0.2-0.6l95.5-0.9
			C253.2,274.2,253.6,275,254.2,275.5L254.2,275.5L254.2,275.5z M256.4,276.3l1.5,31l-23.8-3.5c0-0.9-0.3-1.8-0.9-2.5l21.5-25.4
			C255.2,276.1,255.8,276.3,256.4,276.3L256.4,276.3L256.4,276.3z M318.6,310.8l-25,18.5l-17-16.9c0.1-0.1,0.1-0.2,0.2-0.3
			c0.3-0.5,0.5-1,0.5-1.6l40.9-1C318.2,310,318.4,310.4,318.6,310.8L318.6,310.8L318.6,310.8z M326.5,362L294,329.7l25-18.5
			c0.2,0.2,0.4,0.4,0.6,0.5c0.6,0.4,1.3,0.6,1.9,0.5l6.4,49C327.4,361.5,326.9,361.7,326.5,362L326.5,362z M268.6,452.1
			c-0.5-0.2-1-0.4-1.5-0.4l-3.6-55.7l62.3-29.9c0.2,0.3,0.4,0.6,0.7,0.8L268.6,452.1z M243.5,407.2c0.9,0.6,1.9,0.7,2.8,0.4
			l5.4,12.4l13.9,32.2c-0.1,0.1-0.2,0.1-0.3,0.2L229,411.7l13.3-8.5C241.7,404.6,242.1,406.3,243.5,407.2L243.5,407.2z M192,366.6
			l46.4-8.4l6.2,43c-0.7,0.2-1.3,0.5-1.8,1.1l-51.1-34C191.9,367.9,192,367.3,192,366.6L192,366.6z M229.3,306.4
			c0.5,0.3,1.1,0.4,1.7,0.4l7.3,50.9l-46.4,8.4c-0.2-0.6-0.5-1.2-1.1-1.7L229.3,306.4L229.3,306.4z M157,275.7c0,0,0-0.1,0.1-0.1
			l41.8,16l28.8,11c-0.2,0.7-0.1,1.4,0.1,2l-52.6,25.1L155.5,277C156.1,276.7,156.6,276.3,157,275.7L157,275.7z M260,350.9
			c-0.3,0-0.5,0.1-0.8,0.2l-26.5-44.9c0.3-0.2,0.6-0.5,0.8-0.8c0.2-0.3,0.4-0.7,0.5-1l23.9,3.5L260,350.9L260,350.9L260,350.9z
			 M272.2,313c0.1,0.1,0.3,0.2,0.4,0.2L261.5,351c-0.3-0.1-0.6-0.1-0.9-0.2l-2.1-42.9l12.3,1.8C270.6,311,271.1,312.3,272.2,313
			L272.2,313L272.2,313z M262.9,352c-0.2-0.2-0.4-0.4-0.6-0.5c-0.1,0-0.1-0.1-0.2-0.1l11.1-37.8c1,0.3,2.1,0,2.9-0.6l17,16.9
			L262.9,352L262.9,352z M325.9,362.7c-0.2,0.3-0.4,0.7-0.5,1l-61.7-9.4c0-0.7-0.1-1.3-0.5-1.9l30.2-22.3l32.6,32.4
			C326,362.6,326,362.7,325.9,362.7L325.9,362.7L325.9,362.7z M261,357.3c0.9-0.1,1.7-0.6,2.2-1.4c0.2-0.3,0.4-0.7,0.5-1l61.7,9.4
			c0,0.5,0,0.9,0.2,1.3l-62.1,29.7L261,357.3L261,357.3L261,357.3z M248.1,402.8c-0.2-0.4-0.6-0.8-1-1c-0.2-0.1-0.4-0.2-0.6-0.3
			l4.8-15.8l8.6-28.4c0.2,0,0.4,0,0.5,0.1l2.5,38.3L248.1,402.8L248.1,402.8L248.1,402.8z M257.3,354.8c0.2,0.8,0.6,1.5,1.4,2
			c0.2,0.1,0.4,0.2,0.6,0.3l-13.3,44.1c-0.3,0-0.5-0.1-0.8-0.1l-6.2-43.1L257.3,354.8L257.3,354.8L257.3,354.8z M232.2,306.5
			l26.4,45c-0.3,0.2-0.6,0.5-0.8,0.8c-0.4,0.6-0.6,1.2-0.5,1.9l-18.4,3.3l-7.3-50.8C231.8,306.7,232,306.6,232.2,306.5L232.2,306.5
			L232.2,306.5z M266,451.9l-11.9-27.6l-7.3-17c0.5-0.2,0.9-0.6,1.2-1.1c0.6-0.9,0.7-2,0.3-2.9l14.6-7l3.6,55.5
			C266.4,451.8,266.2,451.9,266,451.9L266,451.9z M123.4,282.2l27.9-7c0.2,0.6,0.6,1.1,1.2,1.5c0.2,0.1,0.5,0.3,0.7,0.3l-9.6,41.4
			l-6.2,26.8c-0.3,0-0.5,0-0.8,0L123.4,282.2L123.4,282.2z M135.4,345.5l-37.7-54.2c0.2-0.2,0.4-0.4,0.6-0.6
			c0.5-0.7,0.6-1.6,0.5-2.4l24-6l13.2,62.9C135.8,345.3,135.6,345.4,135.4,345.5L135.4,345.5L135.4,345.5z M32.7,289.2l45.9-21.4
			l14.7,18.6c-0.2,0.2-0.4,0.4-0.5,0.6c-0.3,0.5-0.5,1-0.5,1.5l-59.4,1.4C32.9,289.7,32.8,289.5,32.7,289.2L32.7,289.2z M97.4,286.1
			L97.4,286.1l1.6-2.9L115,253c0.2,0.2,0.4,0.4,0.6,0.5c0.4,0.2,0.8,0.4,1.2,0.5l5.8,27.7l-24,6C98.4,287.1,98,286.5,97.4,286.1
			L97.4,286.1L97.4,286.1z M114.2,251.3c0.1,0.4,0.2,0.8,0.4,1.2l-16.2,30.5l-1.6,3c-1-0.4-2.1-0.3-3,0.2l-14.6-18.5L114.2,251.3
			L114.2,251.3L114.2,251.3z M53.5,234.9c0.2-0.2,0.3-0.4,0.5-0.6c0.1-0.2,0.2-0.4,0.3-0.7l60,16.1c-0.1,0.3-0.1,0.6-0.2,0.9
			l-35.3,16.5L53.5,234.9L53.5,234.9L53.5,234.9z M31.5,287.6c-0.1-0.1-0.2-0.1-0.4-0.2l19.3-51.7c0.9,0.2,1.9,0.1,2.6-0.4
			l25.3,32.1l-45.8,21.3C32.2,288.2,31.9,287.9,31.5,287.6L31.5,287.6z M361,234.3l19.6,35.9L324,307.1c-0.2-0.3-0.5-0.5-0.8-0.7
			c0,0-0.1,0-0.1-0.1l35.4-71.9C359.3,234.7,360.2,234.7,361,234.3L361,234.3L361,234.3z M399.3,255.1c-0.5,1-0.4,2,0.1,2.9
			l-18.2,11.9L361.6,234c0.3-0.2,0.6-0.5,0.8-0.8L399.3,255.1L399.3,255.1L399.3,255.1z M257.5,276l14.9,31.4
			c-0.4,0.2-0.8,0.6-1.1,1c-0.1,0.2-0.3,0.5-0.3,0.7l-12.5-1.9l-1.5-31.1C257.2,276.1,257.4,276.1,257.5,276L257.5,276z M22.5,186.2
			c0.2,0.2,0.4,0.4,0.6,0.5c0.5,0.3,1,0.5,1.5,0.5l2.1,44.3l-53.2-1.4c0-0.6-0.2-1.2-0.6-1.7L22.5,186.2L22.5,186.2L22.5,186.2z
			 M-75.9,224.3l38.5-15.4l6.2,18.5c-0.6,0.2-1,0.6-1.4,1.2c-0.2,0.4-0.4,0.8-0.5,1.2l-42.7-4.5C-75.7,225-75.8,224.6-75.9,224.3
			L-75.9,224.3z M-81.2,237.8c-0.7,0-1.4,0.1-2,0.5l-9.1-11.6l10.1-0.9c0.2,0.8,0.6,1.6,1.4,2.1c0.3,0.2,0.7,0.4,1,0.5L-81.2,237.8
			L-81.2,237.8z M-125.4,229.8l32.3-2.9l9.3,11.9c-0.2,0.2-0.3,0.4-0.5,0.6c-0.2,0.2-0.3,0.5-0.4,0.8l-40.9-9.8
			C-125.4,230.1-125.4,229.9-125.4,229.8L-125.4,229.8L-125.4,229.8z M-126.8,227c-0.7-0.5-1.5-0.6-2.2-0.5l-13.4-61.3
			c0.3-0.1,0.5-0.2,0.8-0.4l48.2,61.4l-32,2.9C-125.6,228.3-126.1,227.5-126.8,227L-126.8,227L-126.8,227z M-146.6,162.9
			c0.2,0.8,0.6,1.4,1.3,1.9c0.7,0.4,1.5,0.6,2.2,0.5l13.4,61.2l-26.2-62.2L-146.6,162.9L-146.6,162.9L-146.6,162.9z M-81.1,222.7
			l-35.4-34.6l-24.4-23.9c0.1-0.1,0.1-0.2,0.2-0.2c0.3-0.5,0.5-1.1,0.5-1.6l61.8-1.9l-0.9,61.5C-79.9,222-80.6,222.3-81.1,222.7
			L-81.1,222.7L-81.1,222.7z M-91.7,213.3l10.1,9.9c-0.1,0.1-0.1,0.2-0.2,0.2c-0.4,0.6-0.5,1.2-0.6,1.8l-10.5,0.9l-47.6-60.6
			L-91.7,213.3L-91.7,213.3z M-173.7,122c0.1,0,0.1-0.1,0.2-0.1l28,37.8c-0.2,0.2-0.4,0.4-0.5,0.6c-0.4,0.6-0.6,1.3-0.5,2l-9.4,1.5
			L-173.7,122L-173.7,122z M1.7,340.6c-0.2-0.3-0.5-0.6-0.8-0.8l27.4-46.5c1.4,0.7,3.2,0.2,4.1-1.1l28.8,15.5L1.7,340.6L1.7,340.6z
			 M349.8,461.3c-0.2,0.4-0.4,0.8-0.5,1.2l-79-7.5c0-0.6-0.1-1.1-0.4-1.6l68.6-46.8l13,53.5C350.8,460.3,350.3,460.7,349.8,461.3
			L349.8,461.3L349.8,461.3z M338.9,405.6l-9.1-37.5l13.1,31.2c-0.5,0.2-0.9,0.6-1.2,1.1c-0.7,1-0.7,2.4-0.1,3.4L338.9,405.6
			L338.9,405.6z M143.2,169.3c0.2,0.2,0.4,0.4,0.7,0.6c0.2,0.1,0.3,0.2,0.5,0.3l-26.1,77.4c-0.7-0.2-1.5-0.1-2.2,0.2l-25.6-42.1
			L143.2,169.3L143.2,169.3L143.2,169.3z M73.6,179.2l16,26.4l-35.9,24.8c-0.2-0.2-0.4-0.5-0.7-0.6c-0.1-0.1-0.3-0.1-0.4-0.2
			l18.7-50.2C72.1,179.6,72.9,179.5,73.6,179.2L73.6,179.2z M-139.6,83.6c1.1,0,2.1-0.5,2.7-1.5c0.1-0.2,0.2-0.4,0.3-0.6l22.2,9
			l34.4,14c-0.1,0.3-0.2,0.6-0.2,0.9l-60.7,8.5L-139.6,83.6L-139.6,83.6L-139.6,83.6z M-185.3,171.3c1.2,0.8,2.7,0.7,3.8-0.1
			l50.5,56.3c-0.1,0.1-0.2,0.3-0.3,0.4c-1,1.5-0.6,3.5,0.9,4.5s3.5,0.6,4.5-0.9c0.2-0.2,0.3-0.5,0.4-0.8l40.9,9.8
			c-0.2,1.2,0.3,2.5,1.4,3.2c1.5,1,3.5,0.6,4.5-0.9c0.4-0.7,0.6-1.4,0.5-2.2l45.2-9.3c0.2,0.7,0.7,1.3,1.3,1.8
			c0.7,0.5,1.5,0.6,2.3,0.5l27.2,105.7c-0.6,0.2-1.2,0.7-1.6,1.3c-1,1.5-0.6,3.5,0.9,4.5s3.5,0.6,4.5-0.9c0.3-0.4,0.5-0.9,0.5-1.4
			l131.9,4c-0.8,1.5-0.3,3.3,1.1,4.2c1.5,1,3.5,0.6,4.5-0.9c0.1-0.1,0.2-0.3,0.2-0.4l45.6,16.4c-0.3,1.3,0.2,2.8,1.4,3.5
			c0.6,0.4,1.3,0.6,2,0.5l8.3,60.8l-0.8-0.3l0.9,0.9l0,0.4l0.2-0.1l74.1,73c-0.1,0.1-0.1,0.2-0.2,0.3c-1,1.5-0.6,3.5,0.9,4.5
			s3.5,0.6,4.5-0.9s0.6-3.5-0.9-4.5c-0.6-0.4-1.2-0.5-1.8-0.5l-4.5-46.5c0.1-0.1,0.1-0.1,0.2-0.2c0.2-0.4,0.4-0.8,0.5-1.2l79,7.5
			c0,1.1,0.5,2.1,1.5,2.7c1.5,1,3.5,0.6,4.5-0.9s0.6-3.5-0.9-4.5c-0.6-0.4-1.3-0.6-1.9-0.5l-7.2-54.5c0.8-0.2,1.5-0.6,2-1.4
			c0.7-1,0.7-2.2,0.2-3.2l34-19.5c0.2,0.3,0.5,0.6,0.9,0.8c1.5,1,3.5,0.6,4.5-0.9s0.6-3.5-0.9-4.5c-0.9-0.6-2-0.7-3-0.3l-19.1-39
			c0.4-0.2,0.8-0.6,1-1c0.9-1.4,0.7-3.1-0.5-4.2l28.8-33.9c1.5,1,3.5,0.6,4.5-0.9c1-1.5,0.6-3.5-0.9-4.5c-0.3-0.2-0.5-0.3-0.8-0.4
			l6.1-32.8c1.2,0.1,2.3-0.4,3-1.5c0.2-0.3,0.3-0.6,0.4-0.9l49.6,10.3c-0.1,1.2,0.4,2.4,1.4,3.1c1.5,1,3.5,0.6,4.5-0.9
			s0.6-3.5-0.9-4.5c-0.1-0.1-0.2-0.1-0.3-0.2l27.3-69.6c1.3,0.4,2.8-0.1,3.6-1.3c1-1.5,0.6-3.5-0.9-4.5s-3.5-0.6-4.5,0.9
			c-0.3,0.4-0.5,0.9-0.5,1.4l-109.3-4.3c-0.1-0.9-0.6-1.8-1.4-2.4c-1.5-1-3.5-0.6-4.5,0.9s-0.6,3.5,0.9,4.5c0.2,0.1,0.3,0.2,0.5,0.2
			l-10.5,37c-1.3-0.3-2.6,0.2-3.4,1.4c-0.2,0.4-0.4,0.8-0.5,1.2l-90.8-6c0-1-0.5-2-1.5-2.6c-1.5-1-3.5-0.6-4.5,0.9s-0.6,3.5,0.9,4.5
			c0.4,0.2,0.7,0.4,1.1,0.5l-5.3,41.7c-1.1,0-2.2,0.5-2.8,1.5l0.1-0.3l-93.2-52.6c0.6-1.4,0.2-3.2-1.2-4.1c-0.7-0.5-1.5-0.6-2.3-0.5
			l-10.4-43.5c0.7-0.2,1.3-0.7,1.7-1.3c1-1.5,0.6-3.5-0.9-4.5s-3.5-0.6-4.5,0.9c-0.4,0.6-0.6,1.2-0.5,1.9l-67,8.3
			c-0.2-0.8-0.6-1.5-1.4-2c-1.5-1-3.5-0.6-4.5,0.9c-0.4,0.6-0.6,1.3-0.5,2l-40.8,6.7c-0.2-0.8-0.6-1.4-1.4-1.9
			c-1.5-1-3.5-0.6-4.5,0.9c-0.1,0.2-0.2,0.3-0.3,0.5l-72.4-22.6c0.2-1.3-0.3-2.6-1.4-3.3c-0.9-0.6-1.9-0.7-2.8-0.4l-20.8-47.7
			c0.5-0.2,0.9-0.6,1.2-1.1c1-1.5,0.6-3.5-0.9-4.5c-1.5-1-3.5-0.6-4.5,0.9c0,0,0,0,0,0l-37.1-15.1l-19.6-8c0.3-1.3-0.2-2.6-1.4-3.4
			c-1.5-1-3.5-0.6-4.5,0.9c-0.8,1.2-0.7,2.7,0.1,3.7l-31.4,34.5c0,0-0.1-0.1-0.1-0.1c-1.5-1-3.5-0.6-4.5,0.9s-0.6,3.5,0.9,4.5
			c0.4,0.2,0.7,0.4,1.1,0.5l-7,42.8c-1.1-0.1-2.3,0.4-2.9,1.4C-187.2,168.3-186.8,170.3-185.3,171.3L-185.3,171.3z"/>
		<path class="st3" d="M71.4,124.8l8.6,9.7c0.9,1,2.1,1.7,3.5,1.9l3.4,0.5c2.1,0.3,4.1-0.2,5.6-1.5c1.6-1.3,2.5-3.2,2.6-5.2l0.2-3.5
			c0.1-1.4-0.3-2.7-1.2-3.8l-7.7-10.3L71.4,124.8L71.4,124.8L71.4,124.8z"/>
		<path class="st4" d="M54.1,87.4c-11.7,9.5-6,22.1-2.8,26.1s9.4,6.9,12,8.1c4.1,1.9,8.4,5.7,11.5,3.2l11.7-9.5
			c3.1-2.5,0.3-7.4-0.8-11.9c-0.6-2.8-2.3-9.5-5.5-13.4S65.8,77.9,54.1,87.4L54.1,87.4z"/>
		<path class="st5" d="M86.3,129.9c-4.8,3.9-7.9,3.6-8,3.6c-0.4-0.1-0.7-0.5-0.7-0.9c0.1-0.4,0.5-0.8,0.9-0.7c0.1,0,3.2,0.2,8.1-4.4
			c5-4.6,4.5-7.8,4.5-7.8c-0.1-0.4,0.2-0.8,0.7-0.9s0.9,0.2,0.9,0.6c0,0.2,0.6,4-5,9.3C87.2,129.1,86.8,129.5,86.3,129.9L86.3,129.9
			L86.3,129.9z"/>
		<path class="st5" d="M84.5,127.7c-4.8,3.9-7.9,3.6-8,3.6c-0.4-0.1-0.7-0.5-0.7-0.9c0.1-0.4,0.5-0.8,0.9-0.7c0.1,0,3.2,0.2,8.1-4.4
			c5-4.6,4.5-7.8,4.5-7.8c-0.1-0.4,0.2-0.8,0.7-0.9c0.4-0.1,0.9,0.2,0.9,0.6c0,0.2,0.6,4-5,9.3C85.5,126.9,85,127.4,84.5,127.7
			L84.5,127.7L84.5,127.7z"/>
		<path class="st5" d="M82.7,125.5c-4.8,3.9-7.9,3.6-8,3.6c-0.4-0.1-0.7-0.5-0.7-0.9c0.1-0.4,0.5-0.8,0.9-0.7c0.1,0,3.2,0.2,8.1-4.4
			c5-4.6,4.5-7.8,4.5-7.8c-0.1-0.4,0.2-0.8,0.7-0.9s0.9,0.2,0.9,0.6c0,0.2,0.6,4-5,9.3C83.7,124.7,83.2,125.2,82.7,125.5L82.7,125.5
			L82.7,125.5z"/>
		<path class="st5" d="M88.1,132.1c-4.8,3.9-7.9,3.6-8,3.6c-0.4-0.1-0.7-0.5-0.7-0.9c0.1-0.4,0.5-0.8,0.9-0.7c0.1,0,3.2,0.2,8.1-4.4
			c5-4.6,4.5-7.8,4.5-7.8c-0.1-0.4,0.2-0.8,0.7-0.9c0.4-0.1,0.9,0.2,0.9,0.6c0,0.2,0.6,4-5,9.3C89,131.3,88.5,131.7,88.1,132.1
			L88.1,132.1L88.1,132.1z"/>
		<path class="st5" d="M76.6,122.3c-3-1.6-6-3.2-8.7-5.2c-2.5-1.8-4.9-4-6.1-7c-0.5-1.4-0.7-2.9-0.5-4.4c0.2-1.5,0.9-3.1,2.1-4
			c1.1-0.9,2.7-0.9,4.1-0.5c1.5,0.5,2.9,1.3,4.1,2.3c0.9,0.8,1.9,2,1.8,3.3c-0.1,1.3-1.4,1.8-2.5,1.9c-2.1,0.2-4.4-0.9-5.4-2.8
			c-1.3-2.5-0.1-5.2,1.6-7.1c0.8-1,1.9-1.8,3.1-2.1c1.4-0.3,2.8,0.3,3.9,1.1c1.2,0.9,2.1,2.2,2.9,3.5c0.8,1.4,1.4,2.8,1.9,4.3
			c1.1,3,1.7,6.1,2.1,9.2c0.1,0.8,0.2,1.6,0.2,2.3c0,0.4,0.7,0.3,0.6-0.1c-0.3-3.5-0.9-6.9-1.9-10.3c-0.5-1.7-1.2-3.3-2-4.9
			c-0.8-1.5-1.6-2.9-2.9-4c-1.1-1-2.6-1.9-4.1-1.9c-1.4,0-2.7,0.7-3.7,1.6c-2,1.9-3.7,4.9-2.9,7.7c0.7,2.3,2.9,3.9,5.2,4.2
			c1.1,0.1,2.6-0.1,3.5-0.9c0.9-0.9,0.9-2.2,0.4-3.3c-0.6-1.4-2-2.6-3.3-3.4c-1.3-0.8-2.9-1.5-4.4-1.5c-1.6,0-3,0.7-3.9,2.1
			c-0.9,1.3-1.3,3-1.4,4.6c0,3.4,1.9,6.3,4.3,8.6c2.6,2.5,5.8,4.4,8.9,6.1c0.8,0.4,1.6,0.9,2.5,1.3C76.7,123.1,77,122.5,76.6,122.3
			L76.6,122.3L76.6,122.3z"/>
		<path class="st5" d="M52.3,136.8c5.7,2.9,11.6,5.6,17.7,8.1c1.7,0.7,3.4,1.4,5.1,2c0.4,0.2,0.8-0.6,0.4-0.8
			c-6.1-2.3-12-4.8-17.8-7.6c-1.6-0.8-3.2-1.6-4.9-2.4C52.5,135.9,51.9,136.6,52.3,136.8L52.3,136.8L52.3,136.8z"/>
		<path class="st5" d="M50.2,154.2c6.2,0.3,12.5,0.4,18.8,0.3c1.8,0,3.6-0.1,5.3-0.1c0.6,0,0.5-0.9-0.1-0.9
			c-6.2,0.2-12.4,0.2-18.6,0c-1.8-0.1-3.5-0.1-5.3-0.2C49.7,153.2,49.6,154.2,50.2,154.2L50.2,154.2z"/>
		<path class="st5" d="M100.4,99.4c1.2,6,2.5,11.9,4,17.8c0.4,1.6,0.8,3.3,1.2,4.9c0.1,0.4,0.9-0.1,0.8-0.5
			c-1.5-5.8-2.9-11.7-4.1-17.7c-0.4-1.7-0.7-3.3-1-5C101.1,98.5,100.4,99,100.4,99.4L100.4,99.4L100.4,99.4z"/>
		<path class="st5" d="M119.2,94.3c-0.9,4.5-1.7,9.1-2.4,13.6c-0.5,3.6-1,7.1-1.5,10.7c-0.1,0.7-0.2,1.3-0.2,2
			c-0.1,0.6,0.9,0.7,0.9,0.1c0.2-2,0.5-3.9,0.7-5.9c0.6-4.3,1.2-8.6,1.9-12.8c0.4-2.5,0.9-5.1,1.4-7.6
			C120.3,93.8,119.4,93.8,119.2,94.3L119.2,94.3z"/>
		<polygon class="st6" points="360.9,411.8 321.9,411.8 327.8,460.4 355.6,460.4 		"/>
		<path class="st7" d="M323,385.3l5.8,25.9v0.5h4.8l-5.8-27c0-0.2-0.1-0.3-0.2-0.5l-2.2-2.5c-0.6-0.7-1.7-0.4-1.9,0.5l-0.6,2.5
			C323,385,323,385.1,323,385.3L323,385.3z"/>
		<path class="st8" d="M337.2,375.4l0.7,35.4l-0.2,1.4h4.8l-0.5-36.8c0-0.1,0-0.3-0.1-0.4l-1.6-3.5c-0.4-0.9-1.7-0.8-2,0.1l-1.1,3.4
			C337.2,375.1,337.2,375.3,337.2,375.4L337.2,375.4z"/>
		<path class="st3" d="M359.1,383.6l-5.8,28.2v0.6h-4.8l5.8-29.3c0-0.2,0.1-0.3,0.2-0.5l2.2-2.7c0.6-0.7,1.7-0.4,1.9,0.5l0.6,2.8
			C359.1,383.3,359.1,383.4,359.1,383.6L359.1,383.6z"/>
		<path class="st9" d="M352,386.1l-1.7,25.6l-0.3,0.1h-4.8l1.6-25.2c0-0.2,0.1-0.4,0.2-0.5l2-2.9c0.5-0.7,1.5-0.6,1.9,0.2l1.1,2.3
			C352,385.8,352,386,352,386.1L352,386.1z"/>
		<path class="st5" d="M327.3,420h28.3v-2.5h-28.3V420z M355.6,420c0.7,0,1.2-0.6,1.2-1.2s-0.6-1.2-1.2-1.2V420L355.6,420z
			 M327.3,417.5c-0.7,0-1.2,0.6-1.2,1.2s0.6,1.2,1.2,1.2V417.5L327.3,417.5z"/>
		<g>
			<g>
				<defs>
					<rect id="SVGID_00000160894998309527732870000010559799350626505629_" x="-0.1" y="0.8" width="460" height="460"/>
				</defs>
				<clipPath id="SVGID_00000158751613391085664730000002907137336090380972_">
					<use xlink:href="#SVGID_00000160894998309527732870000010559799350626505629_"  style="overflow:visible;"/>
				</clipPath>
				<g style="clip-path:url(#SVGID_00000158751613391085664730000002907137336090380972_);">
					<path class="st11" d="M204.5,93.2c0.7-13.7,8.2-26.6,23.2-28.1c2-0.2,3.9-0.2,5.9-0.1c0.2-5.6,0.2-12.2,3-17.1
						c7-12,17.4-19.1,30.6-21.8c13.2-2.6,27.4,1.9,37.4,12.1c3.3-15.9,22.9-27,38.3-26.8c13.8,0.2,30.1,10.4,33.5,30.2
						c5.1-4.7,12.2-5.9,19.2-5.3c10.5,1,19.9,8.6,26,18.1c7.6,11.9,10,27.4,5.8,40.5c-4.2,13.2-10.8,21.4-23.4,25.1
						c-7.1,2-15.2,2.6-22.8-1.4c0.7,10.9-6.7,19.5-15.4,24.7c-8.7,5.2-21,7-30.9,4.2c-8.4-2.4-16.7-7.5-20.7-15.7
						c-8.1,10.6-19.9,18.4-32.9,19.3s-27.1-5.9-33.9-18.2c-1.3-2.3-2.2-4.8-2.9-7.3c-4.5,2.5-9.8,3.6-15,2.9
						C212.3,126.4,203.7,109.2,204.5,93.2L204.5,93.2L204.5,93.2z"/>
					<path class="st12" d="M350.8,171.7l0.2,0.1c0,0,0,0,0,0C350.9,171.7,350.8,171.7,350.8,171.7L350.8,171.7z"/>
					<path class="st13" d="M351,171.8C351,171.8,351,171.8,351,171.8c-0.1,0-0.1-0.1-0.1-0.1C350.8,171.7,351,171.8,351,171.8
						L351,171.8z"/>
					<path class="st6" d="M272.2,87.6c0,0-1,0.5-2.8,0.8c-0.7,0.1-1.4,0.1-2.3,0.1c-0.6,0-1.3-0.1-2-0.3c-0.2-0.1-0.5-0.1-0.8-0.2
						c-0.1,0-0.2-0.1-0.4-0.1c-3.1-1.1-5.4-5.7-6-11c-0.1-1.2-0.2-2.6-0.2-3.8c0.2-7.1,4-12.8,6.1-14.4c1.4-1,4.1-1.9,7.9-1.8
						c0.2,0,0.4,0,0.5,0v2v0.8v1.6l0,21v2.9v1L272.2,87.6L272.2,87.6L272.2,87.6z"/>
					
						<ellipse transform="matrix(0.1028 -0.9947 0.9947 0.1028 170.1626 334.3821)" class="st14" cx="270.4" cy="72.9" rx="14" ry="8.4"/>
					<path class="st15" d="M265,88.2c-0.4,0.2-0.8,0.4-1.3,0.7c0.1-0.4,0.1-0.8,0.2-0.9c-3.1-1.1-5.4-5.7-6-11
						c1.7,4.6,4.8,9.3,7.4,9.9c0.4,0.1,0.6,0.2,0.6,0.4c0,0.1,0,0.1,0,0.2C265.8,87.6,265.5,87.9,265,88.2L265,88.2L265,88.2z"/>
					<path class="st16" d="M278.9,73.5c-0.1,0.7-0.2,1.4-0.3,2c-1,4.7-3.5,8.4-6.4,9.7c-0.9,0.4-1.9,0.6-2.8,0.5
						c-4.6-0.5-7.7-6.7-7-13.8c0.6-6.1,3.9-11,7.6-12c0.6-0.2,1.3-0.2,2-0.2c0.1,0,0.2,0,0.3,0c3.4,0.5,5.9,4.2,6.6,9.1
						C279,70.2,279.1,71.8,278.9,73.5L278.9,73.5z M280.6,73.7c0.9-8.7-2.9-16.2-8.4-16.7c-0.2,0-0.4,0-0.5,0
						c-4-0.1-7.7,3.5-9.7,8.8c-0.7,1.8-1.2,3.8-1.4,6c-0.7,6.5,1.3,12.4,4.7,15.1c0.2,0.2,0.4,0.3,0.6,0.4c0.2,0.1,0.3,0.2,0.5,0.3
						c0.8,0.5,1.7,0.7,2.6,0.8c0.1,0,0.2,0,0.3,0C274.8,88.7,279.8,82.2,280.6,73.7L280.6,73.7L280.6,73.7z"/>
					<path class="st16" d="M259.7,122.2c-0.8,0.2-1.6-0.1-1.9-1.8c-0.5-2.8,4.9-26,5.9-31.6c0.1-0.4,0.1-0.8,0.2-0.9
						c0-0.1,0-0.1,0-0.2c0-0.2,0.3-0.4,0.7-0.4c0.4-0.1,0.8,0,1.3,0.1c0.7,0.2,1.3,0.5,1.2,1c0,0,0,0,0,0.1
						c-0.3,1.9-5.5,30.9-5.8,32.3C261.2,121.3,260.4,122,259.7,122.2L259.7,122.2L259.7,122.2z"/>
					<path class="st17" d="M259.7,122.2c-0.8,0.2-1.6-0.1-1.9-1.8c-0.5-3.2,6-31.8,6.1-32.7c0-0.2,0.3-0.4,0.7-0.4
						C263.7,92.4,258.5,116.6,259.7,122.2C259.7,122.2,259.7,122.2,259.7,122.2z"/>
					<path class="st18" d="M257.1,107.9c1.1,0.6,4.3,1.9,5.4,3.4c0.3,0.4,0.5,0.8,0.8,1.2c0.3,0.5,0.6,0.9,0.9,1.3
						c1.8,2.6,3.3,3.8,5.1,5.8c0,0,9-5.8,8.4-7.4c-0.4-1.1-2-2.4-3.7-4.1c-0.7-0.7-1.5-1.5-2.2-2.3c-0.4-0.4-0.7-0.8-1-1.2
						c-0.7-1-1.2-2.1-1.5-3.3c-1-3.6,0-8.8-2.4-8.5c-2.4,0.3,0.4,7.1-4.2,0.2c-1.3-1.9-6.5,1.9-7.5,5.8
						C254.9,100,254.4,106.5,257.1,107.9L257.1,107.9L257.1,107.9z"/>
					<path class="st18" d="M303.6,95.6c1.3-3.7,8.4-5.2,8.7-4c0.5,2-3.3,2.8-3.6,4.2c-0.4,1.6-1.8,2.8-0.6,2.6
						c1.2-0.2,5.1-7.6,8.2-2.8c0.8,1.2-0.8,4.8-1.7,6.8s4.8,8.6,4.8,8.6l-7,4.6c0,0-7.6-9.9-8.2-12.6
						C303.6,99.4,302.9,97.4,303.6,95.6L303.6,95.6z"/>
					<path class="st18" d="M324.1,60.7C324.1,60.7,324.2,60.8,324.1,60.7c0.1,0.5,0.2,0.8,0.4,1.2c0.5,1.8,0.9,3.2,1.2,4.4
						c0,0.1,0,0.1,0,0.2c0.1,0.4,0.2,0.8,0.2,1.1l0,0c0.1,0.7,0.2,1.2,0.3,1.7c0.1,0.8,0.2,1.4,0.2,1.9l0,0c0,0.4,0.1,0.7,0.2,0.9
						c1.9,0.1,0.8-1.7,2.5,2.3c2.6,5.8,5.2,10.1,9.3,2.2c1.1,2.4,1.8,4,2.2,4.8c0.3,0.7,0.4,1,0.4,1l6.1,6.8l7.7-7.1
						c-1.7-5.6-4.3-7.9-6-10.8c-1.8-3.1-3.2-6.7-4.5-10.1c-0.2-0.4-0.3-0.7-0.4-1.1c-0.2-0.5-0.4-0.9-0.6-1.4
						c-0.7-1.7-1.4-3.2-2.1-4.4c-1-1.8-2.2-3-3.6-3.4c-5.1-1.5-11.2,4-13.1,7.5l0,0C324.2,59.4,324,60.2,324.1,60.7L324.1,60.7z"/>
					<path class="st5" d="M345.7,55.9c0.2,0.5,0.2,1.1,0.3,1.6c0.1,0.4,0.1,0.8,0.2,1.2c0.2,1,1.3-0.9,2,0.3
						c2,3.3,2.1,10.2,0.7,12.4c-0.4,0.6-0.9,1-1.6,1.3c-3.4,1.4-7.8-2.4-8.9-4.7c0.8-1.5,0.3-3-0.5-3.9c-1.1-1.1-3-1.7-3.7,0.7
						c-2.1,0.9-2.6,0.9-3.1-0.4c-0.2-0.3-0.1-0.2-0.3-0.7c-0.6-1.6-1.5-1.3-2.8-1.2c-0.7,0.1-1.5,0.1-2.4-0.1
						c-0.5-0.1-0.9-0.3-1.1-0.6c-0.3-0.3-0.4-0.7-0.3-1.1c0-0.6,0.3-1.3,0.5-2.2c0.2-0.7,0.4-1.4,0.5-2.2c0.3-1.8-0.2,0.3-0.9-0.6
						c-0.1-0.1-0.1-0.2-0.1-0.4c0,0,0,0,0-0.1c0.1-1.7-3.7-5-0.8-4.5c2.9,0.5,3.4,2.4,4.9-1.6s4.8-5.6,7.9-2.3
						c3.6,3.8,0.9-1.2,4.7,2.1C344.1,51.9,345.2,54.1,345.7,55.9L345.7,55.9L345.7,55.9z"/>
					<path class="st5" d="M338.5,76.7c1.1,2.4,1.8,4,2.2,4.8c1.7-1.7,3.6-3.4,1.3-7.1C341.6,73.8,339.3,73.7,338.5,76.7z"/>
					<path class="st6" d="M263.4,118.2c2.8,3.6,22,30.2,33.1,29.5c14.9-0.9,21.9-21.4,27-22.9h0c0,0,0.1,0,0.1,0
						c0.8-0.2,1.4,0,1.8,0.5c1.5,2,2.6,15,1.8,28.4c-0.3,5.6-1,11.2-2.2,16.1c-1.2,5.1-2.3,9.5-3.4,14l64.7,3c0-0.5,0-1.1-0.1-1.6
						c-1.3-29.5-3.5-54.2-10.8-78.9c-2.9-9.7-7.2-14.7-13.5-18.4c-0.1-0.1-0.3-0.2-0.4-0.2c-0.5-0.3-0.9-1.2-1.3-2.4
						c-1-3.4-1.7-9.1-3.2-9.7c-6-2.5-15.8,2.5-18.1,4.5c-1,0.9-2,5.6-3.2,6.2c-19.7,9.9-35.9,42.1-40.2,42.3
						c-2.6,0.1-22-23.1-23.1-24.6C271.2,101.9,261.9,116.3,263.4,118.2L263.4,118.2z"/>
					<path class="st5" d="M325.7,66.5c0,0,0,0.1,0,0.1c0.1,0.4,0.2,0.8,0.2,1.1l0,0c0.1,0.7,0.2,1.2,0.3,1.7
						c4.3-1.2,10.5-2.8,14.1-5.1c1.9-1.2,2.9-2,4.1-2.9c0.2-0.2,0.5-0.3,0.7-0.5c0.9-0.6,0.6-1.8,1.1-2.1c-0.1-0.4-0.2-0.8-0.2-1.2
						c0.2-0.1,0.4-0.2,0.6-0.3l-3-4.2l-2.3,1.4L328,62.6l-1.9,1.2C326.1,63.8,325.5,65.9,325.7,66.5L325.7,66.5z"/>
					<path class="st19" d="M323.5,124.8C323.5,124.8,323.5,124.8,323.5,124.8C323.5,124.8,323.5,124.8,323.5,124.8L323.5,124.8z"/>
					<path class="st14" d="M282.7,64.4c2.3-0.3,2.7-1.3,3.2-4.6c0.1,3.2,0.5,4.4,2.8,4.8c-2,0.8-2.8,1.1-3.3,4.7
						C285.1,65.6,284.6,65.3,282.7,64.4L282.7,64.4L282.7,64.4z"/>
					<path class="st14" d="M255.2,87.5c1.8-0.2,2.1-1,2.5-3.6c0.1,2.4,0.4,3.4,2.1,3.7c-1.6,0.6-2.1,0.8-2.6,3.6
						C257,88.5,256.7,88.2,255.2,87.5L255.2,87.5L255.2,87.5z"/>
					<path class="st6" d="M354.8,56.8c-2.2,2.9-19.9,10-38.3,11.6c-1.8,0.2,1.2-3.8,4.4-5.6c0.3-0.2,0.6-0.4,0.8-0.7
						c0.6-0.8,0.8-2,0.8-3.3c0-1.8-0.3-3.8-0.7-5.6c-1.7-5.2,3.1-10.8,9-11c4.1,0.2,3.3,1.3,6.1,1.1c3.7-0.3,7.1,4.5,8.6,8.1
						c0.7,1.2,0.4,2.4,1.7,2.7C349.9,54.8,356.3,54.8,354.8,56.8L354.8,56.8L354.8,56.8z"/>
					<path class="st16" d="M326.6,60.7c-1.3,0.6-3.8,1.2-4.9,1.5c0.6-0.8,0.8-2,0.8-3.3c0.9,0.6,0.4,1.6,2.1,1.4
						C326.8,60.1,328.3,59.9,326.6,60.7L326.6,60.7L326.6,60.7z"/>
					<path class="st20" d="M272.9,147.6c1.5,0.1,4.5,3.5,0,3.9c-4.5,0.3-11.1-0.2-13.8-0.4c-4.4-0.2-5.5-0.5-5.3-2.7
						c0.1-1.3,0.7-2.1,3-2.3c2.4-0.2,1.4-3.6,4.3-3.4c2.5,0.2,2.6,4.5,4.9,3.6c2.3-0.9,1.7,1.9,3.4,2.5
						C271.1,149.5,271.4,147.5,272.9,147.6L272.9,147.6z"/>
					<path class="st21" d="M352.4,88.4c2.2,0.4,5.8,1,9.5-0.5c-0.1-0.1-0.3-0.2-0.4-0.2c-0.5-0.3-0.9-1.2-1.3-2.4
						c-2.9,0.8-1.7,2.3-3.3,2.3C355.3,87.6,350,87.9,352.4,88.4C352.4,88.4,352.4,88.4,352.4,88.4z"/>
				</g>
			</g>
		</g>
		<path class="st11" d="M183.6,100.3c7.9-2.8,17.9,5.1,15.1,15c-2,7.2-9.5,11.4-16.1,8.1c-8-4-8.5-15.1-2.1-21.1
			C181.5,101.3,182.6,100.6,183.6,100.3L183.6,100.3L183.6,100.3z"/>
		<path class="st11" d="M164.1,128.1c2.6-1.9,6.7-0.9,9.4,1.4c2.8,2.4,2.4,5.3,0.6,8.1c-1.7,2.7-4.9,4.5-8,4.3
			c-3.2-0.3-6.1-3-6.1-6.2C160,133.1,161.8,129.8,164.1,128.1L164.1,128.1L164.1,128.1z"/>
		<path class="st22" d="M210.5,248.8c-25.5,1.3-48.8,9.9-48.8,9.9h-0.4c0,0-22.2-8.1-46.9-9.8l47.5,60.6L210.5,248.8L210.5,248.8z"
			/>
		<path class="st22" d="M116.3,249.9l45.6,58.3l46.7-58.4c-24.3,1.6-46.5,9.6-46.7,9.7c-0.1,0-0.2,0-0.3,0h-0.4c-0.1,0-0.2,0-0.3,0
			C160.8,259.4,139.8,251.8,116.3,249.9L116.3,249.9z M161.9,310.4L161.9,310.4c-0.3,0-0.5-0.1-0.7-0.3l-47.5-60.6
			c-0.2-0.3-0.2-0.6-0.1-0.9c0.2-0.3,0.5-0.5,0.8-0.5c23.5,1.5,45,9,47,9.8h0.1c2-0.7,24.7-8.6,48.9-9.9c0.4,0,0.6,0.2,0.8,0.5
			c0.1,0.3,0.1,0.7-0.1,0.9l-48.6,60.8C162.4,310.3,162.2,310.4,161.9,310.4L161.9,310.4L161.9,310.4z"/>
		<rect x="144.3" y="236.9" class="st18" width="36" height="26.1"/>
		<path class="st5" d="M155.4,278.5h14l3.1-14.5h-20.3L155.4,278.5L155.4,278.5z M170.1,280.2h-15.4c-0.4,0-0.8-0.3-0.8-0.7
			l-3.5-16.2c-0.1-0.2,0-0.5,0.2-0.7c0.2-0.2,0.4-0.3,0.7-0.3h22.4c0.3,0,0.5,0.1,0.7,0.3s0.2,0.5,0.2,0.7l-3.5,16.2
			C170.8,280,170.5,280.2,170.1,280.2L170.1,280.2L170.1,280.2z"/>
		<path class="st5" d="M173.6,326.8h-22.4c-0.2,0-0.5-0.1-0.6-0.3c-0.2-0.2-0.2-0.4-0.2-0.6l3.5-46.5c0-0.5,0.4-0.8,0.9-0.8
			c0.5,0,0.8,0.5,0.8,0.9l-3.4,45.6h20.5l-3.4-45.6c0-0.5,0.3-0.9,0.8-0.9c0.5,0,0.9,0.3,0.9,0.8l3.5,46.5c0,0.2-0.1,0.5-0.2,0.6
			C174.1,326.7,173.9,326.8,173.6,326.8L173.6,326.8L173.6,326.8z"/>
		<polygon class="st22" points="159.9,262.6 142.7,246 129.4,250.6 150,280 		"/>
		<path class="st22" d="M130.8,251l19.1,27.4l8.9-15.7l-16.4-15.8L130.8,251L130.8,251z M150,280.9c-0.3,0-0.5-0.1-0.7-0.4
			l-20.6-29.4c-0.1-0.2-0.2-0.5-0.1-0.8c0.1-0.2,0.3-0.4,0.5-0.5l13.2-4.6c0.3-0.1,0.6,0,0.9,0.2l17.2,16.6c0.3,0.3,0.3,0.7,0.1,1
			l-9.9,17.4C150.6,280.7,150.3,280.8,150,280.9C150,280.9,150,280.9,150,280.9L150,280.9z"/>
		<polygon class="st22" points="163.9,262.6 181.1,246 194.3,250.6 173.8,280 		"/>
		<path class="st22" d="M164.9,262.7l8.9,15.7L193,251l-11.7-4.1L164.9,262.7L164.9,262.7z M173.8,280.9
			C173.8,280.9,173.7,280.9,173.8,280.9c-0.3,0-0.6-0.2-0.7-0.4l-9.9-17.4c-0.2-0.3-0.1-0.8,0.1-1l17.2-16.6
			c0.2-0.2,0.6-0.3,0.9-0.2l13.2,4.6c0.2,0.1,0.5,0.3,0.5,0.5s0,0.5-0.1,0.8l-20.6,29.4C174.3,280.7,174,280.9,173.8,280.9
			L173.8,280.9z"/>
		<path class="st22" d="M259.6,363.1c3.3-14.5,5.8-29.1,7.6-43.9c1.7-14.3,4.1-29.3,0.3-43.5c-6.5-24.2-35.8-28-57-26.9l-48.6,60.8
			l-47.5-60.6c-18.1-0.2-39.1,0.9-52.6,14.5c-11,11-8.1,31.7-6.9,45.9c1.3,14.6,3.5,29.1,6.2,43.5c0.6,3.5,1.3,6.9,2,10.4
			L259.6,363.1L259.6,363.1L259.6,363.1z"/>
		<path class="st22" d="M259.6,441.2c3.3-14.5,5.8-29.1,7.6-43.9c1.7-14.3,4.1-29.3,0.3-43.5c-6.5-24.2-35.8-28-57-26.9l-48.6,60.8
			L114.4,327c-18.1-0.2-39.1,0.9-52.6,14.5c-11,11-8.1,31.7-6.9,45.9c1.3,14.6,3.5,29.1,6.2,43.5c0.6,3.5,1.3,6.9,2,10.4
			L259.6,441.2L259.6,441.2L259.6,441.2z"/>
		<path class="st9" d="M251.3,440.1c-1.5,9.5-2.2,10.9-5.1,20.3l-169.1,0c-0.6-2.2-1.2-4.4-1.8-6.7c-2.3-9.3-2.7-4.2-3.8-13.6H251.3
			z"/>
		<path class="st22" d="M63.2,364c-0.4,0-0.8-0.3-0.8-0.7c-0.6-3-1.3-6.3-2-10.4c-3.1-16.6-5-30.4-6.2-43.6
			c-0.1-1.1-0.2-2.1-0.3-3.3c-1.3-13.8-3.1-32.8,7.4-43.3c13.3-13.4,33.4-15,53.2-14.7c0.3,0,0.5,0.1,0.7,0.3l46.8,59.8l47.9-59.9
			c0.1-0.2,0.4-0.3,0.6-0.3c18.6-0.9,50.9,1.4,57.9,27.5c3.5,13.2,1.8,26.9,0.2,40.2l-0.4,3.6c-1.8,15-4.4,29.8-7.6,44
			c-0.1,0.5-0.6,0.8-1,0.6s-0.8-0.6-0.6-1c3.2-14.1,5.8-28.8,7.6-43.8l0.4-3.6c1.6-13.1,3.3-26.7-0.1-39.6
			c-6.7-24.8-37.6-27.1-55.8-26.3l-48.4,60.5c-0.2,0.2-0.4,0.3-0.7,0.3c-0.3,0-0.5-0.1-0.7-0.3L114,249.8
			c-19.2-0.2-38.8,1.4-51.5,14.2c-9.9,10-8.2,28.4-6.9,41.9c0.1,1.1,0.2,2.2,0.3,3.3c1.1,13.1,3.1,26.9,6.2,43.4
			c0.8,4,1.4,7.3,2,10.3c0.1,0.5-0.2,0.9-0.7,1C63.3,364,63.3,364,63.2,364L63.2,364L63.2,364z"/>
		<path class="st9" d="M121.3,271.3c-5.4-2.4-1.1-8.4,1.7-11.1c9.5-11.1,0-2.7-7.6-47.3s26.8-70.2,60.6-61.2
			c33.8,9,31.4,41.9,30.2,63.6c-1.3,21.7,1.1,29,4.1,37.7c3,8.6-0.5,13.6-7.3,23.3l-0.2,0.3c-7,9.9-35.5,9.9-38.2,6.8
			S128.1,274.2,121.3,271.3L121.3,271.3z"/>
		<path class="st5" d="M129.9,241.9c2.8,4.1,11.8,13,25.1,16.3l0.3-1.3c-13-3.2-21.7-11.9-24.4-15.8L129.9,241.9L129.9,241.9z
			 M155,258.2c0.4,0.1,0.7-0.1,0.8-0.5s-0.1-0.7-0.5-0.8L155,258.2L155,258.2z M131,241.2c-0.2-0.3-0.6-0.4-0.9-0.2
			c-0.3,0.2-0.4,0.6-0.2,0.9L131,241.2L131,241.2z"/>
		<path class="st5" d="M174.8,271.8c6.2-2,20.3-9.2,27.1-22.3l-1.2-0.6c-6.5,12.6-20.3,19.7-26.3,21.6L174.8,271.8L174.8,271.8z
			 M201.9,249.5c0.2-0.3,0-0.7-0.3-0.9c-0.3-0.2-0.7,0-0.9,0.3L201.9,249.5z M174.4,270.5c-0.4,0.1-0.5,0.5-0.4,0.8
			c0.1,0.4,0.5,0.5,0.8,0.4L174.4,270.5L174.4,270.5z"/>
		<path class="st18" d="M198.1,203.4c-2-17.9-12.5-35.1-31-38.1c-19.8-3.2-37.6,14.7-40.1,36.4c0,0.3-0.1,0.7-0.1,1
			c-1.1,6.9,1.4,17.5,2.7,22c0,0,0,0,0,0c0.8,2.3,1.8,4.4,3,6.5l0.1,0.2c0.4,0.7,0.8,1.3,1.1,1.9c0,0,0,0,0,0
			c0.8,1.3,1.7,2.6,2.7,3.8c0.1,0.1,0.1,0.1,0.2,0.2c0.4,0.5,0.8,1,1.2,1.4c0.1,0.1,0.2,0.2,0.3,0.3c0.5,0.5,0.9,1,1.4,1.4
			c0,0,0.1,0.1,0.1,0.1c0.5,0.5,1.1,1,1.6,1.5c0,0,0.1,0.1,0.1,0.1c0.5,0.4,1,0.8,1.5,1.2c0.1,0.1,0.3,0.2,0.5,0.3
			c0.4,0.3,0.9,0.6,1.3,0.9c0.2,0.1,0.3,0.2,0.5,0.3c0.5,0.3,1.1,0.7,1.6,1c0.1,0,0.1,0.1,0.2,0.1c0.6,0.3,1.3,0.6,1.9,1
			c0.2,0.1,0.3,0.1,0.5,0.2c0.5,0.2,1,0.4,1.5,0.6c0.2,0.1,0.4,0.2,0.7,0.2c0.5,0.2,1,0.3,1.5,0.5c0.2,0.1,0.4,0.1,0.6,0.2
			c0.7,0.2,1.4,0.4,2.1,0.5c17.5,3.6,35.3-8.1,40.9-26C198.8,218,198.5,207.8,198.1,203.4L198.1,203.4z"/>
		<path class="st23" d="M151.7,194.6c-6-2.9-11-0.1-13.1,1.4l-0.5-0.7c2.2-1.6,7.6-4.6,14-1.5L151.7,194.6L151.7,194.6z
			 M151.8,194.8c0-0.1,0-0.1-0.1-0.2l0.4-0.8c0.5,0.2,0.7,0.9,0.5,1.4L151.8,194.8L151.8,194.8z M151.6,194.8c0.1,0,0.1,0,0.2-0.1
			l0.8,0.4c-0.2,0.5-0.9,0.7-1.4,0.5L151.6,194.8L151.6,194.8z M137.7,197.1c0.1-0.1,1.7-1.6,4.1-2.6c2.5-1,5.9-1.5,9.8,0.4
			l-0.4,0.8c-3.6-1.7-6.8-1.3-9.1-0.3c-2.3,0.9-3.7,2.3-3.8,2.4L137.7,197.1L137.7,197.1z M137.5,197.1c0,0,0.1,0,0.2,0l0.6,0.6
			c-0.4,0.4-1,0.4-1.4,0L137.5,197.1L137.5,197.1z M137.5,196.9c-0.1,0.1-0.1,0.1,0,0.2l-0.6,0.6c-0.4-0.4-0.4-1,0-1.4L137.5,196.9
			L137.5,196.9z M138.6,196c-0.7,0.5-1.1,0.9-1.1,0.9l-0.6-0.6c0,0,0.5-0.5,1.2-1L138.6,196L138.6,196z M151.9,194.2l-0.2,0.4l0,0
			L151.9,194.2z M151.4,195.2l0.2-0.4l0,0L151.4,195.2z M138,197.4l0.3,0.3l0,0L138,197.4z M137.2,196.6l0.3,0.3l0,0v0L137.2,196.6
			L137.2,196.6z"/>
		<path class="st5" d="M138.3,195.7c-0.7,0.5-1.1,0.9-1.1,0.9c-0.2,0.2-0.2,0.6,0,0.8c0.2,0.2,0.6,0.2,0.8,0
			c0.2-0.2,5.9-5.8,13.4-2.2c0.3,0.1,0.6,0,0.8-0.3c0.1-0.3,0-0.6-0.3-0.8C145.7,191.2,140.5,194,138.3,195.7z"/>
		<path class="st23" d="M170.3,231.4c-4.8,4.6-10.4,3.6-12.9,2.8l-0.3,0.8c2.6,0.8,8.6,1.9,13.8-3L170.3,231.4L170.3,231.4z
			 M170.3,231.2c0,0.1,0,0.1,0,0.2l0.6,0.6c0.4-0.4,0.4-1,0-1.4L170.3,231.2L170.3,231.2z M170.2,231.2c0,0,0.1,0,0.2,0l0.6-0.6
			c-0.4-0.4-1-0.4-1.4,0L170.2,231.2L170.2,231.2z M156.2,233.5c0.2,0.1,2.1,1,4.7,1.2c2.7,0.2,6.1-0.4,9.2-3.4l-0.6-0.6
			c-2.9,2.8-6,3.4-8.5,3.2c-2.5-0.1-4.3-1-4.4-1.1L156.2,233.5L156.2,233.5z M156.1,233.5c0-0.1,0.1-0.1,0.2-0.1l0.4-0.8
			c-0.5-0.2-1.1,0-1.4,0.5L156.1,233.5L156.1,233.5z M156.1,233.7c-0.1,0-0.1-0.1-0.1-0.2l-0.8-0.4c-0.2,0.5,0,1.1,0.5,1.4
			L156.1,233.7z M157.4,234.2c-0.8-0.3-1.3-0.5-1.3-0.5l-0.4,0.8c0,0,0.6,0.3,1.5,0.6L157.4,234.2z M170.6,231.7l-0.3-0.3l0,0
			L170.6,231.7z M169.8,230.9l0.3,0.3l0,0L169.8,230.9L169.8,230.9z M156.4,233.1l0.2-0.4l0,0L156.4,233.1L156.4,233.1z
			 M155.9,234.1l0.2-0.4l0,0l0,0L155.9,234.1L155.9,234.1z"/>
		<path class="st5" d="M157.3,234.6c-0.9-0.3-1.4-0.5-1.4-0.5c-0.3-0.1-0.4-0.5-0.3-0.8c0.1-0.3,0.5-0.4,0.8-0.3
			c0.3,0.1,7.4,3.6,13.4-2.2c0.2-0.2,0.6-0.2,0.8,0c0.2,0.2,0.2,0.6,0,0.8C165.7,236.5,159.9,235.5,157.3,234.6L157.3,234.6z"/>
		<path class="st23" d="M187.2,195.4c-5.6-3.5-10.9-1.4-13.2-0.1l-0.4-0.8c2.4-1.4,8-3.7,14.1,0.1L187.2,195.4z M187.3,195.6
			c0-0.1,0-0.1,0-0.2l0.5-0.8c0.5,0.3,0.6,0.9,0.3,1.4L187.3,195.6L187.3,195.6z M187.1,195.6c0.1,0,0.1,0,0.2,0l0.7,0.5
			c-0.3,0.5-0.9,0.6-1.4,0.3L187.1,195.6z M173,196.3c0.1-0.1,1.8-1.4,4.4-2.1c2.6-0.7,6-0.8,9.7,1.4l-0.5,0.8c-3.4-2.1-6.6-2-9-1.3
			c-2.4,0.7-4,1.9-4.1,2L173,196.3L173,196.3z M172.8,196.3c0,0.1,0.1,0.1,0.2,0l0.5,0.7c-0.4,0.3-1.1,0.3-1.4-0.2L172.8,196.3
			L172.8,196.3z M172.9,196.1c-0.1,0-0.1,0.1,0,0.2l-0.7,0.5c-0.4-0.4-0.3-1.1,0.2-1.4L172.9,196.1L172.9,196.1z M174,195.3
			c-0.8,0.4-1.2,0.8-1.2,0.8l-0.6-0.7c0,0,0.5-0.4,1.3-0.9L174,195.3L174,195.3z M187.5,195l-0.2,0.4l0,0L187.5,195z M186.9,196
			l0.2-0.4l0,0L186.9,196z M173.3,196.7l0.3,0.3l0,0L173.3,196.7z M172.6,195.8l0.3,0.3l0,0l0,0L172.6,195.8L172.6,195.8z"/>
		<path class="st5" d="M173.8,195c-0.8,0.4-1.2,0.8-1.2,0.8c-0.2,0.2-0.3,0.6-0.1,0.8s0.6,0.3,0.8,0.1c0.3-0.2,6.5-5.1,13.6-0.7
			c0.3,0.2,0.6,0.1,0.8-0.2s0.1-0.6-0.2-0.8C181.6,191.4,176.2,193.6,173.8,195L173.8,195z"/>
		<path class="st5" d="M178,203c0,1.8,0.9,3.3,2,3.3c1.1,0,2.1-1.4,2.1-3.2s-0.9-3.3-2-3.3C179,199.8,178.1,201.2,178,203z"/>
		<path class="st5" d="M143.1,203c0,1.8,0.9,3.3,2,3.3c1.1,0,2.1-1.4,2.1-3.2s-0.9-3.3-2-3.3C144.1,199.8,143.1,201.2,143.1,203z"/>
		<path class="st23" d="M161.5,222.2L161.5,222.2h-0.9l0,0H161.5z M161.1,221.8C161.1,221.8,161.1,221.8,161.1,221.8l0,0.9
			c0.2,0,0.4-0.1,0.6-0.2L161.1,221.8L161.1,221.8z M161.2,221.6c0,0,0,0.1,0,0.1l0.5,0.7c0.4-0.3,0.5-0.9,0.2-1.3L161.2,221.6z
			 M158,217.5l3.1,4.1l0.7-0.5l-3.1-4.1L158,217.5z M164.1,208.3l-6,8.7l0.7,0.5l6-8.7L164.1,208.3z M164,208.2c0,0,0,0.1,0,0.1
			l0.7,0.5c0.3-0.4,0.2-1-0.2-1.3L164,208.2L164,208.2z M163.9,208.2c0,0,0.1,0,0.1,0l0.5-0.7c-0.4-0.3-1-0.2-1.3,0.2L163.9,208.2
			L163.9,208.2z M157.5,217.5l6.5-9.3l-0.7-0.5l-6.5,9.3L157.5,217.5z M161,221.7l-3.6-4.7l-0.7,0.5l3.6,4.7L161,221.7z
			 M161.1,221.8C161.1,221.8,161.1,221.7,161.1,221.8l-0.8,0.5c0.2,0.2,0.5,0.4,0.8,0.4L161.1,221.8L161.1,221.8z M161.1,222.2h-0.4
			v0.4h0.4V222.2z M161.4,222.1l-0.3-0.4l0,0L161.4,222.1z M161.5,221.4l-0.4,0.3l0,0L161.5,221.4z M158.4,217.2L158,217l-0.2,0.3
			l0.2,0.2L158.4,217.2L158.4,217.2z M164.4,208.6l0.4,0.2l0,0L164.4,208.6z M164.3,207.8l0.2-0.4l0,0L164.3,207.8z M163.6,208
			l-0.4-0.2l0,0L163.6,208z M157.1,217.2l-0.4-0.2l-0.2,0.3l0.2,0.2L157.1,217.2L157.1,217.2z M160.7,222l0.4-0.3l0,0L160.7,222z
			 M161.1,222.2h0.4v-0.4h-0.4V222.2z"/>
		<path class="st5" d="M161.1,222.2c-0.2,0-0.3-0.1-0.4-0.2l-3.6-4.7l6.5-9.3c0.2-0.2,0.5-0.3,0.7-0.1c0.2,0.2,0.3,0.5,0.1,0.7
			l-6,8.7l3.1,4.1c0.2,0.2,0.1,0.6-0.1,0.7C161.3,222.2,161.2,222.2,161.1,222.2L161.1,222.2L161.1,222.2z"/>
		<path class="st24" d="M143,220.4c0.1-1.2-1.7-2.3-3.9-2.4c-2.2-0.1-4.1,0.7-4.2,1.9c-0.1,1.2,1.7,2.3,3.9,2.4
			C141.1,222.5,142.9,221.6,143,220.4z"/>
		<path class="st24" d="M192,220.4c0.1-1.2-1.7-2.3-3.9-2.4c-2.2-0.1-4.1,0.7-4.2,1.9c-0.1,1.2,1.7,2.3,3.9,2.4
			C190.1,222.5,191.9,221.6,192,220.4z"/>
		<polygon class="st4" points="198.7,301.7 214.8,297.1 214.8,298.5 198.7,303.2 		"/>
		<polygon class="st4" points="222,295 238.1,290.3 238.1,291.8 222,296.4 		"/>
		<polygon class="st4" points="175.4,308.5 191.5,303.8 191.5,305.3 175.4,309.9 		"/>
		<polygon class="st4" points="198.7,293.6 214.8,288.9 214.8,290.4 198.7,295 		"/>
		<polygon class="st4" points="113.7,303.7 113.7,302.3 131.2,306.7 131.2,308.2 		"/>
		<polygon class="st4" points="198.7,362.9 214.8,358.3 214.8,359.7 198.7,364.4 		"/>
		<polygon class="st4" points="106.1,300.3 106.1,301.8 88.7,297.3 88.7,295.8 		"/>
		<polygon class="st4" points="174.3,317.5 243.9,297.3 243.9,324 174.3,344.1 		"/>
		<polygon class="st4" points="88.7,289.2 88.7,287.7 106.2,292.2 106.1,293.6 		"/>
		<polygon class="st4" points="63.5,343.8 63.5,342.3 80.9,346.8 80.9,348.2 		"/>
		<polygon class="st4" points="137.2,378 137.1,404.6 62.2,385.4 62.3,358.8 		"/>
		<polygon class="st4" points="131,367.8 131,369.2 113.6,364.7 113.6,363.3 		"/>
		<path class="st4" d="M65.5,331c1.7,0.4,3.1,2,3.1,3.4c0,0.6-0.2,1-0.6,1.3c-0.3,0.2-0.7,0.3-1.1,0.3c-0.3,0-0.5,0-0.8-0.1
			c-1.7-0.4-3.1-2-3.1-3.4c0-0.6,0.2-1,0.6-1.3C64,330.9,64.7,330.8,65.5,331z"/>
		<polygon class="st4" points="214.8,351.6 198.7,356.2 198.7,354.8 214.8,350.1 		"/>
		<polygon class="st4" points="63.5,351.9 63.5,350.4 80.9,354.9 80.9,356.4 		"/>
		<path class="st4" d="M59.2,415.6l34.3,8.8c0.3,0.1,0.5,0,0.8-0.1c0.2-0.1,0.3-0.4,0.3-0.6l0-11.4c0-0.3-0.2-0.6-0.6-0.7l-34.3-8.8
			c-0.1,0-0.2,0-0.2,0c-0.2,0-0.4,0-0.5,0.1c-0.2,0.1-0.3,0.4-0.3,0.6l0,11.4C58.5,415.2,58.8,415.5,59.2,415.6L59.2,415.6
			L59.2,415.6z M94,400.9l-20-5.1c-0.1,0-0.2,0-0.2,0c-0.4,0-0.7,0.2-0.8,0.6c-0.1,0.4,0.1,0.8,0.6,1l20,5.1c0.5,0.1,0.9-0.1,1-0.5
			C94.7,401.5,94.4,401.1,94,400.9L94,400.9z M99.4,403.9l9.7,2.5c0.5,0.1,0.9-0.1,1-0.5c0.1-0.4-0.1-0.8-0.6-1l-9.7-2.5
			c-0.1,0-0.2,0-0.2,0c-0.4,0-0.7,0.2-0.8,0.6C98.7,403.4,99,403.8,99.4,403.9L99.4,403.9z M61.1,393.5c0,2.1,1.9,4.2,4.3,4.9
			c1.3,0.3,2.6,0.2,3.5-0.5c0.8-0.6,1.3-1.5,1.3-2.5c0-2.1-1.9-4.2-4.3-4.9c-0.4-0.1-0.9-0.2-1.3-0.2c-0.8,0-1.6,0.2-2.2,0.6
			C61.5,391.6,61.1,392.5,61.1,393.5L61.1,393.5L61.1,393.5z M138.5,406.2c0.2-0.1,0.3-0.4,0.3-0.6l0.1-28.2c0-0.3-0.2-0.6-0.6-0.7
			L61.6,357c-0.1,0-0.2,0-0.2,0c-0.2,0-0.4,0-0.5,0.1c-0.2,0.1-0.3,0.4-0.3,0.6l-0.1,28.2c0,0.3,0.2,0.6,0.6,0.7l76.7,19.7
			C138,406.4,138.3,406.4,138.5,406.2L138.5,406.2L138.5,406.2z M111.9,365.3c0,0.3,0.2,0.6,0.6,0.7l19.2,4.9c0.2,0.1,0.5,0,0.8-0.1
			c0.2-0.1,0.3-0.4,0.3-0.6v-3c0-0.3-0.2-0.6-0.6-0.7l-19.2-4.9c-0.1,0-0.2,0-0.2,0c-0.2,0-0.4,0-0.5,0.1c-0.2,0.1-0.3,0.4-0.3,0.6
			L111.9,365.3L111.9,365.3z M65.5,337.3c1.3,0.3,2.6,0.2,3.5-0.5c0.8-0.6,1.3-1.5,1.3-2.5c0-2.1-1.9-4.2-4.3-4.9
			c-0.4-0.1-0.9-0.2-1.3-0.2c-0.8,0-1.6,0.2-2.2,0.6c-0.9,0.6-1.3,1.5-1.3,2.5C61.2,334.6,63.1,336.7,65.5,337.3L65.5,337.3
			L65.5,337.3z M82,353.6l-19.2-4.9c-0.1,0-0.2,0-0.2,0c-0.2,0-0.4,0-0.5,0.1c-0.2,0.1-0.3,0.4-0.3,0.6v3c0,0.3,0.2,0.6,0.6,0.7
			l19.2,4.9c0.3,0.1,0.5,0,0.8-0.1c0.2-0.1,0.3-0.4,0.3-0.6v-3C82.6,354,82.4,353.7,82,353.6L82,353.6z M82,345.5l-19.2-4.9
			c-0.1,0-0.2,0-0.2,0c-0.2,0-0.4,0-0.5,0.1c-0.2,0.1-0.3,0.4-0.3,0.6v3c0,0.3,0.2,0.6,0.6,0.7l19.2,4.9c0.3,0.1,0.5,0,0.8-0.1
			c0.2-0.1,0.3-0.4,0.3-0.6v-3C82.6,345.9,82.4,345.6,82,345.5L82,345.5L82,345.5z M93.7,341.4c0.5,0.1,0.9-0.1,1-0.5
			c0.1-0.4-0.1-0.8-0.6-1l-20-5.1c-0.1,0-0.2,0-0.2,0c-0.4,0-0.7,0.2-0.8,0.6c-0.1,0.4,0.1,0.8,0.6,1L93.7,341.4L93.7,341.4z
			 M107.1,360l-19.2-4.9c-0.1,0-0.2,0-0.2,0c-0.2,0-0.4,0-0.5,0.1c-0.2,0.1-0.3,0.4-0.3,0.6v3c0,0.3,0.2,0.6,0.6,0.7l19.2,4.9
			c0.3,0.1,0.5,0,0.8-0.1c0.2-0.1,0.3-0.4,0.3-0.6v-3C107.7,360.4,107.4,360.1,107.1,360L107.1,360z M109.3,345.4
			c0.5,0.1,0.9-0.1,1-0.5c0.1-0.4-0.1-0.8-0.6-1l-9.7-2.5c-0.1,0-0.2,0-0.2,0c-0.4,0-0.7,0.2-0.8,0.6c-0.1,0.4,0.1,0.8,0.6,1
			L109.3,345.4L109.3,345.4z M107.1,351.9L87.9,347c-0.1,0-0.2,0-0.2,0c-0.2,0-0.4,0-0.5,0.1c-0.2,0.1-0.3,0.4-0.3,0.6v3
			c0,0.3,0.2,0.6,0.6,0.7l19.2,4.9c0.2,0.1,0.5,0,0.8-0.1c0.2-0.1,0.3-0.4,0.3-0.6v-3C107.7,352.3,107.5,352,107.1,351.9
			L107.1,351.9z M139.1,316.4c0-0.3-0.2-0.6-0.6-0.7L61.8,296c-0.1,0-0.2,0-0.2,0c-0.2,0-0.4,0-0.5,0.1c-0.2,0.1-0.3,0.4-0.3,0.6
			l-0.1,28.2c0,0.3,0.2,0.6,0.6,0.7l76.7,19.7c0.2,0.1,0.5,0,0.8-0.1c0.2-0.1,0.3-0.4,0.3-0.6L139.1,316.4L139.1,316.4L139.1,316.4z
			 M132.3,305.4l-19.2-4.9c-0.1,0-0.2,0-0.2,0c-0.2,0-0.4,0-0.5,0.1c-0.2,0.1-0.3,0.4-0.3,0.6v3c0,0.3,0.2,0.6,0.6,0.7l19.2,4.9
			c0.3,0.1,0.5,0,0.8-0.1c0.2-0.1,0.3-0.4,0.3-0.6v-3C132.9,305.8,132.6,305.5,132.3,305.4L132.3,305.4L132.3,305.4z M107.2,290.9
			L88.1,286c-0.1,0-0.2,0-0.2,0c-0.2,0-0.4,0-0.5,0.1c-0.2,0.1-0.3,0.4-0.3,0.6v3c0,0.3,0.2,0.6,0.6,0.7l19.2,4.9
			c0.3,0.1,0.5,0,0.8-0.1c0.2-0.1,0.3-0.4,0.3-0.6v-3C107.8,291.3,107.6,291,107.2,290.9L107.2,290.9z M86.9,297.9
			c0,0.3,0.2,0.6,0.6,0.7l19.2,4.9c0.3,0.1,0.5,0,0.8-0.1c0.2-0.1,0.3-0.4,0.3-0.6v-3c0-0.3-0.2-0.6-0.6-0.7L88,294.1
			c-0.1,0-0.2,0-0.2,0c-0.2,0-0.4,0-0.5,0.1c-0.2,0.1-0.3,0.4-0.3,0.6L86.9,297.9L86.9,297.9z M82.2,284.4L63,279.5
			c-0.1,0-0.2,0-0.2,0c-0.2,0-0.4,0-0.5,0.1c-0.2,0.1-0.3,0.4-0.3,0.6v3c0,0.3,0.2,0.6,0.6,0.7l19.2,4.9c0.2,0.1,0.5,0,0.8-0.1
			c0.2-0.1,0.3-0.4,0.3-0.6v-3C82.8,284.8,82.5,284.5,82.2,284.4L82.2,284.4z M61.9,291.4c0,0.3,0.2,0.6,0.6,0.7l19.2,4.9
			c0.3,0.1,0.5,0,0.8-0.1c0.2-0.1,0.3-0.4,0.3-0.6v-3c0-0.3-0.2-0.6-0.6-0.7L63,287.7c-0.1,0-0.2,0-0.2,0c-0.2,0-0.4,0-0.5,0.1
			c-0.2,0.1-0.3,0.4-0.3,0.6L61.9,291.4L61.9,291.4z M48.1,265L161,294v155.6L47.7,420.6L48.1,265L48.1,265z"/>
		<polygon class="st4" points="62.3,324.3 62.4,297.7 137.4,317 137.3,343.6 		"/>
		<path class="st4" d="M65.4,392c1.7,0.4,3.1,2,3.1,3.4c0,0.6-0.2,1-0.6,1.3c-0.3,0.2-0.7,0.3-1.1,0.3c-0.3,0-0.5,0-0.8-0.1
			c-1.7-0.4-3.1-2-3.1-3.4c0-0.6,0.2-1,0.6-1.3C63.9,391.9,64.6,391.8,65.4,392L65.4,392z"/>
		<polygon class="st4" points="175.4,300.4 191.5,295.7 191.5,297.1 175.4,301.8 		"/>
		<polygon class="st4" points="92.8,412.9 92.8,422.6 60.2,414.3 60.3,404.5 		"/>
		<polygon class="st4" points="202.8,426.6 172.6,435.3 172.6,425.5 202.8,416.8 		"/>
		<polygon class="st4" points="88.5,350.2 88.5,348.7 106,353.2 106,354.7 		"/>
		<polygon class="st4" points="238.1,352.9 222,357.6 222,356.2 238.1,351.5 		"/>
		<polygon class="st4" points="81.1,293.9 81.1,295.3 63.6,290.9 63.6,289.4 		"/>
		<path class="st4" d="M177.7,349c0.7-0.2,1.3-0.1,1.7,0.1c0.4,0.3,0.6,0.7,0.6,1.3c0,1.4-1.3,3-2.8,3.5c-0.3,0.1-0.5,0.1-0.8,0.1
			c-0.4,0-0.7-0.1-0.9-0.2c-0.4-0.3-0.6-0.7-0.6-1.3C174.9,351,176.2,349.4,177.7,349L177.7,349L177.7,349z"/>
		<path class="st4" d="M177.7,410.2c0.7-0.2,1.3-0.1,1.7,0.1c0.4,0.3,0.6,0.7,0.6,1.3c0,1.4-1.3,3-2.8,3.5c-0.3,0.1-0.5,0.1-0.8,0.1
			c-0.4,0-0.7-0.1-0.9-0.2c-0.4-0.3-0.6-0.7-0.6-1.3C174.9,412.2,176.2,410.6,177.7,410.2L177.7,410.2z"/>
		<polygon class="st4" points="243.9,385.1 174.3,405.3 174.3,378.7 243.9,358.5 		"/>
		<polygon class="st4" points="175.4,369.7 191.5,365 191.5,366.5 175.4,371.1 		"/>
		<polygon class="st4" points="63.6,282.7 63.6,281.3 81.1,285.8 81.1,287.2 		"/>
		<polygon class="st4" points="88.5,358.3 88.5,356.9 106,361.3 106,362.8 		"/>
		<polygon class="st4" points="191.5,358.3 175.4,363 175.4,361.5 191.5,356.9 		"/>
		<path class="st4" d="M170.9,436.3c0,0.2,0.1,0.5,0.4,0.6c0.2,0.1,0.5,0.2,0.8,0.1l31.9-9.2c0.4-0.1,0.6-0.4,0.6-0.7v-11.4
			c0-0.2-0.1-0.5-0.4-0.6c-0.1-0.1-0.3-0.1-0.5-0.1c-0.1,0-0.2,0-0.3,0l-31.9,9.2c-0.4,0.1-0.6,0.4-0.6,0.7V436.3z M204.4,404.8
			c-0.1-0.3-0.5-0.5-0.8-0.5c-0.1,0-0.2,0-0.3,0l-18.6,5.4c-0.5,0.1-0.7,0.6-0.5,1s0.6,0.6,1.1,0.5l18.6-5.4
			C204.3,405.6,204.6,405.2,204.4,404.8L204.4,404.8L204.4,404.8z M208.3,403.7c0.1,0.4,0.6,0.6,1.1,0.5l9-2.6
			c0.5-0.1,0.7-0.6,0.5-1c-0.1-0.3-0.5-0.5-0.8-0.5c-0.1,0-0.2,0-0.3,0l-9,2.6C208.4,402.9,208.1,403.3,208.3,403.7L208.3,403.7z
			 M173.2,413.6c0,1.1,0.5,2,1.3,2.6s2,0.7,3.2,0.4c2.2-0.6,4-2.8,4-4.9c0-1.1-0.5-2-1.3-2.6c-0.5-0.4-1.2-0.5-1.9-0.5
			c-0.4,0-0.9,0.1-1.3,0.2C174.9,409.4,173.2,411.5,173.2,413.6L173.2,413.6z M245.6,385.7v-28.3c0-0.2-0.1-0.5-0.4-0.6
			c-0.1-0.1-0.3-0.1-0.5-0.1c-0.1,0-0.2,0-0.3,0l-71.3,20.7c-0.4,0.1-0.6,0.4-0.6,0.7v28.3c0,0.2,0.1,0.5,0.4,0.6
			c0.2,0.1,0.5,0.2,0.8,0.1l71.3-20.7C245.3,386.3,245.6,386,245.6,385.7L245.6,385.7L245.6,385.7z M220.3,355.6v3.1
			c0,0.2,0.1,0.5,0.4,0.6c0.2,0.1,0.5,0.2,0.8,0.1l17.8-5.2c0.4-0.1,0.6-0.4,0.6-0.7v-3.1c0-0.2-0.1-0.5-0.4-0.6
			c-0.1-0.1-0.3-0.1-0.5-0.1c-0.1,0-0.2,0-0.3,0l-17.8,5.2C220.5,355,220.3,355.3,220.3,355.6L220.3,355.6z M174.5,355
			c0.9,0.6,2,0.7,3.2,0.4c2.2-0.6,4-2.8,4-4.9c0-1.1-0.5-2-1.3-2.6c-0.5-0.4-1.2-0.5-1.9-0.5c-0.4,0-0.8,0.1-1.3,0.2
			c-2.2,0.6-4,2.8-4,4.9C173.2,353.5,173.6,354.4,174.5,355L174.5,355z M174.1,364.6c0.2,0.1,0.5,0.2,0.8,0.1l17.8-5.2
			c0.4-0.1,0.6-0.4,0.6-0.7v-3.1c0-0.2-0.1-0.5-0.4-0.6c-0.1-0.1-0.3-0.1-0.5-0.1c-0.1,0-0.2,0-0.3,0l-17.8,5.2
			c-0.4,0.1-0.6,0.4-0.6,0.7v3.1C173.7,364.3,173.8,364.5,174.1,364.6L174.1,364.6z M193.2,363.9c0-0.2-0.1-0.5-0.4-0.6
			c-0.1-0.1-0.3-0.1-0.5-0.1c-0.1,0-0.2,0-0.3,0l-17.8,5.2c-0.4,0.1-0.6,0.4-0.6,0.7v3.1c0,0.2,0.1,0.5,0.4,0.6
			c0.2,0.1,0.5,0.2,0.8,0.1l17.8-5.2c0.4-0.1,0.6-0.4,0.6-0.7V363.9L193.2,363.9z M203.9,344.6c0.5-0.1,0.7-0.6,0.5-1
			c-0.1-0.3-0.5-0.5-0.8-0.5c-0.1,0-0.2,0-0.3,0l-18.6,5.4c-0.5,0.1-0.7,0.6-0.5,1s0.6,0.6,1.1,0.5L203.9,344.6L203.9,344.6z
			 M197.4,357.9c0.2,0.1,0.5,0.2,0.8,0.1l17.8-5.2c0.4-0.1,0.6-0.4,0.6-0.7V349c0-0.2-0.1-0.5-0.4-0.6c-0.1-0.1-0.3-0.1-0.5-0.1
			c-0.1,0-0.2,0-0.3,0l-17.8,5.2c-0.4,0.1-0.6,0.4-0.6,0.7v3.1C197,357.5,197.1,357.7,197.4,357.9L197.4,357.9z M218.4,340.4
			c0.5-0.1,0.7-0.6,0.5-1c-0.1-0.3-0.5-0.5-0.8-0.5c-0.1,0-0.2,0-0.3,0l-9,2.6c-0.5,0.1-0.7,0.6-0.5,1s0.6,0.6,1.1,0.5L218.4,340.4
			L218.4,340.4z M216.5,357.2c0-0.2-0.1-0.5-0.4-0.6c-0.1-0.1-0.3-0.1-0.5-0.1c-0.1,0-0.2,0-0.3,0l-17.8,5.2
			c-0.4,0.1-0.6,0.4-0.6,0.7v3.1c0,0.2,0.1,0.5,0.4,0.6s0.5,0.2,0.8,0.1L216,361c0.4-0.1,0.6-0.4,0.6-0.7V357.2L216.5,357.2z
			 M245.6,296.2c0-0.2-0.1-0.5-0.4-0.6c-0.1-0.1-0.3-0.1-0.5-0.1c-0.1,0-0.2,0-0.3,0l-71.3,20.7c-0.4,0.1-0.6,0.4-0.6,0.7v28.3
			c0,0.2,0.1,0.5,0.4,0.6c0.2,0.1,0.5,0.2,0.8,0.1l71.3-20.7c0.4-0.1,0.6-0.4,0.6-0.7V296.2L245.6,296.2z M239.8,289.3
			c0-0.2-0.1-0.5-0.4-0.6c-0.1-0.1-0.3-0.1-0.5-0.1c-0.1,0-0.2,0-0.3,0l-17.8,5.2c-0.4,0.1-0.6,0.4-0.6,0.7v3.1
			c0,0.2,0.1,0.5,0.4,0.6c0.2,0.1,0.5,0.2,0.8,0.1l17.8-5.2c0.4-0.1,0.6-0.4,0.6-0.7V289.3L239.8,289.3L239.8,289.3z M216.5,296
			c0-0.2-0.1-0.5-0.4-0.6c-0.1-0.1-0.3-0.1-0.5-0.1c-0.1,0-0.2,0-0.3,0l-17.8,5.2c-0.4,0.1-0.6,0.4-0.6,0.7v3.1
			c0,0.2,0.1,0.5,0.4,0.6c0.2,0.1,0.5,0.2,0.8,0.1l17.8-5.2c0.4-0.1,0.6-0.4,0.6-0.7V296L216.5,296z M216.5,287.9
			c0-0.2-0.1-0.5-0.4-0.6c-0.1-0.1-0.3-0.1-0.5-0.1c-0.1,0-0.2,0-0.3,0l-17.8,5.2c-0.4,0.1-0.6,0.4-0.6,0.7v3.1
			c0,0.2,0.1,0.5,0.4,0.6c0.2,0.1,0.5,0.2,0.8,0.1l17.8-5.2c0.4-0.1,0.6-0.4,0.6-0.7V287.9L216.5,287.9z M193.2,302.8
			c0-0.2-0.1-0.5-0.4-0.6c-0.1-0.1-0.3-0.1-0.5-0.1c-0.1,0-0.2,0-0.3,0l-17.8,5.2c-0.4,0.1-0.6,0.4-0.6,0.7v3.1
			c0,0.2,0.1,0.5,0.4,0.6c0.2,0.1,0.5,0.2,0.8,0.1l17.8-5.2c0.4-0.1,0.6-0.4,0.6-0.7V302.8L193.2,302.8z M193.2,294.6
			c0-0.2-0.1-0.5-0.4-0.6c-0.1-0.1-0.3-0.1-0.5-0.1c-0.1,0-0.2,0-0.3,0l-17.8,5.2c-0.4,0.1-0.6,0.4-0.6,0.7v3.1
			c0,0.2,0.1,0.5,0.4,0.6c0.2,0.1,0.5,0.2,0.8,0.1l17.8-5.2c0.4-0.1,0.6-0.4,0.6-0.7V294.6L193.2,294.6z M162.7,293.9L275.6,265
			l0.4,155.6l-113.3,28.9V293.9L162.7,293.9z"/>
		<path class="st4" d="M65.8,396.9c0.3,0.1,0.6,0.1,0.8,0.1c0.4,0,0.9-0.1,1.1-0.3c0.4-0.3,0.6-0.7,0.6-1.3c0-1.4-1.4-3-3.1-3.4
			c-0.8-0.2-1.5-0.1-2,0.2c-0.4,0.3-0.6,0.7-0.6,1.3C62.8,394.9,64.2,396.5,65.8,396.9L65.8,396.9z M62.4,391
			c0.6-0.4,1.4-0.6,2.2-0.6c0.4,0,0.9,0.1,1.3,0.2c2.4,0.6,4.3,2.8,4.3,4.9c0,1-0.5,1.9-1.3,2.5c-0.9,0.6-2.2,0.8-3.5,0.5
			c-2.4-0.6-4.3-2.8-4.3-4.9C61.1,392.5,61.5,391.6,62.4,391L62.4,391L62.4,391z"/>
		<path class="st4" d="M66,335.9c0.3,0.1,0.6,0.1,0.8,0.1c0.4,0,0.8-0.1,1.1-0.3c0.4-0.3,0.6-0.7,0.6-1.3c0-1.4-1.4-3-3.1-3.4
			c-0.8-0.2-1.5-0.1-2,0.2c-0.4,0.3-0.6,0.7-0.6,1.3C62.9,333.9,64.3,335.4,66,335.9z M62.5,330c0.6-0.4,1.4-0.6,2.2-0.6
			c0.4,0,0.9,0.1,1.3,0.2c2.4,0.6,4.3,2.8,4.3,4.9c0,1-0.5,1.9-1.3,2.5c-0.9,0.6-2.2,0.8-3.5,0.5c-2.4-0.6-4.3-2.8-4.3-4.9
			C61.2,331.4,61.7,330.5,62.5,330L62.5,330L62.5,330z"/>
		<path class="st4" d="M92.8,422.6l0-9.8l-32.6-8.4l0,9.8L92.8,422.6L92.8,422.6L92.8,422.6z M58.9,402.9c0.1-0.1,0.3-0.1,0.5-0.1
			c0.1,0,0.2,0,0.2,0l34.3,8.8c0.4,0.1,0.6,0.4,0.6,0.7l0,11.4c0,0.2-0.1,0.5-0.3,0.6c-0.2,0.1-0.5,0.2-0.8,0.1l-34.3-8.8
			c-0.4-0.1-0.6-0.4-0.6-0.7l0-11.4C58.6,403.3,58.7,403,58.9,402.9L58.9,402.9L58.9,402.9z"/>
		<path class="st4" d="M137.1,404.6l0.1-26.6l-74.9-19.2l-0.1,26.6L137.1,404.6L137.1,404.6z M60.5,385.9l0.1-28.2
			c0-0.2,0.1-0.5,0.3-0.6c0.1-0.1,0.3-0.1,0.5-0.1c0.1,0,0.2,0,0.2,0l76.7,19.7c0.4,0.1,0.6,0.4,0.6,0.7l-0.1,28.2
			c0,0.2-0.1,0.5-0.3,0.6c-0.2,0.1-0.5,0.2-0.8,0.1l-76.7-19.7C60.7,386.6,60.5,386.3,60.5,385.9L60.5,385.9L60.5,385.9z"/>
		<path class="st4" d="M93.5,402.4l-20-5.1c-0.5-0.1-0.7-0.5-0.6-1c0.1-0.3,0.5-0.6,0.8-0.6c0.1,0,0.2,0,0.2,0l20,5.1
			c0.5,0.1,0.7,0.5,0.6,1S94,402.5,93.5,402.4L93.5,402.4z"/>
		<path class="st4" d="M99.6,402.4c0.1,0,0.2,0,0.2,0l9.7,2.5c0.5,0.1,0.7,0.5,0.6,1s-0.6,0.6-1,0.5l-9.7-2.5
			c-0.5-0.1-0.7-0.5-0.6-1C98.9,402.6,99.3,402.4,99.6,402.4L99.6,402.4z"/>
		<path class="st4" d="M63.5,350.4v1.5l17.5,4.5v-1.5L63.5,350.4L63.5,350.4z M82.3,358c-0.2,0.1-0.5,0.2-0.8,0.1l-19.2-4.9
			c-0.4-0.1-0.6-0.4-0.6-0.7v-3c0-0.2,0.1-0.5,0.4-0.6c0.1-0.1,0.3-0.1,0.5-0.1c0.1,0,0.2,0,0.2,0l19.2,4.9c0.4,0.1,0.6,0.4,0.6,0.7
			v3C82.6,357.6,82.5,357.9,82.3,358L82.3,358z"/>
		<path class="st4" d="M88.5,356.9v1.5l17.5,4.5v-1.5L88.5,356.9z M107.3,364.4c-0.2,0.1-0.5,0.2-0.8,0.1l-19.2-4.9
			c-0.4-0.1-0.6-0.4-0.6-0.7v-3c0-0.2,0.1-0.5,0.4-0.6c0.1-0.1,0.3-0.1,0.5-0.1c0.1,0,0.2,0,0.2,0l19.2,4.9c0.4,0.1,0.6,0.4,0.6,0.7
			v3C107.7,364,107.5,364.3,107.3,364.4L107.3,364.4z"/>
		<path class="st4" d="M131,369.2v-1.5l-17.5-4.5v1.5L131,369.2z M112.7,361.5c0.1,0,0.2,0,0.2,0l19.2,4.9c0.4,0.1,0.6,0.4,0.6,0.7
			v3c0,0.2-0.1,0.5-0.4,0.6c-0.2,0.1-0.5,0.2-0.8,0.1l-19.2-4.9c-0.4-0.1-0.6-0.4-0.6-0.7v-3c0-0.2,0.1-0.5,0.4-0.6
			C112.4,361.6,112.5,361.5,112.7,361.5L112.7,361.5z"/>
		<path class="st4" d="M63.5,342.3v1.5l17.5,4.5v-1.5L63.5,342.3L63.5,342.3z M82.3,349.9c-0.2,0.1-0.5,0.2-0.8,0.1l-19.2-4.9
			c-0.4-0.1-0.6-0.4-0.6-0.7v-3c0-0.2,0.1-0.5,0.4-0.6c0.1-0.1,0.3-0.1,0.5-0.1c0.1,0,0.2,0,0.2,0l19.2,4.9c0.4,0.1,0.6,0.4,0.6,0.7
			v3C82.6,349.5,82.5,349.7,82.3,349.9L82.3,349.9z"/>
		<path class="st4" d="M88.5,348.7v1.5l17.5,4.5v-1.5L88.5,348.7z M107.4,356.3c-0.2,0.1-0.5,0.2-0.8,0.1l-19.2-4.9
			c-0.4-0.1-0.6-0.4-0.6-0.7v-3c0-0.2,0.1-0.5,0.4-0.6c0.1-0.1,0.3-0.1,0.5-0.1c0.1,0,0.2,0,0.2,0l19.2,4.9c0.4,0.1,0.6,0.4,0.6,0.7
			v3C107.7,355.9,107.6,356.1,107.4,356.3L107.4,356.3z"/>
		<path class="st4" d="M62.4,297.7l-0.1,26.6l74.9,19.2l0.1-26.6L62.4,297.7L62.4,297.7z M137.9,345.3l-76.7-19.7
			c-0.4-0.1-0.6-0.4-0.6-0.7l0.1-28.2c0-0.2,0.1-0.5,0.3-0.6c0.1-0.1,0.3-0.1,0.5-0.1c0.1,0,0.2,0,0.2,0l76.7,19.7
			c0.4,0.1,0.6,0.4,0.6,0.7l-0.1,28.2c0,0.2-0.1,0.5-0.3,0.6C138.4,345.3,138.2,345.4,137.9,345.3L137.9,345.3L137.9,345.3z"/>
		<path class="st4" d="M73,335.3c0.1-0.3,0.5-0.6,0.8-0.6c0.1,0,0.2,0,0.2,0l20,5.1c0.5,0.1,0.7,0.5,0.6,1s-0.6,0.6-1,0.5l-20-5.1
			C73.2,336.1,72.9,335.7,73,335.3L73,335.3z"/>
		<path class="st4" d="M99,341.9c0.1-0.3,0.5-0.6,0.8-0.6c0.1,0,0.2,0,0.2,0l9.7,2.5c0.5,0.1,0.7,0.5,0.6,1s-0.6,0.6-1,0.5l-9.7-2.5
			C99.1,342.8,98.8,342.4,99,341.9L99,341.9z"/>
		<path class="st4" d="M81.1,295.3v-1.5l-17.5-4.5v1.5L81.1,295.3L81.1,295.3L81.1,295.3z M62.8,287.6c0.1,0,0.2,0,0.2,0l19.2,4.9
			c0.4,0.1,0.6,0.4,0.6,0.7v3c0,0.2-0.1,0.5-0.4,0.6c-0.2,0.1-0.5,0.2-0.8,0.1l-19.2-4.9c-0.4-0.1-0.6-0.4-0.6-0.7v-3
			c0-0.2,0.1-0.5,0.4-0.6C62.4,287.7,62.6,287.6,62.8,287.6L62.8,287.6z"/>
		<path class="st4" d="M106.1,301.8v-1.5l-17.5-4.5v1.5L106.1,301.8z M87.8,294.1c0.1,0,0.2,0,0.2,0l19.2,4.9
			c0.4,0.1,0.6,0.4,0.6,0.7v3c0,0.2-0.1,0.5-0.4,0.6c-0.2,0.1-0.5,0.2-0.8,0.1l-19.2-4.9c-0.4-0.1-0.6-0.4-0.6-0.7v-3
			c0-0.2,0.1-0.5,0.4-0.6C87.4,294.1,87.6,294.1,87.8,294.1L87.8,294.1z"/>
		<path class="st4" d="M113.7,302.3v1.5l17.5,4.5v-1.5L113.7,302.3L113.7,302.3z M132.6,309.8c-0.2,0.1-0.5,0.2-0.8,0.1l-19.2-4.9
			c-0.4-0.1-0.6-0.4-0.6-0.7v-3c0-0.2,0.1-0.5,0.4-0.6c0.1-0.1,0.3-0.1,0.5-0.1c0.1,0,0.2,0,0.2,0l19.2,4.9c0.4,0.1,0.6,0.4,0.6,0.7
			v3C132.9,309.4,132.8,309.7,132.6,309.8L132.6,309.8L132.6,309.8z"/>
		<path class="st4" d="M63.6,281.3v1.5l17.5,4.5v-1.5L63.6,281.3z M82.5,288.8c-0.2,0.1-0.5,0.2-0.8,0.1L62.5,284
			c-0.4-0.1-0.6-0.4-0.6-0.7v-3c0-0.2,0.1-0.5,0.4-0.6c0.1-0.1,0.3-0.1,0.5-0.1c0.1,0,0.2,0,0.2,0l19.2,4.9c0.4,0.1,0.6,0.4,0.6,0.7
			v3C82.8,288.5,82.7,288.7,82.5,288.8L82.5,288.8z"/>
		<path class="st4" d="M88.7,287.7v1.5l17.5,4.5v-1.5L88.7,287.7z M107.5,295.3c-0.2,0.1-0.5,0.2-0.8,0.1l-19.2-4.9
			c-0.4-0.1-0.6-0.4-0.6-0.7v-3c0-0.2,0.1-0.5,0.4-0.6c0.1-0.1,0.3-0.1,0.5-0.1c0.1,0,0.2,0,0.2,0l19.2,4.9c0.4,0.1,0.6,0.4,0.6,0.7
			v3C107.9,294.9,107.7,295.1,107.5,295.3L107.5,295.3z"/>
		<path class="st4" d="M275.6,265L162.7,294v155.6L276,420.6L275.6,265L275.6,265z M161,294L48.1,265l-0.4,155.6L161,449.5V294z
			 M277.1,421.9l-115,29.4c0,0,0,0,0,0c0,0-0.1,0-0.1,0c-0.1,0-0.2,0-0.2,0c0,0,0,0-0.1,0l-115-29.4c-0.4-0.1-0.6-0.4-0.6-0.7
			L46.4,264c0-0.2,0.1-0.5,0.3-0.6c0.1-0.1,0.3-0.1,0.5-0.1c0.1,0,0.2,0,0.2,0l114.4,29.3l114.4-29.3c0.1,0,0.2,0,0.2,0
			c0.2,0,0.4,0,0.5,0.1c0.2,0.1,0.3,0.4,0.3,0.6l0.4,157.2C277.7,421.5,277.4,421.8,277.1,421.9L277.1,421.9L277.1,421.9z"/>
		<path class="st4" d="M172.6,435.3l30.1-8.7v-9.8l-30.2,8.7L172.6,435.3L172.6,435.3L172.6,435.3z M171.5,424.2l31.9-9.2
			c0.1,0,0.2,0,0.3,0c0.2,0,0.4,0,0.5,0.1c0.2,0.1,0.4,0.4,0.4,0.6v11.4c0,0.3-0.2,0.6-0.6,0.7l-31.9,9.2c-0.3,0.1-0.5,0-0.8-0.1
			c-0.2-0.1-0.4-0.4-0.4-0.6V425C170.9,424.6,171.1,424.3,171.5,424.2L171.5,424.2z"/>
		<path class="st4" d="M174.3,405.3l69.6-20.2v-26.6l-69.6,20.2V405.3z M173,407c-0.2-0.1-0.4-0.4-0.4-0.6v-28.3
			c0-0.3,0.2-0.6,0.6-0.7l71.3-20.7c0.1,0,0.2,0,0.3,0c0.2,0,0.4,0,0.5,0.1c0.2,0.1,0.4,0.4,0.4,0.6v28.3c0,0.3-0.2,0.6-0.6,0.7
			l-71.3,20.7C173.5,407.2,173.2,407.1,173,407L173,407z"/>
		<path class="st4" d="M203.9,405.8l-18.6,5.4c-0.5,0.1-0.9-0.1-1.1-0.5s0.1-0.8,0.5-1l18.6-5.4c0.1,0,0.2,0,0.3,0
			c0.4,0,0.7,0.2,0.8,0.5C204.6,405.2,204.3,405.7,203.9,405.8L203.9,405.8L203.9,405.8z"/>
		<path class="st4" d="M208.9,402.7l9-2.6c0.1,0,0.2,0,0.3,0c0.4,0,0.7,0.2,0.8,0.5c0.1,0.4-0.1,0.8-0.5,1l-9,2.6
			c-0.5,0.1-0.9-0.1-1.1-0.5S208.4,402.9,208.9,402.7L208.9,402.7z"/>
		<path class="st4" d="M175.5,415c0.2,0.2,0.6,0.2,0.9,0.2c0.2,0,0.5,0,0.8-0.1c1.5-0.5,2.8-2,2.8-3.5c0-0.6-0.2-1.1-0.6-1.3
			c-0.4-0.3-1-0.3-1.7-0.1c-1.5,0.5-2.8,2-2.8,3.5C174.9,414.2,175.1,414.7,175.5,415L175.5,415z M177.2,408.7
			c0.4-0.1,0.9-0.2,1.3-0.2c0.7,0,1.4,0.2,1.9,0.5c0.9,0.6,1.3,1.5,1.3,2.6c0,2.1-1.8,4.2-4,4.9c-1.2,0.3-2.3,0.2-3.2-0.4
			c-0.9-0.6-1.3-1.5-1.3-2.6C173.2,411.5,174.9,409.4,177.2,408.7L177.2,408.7z"/>
		<path class="st4" d="M191.5,365l-16.1,4.7v1.4l16.1-4.7V365L191.5,365z M192.6,367.7l-17.8,5.2c-0.3,0.1-0.5,0-0.8-0.1
			c-0.2-0.1-0.4-0.4-0.4-0.6v-3.1c0-0.3,0.2-0.6,0.6-0.7l17.8-5.2c0.1,0,0.2,0,0.3,0c0.2,0,0.4,0,0.5,0.1c0.2,0.1,0.4,0.4,0.4,0.6
			v3.1C193.2,367.3,193,367.6,192.6,367.7L192.6,367.7z"/>
		<path class="st4" d="M214.8,358.3l-16.1,4.7v1.5l16.1-4.7L214.8,358.3L214.8,358.3L214.8,358.3z M215.9,361l-17.8,5.2
			c-0.3,0.1-0.5,0-0.8-0.1c-0.2-0.1-0.4-0.4-0.4-0.6v-3.1c0-0.3,0.2-0.6,0.6-0.7l17.8-5.2c0.1,0,0.2,0,0.3,0c0.2,0,0.4,0,0.5,0.1
			c0.2,0.1,0.4,0.4,0.4,0.6v3.1C216.5,360.6,216.3,360.9,215.9,361L215.9,361z"/>
		<path class="st4" d="M222,357.6l16.1-4.7v-1.4l-16.1,4.7L222,357.6L222,357.6z M238.7,349.7c0.1,0,0.2,0,0.3,0
			c0.2,0,0.4,0,0.5,0.1c0.2,0.1,0.4,0.4,0.4,0.6v3.1c0,0.3-0.2,0.6-0.6,0.7l-17.8,5.2c-0.3,0.1-0.5,0-0.8-0.1
			c-0.2-0.1-0.4-0.4-0.4-0.6v-3.1c0-0.3,0.2-0.6,0.6-0.7L238.7,349.7L238.7,349.7z"/>
		<path class="st4" d="M175.4,363l16.1-4.7v-1.5l-16.1,4.7V363z M173.7,361c0-0.3,0.2-0.6,0.6-0.7l17.8-5.2c0.1,0,0.2,0,0.3,0
			c0.2,0,0.4,0,0.5,0.1c0.2,0.1,0.4,0.4,0.4,0.6v3.1c0,0.3-0.2,0.6-0.6,0.7l-17.8,5.2c-0.3,0.1-0.5,0-0.8-0.1
			c-0.2-0.1-0.4-0.4-0.4-0.6V361z"/>
		<path class="st4" d="M198.7,356.2l16.1-4.7v-1.4l-16.1,4.7V356.2z M197,354.2c0-0.3,0.2-0.6,0.6-0.7l17.8-5.2c0.1,0,0.2,0,0.3,0
			c0.2,0,0.4,0,0.5,0.1c0.2,0.1,0.4,0.4,0.4,0.6v3.1c0,0.3-0.2,0.6-0.6,0.7l-17.8,5.2c-0.3,0.1-0.5,0-0.8-0.1
			c-0.2-0.1-0.4-0.4-0.4-0.6V354.2z"/>
		<path class="st4" d="M243.9,297.3l-69.6,20.2v26.6l69.6-20.2V297.3z M245,325.3l-71.3,20.7c-0.3,0.1-0.5,0-0.8-0.1
			c-0.2-0.1-0.4-0.4-0.4-0.6v-28.3c0-0.3,0.2-0.6,0.6-0.7l71.3-20.7c0.1,0,0.2,0,0.3,0c0.2,0,0.4,0,0.5,0.1c0.2,0.1,0.4,0.4,0.4,0.6
			v28.3C245.6,324.9,245.4,325.2,245,325.3L245,325.3z"/>
		<path class="st4" d="M184.2,349.5c-0.1-0.4,0.1-0.8,0.5-1l18.6-5.4c0.1,0,0.2,0,0.3,0c0.4,0,0.7,0.2,0.8,0.5
			c0.1,0.4-0.1,0.8-0.5,1l-18.6,5.4C184.8,350.1,184.3,349.9,184.2,349.5L184.2,349.5z"/>
		<path class="st4" d="M208.3,342.5c-0.1-0.4,0.1-0.8,0.5-1l9-2.6c0.1,0,0.2,0,0.3,0c0.4,0,0.7,0.2,0.8,0.5c0.1,0.4-0.1,0.8-0.5,1
			l-9,2.6C208.9,343.1,208.4,342.9,208.3,342.5L208.3,342.5z"/>
		<path class="st4" d="M175.5,353.8c0.2,0.2,0.6,0.2,0.9,0.2c0.2,0,0.5,0,0.8-0.1c1.5-0.5,2.8-2,2.8-3.5c0-0.6-0.2-1.1-0.6-1.3
			c-0.4-0.3-1-0.3-1.7-0.1c-1.5,0.5-2.8,2-2.8,3.5C174.9,353,175.1,353.5,175.5,353.8L175.5,353.8L175.5,353.8z M177.2,347.5
			c0.4-0.1,0.9-0.2,1.3-0.2c0.7,0,1.4,0.2,1.9,0.5c0.9,0.6,1.3,1.5,1.3,2.6c0,2.1-1.8,4.2-4,4.9c-1.2,0.3-2.3,0.2-3.2-0.4
			c-0.9-0.6-1.3-1.5-1.3-2.6C173.2,350.4,174.9,348.2,177.2,347.5L177.2,347.5z"/>
		<path class="st4" d="M191.5,303.8l-16.1,4.7v1.5l16.1-4.7L191.5,303.8L191.5,303.8L191.5,303.8z M192.6,306.6l-17.8,5.2
			c-0.3,0.1-0.5,0-0.8-0.1c-0.2-0.1-0.4-0.4-0.4-0.6v-3.1c0-0.3,0.2-0.6,0.6-0.7l17.8-5.2c0.1,0,0.2,0,0.3,0c0.2,0,0.4,0,0.5,0.1
			c0.2,0.1,0.4,0.4,0.4,0.6v3.1C193.2,306.2,193,306.5,192.6,306.6L192.6,306.6z"/>
		<path class="st4" d="M214.8,297.1l-16.1,4.7v1.4l16.1-4.7L214.8,297.1L214.8,297.1z M215.9,299.8l-17.8,5.2
			c-0.3,0.1-0.5,0-0.8-0.1c-0.2-0.1-0.4-0.4-0.4-0.6v-3.1c0-0.3,0.2-0.6,0.6-0.7l17.8-5.2c0.1,0,0.2,0,0.3,0c0.2,0,0.4,0,0.5,0.1
			c0.2,0.1,0.4,0.4,0.4,0.6v3.1C216.5,299.4,216.3,299.7,215.9,299.8L215.9,299.8z"/>
		<path class="st4" d="M238.1,290.3L222,295v1.5l16.1-4.7V290.3L238.1,290.3z M239.2,293.1l-17.8,5.2c-0.3,0.1-0.5,0-0.8-0.1
			c-0.2-0.1-0.4-0.4-0.4-0.6v-3.1c0-0.3,0.2-0.6,0.6-0.7l17.8-5.2c0.1,0,0.2,0,0.3,0c0.2,0,0.4,0,0.5,0.1c0.2,0.1,0.4,0.4,0.4,0.6
			v3.1C239.8,292.7,239.6,293,239.2,293.1L239.2,293.1L239.2,293.1z"/>
		<path class="st4" d="M191.5,295.7l-16.1,4.7v1.4l16.1-4.7L191.5,295.7L191.5,295.7L191.5,295.7z M192.6,298.4l-17.8,5.2
			c-0.3,0.1-0.5,0-0.8-0.1c-0.2-0.1-0.4-0.4-0.4-0.6v-3.1c0-0.3,0.2-0.6,0.6-0.7l17.8-5.2c0.1,0,0.2,0,0.3,0c0.2,0,0.4,0,0.5,0.1
			c0.2,0.1,0.4,0.4,0.4,0.6v3.1C193.2,298,193,298.3,192.6,298.4L192.6,298.4z"/>
		<path class="st4" d="M214.8,288.9l-16.1,4.7v1.5l16.1-4.7L214.8,288.9L214.8,288.9L214.8,288.9z M215.9,291.7l-17.8,5.2
			c-0.3,0.1-0.5,0-0.8-0.1c-0.2-0.1-0.4-0.4-0.4-0.6V293c0-0.3,0.2-0.6,0.6-0.7l17.8-5.2c0.1,0,0.2,0,0.3,0c0.2,0,0.4,0,0.5,0.1
			c0.2,0.1,0.4,0.4,0.4,0.6v3.1C216.5,291.3,216.3,291.6,215.9,291.7L215.9,291.7z"/>
		<path class="st5" d="M66.1,333.3l81.4,21.8l-0.5,2l-81.4-21.8L66.1,333.3z M147.5,355.2c0.5,0.1,0.9,0.7,0.7,1.2
			c-0.1,0.5-0.7,0.9-1.2,0.7L147.5,355.2z M65.5,335.3c-0.5-0.1-0.9-0.7-0.7-1.2c0.1-0.5,0.7-0.9,1.2-0.7L65.5,335.3z"/>
		<path class="st5" d="M65.5,317.7l83,21.3l-0.5,2l-83-21.3L65.5,317.7L65.5,317.7z M148.5,339c0.5,0.1,0.9,0.7,0.7,1.2
			s-0.7,0.9-1.2,0.7L148.5,339L148.5,339z M65,319.7c-0.5-0.1-0.9-0.7-0.7-1.2s0.7-0.9,1.2-0.7L65,319.7L65,319.7z"/>
		<path class="st5" d="M57.4,298.5l91.1,23.3l-0.5,2l-91.1-23.3L57.4,298.5L57.4,298.5z M148.5,321.8c0.5,0.1,0.9,0.7,0.7,1.2
			s-0.7,0.9-1.2,0.7L148.5,321.8L148.5,321.8z M56.9,300.4c-0.5-0.1-0.9-0.7-0.7-1.2s0.7-0.9,1.2-0.7L56.9,300.4L56.9,300.4z"/>
		<path class="st5" d="M59.4,280.3l91.1,24.3l-0.5,2l-91.1-24.3L59.4,280.3L59.4,280.3z M150.5,304.6c0.5,0.1,0.9,0.7,0.7,1.2
			c-0.1,0.5-0.7,0.9-1.2,0.7L150.5,304.6z M58.9,282.2c-0.5-0.1-0.9-0.7-0.7-1.2c0.1-0.5,0.7-0.9,1.2-0.7L58.9,282.2z"/>
		<path class="st5" d="M266.9,403.7L171.8,428l-0.5-2l95.2-24.3L266.9,403.7z M171.8,428c-0.5,0.1-1.1-0.2-1.2-0.7s0.2-1.1,0.7-1.2
			L171.8,428L171.8,428z M266.4,401.7c0.5-0.1,1.1,0.2,1.2,0.7s-0.2,1.1-0.7,1.2L266.4,401.7L266.4,401.7z"/>
		<path class="st5" d="M264.9,387.5l-93.1,23.3l-0.5-2l93.1-23.3L264.9,387.5z M171.8,410.8c-0.5,0.1-1.1-0.2-1.2-0.7
			c-0.1-0.5,0.2-1.1,0.7-1.2L171.8,410.8L171.8,410.8z M264.4,385.5c0.5-0.1,1.1,0.2,1.2,0.7s-0.2,1.1-0.7,1.2L264.4,385.5
			L264.4,385.5z"/>
		<path class="st5" d="M252.7,373.3l-81,20.2l-0.5-2l81-20.2L252.7,373.3z M171.8,393.6c-0.5,0.1-1.1-0.2-1.2-0.7s0.2-1.1,0.7-1.2
			L171.8,393.6L171.8,393.6z M252.2,371.4c0.5-0.1,1.1,0.2,1.2,0.7c0.1,0.5-0.2,1.1-0.7,1.2L252.2,371.4L252.2,371.4z"/>
		<path class="st5" d="M247.7,357.1l-75.9,18.2l-0.5-2l75.9-18.2L247.7,357.1L247.7,357.1z M171.7,375.4c-0.5,0.1-1.1-0.2-1.2-0.8
			c-0.1-0.5,0.2-1.1,0.8-1.2L171.7,375.4z M247.2,355.2c0.5-0.1,1.1,0.2,1.2,0.8s-0.2,1.1-0.8,1.2L247.2,355.2z"/>
		<path class="st5" d="M249.7,338.9l-77.9,19.2l-0.5-2l78-19.2L249.7,338.9L249.7,338.9z M171.7,358.1c-0.5,0.1-1.1-0.2-1.2-0.7
			s0.2-1.1,0.7-1.2L171.7,358.1L171.7,358.1z M249.2,336.9c0.5-0.1,1.1,0.2,1.2,0.7s-0.2,1.1-0.7,1.2L249.2,336.9L249.2,336.9z"/>
		<path class="st5" d="M207.2,331.8l-35.4,9.1l-0.5-2l35.4-9.1L207.2,331.8z M171.8,340.9c-0.5,0.1-1.1-0.2-1.2-0.7s0.2-1.1,0.7-1.2
			L171.8,340.9L171.8,340.9z M206.7,329.9c0.5-0.1,1.1,0.2,1.2,0.7s-0.2,1.1-0.7,1.2L206.7,329.9L206.7,329.9z"/>
		<path class="st5" d="M207.2,316.6l-35.4,9.1l-0.5-2l35.4-9.1L207.2,316.6z M171.8,325.7c-0.5,0.1-1.1-0.2-1.2-0.7s0.2-1.1,0.7-1.2
			L171.8,325.7L171.8,325.7z M206.7,314.7c0.5-0.1,1.1,0.2,1.2,0.7s-0.2,1.1-0.7,1.2L206.7,314.7L206.7,314.7z"/>
		<path class="st5" d="M207.2,301.5l-35.4,9.1l-0.5-2l35.4-9.1L207.2,301.5z M171.8,310.6c-0.5,0.1-1.1-0.2-1.2-0.7s0.2-1.1,0.7-1.2
			L171.8,310.6L171.8,310.6z M206.7,299.5c0.5-0.1,1.1,0.2,1.2,0.7s-0.2,1.1-0.7,1.2L206.7,299.5L206.7,299.5z"/>
		<polygon class="st3" points="58.1,408.4 149.2,434.1 149.2,370.2 58.1,345 		"/>
		<polygon class="st3" points="212,291.9 267.7,277.2 267.7,319.2 212,333.1 		"/>
		<path class="st18" d="M55.3,339.4c-0.1,0-0.1,0-0.2,0l-17.6-2.2c-0.5-0.1-1-0.1-1.5-0.1c-0.3,0-0.6,0-0.9,0.1c0,0-0.1,0-0.1,0
			c-4.4-1.1-8.6-5.5-7.8-10.4l0.5-2.7c0.4-2.5,1.9-4.6,4-6s4.6-1.8,7.1-1.2l18.8,4.6c0,0,0.1,0,0.1,0c0.1,0,0.1,0,0.2,0l0.5,0.1
			c4.6,1.1,7.5,5.7,6.7,10.3c-0.8,4.3-4.4,7.4-8.7,7.5C56,339.5,55.7,339.5,55.3,339.4L55.3,339.4L55.3,339.4z"/>
		<path class="st18" d="M55.4,362.8c0,0,0.1,0,0.1,0c5,0,9.2,3.9,9.6,8.9c0.4,5-3.2,9.6-8.2,10.3l-21.2,3.2c-0.5,0.1-1,0.1-1.5,0.1
			c-2.2,0-4.2-0.7-6-2.1c-2.1-1.7-3.4-4.1-3.6-6.8l-0.2-2.9c-0.2-2.7,0.7-5.3,2.5-7.3s4.3-3.1,7-3.2L55.4,362.8L55.4,362.8
			L55.4,362.8z"/>
		<path class="st18" d="M58.3,319.9l-17.8-4.4c-0.1-0.2-0.2-0.3-0.4-0.4c-3.3-1.6-4.9-5.4-3.8-8.9l0.7-2.2c0.6-2,2-3.5,3.9-4.4
			s4-0.9,5.9-0.2l15.6,6.2c3.6,1.4,5.5,5.4,4.3,9.1C65.5,318.6,61.9,320.7,58.3,319.9L58.3,319.9L58.3,319.9z"/>
		<path class="st18" d="M56.6,361.1c0,0-0.1,0-0.1,0c-0.3,0-0.6,0-0.9,0c-0.1,0-0.1,0-0.1,0l-19,0.2c0,0-0.1,0-0.1,0h-0.1
			c-2.7,0-5.3-1.1-7.2-3.1c-1.9-2-2.9-4.6-2.8-7.3l0.2-2.9c0.1-2.7,1.4-5.1,3.5-6.9c2.1-1.7,4.7-2.5,7.4-2.2l21.3,2.7
			c5,0.6,8.7,5.1,8.4,10.1C66.8,356.7,61.9,361.1,56.6,361.1L56.6,361.1z"/>
		<path class="st18" d="M58.6,341.6l-21.3-2.7c-2.7-0.3-5.3,0.4-7.4,2.2c-2.1,1.7-3.3,4.2-3.5,6.9l-0.2,2.9
			c-0.1,2.6,0.9,5.3,2.8,7.3c1.9,2,4.5,3.1,7.2,3.1h0.1c0,0,0.1,0,0.1,0l19-0.2c0,0,0.1,0,0.1,0c0.3,0,0.6,0,0.9,0c0,0,0.1,0,0.1,0
			c5.3-0.1,10.2-4.4,10.5-9.4C67.3,346.7,63.6,342.3,58.6,341.6L58.6,341.6z M65.1,332c0.8-4.6-2.1-9.2-6.7-10.3l-0.5-0.1
			c-0.1,0-0.1,0-0.2,0c0,0-0.1,0-0.1,0l-18.8-4.6c-2.4-0.6-5-0.2-7.1,1.2c-2.1,1.4-3.5,3.5-4,6l-0.5,2.7c-0.9,4.9,3.3,9.3,7.8,10.4
			c0,0,0.1,0,0.1,0c0.3,0,0.6-0.1,0.9-0.1c0.5,0,1,0,1.5,0.1l17.6,2.2c0.1,0,0.1,0,0.2,0c0.4,0,0.7,0.1,1.1,0
			C60.7,339.4,64.4,336.3,65.1,332L65.1,332L65.1,332z M66.7,314.8c1.2-3.7-0.7-7.7-4.3-9.1l-15.6-6.2c-1.9-0.8-4-0.7-5.9,0.2
			c-1.9,0.9-3.2,2.5-3.9,4.4l-0.7,2.2c-1.1,3.5,0.5,7.3,3.8,8.9c0.2,0.1,0.3,0.2,0.4,0.4l17.8,4.4C61.9,320.7,65.5,318.6,66.7,314.8
			L66.7,314.8L66.7,314.8z M26.9,366.2c-1.8,2-2.7,4.6-2.5,7.3l0.2,2.9c0.2,2.7,1.5,5.1,3.6,6.8c1.7,1.4,3.8,2.1,6,2.1
			c0.5,0,1,0,1.5-0.1L57,382c5-0.8,8.6-5.3,8.2-10.3c-0.4-5-4.6-8.9-9.6-8.9c0,0-0.1,0-0.1,0l-21.5,0.3
			C31.2,363.1,28.7,364.2,26.9,366.2L26.9,366.2L26.9,366.2z M68.8,351.9c-0.3,4.6-3.9,8.7-8.5,10.3c3.6,1.7,6.2,5.2,6.6,9.4
			c0.5,5.9-3.8,11.3-9.6,12.2L36,386.9c-3.1,0.5-6.3-0.4-8.8-2.3c-2.5-2-4-4.8-4.3-8l-0.2-2.9c-0.3-3.2,0.8-6.2,2.9-8.6
			c1.5-1.6,3.4-2.8,5.4-3.3c-1.2-0.6-2.3-1.4-3.3-2.4c-2.2-2.3-3.4-5.4-3.2-8.5l0.2-2.9c0.2-3.2,1.6-6.1,4.1-8.1
			c1-0.8,2.1-1.5,3.3-1.9c-4.1-2.1-7.3-6.5-6.5-11.4l0.5-2.7c0.5-3,2.2-5.5,4.7-7.1c1.8-1.1,3.8-1.7,5.8-1.7c0.1,0,0.2,0,0.3,0
			c-2.3-2.4-3.3-5.9-2.2-9.2l0.7-2.2c0.8-2.4,2.5-4.4,4.8-5.4c1.2-0.6,2.5-0.9,3.9-0.9c1.1,0,2.3,0.2,3.4,0.7l15.6,6.2
			c4.4,1.8,6.7,6.7,5.3,11.2c-1,3.1-3.4,5.4-6.3,6.1c3.5,2.3,5.5,6.5,4.7,10.9c-0.6,3.6-3.1,6.5-6.3,8
			C65.5,341.7,69.1,346.5,68.8,351.9L68.8,351.9L68.8,351.9z"/>
		<path class="st18" d="M23.3,350.1c-4.7,34.7,4,37.6,10.6,36.4L50,302.2c0.5-2.5-1.1-7.7-12.5-4S25.4,334.6,23.3,350.1L23.3,350.1z
			"/>
		<path class="st5" d="M59.5,363.6l-21.2-0.9l0.1-1.8l21.2,0.9L59.5,363.6z M38.3,362.7c-0.5,0-0.9-0.4-0.8-0.9s0.4-0.9,0.9-0.8
			L38.3,362.7L38.3,362.7z M59.6,361.9c0.5,0,0.9,0.4,0.8,0.9s-0.4,0.9-0.9,0.8L59.6,361.9L59.6,361.9z"/>
		<path class="st5" d="M60.4,341.5l-21.2-0.9l0.1-1.8l21.2,0.9L60.4,341.5z M39.2,340.6c-0.5,0-0.9-0.4-0.8-0.9s0.4-0.9,0.9-0.8
			L39.2,340.6L39.2,340.6z M60.5,339.7c0.5,0,0.9,0.4,0.8,0.9s-0.4,0.9-0.9,0.8L60.5,339.7L60.5,339.7z"/>
		<path class="st5" d="M61.4,322.1l-21.2-0.9l0.1-1.8l21.2,0.9L61.4,322.1z M40.2,321.2c-0.5,0-0.9-0.4-0.8-0.9s0.4-0.9,0.9-0.8
			L40.2,321.2L40.2,321.2z M61.4,320.4c0.5,0,0.9,0.4,0.8,0.9s-0.4,0.9-0.9,0.8L61.4,320.4L61.4,320.4z"/>
		<path class="st18" d="M268,339.4c0.1,0,0.1,0,0.2,0l17.6-2.2c0.5-0.1,1-0.1,1.5-0.1c0.3,0,0.6,0,0.9,0.1c0,0,0.1,0,0.1,0
			c4.5-1.1,8.6-5.5,7.8-10.4l-0.5-2.7c-0.4-2.5-1.9-4.6-4-6s-4.6-1.8-7.1-1.2l-18.8,4.6c0,0-0.1,0-0.1,0c-0.1,0-0.1,0-0.2,0
			l-0.5,0.1c-4.6,1.1-7.5,5.7-6.7,10.3c0.8,4.3,4.4,7.4,8.7,7.5C267.2,339.5,267.6,339.5,268,339.4L268,339.4L268,339.4z"/>
		<path class="st18" d="M267.8,362.8c0,0-0.1,0-0.1,0c-5,0-9.2,3.9-9.6,8.9c-0.4,5,3.2,9.6,8.2,10.3l21.2,3.2c0.5,0.1,1,0.1,1.5,0.1
			c2.2,0,4.2-0.7,6-2.1c2.1-1.7,3.4-4.1,3.6-6.8l0.2-2.9c0.2-2.7-0.7-5.3-2.5-7.3c-1.8-2-4.3-3.1-7-3.2L267.8,362.8L267.8,362.8
			L267.8,362.8z"/>
		<path class="st18" d="M264.9,319.9l17.8-4.4c0.1-0.2,0.2-0.3,0.4-0.4c3.3-1.6,4.9-5.4,3.8-8.9l-0.7-2.2c-0.6-2-2-3.5-3.9-4.4
			c-1.9-0.9-4-0.9-5.9-0.2l-15.6,6.2c-3.6,1.4-5.5,5.4-4.3,9.1C257.7,318.6,261.3,320.7,264.9,319.9L264.9,319.9L264.9,319.9z"/>
		<path class="st18" d="M266.7,361.1c0,0,0.1,0,0.1,0c0.3,0,0.6,0,0.9,0c0,0,0.1,0,0.1,0l19,0.2c0,0,0.1,0,0.1,0h0.1
			c2.7,0,5.3-1.1,7.2-3.1c1.9-2,2.9-4.6,2.8-7.3l-0.2-2.9c-0.1-2.7-1.4-5.1-3.5-6.9c-2.1-1.7-4.7-2.5-7.4-2.2l-21.3,2.7
			c-5,0.6-8.7,5.1-8.5,10.1C256.5,356.7,261.4,361.1,266.7,361.1L266.7,361.1z"/>
		<path class="st18" d="M256.2,351.8c0.3,4.9,5.2,9.3,10.5,9.4c0,0,0.1,0,0.1,0c0.3,0,0.6,0,0.9,0c0,0,0.1,0,0.1,0l19,0.2
			c0,0,0.1,0,0.1,0h0.1c2.7,0,5.3-1.1,7.2-3.1c1.9-2,2.9-4.6,2.8-7.3l-0.2-2.9c-0.1-2.7-1.4-5.1-3.5-6.9c-2.1-1.7-4.7-2.5-7.4-2.2
			l-21.3,2.7C259.6,342.3,255.9,346.7,256.2,351.8L256.2,351.8z M266.9,339.5c0.4,0,0.7,0,1.1,0c0.1,0,0.1,0,0.2,0l17.6-2.2
			c0.5-0.1,1-0.1,1.5-0.1c0.3,0,0.6,0,0.9,0.1c0,0,0.1,0,0.1,0c4.4-1.1,8.6-5.5,7.8-10.4l-0.5-2.7c-0.4-2.5-1.9-4.6-4-6
			s-4.6-1.8-7.1-1.2l-18.8,4.6c0,0-0.1,0-0.1,0c-0.1,0-0.1,0-0.2,0l-0.5,0.1c-4.6,1.1-7.5,5.7-6.7,10.3
			C258.9,336.3,262.5,339.5,266.9,339.5L266.9,339.5L266.9,339.5z M264.9,319.9l17.8-4.4c0.1-0.2,0.2-0.3,0.4-0.4
			c3.3-1.6,4.9-5.4,3.8-8.9l-0.7-2.2c-0.6-2-2-3.5-3.9-4.4c-1.9-0.9-4-0.9-5.9-0.2l-15.6,6.2c-3.6,1.4-5.5,5.4-4.3,9.1
			C257.7,318.6,261.3,320.7,264.9,319.9L264.9,319.9L264.9,319.9z M289.3,363.1l-21.5-0.3c0,0-0.1,0-0.1,0c-5,0-9.2,3.9-9.6,8.9
			c-0.4,5,3.2,9.6,8.2,10.3l21.2,3.2c0.5,0.1,1,0.1,1.5,0.1c2.2,0,4.2-0.7,6-2.1c2.1-1.7,3.4-4.1,3.6-6.8l0.2-2.9
			c0.2-2.7-0.7-5.3-2.5-7.3C294.5,364.2,292,363.1,289.3,363.1L289.3,363.1L289.3,363.1z M262.8,340.3c-3.2-1.4-5.7-4.3-6.3-8
			c-0.8-4.3,1.2-8.6,4.7-10.9c-2.9-0.8-5.3-3-6.3-6.1c-1.5-4.5,0.9-9.5,5.3-11.2l15.6-6.2c1.1-0.4,2.2-0.7,3.4-0.7
			c1.3,0,2.6,0.3,3.9,0.9c2.3,1.1,4,3,4.8,5.4l0.7,2.2c1.1,3.3,0.1,6.8-2.2,9.2c0.1,0,0.2,0,0.3,0c2,0,4,0.6,5.8,1.7
			c2.5,1.6,4.2,4.2,4.7,7.1l0.5,2.7c0.9,4.9-2.4,9.3-6.5,11.4c1.2,0.4,2.3,1.1,3.3,1.9c2.5,2,3.9,4.9,4.1,8.1l0.2,2.9
			c0.2,3.1-1,6.2-3.2,8.5c-1,1-2.1,1.8-3.3,2.4c2.1,0.6,3.9,1.7,5.4,3.3c2.1,2.4,3.2,5.4,2.9,8.6l-0.2,2.9c-0.3,3.2-1.8,6-4.3,8
			c-2.5,2-5.6,2.8-8.8,2.3l-21.2-3.2c-5.9-0.9-10.1-6.2-9.6-12.2c0.3-4.2,3-7.7,6.6-9.4c-4.6-1.6-8.2-5.7-8.5-10.3
			C254.2,346.5,257.7,341.7,262.8,340.3L262.8,340.3L262.8,340.3z"/>
		<path class="st18" d="M300.2,350.1c4.7,34.7-4,37.6-10.6,36.4l-16.1-84.3c-0.5-2.5,1.1-7.7,12.5-4S298.1,334.6,300.2,350.1
			L300.2,350.1z"/>
		<path class="st5" d="M283.5,363.6l-20.3-0.9l0.1-1.8l20.3,0.9L283.5,363.6z M263.2,362.7c-0.5,0-0.9-0.4-0.8-0.9
			c0-0.5,0.4-0.9,0.9-0.8L263.2,362.7L263.2,362.7z M283.6,361.9c0.5,0,0.9,0.4,0.8,0.9c0,0.5-0.4,0.9-0.9,0.8L283.6,361.9
			L283.6,361.9z"/>
		<path class="st5" d="M283.6,339.6l-20.3,1.8l-0.2-1.8l20.3-1.8L283.6,339.6z M263.3,341.5c-0.5,0-0.9-0.3-1-0.8s0.3-0.9,0.8-1
			L263.3,341.5L263.3,341.5z M283.4,337.9c0.5,0,0.9,0.3,1,0.8s-0.3,0.9-0.8,1L283.4,337.9L283.4,337.9z"/>
		<path class="st5" d="M281,316.6l-19.4,5.5l-0.5-1.7l19.4-5.5L281,316.6z M261.6,322.1c-0.5,0.1-1-0.1-1.1-0.6
			c-0.1-0.5,0.1-1,0.6-1.1L261.6,322.1L261.6,322.1z M280.5,314.9c0.5-0.1,1,0.1,1.1,0.6c0.1,0.5-0.1,1-0.6,1.1L280.5,314.9
			L280.5,314.9z"/>
	</g>
</g>
</svg>
