<svg width="460" height="460" viewBox="0 0 460 460" fill="none" xmlns="http://www.w3.org/2000/svg">
<g clip-path="url(#clip0_760_11433)">
<rect width="460" height="460" fill="white"/>
<path d="M632.883 153.177C631.454 152.921 630.078 153.616 629.395 154.808L558.879 122.514C558.938 122.347 558.986 122.173 559.02 121.994C559.342 120.171 558.129 118.434 556.308 118.109C554.487 117.784 552.748 119 552.423 120.821C552.371 121.112 552.362 121.4 552.385 121.682L509.956 129.179C509.623 127.97 508.629 126.998 507.314 126.765C505.493 126.44 503.754 127.656 503.429 129.477C503.287 130.283 503.445 131.072 503.822 131.731L465.12 158.969C464.632 158.398 463.953 157.985 463.156 157.842C462.292 157.689 461.45 157.885 460.766 158.321L392.03 70.0944C392.538 69.6192 392.904 68.9803 393.038 68.2421C393.363 66.4211 392.147 64.6821 390.326 64.3569C388.505 64.0317 386.766 65.2476 386.441 67.0686C386.348 67.5992 386.387 68.1205 386.53 68.6034L260.967 118.758C261.088 117.069 259.915 115.527 258.211 115.223C256.39 114.898 254.651 116.113 254.326 117.934C254.296 118.101 254.284 118.264 254.28 118.429L204.673 121.675C204.454 120.304 203.397 119.159 201.955 118.903C201.229 118.774 200.517 118.893 199.901 119.194L167.259 65.4505L168.104 65.3805L166.942 64.9331L166.745 64.6093L166.612 64.8075L67.1533 26.4852C67.1818 26.3794 67.2078 26.2719 67.2284 26.1613C67.5536 24.3402 66.3378 22.6013 64.5167 22.2761C62.6957 21.9508 60.9568 23.1667 60.6316 24.9877C60.3063 26.8088 61.5222 28.5477 63.3433 28.8729C64.02 28.9938 64.6876 28.8988 65.2735 28.6412L88.4707 70.5572C88.4466 70.644 88.425 70.7323 88.4088 70.824C88.3266 71.2777 88.3447 71.7277 88.4399 72.1524L11.1515 97.3624C10.7184 96.3644 9.81436 95.5964 8.66316 95.3915C6.84212 95.0663 5.1032 96.2821 4.77798 98.1032C4.45276 99.9242 5.66864 101.663 7.48968 101.988C8.20879 102.117 8.91849 102.001 9.5286 101.704L38.5934 150.008C37.9263 150.499 37.4352 151.235 37.2784 152.119C37.0679 153.303 37.5091 154.447 38.3385 155.195L14.3796 187.408C14.0341 187.197 13.6463 187.042 13.2237 186.968C11.4026 186.643 9.6637 187.859 9.33849 189.68C9.01327 191.501 10.2291 193.24 12.0502 193.565C13.1564 193.761 14.2297 193.388 14.977 192.66L48.8901 221.487C48.6165 221.875 48.4209 222.324 48.3318 222.825C48.0407 224.46 48.9898 226.024 50.5049 226.565L37.3313 270.176C35.5233 269.876 33.8072 271.085 33.4859 272.893C33.1607 274.714 34.3765 276.453 36.1976 276.779C36.5147 276.835 36.8292 276.843 37.1361 276.81L44.7621 310.101C43.6304 310.474 42.7335 311.441 42.5112 312.697C42.4524 313.024 42.4467 313.347 42.4836 313.66L-8.35142 324.231C-8.70918 323.069 -9.68547 322.141 -10.9654 321.915C-12.7864 321.59 -14.5253 322.806 -14.8506 324.627C-15.1758 326.448 -13.9599 328.187 -12.1389 328.512C-12.0049 328.536 -11.874 328.547 -11.7415 328.556L-8.98462 405.088C-10.3983 405.27 -11.5923 406.349 -11.8543 407.824C-12.1795 409.645 -10.9636 411.384 -9.14259 411.709C-7.32155 412.034 -5.58262 410.818 -5.25741 408.997C-5.16397 408.478 -5.2016 407.965 -5.33823 407.49L99.1218 366.848C99.5983 367.681 100.425 368.303 101.442 368.484C103.263 368.809 105.002 367.593 105.327 365.772C105.652 363.951 104.436 362.212 102.615 361.887C102.435 361.856 102.254 361.843 102.075 361.839L96.8282 322.765C98.1313 322.497 99.2076 321.463 99.454 320.073C99.5346 319.621 99.5192 319.173 99.425 318.753L187.181 287.298C187.626 288.253 188.514 288.982 189.628 289.183C191.449 289.508 193.188 288.292 193.514 286.471C193.839 284.65 192.623 282.911 190.802 282.586C190.384 282.511 189.97 282.522 189.579 282.598L177.488 241.209C178.532 240.797 179.346 239.87 179.555 238.682L179.523 238.989L288.572 250.304C288.554 251.914 289.696 253.347 291.331 253.638C292.175 253.788 292.999 253.604 293.675 253.188L321.229 289.823C320.699 290.303 320.315 290.953 320.183 291.714C319.86 293.536 321.073 295.273 322.894 295.599C324.715 295.924 326.454 294.708 326.78 292.887C326.906 292.177 326.797 291.479 326.508 290.874L386.148 255.712C386.64 256.395 387.382 256.893 388.275 257.052C390.096 257.378 391.835 256.162 392.16 254.341C392.295 253.582 392.162 252.84 391.828 252.207L427.448 229.222C427.938 229.849 428.65 230.303 429.494 230.454C431.315 230.779 433.054 229.563 433.379 227.742C433.414 227.549 433.426 227.357 433.428 227.17L510.7 218.838C510.987 220.116 512.013 221.159 513.383 221.403C514.414 221.585 515.419 221.276 516.157 220.64L555.23 256.953C554.891 257.376 554.649 257.888 554.546 258.46C554.221 260.281 555.436 262.02 557.257 262.345C559.08 262.667 560.817 261.454 561.143 259.633C561.144 259.619 561.145 259.606 561.149 259.593L602.163 258.597L623.842 258.07C624.118 259.366 625.147 260.433 626.534 260.68C628.355 261.005 630.094 259.789 630.419 257.968C630.67 256.552 629.992 255.19 628.824 254.499L644.256 209.291C644.301 209.3 644.347 209.314 644.397 209.322C646.218 209.648 647.957 208.432 648.282 206.611C648.607 204.79 647.391 203.051 645.57 202.726C645.138 202.649 644.711 202.66 644.306 202.746L633.414 159.632C634.512 159.242 635.377 158.293 635.594 157.062C635.92 155.241 634.704 153.502 632.883 153.177ZM625.793 254.307C624.795 254.74 624.027 255.644 623.822 256.795C623.783 257.018 623.769 257.237 623.771 257.453L599.189 258.051L561.194 258.975C561.187 258.649 561.132 258.331 561.034 258.029L614.677 225.249L625.79 254.305L625.793 254.307ZM386.316 251.579L360.452 233.321L384.037 195.325C384.318 195.465 384.623 195.572 384.947 195.629C385.1 195.657 385.253 195.668 385.405 195.674L388.37 250.44C387.564 250.559 386.835 250.968 386.316 251.579ZM324.973 289.306C324.692 289.167 324.388 289.06 324.064 289.003C323.874 288.97 323.69 288.955 323.506 288.955L316.443 205.515C317.209 205.378 317.9 204.978 318.399 204.395L359.621 233.494L324.976 289.308L324.973 289.306ZM44.4044 147.196L68.2796 178.737L43.1994 154.786C43.5327 154.366 43.7682 153.857 43.8726 153.29C44.0994 152.015 43.5699 150.783 42.6104 150.047L44.4044 147.196ZM11.3722 99.275C11.4518 98.8196 11.4364 98.3713 11.3412 97.9466L88.6306 72.7408C88.8575 73.2643 89.215 73.7228 89.6695 74.0702L44.3584 146.105L10.3325 101.155C10.8584 100.676 11.2379 100.027 11.3739 99.2724L11.3722 99.275ZM387.951 70.4933C388.274 70.6947 388.633 70.8424 389.023 70.9288L382.297 125.847C380.663 125.796 379.195 126.949 378.9 128.608L345.525 125.834L387.951 70.4933ZM642.157 204.217C642.12 204.278 642.081 204.341 642.049 204.405L600.324 180.312C600.44 180.057 600.528 179.789 600.581 179.502C600.717 178.747 600.582 178.008 600.255 177.376L608.468 172.111L642.157 204.217ZM527.69 152.019L514.134 146.846C514.164 146.745 514.188 146.64 514.207 146.532C514.327 145.858 514.235 145.196 513.983 144.614L523.443 139.435L592.954 176.931L527.69 152.019ZM513.915 147.423L561.316 165.516L594.057 178.014C594.027 178.115 594.003 178.22 593.984 178.328C593.877 178.93 593.939 179.519 594.136 180.057L536.776 207.084L512.481 148.905C513.095 148.578 513.602 148.065 513.916 147.427L513.915 147.423ZM599.921 176.856C599.43 176.225 598.717 175.766 597.869 175.616C597.049 175.469 596.246 175.637 595.58 176.031L557.935 123.948L608.008 171.673L599.919 176.858L599.921 176.856ZM555.132 124.704C555.952 124.851 556.755 124.683 557.421 124.29L595.08 176.392C594.859 176.586 594.661 176.809 594.495 177.056L524.092 139.078L552.945 123.277C553.436 124.002 554.204 124.538 555.134 124.701L555.132 124.704ZM552.645 122.737L523.442 138.731L509.806 131.376C509.902 131.148 509.979 130.905 510.024 130.653C510.076 130.362 510.085 130.074 510.062 129.792L552.491 122.295C552.532 122.447 552.582 122.597 552.646 122.742L552.645 122.737ZM507.874 133.209C508.539 132.964 509.118 132.517 509.512 131.921L522.794 139.084L513.687 144.073C513.195 143.348 512.428 142.812 511.498 142.649C511.113 142.579 510.729 142.584 510.362 142.645L507.874 133.209ZM508.342 148.095L478.411 178.264L465.028 163.41C465.448 162.957 465.749 162.383 465.868 161.727C465.946 161.285 465.931 160.848 465.843 160.435L507.822 147.24C507.952 147.548 508.127 147.837 508.342 148.095ZM431.466 224.11C431.216 223.997 430.947 223.909 430.663 223.858C430.106 223.76 429.561 223.803 429.06 223.964L409.027 183.152L459.592 162.68C459.873 163.222 460.296 163.681 460.823 164.004L431.464 224.113L431.466 224.11ZM173.841 235.772L146.996 212.31C147.309 211.899 147.536 211.411 147.63 210.867C147.677 210.601 147.688 210.34 147.673 210.08L160.133 206.729L174.303 235.373C174.136 235.492 173.982 235.626 173.837 235.773L173.841 235.772ZM49.1491 313.395C49.1862 312.323 48.7049 311.321 47.9016 310.672L60.178 292.083L93.2609 317.808C93.0701 318.137 92.9287 318.504 92.8571 318.899L49.1507 313.393L49.1491 313.395ZM93.6168 317.304L60.517 291.566L98.7128 233.734C99.0168 233.895 99.3493 234.015 99.7062 234.078C99.7459 234.084 99.7873 234.088 99.827 234.094L95.9476 316.147C95.0348 316.204 94.1996 316.631 93.6184 317.302L93.6168 317.304ZM381.608 132.494C381.761 132.522 381.91 132.534 382.062 132.54L385.047 189.02C384.104 189.156 383.263 189.693 382.74 190.482L345.882 170.674L380.216 131.895C380.617 132.187 381.086 132.399 381.608 132.494ZM382.448 191.029C382.352 191.257 382.279 191.495 382.232 191.749C382.184 192.01 382.175 192.269 382.189 192.524L319.181 201.94C319.155 201.634 319.089 201.34 318.984 201.061L345.46 171.156L382.446 191.032L382.448 191.029ZM318.69 200.457C318.461 200.091 318.165 199.769 317.814 199.514L320.623 164.263L320.894 160.849C321.993 160.837 322.999 160.286 323.611 159.406L344.905 170.848L318.693 200.452L318.69 200.457ZM320.268 160.8C320.268 160.8 320.271 160.801 320.273 160.803L320.003 164.203L317.217 199.173C316.973 199.063 316.709 198.978 316.432 198.928C315.974 198.847 315.521 198.863 315.096 198.958L298.293 175.292L318.43 159.815C318.905 160.313 319.536 160.674 320.267 160.802L320.268 160.8ZM379.753 131.484L345.322 170.375L323.911 158.868C324.021 158.623 324.105 158.363 324.153 158.088C324.254 157.515 324.204 156.951 324.031 156.435L379.296 130.874C379.423 131.093 379.578 131.297 379.753 131.484ZM260.291 120.542L317.829 156.073C317.705 156.334 317.611 156.618 317.556 156.914C317.402 157.788 317.602 158.64 318.05 159.328L297.937 174.783L259.799 121.067C259.981 120.911 260.144 120.734 260.288 120.54L260.291 120.542ZM297.448 175.162L274.047 193.147C273.584 192.7 272.991 192.384 272.31 192.264C272.045 192.218 271.781 192.204 271.524 192.221L263.633 149.431L258.528 121.75C258.799 121.673 259.057 121.566 259.296 121.426L297.448 175.162ZM93.9488 73.8997L116.366 94.9568L130.221 107.974C129.897 108.392 129.665 108.888 129.565 109.447C129.369 110.542 129.735 111.604 130.449 112.35L119.592 124.881L93.5513 74.211C93.6927 74.1164 93.8252 74.0126 93.9515 73.9013L93.9488 73.8997ZM185.196 196.781L142.005 165.29C142.205 164.952 142.357 164.573 142.427 164.163C142.552 163.456 142.444 162.762 142.159 162.156L158.072 151.519L185.691 196.322C185.51 196.458 185.342 196.613 185.192 196.782L185.196 196.781ZM141.848 161.621C141.356 160.938 140.612 160.436 139.715 160.278C139.49 160.237 139.268 160.221 139.046 160.227L133.556 113.311C133.832 113.251 134.097 113.156 134.346 113.033L157.748 150.994L141.847 161.624L141.848 161.621ZM130.915 112.755C131.309 113.036 131.767 113.241 132.277 113.332C132.5 113.371 132.725 113.389 132.942 113.384L134.896 130.142L138.412 160.303C138.229 160.342 138.051 160.4 137.879 160.469L119.894 125.472L130.914 112.751L130.915 112.755ZM137.331 160.753C136.568 161.24 136.002 162.028 135.83 162.989C135.762 163.379 135.766 163.763 135.827 164.13L73.9907 180.474C73.8298 180.038 73.5821 179.643 73.2611 179.308L119.458 125.981L137.329 160.756L137.331 160.753ZM74.1463 182.209C74.2147 181.819 74.2103 181.435 74.149 181.068L135.986 164.724C136.217 165.359 136.64 165.912 137.193 166.305L117.923 199.651L74.0673 182.545C74.0991 182.434 74.124 182.322 74.1437 182.207L74.1463 182.209ZM137.729 166.616C137.984 166.732 138.255 166.822 138.542 166.875C138.629 166.892 138.716 166.898 138.801 166.907L143.803 206.979C142.744 207.15 141.821 207.822 141.337 208.784L118.506 199.878L137.729 166.616ZM144.917 206.984C144.75 206.954 144.583 206.943 144.42 206.937L139.425 166.908C139.739 166.879 140.041 166.807 140.33 166.697L159.856 206.164L147.582 209.466C147.271 208.227 146.26 207.219 144.921 206.983L144.917 206.984ZM140.883 166.423C141.114 166.282 141.33 166.113 141.522 165.919L184.826 197.29C184.627 197.626 184.481 198.001 184.408 198.409C184.339 198.802 184.344 199.189 184.409 199.563L160.465 206.004L140.885 166.424L140.883 166.423ZM268.427 194.973C268.418 195.022 268.414 195.071 268.408 195.121L222.605 197.144L191.029 198.538C190.932 197.833 190.61 197.186 190.129 196.681L229.275 151.623L269.344 193.203C268.881 193.67 268.549 194.276 268.427 194.973ZM187.986 195.654C187.359 195.6 186.756 195.727 186.223 195.992L158.59 151.169L198.761 124.316C199.189 124.843 199.777 125.244 200.471 125.437L187.986 195.654ZM198.415 123.803L158.264 150.643L134.875 112.704C135.452 112.271 135.891 111.655 136.092 110.919L198.021 121.93C197.964 122.598 198.11 123.247 198.415 123.803ZM133.45 106.731C132.402 106.546 131.384 106.869 130.644 107.522L120.543 98.0315L94.37 73.4432C94.4516 73.3337 94.5296 73.2182 94.5997 73.0979L145.248 96.558L136.213 109.988C136.194 108.409 135.061 107.019 133.45 106.731ZM91.4563 74.7589C92.0012 74.7991 92.5272 74.7043 93.0054 74.504L119.156 125.386L72.7966 178.9C72.4921 178.681 72.15 178.511 71.7749 178.401L91.4563 74.7589ZM73.8429 183.118L117.614 200.191L101.693 227.74C101.438 227.624 101.167 227.534 100.88 227.481C100.161 227.353 99.4551 227.468 98.8466 227.762L72.827 184.32C73.2495 184.009 73.6013 183.601 73.8429 183.118ZM102.229 228.05L118.195 200.42L141.111 209.36C141.079 209.471 141.054 209.582 141.034 209.697C140.928 210.292 140.989 210.878 141.181 211.412L103.186 229.098C102.948 228.687 102.622 228.331 102.23 228.055L102.229 228.05ZM174.843 235.061L160.744 206.567L184.57 200.159C184.893 201.028 185.566 201.741 186.453 202.099L176.638 234.772C176.004 234.699 175.387 234.807 174.844 235.059L174.843 235.061ZM177.244 234.901L187.046 202.274C187.072 202.279 187.096 202.287 187.122 202.292C188.943 202.617 190.682 201.401 191.007 199.58C191.032 199.439 191.047 199.296 191.053 199.155L261.684 196.039L268.384 195.741C268.396 195.97 268.432 196.195 268.489 196.411L179.089 236.318C178.671 235.656 178.03 235.14 177.243 234.897L177.244 234.901ZM274.452 193.616L297.808 175.669L314.491 199.164C313.557 199.582 312.834 200.419 312.589 201.481L275.075 195.5C275.063 194.81 274.837 194.161 274.453 193.621L274.452 193.616ZM386.121 189.036C385.968 189.008 385.819 188.996 385.667 188.99L382.682 132.51C382.926 132.474 383.163 132.413 383.387 132.325L408.179 182.832L388.505 190.798C388.041 189.904 387.186 189.228 386.117 189.037L386.121 189.036ZM459.27 160.56C459.174 161.096 459.217 161.623 459.364 162.112L408.758 182.603L383.945 132.054C384.466 131.736 384.9 131.276 385.185 130.717L459.355 160.202C459.32 160.319 459.29 160.438 459.27 160.56ZM378.85 129.229C378.855 129.606 378.92 129.972 379.043 130.316L323.788 155.873C323.617 155.565 323.396 155.288 323.135 155.044L345.079 126.42L378.851 129.227L378.85 129.229ZM322.642 154.67C322.287 154.445 321.884 154.285 321.444 154.204C320.136 153.972 318.874 154.533 318.144 155.541L260.617 120.016C260.711 119.827 260.789 119.628 260.846 119.417L344.342 126.357L322.639 154.664L322.642 154.67ZM257.033 121.828C257.334 121.881 257.63 121.889 257.918 121.862L270.912 192.314C270.518 192.413 270.146 192.581 269.819 192.808L229.68 151.156L255.665 121.247C256.06 121.533 256.52 121.735 257.033 121.828ZM228.844 151.177L189.663 196.275C189.348 196.05 188.992 195.872 188.598 195.764L201.082 125.547C201.962 125.621 202.799 125.344 203.452 124.823L228.846 151.175L228.844 151.177ZM198.132 121.323L136.687 110.398L145.82 96.8253L198.209 121.091C198.18 121.167 198.156 121.243 198.132 121.323ZM94.859 72.5387C94.9211 72.3663 94.971 72.1902 95.0051 72.0043C95.0392 71.8185 95.051 71.6335 95.0543 71.4505L166.112 65.5528L145.601 96.0415L94.8617 72.5403L94.859 72.5387ZM90.1914 74.4082C90.3551 74.4903 90.5294 74.5609 90.7093 74.6167L90.8172 74.8134L71.1681 178.291C70.4151 178.217 69.6909 178.405 69.0838 178.78L44.7549 146.642L90.1871 74.4092L90.1914 74.4082ZM14.872 187.783L38.831 155.569C39.1764 155.781 39.5643 155.935 39.9869 156.009C40.2574 156.059 40.5247 156.067 40.7885 156.05L45.3731 185.095L15.8905 189.477C15.7306 188.82 15.3733 188.231 14.8747 187.784L14.872 187.783ZM41.3993 155.953C41.9103 155.824 42.3815 155.576 42.7719 155.235L68.2227 179.54C67.8894 179.959 67.6539 180.468 67.5494 181.035C67.5019 181.296 67.492 181.555 67.5051 181.806L45.9834 185.005L41.3993 155.953ZM67.5954 182.416C67.813 183.304 68.3856 184.068 69.1833 184.525L52.8698 220.303C52.6632 220.219 52.441 220.156 52.2128 220.114C51.9777 220.071 51.7428 220.058 51.5131 220.066L46.0753 185.613L67.5927 182.415L67.5954 182.416ZM53.4214 220.586L67.5347 189.63L54.9766 223.364C54.9596 222.225 54.361 221.184 53.4214 220.586ZM69.9727 184.852C70.0663 184.877 70.1616 184.899 70.2585 184.919C70.9776 185.047 71.683 184.932 72.2915 184.637L98.3111 228.08C97.6398 228.572 97.147 229.311 96.9903 230.194C96.8509 230.972 96.996 231.735 97.3485 232.379L39.3005 271.277C38.9809 270.911 38.5764 270.612 38.1163 270.41L69.9717 184.848L69.9727 184.852ZM97.6943 232.892C97.8438 233.075 98.0082 233.244 98.1951 233.395L60.0278 291.186L39.5933 275.298C39.8275 274.933 39.9963 274.522 40.0759 274.066C40.223 273.246 40.0534 272.446 39.6623 271.782L97.6927 232.895L97.6943 232.892ZM39.2101 275.781L59.6835 291.7L47.3786 310.33C47.0746 310.169 46.7421 310.049 46.3852 309.986C46.0352 309.924 45.6899 309.919 45.3543 309.964L37.734 276.686C38.2983 276.517 38.8057 276.204 39.2075 275.779L39.2101 275.781ZM45.2143 316.585C46.9904 316.9 48.6831 315.754 49.067 314.009L92.5949 319.493L-7.55329 324.699L42.5962 314.269C42.9539 315.431 43.9302 316.36 45.2101 316.586L45.2143 316.585ZM-8.2648 325.801C-8.23793 325.65 -8.22485 325.499 -8.22027 325.349L92.8565 320.096C92.9484 320.591 93.1499 321.055 93.4416 321.455L59.7731 350.022L-8.3205 326.028C-8.30281 325.951 -8.28249 325.877 -8.26744 325.799L-8.2648 325.801ZM96.7381 316.188C96.6793 316.178 96.6199 316.174 96.5622 316.168L100.442 234.126C101.455 234.083 102.379 233.576 102.972 232.786L127.445 247.783L97.2106 316.311C97.0567 316.26 96.9022 316.216 96.7381 316.188ZM103.295 232.258C103.431 231.983 103.533 231.686 103.589 231.365C103.696 230.77 103.634 230.185 103.442 229.65L141.437 211.964C141.736 212.477 142.172 212.908 142.699 213.202L127.696 247.208L103.294 232.254L103.295 232.258ZM143.27 213.454C143.424 213.505 143.581 213.55 143.745 213.578C144.471 213.708 145.182 213.589 145.797 213.29L188.22 283.194C187.96 283.387 187.73 283.616 187.532 283.879L128.233 247.54L143.273 213.456L143.27 213.454ZM188.748 282.872L146.327 212.97C146.413 212.906 146.498 212.839 146.577 212.764L173.456 236.254C173.211 236.623 173.039 237.046 172.956 237.507C172.633 239.33 173.847 241.067 175.668 241.392C176.086 241.467 176.499 241.456 176.89 241.38L188.979 282.767C188.898 282.797 188.822 282.834 188.745 282.87L188.748 282.872ZM179.368 236.87L268.7 196.99C269.147 197.935 270.031 198.659 271.14 198.856C271.638 198.943 272.13 198.915 272.591 198.791L290.475 247.317C289.553 247.756 288.847 248.612 288.635 249.686L179.593 238.372C179.638 237.844 179.555 237.333 179.369 236.867L179.368 236.87ZM292.501 247.042C292.003 246.955 291.51 246.983 291.051 247.104L273.561 199.646L295.957 241.514L293.122 247.212C292.926 247.136 292.716 247.076 292.5 247.038L292.501 247.042ZM273.571 198.351C274.311 197.861 274.858 197.086 275.025 196.144C275.027 196.134 275.027 196.123 275.031 196.111L312.508 202.087C312.458 203.312 313.082 204.441 314.091 205.067L296.299 240.838L273.574 198.352L273.571 198.351ZM314.644 205.344C314.84 205.421 315.05 205.48 315.266 205.518C315.453 205.55 315.639 205.566 315.824 205.567L322.886 289.007C322.641 289.052 322.403 289.12 322.174 289.216L296.655 241.506L314.644 205.344ZM318.752 203.89C318.941 203.563 319.079 203.202 319.151 202.807C319.165 202.725 319.172 202.642 319.182 202.561L382.282 193.129C382.466 193.876 382.903 194.536 383.512 194.999L359.944 232.966L318.752 203.89ZM388.356 194.138C388.587 193.779 388.753 193.366 388.832 192.917C388.928 192.381 388.885 191.854 388.738 191.365L408.45 183.383L428.491 224.206C428.204 224.36 427.943 224.556 427.712 224.784L388.355 194.134L388.356 194.138ZM432.006 224.419L461.383 164.274C461.574 164.348 461.774 164.405 461.981 164.441C462.93 164.609 463.852 164.358 464.568 163.825L477.975 178.704L432.348 224.694C432.239 224.595 432.125 224.503 432.003 224.418L432.006 224.419ZM478.828 178.726L508.782 148.532C509.213 148.887 509.735 149.142 510.325 149.245C510.466 149.27 510.604 149.282 510.743 149.291L512.95 201.613L513.507 214.791C512.924 214.872 512.38 215.108 511.927 215.458L478.83 178.727L478.828 178.726ZM514.557 214.806C514.413 214.78 514.268 214.768 514.123 214.762L511.36 149.267C511.55 149.241 511.731 149.2 511.911 149.144L536.216 207.346L516.884 216.454C516.408 215.615 515.578 214.986 514.557 214.806ZM537.014 207.654L594.4 180.614C594.68 181.087 595.073 181.487 595.552 181.777L559.49 256.132C559.17 255.951 558.816 255.817 558.434 255.75C557.982 255.669 557.534 255.684 557.114 255.779L537.018 207.653L537.014 207.654ZM560.788 257.453C560.588 257.088 560.322 256.758 560.001 256.489L596.105 182.047C596.293 182.119 596.491 182.175 596.695 182.209C597.209 182.299 597.711 182.266 598.184 182.135L614.45 224.66L560.785 257.452L560.788 257.453ZM598.763 181.917C599.262 181.671 599.692 181.307 600.016 180.849L641.801 204.975C641.752 205.127 641.71 205.278 641.681 205.438C641.532 206.272 641.708 207.087 642.116 207.758L614.99 224.335L598.763 181.917ZM642.543 203.729L609.009 171.768L629.658 158.534C630.149 159.165 630.862 159.624 631.709 159.774C632.085 159.841 632.456 159.839 632.814 159.783L643.713 202.926C643.271 203.109 642.873 203.38 642.543 203.729ZM629.138 155.369C629.079 155.536 629.031 155.709 628.998 155.888C628.862 156.643 628.996 157.382 629.324 158.014L608.548 171.33L558.35 123.484C558.45 123.357 558.542 123.217 558.623 123.074L629.138 155.369ZM504.177 132.239C504.665 132.81 505.345 133.223 506.142 133.367C506.527 133.436 506.911 133.432 507.278 133.37L509.766 142.806C508.683 143.201 507.832 144.145 507.616 145.362C507.537 145.803 507.552 146.241 507.64 146.654L465.662 159.849C465.609 159.722 465.548 159.597 465.48 159.476L504.182 132.238L504.177 132.239ZM460.28 158.705C460.001 158.966 459.764 159.274 459.586 159.625L385.415 130.14C385.45 130.024 385.48 129.904 385.5 129.783C385.817 128.004 384.663 126.306 382.912 125.926L389.638 71.0082C390.329 71.029 390.987 70.8373 391.542 70.4813L460.278 158.708L460.28 158.705ZM386.758 69.1853C386.936 69.5339 387.176 69.8517 387.466 70.1196L344.796 125.775L262.257 118.914L386.759 69.1827L386.758 69.1853ZM254.318 119.054C254.425 119.732 254.74 120.354 255.204 120.841L229.255 150.707L203.9 124.393C204.28 123.951 204.554 123.409 204.663 122.793C204.693 122.627 204.705 122.464 204.708 122.299L254.315 119.053L254.318 119.054ZM199.37 119.521C199.01 119.79 198.703 120.131 198.471 120.526L146.174 96.3019L166.72 65.7621L199.372 119.518L199.37 119.521ZM65.8167 28.3466C66.2844 28.0274 66.6735 27.5877 66.9309 27.0671L165.359 64.9936L95.0033 70.8353C94.7639 69.4916 93.7152 68.3738 92.2934 68.1191C90.8345 67.8599 89.4349 68.5873 88.7635 69.819L65.8125 28.3476L65.8167 28.3466ZM11.3395 103.513L44.0083 146.671L42.0905 149.717C41.806 149.572 41.4946 149.465 41.1636 149.407C40.4445 149.278 39.7348 149.395 39.122 149.69L11.3368 103.512L11.3395 103.513ZM15.3797 192.193C15.6533 191.805 15.8506 191.353 15.938 190.855C15.9856 190.594 15.9938 190.338 15.9824 190.084L45.4719 185.703L50.9066 220.144C50.2938 220.28 49.7382 220.589 49.2929 221.02L15.3797 192.193ZM51.1066 226.719C52.2733 226.905 53.3998 226.463 54.1348 225.637L39.8094 264.113L51.1049 226.722L51.1066 226.719ZM-11.125 328.538C-9.98637 328.391 -8.99617 327.663 -8.51269 326.614L59.2389 350.486L-6.20917 406.017C-6.6738 405.561 -7.27596 405.236 -7.96486 405.111C-8.09883 405.087 -8.23236 405.074 -8.36225 405.067L-11.1233 328.536L-11.125 328.538ZM-5.56199 406.914C-5.6354 406.767 -5.71732 406.623 -5.8126 406.488L59.9108 350.727L98.7732 364.422C98.7583 364.482 98.7434 364.542 98.7312 364.603C98.6265 365.188 98.6837 365.764 98.8661 366.289L-5.56199 406.914ZM101.462 361.887C100.367 362.076 99.4254 362.801 98.9713 363.832L60.4604 350.262L93.8621 321.923C94.3216 322.357 94.9069 322.669 95.5741 322.788C95.7902 322.826 96.0054 322.841 96.2181 322.838L101.462 361.887ZM99.2369 318.166C98.9467 317.491 98.4391 316.923 97.7859 316.562L127.987 248.112L187.216 284.407C187.079 284.683 186.977 284.979 186.922 285.301C186.837 285.789 186.862 286.269 186.977 286.72L99.2395 318.167L99.2369 318.166ZM295.219 250.928C295.466 249.537 294.815 248.196 293.682 247.494L296.321 242.187L321.31 288.904L294.17 252.817C294.701 252.336 295.084 251.687 295.218 250.923L295.219 250.928ZM326.194 290.345C325.999 290.076 325.766 289.836 325.5 289.636L360.127 233.851L385.961 252.087C385.772 252.413 385.632 252.778 385.562 253.17C385.435 253.879 385.544 254.577 385.834 255.183L326.194 290.345ZM391.494 251.687C391.004 251.06 390.292 250.606 389.449 250.456C389.296 250.427 389.142 250.417 388.99 250.41L386.026 195.644C386.779 195.533 387.463 195.169 387.978 194.624L427.321 225.263C427.059 225.643 426.868 226.084 426.785 226.57C426.65 227.329 426.783 228.07 427.117 228.703L391.497 251.689L391.494 251.687ZM433.375 226.553C433.281 226.043 433.07 225.565 432.765 225.157L478.391 179.166L511.47 215.878C511.069 216.325 510.78 216.885 510.67 217.521C510.628 217.76 510.612 217.993 510.621 218.227L433.371 226.558L433.375 226.553ZM516.588 220.197C516.928 219.774 517.169 219.262 517.273 218.691C517.376 218.108 517.322 217.538 517.141 217.017L536.456 207.918L556.522 255.975C556.21 256.11 555.919 256.29 555.664 256.511L516.588 220.197ZM628.261 254.234C628.083 254.168 627.9 254.118 627.707 254.083C627.253 254.001 626.805 254.016 626.38 254.112L615.214 224.922L642.485 208.257C642.806 208.616 643.207 208.909 643.665 209.102L628.258 254.232L628.261 254.234Z" fill="#B4185C"/>
<mask id="path-2-inside-1_760_11433" fill="white">
<path fill-rule="evenodd" clip-rule="evenodd" d="M378.064 221.205V431.931C378.064 432.043 378.061 432.154 378.054 432.264H406.989C409.595 432.264 411.707 434.376 411.707 436.982V454.912C411.707 457.518 409.595 459.63 406.989 459.63H42.7179C40.1123 459.63 38 457.518 38 454.912V436.982C38 434.376 40.1123 432.264 42.7179 432.264H71.6552C71.648 432.154 71.6444 432.043 71.6444 431.931V221.205C71.6444 218.415 73.9057 216.154 76.6952 216.154H373.014C375.803 216.154 378.064 218.415 378.064 221.205Z"/>
</mask>
<path fill-rule="evenodd" clip-rule="evenodd" d="M378.064 221.205V431.931C378.064 432.043 378.061 432.154 378.054 432.264H406.989C409.595 432.264 411.707 434.376 411.707 436.982V454.912C411.707 457.518 409.595 459.63 406.989 459.63H42.7179C40.1123 459.63 38 457.518 38 454.912V436.982C38 434.376 40.1123 432.264 42.7179 432.264H71.6552C71.648 432.154 71.6444 432.043 71.6444 431.931V221.205C71.6444 218.415 73.9057 216.154 76.6952 216.154H373.014C375.803 216.154 378.064 218.415 378.064 221.205Z" fill="#3F97B1"/>
<path d="M378.054 432.264L377.056 432.199L376.986 433.264H378.054V432.264ZM71.6552 432.264V433.264H72.7224L72.6531 432.199L71.6552 432.264ZM379.064 431.931V221.205H377.064V431.931H379.064ZM379.052 432.329C379.06 432.197 379.064 432.064 379.064 431.931H377.064C377.064 432.021 377.062 432.11 377.056 432.199L379.052 432.329ZM406.989 431.264H378.054V433.264H406.989V431.264ZM412.707 436.982C412.707 433.824 410.147 431.264 406.989 431.264V433.264C409.042 433.264 410.707 434.928 410.707 436.982H412.707ZM412.707 454.912V436.982H410.707V454.912H412.707ZM406.989 460.63C410.147 460.63 412.707 458.07 412.707 454.912H410.707C410.707 456.966 409.042 458.63 406.989 458.63V460.63ZM42.7179 460.63H406.989V458.63H42.7179V460.63ZM37 454.912C37 458.07 39.56 460.63 42.7179 460.63V458.63C40.6646 458.63 39 456.966 39 454.912H37ZM37 436.982V454.912H39V436.982H37ZM42.7179 431.264C39.56 431.264 37 433.824 37 436.982H39C39 434.928 40.6646 433.264 42.7179 433.264V431.264ZM71.6552 431.264H42.7179V433.264H71.6552V431.264ZM70.6444 431.931C70.6444 432.064 70.6488 432.197 70.6573 432.329L72.6531 432.199C72.6473 432.11 72.6444 432.021 72.6444 431.931H70.6444ZM70.6444 221.205V431.931H72.6444V221.205H70.6444ZM76.6952 215.154C73.3534 215.154 70.6444 217.863 70.6444 221.205H72.6444C72.6444 218.968 74.458 217.154 76.6952 217.154V215.154ZM373.014 215.154H76.6952V217.154H373.014V215.154ZM379.064 221.205C379.064 217.863 376.355 215.154 373.014 215.154V217.154C375.251 217.154 377.064 218.968 377.064 221.205H379.064Z" fill="#2B6577" mask="url(#path-2-inside-1_760_11433)"/>
<path d="M351.948 237.221H97.7598C94.9703 237.221 92.709 239.482 92.709 242.271V410.867C92.709 413.656 94.9703 415.918 97.7598 415.918H351.948C354.737 415.918 356.998 413.656 356.998 410.867V242.271C356.998 239.482 354.737 237.221 351.948 237.221Z" fill="#F5F5F5"/>
<path d="M306.348 364.329L255.903 352.73L228.221 381.84L191.343 352.033C168.457 355.455 127.955 362.028 123.153 366.348C116.418 372.411 105.644 416.188 105.644 416.188L321.842 415.514L306.351 364.327L306.348 364.329Z" fill="#9F5656"/>
<path d="M255.903 352.727L243.103 349.785V323.548H206.937V349.785C206.937 349.785 200.566 350.655 191.343 352.033L228.221 381.84L255.903 352.73V352.727Z" fill="#FFBE97"/>
<path d="M206.913 327V340C220.113 348.4 230.746 334.833 234.413 327H206.913Z" fill="#4F2B2B"/>
<path d="M206.478 257.164C206.478 257.164 221.235 246.67 246.8 254.284C280.642 264.363 272.722 299.645 272.722 299.645L185.957 313.686C185.957 313.686 166.877 284.164 184.158 265.084C195.784 252.249 206.478 257.164 206.478 257.164Z" fill="#4F2B2B"/>
<path d="M185.957 314.775C185.591 314.775 185.245 314.591 185.043 314.278C184.848 313.977 165.712 283.832 183.35 264.356C193.962 252.635 203.859 255.071 206.347 255.946C209.198 254.151 223.625 246.25 247.108 253.243C281.525 263.493 273.862 299.523 273.782 299.885C273.685 300.32 273.332 300.651 272.895 300.722L186.13 314.762C186.07 314.771 186.013 314.775 185.955 314.775H185.957ZM201.216 257.299C197.264 257.299 191.31 258.809 184.963 265.814C169.775 282.582 183.978 308.253 186.503 312.494L271.801 298.691C272.739 293.589 276.716 264.33 246.487 255.324C221.783 247.966 207.25 257.947 207.106 258.05C206.793 258.271 206.38 258.314 206.025 258.152C205.852 258.076 204.05 257.297 201.214 257.297L201.216 257.299Z" fill="#4F2B2B"/>
<path d="M272.857 300.342C272.1 299.099 271.053 298.056 269.815 297.306C268.328 296.405 266.566 295.924 264.697 296.015C264.1 296.044 263.528 296.152 262.973 296.292C262.889 296.312 262.802 296.328 262.718 296.35C260.445 281.246 248.742 266.746 228.106 264.232C206.087 261.549 186.164 276.595 183.337 294.863C183.294 295.14 183.268 295.418 183.23 295.695C183.179 295.695 183.126 295.686 183.075 295.686C177.807 295.686 173.535 299.958 173.535 305.226C173.535 310.495 177.807 314.767 183.075 314.767C184.195 314.767 185.27 314.562 186.268 314.207C186.27 314.212 186.273 314.216 186.275 314.221C187.191 316.129 188.292 317.962 189.561 319.7C189.601 319.753 189.639 319.808 189.679 319.862C190.09 320.414 190.513 320.958 190.957 321.491C190.964 321.499 190.973 321.511 190.982 321.519C191.903 322.62 192.897 323.674 193.96 324.675C194.028 324.739 194.1 324.802 194.166 324.866C194.617 325.283 195.078 325.691 195.553 326.089C195.655 326.175 195.755 326.26 195.859 326.344C196.367 326.761 196.887 327.165 197.419 327.558C197.464 327.591 197.506 327.627 197.55 327.658C198.149 328.095 198.764 328.516 199.394 328.923C199.445 328.956 199.499 328.985 199.548 329.016C200.098 329.364 200.659 329.701 201.232 330.025C201.396 330.119 201.563 330.21 201.731 330.301C202.217 330.567 202.71 330.822 203.211 331.071C203.389 331.159 203.566 331.248 203.746 331.335C204.341 331.617 204.944 331.887 205.559 332.143C205.632 332.174 205.706 332.207 205.779 332.238C206.473 332.522 207.181 332.786 207.903 333.037C208.082 333.099 208.264 333.154 208.446 333.214C208.988 333.394 209.534 333.565 210.091 333.723C210.333 333.791 210.577 333.858 210.821 333.924C211.353 334.067 211.893 334.2 212.439 334.322C212.667 334.375 212.898 334.43 213.129 334.479C213.899 334.641 214.678 334.788 215.47 334.912C234.947 337.928 254.864 328.081 261.051 313.038C261.173 313.1 261.306 313.147 261.431 313.204C262.693 313.786 264.089 314.119 265.576 314.045C270.556 313.801 274.393 309.565 274.149 304.585C274.071 303.03 273.605 301.585 272.848 300.342H272.857Z" fill="#FFBE97"/>
<path d="M269.48 306.488L265.218 306.698C264.532 306.732 263.947 306.202 263.914 305.515C263.88 304.829 264.41 304.244 265.097 304.212L269.359 304.002C270.045 303.967 270.63 304.498 270.663 305.184C270.697 305.87 270.167 306.455 269.48 306.488Z" fill="#4F2B2B"/>
<path d="M182.48 307.488L178.218 307.698C177.532 307.732 176.947 307.202 176.914 306.515C176.88 305.829 177.41 305.244 178.097 305.212L182.359 305.002C183.045 304.967 183.63 305.498 183.663 306.184C183.697 306.87 183.167 307.455 182.48 307.488Z" fill="#4F2B2B"/>
<path d="M208.772 312.243C208.886 310.38 206.17 308.697 202.704 308.483C199.239 308.27 196.336 309.608 196.222 311.471C196.107 313.334 198.824 315.017 202.289 315.23C205.755 315.443 208.657 314.106 208.772 312.243Z" fill="#FB8876"/>
<path d="M253.958 313.44C254.073 311.577 251.356 309.894 247.891 309.68C244.425 309.467 241.523 310.805 241.408 312.668C241.294 314.531 244.01 316.214 247.476 316.427C250.941 316.64 253.844 315.303 253.958 313.44Z" fill="#FB8876"/>
<path d="M200.892 260.111C200.892 260.111 200.176 262.181 200.376 265.426C201.443 282.728 224.076 286.856 241.381 287.865L255.288 288.676L262.136 296.878C262.136 296.878 267.491 264.534 242.723 260.566C217.955 256.598 200.892 260.111 200.892 260.111Z" fill="#4F2B2B"/>
<path d="M258.391 284.145C258.316 284.145 258.242 284.138 258.165 284.121C247.453 281.888 237.567 275.031 231.721 265.782C231.4 265.273 231.551 264.601 232.059 264.279C232.562 263.96 233.237 264.108 233.561 264.619C239.098 273.38 248.46 279.873 258.611 281.99C259.197 282.112 259.576 282.689 259.452 283.277C259.345 283.79 258.893 284.143 258.389 284.143L258.391 284.145Z" fill="#4F2B2B"/>
<path d="M262.175 296.816C262.001 296.742 261.844 296.623 261.723 296.46C258.357 291.888 254.947 281.209 254.804 280.756C254.622 280.184 254.94 279.572 255.514 279.391C256.086 279.207 256.696 279.524 256.881 280.099C256.916 280.206 260.324 290.886 263.478 295.171C263.834 295.654 263.731 296.336 263.247 296.692C262.924 296.929 262.516 296.961 262.177 296.817L262.175 296.816Z" fill="#4F2B2B"/>
<path d="M203.597 269.045C203.597 269.045 204.316 278.046 182.717 296.408L182.151 283.481L198.558 266.527L203.597 269.048V269.045Z" fill="#4F2B2B"/>
<path d="M218.897 281.402C218.702 281.402 218.506 281.351 218.327 281.242C207.235 274.441 204.08 262.859 203.949 262.369C203.796 261.787 204.142 261.192 204.723 261.039C205.307 260.877 205.899 261.232 206.055 261.812C206.084 261.922 209.142 273.054 219.467 279.385C219.98 279.7 220.14 280.37 219.825 280.881C219.62 281.216 219.263 281.4 218.897 281.4V281.402Z" fill="#4F2B2B"/>
<path d="M234.75 282.121C234.615 282.121 234.477 282.097 234.344 282.044C227.611 279.336 222.141 273.635 219.713 266.796C219.512 266.23 219.807 265.606 220.375 265.404C220.932 265.202 221.562 265.5 221.764 266.066C223.988 272.326 228.994 277.543 235.157 280.024C235.714 280.248 235.986 280.883 235.76 281.44C235.589 281.866 235.181 282.123 234.75 282.123V282.121Z" fill="#4F2B2B"/>
<path d="M185.236 294.614C184.886 294.614 184.542 294.444 184.331 294.131C183.998 293.631 184.133 292.955 184.633 292.622C194.794 285.844 198.766 279.997 201.878 272.758C202.113 272.203 202.754 271.953 203.307 272.188C203.859 272.425 204.115 273.067 203.877 273.617C200.067 282.485 195.009 288.321 185.842 294.433C185.658 294.557 185.447 294.614 185.239 294.614H185.236Z" fill="#4F2B2B"/>
<path d="M207.816 307.139C207.088 307.148 206.493 306.565 206.484 305.839L206.455 303.458C206.446 302.73 207.03 302.135 207.756 302.126C208.484 302.117 209.078 302.701 209.087 303.427L209.116 305.808C209.125 306.536 208.541 307.131 207.816 307.139Z" fill="#4F2B2B"/>
<path d="M240.197 307.687C239.47 307.696 238.875 307.113 238.866 306.387L238.837 304.006C238.828 303.278 239.412 302.683 240.138 302.674C240.865 302.666 241.46 303.249 241.469 303.975L241.498 306.356C241.507 307.084 240.923 307.679 240.197 307.687Z" fill="#4F2B2B"/>
<path d="M222.708 313.095C222.484 313.095 222.262 313.029 222.072 312.889C221.586 312.536 221.475 311.855 221.827 311.369C222.799 310.029 223.135 307.903 222.704 305.817C222.214 303.431 220.844 301.465 218.854 300.278C218.337 299.971 218.168 299.301 218.474 298.786C218.783 298.267 219.453 298.101 219.966 298.407C222.487 299.909 224.217 302.384 224.834 305.375C225.394 308.08 224.928 310.799 223.592 312.645C223.379 312.938 223.046 313.095 222.708 313.095Z" fill="#4F2B2B"/>
<path d="M235.466 299.073C235.138 299.073 234.816 298.926 234.603 298.647C234.237 298.17 234.326 297.486 234.805 297.12C238.686 294.148 244.563 294.117 248.471 297.06C248.952 297.422 249.047 298.103 248.686 298.585C248.32 299.066 247.638 299.159 247.161 298.8C244.008 296.428 239.265 296.448 236.128 298.849C235.93 299 235.697 299.073 235.466 299.073Z" fill="#4F2B2B"/>
<path d="M200.908 299.073C200.579 299.073 200.257 298.926 200.044 298.647C199.678 298.17 199.767 297.486 200.246 297.12C204.125 294.144 210.002 294.122 213.912 297.06C214.393 297.422 214.489 298.103 214.127 298.582C213.765 299.064 213.08 299.157 212.602 298.798C209.449 296.423 204.704 296.445 201.569 298.847C201.371 298.997 201.138 299.071 200.908 299.071V299.073Z" fill="#4F2B2B"/>
<path d="M225.917 327.735C221.042 327.735 216.77 324.62 215.281 319.982C214.941 318.923 215.123 317.798 215.78 316.897C216.437 315.996 217.454 315.479 218.568 315.479H233.267C234.381 315.479 235.398 315.996 236.054 316.897C236.711 317.798 236.893 318.923 236.551 319.982C235.062 324.62 230.788 327.735 225.915 327.735H225.917ZM218.568 317.656C218.157 317.656 217.782 317.847 217.538 318.18C217.294 318.512 217.229 318.927 217.354 319.318C218.55 323.051 221.992 325.56 225.917 325.56C229.843 325.56 233.283 323.053 234.483 319.318C234.608 318.927 234.541 318.512 234.299 318.18C234.057 317.847 233.68 317.656 233.269 317.656H218.57H218.568Z" fill="#4F2B2B"/>
<path d="M281.876 356.742L283.662 415.516H334.638L316.139 352.607H281.206L281.876 356.742Z" fill="#9F5656"/>
<path d="M282.413 354L287.413 406" stroke="#4F2B2B" stroke-width="2" stroke-linecap="round"/>
<path d="M161.913 392L157.567 414.231" stroke="#4F2B2B" stroke-width="2" stroke-linecap="round"/>
<path d="M351.947 417.005H97.7617C94.3753 417.005 91.6191 414.249 91.6191 410.865V242.271C91.6191 238.885 94.3753 236.131 97.7617 236.131H351.947C355.332 236.131 358.088 238.887 358.088 242.271V410.865C358.088 414.251 355.332 417.005 351.947 417.005ZM97.7617 238.308C95.5759 238.308 93.7961 240.086 93.7961 242.271V410.865C93.7961 413.05 95.5759 414.828 97.7617 414.828H351.947C354.133 414.828 355.911 413.05 355.911 410.865V242.271C355.911 240.086 354.133 238.308 351.947 238.308H97.7617Z" fill="#2B6577"/>
<path d="M421.523 144.087H281.767V320.547H421.523V144.087Z" fill="#FBE4C6"/>
<path d="M421.523 321.639H281.767C281.166 321.639 280.68 321.153 280.68 320.552V144.087C280.68 143.486 281.166 143 281.767 143H421.523C422.124 143 422.61 143.486 422.61 144.087V320.55C422.61 321.151 422.124 321.637 421.523 321.637V321.639ZM281.767 320.552L421.523 320.55V144.5H281.767V320.552Z" fill="black"/>
<path d="M315.891 352.401L328.576 345.471C332.515 343.318 335.575 339.856 337.235 335.687L345.379 315.19C346.611 312.093 345.133 308.58 342.057 307.293C339.683 306.298 336.935 306.902 335.195 308.799L318.388 327.11L293.393 331.572C286.239 332.85 280.789 338.7 280.019 345.928L281.206 353.28L315.891 352.399V352.401Z" fill="#FFBE97"/>
<path d="M142.098 305.353L136.406 300.08L141.676 294.386L132.001 285.423L126.728 291.117L121.034 285.844L112.071 295.522L117.765 300.795L112.492 306.487L122.17 315.45L127.443 309.758L133.135 315.031L142.098 305.353Z" fill="#F8D2A0"/>
<path d="M334.902 162.065H294.554V178.746H334.902V162.065Z" fill="white"/>
<path d="M334.902 162.065H294.554V178.746H334.902V162.065Z" fill="#F8D2A0"/>
<path d="M410.941 188.446H294.554V248.58H410.941V188.446Z" fill="#F8D2A0"/>
<path d="M410.944 249.668H294.554C293.952 249.668 293.466 249.182 293.466 248.58V188.446C293.466 187.845 293.952 187.359 294.554 187.359H410.944C411.545 187.359 412.031 187.845 412.031 188.446V248.58C412.031 249.182 411.545 249.668 410.944 249.668ZM294.554 248.58H410.944V188.446H294.554V248.58Z" fill="black"/>
<path d="M301.149 274.314C303.935 274.314 306.193 272.055 306.193 269.27C306.193 266.484 303.935 264.225 301.149 264.225C298.363 264.225 296.105 266.484 296.105 269.27C296.105 272.055 298.363 274.314 301.149 274.314Z" fill="#F8D2A0"/>
<path d="M330.635 274.314C333.421 274.314 335.679 272.055 335.679 269.27C335.679 266.484 333.421 264.225 330.635 264.225C327.849 264.225 325.591 266.484 325.591 269.27C325.591 272.055 327.849 274.314 330.635 274.314Z" fill="#F8D2A0"/>
<path d="M306.049 287.879C306.689 285.168 305.01 282.451 302.299 281.812C299.587 281.172 296.871 282.851 296.231 285.562C295.591 288.273 297.27 290.99 299.981 291.63C302.692 292.27 305.409 290.591 306.049 287.879Z" fill="#F8D2A0"/>
<path d="M335.533 287.878C336.173 285.167 334.494 282.45 331.783 281.81C329.071 281.17 326.355 282.849 325.715 285.56C325.075 288.272 326.754 290.988 329.465 291.628C332.176 292.268 334.893 290.589 335.533 287.878Z" fill="#F8D2A0"/>
<path d="M360.121 274.314C362.907 274.314 365.165 272.055 365.165 269.27C365.165 266.484 362.907 264.225 360.121 264.225C357.335 264.225 355.077 266.484 355.077 269.27C355.077 272.055 357.335 274.314 360.121 274.314Z" fill="#F8D2A0"/>
<path d="M317.431 274.451H319.109L315.39 264.117H313.57L309.859 274.451H311.515L312.46 271.717H316.488L317.431 274.451ZM312.913 270.406L314.433 266.01H314.52L316.035 270.406H312.913Z" fill="#2B6577"/>
<path d="M342.394 264.119H346.178C346.892 264.119 347.494 264.237 347.984 264.47C348.475 264.703 348.841 265.024 349.083 265.433C349.325 265.841 349.447 266.307 349.447 266.831C349.447 267.246 349.371 267.599 349.218 267.894C349.065 268.189 348.859 268.429 348.597 268.61C348.335 268.795 348.035 268.928 347.698 269.014V269.114C348.055 269.134 348.399 269.247 348.73 269.456C349.06 269.665 349.331 269.96 349.54 270.341C349.748 270.723 349.855 271.167 349.855 271.675C349.851 272.212 349.72 272.689 349.467 273.106C349.211 273.524 348.825 273.852 348.304 274.092C347.782 274.331 347.134 274.451 346.36 274.451H342.399V264.117L342.394 264.119ZM346.988 268.375C347.272 268.24 347.494 268.051 347.658 267.807C347.822 267.565 347.904 267.279 347.904 266.951C347.904 266.66 347.836 266.402 347.7 266.176C347.565 265.95 347.361 265.774 347.085 265.648C346.81 265.521 346.477 265.459 346.082 265.459H343.963V268.577H346.04C346.389 268.577 346.704 268.508 346.986 268.373L346.988 268.375ZM347.387 272.907C347.698 272.776 347.927 272.598 348.073 272.374C348.217 272.15 348.288 271.89 348.284 271.595C348.288 271.262 348.208 270.961 348.044 270.69C347.88 270.419 347.642 270.204 347.334 270.044C347.026 269.884 346.67 269.804 346.271 269.804H343.965V273.102H346.2C346.682 273.102 347.077 273.038 347.387 272.907Z" fill="#2B6577"/>
<path d="M380.133 266.367C379.878 266.054 379.565 265.814 379.19 265.652C378.817 265.49 378.409 265.41 377.965 265.41C377.366 265.41 376.831 265.561 376.363 265.863C375.894 266.165 375.526 266.609 375.258 267.19C374.989 267.772 374.854 268.471 374.854 269.285C374.854 270.1 374.989 270.801 375.258 271.38C375.526 271.959 375.894 272.399 376.36 272.7C376.826 273.002 377.359 273.155 377.958 273.16C378.4 273.155 378.808 273.073 379.183 272.913C379.556 272.754 379.871 272.521 380.126 272.214C380.382 271.908 380.552 271.542 380.643 271.118L382.221 271.125C382.112 271.799 381.864 272.401 381.476 272.927C381.087 273.453 380.59 273.861 379.984 274.154C379.378 274.447 378.702 274.593 377.954 274.593C377.055 274.593 376.254 274.38 375.553 273.952C374.851 273.524 374.301 272.909 373.904 272.108C373.507 271.307 373.307 270.366 373.307 269.285C373.307 268.204 373.507 267.263 373.906 266.462C374.305 265.661 374.856 265.047 375.559 264.618C376.261 264.19 377.059 263.977 377.954 263.977C378.686 263.977 379.354 264.115 379.96 264.392C380.563 264.667 381.063 265.071 381.458 265.601C381.853 266.132 382.108 266.762 382.221 267.49H380.643C380.557 267.057 380.388 266.684 380.133 266.369V266.367Z" fill="#2B6577"/>
<path d="M318.064 283.579C317.675 282.804 317.116 282.212 316.384 281.801C315.649 281.393 314.779 281.189 313.772 281.189H310.325V291.523H313.681C314.717 291.523 315.609 291.317 316.355 290.902C317.098 290.487 317.669 289.892 318.059 289.118C318.452 288.341 318.647 287.416 318.647 286.341C318.647 285.267 318.454 284.355 318.066 283.579H318.064ZM316.699 288.414C316.441 288.978 316.051 289.408 315.529 289.703C315.008 289.999 314.36 290.145 313.585 290.145H311.892V282.567H313.676C314.424 282.567 315.05 282.711 315.556 283.002C316.062 283.292 316.444 283.718 316.701 284.282C316.958 284.846 317.085 285.531 317.085 286.341C317.085 287.151 316.956 287.85 316.697 288.414H316.699Z" fill="#2B6577"/>
<path d="M342.856 281.189H349.342V282.538H344.425V285.678H348.998V287.021H344.425V290.174H349.391V291.523H342.854V281.189H342.856Z" fill="#2B6577"/>
<path d="M319.109 274.997H317.431C317.2 274.997 316.994 274.848 316.916 274.631L316.099 272.265H312.844L312.027 274.631C311.952 274.851 311.746 274.997 311.513 274.997H309.857C309.679 274.997 309.515 274.911 309.413 274.766C309.311 274.62 309.287 274.436 309.344 274.269L313.057 263.935C313.135 263.719 313.339 263.575 313.57 263.575H315.389C315.618 263.575 315.822 263.719 315.902 263.935L319.619 274.269C319.679 274.436 319.652 274.622 319.55 274.766C319.448 274.913 319.282 274.997 319.106 274.997H319.109ZM317.819 273.91H318.334L315.008 264.665H313.954L310.634 273.91H311.129L311.945 271.544C312.021 271.324 312.227 271.178 312.46 271.178H316.49C316.721 271.178 316.927 271.327 317.005 271.544L317.822 273.91H317.819ZM316.033 270.952H312.913C312.735 270.952 312.573 270.867 312.469 270.723C312.367 270.579 312.342 270.395 312.398 270.23L313.918 265.834C314.071 265.395 314.879 265.397 315.032 265.834L316.548 270.23C316.605 270.397 316.577 270.581 316.475 270.723C316.372 270.867 316.208 270.952 316.033 270.952ZM313.676 269.864H315.27L314.475 267.556L313.676 269.864Z" fill="black"/>
<path d="M346.358 274.997H342.394C342.095 274.997 341.85 274.753 341.85 274.453V264.119C341.85 263.817 342.095 263.575 342.394 263.575H346.178C346.966 263.575 347.654 263.711 348.217 263.977C348.805 264.256 349.254 264.654 349.551 265.155C349.842 265.648 349.99 266.212 349.99 266.831C349.99 267.328 349.895 267.769 349.704 268.142C349.527 268.482 349.293 268.766 349.005 268.988C349.012 268.99 349.016 268.994 349.023 268.997C349.429 269.254 349.762 269.62 350.017 270.08C350.272 270.543 350.399 271.08 350.399 271.677C350.39 272.319 350.232 272.893 349.93 273.39C349.617 273.899 349.147 274.3 348.528 274.587C347.94 274.86 347.208 274.997 346.358 274.997ZM342.94 273.91H346.358C347.048 273.91 347.627 273.805 348.073 273.599C348.499 273.402 348.803 273.149 349.003 272.825C349.205 272.492 349.307 272.114 349.311 271.671C349.311 271.267 349.229 270.905 349.063 270.605C348.896 270.304 348.692 270.08 348.439 269.918C348.217 269.778 347.998 269.696 347.767 269.667C348.077 269.86 348.328 270.111 348.508 270.41C348.725 270.763 348.834 271.167 348.827 271.604C348.834 271.992 348.734 272.356 348.53 272.669C348.328 272.984 348.013 273.233 347.598 273.406C347.219 273.566 346.759 273.646 346.2 273.646H343.965C343.666 273.646 343.422 273.402 343.422 273.102V269.804C343.422 269.503 343.666 269.261 343.965 269.261H346.269C346.619 269.261 346.948 269.312 347.247 269.416C347.188 269.329 347.154 269.225 347.154 269.112C347.154 269.037 347.17 268.954 347.199 268.877C346.846 269.039 346.457 269.121 346.042 269.121H343.965C343.666 269.121 343.422 268.877 343.422 268.577V265.459C343.422 265.157 343.666 264.916 343.965 264.916H346.085C346.557 264.916 346.97 264.995 347.316 265.155C347.696 265.331 347.98 265.581 348.168 265.901C348.353 266.209 348.448 266.564 348.448 266.953C348.448 267.39 348.333 267.78 348.108 268.116C348.044 268.209 347.975 268.295 347.898 268.377C348.037 268.32 348.168 268.249 348.284 268.167C348.472 268.033 348.619 267.863 348.734 267.645C348.843 267.43 348.901 267.155 348.901 266.833C348.901 266.405 348.807 266.038 348.614 265.712C348.428 265.397 348.144 265.151 347.749 264.962C347.334 264.765 346.806 264.665 346.178 264.665H342.938V273.91H342.94ZM344.511 272.561H346.202C346.608 272.561 346.937 272.509 347.181 272.407C347.389 272.319 347.536 272.21 347.618 272.083C347.702 271.95 347.745 271.795 347.742 271.606C347.742 271.36 347.693 271.158 347.583 270.976C347.467 270.787 347.305 270.643 347.088 270.53C346.859 270.41 346.584 270.352 346.273 270.352H344.513V272.561H344.511ZM344.511 268.036H346.045C346.311 268.036 346.544 267.987 346.757 267.885C346.952 267.789 347.099 267.665 347.21 267.503C347.312 267.352 347.363 267.17 347.363 266.951C347.363 266.76 347.323 266.598 347.236 266.458C347.159 266.327 347.034 266.225 346.859 266.143C346.662 266.052 346.4 266.005 346.085 266.005H344.509V268.036H344.511Z" fill="black"/>
<path d="M377.952 275.139C376.955 275.139 376.054 274.897 375.269 274.418C374.481 273.937 373.855 273.24 373.416 272.35C372.983 271.478 372.763 270.448 372.763 269.287C372.763 268.127 372.985 267.097 373.42 266.223C373.864 265.333 374.487 264.636 375.275 264.157C376.698 263.287 378.686 263.211 380.184 263.897C380.87 264.212 381.444 264.676 381.893 265.277C382.339 265.879 382.629 266.593 382.758 267.406C382.785 267.563 382.736 267.723 382.634 267.845C382.53 267.965 382.379 268.036 382.219 268.036H380.641C380.382 268.036 380.157 267.852 380.109 267.596C380.04 267.248 379.909 266.959 379.709 266.713C379.509 266.467 379.27 266.283 378.972 266.154C378.264 265.848 377.326 265.897 376.658 266.325C376.281 266.569 375.974 266.94 375.755 267.421C375.519 267.931 375.4 268.562 375.4 269.29C375.4 270.017 375.519 270.65 375.752 271.156C375.981 271.644 376.276 272.001 376.658 272.248C377.037 272.494 377.466 272.616 377.965 272.621C378.324 272.616 378.664 272.547 378.968 272.419C379.265 272.292 379.507 272.115 379.707 271.873C379.904 271.633 380.035 271.349 380.111 271.012C380.164 270.761 380.386 270.581 380.641 270.581L382.219 270.588C382.379 270.588 382.53 270.659 382.632 270.781C382.736 270.903 382.78 271.063 382.756 271.22C382.629 271.979 382.348 272.663 381.911 273.257C381.473 273.854 380.901 274.323 380.215 274.651C379.54 274.98 378.777 275.144 377.949 275.144L377.952 275.139ZM377.952 264.521C377.164 264.521 376.454 264.709 375.841 265.082C375.222 265.459 374.752 265.992 374.394 266.704C374.035 267.428 373.853 268.295 373.853 269.285C373.853 270.275 374.033 271.145 374.39 271.864C374.745 272.578 375.218 273.109 375.834 273.486C376.456 273.865 377.148 274.047 377.952 274.047C378.615 274.047 379.219 273.919 379.745 273.664C380.271 273.411 380.705 273.056 381.036 272.603C381.245 272.319 381.409 272.004 381.524 271.664H381.049C380.93 271.993 380.763 272.294 380.546 272.556C380.233 272.931 379.849 273.217 379.394 273.411C378.961 273.597 378.48 273.695 377.965 273.701C377.25 273.695 376.616 273.51 376.065 273.153C375.513 272.798 375.076 272.277 374.765 271.606C374.463 270.954 374.31 270.173 374.31 269.281C374.31 268.389 374.463 267.614 374.763 266.957C375.073 266.285 375.51 265.761 376.067 265.399C377.037 264.78 378.367 264.696 379.405 265.146C379.862 265.346 380.246 265.639 380.555 266.019C380.774 266.289 380.943 266.596 381.058 266.937H381.535C381.413 266.558 381.243 266.218 381.018 265.919C380.679 265.462 380.255 265.12 379.729 264.88C379.194 264.634 378.611 264.516 377.949 264.516L377.952 264.521Z" fill="black"/>
<path d="M313.678 292.067H310.323C310.023 292.067 309.779 291.823 309.779 291.523V281.189C309.779 280.887 310.023 280.645 310.323 280.645H313.772C314.87 280.645 315.838 280.873 316.65 281.328C317.478 281.792 318.117 282.467 318.549 283.339C318.976 284.184 319.189 285.194 319.189 286.344C319.189 287.493 318.969 288.518 318.541 289.366C318.101 290.236 317.453 290.915 316.617 291.381C315.789 291.838 314.801 292.071 313.676 292.071L313.678 292.067ZM310.869 290.979H313.678C314.615 290.979 315.427 290.793 316.088 290.427C316.739 290.065 317.227 289.555 317.573 288.874C317.924 288.179 318.103 287.329 318.103 286.344C318.103 285.358 317.926 284.52 317.577 283.827C317.238 283.146 316.761 282.64 316.119 282.28C315.474 281.919 314.681 281.737 313.772 281.737H310.867V290.982L310.869 290.979ZM313.587 290.691H311.894C311.595 290.691 311.351 290.447 311.351 290.147V282.567C311.351 282.265 311.595 282.023 311.894 282.023H313.678C314.517 282.023 315.243 282.194 315.829 282.531C316.435 282.877 316.896 283.392 317.2 284.058C317.486 284.69 317.633 285.458 317.633 286.344C317.633 287.229 317.486 288.012 317.196 288.645C316.887 289.313 316.417 289.83 315.798 290.181C315.196 290.52 314.453 290.693 313.587 290.693V290.691ZM312.44 289.604H313.587C314.264 289.604 314.826 289.477 315.263 289.231C315.687 288.991 315.995 288.652 316.206 288.19C316.432 287.7 316.546 287.078 316.546 286.344C316.546 285.609 316.432 284.999 316.21 284.511C316 284.049 315.698 283.712 315.29 283.477C314.868 283.235 314.326 283.113 313.678 283.113H312.44V289.604Z" fill="black"/>
<path d="M349.393 292.067H342.856C342.556 292.067 342.312 291.823 342.312 291.523V281.189C342.312 280.887 342.556 280.645 342.856 280.645H349.342C349.642 280.645 349.886 280.889 349.886 281.189V282.538C349.886 282.84 349.642 283.082 349.342 283.082H344.968V285.134H348.998C349.298 285.134 349.542 285.378 349.542 285.678V287.018C349.542 287.32 349.298 287.562 348.998 287.562H344.968V289.628H349.393C349.693 289.628 349.937 289.872 349.937 290.172V291.521C349.937 291.823 349.693 292.065 349.393 292.065V292.067ZM343.4 290.979H348.848V290.72H344.423C344.123 290.72 343.879 290.476 343.879 290.176V287.021C343.879 286.719 344.123 286.477 344.423 286.477H348.453V286.224H344.423C344.123 286.224 343.879 285.98 343.879 285.68V282.54C343.879 282.238 344.123 281.996 344.423 281.996H348.797V281.737H343.4V290.984V290.979Z" fill="black"/>
<path d="M360.121 270.359H360.096C359.75 270.35 359.428 270.179 359.231 269.895L353.799 262.135C353.452 261.642 353.572 260.963 354.065 260.619C354.557 260.275 355.237 260.393 355.581 260.888L360.165 267.437L368.571 256.578C368.942 256.103 369.626 256.019 370.098 256.383C370.575 256.751 370.662 257.435 370.293 257.91L360.982 269.938C360.776 270.204 360.456 270.359 360.121 270.359Z" fill="#9F5656"/>
<path d="M314.082 200.784H302.574C301.972 200.784 301.486 200.298 301.486 199.697C301.486 199.096 301.972 198.61 302.574 198.61H314.082C314.684 198.61 315.17 199.096 315.17 199.697C315.17 200.298 314.684 200.784 314.082 200.784Z" fill="black"/>
<path d="M362.706 200.784H327.659C327.058 200.784 326.572 200.298 326.572 199.697C326.572 199.096 327.058 198.61 327.659 198.61H362.706C363.308 198.61 363.794 199.096 363.794 199.697C363.794 200.298 363.308 200.784 362.706 200.784Z" fill="black"/>
<path d="M384.82 200.784H376.285C375.684 200.784 375.198 200.298 375.198 199.697C375.198 199.096 375.684 198.61 376.285 198.61H384.82C385.421 198.61 385.907 199.096 385.907 199.697C385.907 200.298 385.421 200.784 384.82 200.784Z" fill="black"/>
<path d="M334.774 211.907H302.574C301.972 211.907 301.486 211.421 301.486 210.819C301.486 210.218 301.972 209.732 302.574 209.732H334.774C335.375 209.732 335.861 210.218 335.861 210.819C335.861 211.421 335.375 211.907 334.774 211.907Z" fill="black"/>
<path d="M374.086 211.907H348.35C347.749 211.907 347.263 211.421 347.263 210.819C347.263 210.218 347.749 209.732 348.35 209.732H374.086C374.687 209.732 375.173 210.218 375.173 210.819C375.173 211.421 374.687 211.907 374.086 211.907Z" fill="black"/>
<path d="M400.856 211.907H387.665C387.063 211.907 386.578 211.421 386.578 210.819C386.578 210.218 387.063 209.732 387.665 209.732H400.856C401.457 209.732 401.943 210.218 401.943 210.819C401.943 211.421 401.457 211.907 400.856 211.907Z" fill="black"/>
<path d="M309.426 222.51H302.574C301.972 222.51 301.486 222.024 301.486 221.422C301.486 220.821 301.972 220.335 302.574 220.335H309.426C310.028 220.335 310.514 220.821 310.514 221.422C310.514 222.024 310.028 222.51 309.426 222.51Z" fill="black"/>
<path d="M346.153 222.51H323.006C322.404 222.51 321.918 222.024 321.918 221.422C321.918 220.821 322.404 220.335 323.006 220.335H346.153C346.755 220.335 347.241 220.821 347.241 221.422C347.241 222.024 346.755 222.51 346.153 222.51Z" fill="black"/>
<path d="M384.82 222.51H359.732C359.131 222.51 358.645 222.024 358.645 221.422C358.645 220.821 359.131 220.335 359.732 220.335H384.82C385.421 220.335 385.907 220.821 385.907 221.422C385.907 222.024 385.421 222.51 384.82 222.51Z" fill="black"/>
<path d="M334.774 233.632H302.574C301.972 233.632 301.486 233.146 301.486 232.545C301.486 231.944 301.972 231.458 302.574 231.458H334.774C335.375 231.458 335.861 231.944 335.861 232.545C335.861 233.146 335.375 233.632 334.774 233.632Z" fill="black"/>
<path d="M374.086 233.632H348.35C347.749 233.632 347.263 233.146 347.263 232.545C347.263 231.944 347.749 231.458 348.35 231.458H374.086C374.687 231.458 375.173 231.944 375.173 232.545C375.173 233.146 374.687 233.632 374.086 233.632Z" fill="black"/>
</g>
<defs>
<clipPath id="clip0_760_11433">
<rect width="460" height="460" fill="white"/>
</clipPath>
</defs>
</svg>
