<svg width="460" height="460" viewBox="0 0 460 460" fill="none" xmlns="http://www.w3.org/2000/svg">
<g clip-path="url(#clip0_761_7240)">
<rect width="460" height="460" fill="white"/>
<path d="M-206.294 225.359C-204.955 226.03 -203.39 225.746 -202.364 224.767L-142.04 277.403C-142.147 277.551 -142.246 277.709 -142.331 277.876C-143.185 279.586 -142.493 281.661 -140.786 282.516C-139.079 283.372 -137.002 282.679 -136.146 280.972C-136.01 280.698 -135.916 280.416 -135.856 280.13L-91.6644 285.15C-91.6893 286.444 -90.9909 287.696 -89.7573 288.313C-88.0503 289.168 -85.9727 288.475 -85.117 286.768C-84.7405 286.012 -84.6655 285.184 -84.8449 284.422L-38.5551 268.809C-38.2396 269.518 -37.6882 270.125 -36.9416 270.501C-36.1309 270.905 -35.2408 270.959 -34.4353 270.727L7.72985 378.2C7.08687 378.522 6.53718 379.047 6.189 379.738C5.33324 381.445 6.02682 383.523 7.73383 384.378C9.44084 385.234 11.5184 384.541 12.3742 382.834C12.6218 382.336 12.7353 381.808 12.7354 381.288L151.714 368.461C151.1 370.097 151.809 371.967 153.406 372.767C155.113 373.623 157.19 372.929 158.046 371.222C158.124 371.066 158.184 370.909 158.236 370.746L208.286 382.077C208.1 383.498 208.811 384.941 210.164 385.618C210.844 385.959 211.583 386.049 212.281 385.932L228.832 448.693L227.976 448.515L228.995 449.299L229.095 449.677L229.284 449.52L316.487 516.607C316.428 516.704 316.371 516.802 316.318 516.906C315.462 518.613 316.156 520.691 317.863 521.546C319.57 522.402 321.647 521.708 322.503 520.001C323.359 518.294 322.665 516.217 320.958 515.361C320.324 515.043 319.635 514.941 318.98 515.025L308.309 466.738C308.359 466.659 308.406 466.578 308.449 466.492C308.663 466.067 308.777 465.616 308.808 465.168L392.694 462.876C392.83 463.99 393.499 465.016 394.579 465.556C396.286 466.412 398.363 465.718 399.219 464.011C400.075 462.304 399.381 460.227 397.674 459.371C397 459.033 396.264 458.94 395.573 459.055L380.968 402.725C381.772 402.435 382.474 401.85 382.888 401.022C383.444 399.912 383.342 398.649 382.741 397.666L415.898 372.807C416.178 373.118 416.516 373.385 416.913 373.582C418.62 374.437 420.698 373.744 421.553 372.037C422.409 370.33 421.716 368.252 420.009 367.396C418.971 366.879 417.799 366.933 416.846 367.434L391.733 328.96C392.117 328.657 392.442 328.27 392.677 327.801C393.445 326.268 392.964 324.441 391.623 323.462L417.447 284.161C419.149 284.987 421.201 284.294 422.05 282.598C422.905 280.891 422.212 278.813 420.505 277.958C420.208 277.809 419.899 277.709 419.585 277.652L421.798 242.466C423.027 242.429 424.198 241.735 424.786 240.557C424.94 240.25 425.041 239.932 425.096 239.612L478.509 244.052C478.522 245.308 479.216 246.513 480.417 247.111C482.124 247.967 484.201 247.274 485.057 245.567C485.913 243.86 485.219 241.782 483.512 240.926C483.387 240.863 483.26 240.814 483.132 240.766L502.841 164.211C504.293 164.445 505.791 163.728 506.483 162.345C507.338 160.638 506.645 158.56 504.938 157.704C503.231 156.849 501.153 157.542 500.298 159.249C500.053 159.736 499.94 160.254 499.936 160.765L384.632 170.365C384.405 169.401 383.769 168.543 382.816 168.066C381.109 167.21 379.031 167.903 378.175 169.61C377.32 171.317 378.013 173.395 379.72 174.251C379.89 174.334 380.065 174.4 380.241 174.457L373.978 214.668C372.61 214.551 371.242 215.259 370.59 216.563C370.378 216.986 370.262 217.434 370.232 217.878L274.155 223.281C273.994 222.206 273.329 221.224 272.285 220.699C270.578 219.843 268.5 220.537 267.645 222.244C266.789 223.951 267.482 226.029 269.189 226.884C269.582 227.081 269.994 227.191 270.403 227.23L270.236 271.739C269.083 271.842 268.005 272.52 267.449 273.635L267.571 273.34L162.958 230.171C163.448 228.583 162.738 226.83 161.205 226.062C160.414 225.666 159.545 225.607 158.754 225.821L142.223 181.484C142.888 181.164 143.458 180.633 143.812 179.919C144.666 178.21 143.975 176.134 142.268 175.279C140.561 174.423 138.483 175.117 137.627 176.824C137.294 177.489 137.197 178.212 137.306 178.895L67.9698 196.212C67.6827 195.392 67.0938 194.681 66.2568 194.262C64.5498 193.406 62.4723 194.099 61.6165 195.806C61.2605 196.518 61.1748 197.291 61.3199 198.015L19.3265 210.322C19.0252 209.558 18.4539 208.9 17.6631 208.503C15.9561 207.648 13.8786 208.341 13.0228 210.048C12.932 210.229 12.8635 210.415 12.8063 210.6L-66.1156 196.192C-66.0245 194.843 -66.7345 193.51 -68.0187 192.867C-68.9857 192.384 -70.0713 192.395 -70.9881 192.808L-99.0138 145.413C-98.554 145.094 -98.1649 144.658 -97.895 144.123C-97.0393 142.416 -97.7328 140.338 -99.4399 139.482C-101.149 138.629 -103.224 139.32 -104.08 141.027C-104.085 141.04 -104.091 141.054 -104.098 141.065L-144.983 130.027L-166.595 124.193C-166.487 122.828 -167.194 121.471 -168.493 120.82C-170.2 119.964 -172.278 120.658 -173.134 122.365C-173.798 123.693 -173.526 125.24 -172.572 126.266L-201.1 166.486C-201.142 166.463 -201.183 166.436 -201.23 166.414C-202.937 165.558 -205.014 166.251 -205.87 167.958C-206.726 169.665 -206.032 171.743 -204.325 172.599C-203.92 172.801 -203.494 172.916 -203.069 172.949L-204.927 218.814C-206.129 218.878 -207.263 219.564 -207.839 220.718C-208.695 222.426 -208.001 224.503 -206.294 225.359ZM-169.629 127.345C-168.514 127.209 -167.489 126.54 -166.949 125.46C-166.845 125.251 -166.766 125.038 -166.705 124.824L-142.2 131.439L-104.324 141.663C-104.413 141.988 -104.451 142.319 -104.443 142.647L-167.145 159.364L-169.627 127.348L-169.629 127.345ZM66.5916 200.253L86.8369 225.906L52.3544 256.598C52.1173 256.377 51.8472 256.182 51.5432 256.031C51.4001 255.958 51.2516 255.902 51.1028 255.852L64.2245 200.778C65.0569 200.896 65.8988 200.705 66.5916 200.253ZM138.365 180.897C138.602 181.118 138.873 181.313 139.177 181.464C139.355 181.553 139.532 181.621 139.715 181.675L122.242 266.33C121.444 266.24 120.643 266.434 119.978 266.864L87.7101 225.979L138.363 180.895L138.365 180.897ZM374.392 403.804L360.009 365.588L377.81 396.646C377.357 396.964 376.975 397.398 376.705 397.929C376.107 399.125 376.27 400.499 377.003 401.509L374.392 403.804ZM393.036 460.918C392.824 461.345 392.708 461.794 392.677 462.242L308.791 464.53C308.72 463.945 308.501 463.387 308.153 462.91L374.118 404.898L394.616 459.362C393.955 459.682 393.389 460.213 393.034 460.92L393.036 460.918ZM11.8833 379.001C11.6229 378.707 11.3106 378.456 10.9504 378.256L33.7075 325.873C35.3096 326.403 37.101 325.692 37.8787 324.137L70.0983 336.667L11.8833 379.001ZM-200.509 172.123C-200.455 172.074 -200.398 172.022 -200.348 171.969L-166.114 208.047C-166.304 208.266 -166.47 208.505 -166.606 208.774C-166.962 209.481 -167.045 210.252 -166.907 210.974L-176.579 213.776L-200.509 172.123ZM-102.52 257.344L-90.6204 266.438C-90.6795 266.53 -90.7343 266.626 -90.7848 266.728C-91.1005 267.36 -91.2041 268.042 -91.1251 268.692L-102.006 271.045L-159.811 213.554L-102.52 257.344ZM-90.2345 265.931L-131.844 234.127L-160.585 212.159C-160.526 212.068 -160.472 211.971 -160.421 211.87C-160.138 211.306 -160.028 210.703 -160.065 210.114L-95.3694 200.181L-88.3803 264.885C-89.0841 265.029 -89.7358 265.388 -90.2343 265.927L-90.2345 265.931ZM-166.729 211.587C-166.428 212.355 -165.857 213.018 -165.061 213.414C-164.293 213.801 -163.449 213.87 -162.674 213.675L-140.685 276.26L-176.252 214.345L-166.726 211.584L-166.729 211.587ZM-137.689 276.334C-138.458 275.948 -139.302 275.878 -140.076 276.073L-162.073 213.465C-161.798 213.337 -161.536 213.174 -161.3 212.979L-102.754 271.207L-135.943 278.387C-136.216 277.525 -136.819 276.77 -137.691 276.336L-137.689 276.334ZM-135.804 279.009L-102.212 271.742L-90.8723 283.019C-91.0341 283.216 -91.1811 283.434 -91.2997 283.67C-91.4361 283.943 -91.53 284.225 -91.5902 284.512L-135.782 279.492C-135.778 279.33 -135.783 279.167 -135.803 279.005L-135.804 279.009ZM-88.4221 281.771C-89.1525 281.818 -89.8562 282.091 -90.4213 282.565L-101.467 271.582L-90.9904 269.314C-90.7169 270.176 -90.1145 270.931 -89.2421 271.366C-88.8809 271.547 -88.5 271.655 -88.1182 271.703L-88.4221 281.771ZM-84.5211 266.9L-46.0528 245.816L-37.162 264.441C-37.7103 264.767 -38.1762 265.246 -38.4864 265.861C-38.6935 266.275 -38.8068 266.712 -38.8409 267.147L-84.257 267.899C-84.2955 267.556 -84.3841 267.219 -84.5211 266.9ZM13.8517 214.203C14.0657 214.389 14.3057 214.555 14.5722 214.689C15.0943 214.949 15.6465 215.066 16.1896 215.054L24.0523 261.319L-31.9961 266.757C-32.1151 266.138 -32.3991 265.561 -32.8263 265.086L13.854 214.201L13.8517 214.203ZM272.251 278.19L291.943 309.282C291.512 309.596 291.145 310.013 290.892 310.524C290.768 310.773 290.68 311.029 290.619 311.29L277.304 310.954L271.677 278.449C271.877 278.381 272.07 278.294 272.256 278.19L272.251 278.19ZM418.421 237.92C418.07 238.97 418.253 240.103 418.858 240.981L401.257 255.78L376.056 220.62C376.341 220.35 376.589 220.028 376.775 219.658L418.419 237.922L418.421 237.92ZM375.556 221.014L400.77 256.193L346.012 302.233C345.758 301.984 345.464 301.768 345.129 301.601C345.092 301.583 345.052 301.568 345.014 301.55L372.91 221.477C373.83 221.688 374.782 221.509 375.554 221.016L375.556 221.014ZM36.3384 319.497C36.1953 319.424 36.0512 319.369 35.9024 319.318L49.5066 262.543C50.4802 262.684 51.4695 262.399 52.2189 261.772L82.8911 292.182L37.5405 320.498C37.2295 320.09 36.8273 319.744 36.3384 319.497ZM52.6678 261.316C52.8295 261.119 52.9719 260.905 53.0928 260.667C53.2164 260.422 53.302 260.169 53.3629 259.912L118.484 269.065C118.421 269.375 118.4 269.686 118.422 269.993L83.4498 291.829L52.6701 261.314L52.6678 261.316ZM118.535 270.677C118.655 271.106 118.853 271.512 119.126 271.867L106.012 305.932L104.742 309.232C103.651 308.921 102.494 309.173 101.63 309.864L83.9091 292.296L118.531 270.681L118.535 270.677ZM105.347 309.465C105.347 309.465 105.345 309.462 105.343 309.46L106.607 306.174L119.617 272.379C119.827 272.56 120.063 272.721 120.322 272.852C120.752 273.067 121.205 273.183 121.653 273.214L131.345 301.564L106.877 310.978C106.553 310.346 106.035 309.804 105.35 309.462L105.347 309.465ZM37.8783 321.04L83.3575 292.643L101.175 310.308C100.995 310.518 100.836 310.752 100.707 311.009C100.439 311.547 100.323 312.12 100.344 312.681L38.1515 321.778C38.0903 321.523 37.997 321.277 37.8783 321.04ZM152.906 366.893L106.376 314.858C106.575 314.635 106.751 314.382 106.892 314.105C107.301 313.285 107.353 312.384 107.111 311.571L131.549 302.171L153.548 366.518C153.321 366.619 153.109 366.746 152.909 366.896L152.906 366.893ZM132.144 301.94L160.577 291C160.904 291.578 161.399 292.065 162.038 292.383C162.287 292.507 162.544 292.597 162.803 292.656L158.068 337.321L155.006 366.214C154.714 366.21 154.428 366.241 154.151 366.31L132.144 301.94ZM303.867 461.824L287.853 434.41L277.957 417.465C278.401 417.147 278.775 416.723 279.038 416.199C279.553 415.173 279.503 414.015 279.014 413.067L293.433 403.847L304.352 461.632C304.184 461.684 304.023 461.748 303.865 461.821L303.867 461.824ZM249.582 313.452L283.098 357.283C282.801 357.559 282.539 357.889 282.349 358.274C282.019 358.937 281.922 359.656 282.026 360.339L263.159 366.202L248.958 313.761C249.177 313.68 249.388 313.575 249.587 313.452L249.582 313.452ZM282.177 360.96C282.464 361.779 283.053 362.495 283.894 362.915C284.106 363.021 284.321 363.102 284.541 363.161L276.221 411.205C275.93 411.183 275.64 411.2 275.357 411.248L263.325 366.816L282.179 360.958L282.177 360.96ZM278.672 412.529C278.365 412.136 277.971 411.799 277.493 411.559C277.284 411.455 277.067 411.371 276.85 411.313L279.829 394.154L285.191 363.272C285.385 363.286 285.577 363.281 285.768 363.264L293.308 403.174L278.672 412.534L278.672 412.529ZM286.394 363.143C287.291 362.885 288.083 362.271 288.535 361.37C288.717 361.004 288.825 360.623 288.872 360.241L354.865 362.194C354.897 362.673 355.026 363.136 355.246 363.562L293.889 402.798L286.396 363.141L286.394 363.143ZM355.22 360.432C355.038 360.797 354.93 361.178 354.883 361.56L288.889 359.607C288.847 358.911 288.59 358.24 288.158 357.688L317.006 330.334L355.397 360.122C355.333 360.223 355.275 360.326 355.222 360.434L355.22 360.432ZM287.719 357.224C287.5 357.034 287.258 356.866 286.99 356.729C286.908 356.687 286.824 356.655 286.742 356.621L293.541 315.494C294.639 315.635 295.749 315.241 296.51 314.431L316.496 329.939L287.719 357.224ZM292.439 315.162C292.595 315.241 292.757 315.301 292.917 315.355L286.126 356.438C285.806 356.373 285.486 356.357 285.168 356.381L277.413 311.595L290.529 311.925C290.474 313.242 291.179 314.536 292.435 315.162L292.439 315.162ZM284.541 356.49C284.27 356.562 284.007 356.666 283.76 356.802L250.098 313.056C250.393 312.783 250.647 312.455 250.839 312.071C251.023 311.703 251.132 311.318 251.177 310.929L276.763 311.574L284.538 356.488L284.541 356.49ZM166.676 290.84C166.698 290.794 166.717 290.748 166.737 290.699L212.663 302.125L244.324 310.003C244.214 310.729 244.343 311.464 244.671 312.105L192.716 345.224L165.248 292.323C165.844 291.997 166.35 291.495 166.676 290.84ZM246.49 313.749C247.095 313.986 247.729 314.038 248.334 313.931L262.543 366.396L214.912 381.196C214.643 380.549 214.178 379.98 213.547 379.586L246.49 313.749ZM215.104 381.806L262.711 367.013L274.738 411.419C274.04 411.679 273.424 412.159 273.01 412.829L214.944 383.775C215.197 383.131 215.242 382.446 215.104 381.806ZM274.397 417.749C275.38 418.239 276.482 418.217 277.406 417.789L284.621 430.143L303.317 462.152C303.204 462.236 303.093 462.328 302.988 462.426L259.738 424.358L272.617 413.715C272.173 415.283 272.886 416.991 274.397 417.749ZM306.586 461.704C306.059 461.505 305.51 461.444 304.978 461.502L294.013 403.475L355.586 364.102C355.823 364.408 356.112 364.676 356.451 364.895L306.586 461.704ZM355.787 359.621L317.47 329.89L341.305 307.291C341.523 307.481 341.765 307.65 342.034 307.786C342.708 308.124 343.44 308.217 344.128 308.104L357.145 358.729C356.636 358.912 356.168 359.213 355.787 359.621ZM340.866 306.827L316.962 329.493L296.903 313.927C296.967 313.826 297.024 313.723 297.077 313.615C297.357 313.058 297.468 312.46 297.435 311.875L340.225 305.51C340.34 305.986 340.558 306.434 340.866 306.823L340.866 306.827ZM271.052 278.6L276.652 310.935L251.192 310.293C251.127 309.338 250.67 308.434 249.898 307.82L269.191 278.36C269.797 278.618 270.439 278.692 271.05 278.602L271.052 278.6ZM268.628 278.054L249.362 307.473C249.338 307.46 249.316 307.446 249.292 307.433C247.585 306.577 245.507 307.271 244.651 308.978C244.586 309.11 244.529 309.247 244.481 309.385L173.662 291.763L166.943 290.093C166.998 289.863 167.028 289.629 167.036 289.399L267.218 276.111C267.437 276.889 267.92 277.588 268.628 278.059L268.628 278.054ZM160.314 290.417L131.936 301.332L122.312 273.187C123.359 273.048 124.321 272.431 124.874 271.452L160.25 288.37C160.06 289.056 160.093 289.765 160.314 290.412L160.314 290.417ZM48.448 262.211C48.5911 262.284 48.7351 262.339 48.8839 262.39L35.2798 319.165C35.0285 319.13 34.7757 319.121 34.5282 319.142L24.798 261.885L46.6049 259.768C46.8023 260.789 47.4503 261.709 48.4525 262.212L48.448 262.211ZM-32.2987 268.95C-32.0463 268.448 -31.9347 267.913 -31.9364 267.386L24.1576 261.942L33.8966 319.247C33.2868 319.409 32.7226 319.737 32.2776 320.206L-32.4877 269.279C-32.4189 269.174 -32.3544 269.064 -32.2987 268.95ZM38.1113 323.536C38.2169 323.162 38.2595 322.78 38.2385 322.404L100.419 313.309C100.498 313.664 100.636 314.003 100.823 314.32L70.7118 336.217L38.109 323.539L38.1113 323.536ZM101.2 314.835C101.486 315.162 101.838 315.438 102.25 315.647C103.477 316.261 104.89 316.075 105.908 315.292L152.43 367.318C152.281 367.478 152.146 367.651 152.027 367.844L71.4228 336.496L101.202 314.842L101.2 314.835ZM156.508 366.576C156.226 366.434 155.935 366.34 155.642 366.282L163.436 292.743C163.856 292.761 164.272 292.704 164.663 292.575L192.179 345.567L157.691 367.551C157.384 367.153 156.988 366.818 156.508 366.576ZM193.012 345.791L245.013 312.643C245.259 312.959 245.558 313.239 245.917 313.461L212.975 379.298C212.126 378.966 211.216 378.995 210.417 379.32L193.01 345.793L193.012 345.791ZM214.657 384.343L272.268 413.17L259.249 423.926L214.512 384.55C214.563 384.483 214.61 384.415 214.657 384.343ZM302.568 462.904C302.456 463.056 302.355 463.216 302.266 463.39C302.178 463.564 302.112 463.743 302.055 463.924L229.998 448.929L259.237 424.766L302.565 462.902L302.568 462.904ZM307.735 462.422C307.597 462.293 307.446 462.172 307.284 462.064L307.235 461.837L357.019 365.183C357.743 365.476 358.515 365.503 359.225 365.31L373.883 404.25L307.74 462.422L307.735 462.422ZM415.52 372.292L382.363 397.151C382.083 396.841 381.744 396.574 381.348 396.377C381.095 396.249 380.832 396.163 380.567 396.101L384.544 366.01L415.009 370.317C414.975 371.014 415.156 371.701 415.518 372.29L415.52 372.292ZM379.934 396.018C379.39 395.997 378.851 396.104 378.364 396.327L360.3 364.81C360.753 364.492 361.136 364.058 361.405 363.527C361.529 363.283 361.614 363.03 361.675 362.777L383.914 365.921L379.934 396.018ZM361.765 362.147C361.81 361.204 361.467 360.28 360.811 359.595L387.446 328.966C387.627 329.109 387.828 329.237 388.041 329.346C388.262 329.457 388.49 329.539 388.72 329.598L384.001 365.292L361.767 362.149L361.765 362.147ZM386.984 328.524L363.939 355.025L386.259 325.319C385.942 326.451 386.229 327.657 386.984 328.524ZM360.126 359.039C360.041 358.987 359.953 358.937 359.863 358.889C359.189 358.551 358.456 358.458 357.768 358.572L344.751 307.947C345.56 307.657 346.264 307.07 346.679 306.242C347.045 305.512 347.125 304.714 346.965 303.973L415.821 282.493C416.03 282.949 416.343 283.364 416.739 283.699L360.126 359.043L360.126 359.039ZM346.773 303.364C346.678 303.14 346.565 302.924 346.425 302.72L401.143 256.712L416.71 278.428C416.371 278.72 416.083 279.078 415.871 279.505C415.485 280.274 415.418 281.116 415.611 281.888L346.775 303.362L346.773 303.364ZM417.231 278.062L401.635 256.304L419.275 241.473C419.529 241.721 419.822 241.938 420.157 242.104C420.486 242.268 420.826 242.374 421.171 242.429L418.957 277.599C418.349 277.601 417.755 277.762 417.233 278.064L417.231 278.062ZM423.251 235.917C421.585 235.084 419.574 235.722 418.682 237.337L377.209 219.148L477.856 243.356L425.163 238.976C425.15 237.721 424.456 236.516 423.255 235.917L423.251 235.917ZM478.883 242.474C478.812 242.615 478.755 242.761 478.707 242.908L377.127 218.474C377.181 217.957 377.118 217.438 376.946 216.957L418.644 198.554L479.005 242.266C478.965 242.336 478.923 242.404 478.885 242.476L478.883 242.474ZM372.14 221.203C372.195 221.231 372.252 221.252 372.308 221.275L344.415 301.337C343.4 301.083 342.337 301.314 341.518 301.923L321.693 279.904L371.708 220.943C371.845 221.039 371.985 221.128 372.14 221.203ZM341.044 302.35C340.828 302.583 340.64 302.846 340.491 303.148C340.211 303.705 340.1 304.303 340.133 304.888L297.343 311.253C297.198 310.658 296.893 310.104 296.457 309.659L321.276 280.4L341.044 302.354L341.044 302.35ZM295.966 309.242C295.829 309.146 295.686 309.055 295.532 308.979C294.852 308.639 294.113 308.548 293.417 308.663L271.923 227.039C272.237 226.924 272.532 226.766 272.805 226.563L320.842 279.914L295.964 309.239L295.966 309.242ZM271.307 227.203L292.798 308.825C292.695 308.862 292.591 308.904 292.491 308.956L272.774 277.826C273.124 277.533 273.419 277.164 273.636 276.732C274.49 275.023 273.799 272.948 272.092 272.092C271.7 271.895 271.287 271.785 270.878 271.746L271.047 227.239C271.136 227.233 271.222 227.219 271.309 227.206L271.307 227.203ZM267.104 275.484L166.997 288.764C166.831 287.697 166.168 286.722 165.128 286.202C164.661 285.97 164.166 285.853 163.673 285.841L160.199 232.57C161.241 232.405 162.19 231.765 162.715 230.764L267.321 273.931C267.122 274.44 267.054 274.97 267.101 275.486L267.104 275.484ZM158.114 232.248C158.581 232.48 159.077 232.597 159.566 232.611L162.964 284.71L153.072 236.706L157.549 231.897C157.721 232.031 157.911 232.151 158.114 232.252L158.114 232.248ZM162.574 285.989C161.699 286.257 160.93 286.864 160.488 287.747C160.483 287.756 160.48 287.767 160.473 287.778L125.132 270.876C125.541 269.679 125.254 268.377 124.439 267.462L152.536 237.274L162.572 285.987L162.574 285.989ZM123.973 267.026C123.802 266.893 123.611 266.772 123.409 266.671C123.232 266.585 123.053 266.515 122.871 266.46L140.343 181.806C140.599 181.833 140.855 181.835 141.109 181.807L152.38 236.509L123.973 267.026ZM119.481 267.261C119.198 267.529 118.955 267.846 118.768 268.216C118.73 268.293 118.699 268.373 118.666 268.45L53.4477 259.286C53.4848 258.492 53.2455 257.711 52.7793 257.074L87.2356 226.406L119.481 267.261ZM47.732 256.507C47.3982 256.795 47.1126 257.155 46.9029 257.576C46.6506 258.078 46.5389 258.612 46.5407 259.139L24.6906 261.26L16.8241 214.981C17.1532 214.912 17.469 214.795 17.7644 214.637L47.7318 256.511L47.732 256.507ZM13.408 213.739L-33.301 264.654C-33.4683 264.526 -33.6498 264.41 -33.8437 264.314C-34.7337 263.869 -35.7203 263.847 -36.5847 264.166L-45.492 245.509L13.1496 213.366C13.2286 213.497 13.3148 213.621 13.4102 213.742L13.408 213.739ZM-46.3299 245.237L-84.8285 266.339C-85.1515 265.861 -85.5937 265.456 -86.1466 265.18C-86.2788 265.115 -86.4117 265.063 -86.547 265.013L-73.392 212.581L-70.08 199.375C-69.4789 199.465 -68.8714 199.391 -68.32 199.178L-46.332 245.234L-46.3299 245.237ZM-71.1141 199.052C-70.9798 199.12 -70.8403 199.175 -70.6981 199.223L-87.1649 264.856C-87.36 264.825 -87.5515 264.813 -87.746 264.816L-94.7382 200.085L-72.9347 196.739C-72.7098 197.709 -72.0724 198.574 -71.1141 199.052ZM-95.4379 199.547L-160.163 209.485C-160.301 208.935 -160.573 208.423 -160.962 207.996L-103.471 144.976C-103.207 145.25 -102.897 145.486 -102.537 145.665C-102.115 145.877 -101.666 145.993 -101.223 146.023L-95.4424 199.547L-95.4379 199.547ZM-104.368 143.288C-104.277 143.709 -104.111 144.113 -103.872 144.474L-161.43 207.567C-161.595 207.441 -161.774 207.327 -161.966 207.234C-162.449 206.994 -162.956 206.879 -163.462 206.871L-167.093 160.013L-104.366 143.291L-104.368 143.288ZM-164.099 206.916C-164.665 207.013 -165.197 207.248 -165.652 207.606L-199.935 171.477C-199.842 171.342 -199.756 171.204 -199.68 171.054C-199.289 170.272 -199.224 169.414 -199.431 168.63L-167.724 160.177L-164.099 206.916ZM-201.035 172.493L-177.215 213.957L-201.532 221.002C-201.833 220.233 -202.404 219.57 -203.199 219.174C-203.551 218.997 -203.919 218.89 -204.289 218.841L-202.429 172.945C-201.938 172.893 -201.464 172.742 -201.035 172.493ZM-201.946 224.287C-201.838 224.139 -201.74 223.981 -201.654 223.814C-201.298 223.107 -201.215 222.336 -201.353 221.614L-176.888 214.526L-141.231 276.598C-141.367 276.695 -141.5 276.805 -141.621 276.923L-201.946 224.287ZM-85.0481 283.815C-85.3636 283.106 -85.9149 282.499 -86.6615 282.123C-87.0227 281.941 -87.4036 281.833 -87.7854 281.786L-87.4816 271.718C-86.2933 271.645 -85.1746 270.959 -84.6039 269.818C-84.3969 269.404 -84.2835 268.967 -84.2495 268.533L-38.8334 267.78C-38.8182 267.921 -38.7939 268.062 -38.7628 268.202L-85.0526 283.814L-85.0481 283.815ZM-33.8419 270.49C-33.4891 270.314 -33.1647 270.077 -32.8848 269.782L31.8804 320.71C31.8117 320.815 31.7471 320.924 31.6914 321.039C30.8558 322.706 31.5005 324.725 33.1221 325.615L10.3649 377.997C9.68714 377.774 8.9798 377.771 8.32564 377.96L-33.8395 270.487L-33.8419 270.49ZM12.681 380.646C12.6069 380.249 12.462 379.863 12.2543 379.514L70.8028 336.939L150.483 367.928L12.6786 380.648L12.681 380.646ZM158.382 370.116C158.475 369.414 158.345 368.706 158.029 368.088L192.467 346.136L209.848 379.613C209.342 379.939 208.912 380.396 208.624 380.973C208.545 381.13 208.485 381.287 208.434 381.449L158.384 370.119L158.382 370.116ZM212.903 385.764C213.338 385.603 213.742 385.355 214.087 385.032L258.746 424.34L229.457 448.543L212.9 385.766L212.903 385.764ZM318.356 515.157C317.799 515.336 317.285 515.657 316.878 516.097L230.579 449.703L301.925 464.547C301.768 465.948 302.479 467.361 303.811 468.03C305.179 468.715 306.778 468.405 307.803 467.383L318.36 515.157L318.356 515.157ZM394.311 456.733L374.63 404.441L377.421 401.988C377.66 402.215 377.937 402.412 378.248 402.567C378.922 402.905 379.658 402.998 380.351 402.885L394.313 456.735L394.311 456.733ZM416.311 367.779C415.926 368.082 415.598 368.472 415.366 368.939C415.242 369.183 415.159 369.434 415.096 369.689L384.625 365.379L389.343 329.699C389.989 329.744 390.63 329.601 391.197 329.305L416.311 367.779ZM391.073 323.132C389.972 322.607 388.728 322.713 387.758 323.316L413.217 289.434L391.075 323.13L391.073 323.132ZM482.516 240.603C481.346 240.415 480.153 240.845 479.367 241.742L419.309 198.252L500.366 162.478C500.692 163.065 501.193 163.564 501.838 163.889C501.963 163.952 502.092 164.004 502.218 164.049L482.514 240.605L482.516 240.603ZM499.988 161.401C500.018 161.567 500.057 161.734 500.111 161.895L418.715 197.816L384.266 172.868C384.298 172.813 384.331 172.759 384.361 172.701C384.636 172.153 384.748 171.567 384.722 170.993L499.988 161.401ZM380.862 174.589C382.001 174.723 383.145 174.281 383.897 173.394L418.034 198.115L376.667 216.37C376.34 215.806 375.852 215.326 375.226 215.013C375.024 214.912 374.815 214.833 374.604 214.775L380.862 174.589ZM370.246 218.514C370.335 219.267 370.671 219.978 371.212 220.526L321.253 279.42L273.273 226.133C273.488 225.9 273.676 225.637 273.826 225.335C274.053 224.876 274.169 224.394 274.187 223.914L370.244 218.511L370.246 218.514ZM156.562 227.605C155.911 228.909 156.161 230.428 157.077 231.454L152.909 235.933L141.873 182.369L158.154 226.043C157.489 226.363 156.918 226.893 156.562 227.609L156.562 227.605ZM137.461 179.512C137.576 179.834 137.736 180.141 137.941 180.416L87.3137 225.477L67.0917 199.855C67.3747 199.587 67.6197 199.268 67.804 198.9C68.1373 198.234 68.234 197.512 68.1251 196.828L137.461 179.512ZM61.498 198.628C61.7993 199.392 62.3706 200.05 63.1613 200.447C63.3044 200.52 63.453 200.575 63.6018 200.626L50.4801 255.699C49.7015 255.588 48.9178 255.748 48.2487 256.136L18.2918 214.278C18.6624 213.979 18.9808 213.597 19.2058 213.141C19.5618 212.43 19.6476 211.657 19.5024 210.932L61.4959 198.626L61.498 198.628ZM12.6785 211.226C12.6212 211.759 12.6904 212.293 12.8725 212.787L-45.769 244.929L-67.7447 198.896C-67.2168 198.571 -66.7672 198.102 -66.4714 197.505C-66.3602 197.28 -66.276 197.054 -66.2163 196.82L12.6833 211.222L12.6785 211.226ZM-71.5447 193.12C-72.0045 193.44 -72.3936 193.876 -72.6635 194.411C-72.9363 194.957 -73.0503 195.537 -73.0236 196.106L-94.8088 199.449L-100.58 146.003C-100.231 145.96 -99.8898 145.867 -99.5725 145.723L-71.5447 193.12ZM-172.092 126.694C-171.936 126.811 -171.769 126.914 -171.589 127.005C-171.164 127.219 -170.716 127.336 -170.267 127.366L-167.773 159.53L-199.651 168.029C-199.862 167.579 -200.173 167.172 -200.57 166.846L-172.09 126.696L-172.092 126.694Z" fill="#BF8888"/>
<path d="M268.145 340.454L271.849 344.765C272.046 344.994 272.388 345.018 272.616 344.824C272.843 344.628 272.869 344.284 272.674 344.057L268.961 339.735C268.715 339.462 268.436 339.241 268.146 339.044C268.136 339.032 268.133 339.017 268.123 339.006C266.933 337.689 266.995 335.686 268.261 334.543C269.527 333.397 271.526 333.543 272.715 334.86L276.418 339.171C276.535 339.307 276.704 339.371 276.869 339.359C276.982 339.351 277.092 339.308 277.185 339.23C277.413 339.034 277.438 338.69 277.244 338.463L273.531 334.141C273.083 333.644 272.545 333.288 271.972 333.044C271.536 331.68 271.929 330.192 272.996 329.227C273.72 328.574 274.653 328.233 275.624 328.292C276.596 328.341 277.492 328.766 278.145 329.489L282.263 334.291C282.38 334.427 282.549 334.492 282.714 334.48C282.827 334.472 282.938 334.429 283.029 334.351C283.257 334.155 283.284 333.812 283.088 333.585L278.96 328.773C278.853 328.654 278.728 328.562 278.612 328.455C278.59 328.396 278.562 328.339 278.519 328.287L271.299 319.876C270.798 319.118 270.624 318.111 270.86 317.165C271.097 316.22 271.724 315.413 272.582 314.951C273.839 314.273 275.359 314.429 276.454 315.343L290.451 327.035C291.256 327.709 291.951 328.497 292.519 329.379L300.741 359.36L281.413 371.408L276.167 369.075C273.2 367.754 270.919 365.226 269.915 362.137L265.957 349.984L263.65 344.743C263.056 343.211 262.572 341.147 263.694 340.135C264.957 338.992 266.958 339.132 268.147 340.451L268.145 340.454Z" fill="#FFBE97"/>
<path d="M262.963 339.331C263.945 338.444 265.247 338.143 266.483 338.368C265.866 336.772 266.221 334.92 267.53 333.736C268.44 332.916 269.625 332.596 270.776 332.73C270.506 331.149 271.047 329.521 272.265 328.422C273.202 327.576 274.411 327.144 275.677 327.209C275.865 327.218 276.044 327.259 276.226 327.291L270.431 320.534C269.721 319.469 269.493 318.146 269.803 316.905C270.113 315.665 270.937 314.604 272.064 313.997C273.718 313.11 275.708 313.311 277.148 314.513L291.145 326.206C292.058 326.969 292.843 327.864 293.479 328.869C293.507 328.915 293.529 328.965 293.544 329.015L301.894 359.467C301.959 359.698 301.861 359.945 301.658 360.071L281.742 372.486C281.665 372.534 281.579 372.561 281.492 372.567C281.406 372.573 281.316 372.558 281.234 372.522L275.724 370.071C272.476 368.625 269.981 365.858 268.879 362.476L264.942 350.374L262.646 345.161C261.329 341.769 262.091 340.119 262.964 339.331L262.963 339.331ZM263.647 344.745L265.954 349.987L269.912 362.14C270.918 365.229 273.197 367.757 276.164 369.078L281.41 371.411L300.738 359.363L292.517 329.381C291.949 328.5 291.253 327.712 290.448 327.038L276.451 315.345C275.356 314.432 273.836 314.275 272.58 314.954C271.721 315.416 271.094 316.223 270.858 317.168C270.622 318.114 270.795 319.12 271.296 319.879L278.516 328.29C278.559 328.34 278.587 328.398 278.609 328.458C278.725 328.563 278.85 328.657 278.957 328.776L283.085 333.588C283.281 333.815 283.254 334.158 283.026 334.353C282.935 334.433 282.824 334.475 282.711 334.483C282.546 334.494 282.379 334.431 282.261 334.293L278.142 329.492C277.489 328.768 276.595 328.344 275.621 328.294C274.65 328.236 273.717 328.577 272.994 329.23C271.927 330.193 271.533 331.683 271.969 333.047C272.543 333.29 273.08 333.647 273.529 334.144L277.241 338.466C277.437 338.693 277.411 339.037 277.182 339.233C277.09 339.312 276.979 339.354 276.866 339.362C276.701 339.373 276.533 339.31 276.415 339.174L272.713 334.863C271.523 333.545 269.525 333.4 268.258 334.545C266.992 335.689 266.931 337.691 268.12 339.009C268.131 339.021 268.133 339.035 268.143 339.047C268.434 339.243 268.712 339.465 268.958 339.738L272.672 344.059C272.868 344.287 272.842 344.631 272.613 344.826C272.387 345.021 272.043 344.998 271.846 344.768L268.142 340.457C266.953 339.138 264.952 338.997 263.689 340.14C262.567 341.153 263.05 343.216 263.645 344.748L263.647 344.745Z" fill="#FFBE97"/>
<path d="M270.444 318.679L283.41 335.248M271.165 333.449L278.008 341.733M266.482 338.491L272.245 347.135" stroke="#4F2B2B" stroke-width="1.5" stroke-linecap="round" stroke-linejoin="round"/>
<path d="M353.722 313.335H391.287L402.904 335.796H365.34L353.722 313.335Z" fill="#FFBE97"/>
<path d="M361.948 329.216L357.579 320.477L386.708 321.448C376.221 331.158 365.994 329.054 361.948 329.216Z" fill="#4F2B2B"/>
<path d="M397.603 269.656C380.377 254.421 354.814 261.266 354.814 261.266C354.814 261.266 345.126 254.7 339.967 261.923C334.81 269.145 344.462 276.592 344.462 276.592L397.603 269.654V269.656Z" fill="#4F2B2B"/>
<path d="M402.258 309.953C396.74 324.784 375.656 331.715 357.858 325.092C340.06 318.469 332.29 300.8 337.81 285.97C343.328 271.139 362.23 264.485 380.027 271.108C397.824 277.732 407.778 295.122 402.258 309.953Z" fill="#FFBE97"/>
<path d="M350.195 292.936C350.454 292.987 350.715 292.832 350.787 292.575C350.866 292.3 350.709 292.016 350.435 291.933L343.938 290.043L350.01 288.711C350.29 288.65 350.466 288.375 350.405 288.095C350.344 287.815 350.068 287.643 349.789 287.7L341.738 289.467C341.508 289.52 341.339 289.718 341.334 289.955C341.325 290.192 341.478 290.404 341.708 290.467L350.146 292.923C350.146 292.923 350.178 292.929 350.192 292.932L350.195 292.936Z" fill="#4F2B2B"/>
<path d="M358.525 301.591C355.577 301.214 353.351 299.623 353.554 298.038C353.757 296.452 356.311 295.472 359.259 295.85C362.207 296.227 364.432 297.818 364.229 299.403C364.027 300.989 361.472 301.968 358.525 301.591Z" fill="#FF9D6C"/>
<path d="M341.613 286.624L332.789 293.008C331.649 293.833 331.653 295.533 332.797 296.353L338.261 300.27L341.612 286.625L341.613 286.624Z" fill="#FFBE97"/>
<path d="M355.383 287.077C355.521 287.077 355.657 287.025 355.762 286.922C355.977 286.712 355.98 286.368 355.771 286.153C353.905 284.248 351.449 282.866 348.857 282.26C348.56 282.192 348.272 282.373 348.204 282.666C348.135 282.957 348.317 283.25 348.608 283.319C351.004 283.876 353.272 285.153 354.994 286.913C355.101 287.022 355.241 287.076 355.382 287.076L355.383 287.077Z" fill="#4F2B2B"/>
<path d="M354.48 261.097C354.48 261.097 379.98 253.51 397.205 268.745C414.43 283.979 414.346 301.83 405.737 313.3C397.129 324.77 386.814 325.079 386.814 325.079C386.814 325.079 375.875 291.053 374.804 291.965C373.732 292.878 354.48 261.095 354.48 261.095V261.097Z" fill="#4F2B2B"/>
<path d="M396.556 286.349C391.553 281.29 390.905 273.819 395.109 269.662C399.313 265.504 406.777 266.235 411.78 271.294C416.782 276.353 417.43 283.825 413.226 287.982C409.022 292.139 401.559 291.408 396.556 286.349Z" fill="#4F2B2B"/>
<path d="M407.86 279.608C407.86 279.608 423.67 267.875 442.388 284.869C461.107 301.864 432.883 314.829 455.486 322.992C455.486 322.992 429.489 336.531 412.479 300.363L407.86 279.608Z" fill="#4F2B2B"/>
<path d="M369.605 305.035C368.376 300.948 370.693 296.638 374.781 295.41C378.868 294.181 383.178 296.499 384.406 300.586C385.635 304.673 383.317 308.983 379.23 310.212C375.143 311.44 370.833 309.123 369.605 305.035Z" fill="#FFBE97"/>
<path d="M379.301 304.188L374.829 304.38C374.108 304.411 373.499 303.852 373.468 303.131C373.438 302.411 373.996 301.801 374.717 301.771L379.189 301.579C379.909 301.548 380.519 302.107 380.55 302.827C380.58 303.548 380.021 304.157 379.301 304.188Z" fill="#4F2B2B"/>
<path d="M346.325 307.857C348.489 307.857 350.651 307.517 352.703 306.84C352.988 306.747 353.143 306.439 353.048 306.154C352.954 305.87 352.65 305.711 352.362 305.809C348.63 307.042 344.507 307.09 340.748 305.951C340.461 305.863 340.158 306.025 340.071 306.313C339.985 306.6 340.146 306.903 340.434 306.991C342.338 307.569 344.332 307.857 346.327 307.857H346.325Z" fill="#4F2B2B"/>
<path d="M356.102 265.087C352.95 267.22 351.3 271.36 352.121 275.077C352.943 278.793 356.184 281.853 359.942 282.457C360.241 282.506 360.577 282.558 360.759 282.801C360.907 282.997 360.909 283.263 360.918 283.509C361.201 291.559 374.837 298.612 381.296 293.268L356.102 265.087Z" fill="#4F2B2B"/>
<path d="M409.332 337.256L398.039 325.968C398.039 325.968 367.223 329.162 353.079 339.194L409.332 337.256Z" fill="#FADBE9"/>
<path d="M409.33 337.254C409.33 337.254 420.095 346.474 425.364 355.932C439.822 381.877 448 471 448 471H335.952L349.461 419.055C349.461 419.055 340.166 436.094 321.191 434.545C299.424 432.769 281.356 372.908 281.356 372.908L300.775 356.401L321.578 369.098L335.952 349.689C342.529 343.113 351.006 338.785 360.185 337.286C375.42 334.798 398.56 332.235 409.331 337.254H409.33Z" fill="#E95D9A"/>
<path d="M349.46 419.597C349.633 419.597 349.803 419.514 349.909 419.36L364.237 398.447C364.407 398.2 364.343 397.861 364.096 397.692C363.848 397.523 363.509 397.586 363.34 397.833L349.012 418.747C348.842 418.994 348.906 419.332 349.153 419.502C349.247 419.566 349.354 419.597 349.46 419.597Z" fill="#4F2B2B"/>
<path d="M334.205 388.497C334.274 388.497 334.344 388.484 334.411 388.456C334.689 388.343 334.823 388.026 334.708 387.747C331.787 380.611 327.343 373.972 321.857 368.553C321.643 368.342 321.3 368.344 321.089 368.557C320.877 368.771 320.88 369.114 321.092 369.326C326.475 374.644 330.835 381.156 333.701 388.16C333.788 388.37 333.99 388.497 334.204 388.497H334.205Z" fill="#4F2B2B"/>
<path d="M136.736 187.303C138.049 175.065 145.484 164.016 158.909 163.409C160.666 163.329 162.418 163.409 164.165 163.62C164.649 158.619 164.968 152.71 167.789 148.475C174.683 138.147 184.339 132.286 196.241 130.626C208.138 128.968 220.608 133.738 229.019 143.353C232.759 129.351 250.928 120.473 264.659 121.46C276.972 122.342 291.01 132.3 292.972 150.213C297.744 146.245 304.203 145.591 310.394 146.523C319.756 147.934 327.71 155.22 332.632 164.019C338.818 175.068 340.16 188.994 335.688 200.533C331.221 212.07 324.947 219.106 313.48 221.708C307.058 223.162 299.765 223.249 293.151 219.301C293.167 229.053 286.175 236.341 278.117 240.555C270.059 244.77 259.03 245.747 250.275 242.706C242.923 240.156 235.746 235.158 232.578 227.568C224.785 236.59 213.863 242.915 202.18 243.051C190.496 243.186 178.287 236.396 172.884 225.058C171.877 222.949 171.164 220.698 170.724 218.393C166.549 220.424 161.762 221.113 157.147 220.236C141.949 217.345 135.211 201.52 136.739 187.297L136.736 187.303Z" fill="#FBE4C6"/>
<g filter="url(#filter0_bf_761_7240)">
<ellipse cx="240.41" cy="206.842" rx="24.546" ry="2.41436" fill="black"/>
</g>
<path d="M236.542 154.886C235.43 154.886 236.078 155.813 236.542 156.276L238.43 168.136H241.766L240.434 156.276C240.898 155.627 240.712 154.444 239.6 154.889C238.21 155.445 237.932 154.886 236.542 154.886Z" fill="#82633F"/>
<path d="M230.906 161.748C232.087 163.151 235.689 164.237 236.371 164.259L239.385 164.212L238.648 163.297C236.982 160.241 234.93 159.354 234.176 159.111C233.974 158.963 233.151 158.621 231.473 158.437C229.794 158.252 228.137 159.103 227.519 159.552C228.199 159.665 229.296 159.837 230.906 161.748Z" fill="#4A7431"/>
<path d="M232.87 166.467C222.416 163.798 216.466 169.247 214.798 172.305C200.063 188.431 223.823 212.733 230.651 210.358C238.95 207.471 240.789 213.168 253.023 209.275C265.256 205.383 269.847 185.094 265.121 175.364C260.394 165.633 253.166 165.633 250.385 165.077C247.605 164.521 245.937 169.803 232.87 166.467Z" fill="#87B743"/>
<path d="M353.342 224.832C347.781 222.307 339.923 227.368 341.307 234.785C342.312 240.174 347.533 243.714 352.575 241.747C358.712 239.354 359.749 231.241 355.471 226.443C354.812 225.702 354.094 225.177 353.343 224.837L353.342 224.832Z" fill="#FBE4C6"/>
<path d="M368.91 243.058C367.1 241.503 364.107 241.932 361.961 243.476C359.743 245.073 359.845 247.2 360.972 249.324C362.063 251.388 364.217 252.968 366.558 252.983C368.892 252.995 371.218 251.181 371.42 248.854C371.587 246.946 370.498 244.422 368.91 243.063L368.91 243.058Z" fill="#FBE4C6"/>
<path d="M132.163 227.62C137.47 224.598 145.758 228.92 145.057 236.432C144.549 241.89 139.674 245.892 134.473 244.394C128.143 242.572 126.368 234.588 130.19 229.42C130.779 228.621 131.446 228.033 132.163 227.625L132.163 227.62Z" fill="#FBE4C6"/>
<path d="M118.324 247.191C119.984 245.478 123.004 245.631 125.282 246.973C127.637 248.36 127.73 250.487 126.801 252.706C125.904 254.861 123.903 256.631 121.574 256.86C119.249 257.085 116.768 255.492 116.354 253.193C116.013 251.308 116.867 248.695 118.324 247.196L118.324 247.191Z" fill="#FBE4C6"/>
<path d="M219.725 384.379L251.144 377.032C254.567 376.14 258.098 378.06 259.214 381.423C260.359 384.883 258.537 388.625 255.104 389.853L225.694 400.081L204.607 415.494L201.295 423.611L167.551 415.349L219.725 384.374V384.379Z" fill="#FFBE97"/>
<path d="M204.392 381.749L224.073 378.069C227.366 377.452 230.58 379.465 231.462 382.697C232.317 385.822 230.715 389.091 227.726 390.338L211.019 397.283L201.113 409.347L167.551 415.358L170.134 397.419L172.095 391.87C172.105 391.847 172.114 391.819 172.123 391.796C173.557 387.793 177.237 385.023 181.46 384.519L204.397 381.759L204.392 381.749Z" fill="#FFBE97"/>
<path d="M207.138 399.437C206.942 399.437 206.76 399.32 206.681 399.129C206.573 398.876 206.695 398.582 206.947 398.479L227.535 389.881C230.286 388.737 231.771 385.706 230.982 382.833C230.911 382.567 231.066 382.296 231.332 382.221C231.598 382.151 231.874 382.305 231.944 382.572C232.864 385.93 231.131 389.465 227.918 390.801L207.33 399.4C207.269 399.428 207.204 399.437 207.138 399.437Z" fill="#4F2B2B"/>
<path d="M256.617 384.149L231.676 392.981L200.337 418.422L249.088 403.551L260.942 396.349C264.314 395.153 266.075 391.454 264.884 388.087C263.688 384.714 259.989 382.954 256.621 384.145L256.617 384.149Z" fill="#FFBE97"/>
<path d="M225.885 402.239C225.675 402.239 225.478 402.104 225.413 401.893C225.329 401.632 225.469 401.352 225.731 401.263L242.909 395.64C242.946 395.612 254.492 389.493 255.16 389.12C259.475 386.696 258.747 384.748 258.737 384.729C258.634 384.477 258.751 384.188 258.999 384.08C259.251 383.968 259.536 384.08 259.648 384.323C259.699 384.435 260.834 387.069 255.645 389.988C254.968 390.371 243.768 396.303 243.292 396.555L226.034 402.211C225.983 402.23 225.931 402.234 225.88 402.234L225.885 402.239Z" fill="#4F2B2B"/>
<path d="M218.441 388.627C218.287 388.627 218.137 388.557 218.039 388.421C217.049 387.071 216.591 385.343 216.774 383.685C216.802 383.41 217.054 383.213 217.325 383.246C217.6 383.274 217.796 383.522 217.764 383.797C217.605 385.212 218.002 386.688 218.843 387.837C219.006 388.057 218.959 388.37 218.735 388.533C218.646 388.599 218.544 388.631 218.441 388.631V388.627Z" fill="#4F2B2B"/>
<path d="M200.609 415.461C200.571 415.461 200.529 415.456 200.492 415.447C195.009 414.097 189.717 412.037 184.762 409.324C184.519 409.193 184.43 408.889 184.565 408.647C184.696 408.404 185.004 408.315 185.243 408.45C190.123 411.122 195.336 413.149 200.735 414.48C201.001 414.545 201.164 414.816 201.099 415.083C201.043 415.311 200.838 415.461 200.613 415.461H200.609Z" fill="#4F2B2B"/>
<path d="M92.2924 330.201L98.5589 306.146L63.9147 297.127L63.5996 298.328C68.5641 312.478 79.4502 322.448 92.2924 330.207V330.201Z" fill="#4F2B2B"/>
<path d="M63.6651 298.215L49.7646 335.897H90.9489L92.4947 329.999C79.5871 322.264 68.6534 312.324 63.6651 298.215Z" fill="#FFBE97"/>
<path d="M91.2321 319.044C109.808 321.505 124.536 307.698 126.316 289.923C126.687 286.289 126.404 282.737 125.567 279.335C125.526 279.116 125.473 278.919 125.408 278.714C125.396 278.687 125.384 278.653 125.384 278.626C125.29 278.264 125.19 277.916 125.072 277.569C125.001 277.269 124.901 276.976 124.801 276.689C123.97 274.153 122.815 271.746 121.365 269.482C121.365 269.482 121.361 269.473 121.353 269.455C120.729 268.48 120.063 267.532 119.35 266.626C113.851 259.603 105.565 254.564 95.9292 253.282C77.3532 250.821 60.8398 263.23 59.0541 280.991C57.2626 298.766 72.6679 316.582 91.2439 319.044H91.2321Z" fill="#FFBE97"/>
<path d="M128.26 301.7C128.07 302.818 120.443 305.582 120.443 305.582L123.924 289.168C123.924 289.168 128.445 300.586 128.255 301.704L128.26 301.7Z" fill="#FFBE97"/>
<path d="M107.4 288.634C107.077 288.586 106.836 288.297 106.858 287.965C106.879 287.611 107.18 287.344 107.536 287.36L115.921 287.841L109.368 283.767C109.066 283.579 108.974 283.184 109.161 282.882C109.349 282.58 109.743 282.492 110.046 282.675L118.735 288.079C118.982 288.236 119.098 288.538 119.005 288.817C118.917 289.098 118.651 289.283 118.356 289.262L107.463 288.639C107.463 288.639 107.423 288.633 107.405 288.63L107.4 288.634Z" fill="#4F2B2B"/>
<path d="M96.3813 297.634C96.3456 299.215 98.7 300.547 101.643 300.607C104.586 300.666 106.988 299.441 107.024 297.86C107.059 296.278 104.705 294.947 101.762 294.887C98.8189 294.828 96.4169 296.052 96.3813 297.634Z" fill="#FB8876"/>
<path d="M93.3182 269.757L62.6434 302.439C62.6434 302.439 52.1041 282.221 61.819 266.237C79.078 237.827 116.894 254.211 119.236 267.199L93.3182 269.757Z" fill="#4F2B2B"/>
<path d="M113.125 353.397L104.5 467.5H1C8.60424 437.041 24.2051 356.506 32.2612 343.717C38.6229 333.646 52.9455 332.142 52.9455 332.142H93.9275L113.119 353.391L113.125 353.397Z" fill="#9F5656"/>
<path d="M172.5 469L102.5 466L70.1395 366.752C65.4664 353.398 71.174 338.915 83.0292 332.143C84.5453 331.269 86.1506 330.52 87.8629 329.926C91.014 328.814 94.2424 328.291 97.4113 328.291C109.35 328.291 120.533 335.746 124.689 347.661L160.071 414.877L164 435" fill="#9F5656"/>
<path d="M98.0717 460.084C97.8101 460.084 97.5664 459.924 97.4712 459.662L87.037 429.846C86.9181 429.513 87.0964 429.156 87.4234 429.037C87.7564 428.918 88.1131 429.096 88.232 429.423L98.6663 459.24C98.7852 459.573 98.6068 459.93 98.2798 460.048C98.2085 460.072 98.1371 460.084 98.0717 460.084Z" fill="#4F2B2B"/>
<path d="M69.1476 345.081C68.9989 345.081 68.8562 345.028 68.7373 344.927C68.4698 344.695 68.44 344.297 68.666 344.035C73.1072 338.862 78.3392 334.498 84.2252 331.068C84.5285 330.89 84.9149 330.991 85.0933 331.294C85.2716 331.597 85.1646 331.984 84.8673 332.162C79.1062 335.521 73.9812 339.796 69.6351 344.861C69.5102 345.01 69.3319 345.081 69.1535 345.081H69.1476Z" fill="#4F2B2B"/>
<path d="M148.517 464.5L155.561 424.557L162.724 409.173L166.804 410.612L175.317 413.591L183.058 416.318L201.597 422.845L201.725 422.882L204.46 423.851L207.522 424.929L203.556 464.5H148.517Z" fill="#9F5656"/>
<path d="M167.241 447.471C166.997 447.471 166.765 447.328 166.664 447.091L159.47 430.788C159.328 430.467 159.47 430.093 159.791 429.95C160.112 429.807 160.487 429.95 160.63 430.271L167.824 446.573C167.966 446.894 167.824 447.269 167.503 447.412C167.419 447.447 167.33 447.465 167.247 447.465L167.241 447.471Z" fill="#4F2B2B"/>
<path d="M66.0184 293.701C66.0779 297.535 69.2349 300.597 73.0697 300.538C76.9046 300.478 79.9665 297.321 79.907 293.487C79.8476 289.652 76.6905 286.59 72.8557 286.649C69.0209 286.709 65.959 289.866 66.0184 293.701Z" fill="#FFBE97"/>
<path d="M70.9715 294.944L74.9966 294.884C75.6446 294.872 76.1619 294.343 76.15 293.695C76.1381 293.047 75.609 292.53 74.9609 292.542L70.9358 292.601C70.2878 292.613 69.7705 293.142 69.7824 293.79C69.7943 294.438 70.3235 294.956 70.9715 294.944Z" fill="#4F2B2B"/>
<path d="M99.1357 270.488C99.1357 270.488 120.552 278.347 132.508 261.139C132.508 261.139 123.143 262.255 114.779 255.105C111.187 252.037 76.7308 239.46 68.5635 265.383L99.1417 270.482L99.1357 270.488Z" fill="#4F2B2B"/>
<path d="M82.9011 278.083C77.1011 286.102 81.9792 288.576 87.4638 287.205C90.7971 288.959 95.059 291.412 94.6623 281.892C94.1482 269.551 101.081 276.671 106.831 276.921C111.431 277.122 115.267 275.357 116.601 274.522C121.351 278.531 126.623 272.428 129.284 273.836C132.198 275.379 142.901 268.31 139.901 259.289C137.501 252.072 127.235 250.435 122.401 250.518C121.601 247.11 118.901 245.423 117.651 245.005C110.251 242.399 103.568 251.103 101.151 255.78C93.3512 250.167 88.5678 256.282 87.1512 260.04C84.9845 259.79 80.0512 260.943 77.6512 267.558C75.2512 274.174 80.1511 277.331 82.9011 278.083Z" fill="#4F2B2B"/>
<path d="M97.5186 266.243L86.9484 288.202L81.6634 291.58L79.361 297.612L73.3887 279.514L97.5186 266.243Z" fill="#4F2B2B"/>
<path d="M108.155 305.025C107.864 305.025 107.602 305.227 107.537 305.524C107.46 305.869 107.68 306.208 108.019 306.279C110.641 306.856 113.417 306.868 116.045 306.309C116.39 306.238 116.604 305.899 116.532 305.56C116.461 305.215 116.116 305.001 115.783 305.072C113.334 305.59 110.742 305.578 108.292 305.043C108.244 305.031 108.203 305.025 108.155 305.025Z" fill="#4F2B2B"/>
<path d="M248.19 315.856C248.549 316.163 249.182 319.686 249.454 321.409C249.489 321.628 243.9 333.555 241.771 338.531C240.067 342.513 225.205 362.614 217.987 372.167C228.335 372.488 250.377 368.298 255.756 348.967C261.135 329.636 255.578 322.124 252.126 320.785L251.791 316.416C251.663 314.752 247.742 315.472 248.19 315.856Z" fill="#F5CD57"/>
<path d="M248.105 315.803C249.008 315.352 251.03 314.828 251.897 316.345C251.175 316.796 249.405 317.319 248.105 315.803Z" fill="#4F2B2B"/>
<path d="M252.167 320.949C251.806 321.31 250.759 321.924 249.459 321.49" stroke="#4F2B2B" stroke-linecap="round"/>
<path d="M253.249 326.093C255.235 332.141 256.878 345.699 247.562 351.548" stroke="#4F2B2B" stroke-linecap="round"/>
<path d="M249.791 325.95C250.751 332.243 250.133 345.886 239.98 350.117" stroke="#4F2B2B" stroke-linecap="round"/>
<path d="M225.117 314.564C224.285 314.628 224.824 315.284 225.197 315.604L227.292 324.371L229.788 324.179L228.11 315.381C228.419 314.869 228.212 313.994 227.406 314.391C226.398 314.887 226.157 314.484 225.117 314.564Z" fill="#82633F"/>
<path d="M221.292 320.022C222.257 321.004 225.015 321.61 225.526 321.586L227.779 321.378L227.174 320.736C225.752 318.545 224.166 317.999 223.588 317.861C223.428 317.761 222.793 317.553 221.526 317.511C220.26 317.47 219.069 318.202 218.632 318.573C219.147 318.619 219.978 318.684 221.292 320.022Z" fill="#4A7431"/>
<path d="M223.036 323.441C215.06 322.045 210.921 326.464 209.849 328.849C199.75 341.762 219.064 358.903 223.897 356.439C228.73 353.975 231.306 357.544 240.236 353.928C249.166 350.313 251.776 335.254 247.68 328.244C243.584 321.235 238.175 321.65 236.063 321.394C233.95 321.138 233.006 325.186 223.036 323.441Z" fill="#87B743"/>
<path d="M195.556 317.024C194.724 317.088 195.262 317.744 195.636 318.064L197.075 323.186L199.572 322.994L198.548 317.841C198.858 317.329 198.651 316.454 197.844 316.851C196.836 317.347 196.596 316.944 195.556 317.024Z" fill="#82633F"/>
<path d="M196.196 322.628C189.589 323.805 189.175 329.306 189.793 331.909C190.177 336.902 195.168 355.562 204.497 359.868C211.961 363.313 218.18 359.096 220.357 356.557C222.757 354.21 225.99 348.172 219.718 342.795C211.877 336.073 210.053 331.399 209.046 326.454C208.038 321.509 202.101 320.5 200.324 321.893C198.903 323.006 196.98 322.847 196.196 322.628Z" fill="#80944B"/>
<path d="M210.284 340.539C200.733 344.788 201.588 349.926 203.209 351.964C205.849 359.085 218.203 361.904 220.348 359.856C222.063 358.217 222.215 354.201 222.077 352.398C222.125 346.674 219.835 336.289 210.284 340.539Z" fill="#FF2C2C"/>
<path d="M204.994 348.898C204.994 348.898 204.994 348.898 204.994 348.899C204.994 348.898 204.994 348.898 204.994 348.898Z" stroke="#FBE4C6" stroke-width="0.693108"/>
<path d="M209.41 347.458C209.41 347.458 209.41 347.459 209.41 347.459C209.41 347.459 209.41 347.458 209.41 347.458Z" stroke="#FBE4C6" stroke-width="0.693108"/>
<path d="M212.06 344.653C212.06 344.653 212.06 344.653 212.06 344.654C212.06 344.653 212.06 344.653 212.06 344.653Z" stroke="#FBE4C6" stroke-width="0.693108"/>
<path d="M214.714 342.336C214.714 342.336 214.714 342.336 214.714 342.337C214.714 342.336 214.714 342.336 214.714 342.336Z" stroke="#FBE4C6" stroke-width="0.693108"/>
<path d="M212.205 351.973C212.206 351.973 212.206 351.974 212.206 351.974C212.206 351.974 212.205 351.973 212.205 351.973Z" stroke="#FBE4C6" stroke-width="0.693108"/>
<path d="M215.367 346.312C215.367 346.312 215.367 346.313 215.367 346.313C215.367 346.313 215.367 346.312 215.367 346.312Z" stroke="#FBE4C6" stroke-width="0.693108"/>
<path d="M218.505 347.954C218.505 347.954 218.505 347.955 218.505 347.956C218.505 347.955 218.505 347.954 218.505 347.954Z" stroke="#FBE4C6" stroke-width="0.693108"/>
<path d="M217.622 350.78C217.622 350.78 217.622 350.781 217.622 350.781C217.622 350.781 217.622 350.78 217.622 350.78Z" stroke="#FBE4C6" stroke-width="0.693108"/>
<path d="M214.079 349.069C214.079 349.069 214.079 349.069 214.079 349.07C214.079 349.069 214.079 349.069 214.079 349.069Z" stroke="#FBE4C6" stroke-width="0.693108"/>
<path d="M208.503 350.562C208.503 350.562 208.503 350.563 208.504 350.563C208.503 350.563 208.503 350.562 208.503 350.562Z" stroke="#FBE4C6" stroke-width="0.693108"/>
<path d="M206.746 340.809C205.274 341.256 204.255 343.79 203.93 345.001C204.522 344.537 204.73 344.521 204.922 344.297C205.114 344.073 205.226 345.529 205.834 345.273C206.442 345.017 205.29 343.641 206.993 344.022C208.697 344.402 208.682 344.217 208.875 343.993C209.067 343.769 208.139 342.585 209.595 342.473C211.051 342.361 210.795 341.753 210.123 341.177C209.585 340.716 210.806 340.078 211.483 339.817C210.619 339.465 208.587 340.249 206.746 340.809Z" fill="#4A7431"/>
<path d="M157.871 330.539C159.522 334.597 163.071 336.487 164.639 336.925L174.449 339.31C172.324 331.27 168.572 327.275 166.961 326.283C166.577 325.824 164.861 324.561 161.072 323.178C157.283 321.795 152.953 322.825 151.262 323.513C152.777 324.164 156.219 326.48 157.871 330.539Z" fill="#4A7431"/>
<path d="M174.297 319.58C177.405 322.669 179.283 331.459 179.2 333.085L178.495 340.255L176.463 338.318C169.514 333.751 167.804 328.691 167.375 326.849C167.062 326.339 166.408 324.311 166.3 320.278C166.192 316.246 168.544 312.468 169.733 311.083C169.869 312.726 170.062 315.372 174.297 319.58Z" fill="#4A7431"/>
<path d="M186.826 319.193C187.882 323.446 184.93 331.936 184.016 333.284L179.696 339.048L178.962 336.339C175.388 328.83 176.55 323.617 177.138 321.819C177.135 321.221 177.628 319.148 179.626 315.644C181.624 312.14 185.594 310.129 187.329 309.561C186.594 311.037 185.387 313.399 186.826 319.193Z" fill="#4A7431"/>
<path d="M165.322 316.166C168.837 318.782 169.777 322.691 169.808 324.319L169.659 334.414C162.408 330.342 159.481 325.708 158.924 323.9C158.576 323.413 157.783 321.436 157.393 317.421C157.004 313.406 159.086 309.473 160.176 308.008C160.427 309.638 161.807 313.551 165.322 316.166Z" fill="#4A7431"/>
<path d="M179.26 314.499C181.46 318.288 180.91 324.624 180.297 326.132L176.183 335.351C171.122 328.752 170.258 323.34 170.458 321.459C170.33 320.874 170.38 318.744 171.604 314.901C172.828 311.057 175.72 306.011 177.298 305.094C176.887 306.691 177.059 310.71 179.26 314.499Z" fill="#4A7431"/>
<path d="M179.728 331.789C175.606 334.784 170.265 335.724 168.11 335.82C163.197 337.244 163.837 337.404 161.356 345.965C158.874 354.527 162.362 361.792 170.971 367.618C177.858 372.279 188.265 368.452 192.607 365.956C195.664 363.977 201.698 357.892 201.379 349.378C200.98 338.736 191.701 334.335 191.154 333.422C190.674 332.621 184.882 328.044 179.728 331.789Z" fill="#F7D150"/>
<path d="M173.367 338.011L168.492 352.362" stroke="#4F2B2B" stroke-linecap="round"/>
<path d="M183.952 336.701L192.147 349.452" stroke="#4F2B2B" stroke-linecap="round"/>
<path d="M167.408 340.988L163.075 352.361" stroke="#4F2B2B" stroke-linecap="round"/>
<path d="M190.455 338.152L197.405 348.142" stroke="#4F2B2B" stroke-linecap="round"/>
<path d="M185.821 334.76L179.322 353.446" stroke="#4F2B2B" stroke-linecap="round"/>
<path d="M171.082 336.554L181.899 353.117" stroke="#4F2B2B" stroke-linecap="round"/>
<path d="M180.405 334.76L173.906 353.446" stroke="#4F2B2B" stroke-linecap="round"/>
<path d="M176.337 335.246L187.154 351.81" stroke="#4F2B2B" stroke-linecap="round"/>
<path d="M190.967 338.552L185.822 353.446" stroke="#4F2B2B" stroke-linecap="round"/>
<path d="M167.004 341.475L175.592 354.687" stroke="#4F2B2B" stroke-linecap="round"/>
<path d="M196.111 340.717L191.778 352.903" stroke="#4F2B2B" stroke-linecap="round"/>
<path d="M162.533 344.82L169.679 355.6" stroke="#4F2B2B" stroke-linecap="round"/>
<path d="M163.516 363.17L252.973 356.298L244.777 380.366L174.875 385.735L163.516 363.17Z" fill="#F5C07A"/>
<path d="M163.037 362.37L253.241 355.441L252.638 357.37L164.029 364.387L163.037 362.37Z" fill="#141414"/>
<rect x="158.845" y="356.832" width="98.0669" height="6.6769" rx="3.33845" transform="rotate(-4.39276 158.845 356.832)" fill="#F5C07A"/>
</g>
<defs>
<filter id="filter0_bf_761_7240" x="195.864" y="184.427" width="89.0918" height="44.8287" filterUnits="userSpaceOnUse" color-interpolation-filters="sRGB">
<feFlood flood-opacity="0" result="BackgroundImageFix"/>
<feGaussianBlur in="BackgroundImageFix" stdDeviation="2"/>
<feComposite in2="SourceAlpha" operator="in" result="effect1_backgroundBlur_761_7240"/>
<feBlend mode="normal" in="SourceGraphic" in2="effect1_backgroundBlur_761_7240" result="shape"/>
<feGaussianBlur stdDeviation="10" result="effect2_foregroundBlur_761_7240"/>
</filter>
<clipPath id="clip0_761_7240">
<rect width="460" height="460" fill="white"/>
</clipPath>
</defs>
</svg>
