<?xml version="1.0" encoding="utf-8"?>
<!-- Generator: Adobe Illustrator 28.1.0, SVG Export Plug-In . SVG Version: 6.00 Build 0)  -->
<svg version="1.1" id="Layer_1" xmlns="http://www.w3.org/2000/svg" xmlns:xlink="http://www.w3.org/1999/xlink" x="0px" y="0px"
	 viewBox="0 0 470 250" style="enable-background:new 0 0 470 250;" xml:space="preserve">
<style type="text/css">
	.st0{fill:#4F2B2B;}
	.st1{fill:#8FC6D7;}
	.st2{fill:#FFBE97;}
	.st3{fill:#FF9D6C;}
	.st4{fill:#3F97B1;}
	.st5{fill:#2B6577;}
	.st6{fill:#F5C07A;}
	.st7{fill:#FBE4C6;}
	.st8{fill:#357E94;}
</style>
<path class="st0" d="M216.6,90.2c-6.4-20,4-24,4-24l16.6,8.6L216.6,90.2L216.6,90.2z"/>
<path class="st1" d="M197.3,232.5l-17.5,9.2c-0.5,0.3-1,0.5-1.5,0.7c-13.6,6.2-29.6-0.6-35.6-14.3L127.5,193l13.2-9.6l57,15
	L197.3,232.5L197.3,232.5z"/>
<path class="st0" d="M285.6,110.1c0,0,8-9.1,8.3-20.8s-12-20.6-12-20.6S276.3,49,251.2,50c-25.1,1.1-27.5,16.3-41.4,12
	c0,0,8,9.3,14.4,11.2L285.6,110.1L285.6,110.1z"/>
<rect x="238.6" y="106.4" class="st2" width="34" height="36.3"/>
<path class="st2" d="M280.7,102.5c-0.5-0.1-0.9-0.2-1.4-0.3c3.6-12.7-1-28.4-17.2-36.5c-16.2-8.2-35.6-2.1-42.9,11.2
	s-2.3,31,13.6,39.7c13.4,7.3,30.3,5.8,39.6-2.7c0.9,1.3,2.2,2.3,3.9,2.8c3.9,1.2,8-1,9.2-4.9C286.8,107.8,284.6,103.7,280.7,102.5z"
	/>
<path class="st0" d="M280.9,111.5l-4.1-1.2c-0.7-0.2-1-0.9-0.8-1.6s0.9-1,1.5-0.8l4.1,1.2c0.7,0.2,1,0.9,0.8,1.6
	C282.2,111.4,281.5,111.7,280.9,111.5z"/>
<path class="st0" d="M229.8,91c-0.6-0.2-0.9-0.8-0.7-1.3l0.6-1.9c0.2-0.6,0.8-0.9,1.3-0.7c0.6,0.2,0.9,0.8,0.7,1.3l-0.6,1.9
	C230.9,90.8,230.3,91.1,229.8,91z"/>
<path class="st0" d="M253.4,99.5c-0.6-0.2-0.9-0.8-0.7-1.3l0.6-1.9c0.2-0.6,0.8-0.9,1.3-0.7c0.6,0.2,0.9,0.8,0.7,1.3l-0.6,1.9
	C254.5,99.3,253.9,99.6,253.4,99.5z"/>
<path class="st0" d="M266.4,96.7c0.1,0,0.2,0,0.3-0.1c0.4-0.2,0.6-0.6,0.4-1c-1.6-3.9-10.9-6.9-14.9-6.2c-0.4,0.1-0.7,0.5-0.6,0.9
	c0.1,0.4,0.5,0.7,0.9,0.6c3.7-0.7,12.1,2.3,13.2,5.2C265.8,96.5,266.1,96.7,266.4,96.7z"/>
<path class="st0" d="M236.7,85.2c0.1,0,0.3,0,0.4-0.1c0.4-0.2,0.5-0.7,0.3-1c-1.4-2.5-8.1-5.2-13.9-3.6c-0.4,0.1-0.6,0.5-0.5,0.9
	c0.1,0.4,0.5,0.6,0.9,0.5c5.2-1.4,11.1,1.1,12.2,2.9C236.2,85.1,236.5,85.2,236.7,85.2z"/>
<ellipse transform="matrix(0.3428 -0.9394 0.9394 0.3428 58.1845 274.0539)" class="st3" cx="225" cy="95.4" rx="2.8" ry="5.1"/>
<ellipse transform="matrix(0.3428 -0.9394 0.9394 0.3428 69.2631 314.8704)" class="st3" cx="259.7" cy="107.9" rx="2.8" ry="5.1"/>
<path class="st0" d="M239.1,96.9c0.2,0,0.3-0.1,0.5-0.2c1.4-1.1,2.4-3.1,2.6-5.3c0.2-2.4-0.6-4.8-2.2-6.5c-0.3-0.3-0.8-0.3-1.1,0
	s-0.3,0.8,0,1.1c1.3,1.4,1.9,3.3,1.8,5.3c-0.1,1.8-0.9,3.4-2,4.2c-0.3,0.2-0.4,0.7-0.1,1.1C238.6,96.8,238.8,96.9,239.1,96.9
	L239.1,96.9z"/>
<path class="st0" d="M242.5,107.7c3.2,0,6.7-0.8,9.7-2.9c0.3-0.2,0.4-0.7,0.2-1c-0.2-0.3-0.7-0.4-1-0.2c-5.8,4.1-14.1,2.8-17.1,0.2
	c-0.3-0.3-0.8-0.2-1.1,0.1s-0.2,0.8,0.1,1.1C235.2,106.5,238.7,107.7,242.5,107.7L242.5,107.7z"/>
<path class="st0" d="M260.5,68.7c0,0-24,9.9-37.9,3.2l8-11.5l24.3-2.4L260.5,68.7L260.5,68.7z"/>
<path class="st0" d="M282.9,97.8c-30.5-12.6-31-28-31-28l0.3-10.2l24.6,13.6L282.9,97.8z"/>
<path class="st4" d="M219.6,137.7l5.3-1.5l18.5,0.1l3.9,5.9l8.9-5.9l30.1,0.1c0,0,2.9,0.6,7.2,1.6l-49.7,36.6L219.6,137.7
	L219.6,137.7z"/>
<polygon class="st5" points="254.5,143.9 239.6,140.2 239.9,154.8 251.9,156.5 "/>
<polygon class="st5" points="251.9,156.5 254.5,196.1 230.6,192.1 239.9,154.8 "/>
<path class="st1" d="M164.2,213.3l8.6-32.3c1.7-18.7,14.8-34.4,32.9-39.4l14-3.9l24.3,37.1l49.7-36.6c9.4,2.3,25.7,6.8,33.9,12.5
	c12,8.2,27.5,98.6,27.5,98.6L197,249.6l1-30L164.2,213.3L164.2,213.3z"/>
<path class="st0" d="M197.1,250L197.1,250c0.4,0,0.8-0.3,0.8-0.8l-0.1-65.5c0-0.4-0.3-0.8-0.8-0.8l0,0c-0.4,0-0.8,0.3-0.8,0.8
	l0.1,65.5C196.4,249.7,196.7,250,197.1,250z"/>
<path class="st0" d="M300.5,250C300.5,250,300.5,250,300.5,250c0.5,0,0.8-0.4,0.8-0.8l-4.1-49.2c0-0.4-0.4-0.7-0.8-0.7
	c-0.4,0-0.7,0.4-0.7,0.8l4.1,49.2C299.8,249.7,300.1,250,300.5,250L300.5,250z"/>
<polygon class="st4" points="286.4,136.5 273.2,124.2 247.3,142.5 258.2,156.8 "/>
<polygon class="st4" points="225,136.2 238.2,125.9 247.6,142.5 234.9,152.8 "/>
<circle class="st5" cx="273.2" cy="198.3" r="9.5"/>
<rect x="144" y="114.5" transform="matrix(0.9555 -0.2949 0.2949 0.9555 -39.3773 60.2602)" class="st6" width="72.1" height="92.4"/>
<path class="st6" d="M200.4,106.8L133,127.7l26.8,86.9l67.5-20.8L200.4,106.8L200.4,106.8z M158.9,216.1c-0.2-0.1-0.3-0.2-0.4-0.4
	l-27.2-88.3c-0.1-0.2,0-0.4,0.1-0.6s0.2-0.3,0.4-0.4l68.9-21.3c0.4-0.1,0.8,0.1,0.9,0.5l27.2,88.3c0.1,0.4-0.1,0.8-0.5,0.9
	l-68.9,21.3c-0.1,0-0.1,0-0.2,0C159.2,216.2,159,216.2,158.9,216.1L158.9,216.1z"/>
<rect x="156.9" y="128.2" transform="matrix(0.9555 -0.2949 0.2949 0.9555 -37.4386 59.3265)" class="st7" width="42.2" height="51.3"/>
<rect x="161.3" y="200" transform="matrix(0.9555 -0.2949 0.2949 0.9555 -52.1507 59.0777)" class="st7" width="17.1" height="4.8"/>
<rect x="195.3" y="104.6" transform="matrix(0.9555 -0.2949 0.2949 0.9555 -26.5315 63.7981)" class="st8" width="5.9" height="30.4"/>
<path class="st2" d="M121.1,153.6c1.6-2.5,3.8-4.6,6.4-6l16.8-9c1.2-0.6,2.5-0.8,3.8-0.4c1.3,0.4,2.3,1.2,2.9,2.4
	c0.7,1.2,1.9,4.3-1.3,6l-8.9,5c-0.4,0.2-0.5,0.7-0.3,1c0.2,0.4,0.7,0.5,1,0.3l8.9-5c0.2-0.1,0.3-0.2,0.5-0.3c0.1,0,0.1,0,0.2-0.1
	c1.3-0.7,3-0.9,4.6-0.4c1.6,0.4,2.9,1.4,3.6,2.7c0.7,1.3,0.9,2.8,0.4,4.2c-0.4,1.4-1.4,2.6-2.7,3.3l-12.9,6.4
	c-0.4,0.2-0.5,0.6-0.3,1c0.2,0.4,0.6,0.5,1,0.3l12.9-6.4c2.7-1.5,6.1-0.4,7.6,2.3c0.8,1.4,0.8,2.9,0.3,4.3c-0.6,1.6-2.1,3-4.2,4.2
	c-0.1,0-0.1,0.1-0.2,0.2c-0.3,0.1-0.5,0.2-0.8,0.3l-8.9,4.6c-0.4,0.2-0.5,0.6-0.3,1s0.6,0.5,1,0.3l8.9-4.6c2.3-1.2,5.2-0.4,6.5,2
	c0.6,1.1,0.7,2.4,0.4,3.6s-1.2,2.2-2.3,2.8l-16.3,8.7c-0.4,0.2-0.5,0.6-0.3,1c0.1,0.2,0.4,0.4,0.7,0.4c0.1,0,0.2,0,0.4-0.1l1.6-0.8
	c0.2,1.1,0.6,3.7-0.1,6.2c-0.2,0.7-0.7,1.4-1.6,2.2c-2.9,2.8-7.3,3.8-11.4,2.6l-2.7-0.8c-3.4-1-6.2-3.4-7.6-6.6l-10.6-23.1
	c-1.7-3.7-1.4-8,0.7-11.5L121.1,153.6z"/>
<path class="st2" d="M118.3,158.1l2.8-4.4c1.6-2.5,3.8-4.6,6.4-6l16.8-9c1.2-0.6,2.5-0.8,3.8-0.4c1.3,0.4,2.3,1.2,2.9,2.4
	c0.7,1.2,1.9,4.3-1.3,6l-8.9,5c-0.4,0.2-0.5,0.7-0.3,1c0.2,0.4,0.7,0.5,1,0.3l8.9-5c0.2-0.1,0.3-0.2,0.5-0.3c0.1,0,0.1,0,0.2-0.1
	c1.3-0.7,3-0.9,4.6-0.4c1.6,0.4,2.9,1.4,3.6,2.7c0.7,1.3,0.9,2.8,0.4,4.2c-0.4,1.4-1.4,2.6-2.7,3.3l-12.9,6.4
	c-0.4,0.2-0.5,0.6-0.3,1c0.2,0.4,0.6,0.5,1,0.3l12.9-6.4c2.7-1.5,6.1-0.4,7.6,2.3c0.8,1.4,0.8,2.9,0.3,4.3c-0.6,1.6-2.1,3-4.2,4.2
	c-0.1,0-0.1,0.1-0.2,0.2c-0.3,0.1-0.5,0.2-0.8,0.3l-8.9,4.6c-0.4,0.2-0.5,0.6-0.3,1s0.6,0.5,1,0.3l8.9-4.6c2.3-1.2,5.2-0.4,6.5,2
	c0.6,1.1,0.7,2.4,0.4,3.6s-1.2,2.2-2.3,2.8l-16.3,8.7c-0.4,0.2-0.5,0.6-0.3,1c0.1,0.2,0.4,0.4,0.7,0.4c0.1,0,0.2,0,0.4-0.1l1.6-0.8
	c0.2,1.1,0.6,3.7-0.1,6.2c-0.2,0.7-0.7,1.4-1.6,2.2c-2.9,2.8-7.3,3.8-11.4,2.6l-2.7-0.8c-3.4-1-6.2-3.4-7.6-6.6l-10.6-23.1
	C115.9,165.9,116.2,161.6,118.3,158.1z M117.1,157.3c-2.4,3.9-2.8,8.7-0.8,12.9l10.6,23.1c1.6,3.6,4.8,6.3,8.6,7.4l2.7,0.8
	c1.3,0.4,2.6,0.6,3.9,0.6c3.4,0,6.6-1.2,9-3.5c1.1-1,1.7-2,2-2.9c0.9-3.2,0.3-6.5,0.1-7.3l13.4-7.1c1.5-0.8,2.6-2.1,3.1-3.7
	c0.5-1.6,0.3-3.3-0.5-4.8c-1-1.8-2.7-2.9-4.6-3.2c1.2-1,2.2-2.2,2.7-3.4c0.7-1.8,0.6-3.8-0.4-5.5c-0.9-1.7-2.4-2.9-4.2-3.4
	c-0.8-0.2-1.5-0.3-2.3-0.3c1.5-2.1,1.8-5,0.5-7.4c-0.9-1.6-2.5-2.9-4.5-3.4c-1.1-0.3-2.2-0.4-3.2-0.2c0.7-1.6,0.6-3.5-0.5-5.6
	c-0.8-1.5-2.2-2.6-3.8-3.1c-1.6-0.5-3.4-0.3-4.9,0.5l-16.8,9c-2.9,1.5-5.3,3.8-7,6.5L117.1,157.3L117.1,157.3z"/>
<path class="st0" d="M153,145.1l-12.3,6.6l0.7,1.3l12.3-6.6L153,145.1z M140.7,151.8c-0.4,0.2-0.5,0.6-0.3,1c0.2,0.4,0.6,0.5,1,0.3
	L140.7,151.8z M153.7,146.4c0.4-0.2,0.5-0.6,0.3-1s-0.6-0.5-1-0.3L153.7,146.4z"/>
<path class="st0" d="M160.1,156l-15.2,8.1l0.7,1.3l15.2-8.1L160.1,156z M145,164.1c-0.4,0.2-0.5,0.6-0.3,1s0.6,0.5,1,0.3L145,164.1z
	 M160.8,157.3c0.4-0.2,0.5-0.6,0.3-1c-0.2-0.4-0.6-0.5-1-0.3L160.8,157.3z"/>
<path class="st0" d="M164.4,168.3l-12.3,6.2l0.7,1.3l12.3-6.2L164.4,168.3z M152.1,174.5c-0.4,0.2-0.5,0.6-0.3,1s0.6,0.5,1,0.3
	L152.1,174.5z M165.1,169.7c0.4-0.2,0.5-0.6,0.3-1s-0.6-0.5-1-0.3L165.1,169.7z"/>
</svg>
