<svg width="470" height="251" viewBox="0 0 470 251" fill="none" xmlns="http://www.w3.org/2000/svg">
<path d="M249.304 112.937H221.653V132.996H249.304V112.937Z" fill="#FFBE97"/>
<path d="M228.564 121.311C238.294 122.662 244.074 117.43 249.339 117.055V119.685C246.709 122.388 234.613 125.636 228.564 121.311Z" fill="#4F2B2B"/>
<path d="M317.262 168.973C315.246 153.921 304.536 141.476 289.954 137.238L249.431 127.093L236.536 132.726L221.491 127.093L195.536 132.726L180.01 137.238C165.426 141.476 154.716 153.921 152.7 168.973L142.934 241.864H327.028L317.262 168.973Z" fill="#2B6577"/>
<path d="M223.59 52.9116C223.59 52.9116 230.922 46.3284 250.457 53.0393C276.315 61.9233 270.263 93.0148 270.263 93.0148L203.966 105.389C203.966 105.389 189.385 79.3722 202.59 62.5577C211.473 51.2452 223.59 52.9116 223.59 52.9116Z" fill="#4F2B2B"/>
<path d="M270.474 91.9608C269.896 90.8949 269.098 90.0023 268.151 89.3581C267.017 88.5858 265.672 88.1718 264.247 88.2507C263.791 88.2766 263.354 88.3684 262.931 88.4888C262.866 88.5069 262.799 88.5185 262.736 88.5379C261.001 75.5927 252.07 63.1624 236.322 61.006C219.519 58.7059 204.315 71.6032 202.157 87.2624C202.125 87.5004 202.104 87.7385 202.075 87.9752C202.036 87.9752 201.996 87.9687 201.957 87.9687C197.936 87.9687 194.676 91.6296 194.676 96.1469C194.676 100.664 197.935 104.325 201.957 104.325C202.812 104.325 203.631 104.151 204.394 103.845C204.396 103.849 204.397 103.853 204.399 103.857C205.1 105.493 205.939 107.064 206.908 108.553C206.938 108.599 206.968 108.646 206.998 108.691C207.311 109.166 207.635 109.632 207.973 110.088C207.979 110.096 207.986 110.105 207.992 110.114C208.694 111.058 209.453 111.961 210.265 112.819C210.317 112.875 210.371 112.928 210.423 112.982C210.767 113.339 211.12 113.69 211.482 114.03C211.561 114.104 211.637 114.176 211.716 114.248C212.103 114.605 212.499 114.953 212.907 115.29C212.94 115.318 212.974 115.348 213.007 115.376C213.464 115.75 213.934 116.113 214.416 116.461C214.454 116.489 214.495 116.514 214.532 116.541C214.952 116.84 215.38 117.128 215.818 117.406C215.944 117.486 216.072 117.564 216.199 117.642C216.569 117.869 216.945 118.089 217.327 118.301C217.463 118.378 217.598 118.454 217.735 118.528C218.189 118.77 218.649 119.001 219.119 119.221C219.176 119.248 219.231 119.277 219.287 119.304C219.817 119.547 220.357 119.773 220.908 119.988C221.045 120.041 221.184 120.088 221.322 120.14C221.736 120.293 222.153 120.44 222.577 120.575C222.762 120.635 222.947 120.692 223.134 120.748C223.541 120.869 223.953 120.983 224.37 121.088C224.545 121.133 224.72 121.181 224.897 121.222C225.486 121.361 226.079 121.487 226.685 121.592C241.549 124.177 256.748 115.737 261.469 102.841C261.562 102.896 261.664 102.936 261.759 102.985C262.723 103.483 263.789 103.768 264.923 103.706C268.722 103.496 271.651 99.8648 271.465 95.5971C271.406 94.2634 271.05 93.0254 270.472 91.9595L270.474 91.9608Z" fill="#FFBE97"/>
<path d="M221.1 109.154C221.188 107.729 219.111 106.442 216.461 106.279C213.812 106.116 211.593 107.139 211.505 108.564C211.417 109.988 213.494 111.275 216.144 111.438C218.793 111.601 221.012 110.579 221.1 109.154Z" fill="#FF9D6C"/>
<path d="M255.644 110.066C255.732 108.642 253.655 107.355 251.005 107.192C248.355 107.029 246.136 108.051 246.049 109.476C245.961 110.901 248.038 112.188 250.688 112.351C253.337 112.514 255.556 111.491 255.644 110.066Z" fill="#FF9D6C"/>
<path d="M220.367 102.092C219.811 102.099 219.355 101.654 219.349 101.098L219.327 99.2772C219.32 98.7211 219.766 98.2654 220.322 98.2596C220.878 98.2527 221.334 98.698 221.339 99.2542L221.361 101.075C221.368 101.631 220.923 102.087 220.367 102.092Z" fill="#4F2B2B"/>
<path d="M245.123 102.511C244.567 102.518 244.111 102.073 244.105 101.517L244.083 99.6962C244.076 99.1401 244.522 98.6843 245.078 98.6785C245.634 98.6716 246.09 99.117 246.095 99.6731L246.117 101.494C246.124 102.05 245.679 102.506 245.123 102.511Z" fill="#4F2B2B"/>
<path d="M231.753 106.47C231.62 106.47 231.485 106.43 231.369 106.345C231.076 106.133 231.01 105.723 231.223 105.43C231.993 104.367 232.262 102.685 231.922 101.045C231.536 99.1722 230.461 97.6273 228.895 96.695C228.583 96.5093 228.482 96.1078 228.668 95.7963C228.853 95.4847 229.255 95.3832 229.566 95.569C231.452 96.6916 232.746 98.5423 233.208 100.781C233.624 102.802 233.279 104.827 232.286 106.2C232.158 106.378 231.957 106.471 231.755 106.471L231.753 106.47Z" fill="#4F2B2B"/>
<path d="M241.507 95.7469C241.311 95.7469 241.114 95.658 240.988 95.4896C240.767 95.2023 240.821 94.7915 241.109 94.5712C244.014 92.3409 248.414 92.3248 251.343 94.5262C251.632 94.7442 251.69 95.155 251.472 95.4446C251.252 95.7365 250.841 95.7919 250.554 95.5738C248.079 93.7116 244.361 93.7312 241.905 95.6107C241.787 95.703 241.646 95.7469 241.507 95.7469Z" fill="#4F2B2B"/>
<path d="M215.085 95.7469C214.888 95.7469 214.693 95.658 214.564 95.4896C214.343 95.2023 214.398 94.7915 214.685 94.5712C217.591 92.3409 221.992 92.3248 224.919 94.5262C225.208 94.7442 225.266 95.155 225.048 95.4446C224.83 95.7342 224.42 95.7919 224.13 95.5738C221.656 93.7116 217.938 93.7301 215.482 95.6107C215.363 95.703 215.222 95.7469 215.084 95.7469H215.085Z" fill="#4F2B2B"/>
<path d="M232.274 115.423C231.975 115.423 231.678 115.413 231.382 115.392C231.019 115.367 230.748 115.054 230.773 114.693C230.798 114.332 231.114 114.055 231.472 114.084C234.791 114.321 238.209 113.112 240.651 110.876C240.918 110.63 241.332 110.65 241.577 110.915C241.821 111.182 241.803 111.596 241.537 111.841C239.055 114.117 235.648 115.422 232.274 115.422V115.423Z" fill="#4F2B2B"/>
<path d="M267.913 98.8053L264.206 98.9572C263.609 98.9813 263.101 98.5981 263.072 98.0996C263.043 97.6012 263.502 97.1778 264.1 97.1537L267.807 97.0018C268.405 96.9777 268.913 97.3609 268.942 97.8594C268.971 98.3569 268.511 98.7812 267.913 98.8053Z" fill="#FF9D6C"/>
<path d="M201.529 98.8053L198.439 98.9572C197.942 98.9813 197.518 98.5981 197.494 98.0996C197.47 97.6012 197.853 97.1778 198.351 97.1537L201.44 97.0018C201.938 96.9777 202.361 97.3609 202.385 97.8594C202.41 98.3569 202.027 98.7812 201.529 98.8053Z" fill="#FF9D6C"/>
<path d="M219.68 67.0955C219.68 67.0955 218.403 76.9626 202.242 92.8869L201.82 81.677L206.582 69.6692L215.794 63.1206L219.68 67.0955Z" fill="#4F2B2B"/>
<path d="M213.429 65.2039L225.336 60.1437L241.624 59.5483L261.303 75.2843L265.52 92.8866C256.852 91.2863 246.31 85.4184 246.31 85.4184L250.996 90.4855C238.528 89.3936 228.267 89.0867 219.603 77.9502C218.047 75.9508 213.925 70.0009 214.62 67.2876" fill="#4F2B2B"/>
<path d="M261.884 92.2912C261.848 92.2912 261.813 92.2885 261.777 92.2806C257.103 91.4211 253.061 89.7482 250.266 88.3478L251.727 89.9241C251.93 90.1423 251.99 90.4835 251.877 90.7731C251.762 91.064 251.497 91.2663 251.221 91.2161L249.296 91.0521C237.667 90.0656 227.624 89.214 219.174 78.3809C217.625 76.3946 214.234 70.3618 215.039 67.2317C215.141 66.8337 215.509 66.6062 215.86 66.7226C216.21 66.8389 216.412 67.2555 216.309 67.6549C215.735 69.8871 218.479 75.2243 220.166 77.3877C228.257 87.762 237.585 88.5541 249.394 89.5551L249.468 89.5604L246.098 85.9265C245.853 85.662 245.823 85.2309 246.028 84.9254C246.233 84.6199 246.608 84.5419 246.898 84.739C246.962 84.7839 253.502 89.2364 261.988 90.7982C262.349 90.8643 262.594 91.2505 262.534 91.6591C262.483 92.0267 262.201 92.2899 261.883 92.2899L261.884 92.2912Z" fill="#4F2B2B"/>
<path d="M204.258 91.1005C203.999 91.1005 203.754 90.9193 203.652 90.6222C203.521 90.2331 203.685 89.7934 204.02 89.6402C211.332 86.2891 216.596 72.6384 216.649 72.5011C216.796 72.1201 217.181 71.9455 217.507 72.1147C217.836 72.2826 217.984 72.7316 217.839 73.1127C217.617 73.6963 212.308 87.4683 204.496 91.0472C204.418 91.0845 204.337 91.1005 204.258 91.1005Z" fill="#4F2B2B"/>
<path d="M183.694 236.505C183.364 236.505 183.08 236.257 183.043 235.921L177.436 184.835C177.396 184.475 177.656 184.152 178.016 184.111C178.375 184.073 178.699 184.332 178.739 184.692L184.347 235.778C184.386 236.138 184.126 236.461 183.766 236.501C183.742 236.503 183.718 236.505 183.694 236.505Z" fill="#4F2B2B"/>
<path d="M171.591 103.287L166.203 106.092L163.398 100.705L156.768 104.157L159.573 109.544L154.186 112.35L157.638 118.981L163.025 116.175L165.831 121.563L172.461 118.111L169.657 112.723L175.044 109.918L171.591 103.287Z" fill="#B06D6D"/>
<path d="M308.716 90.0814L287.072 93.7927L288.335 101.161L309.979 97.4492L308.716 90.0814Z" fill="#DF8711"/>
<path d="M300.073 87.1386C301.24 85.2814 300.68 82.83 298.823 81.6632C296.966 80.4963 294.514 81.056 293.348 82.9132C292.181 84.7703 292.74 87.2218 294.598 88.3886C296.455 89.5554 298.906 88.9957 300.073 87.1386Z" fill="#DF8711"/>
<path d="M302.58 109.499C304.393 108.264 304.861 105.793 303.626 103.981C302.391 102.168 299.92 101.7 298.108 102.935C296.295 104.17 295.827 106.641 297.062 108.453C298.297 110.266 300.767 110.734 302.58 109.499Z" fill="#DF8711"/>
<path d="M288.871 229.654C288.848 229.654 288.824 229.653 288.801 229.651C288.441 229.613 288.18 229.29 288.218 228.93L292.891 184.696C292.929 184.336 293.251 184.075 293.612 184.113C293.972 184.151 294.233 184.474 294.195 184.834L289.522 229.068C289.486 229.405 289.202 229.654 288.871 229.654Z" fill="#4F2B2B"/>
<path d="M289.249 199.414L278.724 203.364C278.387 203.488 278.007 203.319 277.879 202.98C277.752 202.64 277.924 202.262 278.263 202.135L288.788 198.186C289.261 198.008 289.739 197.859 290.219 197.719L280.671 196.078C276.084 195.307 271.574 197.114 269.165 200.726C268.62 201.545 268.181 202.429 267.861 203.356L264.533 212.969L266.81 210.702C267.068 210.447 267.481 210.447 267.737 210.704C267.992 210.961 267.992 211.376 267.735 211.632L257.303 222.02C256.522 223.238 256.414 224.742 257.017 226.06C257.515 227.152 258.42 227.958 259.562 228.326C260.705 228.697 261.907 228.573 262.953 227.979L271.154 221.878C271.183 221.858 271.216 221.851 271.246 221.835C271.528 221.439 271.845 221.062 272.233 220.734L278.839 215.173C279.116 214.941 279.533 214.979 279.763 215.252C279.995 215.529 279.959 215.943 279.684 216.176L273.077 221.738C271.14 223.368 270.888 226.272 272.52 228.21C273.309 229.148 274.426 229.715 275.642 229.828C276.864 229.934 278.053 229.556 278.991 228.767C279.085 228.689 279.193 228.651 279.304 228.633C279.333 228.607 279.353 228.576 279.383 228.552L284.691 224.785C284.987 224.576 285.396 224.644 285.605 224.941C285.814 225.237 285.461 224.901 285.165 225.11L282.486 227.194L279.684 229.575C277.789 231.173 278.04 234.089 279.671 236.027C281.491 238.191 284.003 238.033 287.137 235.578C287.317 235.363 287.52 235.161 287.744 234.977L291.631 231.784C291.91 231.553 292.326 231.594 292.553 231.875C292.783 232.154 292.743 232.567 292.462 232.797L288.575 235.99C288.461 236.084 288.365 236.191 288.267 236.296C288.226 236.372 288.17 236.441 288.098 236.499C288.09 236.506 288.082 236.511 288.074 236.518C287.241 237.592 287.142 239.099 287.908 240.284C288.384 241.022 289.123 241.525 289.982 241.704C290.853 241.886 291.721 241.713 292.456 241.226L297.995 237.538C297.995 237.538 297.995 237.538 297.998 237.536L305.967 232.294C314.399 226.749 316.841 215.313 311.414 206.805C306.73 199.459 297.408 196.349 289.246 199.411L289.249 199.414Z" fill="#FFBE97"/>
<path d="M267.221 205.211C266.169 207.526 264.855 212.662 264.329 214.941L264.592 215.467L291.152 199.426C291.853 199.251 292.624 198.69 290.1 197.848C286.944 196.796 268.536 202.319 267.221 205.211Z" fill="#FFBE97"/>
<path d="M137.521 229.31H218.899C226.979 229.31 233.54 235.87 233.54 243.95H137.521V229.31Z" fill="#FBE4C6"/>
<path d="M329.559 243.949H233.54C233.54 235.869 240.101 229.308 248.181 229.308H329.559V243.949Z" fill="#FBE4C6"/>
<path d="M332.129 242.549H134.952C132.888 242.549 131.214 244.222 131.214 246.286C131.214 248.351 132.888 250.024 134.952 250.024H332.129C334.193 250.024 335.867 248.351 335.867 246.286C335.867 244.222 334.193 242.549 332.129 242.549Z" fill="#4F2B2B"/>
<path d="M145.011 219.712L148.154 230.374C148.854 232.747 151.326 234.195 153.778 233.67C156.232 233.146 157.875 230.815 157.504 228.371C157.488 228.261 157.502 228.158 157.531 228.06C157.469 227.828 157.392 227.602 157.356 227.359L155.898 217.46C155.892 217.434 155.875 217.413 155.872 217.385C155.676 216.077 154.963 214.94 153.857 214.187C152.752 213.434 151.422 213.174 150.109 213.454L148.598 213.777C147.284 214.058 146.183 214.84 145.496 215.976C144.809 217.113 144.635 218.44 145.011 219.71V219.712Z" fill="#FFBE97"/>
<path d="M155.344 217.302L156.962 228.288C157.323 230.734 159.568 232.504 162.071 232.318C164.574 232.132 166.521 230.049 166.503 227.578L166.425 216.476C166.425 216.43 166.425 216.382 166.423 216.335C166.377 215.066 165.832 213.899 164.878 213.034C163.889 212.138 162.607 211.7 161.267 211.8L159.725 211.914C158.384 212.015 157.184 212.638 156.344 213.672C155.504 214.704 155.149 215.993 155.342 217.302H155.344Z" fill="#FFBE97"/>
<path d="M140.28 232.056C140.28 232.056 140.28 232.056 140.28 232.057L140.318 232.151C141.19 234.282 143.612 235.394 145.83 234.684C148.048 233.974 149.347 231.672 148.775 229.443C148.768 229.412 148.775 229.382 148.771 229.349L146.047 220.108C145.995 219.932 145.96 219.752 145.925 219.572C145.583 218.249 144.745 217.137 143.62 216.525C142.641 215.992 141.564 215.89 140.501 216.231L139.121 216.672C137.932 217.053 136.989 217.875 136.462 218.99C135.933 220.104 135.9 221.345 136.365 222.486L140.278 232.054L140.28 232.056Z" fill="#FFBE97"/>
<path d="M140.969 232.572C140.969 232.572 140.969 232.569 140.969 232.568L137.642 224.436C137.593 224.378 137.547 224.319 137.519 224.246C137.172 223.36 136.551 222.717 135.723 222.388C134.84 222.038 133.824 222.089 132.857 222.534L131.762 223.038C130.851 223.458 130.177 224.207 129.865 225.15C129.555 226.094 129.652 227.091 130.138 227.958L134.41 235.556C135.319 237.178 137.369 237.834 139.073 237.049C140.81 236.251 141.643 234.284 140.971 232.57L140.969 232.572Z" fill="#FFBE97"/>
<path d="M128.97 224.939L131.138 229.873C134.693 225.587 156.238 221.441 166.696 220.052L166.339 215.168C166.232 213.711 165.621 212.311 164.491 211.385C152.373 201.455 134.872 208.442 128.938 220.509C128.255 221.9 128.347 223.52 128.97 224.939Z" fill="#FFBE97"/>
<path d="M141.596 234.641L137.412 225.115" stroke="#4F2B2B" stroke-width="1.21648" stroke-linecap="round"/>
<path d="M148.917 232.259L146.825 222.139" stroke="#4F2B2B" stroke-width="1.21648" stroke-linecap="round"/>
<path d="M157.807 230.473L156.238 220.352" stroke="#4F2B2B" stroke-width="1.21648" stroke-linecap="round"/>
<path d="M282.189 213.204L270.645 223.017C270.404 223.221 270.147 223.407 269.877 223.572L264.925 226.599" stroke="#4F2B2B" stroke-width="1.21648" stroke-linecap="round"/>
<path d="M279.808 228.682L289.928 221.538" stroke="#4F2B2B" stroke-width="1.21648" stroke-linecap="round"/>
<path d="M295.287 229.277L301.24 225.11" stroke="#4F2B2B" stroke-width="1.21648" stroke-linecap="round"/>
</svg>
