<svg width="700" height="400" viewBox="0 0 700 400" fill="none" xmlns="http://www.w3.org/2000/svg">
<mask id="mask0_580_18268" style="mask-type:alpha" maskUnits="userSpaceOnUse" x="0" y="0" width="700" height="400">
<rect width="700" height="400" transform="matrix(-1 0 0 1 700 0)" fill="white"/>
</mask>
<g mask="url(#mask0_580_18268)">
<path d="M89.535 158.215C90.5063 158.861 91.7433 158.79 92.6288 158.131L134.257 204.537C134.16 204.641 134.069 204.754 133.987 204.875C133.165 206.115 133.503 207.785 134.741 208.608C135.979 209.431 137.65 209.093 138.474 207.854C138.605 207.656 138.704 207.447 138.778 207.232L172.456 215.305C172.314 216.302 172.735 217.337 173.63 217.93C174.868 218.754 176.54 218.415 177.363 217.177C177.726 216.628 177.862 215.996 177.796 215.389L215.054 207.716C215.231 208.293 215.599 208.815 216.14 209.176C216.729 209.566 217.412 209.691 218.056 209.589L240.446 296.654C239.918 296.841 239.444 297.195 239.109 297.696C238.285 298.934 238.624 300.606 239.862 301.429C241.101 302.253 242.772 301.914 243.596 300.676C243.834 300.314 243.972 299.917 244.021 299.516L352.653 302.79C352.022 303.996 352.393 305.509 353.551 306.279C354.789 307.102 356.461 306.764 357.284 305.525C357.359 305.412 357.421 305.296 357.476 305.176L395.083 318.682C394.805 319.763 395.218 320.946 396.199 321.597C396.693 321.925 397.255 322.065 397.806 322.041L404.642 372.119L403.997 371.9L404.71 372.602L404.751 372.904L404.912 372.8L465.944 432.926C465.889 432.995 465.835 433.066 465.784 433.141C464.961 434.379 465.3 436.051 466.538 436.874C467.776 437.697 469.448 437.359 470.271 436.12C471.094 434.882 470.755 433.211 469.517 432.387C469.057 432.081 468.535 431.937 468.02 431.94L464.356 393.607C464.401 393.551 464.445 393.493 464.487 393.43C464.693 393.122 464.824 392.785 464.89 392.441L529.941 398.63C529.94 399.505 530.361 400.36 531.144 400.88C532.382 401.704 534.053 401.365 534.877 400.127C535.7 398.889 535.361 397.217 534.123 396.394C533.634 396.068 533.074 395.927 532.529 395.95L526.586 351.028C527.235 350.88 527.834 350.495 528.232 349.894C528.767 349.089 528.808 348.103 528.437 347.286L556.422 331.22C556.609 331.487 556.846 331.725 557.133 331.915C558.371 332.738 560.043 332.399 560.866 331.161C561.69 329.923 561.351 328.252 560.113 327.428C559.36 326.93 558.449 326.86 557.665 327.157L541.906 295.038C542.232 294.841 542.521 294.572 542.747 294.232C543.485 293.12 543.287 291.662 542.343 290.778L566.032 262.854C567.269 263.654 568.921 263.313 569.738 262.083C570.561 260.845 570.222 259.173 568.984 258.35C568.768 258.207 568.539 258.1 568.302 258.026L573.351 231.042C574.305 231.13 575.276 230.705 575.842 229.85C575.99 229.628 576.098 229.391 576.171 229.149L617.031 237.65C616.923 238.621 617.345 239.618 618.216 240.195C619.454 241.018 621.125 240.679 621.949 239.441C622.772 238.203 622.433 236.532 621.195 235.708C621.104 235.648 621.011 235.597 620.916 235.548L643.414 178.251C644.514 178.57 645.74 178.157 646.406 177.154C647.229 175.916 646.89 174.244 645.652 173.421C644.414 172.598 642.743 172.936 641.919 174.175C641.684 174.528 641.547 174.918 641.496 175.312L551.469 171.789C551.385 171.023 550.975 170.299 550.283 169.84C549.045 169.016 547.374 169.355 546.55 170.593C545.727 171.832 546.066 173.503 547.304 174.326C547.427 174.407 547.556 174.474 547.687 174.535L539.031 205.019C537.984 204.799 536.859 205.216 536.232 206.162C536.028 206.469 535.896 206.804 535.83 207.145L461.061 202.203C461.039 201.357 460.619 200.535 459.861 200.03C458.623 199.207 456.952 199.546 456.128 200.784C455.305 202.022 455.644 203.693 456.882 204.517C457.166 204.706 457.475 204.83 457.787 204.9L453.434 239.284C452.533 239.253 451.636 239.675 451.101 240.484L451.223 240.268L374.466 196.976C374.996 195.795 374.613 194.373 373.501 193.634C372.927 193.253 372.261 193.125 371.629 193.215L363.06 157.379C363.605 157.194 364.096 156.838 364.438 156.32C365.26 155.08 364.922 153.411 363.684 152.587C362.446 151.764 360.774 152.103 359.951 153.341C359.63 153.823 359.487 154.373 359.506 154.912L304.274 161.715C304.13 161.054 303.743 160.449 303.135 160.045C301.897 159.222 300.226 159.561 299.402 160.799C299.06 161.315 298.92 161.905 298.964 162.478L265.34 168.005C265.179 167.386 264.8 166.823 264.227 166.441C262.989 165.618 261.317 165.957 260.494 167.195C260.406 167.326 260.336 167.463 260.274 167.601L200.644 148.976C200.843 147.941 200.42 146.844 199.489 146.225C198.787 145.76 197.947 145.666 197.2 145.898L180.037 106.608C180.422 106.405 180.764 106.104 181.024 105.716C181.847 104.478 181.508 102.807 180.27 101.983C179.03 101.161 177.361 101.499 176.537 102.737C176.532 102.747 176.527 102.757 176.52 102.764L145.968 90.3537L129.818 83.7935C130.031 82.7493 129.614 81.6334 128.671 81.0067C127.433 80.1833 125.762 80.5222 124.938 81.7603C124.299 82.7239 124.362 83.9452 125.002 84.8291L99.1366 113.207C99.1065 113.185 99.0769 113.161 99.0433 113.138C97.8052 112.315 96.1337 112.654 95.3103 113.892C94.4869 115.13 94.8258 116.802 96.0639 117.625C96.358 117.82 96.6761 117.949 97.0018 118.015L91.2126 153.287C90.2781 153.222 89.336 153.645 88.7814 154.482C87.958 155.721 88.2969 157.392 89.535 158.215ZM127.174 85.9422C128.049 85.9429 128.905 85.5226 129.425 84.7397C129.525 84.5878 129.606 84.4307 129.673 84.2713L147.985 91.7089L176.289 103.205C176.189 103.448 176.128 103.7 176.103 103.955L126.055 110.924L127.176 85.9442L127.174 85.9422ZM302.826 164.708L316.038 186.456L286.475 206.905C286.313 206.712 286.122 206.535 285.902 206.389C285.798 206.319 285.689 206.263 285.578 206.209L300.946 164.889C301.578 165.06 302.247 164.992 302.826 164.708ZM360.135 156.559C360.297 156.752 360.487 156.929 360.708 157.075C360.838 157.16 360.968 157.229 361.104 157.289L339.566 221.058C338.958 220.914 338.32 220.987 337.766 221.257L316.706 186.595L360.133 156.557L360.135 156.559ZM521.402 351.238L513.912 320.337L524.723 346.03C524.342 346.233 524.006 346.532 523.747 346.916C523.171 347.784 523.167 348.861 523.638 349.712L521.402 351.238ZM530.391 397.149C530.187 397.46 530.054 397.795 529.988 398.139L464.938 391.946C464.938 391.488 464.822 391.035 464.598 390.633L521.086 352.057L531.76 396.097C531.219 396.282 530.731 396.638 530.389 397.151L530.391 397.149ZM243.58 297.667C243.406 297.415 243.189 297.191 242.93 297.003L265.489 258.677C266.677 259.238 268.129 258.859 268.878 257.73L292.59 270.472L243.58 297.667ZM99.0582 117.619C99.105 117.587 99.1539 117.552 99.1979 117.516L122.233 148.649C122.065 148.799 121.914 148.969 121.783 149.164C121.441 149.676 121.303 150.264 121.342 150.835L113.6 152.083L99.0582 117.619ZM166.705 192.784L175.039 200.942C174.984 201.007 174.933 201.077 174.884 201.15C174.58 201.609 174.436 202.126 174.435 202.636L165.802 203.422L126.581 153.503L166.705 192.784ZM175.385 200.587L146.244 172.058L126.115 152.352C126.17 152.286 126.221 152.217 126.27 152.143C126.542 151.734 126.684 151.279 126.712 150.82L177.656 149.283L176.917 199.954C176.36 199.999 175.822 200.214 175.386 200.584L175.385 200.587ZM121.421 151.326C121.581 151.948 121.96 152.515 122.537 152.897C123.094 153.268 123.74 153.402 124.357 153.325L135.413 203.782L113.799 152.554L121.424 151.324L121.421 151.326ZM137.721 204.123C137.164 203.752 136.518 203.619 135.901 203.695L124.841 153.219C125.066 153.147 125.284 153.046 125.485 152.917L165.209 203.476L138.876 205.876C138.746 205.184 138.352 204.543 137.719 204.125L137.721 204.123ZM138.925 206.37L165.577 203.941L173.271 213.733C173.127 213.87 172.992 214.025 172.878 214.196C172.747 214.394 172.648 214.603 172.574 214.819L138.896 206.745C138.914 206.62 138.926 206.494 138.925 206.367L138.925 206.37ZM175.283 213.001C174.714 212.968 174.144 213.112 173.662 213.425L166.168 203.888L174.48 203.13C174.609 203.822 175.003 204.463 175.636 204.881C175.898 205.056 176.182 205.176 176.473 205.248L175.283 213.001ZM179.709 201.878L211.441 189.233L216.545 204.471C216.091 204.671 215.685 204.998 215.387 205.443C215.188 205.744 215.058 206.071 214.991 206.403L179.818 202.675C179.821 202.406 179.785 202.137 179.709 201.878ZM260.74 170.485C260.888 170.648 261.058 170.8 261.251 170.928C261.63 171.179 262.045 171.322 262.466 171.364L264.153 207.868L220.318 206.752C220.285 206.262 220.12 205.789 219.835 205.382L260.742 170.484L260.74 170.485ZM454.38 244.461L466.648 270.359C466.286 270.561 465.962 270.849 465.718 271.22C465.599 271.401 465.507 271.59 465.435 271.786L455.176 270.262L453.911 244.606C454.073 244.572 454.229 244.523 454.383 244.461L454.38 244.461ZM571.173 227.208C570.802 227.986 570.836 228.879 571.22 229.615L556.213 239.382L540.071 209.816C540.318 209.635 540.539 209.41 540.719 209.142L571.171 227.209L571.173 227.208ZM539.648 210.074L555.797 239.655L509.106 270.042C508.933 269.826 508.727 269.631 508.484 269.47C508.457 269.453 508.427 269.437 508.4 269.42L537.558 210.18C538.25 210.43 539.002 210.383 539.646 210.075L539.648 210.074ZM268.128 253.998C268.024 253.928 267.918 253.872 267.808 253.818L283.71 211.229C284.449 211.431 285.24 211.304 285.879 210.89L306.699 237.305L268.962 254.886C268.76 254.541 268.482 254.235 268.128 253.998ZM286.269 210.581C286.413 210.444 286.543 210.292 286.66 210.12C286.778 209.942 286.868 209.755 286.94 209.562L336.402 222.816C336.324 223.05 336.278 223.288 336.266 223.527L307.165 237.085L286.271 210.579L286.269 210.581ZM336.289 224.066C336.341 224.409 336.455 224.742 336.633 225.043L323.264 250.126L321.97 252.556C321.156 252.212 320.238 252.297 319.505 252.749L307.475 237.49L336.285 224.069L336.289 224.066ZM322.415 252.793C322.415 252.793 322.414 252.791 322.412 252.789L323.701 250.369L336.963 225.485C337.108 225.644 337.275 225.791 337.464 225.917C337.775 226.124 338.114 226.257 338.458 226.323L343.258 249.154L323.454 254.108C323.264 253.589 322.914 253.12 322.417 252.792L322.415 252.793ZM269.171 255.337L307.016 237.705L319.111 253.049C318.951 253.194 318.806 253.36 318.682 253.547C318.424 253.937 318.28 254.368 318.243 254.804L269.312 255.933C269.289 255.731 269.241 255.531 269.171 255.337ZM353.723 301.692L322.698 257.059C322.873 256.906 323.033 256.727 323.169 256.526C323.563 255.932 323.688 255.24 323.578 254.589L343.358 249.643L354.254 301.462C354.069 301.519 353.893 301.597 353.724 301.694L353.723 301.692ZM343.84 249.521L366.854 243.763C367.051 244.241 367.387 244.664 367.851 244.971C368.032 245.09 368.222 245.185 368.417 245.255L360.519 279.326L355.41 301.366C355.185 301.336 354.961 301.332 354.74 301.359L343.84 249.521ZM461.389 389.388L451.613 366.681L445.572 352.645C445.946 352.441 446.276 352.149 446.528 351.769C447.024 351.025 447.095 350.125 446.807 349.346L458.826 343.589L461.782 389.285C461.647 389.31 461.516 389.344 461.387 389.385L461.389 389.388ZM433.513 269.563L455.257 306.619C455.001 306.804 454.768 307.034 454.585 307.314C454.266 307.795 454.123 308.341 454.139 308.88L439 311.62L433.001 269.742C433.178 269.7 433.351 269.639 433.516 269.563L433.513 269.563ZM454.196 309.373C454.341 310.034 454.728 310.643 455.338 311.047C455.492 311.149 455.65 311.233 455.815 311.299L444.825 347.642C444.603 347.597 444.377 347.582 444.153 347.593L439.071 312.111L454.199 309.372L454.196 309.373ZM446.594 348.898C446.394 348.565 446.121 348.267 445.775 348.036C445.623 347.936 445.463 347.851 445.301 347.785L449.232 334.806L456.307 311.446C456.455 311.476 456.604 311.49 456.753 311.495L458.793 343.056L446.593 348.901L446.594 348.898ZM457.248 311.461C457.966 311.346 458.636 310.947 459.071 310.294C459.246 310.028 459.366 309.744 459.439 309.454L510.259 317.226C510.238 317.599 510.294 317.969 510.423 318.318L459.278 342.82L457.25 311.459L457.248 311.461ZM510.7 315.897C510.525 316.162 510.405 316.447 510.332 316.737L459.513 308.965C459.546 308.423 459.411 307.88 459.129 307.412L484.022 289.008L510.866 315.675C510.807 315.746 510.753 315.821 510.701 315.899L510.7 315.897ZM458.834 307.012C458.683 306.845 458.512 306.691 458.318 306.561C458.259 306.52 458.197 306.488 458.137 306.454L467.294 275.312C468.129 275.525 469.024 275.326 469.69 274.772L483.665 288.655L458.834 307.012ZM466.474 274.951C466.587 275.027 466.707 275.089 466.825 275.146L457.677 306.253C457.436 306.173 457.191 306.13 456.943 306.118L455.199 270.768L465.305 272.268C465.137 273.281 465.559 274.348 466.47 274.951L466.474 274.951ZM456.447 306.143C456.232 306.173 456.018 306.228 455.815 306.31L433.949 269.306C434.203 269.122 434.431 268.893 434.615 268.615C434.793 268.348 434.913 268.06 434.985 267.764L454.699 270.691L456.446 306.141L456.447 306.143ZM371.582 244.219C371.604 244.185 371.622 244.151 371.643 244.115L406.054 257.305L429.776 266.398C429.622 266.949 429.652 267.529 429.845 268.055L386.547 288.722L370.338 245.229C370.829 245.034 371.268 244.693 371.582 244.219ZM431.095 269.499C431.54 269.739 432.025 269.839 432.503 269.815L438.506 311.711L400.288 318.631C400.142 318.105 399.836 317.621 399.386 317.256L431.095 269.499ZM400.379 319.12L438.577 312.204L443.659 347.666C443.094 347.801 442.573 348.114 442.189 348.592L400.068 320.627C400.325 320.153 400.425 319.628 400.379 319.12ZM442.795 352.526C443.507 352.998 444.361 353.086 445.116 352.843L449.52 363.075L460.932 389.589C460.837 389.644 460.742 389.704 460.652 389.77L430.837 356.244L441.802 349.24C441.31 350.41 441.699 351.797 442.795 352.526ZM463.501 389.553C463.113 389.349 462.695 389.25 462.278 389.244L459.31 343.356L510.635 318.768C510.789 319.027 510.987 319.262 511.228 319.463L463.501 389.553ZM511.215 315.324L484.422 288.71L504.988 273.505C505.139 273.673 505.31 273.826 505.505 273.957C505.993 274.282 506.55 274.423 507.093 274.401L512.349 314.763C511.938 314.857 511.548 315.045 511.215 315.324ZM504.693 273.105L484.067 288.354L470.041 274.42C470.1 274.349 470.154 274.274 470.205 274.196C470.475 273.792 470.617 273.34 470.647 272.885L504.323 272.026C504.366 272.405 504.493 272.772 504.693 273.102L504.693 273.105ZM453.414 244.663L454.673 270.186L435.057 267.274C435.097 266.529 434.83 265.788 434.291 265.239L451.998 244.301C452.442 244.558 452.932 244.676 453.412 244.665L453.414 244.663ZM451.592 244.012L433.91 264.921C433.893 264.909 433.877 264.895 433.86 264.883C432.622 264.06 430.95 264.399 430.127 265.637C430.063 265.733 430.006 265.833 429.956 265.935L376.894 245.594L371.86 243.666C371.924 243.494 371.969 243.316 371.997 243.139L450.687 242.376C450.782 242.998 451.089 243.584 451.592 244.015L451.592 244.012ZM366.706 243.288L343.737 249.031L338.97 226.365C339.792 226.357 340.594 225.971 341.114 225.267L366.85 241.699C366.638 242.212 366.596 242.763 366.706 243.284L366.706 243.288ZM282.923 210.873C283.027 210.943 283.133 210.999 283.243 211.052L267.341 253.642C267.15 253.59 266.955 253.559 266.762 253.552L264.675 208.376L281.73 208.809C281.786 209.617 282.2 210.39 282.927 210.873L282.923 210.873ZM219.876 208.418C220.119 208.054 220.256 207.651 220.304 207.244L264.175 208.359L266.264 253.573C265.777 253.641 265.31 253.84 264.922 254.161L219.699 208.654C219.762 208.58 219.822 208.501 219.876 208.418ZM269.114 257.288C269.232 257.009 269.301 256.718 269.32 256.425L318.241 255.297C318.269 255.578 318.343 255.854 318.457 256.117L293.107 270.183L269.112 257.29L269.114 257.288ZM318.7 256.55C318.89 256.83 319.136 257.077 319.434 257.278C320.324 257.868 321.434 257.859 322.295 257.35L353.314 301.975C353.184 302.084 353.063 302.206 352.953 302.343L293.63 270.466L318.701 256.556L318.7 256.55ZM356.537 301.788C356.332 301.652 356.116 301.552 355.895 301.479L368.898 245.382C369.22 245.435 369.548 245.431 369.862 245.368L386.099 288.936L357.358 302.654C357.159 302.317 356.885 302.021 356.537 301.788ZM386.722 289.189L430.058 268.504C430.218 268.771 430.423 269.016 430.68 269.222L398.971 316.979C398.347 316.643 397.641 316.579 396.992 316.754L386.72 289.19L386.722 289.189ZM399.792 321.039L441.584 348.786L430.501 355.863L399.661 321.185C399.707 321.138 399.749 321.09 399.792 321.039ZM460.282 390.099C460.181 390.206 460.087 390.32 460.003 390.446C459.918 390.572 459.85 390.705 459.789 390.839L405.52 372.411L430.412 356.511L460.28 390.097L460.282 390.099ZM464.321 390.217C464.227 390.104 464.121 389.996 464.007 389.897L463.99 389.718L511.64 319.74C512.171 320.035 512.765 320.129 513.333 320.047L520.966 351.534L464.325 390.218L464.321 390.217ZM556.179 330.786L528.194 346.853C528.007 346.586 527.77 346.348 527.483 346.158C527.299 346.035 527.105 345.943 526.905 345.87L532.835 322.991L555.972 329.211C555.879 329.746 555.954 330.295 556.178 330.784L556.179 330.786ZM526.424 345.746C526.005 345.678 525.579 345.71 525.182 345.836L514.211 319.763C514.591 319.56 514.928 319.261 515.187 318.876C515.305 318.699 515.396 318.512 515.466 318.322L532.356 322.862L526.424 345.746ZM515.595 317.844C515.72 317.119 515.543 316.372 515.101 315.781L538.593 294.636C538.719 294.764 538.862 294.882 539.017 294.986C539.177 295.093 539.345 295.178 539.517 295.245L532.483 322.385L515.597 317.846L515.595 317.844ZM538.277 294.25L517.952 312.546L538.021 291.705C537.669 292.549 537.776 293.509 538.277 294.25ZM514.624 315.286C514.563 315.238 514.5 315.191 514.434 315.145C513.946 314.82 513.389 314.679 512.846 314.701L507.59 274.339C508.242 274.192 508.842 273.805 509.241 273.204C509.593 272.675 509.731 272.066 509.677 271.478L564.933 261.411C565.052 261.783 565.254 262.133 565.528 262.429L514.623 315.289L514.624 315.286ZM509.587 270.989C509.535 270.807 509.468 270.629 509.379 270.458L556.036 240.092L566.006 258.353C565.717 258.547 565.46 258.796 565.256 259.106C564.884 259.664 564.753 260.308 564.828 260.923L509.589 270.988L509.587 270.989ZM566.444 258.12L556.454 239.823L571.496 230.035C571.668 230.251 571.875 230.446 572.118 230.607C572.356 230.765 572.609 230.879 572.87 230.953L567.822 257.925C567.352 257.869 566.877 257.937 566.445 258.122L566.444 258.12ZM575.096 226.118C573.888 225.316 572.273 225.618 571.43 226.782L541.102 208.788L616.593 237.049L576.284 228.664C576.392 227.692 575.97 226.695 575.099 226.118L575.096 226.118ZM617.471 236.465C617.403 236.567 617.344 236.675 617.293 236.784L541.103 208.26C541.194 207.865 541.194 207.458 541.107 207.07L575.081 196.804L617.584 236.316C617.547 236.366 617.508 236.415 617.472 236.467L617.471 236.465ZM536.989 209.896C537.029 209.923 537.072 209.944 537.112 209.968L507.957 269.199C507.197 268.906 506.353 268.984 505.663 269.376L492.429 250.477L536.68 209.654C536.777 209.741 536.877 209.823 536.989 209.896ZM505.255 269.661C505.067 269.821 504.896 270.007 504.752 270.226C504.483 270.63 504.341 271.082 504.311 271.537L470.635 272.396C470.58 271.922 470.396 271.465 470.102 271.079L492.06 250.821L505.255 269.665L505.255 269.661ZM469.762 270.71C469.664 270.623 469.563 270.54 469.451 270.466C468.958 270.138 468.395 269.998 467.847 270.021L458.98 204.896C459.233 204.837 459.477 204.742 459.707 204.612L491.771 250.404L469.76 270.708L469.762 270.71ZM458.488 204.964L467.353 270.087C467.269 270.107 467.185 270.129 467.103 270.159L454.819 244.229C455.117 244.035 455.38 243.778 455.589 243.465C456.411 242.225 456.073 240.556 454.835 239.732C454.551 239.543 454.242 239.419 453.93 239.35L458.284 204.967C458.353 204.971 458.421 204.969 458.49 204.966L458.488 204.964ZM450.658 241.88L372.027 242.644C372 241.804 371.58 240.988 370.826 240.487C370.487 240.263 370.115 240.126 369.736 240.07L372.106 198.568C372.927 198.54 373.721 198.135 374.222 197.411L450.973 240.701C450.771 241.076 450.668 241.479 450.656 241.882L450.658 241.88ZM370.525 198.121C370.864 198.345 371.236 198.482 371.613 198.54L369.295 239.128L366.205 201.088L370.122 197.797C370.242 197.916 370.377 198.028 370.524 198.125L370.525 198.121ZM368.872 240.08C368.17 240.204 367.519 240.6 367.093 241.241C367.089 241.247 367.085 241.255 367.079 241.263L341.369 224.846C341.798 223.96 341.7 222.927 341.156 222.142L365.737 201.477L368.871 240.078L368.872 240.08ZM340.838 221.761C340.718 221.642 340.582 221.53 340.435 221.433C340.307 221.35 340.175 221.278 340.04 221.219L361.577 157.449C361.773 157.494 361.97 157.52 362.169 157.523L365.689 200.871L340.838 221.761ZM337.344 221.516C337.099 221.696 336.882 221.918 336.702 222.187C336.666 222.243 336.634 222.301 336.601 222.358L287.065 209.086C287.169 208.476 287.058 207.85 286.758 207.313L316.299 186.88L337.344 221.516ZM282.911 206.396C282.626 206.586 282.371 206.838 282.169 207.143C281.926 207.507 281.789 207.91 281.74 208.317L264.652 207.883L262.964 171.368C263.225 171.346 263.48 171.286 263.723 171.191L282.91 206.399L282.911 206.396ZM260.441 170.084L219.509 205.003C219.392 204.888 219.263 204.781 219.122 204.688C218.476 204.26 217.716 204.149 217.018 204.314L211.904 189.049L260.277 169.771C260.326 169.88 260.38 169.984 260.443 170.086L260.441 170.084ZM211.282 188.759L179.525 201.415C179.32 201.015 179.017 200.66 178.616 200.395C178.52 200.331 178.422 200.278 178.322 200.227L193.465 160.952L197.278 151.059C197.734 151.186 198.211 151.186 198.657 151.074L211.281 188.757L211.282 188.759ZM196.51 150.712C196.607 150.777 196.71 150.832 196.815 150.883L177.86 200.047C177.712 200.005 177.565 199.977 177.414 199.961L178.153 149.269L195.322 148.751C195.404 149.522 195.814 150.252 196.51 150.712ZM177.663 148.786L126.696 150.325C126.641 149.887 126.479 149.465 126.219 149.098L176.633 105.847C176.811 106.084 177.029 106.295 177.289 106.468C177.596 106.672 177.932 106.804 178.272 106.87L177.66 148.785L177.663 148.786ZM176.1 104.457C176.13 104.791 176.221 105.119 176.371 105.421L125.898 148.722C125.783 148.609 125.655 148.504 125.515 148.414C125.165 148.182 124.784 148.046 124.394 147.991L126.034 111.431L176.101 104.459L176.1 104.457ZM123.897 147.966C123.451 147.987 123.017 148.118 122.631 148.351L99.5632 117.175C99.6479 117.079 99.7277 116.981 99.8004 116.872C100.177 116.305 100.309 115.648 100.223 115.023L125.531 111.498L123.897 147.966ZM98.6167 117.856L113.092 152.163L93.6296 155.3C93.4699 154.677 93.0914 154.111 92.5144 153.729C92.2588 153.559 91.9851 153.441 91.7034 153.368L97.4969 118.072C97.8811 118.079 98.2615 118.007 98.6167 117.856ZM92.9979 157.8C93.0948 157.695 93.186 157.583 93.268 157.462C93.6101 156.949 93.7477 156.361 93.7091 155.79L113.291 152.634L134.959 203.991C134.844 204.053 134.731 204.126 134.626 204.206L92.9979 157.8ZM177.697 214.901C177.52 214.323 177.151 213.802 176.61 213.44C176.348 213.265 176.064 213.146 175.773 213.073L176.964 205.321C177.889 205.377 178.819 204.953 179.368 204.126C179.567 203.825 179.696 203.498 179.764 203.165L214.937 206.894C214.935 207.004 214.94 207.115 214.951 207.226L177.693 214.9L177.697 214.901ZM218.537 209.461C218.827 209.359 219.1 209.207 219.344 209.006L264.567 254.513C264.504 254.587 264.444 254.666 264.39 254.749C263.586 255.958 263.892 257.58 265.061 258.421L242.502 296.747C241.999 296.51 241.453 296.441 240.929 296.525L218.539 209.46L218.537 209.461ZM244.04 299.014C244.021 298.7 243.945 298.388 243.818 298.098L293.109 270.749L351.752 302.262L244.038 299.015L244.04 299.014ZM357.649 304.703C357.788 304.168 357.754 303.609 357.569 303.102L386.269 289.403L396.524 316.926C396.103 317.131 395.727 317.443 395.449 317.861C395.374 317.975 395.313 318.091 395.257 318.211L357.65 304.705L357.649 304.703ZM398.302 321.97C398.654 321.887 398.99 321.734 399.287 321.517L430.073 356.136L405.139 372.062L398.3 321.971L398.302 321.97ZM467.525 431.983C467.078 432.068 466.651 432.267 466.294 432.569L405.896 373.065L459.629 391.308C459.375 392.376 459.79 393.536 460.756 394.179C461.749 394.838 463.013 394.75 463.903 394.057L467.529 431.983L467.525 431.983ZM531.774 394.036L521.525 351.753L523.915 350.122C524.079 350.32 524.274 350.499 524.499 350.647C524.988 350.973 525.548 351.114 526.095 351.093L531.775 394.038L531.774 394.036ZM557.218 327.373C556.893 327.571 556.602 327.841 556.378 328.18C556.26 328.357 556.171 328.543 556.099 328.734L532.957 322.511L539.989 295.382C540.485 295.479 540.993 295.429 541.46 295.254L557.218 327.373ZM541.95 290.471C541.149 289.961 540.177 289.925 539.37 290.299L562.262 266.528L541.952 290.47L541.95 290.471ZM620.456 235.364C619.57 235.108 618.607 235.327 617.914 235.945L575.624 196.633L641.665 176.677C641.862 177.161 642.202 177.594 642.669 177.907C642.76 177.968 642.855 178.02 642.948 178.067L620.454 235.365L620.456 235.364ZM641.476 175.808C641.483 175.94 641.497 176.072 641.524 176.202L575.206 196.24L550.948 173.689C550.979 173.65 551.009 173.611 551.037 173.569C551.302 173.172 551.444 172.729 551.478 172.283L641.476 175.808ZM548.154 174.696C549.022 174.908 549.948 174.675 550.614 174.06L574.651 196.407L540.947 206.59C540.748 206.123 540.416 205.706 539.962 205.405C539.815 205.307 539.662 205.227 539.504 205.161L548.154 174.696ZM535.781 207.637C535.779 208.228 535.971 208.81 536.337 209.285L492.135 250.061L460.109 204.324C460.298 204.164 460.468 203.978 460.612 203.759C460.832 203.427 460.967 203.065 461.027 202.695L535.78 207.635L535.781 207.637ZM369.767 194.386C369.139 195.332 369.189 196.529 369.799 197.41L366.153 200.476L362.706 158.03L371.145 193.329C370.6 193.514 370.109 193.87 369.766 194.389L369.767 194.386ZM359.568 155.403C359.625 155.663 359.72 155.915 359.852 156.147L316.448 186.169L303.25 164.448C303.494 164.267 303.714 164.044 303.891 163.777C304.212 163.295 304.355 162.745 304.336 162.206L359.568 155.403ZM299.043 162.969C299.203 163.588 299.582 164.151 300.156 164.532C300.26 164.602 300.369 164.659 300.479 164.712L285.112 206.032C284.52 205.873 283.899 205.922 283.346 206.158L264.165 170.964C264.48 170.768 264.762 170.503 264.979 170.172C265.322 169.656 265.461 169.067 265.418 168.493L299.042 162.967L299.043 162.969ZM260.116 168.072C260.021 168.479 260.024 168.899 260.118 169.297L211.745 188.575L199.129 150.911C199.567 150.71 199.959 150.39 200.245 149.956C200.352 149.793 200.438 149.627 200.507 149.451L260.12 168.07L260.116 168.072ZM196.74 146.086C196.354 146.29 196.012 146.59 195.752 146.978C195.49 147.374 195.347 147.811 195.313 148.253L178.159 148.77L178.771 106.915C179.044 106.915 179.317 106.875 179.575 106.794L196.74 146.086ZM125.332 85.205C125.442 85.3101 125.561 85.406 125.692 85.4933C126 85.6994 126.335 85.8317 126.679 85.8976L125.554 110.993L100.11 114.537C99.9896 114.169 99.7879 113.825 99.5124 113.535L125.334 85.2071L125.332 85.205Z" fill="#B4185C"/>
<path d="M558 341.762H517L523.178 392.871H552.384L558 341.762Z" fill="#DF8711"/>
<path d="M518.188 313.958L524.303 341.2V341.762H529.358L523.25 313.441C523.204 313.229 523.105 313.032 522.962 312.869L520.911 310.525C520.221 309.737 518.928 310.067 518.701 311.089L518.187 313.401C518.146 313.585 518.146 313.775 518.188 313.958Z" fill="#8FC6D7"/>
<path d="M533.032 303.51L533.774 340.705L533.6 342.185L538.665 342.185L538.142 303.559C538.14 303.38 538.1 303.204 538.025 303.041L536.501 299.737C536.012 298.679 534.478 298.773 534.123 299.883L533.093 303.095C533.05 303.229 533.029 303.369 533.032 303.51Z" fill="#BF8888"/>
<path d="M556.085 312.118L549.961 341.713V342.322H544.906L551.023 311.559C551.063 311.357 551.152 311.167 551.281 311.006L553.312 308.488C553.991 307.647 555.343 307.975 555.56 309.034L556.086 311.602C556.121 311.772 556.121 311.948 556.085 312.118Z" fill="#FADBE9"/>
<path d="M548.656 314.839L546.894 341.678L546.592 341.764L541.537 341.764L543.231 315.306C543.246 315.08 543.32 314.861 543.447 314.673L545.342 311.866C545.902 311.036 547.156 311.143 547.567 312.056L548.546 314.23C548.632 314.421 548.67 314.63 548.656 314.839Z" fill="#FBE4C6"/>
<path d="M522.617 349.062H552.384" stroke="#4F2B2B" stroke-width="3" stroke-linecap="round"/>
<path d="M111.544 402H276L234.09 279H69.6333L111.544 402Z" fill="#F2AE54"/>
<path d="M163.934 326.833C152.612 326.833 143.434 324.08 143.434 320.683C143.434 317.287 152.612 314.533 163.934 314.533C175.255 314.533 184.434 317.287 184.434 320.683C184.434 324.08 175.255 326.833 163.934 326.833Z" fill="white"/>
<path d="M672.284 393H38.7157C32.0818 393 32 394.791 32 397C32 399.209 32.0818 401 38.7157 401H672.284C678.918 401 679 399.209 679 397C679 394.791 678.918 393 672.284 393Z" fill="#307286"/>
<path d="M356.402 289.849V245.111L314.142 233.216C296.829 228.34 278.227 232.892 265.115 245.204C250.906 258.552 245.488 278.799 253.253 297.461L273.341 363.85L356.396 289.838L356.402 289.849Z" fill="#854747"/>
<path d="M399.354 289.849V245.111L441.613 233.216C458.926 228.34 477.528 232.892 490.64 245.204C504.849 258.552 510.268 278.799 504.624 297.461L484.537 363.85L399.359 289.838L399.354 289.849Z" fill="#854747"/>
<path d="M309.847 296.486C309.496 296.486 309.178 296.244 309.096 295.888L306.288 283.828C306.19 283.412 306.453 282.995 306.864 282.902C307.281 282.803 307.698 283.066 307.796 283.477L310.604 295.537C310.703 295.954 310.44 296.37 310.028 296.464C309.968 296.475 309.908 296.486 309.853 296.486H309.847Z" fill="#4F2B2B"/>
<path d="M447.927 296.486C447.866 296.486 447.812 296.48 447.751 296.464C447.334 296.365 447.077 295.948 447.175 295.537L449.983 283.478C450.082 283.061 450.493 282.798 450.915 282.902C451.332 283 451.59 283.417 451.491 283.829L448.683 295.888C448.601 296.244 448.283 296.486 447.932 296.486H447.927Z" fill="#4F2B2B"/>
<path d="M437.377 252.879H312.342V392.211H437.377V252.879Z" fill="#854747"/>
<path d="M356.406 245.114H399.845L397.843 229.413L359.28 228.059L356.406 245.114Z" fill="#4F2B2B"/>
<path d="M348.428 242.865L356.412 245.114L399.61 244.708L408.604 242.41C408.604 242.41 412.47 266.458 379.796 267C347.122 267.543 348.433 242.865 348.433 242.865H348.428Z" fill="#FFBE97"/>
<path d="M366.523 294.368L358.434 289.849L323.737 270.469L294.863 323.894L355.478 354.889L366.523 294.368Z" fill="#FFBE97"/>
<path d="M294.861 323.893L273.26 363.86L275.876 372.503C280.954 389.278 296.413 400.756 313.946 400.756C333.156 400.756 349.625 387.024 353.074 368.121L355.487 354.888L294.867 323.893H294.861Z" fill="#854747"/>
<path d="M313.941 401.532C313.513 401.532 313.168 401.186 313.168 400.759C313.168 400.331 313.513 399.985 313.941 399.985C332.79 399.985 348.924 386.528 352.307 367.986L354.72 354.753C354.797 354.331 355.197 354.051 355.62 354.134C356.042 354.21 356.322 354.611 356.245 355.033L353.832 368.266C350.317 387.542 333.541 401.532 313.941 401.532Z" fill="#4F2B2B"/>
<path d="M284.727 343.41C284.601 343.41 284.475 343.383 284.359 343.317C283.981 343.114 283.844 342.643 284.047 342.27L294.176 323.525C294.379 323.147 294.85 323.01 295.223 323.213C295.602 323.416 295.739 323.887 295.536 324.26L285.407 343.005C285.264 343.262 285.001 343.41 284.727 343.41Z" fill="#4F2B2B"/>
<path d="M366.461 294.367L370.454 280.141C372.932 271.306 369.445 261.879 361.811 256.779L331.556 236.582L324.059 209.381C323.357 206.831 320.96 205.12 318.317 205.284C315.405 205.465 313.124 207.851 313.069 210.763L312.515 240.464C312.46 243.524 313.074 246.557 314.314 249.359L323.686 270.467L366.467 294.367H366.461Z" fill="#FFBE97"/>
<path d="M426.859 202.683C426.859 202.683 405.669 245.606 380.02 245.354C354.372 245.096 336.028 223.139 334.059 196.459C333.083 183.231 337.289 167.684 343.245 161.641C350.039 154.753 364.61 148.315 377.607 146.905C396.247 144.887 409.914 159.403 409.914 159.403C409.914 159.403 422.79 163.072 428.099 176.585C431.581 185.458 426.859 202.678 426.859 202.678V202.683Z" fill="#4F2B2B"/>
<path d="M372.299 255.741C394.587 255.741 402.119 247.799 408.795 243.918L409.622 247.808C408.07 252.106 382.605 260.237 372.299 255.741Z" fill="#4F2B2B"/>
<path d="M417.382 196.096C421.786 206.351 420.025 228.024 410.467 239.809C400.217 252.444 389.803 254.128 376.79 254.128C363.776 254.128 348.657 245.354 342.723 228.15C335.182 206.285 342.92 182.496 363.535 173.645C384.149 164.794 408.262 174.846 417.382 196.096Z" fill="#FFBE97"/>
<path d="M415.358 210.899C414.491 217.989 413.471 224.115 419.416 224.839C425.36 225.563 432.577 220.331 433.438 213.24C434.305 206.15 430.186 199.81 424.242 199.086C418.297 198.362 416.219 203.808 415.358 210.899Z" fill="#FFBE97"/>
<path d="M393.048 197.191C393.004 199.16 393.986 200.772 395.236 200.8C396.487 200.827 397.54 199.253 397.578 197.285C397.622 195.316 396.64 193.704 395.39 193.676C394.14 193.649 393.087 195.223 393.048 197.191Z" fill="#4F2B2B"/>
<path d="M362.222 197.02C362.178 198.988 363.16 200.601 364.41 200.628C365.661 200.655 366.714 199.081 366.752 197.113C366.796 195.144 365.814 193.532 364.564 193.504C363.313 193.477 362.261 195.051 362.222 197.02Z" fill="#4F2B2B"/>
<path d="M360.513 220.534C351.81 220.534 344.725 213.454 344.725 204.745C344.725 196.037 351.804 188.957 360.513 188.957C369.222 188.957 376.301 196.037 376.301 204.745C376.301 213.454 369.222 220.534 360.513 220.534ZM360.513 190.509C352.66 190.509 346.277 196.898 346.277 204.751C346.277 212.604 352.665 218.987 360.513 218.987C368.361 218.987 374.755 212.599 374.755 204.751C374.755 196.903 368.366 190.509 360.513 190.509Z" fill="white"/>
<path d="M398.044 220.534C389.341 220.534 382.256 213.454 382.256 204.745C382.256 196.037 389.336 188.957 398.044 188.957C406.753 188.957 413.833 196.037 413.833 204.745C413.833 213.454 406.753 220.534 398.044 220.534ZM398.044 190.509C390.191 190.509 383.808 196.898 383.808 204.751C383.808 212.604 390.197 218.987 398.044 218.987C405.892 218.987 412.286 212.599 412.286 204.751C412.286 196.903 405.897 190.509 398.044 190.509Z" fill="white"/>
<path d="M371.447 212.801L375.807 218.148L380.123 200.33L371.447 212.801Z" fill="#FFBE97"/>
<path d="M344.411 211.261C345.278 218.351 346.331 224.11 340.392 224.834C334.447 225.557 327.23 220.326 326.369 213.235C325.503 206.144 329.621 199.805 335.566 199.081C341.51 198.357 343.55 204.164 344.417 211.261H344.411Z" fill="#FFBE97"/>
<path d="M383.93 200.691C380.311 199.836 377.261 199.83 374.618 200.675L374.146 199.2C377.069 198.262 380.387 198.262 384.286 199.183L383.93 200.691Z" fill="white"/>
<path d="M412.906 165.018C412.906 165.018 396.421 178.301 389.073 179.688C381.719 181.075 376.509 179.853 376.509 179.853L379.246 173.431C379.246 173.431 373.553 179.194 368.305 179.858C363.057 180.522 357.973 179.726 357.973 179.726L360.375 174.034C360.375 174.034 351.727 182.095 343.342 180.834C343.342 180.834 359.991 156.875 378.549 157.686C397.107 158.498 412.906 165.013 412.906 165.013V165.018Z" fill="#4F2B2B"/>
<path d="M374.868 219.294C374.632 219.294 374.402 219.19 374.248 218.987L369.91 213.239C369.707 212.971 369.702 212.603 369.894 212.329L377.988 200.698C378.23 200.347 378.712 200.259 379.069 200.506C379.42 200.752 379.507 201.235 379.261 201.586L371.49 212.757L375.488 218.054C375.745 218.394 375.679 218.882 375.334 219.14C375.197 219.244 375.032 219.299 374.868 219.299V219.294Z" fill="#4F2B2B"/>
<path d="M419.311 214.069C419.228 214.069 419.141 214.058 419.058 214.025C418.653 213.883 418.439 213.444 418.581 213.044C419.349 210.806 422.064 206.688 426.824 207.099C427.252 207.137 427.564 207.51 427.526 207.938C427.487 208.366 427.114 208.678 426.687 208.64C421.954 208.229 420.117 213.329 420.04 213.548C419.93 213.866 419.629 214.069 419.311 214.069Z" fill="#4F2B2B"/>
<path d="M339.388 214.069C339.07 214.069 338.768 213.866 338.659 213.548C338.582 213.329 336.761 208.245 332.012 208.64C331.59 208.678 331.211 208.36 331.173 207.938C331.135 207.51 331.453 207.137 331.875 207.099C336.635 206.688 339.35 210.806 340.117 213.044C340.255 213.449 340.041 213.888 339.64 214.025C339.558 214.053 339.47 214.069 339.388 214.069Z" fill="#4F2B2B"/>
<path d="M340.819 246.347L334.211 214.205C333.646 211.463 331.233 209.494 328.436 209.494C325.085 209.494 322.409 212.286 322.546 215.631L323.687 243.435L340.824 246.347H340.819Z" fill="#FFBE97"/>
<path d="M340.82 247.124C340.458 247.124 340.14 246.871 340.063 246.504L333.455 214.362C332.966 211.993 330.855 210.271 328.437 210.271C327.027 210.271 325.717 210.83 324.74 211.845C323.764 212.86 323.26 214.198 323.32 215.602L324.461 243.405C324.477 243.833 324.148 244.195 323.72 244.212C323.282 244.228 322.931 243.899 322.914 243.471L321.774 215.667C321.697 213.836 322.355 212.097 323.627 210.776C324.899 209.454 326.605 208.725 328.442 208.725C331.595 208.725 334.343 210.968 334.979 214.055L341.587 246.197C341.675 246.614 341.401 247.025 340.984 247.113C340.929 247.124 340.88 247.129 340.825 247.129L340.82 247.124Z" fill="#4F2B2B"/>
<path d="M351.035 251.807L345.578 225.253C345.112 222.988 343.122 221.365 340.807 221.365C338.038 221.365 335.828 223.669 335.938 226.438L336.875 249.405L351.035 251.807Z" fill="#FFBE97"/>
<path d="M351.038 252.584C350.676 252.584 350.358 252.331 350.281 251.964L344.825 225.41C344.435 223.513 342.746 222.136 340.81 222.136C339.686 222.136 338.633 222.586 337.854 223.398C337.076 224.209 336.67 225.279 336.714 226.403L337.657 249.37C337.674 249.798 337.344 250.16 336.917 250.176C336.478 250.187 336.127 249.863 336.111 249.436L335.167 226.469C335.102 224.917 335.661 223.447 336.736 222.328C337.811 221.21 339.258 220.59 340.81 220.59C343.476 220.59 345.801 222.487 346.338 225.098L351.795 251.651C351.883 252.068 351.608 252.479 351.192 252.567C351.137 252.578 351.087 252.584 351.033 252.584H351.038Z" fill="#4F2B2B"/>
<path d="M334.706 274.883C334.624 274.883 334.542 274.872 334.465 274.845L323.442 271.203C323.036 271.072 322.817 270.633 322.948 270.227C323.08 269.821 323.519 269.597 323.924 269.734L334.947 273.375C335.353 273.507 335.573 273.945 335.441 274.351C335.331 274.675 335.03 274.883 334.706 274.883Z" fill="#4F2B2B"/>
<path d="M391.268 294.366L399.351 289.847L434.048 270.467L462.927 323.892L402.307 354.888L391.268 294.366Z" fill="#FFBE97"/>
<path d="M462.926 323.891L484.528 363.858L481.912 372.501C476.834 389.276 461.374 400.754 443.842 400.754C424.632 400.754 408.163 387.022 404.714 368.119L402.301 354.886L462.921 323.891H462.926Z" fill="#854747"/>
<path d="M443.849 401.53C424.255 401.53 407.48 387.54 403.959 368.264L401.546 355.031C401.469 354.608 401.749 354.208 402.171 354.131C402.593 354.049 402.994 354.334 403.07 354.751L405.483 367.984C408.867 386.525 425.001 399.983 443.849 399.983C444.277 399.983 444.623 400.329 444.623 400.756C444.623 401.184 444.277 401.53 443.849 401.53Z" fill="#4F2B2B"/>
<path d="M473.055 343.408C472.781 343.408 472.512 343.26 472.375 343.003L462.246 324.258C462.043 323.88 462.18 323.414 462.559 323.211C462.937 323.008 463.403 323.145 463.606 323.523L473.735 342.268C473.938 342.646 473.801 343.112 473.422 343.315C473.307 343.376 473.181 343.408 473.055 343.408Z" fill="#4F2B2B"/>
<path d="M391.315 294.367L387.323 280.141C384.844 271.306 388.332 261.879 395.965 256.779L426.221 236.582L433.717 209.381C434.419 206.831 436.816 205.12 439.459 205.284C442.371 205.465 444.652 207.851 444.707 210.763L445.261 240.464C445.316 243.524 444.702 246.557 443.462 249.359L434.09 270.467L391.31 294.367H391.315Z" fill="#FFBE97"/>
<path d="M416.959 246.347L423.567 214.205C424.132 211.463 426.545 209.494 429.341 209.494C432.692 209.494 435.368 212.286 435.231 215.631L434.091 243.435L416.953 246.347H416.959Z" fill="#FFBE97"/>
<path d="M416.96 247.121C416.911 247.121 416.856 247.121 416.801 247.105C416.384 247.017 416.11 246.611 416.198 246.189L422.806 214.047C423.442 210.96 426.19 208.717 429.343 208.717C431.175 208.717 432.886 209.446 434.158 210.768C435.43 212.089 436.088 213.828 436.012 215.66L434.871 243.463C434.855 243.891 434.504 244.226 434.065 244.204C433.637 244.187 433.308 243.825 433.325 243.398L434.465 215.594C434.52 214.19 434.016 212.852 433.045 211.837C432.074 210.823 430.758 210.263 429.349 210.263C426.93 210.263 424.819 211.985 424.331 214.354L417.723 246.496C417.646 246.864 417.322 247.116 416.966 247.116L416.96 247.121Z" fill="#4F2B2B"/>
<path d="M406.742 251.807L412.199 225.253C412.665 222.988 414.656 221.365 416.97 221.365C419.739 221.365 421.949 223.669 421.84 226.438L420.902 249.405L406.742 251.807Z" fill="#FFBE97"/>
<path d="M406.742 252.584C406.692 252.584 406.637 252.584 406.583 252.567C406.166 252.479 405.892 252.074 405.979 251.651L411.436 225.098C411.973 222.487 414.298 220.59 416.964 220.59C418.516 220.59 419.963 221.204 421.038 222.328C422.113 223.447 422.673 224.917 422.607 226.469L421.664 249.436C421.647 249.863 421.291 250.193 420.857 250.176C420.43 250.16 420.101 249.798 420.117 249.37L421.06 226.403C421.104 225.279 420.704 224.209 419.92 223.398C419.141 222.586 418.088 222.136 416.964 222.136C415.028 222.136 413.339 223.513 412.949 225.41L407.493 251.964C407.416 252.331 407.093 252.584 406.736 252.584H406.742Z" fill="#4F2B2B"/>
<path d="M423.074 274.883C422.75 274.883 422.443 274.675 422.339 274.351C422.207 273.945 422.427 273.507 422.833 273.375L433.855 269.734C434.261 269.597 434.7 269.821 434.832 270.227C434.963 270.633 434.744 271.072 434.338 271.203L423.315 274.845C423.233 274.872 423.151 274.883 423.074 274.883Z" fill="#4F2B2B"/>
<path d="M407.298 214.885H354.777V227.317H407.298V214.885Z" fill="#F8D2A0"/>
<path d="M407.301 214.885L404.586 217.994V224.208L407.301 227.317L410.015 224.208V217.994L407.301 214.885Z" fill="#FBE4C6"/>
<path d="M407.301 223.599C407.832 223.599 408.261 222.479 408.261 221.098C408.261 219.717 407.832 218.598 407.301 218.598C406.771 218.598 406.342 219.717 406.342 221.098C406.342 222.479 406.771 223.599 407.301 223.599Z" fill="#4F2B2B"/>
<path d="M404.583 223.828H354.777V224.601H404.583V223.828Z" fill="#F2AE54"/>
<path d="M404.583 217.799H354.777V218.572H404.583V217.799Z" fill="#F2AE54"/>
<path d="M358.676 217.934L354.777 214.885L341.791 219.075C341.945 219.711 342.032 220.391 342.032 221.098C342.032 221.806 341.945 222.486 341.791 223.122L354.777 227.312L358.676 224.202L354.777 221.093L358.676 217.923V217.934Z" fill="#FBE4C6"/>
<path d="M341.791 219.078L340.085 219.632C338.292 220.213 338.292 222.001 340.085 222.577L341.791 223.131C341.944 222.495 342.032 221.815 342.032 221.107C342.032 220.4 341.944 219.72 341.791 219.084V219.078Z" fill="#4F2B2B"/>
<path d="M375.784 226.02C367.519 226.02 364.492 230.111 364.492 230.111L387.015 230.889C387.015 230.889 384.048 226.02 375.784 226.02Z" fill="#FFBE97"/>
<path d="M387.012 231.672C386.749 231.672 386.496 231.54 386.348 231.299C386.233 231.118 383.464 226.796 375.781 226.796C368.098 226.796 365.136 230.537 365.109 230.575C364.856 230.92 364.368 230.992 364.023 230.739C363.677 230.487 363.606 229.999 363.864 229.659C363.995 229.478 367.226 225.25 375.781 225.25C384.336 225.25 387.544 230.279 387.67 230.493C387.895 230.86 387.774 231.332 387.412 231.557C387.286 231.633 387.149 231.672 387.012 231.672Z" fill="#4F2B2B"/>
<path d="M313.352 93.373C319.181 83.7211 316.522 69.8521 307.533 63.0409C298.545 56.2298 284.478 57.4198 276.757 65.6404C271.668 55.6101 259.077 50.3345 248.811 54.9246C241.045 58.396 235.55 67.0936 235.095 75.6596C222.97 70.4992 209.699 79.3942 206.984 87.3844C203.984 96.2247 208.317 106.222 216.57 111.953C205.388 115.293 198.27 127.884 201.999 138.945C205.723 150.001 215.939 155.797 226.858 151.69C220.573 156.774 223.299 168.493 227.867 175.161C232.435 181.83 241.435 184.747 249.326 182.998C257.218 181.249 263.837 175.342 267.473 168.125C275.902 176.489 290.95 176.856 299.779 168.915C308.603 160.974 309.82 145.965 302.389 136.708C314.059 137.42 326.393 130.357 329.749 119.153C333.105 107.949 325.016 94.1517 313.352 93.373Z" fill="#FADBE9"/>
<path d="M429.727 112.357C419.581 107.438 414.256 94.3639 418.079 83.7523C421.906 73.1463 434.35 66.4777 445.301 69.1649C444.106 57.983 451.789 46.6969 462.899 44.953C471.301 43.6313 480.646 47.9308 485.696 54.8681C493.05 43.933 509.031 44.1633 515.655 49.3841C522.988 55.1587 524.803 65.9074 521.002 75.2082C532.195 71.9178 545.028 78.5974 547.929 89.8999C550.83 101.202 545.423 111.628 534.027 114.134C542.066 114.973 546.168 126.281 545.971 134.364C545.774 142.448 539.818 149.796 532.245 152.631C524.671 155.467 515.908 154.118 508.921 150.043C506.409 161.647 493.988 170.158 482.258 168.305C470.528 166.451 461.331 154.534 462.521 142.716C453.121 149.67 438.929 150.471 430.017 142.903C421.1 135.335 420.365 119.36 429.721 112.351L429.727 112.357Z" fill="#FADBE9"/>
<path d="M456.093 162.12C452.572 166.266 444.719 165.482 443.036 159.378C439.915 148.065 459.833 146.699 457.673 158.698C457.426 160.069 456.861 161.21 456.093 162.12Z" fill="#FADBE9"/>
<path d="M437.665 170.709C435.505 173.254 430.684 172.771 429.653 169.026C427.739 162.083 439.958 161.244 438.636 168.609C438.482 169.453 438.137 170.15 437.665 170.709Z" fill="#FADBE9"/>
<path d="M313.757 150.43C317.366 154.499 325.197 153.556 326.754 147.419C329.639 136.04 309.699 135.091 312.107 147.041C312.381 148.406 312.968 149.536 313.757 150.43Z" fill="#FADBE9"/>
<path d="M330.188 157.38C332.403 159.881 337.207 159.3 338.167 155.532C339.938 148.551 327.703 147.964 329.178 155.302C329.348 156.141 329.705 156.832 330.193 157.38H330.188Z" fill="#FADBE9"/>
</g>
</svg>
