<svg width="100" height="100" viewBox="0 0 100 100" fill="none" xmlns="http://www.w3.org/2000/svg">
<path d="M88.7097 33.8711V98.3872H82.2581V69.355V56.4517V50.0001V38.7098V37.0969V33.8711H88.7097Z" fill="#DF8711"/>
<path d="M56.8387 25.0635C54.3871 24.0152 52.0968 22.6442 50 20.9668C50.4032 18.3055 50.4355 15.6281 50.129 12.999C55.3226 17.1119 61.7581 19.3539 68.3871 19.3539H69.2904C69.3387 19.8861 69.3548 20.4184 69.3548 20.9668C69.3548 23.2248 68.9678 25.4023 68.2581 27.4184H68.2419C67.0161 27.4184 65.8064 27.3216 64.6129 27.1764C61.9355 26.8216 59.3064 26.1119 56.8387 25.0635Z" fill="#8FC6D7"/>
<path d="M69.2903 19.3541H68.3871C61.7581 19.3541 55.3225 17.1122 50.129 12.9993C49.8064 10.3219 49.1128 7.70898 48.0645 5.20898C53.6935 8.69286 60.0967 10.7574 66.7258 11.209C68.1451 13.6445 69.0484 16.4025 69.2903 19.3541Z" fill="#3F97B1"/>
<path d="M64.6128 27.1768C65.8064 27.3219 67.016 27.4187 68.2418 27.4187C66.8547 31.4026 64.1774 34.7897 60.7096 37.0961C60.7096 37.0961 60.7096 37.1122 60.6935 37.0961C58.8064 38.3703 56.6612 39.3058 54.3548 39.8219C52.9838 40.1445 51.5644 40.3219 50.0967 40.3219C53.7902 34.8058 58.7741 30.2897 64.6128 27.1768Z" fill="#8FC6D7"/>
<path d="M50 1.6123C57.1452 1.6123 63.371 5.46714 66.7258 11.2091C60.0968 10.7575 53.6936 8.69296 48.0645 5.20908C47.6129 4.08005 47.0807 2.9994 46.4678 1.93488C47.6129 1.7252 48.7904 1.6123 50 1.6123Z" fill="#8FC6D7"/>
<path d="M56.8387 25.0635C59.3064 26.1119 61.9354 26.8215 64.6129 27.1764C58.7742 30.2893 53.7903 34.8054 50.0967 40.3215H50C48.5 40.3215 47.0322 40.1441 45.6451 39.8215C44.2903 39.5151 42.9839 39.0635 41.7581 38.4828L42.1935 37.7086C45.5161 31.9667 50.6774 27.499 56.8387 25.0635Z" fill="#3F97B1"/>
<path d="M43.0322 24.871C45.1451 23.2581 47.4838 21.9516 50 20.9678C52.0967 22.6452 54.387 24.0162 56.8386 25.0645C50.6774 27.5 45.5161 31.9678 42.1935 37.7097L41.758 38.4839C40.9032 38.0968 40.0806 37.6291 39.3064 37.0968C37.8064 36.1129 36.4516 34.9033 35.2903 33.5484C35.9193 32.4839 36.5968 31.4678 37.3226 30.5C38.9677 28.3549 40.887 26.4678 43.0322 24.871Z" fill="#8FC6D7"/>
<path d="M50.129 12.9991C50.4355 15.6281 50.4033 18.3055 50 20.9668C47.4839 21.9507 45.1452 23.2572 43.0323 24.8701C44 18.3055 42.7258 11.5959 39.4032 5.83781L38.9678 5.06361C41.1775 3.51522 43.7097 2.43457 46.4678 1.93457C47.0807 2.99909 47.6129 4.07974 48.0645 5.20877C49.1129 7.70877 49.8065 10.3217 50.129 12.9991Z" fill="#8FC6D7"/>
<path d="M39.4033 5.83768C42.7259 11.5957 44.0001 18.3054 43.0323 24.8699C40.8872 26.4667 38.9678 28.3538 37.3227 30.499C37.5324 23.8699 36.113 17.3054 33.1936 11.3538C34.6291 8.8538 36.5969 6.70864 38.9678 5.06348L39.4033 5.83768Z" fill="#3F97B1"/>
<path d="M33.1934 11.3545C36.1127 17.3061 37.5321 23.8706 37.3225 30.4997C36.5967 31.4674 35.9192 32.4835 35.2902 33.548C32.387 30.1771 30.645 25.7738 30.645 20.9674C30.645 17.4674 31.5644 14.1932 33.1934 11.3545Z" fill="#8FC6D7"/>
<path d="M17.7419 67.7421V69.355V98.3872H11.2903V33.8711H17.7419V37.0969V38.7098V50.0001V56.4517V67.7421Z" fill="#DF8711"/>
<path d="M83.8708 70.9673H16.1289V35.4834H39.3063V38.7092H19.3547V67.7415H80.645V38.7092H60.6934V35.4834H83.8708V70.9673Z" fill="black"/>
<path d="M50 41.9355C38.4355 41.9355 29.0322 32.5323 29.0322 20.9677C29.0322 9.40322 38.4355 0 50 0C61.5645 0 70.9677 9.40322 70.9677 20.9677C70.9677 32.5323 61.5645 41.9355 50 41.9355ZM50 3.22581C40.2096 3.22581 32.258 11.1774 32.258 20.9677C32.258 30.7581 40.2096 38.7097 50 38.7097C59.7903 38.7097 67.7419 30.7581 67.7419 20.9677C67.7419 11.1774 59.7903 3.22581 50 3.22581Z" fill="black"/>
<path d="M68.242 29.0325C61.2742 29.0003 54.4355 26.5809 48.9839 22.2261L51 19.71C55.871 23.6132 62 25.7745 68.2581 25.8067V29.0325H68.242Z" fill="black"/>
<path d="M69.3549 20.9681H68.3872C61.3549 20.9681 54.4678 18.5487 48.9839 14.1616L51 11.6455C55.9194 15.581 62.0968 17.7423 68.3872 17.7423H69.3549V20.9681Z" fill="black"/>
<path d="M66.6614 12.8227C59.7904 12.3873 53.0646 10.226 47.2097 6.58081L48.9194 3.83887C54.3226 7.19371 60.5324 9.19371 66.8711 9.59693L66.6614 12.8227Z" fill="black"/>
<path d="M44.6129 25.2422L41.4193 24.7583C42.3709 18.5325 41.1612 12.1131 38 6.6615L37.5483 5.88732L40.3387 4.27441L40.7903 5.0486C44.3064 11.1292 45.6612 18.3067 44.5967 25.2583L44.6129 25.2422Z" fill="black"/>
<path d="M38.9194 30.5488L35.6936 30.4359C35.9033 24.0811 34.5162 17.694 31.6936 11.9843L34.5807 10.5488C37.6452 16.7262 39.1452 23.6456 38.9194 30.5327V30.5488Z" fill="black"/>
<path d="M43.1453 39.2903L40.355 37.6774L40.8066 36.9032C44.3227 30.8226 49.855 26.0645 56.4033 23.5L57.5808 26.5C51.726 28.7903 46.7582 33.0484 43.6131 38.5L43.1615 39.2742L43.1453 39.2903Z" fill="black"/>
<path d="M51.4355 41.2255L48.7581 39.4352C52.5806 33.7255 57.7903 28.9997 63.8549 25.7578L65.371 28.5965C59.7742 31.5804 54.9516 35.9514 51.4355 41.2094V41.2255Z" fill="black"/>
<path d="M51.5967 21.21L48.4032 20.7262C49.3387 14.5487 48.1612 8.16163 45.0645 2.74228L47.8709 1.14551C51.3225 7.19389 52.6612 14.3229 51.5967 21.2262V21.21Z" fill="black"/>
<path d="M36.6775 34.3554L33.8872 32.7263C37.4033 26.7102 42.9033 22.0005 49.4033 19.4521L50.5807 22.4521C44.7581 24.7263 39.8227 28.9522 36.6775 34.3393V34.3554Z" fill="black"/>
<path d="M19.3549 98.3878H16.1291V35.4846H12.9033V98.3878H9.67749V32.2588H19.3549V98.3878Z" fill="black"/>
<path d="M90.3227 98.3878H87.0969V35.4846H83.8711V98.3878H80.6453V32.2588H90.3227V98.3878Z" fill="black"/>
<path d="M3.22581 96.7744H0V100H3.22581V96.7744Z" fill="black"/>
<path d="M93.5484 96.7744H6.45166V100H93.5484V96.7744Z" fill="black"/>
<path d="M100 96.7744H96.7742V100H100V96.7744Z" fill="black"/>
<path d="M18.8745 55.3098L16.5935 57.5908L29.4925 70.4898L31.7735 68.2088L18.8745 55.3098Z" fill="black"/>
<path d="M18.8723 37.5696L16.5913 39.8506L47.2364 70.4957L49.5174 68.2147L18.8723 37.5696Z" fill="black"/>
<path d="M35.0115 35.9505L32.7305 38.2314L64.9837 70.4846L67.2646 68.2036L35.0115 35.9505Z" fill="black"/>
<path d="M55.9761 39.1741L53.6951 41.4551L80.3028 68.0628L82.5838 65.7818L55.9761 39.1741Z" fill="black"/>
<path d="M70.491 35.9505L68.21 38.2314L81.109 51.1304L83.3899 48.8494L70.491 35.9505Z" fill="black"/>
<path d="M81.1173 55.3256L68.2183 68.2246L70.4993 70.5056L83.3982 57.6066L81.1173 55.3256Z" fill="black"/>
<path d="M81.1063 37.5815L50.4612 68.2266L52.7422 70.5076L83.3873 39.8625L81.1063 37.5815Z" fill="black"/>
<path d="M64.9834 35.9509L32.7302 68.2041L35.0112 70.4851L67.2644 38.2319L64.9834 35.9509Z" fill="black"/>
<path d="M44.0203 39.1841L16.6028 66.6016L18.8838 68.8826L46.3012 41.4651L44.0203 39.1841Z" fill="black"/>
<path d="M29.5001 35.9584L16.6011 48.8574L18.8821 51.1384L31.7811 38.2394L29.5001 35.9584Z" fill="black"/>
</svg>
