<svg width="700" height="400" viewBox="0 0 700 400" fill="none" xmlns="http://www.w3.org/2000/svg">
<mask id="mask0_580_13309" style="mask-type:alpha" maskUnits="userSpaceOnUse" x="0" y="0" width="700" height="400">
<rect width="700" height="400" transform="matrix(-1 0 0 1 700 0)" fill="white"/>
</mask>
<g mask="url(#mask0_580_13309)">
<path d="M73.534 149.215C74.5054 149.861 75.7423 149.79 76.6279 149.131L118.256 195.537C118.159 195.641 118.068 195.754 117.986 195.875C117.164 197.115 117.502 198.785 118.74 199.608C119.978 200.431 121.649 200.093 122.473 198.854C122.604 198.656 122.703 198.447 122.777 198.232L156.455 206.305C156.313 207.302 156.734 208.337 157.629 208.93C158.867 209.754 160.539 209.415 161.362 208.177C161.725 207.628 161.861 206.996 161.795 206.389L199.053 198.716C199.23 199.293 199.598 199.815 200.14 200.176C200.728 200.566 201.411 200.691 202.055 200.589L224.445 287.654C223.917 287.841 223.443 288.195 223.108 288.696C222.285 289.934 222.623 291.606 223.862 292.429C225.1 293.253 226.771 292.914 227.595 291.676C227.833 291.314 227.971 290.917 228.02 290.516L336.652 293.79C336.021 294.996 336.392 296.509 337.55 297.279C338.788 298.102 340.46 297.764 341.283 296.525C341.358 296.412 341.42 296.296 341.475 296.176L379.082 309.682C378.804 310.763 379.217 311.946 380.198 312.597C380.692 312.925 381.254 313.065 381.805 313.041L388.641 363.119L387.996 362.9L388.709 363.602L388.75 363.904L388.911 363.8L449.943 423.926C449.888 423.995 449.834 424.066 449.783 424.141C448.96 425.379 449.299 427.051 450.537 427.874C451.775 428.697 453.447 428.359 454.27 427.12C455.093 425.882 454.754 424.211 453.516 423.387C453.056 423.081 452.534 422.937 452.019 422.94L448.355 384.607C448.4 384.551 448.444 384.493 448.486 384.43C448.692 384.122 448.823 383.785 448.889 383.441L513.94 389.63C513.939 390.505 514.36 391.36 515.143 391.88C516.381 392.704 518.052 392.365 518.876 391.127C519.699 389.889 519.36 388.217 518.122 387.394C517.633 387.068 517.073 386.927 516.528 386.95L510.585 342.028C511.234 341.88 511.833 341.495 512.231 340.894C512.766 340.089 512.807 339.103 512.436 338.286L540.421 322.22C540.608 322.487 540.845 322.725 541.132 322.915C542.371 323.738 544.042 323.399 544.865 322.161C545.689 320.923 545.35 319.252 544.112 318.428C543.359 317.93 542.449 317.86 541.664 318.157L525.905 286.038C526.231 285.841 526.52 285.572 526.746 285.232C527.484 284.12 527.286 282.662 526.342 281.778L550.031 253.854C551.268 254.654 552.92 254.313 553.737 253.083C554.56 251.845 554.221 250.173 552.983 249.35C552.767 249.207 552.538 249.1 552.301 249.026L557.35 222.042C558.304 222.13 559.275 221.705 559.841 220.85C559.989 220.628 560.097 220.391 560.17 220.149L601.03 228.65C600.922 229.621 601.344 230.618 602.215 231.195C603.453 232.018 605.124 231.679 605.948 230.441C606.771 229.203 606.432 227.532 605.194 226.708C605.103 226.648 605.01 226.597 604.915 226.548L627.413 169.251C628.513 169.57 629.739 169.157 630.405 168.154C631.228 166.916 630.889 165.244 629.651 164.421C628.413 163.598 626.742 163.936 625.918 165.175C625.683 165.528 625.546 165.918 625.495 166.312L535.468 162.789C535.384 162.023 534.974 161.299 534.282 160.84C533.044 160.016 531.373 160.355 530.549 161.593C529.726 162.832 530.065 164.503 531.303 165.326C531.426 165.407 531.555 165.474 531.686 165.535L523.03 196.019C521.983 195.799 520.858 196.216 520.231 197.162C520.027 197.469 519.895 197.804 519.829 198.145L445.061 193.203C445.038 192.357 444.618 191.535 443.861 191.03C442.622 190.207 440.951 190.546 440.127 191.784C439.304 193.022 439.643 194.693 440.881 195.517C441.165 195.706 441.474 195.83 441.786 195.9L437.433 230.284C436.532 230.253 435.635 230.675 435.1 231.484L435.222 231.268L358.465 187.976C358.995 186.795 358.612 185.373 357.5 184.634C356.926 184.253 356.26 184.125 355.628 184.215L347.059 148.379C347.604 148.194 348.095 147.838 348.437 147.32C349.259 146.08 348.921 144.411 347.683 143.587C346.445 142.764 344.773 143.103 343.95 144.341C343.629 144.823 343.486 145.373 343.505 145.912L288.273 152.715C288.129 152.054 287.742 151.449 287.134 151.045C285.896 150.222 284.225 150.561 283.401 151.799C283.059 152.315 282.919 152.905 282.963 153.478L249.339 159.005C249.178 158.386 248.799 157.823 248.226 157.441C246.988 156.618 245.316 156.957 244.493 158.195C244.405 158.326 244.335 158.463 244.273 158.601L184.643 139.976C184.842 138.941 184.419 137.844 183.488 137.225C182.786 136.76 181.946 136.666 181.199 136.898L164.036 97.608C164.421 97.4047 164.763 97.1044 165.023 96.7165C165.846 95.4784 165.507 93.8068 164.269 92.9834C163.029 92.1615 161.36 92.499 160.536 93.7371C160.531 93.7468 160.526 93.7566 160.519 93.7644L129.967 81.3537L113.817 74.7935C114.03 73.7493 113.613 72.6334 112.67 72.0067C111.432 71.1833 109.761 71.5222 108.937 72.7603C108.298 73.7239 108.361 74.9452 109.001 75.8291L83.1356 104.207C83.1055 104.185 83.0759 104.161 83.0423 104.138C81.8042 103.315 80.1327 103.654 79.3093 104.892C78.4859 106.13 78.8248 107.802 80.0629 108.625C80.357 108.82 80.6752 108.949 81.0008 109.015L75.2116 144.287C74.2771 144.222 73.3351 144.645 72.7804 145.482C71.957 146.721 72.296 148.392 73.534 149.215ZM111.173 76.9422C112.048 76.9429 112.904 76.5226 113.424 75.7397C113.524 75.5878 113.605 75.4307 113.672 75.2713L131.984 82.7089L160.288 94.2055C160.188 94.4485 160.127 94.7002 160.102 94.9546L110.054 101.924L111.175 76.9442L111.173 76.9422ZM286.825 155.708L300.037 177.456L270.474 197.905C270.312 197.712 270.121 197.535 269.901 197.389C269.797 197.319 269.688 197.263 269.577 197.209L284.945 155.889C285.577 156.06 286.246 155.992 286.825 155.708ZM344.134 147.559C344.296 147.752 344.486 147.929 344.707 148.075C344.837 148.16 344.967 148.229 345.103 148.289L323.565 212.058C322.957 211.914 322.319 211.987 321.765 212.257L300.705 177.595L344.132 147.557L344.134 147.559ZM505.401 342.238L497.911 311.337L508.722 337.03C508.341 337.233 508.005 337.532 507.746 337.916C507.17 338.784 507.166 339.861 507.637 340.712L505.401 342.238ZM514.39 388.149C514.186 388.46 514.053 388.795 513.987 389.139L448.937 382.946C448.937 382.488 448.821 382.035 448.597 381.633L505.085 343.057L515.759 387.097C515.218 387.282 514.73 387.638 514.388 388.151L514.39 388.149ZM227.579 288.667C227.406 288.415 227.188 288.191 226.929 288.003L249.488 249.677C250.676 250.238 252.128 249.859 252.877 248.73L276.59 261.472L227.579 288.667ZM83.0572 108.619C83.104 108.587 83.1529 108.552 83.1969 108.516L106.232 139.649C106.064 139.799 105.913 139.969 105.782 140.164C105.44 140.676 105.302 141.264 105.341 141.835L97.5994 143.083L83.0572 108.619ZM150.704 183.784L159.038 191.942C158.983 192.007 158.932 192.077 158.883 192.15C158.579 192.609 158.435 193.126 158.434 193.636L149.801 194.422L110.58 144.503L150.704 183.784ZM159.384 191.587L130.243 163.058L110.114 143.352C110.169 143.286 110.22 143.217 110.269 143.143C110.541 142.734 110.683 142.279 110.711 141.82L161.655 140.283L160.917 190.954C160.359 190.999 159.821 191.214 159.385 191.584L159.384 191.587ZM105.42 142.326C105.58 142.948 105.959 143.515 106.536 143.897C107.093 144.268 107.739 144.402 108.356 144.325L119.412 194.782L97.7984 143.554L105.423 142.324L105.42 142.326ZM121.72 195.123C121.163 194.752 120.517 194.619 119.9 194.695L108.84 144.219C109.065 144.147 109.283 144.046 109.484 143.917L149.208 194.476L122.875 196.876C122.745 196.184 122.351 195.543 121.718 195.125L121.72 195.123ZM122.924 197.37L149.576 194.941L157.27 204.733C157.126 204.87 156.992 205.025 156.877 205.196C156.746 205.394 156.647 205.603 156.573 205.819L122.895 197.745C122.913 197.62 122.925 197.494 122.924 197.367L122.924 197.37ZM159.282 204.001C158.713 203.968 158.143 204.112 157.661 204.425L150.167 194.888L158.479 194.13C158.608 194.822 159.002 195.463 159.635 195.881C159.897 196.056 160.181 196.176 160.472 196.248L159.282 204.001ZM163.708 192.878L195.44 180.233L200.544 195.471C200.09 195.671 199.684 195.998 199.386 196.443C199.187 196.744 199.057 197.071 198.99 197.403L163.817 193.675C163.82 193.406 163.784 193.137 163.708 192.878ZM244.739 161.485C244.887 161.648 245.057 161.8 245.25 161.928C245.629 162.179 246.044 162.322 246.465 162.364L248.152 198.868L204.317 197.752C204.284 197.262 204.119 196.789 203.834 196.382L244.741 161.484L244.739 161.485ZM438.379 235.461L450.647 261.359C450.285 261.561 449.961 261.849 449.717 262.22C449.598 262.401 449.506 262.59 449.434 262.786L439.175 261.262L437.91 235.606C438.072 235.572 438.228 235.523 438.382 235.461L438.379 235.461ZM555.172 218.208C554.801 218.986 554.835 219.879 555.219 220.615L540.212 230.382L524.07 200.816C524.317 200.635 524.538 200.41 524.718 200.142L555.17 218.209L555.172 218.208ZM523.647 201.074L539.796 230.655L493.105 261.042C492.932 260.826 492.726 260.631 492.483 260.47C492.456 260.453 492.426 260.437 492.399 260.42L521.557 201.18C522.249 201.43 523.001 201.383 523.645 201.075L523.647 201.074ZM252.127 244.998C252.023 244.928 251.917 244.872 251.807 244.818L267.709 202.229C268.448 202.431 269.239 202.304 269.878 201.89L290.698 228.305L252.961 245.886C252.759 245.541 252.481 245.235 252.127 244.998ZM270.268 201.581C270.412 201.444 270.542 201.292 270.659 201.12C270.777 200.942 270.867 200.755 270.939 200.562L320.401 213.816C320.323 214.05 320.277 214.288 320.265 214.527L291.164 228.085L270.27 201.579L270.268 201.581ZM320.288 215.066C320.34 215.409 320.454 215.742 320.632 216.043L307.263 241.126L305.969 243.556C305.155 243.212 304.237 243.297 303.504 243.749L291.474 228.49L320.284 215.069L320.288 215.066ZM306.414 243.793C306.414 243.793 306.413 243.791 306.411 243.789L307.7 241.369L320.962 216.485C321.107 216.644 321.274 216.791 321.463 216.917C321.774 217.124 322.113 217.257 322.457 217.323L327.257 240.154L307.453 245.108C307.263 244.589 306.913 244.12 306.416 243.792L306.414 243.793ZM253.17 246.337L291.015 228.705L303.11 244.049C302.95 244.194 302.805 244.36 302.681 244.547C302.423 244.937 302.279 245.368 302.242 245.804L253.311 246.933C253.288 246.731 253.24 246.531 253.17 246.337ZM337.722 292.692L306.697 248.059C306.872 247.906 307.032 247.727 307.168 247.526C307.562 246.932 307.687 246.24 307.577 245.589L327.357 240.643L338.253 292.462C338.068 292.519 337.892 292.597 337.723 292.694L337.722 292.692ZM327.839 240.521L350.853 234.763C351.05 235.241 351.386 235.664 351.85 235.971C352.031 236.09 352.221 236.185 352.416 236.255L344.518 270.326L339.409 292.366C339.184 292.336 338.96 292.332 338.739 292.359L327.839 240.521ZM445.388 380.388L435.612 357.681L429.571 343.645C429.945 343.441 430.275 343.149 430.527 342.769C431.023 342.025 431.094 341.125 430.806 340.346L442.825 334.589L445.781 380.285C445.646 380.31 445.515 380.344 445.386 380.385L445.388 380.388ZM417.512 260.563L439.256 297.619C439 297.804 438.767 298.034 438.584 298.314C438.265 298.795 438.122 299.341 438.138 299.88L422.999 302.62L417 260.742C417.177 260.7 417.35 260.639 417.515 260.563L417.512 260.563ZM438.196 300.373C438.34 301.034 438.727 301.643 439.337 302.047C439.491 302.149 439.649 302.233 439.814 302.299L428.824 338.642C428.602 338.597 428.376 338.582 428.153 338.593L423.07 303.111L438.198 300.372L438.196 300.373ZM430.593 339.898C430.393 339.565 430.12 339.267 429.774 339.036C429.622 338.936 429.462 338.851 429.3 338.785L433.231 325.806L440.306 302.446C440.454 302.476 440.603 302.49 440.752 302.495L442.793 334.056L430.592 339.901L430.593 339.898ZM441.247 302.461C441.965 302.346 442.636 301.947 443.07 301.294C443.246 301.028 443.365 300.744 443.438 300.454L494.258 308.226C494.237 308.599 494.293 308.969 494.422 309.318L443.277 333.82L441.249 302.459L441.247 302.461ZM494.699 306.897C494.524 307.162 494.404 307.447 494.331 307.737L443.512 299.965C443.545 299.423 443.41 298.88 443.128 298.412L468.021 280.008L494.865 306.675C494.806 306.746 494.752 306.821 494.7 306.899L494.699 306.897ZM442.833 298.012C442.682 297.845 442.511 297.691 442.317 297.561C442.258 297.52 442.196 297.488 442.136 297.454L451.293 266.312C452.128 266.525 453.023 266.326 453.689 265.772L467.664 279.655L442.833 298.012ZM450.473 265.951C450.586 266.027 450.706 266.089 450.824 266.146L441.676 297.253C441.435 297.173 441.19 297.13 440.942 297.118L439.198 261.768L449.304 263.268C449.136 264.281 449.558 265.348 450.469 265.951L450.473 265.951ZM440.446 297.143C440.231 297.173 440.017 297.228 439.814 297.31L417.948 260.306C418.202 260.122 418.43 259.893 418.614 259.615C418.792 259.348 418.912 259.06 418.984 258.764L438.698 261.691L440.445 297.141L440.446 297.143ZM355.581 235.219C355.603 235.185 355.621 235.151 355.642 235.115L390.053 248.305L413.775 257.398C413.621 257.949 413.651 258.529 413.844 259.055L370.546 279.722L354.337 236.229C354.828 236.034 355.267 235.693 355.581 235.219ZM415.094 260.499C415.539 260.739 416.024 260.839 416.502 260.815L422.505 302.711L384.287 309.631C384.141 309.105 383.835 308.621 383.385 308.256L415.094 260.499ZM384.378 310.12L422.577 303.204L427.658 338.666C427.093 338.801 426.572 339.114 426.188 339.592L384.067 311.627C384.324 311.153 384.424 310.628 384.378 310.12ZM426.794 343.526C427.506 343.998 428.36 344.086 429.115 343.843L433.519 354.075L444.931 380.589C444.836 380.644 444.741 380.704 444.651 380.77L414.836 347.244L425.801 340.24C425.309 341.41 425.698 342.797 426.794 343.526ZM447.5 380.553C447.112 380.349 446.694 380.25 446.277 380.244L443.309 334.356L494.634 309.768C494.788 310.027 494.986 310.262 495.227 310.463L447.5 380.553ZM495.214 306.324L468.422 279.71L488.987 264.505C489.138 264.673 489.309 264.826 489.504 264.957C489.992 265.282 490.549 265.423 491.092 265.401L496.348 305.763C495.937 305.857 495.547 306.045 495.214 306.324ZM488.692 264.105L468.066 279.354L454.04 265.42C454.099 265.349 454.153 265.274 454.204 265.196C454.474 264.792 454.616 264.34 454.646 263.885L488.322 263.026C488.365 263.405 488.492 263.772 488.692 264.102L488.692 264.105ZM437.413 235.663L438.672 261.186L419.056 258.274C419.096 257.529 418.829 256.788 418.29 256.239L435.997 235.301C436.441 235.558 436.931 235.676 437.411 235.665L437.413 235.663ZM435.591 235.012L417.909 255.921C417.892 255.909 417.876 255.895 417.859 255.883C416.621 255.06 414.949 255.399 414.126 256.637C414.062 256.733 414.005 256.833 413.955 256.935L360.893 236.594L355.859 234.666C355.923 234.494 355.968 234.316 355.996 234.139L434.686 233.376C434.781 233.998 435.088 234.584 435.591 235.015L435.591 235.012ZM350.705 234.288L327.736 240.031L322.969 217.365C323.791 217.357 324.593 216.971 325.113 216.267L350.849 232.699C350.637 233.212 350.595 233.763 350.705 234.284L350.705 234.288ZM266.922 201.873C267.026 201.943 267.132 201.999 267.242 202.052L251.34 244.642C251.149 244.59 250.954 244.559 250.761 244.552L248.674 199.376L265.729 199.809C265.785 200.617 266.199 201.39 266.926 201.873L266.922 201.873ZM203.875 199.418C204.118 199.054 204.255 198.651 204.303 198.244L248.174 199.359L250.263 244.573C249.776 244.641 249.309 244.84 248.921 245.161L203.698 199.654C203.761 199.58 203.821 199.501 203.875 199.418ZM253.113 248.288C253.231 248.009 253.3 247.718 253.319 247.425L302.24 246.297C302.268 246.578 302.342 246.854 302.456 247.117L277.106 261.183L253.111 248.29L253.113 248.288ZM302.699 247.55C302.889 247.83 303.135 248.077 303.433 248.278C304.323 248.868 305.433 248.859 306.294 248.35L337.313 292.975C337.183 293.084 337.062 293.206 336.952 293.343L277.629 261.466L302.7 247.556L302.699 247.55ZM340.536 292.788C340.331 292.652 340.115 292.552 339.894 292.479L352.897 236.382C353.219 236.435 353.547 236.431 353.861 236.368L370.098 279.936L341.358 293.654C341.158 293.317 340.884 293.021 340.536 292.788ZM370.721 280.189L414.057 259.504C414.217 259.771 414.422 260.016 414.679 260.222L382.97 307.979C382.346 307.643 381.64 307.579 380.991 307.754L370.719 280.19L370.721 280.189ZM383.791 312.039L425.583 339.786L414.5 346.863L383.66 312.185C383.706 312.138 383.748 312.09 383.791 312.039ZM444.281 381.099C444.18 381.206 444.086 381.32 444.002 381.446C443.917 381.572 443.849 381.705 443.788 381.839L389.519 363.411L414.411 347.511L444.279 381.097L444.281 381.099ZM448.32 381.217C448.226 381.104 448.12 380.996 448.006 380.897L447.989 380.718L495.639 310.74C496.17 311.035 496.764 311.129 497.332 311.047L504.965 342.534L448.324 381.218L448.32 381.217ZM540.178 321.786L512.193 337.853C512.006 337.586 511.769 337.348 511.482 337.158C511.298 337.035 511.104 336.943 510.904 336.87L516.834 313.991L539.971 320.211C539.878 320.746 539.953 321.295 540.177 321.784L540.178 321.786ZM510.423 336.746C510.005 336.678 509.578 336.71 509.181 336.836L498.21 310.763C498.59 310.56 498.927 310.261 499.186 309.876C499.304 309.699 499.395 309.512 499.465 309.322L516.355 313.862L510.423 336.746ZM499.594 308.844C499.719 308.119 499.542 307.372 499.1 306.781L522.592 285.636C522.718 285.764 522.861 285.882 523.016 285.986C523.176 286.093 523.345 286.178 523.516 286.245L516.482 313.385L499.596 308.846L499.594 308.844ZM522.276 285.25L501.951 303.546L522.02 282.705C521.668 283.549 521.775 284.509 522.276 285.25ZM498.623 306.286C498.562 306.238 498.499 306.191 498.434 306.145C497.945 305.82 497.388 305.679 496.845 305.701L491.589 265.339C492.241 265.192 492.841 264.805 493.24 264.204C493.592 263.675 493.73 263.066 493.676 262.478L548.932 252.411C549.051 252.783 549.253 253.133 549.527 253.429L498.622 306.289L498.623 306.286ZM493.586 261.989C493.534 261.807 493.467 261.629 493.378 261.458L540.035 231.092L550.005 249.353C549.716 249.547 549.459 249.796 549.255 250.106C548.883 250.664 548.752 251.308 548.827 251.923L493.588 261.988L493.586 261.989ZM550.443 249.12L540.453 230.823L555.495 221.035C555.667 221.251 555.874 221.446 556.117 221.607C556.355 221.765 556.608 221.879 556.87 221.953L551.821 248.925C551.351 248.869 550.876 248.937 550.444 249.122L550.443 249.12ZM559.095 217.118C557.887 216.316 556.272 216.618 555.429 217.782L525.101 199.788L600.592 228.049L560.283 219.664C560.391 218.692 559.969 217.695 559.098 217.118L559.095 217.118ZM601.47 227.465C601.402 227.567 601.343 227.675 601.292 227.784L525.102 199.26C525.193 198.865 525.193 198.458 525.106 198.07L559.08 187.804L601.583 227.316C601.546 227.366 601.507 227.415 601.471 227.467L601.47 227.465ZM520.988 200.896C521.028 200.923 521.071 200.944 521.111 200.968L491.956 260.199C491.196 259.906 490.352 259.984 489.662 260.376L476.428 241.477L520.679 200.654C520.776 200.741 520.876 200.823 520.988 200.896ZM489.254 260.661C489.066 260.821 488.895 261.007 488.751 261.226C488.482 261.63 488.34 262.082 488.31 262.537L454.634 263.396C454.579 262.922 454.395 262.465 454.101 262.079L476.059 241.821L489.254 260.665L489.254 260.661ZM453.761 261.71C453.663 261.623 453.562 261.54 453.45 261.466C452.957 261.138 452.394 260.998 451.846 261.021L442.979 195.896C443.233 195.837 443.476 195.742 443.706 195.612L475.77 241.404L453.759 261.708L453.761 261.71ZM442.487 195.964L451.352 261.087C451.268 261.107 451.184 261.129 451.102 261.159L438.818 235.229C439.116 235.035 439.379 234.778 439.588 234.465C440.41 233.225 440.072 231.556 438.834 230.732C438.55 230.543 438.241 230.419 437.929 230.35L442.283 195.967C442.352 195.971 442.42 195.969 442.489 195.966L442.487 195.964ZM434.657 232.88L356.026 233.644C355.999 232.804 355.579 231.988 354.825 231.487C354.486 231.263 354.114 231.126 353.735 231.07L356.105 189.568C356.926 189.54 357.72 189.135 358.221 188.411L434.972 231.701C434.77 232.076 434.667 232.479 434.655 232.882L434.657 232.88ZM354.524 189.121C354.863 189.345 355.235 189.482 355.612 189.54L353.294 230.128L350.204 192.088L354.121 188.797C354.241 188.916 354.376 189.028 354.523 189.125L354.524 189.121ZM352.871 231.08C352.169 231.204 351.518 231.6 351.092 232.241C351.088 232.247 351.084 232.255 351.078 232.263L325.368 215.846C325.797 214.96 325.699 213.927 325.155 213.142L349.736 192.477L352.87 231.078L352.871 231.08ZM324.837 212.761C324.717 212.642 324.581 212.53 324.434 212.433C324.306 212.35 324.174 212.278 324.039 212.219L345.576 148.449C345.772 148.494 345.969 148.52 346.168 148.523L349.688 191.871L324.837 212.761ZM321.343 212.516C321.098 212.696 320.881 212.918 320.701 213.187C320.665 213.243 320.633 213.301 320.6 213.358L271.064 200.086C271.168 199.476 271.057 198.85 270.757 198.313L300.298 177.88L321.343 212.516ZM266.91 197.396C266.625 197.586 266.37 197.838 266.168 198.143C265.925 198.507 265.788 198.91 265.74 199.317L248.651 198.883L246.963 162.368C247.224 162.346 247.479 162.286 247.722 162.191L266.909 197.399L266.91 197.396ZM244.44 161.084L203.508 196.003C203.391 195.888 203.262 195.781 203.121 195.688C202.475 195.26 201.715 195.149 201.017 195.314L195.903 180.049L244.276 160.771C244.325 160.88 244.379 160.984 244.442 161.086L244.44 161.084ZM195.281 179.759L163.524 192.415C163.319 192.015 163.016 191.66 162.615 191.395C162.519 191.331 162.421 191.278 162.321 191.227L177.464 151.952L181.277 142.059C181.733 142.186 182.21 142.186 182.656 142.074L195.28 179.757L195.281 179.759ZM180.509 141.712C180.606 141.777 180.709 141.832 180.814 141.883L161.859 191.047C161.711 191.005 161.564 190.977 161.413 190.961L162.152 140.269L179.321 139.751C179.403 140.522 179.813 141.252 180.509 141.712ZM161.662 139.786L110.695 141.325C110.64 140.887 110.478 140.465 110.218 140.098L160.632 96.8472C160.81 97.0838 161.028 97.2954 161.288 97.4681C161.595 97.6721 161.931 97.8044 162.271 97.8697L161.659 139.785L161.662 139.786ZM160.099 95.4574C160.129 95.7912 160.22 96.1194 160.37 96.4208L109.897 139.722C109.782 139.609 109.654 139.504 109.514 139.414C109.164 139.182 108.783 139.046 108.393 138.991L110.033 102.431L160.1 95.4594L160.099 95.4574ZM107.896 138.966C107.45 138.987 107.016 139.118 106.63 139.351L83.5622 108.175C83.6469 108.079 83.7267 107.981 83.7994 107.872C84.1761 107.305 84.308 106.648 84.2219 106.023L109.53 102.498L107.896 138.966ZM82.6157 108.856L97.0909 143.163L77.6286 146.3C77.4689 145.677 77.0904 145.111 76.5134 144.729C76.2578 144.559 75.9841 144.441 75.7024 144.368L81.4959 109.072C81.8802 109.079 82.2606 109.007 82.6157 108.856ZM76.9969 148.8C77.0938 148.695 77.185 148.583 77.267 148.462C77.6091 147.949 77.7467 147.361 77.7081 146.79L97.2899 143.634L118.958 194.991C118.843 195.053 118.73 195.126 118.625 195.206L76.9969 148.8ZM161.696 205.901C161.519 205.323 161.15 204.802 160.609 204.44C160.347 204.265 160.063 204.146 159.772 204.073L160.963 196.321C161.888 196.377 162.818 195.953 163.367 195.126C163.566 194.825 163.695 194.498 163.763 194.165L198.936 197.894C198.934 198.004 198.939 198.115 198.95 198.226L161.692 205.9L161.696 205.901ZM202.536 200.461C202.826 200.359 203.099 200.207 203.343 200.006L248.566 245.513C248.503 245.587 248.443 245.666 248.389 245.749C247.585 246.958 247.891 248.58 249.06 249.421L226.501 287.747C225.998 287.51 225.452 287.441 224.928 287.525L202.538 200.46L202.536 200.461ZM228.039 290.014C228.02 289.7 227.944 289.388 227.817 289.098L277.108 261.749L335.751 293.262L228.037 290.015L228.039 290.014ZM341.648 295.703C341.787 295.168 341.753 294.609 341.568 294.102L370.268 280.403L380.524 307.926C380.102 308.131 379.726 308.443 379.448 308.861C379.373 308.975 379.312 309.091 379.256 309.211L341.649 295.705L341.648 295.703ZM382.301 312.97C382.653 312.887 382.989 312.734 383.286 312.517L414.072 347.136L389.138 363.062L382.299 312.971L382.301 312.97ZM451.524 422.983C451.077 423.068 450.65 423.267 450.293 423.569L389.895 364.065L443.628 382.308C443.374 383.376 443.789 384.536 444.755 385.179C445.748 385.838 447.012 385.75 447.902 385.057L451.528 422.983L451.524 422.983ZM515.773 385.036L505.524 342.753L507.914 341.122C508.078 341.32 508.273 341.499 508.498 341.647C508.987 341.973 509.547 342.114 510.094 342.093L515.774 385.038L515.773 385.036ZM541.218 318.373C540.892 318.571 540.601 318.841 540.377 319.18C540.259 319.357 540.171 319.543 540.098 319.734L516.956 313.511L523.988 286.382C524.484 286.479 524.992 286.429 525.459 286.254L541.218 318.373ZM525.949 281.471C525.148 280.961 524.176 280.925 523.369 281.299L546.261 257.528L525.951 281.47L525.949 281.471ZM604.455 226.364C603.569 226.108 602.606 226.327 601.913 226.945L559.623 187.633L625.664 167.677C625.861 168.161 626.201 168.594 626.668 168.907C626.759 168.968 626.854 169.02 626.947 169.067L604.453 226.365L604.455 226.364ZM625.475 166.808C625.482 166.94 625.496 167.072 625.523 167.202L559.205 187.24L534.948 164.689C534.978 164.65 535.008 164.611 535.036 164.569C535.301 164.172 535.443 163.729 535.477 163.283L625.475 166.808ZM532.153 165.696C533.021 165.908 533.947 165.675 534.613 165.06L558.651 187.407L524.946 197.59C524.747 197.123 524.415 196.706 523.961 196.405C523.814 196.307 523.661 196.227 523.503 196.161L532.153 165.696ZM519.78 198.637C519.778 199.228 519.97 199.81 520.336 200.285L476.134 241.061L444.108 195.324C444.297 195.164 444.467 194.978 444.611 194.759C444.831 194.427 444.966 194.065 445.026 193.695L519.779 198.635L519.78 198.637ZM353.766 185.386C353.138 186.332 353.188 187.529 353.798 188.41L350.152 191.476L346.705 149.03L355.144 184.329C354.599 184.514 354.108 184.87 353.765 185.389L353.766 185.386ZM343.567 146.403C343.624 146.663 343.719 146.915 343.851 147.147L300.447 177.169L287.249 155.448C287.493 155.267 287.713 155.044 287.89 154.777C288.211 154.295 288.354 153.745 288.335 153.206L343.567 146.403ZM283.042 153.969C283.202 154.588 283.582 155.151 284.155 155.532C284.259 155.602 284.368 155.659 284.478 155.712L269.111 197.032C268.519 196.873 267.898 196.922 267.345 197.158L248.164 161.964C248.479 161.768 248.761 161.503 248.978 161.172C249.321 160.656 249.46 160.067 249.417 159.493L283.041 153.967L283.042 153.969ZM244.115 159.072C244.02 159.479 244.023 159.899 244.117 160.297L195.744 179.575L183.128 141.911C183.566 141.71 183.958 141.39 184.244 140.956C184.351 140.793 184.437 140.627 184.506 140.451L244.119 159.07L244.115 159.072ZM180.739 137.086C180.353 137.29 180.011 137.59 179.752 137.978C179.489 138.374 179.346 138.811 179.312 139.253L162.158 139.77L162.77 97.9149C163.043 97.9148 163.316 97.8755 163.574 97.7944L180.739 137.086ZM109.331 76.205C109.441 76.3101 109.56 76.406 109.691 76.4933C109.999 76.6994 110.334 76.8317 110.678 76.8976L109.553 101.993L84.1094 105.537C83.9886 105.169 83.787 104.825 83.5114 104.535L109.333 76.2071L109.331 76.205Z" fill="#357E94"/>
<rect width="221.316" height="120.352" rx="10.23" transform="matrix(-1 0 0 1 343.316 14)" fill="#B4185C"/>
<path fill-rule="evenodd" clip-rule="evenodd" d="M339.424 21.8691C345.074 21.8691 349.654 26.4493 349.654 32.0991V72.9534C363.211 77.1215 371.224 85.2711 382 102.018C381.709 101.896 381.421 101.775 381.135 101.654C367.799 96.0438 359.639 92.6111 349.654 98.7386V131.991C349.654 137.641 345.074 142.221 339.424 142.221H138.568C132.918 142.221 128.338 137.641 128.338 131.991V32.0991C128.338 26.4493 132.918 21.8691 138.568 21.8691H339.424Z" fill="#F29EC3"/>
<path d="M318.277 42.9727H161.247" stroke="white" stroke-width="1.5" stroke-linecap="round" stroke-linejoin="round"/>
<path d="M318.277 54.0625H161.247" stroke="white" stroke-width="1.5" stroke-linecap="round" stroke-linejoin="round"/>
<path d="M318.277 65.1504H161.247" stroke="white" stroke-width="1.5" stroke-linecap="round" stroke-linejoin="round"/>
<path d="M318.277 76.2383H161.247" stroke="white" stroke-width="1.5" stroke-linecap="round" stroke-linejoin="round"/>
<path d="M318.277 87.3262H261.045" stroke="white" stroke-width="1.5" stroke-linecap="round" stroke-linejoin="round"/>
<path d="M318.277 99.1309H261.045" stroke="white" stroke-width="1.5" stroke-linecap="round" stroke-linejoin="round"/>
<path d="M318.277 110.936H261.045" stroke="white" stroke-width="1.5" stroke-linecap="round" stroke-linejoin="round"/>
<path d="M318.277 122.738H261.045" stroke="white" stroke-width="1.5" stroke-linecap="round" stroke-linejoin="round"/>
<rect x="-0.5" y="0.5" width="89.8557" height="36.9161" transform="matrix(-1 0 0 1 251.103 85.5391)" fill="white" stroke="white"/>
<path d="M218.815 243.967C214.382 248.716 207.608 262.202 215.965 278.158C226.413 298.102 255.38 312.348 253.955 333.718C254.058 337.992 251.51 349.863 240.493 363.16C229.476 376.456 247.142 392.444 257.114 399.25" stroke="#BF8888" stroke-width="1.5" stroke-linecap="round"/>
<path d="M229.533 229.024L303.883 169.647C303.979 170.992 312.728 183.099 317.091 188.985C292.248 203.993 241.434 234.767 236.918 237.793C231.273 241.575 229.232 236.651 228.212 234.188L228.212 234.188C227.395 232.219 228.753 229.925 229.533 229.024Z" fill="#F8D2A0"/>
<circle cx="318.053" cy="172.413" r="21.0323" transform="rotate(-4.07687 318.053 172.413)" fill="#FBE4C6"/>
<rect x="220.641" y="248.734" width="9.04621" height="14.5855" rx="1.77485" transform="rotate(-128.075 220.641 248.734)" fill="#F8D2A0"/>
<rect x="224.666" y="231.879" width="5.05696" height="11.6942" rx="2.52848" transform="rotate(-33.7539 224.666 231.879)" fill="#FBE4C6"/>
<path d="M277.533 397.826C275.957 397.826 274.684 396.719 274.684 395.348V213.204C274.684 211.833 275.957 210.727 277.533 210.727C279.11 210.727 280.383 211.833 280.383 213.204V395.348C280.383 396.719 279.11 397.826 277.533 397.826Z" fill="#BF8888"/>
<path d="M277.449 190.76L260.895 204.182C260.613 204.411 260.472 204.776 260.562 205.128C262.008 210.794 269.483 213.546 273.834 214.38C274.321 214.473 274.684 214.892 274.684 215.388V215.425C274.684 215.977 275.132 216.425 275.684 216.425H279.383C279.935 216.425 280.383 215.977 280.383 215.425V213.126C280.383 212.811 280.531 212.514 280.783 212.326L287.604 207.21C287.843 207.031 287.991 206.754 287.995 206.456C288.085 199.127 282.141 193.174 278.605 190.705C278.252 190.459 277.783 190.489 277.449 190.76Z" fill="#BF8888"/>
<path d="M305.977 382.229H233.894C228.097 382.229 223.398 385.164 223.398 388.785V393.717C223.398 397.338 228.097 400.274 233.894 400.274H305.977C311.774 400.274 316.473 397.338 316.473 393.717V388.785C316.473 385.164 311.774 382.229 305.977 382.229Z" fill="#DF8711"/>
<path d="M378.844 357.595L371.715 400.372H519.4L513.288 355.559L378.844 357.595Z" fill="#9F5656"/>
<path d="M530.449 208.615C530.449 208.615 542.828 210.266 546.956 215.219C551.083 220.171 575.017 313.434 575.017 313.434L527.973 346.447L499.912 298.578L530.45 208.615H530.449Z" fill="#BF8888"/>
<path d="M521.37 368.734L515.593 317.564L530.449 208.618L494.582 195.889L442.965 267.767L390.877 198.869L375.683 205.026C361.255 210.873 353.334 226.453 357.109 241.556L367.856 315.912L369.677 368.734H521.37Z" fill="#BF8888"/>
<path d="M494.581 195.885L480.654 191.56L442.138 185.506L405.347 192.275L390.874 198.867L442.962 267.765L494.581 195.885Z" fill="#BF8888"/>
<path d="M467.482 168.936H419.995V193.629H467.482V168.936Z" fill="#FFBE97"/>
<path d="M436.14 181.938C450.819 183.956 459.539 170.921 467.482 170.361V180.334C463.514 184.369 445.265 188.394 436.14 181.938Z" fill="#4F2B2B"/>
<path d="M474.002 104.264C474.002 104.264 488.756 86.3026 515.058 100.415C541.359 114.528 531.095 139.867 559.32 142.754C559.32 142.754 515.058 163.281 485.229 126.717L474.002 104.264Z" fill="#4F2B2B"/>
<path d="M394.703 146.142C373.225 121.254 402.076 103.22 402.076 103.22C402.076 103.22 411.219 79.2661 447.597 84.1043C482.859 88.7926 491.836 114.041 491.195 141.814L394.703 146.142Z" fill="#4F2B2B"/>
<path d="M397.201 150.415C396.91 150.415 394.316 146.959 394.111 146.722C387.742 139.339 385.013 131.772 386.001 124.227C387.678 111.446 399.394 103.175 401.483 101.793C402.914 98.6456 413.841 77.6362 448.255 82.2061C478.824 86.2731 493.91 106.24 493.094 141.551C493.079 142.19 492.626 142.705 492.06 142.732L397.676 151.365C399.663 154.216 400.425 155.166 397.676 151.365L397.201 150.415ZM438.85 83.9845C411.05 83.9845 403.379 102.931 403.298 103.141C403.203 103.385 403.038 103.592 402.833 103.72C402.702 103.802 389.774 112.039 388.136 124.592C387.27 131.216 389.69 137.961 395.329 144.642L490.963 140.352C491.419 106.757 477.36 88.5208 448.006 84.6158C444.736 84.18 441.688 83.9826 438.85 83.9826V83.9845Z" fill="#4F2B2B"/>
<path d="M486.372 135.708C485.734 135.744 485.114 135.855 484.514 136.019C483.231 115.521 470.04 94.8599 445.606 91.4529C421.072 88.0346 398.878 107.211 395.728 130.494C392.576 153.776 407.111 177.216 431.536 181.54C452.098 185.181 473.109 174.111 481.12 156.627C482.883 158.036 485.046 158.821 487.36 158.691C492.909 158.378 497.185 152.98 496.911 146.634C496.638 140.286 491.92 135.395 486.37 135.708H486.372Z" fill="#FFBE97"/>
<path d="M449.316 139.252C449.271 141.262 450.276 142.913 451.556 142.941C452.836 142.969 453.909 141.363 453.948 139.353C453.993 137.343 452.988 135.692 451.708 135.664C450.428 135.636 449.355 137.242 449.316 139.252Z" fill="#4F2B2B"/>
<path d="M417.828 139.077C417.783 141.087 418.788 142.737 420.068 142.765C421.349 142.794 422.421 141.188 422.46 139.178C422.505 137.167 421.5 135.517 420.22 135.489C418.94 135.461 417.867 137.066 417.828 139.077Z" fill="#4F2B2B"/>
<path d="M406.698 132.446C410.339 128.964 419.52 124.278 427.118 133.396" stroke="#4F2B2B" stroke-width="1.5" stroke-linecap="round" stroke-linejoin="round"/>
<path d="M444.688 131.495C448.329 128.013 457.51 123.327 465.108 132.445" stroke="#4F2B2B" stroke-width="1.5" stroke-linecap="round" stroke-linejoin="round"/>
<path d="M416.075 155.395C407.238 155.395 400.051 148.208 400.051 139.37C400.051 130.533 407.238 123.346 416.075 123.346C424.913 123.346 432.1 130.533 432.1 139.37C432.1 148.208 424.913 155.395 416.075 155.395ZM416.075 124.716C407.996 124.716 401.426 131.291 401.426 139.365C401.426 147.439 408.001 154.014 416.075 154.014C424.149 154.014 430.724 147.439 430.724 139.365C430.724 131.291 424.149 124.716 416.075 124.716Z" fill="white"/>
<path d="M454.425 155.395C445.587 155.395 438.4 148.208 438.4 139.37C438.4 130.533 445.587 123.346 454.425 123.346C463.262 123.346 470.449 130.533 470.449 139.37C470.449 148.208 463.262 155.395 454.425 155.395ZM454.425 124.716C446.345 124.716 439.776 131.291 439.776 139.365C439.776 147.439 446.351 154.014 454.425 154.014C462.499 154.014 469.074 147.439 469.074 139.365C469.074 131.291 462.499 124.716 454.425 124.716Z" fill="white"/>
<path d="M440.028 135.126C436.311 134.245 433.178 134.245 430.455 135.11L430.039 133.796C433.01 132.852 436.378 132.847 440.348 133.779L440.034 135.121L440.028 135.126Z" fill="white"/>
<path d="M431.223 154.604C431.016 154.604 430.808 154.509 430.673 154.329L425.94 148.063L434.491 135.772C434.71 135.458 435.137 135.385 435.451 135.598C435.766 135.817 435.839 136.244 435.626 136.558L427.641 148.035L431.774 153.51C432.004 153.813 431.942 154.245 431.639 154.475C431.515 154.571 431.369 154.616 431.223 154.616V154.604Z" fill="#4F2B2B"/>
<path d="M450.386 166.086C450.07 169.41 446.208 175.298 433.291 172.259" stroke="#4F2B2B" stroke-width="1.5" stroke-linecap="round" stroke-linejoin="round"/>
<path d="M491.21 149.529L485.406 149.815C484.472 149.861 483.676 149.141 483.63 148.205C483.583 147.271 484.304 146.475 485.24 146.429L491.044 146.143C491.978 146.097 492.774 146.817 492.82 147.753C492.866 148.687 492.146 149.483 491.21 149.529Z" fill="#4F2B2B"/>
<path d="M418.785 159.455C418.794 157.38 415.674 155.685 411.816 155.668C407.959 155.651 404.824 157.319 404.815 159.394C404.806 161.469 407.926 163.164 411.784 163.181C415.641 163.198 418.776 161.53 418.785 159.455Z" fill="#FF9D6C"/>
<path d="M468.99 159.459C468.999 157.384 465.879 155.689 462.021 155.672C458.164 155.655 455.029 157.323 455.02 159.398C455.011 161.473 458.131 163.168 461.989 163.185C465.846 163.202 468.981 161.533 468.99 159.459Z" fill="#FF9D6C"/>
<path d="M413.571 88.9541C413.571 88.9541 386.433 108.558 389.912 133.126L397.677 151.364C397.677 151.364 389.216 125.838 413.571 117.648C413.571 117.648 413.604 123.519 430.443 128.57C432.723 129.253 435.816 119.892 434.717 117.648C434.717 117.648 441.563 125.125 448.295 125.373C450.795 125.465 452.532 122.722 451.506 120.281L451.376 119.972C451.376 119.972 472.318 143.902 486.003 135.218C486.003 135.218 484.079 58.679 413.571 88.9522V88.9541Z" fill="#4F2B2B"/>
<path d="M439.111 191.836H448.464L457.268 203.39L453.141 211.643L435.259 211.368L431.407 203.115L439.111 191.836Z" fill="#9F5656"/>
<path d="M435.259 211.367L427.006 246.306L442.963 267.766L461.396 242.454L453.142 211.642L435.259 211.367Z" fill="#9F5656"/>
<path d="M453.141 212.715H453.124L435.242 212.441C434.833 212.434 434.461 212.194 434.288 211.822L430.438 203.569C430.279 203.226 430.31 202.824 430.524 202.512L438.227 191.233C438.428 190.94 438.758 190.766 439.112 190.766H448.467C448.802 190.766 449.116 190.922 449.32 191.187L458.124 202.742C458.371 203.068 458.414 203.505 458.229 203.872L454.103 212.125C453.92 212.488 453.549 212.717 453.144 212.717L453.141 212.715ZM435.946 210.307L452.485 210.562L456.012 203.51L447.936 192.909H439.678L432.639 203.217L435.948 210.309L435.946 210.307Z" fill="#9F5656"/>
<path d="M418.657 180.244L406.278 191.523L422.509 212.432L438.466 191.799L418.657 180.244Z" fill="#FBE4C6"/>
<path d="M468.948 179.572L481.329 190.851L465.098 211.76L449.14 191.128L468.948 179.572Z" fill="#FBE4C6"/>
<path d="M442.963 268.839C442.624 268.839 442.305 268.68 442.103 268.407L426.145 246.949C425.955 246.696 425.89 246.372 425.962 246.064L434.215 211.124C434.351 210.546 434.929 210.196 435.504 210.326C436.082 210.462 436.439 211.04 436.302 211.615L428.163 246.069L442.953 265.96L460.227 242.24L452.107 211.921C451.954 211.35 452.293 210.762 452.865 210.609C453.436 210.457 454.026 210.796 454.178 211.367L462.431 242.18C462.515 242.492 462.452 242.826 462.263 243.087L443.831 268.399C443.629 268.675 443.231 268.78 442.965 268.839H442.963Z" fill="#9F5656"/>
<path d="M576.668 316.736C572.696 303.828 543.655 275.469 543.655 275.469L512.292 302.704C512.292 302.704 512.877 325.94 518.069 338.194C538.703 386.889 586.572 348.924 576.668 316.735V316.736Z" fill="#BF8888"/>
<path d="M485.381 308.828L489.994 304.81L485.381 302.801V308.828Z" fill="#4F2B2B"/>
<path d="M532.701 209.766C533.296 208.318 533.293 206.723 532.689 205.279C532.095 203.853 530.987 202.74 529.568 202.138C529.548 202.13 529.53 202.121 529.51 202.113C526.52 200.883 523.088 202.314 521.858 205.304L517.453 216.006L528.295 220.467L532.699 209.766H532.701Z" fill="#F8D2A0"/>
<path d="M485.306 303.233L489.994 305.146L496.022 298.784L485.508 294.096L485.306 303.233Z" fill="#FBE4C6"/>
<path d="M517.592 215.988L485.366 294.292L496.188 298.802L528.433 220.45L517.592 215.988Z" fill="#DF8711"/>
<path d="M526.683 241.767L499.374 238.409C497.262 238.138 495.282 239.274 494.418 241.203C493.802 242.576 493.812 244.259 494.446 245.705C494.992 246.948 495.927 247.844 497.076 248.224C497.162 248.252 497.227 248.306 497.298 248.351L517.541 252.477C518.121 252.597 518.495 253.161 518.376 253.742C518.258 254.324 517.69 254.699 517.111 254.579L494.958 250.063C492.488 249.642 490.119 251.354 489.703 253.856C489.509 255.025 489.859 256.304 490.665 257.365C491.473 258.428 492.636 259.155 493.858 259.357C494.009 259.382 494.145 259.439 494.265 259.518L515.648 263.876C516.228 263.996 516.602 264.561 516.483 265.141C516.365 265.723 515.794 266.098 515.218 265.978L493.065 261.462C490.596 261.038 488.225 262.753 487.809 265.256C487.608 266.468 487.891 267.685 488.606 268.687C489.322 269.687 490.382 270.348 491.596 270.55L513.788 275.073C514.368 275.193 514.741 275.757 514.623 276.338C514.505 276.92 513.94 277.297 513.358 277.175L491.205 272.659C488.754 272.249 486.365 273.948 485.948 276.453C485.74 277.713 486.027 279.096 486.736 280.252C487.453 281.418 488.481 282.167 489.634 282.357L500.994 286.138C501.288 286.239 501.527 286.461 501.645 286.747L503.046 290.158C505.676 296.562 511.26 301.368 517.985 303.014C526.552 305.108 535.367 302 540.444 295.08C544.266 289.875 546.103 285.193 545.906 281.167C545.715 279.749 539.47 260.648 535.383 248.798C534.058 244.96 530.724 242.266 526.683 241.771V241.767Z" fill="#FFBE97"/>
<path d="M526.945 239.642L499.635 236.284C496.601 235.917 493.716 237.535 492.463 240.325C491.601 242.244 491.609 244.578 492.483 246.566C492.706 247.076 492.989 247.535 493.302 247.959C490.465 248.361 488.082 250.535 487.588 253.503C487.297 255.253 487.797 257.133 488.958 258.663C489.254 259.053 489.59 259.408 489.95 259.728C487.787 260.559 486.1 262.46 485.695 264.904C485.401 266.68 485.815 268.468 486.863 269.934C487.151 270.335 487.483 270.69 487.84 271.014C485.797 271.892 484.227 273.749 483.835 276.099C483.542 277.861 483.934 279.783 484.911 281.372C485.957 283.076 487.511 284.176 489.118 284.43L499.849 288.015L501.065 290.972C503.953 298.008 510.089 303.287 517.475 305.095C519.419 305.572 521.376 305.802 523.305 305.802C530.714 305.802 537.735 302.393 542.171 296.348C546.293 290.737 548.27 285.592 548.047 281.061C547.972 279.548 540.531 257.148 537.41 248.097C535.815 243.478 531.805 240.239 526.945 239.642ZM540.444 295.079C535.366 301.998 526.55 305.106 517.985 303.013C511.26 301.366 505.676 296.561 503.046 290.156L501.645 286.745C501.527 286.459 501.29 286.237 500.994 286.137L489.634 282.356C488.481 282.165 487.453 281.417 486.736 280.251C486.027 279.096 485.74 277.711 485.949 276.451C486.365 273.947 488.754 272.246 491.205 272.657L513.358 277.173C513.941 277.295 514.505 276.918 514.623 276.336C514.742 275.757 514.368 275.192 513.788 275.071L491.596 270.549C490.384 270.348 489.322 269.687 488.606 268.685C487.891 267.685 487.608 266.467 487.809 265.255C488.225 262.751 490.596 261.036 493.065 261.46L515.219 265.977C515.794 266.097 516.365 265.722 516.483 265.139C516.602 264.56 516.228 263.995 515.648 263.875L494.266 259.516C494.146 259.437 494.009 259.38 493.858 259.355C492.636 259.153 491.473 258.426 490.665 257.363C489.858 256.303 489.508 255.023 489.703 253.854C490.119 251.352 492.488 249.64 494.958 250.061L517.111 254.577C517.689 254.697 518.258 254.322 518.376 253.74C518.495 253.161 518.121 252.596 517.541 252.476L497.298 248.349C497.226 248.303 497.16 248.25 497.076 248.222C495.927 247.841 494.993 246.946 494.446 245.703C493.812 244.257 493.802 242.575 494.419 241.201C495.284 239.272 497.262 238.136 499.374 238.407L526.683 241.766C530.724 242.262 534.058 244.955 535.384 248.793C539.471 260.643 545.715 279.746 545.906 281.162C546.103 285.188 544.266 289.87 540.444 295.075V295.079Z" fill="#FFBE97"/>
<path d="M494.682 249.218L514.975 253.098C516.578 253.404 518.024 254.256 519.068 255.51L520.802 257.59" stroke="#4F2B2B" stroke-width="1.41034" stroke-linecap="round"/>
<path d="M490.648 261.277L510.941 265.156C512.543 265.463 513.99 266.315 515.034 267.568L516.768 269.648" stroke="#4F2B2B" stroke-width="1.41034" stroke-linecap="round"/>
<path d="M488.639 271.322L508.932 275.201C510.534 275.508 511.98 276.36 513.025 277.613L514.758 279.693" stroke="#4F2B2B" stroke-width="1.41034" stroke-linecap="round"/>
<path d="M448.74 220.723H332.643L351.9 347.274H467.998L448.74 220.723Z" fill="#FCE9CC"/>
<path d="M335.979 290.602L352.133 286.533C355.73 285.625 358.032 282.055 357.373 278.404C356.715 274.751 353.309 272.2 349.625 272.616C349.458 272.634 349.304 272.608 349.159 272.559C348.809 272.639 348.465 272.74 348.1 272.779L333.178 274.401C333.139 274.409 333.107 274.432 333.066 274.437C331.094 274.654 329.353 275.649 328.165 277.239C326.978 278.83 326.517 280.782 326.869 282.736L327.274 284.986C327.626 286.941 328.739 288.609 330.407 289.684C332.074 290.76 334.056 291.087 335.979 290.6V290.602Z" fill="#FFBE97"/>
<path d="M331.307 272.447L347.867 270.648C351.554 270.246 354.327 267.026 354.181 263.321C354.034 259.614 351.015 256.627 347.306 256.52L330.654 256.038C330.583 256.036 330.512 256.033 330.442 256.033C328.535 256.033 326.758 256.777 325.411 258.137C324.014 259.549 323.291 261.418 323.37 263.403L323.46 265.686C323.539 267.669 324.411 269.477 325.916 270.771C327.419 272.067 329.333 272.661 331.307 272.445V272.447Z" fill="#FFBE97"/>
<path d="M354.111 301.833C354.111 301.833 354.111 301.833 354.115 301.833L354.258 301.781C357.499 300.606 359.295 297.09 358.348 293.778C357.401 290.465 354.016 288.423 350.645 289.148C350.597 289.158 350.551 289.145 350.503 289.148L336.5 292.674C336.232 292.742 335.963 292.783 335.691 292.826C333.688 293.26 331.978 294.437 331.001 296.064C330.149 297.482 329.94 299.067 330.394 300.656L330.983 302.716C331.491 304.491 332.675 305.928 334.318 306.769C335.959 307.608 337.819 307.726 339.556 307.099L354.111 301.832V301.833Z" fill="#FFBE97"/>
<path d="M354.812 303.86C354.812 303.86 354.809 303.86 354.807 303.86L342.438 308.337C342.349 308.404 342.257 308.47 342.145 308.508C340.796 308.973 339.801 309.857 339.264 311.061C338.693 312.345 338.716 313.85 339.331 315.3L340.028 316.945C340.609 318.313 341.698 319.35 343.096 319.861C344.495 320.369 345.994 320.28 347.321 319.608L358.94 313.708C361.42 312.452 362.513 309.462 361.427 306.903C360.322 304.294 357.416 302.961 354.811 303.86H354.812Z" fill="#FFBE97"/>
<path d="M358.233 301.657C360.35 299.476 361.292 296.277 360.407 293.189C359.638 290.495 357.652 288.457 355.202 287.49C358.353 285.546 360.167 281.834 359.481 278.022C358.84 274.463 356.197 271.71 352.891 270.774C355.087 268.993 356.442 266.239 356.322 263.236C356.131 258.408 352.197 254.518 347.368 254.377L330.716 253.895C328.188 253.819 325.68 254.817 323.888 256.63C322.097 258.442 321.128 260.94 321.228 263.486L321.319 265.769C321.421 268.317 322.587 270.731 324.516 272.395C325.567 273.3 326.817 273.915 328.136 274.272C327.513 274.764 326.929 275.308 326.447 275.953C324.922 277.995 324.307 280.604 324.758 283.112L325.162 285.362C325.615 287.87 327.103 290.1 329.243 291.482C329.925 291.922 330.665 292.253 331.43 292.498C330.527 293.182 329.739 294 329.162 294.958C328.014 296.869 327.72 299.103 328.332 301.246L328.92 303.307C329.583 305.624 331.195 307.581 333.34 308.676C334.58 309.311 335.946 309.63 337.316 309.63C337.425 309.63 337.532 309.607 337.64 309.602C337.528 309.798 337.394 309.979 337.301 310.186C336.486 312.017 336.504 314.128 337.352 316.135L338.05 317.78C338.854 319.674 340.423 321.164 342.356 321.872C343.18 322.173 344.046 322.322 344.91 322.322C346.074 322.322 347.234 322.052 348.286 321.518L359.906 315.619C363.386 313.852 364.919 309.657 363.396 306.063C362.427 303.782 360.463 302.205 358.228 301.654L358.233 301.657ZM325.916 270.774C324.411 269.478 323.539 267.672 323.46 265.688L323.37 263.406C323.291 261.422 324.016 259.552 325.411 258.139C326.758 256.779 328.537 256.036 330.442 256.036C330.512 256.036 330.583 256.038 330.654 256.041L347.306 256.523C351.013 256.63 354.034 259.616 354.181 263.323C354.329 267.03 351.556 270.249 347.867 270.65L331.307 272.45C329.333 272.665 327.419 272.071 325.916 270.775V270.774ZM330.405 289.682C328.738 288.607 327.624 286.939 327.272 284.984L326.868 282.734C326.516 280.781 326.976 278.828 328.164 277.237C329.351 275.647 331.093 274.652 333.065 274.435C333.106 274.43 333.139 274.407 333.177 274.399L348.099 272.777C348.464 272.737 348.808 272.637 349.158 272.557C349.303 272.606 349.459 272.631 349.623 272.614C353.307 272.198 356.713 274.749 357.371 278.402C358.029 282.051 355.727 285.622 352.131 286.531L335.978 290.6C334.055 291.085 332.073 290.76 330.405 289.684V289.682ZM334.318 306.77C332.675 305.932 331.491 304.492 330.983 302.718L330.394 300.657C329.94 299.068 330.149 297.483 331.001 296.065C331.978 294.437 333.688 293.259 335.691 292.827C335.963 292.784 336.234 292.743 336.501 292.676L350.503 289.149C350.551 289.146 350.595 289.159 350.645 289.149C354.016 288.423 357.399 290.465 358.348 293.779C359.295 297.092 357.5 300.608 354.258 301.782L354.115 301.835C354.115 301.835 354.115 301.835 354.112 301.835L339.556 307.103C337.82 307.729 335.961 307.611 334.318 306.772V306.77ZM358.94 313.707L347.321 319.607C345.994 320.278 344.494 320.368 343.096 319.86C341.699 319.349 340.609 318.314 340.028 316.944L339.331 315.299C338.716 313.849 338.693 312.344 339.264 311.06C339.8 309.854 340.796 308.971 342.145 308.507C342.257 308.469 342.349 308.403 342.438 308.336L354.807 303.859C354.807 303.859 354.811 303.859 354.812 303.859C357.416 302.96 360.323 304.295 361.429 306.902C362.514 309.461 361.422 312.453 358.942 313.707H358.94Z" fill="#FFBE97"/>
<path d="M322.496 282.438C318.018 256.035 326.299 253.815 332.588 254.75L347.945 318.889C348.384 320.758 346.889 324.729 336.007 321.925C325.126 319.121 324.497 294.238 322.496 282.438Z" fill="#FFBE97"/>
<path d="M352.799 271.328L336.625 272.031" stroke="#4F2B2B" stroke-width="1.41034" stroke-linecap="round"/>
<path d="M354.808 287.4L338.635 290.079" stroke="#4F2B2B" stroke-width="1.41034" stroke-linecap="round"/>
<path d="M358.156 302.135L342.653 306.153" stroke="#4F2B2B" stroke-width="1.41034" stroke-linecap="round"/>
<path d="M556.298 287.066C563.219 295.326 578.064 313.856 577.395 317.539" stroke="#4F2B2B" stroke-width="1.41034" stroke-linecap="round"/>
</g>
</svg>
