<?xml version="1.0" encoding="utf-8"?>
<!-- Generator: Adobe Illustrator 28.1.0, SVG Export Plug-In . SVG Version: 6.00 Build 0)  -->
<svg version="1.1" id="Layer_1" xmlns="http://www.w3.org/2000/svg" xmlns:xlink="http://www.w3.org/1999/xlink" x="0px" y="0px"
	 viewBox="0 0 470 250" style="enable-background:new 0 0 470 250;" xml:space="preserve">
<style type="text/css">
	.st0{fill:#B06D6D;}
	.st1{fill:#0151A1;}
	.st2{fill:#FFFFFF;}
	.st3{fill:#DF8711;}
	.st4{fill:#4F2B2B;}
	.st5{fill:#FFBE97;}
	.st6{fill:#854747;}
	.st7{fill:#FB8876;}
	.st8{fill:#28151F;}
</style>
<path class="st0" d="M358.1,56.8H252.9c-2.9,0-5.3,2.4-5.3,5.3v148.2c0,2.9,2.4,5.3,5.3,5.3h105.2c2.9,0,5.3-2.4,5.3-5.3V62.2
	C363.4,59.2,361,56.8,358.1,56.8z"/>
<path class="st1" d="M358.9,216.2H252.1c-0.3,0-0.5-0.2-0.5-0.5s0.2-0.5,0.5-0.5h106.8c2.2,0,4-1.8,4-4V61.3c0-0.3,0.2-0.5,0.5-0.5
	s0.5,0.2,0.5,0.5v149.9C363.9,213.9,361.6,216.2,358.9,216.2L358.9,216.2z"/>
<rect x="257.8" y="67.1" class="st2" width="95.4" height="138.4"/>
<rect x="276.6" y="50.5" class="st3" width="57.8" height="20"/>
<path class="st1" d="M334.4,71h-57.8c-0.3,0-0.5-0.2-0.5-0.5s0.2-0.5,0.5-0.5h57.3V50.5c0-0.3,0.2-0.5,0.5-0.5s0.5,0.2,0.5,0.5v20
	C334.9,70.8,334.7,71,334.4,71L334.4,71z"/>
<rect x="269.1" y="90.8" class="st3" width="9.5" height="9.4"/>
<rect x="269.1" y="111.3" class="st3" width="9.5" height="9.4"/>
<rect x="269.1" y="131.7" class="st3" width="9.5" height="9.4"/>
<rect x="269.1" y="152.2" class="st3" width="9.5" height="9.4"/>
<rect x="269.1" y="172.6" class="st3" width="9.5" height="9.4"/>
<path class="st4" d="M306.9,93.7h-17.6c-0.9,0-1.6-0.7-1.6-1.6c0-0.9,0.7-1.6,1.6-1.6h17.6c0.9,0,1.6,0.7,1.6,1.6
	C308.5,93,307.8,93.7,306.9,93.7z"/>
<path class="st4" d="M332.2,93.7h-18.4c-0.9,0-1.6-0.7-1.6-1.6c0-0.9,0.7-1.6,1.6-1.6h18.4c0.9,0,1.6,0.7,1.6,1.6
	C333.8,93,333.1,93.7,332.2,93.7z"/>
<path class="st4" d="M297.1,100.7h-7.8c-0.9,0-1.6-0.7-1.6-1.6c0-0.9,0.7-1.6,1.6-1.6h7.8c0.9,0,1.6,0.7,1.6,1.6
	S298,100.7,297.1,100.7z"/>
<path class="st4" d="M324.6,100.7H304c-0.9,0-1.6-0.7-1.6-1.6c0-0.9,0.7-1.6,1.6-1.6h20.6c0.9,0,1.6,0.7,1.6,1.6
	S325.5,100.7,324.6,100.7z"/>
<path class="st4" d="M315,114.2h-25.8c-0.9,0-1.6-0.7-1.6-1.6c0-0.9,0.7-1.6,1.6-1.6H315c0.9,0,1.6,0.7,1.6,1.6
	C316.6,113.5,315.9,114.2,315,114.2z"/>
<path class="st4" d="M332.2,114.2h-10.3c-0.9,0-1.6-0.7-1.6-1.6c0-0.9,0.7-1.6,1.6-1.6h10.3c0.9,0,1.6,0.7,1.6,1.6
	C333.8,113.5,333.1,114.2,332.2,114.2z"/>
<path class="st4" d="M303.2,121.1h-13.9c-0.9,0-1.6-0.7-1.6-1.6c0-0.9,0.7-1.6,1.6-1.6h13.9c0.9,0,1.6,0.7,1.6,1.6
	C304.8,120.4,304.1,121.1,303.2,121.1z"/>
<path class="st4" d="M324.6,121.1h-14.5c-0.9,0-1.6-0.7-1.6-1.6c0-0.9,0.7-1.6,1.6-1.6h14.5c0.9,0,1.6,0.7,1.6,1.6
	C326.2,120.4,325.5,121.1,324.6,121.1z"/>
<path class="st4" d="M301.9,134.6h-12.7c-0.9,0-1.6-0.7-1.6-1.6c0-0.9,0.7-1.6,1.6-1.6h12.7c0.9,0,1.6,0.7,1.6,1.6
	C303.5,133.9,302.8,134.6,301.9,134.6z"/>
<path class="st4" d="M340.6,134.6h-31.7c-0.9,0-1.6-0.7-1.6-1.6c0-0.9,0.7-1.6,1.6-1.6h31.7c0.9,0,1.6,0.7,1.6,1.6
	C342.2,133.9,341.5,134.6,340.6,134.6z"/>
<path class="st4" d="M316.3,141.5h-27.1c-0.9,0-1.6-0.7-1.6-1.6c0-0.9,0.7-1.6,1.6-1.6h27.1c0.9,0,1.6,0.7,1.6,1.6
	S317.2,141.5,316.3,141.5z"/>
<path class="st4" d="M332.3,141.5h-9.1c-0.9,0-1.6-0.7-1.6-1.6c0-0.9,0.7-1.6,1.6-1.6h9.1c0.9,0,1.6,0.7,1.6,1.6
	C334,140.8,333.2,141.5,332.3,141.5z"/>
<path class="st4" d="M312,155.1h-22.7c-0.9,0-1.6-0.7-1.6-1.6c0-0.9,0.7-1.6,1.6-1.6H312c0.9,0,1.6,0.7,1.6,1.6
	C313.6,154.4,312.9,155.1,312,155.1z"/>
<path class="st4" d="M336.7,155.1h-17.8c-0.9,0-1.6-0.7-1.6-1.6c0-0.9,0.7-1.6,1.6-1.6h17.8c0.9,0,1.6,0.7,1.6,1.6
	S337.6,155.1,336.7,155.1z"/>
<path class="st4" d="M302.9,162h-13.6c-0.9,0-1.6-0.7-1.6-1.6c0-0.9,0.7-1.6,1.6-1.6h13.6c0.9,0,1.6,0.7,1.6,1.6
	C304.5,161.2,303.8,162,302.9,162z"/>
<path class="st4" d="M324.6,162h-14.8c-0.9,0-1.6-0.7-1.6-1.6c0-0.9,0.7-1.6,1.6-1.6h14.8c0.9,0,1.6,0.7,1.6,1.6
	S325.5,162,324.6,162z"/>
<path class="st4" d="M300.6,175.5h-11.3c-0.9,0-1.6-0.7-1.6-1.6s0.7-1.6,1.6-1.6h11.3c0.9,0,1.6,0.7,1.6,1.6
	S301.5,175.5,300.6,175.5z"/>
<path class="st4" d="M340.6,175.5h-33.1c-0.9,0-1.6-0.7-1.6-1.6s0.7-1.6,1.6-1.6h33.1c0.9,0,1.6,0.7,1.6,1.6
	S341.5,175.5,340.6,175.5z"/>
<path class="st4" d="M310,182.4h-20.8c-0.9,0-1.6-0.7-1.6-1.6c0-0.9,0.7-1.6,1.6-1.6H310c0.9,0,1.6,0.7,1.6,1.6
	S310.9,182.4,310,182.4z"/>
<path class="st4" d="M332.1,182.4h-15.1c-0.9,0-1.6-0.7-1.6-1.6c0-0.9,0.7-1.6,1.6-1.6h15.1c0.9,0,1.6,0.7,1.6,1.6
	C333.7,181.7,333,182.4,332.1,182.4z"/>
<polygon class="st5" points="224.1,189.2 234.3,169.3 252.6,157.3 270.8,192 237.1,210.9 "/>
<path class="st5" d="M252.6,157.3l32.9-6.8c2.2-0.5,4.4,0.9,5.1,3.1c0.6,2.1-0.4,4.4-2.5,5.2l-34.4,14.9L252.6,157.3L252.6,157.3z"
	/>
<path class="st5" d="M274,162.8l1.5,4.6c0.7,2.1-0.1,4.4-1.9,5.6l-0.2,0.1l1.4,4c0.7,1.9,0.1,4-1.4,5.4l-0.1,0.1l0.8,3.3
	c0.5,2-0.3,4.2-2.1,5.3l-1.3,0.9l-23.1-13.5l-0.6-8.9L274,162.8L274,162.8z"/>
<path class="st4" d="M263.5,168.3c-0.2,0-0.4-0.1-0.5-0.4c-0.1-0.3,0.1-0.5,0.4-0.6l11.1-3.1c0.3-0.1,0.5,0.1,0.6,0.4
	c0.1,0.3-0.1,0.5-0.4,0.6l-11.1,3.1C263.6,168.3,263.5,168.3,263.5,168.3L263.5,168.3z"/>
<path class="st4" d="M265.6,176.3c-0.2,0-0.4-0.1-0.5-0.4c-0.1-0.3,0.1-0.5,0.3-0.6c2.8-0.8,7.1-2.2,7.8-2.6
	c0.2-0.1,0.5-0.1,0.7,0.1c0.1,0.2,0.1,0.5-0.1,0.7c-1,0.6-7.3,2.5-8,2.7C265.7,176.3,265.6,176.3,265.6,176.3z"/>
<path class="st4" d="M267,185.2c-0.2,0-0.4-0.1-0.5-0.3c-0.1-0.3,0-0.5,0.3-0.6l6.4-2.2c0.3-0.1,0.5,0.1,0.6,0.3
	c0.1,0.3,0,0.5-0.3,0.6l-6.4,2.2C267.1,185.2,267.1,185.2,267,185.2z"/>
<path class="st6" d="M225.2,184.6c0,0-29.2,14.5-44.1,12.2c-10-1.6-17.2-7.8-22.6-15.6c-17.4,5.9-34.2,13.6-48.1,25.9
	c0.8,2.3,1.6,4.7,2.6,7.2c23.2,58,108.1,35.1,127.9,2.7L225.2,184.6L225.2,184.6z"/>
<path class="st6" d="M224.8,245.4H117.1l1.3-44.7c-2.8,2-5.4,4.1-8,6.4c-11.3-34.1,1.1-50.5,14-58.4c8.3-5,18.1-7,27.7-6.1
	c0.4,0,0.9,0.1,1.3,0.1l30.5,3.6c0.5,0.1,1.1,0.1,1.6,0.2c2.7,0.4,5.3,1,7.9,1.9c12.6,4.1,25.2,10.4,30,20
	C232.5,186.4,224.8,245.4,224.8,245.4L224.8,245.4z"/>
<path class="st4" d="M184.7,197.5c-1.3,0-2.6-0.1-3.7-0.3c-11.2-1.8-20.3-9.5-27-22.9c-0.1-0.2,0-0.5,0.2-0.7c0.2-0.1,0.5,0,0.7,0.2
	c6.6,13.1,15.4,20.6,26.3,22.3c14.6,2.3,43.6-12,43.9-12.1c0.2-0.1,0.5,0,0.7,0.2s0,0.5-0.2,0.7
	C224.4,185.6,200.2,197.5,184.7,197.5z"/>
<path class="st4" d="M203.6,244.4c-0.2,0-0.4-0.1-0.5-0.3c-0.1-0.2,0-0.5,0.3-0.6c8-2.9,15.5-6.7,21.8-11.1c0.2-0.1,0.5-0.1,0.7,0.1
	c0.2,0.2,0.1,0.5-0.1,0.7c-6.4,4.4-14,8.3-22,11.2C203.7,244.3,203.6,244.4,203.6,244.4z"/>
<path class="st4" d="M139.8,244.2c-0.1,0-0.1,0-0.2-0.1c-6-2.9-11.2-6.7-15.7-11.4c-0.2-0.2-0.2-0.5,0-0.7c0.2-0.2,0.5-0.2,0.7,0
	c4.3,4.6,9.5,8.4,15.4,11.2c0.2,0.1,0.4,0.4,0.2,0.6C140.2,244.1,140,244.1,139.8,244.2L139.8,244.2z"/>
<path class="st5" d="M185.5,146.5l-0.6,14.6l-32.7-18.5c0.4,0,0.9,0.1,1.3,0.1l30.5,3.6C184.4,146.4,185,146.5,185.5,146.5z"/>
<path class="st4" d="M179.8,142.8v-13.7h-23.2C163,136,171.1,140.3,179.8,142.8z"/>
<path class="st5" d="M156.6,129.1h-1.8v14.2l5.4,3.3l19.5,1.1v-4.9C171.1,140.3,163,136,156.6,129.1z"/>
<path class="st5" d="M146.2,123.4c3.6,10.9,18.8,16.4,31.8,12s19.1-17,15.5-27.9s-17.2-16.2-30.2-11.8S142.6,112.6,146.2,123.4z"/>
<path class="st7" d="M174,116.7c0.1,1.2,1.9,1.9,4.1,1.7s3.8-1.3,3.7-2.5s-1.9-1.9-4.1-1.7C175.6,114.4,173.9,115.6,174,116.7z"/>
<path class="st5" d="M190.8,108l6.2,4.8c0.8,0.6,0.8,1.9-0.1,2.4l-4.1,2.7L190.8,108L190.8,108z"/>
<path class="st4" d="M189.2,122.8C189.2,122.8,189.1,122.8,189.2,122.8c-2.4-0.3-4.6-0.9-6.8-1.9c-0.2-0.1-0.4-0.4-0.2-0.7
	c0.1-0.2,0.4-0.4,0.6-0.2c2,0.9,4.2,1.5,6.4,1.8c0.3,0,0.5,0.3,0.4,0.6C189.6,122.6,189.4,122.8,189.2,122.8L189.2,122.8z"/>
<path class="st8" d="M186.8,112.1c-0.5,0.2-1.1,0-1.3-0.5l-0.6-1.4c-0.2-0.5,0-1.1,0.5-1.3c0.5-0.2,1.1,0,1.3,0.5l0.6,1.4
	C187.5,111.3,187.3,111.9,186.8,112.1z"/>
<path class="st4" d="M180.5,107.3c-0.2,0-0.4-0.1-0.4-0.3c-0.1-0.2,0-0.5,0.2-0.7c1.8-0.8,3.8-1.2,5.7-1c0.3,0,0.5,0.3,0.4,0.5
	c0,0.3-0.3,0.5-0.5,0.4c-1.8-0.2-3.6,0.1-5.2,0.9C180.6,107.2,180.6,107.3,180.5,107.3L180.5,107.3z"/>
<path class="st4" d="M154.4,133.1l11.9-21.3c7.4-2.4,10.9-5.8,10.9-5.8l-3.7,4.8c7.7-3.2,12.1-8.2,14.4-11.5c1.4-2.1,0.8-5-1.5-6.2
	c-3.3-1.7-7.9-2.4-10.6-1.6c-5.1-1.2-22.6-4.2-29.7,7c-6.7,10.5-9.2,19.8-0.8,28.4c2,2,4.4,3.6,7,4.9L154.4,133.1z"/>
<path class="st5" d="M155.7,120.1c0.9,3,4,4.7,7,3.8c3-0.9,4.6-4,3.8-7s-4-4.7-7-3.8C156.5,114,154.8,117.1,155.7,120.1z"/>
<path class="st4" d="M159.8,119.9l3.1-0.9c0.5-0.2,0.8-0.7,0.6-1.2c-0.1-0.5-0.7-0.8-1.2-0.6l-3.1,0.9c-0.5,0.2-0.8,0.7-0.6,1.2
	C158.8,119.8,159.3,120.1,159.8,119.9z"/>
</svg>
