<svg width="372" height="250" viewBox="0 0 372 250" fill="none" xmlns="http://www.w3.org/2000/svg">
<mask id="mask0_934_11096" style="mask-type:alpha" maskUnits="userSpaceOnUse" x="0" y="0" width="372" height="250">
<path d="M0 20C0 8.9543 8.95431 0 20 0H352C363.046 0 372 8.9543 372 20V250H0V20Z" fill="#F7FDFE"/>
</mask>
<g mask="url(#mask0_934_11096)">
<path d="M189.533 57.9632C189.533 57.9632 198.356 55.5232 203.8 60.5906C209.244 65.6595 222.196 107.333 222.196 107.333L200.797 108.647L189.533 57.9632Z" fill="#28151F"/>
<path d="M372 231H0V249H372V231Z" fill="#2B6577"/>
<path d="M267.12 199.79C267.12 199.79 263.017 127.236 241.59 110.436C220.929 94.2352 159.908 95.0118 159.908 95.0118L114.201 134.513L126.859 231.898H265.158L267.12 199.79Z" fill="#F29EC3"/>
<path d="M228.259 233.553C228.242 233.553 228.226 233.553 228.209 233.55C227.877 233.525 227.627 233.233 227.654 232.898L232.911 166.821C232.936 166.488 233.237 166.241 233.563 166.266C233.895 166.292 234.145 166.584 234.118 166.919L228.861 232.995C228.837 233.313 228.571 233.552 228.259 233.552V233.553Z" fill="#4F2B2B"/>
<path d="M160.224 95.6642C152.6 94.53 107.003 91.9069 83.2125 111.943C61.2909 130.404 40.9497 178.312 75.6993 212.122L107.945 175.494C107.945 175.494 97.2233 163.097 121.016 147.132L160.225 95.6656L160.224 95.6642Z" fill="#F29EC3"/>
<path d="M148.484 123.213H145.354V241.235H148.484V123.213Z" fill="#4F2B2B"/>
<path d="M274.646 123.213H271.516V241.235H274.646V123.213Z" fill="#4F2B2B"/>
<path d="M286.542 250H133.457L136.496 242.563C137.749 239.498 140.733 237.494 144.045 237.494H275.953C279.265 237.494 282.247 239.498 283.502 242.563L286.541 250H286.542Z" fill="#DF8711"/>
<path d="M166.515 127.597H164.162V190.544H166.515V127.597Z" fill="#4F2B2B"/>
<path d="M165.338 211.48C173.263 211.48 179.688 205.055 179.688 197.13C179.688 189.205 173.263 182.78 165.338 182.78C157.413 182.78 150.988 189.205 150.988 197.13C150.988 205.055 157.413 211.48 165.338 211.48Z" fill="#F5C07A"/>
<path d="M200.306 127.597H197.953V190.544H200.306V127.597Z" fill="#4F2B2B"/>
<path d="M199.131 211.48C207.056 211.48 213.481 205.055 213.481 197.13C213.481 189.205 207.056 182.78 199.131 182.78C191.206 182.78 184.781 189.205 184.781 197.13C184.781 205.055 191.206 211.48 199.131 211.48Z" fill="#F5C07A"/>
<path d="M234.101 127.597H231.748V190.544H234.101V127.597Z" fill="#4F2B2B"/>
<path d="M232.924 211.48C240.849 211.48 247.274 205.055 247.274 197.13C247.274 189.205 240.849 182.78 232.924 182.78C224.999 182.78 218.574 189.205 218.574 197.13C218.574 205.055 224.999 211.48 232.924 211.48Z" fill="#F5C07A"/>
<path d="M248.681 117.199L246.701 118.47L290.348 186.456L292.328 185.185L248.681 117.199Z" fill="#4F2B2B"/>
<path d="M305.044 201.49C310.648 195.886 310.648 186.8 305.044 181.196C299.44 175.592 290.354 175.592 284.75 181.196C279.146 186.8 279.146 195.886 284.75 201.49C290.354 207.094 299.44 207.094 305.044 201.49Z" fill="#F5C07A"/>
<path d="M134.709 116.797H280.149C282.986 116.797 285.288 119.1 285.288 121.936V122.302C285.288 125.138 282.986 127.441 280.149 127.441H134.709V116.797Z" fill="#DF8711"/>
<path d="M134.552 127.441C137.492 127.441 139.874 125.058 139.874 122.119C139.874 119.18 137.492 116.797 134.552 116.797C131.613 116.797 129.23 119.18 129.23 122.119C129.23 125.058 131.613 127.441 134.552 127.441Z" fill="#4F2B2B"/>
<path d="M146.831 193.397L130.169 192.711L119.693 186.116L120.491 185.891L128.544 190.086C130.582 191.147 132.998 191.193 135.074 190.21C139.205 188.254 140.562 183.039 137.909 179.318L134.597 174.673C131.499 170.331 126.629 167.592 121.31 167.203C109.766 166.358 97.6931 167.336 87.5997 173.728C77.6136 180.053 73.7405 192.453 72.9481 203.679C72.8508 205.057 72.8008 206.435 72.8008 207.815C72.8008 226.011 93.6969 232.821 101.915 231.998C105.325 231.658 108.158 230.608 110.352 229.473C112.293 229.53 114.058 229.378 115.533 228.946C121.618 227.161 124.057 224.479 124.984 222.993C127.55 222.517 129.751 220.662 130.55 218.015C131.234 215.751 130.745 213.399 129.418 211.629C132.285 211.743 135.166 211.424 137.954 210.637L148.505 207.664C151.64 206.78 153.805 203.921 153.805 200.663C153.805 196.762 150.729 193.556 146.831 193.396V193.397Z" fill="#FFBE97"/>
<path d="M207.522 84.5441C209.525 70.2928 197.228 56.7832 180.055 54.3697C162.882 51.9562 147.336 61.5527 145.334 75.804C143.331 90.0554 155.628 103.565 172.801 105.978C189.974 108.392 205.519 98.7955 207.522 84.5441Z" fill="#28151F"/>
<path d="M187.92 110.593C195.277 103.236 195.277 91.3073 187.92 83.95C180.562 76.5928 168.634 76.5928 161.277 83.95C153.919 91.3073 153.919 103.236 161.277 110.593C168.634 117.95 180.562 117.95 187.92 110.593Z" fill="#FFBE97"/>
<path d="M187.746 105.73C195.589 97.8874 195.589 85.1712 187.746 77.3281C179.903 69.485 167.187 69.485 159.344 77.3281C151.501 85.1712 151.501 97.8874 159.344 105.73C167.187 113.574 179.903 113.574 187.746 105.73Z" fill="#4F2B2B"/>
<path d="M203.441 87.8279C205.041 75.0354 193.517 63.0613 177.7 61.0829C161.884 59.1044 147.765 67.8709 146.165 80.6634C144.565 93.4558 156.089 105.43 171.905 107.408C187.722 109.387 201.841 100.62 203.441 87.8279Z" fill="#FFBE97"/>
<path d="M206.95 97.4151C210.112 95.9687 211.503 92.2328 210.056 89.0707C208.61 85.9086 204.874 84.5177 201.712 85.9641C198.55 87.4105 197.159 91.1464 198.605 94.3085C200.052 97.4706 203.788 98.8614 206.95 97.4151Z" fill="#FFBE97"/>
<path d="M207.44 93.2768L203.749 92.8151C203.187 92.7448 202.787 92.2306 202.857 91.6686L202.866 91.5963C202.936 91.0343 203.451 90.6344 204.013 90.7047L207.704 91.1665C208.266 91.2368 208.666 91.7509 208.596 92.3129L208.586 92.3853C208.516 92.9473 208.002 93.3471 207.44 93.2768Z" fill="#4F2B2B"/>
<path d="M191.203 89.9068C188.865 88.694 185.933 88.6282 183.546 89.7381L183.035 88.6411C185.758 87.3753 189.101 87.4496 191.763 88.8341L191.205 89.9083L191.203 89.9068Z" fill="#4F2B2B"/>
<path d="M167.768 87.5782C165.5 86.3124 162.743 85.8991 160.2 86.444L159.947 85.2597C162.768 84.6547 165.837 85.1138 168.359 86.5212L167.768 87.5782Z" fill="#4F2B2B"/>
<path d="M177.721 103.335C175.225 104.056 172.447 103.837 170.092 102.732L169.578 103.828C172.189 105.054 175.283 105.3 178.057 104.498L177.721 103.335Z" fill="#4F2B2B"/>
<path d="M174.997 97.6814C174.701 97.6814 174.442 97.464 174.399 97.1622C173.997 94.3846 174.774 90.7417 178.288 89.6233C178.605 89.5246 178.946 89.6991 179.049 90.0166C179.15 90.3341 178.974 90.6759 178.655 90.7775C175.055 91.9231 175.477 96.1538 175.599 96.9891C175.646 97.3209 175.417 97.627 175.085 97.6756C175.055 97.6785 175.027 97.6814 174.998 97.6814H174.997Z" fill="#4F2B2B"/>
<path d="M193.233 101.72C193.372 100.603 191.802 99.4867 189.725 99.2269C187.649 98.9672 185.852 99.6623 185.712 100.78C185.572 101.897 187.143 103.013 189.219 103.273C191.296 103.533 193.093 102.838 193.233 101.72Z" fill="#F28C91"/>
<path d="M163.229 97.9694C163.368 96.8521 161.798 95.7358 159.722 95.476C157.645 95.2162 155.848 95.9114 155.708 97.0287C155.568 98.146 157.139 99.2623 159.215 99.5221C161.292 99.7819 163.089 99.0867 163.229 97.9694Z" fill="#F28C91"/>
<path d="M152.811 84.6734C153.417 81.2494 151.133 77.9824 147.709 77.3762C144.285 76.77 141.018 79.0542 140.412 82.4781C139.806 85.9021 142.09 89.1692 145.514 89.7754C148.938 90.3816 152.205 88.0973 152.811 84.6734Z" fill="#FFBE97"/>
<path d="M148.315 84.9907L144.624 84.529C144.062 84.4587 143.662 83.9445 143.732 83.3825L143.741 83.3101C143.811 82.7481 144.326 82.3483 144.888 82.4186L148.579 82.8803C149.141 82.9506 149.541 83.4648 149.471 84.0268L149.461 84.0992C149.391 84.6612 148.877 85.061 148.315 84.9907Z" fill="#4F2B2B"/>
<path d="M186.817 93.6337L186.897 93.6437C187.511 93.7204 187.948 94.2824 187.871 94.8969L187.628 96.8427C187.552 97.4572 186.99 97.8944 186.375 97.8176L186.296 97.8077C185.68 97.7308 185.244 97.169 185.321 96.5545L185.564 94.6087C185.641 93.9927 186.203 93.5556 186.819 93.6325L186.817 93.6337Z" fill="#4F2B2B"/>
<path d="M165.899 91.039L165.978 91.0489C166.594 91.1259 167.03 91.6878 166.953 92.3023L166.71 94.248C166.632 94.864 166.07 95.301 165.454 95.224L165.375 95.2141C164.76 95.1372 164.323 94.5751 164.4 93.9606L164.644 92.0149C164.721 91.4004 165.283 90.9633 165.897 91.0402L165.899 91.039Z" fill="#4F2B2B"/>
<path d="M170.433 73.6541C170.625 73.5425 179.192 77.7933 182.856 82.6147C184.87 85.2635 187.858 86.997 191.18 87.1929L191.435 87.2073L189.091 82.3343L192.871 86.1617C194.487 87.7979 196.668 88.7548 198.967 88.8335C198.967 88.8335 200.696 91.3479 199.884 95.7774C199.884 95.7774 204.985 89.1109 205 83.623C205.014 78.1351 201.151 58.4719 176.922 59.8006L170.432 73.6541H170.433Z" fill="#28151F"/>
<path d="M146.08 76.339C146.778 78.7033 150.754 79.6673 153.386 79.6515C160.989 79.6072 171.788 79.8303 177.017 73.3341C179.488 70.2633 181.386 66.4459 180.351 62.4297C179.255 58.1847 174.361 57.5411 170.622 57.5025C163.373 57.4267 154.203 60.2 149.523 66.0826C148.366 67.5372 147.146 69.8027 146.727 71.6292C146.442 72.8707 146.838 74.2251 146.778 75.3178C146.778 75.1348 146.778 74.9517 146.08 76.339Z" fill="#28151F"/>
<path d="M122.807 222.945C113.423 222.945 104.144 220.557 95.9283 216.02C95.6351 215.86 95.5292 215.491 95.6909 215.198C95.851 214.902 96.2243 214.796 96.5133 214.96C104.737 219.501 114.058 221.844 123.449 221.73H123.457C123.788 221.73 124.059 221.996 124.062 222.328C124.064 222.662 123.798 222.937 123.464 222.94C123.246 222.943 123.026 222.943 122.809 222.943L122.807 222.945Z" fill="#4F2B2B"/>
<path d="M127.604 212.005C127.574 212.005 127.545 212.002 127.515 212C119.477 210.821 111.805 207.61 105.328 202.71C105.062 202.508 105.009 202.129 105.21 201.862C105.412 201.596 105.79 201.543 106.059 201.745C112.375 206.52 119.855 209.651 127.691 210.8C128.023 210.848 128.252 211.156 128.203 211.486C128.159 211.788 127.9 212.004 127.605 212.004L127.604 212.005Z" fill="#4F2B2B"/>
<path d="M108.812 230.146C104.859 230.146 97.354 229.395 91.5229 224.368C91.2697 224.149 91.2411 223.767 91.4585 223.514C91.6759 223.259 92.0621 223.234 92.3124 223.45C97.8475 228.221 105.026 228.935 108.812 228.935C109.147 228.935 109.417 229.205 109.417 229.54C109.417 229.874 109.147 230.145 108.812 230.145V230.146Z" fill="#4F2B2B"/>
<path d="M118.307 147.669C118.03 147.669 117.779 147.477 117.716 147.196L113.536 128.518C113.464 128.192 113.669 127.867 113.995 127.794C114.325 127.724 114.644 127.927 114.719 128.253L118.899 146.931C118.971 147.257 118.766 147.582 118.44 147.655C118.396 147.665 118.351 147.669 118.307 147.669Z" fill="#4F2B2B"/>
</g>
</svg>
