<svg width="100" height="100" viewBox="0 0 100 100" fill="none" xmlns="http://www.w3.org/2000/svg">
<path d="M64.5159 89.5146H53.2256V99.9985H64.5159V89.5146Z" fill="#307286"/>
<path d="M46.7737 89.5146H35.4834V99.9985H46.7737V89.5146Z" fill="#307286"/>
<path d="M85.5959 66.6447C86.5798 64.177 87.0959 61.5318 87.0959 58.8705C87.0959 57.5318 88.1766 56.4512 89.5153 56.4512C90.854 56.4512 91.9346 57.5318 91.9346 58.8705V64.0801L83.9669 71.0802L83.8701 70.9672L85.5959 66.6447Z" fill="#F0D0B4"/>
<path d="M91.9353 64.0799L94.4998 61.8381C94.9353 61.4832 95.4675 61.2897 96.0159 61.2897C97.3224 61.2897 98.3869 62.3541 98.3869 63.6606V64.4187C98.3869 64.9993 98.1772 65.5638 97.7901 65.9993L87.403 77.6766C86.1772 79.0476 84.4353 79.838 82.5804 79.838H72.3869C69.6127 79.838 67.1449 81.6121 66.274 84.2573L64.5159 89.5153H53.2256V76.467C53.2256 75.5154 53.5159 74.5799 54.032 73.7735L58.774 66.6768C59.3546 65.7897 60.2095 65.1283 61.2095 64.7896L75.3707 59.838C75.6611 59.7251 75.9675 59.6768 76.274 59.6768C77.7901 59.6768 79.032 60.9187 79.032 62.4348V62.6606C79.032 63.7896 78.3546 64.7896 77.3224 65.2251L69.3385 68.4832V68.5477L72.8546 71.4509C73.7095 72.1767 74.8062 72.5799 75.9514 72.5799H80.4353C81.6127 72.5799 82.7417 72.1606 83.6288 71.3703L83.9675 71.0799L91.9353 64.0799Z" fill="#F8D2A0"/>
<path d="M16.0312 71.0802L8.06348 64.0801V58.8705C8.06348 57.5318 9.14412 56.4512 10.4828 56.4512C11.8215 56.4512 12.9022 57.5318 12.9022 58.8705C12.9022 61.5318 13.4183 64.177 14.4022 66.6447L16.128 70.9672L16.0312 71.0802Z" fill="#F0D0B4"/>
<path d="M8.06392 64.0799L16.0317 71.0799L16.3704 71.3703C17.2575 72.1606 18.3865 72.5799 19.5639 72.5799H24.0478C25.193 72.5799 26.2897 72.1767 27.1446 71.4509L30.6446 68.5477V68.4832L22.6768 65.2251C21.6446 64.7896 20.9671 63.7896 20.9671 62.6606V62.4348C20.9671 60.9187 22.2091 59.6768 23.7252 59.6768C24.0317 59.6768 24.3381 59.7251 24.6284 59.838L38.7897 64.7896C39.7897 65.1283 40.6446 65.7897 41.2252 66.6768L45.9671 73.7735C46.4833 74.5799 46.7736 75.5154 46.7736 76.467V89.5153H35.4833L33.7252 84.2573C32.8542 81.6121 30.3865 79.838 27.6123 79.838H17.4188C15.5639 79.838 13.822 79.0476 12.5962 77.6766L2.20907 65.9993C1.82197 65.5638 1.6123 64.9993 1.6123 64.4187V63.6606C1.6123 62.3541 2.67682 61.2897 3.98327 61.2897C4.53166 61.2897 5.06392 61.4832 5.49941 61.8381L8.06392 64.0799Z" fill="#F8D2A0"/>
<path d="M66.1282 56.4506H33.8701C33.8701 54.6764 34.5959 53.0635 35.7572 51.8861C36.9346 50.7248 38.5475 49.999 40.3217 49.999H59.6766C63.2411 49.999 66.1282 52.8861 66.1282 56.4506Z" fill="#F5C07A"/>
<path d="M53.2251 30.6445H46.7734V49.9993H53.2251V30.6445Z" fill="#FBE4C6"/>
<path d="M69.3542 1.6123V2.16068C69.3542 4.16068 69.1768 6.12841 68.8219 8.06389H31.1768C30.822 6.12841 30.6445 4.16068 30.6445 2.16068V1.6123H69.3542Z" fill="#EF9C2E"/>
<path d="M31.1768 8.06348H68.8219C67.1445 17.386 61.5155 25.6763 53.2251 30.644H46.7735C41.7735 27.644 37.7413 23.4344 34.9671 18.5312C33.1284 15.3054 31.838 11.7731 31.1768 8.06348Z" fill="#FBE4C6"/>
<path d="M54.5959 16.2411L53.0636 18.741L52.8378 21.6604L49.9991 20.9668L47.1604 21.6604L46.9346 18.741L45.4023 16.2411L48.0959 15.1281L49.9991 12.9023L51.9023 15.1281L54.5959 16.2411Z" fill="#854747"/>
<path d="M65.6778 91.1288H51.6133V76.4676C51.6133 75.1934 51.9842 73.9515 52.6939 72.887L57.4359 65.7741C58.2101 64.6129 59.3552 63.7257 60.6778 63.2579L74.8391 58.3064C75.3068 58.1451 75.7907 58.0645 76.2746 58.0645C78.6778 58.0645 80.6455 60.0322 80.6455 62.4354V62.6612C80.6455 64.4354 79.581 66.0321 77.9359 66.7096L72.4036 68.9838L73.8875 70.2257C74.4681 70.7095 75.1939 70.9676 75.952 70.9676H80.4359C81.2262 70.9676 81.9843 70.6773 82.5649 70.1612L93.4359 60.6129C94.1778 60 95.081 59.6773 96.0165 59.6773C98.2101 59.6773 100 61.4676 100 63.6612V64.4193C100 65.4031 99.6455 66.3386 98.9842 67.0644L88.6133 78.7418C87.081 80.4676 84.8875 81.4515 82.581 81.4515H72.3875C70.3068 81.4515 68.452 82.774 67.7907 84.7579L65.6617 91.1288H65.6778ZM54.8391 87.903H63.3552L64.7423 83.7417C65.8391 80.4514 68.9197 78.2257 72.3875 78.2257H82.581C83.9681 78.2257 85.2746 77.6289 86.1939 76.5966L96.581 64.9193C96.7101 64.7741 96.7746 64.5967 96.7746 64.4193V63.6612C96.7746 63.0644 95.9842 62.6934 95.5326 63.0805L84.6939 72.5967C83.5165 73.6289 82.0004 74.1934 80.4359 74.1934H75.952C74.452 74.1934 72.9842 73.6612 71.823 72.6934L69.0326 70.3709L68.5165 70.5805C67.0488 71.0483 66.1455 72.2902 66.1455 73.6934V74.9999H62.9197V73.6934C62.9197 70.8709 64.7262 68.4031 67.4197 67.5483L76.7262 63.7257C77.1617 63.5483 77.4359 63.1289 77.4359 62.6612V62.4354C77.4359 61.6774 76.6294 61.1128 75.9197 61.3547L61.7584 66.3063C61.0971 66.5321 60.5326 66.9838 60.1455 67.5644L55.4036 74.6773C55.0488 75.2095 54.8552 75.8224 54.8552 76.4676V87.903H54.8391Z" fill="black"/>
<path d="M85.3711 71.5646L82.3711 70.3711L84.0969 66.0485C85.0162 63.7582 85.484 61.3388 85.484 58.8711C85.484 56.6453 87.2904 54.8389 89.5162 54.8389C91.7421 54.8389 93.5485 56.6453 93.5485 58.8711V64.5162H90.3227V58.8711C90.3227 58.4195 89.9679 58.0647 89.5162 58.0647C89.0646 58.0647 88.7098 58.4195 88.7098 58.8711C88.7098 61.7582 88.1614 64.5646 87.0969 67.242L85.3711 71.5646Z" fill="black"/>
<path d="M66.1291 89.5166H62.9033V100H66.1291V89.5166Z" fill="black"/>
<path d="M54.8391 89.5166H51.6133V100H54.8391V89.5166Z" fill="black"/>
<path d="M48.3871 91.1288H34.3226L32.1936 84.7579C31.5323 82.774 29.6936 81.4515 27.5968 81.4515H17.4032C15.0968 81.4515 12.9032 80.4676 11.371 78.7418L0.999992 67.0644C0.354831 66.3386 0 65.387 0 64.4193V63.6612C0 61.4676 1.79032 59.6773 3.98387 59.6773C4.90323 59.6773 5.80644 59.9999 6.51612 60.5806L17.4355 70.1612C18.0161 70.6773 18.7742 70.9676 19.5645 70.9676H24.0484C24.8065 70.9676 25.5323 70.6934 26.1129 70.2257L27.5968 68.9838L22.0484 66.7096C20.4032 66.0321 19.3387 64.4515 19.3387 62.6612V62.4354C19.3387 60.0322 21.3064 58.0645 23.7097 58.0645C24.2097 58.0645 24.6935 58.1451 25.1452 58.3064L39.3064 63.2579C40.629 63.7257 41.7742 64.6129 42.5484 65.7741L47.2903 72.887C48 73.9515 48.371 75.1934 48.371 76.4676V91.1288H48.3871ZM36.6452 87.903H45.1613V76.4676C45.1613 75.8224 44.9677 75.2095 44.6129 74.6773L39.871 67.5644C39.4839 66.9838 38.9032 66.5321 38.2581 66.3063L24.0968 61.3547C23.3871 61.1128 22.5806 61.6774 22.5806 62.4354V62.6612C22.5806 63.1289 22.8548 63.5483 23.2903 63.7257L32.7258 67.5966C35.2903 68.4031 37.0968 70.8709 37.0968 73.6934V74.9999H33.871V73.6934C33.871 72.2902 32.9677 71.0483 31.629 70.6128L31 70.3547L28.1935 72.6934C27.0323 73.6612 25.5645 74.1934 24.0645 74.1934H19.5806C18.0161 74.1934 16.5 73.6289 15.3226 72.5967L4.4516 63.0483C4.35483 62.9677 4.17741 62.9031 3.99999 62.9031C3.58064 62.9031 3.24193 63.2418 3.24193 63.6612V64.4193C3.24193 64.6128 3.30646 64.7902 3.43549 64.9193L13.8226 76.5966C14.7419 77.6289 16.0645 78.2257 17.4355 78.2257H27.629C31.1129 78.2257 34.1774 80.4353 35.2742 83.7417L36.6613 87.903H36.6452Z" fill="black"/>
<path d="M14.6286 71.5646L12.9028 67.242C11.8383 64.5646 11.2899 61.7421 11.2899 58.8711C11.2899 58.4195 10.935 58.0647 10.4834 58.0647C10.0318 58.0647 9.67698 58.4195 9.67698 58.8711V64.5162H6.45117V58.8711C6.45117 56.6453 8.25762 54.8389 10.4834 54.8389C12.7092 54.8389 14.5157 56.6453 14.5157 58.8711C14.5157 61.3388 14.9834 63.7582 15.9028 66.0485L17.6286 70.3711L14.6286 71.5646Z" fill="black"/>
<path d="M37.0969 89.5166H33.8711V100H37.0969V89.5166Z" fill="black"/>
<path d="M48.3869 89.5166H45.1611V100H48.3869V89.5166Z" fill="black"/>
<path d="M53.6774 32.2579H46.3387L45.9516 32.0321C35.5161 25.7741 29.0322 14.3225 29.0322 2.16128V0H70.9677V2.16128C70.9677 14.3225 64.4838 25.7741 54.0483 32.0321L53.6613 32.2579H53.6774ZM47.2258 29.0321H52.7742C61.7096 23.4999 67.3709 13.7096 67.7258 3.22579H32.2742C32.629 13.7096 38.2903 23.4999 47.2258 29.0321Z" fill="black"/>
<path d="M54.8391 30.6455H51.6133V50.0003H54.8391V30.6455Z" fill="black"/>
<path d="M48.3869 30.6455H45.1611V50.0003H48.3869V30.6455Z" fill="black"/>
<path d="M67.7417 58.0641H32.2578V56.4512C32.2578 51.9996 35.8707 48.3867 40.3223 48.3867H59.6772C64.1288 48.3867 67.7417 51.9996 67.7417 56.4512V58.0641ZM35.7578 54.8383H64.2417C63.5804 52.9673 61.7739 51.6125 59.6772 51.6125H40.3223C38.2256 51.6125 36.4191 52.9673 35.7578 54.8383Z" fill="black"/>
<path d="M59.6778 6.45117H30.6455V9.67696H59.6778V6.45117Z" fill="black"/>
<path d="M69.3549 6.45117H62.9033V9.67696H69.3549V6.45117Z" fill="black"/>
<path d="M54.3064 23.6613L50 22.613L45.6935 23.6613L45.3548 19.242L43.0322 15.4678L47.129 13.7743L50 10.4033L52.8709 13.7743L56.9677 15.4678L54.6451 19.242L54.3064 23.6613ZM50 19.3064L51.3871 19.6452L51.5 18.2258L52.2419 17.0162L50.9355 16.4678L50.0161 15.3872L49.0968 16.4678L47.7903 17.0162L48.5322 18.2258L48.6451 19.6452L50.0322 19.3064H50Z" fill="black"/>
<path d="M30.6458 30.6448C27.9845 30.6448 25.8071 28.4674 25.8071 25.8061V24.1932H29.0329V25.8061C29.0329 26.6932 29.7587 27.419 30.6458 27.419C31.5329 27.419 32.2587 26.6932 32.2587 25.8061C32.2587 25.1932 32.0652 24.7417 31.7103 24.4352L21.8071 15.7739C20.2587 14.4191 19.3555 12.4514 19.3555 10.3868C19.3555 6.43525 22.5651 3.22559 26.5168 3.22559H30.6458V6.45138H26.5168C24.3555 6.45138 22.5813 8.20944 22.5813 10.3868C22.5813 11.5159 23.0651 12.5965 23.92 13.3384L33.8232 22.0159C34.8716 22.9352 35.4684 24.2577 35.4684 25.6609C35.4684 28.4835 33.291 30.6448 30.6297 30.6448H30.6458Z" fill="black"/>
<path d="M69.3543 30.6448C66.693 30.6448 64.5156 28.4674 64.5156 25.8061C64.5156 24.2578 65.1124 22.9352 66.1608 22.0159L76.064 13.3384C76.9189 12.5965 77.4027 11.5159 77.4027 10.3868C77.4027 8.22557 75.6447 6.45138 73.4672 6.45138H69.3382V3.22559H73.4672C77.4189 3.22559 80.6285 6.43525 80.6285 10.3868C80.6285 12.4514 79.7414 14.4191 78.1769 15.7739L68.2737 24.4513C67.9189 24.7577 67.7253 25.1932 67.7253 25.6609C67.7253 26.6932 68.4511 27.419 69.3382 27.419C70.2253 27.419 70.9511 26.6932 70.9511 25.8061V24.1932H74.1769V25.8061C74.1769 28.4674 71.9995 30.6448 69.3382 30.6448H69.3543Z" fill="black"/>
<path d="M19.3547 30.6455H16.1289V35.4842H19.3547V30.6455Z" fill="black"/>
<path d="M13.1931 31.8684L10.9121 34.1494L14.3336 37.5709L16.6146 35.2899L13.1931 31.8684Z" fill="black"/>
<path d="M14.5155 37.0967H9.67676V40.3225H14.5155V37.0967Z" fill="black"/>
<path d="M14.3219 39.8402L10.9004 43.2617L13.1814 45.5427L16.6029 42.1212L14.3219 39.8402Z" fill="black"/>
<path d="M19.3547 41.9346H16.1289V46.7733H19.3547V41.9346Z" fill="black"/>
<path d="M21.154 39.8518L18.873 42.1328L22.2945 45.5543L24.5755 43.2733L21.154 39.8518Z" fill="black"/>
<path d="M25.8065 37.0967H20.9678V40.3225H25.8065V37.0967Z" fill="black"/>
<path d="M22.3062 31.8793L18.8848 35.3008L21.1658 37.5818L24.5872 34.1603L22.3062 31.8793Z" fill="black"/>
<path d="M93.5481 11.29H90.3223V16.1287H93.5481V11.29Z" fill="black"/>
<path d="M87.3894 12.5091L85.1084 14.79L88.5299 18.2115L90.8109 15.9306L87.3894 12.5091Z" fill="black"/>
<path d="M88.7098 17.7422H83.8711V20.968H88.7098V17.7422Z" fill="black"/>
<path d="M88.5182 20.4828L85.0967 23.9043L87.3777 26.1853L90.7992 22.7638L88.5182 20.4828Z" fill="black"/>
<path d="M93.5481 22.5811H90.3223V27.4197H93.5481V22.5811Z" fill="black"/>
<path d="M95.3503 20.4934L93.0693 22.7744L96.4908 26.1959L98.7718 23.9149L95.3503 20.4934Z" fill="black"/>
<path d="M99.9998 17.7422H95.1611V20.968H99.9998V17.7422Z" fill="black"/>
<path d="M96.5016 12.5209L93.0801 15.9424L95.3611 18.2234L98.7826 14.8019L96.5016 12.5209Z" fill="black"/>
<path d="M77.4192 33.8711H74.1934V37.0969H77.4192V33.8711Z" fill="black"/>
<path d="M74.1936 37.0967H70.9678V40.3225H74.1936V37.0967Z" fill="black"/>
<path d="M77.4192 40.3223H74.1934V43.5481H77.4192V40.3223Z" fill="black"/>
<path d="M80.6457 37.0967H77.4199V40.3225H80.6457V37.0967Z" fill="black"/>
<path d="M12.9026 0H9.67676V3.22579H12.9026V0Z" fill="black"/>
<path d="M9.67698 3.22559H6.45117V6.45138H9.67698V3.22559Z" fill="black"/>
<path d="M12.9026 6.45117H9.67676V9.67696H12.9026V6.45117Z" fill="black"/>
<path d="M16.1291 3.22559H12.9033V6.45138H16.1291V3.22559Z" fill="black"/>
</svg>
