<svg width="65" height="65" viewBox="0 0 65 65" fill="none" xmlns="http://www.w3.org/2000/svg">
<path d="M34.5968 63.9516H1.04837V49.6097C1.04837 46.9048 2.77822 44.504 5.34676 43.6444L12.2766 41.3379L16.7742 50.3226L22.0161 44.0323L27.258 50.3226L31.7556 41.3379L38.6855 43.6444H38.7903V60.8064C38.7903 61.6766 39.1468 62.4629 39.7129 63.029C40.279 63.5952 41.0653 63.9516 41.9355 63.9516H34.5968Z" fill="#E95D9A"/>
<path d="M31.7556 41.3381L27.258 50.3227L22.0161 44.0324L27.258 39.8389L31.7556 41.3381Z" fill="#B4185C"/>
<path d="M22.0161 44.0324L16.7742 50.3227L12.2766 41.3381L16.7742 39.8389L22.0161 44.0324Z" fill="#B4185C"/>
<path d="M11.5322 19.9193C9.2153 19.9193 7.33868 21.7959 7.33868 24.1129V15.7258C7.33868 7.62173 13.9121 1.04834 22.0161 1.04834C26.0629 1.04834 29.7322 2.69431 32.3951 5.34673C35.0475 8.00964 36.6935 11.679 36.6935 15.7258V24.1129C36.6935 22.9596 36.2217 21.9113 35.4669 21.1459C34.7016 20.3911 33.6532 19.9193 32.5 19.9193C32.5 17.6024 30.6234 15.7258 28.3064 15.7258H15.7258C13.4088 15.7258 11.5322 17.6024 11.5322 19.9193Z" fill="#DF8711"/>
<path d="M27.258 36.3369V39.8385L22.0161 44.0321L16.7742 39.8385V36.3369C18.3153 37.228 20.108 37.7417 22.0161 37.7417C23.9242 37.7417 25.7169 37.228 27.258 36.3369Z" fill="#F8D2A0"/>
<path d="M36.6935 24.113C36.6935 26.4299 34.8169 28.3065 32.5 28.3065H32.4476C32.479 27.9606 32.5 27.6146 32.5 27.2581V19.9194C33.6532 19.9194 34.7016 20.3912 35.4669 21.1461C36.2217 21.9114 36.6935 22.9598 36.6935 24.113Z" fill="#F8D2A0"/>
<path d="M32.5 19.9196V27.2583C32.5 27.6148 32.479 27.9608 32.4476 28.3067C32.2064 30.7809 31.0951 33.0035 29.4282 34.6704C28.7782 35.3204 28.0548 35.8761 27.258 36.3374C25.7169 37.2285 23.9242 37.7422 22.0161 37.7422C20.108 37.7422 18.3153 37.2285 16.7742 36.3374C13.9225 34.6914 11.9306 31.7454 11.5846 28.3067C11.5532 27.9608 11.5322 27.6148 11.5322 27.2583V19.9196C11.5322 17.6027 13.4088 15.7261 15.7258 15.7261H28.3064C30.6234 15.7261 32.5 17.6027 32.5 19.9196Z" fill="#F8D2A0"/>
<path d="M11.5322 19.9194V27.2581C11.5322 27.6146 11.5532 27.9606 11.5846 28.3065H11.5322C10.379 28.3065 9.33063 27.8347 8.56531 27.0799C7.81047 26.3146 7.33868 25.2662 7.33868 24.113C7.33868 21.796 9.2153 19.9194 11.5322 19.9194Z" fill="#F8D2A0"/>
<path d="M63.9516 61.8547V63.9515H41.9355C41.0653 63.9515 40.279 63.595 39.7129 63.0289C39.1468 62.4627 38.7903 61.6765 38.7903 60.8063C38.7903 59.066 40.1952 57.6611 41.9355 57.6611H63.9516V61.8547Z" fill="#77DFF9"/>
<path d="M63.9516 28.3066V57.6615H41.9355C40.1952 57.6615 38.7903 59.0663 38.7903 60.8066V31.4518C38.7903 29.7115 40.1952 28.3066 41.9355 28.3066H63.9516Z" fill="#F5C07A"/>
<path d="M59.758 32.5H42.9839V42.9839H59.758V32.5Z" fill="#D8F5FD"/>
<path d="M22.0161 33.5485C19.6992 33.5485 17.8226 31.6719 17.8226 29.355H19.9193C19.9193 30.5082 20.8629 31.4518 22.0161 31.4518C23.1693 31.4518 24.1129 30.5082 24.1129 29.355H26.2097C26.2097 31.6719 24.3331 33.5485 22.0161 33.5485Z" fill="black"/>
<path d="M32.5 29.355L32.4476 27.2582H32.5C34.2298 27.2582 35.6451 25.8429 35.6451 24.113C35.6451 22.3832 34.2298 20.9679 32.5 20.9679V18.8711C35.3935 18.8711 37.7419 21.2195 37.7419 24.113C37.7419 27.0066 35.3935 29.355 32.5 29.355Z" fill="black"/>
<path d="M11.5847 29.355C8.63869 29.355 6.29031 27.0066 6.29031 24.113C6.29031 21.2195 8.6387 18.8711 11.5322 18.8711V20.9679C9.80241 20.9679 8.38709 22.3832 8.38709 24.113C8.38709 25.8429 9.80241 27.2582 11.5322 27.2582L11.5847 29.355Z" fill="black"/>
<path d="M22.0161 38.7902C15.6524 38.7902 10.4839 33.6216 10.4839 27.2579V19.9192C10.4839 17.0256 12.8322 14.6772 15.7258 14.6772H28.3064C31.2 14.6772 33.5484 17.0256 33.5484 19.9192V27.2579C33.5484 33.6216 28.3798 38.7902 22.0161 38.7902ZM15.7258 16.774C13.996 16.774 12.5806 18.1893 12.5806 19.9192V27.2579C12.5806 32.4579 16.8161 36.6934 22.0161 36.6934C27.2161 36.6934 31.4516 32.4579 31.4516 27.2579V19.9192C31.4516 18.1893 30.0363 16.774 28.3064 16.774H15.7258Z" fill="black"/>
<path d="M42.9838 65.0001H-3.05176e-05V49.6097C-3.05176e-05 46.4436 2.01288 43.6444 5.02175 42.6484L15.7258 39.0734V36.3267H17.8225V40.5831L5.68224 44.6299C3.54353 45.3428 2.09674 47.3452 2.09674 49.5992V62.8928H42.9838V64.9896V65.0001Z" fill="black"/>
<path d="M38.35 44.6401L26.2097 40.5934V36.3369H28.3064V39.0837L39.0105 42.6482L38.35 44.6401Z" fill="black"/>
<path d="M16.7742 24.1129C17.3532 24.1129 17.8226 23.6435 17.8226 23.0645C17.8226 22.4855 17.3532 22.0161 16.7742 22.0161C16.1952 22.0161 15.7258 22.4855 15.7258 23.0645C15.7258 23.6435 16.1952 24.1129 16.7742 24.1129Z" fill="black"/>
<path d="M27.258 24.1129C27.8371 24.1129 28.3064 23.6435 28.3064 23.0645C28.3064 22.4855 27.8371 22.0161 27.258 22.0161C26.679 22.0161 26.2097 22.4855 26.2097 23.0645C26.2097 23.6435 26.679 24.1129 27.258 24.1129Z" fill="black"/>
<path d="M37.7419 24.1129H35.6452V15.7258C35.6452 8.20887 29.5331 2.09677 22.0161 2.09677C14.4992 2.09677 8.38709 8.20887 8.38709 15.7258V24.1129H6.29031V15.7258C6.29031 7.05564 13.346 0 22.0161 0C30.6863 0 37.7419 7.05564 37.7419 15.7258V24.1129Z" fill="black"/>
<path d="M27.4782 52.2202L20.5274 43.8855L26.6081 39.021L27.9081 40.6565L23.5049 44.1791L27.0379 48.425L30.8121 40.8662L32.6887 41.8097L27.4782 52.2202Z" fill="black"/>
<path d="M16.554 52.2202L11.3435 41.8097L13.2201 40.8662L16.9943 48.425L20.5274 44.1791L16.1242 40.6565L17.4242 39.021L23.5048 43.8855L16.554 52.2202Z" fill="black"/>
<path d="M31.4516 53.4678H25.1613V55.5645H31.4516V53.4678Z" fill="black"/>
<path d="M35.6451 53.4678H33.5484V63.9516H35.6451V53.4678Z" fill="black"/>
<path d="M10.4839 53.4678H8.38708V63.9516H10.4839V53.4678Z" fill="black"/>
<path d="M65 61.8551H62.9032V29.3551H41.9355C40.7823 29.3551 39.8387 30.2986 39.8387 31.4518V60.8067H37.7419V31.4518C37.7419 29.1349 39.6186 27.2583 41.9355 27.2583H65V61.8551Z" fill="black"/>
<path d="M60.8065 44.0323H41.9355V31.4517H60.8065V44.0323ZM44.0323 41.9355H58.7097V33.5484H44.0323V41.9355Z" fill="black"/>
<path d="M65 64.9999H41.9355C39.6186 64.9999 37.7419 63.1233 37.7419 60.8063C37.7419 58.4894 39.6186 56.6128 41.9355 56.6128H65V64.9999ZM41.9355 58.7096C40.7823 58.7096 39.8387 59.6531 39.8387 60.8063C39.8387 61.9596 40.7823 62.9031 41.9355 62.9031H62.9032V58.7096H41.9355Z" fill="black"/>
<path d="M60.8064 46.1289H50.3226V48.2257H60.8064V46.1289Z" fill="black"/>
<path d="M60.8064 50.3228H58.7097V52.4195H60.8064V50.3228Z" fill="black"/>
<path d="M56.6129 50.3228H54.5161V52.4195H56.6129V50.3228Z" fill="black"/>
<path d="M52.4193 50.3228H50.3226V52.4195H52.4193V50.3228Z" fill="black"/>
</svg>
