<svg width="470" height="250" viewBox="0 0 470 250" fill="none" xmlns="http://www.w3.org/2000/svg">
<mask id="mask0_926_10431" style="mask-type:alpha" maskUnits="userSpaceOnUse" x="0" y="0" width="470" height="250">
<path d="M0 20C0 8.9543 8.9543 0 20 0H450C461.046 0 470 8.9543 470 20V250H0V20Z" fill="#F7FDFE"/>
</mask>
<g mask="url(#mask0_926_10431)">
<path d="M170.742 265.748C170.742 265.748 166.248 293.092 176.151 307.447C186.053 321.803 195.955 326.137 258.323 331.088C258.323 331.088 275.154 440.239 280.165 458.06C280.165 458.06 294.461 461.033 320.816 459.732V452.863C320.816 452.863 333.254 452.863 348.472 450.261C348.472 450.261 357.565 348.351 352.554 308.815C347.543 269.278 338.344 267.141 299.319 256.516C260.294 245.89 171.744 252.58 170.735 265.748H170.742Z" fill="#F8D2A0"/>
<path d="M258.912 125.749C258.912 125.749 255.202 108.705 228.469 105.46C201.742 102.214 183.643 118.362 186.238 132.837C186.238 132.837 162.106 144.253 155.794 184.532C149.482 224.812 161.455 237.9 166.559 242.911C166.559 242.911 166.466 249.315 166.373 253.118C166.28 256.921 167.395 262.397 170.734 265.742C174.072 269.087 191.249 274.005 226.796 273.912C262.344 273.819 287.776 270.938 295.568 263.147C303.366 255.348 298.906 240.501 298.906 240.501C298.906 240.501 309.3 241.245 313.202 234.747C317.098 228.25 320.257 205.419 319.514 197.249C318.771 189.078 315.99 177.384 301.136 176.641C301.136 176.641 297.798 135.731 258.906 125.742L258.912 125.749Z" fill="#DF8711"/>
<path d="M217.89 156.598C217.89 156.598 213.623 171.172 214.831 184.904" stroke="#4F2B2B" stroke-width="1.35068" stroke-miterlimit="10" stroke-linecap="round"/>
<path d="M252.973 150.75C252.973 150.75 261.7 164.488 262.809 179.335" stroke="#4F2B2B" stroke-width="1.35068" stroke-miterlimit="10" stroke-linecap="round"/>
<path d="M265.07 178.734L261.304 179.264L262.933 190.844L266.699 190.314L265.07 178.734Z" fill="#A5CCEA"/>
<path d="M239.637 117.42C256.753 115.065 268.512 105.841 267.844 83.3379C267.844 65.2964 253.219 50.6709 235.177 50.6709C217.136 50.6709 202.51 65.2964 202.51 83.3379C198.932 102.67 220.139 120.104 239.637 117.42Z" fill="#FFBE97"/>
<path d="M239.232 91.7461C238.648 91.75 238.172 91.2812 238.167 90.6976L238.152 88.7851C238.148 88.2014 238.617 87.7249 239.201 87.7198C239.785 87.7159 240.261 88.1846 240.266 88.7683L240.28 90.6808C240.284 91.2645 239.816 91.741 239.232 91.7461Z" fill="#4F2B2B"/>
<path d="M262.993 92.7373C262.409 92.7412 261.932 92.2724 261.927 91.6888L261.913 89.7763C261.909 89.1926 262.378 88.7161 262.962 88.711C263.545 88.7071 264.022 89.1758 264.027 89.7595L264.041 91.672C264.045 92.2557 263.576 92.7322 262.993 92.7373Z" fill="#4F2B2B"/>
<path d="M216.779 91.3674L212.585 91.1583C211.909 91.1247 211.389 90.55 211.422 89.8747C211.456 89.1993 212.031 88.6789 212.706 88.7125L216.9 88.9217C217.576 88.9552 218.096 89.5299 218.062 90.2053C218.029 90.8806 217.454 91.401 216.779 91.3674Z" fill="#4F2B2B"/>
<path d="M249.449 103.316C249.585 103.273 249.71 103.194 249.809 103.076C250.083 102.75 250.039 102.265 249.713 101.993C248.673 101.121 247.982 99.5006 247.908 97.7647C247.823 95.7806 248.515 93.9526 249.855 92.6186C250.157 92.3187 250.157 91.8314 249.857 91.5302C249.559 91.2286 249.07 91.2244 248.769 91.5284C247.119 93.1704 246.267 95.4083 246.37 97.8305C246.463 100.018 247.343 102.014 248.725 103.172C248.933 103.348 249.208 103.393 249.45 103.317L249.449 103.316Z" fill="#4F2B2B"/>
<path d="M232.528 99.8904C234.291 100.048 235.699 99.2885 235.672 98.194C235.646 97.0995 234.196 96.0845 232.433 95.927C230.67 95.7694 229.263 96.5289 229.289 97.6233C229.315 98.7178 230.766 99.7328 232.528 99.8904Z" fill="#FF9D6C"/>
<path d="M261.099 101.686C262.838 101.716 264.257 100.843 264.269 99.7359C264.281 98.6289 262.881 97.707 261.142 97.6768C259.404 97.6466 257.985 98.5195 257.973 99.6265C257.961 100.733 259.361 101.655 261.099 101.686Z" fill="#FF9D6C"/>
<path d="M212.533 74.7974C220.611 79.0649 224.078 80.2882 241.122 80.2949C259.593 80.2949 267.108 84.7532 269.338 81.7799C277.641 78.6714 283.027 62.7635 277.258 63.4644C277.258 63.4644 270.852 64.5778 266.863 59.0094C262.993 53.6003 254.688 48.4639 245.082 46.2387C237.81 44.5541 233.254 44.6205 225.967 46.2386C218.687 47.855 212.719 49.6434 208.664 54.3158C198.835 65.645 208.445 72.6271 212.54 74.7907L212.533 74.7974Z" fill="#4F2B2B"/>
<path d="M220.828 77.8183C220.71 79.3603 219.344 81.3823 219.025 83.2084C217.903 82.2908 216.517 81.7058 214.981 81.5887C210.951 81.2812 207.447 84.2887 207.139 88.3189C206.832 92.3491 209.835 95.9129 213.865 96.2204C211.888 98.752 209.502 103.131 205.977 104.053C202.537 98.3728 199.395 91.78 199.047 83.2085C198.693 74.4691 200.883 63.3951 204.492 61.4834C206.044 64.5239 209.661 72.7721 211.422 73.8582C213.752 75.3472 217.868 76.8205 220.828 77.8183Z" fill="#4F2B2B"/>
<path d="M237.162 106.529C237.162 106.529 239.624 110.983 247.025 110.518" stroke="#4F2B2B" stroke-width="1.35068" stroke-miterlimit="10" stroke-linecap="round"/>
<path d="M232.212 85.2744C232.212 85.2744 236.557 82.6263 242.755 86.6967" stroke="#4F2B2B" stroke-width="1.35068" stroke-miterlimit="10" stroke-linecap="round"/>
<path d="M254.982 86.2646C254.982 86.2646 259.328 83.6165 265.525 87.687" stroke="#4F2B2B" stroke-width="1.35068" stroke-miterlimit="10" stroke-linecap="round"/>
<path d="M242.877 115.098L243.315 123.746C243.315 123.746 237.653 131.637 238.49 141.845C238.49 141.845 225.587 126.069 214.822 124.117L215.824 109.662L242.877 115.098Z" fill="#FFBE97"/>
<path d="M242.999 118.01C240.55 118.594 238.008 118.939 235.38 118.939C229.374 118.939 223.759 117.286 218.921 114.452H218.848C218.848 114.452 226.785 124.812 235.387 124.348C238.898 124.162 241.433 122.861 243.258 121.401L243.086 118.023L243.006 118.01H242.999Z" fill="#4F2B2B"/>
<path d="M186.237 132.836C186.237 132.836 187.631 139.984 197.188 144.251C206.745 148.519 235.152 150.563 241.185 155.295" stroke="#4F2B2B" stroke-width="1.35068" stroke-miterlimit="10" stroke-linecap="round"/>
<path d="M258.912 125.747C258.912 125.747 260.678 130.698 253.901 136.638C247.882 141.915 244.862 146.66 245.346 149.912" stroke="#4F2B2B" stroke-width="1.35068" stroke-miterlimit="10" stroke-linecap="round"/>
<path d="M298.914 240.501C298.914 240.501 285.918 177.391 282.58 171.729" stroke="#4F2B2B" stroke-width="1.35068" stroke-miterlimit="10" stroke-linecap="round"/>
<path d="M231.349 242.687C231.349 242.687 262.721 241.247 278.126 245.979V179.616C263.644 168.2 231.349 173.211 231.349 173.211V242.68V242.687Z" fill="#8FC6D7"/>
<path d="M287.033 171.729L278.126 179.621V245.977L287.033 238.092V171.729Z" fill="#2B6577"/>
<path d="M287.031 171.728C287.031 171.728 286.474 154.372 300.305 149.919V216.375C300.305 216.375 292.786 226.211 287.031 238.091V171.728Z" fill="#8FC6D7"/>
<path d="M314.139 188.249C314.139 181.194 314.603 176.09 304.827 172.884C295.263 169.751 289.449 177.298 301.887 180.404C301.887 180.404 290.471 179.986 291.493 184.904C292.137 187.99 298.827 188.335 298.827 188.335C298.827 188.335 292.701 190.472 293.259 193.16C293.518 194.434 295.303 196.87 301.894 195.383C301.894 195.383 295.715 197.766 297.068 200.859C298.369 203.832 300.035 202.704 305.975 202.445C311.444 202.206 314.145 197.806 314.145 188.242L314.139 188.249Z" fill="#FFBE97"/>
<path d="M248.056 206.626C248.056 206.626 251.58 202.265 249.542 199.664C247.1 196.551 241.186 200.221 241.186 200.221C241.186 200.221 245.64 196.232 242.301 194.002C239.773 192.316 231.35 196.783 231.35 196.783V191.308C225.968 192.516 212.973 202.869 212.973 202.869C212.973 218.273 223.087 231.547 223.087 231.547C223.087 231.547 242.115 225.833 245.268 220.636C247.551 216.866 244.246 216.369 244.246 216.369C244.246 216.369 249.071 214.325 249.974 210.986C250.87 207.648 248.056 206.626 248.056 206.626Z" fill="#FFBE97"/>
<path d="M278.126 179.621L282.579 175.679C271.164 163.567 242.167 168.08 242.167 168.08L231.349 173.217C231.349 173.217 263.651 168.206 278.126 179.621Z" fill="#FBE4C6"/>
<path d="M287.032 171.728C287.032 171.728 286.475 154.373 300.306 149.919L293.158 148.99C276.825 157.439 282.579 175.671 282.579 175.671L287.032 171.728Z" fill="#FBE4C6"/>
<path d="M231.348 196.787L225.408 200.218" stroke="#4F2B2B" stroke-width="1.35068" stroke-miterlimit="10" stroke-linecap="round"/>
<path d="M301.886 180.405C301.886 180.405 304.149 180.571 304.866 180.883" stroke="#4F2B2B" stroke-width="1.35068" stroke-miterlimit="10" stroke-linecap="round"/>
<path d="M298.82 188.344C298.82 188.344 303.088 187.508 305.504 188.344" stroke="#4F2B2B" stroke-width="1.35068" stroke-miterlimit="10" stroke-linecap="round"/>
<path d="M301.886 195.39C301.886 195.39 303.279 195.025 305.503 194.932" stroke="#4F2B2B" stroke-width="1.35068" stroke-miterlimit="10" stroke-linecap="round"/>
<path d="M241.185 200.223L229.072 206.441" stroke="#4F2B2B" stroke-width="1.35068" stroke-miterlimit="10" stroke-linecap="round"/>
<path d="M248.055 206.627L232.644 213.961" stroke="#4F2B2B" stroke-width="1.35068" stroke-miterlimit="10" stroke-linecap="round"/>
<path d="M244.243 216.37L235.124 220.83" stroke="#4F2B2B" stroke-width="1.35068" stroke-miterlimit="10" stroke-linecap="round"/>
<path d="M166.56 242.917C166.56 242.917 190.32 264.228 223.08 231.554C223.08 231.554 212.965 218.28 212.965 202.876L189.391 210.057" stroke="#4F2B2B" stroke-width="1.35068" stroke-miterlimit="10" stroke-linecap="round"/>
</g>
</svg>
