<svg width="100" height="100" viewBox="0 0 100 100" fill="none" xmlns="http://www.w3.org/2000/svg">
<path d="M53.2418 100H33.887V70.9679L33.5644 70.3228L28.4676 72.8711C26.7257 73.7421 24.8063 74.1937 22.8547 74.1937C19.9515 74.1937 17.2257 73.1937 15.0644 71.484C12.9192 69.7744 11.3063 67.355 10.645 64.5163L7.04826 49.2583C6.70955 47.8067 5.40311 46.7744 3.90311 46.7744C2.64504 46.7744 1.62891 45.7583 1.62891 44.5002C1.62891 43.8873 1.87085 43.3067 2.2902 42.8873L7.41922 37.7583C7.83858 37.339 8.08052 36.7583 8.08052 36.1454V32.1132C8.08052 22.0971 12.9837 12.7261 21.2095 7.0326C23.7579 5.25841 26.5644 3.90357 29.4837 3.00035C32.4031 2.081 35.4676 1.61328 38.5805 1.61328C43.7418 1.61328 48.6612 2.75844 53.0483 4.83908C50.5644 4.91972 48.4676 6.38744 47.4515 8.50034C45.887 7.90357 44.0644 7.82292 42.0805 8.90356C41.016 9.48421 40.1289 10.3713 39.5483 11.4358C38.4837 13.4197 38.5644 15.2261 39.1612 16.7907C36.9999 17.839 35.4999 20.0165 35.4999 22.581C35.4999 26.1455 38.387 29.0326 41.9515 29.0326C42.0321 29.0326 42.0966 29.0164 42.1773 29.0164C42.887 31.8067 45.387 33.8712 48.4031 33.8712C48.4837 33.8712 48.5482 33.8551 48.6289 33.8551C49.3386 36.6454 51.8386 38.7099 54.8547 38.7099C56.6289 38.7099 58.2418 37.9841 59.4192 36.8228C61.5644 38.968 63.2579 41.5164 64.4031 44.2745C65.5321 47.0325 66.145 50.0163 66.145 53.0647V59.2099H65.9837L64.3063 62.7905C61.2741 69.2421 59.6934 76.2743 59.6934 83.4033V100H53.2418Z" fill="#F8D2A0"/>
<path d="M72.5968 56.4674C68.6774 59.4029 66.1452 64.0802 66.1452 69.3544V53.0641C66.1452 50.0158 65.5322 47.0319 64.4032 44.2739C63.2581 41.5158 61.5645 38.9674 59.4194 36.8222C58.2419 37.9835 56.629 38.7094 54.8548 38.7094C51.8387 38.7094 49.3387 36.6448 48.629 33.8545C48.5484 33.8545 48.4839 33.8707 48.4032 33.8707C45.3871 33.8707 42.8871 31.8061 42.1774 29.0158C42.0968 29.0158 42.0323 29.032 41.9516 29.032C38.3871 29.032 35.5 26.1449 35.5 22.5804C35.5 20.0159 37 17.8385 39.1613 16.7901C38.5645 15.2256 38.4839 13.4191 39.5484 11.4352C40.129 10.3707 41.0161 9.48361 42.0806 8.90297C44.0645 7.82233 45.8871 7.90297 47.4516 8.49975C48.4677 6.38685 50.5645 4.91913 53.0484 4.83848H53.2419C54.3548 4.83848 55.3871 5.14494 56.3064 5.64493C57.4839 4.1772 59.2742 3.22559 61.3064 3.22559C63.3387 3.22559 65.129 4.1772 66.3065 5.64493C67.2258 5.14494 68.2581 4.83848 69.371 4.83848C72.3871 4.83848 74.8871 6.90301 75.5968 9.69332C75.6774 9.69332 75.7419 9.67718 75.8226 9.67718C79.3871 9.67718 82.2742 12.5643 82.2742 16.1288C82.2742 16.2094 82.2581 16.274 82.2581 16.3546C85.0484 17.0643 87.1129 19.5642 87.1129 22.5804C87.1129 24.1126 86.5484 25.4997 85.6613 26.6126C86.5484 27.7255 87.1129 29.1126 87.1129 30.6449C87.1129 34.2094 84.2258 37.0965 80.6613 37.0965C80.6613 40.661 77.7742 43.548 74.2097 43.548C73.6452 43.548 73.1129 43.4513 72.5968 43.3222V56.4674Z" fill="#8FC6D7"/>
<path d="M75.8379 91.9355H88.725C88.725 95.7097 85.4831 98.7259 81.6444 98.3549C78.3863 98.0484 75.9508 95.1936 75.8379 91.9355Z" fill="#4F2B2B"/>
<path d="M88.7255 86.0963V91.935H75.8384C75.8223 91.8382 75.8223 91.7576 75.8223 91.6608V86.0963C75.8223 85.8866 75.8062 85.6769 75.7578 85.4834H88.79C88.7417 85.6931 88.7255 85.8866 88.7255 86.0963Z" fill="#F2AE54"/>
<path d="M82.2745 85.4845H75.7584C75.581 84.5813 75.0165 83.791 74.1939 83.3071C69.3875 80.5168 66.1616 75.3233 66.1455 69.3555C66.1455 64.0814 68.6778 59.404 72.5971 56.4685C72.8713 56.275 73.1616 56.0653 73.452 55.8717C74.0487 55.4846 74.6616 55.1298 75.2907 54.8233C76.0165 54.4685 76.7907 54.162 77.5971 53.9201C78.0165 53.7911 78.4358 53.6782 78.8713 53.5975C78.952 53.5653 79.0326 53.5491 79.1294 53.533C79.3552 53.4846 79.581 53.4524 79.8229 53.4201C80.081 53.3717 80.3391 53.3394 80.5971 53.3072C80.8391 53.3072 81.0971 53.2749 81.3552 53.2588C81.6455 53.2427 81.9519 53.2266 82.2423 53.2266H82.2745C91.1778 53.2427 98.4036 60.4362 98.4036 69.3555C98.4036 75.3233 95.1616 80.5168 90.3552 83.3071C89.5326 83.791 88.9519 84.5813 88.7907 85.5007H88.7261L82.2745 85.4845Z" fill="#FBE4C6"/>
<path d="M82.2737 74.1938C84.0552 74.1938 85.4995 72.7495 85.4995 70.968C85.4995 69.1864 84.0552 67.7422 82.2737 67.7422C80.4921 67.7422 79.0479 69.1864 79.0479 70.968C79.0479 72.7495 80.4921 74.1938 82.2737 74.1938Z" fill="#BF8888"/>
<path d="M88.7265 90.3223H75.8232V93.5481H88.7265V90.3223Z" fill="black"/>
<path d="M82.2743 75.8063C79.613 75.8063 77.4355 73.6289 77.4355 70.9676C77.4355 68.3063 79.613 66.1289 82.2743 66.1289C84.9355 66.1289 87.113 68.3063 87.113 70.9676C87.113 73.6289 84.9355 75.8063 82.2743 75.8063ZM82.2743 69.3547C81.3872 69.3547 80.6614 70.0805 80.6614 70.9676C80.6614 71.8547 81.3872 72.5805 82.2743 72.5805C83.1614 72.5805 83.8872 71.8547 83.8872 70.9676C83.8872 70.0805 83.1614 69.3547 82.2743 69.3547Z" fill="black"/>
<path d="M83.8869 74.1934H80.6611V85.4836H83.8869V74.1934Z" fill="black"/>
<path d="M93.5647 69.3547H90.3389C90.3389 64.9031 86.726 61.2903 82.2744 61.2903V58.0645C88.5002 58.0645 93.5647 63.129 93.5647 69.3547Z" fill="black"/>
<path d="M61.3059 93.5482H58.0801V83.4031C58.0801 76.0805 59.7252 68.7257 62.8381 62.1129L64.5156 58.5322L67.4349 59.9032L65.7575 63.4838C62.8381 69.6773 61.3059 76.5644 61.3059 83.4031V93.5482Z" fill="black"/>
<path d="M22.8548 75.8062C16.2419 75.8062 10.5806 71.3224 9.06452 64.8869L5.46774 49.6289C5.29032 48.9031 4.64517 48.387 3.8871 48.387C1.74194 48.387 0 46.645 0 44.4999C0 43.4676 0.419353 42.4676 1.14516 41.7418L6.25807 36.6289C6.3871 36.4999 6.45161 36.3386 6.45161 36.1612V32.1128C6.45161 21.5806 11.629 11.7097 20.2903 5.70967C25.6774 1.96775 32 0 38.5645 0C43.9355 0 49.0806 1.16131 53.8871 3.45163L52.5 6.35482C48.129 4.27418 43.4355 3.20965 38.5645 3.20965C32.6613 3.20965 26.9839 4.98388 22.129 8.33871C14.3387 13.7258 9.69355 22.6129 9.69355 32.0806V36.1289C9.69355 37.1612 9.2742 38.1612 8.54839 38.887L3.43549 43.9999C3.30646 44.1289 3.24194 44.2902 3.24194 44.4676C3.24194 44.8386 3.5484 45.1289 3.90323 45.1289C6.1613 45.1289 8.09678 46.6612 8.61291 48.8547L12.2097 64.1127C13.371 69.0804 17.7581 72.5482 22.8548 72.5482C24.5484 72.5482 26.2419 72.145 27.7419 71.3869L50.9032 59.8063L52.3387 62.6934L29.1774 74.274C27.2258 75.2578 25.0323 75.774 22.8387 75.774L22.8548 75.8062Z" fill="black"/>
<path d="M88.7261 83.8701H75.1777V87.0959H88.7261V83.8701Z" fill="black"/>
<path d="M35.5002 70.9668H32.2744V87.0958H35.5002V70.9668Z" fill="black"/>
<path d="M82.2577 99.9996C81.9996 99.9996 81.7415 99.9996 81.4835 99.9674C77.4028 99.5803 74.2093 95.9351 74.2093 91.6609V86.0964C74.2093 85.5319 73.8867 84.9996 73.3867 84.7093C67.9351 81.548 64.548 75.661 64.5319 69.3546V53.0643C64.5319 47.8385 62.677 42.903 59.2577 39.0159C57.9512 39.8708 56.4351 40.3224 54.8545 40.3224C51.5964 40.3224 48.7093 38.3546 47.4674 35.4353C44.6125 35.0966 42.1448 33.2418 41.0157 30.5966C37.0157 30.1289 33.8867 26.7095 33.8867 22.5805C33.8867 19.9353 35.1609 17.5321 37.2577 16.0321C36.8867 14.2096 37.177 12.4031 38.1286 10.6612C38.8706 9.32245 39.9674 8.20959 41.3061 7.46765C43.0641 6.49991 44.8706 6.20956 46.6932 6.58053C48.1932 4.46763 50.5964 3.20958 53.2416 3.20958C54.1609 3.20958 55.048 3.3709 55.919 3.69348C57.3867 2.35477 59.2899 1.59668 61.3061 1.59668C63.3222 1.59668 65.2093 2.35477 66.6932 3.69348C67.5641 3.3709 68.4674 3.20958 69.3706 3.20958C72.6286 3.20958 75.5157 5.16118 76.7577 8.09666C80.4512 8.53214 83.3867 11.4676 83.8222 15.1612C86.7577 16.4192 88.7093 19.3063 88.7093 22.5483C88.7093 23.9837 88.3222 25.3547 87.5964 26.5805C88.3222 27.8063 88.7093 29.1773 88.7093 30.6128C88.7093 34.5482 85.8706 37.8385 82.1287 38.5482C81.4351 42.2901 78.1448 45.1288 74.1932 45.1288V53.532C76.0964 52.5482 78.1448 51.9191 80.2416 51.6933C85.2899 51.1449 90.3383 52.7417 94.0964 56.0965C97.8545 59.4514 99.9996 64.2739 99.9996 69.3223C99.9996 75.6287 96.6125 81.4997 91.1448 84.6771C90.6286 84.9835 90.3222 85.4996 90.3222 86.0642V91.9029C90.3222 94.1771 89.3545 96.3383 87.677 97.8706C86.1932 99.2254 84.2415 99.9674 82.2415 99.9674L82.2577 99.9996ZM67.7577 69.3546C67.7577 74.5158 70.5319 79.3223 74.9996 81.919C76.4996 82.79 77.4351 84.3868 77.4351 86.0964V91.6609C77.4351 94.2899 79.3544 96.5157 81.7899 96.7577C83.177 96.8867 84.4996 96.4512 85.5319 95.5158C86.5319 94.5964 87.1125 93.29 87.1125 91.9351V86.0964C87.1125 84.3868 88.048 82.7739 89.548 81.919C94.0157 79.3223 96.7899 74.5158 96.7899 69.3546C96.7899 65.2255 95.0319 61.2901 91.9512 58.532C88.8383 55.7417 84.8061 54.4675 80.6125 54.9191C78.0964 55.1933 75.6609 56.1772 73.5641 57.7578L70.9835 59.7094V41.2256L72.9996 41.7417C73.4674 41.8546 73.8545 41.9191 74.2093 41.9191C76.8706 41.9191 79.048 39.7417 79.048 37.0804V35.4675H80.6609C83.3222 35.4675 85.4996 33.2901 85.4996 30.6288C85.4996 29.5482 85.1287 28.4998 84.4028 27.6127L83.5803 26.5966L84.4028 25.5805C85.1125 24.6934 85.4996 23.645 85.4996 22.5644C85.4996 20.3708 83.9996 18.4515 81.8545 17.9031L80.5803 17.5805L80.6609 16.016C80.6609 13.4515 78.4835 11.2902 75.8222 11.2902C75.8383 11.2902 75.7577 11.3064 75.677 11.3064L74.3706 11.3547L74.048 10.0805C73.3061 7.17732 69.9351 5.4999 67.0803 7.04828L65.9029 7.69343L65.0641 6.64506C64.1287 5.48377 62.7577 4.82248 61.3222 4.82248C59.8867 4.82248 58.5157 5.48377 57.5803 6.64506L56.7416 7.69343L55.5641 7.04828C53.0319 5.67732 50.0964 6.77412 48.9351 9.19347L48.2899 10.516L46.9028 9.99992C45.5319 9.48379 44.2093 9.58057 42.8867 10.3064C42.0964 10.7419 41.419 11.4193 40.9835 12.2096C40.2577 13.5322 40.1609 14.8386 40.677 16.2095L41.1932 17.5967L39.8706 18.2418C38.177 19.0644 37.1287 20.7257 37.1287 22.5805C37.1287 25.2418 39.3061 27.4192 41.9674 27.4192C41.9512 27.4192 42.0319 27.4031 42.1125 27.4031L43.419 27.3547L43.7416 28.6289C44.2899 30.774 46.2093 32.274 48.4028 32.274C48.3867 32.274 48.4674 32.2579 48.548 32.2579L49.8545 32.2095L50.177 33.4837C50.7254 35.6289 52.6448 37.1288 54.8383 37.1288C56.1287 37.1288 57.3383 36.6289 58.2577 35.7095L59.4029 34.5643L60.548 35.7095C65.1932 40.3547 67.7416 46.5321 67.7416 53.0966V69.3868L67.7577 69.3546ZM69.5641 35.8547L66.4512 35.0159C67.2738 31.9837 69.7415 29.7418 72.7415 29.1772C72.9835 27.8869 73.548 26.6773 74.419 25.6128L76.9351 27.645C76.2254 28.5321 75.8383 29.5805 75.8383 30.6611V32.274H74.2254C72.0641 32.274 70.1448 33.7579 69.5803 35.8708L69.5641 35.8547ZM53.0803 26.2418C52.5319 24.0966 50.6125 22.5966 48.419 22.5966C48.4351 22.5966 48.3545 22.6127 48.2738 22.6127L48.1287 19.3869C48.1287 19.3869 48.3061 19.3708 48.419 19.3708C52.0964 19.3708 55.3061 21.8708 56.2093 25.4515L53.0803 26.2418ZM69.3867 19.3708C67.3867 19.3708 65.4835 18.6128 63.9996 17.2741C61.8706 18.0644 59.548 17.8708 57.4835 16.7418L59.0319 13.9031C60.5157 14.7095 62.1286 14.7095 63.6125 13.9031L64.7899 13.258L65.6286 14.3063C66.5641 15.4676 67.9351 16.1289 69.3706 16.1289C69.3545 16.1289 69.4351 16.1128 69.5157 16.1128L69.6609 19.3386C69.6609 19.3386 69.4835 19.3547 69.3706 19.3547L69.3867 19.3708Z" fill="black"/>
<path d="M35.5002 90.3223H32.2744V93.5481H35.5002V90.3223Z" fill="black"/>
<path d="M35.5002 96.7734H32.2744V99.9992H35.5002V96.7734Z" fill="black"/>
<path d="M61.3059 96.7734H58.0801V99.9992H61.3059V96.7734Z" fill="black"/>
<path d="M41.9514 72.5811H38.7256V75.8069H41.9514V72.5811Z" fill="black"/>
<path d="M41.9514 79.0322H38.7256V82.258H41.9514V79.0322Z" fill="black"/>
<path d="M41.9514 85.4844H38.7256V100H41.9514V85.4844Z" fill="black"/>
<path d="M54.8547 72.5811H51.6289V75.8069H54.8547V72.5811Z" fill="black"/>
<path d="M54.8547 79.0322H51.6289V82.258H54.8547V79.0322Z" fill="black"/>
<path d="M54.8547 85.4844H51.6289V100H54.8547V85.4844Z" fill="black"/>
<path d="M48.4035 69.3545H45.1777V99.9996H48.4035V69.3545Z" fill="black"/>
</svg>
