<?xml version="1.0" encoding="utf-8"?>
<!-- Generator: Adobe Illustrator 28.1.0, SVG Export Plug-In . SVG Version: 6.00 Build 0)  -->
<svg version="1.1" id="Layer_1" xmlns="http://www.w3.org/2000/svg" xmlns:xlink="http://www.w3.org/1999/xlink" x="0px" y="0px"
	 viewBox="0 0 470 250" style="enable-background:new 0 0 470 250;" xml:space="preserve">
<style type="text/css">
	.st0{fill:#3A8AA2;}
	.st1{fill:#FFBE97;}
	.st2{fill:#4F2B2B;}
	.st3{fill:#FB8876;}
	.st4{fill:#F5C07A;}
	.st5{fill:#9F5656;}
	.st6{fill:#0151A1;}
	.st7{fill:#FBE4C6;}
	.st8{fill:#2B6577;}
</style>
<circle class="st0" cx="249.8" cy="151.2" r="94.9"/>
<path class="st1" d="M309.7,194.6l35.2-8.2c3.8-1,7.8,1.1,9,4.9c1.3,3.9-0.8,8.1-4.6,9.4l-33,11.5l-23.6,17.3l-3.7,9.1l-37.8-9.3
	L309.7,194.6L309.7,194.6z"/>
<path class="st1" d="M292.5,191.7l22-4.1c3.7-0.7,7.3,1.6,8.3,5.2c1,3.5-0.8,7.2-4.2,8.6l-18.7,7.8l-11.1,13.5l-37.6,6.7l2.9-20.1
	l2.2-6.2c0,0,0-0.1,0-0.1c1.6-4.5,5.7-7.6,10.5-8.1L292.5,191.7L292.5,191.7z"/>
<path class="st2" d="M295.6,211.5c-0.2,0-0.4-0.1-0.5-0.4c-0.1-0.3,0-0.6,0.3-0.7l23.1-9.6c3.1-1.3,4.8-4.7,3.9-7.9
	c-0.1-0.3,0.1-0.6,0.4-0.7c0.3-0.1,0.6,0.1,0.7,0.4c1,3.8-0.9,7.7-4.5,9.2l-23.1,9.6C295.7,211.5,295.6,211.5,295.6,211.5z"/>
<path class="st1" d="M351,194.4l-27.9,9.9L288,232.8l54.6-16.7l13.3-8.1c3.8-1.3,5.8-5.5,4.4-9.3C358.9,195,354.8,193.1,351,194.4
	L351,194.4z"/>
<path class="st2" d="M316.6,214.7c-0.2,0-0.5-0.1-0.5-0.4c-0.1-0.3,0.1-0.6,0.4-0.7l19.2-6.3c0,0,13-6.9,13.7-7.3
	c4.8-2.7,4-4.9,4-4.9c-0.1-0.3,0-0.6,0.3-0.7c0.3-0.1,0.6,0,0.7,0.3c0.1,0.1,1.3,3.1-4.5,6.4c-0.8,0.4-13.3,7.1-13.8,7.4l-19.3,6.3
	C316.7,214.6,316.6,214.6,316.6,214.7L316.6,214.7z"/>
<path class="st2" d="M308.2,199.4c-0.2,0-0.3-0.1-0.5-0.2c-1.1-1.5-1.6-3.4-1.4-5.3c0-0.3,0.3-0.5,0.6-0.5c0.3,0,0.5,0.3,0.5,0.6
	c-0.2,1.6,0.3,3.2,1.2,4.5c0.2,0.2,0.1,0.6-0.1,0.8C308.5,199.4,308.4,199.4,308.2,199.4L308.2,199.4z"/>
<path class="st2" d="M288.2,229.5c0,0-0.1,0-0.1,0c-6.1-1.5-12.1-3.8-17.6-6.9c-0.3-0.1-0.4-0.5-0.2-0.8c0.1-0.3,0.5-0.4,0.8-0.2
	c5.5,3,11.3,5.3,17.4,6.8c0.3,0.1,0.5,0.4,0.4,0.7C288.7,229.3,288.5,229.5,288.2,229.5L288.2,229.5z"/>
<path class="st2" d="M181.4,146.8l5.5-21.2l-30.5-7.9l-0.3,1.1C160.5,131.2,170.1,140,181.4,146.8L181.4,146.8z"/>
<path class="st1" d="M156.1,118.6l-12.2,33.2h36.2l1.4-5.2C170.2,139.8,160.5,131.1,156.1,118.6z"/>
<path class="st1" d="M180.3,136.9c16.5,1.9,29.6-8.7,31.1-22.3c0.3-2.8,0.1-5.5-0.7-8.1c0-0.2-0.1-0.3-0.1-0.5c0,0,0-0.1,0-0.1
	c-0.1-0.3-0.2-0.5-0.3-0.8c-0.1-0.2-0.1-0.5-0.2-0.7c-0.7-1.9-1.8-3.8-3.1-5.5c0,0,0,0,0,0c-0.6-0.8-1.1-1.5-1.8-2.2
	c-4.9-5.4-12.2-9.3-20.8-10.2c-16.5-1.9-31.2,7.6-32.7,21.3C150.1,121.4,163.8,135,180.3,136.9L180.3,136.9L180.3,136.9z"/>
<path class="st3" d="M184.9,118.1c0,1.4,2,2.6,4.6,2.6s4.7-1,4.7-2.4c0-1.4-2-2.6-4.6-2.6C187.1,115.7,185,116.7,184.9,118.1z"/>
<path class="st1" d="M207.4,109.4l5.5,7.7c0.7,1,0.2,2.4-0.9,2.8l-5.6,1.7L207.4,109.4z"/>
<path class="st2" d="M201.6,116.2c-0.6,0-1.2-0.6-1.1-1.2l0-1.9c0-0.6,0.6-1.2,1.2-1.1s1.2,0.6,1.1,1.2l0,1.9
	C202.7,115.7,202.2,116.2,201.6,116.2z"/>
<path class="st2" d="M182.1,98.6L155,122c0,0-9.3-14.5-0.7-26c15.2-20.4,48.6-8.6,50.7,0.7L182.1,98.6z"/>
<path class="st2" d="M195.2,110.4c-0.2,0-0.3-0.1-0.4-0.2c-0.2-0.2-0.2-0.6,0.1-0.8c2.7-2.4,6.3-3.7,9.9-3.6c0.3,0,0.6,0.3,0.5,0.6
	c0,0.3-0.3,0.5-0.6,0.5h0c-3.3-0.1-6.6,1.1-9.1,3.3C195.5,110.4,195.4,110.4,195.2,110.4L195.2,110.4z"/>
<path class="st4" d="M199.7,167.2l-5.7,82.2h-93c6.7-26.8,20.4-79.5,27.5-90.8c5.6-8.9,18.2-10.2,18.2-10.2h36.1L199.7,167.2
	L199.7,167.2z"/>
<path class="st4" d="M247.3,249.4h-60.9L161.8,179c-4.1-11.8,0.9-24.5,11.3-30.5c1.3-0.8,2.8-1.4,4.2-1.9c2.8-1,5.6-1.4,8.4-1.4
	c10.5,0,20.4,6.6,24,17.1l31.2,72.2l6.5,15.1"/>
<path class="st2" d="M184,250c-0.2,0-0.4-0.1-0.5-0.4l-9.2-26.2c-0.1-0.3,0.1-0.6,0.3-0.7s0.6,0.1,0.7,0.3l9.2,26.2
	c0.1,0.3-0.1,0.6-0.3,0.7C184.1,250,184.1,250,184,250z"/>
<path class="st2" d="M161,159.9c-0.1,0-0.3-0.1-0.4-0.1c-0.2-0.2-0.3-0.6-0.1-0.8c3.9-4.6,8.5-8.4,13.7-11.4
	c0.3-0.2,0.6-0.1,0.8,0.2s0.1,0.6-0.2,0.8c-5.1,3-9.6,6.7-13.4,11.2C161.3,159.8,161.1,159.9,161,159.9L161,159.9z"/>
<polygon class="st4" points="233.8,249.4 241,234.4 248.3,219 252.5,220.4 261.2,223.4 269.1,226.1 288.1,232.7 288.2,232.7 
	291,233.7 294.2,234.8 290.1,249.4 "/>
<path class="st2" d="M247.3,250c-0.2,0-0.4-0.1-0.5-0.3l-6.3-14.4c-0.1-0.3,0-0.6,0.3-0.7s0.6,0,0.7,0.3l6.3,14.4
	c0.1,0.3,0,0.6-0.3,0.7C247.5,250,247.4,250,247.3,250L247.3,250z"/>
<rect x="234.7" y="50.6" class="st5" width="133" height="103.6"/>
<path class="st6" d="M367.7,154.7h-133c-0.3,0-0.6-0.2-0.6-0.6s0.2-0.6,0.6-0.6h132.4v-103c0-0.3,0.2-0.6,0.6-0.6s0.6,0.2,0.6,0.6
	v103.6C368.3,154.5,368,154.7,367.7,154.7L367.7,154.7z"/>
<rect x="294.1" y="60" class="st7" width="60.2" height="84.9"/>
<path class="st6" d="M354.3,145.4h-60.2c-0.3,0-0.6-0.2-0.6-0.6s0.2-0.6,0.6-0.6h59.6V60c0-0.3,0.2-0.6,0.6-0.6s0.6,0.2,0.6,0.6
	v84.9C354.9,145.2,354.6,145.5,354.3,145.4L354.3,145.4z"/>
<rect x="300.2" y="67.1" class="st8" width="25" height="7.3"/>
<path class="st2" d="M347.6,81.2H335c-0.3,0-0.6-0.2-0.6-0.6s0.2-0.6,0.6-0.6h12.6c0.3,0,0.6,0.2,0.6,0.6S347.9,81.2,347.6,81.2z"/>
<path class="st2" d="M330.4,81.2h-29c-0.3,0-0.6-0.2-0.6-0.6s0.2-0.6,0.6-0.6h29c0.3,0,0.6,0.2,0.6,0.6S330.7,81.2,330.4,81.2z"/>
<path class="st2" d="M340.3,86.3H320c-0.3,0-0.6-0.2-0.6-0.6s0.2-0.6,0.6-0.6h20.3c0.3,0,0.6,0.2,0.6,0.6S340.6,86.3,340.3,86.3z"/>
<path class="st2" d="M315.5,86.3h-14.1c-0.3,0-0.6-0.2-0.6-0.6s0.2-0.6,0.6-0.6h14.1c0.3,0,0.6,0.2,0.6,0.6S315.8,86.3,315.5,86.3z"
	/>
<path class="st2" d="M334.4,91.4h-21.9c-0.3,0-0.6-0.2-0.6-0.6s0.2-0.6,0.6-0.6h21.9c0.3,0,0.6,0.2,0.6,0.6S334.7,91.4,334.4,91.4z"
	/>
<path class="st2" d="M308,91.4h-6.6c-0.3,0-0.6-0.2-0.6-0.6s0.2-0.6,0.6-0.6h6.6c0.3,0,0.6,0.2,0.6,0.6S308.3,91.4,308,91.4z"/>
<path class="st2" d="M342.2,96.6h-13.8c-0.3,0-0.6-0.2-0.6-0.6s0.2-0.6,0.6-0.6h13.8c0.3,0,0.6,0.2,0.6,0.6S342.5,96.6,342.2,96.6z"
	/>
<path class="st2" d="M323.8,96.6h-22.4c-0.3,0-0.6-0.2-0.6-0.6s0.2-0.6,0.6-0.6h22.4c0.3,0,0.6,0.2,0.6,0.6S324.1,96.6,323.8,96.6z"
	/>
<path class="st2" d="M346,101.7h-25.9c-0.3,0-0.6-0.2-0.6-0.6s0.2-0.6,0.6-0.6H346c0.3,0,0.6,0.2,0.6,0.6S346.3,101.7,346,101.7z"/>
<path class="st2" d="M315.5,101.7h-14.1c-0.3,0-0.6-0.2-0.6-0.6s0.2-0.6,0.6-0.6h14.1c0.3,0,0.6,0.2,0.6,0.6
	S315.8,101.7,315.5,101.7z"/>
<path class="st2" d="M343.7,106.8h-17.5c-0.3,0-0.6-0.2-0.6-0.6s0.2-0.6,0.6-0.6h17.5c0.3,0,0.6,0.2,0.6,0.6S344,106.8,343.7,106.8z
	"/>
<path class="st2" d="M321.7,106.8h-20.3c-0.3,0-0.6-0.2-0.6-0.6s0.2-0.6,0.6-0.6h20.3c0.3,0,0.6,0.2,0.6,0.6S322,106.8,321.7,106.8z
	"/>
<path class="st2" d="M347.6,111.9h-8.5c-0.3,0-0.6-0.2-0.6-0.6s0.2-0.6,0.6-0.6h8.5c0.3,0,0.6,0.2,0.6,0.6S347.9,111.9,347.6,111.9z
	"/>
<path class="st2" d="M334.6,111.9h-33.2c-0.3,0-0.6-0.2-0.6-0.6s0.2-0.6,0.6-0.6h33.2c0.3,0,0.6,0.2,0.6,0.6
	S334.9,111.9,334.6,111.9z"/>
<path class="st2" d="M347.6,117h-29.3c-0.3,0-0.6-0.2-0.6-0.6s0.2-0.6,0.6-0.6h29.3c0.3,0,0.6,0.2,0.6,0.6S347.9,117,347.6,117z"/>
<path class="st2" d="M313.7,117h-12.4c-0.3,0-0.6-0.2-0.6-0.6s0.2-0.6,0.6-0.6h12.4c0.3,0,0.6,0.2,0.6,0.6S314,117,313.7,117z"/>
<path class="st2" d="M347.6,122.1h-6.7c-0.3,0-0.6-0.2-0.6-0.6s0.2-0.6,0.6-0.6h6.7c0.3,0,0.6,0.2,0.6,0.6S347.9,122.1,347.6,122.1z
	"/>
<path class="st2" d="M336.3,122.1h-34.9c-0.3,0-0.6-0.2-0.6-0.6s0.2-0.6,0.6-0.6h34.9c0.3,0,0.6,0.2,0.6,0.6
	S336.6,122.1,336.3,122.1z"/>
<path class="st2" d="M334.4,127.2h-33.1c-0.3,0-0.6-0.2-0.6-0.6s0.2-0.6,0.6-0.6h33.1c0.3,0,0.6,0.2,0.6,0.6
	S334.7,127.2,334.4,127.2z"/>
<path class="st2" d="M330.4,132.3h-29c-0.3,0-0.6-0.2-0.6-0.6s0.2-0.6,0.6-0.6h29c0.3,0,0.6,0.2,0.6,0.6S330.7,132.3,330.4,132.3z"
	/>
<path class="st8" d="M264.7,89.2h-41.1c-5.9,0-10.7-4.8-10.7-10.7s4.8-10.7,10.7-10.7h41.1c5.9,0,10.7,4.8,10.7,10.7
	S270.6,89.2,264.7,89.2z"/>
<path class="st6" d="M264.7,89.8h-41.1c-0.3,0-0.6-0.2-0.6-0.6s0.2-0.6,0.6-0.6h41.1c5.6,0,10.1-4.5,10.1-10.1
	c0-0.3,0.2-0.6,0.6-0.6s0.6,0.2,0.6,0.6C276,84.7,270.9,89.8,264.7,89.8L264.7,89.8z"/>
<ellipse class="st7" cx="228.7" cy="78.5" rx="3.6" ry="3.6"/>
<circle class="st7" cx="244.2" cy="78.5" r="3.6"/>
<circle class="st7" cx="259.7" cy="78.5" r="3.6"/>
<path class="st1" d="M158.2,114.7c0.1,3.4,2.8,6.1,6.2,6s6.1-2.8,6-6.2s-2.8-6.1-6.2-6S158.2,111.3,158.2,114.7z"/>
<path class="st2" d="M162.6,115.8l3.5-0.1c0.6,0,1-0.5,1-1.1s-0.5-1-1.1-1l-3.5,0.1c-0.6,0-1,0.5-1,1.1
	C161.6,115.3,162,115.8,162.6,115.8z"/>
<path class="st2" d="M182.1,98.6c0,0,18.8,6.2,29.3-7.3c0,0-8.2,0.9-15.6-4.7c-3.2-2.4-33.4-12.2-40.6,8.1L182.1,98.6L182.1,98.6z"
	/>
<polygon class="st2" points="184.8,95.6 176.8,111.6 172.7,114 171,118.4 166.4,105.3 "/>
<path class="st2" d="M195.3,124.6c-0.3,0-0.5,0.2-0.5,0.4c-0.1,0.3,0.1,0.6,0.4,0.7c2.3,0.5,4.8,0.5,7.1,0c0.3-0.1,0.5-0.4,0.4-0.7
	c-0.1-0.3-0.4-0.5-0.7-0.4c-2.2,0.5-4.4,0.4-6.6,0C195.4,124.6,195.4,124.6,195.3,124.6z"/>
</svg>
