<?xml version="1.0" encoding="utf-8"?>
<!-- Generator: Adobe Illustrator 28.1.0, SVG Export Plug-In . SVG Version: 6.00 Build 0)  -->
<svg version="1.1" id="Layer_1" xmlns="http://www.w3.org/2000/svg" xmlns:xlink="http://www.w3.org/1999/xlink" x="0px" y="0px"
	 viewBox="0 0 470 251" style="enable-background:new 0 0 470 251;" xml:space="preserve">
<style type="text/css">
	.st0{fill:#FCE9CC;}
	.st1{fill:#4F2B2B;}
	.st2{fill:#F29EC3;}
	.st3{fill:#FFB8BD;}
	.st4{fill:#EE81B0;}
	.st5{fill:#FFBE97;}
	.st6{fill:#FF9D6C;}
	.st7{fill:#BF8888;}
	.st8{fill:#FBE4C6;}
	.st9{fill:#FADBE9;}
	.st10{fill:#8FC6D7;}
	.st11{fill:#775340;}
	.st12{fill:#DF8711;}
</style>
<rect x="141.6" y="50.6" class="st0" width="90.4" height="118.4"/>
<path class="st1" d="M142.1,168.4h89.3V51.1h-89.3L142.1,168.4L142.1,168.4z M231.9,169.5h-90.4c-0.3,0-0.6-0.2-0.6-0.6V50.6
	c0-0.3,0.2-0.6,0.6-0.6h90.4c0.3,0,0.6,0.2,0.6,0.6v118.4C232.5,169.3,232.2,169.5,231.9,169.5z"/>
<ellipse transform="matrix(0.3744 -0.9273 0.9273 0.3744 23.144 195.5317)" class="st2" cx="156.5" cy="80.6" rx="4.2" ry="4.2"/>
<circle class="st2" cx="156.5" cy="101.8" r="4.2"/>
<circle class="st3" cx="156.5" cy="122.9" r="4.2"/>
<circle class="st2" cx="156.5" cy="144" r="4.2"/>
<rect x="168.1" y="77.8" class="st1" width="53.9" height="5.6"/>
<rect x="168.1" y="99" class="st1" width="53.9" height="5.6"/>
<rect x="168.1" y="120.1" class="st1" width="53.9" height="5.6"/>
<rect x="168.1" y="141.3" class="st1" width="53.9" height="5.6"/>
<path class="st1" d="M156.2,81.2c-0.1,0-0.3-0.1-0.4-0.2l-5.6-6.1c-0.2-0.2-0.2-0.6,0-0.8c0.2-0.2,0.6-0.2,0.8,0l5.1,5.6l6.7-9.5
	c0.2-0.2,0.5-0.3,0.8-0.1s0.3,0.5,0.1,0.8l-7.1,10C156.6,81.1,156.4,81.2,156.2,81.2C156.2,81.2,156.2,81.2,156.2,81.2L156.2,81.2z"
	/>
<path class="st1" d="M156.2,102.8c-0.1,0-0.3-0.1-0.4-0.2l-5.6-6.1c-0.2-0.2-0.2-0.6,0-0.8c0.2-0.2,0.6-0.2,0.8,0l5.1,5.6l6.7-9.5
	c0.2-0.2,0.5-0.3,0.8-0.1s0.3,0.5,0.1,0.8l-7.1,10C156.6,102.8,156.4,102.8,156.2,102.8C156.2,102.8,156.2,102.8,156.2,102.8
	L156.2,102.8z"/>
<path class="st1" d="M156.2,124.5c-0.1,0-0.3-0.1-0.4-0.2l-5.6-6.1c-0.2-0.2-0.2-0.6,0-0.8c0.2-0.2,0.6-0.2,0.8,0l5.1,5.6l6.7-9.5
	c0.2-0.2,0.5-0.3,0.8-0.1s0.3,0.5,0.1,0.8l-7.1,10C156.6,124.4,156.4,124.5,156.2,124.5C156.2,124.5,156.2,124.5,156.2,124.5
	L156.2,124.5z"/>
<path class="st1" d="M156.2,146.2c-0.1,0-0.3-0.1-0.4-0.2l-5.6-6.1c-0.2-0.2-0.2-0.6,0-0.8s0.6-0.2,0.8,0l5.1,5.6l6.7-9.5
	c0.2-0.2,0.5-0.3,0.8-0.1s0.3,0.5,0.1,0.8l-7.1,10C156.6,146.1,156.4,146.2,156.2,146.2C156.2,146.2,156.2,146.2,156.2,146.2
	L156.2,146.2z"/>
<path class="st1" d="M274.2,146.5V85.3c0-4.6-2.5-8.9-6.5-11.2c0,0-0.1,0-0.1-0.1c-4.4-2.5-10-1.5-13.5,2.2l-2.3,2.4v67.9
	C251.8,146.5,274.6,146.9,274.2,146.5L274.2,146.5z"/>
<polygon class="st4" points="281.3,142.9 269.2,140.1 222.2,142.5 210.3,145.6 234.1,181.4 "/>
<rect x="230.6" y="114" class="st5" width="28.2" height="29.7"/>
<path class="st1" d="M230.6,132.8v-8.2l25.5-3.2C247,134.2,235.3,134.3,230.6,132.8z"/>
<path class="st1" d="M209.1,106.2c-12.6-13.9,5.3-23.1,5.3-23.1s6-12.8,28.1-9.3C263.9,77.1,268.9,91,268,106L209.1,106.2
	L209.1,106.2z"/>
<path class="st5" d="M264.1,105.7c-0.4,0-0.8,0.1-1.1,0.1c-0.4-10.9-8-22.2-22.8-24.5c-14.8-2.3-28.7,7.3-31,19.6s6,25.1,20.8,27.9
	c12.4,2.4,25.4-3,30.6-12.1c1,0.8,2.3,1.2,3.8,1.2c3.4,0,6.1-2.8,6-6.2C270.2,108.3,267.5,105.7,264.1,105.7z"/>
<path class="st1" d="M220.9,113c-0.5,0-0.9-0.4-0.9-0.9l0-1.6c0-0.5,0.4-0.9,0.9-0.9c0.5,0,0.9,0.4,0.9,0.9l0,1.6
	C221.8,112.6,221.4,113,220.9,113z"/>
<path class="st1" d="M241.7,113c-0.5,0-0.9-0.4-0.9-0.9l0-1.6c0-0.5,0.4-0.9,0.9-0.9c0.5,0,0.9,0.4,0.9,0.9l0,1.6
	C242.6,112.6,242.2,113,241.7,113z"/>
<path class="st1" d="M251.1,104.7c-0.2,0-0.3-0.1-0.4-0.2c-1.7-2.1-9.1-2.3-11.9-0.8c-0.3,0.1-0.6,0-0.8-0.2c-0.1-0.3,0-0.6,0.2-0.8
	c3-1.6,11-1.6,13.2,1.1c0.2,0.2,0.2,0.6-0.1,0.8C251.4,104.6,251.2,104.7,251.1,104.7L251.1,104.7z"/>
<path class="st1" d="M227.5,122.1c1.1,0.7,2.9,1.4,5,1.4c2.1,0,4.4-0.7,6.4-2.9l-1.1-1c-1.7,1.8-3.6,2.4-5.3,2.4
	c-1.8,0-3.3-0.6-4.2-1.2L227.5,122.1z M238.9,120.6c0.3-0.3,0.3-0.8-0.1-1.1s-0.8-0.3-1.1,0.1L238.9,120.6z M228.3,120.8
	c-0.4-0.2-0.8-0.1-1,0.2s-0.1,0.8,0.2,1L228.3,120.8z"/>
<path class="st1" d="M213.7,103.8c-0.2,0-0.4-0.1-0.5-0.2c-0.2-0.3-0.1-0.6,0.2-0.8c4.2-2.7,10-2.3,11.8-0.7c0.2,0.2,0.2,0.6,0,0.8
	s-0.6,0.2-0.8,0c-1.3-1.2-6.6-1.7-10.4,0.8C213.9,103.8,213.8,103.8,213.7,103.8L213.7,103.8z"/>
<ellipse transform="matrix(4.029950e-02 -0.9992 0.9992 4.029950e-02 120.7234 362.0434)" class="st6" cx="248.8" cy="118.2" rx="2.3" ry="4.3"/>
<path class="st1" d="M229.6,113.8c-0.1,0-0.2,0-0.3-0.1c-0.2-0.2-0.3-0.5-0.1-0.8c0.7-1,0.9-2.5,0.5-3.9c-0.4-1.7-1.4-3-2.8-3.8
	c-0.3-0.2-0.4-0.5-0.2-0.8c0.1-0.3,0.5-0.4,0.8-0.2c1.7,1,2.9,2.6,3.3,4.5c0.4,1.8,0.1,3.6-0.7,4.8
	C229.9,113.8,229.7,113.8,229.6,113.8z"/>
<path class="st1" d="M221.5,78.3c0,0-15.6,9.7-14.1,22.7l1.6,2.4c0,0,4.2-13.1,18.1-17c0,0-4,8.6,5.4,11.6c1.3,0.4,2.4-0.9,1.8-2.1
	c0,0,2.2,1.9,6,2.1c1.4,0.1,2.4-1.3,1.9-2.6l-0.1-0.2c0,0,15.4,11,23.2,6.7C265.4,102,261.7,63.8,221.5,78.3z"/>
<polygon class="st7" points="238.5,143.6 230.6,131.9 222.2,142.5 226.9,154.9 "/>
<polygon class="st7" points="238.8,143.6 258.9,126.9 269.2,140.1 249.9,157.3 "/>
<path class="st1" d="M244.3,62.2h-3.3c-0.3,0-0.6-0.2-0.6-0.6s0.2-0.6,0.6-0.6h3.3c0.3,0,0.6,0.2,0.6,0.6
	C244.8,62,244.6,62.2,244.3,62.2z M250.9,62.2h-3.3c-0.3,0-0.6-0.2-0.6-0.6s0.2-0.6,0.6-0.6h3.3c0.3,0,0.6,0.2,0.6,0.6
	C251.5,62,251.2,62.2,250.9,62.2z M257.6,62.2h-3.3c-0.3,0-0.6-0.2-0.6-0.6s0.2-0.6,0.6-0.6h3.3c0.3,0,0.6,0.2,0.6,0.6
	S257.9,62.2,257.6,62.2z M264.3,62.2h-3.3c-0.3,0-0.6-0.2-0.6-0.6s0.2-0.6,0.6-0.6h3.3c0.3,0,0.6,0.2,0.6,0.6
	C264.8,62,264.6,62.2,264.3,62.2z M271,62.2h-3.3c-0.3,0-0.6-0.2-0.6-0.6s0.2-0.6,0.6-0.6h3.3c0.3,0,0.6,0.2,0.6,0.6
	C271.5,62,271.3,62.2,271,62.2z M277.6,62.2h-3.3c-0.3,0-0.6-0.2-0.6-0.6s0.2-0.6,0.6-0.6h3.3c0.3,0,0.6,0.2,0.6,0.6
	S277.9,62.2,277.6,62.2z M284.3,62.2H281c-0.3,0-0.6-0.2-0.6-0.6s0.2-0.6,0.6-0.6h3.3c0.3,0,0.6,0.2,0.6,0.6S284.6,62.2,284.3,62.2z
	 M291,62.2h-3.3c-0.3,0-0.6-0.2-0.6-0.6s0.2-0.6,0.6-0.6h3.3c0.3,0,0.6,0.2,0.6,0.6C291.5,62,291.3,62.2,291,62.2z M297.6,62.2h-3.3
	c-0.3,0-0.6-0.2-0.6-0.6s0.2-0.6,0.6-0.6h3.3c0.3,0,0.6,0.2,0.6,0.6S298,62.2,297.6,62.2z M304.3,62.7c-0.1,0-0.1,0-0.2,0
	c-0.7-0.3-1.4-0.4-2.1-0.4h-1c-0.3,0-0.6-0.2-0.6-0.6s0.2-0.6,0.6-0.6h1c0.9,0,1.7,0.2,2.5,0.5c0.3,0.1,0.4,0.4,0.3,0.7
	C304.7,62.5,304.5,62.7,304.3,62.7L304.3,62.7z M308,67.8c-0.3,0-0.5-0.2-0.5-0.5c-0.1-1-0.5-2-1.1-2.8c-0.2-0.2-0.1-0.6,0.1-0.8
	s0.6-0.1,0.8,0.1c0.7,1,1.2,2.1,1.3,3.4C308.6,67.5,308.4,67.7,308,67.8C308.1,67.8,308,67.8,308,67.8L308,67.8z M308,74.4
	c-0.3,0-0.6-0.2-0.6-0.6v-3.3c0-0.3,0.2-0.6,0.6-0.6s0.6,0.2,0.6,0.6v3.3C308.6,74.2,308.4,74.4,308,74.4z M308,81.1
	c-0.3,0-0.6-0.2-0.6-0.6v-3.3c0-0.3,0.2-0.6,0.6-0.6s0.6,0.2,0.6,0.6v3.3C308.6,80.8,308.4,81.1,308,81.1z M308,87.8
	c-0.3,0-0.6-0.2-0.6-0.6v-3.3c0-0.3,0.2-0.6,0.6-0.6s0.6,0.2,0.6,0.6v3.3C308.6,87.5,308.4,87.8,308,87.8z M308,94.4
	c-0.3,0-0.6-0.2-0.6-0.6v-3.3c0-0.3,0.2-0.6,0.6-0.6s0.6,0.2,0.6,0.6v3.3C308.6,94.2,308.4,94.4,308,94.4z M308,100.3
	c-0.3,0-0.6-0.2-0.6-0.6v-2.5c0-0.3,0.2-0.6,0.6-0.6s0.6,0.2,0.6,0.6v2.5C308.6,100,308.4,100.3,308,100.3z"/>
<rect x="295.9" y="113.7" class="st8" width="5.6" height="14.5"/>
<rect x="306.2" y="107.5" class="st9" width="5.6" height="20.6"/>
<rect x="316.5" y="102.2" class="st10" width="5.6" height="25.9"/>
<path class="st1" d="M296.5,127.6h4.5v-13.3h-4.5V127.6z M301.5,128.7h-5.6c-0.3,0-0.6-0.2-0.6-0.6v-14.5c0-0.3,0.2-0.6,0.6-0.6h5.6
	c0.3,0,0.6,0.2,0.6,0.6v14.5C302.1,128.4,301.9,128.7,301.5,128.7z"/>
<path class="st1" d="M306.8,127.6h4.5V108h-4.5V127.6z M311.9,128.7h-5.6c-0.3,0-0.6-0.2-0.6-0.6v-20.6c0-0.3,0.2-0.6,0.6-0.6h5.6
	c0.3,0,0.6,0.2,0.6,0.6v20.6C312.4,128.4,312.2,128.7,311.9,128.7z"/>
<path class="st1" d="M317.1,127.6h4.5v-24.8h-4.5V127.6z M322.2,128.7h-5.6c-0.3,0-0.6-0.2-0.6-0.6v-25.9c0-0.3,0.2-0.6,0.6-0.6h5.6
	c0.3,0,0.6,0.2,0.6,0.6v25.9C322.7,128.4,322.5,128.7,322.2,128.7z"/>
<path class="st11" d="M324.5,128.7h-30.8c-0.3,0-0.6-0.2-0.6-0.6s0.2-0.6,0.6-0.6h30.8c0.3,0,0.6,0.2,0.6,0.6
	S324.9,128.7,324.5,128.7z"/>
<path class="st4" d="M274.2,243.7l40.5,0.3c7.8,0.1,14.1-6.3,14-14.1l-0.2-13.9l0-35.3c0-15.1-9.9-28.8-24.5-32.7
	c-0.5-0.1-1-0.2-1.4-0.4l-21.2-4.8L234,181.4l-23.8-35.7l-14.3,3.8c-10.6,2.8-18.9,11.1-21.5,21.7l-4.4,61.1h99.1L274.2,243.7
	L274.2,243.7z"/>
<path class="st1" d="M197.3,232.8c-0.3,0-0.5-0.2-0.6-0.5l-3.2-39.8c0-0.3,0.2-0.6,0.5-0.6c0.3,0,0.6,0.2,0.6,0.5l3.2,39.8
	C197.9,232.5,197.7,232.8,197.3,232.8C197.4,232.8,197.3,232.8,197.3,232.8z"/>
<path class="st1" d="M268.7,208.9c-0.3,0-0.5-0.2-0.5-0.4c-0.1-0.3,0.1-0.6,0.4-0.7l28.5-5.8c0.3-0.1,0.6,0.1,0.7,0.4
	c0.1,0.3-0.1,0.6-0.4,0.7l-28.5,5.8C268.8,208.9,268.7,208.9,268.7,208.9L268.7,208.9z"/>
<path class="st12" d="M226.8,229.7L226.8,229.7v2l0,0V229.7z M229.2,232.4c-0.7-0.4-1.2-1.1-1.4-1.9l-1.9,0.5
	c0.3,1.3,1.2,2.4,2.3,3.1L229.2,232.4z M227.6,235.5l1.8-1.5l-1.3-1.5l-1.8,1.5L227.6,235.5z M222.1,230.6l4,4.8l1.5-1.3l-4-4.8
	L222.1,230.6z M256.6,200.3l-34.3,28.9l1.3,1.5l34.3-28.9L256.6,200.3z M262,205.2l-4-4.8l-1.5,1.3l4,4.8L262,205.2z M241.8,223.5
	l20.1-16.9l-1.3-1.5L240.5,222L241.8,223.5z M241.9,223.4C241.9,223.4,241.9,223.4,241.9,223.4C241.9,223.4,241.9,223.4,241.9,223.4
	c0,0-0.1,0.1-0.1,0.1l-1.3-1.5c-0.2,0.1-0.3,0.3-0.3,0.4L241.9,223.4z M232.8,225.9c2.7-0.6,5.6-1.2,8.6-2.1l-0.5-1.9
	c-2.9,0.8-5.8,1.4-8.5,2L232.8,225.9z M230.2,226.5c0.8-0.2,1.7-0.4,2.6-0.6l-0.4-1.9c-0.9,0.2-1.7,0.4-2.6,0.6L230.2,226.5z
	 M228.1,227.9c0.5-0.8,1.2-1.3,2.1-1.5l-0.4-1.9c-1.4,0.3-2.6,1.2-3.3,2.4L228.1,227.9z M227.8,230.5c-0.2-0.9-0.1-1.8,0.4-2.5
	l-1.7-1c-0.8,1.2-1,2.7-0.6,4.1L227.8,230.5z M226.8,230.7l1-0.2c-0.1-0.4-0.5-0.8-1-0.8V230.7z M228.7,233.2l0.6,0.8
	c0.2-0.2,0.4-0.5,0.4-0.8c0-0.3-0.2-0.6-0.5-0.8L228.7,233.2z M226.9,234.7l-0.8,0.6c0.4,0.4,1,0.5,1.4,0.1L226.9,234.7z M222.9,230
	l-0.6-0.8c-0.2,0.2-0.3,0.4-0.4,0.7c0,0.3,0.1,0.5,0.2,0.7L222.9,230z M257.2,201.1l0.8-0.6c-0.2-0.2-0.4-0.3-0.7-0.4
	s-0.5,0.1-0.7,0.2L257.2,201.1z M261.2,205.8l0.6,0.8c0.4-0.4,0.5-1,0.1-1.4L261.2,205.8z M241.2,222.7l0.6,0.8l0,0L241.2,222.7z
	 M241.1,222.9l0.3,1c0.2-0.1,0.4-0.2,0.6-0.4L241.1,222.9z M232.6,224.9l0.2,1l0,0L232.6,224.9z M230,225.5l0.2,1l0,0L230,225.5z
	 M227.3,227.4l-0.9-0.5l0,0L227.3,227.4z M226.8,230.7l-1,0.2c0.1,0.4,0.5,0.8,1,0.8V230.7z"/>
<path class="st12" d="M226.8,230.7c-0.3-1.1-0.1-2.3,0.5-3.3c0.6-1,1.6-1.7,2.7-1.9c0.8-0.2,1.7-0.4,2.6-0.6
	c2.7-0.6,5.6-1.2,8.5-2.1c0,0,0.1-0.1,0.1-0.1l20.1-16.9l-4-4.8L222.9,230l4,4.8l1.8-1.5C227.8,232.7,227.1,231.8,226.8,230.7
	L226.8,230.7z"/>
<path class="st8" d="M219.3,234.8l1.4,1.8c0,0.2,0.4,0.4,0.9,0.9l5.5-1.8l-5-5.9L219.3,234.8L219.3,234.8z"/>
<polygon class="st1" points="218.8,237.4 221.5,237.4 219.3,234.7 "/>
<path class="st5" d="M242.7,231.8L242.7,231.8l-1.4,1.4l0,0L242.7,231.8z M240.6,228.6c0.5,1.2,0.6,2.4,0.4,3.7l2,0.3
	c0.2-1.6,0-3.2-0.6-4.7L240.6,228.6z M241.1,228.9c-0.2,0.1-0.5,0-0.6-0.2l1.9-0.8c-0.3-0.8-1.2-1.2-2-0.8L241.1,228.9z
	 M241.4,228.3c0.1,0.2,0,0.5-0.2,0.6l-0.8-1.9c-0.8,0.3-1.2,1.2-0.8,2L241.4,228.3z M241.9,232.4c0.2-1.4,0-2.9-0.5-4.1l-1.8,0.8
	c0.4,0.9,0.5,2,0.4,3.1L241.9,232.4z M241.5,231.9c0.2,0,0.4,0.3,0.4,0.5l-2-0.3c-0.1,0.9,0.4,1.6,1.3,1.8L241.5,231.9z
	 M241.5,231.9C241.5,231.9,241.5,231.9,241.5,231.9l-0.2,2c0.1,0,0.1,0,0.2,0V231.9z M241,232.3c0-0.2,0.2-0.4,0.4-0.4v2
	c0.8,0,1.4-0.6,1.5-1.3L241,232.3z M263,207.8L263,207.8h-2l0,0H263z M274.3,212.7c-3-4.2-7.3-6.2-12.4-5.9l0.1,2
	c4.4-0.3,8.1,1.4,10.7,5L274.3,212.7z M276.3,241.4c1.9-4.8,2.7-10.2,2.4-15.3c-0.3-5.1-1.8-9.9-4.3-13.4l-1.6,1.2
	c2.2,3.1,3.6,7.5,3.9,12.4c0.3,4.8-0.4,9.9-2.2,14.4L276.3,241.4z M264.6,250.2c5.3-0.7,9.8-4.1,11.7-8.8l-1.9-0.8
	c-1.6,4.1-5.5,7-10.1,7.6L264.6,250.2z M258.3,251l6.3-0.8l-0.3-2l-6.3,0.8L258.3,251z M253.1,250.9l5.1,0.1l0.1-2l-5.1-0.1
	L253.1,250.9z M246.2,246c1.1,2.9,3.8,4.8,6.8,4.9l0.1-2c-2.2-0.1-4.2-1.5-5-3.6L246.2,246z M245.9,245.2l0.3,0.8l1.9-0.7l-0.3-0.8
	L245.9,245.2z M248.6,243.9c-0.6,0-1.1,0-1.7-0.1l-0.1,2c0.6,0,1.2,0.1,1.8,0.1L248.6,243.9L248.6,243.9z M260.4,242.4
	c-0.3,0.1-6.3,1.5-11.8,1.5v2c5.6,0,11.9-1.4,12.2-1.5L260.4,242.4z M260,242.9c-0.1-0.2,0.1-0.5,0.3-0.5l0.5,1.9
	c0.8-0.2,1.4-1,1.2-1.9L260,242.9z M260.5,243.3c-0.2,0.1-0.5-0.1-0.5-0.3l2-0.5c-0.2-0.8-1-1.4-1.9-1.2L260.5,243.3z M243.7,244.2
	c3.1,0.8,7.3,0.6,10.7,0.1c3.4-0.4,6.1-1.1,6.2-1.1l-0.5-1.9c0,0-0.2,0-0.5,0.1c-0.3,0.1-0.7,0.2-1.3,0.3c-1.1,0.2-2.6,0.5-4.2,0.7
	c-3.4,0.4-7.3,0.6-9.9-0.1L243.7,244.2z M239.1,241.3c0.4,0.7,1,1.3,1.7,1.8c0.8,0.5,1.7,0.9,2.8,1.1l0.5-1.9
	c-1-0.3-1.8-0.6-2.3-0.9c-0.6-0.3-0.8-0.7-1-0.9L239.1,241.3z M238.9,239.4c-0.1,0.4-0.2,1.1,0.2,1.9l1.8-0.8
	c-0.1-0.3-0.1-0.5-0.1-0.6L238.9,239.4z M245,239.1c-1.7,0-3.3-0.1-5-0.5l-0.4,2c1.8,0.4,3.6,0.5,5.3,0.5L245,239.1L245,239.1z
	 M257.8,237.1c-0.3,0.1-6.3,2-12.8,2v2c6.8,0,13.1-2,13.4-2.1L257.8,237.1z M257.5,237.6c-0.1-0.2,0-0.5,0.3-0.6l0.6,1.9
	c0.8-0.3,1.3-1.1,1-2L257.5,237.6z M258.1,237.9c-0.2,0.1-0.5-0.1-0.6-0.3l1.9-0.6c-0.3-0.8-1.1-1.3-2-1L258.1,237.9z M239.4,239.4
	c4.2,0.9,8.8,0.5,12.4-0.1c3.6-0.6,6.2-1.4,6.3-1.4l-0.6-1.9c0,0-0.2,0.1-0.5,0.1c-0.3,0.1-0.7,0.2-1.2,0.3
	c-1.1,0.3-2.6,0.6-4.3,0.9c-3.5,0.6-7.8,0.9-11.6,0.1L239.4,239.4z M235.7,236.3c0.7,1.6,2.1,2.8,3.8,3.1l0.4-1.9
	c-1-0.2-1.9-0.9-2.4-2.1L235.7,236.3z M239.1,235c-0.8,0-1.6,0-2.4-0.1l-0.2,2c0.9,0.1,1.7,0.1,2.6,0.1L239.1,235L239.1,235z
	 M257.4,229.8c0,0-0.1,0.1-0.4,0.2c-0.3,0.1-0.6,0.4-1.1,0.6c-1,0.5-2.3,1.1-4,1.8c-3.4,1.3-7.9,2.6-12.8,2.6v2
	c10.3,0,19.2-5.4,19.4-5.4L257.4,229.8z M257.2,230.4c-0.1-0.2-0.1-0.5,0.1-0.6l1,1.7c0.7-0.4,1-1.4,0.5-2.1L257.2,230.4z
	 M257.8,230.6c-0.2,0.1-0.5,0.1-0.6-0.1l1.7-1c-0.5-0.7-1.4-1-2.1-0.5L257.8,230.6z M230.1,234.3c6.6,2.6,13.6,1.6,18.8,0.1
	c5.2-1.5,8.9-3.7,9-3.8l-1-1.7c0,0,0,0-0.2,0.1c-0.1,0.1-0.3,0.1-0.5,0.3c-0.4,0.2-1,0.5-1.8,0.9c-1.5,0.7-3.6,1.6-6.1,2.3
	c-5,1.5-11.4,2.3-17.5-0.1L230.1,234.3z M230.1,234.2c-0.1,0-0.2-0.1-0.3-0.1l1.3-1.5c-0.3-0.2-0.6-0.4-1-0.4L230.1,234.2z
	 M227.3,231.3c0.3,1.3,1.2,2.3,2.4,2.8l0.8-1.8c-0.6-0.3-1.1-0.8-1.3-1.5L227.3,231.3z M227.8,228.1c-0.6,1-0.8,2.1-0.5,3.2l1.9-0.5
	c-0.1-0.6-0.1-1.2,0.2-1.7L227.8,228.1z M230.4,226.2c-1.1,0.2-2,0.9-2.6,1.9l1.7,1c0.3-0.5,0.8-0.8,1.4-1L230.4,226.2z M233,225.6
	c-0.9,0.2-1.7,0.4-2.6,0.6l0.4,1.9c0.8-0.2,1.7-0.4,2.6-0.6L233,225.6z M252.2,219.6c-6.4,3.2-13.2,4.7-19.3,6.1l0.4,1.9
	c6.1-1.3,13.1-2.9,19.7-6.2L252.2,219.6z M252,220.2c-0.1-0.2,0-0.5,0.2-0.6l0.9,1.8c0.8-0.4,1.1-1.3,0.7-2.1L252,220.2z
	 M252.6,220.4c-0.2,0.1-0.5,0-0.6-0.2l1.8-0.9c-0.4-0.8-1.3-1.1-2.1-0.7L252.6,220.4z M244.3,223.7c2.8-0.9,5.6-1.9,8.3-3.3
	l-0.9-1.8c-2.6,1.3-5.3,2.3-8,3.2L244.3,223.7z M261.1,207l-17.8,15l1.3,1.5l17.7-15L261.1,207z M261.8,206.8c0.1,0,0.1,0,0.2,0
	s0,0,0,0l-0.5,1.9c0.1,0,0.3,0.1,0.5,0L261.8,206.8z M242,232.5l-0.7,0.7c0.3,0.3,0.7,0.4,1,0.2s0.6-0.4,0.7-0.8L242,232.5z
	 M241.5,228.3l-0.9,0.4l0,0L241.5,228.3z M240.8,228l0.4,0.9l0,0L240.8,228z M240.5,228.7l0.9-0.4l0,0L240.5,228.7z M240.9,232.3
	l1,0.1l0,0L240.9,232.3z M241.4,232.9l-0.1,1c0,0,0,0,0,0L241.4,232.9z M242,232.5l0.7-0.7c-0.3-0.3-0.7-0.4-1-0.2s-0.6,0.4-0.7,0.8
	L242,232.5z M262,207.8h-1c0,0.3,0.1,0.5,0.3,0.7s0.5,0.3,0.8,0.3L262,207.8z M273.5,213.2l-0.8,0.6l0,0L273.5,213.2z M275.3,241
	l-0.9-0.4l0,0L275.3,241z M264.4,249.2l-0.1-1l0,0L264.4,249.2z M258.2,250l0,1c0,0,0.1,0,0.2,0L258.2,250z M253.1,249.9l0-1l0,0
	L253.1,249.9z M247.2,245.6l0.9-0.4l0,0L247.2,245.6z M246.9,244.8l0.1-1c-0.3,0-0.7,0.1-0.9,0.4s-0.2,0.6-0.1,0.9L246.9,244.8z
	 M260.6,243.4l0.2,1l0,0L260.6,243.4z M261,242.7l1-0.2l0,0L261,242.7z M260.3,242.3l-0.2-1c0,0,0,0,0,0L260.3,242.3z M243.9,243.3
	l0.3-1l0,0L243.9,243.3z M240,240.9l-0.9,0.4l0,0L240,240.9z M239.9,239.6l0.2-1c-0.5-0.1-1,0.2-1.2,0.7L239.9,239.6z M258.1,238
	l-0.3-0.9l0,0L258.1,238z M258.5,237.3l-1,0.3l0,0L258.5,237.3z M257.8,237l-0.3-0.9l0,0L257.8,237z M239.6,238.5l-0.2,1l0,0
	L239.6,238.5z M236.6,235.9l0.1-1c-0.4,0-0.7,0.1-0.9,0.4s-0.2,0.7-0.1,1L236.6,235.9z M257.9,230.7l-0.5-0.9l0,0L257.9,230.7z
	 M257.3,229.7l-0.5-0.9l0,0L257.3,229.7z M230.5,233.3l-0.7,0.8c0.1,0.1,0.2,0.1,0.3,0.2L230.5,233.3z M230.1,233.2l-0.4,0.9
	c0.1,0.1,0.2,0.1,0.4,0.1L230.1,233.2z M228.3,231.1l1-0.2l0,0L228.3,231.1z M228.6,228.6l-0.9-0.5l0,0L228.6,228.6z M230.6,227.2
	l-0.2-1l0,0L230.6,227.2z M233.2,226.6l-0.2-1l0,0L233.2,226.6z M252.7,220.5l0.4,0.9l0,0L252.7,220.5z M252.9,219.7l-0.9,0.4v0
	L252.9,219.7z M252.2,219.5l-0.4-0.9l0,0L252.2,219.5z M244,222.7l-0.6-0.8c-0.4,0.3-0.5,0.8-0.2,1.2c0.2,0.4,0.7,0.6,1.2,0.5
	L244,222.7z M261.8,207.8l0.2-1c-0.3-0.1-0.6,0-0.9,0.2L261.8,207.8z M262,207.8h1c0-0.3-0.1-0.6-0.3-0.8c-0.2-0.2-0.5-0.3-0.8-0.2
	L262,207.8z"/>
<path class="st5" d="M242,232.5c0,0.3-0.3,0.5-0.6,0.5c0,0-0.1,0-0.1,0c-0.3-0.1-0.5-0.3-0.5-0.6c0.2-1.2,0-2.5-0.4-3.6
	c-0.1-0.3,0-0.6,0.3-0.7c0.3-0.1,0.6,0,0.7,0.3C242.1,229.6,242.2,231,242,232.5L242,232.5z M262,207.8c-0.1,0-0.1,0-0.2,0l-17.8,15
	c2.7-0.9,5.5-1.9,8.1-3.3c0.3-0.1,0.6,0,0.8,0.2s0,0.6-0.2,0.8c-6.5,3.3-13.4,4.8-19.5,6.2c-0.9,0.2-1.7,0.4-2.6,0.6s-1.5,0.7-2,1.4
	c-0.4,0.7-0.6,1.6-0.4,2.4c0.2,0.9,0.9,1.7,1.9,2.1c0.1,0,0.2,0.1,0.4,0.1c12.7,4.9,26.7-3.5,26.8-3.6c0.3-0.2,0.6-0.1,0.8,0.2
	s0.1,0.6-0.2,0.8c-0.1,0.1-8.8,5.3-18.8,5.3c-0.8,0-1.6,0-2.5-0.1c0.6,1.3,1.8,2.3,3.1,2.6c8,1.8,18-1.4,18.1-1.5
	c0.3-0.1,0.6,0.1,0.7,0.4c0.1,0.3-0.1,0.6-0.4,0.7c-0.3,0.1-6.5,2.1-13.1,2.1c-1.7,0-3.5-0.1-5.1-0.5c-0.1,0.3-0.1,0.7,0.1,1.2
	c0.5,1,1.8,1.8,3.9,2.4c5.7,1.5,16.3-0.9,16.4-1c0.3-0.1,0.6,0.1,0.7,0.4s-0.1,0.6-0.4,0.7c-0.3,0.1-6.4,1.5-12,1.5
	c-0.6,0-1.2,0-1.8-0.1l0.3,0.8c0.9,2.5,3.3,4.1,5.9,4.2l5.1,0.1l6.3-0.8c4.9-0.6,9.1-3.8,10.9-8.2c3.7-9.2,3-21.1-1.8-27.7
	C270.7,209.4,266.7,207.5,262,207.8L262,207.8z"/>
<path class="st1" d="M237.9,235.7c2.5-0.1,6.6-0.5,10.6-1.4c4-0.9,8-2.4,10.2-4.7l-0.7-0.7c-2.1,2.1-5.8,3.5-9.8,4.4
	c-3.9,0.9-7.9,1.3-10.4,1.4L237.9,235.7z M258.7,229.6c0.2-0.2,0.2-0.5,0-0.7c-0.2-0.2-0.5-0.2-0.7,0L258.7,229.6z M237.9,234.7
	c-0.3,0-0.5,0.2-0.5,0.5s0.2,0.5,0.5,0.5L237.9,234.7z"/>
<path class="st1" d="M241,239.8c2.6,0.8,9.3,1.7,14.9-0.9l-0.4-0.9c-5.3,2.5-11.7,1.6-14.2,0.9L241,239.8z M255.9,238.8
	c0.2-0.1,0.4-0.4,0.2-0.7s-0.4-0.4-0.7-0.2L255.9,238.8z M241.2,238.8c-0.3-0.1-0.5,0.1-0.6,0.3c-0.1,0.3,0.1,0.5,0.3,0.6
	L241.2,238.8z"/>
<path class="st1" d="M247.3,244.7c1,0.4,2.6,0.9,4.6,1c1.9,0.1,4.2-0.1,6.3-1l-0.4-0.9c-1.9,0.9-4,1.1-5.8,0.9s-3.4-0.6-4.3-0.9
	L247.3,244.7z M258.1,244.7c0.2-0.1,0.4-0.4,0.2-0.7s-0.4-0.4-0.7-0.2L258.1,244.7z M247.7,243.8c-0.2-0.1-0.6,0-0.6,0.3
	c-0.1,0.2,0,0.6,0.3,0.6L247.7,243.8z"/>
<path class="st8" d="M267.5,202c1.7-1.4,2.1-4,1-5.9c-0.6-0.9-1.4-1.5-2.4-1.7c-1-0.2-2,0.1-2.8,0.7l-6.1,4.8l4.3,6.8L267.5,202
	L267.5,202z"/>
<circle class="st7" cx="276" cy="187.9" r="6.7"/>
</svg>
