<svg width="700" height="400" viewBox="0 0 700 400" fill="none" xmlns="http://www.w3.org/2000/svg">
<mask id="mask0_574_8208" style="mask-type:alpha" maskUnits="userSpaceOnUse" x="0" y="0" width="700" height="400">
<rect width="700" height="400" transform="matrix(-1 0 0 1 700 0)" fill="white"/>
</mask>
<g mask="url(#mask0_574_8208)">
<path d="M49.534 193.215C50.5054 193.861 51.7423 193.79 52.6279 193.131L94.2563 239.537C94.1593 239.641 94.0681 239.754 93.986 239.875C93.1641 241.115 93.5016 242.785 94.7397 243.608C95.9778 244.431 97.6493 244.093 98.4727 242.854C98.604 242.656 98.7034 242.447 98.777 242.232L132.455 250.305C132.313 251.302 132.734 252.337 133.629 252.93C134.867 253.754 136.539 253.415 137.362 252.177C137.725 251.628 137.861 250.996 137.795 250.389L175.053 242.716C175.23 243.293 175.598 243.815 176.14 244.176C176.728 244.566 177.411 244.691 178.055 244.589L200.445 331.654C199.917 331.841 199.443 332.195 199.108 332.696C198.285 333.934 198.623 335.606 199.862 336.429C201.1 337.253 202.771 336.914 203.595 335.676C203.833 335.314 203.971 334.917 204.02 334.516L312.652 337.79C312.021 338.996 312.392 340.509 313.55 341.279C314.788 342.102 316.46 341.764 317.283 340.525C317.358 340.412 317.42 340.296 317.475 340.176L355.082 353.682C354.804 354.763 355.217 355.946 356.198 356.597C356.692 356.925 357.254 357.065 357.805 357.041L364.641 407.119L363.996 406.9L364.709 407.602L364.75 407.904L364.911 407.8L425.943 467.926C425.888 467.995 425.834 468.066 425.783 468.141C424.96 469.379 425.299 471.051 426.537 471.874C427.775 472.697 429.447 472.359 430.27 471.12C431.093 469.882 430.754 468.211 429.516 467.387C429.056 467.081 428.534 466.937 428.019 466.94L424.355 428.607C424.4 428.551 424.444 428.493 424.486 428.43C424.692 428.122 424.823 427.785 424.889 427.441L489.94 433.63C489.939 434.505 490.36 435.36 491.143 435.88C492.381 436.704 494.052 436.365 494.876 435.127C495.699 433.889 495.36 432.217 494.122 431.394C493.633 431.068 493.073 430.927 492.528 430.95L486.585 386.028C487.234 385.88 487.833 385.495 488.231 384.894C488.766 384.089 488.807 383.103 488.436 382.286L516.421 366.22C516.608 366.487 516.845 366.725 517.132 366.915C518.371 367.738 520.042 367.399 520.865 366.161C521.689 364.923 521.35 363.252 520.112 362.428C519.359 361.93 518.449 361.86 517.664 362.157L501.905 330.038C502.231 329.841 502.52 329.572 502.746 329.232C503.484 328.12 503.286 326.662 502.342 325.778L526.031 297.854C527.268 298.654 528.92 298.313 529.737 297.083C530.56 295.845 530.221 294.173 528.983 293.35C528.767 293.207 528.538 293.1 528.301 293.026L533.35 266.042C534.304 266.13 535.275 265.705 535.841 264.85C535.989 264.628 536.097 264.391 536.17 264.149L577.03 272.65C576.922 273.621 577.344 274.618 578.215 275.195C579.453 276.018 581.124 275.679 581.948 274.441C582.771 273.203 582.432 271.532 581.194 270.708C581.103 270.648 581.01 270.597 580.915 270.548L603.413 213.251C604.513 213.57 605.739 213.157 606.405 212.154C607.228 210.916 606.889 209.244 605.651 208.421C604.413 207.598 602.742 207.936 601.918 209.175C601.683 209.528 601.546 209.918 601.495 210.312L511.468 206.789C511.384 206.023 510.974 205.299 510.282 204.84C509.044 204.016 507.373 204.355 506.549 205.593C505.726 206.832 506.065 208.503 507.303 209.326C507.426 209.407 507.555 209.474 507.686 209.535L499.03 240.019C497.983 239.799 496.858 240.216 496.231 241.162C496.027 241.469 495.895 241.804 495.829 242.145L421.061 237.203C421.038 236.357 420.618 235.535 419.861 235.03C418.622 234.207 416.951 234.546 416.127 235.784C415.304 237.022 415.643 238.693 416.881 239.517C417.165 239.706 417.474 239.83 417.786 239.9L413.433 274.284C412.532 274.253 411.635 274.675 411.1 275.484L411.222 275.268L334.465 231.976C334.995 230.795 334.612 229.373 333.5 228.634C332.926 228.253 332.26 228.125 331.628 228.215L323.059 192.379C323.604 192.194 324.095 191.838 324.437 191.32C325.259 190.08 324.921 188.411 323.683 187.587C322.445 186.764 320.773 187.103 319.95 188.341C319.629 188.823 319.486 189.373 319.505 189.912L264.273 196.715C264.129 196.054 263.742 195.449 263.134 195.045C261.896 194.222 260.225 194.561 259.401 195.799C259.059 196.315 258.919 196.905 258.963 197.478L225.339 203.005C225.178 202.386 224.799 201.823 224.226 201.441C222.988 200.618 221.316 200.957 220.493 202.195C220.405 202.326 220.335 202.463 220.273 202.601L160.643 183.976C160.842 182.941 160.419 181.844 159.488 181.225C158.786 180.76 157.946 180.666 157.199 180.898L140.036 141.608C140.421 141.405 140.763 141.104 141.023 140.716C141.846 139.478 141.507 137.807 140.269 136.983C139.029 136.161 137.36 136.499 136.536 137.737C136.531 137.747 136.526 137.757 136.519 137.764L105.967 125.354L89.8174 118.793C90.03 117.749 89.6128 116.633 88.6702 116.007C87.4321 115.183 85.7606 115.522 84.9372 116.76C84.2979 117.724 84.361 118.945 85.0012 119.829L59.1356 148.207C59.1055 148.185 59.0759 148.161 59.0423 148.138C57.8042 147.315 56.1327 147.654 55.3093 148.892C54.4859 150.13 54.8248 151.802 56.0629 152.625C56.357 152.82 56.6752 152.949 57.0008 153.015L51.2116 188.287C50.2771 188.222 49.3351 188.645 48.7804 189.482C47.957 190.721 48.296 192.392 49.534 193.215ZM87.1735 120.942C88.048 120.943 88.9038 120.523 89.4238 119.74C89.5238 119.588 89.605 119.431 89.6724 119.271L107.984 126.709L136.288 138.205C136.188 138.448 136.127 138.7 136.102 138.955L86.0544 145.924L87.1749 120.944L87.1735 120.942ZM262.825 199.708L276.037 221.456L246.474 241.905C246.312 241.712 246.121 241.535 245.901 241.389C245.797 241.319 245.688 241.263 245.577 241.209L260.945 199.889C261.577 200.06 262.246 199.992 262.825 199.708ZM320.134 191.559C320.296 191.752 320.486 191.929 320.707 192.075C320.837 192.16 320.967 192.229 321.103 192.289L299.565 256.058C298.957 255.914 298.319 255.987 297.765 256.257L276.705 221.595L320.132 191.557L320.134 191.559ZM481.401 386.238L473.911 355.337L484.722 381.03C484.341 381.233 484.005 381.532 483.746 381.916C483.17 382.784 483.166 383.861 483.637 384.712L481.401 386.238ZM490.39 432.149C490.186 432.46 490.053 432.795 489.987 433.139L424.937 426.946C424.937 426.488 424.821 426.035 424.597 425.633L481.085 387.057L491.759 431.097C491.218 431.282 490.73 431.638 490.388 432.151L490.39 432.149ZM203.579 332.667C203.406 332.415 203.188 332.191 202.929 332.003L225.488 293.677C226.676 294.238 228.128 293.859 228.877 292.73L252.59 305.472L203.579 332.667ZM59.0572 152.619C59.104 152.587 59.1529 152.552 59.1969 152.516L82.2316 183.649C82.0641 183.799 81.9128 183.969 81.7821 184.164C81.44 184.676 81.3024 185.264 81.341 185.835L73.5994 187.083L59.0572 152.619ZM126.704 227.784L135.038 235.942C134.983 236.007 134.932 236.077 134.883 236.15C134.579 236.609 134.435 237.126 134.434 237.636L125.801 238.422L86.5805 188.503L126.704 227.784ZM135.384 235.587L106.243 207.058L86.1142 187.352C86.1685 187.286 86.2201 187.217 86.2687 187.143C86.5407 186.734 86.6834 186.279 86.7108 185.82L137.655 184.283L136.917 234.954C136.359 234.999 135.821 235.214 135.385 235.584L135.384 235.587ZM81.4205 186.326C81.5802 186.948 81.9587 187.515 82.5357 187.897C83.0931 188.268 83.7389 188.402 84.3558 188.325L95.4121 238.782L73.7984 187.554L81.4225 186.324L81.4205 186.326ZM97.7205 239.123C97.163 238.752 96.5173 238.619 95.9004 238.695L84.8403 188.219C85.0655 188.147 85.2832 188.046 85.4843 187.917L125.208 238.476L98.875 240.876C98.7454 240.184 98.3515 239.543 97.7185 239.125L97.7205 239.123ZM98.9236 241.37L125.576 238.941L133.27 248.733C133.126 248.87 132.992 249.025 132.877 249.196C132.746 249.394 132.647 249.603 132.573 249.819L98.8949 241.745C98.9134 241.62 98.925 241.494 98.9242 241.367L98.9236 241.37ZM135.282 248.001C134.713 247.968 134.143 248.112 133.661 248.425L126.167 238.888L134.479 238.13C134.608 238.822 135.002 239.463 135.635 239.881C135.897 240.056 136.181 240.176 136.472 240.248L135.282 248.001ZM139.708 236.878L171.44 224.233L176.544 239.471C176.09 239.671 175.684 239.998 175.386 240.443C175.187 240.744 175.057 241.071 174.99 241.403L139.817 237.675C139.82 237.406 139.784 237.137 139.708 236.878ZM220.739 205.485C220.887 205.648 221.057 205.8 221.25 205.928C221.629 206.179 222.044 206.322 222.465 206.364L224.152 242.868L180.317 241.752C180.284 241.262 180.119 240.789 179.834 240.382L220.741 205.484L220.739 205.485ZM414.379 279.461L426.647 305.359C426.285 305.561 425.961 305.849 425.717 306.22C425.598 306.401 425.506 306.59 425.434 306.786L415.175 305.262L413.91 279.606C414.072 279.572 414.228 279.523 414.382 279.461L414.379 279.461ZM531.172 262.208C530.801 262.986 530.835 263.879 531.219 264.615L516.212 274.382L500.07 244.816C500.317 244.635 500.538 244.41 500.718 244.142L531.17 262.209L531.172 262.208ZM499.647 245.074L515.796 274.655L469.105 305.042C468.932 304.826 468.726 304.631 468.483 304.47C468.456 304.453 468.426 304.437 468.399 304.42L497.557 245.18C498.249 245.43 499.001 245.383 499.645 245.075L499.647 245.074ZM228.127 288.998C228.023 288.928 227.917 288.872 227.807 288.818L243.709 246.229C244.448 246.431 245.239 246.304 245.878 245.89L266.698 272.305L228.961 289.886C228.759 289.541 228.481 289.235 228.127 288.998ZM246.268 245.581C246.412 245.444 246.542 245.292 246.659 245.12C246.777 244.942 246.867 244.755 246.939 244.562L296.401 257.816C296.323 258.05 296.277 258.288 296.265 258.527L267.164 272.085L246.27 245.579L246.268 245.581ZM296.288 259.066C296.34 259.409 296.454 259.742 296.632 260.043L283.263 285.126L281.969 287.556C281.155 287.212 280.237 287.297 279.504 287.749L267.474 272.49L296.284 259.069L296.288 259.066ZM282.414 287.793C282.414 287.793 282.413 287.791 282.411 287.789L283.7 285.369L296.962 260.485C297.107 260.644 297.274 260.791 297.463 260.917C297.774 261.124 298.113 261.257 298.457 261.323L303.257 284.154L283.453 289.108C283.263 288.589 282.913 288.12 282.416 287.792L282.414 287.793ZM229.17 290.337L267.015 272.705L279.11 288.049C278.95 288.194 278.805 288.36 278.681 288.547C278.423 288.937 278.279 289.368 278.242 289.804L229.311 290.933C229.288 290.731 229.24 290.531 229.17 290.337ZM313.722 336.692L282.697 292.059C282.872 291.906 283.032 291.727 283.168 291.526C283.562 290.932 283.687 290.24 283.577 289.589L303.357 284.643L314.253 336.462C314.068 336.519 313.892 336.597 313.723 336.694L313.722 336.692ZM303.839 284.521L326.853 278.763C327.05 279.241 327.386 279.664 327.85 279.971C328.031 280.09 328.221 280.185 328.416 280.255L320.518 314.326L315.409 336.366C315.184 336.336 314.96 336.332 314.739 336.359L303.839 284.521ZM421.388 424.388L411.612 401.681L405.571 387.645C405.945 387.441 406.275 387.149 406.527 386.769C407.023 386.025 407.094 385.125 406.806 384.346L418.825 378.589L421.781 424.285C421.646 424.31 421.515 424.344 421.386 424.385L421.388 424.388ZM393.512 304.563L415.256 341.619C415 341.804 414.767 342.034 414.584 342.314C414.265 342.795 414.122 343.341 414.138 343.88L398.999 346.62L393 304.742C393.177 304.7 393.35 304.639 393.515 304.563L393.512 304.563ZM414.196 344.373C414.34 345.034 414.727 345.643 415.337 346.047C415.491 346.149 415.649 346.233 415.814 346.299L404.824 382.642C404.602 382.597 404.376 382.582 404.153 382.593L399.07 347.111L414.198 344.372L414.196 344.373ZM406.593 383.898C406.393 383.565 406.12 383.267 405.774 383.036C405.622 382.936 405.462 382.851 405.3 382.785L409.231 369.806L416.306 346.446C416.454 346.476 416.603 346.49 416.752 346.495L418.793 378.056L406.592 383.901L406.593 383.898ZM417.247 346.461C417.965 346.346 418.636 345.947 419.07 345.294C419.246 345.028 419.365 344.744 419.438 344.454L470.258 352.226C470.237 352.599 470.293 352.969 470.422 353.318L419.277 377.82L417.249 346.459L417.247 346.461ZM470.699 350.897C470.524 351.162 470.404 351.447 470.331 351.737L419.512 343.965C419.545 343.423 419.41 342.88 419.128 342.412L444.021 324.008L470.865 350.675C470.806 350.746 470.752 350.821 470.7 350.899L470.699 350.897ZM418.833 342.012C418.682 341.845 418.511 341.691 418.317 341.561C418.258 341.52 418.196 341.488 418.136 341.454L427.293 310.312C428.128 310.525 429.023 310.326 429.689 309.772L443.664 323.655L418.833 342.012ZM426.473 309.951C426.586 310.027 426.706 310.089 426.824 310.146L417.676 341.253C417.435 341.173 417.19 341.13 416.942 341.118L415.198 305.768L425.304 307.268C425.136 308.281 425.558 309.348 426.469 309.951L426.473 309.951ZM416.446 341.143C416.231 341.173 416.017 341.228 415.814 341.31L393.948 304.306C394.202 304.122 394.43 303.893 394.614 303.615C394.792 303.348 394.912 303.06 394.984 302.764L414.698 305.691L416.445 341.141L416.446 341.143ZM331.581 279.219C331.603 279.185 331.621 279.151 331.642 279.115L366.053 292.305L389.775 301.398C389.621 301.949 389.651 302.529 389.844 303.055L346.546 323.722L330.337 280.229C330.828 280.034 331.267 279.693 331.581 279.219ZM391.094 304.499C391.539 304.739 392.024 304.839 392.502 304.815L398.505 346.711L360.287 353.631C360.141 353.105 359.835 352.621 359.385 352.256L391.094 304.499ZM360.378 354.12L398.577 347.204L403.658 382.666C403.093 382.801 402.572 383.114 402.188 383.592L360.067 355.627C360.324 355.153 360.424 354.628 360.378 354.12ZM402.794 387.526C403.506 387.998 404.36 388.086 405.115 387.843L409.519 398.075L420.931 424.589C420.836 424.644 420.741 424.704 420.651 424.77L390.836 391.244L401.801 384.24C401.309 385.41 401.698 386.797 402.794 387.526ZM423.5 424.553C423.112 424.349 422.694 424.25 422.277 424.244L419.309 378.356L470.634 353.768C470.788 354.027 470.986 354.262 471.227 354.463L423.5 424.553ZM471.214 350.324L444.422 323.71L464.987 308.505C465.138 308.673 465.309 308.826 465.504 308.957C465.992 309.282 466.549 309.423 467.092 309.401L472.348 349.763C471.937 349.857 471.547 350.045 471.214 350.324ZM464.692 308.105L444.066 323.354L430.04 309.42C430.099 309.349 430.153 309.274 430.204 309.196C430.474 308.792 430.616 308.34 430.646 307.885L464.322 307.026C464.365 307.405 464.492 307.772 464.692 308.102L464.692 308.105ZM413.413 279.663L414.672 305.186L395.056 302.274C395.096 301.529 394.829 300.788 394.29 300.239L411.997 279.301C412.441 279.558 412.931 279.676 413.411 279.665L413.413 279.663ZM411.591 279.012L393.909 299.921C393.892 299.909 393.876 299.895 393.859 299.883C392.621 299.06 390.949 299.399 390.126 300.637C390.062 300.733 390.005 300.833 389.955 300.935L336.893 280.594L331.859 278.666C331.923 278.494 331.968 278.316 331.996 278.139L410.686 277.376C410.781 277.998 411.088 278.584 411.591 279.015L411.591 279.012ZM326.705 278.288L303.736 284.031L298.969 261.365C299.791 261.357 300.593 260.971 301.113 260.267L326.849 276.699C326.637 277.212 326.595 277.763 326.705 278.284L326.705 278.288ZM242.922 245.873C243.026 245.943 243.132 245.999 243.242 246.052L227.34 288.642C227.149 288.59 226.954 288.559 226.761 288.552L224.674 243.376L241.729 243.809C241.785 244.617 242.199 245.39 242.926 245.873L242.922 245.873ZM179.875 243.418C180.118 243.054 180.255 242.651 180.303 242.244L224.174 243.359L226.263 288.573C225.776 288.641 225.309 288.84 224.921 289.161L179.698 243.654C179.761 243.58 179.821 243.501 179.875 243.418ZM229.113 292.288C229.231 292.009 229.3 291.718 229.319 291.425L278.24 290.297C278.268 290.578 278.342 290.854 278.456 291.117L253.106 305.183L229.111 292.29L229.113 292.288ZM278.699 291.55C278.889 291.83 279.135 292.077 279.433 292.278C280.323 292.868 281.433 292.859 282.294 292.35L313.313 336.975C313.183 337.084 313.062 337.206 312.952 337.343L253.629 305.466L278.7 291.556L278.699 291.55ZM316.536 336.788C316.331 336.652 316.115 336.552 315.894 336.479L328.897 280.382C329.219 280.435 329.547 280.431 329.861 280.368L346.098 323.936L317.358 337.654C317.158 337.317 316.884 337.021 316.536 336.788ZM346.721 324.189L390.057 303.504C390.217 303.771 390.422 304.016 390.679 304.222L358.97 351.979C358.346 351.643 357.64 351.579 356.991 351.754L346.719 324.19L346.721 324.189ZM359.791 356.039L401.583 383.786L390.5 390.863L359.66 356.185C359.706 356.138 359.748 356.09 359.791 356.039ZM420.281 425.099C420.18 425.206 420.086 425.32 420.002 425.446C419.917 425.572 419.849 425.705 419.788 425.839L365.519 407.411L390.411 391.511L420.279 425.097L420.281 425.099ZM424.32 425.217C424.226 425.104 424.12 424.996 424.006 424.897L423.989 424.718L471.639 354.74C472.17 355.035 472.764 355.129 473.332 355.047L480.965 386.534L424.324 425.218L424.32 425.217ZM516.178 365.786L488.193 381.853C488.006 381.586 487.769 381.348 487.482 381.158C487.298 381.035 487.104 380.943 486.904 380.87L492.834 357.991L515.971 364.211C515.878 364.746 515.953 365.295 516.177 365.784L516.178 365.786ZM486.423 380.746C486.005 380.678 485.578 380.71 485.181 380.836L474.21 354.763C474.59 354.56 474.927 354.261 475.186 353.876C475.304 353.699 475.395 353.512 475.465 353.322L492.355 357.862L486.423 380.746ZM475.594 352.844C475.719 352.119 475.542 351.372 475.1 350.781L498.592 329.636C498.718 329.764 498.861 329.882 499.016 329.986C499.176 330.093 499.345 330.178 499.516 330.245L492.482 357.385L475.596 352.846L475.594 352.844ZM498.276 329.25L477.951 347.546L498.02 326.705C497.668 327.549 497.775 328.509 498.276 329.25ZM474.623 350.286C474.562 350.238 474.499 350.191 474.434 350.145C473.945 349.82 473.388 349.679 472.845 349.701L467.589 309.339C468.241 309.192 468.841 308.805 469.24 308.204C469.592 307.675 469.73 307.066 469.676 306.478L524.932 296.411C525.051 296.783 525.253 297.133 525.527 297.429L474.622 350.289L474.623 350.286ZM469.586 305.989C469.534 305.807 469.467 305.629 469.378 305.458L516.035 275.092L526.005 293.353C525.716 293.547 525.459 293.796 525.255 294.106C524.883 294.664 524.752 295.308 524.827 295.923L469.588 305.988L469.586 305.989ZM526.443 293.12L516.453 274.823L531.495 265.035C531.667 265.251 531.874 265.446 532.117 265.607C532.355 265.765 532.608 265.879 532.87 265.953L527.821 292.925C527.351 292.869 526.876 292.937 526.444 293.122L526.443 293.12ZM535.095 261.118C533.887 260.316 532.272 260.618 531.429 261.782L501.101 243.788L576.592 272.049L536.283 263.664C536.391 262.692 535.969 261.695 535.098 261.118L535.095 261.118ZM577.47 271.465C577.402 271.567 577.343 271.675 577.292 271.784L501.102 243.26C501.193 242.865 501.193 242.458 501.106 242.07L535.08 231.804L577.583 271.316C577.546 271.366 577.507 271.415 577.471 271.467L577.47 271.465ZM496.988 244.896C497.028 244.923 497.071 244.944 497.111 244.968L467.956 304.199C467.196 303.906 466.352 303.984 465.662 304.376L452.428 285.477L496.679 244.654C496.776 244.741 496.876 244.823 496.988 244.896ZM465.254 304.661C465.066 304.821 464.895 305.007 464.751 305.226C464.482 305.63 464.34 306.082 464.31 306.537L430.634 307.396C430.579 306.922 430.395 306.465 430.101 306.079L452.059 285.821L465.254 304.665L465.254 304.661ZM429.761 305.71C429.663 305.623 429.562 305.54 429.45 305.466C428.957 305.138 428.394 304.998 427.846 305.021L418.979 239.896C419.233 239.837 419.476 239.742 419.706 239.612L451.77 285.404L429.759 305.708L429.761 305.71ZM418.487 239.964L427.352 305.087C427.268 305.107 427.184 305.129 427.102 305.159L414.818 279.229C415.116 279.035 415.379 278.778 415.588 278.465C416.41 277.225 416.072 275.556 414.834 274.732C414.55 274.543 414.241 274.419 413.929 274.35L418.283 239.967C418.352 239.971 418.42 239.969 418.489 239.966L418.487 239.964ZM410.657 276.88L332.026 277.644C331.999 276.804 331.579 275.988 330.825 275.487C330.486 275.263 330.114 275.126 329.735 275.07L332.105 233.568C332.926 233.54 333.72 233.135 334.221 232.411L410.972 275.701C410.77 276.076 410.667 276.479 410.655 276.882L410.657 276.88ZM330.524 233.121C330.863 233.345 331.235 233.482 331.612 233.54L329.294 274.128L326.204 236.088L330.121 232.797C330.241 232.916 330.376 233.028 330.523 233.125L330.524 233.121ZM328.871 275.08C328.169 275.204 327.518 275.6 327.092 276.241C327.088 276.247 327.084 276.255 327.078 276.263L301.368 259.846C301.797 258.96 301.699 257.927 301.155 257.142L325.736 236.477L328.87 275.078L328.871 275.08ZM300.837 256.761C300.717 256.642 300.581 256.53 300.434 256.433C300.306 256.35 300.174 256.278 300.039 256.219L321.576 192.449C321.772 192.494 321.969 192.52 322.168 192.523L325.688 235.871L300.837 256.761ZM297.343 256.516C297.098 256.696 296.881 256.918 296.701 257.187C296.665 257.243 296.633 257.301 296.6 257.358L247.064 244.086C247.168 243.476 247.057 242.85 246.757 242.313L276.298 221.88L297.343 256.516ZM242.91 241.396C242.625 241.586 242.37 241.838 242.168 242.143C241.925 242.507 241.788 242.91 241.74 243.317L224.651 242.883L222.963 206.368C223.224 206.346 223.479 206.286 223.722 206.191L242.909 241.399L242.91 241.396ZM220.44 205.084L179.508 240.003C179.391 239.888 179.262 239.781 179.121 239.688C178.475 239.26 177.715 239.149 177.017 239.314L171.903 224.049L220.276 204.771C220.325 204.88 220.379 204.984 220.442 205.086L220.44 205.084ZM171.281 223.759L139.524 236.415C139.319 236.015 139.016 235.66 138.615 235.395C138.519 235.331 138.421 235.278 138.321 235.227L153.464 195.952L157.277 186.059C157.733 186.186 158.21 186.186 158.656 186.074L171.28 223.757L171.281 223.759ZM156.509 185.712C156.606 185.777 156.709 185.832 156.814 185.883L137.859 235.047C137.711 235.005 137.564 234.977 137.413 234.961L138.152 184.269L155.321 183.751C155.403 184.522 155.813 185.252 156.509 185.712ZM137.662 183.786L86.6947 185.325C86.6398 184.887 86.4785 184.465 86.2184 184.098L136.632 140.847C136.81 141.084 137.028 141.295 137.288 141.468C137.595 141.672 137.931 141.804 138.271 141.87L137.659 183.785L137.662 183.786ZM136.099 139.457C136.129 139.791 136.22 140.119 136.37 140.421L85.8974 183.722C85.7817 183.609 85.6538 183.504 85.5145 183.414C85.1644 183.182 84.7833 183.046 84.3931 182.991L86.0329 146.431L136.1 139.459L136.099 139.457ZM83.896 182.966C83.4496 182.987 83.016 183.118 82.6304 183.351L59.5622 152.175C59.6469 152.079 59.7267 151.981 59.7994 151.872C60.1761 151.305 60.308 150.648 60.2219 150.023L85.5303 146.498L83.896 182.966ZM58.6157 152.856L73.0909 187.163L53.6286 190.3C53.4689 189.677 53.0904 189.111 52.5134 188.729C52.2578 188.559 51.9841 188.441 51.7024 188.368L57.4959 153.072C57.8802 153.079 58.2606 153.007 58.6157 152.856ZM52.9969 192.8C53.0938 192.695 53.185 192.583 53.267 192.462C53.6091 191.949 53.7467 191.361 53.7081 190.79L73.2899 187.634L94.9575 238.991C94.8431 239.053 94.7303 239.126 94.6252 239.206L52.9969 192.8ZM137.696 249.901C137.519 249.323 137.15 248.802 136.609 248.44C136.347 248.265 136.063 248.146 135.772 248.073L136.963 240.321C137.888 240.377 138.818 239.953 139.367 239.126C139.566 238.825 139.695 238.498 139.763 238.165L174.936 241.894C174.934 242.004 174.939 242.115 174.95 242.226L137.692 249.9L137.696 249.901ZM178.536 244.461C178.826 244.359 179.099 244.207 179.343 244.006L224.566 289.513C224.503 289.587 224.443 289.666 224.389 289.749C223.585 290.958 223.891 292.58 225.06 293.421L202.501 331.747C201.998 331.51 201.452 331.441 200.928 331.525L178.538 244.46L178.536 244.461ZM204.039 334.014C204.02 333.7 203.944 333.388 203.817 333.098L253.108 305.749L311.751 337.262L204.037 334.015L204.039 334.014ZM317.648 339.703C317.787 339.168 317.753 338.609 317.568 338.102L346.268 324.403L356.524 351.926C356.102 352.131 355.726 352.443 355.448 352.861C355.373 352.975 355.312 353.091 355.256 353.211L317.649 339.705L317.648 339.703ZM358.301 356.97C358.653 356.887 358.989 356.734 359.286 356.517L390.072 391.136L365.138 407.062L358.299 356.971L358.301 356.97ZM427.524 466.983C427.077 467.068 426.65 467.267 426.293 467.569L365.895 408.065L419.628 426.308C419.374 427.376 419.789 428.536 420.755 429.179C421.748 429.838 423.012 429.75 423.902 429.057L427.528 466.983L427.524 466.983ZM491.773 429.036L481.524 386.753L483.914 385.122C484.078 385.32 484.273 385.499 484.498 385.647C484.987 385.973 485.547 386.114 486.094 386.093L491.774 429.038L491.773 429.036ZM517.218 362.373C516.892 362.571 516.601 362.841 516.377 363.18C516.259 363.357 516.171 363.543 516.098 363.734L492.956 357.511L499.988 330.382C500.484 330.479 500.992 330.429 501.459 330.254L517.218 362.373ZM501.949 325.471C501.148 324.961 500.176 324.925 499.369 325.299L522.261 301.528L501.951 325.47L501.949 325.471ZM580.455 270.364C579.569 270.108 578.606 270.327 577.913 270.945L535.623 231.633L601.664 211.677C601.861 212.161 602.201 212.594 602.668 212.907C602.759 212.968 602.854 213.02 602.947 213.067L580.453 270.365L580.455 270.364ZM601.475 210.808C601.482 210.94 601.496 211.072 601.523 211.202L535.205 231.24L510.948 208.689C510.978 208.65 511.008 208.611 511.036 208.569C511.301 208.172 511.443 207.729 511.477 207.283L601.475 210.808ZM508.153 209.696C509.021 209.908 509.947 209.675 510.613 209.06L534.651 231.407L500.946 241.59C500.747 241.123 500.415 240.706 499.961 240.405C499.814 240.307 499.661 240.227 499.503 240.161L508.153 209.696ZM495.78 242.637C495.778 243.228 495.97 243.81 496.336 244.285L452.134 285.061L420.108 239.324C420.297 239.164 420.467 238.978 420.611 238.759C420.831 238.427 420.966 238.065 421.026 237.695L495.779 242.635L495.78 242.637ZM329.766 229.386C329.138 230.332 329.188 231.529 329.798 232.41L326.152 235.476L322.705 193.03L331.144 228.329C330.599 228.514 330.108 228.87 329.765 229.389L329.766 229.386ZM319.567 190.403C319.624 190.663 319.719 190.915 319.851 191.147L276.447 221.169L263.249 199.448C263.493 199.267 263.713 199.044 263.89 198.777C264.211 198.295 264.354 197.745 264.335 197.206L319.567 190.403ZM259.042 197.969C259.202 198.588 259.582 199.151 260.155 199.532C260.259 199.602 260.368 199.659 260.478 199.712L245.111 241.032C244.519 240.873 243.898 240.922 243.345 241.158L224.164 205.964C224.479 205.768 224.761 205.503 224.978 205.172C225.321 204.656 225.46 204.067 225.417 203.493L259.041 197.967L259.042 197.969ZM220.115 203.072C220.02 203.479 220.023 203.899 220.117 204.297L171.744 223.575L159.128 185.911C159.566 185.71 159.958 185.39 160.244 184.956C160.351 184.793 160.437 184.627 160.506 184.451L220.119 203.07L220.115 203.072ZM156.739 181.086C156.353 181.29 156.011 181.59 155.752 181.978C155.489 182.374 155.346 182.811 155.312 183.253L138.158 183.77L138.77 141.915C139.043 141.915 139.316 141.875 139.574 141.794L156.739 181.086ZM85.3311 120.205C85.4411 120.31 85.5599 120.406 85.6908 120.493C85.999 120.699 86.3344 120.832 86.678 120.898L85.5532 145.993L60.1094 149.537C59.9886 149.169 59.787 148.825 59.5114 148.535L85.3326 120.207L85.3311 120.205Z" fill="#BF8888"/>
<path d="M604.602 393.752H95.3975C90.0657 393.752 90 395.114 90 396.795C90 398.475 90.0657 399.837 95.3975 399.837H604.602C609.934 399.837 610 398.475 610 396.795C610 395.114 609.934 393.752 604.602 393.752Z" fill="#307286"/>
<path fill-rule="evenodd" clip-rule="evenodd" d="M337.661 55C330.669 55 325 60.6686 325 67.6612V206.776C325 213.769 330.669 219.437 337.661 219.437H374.058L358.541 256.327L427.159 219.437H597.807C604.8 219.437 610.468 213.769 610.468 206.776V67.6612C610.468 60.6686 604.8 55 597.807 55H337.661Z" fill="#FBE4C6"/>
<mask id="mask1_574_8208" style="mask-type:alpha" maskUnits="userSpaceOnUse" x="325" y="55" width="286" height="165">
<rect x="325" y="55" width="285.468" height="164.437" rx="12.6612" fill="#D9D9D9"/>
</mask>
<g mask="url(#mask1_574_8208)">
<path d="M512.661 111.724H511.388C507.811 111.724 504.907 108.649 504.907 104.859C504.907 101.07 507.811 97.9941 511.388 97.9941H512.661V111.724Z" fill="#FFBE97"/>
<path d="M547.275 111.724H548.548C552.125 111.724 555.029 108.649 555.029 104.859C555.029 101.07 552.125 97.9941 548.548 97.9941H547.275V111.724Z" fill="#FFBE97"/>
<path d="M540.144 123.527H519.792V140.814H540.144V123.527Z" fill="#FFBE97"/>
<path d="M540.405 132.374V123.295L521.771 126.058C527.138 133.953 536.43 133.559 540.405 132.374Z" fill="#4F2B2B"/>
<path d="M568.364 218.639H491.571L498.516 139.688C504.122 137.879 509.828 136.551 515.63 135.736C520.418 135.062 525.105 136.688 530.032 136.724C534.404 136.754 539 135.118 543.487 135.731C549.36 136.531 555.335 137.843 561.419 139.682L568.364 218.634V218.639Z" fill="#EF2942"/>
<path d="M529.667 136.718L529.249 218.633L529.837 218.636L530.256 136.722L529.667 136.718Z" fill="#FFC017"/>
<path d="M529.659 145.94C528.592 146.893 527.296 147.161 525.808 146.862C524.904 145.829 525.1 144.638 525.804 143.371C527.105 143.24 528.386 143.549 529.659 144.273V145.94Z" fill="#FFC017"/>
<path d="M530.515 145.935C531.581 146.882 532.882 147.146 534.37 146.837C535.269 145.798 535.068 144.607 534.365 143.346C533.064 143.219 531.782 143.533 530.515 144.268V145.935Z" fill="#FFC017"/>
<path d="M531.084 146.634C530.39 146.963 529.692 146.958 528.989 146.634C528.669 145.646 528.669 144.653 528.984 143.665C529.687 143.411 530.39 143.406 531.079 143.665C531.447 144.622 531.428 145.61 531.084 146.634Z" fill="#FFC017"/>
<path d="M529.33 185.126C528.263 186.078 526.967 186.347 525.479 186.048C524.575 185.014 524.771 183.824 525.474 182.557C526.771 182.425 528.057 182.734 529.33 183.459V185.126Z" fill="#FFC017"/>
<path d="M530.186 185.12C531.252 186.068 532.553 186.331 534.041 186.022C534.94 184.983 534.739 183.793 534.036 182.531C532.735 182.405 531.453 182.719 530.186 183.453V185.12Z" fill="#FFC017"/>
<path d="M530.76 185.819C530.066 186.148 529.368 186.143 528.665 185.819C528.344 184.831 528.344 183.838 528.66 182.85C529.363 182.597 530.066 182.592 530.755 182.85C531.123 183.808 531.104 184.796 530.76 185.819Z" fill="#FFC017"/>
<path d="M529.295 197.417C528.229 198.369 526.933 198.638 525.445 198.339C524.541 197.305 524.737 196.115 525.44 194.848C526.737 194.716 528.023 195.025 529.295 195.75V197.417Z" fill="#FFC017"/>
<path d="M530.147 197.409C531.214 198.357 532.515 198.62 534.003 198.311C534.902 197.273 534.701 196.082 533.998 194.82C532.697 194.694 531.415 195.008 530.147 195.742V197.409Z" fill="#FFC017"/>
<path d="M530.721 198.108C530.027 198.437 529.329 198.432 528.626 198.108C528.305 197.12 528.305 196.127 528.621 195.139C529.324 194.886 530.027 194.881 530.716 195.139C531.084 196.097 531.065 197.085 530.721 198.108Z" fill="#FFC017"/>
<path d="M529.114 209.801C528.047 210.754 526.751 211.023 525.263 210.724C524.359 209.69 524.556 208.499 525.259 207.233C526.555 207.101 527.842 207.41 529.114 208.135V209.801Z" fill="#FFC017"/>
<path d="M529.971 209.8C531.037 210.747 532.338 211.011 533.826 210.702C534.725 209.663 534.524 208.473 533.821 207.211C532.52 207.084 531.238 207.398 529.971 208.133V209.8Z" fill="#FFC017"/>
<path d="M530.544 210.495C529.85 210.824 529.152 210.819 528.449 210.495C528.128 209.507 528.128 208.514 528.444 207.526C529.147 207.273 529.85 207.267 530.539 207.526C530.907 208.483 530.888 209.471 530.544 210.495Z" fill="#FFC017"/>
<path d="M526.857 164.004C526.857 164.004 528.182 164.749 528.182 165.904C528.182 167.059 528.105 174.254 526.857 177.724C525.608 181.195 515.856 186.17 515.856 186.17L511.46 176.711C511.46 176.711 515.463 175.247 517.573 172.354C519.677 169.461 521.806 159.292 521.758 158.056C521.71 156.815 529.511 156.318 530.683 156.652C531.855 156.982 532.166 168.057 531.932 168.802C531.697 169.547 528.11 169.628 528.11 169.628" fill="#FFBE97"/>
<path d="M526.996 163.736C526.852 163.655 526.675 163.711 526.599 163.863C526.522 164.015 526.575 164.202 526.718 164.284C526.732 164.289 527.89 164.957 527.89 165.91C527.89 166.178 527.885 168.615 527.665 171.336M526.996 163.736L526.674 164.373L526.683 164.379C526.692 164.383 526.704 164.391 526.72 164.401C526.751 164.42 526.796 164.45 526.849 164.487C526.957 164.564 527.098 164.674 527.239 164.813C527.524 165.093 527.79 165.474 527.79 165.91C527.79 166.177 527.785 168.611 527.566 171.328M526.996 163.736C527.058 163.772 528.478 164.582 528.478 165.91M526.996 163.736L528.478 165.91M527.665 171.336L527.566 171.328C527.566 171.328 527.566 171.328 527.566 171.328M527.665 171.336L527.566 171.328C527.566 171.328 527.566 171.328 527.566 171.328M527.665 171.336L526.674 164.373M527.566 171.328C527.547 171.545 527.702 171.749 527.924 171.77L527.924 171.771H527.925C527.935 171.774 527.946 171.776 527.957 171.776C528.167 171.776 528.33 171.609 528.348 171.401L528.348 171.4C528.574 168.645 528.578 166.185 528.578 165.91C528.578 165.209 528.204 164.651 527.832 164.269C527.459 163.886 527.079 163.669 527.045 163.65L527.045 163.65L527.045 163.649C526.849 163.539 526.61 163.617 526.509 163.818C526.41 164.015 526.476 164.262 526.669 164.371C526.671 164.372 526.672 164.373 526.674 164.373M526.674 164.373C526.674 164.373 526.674 164.373 526.674 164.373L526.674 164.373ZM528.478 165.91C528.478 166.184 528.474 168.641 528.249 171.392L528.478 165.91Z" fill="#4F2B2B" stroke="black" stroke-width="0.2" stroke-linejoin="round"/>
<path d="M530.683 156.647C530.683 156.647 532.687 164.581 531.932 168.796C531.76 169.764 530.683 170.468 530.683 171.567C530.683 172.667 531.803 175.894 533.08 177.723C535.165 180.707 544.081 186.169 544.081 186.169L548.988 176.842C548.988 176.842 545.028 174.602 542.918 171.709C540.809 168.816 540.111 158.242 539.116 155.881C538.638 154.747 531.707 151.691 530.535 152.021C529.363 152.35 523.016 153.764 523.25 154.508C523.537 156.986 527.273 156.591 530.679 156.641L530.683 156.647Z" fill="#FFBE97"/>
<path d="M524.365 156.41L524.323 156.501C524.942 156.781 525.707 156.918 526.552 156.985C527.382 157.052 528.296 157.052 529.232 157.052L529.286 157.052H529.289H529.291H529.293H529.295H529.298H529.3H529.302H529.304H529.307H529.309H529.311H529.313H529.316H529.318H529.32H529.322H529.325H529.327H529.329H529.331H529.334H529.336H529.338H529.34H529.343H529.345H529.347H529.349H529.352H529.354H529.356H529.358H529.361H529.363H529.365H529.367H529.37H529.372H529.374H529.376H529.379H529.381H529.383H529.385H529.388H529.39H529.392H529.394H529.397H529.399H529.401H529.404H529.406H529.408H529.41H529.413H529.415H529.417H529.419H529.422H529.424H529.426H529.428H529.431H529.433H529.435H529.437H529.44H529.442H529.444H529.446H529.449H529.451H529.453H529.456H529.458H529.46H529.462H529.465H529.467H529.469H529.471H529.474H529.476H529.478H529.48H529.483H529.485H529.487H529.49H529.492H529.494H529.496H529.499H529.501H529.503H529.505H529.508H529.51H529.512H529.514H529.517H529.519H529.521H529.524H529.526H529.528H529.53H529.533H529.535H529.537H529.539H529.542H529.544H529.546H529.549H529.551H529.553H529.555H529.558H529.56H529.562H529.564H529.567H529.569H529.571H529.574H529.576H529.578H529.58H529.583H529.585H529.587H529.59H529.592H529.594H529.596H529.599H529.601H529.603H529.605H529.608H529.61H529.612H529.615H529.617H529.619H529.621H529.624H529.626H529.628H529.631H529.633H529.635H529.637H529.64H529.642H529.644H529.647H529.649H529.651H529.653H529.656H529.658H529.66H529.663H529.665H529.667H529.669H529.672H529.674H529.676H529.679H529.681H529.683H529.685H529.688H529.69H529.692H529.695H529.697H529.699H529.701H529.704H529.706H529.708H529.711H529.713H529.715H529.717H529.72H529.722H529.724H529.727H529.729H529.731H529.733H529.736H529.738H529.74H529.743H529.745H529.747H529.75H529.752H529.754H529.756H529.759H529.761H529.763H529.766H529.768H529.77H529.772H529.775H529.777H529.779H529.782H529.784H529.786H529.788H529.791H529.793H529.795H529.798H529.8H529.802H529.805H529.807H529.809H529.811H529.814H529.816H529.818H529.821H529.823H529.825H529.827H529.83H529.832H529.834H529.837H529.839H529.841H529.844H529.846H529.848H529.85H529.853H529.855H529.857H529.86H529.862H529.864H529.867H529.869H529.871H529.873H529.876H529.878H529.88H529.883H529.885H529.887H529.89H529.892H529.894H529.896H529.899H529.901H529.903H529.906H529.908H529.91H529.913H529.915H529.917H529.919H529.922H529.924H529.926H529.929H529.931H529.933H529.936H529.938H529.94H529.942H529.945H529.947H529.949H529.952H529.954H529.956H529.959H529.961H529.963H529.965H529.968H529.97H529.972H529.975H529.977H529.979H529.982H529.984H529.986H529.988H529.991H529.993H529.995H529.998H530H530.002H530.005H530.007H530.009H530.011H530.014H530.016H530.018H530.021H530.023H530.025H530.028H530.03H530.032H530.035H530.037H530.039H530.041H530.044H530.046H530.048H530.051H530.053H530.055H530.058H530.06H530.062H530.064H530.067H530.069H530.071H530.074H530.076H530.078H530.081H530.083H530.085H530.088H530.09H530.092H530.094H530.097H530.099H530.101H530.104H530.106H530.108H530.111H530.113H530.115H530.117H530.12H530.122H530.124H530.127H530.129H530.131H530.134H530.136H530.138H530.141H530.143H530.145H530.147H530.15H530.152H530.154H530.157H530.159H530.161H530.164H530.166H530.168H530.171H530.173H530.175H530.177H530.18H530.182H530.184H530.187H530.189H530.191H530.194H530.196H530.198H530.2H530.203H530.205H530.207H530.21H530.212H530.214H530.217H530.219H530.221H530.224H530.226H530.228H530.23H530.233H530.235H530.237H530.24H530.242H530.244H530.247H530.249H530.251H530.253H530.256H530.258H530.26H530.263H530.265H530.267H530.27H530.272H530.274H530.277H530.279H530.281H530.283H530.286H530.288H530.29H530.293H530.295H530.297H530.3H530.302H530.304H530.306H530.309H530.311H530.313H530.316H530.318H530.32H530.323H530.325H530.327H530.33H530.332H530.334H530.336H530.339H530.341H530.343H530.346H530.348H530.35H530.353H530.355H530.357H530.359H530.362H530.364H530.366H530.369H530.371H530.373H530.376H530.378H530.379C530.531 157.698 530.899 159.311 531.206 161.213L531.206 161.213C531.732 164.453 531.844 167.048 531.546 168.718C531.484 169.05 531.269 169.372 531.025 169.737L531.016 169.75L531.016 169.75C531.009 169.76 531.003 169.77 530.996 169.78C530.673 170.266 530.291 170.84 530.291 171.569C530.291 171.791 530.46 171.978 530.683 171.978C530.695 171.978 530.706 171.976 530.717 171.972C530.928 171.959 531.084 171.777 531.084 171.564L531.084 171.563C531.08 171.088 531.35 170.683 531.665 170.221L531.665 170.222L531.666 170.22C531.675 170.206 531.684 170.192 531.694 170.178C531.951 169.789 532.23 169.368 532.322 168.866L532.322 168.866C532.705 166.73 532.409 163.725 532.011 161.224C531.621 158.775 531.131 156.793 531.071 156.551C531.069 156.546 531.068 156.541 531.067 156.538L531.067 156.537L531.01 156.309C530.999 156.265 530.959 156.234 530.913 156.234H530.693C530.224 156.228 529.751 156.228 529.288 156.228L529.286 156.228L529.286 156.228L529.286 156.228C528.359 156.231 527.464 156.233 526.665 156.173C525.864 156.113 525.17 155.989 524.641 155.746L524.641 155.746L524.639 155.745C524.434 155.657 524.202 155.753 524.119 155.962L524.119 155.962L524.118 155.963C524.04 156.169 524.121 156.411 524.324 156.501L524.365 156.41ZM524.365 156.41C524.216 156.344 524.149 156.161 524.212 155.999M524.365 156.41C525.559 156.952 527.34 156.952 529.234 156.952L529.286 156.952H530.458C530.597 157.539 530.984 159.211 531.305 161.197L524.212 155.999M524.212 155.999C524.274 155.842 524.446 155.771 524.599 155.837L524.212 155.999Z" fill="#4F2B2B" stroke="black" stroke-width="0.2" stroke-linejoin="round"/>
<path d="M515.143 135.809C515.143 135.809 514.77 130.874 517.583 130.393C520.4 129.916 526.254 131.107 527.828 132.303C529.407 133.493 529.966 136.726 529.966 136.726C529.966 136.726 520.773 136.726 515.139 135.809H515.143Z" fill="#6A3939"/>
<path d="M544.799 135.809C544.799 135.809 545.172 130.874 542.36 130.393C539.543 129.916 533.688 131.107 532.115 132.303C530.536 133.493 529.977 136.726 529.977 136.726C530.149 136.954 541.327 136.868 544.804 135.809H544.799Z" fill="#6A3939"/>
<path d="M529.39 131.505C518.184 131.505 509.101 121.883 509.101 110.012V100.969C509.101 89.0979 518.184 79.4766 529.39 79.4766C540.597 79.4766 549.68 89.0979 549.68 100.969V110.012C549.68 121.883 540.597 131.505 529.39 131.505Z" fill="#FFBE97"/>
<path d="M530.05 116.362C530.201 116.114 530.145 115.78 529.947 115.591C529.946 115.591 529.946 115.591 529.946 115.591L527.888 113.629L529.415 107.674L529.415 107.674L529.416 107.671C529.482 107.404 529.367 107.089 529.107 106.967L529.107 106.967L529.104 106.965C528.968 106.903 528.815 106.907 528.683 106.979C528.552 107.05 528.464 107.176 528.427 107.32L528.426 107.32L526.751 113.852L526.714 113.995L526.819 114.095L529.296 116.455C529.296 116.455 529.296 116.455 529.296 116.455C529.357 116.513 529.429 116.556 529.507 116.578L529.527 116.654L529.767 116.584C529.884 116.55 529.984 116.472 530.05 116.362Z" fill="#4F2B2B" stroke="#4F2B2B" stroke-width="0.5"/>
<path d="M534.721 119.899L534.493 119.795C533.671 121.609 532.464 122.359 531.457 122.663C530.439 122.97 529.607 122.825 529.557 122.815L529.555 122.815C529.242 122.759 529.012 123.011 528.979 123.277C528.948 123.531 529.087 123.833 529.386 123.892L529.386 123.891C529.446 123.903 529.697 123.94 530.067 123.94C531.295 123.94 533.919 123.523 535.385 120.282C535.493 120.044 535.433 119.721 535.191 119.567C534.919 119.393 534.608 119.537 534.492 119.797L534.721 119.899ZM534.721 119.899C534.785 119.753 534.935 119.7 535.057 119.778C535.178 119.855 535.222 120.037 535.158 120.179C533.747 123.298 531.239 123.69 530.067 123.69C529.683 123.69 529.444 123.649 529.434 123.646C529.298 123.62 529.207 123.47 529.227 123.308C529.248 123.145 529.375 123.037 529.511 123.061C529.652 123.087 533.014 123.666 534.721 119.899Z" fill="#4F2B2B" stroke="#4F2B2B" stroke-width="0.5"/>
<path d="M517.817 100.343L517.959 100.554C519.518 99.4466 521.008 99.4475 522.127 99.7333C523.254 100.021 524.005 100.599 524.054 100.638L524.056 100.639C524.289 100.82 524.612 100.769 524.778 100.529C524.939 100.296 524.9 99.9608 524.668 99.7751L524.668 99.7751C524.62 99.7373 524.397 99.5725 524.039 99.3734C522.872 98.7241 520.17 97.6642 517.372 99.6555C517.144 99.8175 517.076 100.151 517.238 100.403C517.402 100.658 517.726 100.722 517.96 100.553L517.817 100.343ZM517.817 100.343C517.693 100.432 517.526 100.397 517.441 100.266C517.356 100.134 517.391 99.9545 517.514 99.867C520.203 97.9536 522.795 98.9669 523.928 99.5974C524.3 99.8043 524.513 99.968 524.522 99.9756L524.199 100.436C524.073 100.337 521.068 98.0327 517.817 100.343Z" fill="#4F2B2B" stroke="#4F2B2B" stroke-width="0.5"/>
<path d="M516.824 103.162L523.041 106.481M523.041 106.481L517.048 106.026M523.041 106.481L516.54 108.737" stroke="#4F2B2B" stroke-linecap="round" stroke-linejoin="round"/>
<path d="M542.513 103.162L536.295 106.481M536.295 106.481L542.289 106.026M536.295 106.481L542.797 108.737" stroke="#4F2B2B" stroke-linecap="round" stroke-linejoin="round"/>
<path d="M535.705 100.343L535.847 100.554C537.406 99.4466 538.896 99.4475 540.015 99.7333C541.142 100.021 541.893 100.599 541.942 100.638L541.943 100.639C542.177 100.82 542.5 100.769 542.666 100.529C542.826 100.296 542.788 99.9608 542.556 99.7751L542.556 99.7751C542.508 99.7373 542.284 99.5725 541.927 99.3734C540.759 98.7241 538.058 97.6642 535.259 99.6555C535.031 99.8175 534.964 100.151 535.126 100.403C535.289 100.658 535.614 100.722 535.848 100.553L535.705 100.343ZM535.705 100.343C535.581 100.432 535.413 100.397 535.329 100.266C535.244 100.134 535.278 99.9545 535.401 99.867C538.091 97.9536 540.682 98.9669 541.815 99.5974C542.187 99.8043 542.401 99.968 542.41 99.9756L542.086 100.436C541.961 100.337 538.956 98.0327 535.705 100.343Z" fill="#4F2B2B" stroke="#4F2B2B" stroke-width="0.5"/>
<path d="M520.848 114.948C521.035 113.974 519.801 112.886 518.092 112.517C516.382 112.148 514.845 112.638 514.657 113.612C514.47 114.586 515.704 115.674 517.414 116.043C519.123 116.412 520.661 115.921 520.848 114.948Z" fill="#FF9D6C"/>
<path d="M546.899 113.627C546.767 112.643 545.261 112.056 543.533 112.314C541.806 112.573 540.512 113.58 540.643 114.564C540.774 115.548 542.281 116.136 544.009 115.877C545.736 115.619 547.03 114.611 546.899 113.627Z" fill="#FF9D6C"/>
<path d="M495.355 179.295L498.517 139.695C491.246 142.634 479.399 168.894 475.204 179.898C471.009 190.903 473.563 202.297 479.581 205.19C485.598 208.088 495.436 205.96 502.912 202.875C510.384 199.784 521.686 194.571 521.686 194.571C522.341 186.191 518.324 177.086 514.363 172.734C514.363 172.734 507.557 172.987 494.925 179.402C488.247 182.796 483.096 188.248 483.096 188.248" fill="#EF2942"/>
<path d="M495.332 179.594L495.332 179.593C495.111 179.573 494.955 179.374 494.974 179.151L494.974 179.151L495.073 179.159L494.974 179.151L495.332 179.594ZM495.332 179.594H495.341H495.341H495.341H495.341H495.342H495.342H495.342H495.342H495.342H495.342H495.342H495.342H495.342H495.342H495.342H495.342H495.342H495.342H495.342H495.342H495.342H495.342H495.343H495.343H495.343H495.343H495.343H495.343H495.343H495.343H495.343H495.343H495.343H495.343H495.343H495.343H495.343H495.343H495.343H495.344H495.344H495.344H495.344H495.344H495.344H495.344H495.344H495.344H495.344H495.344H495.344H495.344H495.344H495.344H495.344H495.345H495.345H495.345H495.345H495.345H495.345H495.345H495.345H495.345H495.345H495.345H495.345H495.345H495.345H495.345H495.345H495.345H495.346H495.346H495.346H495.346H495.346H495.346H495.346H495.346H495.346H495.346H495.346H495.346H495.346H495.346H495.346H495.346H495.347H495.347H495.347H495.347H495.347H495.347H495.347H495.347H495.347H495.347H495.347H495.347H495.347H495.347H495.347H495.347H495.348H495.348H495.348H495.348H495.348H495.348H495.348H495.348H495.348H495.348H495.348H495.348H495.348H495.348H495.348H495.348H495.349H495.349H495.349H495.349H495.349H495.349H495.349H495.349H495.349H495.349H495.349H495.349H495.349H495.349H495.349H495.35H495.35H495.35H495.35H495.35H495.35H495.35H495.35H495.35H495.35H495.35H495.35H495.35H495.35H495.35H495.35H495.351H495.351H495.351H495.351H495.351H495.351H495.351H495.351H495.351H495.351H495.351H495.351H495.351H495.351H495.351H495.351H495.352H495.352H495.352H495.352H495.352H495.352H495.352H495.352H495.352H495.352H495.352H495.352H495.352H495.352H495.352H495.352H495.353H495.353H495.353H495.353H495.353H495.353H495.353H495.353H495.353H495.353H495.353H495.353H495.353H495.353H495.353H495.353H495.353H495.354H495.354H495.354H495.354H495.354H495.354H495.354H495.354H495.354H495.354H495.354H495.354H495.354H495.354H495.354H495.354H495.355H495.355H495.355H495.355H495.355H495.355H495.355H495.355H495.355H495.355H495.355H495.355H495.355H495.355H495.355H495.355H495.355H495.356H495.356H495.356H495.356H495.356H495.356H495.356H495.356H495.356H495.356H495.356H495.356H495.356H495.356H495.356H495.356H495.356H495.356H495.357H495.357H495.357H495.357H495.357H495.357H495.357H495.357H495.357H495.357H495.357H495.357H495.357H495.357H495.357H495.357H495.357H495.357H495.358H495.358H495.358H495.358H495.358H495.358H495.358H495.358H495.358H495.358H495.358H495.358H495.358H495.358H495.358H495.358H495.358H495.358H495.359H495.359H495.359H495.359H495.359H495.359H495.359H495.359H495.359H495.359H495.359H495.359H495.359H495.359H495.359H495.359H495.359H495.359H495.359H495.359H495.36H495.36H495.36H495.36H495.36H495.36H495.36H495.36H495.36H495.36H495.36H495.36H495.36H495.36H495.36H495.36H495.36H495.36H495.36H495.36H495.36H495.361H495.361H495.361H495.361H495.361H495.361H495.361H495.361H495.361H495.361H495.361H495.361H495.361H495.361H495.361H495.361H495.361H495.361H495.361H495.361H495.361H495.361H495.361H495.362H495.362H495.362H495.362H495.362H495.362H495.362H495.362H495.362H495.362H495.362H495.362H495.362H495.362H495.362H495.362H495.362H495.362H495.362H495.362H495.362H495.362H495.362H495.362H495.362H495.363H495.363H495.363H495.363H495.363H495.363H495.363H495.363H495.363H495.363H495.363H495.363H495.363H495.363H495.363H495.363H495.363H495.363H495.363H495.363H495.363H495.363H495.363H495.363H495.363H495.363H495.363H495.363H495.363H495.363H495.364H495.364H495.364H495.364H495.364H495.364H495.364H495.364H495.364H495.364H495.364H495.364H495.364H495.364H495.364H495.364H495.364H495.364H495.364H495.364H495.364H495.364H495.364H495.364H495.364H495.364H495.364H495.364H495.364H495.364H495.364H495.364H495.364H495.364H495.364H495.364H495.364H495.364H495.364H495.365H495.365H495.365H495.365H495.365H495.365H495.365H495.365H495.365H495.365H495.365H495.365H495.365H495.365H495.365H495.365H495.365H495.365H495.365H495.365H495.365H495.365H495.365H495.365H495.365H495.365H495.365H495.365H495.365H495.365H495.365H495.365H495.365H495.365H495.365H495.365H495.365H495.365H495.365H495.365H495.365H495.365H495.365H495.365H495.365H495.365H495.365H495.365H495.365H495.365H495.365H495.365C495.576 179.594 495.738 179.427 495.757 179.219L495.757 179.218L497.646 155.563L495.332 179.594Z" fill="#4F2B2B" stroke="#4F2B2B" stroke-width="0.2" stroke-linejoin="round"/>
<path d="M514.67 197.853L514.087 197.792C514.493 193.597 514.01 189.417 512.656 185.379C511.341 181.458 509.189 177.774 506.438 174.729L506.864 174.299C509.672 177.405 511.867 181.164 513.211 185.172C514.598 189.301 515.091 193.567 514.675 197.858L514.67 197.853Z" fill="#FFC017"/>
<path d="M490.702 206.68C490.711 206.68 490.721 206.678 490.73 206.675V206.675L490.744 206.674C494.575 206.161 498.945 204.947 503.051 203.247C509.917 200.404 520.14 195.715 521.649 195.023C521.764 194.97 521.829 194.941 521.837 194.937L521.839 194.936L522.001 194.86C522.034 194.845 522.056 194.813 522.059 194.777L522.073 194.595C522.462 189.64 521.228 185.004 520.121 181.988C518.745 178.24 516.754 174.762 514.648 172.445L514.648 172.445L514.647 172.444L514.556 172.347C514.537 172.327 514.511 172.316 514.483 172.316H514.354C514.276 172.316 512.564 172.394 509.287 173.257C503.829 174.693 498.369 177.189 494.755 179.025C488.091 182.407 482.872 187.895 482.818 187.952C482.667 188.112 482.667 188.37 482.818 188.53C482.972 188.694 483.225 188.694 483.379 188.531C483.382 188.528 483.388 188.521 483.397 188.513C483.76 188.139 488.771 182.98 495.099 179.766C501.584 176.475 506.485 174.847 509.453 174.063L509.453 174.063C512.077 173.369 513.696 173.196 514.207 173.153C516.147 175.336 518.058 178.624 519.417 182.366C520.777 186.111 521.582 190.303 521.313 194.288C519.717 195.024 509.583 199.667 502.769 202.485C498.715 204.159 494.414 205.357 490.65 205.862C490.433 205.89 490.286 206.096 490.31 206.317L490.311 206.318C490.335 206.521 490.504 206.68 490.702 206.68Z" fill="#4F2B2B" stroke="#4F2B2B" stroke-width="0.2" stroke-linejoin="round"/>
<path d="M564.585 179.295L561.423 139.695C568.694 142.634 580.541 168.894 584.736 179.898C588.926 190.903 586.377 202.297 580.36 205.19C574.343 208.088 564.504 205.96 557.028 202.875C549.557 199.784 538.254 194.571 538.254 194.571C537.594 186.191 541.617 177.086 545.577 172.734C545.577 172.734 552.383 172.987 565.016 179.402C571.693 182.796 576.844 188.248 576.844 188.248" fill="#EF2942"/>
<path d="M564.184 179.219L564.184 179.218L562.295 155.563C562.295 155.563 562.295 155.563 562.295 155.562L562.295 155.562L562.395 155.554C562.38 155.382 562.5 155.235 562.663 155.22C562.825 155.205 562.964 155.331 562.978 155.504L564.184 179.219ZM564.184 179.219C564.203 179.428 564.371 179.594 564.576 179.594H564.576H564.576H564.576H564.576H564.576H564.576H564.576H564.576H564.576H564.576H564.576H564.576H564.576H564.576H564.576H564.576H564.576H564.576H564.576H564.576H564.576H564.576H564.576H564.577H564.577H564.577H564.577H564.577H564.577H564.577H564.577H564.577H564.577H564.577H564.577H564.577H564.577H564.577H564.577H564.577H564.577H564.577H564.577H564.577H564.577H564.577H564.577H564.577H564.577H564.577H564.577H564.577H564.577H564.577H564.578H564.578H564.578H564.578H564.578H564.578H564.578H564.578H564.578H564.578H564.578H564.578H564.578H564.578H564.578H564.578H564.578H564.578H564.578H564.578H564.578H564.578H564.578H564.578H564.578H564.578H564.578H564.578H564.578H564.579H564.579H564.579H564.579H564.579H564.579H564.579H564.579H564.579H564.579H564.579H564.579H564.579H564.579H564.579H564.579H564.579H564.579H564.579H564.579H564.579H564.579H564.579H564.579H564.579H564.579H564.58H564.58H564.58H564.58H564.58H564.58H564.58H564.58H564.58H564.58H564.58H564.58H564.58H564.58H564.58H564.58H564.58H564.58H564.58H564.58H564.58H564.58H564.58H564.58H564.58H564.581H564.581H564.581H564.581H564.581H564.581H564.581H564.581H564.581H564.581H564.581H564.581H564.581H564.581H564.581H564.581H564.581H564.581H564.581H564.581H564.581H564.581H564.581H564.581H564.582H564.582H564.582H564.582H564.582H564.582H564.582H564.582H564.582H564.582H564.582H564.582H564.582H564.582H564.582H564.582H564.582H564.582H564.582H564.582H564.582H564.582H564.582H564.583H564.583H564.583H564.583H564.583H564.583H564.583H564.583H564.583H564.583H564.583H564.583H564.583H564.583H564.583H564.583H564.583H564.583H564.583H564.583H564.583H564.583H564.584H564.584H564.584H564.584H564.584H564.584H564.584H564.584H564.584H564.584H564.584H564.584H564.584H564.584H564.584H564.584H564.584H564.584H564.584H564.584H564.584H564.584H564.585H564.585H564.585H564.585H564.585H564.585H564.585H564.585H564.585H564.585H564.585H564.585H564.585H564.585H564.585H564.585H564.585H564.585H564.585H564.585H564.585H564.586H564.586H564.586H564.586H564.586H564.586H564.586H564.586H564.586H564.586H564.586H564.586H564.586H564.586H564.586H564.586H564.586H564.586H564.586H564.586H564.587H564.587H564.587H564.587H564.587H564.587H564.587H564.587H564.587H564.587H564.587H564.587H564.587H564.587H564.587H564.587H564.587H564.587H564.587H564.587H564.588H564.588H564.588H564.588H564.588H564.588H564.588H564.588H564.588H564.588H564.588H564.588H564.588H564.588H564.588H564.588H564.588H564.588H564.588H564.588H564.589H564.589H564.589H564.589H564.589H564.589H564.589H564.589H564.589H564.589H564.589H564.589H564.589H564.589H564.589H564.589H564.589H564.589H564.589H564.59H564.59H564.59H564.59H564.59H564.59H564.59H564.59H564.59H564.59H564.59H564.59H564.59H564.59H564.59H564.59H564.59H564.59H564.59H564.591H564.591H564.591H564.591H564.591H564.591H564.591H564.591H564.591H564.591H564.591H564.591H564.591H564.591H564.591H564.591H564.591H564.591H564.591H564.592H564.592H564.592H564.592H564.592H564.592H564.592H564.592H564.592H564.592H564.592H564.592H564.592H564.592H564.592H564.592H564.592H564.592H564.593H564.593H564.593H564.593H564.593H564.593H564.593H564.593H564.593H564.593H564.593H564.593H564.593H564.593H564.593H564.593H564.593H564.593H564.594H564.594H564.594H564.594H564.594H564.594H564.594H564.594H564.594H564.594H564.594H564.594H564.594H564.594H564.594H564.594H564.594H564.594H564.594H564.595H564.595H564.595H564.595H564.595H564.595H564.595H564.595H564.595H564.595H564.595H564.595H564.595H564.595H564.595H564.595H564.595H564.595H564.596H564.596H564.596H564.596H564.596H564.596H564.596H564.596H564.596H564.596H564.596H564.596H564.596H564.596H564.596H564.596H564.596H564.596H564.597H564.597H564.597H564.597H564.597H564.597H564.597H564.597H564.597H564.597H564.597H564.597H564.597H564.597H564.597H564.597H564.597H564.597H564.598H564.598H564.598H564.598H564.598H564.598H564.598H564.598H564.598H564.598H564.598H564.598H564.598H564.598H564.598H564.598H564.598H564.598H564.599H564.599H564.599H564.599H564.599H564.599H564.599H564.599H564.599H564.599H564.599H564.599H564.599H564.599H564.599H564.599H564.599H564.6H564.6H564.6H564.6H564.6V179.594L564.609 179.593C564.83 179.573 564.986 179.374 564.967 179.151L564.184 179.219Z" fill="#4F2B2B" stroke="#4F2B2B" stroke-width="0.2" stroke-linejoin="round"/>
<path d="M545.267 197.856C544.851 193.565 545.344 189.299 546.731 185.17C548.075 181.162 550.27 177.403 553.078 174.297L553.504 174.728C550.753 177.773 548.606 181.456 547.286 185.377C545.932 189.42 545.449 193.595 545.855 197.79L545.272 197.851L545.267 197.856Z" fill="#FFC017"/>
<path d="M569.187 206.68H569.198C569.208 206.683 569.218 206.685 569.229 206.685C569.433 206.685 569.596 206.525 569.62 206.323L569.62 206.322C569.645 206.108 569.504 205.896 569.28 205.867C565.516 205.362 561.211 204.164 557.162 202.49C550.348 199.672 540.219 195.029 538.618 194.293C538.349 190.308 539.153 186.116 540.514 182.371C541.873 178.629 543.784 175.34 545.724 173.158C546.23 173.196 547.849 173.374 550.478 174.068L550.504 173.971L550.478 174.068C555.863 175.489 561.251 177.953 564.831 179.771C571.368 183.091 576.5 188.482 576.551 188.535C576.705 188.699 576.959 188.699 577.113 188.535C577.264 188.375 577.264 188.117 577.113 187.957C577.058 187.9 571.84 182.417 565.176 179.03L565.175 179.03C558.621 175.703 553.659 174.059 550.644 173.262L550.644 173.262C547.479 172.428 545.78 172.328 545.598 172.317C545.591 172.317 545.587 172.316 545.584 172.316L545.584 172.316H545.577H545.448C545.419 172.316 545.392 172.328 545.373 172.349L545.283 172.45C545.283 172.45 545.283 172.45 545.283 172.45C543.177 174.762 541.186 178.245 539.81 181.993L539.81 181.993C538.708 185.009 537.469 189.645 537.858 194.6L537.858 194.6L537.872 194.782C537.875 194.818 537.897 194.85 537.93 194.865L538.091 194.941C538.302 195.043 549.516 200.21 556.879 203.252L556.88 203.252C560.99 204.947 565.361 206.166 569.187 206.679L569.187 206.68Z" fill="#4F2B2B" stroke="#4F2B2B" stroke-width="0.2" stroke-linejoin="round"/>
<path d="M517.114 89.4654C517.114 89.4654 519.936 93.3109 527.101 95.2361C534.266 97.1614 546.147 96.1988 546.147 96.1988L550.193 110.578C550.193 110.578 553.47 89.6782 546.319 81.136C539.168 72.5939 531.372 72.5027 525.417 73.7186C518.582 75.117 514.339 82.352 514.339 82.352C514.339 82.352 509.289 83.2842 508.208 90.2102C506.878 98.7371 509.896 111.87 509.896 111.87L511.728 97.0702C511.728 97.0702 515.196 96.3457 517.118 89.4552L517.114 89.4654Z" fill="#4F2B2B"/>
<path d="M481.019 118.671C479.654 118.671 478.542 117.494 478.542 116.047C478.542 114.601 479.654 113.424 481.019 113.424C482.384 113.424 483.496 114.601 483.496 116.047C483.496 117.494 482.384 118.671 481.019 118.671ZM481.019 114.264C480.089 114.264 479.335 115.063 479.335 116.047C479.335 117.032 480.089 117.831 481.019 117.831C481.948 117.831 482.703 117.032 482.703 116.047C482.703 115.063 481.948 114.264 481.019 114.264Z" fill="#4F2B2B" stroke="#4F2B2B" stroke-width="0.3"/>
<path d="M578.658 93.4074C577.293 93.4074 576.182 92.2299 576.182 90.7838C576.182 89.3377 577.293 88.1602 578.658 88.1602C580.024 88.1602 581.135 89.3377 581.135 90.7838C581.135 92.2299 580.024 93.4074 578.658 93.4074ZM578.658 89.0003C577.729 89.0003 576.975 89.7991 576.975 90.7838C576.975 91.7685 577.729 92.5673 578.658 92.5673C579.588 92.5673 580.342 91.7685 580.342 90.7838C580.342 89.7991 579.588 89.0003 578.658 89.0003Z" fill="#4F2B2B" stroke="#4F2B2B" stroke-width="0.3"/>
<path d="M443.384 107.504C442.695 107.504 442.143 106.911 442.143 106.188C442.143 105.465 442.702 104.873 443.384 104.873C444.067 104.873 444.626 105.465 444.626 106.188C444.626 106.911 444.067 107.504 443.384 107.504ZM443.384 105.713C443.137 105.713 442.936 105.927 442.936 106.188C442.936 106.45 443.137 106.663 443.384 106.663C443.631 106.663 443.833 106.45 443.833 106.188C443.833 105.927 443.631 105.713 443.384 105.713Z" fill="#4F2B2B" stroke="#4F2B2B" stroke-width="0.3"/>
<path d="M443.788 100.006H442.988V104.096H443.788V100.006Z" fill="#4F2B2B" stroke="#4F2B2B" stroke-width="0.3"/>
<path d="M441.408 105.77H437.547V106.617H441.408V105.77Z" fill="#4F2B2B" stroke="#4F2B2B" stroke-width="0.3"/>
<path d="M443.788 108.281H442.988V112.372H443.788V108.281Z" fill="#4F2B2B" stroke="#4F2B2B" stroke-width="0.3"/>
<path d="M449.229 105.77H445.367V106.617H449.229V105.77Z" fill="#4F2B2B" stroke="#4F2B2B" stroke-width="0.3"/>
<path d="M446.095 102.721L444.569 104.338L445.135 104.937L446.661 103.32L446.095 102.721Z" fill="#4F2B2B" stroke="#4F2B2B" stroke-width="0.3"/>
<path d="M440.666 102.704L440.101 103.303L441.627 104.919L442.192 104.32L440.666 102.704Z" fill="#4F2B2B" stroke="#4F2B2B" stroke-width="0.3"/>
<path d="M441.628 107.465L440.102 109.082L440.667 109.681L442.193 108.064L441.628 107.465Z" fill="#4F2B2B" stroke="#4F2B2B" stroke-width="0.3"/>
<path d="M445.143 107.45L444.577 108.049L446.103 109.665L446.669 109.066L445.143 107.45Z" fill="#4F2B2B" stroke="#4F2B2B" stroke-width="0.3"/>
<path d="M467.981 140.662C467.292 140.662 466.739 140.07 466.739 139.347C466.739 138.623 467.298 138.031 467.981 138.031C468.664 138.031 469.223 138.623 469.223 139.347C469.223 140.07 468.664 140.662 467.981 140.662ZM467.981 138.871C467.734 138.871 467.532 139.085 467.532 139.347C467.532 139.608 467.734 139.822 467.981 139.822C468.228 139.822 468.43 139.608 468.43 139.347C468.43 139.085 468.228 138.871 467.981 138.871Z" fill="#4F2B2B" stroke="#4F2B2B" stroke-width="0.3"/>
<path d="M468.385 133.164H467.585V137.254H468.385V133.164Z" fill="#4F2B2B" stroke="#4F2B2B" stroke-width="0.3"/>
<path d="M466.005 138.928H462.144V139.775H466.005V138.928Z" fill="#4F2B2B" stroke="#4F2B2B" stroke-width="0.3"/>
<path d="M468.385 141.439H467.585V145.53H468.385V141.439Z" fill="#4F2B2B" stroke="#4F2B2B" stroke-width="0.3"/>
<path d="M473.825 138.928H469.964V139.775H473.825V138.928Z" fill="#4F2B2B" stroke="#4F2B2B" stroke-width="0.3"/>
<path d="M470.692 135.879L469.166 137.496L469.731 138.095L471.258 136.478L470.692 135.879Z" fill="#4F2B2B" stroke="#4F2B2B" stroke-width="0.3"/>
<path d="M465.263 135.862L464.697 136.461L466.223 138.078L466.789 137.479L465.263 135.862Z" fill="#4F2B2B" stroke="#4F2B2B" stroke-width="0.3"/>
<path d="M466.224 140.624L464.698 142.24L465.264 142.839L466.79 141.223L466.224 140.624Z" fill="#4F2B2B" stroke="#4F2B2B" stroke-width="0.3"/>
<path d="M469.739 140.608L469.174 141.207L470.7 142.824L471.265 142.225L469.739 140.608Z" fill="#4F2B2B" stroke="#4F2B2B" stroke-width="0.3"/>
<path d="M585.001 146.972C584.312 146.972 583.76 146.38 583.76 145.657C583.76 144.934 584.319 144.342 585.001 144.342C585.684 144.342 586.243 144.934 586.243 145.657C586.243 146.38 585.684 146.972 585.001 146.972ZM585.001 145.182C584.754 145.182 584.553 145.395 584.553 145.657C584.553 145.919 584.754 146.132 585.001 146.132C585.248 146.132 585.45 145.919 585.45 145.657C585.45 145.395 585.248 145.182 585.001 145.182Z" fill="#4F2B2B" stroke="#4F2B2B" stroke-width="0.3"/>
<path d="M585.404 139.475H584.604V143.565H585.404V139.475Z" fill="#4F2B2B" stroke="#4F2B2B" stroke-width="0.3"/>
<path d="M583.026 145.23H579.164V146.077H583.026V145.23Z" fill="#4F2B2B" stroke="#4F2B2B" stroke-width="0.3"/>
<path d="M585.404 147.75H584.604V151.84H585.404V147.75Z" fill="#4F2B2B" stroke="#4F2B2B" stroke-width="0.3"/>
<path d="M590.846 145.23H586.984V146.077H590.846V145.23Z" fill="#4F2B2B" stroke="#4F2B2B" stroke-width="0.3"/>
<path d="M587.72 142.18L586.193 143.797L586.759 144.396L588.285 142.779L587.72 142.18Z" fill="#4F2B2B" stroke="#4F2B2B" stroke-width="0.3"/>
<path d="M582.282 142.173L581.717 142.771L583.243 144.388L583.808 143.789L582.282 142.173Z" fill="#4F2B2B" stroke="#4F2B2B" stroke-width="0.3"/>
<path d="M583.245 146.921L581.719 148.537L582.28 149.131L583.806 147.515L583.245 146.921Z" fill="#4F2B2B" stroke="#4F2B2B" stroke-width="0.3"/>
<path d="M586.755 146.912L586.194 147.506L587.72 149.122L588.281 148.528L586.755 146.912Z" fill="#4F2B2B" stroke="#4F2B2B" stroke-width="0.3"/>
<path d="M488.5 85.2077H485.25V84.3607H487.74C487.909 83.252 488.741 82.3705 489.788 82.1915V77.8945H490.587V82.9972H490.191C489.261 82.9972 488.507 83.796 488.507 84.7807V85.2008L488.5 85.2077Z" fill="#4F2B2B" stroke="#4F2B2B" stroke-width="0.3"/>
<path d="M490.581 91.6676H489.781V86.5649H490.178C491.107 86.5649 491.862 85.7661 491.862 84.7814V84.3613H495.112V85.2083H492.622C492.453 86.317 491.621 87.1984 490.574 87.3775V91.6744L490.581 91.6676Z" fill="#4F2B2B" stroke="#4F2B2B" stroke-width="0.3"/>
<path d="M487.692 81.5339L487.127 82.1328L487.78 82.8243L488.345 82.2253L487.692 81.5339Z" fill="#4F2B2B" stroke="#4F2B2B" stroke-width="0.3"/>
<path d="M492.59 86.7312L492.024 87.3301L492.677 88.0215L493.243 87.4226L492.59 86.7312Z" fill="#4F2B2B" stroke="#4F2B2B" stroke-width="0.3"/>
<path d="M488.432 86.0429L487.127 87.4258L487.692 88.0247L488.998 86.6418L488.432 86.0429Z" fill="#4F2B2B" stroke="#4F2B2B" stroke-width="0.3"/>
<path d="M492.678 81.5351L491.372 82.918L491.937 83.5169L493.243 82.134L492.678 81.5351Z" fill="#4F2B2B" stroke="#4F2B2B" stroke-width="0.3"/>
<path d="M563.78 124.682H560.529V123.835H563.019C563.188 122.727 564.02 121.845 565.067 121.666V117.369H565.867V122.472H565.47C564.54 122.472 563.786 123.271 563.786 124.255V124.675L563.78 124.682Z" fill="#4F2B2B" stroke="#4F2B2B" stroke-width="0.3"/>
<path d="M565.854 131.148H565.055V126.045H565.451C566.381 126.045 567.135 125.247 567.135 124.262V123.842H570.385V124.689H567.896C567.727 125.797 566.894 126.679 565.848 126.858V131.155L565.854 131.148Z" fill="#4F2B2B" stroke="#4F2B2B" stroke-width="0.3"/>
<path d="M562.965 121.02L562.399 121.619L563.052 122.311L563.618 121.712L562.965 121.02Z" fill="#4F2B2B" stroke="#4F2B2B" stroke-width="0.3"/>
<path d="M567.869 126.216L567.304 126.814L567.956 127.506L568.522 126.907L567.869 126.216Z" fill="#4F2B2B" stroke="#4F2B2B" stroke-width="0.3"/>
<path d="M563.701 125.51L562.396 126.893L562.961 127.492L564.266 126.109L563.701 125.51Z" fill="#4F2B2B" stroke="#4F2B2B" stroke-width="0.3"/>
<path d="M567.95 121.01L566.645 122.393L567.21 122.992L568.515 121.609L567.95 121.01Z" fill="#4F2B2B" stroke="#4F2B2B" stroke-width="0.3"/>
<path d="M411.147 82.2258C411.119 82.153 408.431 75.0156 407.973 67.7398C407.733 63.9235 408.468 60.2528 409.125 57.8494C409.837 55.2421 410.617 53.5123 410.627 53.4941L411.006 53.6871C411.006 53.6871 410.229 55.4096 409.527 57.9842C408.881 60.3548 408.159 63.9635 408.393 67.7143C408.847 74.9173 411.508 81.9928 411.535 82.062L411.143 82.2295L411.147 82.2258Z" fill="#4F2B2B"/>
<path d="M427.902 174.095C427.851 174.048 426.624 172.883 425.18 170.829C423.846 168.932 422.082 165.895 421.24 162.195C420.776 160.163 420.222 157.046 420.212 153.739C420.205 151.755 420.394 150.655 420.405 150.607L420.817 150.691C420.807 150.742 420.068 155.145 421.649 162.093C422.474 165.713 424.203 168.691 425.513 170.556C426.933 172.577 428.174 173.753 428.184 173.768L427.906 174.103L427.902 174.095Z" fill="#4F2B2B"/>
<path d="M431.946 174.366C431.894 174.337 430.639 173.613 429.01 171.992C427.511 170.499 425.41 167.932 423.901 164.181C422.395 160.43 422.014 156.876 421.959 154.556C421.9 152.036 422.193 150.427 422.203 150.361L422.616 150.449C422.616 150.449 422.32 152.087 422.378 154.564C422.433 156.843 422.811 160.332 424.286 164.013C425.761 167.688 427.817 170.2 429.281 171.664C430.87 173.252 432.128 173.977 432.138 173.984L431.939 174.377L431.946 174.366Z" fill="#4F2B2B"/>
<path d="M443.432 164.758C443.37 164.747 441.898 164.438 440.032 163.596C438.306 162.817 435.916 161.408 434.342 159.143C433.479 157.901 432.221 155.669 431.121 152.086C430.464 149.944 430.175 148.313 430.172 148.295L430.584 148.211C430.595 148.276 431.746 154.66 434.679 158.877C436.195 161.058 438.512 162.424 440.186 163.181C442.012 164.008 443.493 164.317 443.511 164.321L443.432 164.758Z" fill="#4F2B2B"/>
<path d="M435.741 166.92C435.696 166.88 434.593 165.926 433.269 164.218C432.045 162.645 430.406 160.114 429.522 156.997C427.848 151.08 427.655 149.157 427.648 149.077L428.068 149.033C428.068 149.051 428.271 151.011 429.928 156.87C430.787 159.91 432.393 162.387 433.589 163.927C434.888 165.602 435.999 166.564 436.009 166.574L435.744 166.92H435.741Z" fill="#4F2B2B"/>
<path d="M440.914 171.825C440.914 171.825 439.391 171.053 437.425 169.633C435.61 168.322 433.021 166.166 430.989 163.34C429.865 161.778 428.27 158.945 427.053 154.316C426.328 151.552 426.077 149.422 426.073 149.4L426.493 149.346C426.493 149.368 426.744 151.469 427.462 154.204C428.662 158.759 430.226 161.541 431.326 163.071C433.327 165.849 435.878 167.972 437.666 169.265C439.604 170.667 441.083 171.417 441.096 171.424L440.914 171.829V171.825Z" fill="#4F2B2B"/>
<path d="M435.363 170.402C435.321 170.381 434.297 169.867 432.829 168.45C431.485 167.15 429.498 164.805 427.669 161.025C425.843 157.249 425.049 154.289 424.702 152.471C424.327 150.487 424.386 149.409 424.389 149.365L424.808 149.394C424.808 149.394 424.75 150.476 425.121 152.41C425.462 154.198 426.245 157.107 428.043 160.825C429.838 164.536 431.784 166.834 433.097 168.108C434.52 169.488 435.531 169.998 435.541 170.005L435.363 170.41V170.402Z" fill="#4F2B2B"/>
<path d="M431.859 172.428C431.821 172.384 427.905 167.806 425.647 161.736C423.388 155.666 423.484 150.076 423.488 150.018L423.907 150.029C423.907 150.083 423.811 155.585 426.039 161.572C428.266 167.562 432.13 172.082 432.168 172.125L431.859 172.428Z" fill="#4F2B2B"/>
<path d="M438.941 165.624C438.907 165.605 438.099 165.128 436.927 164.069C435.847 163.093 434.245 161.418 432.739 158.974C431.23 156.527 430.347 153.8 429.869 151.942C429.35 149.932 429.188 148.476 429.185 148.461L429.604 148.41C429.611 148.468 430.264 154.138 433.093 158.73C434.568 161.126 436.136 162.765 437.191 163.719C438.336 164.753 439.14 165.23 439.147 165.234L438.945 165.624H438.941Z" fill="#4F2B2B"/>
<path d="M436.054 143.076L413.234 148.429C410.872 148.982 408.537 147.405 408.015 144.904L397.052 92.4838C396.529 89.982 398.018 87.5094 400.38 86.9559L423.2 81.6029C425.562 81.0493 427.896 82.6261 428.418 85.1279L439.382 137.548C439.904 140.049 438.415 142.522 436.054 143.076Z" fill="#F5C07A"/>
<path d="M416.091 78.7906L405.692 81.2305L406.584 85.4933L416.982 83.0535L416.091 78.7906Z" fill="#B4185C"/>
<path d="M429.841 144.531L419.442 146.971L420.334 151.234L430.732 148.794L429.841 144.531Z" fill="#B4185C"/>
<path d="M429.172 88.7204L397.806 96.0801L397.897 96.5174L429.263 89.1577L429.172 88.7204Z" fill="#4F2B2B"/>
<path d="M430.221 93.7477L398.854 101.102L398.945 101.539L430.312 94.185L430.221 93.7477Z" fill="#4F2B2B"/>
<path d="M431.269 98.7517L399.903 106.111L399.995 106.549L431.361 99.189L431.269 98.7517Z" fill="#4F2B2B"/>
<path d="M432.32 103.765L400.954 111.125L401.046 111.562L432.412 104.203L432.32 103.765Z" fill="#4F2B2B"/>
<path d="M433.367 108.783L402.001 116.143L402.092 116.58L433.458 109.22L433.367 108.783Z" fill="#4F2B2B"/>
<path d="M434.413 113.81L403.046 121.164L403.137 121.601L434.505 114.248L434.413 113.81Z" fill="#4F2B2B"/>
<path d="M435.465 118.806L404.099 126.166L404.19 126.603L435.556 119.244L435.465 118.806Z" fill="#4F2B2B"/>
<path d="M436.515 123.822L405.149 131.182L405.241 131.619L436.607 124.259L436.515 123.822Z" fill="#4F2B2B"/>
<path d="M437.559 128.847L406.191 136.201L406.283 136.638L437.65 129.285L437.559 128.847Z" fill="#4F2B2B"/>
<path d="M438.613 133.851L407.247 141.211L407.339 141.648L438.705 134.289L438.613 133.851Z" fill="#4F2B2B"/>
<path d="M388.061 83.4771L387.7 83.2477C387.7 83.2477 388.453 81.8894 389.023 79.4569C389.553 77.2101 390.037 73.5503 389.346 68.8673C388.652 64.1624 387.256 60.2769 386.204 57.848C385.066 55.2188 384.083 53.6858 384.076 53.6712L384.423 53.4199C384.423 53.4199 385.438 55.0003 386.589 57.6623C387.651 60.1167 389.064 64.0423 389.766 68.7981C390.467 73.5649 389.972 77.2938 389.429 79.5843C388.841 82.0751 388.092 83.4189 388.061 83.4735V83.4771Z" fill="#4F2B2B"/>
<path d="M373.642 166.011C373.583 166.011 373.528 165.985 373.487 165.938C373.408 165.847 373.415 165.705 373.501 165.621C373.514 165.61 374.735 164.408 376.12 162.362C377.396 160.475 379.077 157.468 379.843 153.83C381.311 146.849 380.497 142.457 380.486 142.413C380.462 142.293 380.538 142.173 380.651 142.151C380.765 142.126 380.875 142.206 380.899 142.326C380.909 142.373 381.115 143.466 381.143 145.454C381.167 147.279 381.033 150.232 380.256 153.928C379.476 157.642 377.76 160.712 376.457 162.631C375.048 164.714 373.838 165.901 373.789 165.949C373.748 165.989 373.697 166.007 373.648 166.007L373.642 166.011Z" fill="#4F2B2B"/>
<path d="M369.863 166.187C369.791 166.187 369.719 166.147 369.681 166.075C369.623 165.965 369.66 165.831 369.76 165.772C369.774 165.765 371.015 165.015 372.579 163.402C374.019 161.912 376.034 159.36 377.447 155.66C378.863 151.953 379.183 148.457 379.2 146.177C379.221 143.701 378.898 142.084 378.894 142.07C378.87 141.949 378.942 141.829 379.056 141.804C379.169 141.778 379.283 141.855 379.307 141.975C379.321 142.04 379.64 143.646 379.62 146.166C379.603 148.49 379.279 152.051 377.835 155.827C376.392 159.607 374.332 162.215 372.858 163.733C371.259 165.386 370.014 166.133 369.963 166.162C369.932 166.18 369.894 166.191 369.86 166.191L369.863 166.187Z" fill="#4F2B2B"/>
<path d="M352.822 155.125C352.722 155.125 352.633 155.052 352.616 154.943C352.595 154.823 352.671 154.706 352.784 154.681C352.798 154.681 354.283 154.375 356.112 153.556C357.79 152.802 360.11 151.451 361.633 149.273C364.579 145.067 365.752 138.687 365.765 138.625C365.786 138.505 365.896 138.425 366.013 138.447C366.126 138.469 366.202 138.585 366.181 138.709C366.181 138.724 365.882 140.359 365.219 142.496C364.607 144.47 363.548 147.296 361.973 149.543C360.392 151.804 357.996 153.199 356.267 153.974C354.4 154.812 352.925 155.111 352.863 155.125C352.849 155.125 352.836 155.129 352.825 155.129L352.822 155.125Z" fill="#4F2B2B"/>
<path d="M361.282 157.479C361.224 157.479 361.162 157.453 361.121 157.399C361.045 157.304 361.056 157.165 361.145 157.085C361.155 157.074 362.248 156.091 363.52 154.394C364.689 152.832 366.253 150.327 367.065 147.271C368.626 141.383 368.791 139.42 368.794 139.402C368.804 139.278 368.904 139.187 369.021 139.198C369.138 139.209 369.224 139.315 369.213 139.439C369.207 139.519 369.045 141.445 367.47 147.392C366.642 150.523 365.04 153.083 363.844 154.682C362.548 156.412 361.461 157.388 361.416 157.428C361.379 157.464 361.327 157.479 361.282 157.479Z" fill="#4F2B2B"/>
<path d="M363.469 165.195C363.394 165.195 363.325 165.155 363.284 165.082C363.229 164.972 363.263 164.838 363.366 164.779C363.38 164.772 364.748 163.956 366.529 162.252C368.172 160.679 370.507 158.006 372.322 154.201C374.14 150.384 375.055 147.089 375.505 144.991C375.99 142.719 376.048 141.335 376.048 141.321C376.052 141.197 376.152 141.099 376.268 141.106C376.385 141.109 376.475 141.215 376.471 141.339C376.471 141.397 376.413 142.77 375.921 145.075C375.467 147.198 374.543 150.537 372.7 154.401C370.854 158.272 368.475 160.992 366.804 162.591C364.989 164.328 363.631 165.133 363.573 165.169C363.542 165.187 363.504 165.198 363.469 165.198V165.195Z" fill="#4F2B2B"/>
<path d="M358.381 163.171C358.302 163.171 358.23 163.127 358.192 163.047C358.14 162.938 358.182 162.803 358.288 162.749C358.302 162.741 359.777 161.959 361.692 160.52C363.455 159.195 365.968 157.024 367.921 154.213C368.997 152.662 370.513 149.854 371.637 145.277C372.311 142.531 372.524 140.423 372.528 140.404C372.541 140.281 372.645 140.193 372.758 140.204C372.875 140.219 372.957 140.328 372.947 140.448C372.947 140.47 372.731 142.604 372.05 145.379C371.421 147.946 370.252 151.609 368.261 154.475C366.274 157.337 363.723 159.541 361.929 160.888C359.987 162.345 358.491 163.138 358.477 163.146C358.446 163.16 358.415 163.168 358.385 163.168L358.381 163.171Z" fill="#4F2B2B"/>
<path d="M357.614 161.348C357.542 161.348 357.473 161.308 357.432 161.239C357.373 161.133 357.404 160.995 357.504 160.933C357.525 160.922 359.477 159.67 361.705 157.794C363.75 156.072 366.453 153.461 367.701 150.788C370.104 145.65 370.434 140.104 370.437 140.045C370.444 139.921 370.544 139.83 370.66 139.834C370.777 139.841 370.867 139.947 370.86 140.071C370.86 140.125 370.523 145.763 368.082 150.984C367.051 153.188 364.995 155.598 361.966 158.144C359.718 160.034 357.745 161.301 357.724 161.312C357.69 161.334 357.652 161.345 357.614 161.345V161.348Z" fill="#4F2B2B"/>
<path d="M364.129 162.176C364.064 162.176 363.999 162.143 363.957 162.081C363.889 161.979 363.913 161.841 364.009 161.771C364.019 161.764 364.978 161.036 366.336 159.426C367.591 157.941 369.451 155.384 371.19 151.63C374.522 144.434 374.429 140.975 374.429 140.938C374.425 140.814 374.515 140.712 374.632 140.705C374.749 140.702 374.845 140.796 374.852 140.92C374.859 141.066 374.951 144.532 371.572 151.826C369.808 155.635 367.918 158.232 366.642 159.736C365.253 161.375 364.298 162.103 364.256 162.132C364.219 162.161 364.177 162.172 364.136 162.172L364.129 162.176Z" fill="#4F2B2B"/>
<path d="M369.863 164.478C369.815 164.478 369.763 164.46 369.725 164.423C369.639 164.343 369.629 164.201 369.708 164.11C369.746 164.063 373.534 159.474 375.662 153.444C377.79 147.417 377.605 141.919 377.601 141.864C377.598 141.74 377.687 141.638 377.804 141.631C377.921 141.627 378.017 141.722 378.024 141.846C378.024 141.9 378.217 147.487 376.058 153.601C373.902 159.711 370.062 164.358 370.024 164.405C369.983 164.456 369.925 164.482 369.866 164.482L369.863 164.478Z" fill="#4F2B2B"/>
<path d="M357.832 156.458C357.76 156.458 357.687 156.418 357.649 156.346C357.591 156.24 357.625 156.102 357.729 156.04C357.735 156.036 358.533 155.544 359.661 154.488C360.699 153.512 362.239 151.845 363.673 149.423C366.423 144.78 366.987 139.096 366.99 139.041C367 138.917 367.103 138.83 367.22 138.841C367.337 138.852 367.42 138.961 367.409 139.085C367.409 139.099 367.268 140.56 366.784 142.577C366.337 144.441 365.495 147.184 364.03 149.66C362.566 152.132 360.991 153.837 359.929 154.831C358.774 155.912 357.973 156.404 357.938 156.422C357.904 156.444 357.87 156.451 357.835 156.451L357.832 156.458Z" fill="#4F2B2B"/>
<path d="M397.668 130.413C407.204 120.312 407.204 103.934 397.668 93.8332C388.132 83.7319 372.671 83.7319 363.135 93.8332C353.599 103.934 353.599 120.312 363.135 130.413C372.671 140.514 388.132 140.514 397.668 130.413Z" fill="#EF2942"/>
<path d="M393.873 90.4625C388.83 88.7218 383.701 87.3235 378.489 86.2638L379.778 80.9727L395.163 85.1713L393.873 90.4625Z" fill="#B4185C"/>
<path d="M381.047 143.181L365.663 138.983L366.952 133.691C371.903 135.509 377.035 136.896 382.336 137.89L381.047 143.181Z" fill="#B4185C"/>
<path d="M404.1 118.36C404.083 118.433 404.066 118.506 404.049 118.575C404.031 118.648 404.014 118.717 403.994 118.79L356.703 105.881C356.72 105.808 356.738 105.735 356.755 105.666C356.772 105.593 356.789 105.52 356.81 105.451L404.1 118.364V118.36Z" fill="#4F2B2B"/>
<path d="M404.815 112.862C404.812 113.015 404.805 113.168 404.798 113.317L358.494 100.677C358.556 100.543 358.621 100.404 358.687 100.27L404.812 112.862H404.815Z" fill="#4F2B2B"/>
<path d="M404.437 107.524L361.454 95.7908C361.554 95.6634 361.65 95.5359 361.753 95.4121L404.348 107.04C404.379 107.2 404.406 107.364 404.434 107.524H404.437Z" fill="#4F2B2B"/>
<path d="M402.591 101.325L365.899 91.3074C366.047 91.1909 366.195 91.078 366.343 90.9688L402.357 100.801C402.436 100.976 402.516 101.15 402.591 101.325Z" fill="#4F2B2B"/>
<path d="M402.306 123.566C402.244 123.7 402.179 123.839 402.113 123.973L355.988 111.381C355.992 111.228 355.999 111.075 356.005 110.926L402.309 123.566H402.306Z" fill="#4F2B2B"/>
<path d="M399.346 128.452C399.246 128.579 399.15 128.707 399.047 128.83L356.452 117.203C356.421 117.043 356.394 116.883 356.366 116.719L399.349 128.452H399.346Z" fill="#4F2B2B"/>
<path d="M394.901 132.934C394.753 133.05 394.605 133.163 394.457 133.273L358.443 123.44C358.364 123.266 358.285 123.091 358.209 122.916L394.901 132.934Z" fill="#4F2B2B"/>
<path d="M384.547 123.563C390.51 121.136 393.487 114.047 391.196 107.73C388.904 101.412 382.211 98.2592 376.248 100.687C370.284 103.114 367.307 110.203 369.599 116.52C371.89 122.838 378.583 125.991 384.547 123.563Z" fill="#F5C07A"/>
<path d="M377.987 117.859C377.953 117.946 377.86 117.964 377.709 117.917C377.592 117.881 377.53 117.79 377.523 117.651C377.523 117.622 377.523 117.593 377.534 117.568C377.602 116.839 377.819 116.089 378.18 115.31C378.197 115.248 378.256 115.124 378.355 114.942C378.397 114.858 378.434 114.785 378.465 114.723C378.496 114.662 378.52 114.607 378.531 114.563C378.596 114.33 378.648 114.148 378.682 114.013C378.716 113.879 378.733 113.791 378.737 113.755C378.737 113.442 378.582 113.205 378.28 113.037C378.225 112.914 378.146 112.75 378.046 112.553C377.946 112.356 377.822 112.113 377.678 111.821C377.571 111.614 377.424 111.541 377.231 111.603C377.114 111.654 377.032 111.748 376.984 111.887L375.65 116.537C375.629 116.548 375.598 116.57 375.564 116.595C375.529 116.624 375.495 116.657 375.468 116.694C375.433 116.723 375.399 116.748 375.368 116.777C375.337 116.806 375.309 116.828 375.289 116.839C375.179 116.901 375.045 116.905 374.883 116.854C374.663 116.785 374.584 116.675 374.646 116.53C374.663 116.504 374.677 116.482 374.694 116.457C374.711 116.431 374.725 116.41 374.742 116.384C374.756 116.34 374.78 116.282 374.814 116.209C374.849 116.136 374.89 116.045 374.942 115.936C374.993 115.827 375.034 115.736 375.069 115.663C375.103 115.59 375.127 115.532 375.141 115.488L376.169 111.905C376.231 111.654 376.186 111.493 376.031 111.424L375.729 111.472C375.406 111.767 375.024 111.985 374.591 112.127C374.577 112.171 374.515 112.214 374.402 112.255C374.371 112.265 374.347 112.273 374.326 112.28C374.306 112.287 374.285 112.298 374.261 112.309C374.147 112.389 374.037 112.382 373.934 112.291C373.914 112.265 373.9 112.233 373.893 112.189C373.859 112.12 373.883 112.014 373.969 111.876C373.986 111.85 373.996 111.821 374.006 111.785C374.577 111.461 375.358 110.885 376.348 110.055C376.588 109.851 376.805 109.676 376.994 109.527C377.183 109.378 377.348 109.25 377.492 109.141C377.513 109.13 377.554 109.094 377.609 109.039C377.668 108.984 377.733 108.904 377.809 108.802C377.826 108.777 377.84 108.755 377.853 108.737C377.867 108.719 377.881 108.7 377.895 108.686C377.843 108.671 377.781 108.649 377.706 108.624C377.63 108.598 377.547 108.569 377.458 108.529C376.825 108.296 376.348 108.205 376.021 108.256C375.983 108.263 375.945 108.271 375.911 108.278C375.877 108.285 375.846 108.296 375.815 108.303C375.698 108.354 375.584 108.267 375.474 108.049C375.313 107.684 375.237 107.451 375.248 107.349C375.258 107.313 375.275 107.291 375.296 107.277C375.382 107.226 375.468 107.204 375.55 107.211L375.588 107.222C375.674 107.269 375.818 107.324 376.018 107.382C376.217 107.44 376.475 107.513 376.791 107.593C376.963 107.63 377.118 107.673 377.252 107.721C377.386 107.768 377.499 107.819 377.596 107.866C378.032 108.143 378.482 108.143 378.947 107.866C379.115 107.786 379.256 107.826 379.366 107.987C379.414 108.041 379.452 108.089 379.479 108.125C379.507 108.161 379.524 108.187 379.541 108.202C379.655 108.675 379.579 108.937 379.314 108.992C379.211 109.028 379.081 109.097 378.923 109.203C378.764 109.309 378.575 109.447 378.362 109.622C378.211 109.731 378.077 109.818 377.96 109.895C377.843 109.968 377.736 110.026 377.644 110.062C377.338 110.237 377.248 110.426 377.382 110.634C377.396 110.649 377.41 110.663 377.42 110.674C377.431 110.689 377.441 110.7 377.458 110.714C377.547 110.849 377.829 111.224 378.307 111.836C378.544 112.127 378.716 112.382 378.819 112.6C378.967 112.571 379.043 112.484 379.046 112.338C379.046 112.316 379.046 112.298 379.046 112.28C379.05 112.262 379.057 112.247 379.057 112.24C379.129 111.992 379.246 111.872 379.407 111.887C379.479 111.89 379.528 111.92 379.548 111.974C379.95 112.298 380.552 112.59 381.353 112.844L382.842 113.321C383.354 113.624 383.852 113.638 384.344 113.365C384.55 113.227 384.684 113.223 384.75 113.351C384.891 113.493 385.076 113.791 385.307 114.246C385.348 114.494 385.296 114.694 385.159 114.855C385.148 114.862 385.142 114.869 385.138 114.884C385.135 114.898 385.128 114.906 385.117 114.913C384.987 115.077 384.849 115.419 384.698 115.947L383.677 119.516C383.533 119.665 383.357 119.687 383.148 119.581C383.075 119.538 383.031 119.494 383.007 119.447C382.948 119.33 382.945 119.188 382.993 119.017C382.924 118.711 382.756 118.511 382.491 118.416L379.614 117.491C379.555 117.502 379.359 117.462 379.026 117.375C378.964 117.364 378.905 117.356 378.854 117.349C378.802 117.342 378.751 117.342 378.703 117.345C378.568 117.302 378.441 117.364 378.321 117.527C378.187 117.71 378.08 117.808 377.998 117.833L377.987 117.859ZM378.871 107.328C378.826 107.324 378.778 107.298 378.727 107.251C378.582 107.204 378.486 107.109 378.434 106.967C378.421 106.916 378.417 106.88 378.424 106.861C378.183 106.191 377.85 105.598 377.42 105.077C377.317 104.986 377.29 104.866 377.331 104.713C377.369 104.578 377.437 104.549 377.537 104.618C377.585 104.644 377.623 104.68 377.657 104.731C377.836 104.935 378.056 105.186 378.307 105.489C378.562 105.791 378.857 106.133 379.194 106.526C379.253 106.643 379.256 106.789 379.204 106.967C379.129 107.233 379.015 107.353 378.868 107.328H378.871ZM379.253 116.821L379.885 117.025C380.105 117.094 380.256 117.094 380.339 117.025C380.36 117.014 380.384 116.996 380.401 116.974C380.421 116.952 380.439 116.934 380.452 116.916L380.683 116.115C380.745 115.871 380.659 115.703 380.428 115.608L379.672 115.364C379.387 115.273 379.194 115.332 379.098 115.543C379.081 115.576 379.067 115.605 379.06 115.634C379.053 115.659 379.043 115.692 379.033 115.729C378.84 116.115 378.806 116.391 378.933 116.559C378.998 116.65 379.108 116.737 379.256 116.825L379.253 116.821ZM379.944 114.753C380.081 114.818 380.222 114.858 380.363 114.873C380.387 114.88 380.439 114.887 380.514 114.891C380.59 114.895 380.693 114.898 380.82 114.902C380.855 114.902 380.889 114.909 380.92 114.913C380.951 114.916 380.982 114.927 381.016 114.938C381.198 114.305 381.284 113.846 381.274 113.562C381.274 113.525 381.274 113.485 381.267 113.442C381.24 113.413 381.216 113.394 381.198 113.391C380.899 113.187 380.456 113.143 379.871 113.256L379.834 113.391C379.442 114.053 379.476 114.509 379.94 114.753H379.944ZM380.277 111.373C380.167 111.435 380.074 111.395 379.995 111.253C379.947 111.158 379.937 111.071 379.964 110.98C379.995 110.805 380.057 110.547 380.15 110.208C380.243 109.869 380.37 109.443 380.535 108.93C380.576 108.817 380.61 108.711 380.638 108.613C380.665 108.515 380.693 108.42 380.717 108.333C381.143 108.733 381.68 108.948 382.323 108.981L383.938 109.502C384.186 109.571 384.402 109.596 384.591 109.582C384.612 109.571 384.646 109.56 384.688 109.556C384.729 109.549 384.777 109.538 384.832 109.516C385.09 109.425 385.255 109.432 385.334 109.545C385.368 109.614 385.392 109.665 385.399 109.698C385.413 109.713 385.427 109.735 385.437 109.76C385.447 109.789 385.465 109.822 385.492 109.858C385.681 110.161 385.747 110.416 385.688 110.623C385.63 110.761 385.544 110.885 385.43 110.995C385.31 111.064 385.21 111.279 385.135 111.643C385.111 111.763 385.083 111.861 385.056 111.945C385.028 112.029 384.994 112.098 384.959 112.156C384.832 112.6 384.643 112.793 384.396 112.735C384.327 112.724 384.244 112.688 384.151 112.626C383.787 112.393 383.158 112.116 382.264 111.799C382.082 111.73 381.91 111.668 381.755 111.606C381.597 111.544 381.463 111.49 381.35 111.432C380.978 111.311 380.672 111.282 380.425 111.341C380.404 111.341 380.38 111.348 380.353 111.355C380.325 111.359 380.298 111.37 380.277 111.381V111.373ZM381.381 107.524C381.03 107.655 380.765 107.55 380.59 107.211L380.449 106.931C380.538 106.679 380.621 106.559 380.69 106.57C380.789 106.603 380.996 106.661 381.301 106.745C381.607 106.829 382.017 106.942 382.525 107.087C383.027 107.229 383.429 107.342 383.732 107.422C384.035 107.506 384.241 107.564 384.351 107.601C384.763 107.732 385.076 107.75 385.286 107.652C385.32 107.633 385.351 107.615 385.386 107.597C385.42 107.579 385.447 107.557 385.472 107.539C385.795 107.499 386.032 107.615 386.183 107.899C386.218 108.103 386.29 108.322 386.41 108.555C386.448 108.773 386.4 108.901 386.259 108.944C386.19 108.963 386.118 108.937 386.046 108.875L385.427 108.675C385.203 108.555 384.846 108.416 384.354 108.256C383.863 108.1 383.227 107.921 382.446 107.728C381.882 107.586 381.528 107.517 381.391 107.521L381.381 107.524ZM381.542 110.758C381.783 110.885 382.092 111.02 382.477 111.169C382.862 111.319 383.323 111.479 383.863 111.65C384.096 111.727 384.268 111.635 384.368 111.373L384.406 111.239C384.646 110.82 384.533 110.452 384.072 110.139C384.065 110.128 384.055 110.117 384.038 110.113L383.787 110.033C383.429 110.062 382.941 109.96 382.319 109.72C382.254 109.691 382.195 109.665 382.147 109.651C382.096 109.636 382.051 109.618 382.01 109.607C381.817 109.644 381.635 109.633 381.467 109.578C381.205 109.629 381.033 109.764 380.951 109.982C380.903 110.219 380.971 110.437 381.164 110.634L381.542 110.754V110.758ZM382.381 117.83C382.855 118.07 383.144 118.117 383.247 117.979C383.326 117.866 383.361 117.629 383.354 117.269C383.436 116.985 383.423 116.788 383.313 116.686C383.285 116.657 383.237 116.624 383.172 116.581C383.106 116.541 383.024 116.482 382.924 116.413C382.728 116.329 382.525 116.246 382.323 116.162C382.178 116.115 382.085 116.107 382.041 116.129C381.803 116.064 381.652 116.111 381.587 116.275L381.515 116.53C381.339 116.912 381.305 117.182 381.405 117.342C381.477 117.444 381.59 117.538 381.748 117.629L382.381 117.833V117.83ZM382.608 115.597C382.752 115.732 382.993 115.852 383.33 115.962C383.515 116.02 383.663 115.958 383.77 115.769C383.787 115.743 383.797 115.718 383.804 115.692C384.007 115.204 384.035 114.855 383.883 114.651C383.828 114.585 383.739 114.512 383.608 114.432C383.481 114.352 383.323 114.265 383.141 114.166L382.522 113.966C382.488 113.955 382.446 113.955 382.398 113.966C382.35 113.973 382.309 113.984 382.281 113.995L382.233 114.024C381.944 114.614 381.992 115.084 382.378 115.445C382.457 115.517 382.532 115.572 382.608 115.605V115.597Z" fill="#4F2B2B"/>
</g>
<path d="M176.474 214.732C164.736 221.405 169.828 233.184 173.841 238.24C197.92 264.021 279.186 258.336 274.671 247.34C270.157 236.345 278.876 231.184 282.572 227.625C286.319 224.016 289.344 211.7 282.572 199.188C275.8 186.676 288.968 180.989 284.453 164.685C279.939 148.382 264.513 143.073 249.087 131.698C236.747 122.599 217.358 131.698 209.207 137.385C183.322 133.442 179.359 165.822 180.613 182.504C182.093 192.225 188.213 208.059 176.474 214.732Z" fill="#4F2B2B"/>
<path d="M220.082 251.909C238.357 252.679 246.356 245.596 249.823 239.899L236.996 236.703L191.979 230.973L184.477 232.649C189.574 240.13 200.348 251.077 220.08 251.909H220.082Z" fill="#FFBE97"/>
<path d="M303.319 275.392C296.029 259.566 281.948 247.906 265.044 243.693L249.823 239.899C246.357 245.595 238.357 252.678 220.082 251.909C200.348 251.077 189.576 240.13 184.479 232.648L150.358 240.273C129.554 244.923 113.846 262.04 110.997 283.167L100.308 362.446C97.7679 381.279 111.239 396.689 130.242 396.689C141.649 396.689 152.693 392.686 161.452 385.378L169.32 384.679H278.462V343.508L293.229 384.679H349.119L303.321 275.394L303.319 275.392Z" fill="#DF8711"/>
<path d="M161.682 330.397C161.66 330.397 161.636 330.397 161.613 330.393C161.254 330.355 160.993 330.034 161.031 329.677C161.944 320.908 164.318 297.956 164.33 297.061C164.334 296.704 164.626 296.412 164.982 296.412H164.986C165.345 296.414 165.635 296.702 165.635 297.061C165.635 298.057 162.668 326.563 162.33 329.811C162.295 330.146 162.013 330.397 161.682 330.397Z" fill="#4F2B2B"/>
<path d="M278.161 373.558H278.155C277.794 373.554 277.506 373.261 277.508 372.9C277.516 372.129 278.253 295.724 278.253 294.748C278.253 294.388 278.545 294.096 278.906 294.096C279.267 294.096 279.559 294.388 279.559 294.748C279.559 295.73 278.843 369.761 278.813 372.912C278.809 373.27 278.517 373.558 278.161 373.558Z" fill="#4F2B2B"/>
<path d="M201.394 194.549L191.98 230.972L236.997 236.703V220.741L201.394 194.549Z" fill="#FFBE97"/>
<path d="M236.907 233.907V221.343L202.681 205.746C210.961 231.663 226.358 232.271 236.907 233.907Z" fill="#4F2B2B"/>
<path d="M328.529 384.654H207.287V394.107H328.529V384.654Z" fill="#3F97B1"/>
<path d="M287.093 337.104C287.093 337.104 283.976 344.857 280.482 350.323C277.177 355.495 275.037 358.626 276.644 360.653C279.649 364.445 287.612 357.492 287.612 357.492L287.091 337.102L287.093 337.104Z" fill="#FFBE97"/>
<path d="M330.599 334.123L322.732 325.969C318.09 321.158 311.076 319.482 304.759 321.673L298.804 323.739C290.485 326.626 284.971 334.549 285.175 343.353C285.35 350.952 286.257 359.772 285.843 364.193C284.999 373.201 282.24 383.448 285.001 384.507C288.828 385.974 293.931 378.574 296.465 370.41L320.186 366.774L330.601 334.123H330.599Z" fill="#FFBE97"/>
<path d="M298.326 370.726C296.946 370.726 295.613 370.218 294.568 369.271C293.29 368.112 292.622 366.461 292.736 364.74L293.892 347.299C293.915 346.94 294.227 346.68 294.586 346.692C294.945 346.715 295.217 347.027 295.193 347.386L294.038 364.827C293.951 366.148 294.462 367.414 295.444 368.303C296.426 369.192 297.739 369.577 299.042 369.362C299.397 369.299 299.732 369.543 299.791 369.898C299.851 370.253 299.61 370.59 299.255 370.649C298.946 370.701 298.634 370.726 298.324 370.726H298.326Z" fill="#4F2B2B"/>
<path d="M305.843 369.504C305.823 369.504 305.803 369.504 305.784 369.502C305.425 369.47 305.16 369.153 305.192 368.792L307.118 347.609C307.15 347.25 307.469 346.982 307.826 347.019C308.185 347.051 308.449 347.37 308.418 347.729L306.491 368.912C306.46 369.251 306.176 369.506 305.843 369.506V369.504Z" fill="#4F2B2B"/>
<path d="M419.251 394.105H296.28L327.618 302.473H450.589L419.251 394.105Z" fill="#3F97B1"/>
<path d="M379.632 337.92C388.119 337.92 394.998 335.89 394.998 333.385C394.998 330.88 388.119 328.85 379.632 328.85C371.145 328.85 364.266 330.88 364.266 333.385C364.266 335.89 371.145 337.92 379.632 337.92Z" fill="white"/>
<path d="M187.992 173.33C187.992 173.33 199.973 215.83 223.28 219.924C246.587 224.017 268.776 192.628 268.776 192.628C268.776 192.628 281.039 164.058 274.09 153.166C267.967 143.571 254.226 134.534 244.974 131.758C228.407 126.785 210.654 136.94 210.654 136.94C210.654 136.94 199.651 136.551 191.896 149.883C186.438 159.269 187.99 173.33 187.99 173.33H187.992Z" fill="#4F2B2B"/>
<path d="M203.013 169.942C191.156 187.676 196.945 214.065 215.443 223.347C235.232 233.279 255.968 228.665 265.78 209.721C275.132 191.665 272.839 170.159 255.633 158.655C238.427 147.153 214.867 152.205 203.011 169.94L203.013 169.942Z" fill="#FFBE97"/>
<path d="M225.004 199.288C225.284 197.914 223.44 196.378 220.885 195.858C218.33 195.338 216.031 196.029 215.752 197.403C215.472 198.777 217.316 200.312 219.871 200.833C222.426 201.353 224.724 200.661 225.004 199.288Z" fill="#FF9D6C"/>
<path d="M266.597 203.62C266.877 202.246 265.032 200.71 262.477 200.19C259.922 199.67 257.624 200.361 257.344 201.735C257.065 203.109 258.909 204.644 261.464 205.165C264.019 205.685 266.317 204.993 266.597 203.62Z" fill="#FF9D6C"/>
<path d="M202.719 181.74C202.306 188.318 202.2 194.042 196.689 193.697C191.176 193.352 185.512 187.389 185.925 180.811C186.337 174.233 191.14 169.181 196.653 169.526C202.166 169.872 203.133 175.162 202.721 181.74H202.719Z" fill="#FFBE97"/>
<path d="M196.812 183.751L191.662 182.177C190.833 181.923 190.365 181.045 190.619 180.216C190.873 179.387 191.751 178.919 192.581 179.173L197.73 180.747C198.56 181.001 199.027 181.879 198.773 182.708C198.519 183.537 197.641 184.005 196.812 183.751Z" fill="#4F2B2B"/>
<path d="M230.674 188.718C230.381 190.508 229.219 191.81 228.08 191.622C226.94 191.435 226.254 189.832 226.547 188.042C226.841 186.251 228.003 184.95 229.142 185.137C230.282 185.324 230.968 186.927 230.674 188.718Z" fill="#4F2B2B"/>
<path d="M258.655 193.763C258.361 195.553 257.2 196.855 256.06 196.667C254.92 196.48 254.234 194.877 254.528 193.086C254.822 191.296 255.983 189.995 257.123 190.182C258.263 190.369 258.949 191.972 258.655 193.763Z" fill="#4F2B2B"/>
<path d="M249.074 194.445L244.218 198.561L243.309 181.674L249.074 194.445Z" fill="#FFBE97"/>
<path d="M244.392 205.899C244.215 205.899 244.039 205.828 243.911 205.686C243.668 205.42 243.686 205.008 243.952 204.765L248.505 200.605L243.319 189.121C243.172 188.793 243.318 188.407 243.645 188.259C243.974 188.111 244.361 188.257 244.508 188.584L250.083 200.93L244.83 205.729C244.706 205.844 244.548 205.901 244.39 205.901L244.392 205.899Z" fill="#4F2B2B"/>
<path d="M241.835 215.432L241.818 215.437C241.726 215.465 232.414 218.06 226.649 210.019C226.44 209.726 226.506 209.318 226.799 209.11C227.094 208.898 227.499 208.967 227.709 209.26C232.942 216.56 241.368 214.211 241.453 214.186C241.8 214.085 242.161 214.284 242.262 214.631C242.361 214.972 242.17 215.327 241.836 215.434L241.835 215.432Z" fill="#4F2B2B"/>
<path d="M238.032 182.448L238.02 182.435C237.954 182.364 231.211 175.438 222.185 179.489C221.856 179.637 221.708 180.023 221.857 180.351C222.005 180.682 222.39 180.826 222.718 180.678C230.913 177 237.014 183.268 237.075 183.333C237.324 183.594 237.737 183.604 237.998 183.355C238.255 183.11 238.269 182.707 238.034 182.446L238.032 182.448Z" fill="#4F2B2B"/>
<path d="M251.055 186.506L251.067 186.493C251.133 186.423 257.876 179.496 266.902 183.548C267.231 183.696 267.379 184.082 267.23 184.409C267.082 184.741 266.697 184.885 266.369 184.737C258.174 181.059 252.073 187.327 252.012 187.391C251.763 187.653 251.35 187.663 251.089 187.414C250.832 187.168 250.818 186.766 251.053 186.505L251.055 186.506Z" fill="#4F2B2B"/>
<path d="M244.87 148.129C241.683 157.226 228.529 174.692 201.409 171.781C203.872 158.894 216.012 136.121 244.87 148.129Z" fill="#4F2B2B"/>
<path d="M238.636 140.754C239.178 150.378 246.978 170.805 273.843 175.522C275.047 162.456 269.692 137.211 238.636 140.754Z" fill="#4F2B2B"/>
<path d="M327.327 302.359L295.941 393.977L296.559 394.188L327.944 302.571L327.327 302.359Z" fill="white"/>
<path d="M226.919 379.943C230.235 391.07 228.359 400.327 227.561 401.757C209.261 405.046 195.498 401.36 192.119 394.124C206.823 395.042 221.776 381.937 226.919 379.943Z" fill="#8FC6D7"/>
<path d="M236.021 378.708L237.807 384.141C238.356 385.989 239.275 386.444 241.127 386.716C240.974 389.232 238.593 399.15 227.258 401.943C228.552 398.97 229.684 389.883 226.544 379.797L236.021 378.708Z" fill="#3F97B1"/>
<path d="M219.225 344.478C222.981 344.631 227.941 349.425 229.545 353.008L203.52 352.37C203.042 352.356 203.571 351.012 203.555 351.49C203.543 351.869 203.221 351.361 203.555 351.49C203.644 351.524 203.739 351.544 203.837 351.548L227.812 352.339C231.652 352.487 236.054 357.445 237.606 361.181C236.469 360.724 233.76 360.588 232.519 360.537L208.736 359.989C208.258 359.975 208.895 358.398 208.879 358.876C208.867 359.256 208.263 358.69 208.597 358.819C208.686 358.853 208.781 358.872 208.879 358.876L232.854 359.668C236.726 359.822 240.153 362.375 241.684 366.171L242.681 369.71C242.477 369.598 240.663 368.44 240.452 368.341C239.153 367.742 237.827 367.705 236.407 367.644L212.914 366.669C212.436 366.653 213.008 365.989 212.992 366.467C212.975 366.947 212.518 366.449 212.992 366.467L236.968 367.259C238.246 367.309 239.414 367.591 240.505 368.099C241.277 368.456 241.969 368.937 242.584 369.501C242.627 369.54 242.667 369.584 242.718 369.615C244.625 371.445 245.666 374.183 245.414 377.058L243.972 384.488C243.694 385.935 242.47 386.985 241 387.044C239.559 387.103 238.258 386.177 237.844 384.789L236.302 379.604C236.177 379.183 235.76 378.926 235.328 378.998L226.022 380.584C226.006 380.587 225.998 380.603 225.983 380.607C225.952 380.614 225.922 380.608 225.892 380.619C225.755 380.664 225.645 380.747 225.553 380.845C225.546 380.854 225.533 380.853 225.526 380.861C225.361 381.042 208.973 398.911 190.471 394.44L169.745 353.786L202.943 343.502L219.229 344.484L219.225 344.478Z" fill="#FFBE97"/>
<path d="M242.559 369.587C240.172 367.947 234.953 364.928 233.173 365.966L214.534 369.56" stroke="black" stroke-width="1.39325" stroke-linecap="round"/>
<path d="M237.568 361.281C235.181 359.641 232.535 356.661 230.754 357.7L215.698 360.95" stroke="black" stroke-width="1.39325" stroke-linecap="round"/>
<path d="M228.85 352.571C226.464 350.931 224.077 349.516 222.296 350.555L212.614 353.29" stroke="black" stroke-width="1.39325" stroke-linecap="round"/>
<path d="M195.373 385.384C191.187 363.492 176.727 353.995 170.02 351.983C150.57 343.801 109.899 333.07 102.817 355.605C93.9634 383.774 110.217 389.695 114.889 393.432C118.913 396.651 200.604 412.748 195.373 385.384Z" fill="#DF8711"/>
<path d="M241.585 133.865C250.668 139.885 246.598 144.324 240.414 145.034C237.658 148.132 234.215 152.311 230.938 142.344C226.69 129.426 222.301 139.448 216.471 141.933C211.808 143.92 207.171 143.586 205.473 143.242C202.13 149.213 194.333 144.963 192.136 147.445C189.73 150.163 175.961 147.021 175.561 136.562C175.24 128.194 185.188 122.532 190.202 120.747C189.707 116.925 191.837 114.141 192.964 113.226C199.582 107.675 209.84 114.059 214.141 117.944C220.007 109.139 227.305 113.589 230.22 116.915C232.356 115.818 237.887 115.096 242.922 120.985C247.957 126.874 244.129 132.026 241.585 133.865Z" fill="#4F2B2B"/>
</g>
</svg>
