<svg width="100" height="100" viewBox="0 0 100 100" fill="none" xmlns="http://www.w3.org/2000/svg">
<path d="M1.61279 1.6123V98.3865H69.3547V91.9349H37.0967V66.1284H75.8063V83.8704H82.258V37.0962H46.7741L30.6451 32.2575H24.1934C22.4192 32.2575 20.9676 30.8059 20.9676 29.0317C20.9676 28.1446 21.3225 27.3381 21.9192 26.7575C22.4999 26.1607 23.3063 25.8059 24.1934 25.8059H30.6451L46.7741 20.9671H82.258V1.6123H1.61279Z" fill="#FBE4C6"/>
<path d="M82.2577 83.8701L69.3545 98.3862V91.9346V83.8701H75.8061H82.2577Z" fill="#F5C07A"/>
<path d="M75.8064 66.1279V83.8699H69.3547V91.9344H37.0967V85.4828V66.1279H75.8064Z" fill="#77DFF9"/>
<path d="M98.3876 27.4194V30.6452C98.3876 34.2097 95.5005 37.0968 91.936 37.0968H85.4844V20.9678H91.936C95.5005 20.9678 98.3876 23.8549 98.3876 27.4194Z" fill="#3F97B1"/>
<path d="M85.4831 29.0323V37.0968H82.2573H46.7734V20.9678H82.2573H85.4831V29.0323Z" fill="#F5C07A"/>
<path d="M46.7736 20.9678V37.0968L30.6445 32.2581V25.8065L46.7736 20.9678Z" fill="#EF9C2E"/>
<path d="M30.6452 25.8057V32.2573H24.1936C22.4194 32.2573 20.9678 30.8057 20.9678 29.0315C20.9678 28.1444 21.3226 27.3379 21.9194 26.7573C22.5 26.1605 23.3065 25.8057 24.1936 25.8057H30.6452Z" fill="#8FC6D7"/>
<path d="M70.0807 100H0V0H83.871V20.9677H80.6452V3.22581H3.22581V96.7742H68.629L80.6452 83.2581V37.0968H83.871V84.4839L70.0807 100Z" fill="black"/>
<path d="M70.968 98.3868H67.7422V82.2578H82.2583V85.4836H70.968V98.3868Z" fill="black"/>
<path d="M30.6458 33.8708H24.1942C21.5329 33.8708 19.3555 31.6934 19.3555 29.0321C19.3555 26.3708 21.5329 24.1934 24.1942 24.1934H30.6458V27.4192H24.1942C23.3071 27.4192 22.5813 28.145 22.5813 29.0321C22.5813 29.9192 23.3071 30.645 24.1942 30.645H30.6458V33.8708Z" fill="black"/>
<path d="M91.9355 38.7099H46.5322L29.0322 33.4518V24.5969L46.7742 19.3389H91.9355C96.3871 19.3389 100 22.9518 100 27.4034V30.6292C100 35.0808 96.3871 38.6937 91.9355 38.6937V38.7099ZM47.0161 35.484H91.9355C94.5967 35.484 96.7742 33.3066 96.7742 30.6453V27.4195C96.7742 24.7582 94.5967 22.5808 91.9355 22.5808H47.0161L32.258 27.0002V31.0486L47.0161 35.4679V35.484Z" fill="black"/>
<path d="M48.3869 20.9678H45.1611V37.0968H48.3869V20.9678Z" fill="black"/>
<path d="M87.0969 20.9678H83.8711V37.0968H87.0969V20.9678Z" fill="black"/>
<path d="M85.4833 27.4189H72.5801V30.6448H85.4833V27.4189Z" fill="black"/>
<path d="M77.4194 6.45215H6.45166V9.67795H77.4194V6.45215Z" fill="black"/>
<path d="M77.4194 12.9033H6.45166V16.1291H77.4194V12.9033Z" fill="black"/>
<path d="M16.1291 19.3555H6.45166V22.5813H16.1291V19.3555Z" fill="black"/>
<path d="M16.1291 25.8066H6.45166V29.0324H16.1291V25.8066Z" fill="black"/>
<path d="M16.1291 32.2588H6.45166V35.4846H16.1291V32.2588Z" fill="black"/>
<path d="M69.3553 93.5479H35.4844V64.5156H77.4199V83.8705H74.1941V67.7414H38.7102V90.3221H69.3553V93.5479Z" fill="black"/>
<path d="M32.2581 90.3223H6.45166V93.5481H32.2581V90.3223Z" fill="black"/>
<path d="M32.2581 83.8711H6.45166V87.0969H32.2581V83.8711Z" fill="black"/>
<path d="M32.2581 77.4189H6.45166V80.6448H32.2581V77.4189Z" fill="black"/>
<path d="M32.2581 70.9678H6.45166V74.1936H32.2581V70.9678Z" fill="black"/>
<path d="M32.2581 64.5156H6.45166V67.7414H32.2581V64.5156Z" fill="black"/>
<path d="M70.9678 58.0645H6.45166V61.2903H70.9678V58.0645Z" fill="black"/>
<path d="M77.4192 58.0645H74.1934V61.2903H77.4192V58.0645Z" fill="black"/>
<path d="M77.4194 51.6123H6.45166V54.8381H77.4194V51.6123Z" fill="black"/>
<path d="M9.67747 45.1611H6.45166V48.3869H9.67747V45.1611Z" fill="black"/>
<path d="M77.4194 45.1611H12.9033V48.3869H77.4194V45.1611Z" fill="black"/>
<path d="M35.4839 38.71H6.45166V41.9358H35.4839V38.71Z" fill="black"/>
</svg>
