<svg width="470" height="250" viewBox="0 0 470 250" fill="none" xmlns="http://www.w3.org/2000/svg">
<mask id="mask0_926_10489" style="mask-type:alpha" maskUnits="userSpaceOnUse" x="0" y="0" width="470" height="250">
<path d="M0 20C0 8.9543 8.9543 0 20 0H450C461.046 0 470 8.9543 470 20V250H0V20Z" fill="#F7FDFE"/>
</mask>
<g mask="url(#mask0_926_10489)">
<path d="M250.051 211.157C250.051 211.157 248.726 195.268 248.305 187.848C247.251 169.207 236.412 147.889 193.322 134.519C195.097 143.822 194.555 156.789 177.428 158.749C151.116 161.759 132.573 137.529 132.556 137.508C123.965 140.69 110.981 146.809 99.7708 157.52C81.1001 175.362 84.1913 195.223 84.1913 204.499C84.1913 213.775 82.7647 232.922 91.5643 240.89C100.364 248.858 119.749 247.549 132.83 247.074C145.912 246.598 194.67 245.767 194.67 245.767H305.706V217.504C305.706 217.504 283.825 211.636 250.049 211.16L250.051 211.157Z" fill="#B06D6D"/>
<path d="M136.994 184.477L136.203 211.322L193.444 214.332V245.789" stroke="#4F2B2B" stroke-width="1.5" stroke-miterlimit="10" stroke-linecap="round"/>
<path d="M218.973 181.508C218.973 181.508 225.474 210.286 223.571 245.767" stroke="#4F2B2B" stroke-width="1.5" stroke-miterlimit="10" stroke-linecap="round"/>
<path d="M177.428 158.754C194.555 156.794 195.097 143.827 193.322 134.523C190.343 133.815 187.222 133.19 183.929 132.672L183.848 116.499L142.046 118.402V134.577C142.046 134.577 138.271 135.397 132.554 137.517C132.569 137.538 151.114 161.768 177.426 158.758L177.428 158.754Z" fill="#FFBE97"/>
<path d="M172.368 119.561C167.64 116.721 163.839 112.946 160.981 108.638C160.953 108.634 147.102 119.017 147.102 119.017C143.694 121.307 166.641 134.426 178.269 133.156C180.605 132.901 184.075 131.576 184.075 131.576L183.964 121.677C176.179 122.718 179.626 123.919 172.368 119.561Z" fill="#4F2B2B"/>
<path d="M193.443 218.851C193.443 218.851 204.365 214.152 210.549 212.409C216.734 210.664 226.986 209.749 236.059 217.284C246.407 225.875 249.198 231.996 249.122 234.928C249.043 237.86 247.774 238.774 246.109 238.062C246.109 238.062 246.675 240.356 243.343 240.356C240.012 240.356 240.063 237.6 231.739 231.258C229.475 229.532 227.636 228.573 225.831 227.921C221.6 226.392 218.326 228.048 218.326 228.048C218.326 228.048 220.956 228.365 225.236 232.33C229.518 236.293 230.23 236.452 230.706 237.641C231.182 238.829 227.587 242.545 221.728 238.87C216.66 235.691 214.366 235.757 210.401 237.264C206.435 238.772 201.133 242.637 193.443 239.307V218.853V218.851Z" fill="#FFBE97"/>
<path d="M318.159 162.318L288.499 250H194.647V240.599H282.237L308.719 162.318H318.159Z" fill="#2B6577"/>
<path d="M385.704 162.318L356.044 250H288.5L318.16 162.318H385.704Z" fill="#3F97B1"/>
<path d="M345.458 203.121C344.268 206.79 341.478 209.169 339.231 208.438C336.98 207.709 336.121 204.145 337.309 200.48C338.5 196.815 341.289 194.436 343.536 195.163C345.786 195.892 346.644 199.458 345.458 203.121Z" fill="#FBE4C6"/>
<path d="M197.396 90.7433C197.396 123.454 181.321 126.65 161.489 126.65C133.298 121.975 125.585 110.573 125.585 90.7433C125.585 70.9139 141.662 54.8369 161.489 54.8369C181.317 54.8369 197.396 70.9139 197.396 90.7433Z" fill="#FFBE97"/>
<path d="M140.605 102.847L136.428 102.638C135.756 102.605 135.238 102.033 135.271 101.36C135.304 100.688 135.877 100.169 136.549 100.203L140.726 100.411C141.399 100.444 141.917 101.017 141.884 101.689C141.85 102.362 141.278 102.88 140.605 102.847Z" fill="#4F2B2B"/>
<path d="M164.938 96.4054C164.357 96.4092 163.883 95.9424 163.877 95.3611L163.863 93.4565C163.859 92.8752 164.326 92.4007 164.908 92.3955C165.489 92.3917 165.963 92.8585 165.969 93.4398L165.983 95.3444C165.987 95.9257 165.52 96.4002 164.938 96.4054Z" fill="#4F2B2B"/>
<path d="M190.573 99.3634C189.992 99.3672 189.517 98.9004 189.512 98.3191L189.498 96.4145C189.494 95.8332 189.961 95.3587 190.542 95.3535C191.124 95.3497 191.598 95.8165 191.603 96.3978L191.617 98.3024C191.621 98.8837 191.154 99.3582 190.573 99.3634Z" fill="#4F2B2B"/>
<path d="M169.923 91.3824C169.677 91.4179 169.419 91.333 169.24 91.1341C167.175 88.8207 158.485 88.8767 155.345 90.7076C154.977 90.9206 154.51 90.7984 154.297 90.4316C154.084 90.066 154.206 89.5975 154.573 89.3834C158.04 87.361 167.637 87.0361 170.385 90.1124C170.667 90.4289 170.64 90.9124 170.323 91.1946C170.207 91.2985 170.066 91.3603 169.923 91.3811L169.923 91.3824Z" fill="#4F2B2B"/>
<path d="M182.365 93.608C182.168 93.5727 181.986 93.4614 181.865 93.2828C181.628 92.9317 181.72 92.4557 182.07 92.2182C185.539 89.8743 190.572 90.447 193.78 91.9686C194.163 92.15 194.325 92.6065 194.144 92.9894C193.963 93.3723 193.504 93.5379 193.123 93.353C190.202 91.9653 185.766 91.5684 182.93 93.4878C182.757 93.6043 182.555 93.641 182.365 93.6068L182.365 93.608Z" fill="#4F2B2B"/>
<path d="M161.402 101.593C161.639 100.119 159.61 98.5666 156.869 98.125C154.128 97.6834 151.713 98.5203 151.476 99.9943C151.238 101.468 153.268 103.021 156.009 103.463C158.75 103.904 161.165 103.067 161.402 101.593Z" fill="#FF9D6C"/>
<path d="M174.456 110.466C174.588 110.415 174.707 110.327 174.797 110.203C175.047 109.86 174.97 109.382 174.628 109.133C173.535 108.338 172.737 106.776 172.545 105.056C172.325 103.091 172.887 101.227 174.127 99.8103C174.406 99.4916 174.373 99.0075 174.054 98.7288C173.736 98.4495 173.251 98.4789 172.972 98.8016C171.446 100.546 170.753 102.828 171.021 105.227C171.264 107.394 172.274 109.318 173.727 110.373C173.945 110.533 174.222 110.559 174.457 110.467L174.456 110.466Z" fill="#4F2B2B"/>
<path d="M171.32 117.523C167.29 117.523 163.249 116.089 160.186 113.463C159.865 113.187 159.829 112.704 160.104 112.382C160.38 112.061 160.864 112.025 161.184 112.3C164.83 115.426 170.002 116.697 174.683 115.61C175.1 115.519 175.508 115.772 175.603 116.184C175.698 116.597 175.441 117.008 175.029 117.103C173.814 117.385 172.567 117.521 171.32 117.521V117.523Z" fill="#4F2B2B"/>
<path d="M133.794 100.014C134.064 95.8381 136.915 92.7322 140.163 93.0804C140.418 93.1083 140.659 93.19 140.905 93.2566C140.768 88.9062 140.764 85.6413 141.185 81.2178C139.374 83.1845 135.772 86.9395 132.026 86.989C130.963 87.004 123.417 76.0552 122.517 75.6576C122.371 77.1492 122.517 74.6115 122.517 76.1548C121.615 92.5693 131.449 121.136 137.627 119.018C139.244 118.111 140.144 111.595 141.083 107.98C140.475 108.173 139.842 108.279 139.184 108.208C135.936 107.86 133.523 104.191 133.794 100.014Z" fill="#4F2B2B"/>
<path d="M173.867 55.5705C173.867 55.5705 182.875 50.6597 194.585 56.0791C204.854 60.8309 203.368 71.6606 198.865 74.0312C198.865 74.0312 204.721 79.1115 197.514 83.5151C192.733 86.4367 179.046 87.4101 171.165 81.6516C171.165 81.6516 159.981 90.7404 147.218 82.6674C147.218 82.6674 142.038 87.4086 134.68 87.4661C127.323 87.5236 121 81.0597 122.745 75.7236C124.096 71.5955 127.474 69.1189 132.653 68.7798C132.653 68.7798 130.856 58.8387 143.914 53.3679C159.679 46.7632 171.391 51.1668 173.867 55.5689V55.5705Z" fill="#4F2B2B"/>
<path d="M246.108 238.061C246.108 238.061 244.532 227.601 231.094 220.466" stroke="#4F2B2B" stroke-width="1.5" stroke-miterlimit="10" stroke-linecap="round"/>
<path d="M218.325 228.047C218.325 228.047 216.318 227.51 212.025 228.643" stroke="#4F2B2B" stroke-width="1.5" stroke-miterlimit="10" stroke-linecap="round"/>
</g>
</svg>
