<svg width="470" height="250" viewBox="0 0 470 250" fill="none" xmlns="http://www.w3.org/2000/svg">
<path d="M190.783 125.61C190.783 125.61 208.68 128.066 211.698 129.399L257.669 128.979C257.669 128.979 272.548 125.821 276.548 125.961L235.21 168.773L190.784 125.61H190.783Z" fill="#F5C07A"/>
<path d="M246.838 108.167H221.917V130.179H246.838V108.167Z" fill="#FFBE97"/>
<path d="M231.605 115.95C236.783 116.669 244.025 111.723 246.827 111.523V114.648C245.428 116.087 234.824 118.252 231.605 115.95Z" fill="#4F2B2B"/>
<path d="M220.595 54.7519C220.595 54.7519 230.697 46.0477 248.202 52.3633C271.372 60.7235 265.95 89.9832 265.95 89.9832L206.545 101.627C206.545 101.627 193.481 77.1448 205.312 61.3199C213.272 50.6747 220.595 54.7519 220.595 54.7519Z" fill="#4F2B2B"/>
<path d="M206.135 102.147C205.921 102.147 205.718 102.016 205.599 101.795C205.464 101.544 192.338 76.6286 204.423 60.5526C211.768 50.7816 218.588 52.9404 220.187 53.636C222.02 52.2313 231.943 45.5386 248.201 51.375C271.795 59.842 266.54 89.6024 266.486 89.9014C266.428 90.2094 266.221 90.4422 265.964 90.4933L206.239 102.138C206.204 102.145 206.17 102.148 206.137 102.148L206.135 102.147ZM216.637 54.4788C213.892 54.4788 209.764 55.7407 205.37 61.5861C194.784 75.6671 204.82 97.2476 206.456 100.536L265.323 89.0586C265.946 85.079 268.893 60.4068 247.835 52.8503C230.771 46.7284 220.729 55.0451 220.63 55.1293C220.445 55.287 220.201 55.3141 219.995 55.2029C219.875 55.1368 218.616 54.4803 216.636 54.4803L216.637 54.4788Z" fill="#4F2B2B"/>
<path d="M266.118 89.3651C265.597 88.4137 264.877 87.6175 264.024 87.0442C263 86.356 261.787 85.9862 260.502 86.0568C260.091 86.079 259.698 86.1621 259.315 86.2701C259.257 86.2853 259.197 86.2964 259.141 86.3144C257.576 74.7696 249.521 63.6844 235.316 61.761C220.159 59.7101 206.446 71.2121 204.499 85.1775C204.469 85.3894 204.452 85.6012 204.426 85.8131C204.389 85.8131 204.355 85.8076 204.318 85.8076C200.691 85.8076 197.751 89.0729 197.751 93.1012C197.751 97.1295 200.691 100.395 204.318 100.395C205.09 100.395 205.828 100.24 206.517 99.9669C206.519 99.9697 206.519 99.9738 206.522 99.9766C207.153 101.436 207.911 102.838 208.785 104.164C208.812 104.206 208.838 104.247 208.866 104.287C209.148 104.71 209.441 105.127 209.746 105.534C209.751 105.541 209.757 105.549 209.762 105.556C210.396 106.398 211.08 107.204 211.812 107.968C211.86 108.018 211.908 108.065 211.954 108.114C212.265 108.432 212.583 108.744 212.91 109.048C212.979 109.113 213.049 109.178 213.12 109.243C213.469 109.562 213.827 109.872 214.195 110.173C214.226 110.198 214.255 110.225 214.286 110.25C214.699 110.584 215.123 110.907 215.557 111.217C215.592 111.242 215.628 111.264 215.661 111.289C216.04 111.556 216.426 111.812 216.821 112.06C216.935 112.131 217.049 112.2 217.164 112.271C217.498 112.474 217.837 112.669 218.183 112.859C218.305 112.927 218.427 112.995 218.551 113.06C218.959 113.276 219.376 113.482 219.799 113.678C219.85 113.701 219.9 113.727 219.951 113.751C220.428 113.967 220.916 114.171 221.412 114.362C221.536 114.409 221.662 114.452 221.786 114.497C222.159 114.634 222.534 114.765 222.917 114.886C223.084 114.939 223.251 114.99 223.42 115.04C223.786 115.148 224.158 115.251 224.534 115.343C224.693 115.384 224.85 115.426 225.009 115.464C225.541 115.587 226.076 115.701 226.622 115.795C240.03 118.1 253.739 110.574 257.997 99.0723C258.082 99.1208 258.172 99.1554 258.259 99.1997C259.13 99.6442 260.09 99.8976 261.113 99.8423C264.541 99.6553 267.182 96.4177 267.014 92.611C266.961 91.4215 266.64 90.3178 266.118 89.3664V89.3651Z" fill="#FFBE97"/>
<path d="M230.876 101.256C230.778 101.256 230.678 101.226 230.592 101.164C230.375 101.007 230.326 100.704 230.484 100.487C231.053 99.7006 231.252 98.4574 231.001 97.244C230.715 95.8592 229.92 94.7167 228.762 94.0272C228.532 93.8898 228.457 93.5929 228.594 93.3625C228.731 93.1321 229.028 93.057 229.259 93.1944C230.653 94.0247 231.61 95.3933 231.952 97.0486C232.26 98.5436 232.005 100.041 231.27 101.056C231.175 101.188 231.027 101.257 230.877 101.257L230.876 101.256Z" fill="#4F2B2B"/>
<path d="M240.423 92.2839C240.278 92.2839 240.133 92.2182 240.039 92.0936C239.876 91.8812 239.916 91.5774 240.128 91.4144C242.277 89.7651 245.531 89.7531 247.697 91.3811C247.911 91.5424 247.954 91.8462 247.792 92.0603C247.629 92.2762 247.326 92.3172 247.113 92.1559C245.283 90.7787 242.534 90.7932 240.717 92.1832C240.63 92.2515 240.526 92.2839 240.423 92.2839Z" fill="#4F2B2B"/>
<path d="M214.383 92.2839C214.237 92.2839 214.093 92.2182 213.997 92.0936C213.834 91.8812 213.874 91.5774 214.087 91.4144C216.236 89.7651 219.49 89.7531 221.655 91.3811C221.869 91.5424 221.912 91.8462 221.751 92.0603C221.59 92.2745 221.287 92.3172 221.072 92.1559C219.242 90.7787 216.493 90.7924 214.676 92.1832C214.588 92.2515 214.484 92.2839 214.382 92.2839H214.383Z" fill="#4F2B2B"/>
<path d="M231.154 109.805C230.933 109.805 230.714 109.798 230.495 109.782C230.227 109.764 230.026 109.532 230.044 109.265C230.063 108.998 230.297 108.793 230.561 108.815C233.016 108.991 235.543 108.096 237.35 106.443C237.547 106.261 237.853 106.275 238.034 106.472C238.215 106.669 238.201 106.975 238.005 107.156C236.17 108.839 233.65 109.805 231.154 109.805V109.805Z" fill="#4F2B2B"/>
<path d="M222.165 101.359C222.244 100.075 220.372 98.9152 217.985 98.7683C215.597 98.6214 213.598 99.5431 213.519 100.827C213.44 102.111 215.311 103.271 217.699 103.418C220.086 103.564 222.086 102.643 222.165 101.359Z" fill="#FF9D6C"/>
<path d="M253.3 101.359C253.379 100.075 251.507 98.9152 249.12 98.7683C246.733 98.6214 244.733 99.5432 244.654 100.827C244.575 102.111 246.447 103.271 248.834 103.418C251.222 103.564 253.221 102.643 253.3 101.359Z" fill="#FF9D6C"/>
<path d="M262.349 94.3531L258.749 94.5303C258.17 94.559 257.676 94.1122 257.648 93.5318C257.62 92.9527 258.066 92.4584 258.647 92.431L262.246 92.2538C262.826 92.225 263.32 92.6719 263.347 93.2523C263.376 93.8314 262.929 94.3256 262.349 94.3531Z" fill="#FF9D6C"/>
<path d="M205.057 94.3531L201.458 94.5303C200.879 94.559 200.384 94.1122 200.357 93.5318C200.328 92.9527 200.775 92.4584 201.355 92.431L204.955 92.2538C205.534 92.225 206.028 92.6719 206.056 93.2523C206.084 93.8314 205.638 94.3256 205.057 94.3531Z" fill="#FF9D6C"/>
<path d="M258.949 85.2213C223.753 78.439 204.522 85.6841 204.522 85.6841C204.522 85.6841 203.855 78.4561 209.47 72.9819C209.47 72.9819 228.511 66.8423 254.001 73.7631C254.001 73.7631 255.799 76.0471 257.386 78.9714C258.974 81.8958 258.949 85.2213 258.949 85.2213Z" fill="#FCEEED"/>
<path d="M222.137 61.9796C222.137 61.9796 229.155 75.0338 249.228 76.1571L245.999 72.7884C245.999 72.7884 254.702 77.8421 260.316 77.7011C260.316 77.7011 252.596 51.3119 222.136 61.9796H222.137Z" fill="#4F2B2B"/>
<path d="M260.084 78.5231C256.603 78.5231 252.161 76.7495 249.131 75.3141L249.689 75.8958C249.87 76.0855 249.918 76.3675 249.808 76.6059C249.698 76.8443 249.478 76.9904 249.191 76.9766C228.994 75.8471 221.645 62.5982 221.573 62.4646C221.406 62.1539 221.523 61.7669 221.832 61.5997C222.144 61.4324 222.531 61.5485 222.699 61.8593C222.766 61.9829 229.414 73.8963 247.614 75.58L245.537 73.4145C245.317 73.1836 245.3 72.8266 245.496 72.577C245.695 72.3261 246.047 72.2612 246.319 72.4185C246.406 72.4684 254.92 77.3735 260.3 77.245H260.316C260.662 77.245 260.946 77.5208 260.955 77.8678C260.964 78.221 260.684 78.5143 260.332 78.5231C260.25 78.5256 260.167 78.5268 260.084 78.5268V78.5231Z" fill="#4F2B2B"/>
<path d="M211.749 71.1812C211.581 71.1812 211.413 71.115 211.288 70.9852C211.044 70.7306 211.051 70.3262 211.306 70.0816C214.23 67.2683 218.946 64.3801 222.77 63.0596C223.104 62.9448 223.468 63.122 223.583 63.4553C223.697 63.7885 223.52 64.153 223.187 64.2678C219.577 65.5134 214.953 68.3467 212.192 71.0015C212.067 71.1213 211.909 71.18 211.749 71.18V71.1812Z" fill="#4F2B2B"/>
<path d="M241.437 142.602H227.752L225.857 129.968H243.333L241.437 142.602Z" fill="#DF8711"/>
<path d="M241.437 142.602H227.752L225.857 181.974H243.333L241.437 142.602Z" fill="#DF8711"/>
<path d="M241.436 143.24H227.751C227.435 143.24 227.165 143.008 227.119 142.696L225.223 130.063C225.196 129.878 225.251 129.692 225.372 129.551C225.493 129.41 225.67 129.329 225.856 129.329H243.332C243.518 129.329 243.696 129.41 243.817 129.551C243.938 129.692 243.991 129.879 243.964 130.063L242.069 142.696C242.023 143.01 241.753 143.24 241.438 143.24H241.436ZM228.301 141.962H240.886L242.588 130.607H226.599L228.301 141.962Z" fill="#DF8711"/>
<path d="M243.332 182.614H225.856C225.681 182.614 225.514 182.543 225.393 182.416C225.272 182.29 225.208 182.119 225.217 181.944L227.113 142.572C227.13 142.22 227.393 141.936 227.782 141.964C228.134 141.981 228.406 142.281 228.389 142.633L226.526 181.336H242.661L240.799 142.633C240.781 142.28 241.053 141.98 241.405 141.964C241.806 141.933 242.058 142.22 242.074 142.572L243.969 181.944C243.978 182.119 243.914 182.29 243.794 182.416C243.673 182.543 243.506 182.614 243.331 182.614H243.332Z" fill="#DF8711"/>
<path d="M299.877 126.974C291.226 125.738 283.421 125.732 276.927 126.242L235.497 169.109C235.382 169.229 235.227 169.289 235.073 169.289C234.918 169.289 234.777 169.234 234.663 169.124L189.918 126.072C183.964 125.753 177.058 125.894 169.512 126.974C146.597 130.247 132.247 188.474 132.105 189.06C132.042 189.305 126.185 212.902 135.537 226.11C139.19 231.267 144.729 234.213 152.006 234.864C160.115 235.592 166.339 233.798 170.483 229.532C177.588 222.219 176.227 209.958 176.212 209.834C176.173 209.511 176.404 209.216 176.729 209.179C177.023 209.133 177.345 209.37 177.384 209.695C177.448 210.22 178.832 222.628 171.336 230.35C169.303 232.444 166.799 233.959 163.874 234.93C163.874 234.939 163.879 234.945 163.879 234.954V247.837H305.311V234.867C302.473 233.892 300.04 232.394 298.054 230.349C290.557 222.626 291.942 210.219 292.005 209.693C292.043 209.369 292.354 209.137 292.66 209.178C292.985 209.216 293.217 209.51 293.177 209.833C293.163 209.957 291.801 222.219 298.906 229.531C303.049 233.796 309.266 235.592 317.382 234.863C324.658 234.212 330.199 231.266 333.851 226.109C343.203 212.901 337.345 189.304 337.286 189.065C337.141 188.471 322.792 130.246 299.875 126.971L299.877 126.974Z" fill="#F5C07A"/>
<path d="M300.043 125.805C291.251 124.548 283.314 124.552 276.715 125.078C276.659 125.075 276.605 125.081 276.551 125.092C264.631 126.063 257.131 128.74 257.015 128.783C256.709 128.895 256.551 129.233 256.663 129.54C256.775 129.845 257.112 130.005 257.42 129.892C257.529 129.852 264.274 127.445 275.133 126.4L235.057 167.865L191.738 126.188C204.061 127.069 211.85 129.85 211.966 129.892C212.272 130.003 212.611 129.847 212.724 129.54C212.836 129.233 212.678 128.894 212.372 128.783C212.248 128.738 203.632 125.657 190.17 124.907C190.163 124.907 190.155 124.906 190.148 124.907C184.084 124.57 177.04 124.706 169.344 125.806C145.638 129.192 131.542 186.354 130.955 188.779C130.703 189.766 124.902 213.136 134.568 226.792C138.43 232.246 144.261 235.359 151.897 236.044C153.107 236.153 154.275 236.207 155.405 236.207C158.062 236.207 160.488 235.897 162.695 235.3V248.433C162.695 248.76 162.96 249.024 163.285 249.024H305.899C306.226 249.024 306.489 248.759 306.489 248.433V235.239C308.749 235.873 311.24 236.207 313.978 236.207C315.106 236.207 316.276 236.153 317.485 236.044C325.121 235.36 330.953 232.248 334.814 226.792C344.481 213.136 338.68 189.766 338.43 188.785C337.842 186.353 323.746 129.191 300.039 125.805H300.043ZM333.852 226.112C330.199 231.269 324.66 234.215 317.383 234.866C309.268 235.595 303.051 233.8 298.907 229.534C291.803 222.223 293.163 209.96 293.178 209.836C293.217 209.513 292.986 209.218 292.661 209.181C292.356 209.141 292.045 209.372 292.006 209.696C291.942 210.222 290.558 222.629 298.056 230.352C300.043 232.397 302.474 233.895 305.312 234.87V247.84H163.878V234.957C163.878 234.949 163.873 234.942 163.873 234.934C166.798 233.962 169.301 232.446 171.335 230.353C178.832 222.631 177.447 210.223 177.383 209.698C177.344 209.373 177.022 209.136 176.728 209.182C176.403 209.221 176.171 209.514 176.211 209.837C176.225 209.961 177.586 222.223 170.482 229.535C166.338 233.8 160.114 235.595 152.005 234.867C144.728 234.216 139.188 231.27 135.536 226.113C126.184 212.905 132.041 189.308 132.103 189.064C132.246 188.476 146.595 130.251 169.511 126.977C177.057 125.897 183.963 125.756 189.917 126.076L234.662 169.127C234.777 169.237 234.924 169.292 235.072 169.292C235.219 169.292 235.381 169.232 235.496 169.112L276.926 126.245C283.42 125.736 291.225 125.741 299.876 126.977C322.792 130.251 337.141 188.477 337.286 189.071C337.346 189.308 343.203 212.907 333.851 226.114L333.852 226.112Z" fill="#F5C07A"/>
<path d="M331.923 204.434C331.807 204.434 331.689 204.403 331.584 204.337L322.861 198.894C322.562 198.708 322.471 198.313 322.658 198.014C322.846 197.714 323.243 197.624 323.538 197.81L332.261 203.253C332.56 203.439 332.652 203.834 332.464 204.133C332.343 204.328 332.135 204.434 331.923 204.434Z" fill="#4F2B2B"/>
<path d="M223.54 141.759L211.118 129.337L221.436 120.007L233.016 130.179L223.54 141.759Z" fill="#DF8711"/>
<path d="M245.648 141.759L258.071 129.337L247.754 120.007L236.174 130.179L245.648 141.759Z" fill="#DF8711"/>
<path d="M223.54 142.398C223.371 142.398 223.208 142.331 223.089 142.211L210.666 129.788C210.542 129.665 210.474 129.495 210.479 129.32C210.484 129.145 210.56 128.979 210.69 128.862L221.008 119.532C221.25 119.315 221.615 119.313 221.859 119.526L233.438 129.698C233.696 129.925 233.729 130.317 233.51 130.583L224.037 142.163C223.922 142.303 223.754 142.388 223.574 142.398C223.564 142.398 223.553 142.398 223.543 142.398H223.54ZM212.045 129.36L223.493 140.808L232.13 130.252L221.442 120.864L212.045 129.36Z" fill="#DF8711"/>
<path d="M245.648 142.398C245.638 142.398 245.627 142.398 245.617 142.398C245.436 142.388 245.267 142.304 245.153 142.164L235.679 130.584C235.461 130.318 235.493 129.926 235.751 129.699L247.331 119.526C247.575 119.312 247.941 119.314 248.181 119.533L258.5 128.862C258.63 128.981 258.706 129.146 258.711 129.321C258.714 129.497 258.647 129.665 258.523 129.789L246.101 142.211C245.981 142.332 245.817 142.398 245.649 142.398H245.648ZM237.058 130.253L245.695 140.808L257.143 129.36L247.747 120.864L237.058 130.253Z" fill="#DF8711"/>
<path d="M166 139.213L173.003 133.331C173.003 133.331 223.708 144.816 234.635 152.66V159.349L166 139.214V139.213Z" fill="#FCEEED"/>
<path d="M302.671 139.733L295.667 133.851C295.667 133.851 244.962 145.336 234.036 153.181V159.869L302.671 139.735V139.733Z" fill="#FCEEED"/>
<path d="M234.408 246.508L176.618 221.586L162.438 138.233L234.408 159.286V246.508Z" fill="#F9D59E"/>
<path d="M204.1 213.871L204.73 228.158L181.198 218.411L179.097 203.576L204.1 213.871Z" fill="#FCE9CC"/>
<path d="M234.408 246.508L292.197 221.586L306.376 138.233L234.408 159.286V246.508Z" fill="#F9D59E"/>
<path d="M298.983 146.531L292.239 186.166L240.307 202.671V163.709L298.983 146.531Z" fill="#FCE9CC"/>
<path d="M307.575 169.148L286.347 166.537C284.611 166.318 282.959 167.251 282.243 168.85C281.662 170.143 281.624 171.679 282.14 172.858C282.405 173.458 282.941 174.247 283.996 174.598C284.009 174.601 284.016 174.611 284.028 174.615L300.389 177.95C300.709 178.016 300.916 178.327 300.851 178.647C300.785 178.967 300.468 179.173 300.155 179.108L282.934 175.597C281.951 175.431 280.937 175.667 280.107 176.261C279.277 176.854 278.728 177.735 278.561 178.743C278.392 179.754 278.623 180.823 279.194 181.677C279.774 182.546 280.638 183.115 281.626 183.278C281.642 183.281 281.655 183.291 281.671 183.296C281.674 183.296 281.675 183.296 281.677 183.296L298.918 186.811C299.237 186.877 299.445 187.187 299.38 187.507C299.313 187.828 298.996 188.034 298.683 187.969L281.464 184.458C280.48 184.292 279.468 184.528 278.636 185.122C277.806 185.716 277.257 186.596 277.089 187.603C276.922 188.609 277.158 189.621 277.751 190.45C278.344 191.28 279.225 191.829 280.232 191.997L297.473 195.512C297.792 195.579 297.999 195.889 297.934 196.209C297.868 196.53 297.552 196.736 297.238 196.671L280.019 193.159C279.035 192.99 278.023 193.228 277.19 193.823C276.36 194.417 275.811 195.297 275.644 196.304C275.472 197.34 275.708 198.477 276.289 199.424C276.883 200.393 277.742 201.013 278.707 201.173L287.501 204.105C287.663 204.16 287.796 204.282 287.861 204.44L288.95 207.091C291.022 212.141 295.426 215.931 300.728 217.229C307.481 218.882 314.435 216.424 318.439 210.968C321.443 206.874 322.887 203.183 322.732 199.997C322.624 199.002 317.681 183.879 314.539 174.77C313.478 171.697 310.811 169.543 307.576 169.145L307.575 169.148Z" fill="#FFBE97"/>
<path d="M307.72 167.976L286.492 165.365C284.226 165.087 282.096 166.292 281.166 168.365C280.453 169.954 280.411 171.858 281.06 173.333C281.242 173.747 281.484 174.099 281.754 174.424C280.922 174.519 280.119 174.801 279.418 175.301C278.333 176.079 277.614 177.232 277.395 178.55C277.174 179.873 277.465 181.217 278.212 182.334C278.52 182.794 278.902 183.171 279.319 183.494C278.838 183.651 278.371 183.86 277.948 184.162C276.861 184.939 276.142 186.093 275.924 187.411C275.704 188.729 276.012 190.053 276.789 191.14C277.087 191.558 277.456 191.901 277.855 192.202C277.382 192.358 276.921 192.564 276.503 192.864C275.416 193.641 274.697 194.794 274.478 196.113C274.26 197.426 274.553 198.858 275.281 200.044C276.057 201.308 277.206 202.123 278.422 202.318L286.869 205.141L287.855 207.543C290.071 212.941 294.777 216.992 300.446 218.379C301.937 218.745 303.437 218.921 304.918 218.921C310.602 218.921 315.986 216.305 319.39 211.67C322.558 207.353 324.08 203.408 323.909 199.943C323.854 198.805 318.008 181.212 315.654 174.388C314.445 170.887 311.406 168.429 307.719 167.975L307.72 167.976ZM318.437 210.973C314.432 216.427 307.48 218.886 300.727 217.233C295.424 215.934 291.021 212.146 288.949 207.096L287.86 204.445C287.793 204.287 287.662 204.164 287.5 204.109L278.706 201.177C277.74 201.018 276.882 200.396 276.288 199.429C275.707 198.481 275.472 197.346 275.643 196.308C275.81 195.301 276.359 194.421 277.189 193.827C278.021 193.233 279.034 192.995 280.018 193.163L297.237 196.675C297.551 196.742 297.868 196.534 297.933 196.214C297.998 195.894 297.791 195.582 297.471 195.517L280.231 192.001C279.224 191.834 278.343 191.285 277.75 190.455C277.157 189.625 276.921 188.614 277.088 187.608C277.255 186.601 277.805 185.721 278.635 185.126C279.466 184.532 280.479 184.295 281.463 184.462L298.682 187.973C298.995 188.038 299.314 187.832 299.379 187.512C299.443 187.192 299.236 186.88 298.917 186.815L281.676 183.3C281.676 183.3 281.673 183.3 281.67 183.3C281.655 183.297 281.641 183.287 281.625 183.283C280.638 183.119 279.773 182.55 279.193 181.682C278.621 180.828 278.391 179.758 278.56 178.747C278.727 177.74 279.276 176.859 280.106 176.266C280.936 175.672 281.948 175.435 282.933 175.602L300.154 179.113C300.467 179.178 300.785 178.972 300.85 178.651C300.915 178.332 300.708 178.02 300.388 177.955L284.027 174.62C284.015 174.615 284.008 174.606 283.995 174.602C282.938 174.252 282.403 173.463 282.139 172.862C281.623 171.683 281.661 170.148 282.242 168.855C282.958 167.256 284.609 166.322 286.346 166.542L307.574 169.153C310.809 169.551 313.476 171.707 314.537 174.778C317.679 183.887 322.621 199.012 322.73 200.005C322.886 203.192 321.44 206.883 318.436 210.976L318.437 210.973Z" fill="#FFBE97"/>
<path d="M282.046 174.543L296.506 177.436C297.273 177.589 297.995 177.912 298.62 178.381L301.837 180.793" stroke="#4F2B2B" stroke-width="0.636754" stroke-linecap="round"/>
<path d="M277.879 192.251L292.34 195.144C293.106 195.297 293.829 195.62 294.454 196.089L297.671 198.501" stroke="#4F2B2B" stroke-width="0.636754" stroke-linecap="round"/>
<path d="M279.522 183.398L293.982 186.29C294.749 186.443 295.471 186.766 296.096 187.235L299.313 189.648" stroke="#4F2B2B" stroke-width="0.636754" stroke-linecap="round"/>
<path d="M159.09 169.148L180.319 166.537C182.055 166.318 183.706 167.251 184.422 168.85C185.003 170.143 185.041 171.679 184.525 172.858C184.26 173.458 183.725 174.247 182.669 174.598C182.656 174.601 182.649 174.611 182.638 174.615L166.276 177.95C165.956 178.016 165.749 178.327 165.814 178.647C165.88 178.967 166.197 179.173 166.511 179.108L183.731 175.597C184.714 175.431 185.728 175.667 186.558 176.261C187.388 176.854 187.937 177.735 188.104 178.743C188.273 179.754 188.042 180.823 187.472 181.677C186.891 182.546 186.027 183.115 185.039 183.278C185.023 183.281 185.01 183.291 184.994 183.296C184.992 183.296 184.99 183.296 184.988 183.296L167.747 186.811C167.428 186.877 167.221 187.187 167.286 187.507C167.352 187.828 167.669 188.034 167.982 187.969L185.201 184.458C186.185 184.292 187.197 184.528 188.029 185.122C188.859 185.716 189.409 186.596 189.576 187.603C189.743 188.609 189.507 189.621 188.914 190.45C188.322 191.28 187.44 191.829 186.433 191.997L169.193 195.512C168.873 195.579 168.666 195.889 168.731 196.209C168.797 196.53 169.113 196.736 169.427 196.671L186.647 193.159C187.63 192.99 188.642 193.228 189.475 193.823C190.305 194.417 190.854 195.297 191.021 196.304C191.193 197.34 190.958 198.477 190.376 199.424C189.782 200.393 188.923 201.013 187.958 201.173L179.164 204.105C179.002 204.16 178.869 204.282 178.805 204.44L177.715 207.091C175.643 212.141 171.24 215.931 165.938 217.229C159.184 218.882 152.231 216.424 148.227 210.968C145.222 206.874 143.778 203.183 143.933 199.997C144.042 199.002 148.984 183.879 152.126 174.77C153.185 171.697 155.854 169.543 159.089 169.145L159.09 169.148Z" fill="#FFBE97"/>
<path d="M151.011 174.389C148.657 181.214 142.811 198.806 142.756 199.944C142.585 203.409 144.107 207.355 147.276 211.672C150.679 216.306 156.064 218.922 161.748 218.922C163.228 218.922 164.728 218.746 166.22 218.381C171.887 216.994 176.594 212.942 178.811 207.544L179.797 205.143L188.243 202.32C189.46 202.125 190.608 201.31 191.384 200.046C192.112 198.86 192.405 197.427 192.187 196.114C191.967 194.796 191.248 193.643 190.163 192.865C189.744 192.567 189.285 192.361 188.811 192.204C189.209 191.902 189.577 191.558 189.877 191.141C190.653 190.054 190.961 188.73 190.742 187.412C190.522 186.094 189.803 184.941 188.717 184.163C188.294 183.861 187.827 183.651 187.347 183.495C187.764 183.172 188.147 182.795 188.454 182.336C189.199 181.219 189.49 179.875 189.27 178.552C189.05 177.234 188.332 176.08 187.247 175.303C186.547 174.802 185.743 174.52 184.912 174.425C185.181 174.102 185.425 173.749 185.606 173.334C186.255 171.859 186.212 169.954 185.5 168.367C184.57 166.294 182.439 165.088 180.174 165.366L158.946 167.977C155.26 168.43 152.219 170.888 151.01 174.39L151.011 174.389ZM143.936 200.002C144.044 199.007 148.987 183.884 152.128 174.775C153.188 171.702 155.856 169.548 159.092 169.149L180.32 166.538C182.056 166.319 183.707 167.252 184.424 168.851C185.004 170.144 185.043 171.681 184.526 172.859C184.261 173.459 183.726 174.248 182.67 174.599C182.658 174.602 182.65 174.612 182.639 174.616L166.277 177.951C165.958 178.017 165.75 178.328 165.815 178.648C165.881 178.968 166.198 179.174 166.512 179.109L183.732 175.598C184.716 175.432 185.729 175.668 186.559 176.262C187.389 176.855 187.938 177.737 188.106 178.744C188.274 179.755 188.043 180.824 187.473 181.678C186.892 182.547 186.029 183.116 185.04 183.279C185.024 183.282 185.012 183.292 184.995 183.297C184.993 183.297 184.992 183.297 184.989 183.297L167.749 186.812C167.429 186.878 167.222 187.189 167.287 187.508C167.353 187.829 167.67 188.035 167.983 187.97L185.202 184.459C186.186 184.293 187.198 184.529 188.031 185.123C188.861 185.717 189.41 186.597 189.577 187.604C189.744 188.61 189.509 189.622 188.916 190.451C188.323 191.281 187.442 191.83 186.434 191.998L169.194 195.514C168.874 195.58 168.667 195.891 168.732 196.21C168.798 196.531 169.114 196.737 169.429 196.672L186.648 193.16C187.631 192.991 188.644 193.23 189.476 193.824C190.306 194.418 190.855 195.298 191.022 196.305C191.195 197.341 190.959 198.478 190.377 199.425C189.783 200.394 188.924 201.014 187.96 201.174L179.165 204.106C179.003 204.161 178.871 204.283 178.806 204.441L177.716 207.093C175.644 212.142 171.241 215.932 165.939 217.23C159.185 218.884 152.232 216.425 148.228 210.969C145.224 206.875 143.78 203.185 143.934 199.998L143.936 200.002Z" fill="#FFBE97"/>
<path d="M184.731 174.543L170.27 177.436C169.504 177.589 168.781 177.912 168.156 178.381L164.939 180.793" stroke="#4F2B2B" stroke-width="0.636754" stroke-linecap="round"/>
<path d="M188.897 192.251L174.437 195.144C173.67 195.297 172.948 195.62 172.323 196.089L169.106 198.501" stroke="#4F2B2B" stroke-width="0.636754" stroke-linecap="round"/>
<path d="M187.255 183.398L172.795 186.29C172.028 186.443 171.306 186.766 170.68 187.235L167.464 189.648" stroke="#4F2B2B" stroke-width="0.636754" stroke-linecap="round"/>
<path d="M134.231 208.103C134.058 208.103 133.884 208.034 133.758 207.895C133.52 207.634 133.538 207.23 133.8 206.993L142.924 198.674C143.185 198.437 143.589 198.454 143.828 198.715C144.066 198.976 144.048 199.38 143.785 199.617L134.662 207.936C134.539 208.049 134.385 208.103 134.231 208.103Z" fill="#4F2B2B"/>
</svg>
