<svg width="470" height="251" viewBox="0 0 470 251" fill="none" xmlns="http://www.w3.org/2000/svg">
<path d="M286.178 55.978H238.748C236.322 55.978 234.356 57.9439 234.356 60.3695V74.8287C234.356 77.2544 236.323 79.2202 238.748 79.2202H248.031L257.175 84.7857V79.2202H286.176C288.602 79.2202 290.568 77.2544 290.568 74.8287V60.3706C290.568 57.9449 288.602 55.9791 286.176 55.9791L286.178 55.978Z" fill="#F5C07A"/>
<path d="M185.843 69.3535H236.276C238.855 69.3535 240.947 71.445 240.947 74.0239V100.785C240.947 103.364 238.855 105.455 236.276 105.455H226.405L216.682 111.374V105.455H185.842C183.263 105.455 181.172 103.364 181.172 100.785V74.0239C181.172 71.445 183.262 69.3535 185.842 69.3535H185.843Z" fill="#F29EC3"/>
<path d="M207.558 85.5536H189.036C188.62 85.5536 188.283 85.2169 188.283 84.8007V78.0908C188.283 77.6746 188.62 77.3379 189.036 77.3379H207.558C207.974 77.3379 208.311 77.6746 208.311 78.0908V84.8007C208.311 85.2169 207.974 85.5536 207.558 85.5536ZM189.789 84.0478H206.805V78.8437H189.789V84.0478Z" fill="#4F2B2B"/>
<path d="M192.257 97.0944C190.213 97.0944 188.552 95.4321 188.552 93.3891C188.552 91.3462 190.214 89.6826 192.257 89.6826C194.3 89.6826 195.962 91.345 195.962 93.3891C195.962 95.4333 194.3 97.0944 192.257 97.0944ZM192.257 91.1885C191.044 91.1885 190.058 92.175 190.058 93.3891C190.058 94.6033 191.044 95.5886 192.257 95.5886C193.47 95.5886 194.457 94.6021 194.457 93.3891C194.457 92.1761 193.47 91.1885 192.257 91.1885Z" fill="#4F2B2B"/>
<path d="M214.268 94.4101H198.968C198.552 94.4101 198.215 94.0734 198.215 93.6572C198.215 93.241 198.552 92.9043 198.968 92.9043H214.268C214.684 92.9043 215.021 93.241 215.021 93.6572C215.021 94.0734 214.684 94.4101 214.268 94.4101Z" fill="#4F2B2B"/>
<path d="M226.883 94.4101H218.83C218.414 94.4101 218.077 94.0734 218.077 93.6572C218.077 93.241 218.414 92.9043 218.83 92.9043H226.883C227.3 92.9043 227.636 93.241 227.636 93.6572C227.636 94.0734 227.3 94.4101 226.883 94.4101Z" fill="#4F2B2B"/>
<path d="M206.563 155.289L188.073 159.071L187.022 181.973H208.034L206.563 155.289Z" fill="#FFBE97"/>
<path d="M205.922 162.37C197.936 162.854 191.965 161.574 187.877 160.541L187.877 164.18C190.557 165.195 200.57 164.823 205.922 162.37Z" fill="#4F2B2B"/>
<path d="M246.532 190.435C245.73 181.243 239.183 173.575 230.232 171.34L207.193 168.156L200.89 174.62L187.653 168.156V168.156C178.879 168.156 170.156 169.489 161.783 172.11L157.031 173.597C148.956 176.401 143.29 183.7 142.577 192.218L138.931 235.796H250.492L246.532 190.436V190.435Z" fill="#DF8711"/>
<path d="M137.441 149.866C136.114 149.629 134.81 150.463 134.483 151.777L131.814 162.484C131.737 162.792 131.461 162.996 131.158 162.996C131.104 162.996 131.049 162.99 130.994 162.976C130.632 162.884 130.412 162.519 130.501 162.156L133.171 151.449C133.458 150.294 134.246 149.394 135.245 148.897C135.26 147.659 134.38 146.553 133.142 146.328C131.814 146.091 130.512 146.925 130.184 148.239L126.251 162.026C126.166 162.323 125.896 162.517 125.602 162.517C125.54 162.517 125.478 162.51 125.416 162.491C125.057 162.388 124.849 162.014 124.951 161.656L128.631 148.75C128.25 148.094 127.616 147.637 126.869 147.503C125.539 147.264 124.238 148.1 123.911 149.414L119.012 164.659C117.992 167.91 118.327 171.507 119.932 174.519L126.93 188.697L146.47 186.596C146.932 185.085 149.547 179.35 148.223 176.717C146.591 173.471 142.187 168.416 142.143 168.366C142.021 168.226 141.961 168.042 141.979 167.859L143.157 155.186C143.078 154.433 142.387 153.721 141.515 153.617C141.144 153.573 140.011 153.435 139.394 155.534L136.997 163.996C136.894 164.354 136.517 164.56 136.163 164.462C135.804 164.36 135.595 163.985 135.697 163.626L138.096 155.159C138.407 154.099 138.913 153.312 139.56 152.823C139.552 152.767 139.537 152.712 139.543 152.653C139.675 151.328 138.751 150.101 137.441 149.864V149.866Z" fill="#FFBE97"/>
<path d="M129.032 149.196C127.015 145.666 124.689 148.145 123.779 149.616L118.736 165.584L141.849 167.896L143.109 155.499C143.109 152.81 140.938 152.908 139.747 153.398C139.747 152.221 139.257 151.577 139.117 151.297C137.94 148.775 135.685 150.246 134.705 151.297C135.405 150.316 136.218 148.019 133.864 146.674C131.511 145.33 129.662 147.655 129.032 149.196Z" fill="#FFBE97"/>
<path d="M126.09 158.44L128.87 149.196" stroke="#4F2B2B" stroke-width="0.536613" stroke-linecap="round"/>
<path d="M131.133 163.062L135.174 150.456" stroke="#4F2B2B" stroke-width="0.536613" stroke-linecap="round"/>
<path d="M137.437 163.062L139.538 153.818" stroke="#4F2B2B" stroke-width="0.536613" stroke-linecap="round"/>
<path d="M127.058 188.687L125.753 216.989C125.014 227.562 134.748 237.436 145.276 236.197C157.048 234.812 163.328 222.899 157.831 212.4L148.117 186.208L127.058 188.687Z" fill="#DF8711"/>
<path d="M127.141 188.696L125.67 217.481C125.67 220.143 126.3 225.97 128.822 227.987C131.973 230.508 132.814 230.718 137.436 232.609" stroke="#4F2B2B" stroke-width="0.88224" stroke-linecap="round"/>
<path d="M231.565 234.08L234.346 199.202" stroke="#4F2B2B" stroke-width="0.88224" stroke-linecap="round"/>
<path d="M158.026 231.139L155.505 215.59" stroke="#4F2B2B" stroke-width="0.88224" stroke-linecap="round"/>
<path d="M274.838 151.74C274.754 151.729 274.67 151.721 274.586 151.718C273.768 151.683 272.983 152.049 272.492 152.71L266.868 164.678C266.818 164.785 266.74 164.878 266.643 164.944L259.99 169.559C259.928 169.602 259.86 169.635 259.788 169.655L248.229 172.984C246.085 173.832 244.614 175.076 244.036 176.561C243.544 177.821 243.692 179.253 244.473 180.818L247.009 186.041L263.805 186.594L274.785 168.485L276.732 155.194C276.74 155.142 276.753 155.089 276.774 155.04C277.054 154.346 276.997 153.577 276.617 152.929C276.239 152.282 275.589 151.848 274.838 151.74Z" fill="#FFBE97"/>
<path d="M264.081 186.607L265.247 211.9C266.143 220.943 259.391 235.765 248.801 235.307C236.959 234.796 230.315 222.76 235.02 211.881L246.904 185.964L264.081 186.606V186.607Z" fill="#DF8711"/>
<path d="M263.713 186.595L265.184 215.38C265.184 218.321 263.713 223.364 262.032 225.885C259.793 229.244 260.351 230.508 255.729 232.399" stroke="#4F2B2B" stroke-width="0.88224" stroke-linecap="round"/>
<path d="M170.408 149.986C161.086 132.518 178.04 126.586 178.04 126.586C178.04 126.586 179.308 124.251 179.567 123.875C180.993 121.801 182.849 119.998 185.052 118.761C192.884 114.362 203.873 117.746 210.781 122.47C214.315 124.886 216.873 129.142 213.463 132.959L170.409 149.988L170.408 149.986Z" fill="#4F2B2B"/>
<path d="M190.771 120.816C179.291 121.691 173.683 130.872 173.695 141.531C173.697 142.654 175.072 144.675 175.249 145.752C174.841 145.766 174.427 145.835 174.015 145.976C171.522 146.823 170.047 149.736 170.721 152.485C171.393 155.234 173.959 156.778 176.451 155.932C177.394 155.613 178.189 154.996 178.779 154.206C182.247 158.906 193.012 163.975 199.778 163.703C211.264 163.24 216.584 151.432 216.571 140.774C216.559 130.115 204.106 119.798 190.771 120.816Z" fill="#FFBE97"/>
<path d="M176.41 152.282L173.81 153.035C173.391 153.157 172.953 152.916 172.832 152.497C172.71 152.078 172.952 151.64 173.37 151.519L175.971 150.766C176.389 150.644 176.828 150.885 176.949 151.304C177.07 151.723 176.829 152.161 176.41 152.282Z" fill="#4F2B2B"/>
<path d="M187.95 153.934C189.722 153.632 191.027 152.615 190.864 151.663C190.702 150.71 189.134 150.183 187.362 150.485C185.59 150.786 184.285 151.804 184.447 152.756C184.61 153.709 186.178 154.236 187.95 153.934Z" fill="#FF9D6C"/>
<path d="M202.34 149.376C202.252 149.362 202.166 149.331 202.087 149.281C201.246 148.755 200.615 147.743 200.401 146.575C200.164 145.287 200.453 144.023 201.215 143.019C201.441 142.722 201.861 142.665 202.162 142.889C202.46 143.114 202.518 143.538 202.293 143.836C201.578 144.778 201.634 145.804 201.731 146.331C201.875 147.121 202.287 147.813 202.804 148.135C203.121 148.333 203.217 148.75 203.019 149.067C202.871 149.304 202.6 149.417 202.341 149.377L202.34 149.376Z" fill="#4F2B2B"/>
<path d="M194.069 147.752C193.711 147.868 193.326 147.672 193.211 147.314L192.831 146.141C192.714 145.783 192.911 145.398 193.269 145.283C193.627 145.167 194.012 145.363 194.127 145.722L194.507 146.894C194.624 147.252 194.427 147.637 194.069 147.752Z" fill="#4F2B2B"/>
<path d="M208.722 143.138C208.365 143.254 207.98 143.058 207.865 142.699L207.484 141.527C207.368 141.169 207.564 140.784 207.922 140.669C208.28 140.553 208.665 140.749 208.78 141.107L209.161 142.28C209.277 142.638 209.081 143.023 208.722 143.138Z" fill="#4F2B2B"/>
<path d="M188.055 142.775C188.005 142.767 187.958 142.754 187.91 142.735C187.563 142.597 187.393 142.204 187.531 141.858C188.378 139.723 191.021 138.515 193.198 139.263C193.55 139.385 193.736 139.771 193.614 140.123C193.491 140.476 193.114 140.657 192.754 140.54C191.265 140.018 189.371 140.888 188.787 142.356C188.669 142.656 188.36 142.823 188.055 142.775Z" fill="#4F2B2B"/>
<path d="M203.115 137.614C203.011 137.597 202.909 137.556 202.818 137.49C202.518 137.269 202.454 136.844 202.676 136.545C204.02 134.723 206.936 133.769 209.158 134.445C209.517 134.55 209.72 134.927 209.614 135.284C209.507 135.641 209.133 135.857 208.773 135.739C207.083 135.245 204.781 135.97 203.763 137.347C203.608 137.558 203.355 137.651 203.114 137.614L203.115 137.614Z" fill="#4F2B2B"/>
<path d="M200.498 156.108C200.421 156.179 200.359 156.27 200.32 156.375C200.192 156.725 200.373 157.114 200.723 157.241C202.851 158.016 205.808 157.199 207.287 155.408C207.527 155.122 207.488 154.695 207.202 154.457C206.916 154.218 206.484 154.245 206.25 154.542C205.115 155.889 202.795 156.556 201.186 155.972C200.941 155.882 200.678 155.943 200.498 156.108L200.498 156.108Z" fill="#4F2B2B"/>
<path d="M170.304 150.654C170.101 150.623 169.916 150.5 169.812 150.305C166.809 144.677 166.15 139.608 167.855 135.237C170.206 129.21 176.242 126.56 177.568 126.041C177.904 125.424 178.78 123.826 179.01 123.493C180.561 121.24 182.536 119.399 184.721 118.172C192.675 113.703 203.733 116.83 211.163 121.912C213.764 123.691 215.417 126.047 215.701 128.378C215.92 130.183 215.916 131.93 214.546 133.462C214.297 133.739 213.293 133.714 213.013 133.462C212.734 133.214 212.711 132.787 212.959 132.508C214.058 131.279 214.53 129.944 214.359 128.541C214.125 126.625 212.646 124.565 210.4 123.028C203.542 118.341 192.788 115.191 185.383 119.351C183.376 120.477 181.557 122.175 180.123 124.259C179.95 124.511 179.117 126.018 178.635 126.91C178.555 127.056 178.423 127.169 178.264 127.224C178.196 127.248 171.47 129.677 169.11 135.74C167.561 139.723 168.198 144.41 171.005 149.67C171.181 149.999 171.056 150.409 170.727 150.584C170.593 150.656 170.444 150.677 170.305 150.656L170.304 150.654Z" fill="#4F2B2B"/>
<path d="M213.131 132.832C214.538 134.665 195.798 126.335 195.911 128.643C196.023 130.951 195.126 133.367 193.29 134.77C191.454 136.174 188.662 136.342 186.858 134.898C187.208 136.485 186.723 138.231 185.604 139.41C184.485 140.589 182.765 141.163 181.163 140.895L180.062 144.789L176.573 146.236L175.983 145.93L175.152 145.8L170.829 140.414L173.836 131.617L182.35 121.621L192.799 120.61L205.627 121.02L215.17 129.324L213.131 132.832Z" fill="#4F2B2B"/>
<path d="M176.937 147.097C176.682 147.057 176.462 146.874 176.389 146.61C176.29 146.25 176.5 145.878 176.859 145.778C178.622 145.288 179.79 144.511 180.33 143.47C180.936 142.298 180.532 141.14 180.527 141.129C180.446 140.903 180.49 140.649 180.643 140.464C180.796 140.282 181.032 140.191 181.266 140.228C181.278 140.228 181.297 140.232 181.311 140.234C182.674 140.449 184.163 139.944 185.113 138.944C186.072 137.934 186.497 136.404 186.198 135.045C186.136 134.764 186.258 134.476 186.501 134.325C186.745 134.173 187.057 134.194 187.281 134.37C188.766 135.558 191.226 135.499 192.88 134.233C194.442 133.04 195.345 130.911 195.235 128.677C195.113 126.186 193.861 124.064 192.83 122.722C192.603 122.425 192.659 122.001 192.955 121.774C193.252 121.547 193.676 121.604 193.903 121.899C195.549 124.043 196.477 126.364 196.586 128.611C196.716 131.283 195.61 133.848 193.7 135.309C191.942 136.654 189.54 136.939 187.644 136.141C187.596 137.517 187.05 138.869 186.093 139.876C185.034 140.992 183.525 141.626 181.996 141.638C182.054 142.279 182.004 143.161 181.543 144.064C180.83 145.468 179.375 146.482 177.221 147.082C177.125 147.107 177.028 147.113 176.937 147.098L176.937 147.097Z" fill="#4F2B2B"/>
<path d="M209.057 129.484C208.932 129.465 208.811 129.41 208.71 129.319C205.648 126.562 201.705 124.841 197.603 124.475C197.239 124.452 196.956 124.113 196.99 123.741C197.023 123.369 197.352 123.095 197.724 123.128C202.111 123.525 206.338 125.363 209.615 128.314C209.893 128.563 209.915 128.992 209.665 129.267C209.506 129.444 209.276 129.517 209.057 129.483L209.057 129.484Z" fill="#4F2B2B"/>
<path d="M264.872 233.293H122.229L122.958 243.499C123.22 247.175 126.278 250.022 129.964 250.022H257.137C260.822 250.022 263.881 247.174 264.144 243.499L264.873 233.293H264.872Z" fill="#4F2B2B"/>
<path d="M267.925 236.276H119.177C116.87 236.276 115 234.406 115 232.099C115 229.793 116.87 227.923 119.177 227.923H267.924C270.23 227.923 272.1 229.793 272.1 232.099C272.1 234.406 270.23 236.276 267.924 236.276H267.925Z" fill="#307286"/>
<path d="M287.364 126.68L280.938 150.454L289.934 139.531L287.364 126.68Z" fill="#FADBE9"/>
<path d="M275.156 206.034L272.265 250.024H338.125C338.125 250.024 337.803 229.808 328.808 209.889L275.156 206.034Z" fill="#FADBE9"/>
<path d="M311.139 120.897L333.306 139.21L328.808 209.889L275.156 206.034L280.939 150.454C280.939 150.454 296.355 129.283 311.138 120.897H311.139Z" fill="#B4185C"/>
<path d="M308.466 152.557L318.972 171.467C313.509 177 302.499 188.402 302.163 189.747" stroke="#4F2B2B" stroke-width="0.88224" stroke-linecap="round"/>
<path d="M307.897 95.1103C311.082 92.8517 315.295 92.4505 319.128 93.1923C322.961 93.9342 326.506 95.7063 329.969 97.5104C333.431 99.3145 336.907 101.187 340.689 102.156C342.812 102.7 345.38 102.829 346.874 101.224C346.874 101.224 340.814 109.032 328.988 109.3C317.162 109.568 306.61 99.0899 306.61 99.0899" fill="#4F2B2B"/>
<path d="M328.534 109.982C316.756 109.982 306.567 100.001 306.134 99.5695C305.869 99.3066 305.867 98.8787 306.129 98.6137C306.393 98.3519 306.822 98.3497 307.085 98.6116C307.187 98.7116 317.32 108.63 328.544 108.63C328.687 108.63 328.829 108.629 328.973 108.625C336.124 108.462 341.137 105.429 343.881 103.189C342.718 103.26 341.532 103.072 340.52 102.811C336.863 101.874 333.478 100.106 330.205 98.3966L329.655 98.1102C325.994 96.204 322.665 94.567 318.999 93.8571C314.924 93.0663 311.018 93.7251 308.288 95.6633C307.984 95.8762 307.562 95.807 307.345 95.5026C307.129 95.1993 307.2 94.7767 307.505 94.5596C310.536 92.4117 314.819 91.6731 319.255 92.5288C323.095 93.2717 326.661 95.0258 330.278 96.9107L330.83 97.1981C334.035 98.8723 337.349 100.603 340.854 101.501C342.313 101.875 344.969 102.277 346.376 100.764C346.623 100.5 347.033 100.474 347.308 100.709C347.584 100.944 347.626 101.353 347.405 101.639C347.15 101.967 341.01 109.704 329.001 109.977C328.845 109.981 328.688 109.982 328.533 109.982H328.534Z" fill="#4F2B2B"/>
<path d="M301.47 106.476L283.217 114.864L290.192 130.044L308.446 121.656L301.47 106.476Z" fill="#FFBE97"/>
<path d="M284.862 73.6816C269.97 73.3793 261.184 84.9892 261.184 84.9892C261.184 84.9892 253.794 85.4991 254.275 91.2274C254.757 96.9557 262.156 96.5555 262.156 96.5555L284.862 73.6805V73.6816Z" fill="#4F2B2B"/>
<path d="M303.402 91.1894C306.895 101.792 299.385 115.282 287.815 119.893C276.244 124.503 264.994 118.488 261.5 107.885C258.007 97.2829 264.554 84.9495 276.125 80.3399C287.695 75.7303 299.907 80.5882 303.402 91.1906V91.1894Z" fill="#FFBE97"/>
<path d="M275.709 117.525C275.658 117.617 275.629 117.723 275.626 117.835C275.616 118.208 275.912 118.519 276.284 118.527C278.548 118.583 281.089 116.864 281.919 114.695C282.055 114.347 281.882 113.955 281.535 113.82C281.187 113.685 280.787 113.849 280.66 114.205C280.014 115.844 278.029 117.217 276.318 117.177C276.056 117.17 275.827 117.312 275.709 117.526L275.709 117.525Z" fill="#4F2B2B"/>
<path d="M280.234 107.594C281.848 106.544 282.699 104.99 282.135 104.122C281.57 103.254 279.804 103.401 278.191 104.451C276.577 105.501 275.726 107.055 276.29 107.923C276.855 108.791 278.621 108.643 280.234 107.594Z" fill="#FF9D6C"/>
<path d="M263.481 107.8L261.8 114.65C261.583 115.536 262.297 116.373 263.205 116.299L267.544 115.942L263.48 107.8H263.481Z" fill="#FFBE97"/>
<path d="M268.571 106.852C269.035 106.732 269.314 106.257 269.194 105.793L268.841 104.434C268.721 103.97 268.247 103.691 267.782 103.811C267.318 103.931 267.04 104.406 267.16 104.87L267.512 106.229C267.632 106.693 268.107 106.972 268.571 106.852Z" fill="#4F2B2B"/>
<path d="M265.44 101.937C265.194 101.937 264.958 101.804 264.837 101.57C264.667 101.237 264.798 100.83 265.13 100.66C266.719 99.8422 268.577 99.4857 270.355 99.6475C270.726 99.6815 271.001 100.01 270.966 100.383C270.932 100.755 270.616 101.03 270.23 100.994C268.703 100.851 267.112 101.162 265.748 101.861C265.649 101.912 265.544 101.937 265.44 101.937Z" fill="#4F2B2B"/>
<path d="M260.604 84.7051C260.604 84.7051 269.392 73.0951 284.282 73.3974C299.173 73.6997 307.66 80.9734 308.218 90.2461C308.775 99.5176 301.953 106.753 301.953 106.753C301.953 106.753 284.428 90.5156 284.282 91.415C284.136 92.3143 260.604 84.7061 260.604 84.7061V84.7051Z" fill="#4F2B2B"/>
<circle cx="295.859" cy="89.1038" r="11.346" fill="#4F2B2B"/>
<path d="M303.365 103.419C303.135 103.419 302.91 103.302 302.784 103.09C302.592 102.771 302.696 102.356 303.015 102.163C303.23 102.032 308.042 98.9862 307.519 90.2862C306.943 80.7124 297.808 74.3476 284.244 74.073C269.944 73.7643 261.205 85.0017 261.119 85.1135C261.002 85.2689 260.822 85.3657 260.628 85.3806C260.592 85.3827 257.041 85.6584 255.29 87.7041C254.547 88.5715 254.239 89.6135 254.345 90.8876C254.766 95.8879 260.915 95.6254 261.192 95.6169C261.546 95.5711 261.383 95.8758 261.402 96.2472C261.422 96.6198 261.001 100.01 260.628 100.029C257.837 100.189 253.421 96.0465 252.998 91.0004C252.86 89.3677 253.287 87.9606 254.266 86.8185C256.079 84.7058 259.237 84.1779 260.23 84.0608C261.59 82.41 270.164 72.7148 283.697 72.7148C283.887 72.7148 284.078 72.7159 284.271 72.7202C298.593 73.0107 308.248 79.8737 308.869 90.2042C309.443 99.777 303.946 103.183 303.712 103.323C303.603 103.389 303.483 103.42 303.365 103.42V103.419Z" fill="#4F2B2B"/>
<path d="M292.75 101.113C292.834 98.3507 290.662 96.0434 287.899 95.96C285.137 95.8765 282.829 98.0485 282.746 100.811C282.662 103.574 284.834 105.881 287.597 105.965C290.36 106.048 292.667 103.876 292.75 101.113Z" fill="#FFBE97"/>
<path d="M290.297 100.802L288.169 102.771C287.827 103.088 287.291 103.068 286.974 102.725C286.657 102.383 286.677 101.847 287.02 101.53L289.148 99.5611C289.49 99.244 290.026 99.2642 290.343 99.6069C290.66 99.9496 290.64 100.485 290.297 100.802Z" fill="#4F2B2B"/>
<path d="M260.845 86.2387C260.845 86.2387 263.715 95.3166 273.446 93.6115C283.176 91.9064 286.81 88.939 286.81 88.939L273.162 80.9883L260.846 86.2387H260.845Z" fill="#4F2B2B"/>
<path d="M272.224 94.7403C270.526 94.7403 268.936 94.487 267.454 93.9793C262.75 92.3668 260.977 88.7682 260.903 88.616C260.743 88.2797 260.883 87.8784 261.218 87.7156C261.555 87.5517 261.958 87.6943 262.121 88.0285C262.137 88.0615 263.753 91.295 267.925 92.7106C272.14 94.14 277.408 93.3034 283.589 90.22C283.925 90.0518 284.331 90.1913 284.496 90.5223C284.663 90.8565 284.527 91.2631 284.192 91.4291C279.774 93.6323 275.769 94.7392 272.224 94.7392V94.7403Z" fill="#4F2B2B"/>
<path d="M305.99 100.298C305.626 100.298 305.326 100.008 305.315 99.6412C305.153 94.179 303.362 88.689 300.273 84.1847C300.062 83.876 300.14 83.4556 300.447 83.2449C300.755 83.0341 301.176 83.114 301.387 83.4194C304.622 88.1366 306.497 93.8831 306.667 99.6029C306.678 99.9754 306.385 100.287 306.011 100.299H305.99V100.298Z" fill="#4F2B2B"/>
<path d="M311.139 120.898L304.392 113.188L287.364 126.68L289.935 139.531L311.139 120.898Z" fill="#FADBE9"/>
<path d="M311.139 120.897C311.139 120.897 321.42 120.254 325.918 122.824C330.416 125.395 357.968 159.858 354.35 175.432C351.673 186.953 326.4 202.178 326.4 202.178L304.394 190.933L323.268 166.517L306.643 139.852L311.14 120.897H311.139Z" fill="#B4185C"/>
<path d="M309.275 189.088L306.782 189.572C304.47 190.017 302.35 191.162 300.807 192.794C298.168 195.588 296.914 198.82 297.08 202.396C297.281 206.749 299.649 211.331 303.591 215.149L303.997 209.985L303.151 205.45C303.082 205.083 303.325 204.73 303.691 204.661C304.052 204.591 304.41 204.832 304.479 205.201L305.343 209.824C305.354 209.883 305.357 209.941 305.352 210.001L304.478 221.081C304.433 222.047 305.097 222.918 306.061 223.131C306.588 223.248 307.131 223.152 307.586 222.86C308.042 222.569 308.357 222.115 308.472 221.586L310.675 211.423L310.681 205.857C310.681 205.485 310.985 205.183 311.357 205.183H311.358C311.731 205.183 312.033 205.486 312.033 205.86L312.027 211.496C312.027 211.544 312.021 211.591 312.011 211.639L309.804 221.816C309.819 221.877 309.836 221.938 309.833 222.004C309.783 223.044 310.225 223.675 311.146 223.88C311.673 223.999 312.216 223.9 312.672 223.608C313.128 223.316 313.442 222.865 313.557 222.335L316.263 212.394L315.89 206.793C315.865 206.421 316.148 206.099 316.52 206.074C316.919 206.033 317.214 206.331 317.24 206.704L317.62 212.418C317.625 212.494 317.618 212.568 317.597 212.642L315.37 220.821C315.37 220.834 315.376 220.846 315.375 220.858C315.272 222.968 315.968 223.122 316.231 223.181C316.76 223.298 317.302 223.201 317.757 222.91C318.213 222.619 318.527 222.165 318.642 221.638L320.847 211.475L320.816 206.374C320.814 206 321.114 205.697 321.488 205.694C321.916 205.686 322.165 205.992 322.168 206.365L322.199 211.541C322.199 211.59 322.193 211.64 322.183 211.689L320.118 221.206C320.913 221.374 321.511 221.195 321.875 220.982C322.379 220.687 322.735 220.206 322.853 219.658L323.835 217.143C324.641 215.09 325.213 212.942 325.534 210.757L325.946 207.955C326.325 205.387 326.043 202.755 325.132 200.34C323.005 194.7 318.505 188.184 309.276 189.089L309.275 189.088Z" fill="#FFBE97"/>
<path d="M327.284 208.153L326.872 210.953C326.536 213.24 325.938 215.488 325.091 217.636L324.142 220.048C323.976 220.86 323.385 221.664 322.557 222.149C322.001 222.474 321.367 222.639 320.706 222.639C320.4 222.639 320.086 222.591 319.771 222.519C319.509 223.143 319.069 223.675 318.487 224.049C317.938 224.401 317.312 224.582 316.675 224.582C316.431 224.582 316.184 224.555 315.938 224.501C315.32 224.364 314.858 224.025 314.536 223.509C314.27 223.999 313.892 224.431 313.402 224.745C312.851 225.097 312.227 225.279 311.589 225.279C311.345 225.279 311.098 225.253 310.855 225.198C309.878 224.981 309.166 224.425 308.788 223.626C308.642 223.761 308.487 223.889 308.315 223.999C307.766 224.35 307.141 224.531 306.505 224.531C306.261 224.531 306.014 224.504 305.768 224.45C304.159 224.094 303.049 222.64 303.13 220.993L303.453 216.881C298.776 212.69 295.959 207.448 295.729 202.455C295.548 198.553 296.965 194.89 299.825 191.861C301.559 190.026 303.939 188.739 306.526 188.241L309.08 187.748C319.803 186.687 324.518 194.879 326.396 199.858C327.388 202.487 327.696 205.355 327.285 208.15L327.284 208.153Z" fill="#FFBE97"/>
<path d="M319.812 222.314L320.652 214.33" stroke="#4F2B2B" stroke-width="0.88224" stroke-linecap="round"/>
<path d="M314.35 223.574L314.77 215.59" stroke="#4F2B2B" stroke-width="0.88224" stroke-linecap="round"/>
<path d="M308.53 223.158L308.466 216.852" stroke="#4F2B2B" stroke-width="0.88224" stroke-linecap="round"/>
<path d="M303.488 219.376L303.869 216.077C304.131 213.808 304.002 211.512 303.488 209.287V209.287" stroke="#4F2B2B" stroke-width="0.88224" stroke-linecap="round"/>
<path d="M308.887 224.836C310.708 227.357 315.988 233.45 322.544 237.653" stroke="#4F2B2B" stroke-width="0.88224" stroke-linecap="round"/>
<path d="M244.692 72.4915C242.227 72.4915 240.222 70.4863 240.222 68.0212C240.222 65.5562 242.227 63.5488 244.692 63.5488C247.157 63.5488 249.163 65.5541 249.163 68.0212C249.163 70.4884 247.158 72.4915 244.692 72.4915ZM244.692 64.9006C242.972 64.9006 241.573 66.3002 241.573 68.0202C241.573 69.7402 242.972 71.1387 244.692 71.1387C246.412 71.1387 247.812 69.7391 247.812 68.0202C247.812 66.3012 246.412 64.9006 244.692 64.9006Z" fill="#4F2B2B"/>
<path d="M269.089 68.6965H255.355C254.981 68.6965 254.679 68.3942 254.679 68.0206C254.679 67.647 254.981 67.3447 255.355 67.3447H269.089C269.463 67.3447 269.765 67.647 269.765 68.0206C269.765 68.3942 269.463 68.6965 269.089 68.6965Z" fill="#4F2B2B"/>
<path d="M280.414 68.6965H273.185C272.811 68.6965 272.509 68.3942 272.509 68.0206C272.509 67.647 272.811 67.3447 273.185 67.3447H280.414C280.787 67.3447 281.09 67.647 281.09 68.0206C281.09 68.3942 280.787 68.6965 280.414 68.6965Z" fill="#4F2B2B"/>
<path d="M244.379 68.7239C244.213 68.7239 244.051 68.6632 243.926 68.5515L237.501 62.7689C237.224 62.5177 237.201 62.0919 237.451 61.8131C237.702 61.5374 238.128 61.5129 238.406 61.7631L244.265 67.0369L256.034 50.3096C256.249 50.0062 256.672 49.9317 256.975 50.1457C257.281 50.3607 257.354 50.7822 257.139 51.0887L244.931 68.4376C244.82 68.5951 244.647 68.6973 244.454 68.7197C244.429 68.7218 244.403 68.7239 244.379 68.7239Z" fill="#FF9D6C"/>
</svg>
