<svg width="100" height="100" viewBox="0 0 100 100" fill="none" xmlns="http://www.w3.org/2000/svg">
<path d="M91.9359 82.6934V90.3857C91.9359 94.6357 89.0488 98.078 85.4843 98.078H8.06489C4.50038 98.078 1.61328 94.6357 1.61328 90.3857V82.6934H91.9359Z" fill="#2B6577"/>
<path d="M1.61328 82.6931V51.9238H91.9359V82.6931H1.61328Z" fill="#E6E9ED"/>
<path d="M79.0317 75.0008C82.5948 75.0008 85.4833 71.5569 85.4833 67.3085C85.4833 63.0602 82.5948 59.6162 79.0317 59.6162C75.4686 59.6162 72.5801 63.0602 72.5801 67.3085C72.5801 71.5569 75.4686 75.0008 79.0317 75.0008Z" fill="#FBE4C6"/>
<path d="M91.936 32.6934H85.4844V51.9241H91.936V32.6934Z" fill="#3A8AA2"/>
<path d="M91.9359 9.61614V21.1546C91.9359 19.0392 90.4843 17.3084 88.7101 17.3084H85.4843V11.5392C85.4843 10.4815 84.7584 9.61614 83.8713 9.61614H9.6778C8.7907 9.61614 8.06489 10.4815 8.06489 11.5392V51.9238H1.61328V9.61614C1.61328 5.36614 4.50038 1.92383 8.06489 1.92383H85.4843C89.0488 1.92383 91.9359 5.36614 91.9359 9.61614Z" fill="#3A8AA2"/>
<path d="M91.9349 21.1547V25.0009H72.5801L75.8059 17.3086H88.7091C90.4833 17.3086 91.9349 19.0394 91.9349 21.1547Z" fill="#F2AE54"/>
<path d="M46.7741 32.6931H85.4838V51.9239H8.06445V11.5393C8.06445 10.4816 8.79026 9.61621 9.67736 9.61621H83.8709C84.758 9.61621 85.4838 10.4816 85.4838 11.5393V17.3085H75.8064L72.5806 25.0008H43.5483V17.3085H14.5161V40.3854H43.5483V32.6931H46.7741Z" fill="#77DFF9"/>
<path d="M43.5479 32.6932V40.3855H14.5156V17.3086H43.5479V25.0009H37.0963C36.2092 25.0009 35.4027 25.424 34.8221 26.1355C34.2253 26.8278 33.8705 27.7894 33.8705 28.8471C33.8705 30.9624 35.3221 32.6932 37.0963 32.6932H43.5479Z" fill="#8FC6D7"/>
<path d="M98.3883 26.9241V30.7702C98.3883 31.8279 97.6625 32.6933 96.7754 32.6933H46.7754V25.001H96.7754C97.6625 25.001 98.3883 25.8664 98.3883 26.9241Z" fill="#FBE4C6"/>
<path d="M46.7739 25.001V32.6933H43.5481H40.3223V25.001H43.5481H46.7739Z" fill="#D6D6D6"/>
<path d="M40.3227 25.001V32.6933H37.0969C35.3227 32.6933 33.8711 30.9625 33.8711 28.8471C33.8711 27.7894 34.2259 26.8279 34.8227 26.1356C35.4033 25.424 36.2098 25.001 37.0969 25.001H40.3227Z" fill="#FBE4C6"/>
<path d="M85.4839 100H8.06452C3.6129 100 0 95.6923 0 90.3846V9.61538C0 4.30769 3.6129 0 8.06452 0H85.4839C89.9355 0 93.5484 4.30769 93.5484 9.61538V21.1538H90.3226V9.61538C90.3226 6.44231 88.1452 3.84615 85.4839 3.84615H8.06452C5.40323 3.84615 3.22581 6.44231 3.22581 9.61538V90.3846C3.22581 93.5577 5.40323 96.1538 8.06452 96.1538H85.4839C88.1452 96.1538 90.3226 93.5577 90.3226 90.3846V32.6923H93.5484V90.3846C93.5484 95.6923 89.9355 100 85.4839 100Z" fill="black"/>
<path d="M9.67698 51.9232H6.45117V11.5385C6.45117 9.42315 7.90278 7.69238 9.67698 7.69238H83.8705C85.6447 7.69238 87.0963 9.42315 87.0963 11.5385V17.3078H83.8705V11.5385H9.67698V51.9232Z" fill="black"/>
<path d="M91.9359 50H1.61328V53.8462H91.9359V50Z" fill="black"/>
<path d="M35.4836 57.6924H32.2578V61.5385H35.4836V57.6924Z" fill="black"/>
<path d="M35.4836 65.3848H32.2578V69.2309H35.4836V65.3848Z" fill="black"/>
<path d="M41.9348 57.6924H38.709V61.5385H41.9348V57.6924Z" fill="black"/>
<path d="M41.9348 65.3848H38.709V69.2309H41.9348V65.3848Z" fill="black"/>
<path d="M48.3879 57.6924H45.1621V61.5385H48.3879V57.6924Z" fill="black"/>
<path d="M48.3879 65.3848H45.1621V69.2309H48.3879V65.3848Z" fill="black"/>
<path d="M54.8391 57.6924H51.6133V61.5385H54.8391V57.6924Z" fill="black"/>
<path d="M54.8391 65.3848H51.6133V69.2309H54.8391V65.3848Z" fill="black"/>
<path d="M61.2903 57.6924H58.0645V61.5385H61.2903V57.6924Z" fill="black"/>
<path d="M61.2903 65.3848H58.0645V69.2309H61.2903V65.3848Z" fill="black"/>
<path d="M67.7414 57.6924H64.5156V61.5385H67.7414V57.6924Z" fill="black"/>
<path d="M67.7414 65.3848H64.5156V69.2309H67.7414V65.3848Z" fill="black"/>
<path d="M35.4836 73.0771H32.2578V76.9233H35.4836V73.0771Z" fill="black"/>
<path d="M41.9348 73.0771H38.709V76.9233H41.9348V73.0771Z" fill="black"/>
<path d="M48.3879 73.0771H45.1621V76.9233H48.3879V73.0771Z" fill="black"/>
<path d="M54.8391 73.0771H51.6133V76.9233H54.8391V73.0771Z" fill="black"/>
<path d="M9.67698 57.6924H6.45117V61.5385H9.67698V57.6924Z" fill="black"/>
<path d="M9.67698 65.3848H6.45117V69.2309H9.67698V65.3848Z" fill="black"/>
<path d="M16.1282 57.6924H12.9023V61.5385H16.1282V57.6924Z" fill="black"/>
<path d="M16.1282 65.3848H12.9023V69.2309H16.1282V65.3848Z" fill="black"/>
<path d="M22.5813 57.6924H19.3555V61.5385H22.5813V57.6924Z" fill="black"/>
<path d="M22.5813 65.3848H19.3555V69.2309H22.5813V65.3848Z" fill="black"/>
<path d="M29.0324 57.6924H25.8066V61.5385H29.0324V57.6924Z" fill="black"/>
<path d="M29.0324 65.3848H25.8066V69.2309H29.0324V65.3848Z" fill="black"/>
<path d="M9.67698 73.0771H6.45117V76.9233H9.67698V73.0771Z" fill="black"/>
<path d="M16.1282 73.0771H12.9023V76.9233H16.1282V73.0771Z" fill="black"/>
<path d="M22.5813 73.0771H19.3555V76.9233H22.5813V73.0771Z" fill="black"/>
<path d="M29.0324 73.0771H25.8066V76.9233H29.0324V73.0771Z" fill="black"/>
<path d="M61.2903 73.0771H58.0645V76.9233H61.2903V73.0771Z" fill="black"/>
<path d="M67.7414 73.0771H64.5156V76.9233H67.7414V73.0771Z" fill="black"/>
<path d="M91.9359 80.7695H1.61328V84.6157H91.9359V80.7695Z" fill="black"/>
<path d="M12.9035 88.4619H9.67773V92.3081H12.9035V88.4619Z" fill="black"/>
<path d="M19.3547 88.4619H16.1289V92.3081H19.3547V88.4619Z" fill="black"/>
<path d="M25.8059 88.4619H22.5801V92.3081H25.8059V88.4619Z" fill="black"/>
<path d="M79.0313 76.9232C74.5797 76.9232 70.9668 72.6155 70.9668 67.3078C70.9668 62.0001 74.5797 57.6924 79.0313 57.6924C83.4829 57.6924 87.0958 62.0001 87.0958 67.3078C87.0958 72.6155 83.4829 76.9232 79.0313 76.9232ZM79.0313 61.5385C76.37 61.5385 74.1926 64.1347 74.1926 67.3078C74.1926 70.4808 76.37 73.077 79.0313 73.077C81.6926 73.077 83.87 70.4808 83.87 67.3078C83.87 64.1347 81.6926 61.5385 79.0313 61.5385Z" fill="black"/>
<path d="M96.7739 34.6156H37.0965C34.4352 34.6156 32.2578 32.0195 32.2578 28.8464C32.2578 25.6733 34.4352 23.0771 37.0965 23.0771H96.7739C98.5481 23.0771 99.9997 24.8079 99.9997 26.9233V30.7695C99.9997 32.8848 98.5481 34.6156 96.7739 34.6156ZM37.0965 26.9233C36.2094 26.9233 35.4836 27.7887 35.4836 28.8464C35.4836 29.9041 36.2094 30.7695 37.0965 30.7695H96.7739V26.9233H37.0965Z" fill="black"/>
<path d="M74.016 25.8658L71.1289 24.1543L74.8063 15.4043H88.7095C91.3708 15.4043 93.5483 18.0005 93.5483 21.1735V25.0197H90.3224V21.1735C90.3224 20.1158 89.5966 19.2505 88.7095 19.2505H76.8063L74.0321 25.885L74.016 25.8658Z" fill="black"/>
<path d="M45.1604 42.3078H12.9023V15.3848H45.1604V25.0002H41.9346V19.2309H16.1282V38.4617H41.9346V32.6925H45.1604V42.3078Z" fill="black"/>
<path d="M80.6448 38.4619H48.3867V42.3081H80.6448V38.4619Z" fill="black"/>
<path d="M87.0969 32.6924H83.8711V51.9232H87.0969V32.6924Z" fill="black"/>
<path d="M41.9348 25H38.709V32.6923H41.9348V25Z" fill="black"/>
<path d="M48.3879 25H45.1621V32.6923H48.3879V25Z" fill="black"/>
<path d="M29.0329 23.0771H19.3555V26.9233H29.0329V23.0771Z" fill="black"/>
<path d="M29.0329 30.7695H19.3555V34.6157H29.0329V30.7695Z" fill="black"/>
</svg>
