<svg width="65" height="65" viewBox="0 0 65 65" fill="none" xmlns="http://www.w3.org/2000/svg">
<path d="M63.9516 26.2095V57.6611C63.9516 58.8143 63.0081 59.7579 61.8548 59.7579H36.6935C36.6935 60.9111 36.2218 61.9595 35.4669 62.7248C34.7016 63.4796 33.6532 63.9514 32.5 63.9514C31.3468 63.9514 30.2984 63.4796 29.5331 62.7248C28.7782 61.9595 28.3064 60.9111 28.3064 59.7579H3.14516C1.99193 59.7579 1.04839 58.8143 1.04839 57.6611V26.2095H5.24193V55.5643H27.2581C28.579 55.5643 29.8161 54.9458 30.6129 53.8869L32.5 51.3708L34.3871 53.8869C35.1839 54.9458 36.421 55.5643 37.7419 55.5643H59.7581V26.2095H63.9516Z" fill="#2B6577"/>
<path d="M46.129 17.8223C50.1863 17.8223 53.4677 21.1037 53.4677 25.161C53.4677 29.2182 50.1863 32.4997 46.129 32.4997H32.5V51.3707L34.3871 53.8868C35.1839 54.9456 36.421 55.5642 37.7419 55.5642H59.7581V17.8223H46.129Z" fill="#C4F1FD"/>
<path d="M32.5 47.1771V51.3707L30.6129 53.8868C29.8161 54.9456 28.579 55.5642 27.2581 55.5642H5.24193V17.8223H15.7258L15.7887 17.8537C15.0863 19.0803 14.6774 20.4957 14.6774 22.0158C11.7839 22.0158 9.43548 24.3642 9.43548 27.2577V42.9836H28.3064V32.4997H32.5V47.1771Z" fill="#C4F1FD"/>
<path d="M28.3065 32.4997V42.9836H9.43549V27.2578C9.43549 30.1514 11.7839 32.4997 14.6774 32.4997H28.3065Z" fill="#E95D9A"/>
<path d="M25.8427 14.1005C26.5452 12.2239 27.7927 10.6093 29.3653 9.43515C31.1161 8.11419 33.2863 7.33838 35.6452 7.33838C38.004 7.33838 40.1742 8.11419 41.925 9.43515C44.4726 11.3432 46.129 14.394 46.129 17.8223C50.1863 17.8223 53.4677 21.1037 53.4677 25.161C53.4677 29.2182 50.1863 32.4997 46.129 32.4997H14.6774C11.7839 32.4997 9.43549 30.1513 9.43549 27.2577C9.43549 24.3642 11.7839 22.0158 14.6774 22.0158C14.6774 20.4956 15.0863 19.0803 15.7887 17.8537C17.225 15.3271 19.9508 13.6287 23.0645 13.6287C24.0395 13.6287 24.9726 13.7964 25.8427 14.1005Z" fill="#F7FDFE"/>
<path d="M58.7097 5.24189L49.2742 9.43544V1.04834L58.7097 5.24189Z" fill="#4F2B2B"/>
<path d="M49.2742 1.04834V9.43544H41.925C40.1742 8.11447 38.004 7.33866 35.6452 7.33866C33.2863 7.33866 31.1161 8.11447 29.3653 9.43544H14.6774V1.04834H49.2742Z" fill="#DF8711"/>
<path d="M14.6774 1.04834V9.43544H8.38709C7.23386 9.43544 6.29031 8.49189 6.29031 7.33866V3.14511C6.29031 1.99189 7.23386 1.04834 8.38709 1.04834H14.6774Z" fill="#6A3939"/>
<path d="M6.29032 23.0642H4.19354V16.7739H15.7258V18.8707H6.29032V23.0642Z" fill="black"/>
<path d="M32.5 64.9997C29.9734 64.9997 27.8556 63.1965 27.3629 60.8062H3.14516C1.41532 60.8062 0 59.3909 0 57.661V25.161H6.29032V54.5159H27.2581C28.2435 54.5159 29.1871 54.0441 29.7742 53.2578L32.5 49.6199L35.2258 53.2578C35.8129 54.0441 36.7565 54.5159 37.7419 54.5159H58.7097V29.3546H60.8064V56.6126H37.7419C36.1064 56.6126 34.5339 55.8263 33.5484 54.5159L32.5 53.1215L31.4516 54.5159C30.4661 55.8263 28.8935 56.6126 27.2581 56.6126H4.19355V27.2578H2.09677V57.661C2.09677 58.2376 2.56855 58.7094 3.14516 58.7094H29.3548V59.7578C29.3548 61.4876 30.7702 62.903 32.5 62.903C34.2298 62.903 35.6452 61.4876 35.6452 59.7578V58.7094H61.8548C62.4314 58.7094 62.9032 58.2376 62.9032 57.661V27.2578H58.7097V18.8707H46.129V16.7739H60.8064V25.161H65V57.661C65 59.3909 63.5847 60.8062 61.8548 60.8062H37.6371C37.1548 63.1965 35.0371 64.9997 32.5 64.9997Z" fill="black"/>
<path d="M49.4943 10.4839H41.925V8.3871H49.0435L56.1202 5.24194L49.0435 2.09677H8.37661C7.79999 2.09677 7.32822 2.56855 7.32822 3.14516V7.33871C7.32822 7.91532 7.79999 8.3871 8.37661 8.3871H29.3548V10.4839H8.37661C6.64677 10.4839 5.23145 9.06855 5.23145 7.33871V3.14516C5.23145 1.41532 6.64677 0 8.37661 0H49.4839L61.2782 5.24194L49.4839 10.4839H49.4943Z" fill="black"/>
<path d="M50.3226 1.04834H48.2258V9.43544H50.3226V1.04834Z" fill="black"/>
<path d="M15.7258 1.04834H13.629V9.43544H15.7258V1.04834Z" fill="black"/>
<path d="M29.3548 33.5484H14.6774C11.2073 33.5484 8.3871 30.7283 8.3871 27.2581C8.3871 23.7879 11.2073 20.9678 14.6774 20.9678C18.1476 20.9678 20.9677 23.7879 20.9677 27.2581H18.871C18.871 24.9412 16.9944 23.0645 14.6774 23.0645C12.3605 23.0645 10.4839 24.9412 10.4839 27.2581C10.4839 29.575 12.3605 31.4516 14.6774 31.4516H29.3548V33.5484Z" fill="black"/>
<path d="M32.5 22.0161H30.4032C30.4032 17.9693 27.1113 14.6773 23.0645 14.6773C19.0177 14.6773 15.7258 17.9693 15.7258 22.0161H13.629C13.629 16.8161 17.8645 12.5806 23.0645 12.5806C28.2645 12.5806 32.5 16.8161 32.5 22.0161Z" fill="black"/>
<path d="M33.5484 51.3707H31.4516V31.4513H46.129C49.5992 31.4513 52.4193 28.6312 52.4193 25.161C52.4193 21.6908 49.5992 18.8707 46.129 18.8707H45.0806V17.8223C45.0806 12.6223 40.8451 8.38681 35.6452 8.38681C31.7452 8.38681 28.2016 10.8296 26.8177 14.4779L24.8572 13.7336C26.5451 9.27794 30.8855 6.29004 35.6452 6.29004C41.6734 6.29004 46.6322 10.9344 47.1355 16.8368C51.2871 17.34 54.5161 20.8836 54.5161 25.161C54.5161 29.7844 50.7524 33.5481 46.129 33.5481H33.5484V51.3707Z" fill="black"/>
<path d="M56.6129 46.1289H54.5161V48.2257H56.6129V46.1289Z" fill="black"/>
<path d="M52.4193 46.1289H35.6452V48.2257H52.4193V46.1289Z" fill="black"/>
<path d="M56.6129 41.9355H35.6452V44.0323H56.6129V41.9355Z" fill="black"/>
<path d="M56.6129 37.7417H35.6452V39.8385H56.6129V37.7417Z" fill="black"/>
<path d="M29.3548 44.032H8.3871V27.2578H10.4839V41.9352H27.2581V35.6449H29.3548V44.032Z" fill="black"/>
<path d="M10.4839 46.1289H8.3871V48.2257H10.4839V46.1289Z" fill="black"/>
<path d="M29.3548 46.1289H12.5806V48.2257H29.3548V46.1289Z" fill="black"/>
<path d="M25.1613 50.3228H8.3871V52.4195H25.1613V50.3228Z" fill="black"/>
<path d="M29.3548 50.3228H27.2581V52.4195H29.3548V50.3228Z" fill="black"/>
<path d="M42.9839 17.8226H40.8871C40.8871 14.929 38.5387 12.5807 35.6452 12.5807V10.4839C39.6919 10.4839 42.9839 13.7758 42.9839 17.8226Z" fill="black"/>
</svg>
