<svg width="101" height="100" viewBox="0 0 101 100" fill="none" xmlns="http://www.w3.org/2000/svg">
<path d="M32.8324 11.2252C30.3324 5.56392 24.655 1.6123 18.0743 1.6123C9.17112 1.6123 1.94531 8.83814 1.94531 17.7414C1.94531 26.6447 9.17112 33.8705 18.0743 33.8705C23.3485 33.8705 28.0421 31.3382 30.9776 27.4189V20.1285C30.9776 19.3221 31.026 18.5318 31.1389 17.7576C31.4131 15.4672 32.1227 13.322 33.155 11.3865L32.8324 11.2252Z" fill="#BF8888"/>
<path d="M18.0743 27.4197V33.8713C9.17112 33.8713 1.94531 26.6455 1.94531 17.7422H8.39693C8.39693 23.0809 12.7356 27.4197 18.0743 27.4197Z" fill="#F5C07A"/>
<path d="M18.0739 27.4184C23.4186 27.4184 27.7513 23.0857 27.7513 17.7409C27.7513 12.3962 23.4186 8.06348 18.0739 8.06348C12.7292 8.06348 8.39648 12.3962 8.39648 17.7409C8.39648 23.0857 12.7292 27.4184 18.0739 27.4184Z" fill="#F5F5F5"/>
<path d="M37.4292 24.2092C34.1711 24.3221 31.3162 26.7576 31.0098 30.0156C30.9937 30.2253 30.9775 30.435 30.9775 30.6447V20.1285C30.9775 19.3221 31.0259 18.5318 31.1388 17.7576C31.413 15.4672 32.1227 13.322 33.155 11.3865C36.284 5.56393 42.4292 1.6123 49.4937 1.6123C52.3001 1.6123 55.042 2.25749 57.5259 3.45105C59.9937 4.62847 62.2034 6.37039 63.9614 8.56395L64.8485 9.67686C66.3646 10.6769 67.5582 12.0317 68.3969 13.5962C69.2356 15.1446 69.6872 16.9027 69.6872 18.7253V30.6447C69.6872 30.435 69.6711 30.2253 69.655 30.0156C69.3485 26.7576 66.4937 24.3221 63.2356 24.2092C63.1388 24.1931 63.0582 24.1931 62.9614 24.1931C61.0743 24.1931 59.2678 23.4511 57.9291 22.1124L56.784 20.9672C52.5421 23.0963 47.8646 24.1931 43.1227 24.1931H37.7034C37.6066 24.1931 37.5259 24.1931 37.4292 24.2092Z" fill="#854747"/>
<path d="M16.4609 80.645V65.9998C16.4609 61.3868 19.719 57.4191 24.2351 56.5158L37.6545 53.8223L63.4287 53.9029L76.4287 56.5158C80.9448 57.4191 84.2029 61.3868 84.2029 65.9998V80.645H16.4609Z" fill="#357E94"/>
<path d="M60.0104 53.2256L63.4298 53.903L63.2362 54.8385L58.3975 66.1289L50.333 59.6772L60.0104 53.2256Z" fill="#8FC6D7"/>
<path d="M40.6552 53.2256L50.3327 59.6772L42.2682 66.1289L37.6553 53.8224L40.6552 53.2256Z" fill="#8FC6D7"/>
<path d="M60.0101 45.6289V53.2257L50.3327 59.6773L40.6553 53.2257V45.6289C40.8327 45.8386 41.0101 46.0321 41.2037 46.2257C43.5424 48.5483 46.7682 49.9999 50.3327 49.9999C54.1875 49.9999 57.6553 48.3063 60.0101 45.6289Z" fill="#F8D2A0"/>
<path d="M69.687 30.6445C69.687 34.1929 66.7999 37.0961 63.2354 37.0961V24.209C66.4934 24.3219 69.3483 26.7573 69.6547 30.0154C69.6709 30.2251 69.687 30.4348 69.687 30.6445Z" fill="#F8D2A0"/>
<path d="M60.0094 45.6292C57.6545 48.3066 54.1868 50.0002 50.3319 50.0002C46.7674 50.0002 43.5416 48.5486 41.2029 46.226C41.0094 46.0324 40.8319 45.8389 40.6545 45.6292C38.6545 43.355 37.4287 40.3711 37.4287 37.0969V24.2097C37.5255 24.1936 37.6062 24.1936 37.7029 24.1936H43.1223C47.8642 24.1936 52.5416 23.0968 56.7836 20.9678L57.9287 22.1129C59.2674 23.4516 61.0739 24.1936 62.9609 24.1936C63.0577 24.1936 63.1384 24.1936 63.2352 24.2097V37.0969C63.2352 40.3711 62.0094 43.355 60.0094 45.6292Z" fill="#F8D2A0"/>
<path d="M37.4292 24.209V37.0961C33.8646 37.0961 30.9775 34.1929 30.9775 30.6445C30.9775 30.4348 30.9937 30.2251 31.0098 30.0154C31.3162 26.7573 34.1711 24.3219 37.4292 24.209Z" fill="#F8D2A0"/>
<path d="M69.6874 90.3226V98.3871H35.8164V90.3226V80.6451V66.1289H42.268H58.3971H64.8487V80.6451L69.6874 90.3226Z" fill="#F5F5F5"/>
<path d="M80.9779 80.6455V88.7101C80.9779 89.5972 80.2521 90.323 79.365 90.323H58.3973C57.0586 90.323 55.8489 89.7746 54.978 88.9036C54.107 88.0326 53.5586 86.823 53.5586 85.4842C53.5586 82.8068 55.7199 80.6455 58.3973 80.6455H80.9779Z" fill="#F8D2A0"/>
<path d="M42.2681 80.6455C44.9456 80.6455 47.1069 82.8068 47.1069 85.4842C47.1069 86.823 46.5585 88.0326 45.6875 88.9036C44.8165 89.7746 43.6069 90.323 42.2681 90.323H21.3004C20.4133 90.323 19.6875 89.5972 19.6875 88.7101V80.6455H42.2681Z" fill="#F8D2A0"/>
<path d="M76.1389 66.1299H72.9131V80.6461H76.1389V66.1299Z" fill="black"/>
<path d="M50.3325 51.6137C42.3325 51.6137 35.8164 45.0975 35.8164 37.0975V19.3555H39.0422V37.0975C39.0422 43.3233 44.1067 48.3879 50.3325 48.3879C56.5583 48.3879 61.6229 43.3233 61.6229 37.0975V19.3555H64.8487V37.0975C64.8487 45.0975 58.3325 51.6137 50.3325 51.6137Z" fill="black"/>
<path d="M71.2997 30.6458H68.0739V18.7263C68.0739 15.6295 66.5256 12.7424 63.961 11.0328L63.5901 10.6941L62.703 9.58115C59.4772 5.54887 54.6707 3.24242 49.4933 3.24242C40.1707 3.24242 32.5901 10.8231 32.5901 20.1457V30.6619H29.3643V20.1457C29.3643 9.04887 38.3965 0.0166016 49.4933 0.0166016C55.6385 0.0166016 61.3804 2.77467 65.2191 7.56501L65.961 8.48438C69.3159 10.8231 71.2997 14.6295 71.2997 18.7263V30.6458Z" fill="black"/>
<path d="M27.7522 66.1299H24.5264V80.6461H27.7522V66.1299Z" fill="black"/>
<path d="M38.9637 52.6083L35.9434 53.7412L40.7807 66.6381L43.801 65.5052L38.9637 52.6083Z" fill="black"/>
<path d="M49.3194 58.4196L41.2588 64.8682L43.2739 67.3871L51.3345 60.9386L49.3194 58.4196Z" fill="black"/>
<path d="M41.5364 51.8814L39.7471 54.5654L49.423 61.0161L51.2124 58.332L41.5364 51.8814Z" fill="black"/>
<path d="M61.7616 54.2339L56.9219 65.5312L59.887 66.8015L64.7267 55.5042L61.7616 54.2339Z" fill="black"/>
<path d="M51.3374 58.4166L49.3223 60.9355L57.3829 67.3841L59.398 64.8652L51.3374 58.4166Z" fill="black"/>
<path d="M59.0988 51.9175L49.4229 58.3682L51.2122 61.0522L60.8881 54.6016L59.0988 51.9175Z" fill="black"/>
<path d="M63.2364 38.7107V35.4849C64.5912 35.4849 65.8976 34.9043 66.817 33.9043C67.7525 32.8881 68.1879 31.5494 68.0589 30.1623C67.8331 27.7107 65.5912 25.8075 62.9621 25.8075C60.6234 25.8075 58.4299 24.9042 56.7847 23.2429L56.446 22.9042C52.2848 24.7913 47.688 25.7913 43.1234 25.7913H37.7041C35.0751 25.7913 32.8493 27.7107 32.6073 30.1462C32.4783 31.5333 32.9138 32.8559 33.8493 33.8882C34.7686 34.8882 36.0751 35.4688 37.4299 35.4688V38.6946C35.1557 38.6946 32.9944 37.7269 31.4621 36.0495C29.946 34.372 29.1879 32.1139 29.3976 29.8397C29.7847 25.7591 33.4299 22.5655 37.7041 22.5655H43.1234C47.5912 22.5655 52.075 21.501 56.0589 19.5171L57.0912 19.001L59.0589 20.9687C60.0912 22.001 61.4783 22.5816 62.946 22.5816C67.2202 22.5816 70.8654 25.7752 71.2525 29.8559C71.4622 32.1301 70.7202 34.3881 69.188 36.0655C67.6557 37.743 65.4944 38.7107 63.2202 38.7107H63.2364Z" fill="black"/>
<path d="M42.268 91.936H21.3002C19.5261 91.936 18.0744 90.4844 18.0744 88.7102V82.2585H14.8486V66.0004C14.8486 60.6456 18.6712 55.9842 23.9293 54.9358L39.0422 51.9197V45.1777H42.268V54.5648L24.5583 58.1133C20.8002 58.8713 18.0744 62.1939 18.0744 66.0165V79.0489H42.268C45.8325 79.0489 48.7196 81.936 48.7196 85.5005C48.7196 89.065 45.8325 91.9521 42.268 91.9521V91.936ZM21.3002 82.2585V88.7102H42.268C44.0422 88.7102 45.4938 87.2586 45.4938 85.4844C45.4938 83.7102 44.0422 82.2585 42.268 82.2585H21.3002Z" fill="black"/>
<path d="M66.4622 80.6457H63.2364V67.7424H37.4299V80.6457H34.2041V64.5166H66.4622V80.6457Z" fill="black"/>
<path d="M71.3009 100H34.2041V90.323H37.4299V96.7746H68.0751V88.7101H79.3654V80.6455H82.5912V88.7101C82.5912 90.4843 81.1396 91.9359 79.3654 91.9359H71.3009V100Z" fill="black"/>
<path d="M64.8485 91.9365H58.3969C54.8324 91.9365 51.9453 89.0494 51.9453 85.4849C51.9453 81.9203 54.8324 79.0332 58.3969 79.0332H82.5905V66.0009C82.5905 62.1622 79.8647 58.8396 76.1066 58.0976L58.3969 54.5493V45.1621H61.6227V51.9041L76.7356 54.9202C81.9937 55.9686 85.8163 60.6299 85.8163 65.9848V82.2429H58.3969C56.6227 82.2429 55.1711 83.6945 55.1711 85.4687C55.1711 87.2429 56.6227 88.6946 58.3969 88.6946H64.8485V91.9204V91.9365Z" fill="black"/>
<path d="M43.8815 32.259C44.7722 32.259 45.4944 31.5369 45.4944 30.6461C45.4944 29.7553 44.7722 29.0332 43.8815 29.0332C42.9907 29.0332 42.2686 29.7553 42.2686 30.6461C42.2686 31.5369 42.9907 32.259 43.8815 32.259Z" fill="black"/>
<path d="M56.7838 32.259C57.6746 32.259 58.3967 31.5369 58.3967 30.6461C58.3967 29.7553 57.6746 29.0332 56.7838 29.0332C55.893 29.0332 55.1709 29.7553 55.1709 30.6461C55.1709 31.5369 55.893 32.259 56.7838 32.259Z" fill="black"/>
<path d="M50.3325 45.1616C46.768 45.1616 43.8809 42.2745 43.8809 38.71H47.1067C47.1067 40.4842 48.5583 41.9358 50.3325 41.9358C52.1067 41.9358 53.5583 40.4842 53.5583 38.71H56.7841C56.7841 42.2745 53.897 45.1616 50.3325 45.1616Z" fill="black"/>
<path d="M18.0749 35.484C8.28462 35.484 0.333008 27.5324 0.333008 17.742C0.333008 7.95165 8.28462 0 18.0749 0C25.0911 0 31.462 4.14516 34.3007 10.5645L31.3492 11.871C29.0266 6.61291 23.8169 3.22582 18.0749 3.22582C10.0749 3.22582 3.55881 9.74198 3.55881 17.742C3.55881 25.7421 10.0749 32.2582 18.0749 32.2582C22.6878 32.2582 26.9137 30.1453 29.6879 26.4517L32.2685 28.3872C28.8814 32.8873 23.704 35.484 18.0749 35.484Z" fill="black"/>
<path d="M18.0745 29.0319C11.8487 29.0319 6.78418 23.9674 6.78418 17.7415C6.78418 11.5157 11.8487 6.45117 18.0745 6.45117C24.3003 6.45117 29.3648 11.5157 29.3648 17.7415C29.3648 23.9674 24.3003 29.0319 18.0745 29.0319ZM18.0745 9.67699C13.6229 9.67699 10.01 13.2899 10.01 17.7415C10.01 22.1932 13.6229 25.8061 18.0745 25.8061C22.5261 25.8061 26.139 22.1932 26.139 17.7415C26.139 13.2899 22.5261 9.67699 18.0745 9.67699Z" fill="black"/>
<path d="M19.6877 1.61328H16.4619V8.06492H19.6877V1.61328Z" fill="black"/>
<path d="M8.3979 16.1299H1.94629V19.3557H8.3979V16.1299Z" fill="black"/>
<path d="M27.7522 43.549H16.4619V27.4199H19.6877V40.3232H27.7522V43.549Z" fill="black"/>
<path d="M30.9778 16.1299H27.752V19.3557H30.9778V16.1299Z" fill="black"/>
<path d="M27.7525 46.7744H13.2363V50.0002H27.7525V46.7744Z" fill="black"/>
<path d="M76.1391 32.6452L73.5262 27.4194H69.6875V24.1936H75.5262L76.1391 25.4194L78.3649 20.9678H100.333V24.1936H80.3649L76.1391 32.6452Z" fill="black"/>
<path d="M97.1076 3.22559H93.8818V22.5805H97.1076V3.22559Z" fill="black"/>
<path d="M90.6555 8.06445H87.4297V22.5807H90.6555V8.06445Z" fill="black"/>
<path d="M84.2043 16.1299H80.9785V22.5815H84.2043V16.1299Z" fill="black"/>
<path d="M93.8814 40.3223H71.3008V43.5481H93.8814V40.3223Z" fill="black"/>
<path d="M100.333 40.3223H97.1074V43.5481H100.333V40.3223Z" fill="black"/>
<path d="M100.333 46.7744H71.3008V50.0002H100.333V46.7744Z" fill="black"/>
<path d="M10.01 46.7744H6.78418V50.0002H10.01V46.7744Z" fill="black"/>
<path d="M3.55881 46.7744H0.333008V50.0002H3.55881V46.7744Z" fill="black"/>
</svg>
