<svg width="700" height="400" viewBox="0 0 700 400" fill="none" xmlns="http://www.w3.org/2000/svg">
<mask id="mask0_380_5803" style="mask-type:alpha" maskUnits="userSpaceOnUse" x="0" y="0" width="700" height="400">
<rect width="700" height="400" rx="20" transform="matrix(-1 0 0 1 700 0)" fill="white"/>
</mask>
<g mask="url(#mask0_380_5803)">
<path d="M262.429 559.853C262.058 558.867 262.372 557.792 263.132 557.147L230.744 511.074C230.632 511.138 230.515 511.196 230.392 511.243C229.133 511.715 227.732 511.078 227.259 509.821C226.786 508.564 227.424 507.162 228.681 506.688C228.882 506.613 229.086 506.568 229.291 506.547L229.029 475.262C228.122 475.184 227.296 474.604 226.956 473.695C226.483 472.438 227.121 471.036 228.378 470.563C228.934 470.355 229.519 470.363 230.039 470.545L244.365 439.309C243.893 439.036 243.508 438.605 243.3 438.056C243.077 437.459 243.105 436.832 243.326 436.285L171.239 398.885C170.967 399.311 170.56 399.657 170.05 399.849C168.793 400.323 167.391 399.685 166.918 398.427C166.444 397.17 167.082 395.768 168.34 395.295C168.706 395.158 169.083 395.117 169.447 395.156L188.641 298.87C187.451 299.18 186.194 298.546 185.752 297.37C185.279 296.113 185.917 294.711 187.174 294.237C187.289 294.194 187.404 294.164 187.521 294.14L183.275 258.292C182.267 258.317 181.309 257.714 180.935 256.718C180.747 256.216 180.738 255.693 180.871 255.213L138.181 239.019L138.242 239.632L137.769 238.861L137.512 238.763L137.636 238.643L97.1138 172.703C97.042 172.737 96.9687 172.77 96.8924 172.799C95.6353 173.272 94.2328 172.634 93.7597 171.377C93.2865 170.12 93.9245 168.718 95.1816 168.245C96.4388 167.771 97.8412 168.409 98.3144 169.666C98.4902 170.134 98.5107 170.623 98.4044 171.075L131.401 182.091C131.46 182.062 131.52 182.035 131.583 182.011C131.896 181.893 132.22 181.846 132.536 181.858L140.308 123.34C139.538 123.163 138.87 122.619 138.571 121.824C138.098 120.567 138.736 119.165 139.993 118.692C141.25 118.218 142.653 118.856 143.126 120.113C143.313 120.61 143.324 121.132 143.192 121.607L181.526 135.966C181.789 135.425 182.249 134.977 182.859 134.748C183.677 134.441 184.552 134.605 185.196 135.098L205.025 113.729C204.828 113.511 204.667 113.254 204.558 112.962C204.085 111.705 204.723 110.303 205.98 109.83C207.237 109.356 208.64 109.994 209.113 111.251C209.399 112.015 209.275 112.831 208.854 113.461L233.923 133.859C234.163 133.613 234.459 133.414 234.804 133.284C235.933 132.86 237.176 133.33 237.762 134.34L267.156 119.164C266.703 117.913 267.338 116.528 268.587 116.059C269.844 115.586 271.247 116.224 271.72 117.481C271.802 117.7 271.849 117.923 271.866 118.147L296.645 119.186C296.761 118.329 297.333 117.56 298.2 117.235C298.426 117.15 298.656 117.103 298.884 117.088L299.705 79.3947C298.828 79.293 298.036 78.7188 297.705 77.8349C297.232 76.5778 297.87 75.1753 299.127 74.7022C300.384 74.229 301.787 74.867 302.26 76.1241C302.295 76.2166 302.32 76.3086 302.344 76.402L357.351 68.243C357.294 67.2096 357.905 66.2145 358.924 65.8322C360.181 65.359 361.584 65.997 362.057 67.2541C362.53 68.5113 361.892 69.9137 360.635 70.3869C360.276 70.5223 359.905 70.5633 359.548 70.5287L344.354 150.488C345.011 150.718 345.565 151.226 345.829 151.928C346.302 153.185 345.664 154.588 344.407 155.061C343.149 155.534 341.747 154.896 341.274 153.639C341.228 153.514 341.195 153.387 341.168 153.26L312.576 154.684C312.557 155.65 311.961 156.555 311.001 156.915C310.69 157.032 310.368 157.081 310.055 157.069L299.21 223.887C299.95 224.078 300.589 224.616 300.879 225.385C301.352 226.642 300.714 228.044 299.457 228.517C298.2 228.991 296.797 228.353 296.324 227.095C296.215 226.807 296.169 226.51 296.171 226.221L265.021 223.065C264.865 223.864 264.311 224.569 263.49 224.875L263.705 224.812L286.214 301.172C287.361 300.946 288.535 301.572 288.959 302.701C289.178 303.284 289.156 303.896 288.948 304.434L318.75 319.259C319.023 318.817 319.436 318.457 319.962 318.262C321.221 317.79 322.621 318.427 323.095 319.684C323.568 320.941 322.93 322.343 321.673 322.816C321.183 323.001 320.67 323.015 320.2 322.889L302.987 370.123C303.539 370.384 303.994 370.848 304.225 371.465C304.698 372.722 304.061 374.124 302.803 374.597C302.279 374.794 301.732 374.797 301.236 374.642L289.539 403.116C290.051 403.383 290.47 403.831 290.689 404.413C291.162 405.67 290.524 407.073 289.267 407.546C289.134 407.596 288.998 407.63 288.865 407.657L293.141 463.929C294.092 463.965 294.972 464.56 295.328 465.505C295.594 466.217 295.507 466.976 295.15 467.587L326.247 490.679C326.504 490.38 326.838 490.14 327.232 489.991C328.489 489.518 329.892 490.156 330.365 491.413C330.836 492.671 330.2 494.072 328.943 494.546C328.933 494.548 328.924 494.551 328.915 494.555L333.631 523.97L336.123 539.518C337.086 539.543 337.983 540.137 338.343 541.094C338.817 542.351 338.179 543.754 336.921 544.227C335.943 544.594 334.881 544.29 334.233 543.547L303.998 560.548C304.011 560.579 304.027 560.61 304.039 560.644C304.512 561.901 303.874 563.304 302.617 563.777C301.36 564.25 299.958 563.612 299.485 562.355C299.373 562.056 299.324 561.75 299.332 561.45L267.108 559.378C266.975 560.214 266.412 560.957 265.562 561.275C264.305 561.748 262.902 561.11 262.429 559.853ZM333.695 541.409C333.872 540.639 334.416 539.971 335.211 539.672C335.365 539.615 335.519 539.576 335.673 539.549L332.848 521.919L328.48 494.669C328.246 494.708 328.012 494.71 327.783 494.68L311.477 537.317L333.693 541.407L333.695 541.409ZM300.058 370.79L283.6 354.74L259.593 376.607C259.73 376.789 259.846 376.992 259.93 377.216C259.971 377.322 259.998 377.43 260.023 377.537L299.517 372.407C299.495 371.816 299.691 371.241 300.058 370.79ZM318.877 322.001C318.74 321.818 318.624 321.615 318.54 321.391C318.491 321.26 318.457 321.131 318.432 320.999L257.924 326.998C257.927 327.563 257.733 328.109 257.383 328.543L283.613 354.124L318.879 322.002L318.877 322.001ZM180.288 140.487L205.966 153.36L185.547 138.623C185.291 138.916 184.96 139.152 184.568 139.301C183.688 139.632 182.739 139.417 182.086 138.829L180.288 140.487ZM141.702 123.245C141.388 123.362 141.066 123.41 140.75 123.398L132.981 181.916C133.385 182.009 133.759 182.203 134.068 182.482L179.503 140.599L142.907 122.253C142.634 122.692 142.221 123.049 141.701 123.246L141.702 123.245ZM170.985 395.92C171.171 396.124 171.324 396.361 171.437 396.627L209.757 384.558C209.505 383.399 210.134 382.198 211.279 381.768L204.882 358.306L170.985 395.92ZM300.098 559.72C300.136 559.686 300.176 559.65 300.218 559.618L277.495 533.016C277.328 533.133 277.148 533.231 276.95 533.307C276.429 533.504 275.884 533.505 275.389 533.355L272.717 539.916L300.098 559.72ZM247.683 484.901L242.196 475.908C242.127 475.942 242.056 475.973 241.981 476.001C241.516 476.176 241.031 476.198 240.582 476.095L238.136 483.534L274.106 528.201L247.683 484.901ZM242.579 475.675L261.769 507.123L275.024 528.846C275.093 528.811 275.165 528.78 275.239 528.752C275.654 528.596 276.084 528.563 276.494 528.632L288.2 484.102L243.447 474.455C243.295 474.936 242.996 475.366 242.582 475.675L242.579 475.675ZM274.973 533.186C274.458 532.919 274.036 532.47 273.817 531.885C273.604 531.319 273.617 530.723 273.81 530.196L231.643 510.21L272.343 539.645L274.975 533.184L274.973 533.186ZM231.812 508.109C232.026 508.675 232.012 509.271 231.819 509.798L274.002 529.791C274.111 529.607 274.244 529.436 274.399 529.285L237.967 484.045L230.504 506.736C231.087 506.991 231.57 507.468 231.81 508.11L231.812 508.109ZM230.079 506.593L237.633 483.627L230.578 474.865C230.428 474.963 230.264 475.05 230.091 475.116C229.889 475.191 229.685 475.236 229.48 475.257L229.743 506.542C229.857 506.551 229.97 506.567 230.082 506.593L230.079 506.593ZM231.631 473.242C231.544 473.75 231.301 474.222 230.928 474.582L237.8 483.117L240.157 475.955C239.574 475.7 239.09 475.223 238.85 474.581C238.749 474.315 238.702 474.041 238.697 473.77L231.631 473.242ZM242.321 471.607L259.9 446.245L247.524 438.655C247.256 439.015 246.886 439.306 246.433 439.477C246.128 439.592 245.814 439.639 245.508 439.631L241.641 471.348C241.879 471.401 242.108 471.487 242.321 471.607ZM286.421 406.66C286.307 406.497 286.208 406.317 286.134 406.121C285.991 405.736 285.949 405.341 285.998 404.962L254.209 396.06L246.283 434.871C246.708 435 247.091 435.241 247.391 435.575L286.422 406.659L286.421 406.66ZM260.656 221.181L240.353 205.119C240.101 205.397 239.782 205.623 239.406 205.762C239.223 205.831 239.038 205.874 238.851 205.897L238.107 215.237L260.433 221.563C260.495 221.428 260.57 221.3 260.656 221.178L260.656 221.181ZM299.577 121.882C298.816 122.051 298.037 121.84 297.468 121.352L285.82 132.577L308.565 152.793C308.775 152.613 309.018 152.464 309.29 152.36L299.575 121.884L299.577 121.882ZM308.252 153.114L285.496 132.887L249.26 167.811C249.415 168.006 249.545 168.228 249.637 168.474C249.647 168.502 249.655 168.531 249.664 168.559L307.734 154.931C307.654 154.272 307.849 153.619 308.251 153.115L308.252 153.114ZM214.412 383.187C214.452 383.292 214.48 383.397 214.505 383.505L255.225 378.162C255.197 377.471 255.469 376.799 255.964 376.321L236.944 352.627L213.8 382.272C214.062 382.52 214.275 382.826 214.412 383.187ZM256.315 376.041C256.465 375.942 256.625 375.858 256.801 375.791C256.981 375.723 257.164 375.681 257.348 375.658L255.734 329.426C255.512 329.448 255.293 329.44 255.08 329.401L237.232 352.262L256.317 376.039L256.315 376.041ZM254.61 329.272C254.319 329.156 254.049 328.988 253.82 328.771L229.024 335.441L226.623 336.087C226.76 336.873 226.499 337.664 225.951 338.217L236.939 351.907L254.606 329.275L254.61 329.272ZM226.504 335.646C226.504 335.646 226.506 335.648 226.507 335.65L228.899 335.007L253.498 328.39C253.388 328.23 253.292 328.053 253.219 327.862C253.101 327.545 253.053 327.22 253.064 326.904L233.943 318.039L225.558 334.464C225.976 334.738 226.318 335.14 226.506 335.645L226.504 335.646ZM213.445 381.996L236.656 352.267L225.607 338.503C225.447 338.614 225.272 338.708 225.082 338.779C224.687 338.927 224.278 338.966 223.886 338.91L212.949 381.751C213.123 381.812 213.288 381.895 213.445 381.996ZM189.825 298.151L222.807 334.53C222.977 334.407 223.167 334.303 223.372 334.224C223.975 333.998 224.609 334.028 225.16 334.258L233.533 317.852L190.135 297.73C190.047 297.882 189.943 298.021 189.823 298.15L189.825 298.151ZM233.739 317.453L243.483 298.365C243.103 298.094 242.799 297.712 242.623 297.242C242.555 297.059 242.51 296.872 242.488 296.686L210.893 296.714L190.454 296.733C190.435 296.937 190.393 297.135 190.324 297.324L233.739 317.453ZM134.512 185.56L152.513 198.779L163.64 206.948C163.895 206.661 164.219 206.43 164.605 206.285C165.361 206 166.167 206.12 166.794 206.532L174.305 197.122L134.682 185.235C134.633 185.348 134.576 185.457 134.514 185.561L134.512 185.56ZM234.32 234.447L206.121 207.777C205.906 207.965 205.656 208.123 205.372 208.228C204.884 208.41 204.375 208.425 203.904 208.302L198.415 221.071L234.059 234.861C234.131 234.714 234.22 234.574 234.32 234.444L234.32 234.447ZM203.481 208.151C202.929 207.89 202.471 207.425 202.24 206.806C202.181 206.65 202.14 206.494 202.115 206.335L167.892 208.623C167.886 208.828 167.853 209.03 167.798 209.224L197.998 220.909L203.483 208.149L203.481 208.151ZM167.146 206.811C167.398 207.055 167.605 207.355 167.738 207.707C167.795 207.861 167.838 208.019 167.863 208.175L180.086 207.352L202.085 205.872C202.089 205.736 202.107 205.601 202.133 205.469L174.767 197.259L167.142 206.811L167.146 206.811ZM202.264 205.04C202.51 204.431 202.998 203.923 203.662 203.673C203.931 203.573 204.205 203.525 204.476 203.52L207.962 157.208C207.63 157.15 207.315 157.026 207.034 156.841L175.073 196.881L202.266 205.039L202.264 205.04ZM209.221 157.089C208.952 157.19 208.678 157.237 208.407 157.242L204.921 203.554C205.405 203.635 205.856 203.864 206.21 204.207L227.468 186.036L209.451 156.988C209.376 157.026 209.299 157.058 209.22 157.087L209.221 157.089ZM206.502 204.548C206.619 204.715 206.719 204.897 206.794 205.095C206.818 205.155 206.834 205.216 206.852 205.276L236.124 203.544C236.106 202.765 236.464 202.018 237.086 201.545L227.707 186.422L206.502 204.548ZM236.275 204.339C236.232 204.224 236.201 204.106 236.176 203.99L206.935 205.721C206.956 205.949 206.945 206.174 206.904 206.395L237.666 215.113L238.4 205.913C237.474 205.855 236.621 205.267 236.275 204.342L236.275 204.339ZM206.782 206.826C206.712 207.01 206.62 207.186 206.506 207.349L234.635 234.115C234.848 233.929 235.097 233.776 235.379 233.669C235.65 233.568 235.927 233.52 236.202 233.517L237.633 215.57L206.783 206.828L206.782 206.826ZM244.043 294.111C244.077 294.098 244.111 294.089 244.147 294.078L239.53 261.108L236.347 238.379C235.83 238.403 235.326 238.259 234.901 237.982L207.911 271.894L242.901 295C243.173 294.607 243.562 294.291 244.043 294.111ZM233.885 236.589C233.764 236.148 233.774 235.7 233.893 235.285L198.234 221.487L184.378 253.721C184.81 253.957 185.174 254.324 185.404 254.794L233.885 236.589ZM183.965 253.542L197.815 221.324L167.633 209.645C167.4 210.114 167.018 210.509 166.519 210.75L182.576 253.509C183.045 253.379 183.528 253.398 183.965 253.542ZM163.18 209.418C162.909 208.694 163.005 207.925 163.373 207.31L155.261 201.354L134.242 185.921C134.175 185.994 134.102 186.065 134.026 186.131L157.478 219.187L165.871 210.96C164.741 211.155 163.599 210.53 163.18 209.418ZM134.796 183.666C134.897 184.05 134.898 184.438 134.819 184.806L174.608 196.744L206.681 156.563C206.484 156.375 206.317 156.153 206.189 155.9L134.796 183.666ZM209.83 156.752L227.812 185.744L245.375 170.732C245.258 170.565 245.158 170.383 245.082 170.185C244.895 169.689 244.884 169.17 245.014 168.697L210.554 155.868C210.388 156.211 210.143 156.516 209.83 156.752ZM245.667 171.073L228.053 186.129L237.468 201.307C237.543 201.27 237.619 201.237 237.699 201.208C238.109 201.053 238.535 201.02 238.942 201.085L246.542 171.618C246.217 171.502 245.92 171.317 245.67 171.073L245.667 171.073ZM260.282 221.99L238.072 215.694L236.649 233.553C237.312 233.669 237.911 234.055 238.284 234.641L260.313 223.309C260.177 222.867 260.172 222.412 260.28 221.991L260.282 221.99ZM260.485 223.726L238.487 235.041C238.494 235.059 238.503 235.075 238.51 235.093C238.983 236.35 238.345 237.753 237.088 238.226C236.991 238.262 236.89 238.292 236.791 238.315L243.912 289.155L244.586 293.979C244.751 293.957 244.917 293.953 245.078 293.965L261.741 224.855C261.213 224.645 260.759 224.255 260.482 223.725L260.485 223.726ZM243.872 298.592L234.149 317.643L253.131 326.445C253.306 325.723 253.808 325.096 254.534 324.781L245.299 298.788C244.805 298.87 244.311 298.795 243.875 298.592L243.872 298.592ZM255.379 378.927C255.338 378.822 255.31 378.717 255.285 378.609L214.566 383.952C214.572 384.13 214.56 384.308 214.527 384.479L253.868 395.496L256.952 380.396C256.252 380.183 255.656 379.662 255.379 378.924L255.379 378.927ZM244.727 434.921C245.097 434.782 245.479 434.743 245.848 434.783L253.781 395.94L214.407 384.913C214.249 385.328 213.978 385.699 213.617 385.975L244.483 435.029C244.561 434.989 244.643 434.952 244.727 434.921ZM211.716 381.649C211.985 381.603 212.256 381.601 212.518 381.644L223.452 338.811C223.21 338.73 222.983 338.608 222.775 338.454L205.242 357.91L211.714 381.651L211.716 381.649ZM222.442 338.152C222.235 337.928 222.067 337.662 221.951 337.359C221.612 336.455 221.846 335.48 222.469 334.826L189.492 298.454C189.37 298.546 189.238 298.628 189.095 298.697L205.099 357.392L222.438 338.151L222.442 338.152ZM190.312 295.655C190.39 295.863 190.434 296.073 190.454 296.283L242.474 296.237C242.492 295.942 242.563 295.655 242.682 295.391L207.632 272.245L189.716 294.756C189.972 295 190.178 295.301 190.312 295.655ZM207.536 271.645L234.55 237.703C234.348 237.508 234.174 237.278 234.044 237.01L185.563 255.216C185.733 255.834 185.646 256.468 185.36 257.004L207.535 271.647L207.536 271.645ZM182.157 253.668L166.226 211.244L157.744 219.561L182.002 253.754C182.053 253.723 182.103 253.696 182.157 253.668ZM133.661 186.39C133.546 186.457 133.427 186.516 133.299 186.565C133.171 186.614 133.04 186.647 132.91 186.673L138.102 238.187L157.156 219.508L133.662 186.391L133.661 186.39ZM134.378 182.81C134.458 182.916 134.532 183.031 134.595 183.152L134.75 183.203L206.03 155.481C205.878 154.953 205.916 154.411 206.103 153.928L179.938 140.811L134.378 182.807L134.378 182.81ZM205.357 114.031L185.528 135.4C185.725 135.619 185.887 135.875 185.995 136.167C186.067 136.354 186.108 136.544 186.131 136.734L207.475 136.164L206.702 114.534C206.212 114.507 205.744 114.33 205.359 114.033L205.357 114.031ZM186.142 137.183C186.118 137.565 186.003 137.934 185.811 138.258L206.532 153.213C206.787 152.92 207.119 152.684 207.51 152.534C207.691 152.466 207.874 152.425 208.055 152.401L207.491 136.612L186.142 137.183ZM208.503 152.384C209.165 152.422 209.787 152.73 210.218 153.239L233.604 136.857C233.517 136.721 233.442 136.571 233.382 136.413C233.321 136.251 233.28 136.085 233.255 135.92L207.937 136.597L208.501 152.383L208.503 152.384ZM233.879 137.214L213.645 151.387L236.068 137.957C235.253 138.095 234.43 137.806 233.879 137.214ZM210.557 153.759C210.587 153.823 210.615 153.888 210.642 153.955C210.829 154.451 210.84 154.97 210.71 155.443L245.17 168.272C245.432 167.728 245.894 167.278 246.504 167.049C247.041 166.847 247.606 166.849 248.112 167.016L268.203 120.424C267.899 120.244 267.632 119.995 267.427 119.693L210.553 153.759L210.557 153.759ZM248.524 167.195C248.674 167.278 248.817 167.372 248.949 167.486L285.16 132.588L271.112 120.101C270.883 120.316 270.611 120.491 270.297 120.609C269.731 120.822 269.137 120.807 268.611 120.616L248.526 167.193L248.524 167.195ZM271.406 119.764L285.482 132.274L297.154 121.024C296.999 120.828 296.869 120.607 296.777 120.36C296.687 120.118 296.637 119.873 296.625 119.627L271.857 118.59C271.811 119.015 271.655 119.419 271.405 119.762L271.406 119.764ZM301.333 118.651C301.794 119.877 301.199 121.237 300.004 121.743L309.68 152.095L300.144 79.9027L299.334 117.088C300.211 117.19 301.003 117.764 301.334 118.648L301.333 118.651ZM300.837 79.2489C300.733 79.2879 300.626 79.3173 300.52 79.3404L310.145 152.202C310.51 152.202 310.869 152.284 311.193 152.439L327.133 124.621L300.991 79.1791C300.939 79.2018 300.889 79.2262 300.835 79.2472L300.837 79.2489ZM307.869 155.49C307.853 155.449 307.843 155.407 307.831 155.367L249.769 168.993C249.872 169.722 249.632 170.449 249.146 170.977L263.093 186.466L308.019 155.811C307.962 155.708 307.91 155.603 307.869 155.49ZM248.813 171.278C248.634 171.411 248.436 171.523 248.213 171.606C247.803 171.761 247.377 171.794 246.97 171.728L239.37 201.195C239.776 201.341 240.141 201.595 240.421 201.933L262.715 186.721L248.809 171.277L248.813 171.278ZM240.676 202.307C240.733 202.41 240.786 202.516 240.828 202.63C241.017 203.131 241.026 203.655 240.894 204.133L296.417 225.171C296.52 224.961 296.653 224.766 296.815 224.59L263.023 187.06L240.678 202.309L240.676 202.307ZM296.257 225.591L240.735 204.554C240.701 204.623 240.664 204.693 240.621 204.759L260.949 220.842C261.18 220.618 261.46 220.439 261.778 220.319C263.037 219.847 264.438 220.484 264.911 221.741C265.02 222.03 265.066 222.326 265.064 222.616L296.213 225.77C296.224 225.708 296.24 225.649 296.255 225.589L296.257 225.591ZM262.171 224.981L245.519 294.039C246.253 294.233 246.887 294.769 247.174 295.534C247.303 295.878 247.348 296.233 247.32 296.579L284.333 302.926C284.525 302.21 285.042 301.593 285.781 301.299L263.274 224.943C262.903 225.045 262.527 225.054 262.17 224.983L262.171 224.981ZM284.405 304.409C284.276 304.065 284.231 303.71 284.257 303.366L248.059 297.158L280.915 307.608L284.608 304.83C284.528 304.7 284.457 304.558 284.401 304.409L284.405 304.409ZM247.136 297.337C246.883 297.93 246.403 298.423 245.752 298.667C245.746 298.67 245.738 298.671 245.73 298.675L254.956 324.642C255.823 324.444 256.712 324.741 257.293 325.378L280.478 307.941L247.137 297.339L247.136 297.337ZM257.564 325.736C257.644 325.866 257.715 326.008 257.77 326.157C257.818 326.287 257.854 326.417 257.879 326.549L318.387 320.55C318.387 320.369 318.404 320.19 318.442 320.014L281.002 308.107L257.564 325.736ZM257.069 328.862C256.861 329.04 256.621 329.186 256.348 329.29C256.292 329.311 256.234 329.327 256.177 329.344L257.793 375.644C258.351 375.677 258.88 375.902 259.291 376.275L283.28 354.424L257.069 328.862ZM259.317 379.847C259.091 380.06 258.818 380.233 258.508 380.349C258.138 380.488 257.756 380.527 257.388 380.487L254.297 395.618L286.095 404.524C286.168 404.299 286.273 404.086 286.405 403.891L259.314 379.847L259.317 379.847ZM286.713 407.005L247.659 435.938C247.736 436.065 247.804 436.201 247.857 436.343C248.102 436.999 248.045 437.69 247.759 438.272L260.156 445.875L286.955 407.213C286.869 407.148 286.788 407.079 286.711 407.003L286.713 407.005ZM260.285 446.481L242.691 471.863C243.002 472.124 243.253 472.463 243.405 472.87C243.441 472.968 243.468 473.064 243.493 473.163L281.141 467.815L290.623 466.469C290.604 466.042 290.701 465.622 290.89 465.252L260.286 446.483L260.285 446.481ZM290.773 467.216C290.735 467.117 290.707 467.015 290.684 466.913L243.557 473.607C243.564 473.745 243.558 473.88 243.542 474.016L288.313 483.667L292.257 468.66C291.595 468.431 291.037 467.922 290.773 467.216ZM288.638 484.196L276.927 528.747C277.301 528.884 277.639 529.112 277.909 529.415L326.225 493.829C326.053 493.624 325.911 493.39 325.812 493.125C325.694 492.814 325.646 492.492 325.658 492.179L288.638 484.2L288.638 484.196ZM327.34 494.581C327.052 494.486 326.782 494.34 326.547 494.146L278.175 529.774C278.251 529.899 278.317 530.033 278.369 530.174C278.501 530.529 278.544 530.892 278.513 531.247L311.027 537.233L327.338 494.579L327.34 494.581ZM278.434 531.69C278.325 532.078 278.122 532.433 277.837 532.725L300.592 559.366C300.694 559.311 300.796 559.261 300.907 559.219C301.482 559.002 302.087 559.02 302.621 559.223L310.866 537.662L278.434 531.69ZM299.8 560.061L272.544 540.348L265.828 556.841C266.343 557.108 266.765 557.557 266.984 558.142C267.081 558.402 267.13 558.667 267.137 558.929L299.382 561.002C299.454 560.663 299.595 560.343 299.8 560.061ZM263.499 556.889C263.61 556.825 263.728 556.768 263.851 556.72C264.372 556.523 264.917 556.522 265.412 556.672L272.17 540.077L231.367 510.568C231.289 510.656 231.202 510.74 231.11 510.817L263.499 556.889ZM230.449 470.732C230.921 471.004 231.306 471.435 231.514 471.985C231.615 472.251 231.662 472.525 231.667 472.796L238.733 473.324C238.872 472.498 239.433 471.765 240.273 471.45C240.578 471.336 240.892 471.288 241.199 471.297L245.065 439.579C244.968 439.558 244.87 439.531 244.775 439.499L230.449 470.735L230.449 470.732ZM243.536 435.888C243.685 435.654 243.874 435.444 244.101 435.27L213.235 386.216C213.157 386.257 213.075 386.294 212.991 386.324C211.763 386.786 210.398 386.187 209.895 384.987L171.575 397.056C171.682 397.547 171.632 398.042 171.451 398.485L243.538 435.886L243.536 435.888ZM169.893 395.241C170.165 395.322 170.424 395.452 170.653 395.623L204.744 357.793L188.923 299.771L169.891 395.242L169.893 395.241ZM187.972 294.084C188.471 294.07 188.956 294.213 189.365 294.48L207.255 272.001L185.113 257.38C184.847 257.71 184.496 257.978 184.071 258.137C183.956 258.18 183.842 258.21 183.724 258.234L187.971 294.082L187.972 294.084ZM181.035 254.791C181.179 254.498 181.382 254.233 181.633 254.016L157.417 219.882L138.332 238.593L181.033 254.792L181.035 254.791ZM98.2659 171.502C98.0999 171.878 97.8374 172.214 97.4998 172.467L137.603 237.723L132.464 186.718C131.473 186.725 130.536 186.124 130.166 185.143C129.788 184.135 130.122 183.04 130.912 182.398L98.266 171.499L98.2659 171.502ZM144.724 122.66L179.86 140.274L181.782 138.502C181.64 138.318 181.522 138.11 181.437 137.881C181.25 137.385 181.239 136.862 181.369 136.386L144.722 122.659L144.724 122.66ZM208.573 113.81C208.333 114.057 208.036 114.258 207.692 114.386C207.512 114.454 207.33 114.494 207.148 114.52L207.922 136.154L233.231 135.477C233.247 135.021 233.394 134.584 233.642 134.209L208.573 113.81ZM237.952 134.749C238.239 135.558 238.073 136.421 237.58 137.055L263.155 121.735L237.954 134.748L237.952 134.749ZM302.413 76.8445C302.458 77.6769 302.07 78.4803 301.384 78.9643L327.394 124.178L358.381 70.1018C357.994 69.8303 357.682 69.4434 357.502 68.9681C357.467 68.8756 357.44 68.782 357.418 68.6902L302.411 76.846L302.413 76.8445ZM359.107 70.4452C358.993 70.4121 358.879 70.3728 358.77 70.3225L327.655 124.626L342.575 150.56C342.616 150.542 342.657 150.523 342.699 150.506C343.103 150.354 343.521 150.319 343.92 150.38L359.107 70.4452ZM341.121 152.815C341.111 152.009 341.504 151.24 342.181 150.78L327.396 125.08L311.583 152.678C311.953 152.948 312.253 153.325 312.426 153.786C312.482 153.935 312.522 154.086 312.547 154.239L341.121 152.815ZM309.611 157.012C309.091 156.894 308.618 156.607 308.274 156.189L263.399 186.809L297.15 224.294C297.329 224.16 297.527 224.048 297.749 223.966C298.087 223.841 298.432 223.795 298.77 223.818L309.613 157.014L309.611 157.012ZM287.539 305.836C286.578 306.196 285.534 305.909 284.883 305.192L281.444 307.779L318.105 319.438L288.749 304.837C288.476 305.279 288.063 305.639 287.535 305.835L287.539 305.836ZM319.78 322.735C319.563 322.631 319.36 322.497 319.182 322.333L283.936 354.438L300.374 370.469C300.582 370.291 300.823 370.143 301.094 370.041C301.584 369.857 302.097 369.842 302.567 369.969L319.78 322.735ZM300.821 374.473C300.308 374.206 299.89 373.758 299.671 373.175C299.63 373.07 299.602 372.962 299.578 372.854L260.084 377.984C260.104 378.537 259.935 379.074 259.614 379.513L286.695 403.549C286.932 403.311 287.222 403.117 287.558 402.993C288.081 402.796 288.629 402.793 289.125 402.948L300.822 374.474L300.821 374.473ZM288.418 407.7C288.041 407.701 287.672 407.613 287.34 407.45L260.541 446.111L291.13 464.87C291.396 464.525 291.757 464.245 292.197 464.082C292.362 464.021 292.527 463.978 292.695 463.954L288.421 407.697L288.418 407.7ZM294.891 467.953C294.634 468.252 294.3 468.492 293.906 468.641C293.504 468.792 293.09 468.829 292.694 468.769L288.753 483.764L325.719 491.731C325.775 491.49 325.865 491.258 325.989 491.047L294.891 467.953ZM333.969 543.18C333.899 543.062 333.839 542.938 333.789 542.805C333.67 542.492 333.622 542.17 333.633 541.854L311.315 537.744L303.025 559.42C303.324 559.601 303.586 559.849 303.785 560.15L333.968 543.179L333.969 543.18Z" fill="#EE81B0"/>
<path d="M425.791 559.853C426.162 558.867 425.849 557.792 425.088 557.147L457.476 511.074C457.588 511.138 457.705 511.196 457.829 511.243C459.087 511.715 460.488 511.078 460.961 509.821C461.435 508.564 460.797 507.162 459.539 506.688C459.338 506.613 459.134 506.568 458.929 506.547L459.192 475.262C460.099 475.184 460.924 474.604 461.264 473.695C461.737 472.438 461.099 471.036 459.842 470.563C459.286 470.355 458.701 470.363 458.181 470.545L443.855 439.309C444.327 439.036 444.712 438.605 444.92 438.056C445.143 437.459 445.115 436.832 444.894 436.285L516.981 398.885C517.253 399.311 517.661 399.657 518.17 399.849C519.427 400.323 520.83 399.685 521.303 398.427C521.776 397.17 521.138 395.768 519.881 395.295C519.514 395.158 519.137 395.117 518.773 395.156L499.58 298.87C500.769 299.18 502.026 298.546 502.468 297.37C502.941 296.113 502.303 294.711 501.046 294.237C500.931 294.194 500.817 294.164 500.699 294.14L504.946 258.292C505.954 258.317 506.911 257.714 507.285 256.718C507.473 256.216 507.482 255.693 507.349 255.213L550.04 239.019L549.978 239.632L550.451 238.861L550.708 238.763L550.584 238.643L591.106 172.703C591.178 172.737 591.252 172.77 591.328 172.799C592.585 173.272 593.987 172.634 594.461 171.377C594.934 170.12 594.296 168.718 593.039 168.245C591.781 167.771 590.379 168.409 589.906 169.666C589.73 170.134 589.709 170.623 589.816 171.075L556.819 182.091C556.761 182.062 556.7 182.035 556.637 182.011C556.324 181.893 556 181.846 555.685 181.858L547.913 123.34C548.683 123.163 549.35 122.619 549.649 121.824C550.122 120.567 549.484 119.165 548.227 118.692C546.97 118.218 545.568 118.856 545.094 120.113C544.907 120.61 544.897 121.132 545.028 121.607L506.694 135.966C506.432 135.425 505.971 134.977 505.361 134.748C504.544 134.441 503.668 134.605 503.024 135.098L483.195 113.729C483.392 113.511 483.553 113.254 483.662 112.962C484.135 111.705 483.497 110.303 482.24 109.83C480.983 109.356 479.581 109.994 479.108 111.251C478.822 112.015 478.945 112.831 479.366 113.461L454.297 133.859C454.057 133.613 453.762 133.414 453.416 133.284C452.287 132.86 451.045 133.33 450.458 134.34L421.065 119.164C421.517 117.913 420.882 116.528 419.633 116.059C418.376 115.586 416.973 116.224 416.5 117.481C416.418 117.7 416.371 117.923 416.354 118.147L391.575 119.186C391.459 118.329 390.888 117.56 390.02 117.235C389.794 117.15 389.565 117.103 389.336 117.088L388.515 79.3947C389.393 79.293 390.185 78.7188 390.515 77.8349C390.988 76.5778 390.35 75.1753 389.093 74.7022C387.836 74.229 386.434 74.867 385.96 76.1241C385.925 76.2166 385.9 76.3086 385.876 76.402L330.869 68.243C330.927 67.2096 330.315 66.2145 329.296 65.8322C328.039 65.359 326.637 65.997 326.163 67.2541C325.69 68.5113 326.328 69.9137 327.585 70.3869C327.944 70.5223 328.315 70.5633 328.672 70.5287L343.867 150.488C343.209 150.718 342.655 151.226 342.392 151.928C341.919 153.185 342.557 154.588 343.814 155.061C345.071 155.534 346.473 154.896 346.946 153.639C346.992 153.514 347.025 153.387 347.052 153.26L375.644 154.684C375.663 155.65 376.259 156.555 377.219 156.915C377.53 157.032 377.853 157.081 378.165 157.069L389.01 223.887C388.27 224.078 387.632 224.616 387.341 225.385C386.868 226.642 387.506 228.044 388.763 228.517C390.02 228.991 391.423 228.353 391.896 227.095C392.005 226.807 392.051 226.51 392.049 226.221L423.199 223.065C423.356 223.864 423.909 224.569 424.73 224.875L424.515 224.812L402.007 301.172C400.859 300.946 399.685 301.572 399.261 302.701C399.042 303.284 399.065 303.896 399.272 304.434L369.47 319.259C369.197 318.817 368.784 318.457 368.258 318.262C367 317.79 365.599 318.427 365.126 319.684C364.652 320.941 365.29 322.343 366.548 322.816C367.037 323.001 367.55 323.015 368.021 322.889L385.233 370.123C384.681 370.384 384.227 370.848 383.995 371.465C383.522 372.722 384.16 374.124 385.417 374.597C385.941 374.794 386.488 374.797 386.984 374.642L398.681 403.116C398.169 403.383 397.751 403.831 397.531 404.413C397.058 405.67 397.696 407.073 398.953 407.546C399.086 407.596 399.222 407.63 399.355 407.657L395.079 463.929C394.128 463.965 393.248 464.56 392.892 465.505C392.626 466.217 392.713 466.976 393.07 467.587L361.973 490.679C361.716 490.38 361.382 490.14 360.988 489.991C359.731 489.518 358.329 490.156 357.855 491.413C357.384 492.671 358.02 494.072 359.277 494.546C359.287 494.548 359.297 494.551 359.305 494.555L354.589 523.97L352.097 539.518C351.134 539.543 350.237 540.137 349.877 541.094C349.404 542.351 350.042 543.754 351.299 544.227C352.277 544.594 353.339 544.29 353.987 543.547L384.222 560.548C384.209 560.579 384.194 560.61 384.181 560.644C383.708 561.901 384.346 563.304 385.603 563.777C386.86 564.25 388.263 563.612 388.736 562.355C388.847 562.056 388.896 561.75 388.889 561.45L421.112 559.378C421.245 560.214 421.808 560.957 422.658 561.275C423.916 561.748 425.318 561.11 425.791 559.853ZM354.525 541.409C354.348 540.639 353.804 539.971 353.01 539.672C352.856 539.615 352.701 539.576 352.547 539.549L355.372 521.919L359.74 494.669C359.974 494.708 360.208 494.71 360.437 494.68L376.743 537.317L354.527 541.407L354.525 541.409ZM388.162 370.79L404.62 354.74L428.627 376.607C428.49 376.789 428.374 376.992 428.29 377.216C428.25 377.322 428.222 377.43 428.197 377.537L388.703 372.407C388.725 371.816 388.529 371.241 388.162 370.79ZM369.343 322.001C369.48 321.818 369.596 321.615 369.68 321.391C369.729 321.26 369.763 321.131 369.788 320.999L430.297 326.998C430.293 327.563 430.487 328.109 430.837 328.543L404.607 354.124L369.342 322.002L369.343 322.001ZM507.933 140.487L482.254 153.36L502.673 138.623C502.929 138.916 503.261 139.152 503.652 139.301C504.533 139.632 505.482 139.417 506.135 138.829L507.933 140.487ZM546.518 123.245C546.832 123.362 547.155 123.41 547.47 123.398L555.239 181.916C554.835 182.009 554.461 182.203 554.153 182.482L508.718 140.599L545.313 122.253C545.586 122.692 545.999 123.049 546.52 123.246L546.518 123.245ZM517.236 395.92C517.049 396.124 516.896 396.361 516.783 396.627L478.463 384.558C478.716 383.399 478.087 382.198 476.941 381.768L483.338 358.306L517.236 395.92ZM388.122 559.72C388.084 559.686 388.044 559.65 388.002 559.618L410.726 533.016C410.892 533.133 411.072 533.231 411.27 533.307C411.791 533.504 412.337 533.505 412.831 533.355L415.503 539.916L388.122 559.72ZM440.537 484.901L446.024 475.908C446.093 475.942 446.164 475.973 446.239 476.001C446.705 476.176 447.189 476.198 447.639 476.095L450.084 483.534L414.115 528.201L440.537 484.901ZM445.642 475.675L426.451 507.123L413.196 528.846C413.127 528.811 413.056 528.78 412.981 528.752C412.566 528.596 412.136 528.563 411.727 528.632L400.021 484.102L444.773 474.455C444.925 474.936 445.225 475.366 445.638 475.675L445.642 475.675ZM413.247 533.186C413.762 532.919 414.184 532.47 414.403 531.885C414.617 531.319 414.603 530.723 414.41 530.196L456.577 510.21L415.877 539.645L413.245 533.184L413.247 533.186ZM456.408 508.109C456.195 508.675 456.208 509.271 456.401 509.798L414.219 529.791C414.109 529.607 413.976 529.436 413.822 529.285L450.253 484.045L457.717 506.736C457.134 506.991 456.65 507.468 456.41 508.11L456.408 508.109ZM458.142 506.593L450.587 483.627L457.643 474.865C457.793 474.963 457.956 475.05 458.13 475.116C458.331 475.191 458.535 475.236 458.74 475.257L458.478 506.542C458.364 506.551 458.25 506.567 458.138 506.593L458.142 506.593ZM456.589 473.242C456.676 473.75 456.919 474.222 457.292 474.582L450.42 483.117L448.064 475.955C448.647 475.7 449.13 475.223 449.37 474.581C449.471 474.315 449.518 474.041 449.523 473.77L456.589 473.242ZM445.899 471.607L428.32 446.245L440.696 438.655C440.965 439.015 441.334 439.306 441.787 439.477C442.092 439.592 442.406 439.639 442.713 439.631L446.579 471.348C446.341 471.401 446.112 471.487 445.899 471.607ZM401.799 406.66C401.913 406.497 402.012 406.317 402.086 406.121C402.23 405.736 402.271 405.341 402.222 404.962L434.011 396.06L441.937 434.871C441.513 435 441.129 435.241 440.829 435.575L401.798 406.659L401.799 406.66ZM427.564 221.181L447.868 205.119C448.119 205.397 448.438 205.623 448.814 205.762C448.997 205.831 449.182 205.874 449.37 205.897L450.114 215.237L427.788 221.563C427.725 221.428 427.65 221.3 427.564 221.178L427.564 221.181ZM388.643 121.882C389.404 122.051 390.183 121.84 390.752 121.352L402.4 132.577L379.655 152.793C379.446 152.613 379.202 152.464 378.93 152.36L388.645 121.884L388.643 121.882ZM379.968 153.114L402.725 132.887L438.96 167.811C438.805 168.006 438.675 168.228 438.583 168.474C438.574 168.502 438.566 168.531 438.556 168.559L380.486 154.931C380.566 154.272 380.371 153.619 379.97 153.115L379.968 153.114ZM473.809 383.187C473.768 383.292 473.74 383.397 473.715 383.505L432.996 378.162C433.023 377.471 432.751 376.799 432.257 376.321L451.276 352.627L474.42 382.272C474.158 382.52 473.945 382.826 473.809 383.187ZM431.905 376.041C431.755 375.942 431.595 375.858 431.42 375.791C431.239 375.723 431.056 375.681 430.872 375.658L432.486 329.426C432.708 329.448 432.927 329.44 433.14 329.401L450.988 352.262L431.903 376.039L431.905 376.041ZM433.61 329.272C433.902 329.156 434.171 328.988 434.4 328.771L459.196 335.441L461.597 336.087C461.461 336.873 461.721 337.664 462.269 338.217L451.281 351.907L433.614 329.275L433.61 329.272ZM461.716 335.646C461.716 335.646 461.714 335.648 461.713 335.65L459.321 335.007L434.722 328.39C434.833 328.23 434.928 328.053 435.001 327.862C435.12 327.545 435.168 327.22 435.156 326.904L454.277 318.039L462.662 334.464C462.244 334.738 461.902 335.14 461.714 335.645L461.716 335.646ZM474.775 381.996L451.564 352.267L462.613 338.503C462.773 338.614 462.948 338.708 463.138 338.779C463.534 338.927 463.943 338.966 464.334 338.91L475.271 381.751C475.098 381.812 474.932 381.895 474.775 381.996ZM498.396 298.151L465.413 334.53C465.243 334.407 465.053 334.303 464.849 334.224C464.245 333.998 463.611 334.028 463.06 334.258L454.687 317.852L498.086 297.73C498.173 297.882 498.277 298.021 498.397 298.15L498.396 298.151ZM454.481 317.453L444.737 298.365C445.117 298.094 445.422 297.712 445.597 297.242C445.666 297.059 445.71 296.872 445.732 296.686L477.327 296.714L497.766 296.733C497.785 296.937 497.827 297.135 497.896 297.324L454.481 317.453ZM553.708 185.56L535.707 198.779L524.58 206.948C524.325 206.661 524.001 206.43 523.615 206.285C522.859 206 522.053 206.12 521.426 206.532L513.915 197.122L553.538 185.235C553.587 185.348 553.644 185.457 553.707 185.561L553.708 185.56ZM453.9 234.447L482.099 207.777C482.314 207.965 482.564 208.123 482.848 208.228C483.336 208.41 483.846 208.425 484.316 208.302L489.805 221.071L454.162 234.861C454.089 234.714 454 234.574 453.9 234.444L453.9 234.447ZM484.739 208.151C485.292 207.89 485.749 207.425 485.981 206.806C486.039 206.65 486.08 206.494 486.105 206.335L520.328 208.623C520.334 208.828 520.367 209.03 520.422 209.224L490.223 220.909L484.737 208.149L484.739 208.151ZM521.075 206.811C520.822 207.055 520.615 207.355 520.482 207.707C520.425 207.861 520.383 208.019 520.357 208.175L508.134 207.352L486.135 205.872C486.131 205.736 486.113 205.601 486.087 205.469L513.454 197.259L521.078 206.811L521.075 206.811ZM485.956 205.04C485.71 204.431 485.222 203.923 484.559 203.673C484.289 203.573 484.015 203.525 483.744 203.52L480.258 157.208C480.591 157.15 480.905 157.026 481.187 156.841L513.148 196.881L485.955 205.039L485.956 205.04ZM478.999 157.089C479.268 157.19 479.543 157.237 479.813 157.242L483.299 203.554C482.815 203.635 482.365 203.864 482.011 204.207L460.752 186.036L478.769 156.988C478.845 157.026 478.921 157.058 479 157.087L478.999 157.089ZM481.718 204.548C481.601 204.715 481.501 204.897 481.426 205.095C481.402 205.155 481.386 205.216 481.368 205.276L452.096 203.544C452.114 202.765 451.757 202.018 451.134 201.545L460.513 186.422L481.718 204.548ZM451.945 204.339C451.988 204.224 452.019 204.106 452.045 203.99L481.285 205.721C481.264 205.949 481.276 206.174 481.316 206.395L450.554 215.113L449.821 205.913C450.746 205.855 451.599 205.267 451.945 204.342L451.945 204.339ZM481.439 206.826C481.509 207.01 481.601 207.186 481.714 207.349L453.585 234.115C453.372 233.929 453.124 233.776 452.841 233.669C452.571 233.568 452.293 233.52 452.018 233.517L450.587 215.57L481.437 206.828L481.439 206.826ZM444.177 294.111C444.143 294.098 444.109 294.089 444.073 294.078L448.69 261.108L451.873 238.379C452.39 238.403 452.894 238.259 453.319 237.982L480.309 271.894L445.319 295C445.047 294.607 444.659 294.291 444.177 294.111ZM454.335 236.589C454.457 236.148 454.446 235.7 454.327 235.285L489.986 221.487L503.843 253.721C503.41 253.957 503.046 254.324 502.816 254.794L454.335 236.589ZM504.255 253.542L490.405 221.324L520.587 209.645C520.82 210.114 521.202 210.509 521.701 210.75L505.644 253.509C505.175 253.379 504.692 253.398 504.255 253.542ZM525.04 209.418C525.311 208.694 525.215 207.925 524.847 207.31L532.959 201.354L553.978 185.921C554.046 185.994 554.118 186.065 554.194 186.131L530.742 219.187L522.35 210.96C523.479 211.155 524.622 210.53 525.04 209.418ZM553.424 183.666C553.324 184.05 553.322 184.438 553.401 184.806L513.613 196.744L481.539 156.563C481.736 156.375 481.903 156.153 482.031 155.9L553.424 183.666ZM478.39 156.752L460.408 185.744L442.845 170.732C442.962 170.565 443.063 170.383 443.138 170.185C443.325 169.689 443.336 169.17 443.206 168.697L477.666 155.868C477.832 156.211 478.077 156.516 478.39 156.752ZM442.553 171.073L460.167 186.129L450.753 201.307C450.678 201.27 450.601 201.237 450.522 201.208C450.111 201.053 449.685 201.02 449.278 201.085L441.679 171.618C442.003 171.502 442.3 171.317 442.55 171.073L442.553 171.073ZM427.939 221.99L450.149 215.694L451.571 233.553C450.908 233.669 450.31 234.055 449.936 234.641L427.908 223.309C428.043 222.867 428.048 222.412 427.94 221.991L427.939 221.99ZM427.735 223.726L449.733 235.041C449.726 235.059 449.717 235.075 449.71 235.093C449.237 236.35 449.875 237.753 451.132 238.226C451.23 238.262 451.33 238.292 451.43 238.315L444.308 289.155L443.634 293.979C443.469 293.957 443.304 293.953 443.142 293.965L426.48 224.855C427.008 224.645 427.461 224.255 427.739 223.725L427.735 223.726ZM444.348 298.592L454.072 317.643L435.089 326.445C434.914 325.723 434.412 325.096 433.687 324.781L442.921 298.788C443.415 298.87 443.909 298.795 444.345 298.592L444.348 298.592ZM432.842 378.927C432.882 378.822 432.91 378.717 432.935 378.609L473.655 383.952C473.648 384.13 473.661 384.308 473.693 384.479L434.352 395.496L431.268 380.396C431.968 380.183 432.564 379.662 432.842 378.924L432.842 378.927ZM443.493 434.921C443.123 434.782 442.741 434.743 442.373 434.783L434.439 395.94L473.813 384.913C473.972 385.328 474.242 385.699 474.603 385.975L443.737 435.029C443.659 434.989 443.577 434.952 443.493 434.921ZM476.504 381.649C476.235 381.603 475.964 381.601 475.703 381.644L464.768 338.811C465.01 338.73 465.237 338.608 465.446 338.454L482.979 357.91L476.506 381.651L476.504 381.649ZM465.778 338.152C465.986 337.928 466.153 337.662 466.269 337.359C466.608 336.455 466.374 335.48 465.752 334.826L498.728 298.454C498.85 298.546 498.982 298.628 499.125 298.697L483.122 357.392L465.783 338.151L465.778 338.152ZM497.909 295.655C497.83 295.863 497.786 296.073 497.766 296.283L445.747 296.237C445.728 295.942 445.657 295.655 445.538 295.391L480.588 272.245L498.504 294.756C498.248 295 498.043 295.301 497.909 295.655ZM480.684 271.645L453.67 237.703C453.873 237.508 454.047 237.278 454.176 237.01L502.657 255.216C502.487 255.834 502.575 256.468 502.86 257.004L480.686 271.647L480.684 271.645ZM506.063 253.668L521.994 211.244L530.476 219.561L506.218 253.754C506.168 253.723 506.117 253.696 506.063 253.668ZM554.559 186.39C554.674 186.457 554.793 186.516 554.922 186.565C555.05 186.614 555.18 186.647 555.31 186.673L550.118 238.187L531.065 219.508L554.558 186.391L554.559 186.39ZM553.842 182.81C553.762 182.916 553.688 183.031 553.625 183.152L553.47 183.203L482.19 155.481C482.342 154.953 482.304 154.411 482.117 153.928L508.282 140.811L553.842 182.807L553.842 182.81ZM482.863 114.031L502.692 135.4C502.495 135.619 502.334 135.875 502.225 136.167C502.154 136.354 502.113 136.544 502.089 136.734L480.745 136.164L481.518 114.534C482.008 114.507 482.476 114.33 482.861 114.033L482.863 114.031ZM502.078 137.183C502.103 137.565 502.217 137.934 502.409 138.258L481.688 153.213C481.433 152.92 481.101 152.684 480.71 152.534C480.53 152.466 480.346 152.425 480.165 152.401L480.729 136.612L502.078 137.183ZM479.718 152.384C479.055 152.422 478.433 152.73 478.002 153.239L454.616 136.857C454.703 136.721 454.778 136.571 454.838 136.413C454.899 136.251 454.94 136.085 454.965 135.92L480.283 136.597L479.719 152.383L479.718 152.384ZM454.341 137.214L474.575 151.387L452.152 137.957C452.967 138.095 453.79 137.806 454.341 137.214ZM477.664 153.759C477.634 153.823 477.605 153.888 477.579 153.955C477.391 154.451 477.38 154.97 477.51 155.443L443.05 168.272C442.788 167.728 442.326 167.278 441.716 167.049C441.179 166.847 440.615 166.849 440.108 167.016L420.018 120.424C420.321 120.244 420.588 119.995 420.793 119.693L477.667 153.759L477.664 153.759ZM439.696 167.195C439.546 167.278 439.403 167.372 439.271 167.486L403.06 132.588L417.108 120.101C417.337 120.316 417.609 120.491 417.924 120.609C418.49 120.822 419.084 120.807 419.609 120.616L439.694 167.193L439.696 167.195ZM416.814 119.764L402.739 132.274L391.066 121.024C391.221 120.828 391.351 120.607 391.443 120.36C391.534 120.118 391.583 119.873 391.595 119.627L416.363 118.59C416.409 119.015 416.565 119.419 416.815 119.762L416.814 119.764ZM386.887 118.651C386.426 119.877 387.021 121.237 388.216 121.743L378.541 152.095L388.076 79.9027L388.886 117.088C388.009 117.19 387.217 117.764 386.887 118.648L386.887 118.651ZM387.383 79.2489C387.487 79.2879 387.594 79.3173 387.7 79.3404L378.076 152.202C377.71 152.202 377.352 152.284 377.027 152.439L361.087 124.621L387.229 79.1791C387.281 79.2018 387.331 79.2262 387.385 79.2472L387.383 79.2489ZM380.352 155.49C380.367 155.449 380.378 155.407 380.39 155.367L438.451 168.993C438.348 169.722 438.588 170.449 439.074 170.977L425.128 186.466L380.202 155.811C380.258 155.708 380.31 155.603 380.352 155.49ZM439.408 171.278C439.586 171.411 439.785 171.523 440.007 171.606C440.417 171.761 440.844 171.794 441.25 171.728L448.85 201.195C448.444 201.341 448.079 201.595 447.799 201.933L425.505 186.721L439.411 171.277L439.408 171.278ZM447.544 202.307C447.487 202.41 447.434 202.516 447.392 202.63C447.204 203.131 447.195 203.655 447.326 204.133L391.803 225.171C391.7 224.961 391.567 224.766 391.405 224.59L425.197 187.06L447.542 202.309L447.544 202.307ZM391.963 225.591L447.485 204.554C447.519 204.623 447.556 204.693 447.599 204.759L427.271 220.842C427.04 220.618 426.76 220.439 426.442 220.319C425.184 219.847 423.783 220.484 423.31 221.741C423.201 222.03 423.154 222.326 423.157 222.616L392.008 225.77C391.997 225.708 391.981 225.649 391.965 225.589L391.963 225.591ZM426.049 224.981L442.701 294.039C441.967 294.233 441.333 294.769 441.046 295.534C440.918 295.878 440.873 296.233 440.9 296.579L403.887 302.926C403.696 302.21 403.178 301.593 402.439 301.299L424.947 224.943C425.318 225.045 425.693 225.054 426.051 224.983L426.049 224.981ZM403.816 304.409C403.944 304.065 403.989 303.71 403.963 303.366L440.161 297.158L407.305 307.608L403.612 304.83C403.693 304.7 403.763 304.558 403.819 304.409L403.816 304.409ZM441.085 297.337C441.337 297.93 441.817 298.423 442.468 298.667C442.474 298.67 442.482 298.671 442.491 298.675L433.264 324.642C432.397 324.444 431.508 324.741 430.927 325.378L407.742 307.941L441.083 297.339L441.085 297.337ZM430.657 325.736C430.576 325.866 430.506 326.008 430.45 326.157C430.403 326.287 430.366 326.417 430.342 326.549L369.833 320.55C369.833 320.369 369.816 320.19 369.778 320.014L407.218 308.107L430.657 325.736ZM431.151 328.862C431.359 329.04 431.599 329.186 431.872 329.29C431.928 329.311 431.987 329.327 432.043 329.344L430.428 375.644C429.87 375.677 429.341 375.902 428.929 376.275L404.941 354.424L431.151 328.862ZM428.903 379.847C429.129 380.06 429.402 380.233 429.712 380.349C430.082 380.488 430.464 380.527 430.832 380.487L433.923 395.618L402.125 404.524C402.053 404.299 401.948 404.086 401.815 403.891L428.907 379.847L428.903 379.847ZM401.507 407.005L440.562 435.938C440.484 436.065 440.416 436.201 440.363 436.343C440.118 436.999 440.175 437.69 440.461 438.272L428.064 445.875L401.265 407.213C401.351 407.148 401.432 407.079 401.509 407.003L401.507 407.005ZM427.935 446.481L445.529 471.863C445.219 472.124 444.968 472.463 444.816 472.87C444.779 472.968 444.753 473.064 444.728 473.163L407.08 467.815L397.597 466.469C397.616 466.042 397.519 465.622 397.33 465.252L427.934 446.483L427.935 446.481ZM397.447 467.216C397.485 467.117 397.513 467.015 397.536 466.913L444.663 473.607C444.656 473.745 444.662 473.88 444.678 474.016L399.907 483.667L395.963 468.66C396.625 468.431 397.183 467.922 397.447 467.216ZM399.582 484.196L411.294 528.747C410.919 528.884 410.581 529.112 410.311 529.415L361.995 493.829C362.168 493.624 362.31 493.39 362.409 493.125C362.526 492.814 362.574 492.492 362.563 492.179L399.582 484.2L399.582 484.196ZM360.88 494.581C361.168 494.486 361.439 494.34 361.673 494.146L410.045 529.774C409.969 529.899 409.903 530.033 409.851 530.174C409.719 530.529 409.676 530.892 409.707 531.247L377.193 537.233L360.882 494.579L360.88 494.581ZM409.786 531.69C409.896 532.078 410.099 532.433 410.383 532.725L387.628 559.366C387.527 559.311 387.424 559.261 387.314 559.219C386.738 559.002 386.133 559.02 385.6 559.223L377.354 537.662L409.786 531.69ZM388.42 560.061L415.677 540.348L422.393 556.841C421.877 557.108 421.455 557.557 421.236 558.142C421.139 558.402 421.091 558.667 421.084 558.929L388.838 561.002C388.766 560.663 388.626 560.343 388.42 560.061ZM424.721 556.889C424.61 556.825 424.493 556.768 424.369 556.72C423.848 556.523 423.303 556.522 422.808 556.672L416.05 540.077L456.854 510.568C456.931 510.656 457.018 510.74 457.11 510.817L424.721 556.889ZM457.771 470.732C457.299 471.004 456.914 471.435 456.706 471.985C456.606 472.251 456.558 472.525 456.553 472.796L449.487 473.324C449.349 472.498 448.787 471.765 447.947 471.45C447.642 471.336 447.328 471.288 447.021 471.297L443.155 439.579C443.253 439.558 443.35 439.531 443.445 439.499L457.771 470.735L457.771 470.732ZM444.684 435.888C444.535 435.654 444.346 435.444 444.119 435.27L474.985 386.216C475.063 386.257 475.145 386.294 475.229 386.324C476.457 386.786 477.822 386.187 478.325 384.987L516.645 397.056C516.539 397.547 516.588 398.042 516.769 398.485L444.682 435.886L444.684 435.888ZM518.328 395.241C518.055 395.322 517.796 395.452 517.567 395.623L483.477 357.793L499.298 299.771L518.329 395.242L518.328 395.241ZM500.248 294.084C499.749 294.07 499.264 294.213 498.855 294.48L480.965 272.001L503.107 257.38C503.373 257.71 503.724 257.978 504.149 258.137C504.264 258.18 504.379 258.21 504.496 258.234L500.249 294.082L500.248 294.084ZM507.186 254.791C507.041 254.498 506.838 254.233 506.587 254.016L530.803 219.882L549.888 238.593L507.187 254.792L507.186 254.791ZM589.954 171.502C590.12 171.878 590.383 172.214 590.72 172.467L550.617 237.723L555.756 186.718C556.747 186.725 557.684 186.124 558.054 185.143C558.432 184.135 558.098 183.04 557.308 182.398L589.954 171.499L589.954 171.502ZM543.496 122.66L508.36 140.274L506.439 138.502C506.58 138.318 506.698 138.11 506.783 137.881C506.97 137.385 506.981 136.862 506.851 136.386L543.498 122.659L543.496 122.66ZM479.647 113.81C479.887 114.057 480.184 114.258 480.528 114.386C480.708 114.454 480.89 114.494 481.072 114.52L480.298 136.154L454.989 135.477C454.973 135.021 454.826 134.584 454.578 134.209L479.647 113.81ZM450.268 134.749C449.981 135.558 450.148 136.421 450.64 137.055L425.065 121.735L450.267 134.748L450.268 134.749ZM385.807 76.8445C385.762 77.6769 386.151 78.4803 386.836 78.9643L360.827 124.178L329.84 70.1018C330.226 69.8303 330.538 69.4434 330.718 68.9681C330.753 68.8756 330.78 68.782 330.802 68.6902L385.809 76.846L385.807 76.8445ZM329.113 70.4452C329.228 70.4121 329.342 70.3728 329.45 70.3225L360.565 124.626L345.645 150.56C345.604 150.542 345.563 150.523 345.521 150.506C345.117 150.354 344.699 150.319 344.3 150.38L329.113 70.4452ZM347.099 152.815C347.109 152.009 346.716 151.24 346.04 150.78L360.825 125.08L376.638 152.678C376.267 152.948 375.967 153.325 375.794 153.786C375.738 153.935 375.699 154.086 375.673 154.239L347.099 152.815ZM378.609 157.012C379.129 156.894 379.602 156.607 379.946 156.189L424.821 186.809L391.07 224.294C390.891 224.16 390.693 224.048 390.471 223.966C390.134 223.841 389.788 223.795 389.45 223.818L378.608 157.014L378.609 157.012ZM400.682 305.836C401.642 306.196 402.686 305.909 403.337 305.192L406.777 307.779L370.115 319.438L399.472 304.837C399.744 305.279 400.158 305.639 400.685 305.835L400.682 305.836ZM368.44 322.735C368.657 322.631 368.86 322.497 369.038 322.333L404.285 354.438L387.846 370.469C387.638 370.291 387.397 370.143 387.126 370.041C386.636 369.857 386.123 369.842 385.653 369.969L368.44 322.735ZM387.4 374.473C387.912 374.206 388.33 373.758 388.55 373.175C388.59 373.07 388.618 372.962 388.642 372.854L428.136 377.984C428.116 378.537 428.286 379.074 428.606 379.513L401.525 403.549C401.288 403.311 400.998 403.117 400.663 402.993C400.139 402.796 399.592 402.793 399.096 402.948L387.398 374.474L387.4 374.473ZM399.803 407.7C400.18 407.701 400.549 407.613 400.88 407.45L427.679 446.111L397.09 464.87C396.824 464.525 396.463 464.245 396.023 464.082C395.858 464.021 395.694 463.978 395.525 463.954L399.799 407.697L399.803 407.7ZM393.329 467.953C393.586 468.252 393.92 468.492 394.314 468.641C394.717 468.792 395.13 468.829 395.526 468.769L399.467 483.764L362.501 491.731C362.445 491.49 362.355 491.258 362.231 491.047L393.329 467.953ZM354.251 543.18C354.321 543.062 354.381 542.938 354.432 542.805C354.55 542.492 354.599 542.17 354.587 541.854L376.905 537.744L385.195 559.42C384.896 559.601 384.634 559.849 384.435 560.15L354.252 543.179L354.251 543.18Z" fill="#F5C07A"/>
<path d="M313.92 275.863L300.71 269.402C284.214 261.329 265.111 271.195 259.932 290.462C259.932 290.462 226.588 349.803 236.691 352.925C246.794 356.046 271.092 352.925 271.092 352.925L265.814 400H418.166L407.713 292.106C405.567 271.423 385.511 259.574 368.99 269.23L358.675 275.264L313.916 275.868L313.92 275.863Z" fill="#854747"/>
<path d="M235.24 240.851L227.161 233.903C224.234 231.387 219.843 231.632 217.217 234.46C214.561 237.32 214.676 241.784 217.483 244.503L225.135 251.92C228.067 254.764 232.74 254.733 235.636 251.857C238.74 248.774 238.558 243.706 235.24 240.851Z" fill="#FFBE97"/>
<path d="M443.603 308.592L474.855 301.019C478.022 300.539 480.231 297.617 479.814 294.44C479.366 291.038 476.116 288.741 472.761 289.45L441.597 297.513L443.603 308.592Z" fill="#FFBE97"/>
<path d="M446.598 240.851L454.676 233.903C457.604 231.387 461.995 231.632 464.62 234.46C467.277 237.32 467.162 241.784 464.354 244.503L456.703 251.92C453.77 254.764 449.098 254.733 446.202 251.857C443.097 248.774 443.28 243.706 446.598 240.851Z" fill="#FFBE97"/>
<path d="M393.046 219.365C393.046 219.365 369.82 266.416 341.703 266.135C313.586 265.854 293.48 241.784 291.323 212.541C290.256 198.045 294.865 181.002 301.392 174.376C308.841 166.824 324.811 159.771 339.062 158.224C359.496 156.01 374.477 171.928 374.477 171.928C374.477 171.928 388.587 175.949 394.406 190.763C398.224 200.488 393.046 219.365 393.046 219.365Z" fill="#4F2B2B"/>
<path d="M382.66 212.145C387.483 223.385 385.561 247.143 375.081 260.061C363.845 273.911 352.433 275.755 338.166 275.755C323.899 275.755 307.325 266.139 300.824 247.278C292.563 223.313 301.037 197.237 323.639 187.533C346.24 177.834 372.664 188.851 382.665 212.145H382.66Z" fill="#FFBE97"/>
<path d="M380.446 228.365C379.498 236.137 378.378 242.851 384.894 243.643C391.411 244.435 399.323 238.7 400.266 230.928C401.214 223.157 396.698 216.208 390.181 215.416C383.665 214.625 381.389 220.594 380.441 228.365H380.446Z" fill="#FFBE97"/>
<path d="M355.985 221.502C355.938 223.659 357.011 225.43 358.387 225.461C359.762 225.492 360.908 223.768 360.955 221.611C361.001 219.455 359.928 217.684 358.553 217.653C357.178 217.622 356.032 219.346 355.985 221.502Z" fill="#4F2B2B"/>
<path d="M322.201 221.314C322.154 223.47 323.227 225.241 324.602 225.272C325.978 225.304 327.124 223.579 327.17 221.423C327.217 219.267 326.144 217.496 324.769 217.464C323.399 217.433 322.248 219.157 322.201 221.314Z" fill="#4F2B2B"/>
<path d="M320.326 238.767C310.872 238.767 303.178 231.074 303.178 221.62C303.178 212.166 310.872 204.473 320.326 204.473C329.78 204.473 337.473 212.166 337.473 221.62C337.473 231.074 329.78 238.767 320.326 238.767ZM320.326 205.853C311.632 205.853 304.559 212.927 304.559 221.62C304.559 230.314 311.632 237.387 320.326 237.387C329.019 237.387 336.093 230.314 336.093 221.62C336.093 212.927 329.019 205.853 320.326 205.853Z" fill="white"/>
<path d="M361.465 238.767C352.011 238.767 344.317 231.074 344.317 221.62C344.317 212.166 352.011 204.473 361.465 204.473C370.919 204.473 378.612 212.166 378.612 221.62C378.612 231.074 370.919 238.767 361.465 238.767ZM361.465 205.853C352.771 205.853 345.698 212.927 345.698 221.62C345.698 230.314 352.771 237.387 361.465 237.387C370.158 237.387 377.232 230.314 377.232 221.62C377.232 212.927 370.158 205.853 361.465 205.853Z" fill="white"/>
<path d="M332.822 230.964L337.603 236.83L342.333 217.302L332.822 230.964Z" fill="#FFBE97"/>
<path d="M302.673 228.767C303.621 236.539 304.777 242.852 298.266 243.649C291.75 244.44 283.838 238.706 282.895 230.934C281.947 223.162 286.463 216.214 292.98 215.422C299.496 214.63 301.73 220.996 302.678 228.772L302.673 228.767Z" fill="#FFBE97"/>
<path d="M346.031 217.028C342.031 216.08 338.666 216.08 335.734 217.012L335.317 215.699C338.494 214.684 342.099 214.684 346.349 215.684L346.031 217.022V217.028Z" fill="white"/>
<path d="M376.295 183.852C376.295 183.852 358.226 201.062 350.168 202.859C342.11 204.656 334.27 202.645 334.27 202.645L338.031 196.848C338.031 196.848 333.156 202.213 327.4 203.077C321.644 203.942 313.716 202.577 313.716 202.577L318.706 195.54C318.706 195.54 309.226 205.984 300.038 204.348C300.038 204.348 318.285 173.309 338.63 174.356C358.976 175.403 376.29 183.852 376.29 183.852H376.295Z" fill="#4F2B2B"/>
<path d="M336.577 237.924C336.368 237.924 336.16 237.83 336.025 237.648L330.972 230.95L340.129 217.792C340.348 217.48 340.775 217.402 341.088 217.62C341.4 217.839 341.478 218.266 341.26 218.579L332.67 230.918L337.124 236.82C337.353 237.122 337.29 237.554 336.988 237.784C336.863 237.877 336.717 237.924 336.577 237.924Z" fill="#4F2B2B"/>
<path d="M338.349 252.145C337.208 252.145 336.494 252.04 336.468 252.035C336.093 251.978 335.838 251.624 335.895 251.249C335.953 250.874 336.302 250.619 336.682 250.676C337.109 250.744 347.146 252.192 352.24 242.774C352.423 242.441 352.84 242.316 353.173 242.498C353.506 242.68 353.631 243.097 353.449 243.43C349.261 251.171 341.818 252.145 338.349 252.145Z" fill="#4F2B2B"/>
<path d="M384.775 231.679C384.702 231.679 384.624 231.669 384.551 231.643C384.191 231.517 383.999 231.127 384.124 230.767C384.15 230.7 386.598 223.808 392.994 224.361C393.374 224.392 393.65 224.725 393.619 225.105C393.588 225.486 393.26 225.767 392.874 225.731C387.551 225.267 385.509 230.971 385.426 231.215C385.327 231.502 385.061 231.679 384.775 231.679Z" fill="#4F2B2B"/>
<path d="M297.167 231.679C296.881 231.679 296.615 231.502 296.516 231.215C296.433 230.971 294.386 225.272 289.068 225.731C288.682 225.767 288.354 225.486 288.323 225.105C288.291 224.725 288.568 224.392 288.948 224.361C295.36 223.808 297.792 230.7 297.818 230.767C297.943 231.127 297.751 231.517 297.391 231.643C297.318 231.669 297.24 231.679 297.167 231.679Z" fill="#4F2B2B"/>
<path d="M444.754 210.9C444.754 210.9 392.999 217.615 369.648 223.61C346.297 229.605 340.463 240.648 340.463 240.648C340.463 240.648 334.629 229.605 311.278 223.61C287.927 217.615 236.172 210.9 236.172 210.9L220.077 214.14L340.463 258.004L460.849 214.14L444.754 210.9Z" fill="#FFF4E9"/>
<path d="M332.025 377.395L231.594 340.027L216.259 210.9L332.025 246.925V377.395Z" fill="#3F97B1"/>
<path d="M348.907 377.395L451.286 342.194L464.673 210.9L348.907 246.925V377.395Z" fill="#3F97B1"/>
<path d="M348.907 377.395C343.281 379.989 337.656 379.989 332.03 377.395V246.925C337.656 249.837 343.281 249.837 348.907 246.925V377.395Z" fill="#3F97B1"/>
<path d="M341.593 257.346C338.765 258.08 337.025 261.471 338.202 264.18C339.348 266.831 342.901 267.909 345.365 266.472C345.677 266.289 345.76 265.893 345.599 265.581C344.781 264.024 342.463 264.471 341.171 265.039C339.635 265.711 338.489 267.065 338.333 268.769C338.192 270.295 338.947 271.873 340.421 272.441C341.791 272.967 343.437 272.545 344.239 271.279C344.505 270.857 344.156 270.3 343.677 270.3C341.01 270.311 338.156 271.748 337.484 274.514C336.874 277.03 338.301 279.702 341.02 279.884C342.328 279.973 343.614 279.4 344.323 278.285C344.526 277.962 344.349 277.395 343.932 277.332C340.755 276.842 337.728 279.311 337.937 282.614C338.031 284.145 338.786 285.744 340.166 286.526C341.484 287.27 343.453 286.869 343.802 285.213C343.87 284.9 343.713 284.468 343.349 284.416C340.411 283.963 337.874 286.442 338.437 289.406C338.692 290.76 339.723 292.177 341.161 292.385C342.583 292.589 343.791 291.234 343.182 289.875C343.062 289.614 342.703 289.51 342.448 289.578C340.421 290.088 338.744 291.615 338.051 293.589C337.317 295.683 337.879 298.042 339.307 299.699C339.854 300.334 340.77 299.412 340.223 298.782C339.093 297.469 338.723 295.573 339.301 293.938C339.848 292.391 341.218 291.234 342.791 290.838C342.547 290.74 342.302 290.641 342.057 290.542C342.177 290.807 341.791 291.083 341.578 291.12C341.13 291.198 340.666 290.844 340.385 290.536C339.833 289.932 339.593 289.099 339.65 288.291C339.77 286.656 341.385 285.427 343 285.677C342.849 285.411 342.698 285.145 342.547 284.88C342.291 286.093 340.833 285.567 340.244 284.963C339.484 284.187 339.161 283.062 339.244 281.994C339.406 279.864 341.494 278.275 343.594 278.598C343.463 278.28 343.333 277.962 343.203 277.645C342.661 278.499 341.552 278.764 340.609 278.535C339.473 278.254 338.765 277.275 338.65 276.129C338.369 273.274 341.145 271.628 343.682 271.618C343.495 271.29 343.307 270.967 343.12 270.639C342.651 271.378 341.625 271.54 340.849 271.233C339.89 270.847 339.52 269.743 339.635 268.784C339.765 267.67 340.557 266.805 341.531 266.315C342.182 265.992 344.015 265.357 344.479 266.253C344.557 265.956 344.635 265.659 344.713 265.362C342.906 266.414 340.223 265.623 339.385 263.659C338.525 261.654 339.89 259.143 341.948 258.612C342.755 258.403 342.411 257.148 341.604 257.356L341.593 257.346Z" fill="#4F2B2B"/>
<path d="M423.355 252.206C423.345 254.367 421.131 256.368 418.944 255.894C416.912 255.451 415.563 253.154 416.131 251.174C415.865 251.325 415.599 251.476 415.334 251.628C416.266 251.846 416.146 253.659 416.027 254.347C415.829 255.446 415.209 256.466 414.151 256.92C413.276 257.295 412.099 257.248 411.464 256.461C410.917 255.784 410.792 254.696 411.417 254.029C411.057 253.935 410.693 253.836 410.328 253.742C410.943 256.201 410 259.357 407.135 259.727C406.01 259.873 404.921 259.425 404.38 258.409C403.921 257.55 403.916 256.409 404.609 255.675C404.27 255.633 403.927 255.586 403.588 255.545C404.432 257.54 403.343 259.972 401.28 260.623C400.312 260.93 399.213 260.889 398.311 260.394C397.561 259.982 396.598 258.67 397.759 258.102C397.462 258.024 397.166 257.946 396.869 257.868C397.509 259.373 396.707 261.248 395.144 261.759C394.379 262.009 393.514 261.983 392.795 261.597C392.446 261.41 392.077 261.113 391.967 260.712C391.899 260.472 392.03 259.92 392.389 259.977C392.228 259.769 392.071 259.561 391.91 259.352C391.91 260.972 391.123 262.576 389.764 263.488C388.316 264.457 386.394 264.561 384.841 263.79C384.097 263.42 383.435 264.54 384.185 264.91C386.144 265.884 388.576 265.837 390.42 264.608C392.165 263.446 393.212 261.441 393.207 259.352C393.207 259.092 393.009 258.774 392.728 258.727C391.238 258.477 390.233 260.035 390.826 261.363C391.41 262.675 393.014 263.3 394.379 263.217C397.389 263.024 399.145 259.946 397.983 257.217C397.837 256.878 397.374 256.847 397.093 256.982C395.608 257.711 395.671 259.67 396.671 260.769C397.738 261.941 399.489 262.295 400.999 262.03C404.291 261.451 405.968 257.883 404.703 254.893C404.541 254.508 403.942 254.487 403.682 254.763C402.64 255.867 402.525 257.482 403.135 258.831C403.791 260.274 405.26 261.108 406.833 261.055C408.51 260.998 410.068 260.066 410.943 258.639C411.896 257.081 412.016 255.143 411.578 253.404C411.464 252.935 410.823 252.763 410.49 253.117C409.474 254.195 409.464 255.888 410.302 257.086C411.24 258.42 413.021 258.748 414.49 258.185C416.11 257.566 417.089 256.06 417.324 254.378C417.511 252.997 417.334 250.784 415.672 250.388C415.329 250.304 414.974 250.492 414.875 250.841C414.11 253.524 415.948 256.675 418.735 257.191C421.704 257.743 424.637 255.211 424.652 252.221C424.652 251.383 423.355 251.383 423.35 252.221L423.355 252.206Z" fill="#4F2B2B"/>
<path d="M350.933 375.707C350.553 375.707 350.246 375.4 350.246 375.02V251.076C350.246 250.696 350.553 250.389 350.933 250.389C351.313 250.389 351.621 250.696 351.621 251.076V375.02C351.621 375.4 351.313 375.707 350.933 375.707Z" fill="white"/>
<path d="M329.999 375.707C329.618 375.707 329.311 375.4 329.311 375.02V251.076C329.311 250.696 329.618 250.389 329.999 250.389C330.379 250.389 330.686 250.696 330.686 251.076V375.02C330.686 375.4 330.379 375.707 329.999 375.707Z" fill="white"/>
<path d="M340.463 249.721C335.484 249.721 332.306 247.903 331.734 247.549L216.051 211.551C215.686 211.436 215.483 211.051 215.598 210.692C215.712 210.327 216.098 210.129 216.457 210.238L332.228 246.263C332.291 246.283 332.348 246.309 332.405 246.346C332.437 246.367 335.499 248.341 340.463 248.341C345.427 248.341 348.49 246.361 348.521 246.341C348.574 246.304 348.636 246.278 348.699 246.257L464.47 210.233C464.829 210.124 465.22 210.322 465.329 210.686C465.444 211.051 465.24 211.436 464.876 211.546L349.193 247.544C348.62 247.898 345.443 249.716 340.463 249.716V249.721Z" fill="white"/>
<path d="M342.334 243.445C342.245 243.445 342.162 243.414 342.094 243.346C341.959 243.21 341.953 242.997 342.089 242.861C342.177 242.768 351.376 233.459 366.424 229.016C380.311 224.917 448.161 211.869 448.843 211.739C449.031 211.702 449.208 211.827 449.244 212.01C449.281 212.197 449.156 212.374 448.974 212.411C448.291 212.541 380.472 225.584 366.617 229.673C351.751 234.058 342.667 243.242 342.578 243.335C342.511 243.403 342.422 243.44 342.334 243.44V243.445Z" fill="white"/>
<path d="M343.484 246.633C343.38 246.633 343.276 246.586 343.208 246.492C343.094 246.341 343.125 246.122 343.276 246.013C343.37 245.94 352.897 238.919 370.268 234.116C384.212 230.267 450.52 212.651 451.192 212.474C451.374 212.421 451.562 212.536 451.614 212.718C451.661 212.901 451.552 213.088 451.369 213.14C450.703 213.317 384.394 230.934 370.456 234.783C353.22 239.544 343.781 246.497 343.688 246.565C343.625 246.612 343.552 246.633 343.484 246.633Z" fill="white"/>
<path d="M338.167 243.445C338.078 243.445 337.99 243.408 337.922 243.34C337.833 243.247 328.749 234.064 313.883 229.678C300.028 225.589 232.209 212.546 231.527 212.416C231.339 212.379 231.22 212.197 231.256 212.015C231.293 211.827 231.475 211.707 231.657 211.744C232.339 211.874 300.189 224.922 314.076 229.021C329.124 233.465 338.323 242.773 338.412 242.866C338.542 243.002 338.542 243.221 338.406 243.351C338.339 243.419 338.255 243.45 338.167 243.45V243.445Z" fill="white"/>
<path d="M337.015 246.633C336.942 246.633 336.869 246.612 336.812 246.565C336.718 246.497 327.285 239.544 310.044 234.783C296.105 230.934 229.797 213.317 229.13 213.14C228.948 213.093 228.838 212.901 228.885 212.718C228.932 212.536 229.125 212.421 229.307 212.474C229.974 212.651 296.287 230.267 310.231 234.116C327.603 238.913 337.13 245.94 337.223 246.013C337.374 246.128 337.406 246.341 337.291 246.492C337.223 246.581 337.119 246.633 337.015 246.633Z" fill="white"/>
<path d="M456.671 249.419L446.561 252.784C442.899 254.003 440.857 257.899 441.936 261.603C443.024 265.353 446.915 267.541 450.686 266.53L460.979 263.775C464.927 262.717 467.297 258.696 466.318 254.732C465.266 250.487 460.823 248.039 456.671 249.419Z" fill="#FFBE97"/>
<path d="M456.62 264.754L446.509 268.119C442.848 269.338 440.806 273.234 441.884 276.938C442.973 280.688 446.864 282.876 450.635 281.865L460.927 279.11C464.876 278.052 467.246 274.031 466.266 270.067C465.214 265.822 460.771 263.374 456.62 264.754Z" fill="#FFBE97"/>
<path d="M456.505 279.438L447.364 282.48C444.056 283.584 442.207 287.105 443.181 290.455C444.165 293.845 447.681 295.825 451.093 294.913L460.401 292.418C463.969 291.46 466.115 287.824 465.225 284.24C464.271 280.402 460.255 278.188 456.505 279.438Z" fill="#FFBE97"/>
<path d="M448.181 267.833C447.863 267.833 447.576 267.615 447.509 267.292C447.431 266.922 447.665 266.552 448.035 266.474L460.833 263.698C461.203 263.62 461.572 263.854 461.651 264.224C461.729 264.594 461.494 264.963 461.124 265.041L448.326 267.818C448.28 267.828 448.227 267.833 448.181 267.833Z" fill="#4F2B2B"/>
<path d="M447.64 282.803C447.322 282.803 447.035 282.584 446.968 282.261C446.89 281.891 447.124 281.521 447.494 281.443L460.292 278.667C460.662 278.584 461.031 278.823 461.11 279.193C461.188 279.563 460.953 279.933 460.583 280.011L447.785 282.787C447.739 282.798 447.686 282.803 447.64 282.803Z" fill="#4F2B2B"/>
<path d="M453.656 295.367C453.364 295.367 453.098 295.185 452.999 294.893C452.88 294.534 453.077 294.143 453.437 294.023L462.209 291.138C462.568 291.018 462.959 291.216 463.078 291.575C463.198 291.934 463 292.325 462.641 292.445L453.869 295.331C453.796 295.357 453.723 295.367 453.656 295.367Z" fill="#4F2B2B"/>
<path d="M225.166 249.419L235.276 252.784C238.938 254.003 240.98 257.899 239.902 261.603C238.813 265.353 234.922 267.541 231.151 266.53L220.858 263.775C216.91 262.717 214.54 258.696 215.519 254.732C216.572 250.487 221.015 248.039 225.166 249.419Z" fill="#FFBE97"/>
<path d="M225.218 264.754L235.329 268.119C238.99 269.338 241.032 273.234 239.954 276.938C238.865 280.688 234.975 282.876 231.203 281.865L220.911 279.11C216.962 278.052 214.592 274.031 215.572 270.067C216.624 265.822 221.067 263.374 225.218 264.754Z" fill="#FFBE97"/>
<path d="M225.333 279.438L234.474 282.48C237.782 283.584 239.631 287.105 238.657 290.455C237.672 293.845 234.156 295.825 230.744 294.913L221.436 292.418C217.868 291.46 215.722 287.824 216.613 284.24C217.566 280.402 221.582 278.188 225.333 279.438Z" fill="#FFBE97"/>
<path d="M223.754 292.757L231.406 295.304C234.177 296.226 235.724 299.175 234.906 301.977C234.078 304.816 231.135 306.472 228.281 305.706L220.488 303.618C217.504 302.816 215.707 299.774 216.451 296.773C217.248 293.559 220.613 291.71 223.754 292.752V292.757Z" fill="#FFBE97"/>
<path d="M233.657 267.832C233.61 267.832 233.558 267.832 233.511 267.816L220.713 265.04C220.343 264.962 220.104 264.592 220.187 264.222C220.265 263.853 220.635 263.613 221.005 263.696L233.803 266.473C234.173 266.551 234.412 266.921 234.329 267.29C234.261 267.613 233.975 267.832 233.657 267.832Z" fill="#4F2B2B"/>
<path d="M234.193 282.803C234.146 282.803 234.094 282.803 234.047 282.787L221.249 280.011C220.879 279.933 220.64 279.563 220.723 279.193C220.801 278.823 221.171 278.584 221.541 278.667L234.339 281.443C234.709 281.521 234.948 281.891 234.865 282.261C234.797 282.584 234.511 282.803 234.193 282.803Z" fill="#4F2B2B"/>
<path d="M228.182 295.367C228.109 295.367 228.037 295.357 227.969 295.331L219.197 292.445C218.838 292.325 218.64 291.934 218.76 291.575C218.879 291.216 219.265 291.018 219.629 291.138L228.401 294.023C228.761 294.143 228.958 294.534 228.839 294.893C228.745 295.185 228.474 295.367 228.182 295.367Z" fill="#4F2B2B"/>
<path d="M342.521 129.976C369.2 129.976 390.827 108.349 390.827 81.6698C390.827 54.9908 369.2 33.3633 342.521 33.3633C315.842 33.3633 294.214 54.9908 294.214 81.6698C294.214 108.349 315.842 129.976 342.521 129.976Z" fill="#E95D9A"/>
<path d="M362.321 100.249C373.226 89.3443 373.226 71.6635 362.321 60.7584C351.415 49.8532 333.735 49.8532 322.83 60.7584C311.924 71.6635 311.924 89.3443 322.83 100.249C333.735 111.155 351.415 111.155 362.321 100.249Z" fill="#FBE4C6"/>
<path d="M314.283 84.2326C312.981 85.0347 311.783 86.0192 310.778 87.1755C309.83 88.2642 309.027 89.5716 309.335 91.0769C309.626 92.4937 310.934 93.4157 312.252 93.7855C313.736 94.2022 315.377 94.1293 316.898 93.9887C320.388 93.6761 323.841 92.7646 327.211 91.8322C330.686 90.8738 334.097 89.7122 337.525 88.6028C343.624 86.6338 349.776 84.8212 355.693 82.3418C358.667 81.0969 361.631 79.7738 364.522 78.3414C366.991 77.1173 369.439 75.7214 371.439 73.7941C372.919 72.3721 374.981 70.0333 373.924 67.8352C373.049 66.0174 370.622 65.434 368.793 65.2881C368.272 65.2465 367.746 65.2517 367.225 65.2881C366.397 65.3558 366.392 66.6528 367.225 66.5903C368.866 66.4601 371.07 66.6372 372.33 67.8404C373.861 69.2989 371.955 71.4033 370.892 72.5075C369.163 74.2994 366.996 75.6016 364.803 76.7423C362.215 78.0862 359.532 79.2634 356.865 80.4353C351.469 82.8106 345.864 84.592 340.254 86.3682C334.087 88.3215 327.987 90.4519 321.669 91.8791C319.867 92.2854 318.044 92.6292 316.2 92.7385C314.757 92.8219 313.028 92.9209 311.726 92.1656C308.345 90.2175 313.2 86.4255 314.95 85.3472C315.658 84.9097 315.007 83.7846 314.294 84.2274L314.283 84.2326Z" fill="#4F2B2B"/>
<path d="M357.983 69.9548C358.764 66.6426 356.713 63.3238 353.401 62.5421C350.089 61.7604 346.77 63.8117 345.988 67.1239C345.206 70.436 347.258 73.7548 350.57 74.5366C353.882 75.3183 357.201 73.267 357.983 69.9548Z" fill="#854747"/>
<path d="M340.916 77.2001C340.916 78.8722 339.562 80.2265 337.89 80.2265C336.218 80.2265 334.864 78.8722 334.864 77.2001C334.864 75.5281 336.218 74.1738 337.89 74.1738C339.562 74.1738 340.916 75.5281 340.916 77.2001Z" fill="#854747"/>
<path d="M362.111 88.5654C362.111 90.2374 360.757 91.5917 359.085 91.5917C357.413 91.5917 356.059 90.2374 356.059 88.5654C356.059 86.8934 357.413 85.5391 359.085 85.5391C360.757 85.5391 362.111 86.8934 362.111 88.5654Z" fill="#854747"/>
<path d="M222.306 184.386C248.985 184.386 270.613 162.759 270.613 136.08C270.613 109.401 248.985 87.7734 222.306 87.7734C195.628 87.7734 174 109.401 174 136.08C174 162.759 195.628 184.386 222.306 184.386Z" fill="#F8D2A0"/>
<path d="M202.825 131.314C201.31 130.418 199.539 130.012 197.637 130.361C196.179 130.626 194.82 131.423 193.668 132.335C190.762 134.642 189.387 138.763 190.465 142.31C191.543 145.857 195.101 148.54 198.809 148.456C200.018 148.43 201.211 148.133 202.341 147.696C204.211 146.972 205.992 145.789 206.925 144.013C207.539 142.846 207.743 141.497 207.753 140.179C207.774 136.695 205.8 133.064 202.831 131.309L202.825 131.314Z" fill="#6A3939"/>
<path d="M195.533 138.847C195.528 138.775 195.518 138.696 195.507 138.623C195.486 138.524 195.45 138.426 195.408 138.337C195.346 138.202 195.257 138.071 195.153 137.978C195.012 137.853 194.867 137.733 194.684 137.696C194.523 137.665 194.439 137.665 194.278 137.696C194.189 137.712 194.106 137.759 194.028 137.806C193.965 137.842 193.908 137.91 193.861 137.983C193.84 138.004 193.809 138.024 193.788 138.05C193.674 138.196 193.564 138.384 193.533 138.582C193.502 138.775 193.491 138.972 193.554 139.16C193.611 139.337 193.684 139.499 193.809 139.624C193.945 139.764 194.059 139.832 194.226 139.91C194.335 139.957 194.455 139.978 194.57 139.978C194.742 139.983 194.887 139.931 195.038 139.853C195.19 139.775 195.294 139.634 195.387 139.488C195.486 139.332 195.528 139.124 195.533 138.931C195.533 138.905 195.533 138.884 195.533 138.858V138.847ZM194.533 138.952C194.533 138.952 194.518 138.952 194.512 138.952C194.533 138.941 194.554 138.941 194.575 138.926C194.559 138.931 194.549 138.941 194.533 138.946V138.952Z" fill="white"/>
<path d="M202.721 137.471C202.716 137.399 202.706 137.32 202.695 137.247C202.674 137.149 202.638 137.05 202.596 136.961C202.534 136.826 202.445 136.695 202.341 136.602C202.2 136.477 202.055 136.357 201.872 136.32C201.711 136.289 201.627 136.289 201.466 136.32C201.377 136.336 201.294 136.383 201.216 136.43C201.153 136.466 201.096 136.534 201.049 136.607C201.028 136.628 200.997 136.648 200.976 136.675C200.862 136.82 200.752 137.008 200.721 137.206C200.69 137.399 200.679 137.596 200.742 137.784C200.799 137.961 200.872 138.123 200.997 138.248C201.133 138.388 201.247 138.456 201.414 138.534C201.523 138.581 201.643 138.602 201.758 138.602C201.93 138.607 202.075 138.555 202.226 138.477C202.378 138.399 202.482 138.263 202.575 138.112C202.674 137.956 202.716 137.748 202.721 137.555C202.721 137.529 202.721 137.508 202.721 137.482V137.471ZM201.721 137.576C201.721 137.576 201.706 137.576 201.7 137.576C201.721 137.565 201.742 137.565 201.763 137.55C201.747 137.555 201.737 137.565 201.721 137.57V137.576Z" fill="white"/>
<path d="M196.143 143.624C197.237 144.16 198.492 144.317 199.669 143.973C200.763 143.655 201.685 142.957 202.336 142.03C202.539 141.744 202.388 141.306 202.102 141.139C201.779 140.952 201.414 141.082 201.211 141.374C200.237 142.764 198.326 143.249 196.799 142.499C196.487 142.343 196.096 142.415 195.909 142.733C195.742 143.02 195.825 143.468 196.143 143.624Z" fill="white"/>
<path d="M216.816 138.289C213.28 136.768 209.066 137.196 205.675 139.024C205.675 139.024 204.378 143.451 204.93 145.274C205.482 147.098 206.753 148.624 208.175 149.884C209.758 151.291 211.597 152.452 213.639 153.025C215.681 153.598 217.931 153.551 219.848 152.65C220.614 152.291 221.327 151.791 221.864 151.134C222.734 150.061 223.067 148.634 223.056 147.254C223.025 143.404 220.353 139.816 216.816 138.295V138.289Z" fill="#6A3939"/>
<path d="M233.359 131.418C238.391 139.195 242.751 147.56 245.011 156.509C249.054 155.66 252.934 154.025 256.361 151.717C254.559 142.576 250.194 133.825 244.35 126.652C240.386 127.34 236.677 129.106 233.359 131.424V131.418Z" fill="#BF8888"/>
<path d="M259.607 130.736C255.763 127.079 250.059 125.777 244.814 126.568C244.658 126.589 244.507 126.621 244.355 126.647C250.205 133.819 254.565 142.57 256.367 151.711C256.773 151.435 257.18 151.159 257.57 150.868C259.602 149.352 261.487 147.55 262.623 145.284C264.998 140.539 263.451 134.392 259.607 130.736Z" fill="#6A3939"/>
<path d="M230.687 133.465C225.786 137.57 220.587 142.45 219.962 148.81L220.442 151.503C225.906 155.524 231.802 157.212 238.584 157.196C240.746 157.191 242.902 156.957 245.012 156.509C242.751 147.56 238.386 139.2 233.359 131.418C232.438 132.064 231.547 132.746 230.687 133.465Z" fill="#6A3939"/>
<path d="M194.002 132.559C193.101 130.387 192.106 128.262 190.829 126.282C189.559 124.314 188.095 122.47 186.704 120.584C186.407 120.178 185.876 120.157 185.584 120.584C185.1 121.287 184.621 121.985 184.136 122.688C183.662 123.381 184.787 124.032 185.256 123.345C185.74 122.642 186.22 121.944 186.704 121.24H185.584C186.949 123.09 188.381 124.902 189.637 126.829C190.887 128.746 191.876 130.799 192.752 132.908C193.069 133.669 194.325 133.335 194.007 132.564L194.002 132.559Z" fill="#6A3939"/>
<path d="M201.471 133.45C201.575 130.168 201.492 126.882 200.95 123.637C200.403 120.397 199.372 117.282 198.127 114.25C197.961 113.849 197.393 113.547 197.039 113.964C196.502 114.61 195.96 115.25 195.424 115.896C194.893 116.532 195.804 117.459 196.341 116.813C196.877 116.172 197.419 115.526 197.955 114.881C197.591 114.787 197.231 114.688 196.867 114.594C198.091 117.573 199.112 120.636 199.664 123.819C200.216 126.996 200.268 130.231 200.169 133.45C200.143 134.289 201.44 134.283 201.471 133.45Z" fill="#6A3939"/>
<path d="M207.686 146.978C205.17 153.557 203.878 160.573 203.883 167.616C203.883 168.454 205.186 168.454 205.186 167.616C205.186 160.683 206.462 153.797 208.941 147.322C209.238 146.541 207.983 146.202 207.686 146.978Z" fill="#6A3939"/>
<path d="M213.801 149.556C212.238 155.614 211.717 161.922 212.28 168.157C212.353 168.985 213.655 168.991 213.582 168.157C213.03 162.032 213.525 155.859 215.056 149.905C215.265 149.093 214.009 148.749 213.801 149.562V149.556Z" fill="#6A3939"/>
<path d="M220.145 149.187C220.234 155.593 220.624 162.005 221.26 168.381C221.343 169.204 222.64 169.214 222.562 168.381C221.926 162.005 221.536 155.593 221.447 149.187C221.437 148.353 220.135 148.348 220.145 149.187Z" fill="#6A3939"/>
<path d="M226.849 150.833C228.354 156.229 229.349 161.761 229.813 167.345C229.881 168.173 231.183 168.178 231.115 167.345C230.646 161.647 229.641 156 228.11 150.489C227.886 149.687 226.63 150.026 226.854 150.833H226.849Z" fill="#6A3939"/>
<path d="M492.333 168.092C511.198 149.228 511.198 118.642 492.333 99.7767C473.468 80.9119 442.882 80.9119 424.017 99.7767C405.152 118.642 405.152 149.228 424.017 168.092C442.882 186.957 473.468 186.957 492.333 168.092Z" fill="#F2AE54"/>
<path d="M433.497 115.742C434.779 118.456 436.06 121.17 437.341 123.883C439.368 128.17 441.394 132.457 443.42 136.744L444.826 139.718C445.269 140.65 446.66 140.942 447.493 140.416C448.551 139.749 449.613 139.088 450.671 138.421C453.197 136.832 455.723 135.249 458.255 133.66C461.328 131.728 464.401 129.801 467.474 127.868C470.131 126.196 472.792 124.529 475.449 122.857C476.736 122.05 478.079 121.295 479.324 120.425C479.34 120.414 479.361 120.404 479.376 120.388C478.397 119.826 477.423 119.268 476.444 118.706C476.798 121.805 477.1 124.909 477.381 128.014C477.949 134.259 478.428 140.52 478.642 146.792C478.751 149.979 478.803 153.183 478.616 156.371C478.553 157.392 479.554 158.366 480.564 158.319C481.674 158.267 482.45 157.459 482.512 156.371C482.866 150.365 482.497 144.302 482.101 138.307C481.736 132.853 481.257 127.41 480.694 121.977C480.58 120.888 480.465 119.794 480.345 118.706C480.267 118.003 480.022 117.398 479.382 117.023C478.793 116.68 478.001 116.654 477.413 117.023C476.355 117.69 475.293 118.352 474.235 119.018C471.709 120.607 469.183 122.19 466.651 123.779C463.578 125.712 460.505 127.639 457.432 129.571C454.775 131.243 452.114 132.91 449.457 134.582C448.17 135.39 446.827 136.145 445.582 137.015C445.566 137.025 445.545 137.036 445.53 137.051C446.42 137.286 447.306 137.52 448.196 137.749C446.915 135.035 445.634 132.322 444.352 129.608C442.326 125.321 440.3 121.034 438.274 116.747C437.805 115.758 437.336 114.763 436.867 113.773C436.43 112.846 435.034 112.539 434.2 113.075C433.247 113.69 433.034 114.752 433.502 115.742H433.497Z" fill="#F7FDFE"/>
<path d="M436.107 120.024C439.818 120.024 442.826 117.015 442.826 113.304C442.826 109.593 439.818 106.585 436.107 106.585C432.396 106.585 429.387 109.593 429.387 113.304C429.387 117.015 432.396 120.024 436.107 120.024Z" fill="#6A3939"/>
<path d="M453.173 139.871C454.025 136.259 451.788 132.64 448.176 131.787C444.565 130.935 440.946 133.172 440.093 136.784C439.241 140.395 441.478 144.014 445.089 144.867C448.701 145.719 452.32 143.482 453.173 139.871Z" fill="#6A3939"/>
<path d="M485.433 119.13C486.028 115.467 483.54 112.015 479.877 111.421C476.214 110.826 472.763 113.314 472.168 116.977C471.573 120.64 474.061 124.091 477.724 124.686C481.387 125.281 484.838 122.793 485.433 119.13Z" fill="#6A3939"/>
<path d="M485.909 162.06C488.533 159.436 488.533 155.181 485.909 152.557C483.285 149.933 479.03 149.933 476.406 152.557C473.782 155.181 473.782 159.436 476.406 162.06C479.03 164.684 483.285 164.684 485.909 162.06Z" fill="#6A3939"/>
</g>
</svg>
