<?xml version="1.0" encoding="utf-8"?>
<!-- Generator: Adobe Illustrator 28.1.0, SVG Export Plug-In . SVG Version: 6.00 Build 0)  -->
<svg version="1.1" id="Layer_1" xmlns="http://www.w3.org/2000/svg" xmlns:xlink="http://www.w3.org/1999/xlink" x="0px" y="0px"
	 viewBox="0 0 470 250" style="enable-background:new 0 0 470 250;" xml:space="preserve">
<style type="text/css">
	.st0{fill:#F2AE54;}
	.st1{fill:#FBE4C6;}
	.st2{fill:#4F2B2B;}
	.st3{fill:#FFF4E9;}
	.st4{fill:#BF8888;}
	.st5{fill:#EF9C2E;}
	.st6{fill:#F8D2A0;}
	.st7{fill:#2B6577;}
	.st8{fill:#3F97B1;}
	.st9{fill:#9F5656;}
	.st10{fill:#557FDD;}
	.st11{fill:#FFBE97;}
	.st12{fill:#B4185C;}
	.st13{fill:#FB8876;}
</style>
<path class="st0" d="M297.5,123.4l-59.3-2.2c-2.6-0.1-4.5-2.3-4.3-4.9l5-51.7c0.2-2.3,2.2-4.1,4.6-4l59.3,2.2
	c2.5,0.1,4.5,2.3,4.3,4.9l-5,51.7C301.9,121.8,299.9,123.5,297.5,123.4z"/>
<path class="st1" d="M271.2,89.3c-0.1,0-0.1,0-0.2,0l-24-0.9c-1.7-0.1-3.1,1.2-3.3,2.9l-2,20.6c-0.1,0.9,0.2,1.7,0.8,2.4
	c0.6,0.7,1.4,1.1,2.3,1.1l24,0.9c1.7,0.1,3.1-1.2,3.3-2.9l2-20.6c0.1-0.9-0.2-1.7-0.8-2.4C272.8,89.7,272.1,89.3,271.2,89.3
	L271.2,89.3z M244.6,115.8c-0.9-0.1-1.8-0.5-2.4-1.2c-0.7-0.8-1-1.8-0.9-2.8l2-20.6c0.2-1.9,1.8-3.4,3.8-3.3l24,0.9
	c1,0,2,0.5,2.6,1.2c0.7,0.8,1,1.8,0.9,2.8l-2,20.6c-0.2,1.9-1.8,3.4-3.8,3.3l-24-0.9C244.7,115.8,244.6,115.8,244.6,115.8
	L244.6,115.8z"/>
<path class="st2" d="M249,94.6c-0.2,0-0.3-0.2-0.3-0.4c0-0.2,0.2-0.4,0.4-0.3l18.9,0.7c0.2,0,0.4,0.2,0.4,0.4c0,0.2-0.2,0.4-0.4,0.3
	L249,94.6C249,94.6,249,94.6,249,94.6z"/>
<path class="st2" d="M248.6,98.8c-0.2,0-0.3-0.2-0.3-0.4c0-0.2,0.2-0.4,0.4-0.3l20.6,0.8c0.2,0,0.4,0.2,0.4,0.4
	c0,0.2-0.2,0.4-0.4,0.3L248.6,98.8L248.6,98.8L248.6,98.8z"/>
<path class="st2" d="M282.1,96.3c-0.2,0-0.3-0.2-0.3-0.4c0-0.2,0.2-0.4,0.4-0.3l14.1,0.6c0.2,0,0.4,0.2,0.4,0.4
	c0,0.2-0.2,0.4-0.4,0.3L282.1,96.3C282.1,96.3,282.1,96.3,282.1,96.3L282.1,96.3z"/>
<path class="st2" d="M281.7,100.1c-0.2,0-0.3-0.2-0.3-0.4c0-0.2,0.2-0.4,0.4-0.3l14.1,0.6c0.2,0,0.4,0.2,0.4,0.4
	c0,0.2-0.2,0.4-0.4,0.3L281.7,100.1C281.7,100.1,281.7,100.1,281.7,100.1L281.7,100.1z"/>
<path class="st2" d="M281.4,103.9c-0.2,0-0.3-0.2-0.3-0.4c0-0.2,0.2-0.4,0.4-0.3l14.1,0.6c0.2,0,0.4,0.2,0.4,0.4
	c0,0.2-0.2,0.4-0.4,0.3L281.4,103.9C281.4,103.9,281.4,103.9,281.4,103.9L281.4,103.9z"/>
<path class="st3" d="M280.6,111.5c-0.2,0-0.3-0.2-0.3-0.4c0-0.2,0.2-0.4,0.4-0.3l14.1,0.6c0.2,0,0.4,0.2,0.4,0.4
	c0,0.2-0.2,0.4-0.4,0.3L280.6,111.5L280.6,111.5L280.6,111.5z"/>
<path class="st2" d="M281,107.7c-0.2,0-0.3-0.2-0.3-0.4c0-0.2,0.2-0.4,0.4-0.3l14.1,0.6c0.2,0,0.4,0.2,0.4,0.4
	c0,0.2-0.2,0.4-0.4,0.3L281,107.7C281,107.7,281,107.7,281,107.7L281,107.7z"/>
<path class="st3" d="M280.2,115.3c-0.2,0-0.3-0.2-0.3-0.4c0-0.2,0.2-0.4,0.4-0.3l14.1,0.6c0.2,0,0.4,0.2,0.4,0.4
	c0,0.2-0.2,0.4-0.4,0.3L280.2,115.3C280.3,115.3,280.2,115.3,280.2,115.3L280.2,115.3z"/>
<path class="st2" d="M248.2,102.9c-0.2,0-0.3-0.2-0.3-0.4c0-0.2,0.2-0.4,0.4-0.3l14.8,0.4c0.2,0,0.4,0.2,0.4,0.4
	c0,0.2-0.2,0.4-0.4,0.3L248.2,102.9C248.2,102.9,248.2,102.9,248.2,102.9L248.2,102.9z"/>
<path class="st2" d="M247.8,107.1c-0.2,0-0.3-0.2-0.3-0.4c0-0.2,0.2-0.4,0.4-0.3l16.5,0.7c0.2,0,0.4,0.2,0.3,0.4
	c0,0.2-0.2,0.4-0.4,0.3L247.8,107.1C247.8,107.1,247.8,107.1,247.8,107.1L247.8,107.1z"/>
<path class="st3" d="M247.4,111.3c-0.2,0-0.3-0.2-0.3-0.4c0-0.2,0.2-0.4,0.4-0.3l10,0.3c0.2,0,0.4,0.2,0.4,0.4
	c0,0.2-0.2,0.4-0.4,0.3L247.4,111.3C247.4,111.3,247.4,111.3,247.4,111.3L247.4,111.3z"/>
<path class="st1" d="M297.1,88.3l-16-0.6c-1.3-0.1-2.3-1.2-2.2-2.5l1.3-13.7c0.1-1.2,1.1-2.1,2.3-2.1l16,0.6
	c1.3,0.1,2.3,1.2,2.2,2.5l-1.3,13.7C299.3,87.5,298.3,88.4,297.1,88.3z"/>
<path class="st4" d="M236.3,156.7l-72.3-2.6c-2.6-0.1-4.5-2.3-4.3-4.9l6.1-63.2c0.2-2.3,2.2-4.1,4.6-4l72.3,2.6
	c2.6,0.1,4.5,2.3,4.3,4.9l-6.1,63.3C240.6,155,238.6,156.8,236.3,156.7L236.3,156.7z"/>
<path class="st4" d="M357.1,175.5l-46.2-1.7c-2.5-0.1-4.5-2.3-4.3-4.9l7.4-77.3c0.2-2.3,2.2-4.1,4.6-4l46.2,1.7
	c2.5,0.1,4.5,2.3,4.3,4.9l-7.4,77.3C361.4,173.8,359.4,175.6,357.1,175.5z"/>
<path class="st1" d="M353.6,169.5L338,169c-0.9,0-1.5-0.8-1.4-1.6l2.2-22.7c0.1-0.8,0.8-1.4,1.5-1.4l15.6,0.6c0.9,0,1.5,0.8,1.4,1.6
	l-2.2,22.7C355,169,354.4,169.6,353.6,169.5z"/>
<path class="st1" d="M198.9,95.4l-17-0.7c-1.2-0.1-2.1-1.1-2-2.2c0.1-1.2,1.2-2.1,2.4-2.1l17,0.7c1.2,0.1,2.1,1.1,2,2.2
	C201.1,94.5,200.1,95.4,198.9,95.4z"/>
<path class="st5" d="M177.3,92.4c0.1-1.2-0.7-2.2-1.9-2.2c-1.2-0.1-2.2,0.9-2.3,2c-0.1,1.2,0.7,2.2,1.9,2.2
	C176.2,94.4,177.2,93.5,177.3,92.4z"/>
<path class="st1" d="M227.3,106.2l-46.4-1.5c-1.2-0.1-2.1-1.1-2-2.2c0.1-1.2,1.2-2.1,2.4-2.1l46.4,1.5c1.2,0.1,2.1,1.1,2,2.2
	C229.6,105.3,228.5,106.2,227.3,106.2z"/>
<path class="st5" d="M176.4,102.4c0.1-1.2-0.7-2.2-1.9-2.2c-1.2-0.1-2.2,0.9-2.3,2c-0.1,1.2,0.7,2.2,1.9,2.2
	C175.2,104.5,176.2,103.6,176.4,102.4z"/>
<path class="st1" d="M226.4,115.6l-46.4-1.5c-1.2-0.1-2.1-1.1-2-2.2c0.1-1.2,1.2-2.1,2.4-2.1l46.4,1.5c1.2,0.1,2.1,1.1,2,2.2
	C228.7,114.8,227.6,115.7,226.4,115.6z"/>
<ellipse transform="matrix(0.7626 -0.6469 0.6469 0.7626 -31.1648 138.662)" class="st5" cx="173.3" cy="111.8" rx="2.2" ry="2.1"/>
<path class="st1" d="M187.8,123.7l-8.6-0.1c-1.2-0.1-2.1-1.1-2-2.2c0.1-1.2,1.2-2.1,2.4-2.1l8.6,0.1c1.2,0.1,2.1,1.1,2,2.2
	C190,122.8,188.9,123.8,187.8,123.7z"/>
<path class="st1" d="M179.2,136.7l-8.6-0.1c-1.2-0.1-2.1-1.1-2-2.2c0.1-1.2,1.2-2.1,2.4-2.1l8.6,0.1c1.2,0.1,2.1,1.1,2,2.2
	C181.5,135.8,180.4,136.8,179.2,136.7z"/>
<path class="st1" d="M178.5,145.8l-8.6-0.1c-1.2-0.1-2.1-1.1-2-2.2c0.1-1.2,1.2-2.1,2.4-2.1l8.6,0.1c1.2,0.1,2.1,1.1,2,2.2
	C180.8,144.9,179.7,145.8,178.5,145.8z"/>
<ellipse transform="matrix(0.7625 -0.6469 0.6469 0.7625 -37.4915 140.3189)" class="st5" cx="172.4" cy="121.2" rx="2.2" ry="2.1"/>
<path class="st1" d="M341.7,101.7l-17-0.7c-1.2-0.1-2.1-1.1-2-2.2c0.1-1.2,1.2-2.1,2.4-2.1l17,0.7c1.2,0.1,2.1,1.1,2,2.2
	C343.9,100.8,342.9,101.8,341.7,101.7z"/>
<path class="st1" d="M330.1,123l-7.6-0.3c-1.2-0.1-2.1-1.1-2-2.2c0.1-1.2,1.2-2.1,2.4-2.1l7.6,0.3c1.2,0.1,2.1,1.1,2,2.2
	C332.4,122.2,331.4,123.1,330.1,123z"/>
<path class="st1" d="M347.1,134.7l-25.5-1.2c-1.2-0.1-2.1-1.1-2-2.2c0.1-1.2,1.2-2.1,2.4-2.1l25.5,1.2c1.2,0.1,2.1,1.1,2,2.2
	C349.4,133.9,348.3,134.8,347.1,134.7z"/>
<path class="st1" d="M336.4,112.4l-12.8-0.5c-1.2-0.1-2.1-1.1-2-2.2c0.1-1.2,1.2-2.1,2.4-2.1l12.8,0.5c1.2,0.1,2.1,1.1,2,2.2
	C338.7,111.5,337.6,112.4,336.4,112.4z"/>
<path class="st1" d="M355.2,124.1l-16.9-0.9c-1.2-0.1-2.1-1.1-2-2.2c0.1-1.2,1.2-2.1,2.4-2.1l16.9,0.9c1.2,0.1,2.1,1.1,2,2.2
	C357.4,123.3,356.4,124.2,355.2,124.1z"/>
<path class="st1" d="M348.4,113.1l-3.7-0.1c-1.2-0.1-2.1-1.1-2-2.2c0.1-1.2,1.2-2.1,2.4-2.1l3.7,0.1c1.2,0.1,2.1,1.1,2,2.2
	C350.6,112.2,349.6,113.1,348.4,113.1z"/>
<path class="st1" d="M270.2,73.1l-17-0.7c-1.2-0.1-2.1-1.1-2-2.2c0.1-1.2,1.2-2.1,2.4-2.1l17,0.7c1.2,0.1,2.1,1.1,2,2.2
	C272.5,72.3,271.4,73.2,270.2,73.1z"/>
<path class="st1" d="M248.7,70.1c0.1-1.2-0.7-2.2-1.9-2.2c-1.2-0.1-2.2,0.9-2.3,2c-0.1,1.2,0.7,2.2,1.9,2.2
	C247.5,72.2,248.5,71.3,248.7,70.1z"/>
<path class="st1" d="M260.6,81.9l-8.3-0.2c-1.2-0.1-2.1-1.1-2-2.2c0.1-1.2,1.2-2.1,2.4-2.1l8.3,0.2c1.2,0.1,2.1,1.1,2,2.2
	C262.9,81,261.8,82,260.6,81.9z"/>
<path class="st1" d="M247,80.9c0.9-0.8,1.1-2.1,0.3-3c-0.7-0.9-2.1-0.9-3-0.2c-0.9,0.8-1.1,2.1-0.3,3
	C244.7,81.6,246.1,81.7,247,80.9z"/>
<path class="st6" d="M199.4,111.1l-6.8,71c-0.3,3,2,5.6,5,5.7l101.8,4c2.8,0.1,5.1-1.9,5.4-4.7l6.8-71c0.3-3-2-5.6-5-5.7l-101.8-4
	C202,106.3,199.6,108.4,199.4,111.1z"/>
<path class="st7" d="M198.8,183.8l99.8,3.5c1.2,0,2.3-0.9,2.4-2.1l6.6-68.2c0.1-1.3-0.9-2.5-2.2-2.5l-99.8-3.5
	c-1.2,0-2.3,0.9-2.4,2.1l-6.6,68.2C196.4,182.6,197.4,183.7,198.8,183.8z"/>
<path class="st8" d="M228.5,135.4l-7.5-0.3c-1.2-0.1-2.1-1.1-2-2.2c0.1-1.2,1.2-2.1,2.4-2.1l7.5,0.3c1.2,0.1,2.1,1.1,2,2.2
	C230.7,134.6,229.7,135.5,228.5,135.4z"/>
<path class="st1" d="M269.1,137.1l-31.7-1.2c-1.2-0.1-2.1-1.1-2-2.2c0.1-1.2,1.2-2.1,2.4-2.1l31.7,1.2c1.2,0.1,2.1,1.1,2,2.2
	C271.4,136.2,270.3,137.1,269.1,137.1z"/>
<path class="st1" d="M212.9,131.1c-0.3,0-0.6,0.2-0.6,0.5l-0.2,2.4c0,0.3,0.2,0.5,0.5,0.6l2.3,0.1c0.3,0,0.6-0.2,0.6-0.5l0.2-2.4
	c0-0.3-0.2-0.5-0.5-0.6L212.9,131.1z M214.8,135.1l-2.3-0.1c-0.5,0-0.9-0.5-0.9-1l0.2-2.4c0.1-0.5,0.5-0.9,1.1-0.9l2.3,0.1
	c0.5,0,0.9,0.5,0.9,1l-0.2,2.4C215.9,134.7,215.4,135.1,214.8,135.1z"/>
<path class="st1" d="M235.1,125.6l-15.7-0.6c-1.2-0.1-2.1-1.1-2-2.2c0.1-1.2,1.2-2.1,2.4-2.1l15.7,0.6c1.2,0.1,2.1,1.1,2,2.2
	C237.3,124.8,236.3,125.7,235.1,125.6z"/>
<path class="st1" d="M211.9,120.8c-0.3,0-0.6,0.2-0.6,0.5l-0.2,2.4c0,0.3,0.2,0.5,0.5,0.6l2.3,0.1c0.3,0,0.6-0.2,0.6-0.5l0.2-2.4
	c0-0.3-0.2-0.5-0.5-0.6L211.9,120.8z M213.9,124.8l-2.3-0.1c-0.5,0-0.9-0.5-0.9-1l0.2-2.4c0.1-0.5,0.5-0.9,1.1-0.9l2.3,0.1
	c0.5,0,0.9,0.5,0.9,1l-0.2,2.4C214.9,124.4,214.4,124.8,213.9,124.8z"/>
<path class="st9" d="M258.1,126.6l-13.6-0.5c-1.2-0.1-2.1-1.1-2-2.2c0.1-1.2,1.2-2.1,2.4-2.1l13.5,0.5c1.2,0.1,2.1,1.1,2,2.2
	C260.4,125.7,259.3,126.6,258.1,126.6z"/>
<path class="st5" d="M286.8,127.7l-14-0.6c-1.2-0.1-2.1-1.1-2-2.2c0.1-1.2,1.2-2.1,2.4-2.1l14,0.6c1.2,0.1,2.1,1.1,2,2.2
	C289.1,126.8,288,127.7,286.8,127.7z"/>
<path class="st1" d="M213.9,141.2c-0.3,0-0.6,0.2-0.6,0.5l-0.2,2.4c0,0.3,0.2,0.5,0.5,0.6l2.3,0.1c0.3,0,0.6-0.2,0.6-0.5l0.2-2.4
	c0-0.3-0.2-0.5-0.5-0.6L213.9,141.2z M215.8,145.2l-2.3-0.1c-0.5,0-0.9-0.5-0.9-1l0.2-2.4c0.1-0.5,0.5-0.9,1.1-0.9l2.3,0.1
	c0.5,0,0.9,0.5,0.9,1l-0.2,2.4C216.9,144.8,216.4,145.2,215.8,145.2z"/>
<path class="st1" d="M233.3,145.7l-11.3-0.4c-1.2-0.1-2.1-1.1-2-2.2c0.1-1.2,1.2-2.1,2.4-2.1l11.3,0.4c1.2,0.1,2.1,1.1,2,2.2
	C235.5,144.8,234.5,145.8,233.3,145.7z"/>
<path class="st9" d="M269.1,147.1l-27.8-1.1c-1.2-0.1-2.1-1.1-2-2.2c0.1-1.2,1.2-2.1,2.4-2.1l27.8,1.1c1.2,0.1,2.1,1.1,2,2.2
	C271.4,146.2,270.3,147.2,269.1,147.1z"/>
<path class="st1" d="M214.9,151.3c-0.3,0-0.6,0.2-0.6,0.5l-0.2,2.4c0,0.3,0.2,0.5,0.5,0.6l2.3,0.1c0.3,0,0.6-0.2,0.6-0.5l0.2-2.4
	c0-0.3-0.2-0.5-0.5-0.6L214.9,151.3z M216.8,155.2l-2.3-0.1c-0.5,0-0.9-0.5-0.9-1l0.2-2.4c0.1-0.5,0.5-0.9,1.1-0.9l2.3,0.1
	c0.5,0,0.9,0.5,0.9,1l-0.2,2.4C217.9,154.9,217.4,155.3,216.8,155.2z"/>
<path class="st8" d="M236.4,155.9l-13.5-0.5c-1.2-0.1-2.1-1.1-2-2.2c0.1-1.2,1.2-2.1,2.4-2.1l13.5,0.5c1.2,0.1,2.1,1.1,2,2.2
	C238.7,155,237.6,156,236.4,155.9z"/>
<path class="st8" d="M292.8,158.1l-5.7-0.2c-1.2-0.1-2.1-1.1-2-2.2c0.1-1.2,1.2-2.1,2.4-2.1l5.7,0.2c1.2,0.1,2.1,1.1,2,2.2
	C295,157.3,294,158.2,292.8,158.1z"/>
<path class="st1" d="M278.7,157.6l-34.8-1.4c-1.2-0.1-2.1-1.1-2-2.2c0.1-1.2,1.2-2.1,2.4-2.1l34.8,1.4c1.2,0.1,2.1,1.1,2,2.2
	C281,156.7,279.9,157.6,278.7,157.6z"/>
<path class="st1" d="M232.9,165.9l-17-0.7c-1.2-0.1-2.1-1.1-2-2.2c0.1-1.2,1.2-2.1,2.4-2.1l17,0.7c1.2,0.1,2.1,1.1,2,2.2
	C235.2,165,234.1,165.9,232.9,165.9z"/>
<path class="st10" d="M258.4,166.9l-16.8-0.7c-1.2-0.1-2.1-1.1-2-2.2c0.1-1.2,1.2-2.1,2.4-2.1l16.8,0.7c1.2,0.1,2.1,1.1,2,2.2
	C260.6,166,259.6,166.9,258.4,166.9z"/>
<path class="st5" d="M272.9,167.4l-5.6-0.2c-1.2-0.1-2.1-1.1-2-2.2c0.1-1.2,1.2-2.1,2.4-2.1l5.6,0.2c1.2,0.1,2.1,1.1,2,2.2
	C275.2,166.6,274.1,167.5,272.9,167.4z"/>
<ellipse transform="matrix(0.7626 -0.6469 0.6469 0.7626 -55.629 174.0162)" class="st5" cx="209.3" cy="162.8" rx="2.2" ry="2.1"/>
<path class="st1" d="M227.7,175.7l-12.8-0.5c-1.2-0.1-2.1-1.1-2-2.2c0.1-1.2,1.2-2.1,2.4-2.1l12.8,0.5c1.2,0.1,2.1,1.1,2,2.2
	C230,174.9,228.9,175.8,227.7,175.7z"/>
<path class="st8" d="M254.4,176.8l-18.1-0.7c-1.2-0.1-2.1-1.1-2-2.2c0.1-1.2,1.2-2.1,2.4-2.1l18.1,0.7c1.2,0.1,2.1,1.1,2,2.2
	C256.7,175.9,255.6,176.8,254.4,176.8z"/>
<ellipse transform="matrix(0.7626 -0.6469 0.6469 0.7626 -62.3617 175.7747)" class="st5" cx="208.3" cy="172.8" rx="2.2" ry="2.1"/>
<path class="st11" d="M110.2,128.3l0.1,6.4l0.4,1.8l10.4-10.7l-7-0.7C112.2,124.9,110.5,126.3,110.2,128.3L110.2,128.3z"/>
<path class="st11" d="M113.3,124.4c0,0.2,0,0.4,0.1,0.7c0.1,0.5,1,1.8,0.8,2.3L111,136l-0.4-1.6l-1.1,2c-0.5,0.9-0.8,1.8-1,2.8
	l-0.9,3.9l1.4,9.4l9.9,10.6l-1.7,5.2c5.7,2.1,15.9,7.3,19.2,4l2.9-15l-0.3-4.4l-0.2-0.5l-7.3-15l-5.9-8.1l-6.3-10.1
	c-0.9-0.6-2-0.6-3-0.1c-1.3,0.8-2.3,2.1-2.8,3.6C113.4,123.2,113.3,123.8,113.3,124.4L113.3,124.4z"/>
<path class="st11" d="M139.5,157.3c0,0,3.1-10.5,2.7-14.1c-0.7-6.9-11.2-25.5-11.2-25.5c-0.8-1.8-3.2-3.1-4.8-1.4
	c-1.1,1.2-1.6,3.1-1.4,4.7l1.8,15.2L139.5,157.3L139.5,157.3z"/>
<path class="st2" d="M117.2,135.4c0.1,0.1,0.3,0.1,0.4,0.1c0.2-0.1,0.3-0.4,0.2-0.6l-3.8-9.2c-0.1-0.2-0.4-0.3-0.6-0.2
	c-0.2,0.1-0.3,0.4-0.2,0.6l3.8,9.2C117.1,135.3,117.1,135.4,117.2,135.4z"/>
<path class="st2" d="M112,141.5c0.1,0.1,0.2,0.1,0.4,0.1c0.2-0.1,0.4-0.3,0.3-0.6l-1.6-6.1c-0.1-0.2-0.3-0.4-0.6-0.3
	c-0.2,0.1-0.4,0.3-0.3,0.6l1.6,6.1C111.9,141.4,111.9,141.5,112,141.5z"/>
<path class="st2" d="M109.1,146.4c0.1,0.1,0.2,0.1,0.4,0.1c0.2-0.1,0.4-0.3,0.3-0.6l-0.9-3.2c-0.1-0.2-0.3-0.4-0.6-0.3
	c-0.2,0.1-0.4,0.3-0.3,0.6l0.9,3.2C109,146.3,109,146.4,109.1,146.4L109.1,146.4z"/>
<path class="st2" d="M132.8,137.5c0.2,0.1,0.5,0.1,0.6-0.1c0.2-0.2,0.1-0.5-0.1-0.6c-0.3-0.2-0.6-0.5-1-0.7c-1.8-1.4-3.9-3-6-6
	c-0.2-0.2-0.4-0.2-0.6-0.1c-0.2,0.1-0.2,0.4-0.1,0.6c2.2,3.1,4.4,4.8,6.2,6.2C132.2,137,132.5,137.3,132.8,137.5
	C132.8,137.5,132.8,137.5,132.8,137.5L132.8,137.5z"/>
<path class="st11" d="M173.6,173.9l-3.1,15.7l18.4,3.6l2.3-10.5c-5.9-1.8-11.4-5.2-16.5-8.8L173.6,173.9L173.6,173.9z"/>
<path class="st2" d="M174.8,174c5.1,3.6,10.6,7,16.5,8.8l1.8-8.1L174.8,174L174.8,174z"/>
<path class="st11" d="M237.3,160.1l2.1-15.8c0.3-2.5,2.2-4.6,4.7-5.2l10.8-2.6L237.3,160.1z"/>
<path class="st11" d="M264.5,175.1c-1.8,6.2-8.4,9.8-14.6,8c-4.1-1.2-8.2-3.4-10.4-7.4c-5.5-9.7,0.1-26.2,0.1-26.2l27.8,15.9
	L264.5,175.1z"/>
<path class="st11" d="M239.5,149.5l18.8-15.8c1.4-1.1,3.3-1,4.6,0.2c1.3,1.2,1.4,3.2,0.4,4.6l-14.4,18.2L239.5,149.5L239.5,149.5z"
	/>
<path class="st11" d="M243.1,157.4l15.6-13.7c1.3-1.1,3.3-1.1,4.6,0c1.3,1.2,1.6,3.1,0.6,4.6l-11.8,17.2L243.1,157.4L243.1,157.4z"
	/>
<path class="st11" d="M246.4,163.7l15.6-13.7c1.3-1.1,3.3-1.1,4.6,0c1.3,1.2,1.6,3.1,0.6,4.6l-11.8,17.2L246.4,163.7L246.4,163.7z"
	/>
<path class="st11" d="M248.7,170.9l15.6-13.7c1.3-1.1,3.3-1.1,4.6,0c1.3,1.2,1.6,3.1,0.6,4.6L257.6,179L248.7,170.9L248.7,170.9z"/>
<path class="st2" d="M249.5,154.2c-0.1,0-0.2,0-0.3-0.1c-0.2-0.2-0.2-0.4,0-0.6l9.2-10.1c0.2-0.2,0.4-0.2,0.6,0
	c0.2,0.2,0.2,0.4,0,0.6l-9.2,10.1C249.7,154.2,249.6,154.3,249.5,154.2L249.5,154.2z"/>
<path class="st2" d="M256,157.4c-0.1,0-0.2,0-0.3-0.1c-0.2-0.2-0.2-0.4,0-0.6l7.8-8.5c0.2-0.2,0.4-0.2,0.6,0c0.2,0.2,0.2,0.4,0,0.6
	l-7.8,8.5C256.2,157.4,256.1,157.4,256,157.4L256,157.4z"/>
<path class="st2" d="M246.4,146.2c-0.1,0-0.2,0-0.3-0.1c-0.2-0.2-0.2-0.4,0-0.6l4.6-4.9c0.2-0.2,0.4-0.2,0.6,0
	c0.2,0.2,0.2,0.4,0,0.6l-4.6,4.9C246.6,146.2,246.5,146.2,246.4,146.2L246.4,146.2z"/>
<path class="st2" d="M260.9,162.1c-0.1,0-0.2,0-0.3-0.1c-0.2-0.2-0.2-0.4,0-0.6l5.2-5.7c0.2-0.2,0.4-0.2,0.6,0
	c0.2,0.2,0.2,0.4,0,0.6l-5.2,5.7C261.1,162.1,261,162.1,260.9,162.1L260.9,162.1z"/>
<path class="st12" d="M135.7,178.6c8.9-4.6,15.6-3.5,25.3-1.1l46.2,11.4c9.6,2.2,13.5,5.6,15.9,9.7l3.4,5.9l12.5-28.4l25.6,11.3
	c-1.9,9.8-3.8,32.6-9.2,43.5c-15.9,32.3-48.4,9.6-48.4,9.6l-2.7,9.6h-75.5l5.6-32.4c0,0-36.1,2.8-35.5-15.8
	c0.7-21.9,13.2-36.7,13.2-36.7l25.6,0.9L135.7,178.6L135.7,178.6z"/>
<ellipse transform="matrix(0.9956 -9.379917e-02 9.379917e-02 0.9956 -13.3447 17.896)" class="st2" cx="183.7" cy="150.9" rx="13.6" ry="8.6"/>
<path class="st11" d="M165.6,172.1c4,7.8,16,10.2,25.3,5.5c9.3-4.8,12.5-14.9,8.5-22.7c-4-7.8-14.8-10.2-24.1-5.5
	C166,154.1,161.6,164.3,165.6,172.1z"/>
<path class="st13" d="M185.8,163.9c0.2,0.9,1.7,1.2,3.3,0.8c1.6-0.4,2.7-1.4,2.5-2.3s-1.7-1.2-3.3-0.8
	C186.7,162,185.6,163,185.8,163.9z"/>
<path class="st11" d="M197.4,155.4l5.2,2.9c0.7,0.4,0.8,1.3,0.2,1.8l-2.8,2.5L197.4,155.4z"/>
<path class="st2" d="M197.4,166.8c-1.6,0-3.3-0.2-4.9-0.7c-0.2-0.1-0.4-0.3-0.3-0.5c0.1-0.2,0.3-0.4,0.5-0.3c1.6,0.5,3.3,0.7,5,0.6
	c0.2,0,0.4,0.2,0.4,0.4s-0.2,0.4-0.4,0.4C197.7,166.8,197.6,166.8,197.4,166.8L197.4,166.8z"/>
<path class="st2" d="M194.9,159c-0.3,0.2-0.8,0.1-1-0.2l-0.6-1c-0.2-0.3-0.1-0.8,0.2-1c0.3-0.2,0.8-0.1,1,0.2l0.6,1
	C195.3,158.3,195.2,158.7,194.9,159z"/>
<path class="st2" d="M189.8,156.6c-0.1,0-0.2,0-0.2-0.1c-0.2-0.1-0.2-0.4-0.1-0.6c0.9-1.2,2.2-2.1,3.6-2.6c0.2-0.1,0.5,0,0.5,0.2
	c0.1,0.2,0,0.4-0.2,0.5c-1.3,0.4-2.4,1.3-3.2,2.3C190.1,156.6,189.9,156.6,189.8,156.6L189.8,156.6z"/>
<path class="st2" d="M176.8,145.8c0,0,9.9-4.2,14.7-1.2c3.9,2.4,3.4,7.1,3.1,7.8l-3.1,1.5v-2.4l-2.4,4.7l-4.2,2.4l-0.3-3.7
	c0,0-4.7,8-4.2,12.6l-2.6-4.9L176.8,145.8L176.8,145.8z"/>
<path class="st2" d="M180.9,146.2c0,0-5.4-2.9-12.5,1.3c-7,4.1-10.9,13.1-8.3,21.4s-4.5,19.8-4.5,19.8l10.2,1.7l1.9-4.6l0.7,5.3
	l6.9,0.1l3.6-29.5L180.9,146.2L180.9,146.2z"/>
<circle class="st11" cx="177.1" cy="167.1" r="4.3"/>
<path class="st2" d="M176.3,168.4l2.2-1.1c0.4-0.2,0.5-0.6,0.4-1s-0.6-0.5-1-0.4l-2.2,1.1c-0.4,0.2-0.5,0.6-0.4,1
	C175.5,168.4,175.9,168.5,176.3,168.4z"/>
<path class="st2" d="M134.7,217.4C134.7,217.4,134.7,217.4,134.7,217.4c-0.3,0-0.4-0.2-0.4-0.5l2.4-15.8c0-0.2,0.2-0.4,0.5-0.4
	c0.2,0,0.4,0.2,0.4,0.5l-2.4,15.8C135.1,217.2,134.9,217.4,134.7,217.4z"/>
<path class="st2" d="M237.5,224.8c-0.2,0-0.3-0.1-0.4-0.3c-2.9-6.9-6.7-13.5-11.2-19.6c-0.1-0.2-0.1-0.4,0.1-0.6
	c0.2-0.1,0.4-0.1,0.6,0.1c4.6,6.1,8.3,12.7,11.3,19.7c0.1,0.2,0,0.5-0.2,0.5C237.6,224.8,237.6,224.8,237.5,224.8L237.5,224.8z"/>
<path class="st2" d="M114.7,190.3c-0.1,0-0.3-0.1-0.3-0.2c-0.1-0.2-0.1-0.4,0.1-0.6c5.1-3.7,13.6-8.6,19.9-10.8
	c0.2-0.1,0.4,0,0.5,0.2c0.1,0.2,0,0.5-0.2,0.5c-6.1,2.2-14.7,7.2-19.7,10.7C114.9,190.2,114.8,190.3,114.7,190.3L114.7,190.3z"/>
</svg>
