<svg width="700" height="400" viewBox="0 0 700 400" fill="none" xmlns="http://www.w3.org/2000/svg">
<mask id="mask0_595_3123" style="mask-type:alpha" maskUnits="userSpaceOnUse" x="0" y="0" width="700" height="400">
<rect width="700" height="400" rx="20" fill="white"/>
</mask>
<g mask="url(#mask0_595_3123)">
<path d="M574.152 91.6788C573.509 92.6824 573.604 93.9445 574.293 94.8373L527.636 138.185C527.527 138.087 527.411 137.996 527.286 137.915C526.004 137.097 524.305 137.472 523.486 138.751C522.667 140.03 523.043 141.732 524.322 142.551C524.527 142.681 524.743 142.779 524.964 142.85L517.318 177.394C516.297 177.266 515.248 177.715 514.658 178.639C513.839 179.919 514.215 181.62 515.494 182.439C516.06 182.8 516.709 182.928 517.327 182.849L525.83 220.768C525.243 220.959 524.716 221.345 524.357 221.904C523.97 222.512 523.854 223.212 523.97 223.868L435.439 248.29C435.238 247.754 434.869 247.276 434.351 246.943C433.071 246.124 431.37 246.5 430.551 247.779C429.732 249.058 430.108 250.76 431.387 251.579C431.761 251.816 432.169 251.95 432.58 251.993L431.172 363.009C429.929 362.387 428.39 362.792 427.624 363.989C426.805 365.268 427.181 366.97 428.461 367.788C428.578 367.863 428.697 367.924 428.822 367.978L415.696 406.632C414.587 406.367 413.386 406.81 412.739 407.823C412.412 408.333 412.279 408.91 412.314 409.472L361.286 417.347L361.498 416.685L360.793 417.426L360.486 417.473L360.594 417.636L300.269 481.046C300.197 480.992 300.124 480.938 300.047 480.888C298.767 480.069 297.066 480.445 296.247 481.724C295.428 483.003 295.804 484.705 297.083 485.523C298.363 486.342 300.064 485.966 300.883 484.687C301.187 484.212 301.325 483.675 301.314 483.15L340.402 478.723C340.46 478.769 340.52 478.813 340.585 478.854C340.903 479.059 341.25 479.187 341.602 479.248L336.44 545.803C335.547 545.818 334.681 546.262 334.163 547.071C333.344 548.351 333.72 550.052 335 550.871C336.279 551.69 337.98 551.314 338.799 550.035C339.123 549.53 339.257 548.955 339.224 548.398L385.002 541.528C385.165 542.188 385.569 542.792 386.19 543.189C387.022 543.72 388.029 543.745 388.857 543.351L405.766 571.65C405.497 571.845 405.258 572.091 405.069 572.388C404.25 573.668 404.626 575.369 405.906 576.188C407.185 577.007 408.886 576.631 409.705 575.352C410.201 574.574 410.256 573.642 409.938 572.847L442.464 556.178C442.672 556.507 442.951 556.797 443.303 557.022C444.452 557.756 445.937 557.528 446.823 556.548L475.768 580.246C474.973 581.524 475.35 583.205 476.621 584.017C477.901 584.836 479.602 584.46 480.421 583.181C480.564 582.958 480.668 582.722 480.74 582.479L508.392 587.155C508.319 588.131 508.77 589.115 509.654 589.678C509.883 589.826 510.127 589.931 510.375 590.002L502.421 631.889C501.427 631.795 500.416 632.244 499.843 633.144C499.024 634.423 499.4 636.124 500.679 636.943C501.958 637.762 503.659 637.386 504.478 636.107C504.539 636.013 504.588 635.917 504.637 635.819L563.563 657.777C563.257 658.907 563.699 660.151 564.736 660.814C566.015 661.632 567.717 661.256 568.536 659.977C569.355 658.698 568.979 656.997 567.699 656.178C567.335 655.944 566.934 655.811 566.53 655.765L568.523 563.748C569.304 563.648 570.036 563.217 570.493 562.502C571.312 561.223 570.936 559.521 569.657 558.702C568.378 557.883 566.676 558.259 565.857 559.539C565.777 559.666 565.711 559.799 565.651 559.933L534.36 551.636C534.566 550.563 534.12 549.421 533.142 548.797C532.825 548.594 532.48 548.465 532.132 548.405L535.846 471.946C536.71 471.909 537.542 471.464 538.044 470.682C538.863 469.403 538.487 467.701 537.208 466.882C535.929 466.063 534.227 466.439 533.408 467.719C533.22 468.012 533.099 468.33 533.034 468.65L497.835 464.817C497.85 463.896 497.403 462.987 496.568 462.455L496.791 462.575L539.641 383.403C540.857 383.923 542.303 383.507 543.037 382.358C543.417 381.765 543.536 381.082 543.432 380.439L579.883 371.047C580.081 371.6 580.454 372.096 580.989 372.435C582.27 373.252 583.969 372.878 584.788 371.599C585.607 370.319 585.231 368.618 583.952 367.799C583.454 367.48 582.89 367.344 582.34 367.373L574.406 311.079C575.078 310.92 575.69 310.514 576.091 309.886C576.91 308.607 576.534 306.906 575.255 306.087C574.721 305.746 574.117 305.614 573.532 305.668L567.287 271.423C567.917 271.248 568.485 270.851 568.865 270.258C569.683 268.979 569.308 267.278 568.028 266.459C567.893 266.372 567.751 266.302 567.61 266.242L585.571 205.003C586.63 205.187 587.744 204.736 588.36 203.774C588.822 203.049 588.903 202.189 588.653 201.429L628.478 183.199C628.693 183.589 629.005 183.933 629.406 184.191C630.686 185.01 632.387 184.634 633.206 183.355C634.023 182.073 633.649 180.374 632.37 179.555C632.36 179.55 632.349 179.545 632.341 179.538L644.473 148.11L650.886 131.498C651.956 131.697 653.089 131.25 653.712 130.277C654.531 128.997 654.155 127.296 652.876 126.477C651.88 125.841 650.634 125.927 649.742 126.597L620.296 100.683C620.317 100.652 620.342 100.622 620.364 100.587C621.183 99.3077 620.807 97.6064 619.527 96.7875C618.248 95.9685 616.547 96.3445 615.728 97.6238C615.534 97.9276 615.408 98.2549 615.346 98.5887L579.216 93.3044C579.265 92.3487 578.817 91.394 577.951 90.8424C576.672 90.0235 574.971 90.3995 574.152 91.6788ZM648.644 128.836C648.659 129.729 649.104 130.596 649.912 131.113C650.069 131.212 650.231 131.292 650.395 131.358L643.125 150.195L631.887 179.31C631.637 179.212 631.379 179.155 631.118 179.133L623.107 128.138L648.642 128.837L648.644 128.836ZM571.323 309.653L549.345 323.536L527.931 293.705C528.125 293.535 528.302 293.338 528.447 293.11C528.517 293.003 528.573 292.89 528.626 292.776L571.105 307.737C570.942 308.385 571.023 309.067 571.323 309.653ZM580.668 368.044C580.474 368.214 580.297 368.411 580.152 368.639C580.067 368.773 579.999 368.907 579.94 369.047L514.421 348.185C514.558 347.561 514.472 346.911 514.186 346.35L549.215 324.221L580.67 368.043L580.668 368.044ZM384.695 536.236L416.125 528.035L390.074 539.535C389.86 539.15 389.548 538.812 389.151 538.554C388.255 537.981 387.154 537.996 386.294 538.493L384.695 536.236ZM337.961 546.237C337.64 546.033 337.295 545.904 336.943 545.843L342.108 479.288C342.577 479.281 343.037 479.153 343.443 478.918L383.853 535.928L339.06 547.616C338.862 547.067 338.489 546.575 337.959 546.235L337.961 546.237ZM434.46 251.509C434.714 251.327 434.939 251.101 435.127 250.833L474.676 273.192C474.124 274.416 474.538 275.892 475.703 276.637L463.112 301.084L434.46 251.509ZM615.787 100.682C615.821 100.729 615.857 100.779 615.896 100.823L584.507 124.906C584.35 124.738 584.174 124.586 583.972 124.456C583.443 124.116 582.84 123.986 582.257 124.035L580.845 116.15L615.787 100.682ZM540.218 171.118L532.035 179.775C531.967 179.721 531.895 179.67 531.819 179.621C531.345 179.319 530.815 179.18 530.293 179.189L529.337 170.385L579.626 129.435L540.218 171.118ZM532.403 180.123L561.024 149.849L580.794 128.938C580.861 128.992 580.933 129.043 581.009 129.092C581.432 129.362 581.899 129.5 582.369 129.52L584.847 181.528L533.077 181.677C533.022 181.108 532.792 180.563 532.407 180.123L532.403 180.123ZM581.758 124.125C581.125 124.3 580.553 124.696 580.173 125.292C579.803 125.868 579.679 126.53 579.768 127.159L528.427 139.352L580.367 116.362L581.759 124.127L581.758 124.125ZM528.12 141.716C528.489 141.14 528.614 140.478 528.525 139.849L579.885 127.652C579.963 127.881 580.07 128.101 580.205 128.305L529.271 169.78L526.35 142.926C527.055 142.781 527.702 142.368 528.118 141.714L528.12 141.716ZM525.846 142.985L528.803 170.164L518.938 178.198C518.796 178.053 518.635 177.919 518.459 177.805C518.254 177.675 518.038 177.577 517.817 177.505L525.463 142.962C525.591 142.979 525.72 142.988 525.85 142.985L525.846 142.985ZM519.722 180.24C519.745 179.658 519.588 179.079 519.259 178.592L528.867 170.767L529.79 179.244C529.085 179.388 528.438 179.802 528.022 180.456C527.848 180.727 527.731 181.019 527.662 181.317L519.722 180.24ZM531.162 184.562L544.643 216.749L529.17 222.234C528.957 221.773 528.617 221.364 528.156 221.068C527.846 220.87 527.51 220.744 527.169 220.681L530.35 184.688C530.624 184.686 530.898 184.644 531.162 184.562ZM564.672 266.769C564.508 266.923 564.356 267.099 564.228 267.299C563.979 267.69 563.84 268.117 563.805 268.548L526.549 270.921L526.908 226.128C527.407 226.085 527.888 225.909 528.299 225.61L564.674 266.771L564.672 266.769ZM492.565 465.875L466.33 478.868C466.117 478.501 465.818 478.176 465.434 477.933C465.248 477.815 465.053 477.724 464.851 477.654L466.224 467.148L492.407 465.399C492.445 465.563 492.498 465.722 492.564 465.878L492.565 465.875ZM512.269 584.862C511.467 584.497 510.556 584.547 509.811 584.953L499.567 569.798L529.478 552.784C529.668 553.032 529.902 553.255 530.179 553.433L512.268 584.86L512.269 584.862ZM529.208 552.356L499.281 569.378L467.411 522.229C467.628 522.049 467.824 521.835 467.984 521.584C468.001 521.555 468.017 521.525 468.034 521.497L529.062 550.224C528.819 550.934 528.881 551.702 529.207 552.354L529.208 552.356ZM479.502 275.804C479.572 275.697 479.627 275.587 479.68 275.474L523.465 290.957C523.272 291.716 523.415 292.522 523.849 293.167L497.241 314.904L478.61 276.672C478.958 276.459 479.266 276.17 479.502 275.804ZM524.173 293.56C524.315 293.705 524.473 293.835 524.651 293.95C524.834 294.068 525.027 294.157 525.225 294.227L512.57 344.985C512.329 344.909 512.085 344.866 511.841 344.858L497.473 315.375L524.174 293.562L524.173 293.56ZM511.29 344.891C510.941 344.95 510.603 345.073 510.299 345.26L484.44 332.052L481.935 330.773C482.272 329.936 482.169 329 481.693 328.259L497.066 315.7L511.287 344.887L511.29 344.891ZM481.701 331.232C481.701 331.232 481.703 331.231 481.705 331.23L484.199 332.503L509.853 345.605C509.693 345.756 509.546 345.929 509.42 346.124C509.215 346.446 509.085 346.795 509.024 347.147L485.79 352.457L480.376 332.317C480.903 332.113 481.375 331.748 481.702 331.235L481.701 331.232ZM478.153 276.894L496.837 315.235L481.38 327.862C481.229 327.702 481.058 327.556 480.864 327.433C480.461 327.176 480.018 327.037 479.572 327.006L477.547 277.049C477.753 277.021 477.956 276.968 478.153 276.894ZM432.313 364.083L477.349 331.598C477.508 331.774 477.693 331.934 477.901 332.069C478.515 332.461 479.224 332.577 479.888 332.453L485.292 352.567L432.557 364.621C432.496 364.433 432.413 364.255 432.311 364.084L432.313 364.083ZM485.425 353.058L491.716 376.462C491.232 376.672 490.805 377.023 490.5 377.502C490.382 377.689 490.289 377.885 490.221 378.085L455.279 370.625L432.675 365.8C432.703 365.57 432.703 365.341 432.671 365.116L485.425 353.058ZM344.659 475.618L367.678 465.228L381.906 458.808C382.121 459.185 382.425 459.517 382.818 459.768C383.587 460.261 384.507 460.318 385.298 460.01L391.393 472.184L344.77 476.017C344.743 475.88 344.706 475.747 344.661 475.616L344.659 475.618ZM466.553 445.009L429.091 467.879C428.897 467.621 428.658 467.387 428.368 467.205C427.871 466.888 427.311 466.752 426.762 466.777L423.692 451.363L466.361 444.489C466.407 444.669 466.472 444.845 466.552 445.012L466.553 445.009ZM426.258 466.845C425.586 467.004 424.971 467.41 424.569 468.041C424.467 468.199 424.385 468.363 424.32 468.532L387.003 457.955C387.045 457.727 387.056 457.496 387.041 457.268L423.192 451.444L426.26 466.847L426.258 466.845ZM385.752 459.784C386.089 459.574 386.388 459.29 386.617 458.932C386.717 458.775 386.801 458.61 386.866 458.444L400.193 462.228L424.178 469.037C424.151 469.189 424.139 469.342 424.137 469.494L391.936 472.141L385.748 459.783L385.752 459.784ZM424.181 469.999C424.31 470.731 424.73 471.408 425.405 471.84C425.679 472.015 425.972 472.132 426.27 472.201L419.237 524.248C418.856 524.233 418.479 524.297 418.124 524.435L392.185 472.631L424.182 470.001L424.181 469.999ZM420.602 524.675C420.328 524.501 420.036 524.383 419.738 524.314L426.77 472.268C427.325 472.292 427.877 472.145 428.349 471.849L447.591 496.946L420.832 524.84C420.758 524.781 420.681 524.727 420.6 524.676L420.602 524.675ZM428.753 471.54C428.921 471.383 429.075 471.205 429.205 471.004C429.245 470.943 429.277 470.879 429.311 470.817L461.283 479.616C461.08 480.472 461.299 481.383 461.876 482.053L447.946 496.575L428.753 471.54ZM461.636 478.772C461.561 478.889 461.5 479.012 461.444 479.134L429.507 470.345C429.585 470.097 429.625 469.845 429.632 469.592L465.708 467.181L464.356 477.53C463.319 477.376 462.237 477.827 461.637 478.768L461.636 478.772ZM429.598 469.086C429.563 468.867 429.503 468.65 429.416 468.443L466.823 445.45C467.015 445.705 467.254 445.934 467.541 446.118C467.816 446.294 468.112 446.412 468.416 446.48L465.779 466.668L429.6 469.085L429.598 469.086ZM491.335 381.299C491.37 381.321 491.405 381.34 491.442 381.36L478.584 416.743L469.719 441.136C469.153 440.988 468.561 441.029 468.027 441.235L446.146 397.379L490.281 380.047C490.489 380.545 490.845 380.987 491.335 381.299ZM466.575 442.538C466.337 442.996 466.244 443.494 466.277 443.981L423.59 450.86L415.842 411.947C416.376 411.788 416.865 411.468 417.229 411.002L466.575 442.538ZM415.344 412.048L423.088 450.942L386.957 456.764C386.81 456.19 386.481 455.663 385.985 455.279L413.799 411.758C414.288 412.012 414.826 412.104 415.344 412.048ZM381.978 455.968C381.509 456.705 381.434 457.578 381.696 458.345L371.323 463.026L344.445 475.155C344.387 475.059 344.324 474.963 344.255 474.872L377.968 443.821L385.317 454.895C384.113 454.414 382.703 454.836 381.978 455.968ZM344.527 477.779C344.729 477.378 344.822 476.949 344.821 476.523L391.639 472.674L417.669 524.659C417.407 524.821 417.17 525.028 416.969 525.278L344.527 477.779ZM421.197 525.191L447.903 497.35L463.8 518.085C463.632 518.242 463.478 518.419 463.348 518.62C463.024 519.126 462.89 519.697 462.922 520.251L421.79 526.339C421.687 525.921 421.487 525.526 421.197 525.191ZM464.203 517.776L448.26 496.981L462.242 482.406C462.317 482.465 462.394 482.519 462.475 482.57C462.892 482.838 463.356 482.975 463.821 482.997L465.299 517.379C464.913 517.43 464.54 517.566 464.207 517.777L464.203 517.776ZM492.34 464.892L466.293 466.634L468.918 446.545C469.679 446.573 470.432 446.287 470.983 445.727L492.685 463.439C492.43 463.897 492.318 464.399 492.339 464.89L492.34 464.892ZM492.973 463.02L471.301 445.332C471.313 445.314 471.327 445.297 471.339 445.279C472.158 444 471.782 442.299 470.502 441.48C470.403 441.417 470.3 441.36 470.195 441.311L490.025 386.75L491.905 381.573C492.082 381.636 492.264 381.679 492.446 381.704L494.628 462.065C493.994 462.174 493.401 462.498 492.97 463.019L492.973 463.02ZM492.2 376.302L485.923 352.944L508.99 347.67C509.013 348.51 509.421 349.322 510.15 349.841L493.824 376.421C493.297 376.214 492.733 376.181 492.203 376.303L492.2 376.302ZM523.815 290.147C523.745 290.254 523.69 290.364 523.637 290.477L479.852 274.994C479.901 274.798 479.929 274.599 479.933 274.401L526.04 271.464L525.901 288.892C525.077 288.964 524.295 289.4 523.814 290.151L523.815 290.147ZM525.198 225.706C525.575 225.948 525.988 226.081 526.405 226.123L526.048 270.953L479.903 273.893C479.825 273.397 479.613 272.923 479.279 272.532L524.954 225.529C525.031 225.593 525.112 225.653 525.198 225.706ZM476.159 276.871C476.446 276.985 476.745 277.051 477.044 277.065L479.069 327.014C478.782 327.047 478.502 327.128 478.235 327.249L463.416 301.607L476.157 276.868L476.159 276.871ZM477.797 327.505C477.514 327.704 477.267 327.959 477.067 328.268C476.479 329.187 476.509 330.321 477.044 331.191L432.016 363.67C431.903 363.539 431.776 363.418 431.634 363.308L463.136 302.146L477.791 327.506L477.797 327.505ZM432.265 366.958C432.4 366.747 432.499 366.525 432.569 366.298L490.099 378.578C490.05 378.909 490.061 379.243 490.13 379.563L445.919 396.925L431.395 367.813C431.735 367.604 432.033 367.318 432.265 366.958ZM445.672 397.566L467.573 441.461C467.303 441.629 467.056 441.843 466.85 442.109L417.505 410.573C417.837 409.929 417.89 409.206 417.7 408.547L445.671 397.564L445.672 397.566ZM413.373 411.484L385.777 454.665L378.35 443.471L413.221 411.352C413.27 411.398 413.32 411.441 413.373 411.484ZM343.912 474.5C343.801 474.398 343.683 474.305 343.553 474.221C343.422 474.137 343.286 474.07 343.148 474.01L361.003 418.25L377.687 443.391L343.914 474.498L343.912 474.5ZM343.864 478.628C343.978 478.53 344.086 478.42 344.185 478.301L344.368 478.281L416.694 525.703C416.402 526.251 416.316 526.86 416.41 527.438L384.385 535.796L343.863 478.632L343.864 478.628ZM406.205 571.394L389.296 543.095C389.565 542.9 389.804 542.654 389.992 542.356C390.115 542.167 390.205 541.967 390.276 541.761L413.751 547.41L407.81 571.153C407.262 571.068 406.703 571.154 406.207 571.392L406.205 571.394ZM390.394 541.267C390.456 540.839 390.416 540.404 390.28 540L416.716 528.33C416.93 528.715 417.242 529.053 417.639 529.311C417.822 529.429 418.015 529.518 418.21 529.587L413.874 546.919L390.394 541.267ZM418.701 529.71C419.443 529.824 420.203 529.63 420.8 529.168L442.816 552.786C442.688 552.917 442.57 553.066 442.466 553.226C442.36 553.391 442.276 553.564 442.21 553.741L414.364 547.04L418.699 529.711L418.701 529.71ZM443.204 552.457L424.155 532.023L445.8 552.15C444.931 551.805 443.953 551.932 443.204 552.457ZM421.296 528.672C421.345 528.609 421.391 528.543 421.437 528.476C421.76 527.971 421.894 527.399 421.862 526.845L462.995 520.757C463.157 521.421 463.563 522.027 464.184 522.424C464.73 522.774 465.355 522.904 465.954 522.838L477.222 579.098C476.844 579.226 476.49 579.439 476.192 579.724L421.293 528.671L421.296 528.672ZM466.452 522.737C466.637 522.681 466.818 522.61 466.991 522.515L498.839 569.63L480.365 580.14C480.162 579.847 479.903 579.59 479.582 579.387C479.006 579.017 478.346 578.894 477.719 578.982L466.454 522.739L466.452 522.737ZM480.611 580.582L499.121 570.053L509.388 585.242C509.17 585.422 508.974 585.636 508.814 585.887C508.657 586.133 508.545 586.394 508.473 586.662L480.834 581.987C480.883 581.505 480.805 581.022 480.609 580.584L480.611 580.582ZM513.452 588.849C514.25 587.601 513.912 585.957 512.709 585.117L530.547 553.819L503.027 631.43L510.873 590.108C511.867 590.202 512.878 589.753 513.452 588.853L513.452 588.849ZM503.639 632.316C503.533 632.248 503.422 632.191 503.31 632.14L531.087 553.81C531.491 553.896 531.907 553.889 532.302 553.793L543.394 588.312L503.794 632.429C503.741 632.392 503.691 632.353 503.637 632.317L503.639 632.316ZM529.342 549.637C529.316 549.678 529.294 549.722 529.271 549.764L468.252 521.041C468.537 520.259 468.443 519.398 468.03 518.7L487.097 504.847L529.584 549.317C529.497 549.418 529.415 549.522 529.342 549.637ZM467.731 518.289C467.565 518.099 467.372 517.929 467.145 517.786C466.728 517.518 466.264 517.381 465.799 517.358L464.321 482.977C464.804 482.911 465.268 482.716 465.656 482.408L486.74 504.475L467.728 518.289L467.731 518.289ZM466.027 482.054C466.114 481.953 466.198 481.848 466.271 481.733C466.597 481.223 466.73 480.646 466.697 480.086L533.059 469.869C533.123 470.126 533.224 470.373 533.362 470.606L487.16 504.173L466.029 482.053L466.027 482.054ZM532.98 469.367L466.62 479.583C466.599 479.498 466.575 479.412 466.542 479.329L492.809 466.319C493.012 466.62 493.279 466.884 493.603 467.092C494.884 467.909 496.583 467.535 497.402 466.256C497.59 465.962 497.712 465.645 497.777 465.324L532.973 469.159C532.971 469.229 532.974 469.299 532.978 469.369L532.98 469.367ZM495.134 462.027L492.951 381.726C493.809 381.684 494.635 381.24 495.133 380.461C495.356 380.111 495.489 379.728 495.54 379.34L537.973 381.021C538.017 381.859 538.444 382.663 539.192 383.161L496.344 462.328C495.958 462.129 495.544 462.031 495.132 462.025L495.134 462.027ZM538.401 379.398C538.178 379.748 538.045 380.131 537.993 380.517L496.494 378.873L535.294 375.039L538.725 378.98C538.606 379.105 538.494 379.246 538.398 379.397L538.401 379.398ZM495.514 378.458C495.375 377.743 494.959 377.085 494.297 376.661C494.291 376.657 494.282 376.654 494.274 376.647L510.584 350.094C511.497 350.516 512.551 350.398 513.342 349.829L534.888 374.567L495.516 378.456L495.514 378.458ZM513.726 349.497C513.846 349.372 513.957 349.232 514.054 349.08C514.137 348.947 514.207 348.811 514.266 348.671L579.785 369.534C579.742 369.734 579.719 369.936 579.72 370.14L535.507 374.507L513.726 349.497ZM513.914 345.923C513.725 345.677 513.495 345.459 513.217 345.28C513.16 345.244 513.099 345.212 513.041 345.179L525.713 294.346C526.338 294.441 526.976 294.317 527.519 294.001L548.916 323.81L513.914 345.923ZM528.388 290.055C528.188 289.767 527.926 289.511 527.611 289.31C527.235 289.069 526.821 288.936 526.404 288.894L526.543 271.431L563.81 269.056C563.837 269.322 563.903 269.582 564.004 269.829L528.384 290.055L528.388 290.055ZM565.076 266.457L528.68 225.271C528.795 225.149 528.902 225.015 528.994 224.87C529.42 224.202 529.52 223.424 529.339 222.713L544.84 217.218L565.393 266.283C565.283 266.335 565.177 266.393 565.074 266.458L565.076 266.457ZM545.125 216.578L531.631 184.366C532.037 184.15 532.394 183.834 532.658 183.419C532.721 183.32 532.773 183.219 532.824 183.117L573.21 197.884L583.382 201.602C583.261 202.07 583.269 202.557 583.392 203.011L545.127 216.576L545.125 216.578ZM583.724 200.811C583.659 200.911 583.604 201.017 583.554 201.125L532.999 182.641C533.04 182.489 533.065 182.339 533.079 182.184L584.87 182.035L585.705 199.563C584.919 199.66 584.181 200.092 583.724 200.811ZM585.355 181.526L582.874 129.495C583.321 129.431 583.748 129.258 584.118 128.986L629.195 179.709C628.956 179.894 628.744 180.121 628.572 180.39C628.369 180.707 628.24 181.052 628.179 181.4L585.355 181.523L585.355 181.526ZM630.605 179.139C630.264 179.176 629.931 179.274 629.625 179.433L584.497 128.652C584.61 128.531 584.715 128.399 584.805 128.255C585.035 127.893 585.168 127.502 585.217 127.102L622.589 128.125L630.603 179.141L630.605 179.139ZM585.234 126.594C585.204 126.138 585.063 125.698 584.817 125.308L616.25 101.19C616.35 101.275 616.452 101.355 616.564 101.427C617.15 101.801 617.823 101.924 618.46 101.825L622.512 127.613L585.234 126.594ZM615.538 100.235L580.754 115.632L577.203 95.8091C577.836 95.6348 578.408 95.2381 578.788 94.642C578.957 94.3779 579.072 94.0961 579.142 93.8072L615.297 99.0954C615.296 99.488 615.377 99.8753 615.538 100.235ZM574.638 95.2083C574.747 95.3055 574.863 95.3966 574.988 95.4783C575.518 95.8185 576.121 95.9486 576.703 95.899L580.277 115.844L528.205 138.891C528.14 138.775 528.064 138.661 527.98 138.556L574.638 95.2083ZM517.824 182.739C518.411 182.548 518.938 182.163 519.297 181.603C519.471 181.333 519.588 181.04 519.657 180.742L527.597 181.82C527.556 182.766 528.005 183.708 528.86 184.254C529.171 184.452 529.507 184.578 529.848 184.642L526.667 220.634C526.554 220.634 526.44 220.642 526.327 220.655L517.825 182.735L517.824 182.739ZM524.108 224.357C524.218 224.651 524.378 224.927 524.588 225.173L478.913 272.176C478.836 272.113 478.754 272.053 478.668 271.999C477.419 271.199 475.768 271.542 474.93 272.751L435.381 250.391C435.614 249.874 435.675 249.314 435.579 248.781L524.11 224.36L524.108 224.357ZM433.093 252.003C433.413 251.978 433.73 251.895 434.024 251.76L462.838 301.619L431.696 362.079L433.091 252.001L433.093 252.003ZM429.308 368.146C429.856 368.279 430.426 368.234 430.941 368.036L445.445 397.106L417.515 408.073C417.299 407.646 416.974 407.267 416.541 406.991C416.424 406.916 416.304 406.855 416.18 406.801L429.306 368.148L429.308 368.146ZM412.395 409.978C412.486 410.336 412.648 410.676 412.876 410.976L378.064 443.038L361.353 417.854L412.394 409.976L412.395 409.978ZM301.261 482.645C301.166 482.19 300.954 481.757 300.64 481.398L360.342 418.645L342.665 473.855C341.571 473.614 340.393 474.059 339.753 475.057C339.098 476.083 339.21 477.373 339.934 478.269L301.26 482.649L301.261 482.645ZM341.166 547.593L384.172 536.371L385.88 538.784C385.681 538.954 385.501 539.156 385.354 539.389C385.03 539.894 384.895 540.469 384.927 541.027L341.164 547.595L341.166 547.593ZM409.71 572.394C409.502 572.065 409.221 571.773 408.871 571.55C408.688 571.432 408.496 571.346 408.3 571.275L414.243 547.526L442.079 554.226C441.989 554.734 442.049 555.252 442.236 555.725L409.71 572.394ZM447.13 556.14C447.637 555.314 447.656 554.32 447.26 553.503L471.948 576.461L447.131 556.142L447.13 556.14ZM504.817 635.346C505.063 634.436 504.822 633.456 504.178 632.759L543.578 588.863L565.139 655.963C564.648 656.172 564.212 656.527 563.9 657.01C563.84 657.105 563.788 657.202 563.742 657.298L504.816 635.344L504.817 635.346ZM566.023 655.754C565.889 655.764 565.753 655.78 565.621 655.81L543.972 588.429L566.573 563.25C566.614 563.28 566.655 563.31 566.697 563.339C567.108 563.602 567.563 563.739 568.019 563.766L566.023 655.754ZM565.495 560.414C565.294 561.304 565.549 562.246 566.188 562.914L543.792 587.866L532.789 553.621C533.263 553.409 533.683 553.063 533.983 552.594C534.08 552.442 534.159 552.284 534.223 552.121L565.495 560.414ZM531.628 548.363C531.025 548.371 530.434 548.577 529.955 548.96L487.517 504.539L533.663 471.012C533.829 471.201 534.022 471.372 534.249 471.515C534.592 471.733 534.964 471.865 535.343 471.919L531.63 548.361L531.628 548.363ZM542.203 378.557C541.226 377.933 540.004 378.005 539.115 378.644L535.918 374.974L579.211 370.697L543.307 379.946C543.109 379.393 542.736 378.897 542.2 378.556L542.203 378.557ZM581.839 367.444C581.575 367.508 581.319 367.609 581.084 367.748L549.645 323.949L571.597 310.082C571.785 310.328 572.017 310.548 572.293 310.725C572.792 311.044 573.355 311.18 573.905 311.151L581.839 367.444ZM573.032 305.758C572.403 305.933 571.834 306.331 571.455 306.923C571.385 307.03 571.329 307.143 571.277 307.257L528.798 292.296C528.95 291.69 528.889 291.056 528.638 290.495L564.244 270.276C564.45 270.594 564.725 270.877 565.067 271.093C565.6 271.434 566.205 271.566 566.79 271.512L573.034 305.757L573.032 305.758ZM567.125 266.089C566.708 265.999 566.28 266.009 565.874 266.112L545.321 217.047L583.567 203.489C583.78 203.934 584.114 204.329 584.562 204.612C584.73 204.719 584.902 204.804 585.082 204.871L567.128 266.093L567.125 266.089ZM588.452 200.963C588.238 200.573 587.925 200.229 587.524 199.971C587.114 199.709 586.665 199.571 586.213 199.545L585.38 182.032L628.142 181.911C628.147 182.19 628.192 182.468 628.28 182.731L588.452 200.963ZM649.364 126.941C649.259 127.055 649.163 127.178 649.076 127.313C648.871 127.632 648.742 127.977 648.681 128.329L623.028 127.627L618.955 101.702C619.328 101.572 619.676 101.36 619.967 101.073L649.362 126.942L649.364 126.941Z" fill="#B4185C"/>
<path d="M51.6902 138.609C52.38 139.581 53.5857 139.966 54.6717 139.661L77.3843 199.16C77.2537 199.223 77.1256 199.297 77.0029 199.383C75.765 200.265 75.4757 201.98 76.355 203.219C77.2344 204.458 78.9526 204.746 80.1912 203.867C80.389 203.726 80.5603 203.563 80.7095 203.384L109.873 223.413C109.373 224.313 109.395 225.454 110.032 226.347C110.911 227.586 112.629 227.874 113.868 226.995C114.414 226.605 114.776 226.051 114.935 225.449L153.278 231.771C153.235 232.386 153.396 233.018 153.78 233.561C154.198 234.148 154.803 234.518 155.455 234.656L144.935 325.889C144.363 325.874 143.781 326.038 143.278 326.393C142.039 327.273 141.751 328.991 142.63 330.229C143.509 331.468 145.228 331.757 146.466 330.877C146.826 330.62 147.103 330.292 147.297 329.927L249.702 372.82C248.659 373.739 248.459 375.318 249.282 376.476C250.161 377.715 251.879 378.003 253.118 377.124C253.231 377.043 253.332 376.955 253.429 376.861L284.351 403.51C283.69 404.439 283.65 405.718 284.348 406.699C284.698 407.192 285.184 407.532 285.718 407.71L273.904 457.973L273.369 457.528L273.792 458.459L273.721 458.762L273.913 458.722L310.107 538.409C310.03 538.454 309.952 538.502 309.877 538.555C308.638 539.435 308.349 541.153 309.229 542.391C310.108 543.63 311.826 543.919 313.065 543.039C314.303 542.16 314.592 540.442 313.713 539.203C313.386 538.743 312.94 538.414 312.449 538.228L322.987 500.328C323.051 500.291 323.115 500.252 323.177 500.207C323.486 499.989 323.735 499.715 323.923 499.411L383.699 529.129C383.378 529.963 383.465 530.933 384.022 531.716C384.901 532.954 386.619 533.243 387.858 532.363C389.096 531.484 389.385 529.766 388.506 528.527C388.159 528.038 387.676 527.698 387.148 527.521L397.926 482.502C398.599 482.598 399.311 482.45 399.911 482.023C400.716 481.451 401.116 480.526 401.061 479.611L433.633 474.534C433.714 474.856 433.852 475.17 434.057 475.457C434.936 476.695 436.654 476.984 437.893 476.104C439.132 475.225 439.42 473.507 438.541 472.268C438.006 471.517 437.163 471.118 436.306 471.114L433.035 434.712C433.418 434.643 433.791 434.492 434.132 434.25C435.243 433.46 435.588 431.998 435.011 430.809L467.827 412.849C468.713 414.065 470.414 414.345 471.643 413.471C472.882 412.591 473.17 410.873 472.291 409.635C472.138 409.419 471.958 409.234 471.759 409.076L486.454 385.189C487.331 385.622 488.413 385.572 489.266 384.964C489.488 384.807 489.678 384.621 489.836 384.417L525.693 407.483C525.234 408.369 525.271 409.475 525.891 410.344C526.77 411.582 528.489 411.871 529.727 410.992C530.966 410.112 531.254 408.394 530.375 407.155C530.31 407.064 530.24 406.982 530.168 406.901L572.6 360.491C573.533 361.198 574.853 361.254 575.856 360.541C577.094 359.661 577.383 357.943 576.503 356.704C575.624 355.466 573.906 355.177 572.667 356.057C572.314 356.307 572.041 356.629 571.847 356.986L487.277 320.668C487.477 319.906 487.351 319.066 486.859 318.375C485.98 317.136 484.262 316.847 483.023 317.727C481.784 318.606 481.496 320.324 482.375 321.563C482.463 321.685 482.562 321.796 482.664 321.902L463.248 347.806C462.331 347.213 461.105 347.199 460.161 347.872C459.854 348.09 459.605 348.361 459.418 348.662L389.918 316.576C390.207 315.761 390.107 314.823 389.57 314.064C388.69 312.826 386.972 312.537 385.733 313.417C384.495 314.296 384.206 316.014 385.085 317.253C385.287 317.537 385.536 317.768 385.809 317.949L369.069 349.148C368.221 348.789 367.211 348.863 366.404 349.439L366.599 349.277L309.245 279.889C310.182 278.956 310.337 277.46 309.547 276.348C309.14 275.774 308.551 275.408 307.916 275.263L312.863 237.948C313.45 237.972 314.049 237.812 314.564 237.443C315.802 236.561 316.091 234.845 315.212 233.607C314.333 232.368 312.614 232.079 311.376 232.959C310.893 233.302 310.555 233.773 310.376 234.294L255.21 220.562C255.314 219.879 255.166 219.16 254.735 218.553C253.856 217.314 252.138 217.026 250.899 217.905C250.383 218.272 250.034 218.783 249.866 219.346L215.775 212.307C215.849 211.658 215.693 210.982 215.286 210.408C214.406 209.17 212.688 208.881 211.45 209.76C211.318 209.853 211.201 209.959 211.092 210.067L161.04 170.474C161.608 169.56 161.607 168.359 160.945 167.427C160.446 166.727 159.68 166.33 158.881 166.277L156.897 122.522C157.339 122.47 157.775 122.309 158.165 122.034C159.403 121.154 159.692 119.436 158.813 118.197C157.931 116.959 156.215 116.67 154.976 117.549C154.968 117.557 154.959 117.564 154.95 117.569L130.355 94.5478L117.355 82.3788C117.94 81.4609 117.951 80.2439 117.281 79.3011C116.402 78.0625 114.684 77.7738 113.445 78.6532C112.483 79.3381 112.096 80.5259 112.383 81.6034L77.325 99.1983C77.3041 99.1669 77.285 99.1323 77.261 99.0991C76.3816 97.8605 74.6634 97.5718 73.4248 98.4512C72.1863 99.3306 71.8976 101.049 72.7769 102.287C72.9862 102.581 73.2422 102.82 73.5285 103.003L55.0945 134.523C54.2269 134.119 53.1737 134.177 52.3381 134.773C51.0995 135.652 50.8108 137.37 51.6902 138.609ZM114.047 83.4602C114.881 83.781 115.851 83.6935 116.633 83.1372C116.784 83.0289 116.919 82.9089 117.042 82.7815L131.783 96.5787L154.568 117.905C154.384 118.1 154.234 118.318 154.117 118.552L103.834 106.876L114.047 83.4626L114.047 83.4602ZM252.733 222.887L257.372 248.465L221.691 257.144C221.606 256.901 221.49 256.663 221.333 256.443C221.259 256.338 221.176 256.244 221.09 256.153L250.874 222.371C251.415 222.765 252.077 222.945 252.733 222.887ZM310.373 236.096C310.457 236.339 310.574 236.577 310.731 236.797C310.823 236.926 310.922 237.04 311.03 237.146L267.143 290.08C266.616 289.719 265.981 289.555 265.354 289.61L257.958 248.842L310.372 236.093L310.373 236.096ZM392.905 480.804L397.074 448.591L397.978 477.053C397.542 477.107 397.111 477.269 396.723 477.541C395.856 478.158 395.458 479.184 395.596 480.167L392.905 480.804ZM384.67 527.882C384.361 528.103 384.112 528.374 383.924 528.678L324.15 498.957C324.319 498.52 324.373 498.046 324.307 497.581L392.304 481.47L386.361 527.379C385.777 527.357 385.182 527.519 384.668 527.882L384.67 527.882ZM147.553 328.002C147.48 327.699 147.354 327.405 147.176 327.131L182.722 298.837C183.65 299.807 185.173 299.977 186.301 299.175L204.251 320.008L147.553 328.002ZM75.6347 103.378C75.6914 103.364 75.7506 103.349 75.806 103.33L86.3769 141.455C86.1619 141.538 85.9555 141.644 85.7595 141.782C85.2456 142.146 84.8992 142.656 84.727 143.215L76.8868 141.571L75.6347 103.378ZM112.633 199.83L117.595 210.661C117.519 210.703 117.444 210.751 117.371 210.803C116.913 211.129 116.586 211.569 116.398 212.056L107.877 209.644L88.7473 147.677L112.633 199.83ZM118.055 210.449L100.707 172.571L88.7241 146.408C88.7999 146.366 88.8745 146.318 88.9478 146.266C89.3569 145.976 89.6596 145.594 89.8539 145.166L139.003 162.351L119.748 210.406C119.2 210.245 118.608 210.254 118.057 210.446L118.055 210.449ZM84.6232 143.712C84.5476 144.364 84.7012 145.043 85.1116 145.618C85.5073 146.177 86.0744 146.54 86.6908 146.693L78.7629 198.863L76.9043 142.092L84.6257 143.711L84.6232 143.712ZM80.8397 200.033C80.444 199.475 79.877 199.111 79.2606 198.959L87.1915 146.769C87.4329 146.783 87.6775 146.766 87.9164 146.717L107.292 209.479L81.2991 202.128C81.4289 201.42 81.2877 200.665 80.8372 200.034L80.8397 200.033ZM81.1645 202.617L107.472 210.057L111.226 222.213C111.038 222.291 110.853 222.389 110.682 222.51C110.484 222.651 110.313 222.814 110.164 222.993L80.9998 202.964C81.0633 202.851 81.1207 202.735 81.1664 202.614L81.1645 202.617ZM113.413 222.251C112.882 222.012 112.286 221.94 111.712 222.063L108.056 210.223L116.261 212.543C116.131 213.25 116.272 214.006 116.722 214.637C116.908 214.899 117.135 215.117 117.386 215.293L113.413 222.251ZM121.706 213.263L156.599 212.821L155.888 229.222C155.381 229.247 154.875 229.409 154.428 229.725C154.127 229.939 153.885 230.203 153.698 230.496L121.518 214.064C121.62 213.808 121.683 213.538 121.706 213.263ZM210.48 212.989C210.561 213.199 210.668 213.405 210.805 213.598C211.074 213.976 211.418 214.265 211.804 214.459L200.049 249.891L158.651 232.778C158.799 232.299 158.815 231.788 158.692 231.295L210.482 212.988L210.48 212.989ZM368.076 354.432L370.295 383.623C369.875 383.683 369.461 383.839 369.093 384.104C368.913 384.232 368.756 384.379 368.615 384.539L359.389 379.331L367.575 354.399C367.742 354.426 367.909 354.437 368.079 354.434L368.076 354.432ZM485.78 380.735C485.141 381.342 484.846 382.206 484.943 383.048L467.055 386.869L462.485 352.763C462.786 352.68 463.08 352.546 463.349 352.356L485.778 380.736L485.78 380.735ZM461.986 352.853L466.558 386.978L410.904 398.865C410.818 398.596 410.693 398.334 410.52 398.091C410.5 398.065 410.478 398.039 410.458 398.013L459.955 352.189C460.522 352.681 461.258 352.911 461.984 352.853L461.986 352.853ZM186.952 295.341C186.878 295.236 186.798 295.144 186.712 295.053L217.47 260.256C218.101 260.719 218.903 260.888 219.663 260.727L229.85 293.541L187.422 296.493C187.356 296.091 187.203 295.697 186.952 295.341ZM220.149 260.575C220.336 260.497 220.516 260.4 220.69 260.278C220.868 260.152 221.022 260.006 221.161 259.849L263.482 290.597C263.322 290.792 263.191 291.002 263.092 291.226L230.374 293.502L220.151 260.574L220.149 260.575ZM262.916 291.748C262.84 292.095 262.828 292.454 262.887 292.805L240.953 311.834L238.83 313.677C238.179 313.052 237.273 312.796 236.408 312.959L230.522 294.002L262.911 291.75L262.916 291.748ZM239.168 314.067C239.168 314.067 239.167 314.064 239.166 314.062L241.281 312.226L263.04 293.348C263.12 293.553 263.225 293.755 263.359 293.944C263.58 294.255 263.855 294.506 264.159 294.695L260.379 318.226L239.677 315.701C239.686 315.136 239.524 314.561 239.17 314.066L239.168 314.067ZM187.457 297L230.005 294.039L235.922 313.101C235.717 313.181 235.518 313.286 235.332 313.419C234.943 313.696 234.647 314.055 234.452 314.457L187.373 297.62C187.425 297.419 187.452 297.211 187.457 297ZM251.125 372.164L237.876 318.239C238.099 318.157 238.317 318.045 238.52 317.903C239.113 317.48 239.486 316.866 239.62 316.205L260.294 318.729L251.715 372.14C251.518 372.126 251.322 372.136 251.125 372.166L251.125 372.164ZM260.799 318.789L284.855 321.724C284.869 322.252 285.035 322.778 285.364 323.24C285.493 323.42 285.64 323.58 285.8 323.718L265.794 353.321L252.853 372.471C252.65 372.36 252.437 372.274 252.217 372.219L260.799 318.789ZM321.703 495.217L320.693 469.983L320.07 454.385C320.5 454.327 320.922 454.17 321.302 453.899C322.047 453.371 322.444 452.539 322.455 451.691L336.026 450.6L322.115 495.264C321.977 495.238 321.84 495.222 321.702 495.215L321.703 495.217ZM338.985 370.733L346.156 414.034C345.844 414.117 345.538 414.252 345.26 414.452C344.78 414.794 344.444 415.262 344.262 415.781L328.821 412.853L338.431 370.716C338.615 370.741 338.802 370.747 338.988 370.735L338.985 370.733ZM344.136 416.273C344.032 416.956 344.178 417.679 344.612 418.288C344.721 418.441 344.842 418.579 344.975 418.702L321.188 449.34C320.993 449.216 320.783 449.119 320.566 449.047L328.708 413.347L344.139 416.273L344.136 416.273ZM322.415 451.185C322.347 450.794 322.196 450.41 321.95 450.063C321.842 449.912 321.72 449.772 321.59 449.65L330.091 438.711L345.39 419.023C345.52 419.106 345.658 419.173 345.798 419.233L336.189 450.08L322.414 451.188L322.415 451.185ZM346.283 419.381C347.009 419.535 347.795 419.4 348.449 418.936C348.713 418.747 348.931 418.52 349.107 418.269L394.729 444.286C394.573 444.634 394.49 445.008 394.486 445.389L336.737 450.033L346.285 419.381L346.283 419.381ZM395.637 443.181C395.372 443.37 395.154 443.597 394.978 443.848L349.356 417.83C349.586 417.325 349.656 416.758 349.559 416.209L380.037 407.77L395.876 443.03C395.794 443.076 395.715 443.127 395.637 443.183L395.637 443.181ZM349.424 415.719C349.341 415.504 349.234 415.295 349.096 415.099C349.055 415.039 349.008 414.985 348.963 414.931L369.097 388.583C369.816 389.092 370.743 389.23 371.58 388.946L379.826 407.302L349.424 415.719ZM368.447 387.939C368.528 388.053 368.619 388.155 368.711 388.253L348.598 414.572C348.398 414.407 348.179 414.276 347.947 414.174L359.226 379.822L368.315 384.952C367.784 385.856 367.796 387.028 368.444 387.937L368.447 387.939ZM347.466 414.017C347.249 413.966 347.025 413.941 346.801 413.944L339.495 370.647C339.804 370.565 340.105 370.43 340.383 370.232C340.65 370.043 340.87 369.812 341.047 369.556L358.777 379.565L347.465 414.014L347.466 414.017ZM289.198 323.889C289.231 323.865 289.262 323.839 289.294 323.813L317.284 348.989L336.58 366.346C336.231 366.816 336.047 367.38 336.038 367.952L287.178 371.812L287.642 324.397C288.182 324.391 288.725 324.227 289.198 323.889ZM336.702 369.786C337.038 370.179 337.465 370.452 337.929 370.603L328.316 412.759L289.334 405.366C289.387 404.812 289.272 404.238 288.977 403.725L336.702 369.786ZM289.241 405.866L328.204 413.255L320.067 448.936C319.48 448.858 318.868 448.966 318.326 449.281L288.393 407.19C288.812 406.831 289.099 406.367 289.241 405.866ZM317.464 453.255C317.971 453.966 318.753 454.362 319.562 454.407L320.016 465.778L321.193 495.242C321.082 495.26 320.97 495.282 320.86 495.312L304.699 452.422L317.72 449.757C316.823 450.693 316.686 452.158 317.464 453.255ZM323.657 496.149C323.361 495.812 322.998 495.564 322.603 495.406L336.572 450.555L394.523 445.895C394.575 446.199 394.678 446.495 394.834 446.775L323.657 496.149ZM396.338 442.823L380.528 407.632L405.708 400.66C405.791 400.875 405.898 401.084 406.036 401.28C406.383 401.769 406.862 402.107 407.388 402.285L397.624 442.704C397.198 442.642 396.757 442.679 396.338 442.823ZM405.573 400.17L380.32 407.163L372.044 388.738C372.126 388.692 372.205 388.641 372.283 388.585C372.688 388.298 372.988 387.919 373.184 387.496L405.615 399.005C405.518 399.383 405.505 399.779 405.575 400.167L405.573 400.17ZM367.08 354.272L358.938 379.074L341.295 369.115C341.606 368.42 341.623 367.615 341.31 366.895L365.863 353.408C366.192 353.815 366.615 354.107 367.078 354.272L367.08 354.272ZM365.581 352.983L341.063 366.451C341.051 366.433 341.041 366.415 341.029 366.397C340.149 365.158 338.431 364.869 337.192 365.749C337.097 365.817 337.006 365.892 336.921 365.971L293.761 327.146L289.665 323.464C289.79 323.323 289.898 323.17 289.99 323.011L365.316 351.092C365.18 351.72 365.258 352.391 365.58 352.986L365.581 352.983ZM284.888 321.216L260.88 318.285L264.631 294.922C265.419 295.215 266.324 295.141 267.079 294.66L285.607 319.754C285.218 320.165 284.976 320.675 284.89 321.212L284.888 321.216ZM216.85 259.628C216.924 259.733 217.004 259.825 217.09 259.916L186.332 294.713C186.169 294.594 185.994 294.494 185.813 294.416L200.361 250.567L216.468 257.224C216.226 258.015 216.337 258.903 216.854 259.63L216.85 259.628ZM157.62 234.206C157.985 233.947 158.263 233.613 158.458 233.243L199.89 250.367L185.33 294.254C184.841 294.14 184.322 294.159 183.834 294.323L157.364 234.366C157.452 234.318 157.538 234.265 157.62 234.206ZM186.688 298.841C186.902 298.617 187.075 298.365 187.2 298.093L234.271 314.926C234.193 315.205 234.164 315.495 234.176 315.787L204.85 319.922L186.686 298.841L186.688 298.841ZM234.249 316.29C234.328 316.626 234.472 316.952 234.683 317.252C235.316 318.142 236.378 318.539 237.385 318.369L250.631 372.284C250.467 372.341 250.307 372.412 250.152 372.503L205.245 320.384L234.248 316.296L234.249 316.29ZM253.773 373.286C253.628 373.081 253.459 372.906 253.275 372.756L286.212 324.016C286.5 324.185 286.814 324.3 287.137 324.356L286.673 371.851L254.24 374.413C254.173 374.019 254.02 373.635 253.773 373.286ZM287.174 372.32L336.078 368.458C336.132 368.772 336.238 369.08 336.407 369.371L288.682 403.309C288.21 402.76 287.56 402.44 286.878 402.37L287.172 372.321L287.174 372.32ZM287.979 407.481L317.678 449.244L304.518 451.936L287.801 407.573C287.862 407.545 287.92 407.514 287.979 407.481ZM320.386 495.491C320.251 495.556 320.12 495.63 319.993 495.72C319.866 495.809 319.753 495.91 319.646 496.016L274.635 458.573L304.195 452.522L320.386 495.488L320.386 495.491ZM324.196 497.082C324.147 496.94 324.086 496.798 324.013 496.662L324.063 496.485L395.126 447.19C395.525 447.666 396.057 447.973 396.628 448.103L392.38 480.927L324.199 497.084L324.196 497.082ZM433.56 474.031L400.988 479.108C400.907 478.786 400.769 478.472 400.564 478.185C400.434 478.001 400.282 477.842 400.118 477.7L414.15 458.05L433.939 472.453C433.654 472.929 433.525 473.48 433.559 474.029L433.56 474.031ZM399.705 477.405C399.331 477.187 398.912 477.061 398.487 477.036L397.57 448.153C398.007 448.099 398.437 447.937 398.825 447.665C399.003 447.539 399.158 447.394 399.294 447.239L413.74 457.752L399.705 477.405ZM399.593 446.83C399.976 446.184 400.081 445.407 399.876 444.681L430.022 433.116C430.095 433.283 430.189 433.448 430.299 433.604C430.412 433.765 430.542 433.908 430.681 434.035L414.036 457.343L399.593 446.832L399.593 446.83ZM429.862 432.632L403.78 442.64L430.55 430.11C429.905 430.787 429.656 431.741 429.862 432.632ZM399.603 444.035C399.562 443.966 399.519 443.898 399.473 443.831C399.126 443.342 398.647 443.004 398.121 442.826L407.885 402.407C408.561 402.506 409.275 402.357 409.875 401.929C410.404 401.554 410.759 401.023 410.923 400.443L467.307 411.071C467.284 411.469 467.349 411.877 467.502 412.26L399.601 444.038L399.603 444.035ZM411.016 399.944C411.033 399.751 411.034 399.557 411.012 399.361L466.626 387.481L469.45 408.548C469.103 408.626 468.767 408.77 468.459 408.991C467.9 409.387 467.539 409.953 467.386 410.567L411.018 399.943L411.016 399.944ZM469.952 408.485L467.124 387.378L485.053 383.549C485.138 383.819 485.264 384.08 485.437 384.323C485.606 384.56 485.805 384.762 486.027 384.929L471.338 408.804C470.91 408.579 470.433 408.47 469.953 408.488L469.952 408.485ZM489.92 381.132C489.062 379.925 487.41 379.622 486.181 380.423L463.844 352.159L525.495 406.75L490.121 383.995C490.58 383.108 490.543 382.003 489.923 381.134L489.92 381.132ZM526.546 406.514C526.443 406.586 526.348 406.668 526.26 406.752L464.038 351.656C464.269 351.313 464.419 350.925 464.478 350.522L500.638 353.169L526.709 406.413C526.655 406.447 526.6 406.479 526.546 406.516L526.546 406.514ZM459.516 351.71C459.544 351.75 459.577 351.786 459.607 351.823L410.117 397.64C409.499 397.082 408.665 396.847 407.863 396.969L402.162 374.1L459.31 351.366C459.371 351.484 459.436 351.599 459.516 351.71ZM407.371 397.092C407.132 397.175 406.902 397.29 406.684 397.446C406.279 397.733 405.979 398.111 405.783 398.534L373.352 387.025C373.472 386.553 373.465 386.05 373.325 385.574L401.683 374.292L407.369 397.095L407.371 397.092ZM373.136 385.098C373.075 384.98 373.009 384.862 372.929 384.752C372.578 384.258 372.093 383.918 371.562 383.739L386.948 318.382C387.211 318.419 387.478 318.418 387.745 318.377L401.561 373.789L373.135 385.095L373.136 385.098ZM386.453 318.267L371.066 383.622C370.98 383.61 370.891 383.6 370.802 383.599L368.579 354.372C368.934 354.296 369.279 354.147 369.593 353.925C370.831 353.043 371.12 351.328 370.241 350.089C370.039 349.804 369.79 349.573 369.517 349.393L386.258 318.196C386.322 318.224 386.388 318.247 386.454 318.27L386.453 318.267ZM365.471 350.608L290.199 322.551C290.481 321.74 290.38 320.807 289.844 320.053C289.602 319.716 289.298 319.449 288.957 319.256L306.411 280.543C307.204 280.816 308.109 280.721 308.852 280.214L366.203 349.599C365.873 349.882 365.627 350.229 365.468 350.609L365.471 350.608ZM305.066 279.538C305.308 279.876 305.612 280.143 305.951 280.336L288.881 318.197L299.86 280.786L304.801 279.081C304.871 279.239 304.96 279.394 305.065 279.541L305.066 279.538ZM288.129 318.95C287.414 318.811 286.648 318.95 286.007 319.405C286.001 319.41 285.994 319.417 285.985 319.421L267.476 294.352C268.209 293.664 268.494 292.643 268.263 291.695L299.272 280.985L288.128 318.947L288.129 318.95ZM268.099 291.215C268.028 291.058 267.94 290.902 267.835 290.755C267.743 290.629 267.644 290.512 267.536 290.406L311.423 237.472C311.593 237.587 311.771 237.684 311.96 237.76L299.447 280.389L268.099 291.215ZM264.856 289.702C264.557 289.785 264.268 289.917 263.999 290.107C263.943 290.147 263.892 290.191 263.839 290.233L221.455 259.441C221.777 258.897 221.901 258.259 221.811 257.637L257.465 248.965L264.856 289.702ZM218.478 255.354C218.136 255.431 217.801 255.578 217.497 255.795C217.132 256.053 216.854 256.387 216.658 256.758L200.519 250.088L212.277 214.645C212.534 214.719 212.8 214.755 213.066 214.754L218.476 255.357L218.478 255.354ZM210.342 212.497L158.52 230.814C158.451 230.661 158.366 230.512 158.266 230.372C157.807 229.728 157.122 229.344 156.396 229.245L157.108 212.814L210.299 212.138C210.306 212.26 210.32 212.379 210.342 212.499L210.342 212.497ZM156.621 212.31L121.7 212.754C121.651 212.298 121.492 211.848 121.207 211.448C121.138 211.353 121.064 211.267 120.988 211.181L149.809 179.267L157.067 171.229C157.455 171.517 157.91 171.691 158.377 171.748L156.62 212.308L156.621 212.31ZM156.461 170.615C156.53 170.713 156.608 170.804 156.689 170.891L120.613 210.84C120.487 210.746 120.357 210.666 120.219 210.595L139.482 162.519L156.046 168.311C155.842 169.077 155.966 169.922 156.461 170.615ZM139.192 161.879L90.0199 144.688C90.1279 144.25 90.1282 143.789 90.0146 143.344L153.929 120.551C154.012 120.842 154.143 121.123 154.328 121.383C154.546 121.69 154.817 121.939 155.118 122.126L139.189 161.878L139.192 161.879ZM153.93 119.03C153.836 119.36 153.802 119.706 153.835 120.048L89.8461 142.867C89.7772 142.717 89.6935 142.57 89.5938 142.433C89.3446 142.084 89.0313 141.814 88.6791 141.62L103.628 107.352L153.93 119.033L153.93 119.03ZM88.2143 141.413C87.7807 141.27 87.3194 141.236 86.866 141.318L76.2792 103.139C76.395 103.079 76.5071 103.014 76.6162 102.937C77.1831 102.534 77.5493 101.956 77.6963 101.328L103.124 107.231L88.2143 141.413ZM75.1272 103.442L76.3725 141.461L56.6627 137.327C56.7382 136.675 56.5847 135.996 56.1742 135.421C55.9927 135.165 55.7748 134.952 55.5328 134.78L73.9799 103.238C74.3438 103.386 74.733 103.456 75.1272 103.442ZM55.1449 139.48C55.2756 139.416 55.4037 139.342 55.5263 139.257C56.0402 138.893 56.3867 138.383 56.5589 137.824L76.39 141.982L78.2529 198.896C78.1211 198.913 77.9868 198.941 77.8575 198.979L55.1449 139.48ZM115.019 224.947C115.062 224.331 114.902 223.699 114.518 223.156C114.332 222.893 114.105 222.675 113.854 222.499L117.828 215.541C118.69 215.934 119.731 215.87 120.558 215.282C120.858 215.068 121.101 214.804 121.287 214.511L153.467 230.943C153.425 231.048 153.389 231.157 153.359 231.266L115.016 224.945L115.019 224.947ZM155.961 234.711C156.275 234.719 156.591 234.674 156.897 234.572L183.367 294.528C183.28 294.576 183.194 294.629 183.112 294.689C181.902 295.548 181.601 297.206 182.408 298.437L146.861 326.73C146.468 326.32 145.973 326.054 145.443 325.943L155.964 234.71L155.961 234.711ZM147.499 329.455C147.595 329.149 147.637 328.824 147.622 328.501L204.644 320.463L249.036 371.986L147.496 329.456L147.499 329.455ZM253.767 376.473C254.095 376.014 254.268 375.468 254.276 374.917L286.663 372.359L286.368 402.363C285.891 402.404 285.418 402.563 285.001 402.861C284.887 402.942 284.786 403.03 284.689 403.125L253.767 376.475L253.767 376.473ZM286.217 407.824C286.583 407.874 286.959 407.851 287.322 407.752L304.009 452.04L274.399 458.101L286.215 407.824L286.217 407.824ZM311.961 538.088C311.504 538.006 311.023 538.039 310.572 538.196L274.754 459.334L319.321 496.405C318.688 497.33 318.659 498.588 319.345 499.556C320.05 500.547 321.289 500.927 322.391 500.592L311.964 538.09L311.961 538.088ZM387.129 525.419L392.834 481.34L395.711 480.66C395.794 480.908 395.914 481.151 396.075 481.375C396.422 481.864 396.905 482.204 397.434 482.384L387.129 525.421L387.129 525.419ZM435.801 471.156C435.418 471.225 435.042 471.377 434.704 471.618C434.526 471.743 434.374 471.889 434.235 472.044L414.442 457.637L431.081 434.338C431.518 434.612 432.021 434.75 432.53 434.754L435.801 471.156ZM434.748 430.372C434.171 429.592 433.258 429.202 432.352 429.263L462.886 414.974L434.751 430.372L434.748 430.372ZM529.796 406.556C529.045 405.987 528.046 405.844 527.159 406.18L501.218 353.205L571.509 358.35C571.519 358.884 571.685 359.421 572.016 359.891C572.081 359.982 572.152 360.067 572.224 360.145L529.794 406.557L529.796 406.556ZM571.646 357.452C571.605 357.58 571.57 357.712 571.548 357.846L500.963 352.677L486.084 322.29C486.127 322.263 486.171 322.237 486.213 322.208C486.611 321.925 486.909 321.555 487.104 321.143L571.646 357.452ZM483.051 322.227C483.801 322.746 484.77 322.863 485.629 322.521L500.374 352.633L464.501 350.006C464.482 349.488 464.318 348.968 463.996 348.515C463.891 348.368 463.774 348.235 463.647 348.115L483.051 322.227ZM459.191 349.114C458.972 349.676 458.942 350.301 459.117 350.888L402.033 373.595L388.234 318.25C388.472 318.167 388.703 318.052 388.92 317.896C389.251 317.659 389.513 317.363 389.705 317.033L459.19 349.111L459.191 349.114ZM305.711 275.698C304.766 276.37 304.375 277.53 304.635 278.594L300.035 280.183L312.287 238.44L307.412 275.195C306.825 275.171 306.226 275.331 305.709 275.701L305.711 275.698ZM310.255 234.785C310.215 235.054 310.213 235.329 310.254 235.599L257.867 248.341L253.233 222.793C253.531 222.711 253.823 222.578 254.09 222.389C254.572 222.046 254.91 221.574 255.089 221.053L310.255 234.785ZM249.762 219.843C249.688 220.492 249.844 221.168 250.251 221.741C250.324 221.846 250.408 221.94 250.494 222.032L220.71 255.813C220.204 255.444 219.594 255.264 218.979 255.287L213.571 214.699C213.943 214.627 214.309 214.478 214.637 214.242C215.153 213.875 215.502 213.364 215.67 212.801L249.761 219.84L249.762 219.843ZM210.768 210.459C210.529 210.812 210.378 211.213 210.321 211.628L157.129 212.304L158.886 171.764C159.378 171.733 159.869 171.572 160.3 171.263C160.462 171.146 160.605 171.019 160.735 170.877L210.773 210.458L210.768 210.459ZM158.374 166.289C157.932 166.341 157.495 166.502 157.106 166.777C156.71 167.059 156.414 167.424 156.22 167.833L139.67 162.045L155.577 122.352C155.837 122.451 156.112 122.514 156.389 122.531L158.374 166.289ZM112.56 82.0827C112.626 82.2231 112.704 82.358 112.797 82.4893C113.016 82.7986 113.287 83.0476 113.591 83.2363L103.33 106.759L77.7668 100.823C77.7862 100.429 77.7199 100.026 77.5631 99.6493L112.56 82.0851L112.56 82.0827Z" fill="#2B6577"/>
<path d="M354.682 94.2012L163.314 163.169L166.414 182.076L357.881 113.694L354.682 94.2012Z" fill="#F5C07A"/>
<path d="M381.243 256.174L357.881 113.695L166.414 182.077L189.873 325.144L381.243 256.174Z" fill="#FBE4C6"/>
<path d="M252.596 168.121C252.596 168.121 252.351 161.027 269.965 158.581C287.58 156.134 305.194 171.548 308.618 181.332C312.043 191.118 322.074 231.483 322.074 231.483L245.013 253.502C245.013 253.502 227.155 210.444 232.781 190.14C238.408 169.836 252.596 168.121 252.596 168.121Z" fill="#4F2B2B"/>
<path d="M266.64 241.898C261.186 244.04 255.99 246.192 251.288 248.253C238.766 253.742 229.909 265.223 227.708 278.718L221.923 314.182L374.85 258.743C374.85 258.743 364.893 231.204 341.145 224.025C334.822 222.113 322.235 224.136 307.68 228.069L266.64 241.898Z" fill="#F29EC3"/>
<path d="M291.68 211.831L267.284 218.136L273.467 242.058L297.862 235.754L291.68 211.831Z" fill="#FFBE97"/>
<path d="M295.5 226L292.5 215.5L270.5 224C282.9 230.8 292.333 228.167 295.5 226Z" fill="#4F2B2B"/>
<path d="M243.699 220.15C247.644 218.319 249.357 213.637 247.526 209.692C245.695 205.748 241.013 204.034 237.068 205.865C233.124 207.696 231.41 212.378 233.241 216.323C235.072 220.268 239.754 221.981 243.699 220.15Z" fill="#FFBE97"/>
<path d="M242.656 215.932L238.199 216.905C237.48 217.063 236.772 216.607 236.614 215.89C236.456 215.171 236.912 214.463 237.629 214.305L242.086 213.332C242.805 213.174 243.513 213.63 243.671 214.347C243.829 215.066 243.373 215.774 242.656 215.932Z" fill="#4F2B2B"/>
<path d="M307.453 197.398C311.801 197.333 315.274 193.756 315.21 189.408C315.145 185.059 311.568 181.586 307.219 181.651C302.871 181.715 299.398 185.293 299.463 189.641C299.527 193.99 303.104 197.462 307.453 197.398Z" fill="#FFBE97"/>
<path d="M309.972 190.233L305.633 191.642C304.934 191.87 304.184 191.487 303.956 190.787C303.728 190.088 304.112 189.338 304.811 189.11L309.15 187.701C309.849 187.473 310.599 187.856 310.827 188.556C311.055 189.255 310.671 190.005 309.972 190.233Z" fill="#4F2B2B"/>
<path d="M307.432 194.004C309.223 210.031 293.227 226.021 273.992 228.172C254.76 230.32 239.574 217.816 237.783 201.788C235.992 185.761 249.33 168.543 268.483 165.772C290.732 162.556 305.641 177.976 307.432 194.004Z" fill="#FFBE97"/>
<path d="M263.063 207.175C262.451 207.346 261.817 206.989 261.649 206.377L261.09 204.376C260.919 203.764 261.276 203.13 261.888 202.962C262.499 202.791 263.133 203.148 263.302 203.76L263.861 205.761C264.032 206.373 263.674 207.006 263.063 207.175Z" fill="#775340"/>
<path d="M289.089 200.733C288.477 200.904 287.844 200.546 287.675 199.935L287.116 197.933C286.945 197.322 287.302 196.688 287.914 196.519C288.526 196.348 289.159 196.706 289.328 197.317L289.887 199.319C290.058 199.93 289.701 200.564 289.089 200.733Z" fill="#775340"/>
<path d="M281.612 189.591C281.261 189.591 280.917 189.418 280.711 189.103C280.386 188.605 280.527 187.938 281.024 187.614C284.747 185.187 295.368 184.317 298.593 187.588C299.009 188.011 299.005 188.69 298.582 189.109C298.161 189.526 297.479 189.521 297.06 189.098C294.743 186.75 285.461 187.29 282.197 189.416C282.017 189.534 281.814 189.591 281.612 189.591Z" fill="#4F2B2B"/>
<path d="M251.476 201.543C251.252 201.543 251.026 201.473 250.833 201.328C250.358 200.973 250.259 200.3 250.616 199.824C254.54 194.576 262.033 192.456 264.991 193.646C265.541 193.87 265.809 194.495 265.587 195.045C265.363 195.595 264.741 195.86 264.188 195.641C262.465 194.951 255.88 196.378 252.339 201.113C252.129 201.396 251.805 201.545 251.478 201.545L251.476 201.543Z" fill="#4F2B2B"/>
<path d="M259.103 216.25C262.03 215.469 264.063 213.561 263.643 211.988C263.224 210.414 260.511 209.771 257.584 210.552C254.657 211.332 252.624 213.24 253.044 214.814C253.463 216.387 256.176 217.03 259.103 216.25Z" fill="#FF9D6C"/>
<path d="M296.83 204.762C299.757 203.982 301.789 202.074 301.37 200.5C300.95 198.927 298.237 198.284 295.311 199.064C292.384 199.845 290.351 201.753 290.77 203.327C291.19 204.9 293.903 205.543 296.83 204.762Z" fill="#FF9D6C"/>
<path d="M275.29 205.2C275.182 205.2 275.075 205.185 274.968 205.15C274.4 204.972 274.086 204.367 274.264 203.801C274.687 202.455 274.382 200.642 273.466 199.064C272.859 198.016 271.449 196.175 268.832 195.602C268.251 195.477 267.882 194.903 268.009 194.324C268.134 193.746 268.709 193.373 269.288 193.502C271.826 194.055 273.97 195.648 275.325 197.983C276.55 200.099 276.921 202.512 276.314 204.444C276.169 204.904 275.746 205.196 275.288 205.196L275.29 205.2Z" fill="#4F2B2B"/>
<path d="M277.904 217.608C275.503 217.608 273.256 216.85 271.651 215.405C270.875 214.706 270.533 213.671 270.742 212.641C270.95 211.597 271.673 210.767 272.673 210.416L285.02 206.088C286.019 205.738 287.104 205.939 287.918 206.623C288.722 207.301 289.101 208.32 288.93 209.35C288.389 212.641 285.622 215.614 281.882 216.922C280.565 217.385 279.21 217.611 277.904 217.611V217.608ZM285.73 208.118L273.385 212.444C272.986 212.584 272.879 212.924 272.85 213.064C272.824 213.198 272.793 213.54 273.092 213.807C274.992 215.519 278.169 215.945 281.174 214.892C284.182 213.838 286.396 211.525 286.813 208.997C286.879 208.603 286.642 208.355 286.537 208.267C286.427 208.175 286.127 207.976 285.732 208.118H285.73Z" fill="#4F2B2B"/>
<path d="M238.408 204.573C257.98 192.829 257 178.887 257 178.887C257 178.887 269.233 188.427 302.015 180.11C302.015 180.11 292.229 147.327 257.491 166.411C222.751 185.492 238.41 204.575 238.41 204.575L238.408 204.573Z" fill="#4F2B2B"/>
<path d="M307.68 228.07C294.551 231.62 279.824 236.721 266.64 241.899L295.702 255.642L307.68 228.07Z" fill="#FFBE97"/>
<path d="M215.15 205.906L223.259 202.984L210.187 123.264L116 157.208L129.07 236.928L197.807 212.156L217.645 216.88L215.15 205.906Z" fill="#F2AE54"/>
<path d="M238 318.499C229.181 329.914 227.216 341.484 227.501 343.499C247.244 355.495 264.847 357.376 272 350.499C254.544 344.988 243.07 323.11 238 318.499Z" fill="#8FC6D7"/>
<path d="M228 312.999L223.5 318.499C222.038 320.395 220.769 320.512 218.5 319.999C217.553 322.985 215.878 335.546 227.769 343.853C227.598 339.828 230.349 328.787 238.5 318.499L228 312.999Z" fill="#3F97B1"/>
<path d="M262.777 280.828C258.355 279.327 250.462 282.666 247 286.101L277.454 297C278.015 297.197 278.002 295.402 277.807 295.964C277.651 296.409 278.252 295.964 277.807 295.964C277.689 295.964 277.57 295.944 277.454 295.904L249.308 286.101C244.79 284.555 237.47 288.335 234 291.972C235.524 291.95 238.724 293.004 240.186 293.5L268 303.5C268.561 303.697 268.527 301.584 268.332 302.146C268.177 302.591 269.13 302.205 268.685 302.205C268.567 302.205 268.448 302.185 268.332 302.146L240.186 292.342C235.629 290.79 230.514 292.217 227.042 295.933L224.304 299.59C224.591 299.55 227.211 299.019 227.5 299C229.274 298.886 230.827 299.436 232.5 300L260.171 309.375C260.732 309.57 260.366 308.545 260.171 309.106C259.975 309.669 260.727 309.297 260.171 309.106L232.022 299.302C230.519 298.789 229.039 298.594 227.546 298.695C226.491 298.763 225.474 299.011 224.51 299.39C224.442 299.416 224.376 299.449 224.304 299.462C221.274 300.732 218.843 303.439 217.85 306.885L216.199 316.143C215.874 317.945 216.824 319.71 218.501 320.435C220.145 321.148 222.067 320.657 223.168 319.232L227.274 313.911C227.607 313.479 228.206 313.368 228.675 313.644L238.752 319.644C238.77 319.655 238.772 319.677 238.788 319.688C238.82 319.71 238.858 319.716 238.888 319.743C239.027 319.857 239.116 320.001 239.18 320.157C239.184 320.17 239.2 320.174 239.204 320.188C239.314 320.47 250.321 348.513 273.769 351.604L315.974 313.745L282.088 286.978L262.77 280.833L262.777 280.828Z" fill="#FFBE97"/>
<path d="M224.5 299.5C228 298.666 235.4 297.5 237 299.5L257 312" stroke="black" stroke-width="1.5" stroke-linecap="round"/>
<path d="M234 292.104C237.5 291.271 241.9 289 243.5 291L259.5 301.5" stroke="black" stroke-width="1.5" stroke-linecap="round"/>
<path d="M248 285.906C251.5 285.073 254.9 284.5 256.5 286.5L266.5 294" stroke="black" stroke-width="1.5" stroke-linecap="round"/>
<path d="M322.302 398.921C322.302 398.921 334.462 300.549 365.469 278.629C396.478 256.709 484.691 241.206 484.691 241.206C484.691 241.206 507.082 236.835 538.624 246.991C567.927 256.429 583.062 398.921 583.062 398.921" fill="#FFB8BD"/>
<path d="M322.301 398.92L280.759 366.076C276.225 362.492 273.772 356.91 274.171 351.145C275.304 334.776 280.971 302.855 307.855 300.52C347.558 297.074 408.506 346.793 408.506 346.793L322.301 398.92Z" fill="#DF8711"/>
<path d="M463.18 201.177L415.013 214.074L425.738 254.131L473.906 241.234L463.18 201.177Z" fill="#FFBE97"/>
<path d="M421 235.5L416 218.5C436.833 209.333 468.1 190.801 450.5 210.001C432.9 229.201 425.5 236.667 421 235.5Z" fill="#4F2B2B"/>
<path d="M412.518 262.055L413.587 241.74L478.679 224.097L487.5 246.552L412.518 262.055Z" fill="#BF8888"/>
<path d="M475.028 162.427C479.515 190.325 455.966 220.215 425.886 226.206C395.804 232.197 370.579 212.024 366.093 184.124C361.608 156.224 382.356 128.752 412.439 122.761C442.521 116.77 470.544 134.528 475.03 162.425L475.028 162.427Z" fill="#FFBE97"/>
<path d="M372.164 186.48L365.166 202.53C364.263 204.604 365.657 206.954 367.911 207.153L378.677 208.109L372.164 186.48Z" fill="#FFBE97"/>
<path d="M380.118 187.544C381.234 187.129 381.804 185.889 381.39 184.773L380.178 181.506C379.763 180.39 378.523 179.82 377.407 180.235C376.291 180.649 375.721 181.89 376.135 183.006L377.347 186.272C377.762 187.388 379.003 187.958 380.118 187.544Z" fill="#4F2B2B"/>
<path d="M372.253 174.86C371.836 174.86 371.437 174.615 371.264 174.207C371.031 173.661 371.286 173.03 371.832 172.795C375.806 171.096 380.346 170.546 384.61 171.25C385.195 171.346 385.592 171.899 385.496 172.484C385.399 173.069 384.84 173.466 384.262 173.37C380.399 172.74 376.282 173.234 372.676 174.773C372.538 174.832 372.395 174.858 372.253 174.858V174.86Z" fill="#4F2B2B"/>
<path d="M473.853 197.301C473.803 197.301 473.752 197.299 473.702 197.29C473.114 197.207 472.704 196.663 472.788 196.073C474.708 182.53 472.623 168.228 466.915 155.798C466.667 155.258 466.904 154.62 467.443 154.373C467.98 154.127 468.62 154.362 468.868 154.901C474.745 167.699 476.891 182.429 474.914 196.376C474.837 196.913 474.377 197.301 473.851 197.301H473.853Z" fill="#775340"/>
<path d="M419.581 172.216H410.406L404.079 163.357L389.526 163.674L387.628 152.285L382.883 163.99L366.748 163.674C368.185 135.098 393.955 122.23 393.955 122.23C393.955 122.23 439.102 94.202 474.699 124.094C510.296 153.987 507.638 198.659 499.621 214.608L441.726 227.579C441.726 227.579 440.37 190.489 426.926 178.145" fill="#4F2B2B"/>
<path d="M419.873 196.712C426.558 195.165 430.723 188.492 429.176 181.807C427.629 175.123 420.956 170.958 414.271 172.505C407.587 174.052 403.422 180.725 404.969 187.409C406.516 194.094 413.189 198.259 419.873 196.712Z" fill="#FFBE97"/>
<path d="M422.927 182.152L418.076 185.819C417.295 186.409 416.25 186.151 415.741 185.243C415.234 184.335 415.456 183.119 416.236 182.527L421.087 178.86C421.868 178.27 422.913 178.528 423.422 179.436C423.929 180.344 423.707 181.559 422.927 182.152Z" fill="#4F2B2B"/>
<path d="M322.302 398.921C322.302 398.921 334.462 300.549 365.469 278.629C396.478 256.709 484.691 241.206 484.691 241.206C484.691 241.206 507.082 236.835 538.624 246.991C567.927 256.429 583.062 398.921 583.062 398.921H322.302Z" fill="#DF8711"/>
<path d="M386.908 217.055C386.45 217.055 386.027 216.761 385.882 216.301C385.705 215.735 386.021 215.13 386.586 214.952C391.926 213.277 396.493 209.483 399.113 204.539C399.391 204.015 400.042 203.814 400.566 204.092C401.09 204.37 401.292 205.022 401.013 205.545C398.128 210.984 393.104 215.161 387.229 217.002C387.121 217.035 387.014 217.052 386.906 217.052L386.908 217.055Z" fill="#4F2B2B"/>
<path d="M403.682 196.836C408.072 194.948 410.808 191.504 409.793 189.144C408.778 186.784 404.396 186.401 400.006 188.289C395.616 190.177 392.88 193.62 393.895 195.981C394.91 198.341 399.292 198.724 403.682 196.836Z" fill="#FF9D6C"/>
<path d="M399.151 399.996C399.051 399.996 398.945 399.981 398.842 399.95C398.272 399.779 397.95 399.179 398.121 398.611L407.745 366.534C407.914 365.967 408.512 365.64 409.084 365.813C409.654 365.984 409.977 366.585 409.806 367.152L400.182 399.229C400.041 399.696 399.614 399.996 399.151 399.996Z" fill="#4F2B2B"/>
<path d="M157.679 168.678C157.239 168.678 156.827 168.406 156.669 167.968C156.467 167.409 156.756 166.793 157.315 166.593L204.843 149.465C205.404 149.262 206.018 149.553 206.217 150.112C206.419 150.671 206.13 151.287 205.571 151.487L158.043 168.615C157.923 168.658 157.8 168.678 157.679 168.678Z" fill="#4F2B2B"/>
<path d="M130.322 178.538C129.881 178.538 129.469 178.266 129.311 177.828C129.11 177.269 129.399 176.653 129.958 176.453L144.438 171.236C144.992 171.03 145.61 171.324 145.812 171.883C146.014 172.442 145.724 173.058 145.165 173.257L130.686 178.475C130.565 178.518 130.442 178.538 130.322 178.538Z" fill="#4F2B2B"/>
<path d="M169.424 181.636C168.975 181.636 168.556 181.353 168.405 180.904C168.216 180.341 168.519 179.731 169.082 179.543L186.195 173.801C186.756 173.617 187.367 173.917 187.556 174.479C187.744 175.042 187.442 175.651 186.879 175.84L169.766 181.581C169.652 181.619 169.538 181.636 169.424 181.636Z" fill="#4F2B2B"/>
<path d="M134.537 194.634C134.103 194.634 133.695 194.37 133.533 193.941C133.323 193.386 133.601 192.764 134.156 192.553L156.166 184.194C156.722 183.982 157.343 184.262 157.553 184.817C157.764 185.371 157.485 185.994 156.931 186.204L134.921 194.563C134.796 194.612 134.667 194.634 134.539 194.634H134.537Z" fill="#4F2B2B"/>
<path d="M166.112 200.871C165.671 200.871 165.259 200.599 165.101 200.16C164.9 199.601 165.189 198.985 165.748 198.786L196.891 187.564C197.448 187.358 198.066 187.652 198.265 188.211C198.467 188.77 198.178 189.386 197.619 189.585L166.476 200.807C166.355 200.851 166.232 200.871 166.112 200.871Z" fill="#4F2B2B"/>
<path d="M138.754 210.732C138.314 210.732 137.902 210.46 137.744 210.021C137.542 209.462 137.832 208.846 138.391 208.647L152.87 203.429C153.427 203.225 154.045 203.517 154.245 204.076C154.446 204.635 154.157 205.251 153.598 205.451L139.118 210.668C138.998 210.712 138.875 210.732 138.754 210.732Z" fill="#4F2B2B"/>
<path d="M540.671 399.324C540.654 399.324 540.636 399.324 540.621 399.324C540.027 399.295 539.568 398.793 539.597 398.199L543.175 322.57C543.203 321.976 543.745 321.52 544.299 321.546C544.893 321.575 545.352 322.077 545.323 322.671L541.745 398.3C541.719 398.877 541.243 399.324 540.671 399.324Z" fill="#4F2B2B"/>
</g>
</svg>
