<svg width="372" height="250" viewBox="0 0 372 250" fill="none" xmlns="http://www.w3.org/2000/svg">
<mask id="mask0_934_11049" style="mask-type:alpha" maskUnits="userSpaceOnUse" x="0" y="0" width="372" height="250">
<path d="M0 20C0 8.9543 8.95431 0 20 0H352C363.046 0 372 8.9543 372 20V250H0V20Z" fill="#F7FDFE"/>
</mask>
<g mask="url(#mask0_934_11049)">
<path d="M254.194 150.223C254.194 150.223 290.158 150.984 310.26 181.117C330.362 211.249 321.999 248.5 321.999 248.5L164.999 248.5L157.064 148.824L254.194 150.223Z" fill="#BF8888"/>
<path d="M305.431 226.858C305.27 226.862 305.109 226.821 304.965 226.729L264.628 201.146C264.241 200.901 264.125 200.388 264.372 200C264.619 199.613 265.136 199.501 265.517 199.743L305.853 225.326C306.241 225.571 306.356 226.084 306.11 226.472C305.956 226.714 305.697 226.85 305.431 226.857L305.431 226.858Z" fill="#4F2B2B"/>
<path d="M211.114 117.159C211.114 117.159 210.456 74.4699 248.757 75.9955C287.056 77.5198 295.771 98.7982 296.438 107.356C296.438 107.356 310.057 111.282 307.736 129.554C305.482 147.291 285.962 158.689 271.759 163.463L211.116 117.159L211.114 117.159Z" fill="#4F2B2B"/>
<path d="M292.255 143.703C291.526 143.416 290.782 143.234 290.037 143.131C294.062 127.594 288.896 108.811 270.256 97.4954C250.009 85.2024 224.006 91.0849 213.224 107.619C202.44 124.154 207.051 147.786 226.891 160.725C244.778 172.391 268.93 171.379 281.415 158.954C282.406 160.107 283.679 161.045 285.191 161.641C290.144 163.591 295.741 161.158 297.693 156.204C299.643 151.251 297.208 145.654 292.255 143.703Z" fill="#FFBE97"/>
<path d="M236.93 143.461C239.603 146.167 246.258 149.878 251.493 143.079" stroke="#4F2B2B" stroke-width="1.5" stroke-linecap="round" stroke-linejoin="round"/>
<path d="M292.459 155.574L286.877 155.428C285.977 155.405 285.268 154.657 285.292 153.758C285.315 152.858 286.063 152.149 286.962 152.172L292.544 152.318C293.444 152.341 294.153 153.089 294.13 153.989C294.106 154.888 293.358 155.598 292.459 155.574Z" fill="#4F2B2B"/>
<path d="M232.217 123.538C231.494 123.257 231.133 122.443 231.414 121.719L232.331 119.347C232.611 118.624 233.425 118.263 234.149 118.544C234.872 118.824 235.233 119.638 234.952 120.362L234.036 122.734C233.755 123.458 232.941 123.818 232.217 123.538Z" fill="#4F2B2B"/>
<path d="M262.46 136.277C261.736 135.996 261.375 135.182 261.656 134.459L262.573 132.087C262.853 131.363 263.666 131.003 264.391 131.283C265.115 131.564 265.475 132.378 265.195 133.101L264.278 135.473C263.997 136.197 263.183 136.557 262.46 136.277Z" fill="#4F2B2B"/>
<path d="M279.461 132.692C279.099 132.701 278.759 132.472 278.647 132.11C277.393 128.096 266.669 123.288 261.782 123.792C261.359 123.821 260.918 123.507 260.87 123.051C260.824 122.595 261.156 122.187 261.612 122.14C266.899 121.602 278.611 126.427 280.233 131.615C280.37 132.052 280.126 132.519 279.688 132.655C279.612 132.679 279.536 132.691 279.462 132.693L279.461 132.692Z" fill="#4F2B2B"/>
<path d="M241.15 116.368C240.833 116.377 240.526 116.201 240.381 115.897C239.16 113.35 231.665 109.432 224.635 110.766C224.189 110.849 223.748 110.556 223.665 110.105C223.578 109.654 223.875 109.22 224.325 109.134C232.004 107.687 240.262 111.802 241.878 115.179C242.077 115.593 241.901 116.089 241.489 116.287C241.379 116.339 241.265 116.365 241.152 116.368L241.15 116.368Z" fill="#4F2B2B"/>
<path d="M230.181 129.456C231.01 127.643 228.949 124.923 225.577 123.382C222.206 121.841 218.8 122.061 217.972 123.874C217.143 125.687 219.204 128.407 222.575 129.948C225.947 131.489 229.352 131.269 230.181 129.456Z" fill="#FF9D6C"/>
<path d="M274.763 147.974C275.592 146.161 273.531 143.442 270.159 141.901C266.788 140.359 263.382 140.58 262.554 142.393C261.725 144.206 263.786 146.925 267.158 148.467C270.529 150.008 273.934 149.788 274.763 147.974Z" fill="#FF9D6C"/>
<path d="M242.182 134.728C241.903 134.735 241.626 134.603 241.464 134.351C241.215 133.966 241.322 133.452 241.707 133.201C243.263 132.189 244.47 130.113 244.855 127.781C245.295 125.12 244.662 122.543 243.073 120.523C242.79 120.162 242.853 119.641 243.214 119.357C243.571 119.074 244.094 119.133 244.38 119.496C246.259 121.886 247.01 124.925 246.494 128.051C246.028 130.87 244.578 133.315 242.614 134.593C242.48 134.68 242.332 134.723 242.183 134.727L242.182 134.728Z" fill="#4F2B2B"/>
<path d="M245.389 83.6735C234.93 85.0848 221.634 74.4156 221.634 74.4156C216.852 94.3425 234.897 101.08 234.897 101.08C234.897 101.08 240.362 107.502 281.269 109.742C281.269 109.742 276.691 129.693 285.005 138.307L284.706 149.856L297.52 135.614C297.52 135.614 294.138 77.0962 245.387 83.6736L245.389 83.6735Z" fill="#4F2B2B"/>
<path d="M194.562 225.591L160.01 224.891L159.648 211.114L194.2 211.814L194.562 225.591Z" fill="#69ABDD"/>
<path d="M194.582 226.422C194.57 226.422 194.557 226.423 194.543 226.423L159.991 225.723C159.548 225.713 159.19 225.358 159.178 224.915L158.817 211.138C158.811 210.911 158.898 210.692 159.057 210.531C159.218 210.37 159.429 210.271 159.664 210.287L194.216 210.987C194.658 210.997 195.017 211.352 195.028 211.795L195.39 225.572C195.396 225.799 195.308 226.018 195.15 226.179C194.998 226.331 194.794 226.418 194.582 226.423L194.582 226.422ZM160.818 224.078L193.707 224.743L193.389 212.627L160.5 211.962L160.818 224.078Z" fill="#775340"/>
<path d="M204.022 64.977L222.95 54.4326L226.64 238.505L207.712 249.048L204.022 64.977Z" fill="#F2AE54"/>
<path d="M207.733 249.879C207.434 249.886 207.141 249.732 206.985 249.453C206.761 249.053 206.906 248.547 207.307 248.325L225.799 238.024L222.119 54.4504C222.111 53.993 222.472 53.6152 222.928 53.6032L222.933 53.6031C223.391 53.5949 223.771 53.9584 223.78 54.4157L227.471 238.488C227.478 238.795 227.313 239.081 227.044 239.23L208.116 249.773C207.997 249.841 207.864 249.874 207.734 249.877L207.733 249.879Z" fill="#4F2B2B"/>
<path d="M66.1169 63.5723L85.0452 53.0279L222.95 54.4329L204.022 64.9773L66.1169 63.5723Z" fill="#F2AE54"/>
<path d="M221.977 241.294L221.972 241.294C221.513 241.303 221.134 240.939 221.124 240.482L217.497 58.9276L87.6364 57.3422C87.1787 57.3376 86.8119 56.961 86.8165 56.502C86.8223 56.0443 87.1385 55.6587 87.6579 55.682L218.322 57.277C218.769 57.2818 219.133 57.6419 219.141 58.0903L222.786 240.447C222.794 240.905 222.433 241.282 221.977 241.294Z" fill="#4F2B2B"/>
<path d="M215.759 245.01L215.754 245.01C215.295 245.018 214.916 244.654 214.906 244.197L211.268 62.248L80.324 60.691C79.8663 60.6864 79.4995 60.3099 79.504 59.8509C79.5099 59.3931 79.8065 58.9928 80.3454 59.0309L212.094 60.5973C212.542 60.6022 212.906 60.9623 212.914 61.4107L216.569 244.162C216.577 244.62 216.216 244.998 215.76 245.01L215.759 245.01Z" fill="#4F2B2B"/>
<path d="M204.021 64.9777L207.711 249.049L69.8057 247.644L66.116 63.5727L204.021 64.9777Z" fill="#FBE4C6"/>
<path d="M186.113 127.735L84.2296 125.671L83.1641 85.0469L185.047 87.1099L186.113 127.735Z" fill="#F2AE54"/>
<path d="M131.863 152.444L84.9071 151.492L84.416 132.771L131.372 133.721L131.863 152.444Z" fill="#F2AE54"/>
<path d="M131.12 96.7433C131.108 96.7436 131.092 96.744 131.078 96.7444L89.6117 95.7594C89.1538 95.7485 88.792 95.368 88.803 94.9101C88.8126 94.451 89.1461 94.093 89.6523 94.1001L131.119 95.085C131.577 95.0959 131.939 95.4765 131.928 95.9344C131.918 96.3795 131.56 96.733 131.121 96.7445L131.12 96.7433Z" fill="#4F2B2B"/>
<path d="M113.052 107.577C113.034 107.578 113.016 107.578 112.998 107.578L89.888 106.704C89.4299 106.687 89.0731 106.301 89.0904 105.843C89.1077 105.383 89.5039 105.035 89.9516 105.045L113.062 105.919C113.52 105.936 113.877 106.322 113.859 106.78C113.843 107.22 113.486 107.567 113.052 107.579L113.052 107.577Z" fill="#4F2B2B"/>
<path d="M178.242 121.4C178.228 121.401 178.212 121.401 178.198 121.402L164.572 121.029C164.112 121.015 163.752 120.635 163.764 120.175C163.775 119.718 164.176 119.369 164.616 119.368L178.243 119.741C178.702 119.754 179.062 120.135 179.05 120.594C179.039 121.037 178.682 121.39 178.243 121.402L178.242 121.4Z" fill="#4F2B2B"/>
<path d="M191.49 188.748C192.458 185.81 195.182 183.781 198.272 183.697L224.31 182.993C224.769 182.981 225.131 182.598 225.119 182.14C225.107 181.683 224.726 181.32 224.266 181.332L198.229 182.036C198.077 182.04 197.933 182.072 197.784 182.084C197.753 182.073 197.73 182.053 197.698 182.046C195.768 181.633 194.274 180.585 193.375 179.018C192.385 177.293 192.233 175.144 192.95 172.966C193.914 170.028 196.64 167.998 199.731 167.914L225.768 167.209C226.227 167.197 226.589 166.814 226.577 166.357C226.565 165.899 226.185 165.536 225.725 165.548L199.687 166.253C199.049 166.269 198.431 166.377 197.826 166.524C197.147 165.154 197.006 163.85 197.396 162.134C198.079 159.117 200.6 156.841 203.67 156.466L229.525 153.307C236.739 152.422 244.038 155.42 248.555 161.123C260.732 176.495 265.409 193.037 262.457 210.293C260.718 220.45 256.16 228.652 250.262 232.233C246.152 234.727 241.369 235.127 236.047 233.427L235.558 234.141L235.819 233.353C235.517 233.253 235.232 233.149 234.971 233.046C227.555 230.082 217.496 213.861 217.396 213.699C217.271 213.495 217.062 213.356 216.827 213.315L199.683 210.444C197.862 210.052 196.256 208.88 195.312 207.232C194.366 205.585 194.165 203.607 194.758 201.805C195.032 200.971 195.476 200.23 196.021 199.585C196.169 199.515 196.301 199.413 196.388 199.262C196.412 199.218 196.417 199.169 196.432 199.123C197.618 197.959 199.216 197.24 200.946 197.193L220.869 196.652C221.326 196.64 221.687 196.257 221.675 195.799C221.663 195.342 221.282 194.979 220.822 194.991L200.901 195.532C198.839 195.586 196.931 196.42 195.474 197.761C193.374 196.417 189.954 193.415 191.487 188.747L191.49 188.748Z" fill="#FFBE97"/>
<path d="M194.36 198.986C193.858 199.676 193.457 200.449 193.18 201.287C192.442 203.537 192.692 206.006 193.872 208.06C195.05 210.115 197.054 211.579 199.37 212.078L216.184 214.892C217.699 217.302 226.949 231.63 234.358 234.59C234.652 234.708 234.964 234.82 235.296 234.933L235.542 235.012C238.046 235.814 240.447 236.185 242.732 236.125C245.739 236.046 248.545 235.223 251.124 233.656C260.208 228.14 263.218 215.68 264.092 210.578C267.128 192.836 262.338 175.852 249.858 160.096C244.983 153.94 237.097 150.723 229.322 151.661L203.468 154.819C199.704 155.279 196.613 158.071 195.777 161.77C195.319 163.791 195.484 165.416 196.255 167.067C193.991 168.086 192.176 169.998 191.372 172.449C190.507 175.079 190.707 177.705 191.935 179.845C192.652 181.094 193.72 182.066 194.995 182.762C192.639 183.756 190.743 185.709 189.913 188.23C188.572 192.314 190.252 196.259 194.36 198.985L194.36 198.986ZM191.49 188.75C192.458 185.812 195.183 183.782 198.273 183.699L224.31 182.994C224.769 182.982 225.131 182.599 225.119 182.142C225.107 181.685 224.727 181.321 224.267 181.333L198.229 182.038C198.078 182.042 197.933 182.074 197.784 182.085C197.753 182.074 197.73 182.055 197.698 182.048C195.769 181.635 194.274 180.586 193.375 179.019C192.385 177.294 192.233 175.145 192.95 172.967C193.914 170.029 196.64 168 199.731 167.915L225.769 167.21C226.227 167.198 226.589 166.815 226.577 166.358C226.565 165.901 226.185 165.537 225.725 165.549L199.688 166.254C199.049 166.271 198.432 166.379 197.826 166.526C197.148 165.156 197.006 163.851 197.396 162.136C198.079 159.119 200.601 156.842 203.67 156.467L229.525 153.309C236.739 152.424 244.039 155.421 248.555 161.124C260.732 176.497 265.409 193.039 262.457 210.294C260.719 220.452 256.16 228.654 250.262 232.235C246.152 234.728 241.37 235.128 236.047 233.428L235.558 234.142L235.819 233.354C235.517 233.255 235.233 233.15 234.971 233.047C227.555 230.083 217.496 213.862 217.396 213.7C217.271 213.496 217.062 213.357 216.827 213.316L199.683 210.446C197.863 210.054 196.256 208.881 195.312 207.234C194.366 205.586 194.165 203.608 194.758 201.807C195.032 200.972 195.476 200.231 196.022 199.586C196.169 199.516 196.301 199.414 196.388 199.263C196.412 199.219 196.417 199.17 196.433 199.124C197.618 197.96 199.217 197.241 200.947 197.195L220.869 196.653C221.326 196.641 221.687 196.258 221.675 195.801C221.663 195.343 221.283 194.98 220.823 194.992L200.902 195.534C198.839 195.588 196.932 196.422 195.474 197.763C193.374 196.418 189.954 193.417 191.488 188.748L191.49 188.75Z" fill="#FFBE97"/>
<path d="M230.148 152.482C237.416 151.771 253.309 154.477 258.739 170.99" stroke="#4F2B2B" stroke-width="1.5" stroke-linecap="round" stroke-linejoin="round"/>
<path d="M197.72 166.345L222.645 164.13M195.556 183.057L221.562 182.375M193.885 198.715L221.971 197.978" stroke="#4F2B2B" stroke-width="1.5" stroke-linecap="round" stroke-linejoin="round"/>
<path d="M61.9114 190.196L71.0914 188.501L72.9594 188.088C73.3256 188.007 73.6908 187.983 74.0546 187.954L77.0203 187.406C80.4681 186.77 82.8563 183.544 82.4565 180.062C82.0922 176.865 79.4806 174.439 76.3459 174.181C75.8642 174.281 75.37 174.345 74.8643 174.358C74.7115 174.362 74.5572 174.363 74.4042 174.358L72.0979 174.291L60.1534 174.832C58.2794 174.917 56.5767 175.749 55.3599 177.177C54.1431 178.605 53.5903 180.418 53.8036 182.281L54.0433 184.375C54.2579 186.239 55.2059 187.88 56.7125 188.996C58.2177 190.11 60.062 190.541 61.9101 190.198L61.9114 190.196Z" fill="#FFBE97"/>
<path d="M70.5504 203.97L76.3775 201.666C76.6967 201.54 77.0222 201.461 77.3491 201.388C80.0681 200.081 81.5136 196.975 80.6449 194.032C79.8362 191.29 77.2653 189.492 74.4987 189.565C74.4847 189.565 74.4721 189.57 74.458 189.57L71.4073 190.133L59.239 192.831C57.5345 193.208 56.1061 194.245 55.2189 195.749C54.3317 197.252 54.115 199.003 54.6102 200.679L55.1698 202.576C55.6624 204.251 56.7954 205.604 58.3569 206.387C59.9172 207.168 61.6749 207.264 63.3172 206.657L70.5504 203.971L70.5504 203.97Z" fill="#FFBE97"/>
<path d="M72.0699 172.63L75.4271 172.479C75.6563 172.469 75.8765 172.505 76.1023 172.514C78.8379 171.891 81.0206 169.579 81.3086 166.66C81.6493 163.172 79.2102 159.986 75.7522 159.406L60.5989 156.863C60.1623 156.791 59.7256 156.76 59.2938 156.771C57.8978 156.808 56.5578 157.28 55.4207 158.151C53.9312 159.292 53.011 160.947 52.828 162.813L52.623 164.911C52.44 166.778 53.0226 168.581 54.2628 169.989C55.5017 171.395 57.2155 172.2 59.0907 172.256L72.0687 172.632L72.0699 172.63Z" fill="#FFBE97"/>
<path d="M83.4123 205.732C82.5328 203.888 80.6499 202.807 78.7049 202.858C78.4437 202.865 78.1808 202.898 77.9195 202.947C77.7482 203.026 77.5928 203.127 77.4135 203.192L71.175 205.509L65.8122 207.63C64.4939 208.152 63.4829 209.165 62.9656 210.484C62.447 211.803 62.4972 213.233 63.1082 214.51L63.8177 216C64.4273 217.277 65.5074 218.218 66.8582 218.644C68.2128 219.068 69.6327 218.922 70.8661 218.225L81.3352 212.315C83.6413 211.015 84.5533 208.123 83.4123 205.735L83.4123 205.732Z" fill="#FFBE97"/>
<path d="M80.2256 201.352C82.2026 199.364 83.0758 196.401 82.2378 193.56C81.6013 191.404 80.0917 189.737 78.2096 188.785C82.0173 187.631 84.5683 183.907 84.1056 179.873C83.7516 176.778 81.6694 174.269 78.9527 173.136C81.1358 171.81 82.6946 169.523 82.9602 166.821C83.3865 162.467 80.3416 158.491 76.0271 157.766L60.8738 155.223C58.5706 154.836 56.2708 155.405 54.4115 156.829C52.5521 158.252 51.4031 160.319 51.1761 162.649L50.9711 164.747C50.7429 167.077 51.4698 169.326 53.0174 171.083C54.23 172.461 55.8136 173.355 57.5656 173.718C56.2426 174.205 55.0433 174.988 54.0973 176.099C52.5788 177.881 51.8886 180.142 52.1536 182.468L52.3933 184.562C52.6608 186.888 53.8426 188.936 55.7248 190.328C56.4228 190.845 57.1849 191.229 57.9786 191.504C56.2267 192.115 54.7479 193.274 53.7862 194.901C52.6635 196.806 52.3889 199.023 53.0143 201.144L53.5739 203.041C54.2006 205.163 55.6336 206.875 57.6098 207.866C58.7916 208.458 60.0647 208.74 61.3397 208.706C61.5843 208.7 61.8266 208.655 62.0705 208.626C61.8118 209.016 61.5908 209.432 61.4175 209.873C60.7388 211.599 60.8078 213.548 61.6062 215.22L62.3157 216.709C63.1155 218.384 64.5881 219.663 66.3579 220.222C67.0713 220.448 67.8132 220.549 68.5507 220.529C69.6398 220.501 70.7194 220.21 71.6815 219.666L82.1506 213.756C85.2128 212.026 86.4262 208.186 84.9103 205.014C83.981 203.066 82.2096 201.769 80.2242 201.348L80.2256 201.352ZM54.2646 169.986C53.0244 168.578 52.4417 166.775 52.6248 164.909L52.8298 162.811C53.0128 160.945 53.933 159.289 55.4225 158.149C56.5595 157.278 57.8995 156.805 59.2956 156.769C59.7274 156.757 60.1641 156.788 60.6007 156.861L75.7539 159.404C79.2106 159.984 81.6497 163.17 81.3104 166.657C81.0237 169.576 78.8397 171.888 76.1041 172.512C75.8782 172.503 75.6581 172.466 75.4289 172.476L72.0717 172.628L59.0937 172.252C57.2185 172.198 55.5047 171.393 54.2658 169.985L54.2646 169.986ZM56.7146 188.994C55.208 187.879 54.26 186.238 54.0454 184.374L53.8056 182.279C53.5923 180.416 54.1451 178.603 55.3619 177.176C56.5787 175.748 58.2802 174.916 60.1555 174.831L72.0999 174.289L74.4062 174.356C74.5606 174.361 74.7148 174.361 74.8664 174.357C75.3721 174.344 75.8663 174.281 76.3479 174.179C79.4814 174.437 82.0943 176.863 82.4585 180.059C82.8584 183.543 80.4702 186.769 77.0224 187.405L74.0567 187.953C73.6929 187.98 73.3277 188.005 72.9615 188.086L71.0935 188.5L61.9134 190.195C60.0653 190.539 58.2211 190.108 56.7158 188.993L56.7146 188.994ZM58.3561 206.384C56.7945 205.602 55.6629 204.249 55.169 202.574L54.6094 200.677C54.1142 199.002 54.3309 197.251 55.2181 195.747C56.1066 194.242 57.5338 193.207 59.2382 192.828L71.4065 190.131L74.4572 189.568C74.47 189.567 74.4839 189.563 74.4979 189.563C77.2645 189.49 79.8354 191.286 80.6441 194.03C81.5128 196.973 80.0673 200.079 77.3483 201.385C77.0227 201.46 76.6972 201.538 76.3767 201.663L70.5496 203.968L63.3164 206.653C61.6727 207.261 59.915 207.164 58.3561 206.383L58.3561 206.384ZM81.3352 212.314L70.8662 218.224C69.6327 218.92 68.2116 219.068 66.8582 218.643C65.5074 218.215 64.4261 217.276 63.8177 215.998L63.1082 214.509C62.4973 213.231 62.447 211.801 62.9656 210.482C63.4829 209.164 64.4939 208.151 65.8122 207.629L71.175 205.508L77.4135 203.191C77.5928 203.124 77.7482 203.023 77.9195 202.946C78.1808 202.897 78.4438 202.863 78.7049 202.856C80.6499 202.805 82.5341 203.887 83.4123 205.731C84.5533 208.12 83.6413 211.011 81.3352 212.313L81.3352 212.314Z" fill="#FFBE97"/>
<path d="M78.2031 173.644L57.3984 174.189M78.585 188.207L57.835 190.833M80.9929 200.635L62.4734 208.928" stroke="#4F2B2B" stroke-width="1.5" stroke-linecap="round" stroke-linejoin="round"/>
</g>
</svg>
