<svg width="470" height="250" viewBox="0 0 470 250" fill="none" xmlns="http://www.w3.org/2000/svg">
<mask id="mask0_916_8268" style="mask-type:alpha" maskUnits="userSpaceOnUse" x="0" y="0" width="470" height="250">
<path d="M0 20C0 8.9543 8.9543 0 20 0H450C461.046 0 470 8.9543 470 20V250H0V20Z" fill="#6A3939"/>
</mask>
<g mask="url(#mask0_916_8268)">
<path d="M260.043 102.925C260.001 91.7641 259.955 80.6035 259.906 69.4429C259.906 69.3441 259.906 69.2454 259.906 69.1445C252.849 71.3294 245.022 71.5655 237.825 69.9408C238.076 78.4787 238.325 87.0166 238.576 95.5544C238.581 95.6703 238.572 95.7777 238.553 95.8785C238.585 97.0418 238.617 98.2029 238.645 99.3662C238.95 111.875 239.087 124.388 239.19 136.898C239.304 150.649 239.36 164.401 239.383 178.152C239.403 189.332 239.403 200.512 239.383 211.692C239.383 212.288 239.381 212.885 239.379 213.482C245.927 214.812 252.959 214.484 259.32 212.483C259.676 212.372 259.988 212.4 260.247 212.514C260.267 204.892 260.271 197.271 260.267 189.649C260.258 175.196 260.226 160.743 260.187 146.29C260.149 131.835 260.099 117.378 260.046 102.923L260.043 102.925Z" fill="#F5C07A"/>
<path d="M291.571 142.375C293.499 146.782 295.86 151.01 298.208 155.201C299.474 157.464 300.755 159.715 302.011 161.984C302.29 162.488 302.567 162.992 302.844 163.501C302.949 163.694 303.047 163.924 303.176 164.115C303.341 164.053 303.502 163.984 303.655 163.896C304.627 163.437 305.591 162.956 306.557 162.479C303.691 154.776 299.513 147.582 295.619 140.36C294.269 141.032 292.921 141.706 291.571 142.377V142.375Z" fill="white"/>
<path d="M281.619 123.737C282.864 122.911 283.987 122.104 285.051 121.061C284.839 119.884 284.626 118.708 284.418 117.532C281.514 101.225 278.709 84.8787 276.511 68.4575C270.822 70.6489 265.325 73.3102 259.599 75.4179C259.644 85.8874 259.687 96.3569 259.725 106.826C259.753 114.635 259.775 122.443 259.798 130.251C263.031 130.161 266.239 129.789 269.388 129.019C273.73 127.954 277.891 126.214 281.619 123.737Z" fill="#FADBE9"/>
<path d="M327.067 202.281C323.511 195.9 320 189.493 316.512 183.076C312.127 175.004 307.783 166.91 303.503 158.78C299.421 151.026 295.384 143.243 291.501 135.388C289.046 130.419 286.591 125.412 284.485 120.276C277.493 126.114 268.397 128.919 259.376 129.374C261.14 132.462 262.743 135.671 264.439 138.783C268.68 146.555 272.919 154.327 277.16 162.098C282.047 171.052 286.932 180.009 291.819 188.963C295.876 196.396 299.932 203.83 303.988 211.263C305.575 214.167 307.159 217.073 308.745 219.977C314.104 220.758 319.68 217.878 324.073 215.146C326.599 213.574 329.053 211.812 331.306 209.851C330.997 209.321 330.714 208.769 330.418 208.25C329.289 206.269 328.175 204.277 327.065 202.283L327.067 202.281ZM294.661 163.929C293.109 164.687 291.572 165.526 289.986 166.202C288.563 166.809 287.241 166.498 286.393 165.17C284.872 162.783 283.616 160.164 282.227 157.696C279.272 152.444 276.293 147.173 273.968 141.603C273.904 141.449 273.889 141.288 273.904 141.127C273.891 140.691 274.097 140.26 274.623 139.998C274.653 139.983 274.683 139.968 274.713 139.953C274.715 139.953 274.718 139.951 274.72 139.949C276.849 138.886 278.978 137.826 281.109 136.764C281.775 136.431 282.676 136.564 283.054 137.274C287.417 145.454 292.223 153.55 295.32 162.324C295.515 162.879 295.193 163.671 294.667 163.929H294.661Z" fill="#3F97B1"/>
<path d="M325.403 173.3C325.139 172.297 324.652 171.173 324.545 170.134C324.448 169.939 324.358 169.739 324.263 169.542C323.132 167.149 322.003 164.753 320.872 162.358C316.161 152.369 311.461 142.376 306.771 132.379C300.863 119.785 294.969 107.186 289.112 94.568C285.684 87.1826 279.681 75.8688 276.307 68.4577C276.004 66.5111 276.594 70.4065 276.307 68.4577C278.335 81.5715 282.278 107.611 284.66 120.666C284.454 120.166 284.855 121.171 284.66 120.666C281.799 114.94 286.995 126.356 284.66 120.666C280.55 112.895 288.59 128.53 284.66 120.666C287.451 129.338 325.66 202.776 331.126 209.943C327.743 203.886 334.444 216.036 331.126 209.943C330.522 208.874 331.724 211.014 331.126 209.943C330.821 204.828 330.438 194.788 329.378 189.813C328.197 184.276 326.852 178.773 325.405 173.3H325.403Z" fill="#3F97B1"/>
<path d="M139.352 219.451C139.28 219.294 139.25 219.527 139.356 219.483C139.356 219.483 139.356 219.481 139.356 219.479C139.356 219.479 139.352 219.479 139.352 219.477C139.274 219.427 139.324 219.433 139.352 219.451Z" fill="white"/>
<path d="M139.358 219.479C139.358 219.479 139.366 219.484 139.368 219.486C139.368 219.481 139.363 219.474 139.363 219.469C139.363 219.474 139.363 219.477 139.358 219.479Z" fill="white"/>
<path d="M150.2 91.7577C150.264 104.777 150.2 117.796 150.097 130.816C150.047 136.849 149.989 142.882 149.912 148.915C154.501 149.282 159.117 149.067 163.706 149.437C163.713 146.666 163.721 143.895 163.728 141.124C163.764 126.817 163.803 112.51 163.841 98.2051C163.863 89.7208 163.887 81.2345 163.908 72.7502C159.259 72.9069 154.61 73.0615 149.961 73.2181C150.11 79.3973 150.17 85.5785 150.2 91.7598V91.7577Z" fill="#8FC6D7"/>
<path d="M238.462 70.3094C245.264 71.8655 252.664 71.5843 259.322 69.4895C259.528 69.4252 259.719 69.408 259.895 69.4252C259.882 66.5878 259.869 63.7483 259.856 60.9109C252.576 62.3618 244.732 62.3875 237.471 60.9281C237.501 61.9647 237.531 62.9992 237.561 64.0359C237.623 66.1328 237.683 68.2275 237.745 70.3245C237.96 70.2644 238.198 70.2472 238.464 70.3094H238.462Z" fill="#F29EC3"/>
<path d="M246.406 221.062C246.406 221.062 246.406 221.062 246.406 221.06C246.354 221.093 246.319 221.117 246.304 221.128C246.336 221.106 246.371 221.084 246.404 221.062H246.406Z" fill="white"/>
<path d="M205.564 188.362C205.629 195.301 205.695 202.239 205.76 209.18C205.801 213.617 205.841 218.055 205.882 222.494C207.891 223.172 209.936 223.728 212.02 224.129C219.719 225.615 227.961 225.198 235.462 222.889C236.505 222.567 237.589 222.2 238.538 221.762C238.885 221.601 239.218 221.423 239.553 221.238C239.564 221.232 239.57 221.225 239.581 221.221C239.583 221.163 239.587 221.103 239.587 221.047C239.609 214.855 239.622 208.665 239.628 202.473C239.634 197.674 239.619 192.875 239.619 188.076C228.506 191.038 216.738 191.132 205.567 188.364L205.564 188.362ZM231.071 216.727C226.033 218.502 220.487 218.639 215.36 217.156C213.604 216.647 214.356 213.907 216.116 214.415C220.794 215.767 225.727 215.602 230.315 213.986C231.043 213.731 231.871 214.278 232.062 214.978C232.277 215.755 231.794 216.471 231.071 216.725V216.727ZM231.071 208.305C226.033 210.08 220.487 210.217 215.36 208.734C213.604 208.228 214.356 205.485 216.116 205.993C220.794 207.345 225.727 207.18 230.315 205.564C231.043 205.309 231.871 205.856 232.062 206.556C232.277 207.333 231.794 208.049 231.071 208.303V208.305Z" fill="#854747"/>
<path d="M239.375 212.192C239.371 214.065 239.369 215.937 239.362 217.809C239.36 218.779 239.427 219.79 239.407 220.779C246.018 222.754 253.517 222.118 260.205 220.708C260.209 220.116 260.213 219.523 260.216 218.931C260.231 216.28 260.233 213.628 260.239 210.975C260.186 210.998 260.136 211.026 260.076 211.046C253.476 213.121 246.194 213.462 239.373 212.19L239.375 212.192Z" fill="#F29EC3"/>
<path d="M239.618 188.257C239.614 182.349 239.622 176.438 239.607 170.529C239.573 156.971 239.506 143.413 239.373 129.855C239.266 118.733 239.124 107.611 238.83 96.4934C227.835 100.196 215.824 100.533 204.625 97.4743C204.629 97.9851 204.629 98.4959 204.636 99.0046C204.777 111.264 204.904 123.526 205.026 135.785C205.168 149.788 205.303 163.788 205.436 177.79C205.471 181.389 205.503 184.989 205.537 188.588C205.621 188.594 205.707 188.605 205.797 188.629C216.897 191.475 228.586 191.329 239.616 188.257H239.618Z" fill="#B06D6D"/>
<path d="M259.761 61.4642C259.714 60.8397 259.666 60.2173 259.619 59.5927C258.911 50.1834 258.183 40.772 257.651 31.3499H238.206C238.182 32.2384 238.161 33.127 238.139 34.0155C237.91 43.1608 237.678 52.3082 237.448 61.4556C244.645 63.0053 252.537 62.9859 259.763 61.4642H259.761Z" fill="#FBE4C6"/>
<path d="M175.558 76.463C175.558 68.1784 175.564 59.8938 175.556 51.6091C171.965 52.0019 168.361 52.2616 164.755 52.429C155.859 52.8411 146.903 52.8347 138 52.399C138.028 53.5987 138.056 54.8006 138.082 56.0004C138.388 70.2882 138.528 84.5802 138.61 98.8722C138.695 113.802 138.715 128.731 138.749 143.663C138.783 158.519 138.831 173.378 138.977 188.235C139.047 195.296 139.14 202.355 139.271 209.416C139.333 212.797 139.468 216.179 139.485 219.559C139.55 219.598 139.612 219.639 139.678 219.675C140.286 220.019 140.659 220.141 141.329 220.371C146.001 221.98 151.082 222.614 155.992 222.91C162.455 223.3 168.992 222.925 175.292 221.386C175.246 220.152 175.36 218.866 175.362 217.662C175.369 214.342 175.377 211.019 175.384 207.699C175.405 196.987 175.427 186.273 175.446 175.561C175.472 161.546 175.493 147.528 175.513 133.513C175.532 118.693 175.549 103.871 175.558 89.0509C175.558 85.1554 175.556 81.2578 175.558 77.3623C175.461 77.0811 175.465 76.7656 175.558 76.4651V76.463ZM164.682 212.442C159.388 213.204 154.073 213.103 148.815 212.105C148.057 211.962 147.632 211.052 147.824 210.358C148.038 209.577 148.817 209.223 149.571 209.367C154.286 210.262 159.173 210.388 163.927 209.704C164.689 209.594 165.451 209.88 165.674 210.695C165.859 211.369 165.442 212.333 164.682 212.442ZM166.726 81.1397C166.689 95.4468 166.651 109.752 166.614 124.059C166.591 133.032 166.567 142.008 166.543 150.982C166.543 151.683 165.889 152.486 165.122 152.402C159.592 151.793 154.009 152.242 148.476 151.63C147.718 151.546 147.044 151.04 147.055 150.209C147.085 147.925 147.111 145.642 147.137 143.356C147.259 132.015 147.345 120.672 147.373 109.329C147.405 96.8354 147.42 84.3334 147.094 71.8421C147.077 71.2089 147.409 70.799 147.849 70.6058C148.036 70.5006 148.255 70.4298 148.515 70.4212C154.121 70.2345 159.727 70.0456 165.331 69.8589C166.099 69.8332 166.754 70.5307 166.751 71.2797C166.743 74.5657 166.734 77.8516 166.726 81.1397Z" fill="#2B6577"/>
<path d="M175.255 40.4489C174.853 35.2849 174.162 30.1275 173.609 25C168.631 25.1674 163.652 25.2404 158.673 25.3413C156.129 25.3928 153.586 25.4443 151.043 25.5065C150.04 25.5301 149.038 25.558 148.036 25.5902C147.909 25.5945 147.757 25.6138 147.606 25.6246C146.465 28.0177 145.452 30.3163 144.507 32.8618C142.455 38.3928 140.079 47.1473 138.252 52.7555C137.952 52.7447 138.551 52.7684 138.252 52.7555C150.201 53.2041 163.425 53.0291 175.326 51.7113C175.349 49.2967 175.493 43.928 175.326 41.5113C175.173 41.1765 175.156 40.7923 175.255 40.4467V40.4489Z" fill="#FBE4C6"/>
<path d="M207.014 42.4557C207.014 42.4557 207.008 42.4514 207.003 42.4492H206.999C207.06 42.484 207.09 42.5036 207.014 42.4557Z" fill="white"/>
<path d="M174.994 53.7965C174.994 55.2088 174.999 56.621 174.999 58.0333C175.005 65.1418 174.999 72.2481 174.999 79.3565C181.665 80.522 188.529 80.5391 195.262 80.097C198.505 79.8845 201.73 79.584 204.898 79.0797C204.572 78.8543 204.336 78.4937 204.31 77.9915C203.967 70.9775 203.621 63.9613 203.278 56.9473C203.259 56.8335 203.256 56.7198 203.261 56.6039C203.147 54.2795 203.033 51.955 202.92 49.6306C202.866 48.5274 202.812 47.4243 202.756 46.3211C202.754 46.2803 202.746 46.218 202.737 46.1494C201.786 46.0914 200.831 46.0678 199.88 46.0485C196.363 45.9734 192.841 45.9669 189.323 45.9691C185.657 45.9691 181.993 45.9862 178.33 46.0163C177.16 46.027 175.99 46.0378 174.818 46.0528C174.979 48.6348 175.065 51.2167 174.994 53.7944V53.7965Z" fill="#FADBE9"/>
<path d="M206.07 205.748C205.958 193.703 205.845 181.658 205.729 169.613C205.594 155.598 205.458 141.581 205.315 127.566C205.194 115.815 205.074 104.064 204.933 92.3131C204.887 88.6108 204.842 84.9085 204.787 81.2062C204.772 80.2081 204.78 79.2015 204.759 78.1992C201.612 78.6693 198.429 78.9719 195.261 79.1801C188.518 79.6222 181.68 79.5664 174.998 78.4697C174.998 83.771 175.001 89.0723 174.998 94.3735C174.988 109.187 174.971 124.003 174.949 138.816C174.93 152.572 174.906 166.327 174.883 180.081C174.863 190.254 174.844 200.427 174.822 210.599C174.814 214.282 174.807 217.963 174.799 221.646C176.9 222.714 179.325 223.174 181.641 223.444C187.271 224.101 193.021 223.8 198.648 223.257C201.215 223.011 203.668 222.721 206.169 222.317C206.087 220.766 206.197 219.154 206.182 217.626C206.145 213.666 206.109 209.706 206.072 205.746L206.07 205.748ZM196.223 132.369C192.287 132.075 188.365 132.876 184.429 132.579C183.661 132.521 183.008 131.976 183.008 131.159C183.008 130.431 183.663 129.68 184.429 129.738C188.365 130.032 192.287 129.231 196.223 129.527C196.991 129.585 197.644 130.13 197.644 130.948C197.644 131.676 196.989 132.427 196.223 132.369ZM196.223 120.601C192.287 120.307 188.365 121.108 184.429 120.811C183.661 120.753 183.008 120.206 183.008 119.391C183.008 118.663 183.663 117.912 184.429 117.97C188.365 118.264 192.287 117.463 196.223 117.759C196.991 117.817 197.644 118.362 197.644 119.18C197.644 119.908 196.989 120.659 196.223 120.601ZM196.223 108.831C192.287 108.537 188.365 109.337 184.429 109.041C183.661 108.983 183.008 108.438 183.008 107.62C183.008 106.893 183.663 106.142 184.429 106.2C188.365 106.494 192.287 105.693 196.223 105.989C196.991 106.047 197.644 106.594 197.644 107.41C197.644 108.138 196.989 108.889 196.223 108.831ZM196.223 97.0628C192.287 96.7688 188.365 97.5694 184.429 97.2732C183.661 97.2152 183.008 96.6701 183.008 95.8523C183.008 95.1247 183.663 94.3735 184.429 94.4315C188.365 94.7255 192.287 93.925 196.223 94.2212C196.991 94.2791 197.644 94.8243 197.644 95.642C197.644 96.3696 196.989 97.1208 196.223 97.0628Z" fill="#B4185C"/>
<path d="M205.234 97.8902C216.264 100.934 228.002 100.483 238.78 96.699C238.744 95.4134 238.705 94.1299 238.667 92.8443C238.34 81.7438 238.014 70.6433 237.688 59.5427C235.823 59.6415 233.956 59.7058 232.09 59.7702C222.394 60.105 212.692 60.354 202.991 60.5923C203.317 67.2479 203.644 73.9034 203.97 80.559C204.253 80.3315 203.994 81.0463 203.97 80.559C204.431 80.7672 204.303 82.2782 204.348 82.892C204.358 83.0444 204.361 83.199 204.367 83.3514C204.575 88.1762 204.577 93.0203 204.601 97.8559C204.792 97.8215 205.004 97.8301 205.232 97.8924L205.234 97.8902Z" fill="#FBE4C6"/>
<path d="M139.354 219.451C139.325 219.433 139.275 219.427 139.354 219.477C139.354 219.477 139.356 219.477 139.358 219.479C139.363 219.477 139.36 219.473 139.363 219.471C139.36 219.464 139.356 219.457 139.354 219.451Z" fill="#5A281C"/>
<path d="M230.316 213.986C225.727 215.605 220.793 215.768 216.116 214.416C214.356 213.907 213.605 216.648 215.361 217.157C220.488 218.64 226.034 218.502 231.071 216.727C231.795 216.472 232.278 215.757 232.063 214.98C231.87 214.278 231.044 213.731 230.316 213.989V213.986Z" fill="#5A281C"/>
<path d="M230.316 205.564C225.727 207.18 220.793 207.345 216.116 205.993C214.356 205.484 213.605 208.225 215.361 208.734C220.488 210.217 226.034 210.079 231.071 208.304C231.795 208.049 232.278 207.334 232.063 206.557C231.87 205.855 231.044 205.308 230.316 205.566V205.564Z" fill="#5A281C"/>
<path d="M165.332 69.8593C159.726 70.0482 154.12 70.2349 148.516 70.4217C148.257 70.4302 148.038 70.5011 147.851 70.6062C147.411 70.8015 147.078 71.2093 147.095 71.8425C147.422 84.3338 147.407 96.8337 147.374 109.329C147.347 120.672 147.261 132.015 147.138 143.356C147.115 145.64 147.089 147.926 147.057 150.209C147.046 151.04 147.72 151.547 148.478 151.63C154.009 152.24 159.591 151.791 165.124 152.403C165.89 152.487 166.543 151.684 166.545 150.982C166.569 142.009 166.592 133.033 166.616 124.059C166.652 109.752 166.691 95.4472 166.727 81.1402C166.736 77.8542 166.745 74.5683 166.753 71.2802C166.755 70.5311 166.101 69.8336 165.332 69.8593ZM163.841 98.203C163.804 112.51 163.766 126.817 163.727 141.122C163.72 143.893 163.712 146.664 163.705 149.435C159.117 149.065 154.5 149.282 149.911 148.913C149.989 142.88 150.049 136.847 150.096 130.814C150.201 117.794 150.261 104.775 150.199 91.7556C150.169 85.5744 150.107 79.3931 149.961 73.214C154.61 73.0573 159.258 72.9028 163.907 72.7461C163.886 81.2303 163.862 89.7167 163.841 98.2009V98.203Z" fill="#8FC6D7"/>
<path d="M196.221 94.2196C192.285 93.9256 188.364 94.7261 184.428 94.43C183.661 94.372 183.007 95.1232 183.007 95.8508C183.007 96.6685 183.659 97.2137 184.428 97.2716C188.364 97.5657 192.285 96.7651 196.221 97.0613C196.988 97.1192 197.642 96.368 197.642 95.6404C197.642 94.8227 196.99 94.2776 196.221 94.2196Z" fill="#5A281C"/>
<path d="M196.221 105.99C192.285 105.696 188.364 106.496 184.428 106.2C183.661 106.142 183.007 106.893 183.007 107.621C183.007 108.439 183.659 108.984 184.428 109.042C188.364 109.336 192.285 108.535 196.221 108.831C196.988 108.889 197.642 108.138 197.642 107.41C197.642 106.595 196.99 106.048 196.221 105.99Z" fill="#5A281C"/>
<path d="M196.221 117.758C192.285 117.464 188.364 118.264 184.428 117.968C183.661 117.91 183.007 118.661 183.007 119.389C183.007 120.204 183.659 120.752 184.428 120.81C188.364 121.104 192.285 120.303 196.221 120.599C196.988 120.655 197.642 119.906 197.642 119.179C197.642 118.361 196.99 117.816 196.221 117.758Z" fill="#5A281C"/>
<path d="M196.221 129.528C192.285 129.234 188.364 130.034 184.428 129.738C183.661 129.68 183.007 130.432 183.007 131.159C183.007 131.977 183.659 132.522 184.428 132.58C188.364 132.874 192.285 132.073 196.221 132.37C196.988 132.428 197.642 131.676 197.642 130.949C197.642 130.131 196.99 129.586 196.221 129.528Z" fill="#5A281C"/>
<path d="M283.051 137.274C282.673 136.566 281.771 136.433 281.106 136.764C278.977 137.826 276.848 138.886 274.717 139.949C274.714 139.949 274.712 139.951 274.71 139.953C274.68 139.968 274.65 139.983 274.62 139.998C274.094 140.26 273.888 140.689 273.901 141.127C273.888 141.288 273.901 141.449 273.965 141.603C276.292 147.173 279.269 152.444 282.224 157.696C283.613 160.164 284.868 162.783 286.39 165.169C287.238 166.498 288.56 166.809 289.983 166.202C291.571 165.524 293.108 164.684 294.658 163.929C295.186 163.671 295.508 162.879 295.31 162.324C292.213 153.55 287.407 145.454 283.044 137.274H283.051ZM289.262 163.412C289.109 163.5 292.327 161.931 292.164 161.993C292.269 162.186 292.035 161.802 292.164 161.993C292.443 162.497 291.889 161.486 292.164 161.993C292.02 159.419 283.755 141.781 281.226 139.873C283.9 143.949 279.556 135.367 281.226 139.873C279.876 140.545 282.576 139.2 281.226 139.873C285.12 147.096 289.298 154.29 292.164 161.993C293.138 161.534 291.198 162.469 292.164 161.993L289.262 163.412Z" fill="#6A3939"/>
<path d="M163.927 209.702C159.173 210.386 154.286 210.26 149.571 209.365C148.818 209.221 148.038 209.575 147.824 210.356C147.633 211.05 148.058 211.96 148.815 212.104C154.074 213.102 159.388 213.202 164.683 212.44C165.443 212.331 165.861 211.365 165.674 210.693C165.449 209.878 164.689 209.59 163.927 209.702Z" fill="#5A281C"/>
</g>
</svg>
