<svg width="700" height="400" viewBox="0 0 700 400" fill="none" xmlns="http://www.w3.org/2000/svg">
<mask id="mask0_760_4161" style="mask-type:alpha" maskUnits="userSpaceOnUse" x="0" y="0" width="700" height="400">
<rect width="700" height="400" fill="white"/>
</mask>
<g mask="url(#mask0_760_4161)">
<rect width="700" height="400" fill="white"/>
<path d="M81.7897 237.607C82.9106 237.202 84.1205 237.574 84.8387 238.444L137.434 202.532C137.363 202.405 137.3 202.271 137.248 202.131C136.735 200.701 137.476 199.126 138.905 198.611C140.333 198.095 141.909 198.838 142.425 200.267C142.507 200.495 142.555 200.727 142.575 200.959L177.954 201.145C178.056 200.12 178.725 199.197 179.758 198.826C181.187 198.31 182.762 199.053 183.278 200.482C183.504 201.114 183.486 201.775 183.273 202.36L218.371 219.041C218.687 218.511 219.18 218.083 219.805 217.856C220.483 217.613 221.191 217.655 221.806 217.913L265.208 136.979C264.73 136.665 264.345 136.199 264.135 135.62C263.62 134.191 264.363 132.615 265.791 132.099C267.22 131.584 268.796 132.327 269.312 133.756C269.461 134.172 269.501 134.599 269.452 135.01L378.029 158.198C377.697 156.848 378.433 155.437 379.769 154.955C381.198 154.439 382.774 155.182 383.29 156.611C383.337 156.742 383.37 156.872 383.395 157.005L423.994 152.756C423.981 151.616 424.679 150.543 425.811 150.136C426.38 149.93 426.972 149.928 427.513 150.086L446.482 102.065L445.789 102.125L446.667 101.602L446.782 101.312L446.916 101.455L522.102 56.6521C522.064 56.5704 522.028 56.4871 521.996 56.4004C521.48 54.9716 522.223 53.3956 523.652 52.88C525.081 52.3644 526.657 53.1074 527.172 54.5362C527.688 55.965 526.945 57.5409 525.516 58.0566C524.985 58.2482 524.432 58.2638 523.922 58.1365L510.957 95.2767C510.989 95.3435 511.019 95.4121 511.044 95.484C511.174 95.8399 511.222 96.2065 511.203 96.5635L577.251 106.254C577.463 105.386 578.089 104.639 578.992 104.314C580.421 103.798 581.997 104.541 582.512 105.97C583.028 107.399 582.285 108.975 580.856 109.491C580.292 109.694 579.701 109.699 579.166 109.543L562.338 152.667C562.946 152.971 563.446 153.499 563.695 154.192C564.03 155.122 563.831 156.109 563.264 156.829L587.12 179.58C587.37 179.361 587.663 179.182 587.994 179.064C589.423 178.548 590.999 179.291 591.515 180.72C592.03 182.149 591.287 183.725 589.859 184.24C588.99 184.552 588.07 184.399 587.364 183.914L563.913 211.946C564.188 212.221 564.408 212.558 564.55 212.951C565.012 214.234 564.461 215.631 563.309 216.279L580.017 249.749C581.438 249.256 582.995 249.996 583.506 251.416C584.021 252.845 583.278 254.421 581.849 254.936C581.601 255.026 581.347 255.076 581.094 255.091L579.537 283.093C580.504 283.238 581.364 283.896 581.718 284.882C581.811 285.138 581.86 285.399 581.874 285.657L624.483 287.167C624.611 286.177 625.273 285.29 626.277 284.93C627.706 284.414 629.282 285.157 629.798 286.586C630.313 288.015 629.57 289.591 628.141 290.106C628.036 290.145 627.932 290.172 627.826 290.197L636.203 352.521C637.372 352.472 638.488 353.179 638.905 354.337C639.42 355.766 638.677 357.342 637.248 357.857C635.82 358.373 634.244 357.63 633.728 356.201C633.58 355.794 633.54 355.374 633.585 354.97L543.406 336.556C543.136 337.296 542.554 337.914 541.755 338.201C540.327 338.717 538.751 337.974 538.235 336.545C537.719 335.117 538.462 333.541 539.891 333.025C540.033 332.975 540.178 332.94 540.322 332.911L539.152 300.56C538.061 300.523 537.046 299.836 536.654 298.744C536.526 298.39 536.476 298.025 536.494 297.672L461.109 284.379C460.881 285.213 460.263 285.926 459.39 286.243C457.961 286.758 456.385 286.015 455.869 284.587C455.354 283.158 456.097 281.582 457.525 281.066C457.854 280.947 458.19 280.9 458.517 280.907L462.566 245.733C461.664 245.544 460.876 244.907 460.542 243.974L460.611 244.218L373.92 268.491C374.158 269.792 373.432 271.11 372.149 271.572C371.488 271.811 370.795 271.776 370.19 271.532L352.968 305.002C353.463 305.318 353.864 305.79 354.076 306.388C354.59 307.818 353.849 309.392 352.42 309.908C350.991 310.424 349.415 309.681 348.9 308.252C348.699 307.695 348.691 307.115 348.841 306.585L295.697 286.394C295.394 287.014 294.862 287.521 294.161 287.773C292.732 288.289 291.156 287.546 290.641 286.117C290.426 285.521 290.431 284.903 290.614 284.344L258.599 270.678C258.289 271.254 257.776 271.72 257.114 271.959C255.685 272.474 254.109 271.731 253.594 270.303C253.539 270.151 253.502 269.998 253.474 269.847L189.779 273.814C189.725 274.888 189.039 275.874 187.964 276.262C187.155 276.552 186.298 276.442 185.613 276.029L159.023 310.834C159.356 311.13 159.622 311.511 159.785 311.959C160.301 313.388 159.558 314.964 158.129 315.48C156.699 315.993 155.124 315.252 154.609 313.823C154.606 313.812 154.603 313.801 154.598 313.792L121.265 318.67L103.646 321.249C103.603 322.337 102.917 323.342 101.83 323.735C100.401 324.25 98.8248 323.507 98.3092 322.079C97.9094 320.967 98.2692 319.771 99.1195 319.049L80.3626 284.6C80.3275 284.613 80.2921 284.631 80.2535 284.644C78.8247 285.16 77.2488 284.417 76.7331 282.988C76.2175 281.56 76.9605 279.984 78.3893 279.468C78.7285 279.346 79.0756 279.296 79.4148 279.309L82.2547 242.905C81.3117 242.742 80.48 242.093 80.1335 241.127C79.6179 239.699 80.3609 238.123 81.7897 237.607ZM101.546 318.474C102.413 318.686 103.16 319.311 103.486 320.214C103.548 320.389 103.59 320.565 103.618 320.74L123.597 317.817L154.476 313.298C154.436 313.033 154.437 312.768 154.474 312.51L106.515 293.415L101.548 318.472L101.546 318.474ZM294.988 283.071L313.39 264.71L289.035 237.227C288.827 237.379 288.595 237.507 288.341 237.599C288.221 237.643 288.099 237.672 287.976 237.699L293.168 282.435C293.837 282.419 294.484 282.649 294.988 283.071ZM349.866 305.103C350.073 304.951 350.305 304.823 350.56 304.732C350.709 304.679 350.855 304.641 351.005 304.615L345.155 236.104C344.516 236.1 343.901 235.872 343.417 235.469L314.087 264.734L349.864 305.105L349.866 305.103ZM557.245 151.196L542.294 180.033L559.273 157.172C558.945 156.878 558.684 156.499 558.521 156.055C558.16 155.054 558.418 153.984 559.093 153.255L557.245 151.196ZM577.338 107.833C577.21 107.475 577.16 107.11 577.179 106.753L511.131 97.0661C511.019 97.5213 510.794 97.9419 510.474 98.2861L557.131 150.307L578.44 109.21C577.948 108.895 577.551 108.423 577.336 107.831L577.338 107.833ZM268.564 136.737C268.331 136.944 268.06 137.114 267.757 137.238L280.813 180.753C282.128 180.486 283.476 181.215 283.945 182.517L310.572 175.646L268.564 136.737ZM81.3587 280.202C81.3972 280.246 81.4374 280.292 81.472 280.339L111.903 255.056C111.773 254.866 111.664 254.661 111.582 254.436C111.367 253.844 111.374 253.227 111.551 252.67L104.174 249.548L81.3587 280.202ZM166.767 222.089L177.021 216.024C176.983 215.946 176.949 215.864 176.919 215.779C176.729 215.25 176.711 214.702 176.834 214.195L168.46 211.315L117.399 251.298L166.767 222.089ZM177.278 216.46L141.423 237.674L116.656 252.327C116.694 252.405 116.728 252.487 116.759 252.571C116.929 253.043 116.96 253.529 116.875 253.992L167.046 267.915L178.645 217.461C178.102 217.281 177.621 216.936 177.278 216.464L177.278 216.46ZM111.75 252.202C112.06 251.624 112.573 251.154 113.238 250.915C113.882 250.682 114.555 250.707 115.148 250.933L138.397 203.562L104.486 249.129L111.751 252.204L111.75 252.202ZM140.771 203.785C140.127 204.018 139.454 203.994 138.861 203.767L115.603 251.156C115.809 251.283 116 251.436 116.169 251.613L167.885 211.117L142.343 202.327C142.046 202.983 141.499 203.522 140.769 203.784L140.771 203.785ZM142.511 201.849L168.363 210.745L178.38 202.902C178.27 202.731 178.175 202.545 178.103 202.348C178.021 202.119 177.973 201.888 177.953 201.656L142.574 201.47C142.562 201.599 142.543 201.727 142.511 201.853L142.511 201.849ZM180.198 204.119C179.625 204.012 179.095 203.731 178.693 203.303L168.937 210.942L176.999 213.717C177.296 213.062 177.843 212.522 178.573 212.261C178.875 212.151 179.186 212.101 179.492 212.1L180.198 204.119ZM181.883 216.232L210.289 236.499L219.061 222.623C218.659 222.314 218.336 221.891 218.148 221.377C218.024 221.03 217.975 220.674 217.989 220.328L182.185 215.467C182.122 215.735 182.021 215.992 181.883 216.232ZM254.639 267.098C254.825 266.972 255.03 266.863 255.253 266.782C255.69 266.626 256.138 266.585 256.565 266.646L267.122 230.839L223.359 221.278C223.207 221.756 222.929 222.186 222.547 222.52L254.64 267.1L254.639 267.098ZM464.763 240.827L483.238 218.116C482.928 217.828 482.677 217.464 482.525 217.036C482.451 216.828 482.405 216.618 482.381 216.406L471.832 215.421L464.334 240.568C464.486 240.641 464.629 240.728 464.767 240.827L464.763 240.827ZM576.443 286.367C576.264 285.504 576.514 284.626 577.075 283.99L564.562 270.647L541.352 296.053C541.552 296.293 541.718 296.57 541.83 296.88L576.441 286.365L576.443 286.367ZM540.995 295.695L564.216 270.275L525.286 228.764C525.062 228.936 524.81 229.079 524.53 229.18C524.499 229.19 524.466 229.199 524.434 229.209L538.948 295.081C539.694 295 540.43 295.231 540.993 295.693L540.995 295.695ZM282.292 186.037C282.172 186.082 282.053 186.112 281.931 186.138L287.344 232.263C288.126 232.243 288.881 232.561 289.414 233.127L316.499 211.987L283.336 185.36C283.052 185.652 282.701 185.888 282.292 186.037ZM289.726 233.529C289.835 233.7 289.927 233.883 290 234.082C290.075 234.287 290.119 234.495 290.143 234.703L342.443 233.591C342.422 233.339 342.435 233.092 342.481 232.852L316.907 212.318L289.727 233.531L289.726 233.529ZM342.635 232.322C342.77 231.995 342.964 231.693 343.213 231.437L336.054 203.297L335.361 200.571C334.47 200.714 333.58 200.407 332.962 199.779L317.314 211.992L342.632 232.318L342.635 232.322ZM335.861 200.444C335.861 200.444 335.859 200.446 335.857 200.448L336.547 203.162L343.649 231.079C343.832 230.956 344.033 230.851 344.251 230.772C344.61 230.642 344.979 230.593 345.336 230.611L355.655 209.127L337.212 199.393C336.896 199.861 336.436 200.241 335.863 200.446L335.861 200.444ZM283.653 184.963L316.911 211.667L332.645 199.386C332.522 199.203 332.418 199.004 332.341 198.788C332.179 198.338 332.142 197.875 332.21 197.433L283.939 184.406C283.866 184.601 283.769 184.787 283.653 184.963ZM378.823 159.548L337.18 196.281C337.316 196.475 337.432 196.692 337.517 196.924C337.763 197.61 337.719 198.327 337.452 198.946L355.873 208.667L379.294 159.905C379.125 159.804 378.969 159.684 378.825 159.546L378.823 159.548ZM356.321 208.905L377.754 220.218C378.066 219.792 378.502 219.454 379.037 219.262C379.245 219.188 379.457 219.141 379.667 219.119L380.123 183.392L380.418 160.281C380.187 160.257 379.964 160.206 379.751 160.126L356.321 208.905ZM506.987 98.7412L491.762 118.891L482.353 131.347C482.674 131.64 482.93 132.01 483.088 132.448C483.398 133.308 483.25 134.217 482.775 134.92L493.299 143.557L507.352 98.9381C507.224 98.8811 507.103 98.8155 506.985 98.7429L506.987 98.7412ZM450.169 210.843L480.761 179.369C480.552 179.123 480.376 178.838 480.263 178.515C480.064 177.961 480.055 177.384 480.202 176.854L465.848 170.451L449.705 210.541C449.87 210.625 450.027 210.728 450.172 210.843L450.169 210.843ZM480.379 176.378C480.682 175.757 481.215 175.247 481.919 174.995C482.096 174.931 482.273 174.887 482.453 174.861L480.394 136.129C480.162 136.119 479.934 136.079 479.716 136.014L466.038 169.981L480.38 176.38L480.379 176.378ZM482.454 135.313C482.175 135.595 481.832 135.824 481.432 135.969C481.257 136.031 481.077 136.077 480.901 136.103L481.642 149.937L482.977 174.835C483.131 174.841 483.283 174.864 483.432 174.895L493.137 144.078L482.454 135.309L482.454 135.313ZM483.915 175.05C484.599 175.338 485.167 175.897 485.439 176.651C485.549 176.957 485.598 177.268 485.6 177.574L537.912 182.23C537.982 181.855 538.128 181.501 538.341 181.186L493.56 144.43L483.916 175.051L483.915 175.05ZM538.027 183.656C537.918 183.35 537.868 183.039 537.867 182.733L485.554 178.077C485.455 178.623 485.189 179.129 484.796 179.524L505.014 203.841L538.138 183.917C538.096 183.832 538.061 183.745 538.029 183.654L538.027 183.656ZM484.405 179.849C484.215 179.979 484.008 180.089 483.783 180.172C483.715 180.198 483.645 180.215 483.577 180.234L485.084 213.36C485.965 213.351 486.805 213.767 487.33 214.478L504.574 204.106L484.405 179.849ZM484.183 213.518C484.314 213.471 484.447 213.438 484.579 213.411L483.073 180.321C482.814 180.341 482.56 180.325 482.311 180.276L471.979 214.925L482.37 215.896C482.45 214.85 483.129 213.894 484.179 213.518L484.183 213.518ZM481.826 180.13C481.619 180.048 481.421 179.942 481.239 179.811L450.539 211.204C450.746 211.448 450.916 211.731 451.032 212.052C451.143 212.36 451.192 212.674 451.192 212.986L471.463 214.88L481.824 180.132L481.826 180.13ZM382.556 220.917C382.569 220.955 382.579 220.994 382.591 221.034L419.942 216.323L445.692 213.074C445.673 212.489 445.843 211.921 446.163 211.446L408.234 180.404L381.567 219.611C382.007 219.925 382.36 220.369 382.556 220.917ZM447.754 210.318C448.254 210.187 448.76 210.207 449.228 210.347L465.38 170.24L429.146 154.074C428.873 154.56 428.452 154.966 427.917 155.218L447.754 210.318ZM429.355 153.611L465.571 169.768L479.242 135.82C478.715 135.55 478.274 135.112 478.01 134.544L429.413 152.04C429.553 152.573 429.524 153.118 429.355 153.611ZM479.568 130.789C480.39 130.494 481.258 130.614 481.948 131.04L488.808 121.959L506.583 98.4302C506.501 98.3528 506.422 98.2702 506.349 98.1826L468.609 124.19L477.783 133.807C477.58 132.527 478.303 131.245 479.568 130.789ZM509.123 99.0912C508.688 99.1992 508.249 99.1954 507.834 99.0996L493.722 143.906L538.661 180.792C538.877 180.572 539.13 180.387 539.419 180.246L509.123 99.0912ZM538.399 184.35L505.339 204.235L522.043 224.326C522.234 224.196 522.441 224.085 522.666 224.003C523.23 223.799 523.817 223.795 524.35 223.949L539.387 185.182C539.002 184.989 538.661 184.708 538.399 184.35ZM521.653 224.651L504.9 204.502L487.593 214.913C487.634 214.998 487.67 215.085 487.701 215.176C487.87 215.642 487.901 216.125 487.821 216.584L521.023 225.631C521.159 225.266 521.373 224.933 521.653 224.654L521.653 224.651ZM463.855 240.39L471.315 215.374L451.144 213.49C451.003 214.238 450.557 214.909 449.889 215.322L462.362 240.405C462.864 240.258 463.379 240.26 463.853 240.388L463.855 240.39ZM461.889 240.593L449.433 215.545C449.413 215.553 449.394 215.563 449.374 215.57C447.945 216.086 446.369 215.343 445.854 213.914C445.814 213.804 445.782 213.69 445.757 213.577L388.161 220.845L382.697 221.533C382.719 221.719 382.721 221.907 382.705 222.089L460.592 241.996C460.838 241.402 461.285 240.895 461.889 240.59L461.889 240.593ZM377.491 220.654L356.1 209.366L345.854 230.694C346.668 230.903 347.37 231.48 347.715 232.305L377.248 222.265C377.162 221.705 377.255 221.148 377.491 220.658L377.491 220.654ZM286.477 232.426C286.596 232.381 286.715 232.351 286.838 232.325L281.425 186.2C281.223 186.204 281.022 186.187 280.829 186.148L267.764 230.462L284.791 234.182C285.043 233.394 285.641 232.728 286.48 232.426L286.477 232.426ZM223.326 219.518C223.479 219.938 223.517 220.371 223.466 220.787L267.264 230.357L280.34 186.006C279.873 185.82 279.458 185.508 279.151 185.096L223.208 219.24C223.252 219.33 223.293 219.422 223.326 219.518ZM284.072 183.013C284.12 183.318 284.118 183.624 284.066 183.92L332.329 196.945C332.425 196.672 332.566 196.417 332.743 196.184L311.015 176.058L284.07 183.011L284.072 183.013ZM333.09 195.812C333.346 195.581 333.65 195.396 333.995 195.269C335.022 194.9 336.121 195.18 336.851 195.894L378.487 159.168C378.384 159.028 378.293 158.878 378.218 158.714L311.603 175.905L333.092 195.807L333.09 195.812ZM381.638 160.137C381.402 160.222 381.164 160.269 380.927 160.288L380.175 219.109C380.508 219.135 380.832 219.219 381.129 219.358L407.842 180.083L382.665 159.478C382.385 159.764 382.04 159.991 381.638 160.137ZM408.521 179.984L446.484 211.053C446.707 210.827 446.97 210.633 447.275 210.492L427.437 155.392C426.736 155.574 426.02 155.465 425.419 155.134L408.519 179.982L408.521 179.984ZM429.24 151.564L477.456 134.205L468.183 124.486L429.145 151.387C429.179 151.445 429.21 151.503 429.24 151.564ZM506.062 97.7659C505.987 97.635 505.923 97.4993 505.869 97.3537C505.816 97.2079 505.781 97.0599 505.753 96.9122L447.425 101.988L468.252 123.821L506.06 97.7675L506.062 97.7659ZM510.098 98.632C509.977 98.7211 509.846 98.8024 509.708 98.8725L509.648 99.0467L539.894 180.072C540.494 179.909 541.106 179.96 541.649 180.179L556.885 150.796L510.102 98.6322L510.098 98.632ZM586.773 179.951L562.917 157.2C562.667 157.42 562.374 157.598 562.042 157.717C561.83 157.794 561.615 157.838 561.399 157.861L561.715 182.004L586.184 181.464C586.222 180.91 586.43 180.384 586.771 179.953L586.773 179.951ZM560.891 157.867C560.46 157.833 560.044 157.698 559.681 157.476L542.451 180.675C542.779 180.968 543.04 181.347 543.204 181.792C543.278 181.997 543.322 182.205 543.346 182.41L561.208 182.016L560.891 157.867ZM543.358 182.916C543.305 183.665 542.947 184.363 542.365 184.843L560.527 211.538C560.683 211.442 560.854 211.36 561.033 211.295C561.217 211.228 561.406 211.184 561.593 211.159L561.218 182.52L543.36 182.914L543.358 182.916ZM560.12 211.844L544.407 188.746L559.247 214.308C559.103 213.384 559.443 212.458 560.12 211.844ZM541.771 185.217C541.699 185.25 541.625 185.281 541.549 185.311C540.985 185.514 540.398 185.519 539.865 185.365L524.828 224.132C525.439 224.437 525.94 224.966 526.19 225.66C526.41 226.27 526.399 226.908 526.203 227.478L578.575 250.914C578.783 250.573 579.069 250.275 579.414 250.048L541.772 185.214L541.771 185.217ZM525.994 227.941C525.898 228.109 525.789 228.269 525.658 228.417L564.559 269.9L578.896 254.208C578.656 253.946 578.462 253.636 578.335 253.279C578.102 252.635 578.128 251.964 578.353 251.372L525.996 227.943L525.994 227.941ZM579.273 254.546L564.909 270.269L577.451 283.641C577.674 283.468 577.927 283.325 578.207 283.225C578.482 283.126 578.76 283.074 579.038 283.064L580.593 255.075C580.113 255.016 579.659 254.833 579.275 254.545L579.273 254.546ZM580.069 288.403C578.676 288.905 577.147 288.212 576.594 286.852L542.125 297.324L623.901 287.656L581.867 286.166C581.739 287.156 581.077 288.043 580.073 288.403L580.069 288.403ZM624.63 288.449C624.587 288.331 624.556 288.21 624.531 288.09L541.997 297.848C541.991 298.262 541.892 298.666 541.712 299.03L572.921 317.484L624.707 288.625C624.682 288.566 624.655 288.508 624.632 288.447L624.63 288.449ZM538.314 295.224C538.36 295.207 538.407 295.196 538.453 295.183L523.941 229.321C523.115 229.426 522.297 229.144 521.708 228.586L503.979 244.117L537.948 295.389C538.066 295.327 538.185 295.27 538.314 295.224ZM521.373 228.204C521.225 228 521.101 227.774 521.011 227.522C520.843 227.055 520.811 226.573 520.892 226.114L487.69 217.066C487.519 217.523 487.226 217.932 486.84 218.243L503.696 243.686L521.373 228.201L521.373 228.204ZM486.413 218.526C486.295 218.588 486.174 218.647 486.045 218.692C485.476 218.898 484.884 218.9 484.345 218.744L459.699 281.201C459.936 281.321 460.155 281.474 460.351 281.66L503.308 244.029L486.411 218.528L486.413 218.526ZM459.228 281.013L483.871 218.558C483.793 218.518 483.715 218.475 483.641 218.426L465.142 241.163C465.391 241.428 465.59 241.747 465.721 242.108C466.234 243.539 465.493 245.113 464.064 245.628C463.736 245.747 463.4 245.795 463.073 245.788L459.026 280.96C459.095 280.974 459.162 280.993 459.23 281.011L459.228 281.013ZM460.443 242.481L382.614 222.587C382.383 223.414 381.768 224.122 380.898 224.435C380.507 224.575 380.104 224.62 379.715 224.584L371.966 266.337C372.774 266.565 373.463 267.16 373.784 268L460.468 243.728C460.359 243.307 460.355 242.882 460.441 242.479L460.443 242.481ZM370.289 266.396C370.68 266.256 371.082 266.21 371.47 266.245L379.048 225.411L366.725 262.401L369.81 266.619C369.958 266.53 370.119 266.453 370.289 266.392L370.289 266.396ZM378.86 224.363C378.194 224.069 377.643 223.518 377.377 222.779C377.374 222.772 377.373 222.763 377.368 222.753L347.865 232.785C348.075 233.769 347.726 234.77 346.996 235.416L366.355 261.901L378.858 224.365L378.86 224.363ZM346.587 235.717C346.439 235.806 346.278 235.883 346.108 235.944C345.961 235.996 345.812 236.034 345.663 236.06L351.513 304.572C351.718 304.574 351.92 304.597 352.119 304.642L366.159 262.491L346.587 235.717ZM343.061 235.109C342.862 234.871 342.7 234.598 342.588 234.288C342.565 234.223 342.548 234.158 342.529 234.093L290.151 235.206C290.106 235.836 289.843 236.431 289.415 236.89L313.752 264.352L343.061 235.109ZM285.375 236.864C285.138 236.606 284.947 236.294 284.821 235.942C284.668 235.522 284.63 235.089 284.681 234.673L267.621 230.945L257.06 266.763C257.313 266.848 257.552 266.97 257.77 267.123L285.375 236.861L285.375 236.864ZM254.245 267.423L222.131 222.817C221.987 222.903 221.833 222.977 221.67 223.035C220.926 223.302 220.144 223.227 219.491 222.894L210.703 236.795L254.006 267.693C254.08 267.597 254.16 267.507 254.247 267.421L254.245 267.423ZM210.015 236.931L181.587 216.646C181.287 216.993 180.9 217.272 180.437 217.437C180.326 217.477 180.216 217.505 180.105 217.532L185.571 260.184L186.947 270.927C187.43 270.912 187.903 271.028 188.319 271.248L210.014 236.933L210.015 236.931ZM186.1 271.085C186.212 271.044 186.327 271.014 186.444 270.989L179.602 217.598C179.445 217.604 179.293 217.595 179.139 217.575L167.536 268.05L184.444 272.741C184.713 271.996 185.298 271.373 186.1 271.085ZM166.932 268.409L116.739 254.479C116.578 254.901 116.315 255.279 115.968 255.58L155.461 310.761C155.695 310.569 155.962 310.413 156.263 310.305C156.617 310.177 156.982 310.127 157.335 310.145L166.929 268.409L166.932 268.409ZM154.594 312.01C154.705 311.686 154.874 311.383 155.097 311.12L115.558 255.875C115.415 255.959 115.263 256.032 115.103 256.088C114.699 256.232 114.288 256.275 113.887 256.235L106.617 292.907L154.595 312.008L154.594 312.01ZM113.388 256.139C112.95 256.009 112.552 255.774 112.226 255.448L81.7516 280.766C81.8123 280.882 81.8676 280.999 81.9133 281.124C82.1489 281.779 82.1199 282.463 81.8823 283.062L106.135 292.719L113.388 256.139ZM80.9782 279.86L103.689 249.345L85.1426 241.496C84.8326 242.075 84.3193 242.545 83.6538 242.783C83.3589 242.89 83.0586 242.94 82.7614 242.944L79.9199 279.373C80.3029 279.459 80.6627 279.624 80.9782 279.86ZM85.1242 238.862C85.195 238.989 85.2581 239.123 85.31 239.263C85.5246 239.855 85.5181 240.472 85.3409 241.029L104.001 248.926L137.997 203.244C137.899 203.155 137.805 203.055 137.72 202.95L85.1242 238.862ZM183.055 202.821C182.739 203.351 182.247 203.779 181.622 204.006C181.319 204.115 181.008 204.165 180.702 204.166L179.997 212.148C180.928 212.317 181.748 212.964 182.091 213.918C182.216 214.265 182.264 214.621 182.25 214.967L218.055 219.828C218.08 219.718 218.112 219.609 218.15 219.502L183.052 202.821L183.055 202.821ZM222.252 218.157C222.514 218.329 222.748 218.546 222.942 218.805L278.885 184.66C278.84 184.571 278.799 184.478 278.766 184.383C278.263 182.987 278.962 181.453 280.326 180.903L267.27 137.387C266.714 137.5 266.155 137.436 265.656 137.225L222.254 218.159L222.252 218.157ZM269.349 135.513C269.253 135.819 269.102 136.11 268.905 136.367L311.154 175.497L377.006 158.503L269.347 135.511L269.349 135.513ZM383.451 157.516C383.459 158.08 383.289 158.627 382.982 159.085L408.123 179.661L424.997 154.849C424.628 154.544 424.331 154.143 424.158 153.66C424.111 153.529 424.078 153.399 424.052 153.266L383.453 157.514L383.451 157.516ZM427.988 150.278C428.317 150.445 428.613 150.679 428.855 150.967L467.824 124.111L446.962 102.242L427.986 150.276L427.988 150.278ZM523.441 57.9734C523.019 57.7799 522.643 57.4779 522.362 57.0923L447.956 101.431L505.709 96.4072C505.716 95.2866 506.41 94.2365 507.525 93.8333C508.67 93.4213 509.904 93.8159 510.618 94.7198L523.445 57.9736L523.441 57.9734ZM577.952 111.258L557.493 150.716L559.468 152.916C559.678 152.759 559.915 152.629 560.175 152.536C560.739 152.332 561.33 152.328 561.866 152.482L577.953 111.257L577.952 111.258ZM586.974 183.591C586.698 183.315 586.476 182.977 586.336 182.586C586.262 182.381 586.22 182.175 586.194 181.968L561.719 182.51L562.094 211.138C562.609 211.163 563.102 211.336 563.522 211.623L586.974 183.591ZM562.844 216.487C561.925 216.799 560.952 216.598 560.243 216.031L577.171 245.186L562.846 216.489L562.844 216.487ZM627.324 290.268C626.382 290.307 625.48 289.855 624.943 289.073L573.418 317.785L634.085 353.657C634.398 353.224 634.84 352.877 635.381 352.681C635.486 352.643 635.592 352.614 635.696 352.59L627.323 290.267L627.324 290.268ZM633.686 354.473C633.725 354.344 633.771 354.216 633.83 354.093L572.907 318.073L543.352 334.544C543.373 334.59 543.393 334.637 543.411 334.685C543.577 335.144 543.611 335.617 543.536 336.068L633.686 354.473ZM540.825 332.865C541.737 332.866 542.6 333.323 543.11 334.094L572.398 317.773L541.436 299.467C541.124 299.882 540.694 300.215 540.17 300.404C540.001 300.465 539.829 300.507 539.656 300.534L540.825 332.865ZM536.565 297.171C536.707 296.585 537.039 296.054 537.517 295.672L503.586 244.458L460.68 282.043C460.829 282.247 460.952 282.473 461.042 282.726C461.179 283.109 461.225 283.501 461.194 283.882L536.563 297.173L536.565 297.171ZM368.627 269.917C368.235 268.826 368.575 267.65 369.395 266.925L366.524 262.996L352.775 304.27L369.738 271.301C369.242 270.986 368.841 270.513 368.627 269.914L368.627 269.917ZM349.021 306.113C349.142 305.869 349.297 305.642 349.485 305.443L313.727 265.094L295.346 283.433C295.544 283.671 295.708 283.947 295.819 284.255C296.02 284.811 296.028 285.391 295.878 285.921L349.021 306.113ZM290.812 283.877C291.122 283.302 291.635 282.835 292.297 282.597C292.417 282.552 292.539 282.523 292.662 282.497L287.47 237.76C286.845 237.775 286.241 237.575 285.748 237.206L258.153 267.456C258.418 267.728 258.633 268.059 258.768 268.44C258.983 269.035 258.978 269.654 258.795 270.213L290.81 283.879L290.812 283.877ZM253.432 269.34C253.437 268.914 253.542 268.498 253.732 268.125L210.43 237.227L188.747 271.525C189.133 271.831 189.444 272.244 189.622 272.744C189.688 272.931 189.734 273.118 189.759 273.309L253.436 269.344L253.432 269.34ZM185.202 275.73C184.869 275.435 184.603 275.054 184.44 274.606C184.276 274.148 184.24 273.68 184.315 273.233L167.42 268.546L157.841 310.222C158.112 310.288 158.373 310.394 158.61 310.537L185.202 275.73ZM99.5384 318.757C99.673 318.679 99.8142 318.613 99.9654 318.558C100.321 318.429 100.686 318.379 101.043 318.397L106.034 293.225L81.6525 283.517C81.4432 283.852 81.1593 284.145 80.8155 284.365L99.5403 318.755L99.5384 318.757Z" fill="#6A3939"/>
<path d="M221.897 197.287C221.897 197.287 181.728 133.697 152 119.296L217.238 86C217.238 86 266.721 124.356 287.388 166.533L221.897 197.287Z" fill="#FBE4C6"/>
<path d="M166.444 122.197C166.232 122.197 166.03 122.084 165.923 121.888C165.767 121.6 165.875 121.242 166.161 121.086C177.633 114.867 189.532 109.106 201.523 103.965C201.823 103.835 202.17 103.974 202.299 104.275C202.428 104.575 202.288 104.922 201.99 105.051C190.031 110.179 178.165 115.924 166.724 122.126C166.635 122.174 166.538 122.197 166.444 122.197Z" fill="black"/>
<path d="M206.798 102.107C206.578 102.107 206.365 101.983 206.263 101.771C206.121 101.476 206.247 101.123 206.542 100.982L219.136 94.9522C219.427 94.8109 219.783 94.9343 219.925 95.2313C220.066 95.5264 219.941 95.8788 219.646 96.0201L207.052 102.05C206.969 102.089 206.882 102.107 206.798 102.107Z" fill="black"/>
<path d="M173.614 128.101C173.403 128.101 173.201 127.989 173.094 127.792C172.938 127.504 173.046 127.146 173.332 126.991C184.804 120.771 196.702 115.01 208.694 109.87C208.992 109.739 209.341 109.879 209.47 110.179C209.599 110.48 209.459 110.827 209.16 110.955C197.201 116.083 185.335 121.829 173.895 128.03C173.806 128.078 173.709 128.101 173.614 128.101Z" fill="black"/>
<path d="M213.968 108.011C213.748 108.011 213.536 107.888 213.434 107.675C213.292 107.38 213.417 107.027 213.713 106.886L226.307 100.857C226.598 100.713 226.954 100.839 227.095 101.136C227.237 101.431 227.112 101.783 226.816 101.924L214.222 107.954C214.14 107.993 214.052 108.011 213.968 108.011Z" fill="black"/>
<path d="M180.785 134.008C180.565 134.008 180.352 133.884 180.252 133.671C180.111 133.376 180.234 133.024 180.529 132.883C188.136 129.232 196.332 124.977 201.918 121.775C202.199 121.614 202.562 121.711 202.725 121.993C202.888 122.278 202.789 122.637 202.507 122.8C196.895 126.016 188.671 130.287 181.041 133.949C180.958 133.988 180.871 134.008 180.785 134.008Z" fill="black"/>
<path d="M207.252 119.886C207.032 119.886 206.819 119.763 206.717 119.55C206.576 119.255 206.701 118.902 206.996 118.761C209.089 117.759 212.521 116.021 215.841 114.34C219.166 112.655 222.606 110.912 224.711 109.904C225.004 109.762 225.359 109.886 225.5 110.183C225.641 110.478 225.516 110.83 225.221 110.971C223.128 111.973 219.696 113.712 216.376 115.393C213.051 117.078 209.611 118.82 207.506 119.829C207.424 119.868 207.336 119.886 207.252 119.886Z" fill="black"/>
<path d="M187.954 139.912C187.743 139.912 187.541 139.799 187.433 139.603C187.278 139.315 187.385 138.957 187.671 138.801C194.77 134.954 200.301 132.242 205.179 129.849C208.169 128.382 210.994 126.998 213.746 125.56C214.036 125.408 214.392 125.521 214.544 125.81C214.694 126.1 214.583 126.458 214.294 126.608C211.528 128.053 208.697 129.441 205.699 130.912C200.83 133.298 195.312 136.004 188.235 139.841C188.145 139.889 188.049 139.912 187.954 139.912Z" fill="black"/>
<path d="M219.062 123.684C218.842 123.684 218.63 123.56 218.528 123.347C218.386 123.052 218.512 122.7 218.807 122.559C220.91 121.552 224.028 120.131 227.042 118.758C230.05 117.386 233.163 115.969 235.255 114.966C235.549 114.823 235.903 114.948 236.044 115.245C236.185 115.54 236.06 115.892 235.765 116.034C233.662 117.041 230.544 118.461 227.53 119.834C224.521 121.206 221.409 122.623 219.316 123.626C219.234 123.666 219.147 123.684 219.062 123.684Z" fill="black"/>
<path d="M195.125 145.816C194.914 145.816 194.712 145.704 194.604 145.507C194.449 145.219 194.556 144.861 194.842 144.706C203.072 140.245 203.542 139.923 204.396 139.34C204.743 139.104 205.15 138.824 206.122 138.231C206.401 138.061 206.764 138.148 206.934 138.427C207.104 138.706 207.016 139.071 206.737 139.241C205.794 139.815 205.399 140.087 205.063 140.316C204.177 140.921 203.691 141.255 195.407 145.745C195.318 145.793 195.221 145.816 195.127 145.816H195.125Z" fill="black"/>
<path d="M211.47 136.335C211.25 136.335 211.037 136.211 210.935 135.998C210.793 135.703 210.919 135.351 211.214 135.21C213.296 134.213 218.193 131.899 223.116 129.574C228.115 127.211 233.139 124.837 235.255 123.823C235.549 123.682 235.903 123.807 236.044 124.102C236.185 124.397 236.06 124.75 235.765 124.891C233.649 125.905 228.623 128.28 223.62 130.643C218.701 132.968 213.806 135.281 211.724 136.278C211.641 136.317 211.554 136.335 211.47 136.335Z" fill="black"/>
<path d="M209.783 165.861C209.554 165.861 209.336 165.728 209.239 165.505C209.108 165.204 209.246 164.857 209.547 164.727C219.377 160.459 229.093 155.683 238.423 150.528C238.709 150.369 239.069 150.474 239.226 150.761C239.385 151.047 239.28 151.406 238.993 151.564C229.63 156.737 219.88 161.53 210.015 165.812C209.938 165.846 209.858 165.861 209.781 165.861H209.783Z" fill="black"/>
<path d="M243.977 149.5C243.762 149.5 243.555 149.383 243.451 149.179C243.301 148.89 243.415 148.532 243.705 148.383L255.714 142.195C256.004 142.043 256.361 142.159 256.51 142.449C256.66 142.738 256.546 143.096 256.256 143.245L244.247 149.433C244.161 149.478 244.068 149.5 243.977 149.5Z" fill="black"/>
<path d="M205.987 159.532C205.764 159.532 205.551 159.407 205.451 159.191C205.313 158.895 205.44 158.543 205.737 158.404C216.857 153.207 227.872 147.434 238.475 141.241C238.758 141.077 239.121 141.173 239.283 141.454C239.448 141.737 239.353 142.098 239.071 142.263C228.437 148.473 217.39 154.265 206.236 159.475C206.156 159.512 206.07 159.53 205.986 159.53L205.987 159.532Z" fill="black"/>
<path d="M243.871 140.202C243.658 140.202 243.454 140.088 243.347 139.887C243.193 139.599 243.304 139.242 243.594 139.088L255.236 132.92C255.522 132.765 255.882 132.878 256.036 133.167C256.19 133.455 256.079 133.813 255.789 133.967L244.147 140.134C244.059 140.181 243.964 140.202 243.871 140.202Z" fill="black"/>
<path d="M202.104 151.32C201.891 151.32 201.685 151.206 201.58 151.006C201.428 150.716 201.539 150.358 201.827 150.206C209.319 146.253 217.649 142.187 223.564 139.599C223.863 139.467 224.212 139.605 224.342 139.905C224.473 140.204 224.337 140.553 224.037 140.683C218.145 143.261 209.845 147.31 202.378 151.252C202.29 151.299 202.195 151.32 202.102 151.32H202.104Z" fill="black"/>
<path d="M229.208 138.465C228.995 138.465 228.789 138.351 228.684 138.151C228.53 137.861 228.641 137.503 228.93 137.351C230.995 136.26 234.441 134.534 237.774 132.865C241.101 131.2 244.542 129.477 246.594 128.392C246.883 128.238 247.241 128.349 247.393 128.638C247.547 128.928 247.436 129.286 247.146 129.438C245.082 130.529 241.635 132.255 238.303 133.924C234.976 135.589 231.535 137.312 229.483 138.397C229.396 138.444 229.301 138.465 229.208 138.465Z" fill="black"/>
<path d="M221.874 176.63C221.65 176.63 221.438 176.503 221.337 176.289C221.2 175.992 221.328 175.641 221.624 175.502C228.925 172.098 234.386 169.275 239.204 166.785C242.168 165.254 244.968 163.807 247.772 162.446C248.065 162.305 248.42 162.426 248.563 162.72C248.706 163.013 248.582 163.367 248.289 163.51C245.497 164.864 242.705 166.308 239.748 167.835C234.921 170.331 229.447 173.16 222.124 176.573C222.044 176.611 221.958 176.628 221.874 176.628V176.63Z" fill="black"/>
<path d="M253.435 161.301C253.222 161.301 253.017 161.187 252.911 160.986C252.757 160.697 252.868 160.339 253.158 160.187C255.21 159.101 258.202 157.447 261.094 155.844C263.992 154.24 266.988 152.581 269.05 151.492C269.34 151.338 269.698 151.449 269.85 151.739C270.004 152.029 269.893 152.386 269.603 152.539C267.551 153.624 264.559 155.279 261.667 156.881C258.769 158.486 255.773 160.144 253.711 161.233C253.623 161.28 253.528 161.301 253.435 161.301Z" fill="black"/>
<path d="M214 171.765C213.782 171.765 213.571 171.643 213.469 171.434C213.326 171.141 213.448 170.787 213.741 170.642C217.318 168.892 219.916 167.445 222.209 166.168C224.786 164.732 226.822 163.598 229.097 162.7C229.399 162.58 229.744 162.729 229.864 163.033C229.984 163.337 229.836 163.68 229.531 163.8C227.328 164.669 225.323 165.787 222.785 167.202C220.593 168.422 217.868 169.94 214.262 171.704C214.178 171.745 214.09 171.765 214.002 171.765H214Z" fill="black"/>
<path d="M235.479 161.324C235.264 161.324 235.058 161.208 234.953 161.004C234.803 160.714 234.915 160.357 235.205 160.206C237.559 158.987 243.111 156.075 248.647 153.172C254.133 150.294 259.604 147.425 261.938 146.216C262.228 146.063 262.586 146.178 262.736 146.468C262.886 146.757 262.774 147.115 262.484 147.265C260.152 148.473 254.682 151.342 249.198 154.218C243.658 157.123 238.106 160.037 235.751 161.255C235.663 161.299 235.57 161.321 235.479 161.321V161.324Z" fill="black"/>
<path d="M184.763 181.636L184.996 193.189L185.802 196.395L204.41 177.147L191.928 175.965C188.405 175.63 185.244 178.132 184.763 181.638V181.636Z" fill="#FFBE97"/>
<path d="M190.295 174.702C190.299 175.106 190.331 175.508 190.396 175.907C190.544 176.834 192.152 179.181 191.859 179.96L186.09 195.422L185.343 192.545L183.436 196.067C182.593 197.624 181.967 199.289 181.576 201.015L179.995 207.987L182.595 224.913L200.342 244.014L197.388 253.414C207.569 257.184 225.969 266.51 231.937 260.656L237.243 233.678L236.769 225.815L236.377 224.994L223.219 198.042L212.602 183.452L201.213 165.302C199.6 164.302 197.552 164.224 195.903 165.165C193.497 166.538 191.685 168.978 190.814 171.586C190.48 172.588 190.288 173.645 190.297 174.702H190.295Z" fill="#FFBE97"/>
<path d="M237.241 233.678C237.241 233.678 242.714 214.84 242.025 208.422C240.695 195.996 221.923 162.684 221.914 162.662C220.492 159.464 216.174 157.155 213.348 160.097C211.35 162.178 210.463 165.73 210.802 168.545L214.111 195.903L237.241 233.678Z" fill="#FFBE97"/>
<path d="M197.309 194.445C197.529 194.61 197.829 194.658 198.103 194.545C198.518 194.375 198.716 193.9 198.546 193.485L191.794 177.032C191.619 176.619 191.148 176.417 190.734 176.589C190.319 176.759 190.12 177.235 190.29 177.65L197.042 194.102C197.101 194.243 197.194 194.359 197.309 194.445Z" fill="#FB8876"/>
<path d="M188.034 205.422C188.226 205.565 188.476 205.623 188.723 205.556C189.158 205.442 189.419 205 189.306 204.566L186.441 193.538C186.326 193.106 185.883 192.843 185.45 192.955C185.015 193.07 184.754 193.512 184.867 193.946L187.732 204.973C187.78 205.159 187.889 205.315 188.034 205.422Z" fill="#FB8876"/>
<path d="M182.768 214.179C182.962 214.322 183.214 214.38 183.462 214.312C183.897 214.195 184.155 213.75 184.038 213.317L182.484 207.492C182.37 207.059 181.926 206.798 181.49 206.916C181.055 207.032 180.797 207.477 180.914 207.91L182.468 213.736C182.516 213.92 182.625 214.072 182.768 214.179Z" fill="#FB8876"/>
<path d="M225.323 198.21C225.675 198.471 226.171 198.409 226.444 198.064C226.723 197.711 226.664 197.201 226.314 196.921C225.761 196.481 225.189 196.042 224.6 195.59C221.327 193.075 217.617 190.222 213.756 184.79C213.487 184.42 212.986 184.339 212.622 184.597C212.255 184.856 212.169 185.364 212.428 185.731C216.43 191.363 220.243 194.295 223.609 196.881C224.191 197.327 224.754 197.761 225.301 198.196C225.309 198.201 225.316 198.207 225.321 198.21H225.323Z" fill="#FB8876"/>
<path d="M526.141 129.84H300.007C295.134 129.84 291.183 133.791 291.183 138.664V305.33C291.183 310.203 295.134 314.153 300.007 314.153H526.141C531.014 314.153 534.964 310.203 534.964 305.33V138.664C534.964 133.791 531.014 129.84 526.141 129.84Z" fill="#FBE4C6"/>
<path d="M520.485 306.519L455.025 306.738C452.135 306.747 449.784 304.412 449.776 301.522L449.754 294.979C449.745 292.088 452.079 289.738 454.97 289.729L520.43 289.511C523.32 289.502 525.67 291.836 525.679 294.727L525.701 301.27C525.71 304.16 523.376 306.51 520.485 306.519Z" fill="white"/>
<path d="M510.475 289.55L464.919 289.701L464.976 306.707L510.531 306.556L510.475 289.55Z" fill="#3F97B1"/>
<path d="M547.408 305.716H278.741V319.214H547.408V305.716Z" fill="#2B6577"/>
<path d="M298.463 263.524L292.965 291.672L326.08 298.141L330.194 279.305C319.643 276.132 309.775 269.984 300.592 263.6L298.465 263.522L298.463 263.524Z" fill="#FFBE97"/>
<path d="M300.59 263.602C309.775 269.984 319.641 276.133 330.192 279.307L333.358 264.806L300.588 263.602H300.59Z" fill="#FB8876"/>
<path d="M412.825 238.756L416.657 210.422C417.274 205.86 420.624 202.144 425.097 201.058L444.542 196.339L412.825 238.756Z" fill="#FFBE97"/>
<path d="M405.214 214.266L464.566 186.653C467.186 185.434 470.299 186.572 471.517 189.189L474.277 195.122C475.496 197.741 474.358 200.854 471.74 202.072L412.388 229.686C409.769 230.904 406.655 229.767 405.437 227.149L402.677 221.217C401.459 218.598 402.597 215.484 405.214 214.266Z" fill="#9F5656"/>
<path d="M455.543 190.851L414.239 210.067L421.413 225.487L462.717 206.27L455.543 190.851Z" fill="#EF9C2E"/>
<path d="M461.586 265.677C458.291 276.863 446.536 283.303 435.364 279.961C428.041 277.77 420.679 273.824 416.689 266.748C406.892 249.377 416.798 219.653 416.798 219.653L466.721 248.246L461.586 265.677Z" fill="#FFBE97"/>
<path d="M416.796 219.651L450.564 191.276C453.006 189.306 456.529 189.455 458.797 191.623C461.08 193.805 461.373 197.35 459.479 199.877L433.69 232.601L416.794 219.651H416.796Z" fill="#FFBE97"/>
<path d="M423.262 233.978L451.328 209.449C453.691 207.384 457.218 207.393 459.569 209.47C461.937 211.561 462.368 215.092 460.576 217.693L439.319 248.518L423.262 233.978Z" fill="#FFBE97"/>
<path d="M429.208 245.216L457.273 220.687C459.636 218.622 463.164 218.631 465.514 220.708C467.882 222.799 468.313 226.33 466.521 228.931L445.264 259.756L429.208 245.216Z" fill="#FFBE97"/>
<path d="M433.225 258.098L461.291 233.569C463.654 231.505 467.181 231.514 469.531 233.59C471.9 235.681 472.331 239.212 470.538 241.813L449.282 272.639L433.225 258.098Z" fill="#FFBE97"/>
<path d="M434.756 228.07C434.613 228.07 434.47 228.018 434.355 227.915C434.114 227.693 434.1 227.319 434.32 227.079L450.89 209.048C451.112 208.806 451.485 208.792 451.725 209.012C451.967 209.234 451.981 209.608 451.761 209.847L435.191 227.879C435.074 228.006 434.915 228.07 434.754 228.07H434.756Z" fill="#FB8876"/>
<path d="M446.395 233.764C446.252 233.764 446.109 233.712 445.994 233.608C445.753 233.386 445.739 233.012 445.959 232.773L459.926 217.573C460.148 217.331 460.524 217.317 460.762 217.537C461.003 217.759 461.017 218.132 460.797 218.372L446.83 233.572C446.713 233.699 446.554 233.764 446.393 233.764H446.395Z" fill="#FB8876"/>
<path d="M455.168 242.222C455.025 242.222 454.882 242.17 454.768 242.067C454.526 241.845 454.512 241.471 454.732 241.231L464.096 231.041C464.317 230.8 464.693 230.786 464.931 231.006C465.172 231.227 465.187 231.601 464.967 231.841L455.603 242.031C455.487 242.158 455.328 242.222 455.167 242.222H455.168Z" fill="#FB8876"/>
<path d="M230.449 271.835C246.374 263.573 258.494 265.507 275.915 269.791L358.92 290.207C376.066 294.185 383.128 300.234 387.473 307.634L393.649 318.316L416.027 267.337L461.999 287.581C458.651 305.117 455.152 346.151 445.551 365.608C416.977 423.503 358.666 382.901 358.666 382.901L353.901 400.063H218.349L228.34 341.989C228.34 341.989 163.582 346.936 164.653 313.729C165.918 274.506 188.272 247.933 188.272 247.933L234.245 249.62L230.449 271.833V271.835Z" fill="#E95D9A"/>
<path d="M318.072 237.616C331.523 236.349 341.777 228.429 340.976 219.925C340.176 211.422 328.623 205.555 315.172 206.822C301.722 208.089 291.468 216.009 292.268 224.512C293.069 233.016 304.622 238.882 318.072 237.616Z" fill="black"/>
<path d="M284.15 260.168C291.271 274.141 312.819 278.566 329.588 270.022C346.356 261.475 351.996 243.195 344.874 229.222C337.753 215.249 318.385 210.849 301.617 219.393C284.848 227.94 277.028 246.195 284.148 260.168H284.15Z" fill="#FFBE97"/>
<path d="M326.255 246.967C329.115 246.261 331.125 244.441 330.745 242.902C330.365 241.364 327.739 240.69 324.879 241.397C322.019 242.103 320.009 243.923 320.389 245.462C320.769 247 323.396 247.674 326.255 246.967Z" fill="#FB8876"/>
<path d="M341.207 230.301L350.621 235.583C351.837 236.266 352.027 237.938 350.995 238.876L346.06 243.354L341.207 230.301Z" fill="#FFBE97"/>
<path d="M341.268 250.602C338.32 250.602 335.394 250.193 332.555 249.382C332.24 249.293 332.06 248.965 332.149 248.651C332.238 248.336 332.569 248.157 332.881 248.245C335.832 249.087 338.878 249.481 341.956 249.411C342.312 249.395 342.554 249.663 342.561 249.989C342.568 250.316 342.309 250.586 341.983 250.593C341.745 250.599 341.507 250.602 341.269 250.602H341.268Z" fill="black"/>
<path d="M336.737 236.677C336.116 237.071 335.295 236.887 334.902 236.266L333.752 234.452C333.358 233.832 333.542 233.011 334.163 232.617C334.784 232.224 335.605 232.408 335.998 233.029L337.148 234.842C337.542 235.463 337.358 236.284 336.737 236.677Z" fill="black"/>
<path d="M327.637 232.369C327.51 232.369 327.383 232.327 327.273 232.245C327.016 232.045 326.968 231.673 327.17 231.415C328.794 229.321 331.064 227.673 333.559 226.779C333.865 226.668 334.204 226.827 334.315 227.137C334.426 227.444 334.265 227.782 333.958 227.893C331.672 228.714 329.592 230.222 328.103 232.141C327.987 232.292 327.812 232.37 327.635 232.37L327.637 232.369Z" fill="black"/>
<path d="M304.258 213.069C304.258 213.069 322.104 205.572 330.69 210.819C337.694 215.099 336.848 223.595 336.172 224.878L330.548 227.548V223.33L326.189 231.766L318.598 236.125L318.037 229.517C318.037 229.517 309.601 243.857 310.445 252.153L305.806 243.437L304.258 213.069Z" fill="black"/>
<path d="M311.71 213.772C311.71 213.772 302.023 208.619 289.357 216.161C276.845 223.613 269.816 239.639 274.454 254.543C279.092 269.446 266.441 290.112 266.441 290.112L284.717 293.205L288.091 284.911L289.355 294.471L301.728 294.612L308.195 241.611L311.71 213.774V213.772Z" fill="black"/>
<path d="M310.566 256.264C313.3 253.036 312.898 248.203 309.669 245.47C306.441 242.737 301.608 243.139 298.875 246.367C296.142 249.595 296.544 254.428 299.772 257.161C303.001 259.894 307.833 259.493 310.566 256.264Z" fill="#FFBE97"/>
<path d="M303.33 253.569L307.349 251.688C307.997 251.385 308.276 250.614 307.972 249.967C307.669 249.319 306.899 249.04 306.251 249.344L302.232 251.226C301.584 251.528 301.305 252.299 301.609 252.947C301.912 253.594 302.683 253.873 303.33 253.569Z" fill="#FB8876"/>
<path d="M228.762 341.316C228.734 341.316 228.703 341.314 228.675 341.309C228.351 341.262 228.129 340.96 228.178 340.636L232.395 312.377C232.444 312.055 232.749 311.828 233.068 311.88C233.392 311.926 233.613 312.229 233.565 312.552L229.347 340.812C229.303 341.105 229.05 341.316 228.762 341.316Z" fill="#4F2B2B"/>
<path d="M413.251 354.738C413.02 354.738 412.8 354.602 412.705 354.373C407.49 341.894 400.737 330.078 392.635 319.253C392.438 318.99 392.493 318.621 392.755 318.425C393.017 318.228 393.388 318.283 393.583 318.545C401.743 329.446 408.543 341.348 413.798 353.919C413.923 354.219 413.782 354.566 413.48 354.692C413.405 354.722 413.328 354.738 413.251 354.738Z" fill="#4F2B2B"/>
<path d="M192.815 292.736C192.631 292.736 192.449 292.65 192.334 292.489C192.145 292.222 192.205 291.854 192.472 291.663C201.668 285.096 216.873 276.323 228.142 272.261C228.449 272.154 228.787 272.311 228.898 272.617C229.009 272.925 228.85 273.264 228.542 273.375C217.494 277.357 202.066 286.266 193.159 292.627C193.055 292.7 192.935 292.736 192.815 292.736Z" fill="#4F2B2B"/>
<path d="M320.419 196.602C320.112 196.602 319.852 196.364 319.831 196.053C319.807 195.728 320.053 195.445 320.378 195.422C323.639 195.187 326.873 194.223 329.729 192.631C332.083 191.319 334.403 189.02 333.854 186.509C333.375 184.321 330.888 183.148 328.903 182.808C327.917 182.64 326.878 182.585 325.875 182.531C324.48 182.456 323.038 182.379 321.639 182.003C319.063 181.311 316.547 179.168 316.722 176.412C316.863 174.18 318.693 172.572 320.056 171.557C321.643 170.377 325.705 167.837 329.121 169.729C329.407 169.889 329.511 170.248 329.352 170.534C329.193 170.82 328.833 170.922 328.547 170.765C325.733 169.205 322.165 171.464 320.761 172.507C318.895 173.895 317.987 175.16 317.903 176.487C317.768 178.585 319.886 180.308 321.945 180.86C323.224 181.204 324.54 181.275 325.935 181.349C326.973 181.404 328.046 181.461 329.1 181.642C331.559 182.064 334.403 183.497 335.008 186.255C335.696 189.401 333.029 192.145 330.305 193.664C327.297 195.34 323.893 196.356 320.46 196.601C320.446 196.601 320.432 196.601 320.417 196.601L320.419 196.602Z" fill="#9F5656"/>
<path d="M343.554 191.451C343.532 191.451 343.509 191.451 343.487 191.447C343.162 191.41 342.929 191.118 342.965 190.793C343.142 189.219 343.239 187.825 342.634 186.702C342.309 186.101 341.631 185.62 340.944 185.506C340.615 185.448 340.148 185.457 339.776 185.799C339.179 186.35 339.001 187.872 339.137 189.092C339.171 189.399 338.964 189.68 338.662 189.738C338.352 189.795 338.061 189.612 337.98 189.314C337.669 188.187 337.572 186.881 337.479 185.618L337.444 185.133C337.418 184.808 337.662 184.524 337.987 184.499C338.322 184.468 338.597 184.717 338.622 185.042L338.642 185.309C338.74 185.171 338.849 185.042 338.975 184.928C339.538 184.407 340.304 184.196 341.141 184.338C342.185 184.513 343.18 185.219 343.675 186.14C344.507 187.681 344.296 189.555 344.142 190.925C344.108 191.227 343.852 191.451 343.554 191.451Z" fill="#9F5656"/>
<path d="M348.966 173.452C348.714 173.452 348.481 173.291 348.401 173.037C348.303 172.725 348.476 172.393 348.789 172.296C352.25 171.212 355.84 170.493 359.457 170.162C359.779 170.128 360.07 170.373 360.101 170.697C360.129 171.023 359.891 171.311 359.566 171.341C356.033 171.665 352.527 172.366 349.145 173.425C349.086 173.443 349.027 173.452 348.968 173.452H348.966Z" fill="#9F5656"/>
<path d="M351.073 181.465C350.803 181.465 350.558 181.279 350.497 181.003C350.426 180.685 350.626 180.368 350.944 180.297L360.228 178.204C360.546 178.132 360.862 178.333 360.934 178.651C361.006 178.969 360.805 179.286 360.487 179.358L351.204 181.45C351.159 181.459 351.116 181.465 351.073 181.465Z" fill="#9F5656"/>
<path d="M367.2 173.305C366.906 173.305 366.652 173.088 366.613 172.79C366.545 172.276 366.477 171.758 366.416 171.237L364.978 159.847C364.937 159.523 365.168 159.226 365.492 159.185C365.821 159.146 366.112 159.375 366.153 159.699L366.685 163.911C367.262 161.906 368.336 160.267 369.792 159.196C372.022 157.557 375.14 157.531 377.046 159.133C378.166 160.076 378.783 161.451 379.193 162.543C380.275 165.412 380.799 168.551 380.708 171.618C380.699 171.946 380.429 172.21 380.098 172.192C379.771 172.182 379.515 171.91 379.524 171.582C379.611 168.669 379.114 165.687 378.086 162.959C377.724 162.002 377.195 160.804 376.284 160.038C374.809 158.797 372.265 158.845 370.493 160.147C368.922 161.303 367.829 163.358 367.495 165.787C367.255 167.54 367.384 169.338 367.593 171.11L367.786 172.636V172.64C367.828 172.963 367.599 173.258 367.275 173.301C367.25 173.305 367.225 173.307 367.2 173.307V173.305Z" fill="#9F5656"/>
<path d="M391.177 173.718C391.104 173.718 391.03 173.705 390.959 173.677C388.338 172.638 385.464 171.301 384.511 168.565C384.058 167.268 384.146 165.898 384.262 164.717C384.666 160.623 385.668 156.62 387.242 152.817C387.367 152.515 387.716 152.374 388.015 152.497C388.317 152.622 388.46 152.968 388.335 153.27C386.805 156.964 385.832 160.856 385.439 164.834C385.335 165.889 385.255 167.105 385.627 168.177C386.416 170.441 389.016 171.636 391.392 172.579C391.696 172.7 391.844 173.044 391.724 173.346C391.633 173.578 391.409 173.72 391.173 173.72L391.177 173.718Z" fill="#9F5656"/>
<path d="M394.706 167.504C394.042 167.504 393.348 167.35 392.662 167.05C390.004 165.886 388.422 162.757 389.061 159.926C389.701 157.096 392.533 154.95 395.371 155.039C395.699 155.048 395.954 155.322 395.944 155.649C395.935 155.975 395.666 156.221 395.334 156.221C393.016 156.141 390.724 157.928 390.215 160.185C389.705 162.442 391.014 165.036 393.136 165.964C393.64 166.184 394.411 166.417 395.214 166.274C396.783 165.995 397.797 164.381 398.076 163.002C398.41 161.339 398.04 159.548 397.713 157.967C397.659 157.708 397.784 157.445 398.019 157.323C398.255 157.202 398.541 157.25 398.722 157.441L404.182 163.211C404.408 163.449 404.397 163.823 404.159 164.049C403.923 164.272 403.549 164.263 403.322 164.025L399.24 159.711C399.408 160.854 399.475 162.049 399.235 163.237C398.868 165.056 397.545 167.059 395.421 167.438C395.187 167.479 394.949 167.501 394.706 167.501V167.504Z" fill="#9F5656"/>
<path d="M409.596 164.209C409.355 164.209 409.126 164.059 409.04 163.818C407.645 159.945 406.532 155.932 405.733 151.887C405.67 151.567 405.878 151.256 406.2 151.192C406.52 151.127 406.831 151.336 406.896 151.658C407.683 155.644 408.779 159.6 410.155 163.417C410.265 163.725 410.106 164.063 409.799 164.174C409.732 164.199 409.664 164.209 409.598 164.209H409.596Z" fill="#9F5656"/>
<path d="M403.798 158.28C403.538 158.28 403.3 158.108 403.229 157.845C403.141 157.531 403.327 157.205 403.642 157.118L411.235 155.016C411.546 154.93 411.875 155.112 411.963 155.429C412.051 155.744 411.865 156.069 411.55 156.157L403.957 158.259C403.905 158.273 403.851 158.28 403.798 158.28Z" fill="#9F5656"/>
<path d="M419.983 163.489C419.785 163.489 419.59 163.389 419.477 163.204C416.989 159.124 415.331 154.465 414.685 149.728C414.641 149.405 414.868 149.106 415.192 149.063C415.51 149.02 415.814 149.246 415.857 149.569C416.481 154.145 418.082 158.647 420.486 162.587C420.656 162.866 420.568 163.231 420.289 163.399C420.193 163.458 420.087 163.485 419.982 163.485L419.983 163.489Z" fill="#9F5656"/>
<path d="M428.005 166.803C427.909 166.803 427.811 166.78 427.721 166.73C427.435 166.572 427.329 166.213 427.487 165.927C428.703 163.703 428.9 160.838 428.106 156.908C427.249 152.669 425.734 148.612 423.602 144.851C423.441 144.566 423.541 144.205 423.825 144.044C424.11 143.883 424.469 143.983 424.632 144.268C426.827 148.138 428.385 152.311 429.266 156.674C429.803 159.328 430.309 163.237 428.524 166.495C428.417 166.692 428.215 166.803 428.005 166.803Z" fill="#9F5656"/>
<path d="M364.094 185.872C363.826 185.872 363.581 185.688 363.519 185.414C363.445 185.096 363.642 184.777 363.96 184.704L432.815 168.712C433.139 168.633 433.452 168.835 433.525 169.153C433.598 169.472 433.4 169.79 433.083 169.864L364.229 185.856C364.184 185.867 364.139 185.872 364.094 185.872Z" fill="#9F5656"/>
<path d="M394.543 194.517C394.266 194.517 394.019 194.322 393.964 194.041C393.901 193.73 394.096 193.424 394.405 193.35C396.021 192.96 397.883 192.413 399.441 191.304C400.986 190.204 401.995 188.619 402.138 187.063C402.297 185.35 401.288 183.627 399.843 183.142C399.097 182.892 398.183 183.037 397.455 183.516C396.827 183.931 396.437 184.536 396.387 185.176C396.362 185.502 396.071 185.748 395.751 185.72C395.425 185.693 395.182 185.409 395.207 185.083C395.285 184.078 395.869 183.146 396.802 182.529C397.843 181.84 399.12 181.651 400.219 182.019C402.193 182.683 403.526 184.899 403.315 187.17C403.138 189.093 401.975 190.95 400.126 192.266C400.018 192.343 399.909 192.417 399.798 192.49L410.033 190.864C410.36 190.809 410.659 191.032 410.711 191.356C410.763 191.68 410.543 191.982 410.219 192.034L394.636 194.508C394.604 194.513 394.574 194.515 394.543 194.515V194.517Z" fill="#9F5656"/>
<path d="M360.451 240.738C359.298 240.738 358.103 240.466 356.994 239.924C356.7 239.781 356.579 239.426 356.722 239.131C356.867 238.838 357.221 238.718 357.514 238.859C359.349 239.757 361.439 239.79 362.973 238.945C364.621 238.038 365.529 235.99 365 234.379C364.469 232.764 362.741 231.59 359.865 230.887L359.083 230.701C356.919 230.195 354.683 229.671 353.15 227.983C351.426 226.081 351.252 222.96 352.751 220.878C354.252 218.796 357.266 217.975 359.616 219.002C359.915 219.134 360.051 219.483 359.92 219.782C359.788 220.08 359.441 220.214 359.14 220.086C357.28 219.268 354.897 219.921 353.712 221.568C352.526 223.216 352.665 225.684 354.028 227.187C355.311 228.601 357.366 229.083 359.353 229.549L360.145 229.737C363.445 230.544 365.456 231.98 366.123 234.009C366.835 236.171 365.701 238.795 363.542 239.981C362.628 240.484 361.56 240.734 360.451 240.734V240.738Z" fill="#9F5656"/>
<path d="M380.157 234.195C379.914 234.195 379.685 234.043 379.599 233.801C378.662 231.163 377.111 228.734 375.111 226.774C374.648 226.319 374.144 225.892 373.591 225.835C373.206 225.799 372.856 225.936 372.541 226.255C372.058 226.745 371.765 227.573 371.795 228.323C371.802 228.34 371.809 228.358 371.815 228.378L372.827 231.637C372.984 232.057 373.128 232.487 373.23 232.936C373.299 233.245 373.111 233.556 372.806 233.637C372.503 233.719 372.181 233.544 372.087 233.241L371.707 232.02C371.622 231.793 371.53 231.564 371.437 231.331C371.096 230.481 370.745 229.601 370.634 228.639C370.5 227.477 370.919 226.215 371.698 225.425C372.262 224.856 372.977 224.588 373.711 224.658C374.628 224.751 375.353 225.353 375.941 225.929C378.068 228.015 379.719 230.6 380.715 233.406C380.824 233.714 380.663 234.052 380.356 234.163C380.289 234.186 380.223 234.197 380.157 234.197V234.195Z" fill="#9F5656"/>
<path d="M382.717 224.085C382.488 224.085 382.271 223.953 382.175 223.731C382.044 223.432 382.18 223.084 382.479 222.951C385.478 221.636 388.641 220.724 391.88 220.236C392.205 220.195 392.504 220.411 392.552 220.733C392.601 221.057 392.379 221.357 392.055 221.406C388.92 221.878 385.857 222.762 382.953 224.033C382.876 224.067 382.795 224.083 382.717 224.083V224.085Z" fill="#9F5656"/>
<path d="M384.816 228.705C384.575 228.705 384.35 228.557 384.262 228.319C384.149 228.011 384.307 227.673 384.612 227.559L392.626 224.606C392.932 224.493 393.271 224.65 393.386 224.956C393.499 225.262 393.341 225.602 393.035 225.716L385.022 228.669C384.954 228.694 384.886 228.705 384.818 228.705H384.816Z" fill="#9F5656"/>
<path d="M463.954 201.396C463.77 201.396 463.586 201.308 463.471 201.145C458.781 194.501 457.933 185.427 461.309 178.027C461.445 177.73 461.801 177.599 462.092 177.734C462.391 177.87 462.521 178.22 462.385 178.517C459.182 185.541 459.987 194.155 464.437 200.462C464.625 200.729 464.562 201.099 464.296 201.287C464.192 201.36 464.072 201.394 463.954 201.394V201.396Z" fill="#9F5656"/>
<path d="M472.747 191.354C472.491 191.354 472.236 191.324 471.985 191.263C470.737 190.959 469.685 189.972 468.859 188.331C468.24 187.103 467.347 184.715 468.335 182.524C468.821 181.441 469.862 180.574 471.05 180.256C472.041 179.989 473.003 180.143 473.758 180.688C474.023 180.88 474.083 181.25 473.89 181.515C473.699 181.78 473.329 181.839 473.064 181.647C472.604 181.314 471.998 181.227 471.354 181.399C470.513 181.622 469.751 182.254 469.413 183.008C468.628 184.752 469.39 186.757 469.914 187.798C470.578 189.115 471.368 189.895 472.262 190.113C473.035 190.301 473.706 190 474.13 189.716C474.971 189.149 475.607 188.128 475.752 187.117C476.031 185.187 475.14 183.151 474.425 181.515C474.3 181.227 474.42 180.891 474.7 180.749C474.979 180.608 475.323 180.71 475.479 180.984C477.328 184.21 480.233 186.79 483.658 188.246C483.96 188.373 484.1 188.721 483.971 189.022C483.842 189.322 483.494 189.464 483.197 189.335C480.777 188.306 478.6 186.754 476.831 184.822C476.988 185.623 477.044 186.452 476.924 187.287C476.729 188.634 475.913 189.941 474.792 190.698C474.15 191.132 473.443 191.356 472.745 191.356L472.747 191.354Z" fill="#9F5656"/>
<path d="M275.275 287.019C275.128 287.019 274.982 286.966 274.867 286.856C274.631 286.631 274.62 286.257 274.846 286.019C277.675 283.045 277.996 278.403 278.072 274.284C278.105 272.54 278.123 270.792 278.139 269.045C278.221 260.558 278.307 251.781 280.253 243.376C282.925 231.83 289.166 222.633 297.377 218.143C297.664 217.986 298.023 218.091 298.181 218.377C298.338 218.664 298.232 219.023 297.946 219.181C290.031 223.509 284.004 232.426 281.408 243.642C279.491 251.922 279.407 260.633 279.324 269.056C279.307 270.807 279.29 272.558 279.258 274.307C279.178 278.648 278.829 283.553 275.706 286.835C275.59 286.957 275.434 287.019 275.277 287.019H275.275Z" fill="#1E0A15"/>
<path d="M302.377 239.856C302.226 239.856 302.076 239.799 301.96 239.684C301.727 239.455 301.726 239.08 301.954 238.847C306.308 234.441 309.73 229.036 311.849 223.216C312.644 221.034 313.552 217.834 312.272 215.265C312.127 214.972 312.245 214.618 312.538 214.471C312.833 214.326 313.186 214.444 313.332 214.738C314.815 217.716 313.831 221.234 312.962 223.62C310.785 229.6 307.269 235.153 302.797 239.679C302.681 239.795 302.529 239.854 302.377 239.854V239.856Z" fill="#1E0A15"/>
<path d="M292.77 269.181C292.727 269.181 292.686 269.176 292.641 269.167C292.323 269.097 292.121 268.78 292.19 268.462C293.355 263.191 293.707 257.68 294.047 252.351C294.179 250.294 294.31 248.236 294.487 246.186C295.045 239.697 296.215 231.356 300.354 224.398C300.52 224.117 300.883 224.024 301.166 224.192C301.447 224.359 301.538 224.724 301.372 225.005C297.356 231.755 296.213 239.924 295.666 246.288C295.49 248.331 295.36 250.379 295.227 252.428C294.884 257.802 294.528 263.359 293.346 268.718C293.285 268.993 293.04 269.183 292.768 269.183L292.77 269.181Z" fill="#1E0A15"/>
<path d="M283.197 278.058C283.154 278.058 283.113 278.053 283.07 278.044C282.751 277.974 282.549 277.657 282.619 277.339C284.469 268.932 285.628 260.313 286.062 251.715C286.078 251.387 286.368 251.133 286.683 251.153C287.01 251.169 287.261 251.448 287.245 251.774C286.806 260.434 285.638 269.122 283.775 277.591C283.714 277.867 283.469 278.056 283.197 278.056V278.058Z" fill="#1E0A15"/>
</g>
</svg>
