<svg width="700" height="400" viewBox="0 0 700 400" fill="none" xmlns="http://www.w3.org/2000/svg">
<mask id="mask0_760_5723" style="mask-type:alpha" maskUnits="userSpaceOnUse" x="0" y="0" width="700" height="400">
<rect width="700" height="400" rx="20" transform="matrix(-1 0 0 1 700 0)" fill="white"/>
</mask>
<g mask="url(#mask0_760_5723)">
<rect width="700" height="400" rx="20" transform="matrix(-1 0 0 1 700 0)" fill="white"/>
<path d="M859.81 328.575C859.376 327.465 858.299 326.8 857.171 326.833L849.527 263.607C849.67 263.576 849.812 263.536 849.952 263.482C851.366 262.926 852.062 261.331 851.508 259.917C850.955 258.503 849.357 257.807 847.943 258.36C847.717 258.449 847.511 258.566 847.323 258.703L823.871 232.214C824.574 231.462 824.828 230.35 824.427 229.329C823.873 227.914 822.276 227.218 820.862 227.772C820.237 228.018 819.752 228.468 819.452 229.014L783.777 213.604C783.968 213.018 783.965 212.365 783.724 211.745C783.46 211.075 782.962 210.569 782.363 210.277L814.642 124.3C815.193 124.453 815.798 124.435 816.372 124.211C817.786 123.658 818.482 122.06 817.928 120.646C817.375 119.231 815.778 118.536 814.363 119.089C813.952 119.252 813.604 119.503 813.327 119.81L724.34 53.4178C725.575 52.7778 726.151 51.2947 725.633 49.9717C725.079 48.5572 723.482 47.8613 722.068 48.4149C721.938 48.4657 721.819 48.5267 721.702 48.5953L698.145 15.2567C699.011 14.5152 699.359 13.2835 698.92 12.1636C698.699 11.5999 698.311 11.1529 697.836 10.8507L721.458 -35.0609L721.869 -34.4996L721.684 -35.5053L721.826 -35.7821L721.631 -35.7897L705.789 -121.866C705.876 -121.891 705.962 -121.919 706.048 -121.952C707.463 -122.506 708.159 -124.103 707.605 -125.518C707.051 -126.932 705.454 -127.628 704.04 -127.074C702.625 -126.521 701.929 -124.924 702.483 -123.509C702.689 -122.983 703.042 -122.557 703.473 -122.257L684.079 -88.0323C684.008 -88.0119 683.937 -87.9891 683.866 -87.9612C683.513 -87.824 683.206 -87.6183 682.949 -87.3694L632.139 -130.665C632.652 -131.397 632.802 -132.359 632.451 -133.253C631.898 -134.668 630.3 -135.363 628.886 -134.81C627.471 -134.256 626.775 -132.659 627.329 -131.244C627.547 -130.686 627.933 -130.239 628.403 -129.939L607.054 -88.8652C606.424 -89.1217 605.698 -89.1496 605.012 -88.8805C604.093 -88.5198 603.481 -87.7199 603.313 -86.8184L570.48 -89.7718C570.48 -90.1045 570.421 -90.4422 570.292 -90.7698C569.738 -92.1843 568.141 -92.8802 566.726 -92.3265C565.312 -91.7729 564.616 -90.1756 565.17 -88.7611C565.508 -87.9027 566.229 -87.311 567.059 -87.1003L561.427 -50.9886C561.038 -51.014 560.639 -50.9581 560.251 -50.8058C558.981 -50.308 558.293 -48.9722 558.565 -47.6796L522.379 -38.1921C521.813 -39.5863 520.231 -40.2694 518.826 -39.7183C517.412 -39.1647 516.716 -37.5674 517.27 -36.1529C517.366 -35.9065 517.496 -35.6831 517.651 -35.4824L497.614 -15.8597C496.867 -16.4921 495.806 -16.7054 494.831 -16.3219C494.577 -16.2229 494.348 -16.0883 494.145 -15.9283L464.933 -46.9838C465.594 -47.733 465.825 -48.8148 465.434 -49.8077C464.88 -51.2222 463.283 -51.9181 461.868 -51.3644C460.454 -50.8108 459.758 -49.2135 460.311 -47.799C460.352 -47.6949 460.4 -47.5984 460.451 -47.5019L408.051 -12.7361C407.317 -13.6478 406.05 -14.0211 404.905 -13.5716C403.49 -13.018 402.794 -11.4207 403.348 -10.0062C403.902 -8.59169 405.499 -7.89587 406.913 -8.44949C407.317 -8.60693 407.66 -8.85326 407.934 -9.15292L481.206 46.5459C480.828 47.2366 480.747 48.0823 481.057 48.8721C481.61 50.2866 483.207 50.9824 484.622 50.4288C486.036 49.8752 486.732 48.2778 486.179 46.8633C486.123 46.7236 486.054 46.5916 485.981 46.4646L511.086 26.0267C511.833 26.8241 513.019 27.134 514.098 26.7099C514.448 26.5727 514.756 26.3696 515.01 26.1232L574.683 74.069C574.205 74.7902 574.076 75.7247 574.414 76.5907C574.967 78.0052 576.564 78.701 577.979 78.1474C579.393 77.5938 580.089 75.9964 579.536 74.5819C579.409 74.2569 579.223 73.9725 579.002 73.7312L602.792 47.5083C603.529 48.062 604.527 48.2346 605.449 47.8715L605.22 47.9807L644.085 129.184C642.95 129.862 642.437 131.276 642.934 132.546C643.191 133.201 643.673 133.699 644.255 133.993L630.427 169.003C629.863 168.838 629.244 168.848 628.655 169.082C627.24 169.638 626.544 171.233 627.098 172.647C627.652 174.062 629.249 174.757 630.663 174.204C631.214 173.988 631.656 173.612 631.956 173.15L682.162 199.82C681.895 200.457 681.865 201.191 682.137 201.884C682.69 203.299 684.287 203.995 685.702 203.441C686.291 203.21 686.753 202.799 687.053 202.293L718.428 217.37C718.2 217.982 718.187 218.676 718.444 219.331C718.997 220.745 720.595 221.441 722.009 220.887C722.159 220.829 722.299 220.755 722.431 220.677L761.417 271.203C760.645 271.952 760.356 273.117 760.772 274.181C761.087 274.981 761.734 275.553 762.496 275.796L753.837 318.732C753.395 318.676 752.933 318.727 752.488 318.899C751.074 319.453 750.378 321.05 750.931 322.465C751.488 323.879 753.082 324.575 754.497 324.022C754.507 324.016 754.517 324.011 754.527 324.009L772.822 352.296L782.492 367.249C781.703 367.998 781.398 369.176 781.819 370.253C782.373 371.668 783.97 372.363 785.385 371.81C786.484 371.378 787.147 370.319 787.129 369.204L825.402 360.613C825.415 360.649 825.425 360.687 825.44 360.725C825.994 362.139 827.591 362.835 829.006 362.282C830.42 361.728 831.116 360.131 830.562 358.716C830.43 358.381 830.24 358.086 830.006 357.84L855.518 331.716C856.262 332.318 857.298 332.516 858.253 332.14C859.668 331.587 860.363 329.989 859.81 328.575ZM785.964 367C785.232 366.487 784.27 366.337 783.376 366.688C783.203 366.756 783.043 366.84 782.894 366.934L771.928 349.98L754.979 323.775C755.205 323.63 755.404 323.455 755.574 323.257L801.539 346.75L785.964 366.997V367ZM685.128 198.164L686.814 172.223L723.535 172.434C723.558 172.69 723.614 172.949 723.713 173.201C723.759 173.32 723.817 173.432 723.878 173.541L686.807 199.114C686.377 198.601 685.778 198.266 685.128 198.164ZM632.395 171.403C632.373 171.146 632.317 170.887 632.218 170.636C632.159 170.489 632.091 170.354 632.012 170.224L687.401 129.481C687.825 129.958 688.401 130.271 689.024 130.37L686.337 171.715L632.395 171.405V171.403ZM611.516 -86.0032L599.676 -55.7552L605.685 -83.5907C606.122 -83.5373 606.579 -83.5907 607.021 -83.7608C608.011 -84.1494 608.646 -85.0484 608.75 -86.0362L611.516 -86.0032ZM630.895 -129.69C631.248 -129.83 631.555 -130.033 631.811 -130.282L682.619 -86.9834C682.35 -86.6 682.182 -86.153 682.134 -85.6858L612.26 -86.5035L629.132 -129.611C629.693 -129.449 630.31 -129.462 630.897 -129.69H630.895ZM812.613 121.616C812.611 121.928 812.662 122.243 812.768 122.553L771.433 141.406C770.767 140.241 769.33 139.707 768.043 140.213L755.665 115.656L812.613 121.616ZM828.053 356.966C827.995 356.966 827.934 356.966 827.876 356.972L826.842 317.421C827.071 317.393 827.297 317.34 827.52 317.254C828.107 317.025 828.566 316.614 828.869 316.114L836.078 319.605L828.053 356.966ZM815.488 254.429L813.294 242.72C813.378 242.697 813.462 242.669 813.545 242.636C814.068 242.43 814.493 242.082 814.792 241.655L822.477 246.056L826.047 310.811L815.488 254.429ZM812.796 242.813L820.465 283.763L825.763 312.048C825.679 312.071 825.595 312.099 825.511 312.132C825.044 312.314 824.658 312.612 824.366 312.98L780.834 284.416L811.143 242.445C811.636 242.735 812.212 242.869 812.794 242.816L812.796 242.813ZM829.09 315.656C829.321 315.042 829.336 314.346 829.077 313.688C828.828 313.051 828.366 312.561 827.805 312.264L848.118 263.561L836.188 319.095L829.087 315.656H829.09ZM846.386 261.923C846.635 262.561 847.097 263.051 847.658 263.348L827.337 312.068C827.106 311.997 826.865 311.954 826.621 311.944L823.005 246.359L846.447 259.78C846.15 260.435 846.104 261.202 846.389 261.923H846.386ZM846.696 259.338L822.969 245.754L822.268 233.052C822.469 233.021 822.672 232.97 822.868 232.894C823.094 232.805 823.3 232.689 823.487 232.551L846.94 259.041C846.851 259.135 846.767 259.234 846.693 259.341L846.696 259.338ZM820.156 232.485C820.613 232.846 821.174 233.059 821.761 233.08L822.444 245.452L815.044 241.216C815.341 240.561 815.386 239.794 815.102 239.073C814.985 238.773 814.818 238.507 814.617 238.275L820.156 232.485ZM809.934 239.2L775.971 231.188L780.628 215.445C781.126 215.544 781.657 215.509 782.167 215.311C782.51 215.176 782.81 214.978 783.061 214.739L810.31 238.468C810.15 238.692 810.023 238.938 809.934 239.2ZM723.731 217.99C723.703 217.766 723.65 217.54 723.563 217.319C723.393 216.888 723.129 216.525 722.801 216.243L742.78 184.707L778.808 211.326C778.548 211.755 778.409 212.248 778.409 212.756L723.728 217.99H723.731ZM605.035 42.6224L609.944 13.761C610.365 13.8041 610.805 13.7533 611.226 13.5857C611.432 13.5045 611.62 13.4004 611.795 13.2785L619.487 20.5643L605.512 42.7747C605.357 42.7087 605.197 42.6579 605.032 42.6198L605.035 42.6224ZM497.19 -11.375C497.957 -11.8092 498.452 -12.5762 498.561 -13.4167L516.843 -12.7971L513.026 21.4023C512.714 21.4099 512.396 21.4683 512.089 21.5877L497.193 -11.375H497.19ZM513.532 21.4353L517.351 -12.7819L574.228 -10.8518C574.246 -10.57 574.304 -10.2855 574.414 -10.0087C574.426 -9.97826 574.441 -9.94778 574.454 -9.91731L515.342 22.5705C514.911 21.9559 514.253 21.5547 513.534 21.4353H513.532ZM766.483 143.776C766.529 143.895 766.585 144.004 766.646 144.113L728.383 170.435C727.883 169.833 727.147 169.475 726.369 169.447L724.424 135.144L766.306 142.544C766.273 142.95 766.326 143.369 766.483 143.776ZM725.862 169.478C725.661 169.508 725.463 169.559 725.265 169.635C725.062 169.714 724.876 169.818 724.704 169.938L691.078 129.864C691.281 129.714 691.459 129.542 691.609 129.349L723.906 135.055L725.859 169.478H725.862ZM691.906 128.884C692.063 128.567 692.162 128.221 692.19 127.866L718.075 114.709L720.582 113.434C721.062 114.198 721.88 114.665 722.758 114.716L723.883 134.534L691.911 128.884H691.906ZM720.348 112.974C720.348 112.974 720.348 112.977 720.348 112.979L717.852 114.249L692.173 127.302C692.145 127.083 692.091 126.863 692.008 126.647C691.868 126.291 691.662 125.981 691.413 125.725L700.774 103.806L720.249 111.265C720.105 111.811 720.122 112.408 720.346 112.974H720.348ZM766.394 142.044L724.394 134.623L723.264 114.696C723.482 114.668 723.7 114.615 723.914 114.531C724.358 114.356 724.731 114.079 725.018 113.736L766.626 141.462C766.527 141.645 766.45 141.84 766.394 142.044ZM722.801 53.7098L722.611 109.238C722.375 109.264 722.136 109.32 721.905 109.409C721.227 109.675 720.717 110.181 720.427 110.79L700.977 103.339L722.222 53.5905C722.41 53.6514 722.603 53.6895 722.801 53.7073V53.7098ZM700.502 103.159L677.87 94.4916C677.984 93.9761 677.951 93.425 677.743 92.8968C677.662 92.6911 677.558 92.5006 677.436 92.3279L704.009 68.444L721.199 52.9937C721.369 53.1511 721.555 53.2857 721.755 53.3924L700.502 103.159ZM684.089 -82.7628L678.965 -58.0332L675.795 -42.7479C675.364 -42.7962 674.917 -42.7454 674.482 -42.5752C673.632 -42.2426 673.045 -41.5315 672.829 -40.7113L659.398 -42.9359L683.701 -82.9076C683.828 -82.8491 683.957 -82.8009 684.089 -82.7603V-82.7628ZM637.205 33.8433L640.722 -9.90715C641.045 -9.91223 641.375 -9.96809 641.692 -10.0951C642.241 -10.3109 642.68 -10.6842 642.983 -11.1439L657.257 -4.56659L637.738 33.9931C637.566 33.9246 637.385 33.8738 637.203 33.8408L637.205 33.8433ZM643.224 -11.5908C643.49 -12.2283 643.523 -12.9647 643.249 -13.6605C643.181 -13.8358 643.097 -13.9983 642.998 -14.1507L673.49 -38.1235C673.649 -37.9559 673.83 -37.8111 674.023 -37.6893L657.486 -5.01862L643.221 -11.5908H643.224ZM672.745 -40.211C672.717 -39.8148 672.771 -39.406 672.926 -39.0098C672.994 -38.8371 673.078 -38.672 673.175 -38.5222L662.28 -29.9641L642.673 -14.562C642.566 -14.6738 642.449 -14.7728 642.327 -14.8643L659.113 -42.4711L672.748 -40.2135L672.745 -40.211ZM641.893 -15.1258C641.225 -15.4509 640.43 -15.5093 639.684 -15.2172C639.382 -15.0979 639.115 -14.9303 638.884 -14.7297L600.911 -51.0115C601.147 -51.3111 601.317 -51.654 601.413 -52.0222L658.57 -42.5575L641.891 -15.1258H641.893ZM599.763 -50.1582C600.065 -50.2775 600.332 -50.4451 600.563 -50.6458L638.536 -14.364C638.19 -13.9297 637.985 -13.3964 637.947 -12.8403L606.333 -12.0251L599.494 -50.0693C599.585 -50.0947 599.674 -50.1252 599.763 -50.1607V-50.1582ZM637.959 -12.3324C637.987 -12.1038 638.041 -11.8753 638.127 -11.6518C638.152 -11.5832 638.185 -11.5197 638.216 -11.4562L612.305 9.23811C611.731 8.57024 610.865 8.21216 609.984 8.28581L606.424 -11.5197L637.959 -12.3324ZM612.78 10.0203C612.729 9.89078 612.666 9.76888 612.6 9.65205L638.483 -11.0195C638.637 -10.8112 638.818 -10.6309 639.018 -10.476L619.764 20.1275L612.186 12.9509C612.92 12.2017 613.192 11.0615 612.783 10.0228L612.78 10.0203ZM639.448 -10.2068C639.646 -10.1052 639.856 -10.0265 640.075 -9.97572L636.69 33.8027C636.37 33.8078 636.045 33.8662 635.727 33.9906C635.422 34.11 635.153 34.2801 634.92 34.4858L620.137 20.4856L639.448 -10.2043V-10.2068ZM674.18 91.3401C674.142 91.3553 674.107 91.3731 674.069 91.3909L653.001 60.1906L638.477 38.681C638.929 38.3103 639.244 37.8075 639.392 37.2539L687.734 45.3295L675.813 91.2233C675.287 91.0988 674.721 91.1268 674.18 91.3401ZM639.191 35.3137C638.96 34.8515 638.612 34.4833 638.198 34.2242L657.724 -4.35326L693.76 12.25C693.574 12.7757 693.546 13.3597 693.709 13.9286L639.191 35.3137ZM693.971 11.7878L657.953 -4.80785L674.48 -37.4607C675.031 -37.2423 675.651 -37.1991 676.252 -37.3744L695.113 10.7085C694.621 10.9548 694.23 11.3358 693.971 11.7878ZM678.05 -41.0211C677.73 -41.8337 677.068 -42.4076 676.293 -42.6463L678.604 -53.7897L684.59 -82.6638C684.701 -82.6536 684.816 -82.6485 684.93 -82.6511L690.235 -37.1255L676.956 -37.6893C678.053 -38.38 678.541 -39.7691 678.05 -41.0211ZM682.418 -84.1392C682.624 -83.7405 682.916 -83.4129 683.261 -83.164L658.857 -43.0247L601.5 -52.5225C601.523 -52.8297 601.495 -53.1421 601.411 -53.4519L682.418 -84.1392ZM598.996 -49.9804L605.822 -12.0099L579.703 -11.3369C579.675 -11.5654 579.622 -11.794 579.536 -12.0175C579.317 -12.5762 578.934 -13.0206 578.467 -13.3202L597.719 -50.176C598.117 -50.0134 598.554 -49.9423 598.996 -49.9804ZM579.716 -10.829L605.911 -11.5045L609.484 8.37469C609.393 8.40009 609.304 8.43056 609.215 8.46611C608.753 8.64642 608.369 8.94099 608.077 9.30415L579.394 -9.70907C579.579 -10.0519 579.688 -10.4328 579.713 -10.8264L579.716 -10.829ZM605.962 43.0185L619.863 20.9223L634.572 34.854C634.102 35.4534 633.891 36.2304 634.021 37.005L606.934 44.1511C606.713 43.6763 606.373 43.2903 605.964 43.0185H605.962ZM607.104 44.6311L634.153 37.4951C634.16 37.5154 634.165 37.5357 634.173 37.5561C634.727 38.9706 636.324 39.6664 637.738 39.1128C637.848 39.0696 637.954 39.0188 638.056 38.963L670.541 87.0763L673.624 91.6397C673.469 91.7464 673.327 91.8683 673.2 92.0004L606.904 46.5307C607.188 45.9542 607.275 45.2838 607.107 44.6286L607.104 44.6311ZM677.715 94.9766L700.302 103.629L691.009 125.39C690.316 124.915 689.42 124.767 688.572 125.052L676.664 96.221C677.141 95.9163 677.499 95.4795 677.713 94.9792L677.715 94.9766ZM728.833 171.195C728.787 171.075 728.731 170.966 728.67 170.857L766.933 144.535C767.062 144.69 767.207 144.829 767.365 144.949L742.64 183.976L728.622 173.62C729.049 172.911 729.155 172.022 728.83 171.192L728.833 171.195ZM780.153 210.191C779.737 210.354 779.387 210.61 779.107 210.922L743.049 184.283L767.794 145.223C768.241 145.452 768.749 145.558 769.262 145.518L780.44 210.097C780.344 210.123 780.247 210.153 780.153 210.191ZM767.586 140.444C767.324 140.609 767.095 140.812 766.907 141.046L725.308 113.325C725.45 113.073 725.549 112.799 725.608 112.512L755.063 115.595L767.588 140.444H767.586ZM725.658 112.007C725.663 111.661 725.603 111.311 725.47 110.968C725.072 109.952 724.137 109.31 723.119 109.231L723.309 53.7123C723.482 53.6971 723.655 53.6666 723.827 53.6158L754.792 115.051L725.661 112.001L725.658 112.007ZM720.503 51.9804C720.595 52.214 720.717 52.4248 720.859 52.6153L677.108 91.9394C676.87 91.7058 676.593 91.5179 676.293 91.3858L688.234 45.4133L720.323 50.7741C720.292 51.1728 720.348 51.5817 720.503 51.9804ZM687.861 44.8368L639.475 36.7536C639.498 36.4361 639.47 36.1111 639.376 35.7886L693.894 14.4035C694.219 15.051 694.773 15.5183 695.418 15.7519L687.863 44.8368H687.861ZM695.586 10.5257L676.872 -37.1814L690.293 -36.61L695.781 10.4799C695.715 10.4926 695.652 10.5079 695.586 10.5257ZM685.433 -82.7095C685.58 -82.7399 685.725 -82.7806 685.87 -82.8364C686.014 -82.8923 686.149 -82.9634 686.278 -83.0396L720.894 -35.8202L690.748 -37.1001L685.433 -82.7069V-82.7095ZM682.121 -85.1753C682.134 -85.0255 682.159 -84.8731 682.197 -84.7233L682.106 -84.5633L601.228 -53.9243C600.956 -54.4829 600.515 -54.9096 599.991 -55.1737L612.054 -85.9956L682.119 -85.1779L682.121 -85.1753ZM570.429 -89.2665L603.262 -86.313C603.262 -85.9803 603.321 -85.6426 603.45 -85.315C603.531 -85.1042 603.641 -84.9138 603.765 -84.736L585.397 -69.0647L569.68 -87.8266C570.071 -88.2202 570.33 -88.723 570.429 -89.2639V-89.2665ZM604.095 -84.35C604.405 -84.0478 604.781 -83.8243 605.187 -83.6973L599.09 -55.4505C598.653 -55.5038 598.196 -55.4505 597.754 -55.2803C597.551 -55.2016 597.366 -55.0975 597.195 -54.9807L585.722 -68.6762L604.095 -84.35ZM596.807 -54.6556C596.279 -54.1223 595.989 -53.3935 596.012 -52.6393L563.964 -48.7107C563.933 -48.891 563.882 -49.0738 563.814 -49.2516C563.743 -49.4344 563.651 -49.6046 563.547 -49.762L585.336 -68.3511L596.807 -54.6582V-54.6556ZM564.002 -48.2028L591.73 -51.6032L562.724 -45.9223C563.514 -46.4226 563.986 -47.2886 564.002 -48.2028ZM596.121 -51.946C596.144 -51.8698 596.169 -51.7936 596.197 -51.7174C596.416 -51.1587 596.799 -50.7143 597.266 -50.4147L578.015 -13.559C577.382 -13.818 576.653 -13.8459 575.968 -13.5767C575.363 -13.3405 574.891 -12.9114 574.591 -12.3882L522.453 -36.3408C522.572 -36.7217 522.608 -37.1331 522.552 -37.542L596.124 -51.9485L596.121 -51.946ZM574.381 -11.926C574.317 -11.7432 574.269 -11.5553 574.243 -11.3597L517.407 -13.2872L519.764 -34.4108C520.119 -34.4031 520.48 -34.4615 520.833 -34.6012C521.47 -34.8501 521.958 -35.3123 522.255 -35.871L574.378 -11.926H574.381ZM519.261 -34.4717L516.899 -13.3075L498.577 -13.9297C498.559 -14.2116 498.5 -14.496 498.391 -14.7728C498.284 -15.0446 498.14 -15.2883 497.965 -15.5042L517.994 -35.1167C518.354 -34.7942 518.791 -34.5733 519.261 -34.4743V-34.4717ZM493.269 -12.7615C493.81 -11.3826 495.339 -10.6893 496.725 -11.1693L511.561 21.6588L464.949 -46.2245L493.767 -15.588C493.106 -14.8389 492.875 -13.757 493.266 -12.7641L493.269 -12.7615ZM463.872 -46.2499C463.989 -46.2956 464.1 -46.3515 464.207 -46.4124L511.251 22.1007C510.944 22.3775 510.705 22.7178 510.55 23.0936L476.105 11.7776L463.689 -46.1915C463.75 -46.2118 463.811 -46.2296 463.872 -46.2524V-46.2499ZM515.652 23.1419C515.634 23.0962 515.611 23.053 515.591 23.0098L574.695 -9.4729C575.16 -8.78216 575.912 -8.35297 576.719 -8.27679V15.2923L515.769 23.5253C515.738 23.3958 515.703 23.2688 515.652 23.1419ZM577.227 -8.27679C577.479 -8.29964 577.73 -8.35551 577.979 -8.45456C578.441 -8.63486 578.825 -8.92944 579.117 -9.29259L607.8 9.72063C607.569 10.1498 607.455 10.6399 607.475 11.1351L577.23 15.2212V-8.27934L577.227 -8.27679ZM607.544 11.643C607.574 11.7725 607.61 11.9021 607.661 12.029C607.882 12.5928 608.27 13.0397 608.742 13.3419L578.002 73.0354C577.756 72.9363 577.497 72.8729 577.227 72.8475V15.7392L607.544 11.6456V11.643ZM578.454 73.2665L609.195 13.5756C609.276 13.6086 609.36 13.6391 609.446 13.6619L604.532 42.5589C604.169 42.5462 603.798 42.6071 603.44 42.7468C602.026 43.3029 601.33 44.8977 601.883 46.3122C602.01 46.6373 602.196 46.9217 602.417 47.163L578.627 73.3833C578.571 73.3401 578.512 73.302 578.454 73.2639V73.2665ZM606.637 46.9624L672.885 92.3965C672.415 93.1152 672.288 94.0446 672.626 94.9055C672.778 95.2915 673.01 95.6242 673.294 95.8934L646.992 129.234C646.289 128.777 645.387 128.65 644.544 128.963L605.682 47.7648C606.071 47.5693 606.393 47.2925 606.64 46.9624H606.637ZM648.054 130.535C647.902 130.149 647.67 129.816 647.389 129.547L673.111 96.9397L653.407 130.583L648.201 131.043C648.171 130.872 648.122 130.7 648.056 130.532L648.054 130.535ZM674.023 96.3911C674.683 96.6984 675.46 96.7492 676.192 96.4622C676.199 96.4597 676.207 96.4546 676.217 96.4521L688.112 125.255C687.233 125.745 686.71 126.667 686.705 127.642L654.027 130.532L674.023 96.3937V96.3911ZM686.748 128.148C686.779 128.318 686.827 128.49 686.893 128.658C686.951 128.803 687.02 128.94 687.099 129.069L631.71 169.813C631.573 169.661 631.423 169.524 631.258 169.404L653.712 131.068L686.748 128.148ZM689.529 130.4C689.839 130.392 690.151 130.334 690.458 130.215C690.522 130.189 690.583 130.159 690.644 130.131L724.32 170.263C723.876 170.712 723.601 171.301 723.538 171.926L686.845 171.715L689.529 130.4ZM726.22 174.948C726.57 174.956 726.931 174.895 727.279 174.757C727.695 174.595 728.046 174.338 728.325 174.026L742.371 184.402L722.388 215.948C722.156 215.814 721.908 215.715 721.649 215.651L726.222 174.945L726.22 174.948ZM723.746 218.5L778.46 213.264C778.49 213.429 778.536 213.594 778.599 213.754C778.889 214.49 779.46 215.029 780.141 215.301L775.476 231.071L723.7 218.858C723.723 218.739 723.739 218.62 723.746 218.498V218.5ZM775.826 231.678L809.817 239.695C809.754 240.15 809.8 240.624 809.98 241.082C810.023 241.191 810.074 241.292 810.127 241.394L774.442 265.387L765.455 271.431C765.148 271.058 764.749 270.778 764.31 270.611L775.826 231.68V231.678ZM765.894 272.173C765.851 272.061 765.798 271.954 765.739 271.85L810.409 241.815C810.508 241.937 810.615 242.047 810.732 242.148L780.41 284.136L765.739 274.509C766.123 273.816 766.207 272.965 765.894 272.173ZM780.537 284.827L824.089 313.404C823.879 313.803 823.767 314.25 823.769 314.709L756.239 321.363C756.229 321.06 756.17 320.756 756.054 320.459C755.917 320.108 755.713 319.801 755.467 319.547L780.539 284.829L780.537 284.827ZM755.871 322.838C756.041 322.541 756.158 322.213 756.209 321.873L823.818 315.212C823.848 315.375 823.894 315.537 823.957 315.695C824.115 316.093 824.353 316.431 824.648 316.705L801.853 346.339L755.871 322.836V322.838ZM825.049 317.018C825.435 317.261 825.875 317.406 826.334 317.437L827.37 357.043C827.243 357.073 827.119 357.109 826.995 357.157C826.347 357.411 825.852 357.883 825.557 358.457L802.313 346.577L825.049 317.018ZM828.561 357.027L836.551 319.836L854.675 328.615C854.444 329.23 854.429 329.926 854.688 330.584C854.802 330.876 854.962 331.135 855.155 331.361L829.625 357.502C829.308 357.271 828.947 357.109 828.561 357.027ZM856.669 326.894C856.526 326.924 856.384 326.965 856.244 327.018C855.658 327.247 855.198 327.658 854.896 328.158L836.66 319.326L848.621 263.653C848.753 263.668 848.89 263.673 849.025 263.668L856.669 326.894ZM819.249 229.481C819.059 230.068 819.061 230.72 819.302 231.34C819.419 231.64 819.587 231.906 819.787 232.137L814.249 237.927C813.507 237.338 812.481 237.148 811.537 237.519C811.194 237.653 810.894 237.851 810.643 238.09L783.394 214.361C783.46 214.27 783.521 214.173 783.577 214.074L819.252 229.484L819.249 229.481ZM781.885 210.102C781.583 210.018 781.266 209.985 780.943 210.011L769.764 145.431C769.861 145.406 769.957 145.375 770.051 145.337C771.433 144.797 772.126 143.26 771.641 141.871L812.977 123.018C813.258 123.51 813.675 123.889 814.162 124.125L781.883 210.102H781.885ZM813.017 120.219C812.849 120.494 812.73 120.798 812.667 121.116L755.393 115.12L724.785 54.3878L813.02 120.219H813.017ZM721.28 48.8898C720.851 49.2555 720.551 49.7431 720.409 50.2764L688.366 44.9231L695.911 15.8815C696.383 15.9576 696.881 15.917 697.358 15.7291C697.488 15.6783 697.607 15.6173 697.724 15.5488L721.28 48.8873V48.8898ZM697.379 10.6196C697.036 10.4825 696.665 10.4139 696.289 10.4215L690.811 -36.5871L721.009 -35.3047L697.381 10.6196H697.379ZM703.913 -122.003C704.337 -121.813 704.812 -121.729 705.287 -121.772L720.963 -36.5871L686.687 -83.3393C687.525 -84.0833 687.858 -85.2972 687.426 -86.4019C686.982 -87.5345 685.872 -88.2024 684.722 -88.144L703.91 -122.006L703.913 -122.003ZM627.913 -127.895L611.714 -86.506L608.758 -86.5416C608.737 -86.8031 608.679 -87.0672 608.577 -87.3237C608.359 -87.8824 607.973 -88.3294 607.503 -88.6316L627.913 -127.897V-127.895ZM567.559 -87.019C567.948 -86.9936 568.349 -87.0495 568.735 -87.2018C568.938 -87.2806 569.121 -87.3847 569.294 -87.5015L585.013 -68.7346L563.232 -50.1531C562.874 -50.5239 562.42 -50.7804 561.927 -50.9073L567.559 -87.019ZM558.714 -47.1921C559.085 -46.2956 559.877 -45.6963 560.771 -45.5363L527.687 -39.058L558.712 -47.1921H558.714ZM460.728 -47.0778C461.32 -46.3439 462.254 -45.9629 463.196 -46.0747L475.551 11.6024L408.592 -10.3947C408.711 -10.9153 408.681 -11.4766 408.473 -12.0124C408.432 -12.1165 408.384 -12.2156 408.333 -12.3095L460.73 -47.0778H460.728ZM408.242 -9.5567C408.313 -9.67097 408.379 -9.79034 408.432 -9.91477L475.67 12.1763L482.755 45.2609C482.707 45.2761 482.659 45.2914 482.611 45.3092C482.156 45.4869 481.778 45.7739 481.488 46.1269L408.242 -9.5567ZM485.684 46.0558C485.082 45.3701 484.17 45.0222 483.253 45.1466L476.231 12.3617L510.403 23.5888C510.296 24.0967 510.329 24.6402 510.532 25.1582C510.599 25.3258 510.68 25.4833 510.774 25.6306L485.684 46.0558ZM515.34 25.7398C515.688 25.2471 515.868 24.6478 515.84 24.0358L576.722 15.8129V72.8525C576.471 72.8754 576.219 72.9313 575.97 73.0303C575.592 73.1801 575.267 73.4036 575 73.6779L515.34 25.7423V25.7398ZM646.5 134.105C647.579 133.681 648.239 132.65 648.244 131.556L653.092 131.126L631.105 168.665L644.727 134.181C645.291 134.346 645.911 134.336 646.502 134.103L646.5 134.105ZM632.192 172.703C632.296 172.452 632.365 172.185 632.39 171.913L686.304 172.223L684.62 198.134C684.31 198.141 683.995 198.2 683.691 198.319C683.14 198.535 682.698 198.911 682.398 199.373L632.192 172.703ZM687.274 201.836C687.502 201.224 687.515 200.531 687.259 199.876C687.213 199.756 687.155 199.645 687.094 199.535L724.165 173.963C724.566 174.443 725.115 174.765 725.717 174.892L721.146 215.582C720.767 215.562 720.376 215.618 720 215.768C719.411 215.999 718.949 216.41 718.649 216.916L687.274 201.839V201.836ZM722.84 220.374C723.157 220.09 723.401 219.737 723.556 219.349L775.331 231.561L763.819 270.471C763.334 270.382 762.819 270.42 762.326 270.616C762.141 270.69 761.971 270.778 761.811 270.885L722.834 220.374H722.84ZM762.992 275.908C763.433 275.964 763.896 275.913 764.34 275.741C764.792 275.563 765.168 275.281 765.455 274.931L780.113 284.55L755.076 319.217C754.847 319.057 754.596 318.93 754.332 318.846L762.992 275.908ZM787.074 368.696C787.043 368.544 787 368.394 786.942 368.244C786.804 367.891 786.601 367.584 786.352 367.328L801.998 346.986L825.367 358.929C825.252 359.308 825.219 359.714 825.28 360.118L787.074 368.694V368.696Z" fill="#4F2B2B"/>
<path d="M-176.652 71.4252C-176.218 72.5349 -175.141 73.2003 -174.014 73.1672L-166.37 136.393C-166.512 136.424 -166.654 136.464 -166.794 136.518C-168.208 137.074 -168.904 138.669 -168.351 140.083C-167.797 141.497 -166.2 142.193 -164.785 141.64C-164.559 141.551 -164.353 141.434 -164.165 141.297L-140.713 167.786C-141.417 168.538 -141.671 169.65 -141.269 170.671C-140.716 172.086 -139.118 172.782 -137.704 172.228C-137.079 171.982 -136.594 171.532 -136.294 170.986L-100.62 186.396C-100.81 186.982 -100.808 187.635 -100.566 188.255C-100.302 188.925 -99.8044 189.431 -99.2051 189.723L-131.485 275.7C-132.036 275.547 -132.64 275.565 -133.214 275.789C-134.629 276.342 -135.324 277.94 -134.771 279.354C-134.217 280.769 -132.62 281.464 -131.205 280.911C-130.794 280.748 -130.446 280.497 -130.169 280.19L-41.1827 346.582C-42.4169 347.222 -42.9933 348.705 -42.4753 350.028C-41.9217 351.443 -40.3243 352.139 -38.9099 351.585C-38.7803 351.534 -38.6609 351.473 -38.5441 351.405L-14.9878 384.743C-15.8537 385.485 -16.2017 386.716 -15.7623 387.836C-15.5414 388.4 -15.1528 388.847 -14.6779 389.149L-38.3004 435.061L-38.7118 434.5L-38.5264 435.505L-38.6686 435.782L-38.473 435.79L-22.6317 521.866C-22.718 521.891 -22.8043 521.919 -22.8907 521.952C-24.3052 522.506 -25.001 524.103 -24.4474 525.518C-23.8938 526.932 -22.2964 527.628 -20.882 527.074C-19.4674 526.521 -18.7716 524.924 -19.3252 523.509C-19.5309 522.983 -19.8839 522.557 -20.3156 522.257L-0.921478 488.032C-0.850372 488.012 -0.779266 487.989 -0.70816 487.961C-0.355164 487.824 -0.0479126 487.618 0.208588 487.369L51.0188 530.665C50.5059 531.397 50.356 532.359 50.7065 533.253C51.2601 534.668 52.8574 535.363 54.2719 534.81C55.6864 534.256 56.3823 532.659 55.8287 531.244C55.6103 530.686 55.2243 530.239 54.7545 529.939L76.104 488.865C76.7338 489.122 77.4601 489.15 78.1458 488.88C79.0651 488.52 79.6771 487.72 79.8447 486.818L112.678 489.772C112.678 490.104 112.736 490.442 112.866 490.77C113.419 492.184 115.017 492.88 116.431 492.327C117.846 491.773 118.542 490.176 117.988 488.761C117.65 487.903 116.929 487.311 116.099 487.1L121.731 450.989C122.12 451.014 122.518 450.958 122.907 450.806C124.177 450.308 124.865 448.972 124.593 447.68L160.778 438.192C161.345 439.586 162.927 440.269 164.331 439.718C165.746 439.165 166.442 437.567 165.888 436.153C165.791 435.907 165.662 435.683 165.507 435.482L185.544 415.86C186.29 416.492 187.352 416.705 188.327 416.322C188.581 416.223 188.809 416.088 189.013 415.928L218.224 446.984C217.564 447.733 217.333 448.815 217.724 449.808C218.278 451.222 219.875 451.918 221.29 451.364C222.704 450.811 223.4 449.213 222.846 447.799C222.806 447.695 222.757 447.598 222.707 447.502L275.107 412.736C275.841 413.648 277.108 414.021 278.253 413.572C279.668 413.018 280.363 411.421 279.81 410.006C279.256 408.592 277.659 407.896 276.244 408.449C275.841 408.607 275.498 408.853 275.223 409.153L201.951 353.454C202.33 352.763 202.411 351.918 202.101 351.128C201.548 349.713 199.95 349.018 198.536 349.571C197.121 350.125 196.425 351.722 196.979 353.137C197.035 353.276 197.103 353.408 197.177 353.535L172.072 373.973C171.325 373.176 170.139 372.866 169.06 373.29C168.709 373.427 168.402 373.63 168.148 373.877L108.475 325.931C108.952 325.21 109.082 324.275 108.744 323.409C108.191 321.995 106.593 321.299 105.179 321.853C103.764 322.406 103.068 324.004 103.622 325.418C103.749 325.743 103.934 326.028 104.155 326.269L80.3653 352.492C79.6288 351.938 78.6308 351.765 77.709 352.129L77.9375 352.019L39.0731 270.816C40.2082 270.138 40.7212 268.724 40.2234 267.454C39.9669 266.799 39.4844 266.301 38.9029 266.007L52.7305 230.997C53.2942 231.162 53.9139 231.152 54.503 230.918C55.9175 230.362 56.6134 228.767 56.0597 227.353C55.5061 225.938 53.9088 225.243 52.4943 225.796C51.9432 226.012 51.5013 226.388 51.2017 226.85L0.995819 200.18C1.26248 199.543 1.29294 198.809 1.02121 198.116C0.46759 196.701 -1.12973 196.005 -2.54422 196.559C-3.13339 196.79 -3.59558 197.201 -3.89526 197.707L-35.2707 182.63C-35.0422 182.018 -35.0295 181.324 -35.286 180.669C-35.8396 179.255 -37.4369 178.559 -38.8514 179.113C-39.0013 179.171 -39.1409 179.245 -39.273 179.323L-78.2593 128.797C-77.4873 128.048 -77.1978 126.883 -77.6143 125.819C-77.9292 125.019 -78.5768 124.447 -79.3386 124.204L-70.679 81.2682C-70.2371 81.3241 -69.7749 81.2733 -69.3305 81.1006C-67.916 80.547 -67.2202 78.9497 -67.7737 77.5352C-68.3299 76.1207 -69.9247 75.4248 -71.3392 75.9785C-71.3494 75.9836 -71.3595 75.9886 -71.3697 75.9912L-89.6642 47.7037L-99.3346 32.7511C-98.5449 32.002 -98.2401 30.8237 -98.6617 29.7469C-99.2153 28.3324 -100.813 27.6366 -102.227 28.1902C-103.327 28.6219 -103.99 29.6809 -103.972 30.7957L-142.245 39.3868C-142.257 39.3513 -142.267 39.3132 -142.283 39.2751C-142.836 37.8606 -144.434 37.1648 -145.848 37.7184C-147.263 38.272 -147.958 39.8694 -147.405 41.2838C-147.273 41.619 -147.082 41.9137 -146.849 42.16L-172.36 68.2838C-173.105 67.6819 -174.141 67.4839 -175.095 67.8597C-176.51 68.4133 -177.206 70.0107 -176.652 71.4252ZM-102.806 33C-102.075 33.513 -101.112 33.6628 -100.218 33.3123C-100.046 33.2438 -99.8857 33.16 -99.7359 33.066L-88.7703 50.0197L-71.8217 76.2248C-72.0477 76.3695 -72.2458 76.5448 -72.416 76.7429L-118.381 53.25L-102.806 33.0025V33ZM-1.97028 201.836L-3.65652 227.777L-40.3777 227.566C-40.4005 227.31 -40.4564 227.051 -40.5554 226.799C-40.6011 226.68 -40.6595 226.568 -40.7205 226.459L-3.6489 200.886C-3.21973 201.399 -2.62039 201.734 -1.97028 201.836ZM50.7624 228.597C50.7852 228.854 50.8411 229.113 50.9401 229.364C50.9985 229.511 51.0671 229.646 51.1458 229.776L-4.24316 270.519C-4.66727 270.042 -5.24371 269.729 -5.86591 269.63L-3.17911 228.285L50.7624 228.595V228.597ZM71.6421 486.003L83.4812 455.755L77.4728 483.591C77.036 483.537 76.5789 483.591 76.137 483.761C75.1466 484.149 74.5117 485.048 74.4076 486.036L71.6421 486.003ZM52.2632 529.69C51.9102 529.83 51.6029 530.033 51.3464 530.282L0.538727 486.983C0.807922 486.6 0.975494 486.153 1.02374 485.686L70.898 486.503L54.0256 529.611C53.4644 529.449 52.8473 529.462 52.2607 529.69H52.2632ZM-129.456 278.384C-129.453 278.072 -129.504 277.757 -129.611 277.447L-88.2751 258.594C-87.6098 259.759 -86.1724 260.293 -84.8849 259.787L-72.5074 284.344L-129.456 278.384ZM-144.896 43.0336C-144.837 43.0336 -144.776 43.0336 -144.718 43.0285L-143.684 82.5786C-143.913 82.6065 -144.139 82.6599 -144.362 82.7462C-144.949 82.9748 -145.409 83.3862 -145.711 83.8864L-152.921 80.3947L-144.896 43.0336ZM-132.33 145.571L-130.136 157.28C-130.22 157.303 -130.304 157.331 -130.388 157.364C-130.911 157.57 -131.335 157.918 -131.635 158.345L-139.319 153.944L-142.89 89.1889L-132.33 145.571ZM-129.638 157.187L-137.308 116.237L-142.605 87.9522C-142.521 87.9294 -142.438 87.9014 -142.354 87.8684C-141.886 87.6855 -141.5 87.3884 -141.208 87.0202L-97.6763 115.584L-127.985 157.555C-128.478 157.265 -129.054 157.131 -129.636 157.184L-129.638 157.187ZM-145.932 84.3436C-146.163 84.9581 -146.178 85.654 -145.919 86.3117C-145.67 86.9491 -145.208 87.4392 -144.647 87.7364L-164.96 136.439L-153.03 80.9051L-145.929 84.3436H-145.932ZM-163.228 138.077C-163.477 137.439 -163.939 136.949 -164.501 136.652L-144.18 87.9319C-143.949 88.003 -143.707 88.0462 -143.464 88.0563L-139.847 153.641L-163.289 140.22C-162.992 139.565 -162.947 138.798 -163.231 138.077H-163.228ZM-163.538 140.662L-139.812 154.246L-139.111 166.948C-139.311 166.979 -139.515 167.03 -139.71 167.106C-139.936 167.195 -140.142 167.311 -140.33 167.449L-163.782 140.959C-163.693 140.865 -163.609 140.766 -163.536 140.659L-163.538 140.662ZM-136.998 167.515C-137.455 167.154 -138.016 166.941 -138.603 166.92L-139.286 154.548L-131.886 158.784C-132.183 159.439 -132.229 160.206 -131.944 160.927C-131.828 161.227 -131.66 161.493 -131.459 161.725L-136.998 167.515ZM-126.776 160.8L-92.8132 168.812L-97.4706 184.555C-97.9684 184.456 -98.4991 184.491 -99.0096 184.689C-99.3524 184.824 -99.6521 185.022 -99.9035 185.261L-127.152 161.532C-126.992 161.308 -126.865 161.062 -126.776 160.8ZM-40.5732 182.01C-40.5453 182.234 -40.4919 182.46 -40.4056 182.681C-40.2354 183.112 -39.9713 183.475 -39.6437 183.757L-59.622 215.293L-95.6498 188.674C-95.3908 188.245 -95.2511 187.752 -95.2511 187.244L-40.5706 182.01H-40.5732ZM78.1229 357.378L73.2141 386.239C72.7925 386.196 72.3532 386.247 71.9316 386.414C71.7259 386.496 71.538 386.6 71.3628 386.722L63.6706 379.436L77.6455 357.225C77.8004 357.291 77.9604 357.342 78.1254 357.38L78.1229 357.378ZM185.968 411.375C185.201 411.809 184.706 412.576 184.596 413.417L166.315 412.797L170.131 378.598C170.444 378.59 170.761 378.532 171.069 378.412L185.965 411.375H185.968ZM169.626 378.565L165.807 412.782L108.93 410.852C108.912 410.57 108.853 410.286 108.744 410.009C108.731 409.978 108.716 409.948 108.704 409.917L167.815 377.43C168.247 378.044 168.905 378.445 169.624 378.565H169.626ZM-83.3256 256.224C-83.3713 256.105 -83.4272 255.996 -83.4882 255.887L-45.2256 229.565C-44.7253 230.167 -43.9888 230.525 -43.2117 230.553L-41.2665 264.856L-83.1479 257.456C-83.1149 257.05 -83.1682 256.631 -83.3256 256.224ZM-42.7038 230.522C-42.5032 230.492 -42.3051 230.441 -42.1071 230.365C-41.9039 230.286 -41.7185 230.182 -41.5458 230.062L-7.92035 270.136C-8.1235 270.286 -8.30127 270.458 -8.45108 270.651L-40.7484 264.945L-42.7013 230.522H-42.7038ZM-8.74823 271.116C-8.90567 271.433 -9.0047 271.779 -9.03265 272.134L-34.9177 285.291L-37.4242 286.566C-37.9042 285.802 -38.7219 285.335 -39.6006 285.284L-40.7256 265.466L-8.7533 271.116H-8.74823ZM-37.1906 287.026C-37.1906 287.026 -37.1906 287.023 -37.1906 287.021L-34.6942 285.751L-9.01486 272.698C-8.98691 272.917 -8.93362 273.137 -8.84982 273.353C-8.71014 273.709 -8.50443 274.019 -8.25555 274.275L-17.6161 296.194L-37.0916 288.735C-36.9468 288.189 -36.9646 287.592 -37.188 287.026H-37.1906ZM-83.2368 257.956L-41.236 265.377L-40.1059 285.304C-40.3243 285.332 -40.5427 285.385 -40.756 285.469C-41.2004 285.644 -41.5738 285.921 -41.8607 286.264L-83.4679 258.538C-83.3688 258.355 -83.2926 258.16 -83.2368 257.956ZM-39.6437 346.29L-39.4533 290.762C-39.2171 290.736 -38.9784 290.68 -38.7473 290.591C-38.0693 290.325 -37.5588 289.819 -37.2693 289.21L-17.8193 296.661L-39.0648 346.41C-39.2527 346.349 -39.4456 346.311 -39.6437 346.293V346.29ZM-17.3444 296.841L5.2876 305.508C5.17331 306.024 5.20633 306.575 5.41455 307.103C5.49582 307.309 5.59995 307.499 5.72183 307.672L-20.8514 331.556L-38.0413 347.006C-38.2115 346.849 -38.3969 346.714 -38.5975 346.608L-17.3444 296.841ZM-0.931641 482.763L4.19308 458.033L7.36237 442.748C7.79407 442.796 8.241 442.745 8.67526 442.575C9.526 442.243 10.1126 441.532 10.3285 440.711L23.7599 442.936L-0.543091 482.908C-0.670074 482.849 -0.799591 482.801 -0.931641 482.76V482.763ZM45.9525 366.157L42.4353 409.907C42.1128 409.912 41.7827 409.968 41.4653 410.095C40.9167 410.311 40.4774 410.684 40.1752 411.144L25.9007 404.567L45.4193 366.007C45.5919 366.075 45.7722 366.126 45.9551 366.159L45.9525 366.157ZM39.9339 411.591C39.6673 412.228 39.6343 412.965 39.9085 413.661C39.9771 413.836 40.0609 413.998 40.1599 414.151L9.66821 438.124C9.50824 437.956 9.32794 437.811 9.13492 437.689L25.6721 405.019L39.9365 411.591H39.9339ZM10.4123 440.211C10.4402 439.815 10.3869 439.406 10.232 439.01C10.1634 438.837 10.0796 438.672 9.98312 438.522L20.8775 429.964L40.485 414.562C40.5917 414.674 40.7085 414.773 40.8304 414.864L24.0443 442.471L10.4098 440.214L10.4123 440.211ZM41.2646 415.126C41.9325 415.451 42.7274 415.509 43.474 415.217C43.7762 415.098 44.0428 414.93 44.2739 414.73L82.247 451.011C82.0109 451.311 81.8407 451.654 81.7442 452.022L24.5878 442.557L41.2672 415.126H41.2646ZM83.3949 450.158C83.0927 450.278 82.826 450.445 82.595 450.646L44.6219 414.364C44.9672 413.93 45.1729 413.396 45.211 412.84L76.8252 412.025L83.6641 450.069C83.5727 450.095 83.4838 450.125 83.3949 450.161V450.158ZM45.1983 412.332C45.1704 412.104 45.1171 411.875 45.0307 411.652C45.0053 411.583 44.9723 411.52 44.9418 411.456L70.8523 390.762C71.4262 391.43 72.2922 391.788 73.1734 391.714L76.7338 411.52L45.1983 412.332ZM70.3774 389.98C70.4282 390.109 70.4917 390.231 70.5577 390.348L44.6752 411.019C44.5203 410.811 44.34 410.631 44.1393 410.476L63.3938 379.873L70.9717 387.049C70.2378 387.798 69.966 388.939 70.3749 389.977L70.3774 389.98ZM43.7102 410.207C43.5121 410.105 43.3013 410.027 43.0829 409.976L46.4681 366.197C46.788 366.192 47.1131 366.134 47.4305 366.009C47.7353 365.89 48.0045 365.72 48.2381 365.514L63.0205 379.514L43.7102 410.204V410.207ZM8.97748 308.66C9.01556 308.645 9.05112 308.627 9.0892 308.609L30.1569 339.809L44.6803 361.319C44.2282 361.69 43.9133 362.193 43.766 362.746L-4.57581 354.671L7.34457 308.777C7.87024 308.901 8.43655 308.873 8.97748 308.66ZM43.9667 364.686C44.1978 365.149 44.5457 365.517 44.9596 365.776L25.4334 404.353L-10.6021 387.75C-10.4167 387.224 -10.3887 386.64 -10.5513 386.071L43.9667 364.686ZM-10.8128 388.212L25.2048 404.808L8.6778 437.461C8.12674 437.242 7.50711 437.199 6.90524 437.374L-11.9556 389.292C-11.463 389.045 -11.0719 388.664 -10.8128 388.212ZM5.1073 441.021C5.42728 441.834 6.09006 442.408 6.86459 442.646L4.55365 453.79L-1.43192 482.664C-1.54367 482.654 -1.65796 482.649 -1.77225 482.651L-7.07721 437.125L6.20178 437.689C5.10474 438.38 4.61716 439.769 5.1073 441.021ZM0.739319 484.139C0.53363 483.741 0.241608 483.413 -0.10376 483.164L24.3008 443.025L81.6579 452.522C81.635 452.83 81.663 453.142 81.7468 453.452L0.739319 484.139ZM84.1618 449.98L77.3357 412.01L103.454 411.337C103.482 411.565 103.536 411.794 103.622 412.017C103.84 412.576 104.224 413.021 104.691 413.32L85.4392 450.176C85.0405 450.013 84.6037 449.942 84.1618 449.98ZM103.442 410.829L77.2468 411.505L73.6737 391.625C73.7651 391.6 73.854 391.569 73.9429 391.534C74.4051 391.354 74.7885 391.059 75.0806 390.696L103.764 409.709C103.579 410.052 103.47 410.433 103.444 410.826L103.442 410.829ZM77.196 356.981L63.2948 379.078L48.586 365.146C49.0558 364.547 49.2666 363.77 49.1371 362.995L76.2234 355.849C76.4443 356.324 76.7846 356.71 77.1935 356.981H77.196ZM76.0532 355.369L49.005 362.505C48.9974 362.485 48.9923 362.464 48.9847 362.444C48.4311 361.029 46.8338 360.334 45.4193 360.887C45.3101 360.93 45.2034 360.981 45.1018 361.037L12.6166 312.924L9.53363 308.36C9.68854 308.254 9.83075 308.132 9.95773 308L76.2538 353.469C75.9694 354.046 75.8831 354.716 76.0507 355.371L76.0532 355.369ZM5.44247 305.023L-17.1438 296.371L-7.85178 274.61C-7.15848 275.085 -6.26205 275.233 -5.41385 274.948L6.49384 303.779C6.01642 304.084 5.65836 304.521 5.44504 305.021L5.44247 305.023ZM-45.675 228.805C-45.6293 228.925 -45.5735 229.034 -45.5125 229.143L-83.7751 255.465C-83.9046 255.31 -84.0494 255.171 -84.2068 255.051L-59.4823 216.024L-45.4643 226.38C-45.8909 227.089 -45.9976 227.978 -45.6725 228.808L-45.675 228.805ZM-96.9958 189.809C-96.5793 189.646 -96.2289 189.39 -95.9495 189.078L-59.8912 215.717L-84.636 254.777C-85.083 254.548 -85.5909 254.442 -86.1039 254.482L-97.2827 189.903C-97.1862 189.877 -97.0897 189.847 -96.9958 189.809ZM-84.4278 259.556C-84.1662 259.391 -83.9377 259.188 -83.7497 258.954L-42.1502 286.675C-42.2924 286.927 -42.3915 287.201 -42.4499 287.488L-71.9055 284.405L-84.4303 259.556H-84.4278ZM-42.5007 287.993C-42.5057 288.339 -42.4448 288.689 -42.3127 289.032C-41.914 290.048 -40.9795 290.69 -39.9612 290.769L-40.1516 346.288C-40.3243 346.303 -40.497 346.333 -40.6697 346.384L-71.6338 284.949L-42.5032 287.999L-42.5007 287.993ZM-37.3455 348.02C-37.4369 347.786 -37.5588 347.575 -37.701 347.385L6.04944 308.061C6.28815 308.294 6.56494 308.482 6.86459 308.614L-5.07608 354.587L-37.1652 349.226C-37.1347 348.827 -37.1906 348.418 -37.3455 348.02ZM-4.70279 355.163L43.6822 363.246C43.6594 363.564 43.6873 363.889 43.7813 364.211L-10.7366 385.597C-11.0617 384.949 -11.6153 384.482 -12.2603 384.248L-4.70532 355.163H-4.70279ZM-12.4279 389.474L6.28561 437.181L-7.13565 436.61L-12.6235 389.52C-12.5575 389.507 -12.494 389.492 -12.4279 389.474ZM-2.27505 482.709C-2.42233 482.74 -2.56708 482.781 -2.71182 482.836C-2.8566 482.892 -2.99118 482.963 -3.1207 483.04L-37.7366 435.82L-7.59021 437.1L-2.27505 482.707V482.709ZM1.03647 485.175C1.02377 485.025 0.998352 484.873 0.960266 484.723L1.05173 484.563L81.9296 453.924C82.2013 454.483 82.6432 454.91 83.1663 455.174L71.1037 485.996L1.039 485.178L1.03647 485.175ZM112.729 489.266L79.8955 486.313C79.8955 485.98 79.8371 485.643 79.7075 485.315C79.6263 485.104 79.5171 484.914 79.3926 484.736L97.7608 469.065L113.478 487.827C113.087 488.22 112.828 488.723 112.729 489.264V489.266ZM79.0625 484.35C78.7527 484.048 78.3768 483.824 77.9705 483.697L84.0679 455.451C84.5047 455.504 84.9618 455.451 85.4036 455.28C85.6068 455.202 85.7922 455.098 85.9623 454.981L97.4358 468.676L79.0625 484.35ZM86.3509 454.656C86.8791 454.122 87.1686 453.394 87.1457 452.639L119.194 448.711C119.225 448.891 119.275 449.074 119.344 449.252C119.415 449.434 119.507 449.605 119.611 449.762L97.8218 468.351L86.3509 454.658V454.656ZM119.156 448.203L91.4273 451.603L120.433 445.922C119.644 446.423 119.171 447.289 119.156 448.203ZM87.0365 451.946C87.0137 451.87 86.9883 451.794 86.9603 451.717C86.7419 451.159 86.3585 450.714 85.8912 450.415L105.143 413.559C105.775 413.818 106.504 413.846 107.19 413.577C107.794 413.341 108.267 412.911 108.566 412.388L160.705 436.341C160.585 436.722 160.55 437.133 160.606 437.542L87.034 451.949L87.0365 451.946ZM108.777 411.926C108.841 411.743 108.889 411.555 108.914 411.36L165.751 413.287L163.394 434.411C163.039 434.403 162.678 434.462 162.325 434.601C161.688 434.85 161.2 435.312 160.903 435.871L108.78 411.926H108.777ZM163.897 434.472L166.259 413.308L184.581 413.93C184.599 414.212 184.657 414.496 184.767 414.773C184.873 415.045 185.018 415.288 185.193 415.504L165.164 435.117C164.804 434.794 164.367 434.573 163.897 434.474V434.472ZM189.889 412.762C189.348 411.383 187.819 410.689 186.432 411.169L171.597 378.341L218.209 446.225L189.391 415.588C190.051 414.839 190.282 413.757 189.891 412.764L189.889 412.762ZM219.286 446.25C219.169 446.296 219.057 446.351 218.951 446.412L171.907 377.899C172.214 377.623 172.453 377.282 172.607 376.906L207.053 388.222L219.469 446.191C219.408 446.212 219.347 446.23 219.286 446.252V446.25ZM167.506 376.858C167.523 376.904 167.546 376.947 167.567 376.99L108.462 409.473C107.998 408.782 107.246 408.353 106.438 408.277V384.708L167.389 376.475C167.419 376.604 167.455 376.731 167.506 376.858ZM105.93 408.277C105.679 408.3 105.428 408.356 105.179 408.455C104.717 408.635 104.333 408.929 104.041 409.293L75.3574 390.279C75.5885 389.85 75.7028 389.36 75.6824 388.865L105.928 384.779V408.279L105.93 408.277ZM75.6139 388.357C75.5834 388.227 75.5479 388.098 75.4971 387.971C75.2761 387.407 74.8876 386.96 74.4152 386.658L105.156 326.965C105.402 327.064 105.661 327.127 105.93 327.153V384.261L75.6139 388.354V388.357ZM104.704 326.734L73.9632 386.424C73.8819 386.391 73.7981 386.361 73.7118 386.338L78.6257 357.441C78.9889 357.454 79.3596 357.393 79.7177 357.253C81.1322 356.697 81.828 355.102 81.2744 353.688C81.1474 353.363 80.9621 353.078 80.7411 352.837L104.531 326.617C104.587 326.66 104.645 326.698 104.704 326.736V326.734ZM76.5205 353.038L10.2726 307.603C10.7424 306.885 10.8694 305.955 10.5316 305.094C10.3793 304.708 10.1482 304.376 9.86377 304.107L36.1653 270.766C36.8688 271.223 37.7703 271.35 38.6134 271.037L77.4753 352.235C77.0868 352.431 76.7643 352.708 76.5179 353.038H76.5205ZM35.1038 269.465C35.2562 269.851 35.4873 270.184 35.7692 270.453L10.0466 303.06L29.7505 269.417L34.9565 268.957C34.987 269.128 35.0352 269.3 35.1013 269.468L35.1038 269.465ZM9.13492 303.609C8.47467 303.302 7.69757 303.251 6.96619 303.538C6.95856 303.54 6.95096 303.545 6.9408 303.548L-4.95419 274.745C-4.07553 274.255 -3.55243 273.333 -3.54733 272.358L29.1309 269.468L9.13492 303.606V303.609ZM-3.59048 271.852C-3.62097 271.682 -3.66922 271.51 -3.73526 271.342C-3.79367 271.197 -3.86221 271.06 -3.94095 270.931L51.448 230.187C51.5852 230.339 51.735 230.476 51.9 230.596L29.4458 268.932L-3.59048 271.852ZM-6.37125 269.6C-6.68109 269.608 -6.99341 269.666 -7.30069 269.785C-7.36417 269.811 -7.42514 269.841 -7.48611 269.869L-41.1624 229.737C-40.718 229.288 -40.4437 228.699 -40.3802 228.074L-3.68698 228.285L-6.37125 269.6ZM-43.0619 225.052C-43.4124 225.044 -43.7729 225.105 -44.1209 225.243C-44.5374 225.405 -44.8878 225.662 -45.1671 225.974L-59.2131 215.598L-39.2298 184.052C-38.9987 184.186 -38.7498 184.285 -38.4908 184.349L-43.0645 225.055L-43.0619 225.052ZM-40.5884 181.5L-95.3019 186.736C-95.3324 186.571 -95.3781 186.406 -95.4416 186.246C-95.7311 185.51 -96.3025 184.971 -96.9831 184.699L-92.318 168.929L-40.5427 181.142C-40.5656 181.261 -40.5808 181.38 -40.5884 181.502V181.5ZM-92.6685 168.322L-126.66 160.305C-126.596 159.85 -126.642 159.376 -126.822 158.918C-126.865 158.809 -126.916 158.708 -126.969 158.606L-91.2845 134.613L-82.2971 128.569C-81.9899 128.942 -81.5912 129.222 -81.1518 129.389L-92.6685 168.32V168.322ZM-82.7365 127.827C-82.6933 127.939 -82.64 128.046 -82.5816 128.15L-127.251 158.185C-127.35 158.063 -127.457 157.953 -127.574 157.852L-97.2523 115.864L-82.5816 125.491C-82.965 126.184 -83.0488 127.035 -82.7365 127.827ZM-97.3792 115.173L-140.932 86.5961C-140.721 86.1974 -140.609 85.7505 -140.612 85.2908L-73.0813 78.6373C-73.0711 78.9395 -73.0128 79.2443 -72.8959 79.5414C-72.7588 79.8918 -72.5556 80.1991 -72.3093 80.4531L-97.3818 115.171L-97.3792 115.173ZM-72.7131 77.1619C-72.8832 77.459 -73 77.7866 -73.0508 78.1269L-140.66 84.788C-140.69 84.6255 -140.736 84.4629 -140.8 84.3055C-140.957 83.9068 -141.196 83.569 -141.49 83.2948L-118.696 53.6613L-72.7131 77.1644V77.1619ZM-141.892 82.9824C-142.278 82.7386 -142.717 82.5939 -143.177 82.5634L-144.213 42.9574C-144.086 42.9269 -143.961 42.8914 -143.837 42.8431C-143.189 42.5891 -142.694 42.1168 -142.399 41.5429L-119.155 53.4227L-141.892 82.9824ZM-145.404 42.9726L-153.393 80.1635L-171.517 71.3845C-171.286 70.77 -171.271 70.0741 -171.53 69.4164C-171.644 69.1244 -171.804 68.8653 -171.997 68.6393L-146.468 42.4977C-146.15 42.7288 -145.79 42.8914 -145.404 42.9726ZM-173.511 73.1063C-173.369 73.0758 -173.226 73.0352 -173.087 72.9819C-172.5 72.7533 -172.04 72.3419 -171.738 71.8416L-153.502 80.674L-165.463 136.347C-165.595 136.332 -165.732 136.327 -165.867 136.332L-173.511 73.1063ZM-136.091 170.519C-135.901 169.932 -135.903 169.28 -136.145 168.66C-136.261 168.36 -136.429 168.094 -136.63 167.863L-131.091 162.073C-130.35 162.662 -129.324 162.852 -128.379 162.481C-128.036 162.347 -127.736 162.149 -127.485 161.91L-100.236 185.639C-100.302 185.73 -100.363 185.827 -100.419 185.926L-136.094 170.516L-136.091 170.519ZM-98.7277 189.898C-98.4255 189.982 -98.1081 190.015 -97.7856 189.989L-86.6067 254.569C-86.7032 254.594 -86.7997 254.625 -86.8936 254.663C-88.2751 255.203 -88.9684 256.74 -88.4834 258.129L-129.819 276.982C-130.101 276.49 -130.517 276.111 -131.005 275.875L-98.7252 189.898H-98.7277ZM-129.859 279.781C-129.692 279.506 -129.572 279.202 -129.509 278.884L-72.2357 284.88L-41.6271 345.612L-129.862 279.781H-129.859ZM-38.1226 351.11C-37.6934 350.744 -37.3938 350.257 -37.2516 349.724L-5.20816 355.077L-12.753 384.119C-13.2254 384.042 -13.7231 384.083 -14.2005 384.271C-14.33 384.322 -14.4494 384.383 -14.5662 384.451L-38.1226 351.113V351.11ZM-14.2208 389.38C-13.878 389.518 -13.5072 389.586 -13.1314 389.578L-7.65369 436.587L-37.8509 435.305L-14.2234 389.38H-14.2208ZM-20.755 522.003C-21.1791 521.813 -21.6539 521.729 -22.1288 521.772L-37.8051 436.587L-3.52954 483.339C-4.36758 484.083 -4.70026 485.297 -4.26855 486.402C-3.82413 487.535 -2.71436 488.202 -1.56396 488.144L-20.7524 522.006L-20.755 522.003ZM55.2446 527.895L71.444 486.506L74.4 486.542C74.4203 486.803 74.4787 487.067 74.5803 487.324C74.7987 487.882 75.1847 488.329 75.6545 488.632L55.2446 527.897V527.895ZM115.598 487.019C115.21 486.994 114.808 487.049 114.422 487.202C114.219 487.281 114.036 487.385 113.864 487.502L98.1443 468.735L119.926 450.153C120.284 450.524 120.738 450.78 121.231 450.907L115.598 487.019ZM124.443 447.192C124.073 446.296 123.28 445.696 122.386 445.536L155.471 439.058L124.446 447.192H124.443ZM222.43 447.078C221.838 446.344 220.904 445.963 219.961 446.075L207.607 388.398L274.566 410.395C274.446 410.915 274.477 411.477 274.685 412.012C274.726 412.117 274.774 412.216 274.825 412.31L222.427 447.078H222.43ZM274.916 409.557C274.845 409.671 274.779 409.79 274.726 409.915L207.487 387.824L200.402 354.739C200.451 354.724 200.499 354.709 200.547 354.691C201.002 354.513 201.38 354.226 201.669 353.873L274.916 409.557ZM197.474 353.944C198.076 354.63 198.988 354.978 199.905 354.853L206.926 387.638L172.755 376.411C172.861 375.903 172.828 375.36 172.625 374.842C172.559 374.674 172.478 374.517 172.384 374.369L197.474 353.944ZM167.818 374.26C167.47 374.753 167.29 375.352 167.318 375.964L106.436 384.187V327.147C106.687 327.125 106.939 327.069 107.187 326.97C107.566 326.82 107.891 326.596 108.158 326.322L167.818 374.258V374.26ZM36.658 265.895C35.5787 266.319 34.9184 267.35 34.9134 268.444L30.0654 268.874L52.0524 231.335L38.4306 265.819C37.8668 265.654 37.2471 265.664 36.6554 265.897L36.658 265.895ZM50.9655 227.297C50.8614 227.548 50.7928 227.815 50.7674 228.087L-3.14609 227.777L-1.4624 201.866C-1.15256 201.859 -0.837708 201.8 -0.532959 201.681C0.0181274 201.465 0.460022 201.089 0.759674 200.627L50.9655 227.297ZM-4.11618 198.164C-4.34473 198.776 -4.35742 199.469 -4.10092 200.124C-4.05524 200.244 -3.9968 200.355 -3.93585 200.465L-41.0075 226.037C-41.4087 225.557 -41.9572 225.235 -42.5591 225.108L-37.988 184.418C-37.6096 184.438 -37.2185 184.382 -36.8427 184.232C-36.2535 184.001 -35.7913 183.59 -35.4917 183.084L-4.11618 198.161V198.164ZM-39.6818 179.626C-39.9993 179.91 -40.2431 180.263 -40.398 180.651L-92.1733 168.439L-80.6617 129.529C-80.1767 129.618 -79.6611 129.58 -79.1685 129.384C-78.9831 129.31 -78.813 129.222 -78.653 129.115L-39.6768 179.626H-39.6818ZM-79.8338 124.092C-80.2757 124.036 -80.7379 124.087 -81.1823 124.259C-81.6343 124.437 -82.0102 124.719 -82.2971 125.069L-96.9551 115.45L-71.9182 80.7832C-71.6897 80.9432 -71.4383 81.0702 -71.1741 81.154L-79.8338 124.092ZM-103.916 31.3036C-103.885 31.456 -103.842 31.6058 -103.784 31.7556C-103.647 32.1086 -103.444 32.4159 -103.195 32.6724L-118.841 53.0138L-142.209 41.0705C-142.095 40.6921 -142.062 40.2858 -142.123 39.882L-103.916 31.3062V31.3036Z" fill="#B4185C"/>
<path d="M444.23 169.032C444.23 169.032 474.019 109.071 502.895 74.6833L573.996 161.172L488.685 245.527L444.222 169.039L444.23 169.032Z" fill="#FBE4C6"/>
<path d="M488.684 246.307C488.486 246.307 488.28 246.226 488.125 246.072C487.823 245.763 487.823 245.27 488.125 244.961L572.929 161.113L502.283 75.1765C502.011 74.838 502.055 74.3449 502.394 74.0727C502.732 73.793 503.225 73.8445 503.498 74.183L574.599 160.672C574.857 160.988 574.835 161.445 574.548 161.724L489.236 246.079C489.082 246.234 488.883 246.307 488.684 246.307Z" fill="#4F2B2B"/>
<path d="M534.987 191.842L545.907 206.258L552.714 198.311L542.647 184.491L534.987 191.842Z" fill="#2B6577"/>
<path d="M438.74 167.14C438.74 167.14 468.529 107.18 497.405 72.7915L568.507 159.28L488.678 245.526L438.733 167.147L438.74 167.14Z" fill="#FBE4C6"/>
<path d="M488.683 246.306C488.492 246.306 488.301 246.24 488.153 246.1C487.837 245.806 487.815 245.306 488.109 244.989L567.467 159.243L496.8 73.2844C496.528 72.9533 496.572 72.4529 496.91 72.1806C497.249 71.9009 497.742 71.9524 498.014 72.291L569.116 158.78C569.366 159.082 569.351 159.523 569.086 159.81L489.257 246.056C489.103 246.225 488.889 246.306 488.683 246.306Z" fill="#4F2B2B"/>
<path d="M541.345 177.037L552.273 191.453L559.08 183.498L549.006 169.678L541.345 177.037Z" fill="#B4185C"/>
<path d="M441.624 156.132C441.624 156.132 460.853 110.028 488.802 74.8748L562.192 159.428L488.684 245.52L441.624 156.132Z" fill="#FBE4C6"/>
<path d="M488.684 246.307C488.5 246.307 488.323 246.248 488.176 246.116C487.845 245.836 487.808 245.336 488.088 245.012L561.162 159.436L488.213 75.3971C487.926 75.0733 487.963 74.5729 488.294 74.2933C488.625 74.0063 489.118 74.0431 489.398 74.3742L562.788 158.928C563.045 159.222 563.045 159.656 562.788 159.951L489.28 246.042C489.126 246.226 488.905 246.314 488.684 246.314V246.307Z" fill="#4F2B2B"/>
<path d="M429.188 165.24L464.989 90.7758C467.064 86.4562 472.694 85.3082 476.292 88.4651L497.346 106.929C499.245 108.592 500.143 111.13 499.708 113.618L496.309 133.17C496.309 133.17 515.184 156.976 528.548 178.538C531.006 182.504 530.719 187.582 527.812 191.232L488.464 240.706C485.359 244.613 479.192 243.73 477.33 239.101C470.288 221.609 454.201 187.31 431.786 173.681C428.887 171.915 427.716 168.302 429.188 165.24Z" fill="#DF8711"/>
<path d="M331.512 154.337L345.743 97.16L354.114 94.2705L435.391 127.383C435.391 127.383 453.198 125.216 456.042 143.564L488.974 224.914L416.329 314.101L331.503 154.328L331.512 154.337Z" fill="#4F2B2B"/>
<path d="M482.778 222.556L411.262 308.185L401.862 307.77L471.157 221.788L482.778 222.556Z" fill="#FFE4C7"/>
<path d="M335.487 104.952L352.715 100.672L439.284 133.767L448.928 141.315L482.781 222.557L471.159 221.789L335.487 104.952Z" fill="#FBE4C6"/>
<path d="M436.105 143.5L335.486 104.952L312.983 235.08L376.454 257.592L436.105 143.5Z" fill="#FBE4C6"/>
<path d="M364.85 189.922C364.723 189.922 364.597 189.895 364.47 189.841L346.212 181.994C345.725 181.786 345.499 181.217 345.707 180.73C345.914 180.242 346.483 180.016 346.971 180.224L365.229 188.071C365.717 188.279 365.942 188.848 365.735 189.335C365.581 189.696 365.22 189.922 364.85 189.922Z" fill="#4F2B2B"/>
<path d="M372.552 201.932C372.426 201.932 372.299 201.905 372.173 201.851L365.184 198.853C364.696 198.645 364.47 198.076 364.678 197.589C364.886 197.101 365.455 196.866 365.942 197.083L372.931 200.081C373.419 200.289 373.645 200.858 373.437 201.345C373.283 201.706 372.922 201.932 372.552 201.932Z" fill="#4F2B2B"/>
<path d="M360.498 196.767C360.371 196.767 360.245 196.74 360.118 196.686L343.504 189.561C343.016 189.353 342.79 188.785 342.998 188.297C343.206 187.809 343.774 187.584 344.262 187.791L360.877 194.916C361.364 195.123 361.59 195.692 361.383 196.18C361.229 196.541 360.868 196.767 360.498 196.767Z" fill="#4F2B2B"/>
<path d="M376.21 211.765C376.083 211.765 375.957 211.738 375.831 211.684L355.55 203.006C355.062 202.799 354.836 202.23 355.044 201.742C355.252 201.255 355.821 201.02 356.308 201.237L376.589 209.914C377.077 210.122 377.302 210.691 377.095 211.178C376.941 211.539 376.58 211.765 376.21 211.765Z" fill="#4F2B2B"/>
<path d="M351.125 201.03C350.998 201.03 350.872 201.003 350.746 200.948L340.93 196.75C340.443 196.542 340.217 195.973 340.425 195.485C340.632 194.998 341.201 194.772 341.689 194.98L351.504 199.179C351.992 199.386 352.217 199.955 352.01 200.443C351.856 200.804 351.495 201.03 351.125 201.03Z" fill="#0151A1"/>
<path d="M359.089 212.316C358.963 212.316 358.836 212.289 358.71 212.234L338.474 203.593C337.986 203.385 337.761 202.816 337.968 202.329C338.176 201.841 338.745 201.615 339.232 201.823L359.468 210.465C359.956 210.672 360.182 211.241 359.974 211.729C359.82 212.099 359.459 212.316 359.089 212.316Z" fill="#4F2B2B"/>
<path d="M363.144 221.545C363.017 221.545 362.891 221.518 362.764 221.463L336.136 210.122C335.648 209.914 335.422 209.346 335.63 208.858C335.838 208.37 336.397 208.136 336.894 208.352L363.523 219.694C364.011 219.901 364.236 220.47 364.029 220.958C363.875 221.328 363.514 221.545 363.144 221.545Z" fill="#4F2B2B"/>
<path d="M366.818 230.25C366.691 230.25 366.565 230.223 366.439 230.169L344.966 221.04C344.478 220.832 344.252 220.263 344.46 219.775C344.668 219.288 345.237 219.053 345.724 219.27L367.197 228.399C367.685 228.607 367.91 229.175 367.703 229.663C367.549 230.024 367.188 230.25 366.818 230.25Z" fill="#4F2B2B"/>
<path d="M342.511 219.92C342.384 219.92 342.258 219.893 342.132 219.839L333.905 216.344C333.418 216.137 333.192 215.568 333.4 215.08C333.607 214.592 334.176 214.358 334.664 214.574L342.89 218.069C343.378 218.277 343.603 218.845 343.396 219.333C343.242 219.694 342.881 219.92 342.511 219.92Z" fill="#0151A1"/>
<path d="M363.975 235.865C363.848 235.865 363.722 235.838 363.596 235.793L331.775 222.294C331.287 222.086 331.052 221.517 331.26 221.03C331.468 220.542 332.036 220.316 332.524 220.515L364.345 234.014C364.833 234.222 365.067 234.791 364.86 235.279C364.706 235.649 364.345 235.865 363.975 235.865Z" fill="#4F2B2B"/>
<path d="M361.247 241.23C361.121 241.23 360.994 241.203 360.868 241.158L329.742 227.975C329.255 227.767 329.02 227.198 329.228 226.71C329.435 226.223 330.004 225.997 330.492 226.196L361.618 239.379C362.105 239.587 362.34 240.156 362.132 240.643C361.979 241.014 361.618 241.23 361.247 241.23Z" fill="#4F2B2B"/>
<path d="M394.142 143.174C394.016 143.174 393.889 143.147 393.763 143.093L375.504 135.246C375.017 135.038 374.791 134.469 374.999 133.982C375.206 133.494 375.775 133.268 376.263 133.476L394.521 141.323C395.009 141.531 395.235 142.1 395.027 142.587C394.873 142.948 394.512 143.174 394.142 143.174Z" fill="#4F2B2B"/>
<path d="M401.845 155.183C401.719 155.183 401.592 155.156 401.466 155.102L394.477 152.104C393.989 151.896 393.764 151.328 393.971 150.84C394.179 150.352 394.739 150.127 395.235 150.334L402.224 153.332C402.712 153.54 402.938 154.109 402.73 154.596C402.577 154.958 402.215 155.183 401.845 155.183Z" fill="#4F2B2B"/>
<path d="M389.79 150.01C389.664 150.01 389.537 149.983 389.411 149.929L372.796 142.804C372.308 142.597 372.083 142.028 372.29 141.54C372.498 141.053 373.067 140.827 373.555 141.034L390.169 148.159C390.657 148.367 390.883 148.936 390.675 149.423C390.521 149.784 390.16 150.01 389.79 150.01Z" fill="#4F2B2B"/>
<path d="M405.502 165.007C405.376 165.007 405.249 164.98 405.123 164.926L384.842 156.249C384.354 156.041 384.129 155.472 384.336 154.984C384.544 154.497 385.113 154.262 385.6 154.479L405.881 163.156C406.369 163.364 406.595 163.933 406.387 164.421C406.233 164.782 405.872 165.007 405.502 165.007Z" fill="#4F2B2B"/>
<path d="M380.418 154.271C380.292 154.271 380.165 154.244 380.039 154.19L370.223 149.991C369.736 149.783 369.51 149.214 369.718 148.727C369.925 148.239 370.494 148.013 370.982 148.221L380.797 152.42C381.285 152.628 381.511 153.196 381.303 153.684C381.15 154.045 380.788 154.271 380.418 154.271Z" fill="#4F2B2B"/>
<path d="M388.391 165.56C388.265 165.56 388.138 165.533 388.012 165.479L367.776 156.837C367.288 156.629 367.063 156.06 367.27 155.573C367.478 155.085 368.047 154.859 368.534 155.067L388.77 163.709C389.258 163.916 389.484 164.485 389.276 164.973C389.122 165.334 388.761 165.56 388.391 165.56Z" fill="#4F2B2B"/>
<path d="M392.437 174.788C392.31 174.788 392.184 174.76 392.058 174.706L365.429 163.356C364.941 163.148 364.715 162.579 364.923 162.092C365.131 161.604 365.7 161.378 366.187 161.586L392.816 172.936C393.304 173.144 393.53 173.713 393.322 174.201C393.168 174.571 392.807 174.788 392.437 174.788Z" fill="#4F2B2B"/>
<path d="M396.111 183.502C395.985 183.502 395.858 183.475 395.732 183.421L374.259 174.292C373.771 174.084 373.546 173.515 373.753 173.027C373.961 172.54 374.521 172.305 375.017 172.522L396.49 181.651C396.978 181.858 397.204 182.427 396.996 182.915C396.842 183.285 396.481 183.502 396.111 183.502Z" fill="#4F2B2B"/>
<path d="M371.803 173.162C371.677 173.162 371.55 173.135 371.424 173.081L363.198 169.587C362.71 169.379 362.484 168.81 362.692 168.322C362.9 167.835 363.469 167.609 363.956 167.817L372.182 171.311C372.67 171.519 372.896 172.088 372.688 172.575C372.534 172.937 372.173 173.162 371.803 173.162Z" fill="#4F2B2B"/>
<path d="M393.268 189.109C393.142 189.109 393.015 189.082 392.889 189.037L361.068 175.537C360.58 175.329 360.345 174.761 360.553 174.273C360.761 173.785 361.33 173.56 361.817 173.758L393.638 187.258C394.126 187.465 394.361 188.034 394.153 188.522C393.999 188.892 393.638 189.109 393.268 189.109Z" fill="#4F2B2B"/>
<path d="M390.541 194.48C390.414 194.48 390.288 194.453 390.161 194.407L359.036 181.224C358.548 181.016 358.313 180.447 358.521 179.96C358.729 179.472 359.297 179.246 359.785 179.445L390.911 192.629C391.398 192.836 391.633 193.405 391.425 193.893C391.272 194.263 390.911 194.48 390.541 194.48Z" fill="#4F2B2B"/>
<path d="M436.105 143.498L471.159 221.786L401.864 307.768L376.454 257.589L436.105 143.498Z" fill="#FBE4C6"/>
<path d="M358.296 330.48L387.761 315.472C387.761 315.472 383.399 289.006 390.488 277.547C393.973 271.913 397.314 266.179 400.7 260.481C403.481 255.794 406.01 249.392 412.078 248.39C415.157 247.884 418.326 248.995 418.326 255.722C418.326 268.815 408.773 281.918 421.604 289.006C427.158 292.528 433.551 290.117 438.3 285.566C445.759 278.423 457.191 264.057 457.191 264.057C457.191 264.057 455.448 289.006 453.263 301.828C451.078 314.651 433.072 343.573 404.15 345.207L374.956 363.213L358.314 330.471L358.296 330.48Z" fill="#FFBE97"/>
<path d="M307.177 272.454L288.621 202.609C288.621 202.609 259.698 204.243 246.054 221.165C232.799 237.599 147.454 348.356 154 426.5C154.37 430.87 204.437 421.856 208.5 423.5C223.553 429.577 262.465 430.221 311 420L307.168 272.463L307.177 272.454Z" fill="#2B6577"/>
<path d="M310.25 253.999L320.822 229.888L292.45 199.331L276.449 222.854C280.919 240.309 295.107 244.211 310.25 253.999Z" fill="#4F2B2B"/>
<path d="M276.449 222.855L264.62 240.255L306.093 268.627L310.25 253.999C295.107 244.202 280.918 240.31 276.449 222.855Z" fill="#FFBE97"/>
<path d="M412.248 262.513C412.067 262.513 411.877 262.459 411.715 262.351C409.864 261.122 407.534 260.599 405.34 260.906C404.816 260.987 404.328 260.617 404.256 260.084C404.184 259.56 404.545 259.073 405.078 259C407.733 258.621 410.55 259.262 412.789 260.743C413.232 261.032 413.358 261.637 413.06 262.08C412.871 262.36 412.573 262.513 412.257 262.513H412.248Z" fill="#4F2B2B"/>
<path d="M259.708 233.526L270.986 228.794C270.986 228.794 273.171 246.619 308.089 265.175V277.546C308.089 277.546 251.337 250.989 259.708 233.526Z" fill="#8FC6D7"/>
<path d="M369.329 315.102L386.341 305.503C386.341 305.503 422.27 310.253 417.178 344.259L399.019 361.425L369.329 315.102Z" fill="#8FC6D7"/>
<path d="M254.795 274.087C254.795 274.087 272.258 253.897 301.723 262.628C331.187 271.36 312.269 305.204 364.109 304.111C415.949 303.019 417.954 347.039 401.213 363.771C376.814 388.17 299.718 415.421 262.425 327.02L254.786 274.087H254.795Z" fill="#2B6577"/>
<path d="M304.811 375.638C304.684 375.638 304.558 375.611 304.432 375.557C304.079 375.403 268.963 360.016 259.129 322.164C258.994 321.649 259.301 321.125 259.815 320.99C260.33 320.845 260.854 321.161 260.989 321.676C270.57 358.59 304.838 373.633 305.181 373.778C305.669 373.986 305.894 374.554 305.687 375.042C305.533 375.412 305.172 375.629 304.802 375.629L304.811 375.638Z" fill="#4F2B2B"/>
<path d="M232.041 245.383C231.734 245.383 231.436 245.238 231.246 244.967C230.939 244.534 231.057 243.929 231.49 243.631C236.872 239.902 242.696 236.822 248.809 234.466C249.306 234.276 249.866 234.52 250.055 235.016C250.245 235.513 250.001 236.073 249.505 236.263C243.536 238.565 237.847 241.572 232.592 245.211C232.42 245.328 232.231 245.383 232.041 245.383Z" fill="#4F2B2B"/>
<path d="M316.253 173.885C328.633 175.213 339.315 180.766 346.44 188.559C347.37 189.57 348.228 190.617 349.04 191.701C349.04 191.701 349.046 191.713 349.058 191.737C350.937 194.247 352.445 196.929 353.537 199.756C353.664 200.081 353.799 200.406 353.889 200.74C354.052 201.128 354.178 201.516 354.305 201.914C354.305 201.941 354.314 201.977 354.332 202.013C354.413 202.239 354.485 202.465 354.54 202.708C355.65 206.492 356.038 210.438 355.605 214.483L358.197 218.032C359.244 219.468 358.585 221.508 356.887 222.05L353.564 223.107C347.749 238.674 331.134 249.636 310.826 247.46C286.961 244.905 267.023 225.147 269.163 205.246C271.303 185.362 292.387 171.312 316.253 173.876V173.885Z" fill="#FFBE97"/>
<path d="M317.624 219.865C317.597 221.888 320.622 223.567 324.378 223.612C328.135 223.658 331.205 222.068 331.232 220.046C331.259 218.023 328.234 216.343 324.478 216.298C320.721 216.253 317.651 217.842 317.624 219.865Z" fill="#FB8876"/>
<path d="M313.246 191.503L274.21 225.907C274.21 225.907 260.53 204.931 272.847 188.153C294.726 158.346 343.334 175.042 346.449 188.56L313.255 191.494L313.246 191.503Z" fill="#4F2B2B"/>
<path d="M333.292 206.736C332.931 206.736 332.587 206.537 332.425 206.194C332.19 205.716 332.389 205.138 332.867 204.903C337.581 202.609 343.152 202.185 348.164 203.729C348.669 203.883 348.958 204.424 348.796 204.93C348.642 205.436 348.101 205.725 347.595 205.562C343.053 204.154 337.996 204.542 333.716 206.628C333.581 206.691 333.436 206.727 333.292 206.727V206.736Z" fill="#4F2B2B"/>
<path d="M230.045 231.749C228.618 237.249 225.024 242.079 221.042 246.314C221.304 245.195 221.322 244.03 221.087 242.928C219.742 245.998 218.604 249.15 217.692 252.355C217.421 253.303 216.22 253.529 215.633 252.735C214.866 251.696 214.035 250.694 213.267 249.655C211.082 246.703 209.385 243.326 208.78 239.659C208.175 235.993 208.716 232.011 210.73 228.697C211.778 226.973 213.195 225.465 214.676 224.065C216.952 221.907 224.537 214.918 227.453 217.871C230.803 221.266 231.237 227.198 230.063 231.749H230.045Z" fill="#4F2B2B"/>
<path d="M277.594 216.479C277.178 222.068 281.377 226.926 286.967 227.332C292.556 227.748 297.414 223.549 297.821 217.96C298.227 212.37 294.037 207.512 288.448 207.106C282.858 206.69 278 210.889 277.594 216.479Z" fill="#FFBE97"/>
<path d="M284.636 218.936L290.496 219.37C291.444 219.442 292.257 218.729 292.329 217.79C292.401 216.841 291.688 216.029 290.749 215.957L284.888 215.523C283.94 215.451 283.128 216.164 283.055 217.103C282.983 218.051 283.696 218.864 284.636 218.936Z" fill="#4F2B2B"/>
<path d="M299.222 201.895L300.522 220.623L290.77 207.268L299.222 201.895Z" fill="#4F2B2B"/>
<path d="M296.015 188.939C296.051 189.887 298.616 208.082 298.616 208.082L317.84 205.554L318.879 198.827L321.001 204.543L346.257 201.319L344.117 194.366L349.137 201.048C349.137 201.048 358.501 200.118 357.562 199.694C356.623 199.269 343.656 164.577 311.131 171.602L296.024 188.948L296.015 188.939Z" fill="#4F2B2B"/>
<path d="M271.304 192.132C280.059 190.792 286.07 182.608 284.73 173.853C283.39 165.098 275.207 159.087 266.452 160.427C257.697 161.766 251.686 169.95 253.025 178.705C254.365 187.46 262.548 193.471 271.304 192.132Z" fill="#4F2B2B"/>
<path d="M244.956 201.562C253.5 200.862 259.859 193.369 259.16 184.825C258.46 176.281 250.967 169.922 242.423 170.621C233.879 171.32 227.519 178.814 228.219 187.358C228.918 195.902 236.411 202.261 244.956 201.562Z" fill="#4F2B2B"/>
<path d="M241.298 215.873C245.344 209.252 243.257 200.604 236.636 196.558C230.014 192.511 221.366 194.599 217.32 201.22C213.274 207.841 215.361 216.489 221.982 220.535C228.604 224.582 237.251 222.494 241.298 215.873Z" fill="#4F2B2B"/>
<path d="M211.119 242.692C210.667 242.692 210.261 242.367 210.17 241.907C209.394 237.771 209.945 233.392 211.724 229.572C211.949 229.093 212.518 228.886 213.006 229.112C213.484 229.337 213.692 229.906 213.466 230.394C211.85 233.843 211.353 237.807 212.058 241.555C212.157 242.078 211.814 242.584 211.29 242.683C211.227 242.692 211.173 242.701 211.11 242.701L211.119 242.692Z" fill="#1E0A15"/>
<path d="M342.132 233.862C342.069 233.862 342.006 233.862 341.942 233.844C337.834 233.023 334.077 230.81 331.359 227.614C331.016 227.207 331.061 226.602 331.468 226.259C331.874 225.916 332.479 225.97 332.822 226.368C335.251 229.239 338.628 231.217 342.313 231.957C342.836 232.065 343.17 232.571 343.071 233.086C342.981 233.546 342.574 233.862 342.132 233.862Z" fill="#4F2B2B"/>
<path d="M343.648 217.969C342.727 217.969 341.978 217.219 341.978 216.298V213.589C341.978 212.668 342.727 211.919 343.648 211.919C344.569 211.919 345.319 212.668 345.319 213.589V216.298C345.319 217.219 344.569 217.969 343.648 217.969Z" fill="#4F2B2B"/>
<path d="M376.452 258.549C376.299 258.549 376.145 258.513 376.001 258.441C375.531 258.197 375.351 257.61 375.595 257.141L434.135 145.885C434.379 145.415 434.965 145.235 435.435 145.478C435.905 145.722 436.085 146.309 435.841 146.779L377.301 258.035C377.13 258.36 376.796 258.549 376.452 258.549Z" fill="#4F2B2B"/>
<path d="M471.158 222.745C470.788 222.745 470.435 222.537 470.282 222.176L435.391 144.249L335.142 105.845C334.645 105.655 334.392 105.096 334.591 104.599C334.781 104.102 335.341 103.859 335.837 104.048L436.465 142.596C436.7 142.687 436.899 142.867 436.998 143.102L472.052 221.39C472.268 221.878 472.052 222.447 471.564 222.663C471.438 222.718 471.302 222.745 471.176 222.745H471.158Z" fill="#4F2B2B"/>
<path d="M474.625 219.576C474.255 219.576 473.894 219.359 473.74 218.998L440.005 140.836L346.258 105.701C345.761 105.511 345.508 104.96 345.698 104.464C345.887 103.967 346.447 103.714 346.935 103.904L441.061 139.183C441.305 139.274 441.504 139.463 441.603 139.707L475.501 218.248C475.709 218.736 475.483 219.305 474.995 219.512C474.869 219.567 474.743 219.594 474.616 219.594L474.625 219.576Z" fill="#4F2B2B"/>
<path d="M435.363 169.763L401.257 228.791L411.226 252.133L447.95 199.498L435.363 169.763Z" fill="#BF8888"/>
<path d="M459.492 232.636C459.122 232.636 458.77 232.419 458.607 232.058L447.591 206.874C447.374 206.386 447.591 205.818 448.087 205.61C448.575 205.393 449.144 205.619 449.351 206.106L460.368 231.291C460.585 231.778 460.368 232.347 459.871 232.555C459.745 232.609 459.618 232.636 459.483 232.636H459.492Z" fill="#4F2B2B"/>
<path d="M455.04 238.93C454.67 238.93 454.318 238.714 454.155 238.353L443.139 213.168C442.922 212.681 443.139 212.112 443.635 211.904C444.123 211.688 444.692 211.913 444.9 212.401L455.916 237.585C456.133 238.073 455.916 238.641 455.419 238.849C455.293 238.903 455.166 238.93 455.031 238.93H455.04Z" fill="#4F2B2B"/>
<path d="M450.58 245.225C450.209 245.225 449.857 245.008 449.695 244.647L438.678 219.463C438.462 218.975 438.678 218.406 439.175 218.199C439.663 217.982 440.231 218.208 440.439 218.695L451.455 243.879C451.672 244.367 451.455 244.936 450.959 245.144C450.832 245.198 450.706 245.225 450.571 245.225H450.58Z" fill="#4F2B2B"/>
<path d="M446.119 251.519C445.749 251.519 445.397 251.302 445.234 250.941L434.218 225.757C434.001 225.269 434.218 224.7 434.715 224.492C435.202 224.276 435.771 224.501 435.979 224.989L446.995 250.173C447.212 250.661 446.995 251.23 446.498 251.437C446.372 251.491 446.246 251.519 446.11 251.519H446.119Z" fill="#4F2B2B"/>
<path d="M441.659 257.821C441.288 257.821 440.936 257.604 440.774 257.243L429.757 232.059C429.541 231.571 429.757 231.002 430.254 230.795C430.742 230.578 431.311 230.804 431.518 231.291L442.535 256.475C442.751 256.963 442.535 257.532 442.038 257.74C441.912 257.794 441.785 257.821 441.65 257.821H441.659Z" fill="#4F2B2B"/>
<path d="M437.197 264.115C436.827 264.115 436.475 263.899 436.312 263.537L425.296 238.353C425.079 237.866 425.296 237.297 425.793 237.089C426.28 236.872 426.849 237.098 427.057 237.586L438.073 262.77C438.29 263.257 438.073 263.826 437.577 264.034C437.45 264.088 437.324 264.115 437.188 264.115H437.197Z" fill="#4F2B2B"/>
<path d="M432.735 270.408C432.365 270.408 432.012 270.191 431.85 269.83L420.834 244.646C420.617 244.158 420.834 243.589 421.33 243.382C421.818 243.165 422.387 243.391 422.594 243.878L433.611 269.063C433.827 269.55 433.611 270.119 433.114 270.327C432.988 270.381 432.861 270.408 432.726 270.408H432.735Z" fill="#4F2B2B"/>
<path d="M428.277 276.702C427.907 276.702 427.555 276.486 427.392 276.125L416.376 250.94C416.159 250.453 416.376 249.884 416.872 249.676C417.36 249.46 417.929 249.685 418.137 250.173L429.153 275.357C429.37 275.845 429.153 276.413 428.656 276.621C428.53 276.675 428.404 276.702 428.268 276.702H428.277Z" fill="#4F2B2B"/>
<path d="M371.704 136.885L340.579 123.945L329.382 174.665L355.613 185.158L371.704 136.885Z" fill="#BF8888"/>
</g>
</svg>
