<svg width="700" height="400" viewBox="0 0 700 400" fill="none" xmlns="http://www.w3.org/2000/svg">
<mask id="mask0_393_1921" style="mask-type:alpha" maskUnits="userSpaceOnUse" x="0" y="0" width="700" height="400">
<rect width="700" height="400" rx="20" fill="white"/>
</mask>
<g mask="url(#mask0_393_1921)">
<path d="M561.906 398.621C560.89 398.341 560.205 397.456 560.13 396.461L503.819 395.583C503.805 395.711 503.782 395.84 503.748 395.967C503.39 397.263 502.052 398.022 500.756 397.666C499.461 397.31 498.702 395.969 499.058 394.674C499.115 394.467 499.199 394.276 499.302 394.098L473.838 375.921C473.242 376.609 472.287 376.935 471.352 376.677C470.057 376.321 469.297 374.98 469.654 373.685C469.812 373.113 470.163 372.645 470.615 372.331L453.766 342.38C453.267 342.602 452.693 342.66 452.126 342.505C451.512 342.335 451.021 341.944 450.709 341.444L378.079 377.78C378.264 378.25 378.305 378.784 378.161 379.309C377.805 380.604 376.465 381.364 375.169 381.008C373.874 380.651 373.115 379.311 373.471 378.016C373.576 377.639 373.765 377.31 374.009 377.038L307.394 304.915C306.945 306.059 305.694 306.704 304.483 306.37C303.188 306.014 302.428 304.674 302.784 303.378C302.817 303.26 302.86 303.149 302.909 303.04L271.412 285.405C270.84 286.235 269.789 286.655 268.763 286.372C268.247 286.23 267.818 285.929 267.508 285.54L229.314 310.558L229.846 310.868L228.944 310.798L228.714 310.949L228.689 310.778L151.525 304.802C151.51 304.881 151.494 304.959 151.473 305.038C151.116 306.333 149.776 307.093 148.481 306.737C147.186 306.381 146.426 305.04 146.782 303.745C147.138 302.45 148.479 301.69 149.774 302.046C150.255 302.179 150.663 302.45 150.967 302.802L179.273 282.582C179.284 282.517 179.298 282.453 179.316 282.388C179.404 282.064 179.556 281.775 179.752 281.527L136.978 240.843C136.382 241.362 135.55 241.583 134.731 241.357C133.436 241.001 132.676 239.66 133.032 238.365C133.389 237.07 134.729 236.31 136.024 236.667C136.536 236.807 136.964 237.105 137.271 237.491L171.421 214.918C171.137 214.388 171.045 213.752 171.219 213.124C171.451 212.282 172.098 211.67 172.875 211.439L167.243 182.837C166.95 182.867 166.648 182.847 166.348 182.764C165.052 182.407 164.293 181.067 164.649 179.772C165.005 178.477 166.346 177.717 167.641 178.073C168.427 178.291 169.014 178.87 169.276 179.581L200.514 171.29C200.456 170.95 200.468 170.594 200.566 170.239C200.887 169.076 201.998 168.347 203.16 168.467L208.159 135.766C206.88 135.397 206.133 134.069 206.488 132.783C206.844 131.488 208.185 130.728 209.48 131.084C209.705 131.146 209.914 131.24 210.105 131.357L225.51 111.922C224.885 111.324 224.599 110.41 224.846 109.517C224.91 109.284 225.007 109.071 225.129 108.878L195.117 86.0576C194.519 86.7075 193.589 87.0107 192.68 86.7586C191.384 86.4024 190.625 85.062 190.981 83.7668C191.337 82.4716 192.678 81.712 193.973 82.0681C194.068 82.0943 194.157 82.1278 194.247 82.1635L219.978 32.8663C219.109 32.3051 218.663 31.2252 218.953 30.1764C219.309 28.8812 220.649 28.1216 221.945 28.4777C223.24 28.8339 223.999 30.1744 223.643 31.4695C223.542 31.8392 223.357 32.1635 223.119 32.4324L278.877 91.7237C279.449 91.3271 280.185 91.1774 280.908 91.3769C282.204 91.733 282.963 93.0735 282.607 94.3687C282.251 95.6638 280.911 96.4234 279.615 96.0673C279.487 96.0311 279.365 95.983 279.246 95.93L263.593 119.898C264.363 120.481 264.745 121.496 264.472 122.484C264.384 122.805 264.233 123.094 264.04 123.34L311.722 171.388C312.313 170.902 313.123 170.701 313.915 170.918C315.211 171.275 315.97 172.615 315.614 173.91C315.258 175.205 313.917 175.965 312.622 175.609C312.325 175.527 312.057 175.39 311.825 175.218L290.962 198.565C291.517 199.161 291.761 200.023 291.527 200.867L291.602 200.656L366.609 227.33C367.1 226.269 368.297 225.687 369.459 226.007C370.059 226.172 370.542 226.551 370.854 227.035L400.366 211.638C400.168 211.157 400.12 210.612 400.271 210.072C400.63 208.776 401.968 208.017 403.263 208.373C404.558 208.729 405.318 210.07 404.962 211.365C404.823 211.87 404.533 212.293 404.154 212.599L432.25 254.288C432.786 253.995 433.429 253.9 434.063 254.075C435.359 254.431 436.118 255.771 435.762 257.067C435.613 257.606 435.294 258.051 434.877 258.361L451.037 284.561C451.554 284.303 452.163 284.228 452.763 284.393C454.058 284.749 454.818 286.089 454.461 287.385C454.424 287.522 454.372 287.651 454.315 287.775L502.354 317.391C502.942 316.643 503.94 316.281 504.914 316.549C505.647 316.752 506.209 317.268 506.494 317.916L543.453 306.331C543.363 305.948 543.365 305.537 543.476 305.13C543.832 303.835 545.173 303.075 546.468 303.431C547.763 303.79 548.523 305.128 548.167 306.423C548.163 306.432 548.16 306.442 548.158 306.451L574.727 319.926L588.771 327.048C589.357 326.284 590.365 325.907 591.351 326.179C592.646 326.535 593.406 327.875 593.05 329.17C592.771 330.177 591.901 330.858 590.919 330.946L586.902 365.399C586.934 365.407 586.968 365.412 587.003 365.422C588.299 365.778 589.058 367.119 588.702 368.414C588.346 369.709 587.005 370.469 585.71 370.113C585.403 370.027 585.127 369.887 584.888 369.705L564.272 394.556C564.87 395.155 565.14 396.047 564.897 396.922C564.541 398.217 563.201 398.977 561.906 398.621ZM588.873 330.124C588.354 329.528 588.134 328.696 588.359 327.877C588.403 327.719 588.462 327.571 588.531 327.43L572.607 319.354L547.995 306.87C547.888 307.082 547.752 307.273 547.594 307.441L572.504 345.693L588.871 330.124L588.873 330.124ZM431.068 257.05L408.41 260.93L411.99 293.206C412.217 293.202 412.45 293.227 412.68 293.291C412.79 293.32 412.893 293.361 412.995 293.405L432.058 258.438C431.568 258.108 431.217 257.612 431.068 257.05ZM402.658 213.147C402.431 213.151 402.198 213.125 401.967 213.062C401.832 213.024 401.708 212.976 401.587 212.919L370.874 265.397C371.333 265.726 371.661 266.204 371.806 266.742L407.919 260.557L402.66 213.147L402.658 213.147ZM174.35 218.577L199.858 205.369L175.933 213.227C176.02 213.606 176.016 214.013 175.907 214.417C175.657 215.324 174.925 215.965 174.066 216.148L174.35 218.577ZM137.721 239.659C137.63 239.982 137.48 240.271 137.285 240.52L180.061 281.201C180.373 280.928 180.75 280.74 181.157 280.654L173.979 219.278L137.627 238.101C137.822 238.58 137.868 239.124 137.721 239.661L137.721 239.659ZM375.531 376.243C375.806 376.212 376.087 376.228 376.37 376.293L389.129 338.198C388.043 337.72 387.441 336.505 387.766 335.326L365.025 326.711L375.531 376.243ZM583.939 368.068C583.934 368.016 583.928 367.963 583.928 367.911L549.049 370.658C549.046 370.861 549.02 371.065 548.965 371.27C548.818 371.807 548.498 372.249 548.086 372.561L551.824 378.579L583.939 368.068ZM492.601 366.495L482.1 365.648C482.087 365.724 482.071 365.8 482.049 365.877C481.917 366.356 481.65 366.761 481.302 367.064L485.883 373.415L543.162 370.57L492.601 366.495ZM482.136 365.201L518.859 368.161L544.224 370.205C544.236 370.13 544.253 370.053 544.274 369.976C544.392 369.549 544.617 369.182 544.914 368.891L515.769 333.246L481.66 363.781C481.96 364.188 482.131 364.682 482.138 365.199L482.136 365.201ZM547.705 372.797C547.186 373.058 546.575 373.135 545.973 372.968C545.389 372.808 544.915 372.447 544.602 371.981L503.648 394.348L551.385 378.722L547.705 372.795L547.705 372.797ZM502.047 392.976C502.631 393.136 503.105 393.497 503.418 393.963L544.387 371.588C544.303 371.391 544.243 371.183 544.211 370.97L486.198 373.852L500.168 393.228C500.717 392.906 501.387 392.795 502.048 392.978L502.047 392.976ZM499.802 393.487L485.663 373.876L474.427 374.434C474.419 374.613 474.393 374.797 474.344 374.976C474.286 375.183 474.203 375.375 474.099 375.552L499.564 393.729C499.638 393.642 499.717 393.56 499.804 393.485L499.802 393.487ZM473.733 372.628C474.093 372.997 474.332 373.471 474.404 373.985L485.349 373.442L480.939 367.326C480.391 367.647 479.72 367.758 479.06 367.575C478.785 367.5 478.535 367.377 478.314 367.222L473.733 372.628ZM478.694 363.018L468.508 333.89L455.094 339.441C455.227 339.869 455.245 340.339 455.118 340.807C455.031 341.121 454.884 341.402 454.698 341.646L478.085 363.416C478.267 363.255 478.472 363.121 478.694 363.018ZM452.072 289.167C451.873 289.163 451.669 289.137 451.467 289.081C451.072 288.971 450.728 288.773 450.45 288.511L424.562 308.996L451.303 338.22C451.656 337.953 452.077 337.784 452.523 337.737L452.072 289.164L452.072 289.167ZM286.872 200.988L261.943 207.973C262.02 208.34 262.016 208.731 261.908 209.117C261.855 209.306 261.781 209.481 261.69 209.646L268.809 215.737L287.05 201.394C286.978 201.264 286.918 201.128 286.87 200.986L286.872 200.988ZM229.415 111.135C229.104 111.849 228.475 112.356 227.746 112.529L229.981 128.55L259.705 122.032C259.683 121.757 259.705 121.472 259.782 121.191L229.415 111.137L229.415 111.135ZM259.781 122.474L230.041 128.995L236.996 178.838C237.246 178.828 237.501 178.853 237.755 178.923C237.783 178.932 237.811 178.942 237.839 178.95L260.947 123.961C260.366 123.638 259.952 123.097 259.781 122.476L259.781 122.474ZM390.756 333.626C390.865 333.655 390.966 333.694 391.068 333.737L410.68 297.654C410.104 297.27 409.721 296.655 409.625 295.974L379.277 297.434L389.656 333.583C390.01 333.517 390.384 333.525 390.756 333.626ZM409.605 295.525C409.613 295.345 409.639 295.167 409.688 294.985C409.739 294.799 409.813 294.627 409.902 294.464L371.551 268.596C371.438 268.788 371.303 268.961 371.147 269.11L379.151 296.987L409.605 295.522L409.605 295.525ZM370.766 269.414C370.501 269.582 370.206 269.701 369.896 269.759L360.718 293.74L359.828 296.062C360.545 296.413 361.031 297.089 361.157 297.857L378.691 297.015L370.766 269.419L370.766 269.414ZM359.402 295.899C359.402 295.899 359.405 295.899 359.407 295.898L360.293 293.586L369.399 269.795C369.204 269.791 369.005 269.764 368.807 269.711C368.482 269.621 368.19 269.468 367.942 269.273L349.531 279.531L357.89 295.97C358.357 295.792 358.884 295.752 359.402 295.897L359.402 295.899ZM389.224 333.708L378.816 297.456L361.186 298.304C361.182 298.498 361.155 298.695 361.101 298.891C360.988 299.298 360.779 299.652 360.504 299.936L388.734 333.965C388.886 333.861 389.051 333.775 389.224 333.708ZM307.509 303.534L356.326 298.234C356.327 298.024 356.354 297.809 356.411 297.598C356.583 296.977 356.98 296.481 357.489 296.17L349.138 279.753L307.35 303.036C307.421 303.196 307.473 303.362 307.507 303.535L307.509 303.534ZM348.936 279.352L339.221 260.25C338.779 260.398 338.291 260.42 337.807 260.285C337.619 260.233 337.442 260.159 337.278 260.068L318.73 285.645L306.731 302.191C306.885 302.326 307.021 302.477 307.133 302.644L348.936 279.352ZM183.908 282.104L205.183 275.311L218.333 271.111C218.251 270.735 218.254 270.338 218.364 269.94C218.578 269.161 219.149 268.579 219.85 268.314L216.652 256.707L183.745 281.775C183.808 281.882 183.863 281.991 183.911 282.103L183.908 282.104ZM282.125 230.092L243.973 237.23C243.999 237.514 243.98 237.809 243.898 238.1C243.759 238.603 243.471 239.023 243.095 239.332L250.198 251.278L282.306 230.548C282.23 230.402 282.168 230.248 282.122 230.09L282.125 230.092ZM242.724 239.585C242.188 239.879 241.543 239.976 240.906 239.799C240.745 239.755 240.595 239.696 240.452 239.623L222.187 268.655C222.349 268.78 222.493 268.926 222.618 269.084L249.822 251.52L242.724 239.583L242.724 239.585ZM220.282 268.194C220.628 268.133 220.993 268.142 221.355 268.241C221.514 268.286 221.667 268.344 221.807 268.415L228.327 258.043L240.06 239.375C239.952 239.292 239.854 239.198 239.762 239.099L217.035 256.414L220.28 268.196L220.282 268.194ZM239.492 238.742C239.144 238.184 239.019 237.491 239.207 236.807C239.284 236.53 239.407 236.28 239.562 236.058L204.144 206.016C203.902 206.252 203.616 206.433 203.301 206.552L216.908 255.944L239.492 238.739L239.492 238.742ZM204.788 204.928C204.711 205.205 204.588 205.455 204.433 205.677L239.852 235.719C240.202 235.375 240.652 235.145 241.137 235.06L238.932 207.181L204.841 204.683C204.827 204.766 204.809 204.847 204.786 204.928L204.788 204.928ZM241.585 235.024C241.789 235.027 241.995 235.053 242.199 235.108C242.262 235.124 242.321 235.148 242.379 235.169L258.184 210.468C257.544 210.025 257.149 209.297 257.132 208.515L239.385 207.215L241.585 235.024ZM258.916 210.814C258.797 210.781 258.684 210.737 258.575 210.689L242.788 235.363C242.985 235.48 243.161 235.622 243.315 235.784L268.45 216.021L261.438 210.02C260.847 210.735 259.87 211.079 258.918 210.816L258.916 210.814ZM243.592 236.136C243.7 236.301 243.788 236.479 243.853 236.667L282.042 229.643C282.016 229.361 282.038 229.07 282.118 228.779C282.195 228.5 282.319 228.247 282.479 228.023L268.8 216.317L243.594 236.136L243.592 236.136ZM336.109 257.296C336.119 257.261 336.131 257.228 336.143 257.193L306.756 241.549L286.497 230.764C286.213 231.196 285.8 231.519 285.326 231.7L296.897 273.468L336.157 258.743C335.999 258.292 335.971 257.791 336.109 257.296ZM283.602 231.703C283.174 231.542 282.818 231.271 282.552 230.93L250.429 251.669L268.362 281.826C268.807 281.614 269.318 281.536 269.834 281.626L283.602 231.703ZM267.975 282.054L250.051 251.912L222.861 269.465C223.104 269.929 223.2 270.47 223.101 271.016L267.132 283.159C267.303 282.703 267.601 282.323 267.975 282.054ZM220.06 272.934C219.316 272.728 218.75 272.198 218.468 271.539L208.882 274.601L184.042 282.534C184.061 282.632 184.076 282.732 184.084 282.833L224.613 283.29L222.889 271.664C222.383 272.692 221.207 273.249 220.06 272.934ZM182.543 280.761C182.913 280.905 183.228 281.132 183.479 281.413L216.524 256.239L202.869 206.674C202.601 206.723 202.324 206.727 202.044 206.682L182.543 280.761ZM204.874 204.237L238.898 206.731L237.076 183.698C236.872 183.695 236.666 183.669 236.462 183.614C235.95 183.473 235.524 183.177 235.217 182.794L204.583 203.132C204.763 203.467 204.866 203.845 204.874 204.237ZM237.523 183.662L239.351 206.762L257.164 208.067C257.178 207.984 257.196 207.903 257.219 207.822C257.335 207.399 257.559 207.034 257.851 206.744L238.479 183.275C238.194 183.47 237.869 183.601 237.525 183.66L237.523 183.662ZM287.306 201.767L269.158 216.035L282.77 227.683C283.254 227.214 283.918 226.957 284.611 226.999L288.392 202.518C287.954 202.367 287.583 202.104 287.306 201.769L287.306 201.767ZM288.83 202.623L285.054 227.07C285.073 227.075 285.091 227.078 285.11 227.083C286.405 227.439 287.165 228.779 286.808 230.074C286.781 230.174 286.746 230.273 286.706 230.367L332.023 254.489L336.321 256.779C336.4 256.633 336.494 256.496 336.599 256.373L290.482 202.271C290.001 202.574 289.42 202.712 288.828 202.625L288.83 202.623ZM339.634 260.068L349.331 279.132L367.61 268.949C367.128 268.383 366.915 267.608 367.087 266.836L340.631 259.029C340.407 259.477 340.056 259.832 339.636 260.066L339.634 260.068ZM411.389 297.979C411.28 297.95 411.179 297.911 411.077 297.867L391.465 333.951C391.613 334.05 391.749 334.165 391.869 334.292L423.906 308.941L413.503 297.569C412.919 298.01 412.147 298.186 411.387 297.977L411.389 297.979ZM450.429 339.509C450.533 339.128 450.727 338.796 450.975 338.521L424.214 309.272L392.15 334.644C392.392 335.016 392.533 335.453 392.545 335.908L450.373 339.77C450.386 339.683 450.404 339.595 450.429 339.509ZM387.927 334.903C388.048 334.658 388.206 334.438 388.394 334.251L360.169 300.228C359.961 300.377 359.729 300.489 359.482 300.567L364.916 326.187L387.928 334.905L387.927 334.903ZM359.042 300.658C358.739 300.695 358.425 300.674 358.112 300.589C357.181 300.332 356.53 299.57 356.367 298.682L307.558 303.981C307.56 304.134 307.55 304.289 307.521 304.445L364.413 325.998L359.038 300.661L359.042 300.658ZM305.775 301.673C305.989 301.732 306.186 301.82 306.367 301.927L336.906 259.815C336.679 259.627 336.488 259.401 336.344 259.15L297.017 273.9L304.698 301.626C305.046 301.562 305.41 301.574 305.775 301.673ZM296.476 273.625L284.894 231.82C284.617 231.869 284.329 231.875 284.036 231.822L270.268 281.745C270.868 281.971 271.33 282.415 271.595 282.961L296.476 273.628L296.476 273.625ZM267.014 283.591L223.328 271.543L225.071 283.294L266.992 283.767C266.997 283.708 267.005 283.651 267.014 283.591ZM184.079 283.28C184.066 283.412 184.044 283.544 184.008 283.676C183.972 283.808 183.922 283.933 183.867 284.054L228.595 310.133L224.682 283.739L184.082 283.28L184.079 283.28ZM181.605 280.596C181.738 280.593 181.874 280.601 182.009 280.621L182.142 280.526L201.611 206.565C201.095 206.377 200.679 206.028 200.398 205.593L174.407 219.05L181.602 280.594L181.605 280.596ZM167.682 182.745L173.315 211.348C173.607 211.317 173.91 211.337 174.21 211.421C174.403 211.473 174.58 211.551 174.748 211.644L186.833 194.041L168.88 181.953C168.57 182.334 168.151 182.608 167.685 182.745L167.682 182.745ZM175.118 211.899C175.413 212.143 175.644 212.453 175.793 212.799L200.071 204.825C199.984 204.446 199.989 204.039 200.098 203.635C200.148 203.449 200.223 203.276 200.31 203.116L187.204 194.291L175.118 211.899ZM200.56 202.744C200.98 202.23 201.594 201.908 202.259 201.859L202.752 173.31C202.591 173.3 202.425 173.272 202.262 173.228C202.095 173.183 201.937 173.118 201.789 173.041L187.455 193.922L200.557 202.744L200.56 202.744ZM203.202 173.297L202.775 197.997L205.09 171.963C204.723 172.703 204.005 173.199 203.202 173.297ZM202.879 201.891C202.948 201.904 203.018 201.919 203.087 201.936C203.599 202.077 204.025 202.373 204.332 202.756L234.965 182.418C234.679 181.886 234.587 181.248 234.76 180.62C234.912 180.066 235.246 179.611 235.678 179.299L209.794 135.66C209.47 135.8 209.111 135.869 208.747 135.858L202.877 201.893L202.879 201.891ZM236.065 179.071C236.22 178.999 236.381 178.939 236.551 178.898L229.602 129.091L211.243 133.116C211.282 133.428 211.264 133.751 211.174 134.074C211.014 134.658 210.653 135.129 210.189 135.442L236.065 179.069L236.065 179.071ZM211.142 132.68L229.537 128.646L227.296 112.59C227.047 112.6 226.791 112.575 226.538 112.505C226.289 112.436 226.061 112.332 225.855 112.197L210.458 131.625C210.775 131.912 211.01 132.276 211.14 132.68L211.142 132.68ZM227.833 107.814C229.096 108.163 229.847 109.443 229.553 110.707L259.795 120.72L195.786 86.0008L225.393 108.513C225.991 107.863 226.921 107.56 227.831 107.812L227.833 107.814ZM195.664 85.0562C195.635 85.1631 195.596 85.2666 195.552 85.366L260.155 120.406C260.37 120.111 260.647 119.869 260.964 119.698L247.828 90.4506L195.699 84.89C195.686 84.9454 195.676 85.0007 195.662 85.0564L195.664 85.0562ZM261.478 124.181C261.436 124.169 261.396 124.153 261.356 124.139L238.252 179.122C238.902 179.466 239.349 180.088 239.491 180.791L260.219 178.612L261.826 124.248C261.709 124.233 261.594 124.214 261.478 124.181ZM239.538 181.238C239.541 181.461 239.515 181.687 239.451 181.915C239.335 182.338 239.112 182.703 238.819 182.993L258.192 206.462C258.548 206.219 258.969 206.073 259.406 206.045L260.204 179.068L239.536 181.24L239.538 181.238ZM259.859 206.059C259.976 206.073 260.093 206.093 260.209 206.126C260.725 206.268 261.154 206.568 261.464 206.956L311.12 174.403C311.01 174.195 310.931 173.973 310.883 173.739L260.659 179.018L259.861 206.058L259.859 206.059ZM311.365 174.779L261.711 207.332C261.748 207.4 261.782 207.471 261.81 207.545L286.77 200.552C286.725 200.234 286.744 199.902 286.834 199.574C287.192 198.279 288.531 197.52 289.826 197.876C290.123 197.957 290.391 198.094 290.623 198.266L311.484 174.92C311.441 174.875 311.402 174.827 311.363 174.779L311.365 174.779ZM290.837 201.996L336.918 256.059C337.507 255.579 338.312 255.382 339.101 255.599C339.454 255.698 339.768 255.87 340.031 256.095L366.922 229.882C366.455 229.306 366.26 228.525 366.457 227.755L291.455 201.083C291.318 201.442 291.105 201.752 290.837 201.999L290.837 201.996ZM368.164 230.696C367.81 230.597 367.496 230.425 367.233 230.202L340.935 255.838L368.701 235.399L368.624 230.778C368.472 230.767 368.315 230.741 368.162 230.698L368.164 230.696ZM340.536 256.69C340.868 257.243 340.984 257.921 340.799 258.591C340.798 258.598 340.794 258.605 340.793 258.614L367.223 266.413C367.573 265.595 368.336 265.05 369.193 264.955L368.714 235.949L340.539 256.69L340.536 256.69ZM369.641 264.946C369.794 264.958 369.95 264.984 370.103 265.027C370.236 265.065 370.363 265.112 370.484 265.169L401.197 212.691C401.05 212.584 400.916 212.465 400.795 212.331L369.156 235.622L369.641 264.946ZM371.879 267.184C371.901 267.457 371.879 267.737 371.802 268.018C371.786 268.077 371.764 268.133 371.745 268.189L410.153 294.096C410.507 293.664 411 293.368 411.543 293.255L407.966 261.004L371.879 267.184ZM414.449 295.334C414.488 295.641 414.468 295.964 414.379 296.283C414.275 296.664 414.081 296.996 413.833 297.271L424.257 308.664L450.152 288.174C450.013 287.983 449.903 287.773 449.823 287.551L414.447 295.336L414.449 295.334ZM452.523 289.133L452.975 337.735C453.123 337.747 453.272 337.772 453.419 337.813C454.093 337.999 454.619 338.452 454.921 339.025L468.359 333.465L452.833 289.06C452.73 289.091 452.627 289.115 452.52 289.133L452.523 289.133ZM468.926 333.717L479.118 362.87C479.512 362.772 479.934 362.768 480.353 362.885C480.453 362.912 480.547 362.948 480.641 362.985L498.444 329.384L502.928 320.921C502.572 320.686 502.289 320.361 502.101 319.99L468.928 333.717L468.926 333.717ZM503.621 321.239C503.519 321.212 503.42 321.174 503.323 321.133L481.038 363.194C481.154 363.27 481.26 363.354 481.36 363.447L515.484 332.899L505.662 320.887C505.087 321.288 504.347 321.441 503.621 321.239ZM516.104 332.947L545.262 368.608C545.593 368.386 545.975 368.246 546.38 368.206L545.989 308.201C545.723 308.22 545.449 308.197 545.177 308.121C544.856 308.033 544.567 307.883 544.321 307.69L516.106 332.949L516.104 332.947ZM547.253 307.741C547.007 307.918 546.73 308.051 546.435 308.127L546.827 368.202C546.972 368.214 547.12 368.239 547.264 368.28C547.629 368.382 547.948 368.561 548.217 368.794L572.171 346.008L547.251 307.741L547.253 307.741ZM548.528 369.118C548.778 369.435 548.946 369.808 549.016 370.21L583.943 367.46C583.958 367.345 583.978 367.233 584.009 367.119C584.173 366.526 584.542 366.047 585.02 365.735L572.423 346.391L548.528 369.118ZM584.04 368.509L552.071 378.973L561.467 394.101C561.986 393.841 562.596 393.763 563.199 393.93C563.466 394.004 563.709 394.12 563.925 394.269L584.556 369.401C584.323 369.143 584.147 368.841 584.04 368.509ZM560.137 396.013C560.15 395.885 560.173 395.757 560.207 395.629C560.354 395.092 560.673 394.65 561.085 394.338L551.632 379.116L503.775 394.781C503.801 394.896 503.818 395.016 503.826 395.135L560.137 396.013ZM471.008 372.109C471.506 371.887 472.08 371.829 472.647 371.984C472.922 372.059 473.172 372.182 473.393 372.337L477.974 366.93C477.387 366.333 477.125 365.448 477.363 364.583C477.45 364.269 477.596 363.987 477.783 363.744L454.396 341.973C454.321 342.04 454.242 342.102 454.16 342.161L471.01 372.111L471.008 372.109ZM450.511 341.04C450.409 340.782 450.351 340.506 450.343 340.22L392.515 336.358C392.502 336.445 392.484 336.533 392.459 336.619C392.111 337.884 390.824 338.636 389.557 338.338L376.798 376.433C377.257 376.636 377.628 376.967 377.881 377.374L450.511 341.038L450.511 341.04ZM374.34 376.728C374.566 376.555 374.823 376.422 375.096 376.337L364.529 326.521L308.288 305.216L374.34 376.73L374.34 376.728ZM303.129 302.642C303.411 302.231 303.812 301.922 304.268 301.748L296.598 274.062L271.755 283.382C271.865 283.79 271.876 284.232 271.754 284.669C271.722 284.788 271.679 284.898 271.63 285.007L303.127 302.642L303.129 302.642ZM267.263 285.159C267.11 284.87 267.016 284.551 266.988 284.219L225.139 283.747L229.058 310.186L267.263 285.161L267.263 285.159ZM151.23 303.165C151.437 303.52 151.555 303.93 151.561 304.351L227.926 310.264L183.642 284.442C183.065 285.247 182.028 285.652 181.016 285.375C179.979 285.088 179.289 284.174 179.234 283.157L151.228 303.163L151.23 303.165ZM139.024 236.871L173.926 218.798L173.622 216.202C173.39 216.208 173.152 216.181 172.917 216.116C172.406 215.975 171.977 215.677 171.668 215.292L139.022 236.871L139.024 236.871ZM169.394 180.014C169.452 180.353 169.44 180.711 169.342 181.065C169.291 181.251 169.217 181.421 169.13 181.584L187.087 193.674L201.416 172.8C201.057 172.52 200.789 172.144 200.632 171.722L169.394 180.014ZM203.602 168.553C204.425 168.797 205.025 169.438 205.249 170.209L207.888 140.514L203.602 168.551L203.602 168.553ZM194.645 82.3678C195.346 82.8203 195.767 83.607 195.756 84.4459L247.622 89.9799L222.088 33.1256C221.641 33.2787 221.144 33.3038 220.654 33.1702C220.559 33.144 220.467 33.1108 220.38 33.0748L194.646 82.37L194.645 82.3678ZM222.792 32.7399C222.698 32.813 222.599 32.8821 222.495 32.9405L248.138 90.0318L277.89 93.2048C277.899 93.161 277.908 93.1171 277.919 93.0731C278.033 92.6568 278.25 92.2976 278.534 92.0103L222.792 32.7399ZM278.859 95.7064C278.201 95.2405 277.81 94.4709 277.835 93.6531L248.353 90.5083L261.386 119.523C261.822 119.382 262.303 119.361 262.778 119.492C262.931 119.534 263.077 119.591 263.215 119.66L278.859 95.7064ZM263.734 123.666C263.332 124.017 262.822 124.231 262.281 124.263L260.677 178.567L310.841 173.294C310.838 173.071 310.864 172.845 310.928 172.617C311.025 172.27 311.191 171.963 311.408 171.704L263.736 123.666L263.734 123.666ZM371.16 228.999C370.887 229.987 370.041 230.663 369.079 230.769L369.15 235.072L400.131 212.266L371.063 227.433C371.261 227.913 371.309 228.459 371.158 229.001L371.16 228.999ZM403.783 212.848C403.571 212.963 403.343 213.048 403.107 213.095L408.363 260.481L430.994 256.606C430.972 256.333 430.995 256.05 431.071 255.771C431.21 255.267 431.5 254.843 431.879 254.537L403.783 212.848ZM434.496 258.597C433.979 258.855 433.37 258.93 432.77 258.765C432.661 258.736 432.557 258.695 432.456 258.651L413.392 293.618C413.851 293.927 414.186 294.379 414.353 294.897L449.716 287.116C449.663 286.785 449.676 286.436 449.773 286.091C449.922 285.552 450.241 285.107 450.658 284.797L434.498 258.597L434.496 258.597ZM454.087 288.162C453.866 288.468 453.578 288.715 453.251 288.887L468.777 333.292L501.933 319.572C501.81 319.153 501.796 318.696 501.922 318.245C501.97 318.075 502.032 317.917 502.111 317.767L454.087 288.158L454.087 288.162ZM506.638 318.341C506.728 318.725 506.726 319.136 506.615 319.543C506.501 319.956 506.288 320.313 506.006 320.598L515.821 332.6L543.995 307.376C543.833 307.19 543.698 306.981 543.6 306.756L506.638 318.341ZM590.468 330.943C590.331 330.931 590.195 330.907 590.058 330.869C589.735 330.781 589.446 330.631 589.197 330.436L572.754 346.076L585.418 365.523C585.74 365.388 586.094 365.321 586.455 365.338L590.465 330.944L590.468 330.943Z" fill="#2B6577"/>
<path d="M383.4 264.299L355.08 257.384C351.982 256.624 350.01 253.58 350.59 250.442C351.169 247.304 354.107 245.166 357.272 245.572L386.185 249.283L383.393 264.305L383.4 264.299Z" fill="#FB8876"/>
<path d="M406.217 249.222L382.161 231.015L354.16 230.189C351.236 230.102 348.724 232.254 348.358 235.159C347.985 238.13 349.983 240.875 352.928 241.441L373.06 246.291L393.213 269.048L406.217 249.216V249.222Z" fill="#FFBE97"/>
<path d="M384.992 261.101L349.877 250.549C346.779 249.789 344.807 246.745 345.387 243.607C345.966 240.469 348.904 238.331 352.069 238.737L377.051 245.599L384.992 261.101Z" fill="#FB8876"/>
<path d="M364.927 119.288C364.927 115.104 361.536 111.713 357.352 111.713H174.454C170.27 111.713 166.879 115.104 166.879 119.288V130.227H364.927V119.288Z" fill="#FADBE9"/>
<path d="M364.927 130.227V243.28C364.927 247.464 361.536 250.855 357.352 250.855H174.454C170.27 250.855 166.879 247.464 166.879 243.28V130.227H364.927Z" fill="#F29EC3"/>
<path d="M182.029 121.247C182.029 123.419 180.27 125.178 178.098 125.178C175.926 125.178 174.167 123.419 174.167 121.247C174.167 119.075 175.926 117.316 178.098 117.316C180.27 117.316 182.029 119.075 182.029 121.247Z" fill="#4F2B2B"/>
<path d="M195.492 121.247C195.492 123.419 193.733 125.178 191.561 125.178C189.39 125.178 187.631 123.419 187.631 121.247C187.631 119.075 189.39 117.316 191.561 117.316C193.733 117.316 195.492 119.075 195.492 121.247Z" fill="white"/>
<path d="M208.963 121.247C208.963 123.419 207.205 125.178 205.033 125.178C202.861 125.178 201.109 123.419 201.109 121.247C201.109 119.075 202.868 117.316 205.033 117.316C207.198 117.316 208.963 119.075 208.963 121.247Z" fill="white"/>
<path d="M234.778 200.671H205.492C201.048 200.671 197.591 196.801 198.084 192.384L200.455 171.392C200.882 167.621 204.066 164.776 207.863 164.776H234.784V200.671H234.778Z" fill="#FADBE9"/>
<path d="M297.034 200.671H326.32C330.764 200.671 334.221 196.801 333.728 192.384L331.357 171.392C330.93 167.621 327.746 164.776 323.948 164.776H297.027V200.671H297.034Z" fill="#FADBE9"/>
<path d="M326.32 201.377H297.034C296.641 201.377 296.321 201.057 296.321 200.664V164.769C296.321 164.376 296.641 164.057 297.034 164.057H323.955C328.112 164.057 331.603 167.174 332.063 171.305L334.435 192.297C334.694 194.602 333.955 196.92 332.409 198.652C330.864 200.384 328.645 201.377 326.32 201.377ZM297.74 199.958H326.32C328.239 199.958 330.071 199.139 331.35 197.706C332.629 196.274 333.235 194.362 333.022 192.457L330.651 171.465C330.264 168.054 327.386 165.482 323.955 165.482H297.747V199.951L297.74 199.958Z" fill="#4F2B2B"/>
<path d="M290.345 226.141H241.466C224.864 226.141 211.674 212.204 212.58 195.629L214.039 168.968C214.878 153.625 227.562 141.62 242.925 141.62H288.879C304.242 141.62 316.926 153.625 317.766 168.968L319.225 195.629C320.131 212.204 306.94 226.141 290.338 226.141H290.345Z" fill="white"/>
<path d="M319.232 196.341C318.858 196.341 318.545 196.048 318.525 195.668L317.066 169.007C316.247 154.05 303.869 142.332 288.886 142.332C288.493 142.332 288.173 142.012 288.173 141.619C288.173 141.226 288.493 140.906 288.886 140.906C304.622 140.906 317.619 153.211 318.479 168.927L319.938 195.588C319.958 195.981 319.658 196.314 319.265 196.334C319.252 196.334 319.238 196.334 319.225 196.334L319.232 196.341Z" fill="#4F2B2B"/>
<path d="M237.582 198.26L239.188 169C239.321 166.569 241.333 164.67 243.764 164.67H288.053C290.485 164.67 292.497 166.575 292.63 169L294.235 198.26C294.382 200.884 292.29 203.096 289.659 203.096H242.159C239.527 203.096 237.435 200.891 237.582 198.26Z" fill="#F29EC3"/>
<path d="M255.177 187.134C253.558 187.134 252.252 185.821 252.252 184.209V177.707C252.252 176.088 253.564 174.782 255.177 174.782C256.795 174.782 258.101 176.095 258.101 177.707V184.209C258.101 185.828 256.789 187.134 255.177 187.134Z" fill="#4F2B2B"/>
<path d="M276.635 187.134C275.016 187.134 273.71 185.821 273.71 184.209V177.707C273.71 176.088 275.023 174.782 276.635 174.782C278.254 174.782 279.56 176.095 279.56 177.707V184.209C279.56 185.828 278.247 187.134 276.635 187.134Z" fill="#4F2B2B"/>
<path d="M312.81 250.855H221.274L225.777 240.036C228.116 234.374 233.639 230.696 239.748 230.696H294.316C300.425 230.696 305.948 234.374 308.306 240.036L312.81 250.855Z" fill="white"/>
<path d="M266.256 199.418C261.785 199.418 257.788 196.587 256.309 192.377C255.969 191.404 256.116 190.325 256.709 189.492C257.302 188.653 258.234 188.173 259.267 188.173H273.251C274.277 188.173 275.209 188.653 275.802 189.492C276.395 190.331 276.542 191.411 276.202 192.377C274.723 196.587 270.726 199.418 266.256 199.418ZM259.267 189.585C258.707 189.585 258.194 189.852 257.868 190.305C257.535 190.771 257.455 191.351 257.648 191.897C258.927 195.541 262.392 197.993 266.256 197.993C270.119 197.993 273.584 195.541 274.863 191.897C275.056 191.351 274.976 190.771 274.643 190.305C274.317 189.845 273.81 189.585 273.251 189.585H259.267Z" fill="#4F2B2B"/>
<path d="M189.183 136.315H145.507C140.811 136.315 137 140.126 137 144.823V165.808C137 170.505 140.811 174.315 145.507 174.315H170.077L184.007 181.69L180.469 174.315H189.183C193.88 174.315 197.691 170.505 197.691 165.808V144.823C197.691 140.126 193.88 136.315 189.183 136.315Z" fill="#DF8711"/>
<path d="M157.539 146.668H142.956C142.562 146.668 142.243 146.348 142.243 145.955C142.243 145.562 142.562 145.242 142.956 145.242H157.539C157.932 145.242 158.251 145.562 158.251 145.955C158.251 146.348 157.932 146.668 157.539 146.668Z" fill="white"/>
<path d="M180.603 146.668H162.076C161.683 146.668 161.363 146.348 161.363 145.955C161.363 145.562 161.683 145.242 162.076 145.242H180.603C180.996 145.242 181.315 145.562 181.315 145.955C181.315 146.348 180.996 146.668 180.603 146.668Z" fill="white"/>
<path d="M174.174 155.176H142.956C142.563 155.176 142.243 154.856 142.243 154.463C142.243 154.07 142.563 153.75 142.956 153.75H174.174C174.567 153.75 174.887 154.07 174.887 154.463C174.887 154.856 174.567 155.176 174.174 155.176Z" fill="white"/>
<path d="M188.357 155.176H178.717C178.324 155.176 178.004 154.856 178.004 154.463C178.004 154.07 178.324 153.75 178.717 153.75H188.357C188.75 153.75 189.07 154.07 189.07 154.463C189.07 154.856 188.75 155.176 188.357 155.176Z" fill="white"/>
<path d="M158.485 163.683H142.956C142.563 163.683 142.243 163.364 142.243 162.971C142.243 162.578 142.563 162.258 142.956 162.258H158.485C158.878 162.258 159.198 162.578 159.198 162.971C159.198 163.364 158.878 163.683 158.485 163.683Z" fill="white"/>
<path d="M182.495 163.683H163.022C162.629 163.683 162.309 163.364 162.309 162.971C162.309 162.578 162.629 162.258 163.022 162.258H182.495C182.888 162.258 183.208 162.578 183.208 162.971C183.208 163.364 182.888 163.683 182.495 163.683Z" fill="white"/>
<path d="M364.927 130.933C364.534 130.933 364.214 130.613 364.214 130.22V119.288C364.214 115.504 361.136 112.426 357.352 112.426C356.959 112.426 356.639 112.106 356.639 111.713C356.639 111.32 356.959 111 357.352 111C361.922 111 365.633 114.717 365.633 119.288V130.226C365.633 130.62 365.313 130.939 364.92 130.939L364.927 130.933Z" fill="#4F2B2B"/>
<path d="M357.351 251.568H174.453C174.06 251.568 173.74 251.248 173.74 250.855C173.74 250.462 174.06 250.142 174.453 250.142H357.351C361.135 250.142 364.213 247.064 364.213 243.28V130.227C364.213 129.833 364.533 129.514 364.926 129.514C365.319 129.514 365.639 129.833 365.639 130.227V243.28C365.639 247.851 361.921 251.568 357.351 251.568Z" fill="#4F2B2B"/>
<path d="M262.825 338.62L292.757 363.33L291.458 305.15L262.825 338.62Z" fill="#FFBE97"/>
<path d="M374.68 215.74H291.212V281.407H374.68V215.74Z" fill="#FADBE9"/>
<path d="M292.111 215.74H253.099V281.407H292.111V215.74Z" fill="#F29EC3"/>
<path d="M386.058 273.606H242.379C238.965 273.606 236.197 276.374 236.197 279.789V283.679C236.197 287.094 238.965 289.862 242.379 289.862H386.058C389.473 289.862 392.24 287.094 392.24 283.679V279.789C392.24 276.374 389.473 273.606 386.058 273.606Z" fill="#DF8711"/>
<path d="M292.757 221.003H252.772C252.379 221.003 252.059 220.683 252.059 220.29C252.059 219.897 252.379 219.577 252.772 219.577H292.757C293.15 219.577 293.47 219.897 293.47 220.29C293.47 220.683 293.15 221.003 292.757 221.003Z" fill="#4F2B2B"/>
<path d="M292.757 225.227H252.772C252.379 225.227 252.059 224.908 252.059 224.515C252.059 224.122 252.379 223.802 252.772 223.802H292.757C293.15 223.802 293.47 224.122 293.47 224.515C293.47 224.908 293.15 225.227 292.757 225.227Z" fill="#4F2B2B"/>
<path d="M292.757 229.451H252.772C252.379 229.451 252.059 229.131 252.059 228.738C252.059 228.345 252.379 228.025 252.772 228.025H292.757C293.15 228.025 293.47 228.345 293.47 228.738C293.47 229.131 293.15 229.451 292.757 229.451Z" fill="#4F2B2B"/>
<path d="M292.757 233.682H252.772C252.379 233.682 252.059 233.362 252.059 232.969C252.059 232.576 252.379 232.256 252.772 232.256H292.757C293.15 232.256 293.47 232.576 293.47 232.969C293.47 233.362 293.15 233.682 292.757 233.682Z" fill="#4F2B2B"/>
<path d="M292.757 237.904H252.772C252.379 237.904 252.059 237.584 252.059 237.191C252.059 236.798 252.379 236.479 252.772 236.479H292.757C293.15 236.479 293.47 236.798 293.47 237.191C293.47 237.584 293.15 237.904 292.757 237.904Z" fill="#4F2B2B"/>
<path d="M292.757 242.129H252.772C252.379 242.129 252.059 241.809 252.059 241.416C252.059 241.023 252.379 240.703 252.772 240.703H292.757C293.15 240.703 293.47 241.023 293.47 241.416C293.47 241.809 293.15 242.129 292.757 242.129Z" fill="#4F2B2B"/>
<path d="M292.757 246.358H252.772C252.379 246.358 252.059 246.039 252.059 245.645C252.059 245.252 252.379 244.933 252.772 244.933H292.757C293.15 244.933 293.47 245.252 293.47 245.645C293.47 246.039 293.15 246.358 292.757 246.358Z" fill="#4F2B2B"/>
<path d="M292.757 250.583H252.772C252.379 250.583 252.059 250.263 252.059 249.87C252.059 249.477 252.379 249.157 252.772 249.157H292.757C293.15 249.157 293.47 249.477 293.47 249.87C293.47 250.263 293.15 250.583 292.757 250.583Z" fill="#4F2B2B"/>
<path d="M292.757 254.813H252.772C252.379 254.813 252.059 254.494 252.059 254.101C252.059 253.707 252.379 253.388 252.772 253.388H292.757C293.15 253.388 293.47 253.707 293.47 254.101C293.47 254.494 293.15 254.813 292.757 254.813Z" fill="#4F2B2B"/>
<path d="M292.757 259.036H252.772C252.379 259.036 252.059 258.716 252.059 258.323C252.059 257.93 252.379 257.61 252.772 257.61H292.757C293.15 257.61 293.47 257.93 293.47 258.323C293.47 258.716 293.15 259.036 292.757 259.036Z" fill="#4F2B2B"/>
<path d="M292.757 263.261H252.772C252.379 263.261 252.059 262.941 252.059 262.548C252.059 262.155 252.379 261.835 252.772 261.835H292.757C293.15 261.835 293.47 262.155 293.47 262.548C293.47 262.941 293.15 263.261 292.757 263.261Z" fill="#4F2B2B"/>
<path d="M292.757 267.49H252.772C252.379 267.49 252.059 267.17 252.059 266.777C252.059 266.384 252.379 266.064 252.772 266.064H292.757C293.15 266.064 293.47 266.384 293.47 266.777C293.47 267.17 293.15 267.49 292.757 267.49Z" fill="#4F2B2B"/>
<path d="M292.757 271.715H252.772C252.379 271.715 252.059 271.395 252.059 271.002C252.059 270.609 252.379 270.289 252.772 270.289H292.757C293.15 270.289 293.47 270.609 293.47 271.002C293.47 271.395 293.15 271.715 292.757 271.715Z" fill="#4F2B2B"/>
<path d="M374.313 221.003H292.764C292.371 221.003 292.051 220.683 292.051 220.29C292.051 219.897 292.371 219.577 292.764 219.577H374.313C374.707 219.577 375.026 219.897 375.026 220.29C375.026 220.683 374.707 221.003 374.313 221.003Z" fill="#F29EC3"/>
<path d="M374.313 225.227H292.764C292.371 225.227 292.051 224.908 292.051 224.515C292.051 224.122 292.371 223.802 292.764 223.802H374.313C374.707 223.802 375.026 224.122 375.026 224.515C375.026 224.908 374.707 225.227 374.313 225.227Z" fill="#F29EC3"/>
<path d="M374.313 229.451H292.764C292.371 229.451 292.051 229.131 292.051 228.738C292.051 228.345 292.371 228.025 292.764 228.025H374.313C374.707 228.025 375.026 228.345 375.026 228.738C375.026 229.131 374.707 229.451 374.313 229.451Z" fill="#F29EC3"/>
<path d="M374.313 233.682H292.764C292.371 233.682 292.051 233.362 292.051 232.969C292.051 232.576 292.371 232.256 292.764 232.256H374.313C374.707 232.256 375.026 232.576 375.026 232.969C375.026 233.362 374.707 233.682 374.313 233.682Z" fill="#F29EC3"/>
<path d="M374.313 237.904H292.764C292.371 237.904 292.051 237.584 292.051 237.191C292.051 236.798 292.371 236.479 292.764 236.479H374.313C374.707 236.479 375.026 236.798 375.026 237.191C375.026 237.584 374.707 237.904 374.313 237.904Z" fill="#F29EC3"/>
<path d="M374.313 242.129H292.764C292.371 242.129 292.051 241.809 292.051 241.416C292.051 241.023 292.371 240.703 292.764 240.703H374.313C374.707 240.703 375.026 241.023 375.026 241.416C375.026 241.809 374.707 242.129 374.313 242.129Z" fill="#F29EC3"/>
<path d="M374.313 246.358H292.764C292.371 246.358 292.051 246.039 292.051 245.645C292.051 245.252 292.371 244.933 292.764 244.933H374.313C374.707 244.933 375.026 245.252 375.026 245.645C375.026 246.039 374.707 246.358 374.313 246.358Z" fill="#F29EC3"/>
<path d="M374.313 250.583H292.764C292.371 250.583 292.051 250.263 292.051 249.87C292.051 249.477 292.371 249.157 292.764 249.157H374.313C374.707 249.157 375.026 249.477 375.026 249.87C375.026 250.263 374.707 250.583 374.313 250.583Z" fill="#F29EC3"/>
<path d="M374.313 254.813H292.764C292.371 254.813 292.051 254.494 292.051 254.101C292.051 253.707 292.371 253.388 292.764 253.388H374.313C374.707 253.388 375.026 253.707 375.026 254.101C375.026 254.494 374.707 254.813 374.313 254.813Z" fill="#F29EC3"/>
<path d="M374.313 259.036H292.764C292.371 259.036 292.051 258.716 292.051 258.323C292.051 257.93 292.371 257.61 292.764 257.61H374.313C374.707 257.61 375.026 257.93 375.026 258.323C375.026 258.716 374.707 259.036 374.313 259.036Z" fill="#F29EC3"/>
<path d="M374.313 263.261H292.764C292.371 263.261 292.051 262.941 292.051 262.548C292.051 262.155 292.371 261.835 292.764 261.835H374.313C374.707 261.835 375.026 262.155 375.026 262.548C375.026 262.941 374.707 263.261 374.313 263.261Z" fill="#F29EC3"/>
<path d="M374.313 267.49H292.764C292.371 267.49 292.051 267.17 292.051 266.777C292.051 266.384 292.371 266.064 292.764 266.064H374.313C374.707 266.064 375.026 266.384 375.026 266.777C375.026 267.17 374.707 267.49 374.313 267.49Z" fill="#F29EC3"/>
<path d="M374.313 271.715H292.764C292.371 271.715 292.051 271.395 292.051 271.002C292.051 270.609 292.371 270.289 292.764 270.289H374.313C374.707 270.289 375.026 270.609 375.026 271.002C375.026 271.395 374.707 271.715 374.313 271.715Z" fill="#F29EC3"/>
<path d="M362.975 243.214L359.471 241.442L355.82 243.214V231.509H362.975V243.214Z" fill="white"/>
<path d="M348.065 260.282L344.534 257.984L340.917 260.282V248.577H348.065V260.282Z" fill="white"/>
<path d="M319.139 253.101L315.601 250.796L311.984 253.101V244.467H319.139V253.101Z" fill="white"/>
<path d="M384.759 260.928L356.825 258.623C352.595 258.276 348.811 261.241 348.138 265.438C347.512 269.388 349.857 273.212 353.667 274.438L375.325 281.406L382.154 295.057L422.792 277.176L406.21 249.216L385.405 240.762L384.752 260.914L384.759 260.928Z" fill="#FFBE97"/>
<path d="M262.225 316.509L229.948 300.966L205.718 281.187C202.847 278.842 198.663 279.055 196.045 281.673C193.814 283.905 193.287 287.329 194.753 290.127L210.289 317.068L240.108 335.036L262.219 316.509H262.225Z" fill="#FFBE97"/>
<path d="M262.286 309.021L230.008 293.479L205.779 273.7C202.907 271.355 198.724 271.568 196.105 274.186C193.874 276.418 193.347 279.842 194.813 282.64L206.105 304.238L240.174 327.548L262.286 309.021Z" fill="#FFBE97"/>
<path d="M265.216 300.967L232.939 285.424L208.709 265.645C205.838 263.3 201.654 263.513 199.036 266.131C196.804 268.363 196.278 271.787 197.744 274.585L209.036 296.183L243.105 319.494L265.216 300.967Z" fill="#FFBE97"/>
<path d="M275.376 294.392V272.874L263.424 262.115L234.824 258.364C230.534 257.804 226.637 260.922 226.25 265.226C225.964 268.39 227.669 271.395 230.527 272.774L249.248 280.002L254.544 293.239L275.383 294.385L275.376 294.392Z" fill="#FFBE97"/>
<path d="M275.376 294.391L254.91 284.165L237.896 281.52L218.876 259.076C216.004 256.73 211.821 256.944 209.203 259.562C206.971 261.794 206.444 265.218 207.91 268.016L219.202 289.614L253.272 312.924L275.383 294.397L275.376 294.391Z" fill="#FFBE97"/>
<path d="M240.114 335.036L262.825 338.62L291.458 305.151L275.376 272.88L238.315 295.591L240.114 335.036Z" fill="#FFBE97"/>
<path d="M418.729 221.262C431.926 221.262 442.625 211.73 442.625 199.97C442.625 188.211 431.926 178.679 418.729 178.679C405.531 178.679 394.832 188.211 394.832 199.97C394.832 211.73 405.531 221.262 418.729 221.262Z" fill="#4F2B2B"/>
<path d="M421.833 260.661L416.823 233.727L455.609 226.512L455.862 227.857C449.307 243.02 436.563 253.14 421.84 260.661H421.833Z" fill="#FB8876"/>
<path d="M455.863 227.857L461.858 260.075L423.072 267.29L421.84 260.668C436.563 253.14 449.307 243.027 455.863 227.864V227.857Z" fill="#FFBE97"/>
<path d="M421.953 247.983C401.448 245.245 388.91 228.343 391.208 211.255C391.668 207.764 392.807 204.513 394.519 201.562C394.613 201.369 394.719 201.196 394.839 201.022C394.859 200.996 394.879 200.976 394.879 200.949C395.066 200.636 395.252 200.343 395.465 200.05C395.619 199.79 395.792 199.543 395.965 199.297C397.457 197.152 399.263 195.213 401.355 193.501C401.355 193.501 401.361 193.492 401.375 193.474C402.274 192.735 403.213 192.029 404.193 191.376C411.754 186.306 421.827 183.848 432.473 185.267C452.978 188.005 467.755 204.08 465.476 221.168C463.198 238.263 442.466 250.727 421.96 247.989L421.953 247.983Z" fill="#FFBE97"/>
<path d="M421.906 223.48C421.513 225.179 418.642 225.965 415.484 225.239C412.326 224.513 410.088 222.547 410.481 220.849C410.874 219.15 413.745 218.364 416.903 219.09C420.061 219.816 422.299 221.781 421.906 223.48Z" fill="#FB8876"/>
<path d="M397.39 206.007L388.316 213.648C387.144 214.634 387.284 216.479 388.589 217.279L394.838 221.096L397.39 206V206.007Z" fill="#FFBE97"/>
<path d="M402.36 216.012C403.146 216.192 403.932 215.706 404.112 214.913L404.645 212.615C404.825 211.829 404.338 211.042 403.546 210.863C402.759 210.683 401.973 211.169 401.793 211.962L401.261 214.26C401.081 215.046 401.567 215.832 402.36 216.012Z" fill="#4F2B2B"/>
<path d="M431.38 200.629L457.022 237.423C457.022 237.423 472.764 222.661 465.889 206.099C453.664 176.666 409.562 180.697 404.186 191.382L431.38 200.636V200.629Z" fill="#4F2B2B"/>
<path d="M411.68 209.19C411.52 209.19 411.36 209.137 411.227 209.023C408.049 206.385 403.846 205.019 399.742 205.266C399.309 205.293 399.009 204.993 398.989 204.6C398.962 204.207 399.262 203.874 399.655 203.847C404.119 203.58 408.682 205.066 412.14 207.931C412.439 208.184 412.486 208.63 412.233 208.93C412.093 209.097 411.893 209.19 411.687 209.19H411.68Z" fill="#4F2B2B"/>
<path d="M444.903 229.39C439.874 229.39 435.803 225.313 435.803 220.29C435.803 215.26 439.88 211.189 444.903 211.189C449.933 211.189 454.004 215.267 454.004 220.29C454.004 225.32 449.927 229.39 444.903 229.39Z" fill="#FFBE97"/>
<path d="M447.628 189.305C449.567 186.373 453.237 185.141 456.702 184.568C468.154 182.676 478.899 186.4 487.853 193.422C497.719 201.163 506.267 219.53 520.097 220.183C529.91 220.649 539.85 217.518 547.624 211.509L556.372 222.834L548.897 227.384L558.65 226.732L562.874 232.907C562.874 232.907 534.947 258.636 508.292 251.814C479.412 244.419 468.633 200.124 454.33 201.423L447.628 189.291V189.305Z" fill="#4F2B2B"/>
<path d="M531.169 214.9C524.361 214.9 516.766 212.082 509.365 206.673C506.247 204.394 503.262 201.829 500.378 199.351C495.481 195.141 490.418 190.79 484.636 187.806C472.058 181.31 456.815 182.29 446.702 190.251C446.396 190.491 445.949 190.444 445.703 190.131C445.463 189.824 445.51 189.378 445.823 189.132C456.362 180.831 472.224 179.792 485.288 186.54C491.218 189.605 496.341 194.008 501.304 198.265C504.168 200.724 507.133 203.268 510.204 205.52C514.981 209.011 527.319 216.646 538.704 212.082C539.064 211.936 539.477 212.109 539.624 212.475C539.77 212.842 539.59 213.255 539.231 213.401C536.732 214.401 534.021 214.894 531.169 214.894V214.9Z" fill="#4F2B2B"/>
<path d="M438.402 221.262L441.653 212.162L450.107 186.48C450.107 186.48 425.078 169.578 407.523 183.229C391.675 195.56 415.651 206.959 415.651 206.959L415.977 201.109L438.408 221.262H438.402Z" fill="#4F2B2B"/>
<path d="M460.039 183.609C460.859 187.199 458.62 190.77 455.03 191.59C451.439 192.409 447.868 190.171 447.048 186.58C446.229 182.989 448.467 179.418 452.058 178.599C455.649 177.779 459.22 180.018 460.039 183.609Z" fill="#EF9C2E"/>
<path d="M464.536 191.583C465.356 195.174 463.117 198.745 459.527 199.564C455.936 200.384 452.365 198.145 451.546 194.554C450.726 190.964 452.965 187.393 456.555 186.573C460.146 185.754 463.717 187.992 464.536 191.583Z" fill="#EF9C2E"/>
<path d="M442.085 189.684C441.925 189.684 441.765 189.631 441.632 189.518C436.189 185.001 428.348 184.302 422.126 184.202C421.733 184.195 421.42 183.869 421.426 183.482C421.433 183.089 421.799 182.769 422.153 182.783C428.608 182.889 436.756 183.629 442.545 188.425C442.845 188.678 442.891 189.125 442.638 189.425C442.498 189.591 442.298 189.684 442.092 189.684H442.085Z" fill="#4F2B2B"/>
<path d="M434.051 196.28C432.752 196.28 431.447 196.173 430.154 195.967C429.768 195.907 429.501 195.54 429.568 195.154C429.634 194.768 430.014 194.501 430.381 194.568C434.418 195.227 438.555 194.788 442.359 193.295C442.732 193.149 443.138 193.335 443.278 193.695C443.418 194.061 443.238 194.475 442.878 194.614C440.054 195.72 437.063 196.28 434.051 196.28Z" fill="#4F2B2B"/>
<path d="M524.287 224.445C521.103 224.445 517.725 223.939 514.241 222.926C508.405 221.234 502.816 218.336 498.066 214.545C495.108 212.18 492.423 209.449 489.825 206.798C487.72 204.652 485.541 202.427 483.243 200.435C479.019 196.778 472.504 192.494 465.369 192.874C465.009 192.901 464.643 192.594 464.623 192.201C464.603 191.808 464.902 191.475 465.295 191.455C471.298 191.155 477.833 193.873 484.175 199.363C486.52 201.395 488.719 203.633 490.844 205.805C493.409 208.423 496.06 211.128 498.952 213.433C503.555 217.11 508.985 219.915 514.641 221.554C520.983 223.393 526.952 223.499 531.882 221.854C532.255 221.727 532.655 221.927 532.781 222.3C532.908 222.673 532.701 223.073 532.335 223.199C529.863 224.025 527.159 224.432 524.287 224.432V224.445Z" fill="#4F2B2B"/>
<path d="M531.363 233.839H531.356C517.433 233.646 503.203 232.267 493.436 223.507C490.398 220.782 487.894 217.418 485.475 214.16C481.758 209.164 478.254 204.44 472.957 201.835C472.604 201.662 472.458 201.236 472.631 200.883C472.804 200.53 473.23 200.39 473.584 200.556C479.186 203.314 482.957 208.397 486.614 213.307C488.993 216.505 491.451 219.816 494.382 222.441C503.802 230.882 517.726 232.221 531.376 232.407C531.769 232.407 532.082 232.734 532.076 233.127C532.076 233.513 531.756 233.826 531.363 233.826V233.839Z" fill="#4F2B2B"/>
<path d="M457.402 225.751C457.222 225.751 457.042 225.685 456.902 225.545C456.622 225.272 456.616 224.819 456.889 224.539C459.287 222.094 460.579 218.39 460.533 214.106C460.493 210.209 459.414 206.358 458.374 202.628C458.268 202.248 458.488 201.855 458.867 201.755C459.247 201.642 459.64 201.868 459.74 202.248C460.806 206.065 461.912 210.009 461.952 214.093C462.005 218.756 460.566 222.82 457.901 225.538C457.761 225.678 457.575 225.751 457.395 225.751H457.402Z" fill="#4F2B2B"/>
<path d="M401.068 233.453C398.763 233.453 396.958 230.942 396.958 227.73C396.958 224.519 398.763 222.008 401.068 222.008C403.373 222.008 405.178 224.519 405.178 227.73C405.178 230.942 403.373 233.453 401.068 233.453ZM401.068 223.433C399.609 223.433 398.377 225.405 398.377 227.737C398.377 230.069 399.609 232.034 401.068 232.034C402.527 232.034 403.759 230.062 403.759 227.737C403.759 225.412 402.527 223.433 401.068 223.433Z" fill="#4F2B2B"/>
<path d="M459.746 254.046C438.595 250.015 414.445 256.584 396.138 268.402C364.926 288.555 336.32 326.268 336.32 326.268L291.458 305.15L260.247 355.521C260.247 355.521 307.06 397.785 345.42 394.534C383.78 391.283 400.688 372.429 400.688 372.429L409.142 400.389H525.92C526.819 391.289 526.36 371.656 522.269 349.678C517.466 323.843 509.944 300.526 495.535 277.982C486.714 264.185 473.903 256.744 459.74 254.046H459.746Z" fill="#3F97B1"/>
<path d="M222.387 293.198C222.14 293.198 221.9 293.072 221.774 292.839L207.024 267.123C206.831 266.784 206.944 266.351 207.284 266.157C207.624 265.964 208.057 266.078 208.257 266.417L223.006 292.133C223.2 292.472 223.086 292.905 222.746 293.099C222.633 293.165 222.513 293.192 222.393 293.192L222.387 293.198Z" fill="#4F2B2B"/>
<path d="M212.94 301.899C212.694 301.899 212.46 301.772 212.327 301.545L197.204 275.45C197.005 275.111 197.124 274.678 197.464 274.478C197.797 274.278 198.237 274.398 198.437 274.738L213.56 300.833C213.759 301.172 213.64 301.605 213.3 301.805C213.187 301.872 213.067 301.899 212.94 301.899Z" fill="#4F2B2B"/>
<path d="M210.668 309.461C210.428 309.461 210.195 309.341 210.062 309.121L196.072 286.058C195.872 285.724 195.979 285.285 196.312 285.078C196.645 284.878 197.085 284.985 197.291 285.318L211.281 308.382C211.481 308.715 211.374 309.155 211.041 309.361C210.928 309.428 210.802 309.461 210.675 309.461H210.668Z" fill="#4F2B2B"/>
<path d="M249.241 279.961C249.241 279.961 249.174 279.961 249.141 279.961C248.795 279.914 240.607 278.762 233.012 274.585C225.131 270.248 225.518 265.371 225.538 265.165C225.578 264.772 225.937 264.499 226.317 264.525C226.704 264.565 226.99 264.905 226.957 265.298C226.957 265.371 226.744 269.508 233.705 273.339C241.06 277.383 249.261 278.542 249.341 278.549C249.727 278.602 250.001 278.962 249.947 279.348C249.901 279.701 249.594 279.961 249.248 279.961H249.241Z" fill="#4F2B2B"/>
<path d="M329.951 351.199C329.591 351.199 329.285 350.926 329.245 350.559C328.379 342.172 330.737 333.458 335.714 326.65C335.947 326.33 336.393 326.263 336.706 326.496C337.019 326.729 337.093 327.176 336.859 327.489C332.089 334.018 329.824 342.372 330.657 350.413C330.697 350.806 330.417 351.152 330.024 351.192C329.998 351.192 329.978 351.192 329.951 351.192V351.199Z" fill="#4F2B2B"/>
</g>
</svg>
