<svg width="700" height="400" viewBox="0 0 700 400" fill="none" xmlns="http://www.w3.org/2000/svg">
<mask id="mask0_393_2172" style="mask-type:alpha" maskUnits="userSpaceOnUse" x="0" y="0" width="700" height="400">
<rect width="700" height="400" rx="20" fill="white"/>
</mask>
<g mask="url(#mask0_393_2172)">
<path d="M623.331 276.307C622.355 275.91 621.273 276.195 620.608 276.939L575.398 243.355C575.465 243.246 575.526 243.13 575.577 243.008C576.081 241.762 575.482 240.345 574.237 239.839C572.993 239.333 571.574 239.934 571.068 241.178C570.988 241.377 570.937 241.58 570.911 241.784L539.644 240.703C539.59 239.794 539.031 238.955 538.132 238.59C536.887 238.085 535.469 238.686 534.963 239.93C534.741 240.481 534.734 241.065 534.901 241.59L503.301 255.094C503.041 254.614 502.621 254.219 502.076 253.996C501.485 253.758 500.858 253.769 500.306 253.976L464.805 180.935C465.238 180.674 465.595 180.275 465.801 179.771C466.307 178.527 465.705 177.108 464.461 176.602C463.217 176.096 461.798 176.697 461.292 177.942C461.146 178.304 461.096 178.681 461.124 179.045L364.369 195.712C364.71 194.53 364.11 193.258 362.946 192.785C361.701 192.279 360.283 192.88 359.777 194.124C359.73 194.238 359.697 194.352 359.67 194.469L323.946 189.285C323.997 188.278 323.419 187.305 322.433 186.906C321.937 186.704 321.414 186.681 320.931 186.802L305.86 143.702L306.47 143.78L305.713 143.287L305.622 143.027L305.498 143.148L240.641 100.914C240.677 100.843 240.712 100.77 240.743 100.695C241.249 99.4505 240.648 98.0318 239.404 97.5259C238.16 97.02 236.741 97.621 236.235 98.8653C235.729 100.11 236.33 101.528 237.574 102.034C238.037 102.222 238.525 102.256 238.98 102.161L249.128 135.435C249.098 135.493 249.07 135.552 249.044 135.615C248.917 135.925 248.862 136.247 248.866 136.563L190.165 142.8C190.008 142.026 189.482 141.344 188.695 141.025C187.45 140.519 186.032 141.12 185.526 142.364C185.02 143.609 185.621 145.027 186.865 145.533C187.357 145.733 187.878 145.758 188.357 145.639L201.708 184.336C201.16 184.583 200.7 185.032 200.455 185.636C200.127 186.445 200.267 187.325 200.744 187.981L178.863 207.244C178.65 207.042 178.397 206.873 178.108 206.757C176.864 206.251 175.445 206.852 174.94 208.097C174.434 209.341 175.035 210.76 176.279 211.265C177.035 211.571 177.854 211.469 178.494 211.065L198.23 236.659C197.977 236.893 197.77 237.183 197.631 237.525C197.178 238.642 197.616 239.897 198.61 240.509L182.669 269.496C181.43 269.01 180.029 269.609 179.528 270.845C179.022 272.09 179.623 273.508 180.867 274.014C181.084 274.102 181.306 274.155 181.529 274.178L181.92 298.975C181.059 299.069 180.276 299.62 179.929 300.479C179.838 300.702 179.785 300.931 179.764 301.159L142.062 300.993C141.983 300.113 141.43 299.306 140.555 298.953C139.311 298.447 137.892 299.048 137.386 300.292C136.88 301.537 137.481 302.955 138.725 303.461C138.817 303.499 138.908 303.526 139.001 303.552L129.405 358.327C128.373 358.243 127.363 358.828 126.954 359.837C126.448 361.081 127.049 362.5 128.293 363.006C129.537 363.511 130.956 362.91 131.462 361.666C131.607 361.311 131.658 360.941 131.632 360.583L211.962 347.487C212.175 348.15 212.668 348.717 213.363 348.999C214.607 349.505 216.026 348.904 216.532 347.66C217.038 346.415 216.437 344.997 215.192 344.491C215.069 344.442 214.942 344.405 214.816 344.375L216.988 315.831C217.954 315.837 218.875 315.265 219.26 314.314C219.385 314.006 219.442 313.685 219.438 313.372L286.517 304.28C286.689 305.026 287.21 305.678 287.971 305.988C289.215 306.494 290.634 305.893 291.14 304.649C291.646 303.404 291.045 301.986 289.8 301.48C289.515 301.363 289.219 301.309 288.93 301.304L286.591 270.082C287.394 269.946 288.112 269.411 288.441 268.599L288.371 268.812L364.117 293.312C363.86 294.452 364.456 295.642 365.573 296.096C366.149 296.33 366.762 296.324 367.305 296.13L381.345 326.311C380.896 326.572 380.525 326.975 380.317 327.496C379.812 328.741 380.412 330.159 381.656 330.665C382.901 331.17 384.319 330.569 384.825 329.325C385.022 328.84 385.05 328.328 384.936 327.854L432.604 311.884C432.851 312.443 433.303 312.909 433.913 313.157C435.157 313.663 436.576 313.062 437.082 311.818C437.292 311.299 437.31 310.752 437.168 310.252L465.938 299.304C466.191 299.823 466.628 300.253 467.205 300.488C468.449 300.994 469.868 300.393 470.374 299.148C470.427 299.017 470.465 298.882 470.495 298.749L526.637 304.497C526.647 305.449 527.219 306.344 528.155 306.724C528.859 307.009 529.62 306.942 530.24 306.602L552.51 338.292C552.205 338.541 551.956 338.868 551.797 339.259C551.291 340.503 551.892 341.922 553.136 342.428C554.382 342.932 555.799 342.332 556.305 341.088C556.308 341.078 556.311 341.069 556.315 341.061L585.597 346.545L601.074 349.443C601.074 350.406 601.645 351.319 602.592 351.704C603.836 352.21 605.255 351.609 605.761 350.364C606.153 349.396 605.877 348.327 605.151 347.659L622.938 317.88C622.968 317.893 622.999 317.91 623.033 317.923C624.277 318.429 625.696 317.828 626.202 316.584C626.707 315.339 626.106 313.921 624.862 313.415C624.567 313.296 624.262 313.238 623.962 313.238L622.734 280.972C623.573 280.861 624.331 280.317 624.671 279.476C625.177 278.231 624.576 276.813 623.331 276.307ZM603.028 347.065C602.254 347.222 601.572 347.748 601.252 348.535C601.191 348.687 601.148 348.841 601.117 348.994L583.567 345.708L556.441 340.629C556.485 340.396 556.494 340.162 556.47 339.932L599.519 324.748L603.026 347.064L603.028 347.065ZM433.348 308.974L417.734 292.101L440.222 268.675C440.401 268.816 440.601 268.938 440.822 269.028C440.927 269.071 441.034 269.101 441.141 269.129L434.979 308.475C434.388 308.438 433.809 308.618 433.348 308.974ZM384.083 326.509C383.904 326.368 383.704 326.246 383.482 326.156C383.352 326.104 383.224 326.066 383.093 326.038L390.674 265.707C391.239 265.726 391.79 265.546 392.232 265.207L417.118 292.098L384.084 326.511L384.083 326.509ZM206.259 183.216L218.455 209.222L204.258 188.424C204.558 188.177 204.802 187.851 204.962 187.464C205.315 186.592 205.125 185.638 204.555 184.97L206.259 183.216ZM190.033 144.192C190.158 143.881 190.215 143.56 190.211 143.244L248.912 137.01C248.994 137.416 249.179 137.795 249.449 138.111L206.391 182.434L189.01 145.371C189.456 145.11 189.824 144.706 190.034 144.191L190.033 144.192ZM461.848 180.602C462.047 180.794 462.28 180.953 462.543 181.073L449.475 219.064C448.323 218.781 447.106 219.379 446.646 220.512L423.36 213.504L461.848 180.602ZM622.212 313.959C622.177 313.997 622.14 314.036 622.107 314.076L596.109 290.665C596.23 290.501 596.333 290.323 596.414 290.128C596.625 289.612 596.64 289.067 596.504 288.569L603.132 286.069L622.212 313.959ZM548.791 259.603L539.944 253.883C539.981 253.815 540.014 253.745 540.044 253.671C540.23 253.21 540.265 252.726 540.174 252.274L547.674 250.024L591.385 287.151L548.791 259.603ZM539.702 254.259L570.637 274.266L592.005 288.086C591.969 288.154 591.936 288.224 591.906 288.298C591.739 288.709 591.694 289.138 591.753 289.549L546.931 300.085L538.459 255.096C538.945 254.956 539.382 254.668 539.702 254.263L539.702 254.259ZM596.345 288.149C596.091 287.626 595.654 287.193 595.075 286.959C594.514 286.73 593.919 286.728 593.386 286.908L574.511 244.232L602.871 285.689L596.343 288.15L596.345 288.149ZM572.406 244.346C572.967 244.574 573.562 244.576 574.094 244.397L592.976 287.088C592.79 287.193 592.616 287.322 592.461 287.472L548.19 249.869L571.068 243.002C571.308 243.591 571.772 244.087 572.408 244.344L572.406 244.346ZM570.937 242.573L547.781 249.524L539.206 242.241C539.308 242.094 539.399 241.933 539.47 241.761C539.55 241.562 539.6 241.359 539.627 241.155L570.894 242.236C570.9 242.35 570.913 242.464 570.937 242.576L570.937 242.573ZM537.556 243.252C538.066 243.178 538.544 242.948 538.915 242.584L547.267 249.677L540.045 251.845C539.806 251.256 539.341 250.76 538.706 250.503C538.442 250.396 538.169 250.341 537.899 250.329L537.556 243.252ZM535.641 253.896L509.828 270.804L502.565 258.234C502.932 257.975 503.232 257.613 503.416 257.165C503.538 256.863 503.593 256.55 503.593 256.244L535.401 253.209C535.447 253.448 535.528 253.679 535.641 253.896ZM469.563 296.28C469.403 296.162 469.225 296.059 469.031 295.979C468.651 295.826 468.257 295.774 467.877 295.813L459.809 263.802L498.815 256.895C498.932 257.322 499.163 257.712 499.489 258.021L469.562 296.282L469.563 296.28ZM284.821 265.669L269.296 244.952C269.581 244.708 269.816 244.395 269.965 244.023C270.038 243.841 270.085 243.657 270.114 243.471L279.47 242.972L285.21 265.455C285.073 265.515 284.943 265.586 284.818 265.669L284.821 265.669ZM184.538 301.977C184.726 301.221 184.536 300.436 184.063 299.855L195.589 288.505L215.203 311.771C215.018 311.976 214.862 312.215 214.751 312.485L184.54 301.976L184.538 301.977ZM215.532 311.467L195.908 288.188L231.768 252.879C231.96 253.04 232.178 253.175 232.422 253.274C232.449 253.284 232.478 253.293 232.505 253.303L217.362 310.996C216.705 310.899 216.047 311.077 215.533 311.465L215.532 311.467ZM447.982 223.681C448.087 223.724 448.191 223.755 448.298 223.782L441.891 264.349C441.201 264.303 440.523 264.558 440.032 265.039L416.844 245.406L447.084 223.045C447.325 223.314 447.626 223.535 447.982 223.681ZM439.742 265.383C439.639 265.531 439.551 265.689 439.48 265.862C439.407 266.04 439.361 266.223 439.332 266.406L393.159 263.582C393.186 263.36 393.184 263.141 393.151 262.928L416.471 245.684L439.74 265.385L439.742 265.383ZM393.034 262.454C392.926 262.16 392.765 261.886 392.554 261.652L399.871 237.039L400.579 234.655C401.361 234.813 402.159 234.572 402.726 234.04L416.123 245.382L393.037 262.451L393.034 262.454ZM400.142 234.525C400.142 234.525 400.143 234.527 400.145 234.528L399.44 236.902L392.181 261.32C392.024 261.205 391.85 261.105 391.661 261.027C391.347 260.9 391.023 260.844 390.707 260.847L382.346 241.501L398.985 233.548C399.247 233.974 399.641 234.325 400.14 234.527L400.142 234.525ZM446.817 222.684L416.491 245.108L403.021 233.703C403.136 233.546 403.234 233.374 403.311 233.186C403.469 232.794 403.518 232.386 403.473 231.993L446.585 222.182C446.642 222.356 446.721 222.524 446.817 222.684ZM363.62 196.877L399.123 230.8C398.995 230.967 398.886 231.154 398.802 231.356C398.56 231.953 398.574 232.589 398.789 233.145L382.17 241.086L363.191 197.175C363.344 197.092 363.486 196.991 363.618 196.875L363.62 196.877ZM381.765 241.281L362.429 250.522C362.168 250.135 361.794 249.821 361.329 249.633C361.147 249.56 360.962 249.511 360.777 249.484L361.632 217.9L362.185 197.469C362.39 197.455 362.589 197.418 362.779 197.354L381.765 241.281ZM252.515 138.636L265.258 156.976L273.134 168.313C272.84 168.561 272.6 168.879 272.445 169.261C272.141 170.009 272.24 170.818 272.634 171.456L263.032 178.717L252.185 138.797C252.3 138.751 252.41 138.697 252.516 138.637L252.515 138.636ZM298.773 239.689L272.85 210.802C273.043 210.592 273.208 210.346 273.32 210.065C273.515 209.582 273.543 209.073 273.432 208.599L286.341 203.446L299.193 239.438C299.044 239.508 298.902 239.592 298.77 239.689L298.773 239.689ZM273.293 208.172C273.046 207.613 272.594 207.144 271.98 206.896C271.826 206.833 271.671 206.788 271.513 206.759L274.696 172.608C274.901 172.607 275.104 172.579 275.299 172.53L286.19 203.025L273.291 208.174L273.293 208.172ZM272.904 171.814C273.142 172.073 273.436 172.288 273.785 172.43C273.937 172.491 274.094 172.538 274.249 172.567L273.107 184.764L271.051 206.717C270.915 206.718 270.78 206.732 270.647 206.755L263.157 179.183L272.904 171.811L272.904 171.814ZM270.215 206.874C269.6 207.105 269.079 207.579 268.812 208.236C268.704 208.502 268.649 208.775 268.637 209.046L222.25 211.318C222.201 210.984 222.085 210.666 221.907 210.38L262.77 179.479L270.213 206.876L270.215 206.874ZM222.098 212.574C222.206 212.307 222.26 212.034 222.272 211.764L268.66 209.491C268.728 209.977 268.945 210.434 269.279 210.797L250.558 231.572L221.991 212.801C222.031 212.727 222.065 212.651 222.097 212.572L222.098 212.574ZM269.612 211.098C269.776 211.219 269.955 211.324 270.151 211.405C270.21 211.43 270.271 211.447 270.331 211.467L267.833 240.684C267.055 240.645 266.298 240.983 265.809 241.593L250.938 231.821L269.612 211.098ZM268.624 240.855C268.51 240.809 268.393 240.776 268.278 240.747L270.773 211.561C271.001 211.589 271.226 211.583 271.448 211.548L279.358 242.528L270.142 243.02C270.108 242.094 269.542 241.225 268.627 240.855L268.624 240.855ZM271.882 211.437C272.067 211.372 272.246 211.285 272.412 211.175L298.433 239.995C298.241 240.204 298.081 240.448 297.968 240.727C297.859 240.995 297.804 241.271 297.794 241.547L279.815 242.507L271.883 211.439L271.882 211.437ZM358.161 250.971C358.148 251.004 358.138 251.038 358.126 251.073L325.288 245.595L302.65 241.818C302.688 241.302 302.557 240.794 302.291 240.363L336.898 214.27L359.08 249.852C358.681 250.114 358.354 250.494 358.161 250.971ZM300.925 239.311C300.488 239.177 300.04 239.176 299.621 239.284L286.762 203.277L319.347 190.268C319.572 190.707 319.929 191.081 320.393 191.323L300.925 239.311ZM319.179 189.852L286.609 202.853L275.724 172.376C276.2 172.155 276.605 171.784 276.859 171.291L319.182 188.462C319.041 188.928 319.047 189.41 319.179 189.852ZM275.614 167.918C274.898 167.629 274.126 167.704 273.502 168.056L267.761 159.791L252.883 138.375C252.957 138.31 253.03 138.239 253.098 138.164L285.53 162.474L277.085 170.648C277.31 169.524 276.715 168.366 275.614 167.918ZM250.615 138.87C250.996 138.98 251.384 138.993 251.753 138.922L262.645 179.01L221.639 210.021C221.456 209.819 221.238 209.647 220.989 209.512L250.615 138.87ZM221.745 213.174L250.257 231.909L234.79 249.072C234.626 248.951 234.447 248.846 234.251 248.765C233.76 248.565 233.241 248.541 232.765 248.658L220.842 213.874C221.189 213.718 221.501 213.481 221.745 213.174ZM235.123 249.373L250.635 232.159L265.562 241.968C265.522 242.042 265.488 242.118 265.456 242.196C265.291 242.603 265.246 243.028 265.301 243.436L235.645 250.262C235.538 249.934 235.36 249.632 235.123 249.376L235.123 249.373ZM285.64 265.316L279.928 242.948L297.818 241.994C297.916 242.66 298.287 243.268 298.862 243.657L286.958 265.381C286.519 265.234 286.065 265.217 285.641 265.314L285.64 265.316ZM287.37 265.564L299.257 243.87C299.275 243.878 299.291 243.887 299.309 243.894C300.553 244.4 301.972 243.799 302.477 242.555C302.516 242.459 302.549 242.359 302.575 242.26L353.211 250.71L358.015 251.51C357.989 251.674 357.981 251.84 357.988 252.001L288.466 266.849C288.27 266.316 287.892 265.852 287.37 265.561L287.37 265.564ZM362.646 250.917L381.944 241.696L390.247 260.902C389.52 261.058 388.88 261.543 388.546 262.26L362.804 252.349C362.899 251.857 362.837 251.361 362.646 250.92L362.646 250.917ZM442.652 264.522C442.547 264.479 442.443 264.448 442.336 264.421L448.743 223.855C448.921 223.866 449.099 223.858 449.271 223.83L459.255 263.446L444.079 266.134C443.884 265.429 443.379 264.819 442.649 264.522L442.652 264.522ZM498.906 255.34C498.757 255.707 498.708 256.087 498.738 256.457L459.701 263.371L449.709 223.722C450.127 223.574 450.505 223.313 450.791 222.959L499.02 255.099C498.978 255.177 498.939 255.257 498.906 255.34ZM446.516 220.946C446.463 221.214 446.454 221.485 446.489 221.747L403.385 231.557C403.311 231.313 403.195 231.082 403.047 230.87L422.954 213.853L446.518 220.944L446.516 220.946ZM402.753 230.53C402.535 230.317 402.273 230.142 401.973 230.018C401.078 229.656 400.097 229.864 399.427 230.469L363.931 196.552C364.026 196.432 364.111 196.303 364.184 196.161L422.44 213.696L402.752 230.525L402.753 230.53ZM361.111 197.298C361.317 197.382 361.526 197.432 361.735 197.456L360.328 249.457C360.033 249.468 359.744 249.531 359.477 249.643L337.256 214L360.228 196.679C360.465 196.942 360.761 197.155 361.111 197.298ZM336.659 213.888L302.021 240.005C301.832 239.797 301.606 239.617 301.342 239.481L320.811 191.493C321.424 191.678 322.061 191.608 322.603 191.336L336.661 213.887L336.659 213.888ZM319.353 188.047L277.36 171.011L285.896 162.75L319.442 187.894C319.41 187.944 319.381 187.994 319.353 188.047ZM253.367 137.806C253.437 137.693 253.499 137.576 253.551 137.449C253.603 137.322 253.64 137.192 253.67 137.063L305.03 143.602L285.858 162.16L253.368 137.808L253.367 137.806ZM249.769 138.43C249.873 138.513 249.986 138.589 250.106 138.656L250.152 138.812L220.574 209.342C220.051 209.176 219.508 209.199 219.02 209.374L206.592 182.875L249.766 138.43L249.769 138.43ZM179.156 207.584L201.037 188.321C201.25 188.524 201.502 188.692 201.791 188.808C201.976 188.884 202.165 188.93 202.354 188.959L201.226 210.28L179.624 208.941C179.609 208.451 179.445 207.979 179.158 207.586L179.156 207.584ZM202.803 188.982C203.185 188.967 203.558 188.862 203.886 188.679L218.294 209.784C217.994 210.032 217.75 210.357 217.59 210.744C217.517 210.923 217.471 211.105 217.442 211.285L201.673 210.308L202.803 188.982ZM217.414 211.732C217.434 212.396 217.726 213.025 218.223 213.47L201.235 236.419C201.101 236.328 200.953 236.25 200.797 236.185C200.636 236.12 200.472 236.075 200.307 236.046L201.646 210.754L217.412 211.731L217.414 211.732ZM201.584 236.703L216.282 216.847L202.269 238.911C202.429 238.1 202.161 237.27 201.584 236.703ZM218.735 213.822C218.797 213.853 218.862 213.883 218.928 213.912C219.419 214.112 219.937 214.136 220.414 214.019L232.336 248.803C231.785 249.051 231.324 249.501 231.079 250.105C230.863 250.636 230.85 251.201 231.004 251.711L183.902 270.575C183.73 270.267 183.488 269.994 183.192 269.781L218.735 213.818L218.735 213.822ZM231.172 252.128C231.25 252.28 231.341 252.425 231.451 252.56L195.618 287.845L183.503 273.475C183.724 273.252 183.906 272.985 184.031 272.673C184.26 272.113 184.26 271.519 184.083 270.988L231.17 252.129L231.172 252.128ZM183.158 273.761L195.296 288.158L183.743 299.533C183.552 299.373 183.334 299.237 183.09 299.138C182.851 299.041 182.606 298.986 182.361 298.967L181.972 274.181C182.399 274.146 182.806 274 183.156 273.759L183.158 273.761ZM181.262 303.648C182.476 304.141 183.851 303.582 184.387 302.401L214.476 312.867L142.558 301.445L179.752 301.609C179.831 302.488 180.384 303.295 181.259 303.648L181.262 303.648ZM141.886 302.12C141.928 302.018 141.96 301.912 141.986 301.806L214.57 313.335C214.561 313.7 214.634 314.061 214.781 314.389L186.554 329.596L141.813 302.273C141.837 302.222 141.862 302.172 141.885 302.119L141.886 302.12ZM217.917 311.146C217.877 311.129 217.835 311.118 217.795 311.104L232.937 253.419C233.663 253.541 234.396 253.321 234.936 252.849L250.055 267.196L218.234 311.304C218.133 311.245 218.03 311.19 217.917 311.146ZM235.245 252.523C235.384 252.348 235.501 252.153 235.589 251.933C235.755 251.527 235.799 251.101 235.744 250.693L265.4 243.867C265.535 244.277 265.78 244.648 266.11 244.937L250.32 266.825L235.245 252.52L235.245 252.523ZM266.477 245.202C266.579 245.261 266.683 245.317 266.796 245.362C267.292 245.564 267.815 245.586 268.296 245.467L287.875 301.522C287.661 301.62 287.463 301.747 287.283 301.905L250.65 267.142L266.479 245.204L266.477 245.202ZM288.298 301.373L268.721 245.32C268.792 245.288 268.863 245.252 268.93 245.211L284.475 265.953C284.246 266.178 284.059 266.453 283.931 266.768C283.426 268.014 284.026 269.431 285.27 269.937C285.556 270.053 285.851 270.107 286.14 270.112L288.478 301.333C288.416 301.343 288.356 301.357 288.296 301.371L288.298 301.373ZM288.581 267.283L358.051 252.445C358.226 253.183 358.745 253.831 359.502 254.138C359.843 254.275 360.197 254.33 360.543 254.311L365.919 291.477C365.198 291.65 364.567 292.151 364.255 292.882L288.514 268.384C288.625 268.016 288.644 267.64 288.582 267.281L288.581 267.283ZM367.399 291.588C367.059 291.451 366.705 291.396 366.361 291.413L361.102 255.065L370.689 288.183L367.815 291.803C367.687 291.719 367.547 291.644 367.399 291.585L367.399 291.588ZM361.305 254.146C361.905 253.91 362.41 253.442 362.671 252.799C362.674 252.792 362.676 252.784 362.68 252.776L388.397 262.679C388.176 263.541 388.449 264.437 389.071 265.034L371.033 287.755L361.307 254.148L361.305 254.146ZM389.422 265.314C389.549 265.398 389.69 265.472 389.837 265.532C389.966 265.583 390.095 265.622 390.226 265.651L382.645 325.981C382.464 325.976 382.285 325.989 382.108 326.022L371.185 288.283L389.422 265.314ZM392.559 264.902C392.743 264.698 392.896 264.462 393.006 264.193C393.029 264.136 393.046 264.079 393.065 264.023L439.307 266.85C439.325 267.408 439.536 267.943 439.898 268.364L417.427 291.773L392.559 264.902ZM443.469 268.483C443.687 268.263 443.867 267.995 443.991 267.688C444.14 267.322 444.189 266.941 444.159 266.572L459.365 263.878L467.436 295.899C467.209 295.965 466.994 296.065 466.795 296.192L443.469 268.48L443.469 268.483ZM469.9 296.581L499.846 258.297C499.97 258.378 500.104 258.449 500.245 258.506C500.894 258.769 501.587 258.73 502.176 258.459L509.452 271.051L470.102 296.828C470.039 296.741 469.972 296.658 469.898 296.579L469.9 296.581ZM510.054 271.195L535.888 254.272C536.141 254.589 536.473 254.849 536.876 255.012C536.973 255.051 537.069 255.08 537.166 255.107L530.835 292.603L529.241 302.047C528.815 302.016 528.393 302.102 528.018 302.282L510.056 271.197L510.054 271.195ZM529.984 302.216C529.886 302.176 529.785 302.145 529.683 302.119L537.608 255.183C537.747 255.194 537.882 255.192 538.018 255.179L546.494 300.187L531.388 303.738C531.177 303.07 530.682 302.498 529.984 302.216ZM547.014 300.526L591.856 289.985C591.984 290.363 592.202 290.706 592.499 290.985L555.66 338.352C555.46 338.175 555.229 338.027 554.967 337.921C554.659 337.795 554.338 337.739 554.025 337.742L547.018 300.526L547.014 300.526ZM556.382 339.486C556.295 339.196 556.156 338.922 555.969 338.682L592.851 291.26C592.973 291.339 593.105 291.409 593.245 291.464C593.597 291.606 593.959 291.658 594.314 291.636L599.447 324.296L556.381 339.485L556.382 339.486ZM594.758 291.569C595.15 291.47 595.51 291.276 595.809 291L621.845 314.444C621.788 314.544 621.735 314.645 621.69 314.754C621.459 315.324 621.46 315.93 621.649 316.468L599.88 324.146L594.758 291.569ZM622.561 313.67L603.568 285.907L620.232 279.625C620.485 280.147 620.922 280.581 621.502 280.815C621.759 280.919 622.022 280.975 622.285 280.988L623.513 313.277C623.172 313.34 622.848 313.472 622.561 313.67ZM620.341 277.298C620.274 277.408 620.213 277.524 620.162 277.646C619.952 278.162 619.936 278.707 620.073 279.205L603.307 285.526L574.876 243.965C574.966 243.889 575.053 243.804 575.131 243.715L620.341 277.298ZM535.077 242.005C535.338 242.484 535.758 242.88 536.302 243.102C536.566 243.209 536.839 243.264 537.109 243.276L537.452 250.354C536.622 250.471 535.876 251.013 535.538 251.844C535.416 252.146 535.361 252.459 535.361 252.766L503.553 255.8C503.535 255.702 503.51 255.604 503.48 255.508L535.081 242.005L535.077 242.005ZM499.903 254.175C499.665 254.318 499.451 254.502 499.271 254.724L451.042 222.584C451.084 222.507 451.123 222.427 451.156 222.343C451.65 221.128 451.087 219.748 449.9 219.213L462.968 181.222C463.456 181.342 463.952 181.305 464.4 181.136L499.902 254.177L499.903 254.175ZM461.198 179.493C461.272 179.767 461.395 180.029 461.56 180.263L422.851 213.352L365.262 196.017L461.199 179.491L461.198 179.493ZM359.602 194.918C359.575 195.416 359.706 195.905 359.961 196.321L337.022 213.617L322.986 191.099C323.322 190.842 323.599 190.498 323.769 190.078C323.816 189.964 323.849 189.85 323.876 189.733L359.6 194.917L359.602 194.918ZM320.504 186.955C320.208 187.091 319.938 187.287 319.714 187.533L286.226 162.432L305.43 143.842L320.506 186.953L320.504 186.955ZM239.411 102.034C239.791 101.878 240.134 101.624 240.395 101.293L304.58 143.091L253.726 136.618C253.759 135.628 253.183 134.676 252.212 134.28C251.215 133.876 250.111 134.181 249.448 134.954L239.408 102.034L239.411 102.034ZM189.369 147.197L206.058 182.783L204.235 184.657C204.055 184.511 203.85 184.388 203.624 184.297C203.133 184.097 202.611 184.072 202.131 184.19L189.368 147.196L189.369 147.197ZM178.851 210.793C179.104 210.559 179.312 210.268 179.45 209.928C179.523 209.749 179.567 209.569 179.597 209.387L201.204 210.727L199.865 236.01C199.409 236.014 198.968 236.149 198.586 236.388L178.851 210.793ZM199.014 240.71C199.815 241.018 200.682 240.874 201.328 240.398L185.345 265.564L199.012 240.712L199.014 240.71ZM139.442 303.633C140.273 303.7 141.086 303.333 141.588 302.66L186.105 329.844L131.236 359.405C130.975 359.012 130.596 358.69 130.126 358.497C130.034 358.46 129.941 358.43 129.85 358.406L139.443 303.631L139.442 303.633ZM131.56 360.14C131.53 360.025 131.494 359.91 131.447 359.8L186.546 330.117L212.081 345.711C212.061 345.752 212.042 345.792 212.024 345.834C211.861 346.233 211.815 346.651 211.865 347.051L131.56 360.14ZM214.373 344.317C213.567 344.286 212.789 344.659 212.31 345.322L187.006 329.87L215.009 314.785C215.27 315.162 215.638 315.472 216.094 315.657C216.242 315.717 216.392 315.76 216.544 315.79L214.373 344.317ZM219.393 312.927C219.289 312.404 219.015 311.924 218.605 311.569L250.39 267.511L286.978 302.232C286.84 302.407 286.723 302.602 286.635 302.822C286.5 303.156 286.446 303.501 286.46 303.839L219.395 312.929L219.393 312.927ZM368.744 294.758C369.128 293.808 368.869 292.757 368.17 292.087L370.846 288.716L381.541 325.67L367.713 295.942C368.162 295.68 368.533 295.277 368.743 294.755L368.744 294.758ZM384.793 327.431C384.695 327.211 384.566 327.005 384.407 326.823L417.424 292.429L433.019 309.281C432.835 309.484 432.681 309.722 432.572 309.99C432.375 310.475 432.347 310.987 432.461 311.461L384.793 327.431ZM437.009 309.832C436.756 309.313 436.319 308.883 435.743 308.649C435.638 308.605 435.531 308.575 435.424 308.547L441.586 269.201C442.138 269.236 442.679 269.081 443.127 268.772L466.445 296.473C466.202 296.703 466 296.988 465.867 297.32C465.657 297.839 465.639 298.386 465.781 298.886L437.011 309.834L437.009 309.832ZM470.55 298.303C470.561 297.927 470.483 297.555 470.328 297.219L509.678 271.442L527.63 302.511C527.278 302.768 526.988 303.122 526.814 303.557C526.748 303.721 526.702 303.884 526.673 304.052L470.547 298.307L470.55 298.303ZM530.613 306.352C530.918 306.102 531.167 305.775 531.327 305.385C531.488 304.987 531.536 304.574 531.486 304.177L546.579 300.63L553.575 337.792C553.334 337.841 553.099 337.925 552.885 338.044L530.613 306.352ZM604.792 347.386C604.675 347.313 604.553 347.249 604.421 347.196C604.111 347.069 603.791 347.012 603.475 347.015L599.95 324.597L621.836 316.878C622.009 317.181 622.25 317.45 622.546 317.656L604.79 347.384L604.792 347.386Z" fill="#3A8AA2"/>
<path d="M398.947 112.174C394.148 100.398 383.12 91.3658 368.569 94.2008C366.664 94.572 364.808 95.0992 362.995 95.7555C361.091 90.9301 359.111 85.1633 354.915 81.6935C344.667 73.2369 332.698 69.907 319.486 71.3111C306.279 72.7151 294.24 80.6283 287.892 92.2965C280.006 79.3964 258.079 75.2596 243.64 79.7515C230.692 83.7754 218.411 97.2241 221.273 115.455C215.059 112.749 207.958 113.755 201.584 116.262C191.944 120.055 185.44 129.302 182.605 139.27C179.038 151.788 181.459 165.915 189.447 176.19C197.431 186.465 206.102 191.823 219.11 191.462C226.394 191.258 234.232 189.477 240.225 183.877C242.909 193.533 252.42 198.956 262.221 201.065C272.023 203.173 284.11 201.317 292.648 196.067C299.819 191.661 306.123 184.878 307.414 176.556C318.265 183.49 331.719 186.954 344.275 184.098C356.831 181.241 368.031 171.397 370.677 158.792C371.172 156.447 371.312 154.037 371.145 151.643C376.181 152.585 381.501 152.041 386.203 149.992C401.685 143.24 404.52 125.854 398.941 112.168L398.947 112.174Z" fill="#D8F5FD"/>
<path d="M314.763 398.777H449.224V317.256H314.763V398.777Z" fill="#F29EC3"/>
<path d="M467.115 277.653C455.125 271.24 441.778 267.754 428.184 267.496L338.002 265.753C314.644 265.301 294.428 281.913 290.345 304.916L281.679 361.82H328.959L331.826 345.38L448.874 338.694L486.089 345.101L490.07 289.929L467.121 277.653H467.115Z" fill="#F29EC3"/>
<path d="M369.683 266.361L425.097 267.432C425.097 267.432 422.515 283.28 400.12 283.441C377.725 283.603 369.683 266.361 369.683 266.361Z" fill="#FFBE97"/>
<path d="M374.459 267.894H414.154L415.435 255.123L378.843 252.492L374.459 267.894Z" fill="#FFBE97"/>
<path d="M414.5 266L416 249.5C404.5 244.667 371 237.7 379 250.5C387 263.3 410.167 266.334 414.5 266Z" fill="#4F2B2B"/>
<path d="M355.426 223.735C355.426 223.735 379.209 258.33 401.437 254.887C423.665 251.444 434.042 216.408 434.042 216.408C434.042 216.408 436.344 186.944 426.758 179.262C418.312 172.495 403.18 168.568 394.002 168.896C377.568 169.482 364.695 184.055 364.695 184.055C364.695 184.055 354.673 187.068 351.768 201.442C349.724 211.561 355.421 223.74 355.421 223.74L355.426 223.735Z" fill="#4F2B2B"/>
<path d="M367.912 216.091C362.661 235.678 375.943 257.664 395.433 260.364C416.284 263.253 434.273 254.178 437.313 234.128C440.212 215.015 435.037 196.423 416.031 191.334C397.026 186.24 373.167 196.504 367.917 216.096L367.912 216.091Z" fill="#FFBE97"/>
<path d="M370.57 222.084C372.21 228.13 373.867 233.316 368.8 234.688C363.732 236.065 356.809 232.429 355.168 226.382C353.527 220.336 356.308 214.321 361.376 212.944C366.443 211.567 368.929 216.037 370.57 222.084Z" fill="#FFBE97"/>
<path d="M396.709 214.196C396.961 215.729 396.294 217.117 395.208 217.295C394.126 217.478 393.04 216.38 392.787 214.847C392.534 213.314 393.201 211.926 394.288 211.748C395.369 211.566 396.456 212.663 396.709 214.196Z" fill="#562A2F"/>
<path d="M423.428 210.136C423.681 211.669 423.014 213.057 421.927 213.234C420.846 213.417 419.759 212.32 419.507 210.786C419.254 209.253 419.921 207.865 421.008 207.688C422.089 207.505 423.175 208.602 423.428 210.136Z" fill="#562A2F"/>
<path d="M424.999 224.446C418.194 224.446 412.228 219.437 411.227 212.514C410.695 208.834 411.626 205.165 413.853 202.185C416.08 199.205 419.334 197.274 423.014 196.741C426.699 196.209 430.362 197.139 433.343 199.366C436.323 201.593 438.254 204.848 438.787 208.528C439.319 212.207 438.389 215.876 436.161 218.856C433.934 221.836 430.68 223.768 427 224.3C426.328 224.397 425.655 224.446 424.999 224.446ZM412.728 212.293C413.707 219.066 420.012 223.778 426.785 222.794C430.066 222.321 432.966 220.594 434.946 217.942C436.931 215.29 437.759 212.019 437.286 208.737C436.812 205.456 435.086 202.556 432.433 200.577C429.781 198.592 426.511 197.763 423.229 198.237C416.462 199.216 411.749 205.52 412.728 212.293Z" fill="white"/>
<path d="M392.405 229.157C389.419 229.157 386.53 228.2 384.099 226.387C381.119 224.16 379.187 220.905 378.655 217.226C378.122 213.546 379.053 209.877 381.28 206.897C383.507 203.917 386.762 201.986 390.441 201.453C394.121 200.92 397.79 201.851 400.77 204.078C403.75 206.305 405.681 209.56 406.214 213.24C406.746 216.919 405.816 220.588 403.589 223.568C401.362 226.548 398.107 228.48 394.427 229.012C393.75 229.109 393.077 229.157 392.405 229.157ZM392.458 202.819C391.861 202.819 391.259 202.862 390.656 202.949C387.375 203.422 384.475 205.149 382.496 207.801C380.511 210.453 379.682 213.724 380.156 217.005C380.629 220.287 382.356 223.181 385.008 225.166C387.66 227.151 390.931 227.979 394.212 227.506C397.494 227.033 400.393 225.306 402.373 222.654C404.358 220.002 405.186 216.731 404.713 213.449C404.24 210.168 402.513 207.274 399.861 205.289C397.693 203.669 395.116 202.819 392.458 202.819Z" fill="white"/>
<path d="M418.382 219.173L415.268 224.364L409.286 209.441L418.382 219.173Z" fill="#FFBE97"/>
<path d="M404.202 210.016L403.643 208.602C406.929 207.305 409.824 206.891 412.492 207.337L412.244 208.838C409.856 208.44 407.225 208.822 404.207 210.016H404.202Z" fill="white"/>
<path d="M369.09 188.671C369.09 188.671 385.369 200.226 391.953 200.727C398.538 201.227 404.514 198.736 404.514 198.736L400.872 194.578C400.872 194.578 405.348 198.268 410.007 198.295C414.665 198.322 420.782 196.332 420.782 196.332L416.026 191.329C416.026 191.329 424.73 198.516 431.815 196.165C431.815 196.165 413.81 173.678 397.822 176.836C381.834 179.999 369.09 188.666 369.09 188.666V188.671Z" fill="#4F2B2B"/>
<path d="M415.337 225.467C415.214 225.467 415.09 225.434 414.972 225.37C414.606 225.165 414.471 224.708 414.67 224.337L417.446 219.286L409.339 210.609C409.054 210.302 409.07 209.823 409.377 209.533C409.684 209.248 410.162 209.264 410.453 209.57L418.936 218.651C419.162 218.893 419.205 219.248 419.049 219.533L416.004 225.063C415.865 225.316 415.606 225.456 415.337 225.456V225.467Z" fill="#562A2F"/>
<path d="M367.142 225.085C366.868 225.085 366.599 224.934 366.465 224.676C366.373 224.499 364.167 220.356 360.171 221.293C359.762 221.389 359.353 221.136 359.256 220.728C359.159 220.319 359.412 219.91 359.821 219.813C363.952 218.845 366.852 222.116 367.809 223.977C368.003 224.348 367.852 224.811 367.481 224.999C367.368 225.058 367.25 225.085 367.137 225.085H367.142Z" fill="#562A2F"/>
<path d="M418.78 235.242C418.78 235.242 418.727 235.242 418.7 235.242L407.005 234.021C406.585 233.978 406.284 233.601 406.327 233.187C406.37 232.773 406.741 232.466 407.161 232.509L418.856 233.73C419.275 233.773 419.577 234.15 419.534 234.564C419.49 234.957 419.162 235.247 418.78 235.247V235.242Z" fill="#562A2F"/>
<path d="M467.659 219.108L469.408 190.543C469.569 187.913 471.441 185.707 474.012 185.126C477.111 184.421 480.215 186.288 481.049 189.354L485.433 205.531L479.898 217.333L467.659 219.114V219.108Z" fill="#FFBE97"/>
<path d="M481.016 207.408C481.979 207.462 482.937 207.774 483.781 208.365L484.325 208.747C481.845 206.73 482.318 202.798 484.093 200.592C485.874 198.386 488.144 197.327 490.737 198.548L490.689 198.51C488.445 196.848 489.844 192.797 491.463 191.038C493.077 189.279 496.429 187.617 499.527 189.854L500.393 190.527C500.264 188.074 499.678 187.24 498.596 186.175C497.515 185.11 491.447 179.128 489.225 176.911C487.004 174.695 486.008 171.08 488.026 168.401C490.043 165.722 494.207 165.146 497.192 166.9C500.178 168.659 507.596 175.421 507.596 175.421C515.8 181.602 519.243 192.27 516.198 202.077L503.508 242.95L513.272 289.182L460.526 295.067L459.912 282.226H459.794L459.536 274.253L458.358 238.297C458.358 238.222 458.358 238.146 458.352 238.071C458.008 226.941 464.017 216.574 473.818 211.292L481.011 207.413L481.016 207.408Z" fill="#FFBE97"/>
<path d="M513.277 289.182L517.898 311.049C521.637 328.737 508.14 345.381 490.065 345.381C474.878 345.381 462.371 333.46 461.645 318.29L460.531 295.067L513.277 289.182Z" fill="#F29EC3"/>
<path d="M511.464 201C511.287 201 511.109 200.941 510.964 200.812L499.032 190.43C498.715 190.155 498.683 189.676 498.957 189.359C499.231 189.042 499.71 189.009 500.028 189.284L511.959 199.666C512.277 199.941 512.309 200.419 512.035 200.737C511.884 200.909 511.674 201 511.459 201H511.464Z" fill="#4F2B2B"/>
<path d="M501.453 208.559C501.276 208.559 501.098 208.5 500.953 208.371L489.021 197.988C488.704 197.714 488.671 197.235 488.946 196.918C489.22 196.6 489.699 196.568 490.016 196.842L501.948 207.225C502.265 207.499 502.298 207.978 502.023 208.295C501.873 208.467 501.663 208.559 501.448 208.559H501.453Z" fill="#4F2B2B"/>
<path d="M489.763 230.253C489.586 230.253 489.408 230.194 489.263 230.065L477.331 219.682C477.014 219.408 476.982 218.929 477.256 218.612C477.53 218.295 478.009 218.262 478.326 218.537L490.258 228.919C490.576 229.193 490.608 229.672 490.333 229.99C490.183 230.162 489.973 230.253 489.758 230.253H489.763Z" fill="#4F2B2B"/>
<path d="M480.79 227.241C478.994 227.241 477.202 226.58 475.798 225.278C474.249 223.842 473.361 221.803 473.361 219.694V215.38C473.361 213.319 474.131 211.35 475.519 209.839L476.406 208.87C478.601 206.482 482.35 206.299 484.766 208.462L495.503 218.08C495.815 218.36 495.842 218.839 495.563 219.151C495.283 219.463 494.804 219.49 494.492 219.21L483.755 209.591C481.958 207.983 479.16 208.117 477.53 209.893L476.643 210.861C475.508 212.098 474.884 213.701 474.884 215.374V219.689C474.884 221.378 475.594 223.013 476.836 224.159C478.913 226.085 482.055 226.241 484.309 224.53C484.642 224.277 485.121 224.342 485.374 224.675C485.627 225.009 485.562 225.488 485.229 225.741C483.911 226.741 482.35 227.231 480.796 227.231L480.79 227.241Z" fill="#4F2B2B"/>
<path d="M448.868 339.452C448.465 339.452 448.126 339.134 448.11 338.726L447.249 317.794C447.233 317.374 447.556 317.019 447.975 317.003C448.4 316.971 448.75 317.31 448.766 317.729L449.627 338.661C449.643 339.081 449.32 339.436 448.901 339.452C448.89 339.452 448.879 339.452 448.868 339.452Z" fill="#4F2B2B"/>
<path d="M462.091 322.873C461.688 322.873 461.354 322.561 461.333 322.152L458.777 274.29C458.756 273.871 459.079 273.516 459.493 273.489C459.912 273.473 460.268 273.79 460.294 274.204L462.85 322.066C462.871 322.485 462.548 322.84 462.134 322.867C462.118 322.867 462.107 322.867 462.091 322.867V322.873Z" fill="#4F2B2B"/>
<path d="M286.112 346.278C275.025 366.371 285.644 391.541 307.775 397.62C327.233 402.967 347.228 391.03 351.747 371.363L356.944 348.769L299.383 322.227L286.112 346.278Z" fill="#F29EC3"/>
<path d="M317.254 399.584C314.037 399.584 310.793 399.148 307.598 398.271C307.242 398.174 307.027 397.803 307.129 397.448C307.226 397.093 307.598 396.878 307.953 396.98C317.184 399.514 326.797 398.212 335.017 393.3C343.237 388.389 348.944 380.551 351.091 371.217L356.287 348.624C356.368 348.263 356.734 348.037 357.094 348.118C357.455 348.199 357.681 348.559 357.6 348.925L352.403 371.519C350.176 381.213 344.248 389.357 335.705 394.452C330.014 397.851 323.682 399.584 317.254 399.584Z" fill="#4F2B2B"/>
<path d="M333.225 260.884L299.383 322.226L356.943 348.769L373.356 277.367L333.225 260.884Z" fill="#FFBE97"/>
<path d="M291.249 337.721C291.125 337.721 291.002 337.688 290.883 337.624C290.517 337.419 290.383 336.957 290.587 336.591L298.716 321.856C298.92 321.491 299.383 321.356 299.749 321.561C300.114 321.765 300.249 322.228 300.045 322.593L291.916 337.328C291.776 337.581 291.518 337.721 291.249 337.721Z" fill="#4F2B2B"/>
<path d="M333.156 261.105L338.541 243.106C339.423 240.152 341.424 237.667 344.119 236.171L355.201 230.023C358.934 227.306 364.002 227.349 367.692 230.125L386.504 244.273C391.206 247.807 392.088 254.51 388.462 259.142L369.268 283.656L333.156 261.116V261.105Z" fill="#FFBE97"/>
<path d="M369.262 284.409C369.101 284.409 368.934 284.355 368.794 284.248C368.466 283.989 368.407 283.511 368.665 283.182L387.859 258.668C389.484 256.592 390.194 254.004 389.85 251.39C389.506 248.775 388.155 246.462 386.047 244.875L367.234 230.727C363.792 228.134 359.133 228.096 355.647 230.635C355.308 230.883 354.835 230.808 354.587 230.469C354.34 230.13 354.415 229.656 354.754 229.409C358.783 226.477 364.163 226.52 368.149 229.516L386.961 243.665C389.398 245.499 390.958 248.173 391.356 251.196C391.754 254.219 390.936 257.205 389.059 259.609L369.865 284.124C369.714 284.317 369.494 284.414 369.268 284.414L369.262 284.409Z" fill="#4F2B2B"/>
<path d="M348.277 242.513C348.148 242.513 348.013 242.481 347.89 242.406C347.529 242.191 347.411 241.728 347.621 241.367L354.544 229.629C354.759 229.269 355.222 229.151 355.582 229.36C355.943 229.576 356.061 230.038 355.851 230.399L348.928 242.137C348.788 242.379 348.535 242.508 348.272 242.508L348.277 242.513Z" fill="#4F2B2B"/>
<path d="M363.544 242.859C363.42 242.859 363.297 242.827 363.178 242.767C362.813 242.568 362.673 242.106 362.877 241.735L368.348 231.707C368.547 231.341 369.01 231.201 369.381 231.406C369.747 231.605 369.887 232.068 369.682 232.439L364.211 242.466C364.071 242.719 363.813 242.864 363.544 242.864V242.859Z" fill="#4F2B2B"/>
<path d="M371.769 248.689C371.646 248.689 371.522 248.657 371.409 248.597C371.043 248.398 370.903 247.936 371.108 247.565L376.579 237.537C376.778 237.171 377.24 237.032 377.611 237.236C377.977 237.435 378.117 237.898 377.913 238.269L372.442 248.296C372.302 248.549 372.044 248.694 371.775 248.694L371.769 248.689Z" fill="#4F2B2B"/>
<path d="M379.29 254.548C379.166 254.548 379.042 254.516 378.929 254.457C378.564 254.258 378.424 253.795 378.628 253.424L384.104 243.397C384.303 243.031 384.766 242.891 385.137 243.095C385.503 243.294 385.643 243.757 385.439 244.128L379.962 254.156C379.822 254.408 379.564 254.554 379.295 254.554L379.29 254.548Z" fill="#4F2B2B"/>
<path d="M455.849 181.553C447.515 172.937 451.681 162.908 454.806 158.97C460.624 153.095 468.295 151.192 473.052 151.02C477.808 150.849 494.482 153.492 491.431 171.286C488.38 189.079 466.266 192.322 455.849 181.553Z" fill="#DB0C18"/>
<path d="M452.137 156.037C452.707 156.329 454.569 156.466 457.454 154.674C461.061 152.434 466.317 150.541 468.099 151.57C468.129 151.107 468.102 150.212 467.882 149.322C467.686 148.526 467.815 147.597 468.53 147.195C469.361 146.728 470.335 146.414 470.943 146.896C471.888 147.646 471.213 149.87 470.758 150.889C471.706 150.261 474.523 149.468 478.214 151.319C481.905 153.17 485.001 151.378 486.088 150.251C486.132 151.409 485.69 153.786 483.571 154.03C481.687 154.247 477.702 153.431 475.351 152.854C476.484 153.314 478.041 154.624 478.722 157.593C476.522 156.201 471.54 153.761 469.209 155.146C466.295 156.877 463.361 159.361 463.625 160.726C462.97 159.853 461.974 157.664 463.229 155.888C464.799 153.668 456.067 161.274 452.137 156.037Z" fill="#8DC545"/>
<path d="M323.348 189.552C317.533 186.082 308.248 190.687 308.856 199.031C309.297 205.094 314.612 209.639 320.411 208.095C327.469 206.218 329.615 197.406 325.494 191.591C324.86 190.693 324.133 190.026 323.348 189.558V189.552Z" fill="#D8F5FD"/>
<path d="M338.249 211.56C336.447 209.623 333.096 209.726 330.54 211.162C327.899 212.647 327.749 215.003 328.728 217.483C329.674 219.893 331.853 221.899 334.43 222.206C337.001 222.507 339.788 220.797 340.299 218.258C340.718 216.176 339.831 213.26 338.249 211.565V211.56Z" fill="#D8F5FD"/>
<g filter="url(#filter0_bf_393_2172)">
<ellipse cx="293.382" cy="152.838" rx="43.5" ry="2.43622" transform="rotate(-3 293.382 152.838)" fill="#2B6577"/>
</g>
<path d="M294.585 136.405C284.331 142.612 259.955 146.862 249.049 148.211C243.989 148.91 241.291 149.897 239.267 152.933C237.243 155.969 233.533 163.727 251.747 166.088C266.319 167.977 296.721 154.957 310.101 148.211C320.895 143.826 343.022 132.762 345.181 123.588C347.879 112.119 337.76 113.469 332.7 113.806C327.641 114.143 307.403 128.647 294.585 136.405Z" fill="#F9BA84"/>
<path d="M284.86 124.826C274.606 131.033 250.23 135.283 239.324 136.632C234.264 137.331 231.565 138.318 229.542 141.354C227.518 144.39 223.807 152.148 242.022 154.509C256.594 156.398 286.996 143.378 300.376 136.632C311.17 132.247 333.297 121.183 335.456 112.009C338.154 100.54 328.035 101.889 322.975 102.227C317.916 102.564 297.677 117.068 284.86 124.826Z" fill="#F9BA84"/>
<path d="M224.763 158.33C227.191 163.187 235.219 163.727 238.929 163.39C261.529 164.402 339.784 125.274 344.169 114.48C348.554 103.686 335.399 103.686 330.339 105.036C325.28 106.385 311.45 115.492 289.525 129.659C267.6 143.826 246.35 143.489 237.243 144.163C228.136 144.838 221.727 152.258 224.763 158.33Z" fill="#854747"/>
<path d="M249.923 162.345C249.451 152.827 249.989 136.066 255.923 145.165C263.341 156.539 266.312 162.391 267.762 148.634C269.211 134.877 268.742 136.886 273.466 144.05C278.19 151.214 281.225 155.849 280.41 143.601C279.595 131.353 281.541 135.93 284.897 141.395C288.253 146.859 291.246 152.306 289.704 140.019C288.163 127.733 287.778 128.119 293.698 133.312C299.618 138.505 307.036 149.878 303.293 137.883C299.551 125.888 297.263 120.886 302.842 125.654C308.42 130.422 318.102 140.286 315.921 133.256C313.739 126.225 306.065 112.803 312.455 115.986C319.172 119.864 331.461 125.852 326.878 118.777C322.295 111.701 320.167 110.152 319.675 110.262" stroke="#DB0C18" stroke-width="1.34922" stroke-linecap="round"/>
</g>
<defs>
<filter id="filter0_bf_393_2172" x="229.941" y="129.506" width="126.881" height="46.6641" filterUnits="userSpaceOnUse" color-interpolation-filters="sRGB">
<feFlood flood-opacity="0" result="BackgroundImageFix"/>
<feGaussianBlur in="BackgroundImageFix" stdDeviation="2"/>
<feComposite in2="SourceAlpha" operator="in" result="effect1_backgroundBlur_393_2172"/>
<feBlend mode="normal" in="SourceGraphic" in2="effect1_backgroundBlur_393_2172" result="shape"/>
<feGaussianBlur stdDeviation="10" result="effect2_foregroundBlur_393_2172"/>
</filter>
</defs>
</svg>
