<svg width="700" height="400" viewBox="0 0 700 400" fill="none" xmlns="http://www.w3.org/2000/svg">
<mask id="mask0_393_2582" style="mask-type:alpha" maskUnits="userSpaceOnUse" x="0" y="0" width="700" height="400">
<rect width="700" height="400" rx="20" transform="matrix(-1 0 0 1 700 0)" fill="white"/>
</mask>
<g mask="url(#mask0_393_2582)">
<path d="M556.954 176.642C556.155 177.526 556.04 178.787 556.572 179.781L503.4 214.833C503.309 214.719 503.21 214.61 503.099 214.509C501.971 213.491 500.233 213.58 499.214 214.707C498.195 215.833 498.285 217.573 499.412 218.592C499.592 218.755 499.789 218.887 499.995 218.994L486.753 251.801C485.766 251.507 484.658 251.776 483.923 252.591C482.904 253.718 482.994 255.458 484.121 256.476C484.62 256.926 485.239 257.159 485.861 257.184L487.989 295.986C487.379 296.077 486.796 296.371 486.349 296.863C485.867 297.399 485.636 298.07 485.642 298.736L394.295 308.211C394.186 307.65 393.9 307.117 393.444 306.703C392.318 305.684 390.578 305.774 389.559 306.901C388.54 308.027 388.63 309.767 389.757 310.786C390.086 311.082 390.466 311.281 390.864 311.392L371.153 420.653C370.029 419.834 368.445 419.98 367.492 421.034C366.473 422.161 366.563 423.9 367.69 424.919C367.793 425.013 367.901 425.092 368.014 425.166L348.689 461.123C347.639 460.679 346.382 460.917 345.576 461.81C345.17 462.259 344.943 462.807 344.884 463.366L293.256 462.712L293.575 462.093L292.758 462.708L292.447 462.704L292.527 462.882L222.563 515.466C222.502 515.4 222.438 515.336 222.37 515.273C221.243 514.254 219.503 514.344 218.484 515.471C217.466 516.597 217.556 518.337 218.682 519.356C219.809 520.375 221.549 520.285 222.568 519.158C222.946 518.74 223.171 518.234 223.246 517.713L262.529 519.799C262.579 519.853 262.631 519.907 262.688 519.958C262.968 520.213 263.289 520.396 263.626 520.514L247.551 585.305C246.667 585.172 245.739 585.467 245.095 586.18C244.077 587.307 244.167 589.047 245.293 590.065C246.42 591.084 248.16 590.994 249.179 589.868C249.581 589.423 249.809 588.878 249.867 588.324L296.152 589.103C296.203 589.781 296.502 590.444 297.049 590.937C297.782 591.599 298.771 591.79 299.653 591.538L311.66 622.239C311.362 622.387 311.086 622.59 310.85 622.853C309.832 623.979 309.922 625.719 311.048 626.738C312.175 627.757 313.915 627.667 314.934 626.54C315.551 625.855 315.759 624.946 315.577 624.108L350.408 613.036C350.558 613.395 350.786 613.727 351.096 614.007C352.108 614.921 353.611 614.941 354.646 614.121L379.283 642.271C378.288 643.4 378.382 645.121 379.502 646.132C380.629 647.151 382.369 647.061 383.387 645.934C383.565 645.738 383.707 645.522 383.817 645.294L410.319 654.47C410.086 655.42 410.369 656.465 411.147 657.167C411.349 657.35 411.571 657.494 411.805 657.605L397.047 697.604C396.082 697.348 395.011 697.624 394.296 698.417C393.278 699.543 393.368 701.283 394.494 702.302C395.621 703.321 397.361 703.231 398.38 702.104C398.455 702.022 398.52 701.935 398.583 701.847L453.077 733.229C452.589 734.293 452.82 735.593 453.733 736.418C454.86 737.437 456.6 737.347 457.619 736.22C458.638 735.093 458.548 733.353 457.421 732.334C457.1 732.043 456.726 731.846 456.336 731.735L473.489 641.308C474.276 641.339 475.069 641.034 475.637 640.404C476.656 639.278 476.566 637.538 475.44 636.519C474.313 635.5 472.573 635.59 471.554 636.717C471.454 636.829 471.367 636.949 471.286 637.072L441.793 623.723C442.174 622.7 441.922 621.5 441.061 620.723C440.782 620.471 440.463 620.287 440.129 620.169L456.411 545.372C457.27 545.478 458.164 545.177 458.788 544.488C459.807 543.361 459.717 541.621 458.59 540.603C457.464 539.584 455.724 539.674 454.705 540.8C454.471 541.059 454.299 541.352 454.181 541.657L420.099 532.067C420.266 531.161 419.975 530.191 419.238 529.528L419.438 529.684L474.768 458.67C475.882 459.383 477.376 459.211 478.291 458.199C478.762 457.678 478.993 457.024 478.997 456.372L516.498 453.125C516.602 453.703 516.887 454.253 517.359 454.676C518.488 455.694 520.226 455.605 521.245 454.479C522.264 453.352 522.174 451.612 521.047 450.593C520.608 450.196 520.074 449.969 519.527 449.907L520.993 393.076C521.682 393.03 522.353 392.73 522.852 392.177C523.871 391.051 523.781 389.311 522.654 388.292C522.185 387.868 521.61 387.638 521.024 387.595L520.517 352.789C521.167 352.72 521.793 352.422 522.265 351.9C523.284 350.774 523.194 349.034 522.067 348.015C521.948 347.907 521.82 347.815 521.691 347.732L549.512 290.297C550.527 290.653 551.7 290.392 552.466 289.545C553.041 288.906 553.264 288.072 553.142 287.281L595.43 275.873C595.577 276.294 595.829 276.685 596.182 277.005C597.309 278.024 599.049 277.934 600.067 276.808C601.085 275.679 600.996 273.941 599.87 272.922C599.861 272.915 599.852 272.908 599.845 272.901L616.997 243.906L626.064 228.58C627.087 228.953 628.277 228.7 629.053 227.842C630.071 226.715 629.981 224.975 628.855 223.956C627.978 223.165 626.734 223.044 625.745 223.558L600.979 193.139C601.005 193.112 601.035 193.086 601.062 193.055C602.081 191.929 601.991 190.189 600.864 189.17C599.738 188.151 597.998 188.241 596.979 189.368C596.738 189.636 596.559 189.937 596.443 190.256L561.68 179.081C561.887 178.147 561.602 177.131 560.84 176.445C559.713 175.426 557.973 175.516 556.954 176.642ZM624.292 225.584C624.159 226.468 624.455 227.396 625.167 228.04C625.306 228.164 625.452 228.269 625.603 228.362L615.323 245.74L599.434 272.6C599.204 272.463 598.958 272.363 598.705 272.3L599.22 220.682L624.29 225.586L624.292 225.584ZM518.188 391.16L494.22 401.226L478.024 368.269C478.243 368.134 478.45 367.968 478.631 367.768C478.717 367.673 478.791 367.571 478.861 367.468L518.289 389.234C518.021 389.847 517.989 390.533 518.188 391.16ZM517.767 450.293C517.548 450.428 517.341 450.594 517.16 450.794C517.055 450.912 516.965 451.034 516.884 451.162L455.707 419.772C455.945 419.18 455.967 418.525 455.778 417.924L493.978 401.88L517.77 450.292L517.767 450.293ZM296.722 583.833L329.075 580.932L301.483 587.975C301.336 587.56 301.084 587.175 300.735 586.855C299.945 586.142 298.857 585.975 297.927 586.323L296.722 583.833ZM248.979 585.983C248.696 585.73 248.377 585.545 248.04 585.427L264.119 520.638C264.582 520.708 265.057 520.658 265.497 520.493L295.943 583.391L249.835 587.525C249.73 586.951 249.444 586.404 248.977 585.981L248.979 585.983ZM392.799 311.225C393.079 311.088 393.338 310.902 393.568 310.668L428.884 339.248C428.138 340.364 428.302 341.888 429.329 342.815L412.875 364.849L392.799 311.225ZM596.532 192.394C596.558 192.446 596.586 192.501 596.616 192.551L561.683 211.123C561.556 210.931 561.407 210.752 561.23 210.591C560.764 210.168 560.191 209.94 559.608 209.893L559.516 201.883L596.532 192.394ZM510.375 249.391L500.875 256.579C500.817 256.515 500.754 256.452 500.687 256.392C500.27 256.015 499.769 255.791 499.254 255.713L499.764 246.873L556.122 214.784L510.375 249.391ZM501.181 256.983L534.406 231.848L557.355 214.486C557.413 214.551 557.475 214.614 557.542 214.674C557.915 215.011 558.353 215.224 558.813 215.321L552.673 267.024L501.589 258.627C501.628 258.057 501.491 257.481 501.184 256.984L501.181 256.983ZM559.1 209.899C558.447 209.966 557.818 210.263 557.345 210.789C556.885 211.296 556.653 211.928 556.637 212.563L503.988 216.115L559.01 202.013L559.101 209.901L559.1 209.899ZM503.295 218.395C503.754 217.888 503.987 217.256 504.002 216.621L556.671 213.068C556.71 213.307 556.779 213.542 556.879 213.765L499.798 246.265L501.35 219.297C502.069 219.271 502.775 218.97 503.294 218.393L503.295 218.395ZM500.843 219.272L499.273 246.566L488.218 252.862C488.101 252.696 487.965 252.537 487.81 252.395C487.629 252.233 487.433 252.101 487.226 251.994L500.468 219.186C500.592 219.224 500.718 219.255 500.847 219.273L500.843 219.272ZM488.654 255.005C488.773 254.435 488.713 253.838 488.47 253.304L499.237 247.172L498.748 255.684C498.03 255.711 497.323 256.012 496.804 256.588C496.588 256.827 496.424 257.096 496.307 257.378L488.654 255.005ZM499.224 261.157L507.208 295.127L491.041 297.983C490.908 297.493 490.639 297.034 490.234 296.666C489.961 296.419 489.65 296.239 489.324 296.12L498.402 261.147C498.673 261.19 498.95 261.194 499.224 261.157ZM518.706 347.767C518.518 347.892 518.34 348.04 518.181 348.216C517.87 348.561 517.663 348.959 517.557 349.378L480.421 345.57L488.167 301.45C488.667 301.49 489.17 301.396 489.625 301.169L518.707 347.769L518.706 347.767ZM414.726 532.241L386.706 540.725C386.557 540.329 386.315 539.958 385.977 539.656C385.813 539.508 385.636 539.386 385.448 539.284L388.536 529.149L414.649 531.745C414.659 531.913 414.685 532.079 414.724 532.244L414.726 532.241ZM414.522 652.848C413.791 652.356 412.883 652.255 412.082 652.532L404.48 635.894L436.789 624.051C436.935 624.327 437.129 624.585 437.373 624.806L414.52 652.846L414.522 652.848ZM436.593 623.584L404.267 635.433L380.615 583.671C380.86 583.529 381.088 583.35 381.287 583.129C381.309 583.104 381.329 583.076 381.351 583.051L436.801 621.457C436.444 622.117 436.378 622.885 436.592 623.581L436.593 623.584ZM433.213 342.62C433.299 342.526 433.372 342.428 433.443 342.324L474.072 364.822C473.756 365.538 473.765 366.357 474.086 367.065L444.255 384.112L432.19 343.329C432.568 343.177 432.92 342.943 433.213 342.62ZM474.34 367.506C474.457 367.672 474.591 367.827 474.747 367.97C474.909 368.116 475.084 368.236 475.268 368.337L454.409 416.31C454.184 416.195 453.95 416.113 453.711 416.065L444.407 384.615L474.341 367.508L474.34 367.506ZM453.162 416.007C452.808 416.008 452.455 416.073 452.124 416.207L428.799 398.912L426.54 397.238C427.01 396.467 427.063 395.527 426.717 394.718L443.951 384.868L453.16 416.002L453.162 416.007ZM426.233 397.652C426.233 397.652 426.235 397.651 426.238 397.65L428.488 399.317L451.627 416.474C451.444 416.597 451.271 416.743 451.115 416.914C450.859 417.198 450.673 417.52 450.555 417.857L426.763 419.26L424.748 398.503C425.301 398.389 425.827 398.107 426.234 397.654L426.233 397.652ZM431.703 343.473L443.803 384.372L426.473 394.275C426.351 394.092 426.205 393.92 426.035 393.766C425.68 393.447 425.266 393.236 424.831 393.132L431.079 343.525C431.287 343.532 431.496 343.513 431.703 343.473ZM372.101 421.9L421.88 397.294C422.008 397.494 422.165 397.682 422.348 397.85C422.889 398.337 423.569 398.569 424.243 398.556L426.254 419.287L372.252 422.471C372.223 422.276 372.171 422.086 372.099 421.901L372.101 421.9ZM426.304 419.792L428.646 443.914C428.134 444.042 427.655 444.317 427.276 444.739C427.128 444.904 427.004 445.082 426.904 445.268L393.672 432.144L372.175 423.654C372.24 423.431 372.278 423.205 372.284 422.978L426.304 419.792ZM267.24 517.439L291.658 510.991L306.752 507.007C306.901 507.415 307.146 507.792 307.492 508.105C308.169 508.717 309.067 508.925 309.898 508.752L313.9 521.765L267.284 517.851C267.28 517.711 267.265 517.574 267.242 517.437L267.24 517.439ZM392.515 507.367L351.791 523.741C351.643 523.455 351.446 523.184 351.19 522.957C350.752 522.562 350.222 522.336 349.676 522.27L349.193 506.561L392.411 506.823C392.426 507.008 392.461 507.193 392.513 507.371L392.515 507.367ZM349.168 522.254C348.479 522.3 347.805 522.599 347.305 523.155C347.179 523.294 347.071 523.442 346.978 523.598L311.919 507.007C311.998 506.789 312.047 506.563 312.07 506.336L348.687 506.558L349.17 522.256L349.168 522.254ZM310.383 508.604C310.75 508.452 311.092 508.222 311.377 507.907C311.501 507.768 311.612 507.62 311.703 507.467L324.223 513.398L346.755 524.073C346.703 524.218 346.666 524.367 346.639 524.517L314.443 521.812L310.379 508.603L310.383 508.604ZM346.599 525.022C346.606 525.765 346.908 526.502 347.503 527.04C347.744 527.257 348.013 527.421 348.296 527.538L332.77 577.711C332.396 577.633 332.013 577.634 331.641 577.712L314.608 522.337L346.6 525.024L346.599 525.022ZM334.045 578.357C333.804 578.14 333.535 577.976 333.252 577.859L348.778 527.687C349.321 527.802 349.89 527.748 350.405 527.534L365.241 555.463L334.245 578.558C334.182 578.488 334.115 578.422 334.043 578.358L334.045 578.357ZM350.854 527.296C351.046 527.169 351.227 527.019 351.388 526.842C351.438 526.789 351.48 526.731 351.523 526.676L381.605 540.63C381.263 541.442 381.329 542.376 381.788 543.132L365.652 555.156L350.854 527.296ZM382.093 539.856C382 539.959 381.919 540.07 381.844 540.182L351.795 526.242C351.913 526.01 351.993 525.769 352.043 525.52L388.022 529.096L384.981 539.08C383.983 538.758 382.841 539.023 382.094 539.853L382.093 539.856ZM352.092 525.016C352.095 524.793 352.071 524.569 352.019 524.351L392.708 507.847C392.855 508.131 393.053 508.396 393.306 508.624C393.549 508.844 393.821 509.009 394.109 509.126L388.176 528.602L352.094 525.015L352.092 525.016ZM427.472 448.622C427.503 448.65 427.535 448.673 427.567 448.7L409.046 481.475L396.276 504.07C395.743 503.831 395.152 503.774 394.591 503.889L380.248 457.023L426.639 447.213C426.762 447.739 427.04 448.233 427.472 448.622ZM392.944 504.934C392.634 505.347 392.459 505.823 392.412 506.309L349.175 506.047L347.955 466.39C348.509 466.321 349.044 466.085 349.48 465.686L392.944 504.934ZM347.448 466.407L348.667 506.046L312.07 505.825C312.02 505.234 311.782 504.66 311.357 504.2L345.972 465.866C346.412 466.197 346.928 466.377 347.448 466.407ZM307.291 504.218C306.706 504.867 306.488 505.716 306.62 506.516L295.617 509.42L267.105 516.947C267.065 516.842 267.018 516.738 266.965 516.636L305.34 491.575L310.761 503.711C309.653 503.037 308.192 503.221 307.291 504.218ZM266.754 519.548C267.019 519.186 267.182 518.779 267.25 518.359L314.062 522.289L331.154 577.858C330.869 577.974 330.602 578.139 330.362 578.352L266.754 519.548ZM334.547 578.964L365.482 555.913L377.738 578.987C377.546 579.114 377.366 579.264 377.204 579.441C376.802 579.886 376.575 580.427 376.515 580.979L334.942 580.195C334.909 579.765 334.778 579.343 334.547 578.964ZM378.187 578.749L365.895 555.608L382.091 543.54C382.154 543.611 382.221 543.677 382.293 543.74C382.66 544.073 383.095 544.285 383.55 544.384L379.333 578.538C378.944 578.525 378.554 578.597 378.191 578.75L378.187 578.749ZM414.666 531.234L388.689 528.653L394.594 509.273C395.34 509.426 396.13 509.268 396.765 508.807L415.246 529.859C414.92 530.268 414.726 530.745 414.665 531.232L414.666 531.234ZM415.6 529.492L397.145 508.47C397.159 508.454 397.175 508.44 397.19 508.424C398.209 507.298 398.119 505.558 396.992 504.539C396.905 504.461 396.812 504.388 396.717 504.322L425.28 453.782L427.988 448.986C428.153 449.077 428.326 449.15 428.5 449.205L417.389 528.824C416.746 528.827 416.108 529.049 415.596 529.491L415.6 529.492ZM429.149 443.836L426.814 419.762L450.435 418.368C450.319 419.201 450.588 420.069 451.221 420.701L430.732 444.222C430.246 443.93 429.696 443.805 429.153 443.837L429.149 443.836ZM474.551 364.081C474.464 364.175 474.392 364.274 474.321 364.377L433.692 341.879C433.773 341.694 433.833 341.502 433.87 341.308L479.828 346.021L476.815 363.187C475.991 363.122 475.148 363.423 474.55 364.084L474.551 364.081ZM486.551 300.752C486.882 301.052 487.268 301.251 487.672 301.362L479.921 345.518L433.924 340.802C433.929 340.3 433.798 339.798 433.532 339.357L486.339 300.537C486.405 300.612 486.475 300.685 486.551 300.752ZM429.74 343.121C430.004 343.281 430.288 343.395 430.581 343.459L424.334 393.057C424.045 393.042 423.756 393.076 423.473 393.151L413.089 365.415L429.738 343.118L429.74 343.121ZM422.998 393.331C422.686 393.481 422.4 393.692 422.152 393.963C421.421 394.773 421.263 395.896 421.647 396.843L371.876 421.444C371.786 421.297 371.681 421.156 371.559 421.024L412.724 365.901L422.992 393.331L422.998 393.331ZM371.579 424.728C371.747 424.542 371.881 424.339 371.988 424.127L426.702 445.734C426.599 446.052 426.555 446.384 426.57 446.711L380.1 456.538L370.58 425.428C370.95 425.277 371.291 425.045 371.579 424.728ZM379.751 457.129L394.106 504.037C393.812 504.158 393.533 504.328 393.287 504.556L349.823 465.308C350.257 464.729 350.428 464.025 350.349 463.343L379.75 457.127L379.751 457.129ZM345.597 465.525L311.253 503.559L305.776 491.293L345.469 465.37C345.51 465.424 345.552 465.474 345.597 465.525ZM266.688 516.213C266.595 516.094 266.494 515.983 266.38 515.878C266.265 515.774 266.142 515.685 266.016 515.603L292.828 463.555L305.134 491.105L266.691 516.211L266.688 516.213ZM265.959 520.276C266.088 520.198 266.213 520.107 266.33 520.006L266.514 520.017L330.021 578.726C329.642 579.219 329.458 579.805 329.455 580.391L296.489 583.348L265.958 520.28L265.959 520.276ZM312.135 622.059L300.128 591.358C300.425 591.209 300.702 591.006 300.937 590.744C301.089 590.577 301.211 590.395 301.315 590.204L323.535 599.65L313.758 622.087C313.231 621.913 312.665 621.905 312.137 622.058L312.135 622.059ZM301.513 589.736C301.645 589.324 301.677 588.888 301.61 588.468L329.609 581.321C329.757 581.736 330.008 582.121 330.358 582.44C330.519 582.587 330.695 582.707 330.875 582.807L323.738 599.186L301.513 589.736ZM331.339 583.009C332.052 583.244 332.834 583.178 333.499 582.821L351.314 609.749C351.167 609.857 351.026 609.984 350.897 610.125C350.765 610.27 350.654 610.428 350.559 610.591L324.201 599.386L331.337 583.01L331.339 583.009ZM351.752 609.489L336.336 586.19L354.363 609.614C353.563 609.131 352.577 609.094 351.752 609.489ZM334.07 582.414C334.128 582.36 334.185 582.303 334.241 582.244C334.643 581.799 334.87 581.258 334.93 580.706L376.503 581.49C376.554 582.171 376.854 582.836 377.401 583.33C377.882 583.765 378.477 583.996 379.078 584.031L380.907 641.379C380.512 641.442 380.128 641.594 379.787 641.827L334.067 582.413L334.07 582.414ZM379.586 584.014C379.778 583.989 379.968 583.948 380.154 583.884L403.789 635.609L383.834 642.925C383.682 642.603 383.469 642.307 383.186 642.053C382.679 641.594 382.048 641.363 381.415 641.347L379.587 584.016L379.586 584.014ZM384.004 643.402L403.998 636.072L411.617 652.747C411.372 652.889 411.144 653.068 410.945 653.289C410.749 653.506 410.596 653.744 410.481 653.997L383.992 644.824C384.119 644.357 384.122 643.868 384.001 643.403L384.004 643.402ZM415.03 656.976C416.023 655.877 415.961 654.199 414.913 653.172L437.672 625.247L397.72 697.252L412.279 657.792C413.244 658.048 414.315 657.772 415.029 656.979L415.03 656.976ZM398.177 698.227C398.084 698.143 397.984 698.068 397.882 697.999L438.206 625.328C438.591 625.479 439.002 625.541 439.407 625.512L444.65 661.388L398.311 698.364C398.266 698.319 398.223 698.272 398.175 698.228L398.177 698.227ZM437.174 620.924C437.141 620.961 437.113 621 437.083 621.038L381.641 582.637C382.052 581.913 382.101 581.049 381.808 580.292L402.901 569.776L437.465 620.649C437.363 620.734 437.265 620.822 437.174 620.924ZM381.582 579.838C381.449 579.623 381.287 579.423 381.087 579.244C380.72 578.911 380.285 578.699 379.83 578.6L384.047 544.446C384.534 544.462 385.023 544.345 385.458 544.106L402.61 569.351L381.578 579.836L381.582 579.838ZM385.882 543.818C385.984 543.733 386.084 543.643 386.175 543.541C386.581 543.092 386.807 542.545 386.867 541.987L454.005 542.863C454.027 543.128 454.085 543.388 454.183 543.64L403.075 569.122L385.884 543.817L385.882 543.818ZM454.01 542.355L386.875 541.479C386.868 541.391 386.858 541.303 386.84 541.215L414.893 532.719C415.044 533.05 415.264 533.354 415.548 533.612C416.677 534.63 418.415 534.541 419.434 533.415C419.668 533.156 419.84 532.863 419.957 532.558L454.038 542.149C454.024 542.218 454.016 542.287 454.008 542.357L454.01 542.355ZM417.895 528.87L428.995 449.31C429.848 449.41 430.737 449.109 431.356 448.422C431.634 448.114 431.829 447.758 431.943 447.384L473.516 456.045C473.421 456.879 473.71 457.742 474.365 458.357L419.039 529.367C418.69 529.106 418.299 528.941 417.893 528.868L417.895 528.87ZM474.206 454.515C473.929 454.824 473.734 455.179 473.619 455.551L432.96 447.081L471.861 449.703L474.595 454.157C474.456 454.26 474.323 454.38 474.203 454.514L474.206 454.515ZM432.063 446.509C432.043 445.781 431.742 445.063 431.159 444.537C431.153 444.531 431.145 444.527 431.138 444.519L451.608 421.022C452.438 421.589 453.497 421.646 454.372 421.215L471.539 449.171L432.065 446.508L432.063 446.509ZM454.805 420.951C454.943 420.848 455.076 420.728 455.197 420.594C455.3 420.477 455.392 420.355 455.473 420.226L516.651 451.616C516.575 451.807 516.52 452.002 516.486 452.203L472.159 449.214L454.805 420.951ZM455.58 417.458C455.435 417.184 455.243 416.93 454.999 416.709C454.948 416.663 454.894 416.622 454.841 416.58L475.73 368.535C476.331 368.733 476.981 368.715 477.568 368.493L493.752 401.425L455.58 417.458ZM479.076 364.745C478.926 364.428 478.711 364.132 478.433 363.882C478.102 363.582 477.716 363.383 477.312 363.272L480.33 346.072L517.478 349.88C517.461 350.147 517.483 350.414 517.542 350.674L479.072 364.744L479.076 364.745ZM519.156 347.525L490.057 300.897C490.191 300.796 490.318 300.681 490.433 300.553C490.963 299.966 491.19 299.214 491.129 298.484L507.324 295.622L519.497 347.407C519.38 347.439 519.266 347.479 519.154 347.527L519.156 347.525ZM507.711 295.037L499.719 261.04C500.154 260.894 500.559 260.642 500.887 260.276C500.966 260.189 501.034 260.098 501.101 260.005L538.496 281.235L547.915 286.581C547.718 287.023 547.646 287.504 547.692 287.972L507.713 295.036L507.711 295.037ZM548.383 285.857C548.302 285.946 548.23 286.041 548.163 286.14L501.353 259.565C501.418 259.422 501.468 259.277 501.507 259.128L552.613 267.528L550.543 284.953C549.751 284.92 548.953 285.224 548.383 285.857ZM553.174 267.107L559.316 215.379C559.766 215.39 560.216 215.29 560.627 215.083L596.713 272.549C596.447 272.693 596.2 272.882 595.986 273.119C595.734 273.398 595.55 273.717 595.432 274.051L553.175 267.103L553.174 267.107ZM598.198 272.221C597.856 272.201 597.51 272.243 597.183 272.349L561.055 214.815C561.187 214.716 561.312 214.602 561.424 214.475C561.711 214.156 561.907 213.792 562.021 213.406L598.712 220.583L598.195 272.222L598.198 272.221ZM562.121 212.908C562.167 212.453 562.101 211.996 561.923 211.571L596.905 192.971C596.989 193.071 597.077 193.167 597.175 193.257C597.692 193.723 598.335 193.955 598.98 193.963L598.72 220.065L562.121 212.908ZM596.36 191.912L559.512 201.357L559.282 181.22C559.935 181.152 560.564 180.855 561.037 180.33C561.248 180.097 561.408 179.839 561.524 179.565L596.311 190.748C596.245 191.135 596.261 191.53 596.36 191.912ZM556.851 180.204C556.942 180.317 557.042 180.426 557.152 180.528C557.618 180.951 558.191 181.179 558.774 181.226L559.007 201.487L503.846 215.624C503.8 215.499 503.744 215.374 503.679 215.256L556.851 180.204ZM486.37 257.157C486.98 257.066 487.563 256.772 488.01 256.28C488.226 256.042 488.39 255.773 488.507 255.49L496.16 257.863C495.964 258.79 496.251 259.793 497.004 260.473C497.278 260.72 497.589 260.899 497.914 261.018L488.837 295.992C488.726 295.973 488.612 295.962 488.498 295.956L486.371 257.154L486.37 257.157ZM485.699 299.242C485.758 299.55 485.871 299.848 486.037 300.126L433.231 338.945C433.165 338.87 433.095 338.798 433.019 338.73C431.918 337.735 430.234 337.801 429.207 338.854L393.891 310.274C394.206 309.802 394.359 309.261 394.353 308.719L485.7 299.244L485.699 299.242ZM391.368 311.487C391.689 311.514 392.015 311.485 392.327 311.4L412.516 365.331L371.823 419.822L391.367 311.484L391.368 311.487ZM368.466 425.412C368.985 425.633 369.555 425.684 370.096 425.573L379.602 456.638L350.246 462.844C350.103 462.388 349.844 461.96 349.463 461.617C349.36 461.524 349.252 461.444 349.139 461.37L368.464 425.413L368.466 425.412ZM344.882 463.879C344.912 464.247 345.016 464.609 345.19 464.942L305.565 490.819L293.239 463.223L344.88 463.876L344.882 463.879ZM223.277 517.207C223.259 516.742 223.122 516.28 222.871 515.874L292.111 463.836L265.565 515.371C264.525 514.953 263.29 515.197 262.494 516.076C261.679 516.979 261.577 518.27 262.142 519.274L223.276 517.21L223.277 517.207ZM251.916 587.85L296.184 583.88L297.471 586.542C297.246 586.676 297.036 586.847 296.852 587.052C296.449 587.497 296.221 588.042 296.16 588.597L251.913 587.852L251.916 587.85ZM315.426 623.624C315.276 623.265 315.047 622.931 314.738 622.654C314.577 622.507 314.402 622.39 314.221 622.287L324.002 599.846L350.35 611.047C350.178 611.533 350.151 612.055 350.257 612.552L315.426 623.624ZM355.016 613.769C355.652 613.038 355.835 612.061 355.58 611.19L376.139 637.908L355.017 613.772L355.016 613.769ZM398.839 701.41C399.232 700.553 399.156 699.547 398.636 698.753L444.74 661.961L454.931 731.7C454.412 731.826 453.923 732.103 453.537 732.529C453.462 732.612 453.394 732.699 453.333 732.786L398.838 701.408L398.839 701.41ZM455.837 731.64C455.703 731.627 455.567 731.621 455.432 731.629L445.2 661.598L471.648 640.495C471.683 640.532 471.718 640.568 471.755 640.603C472.117 640.931 472.543 641.141 472.988 641.243L455.837 731.64ZM471.052 637.52C470.707 638.365 470.803 639.336 471.323 640.101L445.116 661.013L439.916 625.423C440.418 625.291 440.89 625.019 441.263 624.606C441.384 624.473 441.488 624.33 441.578 624.18L471.052 637.52ZM439.638 620.045C439.042 619.953 438.426 620.059 437.89 620.357L403.366 569.541L454.413 544.09C454.545 544.305 454.707 544.505 454.907 544.684C455.21 544.955 455.555 545.147 455.92 545.263L439.641 620.044L439.638 620.045ZM478.095 454.313C477.234 453.536 476.017 453.405 475.035 453.889L472.488 449.742L515.893 452.669L478.954 455.865C478.85 455.287 478.565 454.737 478.092 454.312L478.095 454.313ZM519.022 449.895C518.75 449.914 518.481 449.971 518.226 450.07L494.448 401.683L518.387 391.628C518.532 391.902 518.725 392.158 518.968 392.377C519.407 392.774 519.94 393.002 520.488 393.064L519.022 449.895ZM520.517 387.601C519.867 387.67 519.241 387.968 518.769 388.49C518.682 388.584 518.608 388.686 518.538 388.789L479.111 367.023C479.361 366.45 479.405 365.815 479.25 365.22L517.705 351.155C517.856 351.502 518.08 351.827 518.382 352.097C518.852 352.521 519.426 352.751 520.012 352.794L520.519 387.6L520.517 387.601ZM521.238 347.501C520.842 347.343 520.417 347.283 520 347.317L507.827 295.533L547.786 288.473C547.923 288.947 548.187 289.391 548.582 289.745C548.73 289.878 548.886 289.991 549.053 290.086L521.24 347.505L521.238 347.501ZM553.021 286.788C552.874 286.368 552.622 285.977 552.269 285.656C551.909 285.331 551.489 285.12 551.047 285.02L553.116 267.61L595.311 274.548C595.27 274.824 595.269 275.105 595.312 275.379L553.021 286.788ZM625.315 223.834C625.192 223.93 625.077 224.035 624.969 224.154C624.715 224.434 624.53 224.753 624.412 225.091L599.227 220.165L599.488 193.923C599.878 193.856 600.256 193.704 600.59 193.469L625.313 223.835L625.315 223.834Z" fill="#2B6577"/>
<path d="M81.4229 246.232C82.1296 247.191 83.3418 247.555 84.4224 247.231L108.17 306.325C108.04 306.391 107.914 306.467 107.792 306.555C106.57 307.458 106.311 309.178 107.212 310.401C108.112 311.624 109.835 311.883 111.058 310.982C111.254 310.838 111.422 310.672 111.568 310.491L141.077 330.008C140.592 330.916 140.635 332.056 141.287 332.938C142.188 334.161 143.911 334.42 145.134 333.519C145.673 333.12 146.026 332.56 146.174 331.955L184.621 337.606C184.589 338.222 184.761 338.852 185.154 339.388C185.583 339.967 186.194 340.326 186.849 340.453L177.922 431.856C177.35 431.851 176.771 432.025 176.274 432.389C175.051 433.29 174.792 435.013 175.693 436.236C176.594 437.459 178.317 437.718 179.54 436.817C179.895 436.553 180.166 436.22 180.354 435.852L283.492 476.951C282.466 477.888 282.293 479.47 283.136 480.614C284.036 481.837 285.759 482.096 286.982 481.195C287.094 481.112 287.194 481.023 287.289 480.926L318.671 507.032C318.027 507.972 318.01 509.252 318.724 510.22C319.083 510.707 319.574 511.039 320.111 511.208L309.176 561.669L308.634 561.233L309.073 562.156L309.007 562.461L309.198 562.417L346.778 641.461C346.701 641.508 346.625 641.557 346.55 641.611C345.327 642.512 345.068 644.235 345.969 645.458C346.87 646.681 348.593 646.94 349.816 646.039C351.039 645.138 351.298 643.415 350.397 642.192C350.062 641.737 349.611 641.417 349.116 641.239L358.992 603.161C359.055 603.123 359.118 603.082 359.179 603.037C359.485 602.813 359.728 602.535 359.912 602.228L420.196 630.898C419.89 631.737 419.995 632.706 420.564 633.478C421.465 634.701 423.188 634.96 424.411 634.059C425.634 633.158 425.893 631.435 424.992 630.212C424.637 629.729 424.148 629.398 423.617 629.23L433.608 584.03C434.283 584.114 434.992 583.953 435.584 583.516C436.379 582.93 436.763 581.999 436.692 581.084L469.17 575.439C469.256 575.761 469.4 576.072 469.61 576.355C470.511 577.578 472.234 577.836 473.457 576.936C474.68 576.035 474.939 574.312 474.038 573.089C473.49 572.347 472.64 571.962 471.783 571.974L467.877 535.635C468.259 535.558 468.63 535.401 468.966 535.154C470.063 534.344 470.382 532.876 469.785 531.698L502.282 513.168C503.19 514.368 504.895 514.618 506.109 513.723C507.332 512.822 507.591 511.099 506.69 509.876C506.533 509.663 506.35 509.48 506.148 509.327L520.423 485.187C521.308 485.604 522.389 485.536 523.232 484.913C523.451 484.751 523.637 484.562 523.792 484.355L560.046 506.792C559.602 507.686 559.659 508.791 560.294 509.649C561.195 510.872 562.918 511.131 564.141 510.23C565.364 509.329 565.622 507.606 564.722 506.383C564.655 506.293 564.584 506.212 564.51 506.132L606.126 458.989C607.071 459.68 608.392 459.712 609.382 458.982C610.605 458.081 610.863 456.358 609.963 455.135C609.062 453.912 607.339 453.653 606.116 454.554C605.766 454.811 605.499 455.137 605.312 455.498L520.12 420.661C520.307 419.896 520.167 419.058 519.663 418.375C518.762 417.152 517.039 416.894 515.816 417.794C514.593 418.695 514.334 420.418 515.235 421.641C515.325 421.762 515.426 421.871 515.53 421.975L496.569 448.214C495.642 447.637 494.416 447.645 493.483 448.334C493.18 448.557 492.936 448.833 492.755 449.137L422.706 418.269C422.98 417.449 422.863 416.513 422.313 415.764C421.412 414.541 419.689 414.282 418.466 415.183C417.243 416.084 416.984 417.807 417.885 419.03C418.092 419.311 418.345 419.538 418.62 419.713L402.428 451.2C401.573 450.856 400.565 450.947 399.768 451.537L399.961 451.372L341.404 382.995C342.325 382.046 342.454 380.547 341.645 379.449C341.227 378.883 340.632 378.527 339.994 378.393L344.29 340.998C344.877 341.011 345.473 340.841 345.982 340.463C347.204 339.56 347.463 337.839 346.562 336.616C345.662 335.393 343.939 335.134 342.716 336.035C342.239 336.386 341.91 336.864 341.74 337.388L286.342 324.621C286.435 323.936 286.274 323.219 285.832 322.62C284.931 321.397 283.208 321.138 281.985 322.039C281.476 322.415 281.136 322.932 280.977 323.498L246.769 317.055C246.831 316.404 246.664 315.732 246.247 315.165C245.346 313.942 243.623 313.683 242.4 314.584C242.27 314.679 242.154 314.787 242.047 314.897L191.312 276.183C191.864 275.26 191.842 274.059 191.164 273.139C190.653 272.448 189.88 272.063 189.081 272.025L186.333 228.311C186.774 228.251 187.207 228.082 187.592 227.801C188.815 226.9 189.074 225.177 188.173 223.954C187.269 222.731 185.549 222.472 184.326 223.373C184.317 223.38 184.309 223.388 184.3 223.393L159.307 200.804L146.096 188.864C146.665 187.936 146.655 186.719 145.969 185.788C145.068 184.565 143.345 184.306 142.122 185.207C141.172 185.909 140.805 187.103 141.111 188.176L106.366 206.38C106.345 206.349 106.325 206.314 106.3 206.282C105.399 205.059 103.676 204.8 102.453 205.701C101.23 206.602 100.972 208.325 101.873 209.548C102.087 209.837 102.347 210.072 102.637 210.25L84.7553 242.087C83.8808 241.698 82.8288 241.775 82.0037 242.385C80.7807 243.286 80.522 245.009 81.4229 246.232ZM142.808 190.003C143.647 190.309 144.615 190.205 145.388 189.635C145.537 189.524 145.67 189.402 145.79 189.272L160.77 202.81L183.924 223.736C183.743 223.934 183.597 224.154 183.484 224.39L133.005 213.594L142.808 190.005L142.808 190.003ZM283.905 326.988L288.991 352.481L253.466 361.782C253.378 361.54 253.257 361.304 253.096 361.087C253.021 360.984 252.936 360.891 252.848 360.801L282.038 326.505C282.586 326.889 283.251 327.058 283.905 326.988ZM341.768 339.189C341.856 339.431 341.977 339.667 342.138 339.884C342.232 340.011 342.333 340.123 342.443 340.228L299.487 393.919C298.953 393.568 298.316 393.415 297.689 393.48L289.583 352.848L341.767 339.186L341.768 339.189ZM428.557 582.42L432.164 550.139L433.565 578.581C433.129 578.642 432.702 578.812 432.319 579.091C431.463 579.722 431.082 580.755 431.237 581.736L428.557 582.42ZM421.146 629.634C420.841 629.86 420.597 630.136 420.414 630.443L360.131 601.77C360.291 601.33 360.338 600.855 360.263 600.391L427.968 583.096L422.828 629.102C422.244 629.09 421.651 629.262 421.143 629.635L421.146 629.634ZM180.576 433.923C180.498 433.621 180.367 433.33 180.184 433.058L215.231 404.149C216.176 405.103 217.702 405.246 218.815 404.424L237.127 424.941L180.576 433.923ZM104.749 210.588C104.805 210.573 104.864 210.557 104.919 210.537L116.154 248.472C115.94 248.559 115.736 248.669 115.542 248.81C115.035 249.182 114.697 249.699 114.535 250.26L106.667 248.753L104.749 210.588ZM143.425 306.38L148.575 317.122C148.5 317.166 148.426 317.215 148.354 317.268C147.902 317.602 147.582 318.048 147.403 318.538L138.841 316.276L118.633 254.652L143.425 306.38ZM149.031 316.903L131.025 279.334L118.587 253.384C118.662 253.34 118.736 253.291 118.808 253.238C119.212 252.94 119.508 252.553 119.695 252.122L169.137 268.446L150.723 316.831C150.173 316.678 149.581 316.698 149.033 316.9L149.031 316.903ZM114.44 250.759C114.376 251.412 114.541 252.088 114.962 252.657C115.367 253.208 115.94 253.562 116.559 253.703L109.543 306.004L106.694 249.275L114.442 250.758L114.44 250.759ZM111.64 307.138C111.235 306.587 110.661 306.233 110.042 306.091L117.061 253.771C117.303 253.78 117.547 253.76 117.785 253.706L138.253 316.121L112.136 309.224C112.253 308.514 112.099 307.762 111.638 307.139L111.64 307.138ZM112.01 309.715L138.444 316.695L142.408 328.784C142.222 328.865 142.039 328.967 141.87 329.091C141.675 329.235 141.506 329.401 141.36 329.582L111.851 310.065C111.913 309.952 111.968 309.834 112.012 309.712L112.01 309.715ZM144.596 328.784C144.061 328.554 143.464 328.493 142.892 328.625L139.03 316.851L147.274 319.027C147.156 319.737 147.311 320.49 147.772 321.113C147.963 321.372 148.193 321.586 148.447 321.757L144.596 328.784ZM152.731 319.653L187.611 318.601L187.186 335.013C186.68 335.046 186.177 335.218 185.735 335.541C185.438 335.76 185.2 336.029 185.019 336.324L152.557 320.456C152.654 320.199 152.713 319.928 152.731 319.653ZM241.487 317.829C241.571 318.037 241.681 318.242 241.822 318.433C242.098 318.806 242.447 319.088 242.837 319.276L231.701 354.907L190.011 338.52C190.15 338.039 190.158 337.527 190.026 337.036L241.489 317.828L241.487 317.829ZM401.527 456.5L404.255 485.648C403.837 485.716 403.425 485.879 403.062 486.15C402.884 486.281 402.729 486.431 402.592 486.594L393.276 481.547L401.026 456.476C401.193 456.5 401.36 456.508 401.53 456.502L401.527 456.5ZM519.672 480.745C519.044 481.363 518.764 482.232 518.876 483.072L501.057 487.205L495.892 453.183C496.192 453.095 496.484 452.957 496.749 452.762L519.67 480.746L519.672 480.745ZM495.396 453.282L500.562 487.322L445.124 500.179C445.034 499.911 444.904 499.651 444.726 499.412C444.706 499.386 444.684 499.361 444.664 499.334L493.353 452.654C493.929 453.136 494.668 453.354 495.393 453.283L495.396 453.282ZM219.399 400.579C219.324 400.476 219.242 400.385 219.155 400.295L249.301 364.967C249.94 365.419 250.744 365.574 251.502 365.4L262.259 398.031L219.889 401.723C219.816 401.322 219.656 400.931 219.399 400.579ZM251.984 365.239C252.17 365.158 252.348 365.057 252.52 364.933C252.696 364.804 252.848 364.655 252.984 364.495L295.835 394.5C295.678 394.698 295.551 394.91 295.456 395.136L262.782 397.983L251.987 365.239L251.984 365.239ZM295.289 395.661C295.22 396.009 295.213 396.368 295.278 396.719L273.681 416.127L271.589 418.007C270.928 417.393 270.017 417.153 269.155 417.332L262.939 398.48L295.285 395.663L295.289 395.661ZM271.934 418.391C271.934 418.391 271.933 418.388 271.933 418.386L274.015 416.513L295.441 397.259C295.525 397.462 295.634 397.662 295.77 397.849C295.997 398.156 296.276 398.402 296.583 398.585L293.214 422.18L272.472 420.016C272.471 419.451 272.299 418.879 271.936 418.39L271.934 418.391ZM219.933 402.229L262.423 398.526L268.672 417.482C268.469 417.566 268.272 417.674 268.087 417.81C267.703 418.094 267.414 418.458 267.226 418.864L219.86 402.851C219.909 402.649 219.932 402.44 219.933 402.229ZM284.903 476.271L270.715 422.585C270.937 422.499 271.153 422.383 271.353 422.238C271.939 421.805 272.301 421.184 272.423 420.521L293.139 422.684L285.493 476.236C285.296 476.226 285.1 476.239 284.904 476.273L284.903 476.271ZM293.644 422.735L317.748 425.249C317.771 425.777 317.946 426.301 318.284 426.757C318.416 426.935 318.565 427.092 318.728 427.227L299.242 457.175L286.636 476.548C286.431 476.439 286.217 476.357 285.996 476.306L293.644 422.735ZM357.618 598.074L356.168 572.86L355.273 557.275C355.702 557.21 356.121 557.046 356.496 556.769C357.232 556.227 357.614 555.389 357.611 554.541L371.16 553.213L358.031 598.113C357.893 598.089 357.755 598.076 357.617 598.071L357.618 598.074ZM372.725 473.306L380.651 516.476C380.341 516.565 380.036 516.704 379.762 516.909C379.288 517.259 378.961 517.734 378.788 518.256L363.297 515.597L372.171 473.299C372.355 473.321 372.543 473.323 372.728 473.308L372.725 473.306ZM378.67 518.75C378.578 519.435 378.737 520.154 379.182 520.756C379.293 520.907 379.416 521.042 379.551 521.164L356.303 552.212C356.105 552.091 355.894 551.998 355.676 551.93L363.194 516.093L378.673 518.749L378.67 518.75ZM357.562 554.036C357.487 553.646 357.329 553.265 357.077 552.922C356.966 552.773 356.842 552.635 356.71 552.515L365.019 541.429L379.972 521.477C380.104 521.558 380.242 521.623 380.384 521.68L371.315 552.69L357.56 554.039L357.562 554.036ZM380.871 521.82C381.6 521.961 382.383 521.812 383.028 521.336C383.289 521.143 383.504 520.912 383.675 520.658L429.745 545.876C429.594 546.226 429.518 546.602 429.52 546.982L371.862 552.633L380.873 521.819L380.871 521.82ZM430.632 544.755C430.371 544.948 430.157 545.179 429.986 545.433L383.916 520.215C384.138 519.706 384.198 519.138 384.091 518.591L414.417 509.621L430.869 544.599C430.788 544.647 430.71 544.7 430.633 544.757L430.632 544.755ZM383.947 518.104C383.861 517.89 383.751 517.683 383.609 517.49C383.567 517.43 383.519 517.377 383.473 517.324L403.144 490.628C403.872 491.125 404.801 491.247 405.633 490.947L414.198 509.157L383.947 518.104ZM402.483 489.996C402.566 490.108 402.659 490.209 402.753 490.305L383.102 516.971C382.899 516.81 382.678 516.682 382.444 516.585L393.122 482.04L402.299 487.011C401.784 487.925 401.816 489.097 402.48 489.994L402.483 489.996ZM381.96 516.436C381.742 516.389 381.518 516.367 381.294 516.375L373.233 473.212C373.541 473.124 373.84 472.984 374.114 472.781C374.378 472.587 374.594 472.353 374.766 472.094L392.668 481.791L381.959 516.433L381.96 516.436ZM322.128 427.338C322.161 427.314 322.191 427.287 322.223 427.26L350.648 451.945L370.244 468.963C369.903 469.438 369.729 470.005 369.73 470.578L320.945 475.289L320.581 427.874C321.121 427.858 321.661 427.684 322.128 427.338ZM370.426 472.4C370.769 472.786 371.2 473.052 371.667 473.195L362.791 515.512L323.686 508.801C323.729 508.245 323.605 507.674 323.301 507.167L370.426 472.4ZM323.602 509.302L362.688 516.01L355.175 551.828C354.586 551.76 353.976 551.878 353.44 552.203L322.777 510.64C323.19 510.275 323.469 509.806 323.602 509.302ZM352.648 556.191C353.167 556.893 353.956 557.276 354.766 557.306L355.418 568.668L357.109 598.107C356.998 598.126 356.887 598.151 356.777 598.183L339.87 555.582L352.842 552.69C351.962 553.641 351.85 555.109 352.648 556.191ZM359.588 598.971C359.286 598.639 358.919 598.398 358.521 598.247L371.706 553.159L429.567 547.488C429.624 547.791 429.732 548.085 429.893 548.363L359.588 598.971ZM431.327 544.384L414.906 509.474L439.961 502.064C440.047 502.278 440.158 502.485 440.299 502.678C440.654 503.161 441.14 503.491 441.669 503.66L432.612 544.243C432.184 544.189 431.744 544.233 431.327 544.384ZM439.817 501.577L414.689 509.009L406.093 490.732C406.175 490.684 406.253 490.632 406.329 490.574C406.729 490.28 407.023 489.897 407.211 489.47L439.839 500.412C439.748 500.791 439.741 501.187 439.819 501.574L439.817 501.577ZM400.529 456.357L392.82 481.298L375.007 471.648C375.306 470.948 375.308 470.143 374.982 469.428L399.296 455.515C399.633 455.916 400.061 456.201 400.526 456.358L400.529 456.357ZM399.008 455.095L374.728 468.989C374.715 468.971 374.705 468.953 374.693 468.935C373.792 467.712 372.069 467.453 370.846 468.354C370.751 468.424 370.662 468.501 370.578 468.581L326.747 430.515L322.588 426.905C322.71 426.762 322.816 426.607 322.904 426.447L398.71 453.209C398.584 453.839 398.674 454.509 399.006 455.098L399.008 455.095ZM317.772 424.741L293.717 422.229L297.06 398.805C297.852 399.084 298.756 398.994 299.502 398.5L318.466 423.267C318.084 423.684 317.851 424.199 317.774 424.738L317.772 424.741ZM248.67 364.35C248.745 364.453 248.827 364.544 248.914 364.634L218.768 399.962C218.603 399.846 218.427 399.749 218.244 399.674L232.025 355.578L248.246 361.953C248.017 362.748 248.144 363.634 248.673 364.352L248.67 364.35ZM189.005 339.965C189.365 339.7 189.637 339.362 189.826 338.988L231.551 355.387L217.759 399.52C217.268 399.415 216.75 399.444 216.265 399.616L188.752 340.13C188.839 340.081 188.924 340.026 189.005 339.965ZM219.197 404.083C219.407 403.856 219.575 403.6 219.696 403.326L267.053 419.336C266.98 419.616 266.956 419.906 266.974 420.198L237.724 424.844L219.194 404.084L219.197 404.083ZM267.055 420.7C267.14 421.035 267.289 421.357 267.506 421.654C268.154 422.532 269.223 422.911 270.227 422.723L284.412 476.4C284.249 476.459 284.09 476.533 283.937 476.627L238.127 425.299L267.054 420.705L267.055 420.7ZM287.571 477.346C287.422 477.144 287.25 476.972 287.063 476.825L319.145 427.517C319.436 427.681 319.752 427.791 320.076 427.841L320.44 475.338L288.057 478.465C287.983 478.072 287.824 477.691 287.571 477.346ZM320.95 475.798L369.779 471.083C369.839 471.395 369.95 471.702 370.124 471.989L322.999 506.756C322.517 506.214 321.861 505.906 321.178 505.848L320.948 475.798L320.95 475.798ZM322.369 510.939L352.792 552.177L339.68 555.099L322.191 511.034C322.252 511.005 322.309 510.974 322.369 510.939ZM356.306 598.37C356.172 598.437 356.043 598.514 355.917 598.605C355.792 598.697 355.68 598.8 355.575 598.907L309.917 562.256L339.368 555.69L356.306 598.367L356.306 598.37ZM360.143 599.894C360.092 599.753 360.028 599.612 359.953 599.478L360 599.299L430.192 548.772C430.599 549.241 431.136 549.539 431.71 549.658L428.035 582.552L360.146 599.896L360.143 599.894ZM469.089 574.938L436.61 580.583C436.524 580.262 436.38 579.951 436.17 579.668C436.037 579.485 435.882 579.33 435.716 579.19L449.402 559.299L469.44 573.353C469.164 573.835 469.044 574.388 469.088 574.936L469.089 574.938ZM435.297 578.903C434.92 578.691 434.499 578.572 434.073 578.555L432.652 549.692C433.088 549.631 433.516 549.461 433.898 549.182C434.074 549.054 434.226 548.905 434.361 548.748L448.988 559.008L435.297 578.903ZM434.652 548.334C435.024 547.682 435.115 546.903 434.898 546.18L464.837 534.091C464.913 534.257 465.01 534.421 465.122 534.575C465.238 534.733 465.37 534.873 465.512 534.999L449.276 558.594L434.652 548.336L434.652 548.334ZM464.669 533.61L438.765 544.071L465.313 531.077C464.679 531.764 464.447 532.723 464.669 533.61ZM434.613 545.539C434.571 545.471 434.527 545.404 434.48 545.338C434.124 544.855 433.639 544.525 433.11 544.356L442.167 503.774C442.845 503.86 443.556 503.698 444.149 503.261C444.671 502.876 445.017 502.34 445.171 501.757L501.732 511.399C501.715 511.798 501.787 512.204 501.947 512.585L434.611 545.542L434.613 545.539ZM445.255 501.256C445.269 501.063 445.267 500.869 445.241 500.673L500.639 487.825L503.83 508.838C503.485 508.923 503.151 509.073 502.847 509.299C502.295 509.704 501.944 510.277 501.802 510.894L445.257 501.255L445.255 501.256ZM504.332 508.767L501.135 487.713L518.994 483.572C519.084 483.839 519.214 484.099 519.392 484.338C519.565 484.573 519.768 484.771 519.993 484.934L505.722 509.062C505.291 508.844 504.812 508.744 504.332 508.77L504.332 508.767ZM523.819 481.07C522.939 479.878 521.283 479.604 520.068 480.426L497.241 452.556L559.835 506.062L524.069 483.929C524.513 483.034 524.456 481.929 523.822 481.071L523.819 481.07ZM560.882 505.808C560.781 505.883 560.687 505.966 560.6 506.052L497.426 452.049C497.651 451.702 497.794 451.312 497.846 450.909L534.047 452.924L561.043 505.705C560.989 505.74 560.935 505.773 560.882 505.811L560.882 505.808ZM492.906 452.183C492.935 452.222 492.968 452.258 492.999 452.294L444.316 498.968C443.688 498.421 442.851 498.201 442.051 498.336L435.951 475.57L492.694 451.843C492.757 451.96 492.824 452.073 492.906 452.183ZM441.56 498.468C441.323 498.555 441.095 498.674 440.88 498.834C440.481 499.128 440.186 499.511 439.998 499.938L407.371 488.996C407.483 488.522 407.467 488.019 407.319 487.546L435.476 475.771L441.559 498.471L441.56 498.468ZM407.121 487.073C407.058 486.956 406.99 486.84 406.908 486.73C406.549 486.243 406.058 485.912 405.524 485.742L419.767 420.127C420.031 420.158 420.297 420.153 420.564 420.108L435.345 475.27L407.121 487.071L407.121 487.073ZM419.271 420.02L405.027 485.634C404.94 485.623 404.851 485.615 404.761 485.615L402.029 456.431C402.383 456.349 402.725 456.195 403.035 455.967C404.257 455.064 404.517 453.343 403.616 452.12C403.409 451.839 403.156 451.612 402.88 451.436L419.074 419.952C419.139 419.979 419.205 420.001 419.271 420.023L419.271 420.02ZM398.856 452.723L323.106 425.983C323.374 425.167 323.256 424.236 322.707 423.492C322.46 423.159 322.15 422.897 321.806 422.711L338.582 383.698C339.38 383.958 340.283 383.847 341.017 383.327L399.57 451.7C399.246 451.99 399.006 452.341 398.853 452.723L398.856 452.723ZM337.22 382.717C337.467 383.051 337.776 383.312 338.118 383.499L321.712 421.653L332.037 384.056L336.946 382.265C337.02 382.421 337.111 382.576 337.218 382.72L337.22 382.717ZM320.973 422.419C320.256 422.293 319.492 422.445 318.86 422.911C318.853 422.916 318.847 422.923 318.838 422.928L299.893 398.185C300.615 397.484 300.882 396.458 300.635 395.515L331.451 384.266L320.972 422.416L320.973 422.419ZM300.462 395.038C300.389 394.881 300.297 394.727 300.19 394.582C300.096 394.458 299.995 394.343 299.885 394.238L342.841 340.547C343.013 340.659 343.193 340.752 343.384 340.825L331.617 383.667L300.462 395.038ZM297.193 393.582C296.896 393.669 296.609 393.807 296.343 394.001C296.289 394.042 296.238 394.088 296.186 394.13L253.27 364.082C253.583 363.533 253.696 362.893 253.595 362.273L289.093 352.98L297.193 393.582ZM250.223 360.048C249.882 360.131 249.55 360.284 249.249 360.506C248.889 360.771 248.617 361.109 248.428 361.483L232.175 355.096L243.313 319.453C243.571 319.523 243.837 319.555 244.103 319.549L250.221 360.051L250.223 360.048ZM241.34 317.34L189.846 336.558C189.774 336.407 189.687 336.259 189.584 336.121C189.114 335.485 188.423 335.113 187.695 335.026L188.119 318.586L241.291 316.982C241.3 317.103 241.316 317.222 241.34 317.342L241.34 317.34ZM187.624 318.09L152.716 319.144C152.659 318.688 152.492 318.242 152.2 317.847C152.13 317.752 152.055 317.667 151.977 317.583L180.236 285.172L187.353 277.007C187.746 277.288 188.204 277.455 188.671 277.503L187.623 318.088L187.624 318.09ZM186.736 276.405C186.807 276.502 186.886 276.591 186.97 276.676L151.595 317.249C151.468 317.157 151.337 317.079 151.198 317.011L169.619 268.606L186.281 274.108C186.09 274.877 186.23 275.72 186.736 276.405ZM169.317 267.972L119.853 251.64C119.953 251.201 119.945 250.74 119.824 250.297L183.331 226.392C183.419 226.681 183.555 226.96 183.744 227.217C183.968 227.52 184.243 227.764 184.547 227.946L169.314 267.97L169.317 267.972ZM183.305 224.871C183.218 225.202 183.19 225.549 183.229 225.891L119.647 249.824C119.576 249.675 119.49 249.529 119.388 249.394C119.132 249.049 118.814 248.785 118.459 248.596L132.807 214.073L183.306 224.874L183.305 224.871ZM117.99 248.398C117.554 248.263 117.093 248.237 116.641 248.326L105.389 210.338C105.504 210.276 105.615 210.209 105.723 210.13C106.282 209.717 106.638 209.133 106.774 208.502L132.301 213.961L117.99 248.398ZM104.243 210.661L106.151 248.652L86.3723 244.863C86.4364 244.21 86.271 243.534 85.8506 242.966C85.6646 242.713 85.443 242.504 85.1981 242.336L103.092 210.478C103.458 210.619 103.849 210.682 104.243 210.661ZM84.8923 247.042C85.0218 246.976 85.1486 246.9 85.2697 246.813C85.7772 246.44 86.1148 245.924 86.2772 245.362L106.178 249.174L109.034 306.046C108.902 306.065 108.768 306.096 108.64 306.136L84.8923 247.042ZM146.249 331.451C146.281 330.835 146.11 330.205 145.716 329.669C145.526 329.41 145.295 329.196 145.041 329.024L148.893 321.998C149.762 322.375 150.802 322.294 151.618 321.691C151.915 321.472 152.153 321.204 152.334 320.908L184.796 336.776C184.756 336.881 184.722 336.99 184.693 337.1L146.246 331.449L146.249 331.451ZM187.355 340.499C187.669 340.502 187.984 340.452 188.289 340.344L215.801 399.829C215.715 399.879 215.629 399.933 215.548 399.994C214.354 400.874 214.082 402.538 214.91 403.754L179.863 432.663C179.463 432.26 178.963 432.003 178.43 431.901L187.358 340.498L187.355 340.499ZM180.548 435.377C180.639 435.069 180.675 434.743 180.654 434.42L237.528 425.388L282.812 476.129L180.545 435.378L180.548 435.377ZM287.62 480.533C287.94 480.068 288.103 479.52 288.102 478.968L320.44 475.845L320.668 505.85C320.192 505.899 319.722 506.067 319.31 506.372C319.198 506.454 319.098 506.544 319.003 506.641L287.621 480.535L287.62 480.533ZM320.612 511.313C320.979 511.356 321.355 511.327 321.716 511.222L339.174 555.211L309.674 561.788L320.61 511.313L320.612 511.313ZM348.626 641.107C348.167 641.033 347.687 641.075 347.239 641.24L310.05 563.015L355.258 599.303C354.641 600.238 354.634 601.497 355.337 602.452C356.059 603.431 357.304 603.789 358.4 603.435L348.629 641.109L348.626 641.107ZM423.561 627.128L428.496 582.957L431.361 582.226C431.448 582.474 431.573 582.714 431.737 582.935C432.093 583.418 432.581 583.75 433.113 583.92L423.562 627.131L423.561 627.128ZM471.279 572.025C470.897 572.101 470.524 572.258 470.19 572.505C470.015 572.634 469.865 572.782 469.728 572.94L449.687 558.881L465.917 535.295C466.359 535.56 466.864 535.69 467.373 535.686L471.279 572.025ZM469.514 531.265C468.924 530.495 468.004 530.122 467.099 530.198L497.38 515.378L469.517 531.265L469.514 531.265ZM564.133 505.794C563.371 505.238 562.37 505.112 561.489 505.464L534.627 452.95L604.998 456.867C605.017 457.401 605.192 457.935 605.532 458.399C605.598 458.489 605.67 458.572 605.744 458.65L564.13 505.795L564.133 505.794ZM605.119 455.967C605.08 456.096 605.047 456.228 605.028 456.362L534.363 452.427L518.957 422.303C518.999 422.276 519.042 422.249 519.084 422.219C519.477 421.93 519.768 421.555 519.956 421.139L605.119 455.967ZM515.923 422.293C516.681 422.8 517.652 422.9 518.505 422.542L533.773 452.393L497.86 450.392C497.832 449.874 497.659 449.358 497.329 448.91C497.222 448.765 497.103 448.634 496.974 448.516L515.923 422.293ZM492.535 449.592C492.326 450.158 492.307 450.784 492.493 451.368L435.814 475.068L421.051 419.972C421.288 419.885 421.516 419.766 421.731 419.606C422.057 419.363 422.314 419.063 422.5 418.729L492.534 449.59L492.535 449.592ZM337.797 378.866C336.864 379.555 336.493 380.722 336.772 381.78L332.2 383.45L343.722 341.499L339.49 378.334C338.902 378.32 338.306 378.49 337.795 378.869L337.797 378.866ZM341.627 337.88C341.592 338.15 341.595 338.426 341.64 338.695L289.484 352.349L284.404 326.886C284.701 326.798 284.99 326.66 285.254 326.466C285.73 326.115 286.06 325.638 286.23 325.114L341.627 337.88ZM280.882 323.996C280.82 324.647 280.987 325.319 281.404 325.886C281.479 325.989 281.565 326.082 281.652 326.172L252.462 360.468C251.95 360.108 251.337 359.939 250.723 359.972L244.607 319.485C244.978 319.407 245.341 319.251 245.665 319.01C246.174 318.634 246.514 318.117 246.673 317.551L280.882 323.994L280.882 323.996ZM241.73 315.295C241.497 315.652 241.353 316.056 241.304 316.471L188.132 318.075L189.181 277.511C189.672 277.472 190.161 277.301 190.586 276.985C190.746 276.866 190.887 276.736 191.014 276.592L241.735 315.293L241.73 315.295ZM188.573 272.045C188.132 272.106 187.699 272.274 187.314 272.556C186.924 272.845 186.634 273.214 186.447 273.627L169.799 268.129L185.01 228.164C185.272 228.259 185.548 228.317 185.825 228.329L188.573 272.045ZM141.297 188.652C141.365 188.791 141.446 188.925 141.541 189.054C141.765 189.36 142.041 189.604 142.347 189.787L132.499 213.485L106.836 207.997C106.849 207.602 106.775 207.201 106.612 206.826L141.297 188.654L141.297 188.652Z" fill="#B4185C"/>
<path d="M504.055 361.737L474.746 274.691C465.774 248.04 443.219 228.228 415.634 222.768L395.048 218.232C390.983 227.432 373.75 234.34 353.1 234.34C332.45 234.34 314.452 227.113 310.908 217.605L284.836 222.768C257.251 228.233 234.696 248.04 225.724 274.691L196.409 361.737L252.847 379.666L263.973 332.678L260.498 400H440.333L436.496 332.678L447.623 379.666L504.06 361.737H504.055Z" fill="#FBE4C6"/>
<path d="M353.095 234.34C373.739 234.34 390.973 227.431 395.042 218.231L376.589 214.167H328.253L310.903 217.605C314.447 227.113 331.983 234.34 353.095 234.34Z" fill="#FFBE97"/>
<path d="M433.812 321.477C433.494 321.477 433.212 321.248 433.159 320.925L425.917 279.609C425.853 279.248 426.097 278.903 426.458 278.839C426.824 278.776 427.164 279.02 427.227 279.38L434.47 320.697C434.533 321.057 434.289 321.402 433.929 321.466C433.891 321.471 433.849 321.477 433.812 321.477Z" fill="#4F2B2B"/>
<path d="M270.059 321.476C270.022 321.476 269.979 321.476 269.937 321.466C269.576 321.402 269.337 321.052 269.401 320.691L276.288 283.2C276.357 282.84 276.696 282.601 277.062 282.665C277.423 282.728 277.662 283.078 277.598 283.439L270.711 320.93C270.653 321.248 270.372 321.476 270.059 321.476Z" fill="#4F2B2B"/>
<path d="M331.553 192.583L328.253 214.167H376.589L374.19 186.853L331.553 192.583Z" fill="#FFBE97"/>
<path d="M375.5 201.5L374.5 189.999C356 187.833 325 182.8 339 196C353 209.2 368 202.333 375.5 201.5Z" fill="#4F2B2B"/>
<path d="M394.799 151.506C394.799 151.506 373.867 193.905 348.532 193.65C323.197 193.395 305.078 171.705 303.136 145.357C302.17 132.294 306.324 116.933 312.209 110.97C318.92 104.162 333.31 97.8061 346.15 96.416C364.561 94.421 378.059 108.763 378.059 108.763C378.059 108.763 390.777 112.386 396.019 125.736C399.462 134.496 394.793 151.506 394.793 151.506H394.799Z" fill="#4F2B2B"/>
<path d="M385.444 145.001C389.795 155.13 388.054 176.539 378.615 188.175C368.492 200.654 358.209 202.315 345.348 202.315C332.487 202.315 317.562 193.65 311.699 176.656C304.255 155.061 311.89 131.562 332.253 122.823C352.617 114.079 376.43 124.012 385.439 145.001H385.444Z" fill="#FFBE97"/>
<path d="M383.449 159.618C382.595 166.622 381.587 172.67 387.455 173.387C393.323 174.103 400.454 168.935 401.309 161.932C402.163 154.928 398.093 148.667 392.225 147.951C386.357 147.234 384.303 152.615 383.449 159.618Z" fill="#FFBE97"/>
<path d="M329.272 169.037C320.729 169.037 313.779 162.086 313.779 153.544C313.779 145.001 320.729 138.051 329.272 138.051C337.814 138.051 344.765 145.001 344.765 153.544C344.765 162.086 337.814 169.037 329.272 169.037ZM329.272 139.377C321.462 139.377 315.105 145.734 315.105 153.544C315.105 161.354 321.462 167.71 329.272 167.71C337.082 167.71 343.438 161.354 343.438 153.544C343.438 145.734 337.082 139.377 329.272 139.377Z" fill="white"/>
<path d="M366.349 169.037C357.807 169.037 350.856 162.086 350.856 153.544C350.856 145.001 357.807 138.051 366.349 138.051C374.891 138.051 381.842 145.001 381.842 153.544C381.842 162.086 374.891 169.037 366.349 169.037ZM366.349 139.377C358.539 139.377 352.182 145.734 352.182 153.544C352.182 161.354 358.539 167.71 366.349 167.71C374.159 167.71 380.515 161.354 380.515 153.544C380.515 145.734 374.159 139.377 366.349 139.377Z" fill="white"/>
<path d="M340.536 161.958L344.844 167.243L349.105 149.644L340.536 161.958Z" fill="#FFBE97"/>
<path d="M313.37 159.974C314.225 166.978 315.27 172.666 309.396 173.382C303.528 174.099 296.397 168.931 295.543 161.927C294.689 154.923 298.758 148.663 304.626 147.946C310.495 147.23 312.516 152.971 313.365 159.974H313.37Z" fill="#FFBE97"/>
<path d="M352.427 149.442C348.835 148.593 345.805 148.588 343.173 149.426L342.77 148.158C345.64 147.24 348.898 147.24 352.734 148.142L352.427 149.437V149.442Z" fill="white"/>
<path d="M379.709 119.502C379.709 119.502 363.431 135.011 356.167 136.629C348.904 138.247 341.842 136.438 341.842 136.438L345.232 131.217C345.232 131.217 340.839 136.056 335.65 136.831C330.461 137.611 323.319 136.38 323.319 136.38L327.813 130.039C327.813 130.039 319.271 139.452 310.994 137.977C310.994 137.977 327.436 110.005 345.768 110.949C364.099 111.894 379.704 119.502 379.704 119.502H379.709Z" fill="#4F2B2B"/>
<path d="M343.916 168.272C343.714 168.272 343.512 168.182 343.385 168.007L338.812 161.948L347.083 150.063C347.295 149.76 347.709 149.686 348.012 149.898C348.314 150.111 348.388 150.524 348.176 150.827L340.456 161.921L344.452 167.211C344.674 167.503 344.616 167.922 344.324 168.145C344.202 168.235 344.064 168.278 343.926 168.278L343.916 168.272Z" fill="#4F2B2B"/>
<path d="M387.349 162.648C387.275 162.648 387.206 162.638 387.132 162.611C386.787 162.489 386.601 162.112 386.718 161.767C386.739 161.704 388.925 155.464 394.756 155.963C395.122 155.995 395.393 156.318 395.361 156.685C395.329 157.051 395.006 157.332 394.64 157.289C389.864 156.876 388.05 161.985 387.975 162.203C387.88 162.478 387.62 162.648 387.344 162.648H387.349Z" fill="#4F2B2B"/>
<path d="M308.409 162.648C308.133 162.648 307.879 162.473 307.783 162.202C307.709 161.985 305.863 156.87 301.119 157.289C300.758 157.321 300.429 157.05 300.398 156.684C300.366 156.318 300.636 155.994 301.002 155.963C306.812 155.458 309.019 161.703 309.041 161.767C309.163 162.117 308.977 162.494 308.627 162.611C308.558 162.637 308.484 162.648 308.409 162.648Z" fill="#4F2B2B"/>
<path d="M348.537 378.96C368.709 378.96 385.062 375.245 385.062 370.662C385.062 366.079 368.709 362.363 348.537 362.363C328.365 362.363 312.012 366.079 312.012 370.662C312.012 375.245 328.365 378.96 348.537 378.96Z" fill="#FBE4C6"/>
<path d="M384.335 247.838H312.829V368.969H312.84C313.089 372.933 328.985 376.132 348.569 376.132C368.153 376.132 384.049 372.933 384.298 368.969H384.335V247.838Z" fill="#EF9C2E"/>
<path d="M348.537 255.907C368.709 255.907 385.062 252.394 385.062 248.06C385.062 243.726 368.709 240.213 348.537 240.213C328.365 240.213 312.012 243.726 312.012 248.06C312.012 252.394 328.365 255.907 348.537 255.907Z" fill="#FBE4C6"/>
<path d="M348.537 253.642C366.948 253.642 381.873 251.143 381.873 248.06C381.873 244.978 366.948 242.479 348.537 242.479C330.126 242.479 315.201 244.978 315.201 248.06C315.201 251.143 330.126 253.642 348.537 253.642Z" fill="#F5C07A"/>
<path d="M346.638 247.997C346.754 249.35 344.128 250.921 338.35 250.56C332.773 250.21 329.701 249.483 329.717 247.976C329.733 246.469 332.551 246.002 338.122 245.588C343.762 245.169 346.515 246.644 346.632 247.997H346.638Z" fill="#4F2B2B"/>
<path d="M338.546 250.544C336.769 250.565 334.736 250.3 332.561 249.891V211.557C332.561 207.227 333.537 202.866 335.389 198.95L344.637 179.388L349.253 183.07L340.801 201.508C339.326 204.627 338.546 208.103 338.546 211.557V250.549V250.544Z" fill="white"/>
<path d="M349.943 187.612C349.588 187.612 349.29 187.33 349.28 186.97C349.052 180.173 342.754 179.595 342.488 179.573C342.122 179.542 341.852 179.223 341.878 178.857C341.905 178.491 342.228 178.22 342.589 178.247C342.669 178.252 350.341 178.921 350.612 186.922C350.622 187.288 350.336 187.596 349.97 187.606C349.964 187.606 349.954 187.606 349.948 187.606L349.943 187.612Z" fill="#4F2B2B"/>
<path d="M358.183 264.396L334.11 297.208L349.863 305.426L343.21 336.497L364.486 300.423L351.535 293.488L358.183 264.396Z" fill="#854747"/>
<path d="M275.646 303.081L209.079 344.912C193.65 354.611 190.318 375.686 201.996 389.672C212.539 402.299 230.854 401.562 244.045 393.757C257.24 385.952 280.251 356.176 280.251 356.176L275.646 303.081Z" fill="#FFBE97"/>
<path d="M275.646 303.081L296.163 288.183C300.716 284.877 306.812 284.623 311.624 287.546L329.086 298.147C331.468 299.59 332.418 302.567 331.325 305.129C330.195 307.766 327.255 309.119 324.523 308.265L308.971 303.41L328.184 313.741C330.55 315.014 331.739 317.736 331.065 320.336C330.205 323.657 326.671 325.52 323.446 324.358L307.815 318.723L323.865 325.599C326.268 326.629 327.573 329.255 326.937 331.796C326.199 334.746 323.148 336.481 320.236 335.611L308.685 332.157L322.618 338.031C324.671 338.896 325.817 341.103 325.34 343.278C324.788 345.804 322.273 347.385 319.758 346.785L307.289 345.56L293.001 356.123C288.862 358.999 283.535 359.551 278.893 357.588L275.619 356.203L275.656 303.081H275.646Z" fill="#FFBE97"/>
<path d="M323.642 325.674C323.552 325.674 323.462 325.658 323.372 325.615L301.549 315.975C301.215 315.826 301.061 315.434 301.21 315.099C301.358 314.765 301.751 314.611 302.085 314.76L323.908 324.4C324.242 324.549 324.396 324.942 324.247 325.276C324.136 325.525 323.892 325.674 323.637 325.674H323.642Z" fill="#4F2B2B"/>
<path d="M314.649 306.387C314.559 306.387 314.468 306.371 314.384 306.328L301.984 300.895C301.65 300.747 301.496 300.354 301.639 300.02C301.788 299.686 302.175 299.526 302.514 299.675L314.914 305.108C315.248 305.257 315.402 305.649 315.259 305.984C315.148 306.233 314.904 306.381 314.649 306.381V306.387Z" fill="#4F2B2B"/>
<path d="M320.427 337.357C320.342 337.357 320.257 337.341 320.172 337.304L299.097 328.603C298.758 328.465 298.599 328.072 298.737 327.733C298.875 327.393 299.267 327.234 299.607 327.372L320.681 336.073C321.021 336.211 321.18 336.604 321.042 336.944C320.936 337.198 320.687 337.352 320.427 337.352V337.357Z" fill="#4F2B2B"/>
<path d="M278.888 358.256C278.729 358.256 278.564 358.198 278.437 358.081L274.882 354.808C274.611 354.558 274.596 354.139 274.845 353.868C275.094 353.598 275.513 353.582 275.784 353.831L279.339 357.105C279.609 357.354 279.625 357.773 279.376 358.044C279.243 358.187 279.068 358.256 278.888 358.256Z" fill="#4F2B2B"/>
<path d="M424.813 303.081L491.379 344.912C506.809 354.611 510.141 375.686 498.463 389.672C487.92 402.299 469.604 401.562 456.414 393.757C443.219 385.952 420.208 356.176 420.208 356.176L424.813 303.081Z" fill="#FFBE97"/>
<path d="M424.813 303.081L404.296 288.183C399.743 284.877 393.647 284.623 388.835 287.546L371.373 298.147C368.991 299.59 368.041 302.567 369.134 305.129C370.264 307.766 373.204 309.119 375.936 308.265L391.487 303.41L372.275 313.741C369.909 315.014 368.72 317.736 369.394 320.336C370.254 323.657 373.787 325.52 377.013 324.358L392.644 318.723L376.594 325.599C374.191 326.629 372.885 329.255 373.522 331.796C374.26 334.746 377.31 336.481 380.223 335.611L391.774 332.157L377.841 338.031C375.788 338.896 374.642 341.103 375.119 343.278C375.671 345.804 378.186 347.385 380.701 346.785L394.756 344.44L407.458 356.123C411.596 358.999 416.923 359.551 421.566 357.588L424.84 356.203L424.803 303.081H424.813Z" fill="#FFBE97"/>
<path d="M376.822 325.674C376.562 325.674 376.318 325.52 376.212 325.265C376.069 324.926 376.228 324.539 376.567 324.395L399.297 314.781C399.637 314.638 400.024 314.797 400.167 315.137C400.311 315.476 400.152 315.864 399.812 316.007L377.082 325.621C376.997 325.658 376.907 325.674 376.822 325.674Z" fill="#4F2B2B"/>
<path d="M386.85 305.724C386.585 305.724 386.336 305.565 386.229 305.305C386.097 304.966 386.261 304.578 386.606 304.44L398.311 299.835C398.65 299.702 399.038 299.867 399.176 300.212C399.308 300.551 399.144 300.938 398.799 301.076L387.094 305.682C387.015 305.714 386.93 305.73 386.85 305.73V305.724Z" fill="#4F2B2B"/>
<path d="M380.032 337.357C379.762 337.357 379.507 337.188 379.406 336.917C379.279 336.572 379.459 336.19 379.804 336.063L401.064 328.338C401.409 328.216 401.791 328.391 401.919 328.736C402.046 329.08 401.866 329.462 401.521 329.59L380.26 337.315C380.186 337.342 380.107 337.357 380.032 337.357Z" fill="#4F2B2B"/>
<path d="M421.571 358.256C421.391 358.256 421.216 358.182 421.083 358.044C420.834 357.773 420.85 357.354 421.12 357.105L424.675 353.831C424.946 353.582 425.365 353.598 425.614 353.868C425.864 354.139 425.848 354.558 425.577 354.808L422.022 358.081C421.895 358.198 421.73 358.256 421.571 358.256Z" fill="#4F2B2B"/>
<path d="M373.49 150.784H373.479L359.509 150.593C359.143 150.593 358.846 150.285 358.851 149.919C358.851 149.553 359.154 149.261 359.514 149.261H359.525L373.495 149.452C373.861 149.452 374.158 149.759 374.153 150.126C374.153 150.492 373.851 150.784 373.49 150.784Z" fill="#4F2B2B"/>
<path d="M373.49 154.328H373.479L359.509 154.137C359.143 154.137 358.846 153.83 358.851 153.464C358.851 153.097 359.154 152.806 359.514 152.806H359.525L373.495 152.997C373.861 152.997 374.158 153.304 374.153 153.671C374.153 154.037 373.851 154.328 373.49 154.328Z" fill="#4F2B2B"/>
<path d="M373.49 157.877H373.479L359.509 157.686C359.143 157.686 358.846 157.379 358.851 157.012C358.851 156.646 359.159 156.333 359.525 156.355L373.495 156.546C373.861 156.546 374.158 156.853 374.153 157.219C374.153 157.585 373.851 157.877 373.49 157.877Z" fill="#4F2B2B"/>
<path d="M322.252 150.784C321.891 150.784 321.594 150.492 321.589 150.126C321.589 149.759 321.875 149.457 322.247 149.452L336.212 149.261H336.222C336.583 149.261 336.88 149.553 336.885 149.919C336.885 150.285 336.599 150.587 336.228 150.593L322.263 150.784H322.252Z" fill="#4F2B2B"/>
<path d="M322.252 154.328C321.891 154.328 321.594 154.037 321.589 153.671C321.589 153.304 321.875 153.002 322.247 152.997L336.212 152.806H336.222C336.583 152.806 336.88 153.097 336.885 153.464C336.885 153.83 336.599 154.132 336.228 154.137L322.263 154.328H322.252Z" fill="#4F2B2B"/>
<path d="M322.252 157.878C321.891 157.878 321.594 157.586 321.589 157.22C321.589 156.854 321.875 156.552 322.247 156.546L336.212 156.355H336.222C336.583 156.355 336.88 156.647 336.885 157.013C336.885 157.379 336.599 157.682 336.228 157.687L322.263 157.878H322.252Z" fill="#4F2B2B"/>
<path d="M423.922 131.487C422.24 142.258 419.772 153.007 416.546 163.422C416.164 164.653 418.09 165.179 418.472 163.953C421.698 153.538 424.16 142.788 425.848 132.017C426.044 130.76 424.123 130.219 423.922 131.487Z" fill="#EF9C2E"/>
<path d="M410.132 134.962C416.472 143.404 423.662 151.166 430.002 159.602C430.766 160.616 432.496 159.623 431.726 158.594C425.386 150.153 418.197 142.39 411.856 133.954C411.092 132.941 409.362 133.933 410.132 134.962Z" fill="#EF9C2E"/>
<path d="M406.943 153.3C416.695 150.196 426.325 146.731 435.812 142.906C436.99 142.433 436.475 140.502 435.282 140.98C425.789 144.8 416.159 148.27 406.413 151.374C405.192 151.761 405.712 153.687 406.943 153.3Z" fill="#EF9C2E"/>
<path d="M313.28 74.5559C304.796 83.199 295.729 91.3116 286.369 98.989C283.881 101.032 281.355 103.043 278.793 104.99C277.784 105.754 278.777 107.489 279.801 106.714C289.553 99.3127 298.827 91.2373 307.709 82.817C310.076 80.5726 312.41 78.2965 314.697 75.9672C315.599 75.0493 314.188 73.638 313.286 74.5559H313.28Z" fill="#EF9C2E"/>
<path d="M294.832 66.963C295.097 78.6251 296.302 90.2342 296.986 101.87C297.177 105.096 297.326 108.327 297.4 111.553C297.432 112.837 299.427 112.837 299.395 111.553C299.13 99.8908 297.925 88.2817 297.241 76.6461C297.05 73.4202 296.901 70.1889 296.827 66.963C296.795 65.679 294.8 65.679 294.832 66.963Z" fill="#EF9C2E"/>
<path d="M275.922 84.8972C286.608 88.3566 297.395 91.5136 308.266 94.3416C311.365 95.148 314.469 95.928 317.583 96.6814C318.83 96.9838 319.361 95.0631 318.114 94.7554C307.194 92.1025 296.355 89.1366 285.616 85.8523C282.554 84.9185 279.498 83.9528 276.453 82.9659C275.227 82.568 274.702 84.494 275.922 84.8919V84.8972Z" fill="#EF9C2E"/>
<path d="M276.092 162.149C270.51 171.365 264.233 180.274 257.378 188.583C256.566 189.564 257.973 190.986 258.79 189.994C265.756 181.552 272.15 172.517 277.816 163.157C278.485 162.054 276.76 161.051 276.092 162.149Z" fill="#EF9C2E"/>
<path d="M262.169 160.16C264.822 170.331 268.51 180.2 271.157 190.377C271.481 191.618 273.407 191.093 273.083 189.846C270.43 179.675 266.743 169.806 264.095 159.63C263.772 158.388 261.846 158.913 262.169 160.16Z" fill="#EF9C2E"/>
<path d="M252.391 175.732C262.546 176.56 272.728 177.006 282.92 177.075C284.204 177.085 284.204 175.09 282.92 175.08C272.733 175.011 262.546 174.565 252.391 173.737C251.112 173.631 251.117 175.626 252.391 175.732Z" fill="#EF9C2E"/>
</g>
</svg>
