<svg width="700" height="400" viewBox="0 0 700 400" fill="none" xmlns="http://www.w3.org/2000/svg">
<mask id="mask0_377_5366" style="mask-type:alpha" maskUnits="userSpaceOnUse" x="0" y="0" width="700" height="400">
<rect width="700" height="400" rx="20" fill="white"/>
</mask>
<g mask="url(#mask0_377_5366)">
<path d="M73.534 194.214C74.5054 194.861 75.7423 194.79 76.6279 194.13L118.256 240.536C118.159 240.64 118.068 240.753 117.986 240.874C117.164 242.114 117.502 243.784 118.74 244.607C119.978 245.43 121.649 245.092 122.473 243.853C122.604 243.655 122.703 243.446 122.777 243.231L156.455 251.304C156.313 252.301 156.734 253.336 157.629 253.929C158.867 254.753 160.539 254.414 161.362 253.176C161.725 252.627 161.861 251.995 161.795 251.388L199.053 243.715C199.23 244.292 199.598 244.814 200.14 245.175C200.728 245.565 201.411 245.69 202.055 245.588L224.445 332.653C223.917 332.84 223.443 333.194 223.108 333.695C222.285 334.933 222.623 336.605 223.862 337.428C225.1 338.252 226.771 337.913 227.595 336.675C227.833 336.313 227.971 335.916 228.02 335.515L336.652 338.789C336.021 339.995 336.392 341.508 337.55 342.278C338.788 343.102 340.46 342.763 341.283 341.524C341.358 341.411 341.42 341.295 341.475 341.175L379.082 354.681C378.804 355.762 379.217 356.945 380.198 357.596C380.692 357.924 381.254 358.065 381.805 358.04L388.641 408.118L387.996 407.899L388.709 408.601L388.75 408.903L388.911 408.799L449.943 468.925C449.888 468.994 449.834 469.065 449.783 469.14C448.96 470.378 449.299 472.05 450.537 472.873C451.775 473.696 453.447 473.358 454.27 472.119C455.093 470.881 454.754 469.21 453.516 468.386C453.056 468.08 452.534 467.936 452.019 467.939L448.355 429.606C448.4 429.55 448.444 429.492 448.486 429.429C448.692 429.121 448.823 428.784 448.889 428.44L513.94 434.629C513.939 435.504 514.36 436.359 515.143 436.879C516.381 437.703 518.052 437.364 518.876 436.126C519.699 434.888 519.36 433.216 518.122 432.393C517.633 432.067 517.073 431.926 516.528 431.949L510.585 387.027C511.234 386.879 511.833 386.494 512.231 385.893C512.766 385.088 512.807 384.102 512.436 383.285L540.421 367.219C540.608 367.486 540.845 367.724 541.132 367.914C542.371 368.737 544.042 368.398 544.865 367.16C545.689 365.922 545.35 364.251 544.112 363.427C543.359 362.929 542.449 362.859 541.664 363.156L525.905 331.037C526.231 330.84 526.52 330.571 526.746 330.231C527.484 329.119 527.286 327.661 526.342 326.777L550.031 298.853C551.268 299.653 552.92 299.312 553.737 298.082C554.56 296.844 554.221 295.172 552.983 294.349C552.767 294.206 552.538 294.099 552.301 294.025L557.35 267.041C558.304 267.129 559.275 266.704 559.841 265.849C559.989 265.627 560.097 265.39 560.17 265.148L601.03 273.649C600.922 274.62 601.344 275.617 602.215 276.194C603.453 277.017 605.124 276.678 605.948 275.44C606.771 274.202 606.432 272.531 605.194 271.707C605.103 271.647 605.01 271.596 604.915 271.547L627.413 214.25C628.513 214.569 629.739 214.156 630.405 213.153C631.228 211.915 630.889 210.243 629.651 209.42C628.413 208.597 626.742 208.936 625.918 210.174C625.683 210.527 625.546 210.917 625.495 211.311L535.468 207.788C535.384 207.022 534.974 206.298 534.282 205.839C533.044 205.015 531.373 205.354 530.549 206.592C529.726 207.831 530.065 209.502 531.303 210.325C531.426 210.406 531.555 210.474 531.686 210.534L523.03 241.018C521.983 240.798 520.858 241.215 520.231 242.161C520.027 242.468 519.895 242.803 519.829 243.144L445.061 238.202C445.038 237.356 444.618 236.534 443.861 236.029C442.622 235.206 440.951 235.545 440.127 236.783C439.304 238.021 439.643 239.692 440.881 240.516C441.165 240.705 441.474 240.829 441.786 240.899L437.433 275.283C436.532 275.252 435.635 275.674 435.1 276.483L435.222 276.267L358.465 232.975C358.995 231.794 358.612 230.372 357.5 229.633C356.926 229.252 356.26 229.124 355.628 229.214L347.059 193.378C347.604 193.194 348.095 192.837 348.437 192.319C349.259 191.079 348.921 189.41 347.683 188.586C346.445 187.763 344.773 188.102 343.95 189.34C343.629 189.822 343.486 190.372 343.505 190.911L288.273 197.714C288.129 197.053 287.742 196.448 287.134 196.044C285.896 195.221 284.225 195.56 283.401 196.798C283.059 197.314 282.919 197.904 282.963 198.477L249.339 204.004C249.178 203.385 248.799 202.822 248.226 202.44C246.988 201.617 245.316 201.956 244.493 203.194C244.405 203.325 244.335 203.462 244.273 203.6L184.643 184.975C184.842 183.94 184.419 182.843 183.488 182.224C182.786 181.759 181.946 181.665 181.199 181.897L164.036 142.607C164.421 142.404 164.763 142.103 165.023 141.715C165.846 140.477 165.507 138.806 164.269 137.982C163.029 137.16 161.36 137.498 160.536 138.736C160.531 138.746 160.526 138.756 160.519 138.763L129.967 126.353L113.817 119.793C114.03 118.748 113.613 117.632 112.67 117.006C111.432 116.182 109.761 116.521 108.937 117.759C108.298 118.723 108.361 119.944 109.001 120.828L83.1356 149.206C83.1055 149.184 83.0759 149.16 83.0423 149.138C81.8042 148.314 80.1327 148.653 79.3093 149.891C78.4859 151.129 78.8248 152.801 80.0629 153.624C80.357 153.819 80.6752 153.948 81.0008 154.014L75.2116 189.286C74.2771 189.221 73.3351 189.644 72.7804 190.481C71.957 191.72 72.296 193.391 73.534 194.214ZM111.173 121.941C112.048 121.942 112.904 121.522 113.424 120.739C113.524 120.587 113.605 120.43 113.672 120.27L131.984 127.708L160.288 139.205C160.188 139.447 160.127 139.699 160.102 139.954L110.054 146.923L111.175 121.943L111.173 121.941ZM286.825 200.707L300.037 222.455L270.474 242.904C270.312 242.711 270.121 242.534 269.901 242.388C269.797 242.318 269.688 242.262 269.577 242.208L284.945 200.888C285.577 201.059 286.246 200.991 286.825 200.707ZM344.134 192.558C344.296 192.751 344.486 192.928 344.707 193.074C344.837 193.159 344.967 193.228 345.103 193.288L323.565 257.057C322.957 256.913 322.319 256.986 321.765 257.256L300.705 222.594L344.132 192.556L344.134 192.558ZM505.401 387.237L497.911 356.336L508.722 382.029C508.341 382.232 508.005 382.531 507.746 382.916C507.17 383.783 507.166 384.86 507.637 385.711L505.401 387.237ZM514.39 433.148C514.186 433.459 514.053 433.794 513.987 434.138L448.937 427.945C448.937 427.487 448.821 427.034 448.597 426.632L505.085 388.056L515.759 432.096C515.218 432.281 514.73 432.637 514.388 433.15L514.39 433.148ZM227.579 333.666C227.406 333.414 227.188 333.19 226.929 333.002L249.488 294.676C250.676 295.237 252.128 294.858 252.877 293.729L276.59 306.471L227.579 333.666ZM83.0572 153.618C83.104 153.586 83.1529 153.551 83.1969 153.515L106.232 184.648C106.064 184.798 105.913 184.968 105.782 185.163C105.44 185.675 105.302 186.263 105.341 186.834L97.5994 188.082L83.0572 153.618ZM150.704 228.783L159.038 236.941C158.983 237.006 158.932 237.076 158.883 237.149C158.579 237.608 158.435 238.125 158.434 238.635L149.801 239.421L110.58 189.502L150.704 228.783ZM159.384 236.586L130.243 208.057L110.114 188.351C110.169 188.285 110.22 188.216 110.269 188.142C110.541 187.733 110.683 187.278 110.711 186.819L161.655 185.282L160.917 235.953C160.359 235.998 159.821 236.213 159.385 236.583L159.384 236.586ZM105.42 187.325C105.58 187.947 105.959 188.514 106.536 188.896C107.093 189.267 107.739 189.401 108.356 189.324L119.412 239.781L97.7984 188.553L105.423 187.323L105.42 187.325ZM121.72 240.122C121.163 239.751 120.517 239.618 119.9 239.694L108.84 189.218C109.065 189.146 109.283 189.045 109.484 188.916L149.208 239.475L122.875 241.875C122.745 241.183 122.351 240.542 121.718 240.124L121.72 240.122ZM122.924 242.369L149.576 239.94L157.27 249.732C157.126 249.869 156.992 250.024 156.877 250.195C156.746 250.393 156.647 250.602 156.573 250.818L122.895 242.744C122.913 242.619 122.925 242.493 122.924 242.366L122.924 242.369ZM159.282 249C158.713 248.967 158.143 249.111 157.661 249.424L150.167 239.887L158.479 239.129C158.608 239.821 159.002 240.462 159.635 240.88C159.897 241.055 160.181 241.175 160.472 241.247L159.282 249ZM163.708 237.877L195.44 225.232L200.544 240.47C200.09 240.67 199.684 240.997 199.386 241.442C199.187 241.743 199.057 242.07 198.99 242.402L163.817 238.674C163.82 238.405 163.784 238.136 163.708 237.877ZM244.739 206.484C244.887 206.648 245.057 206.799 245.25 206.927C245.629 207.178 246.044 207.321 246.465 207.363L248.152 243.867L204.317 242.751C204.284 242.261 204.119 241.788 203.834 241.381L244.741 206.483L244.739 206.484ZM438.379 280.46L450.647 306.358C450.285 306.56 449.961 306.848 449.717 307.219C449.598 307.4 449.506 307.589 449.434 307.785L439.175 306.261L437.91 280.605C438.072 280.571 438.228 280.522 438.382 280.46L438.379 280.46ZM555.172 263.207C554.801 263.985 554.835 264.878 555.219 265.614L540.212 275.381L524.07 245.815C524.317 245.634 524.538 245.409 524.718 245.141L555.17 263.208L555.172 263.207ZM523.647 246.073L539.796 275.654L493.105 306.041C492.932 305.825 492.726 305.63 492.483 305.469C492.456 305.452 492.426 305.436 492.399 305.419L521.557 246.179C522.249 246.43 523.001 246.382 523.645 246.074L523.647 246.073ZM252.127 289.997C252.023 289.927 251.917 289.871 251.807 289.817L267.709 247.228C268.448 247.43 269.239 247.303 269.878 246.889L290.698 273.304L252.961 290.885C252.759 290.54 252.481 290.234 252.127 289.997ZM270.268 246.58C270.412 246.443 270.542 246.291 270.659 246.119C270.777 245.941 270.867 245.754 270.939 245.561L320.401 258.815C320.323 259.049 320.277 259.287 320.265 259.526L291.164 273.084L270.27 246.578L270.268 246.58ZM320.288 260.065C320.34 260.408 320.454 260.741 320.632 261.042L307.263 286.125L305.969 288.555C305.155 288.211 304.237 288.296 303.504 288.748L291.474 273.489L320.284 260.068L320.288 260.065ZM306.414 288.792C306.414 288.792 306.413 288.79 306.411 288.788L307.7 286.368L320.962 261.484C321.107 261.643 321.274 261.79 321.463 261.916C321.774 262.123 322.113 262.256 322.457 262.322L327.257 285.153L307.453 290.107C307.263 289.588 306.913 289.119 306.416 288.791L306.414 288.792ZM253.17 291.336L291.015 273.704L303.11 289.048C302.95 289.193 302.805 289.359 302.681 289.546C302.423 289.936 302.279 290.367 302.242 290.803L253.311 291.932C253.288 291.73 253.24 291.53 253.17 291.336ZM337.722 337.691L306.697 293.058C306.872 292.905 307.032 292.726 307.168 292.525C307.562 291.931 307.687 291.239 307.577 290.588L327.357 285.642L338.253 337.461C338.068 337.518 337.892 337.596 337.723 337.693L337.722 337.691ZM327.839 285.52L350.853 279.762C351.05 280.24 351.386 280.663 351.85 280.97C352.031 281.089 352.221 281.184 352.416 281.254L344.518 315.325L339.409 337.365C339.184 337.335 338.96 337.331 338.739 337.358L327.839 285.52ZM445.388 425.387L435.612 402.68L429.571 388.644C429.945 388.44 430.275 388.148 430.527 387.768C431.023 387.024 431.094 386.124 430.806 385.345L442.825 379.588L445.781 425.284C445.646 425.309 445.515 425.343 445.386 425.385L445.388 425.387ZM417.512 305.562L439.256 342.618C439 342.803 438.767 343.033 438.584 343.313C438.265 343.794 438.122 344.34 438.138 344.879L422.999 347.619L417 305.741C417.177 305.699 417.35 305.638 417.515 305.562L417.512 305.562ZM438.196 345.372C438.34 346.033 438.727 346.642 439.337 347.046C439.491 347.148 439.649 347.232 439.814 347.298L428.824 383.641C428.602 383.596 428.376 383.581 428.153 383.592L423.07 348.11L438.198 345.371L438.196 345.372ZM430.593 384.897C430.393 384.564 430.12 384.266 429.774 384.035C429.622 383.935 429.462 383.85 429.3 383.784L433.231 370.805L440.306 347.445C440.454 347.475 440.603 347.489 440.752 347.494L442.793 379.055L430.592 384.9L430.593 384.897ZM441.247 347.46C441.965 347.345 442.636 346.946 443.07 346.293C443.246 346.027 443.365 345.743 443.438 345.453L494.258 353.225C494.237 353.598 494.293 353.968 494.422 354.317L443.277 378.819L441.249 347.458L441.247 347.46ZM494.699 351.896C494.524 352.161 494.404 352.446 494.331 352.736L443.512 344.964C443.545 344.422 443.41 343.879 443.128 343.411L468.021 325.007L494.865 351.674C494.806 351.745 494.752 351.82 494.7 351.898L494.699 351.896ZM442.833 343.011C442.682 342.844 442.511 342.69 442.317 342.56C442.258 342.519 442.196 342.487 442.136 342.453L451.293 311.311C452.128 311.524 453.023 311.325 453.689 310.771L467.664 324.654L442.833 343.011ZM450.473 310.951C450.586 311.026 450.706 311.088 450.824 311.145L441.676 342.252C441.435 342.172 441.19 342.129 440.942 342.117L439.198 306.767L449.304 308.267C449.136 309.28 449.558 310.347 450.469 310.95L450.473 310.951ZM440.446 342.142C440.231 342.172 440.017 342.227 439.814 342.309L417.948 305.305C418.202 305.121 418.43 304.892 418.614 304.614C418.792 304.347 418.912 304.059 418.984 303.763L438.698 306.69L440.445 342.14L440.446 342.142ZM355.581 280.218C355.603 280.184 355.621 280.15 355.642 280.114L390.053 293.304L413.775 302.397C413.621 302.948 413.651 303.528 413.844 304.054L370.546 324.721L354.337 281.228C354.828 281.033 355.267 280.693 355.581 280.218ZM415.094 305.498C415.539 305.738 416.024 305.838 416.502 305.814L422.505 347.71L384.287 354.63C384.141 354.104 383.835 353.62 383.385 353.255L415.094 305.498ZM384.378 355.119L422.577 348.203L427.658 383.666C427.093 383.8 426.572 384.113 426.188 384.591L384.067 356.626C384.324 356.152 384.424 355.627 384.378 355.119ZM426.794 388.525C427.506 388.997 428.36 389.085 429.115 388.842L433.519 399.075L444.931 425.588C444.836 425.643 444.741 425.703 444.651 425.769L414.836 392.243L425.801 385.239C425.309 386.409 425.698 387.796 426.794 388.525ZM447.5 425.552C447.112 425.348 446.694 425.249 446.277 425.243L443.309 379.355L494.634 354.767C494.788 355.026 494.986 355.261 495.227 355.462L447.5 425.552ZM495.214 351.323L468.422 324.709L488.987 309.504C489.138 309.672 489.309 309.825 489.504 309.956C489.992 310.281 490.549 310.422 491.092 310.4L496.348 350.763C495.937 350.856 495.547 351.044 495.214 351.323ZM488.692 309.104L468.066 324.353L454.04 310.419C454.099 310.348 454.153 310.273 454.204 310.195C454.474 309.791 454.616 309.339 454.646 308.884L488.322 308.025C488.365 308.404 488.492 308.771 488.692 309.101L488.692 309.104ZM437.413 280.662L438.672 306.185L419.056 303.273C419.096 302.528 418.829 301.787 418.29 301.238L435.997 280.3C436.441 280.557 436.931 280.675 437.411 280.664L437.413 280.662ZM435.591 280.011L417.909 300.92C417.892 300.908 417.876 300.894 417.859 300.882C416.621 300.059 414.949 300.398 414.126 301.636C414.062 301.732 414.005 301.832 413.955 301.934L360.893 281.594L355.859 279.665C355.923 279.493 355.968 279.315 355.996 279.138L434.686 278.375C434.781 278.997 435.088 279.583 435.591 280.014L435.591 280.011ZM350.705 279.287L327.736 285.03L322.969 262.364C323.791 262.356 324.593 261.97 325.113 261.266L350.849 277.698C350.637 278.211 350.595 278.762 350.705 279.283L350.705 279.287ZM266.922 246.872C267.026 246.942 267.132 246.998 267.242 247.051L251.34 289.641C251.149 289.589 250.954 289.558 250.761 289.551L248.674 244.375L265.729 244.809C265.785 245.616 266.199 246.389 266.926 246.872L266.922 246.872ZM203.875 244.417C204.118 244.053 204.255 243.65 204.303 243.243L248.174 244.358L250.263 289.572C249.776 289.64 249.309 289.839 248.921 290.16L203.698 244.653C203.761 244.579 203.821 244.5 203.875 244.417ZM253.113 293.287C253.231 293.008 253.3 292.717 253.319 292.424L302.24 291.296C302.268 291.577 302.342 291.853 302.456 292.116L277.106 306.182L253.111 293.289L253.113 293.287ZM302.699 292.549C302.889 292.829 303.135 293.076 303.433 293.277C304.323 293.867 305.433 293.858 306.294 293.349L337.313 337.974C337.183 338.083 337.062 338.205 336.952 338.342L277.629 306.465L302.7 292.555L302.699 292.549ZM340.536 337.787C340.331 337.651 340.115 337.551 339.894 337.478L352.897 281.381C353.219 281.434 353.547 281.43 353.861 281.367L370.098 324.935L341.358 338.653C341.158 338.316 340.884 338.02 340.536 337.787ZM370.721 325.188L414.057 304.503C414.217 304.77 414.422 305.015 414.679 305.221L382.97 352.979C382.346 352.642 381.64 352.578 380.991 352.753L370.719 325.189L370.721 325.188ZM383.791 357.038L425.583 384.785L414.5 391.862L383.66 357.184C383.706 357.137 383.748 357.089 383.791 357.038ZM444.281 426.098C444.18 426.205 444.086 426.319 444.002 426.445C443.917 426.571 443.849 426.704 443.788 426.838L389.519 408.41L414.411 392.51L444.279 426.096L444.281 426.098ZM448.32 426.216C448.226 426.103 448.12 425.995 448.006 425.896L447.989 425.717L495.639 355.739C496.17 356.034 496.764 356.128 497.332 356.046L504.965 387.533L448.324 426.217L448.32 426.216ZM540.178 366.785L512.193 382.852C512.006 382.585 511.769 382.347 511.482 382.157C511.298 382.034 511.104 381.942 510.904 381.87L516.834 358.99L539.971 365.21C539.878 365.745 539.953 366.294 540.177 366.783L540.178 366.785ZM510.423 381.745C510.005 381.677 509.578 381.709 509.181 381.835L498.21 355.762C498.59 355.559 498.927 355.26 499.186 354.875C499.304 354.698 499.395 354.511 499.465 354.321L516.355 358.861L510.423 381.745ZM499.594 353.843C499.719 353.118 499.542 352.372 499.1 351.78L522.592 330.635C522.718 330.763 522.861 330.881 523.016 330.985C523.176 331.092 523.345 331.177 523.516 331.245L516.482 358.384L499.596 353.845L499.594 353.843ZM522.276 330.249L501.951 348.545L522.02 327.704C521.668 328.548 521.775 329.508 522.276 330.249ZM498.623 351.285C498.562 351.237 498.499 351.19 498.434 351.144C497.945 350.819 497.388 350.678 496.845 350.7L491.589 310.338C492.241 310.191 492.841 309.804 493.24 309.203C493.592 308.674 493.73 308.065 493.676 307.477L548.932 297.41C549.051 297.782 549.253 298.132 549.527 298.428L498.622 351.288L498.623 351.285ZM493.586 306.988C493.534 306.806 493.467 306.628 493.378 306.457L540.035 276.091L550.005 294.352C549.716 294.546 549.459 294.795 549.255 295.105C548.883 295.663 548.752 296.307 548.827 296.922L493.588 306.987L493.586 306.988ZM550.443 294.119L540.453 275.822L555.495 266.034C555.667 266.25 555.874 266.445 556.117 266.606C556.355 266.764 556.608 266.878 556.87 266.952L551.821 293.924C551.351 293.868 550.876 293.936 550.444 294.121L550.443 294.119ZM559.095 262.117C557.887 261.315 556.272 261.617 555.429 262.781L525.101 244.787L600.592 273.048L560.283 264.663C560.391 263.691 559.969 262.694 559.098 262.117L559.095 262.117ZM601.47 272.464C601.402 272.566 601.343 272.674 601.292 272.783L525.102 244.259C525.193 243.864 525.193 243.457 525.106 243.069L559.08 232.803L601.583 272.315C601.546 272.365 601.507 272.414 601.471 272.466L601.47 272.464ZM520.988 245.895C521.028 245.922 521.071 245.943 521.111 245.967L491.956 305.198C491.196 304.905 490.352 304.983 489.662 305.375L476.428 286.476L520.679 245.653C520.776 245.74 520.876 245.822 520.988 245.895ZM489.254 305.66C489.066 305.82 488.895 306.006 488.751 306.225C488.482 306.629 488.34 307.081 488.31 307.536L454.634 308.395C454.579 307.921 454.395 307.464 454.101 307.078L476.059 286.82L489.254 305.664L489.254 305.66ZM453.761 306.709C453.663 306.622 453.562 306.539 453.45 306.465C452.957 306.137 452.394 305.997 451.846 306.02L442.979 240.895C443.233 240.836 443.476 240.741 443.706 240.611L475.77 286.403L453.759 306.707L453.761 306.709ZM442.487 240.963L451.352 306.086C451.268 306.106 451.184 306.128 451.102 306.158L438.818 280.228C439.116 280.034 439.379 279.777 439.588 279.464C440.41 278.224 440.072 276.555 438.834 275.731C438.55 275.542 438.241 275.418 437.929 275.349L442.283 240.967C442.352 240.97 442.42 240.968 442.489 240.965L442.487 240.963ZM434.657 277.879L356.026 278.643C355.999 277.803 355.579 276.987 354.825 276.486C354.486 276.262 354.114 276.125 353.735 276.069L356.105 234.567C356.926 234.539 357.72 234.134 358.221 233.41L434.972 276.7C434.77 277.075 434.667 277.478 434.655 277.881L434.657 277.879ZM354.524 234.12C354.863 234.344 355.235 234.481 355.612 234.539L353.294 275.127L350.204 237.087L354.121 233.796C354.241 233.915 354.376 234.027 354.523 234.124L354.524 234.12ZM352.871 276.079C352.169 276.203 351.518 276.599 351.092 277.24C351.088 277.246 351.084 277.254 351.078 277.262L325.368 260.845C325.797 259.959 325.699 258.926 325.155 258.141L349.736 237.476L352.87 276.077L352.871 276.079ZM324.837 257.76C324.717 257.641 324.581 257.529 324.434 257.432C324.306 257.349 324.174 257.277 324.039 257.218L345.576 193.448C345.772 193.493 345.969 193.519 346.168 193.522L349.688 236.87L324.837 257.76ZM321.343 257.515C321.098 257.695 320.881 257.917 320.701 258.186C320.665 258.242 320.633 258.3 320.6 258.357L271.064 245.085C271.168 244.475 271.057 243.849 270.757 243.312L300.298 222.879L321.343 257.515ZM266.91 242.395C266.625 242.585 266.37 242.837 266.168 243.142C265.925 243.506 265.788 243.909 265.74 244.316L248.651 243.882L246.963 207.367C247.224 207.345 247.479 207.285 247.722 207.19L266.909 242.398L266.91 242.395ZM244.44 206.083L203.508 241.002C203.391 240.887 203.262 240.78 203.121 240.687C202.475 240.259 201.715 240.148 201.017 240.313L195.903 225.048L244.276 205.77C244.325 205.879 244.379 205.983 244.442 206.085L244.44 206.083ZM195.281 224.758L163.524 237.414C163.319 237.014 163.016 236.659 162.615 236.394C162.519 236.33 162.421 236.277 162.321 236.226L177.464 196.951L181.277 187.058C181.733 187.185 182.21 187.185 182.656 187.073L195.28 224.756L195.281 224.758ZM180.509 186.711C180.606 186.776 180.709 186.831 180.814 186.882L161.859 236.046C161.711 236.004 161.564 235.976 161.413 235.96L162.152 185.268L179.321 184.75C179.403 185.521 179.813 186.251 180.509 186.711ZM161.662 184.785L110.695 186.324C110.64 185.886 110.478 185.464 110.218 185.097L160.632 141.846C160.81 142.083 161.028 142.294 161.288 142.467C161.595 142.671 161.931 142.803 162.271 142.869L161.659 184.784L161.662 184.785ZM160.099 140.456C160.129 140.79 160.22 141.118 160.37 141.42L109.897 184.721C109.782 184.608 109.654 184.503 109.514 184.413C109.164 184.181 108.783 184.045 108.393 183.99L110.033 147.43L160.1 140.458L160.099 140.456ZM107.896 183.965C107.45 183.986 107.016 184.117 106.63 184.35L83.5622 153.174C83.6469 153.078 83.7267 152.98 83.7994 152.871C84.1761 152.304 84.308 151.647 84.2219 151.022L109.53 147.497L107.896 183.965ZM82.6157 153.855L97.0909 188.162L77.6286 191.299C77.4689 190.676 77.0904 190.11 76.5134 189.728C76.2578 189.558 75.9841 189.44 75.7024 189.367L81.4959 154.071C81.8802 154.078 82.2606 154.006 82.6157 153.855ZM76.9969 193.799C77.0938 193.694 77.185 193.582 77.267 193.461C77.6091 192.948 77.7467 192.36 77.7081 191.789L97.2899 188.633L118.958 239.99C118.843 240.052 118.73 240.125 118.625 240.205L76.9969 193.799ZM161.696 250.9C161.519 250.322 161.15 249.801 160.609 249.439C160.347 249.264 160.063 249.145 159.772 249.072L160.963 241.32C161.888 241.376 162.818 240.952 163.367 240.125C163.566 239.824 163.695 239.497 163.763 239.165L198.936 242.893C198.934 243.003 198.939 243.115 198.95 243.225L161.692 250.899L161.696 250.9ZM202.536 245.46C202.826 245.358 203.099 245.206 203.343 245.005L248.566 290.512C248.503 290.586 248.443 290.665 248.389 290.748C247.585 291.957 247.891 293.579 249.06 294.42L226.501 332.746C225.998 332.509 225.452 332.44 224.928 332.524L202.538 245.459L202.536 245.46ZM228.039 335.013C228.02 334.699 227.944 334.387 227.817 334.097L277.108 306.748L335.751 338.261L228.037 335.014L228.039 335.013ZM341.648 340.702C341.787 340.168 341.753 339.608 341.568 339.101L370.268 325.402L380.524 352.926C380.102 353.13 379.726 353.442 379.448 353.86C379.373 353.974 379.312 354.09 379.256 354.21L341.649 340.704L341.648 340.702ZM382.301 357.969C382.653 357.886 382.989 357.733 383.286 357.516L414.072 392.135L389.138 408.061L382.299 357.97L382.301 357.969ZM451.524 467.982C451.077 468.067 450.65 468.266 450.293 468.568L389.895 409.064L443.628 427.307C443.374 428.375 443.789 429.535 444.755 430.178C445.748 430.837 447.012 430.749 447.902 430.057L451.528 467.982L451.524 467.982ZM515.773 430.035L505.524 387.752L507.914 386.121C508.078 386.319 508.273 386.498 508.498 386.646C508.987 386.972 509.547 387.114 510.094 387.092L515.774 430.037L515.773 430.035ZM541.218 363.372C540.892 363.57 540.601 363.84 540.377 364.179C540.259 364.356 540.171 364.542 540.098 364.733L516.956 358.51L523.988 331.381C524.484 331.478 524.992 331.428 525.459 331.253L541.218 363.372ZM525.949 326.47C525.148 325.96 524.176 325.924 523.369 326.298L546.261 302.527L525.951 326.469L525.949 326.47ZM604.455 271.363C603.569 271.107 602.606 271.326 601.913 271.944L559.623 232.632L625.664 212.676C625.861 213.16 626.201 213.593 626.668 213.906C626.759 213.967 626.854 214.019 626.947 214.066L604.453 271.364L604.455 271.363ZM625.475 211.807C625.482 211.939 625.496 212.071 625.523 212.201L559.205 232.239L534.948 209.688C534.978 209.649 535.008 209.61 535.036 209.568C535.301 209.171 535.443 208.728 535.477 208.282L625.475 211.807ZM532.153 210.695C533.021 210.907 533.947 210.674 534.613 210.059L558.651 232.406L524.946 242.589C524.747 242.122 524.415 241.705 523.961 241.404C523.814 241.306 523.661 241.226 523.503 241.16L532.153 210.695ZM519.78 243.636C519.778 244.227 519.97 244.809 520.336 245.284L476.134 286.06L444.108 240.323C444.297 240.163 444.467 239.977 444.611 239.758C444.831 239.426 444.966 239.064 445.026 238.694L519.779 243.634L519.78 243.636ZM353.766 230.385C353.138 231.331 353.188 232.528 353.798 233.409L350.152 236.475L346.705 194.029L355.144 229.328C354.599 229.513 354.108 229.869 353.765 230.388L353.766 230.385ZM343.567 191.402C343.624 191.662 343.719 191.914 343.851 192.146L300.447 222.168L287.249 200.447C287.493 200.266 287.713 200.043 287.89 199.776C288.211 199.294 288.354 198.744 288.335 198.205L343.567 191.402ZM283.042 198.968C283.202 199.587 283.582 200.15 284.155 200.531C284.259 200.601 284.368 200.658 284.478 200.711L269.111 242.031C268.519 241.872 267.898 241.921 267.345 242.157L248.164 206.963C248.479 206.767 248.761 206.502 248.978 206.171C249.321 205.655 249.46 205.066 249.417 204.492L283.041 198.966L283.042 198.968ZM244.115 204.071C244.02 204.478 244.023 204.898 244.117 205.296L195.744 224.574L183.128 186.91C183.566 186.709 183.958 186.389 184.244 185.955C184.351 185.792 184.437 185.626 184.506 185.45L244.119 204.069L244.115 204.071ZM180.739 182.085C180.353 182.289 180.011 182.589 179.752 182.977C179.489 183.373 179.346 183.81 179.312 184.252L162.158 184.769L162.77 142.914C163.043 142.914 163.316 142.874 163.574 142.793L180.739 182.085ZM109.331 121.204C109.441 121.309 109.56 121.405 109.691 121.492C109.999 121.698 110.334 121.831 110.678 121.897L109.553 146.992L84.1094 150.536C83.9886 150.168 83.787 149.824 83.5114 149.534L109.333 121.206L109.331 121.204Z" fill="#2B6577"/>
<path d="M328.121 262.046L311.69 254.85C291.172 245.859 267.41 256.847 260.969 278.307C260.969 278.307 216.249 354.088 228.816 357.565C241.382 361.041 274.849 347.88 274.849 347.88L268.284 400.313H457.784L444.783 280.138C442.114 257.101 417.167 243.903 396.618 254.659L383.788 261.379L328.116 262.052L328.121 262.046Z" fill="#DF8711"/>
<path d="M330.92 241.111L328.121 262.043C328.121 262.043 329.984 279.317 355.654 279.317C381.325 279.317 383.793 261.37 383.793 261.37L377.057 228.694L330.915 241.106L330.92 241.111Z" fill="#FFBE97"/>
<path d="M390.198 203.928C390.198 203.928 370.026 244.788 345.607 244.55C321.188 244.307 303.723 223.401 301.85 198.004C300.919 185.412 304.923 170.611 310.598 164.858C317.07 158.298 330.935 152.172 343.31 150.832C361.055 148.913 374.067 162.731 374.067 162.731C374.067 162.731 386.323 166.223 391.377 179.09C394.693 187.533 390.198 203.928 390.198 203.928Z" fill="#4F2B2B"/>
<path d="M381.18 197.658C385.371 207.42 383.7 228.052 374.6 239.273C364.843 251.302 354.93 252.9 342.54 252.9C330.149 252.9 315.757 244.55 310.107 228.166C302.931 207.353 310.293 184.703 329.922 176.281C349.55 167.853 372.499 177.424 381.186 197.658H381.18Z" fill="#FFBE97"/>
<path d="M379.256 211.746C378.434 218.497 377.461 224.328 383.121 225.016C388.781 225.704 395.651 220.722 396.474 213.971C397.296 207.219 393.375 201.187 387.715 200.499C382.055 199.811 380.079 204.995 379.256 211.746Z" fill="#FFBE97"/>
<path d="M358.014 205.78C357.972 207.653 358.909 209.189 360.098 209.215C361.288 209.241 362.287 207.746 362.328 205.873C362.37 204 361.433 202.464 360.243 202.438C359.053 202.412 358.055 203.907 358.014 205.78Z" fill="#4F2B2B"/>
<path d="M328.669 205.621C328.628 207.494 329.564 209.03 330.754 209.056C331.944 209.082 332.943 207.587 332.984 205.714C333.025 203.841 332.089 202.305 330.899 202.279C329.709 202.253 328.711 203.748 328.669 205.621Z" fill="#4F2B2B"/>
<path d="M327.04 220.825C318.804 220.825 312.104 214.125 312.104 205.889C312.104 197.653 318.804 190.953 327.04 190.953C335.276 190.953 341.976 197.653 341.976 205.889C341.976 214.125 335.276 220.825 327.04 220.825ZM327.04 192.241C319.512 192.241 313.387 198.367 313.387 205.894C313.387 213.422 319.512 219.547 327.04 219.547C334.567 219.547 340.693 213.422 340.693 205.894C340.693 198.367 334.567 192.241 327.04 192.241Z" fill="white"/>
<path d="M362.773 220.825C354.537 220.825 347.837 214.125 347.837 205.889C347.837 197.653 354.537 190.953 362.773 190.953C371.009 190.953 377.709 197.653 377.709 205.889C377.709 214.125 371.009 220.825 362.773 220.825ZM362.773 192.241C355.245 192.241 349.12 198.367 349.12 205.894C349.12 213.422 355.245 219.547 362.773 219.547C370.3 219.547 376.426 213.422 376.426 205.894C376.426 198.367 370.3 192.241 362.773 192.241Z" fill="white"/>
<path d="M337.894 214.007L342.048 219.098L346.156 202.134L337.894 214.007Z" fill="#FFBE97"/>
<path d="M311.711 212.092C312.534 218.844 313.542 224.327 307.883 225.016C302.223 225.704 295.352 220.722 294.53 213.97C293.707 207.219 297.629 201.186 303.289 200.498C308.948 199.81 310.888 205.341 311.711 212.092Z" fill="#FFBE97"/>
<path d="M349.359 201.943C345.898 201.126 342.98 201.12 340.44 201.927L340.046 200.706C342.814 199.822 345.955 199.817 349.648 200.691L349.353 201.938L349.359 201.943Z" fill="white"/>
<path d="M375.65 173.083C375.65 173.083 359.959 188.029 352.959 189.592C345.96 191.154 339.151 189.411 339.151 189.411L342.421 184.377C342.421 184.377 338.189 189.038 333.186 189.788C328.183 190.539 321.303 189.354 321.303 189.354L325.638 183.239C325.638 183.239 317.407 192.313 309.424 190.89C309.424 190.89 325.271 163.931 342.943 164.842C360.611 165.752 375.65 173.088 375.65 173.088V173.083Z" fill="#4F2B2B"/>
<path d="M341.153 220.09C340.956 220.09 340.765 220.002 340.641 219.836L336.233 213.995L344.205 202.541C344.407 202.252 344.805 202.179 345.1 202.381C345.39 202.583 345.462 202.981 345.261 203.276L337.821 213.97L341.67 219.071C341.882 219.355 341.825 219.754 341.546 219.971C341.432 220.059 341.293 220.1 341.158 220.1L341.153 220.09Z" fill="#4F2B2B"/>
<path d="M342.695 232.445C341.702 232.445 341.081 232.352 341.055 232.347C340.703 232.29 340.465 231.964 340.522 231.612C340.579 231.26 340.905 231.027 341.257 231.079C341.624 231.136 350.315 232.388 354.723 224.24C354.894 223.929 355.282 223.816 355.592 223.981C355.903 224.152 356.022 224.54 355.851 224.85C352.204 231.597 345.721 232.445 342.695 232.445Z" fill="#4F2B2B"/>
<path d="M383.012 214.668C382.945 214.668 382.872 214.658 382.805 214.632C382.469 214.518 382.293 214.151 382.407 213.82C382.427 213.758 384.538 207.741 390.157 208.227C390.508 208.258 390.772 208.569 390.741 208.92C390.71 209.272 390.395 209.541 390.048 209.505C385.454 209.096 383.695 214.027 383.622 214.239C383.529 214.503 383.281 214.668 383.017 214.668H383.012Z" fill="#4F2B2B"/>
<path d="M306.931 214.668C306.667 214.668 306.418 214.503 306.325 214.239C306.253 214.027 304.468 209.107 299.9 209.505C299.548 209.531 299.238 209.272 299.207 208.92C299.176 208.569 299.439 208.258 299.791 208.227C305.394 207.741 307.52 213.758 307.541 213.82C307.655 214.156 307.479 214.518 307.143 214.632C307.075 214.658 307.003 214.668 306.936 214.668H306.931Z" fill="#4F2B2B"/>
<path d="M289.532 101.188H411.409V130.816H289.532C283.225 130.816 278.109 125.699 278.109 119.393V112.611C278.109 106.304 283.225 101.188 289.532 101.188Z" fill="#F5C07A"/>
<path d="M287.307 120.341C289.17 120.02 291.125 119.653 292.646 118.448C294.033 117.351 294.881 115.628 294.529 113.854C294.478 113.6 294.162 113.336 293.893 113.372C292.408 113.564 291.125 114.521 290.644 115.964C290.173 117.361 290.696 119.001 291.808 119.943C293.117 121.055 294.886 120.972 296.469 120.6C298.083 120.217 299.636 119.524 300.996 118.577C301.674 118.101 302.321 117.573 302.9 116.984C303.428 116.446 303.816 115.799 303.562 115.028C303.034 113.429 301.017 113.471 300.06 114.619C299.154 115.706 299.279 117.237 300.07 118.349C300.939 119.565 302.321 120.258 303.816 120.191C305.776 120.103 307.541 118.996 309.046 117.822C309.698 117.315 310.324 116.673 310.469 115.825C310.614 114.997 310.319 114.2 309.615 113.729C309.388 113.579 309 113.621 308.818 113.833C307.96 114.837 307.82 116.182 308.306 117.397C308.849 118.753 310.039 119.658 311.478 119.881C314.975 120.419 317.484 117.661 319.429 115.183C319.714 114.826 319.667 114.423 319.295 114.149C318.188 113.331 316.693 114.211 316.227 115.328C315.735 116.513 316.113 117.832 316.899 118.794C318.953 121.314 322.44 120.326 324.737 118.737C325.431 118.261 324.774 117.118 324.075 117.599C322.528 118.665 320.169 119.767 318.436 118.463C317.836 118.013 317.344 117.289 317.319 116.523C317.298 115.907 317.893 114.733 318.627 115.282C318.581 114.935 318.539 114.593 318.493 114.247C316.982 116.166 315.177 118.499 312.512 118.624C311.416 118.675 310.308 118.303 309.724 117.32C309.269 116.554 309.124 115.483 309.745 114.759C309.481 114.795 309.212 114.826 308.948 114.862C309.274 115.08 309.222 115.566 309.077 115.876C308.844 116.373 308.327 116.73 307.898 117.046C306.935 117.749 305.89 118.417 304.726 118.722C303.712 118.986 302.646 118.934 301.793 118.277C301.151 117.785 300.593 116.947 300.758 116.104C300.836 115.706 301.105 115.287 301.498 115.126C301.829 114.992 302.377 115.137 302.326 115.582C302.279 115.97 301.534 116.477 301.255 116.72C300.825 117.092 300.365 117.429 299.889 117.734C298.958 118.329 297.954 118.799 296.899 119.12C295.823 119.446 294.55 119.762 293.448 119.384C292.424 119.037 291.72 117.972 291.798 116.89C291.875 115.799 292.817 114.826 293.903 114.687C293.691 114.526 293.479 114.366 293.267 114.205C293.546 115.618 292.589 116.984 291.441 117.703C290.101 118.546 288.497 118.805 286.966 119.069C286.133 119.213 286.484 120.481 287.317 120.336L287.307 120.341Z" fill="#4F2B2B"/>
<path d="M411.72 130.822H398.403C392.097 130.822 386.98 125.706 386.98 119.399V112.617C386.98 106.31 392.097 101.194 398.403 101.194H411.72V130.822Z" fill="#F2AE54"/>
<path d="M411.72 126.264H401.373C397.006 126.264 393.462 122.72 393.462 118.353V113.656C393.462 109.289 397.006 105.746 401.373 105.746H411.72V126.264Z" fill="#FFF4E9"/>
<path d="M423.8 165.904L301.101 165.904V130.564H423.8C430.748 130.564 436.393 136.203 436.393 143.156V153.317C436.393 160.265 430.753 165.909 423.8 165.909V165.904Z" fill="#357E94"/>
<path d="M359.053 152.147C362.788 152.793 366.746 152.452 370.274 151.045C371.925 150.388 373.534 149.518 374.858 148.323C375.391 147.842 375.805 147.196 375.582 146.456C375.396 145.84 374.822 145.421 374.258 145.178C372.934 144.609 371.232 144.707 370.254 145.866C369.167 147.154 369.597 148.939 370.595 150.134C371.733 151.5 373.492 152.307 375.184 152.731C377.202 153.238 379.297 153.228 381.335 152.881C383.653 152.488 385.914 151.64 387.963 150.496C389.846 149.451 391.563 148.101 392.836 146.352C393.214 145.835 392.593 145.302 392.091 145.385C390.254 145.7 387.756 146.083 386.861 147.982C386.478 148.794 386.576 149.689 387.187 150.362C387.844 151.091 388.894 151.407 389.82 151.619C393.576 152.488 397.678 152.209 401.3 150.884C403.23 150.181 405.04 149.177 406.561 147.78C406.835 147.532 406.789 147.108 406.561 146.849C405.03 145.131 400.757 146.357 401.305 148.955C401.626 150.465 403.354 151.329 404.735 151.578C406.592 151.914 408.465 151.417 410.152 150.646C412.133 149.746 413.882 148.386 415.967 147.703C416.396 147.563 416.551 147.128 416.36 146.735C415.361 144.65 411.616 144.987 410.255 146.471C409.288 147.532 409.546 149.012 410.405 150.041C411.461 151.303 413.157 151.872 414.756 151.955C416.908 152.064 419.04 151.345 420.907 150.315C421.647 149.907 420.985 148.768 420.245 149.177C418.631 150.072 416.82 150.693 414.953 150.646C413.551 150.61 411.595 150.051 411.031 148.582C410.265 146.59 414.482 145.856 415.222 147.397C415.351 147.077 415.486 146.751 415.615 146.43C413.773 147.035 412.19 148.096 410.498 149.001C408.843 149.891 406.83 150.677 404.921 150.269C404.192 150.113 401.755 149.105 402.805 148.008C403.431 147.361 404.973 147.035 405.635 147.775V146.844C403.349 148.939 400.301 150.072 397.275 150.553C395.63 150.812 393.938 150.853 392.282 150.688C391.455 150.605 390.632 150.465 389.825 150.253C389.235 150.098 388.17 149.834 387.968 149.146C387.725 148.308 388.842 147.641 389.458 147.372C390.399 146.968 391.439 146.808 392.443 146.637L391.698 145.669C389.789 148.292 386.623 149.974 383.591 150.946C380.42 151.966 376.726 152.271 373.648 150.77C372.515 150.217 371.164 149.301 370.942 147.956C370.735 146.704 371.826 146.011 372.959 146.151C373.358 146.197 373.984 146.342 374.242 146.694C374.496 147.035 373.875 147.413 373.611 147.625C372.515 148.52 371.232 149.224 369.917 149.751C366.612 151.071 362.902 151.464 359.395 150.853C358.567 150.708 358.21 151.976 359.043 152.121L359.053 152.147Z" fill="#4F2B2B"/>
<path d="M268.761 130.563H312.937C319.885 130.563 325.529 136.203 325.529 143.156V153.316C325.529 160.264 319.89 165.909 312.937 165.909H268.761V130.569V130.563Z" fill="#307286"/>
<path d="M268.667 136H310.33C315.141 136 319.047 139.906 319.047 144.717V151.753C319.047 156.565 315.141 160.471 310.33 160.471H268.667V136Z" fill="#FFF4E9"/>
<path d="M417.199 101.24L293.123 101.24V74.6019L417.199 74.6019C421.555 74.6019 425.093 78.1406 425.093 82.4967V93.3455C425.093 97.7016 421.555 101.24 417.199 101.24Z" fill="#E95D9A"/>
<path d="M274.109 74.6016H309.656C314.013 74.6016 317.551 78.1402 317.551 82.4963V93.3503C317.551 97.7064 314.013 101.245 309.656 101.245H274.109V74.6016Z" fill="#E43A83"/>
<path d="M274.011 78.6982H305.601C308.617 78.6982 311.064 81.1453 311.064 84.1614V91.6785C311.064 94.6947 308.617 97.1417 305.601 97.1417H274.011V78.6982Z" fill="#FFF4E9"/>
<path d="M305.441 110.225L300.779 107.245L295.652 110.225V83.8145H305.441V110.225Z" fill="#357E94"/>
<path d="M383.157 90.3959C385.019 90.0751 386.975 89.7078 388.496 88.5024C389.882 87.4056 390.731 85.6828 390.379 83.9083C390.327 83.6548 390.012 83.391 389.743 83.4272C388.258 83.6186 386.975 84.5757 386.494 86.0191C386.023 87.4159 386.545 89.0559 387.658 89.9975C388.967 91.1098 390.736 91.027 392.319 90.6545C393.933 90.2717 395.485 89.5785 396.846 88.6317C397.523 88.1557 398.17 87.6281 398.75 87.0383C399.277 86.5002 399.665 85.8535 399.412 85.0827C398.884 83.4841 396.866 83.5255 395.909 84.674C395.004 85.7604 395.128 87.2918 395.92 88.4041C396.789 89.6198 398.17 90.3131 399.665 90.2458C401.626 90.1579 403.39 89.0508 404.896 87.8764C405.548 87.3694 406.174 86.7279 406.318 85.8794C406.463 85.0517 406.168 84.2549 405.465 83.7841C405.237 83.6341 404.849 83.6755 404.668 83.8876C403.809 84.8913 403.67 86.2364 404.156 87.4522C404.699 88.8076 405.889 89.713 407.327 89.9354C410.825 90.4735 413.334 87.716 415.279 85.2379C415.563 84.8809 415.517 84.4774 415.144 84.2032C414.037 83.3858 412.542 84.2653 412.076 85.3828C411.585 86.5675 411.963 87.8867 412.749 88.849C414.803 91.3685 418.29 90.3804 420.587 88.7921C421.28 88.3161 420.623 87.1728 419.925 87.6539C418.378 88.7197 416.019 89.8216 414.286 88.5179C413.685 88.0678 413.194 87.3435 413.168 86.5778C413.147 85.9622 413.742 84.7878 414.477 85.3362C414.43 84.9896 414.389 84.6481 414.342 84.3015C412.832 86.2209 411.026 88.5541 408.362 88.6783C407.265 88.73 406.158 88.3575 405.573 87.3746C405.118 86.6089 404.973 85.538 405.594 84.8137C405.33 84.8499 405.061 84.8809 404.797 84.9171C405.123 85.1344 405.072 85.6207 404.927 85.9311C404.694 86.4278 404.177 86.7848 403.747 87.1004C402.785 87.804 401.74 88.4713 400.576 88.7766C399.562 89.0404 398.496 88.9887 397.642 88.3316C397.001 87.8402 396.442 87.0021 396.608 86.1588C396.685 85.7604 396.954 85.3414 397.348 85.181C397.679 85.0465 398.227 85.1913 398.175 85.6363C398.129 86.0243 397.384 86.5313 397.104 86.7744C396.675 87.1469 396.215 87.4832 395.739 87.7884C394.807 88.3834 393.804 88.8542 392.748 89.1749C391.672 89.5009 390.4 89.8164 389.298 89.4388C388.273 89.0922 387.57 88.0264 387.647 86.9452C387.725 85.8535 388.666 84.8809 389.753 84.7412C389.541 84.5809 389.329 84.4205 389.117 84.2601C389.396 85.6725 388.439 87.0383 387.29 87.7574C385.95 88.6007 384.347 88.8593 382.815 89.1232C381.982 89.268 382.334 90.5356 383.167 90.3907L383.157 90.3959Z" fill="#4F2B2B"/>
<path d="M287.784 212.097L253.225 189.06L209.074 286.337L270.442 303.58L287.784 212.097Z" fill="#FFBE97"/>
<path d="M209.074 286.337L199.343 311.356C191.474 331.595 204.227 353.944 225.65 357.462C243.649 360.416 260.793 348.719 264.601 330.886L270.437 303.575L209.069 286.337H209.074Z" fill="#DF8711"/>
<path d="M253.225 189.059C253.225 189.059 258.652 175.872 259.893 163.466C261.135 151.06 257.1 106.087 261.135 106.087C265.17 106.087 268.58 107.639 270.747 126.869C270.747 126.869 269.764 121.783 273.577 121.292C277.39 120.805 280.008 133.325 282.072 144.769C284.136 156.213 287.328 170.849 288.829 178.733C290.329 186.612 294.271 200.555 287.784 212.097C281.296 223.634 253.225 189.059 253.225 189.059Z" fill="#FFBE97"/>
<path d="M412.216 212.097L446.77 189.06L490.926 286.337L429.553 303.58L412.216 212.097Z" fill="#FFBE97"/>
<path d="M490.926 286.337L500.658 311.356C508.526 331.595 495.774 353.944 474.35 357.462C456.352 360.416 439.207 348.719 435.399 330.886L429.563 303.575L490.931 286.337H490.926Z" fill="#DF8711"/>
<path d="M446.77 189.059C446.77 189.059 441.343 175.872 440.101 163.466C438.86 151.06 442.895 106.087 438.86 106.087C434.824 106.087 431.415 107.639 429.247 126.869C429.247 126.869 430.23 121.783 426.417 121.292C422.605 120.805 419.987 133.325 417.923 144.769C415.858 156.213 412.666 170.849 411.166 178.733C409.666 186.612 405.724 200.555 412.211 212.097C418.699 223.639 446.77 189.059 446.77 189.059Z" fill="#FFBE97"/>
<path d="M427.918 153.434C427.918 153.434 427.887 153.434 427.876 153.434C427.525 153.408 427.256 153.103 427.282 152.751L429.242 123.744C429.268 123.392 429.579 123.138 429.925 123.149C430.277 123.175 430.546 123.48 430.52 123.832L428.559 152.839C428.539 153.176 428.254 153.44 427.918 153.44V153.434Z" fill="#4F2B2B"/>
<path d="M271.518 150.18C271.177 150.18 270.897 149.911 270.877 149.57L269.583 123.293C269.568 122.942 269.837 122.641 270.194 122.621C270.53 122.595 270.845 122.874 270.866 123.231L272.16 149.507C272.175 149.859 271.906 150.159 271.549 150.18C271.539 150.18 271.528 150.18 271.518 150.18Z" fill="#4F2B2B"/>
<path d="M345.318 253.987C336.264 253.987 329.994 251.141 329.896 251.095C329.575 250.945 329.435 250.567 329.585 250.246C329.735 249.926 330.118 249.786 330.434 249.936C330.589 250.008 345.804 256.884 362.944 248.725C363.265 248.575 363.647 248.71 363.798 249.031C363.948 249.351 363.813 249.734 363.492 249.884C356.932 253.004 350.646 253.992 345.318 253.992V253.987Z" fill="#4F2B2B"/>
<path d="M274.855 348.521C274.855 348.521 274.809 348.521 274.783 348.521C274.431 348.48 274.177 348.164 274.219 347.812L278.461 310.273C278.502 309.922 278.813 309.673 279.17 309.71C279.522 309.751 279.775 310.067 279.734 310.418L275.491 347.957C275.455 348.283 275.176 348.526 274.855 348.526V348.521Z" fill="#4F2B2B"/>
<path d="M451.767 354.212C451.669 354.212 451.571 354.192 451.478 354.145C435.248 345.919 429.17 305.39 428.916 303.673C428.864 303.321 429.108 302.995 429.459 302.948C429.811 302.897 430.137 303.14 430.184 303.492C430.246 303.905 436.418 345.081 452.057 353.007C452.373 353.167 452.497 353.555 452.337 353.871C452.223 354.093 452 354.223 451.762 354.223L451.767 354.212Z" fill="#4F2B2B"/>
<path d="M267.1 331.196C267.074 331.196 267.049 331.196 267.023 331.196C266.671 331.155 266.423 330.834 266.464 330.482L269.811 303.503C269.853 303.151 270.173 302.897 270.525 302.944C270.877 302.985 271.125 303.306 271.084 303.658L267.737 330.638C267.695 330.964 267.421 331.202 267.1 331.202V331.196Z" fill="#4F2B2B"/>
</g>
</svg>
