<svg width="451" height="250" viewBox="0 0 451 250" fill="none" xmlns="http://www.w3.org/2000/svg">
<path d="M231.079 143.031L215.532 145.606C204.605 147.417 194.547 152.698 186.853 160.663L140.348 208.808L151.366 243.4L159.817 243.557C167 243.689 173.957 241.059 179.253 236.202L201.183 216.656L199.58 249.999H316.792L312.347 227.127L318.574 225.691C328.752 223.347 335.41 213.563 333.854 203.239L326.415 153.841C324.158 138.864 310.065 128.646 295.128 131.162L273.665 134.778L231.086 143.031H231.079Z" fill="#77DFF9"/>
<path d="M254.524 152.859C275.798 147.432 273.661 134.777 273.661 134.777L267.412 135.829L237.586 141.767L231.082 143.031C232.605 150.236 243.159 155.758 254.524 152.859Z" fill="#FFBE97"/>
<path d="M263.394 115.124L267.418 135.835L237.504 141.97L237.314 132.573L263.394 115.124Z" fill="#FFBE97"/>
<path d="M117.258 143.974L133.604 226.63C136.018 238.835 148.45 246.282 160.348 242.652C172.447 238.959 178.564 225.494 173.39 213.954L149.87 161.511L117.258 143.974Z" fill="#FFBE97"/>
<path d="M278.662 133.784L288.789 209.301C290.564 221.615 302.59 229.697 314.664 226.692C326.938 223.635 333.749 210.506 329.181 198.713L301.023 126.33L278.662 133.784Z" fill="#FFBE97"/>
<path d="M271.93 100.984C271.93 100.984 257.848 129.506 240.804 129.338C223.76 129.17 211.569 114.576 210.262 96.8494C209.612 88.059 212.409 77.7274 216.368 73.7138C220.886 69.1342 230.564 64.8576 239.204 63.9227C251.592 62.5824 260.675 72.2274 260.675 72.2274C260.675 72.2274 269.228 74.667 272.755 83.6473C275.071 89.5417 271.934 100.984 271.934 100.984H271.93Z" fill="#4F2B2B"/>
<path d="M265.633 96.6047C268.558 103.419 267.389 117.819 261.039 125.653C254.228 134.049 247.307 135.166 238.659 135.166C230.011 135.166 219.964 129.338 216.02 117.903C211.009 103.376 216.151 87.5659 229.85 81.6861C243.549 75.8063 259.57 82.4859 265.633 96.6083V96.6047Z" fill="#FFBE97"/>
<path d="M264.29 106.44C263.716 111.151 263.037 115.219 266.985 115.701C270.933 116.184 275.732 112.707 276.305 107.992C276.878 103.281 274.143 99.0701 270.191 98.5881C266.244 98.106 264.86 101.725 264.286 106.44H264.29Z" fill="#FFBE97"/>
<path d="M249.46 102.275C249.431 103.583 250.084 104.656 250.917 104.675C251.75 104.693 252.447 103.648 252.473 102.341C252.502 101.034 251.848 99.9599 251.016 99.9416C250.183 99.9234 249.485 100.968 249.46 102.275Z" fill="#4F2B2B"/>
<path d="M228.981 102.163C228.952 103.47 229.606 104.544 230.439 104.562C231.271 104.581 231.969 103.536 231.994 102.229C232.024 100.921 231.37 99.8476 230.537 99.8293C229.705 99.8111 229.007 100.856 228.981 102.163Z" fill="#4F2B2B"/>
<path d="M227.843 112.776C222.095 112.776 217.42 108.102 217.42 102.354C217.42 96.6053 222.095 91.9307 227.843 91.9307C233.591 91.9307 238.266 96.6053 238.266 102.354C238.266 108.102 233.591 112.776 227.843 112.776ZM227.843 92.8218C222.588 92.8218 218.315 97.0983 218.315 102.35C218.315 107.602 222.591 111.878 227.843 111.878C233.094 111.878 237.371 107.602 237.371 102.35C237.371 97.0983 233.094 92.8218 227.843 92.8218Z" fill="white"/>
<path d="M252.784 112.776C247.036 112.776 242.361 108.102 242.361 102.354C242.361 96.6053 247.036 91.9307 252.784 91.9307C258.533 91.9307 263.207 96.6053 263.207 102.354C263.207 108.102 258.533 112.776 252.784 112.776ZM252.784 92.8218C247.529 92.8218 243.256 97.0983 243.256 102.35C243.256 107.602 247.533 111.878 252.784 111.878C258.036 111.878 262.312 107.602 262.312 102.35C262.312 97.0983 258.036 92.8218 252.784 92.8218Z" fill="white"/>
<path d="M235.42 108.012L238.32 111.569L241.186 99.7295L235.42 108.012Z" fill="#FFBE97"/>
<path d="M217.141 106.681C217.715 111.392 218.42 115.219 214.468 115.701C210.52 116.183 205.722 112.706 205.148 107.992C204.575 103.28 207.31 99.0697 211.262 98.5876C215.21 98.1056 216.568 101.966 217.141 106.681Z" fill="#FFBE97"/>
<path d="M243.421 99.5921C241.003 99.0187 238.965 99.0187 237.194 99.5812L236.924 98.7266C238.856 98.113 241.047 98.1094 243.629 98.7156L243.424 99.5885L243.421 99.5921Z" fill="white"/>
<path d="M261.774 79.4517C261.774 79.4517 250.822 89.8856 245.935 90.9739C241.049 92.0622 236.298 90.8461 236.298 90.8461L238.58 87.3328C238.58 87.3328 235.626 90.5868 232.134 91.109C228.643 91.6313 223.841 90.8059 223.841 90.8059L226.865 86.5367C226.865 86.5367 221.116 92.8693 215.547 91.876C215.547 91.876 226.609 73.057 238.942 73.6925C251.275 74.3279 261.774 79.4481 261.774 79.4481V79.4517Z" fill="#4F2B2B"/>
<path d="M237.696 112.262C237.561 112.262 237.426 112.199 237.338 112.083L234.26 108.007L239.822 100.013C239.964 99.8081 240.242 99.7607 240.446 99.8994C240.651 100.042 240.698 100.319 240.56 100.524L235.366 107.989L238.054 111.549C238.204 111.747 238.164 112.028 237.967 112.178C237.886 112.24 237.791 112.269 237.696 112.269V112.262Z" fill="#4F2B2B"/>
<path d="M238.769 120.884C238.075 120.884 237.644 120.822 237.626 120.818C237.381 120.778 237.217 120.551 237.253 120.307C237.29 120.062 237.52 119.898 237.764 119.934C238.02 119.974 244.086 120.847 247.165 115.161C247.282 114.942 247.552 114.862 247.771 114.978C247.99 115.095 248.07 115.369 247.954 115.585C245.408 120.292 240.883 120.884 238.769 120.884Z" fill="#4F2B2B"/>
<path d="M266.915 108.478C266.867 108.478 266.816 108.471 266.769 108.452C266.535 108.372 266.411 108.116 266.491 107.883C266.506 107.839 267.974 103.639 271.9 103.979C272.145 104 272.327 104.216 272.305 104.464C272.283 104.709 272.068 104.899 271.82 104.87C268.613 104.592 267.386 108.029 267.335 108.175C267.269 108.361 267.097 108.474 266.911 108.474L266.915 108.478Z" fill="#4F2B2B"/>
<path d="M213.808 108.478C213.622 108.478 213.45 108.361 213.384 108.179C213.333 108.033 212.095 104.592 208.9 104.874C208.651 104.892 208.436 104.713 208.414 104.468C208.392 104.223 208.575 104.004 208.819 103.982C212.723 103.643 214.213 107.846 214.228 107.886C214.308 108.12 214.184 108.376 213.95 108.456C213.903 108.474 213.852 108.482 213.804 108.482L213.808 108.478Z" fill="#4F2B2B"/>
<path d="M130.436 97.0967V168.498C130.436 172.135 133.394 175.093 137.031 175.093H193.97C194.569 175.093 195.055 174.607 195.055 174.008V102.626L130.436 97.0967Z" fill="#DF8711"/>
<path d="M137.032 91.6045C133.99 91.6045 131.521 94.0696 131.521 97.1154C131.521 100.158 133.987 102.626 137.032 102.626H193.971V91.6081H137.032V91.6045Z" fill="#FBE4C6"/>
<path d="M193.97 103.707H137.031C133.394 103.707 130.436 100.749 130.436 97.1112C130.436 93.4738 133.394 90.5156 137.031 90.5156H193.97C194.569 90.5156 195.055 91.0013 195.055 91.6003C195.055 92.1992 194.569 92.6849 193.97 92.6849H137.031C134.592 92.6849 132.605 94.6716 132.605 97.1112C132.605 99.5508 134.592 101.537 137.031 101.537H193.97C194.569 101.537 195.055 102.023 195.055 102.622C195.055 103.221 194.569 103.707 193.97 103.707Z" fill="#DF8711"/>
<path d="M193.959 94.8467H139.971V95.2959H193.959V94.8467Z" fill="#9F5656"/>
<path d="M193.959 97.1211H139.971V97.5703H193.959V97.1211Z" fill="#9F5656"/>
<path d="M193.959 99.3936H139.971V99.8428H193.959V99.3936Z" fill="#9F5656"/>
<path d="M153.91 121.387C156.16 120.686 158.117 119.28 159.498 117.37C159.797 116.953 160.173 116.464 160.261 115.949C160.359 115.35 160.012 114.809 159.479 114.554C158.391 114.032 157.277 115.003 156.799 115.916C155.714 117.987 156.744 120.507 158.972 121.219C161.418 122 163.942 119.849 165.684 118.399C166.524 117.698 167.802 116.555 166.962 115.368C166.294 114.426 165.008 114.627 164.249 115.321C162.854 116.592 162.664 119.06 163.77 120.569C165.308 122.661 168.131 121.789 169.968 120.616C170.976 119.973 171.885 119.152 172.594 118.188C173.262 117.278 173.54 115.912 172.484 115.156C171.246 114.276 170.158 115.62 169.709 116.679C169.248 117.764 169.19 119.082 169.957 120.047C171.743 122.285 175.095 120.393 177.089 119.543C177.882 119.203 177.199 118.045 176.41 118.385C175.095 118.947 173.514 119.889 172.024 119.732C170.457 119.568 170.512 117.848 171.151 116.789C171.264 116.603 171.509 116.142 171.732 116.278C172.046 116.468 171.768 116.997 171.644 117.209C171.25 117.87 170.629 118.451 170.034 118.933C168.934 119.824 167.028 120.985 165.571 120.372C164.556 119.944 164.256 118.633 164.464 117.651C164.578 117.114 164.873 116.394 165.399 116.135C165.615 116.029 165.892 116.022 165.859 116.296C165.816 116.639 165.282 116.993 165.041 117.202C164.377 117.775 163.679 118.308 162.952 118.801C162.255 119.272 161.521 119.758 160.695 119.963C159.289 120.309 157.777 119.364 157.693 117.863C157.657 117.198 157.975 116.015 158.72 115.788C159.172 115.649 158.705 116.164 158.588 116.343C158.351 116.705 158.084 117.048 157.796 117.37C156.653 118.644 155.192 119.586 153.556 120.098C152.734 120.353 153.085 121.65 153.914 121.39L153.91 121.387Z" fill="#9F5656"/>
<path d="M187.143 71.2439L176.91 67.8256L187.143 64.4073L190.755 50L194.367 64.4073L204.604 67.8256L194.367 71.2439L190.755 85.6511L187.143 71.2439Z" fill="#F5C07A"/>
<path d="M120.906 133.036L138.246 117.796C139.696 116.522 141.902 116.664 143.18 118.11C144.305 119.385 144.349 121.284 143.286 122.613L127.765 141.973L141.047 137.835C142.775 137.298 144.634 138.138 145.371 139.789C146.164 141.564 145.393 143.642 143.637 144.474L128.028 151.866L143.556 145.566C145.225 144.891 147.135 145.57 147.997 147.151C148.936 148.868 148.3 151.022 146.58 151.957L128.565 161.763L141.807 155.766C143.264 155.105 144.988 155.701 145.722 157.125C146.452 158.531 145.967 160.266 144.608 161.087L125.336 173.292L118.109 146.6C115.907 141.962 117.05 136.425 120.906 133.036Z" fill="#FFBE97"/>
<path d="M127.696 162.844C127.539 162.844 127.382 162.76 127.302 162.61C127.185 162.395 127.265 162.121 127.481 162.004L141.603 154.32C141.819 154.203 142.092 154.28 142.209 154.499C142.326 154.714 142.246 154.988 142.03 155.105L127.908 162.789C127.839 162.826 127.766 162.844 127.696 162.844Z" fill="#4F2B2B"/>
<path d="M123.853 154.225C123.681 154.225 123.521 154.126 123.444 153.962C123.342 153.735 123.444 153.472 123.667 153.37L140.28 145.894C140.506 145.792 140.769 145.894 140.872 146.117C140.974 146.343 140.872 146.606 140.645 146.709L124.032 154.184C123.974 154.21 123.912 154.225 123.849 154.225H123.853Z" fill="#4F2B2B"/>
<path d="M120.221 144.982C120.038 144.982 119.87 144.872 119.801 144.69C119.713 144.46 119.83 144.2 120.064 144.113L128.682 140.895C128.912 140.808 129.172 140.925 129.259 141.158C129.347 141.388 129.23 141.648 128.996 141.735L120.378 144.953C120.326 144.971 120.272 144.982 120.221 144.982Z" fill="#4F2B2B"/>
<path d="M201.189 217.111H201.179C200.93 217.107 200.737 216.903 200.74 216.654L201.438 182.197C201.441 181.949 201.646 181.748 201.894 181.759C202.143 181.763 202.336 181.967 202.333 182.216L201.635 216.673C201.631 216.917 201.431 217.111 201.186 217.111H201.189Z" fill="#4F2B2B"/>
<path d="M280.485 136.107C280.485 136.107 276.183 134.832 273.952 132.086C271.72 129.34 267.798 123.368 267.798 123.368L253.92 118.785C252.368 118.27 251.47 116.649 251.861 115.06C252.211 113.632 253.508 112.642 254.98 112.675L266.911 112.96L266.41 104.564L252.949 87.7465C251.908 86.366 251.97 84.4451 253.099 83.134C254.406 81.6184 256.689 81.4248 258.23 82.7067L271.589 93.7906L283.94 93.8929C288.922 93.933 293.275 97.271 294.608 102.073L302.828 131.721L280.485 136.107Z" fill="#FFBE97"/>
<path d="M283.769 137.021C282.633 137.021 280.847 136.857 278.944 136.049C278.773 135.976 278.692 135.779 278.765 135.611C278.838 135.44 279.036 135.359 279.204 135.432C282.158 136.685 284.882 136.287 284.908 136.28C285.091 136.254 285.262 136.378 285.291 136.561C285.321 136.743 285.193 136.915 285.01 136.944C284.963 136.952 284.503 137.021 283.765 137.021H283.769Z" fill="#4F2B2B"/>
<path d="M267.798 123.706C267.761 123.706 267.729 123.703 267.692 123.688L253.814 119.105C252.105 118.539 251.105 116.727 251.535 114.982C251.926 113.389 253.354 112.316 254.987 112.341L266.556 112.619L266.085 104.694L252.689 87.9604C252.573 87.8143 252.598 87.6025 252.741 87.4892C252.887 87.376 253.095 87.3979 253.212 87.5404L266.739 104.442L267.268 113.309L254.972 113.013C253.635 112.973 252.503 113.857 252.189 115.142C251.842 116.552 252.649 118.013 254.03 118.469L267.908 123.053C268.083 123.111 268.178 123.301 268.119 123.476C268.072 123.619 267.94 123.706 267.802 123.706H267.798Z" fill="#4F2B2B"/>
<path d="M273.275 110.868C271.442 110.868 269.795 109.794 269.054 108.111L268.246 106.274C267.505 104.587 267.49 102.644 268.206 100.949L271.278 93.6634C271.351 93.4917 271.548 93.415 271.716 93.4844C271.887 93.5575 271.968 93.7547 271.895 93.9227L268.823 101.208C268.177 102.739 268.192 104.484 268.856 106.004L269.663 107.841C270.31 109.312 271.771 110.233 273.374 110.196L285.992 109.875C287 109.849 287.967 109.411 288.654 108.673L289.227 108.06C289.662 107.592 289.79 106.909 289.56 106.318C289.235 105.485 288.318 105.058 287.474 105.339L287.073 105.474C286.897 105.529 286.707 105.438 286.649 105.262C286.591 105.087 286.686 104.897 286.861 104.839L287.263 104.703C288.449 104.309 289.731 104.912 290.188 106.077C290.509 106.906 290.327 107.866 289.72 108.52L289.147 109.133C288.34 110.003 287.197 110.518 286.01 110.547L273.392 110.868C273.352 110.868 273.312 110.868 273.272 110.868H273.275Z" fill="#4F2B2B"/>
<path d="M279.644 110.722C277.811 110.722 276.164 109.648 275.423 107.965L274.616 106.128C273.874 104.44 273.86 102.498 274.575 100.803L277.212 94.1891C277.282 94.0175 277.479 93.9335 277.647 94.0029C277.818 94.0723 277.902 94.2658 277.833 94.4375L275.193 101.059C274.546 102.592 274.557 104.342 275.225 105.861L276.033 107.698C276.679 109.17 278.132 110.09 279.743 110.054H279.75C279.933 110.054 280.083 110.2 280.086 110.382C280.09 110.569 279.944 110.722 279.758 110.726C279.717 110.726 279.677 110.726 279.637 110.726L279.644 110.722Z" fill="#4F2B2B"/>
<path d="M285.879 110.548C284.045 110.548 282.398 109.474 281.657 107.791L280.85 105.954C280.109 104.266 280.094 102.324 280.81 100.629L283.636 94.2745C283.713 94.1065 283.91 94.0298 284.078 94.1028C284.246 94.1795 284.323 94.3767 284.25 94.5447L281.427 100.892C280.784 102.415 280.799 104.161 281.463 105.68L282.271 107.517C282.917 108.989 284.378 109.902 285.981 109.872C286.182 109.869 286.321 110.015 286.324 110.201C286.328 110.387 286.182 110.541 285.996 110.544C285.955 110.544 285.915 110.544 285.875 110.544L285.879 110.548Z" fill="#4F2B2B"/>
<path d="M288.184 105.238C288.143 105.238 288.103 105.23 288.063 105.216C287.891 105.15 287.804 104.956 287.87 104.785L289.403 100.738C289.469 100.563 289.663 100.479 289.834 100.545C290.01 100.611 290.094 100.804 290.028 100.976L288.494 105.022C288.443 105.157 288.315 105.238 288.18 105.238H288.184Z" fill="#4F2B2B"/>
<path d="M279.762 121.389C279.63 121.389 279.503 121.308 279.451 121.177C276.705 114.311 266.983 113.307 266.885 113.296C266.702 113.278 266.563 113.113 266.582 112.931C266.6 112.744 266.764 112.617 266.947 112.628C267.363 112.668 277.173 113.676 280.072 120.929C280.142 121.1 280.058 121.298 279.886 121.363C279.846 121.378 279.802 121.389 279.762 121.389Z" fill="#4F2B2B"/>
<path d="M239.691 135.995C238.376 135.995 237.587 135.903 237.562 135.903C237.317 135.874 237.142 135.651 237.171 135.407C237.2 135.162 237.427 134.987 237.668 135.016C237.766 135.027 247.433 136.119 256.198 130.301C256.403 130.162 256.68 130.221 256.819 130.425C256.954 130.63 256.899 130.907 256.695 131.046C250.154 135.389 243.124 135.998 239.691 135.998V135.995Z" fill="#4F2B2B"/>
</svg>
