<svg width="101" height="100" viewBox="0 0 101 100" fill="none" xmlns="http://www.w3.org/2000/svg">
<path d="M68.0749 77.419C61.6233 77.419 58.3975 74.1932 58.3975 74.1932C61.4136 72.1771 63.2362 68.79 63.2362 65.1448V54.8384C63.2362 46.8223 69.7362 40.3223 77.7523 40.3223C85.7684 40.3223 92.2684 46.8223 92.2684 54.8384V65.1448C92.2684 68.7739 94.091 72.1771 97.1071 74.1932C97.1071 74.1932 93.8813 77.419 87.4297 77.419H68.0749Z" fill="#EF9C2E"/>
<path d="M8.39746 56.4508V48.3862C8.39746 40.3701 14.8975 33.8701 22.9136 33.8701C30.9297 33.8701 37.4297 40.3701 37.4297 48.3862V56.4508H8.39746Z" fill="#EF9C2E"/>
<path d="M68.0752 58.0635V64.5151C68.0752 69.8538 72.4139 74.1925 77.7526 74.1925C83.0913 74.1925 87.43 69.8538 87.43 64.5151V58.0635H68.0752Z" fill="#F8D2A0"/>
<path d="M68.6234 67.7421H68.075C65.3976 67.7421 63.2363 65.5808 63.2363 62.9034C63.2363 60.226 65.3976 58.0647 68.075 58.0647H69.9622C72.8815 58.0647 75.6879 56.9034 77.7525 54.8389C79.817 56.9034 82.6234 58.0647 85.5428 58.0647H87.4299C90.1073 58.0647 92.2686 60.226 92.2686 62.9034C92.2686 65.5808 90.1073 67.7421 87.4299 67.7421H68.6234Z" fill="#F8D2A0"/>
<path d="M13.2363 51.6123V58.0639C13.2363 63.4026 17.575 67.7413 22.9137 67.7413C28.2525 67.7413 32.5912 63.4026 32.5912 58.0639V51.6123H13.2363Z" fill="#F8D2A0"/>
<path d="M13.7846 61.2897H13.2362C10.5588 61.2897 8.39746 59.1284 8.39746 56.451C8.39746 53.7736 10.5588 51.6123 13.2362 51.6123H32.591C35.2684 51.6123 37.4297 53.7736 37.4297 56.451C37.4297 59.1284 35.2684 61.2897 32.591 61.2897H13.7846Z" fill="#F8D2A0"/>
<path d="M53.5591 1.6123H21.301C19.5194 1.6123 18.0752 3.05655 18.0752 4.83811V24.1929C18.0752 25.9745 19.5194 27.4188 21.301 27.4188H53.5591C55.3406 27.4188 56.7849 25.9745 56.7849 24.1929V4.83811C56.7849 3.05655 55.3406 1.6123 53.5591 1.6123Z" fill="#FBE4C6"/>
<path d="M27.7527 66.1289V69.3547L39.285 72.8063C42.0108 73.6289 43.8818 76.1289 43.8818 78.9837V91.9192H1.94629V78.9837C1.94629 76.1289 3.81727 73.6289 6.54307 72.8063L18.0753 69.3547V66.1289H27.7527Z" fill="#9F5656"/>
<path d="M27.7526 64.5156H18.0752V77.4188H27.7526V64.5156Z" fill="#F8D2A0"/>
<path d="M32.6399 70.8222L27.7528 69.3545L22.9141 77.419L29.3657 82.2577L32.6399 70.8222Z" fill="#BF8888"/>
<path d="M16.4627 82.2577L22.9143 77.419L18.0756 69.3545L13.1885 70.8222L16.4627 82.2577Z" fill="#BF8888"/>
<path d="M11.6233 91.9346V83.8701L8.39746 91.9346H11.6233Z" fill="#9F5656"/>
<path d="M34.2041 91.9346V83.8701L37.4299 91.9346H34.2041Z" fill="#9F5656"/>
<path d="M82.5916 72.5801V75.8059L94.1239 79.2575C96.8497 80.0801 98.7206 82.5801 98.7206 85.4349V98.3704H56.7852V85.4349C56.7852 82.5801 58.6561 80.0801 61.3819 79.2575L72.9142 75.8059V72.5801H82.5916Z" fill="#E43A83"/>
<path d="M82.5915 70.9668H72.9141V83.87H82.5915V70.9668Z" fill="#F8D2A0"/>
<path d="M87.4787 77.2734L82.5916 75.8057L77.7529 83.8702L84.2045 88.7089L87.4787 77.2734Z" fill="#FADBE9"/>
<path d="M71.3015 88.7089L77.7531 83.8702L72.9144 75.8057L68.0273 77.2734L71.3015 88.7089Z" fill="#FADBE9"/>
<path d="M66.4621 98.3868V90.3223L63.2363 98.3868H66.4621Z" fill="#E43A83"/>
<path d="M89.043 98.3868V90.3223L92.2688 98.3868H89.043Z" fill="#E43A83"/>
<path d="M43.8818 11.2895V27.4185H53.5593C55.3334 27.4185 56.7851 25.9669 56.7851 24.1927V4.83789H50.3334C46.7689 4.83789 43.8818 7.72499 43.8818 11.2895Z" fill="#F5C07A"/>
<path d="M82.5913 8.06348H50.3332C48.5517 8.06348 47.1074 9.50772 47.1074 11.2893V30.6441C47.1074 32.4257 48.5517 33.8699 50.3332 33.8699H82.5913C84.3729 33.8699 85.8171 32.4257 85.8171 30.6441V11.2893C85.8171 9.50772 84.3729 8.06348 82.5913 8.06348Z" fill="#FADBE9"/>
<path d="M100.333 100H55.1719V85.452C55.1719 81.8552 57.4783 78.7585 60.9138 77.7262L71.3009 74.6133V72.5811H74.5267V77.0004L61.8493 80.8069C59.7848 81.4198 58.3977 83.2907 58.3977 85.4359V96.7585H97.1074V85.4359C97.1074 83.2746 95.7202 81.4198 93.6557 80.8069L80.9783 77.0004V72.5811H84.2041V74.6133L94.5912 77.7262C98.0267 78.7585 100.333 81.8552 100.333 85.452V100Z" fill="black"/>
<path d="M77.7522 75.8064C71.5264 75.8064 66.4619 70.7419 66.4619 64.5161V58.0645H69.6877V64.5161C69.6877 68.9677 73.3006 72.5806 77.7522 72.5806C82.2038 72.5806 85.8168 68.9677 85.8168 64.5161V58.0645H89.0426V64.5161C89.0426 70.7419 83.978 75.8064 77.7522 75.8064Z" fill="black"/>
<path d="M87.4295 69.3553H86.8811V66.1295H87.4295C89.2037 66.1295 90.6553 64.6779 90.6553 62.9037C90.6553 61.1295 89.2037 59.6779 87.4295 59.6779H85.5424C82.7198 59.6779 79.9618 58.7101 77.7521 56.9843C75.5424 58.7101 72.7844 59.6779 69.9618 59.6779H68.0747C66.3005 59.6779 64.8489 61.1295 64.8489 62.9037C64.8489 64.6779 66.3005 66.1295 68.0747 66.1295H68.623V69.3553H68.0747C64.5101 69.3553 61.623 66.4682 61.623 62.9037C61.623 59.3391 64.5101 56.4521 68.0747 56.4521H69.9618C72.4295 56.4521 74.865 55.4521 76.6069 53.694L77.7521 52.5488L78.8972 53.694C80.6392 55.4359 83.0746 56.4521 85.5424 56.4521H87.4295C90.994 56.4521 93.8811 59.3391 93.8811 62.9037C93.8811 66.4682 90.994 69.3553 87.4295 69.3553Z" fill="black"/>
<path d="M85.1069 91.4037L75.623 84.2908L81.2037 74.9844L83.9779 76.6295L79.8811 83.4521L83.3005 86.0166L85.8811 76.9844L88.9779 77.8553L85.1069 91.4037Z" fill="black"/>
<path d="M70.3973 91.4037L66.5264 77.8553L69.6231 76.9844L72.2038 86.0166L75.6231 83.4521L71.5264 76.6295L74.3005 74.9844L79.8812 84.2908L70.3973 91.4037Z" fill="black"/>
<path d="M45.4943 93.5483H0.333008V78.9999C0.333008 75.4031 2.63946 72.3063 6.07494 71.2741L16.462 68.1612V66.1289H19.6878V70.5483L7.01045 74.3547C4.94593 74.9676 3.55881 76.8386 3.55881 78.9837V90.3063H42.2685V78.9837C42.2685 76.8225 40.8814 74.9676 38.8169 74.3547L26.1395 70.5483V66.1289H29.3653V68.1612L39.7524 71.2741C43.1879 72.3063 45.4943 75.4031 45.4943 78.9999V93.5483Z" fill="black"/>
<path d="M22.9134 69.3552C16.6876 69.3552 11.623 64.2907 11.623 58.0649V51.6133H14.8489V58.0649C14.8489 62.5165 18.4618 66.1294 22.9134 66.1294C27.365 66.1294 30.9779 62.5165 30.9779 58.0649V51.6133H34.2037V58.0649C34.2037 64.2907 29.1392 69.3552 22.9134 69.3552Z" fill="black"/>
<path d="M32.5906 62.9032H32.0422V59.6774H32.5906C34.3648 59.6774 35.8164 58.2258 35.8164 56.4516C35.8164 54.6774 34.3648 53.2258 32.5906 53.2258H13.2358C11.4616 53.2258 10.01 54.6774 10.01 56.4516C10.01 58.2258 11.4616 59.6774 13.2358 59.6774H13.7842V62.9032H13.2358C9.67128 62.9032 6.78418 60.0161 6.78418 56.4516C6.78418 52.8871 9.67128 50 13.2358 50H32.5906C36.1551 50 39.0422 52.8871 39.0422 56.4516C39.0422 60.0161 36.1551 62.9032 32.5906 62.9032Z" fill="black"/>
<path d="M30.269 84.9516L20.7852 77.8387L26.3658 68.5322L29.14 70.1774L25.0432 77L28.4626 79.5645L31.0432 70.5322L34.14 71.4032L30.269 84.9516Z" fill="black"/>
<path d="M15.5585 84.9516L11.6875 71.4032L14.7842 70.5322L17.3649 79.5645L20.7842 77L16.6875 70.1774L19.4617 68.5322L25.0423 77.8387L15.5585 84.9516Z" fill="black"/>
<path d="M79.3655 83.8711H76.1396V98.3872H79.3655V83.8711Z" fill="black"/>
<path d="M68.0754 90.3223H64.8496V98.3868H68.0754V90.3223Z" fill="black"/>
<path d="M90.6555 90.3223H87.4297V98.3868H90.6555V90.3223Z" fill="black"/>
<path d="M13.2365 83.8711H10.0107V91.9356H13.2365V83.8711Z" fill="black"/>
<path d="M35.8176 83.8711H32.5918V91.9356H35.8176V83.8711Z" fill="black"/>
<path d="M39.0422 56.4514H35.8164V48.3868C35.8164 41.2739 30.0261 35.4836 22.9132 35.4836C15.8003 35.4836 10.01 41.2739 10.01 48.3868V56.4514H6.78418V48.3868C6.78418 39.4997 14.0261 32.2578 22.9132 32.2578C31.8003 32.2578 39.0422 39.4997 39.0422 48.3868V56.4514Z" fill="black"/>
<path d="M93.8811 62.9035H90.6553V54.839C90.6553 47.7261 84.865 41.9358 77.7521 41.9358C70.6392 41.9358 64.8489 47.7261 64.8489 54.839V62.9035H61.623V54.839C61.623 45.9519 68.865 38.71 77.7521 38.71C86.6392 38.71 93.8811 45.9519 93.8811 54.839V62.9035Z" fill="black"/>
<path d="M47.1071 29.0323H21.3006C18.6393 29.0323 16.4619 26.8548 16.4619 24.1935V4.83871C16.4619 2.17742 18.6393 0 21.3006 0H53.5587C56.22 0 58.3974 2.17742 58.3974 4.83871V8.06452H55.1716V4.83871C55.1716 3.95161 54.4458 3.22581 53.5587 3.22581H21.3006C20.4135 3.22581 19.6877 3.95161 19.6877 4.83871V24.1935C19.6877 25.0806 20.4135 25.8065 21.3006 25.8065H47.1071V29.0323Z" fill="black"/>
<path d="M35.8173 19.3545H22.9141V22.5803H35.8173V19.3545Z" fill="black"/>
<path d="M42.2688 19.3545H39.043V22.5803H42.2688V19.3545Z" fill="black"/>
<path d="M42.2689 6.45117H22.9141V9.67698H42.2689V6.45117Z" fill="black"/>
<path d="M87.4292 79.0324V75.8065C90.7357 75.8065 93.0744 74.8872 94.4454 74.113C92.0421 71.7904 90.655 68.5646 90.655 65.1453V62.9033H93.8808V65.1453C93.8808 68.242 95.4292 71.1291 97.9937 72.8388L99.6228 73.9356L98.2357 75.3227C98.0905 75.4678 94.4615 79.0162 87.4131 79.0162L87.4292 79.0324Z" fill="black"/>
<path d="M68.0749 79.0319C61.0427 79.0319 57.4136 75.4835 57.2524 75.3383L55.8652 73.9512L57.4943 72.8544C60.0749 71.1286 61.6072 68.2577 61.6072 65.1609V62.9189H64.833V65.1609C64.833 68.5802 63.4459 71.7899 61.0427 74.1286C62.4298 74.9028 64.7523 75.8222 68.0588 75.8222V79.048L68.0749 79.0319Z" fill="black"/>
<path d="M42.2689 12.9033H22.9141V16.1291H42.2689V12.9033Z" fill="black"/>
<path d="M82.5909 35.4834H50.3328C47.6716 35.4834 45.4941 33.306 45.4941 30.6447V11.2899C45.4941 8.62859 47.6716 6.45117 50.3328 6.45117H82.5909C85.2522 6.45117 87.4296 8.62859 87.4296 11.2899V30.6447C87.4296 33.306 85.2522 35.4834 82.5909 35.4834ZM50.3328 9.67698C49.4458 9.67698 48.7199 10.4028 48.7199 11.2899V30.6447C48.7199 31.5318 49.4458 32.2576 50.3328 32.2576H82.5909C83.478 32.2576 84.2038 31.5318 84.2038 30.6447V11.2899C84.2038 10.4028 83.478 9.67698 82.5909 9.67698H50.3328Z" fill="black"/>
<path d="M74.526 25.8066H51.9453V29.0324H74.526V25.8066Z" fill="black"/>
<path d="M80.9787 25.8066H77.7529V29.0324H80.9787V25.8066Z" fill="black"/>
<path d="M80.9776 12.9033H51.9453V16.1291H80.9776V12.9033Z" fill="black"/>
<path d="M80.9776 19.3545H51.9453V22.5803H80.9776V19.3545Z" fill="black"/>
<path d="M93.8811 12.9033H90.6553V16.1291H93.8811V12.9033Z" fill="black"/>
<path d="M93.8811 19.3545H90.6553V22.5803H93.8811V19.3545Z" fill="black"/>
<path d="M93.8811 25.8066H90.6553V29.0324H93.8811V25.8066Z" fill="black"/>
<path d="M13.2365 6.45117H10.0107V9.67698H13.2365V6.45117Z" fill="black"/>
<path d="M13.2365 12.9033H10.0107V16.1291H13.2365V12.9033Z" fill="black"/>
<path d="M13.2365 19.3545H10.0107V22.5803H13.2365V19.3545Z" fill="black"/>
</svg>
