<svg width="372" height="250" viewBox="0 0 372 250" fill="none" xmlns="http://www.w3.org/2000/svg">
<mask id="mask0_934_10993" style="mask-type:alpha" maskUnits="userSpaceOnUse" x="0" y="0" width="372" height="250">
<path d="M0 20C0 8.9543 8.95431 0 20 0H352C363.046 0 372 8.9543 372 20V250H0V20Z" fill="#F7FDFE"/>
</mask>
<g mask="url(#mask0_934_10993)">
<path d="M241.326 250L241.445 187.868L226.726 128.048C195.402 122.621 175.751 117.724 153.613 120.451C153.613 120.451 114.019 131.765 106.581 151.96C78.9568 226.979 109.425 239.167 109.425 239.167L107.394 250H241.326Z" fill="#2B6577"/>
<path d="M181.965 181.999C179.822 196.509 163.465 227.804 115.188 236.905" stroke="#4F2B2B" stroke-width="1.5" stroke-linecap="round"/>
<path d="M158.717 152.32C154.43 153.31 142.789 159.443 130.521 176.064" stroke="#4F2B2B" stroke-width="1.5" stroke-linecap="round"/>
<path d="M266.607 157.841C266.607 157.841 279.46 203.373 276.391 214.868C268.491 244.458 241.326 235.384 241.326 235.384L235.748 160.689L266.607 157.84V157.841Z" fill="#2B6577"/>
<path d="M200.22 107.823H176.252V125.697H200.22V107.823Z" fill="#FFBE97"/>
<path d="M200.267 119.673L201.256 109.285L178.008 114.726C187.505 121.454 196.475 120.662 200.267 119.673Z" fill="#4F2B2B"/>
<path d="M235.152 77.7122C234.837 77.7122 234.582 77.9672 234.582 78.2823V94.3782C234.582 94.6932 234.837 94.9482 235.152 94.9482C235.467 94.9482 235.722 94.6932 235.722 94.3782V78.2823C235.722 77.9672 235.467 77.7122 235.152 77.7122Z" fill="#4F2B2B"/>
<path d="M235.151 77.0706C235 77.0706 234.855 77.1307 234.748 77.2375L229.687 82.2988C229.464 82.5218 229.464 82.8823 229.687 83.1052C229.91 83.3282 230.27 83.3282 230.493 83.1052L235.151 78.4458L239.811 83.1052C240.034 83.3282 240.394 83.3282 240.617 83.1052C240.84 82.8823 240.84 82.5218 240.617 82.2988L235.556 77.2375C235.449 77.1307 235.305 77.0706 235.153 77.0706H235.151Z" fill="#4F2B2B"/>
<path d="M251.888 71.6225C251.573 71.6225 251.318 71.8775 251.318 72.1926V84.0149C251.318 84.33 251.573 84.585 251.888 84.585C252.204 84.585 252.459 84.33 252.459 84.0149V72.1926C252.459 71.8775 252.204 71.6225 251.888 71.6225Z" fill="#4F2B2B"/>
<path d="M251.888 70.9817C251.742 70.9817 251.597 71.0378 251.484 71.1486L246.423 76.21C246.2 76.4329 246.2 76.7934 246.423 77.0164C246.646 77.2393 247.007 77.2393 247.229 77.0164L251.888 72.3582L256.547 77.0164C256.77 77.2393 257.131 77.2393 257.354 77.0164C257.576 76.7934 257.576 76.4329 257.354 76.21L252.291 71.1486C252.18 71.0378 252.033 70.9817 251.888 70.9817Z" fill="#4F2B2B"/>
<path d="M240.845 244.755H240.84C240.525 244.753 240.273 244.495 240.275 244.18L240.875 182.047C240.878 181.732 241.119 181.447 241.45 181.483C241.765 181.485 242.018 181.743 242.015 182.058L241.416 244.191C241.412 244.503 241.158 244.755 240.845 244.755Z" fill="#4F2B2B"/>
<path d="M250.651 143.563C247.883 143.563 245.413 141.606 244.843 138.828C244.22 135.786 246.074 132.756 249.063 131.928L259.601 129.001C261.201 128.554 262.863 128.788 264.278 129.654C265.695 130.521 266.659 131.893 266.992 133.519L267.293 134.988C267.625 136.615 267.281 138.256 266.319 139.61C265.358 140.964 263.922 141.83 262.277 142.051L251.437 143.507C251.173 143.543 250.911 143.561 250.651 143.561V143.563ZM261.199 129.921C260.768 129.921 260.334 129.98 259.906 130.099L249.368 133.025C246.953 133.696 245.456 136.143 245.959 138.598C246.463 141.053 248.8 142.707 251.285 142.382L262.125 140.925C263.453 140.746 264.612 140.045 265.389 138.953C266.166 137.86 266.445 136.534 266.175 135.22L265.875 133.752C265.605 132.438 264.828 131.33 263.684 130.63C262.919 130.163 262.067 129.924 261.199 129.924V129.921Z" fill="#775340"/>
<path d="M261.954 154.465H261.93L250.993 154.42C247.892 154.408 245.304 151.973 245.104 148.876C244.909 145.875 247.518 142.87 250.687 142.445C250.992 142.391 251.287 142.622 251.327 142.934C251.37 143.245 251.149 143.533 250.838 143.573C248.231 143.923 246.083 146.367 246.24 148.803C246.402 151.302 248.491 153.269 250.996 153.28L261.933 153.325H261.953C263.287 153.325 264.523 152.791 265.438 151.818C266.357 150.842 266.815 149.567 266.729 148.229L266.631 146.732C266.547 145.432 265.895 144.193 264.843 143.331C263.77 142.451 262.391 142.055 261.062 142.225C260.751 142.276 260.463 142.047 260.423 141.736C260.38 141.425 260.6 141.137 260.912 141.097C262.543 140.875 264.248 141.369 265.566 142.449C266.861 143.511 267.663 145.045 267.769 146.659L267.866 148.156C267.973 149.811 267.405 151.39 266.268 152.599C265.136 153.802 263.603 154.464 261.953 154.464L261.954 154.465Z" fill="#775340"/>
<path d="M263.088 165.749C262.857 165.749 262.623 165.734 262.39 165.705L252.2 164.457C249.292 164.1 247.135 161.529 247.291 158.605C247.434 155.927 249.463 153.72 252.116 153.357C252.339 153.326 252.567 153.307 252.796 153.306H252.802C253.114 153.306 253.369 153.557 253.373 153.869C253.375 154.184 253.123 154.442 252.809 154.446C252.626 154.449 252.447 154.462 252.271 154.486C250.159 154.776 248.543 156.533 248.429 158.665C248.305 160.995 250.023 163.043 252.339 163.326L262.529 164.574C263.769 164.725 264.977 164.369 265.934 163.565C266.892 162.762 267.455 161.634 267.522 160.387L267.597 158.981C267.727 156.528 265.406 154.604 263.155 154.347C262.842 154.311 262.617 154.03 262.653 153.716C262.69 153.403 262.98 153.183 263.284 153.214C266.051 153.53 268.9 155.947 268.734 159.04L268.659 160.446C268.575 162.012 267.869 163.43 266.667 164.438C265.647 165.294 264.396 165.748 263.089 165.748L263.088 165.749Z" fill="#775340"/>
<path d="M260.501 175.124C260.092 175.124 259.682 175.072 259.283 174.967L251.013 172.769C248.605 172.13 247.088 169.712 247.561 167.266C248.049 164.742 250.263 163.066 252.7 163.363C253.012 163.401 253.235 163.686 253.196 163.997C253.159 164.311 252.872 164.538 252.562 164.494C250.713 164.276 249.053 165.554 248.681 167.482C248.322 169.343 249.474 171.182 251.306 171.668L259.575 173.865C260.559 174.128 261.569 173.972 262.43 173.434C263.29 172.896 263.869 172.049 264.061 171.055L264.284 169.901C264.623 168.144 263.607 166.378 261.92 165.793C261.622 165.689 261.466 165.366 261.569 165.067C261.673 164.769 261.996 164.614 262.295 164.716C264.512 165.485 265.852 167.806 265.404 170.118L265.181 171.271C264.93 172.562 264.148 173.702 263.036 174.399C262.272 174.877 261.391 175.125 260.503 175.125L260.501 175.124Z" fill="#775340"/>
<path d="M152.817 106.876C152.817 106.876 145.239 98.2872 144.986 87.1726C144.734 76.0579 156.353 67.7216 156.353 67.7216C156.353 67.7216 161.658 49.0289 185.402 50.0396C209.147 51.0502 211.421 65.4479 224.555 61.4066C224.555 61.4066 216.977 70.2476 210.915 72.0152L152.817 106.876Z" fill="#4F2B2B"/>
<path d="M157.423 99.6701C157.846 99.5406 158.273 99.4592 158.699 99.4111C155.331 87.4259 159.692 72.5543 174.924 64.8789C190.219 57.1727 208.625 62.8922 215.455 75.4248C222.287 87.956 217.618 104.727 202.581 112.924C189.92 119.825 173.95 118.447 165.14 110.362C164.28 111.578 163.03 112.534 161.495 113.002C157.813 114.127 153.917 112.053 152.794 108.372C151.67 104.69 153.743 100.794 157.424 99.6701H157.423Z" fill="#FFBE97"/>
<path d="M182.137 92.8779C181.554 92.8818 181.078 92.4134 181.073 91.8301L181.059 89.9191C181.055 89.3358 181.523 88.8597 182.106 88.8545C182.69 88.8506 183.166 89.3191 183.171 89.9023L183.185 91.8134C183.189 92.3966 182.721 92.8728 182.137 92.8779Z" fill="#4F2B2B"/>
<path d="M206.792 92.8779C206.208 92.8818 205.732 92.4134 205.727 91.8301L205.713 89.9191C205.709 89.3358 206.177 88.8597 206.761 88.8545C207.344 88.8506 207.82 89.3191 207.825 89.9023L207.839 91.8134C207.843 92.3966 207.375 92.8728 206.792 92.8779Z" fill="#4F2B2B"/>
<path d="M215.828 86.9393C215.579 86.9393 215.335 86.818 215.186 86.5948C213.467 84.0011 204.829 82.8101 201.448 84.1779C201.052 84.3366 200.606 84.1482 200.447 83.7534C200.288 83.3598 200.477 82.912 200.871 82.752C204.604 81.241 214.182 82.2952 216.47 85.7444C216.704 86.0993 216.608 86.5754 216.253 86.8103C216.122 86.8967 215.974 86.938 215.828 86.938V86.9393Z" fill="#4F2B2B"/>
<path d="M175.617 87.0128C175.417 87.0128 175.217 86.9354 175.066 86.7805C174.769 86.476 174.776 85.9895 175.079 85.6927C178.087 82.761 183.16 82.4307 186.598 83.3623C187.009 83.4733 187.25 83.8952 187.139 84.3056C187.028 84.7159 186.605 84.9611 186.196 84.8462C183.064 83.9959 178.614 84.3933 176.154 86.7934C176.004 86.9392 175.811 87.0115 175.617 87.0115V87.0128Z" fill="#4F2B2B"/>
<path d="M185.635 99.6754C185.642 98.1774 183.389 96.9532 180.603 96.9411C177.817 96.9289 175.554 98.1334 175.547 99.6314C175.54 101.129 177.793 102.354 180.579 102.366C183.365 102.378 185.629 101.173 185.635 99.6754Z" fill="#FF9D6C"/>
<path d="M213.334 99.6754C213.341 98.1774 211.088 96.9532 208.302 96.9411C205.516 96.9289 203.253 98.1334 203.246 99.6314C203.24 101.129 205.493 102.354 208.278 102.366C211.064 102.378 213.328 101.173 213.334 99.6754Z" fill="#FF9D6C"/>
<path d="M157.285 108.191L161.146 107.012C161.768 106.822 162.118 106.164 161.929 105.542C161.739 104.92 161.081 104.57 160.459 104.76L156.598 105.938C155.975 106.128 155.626 106.786 155.815 107.408C156.005 108.031 156.663 108.38 157.285 108.191Z" fill="#4F2B2B"/>
<path d="M196.132 96.2856C196.011 96.2856 195.888 96.2469 195.785 96.1682C194.449 95.1401 193.546 93.3004 193.373 91.2497C193.18 88.9773 193.891 86.8385 195.377 85.2311C195.59 85.0001 195.952 84.9854 196.182 85.199C196.413 85.4126 196.427 85.7731 196.214 86.0041C194.948 87.3752 194.343 89.2043 194.507 91.1549C194.653 92.8665 195.409 94.4419 196.479 95.2656C196.729 95.4579 196.776 95.8157 196.584 96.0654C196.471 96.2109 196.302 96.2883 196.132 96.2883V96.2856Z" fill="#4F2B2B"/>
<path d="M196.011 109.48C195.977 109.597 195.906 109.704 195.802 109.781C194.444 110.781 192.426 111.139 190.408 110.738C188.171 110.294 186.312 109.02 185.179 107.147C185.016 106.878 185.102 106.526 185.371 106.365C185.64 106.202 185.99 106.287 186.153 106.557C187.12 108.152 188.711 109.24 190.631 109.622C192.316 109.956 194.039 109.665 195.126 108.864C195.38 108.678 195.737 108.732 195.924 108.986C196.033 109.134 196.06 109.318 196.013 109.481L196.011 109.48Z" fill="#4F2B2B"/>
<path d="M176.562 67.7235C176.562 67.7235 199.387 77.6993 212.522 71.383L204.853 59.8918L181.867 57.6182L176.562 67.7222V67.7235Z" fill="#4F2B2B"/>
<path d="M155.341 95.2561C184.202 83.3591 184.643 68.8186 184.643 68.8186L184.39 59.1338L161.15 72.0161L155.34 95.2561H155.341Z" fill="#4F2B2B"/>
<path d="M256.517 106.091H197.765L189.219 181.578H247.971L256.517 106.091Z" fill="#FCE9CC"/>
<path d="M216.096 160.235L220.053 143.911M237.86 160.235L230.935 143.911M230.935 143.911L224.01 127.588L220.053 143.911M230.935 143.911H220.053M236.376 127.588V131.792M236.376 135.997V131.792M236.376 131.792H240.334H232.419" stroke="#4F2B2B" stroke-width="1.5" stroke-linecap="round" stroke-linejoin="round"/>
<path d="M245.403 138.713C244.837 135.955 246.505 133.23 249.217 132.477L259.757 129.551C262.746 128.72 265.814 130.596 266.436 133.636L266.738 135.106C267.361 138.146 265.279 141.076 262.204 141.49L251.364 142.947C248.574 143.322 245.969 141.473 245.404 138.715L245.403 138.713Z" fill="#FFBE97"/>
<path d="M260.991 141.662C264.066 141.25 267.003 143.6 267.203 146.696L267.301 148.192C267.501 151.288 265.036 153.906 261.934 153.894L250.996 153.85C248.181 153.838 245.855 151.65 245.673 148.84C245.492 146.031 247.974 143.383 250.764 143.009" fill="#FFBE97"/>
<path d="M263.218 153.783C265.835 154.082 268.306 156.336 268.165 159.013L268.09 160.419C267.935 163.326 265.349 165.495 262.459 165.141L252.269 163.893C249.646 163.571 247.719 161.274 247.861 158.635C247.99 156.202 249.835 154.245 252.193 153.922C252.393 153.895 252.596 153.879 252.802 153.875" fill="#FFBE97"/>
<path d="M262.107 165.255C264.031 165.921 265.247 167.924 264.844 170.009L264.621 171.161C264.16 173.544 261.777 175.038 259.43 174.415L251.16 172.217C249.031 171.651 247.704 169.534 248.122 167.372C248.54 165.209 250.445 163.659 252.632 163.929" fill="#FFBE97"/>
<path d="M250.651 143.564C247.883 143.564 245.413 141.607 244.843 138.829C244.22 135.787 246.074 132.757 249.063 131.929L259.601 129.002C261.201 128.555 262.863 128.789 264.278 129.655C265.695 130.522 266.659 131.894 266.992 133.52L267.293 134.989C267.625 136.616 267.281 138.257 266.319 139.611C265.358 140.965 263.922 141.831 262.277 142.052L251.437 143.508C251.173 143.544 250.911 143.562 250.651 143.562V143.564ZM261.199 129.922C260.768 129.922 260.334 129.981 259.906 130.1L249.368 133.026C246.953 133.697 245.456 136.144 245.959 138.599C246.463 141.054 248.8 142.708 251.285 142.383L262.125 140.926C263.453 140.747 264.612 140.046 265.389 138.954C266.166 137.861 266.445 136.535 266.175 135.221L265.875 133.753C265.605 132.439 264.828 131.331 263.684 130.631C262.919 130.164 262.067 129.925 261.199 129.925V129.922Z" fill="#FFBE97"/>
<path d="M261.954 154.466H261.93L250.993 154.421C247.892 154.409 245.304 151.974 245.104 148.877C244.909 145.876 247.518 142.871 250.687 142.446C250.992 142.392 251.287 142.623 251.327 142.935C251.37 143.246 251.149 143.534 250.838 143.574C248.231 143.924 246.083 146.367 246.24 148.804C246.402 151.303 248.491 153.27 250.996 153.281L261.933 153.326H261.953C263.287 153.326 264.523 152.792 265.438 151.819C266.357 150.843 266.815 149.568 266.729 148.23L266.631 146.733C266.547 145.433 265.895 144.194 264.843 143.331C263.77 142.452 262.391 142.056 261.062 142.226C260.751 142.277 260.463 142.048 260.423 141.737C260.38 141.426 260.6 141.138 260.912 141.098C262.543 140.876 264.248 141.37 265.566 142.45C266.861 143.512 267.663 145.046 267.769 146.66L267.866 148.157C267.973 149.812 267.405 151.391 266.268 152.6C265.136 153.803 263.603 154.465 261.953 154.465L261.954 154.466Z" fill="#FFBE97"/>
<path d="M263.088 165.751C262.857 165.751 262.623 165.736 262.39 165.707L252.2 164.459C249.292 164.102 247.135 161.531 247.291 158.607C247.434 155.929 249.463 153.722 252.116 153.359C252.339 153.328 252.567 153.309 252.796 153.308H252.802C253.114 153.308 253.369 153.559 253.373 153.871C253.375 154.186 253.123 154.444 252.809 154.448C252.626 154.451 252.447 154.464 252.271 154.488C250.159 154.778 248.543 156.535 248.429 158.667C248.305 160.997 250.023 163.045 252.339 163.328L262.529 164.576C263.769 164.727 264.977 164.37 265.934 163.567C266.892 162.764 267.455 161.636 267.522 160.389L267.597 158.983C267.727 156.529 265.406 154.606 263.155 154.349C262.842 154.313 262.617 154.031 262.653 153.718C262.69 153.405 262.98 153.185 263.284 153.216C266.051 153.532 268.9 155.949 268.734 159.042L268.659 160.448C268.575 162.014 267.869 163.432 266.667 164.44C265.647 165.296 264.396 165.75 263.089 165.75L263.088 165.751Z" fill="#FFBE97"/>
<path d="M260.501 175.125C260.092 175.125 259.682 175.073 259.283 174.968L251.013 172.77C248.605 172.13 247.088 169.713 247.561 167.267C248.049 164.743 250.263 163.067 252.7 163.364C253.012 163.402 253.235 163.687 253.196 163.998C253.159 164.312 252.872 164.539 252.562 164.495C250.713 164.277 249.053 165.555 248.681 167.483C248.322 169.344 249.474 171.183 251.306 171.669L259.575 173.866C260.559 174.129 261.569 173.973 262.43 173.435C263.29 172.897 263.869 172.05 264.061 171.056L264.284 169.902C264.623 168.145 263.607 166.379 261.92 165.794C261.622 165.69 261.466 165.367 261.569 165.068C261.673 164.77 261.996 164.615 262.295 164.717C264.512 165.486 265.852 167.807 265.404 170.118L265.181 171.272C264.93 172.563 264.148 173.703 263.036 174.4C262.272 174.878 261.391 175.126 260.503 175.126L260.501 175.125Z" fill="#FFBE97"/>
<path d="M249.236 142.922L263.581 141.438M249.236 154.299L265.065 153.31M250.72 163.698L262.097 165.676" stroke="#6A3939" stroke-width="1.5" stroke-linecap="round" stroke-linejoin="round"/>
<path d="M208.467 139.492C207.645 137.765 205.811 136.741 203.913 136.923L187.713 138.54C187.406 138.58 187.121 138.344 187.09 138.03C187.058 137.716 187.287 137.437 187.6 137.406L200.711 136.098C201.031 135.133 201.034 134.089 200.682 133.123C200.03 131.334 198.317 130.137 196.417 130.137H196.394L180.114 130.217C175.584 130.24 171.314 132.663 168.971 136.54L161.655 148.652C157.415 155.672 159.647 168.822 164.397 175.453C168.493 181.165 176.272 183.231 182.497 180.25C182.676 180.164 182.843 180.079 182.998 179.993C187.344 177.581 192.297 166.744 192.347 166.634C192.418 166.477 192.556 166.362 192.721 166.318L205.66 162.931C206.721 162.555 207.614 161.71 208.066 160.629C208.517 159.548 208.485 158.318 207.981 157.261C207.234 155.685 205.562 154.753 203.831 154.919L188.9 156.407C188.603 156.451 188.307 156.21 188.277 155.897C188.245 155.584 188.474 155.305 188.787 155.274L203.717 153.785C204.915 153.662 206.067 153.961 207.032 154.565C208.785 153.291 209.414 150.95 208.467 148.959C207.648 147.233 205.829 146.21 203.915 146.389L187.715 148.006C187.405 148.044 187.122 147.809 187.091 147.496C187.059 147.182 187.289 146.903 187.601 146.872L203.801 145.255C204.6 145.174 205.381 145.278 206.114 145.517C206.16 145.481 206.208 145.446 206.267 145.426C207.415 145.022 208.25 144.265 208.678 143.237C209.15 142.102 209.076 140.771 208.467 139.49V139.492Z" fill="#FFBE97"/>
<path d="M209.731 143.677C210.33 142.24 210.246 140.581 209.496 139.002C208.469 136.842 206.173 135.555 203.8 135.79L201.934 135.977C202.186 134.906 202.135 133.784 201.754 132.734C200.934 130.487 198.74 128.977 196.386 128.997L180.106 129.077C175.184 129.101 170.542 131.736 167.996 135.95L160.679 148.062C156.22 155.445 158.518 169.205 163.471 176.115C166.554 180.417 171.397 182.788 176.341 182.788C178.588 182.788 180.857 182.298 182.989 181.278C183.19 181.181 183.375 181.087 183.548 180.991C187.894 178.579 192.475 169.059 193.27 167.353L205.994 164.021C207.404 163.524 208.543 162.449 209.117 161.069C209.691 159.688 209.652 158.121 209.01 156.771C208.743 156.208 208.377 155.717 207.95 155.293C209.951 153.663 210.635 150.863 209.496 148.471C209.031 147.492 208.298 146.703 207.424 146.141C208.474 145.583 209.287 144.739 209.729 143.675L209.731 143.677ZM206.268 145.428C206.209 145.448 206.161 145.484 206.114 145.519C205.381 145.28 204.6 145.176 203.802 145.257L187.602 146.874C187.289 146.905 187.059 147.184 187.092 147.498C187.122 147.811 187.405 148.046 187.715 148.008L203.915 146.391C205.83 146.212 207.648 147.235 208.468 148.961C209.414 150.952 208.784 153.293 207.033 154.567C206.067 153.964 204.915 153.663 203.717 153.787L188.787 155.276C188.475 155.307 188.245 155.586 188.277 155.899C188.308 156.212 188.602 156.452 188.901 156.409L203.831 154.921C205.563 154.755 207.233 155.687 207.982 157.263C208.485 158.321 208.516 159.55 208.066 160.631C207.616 161.712 206.723 162.558 205.66 162.933L192.722 166.32C192.556 166.364 192.417 166.479 192.348 166.636C192.297 166.746 187.345 177.581 182.998 179.995C182.843 180.079 182.676 180.166 182.497 180.252C176.271 183.233 168.494 181.167 164.398 175.455C159.647 168.826 157.415 155.674 161.655 148.654L168.972 136.542C171.315 132.665 175.584 130.242 180.114 130.219L196.394 130.139H196.417C198.318 130.139 200.031 131.336 200.683 133.125C201.034 134.091 201.031 135.135 200.711 136.1L187.6 137.408C187.288 137.439 187.058 137.718 187.09 138.032C187.121 138.346 187.407 138.582 187.714 138.542L203.914 136.925C205.811 136.743 207.644 137.768 208.468 139.494C209.077 140.775 209.151 142.105 208.679 143.24C208.25 144.268 207.417 145.025 206.268 145.43V145.428Z" fill="#FFBE97"/>
<path d="M187.9 137.481L202.245 135.997M190.374 147.374L206.697 145.89M192.847 156.772L206.697 155.288" stroke="#4F2B2B" stroke-width="1.5" stroke-linecap="round"/>
</g>
</svg>
