<svg width="100" height="100" viewBox="0 0 100 100" fill="none" xmlns="http://www.w3.org/2000/svg">
<path d="M75.8068 14.5156V1.6123H1.61328V85.4834H75.8068V14.5156Z" fill="#F7FDFE"/>
<path d="M66.13 66.1288V85.4837H75.8074V11.29C61.5816 11.29 50.001 22.8707 50.001 37.0965C50.001 49.0966 58.2429 59.1772 69.3558 62.0482V66.1288H66.13Z" fill="#D8F5FD"/>
<path d="M79.0327 56.4512H72.5811V72.5802H79.0327V56.4512Z" fill="#F5C07A"/>
<path d="M75.8062 59.677C88.2772 59.677 98.3869 49.5673 98.3869 37.0963C98.3869 24.6253 88.2772 14.5156 75.8062 14.5156C63.3353 14.5156 53.2256 24.6253 53.2256 37.0963C53.2256 49.5673 63.3353 59.677 75.8062 59.677Z" fill="#8FC6D7"/>
<path d="M75.8068 53.2249C84.7146 53.2249 91.9358 46.0037 91.9358 37.0959C91.9358 28.188 84.7146 20.9668 75.8068 20.9668C66.8989 20.9668 59.6777 28.188 59.6777 37.0959C59.6777 46.0037 66.8989 53.2249 75.8068 53.2249Z" fill="#D8F5FD"/>
<path d="M30.6451 59.6768H8.06445V79.0316H30.6451V59.6768Z" fill="#F5C07A"/>
<path d="M30.6451 29.0322H8.06445V48.3871H30.6451V29.0322Z" fill="#F5C07A"/>
<path d="M79.0327 66.1289H72.5811V69.3547H79.0327V66.1289Z" fill="#DFB28B"/>
<path d="M75.8071 98.3868C72.2426 98.3868 69.3555 95.4997 69.3555 91.9352V69.3545H82.2587V91.9352C82.2587 95.4997 79.3716 98.3868 75.8071 98.3868Z" fill="#DF8711"/>
<path d="M75.8059 61.2905C62.4671 61.2905 51.6123 50.4356 51.6123 37.0969C51.6123 23.7582 62.4671 12.9033 75.8059 12.9033C89.1446 12.9033 99.9994 23.7582 99.9994 37.0969C99.9994 50.4356 89.1446 61.2905 75.8059 61.2905ZM75.8059 16.1291C64.2413 16.1291 54.8381 25.5324 54.8381 37.0969C54.8381 48.6614 64.2413 58.0647 75.8059 58.0647C87.3704 58.0647 96.7736 48.6614 96.7736 37.0969C96.7736 25.5324 87.3704 16.1291 75.8059 16.1291Z" fill="black"/>
<path d="M75.8064 54.8384C66.0161 54.8384 58.0645 46.8868 58.0645 37.0965C58.0645 27.3061 66.0161 19.3545 75.8064 19.3545C85.5967 19.3545 93.5483 27.3061 93.5483 37.0965C93.5483 46.8868 85.5967 54.8384 75.8064 54.8384ZM75.8064 22.5803C67.8064 22.5803 61.2903 29.0964 61.2903 37.0965C61.2903 45.0965 67.8064 51.6126 75.8064 51.6126C83.8064 51.6126 90.3225 45.0965 90.3225 37.0965C90.3225 29.0964 83.8064 22.5803 75.8064 22.5803Z" fill="black"/>
<path d="M74.1936 59.4521H70.9678V69.3554H74.1936V59.4521Z" fill="black"/>
<path d="M80.6457 59.4521H77.4199V69.3554H80.6457V59.4521Z" fill="black"/>
<path d="M75.8067 100C71.3551 100 67.7422 96.3874 67.7422 91.9358V67.7422H83.8712V91.9358C83.8712 96.3874 80.2583 100 75.8067 100ZM70.968 70.968V91.9358C70.968 94.5971 73.1454 96.7745 75.8067 96.7745C78.468 96.7745 80.6454 94.5971 80.6454 91.9358V70.968H70.968Z" fill="black"/>
<path d="M75.8063 93.5481C76.697 93.5481 77.4192 92.826 77.4192 91.9352C77.4192 91.0444 76.697 90.3223 75.8063 90.3223C74.9155 90.3223 74.1934 91.0444 74.1934 91.9352C74.1934 92.826 74.9155 93.5481 75.8063 93.5481Z" fill="black"/>
<path d="M74.8226 47.5164L68.4678 43.2744L70.242 40.597L73.5645 42.8067L80.8226 28.3066L83.6936 29.7583L74.8226 47.5164Z" fill="black"/>
<path d="M69.3548 87.0969H0V0H77.4193V14.5162H74.1935V3.22581H3.22581V83.8711H69.3548V87.0969Z" fill="black"/>
<path d="M32.2576 80.6451H6.45117V58.0645H32.2576V80.6451ZM9.67698 77.4193H29.0318V61.2903H9.67698V77.4193Z" fill="black"/>
<path d="M19.9195 75.4198L13.3711 68.8875L15.6614 66.5972L18.7904 69.7423L25.9356 52.6133L28.9034 53.8391L19.9195 75.4198Z" fill="black"/>
<path d="M32.2576 50.0006H6.45117V27.4199H32.2576V50.0006ZM9.67698 46.7748H29.0318V30.6457H9.67698V46.7748Z" fill="black"/>
<path d="M19.9195 44.7743L13.3711 38.242L15.6614 35.9517L18.7904 39.0968L25.9356 21.9678L28.9034 23.1936L19.9195 44.7743Z" fill="black"/>
<path d="M48.3869 12.9033H45.1611V16.1291H48.3869V12.9033Z" fill="black"/>
<path d="M41.935 12.9033H6.45117V16.1291H41.935V12.9033Z" fill="black"/>
<path d="M54.8382 58.0645H35.4834V61.2903H54.8382V58.0645Z" fill="black"/>
<path d="M54.8382 64.5166H35.4834V67.7424H54.8382V64.5166Z" fill="black"/>
<path d="M54.8382 70.9678H35.4834V74.1936H54.8382V70.9678Z" fill="black"/>
<path d="M54.8382 77.4189H35.4834V80.6448H54.8382V77.4189Z" fill="black"/>
<path d="M48.3866 27.4199H35.4834V30.6457H48.3866V27.4199Z" fill="black"/>
<path d="M48.3866 33.8711H35.4834V37.0969H48.3866V33.8711Z" fill="black"/>
<path d="M48.3866 40.3232H35.4834V43.5491H48.3866V40.3232Z" fill="black"/>
<path d="M48.3866 46.7744H35.4834V50.0002H48.3866V46.7744Z" fill="black"/>
<path d="M48.3867 6.45117H6.45117V9.67698H48.3867V6.45117Z" fill="black"/>
</svg>
