<svg width="700" height="400" viewBox="0 0 700 400" fill="none" xmlns="http://www.w3.org/2000/svg">
<mask id="mask0_580_14865" style="mask-type:alpha" maskUnits="userSpaceOnUse" x="0" y="0" width="700" height="400">
<rect width="700" height="400" transform="matrix(-1 0 0 1 700 0)" fill="white"/>
</mask>
<g mask="url(#mask0_580_14865)">
<path d="M88.9271 217.793C89.9917 217.316 91.2 217.591 91.9645 218.387L140.681 179.488C140.603 179.369 140.531 179.243 140.471 179.11C139.865 177.752 140.473 176.161 141.83 175.553C143.187 174.945 144.78 175.555 145.387 176.912C145.484 177.13 145.548 177.352 145.585 177.577L180.134 175.173C180.158 174.166 180.744 173.215 181.725 172.777C183.082 172.169 184.674 172.78 185.282 174.137C185.549 174.737 185.579 175.384 185.414 175.971L220.895 189.689C221.164 189.148 221.614 188.694 222.207 188.427C222.852 188.14 223.546 188.129 224.165 188.336L260.617 106.161C260.128 105.889 259.718 105.462 259.471 104.912C258.863 103.555 259.473 101.963 260.83 101.355C262.187 100.747 263.78 101.357 264.387 102.714C264.563 103.11 264.634 103.524 264.616 103.929L372.298 118.628C371.875 117.335 372.49 115.904 373.76 115.336C375.117 114.728 376.71 115.338 377.317 116.695C377.373 116.819 377.414 116.944 377.449 117.072L416.77 109.957C416.674 108.845 417.276 107.747 418.351 107.266C418.892 107.024 419.47 106.979 420.009 107.094L435.016 58.8312L434.344 58.9408L435.164 58.3658L435.254 58.075L435.396 58.2038L505.514 8.97523C505.471 8.89827 505.43 8.81952 505.392 8.73722C504.784 7.38021 505.395 5.78755 506.752 5.17979C508.109 4.57204 509.701 5.18217 510.309 6.53918C510.917 7.89622 510.307 9.48887 508.95 10.0966C508.445 10.3225 507.906 10.3782 507.399 10.2912L497.458 47.4931C497.494 47.5561 497.528 47.6208 497.558 47.6891C497.711 48.027 497.784 48.3815 497.792 48.7312L562.973 53.3638C563.117 52.5013 563.673 51.7265 564.531 51.3428C565.888 50.735 567.48 51.3452 568.088 52.7022C568.696 54.0592 568.086 55.6519 566.729 56.2596C566.193 56.4999 565.617 56.5471 565.083 56.434L551.808 99.7594C552.424 100.012 552.95 100.491 553.244 101.15C553.638 102.032 553.517 103.011 553.015 103.755L577.965 124.22C578.194 123.988 578.466 123.792 578.781 123.652C580.138 123.044 581.731 123.655 582.339 125.012C582.947 126.369 582.336 127.961 580.979 128.569C580.155 128.937 579.245 128.855 578.521 128.432L557.677 157.51C557.966 157.758 558.206 158.071 558.372 158.444C558.917 159.663 558.481 161.067 557.405 161.784L576.159 193.235C577.511 192.65 579.085 193.258 579.687 194.607C580.295 195.964 579.685 197.556 578.328 198.164C578.091 198.27 577.848 198.337 577.602 198.371L578.128 225.818C579.083 225.889 579.97 226.469 580.388 227.405C580.498 227.649 580.565 227.9 580.597 228.151L622.3 226.511C622.353 225.535 622.934 224.621 623.888 224.196C625.245 223.588 626.838 224.198 627.445 225.555C628.053 226.912 627.443 228.505 626.086 229.113C625.986 229.157 625.886 229.192 625.785 229.224L638.517 289.449C639.655 289.316 640.795 289.925 641.287 291.025C641.894 292.382 641.284 293.974 639.927 294.582C638.57 295.19 636.978 294.58 636.37 293.223C636.196 292.836 636.126 292.429 636.14 292.031L546.766 280.647C546.557 281.389 546.033 282.035 545.275 282.374C543.918 282.982 542.325 282.371 541.718 281.014C541.11 279.657 541.72 278.065 543.077 277.457C543.212 277.398 543.35 277.353 543.489 277.314L539.983 245.82C538.915 245.864 537.874 245.267 537.412 244.23C537.261 243.894 537.186 243.542 537.178 243.195L462.618 235.728C462.457 236.559 461.906 237.301 461.076 237.674C459.719 238.281 458.127 237.671 457.519 236.314C456.911 234.957 457.521 233.364 458.878 232.757C459.19 232.617 459.514 232.546 459.834 232.529L461.216 197.898C460.322 197.779 459.507 197.215 459.112 196.329L459.197 196.562L376.348 226.591C376.675 227.844 376.063 229.183 374.844 229.728C374.216 230.01 373.537 230.026 372.929 229.833L358.563 263.763C359.07 264.035 359.496 264.467 359.747 265.035C360.353 266.393 359.744 267.984 358.387 268.592C357.03 269.2 355.438 268.59 354.83 267.233C354.593 266.704 354.543 266.138 354.651 265.61L301.299 249.784C301.048 250.412 300.566 250.945 299.9 251.243C298.543 251.85 296.95 251.24 296.343 249.883C296.09 249.318 296.049 248.713 296.187 248.155L263.936 237.155C263.676 237.739 263.209 238.231 262.581 238.513C261.224 239.121 259.631 238.51 259.023 237.153C258.959 237.01 258.912 236.863 258.874 236.717L196.988 245.245C197.013 246.297 196.415 247.31 195.394 247.767C194.625 248.11 193.781 248.064 193.082 247.712L169.67 283.63C170.017 283.894 170.305 284.247 170.496 284.672C171.104 286.029 170.494 287.622 169.137 288.23C167.778 288.836 166.187 288.227 165.58 286.87C165.576 286.86 165.572 286.849 165.567 286.841L133.386 294.039L116.375 297.843C116.412 298.908 115.817 299.94 114.783 300.403C113.426 301.01 111.834 300.4 111.226 299.043C110.754 297.987 111.018 296.793 111.796 296.027L90.9684 263.77C90.9352 263.786 90.9019 263.805 90.8651 263.821C89.5081 264.429 87.9154 263.819 87.3077 262.462C86.6999 261.105 87.3101 259.512 88.6671 258.905C88.9893 258.761 89.3244 258.686 89.6565 258.674L89.7682 222.931C88.8358 222.841 87.9765 222.268 87.5677 221.351C86.9599 219.994 87.5701 218.401 88.9271 217.793ZM114.122 295.288C114.984 295.431 115.759 295.987 116.143 296.845C116.216 297.011 116.271 297.18 116.311 297.348L135.599 293.035L165.412 286.367C165.353 286.111 165.335 285.853 165.352 285.598L117.141 270.463L114.124 295.286L114.122 295.288ZM300.364 246.593L316.985 227.324L291.202 202.276C291.01 202.44 290.793 202.582 290.552 202.69C290.438 202.742 290.321 202.78 290.203 202.814L298.54 246.104C299.192 246.04 299.84 246.218 300.364 246.593ZM355.543 264.089C355.734 263.925 355.951 263.783 356.193 263.675C356.335 263.612 356.475 263.565 356.619 263.529L345.901 197.079C345.278 197.122 344.661 196.944 344.159 196.586L317.667 227.297L355.541 264.09L355.543 264.089ZM546.729 98.6963L534.242 127.938L549.145 104.381C548.803 104.119 548.521 103.768 548.329 103.346C547.904 102.395 548.077 101.332 548.682 100.571L546.729 98.6963ZM563.173 54.8985C563.022 54.5587 562.947 54.2061 562.939 53.8563L497.758 49.2272C497.683 49.6797 497.493 50.1067 497.206 50.466L546.553 97.8364L564.349 56.1626C563.846 55.891 563.424 55.4588 563.171 54.8967L563.173 54.8985ZM263.875 105.679C263.663 105.899 263.411 106.084 263.124 106.227L279.049 147.751C280.313 147.393 281.683 148.007 282.235 149.243L307.725 140.59L263.875 105.679ZM91.6193 259.404C91.6601 259.444 91.7027 259.486 91.74 259.53L119.597 232.626C119.457 232.449 119.336 232.257 119.239 232.043C118.986 231.481 118.947 230.879 119.08 230.322L111.65 227.813L91.6193 259.404ZM170.744 196.435L180.31 189.765C180.267 189.692 180.228 189.615 180.192 189.534C179.968 189.032 179.911 188.498 179.994 187.994L171.609 185.794L124.688 228.556L170.744 196.435ZM180.593 190.172L147.143 213.501L124.038 229.614C124.081 229.688 124.12 229.765 124.156 229.845C124.357 230.294 124.422 230.766 124.373 231.223L174.365 241.148L182 191.049C181.457 190.913 180.963 190.612 180.593 190.176L180.593 190.172ZM119.239 229.851C119.499 229.264 119.966 228.767 120.598 228.486C121.209 228.212 121.868 228.187 122.464 228.364L141.697 180.423L111.924 227.382L119.241 229.853L119.239 229.851ZM144.03 180.468C143.419 180.742 142.76 180.767 142.164 180.59L122.925 228.548C123.135 228.657 123.333 228.792 123.51 228.953L171.033 185.643L145.458 178.93C145.216 179.591 144.721 180.158 144.028 180.466L144.03 180.468ZM145.587 178.45L171.473 185.245L180.677 176.858C180.558 176.699 180.451 176.524 180.367 176.336C180.27 176.119 180.207 175.897 180.17 175.672L145.621 178.076C145.618 178.202 145.609 178.329 145.587 178.454L145.587 178.45ZM182.541 177.912C181.975 177.85 181.436 177.614 181.013 177.226L172.047 185.395L180.12 187.515C180.362 186.854 180.856 186.287 181.55 185.978C181.837 185.849 182.137 185.778 182.435 185.754L182.541 177.912ZM185.071 189.613L214.281 207.321L221.83 193.135C221.414 192.862 221.068 192.473 220.848 191.985C220.701 191.656 220.627 191.312 220.616 190.973L185.31 188.844C185.269 189.11 185.188 189.369 185.071 189.613ZM259.809 233.949C259.982 233.812 260.174 233.691 260.386 233.596C260.801 233.411 261.235 233.339 261.657 233.367L269.345 197.642L225.927 191.508C225.814 191.985 225.573 192.425 225.225 192.78L259.811 233.951L259.809 233.949ZM463.003 192.948L479.377 169.429C479.054 169.17 478.782 168.833 478.602 168.427C478.514 168.229 478.455 168.027 478.416 167.822L468.047 167.631L462.565 192.727C462.718 192.787 462.865 192.861 463.006 192.948L463.003 192.948ZM575.347 229.241C575.109 228.411 575.29 227.536 575.79 226.874L562.601 214.764L541.801 241.26C542.014 241.48 542.196 241.738 542.328 242.032L575.345 229.239L575.347 229.241ZM541.426 240.936L562.236 214.426L521.201 176.749C520.995 176.934 520.759 177.092 520.493 177.211C520.463 177.223 520.431 177.234 520.402 177.247L539.383 240.487C540.106 240.354 540.84 240.525 541.424 240.935L541.426 240.936ZM280.879 152.801C280.765 152.853 280.651 152.891 280.534 152.925L289.189 197.555C289.951 197.478 290.711 197.733 291.272 198.247L316.167 175.631L281.848 152.063C281.592 152.369 281.268 152.625 280.879 152.801ZM291.606 198.617C291.725 198.776 291.829 198.947 291.915 199.136C292.003 199.33 292.061 199.53 292.099 199.732L343.071 194.824C343.032 194.58 343.026 194.338 343.054 194.1L316.589 175.925L291.608 198.618L291.606 198.617ZM343.165 193.572C343.273 193.242 343.441 192.933 343.666 192.666L334.62 165.719L333.745 163.11C332.885 163.314 331.994 163.079 331.345 162.512L316.962 175.577L343.162 193.568L343.165 193.572ZM334.223 162.949C334.223 162.949 334.221 162.951 334.22 162.953L335.091 165.552L344.065 192.284C344.234 192.151 344.423 192.033 344.629 191.94C344.971 191.788 345.327 191.712 345.677 191.704L354.18 169.978L335.465 161.824C335.191 162.304 334.77 162.709 334.225 162.951L334.223 162.949ZM282.129 151.652L316.545 175.289L331.006 162.151C330.873 161.982 330.757 161.794 330.666 161.59C330.476 161.162 330.405 160.713 330.44 160.277L282.367 151.088C282.311 151.283 282.23 151.472 282.129 151.652ZM373.172 119.888L335.206 158.788C335.354 158.968 335.482 159.171 335.583 159.392C335.873 160.043 335.883 160.746 335.667 161.37L354.359 169.513L373.658 120.202C373.485 120.116 373.324 120.01 373.174 119.886L373.172 119.888ZM354.814 169.713L376.562 179.189C376.836 178.751 377.237 178.389 377.745 178.163C377.943 178.075 378.146 178.014 378.35 177.977L376.183 143.069L374.782 120.488C374.555 120.481 374.334 120.448 374.12 120.384L354.814 169.713ZM493.836 51.1652L480.446 71.9473L472.172 84.7937C472.506 85.0563 472.783 85.3984 472.97 85.8151C473.336 86.6311 473.257 87.53 472.845 88.2508L483.749 95.913L494.206 51.3307C494.077 51.2844 493.954 51.2292 493.834 51.167L493.836 51.1652ZM446.565 164.746L474.127 131.787C473.905 131.562 473.713 131.296 473.579 130.99C473.344 130.463 473.293 129.901 473.398 129.373L458.918 124.171L446.09 164.485C446.258 164.555 446.418 164.644 446.569 164.746L446.565 164.746ZM473.536 128.895C473.787 128.267 474.269 127.73 474.938 127.432C475.106 127.357 475.276 127.301 475.45 127.263L470.609 89.6045C470.382 89.6118 470.157 89.5891 469.939 89.5418L459.069 123.698L473.538 128.897L473.536 128.895ZM472.561 88.6576C472.308 88.9534 471.99 89.2022 471.611 89.3725C471.444 89.4461 471.272 89.5038 471.102 89.5422L472.837 102.992L475.959 127.199C476.11 127.194 476.26 127.205 476.408 127.225L483.629 96.4326L472.561 88.6541L472.561 88.6576ZM476.89 127.34C477.58 127.571 478.175 128.076 478.495 128.792C478.625 129.083 478.696 129.383 478.719 129.681L530.125 130.403C530.166 130.032 530.282 129.676 530.468 129.353L484.068 96.7452L476.892 127.342L476.89 127.34ZM530.341 131.787C530.212 131.496 530.141 131.196 530.117 130.897L478.711 130.175C478.655 130.715 478.432 131.229 478.077 131.643L499.591 153.903L530.468 132.033C530.422 131.953 530.381 131.871 530.343 131.785L530.341 131.787ZM477.72 131.989C477.544 132.13 477.35 132.253 477.136 132.349C477.071 132.38 477.005 132.401 476.94 132.425L480.832 164.651C481.691 164.578 482.541 164.922 483.106 165.578L499.18 154.193L477.72 131.989ZM479.963 164.871C480.088 164.816 480.216 164.774 480.342 164.738L476.454 132.547C476.203 132.586 475.953 132.588 475.707 132.559L468.153 167.136L478.368 167.325C478.369 166.298 478.962 165.316 479.96 164.871L479.963 164.871ZM475.223 132.452C475.015 132.387 474.813 132.298 474.626 132.183L446.953 165.071C447.173 165.294 447.36 165.558 447.496 165.863C447.627 166.155 447.698 166.459 447.72 166.763L467.647 167.13L475.221 132.454L475.223 132.452ZM381.3 179.521C381.317 179.557 381.329 179.594 381.344 179.633L417.46 172.304L442.358 167.251C442.296 166.682 442.422 166.115 442.699 165.627L403.406 138.098L380.241 178.319C380.693 178.593 381.069 179.001 381.3 179.521ZM444.17 164.41C444.648 164.246 445.144 164.228 445.61 164.331L458.446 123.999L421.895 110.867C421.663 111.361 421.282 111.788 420.778 112.074L444.17 164.41ZM422.065 110.4L458.598 123.525L469.463 89.3878C468.928 89.1621 468.466 88.7672 468.166 88.2319L422.007 108.862C422.182 109.372 422.194 109.906 422.065 110.4ZM469.412 84.4522C470.193 84.1044 471.05 84.1584 471.755 84.5231L477.787 75.1574L493.418 50.8911C493.333 50.8215 493.25 50.7467 493.172 50.6665L458.233 78.8122L467.891 87.5294C467.599 86.2944 468.211 84.99 469.412 84.4522ZM495.947 51.3507C495.529 51.4879 495.101 51.5163 494.689 51.4531L484.188 96.2221L530.75 128.944C530.945 128.714 531.179 128.515 531.45 128.356L495.947 51.3507ZM530.755 132.437L499.937 154.264L517.711 172.654C517.887 172.514 518.081 172.391 518.295 172.294C518.831 172.054 519.403 172.007 519.935 172.118L531.781 133.177C531.391 133.017 531.037 132.767 530.755 132.437ZM517.353 173L499.528 154.556L483.394 165.984C483.44 166.064 483.482 166.146 483.519 166.232C483.718 166.675 483.784 167.144 483.739 167.598L516.81 174.003C516.916 173.637 517.101 173.296 517.353 173.004L517.353 173ZM462.084 192.588L467.538 167.623L447.71 167.258C447.627 167.999 447.241 168.686 446.619 169.138L460.628 192.712C461.108 192.532 461.61 192.496 462.082 192.587L462.084 192.588ZM460.179 192.93L446.191 169.39C446.172 169.399 446.154 169.41 446.135 169.419C444.778 170.026 443.185 169.416 442.577 168.059C442.531 167.954 442.491 167.845 442.459 167.737L386.767 179.041L381.483 180.111C381.518 180.292 381.534 180.475 381.532 180.654L459.016 194.394C459.213 193.796 459.613 193.269 460.179 192.927L460.179 192.93ZM376.337 179.634L354.632 170.178L346.189 191.747C346.999 191.891 347.726 192.403 348.123 193.184L376.218 181.224C376.093 180.684 376.143 180.133 376.337 179.638L376.337 179.634ZM288.354 197.777C288.468 197.725 288.582 197.687 288.699 197.652L280.044 153.022C279.847 153.042 279.651 153.04 279.459 153.015L269.944 197.227L286.837 199.615C287.025 198.827 287.561 198.133 288.357 197.777L288.354 197.777ZM225.766 189.792C225.946 190.191 226.014 190.611 225.995 191.021L269.448 197.161L278.971 152.912C278.502 152.765 278.074 152.491 277.744 152.111L225.631 189.53C225.681 189.613 225.727 189.701 225.766 189.792ZM282.395 149.718C282.465 150.013 282.485 150.312 282.456 150.604L330.52 159.791C330.593 159.518 330.712 159.258 330.868 159.018L308.187 140.961L282.394 149.716L282.395 149.718ZM331.18 158.63C331.413 158.386 331.696 158.183 332.023 158.034C332.999 157.598 334.092 157.791 334.857 158.435L372.816 119.541C372.706 119.412 372.606 119.273 372.52 119.119L308.75 140.768L331.181 158.625L331.18 158.63ZM375.963 120.258C375.739 120.358 375.509 120.422 375.279 120.457L378.845 177.93C379.172 177.931 379.494 177.99 379.794 178.103L402.999 137.813L376.917 119.539C376.665 119.838 376.345 120.085 375.963 120.258ZM403.655 137.666L442.983 165.22C443.185 164.983 443.428 164.775 443.714 164.614L420.323 112.278C419.652 112.507 418.945 112.454 418.334 112.174L403.654 137.665L403.655 137.666ZM421.803 108.41L467.601 87.9415L457.838 79.132L421.698 108.244C421.735 108.299 421.769 108.353 421.803 108.41ZM492.861 50.2807C492.779 50.1584 492.706 50.0307 492.643 49.8924C492.58 49.7541 492.535 49.6121 492.497 49.47L435.931 58.6878L457.857 78.4779L492.859 50.2825L492.861 50.2807ZM496.865 50.8311C496.753 50.927 496.631 51.016 496.502 51.0945L496.456 51.2689L531.902 128.152C532.475 127.948 533.076 127.953 533.623 128.128L546.348 98.3322L496.868 50.8311L496.865 50.8311ZM577.654 124.608L552.704 104.143C552.476 104.375 552.203 104.571 551.888 104.711C551.687 104.802 551.48 104.86 551.271 104.899L553.343 128.443L577.189 126.127C577.186 125.584 577.35 125.055 577.652 124.609L577.654 124.608ZM550.776 104.942C550.352 104.94 549.936 104.838 549.565 104.648L534.442 128.553C534.784 128.816 535.066 129.167 535.258 129.589C535.346 129.783 535.404 129.983 535.442 130.181L552.85 128.491L550.776 104.942ZM535.491 130.675C535.494 131.409 535.196 132.117 534.662 132.628L554.343 157.359C554.488 157.254 554.649 157.162 554.818 157.085C554.993 157.006 555.174 156.95 555.355 156.911L552.896 128.983L535.492 130.673L535.491 130.675ZM553.968 157.688L536.941 136.289L553.295 160.156C553.087 159.265 553.351 158.337 553.968 157.688ZM534.11 133.037C534.042 133.074 533.972 133.11 533.9 133.144C533.364 133.384 532.792 133.432 532.26 133.32L520.414 172.261C521.034 172.514 521.562 172.995 521.856 173.653C522.116 174.233 522.151 174.857 522.001 175.428L574.838 194.477C575.016 194.129 575.273 193.817 575.593 193.57L534.11 133.033L534.11 133.037ZM521.831 175.895C521.75 176.066 521.655 176.23 521.539 176.384L562.544 214.035L575.391 197.669C575.138 197.431 574.926 197.143 574.775 196.803C574.501 196.192 574.478 195.535 574.654 194.941L521.833 175.897L521.831 175.895ZM575.784 197.972L562.912 214.369L576.132 226.506C576.337 226.321 576.573 226.163 576.839 226.044C577.1 225.928 577.369 225.857 577.639 225.826L577.111 198.391C576.638 198.369 576.182 198.223 575.786 197.97L575.784 197.972ZM579.036 230.963C577.712 231.554 576.169 230.99 575.53 229.703L542.648 242.444L621.768 227.03L580.628 228.648C580.575 229.624 579.994 230.538 579.039 230.963L579.036 230.963ZM622.537 227.751C622.487 227.639 622.447 227.524 622.415 227.408L542.562 242.966C542.586 243.37 542.519 243.771 542.37 244.14L574.183 259.872L622.625 227.918C622.596 227.862 622.566 227.807 622.539 227.75L622.537 227.751ZM538.774 240.673C538.818 240.653 538.864 240.639 538.908 240.623L519.928 177.392C519.13 177.555 518.311 177.339 517.695 176.838L501.524 193.294L538.43 240.861C538.54 240.791 538.652 240.727 538.774 240.673ZM517.34 176.489C517.18 176.301 517.043 176.09 516.937 175.85C516.738 175.407 516.672 174.938 516.718 174.484L483.646 168.079C483.513 168.537 483.256 168.957 482.902 169.289L501.216 192.894L517.34 176.486L517.34 176.489ZM482.506 169.597C482.396 169.666 482.282 169.732 482.16 169.786C481.619 170.028 481.041 170.074 480.504 169.961L461.01 232.729C461.25 232.829 461.475 232.963 461.68 233.13L500.862 193.257L482.504 169.599L482.506 169.597ZM460.536 232.581L480.028 169.814C479.948 169.781 479.869 169.745 479.793 169.701L463.397 193.248C463.66 193.489 463.877 193.786 464.031 194.129C464.637 195.488 464.028 197.079 462.671 197.686C462.36 197.826 462.035 197.898 461.715 197.914L460.335 232.544C460.404 232.552 460.471 232.565 460.538 232.579L460.536 232.581ZM458.906 194.878L381.48 181.147C381.315 181.971 380.766 182.707 379.939 183.076C379.568 183.241 379.178 183.315 378.795 183.308L374.283 224.632C375.088 224.795 375.804 225.325 376.179 226.122L459.022 196.094C458.885 195.691 458.85 195.276 458.904 194.877L458.906 194.878ZM372.65 224.811C373.021 224.646 373.411 224.573 373.792 224.578L378.205 184.164L368.879 221.172L372.199 225.065C372.337 224.967 372.489 224.88 372.65 224.808L372.65 224.811ZM377.945 183.155C377.273 182.917 376.696 182.419 376.382 181.717C376.378 181.71 376.376 181.701 376.371 181.692L348.304 193.641C348.581 194.586 348.314 195.589 347.649 196.273L368.481 220.712L377.943 183.157L377.945 183.155ZM347.272 196.596C347.134 196.694 346.982 196.782 346.82 196.853C346.68 196.914 346.538 196.963 346.395 196.999L357.112 263.449C357.312 263.437 357.511 263.444 357.708 263.474L368.334 221.302L347.272 196.596ZM343.785 196.261C343.574 196.043 343.396 195.788 343.263 195.494C343.236 195.433 343.214 195.37 343.191 195.308L292.144 200.222C292.146 200.841 291.933 201.44 291.549 201.92L317.312 226.949L343.785 196.261ZM287.603 202.19C287.353 201.955 287.143 201.665 286.994 201.331C286.815 200.931 286.746 200.512 286.766 200.102L269.84 197.71L262.148 233.445C262.402 233.51 262.643 233.611 262.868 233.745L287.603 202.187L287.603 202.19ZM259.448 234.295L224.841 193.1C224.706 193.194 224.561 193.278 224.407 193.346C223.7 193.661 222.931 193.645 222.27 193.368L214.707 207.579L259.235 234.576C259.301 234.477 259.372 234.384 259.45 234.293L259.448 234.295ZM214.046 207.763L184.813 190.039C184.545 190.4 184.187 190.7 183.748 190.895C183.643 190.942 183.538 190.978 183.431 191.012L191.884 232.248L194.012 242.634C194.482 242.584 194.952 242.663 195.374 242.847L214.044 207.765L214.046 207.763ZM193.196 242.85C193.303 242.802 193.413 242.764 193.525 242.731L182.945 191.113C182.792 191.13 182.642 191.133 182.491 191.124L174.853 241.244L191.701 244.588C191.909 243.841 192.434 243.189 193.196 242.85ZM174.29 241.639L124.276 231.709C124.149 232.132 123.921 232.521 123.604 232.84L166.187 283.819C166.402 283.615 166.652 283.442 166.937 283.315C167.273 283.164 167.626 283.089 167.972 283.081L174.287 241.639L174.29 241.639ZM165.432 285.102C165.517 284.777 165.661 284.468 165.859 284.196L123.225 233.158C123.092 233.251 122.949 233.333 122.796 233.399C122.413 233.57 122.014 233.642 121.621 233.631L117.204 269.96L165.434 285.1L165.432 285.102ZM121.126 233.574C120.689 233.479 120.283 233.279 119.941 232.985L92.044 259.926C92.1118 260.035 92.1743 260.145 92.228 260.264C92.5059 260.886 92.5276 261.555 92.3395 262.158L116.719 269.812L121.126 233.574ZM91.2229 259.098L111.162 227.651L92.4843 221.345C92.224 221.932 91.7572 222.429 91.1251 222.71C90.8449 222.836 90.5555 222.907 90.2657 222.932L90.1542 258.7C90.5344 258.756 90.8977 258.89 91.2229 259.098ZM92.2738 218.775C92.3522 218.894 92.4236 219.02 92.4845 219.153C92.7373 219.715 92.7759 220.317 92.6437 220.874L111.436 227.219L141.283 180.142C141.18 180.062 141.081 179.972 140.99 179.876L92.2738 218.775ZM185.235 176.436C184.966 176.977 184.516 177.43 183.923 177.698C183.635 177.827 183.336 177.898 183.037 177.922L182.931 185.764C183.853 185.862 184.7 186.433 185.105 187.34C185.252 187.669 185.326 188.013 185.338 188.352L220.643 190.48C220.66 190.371 220.683 190.262 220.712 190.154L185.232 176.436L185.235 176.436ZM224.618 188.542C224.887 188.691 225.131 188.885 225.339 189.124L277.452 151.706C277.402 151.622 277.356 151.534 277.316 151.443C276.723 150.118 277.293 148.569 278.585 147.932L262.66 106.408C262.125 106.559 261.575 106.537 261.072 106.368L224.62 188.543L224.618 188.542ZM264.552 104.427C264.481 104.733 264.355 105.028 264.181 105.293L308.283 140.402L371.322 119.001L264.55 104.425L264.552 104.427ZM377.541 117.567C377.59 118.116 377.465 118.662 377.198 119.132L403.243 137.38L417.901 111.927C417.519 111.656 417.2 111.286 416.995 110.827C416.94 110.703 416.898 110.579 416.864 110.451L377.543 117.565L377.541 117.567ZM420.487 107.246C420.82 107.385 421.126 107.592 421.383 107.855L457.461 78.7925L435.497 58.9694L420.485 107.244L420.487 107.246ZM506.918 10.1671C506.491 10.0091 506.102 9.74179 505.8 9.38584L436.409 58.1053L492.417 48.9803C492.343 47.8858 492.943 46.81 494.003 46.335C495.09 45.8491 496.323 46.1442 497.086 46.9743L506.922 10.1671L506.918 10.1671ZM564.023 58.1975L546.936 98.2093L549.024 100.213C549.218 100.044 549.44 99.8996 549.686 99.7902C550.222 99.55 550.798 99.5028 551.334 99.6141L564.024 58.1958L564.023 58.1975ZM578.116 128.146C577.827 127.897 577.585 127.583 577.42 127.211C577.332 127.017 577.276 126.819 577.236 126.619L553.384 128.936L555.843 156.854C556.347 156.841 556.841 156.974 557.272 157.223L578.116 128.146ZM556.966 162.021C556.092 162.393 555.127 162.267 554.393 161.766L573.048 188.989L556.967 162.023L556.966 162.021ZM625.3 229.33C624.384 229.437 623.47 229.062 622.889 228.337L574.69 260.13L636.532 290.713C636.806 290.268 637.213 289.897 637.726 289.665C637.825 289.621 637.927 289.585 638.027 289.554L625.299 229.329L625.3 229.33ZM636.202 291.538C636.231 291.41 636.267 291.281 636.315 291.158L574.213 260.449L546.567 278.687C546.59 278.731 546.613 278.774 546.634 278.82C546.83 279.256 546.897 279.716 546.857 280.161L636.202 291.538ZM543.977 277.233C544.867 277.167 545.743 277.55 546.297 278.266L573.694 260.193L542.133 244.586C541.859 245.014 541.463 245.371 540.966 245.593C540.804 245.665 540.64 245.719 540.473 245.758L543.977 277.233ZM537.21 242.701C537.305 242.118 537.591 241.576 538.03 241.168L501.165 193.655L462.029 233.48C462.189 233.668 462.326 233.88 462.432 234.12C462.594 234.484 462.667 234.863 462.665 235.237L537.208 242.703L537.21 242.701ZM371.285 228.371C370.823 227.334 371.069 226.161 371.816 225.394L368.726 221.768L358.322 263.062L372.471 229.64C371.964 229.368 371.538 228.936 371.285 228.367L371.285 228.371ZM354.792 265.136C354.892 264.889 355.027 264.656 355.196 264.448L317.341 227.674L300.74 246.92C300.951 247.138 301.13 247.395 301.261 247.687C301.498 248.216 301.549 248.781 301.441 249.31L354.792 265.136ZM296.346 247.684C296.607 247.1 297.073 246.607 297.702 246.326C297.816 246.274 297.933 246.236 298.051 246.201L289.714 202.912C289.104 202.972 288.5 202.82 287.992 202.496L263.266 234.042C263.544 234.287 263.779 234.595 263.938 234.957C264.191 235.523 264.232 236.127 264.094 236.686L296.345 247.686L296.346 247.684ZM258.795 236.226C258.769 235.809 258.841 235.395 258.999 235.018L214.471 208.021L195.812 243.086C196.212 243.357 196.545 243.737 196.755 244.211C196.834 244.39 196.892 244.569 196.93 244.753L258.799 236.229L258.795 236.226ZM192.66 247.45C192.313 247.186 192.025 246.833 191.833 246.408C191.639 245.973 191.571 245.519 191.611 245.077L174.776 241.737L168.472 283.118C168.741 283.164 169.004 283.247 169.246 283.37L192.66 247.45ZM112.183 295.711C112.309 295.625 112.442 295.55 112.585 295.486C112.923 295.333 113.276 295.258 113.626 295.25L116.658 270.313L92.1484 262.618C91.9686 262.961 91.7128 263.267 91.3933 263.507L112.185 295.709L112.183 295.711Z" fill="#2B6577"/>
<path d="M633.969 391.553H65.0307C59.0735 391.553 59 393.337 59 395.537C59 397.738 59.0735 399.522 65.0307 399.522H633.969C639.927 399.522 640 397.738 640 395.537C640 393.337 639.927 391.553 633.969 391.553Z" fill="#DF8711"/>
<path d="M185.394 271.166C190.514 265.69 204.422 256.679 219.089 264.447C215.448 271.165 203.613 281.914 185.394 271.166Z" fill="#2B6577"/>
<path d="M185.719 271.051C187.818 271.052 197.732 271.116 201.636 268.718" stroke="#4F2B2B" stroke-linecap="round" stroke-linejoin="round"/>
<path d="M184.757 265.363C181.759 258.492 171.656 245.356 155.238 247.782C156.427 255.33 163.996 269.413 184.757 265.363Z" fill="#2B6577"/>
<path d="M184.49 265.142C182.511 264.442 173.144 261.193 170.265 257.629" stroke="#4F2B2B" stroke-linecap="round" stroke-linejoin="round"/>
<path d="M188.465 248.021C188.806 253.258 187.577 266.737 179.927 278.759C170.364 293.786 159.435 296.518 159.777 332.036" stroke="#4F2B2B" stroke-width="3.80899" stroke-linecap="round"/>
<path d="M201.148 198.223C198.143 194.398 195.342 196.63 194.318 198.223C172.119 222.13 180.315 231.351 182.706 236.815C185.097 242.28 202.514 251.501 212.077 236.815C221.64 222.13 204.905 203.005 201.148 198.223Z" fill="#B4185C"/>
<path d="M183.387 197.544C180.382 193.719 177.581 195.95 176.557 197.544C154.358 221.451 162.554 230.671 164.945 236.136C167.335 241.6 184.753 250.821 194.316 236.136C203.879 221.45 187.144 202.325 183.387 197.544Z" fill="#B4185C"/>
<path d="M218.122 209.366C218.371 204.508 214.794 204.349 212.974 204.877C180.531 208.306 180.648 220.643 178.859 226.333C177.07 232.022 184.137 250.42 200.996 245.636C217.855 240.852 217.811 215.439 218.122 209.366Z" fill="#E43A83"/>
<path d="M158.959 209.366C158.711 204.508 162.288 204.349 164.107 204.877C196.551 208.306 196.433 220.643 198.223 226.333C200.012 232.022 192.944 250.42 176.085 245.636C159.226 240.852 159.27 215.439 158.959 209.366Z" fill="#E43A83"/>
<path d="M192.563 202.602C189.558 198.777 186.757 201.008 185.733 202.602C163.534 226.509 171.73 235.73 174.121 241.194C176.512 246.659 193.929 255.88 203.492 241.194C213.055 226.509 196.32 207.384 192.563 202.602Z" fill="#E95D9A"/>
<path d="M190.161 292.008H147.019C145.165 292.008 143.755 293.673 144.06 295.501L147.172 314.161C147.381 315.415 147.349 316.698 147.077 317.94L131 391.533H205.42L189.382 318.122C189.085 316.762 189.075 315.355 189.353 313.991L193.1 295.607C193.479 293.748 192.058 292.008 190.161 292.008Z" fill="#9F5656"/>
<path d="M153.416 301.867H183.901" stroke="#4F2B2B" stroke-width="4" stroke-linecap="round"/>
<path d="M413.995 315.496V389.445C413.995 389.539 413.962 389.628 413.926 389.712H571.401L531.926 315.496H413.993H413.995Z" fill="#FBE4C6"/>
<path d="M392.151 337.795C390.074 337.795 388.918 338.44 388.893 338.666C388.939 338.849 389.916 339.421 391.867 339.421C393.921 339.421 395.106 338.767 395.125 338.55C395.087 338.377 394.085 337.795 392.151 337.795Z" fill="#FCE9CC"/>
<path d="M476.946 345.284L475.786 345.559L476.883 345.39C476.978 345.774 478.464 346.478 480.609 346.478C482.045 346.478 483.028 346.153 483.336 345.852C483.285 345.365 481.79 344.66 479.669 344.66C478.245 344.66 477.258 344.983 476.946 345.282V345.284Z" fill="#FCE9CC"/>
<path d="M478.755 339.421C480.475 339.421 481.378 338.961 481.448 338.78C481.365 338.499 480.009 337.795 477.865 337.795C476.159 337.795 475.258 338.246 475.174 338.432C475.252 338.721 476.593 339.421 478.755 339.421Z" fill="#FCE9CC"/>
<path d="M411.763 315.496H293.833L254.357 389.712H411.831C411.795 389.626 411.761 389.539 411.761 389.445V315.496H411.763Z" fill="#FBE4C6"/>
<path d="M339.314 346.478C341.47 346.478 342.98 345.763 343.083 345.375C342.724 344.979 341.752 344.66 340.335 344.66C338.203 344.66 336.683 345.373 336.564 345.761C336.558 345.778 336.554 345.797 336.615 345.86C336.915 346.157 337.885 346.478 339.314 346.478Z" fill="#FCE9CC"/>
<path d="M344.95 338.415C344.88 338.246 343.986 337.795 342.293 337.795C340.101 337.795 338.76 338.499 338.67 338.801L337.583 338.596L338.67 338.805C338.739 338.97 339.635 339.421 341.329 339.421C343.507 339.421 344.874 338.706 344.952 338.415H344.95Z" fill="#FCE9CC"/>
<path d="M394.66 345.51C394.665 345.472 394.614 345.407 394.532 345.337C394.127 345 393.054 344.66 391.577 344.66C389.443 344.66 388.22 345.346 388.193 345.626C388.188 345.662 388.235 345.725 388.311 345.79C388.711 346.132 389.783 346.476 391.276 346.476C393.34 346.476 394.639 345.805 394.66 345.51Z" fill="#FCE9CC"/>
<path d="M528.43 345.236L527.389 345.559L528.443 345.263C528.658 345.746 530.417 346.478 532.574 346.478C534.285 346.478 535.012 346.025 535.054 345.904C534.803 345.377 533.078 344.66 530.913 344.66C529.2 344.66 528.473 345.114 528.43 345.234V345.236Z" fill="#FCE9CC"/>
<path d="M525.33 338.305C525.505 338.685 527.059 339.421 529.296 339.421C530.893 339.421 531.629 339.029 531.702 338.894C531.477 338.466 529.788 337.795 527.725 337.795C526.188 337.795 525.448 338.158 525.33 338.305Z" fill="#FCE9CC"/>
<path d="M533.7 314.272C533.527 313.945 533.12 313.732 532.671 313.732H293.09C292.641 313.732 292.234 313.945 292.061 314.272L251.65 390.252C251.504 390.524 251.542 390.836 251.749 391.078C251.955 391.325 252.305 391.473 252.679 391.473H573.081C573.454 391.473 573.804 391.325 574.011 391.078C574.217 390.834 574.255 390.522 574.11 390.252L533.698 314.272H533.7ZM254.357 389.71L293.833 315.493H411.763V389.442C411.763 389.537 411.797 389.625 411.833 389.71H254.357ZM413.927 389.71C413.962 389.623 413.996 389.537 413.996 389.442V315.493H531.929L571.404 389.71H413.929H413.927Z" fill="#4F2B2B"/>
<path d="M351.983 331.135C355.173 334.099 363.598 338.751 371.778 333.652C369.394 329.909 362.099 324.165 351.983 331.135Z" stroke="#4F2B2B" stroke-width="2" stroke-linecap="round" stroke-linejoin="round"/>
<path d="M352.175 331.192C353.391 331.105 359.132 330.663 361.492 331.893" stroke="#4F2B2B" stroke-width="2" stroke-linecap="round" stroke-linejoin="round"/>
<path d="M351.853 334.52C350.396 338.624 345.081 346.646 335.47 345.911C335.851 341.49 339.66 333.022 351.853 334.52Z" stroke="#4F2B2B" stroke-width="2" stroke-linecap="round" stroke-linejoin="round"/>
<path d="M351.708 334.66C350.59 335.146 345.296 337.411 343.774 339.594" stroke="#4F2B2B" stroke-width="2" stroke-linecap="round" stroke-linejoin="round"/>
<path d="M354.706 344.42C354.69 341.372 353.427 333.614 348.504 326.962C342.351 318.647 335.908 317.511 334.655 296.92" stroke="#4F2B2B" stroke-width="2" stroke-linecap="round"/>
<path d="M349.867 375.13L350.55 374.399L350.615 374.46L350.668 374.531L349.867 375.13ZM353.824 374.851L354.652 375.412L354.652 375.412L353.824 374.851ZM345.6 370.735L345.376 369.761L345.963 369.626L346.356 370.081L345.6 370.735ZM342.358 371.391L342.013 370.453L342.096 370.422L342.184 370.406L342.358 371.391ZM339.193 369.001L340.192 368.981L339.193 369.001ZM339.172 368.251L338.173 368.281L339.172 368.251ZM347.633 347.29L347.293 346.349L347.293 346.349L347.633 347.29ZM349.65 346.746L350.202 347.579L350.028 347.694L349.822 347.731L349.65 346.746ZM360.871 346.077L360.761 347.071L360.53 347.046L360.334 346.921L360.871 346.077ZM362.063 346.269L362.267 345.29L362.063 346.269ZM368.982 351.118L368.171 351.704L368.164 351.694L368.157 351.684L368.982 351.118ZM369.76 352.369L368.889 352.861L368.882 352.848L368.876 352.835L369.76 352.369ZM373.381 365.836L374.374 365.726L374.375 365.729L373.381 365.836ZM373.381 365.837L372.386 365.945L372.386 365.944L373.381 365.837ZM373.381 365.838L372.387 365.948L372.387 365.946L373.381 365.838ZM373.465 366.581L374.458 366.46L373.465 366.581ZM370.666 369.392L370.701 368.393L370.79 368.396L370.877 368.415L370.666 369.392ZM367.084 369.173L366.223 368.665L366.544 368.121L367.174 368.177L367.084 369.173ZM364.517 373.121L365.338 373.691L365.338 373.691L364.517 373.121ZM364.091 373.738L364.919 374.299L364.919 374.299L364.091 373.738ZM360.134 374.017L360.817 373.287L360.882 373.348L360.935 373.419L360.134 374.017ZM358.333 372.271L357.646 371.545L358.355 370.875L359.042 371.567L358.333 372.271ZM355.512 372.375L354.677 371.825L355.282 370.904L356.14 371.596L355.512 372.375ZM354.25 374.233L355.071 374.803L355.069 374.806L354.25 374.233ZM354.25 374.233L353.429 373.661L353.43 373.66L354.25 374.233ZM354.249 374.233L353.428 373.663L353.429 373.661L354.249 374.233ZM354.249 374.234L355.07 374.805L355.07 374.805L354.249 374.234ZM354.249 374.234L353.427 373.664L353.428 373.663L354.249 374.234ZM350.668 374.531C350.912 374.858 351.3 375.154 351.655 375.21C351.877 375.245 352.355 375.235 352.996 374.29L354.652 375.412C353.707 376.805 352.537 377.375 351.341 377.185C350.278 377.017 349.48 376.283 349.066 375.728L350.668 374.531ZM346.356 370.081C347.51 371.415 348.895 372.851 350.55 374.399L349.184 375.86C347.485 374.271 346.05 372.784 344.844 371.39L346.356 370.081ZM342.184 370.406C343.321 370.205 344.383 369.989 345.376 369.761L345.824 371.71C344.796 371.946 343.701 372.168 342.533 372.376L342.184 370.406ZM340.192 368.981C340.214 370.123 340.61 370.393 340.815 370.484C341.143 370.63 341.63 370.594 342.013 370.453L342.704 372.33C342.054 372.569 340.985 372.749 340.002 372.311C338.896 371.819 338.225 370.703 338.193 369.02L340.192 368.981ZM340.172 368.221C340.18 368.506 340.188 368.763 340.192 368.981L338.193 369.02C338.189 368.815 338.181 368.57 338.173 368.281L340.172 368.221ZM347.973 348.23C343.944 349.686 341.927 353.391 340.95 357.531C339.977 361.658 340.103 365.963 340.172 368.221L338.173 368.281C338.104 366.035 337.962 361.486 339.004 357.072C340.042 352.67 342.323 348.146 347.293 346.349L347.973 348.23ZM349.822 347.731C349.235 347.833 348.619 347.997 347.973 348.23L347.293 346.349C348.042 346.079 348.77 345.884 349.477 345.761L349.822 347.731ZM349.097 345.912C352.163 343.879 357.065 342.466 361.409 345.234L360.334 346.921C356.928 344.75 352.927 345.772 350.202 347.579L349.097 345.912ZM361.858 347.248C361.48 347.169 361.114 347.111 360.761 347.071L360.982 345.084C361.401 345.13 361.829 345.199 362.267 345.29L361.858 347.248ZM368.157 351.684C366.648 349.486 364.625 347.827 361.858 347.248L362.267 345.29C365.658 345.999 368.082 348.042 369.806 350.552L368.157 351.684ZM368.876 352.835C368.673 352.452 368.44 352.075 368.171 351.704L369.792 350.532C370.115 350.978 370.398 351.436 370.644 351.902L368.876 352.835ZM372.387 365.946C372.078 363.167 371.421 357.344 368.889 352.861L370.631 351.877C373.393 356.769 374.072 362.997 374.374 365.726L372.387 365.946ZM372.386 365.944L372.386 365.943L374.375 365.729L374.375 365.729L372.386 365.944ZM372.387 365.946L372.386 365.945L374.375 365.729L374.375 365.73L372.387 365.946ZM372.473 366.703C372.446 366.486 372.418 366.231 372.387 365.948L374.375 365.728C374.406 366.014 374.433 366.257 374.458 366.46L372.473 366.703ZM370.877 368.415C371.276 368.5 371.763 368.468 372.067 368.278C372.257 368.158 372.611 367.836 372.473 366.703L374.458 366.46C374.662 368.131 374.154 369.33 373.129 369.973C372.217 370.544 371.133 370.515 370.456 370.37L370.877 368.415ZM367.174 368.177C368.268 368.276 369.442 368.349 370.701 368.393L370.631 370.392C369.339 370.346 368.128 370.271 366.995 370.169L367.174 368.177ZM363.695 372.551C364.336 371.628 365.268 370.284 366.223 368.665L367.946 369.681C366.949 371.37 365.98 372.766 365.338 373.691L363.695 372.551ZM363.263 373.177C363.386 372.997 363.533 372.785 363.695 372.551L365.338 373.691C365.174 373.928 365.034 374.13 364.919 374.299L363.263 373.177ZM360.935 373.419C361.179 373.746 361.567 374.042 361.922 374.098C362.144 374.133 362.623 374.123 363.263 373.177L364.919 374.299C363.974 375.693 362.804 376.263 361.609 376.073C360.545 375.904 359.747 375.17 359.333 374.616L360.935 373.419ZM359.042 371.567C359.596 372.124 360.187 372.698 360.817 373.287L359.451 374.748C358.804 374.142 358.195 373.552 357.623 372.976L359.042 371.567ZM359.019 372.998C358.309 373.67 357.514 373.959 356.722 373.91C355.966 373.863 355.336 373.517 354.885 373.153L356.14 371.596C356.385 371.794 356.632 371.9 356.846 371.913C357.023 371.924 357.29 371.881 357.646 371.545L359.019 372.998ZM353.428 373.663C353.774 373.165 354.203 372.546 354.677 371.825L356.348 372.924C355.859 373.668 355.417 374.305 355.071 374.803L353.428 373.663ZM353.43 373.66L353.43 373.66L355.069 374.806L355.069 374.807L353.43 373.66ZM353.429 373.661L353.429 373.661L355.07 374.805L355.07 374.805L353.429 373.661ZM353.428 373.663L353.428 373.663L355.071 374.804L355.07 374.805L353.428 373.663ZM353.428 373.663L353.428 373.663L355.07 374.805L355.07 374.805L353.428 373.663ZM352.996 374.29C353.118 374.109 353.265 373.898 353.427 373.664L355.07 374.805C354.906 375.041 354.766 375.243 354.652 375.412L352.996 374.29Z" fill="#4F2B2B"/>
<path d="M457.552 173.867C455.112 173.541 453.6 173.361 453.41 173.361L376.876 178.785C370.548 178.958 364.183 179.342 357.821 179.281L416.162 235.677L457.552 173.87V173.867Z" fill="#F29EC3"/>
<path d="M434.782 153.805H392.614V181.918H434.782V153.805Z" fill="#FFBE97"/>
<path d="M392.456 170.667V161.784L431.94 158.822C422.464 168.298 402.327 171.819 392.456 170.667Z" fill="#4F2B2B"/>
<path d="M361.829 150.086C361.921 150.059 361.992 150.04 362.065 150.02C361.992 150.04 361.923 150.059 361.829 150.086Z" fill="#FFB8BD"/>
<path d="M362.305 149.956C362.318 149.952 362.335 149.947 362.345 149.945C362.33 149.95 362.322 149.952 362.305 149.956Z" fill="#FFB8BD"/>
<path d="M361.773 150.101C361.79 150.097 361.814 150.09 361.829 150.086C361.811 150.09 361.79 150.097 361.773 150.101Z" fill="#FCE9CC"/>
<path d="M362.063 150.02C362.151 149.995 362.243 149.97 362.302 149.953C362.241 149.97 362.164 149.993 362.063 150.02Z" fill="#FCE9CC"/>
<path d="M389.367 76.6086C389.367 76.6086 405.576 65.5963 433.056 74.4281C469.433 86.1174 460.083 129.905 460.083 129.905L365.856 137.282C365.856 137.282 346.783 107.762 365.921 87.5197C378.796 73.903 389.367 76.6086 389.367 76.6086Z" fill="#4F2B2B"/>
<path d="M461.587 130.482C460.796 129.119 459.689 127.968 458.365 127.126C456.777 126.116 454.881 125.555 452.858 125.61C452.211 125.629 451.591 125.73 450.986 125.872C450.895 125.893 450.8 125.905 450.71 125.929C448.601 109.537 436.277 93.5791 414.009 90.38C390.251 86.9658 368.349 102.784 364.867 122.481C364.814 122.78 364.779 123.08 364.732 123.379C364.675 123.379 364.62 123.369 364.564 123.366C358.863 123.244 354.144 127.765 354.021 133.468C353.899 139.168 358.421 143.888 364.121 144.01C365.333 144.035 366.499 143.841 367.588 143.478C367.59 143.483 367.592 143.489 367.596 143.493C368.545 145.579 369.692 147.589 371.025 149.495C371.067 149.554 371.107 149.613 371.149 149.672C371.58 150.279 372.027 150.878 372.495 151.465C372.503 151.475 372.512 151.486 372.52 151.496C373.49 152.709 374.543 153.873 375.669 154.98C375.74 155.052 375.816 155.119 375.888 155.191C376.367 155.653 376.856 156.104 377.362 156.547C377.47 156.642 377.577 156.737 377.687 156.829C378.227 157.291 378.779 157.743 379.346 158.179C379.393 158.217 379.439 158.255 379.486 158.291C380.125 158.778 380.781 159.248 381.453 159.702C381.506 159.738 381.563 159.771 381.616 159.807C382.204 160.197 382.803 160.575 383.414 160.94C383.589 161.045 383.769 161.146 383.948 161.25C384.467 161.549 384.994 161.838 385.532 162.116C385.722 162.215 385.911 162.317 386.103 162.414C386.74 162.734 387.387 163.04 388.048 163.331C388.128 163.367 388.204 163.405 388.284 163.441C389.028 163.763 389.789 164.067 390.561 164.354C390.753 164.425 390.951 164.489 391.145 164.558C391.727 164.765 392.314 164.961 392.913 165.147C393.174 165.227 393.434 165.305 393.699 165.381C394.273 165.547 394.853 165.703 395.441 165.849C395.688 165.91 395.935 165.975 396.186 166.035C397.016 166.226 397.854 166.406 398.71 166.555C419.714 170.269 441.488 160.079 448.529 143.947C448.66 144.018 448.801 144.071 448.936 144.136C450.29 144.794 451.791 145.187 453.403 145.142C458.795 144.993 463.044 140.501 462.896 135.106C462.85 133.421 462.378 131.848 461.587 130.484V130.482Z" fill="#FFBE97"/>
<path d="M366.419 135.231L360.763 135.387C359.852 135.412 359.093 134.693 359.068 133.782C359.042 132.871 359.761 132.112 360.672 132.087L366.328 131.928C367.239 131.903 367.998 132.622 368.024 133.533C368.049 134.444 367.33 135.203 366.419 135.229V135.231Z" fill="#4F2B2B"/>
<path d="M402.496 142.926C402.287 142.926 402.078 142.861 401.901 142.726C401.469 142.397 401.38 141.779 401.711 141.345C402.823 139.875 403.249 137.524 402.823 135.208C402.333 132.561 400.868 130.356 398.696 128.998C398.234 128.709 398.092 128.101 398.381 127.639C398.67 127.178 399.284 127.041 399.739 127.327C402.388 128.981 404.172 131.655 404.761 134.852C405.292 137.739 404.74 140.611 403.282 142.536C403.09 142.791 402.793 142.926 402.496 142.926Z" fill="#4F2B2B"/>
<path d="M379.114 117.441C377.796 117.441 376.518 117.559 375.335 117.807C374.802 117.919 374.46 118.44 374.572 118.974C374.682 119.507 375.217 119.851 375.738 119.737C380.844 118.668 387.82 120.245 391.953 123.413C392.377 123.744 393.003 123.666 393.334 123.229C393.665 122.797 393.585 122.177 393.151 121.846C389.57 119.1 384.045 117.441 379.114 117.441Z" fill="#4F2B2B"/>
<path d="M397.746 152.212C396.474 151.868 395.271 151.421 394.194 150.872C393.708 150.625 393.514 150.033 393.761 149.547C394.006 149.06 394.613 148.868 395.086 149.114C399.736 151.478 406.882 151.776 411.698 149.797C412.194 149.588 412.778 149.827 412.984 150.334C413.191 150.838 412.951 151.416 412.446 151.622C408.272 153.338 402.506 153.499 397.746 152.212Z" fill="#4F2B2B"/>
<path d="M385.689 136.141C384.525 136.141 383.58 135.196 383.58 134.032V131.689C383.58 130.525 384.525 129.58 385.689 129.58C386.853 129.58 387.798 130.525 387.798 131.689V134.032C387.798 135.196 386.853 136.141 385.689 136.141Z" fill="#4F2B2B"/>
<path d="M424.948 116.669C422.774 115.368 418.562 112.557 416.983 110.579C425.034 113.392 444.899 116.005 453.411 116.553C449.634 110.463 446.08 101.471 442.166 95.4688C435.768 85.6627 416.683 83.6129 404.977 83.3598C395.907 83.1637 386.801 84.7622 378.338 88.0309C373.99 89.7117 365.694 93.7332 370.964 98.3031C375.586 102.312 382.181 105.163 387.72 107.633C399.528 112.894 412.042 115.901 424.948 116.669Z" fill="#4F2B2B"/>
<path d="M432.919 117.973C427.608 117.973 420.755 119.934 416.524 122.73C416.071 123.03 415.945 123.641 416.246 124.095C416.546 124.548 417.155 124.675 417.611 124.373C421.816 121.594 428.815 119.683 433.855 119.966C434.397 119.982 434.863 119.575 434.89 119.033C434.92 118.489 434.502 118.025 433.958 117.996C433.619 117.979 433.273 117.971 432.919 117.971V117.973Z" fill="#4F2B2B"/>
<path d="M422.468 136.141C421.304 136.141 420.359 135.196 420.359 134.032V131.689C420.359 130.525 421.304 129.58 422.468 129.58C423.632 129.58 424.577 130.525 424.577 131.689V134.032C424.577 135.196 423.632 136.141 422.468 136.141Z" fill="#4F2B2B"/>
<path d="M376.047 182.185L394.387 204.522L413.913 183.368L392.759 170.945L376.047 182.185Z" fill="#FBE4C6"/>
<path d="M453.283 179.221L435.714 203.116L413.913 183.369L435.067 166.572L453.283 179.221Z" fill="#FBE4C6"/>
<path d="M537.568 194.036C527.846 184.314 473.118 175.955 457.55 173.867L416.16 235.675L357.819 179.278C346.324 179.165 334.826 178.724 323.525 180.953C307.975 184.021 294.126 192.98 283.154 204.209C270.876 216.778 260.501 231.942 252.373 247.485C245.583 260.467 235.669 277.919 236.008 292.835C236.519 315.355 258.889 320.659 278.645 323.757L331.589 313.917L466.059 312.981L536.809 301.268C536.809 301.268 548.814 205.278 537.57 194.034L537.568 194.036Z" fill="#F29EC3"/>
<path d="M456.01 137.148L450.354 137.307C449.443 137.332 448.684 136.613 448.659 135.702C448.634 134.791 449.353 134.032 450.264 134.006L455.92 133.85C456.831 133.825 457.59 134.544 457.615 135.455C457.64 136.366 456.921 137.125 456.01 137.151V137.148Z" fill="#FF9D6C"/>
<path d="M451.433 101.388C449.571 99.2998 446.428 99.0299 444.256 100.753C442.04 102.514 441.618 105.677 443.299 107.954C443.377 108.062 443.432 108.18 443.461 108.302L469.189 135.57C469.562 135.966 469.545 136.59 469.149 136.964C468.959 137.143 468.717 137.231 468.474 137.231C468.213 137.231 467.951 137.128 467.757 136.921L439.13 106.582C437.268 104.492 434.121 104.224 431.951 105.947C429.737 107.708 429.315 110.871 430.994 113.149C431.158 113.37 431.213 113.638 431.171 113.891C432.335 114.275 433.421 114.937 434.292 115.911L457.451 141.875C457.814 142.282 457.778 142.904 457.373 143.267C456.964 143.63 456.342 143.59 455.981 143.189L432.822 117.223C430.977 115.154 427.833 114.886 425.663 116.607C423.448 118.368 423.027 121.531 424.705 123.809L444.933 151.243C445.222 151.633 445.182 152.177 444.84 152.523C444.495 152.866 443.953 152.911 443.562 152.628L430.467 143.159C428.212 141.531 425.131 141.877 423.301 143.965C421.382 146.148 421.572 149.515 423.72 151.47L440.155 166.411C440.309 166.553 440.414 166.736 440.456 166.941C440.507 167.179 445.385 190.735 446.454 194.484C447.139 196.882 454.13 200.876 458.645 202.974L490.868 189.24L479.862 131.519L451.431 101.388H451.433Z" fill="#FFBE97"/>
<path d="M481.746 130.866C481.712 130.68 481.623 130.512 481.493 130.375L452.884 100.056C450.347 97.2069 446.016 96.8336 443.032 99.2082C441.193 100.667 440.269 102.831 440.318 105.005C437.751 102.403 433.618 102.11 430.729 104.404C427.92 106.633 427.237 110.49 428.943 113.538C427.359 113.531 425.767 114.014 424.44 115.069C421.389 117.492 420.809 121.847 423.122 124.984L439.599 147.33L431.625 141.564C428.542 139.337 424.331 139.812 421.821 142.665C419.198 145.651 419.457 150.257 422.399 152.931L438.595 167.657C439.204 170.599 443.527 191.402 444.565 195.027C445.75 199.173 456.954 204.37 458.226 204.949C458.355 205.009 458.496 205.038 458.635 205.038C458.766 205.038 458.899 205.011 459.023 204.96L492.379 190.742C492.805 190.561 493.047 190.107 492.961 189.65L481.752 130.868L481.746 130.866ZM458.646 202.973C454.131 200.875 447.14 196.881 446.454 194.483C445.383 190.734 440.507 167.18 440.457 166.94C440.415 166.735 440.309 166.552 440.155 166.41L423.721 151.469C421.572 149.514 421.382 146.149 423.301 143.964C425.132 141.876 428.213 141.53 430.467 143.158L443.563 152.627C443.953 152.91 444.495 152.868 444.841 152.522C445.183 152.176 445.223 151.634 444.934 151.242L424.706 123.808C423.027 121.528 423.449 118.365 425.663 116.606C427.833 114.883 430.978 115.153 432.823 117.222L455.982 143.188C456.343 143.591 456.965 143.629 457.374 143.266C457.781 142.903 457.815 142.281 457.452 141.874L434.293 115.91C433.424 114.934 432.336 114.274 431.172 113.89C431.212 113.637 431.157 113.369 430.995 113.148C429.316 110.868 429.738 107.705 431.952 105.946C434.122 104.225 437.268 104.493 439.13 106.581L467.758 136.92C467.95 137.125 468.211 137.23 468.475 137.23C468.717 137.23 468.96 137.142 469.15 136.963C469.546 136.589 469.563 135.965 469.19 135.569L443.462 108.301C443.43 108.179 443.378 108.061 443.3 107.954C441.619 105.676 442.041 102.513 444.257 100.752C446.429 99.031 449.571 99.3009 451.433 101.387L479.865 131.518L490.871 189.239L458.648 202.973H458.646Z" fill="#FFBE97"/>
<path d="M428.978 113.645L445.869 131.805C447.749 133.826 449.191 136.214 450.103 138.819L452.175 144.74" stroke="#4F2B2B" stroke-width="1.76251" stroke-linecap="round"/>
<path d="M440.519 104.762L457.411 122.922C459.291 124.943 460.732 127.331 461.644 129.937L463.716 135.857" stroke="#4F2B2B" stroke-width="1.76251" stroke-linecap="round"/>
<path d="M426.017 129.439L439.343 144.785C441.293 147.029 442.717 149.681 443.513 152.545L444.772 157.078" stroke="#4F2B2B" stroke-width="1.76251" stroke-linecap="round"/>
<path d="M536.806 299.866C535.1 325.895 482.065 341.558 463.6 309.845C460.648 304.775 459.041 299.035 458.471 293.196L449.661 202.881L492.297 184.607L536.808 299.866H536.806Z" fill="#F29EC3"/>
<path d="M450.201 201.268C450.53 231.374 454.15 294.549 465.995 306.394" stroke="#4F2B2B" stroke-width="2"/>
<path d="M491.993 185.477C505.059 212.602 529.853 270.821 524.495 286.692" stroke="#4F2B2B" stroke-width="2"/>
<path d="M465.589 314.907H328.31C327.765 314.907 327.325 314.467 327.325 313.92C327.325 313.374 327.765 312.936 328.31 312.936H465.589C466.133 312.936 466.575 313.376 466.575 313.92C466.575 314.464 466.135 314.907 465.589 314.907Z" fill="#775340"/>
<path d="M331.118 294.291C330.633 294.291 330.211 293.935 330.144 293.439L321.006 227.376C320.93 226.836 321.308 226.338 321.848 226.265C322.39 226.176 322.885 226.566 322.959 227.106L332.097 293.169C332.173 293.709 331.795 294.207 331.255 294.281C331.211 294.287 331.165 294.291 331.12 294.291H331.118Z" fill="#4F2B2B"/>
<path d="M270.429 262.143C261.981 273.822 260.596 294.95 267.207 311.289C270.374 319.124 277.774 324.702 286.515 325.84L297.606 327.298L306.651 327.042C311.366 326.912 315.484 323.974 317.146 319.556L317.69 318.114C316.672 318.177 315.641 318.219 314.586 318.219C304.782 318.219 293.955 315.726 293.359 315.587C292.827 315.463 292.498 314.934 292.62 314.402C292.745 313.873 293.268 313.542 293.806 313.664C293.993 313.71 312.798 318.044 322.87 315.372C326.594 314.385 329.002 312.918 329.837 311.127C330.276 310.187 330.179 309.389 330.065 308.932C327.077 309.522 323.981 309.775 320.936 309.775C309.211 309.775 298.3 306.283 297.715 306.093C297.197 305.927 296.914 305.37 297.083 304.851C297.249 304.332 297.808 304.048 298.325 304.219C298.504 304.278 316.315 309.976 330.485 306.846C332.79 306.329 334.812 304.607 335.93 302.23C334.447 302.365 332.973 302.432 331.516 302.432C313.721 302.432 298.314 293.149 298.114 293.027C297.65 292.744 297.505 292.137 297.789 291.673C298.072 291.209 298.681 291.064 299.145 291.346C299.396 291.498 324.261 306.443 346.733 297.73C346.912 297.576 347.128 297.489 347.355 297.485C348.969 296.8 350.192 295.402 350.628 293.714C351.014 292.23 350.789 290.697 349.996 289.393C349.207 288.099 347.956 287.202 346.478 286.865C345.01 286.534 343.498 286.201 341.948 285.859C331.151 283.489 318.916 280.802 307.374 274.937C306.889 274.691 306.695 274.098 306.942 273.613C307.186 273.128 307.783 272.938 308.266 273.181C312.996 275.585 317.861 277.426 322.705 278.953L291.241 252.432C291.14 252.457 291.037 252.478 290.931 252.466C282.504 251.9 275.41 255.253 270.431 262.137L270.429 262.143ZM327.203 288.765C327.414 288.263 327.99 288.027 328.494 288.238C328.996 288.449 329.234 289.024 329.021 289.528C328.19 291.513 327.91 293.78 328.237 295.912C328.319 296.452 327.95 296.954 327.412 297.036C327.359 297.044 327.311 297.046 327.26 297.046C326.784 297.046 326.364 296.698 326.288 296.211C325.9 293.689 326.216 291.114 327.203 288.765Z" fill="#FFBE97"/>
<path d="M323.747 256.982C327.451 258.604 337.196 263.726 338.735 268.353C339.258 269.928 339.863 271.955 340.534 274.384L315.403 253.203C318.123 254.192 320.913 255.441 323.747 256.984V256.982Z" fill="#FFBE97"/>
<path d="M268.831 260.988C259.875 273.369 258.424 294.837 265.377 312.031C268.813 320.525 276.816 326.567 286.261 327.798L297.505 329.264L306.704 329.017C312.225 328.863 317.048 325.422 318.99 320.255L319.711 318.342C319.762 318.207 319.777 318.068 319.768 317.931C321.036 317.781 322.255 317.579 323.37 317.282C327.776 316.113 330.561 314.304 331.647 311.904C332.282 310.502 332.168 309.236 331.981 308.456C334.509 307.537 336.626 305.521 337.807 302.876L338.216 301.963C341.222 301.535 344.248 300.788 347.242 299.645L351.806 303.49C351.861 303.536 351.926 303.561 351.987 303.593C352.019 303.61 352.04 303.635 352.072 303.648L369.984 310.902C370.104 310.951 370.229 310.974 370.353 310.974C370.629 310.974 370.899 310.858 371.091 310.643C371.367 310.331 371.418 309.877 371.216 309.513L361.747 292.366C361.747 292.366 361.747 292.366 361.747 292.364L361.734 292.342C361.707 292.292 361.66 292.258 361.627 292.214C361.587 292.163 361.557 292.106 361.506 292.064L361.485 292.045C361.485 292.045 361.479 292.041 361.477 292.039L343.079 276.533C343.094 276.412 343.09 276.29 343.058 276.168C342.124 272.656 341.297 269.818 340.604 267.73C338.47 261.328 325.175 255.461 324.61 255.214C320.334 252.884 316.063 251.127 311.989 250.033C311.86 249.999 311.734 249.995 311.611 250.01L290.072 231.855C288.539 230.56 286.594 229.942 284.603 230.117C282.609 230.286 280.799 231.224 279.509 232.755C276.845 235.914 277.25 240.653 280.409 243.314L288.924 250.49C280.708 250.564 273.798 254.12 268.829 260.99L268.831 260.988ZM297.126 240.374L290.004 248.822L281.681 241.806C279.352 239.843 279.055 236.351 281.016 234.023C281.967 232.894 283.302 232.203 284.77 232.078C286.238 231.958 287.672 232.407 288.8 233.358L297.124 240.374H297.126ZM340.534 274.384L315.403 253.202C318.123 254.192 320.913 255.44 323.748 256.984C327.451 258.605 337.196 263.728 338.735 268.354C339.258 269.93 339.863 271.956 340.534 274.386V274.384ZM364.244 306.451L366.199 304.496L368.151 308.032L364.244 306.451ZM354.079 302.334L360.703 294.544L365.205 302.701L362.297 305.607C362.285 305.62 362.28 305.637 362.268 305.651L354.077 302.334H354.079ZM349.195 298.709C350.823 297.682 352.05 296.092 352.538 294.211C353.056 292.208 352.751 290.132 351.677 288.372C350.608 286.617 348.917 285.402 346.911 284.949C345.439 284.616 343.923 284.28 342.367 283.941C337.561 282.886 332.461 281.75 327.282 280.316C327.232 280.238 327.183 280.16 327.107 280.096L291.512 250.094L298.634 241.646L359.484 292.935L352.329 301.351L349.197 298.711L349.195 298.709ZM270.428 262.142C275.405 255.259 282.501 251.903 290.928 252.471C291.033 252.483 291.137 252.462 291.238 252.437L322.702 278.958C317.858 277.433 312.993 275.59 308.263 273.186C307.78 272.941 307.183 273.131 306.938 273.618C306.689 274.103 306.883 274.696 307.37 274.942C318.912 280.807 331.15 283.494 341.945 285.864C343.495 286.206 345.009 286.539 346.475 286.87C347.953 287.207 349.203 288.104 349.992 289.399C350.785 290.702 351.011 292.235 350.625 293.72C350.188 295.407 348.965 296.805 347.352 297.49C347.124 297.494 346.909 297.581 346.73 297.735C324.258 306.448 299.393 291.505 299.142 291.351C298.678 291.069 298.068 291.214 297.786 291.678C297.503 292.142 297.647 292.749 298.111 293.032C298.311 293.154 313.718 302.437 331.512 302.437C332.97 302.437 334.444 302.368 335.926 302.235C334.809 304.612 332.786 306.335 330.481 306.851C316.312 309.981 298.501 304.283 298.321 304.224C297.805 304.055 297.248 304.34 297.079 304.856C296.913 305.375 297.195 305.93 297.712 306.098C298.296 306.286 309.207 309.78 320.932 309.78C323.978 309.78 327.073 309.527 330.062 308.937C330.175 309.395 330.272 310.192 329.834 311.132C328.999 312.923 326.588 314.39 322.866 315.377C312.794 318.049 293.992 313.716 293.802 313.669C293.264 313.547 292.744 313.878 292.617 314.407C292.495 314.937 292.824 315.466 293.355 315.592C293.952 315.732 304.777 318.224 314.583 318.224C315.637 318.224 316.67 318.182 317.687 318.119L317.143 319.561C315.481 323.979 311.363 326.917 306.647 327.048L297.602 327.303L286.512 325.846C277.771 324.705 270.371 319.129 267.203 311.295C260.592 294.955 261.98 273.825 270.426 262.148L270.428 262.142Z" fill="#FFBE97"/>
<path d="M328.494 288.235C328.996 288.446 329.235 289.022 329.022 289.526C328.191 291.51 327.91 293.777 328.237 295.909C328.319 296.449 327.95 296.951 327.412 297.033C327.36 297.042 327.311 297.044 327.261 297.044C326.784 297.044 326.364 296.696 326.288 296.209C325.9 293.687 326.217 291.112 327.204 288.763C327.415 288.261 327.99 288.024 328.494 288.235Z" fill="#4F2B2B"/>
<path d="M352.537 294.216C353.056 292.213 352.75 290.138 351.677 288.377C350.608 286.622 348.917 285.407 346.911 284.954C345.439 284.621 343.923 284.286 342.366 283.946C337.56 282.892 332.461 281.755 327.282 280.321C327.231 280.243 327.183 280.165 327.107 280.102L290.29 251.613L299.667 239.768L360.867 291.59L350.996 303.436L346.911 299.981C348.539 298.954 352.052 296.099 352.54 294.218L352.537 294.216Z" fill="#DF8711"/>
<path d="M278.937 242.234C276.608 240.27 277.47 235.184 279.431 232.856C280.407 230.71 283.614 229.34 287.328 230.389C291.909 231.683 295.263 236.04 299.667 239.766L295.175 246.073L290.289 251.611L278.938 242.234H278.937Z" fill="#FBE4C6"/>
<path d="M365.207 302.703L362.298 305.609C362.286 305.622 360.88 307.37 360.868 307.385L350.997 303.436L360.868 291.098L366.79 301.462L365.207 302.703Z" fill="#FBE4C6"/>
<path d="M371.725 310.836C371.609 311.458 369.835 311.308 369.75 311.329L361.854 307.874L367.283 302.445L371.231 308.861C371.231 308.861 371.84 310.213 371.725 310.836Z" fill="#4F2B2B"/>
<path d="M331.748 308.599L321.617 309.377C319.824 309.515 318.021 309.41 316.256 309.066L298.68 305.637" stroke="#4F2B2B" stroke-width="1.76251" stroke-linecap="round"/>
<path d="M337.178 301.195L326.728 301.195C324.497 301.194 322.281 300.821 320.174 300.09L299.174 292.805" stroke="#4F2B2B" stroke-width="1.76251" stroke-linecap="round"/>
<path d="M318.916 317.975L308.854 317.976C307.341 317.976 305.832 317.804 304.357 317.463L293.744 315.015" stroke="#4F2B2B" stroke-width="1.76251" stroke-linecap="round"/>
<path d="M308.057 274.049L315.62 277.607C316.171 277.867 316.744 278.075 317.333 278.23L325.825 280.465" stroke="#4F2B2B" stroke-width="1.76251" stroke-linecap="round"/>
</g>
</svg>
