<?xml version="1.0" encoding="utf-8"?>
<!-- Generator: Adobe Illustrator 28.1.0, SVG Export Plug-In . SVG Version: 6.00 Build 0)  -->
<svg version="1.1" id="Layer_1" xmlns="http://www.w3.org/2000/svg" xmlns:xlink="http://www.w3.org/1999/xlink" x="0px" y="0px"
	 viewBox="0 0 470 250" style="enable-background:new 0 0 470 250;" xml:space="preserve">
<style type="text/css">
	.st0{fill:#3F97B1;}
	.st1{fill:#FFBE97;}
	.st2{fill:#4F2B2B;}
	.st3{fill:#D8F5FD;}
	.st4{fill:#2B6577;}
	.st5{fill:#FF9D6C;}
	.st6{fill:#8FC6D7;}
	.st7{fill:#F29EC3;}
	.st8{fill:#FBE4C6;}
	.st9{fill:#FCE9CC;}
	.st10{fill:#FFB8BD;}
	.st11{fill:#3A8AA2;}
</style>
<polygon class="st0" points="257.8,148.2 205.5,148.2 231.6,194.1 "/>
<rect x="213.3" y="126.2" class="st1" width="33.9" height="30.1"/>
<path class="st2" d="M247.2,144.1v-11l-32.2,1.5C223.9,147.6,240.2,146.1,247.2,144.1z"/>
<polygon class="st3" points="223.3,157.9 226.4,167.2 236.2,167.2 239.2,157.9 "/>
<polygon class="st3" points="240.2,200.9 222.8,200.9 226.4,164.7 236.2,164.7 "/>
<path class="st4" d="M325.6,250c0,0-14.8-80.9-26.6-92.3c-13.8-13.2-26.1-9.8-37.7-9.8c-1,0-4.2,0.3-4.2,0.3l-25.4,39.5l-25.4-39.5
	c0,0-4.1-0.3-4.7-0.3c-9.8-0.7-19.2-0.7-28.3,3.7c-3.3,1.6-6.3,3.6-8.9,6.1C152.4,169.1,145,250,145,250"/>
<path class="st2" d="M217,85.4c0,0-16.8,0.2-20.2,14.4c-2.6,10.7,2.4,20.7,2.4,20.7l62.8,2.8c0,0,6.5-10.1,3.9-20.4
	C263.2,92.3,241.3,68.2,217,85.4z"/>
<ellipse class="st1" cx="201" cy="118.9" rx="6.7" ry="6.7"/>
<circle class="st1" cx="261.9" cy="118.6" r="6.7"/>
<path class="st2" d="M202.2,121.5l-3.9-0.2c-0.6,0-1.1-0.6-1.1-1.2s0.6-1.1,1.2-1.1l3.9,0.2c0.6,0,1.1,0.6,1.1,1.2
	S202.8,121.5,202.2,121.5z"/>
<path class="st2" d="M263.9,119l-3.9,0.2c-0.6,0-1.2-0.4-1.2-1.1c0-0.6,0.5-1.2,1.1-1.2l3.9-0.2c0.6,0,1.2,0.4,1.2,1.1
	C265,118.4,264.6,118.9,263.9,119z"/>
<path class="st1" d="M260.8,119.1c-0.8,13.9-16.7,25.2-33.2,24.2s-27.5-13.9-26.6-27.8c0.8-13.9,14.6-26.6,31.1-26.2
	C251.3,89.8,261.6,105.2,260.8,119.1z"/>
<path class="st2" d="M217.4,114.4c-0.5,0-1-0.4-1-1l0-1.8c0-0.5,0.4-1,1-1c0.5,0,1,0.4,1,1l0,1.8C218.4,113.9,218,114.4,217.4,114.4
	z"/>
<path class="st2" d="M240.4,114.4c-0.5,0-1-0.4-1-1l0-1.8c0-0.5,0.4-1,1-1c0.5,0,1,0.4,1,1l0,1.8
	C241.3,113.9,240.9,114.4,240.4,114.4z"/>
<path class="st2" d="M248.8,108.9c-0.2,0-0.5-0.1-0.6-0.3c-1.6-2.4-9.6-3.5-12.8-2.2c-0.4,0.2-0.8,0-0.9-0.4c-0.1-0.4,0-0.8,0.4-0.9
	c3.5-1.4,12.4-0.4,14.5,2.8c0.2,0.3,0.1,0.8-0.2,1C249,108.8,248.9,108.9,248.8,108.9L248.8,108.9z"/>
<path class="st2" d="M211.4,108.9c-0.2,0-0.4-0.1-0.5-0.2c-0.3-0.3-0.3-0.7,0-1c2.8-2.7,7.5-3,10.7-2.2c0.4,0.1,0.6,0.5,0.5,0.9
	c-0.1,0.4-0.5,0.6-0.9,0.5c-2.9-0.8-7.1-0.4-9.3,1.8C211.8,108.9,211.6,108.9,211.4,108.9L211.4,108.9z"/>
<ellipse transform="matrix(4.365845e-03 -1 1 4.365845e-03 92.0007 333.0526)" class="st5" cx="213.3" cy="120.3" rx="2.5" ry="4.7"/>
<ellipse transform="matrix(4.362409e-03 -1 1 4.362409e-03 125.5353 366.7462)" class="st5" cx="246.9" cy="120.3" rx="2.5" ry="4.7"/>
<path class="st2" d="M227.6,118.3c-0.1,0-0.3,0-0.4-0.1c-0.3-0.2-0.4-0.7-0.2-1c0.7-1.1,0.8-2.7,0.4-4.2c-0.5-1.8-1.6-3.2-3.1-4
	c-0.4-0.2-0.5-0.6-0.3-1c0.2-0.3,0.6-0.5,1-0.3c1.9,1,3.3,2.7,3.9,4.9c0.5,2,0.3,4-0.6,5.4C228.1,118.2,227.9,118.3,227.6,118.3
	L227.6,118.3z"/>
<path class="st2" d="M217.9,86.9c0,0,0,14.4,19.7,12.9c0,0,10.9,3.9,20.1,0.7C257.6,100.6,230.2,77.2,217.9,86.9L217.9,86.9z"/>
<path class="st2" d="M219,93.6c0,0-9.3,15.2-20.1,17.4l5.2-17.5l17.2-4.3L219,93.6L219,93.6z"/>
<rect x="214.8" y="21.1" transform="matrix(3.665087e-03 -1 1 3.665087e-03 163.8597 285.2007)" class="st6" width="20.5" height="78.4"/>
<rect x="222.9" y="38.7" transform="matrix(3.665087e-03 -1 1 3.665087e-03 151.8973 308.2917)" class="st7" width="15.6" height="78.4"/>
<path class="st2" d="M199.5,85.7L199.5,85.7c-0.4,0-0.7-0.3-0.7-0.7l0.2-14c0-0.4,0.3-0.7,0.7-0.7c0.4,0,0.7,0.3,0.7,0.7l-0.2,14
	C200.2,85.4,199.9,85.7,199.5,85.7z"/>
<path class="st2" d="M261.9,85.7L261.9,85.7c-0.4,0-0.7-0.3-0.7-0.7l0.2-14c0-0.4,0.3-0.7,0.7-0.7c0.4,0,0.7,0.3,0.7,0.7l-0.2,14
	C262.6,85.4,262.3,85.7,261.9,85.7z"/>
<path class="st2" d="M207.2,63.7c-0.2,0-0.4,0-0.6,0c-1.6-0.1-2.9-0.5-3.8-1.3c-0.3-0.2-0.5-0.5-0.7-0.7c-0.2-0.2-0.4-0.5-0.7-0.7
	c-0.9-0.7-2.3-0.8-3.6-0.3c-1.1,0.4-2.1,1.2-3.3,2.4c-0.3,0.3-0.7,0.3-1,0c-0.3-0.3-0.3-0.7,0-1c0.9-0.9,2.2-2.2,3.9-2.8
	c1.8-0.6,3.6-0.4,4.9,0.6c0.3,0.2,0.6,0.5,0.9,0.8c0.2,0.2,0.4,0.4,0.6,0.6c0.7,0.6,1.7,0.9,3,1c2.5,0.1,5-0.7,6.9-2.2
	c0.3-0.2,0.8-0.2,1,0.1c0.2,0.3,0.2,0.8-0.1,1C212.4,62.8,209.8,63.7,207.2,63.7L207.2,63.7z"/>
<path class="st2" d="M223.1,62.6c-0.5,0-1.1-0.1-1.7-0.3c-0.9-0.3-2-0.6-2.5-0.1c-0.3,0.3-0.7,0.3-1,0s-0.3-0.7,0-1
	c1.2-1.2,3-0.5,3.9-0.2c0.7,0.2,1.9,0.4,2.2-0.2c0.2-0.3,0.6-0.5,1-0.3s0.5,0.6,0.3,1C224.9,62.2,224.1,62.6,223.1,62.6L223.1,62.6z
	"/>
<path class="st2" d="M246.6,63.1c-1.6,0-3.2-0.1-4.9-0.5c-0.7-0.2-1.4-0.3-2.1-0.5c-1.2-0.3-2.3-0.6-3.4-0.7
	c-1.9-0.2-3.7,0.3-4.6,1.4c-0.3,0.3-0.7,0.3-1,0.1c-0.3-0.3-0.3-0.7-0.1-1c1.3-1.4,3.4-2.1,5.8-1.9c1.2,0.1,2.5,0.5,3.6,0.8
	c0.7,0.2,1.3,0.4,2,0.5c4.7,1,9.8,0.1,14.3-0.7c0.4-0.1,0.8,0.2,0.8,0.6c0.1,0.4-0.2,0.8-0.6,0.8C253.4,62.5,250,63.1,246.6,63.1
	L246.6,63.1z"/>
<rect x="206.6" y="75" class="st8" width="21.9" height="4.8"/>
<polygon class="st0" points="231.1,158 212.5,140.4 205.9,151.4 222.9,169.7 "/>
<polygon class="st0" points="231.6,158 250.2,140.4 256.8,151.4 239.8,169.7 "/>
<polygon class="st9" points="209.1,164 210.4,164.6 214.8,161.2 208.9,158.5 "/>
<polygon class="st10" points="209.1,165.6 209.1,165.7 209.2,165.6 209.2,165.6 "/>
<path class="st10" d="M230,120.9c-1.9-0.9-4.1-0.1-5,1.8l3.4,1.6l3.4,1.6c0.4-0.9,0.4-1.9,0.1-2.8
	C231.6,122.1,230.9,121.3,230,120.9L230,120.9z"/>
<polygon class="st10" points="224.4,124 224.1,124.6 230.9,127.8 231.2,127.1 227.8,125.6 "/>
<path class="st1" d="M219.3,123.4c0,0,3.9,8.9,17,5C249.3,124.5,227.6,110.8,219.3,123.4z"/>
<path class="st2" d="M230.2,129.8c-3.8,0-7.5-1.3-10.4-3.8c-0.3-0.3-0.3-0.7-0.1-1c0.3-0.3,0.7-0.3,1-0.1c3.4,2.9,8.2,4.1,12.6,3.1
	c0.4-0.1,0.8,0.1,0.9,0.5s-0.1,0.8-0.5,0.9C232.5,129.7,231.4,129.8,230.2,129.8L230.2,129.8z"/>
<path class="st2" d="M182.2,249.3c-0.4,0-0.7-0.3-0.7-0.6l-4.1-46.3c0-0.4,0.3-0.7,0.6-0.8c0.4,0,0.7,0.3,0.8,0.6l4.1,46.3
	C182.9,248.9,182.6,249.3,182.2,249.3C182.2,249.3,182.2,249.3,182.2,249.3L182.2,249.3z"/>
<path class="st2" d="M282.8,249.3C282.8,249.3,282.8,249.3,282.8,249.3c-0.5,0-0.7-0.4-0.7-0.8l4.1-46.4c0-0.4,0.4-0.7,0.8-0.6
	c0.4,0,0.7,0.4,0.6,0.8l-4.1,46.3C283.5,249,283.1,249.3,282.8,249.3L282.8,249.3z"/>
<ellipse transform="matrix(0.8219 -0.5696 0.5696 0.8219 -68.4664 187.5774)" class="st11" cx="265.8" cy="203.3" rx="9.4" ry="9.4"/>
<path class="st2" d="M169,138.6c-0.4,0-0.7-0.3-0.7-0.6l-4.1-28.5c0-0.3,0.1-0.6,0.4-0.7s0.6-0.1,0.8,0.1l19.7,19.7
	c0.3,0.3,0.3,0.7,0,1s-0.7,0.3-1,0L166,111.4l3.8,26.4C169.8,138.2,169.5,138.6,169,138.6C169.1,138.6,169.1,138.6,169,138.6
	L169,138.6z"/>
<path class="st2" d="M167.7,126.4c-0.2,0-0.5-0.1-0.6-0.3c-0.2-0.3-0.1-0.8,0.3-1l8.1-4.8c0.3-0.2,0.8-0.1,1,0.3
	c0.2,0.3,0.1,0.8-0.3,1l-8.1,4.8C167.9,126.4,167.8,126.4,167.7,126.4L167.7,126.4z"/>
<path class="st2" d="M181.2,112.2c-0.3,0-0.5-0.1-0.6-0.4l-6.8-12.9c-0.2-0.3-0.1-0.8,0.3-1c0.4-0.2,0.8-0.1,1,0.3l6.8,12.9
	c0.2,0.3,0.1,0.8-0.3,1C181.5,112.1,181.4,112.2,181.2,112.2L181.2,112.2z"/>
<path class="st2" d="M171.4,109.1c-0.3,0-0.5-0.1-0.6-0.4c-0.2-0.3-0.1-0.8,0.3-1L184,101c0.4-0.2,0.8-0.1,1,0.3
	c0.2,0.3,0.1,0.8-0.3,1l-12.9,6.8C171.6,109.1,171.5,109.1,171.4,109.1L171.4,109.1z"/>
</svg>
