<svg width="100" height="100" viewBox="0 0 100 100" fill="none" xmlns="http://www.w3.org/2000/svg">
<path d="M54.8381 82.2579H11.2897C8.6123 82.2579 6.19294 81.1772 4.45101 79.4192C2.69294 77.6772 1.6123 75.2579 1.6123 72.5805C1.6123 67.2417 5.95101 62.903 11.2897 62.903H24.1929V19.3545H98.3865V82.2579H54.8381Z" fill="#F7FDFE"/>
<path d="M96.7733 90.3224L83.8701 98.3869V82.2578L96.7733 90.3224Z" fill="#F7FDFE"/>
<path d="M90.3212 45.1602V51.6118H77.418V45.1602H83.8696H90.3212Z" fill="#357E94"/>
<path d="M83.8696 82.2578V98.3869H77.418V90.3224V82.2578H83.8696Z" fill="#FBE4C6"/>
<path d="M77.4184 90.3223V98.3868H41.9346V90.3223H62.9023H66.1281H77.4184Z" fill="#F5C07A"/>
<path d="M77.4184 82.2578V90.3224H66.1281H62.9023H41.9346V82.2578H53.2249H54.8378H77.4184Z" fill="#EF9C2E"/>
<path d="M77.4182 25.8057V38.7089H61.2892H45.1602V25.8057H77.4182Z" fill="#BF8888"/>
<path d="M68.6928 65.4672C69.2735 64.8705 70.0799 64.5156 70.967 64.5156C72.7412 64.5156 74.1928 65.9672 74.1928 67.7414C74.1928 69.5156 72.7412 70.9673 70.967 70.9673C69.1928 70.9673 67.7412 69.5156 67.7412 67.7414C67.7412 66.8543 68.096 66.0479 68.6928 65.4672Z" fill="#BF8888"/>
<path d="M67.7411 45.1602V51.6118H61.2895H54.8379V45.1602H61.2895H67.7411Z" fill="#357E94"/>
<path d="M53.8867 65.4672C54.4835 66.0479 54.8383 66.8543 54.8383 67.7414C54.8383 69.5156 53.3867 70.9673 51.6125 70.9673C49.8383 70.9673 48.3867 69.5156 48.3867 67.7414C48.3867 65.9672 49.8383 64.5156 51.6125 64.5156C52.4996 64.5156 53.3061 64.8705 53.8867 65.4672Z" fill="#BF8888"/>
<path d="M45.161 45.1602V51.6118H32.2578V45.1602H38.7094H45.161Z" fill="#357E94"/>
<path d="M41.935 90.3224V98.3869H35.4834V93.5482V87.0965V82.2578H41.935V90.3224Z" fill="#FBE4C6"/>
<path d="M29.0317 93.5485V96.7744H22.5801V83.8711H29.0317V87.0969V93.5485Z" fill="#F7FDFE"/>
<path d="M24.1929 19.3543V62.9028H11.2897C5.95101 62.9028 1.6123 67.2415 1.6123 72.5803V11.2898C1.6123 5.95103 5.95101 1.6123 11.2897 1.6123H24.1929V19.3543Z" fill="#F5C07A"/>
<path d="M99.9998 83.8714H62.903V80.6456H96.774V20.968H24.1934V17.7422H99.9998V83.8714Z" fill="black"/>
<path d="M17.7419 83.8712H11.2903C5.06452 83.8712 0 78.8067 0 72.5809V11.2904C0 5.06453 5.06452 0 11.2903 0H25.8065V64.5163H11.2903C6.83871 64.5163 3.22581 68.1292 3.22581 72.5809C3.22581 77.0325 6.83871 80.6454 11.2903 80.6454H17.7419V83.8712ZM11.2903 3.22582C6.83871 3.22582 3.22581 6.83873 3.22581 11.2904V64.6937C5.27419 62.5969 8.12903 61.2905 11.2903 61.2905H22.5806V3.22582H11.2903Z" fill="black"/>
<path d="M84.3388 99.9999H33.8711V80.645H54.8388C55.7259 80.645 56.4517 79.9192 56.4517 79.0321C56.4517 78.145 55.7259 77.4192 54.8388 77.4192V74.1934C57.5001 74.1934 59.6775 76.3708 59.6775 79.0321C59.6775 81.6934 57.5001 83.8708 54.8388 83.8708H37.0969V96.7741H83.4034L93.7259 90.3224L83.0163 83.6289L84.7259 80.8869L99.8227 90.3224L84.3388 99.9999Z" fill="black"/>
<path d="M43.549 82.2578H40.3232V98.3869H43.549V82.2578Z" fill="black"/>
<path d="M85.4836 82.2578H82.2578V98.3869H85.4836V82.2578Z" fill="black"/>
<path d="M30.6452 98.3869H20.9678V82.2578H30.6452V98.3869ZM24.1936 95.1611H27.4194V85.4836H24.1936V95.1611Z" fill="black"/>
<path d="M35.4838 85.4834H29.0322V88.7092H35.4838V85.4834Z" fill="black"/>
<path d="M35.4838 91.9355H29.0322V95.1614H35.4838V91.9355Z" fill="black"/>
<path d="M79.0315 82.2588H75.8057V98.3879H79.0315V82.2588Z" fill="black"/>
<path d="M79.0317 38.7095H75.8059V27.4192H46.7737V38.7095H43.5479V24.1934H79.0317V38.7095Z" fill="black"/>
<path d="M53.2258 30.6455H50V33.8713H53.2258V30.6455Z" fill="black"/>
<path d="M66.1296 30.6455H56.4521V33.8713H66.1296V30.6455Z" fill="black"/>
<path d="M72.5803 30.6455H69.3545V33.8713H72.5803V30.6455Z" fill="black"/>
<path d="M62.9035 38.71H59.6777V45.1616H62.9035V38.71Z" fill="black"/>
<path d="M85.4838 45.1612H82.258V40.3225H40.3225V45.1612H37.0967V37.0967H85.4838V45.1612Z" fill="black"/>
<path d="M69.3546 53.2253H53.2256V43.5479H69.3546V53.2253ZM56.4514 49.9995H66.1288V46.7737H56.4514V49.9995Z" fill="black"/>
<path d="M91.9347 53.2253H75.8057V43.5479H91.9347V53.2253ZM79.0315 49.9995H88.7089V46.7737H79.0315V49.9995Z" fill="black"/>
<path d="M46.7745 53.2253H30.6455V43.5479H46.7745V53.2253ZM33.8713 49.9995H43.5487V46.7737H33.8713V49.9995Z" fill="black"/>
<path d="M62.9035 51.6133H59.6777V58.0649H62.9035V51.6133Z" fill="black"/>
<path d="M51.6131 72.5808C48.9518 72.5808 46.7744 70.4033 46.7744 67.742C46.7744 65.0807 48.9518 62.9033 51.6131 62.9033C54.2744 62.9033 56.4518 65.0807 56.4518 67.742C56.4518 70.4033 54.2744 72.5808 51.6131 72.5808ZM51.6131 66.1291C50.726 66.1291 50.0002 66.8549 50.0002 67.742C50.0002 68.6291 50.726 69.355 51.6131 69.355C52.5002 69.355 53.226 68.6291 53.226 67.742C53.226 66.8549 52.5002 66.1291 51.6131 66.1291Z" fill="black"/>
<path d="M60.1414 56.9318L52.0781 64.9951L54.3591 67.2761L62.4224 59.2128L60.1414 56.9318Z" fill="black"/>
<path d="M70.9676 72.5808C68.3063 72.5808 66.1289 70.4033 66.1289 67.742C66.1289 65.0807 68.3063 62.9033 70.9676 62.9033C73.6289 62.9033 75.8063 65.0807 75.8063 67.742C75.8063 70.4033 73.6289 72.5808 70.9676 72.5808ZM70.9676 66.1291C70.0805 66.1291 69.3547 66.8549 69.3547 67.742C69.3547 68.6291 70.0805 69.355 70.9676 69.355C71.8547 69.355 72.5805 68.6291 72.5805 67.742C72.5805 66.8549 71.8547 66.1291 70.9676 66.1291Z" fill="black"/>
<path d="M62.4324 56.9114L60.1514 59.1924L68.2147 67.2557L70.4957 64.9747L62.4324 56.9114Z" fill="black"/>
<path d="M62.9033 88.71H41.9355V91.9358H62.9033V88.71Z" fill="black"/>
<path d="M77.4192 88.71H66.1289V91.9358H77.4192V88.71Z" fill="black"/>
</svg>
