<svg width="700" height="400" viewBox="0 0 700 400" fill="none" xmlns="http://www.w3.org/2000/svg">
<mask id="mask0_759_3745" style="mask-type:alpha" maskUnits="userSpaceOnUse" x="0" y="0" width="700" height="400">
<rect width="700" height="400" transform="matrix(-1 0 0 1 700 0)" fill="white"/>
</mask>
<g mask="url(#mask0_759_3745)">
<rect width="700" height="400" transform="matrix(-1 0 0 1 700 0)" fill="white"/>
<path d="M605.477 170.261C604.329 170.056 603.223 170.614 602.674 171.572L545.994 145.614C546.041 145.48 546.08 145.341 546.107 145.197C546.366 143.732 545.391 142.335 543.927 142.074C542.463 141.812 541.066 142.79 540.804 144.253C540.763 144.488 540.755 144.719 540.774 144.946L506.669 150.972C506.402 150 505.603 149.219 504.546 149.032C503.082 148.77 501.685 149.748 501.423 151.212C501.309 151.859 501.436 152.494 501.739 153.023L470.631 174.917C470.239 174.458 469.693 174.126 469.052 174.011C468.357 173.888 467.681 174.045 467.131 174.396L411.881 103.48C412.29 103.098 412.584 102.585 412.691 101.991C412.953 100.527 411.976 99.1297 410.512 98.8683C409.048 98.6069 407.65 99.5842 407.389 101.048C407.314 101.474 407.346 101.893 407.461 102.282L306.534 142.595C306.631 141.238 305.688 139.998 304.319 139.754C302.855 139.493 301.457 140.47 301.196 141.934C301.172 142.068 301.162 142.199 301.159 142.331L261.285 144.941C261.109 143.839 260.259 142.918 259.1 142.712C258.516 142.608 257.945 142.704 257.45 142.946L231.212 99.7474L231.891 99.6911L230.957 99.3314L230.799 99.0712L230.692 99.2305L150.748 68.4272C150.771 68.3422 150.791 68.2558 150.808 68.1669C151.069 66.7031 150.092 65.3054 148.628 65.044C147.165 64.7826 145.767 65.7599 145.506 67.2236C145.244 68.6874 146.221 70.0851 147.685 70.3465C148.229 70.4437 148.766 70.3673 149.237 70.1602L167.882 103.852C167.863 103.922 167.846 103.993 167.833 104.066C167.767 104.431 167.781 104.793 167.858 105.134L105.734 125.398C105.386 124.596 104.659 123.978 103.734 123.814C102.27 123.552 100.872 124.53 100.611 125.993C100.349 127.457 101.327 128.855 102.79 129.116C103.368 129.22 103.939 129.126 104.429 128.887L127.791 167.714C127.255 168.109 126.86 168.701 126.734 169.411C126.565 170.362 126.92 171.282 127.587 171.883L108.328 197.776C108.051 197.606 107.739 197.482 107.399 197.423C105.936 197.161 104.538 198.139 104.276 199.602C104.015 201.066 104.992 202.464 106.456 202.725C107.345 202.882 108.208 202.583 108.809 201.998L136.068 225.169C135.848 225.48 135.691 225.841 135.619 226.244C135.385 227.558 136.148 228.816 137.366 229.25L126.777 264.304C125.324 264.064 123.944 265.035 123.686 266.489C123.425 267.952 124.402 269.35 125.866 269.612C126.121 269.657 126.373 269.663 126.62 269.637L132.75 296.396C131.84 296.696 131.119 297.473 130.94 298.483C130.893 298.745 130.889 299.005 130.918 299.256L90.0574 307.754C89.7699 306.82 88.9851 306.073 87.9564 305.892C86.4926 305.63 85.0949 306.608 84.8335 308.072C84.5721 309.535 85.5494 310.933 87.0131 311.194C87.1208 311.214 87.226 311.223 87.3325 311.23L89.5485 372.746C88.4122 372.892 87.4525 373.759 87.2418 374.945C86.9804 376.409 87.9578 377.806 89.4215 378.068C90.8852 378.329 92.283 377.352 92.5444 375.888C92.6195 375.471 92.5892 375.059 92.4794 374.676L176.444 342.009C176.827 342.678 177.491 343.178 178.309 343.324C179.772 343.585 181.17 342.608 181.431 341.144C181.693 339.68 180.716 338.283 179.252 338.021C179.107 337.996 178.961 337.986 178.818 337.983L174.6 306.575C175.648 306.36 176.513 305.529 176.711 304.411C176.776 304.048 176.763 303.688 176.687 303.35L247.225 278.067C247.583 278.835 248.297 279.421 249.192 279.582C250.656 279.843 252.054 278.866 252.315 277.402C252.577 275.938 251.599 274.541 250.136 274.279C249.799 274.219 249.467 274.228 249.153 274.289L239.434 241.021C240.273 240.69 240.927 239.945 241.096 238.99L241.07 239.236L328.723 248.331C328.708 249.625 329.626 250.777 330.941 251.011C331.619 251.132 332.281 250.984 332.824 250.649L354.972 280.096C354.546 280.483 354.237 281.005 354.131 281.616C353.872 283.081 354.847 284.478 356.311 284.739C357.774 285 359.172 284.023 359.434 282.559C359.535 281.989 359.448 281.428 359.215 280.941L407.153 252.679C407.549 253.227 408.146 253.628 408.863 253.756C410.327 254.017 411.725 253.04 411.986 251.576C412.095 250.966 411.988 250.37 411.719 249.861L440.351 231.386C440.744 231.889 441.317 232.255 441.995 232.376C443.458 232.637 444.856 231.66 445.118 230.196C445.145 230.041 445.155 229.887 445.157 229.736L507.268 223.039C507.498 224.067 508.323 224.905 509.424 225.101C510.253 225.247 511.061 224.999 511.654 224.488L543.06 253.676C542.788 254.016 542.594 254.428 542.511 254.887C542.249 256.351 543.227 257.748 544.69 258.01C546.155 258.269 547.552 257.294 547.813 255.83C547.814 255.819 547.815 255.808 547.818 255.798L580.785 254.997L598.211 254.573C598.432 255.616 599.26 256.473 600.374 256.672C601.838 256.933 603.236 255.956 603.497 254.492C603.699 253.353 603.154 252.259 602.215 251.703L614.619 215.365C614.656 215.373 614.693 215.384 614.732 215.391C616.196 215.652 617.594 214.675 617.855 213.211C618.116 211.747 617.139 210.35 615.675 210.088C615.328 210.027 614.985 210.035 614.66 210.104L605.904 175.45C606.787 175.137 607.482 174.373 607.657 173.384C607.919 171.92 606.941 170.522 605.477 170.261ZM599.779 251.549C598.977 251.897 598.359 252.623 598.195 253.549C598.163 253.728 598.152 253.904 598.153 254.077L578.395 254.558L547.854 255.301C547.849 255.039 547.804 254.784 547.726 254.54L590.843 228.192L599.777 251.547L599.779 251.549ZM407.288 249.356L386.5 234.681L405.457 204.14C405.683 204.252 405.928 204.338 406.188 204.384C406.311 204.407 406.434 204.415 406.557 204.42L408.94 248.441C408.292 248.537 407.706 248.865 407.288 249.356ZM357.982 279.681C357.756 279.569 357.511 279.483 357.251 279.437C357.098 279.411 356.95 279.399 356.802 279.399L351.125 212.33C351.741 212.22 352.296 211.899 352.697 211.43L385.831 234.82L357.984 279.682L357.982 279.681ZM132.462 165.454L151.653 190.806L131.494 171.554C131.762 171.217 131.951 170.808 132.035 170.352C132.217 169.327 131.791 168.337 131.02 167.745L132.462 165.454ZM105.911 126.935C105.975 126.569 105.963 126.209 105.886 125.868L168.011 105.607C168.193 106.028 168.481 106.397 168.846 106.676L132.425 164.577L105.075 128.447C105.498 128.061 105.803 127.54 105.912 126.933L105.911 126.935ZM408.603 103.801C408.862 103.963 409.151 104.081 409.464 104.151L404.058 148.293C402.745 148.253 401.565 149.179 401.328 150.513L374.501 148.283L408.603 103.801ZM612.932 211.287C612.902 211.336 612.871 211.387 612.845 211.438L579.307 192.072C579.4 191.867 579.471 191.652 579.513 191.421C579.623 190.814 579.514 190.22 579.251 189.712L585.853 185.481L612.932 211.287ZM520.924 169.331L510.028 165.173C510.052 165.091 510.072 165.007 510.087 164.92C510.183 164.378 510.109 163.846 509.907 163.378L517.51 159.215L573.383 189.355L520.924 169.331ZM509.852 165.636L547.953 180.18L574.27 190.225C574.246 190.307 574.226 190.391 574.211 190.478C574.124 190.961 574.175 191.435 574.333 191.867L528.227 213.591L508.699 166.828C509.193 166.565 509.6 166.152 509.853 165.64L509.852 165.636ZM578.983 189.294C578.588 188.787 578.015 188.418 577.334 188.298C576.674 188.18 576.029 188.315 575.494 188.631L545.235 146.767L585.483 185.128L578.982 189.296L578.983 189.294ZM542.982 147.375C543.641 147.493 544.287 147.358 544.822 147.042L575.092 188.921C574.914 189.078 574.755 189.257 574.622 189.455L518.032 158.929L541.224 146.228C541.619 146.811 542.236 147.241 542.983 147.373L542.982 147.375ZM540.983 145.794L517.51 158.65L506.549 152.738C506.627 152.555 506.688 152.359 506.724 152.157C506.766 151.923 506.774 151.691 506.755 151.464L540.859 145.439C540.892 145.561 540.932 145.682 540.983 145.798L540.983 145.794ZM504.996 154.211C505.531 154.014 505.996 153.655 506.313 153.176L516.989 158.934L509.668 162.944C509.274 162.361 508.657 161.93 507.909 161.799C507.6 161.743 507.291 161.746 506.996 161.796L504.996 154.211ZM505.372 166.177L481.314 190.426L470.557 178.487C470.894 178.122 471.136 177.661 471.232 177.134C471.295 176.779 471.283 176.427 471.212 176.095L504.954 165.489C505.059 165.737 505.199 165.969 505.372 166.177ZM443.58 227.277C443.379 227.186 443.163 227.115 442.934 227.074C442.487 226.995 442.049 227.03 441.646 227.159L425.544 194.355L466.188 177.9C466.414 178.336 466.753 178.704 467.177 178.964L443.578 227.279L443.58 227.277ZM236.503 236.651L214.925 217.792C215.177 217.462 215.359 217.069 215.435 216.632C215.472 216.419 215.481 216.209 215.469 216L225.484 213.306L236.874 236.33C236.74 236.426 236.616 236.533 236.5 236.651L236.503 236.651ZM136.276 299.044C136.306 298.182 135.919 297.376 135.273 296.855L145.141 281.913L171.733 302.591C171.579 302.855 171.466 303.15 171.408 303.468L136.277 299.042L136.276 299.044ZM172.019 302.186L145.413 281.497L176.115 235.013C176.359 235.142 176.627 235.239 176.913 235.289C176.945 235.294 176.979 235.297 177.011 235.302L173.892 301.255C173.159 301.301 172.487 301.645 172.02 302.184L172.019 302.186ZM403.504 153.636C403.627 153.659 403.747 153.668 403.869 153.673L406.268 199.071C405.51 199.181 404.835 199.613 404.414 200.247L374.788 184.326L402.385 153.155C402.708 153.39 403.085 153.56 403.504 153.636ZM404.18 200.686C404.102 200.869 404.044 201.061 404.006 201.265C403.968 201.475 403.96 201.683 403.971 201.888L353.326 209.457C353.305 209.211 353.252 208.974 353.167 208.75L374.449 184.712L404.178 200.689L404.18 200.686ZM352.931 208.265C352.747 207.971 352.509 207.712 352.227 207.506L354.485 179.172L354.703 176.428C355.586 176.419 356.395 175.975 356.886 175.268L374.003 184.465L352.934 208.26L352.931 208.265ZM354.2 176.388C354.2 176.388 354.202 176.39 354.204 176.391L353.987 179.124L351.747 207.233C351.551 207.145 351.339 207.076 351.116 207.036C350.748 206.97 350.384 206.984 350.043 207.06L336.537 188.037L352.723 175.597C353.104 175.997 353.611 176.287 354.198 176.39L354.2 176.388ZM402.013 152.825L374.338 184.085L357.128 174.836C357.216 174.639 357.283 174.43 357.323 174.209C357.404 173.748 357.364 173.295 357.224 172.88L401.646 152.334C401.748 152.511 401.872 152.674 402.013 152.825ZM305.99 144.029L352.239 172.589C352.14 172.799 352.064 173.027 352.02 173.265C351.896 173.968 352.057 174.652 352.417 175.206L336.25 187.628L305.595 144.451C305.742 144.326 305.872 144.184 305.988 144.028L305.99 144.029ZM335.857 187.933L317.048 202.389C316.676 202.03 316.199 201.776 315.652 201.679C315.438 201.642 315.226 201.631 315.02 201.645L308.676 167.25L304.573 145C304.792 144.939 304.999 144.853 305.19 144.74L335.857 187.933ZM172.286 106.539L190.305 123.464L201.441 133.927C201.18 134.263 200.994 134.662 200.914 135.112C200.757 135.992 201.05 136.845 201.624 137.445L192.898 147.517L171.966 106.789C172.08 106.713 172.186 106.629 172.288 106.54L172.286 106.539ZM245.63 205.31L210.913 179.997C211.074 179.726 211.196 179.422 211.252 179.092C211.353 178.523 211.266 177.966 211.037 177.479L223.827 168.929L246.027 204.941C245.882 205.05 245.747 205.175 245.626 205.311L245.63 205.31ZM210.787 177.049C210.391 176.5 209.794 176.096 209.073 175.969C208.891 175.936 208.713 175.923 208.535 175.928L204.122 138.217C204.344 138.169 204.557 138.093 204.757 137.994L223.567 168.507L210.786 177.051L210.787 177.049ZM201.999 137.771C202.315 137.996 202.684 138.161 203.094 138.234C203.273 138.266 203.454 138.28 203.628 138.276L205.199 151.746L208.025 175.989C207.877 176.021 207.735 176.068 207.596 176.123L193.14 147.992L201.998 137.767L201.999 137.771ZM207.156 176.351C206.543 176.742 206.088 177.376 205.95 178.148C205.895 178.462 205.898 178.77 205.947 179.065L156.244 192.202C156.114 191.852 155.915 191.535 155.657 191.266L192.79 148.402L207.155 176.353L207.156 176.351ZM156.369 193.597C156.424 193.283 156.42 192.975 156.371 192.68L206.075 179.543C206.261 180.053 206.6 180.498 207.045 180.814L191.556 207.617L156.305 193.867C156.331 193.778 156.351 193.688 156.366 193.595L156.369 193.597ZM207.476 181.063C207.681 181.157 207.899 181.229 208.129 181.271C208.2 181.285 208.269 181.29 208.338 181.297L212.358 213.507C211.507 213.645 210.765 214.184 210.376 214.958L192.025 207.799L207.476 181.063ZM213.254 213.511C213.12 213.487 212.985 213.478 212.854 213.473L208.839 181.298C209.092 181.275 209.335 181.217 209.567 181.129L225.261 212.852L215.396 215.506C215.146 214.51 214.333 213.7 213.257 213.51L213.254 213.511ZM210.011 180.908C210.197 180.795 210.37 180.659 210.524 180.503L245.332 205.719C245.173 205.989 245.055 206.29 244.997 206.619C244.94 206.934 244.945 207.246 244.997 207.546L225.751 212.723L210.013 180.91L210.011 180.908ZM312.53 203.857C312.523 203.896 312.52 203.935 312.515 203.976L275.699 205.602L250.318 206.722C250.24 206.155 249.981 205.635 249.595 205.229L281.06 169.012L313.268 202.434C312.895 202.809 312.629 203.296 312.53 203.857ZM247.873 204.404C247.369 204.361 246.883 204.463 246.455 204.676L224.244 168.648L256.533 147.063C256.877 147.487 257.35 147.809 257.908 147.964L247.873 204.404ZM256.255 146.651L223.982 168.224L205.182 137.73C205.646 137.381 205.999 136.886 206.16 136.294L255.939 145.145C255.892 145.682 256.01 146.203 256.255 146.651ZM204.036 132.928C203.194 132.78 202.376 133.04 201.781 133.564L193.662 125.936L172.624 106.172C172.69 106.084 172.753 105.991 172.809 105.894L213.519 124.751L206.257 135.546C206.242 134.277 205.332 133.16 204.036 132.928ZM170.282 107.229C170.72 107.262 171.143 107.185 171.527 107.024L192.547 147.923L155.284 190.938C155.039 190.761 154.764 190.625 154.462 190.537L170.282 107.229ZM156.125 194.328L191.308 208.051L178.51 230.195C178.305 230.101 178.087 230.029 177.857 229.987C177.279 229.883 176.712 229.976 176.223 230.213L155.308 195.294C155.648 195.044 155.93 194.716 156.125 194.328ZM178.941 230.444L191.775 208.235L210.194 215.421C210.169 215.51 210.149 215.6 210.133 215.692C210.047 216.17 210.097 216.641 210.25 217.07L179.711 231.286C179.519 230.956 179.257 230.67 178.942 230.447L178.941 230.444ZM237.308 236.08L225.975 213.176L245.126 208.025C245.386 208.723 245.927 209.297 246.64 209.585L238.75 235.847C238.241 235.789 237.745 235.875 237.309 236.077L237.308 236.08ZM239.238 235.951L247.116 209.725C247.137 209.729 247.157 209.736 247.178 209.74C248.641 210.001 250.039 209.024 250.3 207.56C250.32 207.447 250.332 207.332 250.338 207.218L307.11 204.713L312.496 204.474C312.505 204.658 312.534 204.839 312.58 205.013L240.721 237.09C240.385 236.557 239.87 236.142 239.237 235.947L239.238 235.951ZM317.373 202.766L336.147 188.34L349.556 207.226C348.805 207.561 348.224 208.234 348.028 209.088L317.874 204.28C317.864 203.726 317.682 203.204 317.374 202.77L317.373 202.766ZM407.132 199.085C407.009 199.062 406.889 199.052 406.767 199.048L404.368 153.65C404.563 153.621 404.754 153.571 404.934 153.501L424.862 194.098L409.049 200.501C408.675 199.783 407.988 199.239 407.129 199.085L407.132 199.085ZM465.929 176.196C465.851 176.627 465.886 177.05 466.004 177.443L425.327 193.914L405.383 153.283C405.802 153.027 406.151 152.657 406.379 152.209L465.997 175.908C465.969 176.002 465.945 176.098 465.929 176.196ZM401.287 151.012C401.291 151.315 401.344 151.61 401.443 151.886L357.029 172.428C356.892 172.181 356.714 171.958 356.504 171.762L374.143 148.754L401.288 151.01L401.287 151.012ZM356.108 171.461C355.822 171.281 355.499 171.152 355.145 171.087C354.093 170.9 353.079 171.352 352.493 172.161L306.252 143.607C306.328 143.455 306.391 143.295 306.437 143.125L373.55 148.703L356.105 171.457L356.108 171.461ZM303.372 145.063C303.613 145.106 303.852 145.112 304.083 145.091L314.528 201.719C314.211 201.799 313.912 201.934 313.649 202.117L281.386 168.637L302.273 144.596C302.59 144.826 302.96 144.988 303.372 145.063ZM280.714 168.654L249.22 204.903C248.967 204.722 248.681 204.579 248.364 204.493L258.399 148.052C259.106 148.112 259.779 147.889 260.304 147.47L280.715 168.652L280.714 168.654ZM256.027 144.657L206.638 135.876L213.98 124.966L256.089 144.471C256.066 144.532 256.046 144.593 256.027 144.657ZM173.017 105.445C173.067 105.306 173.107 105.165 173.135 105.015C173.162 104.866 173.172 104.717 173.174 104.57L230.29 99.8295L213.803 124.336L173.019 105.446L173.017 105.445ZM169.266 106.947C169.397 107.013 169.537 107.07 169.682 107.115L169.769 107.273L153.975 190.448C153.369 190.389 152.787 190.539 152.299 190.841L132.744 165.009L169.262 106.948L169.266 106.947ZM108.724 198.077L127.982 172.184C128.26 172.354 128.572 172.478 128.911 172.538C129.129 172.578 129.344 172.584 129.556 172.571L133.241 195.917L109.543 199.439C109.414 198.911 109.127 198.438 108.726 198.078L108.724 198.077ZM130.047 172.493C130.457 172.389 130.836 172.189 131.15 171.915L151.607 191.452C151.339 191.789 151.15 192.198 151.066 192.653C151.028 192.863 151.02 193.071 151.03 193.273L133.731 195.844L130.047 172.493ZM151.103 193.764C151.278 194.477 151.738 195.092 152.379 195.458L139.267 224.216C139.101 224.15 138.922 224.099 138.739 224.065C138.55 224.031 138.361 224.02 138.176 224.026L133.805 196.333L151.101 193.762L151.103 193.764ZM139.71 224.444L151.054 199.562L140.96 226.677C140.946 225.762 140.465 224.925 139.71 224.444ZM153.014 195.722C153.089 195.742 153.166 195.759 153.244 195.775C153.822 195.879 154.389 195.786 154.878 195.549L175.792 230.468C175.253 230.863 174.856 231.457 174.73 232.167C174.618 232.792 174.735 233.406 175.018 233.924L128.36 265.189C128.103 264.895 127.778 264.655 127.408 264.492L153.013 195.718L153.014 195.722ZM175.296 234.336C175.416 234.483 175.549 234.619 175.699 234.74L145.02 281.192L128.595 268.421C128.783 268.128 128.919 267.797 128.983 267.431C129.101 266.772 128.965 266.129 128.651 265.595L175.295 234.338L175.296 234.336ZM128.287 268.81L144.743 281.606L134.853 296.58C134.609 296.451 134.341 296.354 134.054 296.303C133.773 296.254 133.496 296.25 133.226 296.285L127.101 269.537C127.554 269.401 127.962 269.15 128.285 268.808L128.287 268.81ZM133.113 301.607C134.541 301.861 135.901 300.94 136.21 299.537L171.197 303.945L90.699 308.129L131.009 299.746C131.296 300.68 132.081 301.427 133.11 301.608L133.113 301.607ZM90.1271 309.015C90.1487 308.894 90.1592 308.772 90.1629 308.652L171.408 304.43C171.482 304.828 171.644 305.201 171.878 305.522L144.815 328.484L90.0823 309.198C90.0965 309.136 90.1128 309.076 90.1249 309.014L90.1271 309.015ZM174.528 301.289C174.48 301.28 174.433 301.277 174.386 301.272L177.505 235.328C178.319 235.293 179.062 234.885 179.538 234.25L199.21 246.305L174.908 301.388C174.784 301.347 174.66 301.311 174.528 301.289ZM179.798 233.827C179.908 233.605 179.99 233.367 180.034 233.108C180.12 232.63 180.07 232.16 179.917 231.73L210.456 217.514C210.696 217.927 211.047 218.273 211.471 218.509L199.412 245.843L179.797 233.823L179.798 233.827ZM211.93 218.712C212.053 218.752 212.18 218.789 212.312 218.812C212.895 218.915 213.467 218.82 213.961 218.58L248.06 274.768C247.852 274.923 247.666 275.107 247.507 275.319L199.843 246.11L211.932 218.713L211.93 218.712ZM248.484 274.509L214.387 218.322C214.456 218.271 214.524 218.217 214.588 218.157L236.193 237.038C235.996 237.334 235.858 237.675 235.791 238.045C235.532 239.51 236.507 240.907 237.971 241.168C238.307 241.228 238.639 241.219 238.954 241.158L248.67 274.425C248.606 274.449 248.544 274.479 248.482 274.508L248.484 274.509ZM240.945 237.533L312.749 205.478C313.109 206.238 313.82 206.819 314.711 206.978C315.111 207.048 315.507 207.025 315.877 206.925L330.252 245.93C329.511 246.284 328.944 246.971 328.773 247.835L241.126 238.74C241.162 238.316 241.096 237.905 240.946 237.531L240.945 237.533ZM331.88 245.709C331.48 245.639 331.084 245.662 330.716 245.759L316.657 207.613L334.659 241.266L332.38 245.846C332.222 245.785 332.053 245.737 331.88 245.706L331.88 245.709ZM316.665 206.572C317.259 206.178 317.699 205.555 317.834 204.798C317.836 204.79 317.835 204.781 317.838 204.771L347.962 209.575C347.922 210.559 348.424 211.467 349.235 211.97L334.933 240.723L316.667 206.573L316.665 206.572ZM349.679 212.193C349.836 212.254 350.005 212.302 350.179 212.333C350.33 212.358 350.479 212.371 350.627 212.372L356.304 279.44C356.107 279.477 355.916 279.532 355.732 279.609L335.219 241.26L349.679 212.193ZM352.981 211.024C353.133 210.762 353.244 210.471 353.302 210.153C353.313 210.087 353.319 210.021 353.327 209.956L404.046 202.374C404.194 202.975 404.545 203.505 405.034 203.878L386.091 234.396L352.981 211.024ZM408.928 203.185C409.114 202.897 409.247 202.565 409.311 202.204C409.388 201.773 409.353 201.35 409.236 200.957L425.08 194.541L441.189 227.354C440.958 227.478 440.748 227.635 440.563 227.819L408.927 203.182L408.928 203.185ZM444.014 227.525L467.627 179.181C467.78 179.24 467.942 179.287 468.108 179.315C468.87 179.45 469.612 179.249 470.187 178.82L480.963 190.779L444.289 227.747C444.201 227.667 444.109 227.593 444.011 227.524L444.014 227.525ZM481.649 190.797L505.726 166.528C506.073 166.813 506.492 167.018 506.966 167.101C507.079 167.121 507.19 167.131 507.302 167.138L509.076 209.194L509.524 219.786C509.055 219.852 508.618 220.041 508.254 220.322L481.651 190.799L481.649 190.797ZM510.368 219.799C510.252 219.777 510.136 219.767 510.019 219.763L507.798 167.118C507.951 167.098 508.096 167.065 508.241 167.019L527.777 213.802L512.238 221.123C511.856 220.448 511.189 219.943 510.368 219.799ZM528.419 214.049L574.545 192.315C574.77 192.695 575.086 193.017 575.471 193.25L546.485 253.016C546.228 252.87 545.943 252.763 545.636 252.708C545.273 252.644 544.913 252.656 544.575 252.732L528.422 214.049L528.419 214.049ZM547.528 254.078C547.367 253.784 547.154 253.519 546.895 253.303L575.916 193.467C576.067 193.525 576.226 193.57 576.39 193.597C576.803 193.67 577.207 193.643 577.587 193.537L590.661 227.719L547.526 254.077L547.528 254.078ZM578.053 193.362C578.453 193.165 578.799 192.872 579.059 192.504L612.646 211.897C612.606 212.018 612.572 212.14 612.549 212.269C612.43 212.939 612.571 213.594 612.899 214.133L591.095 227.458L578.053 193.362ZM613.242 210.895L586.288 185.205L602.885 174.568C603.28 175.075 603.853 175.443 604.534 175.564C604.836 175.618 605.134 175.617 605.422 175.571L614.183 210.249C613.828 210.396 613.508 210.614 613.242 210.895ZM602.468 172.023C602.42 172.157 602.381 172.297 602.355 172.441C602.245 173.047 602.354 173.641 602.617 174.149L585.918 184.852L545.568 146.394C545.649 146.292 545.723 146.18 545.788 146.065L602.468 172.023ZM502.025 153.432C502.417 153.891 502.963 154.222 503.604 154.338C503.914 154.394 504.222 154.39 504.517 154.341L506.517 161.925C505.646 162.243 504.962 163.001 504.789 163.98C504.726 164.335 504.738 164.686 504.808 165.018L471.066 175.624C471.024 175.522 470.974 175.422 470.92 175.325L502.028 153.431L502.025 153.432ZM466.74 174.705C466.516 174.914 466.326 175.162 466.182 175.445L406.564 151.745C406.593 151.651 406.616 151.555 406.633 151.457C406.888 150.027 405.96 148.663 404.553 148.357L409.959 104.215C410.514 104.231 411.043 104.077 411.489 103.791L466.739 174.707L466.74 174.705ZM407.644 102.749C407.787 103.03 407.98 103.285 408.213 103.5L373.915 148.236L307.571 142.721L407.645 102.747L407.644 102.749ZM301.19 142.834C301.275 143.379 301.529 143.878 301.901 144.27L281.044 168.276L260.664 147.125C260.969 146.77 261.19 146.334 261.277 145.839C261.301 145.705 261.311 145.574 261.314 145.442L301.187 142.832L301.19 142.834ZM257.023 143.209C256.733 143.425 256.486 143.699 256.3 144.017L214.264 124.546L230.779 99.9978L257.024 143.207L257.023 143.209ZM149.673 69.9234C150.049 69.6669 150.362 69.3134 150.569 68.895L229.685 99.3801L173.133 104.076C172.941 102.996 172.098 102.097 170.955 101.892C169.782 101.684 168.657 102.269 168.118 103.259L149.67 69.9243L149.673 69.9234ZM105.885 130.342L132.144 165.031L130.602 167.48C130.374 167.364 130.123 167.277 129.857 167.231C129.279 167.127 128.709 167.221 128.216 167.459L105.883 130.341L105.885 130.342ZM109.132 201.622C109.352 201.31 109.511 200.947 109.581 200.547C109.619 200.337 109.626 200.131 109.617 199.927L133.32 196.406L137.689 224.089C137.196 224.198 136.75 224.447 136.392 224.793L109.132 201.622ZM137.849 229.374C138.787 229.523 139.693 229.169 140.283 228.504L128.769 259.431L137.848 229.376L137.849 229.374ZM87.8281 311.216C88.7433 311.097 89.5392 310.512 89.9278 309.669L144.386 328.857L91.7794 373.492C91.4059 373.126 90.9219 372.865 90.3681 372.764C90.2605 372.745 90.1531 372.735 90.0487 372.729L87.8294 311.214L87.8281 311.216ZM92.2996 374.213C92.2406 374.096 92.1747 373.979 92.0981 373.871L144.926 329.051L176.164 340.059C176.152 340.107 176.14 340.155 176.13 340.204C176.046 340.675 176.092 341.137 176.238 341.559L92.2996 374.213ZM178.325 338.021C177.444 338.173 176.688 338.756 176.323 339.585L145.368 328.677L172.216 305.899C172.585 306.247 173.056 306.498 173.592 306.593C173.766 306.624 173.939 306.637 174.11 306.633L178.325 338.021ZM176.536 302.878C176.303 302.336 175.895 301.879 175.37 301.589L199.646 246.569L247.253 275.743C247.144 275.965 247.062 276.203 247.017 276.461C246.948 276.854 246.969 277.239 247.061 277.602L176.538 302.88L176.536 302.878ZM334.066 248.833C334.264 247.715 333.741 246.637 332.83 246.073L334.951 241.807L355.037 279.358L333.223 250.351C333.649 249.965 333.957 249.443 334.065 248.829L334.066 248.833ZM358.963 280.516C358.806 280.3 358.619 280.107 358.405 279.947L386.238 235.107L407.003 249.764C406.851 250.027 406.739 250.32 406.682 250.635C406.581 251.205 406.668 251.766 406.901 252.253L358.963 280.516ZM411.451 249.443C411.057 248.939 410.485 248.574 409.807 248.453C409.684 248.43 409.561 248.422 409.438 248.417L407.055 204.396C407.661 204.307 408.211 204.014 408.625 203.576L440.248 228.203C440.038 228.509 439.884 228.864 439.817 229.254C439.709 229.864 439.816 230.46 440.084 230.969L411.453 249.445L411.451 249.443ZM445.114 229.241C445.039 228.83 444.869 228.446 444.624 228.118L481.298 191.151L507.886 220.66C507.564 221.019 507.332 221.469 507.243 221.98C507.21 222.173 507.197 222.36 507.204 222.548L445.111 229.245L445.114 229.241ZM512.001 224.132C512.273 223.792 512.467 223.38 512.551 222.921C512.633 222.452 512.59 221.995 512.445 221.576L527.971 214.262L544.099 252.889C543.849 252.998 543.614 253.143 543.409 253.321L512.001 224.132ZM601.762 251.49C601.619 251.438 601.472 251.397 601.317 251.369C600.953 251.303 600.592 251.315 600.251 251.392L591.276 227.929L613.196 214.534C613.453 214.823 613.776 215.058 614.144 215.214L601.76 251.489L601.762 251.49Z" fill="#B4185C"/>
<mask id="path-4-inside-1_759_3745" fill="white">
<path fill-rule="evenodd" clip-rule="evenodd" d="M498.152 160.205V370.931C498.152 371.043 498.148 371.154 498.141 371.264H527.076C529.682 371.264 531.794 373.376 531.794 375.982V393.912C531.794 396.518 529.682 398.63 527.076 398.63H162.805C160.2 398.63 158.087 396.518 158.087 393.912V375.982C158.087 373.376 160.2 371.264 162.805 371.264H191.743C191.735 371.154 191.732 371.043 191.732 370.931V160.205C191.732 157.415 193.993 155.154 196.783 155.154H493.101C495.891 155.154 498.152 157.415 498.152 160.205Z"/>
</mask>
<path fill-rule="evenodd" clip-rule="evenodd" d="M498.152 160.205V370.931C498.152 371.043 498.148 371.154 498.141 371.264H527.076C529.682 371.264 531.794 373.376 531.794 375.982V393.912C531.794 396.518 529.682 398.63 527.076 398.63H162.805C160.2 398.63 158.087 396.518 158.087 393.912V375.982C158.087 373.376 160.2 371.264 162.805 371.264H191.743C191.735 371.154 191.732 371.043 191.732 370.931V160.205C191.732 157.415 193.993 155.154 196.783 155.154H493.101C495.891 155.154 498.152 157.415 498.152 160.205Z" fill="#3F97B1"/>
<path d="M498.141 371.264L497.143 371.199L497.074 372.264H498.141V371.264ZM191.743 371.264V372.264H192.81L192.741 371.199L191.743 371.264ZM499.152 370.931V160.205H497.152V370.931H499.152ZM499.139 371.329C499.148 371.197 499.152 371.064 499.152 370.931H497.152C497.152 371.021 497.149 371.11 497.143 371.199L499.139 371.329ZM527.076 370.264H498.141V372.264H527.076V370.264ZM532.794 375.982C532.794 372.824 530.234 370.264 527.076 370.264V372.264C529.13 372.264 530.794 373.928 530.794 375.982H532.794ZM532.794 393.912V375.982H530.794V393.912H532.794ZM527.076 399.63C530.234 399.63 532.794 397.07 532.794 393.912H530.794C530.794 395.966 529.13 397.63 527.076 397.63V399.63ZM162.805 399.63H527.076V397.63H162.805V399.63ZM157.087 393.912C157.087 397.07 159.647 399.63 162.805 399.63V397.63C160.752 397.63 159.087 395.966 159.087 393.912H157.087ZM157.087 375.982V393.912H159.087V375.982H157.087ZM162.805 370.264C159.647 370.264 157.087 372.824 157.087 375.982H159.087C159.087 373.928 160.752 372.264 162.805 372.264V370.264ZM191.743 370.264H162.805V372.264H191.743V370.264ZM190.732 370.931C190.732 371.064 190.736 371.197 190.745 371.329L192.741 371.199C192.735 371.11 192.732 371.021 192.732 370.931H190.732ZM190.732 160.205V370.931H192.732V160.205H190.732ZM196.783 154.154C193.441 154.154 190.732 156.863 190.732 160.205H192.732C192.732 157.968 194.545 156.154 196.783 156.154V154.154ZM493.101 154.154H196.783V156.154H493.101V154.154ZM499.152 160.205C499.152 156.863 496.443 154.154 493.101 154.154V156.154C495.338 156.154 497.152 157.968 497.152 160.205H499.152Z" fill="#2B6577" mask="url(#path-4-inside-1_759_3745)"/>
<path d="M472.035 176.221H217.847C215.058 176.221 212.796 178.482 212.796 181.271V349.867C212.796 352.656 215.058 354.918 217.847 354.918H472.035C474.825 354.918 477.086 352.656 477.086 349.867V181.271C477.086 178.482 474.825 176.221 472.035 176.221Z" fill="#F5F5F5"/>
<path d="M426.436 303.329L375.99 291.73L348.308 320.84L311.431 291.033C288.544 294.455 248.043 301.028 243.241 305.348C236.505 311.411 225.731 355.188 225.731 355.188L441.93 354.514L426.438 303.327L426.436 303.329Z" fill="#9F5656"/>
<path d="M375.99 291.727L363.19 288.785V262.548H327.025V288.785C327.025 288.785 320.653 289.655 311.431 291.033L348.308 320.84L375.99 291.73V291.727Z" fill="#FFBE97"/>
<path d="M327 266V279C340.2 287.4 350.833 273.833 354.5 266H327Z" fill="#4F2B2B"/>
<path d="M326.565 196.164C326.565 196.164 341.323 185.67 366.887 193.284C400.729 203.363 392.809 238.645 392.809 238.645L306.045 252.686C306.045 252.686 286.964 223.164 304.245 204.084C315.871 191.249 326.565 196.164 326.565 196.164Z" fill="#4F2B2B"/>
<path d="M306.045 253.775C305.678 253.775 305.332 253.591 305.13 253.278C304.935 252.977 285.799 222.832 303.437 203.356C314.049 191.635 323.947 194.071 326.434 194.946C329.286 193.151 343.712 185.25 367.196 192.243C401.612 202.493 393.95 238.523 393.87 238.885C393.772 239.32 393.419 239.651 392.982 239.722L306.218 253.762C306.158 253.771 306.1 253.775 306.042 253.775H306.045ZM321.304 196.299C317.351 196.299 311.397 197.809 305.05 204.814C289.863 221.582 304.065 247.253 306.591 251.494L391.888 237.691C392.827 232.589 396.803 203.33 366.574 194.324C341.871 186.966 327.337 196.947 327.193 197.05C326.88 197.271 326.467 197.314 326.112 197.152C325.939 197.076 324.137 196.297 321.301 196.297L321.304 196.299Z" fill="#4F2B2B"/>
<path d="M392.944 239.342C392.188 238.099 391.14 237.056 389.902 236.306C388.415 235.405 386.653 234.924 384.785 235.015C384.188 235.044 383.615 235.152 383.06 235.292C382.976 235.312 382.89 235.328 382.805 235.35C380.533 220.246 368.829 205.746 348.193 203.232C326.175 200.549 306.251 215.595 303.424 233.863C303.382 234.14 303.355 234.418 303.318 234.695C303.266 234.695 303.213 234.686 303.162 234.686C297.894 234.686 293.622 238.958 293.622 244.226C293.622 249.495 297.894 253.767 303.162 253.767C304.283 253.767 305.357 253.562 306.356 253.207C306.358 253.212 306.36 253.216 306.362 253.221C307.279 255.129 308.379 256.962 309.649 258.7C309.689 258.753 309.726 258.808 309.766 258.862C310.177 259.414 310.601 259.958 311.045 260.491C311.051 260.499 311.06 260.511 311.069 260.519C311.99 261.62 312.984 262.674 314.047 263.675C314.116 263.739 314.187 263.802 314.253 263.866C314.704 264.283 315.166 264.691 315.64 265.089C315.743 265.175 315.842 265.26 315.947 265.344C316.455 265.761 316.974 266.165 317.507 266.558C317.551 266.591 317.593 266.627 317.638 266.658C318.237 267.095 318.852 267.516 319.482 267.923C319.533 267.956 319.586 267.985 319.635 268.016C320.185 268.364 320.747 268.701 321.319 269.025C321.483 269.119 321.65 269.21 321.819 269.301C322.305 269.567 322.797 269.822 323.299 270.071C323.476 270.159 323.654 270.248 323.834 270.335C324.428 270.617 325.032 270.887 325.647 271.143C325.72 271.174 325.793 271.207 325.866 271.238C326.561 271.522 327.269 271.786 327.99 272.037C328.17 272.099 328.352 272.154 328.534 272.214C329.075 272.394 329.621 272.565 330.178 272.723C330.42 272.791 330.664 272.858 330.908 272.924C331.441 273.067 331.98 273.2 332.526 273.322C332.755 273.375 332.985 273.43 333.216 273.479C333.986 273.641 334.765 273.788 335.557 273.912C355.035 276.928 374.952 267.081 381.139 252.038C381.261 252.1 381.394 252.147 381.518 252.204C382.781 252.786 384.177 253.119 385.663 253.045C390.643 252.801 394.48 248.565 394.236 243.585C394.158 242.03 393.692 240.585 392.936 239.342H392.944Z" fill="#FFBE97"/>
<path d="M389.568 245.488L385.305 245.698C384.619 245.732 384.034 245.202 384.002 244.515C383.967 243.829 384.498 243.244 385.184 243.212L389.447 243.002C390.133 242.967 390.718 243.498 390.75 244.184C390.785 244.87 390.254 245.455 389.568 245.488Z" fill="#4F2B2B"/>
<path d="M302.568 246.488L298.305 246.698C297.619 246.732 297.034 246.202 297.002 245.515C296.967 244.829 297.498 244.244 298.184 244.212L302.447 244.002C303.133 243.967 303.718 244.498 303.75 245.184C303.785 245.87 303.254 246.455 302.568 246.488Z" fill="#4F2B2B"/>
<path d="M328.859 251.243C328.974 249.38 326.257 247.697 322.792 247.483C319.326 247.27 316.424 248.608 316.309 250.471C316.195 252.334 318.911 254.017 322.377 254.23C325.842 254.443 328.745 253.106 328.859 251.243Z" fill="#FB8876"/>
<path d="M374.046 252.44C374.16 250.577 371.444 248.894 367.978 248.68C364.513 248.467 361.61 249.805 361.496 251.668C361.381 253.531 364.098 255.214 367.563 255.427C371.029 255.64 373.931 254.303 374.046 252.44Z" fill="#FB8876"/>
<path d="M320.979 199.111C320.979 199.111 320.263 201.181 320.464 204.426C321.53 221.728 344.163 225.856 361.468 226.865L375.375 227.676L382.224 235.878C382.224 235.878 387.578 203.534 362.81 199.566C338.042 195.598 320.979 199.111 320.979 199.111Z" fill="#4F2B2B"/>
<path d="M378.479 223.145C378.403 223.145 378.33 223.138 378.252 223.121C367.54 220.888 357.654 214.031 351.809 204.782C351.487 204.273 351.638 203.601 352.146 203.279C352.65 202.96 353.324 203.108 353.648 203.619C359.185 212.38 368.548 218.873 378.698 220.99C379.284 221.112 379.664 221.689 379.539 222.277C379.433 222.79 378.98 223.143 378.476 223.143L378.479 223.145Z" fill="#4F2B2B"/>
<path d="M382.262 235.816C382.088 235.742 381.932 235.623 381.81 235.46C378.445 230.888 375.034 220.209 374.892 219.756C374.71 219.184 375.028 218.572 375.601 218.391C376.173 218.207 376.784 218.524 376.969 219.099C377.003 219.206 380.411 229.886 383.566 234.171C383.922 234.654 383.818 235.336 383.334 235.692C383.012 235.929 382.603 235.961 382.264 235.817L382.262 235.816Z" fill="#4F2B2B"/>
<path d="M323.685 208.045C323.685 208.045 324.404 217.046 302.805 235.408L302.239 222.481L318.645 205.527L323.685 208.048V208.045Z" fill="#4F2B2B"/>
<path d="M338.984 220.402C338.789 220.402 338.594 220.351 338.414 220.242C327.323 213.441 324.167 201.859 324.036 201.369C323.883 200.787 324.229 200.192 324.811 200.039C325.394 199.877 325.987 200.232 326.142 200.812C326.171 200.922 329.229 212.054 339.555 218.385C340.067 218.7 340.227 219.37 339.912 219.881C339.708 220.216 339.351 220.4 338.984 220.4V220.402Z" fill="#4F2B2B"/>
<path d="M354.838 221.121C354.702 221.121 354.565 221.097 354.432 221.044C347.699 218.336 342.229 212.635 339.801 205.796C339.599 205.23 339.894 204.606 340.462 204.404C341.019 204.202 341.649 204.5 341.851 205.066C344.075 211.326 349.081 216.543 355.244 219.024C355.801 219.248 356.074 219.883 355.848 220.44C355.677 220.866 355.268 221.123 354.838 221.123V221.121Z" fill="#4F2B2B"/>
<path d="M305.324 233.614C304.973 233.614 304.629 233.444 304.418 233.131C304.085 232.631 304.221 231.955 304.72 231.622C314.882 224.844 318.854 218.997 321.965 211.758C322.2 211.203 322.842 210.953 323.394 211.188C323.947 211.425 324.202 212.067 323.965 212.617C320.154 221.485 315.097 227.321 305.93 233.433C305.745 233.557 305.535 233.614 305.326 233.614H305.324Z" fill="#4F2B2B"/>
<path d="M327.903 246.139C327.175 246.148 326.58 245.565 326.572 244.839L326.543 242.458C326.534 241.73 327.118 241.135 327.843 241.126C328.571 241.117 329.166 241.701 329.175 242.427L329.204 244.808C329.212 245.536 328.629 246.131 327.903 246.139Z" fill="#4F2B2B"/>
<path d="M360.285 246.687C359.557 246.696 358.962 246.113 358.953 245.387L358.925 243.006C358.916 242.278 359.499 241.683 360.225 241.674C360.953 241.666 361.548 242.249 361.556 242.975L361.585 245.356C361.594 246.084 361.011 246.679 360.285 246.687Z" fill="#4F2B2B"/>
<path d="M342.796 252.095C342.572 252.095 342.35 252.029 342.159 251.889C341.673 251.536 341.562 250.855 341.915 250.369C342.887 249.029 343.222 246.903 342.791 244.817C342.301 242.431 340.932 240.465 338.941 239.278C338.424 238.971 338.255 238.301 338.562 237.786C338.87 237.267 339.54 237.101 340.053 237.407C342.574 238.909 344.305 241.384 344.922 244.375C345.481 247.08 345.015 249.799 343.679 251.645C343.466 251.938 343.133 252.095 342.796 252.095Z" fill="#4F2B2B"/>
<path d="M355.554 238.073C355.225 238.073 354.903 237.926 354.69 237.647C354.324 237.17 354.413 236.486 354.892 236.12C358.774 233.148 364.65 233.117 368.558 236.06C369.039 236.422 369.135 237.103 368.773 237.585C368.407 238.066 367.726 238.159 367.249 237.8C364.095 235.428 359.353 235.448 356.215 237.849C356.017 238 355.784 238.073 355.554 238.073Z" fill="#4F2B2B"/>
<path d="M320.995 238.073C320.666 238.073 320.345 237.926 320.132 237.647C319.766 237.17 319.854 236.486 320.334 236.12C324.213 233.144 330.089 233.122 333.999 236.06C334.481 236.422 334.576 237.103 334.214 237.582C333.853 238.064 333.167 238.157 332.69 237.798C329.536 235.423 324.792 235.445 321.656 237.847C321.459 237.997 321.226 238.071 320.995 238.071V238.073Z" fill="#4F2B2B"/>
<path d="M346.005 266.735C341.129 266.735 336.857 263.62 335.368 258.982C335.029 257.923 335.211 256.798 335.868 255.897C336.525 254.996 337.541 254.479 338.655 254.479H353.355C354.469 254.479 355.485 254.996 356.142 255.897C356.799 256.798 356.981 257.923 356.639 258.982C355.15 263.62 350.876 266.735 346.003 266.735H346.005ZM338.655 256.656C338.244 256.656 337.869 256.847 337.625 257.18C337.381 257.512 337.317 257.927 337.441 258.318C338.637 262.051 342.079 264.56 346.005 264.56C349.93 264.56 353.37 262.053 354.571 258.318C354.695 257.927 354.628 257.512 354.386 257.18C354.145 256.847 353.767 256.656 353.357 256.656H338.657H338.655Z" fill="#4F2B2B"/>
<path d="M401.963 295.742L403.75 354.516H454.726L436.227 291.607H401.293L401.963 295.742Z" fill="#9F5656"/>
<path d="M402.5 293L407.5 345" stroke="#4F2B2B" stroke-width="2" stroke-linecap="round"/>
<path d="M282 331L277.654 353.231" stroke="#4F2B2B" stroke-width="2" stroke-linecap="round"/>
<path d="M472.035 356.005H217.849C214.463 356.005 211.707 353.249 211.707 349.865V181.271C211.707 177.885 214.463 175.131 217.849 175.131H472.035C475.419 175.131 478.175 177.887 478.175 181.271V349.865C478.175 353.251 475.419 356.005 472.035 356.005ZM217.849 177.308C215.663 177.308 213.884 179.086 213.884 181.271V349.865C213.884 352.05 215.663 353.828 217.849 353.828H472.035C474.221 353.828 475.998 352.05 475.998 349.865V181.271C475.998 179.086 474.221 177.308 472.035 177.308H217.849Z" fill="#2B6577"/>
<path d="M541.61 83.0874H401.855V259.547H541.61V83.0874Z" fill="#FBE4C6"/>
<path d="M541.61 260.639H401.855C401.253 260.639 400.767 260.153 400.767 259.552V83.0874C400.767 82.486 401.253 82 401.855 82H541.61C542.211 82 542.697 82.486 542.697 83.0874V259.55C542.697 260.151 542.211 260.637 541.61 260.637V260.639ZM401.855 259.552L541.61 259.55V83.5H401.855V259.552Z" fill="black"/>
<path d="M435.979 291.401L448.663 284.471C452.602 282.318 455.662 278.856 457.322 274.687L465.467 254.19C466.698 251.093 465.22 247.58 462.144 246.293C459.77 245.298 457.023 245.902 455.283 247.799L438.475 266.11L413.481 270.572C406.326 271.85 400.876 277.7 400.106 284.928L401.293 292.28L435.979 291.399V291.401Z" fill="#FFBE97"/>
<path d="M262.185 244.353L256.493 239.08L261.764 233.386L252.088 224.423L246.816 230.117L241.121 224.844L232.158 234.522L237.852 239.795L232.58 245.487L242.257 254.45L247.53 248.758L253.222 254.031L262.185 244.353Z" fill="#F8D2A0"/>
<path d="M454.99 101.065H414.641V117.746H454.99V101.065Z" fill="white"/>
<path d="M454.99 101.065H414.641V117.746H454.99V101.065Z" fill="#F8D2A0"/>
<path d="M531.029 127.446H414.641V187.58H531.029V127.446Z" fill="#F8D2A0"/>
<path d="M531.031 188.668H414.641C414.04 188.668 413.554 188.182 413.554 187.58V127.446C413.554 126.845 414.04 126.359 414.641 126.359H531.031C531.633 126.359 532.119 126.845 532.119 127.446V187.58C532.119 188.182 531.633 188.668 531.031 188.668ZM414.641 187.58H531.031V127.446H414.641V187.58Z" fill="black"/>
<path d="M421.237 213.314C424.022 213.314 426.281 211.055 426.281 208.27C426.281 205.484 424.022 203.225 421.237 203.225C418.451 203.225 416.192 205.484 416.192 208.27C416.192 211.055 418.451 213.314 421.237 213.314Z" fill="#F8D2A0"/>
<path d="M450.722 213.314C453.508 213.314 455.766 211.055 455.766 208.27C455.766 205.484 453.508 203.225 450.722 203.225C447.937 203.225 445.678 205.484 445.678 208.27C445.678 211.055 447.937 213.314 450.722 213.314Z" fill="#F8D2A0"/>
<path d="M426.136 226.879C426.776 224.168 425.097 221.451 422.386 220.812C419.675 220.172 416.958 221.851 416.318 224.562C415.678 227.273 417.357 229.99 420.069 230.63C422.78 231.27 425.497 229.591 426.136 226.879Z" fill="#F8D2A0"/>
<path d="M455.62 226.878C456.26 224.167 454.581 221.45 451.87 220.81C449.159 220.17 446.442 221.849 445.802 224.56C445.162 227.272 446.841 229.988 449.553 230.628C452.264 231.268 454.981 229.589 455.62 226.878Z" fill="#F8D2A0"/>
<path d="M480.208 213.314C482.994 213.314 485.252 211.055 485.252 208.27C485.252 205.484 482.994 203.225 480.208 203.225C477.422 203.225 475.164 205.484 475.164 208.27C475.164 211.055 477.422 213.314 480.208 213.314Z" fill="#F8D2A0"/>
<path d="M437.518 213.451H439.196L435.477 203.117H433.657L429.947 213.451H431.602L432.548 210.717H436.575L437.518 213.451ZM433 209.406L434.52 205.01H434.607L436.123 209.406H433Z" fill="#2B6577"/>
<path d="M462.482 203.119H466.265C466.98 203.119 467.581 203.237 468.072 203.47C468.562 203.703 468.928 204.024 469.17 204.433C469.412 204.841 469.534 205.307 469.534 205.831C469.534 206.246 469.459 206.599 469.305 206.894C469.152 207.189 468.946 207.429 468.684 207.61C468.422 207.795 468.123 207.928 467.785 208.014V208.114C468.143 208.134 468.487 208.247 468.817 208.456C469.148 208.665 469.419 208.96 469.627 209.341C469.836 209.723 469.942 210.167 469.942 210.675C469.938 211.212 469.807 211.689 469.554 212.106C469.299 212.524 468.913 212.852 468.391 213.092C467.87 213.331 467.222 213.451 466.447 213.451H462.486V203.117L462.482 203.119ZM467.075 207.375C467.359 207.24 467.581 207.051 467.745 206.807C467.91 206.565 467.992 206.279 467.992 205.951C467.992 205.66 467.923 205.402 467.788 205.176C467.652 204.95 467.448 204.774 467.173 204.648C466.898 204.521 466.565 204.459 466.17 204.459H464.051V207.577H466.128C466.476 207.577 466.791 207.508 467.073 207.373L467.075 207.375ZM467.475 211.907C467.785 211.776 468.014 211.598 468.16 211.374C468.305 211.15 468.376 210.89 468.371 210.595C468.376 210.262 468.296 209.961 468.132 209.69C467.967 209.419 467.73 209.204 467.421 209.044C467.113 208.884 466.758 208.804 466.358 208.804H464.053V212.102H466.287C466.769 212.102 467.164 212.038 467.475 211.907Z" fill="#2B6577"/>
<path d="M500.22 205.367C499.965 205.054 499.652 204.814 499.277 204.652C498.904 204.49 498.496 204.41 498.052 204.41C497.453 204.41 496.918 204.561 496.45 204.863C495.982 205.165 495.613 205.609 495.345 206.19C495.076 206.772 494.941 207.471 494.941 208.285C494.941 209.1 495.076 209.801 495.345 210.38C495.613 210.959 495.982 211.399 496.448 211.7C496.914 212.002 497.446 212.155 498.046 212.16C498.487 212.155 498.896 212.073 499.271 211.913C499.643 211.754 499.959 211.521 500.214 211.214C500.469 210.908 500.64 210.542 500.731 210.118L502.309 210.125C502.2 210.799 501.951 211.401 501.563 211.927C501.175 212.453 500.678 212.861 500.072 213.154C499.466 213.447 498.789 213.593 498.041 213.593C497.142 213.593 496.341 213.38 495.64 212.952C494.939 212.524 494.388 211.909 493.991 211.108C493.594 210.307 493.394 209.366 493.394 208.285C493.394 207.204 493.594 206.263 493.993 205.462C494.393 204.661 494.943 204.047 495.647 203.618C496.348 203.19 497.147 202.977 498.041 202.977C498.774 202.977 499.441 203.115 500.047 203.392C500.651 203.667 501.15 204.071 501.545 204.601C501.94 205.132 502.195 205.762 502.309 206.49H500.731C500.644 206.057 500.476 205.684 500.22 205.369V205.367Z" fill="#2B6577"/>
<path d="M438.151 222.579C437.763 221.804 437.203 221.212 436.471 220.801C435.737 220.393 434.867 220.189 433.859 220.189H430.413V230.523H433.768C434.804 230.523 435.697 230.317 436.442 229.902C437.186 229.487 437.756 228.892 438.147 228.118C438.539 227.341 438.735 226.416 438.735 225.341C438.735 224.267 438.541 223.355 438.153 222.579H438.151ZM436.786 227.414C436.529 227.978 436.138 228.408 435.617 228.703C435.095 228.999 434.447 229.145 433.673 229.145H431.979V221.567H433.764C434.512 221.567 435.137 221.711 435.643 222.002C436.149 222.292 436.531 222.718 436.788 223.282C437.046 223.846 437.172 224.531 437.172 225.341C437.172 226.151 437.044 226.85 436.784 227.414H436.786Z" fill="#2B6577"/>
<path d="M462.943 220.189H469.43V221.538H464.512V224.678H469.086V226.021H464.512V229.174H469.479V230.523H462.941V220.189H462.943Z" fill="#2B6577"/>
<path d="M439.196 213.997H437.518C437.288 213.997 437.081 213.848 437.004 213.631L436.187 211.265H432.931L432.115 213.631C432.039 213.851 431.833 213.997 431.6 213.997H429.944C429.767 213.997 429.603 213.911 429.501 213.766C429.399 213.62 429.374 213.436 429.432 213.269L433.144 202.935C433.222 202.719 433.426 202.575 433.657 202.575H435.477C435.705 202.575 435.909 202.719 435.989 202.935L439.706 213.269C439.766 213.436 439.74 213.622 439.638 213.766C439.536 213.913 439.369 213.997 439.194 213.997H439.196ZM437.907 212.91H438.422L435.095 203.665H434.041L430.721 212.91H431.216L432.033 210.544C432.108 210.324 432.314 210.178 432.548 210.178H436.577C436.808 210.178 437.015 210.327 437.092 210.544L437.909 212.91H437.907ZM436.12 209.952H433C432.823 209.952 432.661 209.867 432.556 209.723C432.454 209.579 432.43 209.395 432.485 209.23L434.005 204.834C434.159 204.395 434.966 204.397 435.119 204.834L436.635 209.23C436.693 209.397 436.664 209.581 436.562 209.723C436.46 209.867 436.296 209.952 436.12 209.952ZM433.764 208.864H435.357L434.562 206.556L433.764 208.864Z" fill="black"/>
<path d="M466.445 213.997H462.482C462.182 213.997 461.938 213.753 461.938 213.453V203.119C461.938 202.817 462.182 202.575 462.482 202.575H466.265C467.053 202.575 467.741 202.711 468.305 202.977C468.893 203.256 469.341 203.654 469.638 204.155C469.929 204.648 470.078 205.212 470.078 205.831C470.078 206.328 469.982 206.769 469.791 207.142C469.614 207.482 469.381 207.766 469.092 207.988C469.099 207.99 469.104 207.994 469.11 207.997C469.516 208.254 469.849 208.62 470.104 209.08C470.36 209.543 470.486 210.08 470.486 210.677C470.477 211.319 470.32 211.893 470.018 212.39C469.705 212.899 469.234 213.3 468.615 213.587C468.027 213.86 467.295 213.997 466.445 213.997ZM463.028 212.91H466.445C467.135 212.91 467.714 212.805 468.16 212.599C468.586 212.402 468.891 212.149 469.09 211.825C469.292 211.492 469.394 211.114 469.399 210.671C469.399 210.267 469.317 209.905 469.15 209.605C468.984 209.304 468.78 209.08 468.527 208.918C468.305 208.778 468.085 208.696 467.854 208.667C468.165 208.86 468.416 209.111 468.595 209.41C468.813 209.763 468.922 210.167 468.915 210.604C468.922 210.992 468.822 211.356 468.618 211.669C468.416 211.984 468.101 212.233 467.686 212.406C467.306 212.566 466.847 212.646 466.287 212.646H464.053C463.753 212.646 463.509 212.402 463.509 212.102V208.804C463.509 208.503 463.753 208.261 464.053 208.261H466.356C466.707 208.261 467.035 208.312 467.335 208.416C467.275 208.329 467.242 208.225 467.242 208.112C467.242 208.037 467.257 207.954 467.286 207.877C466.933 208.039 466.545 208.121 466.13 208.121H464.053C463.753 208.121 463.509 207.877 463.509 207.577V204.459C463.509 204.157 463.753 203.916 464.053 203.916H466.172C466.645 203.916 467.057 203.995 467.404 204.155C467.783 204.331 468.067 204.581 468.256 204.901C468.44 205.209 468.535 205.564 468.535 205.953C468.535 206.39 468.42 206.78 468.196 207.116C468.132 207.209 468.063 207.295 467.985 207.377C468.125 207.32 468.256 207.249 468.371 207.167C468.56 207.033 468.706 206.863 468.822 206.645C468.93 206.43 468.988 206.155 468.988 205.833C468.988 205.405 468.895 205.038 468.702 204.712C468.515 204.397 468.231 204.151 467.836 203.962C467.421 203.765 466.893 203.665 466.265 203.665H463.025V212.91H463.028ZM464.599 211.561H466.29C466.696 211.561 467.024 211.509 467.268 211.407C467.477 211.319 467.623 211.21 467.705 211.083C467.79 210.95 467.832 210.795 467.83 210.606C467.83 210.36 467.781 210.158 467.67 209.976C467.555 209.787 467.393 209.643 467.175 209.53C466.947 209.41 466.671 209.352 466.361 209.352H464.601V211.561H464.599ZM464.599 207.036H466.132C466.398 207.036 466.631 206.987 466.844 206.885C467.04 206.789 467.186 206.665 467.297 206.503C467.399 206.352 467.45 206.17 467.45 205.951C467.45 205.76 467.41 205.598 467.324 205.458C467.246 205.327 467.122 205.225 466.947 205.143C466.749 205.052 466.487 205.005 466.172 205.005H464.596V207.036H464.599Z" fill="black"/>
<path d="M498.039 214.139C497.043 214.139 496.142 213.897 495.356 213.418C494.568 212.937 493.942 212.24 493.503 211.35C493.07 210.478 492.851 209.448 492.851 208.287C492.851 207.127 493.073 206.097 493.507 205.223C493.951 204.333 494.575 203.636 495.363 203.157C496.785 202.287 498.774 202.211 500.271 202.897C500.957 203.212 501.532 203.676 501.98 204.277C502.426 204.879 502.717 205.593 502.846 206.406C502.872 206.563 502.823 206.723 502.721 206.845C502.617 206.965 502.466 207.036 502.306 207.036H500.729C500.469 207.036 500.245 206.852 500.196 206.596C500.127 206.248 499.996 205.959 499.797 205.713C499.597 205.467 499.357 205.283 499.06 205.154C498.352 204.848 497.413 204.897 496.745 205.325C496.368 205.569 496.062 205.94 495.842 206.421C495.607 206.931 495.487 207.562 495.487 208.29C495.487 209.017 495.607 209.65 495.84 210.156C496.068 210.644 496.364 211.001 496.745 211.248C497.125 211.494 497.553 211.616 498.052 211.621C498.412 211.616 498.751 211.547 499.055 211.419C499.353 211.292 499.595 211.115 499.794 210.873C499.992 210.633 500.123 210.349 500.198 210.012C500.251 209.761 500.473 209.581 500.729 209.581L502.306 209.588C502.466 209.588 502.617 209.659 502.719 209.781C502.823 209.903 502.868 210.063 502.843 210.22C502.717 210.979 502.435 211.663 501.998 212.257C501.561 212.854 500.988 213.323 500.303 213.651C499.628 213.98 498.865 214.144 498.037 214.144L498.039 214.139ZM498.039 203.521C497.251 203.521 496.541 203.709 495.929 204.082C495.309 204.459 494.839 204.992 494.482 205.704C494.122 206.428 493.94 207.295 493.94 208.285C493.94 209.275 494.12 210.145 494.477 210.864C494.832 211.578 495.305 212.109 495.922 212.486C496.543 212.865 497.236 213.047 498.039 213.047C498.703 213.047 499.306 212.919 499.832 212.664C500.358 212.411 500.793 212.056 501.124 211.603C501.332 211.319 501.496 211.004 501.612 210.664H501.137C501.017 210.993 500.851 211.294 500.633 211.556C500.32 211.931 499.936 212.217 499.481 212.411C499.049 212.597 498.567 212.695 498.052 212.701C497.338 212.695 496.703 212.51 496.153 212.153C495.6 211.798 495.163 211.277 494.852 210.606C494.55 209.954 494.397 209.173 494.397 208.281C494.397 207.389 494.551 206.614 494.85 205.957C495.161 205.285 495.598 204.761 496.155 204.399C497.125 203.78 498.454 203.696 499.493 204.146C499.95 204.346 500.334 204.639 500.642 205.019C500.862 205.289 501.03 205.596 501.146 205.937H501.623C501.501 205.558 501.33 205.218 501.106 204.919C500.766 204.462 500.342 204.12 499.817 203.88C499.282 203.634 498.698 203.516 498.037 203.516L498.039 203.521Z" fill="black"/>
<path d="M433.766 231.067H430.41C430.111 231.067 429.867 230.823 429.867 230.523V220.189C429.867 219.887 430.111 219.645 430.41 219.645H433.859C434.958 219.645 435.925 219.873 436.737 220.328C437.565 220.792 438.204 221.467 438.637 222.339C439.063 223.184 439.276 224.194 439.276 225.344C439.276 226.493 439.056 227.518 438.628 228.366C438.189 229.236 437.541 229.915 436.704 230.381C435.876 230.838 434.889 231.071 433.764 231.071L433.766 231.067ZM430.956 229.979H433.766C434.702 229.979 435.515 229.793 436.176 229.427C436.826 229.065 437.314 228.555 437.66 227.874C438.011 227.179 438.191 226.329 438.191 225.344C438.191 224.358 438.013 223.52 437.665 222.827C437.325 222.146 436.848 221.64 436.207 221.28C435.561 220.919 434.769 220.737 433.859 220.737H430.954V229.982L430.956 229.979ZM433.675 229.691H431.982C431.682 229.691 431.438 229.447 431.438 229.147V221.567C431.438 221.265 431.682 221.023 431.982 221.023H433.766C434.605 221.023 435.33 221.194 435.916 221.531C436.522 221.877 436.984 222.392 437.288 223.058C437.574 223.69 437.72 224.458 437.72 225.344C437.72 226.229 437.574 227.012 437.283 227.645C436.975 228.313 436.504 228.83 435.885 229.181C435.284 229.52 434.54 229.693 433.675 229.693V229.691ZM432.528 228.604H433.675C434.352 228.604 434.913 228.477 435.35 228.231C435.774 227.991 436.083 227.652 436.293 227.19C436.52 226.7 436.633 226.078 436.633 225.344C436.633 224.609 436.52 223.999 436.298 223.511C436.087 223.049 435.785 222.712 435.377 222.477C434.955 222.235 434.414 222.113 433.766 222.113H432.528V228.604Z" fill="black"/>
<path d="M469.481 231.067H462.943C462.644 231.067 462.4 230.823 462.4 230.523V220.189C462.4 219.887 462.644 219.645 462.943 219.645H469.43C469.729 219.645 469.973 219.889 469.973 220.189V221.538C469.973 221.84 469.729 222.082 469.43 222.082H465.056V224.134H469.086C469.385 224.134 469.63 224.378 469.63 224.678V226.018C469.63 226.32 469.385 226.562 469.086 226.562H465.056V228.628H469.481C469.78 228.628 470.025 228.872 470.025 229.172V230.521C470.025 230.823 469.78 231.065 469.481 231.065V231.067ZM463.487 229.979H468.935V229.72H464.51C464.21 229.72 463.966 229.476 463.966 229.176V226.021C463.966 225.719 464.21 225.477 464.51 225.477H468.54V225.224H464.51C464.21 225.224 463.966 224.98 463.966 224.68V221.54C463.966 221.238 464.21 220.996 464.51 220.996H468.884V220.737H463.487V229.984V229.979Z" fill="black"/>
<path d="M480.208 209.359H480.184C479.838 209.35 479.516 209.179 479.318 208.895L473.886 201.135C473.54 200.642 473.66 199.963 474.152 199.619C474.645 199.275 475.324 199.393 475.668 199.888L480.253 206.437L488.659 195.578C489.029 195.103 489.713 195.019 490.186 195.383C490.663 195.751 490.749 196.435 490.381 196.91L481.069 208.938C480.863 209.204 480.543 209.359 480.208 209.359Z" fill="#9F5656"/>
<path d="M434.17 139.784H422.661C422.06 139.784 421.574 139.298 421.574 138.697C421.574 138.096 422.06 137.61 422.661 137.61H434.17C434.771 137.61 435.257 138.096 435.257 138.697C435.257 139.298 434.771 139.784 434.17 139.784Z" fill="black"/>
<path d="M482.794 139.784H447.747C447.145 139.784 446.659 139.298 446.659 138.697C446.659 138.096 447.145 137.61 447.747 137.61H482.794C483.395 137.61 483.881 138.096 483.881 138.697C483.881 139.298 483.395 139.784 482.794 139.784Z" fill="black"/>
<path d="M504.907 139.784H496.372C495.771 139.784 495.285 139.298 495.285 138.697C495.285 138.096 495.771 137.61 496.372 137.61H504.907C505.509 137.61 505.995 138.096 505.995 138.697C505.995 139.298 505.509 139.784 504.907 139.784Z" fill="black"/>
<path d="M454.861 150.907H422.661C422.06 150.907 421.574 150.421 421.574 149.819C421.574 149.218 422.06 148.732 422.661 148.732H454.861C455.462 148.732 455.948 149.218 455.948 149.819C455.948 150.421 455.462 150.907 454.861 150.907Z" fill="black"/>
<path d="M494.173 150.907H468.438C467.837 150.907 467.351 150.421 467.351 149.819C467.351 149.218 467.837 148.732 468.438 148.732H494.173C494.775 148.732 495.261 149.218 495.261 149.819C495.261 150.421 494.775 150.907 494.173 150.907Z" fill="black"/>
<path d="M520.943 150.907H507.752C507.151 150.907 506.665 150.421 506.665 149.819C506.665 149.218 507.151 148.732 507.752 148.732H520.943C521.544 148.732 522.03 149.218 522.03 149.819C522.03 150.421 521.544 150.907 520.943 150.907Z" fill="black"/>
<path d="M429.514 161.51H422.661C422.06 161.51 421.574 161.024 421.574 160.422C421.574 159.821 422.06 159.335 422.661 159.335H429.514C430.115 159.335 430.601 159.821 430.601 160.422C430.601 161.024 430.115 161.51 429.514 161.51Z" fill="black"/>
<path d="M466.241 161.51H443.093C442.492 161.51 442.006 161.024 442.006 160.422C442.006 159.821 442.492 159.335 443.093 159.335H466.241C466.842 159.335 467.328 159.821 467.328 160.422C467.328 161.024 466.842 161.51 466.241 161.51Z" fill="black"/>
<path d="M504.907 161.51H479.82C479.218 161.51 478.732 161.024 478.732 160.422C478.732 159.821 479.218 159.335 479.82 159.335H504.907C505.509 159.335 505.995 159.821 505.995 160.422C505.995 161.024 505.509 161.51 504.907 161.51Z" fill="black"/>
<path d="M454.861 172.632H422.661C422.06 172.632 421.574 172.146 421.574 171.545C421.574 170.944 422.06 170.458 422.661 170.458H454.861C455.462 170.458 455.948 170.944 455.948 171.545C455.948 172.146 455.462 172.632 454.861 172.632Z" fill="black"/>
<path d="M494.173 172.632H468.438C467.837 172.632 467.351 172.146 467.351 171.545C467.351 170.944 467.837 170.458 468.438 170.458H494.173C494.775 170.458 495.261 170.944 495.261 171.545C495.261 172.146 494.775 172.632 494.173 172.632Z" fill="black"/>
</g>
</svg>
