<svg width="100" height="100" viewBox="0 0 100 100" fill="none" xmlns="http://www.w3.org/2000/svg">
<path d="M24.1931 69.3545L12.9028 98.3868H6.45117L17.7415 69.3545H24.1931Z" fill="#DF8711"/>
<path d="M35.4829 69.3545H29.0312V98.3868H35.4829V69.3545Z" fill="#DF8711"/>
<path d="M46.7739 69.3545L58.0642 98.3868H51.6126L40.3223 69.3545H46.7739Z" fill="#DF8711"/>
<path d="M46.7735 62.9023V69.354H40.3219H35.4831H29.0315H24.1928H17.7412V62.9023H46.7735Z" fill="#DF8711"/>
<path d="M62.9026 56.4512V62.9028H46.7736H17.7413H1.6123V56.4512H4.83811H59.6768H62.9026Z" fill="#9F5656"/>
<path d="M40.322 1.6123L46.7736 8.06392H62.9026V14.5155H59.6768H27.4188H4.83811H1.6123V8.06392H17.7413L24.1929 1.6123H40.322Z" fill="#9F5656"/>
<path d="M50.9669 20.3221C51.5798 19.7253 52.4024 19.3543 53.3218 19.3543C54.2895 19.3543 55.1927 19.7737 55.8379 20.4834L59.6766 24.8705V14.5156H4.83789V56.4511H59.6766V36.2898L58.7734 35.1608L50.725 25.1124C50.2572 24.5156 49.9992 23.7737 49.9992 23.0318V22.6769C49.9992 21.7576 50.3701 20.935 50.9669 20.3221Z" fill="#D8F5FD"/>
<path d="M45.1602 33.8701C49.6118 33.8701 53.2247 37.483 53.2247 41.9346C53.2247 46.3862 49.6118 49.9991 45.1602 49.9991V33.8701Z" fill="#8FC6D7"/>
<path d="M45.1602 41.9346V49.9991C40.7086 49.9991 37.0957 46.3862 37.0957 41.9346H45.1602Z" fill="#307286"/>
<path d="M45.1602 33.8701V41.9346H37.0957C37.0957 37.483 40.7086 33.8701 45.1602 33.8701Z" fill="#BF8888"/>
<path d="M82.2575 56.4512H72.5801V98.3867H82.2575H91.9349V61.2899V56.4512H82.2575Z" fill="#F2AE54"/>
<path d="M83.7896 33.6125C85.9992 32.8545 87.096 30.6448 87.096 30.6448L94.225 31.6609C96.6121 31.9996 98.3863 34.048 98.3863 36.4513V46.7738H91.9347V56.4512H72.5799V40.3222H64.4509C63.467 40.3222 62.5476 39.8706 61.9347 39.1125L59.6767 36.2899L58.7734 35.1609L64.4992 30.3867L66.1283 32.2577L77.4186 30.6448C77.4186 30.6448 78.5154 32.8545 80.7251 33.6125H83.7896Z" fill="#D8F5FD"/>
<path d="M83.8709 33.8704L85.4838 46.7736L82.258 49.9994L79.0322 46.7736L80.6451 33.8704L80.7258 33.6123C81.1774 33.7736 81.6935 33.8704 82.258 33.8704C82.8225 33.8704 83.3387 33.7736 83.7903 33.6123L83.8709 33.8704Z" fill="#BF8888"/>
<path d="M98.3862 46.7734V61.2896C98.3862 63.0638 96.9346 64.5154 95.1604 64.5154C94.2733 64.5154 93.4668 64.1605 92.8862 63.5638C92.2894 62.9831 91.9346 62.1767 91.9346 61.2896V46.7734H98.3862Z" fill="#F8D2A0"/>
<path d="M87.0954 25.8057V30.6444C87.0954 30.6444 85.9986 32.854 83.7889 33.6121C83.3373 33.7734 82.8212 33.8702 82.2567 33.8702C81.6922 33.8702 81.176 33.7734 80.7244 33.6121C78.5147 32.854 77.418 30.6444 77.418 30.6444V25.8057C78.7567 26.8218 80.4341 27.4186 82.2567 27.4186C84.0793 27.4186 85.7567 26.8218 87.0954 25.8057Z" fill="#F8D2A0"/>
<path d="M90.3214 16.128V19.3538C90.3214 21.9828 89.0472 24.3377 87.0956 25.8054C85.7569 26.8215 84.0795 27.4183 82.2569 27.4183C80.4343 27.4183 78.7569 26.8215 77.4182 25.8054C75.4666 24.3377 74.1924 21.9828 74.1924 19.3538V16.128C74.1924 13.9022 75.0956 11.8861 76.5472 10.4183C78.015 8.96671 80.0311 8.06348 82.2569 8.06348C86.7085 8.06348 90.3214 11.6764 90.3214 16.128Z" fill="#F8D2A0"/>
<path d="M64.5 30.3867L58.7742 35.1609L50.7258 25.1126C50.2581 24.5158 50 23.7738 50 23.0319V22.6771C50 21.7577 50.371 20.9351 50.9677 20.3222C51.5806 19.7255 52.4032 19.3545 53.3226 19.3545C54.2903 19.3545 55.1936 19.7738 55.8387 20.4835L59.6774 24.8706L64.5 30.3867Z" fill="#F8D2A0"/>
<path d="M64.5161 16.129H0V6.45161H17.0806L23.5323 0H41L47.4516 6.45161H64.5323V16.129H64.5161ZM3.22581 12.9032H61.2903V9.67742H46.1129L39.6613 3.22581H24.871L18.4194 9.67742H3.24193V12.9032H3.22581Z" fill="black"/>
<path d="M40.3224 6.45117H24.1934V9.67698H40.3224V6.45117Z" fill="black"/>
<path d="M64.5161 64.5163H0V54.8389H64.5161V64.5163ZM3.22581 61.2905H61.2903V58.0647H3.22581V61.2905Z" fill="black"/>
<path d="M6.45139 14.5156H3.22559V56.4511H6.45139V14.5156Z" fill="black"/>
<path d="M61.2903 14.5156H58.0645V24.193H61.2903V14.5156Z" fill="black"/>
<path d="M61.2903 36.291H58.0645V56.4523H61.2903V36.291Z" fill="black"/>
<path d="M48.387 70.9678H16.1289V62.9033H19.3547V67.742H45.1612V62.9033H48.387V70.9678Z" fill="black"/>
<path d="M16.2364 68.7801L4.94824 97.8076L7.95472 98.9768L19.2429 69.9492L16.2364 68.7801Z" fill="black"/>
<path d="M22.6876 68.7664L11.3994 97.7939L14.4059 98.9631L25.6941 69.9356L22.6876 68.7664Z" fill="black"/>
<path d="M48.2799 68.7693L45.2734 69.9385L56.5616 98.966L59.5681 97.7969L48.2799 68.7693Z" fill="black"/>
<path d="M41.8151 68.7683L38.8086 69.9375L50.0968 98.965L53.1033 97.7959L41.8151 68.7683Z" fill="black"/>
<path d="M30.6448 69.3545H27.4189V98.3868H30.6448V69.3545Z" fill="black"/>
<path d="M37.0969 69.3545H33.8711V98.3868H37.0969V69.3545Z" fill="black"/>
<path d="M32.2574 37.0967H9.67676V40.3225H32.2574V37.0967Z" fill="black"/>
<path d="M29.0324 19.3555H25.8066V38.7103H29.0324V19.3555Z" fill="black"/>
<path d="M22.5813 24.1934H19.3555V38.7095H22.5813V24.1934Z" fill="black"/>
<path d="M16.1291 29.0322H12.9033V38.7096H16.1291V29.0322Z" fill="black"/>
<path d="M12.9026 43.5479H9.67676V46.7737H12.9026V43.5479Z" fill="black"/>
<path d="M32.2579 43.5479H16.1289V46.7737H32.2579V43.5479Z" fill="black"/>
<path d="M82.2575 29.0328C76.9188 29.0328 72.5801 24.6941 72.5801 19.3554V16.1296C72.5801 10.7909 76.9188 6.45215 82.2575 6.45215C87.5962 6.45215 91.9349 10.7909 91.9349 16.1296V19.3554C91.9349 24.6941 87.5962 29.0328 82.2575 29.0328ZM82.2575 9.67795C78.693 9.67795 75.8059 12.5651 75.8059 16.1296V19.3554C75.8059 22.9199 78.693 25.807 82.2575 25.807C85.822 25.807 88.7091 22.9199 88.7091 19.3554V16.1296C88.7091 12.5651 85.822 9.67795 82.2575 9.67795Z" fill="black"/>
<path d="M95.1608 66.1302C92.4995 66.1302 90.3221 63.9528 90.3221 61.2915V48.3883H93.5479V61.2915C93.5479 62.1786 94.2737 62.9044 95.1608 62.9044C96.0479 62.9044 96.7737 62.1786 96.7737 61.2915V36.4528C96.7737 34.856 95.5802 33.485 93.9995 33.2592L85.4834 32.0495V25.8076H88.7092V29.2431L94.4673 30.0657C97.6286 30.5173 99.9995 33.2592 99.9995 36.4528V61.2915C99.9995 63.9528 97.8221 66.1302 95.1608 66.1302Z" fill="black"/>
<path d="M93.5481 38.71H90.3223V98.3874H93.5481V38.71Z" fill="black"/>
<path d="M74.1932 98.3868H70.9674V41.9352H64.4512C62.9674 41.9352 61.5964 41.2739 60.677 40.1126L49.4674 26.1127C48.7738 25.2417 48.3867 24.1449 48.3867 23.032V22.6933C48.3867 19.9675 50.5964 17.7578 53.3222 17.7578C54.7416 17.7578 56.0964 18.3707 57.048 19.4514L66.7738 30.5643L75.8061 29.2739V25.8385H79.0319V32.0804L65.4835 34.0159L54.6125 21.5965C54.2899 21.2256 53.8222 21.0159 53.3222 21.0159C52.3706 21.0159 51.6125 21.7901 51.6125 22.7256V23.0643C51.6125 23.4514 51.7416 23.8385 51.9835 24.1288L63.1932 38.1288C63.4996 38.5159 63.9674 38.7417 64.4512 38.7417H74.1932V98.4191V98.3868Z" fill="black"/>
<path d="M83.8703 56.4521H80.6445V98.3876H83.8703V56.4521Z" fill="black"/>
<path d="M82.2576 35.4839C78.0802 35.4839 76.064 31.5323 75.9834 31.371L78.8705 29.9355C78.8705 29.9355 80.0963 32.2743 82.2737 32.2743C84.4511 32.2743 85.6608 29.9517 85.6769 29.9355L88.564 31.3872C88.4834 31.5485 86.4511 35.5001 82.2898 35.5001L82.2576 35.4839Z" fill="black"/>
<path d="M82.2573 52.2745L77.3379 47.3551L79.0476 33.6777L82.2411 34.0648L80.725 46.1939L82.2573 47.7261L83.7895 46.1939L82.2734 34.0648L85.4669 33.6777L87.1766 47.3551L82.2573 52.2745Z" fill="black"/>
<path d="M91.9349 54.8398H72.5801V58.0657H91.9349V54.8398Z" fill="black"/>
<path d="M45.1608 51.6126C39.8221 51.6126 35.4834 47.2739 35.4834 41.9352C35.4834 36.5965 39.8221 32.2578 45.1608 32.2578C50.4995 32.2578 54.8382 36.5965 54.8382 41.9352C54.8382 47.2739 50.4995 51.6126 45.1608 51.6126ZM45.1608 35.4836C41.5963 35.4836 38.7092 38.3707 38.7092 41.9352C38.7092 45.4997 41.5963 48.3868 45.1608 48.3868C48.7253 48.3868 51.6124 45.4997 51.6124 41.9352C51.6124 38.3707 48.7253 35.4836 45.1608 35.4836Z" fill="black"/>
<path d="M46.7737 33.8711H43.5479V50.0001H46.7737V33.8711Z" fill="black"/>
<path d="M45.1612 40.3223H37.0967V43.5481H45.1612V40.3223Z" fill="black"/>
<path d="M100 96.7744H0V100H100V96.7744Z" fill="black"/>
</svg>
