<svg width="470" height="250" viewBox="0 0 470 250" fill="none" xmlns="http://www.w3.org/2000/svg">
<mask id="mask0_926_10006" style="mask-type:alpha" maskUnits="userSpaceOnUse" x="0" y="0" width="470" height="250">
<path d="M0 20C0 8.9543 8.9543 0 20 0H450C461.046 0 470 8.9543 470 20V250H0V20Z" fill="#F7FDFE"/>
</mask>
<g mask="url(#mask0_926_10006)">
<mask id="mask1_926_10006" style="mask-type:luminance" maskUnits="userSpaceOnUse" x="81" y="78" width="74" height="78">
<path d="M153.022 106.231C159.375 126.635 148.919 148.033 129.657 154.031C110.399 160.029 89.6375 148.35 83.2885 127.945C76.9396 107.54 87.3962 86.1422 106.654 80.1445C125.912 74.1468 146.669 85.8269 153.027 106.23L153.022 106.231Z" fill="white"/>
</mask>
<g mask="url(#mask1_926_10006)">
<path d="M160.778 86.1189L74.1025 101.525L82.0198 146.067L168.695 130.66L160.778 86.1189Z" fill="#F8D2A0"/>
<path d="M168.696 130.662L82.0205 146.068L88.9437 185.017L175.619 169.611L168.696 130.662Z" fill="#F8D2A0"/>
<path d="M156.594 55.1521L69.9189 70.5586L75.6957 103.058L162.371 87.6517L156.594 55.1521Z" fill="#F8D2A0"/>
<path d="M95 119L105.5 108.5L116 98" stroke="#BF8888" stroke-width="2" stroke-linecap="round"/>
<path d="M121 137L141 117" stroke="#BF8888" stroke-width="2" stroke-linecap="round"/>
<path d="M103 133L135 101" stroke="#BF8888" stroke-width="2" stroke-linecap="round"/>
</g>
<path d="M125.98 158.491C116.871 160.11 107.502 158.586 99.1282 154.049C89.3158 148.737 82.0476 139.913 78.6656 129.201C71.6583 107.019 83.6718 83.5284 105.443 76.8455C127.25 70.1651 150.637 82.7689 157.645 104.955C164.653 127.141 152.639 150.628 130.868 157.311C129.252 157.806 127.623 158.199 125.98 158.491ZM111.486 82.5288C110.166 82.7633 108.848 83.0798 107.541 83.4812C89.552 89.0064 79.6832 108.566 85.5334 127.092C88.3786 136.1 94.4684 143.513 102.68 147.965C110.824 152.378 120.104 153.351 128.765 150.676C146.755 145.155 156.628 125.59 150.773 107.065C145.345 89.8904 128.276 79.5486 111.482 82.5337L111.486 82.5288Z" fill="#2B6577"/>
<path d="M157.986 219.944C158.625 222.002 156.206 224.582 152.588 225.711C148.966 226.84 145.512 226.089 144.868 224.027L124.18 157.579C123.541 155.521 125.948 152.943 129.57 151.814C133.192 150.684 136.646 151.436 137.29 153.497L157.982 219.945L157.986 219.944Z" fill="#2B6577"/>
<path d="M284.43 138.788C270.433 144.513 258.765 158.364 232.172 190.909C232.172 190.909 198.921 183.244 171.216 174.221C151.863 164.709 147.78 162.639 139.389 160.156C140.627 164.019 141.768 168.563 142.767 171.696C142.767 171.696 120.85 170.733 113.591 177.104C108.36 181.692 116.182 187.535 116.182 187.535C116.182 187.535 109.641 195.455 120.795 200.247C120.795 200.247 114.829 208.087 126.116 211.966C122.324 213.82 122.366 222.984 133.464 221.847C143.335 220.834 156.411 220.122 155.95 212.554C159.803 211.869 165.26 208.797 168.131 206.562C168.131 206.562 224.154 231.929 236.28 233.895C243.443 235.058 270.748 201.125 284.771 183.77C298.798 166.414 322.36 125.427 284.43 138.792L284.43 138.788Z" fill="#FFBE97"/>
<path d="M133.671 172.505C133.671 172.505 138.508 172.066 141.1 172.068C149.346 172.077 150.162 181.645 143.012 183.653C151.467 183.181 154.549 193.084 147.255 195.113C153.971 194.803 157.098 201.668 151.499 206.573C153.596 206.789 155.935 209.169 155.912 211.527" stroke="#4F2B2B" stroke-width="1.29378" stroke-linecap="round" stroke-linejoin="round"/>
<path d="M118.564 187.695L140.443 184.101" stroke="#4F2B2B" stroke-width="1.29378" stroke-linecap="round" stroke-linejoin="round"/>
<path d="M123.078 199.841L144.738 195.852" stroke="#4F2B2B" stroke-width="1.29378" stroke-linecap="round" stroke-linejoin="round"/>
<path d="M128.061 211.324L148.673 207.218" stroke="#4F2B2B" stroke-width="1.29378" stroke-linecap="round" stroke-linejoin="round"/>
<path d="M254.532 88.322C254.532 88.322 249.009 87.7918 247.68 82.259C245.495 73.1594 257.188 57.4525 273.268 56.0861C294.612 54.2761 298.515 68.9561 298.515 68.9561C298.515 68.9561 303.148 68.1325 309.251 73.3799C315.354 78.6272 314.752 84.975 320.781 87.866C326.811 90.7619 342.095 96.3104 342.796 107.044C343.5 117.772 335.776 132.093 314.605 138.413C294.643 144.372 272.648 147.596 258.749 136.281C244.85 124.966 251.903 114.067 257.688 108.904C263.473 103.74 254.913 101.015 252.042 96.4818L254.532 88.322Z" fill="#4F2B2B"/>
<path d="M251.798 86.161C248.771 89.7207 250.817 126.891 280.075 117.614L283.233 136.004L311.487 130.982L306.785 101.899C306.785 101.899 310.455 101.555 313.123 99.1966C316.395 96.3093 315.542 87.5784 309.052 87.3459C302.561 87.1135 301.226 92.1977 301.226 92.1977C301.226 92.1977 282.596 87.5052 283.155 76.8744C283.155 76.8744 272.989 89.4574 255.773 88.7851L251.798 86.161Z" fill="#FFBE97"/>
<path d="M276.221 97.785C275.626 97.7889 275.14 97.3109 275.135 96.7156L275.12 94.7652C275.116 94.17 275.594 93.684 276.19 93.6787C276.785 93.6748 277.271 94.1528 277.276 94.7481L277.29 96.6985C277.294 97.2938 276.816 97.7797 276.221 97.785Z" fill="#4F2B2B"/>
<path d="M260.066 99.8055C259.471 99.8094 258.985 99.3314 258.979 98.7361L258.965 96.7857C258.961 96.1905 259.439 95.7045 260.034 95.6992C260.629 95.6953 261.115 96.1733 261.121 96.7686L261.135 98.719C261.139 99.3143 260.661 99.8002 260.066 99.8055Z" fill="#4F2B2B"/>
<path d="M270.417 107.009C270.418 107.009 270.418 107.009 270.418 107.009L270.279 106.906C270.886 106.089 271.281 104.815 271.337 103.496C271.399 102.036 271.046 100.771 270.343 99.935L270.417 107.009ZM270.417 107.009C270.3 107.169 270.117 107.27 269.926 107.226L269.757 107.188L269.766 107.149C269.729 107.12 269.696 107.084 269.667 107.043L269.667 107.043C269.582 106.917 269.554 106.759 269.565 106.612C269.576 106.464 269.627 106.31 269.721 106.185M270.417 107.009C271.051 106.157 271.453 104.846 271.51 103.503L271.51 103.503C271.573 102.015 271.214 100.704 270.475 99.8245C270.371 99.6994 270.222 99.6477 270.072 99.6794C269.93 99.7094 269.809 99.8089 269.725 99.9409L269.871 100.033L269.725 99.9406C269.641 100.073 269.599 100.23 269.597 100.378C269.596 100.523 269.634 100.679 269.732 100.796L269.732 100.796C270.267 101.433 270.549 102.418 270.499 103.587L270.499 103.587C270.456 104.611 270.151 105.606 269.721 106.185M269.721 106.185C269.721 106.185 269.721 106.185 269.721 106.185L269.859 106.288L269.721 106.185C269.721 106.185 269.721 106.185 269.721 106.185Z" fill="#4F2B2B" stroke="#4F2B2B" stroke-width="0.345009"/>
<path d="M282.573 105.918C281.574 109.293 278.249 115.321 272.938 112.427" stroke="#4F2B2B" stroke-width="1.29378" stroke-linecap="round"/>
<path d="M265.358 92.9501C262.683 90.6622 259.66 88.2951 256.78 93.613" stroke="#4F2B2B" stroke-width="1.29378" stroke-linecap="round"/>
<path d="M282.045 92.3827C279.369 90.0948 276.347 87.7277 273.466 93.0456" stroke="#4F2B2B" stroke-width="1.29378" stroke-linecap="round"/>
<path d="M277.121 101.793C276.91 102.469 277.774 102.972 279.042 102.912C280.315 102.85 281.517 102.253 281.724 101.573C281.937 100.895 281.08 100.396 279.809 100.453C278.535 100.514 277.336 101.113 277.123 101.791L277.121 101.793Z" fill="#F88969"/>
<path d="M258.521 105.097C258.31 105.774 259.174 106.277 260.442 106.217C261.715 106.154 262.917 105.558 263.125 104.878C263.338 104.2 262.48 103.7 261.209 103.758C259.936 103.819 258.737 104.418 258.524 105.096L258.521 105.097Z" fill="#F88969"/>
<path d="M280.155 117.503C280.155 117.503 285.144 116.485 291.919 112.439C291.919 112.439 288.081 121.391 281.602 125.643L280.155 117.503Z" fill="#4F2B2B"/>
<path d="M306.572 51.3469C307.605 57.1556 303.735 62.7041 297.922 63.7374C292.108 64.7708 286.564 60.8956 285.531 55.0869C284.499 49.2783 288.368 43.7298 294.182 42.6964C299.995 41.663 305.54 45.5382 306.572 51.3469Z" fill="#4F2B2B"/>
<path d="M267.191 197.487C267.191 197.487 247.121 218.717 228.964 240.782C220.064 251.601 213.05 263.059 214.012 273.833C215.27 287.96 219.294 294.015 238.634 306.766C238.634 306.766 230.728 363.734 226.578 386.326C222.424 408.922 214.927 461.548 214.927 461.548C214.927 461.548 253.539 446.514 286.625 462.492C286.625 462.492 295.555 372.375 299.33 336.894L401.688 386.109L430.334 327.002L319.811 278.207C319.811 278.207 323.189 273.19 334.834 248.456C347.291 221.999 342.099 190.791 342.099 190.791L267.194 197.483L267.191 197.487Z" fill="#F29EC3"/>
<path d="M285.3 226.5C247.131 268.463 245.592 271.385 239.603 303.947" stroke="#4F2B2B" stroke-width="1.29378" stroke-miterlimit="10" stroke-linecap="round"/>
<path d="M305.403 130.931C305.403 130.931 282.442 135.065 274.448 148.058C265.197 163.096 274.586 167.461 272.783 175.951C270.981 184.442 259.094 206.571 259.094 206.571C259.094 206.571 275.611 205.859 295.002 204.9C329.435 203.196 343.52 201.282 343.52 201.282C343.52 201.282 347.673 157.569 345.753 145.544C343.837 133.523 341.479 121.502 305.403 130.931Z" fill="#B4185C"/>
<path d="M264.717 220.295L328.808 287.442L376.023 254.968L311.734 180.635L264.717 220.295Z" fill="#DF8711"/>
<path d="M315.843 184.707L305.71 174.637L295.442 183.028L265.601 209.857C263.044 212.154 262.04 217.308 264.72 220.286C267.386 223.267 272.735 222.927 275.288 220.631L303.387 195.365L315.843 184.703L315.843 184.707Z" fill="#FBE4C6"/>
<path d="M270.603 220.753L311.702 183.424" stroke="#4F2B2B" stroke-width="0.862523" stroke-miterlimit="10" stroke-linecap="round"/>
<path d="M267.565 218.106L308.66 180.777" stroke="#4F2B2B" stroke-width="0.862523" stroke-miterlimit="10" stroke-linecap="round"/>
<path d="M264.918 214.842L306.018 177.512" stroke="#4F2B2B" stroke-width="0.862523" stroke-miterlimit="10" stroke-linecap="round"/>
<path d="M357.812 191.098C357.812 191.098 323.248 155.146 318.513 140.093C315.846 131.621 326.727 121.707 346.355 132.791C365.988 143.873 396.901 185.329 398.561 192.983C400.216 200.638 387.888 224.02 355.375 244.813C355.375 244.813 356.178 257.622 355.723 268.3C355.003 285.15 348.576 286.054 343.349 283.156C340.52 290.429 330.767 291.868 330.61 286.01C326.906 291.675 317.287 292.205 317.079 286.062C314.65 290.615 301.361 292.761 302.1 284.602C302.694 278.021 305.269 269.319 305.269 269.319C305.269 269.319 299.26 268.623 298.59 259.909C298.127 253.836 301.493 246.442 316.12 232.655C322.272 226.858 357.803 191.099 357.803 191.099L357.812 191.098Z" fill="#FFBE97"/>
<path d="M310.102 248.445L304.937 269.084" stroke="#4F2B2B" stroke-width="1.29378" stroke-linecap="round" stroke-linejoin="round"/>
</g>
</svg>
