<svg width="700" height="400" viewBox="0 0 700 400" fill="none" xmlns="http://www.w3.org/2000/svg">
<mask id="mask0_580_16898" style="mask-type:alpha" maskUnits="userSpaceOnUse" x="0" y="0" width="700" height="400">
<rect width="700" height="400" transform="matrix(-1 0 0 1 700 0)" fill="white"/>
</mask>
<g mask="url(#mask0_580_16898)">
<path d="M71.9275 247.55C73.0612 247.825 74.1992 247.335 74.8058 246.412L129.796 275.782C129.74 275.913 129.693 276.05 129.657 276.192C129.309 277.638 130.197 279.092 131.642 279.442C133.087 279.792 134.542 278.902 134.892 277.457C134.948 277.226 134.97 276.996 134.965 276.768L169.374 272.835C169.581 273.822 170.331 274.65 171.375 274.901C172.82 275.251 174.274 274.361 174.625 272.916C174.778 272.277 174.69 271.636 174.42 271.089L206.807 251.135C207.17 251.617 207.695 251.981 208.327 252.136C209.013 252.3 209.698 252.185 210.269 251.868L261.086 326.025C260.654 326.381 260.329 326.876 260.186 327.462C259.836 328.907 260.726 330.362 262.171 330.712C263.616 331.062 265.071 330.172 265.421 328.727C265.522 328.306 265.516 327.886 265.425 327.491L368.625 293.414C368.445 294.763 369.31 296.058 370.662 296.385C372.107 296.736 373.562 295.845 373.912 294.4C373.944 294.268 373.962 294.138 373.973 294.006L413.932 293.836C414.04 294.946 414.832 295.917 415.977 296.193C416.553 296.333 417.13 296.272 417.639 296.061L441.19 340.78L440.509 340.795L441.419 341.211L441.562 341.481L441.677 341.328L519.593 376.954C519.564 377.038 519.538 377.123 519.516 377.211C519.166 378.656 520.056 380.11 521.501 380.461C522.946 380.811 524.401 379.921 524.751 378.476C525.102 377.031 524.211 375.576 522.766 375.226C522.229 375.095 521.689 375.139 521.206 375.317L504.652 340.55C504.676 340.481 504.698 340.411 504.715 340.339C504.803 339.979 504.811 339.617 504.755 339.271L568 322.838C568.299 323.66 568.987 324.32 569.9 324.541C571.345 324.892 572.8 324.001 573.15 322.556C573.5 321.111 572.61 319.657 571.165 319.306C570.595 319.168 570.02 319.226 569.515 319.435L548.567 279.254C549.127 278.893 549.557 278.326 549.726 277.625C549.953 276.686 549.655 275.746 549.026 275.105L569.829 250.436C570.096 250.623 570.4 250.766 570.735 250.846C572.18 251.196 573.635 250.306 573.985 248.861C574.335 247.416 573.445 245.961 572 245.611C571.122 245.4 570.243 245.646 569.608 246.193L543.814 221.401C544.052 221.104 544.231 220.753 544.327 220.356C544.641 219.058 543.956 217.756 542.767 217.248L555.476 182.906C556.912 183.235 558.348 182.35 558.695 180.914C559.045 179.469 558.155 178.014 556.71 177.664C556.458 177.603 556.207 177.582 555.959 177.593L551.474 150.509C552.4 150.266 553.167 149.534 553.407 148.537C553.47 148.278 553.491 148.019 553.477 147.766L594.78 141.779C595.01 142.729 595.748 143.522 596.764 143.766C598.209 144.116 599.663 143.226 600.014 141.781C600.364 140.336 599.474 138.881 598.029 138.531C597.922 138.505 597.818 138.489 597.712 138.476L599.256 76.939C600.399 76.8624 601.41 76.0559 601.692 74.8852C602.043 73.4401 601.152 71.9853 599.707 71.635C598.262 71.2847 596.808 72.1749 596.457 73.62C596.357 74.0321 596.362 74.4453 596.448 74.8335L510.646 102.314C510.305 101.623 509.672 101.083 508.865 100.888C507.42 100.538 505.965 101.428 505.615 102.873C505.265 104.318 506.155 105.773 507.6 106.123C507.743 106.157 507.888 106.176 508.031 106.188L510.323 137.794C509.264 137.945 508.35 138.722 508.084 139.826C507.997 140.184 507.988 140.544 508.043 140.886L436.093 161.815C435.783 161.028 435.106 160.399 434.222 160.184C432.777 159.833 431.322 160.724 430.972 162.169C430.622 163.614 431.512 165.068 432.957 165.419C433.289 165.499 433.621 165.511 433.938 165.469L441.608 199.268C440.751 199.548 440.052 200.251 439.825 201.194L439.866 200.95L352.932 186.521C353.026 185.23 352.18 184.024 350.882 183.71C350.213 183.548 349.543 183.656 348.98 183.957L328.671 153.212C329.12 152.853 329.46 152.35 329.603 151.747C329.951 150.3 329.063 148.847 327.618 148.497C326.173 148.146 324.718 149.037 324.368 150.482C324.232 151.045 324.285 151.61 324.487 152.11L274.913 177.393C274.552 176.822 273.981 176.385 273.272 176.214C271.827 175.864 270.372 176.754 270.022 178.199C269.876 178.801 269.947 179.403 270.184 179.927L240.478 196.62C240.116 196.093 239.567 195.694 238.897 195.531C237.452 195.181 235.998 196.071 235.647 197.516C235.61 197.669 235.591 197.823 235.58 197.973L173.176 200.866C173.009 199.826 172.236 198.939 171.149 198.676C170.331 198.479 169.509 198.678 168.886 199.152L139.32 168.101C139.613 167.778 139.832 167.379 139.943 166.926C140.293 165.481 139.403 164.026 137.958 163.676C136.512 163.328 135.058 164.216 134.708 165.661C134.706 165.672 134.705 165.683 134.701 165.692L101.747 164.479L84.3276 163.838C84.1703 162.784 83.3966 161.878 82.2965 161.612C80.8515 161.262 79.3966 162.152 79.0464 163.597C78.7752 164.721 79.2521 165.847 80.1561 166.459L65.5561 201.972C65.5205 201.962 65.4842 201.949 65.4451 201.939C64 201.589 62.5452 202.479 62.195 203.924C61.8447 205.369 62.7349 206.824 64.1799 207.174C64.5228 207.257 64.866 207.269 65.1947 207.22L71.8182 242.345C70.9179 242.603 70.1773 243.323 69.9425 244.3C69.5923 245.745 70.4824 247.2 71.9275 247.55ZM82.578 166.762C83.4 166.463 84.0605 165.776 84.2814 164.862C84.3234 164.685 84.346 164.51 84.3548 164.337L104.106 165.063L134.635 166.186C134.624 166.448 134.653 166.706 134.716 166.953L90.0709 190.62L82.5801 166.763L82.578 166.762ZM274.576 180.701L294.43 196.618L273.643 225.945C273.425 225.819 273.186 225.719 272.928 225.657C272.807 225.627 272.685 225.611 272.563 225.598L272.872 181.514C273.524 181.458 274.129 181.166 274.576 180.701ZM325.642 153.443C325.86 153.569 326.099 153.669 326.357 153.731C326.507 153.767 326.654 153.788 326.802 153.797L328.373 221.087C327.753 221.159 327.178 221.446 326.75 221.889L295.105 196.521L325.64 153.442L325.642 153.443ZM543.767 281.225L526.16 254.748L545.106 275.195C544.818 275.515 544.604 275.912 544.493 276.362C544.248 277.374 544.613 278.388 545.346 279.026L543.767 281.225ZM567.917 321.293C567.831 321.654 567.821 322.015 567.877 322.36L504.631 338.79C504.475 338.359 504.21 337.973 503.863 337.672L543.751 282.102L568.844 319.835C568.398 320.194 568.062 320.696 567.916 321.295L567.917 321.293ZM264.378 325.905C264.129 325.728 263.847 325.592 263.539 325.503L271.63 281.773C272.938 281.894 274.173 281.041 274.491 279.725L301.131 283.587L264.378 325.905ZM66.9916 206.145C67.0244 206.098 67.0587 206.049 67.0874 206L99.3811 227.377C99.2752 227.576 99.1911 227.787 99.1348 228.015C98.9888 228.613 99.0605 229.213 99.2921 229.736L92.4442 233.557L66.9916 206.145ZM156.267 253.64L166.888 258.456C166.859 258.536 166.835 258.618 166.814 258.704C166.685 259.239 166.726 259.775 166.9 260.254L159.056 263.945L105.128 230.451L156.267 253.64ZM167.092 258.004L129.951 241.162L104.296 229.528C104.325 229.448 104.349 229.366 104.37 229.28C104.486 228.802 104.464 228.326 104.333 227.885L151.679 209.017L168.316 256.885C167.807 257.117 167.375 257.504 167.092 258L167.092 258.004ZM99.5345 230.17C99.8976 230.7 100.447 231.103 101.12 231.265C101.771 231.423 102.423 231.328 102.977 231.044L130.624 274.678L92.7921 233.931L99.536 230.168L99.5345 230.17ZM132.909 274.208C132.259 274.05 131.606 274.146 131.053 274.429L103.396 230.78C103.582 230.634 103.753 230.465 103.898 230.275L158.518 264.199L134.594 275.461C134.235 274.855 133.646 274.387 132.908 274.21L132.909 274.208ZM134.808 275.908L159.022 264.51L169.601 271.08C169.513 271.258 169.44 271.449 169.391 271.649C169.335 271.88 169.314 272.111 169.318 272.338L134.91 276.271C134.884 276.147 134.852 276.024 134.808 275.905L134.808 275.908ZM171.242 269.704C170.696 269.868 170.21 270.198 169.864 270.657L159.56 264.258L167.111 260.703C167.47 261.309 168.059 261.776 168.797 261.953C169.103 262.027 169.411 262.043 169.709 262.012L171.242 269.704ZM171.597 257.738L197.09 235.003L207.098 247.576C206.74 247.92 206.47 248.365 206.342 248.886C206.258 249.236 206.248 249.588 206.299 249.923L171.972 258.45C171.883 258.196 171.757 257.956 171.597 257.738ZM237.004 200.524C237.199 200.627 237.41 200.711 237.636 200.766C238.077 200.872 238.517 200.864 238.927 200.76L252.997 234.485L211.424 248.429C211.225 247.98 210.908 247.591 210.501 247.306L237.005 200.522L237.004 200.524ZM444.267 203.809L464.653 223.95C464.382 224.264 464.176 224.645 464.074 225.077C464.024 225.288 464.001 225.497 464.001 225.706L453.84 227.783L443.877 204.107C444.017 204.02 444.147 203.92 444.27 203.809L444.267 203.809ZM548.116 147.651C548.034 148.51 548.371 149.338 548.983 149.897L538.222 164.209L512.942 141.946C513.111 141.692 513.242 141.404 513.319 141.091L548.115 147.653L548.116 147.651ZM512.632 142.333L537.924 164.607L504.442 209.131C504.206 208.987 503.945 208.874 503.662 208.806C503.631 208.799 503.598 208.794 503.566 208.787L510.705 143.148C511.44 143.146 512.131 142.844 512.63 142.335L512.632 142.333ZM272.509 276.474C272.388 276.443 272.269 276.427 272.147 276.414L272.524 230.955C273.287 230.891 273.988 230.502 274.447 229.894L303.045 247.595L273.596 277.023C273.289 276.768 272.923 276.576 272.509 276.474ZM274.707 229.47C274.796 229.292 274.866 229.105 274.916 228.903C274.967 228.696 274.988 228.489 274.989 228.283L326.001 223.82C326.007 224.067 326.046 224.307 326.117 224.535L303.407 247.229L274.709 229.468L274.707 229.47ZM326.323 225.035C326.489 225.339 326.71 225.612 326.979 225.834L322.996 253.978L322.611 256.703C321.728 256.659 320.895 257.052 320.361 257.728L303.838 247.503L326.32 225.039L326.323 225.035ZM323.111 256.774C323.111 256.774 323.109 256.773 323.107 256.771L323.49 254.057L327.442 226.137C327.632 226.237 327.839 226.318 328.06 226.372C328.423 226.46 328.787 226.469 329.132 226.413L341.452 246.226L324.537 257.654C324.18 257.232 323.692 256.911 323.112 256.772L323.111 256.774ZM273.948 277.375L303.48 247.863L320.093 258.145C319.993 258.336 319.913 258.541 319.861 258.759C319.752 259.214 319.764 259.669 319.878 260.091L274.284 277.887C274.193 277.705 274.079 277.534 273.948 277.375ZM369.255 292.016L324.836 260.686C324.948 260.482 325.037 260.259 325.096 260.024C325.262 259.331 325.144 258.638 324.818 258.063L341.713 246.651L369.675 291.619C369.521 291.735 369.382 291.869 369.257 292.017L369.255 292.016ZM342.124 246.371L361.781 233.09C362.13 233.471 362.591 233.754 363.131 233.884C363.342 233.934 363.553 233.957 363.76 233.957L367.991 268.675L370.729 291.133C370.507 291.181 370.295 291.254 370.097 291.355L342.124 246.371ZM500.421 337.599L483.469 319.605L472.992 308.482C473.273 308.162 473.483 307.776 473.591 307.332C473.801 306.463 473.561 305.593 473.024 304.96L482.349 295.439L500.755 337.369C500.637 337.438 500.526 337.515 500.419 337.598L500.421 337.599ZM433.244 234.535L466.351 261.919C466.174 262.181 466.033 262.477 465.957 262.803C465.822 263.364 465.874 263.925 466.073 264.426L452.785 272.179L432.824 234.878C432.976 234.778 433.118 234.662 433.247 234.534L433.244 234.535ZM466.296 264.87C466.658 265.442 467.23 265.882 467.942 266.053C468.121 266.096 468.298 266.12 468.476 266.126L470.578 304.036C470.354 304.07 470.137 304.134 469.931 304.22L453.019 272.616L466.298 264.868L466.296 264.87ZM472.67 304.612C472.368 304.367 472.01 304.18 471.606 304.082C471.429 304.04 471.249 304.014 471.075 304.008L470.329 290.467L468.988 266.097C469.138 266.074 469.283 266.036 469.424 265.989L482.136 294.95L472.671 304.615L472.67 304.612ZM469.878 265.788C470.514 265.435 471.007 264.83 471.192 264.068C471.266 263.758 471.281 263.451 471.25 263.153L521.663 253.075C521.771 253.432 521.95 253.761 522.191 254.045L482.511 294.562L469.879 265.786L469.878 265.788ZM521.623 251.675C521.549 251.984 521.534 252.292 521.565 252.59L471.152 262.668C470.998 262.148 470.686 261.683 470.261 261.34L487.358 235.533L521.703 251.409C521.672 251.497 521.647 251.585 521.625 251.677L521.623 251.675ZM469.847 261.065C469.648 260.959 469.434 260.874 469.207 260.818C469.138 260.8 469.068 260.79 469 260.779L466.954 228.384C467.812 228.298 468.585 227.805 469.021 227.057L486.901 235.322L469.847 261.065ZM466.06 228.325C466.193 228.357 466.326 228.375 466.457 228.387L468.5 260.748C468.246 260.755 468 260.798 467.763 260.872L454.035 228.25L464.044 226.203C464.233 227.212 464.994 228.07 466.057 228.326L466.06 228.325ZM467.307 261.065C467.114 261.167 466.933 261.292 466.769 261.438L433.566 234.144C433.742 233.885 433.877 233.591 433.956 233.267C434.031 232.955 434.046 232.644 434.012 232.341L453.538 228.348L467.305 261.064L467.307 261.065ZM366.38 231.901C366.389 231.862 366.395 231.823 366.402 231.783L403.249 232.407L428.65 232.839C428.694 233.409 428.92 233.944 429.282 234.373L395.664 268.602L365.557 233.276C365.951 232.924 366.247 232.454 366.38 231.901ZM430.95 235.301C431.45 235.376 431.941 235.303 432.381 235.117L452.351 272.434L418.805 292.007C418.488 291.563 418.035 291.213 417.488 291.024L430.95 235.301ZM419.057 292.436L452.587 272.872L469.491 304.458C469.006 304.777 468.624 305.25 468.426 305.831L419.281 293.958C419.36 293.425 419.275 292.897 419.057 292.436ZM470.341 309.32C471.172 309.52 472.005 309.311 472.631 308.824L480.269 316.933L500.061 337.945C499.99 338.029 499.922 338.117 499.86 338.21L460.376 316.903L468.284 306.572C468.222 307.839 469.062 309.01 470.341 309.32ZM502.463 337.032C502.028 336.973 501.601 337.023 501.208 337.161L482.724 295.055L522.544 254.395C522.778 254.586 523.044 254.739 523.339 254.846L502.463 337.032ZM521.911 250.96L487.632 235.115L501.757 213.794C501.956 213.899 502.169 213.985 502.397 214.041C502.968 214.18 503.539 214.122 504.042 213.915L522.785 250.046C522.431 250.274 522.129 250.585 521.911 250.96ZM501.343 213.519L487.177 234.902L469.23 226.606C469.261 226.518 469.287 226.43 469.308 226.339C469.423 225.867 469.402 225.394 469.275 224.956L500.626 212.631C500.797 212.972 501.041 213.274 501.342 213.515L501.343 213.519ZM443.429 204.33L453.342 227.883L433.912 231.855C433.695 231.142 433.19 230.537 432.497 230.206L441.975 204.474C442.479 204.564 442.98 204.508 443.427 204.332L443.429 204.33ZM441.494 204.341L432.03 230.037C432.009 230.031 431.99 230.024 431.969 230.019C430.524 229.668 429.069 230.559 428.719 232.004C428.692 232.115 428.673 232.229 428.661 232.342L371.842 231.377L366.452 231.287C366.453 231.103 366.435 230.92 366.401 230.744L440.084 203.114C440.386 203.666 440.875 204.111 441.495 204.345L441.494 204.341ZM361.479 232.694L341.86 245.947L329.628 226.278C330.398 225.988 331.019 225.352 331.267 224.513L361.071 231.152C361.048 231.706 361.197 232.238 361.478 232.69L361.479 232.694ZM271.663 230.889C271.784 230.919 271.903 230.936 272.025 230.948L271.648 276.408C271.451 276.425 271.258 276.462 271.074 276.522L253.662 234.784L269.836 229.358C270.165 230.098 270.818 230.682 271.666 230.888L271.663 230.889ZM211.578 250.145C211.682 249.72 211.673 249.295 211.579 248.896L253.186 234.939L270.613 276.712C270.178 276.942 269.808 277.289 269.552 277.723L211.492 250.428C211.526 250.336 211.556 250.242 211.578 250.145ZM274.562 279.228C274.576 278.926 274.542 278.628 274.46 278.347L320.045 260.554C320.167 260.809 320.331 261.043 320.528 261.251L301.518 283.139L274.56 279.23L274.562 279.228ZM320.905 261.575C321.179 261.773 321.494 261.921 321.843 262.008C322.882 262.258 323.922 261.87 324.557 261.097L368.967 292.422C368.883 292.569 368.81 292.724 368.754 292.891L302.106 283.226L320.908 261.58L320.905 261.575ZM371.932 291.144C371.693 291.086 371.456 291.066 371.223 291.073L364.255 233.912C364.577 233.852 364.883 233.735 365.157 233.569L395.316 268.956L373 291.677C372.698 291.429 372.338 291.244 371.932 291.144ZM395.988 268.98L429.636 234.721C429.877 234.918 430.154 235.078 430.465 235.183L417.003 290.906C416.301 290.803 415.616 290.984 415.066 291.371L395.986 268.982L395.988 268.98ZM419.163 294.439L467.924 306.219L459.93 316.661L419.09 294.622C419.116 294.562 419.14 294.502 419.163 294.439ZM499.624 338.646C499.566 338.782 499.517 338.92 499.481 339.068C499.444 339.215 499.426 339.363 499.414 339.51L442.115 340.755L460.068 317.3L499.622 338.645L499.624 338.646ZM503.461 337.375C503.333 337.302 503.197 337.236 503.055 337.183L502.979 337.02L523.821 254.965C524.421 255.06 525.011 254.946 525.517 254.674L543.459 281.652L503.464 337.375L503.461 337.375ZM569.452 250.112L548.65 274.781C548.383 274.594 548.079 274.451 547.744 274.371C547.529 274.318 547.315 274.299 547.103 274.299L544.85 250.771L568.718 248.702C568.815 249.237 569.072 249.727 569.45 250.11L569.452 250.112ZM546.608 274.347C546.192 274.425 545.801 274.601 545.471 274.856L526.245 254.107C526.533 253.787 526.747 253.39 526.858 252.94C526.909 252.733 526.93 252.526 526.932 252.324L544.356 250.814L546.608 274.347ZM526.889 251.83C526.758 251.107 526.336 250.466 525.719 250.061L540.563 222.157C540.724 222.233 540.9 222.295 541.081 222.34C541.267 222.386 541.455 222.408 541.64 222.413L544.312 250.322L526.891 251.831L526.889 251.83ZM540.134 221.902L527.292 246.046L539.023 219.597C538.98 220.511 539.41 221.376 540.134 221.902ZM525.102 249.759C525.028 249.734 524.952 249.712 524.876 249.692C524.305 249.553 523.733 249.611 523.231 249.817L504.487 213.687C505.05 213.325 505.481 212.757 505.651 212.056C505.801 211.438 505.722 210.819 505.47 210.285L553.951 181.926C554.189 182.235 554.499 182.495 554.858 182.68L525.102 249.762L525.102 249.759ZM505.218 209.856C505.107 209.703 504.984 209.558 504.841 209.428L538.298 164.936L553.913 178.686C553.707 178.967 553.552 179.288 553.465 179.65C553.307 180.301 553.404 180.951 553.685 181.503L505.22 209.854L505.218 209.856ZM554.244 178.317L538.6 164.54L549.386 150.197C549.622 150.341 549.883 150.454 550.166 150.522C550.444 150.589 550.721 150.61 550.992 150.591L555.473 177.663C555.012 177.771 554.589 177.997 554.246 178.318L554.244 178.317ZM551.429 145.286C550.02 144.945 548.606 145.782 548.212 147.163L513.559 140.627L594.163 141.365L553.416 147.272C553.186 146.322 552.449 145.529 551.433 145.285L551.429 145.286ZM594.788 140.516C594.759 140.635 594.741 140.756 594.73 140.876L513.379 140.131C513.329 139.729 513.19 139.347 512.976 139.011L541.39 117.744L594.843 140.336C594.825 140.397 594.806 140.456 594.79 140.517L594.788 140.516ZM510.073 143.075C510.119 143.087 510.167 143.093 510.213 143.1L503.074 208.731C502.259 208.716 501.493 209.078 500.979 209.683L482.08 196.45L509.7 142.954C509.821 143.002 509.942 143.045 510.073 143.075ZM500.694 210.09C500.571 210.304 500.474 210.537 500.414 210.793C500.299 211.264 500.32 211.737 500.447 212.175L469.097 224.5C468.882 224.074 468.553 223.707 468.145 223.445L481.85 196.899L500.694 210.093L500.694 210.09ZM467.699 223.215C467.578 223.167 467.454 223.123 467.324 223.092C466.748 222.953 466.171 223.013 465.664 223.222L435.058 165.057C435.276 164.915 435.472 164.743 435.644 164.542L481.436 196.606L467.697 223.214L467.699 223.215ZM434.619 165.29L465.223 223.454C465.151 223.5 465.079 223.55 465.012 223.607L444.6 203.442C444.814 203.158 444.974 202.826 445.063 202.461C445.411 201.014 444.523 199.561 443.078 199.211C442.746 199.13 442.414 199.119 442.096 199.161L434.428 165.363C434.494 165.342 434.558 165.317 434.621 165.291L434.619 165.29ZM439.887 202.658L366.26 230.269C365.947 229.489 365.273 228.865 364.393 228.653C363.998 228.558 363.602 228.557 363.226 228.634L351.259 188.824C352.02 188.516 352.628 187.865 352.851 187.013L439.78 201.441C439.718 201.863 439.759 202.277 439.886 202.66L439.887 202.658ZM349.62 188.945C350.015 189.039 350.412 189.041 350.786 188.966L362.49 227.9L346.576 193.21L349.13 188.778C349.284 188.849 349.449 188.907 349.621 188.948L349.62 188.945ZM362.418 228.939C361.801 229.295 361.324 229.89 361.143 230.638C361.141 230.645 361.141 230.654 361.137 230.664L331.363 224.03C331.463 223.05 331.018 222.113 330.238 221.562L346.269 193.736L362.416 228.937L362.418 228.939ZM329.809 221.312C329.655 221.241 329.49 221.183 329.318 221.142C329.17 221.107 329.021 221.085 328.873 221.076L327.301 153.786C327.501 153.761 327.695 153.718 327.883 153.653L346.016 193.182L329.809 221.312ZM326.441 222.277C326.274 222.53 326.145 222.813 326.068 223.127C326.053 223.192 326.043 223.258 326.031 223.323L274.944 227.793C274.833 227.185 274.514 226.634 274.049 226.232L294.82 196.928L326.441 222.277ZM270.12 226.686C269.917 226.963 269.764 227.286 269.678 227.642C269.575 228.067 269.584 228.492 269.677 228.892L253.471 234.328L239.395 200.593C239.633 200.483 239.852 200.339 240.049 200.167L270.121 226.689L270.12 226.686ZM236.586 200.249L210.065 247.062C209.916 246.994 209.758 246.938 209.594 246.899C208.841 246.717 208.088 246.873 207.488 247.266L197.462 234.671L236.325 200.012C236.408 200.097 236.495 200.176 236.588 200.251L236.586 200.249ZM196.779 234.611L171.265 257.366C170.936 257.06 170.53 256.83 170.062 256.718C169.95 256.691 169.84 256.675 169.729 256.661L170.526 214.575L170.725 203.975C171.197 203.938 171.645 203.775 172.026 203.517L196.777 234.61L196.779 234.611ZM169.884 203.911C169.998 203.939 170.113 203.956 170.23 203.968L169.233 256.65C169.079 256.661 168.932 256.685 168.785 256.722L152.141 208.833L168.098 202.475C168.438 203.172 169.073 203.717 169.884 203.911ZM151.516 208.547L104.148 227.425C103.947 227.032 103.651 226.692 103.281 226.436L135.862 168.55C136.11 168.712 136.387 168.836 136.691 168.909C137.049 168.996 137.409 169.006 137.751 168.951L151.512 208.548L151.516 208.547ZM134.886 167.427C135.028 167.73 135.225 168.008 135.47 168.239L102.851 226.192C102.703 226.125 102.547 226.071 102.386 226.033C101.977 225.935 101.573 225.937 101.187 226.019L90.224 191.103L134.888 167.428L134.886 167.427ZM100.712 226.166C100.299 226.338 99.9366 226.61 99.6541 226.961L67.3141 205.554C67.361 205.435 67.4023 205.316 67.4335 205.189C67.5935 204.527 67.4928 203.865 67.1979 203.306L89.7745 191.338L100.712 226.166ZM66.6576 206.518L91.9936 233.806L74.7779 243.41C74.4149 242.879 73.8655 242.476 73.1927 242.315C72.8943 242.242 72.5968 242.225 72.3072 242.253L65.6794 207.105C66.0429 206.98 66.3757 206.782 66.6576 206.518ZM75.0393 245.975C75.0947 245.844 75.1419 245.707 75.1776 245.565C75.3237 244.966 75.2519 244.367 75.0204 243.843L92.3416 234.18L130.268 275.029C130.182 275.127 130.1 275.234 130.029 275.345L75.0393 245.975ZM174.16 270.664C173.796 270.181 173.272 269.817 172.639 269.663C172.333 269.588 172.025 269.573 171.727 269.604L170.194 261.912C171.083 261.648 171.812 260.932 172.045 259.967C172.13 259.616 172.139 259.265 172.089 258.929L206.415 250.402C206.452 250.507 206.495 250.61 206.543 250.71L174.156 270.664L174.16 270.664ZM210.677 251.584C210.914 251.389 211.119 251.153 211.279 250.88L269.339 278.175C269.305 278.267 269.276 278.361 269.253 278.458C268.912 279.869 269.754 281.288 271.14 281.679L263.05 325.409C262.496 325.359 261.959 325.48 261.496 325.739L210.679 251.582L210.677 251.584ZM265.271 327.013C265.145 326.725 264.968 326.458 264.749 326.229L301.713 283.67L367.597 293.226L265.269 327.015L265.271 327.013ZM373.974 293.502C373.921 292.953 373.699 292.439 373.351 292.026L395.635 269.337L414.686 291.693C414.359 292.029 414.112 292.451 413.995 292.939C413.963 293.071 413.945 293.201 413.934 293.334L373.976 293.504L373.974 293.502ZM418.081 295.824C418.383 295.626 418.646 295.367 418.851 295.062L459.621 317.063L441.638 340.557L418.079 295.826L418.081 295.824ZM520.756 375.527C520.365 375.76 520.031 376.093 519.799 376.498L442.692 341.24L499.425 340.006C499.551 341.096 500.338 342.044 501.466 342.318C502.623 342.598 503.782 342.083 504.381 341.127L520.76 375.526L520.756 375.527ZM568.151 317.894L544.059 281.666L545.747 279.316C545.968 279.446 546.213 279.548 546.476 279.61C547.046 279.749 547.621 279.69 548.128 279.483L568.153 317.895L568.151 317.894ZM569.261 246.549C569.023 246.846 568.842 247.199 568.748 247.594C568.697 247.801 568.678 248.006 568.675 248.21L544.8 250.278L542.13 222.38C542.628 222.301 543.089 222.081 543.468 221.757L569.261 246.549ZM542.292 217.095C541.365 216.889 540.44 217.188 539.81 217.815L553.191 187.648L542.294 217.093L542.292 217.095ZM597.217 138.46C596.296 138.522 595.466 139.058 595.026 139.876L541.841 117.399L597.075 76.0582C597.425 76.4462 597.892 76.7368 598.439 76.8707C598.545 76.8966 598.652 76.9135 598.755 76.9255L597.215 138.462L597.217 138.46ZM596.599 75.3066C596.651 75.4278 596.71 75.5478 596.78 75.6604L541.314 117.172L510.807 104.278C510.822 104.231 510.836 104.183 510.849 104.135C510.962 103.67 510.944 103.206 510.824 102.775L596.599 75.3066ZM508.525 106.179C509.413 106.082 510.204 105.546 510.619 104.741L540.85 117.518L512.661 138.615C512.314 138.245 511.86 137.966 511.33 137.838C511.159 137.797 510.987 137.773 510.816 137.766L508.525 106.179ZM508.165 141.366C508.365 141.922 508.744 142.403 509.25 142.724L481.661 196.159L435.923 164.134C436.046 163.919 436.143 163.686 436.203 163.431C436.295 163.043 436.299 162.657 436.228 162.29L508.163 141.365L508.165 141.366ZM347.63 185.694C347.364 186.797 347.82 187.906 348.695 188.524L346.317 192.653L328.561 153.946L348.564 184.23C348.115 184.589 347.775 185.092 347.631 185.697L347.63 185.694ZM324.713 152.55C324.856 152.775 325.032 152.979 325.235 153.152L294.716 196.209L274.885 180.311C275.053 180.059 275.183 179.773 275.258 179.462C275.395 178.899 275.342 178.334 275.139 177.834L324.713 152.55ZM270.426 180.36C270.789 180.887 271.338 181.287 272.007 181.449C272.128 181.479 272.251 181.495 272.372 181.508L272.064 225.592C271.454 225.644 270.887 225.903 270.447 226.314L240.386 199.803C240.615 199.511 240.789 199.166 240.88 198.78C241.026 198.178 240.955 197.576 240.718 197.052L270.424 180.359L270.426 180.36ZM235.592 198.47C235.642 198.884 235.788 199.278 236.013 199.621L197.15 234.28L172.413 203.203C172.757 202.864 173.016 202.429 173.136 201.924C173.181 201.734 173.205 201.548 173.209 201.359L235.595 198.466L235.592 198.47ZM168.519 199.486C168.226 199.809 168.007 200.208 167.896 200.661C167.785 201.124 167.8 201.583 167.919 202.01L151.976 208.363L138.236 168.823C138.492 168.729 138.735 168.599 138.951 168.434L168.519 199.486ZM80.5947 166.699C80.734 166.76 80.8784 166.81 81.0313 166.847C81.3913 166.935 81.7518 166.945 82.0972 166.889L89.6234 190.856L66.9261 202.888C66.6869 202.584 66.3796 202.33 66.0216 202.152L80.5967 166.701L80.5947 166.699Z" fill="#EF9C2E"/>
<path fill-rule="evenodd" clip-rule="evenodd" d="M337.472 37C343.12 37 347.698 41.5787 347.698 47.2268V84.2853L399 147.717L347.698 131.768V180.505C347.698 186.153 343.12 190.732 337.472 190.732H75.2264C69.5784 190.732 64.9997 186.153 64.9997 180.505V47.2268C64.9997 41.5787 69.5783 37 75.2264 37H337.472Z" fill="#D8F5FD"/>
<path d="M210.4 112.22L222.022 114.145C230.191 115.499 237.711 119.447 243.463 125.402L278.23 161.395L269.993 187.256L263.675 187.374C258.305 187.472 253.104 185.506 249.145 181.875L232.75 167.262L233.948 192.19H146.32L149.643 175.09L146.32 169.671C138.711 167.918 140.279 162.149 141.442 154.431L151.602 135.265C153.289 124.068 151.35 101.466 162.516 103.347L178.562 106.05L210.394 112.22H210.4Z" fill="#6A3939"/>
<path d="M269.364 187.218L278.139 161.166L255.413 137.573C255.06 136.341 253.847 133.093 251.815 129.953C249.783 126.812 245.343 125.393 243.377 125.076C238.018 119.512 233.069 117.388 231.264 117.021L232.187 141.267C232.187 144.269 232.665 160.202 232.665 167.05L247.889 181.446C251.848 185.087 258.222 187.779 263.591 187.68L269.364 187.218Z" fill="#FFBE97"/>
<path d="M192.872 119.564C176.968 115.507 178.565 106.047 178.565 106.047L183.237 106.833L205.535 111.273L210.397 112.217C209.259 117.604 201.368 121.732 192.872 119.564Z" fill="#FFBE97"/>
<path d="M196.236 137.504C197.381 143.131 202.081 147.689 204.619 149.592L201.858 155.74C200.182 155.484 197.412 152.903 196.236 151.122V169.807H202.936V176.574H181.922V169.807H188.111V137.504H196.236Z" fill="white"/>
<path d="M186.249 91.3555L183.241 106.839L205.604 111.426L205.746 104.401L186.249 91.3555Z" fill="#FFBE97"/>
<path d="M292.262 113.848L280.041 175.642C278.236 184.766 268.943 190.333 260.047 187.619C251.002 184.859 246.429 174.793 250.298 166.165L269.365 117.946L292.262 113.848Z" fill="#FFBE97"/>
<path d="M269.829 116.331L268.043 107.325C267.884 105.725 269.487 101.866 270.522 100.629L272.299 97.4604C273.602 95.4323 276.127 94.4897 278.523 95.1355L290.739 98.43C293.791 99.2522 295.588 102.339 294.726 105.276L290.165 120.823L268.906 119.332L269.829 116.331Z" fill="#FFBE97"/>
<path d="M271.525 113.118C271.367 113.081 269.709 110.281 268.597 108.379C267.947 107.267 267.683 105.971 267.848 104.692L268.69 98.1487C268.861 96.826 271.687 93.9934 273.01 93.8236C274.495 93.6332 274.688 96.0897 275.038 97.5462L275.482 102.124L271.525 113.118Z" fill="#FFBE97"/>
<path d="M268.465 106.578L276.341 92.6331C276.99 91.2833 278.513 90.5998 279.94 91.0184C281.55 91.4914 282.47 93.1896 281.994 94.8118L277.776 109.187L268.465 106.578Z" fill="#FFBE97"/>
<path d="M273.534 107.918L281.083 92.2132C281.732 90.8634 283.254 90.1799 284.681 90.5985C286.292 91.0715 287.211 92.7697 286.735 94.3919L282.518 108.767L273.534 107.918Z" fill="#FFBE97"/>
<path d="M278.648 109.42L286.197 93.7152C286.846 92.3653 288.369 91.6818 289.795 92.1005C291.406 92.5734 292.326 94.2717 291.849 95.8938L287.632 110.269L278.648 109.42Z" fill="#FFBE97"/>
<path d="M283.425 112.631L290.974 96.9261C291.623 95.5763 293.146 94.8927 294.573 95.3114C296.183 95.7844 297.103 97.4826 296.626 99.1048L292.409 113.48L283.425 112.631Z" fill="#FFBE97"/>
<path d="M276.21 101.165C276.336 101.202 276.469 101.161 276.523 101.061L281.297 92.1567C281.355 92.0459 281.292 91.9054 281.155 91.8428C281.02 91.781 280.858 91.8193 280.798 91.9305L276.024 100.835C275.966 100.946 276.029 101.087 276.166 101.149C276.181 101.156 276.195 101.161 276.21 101.165Z" fill="#4F2B2B"/>
<path d="M281.371 103.276C281.498 103.314 281.632 103.268 281.686 103.164L286.837 93.0945C286.896 92.9792 286.832 92.8348 286.694 92.7727C286.559 92.7141 286.396 92.7545 286.337 92.8705L281.186 102.94C281.127 103.055 281.191 103.2 281.329 103.262C281.343 103.267 281.357 103.273 281.371 103.277L281.371 103.276Z" fill="#4F2B2B"/>
<path d="M289.035 105.176C289.18 105.219 289.328 105.151 289.366 105.025L292.126 95.9247C292.164 95.7985 292.078 95.6599 291.933 95.6162L291.931 95.6157C291.786 95.573 291.638 95.6402 291.6 95.7664L288.84 104.867C288.802 104.993 288.888 105.132 289.034 105.175L289.035 105.176Z" fill="#4F2B2B"/>
<path d="M174.835 105.307L167.264 161.763C165.937 170.97 156.946 177.012 147.92 174.765C138.744 172.48 133.652 162.664 137.067 153.848L158.118 99.7344L174.835 105.307Z" fill="#FFBE97"/>
<path d="M179.869 80.7866C179.869 80.7866 190.396 102.11 203.139 101.984C215.881 101.859 224.994 90.9487 225.972 77.696C226.458 71.1242 224.366 63.4003 221.407 60.3997C218.029 56.976 210.794 53.7789 204.334 53.0799C195.073 52.0779 188.283 59.2885 188.283 59.2885C188.283 59.2885 181.889 61.1123 179.251 67.8261C177.52 72.2327 179.866 80.7866 179.866 80.7866H179.869Z" fill="#4F2B2B"/>
<path d="M228.774 71.1128C235.432 77.5015 231.37 80.5854 226.11 80.2424C223.344 82.4076 219.844 85.369 218.62 76.569C217.033 65.1625 211.86 72.8501 206.627 74.0391C202.441 74.9903 198.627 74.0113 197.265 73.4674C193.576 77.9379 187.721 73.2182 185.515 74.9541C183.099 76.8553 172.101 72.1558 173.348 63.3796C174.346 56.3586 183.491 53.1442 187.939 52.4146C188.105 49.1547 190.3 47.1564 191.377 46.5648C197.731 42.9396 205.314 49.8094 208.311 53.6974C214.531 47.247 219.939 52.0582 221.865 55.2702C223.811 54.6789 228.529 54.9134 231.834 60.582C235.14 66.2505 231.171 69.9644 228.774 71.1128Z" fill="#4F2B2B"/>
<path d="M184.576 77.5132C182.389 82.6079 183.262 93.3733 188.01 99.2297C193.102 105.507 198.276 106.342 204.741 106.342C211.207 106.342 218.718 101.985 221.666 93.4361C225.412 82.5751 221.568 70.7558 211.327 66.36C201.086 61.9643 189.108 66.958 184.576 77.5159V77.5132Z" fill="#FFBE97"/>
<path d="M185.58 84.8652C186.009 88.3872 186.517 91.4288 183.565 91.7892C180.614 92.1496 177.026 89.5503 176.598 86.0256C176.169 82.5035 178.214 79.3555 181.168 78.9951C184.119 78.6347 185.154 81.3404 185.583 84.8652H185.58Z" fill="#FFBE97"/>
<path d="M196.665 81.7507C196.687 82.7281 196.198 83.5308 195.576 83.5445C194.953 83.5581 194.432 82.7773 194.413 81.7998C194.391 80.8224 194.88 80.0197 195.502 80.006C196.125 79.9924 196.646 80.7732 196.665 81.7507Z" fill="#4F2B2B"/>
<path d="M211.977 81.6647C211.999 82.6422 211.51 83.4449 210.887 83.4585C210.265 83.4722 209.743 82.6913 209.724 81.7139C209.703 80.7364 210.191 79.9337 210.814 79.9201C211.436 79.9064 211.958 80.6873 211.977 81.6647Z" fill="#4F2B2B"/>
<path d="M207.163 86.0399L204.995 88.6992L202.852 79.8477L207.163 86.0399Z" fill="#FFBE97"/>
<path d="M220.829 85.0456C220.4 88.5676 219.873 91.4289 222.827 91.7893C225.779 92.1497 229.366 89.5505 229.795 86.0257C230.223 82.5037 228.178 79.3557 225.224 78.9953C222.273 78.6349 221.257 81.5208 220.829 85.0456Z" fill="#FFBE97"/>
<path d="M187.462 64.6885C187.462 64.6885 195.65 72.4889 199.303 73.3025C202.956 74.1161 206.508 73.2069 206.508 73.2069L204.802 70.5804C204.802 70.5804 207.01 73.0131 209.621 73.4035C212.231 73.7939 215.821 73.1769 215.821 73.1769L213.56 69.9852C213.56 69.9852 217.858 74.7195 222.021 73.9768C222.021 73.9768 213.752 59.9078 204.531 60.3829C195.311 60.8579 187.462 64.6858 187.462 64.6858V64.6885Z" fill="#4F2B2B"/>
<path d="M205.462 89.2171C205.563 89.2171 205.664 89.1707 205.73 89.0833L208.031 86.0364L203.873 80.0598C203.767 79.9069 203.559 79.8714 203.406 79.9752C203.253 80.0817 203.218 80.2892 203.322 80.442L207.204 86.0227L205.195 88.6847C205.083 88.8322 205.113 89.0424 205.26 89.1543C205.32 89.2007 205.391 89.2226 205.462 89.2226V89.2171Z" fill="#4F2B2B"/>
<path d="M204.659 95.6619C205.178 95.6619 205.5 95.6155 205.514 95.6128C205.697 95.5827 205.819 95.4135 205.792 95.2305C205.765 95.0476 205.593 94.9247 205.41 94.9521C205.219 94.9821 200.684 95.6346 198.382 91.3836C198.295 91.2198 198.093 91.1597 197.929 91.2471C197.765 91.3344 197.705 91.5392 197.792 91.7003C199.695 95.2196 203.078 95.6619 204.659 95.6619Z" fill="#4F2B2B"/>
<path d="M183.617 86.39C183.653 86.39 183.691 86.3846 183.726 86.3709C183.901 86.3108 183.994 86.1197 183.934 85.945C183.923 85.9122 182.825 82.7724 179.89 83.0263C179.707 83.0427 179.571 83.2038 179.587 83.3895C179.604 83.5724 179.765 83.7144 179.95 83.6925C182.348 83.485 183.265 86.0542 183.303 86.1634C183.352 86.3026 183.481 86.3873 183.62 86.3873L183.617 86.39Z" fill="#4F2B2B"/>
<path d="M223.321 86.3873C223.46 86.3873 223.588 86.2999 223.637 86.1634C223.675 86.0542 224.601 83.4823 226.99 83.6925C227.176 83.7062 227.337 83.5724 227.353 83.3894C227.37 83.2065 227.233 83.0427 227.05 83.0263C224.131 82.7724 223.017 85.9149 223.007 85.945C222.947 86.1197 223.039 86.3108 223.214 86.3709C223.25 86.3845 223.288 86.39 223.323 86.39L223.321 86.3873Z" fill="#4F2B2B"/>
<path d="M173.47 107.046C173.47 107.046 176.687 106.093 178.355 104.04C180.023 101.987 182.955 97.5232 182.955 97.5232L193.33 94.0967C194.491 93.7117 195.162 92.4995 194.87 91.3118C194.608 90.2443 193.639 89.5044 192.539 89.529L183.619 89.7419L183.993 83.4651L194.057 70.8922C194.835 69.8601 194.788 68.424 193.945 67.4439C192.967 66.3108 191.261 66.1661 190.109 67.1244L180.121 75.4108L170.888 75.4872C167.164 75.5173 163.909 78.0127 162.913 81.603L156.767 103.767L173.47 107.046Z" fill="#FFBE97"/>
<path d="M171.017 107.727C171.866 107.727 173.201 107.605 174.623 107.001C174.752 106.947 174.812 106.799 174.757 106.673C174.703 106.545 174.555 106.485 174.43 106.54C172.221 107.476 170.184 107.179 170.165 107.173C170.028 107.154 169.9 107.247 169.878 107.383C169.856 107.52 169.952 107.648 170.088 107.67C170.124 107.676 170.468 107.727 171.019 107.727H171.017Z" fill="#4F2B2B"/>
<path d="M182.956 97.7726C182.983 97.7726 183.008 97.7699 183.035 97.759L193.41 94.3325C194.688 93.9093 195.436 92.5551 195.114 91.25C194.822 90.0596 193.754 89.2569 192.534 89.276L183.884 89.4835L184.236 83.5589L194.251 71.0488C194.338 70.9396 194.319 70.7812 194.213 70.6966C194.104 70.612 193.948 70.6283 193.861 70.7348L183.748 83.3705L183.352 89.9996L192.545 89.7784C193.544 89.7484 194.39 90.4091 194.625 91.3702C194.884 92.424 194.281 93.5161 193.249 93.8574L182.874 97.2839C182.743 97.3276 182.672 97.4696 182.716 97.6006C182.751 97.7071 182.849 97.7726 182.953 97.7726H182.956Z" fill="#4F2B2B"/>
<path d="M178.86 88.1752C180.23 88.1752 181.462 87.3725 182.016 86.1139L182.619 84.7406C183.174 83.4792 183.184 82.0267 182.649 80.7598L180.353 75.313C180.299 75.1846 180.151 75.1273 180.026 75.1792C179.897 75.2338 179.837 75.3812 179.892 75.5068L182.188 80.9537C182.671 82.0977 182.66 83.4027 182.163 84.5385L181.56 85.9119C181.077 87.0122 179.985 87.7002 178.786 87.6729L169.353 87.4326C168.599 87.4135 167.876 87.0859 167.363 86.5344L166.934 86.0757C166.609 85.7262 166.513 85.2156 166.685 84.7733C166.928 84.1508 167.614 83.8314 168.244 84.0416L168.545 84.1426C168.676 84.1836 168.818 84.1153 168.861 83.9843C168.905 83.8532 168.834 83.7113 168.703 83.6676L168.403 83.5666C167.515 83.2717 166.557 83.7222 166.216 84.5931C165.976 85.2129 166.112 85.931 166.565 86.4197L166.994 86.8784C167.597 87.5282 168.452 87.9131 169.339 87.935L178.772 88.1752C178.802 88.1752 178.832 88.1752 178.862 88.1752H178.86Z" fill="#4F2B2B"/>
<path d="M174.099 88.0682C175.47 88.0682 176.701 87.2655 177.255 86.0068L177.859 84.6335C178.413 83.3721 178.424 81.9196 177.889 80.6528L175.917 75.7082C175.865 75.5799 175.718 75.5171 175.592 75.569C175.464 75.6209 175.401 75.7656 175.453 75.8939L177.427 80.8439C177.91 81.9906 177.902 83.2984 177.403 84.4342L176.799 85.8075C176.316 86.9078 175.229 87.5958 174.025 87.5685H174.02C173.883 87.5685 173.771 87.6777 173.769 87.8142C173.766 87.9535 173.875 88.0682 174.014 88.0709C174.044 88.0709 174.074 88.0709 174.104 88.0709L174.099 88.0682Z" fill="#4F2B2B"/>
<path d="M169.438 87.9361C170.808 87.9361 172.04 87.1334 172.594 85.8748L173.197 84.5015C173.752 83.2401 173.763 81.7876 173.227 80.5207L171.114 75.7701C171.057 75.6445 170.909 75.5871 170.784 75.6418C170.658 75.6991 170.601 75.8465 170.656 75.9721L172.766 80.7173C173.247 81.8558 173.236 83.1609 172.739 84.2967L172.135 85.67C171.652 86.7703 170.56 87.4529 169.361 87.431C169.211 87.4283 169.107 87.5375 169.105 87.6768C169.102 87.816 169.211 87.9307 169.35 87.9334C169.381 87.9334 169.411 87.9334 169.441 87.9334L169.438 87.9361Z" fill="#4F2B2B"/>
<path d="M167.716 83.9665C167.746 83.9665 167.776 83.961 167.806 83.9501C167.934 83.9009 168 83.7562 167.95 83.6279L166.804 80.6028C166.755 80.4717 166.61 80.4089 166.482 80.4581C166.351 80.5072 166.288 80.6519 166.337 80.7803L167.484 83.8054C167.522 83.9064 167.617 83.9665 167.718 83.9665H167.716Z" fill="#4F2B2B"/>
<path d="M174.011 96.0406C174.11 96.0406 174.205 95.9806 174.244 95.8823C176.297 90.7494 183.565 89.9986 183.638 89.9904C183.775 89.9767 183.879 89.8538 183.865 89.7173C183.851 89.5781 183.728 89.4825 183.592 89.4907C183.281 89.5208 175.947 90.2743 173.779 95.6966C173.728 95.8249 173.79 95.9724 173.919 96.0215C173.949 96.0324 173.981 96.0406 174.011 96.0406Z" fill="#4F2B2B"/>
<path d="M203.968 106.96C204.951 106.96 205.541 106.891 205.56 106.891C205.743 106.869 205.874 106.703 205.852 106.52C205.83 106.337 205.661 106.206 205.481 106.228C205.407 106.236 198.18 107.052 191.627 102.703C191.475 102.599 191.267 102.643 191.163 102.796C191.062 102.949 191.103 103.156 191.256 103.26C196.146 106.506 201.402 106.962 203.968 106.962V106.96Z" fill="#4F2B2B"/>
<path d="M258.225 122.949L253.872 126.382" stroke="black" stroke-width="0.487046" stroke-linecap="round"/>
<path d="M259.67 128.57L255.256 129.438" stroke="black" stroke-width="0.487046" stroke-linecap="round"/>
<path d="M250.993 124.568L252.28 120.258" stroke="black" stroke-width="0.487046" stroke-linecap="round"/>
<path d="M407.306 351.954L398.733 399.538H576.32L568.971 349.689L407.306 351.954Z" fill="#69ABDD"/>
<path d="M580.783 189.529C580.783 189.529 594.32 191.335 598.833 196.75C603.346 202.165 629.517 304.145 629.517 304.145L578.077 340.244L547.393 287.901L580.785 189.529H580.783Z" fill="#FFB8BD"/>
<path d="M570.856 364.612L564.538 308.659L580.783 189.531L541.564 175.611L485.122 254.208L428.165 178.87L411.552 185.603C395.775 191.996 387.114 209.032 391.241 225.547L402.993 306.853L404.984 364.612H570.856Z" fill="#FFB8BD"/>
<path d="M541.564 175.609L526.336 170.88L484.22 164.26L443.99 171.662L428.164 178.87L485.121 254.208L541.564 175.609Z" fill="#FFB8BD"/>
<path d="M631.324 307.752C626.981 293.636 595.225 262.627 595.225 262.627L560.93 292.408C560.93 292.408 561.57 317.816 567.247 331.215C589.81 384.462 642.153 342.948 631.324 307.75V307.752Z" fill="#FFB8BD"/>
<path d="M597.263 357.853C584.554 357.853 573.352 348.635 566.167 331.68C560.468 318.23 559.783 293.489 559.758 292.445C559.751 292.094 559.898 291.759 560.163 291.531L594.456 261.75C594.915 261.349 595.607 261.372 596.042 261.795C597.348 263.07 628.062 293.176 632.443 307.412C638.872 328.304 624.383 349.779 607.359 355.987C603.923 357.24 600.544 357.853 597.265 357.853H597.263ZM562.118 292.934C562.254 296.692 563.256 318.802 568.326 330.764C576.817 350.809 591.113 359.414 606.555 353.785C622.557 347.952 636.071 327.175 630.202 308.101C626.368 295.635 600.031 269.057 595.172 264.23L562.119 292.936L562.118 292.934Z" fill="#FFB8BD"/>
<path d="M576.666 225.788L546.804 222.116C544.495 221.819 542.329 223.062 541.385 225.171C540.711 226.673 540.722 228.513 541.416 230.093C542.013 231.453 543.034 232.433 544.291 232.849C544.385 232.879 544.457 232.938 544.534 232.987L566.669 237.499C567.304 237.63 567.712 238.247 567.582 238.882C567.453 239.519 566.832 239.929 566.199 239.797L541.975 234.859C539.274 234.399 536.684 236.271 536.229 239.006C536.017 240.285 536.4 241.684 537.281 242.844C538.164 244.006 539.436 244.801 540.772 245.022C540.937 245.049 541.087 245.112 541.218 245.198L564.599 249.964C565.234 250.095 565.642 250.712 565.512 251.347C565.383 251.983 564.759 252.393 564.129 252.262L539.905 247.324C537.206 246.86 534.613 248.735 534.158 251.473C533.938 252.798 534.247 254.129 535.03 255.224C535.812 256.317 536.972 257.04 538.299 257.262L562.565 262.207C563.2 262.338 563.608 262.955 563.478 263.59C563.349 264.227 562.732 264.638 562.095 264.505L537.871 259.567C535.192 259.119 532.579 260.977 532.124 263.716C531.895 265.093 532.21 266.606 532.985 267.87C533.769 269.145 534.893 269.963 536.154 270.172L548.575 274.307C548.897 274.416 549.158 274.659 549.287 274.972L550.82 278.702C553.695 285.705 559.801 290.96 567.154 292.76C576.522 295.049 586.161 291.65 591.713 284.084C595.892 278.392 597.901 273.272 597.685 268.87C597.477 267.32 590.648 246.433 586.179 233.476C584.73 229.279 581.084 226.333 576.666 225.792V225.788Z" fill="#FFBE97"/>
<path d="M576.952 223.461L547.09 219.789C543.772 219.388 540.617 221.157 539.247 224.207C538.305 226.306 538.314 228.858 539.269 231.032C539.513 231.59 539.823 232.091 540.164 232.555C537.062 232.994 534.456 235.372 533.917 238.618C533.598 240.531 534.145 242.587 535.415 244.259C535.738 244.685 536.105 245.074 536.499 245.425C534.134 246.333 532.289 248.412 531.847 251.084C531.525 253.026 531.978 254.981 533.124 256.584C533.438 257.022 533.802 257.411 534.192 257.765C531.958 258.725 530.241 260.756 529.813 263.326C529.493 265.252 529.921 267.354 530.989 269.091C532.133 270.954 533.832 272.158 535.589 272.434L547.324 276.355L548.653 279.588C551.811 287.282 558.52 293.055 566.597 295.031C568.723 295.553 570.863 295.804 572.972 295.804C581.074 295.804 588.751 292.076 593.601 285.467C598.108 279.331 600.27 273.706 600.027 268.751C599.944 267.097 591.808 242.603 588.395 232.706C586.651 227.655 582.266 224.114 576.952 223.461ZM591.713 284.079C586.16 291.645 576.52 295.044 567.154 292.754C559.801 290.954 553.695 285.699 550.82 278.696L549.287 274.967C549.158 274.654 548.899 274.411 548.575 274.301L536.154 270.167C534.893 269.958 533.769 269.14 532.985 267.865C532.21 266.602 531.895 265.088 532.124 263.711C532.579 260.972 535.192 259.112 537.871 259.562L562.096 264.5C562.732 264.633 563.349 264.221 563.478 263.585C563.608 262.952 563.2 262.333 562.565 262.202L538.299 257.256C536.974 257.037 535.812 256.314 535.03 255.219C534.248 254.125 533.938 252.793 534.158 251.467C534.613 248.73 537.206 246.854 539.905 247.318L564.129 252.257C564.759 252.388 565.383 251.978 565.512 251.341C565.642 250.708 565.234 250.09 564.599 249.958L541.218 245.193C541.087 245.106 540.938 245.043 540.772 245.016C539.436 244.795 538.164 244 537.281 242.839C536.398 241.679 536.015 240.279 536.229 239.001C536.684 236.265 539.274 234.393 541.975 234.854L566.199 239.792C566.831 239.923 567.453 239.513 567.582 238.877C567.712 238.244 567.304 237.625 566.669 237.494L544.534 232.982C544.455 232.931 544.383 232.874 544.292 232.843C543.034 232.426 542.013 231.448 541.416 230.088C540.722 228.507 540.711 226.668 541.385 225.166C542.331 223.056 544.495 221.814 546.804 222.11L576.666 225.783C581.085 226.326 584.73 229.27 586.179 233.467C590.648 246.425 597.477 267.313 597.685 268.861C597.901 273.264 595.892 278.384 591.713 284.075V284.079Z" fill="#FFBE97"/>
<path d="M541.673 233.934L564.142 238.229C565.714 238.53 567.133 239.366 568.157 240.595L570.234 243.088" stroke="#4F2B2B" stroke-width="1.38322" stroke-linecap="round"/>
<path d="M537.261 247.117L559.73 251.413C561.302 251.713 562.72 252.549 563.745 253.778L565.822 256.271" stroke="#4F2B2B" stroke-width="1.38322" stroke-linecap="round"/>
<path d="M535.065 258.1L557.534 262.395C559.105 262.696 560.524 263.532 561.548 264.761L563.626 267.254" stroke="#4F2B2B" stroke-width="1.38322" stroke-linecap="round"/>
<path d="M609.049 275.312C616.616 284.345 632.85 304.606 632.117 308.634" stroke="#775340" stroke-width="1.38322" stroke-linecap="round"/>
<path d="M429.782 193.113C423.328 190.336 428.468 183.278 431.845 180.096C443.102 167.08 431.845 176.972 422.84 124.56C413.834 72.1475 454.735 42.1231 494.884 52.7097C535.034 63.2963 532.22 101.825 530.719 127.337C529.218 152.849 532.032 161.353 535.597 171.592C539.121 181.715 534.944 187.597 526.873 198.964L526.591 199.361C518.336 210.989 484.378 210.989 481.188 207.344C477.999 203.699 437.849 196.584 429.782 193.113Z" fill="#FBE4C6"/>
<path d="M440.529 159.121C443.783 163.832 454.195 174.217 469.813 178.069" stroke="black" stroke-width="1.08451" stroke-linecap="round"/>
<path d="M492.779 194.143C500.028 191.803 516.493 183.331 524.359 168.162" stroke="black" stroke-width="1.08451" stroke-linecap="round"/>
<path d="M522.316 115.895C521.017 94.6483 507.658 73.2331 482.912 69.7018C458.066 66.1586 435.589 86.0349 432.399 110.168C429.208 134.301 443.928 158.597 468.663 163.078C489.487 166.852 510.766 155.378 518.879 137.256C521.726 132.168 522.357 120.896 522.316 115.895Z" fill="#FFBE97"/>
<path d="M465.631 140.923C465.245 137.779 470.926 136.745 477.064 135.991C483.202 135.237 487.466 135.046 487.852 138.195C488.239 141.343 483.577 144.501 477.439 145.255C471.301 146.009 466.012 144.068 465.626 140.924L465.631 140.923Z" fill="white"/>
<path d="M489.992 111.607C489.943 113.805 491.042 115.61 492.442 115.641C493.841 115.672 495.014 113.916 495.057 111.718C495.106 109.52 494.007 107.715 492.607 107.684C491.207 107.653 490.035 109.409 489.992 111.607Z" fill="#562A2F"/>
<path d="M455.56 111.418C455.511 113.616 456.61 115.421 458.01 115.452C459.41 115.482 460.582 113.726 460.625 111.528C460.674 109.33 459.576 107.525 458.176 107.495C456.776 107.464 455.603 109.22 455.56 111.418Z" fill="#562A2F"/>
<path d="M453.645 129.26C443.981 129.26 436.122 121.401 436.122 111.737C436.122 102.074 443.981 94.2148 453.645 94.2148C463.308 94.2148 471.167 102.074 471.167 111.737C471.167 121.401 463.308 129.26 453.645 129.26ZM453.645 95.7129C444.81 95.7129 437.626 102.902 437.626 111.731C437.626 120.56 444.816 127.75 453.645 127.75C462.473 127.75 469.663 120.56 469.663 111.731C469.663 102.902 462.473 95.7129 453.645 95.7129Z" fill="white"/>
<path d="M495.577 129.26C485.913 129.26 478.055 121.401 478.055 111.737C478.055 102.074 485.913 94.2148 495.577 94.2148C505.241 94.2148 513.1 102.074 513.1 111.737C513.1 121.401 505.241 129.26 495.577 129.26ZM495.577 95.7129C486.742 95.7129 479.559 102.902 479.559 111.731C479.559 120.56 486.748 127.75 495.577 127.75C504.406 127.75 511.596 120.56 511.596 111.731C511.596 102.902 504.406 95.7129 495.577 95.7129Z" fill="white"/>
<path d="M479.836 107.097C475.772 106.133 472.346 106.133 469.368 107.078L468.914 105.642C472.162 104.61 475.846 104.604 480.186 105.623L479.843 107.09L479.836 107.097Z" fill="white"/>
<path d="M470.209 128.394C469.982 128.394 469.755 128.29 469.607 128.093L464.432 121.242L473.782 107.802C474.022 107.458 474.488 107.378 474.832 107.612C475.176 107.851 475.256 108.318 475.023 108.661L466.292 121.211L470.811 127.197C471.062 127.529 470.995 128.001 470.663 128.253C470.528 128.357 470.369 128.407 470.209 128.407V128.394Z" fill="#562A2F"/>
<path d="M456.166 137.145C456.176 134.876 452.765 133.022 448.547 133.004C444.328 132.986 440.901 134.81 440.891 137.078C440.881 139.347 444.293 141.2 448.511 141.219C452.729 141.237 456.156 139.413 456.166 137.145Z" fill="#FF9D6C"/>
<path d="M511.064 137.147C511.074 134.878 507.662 133.024 503.444 133.006C499.226 132.988 495.798 134.812 495.788 137.08C495.779 139.349 499.19 141.202 503.408 141.221C507.626 141.239 511.054 139.415 511.064 137.147Z" fill="#FF9D6C"/>
<path d="M560.741 293.611L571.126 364.23" stroke="#4F2B2B" stroke-width="1.47115" stroke-linecap="round"/>
<path d="M507.751 343.361H381.766L360.816 184.877H486.801L507.751 343.361Z" fill="white" stroke="black" stroke-width="1.5"/>
<path d="M368.138 279.179L385.802 274.73C389.735 273.737 392.252 269.833 391.531 265.841C390.812 261.846 387.088 259.057 383.059 259.512C382.878 259.532 382.708 259.503 382.55 259.449C382.167 259.537 381.791 259.647 381.392 259.69L365.075 261.463C365.032 261.472 364.998 261.498 364.953 261.503C362.797 261.74 360.892 262.828 359.594 264.567C358.295 266.306 357.792 268.441 358.177 270.578L358.619 273.038C359.004 275.176 360.222 277 362.045 278.176C363.869 279.352 366.036 279.71 368.138 279.177V279.179Z" fill="#FFBE97"/>
<path d="M363.028 259.331L381.136 257.363C385.168 256.924 388.2 253.403 388.04 249.351C387.88 245.298 384.578 242.032 380.523 241.915L362.314 241.388C362.237 241.386 362.16 241.383 362.082 241.383C359.998 241.383 358.054 242.196 356.581 243.683C355.054 245.228 354.263 247.271 354.349 249.441L354.448 251.937C354.534 254.106 355.488 256.083 357.133 257.498C358.777 258.915 360.87 259.564 363.028 259.329V259.331Z" fill="#FFBE97"/>
<path d="M387.965 291.462C387.965 291.462 387.965 291.462 387.968 291.462L388.125 291.405C391.669 290.121 393.633 286.276 392.597 282.654C391.561 279.032 387.86 276.798 384.174 277.591C384.122 277.602 384.071 277.588 384.019 277.591L368.708 281.447C368.414 281.521 368.12 281.566 367.823 281.613C365.632 282.087 363.762 283.375 362.694 285.154C361.762 286.704 361.534 288.437 362.03 290.175L362.674 292.428C363.23 294.368 364.525 295.94 366.321 296.859C368.116 297.776 370.15 297.906 372.049 297.221L387.965 291.46V291.462Z" fill="#FFBE97"/>
<path d="M388.731 293.677C388.731 293.677 388.728 293.677 388.726 293.677L375.2 298.573C375.103 298.646 375.002 298.718 374.88 298.76C373.405 299.269 372.317 300.234 371.729 301.551C371.105 302.955 371.131 304.601 371.803 306.187L372.566 307.985C373.2 309.482 374.391 310.615 375.92 311.174C377.45 311.73 379.088 311.632 380.54 310.897L393.245 304.446C395.957 303.072 397.151 299.803 395.964 297.004C394.756 294.152 391.578 292.694 388.729 293.677H388.731Z" fill="#FFBE97"/>
<path d="M392.471 291.268C394.786 288.884 395.816 285.386 394.849 282.008C394.007 279.063 391.836 276.834 389.157 275.777C392.603 273.651 394.586 269.592 393.836 265.424C393.135 261.532 390.245 258.522 386.63 257.498C389.031 255.551 390.513 252.54 390.382 249.256C390.173 243.976 385.871 239.723 380.591 239.568L362.383 239.041C359.618 238.959 356.876 240.05 354.916 242.032C352.957 244.014 351.898 246.746 352.008 249.53L352.107 252.026C352.218 254.811 353.493 257.452 355.603 259.271C356.752 260.261 358.119 260.933 359.561 261.323C358.879 261.861 358.241 262.456 357.714 263.161C356.047 265.395 355.374 268.247 355.867 270.99L356.309 273.45C356.804 276.192 358.432 278.631 360.771 280.142C361.518 280.624 362.327 280.985 363.163 281.253C362.176 282.001 361.314 282.895 360.683 283.943C359.428 286.033 359.106 288.475 359.775 290.819L360.419 293.072C361.144 295.606 362.906 297.746 365.251 298.944C366.607 299.638 368.101 299.987 369.6 299.987C369.718 299.987 369.835 299.962 369.954 299.956C369.831 300.17 369.684 300.368 369.583 300.595C368.691 302.596 368.711 304.905 369.639 307.099L370.402 308.898C371.281 310.969 372.997 312.599 375.11 313.372C376.011 313.701 376.958 313.865 377.903 313.865C379.176 313.865 380.444 313.57 381.595 312.985L394.3 306.535C398.106 304.603 399.782 300.016 398.116 296.086C397.057 293.592 394.91 291.867 392.466 291.265L392.471 291.268ZM357.133 257.498C355.488 256.081 354.534 254.107 354.448 251.938L354.349 249.442C354.263 247.273 355.056 245.228 356.581 243.683C358.054 242.196 360 241.383 362.082 241.383C362.16 241.383 362.237 241.385 362.314 241.388L380.523 241.915C384.576 242.032 387.88 245.298 388.04 249.352C388.202 253.405 385.17 256.925 381.136 257.363L363.028 259.331C360.87 259.566 358.777 258.917 357.133 257.5V257.498ZM362.043 278.174C360.219 276.998 359.002 275.175 358.617 273.036L358.174 270.576C357.79 268.441 358.293 266.305 359.592 264.566C360.89 262.827 362.794 261.739 364.951 261.501C364.996 261.496 365.032 261.471 365.073 261.462L381.39 259.689C381.789 259.646 382.165 259.536 382.548 259.448C382.706 259.502 382.877 259.529 383.057 259.511C387.085 259.056 390.81 261.845 391.529 265.839C392.248 269.83 389.731 273.734 385.799 274.729L368.136 279.178C366.033 279.708 363.866 279.352 362.043 278.176V278.174ZM366.321 296.859C364.524 295.942 363.23 294.369 362.674 292.428L362.03 290.175C361.534 288.438 361.762 286.704 362.694 285.154C363.762 283.373 365.632 282.086 367.823 281.613C368.119 281.566 368.416 281.521 368.708 281.447L384.019 277.592C384.071 277.588 384.12 277.602 384.174 277.592C387.86 276.797 391.56 279.03 392.597 282.654C393.633 286.276 391.669 290.121 388.125 291.405L387.968 291.462C387.968 291.462 387.968 291.462 387.965 291.462L372.049 297.223C370.15 297.908 368.118 297.778 366.321 296.861V296.859ZM393.245 304.445L380.539 310.896C379.088 311.629 377.448 311.728 375.919 311.173C374.392 310.613 373.2 309.482 372.565 307.984L371.803 306.186C371.13 304.6 371.105 302.954 371.729 301.55C372.315 300.231 373.405 299.266 374.88 298.758C375.002 298.717 375.103 298.645 375.2 298.571L388.725 293.676C388.725 293.676 388.729 293.676 388.731 293.676C391.578 292.693 394.757 294.153 395.966 297.003C397.152 299.802 395.958 303.073 393.246 304.445H393.245Z" fill="#FFBE97"/>
<path d="M353.394 270.254C348.497 241.384 357.552 238.956 364.429 239.978L381.222 310.112C381.701 312.156 380.067 316.498 368.168 313.432C356.269 310.366 355.582 283.157 353.394 270.254Z" fill="#FFBE97"/>
<path d="M386.529 258.104L368.845 258.872" stroke="#4F2B2B" stroke-width="1.38322" stroke-linecap="round"/>
<path d="M388.726 275.68L371.041 278.609" stroke="#4F2B2B" stroke-width="1.38322" stroke-linecap="round"/>
<path d="M392.388 291.791L375.435 296.185" stroke="#4F2B2B" stroke-width="1.38322" stroke-linecap="round"/>
</g>
</svg>
