<?xml version="1.0" encoding="utf-8"?>
<!-- Generator: Adobe Illustrator 28.1.0, SVG Export Plug-In . SVG Version: 6.00 Build 0)  -->
<svg version="1.1" id="Layer_1" xmlns="http://www.w3.org/2000/svg" xmlns:xlink="http://www.w3.org/1999/xlink" x="0px" y="0px"
	 viewBox="0 0 470 250" style="enable-background:new 0 0 470 250;" xml:space="preserve">
<style type="text/css">
	.st0{fill:#4F2B2B;}
	.st1{fill:#FFBE97;}
	.st2{fill:#FF9D6C;}
	.st3{fill:#69ABDD;}
	.st4{fill:#F5C07A;}
	.st5{fill:#FBE4C6;}
	.st6{fill-rule:evenodd;clip-rule:evenodd;fill:#F5C07A;}
	.st7{fill:#DF8711;}
</style>
<path class="st0" d="M279.9,99.8c-2.6-1.1-5.8-7.1-6.6-9.5c-1.1-3.5-1.9-7.1-2.8-10.6c-1-3.9-2.4-7.7-4.6-11.1
	c-8.6-13.5-28.6-25.2-43.4-14c0,0-13.6-1.3-19.7,12.7c-4.7,10.7-0.4,29.7-10.1,38.3c0.2-0.1,3.8,2.7,4,2.8c1.6,0.9,3.1,1.7,4.7,2.5
	c4.1,2,8.1,3.4,12.6,4.1c9.5,1.5,19.1,2,28.6,1.8c7.6-0.2,15.9-0.3,23.1-2.9c4.5-1.6,8.8-4.4,11.2-8.6
	C277.2,104.6,279.6,99.7,279.9,99.8L279.9,99.8z"/>
<polyline class="st1" points="247.6,114.6 247.6,96.8 223,96.8 223,114.6 "/>
<path class="st0" d="M222.8,106.6l0.4-11.1l25.7,0.8C240.3,108,227.8,108.3,222.8,106.6z"/>
<path class="st1" d="M260.8,77.3c-0.5,0-0.9,0.1-1.4,0.2c-1.5-10.3-9.5-20.1-23.5-21.8c-15-1.8-28.5,8.4-30.4,20.8
	s6.9,24.9,21.8,27.2c13.2,2.1,26.8-4.6,31-14.9c0.9,0.5,2,0.7,3.1,0.7c3.4-0.2,6-3,5.8-6.4C267.1,79.7,264.2,77.1,260.8,77.3
	L260.8,77.3z"/>
<path class="st0" d="M262.9,84.5l-3.5,0.2c-0.6,0-1.1-0.4-1.1-1s0.4-1.1,1-1.1l3.5-0.2c0.6,0,1.1,0.4,1.1,1
	C264,84,263.5,84.4,262.9,84.5z"/>
<path class="st0" d="M219.2,85.7c-0.5,0-0.9-0.4-0.9-0.9l0-1.6c0-0.5,0.4-0.9,0.9-0.9c0.5,0,0.9,0.4,0.9,0.9l0,1.6
	C220.1,85.3,219.7,85.7,219.2,85.7z"/>
<path class="st0" d="M241.2,85.7c-0.5,0-0.9-0.4-0.9-0.9l0-1.6c0-0.5,0.4-0.9,0.9-0.9c0.5,0,0.9,0.4,0.9,0.9l0,1.6
	C242.1,85.3,241.7,85.7,241.2,85.7z"/>
<ellipse transform="matrix(6.140081e-02 -0.9981 0.9981 6.140081e-02 113.765 299.4597)" class="st2" cx="216.1" cy="89.2" rx="2.3" ry="4.3"/>
<ellipse transform="matrix(6.140081e-02 -0.9981 0.9981 6.140081e-02 142.569 330.1036)" class="st2" cx="246.8" cy="89.2" rx="2.3" ry="4.3"/>
<path class="st0" d="M229.3,88.8c-0.1,0-0.3,0-0.4-0.1c-0.3-0.2-0.4-0.6-0.1-0.9c0.7-0.9,0.9-2.4,0.6-3.8c-0.3-1.6-1.3-3-2.6-3.8
	c-0.3-0.2-0.4-0.6-0.2-0.9c0.2-0.3,0.6-0.4,0.9-0.2c1.7,1,2.9,2.7,3.3,4.7c0.4,1.8,0.1,3.7-0.8,4.9
	C229.8,88.7,229.6,88.8,229.3,88.8L229.3,88.8z"/>
<path class="st0" d="M213.7,78.8c0.7-0.5,2-1.1,3.5-1.2c1.5-0.2,3.2,0.1,4.7,1.2l0.9-1.2c-1.9-1.4-4-1.7-5.8-1.5
	c-1.8,0.2-3.3,0.9-4.2,1.5L213.7,78.8z M221.9,78.8c0.3,0.2,0.8,0.2,1.1-0.2s0.2-0.8-0.2-1.1L221.9,78.8z M212.9,77.5
	c-0.3,0.2-0.4,0.7-0.2,1s0.7,0.4,1,0.2L212.9,77.5z"/>
<path class="st0" d="M237.8,78.8c0.7-0.5,2-1.1,3.5-1.2c1.5-0.2,3.2,0.1,4.7,1.2l0.9-1.2c-1.9-1.4-4-1.7-5.8-1.5
	c-1.8,0.2-3.3,0.9-4.2,1.5L237.8,78.8z M246,78.8c0.3,0.2,0.8,0.2,1.1-0.2s0.2-0.8-0.2-1.1L246,78.8z M236.9,77.5
	c-0.3,0.2-0.4,0.7-0.2,1s0.7,0.4,1,0.2L236.9,77.5z"/>
<path class="st0" d="M231.9,94.6c-1.2,0-2.2-0.2-3-0.3c-0.4-0.1-0.6-0.4-0.5-0.8c0.1-0.4,0.4-0.6,0.8-0.5c2,0.4,5.7,0.8,8.8-1.8
	c0.3-0.2,0.7-0.2,0.9,0.1c0.2,0.3,0.2,0.7-0.1,0.9C236.6,94.1,234,94.6,231.9,94.6L231.9,94.6z"/>
<path class="st0" d="M218.1,58.1c0,0,13.8,17.3,25.2,16.4l10.9-2.4l6.1,5.9c0,0,1.2-22.2-15.9-23S218.1,58.1,218.1,58.1z"/>
<path class="st0" d="M225.6,60.7c0,0-2.9,10.4-20.7,19.5l-0.1-11.4l15.9-11.7L225.6,60.7L225.6,60.7z"/>
<polygon class="st3" points="202.9,191.5 190,250 288.7,248.7 276.3,191.5 "/>
<path class="st4" d="M235.6,114.1C235.9,114.5,235.4,114.5,235.6,114.1l-22,2.2l-15.1,3.2l4.3,72.5h73.4l1-70.8l-20.7-4.8
	L235.6,114.1z"/>
<polygon class="st5" points="235.4,114.5 223.2,106.4 216.1,115.7 229.9,124.4 "/>
<path class="st1" d="M180.3,127.1l1,0.3c4.1,1.2,7.6,2.3,11.9,1.7c3.8-0.6,6.9-2.4,8.7-5.2c1.9-3,2.3-6.9,1-11.4
	c-0.1-0.4,0.1-0.7,0.5-0.8c0.4-0.1,0.7,0.1,0.8,0.5c0.2,0.8,0.4,1.6,0.5,2.3l1.4-0.7c0.5-0.8,0.7-2.2,0.8-3.3c0-0.3,0.1-0.6,0.1-0.9
	c0.2-1.3-0.1-1.8-1.4-2.6c-1.4-0.9-3.2-1.7-4.3-0.1l-2.6,3.8c-0.2,0.3-0.6,0.4-0.9,0.2s-0.4-0.6-0.2-0.9l2.6-3.8
	c0.8-1.2,2-1.6,3.4-1.4c-0.3-0.8-1-1.9-1.2-2.1c-1.2-1-2.8-1.4-4.1-1.1h0c-1,0.2-1.8,0.8-2.2,1.7l-3.6,5.1c-0.2,0.3-0.6,0.4-0.9,0.2
	c-0.3-0.2-0.4-0.6-0.2-0.9l3.5-5c0.3-0.6,0.8-1.2,1.4-1.6c-0.4-0.9-1.2-1.2-1.8-1.4c-1.2-0.3-2.7,0-3.6,0.8
	c-2.2,1.8-3.4,3.8-4.7,6.3c-0.1,0.2-0.3,0.3-0.5,0.3c-0.1,0-0.3,0-0.4-0.1c-0.3-0.2-0.5-0.6-0.3-0.9c1.3-2.6,2.6-4.8,5.1-6.8
	c0.1-0.1,0.1-0.1,0.2-0.1c-1.1-1.2-2.7-1.5-4.1-0.9c-0.9,0.4-3.6,2.7-6.3,5.4c-1.7,1.8-2.4,3.4-2.3,5.6c0,0.3-0.2,0.6-0.5,0.7
	c0,0-0.1,0-0.1,0c-0.4,0-0.7-0.3-0.7-0.6c-0.1-2.1,0.4-3.8,1.7-5.5c-2.6,1.2-4.8,3-5.3,4.6c-0.8,2.6-0.3,9.3,2.3,14.1
	C176.4,124.9,178.2,126.5,180.3,127.1L180.3,127.1z"/>
<path class="st1" d="M172.7,108.2c0.5-1.6,2.7-3.4,5.3-4.6c-1.3,1.7-1.8,3.4-1.7,5.5c0,0.4,0.3,0.7,0.7,0.6c0,0,0.1,0,0.1,0
	c0.3-0.1,0.6-0.4,0.5-0.7c-0.1-2.2,0.6-3.9,2.3-5.6c2.7-2.7,5.4-5,6.3-5.4c1.4-0.6,3-0.3,4.1,0.9c-0.1,0-0.1,0.1-0.2,0.1
	c-2.5,1.9-3.8,4.2-5.1,6.8c-0.2,0.3,0,0.7,0.3,0.9c0.1,0.1,0.3,0.1,0.4,0.1c0.2,0,0.4-0.2,0.5-0.3c1.3-2.5,2.4-4.5,4.7-6.3
	c1-0.8,2.4-1.1,3.6-0.8c0.6,0.1,1.3,0.5,1.8,1.4c-0.6,0.4-1.1,0.9-1.4,1.6l-3.5,5c-0.2,0.3-0.1,0.7,0.2,0.9c0.3,0.2,0.7,0.1,0.9-0.2
	l3.6-5.1c0.4-0.9,1.2-1.5,2.2-1.7h0c1.4-0.3,2.9,0.1,4.1,1.1c0.3,0.2,0.9,1.4,1.2,2.1c-1.4-0.2-2.6,0.2-3.4,1.4l-2.6,3.8
	c-0.2,0.3-0.1,0.7,0.2,0.9s0.7,0.1,0.9-0.2l2.6-3.8c1.1-1.5,2.9-0.8,4.3,0.1c1.3,0.8,1.6,1.3,1.4,2.6c0,0.3-0.1,0.6-0.1,0.9
	c-0.1,1.1-0.3,2.5-0.8,3.3l-1.4,0.7c-0.1-0.8-0.3-1.5-0.5-2.3c-0.1-0.4-0.5-0.6-0.8-0.5c-0.4,0.1-0.6,0.5-0.5,0.8
	c1.3,4.4,0.9,8.4-1,11.4c-1.8,2.8-4.9,4.7-8.7,5.2c-4.3,0.6-7.9-0.4-11.9-1.7l-1-0.3c-2.1-0.6-3.9-2.2-5.3-4.8
	C172.4,117.5,171.9,110.8,172.7,108.2L172.7,108.2z M179.9,128.4l1,0.3c4.2,1.3,7.9,2.4,12.5,1.7c0.4-0.1,0.8-0.1,1.2-0.2
	c3.6-0.8,6.7-2.8,8.5-5.6c1.6-2.5,2.2-5.4,1.9-8.8l2-1c0.1-0.1,0.2-0.1,0.2-0.2c0.8-1.1,1-2.8,1.2-4.1c0-0.3,0.1-0.6,0.1-0.9
	c0.3-2.1-0.5-3-2-4c-0.4-0.3-0.8-0.5-1.2-0.7c-0.1-0.9-1.3-3.1-1.9-3.7c-1.5-1.2-3.5-1.8-5.3-1.4c0,0,0,0,0,0
	c-0.1,0-0.3,0.1-0.4,0.1c-0.5-1.1-1.4-1.8-2.6-2.1c-1.1-0.3-2.3-0.1-3.4,0.2c-1.5-1.8-3.8-2.4-5.9-1.5c-1.3,0.6-4,3.1-5.9,4.9
	c-0.1-0.1-0.3-0.1-0.4,0c-3.3,1-7.2,3.6-8,6.2c-0.9,2.8-0.4,9.9,2.4,15.1C175.4,125.8,177.4,127.7,179.9,128.4L179.9,128.4z"/>
<path class="st0" d="M203.7,103.9c-1.1,0.2-2,0.9-2.5,1.8l1.3,0.8c0.3-0.6,0.9-0.9,1.5-1.1L203.7,103.9z M201.2,105.7l-2.4,4
	l1.3,0.8l2.4-4L201.2,105.7z M204.8,103.7l-1.1,0.2l0.3,1.5l1.1-0.2L204.8,103.7z M203.8,104.7l0.1,0.7L203.8,104.7z M198.8,109.7
	c-0.2,0.4-0.1,0.8,0.3,1s0.8,0.1,1-0.3L198.8,109.7z M205.1,105.2c0.4-0.1,0.7-0.5,0.6-0.9s-0.5-0.7-0.9-0.6L205.1,105.2z"/>
<path class="st0" d="M205.6,109.2c-0.2,0.2-0.3,0.4-0.4,0.6c-0.1,0.2-0.2,0.5-0.2,0.7c-0.1,0.5-0.3,1.1-0.4,1.8
	c-0.2,1.3-0.4,2.7-0.4,3.7l1.5,0.1c0.1-0.9,0.2-2.3,0.4-3.6c0.1-0.6,0.2-1.2,0.3-1.6c0.1-0.2,0.1-0.4,0.2-0.5
	c0.1-0.1,0.1-0.2,0.1-0.1L205.6,109.2z M207.7,110.6c0-0.2,0-0.4,0-0.6c0-0.2-0.1-0.4-0.2-0.6c-0.1-0.2-0.4-0.5-0.9-0.6
	c-0.4,0-0.7,0.2-0.9,0.4l1.1,1.1c0.1-0.1,0.1-0.1,0,0s-0.1,0.1-0.2,0c-0.1,0-0.2-0.1-0.3-0.1c-0.1-0.1-0.1-0.1-0.1-0.1
	c0,0,0,0,0,0.2c0,0.1,0,0.2,0,0.3C206.2,110.6,207.7,110.6,207.7,110.6z M204.2,116c0,0.4,0.3,0.8,0.7,0.8s0.8-0.3,0.8-0.7
	L204.2,116z M206.2,110.6c0,0.4,0.3,0.8,0.8,0.8s0.8-0.3,0.8-0.8H206.2z"/>
<path class="st0" d="M196.6,99.2c-1.1,0.2-2,0.8-2.5,1.7l1.3,0.8c0.3-0.6,0.9-0.9,1.5-1L196.6,99.2z M194.1,101l-2.4,4l1.3,0.8
	l2.4-4L194.1,101z M197.8,99l-1.1,0.2l0.3,1.5l1.1-0.2L197.8,99z M196.8,100l0.1,0.7L196.8,100z M191.7,105c-0.2,0.3-0.1,0.8,0.2,1
	c0.4,0.2,0.8,0.1,1-0.2L191.7,105z M198.1,100.5c0.4-0.1,0.7-0.5,0.6-0.9s-0.5-0.7-0.9-0.6L198.1,100.5z"/>
<path class="st0" d="M190.3,97.7c-1.1,0.2-2,0.8-2.5,1.7l1.3,0.8c0.3-0.6,0.9-0.9,1.5-1L190.3,97.7z M187.8,99.4l-2.4,4l1.3,0.8
	l2.4-4L187.8,99.4z M191.5,97.5l-1.1,0.2l0.3,1.5l1.1-0.2L191.5,97.5z M190.5,98.4l0.1,0.7L190.5,98.4z M185.4,103.4
	c-0.2,0.3-0.1,0.8,0.2,1c0.4,0.2,0.8,0.1,1-0.2L185.4,103.4z M191.7,98.9c0.4-0.1,0.7-0.5,0.6-0.9s-0.5-0.7-0.9-0.6L191.7,98.9z"/>
<path class="st0" d="M179,100.9c-0.7,0.7-1.7,1.9-2.4,3.1c-0.3,0.6-0.6,1.3-0.8,2c-0.1,0.7-0.1,1.4,0.2,2.1l1.3-0.7
	c-0.1-0.3-0.2-0.7-0.1-1.1c0.1-0.5,0.3-1,0.6-1.6c0.6-1.1,1.5-2.2,2.1-2.8L179,100.9z M176.1,108.1c0.2,0.4,0.6,0.5,1,0.3
	s0.5-0.6,0.3-1L176.1,108.1z M180,102c0.3-0.3,0.3-0.8,0-1.1s-0.8-0.3-1.1,0L180,102z"/>
<path class="st6" d="M197.9,140.3c2.2-0.2,3.8-0.5,4.6-0.6c-0.8-5.9-1.5-10.6-1.8-12.2l-24.1,0.2c-0.3,1.6-1,6.2-1.8,12.1
	c0.1,0,0.2,0.1,0.4,0.1c-0.1,0-0.2,0-0.3-0.1c-1.8,12.9-3.5,32,1.4,36.8c4.9,4.8,20,4.7,24.9-0.2c4.8-4.9,3.2-23.8,1.5-36.7
	C201.9,139.9,200.2,140.1,197.9,140.3z M174.9,139.8L174.9,139.8L174.9,139.8L174.9,139.8z"/>
<path class="st0" d="M201.1,134.5c1.5,3.9,3.3,10.6,3.8,18.1c0.5,7.5-0.2,15.8-3.8,22.7l1.3,0.7c3.7-7.3,4.5-15.8,3.9-23.5
	c-0.5-7.7-2.4-14.6-3.9-18.6L201.1,134.5z M201.1,175.4c-0.2,0.4,0,0.8,0.3,1c0.4,0.2,0.8,0,1-0.3L201.1,175.4z M202.5,134
	c-0.1-0.4-0.6-0.6-1-0.4c-0.4,0.1-0.6,0.6-0.4,1L202.5,134z"/>
<path class="st1" d="M289.8,127.1l-1,0.3c-4.1,1.2-7.6,2.3-11.9,1.7c-3.8-0.6-6.9-2.4-8.7-5.2c-2-3-2.3-6.9-1-11.4
	c0.1-0.4-0.1-0.7-0.5-0.8c-0.4-0.1-0.7,0.1-0.8,0.5c-0.2,0.8-0.4,1.6-0.5,2.3l-1.4-0.7c-0.5-0.8-0.7-2.2-0.8-3.3
	c0-0.3-0.1-0.6-0.1-0.9c-0.2-1.3,0.1-1.8,1.4-2.6c1.4-0.9,3.2-1.7,4.3-0.1l2.6,3.8c0.2,0.3,0.6,0.4,0.9,0.2s0.4-0.6,0.2-0.9
	l-2.6-3.8c-0.8-1.2-2-1.6-3.4-1.4c0.3-0.8,1-1.9,1.2-2.1c1.2-1,2.8-1.4,4.1-1.1h0c1,0.2,1.8,0.8,2.2,1.7l3.6,5.1
	c0.2,0.3,0.6,0.4,0.9,0.2c0.3-0.2,0.4-0.6,0.2-0.9l-3.5-5c-0.3-0.6-0.8-1.2-1.4-1.6c0.4-0.9,1.2-1.2,1.8-1.4c1.2-0.3,2.7,0,3.6,0.8
	c2.2,1.8,3.4,3.8,4.7,6.3c0.1,0.2,0.3,0.3,0.5,0.3c0.1,0,0.3,0,0.5-0.1c0.3-0.2,0.5-0.6,0.3-0.9c-1.3-2.6-2.6-4.8-5-6.8
	c-0.1-0.1-0.1-0.1-0.2-0.1c1.1-1.2,2.7-1.5,4.1-0.9c0.9,0.4,3.6,2.7,6.3,5.4c1.7,1.8,2.4,3.4,2.3,5.6c0,0.3,0.2,0.6,0.5,0.7
	c0,0,0.1,0,0.1,0c0.4,0,0.7-0.3,0.7-0.6c0.1-2.1-0.4-3.8-1.7-5.5c2.6,1.2,4.8,3,5.3,4.6c0.8,2.6,0.3,9.3-2.3,14.1
	C293.7,124.9,291.9,126.5,289.8,127.1z"/>
<path class="st1" d="M295.1,122.2c-1.4,2.6-3.2,4.2-5.3,4.8l-1,0.3c-4.1,1.2-7.6,2.3-11.9,1.7c-3.8-0.6-6.9-2.4-8.7-5.2
	c-2-3-2.3-6.9-1-11.4c0.1-0.4-0.1-0.7-0.5-0.8c-0.4-0.1-0.7,0.1-0.8,0.5c-0.2,0.8-0.4,1.6-0.5,2.3l-1.4-0.7
	c-0.5-0.8-0.7-2.2-0.8-3.3c0-0.3-0.1-0.6-0.1-0.9c-0.2-1.3,0.1-1.8,1.4-2.6c1.4-0.9,3.2-1.7,4.3-0.1l2.6,3.8
	c0.2,0.3,0.6,0.4,0.9,0.2s0.4-0.6,0.2-0.9l-2.6-3.8c-0.8-1.2-2-1.6-3.4-1.4c0.3-0.8,1-1.9,1.2-2.1c1.2-1,2.8-1.4,4.1-1.1h0
	c1,0.2,1.8,0.8,2.2,1.7l3.6,5.1c0.2,0.3,0.6,0.4,0.9,0.2c0.3-0.2,0.4-0.6,0.2-0.9l-3.5-5c-0.3-0.6-0.8-1.2-1.4-1.6
	c0.4-0.9,1.2-1.2,1.8-1.4c1.2-0.3,2.7,0,3.6,0.8c2.2,1.8,3.4,3.8,4.7,6.3c0.1,0.2,0.3,0.3,0.5,0.3c0.1,0,0.3,0,0.5-0.1
	c0.3-0.2,0.5-0.6,0.3-0.9c-1.3-2.6-2.6-4.8-5-6.8c-0.1-0.1-0.1-0.1-0.2-0.1c1.1-1.2,2.7-1.5,4.1-0.9c0.9,0.4,3.6,2.7,6.3,5.4
	c1.7,1.8,2.4,3.4,2.3,5.6c0,0.3,0.2,0.6,0.5,0.7c0,0,0.1,0,0.1,0c0.4,0,0.7-0.3,0.7-0.6c0.1-2.1-0.4-3.8-1.7-5.5
	c2.6,1.2,4.8,3,5.3,4.6C298.2,110.8,297.7,117.5,295.1,122.2z M296.3,122.9c2.8-5.1,3.3-12.2,2.4-15.1c-0.8-2.6-4.7-5.2-8-6.2
	c-0.1,0-0.3,0-0.4,0c-1.9-1.8-4.6-4.4-5.9-4.9c-2.1-0.9-4.4-0.3-5.9,1.5c-1.1-0.4-2.3-0.5-3.4-0.2c-1.2,0.3-2.1,1.1-2.6,2.1
	c-0.1-0.1-0.3-0.1-0.4-0.1c0,0,0,0,0,0c-1.8-0.4-3.7,0.1-5.3,1.4c-0.6,0.5-1.9,2.8-1.9,3.7c-0.4,0.2-0.8,0.4-1.2,0.7
	c-1.5,1-2.2,1.9-2,4c0,0.3,0.1,0.6,0.1,0.9c0.1,1.4,0.3,3.1,1.2,4.1c0.1,0.1,0.1,0.1,0.2,0.2l2,1c-0.3,3.3,0.3,6.3,1.9,8.8
	c1.8,2.8,4.9,4.8,8.5,5.6c0.4,0.1,0.8,0.2,1.2,0.2c4.6,0.7,8.3-0.4,12.5-1.7l1-0.3C292.6,127.7,294.7,125.8,296.3,122.9L296.3,122.9
	z"/>
<path class="st0" d="M266.3,104.7c1,0.2,2,0.9,2.5,1.8l-1.3,0.8c-0.3-0.6-0.9-0.9-1.5-1.1L266.3,104.7z M268.8,106.5l2.4,4l-1.3,0.8
	l-2.4-4L268.8,106.5z M265.2,104.5l1.1,0.2l-0.3,1.5l-1.1-0.2L265.2,104.5z M266.1,105.4l-0.1,0.7L266.1,105.4z M271.2,110.5
	c0.2,0.4,0.1,0.8-0.3,1s-0.8,0.1-1-0.3L271.2,110.5z M264.9,106c-0.4-0.1-0.7-0.5-0.6-0.9c0.1-0.4,0.5-0.7,0.9-0.6L264.9,106z"/>
<path class="st0" d="M264.8,109.2c0.2,0.2,0.3,0.4,0.4,0.6c0.1,0.2,0.2,0.5,0.2,0.7c0.1,0.5,0.3,1.1,0.4,1.8
	c0.2,1.3,0.4,2.7,0.4,3.7l-1.5,0.1c-0.1-0.9-0.2-2.3-0.4-3.6c-0.1-0.6-0.2-1.2-0.3-1.6c-0.1-0.2-0.1-0.4-0.2-0.5
	c-0.1-0.1-0.1-0.2-0.1-0.1L264.8,109.2z M262.7,110.6c0-0.2,0-0.4,0-0.6c0-0.2,0.1-0.4,0.2-0.6c0.1-0.2,0.4-0.5,0.9-0.6
	c0.4,0,0.7,0.2,0.9,0.4l-1.1,1.1c0-0.1-0.1-0.1,0,0s0.1,0.1,0.2,0c0.1,0,0.2-0.1,0.3-0.1c0.1-0.1,0.1-0.1,0.1-0.1c0,0,0,0,0,0.2
	c0,0.1,0,0.2,0,0.3C264.2,110.6,262.7,110.6,262.7,110.6z M266.2,116c0,0.4-0.3,0.8-0.7,0.8c-0.4,0-0.8-0.3-0.8-0.7L266.2,116z
	 M264.2,110.6c0,0.4-0.3,0.8-0.8,0.8s-0.8-0.3-0.8-0.8H264.2z"/>
<path class="st0" d="M273.4,99.2c1,0.2,2,0.8,2.5,1.7l-1.3,0.8c-0.3-0.6-0.9-0.9-1.5-1L273.4,99.2z M275.9,101l2.4,4l-1.3,0.8
	l-2.4-4L275.9,101z M272.3,99l1.1,0.2l-0.3,1.5l-1.1-0.2L272.3,99z M273.3,100l-0.1,0.7L273.3,100z M278.4,105
	c0.2,0.3,0.1,0.8-0.2,1c-0.4,0.2-0.8,0.1-1-0.2L278.4,105z M272,100.5c-0.4-0.1-0.7-0.5-0.6-0.9c0.1-0.4,0.5-0.7,0.9-0.6L272,100.5z
	"/>
<path class="st0" d="M279.7,97.7c1,0.2,2,0.8,2.5,1.7l-1.3,0.8c-0.3-0.6-0.9-0.9-1.5-1L279.7,97.7z M282.2,99.4l2.4,4l-1.3,0.8
	l-2.4-4L282.2,99.4z M278.6,97.5l1.1,0.2l-0.3,1.5l-1.1-0.2L278.6,97.5z M279.6,98.4l-0.1,0.7L279.6,98.4z M284.7,103.4
	c0.2,0.3,0.1,0.8-0.2,1c-0.4,0.2-0.8,0.1-1-0.2L284.7,103.4z M278.3,98.9c-0.4-0.1-0.7-0.5-0.6-0.9c0.1-0.4,0.5-0.7,0.9-0.6
	L278.3,98.9z"/>
<path class="st0" d="M290.8,100.9c0.7,0.7,1.7,1.9,2.4,3.1c0.3,0.6,0.6,1.3,0.8,2s0.1,1.4-0.2,2.1l-1.3-0.7c0.1-0.3,0.2-0.7,0.1-1.1
	c-0.1-0.5-0.3-1-0.6-1.6c-0.6-1.1-1.5-2.2-2.1-2.8L290.8,100.9z M293.7,108.1c-0.2,0.4-0.6,0.5-1,0.3s-0.5-0.6-0.3-1L293.7,108.1z
	 M289.8,102c-0.3-0.3-0.3-0.8,0-1.1s0.8-0.3,1.1,0L289.8,102z"/>
<path class="st6" d="M295,139.9C295,139.9,295,139.9,295,139.9c1.9,12.9,3.6,31.9-1.3,36.8c-4.9,4.8-20,4.7-24.9-0.2
	c-4.8-4.9-3.2-23.8-1.5-36.7c0,0,0.1,0,0.1,0c0.7-6,1.4-10.6,1.7-12.2l24.1,0.2C293.5,129.4,294.2,133.9,295,139.9z"/>
<path class="st7" d="M183,69.4c-1.9,3.6-3.8,5.4-7.4,7.4c3.6,1.9,5.4,3.8,7.4,7.4c1.9-3.6,3.8-5.4,7.4-7.4
	C186.8,74.9,184.9,73,183,69.4z"/>
<path class="st7" d="M294.5,82.3c-0.8,1.4-1.7,2.3-3.1,3.2c1.4,0.8,2.3,1.7,3.1,3.2c0.8-1.4,1.7-2.3,3.1-3.2
	C296.2,84.6,295.4,83.8,294.5,82.3z"/>
<path class="st7" d="M282,61.7c-1.5,2.8-3,4.2-5.7,5.7c2.8,1.5,4.2,3,5.7,5.7c1.5-2.8,3-4.2,5.7-5.7C285,65.9,283.5,64.4,282,61.7z"
	/>
<polygon class="st5" points="254.7,115.7 247.6,106.4 235.4,114.5 241.3,124.4 "/>
<path class="st0" d="M269.3,132.6c-1.9,4.8-2.8,13.5-1.9,22.6c0.9,9,3.7,18.1,9.2,23.6l-1.1,1.1c-5.8-5.9-8.7-15.4-9.6-24.5
	c-0.9-9.2,0-18.2,2-23.3L269.3,132.6z M276.6,178.8c0.3,0.3,0.3,0.8,0,1.1s-0.8,0.3-1.1,0L276.6,178.8z M267.9,132
	c0.1-0.4,0.6-0.6,1-0.4c0.4,0.1,0.6,0.6,0.4,1L267.9,132z"/>
</svg>
