<svg width="700" height="400" viewBox="0 0 700 400" fill="none" xmlns="http://www.w3.org/2000/svg">
<mask id="mask0_393_2377" style="mask-type:alpha" maskUnits="userSpaceOnUse" x="0" y="0" width="700" height="400">
<rect width="700" height="400" rx="20" transform="matrix(-1 0 0 1 700 0)" fill="white"/>
</mask>
<g mask="url(#mask0_393_2377)">
<path d="M586.536 137.583C585.399 137.51 584.386 138.175 583.959 139.166L526.052 120.232C526.083 120.096 526.106 119.956 526.116 119.814C526.206 118.362 525.104 117.114 523.654 117.023C522.204 116.931 520.955 118.034 520.863 119.484C520.848 119.716 520.867 119.942 520.91 120.16L488.462 129.784C488.094 128.87 487.233 128.2 486.185 128.135C484.735 128.044 483.486 129.147 483.394 130.597C483.355 131.239 483.549 131.841 483.901 132.321L456.118 157.021C455.687 156.619 455.12 156.357 454.485 156.316C453.797 156.274 453.158 156.501 452.662 156.903L391.17 94.1571C391.525 93.7409 391.754 93.2097 391.792 92.6217C391.884 91.1715 390.781 89.9225 389.331 89.8306C387.88 89.7387 386.631 90.8423 386.539 92.2925C386.514 92.7149 386.591 93.1182 386.746 93.4823L293.208 143.792C293.152 142.463 292.099 141.364 290.742 141.278C289.292 141.186 288.043 142.289 287.951 143.74C287.943 143.872 287.947 144.001 287.96 144.13L249.532 151.075C249.239 150.024 248.312 149.224 247.163 149.153C246.585 149.116 246.041 149.272 245.587 149.562L215.332 110.52L215.984 110.39L215.038 110.144L214.855 109.909L214.769 110.076L133.737 89.0104C133.75 88.9253 133.761 88.8392 133.767 88.7509C133.859 87.3008 132.755 86.0517 131.305 85.9598C129.855 85.8679 128.606 86.9715 128.514 88.4217C128.422 89.8719 129.526 91.1209 130.976 91.2128C131.515 91.247 132.027 91.1134 132.462 90.8603L154.294 121.512C154.283 121.581 154.274 121.652 154.269 121.725C154.245 122.087 154.299 122.436 154.412 122.759L96.3322 149.308C95.9055 148.567 95.1316 148.048 94.215 147.991C92.7648 147.899 91.5157 149.002 91.4238 150.453C91.3319 151.903 92.4355 153.152 93.8857 153.244C94.4584 153.28 95.0019 153.126 95.4517 152.84L122.431 187.956C121.954 188.398 121.636 189.016 121.593 189.72C121.534 190.663 121.98 191.517 122.693 192.026L106.859 219.299C106.57 219.164 106.254 219.078 105.918 219.058C104.467 218.966 103.218 220.07 103.126 221.52C103.035 222.97 104.138 224.219 105.588 224.311C106.469 224.365 107.274 223.979 107.792 223.344L136.824 242.827C136.645 243.154 136.532 243.522 136.507 243.921C136.425 245.223 137.305 246.359 138.535 246.646L132.132 281.855C130.694 281.782 129.462 282.877 129.372 284.318C129.28 285.768 130.384 287.017 131.834 287.109C132.087 287.125 132.333 287.103 132.569 287.05L141.482 312.355C140.632 312.746 140.017 313.58 139.956 314.581C139.939 314.841 139.963 315.094 140.02 315.334L101.285 328.106C100.902 327.23 100.058 326.593 99.0387 326.53C97.5885 326.438 96.3395 327.542 96.2476 328.992C96.1557 330.442 97.2593 331.691 98.7094 331.783C98.8161 331.79 98.9193 331.787 99.0235 331.782L107.981 391.268C106.893 391.536 106.058 392.484 105.984 393.658C105.892 395.109 106.996 396.358 108.446 396.45C109.896 396.541 111.145 395.438 111.237 393.988C111.264 393.574 111.189 393.177 111.04 392.818L188.954 351.81C189.4 352.417 190.1 352.829 190.91 352.88C192.36 352.972 193.609 351.868 193.701 350.418C193.793 348.968 192.689 347.719 191.239 347.627C191.095 347.619 190.953 347.625 190.813 347.638L183.244 317.609C184.237 317.284 184.985 316.381 185.054 315.273C185.076 314.914 185.024 314.566 184.914 314.246L250.607 281.893C251.04 282.599 251.798 283.089 252.685 283.146C254.135 283.238 255.384 282.135 255.476 280.684C255.568 279.234 254.464 277.985 253.014 277.893C252.681 277.872 252.359 277.918 252.061 278.012L238.944 246.784C239.722 246.37 240.275 245.574 240.333 244.628L240.335 244.87L326.45 244.004C326.579 245.263 327.598 246.279 328.9 246.361C329.572 246.404 330.198 246.186 330.689 245.801L355.452 271.944C355.081 272.366 354.839 272.907 354.803 273.512C354.714 274.964 355.815 276.212 357.265 276.303C358.715 276.395 359.964 275.292 360.056 273.842C360.092 273.276 359.945 272.741 359.665 272.295L403.085 239.549C403.53 240.038 404.154 240.361 404.865 240.405C406.315 240.497 407.564 239.394 407.656 237.944C407.694 237.339 407.524 236.772 407.207 236.308L432.964 215.201C433.402 215.647 433.998 215.938 434.67 215.981C436.12 216.072 437.369 214.969 437.461 213.519C437.471 213.365 437.463 213.214 437.448 213.068L497.016 199.694C497.353 200.666 498.247 201.388 499.338 201.457C500.158 201.508 500.916 201.177 501.435 200.615L535.159 225.482C534.932 225.842 534.789 226.263 534.759 226.718C534.667 228.169 535.771 229.418 537.221 229.51C538.672 229.599 539.92 228.498 540.012 227.048C540.012 227.037 540.011 227.026 540.013 227.016L571.935 222.591L588.808 220.252C589.138 221.24 590.037 221.98 591.141 222.05C592.591 222.142 593.84 221.038 593.932 219.588C594.002 218.46 593.352 217.457 592.378 217.022L600.403 180.367C600.439 180.37 600.476 180.377 600.515 180.379C601.965 180.471 603.214 179.367 603.306 177.917C603.398 176.467 602.295 175.218 600.844 175.126C600.5 175.105 600.168 175.151 599.86 175.254L587.525 142.573C588.347 142.172 588.938 141.354 588.998 140.374C589.09 138.924 587.986 137.674 586.536 137.583ZM589.996 217.142C589.255 217.568 588.736 218.342 588.679 219.259C588.668 219.436 588.676 219.609 588.697 219.777L569.565 222.43L539.993 226.53C539.959 226.275 539.887 226.033 539.784 225.805L578.736 195.452L589.994 217.141L589.996 217.142ZM402.849 236.308L381.04 224.358L396.069 192.606C396.3 192.69 396.547 192.746 396.805 192.762C396.927 192.771 397.048 192.765 397.167 192.757L404.351 235.236C403.733 235.401 403.2 235.785 402.849 236.308ZM358.328 271.208C358.096 271.124 357.849 271.067 357.591 271.052C357.44 271.043 357.295 271.048 357.151 271.064L344.22 206.569C344.805 206.395 345.309 206.021 345.646 205.522L380.407 224.567L358.33 271.209L358.328 271.208ZM126.716 185.244L148.155 207.738L126.451 191.275C126.674 190.918 126.812 190.5 126.843 190.048C126.907 189.032 126.384 188.118 125.57 187.629L126.716 185.244ZM96.6746 150.781C96.6963 150.418 96.6443 150.07 96.5323 149.747L154.613 123.202C154.836 123.59 155.156 123.916 155.542 124.147L126.584 184.397L96.0304 152.341C96.3982 151.92 96.6367 151.38 96.6757 150.779L96.6746 150.781ZM388.023 94.831C388.293 94.9595 388.586 95.0428 388.898 95.0756L388.532 138.535C387.252 138.641 386.209 139.672 386.127 140.992L359.832 141.795L388.023 94.831ZM598.313 176.594C598.289 176.644 598.265 176.697 598.246 176.75L563.538 161.656C563.606 161.447 563.651 161.229 563.667 161.001C563.706 160.4 563.535 159.835 563.223 159.371L569.165 154.532L598.313 176.594ZM504.333 146.033L493.294 143.202C493.308 143.12 493.318 143.036 493.323 142.95C493.356 142.413 493.226 141.905 492.977 141.472L499.9 136.589L557.485 159.673L504.333 146.033ZM493.174 143.671L531.778 153.577L558.443 160.42C558.429 160.501 558.419 160.585 558.414 160.671C558.383 161.15 558.485 161.605 558.686 162.007L516.321 188.201L492.187 144.956C492.637 144.645 492.987 144.2 493.176 143.674L493.174 143.671ZM562.916 158.994C562.477 158.545 561.88 158.251 561.205 158.21C560.551 158.168 559.94 158.37 559.455 158.737L525.443 121.435L568.767 154.23L562.915 158.996L562.916 158.994ZM523.322 122.275C523.976 122.316 524.588 122.114 525.072 121.747L559.097 159.063C558.942 159.234 558.807 159.426 558.699 159.633L500.375 136.253L521.489 121.355C521.937 121.878 522.583 122.227 523.324 122.272L523.322 122.275ZM521.206 120.961L499.837 136.04L488.541 131.512C488.595 131.326 488.633 131.129 488.646 130.929C488.661 130.697 488.643 130.471 488.6 130.253L521.047 120.629C521.093 120.744 521.145 120.857 521.208 120.964L521.206 120.961ZM487.195 133.115C487.693 132.864 488.105 132.464 488.359 131.964L499.362 136.373L492.698 141.077C492.25 140.554 491.604 140.205 490.864 140.16C490.556 140.14 490.258 140.177 489.976 140.258L487.195 133.115ZM488.884 144.691L468.207 170.898L456.441 160.496C456.728 160.104 456.912 159.63 456.947 159.107C456.969 158.756 456.918 158.416 456.813 158.101L488.402 144.07C488.531 144.299 488.693 144.509 488.884 144.691ZM435.645 210.855C435.44 210.788 435.222 210.743 434.996 210.729C434.552 210.702 434.131 210.784 433.754 210.954L414.49 180.884L452.134 160.409C452.401 160.807 452.772 161.128 453.212 161.333L435.644 210.857L435.645 210.855ZM235.614 242.865L212.576 226.941C212.784 226.592 212.918 226.191 212.943 225.758C212.955 225.547 212.941 225.342 212.906 225.14L222.333 221.417L235.939 242.512C235.819 242.62 235.711 242.738 235.611 242.866L235.614 242.865ZM145.198 314.535C145.132 313.695 144.667 312.956 143.983 312.521L151.911 296.921L180.019 314.057C179.899 314.331 179.821 314.63 179.801 314.944L145.199 314.533L145.198 314.535ZM180.252 313.632L152.13 296.487L176.798 247.955C177.049 248.054 177.319 248.118 177.603 248.135C177.635 248.137 177.668 248.136 177.699 248.137L181.968 312.521C181.26 312.647 180.647 313.055 180.253 313.63L180.252 313.632ZM388.585 143.784C388.707 143.793 388.825 143.789 388.944 143.78L396.296 187.595C395.572 187.786 394.963 188.279 394.625 188.942L364.098 176.76L387.446 143.441C387.785 143.633 388.169 143.757 388.585 143.784ZM394.446 189.394C394.391 189.581 394.355 189.773 394.341 189.976C394.328 190.183 394.343 190.386 394.377 190.584L346.039 203.536C345.991 203.3 345.913 203.076 345.806 202.868L363.811 177.173L394.445 189.397L394.446 189.394ZM345.524 202.422C345.312 202.157 345.053 201.932 344.756 201.764L343.814 174.002L343.722 171.314C344.578 171.207 345.314 170.687 345.713 169.946L363.351 176.982L345.526 202.418L345.524 202.422ZM343.229 171.331C343.229 171.331 343.231 171.332 343.233 171.333L343.325 174.01L344.26 201.551C344.059 201.487 343.846 201.444 343.625 201.43C343.26 201.407 342.909 201.46 342.586 201.572L327.367 184.595L341.707 170.726C342.122 171.072 342.646 171.298 343.228 171.333L343.229 171.331ZM387.048 143.161L363.634 176.576L345.9 169.499C345.964 169.299 346.006 169.088 346.02 168.869C346.048 168.413 345.958 167.977 345.777 167.59L386.637 142.726C386.756 142.886 386.894 143.031 387.048 143.161ZM292.839 145.244L340.905 167.859C340.831 168.074 340.783 168.303 340.767 168.54C340.724 169.235 340.956 169.882 341.367 170.379L327.044 184.23L292.501 145.698C292.63 145.559 292.741 145.408 292.836 145.243L292.839 145.244ZM326.695 184.569L310.031 200.687C309.63 200.379 309.139 200.185 308.597 200.152C308.386 200.139 308.179 200.153 307.98 200.189L298.016 167.494L291.57 146.344C291.775 146.26 291.967 146.154 292.14 146.023L326.695 184.569ZM158.866 123.633L178.235 138.074L190.206 147.002C189.99 147.356 189.853 147.764 189.825 148.21C189.769 149.082 190.149 149.878 190.773 150.397L183.414 161.142L158.584 123.911C158.686 123.825 158.78 123.732 158.869 123.634L158.866 123.633ZM241.009 211.424L204.499 190.687C204.625 190.405 204.71 190.096 204.729 189.77C204.763 189.207 204.617 188.675 204.341 188.227L215.814 178.51L241.354 211.022C241.225 211.144 241.108 211.28 241.006 211.425L241.009 211.424ZM204.051 187.837C203.606 187.348 202.981 187.022 202.267 186.979C202.087 186.967 201.912 186.974 201.74 186.998L193.283 150.87C193.493 150.799 193.692 150.702 193.875 150.583L215.515 178.129L204.05 187.84L204.051 187.837ZM191.173 150.671C191.505 150.856 191.881 150.975 192.287 151.001C192.464 151.011 192.641 151.005 192.81 150.982L195.826 163.887L201.252 187.114C201.112 187.161 200.979 187.222 200.85 187.291L183.702 161.577L191.171 150.668L191.173 150.671ZM200.448 187.562C199.896 188.01 199.524 188.675 199.476 189.44C199.457 189.751 199.494 190.05 199.575 190.331L152.767 208.585C152.602 208.26 152.374 207.973 152.094 207.741L183.407 162.013L200.447 187.564L200.448 187.562ZM153.042 209.926C153.061 209.615 153.024 209.316 152.943 209.035L199.751 190.781C199.988 191.256 200.367 191.65 200.834 191.907L188.76 219.646L153.011 210.195C153.026 210.105 153.035 210.016 153.04 209.925L153.042 209.926ZM201.28 192.102C201.489 192.17 201.709 192.216 201.937 192.232C202.007 192.237 202.076 192.234 202.143 192.234L209.61 223.064C208.799 223.292 208.138 223.898 207.846 224.692L189.235 219.771L201.28 192.102ZM210.48 222.969C210.347 222.961 210.216 222.966 210.088 222.976L202.629 192.179C202.873 192.129 203.102 192.045 203.317 191.934L222.066 221L212.78 224.669C212.428 223.73 211.549 223.033 210.483 222.968L210.48 222.969ZM203.724 191.671C203.892 191.54 204.046 191.389 204.178 191.22L240.765 211.854C240.64 212.134 240.56 212.439 240.539 212.765C240.519 213.077 240.558 213.38 240.642 213.665L222.527 220.821L203.726 191.672L203.724 191.671ZM305.807 202.612C305.805 202.651 305.806 202.689 305.806 202.729L270.238 208.381L245.718 212.277C245.579 211.735 245.27 211.259 244.85 210.907L271.395 172.26L306.366 201.149C306.045 201.554 305.841 202.057 305.807 202.612ZM243.087 210.297C242.592 210.31 242.133 210.463 241.741 210.717L216.188 178.192L245.152 153.661C245.533 154.035 246.028 154.295 246.587 154.384L243.087 210.297ZM244.836 153.292L215.887 177.81L194.258 150.28C194.67 149.89 194.958 149.37 195.05 148.778L244.363 151.865C244.377 152.391 244.549 152.884 244.836 153.292ZM192.615 145.745C191.781 145.693 191.015 146.036 190.495 146.611L181.768 140.102L159.155 123.239C159.209 123.147 159.259 123.05 159.303 122.95L200.918 136.756L195.061 148.04C194.906 146.81 193.899 145.826 192.615 145.745ZM156.998 124.525C157.426 124.508 157.829 124.388 158.184 124.189L183.118 161.575L151.695 207.464C151.438 207.32 151.156 207.218 150.853 207.165L156.998 124.525ZM152.887 210.662L188.567 220.095L178.591 243.012C178.381 242.944 178.161 242.898 177.933 242.882C177.36 242.846 176.82 242.998 176.371 243.282L152.201 211.691C152.503 211.411 152.741 211.061 152.887 210.662ZM179.036 243.206L189.041 220.222L207.72 225.161C207.705 225.251 207.696 225.34 207.691 225.432C207.66 225.905 207.761 226.357 207.957 226.757L179.877 243.939C179.654 243.639 179.368 243.391 179.037 243.21L179.036 243.206ZM236.332 242.221L222.795 221.236L240.821 214.116C241.15 214.765 241.739 215.262 242.463 215.463L237.708 241.836C237.207 241.835 236.734 241.974 236.333 242.219L236.332 242.221ZM238.193 241.882L242.941 215.547C242.962 215.548 242.981 215.552 243.002 215.554C244.452 215.646 245.701 214.542 245.793 213.092C245.8 212.98 245.799 212.867 245.792 212.756L300.639 204.043L305.842 203.215C305.872 203.393 305.92 203.565 305.983 203.729L239.758 242.824C239.374 242.345 238.827 241.999 238.191 241.879L238.193 241.882ZM310.389 201.017L327.022 184.933L342.132 201.787C341.44 202.196 340.95 202.914 340.853 203.764L311.043 202.432C310.972 201.895 310.738 201.408 310.39 201.02L310.389 201.017ZM397.136 187.512C397.014 187.504 396.897 187.508 396.777 187.517L389.425 143.702C389.612 143.652 389.792 143.583 389.959 143.495L413.799 180.709L399.153 188.676C398.711 188.019 397.984 187.568 397.133 187.514L397.136 187.512ZM451.694 158.783C451.666 159.21 451.747 159.618 451.905 159.986L414.231 180.479L390.37 143.234C390.749 142.938 391.047 142.541 391.219 142.08L451.729 158.497C451.712 158.591 451.699 158.687 451.694 158.783ZM386.142 141.482C386.18 141.775 386.263 142.056 386.39 142.313L345.538 167.172C345.377 166.947 345.179 166.751 344.954 166.584L359.536 142.292L386.143 141.48L386.142 141.482ZM344.537 166.336C344.239 166.192 343.911 166.103 343.56 166.079C342.518 166.014 341.583 166.564 341.103 167.415L293.046 144.805C293.103 144.649 293.146 144.487 293.172 144.317L358.955 142.308L344.533 166.331L344.537 166.336ZM290.41 146.537C290.65 146.553 290.882 146.532 291.104 146.486L307.51 200.316C307.211 200.428 306.936 200.592 306.701 200.798L271.67 171.86L289.291 146.206C289.625 146.394 290.002 146.511 290.41 146.537ZM271.019 171.95L244.45 210.632C244.184 210.484 243.891 210.377 243.573 210.328L247.073 154.415C247.766 154.395 248.395 154.104 248.858 153.639L271.021 171.948L271.019 171.95ZM244.395 151.381L195.468 148.318L201.389 136.913L244.434 151.193C244.419 151.256 244.406 151.317 244.395 151.381ZM159.456 122.49C159.489 122.35 159.512 122.208 159.522 122.06C159.532 121.912 159.525 121.766 159.512 121.623L214.445 110.702L201.148 136.321L159.458 122.491L159.456 122.49ZM155.979 124.364C156.114 124.414 156.257 124.453 156.402 124.481L156.504 124.625L150.37 207.133C149.775 207.142 149.227 207.353 148.786 207.7L126.941 184.781L155.976 124.365L155.979 124.364ZM107.276 219.547L123.111 192.275C123.4 192.409 123.716 192.495 124.052 192.515C124.268 192.53 124.477 192.512 124.682 192.476L130.843 214.737L108.222 220.779C108.039 220.28 107.708 219.852 107.279 219.548L107.276 219.547ZM125.15 192.346C125.537 192.2 125.883 191.964 126.157 191.663L148.182 208.369C147.959 208.727 147.821 209.144 147.789 209.596C147.776 209.804 147.791 210.007 147.823 210.202L131.311 214.612L125.15 192.346ZM147.948 210.67C148.197 211.344 148.712 211.889 149.375 212.174L139.824 241.549C139.656 241.502 139.477 241.472 139.295 241.46C139.107 241.448 138.923 241.458 138.744 241.485L131.437 215.078L147.946 210.669L147.948 210.67ZM140.28 241.721L148.542 216.305L141.741 243.75C141.626 242.863 141.066 242.104 140.28 241.721ZM150.02 212.36C150.095 212.371 150.172 212.38 150.249 212.386C150.822 212.423 151.362 212.27 151.811 211.986L175.981 243.578C175.501 244.021 175.182 244.642 175.138 245.345C175.099 245.965 175.28 246.548 175.612 247.019L133.767 282.539C133.485 282.282 133.142 282.085 132.765 281.968L150.019 212.357L150.02 212.36ZM175.928 247.389C176.061 247.518 176.204 247.635 176.363 247.737L151.714 296.234L134.353 285.651C134.503 285.346 134.598 285.01 134.62 284.647C134.662 283.994 134.458 283.384 134.094 282.901L175.927 247.391L175.928 247.389ZM134.097 286.062L151.491 296.666L143.544 312.3C143.293 312.202 143.022 312.138 142.738 312.12C142.459 312.103 142.19 312.13 141.932 312.195L133.025 286.9C133.45 286.718 133.819 286.429 134.094 286.061L134.097 286.062ZM142.411 317.374C143.825 317.463 145.044 316.418 145.189 315.021L179.649 315.431L101.949 328.399L140.162 315.8C140.544 316.675 141.389 317.313 142.408 317.376L142.411 317.374ZM101.492 329.323C101.5 329.203 101.496 329.083 101.487 328.966L179.906 315.878C180.022 316.257 180.221 316.601 180.484 316.887L156.747 342.177L101.469 329.505C101.476 329.444 101.485 329.384 101.49 329.322L101.492 329.323ZM182.588 312.484C182.542 312.48 182.495 312.483 182.449 312.483L178.182 248.107C178.969 247.984 179.645 247.506 180.037 246.836L200.472 256.365L182.968 312.537C182.844 312.511 182.719 312.491 182.588 312.484ZM180.243 246.396C180.324 246.169 180.378 245.928 180.392 245.672C180.423 245.199 180.323 244.747 180.126 244.347L208.207 227.165C208.485 227.539 208.864 227.836 209.302 228.019L200.616 255.894L180.241 246.393L180.243 246.396ZM209.77 228.165C209.894 228.191 210.021 228.212 210.152 228.22C210.73 228.256 211.274 228.1 211.727 227.813L251.053 278.598C250.868 278.771 250.708 278.97 250.577 279.193L201.064 256.105L209.772 228.166L209.77 228.165ZM251.436 278.299L212.113 227.515C212.174 227.458 212.234 227.398 212.289 227.332L235.356 243.275C235.198 243.585 235.101 243.931 235.077 244.298C234.988 245.749 236.089 246.997 237.539 247.089C237.872 247.11 238.194 247.064 238.492 246.97L251.607 278.197C251.547 278.228 251.491 278.263 251.434 278.298L251.436 278.299ZM240.025 243.23L306.199 204.162C306.632 204.86 307.387 205.346 308.27 205.401C308.666 205.425 309.048 205.359 309.396 205.221L327.67 241.504C326.989 241.929 326.514 242.659 326.444 243.516L240.335 244.382C240.322 243.966 240.213 243.575 240.026 243.228L240.025 243.23ZM329.226 241.109C328.83 241.085 328.448 241.151 328.1 241.287L310.23 205.803L331.432 236.487L329.726 241.187C329.566 241.144 329.397 241.116 329.225 241.106L329.226 241.109ZM310.123 204.79C310.656 204.342 311.014 203.689 311.061 202.939C311.062 202.931 311.061 202.923 311.062 202.913L340.843 204.245C340.913 205.204 341.501 206.031 342.344 206.429L331.639 235.93L310.125 204.791L310.123 204.79ZM342.8 206.596C342.96 206.639 343.129 206.667 343.301 206.677C343.45 206.685 343.597 206.681 343.741 206.665L356.672 271.159C356.485 271.217 356.305 271.291 356.135 271.386L331.976 236.419L342.8 206.596ZM345.877 205.096C345.996 204.824 346.071 204.53 346.092 204.215C346.096 204.15 346.094 204.085 346.094 204.021L394.503 191.048C394.713 191.615 395.113 192.091 395.629 192.399L380.612 224.126L345.877 205.096ZM399.333 191.295C399.482 190.995 399.575 190.657 399.596 190.3C399.624 189.874 399.543 189.466 399.385 189.098L414.06 181.115L433.331 211.194C433.121 211.34 432.935 211.515 432.775 211.714L399.332 191.292L399.333 191.295ZM436.093 211.048L453.673 161.494C453.829 161.535 453.99 161.562 454.155 161.571C454.91 161.618 455.608 161.34 456.119 160.86L467.905 171.28L436.385 211.232C436.291 211.164 436.194 211.102 436.091 211.047L436.093 211.048ZM468.573 171.222L489.266 144.993C489.635 145.232 490.065 145.384 490.534 145.413C490.646 145.419 490.755 145.416 490.865 145.411L497.24 186.05L498.846 196.286C498.398 196.401 497.995 196.634 497.672 196.947L468.576 171.223L468.573 171.222ZM499.667 196.204C499.553 196.197 499.438 196.2 499.325 196.208L491.344 145.337C491.49 145.301 491.628 145.252 491.763 145.192L515.908 188.456L501.63 197.283C501.184 196.671 500.48 196.254 499.667 196.204ZM516.558 188.625L558.942 162.419C559.202 162.763 559.545 163.04 559.944 163.224L538.411 224.462C538.145 224.349 537.857 224.276 537.552 224.258C537.193 224.235 536.844 224.287 536.525 224.398L516.561 188.624L516.558 188.625ZM539.541 225.378C539.353 225.11 539.116 224.877 538.841 224.695L560.4 163.385C560.553 163.425 560.712 163.451 560.874 163.459C561.284 163.484 561.673 163.414 562.03 163.269L578.506 195.012L539.539 225.377L539.541 225.378ZM562.463 163.047C562.83 162.811 563.133 162.489 563.346 162.103L598.103 177.217C598.078 177.339 598.058 177.461 598.05 177.589C598.008 178.253 598.218 178.873 598.596 179.361L578.899 194.71L562.463 163.047ZM598.571 176.178L569.557 154.215L584.496 142.051C584.935 142.5 585.532 142.794 586.207 142.836C586.506 142.855 586.796 142.821 587.07 142.745L599.413 175.447C599.084 175.629 598.798 175.876 598.571 176.178ZM583.809 139.626C583.778 139.762 583.755 139.902 583.745 140.044C583.706 140.645 583.877 141.21 584.189 141.675L569.158 153.914L525.725 121.036C525.792 120.928 525.852 120.811 525.902 120.692L583.809 139.626ZM484.224 132.686C484.656 133.089 485.223 133.35 485.857 133.392C486.164 133.412 486.463 133.374 486.745 133.294L489.526 140.436C488.715 140.841 488.135 141.654 488.075 142.622C488.053 142.974 488.103 143.314 488.209 143.629L456.619 157.66C456.567 157.566 456.508 157.474 456.444 157.385L484.227 132.685L484.224 132.686ZM452.317 157.246C452.122 157.474 451.965 157.736 451.857 158.026L391.347 141.609C391.364 141.515 391.377 141.419 391.382 141.322C391.471 139.906 390.42 138.684 389.019 138.543L389.385 95.0829C389.926 95.0377 390.422 94.8296 390.824 94.5023L452.316 157.248L452.317 157.246ZM386.975 93.9163C387.145 94.1725 387.361 94.3991 387.611 94.5825L359.257 141.814L294.228 143.799L386.976 93.9141L386.975 93.9163ZM288.045 144.614C288.188 145.134 288.49 145.591 288.895 145.93L271.299 171.547L249.17 153.265C249.427 152.886 249.593 152.438 249.623 151.948C249.631 151.815 249.627 151.687 249.615 151.558L288.042 144.613L288.045 144.614ZM245.201 149.865C244.944 150.107 244.735 150.4 244.589 150.729L201.618 136.473L214.938 110.811L245.202 149.863L245.201 149.865ZM132.86 90.5821C133.196 90.2914 133.461 89.9135 133.615 89.4843L213.808 110.332L159.417 121.148C159.111 120.12 158.193 119.341 157.06 119.269C155.899 119.196 154.871 119.888 154.457 120.909L132.856 90.5832L132.86 90.5821ZM97.0259 154.091L126.361 184.869L125.135 187.418C124.9 187.33 124.647 187.273 124.384 187.258C123.811 187.221 123.267 187.375 122.815 187.66L97.0237 154.09L97.0259 154.091ZM108.065 222.943C108.244 222.617 108.358 222.246 108.382 221.85C108.396 221.642 108.379 221.442 108.348 221.245L130.974 215.203L138.278 241.6C137.812 241.76 137.406 242.051 137.096 242.426L108.065 222.943ZM139.019 246.714C139.946 246.755 140.786 246.31 141.286 245.6L133.527 276.903L139.018 246.716L139.019 246.714ZM99.5031 331.714C100.379 331.497 101.087 330.841 101.371 329.979L156.371 342.586L110.229 391.746C109.826 391.432 109.327 391.231 108.779 391.195C108.672 391.188 108.566 391.19 108.464 391.196L99.5041 331.712L99.5031 331.714ZM110.814 392.389C110.744 392.281 110.667 392.175 110.581 392.079L156.917 342.714L188.466 349.947C188.46 349.995 188.453 350.043 188.449 350.092C188.42 350.558 188.515 351.002 188.704 351.396L110.814 392.389ZM190.339 347.73C189.501 347.975 188.831 348.624 188.568 349.469L157.305 342.303L180.854 317.215C181.251 317.513 181.736 317.704 182.267 317.737C182.439 317.748 182.608 317.741 182.774 317.719L190.339 347.73ZM184.715 313.805C184.428 313.304 183.981 312.905 183.439 312.682L200.924 256.573L250.377 279.634C250.295 279.861 250.242 280.101 250.227 280.357C250.204 280.746 250.267 281.118 250.397 281.46L184.717 313.806L184.715 313.805ZM331.693 243.9C331.762 242.793 331.135 241.804 330.188 241.357L331.776 236.98L355.433 271.219L331.043 245.468C331.414 245.046 331.655 244.504 331.692 243.897L331.693 243.9ZM359.373 271.909C359.197 271.717 358.994 271.55 358.768 271.418L380.834 224.801L402.617 236.736C402.499 237.007 402.422 237.304 402.402 237.617C402.367 238.182 402.514 238.717 402.793 239.163L359.373 271.909ZM406.9 235.932C406.462 235.486 405.866 235.195 405.194 235.152C405.072 235.144 404.952 235.149 404.833 235.158L397.649 192.678C398.227 192.524 398.728 192.179 399.082 191.709L432.512 212.123C432.342 212.442 432.232 212.804 432.21 213.19C432.172 213.795 432.342 214.362 432.659 214.826L406.902 235.933L406.9 235.932ZM437.352 212.591C437.233 212.201 437.026 211.847 436.752 211.556L468.272 171.604L497.353 197.315C497.08 197.7 496.904 198.162 496.875 198.669C496.864 198.859 496.872 199.042 496.9 199.224L437.35 212.596L437.352 212.591ZM501.732 200.231C501.959 199.871 502.102 199.45 502.132 198.994C502.161 198.531 502.068 198.091 501.88 197.7L516.147 188.881L536.08 224.603C535.849 224.737 535.637 224.903 535.458 225.098L501.732 200.231ZM591.915 216.865C591.771 216.83 591.623 216.807 591.47 216.797C591.108 216.773 590.76 216.825 590.437 216.937L579.126 195.149L598.929 179.717C599.211 179.969 599.549 180.162 599.924 180.272L591.913 216.864L591.915 216.865Z" fill="#EE81B0"/>
<path d="M460.758 239.483C460.758 239.483 453.925 265.325 451.449 275.782C446.677 295.911 454.243 361.878 454.243 361.878L541.265 314.876L537.545 240.416C537.545 240.416 519.395 227.388 505.432 220.873C491.47 214.359 460.758 239.49 460.758 239.49V239.483Z" fill="#DF8711"/>
<path d="M380.25 316.273C380.25 324.751 356.342 331.629 326.853 331.629C297.364 331.629 273.456 324.751 273.456 316.273V308.595H380.606L380.258 316.273H380.25Z" fill="#07C198"/>
<path d="M364.368 116.977C364.368 111.389 359.84 106.854 354.245 106.854H114.124C108.536 106.854 104 111.382 104 116.977V123.61H364.368V116.977Z" fill="#8FC6D7"/>
<path d="M104 123.611V287.301C104 292.889 108.528 297.425 114.124 297.425H354.252C359.84 297.425 364.376 292.897 364.376 287.301V123.611H104Z" fill="#3F97B1"/>
<path d="M354.244 298.209H114.123C113.686 298.209 113.33 297.853 113.33 297.416C113.33 296.978 113.686 296.623 114.123 296.623H354.252C359.395 296.623 363.582 292.435 363.582 287.292V123.609C363.582 123.172 363.938 122.816 364.375 122.816C364.813 122.816 365.168 123.172 365.168 123.609V287.299C365.168 293.317 360.27 298.209 354.259 298.209H354.244Z" fill="#0151A1"/>
<path d="M334.938 283.46H131.109C126.485 283.46 122.735 279.71 122.735 275.086C122.735 270.461 126.485 266.711 131.109 266.711H334.938C339.563 266.711 343.313 270.461 343.313 275.086C343.313 279.71 339.563 283.46 334.938 283.46Z" fill="white"/>
<path d="M150.505 280.99C149.386 280.99 148.341 280.738 147.607 280.101C147.274 279.812 147.051 279.493 146.918 279.159C146.184 279.441 145.406 279.693 144.598 279.908C143.664 280.153 142.434 280.405 141.248 280.16C139.996 279.901 139.121 279.159 138.662 278.27C136.587 279.197 134.245 279.819 131.807 280.049L131.732 279.263C134.074 279.041 136.357 278.433 138.38 277.522C138.284 277.136 138.269 276.736 138.321 276.365C138.551 274.831 139.722 273.52 140.752 272.371C141.619 271.4 142.997 270.555 144.235 271.074C144.821 271.326 145.028 271.733 145.095 272.037C145.236 272.638 144.984 273.408 144.413 274.09C143.123 275.624 141.389 276.936 139.373 277.944C139.736 278.618 140.418 279.189 141.404 279.397C142.434 279.612 143.546 279.382 144.398 279.152C145.228 278.937 146.014 278.678 146.755 278.389C146.703 277.025 147.718 275.617 148.141 275.039C148.748 274.201 149.438 273.253 150.497 272.556C151.098 272.163 153.425 271.237 154.203 272.023C154.596 272.415 154.507 273.038 153.944 273.875C152.528 275.987 150.386 277.685 147.652 278.87C147.748 279.115 147.904 279.33 148.126 279.515C149.319 280.545 151.809 280.323 153.655 279.567C154.596 279.182 155.47 278.7 156.249 278.144C155.263 276.706 155.337 274.846 156.449 273.245C156.693 272.897 157.093 272.408 157.783 272.245C158.783 272.015 159.798 272.623 160.087 273.327C160.399 274.083 160.065 274.861 159.791 275.387C159.228 276.447 158.413 277.425 157.39 278.27C158.524 279.323 160.488 279.856 162.148 279.493L162.311 280.264C160.339 280.701 158.064 280.049 156.752 278.759C155.922 279.36 154.974 279.878 153.944 280.301C152.913 280.723 151.668 280.997 150.497 281.005L150.505 280.99ZM153.284 272.482C152.684 272.482 151.535 272.808 150.927 273.201C149.986 273.816 149.371 274.668 148.778 275.484C148.037 276.506 147.629 277.344 147.555 278.033C150.045 276.914 151.995 275.35 153.291 273.423C153.692 272.83 153.669 272.593 153.64 272.564C153.58 272.504 153.455 272.482 153.284 272.482ZM158.212 272.979C158.124 272.979 158.042 272.986 157.96 273.008C157.634 273.09 157.368 273.297 157.093 273.69C156.182 275.002 156.1 276.499 156.871 277.655C157.82 276.869 158.583 275.965 159.094 275.009C159.42 274.402 159.502 273.972 159.354 273.623C159.213 273.29 158.716 272.979 158.212 272.979ZM143.427 271.704C142.679 271.704 141.871 272.297 141.33 272.897C140.374 273.964 139.284 275.18 139.092 276.484C139.062 276.706 139.062 276.944 139.099 277.173C140.989 276.217 142.619 274.994 143.798 273.586C144.191 273.112 144.398 272.564 144.317 272.223C144.272 272.037 144.139 271.904 143.916 271.808C143.761 271.741 143.59 271.711 143.42 271.711L143.427 271.704Z" fill="#B4185C"/>
<path d="M313.358 280.99C312.239 280.99 311.194 280.738 310.46 280.101C310.127 279.812 309.904 279.493 309.771 279.159C309.037 279.441 308.259 279.693 307.451 279.908C306.517 280.153 305.287 280.405 304.101 280.16C302.849 279.901 301.974 279.159 301.515 278.27C299.44 279.197 297.098 279.819 294.66 280.049L294.585 279.263C296.927 279.041 299.21 278.433 301.233 277.522C301.137 277.136 301.122 276.736 301.174 276.365C301.404 274.831 302.575 273.52 303.605 272.371C304.472 271.4 305.843 270.555 307.088 271.074C307.674 271.326 307.881 271.733 307.948 272.037C308.089 272.638 307.837 273.408 307.266 274.09C305.976 275.624 304.242 276.936 302.226 277.944C302.589 278.618 303.271 279.189 304.257 279.397C305.287 279.612 306.399 279.382 307.251 279.152C308.081 278.937 308.867 278.678 309.608 278.389C309.556 277.025 310.571 275.617 310.994 275.039C311.601 274.201 312.283 273.253 313.35 272.556C313.951 272.163 316.278 271.237 317.056 272.023C317.449 272.415 317.36 273.038 316.797 273.875C315.381 275.987 313.239 277.685 310.505 278.87C310.601 279.115 310.757 279.33 310.979 279.515C312.172 280.545 314.662 280.323 316.508 279.567C317.449 279.182 318.323 278.7 319.102 278.144C318.116 276.706 318.19 274.846 319.302 273.245C319.546 272.897 319.946 272.408 320.636 272.245C321.636 272.015 322.651 272.623 322.941 273.327C323.252 274.083 322.926 274.861 322.644 275.387C322.081 276.447 321.258 277.425 320.243 278.27C321.377 279.323 323.341 279.856 325.001 279.493L325.164 280.264C323.192 280.701 320.917 280.049 319.605 278.759C318.775 279.36 317.827 279.878 316.797 280.301C315.774 280.723 314.521 280.997 313.35 281.005L313.358 280.99ZM316.137 272.482C315.537 272.482 314.388 272.808 313.78 273.201C312.839 273.816 312.224 274.668 311.631 275.484C310.89 276.506 310.482 277.344 310.408 278.033C312.898 276.914 314.848 275.35 316.137 273.423C316.537 272.83 316.515 272.593 316.485 272.564C316.426 272.504 316.3 272.482 316.13 272.482H316.137ZM321.065 272.979C320.977 272.979 320.895 272.986 320.813 273.008C320.487 273.09 320.221 273.297 319.946 273.69C319.035 275.002 318.953 276.499 319.724 277.655C320.673 276.869 321.436 275.965 321.947 275.009C322.273 274.402 322.355 273.972 322.207 273.623C322.066 273.29 321.569 272.979 321.065 272.979ZM306.28 271.704C305.532 271.704 304.724 272.297 304.183 272.897C303.227 273.964 302.137 275.18 301.945 276.484C301.915 276.706 301.915 276.944 301.952 277.173C303.842 276.217 305.472 274.994 306.651 273.586C307.044 273.112 307.251 272.564 307.17 272.223C307.125 272.037 306.992 271.904 306.769 271.808C306.614 271.741 306.443 271.711 306.273 271.711L306.28 271.704Z" fill="#B4185C"/>
<path d="M231.932 280.99C230.813 280.99 229.768 280.738 229.034 280.101C228.7 279.812 228.478 279.493 228.345 279.159C227.611 279.441 226.833 279.693 226.025 279.908C225.091 280.153 223.861 280.405 222.675 280.16C221.423 279.901 220.548 279.159 220.089 278.27C218.013 279.197 215.672 279.819 213.233 280.049L213.159 279.263C215.501 279.041 217.784 278.433 219.807 277.522C219.711 277.136 219.696 276.736 219.748 276.365C219.977 274.831 221.148 273.52 222.179 272.371C223.046 271.4 224.424 270.555 225.662 271.074C226.247 271.326 226.455 271.733 226.521 272.037C226.662 272.638 226.41 273.408 225.84 274.09C224.55 275.624 222.816 276.936 220.8 277.944C221.163 278.618 221.845 279.189 222.831 279.397C223.861 279.612 224.973 279.382 225.825 279.152C226.655 278.937 227.44 278.678 228.182 278.389C228.13 277.025 229.145 275.617 229.567 275.039C230.175 274.201 230.857 273.253 231.924 272.556C232.525 272.163 234.852 271.237 235.63 272.023C236.023 272.415 235.934 273.038 235.37 273.875C233.955 275.987 231.813 277.685 229.078 278.87C229.175 279.115 229.33 279.33 229.553 279.515C230.746 280.545 233.236 280.323 235.081 279.567C236.023 279.182 236.897 278.7 237.675 278.144C236.69 276.706 236.764 274.846 237.875 273.245C238.12 272.897 238.52 272.408 239.209 272.245C240.202 272.015 241.225 272.623 241.514 273.327C241.826 274.083 241.499 274.861 241.218 275.387C240.655 276.447 239.832 277.425 238.817 278.27C239.95 279.323 241.914 279.856 243.575 279.493L243.738 280.264C241.766 280.701 239.491 280.049 238.179 278.759C237.349 279.36 236.401 279.878 235.37 280.301C234.348 280.723 233.095 280.997 231.924 281.005L231.932 280.99ZM234.711 272.482C234.11 272.482 232.962 272.808 232.354 273.201C231.413 273.816 230.798 274.668 230.205 275.484C229.464 276.506 229.056 277.344 228.982 278.033C231.472 276.914 233.421 275.35 234.711 273.423C235.111 272.83 235.089 272.593 235.059 272.564C235 272.504 234.874 272.482 234.703 272.482H234.711ZM239.639 272.979C239.55 272.979 239.469 272.986 239.387 273.008C239.061 273.09 238.794 273.297 238.52 273.69C237.609 275.002 237.527 276.499 238.298 277.655C239.246 276.869 240.01 275.965 240.521 275.009C240.847 274.402 240.929 273.972 240.781 273.623C240.64 273.29 240.143 272.979 239.639 272.979ZM224.854 271.704C224.105 271.704 223.298 272.297 222.757 272.897C221.801 273.964 220.711 275.18 220.518 276.484C220.489 276.706 220.489 276.944 220.526 277.173C222.416 276.217 224.046 274.994 225.225 273.586C225.617 273.112 225.825 272.564 225.743 272.223C225.699 272.037 225.565 271.904 225.343 271.808C225.187 271.741 225.017 271.711 224.847 271.711L224.854 271.704Z" fill="#B4185C"/>
<path d="M280.919 281.264C280.459 281.264 280.014 281.16 279.592 280.923C279.088 280.634 278.732 280.226 278.473 279.759C277.665 280.078 276.768 280.241 275.923 280.241C274.375 280.226 273.033 279.656 272.07 278.618C270.928 279.448 269.817 280.063 269.305 280.285C267.319 281.145 264.488 281.493 262.961 280.226C262.62 279.945 262.391 279.626 262.25 279.3C261.524 279.596 260.753 279.863 259.945 280.093C259.019 280.36 257.796 280.634 256.595 280.419C255.335 280.189 254.446 279.455 253.972 278.588C251.919 279.559 249.592 280.226 247.153 280.5L247.064 279.715C249.406 279.448 251.667 278.788 253.675 277.832C253.571 277.447 253.542 277.054 253.594 276.676C253.794 275.135 254.935 273.808 255.943 272.63C256.795 271.637 258.144 270.755 259.404 271.266C259.99 271.503 260.204 271.911 260.286 272.207C260.442 272.808 260.204 273.578 259.641 274.275C258.389 275.839 256.677 277.18 254.683 278.225C255.061 278.892 255.758 279.455 256.743 279.633C257.781 279.826 258.885 279.574 259.73 279.329C260.553 279.092 261.331 278.825 262.072 278.514C261.991 277.151 262.984 275.728 263.391 275.135C263.984 274.282 264.651 273.319 265.704 272.6C266.296 272.2 268.601 271.214 269.394 271.992C269.794 272.378 269.72 273.008 269.179 273.853C267.808 275.994 265.696 277.729 262.991 278.974C263.095 279.211 263.25 279.426 263.473 279.611C264.688 280.619 267.171 280.345 269.001 279.552C269.58 279.3 270.58 278.729 271.588 277.995C271.558 277.951 271.521 277.899 271.492 277.847C270.647 276.513 270.587 274.772 271.343 273.504C271.781 272.778 272.633 272.244 273.463 272.17C274.078 272.118 274.612 272.326 274.975 272.763C275.442 273.319 275.597 273.964 275.427 274.683C275.145 275.891 273.974 277.121 272.707 278.129C273.522 278.974 274.641 279.433 275.931 279.448C276.694 279.455 277.465 279.307 278.169 279.026C277.939 278.292 277.895 277.491 277.917 276.802C277.939 276.031 278.354 274.082 279.414 273.341C279.844 273.045 280.326 272.963 280.83 273.126C281.608 273.378 282.186 274.201 282.23 275.12C282.26 275.824 282.023 276.565 281.519 277.336C280.948 278.203 280.14 278.914 279.199 279.418C279.384 279.752 279.636 280.034 279.985 280.234C281.237 280.945 282.905 280.011 283.905 278.714C284.254 278.27 284.557 277.788 284.809 277.284C284.091 276.076 283.268 274.06 283.557 273.037C283.965 271.607 284.728 271.614 285.047 271.681C285.958 271.881 286.662 273.378 286.455 274.705C286.321 275.579 286.069 276.432 285.706 277.239C285.788 277.351 285.862 277.454 285.936 277.536C287.218 278.966 289.204 279.722 291.116 279.522L291.198 280.308C289.026 280.523 286.796 279.67 285.343 278.062C285.328 278.047 285.313 278.033 285.306 278.018C285.076 278.425 284.817 278.825 284.52 279.196C283.624 280.36 282.238 281.264 280.911 281.264H280.919ZM280.318 273.83C280.163 273.83 280.014 273.882 279.874 273.986C279.147 274.497 278.74 276.083 278.717 276.824C278.703 277.328 278.725 278.025 278.91 278.677C279.696 278.24 280.378 277.632 280.867 276.899C281.282 276.276 281.474 275.691 281.452 275.157C281.43 274.653 281.126 274.045 280.592 273.875C280.496 273.845 280.407 273.83 280.326 273.83H280.318ZM268.52 272.482C267.927 272.482 266.756 272.837 266.148 273.252C265.222 273.89 264.621 274.749 264.043 275.579C263.325 276.617 262.932 277.469 262.872 278.151C265.34 276.98 267.26 275.379 268.512 273.423C268.898 272.822 268.875 272.578 268.846 272.556C268.794 272.504 268.675 272.482 268.52 272.482ZM273.641 272.956C273.604 272.956 273.567 272.956 273.53 272.956C272.952 273 272.329 273.393 272.025 273.904C271.417 274.92 271.469 276.335 272.159 277.417C272.181 277.447 272.196 277.477 272.218 277.506C273.389 276.573 274.434 275.476 274.664 274.49C274.775 274.016 274.678 273.615 274.375 273.26C274.16 273.008 273.871 272.948 273.641 272.948V272.956ZM258.648 271.903C257.892 271.903 257.077 272.526 256.551 273.141C255.617 274.231 254.557 275.468 254.387 276.773C254.357 276.995 254.364 277.232 254.409 277.462C256.284 276.469 257.885 275.216 259.033 273.779C259.419 273.297 259.619 272.748 259.523 272.4C259.493 272.281 259.419 272.111 259.108 271.992C258.959 271.933 258.796 271.903 258.641 271.903H258.648ZM284.847 272.444C284.669 272.444 284.461 272.756 284.32 273.252C284.15 273.853 284.639 275.29 285.21 276.387C285.425 275.802 285.588 275.201 285.684 274.586C285.84 273.578 285.299 272.541 284.884 272.452C284.876 272.452 284.861 272.452 284.854 272.452L284.847 272.444Z" fill="#B4185C"/>
<path d="M199.485 281.264C199.025 281.264 198.581 281.16 198.158 280.923C197.654 280.634 197.299 280.226 197.047 279.759C196.239 280.078 195.379 280.256 194.497 280.241C192.948 280.226 191.607 279.656 190.643 278.618C189.502 279.448 188.39 280.063 187.879 280.285C185.893 281.145 183.062 281.493 181.535 280.226C181.194 279.945 180.964 279.626 180.824 279.3C180.097 279.596 179.327 279.863 178.519 280.093C177.592 280.36 176.37 280.634 175.169 280.419C173.909 280.189 173.02 279.455 172.545 278.588C170.492 279.559 168.165 280.226 165.727 280.5L165.638 279.715C167.98 279.448 170.241 278.788 172.249 277.832C172.145 277.447 172.116 277.054 172.167 276.676C172.368 275.135 173.509 273.808 174.517 272.63C175.369 271.637 176.718 270.755 177.978 271.266C178.563 271.503 178.778 271.911 178.86 272.207C179.015 272.808 178.778 273.578 178.215 274.275C176.962 275.839 175.25 277.18 173.257 278.225C173.635 278.892 174.331 279.455 175.317 279.633C176.355 279.826 177.459 279.574 178.304 279.329C179.126 279.092 179.905 278.825 180.646 278.514C180.564 277.151 181.557 275.728 181.965 275.135C182.55 274.282 183.217 273.326 184.277 272.6C184.87 272.2 187.175 271.222 187.968 271.992C188.368 272.378 188.294 273.008 187.753 273.853C186.382 275.994 184.27 277.729 181.565 278.974C181.669 279.211 181.824 279.426 182.046 279.611C183.262 280.619 185.745 280.345 187.575 279.552C188.153 279.3 189.154 278.729 190.162 277.995C190.132 277.951 190.095 277.899 190.065 277.847C189.22 276.513 189.161 274.772 189.917 273.504C190.354 272.778 191.207 272.244 192.037 272.17C192.644 272.118 193.185 272.326 193.549 272.763C194.015 273.319 194.171 273.964 194.001 274.683C193.719 275.891 192.548 277.121 191.281 278.129C192.096 278.974 193.215 279.433 194.505 279.448C195.268 279.455 196.039 279.307 196.743 279.026C196.513 278.292 196.469 277.491 196.491 276.802C196.513 276.031 196.928 274.082 197.988 273.341C198.418 273.045 198.907 272.963 199.403 273.126C200.182 273.378 200.76 274.201 200.804 275.12C200.834 275.824 200.597 276.565 200.093 277.336C199.522 278.203 198.707 278.914 197.773 279.418C197.958 279.752 198.21 280.034 198.551 280.234C199.804 280.945 201.471 280.011 202.472 278.714C202.82 278.27 203.124 277.788 203.376 277.284C202.657 276.076 201.834 274.06 202.123 273.037C202.531 271.607 203.302 271.614 203.613 271.681C204.524 271.881 205.229 273.378 205.021 274.705C204.888 275.579 204.636 276.432 204.273 277.239C204.354 277.351 204.428 277.454 204.502 277.536C205.784 278.966 207.771 279.722 209.683 279.522L209.764 280.308C207.6 280.523 205.362 279.67 203.909 278.062C203.895 278.047 203.88 278.033 203.872 278.018C203.643 278.433 203.383 278.825 203.087 279.196C202.19 280.36 200.804 281.264 199.477 281.264H199.485ZM198.885 273.83C198.729 273.83 198.581 273.882 198.44 273.986C197.714 274.497 197.306 276.083 197.284 276.824C197.269 277.328 197.291 278.025 197.476 278.677C198.262 278.24 198.944 277.632 199.433 276.899C199.848 276.276 200.041 275.691 200.019 275.157C199.996 274.653 199.692 274.045 199.159 273.875C199.062 273.845 198.974 273.83 198.892 273.83H198.885ZM187.086 272.482C186.493 272.482 185.322 272.837 184.714 273.252C183.781 273.89 183.188 274.749 182.61 275.579C181.891 276.617 181.498 277.469 181.439 278.151C183.907 276.98 185.826 275.379 187.079 273.423C187.464 272.822 187.442 272.578 187.412 272.556C187.36 272.504 187.242 272.482 187.086 272.482ZM192.207 272.956C192.17 272.956 192.133 272.956 192.096 272.956C191.518 273 190.895 273.393 190.592 273.904C189.984 274.92 190.036 276.335 190.725 277.417C190.747 277.447 190.762 277.477 190.784 277.506C191.955 276.573 193 275.476 193.23 274.49C193.341 274.016 193.245 273.615 192.941 273.26C192.726 273.008 192.437 272.948 192.207 272.948V272.956ZM177.214 271.903C176.458 271.903 175.643 272.526 175.117 273.141C174.183 274.231 173.123 275.468 172.953 276.773C172.923 276.995 172.931 277.232 172.975 277.462C174.85 276.469 176.451 275.216 177.6 273.779C177.985 273.297 178.185 272.748 178.089 272.4C178.059 272.281 177.985 272.111 177.674 271.992C177.526 271.933 177.363 271.903 177.207 271.903H177.214ZM203.413 272.444C203.235 272.444 203.027 272.756 202.887 273.252C202.716 273.853 203.205 275.29 203.776 276.38C203.991 275.802 204.154 275.194 204.25 274.579C204.406 273.571 203.865 272.533 203.45 272.444C203.442 272.444 203.428 272.444 203.42 272.444H203.413Z" fill="#B4185C"/>
<path d="M232.554 255.766C261.66 255.766 285.255 232.171 285.255 203.065C285.255 173.959 261.66 150.364 232.554 150.364C203.448 150.364 179.854 173.959 179.854 203.065C179.854 232.171 203.448 255.766 232.554 255.766Z" fill="#C8F7E1"/>
<path d="M119.771 119.542C121.895 119.542 123.618 117.82 123.618 115.696C123.618 113.572 121.895 111.85 119.771 111.85C117.647 111.85 115.925 113.572 115.925 115.696C115.925 117.82 117.647 119.542 119.771 119.542Z" fill="#4F2B2B"/>
<path d="M132.682 119.542C134.806 119.542 136.528 117.82 136.528 115.696C136.528 113.572 134.806 111.85 132.682 111.85C130.558 111.85 128.835 113.572 128.835 115.696C128.835 117.82 130.558 119.542 132.682 119.542Z" fill="white"/>
<path d="M145.585 119.542C147.709 119.542 149.431 117.82 149.431 115.696C149.431 113.572 147.709 111.85 145.585 111.85C143.46 111.85 141.738 113.572 141.738 115.696C141.738 117.82 143.46 119.542 145.585 119.542Z" fill="white"/>
<path d="M207.824 216.54C207.735 216.54 207.638 216.525 207.549 216.488C207.142 216.332 206.934 215.88 207.083 215.473L208.446 211.826C208.602 211.419 209.054 211.211 209.461 211.359C209.869 211.515 210.077 211.967 209.928 212.375L208.565 216.021C208.446 216.34 208.142 216.532 207.824 216.532V216.54Z" fill="#4F2B2B"/>
<path d="M215.969 215.635C215.969 215.635 215.902 215.635 215.865 215.635C215.435 215.583 215.124 215.183 215.184 214.745C215.324 213.634 215.369 212.5 215.302 211.381C215.28 210.943 215.606 210.573 216.043 210.543C216.48 210.491 216.851 210.847 216.881 211.284C216.955 212.507 216.91 213.737 216.755 214.945C216.703 215.346 216.362 215.635 215.969 215.635Z" fill="#4F2B2B"/>
<path d="M223.031 214.419C222.705 214.419 222.394 214.211 222.282 213.885L220.941 209.994C220.8 209.579 221.015 209.135 221.43 208.986C221.845 208.846 222.29 209.061 222.431 209.476L223.772 213.366C223.913 213.781 223.698 214.226 223.283 214.374C223.201 214.404 223.113 214.419 223.024 214.419H223.031Z" fill="#4F2B2B"/>
<path d="M230.117 213.456C229.783 213.456 229.479 213.248 229.368 212.915C228.975 211.759 227.864 209.209 227.197 207.683L226.893 206.986C226.715 206.586 226.9 206.119 227.3 205.948C227.701 205.778 228.168 205.956 228.338 206.356L228.642 207.053C229.316 208.602 230.45 211.188 230.865 212.411C231.006 212.826 230.784 213.271 230.369 213.411C230.287 213.441 230.198 213.456 230.117 213.456Z" fill="#4F2B2B"/>
<path d="M238.15 212.114C237.75 212.114 237.409 211.81 237.365 211.41C237.209 209.987 236.727 208.586 235.956 207.378C235.719 207.007 235.83 206.518 236.201 206.289C236.572 206.059 237.053 206.163 237.29 206.533C238.187 207.949 238.758 209.579 238.936 211.239C238.98 211.676 238.669 212.062 238.232 212.106C238.202 212.106 238.172 212.106 238.15 212.106V212.114Z" fill="#4F2B2B"/>
<path d="M248.525 210.281C248.31 210.281 248.088 210.192 247.932 210.015L245.197 206.939C244.908 206.613 244.938 206.116 245.264 205.82C245.59 205.531 246.087 205.56 246.383 205.887L249.118 208.962C249.407 209.288 249.377 209.785 249.051 210.081C248.903 210.215 248.71 210.281 248.525 210.281Z" fill="#4F2B2B"/>
<path d="M255.975 207.031C255.797 207.031 255.619 206.971 255.471 206.845C254.419 205.963 253.448 204.97 252.603 203.896C252.336 203.555 252.388 203.058 252.736 202.784C253.077 202.517 253.574 202.577 253.848 202.917C254.626 203.911 255.515 204.822 256.486 205.63C256.82 205.912 256.864 206.408 256.59 206.742C256.434 206.927 256.212 207.023 255.982 207.023L255.975 207.031Z" fill="#4F2B2B"/>
<path d="M255.182 200.952C254.759 200.952 254.359 200.626 254.337 200.204C254.314 199.766 254.596 199.396 255.033 199.381L259.917 199.151C260.303 199.085 260.725 199.462 260.747 199.9C260.77 200.337 260.429 200.708 259.999 200.73L255.226 200.96C255.226 200.96 255.196 200.96 255.189 200.96L255.182 200.952Z" fill="#4F2B2B"/>
<path d="M255.3 196.263C254.885 196.263 254.537 195.937 254.515 195.522C254.485 195.085 254.818 194.714 255.256 194.684C256.953 194.581 258.591 194.173 260.132 193.476C260.532 193.298 260.999 193.476 261.177 193.869C261.355 194.269 261.177 194.736 260.784 194.914C259.065 195.692 257.234 196.152 255.345 196.263C255.33 196.263 255.315 196.263 255.293 196.263H255.3Z" fill="#4F2B2B"/>
<path d="M252.505 190.465C252.112 190.465 251.772 190.176 251.72 189.776C251.668 189.339 251.972 188.946 252.401 188.894C254.024 188.687 255.596 188.094 256.952 187.182C257.315 186.938 257.804 187.034 258.049 187.397C258.293 187.76 258.197 188.249 257.834 188.494C256.277 189.539 254.462 190.221 252.594 190.458C252.564 190.458 252.527 190.458 252.49 190.458L252.505 190.465Z" fill="#4F2B2B"/>
<path d="M248.533 185.092C248.273 185.092 248.021 184.966 247.873 184.736C247.636 184.373 247.74 183.884 248.103 183.639C250.422 182.128 252.913 180.868 255.506 179.904C255.914 179.756 256.374 179.964 256.522 180.371C256.677 180.779 256.47 181.238 256.055 181.387C253.572 182.313 251.186 183.514 248.962 184.966C248.829 185.055 248.681 185.092 248.533 185.092Z" fill="#4F2B2B"/>
<path d="M242.449 180.617C242.182 180.617 241.922 180.484 241.774 180.239C241.544 179.869 241.663 179.38 242.033 179.15C243.523 178.238 244.85 177.104 245.984 175.785C246.273 175.452 246.769 175.415 247.095 175.704C247.429 175.985 247.466 176.489 247.177 176.815C245.932 178.26 244.479 179.498 242.849 180.499C242.723 180.58 242.575 180.617 242.434 180.617H242.449Z" fill="#4F2B2B"/>
<path d="M237.95 177.874C237.869 177.874 237.794 177.859 237.713 177.837C237.298 177.703 237.068 177.266 237.194 176.843C237.802 174.902 238.691 173.064 239.833 171.381C240.077 171.018 240.566 170.922 240.929 171.166C241.293 171.411 241.389 171.9 241.144 172.263C240.092 173.827 239.269 175.524 238.706 177.318C238.602 177.651 238.291 177.874 237.95 177.874Z" fill="#4F2B2B"/>
<path d="M232.496 176.052C232.059 176.052 231.703 175.696 231.703 175.259V170.138C231.703 169.7 232.059 169.345 232.496 169.345C232.933 169.345 233.289 169.7 233.289 170.138V175.259C233.289 175.696 232.933 176.052 232.496 176.052Z" fill="#4F2B2B"/>
<path d="M224.372 175.585C224.002 175.585 223.668 175.318 223.594 174.94L222.631 169.826C222.549 169.396 222.831 168.981 223.261 168.9C223.691 168.826 224.106 169.1 224.18 169.53L225.143 174.643C225.225 175.073 224.943 175.488 224.513 175.57C224.461 175.577 224.417 175.585 224.365 175.585H224.372Z" fill="#4F2B2B"/>
<path d="M218.637 175.295C218.37 175.295 218.111 175.162 217.963 174.91L215.488 170.811C215.265 170.441 215.384 169.952 215.754 169.729C216.125 169.507 216.614 169.625 216.836 169.996L219.312 174.094C219.534 174.465 219.415 174.954 219.045 175.176C218.919 175.251 218.778 175.288 218.637 175.288V175.295Z" fill="#4F2B2B"/>
<path d="M213.181 178.846C213.018 178.846 212.863 178.801 212.722 178.698C212.003 178.179 210.862 177.223 209.661 176.207C208.535 175.259 207.364 174.281 206.689 173.791C206.333 173.539 206.252 173.043 206.511 172.687C206.763 172.331 207.26 172.25 207.616 172.509C208.334 173.028 209.476 173.984 210.676 174.999C211.803 175.948 212.974 176.926 213.648 177.416C214.004 177.667 214.085 178.164 213.826 178.52C213.67 178.735 213.433 178.846 213.181 178.846Z" fill="#4F2B2B"/>
<path d="M206.667 182.565C206.571 182.565 206.482 182.551 206.386 182.514C204.688 181.869 199.671 180.112 197.907 179.779C197.477 179.697 197.196 179.29 197.277 178.86C197.359 178.43 197.774 178.148 198.196 178.23C200.086 178.586 205.148 180.357 206.941 181.039C207.349 181.194 207.556 181.646 207.401 182.054C207.282 182.373 206.978 182.565 206.66 182.565H206.667Z" fill="#4F2B2B"/>
<path d="M198.997 186.633H198.967L192.905 186.433C192.468 186.418 192.127 186.055 192.142 185.618C192.156 185.181 192.534 184.884 192.957 184.854L199.012 185.055C199.449 185.069 199.79 185.433 199.775 185.87C199.76 186.3 199.412 186.633 198.989 186.633H198.997Z" fill="#4F2B2B"/>
<path d="M191.526 195.098C191.245 195.098 190.97 194.949 190.83 194.683C190.622 194.297 190.763 193.816 191.148 193.608C192.682 192.785 194.313 192.148 196.003 191.711C196.425 191.607 196.855 191.859 196.966 192.281C197.077 192.704 196.818 193.134 196.395 193.245C194.832 193.645 193.32 194.238 191.904 195.001C191.786 195.068 191.66 195.098 191.526 195.098Z" fill="#4F2B2B"/>
<path d="M188.991 202.59C188.636 202.59 188.317 202.353 188.228 201.99C188.124 201.568 188.384 201.138 188.806 201.034C190.666 200.575 192.445 199.693 193.942 198.492C194.283 198.225 194.779 198.277 195.054 198.618C195.328 198.959 195.269 199.455 194.928 199.73C193.253 201.071 191.267 202.049 189.184 202.568C189.117 202.583 189.058 202.59 188.991 202.59Z" fill="#4F2B2B"/>
<path d="M191.83 209.951C191.489 209.951 191.178 209.736 191.074 209.395C190.941 208.98 191.178 208.535 191.593 208.409C193.557 207.802 195.41 206.897 197.092 205.719C197.448 205.474 197.944 205.563 198.189 205.919C198.441 206.275 198.352 206.771 197.989 207.016C196.173 208.276 194.172 209.254 192.06 209.914C191.978 209.936 191.904 209.951 191.823 209.951H191.83Z" fill="#4F2B2B"/>
<path d="M197.841 215.168C197.552 215.168 197.278 215.012 197.137 214.745C196.937 214.36 197.085 213.878 197.478 213.678C199.731 212.515 201.88 211.121 203.859 209.558C204.2 209.291 204.696 209.35 204.97 209.691C205.237 210.032 205.185 210.528 204.837 210.803C202.777 212.433 200.546 213.871 198.196 215.086C198.078 215.146 197.959 215.175 197.833 215.175L197.841 215.168Z" fill="#4F2B2B"/>
<path d="M195.38 191.377C192.875 197.232 193.646 204.732 198.471 208.957C204.452 214.189 213.753 212.714 221.319 210.128C229.123 207.46 237.075 207.445 245.294 207.141C249.311 206.993 254.24 204.888 256.167 201.419C258.56 197.114 256.196 191.881 253.528 188.294C239.432 169.396 205.519 167.699 195.38 191.377Z" fill="#BF8888"/>
<path d="M209.269 201.812C207.854 201.812 206.534 201.62 205.475 201.212C203.34 200.397 202.014 199.196 201.525 197.632C201.095 196.261 201.369 194.698 202.31 193.112C203.896 190.451 207.157 188.102 210.07 187.516C213.479 186.842 219.393 189.154 221.179 192.726C222.165 194.69 221.675 196.691 219.815 198.366C217.481 200.471 213.019 201.805 209.262 201.805L209.269 201.812ZM211.337 188.991C210.996 188.991 210.67 189.021 210.381 189.073C207.906 189.562 205.023 191.652 203.666 193.919C203.17 194.75 202.666 195.987 203.029 197.158C203.363 198.233 204.37 199.092 206.031 199.73C209.417 201.019 215.954 199.715 218.763 197.195C220.104 195.987 220.43 194.757 219.771 193.438C218.511 190.925 214.198 188.984 211.337 188.984V188.991Z" fill="#4F2B2B"/>
<path d="M235.934 193.244C235.2 193.244 234.4 193.17 233.533 193.029C231.865 192.755 230.227 192.258 229.249 191.962C227.537 191.443 225.684 190.687 224.951 189.005C224.439 187.834 224.617 186.388 225.418 185.151C227.982 181.186 233.021 181.245 236.875 183.068C237.824 183.52 240.974 185.188 241.618 187.819C241.907 188.99 241.633 190.176 240.825 191.25C239.825 192.584 238.18 193.251 235.934 193.251V193.244ZM233.792 191.465C236.675 191.947 238.609 191.547 239.558 190.287C240.084 189.59 240.255 188.901 240.084 188.189C239.699 186.64 237.75 185.232 236.201 184.491C232.97 182.965 228.797 182.831 226.752 185.996C226.248 186.774 226.114 187.678 226.411 188.36C226.885 189.449 228.345 190.02 229.716 190.435C230.657 190.724 232.236 191.198 233.8 191.458L233.792 191.465Z" fill="#4F2B2B"/>
<path d="M235.112 204.103C233.615 204.103 232.058 203.888 230.657 203.48C229.138 203.043 227.308 202.361 226.626 201.012C226.307 200.375 226.278 199.649 226.552 198.915C226.952 197.855 227.967 197.003 229.272 196.64C230.746 196.225 238.55 197.248 240.485 199.649C241.07 200.368 241.159 201.205 240.744 201.991C239.936 203.54 236.883 204.029 235.875 204.081C235.623 204.095 235.371 204.103 235.119 204.103H235.112ZM230.28 198.115C230.013 198.115 229.813 198.129 229.694 198.167C228.886 198.389 228.249 198.885 228.034 199.471C227.878 199.893 227.96 200.153 228.034 200.308C228.493 201.22 230.45 201.783 231.095 201.968C232.555 202.391 234.267 202.591 235.786 202.509C237.127 202.443 239.025 201.857 239.336 201.264C239.44 201.064 239.455 200.909 239.247 200.649C237.98 199.086 232.288 198.122 230.272 198.122L230.28 198.115Z" fill="#4F2B2B"/>
<path d="M258.79 212.383C258.389 212.383 258.049 212.08 258.004 211.679L257.767 209.434C257.722 208.997 258.034 208.611 258.471 208.567C258.916 208.522 259.294 208.834 259.338 209.271L259.575 211.516C259.62 211.954 259.308 212.339 258.871 212.383C258.842 212.383 258.812 212.383 258.79 212.383Z" fill="#4F2B2B"/>
<path d="M255.41 214.573C255.136 214.573 254.869 214.432 254.721 214.173C254.358 213.543 254.054 212.869 253.817 212.187C253.676 211.772 253.891 211.327 254.306 211.179C254.721 211.031 255.173 211.253 255.314 211.661C255.522 212.253 255.788 212.832 256.1 213.38C256.315 213.758 256.189 214.24 255.811 214.462C255.685 214.536 255.551 214.566 255.418 214.566L255.41 214.573Z" fill="#4F2B2B"/>
<path d="M252.927 216.853C252.727 216.853 252.527 216.779 252.371 216.623L250.667 214.948C250.356 214.644 250.348 214.14 250.659 213.829C250.963 213.518 251.467 213.51 251.779 213.822L253.483 215.496C253.794 215.8 253.802 216.304 253.491 216.616C253.335 216.771 253.127 216.853 252.927 216.853Z" fill="#4F2B2B"/>
<path d="M249.689 219.249C249.511 219.249 249.333 219.189 249.185 219.063C248.511 218.5 247.858 217.907 247.243 217.292C246.932 216.988 246.932 216.484 247.243 216.173C247.554 215.862 248.051 215.862 248.362 216.173C248.948 216.758 249.57 217.322 250.2 217.855C250.534 218.137 250.578 218.633 250.297 218.967C250.141 219.152 249.919 219.249 249.689 219.249Z" fill="#4F2B2B"/>
<path d="M245.91 222.167C245.769 222.167 245.628 222.13 245.502 222.056C244.627 221.53 243.871 220.796 243.316 219.936C243.078 219.566 243.19 219.077 243.553 218.847C243.916 218.61 244.405 218.721 244.642 219.084C245.065 219.744 245.643 220.299 246.31 220.7C246.688 220.922 246.806 221.411 246.584 221.782C246.436 222.026 246.176 222.167 245.902 222.167H245.91Z" fill="#4F2B2B"/>
<path d="M241.3 224.819C241.204 224.819 241.1 224.805 241.004 224.768L238.788 223.878C238.38 223.715 238.187 223.256 238.35 222.855C238.513 222.448 238.973 222.255 239.38 222.418L241.596 223.3C242.004 223.463 242.197 223.923 242.034 224.33C241.908 224.642 241.611 224.827 241.3 224.827V224.819Z" fill="#4F2B2B"/>
<path d="M238.224 228.304C238.113 228.304 237.994 228.282 237.891 228.23C237.246 227.926 236.572 227.696 235.882 227.526C235.46 227.422 235.193 227 235.297 226.577C235.401 226.155 235.823 225.88 236.245 225.992C237.038 226.177 237.824 226.451 238.565 226.799C238.958 226.985 239.128 227.459 238.943 227.852C238.81 228.141 238.521 228.304 238.224 228.304Z" fill="#4F2B2B"/>
<path d="M235.637 231.853C235.363 231.853 235.089 231.705 234.948 231.446C234.733 231.068 234.867 230.586 235.252 230.371L237.72 228.985C238.098 228.77 238.587 228.904 238.795 229.289C239.01 229.667 238.876 230.149 238.491 230.364L236.015 231.75C235.889 231.816 235.763 231.853 235.63 231.853H235.637Z" fill="#4F2B2B"/>
<path d="M236.869 234.96C236.691 234.96 236.52 234.9 236.372 234.782C236.031 234.508 235.979 234.011 236.253 233.67C236.972 232.788 237.832 232.047 238.81 231.484C239.188 231.262 239.67 231.395 239.892 231.773C240.115 232.151 239.981 232.633 239.603 232.855C238.788 233.329 238.077 233.937 237.484 234.671C237.328 234.863 237.098 234.967 236.869 234.967V234.96Z" fill="#4F2B2B"/>
<path d="M240.1 237.464C239.966 237.464 239.833 237.434 239.714 237.36C239.336 237.145 239.203 236.663 239.418 236.286C239.981 235.292 240.774 234.433 241.723 233.795C242.086 233.551 242.575 233.647 242.819 234.01C243.064 234.373 242.968 234.863 242.604 235.107C241.856 235.604 241.233 236.286 240.789 237.064C240.641 237.323 240.374 237.464 240.1 237.464Z" fill="#4F2B2B"/>
<path d="M242.804 240.771C242.611 240.771 242.418 240.704 242.263 240.556C241.944 240.259 241.922 239.755 242.226 239.437C243.256 238.332 244.167 237.109 244.931 235.798C245.153 235.42 245.635 235.294 246.013 235.516C246.391 235.738 246.517 236.22 246.294 236.598C245.472 238.006 244.494 239.325 243.382 240.519C243.226 240.682 243.011 240.771 242.804 240.771Z" fill="#4F2B2B"/>
<path d="M248.695 240.636C248.628 240.636 248.569 240.629 248.502 240.614C248.08 240.51 247.82 240.081 247.932 239.658C248.206 238.554 248.658 237.501 249.258 236.531C249.488 236.16 249.977 236.049 250.348 236.279C250.718 236.508 250.829 236.998 250.6 237.368C250.081 238.198 249.703 239.095 249.466 240.043C249.377 240.407 249.051 240.644 248.702 240.644L248.695 240.636Z" fill="#4F2B2B"/>
<path d="M253.016 241.378C253.016 241.378 252.949 241.378 252.912 241.378C252.482 241.319 252.171 240.926 252.23 240.489C252.364 239.444 252.349 238.377 252.186 237.332C252.119 236.902 252.408 236.494 252.845 236.428C253.275 236.361 253.683 236.65 253.75 237.087C253.942 238.288 253.957 239.503 253.801 240.696C253.75 241.097 253.409 241.386 253.016 241.386V241.378Z" fill="#4F2B2B"/>
<path d="M257.589 240.176C257.3 240.176 257.018 240.02 256.885 239.739L255.558 237.086C255.365 236.693 255.521 236.219 255.914 236.026C256.307 235.833 256.781 235.989 256.974 236.382L258.3 239.035C258.493 239.428 258.337 239.902 257.944 240.095C257.833 240.154 257.707 240.176 257.589 240.176Z" fill="#4F2B2B"/>
<path d="M262.421 238.056C262.184 238.056 261.947 237.944 261.791 237.744L259.968 235.343C259.701 234.995 259.768 234.498 260.116 234.231C260.465 233.972 260.961 234.039 261.221 234.38L263.044 236.781C263.311 237.129 263.244 237.626 262.896 237.893C262.755 238.004 262.584 238.056 262.421 238.056Z" fill="#4F2B2B"/>
<path d="M265.986 235.804C265.845 235.804 265.697 235.767 265.564 235.686L263.214 234.204C262.844 233.974 262.74 233.485 262.97 233.114C263.207 232.744 263.689 232.64 264.059 232.87L266.401 234.352C266.772 234.582 266.883 235.071 266.646 235.441C266.497 235.678 266.238 235.812 265.979 235.812L265.986 235.804Z" fill="#4F2B2B"/>
<path d="M269.951 232.039C269.906 232.039 269.869 232.039 269.825 232.032L266.868 231.55C266.438 231.484 266.141 231.076 266.215 230.646C266.282 230.209 266.69 229.912 267.12 229.994L270.077 230.476C270.507 230.542 270.803 230.95 270.729 231.38C270.662 231.765 270.329 232.047 269.951 232.047V232.039Z" fill="#4F2B2B"/>
<path d="M269.95 227.259C269.55 227.259 269.209 226.955 269.165 226.547C269.12 226.11 269.439 225.725 269.869 225.68C270.899 225.576 271.929 225.376 272.915 225.095C273.337 224.969 273.775 225.213 273.893 225.636C274.012 226.058 273.775 226.495 273.352 226.614C272.27 226.925 271.151 227.14 270.024 227.251C269.995 227.251 269.973 227.251 269.943 227.251L269.95 227.259Z" fill="#4F2B2B"/>
<path d="M270.884 223.347C270.587 223.347 270.298 223.176 270.165 222.887C269.98 222.487 270.157 222.02 270.55 221.835L273.744 220.368C274.145 220.182 274.612 220.36 274.789 220.753C274.975 221.153 274.797 221.62 274.404 221.798L271.217 223.265C271.114 223.317 270.995 223.339 270.884 223.339V223.347Z" fill="#4F2B2B"/>
<path d="M270.611 219.187C270.388 219.187 270.173 219.098 270.01 218.913C269.721 218.587 269.758 218.083 270.092 217.801C270.44 217.505 271.085 217.119 271.833 216.674C272.626 216.2 273.96 215.415 274.198 215.074C274.45 214.718 274.939 214.629 275.302 214.881C275.658 215.133 275.746 215.622 275.494 215.978C275.087 216.556 274.101 217.164 272.641 218.031C272.011 218.401 271.366 218.787 271.129 218.994C270.981 219.128 270.796 219.187 270.611 219.187Z" fill="#4F2B2B"/>
<path d="M269.809 215.289C269.698 215.289 269.587 215.266 269.483 215.215C269.083 215.029 268.912 214.562 269.098 214.17C269.639 212.999 270.439 211.931 271.425 211.094C271.758 210.805 272.255 210.849 272.536 211.183C272.818 211.516 272.781 212.013 272.448 212.295C271.64 212.984 270.98 213.866 270.528 214.829C270.395 215.118 270.106 215.289 269.809 215.289Z" fill="#4F2B2B"/>
<path d="M266.312 212.339C266.186 212.339 266.053 212.309 265.934 212.243C265.549 212.035 265.408 211.553 265.623 211.168C266.253 210.012 267.061 208.959 268.01 208.048C268.321 207.744 268.825 207.759 269.129 208.07C269.432 208.381 269.418 208.885 269.106 209.189C268.276 209.99 267.572 210.909 267.016 211.924C266.876 212.191 266.601 212.339 266.32 212.339H266.312Z" fill="#4F2B2B"/>
<path d="M261.798 212.125C261.687 212.125 261.568 212.103 261.465 212.051C261.072 211.866 260.901 211.392 261.087 210.999C261.746 209.598 262.539 208.257 263.451 207.004C263.71 206.649 264.199 206.574 264.555 206.826C264.911 207.086 264.985 207.575 264.726 207.931C263.873 209.102 263.132 210.354 262.517 211.666C262.384 211.955 262.095 212.118 261.798 212.118V212.125Z" fill="#4F2B2B"/>
<path d="M272.19 218.378C271.938 214.51 269.47 210.619 265.727 209.611C261.088 208.358 256.5 211.664 253.15 215.102C249.689 218.652 245.413 221.395 241.085 223.773C238.973 224.937 236.92 226.805 236.831 229.221C236.72 232.215 239.425 234.438 241.833 235.676C254.558 242.212 273.22 234.038 272.19 218.378Z" fill="#BF8888"/>
<path d="M261.406 225.836C260.072 225.836 258.738 225.532 257.812 224.851C257.108 224.332 256.055 223.146 256.863 221.026C257.849 218.44 261.413 215.668 264.059 215.416C265.519 215.275 266.653 215.609 267.409 216.402C268.084 217.106 268.387 218.129 268.298 219.359C268.158 221.301 266.994 223.539 265.541 224.673C264.608 225.399 262.999 225.836 261.399 225.836H261.406ZM264.682 216.965C264.534 216.965 264.371 216.973 264.207 216.987C262.177 217.173 259.109 219.581 258.338 221.582C257.886 222.761 258.36 223.279 258.753 223.568C260.183 224.628 263.348 224.384 264.578 223.42C265.69 222.553 266.616 220.752 266.727 219.233C266.764 218.692 266.72 217.958 266.268 217.484C265.934 217.136 265.401 216.958 264.689 216.958L264.682 216.965Z" fill="#4F2B2B"/>
<path d="M252.09 234.366C251.327 234.366 249.215 234.24 248.11 232.951C247.569 232.314 247.369 231.506 247.525 230.609C247.777 229.156 249.007 228.089 251.171 227.43C252.075 227.155 252.972 226.992 253.802 226.859C254.936 226.674 256.226 226.585 257.174 227.393C257.841 227.956 258.182 228.89 258.078 229.883C257.767 232.929 254.892 234.337 252.186 234.374H252.09V234.366ZM251.638 228.934C250.089 229.408 249.229 230.061 249.089 230.876C249.014 231.313 249.089 231.647 249.318 231.921C249.778 232.462 250.875 232.78 252.172 232.78C254.18 232.751 256.3 231.787 256.515 229.705C256.559 229.238 256.426 228.808 256.159 228.586C255.699 228.193 254.847 228.275 254.069 228.408C253.454 228.512 252.527 228.667 251.638 228.934Z" fill="#4F2B2B"/>
<path d="M187.124 194.671H159.754C159.45 194.671 159.169 194.493 159.035 194.218L149.638 174.208C149.453 173.816 149.623 173.341 150.016 173.156C150.409 172.971 150.883 173.141 151.068 173.534L160.251 193.092H187.116C187.553 193.092 187.909 193.448 187.909 193.885C187.909 194.322 187.553 194.678 187.116 194.678L187.124 194.671Z" fill="#8FC6D7"/>
<path d="M165.714 156.65H114.992V180.381H165.714V156.65Z" fill="#8FC6D7"/>
<path d="M142.219 163.49H118.718C118.281 163.49 117.925 163.135 117.925 162.697C117.925 162.26 118.281 161.904 118.718 161.904H142.219C142.656 161.904 143.012 162.26 143.012 162.697C143.012 163.135 142.656 163.49 142.219 163.49Z" fill="#4F2B2B"/>
<path d="M157.346 163.49H146.645C146.207 163.49 145.852 163.135 145.852 162.697C145.852 162.26 146.207 161.904 146.645 161.904H157.346C157.784 161.904 158.139 162.26 158.139 162.697C158.139 163.135 157.784 163.49 157.346 163.49Z" fill="#4F2B2B"/>
<path d="M133.378 169.073H118.718C118.281 169.073 117.925 168.718 117.925 168.28C117.925 167.843 118.281 167.487 118.718 167.487H133.378C133.815 167.487 134.171 167.843 134.171 168.28C134.171 168.718 133.815 169.073 133.378 169.073Z" fill="#4F2B2B"/>
<path d="M148.266 169.073H137.794C137.357 169.073 137.001 168.718 137.001 168.28C137.001 167.843 137.357 167.487 137.794 167.487H148.266C148.704 167.487 149.059 167.843 149.059 168.28C149.059 168.718 148.704 169.073 148.266 169.073Z" fill="#4F2B2B"/>
<path d="M127.093 174.658H118.719C118.282 174.658 117.926 174.303 117.926 173.865C117.926 173.428 118.282 173.072 118.719 173.072H127.093C127.531 173.072 127.886 173.428 127.886 173.865C127.886 174.303 127.531 174.658 127.093 174.658Z" fill="#4F2B2B"/>
<path d="M151.988 174.658H131.511C131.074 174.658 130.718 174.303 130.718 173.865C130.718 173.428 131.074 173.072 131.511 173.072H151.988C152.425 173.072 152.781 173.428 152.781 173.865C152.781 174.303 152.425 174.658 151.988 174.658Z" fill="#4F2B2B"/>
<path d="M326.853 300.447C352.458 300.447 373.84 305.627 379.035 312.549C379.82 311.497 380.25 310.408 380.25 309.289C380.25 300.81 356.342 293.933 326.853 293.933C297.364 293.933 273.456 300.81 273.456 309.289C273.456 310.408 273.878 311.497 274.671 312.549C279.866 305.635 301.255 300.447 326.853 300.447Z" fill="#2B6577"/>
<path d="M326.854 324.645C352.46 324.645 373.841 319.465 379.036 312.543C373.841 305.628 352.452 300.44 326.854 300.44C301.256 300.44 279.868 305.621 274.672 312.543C279.868 319.457 301.256 324.645 326.854 324.645Z" fill="#8FC6D7"/>
<path d="M336.044 317.64C336.044 318.937 333.754 319.99 330.923 319.99C328.092 319.99 325.802 318.937 325.802 317.64C325.802 316.343 328.092 315.291 330.923 315.291C333.754 315.291 336.044 316.343 336.044 317.64Z" fill="#BF8888"/>
<path d="M326.853 324.644C301.247 324.644 279.866 319.464 274.671 312.542C273.885 313.594 273.456 314.684 273.456 315.803C273.456 324.281 297.364 331.159 326.853 331.159C356.342 331.159 380.25 324.281 380.25 315.803C380.25 314.684 379.828 313.594 379.035 312.542C373.84 319.457 352.451 324.644 326.853 324.644Z" fill="#2B6577"/>
<path d="M311.142 127.451C311.142 127.451 292.295 131.987 280.778 140.361C269.262 148.736 259.486 182.242 277.984 193.759L318.82 184.687L344.648 190.972L358.61 174.571L360.352 155.725L311.142 127.451Z" fill="#FFBE97"/>
<path d="M287.76 146.645C287.76 146.645 273.1 159.206 272.752 169.33C272.404 179.454 274.145 200.739 286.366 205.978C298.58 211.21 304.168 202.836 302.419 196.203C300.67 189.57 300.321 176.311 300.321 176.311L315.677 164.098L287.752 146.645H287.76Z" fill="#FFBE97"/>
<path d="M296.831 153.276C296.831 153.276 282.172 165.838 281.824 175.962C281.475 186.086 283.217 207.37 295.438 212.61C307.652 217.842 313.24 209.468 311.491 202.835C309.749 196.202 309.393 182.943 309.393 182.943L324.749 170.73L296.824 153.276H296.831Z" fill="#FFBE97"/>
<path d="M360.36 155.715C360.36 155.715 374.626 128.686 417.248 156.53C434.701 167.928 450.983 214.352 450.983 214.352L526.836 236.222L506.641 173.561C493.264 129.969 456.727 92.1199 410.978 83.7453C371.298 76.4823 333.828 84.5086 311.142 127.441L360.352 155.715H360.36Z" fill="#DF8711"/>
<path d="M295.534 164.409C295.534 164.409 287.204 181.825 290.976 191.223C294.749 200.62 304.946 219.392 318.235 219.244C331.523 219.096 333.25 209.18 328.973 203.814C324.697 198.456 319.02 186.465 319.02 186.465L328.129 169.086L295.534 164.409Z" fill="#FFBE97"/>
<path d="M319.524 227.499V290.405C319.524 292.436 319.776 294.466 320.288 296.43L323.015 307.073H329.648L332.375 296.43C332.879 294.459 333.139 292.436 333.139 290.405V227.499H319.524Z" fill="#C8F7E1"/>
<path d="M324.534 305.118L322.185 295.943C321.718 294.134 321.488 292.267 321.488 290.399V262.607H331.182V290.399C331.182 292.267 330.945 294.134 330.485 295.943L328.136 305.118H324.542H324.534Z" fill="#BF8888"/>
<path d="M342.906 209.639C342.906 218.792 335.48 234.593 326.327 234.593C317.175 234.593 309.749 218.792 309.749 209.639C309.749 200.487 317.175 193.061 326.327 193.061C335.48 193.061 342.906 200.487 342.906 209.639Z" fill="#2B6577"/>
<path d="M360.359 155.714C360.359 155.714 367.34 182.935 363.849 191.665C361.463 197.639 350.413 205.08 339.2 208.511C331.611 210.838 323.725 205.858 322.488 198.024C321.732 193.251 323.674 188.456 327.527 185.544L338.37 177.354L360.359 155.714Z" fill="#FFBE97"/>
<path d="M296.393 354.72L308.925 363.488L312.979 365.125L306.924 330.204L295.918 342.625C292.813 346.131 293.021 351.467 296.393 354.72Z" fill="#FFBE97"/>
<path d="M293.303 343.397C293.74 343.708 294.192 343.99 294.674 344.234C295.778 344.797 299.543 344.909 300.151 345.835L312.179 364.074L308.518 362.629L310.793 367.416C311.801 369.536 313.091 371.5 314.632 373.271L320.85 380.408L334.027 387.241C338.555 389.59 343.684 390.524 348.753 389.924L375.255 386.782L384.045 385.751C396.021 377.807 401.142 347.302 399.542 336.349L384.238 333.621L383.052 333.399L343.965 326.425L320.079 326.388L291.783 324.395C289.456 325.343 287.774 327.463 287.492 329.96C287.085 333.607 288.278 337.446 290.383 340.417C291.191 341.559 292.176 342.589 293.31 343.404L293.303 343.397Z" fill="#FFBE97"/>
<path d="M319.887 351.309C320.235 351.198 320.524 350.916 320.613 350.538C320.754 349.96 320.398 349.375 319.827 349.234L296.964 343.609C296.386 343.476 295.801 343.816 295.66 344.395C295.519 344.973 295.875 345.558 296.445 345.699L319.309 351.324C319.509 351.368 319.701 351.361 319.887 351.309Z" fill="#4F2B2B"/>
<path d="M324.377 369.794C324.681 369.698 324.933 369.475 325.059 369.164C325.274 368.608 325.007 367.986 324.451 367.763L310.422 362.22C309.866 362.005 309.243 362.272 309.021 362.827C308.806 363.383 309.073 364.006 309.629 364.228L323.658 369.772C323.895 369.868 324.147 369.868 324.369 369.801L324.377 369.794Z" fill="#4F2B2B"/>
<path d="M329.633 382.26C329.936 382.164 330.196 381.941 330.314 381.623C330.529 381.067 330.255 380.444 329.699 380.23L322.258 377.347C321.703 377.132 321.08 377.398 320.865 377.962C320.65 378.518 320.924 379.14 321.48 379.355L328.921 382.238C329.158 382.327 329.403 382.334 329.625 382.26H329.633Z" fill="#4F2B2B"/>
<path d="M399.534 336.331L344.062 304.915C342.283 303.907 340.193 303.596 338.2 304.048C333.13 305.197 330.381 310.703 332.523 315.447L336.999 325.37L359.855 342.386L399.534 336.339V336.331Z" fill="#FFBE97"/>
<path d="M369.452 331.438C369.363 331.438 369.282 331.423 369.193 331.394C360.047 328.237 350.094 326.821 340.438 327.273C340 327.325 339.63 326.962 339.607 326.525C339.585 326.087 339.926 325.717 340.356 325.702C350.22 325.22 360.366 326.688 369.704 329.904C370.119 330.045 370.334 330.497 370.193 330.912C370.082 331.238 369.771 331.446 369.445 331.446L369.452 331.438Z" fill="#4F2B2B"/>
<path d="M379.317 386.536L415.854 386.773L422.131 336.511L392.612 330.737L379.317 386.536Z" fill="#F5C07A"/>
<path d="M390.723 328.833V394.451C390.723 394.451 482.866 410.971 512.184 388.166C541.503 365.362 574.312 251.349 530.097 236.223C481.347 219.548 461.692 280.897 452.384 326.965L390.723 328.825V328.833Z" fill="#DF8711"/>
<path d="M452.384 327.759C452.332 327.759 452.28 327.759 452.229 327.744C451.799 327.656 451.524 327.241 451.613 326.811C460.107 284.775 471.868 257.494 487.572 243.413C487.898 243.117 488.395 243.146 488.691 243.472C488.98 243.798 488.958 244.295 488.632 244.591C473.187 258.443 461.589 285.434 453.162 327.129C453.088 327.507 452.755 327.767 452.392 327.767L452.384 327.759Z" fill="#4F2B2B"/>
<path d="M500.652 201.16L497.139 191.318L451.531 207.608L463.997 242.522C481.383 232.784 496.776 220.881 500.645 201.16H500.652Z" fill="#4F2B2B"/>
<path d="M511.072 230.325L500.659 201.162C496.783 220.883 481.398 232.785 464.011 242.524L465.471 246.615L511.079 230.325H511.072Z" fill="#FFBE97"/>
<path d="M467.74 187.829C467.74 199.975 451.895 210.166 439.237 210.166C426.578 210.166 416.314 200.324 416.314 188.177C416.314 176.03 428.787 162.935 441.445 162.935C454.103 162.935 467.74 175.689 467.74 187.829Z" fill="#4F2B2B"/>
<path d="M471.053 231.242C448.219 238.09 427.045 226.291 421.346 207.252C420.175 203.361 419.834 199.418 420.227 195.505C420.235 195.261 420.264 195.031 420.309 194.794C420.316 194.757 420.324 194.727 420.316 194.697C420.368 194.282 420.42 193.882 420.501 193.475C420.531 193.126 420.605 192.785 420.672 192.452C421.22 189.495 422.206 186.597 423.584 183.811C423.584 183.811 423.587 183.798 423.592 183.773C424.185 182.565 424.837 181.387 425.556 180.231C431.092 171.323 440.504 163.956 452.355 160.406C475.188 153.558 498.326 163.437 504.04 182.454C509.754 201.486 493.887 224.409 471.06 231.249L471.053 231.242Z" fill="#FFBE97"/>
<path d="M459.387 205.525C459.78 207.496 457.134 209.682 453.473 210.416C449.812 211.15 446.529 210.149 446.136 208.178C445.743 206.206 448.389 204.02 452.05 203.286C455.711 202.553 458.994 203.553 459.387 205.525Z" fill="#FB8876"/>
<path d="M425.355 198.804L419.448 211.136C418.685 212.729 419.708 214.604 421.464 214.819L429.839 215.864L425.355 198.804Z" fill="#FFBE97"/>
<path d="M435.323 206.955C436.235 206.77 436.828 205.888 436.642 204.976L436.109 202.308C435.923 201.397 435.042 200.804 434.13 200.989C433.218 201.174 432.625 202.056 432.811 202.968L433.344 205.636C433.53 206.547 434.412 207.14 435.323 206.955Z" fill="#28151F"/>
<path d="M458.498 177.045L502.876 203.525C502.876 203.525 512.407 180.557 497.333 166.424C470.541 141.308 426.134 166.461 425.556 180.224L458.498 177.045Z" fill="#4F2B2B"/>
<path d="M427.09 196.987C426.808 196.987 426.534 196.831 426.393 196.565C426.193 196.179 426.341 195.697 426.727 195.497C431.292 193.089 436.769 192.496 441.749 193.867C442.172 193.985 442.416 194.415 442.298 194.838C442.179 195.26 441.749 195.505 441.327 195.394C436.732 194.126 431.677 194.675 427.46 196.898C427.342 196.957 427.216 196.987 427.09 196.987Z" fill="#4F2B2B"/>
<path d="M441.809 221.993C441.357 221.993 440.971 221.971 440.66 221.941C439.133 221.793 437.273 221.297 436.643 220.333C436.406 219.97 436.51 219.481 436.873 219.236C437.236 218.999 437.725 219.103 437.97 219.466C438.088 219.644 439.052 220.215 440.919 220.37C442.468 220.496 446.404 220.452 449.561 217.183C449.865 216.872 450.361 216.865 450.68 217.169C450.998 217.473 451.006 217.969 450.702 218.288C447.656 221.437 444.002 221.993 441.823 221.993H441.809Z" fill="#4F2B2B"/>
<path d="M302.256 212.742C302.012 212.742 301.767 212.631 301.619 212.416C297.847 207.228 293.949 201.855 291.466 195.749C288.02 187.255 288.338 178.103 292.348 170.617C292.555 170.232 293.037 170.084 293.415 170.291C293.8 170.499 293.941 170.973 293.741 171.358C289.954 178.421 289.657 187.092 292.926 195.148C295.334 201.077 299.173 206.361 302.894 211.482C303.153 211.838 303.072 212.327 302.716 212.587C302.575 212.69 302.412 212.735 302.249 212.735L302.256 212.742Z" fill="#4F2B2B"/>
<path d="M286.055 203.124C285.707 203.124 285.388 202.894 285.292 202.546L282.342 191.896C281.253 187.975 280.134 183.921 280.186 179.704C280.267 173.242 283.284 166.92 288.264 162.8C288.597 162.518 289.101 162.57 289.376 162.903C289.65 163.237 289.605 163.741 289.272 164.015C284.647 167.847 281.846 173.724 281.764 179.727C281.713 183.714 282.809 187.657 283.862 191.473L286.811 202.123C286.93 202.546 286.678 202.983 286.263 203.094C286.189 203.116 286.122 203.124 286.048 203.124H286.055Z" fill="#4F2B2B"/>
<path d="M273.685 188.153C273.381 188.153 273.1 187.982 272.966 187.693C267.586 175.872 270.899 160.509 280.689 151.964C281.015 151.675 281.519 151.712 281.801 152.038C282.09 152.364 282.052 152.868 281.726 153.157C272.448 161.258 269.298 175.828 274.404 187.041C274.582 187.441 274.404 187.908 274.011 188.086C273.908 188.13 273.796 188.16 273.685 188.16V188.153Z" fill="#4F2B2B"/>
<path d="M335.169 236.689H317.486C315.048 236.689 313.062 234.71 313.062 232.264C313.062 229.826 315.041 227.84 317.486 227.84H335.169C337.608 227.84 339.594 229.819 339.594 232.264C339.594 234.703 337.615 236.689 335.169 236.689Z" fill="#2B6577"/>
<path d="M310.682 318.597C315.438 318.597 319.293 316.825 319.293 314.639C319.293 312.453 315.438 310.682 310.682 310.682C305.925 310.682 302.07 312.453 302.07 314.639C302.07 316.825 305.925 318.597 310.682 318.597Z" fill="#BF8888"/>
<path d="M332.434 248.651H328.247C327.809 248.651 327.454 248.296 327.454 247.858C327.454 247.421 327.809 247.065 328.247 247.065H332.434C332.871 247.065 333.227 247.421 333.227 247.858C333.227 248.296 332.871 248.651 332.434 248.651Z" fill="#4F2B2B"/>
<path d="M332.434 254.929H328.247C327.809 254.929 327.454 254.573 327.454 254.136C327.454 253.699 327.809 253.343 328.247 253.343H332.434C332.871 253.343 333.227 253.699 333.227 254.136C333.227 254.573 332.871 254.929 332.434 254.929Z" fill="#4F2B2B"/>
<path d="M332.434 261.214H328.247C327.809 261.214 327.454 260.858 327.454 260.421C327.454 259.984 327.809 259.628 328.247 259.628H332.434C332.871 259.628 333.227 259.984 333.227 260.421C333.227 260.858 332.871 261.214 332.434 261.214Z" fill="#4F2B2B"/>
<path d="M332.434 267.498H328.247C327.809 267.498 327.454 267.142 327.454 266.705C327.454 266.268 327.809 265.912 328.247 265.912H332.434C332.871 265.912 333.227 266.268 333.227 266.705C333.227 267.142 332.871 267.498 332.434 267.498Z" fill="#4F2B2B"/>
<path d="M332.434 273.774H328.247C327.809 273.774 327.454 273.419 327.454 272.981C327.454 272.544 327.809 272.188 328.247 272.188H332.434C332.871 272.188 333.227 272.544 333.227 272.981C333.227 273.419 332.871 273.774 332.434 273.774Z" fill="#4F2B2B"/>
<path d="M332.434 280.059H328.247C327.809 280.059 327.454 279.703 327.454 279.266C327.454 278.828 327.809 278.473 328.247 278.473H332.434C332.871 278.473 333.227 278.828 333.227 279.266C333.227 279.703 332.871 280.059 332.434 280.059Z" fill="#4F2B2B"/>
<path d="M153.389 251.794H117.089C116.652 251.794 116.296 251.438 116.296 251.001V207.305C116.296 206.867 116.652 206.512 117.089 206.512H134.194C134.401 206.512 134.601 206.593 134.75 206.741L140.101 212.092H153.381C153.819 212.092 154.174 212.448 154.174 212.885V251.001C154.174 251.438 153.819 251.794 153.381 251.794H153.389ZM117.882 250.215H152.596V213.678H139.774C139.567 213.678 139.367 213.597 139.219 213.449L133.868 208.098H117.882V250.215Z" fill="#2B6577"/>
<path d="M137.135 224.738H122.728C122.291 224.738 121.935 224.383 121.935 223.945C121.935 223.508 122.291 223.152 122.728 223.152H137.135C137.573 223.152 137.928 223.508 137.928 223.945C137.928 224.383 137.573 224.738 137.135 224.738Z" fill="white"/>
<path d="M146.408 224.738H139.849C139.411 224.738 139.056 224.383 139.056 223.945C139.056 223.508 139.411 223.152 139.849 223.152H146.408C146.845 223.152 147.201 223.508 147.201 223.945C147.201 224.383 146.845 224.738 146.408 224.738Z" fill="white"/>
<path d="M137.136 223.163H122.729V224.742H137.136V223.163Z" fill="#4F2B2B"/>
<path d="M146.408 223.163H139.849V224.742H146.408V223.163Z" fill="#4F2B2B"/>
<path d="M137.135 242.193H122.728C122.291 242.193 121.935 241.838 121.935 241.4C121.935 240.963 122.291 240.607 122.728 240.607H137.135C137.573 240.607 137.928 240.963 137.928 241.4C137.928 241.838 137.573 242.193 137.135 242.193Z" fill="white"/>
<path d="M146.408 242.193H139.849C139.411 242.193 139.056 241.838 139.056 241.4C139.056 240.963 139.411 240.607 139.849 240.607H146.408C146.845 240.607 147.201 240.963 147.201 241.4C147.201 241.838 146.845 242.193 146.408 242.193Z" fill="white"/>
<path d="M137.136 240.607H122.729V242.186H137.136V240.607Z" fill="#4F2B2B"/>
<path d="M146.408 240.607H139.849V242.186H146.408V240.607Z" fill="#4F2B2B"/>
<path d="M131.718 230.324H122.736C122.299 230.324 121.943 229.969 121.943 229.531C121.943 229.094 122.299 228.738 122.736 228.738H131.718C132.155 228.738 132.511 229.094 132.511 229.531C132.511 229.969 132.155 230.324 131.718 230.324Z" fill="white"/>
<path d="M140.842 230.324H134.424C133.987 230.324 133.631 229.969 133.631 229.531C133.631 229.094 133.987 228.738 134.424 228.738H140.842C141.28 228.738 141.635 229.094 141.635 229.531C141.635 229.969 141.28 230.324 140.842 230.324Z" fill="white"/>
<path d="M131.712 228.745H122.729V230.324H131.712V228.745Z" fill="#4F2B2B"/>
<path d="M140.843 228.745H134.425V230.324H140.843V228.745Z" fill="#4F2B2B"/>
<path d="M127.864 235.909H122.728C122.291 235.909 121.935 235.553 121.935 235.116C121.935 234.679 122.291 234.323 122.728 234.323H127.864C128.301 234.323 128.657 234.679 128.657 235.116C128.657 235.553 128.301 235.909 127.864 235.909Z" fill="white"/>
<path d="M143.125 235.909H130.578C130.14 235.909 129.785 235.553 129.785 235.116C129.785 234.679 130.14 234.323 130.578 234.323H143.125C143.562 234.323 143.918 234.679 143.918 235.116C143.918 235.553 143.562 235.909 143.125 235.909Z" fill="white"/>
<path d="M127.865 234.327H122.729V235.906H127.865V234.327Z" fill="#4F2B2B"/>
<path d="M143.124 234.327H130.577V235.906H143.124V234.327Z" fill="#4F2B2B"/>
<g opacity="0.46">
<path d="M448.144 210.989L430.765 213.946C428.838 214.272 426.941 213.242 426.163 211.449L423.065 204.297C421.968 201.77 423.532 198.894 426.245 198.427L448.196 194.692C451.102 194.196 453.614 196.745 453.08 199.65L451.605 207.58C451.279 209.329 449.901 210.693 448.144 210.989Z" fill="white"/>
</g>
<path d="M423.065 205.083C422.761 205.083 422.472 204.905 422.339 204.608C421.724 203.178 421.79 201.577 422.531 200.214C423.273 198.843 424.577 197.909 426.111 197.649L448.063 193.914C449.686 193.633 451.339 194.174 452.495 195.344C453.651 196.515 454.155 198.176 453.858 199.791C453.777 200.221 453.362 200.503 452.939 200.421C452.51 200.34 452.228 199.932 452.309 199.502C452.517 198.376 452.176 197.264 451.376 196.449C450.575 195.634 449.464 195.278 448.337 195.47L426.385 199.206C425.333 199.384 424.436 200.028 423.932 200.962C423.421 201.896 423.376 203 423.799 203.978C423.969 204.379 423.791 204.846 423.384 205.016C423.28 205.061 423.176 205.083 423.072 205.083H423.065Z" fill="#0151A1"/>
<path d="M424.851 209.64L420.723 210.344C419.538 210.544 418.411 209.744 418.204 208.558C418.003 207.372 418.804 206.246 419.99 206.038L424.118 205.334C425.303 205.134 426.43 205.935 426.637 207.12C426.838 208.306 426.037 209.433 424.851 209.64Z" fill="#0151A1"/>
<path d="M463.641 198.554L452.258 202.149L451.05 196.161L462.863 194.708L463.641 198.554Z" fill="#0151A1"/>
<path d="M461.225 197.871C460.87 197.871 460.543 197.626 460.454 197.27C460.351 196.848 460.61 196.418 461.033 196.314L491.226 188.985C491.522 188.918 491.833 189.022 492.026 189.252L495.865 193.965C496.139 194.306 496.087 194.803 495.754 195.077C495.42 195.351 494.916 195.306 494.642 194.966L491.114 190.637L461.411 197.848C461.344 197.863 461.285 197.871 461.225 197.871Z" fill="#0151A1"/>
<path d="M495.882 205.115C500.522 202.736 502.356 197.046 499.977 192.405C497.598 187.765 491.908 185.931 487.268 188.31C482.628 190.689 480.794 196.379 483.173 201.019C485.551 205.66 491.242 207.493 495.882 205.115Z" fill="#FFBE97"/>
<path d="M494.782 197.352L489.713 199.413C488.897 199.746 487.964 199.353 487.63 198.538C487.297 197.723 487.689 196.789 488.505 196.455L493.574 194.395C494.389 194.062 495.323 194.454 495.656 195.27C495.99 196.085 495.597 197.019 494.782 197.352Z" fill="#4F2B2B"/>
<path d="M521.997 191.924C528.096 199.417 531.498 208.666 535.722 217.351C539.946 226.037 545.497 234.686 554.094 239.096C539.339 237.866 525.821 229.395 516.194 218.463C511.532 213.172 507.56 207.132 505.025 200.536C503.209 195.815 499.741 187.781 502.416 182.793C503.024 181.652 503.899 180.822 505.158 180.437C510.532 178.806 519.054 188.3 521.997 191.924Z" fill="#4F2B2B"/>
<path d="M440.979 165.025C440.979 165.025 425.371 166.811 421.902 178.054C417.018 193.877 463.323 192.017 463.323 192.017C463.323 192.017 459.136 186.429 458.899 183.872L480.539 197.138L485.66 205.283L482.866 180.848L440.986 165.025H440.979Z" fill="#4F2B2B"/>
</g>
</svg>
