<?xml version="1.0" encoding="utf-8"?>
<!-- Generator: Adobe Illustrator 28.1.0, SVG Export Plug-In . SVG Version: 6.00 Build 0)  -->
<svg version="1.1" id="Layer_1" xmlns="http://www.w3.org/2000/svg" xmlns:xlink="http://www.w3.org/1999/xlink" x="0px" y="0px"
	 viewBox="0 0 470 250" style="enable-background:new 0 0 470 250;" xml:space="preserve">
<style type="text/css">
	.st0{fill:#BF8888;}
	.st1{fill:#B4185C;}
	.st2{fill:#4F2B2B;}
	.st3{fill:#FFBE97;}
	.st4{fill:#FF9D6C;}
	.st5{fill:#8FC6D7;}
	.st6{fill:#FBE4C6;}
	.st7{fill:#F2AE54;}
	.st8{fill:#DF8711;}
</style>
<rect x="161.6" y="220.3" class="st0" width="14.6" height="29"/>
<rect x="296.3" y="220.3" class="st0" width="14.5" height="29"/>
<path class="st0" d="M176.2,250c-0.4,0-0.7-0.3-0.7-0.7V221h-13.1v28.2c0,0.4-0.3,0.7-0.7,0.7s-0.7-0.3-0.7-0.7v-29
	c0-0.4,0.3-0.7,0.7-0.7h14.6c0.4,0,0.7,0.3,0.7,0.7v29C176.9,249.7,176.6,250,176.2,250L176.2,250z"/>
<path class="st0" d="M310.9,250c-0.4,0-0.7-0.3-0.7-0.7V221h-13.1v28.2c0,0.4-0.3,0.7-0.7,0.7c-0.4,0-0.7-0.3-0.7-0.7v-29
	c0-0.4,0.3-0.7,0.7-0.7h14.5c0.4,0,0.7,0.3,0.7,0.7v29C311.6,249.7,311.3,250,310.9,250z"/>
<polygon class="st1" points="261.1,115.8 209,115.8 234.2,192.8 "/>
<polygon class="st0" points="225.1,133.1 230.3,142.6 236.8,142.6 242.4,133.1 "/>
<polygon class="st0" points="240.3,172 233.8,182.4 228.1,172 230.3,137.8 236.4,137.8 "/>
<path class="st1" d="M304,128.2c-14.1-17.4-39.9-12.4-39.9-12.4h-3l-26.9,75.7L209,115.8h-3c0,0-25.8-4.9-39.9,12.4
	c-12.1,15,4.9,82.6,4.9,82.6h128C299.1,210.8,316.1,143.2,304,128.2z"/>
<path class="st2" d="M220.1,76.3c0,0-17.2,0.2-20.7,14.8c-2.6,10.9,2.4,21.2,2.4,21.2l64.3,2.9c0,0,6.6-10.4,4-20.9
	C267.5,83.4,245.1,58.6,220.1,76.3L220.1,76.3z"/>
<circle class="st3" cx="203.7" cy="110.6" r="6.9"/>
<ellipse transform="matrix(0.8929 -0.4502 0.4502 0.8929 -21.1758 131.626)" class="st3" cx="266.1" cy="110.3" rx="6.9" ry="6.9"/>
<path class="st4" d="M205,113.2l-4-0.2c-0.6,0-1.1-0.6-1.1-1.2s0.6-1.1,1.2-1.1l4,0.2c0.6,0,1.1,0.6,1.1,1.2S205.6,113.2,205,113.2z
	"/>
<path class="st3" d="M265,110.8c-0.9,14.2-17.1,25.8-34,24.7s-28.1-14.2-27.2-28.4s14.9-27.2,31.9-26.8
	C255.3,80.8,265.8,96.5,265,110.8z"/>
<path class="st2" d="M220.6,106c-0.6,0-1-0.4-1-1l0-1.8c0-0.6,0.4-1,1-1c0.6,0,1,0.4,1,1l0,1.8C221.6,105.5,221.1,106,220.6,106z"/>
<path class="st2" d="M244.1,106c-0.6,0-1-0.4-1-1l0-1.8c0-0.6,0.4-1,1-1c0.6,0,1,0.4,1,1l0,1.8C245.1,105.5,244.6,106,244.1,106z"/>
<path class="st2" d="M252.3,99.3c-0.2,0-0.5-0.1-0.6-0.3c-1.6-2.5-9.9-3.6-13.1-2.3c-0.4,0.2-0.8,0-0.9-0.4s0-0.8,0.4-0.9
	c3.6-1.4,12.7-0.4,14.8,2.8c0.2,0.3,0.1,0.8-0.2,1C252.6,99.2,252.4,99.3,252.3,99.3L252.3,99.3z"/>
<path class="st2" d="M213.7,99.3c0.2,0,0.5-0.1,0.6-0.3c1.6-2.5,9.9-3.6,13.1-2.3c0.4,0.2,0.8,0,0.9-0.4s0-0.8-0.4-0.9
	c-3.6-1.4-12.7-0.4-14.8,2.8c-0.2,0.3-0.1,0.8,0.2,1C213.5,99.2,213.6,99.3,213.7,99.3L213.7,99.3z"/>
<ellipse transform="matrix(4.362356e-03 -1 1 4.362356e-03 103.3004 327.865)" class="st4" cx="216.3" cy="112.1" rx="2.6" ry="4.8"/>
<ellipse transform="matrix(4.363474e-03 -1 1 4.363474e-03 137.639 362.3585)" class="st4" cx="250.8" cy="112.1" rx="2.6" ry="4.8"/>
<path class="st2" d="M231,110c-0.1,0-0.3,0-0.4-0.1c-0.3-0.2-0.4-0.7-0.2-1c0.7-1.1,0.9-2.8,0.4-4.3c-0.5-1.8-1.6-3.3-3.2-4.1
	c-0.4-0.2-0.5-0.6-0.3-1c0.2-0.4,0.6-0.5,1-0.3c2,1,3.4,2.8,4,5c0.5,2,0.3,4.1-0.6,5.5C231.5,109.9,231.3,110,231,110L231,110z"/>
<path class="st2" d="M228.1,120.3c0-0.1,0.1-0.2,0.2-0.3c0.3-0.3,0.8-0.3,1,0c0.9,0.9,2.4,1.5,4.1,1.5c1.9,0,3.6-0.8,4.8-2.1
	c0.3-0.3,0.7-0.3,1-0.1c0.3,0.3,0.3,0.7,0.1,1c-1.5,1.7-3.6,2.6-5.9,2.6c-2.1,0-4-0.7-5.2-2C228.1,120.8,228,120.5,228.1,120.3
	L228.1,120.3z"/>
<path class="st2" d="M221,77.9c0,0,0,14.7,20.1,13.2c0,0,11.1,4,20.6,0.7C261.7,91.8,233.7,67.9,221,77.9z"/>
<path class="st2" d="M222.2,84.6c0,0-9.6,15.6-20.6,17.8l5.3-17.9l17.6-4.4L222.2,84.6z"/>
<polygon class="st1" points="196.9,143 172.2,189.9 220.4,202.4 224.3,144.4 "/>
<polygon class="st1" points="269.8,143 294.5,189.9 246.4,202.4 242.4,144.4 "/>
<path class="st2" d="M220.4,203.1C220.3,203.1,220.3,203.1,220.4,203.1c-0.4,0-0.8-0.4-0.7-0.8l3.9-57.2l-26.2-1.3l-24.5,46.5
	c-0.2,0.4-0.6,0.5-1,0.3c-0.4-0.2-0.5-0.6-0.3-1l24.7-46.9c0.1-0.2,0.4-0.4,0.7-0.4l27.4,1.4c0.2,0,0.4,0.1,0.5,0.2
	c0.1,0.1,0.2,0.3,0.2,0.5l-4,58C221.1,202.8,220.7,203.1,220.4,203.1L220.4,203.1z"/>
<path class="st2" d="M246.4,203.1c-0.4,0-0.7-0.3-0.7-0.7l-4-58c0-0.2,0.1-0.4,0.2-0.5c0.1-0.1,0.3-0.2,0.5-0.2l27.4-1.4
	c0.3,0,0.5,0.1,0.7,0.4l24.7,46.9c0.2,0.4,0,0.8-0.3,1s-0.8,0.1-1-0.3l-24.5-46.5l-26.2,1.3l3.9,57.2
	C247.2,202.7,246.9,203.1,246.4,203.1C246.4,203.1,246.4,203.1,246.4,203.1L246.4,203.1z"/>
<path class="st3" d="M264.1,112.9c0.1,0.2,0.2,0.3,0.2,0.5l4.2,11.4c0.1,0.3,0.4,0.5,0.7,0.5c0.1,0,0.2,0,0.2-0.1
	c0.4-0.1,0.6-0.6,0.4-0.9l-4.2-11.4c-0.1-0.2-0.2-0.4-0.3-0.6c0.4-0.3,0.9-0.5,1.5-0.6c1.3-0.1,2.5,0.6,3.1,1.7l5.3,11
	c1.4,3,1.2,6.5-0.6,9.3l-5.8,8.9c-1.4,2.2-3.6,3.9-6.2,4.6l-7.3,2.1c-3.4,1-7,0.3-9.8-1.8c-2.7-2-4.3-5.1-4.3-8.5c0-0.1,0-0.3,0-0.4
	c0.2-3,4.3-8.6,5.9-10.5c0.1-0.2,0.2-0.4,0.1-0.6l-1.9-9.8c-0.1-0.7,0.2-1.5,0.7-2.1c0.5-0.6,1.3-0.9,2.1-0.9h0
	c1.2,0,2.2,0.7,2.6,1.8l3.9,10.6c0.1,0.4,0.6,0.6,0.9,0.4s0.6-0.6,0.4-0.9l-3.9-10.5c-0.3-0.8-0.9-1.5-1.6-2c0.3-1.3,1.5-2.3,3-2.3
	c1.3,0,2.5,0.8,2.9,2l4.2,11.4c0.1,0.3,0.4,0.5,0.7,0.5c0.1,0,0.2,0,0.2-0.1c0.4-0.1,0.6-0.6,0.4-0.9l-3.8-10.2
	c-0.1-0.8,0.1-1.5,0.6-2.1c0.5-0.6,1.4-1,2.4-1c0.9,0,1.7,0.3,2.3,0.9L264.1,112.9L264.1,112.9z"/>
<path class="st3" d="M264.1,112.9c0.1,0.2,0.2,0.3,0.2,0.5l4.2,11.4c0.1,0.3,0.4,0.5,0.7,0.5c0.1,0,0.2,0,0.2-0.1
	c0.4-0.1,0.6-0.6,0.4-0.9l-4.2-11.4c-0.1-0.2-0.2-0.4-0.3-0.6c0.4-0.3,0.9-0.5,1.5-0.6c1.3-0.1,2.5,0.6,3.1,1.7l5.3,11
	c1.4,3,1.2,6.5-0.6,9.3l-5.8,8.9c-1.4,2.2-3.6,3.9-6.2,4.6l-7.3,2.1c-3.4,1-7,0.3-9.8-1.8c-2.7-2-4.3-5.1-4.3-8.5c0-0.1,0-0.3,0-0.4
	c0.2-3,4.3-8.6,5.9-10.5c0.1-0.2,0.2-0.4,0.1-0.6l-1.9-9.8c-0.1-0.7,0.2-1.5,0.7-2.1c0.5-0.6,1.3-0.9,2.1-0.9h0
	c1.2,0,2.2,0.7,2.6,1.8l3.9,10.6c0.1,0.4,0.6,0.6,0.9,0.4s0.6-0.6,0.4-0.9l-3.9-10.5c-0.3-0.8-0.9-1.5-1.6-2c0.3-1.3,1.5-2.3,3-2.3
	c1.3,0,2.5,0.8,2.9,2l4.2,11.4c0.1,0.3,0.4,0.5,0.7,0.5c0.1,0,0.2,0,0.2-0.1c0.4-0.1,0.6-0.6,0.4-0.9l-3.8-10.2
	c-0.1-0.8,0.1-1.5,0.6-2.1c0.5-0.6,1.4-1,2.4-1c0.9,0,1.7,0.3,2.3,0.9L264.1,112.9L264.1,112.9z M239.9,138.6c0,0.1,0,0.3,0,0.5
	c0,3.8,1.8,7.3,4.9,9.6c2.2,1.7,4.9,2.5,7.5,2.5c1.2,0,2.4-0.2,3.6-0.5l7.3-2.1c2.9-0.8,5.4-2.7,7-5.2l5.8-8.9
	c2.1-3.2,2.3-7.3,0.7-10.7l-5.3-11c-0.8-1.7-2.7-2.8-4.6-2.6c-0.8,0.1-1.6,0.4-2.2,0.9c-0.8-0.8-1.9-1.2-3.1-1.2h0
	c-1.4,0-2.6,0.5-3.5,1.5c-0.2,0.2-0.4,0.5-0.5,0.8c-0.8-1.2-2.2-2-3.7-2h0c-2,0-3.7,1.3-4.3,3.2c-0.4-0.1-0.7-0.2-1.1-0.2
	c-1.2,0-2.4,0.5-3.2,1.4c-0.8,0.9-1.2,2.1-1,3.3l1.9,9.6C244.8,128.9,240.1,134.9,239.9,138.6L239.9,138.6z"/>
<path d="M247.6,126.7c-1.4,1.2-3.3,3.2-4.6,5.3c-0.7,1.1-1.2,2.1-1.5,3.1s-0.3,1.8,0,2.4l-1.4,0.6c-0.5-1.1-0.4-2.3-0.1-3.4
	c0.3-1.1,0.9-2.3,1.7-3.5c1.5-2.2,3.5-4.3,4.9-5.6L247.6,126.7z M246.8,123.3l1,2.6l-1.4,0.6l-1-2.6L246.8,123.3z M241.5,137.4
	c0.2,0.4,0,0.8-0.4,1c-0.4,0.2-0.8,0-1-0.4L241.5,137.4z M247.1,126.1l0.7-0.3l0.2,0.5l-0.4,0.3L247.1,126.1z M245.4,123.9
	c-0.1-0.4,0-0.8,0.4-1c0.4-0.2,0.8,0,1,0.4L245.4,123.9z"/>
<path d="M251.8,115c0.5,1.1,1.4,3.5,2.3,5.8c0.9,2.3,1.7,4.6,2.1,5.5l-1.4,0.6c-0.4-1-1.3-3.3-2.1-5.6c-0.9-2.3-1.7-4.6-2.2-5.6
	L251.8,115z M246.3,114.3c0.6-0.4,1.5-0.9,2.5-1c0.5,0,1.1,0,1.6,0.3c0.5,0.3,1,0.7,1.3,1.4l-1.3,0.7c-0.2-0.4-0.4-0.6-0.6-0.7
	c-0.2-0.1-0.5-0.2-0.8-0.1c-0.6,0.1-1.3,0.4-1.8,0.7L246.3,114.3z M256.1,126.2c0.2,0.4,0,0.8-0.4,1c-0.4,0.2-0.8,0-1-0.4
	L256.1,126.2z M247.2,115.5c-0.3,0.2-0.8,0.2-1.1-0.2c-0.2-0.3-0.2-0.8,0.2-1.1L247.2,115.5z"/>
<path d="M257,111.5c0.5,1.1,1.4,3.5,2.3,5.8c0.9,2.3,1.7,4.6,2.1,5.5l-1.4,0.6c-0.5-1-1.3-3.3-2.1-5.6c-0.9-2.3-1.7-4.6-2.2-5.6
	L257,111.5z M251.5,110.8c0.6-0.4,1.5-0.9,2.5-1c0.5,0,1.1,0,1.6,0.3c0.5,0.3,1,0.7,1.3,1.4l-1.3,0.7c-0.2-0.4-0.4-0.6-0.6-0.7
	c-0.2-0.1-0.5-0.2-0.8-0.1c-0.6,0.1-1.3,0.4-1.8,0.7L251.5,110.8z M261.3,122.8c0.2,0.4,0,0.8-0.4,1c-0.4,0.2-0.8,0-1-0.4
	L261.3,122.8z M252.4,112c-0.3,0.2-0.8,0.2-1.1-0.2c-0.2-0.3-0.2-0.8,0.2-1.1L252.4,112z"/>
<path d="M264.7,111.5c0.5,1.1,1.1,2.8,1.6,4.3c0.5,1.6,1,3.1,1.4,4l-1.4,0.6c-0.5-1-1-2.6-1.5-4.1c-0.5-1.6-1-3.1-1.5-4.1
	L264.7,111.5z M259.3,110.8c0.6-0.4,1.5-0.9,2.5-1c0.5,0,1.1,0,1.6,0.3c0.5,0.3,1,0.7,1.3,1.4l-1.3,0.7c-0.2-0.4-0.4-0.6-0.6-0.7
	c-0.2-0.1-0.5-0.2-0.8-0.1c-0.6,0.1-1.3,0.4-1.8,0.7L259.3,110.8z M267.8,119.8c0.2,0.4,0,0.8-0.4,1c-0.4,0.2-0.8,0-1-0.4
	L267.8,119.8z M260.2,112c-0.3,0.2-0.8,0.2-1-0.2c-0.2-0.3-0.2-0.8,0.2-1.1L260.2,112z"/>
<path d="M270.8,111.5c0.5,1.1,1.2,2.6,1.8,4c0.6,1.5,1.2,2.9,1.7,3.8l-1.4,0.6c-0.4-0.9-1-2.4-1.7-3.8c-0.6-1.5-1.3-2.9-1.8-3.9
	L270.8,111.5z M265.4,110.8c0.6-0.4,1.5-0.9,2.5-1c0.5,0,1.1,0,1.6,0.3c0.5,0.3,1,0.7,1.3,1.4l-1.3,0.7c-0.2-0.4-0.4-0.6-0.6-0.7
	c-0.2-0.1-0.5-0.2-0.8-0.1c-0.6,0.1-1.3,0.4-1.8,0.7L265.4,110.8z M274.3,119.3c0.2,0.4,0,0.8-0.4,1c-0.4,0.2-0.8,0-1-0.4
	L274.3,119.3z M266.2,112c-0.3,0.2-0.8,0.2-1-0.2c-0.2-0.3-0.2-0.8,0.2-1.1L266.2,112z"/>
<path class="st3" d="M202.8,112.9c-0.1,0.2-0.2,0.3-0.2,0.5l-4.2,11.4c-0.1,0.3-0.4,0.5-0.7,0.5c-0.1,0-0.2,0-0.2-0.1
	c-0.4-0.1-0.6-0.6-0.4-0.9l4.2-11.4c0.1-0.2,0.2-0.4,0.3-0.6c-0.4-0.3-0.9-0.5-1.5-0.6c-1.3-0.1-2.6,0.6-3.1,1.7l-5.3,11
	c-1.4,3-1.2,6.5,0.6,9.3l5.8,8.9c1.4,2.2,3.6,3.9,6.2,4.6l7.3,2.1c3.4,1,7,0.3,9.8-1.8c2.7-2,4.3-5.1,4.3-8.5c0-0.1,0-0.3,0-0.4
	c-0.2-3-4.3-8.6-5.9-10.5c-0.1-0.2-0.2-0.4-0.1-0.6l1.9-9.8c0.1-0.7-0.2-1.5-0.7-2.1c-0.5-0.6-1.3-0.9-2.1-0.9h0
	c-1.2,0-2.2,0.7-2.6,1.8l-3.9,10.6c-0.1,0.4-0.6,0.6-0.9,0.4s-0.6-0.6-0.4-0.9l3.9-10.5c0.3-0.8,0.9-1.5,1.6-2
	c-0.3-1.3-1.5-2.3-3-2.3c-1.3,0-2.5,0.8-2.9,2l-4.2,11.4c-0.1,0.3-0.4,0.5-0.7,0.5c-0.1,0-0.2,0-0.2-0.1c-0.4-0.1-0.6-0.6-0.4-0.9
	l3.8-10.2c0.1-0.8-0.1-1.5-0.6-2.1c-0.6-0.6-1.4-1-2.4-1c-0.9,0-1.7,0.3-2.3,0.9L202.8,112.9L202.8,112.9z"/>
<path class="st3" d="M203.2,112.3c0.6-0.6,1.4-1,2.3-0.9c1,0,1.8,0.4,2.4,1c0.5,0.6,0.7,1.3,0.6,2.1l-3.8,10.2
	c-0.1,0.4,0.1,0.8,0.4,0.9c0.1,0,0.2,0.1,0.2,0.1c0.3,0,0.6-0.2,0.7-0.5l4.2-11.4c0.4-1.2,1.6-2,2.9-2c1.4,0,2.6,1,3,2.3
	c-0.7,0.5-1.2,1.2-1.6,2l-3.9,10.6c-0.1,0.4,0.1,0.8,0.4,0.9c0.4,0.1,0.8-0.1,0.9-0.4l3.9-10.6c0.4-1.1,1.5-1.8,2.6-1.8h0
	c0.8,0,1.6,0.3,2.1,0.9c0.5,0.6,0.8,1.4,0.7,2.1l-1.9,9.8c0,0.2,0,0.4,0.1,0.6c1.6,1.9,5.7,7.5,5.9,10.5c0,0.1,0,0.2,0,0.4
	c0,3.4-1.6,6.4-4.3,8.5c-2.8,2.1-6.4,2.8-9.8,1.8l-7.3-2.1c-2.5-0.7-4.7-2.4-6.2-4.6l-5.8-8.9c-1.8-2.8-2-6.3-0.6-9.3l5.3-11
	c0.6-1.2,1.8-1.9,3.1-1.7c0.5,0.1,1.1,0.3,1.5,0.6c-0.1,0.2-0.2,0.4-0.3,0.6l-4.2,11.4c-0.1,0.4,0.1,0.8,0.4,0.9
	c0.1,0,0.2,0.1,0.2,0.1c0.3,0,0.6-0.2,0.7-0.5l4.2-11.4c0.1-0.2,0.1-0.3,0.2-0.5L203.2,112.3L203.2,112.3z M220.9,127.5l1.9-9.6
	c0.1-1.2-0.2-2.4-1-3.3c-0.8-0.9-1.9-1.4-3.2-1.4c-0.4,0-0.8,0.1-1.1,0.2c-0.6-1.8-2.3-3.2-4.3-3.2h0c-1.5,0-2.9,0.8-3.7,2
	c-0.1-0.3-0.3-0.5-0.5-0.8c-0.8-0.9-2.1-1.5-3.4-1.5h0c-1.2,0-2.3,0.5-3.1,1.2c-0.6-0.5-1.4-0.8-2.2-0.9c-1.9-0.2-3.8,0.8-4.6,2.6
	l-5.3,11c-1.6,3.4-1.4,7.5,0.7,10.7l5.8,8.9c1.6,2.5,4.1,4.4,7,5.2l7.3,2.1c1.2,0.3,2.4,0.5,3.6,0.5c2.7,0,5.3-0.9,7.5-2.5
	c3.1-2.3,4.9-5.8,4.9-9.6c0-0.2,0-0.3,0-0.5C226.7,134.9,222,128.9,220.9,127.5L220.9,127.5z"/>
<path d="M219.5,128.5c1.4,1.1,3.4,3,4.9,5.1c0.8,1,1.3,2,1.7,3c0.3,0.9,0.4,1.7,0.1,2.4l1.4,0.6c0.4-1.1,0.3-2.3-0.1-3.4
	c-0.4-1.1-1.1-2.3-1.9-3.4c-1.6-2.2-3.7-4.1-5.2-5.3L219.5,128.5z M220.1,125l-0.9,2.6l1.4,0.5l0.9-2.6L220.1,125z M226.2,138.9
	c-0.1,0.4,0,0.8,0.4,1c0.4,0.1,0.8,0,1-0.4L226.2,138.9z M219.9,127.9l-0.7-0.2l-0.2,0.5l0.4,0.3L219.9,127.9z M221.5,125.5
	c0.1-0.4-0.1-0.8-0.5-0.9s-0.8,0.1-0.9,0.5L221.5,125.5z"/>
<path d="M215.4,114.6c-0.5,1.1-1.4,3.5-2.3,5.8c-0.9,2.3-1.7,4.6-2.1,5.5l1.4,0.6c0.4-1,1.3-3.3,2.1-5.6c0.9-2.3,1.7-4.6,2.2-5.6
	L215.4,114.6z M220.8,113.8c-0.6-0.4-1.5-0.9-2.5-1c-0.5,0-1.1,0-1.6,0.3c-0.5,0.3-1,0.7-1.3,1.4l1.3,0.7c0.2-0.4,0.4-0.6,0.6-0.7
	c0.2-0.1,0.5-0.2,0.8-0.1c0.6,0.1,1.3,0.4,1.8,0.7L220.8,113.8z M211,125.8c-0.2,0.4,0,0.8,0.4,1c0.4,0.2,0.8,0,1-0.4L211,125.8z
	 M219.9,115.1c0.3,0.2,0.8,0.2,1.1-0.2c0.2-0.3,0.2-0.8-0.2-1.1L219.9,115.1z"/>
<path d="M209.7,111.5c-0.5,1.1-1.4,3.5-2.3,5.8c-0.9,2.3-1.7,4.6-2.1,5.5l1.4,0.6c0.4-1,1.3-3.3,2.1-5.6c0.9-2.3,1.7-4.6,2.2-5.6
	L209.7,111.5z M215.2,110.8c-0.6-0.4-1.5-0.9-2.5-1c-0.5,0-1.1,0-1.6,0.3c-0.5,0.3-1,0.7-1.3,1.4l1.3,0.7c0.2-0.4,0.4-0.6,0.6-0.7
	c0.2-0.1,0.5-0.2,0.8-0.1c0.6,0.1,1.3,0.4,1.8,0.7L215.2,110.8z M205.4,122.8c-0.2,0.4,0,0.8,0.4,1c0.4,0.2,0.8,0,1-0.4L205.4,122.8
	z M214.3,112c0.3,0.2,0.8,0.2,1.1-0.2c0.2-0.3,0.2-0.8-0.2-1.1L214.3,112z"/>
<path d="M201.1,112.4c-0.6,1.1-1.1,2.8-1.6,4.3c-0.5,1.6-1,3.1-1.4,4l1.4,0.6c0.5-1,1-2.6,1.5-4.1c0.5-1.6,1.1-3.1,1.5-4.1
	L201.1,112.4z M206.5,111.7c-0.6-0.4-1.5-0.9-2.5-1c-0.5,0-1.1,0-1.6,0.3c-0.5,0.3-1,0.7-1.3,1.4l1.3,0.7c0.2-0.4,0.4-0.6,0.6-0.7
	c0.2-0.1,0.5-0.2,0.8-0.1c0.6,0.1,1.3,0.4,1.8,0.7L206.5,111.7z M198.1,120.6c-0.2,0.4,0,0.8,0.4,1c0.4,0.2,0.8,0,1-0.4L198.1,120.6
	z M205.6,112.9c0.3,0.2,0.8,0.2,1.1-0.2c0.2-0.3,0.2-0.8-0.2-1.1L205.6,112.9z"/>
<path d="M195,112.4c-0.5,1.1-1.2,2.6-1.8,4c-0.6,1.5-1.2,2.9-1.7,3.8l1.4,0.6c0.4-0.9,1.1-2.4,1.7-3.8c0.6-1.5,1.3-2.9,1.8-3.9
	L195,112.4z M200.5,111.7c-0.6-0.4-1.5-0.9-2.5-1c-0.5,0-1.1,0-1.6,0.3c-0.5,0.3-1,0.7-1.3,1.4l1.3,0.7c0.2-0.4,0.4-0.6,0.6-0.7
	c0.2-0.1,0.5-0.2,0.8-0.1c0.6,0.1,1.3,0.4,1.8,0.7L200.5,111.7z M191.6,120.2c-0.2,0.4,0,0.8,0.4,1c0.4,0.2,0.8,0,1-0.4L191.6,120.2
	z M199.6,112.9c0.3,0.2,0.8,0.2,1.1-0.2c0.2-0.3,0.2-0.8-0.2-1.1L199.6,112.9z"/>
<path class="st0" d="M325.4,205.7H147.1l0.6,15.4c0.2,5,4.3,9,9.3,9h158.6c5,0,9.1-4,9.3-9L325.4,205.7z"/>
<path class="st0" d="M147.8,206.4l0.6,14.7c0.2,4.6,3.9,8.3,8.6,8.3h158.6c4.6,0,8.4-3.6,8.6-8.3l0.6-14.7H147.8z M315.5,230.9H157
	c-5.4,0-9.8-4.2-10.1-9.7l-0.6-15.4c0-0.2,0.1-0.4,0.2-0.5c0.1-0.1,0.3-0.2,0.5-0.2h178.4c0.2,0,0.4,0.1,0.5,0.2
	c0.1,0.1,0.2,0.3,0.2,0.5l-0.6,15.4C325.4,226.6,321,230.9,315.5,230.9L315.5,230.9z"/>
<path class="st5" d="M326.6,199.6H143.5c-3.8,0-6.8,3.1-6.8,6.8s3.1,6.8,6.8,6.8h183.1c3.8,0,6.8-3.1,6.8-6.8
	C333.4,202.7,330.4,199.6,326.6,199.6z"/>
<path class="st5" d="M143.5,200.4c-3.4,0-6.1,2.7-6.1,6.1s2.7,6.1,6.1,6.1h183.1c3.4,0,6.1-2.7,6.1-6.1s-2.7-6.1-6.1-6.1H143.5z
	 M326.6,214H143.5c-4.2,0-7.5-3.4-7.5-7.5s3.4-7.5,7.5-7.5h183.1c4.2,0,7.5,3.4,7.5,7.5S330.8,214,326.6,214z"/>
<path class="st6" d="M190.1,95.9c4.1-5.8,5.8-13.2,4.1-20.7c-3.2-13.9-16.9-22.7-30.6-19.5c-13.7,3.1-22.3,17-19.1,30.9
	s16.9,22.7,30.6,19.5c3.5-0.8,6.6-2.3,9.4-4.3l8.6,1.3L190.1,95.9z"/>
<path class="st7" d="M178.3,83.4l3.7,7c0.4,0.8,0.5,1.6,0.3,2.4l-0.4,2.1c-0.3,1.2-1,2.3-2.1,2.9c-1.1,0.6-2.4,0.8-3.6,0.4l-2-0.7
	c-0.8-0.3-1.5-0.8-1.9-1.5l-4.3-6.7L178.3,83.4L178.3,83.4z"/>
<path class="st8" d="M160.6,65.3c8-4.7,14.1,1.4,15.6,4.1s1.9,6.9,2.1,8.7c0.2,2.8,1.4,6.1-0.7,7.3l-8,4.7c-2.1,1.2-4.3-1.5-6.7-3
	c-1.5-1-4.9-3.4-6.5-6.1S152.6,69.9,160.6,65.3z"/>
<path class="st2" d="M178,93.1c3.3-1.9,3.8-3.8,3.8-3.8c0.1-0.3-0.1-0.5-0.4-0.6c-0.3-0.1-0.5,0.1-0.6,0.4c0,0.1-0.6,1.9-4.3,3.7
	c-3.7,1.8-5.5,0.9-5.5,0.9c-0.2-0.1-0.5-0.1-0.7,0.2c-0.1,0.2-0.1,0.5,0.2,0.7c0.1,0.1,2.2,1.2,6.5-0.9
	C177.4,93.5,177.7,93.3,178,93.1L178,93.1z"/>
<path class="st2" d="M177.2,91.6c3.3-1.9,3.8-3.8,3.8-3.8c0.1-0.3-0.1-0.5-0.4-0.6c-0.3-0.1-0.5,0.1-0.6,0.4c0,0.1-0.6,1.9-4.3,3.7
	c-3.7,1.8-5.5,0.9-5.5,0.9c-0.2-0.1-0.5-0.1-0.7,0.2c-0.1,0.2-0.1,0.5,0.2,0.7c0.1,0.1,2.2,1.2,6.5-0.9
	C176.5,92,176.9,91.8,177.2,91.6L177.2,91.6z"/>
<path class="st2" d="M176.3,90.1c3.3-1.9,3.8-3.8,3.8-3.8c0.1-0.3-0.1-0.5-0.4-0.6c-0.3-0.1-0.5,0.1-0.6,0.4c0,0.1-0.6,1.9-4.3,3.7
	c-3.7,1.8-5.5,0.9-5.5,0.9c-0.2-0.1-0.5-0.1-0.7,0.2c-0.1,0.2-0.1,0.5,0.2,0.7c0.1,0.1,2.2,1.2,6.5-0.9
	C175.6,90.5,176,90.3,176.3,90.1L176.3,90.1z"/>
<path class="st2" d="M178.9,94.6c3.3-1.9,3.8-3.8,3.8-3.8c0.1-0.3-0.1-0.5-0.4-0.6c-0.3-0.1-0.5,0.1-0.6,0.4c0,0.1-0.6,1.9-4.3,3.7
	c-3.7,1.8-5.5,0.9-5.5,0.9c-0.2-0.1-0.5-0.1-0.7,0.2c-0.1,0.2-0.1,0.5,0.2,0.7c0.1,0.1,2.2,1.2,6.5-0.9
	C178.2,95,178.6,94.8,178.9,94.6L178.9,94.6z"/>
<path class="st2" d="M175.8,85.9c-0.2-2.1-0.6-4.1-1.1-6.1c-0.5-1.8-1.2-3.7-2.7-5c-0.7-0.6-1.5-1-2.4-1.2c-0.9-0.2-1.9-0.2-2.8,0.3
	c-0.8,0.5-1.1,1.4-1.2,2.2c-0.1,0.9,0.1,2,0.4,2.8c0.3,0.7,0.7,1.5,1.5,1.8c0.8,0.2,1.3-0.4,1.6-1c0.6-1.2,0.4-2.7-0.4-3.7
	c-1.1-1.3-3-1.2-4.4-0.7c-0.7,0.2-1.5,0.7-1.9,1.3c-0.5,0.8-0.4,1.7-0.2,2.5c0.3,0.9,0.8,1.7,1.4,2.4c0.6,0.7,1.3,1.4,2,2.1
	c1.5,1.3,3.2,2.3,4.9,3.2c0.4,0.2,0.9,0.4,1.3,0.7c0.2,0.1,0,0.4-0.2,0.3c-1.9-0.9-3.8-2-5.5-3.3c-0.9-0.7-1.7-1.4-2.4-2.2
	c-0.7-0.8-1.3-1.6-1.7-2.5c-0.3-0.8-0.6-1.9-0.2-2.8c0.3-0.8,1-1.4,1.7-1.8c1.5-0.8,3.6-1.1,5.1,0c1.1,0.9,1.6,2.5,1.2,3.9
	c-0.2,0.7-0.6,1.5-1.3,1.8c-0.7,0.3-1.5,0-2-0.5c-0.7-0.7-1-1.7-1.2-2.7c-0.2-0.9-0.2-2,0.1-2.9c0.4-0.9,1.1-1.6,2-1.8
	c1-0.2,2-0.1,2.9,0.2c2,0.7,3.2,2.5,4,4.4c0.8,2.1,1.3,4.3,1.6,6.5c0.1,0.6,0.1,1.1,0.2,1.7C176.2,86.1,175.8,86.1,175.8,85.9
	L175.8,85.9z"/>
</svg>
