<?xml version="1.0" encoding="utf-8"?>
<!-- Generator: Adobe Illustrator 27.7.0, SVG Export Plug-In . SVG Version: 6.00 Build 0)  -->
<svg version="1.0" id="Layer_1" xmlns="http://www.w3.org/2000/svg" xmlns:xlink="http://www.w3.org/1999/xlink" x="0px" y="0px"
	 viewBox="0 0 670 250" style="enable-background:new 0 0 670 250;" xml:space="preserve">
<style type="text/css">
	.st0{fill:#B4185C;}
	.st1{fill:#FFBE97;}
	.st2{fill:#FFFFFF;}
	.st3{fill:#4F2B2B;}
</style>
<path class="st0" d="M344.18,132.79l-16.08,2.82c-11.3,1.98-21.7,7.77-29.66,16.5l-48.09,52.76l11.39,37.91l8.74,0.17
	c7.43,0.14,14.62-2.74,20.1-8.06l22.68-21.42L311.6,250h121.22l-4.6-25.06l4.6-7.94c10.53-2.57,8.36-11.02,6.75-22.34l-14.05-28.09
	c-2.33-16.41,0.35-49.54-15.1-46.78l-22.2,3.96L344.18,132.79L344.18,132.79z"/>
<path class="st1" d="M262.61,242.72l-12.14-38.19l31.44-34.58c0.49-1.81,2.17-6.57,4.98-11.17c2.81-4.6,8.95-6.68,11.67-7.15
	c7.41-8.15,14.26-11.27,16.76-11.81l-1.28,35.54c0,4.4-0.66,27.75-0.66,37.79l-21.06,21.1c-5.48,5.34-14.29,9.28-21.72,9.14
	L262.61,242.72z"/>
<path class="st1" d="M368.42,143.55c22-5.95,19.79-19.81,19.79-19.81l-6.46,1.15l-30.84,6.51l-6.73,1.38
	C345.76,140.68,356.67,146.73,368.42,143.55z"/>
<path class="st2" d="M363.77,169.84c-1.58,8.25-8.08,14.93-11.6,17.72l3.82,9.01c2.32-0.37,6.15-4.16,7.78-6.77v27.39h-9.27v9.92
	h29.07v-9.92h-8.56v-47.35H363.77z"/>
<polygon class="st1" points="377.59,102.2 381.75,124.9 350.81,131.62 350.62,121.32 "/>
<path class="st1" d="M230.94,135.17l16.9,90.57c2.5,13.37,15.35,21.53,27.66,17.56c12.51-4.05,18.84-18.8,13.49-31.45l-26.38-70.68
	L230.94,135.17z"/>
<path class="st1" d="M261.97,138.81l2.47-13.2c0.22-2.35-2-8-3.43-9.82l-2.46-4.64c-1.8-2.97-5.3-4.35-8.61-3.41l-16.9,4.83
	c-4.22,1.21-6.71,5.73-5.52,10.03l6.31,22.79l29.41-2.19L261.97,138.81z"/>
<path class="st1" d="M259.62,134.1c0.22-0.06,2.51-4.16,4.05-6.95c0.9-1.63,1.26-3.53,1.04-5.4l-1.16-9.59
	c-0.24-1.94-4.15-6.09-5.98-6.34c-2.05-0.28-2.32,3.32-2.81,5.46l-0.61,6.71L259.62,134.1z"/>
<path class="st1" d="M263.86,124.51l-10.89-20.44c-0.9-1.98-3-2.98-4.98-2.37c-2.23,0.69-3.5,3.18-2.84,5.56l5.83,21.07
	L263.86,124.51z"/>
<path class="st1" d="M256.85,126.47l-10.44-23.02c-0.9-1.98-3-2.98-4.98-2.37c-2.23,0.69-3.5,3.18-2.84,5.56l5.83,21.07
	L256.85,126.47z"/>
<path class="st1" d="M249.77,128.67l-10.44-23.02c-0.9-1.98-3-2.98-4.98-2.37c-2.23,0.69-3.5,3.18-2.84,5.56l5.83,21.07
	L249.77,128.67z"/>
<path class="st1" d="M243.16,133.38l-10.44-23.02c-0.9-1.98-3-2.98-4.98-2.37c-2.23,0.69-3.5,3.18-2.84,5.56l5.83,21.07
	L243.16,133.38z"/>
<path class="st3" d="M253.14,116.57c-0.17,0.05-0.36-0.01-0.43-0.15l-6.6-13.05c-0.08-0.16,0.01-0.37,0.2-0.46
	c0.19-0.09,0.41-0.03,0.49,0.13l6.6,13.05c0.08,0.16-0.01,0.37-0.2,0.46C253.18,116.56,253.16,116.57,253.14,116.57z"/>
<path class="st3" d="M246,119.67c-0.18,0.05-0.36-0.01-0.44-0.16l-7.13-14.76c-0.08-0.17,0.01-0.38,0.2-0.47
	c0.19-0.09,0.41-0.03,0.49,0.14l7.13,14.76c0.08,0.17-0.01,0.38-0.2,0.47C246.04,119.66,246.02,119.66,246,119.67L246,119.67z"/>
<path class="st3" d="M235.4,122.45c-0.2,0.06-0.4-0.04-0.46-0.22l-3.82-13.34c-0.05-0.18,0.07-0.39,0.27-0.45l0,0
	c0.2-0.06,0.4,0.04,0.46,0.22l3.82,13.34C235.72,122.18,235.61,122.39,235.4,122.45L235.4,122.45z"/>
<path class="st1" d="M393.37,122.65l10.47,82.75c1.84,13.49,14.27,22.35,26.76,19.06c12.69-3.35,19.74-17.74,15.01-30.66
	l-29.12-79.32L393.37,122.65z"/>
<path class="st3" d="M386.41,86.71c0,0-14.56,31.25-32.19,31.07s-30.23-16.18-31.59-35.6c-0.67-9.63,2.22-20.95,6.31-25.35
	c4.67-5.02,14.68-9.7,23.62-10.73c12.81-1.47,22.2,9.1,22.2,9.1s8.85,2.67,12.49,12.51C389.66,74.17,386.42,86.71,386.41,86.71
	L386.41,86.71z"/>
<path class="st1" d="M379.9,81.91c3.03,7.47,1.82,23.25-4.75,31.83c-7.04,9.2-14.2,10.42-23.14,10.42
	c-8.94,0-19.33-6.39-23.41-18.92c-5.18-15.92,0.14-33.24,14.3-39.69C357.06,59.12,373.63,66.44,379.9,81.91L379.9,81.91z"/>
<path class="st1" d="M378.51,92.69c-0.59,5.16-1.3,9.62,2.79,10.15c4.08,0.53,9.05-3.28,9.64-8.45c0.59-5.16-2.24-9.78-6.32-10.3
	C380.53,83.55,379.1,87.52,378.51,92.69L378.51,92.69z"/>
<path class="st3" d="M363.18,88.12c-0.03,1.43,0.65,2.61,1.51,2.63c0.86,0.02,1.58-1.12,1.61-2.56c0.03-1.43-0.65-2.61-1.51-2.63
	C363.93,85.55,363.21,86.69,363.18,88.12z"/>
<path class="st3" d="M342,88c-0.03,1.43,0.65,2.61,1.51,2.63c0.86,0.02,1.58-1.12,1.61-2.56c0.03-1.43-0.65-2.61-1.51-2.63
	C342.75,85.42,342.03,86.57,342,88z"/>
<polygon class="st1" points="348.66,94.41 351.66,98.31 354.62,85.33 "/>
<path class="st1" d="M329.75,92.95c0.59,5.16,1.32,9.36-2.76,9.88c-4.08,0.53-9.05-3.28-9.64-8.45c-0.59-5.16,2.24-9.78,6.32-10.3
	C327.76,83.55,329.16,87.78,329.75,92.95z"/>
<path class="st3" d="M375.91,63.11c0,0-11.33,11.43-16.38,12.63c-5.05,1.19-9.97-0.14-9.97-0.14l2.36-3.85c0,0-3.06,3.57-6.67,4.14
	c-3.61,0.57-8.58-0.33-8.58-0.33l3.13-4.68c0,0-5.94,6.94-11.7,5.85c0,0,11.44-20.62,24.19-19.93
	C365.05,57.5,375.91,63.11,375.91,63.11L375.91,63.11z"/>
<path class="st3" d="M351.01,99.07c-0.14,0-0.28-0.07-0.37-0.2l-3.18-4.47l5.75-8.76c0.15-0.22,0.43-0.28,0.65-0.12
	c0.21,0.16,0.26,0.46,0.12,0.68l-5.37,8.18l2.78,3.9c0.15,0.22,0.11,0.52-0.09,0.69C351.21,99.04,351.11,99.07,351.01,99.07
	L351.01,99.07z"/>
<path class="st3" d="M352.12,108.51c-0.72,0-1.16-0.07-1.18-0.07c-0.25-0.04-0.42-0.29-0.39-0.56s0.28-0.45,0.53-0.41
	c0.26,0.04,6.54,1,9.72-5.23c0.12-0.24,0.4-0.33,0.63-0.2c0.23,0.13,0.31,0.43,0.19,0.66C358.99,107.87,354.31,108.51,352.12,108.51
	z"/>
<path class="st3" d="M381.23,94.92c-0.05,0-0.1-0.01-0.15-0.03c-0.24-0.09-0.37-0.37-0.29-0.62c0.02-0.05,1.53-4.65,5.59-4.28
	c0.25,0.02,0.44,0.26,0.42,0.53c-0.02,0.27-0.25,0.48-0.5,0.44c-3.32-0.3-4.59,3.46-4.64,3.62
	C381.59,94.79,381.42,94.92,381.23,94.92L381.23,94.92z"/>
<path class="st3" d="M326.31,94.92c-0.19,0-0.37-0.13-0.44-0.33c-0.05-0.16-1.33-3.93-4.64-3.62c-0.26,0.02-0.48-0.18-0.5-0.44
	c-0.02-0.27,0.17-0.51,0.42-0.53c4.04-0.37,5.58,4.23,5.59,4.28c0.08,0.26-0.05,0.54-0.29,0.62
	C326.4,94.92,326.35,94.92,326.31,94.92L326.31,94.92z"/>
<path class="st1" d="M395.26,125.2c0,0-4.45-1.4-6.76-4.41c-2.31-3.01-6.36-9.55-6.36-9.55l-14.35-5.02
	c-1.61-0.56-2.53-2.34-2.13-4.08c0.36-1.56,1.7-2.65,3.23-2.61l12.34,0.31l-0.52-9.2l-13.92-18.43c-1.08-1.51-1.01-3.62,0.15-5.05
	c1.35-1.66,3.71-1.87,5.31-0.47l13.82,12.15l12.77,0.11c5.15,0.04,9.65,3.7,11.03,8.96l8.5,32.49L395.26,125.2z"/>
<path class="st3" d="M398.66,126.2c-1.17,0-3.02-0.18-4.99-1.06c-0.18-0.08-0.26-0.3-0.19-0.48c0.08-0.19,0.28-0.28,0.45-0.2
	c3.06,1.37,5.87,0.94,5.9,0.93c0.19-0.03,0.37,0.11,0.4,0.31c0.03,0.2-0.1,0.39-0.29,0.42C399.89,126.12,399.42,126.2,398.66,126.2
	L398.66,126.2z"/>
<path class="st3" d="M382.14,111.61c-0.04,0-0.07,0-0.11-0.02l-14.35-5.02c-1.77-0.62-2.8-2.61-2.36-4.52
	c0.4-1.74,1.88-2.92,3.57-2.89l11.96,0.3l-0.49-8.68l-13.85-18.34c-0.12-0.16-0.09-0.39,0.05-0.52c0.15-0.12,0.37-0.1,0.49,0.06
	l13.99,18.52l0.55,9.72l-12.72-0.32c-1.38-0.04-2.55,0.92-2.88,2.33c-0.36,1.54,0.48,3.15,1.9,3.65l14.35,5.02
	c0.18,0.06,0.28,0.27,0.22,0.46C382.42,111.51,382.29,111.61,382.14,111.61L382.14,111.61z"/>
<path class="st3" d="M387.81,97.54c-1.9,0-3.6-1.18-4.37-3.02l-0.83-2.01c-0.77-1.85-0.78-3.98-0.04-5.83l3.18-7.98
	c0.08-0.19,0.28-0.27,0.45-0.2c0.18,0.08,0.26,0.3,0.19,0.48l-3.18,7.98c-0.67,1.68-0.65,3.59,0.03,5.25l0.83,2.01
	c0.67,1.61,2.18,2.62,3.84,2.58l13.05-0.35c1.04-0.03,2.04-0.51,2.75-1.32l0.59-0.67c0.45-0.51,0.58-1.26,0.34-1.91
	c-0.34-0.91-1.28-1.38-2.16-1.07l-0.42,0.15c-0.18,0.06-0.38-0.04-0.44-0.23c-0.06-0.19,0.04-0.4,0.22-0.46l0.42-0.15
	c1.23-0.43,2.55,0.23,3.03,1.5c0.33,0.91,0.14,1.96-0.48,2.68l-0.59,0.67c-0.83,0.95-2.02,1.52-3.24,1.55l-13.05,0.35
	C387.89,97.54,387.84,97.54,387.81,97.54L387.81,97.54z"/>
<path class="st3" d="M394.39,97.38c-1.9,0-3.6-1.18-4.37-3.02l-0.83-2.01c-0.77-1.85-0.78-3.98-0.04-5.83l2.73-7.25
	c0.07-0.19,0.28-0.28,0.45-0.2c0.18,0.08,0.26,0.29,0.19,0.48l-2.73,7.26c-0.67,1.68-0.66,3.6,0.03,5.26l0.83,2.01
	c0.67,1.61,2.17,2.62,3.84,2.58h0.01c0.19,0,0.34,0.16,0.35,0.36c0,0.2-0.15,0.37-0.34,0.38C394.47,97.38,394.43,97.38,394.39,97.38
	L394.39,97.38z"/>
<path class="st3" d="M400.84,97.19c-1.9,0-3.6-1.18-4.37-3.02l-0.83-2.01c-0.77-1.85-0.78-3.98-0.04-5.83l2.92-6.96
	c0.08-0.18,0.28-0.27,0.46-0.19c0.17,0.08,0.25,0.3,0.18,0.48l-2.92,6.96c-0.66,1.67-0.65,3.58,0.04,5.25l0.83,2.01
	c0.67,1.61,2.18,2.61,3.84,2.58c0.21,0,0.35,0.16,0.36,0.36c0,0.2-0.15,0.37-0.34,0.38C400.92,97.18,400.88,97.18,400.84,97.19
	L400.84,97.19z"/>
<path class="st3" d="M403.22,91.37c-0.04,0-0.08-0.01-0.12-0.02c-0.18-0.07-0.27-0.28-0.2-0.47l1.59-4.43
	c0.07-0.19,0.27-0.28,0.45-0.21c0.18,0.07,0.27,0.28,0.2,0.47l-1.59,4.43C403.49,91.28,403.36,91.37,403.22,91.37L403.22,91.37z"/>
<path class="st3" d="M394.51,109.07c-0.14,0-0.27-0.09-0.32-0.23c-2.84-7.52-12.89-8.62-13-8.64c-0.19-0.02-0.33-0.2-0.31-0.4
	c0.02-0.2,0.19-0.34,0.38-0.33c0.43,0.04,10.57,1.15,13.57,9.1c0.07,0.19-0.02,0.4-0.19,0.48
	C394.6,109.06,394.56,109.07,394.51,109.07z"/>
<path class="st3" d="M353.08,125.07c-1.36,0-2.18-0.1-2.2-0.1c-0.25-0.03-0.43-0.28-0.4-0.54s0.26-0.46,0.51-0.43
	c0.1,0.01,10.1,1.21,19.16-5.17c0.21-0.15,0.5-0.09,0.64,0.14c0.14,0.22,0.08,0.53-0.13,0.68
	C363.9,124.41,356.63,125.08,353.08,125.07L353.08,125.07z"/>
<path d="M277.82,148.78l6.02,5.03l0.4-0.54l-6.02-5.03L277.82,148.78z M283.84,153.81c0.14,0.12,0.35,0.1,0.46-0.05
	c0.11-0.15,0.09-0.37-0.06-0.49L283.84,153.81z M278.22,148.24c-0.14-0.12-0.35-0.1-0.46,0.05c-0.11,0.15-0.09,0.37,0.06,0.49
	L278.22,148.24z"/>
<path d="M275.96,157.08l6.11,1.27l0.12-0.67l-6.11-1.27L275.96,157.08z M282.07,158.35c0.18,0.04,0.36-0.08,0.39-0.26
	c0.03-0.18-0.09-0.36-0.27-0.4L282.07,158.35z M276.09,156.41c-0.18-0.04-0.36,0.08-0.39,0.26s0.09,0.36,0.27,0.4L276.09,156.41z"/>
<path d="M287.7,150.98l-1.78-6.32l0.65-0.2l1.78,6.32L287.7,150.98z M285.92,144.67c-0.05-0.18,0.05-0.37,0.23-0.43
	c0.18-0.06,0.36,0.04,0.41,0.22L285.92,144.67z M288.35,150.78c0.05,0.18-0.05,0.37-0.23,0.43c-0.18,0.06-0.36-0.04-0.41-0.22
	L288.35,150.78z"/>
</svg>
