<svg width="700" height="400" viewBox="0 0 700 400" fill="none" xmlns="http://www.w3.org/2000/svg">
<mask id="mask0_760_3929" style="mask-type:alpha" maskUnits="userSpaceOnUse" x="0" y="0" width="700" height="400">
<rect width="700" height="400" transform="matrix(-1 0 0 1 700 0)" fill="#FBE4C6"/>
</mask>
<g mask="url(#mask0_760_3929)">
<rect width="700" height="400" transform="matrix(-1 0 0 1 700 0)" fill="white"/>
<path d="M643.143 316.079C642.091 315.392 640.759 315.48 639.812 316.199L594.534 266.602C594.637 266.489 594.735 266.367 594.822 266.236C595.696 264.892 595.316 263.097 593.975 262.222C592.634 261.347 590.836 261.727 589.961 263.069C589.821 263.283 589.716 263.51 589.639 263.742L553.285 255.363C553.429 254.287 552.966 253.176 551.996 252.546C550.655 251.67 548.858 252.051 547.982 253.393C547.597 253.987 547.456 254.669 547.533 255.322L507.471 263.938C507.276 263.318 506.874 262.759 506.287 262.375C505.65 261.961 504.913 261.832 504.22 261.948L479.284 168.374C479.85 168.167 480.358 167.782 480.714 167.239C481.589 165.897 481.209 164.1 479.867 163.225C478.526 162.349 476.728 162.73 475.853 164.072C475.599 164.463 475.455 164.892 475.405 165.325L358.359 162.819C359.026 161.514 358.613 159.888 357.358 159.069C356.017 158.194 354.219 158.575 353.344 159.916C353.264 160.039 353.199 160.165 353.141 160.295L312.504 146.099C312.793 144.933 312.338 143.662 311.275 142.97C310.74 142.621 310.133 142.475 309.54 142.507L301.706 88.6283L302.402 88.8582L301.628 88.1084L301.58 87.7837L301.408 87.8969L235.101 23.7038C235.159 23.6291 235.216 23.5522 235.27 23.471C236.145 22.1296 235.765 20.3323 234.423 19.457C233.082 18.5817 231.285 18.9624 230.409 20.3038C229.534 21.6452 229.915 23.4426 231.256 24.3179C231.755 24.6432 232.319 24.7933 232.873 24.7862L237.181 66.0428C237.132 66.1037 237.085 66.1669 237.041 66.2344C236.822 66.5683 236.684 66.933 236.617 67.3037L166.486 61.2487C166.479 60.3068 166.018 59.3888 165.17 58.836C163.828 57.9607 162.031 58.3414 161.156 59.6829C160.28 61.0243 160.661 62.8216 162.003 63.6969C162.532 64.0428 163.137 64.1901 163.724 64.1597L170.547 112.493C169.849 112.659 169.209 113.079 168.785 113.73C168.217 114.603 168.181 115.664 168.589 116.541L138.595 134.11C138.391 133.825 138.134 133.571 137.822 133.369C136.481 132.493 134.683 132.874 133.808 134.216C132.933 135.557 133.314 137.354 134.655 138.23C135.471 138.76 136.452 138.826 137.294 138.499L154.571 172.948C154.222 173.164 153.914 173.456 153.674 173.825C152.888 175.03 153.116 176.598 154.14 177.541L128.886 207.844C127.546 206.994 125.77 207.376 124.902 208.709C124.026 210.05 124.407 211.848 125.749 212.723C125.982 212.875 126.23 212.988 126.486 213.065L121.301 242.18C120.273 242.094 119.231 242.561 118.629 243.487C118.471 243.728 118.358 243.983 118.281 244.245L74.1873 235.473C74.2954 234.425 73.8313 233.355 72.8876 232.742C71.5462 231.867 69.7488 232.247 68.8735 233.589C67.9982 234.93 68.379 236.728 69.7204 237.603C69.819 237.667 69.9196 237.721 70.0222 237.772L46.327 299.704C45.1387 299.371 43.8223 299.826 43.1143 300.913C42.239 302.255 42.6198 304.052 43.9612 304.927C45.3026 305.803 47.0999 305.422 47.9752 304.081C48.2255 303.698 48.3689 303.277 48.4209 302.852L145.429 305.8C145.527 306.625 145.975 307.4 146.725 307.889C148.066 308.764 149.863 308.383 150.739 307.042C151.614 305.7 151.233 303.903 149.892 303.028C149.758 302.942 149.619 302.871 149.478 302.807L158.515 269.888C159.644 270.116 160.852 269.656 161.519 268.631C161.736 268.298 161.875 267.936 161.942 267.569L242.528 272.188C242.56 273.1 243.021 273.981 243.841 274.518C245.183 275.393 246.98 275.013 247.856 273.671C248.731 272.33 248.35 270.532 247.009 269.657C246.701 269.456 246.367 269.325 246.03 269.253L250.396 232.174C251.367 232.199 252.329 231.736 252.898 230.86L252.769 231.093L335.856 277.005C335.297 278.282 335.723 279.811 336.928 280.596C337.549 281.001 338.268 281.133 338.948 281.03L348.515 319.551C347.93 319.755 347.404 320.143 347.041 320.704C346.167 322.048 346.547 323.843 347.888 324.718C349.23 325.594 351.027 325.213 351.902 323.872C352.243 323.349 352.392 322.756 352.366 322.175L411.797 314.328C411.959 315.038 412.382 315.687 413.04 316.116C414.381 316.991 416.179 316.61 417.054 315.269C417.418 314.709 417.563 314.073 417.511 313.456L453.678 307.187C453.856 307.852 454.27 308.455 454.891 308.86C456.233 309.736 458.03 309.355 458.905 308.013C458.998 307.872 459.073 307.723 459.138 307.574L523.545 327.076C523.341 328.192 523.807 329.37 524.816 330.028C525.576 330.522 526.482 330.616 527.285 330.359L546.142 372.52C545.728 372.743 545.363 373.069 545.087 373.49C544.211 374.831 544.592 376.629 545.934 377.504C547.277 378.378 549.072 377.998 549.948 376.657C549.953 376.646 549.959 376.636 549.966 376.627L582.993 389.709L600.451 396.623C600.231 397.75 600.691 398.948 601.712 399.615C603.054 400.49 604.851 400.109 605.726 398.768C606.406 397.724 606.327 396.409 605.629 395.463L633.224 364.652C633.257 364.674 633.289 364.701 633.325 364.724C634.666 365.6 636.464 365.219 637.339 363.877C638.214 362.536 637.834 360.739 636.492 359.863C636.174 359.656 635.83 359.52 635.478 359.452L641.383 321.404C642.39 321.465 643.401 321 643.99 320.093C644.866 318.751 644.485 316.954 643.143 316.079ZM603.278 394.284C602.336 394.292 601.418 394.752 600.866 395.601C600.759 395.765 600.673 395.935 600.602 396.107L580.807 388.268L550.211 376.15C550.317 375.887 550.379 375.616 550.404 375.341L604.249 367.363L603.277 394.282L603.278 394.284ZM413.33 311.09L398.893 287.788L430.546 265.483C430.722 265.689 430.929 265.878 431.168 266.033C431.28 266.107 431.399 266.167 431.518 266.224L415.352 310.877C414.67 310.7 413.95 310.779 413.33 311.09ZM351.674 320.406C351.497 320.2 351.291 320.012 351.052 319.857C350.911 319.766 350.77 319.693 350.623 319.63L373.224 250.736C373.88 250.886 374.566 250.801 375.161 250.505L398.172 287.644L351.675 320.409L351.674 320.406ZM176.13 112.218L184.489 145.434L172.602 117.859C173.01 117.638 173.369 117.312 173.644 116.895C174.257 115.955 174.251 114.795 173.736 113.883L176.13 112.218ZM166.015 62.8478C166.233 62.5118 166.372 62.1492 166.44 61.7785L236.57 67.8373C236.573 68.3313 236.703 68.8176 236.948 69.2483L176.462 111.333L164.55 63.9946C165.132 63.7905 165.654 63.4017 166.017 62.8463L166.015 62.8478ZM475.898 167.312C476.087 167.582 476.324 167.821 476.605 168.022L452.665 209.518C451.38 208.925 449.819 209.347 449.023 210.569L423.361 197.067L475.898 167.312ZM633.267 359.898C633.217 359.933 633.164 359.971 633.117 360.011L608.012 326.691C608.191 326.527 608.352 326.343 608.491 326.132C608.855 325.577 608.998 324.942 608.951 324.328L617.278 322.911L633.267 359.898ZM559.692 279.567L550.639 270.858C550.697 270.788 550.751 270.712 550.803 270.633C551.126 270.136 551.277 269.577 551.273 269.028L560.565 268.1L603.282 321.503L559.692 279.567ZM550.269 271.244L581.928 301.701L603.795 322.739C603.737 322.81 603.682 322.885 603.631 322.965C603.341 323.408 603.192 323.9 603.167 324.395L548.305 326.529L548.624 271.94C549.224 271.887 549.802 271.65 550.268 271.248L550.269 271.244ZM608.861 323.8C608.683 323.131 608.27 322.524 607.645 322.118C607.041 321.723 606.344 321.586 605.68 321.674L593.296 267.426L617.059 322.405L608.858 323.801L608.861 323.8ZM590.806 267.081C591.41 267.475 592.107 267.613 592.771 267.525L605.159 321.792C604.917 321.873 604.684 321.984 604.468 322.124L561.204 268.036L589.546 265.203C589.692 265.948 590.123 266.634 590.808 267.079L590.806 267.081ZM589.489 264.672L560.803 267.539L552.423 257.063C552.577 256.914 552.72 256.746 552.841 256.561C552.981 256.347 553.086 256.12 553.163 255.888L589.517 264.267C589.498 264.402 589.486 264.539 589.489 264.675L589.489 264.672ZM550.262 257.871C550.876 257.901 551.488 257.74 552.004 257.398L560.167 267.601L551.22 268.496C551.074 267.752 550.644 267.066 549.958 266.621C549.674 266.435 549.367 266.309 549.053 266.233L550.262 257.871ZM545.599 269.894L511.537 283.813L505.895 267.447C506.383 267.227 506.817 266.872 507.134 266.389C507.346 266.063 507.482 265.71 507.552 265.351L545.474 269.036C545.473 269.326 545.515 269.615 545.599 269.894ZM458.609 304.472C458.448 304.297 458.264 304.136 458.055 303.999C457.644 303.732 457.195 303.582 456.741 303.541L454.582 264.235L501.81 265.026C501.85 265.553 502.032 266.061 502.343 266.497L458.607 304.473L458.609 304.472ZM249.329 226.607L235.87 198.825C236.258 198.603 236.604 198.291 236.864 197.889C236.99 197.693 237.088 197.489 237.164 197.277L248.228 198.821L249.832 226.445C249.658 226.484 249.49 226.538 249.325 226.606L249.329 226.607ZM123.683 246.289C124.076 245.447 124.031 244.485 123.61 243.697L139.684 233.034L157.349 264.73C157.085 264.928 156.849 265.173 156.658 265.463L123.685 246.288L123.683 246.289ZM157.803 264.449L140.129 232.736L190.138 199.565C190.326 199.796 190.55 200.005 190.813 200.176C190.843 200.194 190.875 200.211 190.904 200.229L160.052 264.315C159.305 264.052 158.495 264.11 157.805 264.448L157.803 264.449ZM449.866 214.582C449.979 214.657 450.094 214.716 450.213 214.773L433.484 260.799C432.686 260.589 431.834 260.732 431.15 261.184L408.475 232.927L448.96 213.634C449.18 214.003 449.482 214.33 449.866 214.582ZM430.732 261.521C430.579 261.67 430.44 261.835 430.317 262.022C430.19 262.214 430.095 262.417 430.02 262.625L376.615 248.814C376.698 248.56 376.745 248.303 376.755 248.046L407.975 233.168L430.73 261.523L430.732 261.521ZM376.726 247.465C376.666 247.096 376.54 246.739 376.346 246.417L390.511 219.271L391.882 216.642C392.762 217.004 393.75 216.905 394.536 216.41L407.637 232.735L376.73 247.462L376.726 247.465ZM391.4 216.391C391.4 216.391 391.402 216.393 391.403 216.395L390.038 219.014L375.986 245.944C375.828 245.773 375.647 245.616 375.443 245.482C375.105 245.263 374.739 245.123 374.368 245.055L368.983 220.507L390.269 214.984C390.479 215.541 390.859 216.043 391.398 216.392L391.4 216.391ZM448.73 213.15L408.13 232.499L394.957 216.084C395.128 215.926 395.282 215.746 395.414 215.544C395.688 215.121 395.839 214.655 395.876 214.185L448.572 212.509C448.599 212.727 448.653 212.941 448.73 213.15ZM357.216 164.012L391.055 211.798C390.868 211.965 390.697 212.159 390.553 212.377C390.135 213.021 390.006 213.767 390.13 214.468L368.871 219.981L356.646 164.264C356.845 164.202 357.034 164.116 357.215 164.01L357.216 164.012ZM368.353 220.117L343.617 226.535C343.399 226.023 343.033 225.57 342.531 225.244C342.335 225.117 342.129 225.017 341.919 224.944L350.106 188.168L355.402 164.379C355.645 164.41 355.886 164.412 356.124 164.38L368.353 220.117ZM240.416 70.5602L251.16 94.9277L257.799 109.99C257.399 110.213 257.046 110.53 256.777 110.942C256.251 111.749 256.183 112.719 256.5 113.555L243.607 119.87L239.994 70.6738C240.139 70.6462 240.28 70.6083 240.418 70.5623L240.416 70.5602ZM271.57 199.371L247.799 159.659C248.073 159.458 248.322 159.207 248.517 158.904C248.856 158.383 249.004 157.793 248.982 157.214L265.264 154.119L272.12 199.173C271.929 199.22 271.744 199.287 271.566 199.371L271.57 199.371ZM248.916 156.682C248.754 155.972 248.332 155.319 247.67 154.89C247.504 154.782 247.333 154.693 247.154 154.623L258.651 115.372C258.891 115.418 259.134 115.432 259.375 115.418L265.184 153.591L248.914 156.684L248.916 156.682ZM256.734 114.036C256.953 114.393 257.249 114.711 257.624 114.956C257.789 115.063 257.962 115.153 258.137 115.223L254.024 129.241L246.623 154.469C246.463 154.438 246.302 154.425 246.142 154.421L243.647 120.443L256.735 114.032L256.734 114.036ZM245.609 154.462C244.836 154.592 244.118 155.029 243.656 155.737C243.47 156.024 243.344 156.332 243.268 156.645L188.453 148.751C188.472 148.349 188.408 147.951 188.266 147.575L243.128 120.701L245.607 154.464L245.609 154.462ZM187.99 150.186C188.176 149.899 188.303 149.592 188.378 149.278L243.193 157.172C243.163 157.757 243.313 158.34 243.621 158.841L216.98 178.899L187.813 150.427C187.876 150.35 187.934 150.269 187.988 150.184L187.99 150.186ZM243.942 159.269C244.106 159.448 244.292 159.612 244.503 159.751C244.567 159.794 244.634 159.828 244.699 159.864L235.128 193.496C234.226 193.274 233.263 193.497 232.552 194.099L217.368 179.277L243.942 159.269ZM236.014 193.876C235.892 193.796 235.762 193.73 235.634 193.671L245.196 160.076C245.456 160.16 245.721 160.204 245.988 160.214L248.199 198.277L237.299 196.756C237.47 195.663 237.005 194.518 236.018 193.877L236.014 193.876ZM246.522 160.183C246.754 160.149 246.983 160.087 247.202 159.997L271.103 199.652C270.831 199.852 270.588 200.102 270.391 200.403C270.203 200.692 270.076 201.003 270.001 201.322L248.738 198.356L246.523 160.185L246.522 160.183ZM338.519 226.089C338.496 226.125 338.476 226.162 338.454 226.201L301.264 212.317L275.625 202.745C275.786 202.15 275.748 201.526 275.536 200.96L321.98 178.291L339.85 224.989C339.322 225.204 338.853 225.575 338.519 226.089ZM274.175 199.418C273.694 199.162 273.17 199.059 272.656 199.09L265.796 154.016L306.898 146.204C307.061 146.769 307.394 147.287 307.882 147.676L274.175 199.418ZM306.796 145.678L265.714 153.486L259.907 115.335C260.514 115.185 261.072 114.842 261.482 114.323L307.116 144.052C306.844 144.565 306.741 145.131 306.796 145.678ZM260.792 110.092C260.02 109.59 259.099 109.503 258.288 109.773L253.449 98.7914L240.906 70.3388C241.009 70.2792 241.11 70.2135 241.206 70.1414L273.637 105.975L261.893 113.622C262.411 112.358 261.979 110.866 260.792 110.092ZM238.139 70.4018C238.56 70.6181 239.011 70.7205 239.46 70.7227L243.088 120.125L188.033 147.093C187.865 146.815 187.65 146.564 187.388 146.35L238.139 70.4018ZM187.44 150.809L216.551 179.225L194.541 195.796C194.377 195.617 194.192 195.454 193.981 195.315C193.451 194.969 192.85 194.822 192.265 194.851L186.224 151.423C186.666 151.318 187.084 151.112 187.44 150.809ZM194.863 196.224L216.937 179.604L232.177 194.482C232.114 194.56 232.056 194.64 232.002 194.725C231.716 195.163 231.567 195.651 231.538 196.141L195.272 197.383C195.221 196.976 195.082 196.582 194.863 196.228L194.863 196.224ZM250.367 226.379L248.77 198.898L269.928 201.852C269.892 202.654 270.187 203.45 270.772 204.035L251.896 226.756C251.415 226.484 250.887 226.361 250.369 226.378L250.367 226.379ZM252.335 227.064L271.186 204.375C271.205 204.388 271.222 204.402 271.241 204.415C272.582 205.291 274.379 204.91 275.255 203.568C275.322 203.464 275.382 203.356 275.435 203.245L332.784 224.657L338.225 226.687C338.158 226.873 338.11 227.065 338.082 227.256L253.326 228.818C253.218 228.148 252.881 227.52 252.336 227.06L252.335 227.064ZM343.781 227.046L368.468 220.643L373.816 245.014C372.93 245.031 372.071 245.454 371.517 246.217L343.64 228.758C343.863 228.204 343.903 227.61 343.78 227.05L343.781 227.046ZM434.334 261.176C434.222 261.101 434.107 261.042 433.988 260.985L450.717 214.959C450.923 215.013 451.133 215.044 451.341 215.05L454.014 263.693L435.638 263.387C435.571 262.517 435.118 261.689 434.331 261.175L434.334 261.176ZM502.27 263.227C502.012 263.622 501.869 264.056 501.82 264.496L454.553 263.707L451.878 215.023C452.401 214.945 452.903 214.726 453.318 214.377L502.459 262.971C502.392 263.052 502.328 263.137 502.27 263.227ZM448.772 211.047C448.649 211.349 448.577 211.664 448.559 211.979L395.872 213.655C395.841 213.352 395.758 213.056 395.632 212.773L422.807 197.383L448.775 211.046L448.772 211.047ZM395.366 212.308C395.159 212.009 394.892 211.745 394.569 211.532C393.605 210.904 392.409 210.925 391.487 211.481L357.654 163.703C357.793 163.585 357.923 163.453 358.04 163.303L422.241 197.083L395.365 212.303L395.366 212.308ZM354.185 163.935C354.406 164.079 354.64 164.186 354.878 164.262L341.4 224.811C341.052 224.756 340.699 224.764 340.361 224.834L322.461 178.057L353.291 163.01C353.509 163.371 353.807 163.687 354.185 163.935ZM321.788 177.791L275.301 200.479C275.126 200.193 274.903 199.931 274.625 199.712L308.332 147.97C309.008 148.327 309.769 148.389 310.466 148.195L321.79 177.789L321.788 177.791ZM307.409 143.605L262.132 114.11L274.003 106.382L307.549 143.446C307.5 143.498 307.455 143.55 307.409 143.605ZM241.602 69.7833C241.71 69.667 241.809 69.5435 241.899 69.4069C241.989 69.2703 242.061 69.1268 242.126 68.9821L300.757 88.3217L274.093 105.683L241.604 69.7855L241.602 69.7833ZM237.249 69.6943C237.352 69.8151 237.467 69.9303 237.592 70.0356L237.611 70.229L186.942 146.056C186.366 145.743 185.726 145.647 185.115 145.741L176.597 111.895L237.246 69.6936L237.249 69.6943ZM138.861 134.575L168.855 117.006C169.059 117.291 169.316 117.546 169.628 117.748C169.826 117.879 170.037 117.975 170.252 118.052L164.08 142.753L139.099 136.27C139.194 135.693 139.108 135.103 138.862 134.578L138.861 134.575ZM170.772 118.181C171.223 118.251 171.683 118.212 172.109 118.073L184.172 146.055C183.764 146.277 183.404 146.603 183.129 147.019C183.003 147.211 182.907 147.414 182.833 147.619L164.597 142.887L170.772 118.181ZM182.698 148.135C182.571 148.917 182.769 149.72 183.251 150.353L158.144 173.35C158.007 173.214 157.852 173.088 157.684 172.978C157.511 172.864 157.328 172.774 157.143 172.703L164.465 143.402L182.697 148.133L182.698 148.135ZM158.488 173.763L180.21 153.864L158.787 176.503C159.159 175.59 159.034 174.557 158.488 173.763ZM183.769 150.881C183.835 150.933 183.904 150.983 183.974 151.031C184.504 151.377 185.105 151.524 185.69 151.495L191.731 194.923C191.029 195.088 190.387 195.51 189.963 196.161C189.589 196.734 189.446 197.391 189.509 198.024L130.083 209.388C129.952 208.988 129.731 208.613 129.432 208.296L183.77 150.878L183.769 150.881ZM189.611 198.55C189.669 198.746 189.742 198.936 189.84 199.12L139.868 232.268L128.956 212.691C129.266 212.48 129.54 212.209 129.757 211.873C130.152 211.269 130.288 210.574 130.201 209.912L189.609 198.551L189.611 198.55ZM128.487 212.947L139.419 232.562L123.309 243.247C123.121 243.016 122.897 242.808 122.634 242.637C122.376 242.469 122.102 242.348 121.82 242.27L127.004 213.169C127.511 213.225 128.022 213.147 128.486 212.945L128.487 212.947ZM119.468 247.5C120.777 248.353 122.514 248.012 123.41 246.751L156.248 265.848L74.6653 236.115L118.165 244.769C118.057 245.816 118.521 246.887 119.464 247.5L119.468 247.5ZM73.7254 236.753C73.7977 236.642 73.8594 236.525 73.9137 236.408L156.253 266.417C156.158 266.843 156.162 267.281 156.259 267.699L119.759 279.077L73.6042 236.915C73.6441 236.86 73.6855 236.807 73.7239 236.75L73.7254 236.753ZM160.668 264.616C160.625 264.588 160.579 264.565 160.535 264.54L191.384 200.463C192.205 200.771 193.114 200.679 193.854 200.25L208.286 220.484L161.003 264.874C160.898 264.781 160.79 264.694 160.668 264.616ZM194.29 199.939C194.491 199.766 194.673 199.564 194.826 199.326C195.112 198.889 195.261 198.401 195.289 197.91L231.556 196.669C231.62 197.178 231.822 197.669 232.143 198.082L208.68 220.11L194.29 199.936L194.29 199.939ZM232.513 198.476C232.618 198.568 232.728 198.658 232.849 198.736C233.384 199.084 233.992 199.23 234.582 199.2L244.745 269.269C244.473 269.335 244.212 269.439 243.965 269.582L208.995 220.556L232.514 198.478L232.513 198.476ZM245.274 269.19L235.113 199.124C235.203 199.103 235.294 199.078 235.382 199.044L248.858 226.86C248.539 227.072 248.258 227.351 248.036 227.69C247.162 229.034 247.541 230.829 248.883 231.704C249.191 231.906 249.524 232.036 249.861 232.108L245.494 269.185C245.42 269.182 245.346 269.185 245.273 269.188L245.274 269.19ZM253.362 229.351L338.054 227.789C338.091 228.694 338.551 229.569 339.368 230.102C339.735 230.34 340.138 230.484 340.547 230.541L338.384 275.268C337.5 275.306 336.648 275.749 336.116 276.534L253.034 230.625C253.247 230.219 253.355 229.784 253.364 229.35L253.362 229.351ZM340.091 275.734C339.724 275.496 339.322 275.352 338.915 275.294L341.03 231.551L344.716 272.498L340.528 276.08C340.398 275.953 340.251 275.834 340.092 275.731L340.091 275.734ZM341.477 230.522C342.232 230.381 342.93 229.949 343.382 229.255C343.387 229.248 343.391 229.239 343.398 229.23L371.246 246.673C370.792 247.632 370.908 248.743 371.5 249.584L345.217 272.075L341.479 230.524L341.477 230.522ZM371.847 249.991C371.977 250.118 372.125 250.237 372.284 250.341C372.423 250.429 372.565 250.505 372.712 250.568L350.112 319.462C349.901 319.415 349.688 319.389 349.473 319.387L345.275 272.728L371.847 249.991ZM375.613 250.222C375.875 250.026 376.107 249.784 376.298 249.494C376.337 249.433 376.37 249.37 376.406 249.308L429.89 263.139C429.783 263.797 429.909 264.47 430.237 265.046L398.608 287.333L375.613 250.222ZM434.389 265.998C434.695 265.79 434.967 265.517 435.182 265.186C435.44 264.791 435.584 264.356 435.632 263.917L454.044 264.224L456.206 303.542C455.925 303.567 455.651 303.635 455.389 303.739L434.39 265.994L434.389 265.998ZM458.935 304.901L502.698 266.902C502.825 267.025 502.965 267.139 503.118 267.237C503.817 267.692 504.638 267.805 505.388 267.621L511.04 284.016L459.115 305.236C459.061 305.12 459.001 305.008 458.933 304.898L458.935 304.901ZM511.713 284.322L545.802 270.391C546.026 270.82 546.356 271.2 546.791 271.482C546.895 271.549 547 271.605 547.108 271.66L531.166 314.108L527.152 324.8C526.659 324.668 526.146 324.672 525.666 324.797L511.714 284.325L511.713 284.322ZM527.983 325.167C527.877 325.098 527.766 325.039 527.652 324.985L547.608 271.849C547.768 271.893 547.927 271.921 548.089 271.937L547.77 326.549L529.281 327.268C529.185 326.438 528.736 325.656 527.983 325.167ZM548.302 327.064L603.189 324.928C603.252 325.399 603.43 325.852 603.713 326.245L549.815 373.308C549.621 373.054 549.385 372.829 549.102 372.645C548.77 372.428 548.408 372.289 548.041 372.222L548.306 327.065L548.302 327.064ZM550.402 374.8C550.367 374.441 550.266 374.088 550.102 373.765L604.063 326.647C604.188 326.768 604.327 326.879 604.478 326.975C604.857 327.221 605.269 327.365 605.69 327.42L604.267 366.817L550.401 374.798L550.402 374.8ZM606.226 327.443C606.706 327.415 607.172 327.271 607.585 327.015L632.727 360.381C632.637 360.485 632.552 360.592 632.474 360.71C632.074 361.324 631.938 362.033 632.037 362.706L604.808 366.741L606.226 327.443ZM633.74 359.639L617.825 322.82L638.76 319.258C638.938 319.927 639.351 320.534 639.976 320.94C640.253 321.12 640.549 321.245 640.853 321.321L634.944 359.395C634.53 359.391 634.121 359.472 633.74 359.639ZM639.417 316.559C639.314 316.672 639.217 316.794 639.129 316.926C638.766 317.481 638.623 318.116 638.67 318.73L617.606 322.315L593.784 267.197C593.906 267.129 594.027 267.049 594.14 266.963L639.417 316.559ZM547.645 255.847C547.84 256.467 548.242 257.026 548.829 257.41C549.112 257.596 549.42 257.722 549.733 257.798L548.524 266.16C547.527 266.108 546.529 266.573 545.945 267.47C545.733 267.795 545.597 268.149 545.528 268.508L507.606 264.823C507.606 264.704 507.599 264.583 507.587 264.464L547.648 255.848L547.645 255.847ZM503.703 262.09C503.392 262.203 503.099 262.369 502.838 262.589L453.697 213.995C453.764 213.914 453.828 213.829 453.886 213.738C454.741 212.428 454.395 210.685 453.128 209.789L477.068 168.293C477.612 168.543 478.201 168.613 478.764 168.517L503.701 262.092L503.703 262.09ZM475.39 165.866C475.414 166.204 475.498 166.539 475.638 166.85L422.799 196.773L359.334 163.38L475.392 165.864L475.39 165.866ZM352.959 160.806C352.815 161.383 352.856 161.985 353.06 162.53L322.274 177.555L310.968 148.004C311.42 147.78 311.823 147.441 312.117 146.987C312.197 146.864 312.263 146.739 312.321 146.608L352.958 160.804L352.959 160.806ZM309.006 142.588C308.628 142.68 308.268 142.849 307.95 143.085L274.462 106.084L301.17 88.6943L309.008 142.587L309.006 142.588ZM233.406 24.7352C233.886 24.639 234.345 24.4202 234.727 24.0923L300.346 87.6214L242.293 68.4745C242.557 67.3226 242.1 66.0768 241.053 65.3928C239.977 64.6926 238.616 64.7988 237.664 65.5534L233.402 24.7346L233.406 24.7352ZM164.555 66.2148L175.992 111.665L173.433 113.445C173.255 113.232 173.043 113.041 172.799 112.884C172.27 112.538 171.664 112.39 171.076 112.419L164.553 66.2126L164.555 66.2148ZM137.773 138.262C138.122 138.046 138.433 137.752 138.671 137.385C138.797 137.193 138.89 136.992 138.967 136.786L163.953 143.271L156.633 172.56C156.098 172.461 155.551 172.519 155.05 172.712L137.773 138.262ZM154.568 177.868C155.435 178.411 156.482 178.44 157.347 178.03L132.912 203.85L154.565 177.87L154.568 177.868ZM70.5196 237.967C71.4769 238.235 72.5124 237.989 73.2528 237.317L119.177 279.265L48.2251 301.383C48.0088 300.863 47.639 300.4 47.1321 300.067C47.0335 300.003 46.9314 299.947 46.8303 299.898L70.5217 237.965L70.5196 237.967ZM48.4374 302.317C48.4285 302.175 48.4121 302.032 48.3817 301.893L119.631 279.685L145.972 303.748C145.94 303.791 145.908 303.833 145.877 303.878C145.596 304.309 145.447 304.787 145.414 305.268L48.4374 302.317ZM148.972 302.638C148.036 302.418 147.04 302.677 146.329 303.345L120.226 279.5L156.436 268.214C156.655 268.715 157.016 269.161 157.508 269.482C157.667 269.585 157.833 269.671 158.004 269.74L148.972 302.638ZM161.991 267.037C161.988 266.401 161.776 265.777 161.377 265.268L208.607 220.929L243.534 269.895C243.332 270.069 243.151 270.271 242.998 270.508C242.765 270.869 242.622 271.26 242.561 271.658L161.992 267.04L161.991 267.037ZM340.943 279.751C341.61 278.726 341.545 277.437 340.88 276.494L344.779 273.157L348.89 318.846L339.468 280.902C340.053 280.698 340.579 280.31 340.944 279.747L340.943 279.751ZM352.296 321.647C352.231 321.368 352.127 321.097 351.982 320.848L398.455 288.101L412.875 311.375C412.614 311.571 412.379 311.814 412.191 312.103C411.85 312.626 411.701 313.219 411.726 313.799L352.296 321.647ZM417.421 312.928C417.242 312.263 416.828 311.66 416.207 311.255C416.095 311.18 415.976 311.12 415.857 311.064L432.022 266.41C432.661 266.576 433.329 266.517 433.924 266.258L454.916 303.988C454.578 304.202 454.277 304.49 454.046 304.848C453.682 305.408 453.537 306.044 453.589 306.661L417.422 312.93L417.421 312.928ZM459.304 307.065C459.402 306.626 459.396 306.174 459.291 305.745L511.216 284.525L525.16 324.977C524.689 325.198 524.27 325.546 523.967 326.016C523.853 326.193 523.761 326.373 523.689 326.563L459.3 307.068L459.304 307.065ZM527.778 330.152C528.192 329.929 528.558 329.603 528.834 329.182C529.113 328.753 529.263 328.281 529.294 327.804L547.768 327.087L547.503 372.178C547.208 372.18 546.915 372.225 546.637 372.315L527.778 330.152ZM605.27 395.061C605.15 394.949 605.021 394.846 604.88 394.754C604.546 394.535 604.183 394.395 603.812 394.327L604.788 367.284L632.162 363.228C632.296 363.623 632.516 363.992 632.816 364.301L605.268 395.059L605.27 395.061Z" fill="#DF8711"/>
<path d="M249.71 361.579H453.821C453.821 361.579 407.009 206.861 351.766 191.256C331.562 185.564 316.71 189.199 306.706 194.532C295.79 200.329 290.656 208.167 290.656 208.167L270.988 210.763C270.988 210.763 262.469 213.841 250.945 218.029C227.306 226.585 190.997 239.79 189.242 240.666C186.646 241.973 249.71 361.582 249.71 361.582V361.579Z" fill="#DF8711"/>
<path d="M547.793 226.007H389.386V248.492H547.793C550.116 248.492 552 246.607 552 244.285V230.211C552 227.889 550.116 226.004 547.793 226.004V226.007Z" fill="#F5C07A"/>
<path d="M389.386 248.491H310.973V226.007H389.386V248.491Z" fill="#FFF4E9"/>
<path d="M316.128 232.56H382.626C383.105 232.56 383.494 232.171 383.494 231.691C383.494 231.212 383.105 230.823 382.626 230.823H316.128C315.649 230.823 315.26 231.212 315.26 231.691C315.26 232.171 315.649 232.56 316.128 232.56Z" fill="#3A8AA2"/>
<path d="M316.128 237.364H382.626C383.105 237.364 383.494 236.975 383.494 236.495C383.494 236.016 383.105 235.627 382.626 235.627H316.128C315.649 235.627 315.26 236.016 315.26 236.495C315.26 236.975 315.649 237.364 316.128 237.364Z" fill="#3A8AA2"/>
<path d="M316.128 242.163H382.626C383.105 242.163 383.494 241.774 383.494 241.294C383.494 240.815 383.105 240.426 382.626 240.426H316.128C315.649 240.426 315.26 240.815 315.26 241.294C315.26 241.774 315.649 242.163 316.128 242.163Z" fill="#3A8AA2"/>
<path d="M307.374 246.01H386.904V228.492H307.374V226.008H393.678V248.492H307.374V246.007V246.01Z" fill="#F5C07A"/>
<path d="M474.181 241.545H536.74C539.111 241.545 541.037 239.622 541.037 237.248C541.037 234.877 539.114 232.951 536.74 232.951H474.181C471.81 232.951 469.884 234.874 469.884 237.248C469.884 239.619 471.807 241.545 474.181 241.545Z" fill="#FFF4E9"/>
<path d="M483.509 295.791H527.169V331.903H483.509V295.791Z" fill="#FFF4E9"/>
<path d="M483.509 331.906H309.317V295.652H483.509V331.906Z" fill="#9F5656"/>
<path d="M527.169 295.649H481.432V331.904H527.169V327.738H485.587V299.805H527.169V295.649Z" fill="#854747"/>
<path d="M486.957 324.645H525.957C526.436 324.645 526.825 324.256 526.825 323.776C526.825 323.297 526.436 322.908 525.957 322.908H486.957C486.478 322.908 486.089 323.297 486.089 323.776C486.089 324.256 486.478 324.645 486.957 324.645Z" fill="#307286"/>
<path d="M486.957 318.591H525.957C526.436 318.591 526.825 318.201 526.825 317.722C526.825 317.242 526.436 316.853 525.957 316.853H486.957C486.478 316.853 486.089 317.242 486.089 317.722C486.089 318.201 486.478 318.591 486.957 318.591Z" fill="#307286"/>
<path d="M486.957 312.535H525.957C526.436 312.535 526.825 312.146 526.825 311.667C526.825 311.187 526.436 310.798 525.957 310.798H486.957C486.478 310.798 486.089 311.187 486.089 311.667C486.089 312.146 486.478 312.535 486.957 312.535Z" fill="#307286"/>
<path d="M486.957 306.483H525.957C526.436 306.483 526.825 306.094 526.825 305.615C526.825 305.135 526.436 304.746 525.957 304.746H486.957C486.478 304.746 486.089 305.135 486.089 305.615C486.089 306.094 486.478 306.483 486.957 306.483Z" fill="#307286"/>
<path d="M317.417 322.217H478.649C479.129 322.217 479.518 321.828 479.518 321.348V305.612C479.518 305.132 479.129 304.743 478.649 304.743H317.417C316.937 304.743 316.548 305.132 316.548 305.612V321.348C316.548 321.828 316.937 322.217 317.417 322.217ZM477.78 320.48H318.285V306.48H477.78V320.48Z" fill="#FFF4E9"/>
<path d="M308.615 398.71H473.484V330.81H308.344C303.348 330.81 299.291 334.867 299.291 339.862V388.79C299.291 393.786 303.348 398.71 308.344 398.71H308.615Z" fill="#3A8AA2"/>
<path d="M474.564 330.812H518.224V397.848H474.564V330.812Z" fill="#FFF4E9"/>
<path d="M518.224 330.812H472.486V398.71H495.355H518.224V386.994H476.642V339.586H518.224V330.812Z" fill="#357E94"/>
<path d="M325.266 348.404H447.474V380.256H325.266V348.404Z" fill="#FFF4E9"/>
<path d="M479.226 362.151H516.213C516.692 362.151 517.081 361.762 517.081 361.282C517.081 360.803 516.692 360.414 516.213 360.414H479.226C478.747 360.414 478.358 360.803 478.358 361.282C478.358 361.762 478.747 362.151 479.226 362.151Z" fill="#2B6577"/>
<path d="M479.226 356.096H516.213C516.692 356.096 517.081 355.707 517.081 355.228C517.081 354.748 516.692 354.359 516.213 354.359H479.226C478.747 354.359 478.358 354.748 478.358 355.228C478.358 355.707 478.747 356.096 479.226 356.096Z" fill="#2B6577"/>
<path d="M479.226 350.042H516.212C516.692 350.042 517.081 349.652 517.081 349.173C517.081 348.693 516.692 348.304 516.212 348.304H479.226C478.747 348.304 478.358 348.693 478.358 349.173C478.358 349.652 478.747 350.042 479.226 350.042Z" fill="#2B6577"/>
<path d="M479.227 380.352H516.213C516.692 380.352 517.081 379.963 517.081 379.483C517.081 379.004 516.692 378.615 516.213 378.615H479.227C478.747 378.615 478.358 379.004 478.358 379.483C478.358 379.963 478.747 380.352 479.227 380.352Z" fill="#2B6577"/>
<path d="M479.227 374.299H516.213C516.692 374.299 517.081 373.91 517.081 373.431C517.081 372.951 516.692 372.562 516.213 372.562H479.227C478.747 372.562 478.358 372.951 478.358 373.431C478.358 373.91 478.747 374.299 479.227 374.299Z" fill="#2B6577"/>
<path d="M479.226 368.245H516.213C516.692 368.245 517.081 367.855 517.081 367.376C517.081 366.897 516.692 366.507 516.213 366.507H479.226C478.747 366.507 478.358 366.897 478.358 367.376C478.358 367.855 478.747 368.245 479.226 368.245Z" fill="#2B6577"/>
<path d="M312.437 386.935C312.916 386.935 313.306 386.546 313.306 386.066V340.37C313.306 339.891 312.916 339.501 312.437 339.501C311.958 339.501 311.568 339.891 311.568 340.37V386.066C311.568 386.546 311.958 386.935 312.437 386.935Z" fill="#3A8AA2"/>
<path d="M304.845 386.935C305.325 386.935 305.714 386.546 305.714 386.066V340.37C305.714 339.891 305.325 339.501 304.845 339.501C304.366 339.501 303.977 339.891 303.977 340.37V386.066C303.977 386.546 304.366 386.935 304.845 386.935Z" fill="#3A8AA2"/>
<path d="M468.037 386.935C468.516 386.935 468.905 386.546 468.905 386.067V340.371C468.905 339.891 468.516 339.502 468.037 339.502C467.557 339.502 467.168 339.891 467.168 340.371V386.067C467.168 386.546 467.557 386.935 468.037 386.935Z" fill="#3A8AA2"/>
<path d="M460.444 386.935C460.923 386.935 461.313 386.546 461.313 386.067V340.371C461.313 339.891 460.923 339.502 460.444 339.502C459.964 339.502 459.575 339.891 459.575 340.371V386.067C459.575 386.546 459.964 386.935 460.444 386.935Z" fill="#3A8AA2"/>
<path d="M400.925 370.157C401.136 370.157 401.345 370.149 401.559 370.129C403.155 369.974 404.99 369.038 405.843 367.283C406.776 367.824 407.784 368.237 408.874 368.414C410.988 368.76 413.483 367.961 414.873 366.084C415.416 366.443 416.002 366.78 416.623 367.09C419.757 368.654 423.239 369.543 426.693 369.657C427.194 369.657 427.575 369.299 427.59 368.817C427.606 368.337 427.232 367.938 426.753 367.92C423.546 367.814 420.311 366.992 417.401 365.535C416.95 365.311 416.337 364.973 415.674 364.522C415.692 364.468 415.708 364.411 415.723 364.357C416.192 362.71 415.741 360.813 414.548 359.406C413.499 358.166 412.089 357.56 410.686 357.702C410.225 357.753 409.887 358.161 409.918 358.625C410.078 360.996 411.341 363.228 413.481 365.043C412.491 366.37 410.661 366.94 409.161 366.705C408.15 366.54 407.199 366.107 406.312 365.538C406.426 364.03 405.874 362.354 404.642 360.452C403.113 358.081 401.276 357.068 399.587 357.689C399.237 357.815 399.007 358.155 399.018 358.529C399.085 360.999 400.76 362.952 402.214 364.378C402.879 365.033 403.601 365.698 404.384 366.303C403.884 367.6 402.513 368.304 401.397 368.409C400.043 368.536 398.683 368.1 397.053 367.401C395.631 366.791 394.074 365.986 392.646 364.955C392.865 364.27 392.96 363.55 392.919 362.836C392.826 361.215 392.032 359.676 390.743 358.617C389.591 357.671 388.215 357.246 386.895 357.434C386.661 357.465 386.447 357.594 386.31 357.784C386.171 357.978 386.117 358.217 386.16 358.452C386.653 361.091 388.13 363.463 390.504 365.478C390.352 365.718 390.179 365.948 389.986 366.159C389.297 366.904 388.416 367.342 387.57 367.36C387.091 367.37 386.712 367.767 386.72 368.247C386.73 368.721 387.117 369.097 387.588 369.097H387.606C388.939 369.069 390.238 368.443 391.259 367.337C391.488 367.087 391.7 366.821 391.885 366.543C393.182 367.448 394.679 368.27 396.373 368.994C397.804 369.608 399.34 370.165 400.933 370.165L400.925 370.157ZM400.853 359.274C401.884 359.504 402.861 360.893 403.18 361.388C403.827 362.385 404.248 363.282 404.449 364.092C404.093 363.775 403.753 363.45 403.425 363.13C402.322 362.048 401.196 360.767 400.853 359.274ZM388.127 359.187C388.65 359.303 389.166 359.56 389.635 359.947C390.537 360.689 391.115 361.803 391.182 362.924C391.197 363.19 391.182 363.458 391.146 363.723C389.803 362.481 388.699 360.981 388.127 359.187ZM411.805 359.522C412.313 359.687 412.805 360.029 413.223 360.522C413.908 361.331 414.244 362.357 414.159 363.311C413.115 362.331 412.176 361.071 411.805 359.522Z" fill="#2B6577"/>
<path d="M354.063 370.046C354.272 370.046 354.483 370.038 354.692 370.018C356.285 369.863 358.123 368.927 358.976 367.172C359.909 367.713 360.917 368.123 362.01 368.301C364.121 368.646 366.619 367.847 368.008 365.971C368.552 366.329 369.134 366.667 369.758 366.976C372.895 368.543 376.377 369.43 379.829 369.543C380.264 369.536 380.71 369.185 380.723 368.703C380.739 368.224 380.362 367.821 379.883 367.806C376.682 367.703 373.447 366.878 370.531 365.422C370.08 365.197 369.467 364.86 368.804 364.409C368.822 364.355 368.838 364.298 368.853 364.244C369.323 362.597 368.871 360.699 367.678 359.289C366.629 358.05 365.224 357.434 363.817 357.588C363.355 357.64 363.018 358.047 363.049 358.511C363.208 360.882 364.469 363.115 366.611 364.929C365.618 366.259 363.781 366.829 362.291 366.592C361.28 366.427 360.329 365.994 359.443 365.424C359.553 363.916 359.004 362.241 357.772 360.339C356.239 357.972 354.401 356.967 352.717 357.575C352.367 357.702 352.138 358.042 352.148 358.416C352.215 360.888 353.89 362.839 355.344 364.264C356.009 364.916 356.731 365.584 357.514 366.187C357.014 367.484 355.643 368.187 354.527 368.296C353.176 368.427 351.818 367.986 350.184 367.288C348.761 366.68 347.204 365.873 345.776 364.842C345.995 364.156 346.09 363.437 346.049 362.723C345.956 361.102 345.163 359.565 343.874 358.503C342.724 357.557 341.361 357.129 340.025 357.318C339.791 357.349 339.579 357.477 339.44 357.668C339.301 357.862 339.247 358.101 339.291 358.336C339.783 360.975 341.257 363.347 343.631 365.365C343.479 365.605 343.307 365.834 343.113 366.043C342.425 366.788 341.544 367.226 340.698 367.244C340.219 367.254 339.84 367.651 339.847 368.131C339.858 368.61 340.172 369.005 340.734 368.981C342.067 368.953 343.366 368.327 344.387 367.221C344.616 366.971 344.825 366.705 345.01 366.427C346.307 367.334 347.805 368.154 349.498 368.881C350.934 369.494 352.473 370.051 354.06 370.051L354.063 370.046ZM353.988 359.163C355.019 359.393 355.996 360.782 356.316 361.274C356.96 362.272 357.38 363.169 357.581 363.978C357.228 363.661 356.885 363.336 356.558 363.017C355.455 361.934 354.329 360.656 353.986 359.163H353.988ZM341.263 359.076C341.786 359.192 342.301 359.449 342.77 359.836C343.673 360.578 344.25 361.692 344.317 362.816C344.333 363.079 344.317 363.349 344.281 363.615C342.938 362.372 341.835 360.872 341.265 359.078L341.263 359.076ZM364.941 359.408C365.448 359.573 365.938 359.916 366.358 360.408C367.044 361.218 367.379 362.243 367.294 363.197C366.25 362.218 365.314 360.957 364.941 359.408Z" fill="#3A8AA2"/>
<path d="M332.204 275.732H375.863V295.65H332.204V275.732Z" fill="#FFF4E9"/>
<path d="M546.464 275.655H375.865V295.652H546.464C548.447 295.652 550.058 294.041 550.058 292.059V279.251C550.058 277.269 548.447 275.658 546.464 275.658V275.655Z" fill="#F5C07A"/>
<path d="M332.205 275.655H377.939V295.65H332.205V293.353H373.784V277.947H332.205V275.655Z" fill="#F5C07A"/>
<path d="M333.413 292.036H372.413C372.892 292.036 373.281 291.647 373.281 291.167C373.281 290.688 372.892 290.299 372.413 290.299H333.413C332.934 290.299 332.545 290.688 332.545 291.167C332.545 291.647 332.934 292.036 333.413 292.036Z" fill="#2B6577"/>
<path d="M333.413 287.028H372.413C372.892 287.028 373.281 286.639 373.281 286.159C373.281 285.68 372.892 285.291 372.413 285.291H333.413C332.934 285.291 332.545 285.68 332.545 286.159C332.545 286.639 332.934 287.028 333.413 287.028Z" fill="#2B6577"/>
<path d="M333.413 282.017H372.413C372.892 282.017 373.281 281.628 373.281 281.148C373.281 280.669 372.892 280.28 372.413 280.28H333.413C332.934 280.28 332.545 280.669 332.545 281.148C332.545 281.628 332.934 282.017 333.413 282.017Z" fill="#2B6577"/>
<path d="M383.043 292.036C383.523 292.036 383.912 291.647 383.912 291.167V281.151C383.912 280.671 383.523 280.282 383.043 280.282C382.564 280.282 382.175 280.671 382.175 281.151V291.167C382.175 291.647 382.564 292.036 383.043 292.036Z" fill="#2B6577"/>
<path d="M388.126 292.036C388.606 292.036 388.995 291.647 388.995 291.167V281.151C388.995 280.671 388.606 280.282 388.126 280.282C387.647 280.282 387.258 280.671 387.258 281.151V291.167C387.258 291.647 387.647 292.036 388.126 292.036Z" fill="#2B6577"/>
<path d="M482.672 289.066C486.389 289.066 490.103 288.525 493.668 287.445C494.872 287.081 496.073 286.653 497.274 286.226C500.811 284.965 504.151 283.767 507.636 284.107C509.572 284.292 511.41 284.939 513.356 285.625C513.933 285.829 514.511 286.032 515.091 286.223C521.14 288.215 527.682 288.855 534.003 288.074C534.48 288.017 534.817 287.581 534.758 287.105C534.699 286.63 534.25 286.29 533.791 286.349C527.718 287.097 521.442 286.481 515.635 284.573C515.067 284.385 514.5 284.187 513.936 283.986C511.977 283.295 509.951 282.581 507.804 282.377C503.935 282.009 500.254 283.318 496.694 284.589C495.519 285.006 494.346 285.426 493.168 285.782C487.51 287.496 481.455 287.795 475.653 286.643C475.181 286.545 474.725 286.857 474.632 287.324C474.54 287.795 474.844 288.252 475.315 288.344C477.741 288.826 480.21 289.066 482.677 289.066H482.672Z" fill="#2B6577"/>
<path d="M410.943 289.067C414.66 289.067 418.374 288.525 421.939 287.445C423.143 287.082 424.344 286.654 425.543 286.226C429.079 284.966 432.42 283.77 435.907 284.107C437.841 284.293 439.678 284.94 441.625 285.625C442.202 285.829 442.779 286.033 443.359 286.223C449.409 288.216 455.951 288.855 462.271 288.074C462.748 288.018 463.086 287.582 463.026 287.105C462.967 286.631 462.521 286.291 462.06 286.35C455.987 287.097 449.71 286.481 443.903 284.574C443.336 284.386 442.769 284.187 442.204 283.986C440.245 283.295 438.219 282.581 436.075 282.378C432.198 282.019 428.522 283.321 424.963 284.589C423.787 285.007 422.615 285.427 421.437 285.783C415.779 287.497 409.724 287.796 403.922 286.644C403.458 286.546 402.994 286.858 402.901 287.324C402.808 287.796 403.112 288.252 403.584 288.345C406.01 288.827 408.479 289.067 410.946 289.067H410.943Z" fill="#2B6577"/>
<path d="M448.357 249.748H529.769V273.696H448.357V249.748Z" fill="#FFF4E9"/>
<path d="M454.788 257.632H524.984C525.463 257.632 525.853 257.243 525.853 256.764C525.853 256.284 525.463 255.895 524.984 255.895H454.788C454.308 255.895 453.919 256.284 453.919 256.764C453.919 257.243 454.308 257.632 454.788 257.632Z" fill="#3A8AA2"/>
<path d="M454.788 262.589H524.984C525.463 262.589 525.853 262.2 525.853 261.72C525.853 261.241 525.463 260.852 524.984 260.852H454.788C454.308 260.852 453.919 261.241 453.919 261.72C453.919 262.2 454.308 262.589 454.788 262.589Z" fill="#3A8AA2"/>
<path d="M454.788 267.545H524.984C525.463 267.545 525.853 267.156 525.853 266.677C525.853 266.197 525.463 265.808 524.984 265.808H454.788C454.308 265.808 453.919 266.197 453.919 266.677C453.919 267.156 454.308 267.545 454.788 267.545Z" fill="#3A8AA2"/>
<path d="M452.502 252.152V271.288H530.614C531.759 271.288 532.687 272.216 532.687 273.361C532.687 274.505 531.759 275.433 530.614 275.433H448.357V248.01H530.614C531.759 248.01 532.687 248.938 532.687 250.082C532.687 251.227 531.759 252.155 530.614 252.155H452.502" fill="#E43A83"/>
<path d="M326.686 248.01H449.347V275.433H326.686V248.01Z" fill="#E95D9A"/>
<path d="M435.095 248.01H440.222V275.433H435.095V248.01Z" fill="#FFF4E9"/>
<path d="M426.096 248.009H431.223V275.433H426.096V248.009Z" fill="#FFF4E9"/>
<path d="M342.07 248.01H347.196V275.433H342.07V248.01Z" fill="#FFF4E9"/>
<path d="M333.07 248.01H338.197V275.433H333.07V248.01Z" fill="#FFF4E9"/>
<path d="M355.948 254.663H420.084V268.778H355.948V254.663Z" fill="#FFF4E9"/>
<path d="M546.41 194.178H317.618V226.953H546.41C548.732 226.953 550.616 225.068 550.616 222.746V198.385C550.616 196.062 548.732 194.178 546.41 194.178Z" fill="#9F5656"/>
<path d="M403.545 215.737H534.38C537.236 215.737 539.551 213.423 539.551 210.567C539.551 207.711 537.236 205.396 534.38 205.396H403.545C400.689 205.396 398.375 207.711 398.375 210.567C398.375 213.423 400.689 215.737 403.545 215.737Z" fill="#FFF4E9"/>
<path d="M312.905 194.178H362.872V226.953H312.905V194.178Z" fill="#FFF4E9"/>
<path d="M314.334 203.68H354.04C354.519 203.68 354.908 203.29 354.908 202.811C354.908 202.332 354.519 201.942 354.04 201.942H314.334C313.855 201.942 313.465 202.332 313.465 202.811C313.465 203.29 313.855 203.68 314.334 203.68Z" fill="#3A8AA2"/>
<path d="M314.334 210.631H354.04C354.519 210.631 354.908 210.242 354.908 209.763C354.908 209.283 354.519 208.894 354.04 208.894H314.334C313.855 208.894 313.466 209.283 313.466 209.763C313.466 210.242 313.855 210.631 314.334 210.631Z" fill="#3A8AA2"/>
<path d="M314.334 217.581H354.04C354.519 217.581 354.908 217.192 354.908 216.712C354.908 216.233 354.519 215.844 354.04 215.844H314.334C313.855 215.844 313.466 216.233 313.466 216.712C313.466 217.192 313.855 217.581 314.334 217.581Z" fill="#3A8AA2"/>
<path d="M308.759 222.29H358.211V198.841H308.759V194.178H368.16V226.953H308.759V222.29Z" fill="#854747"/>
<path d="M364.095 224.556C364.575 224.556 364.964 224.167 364.964 223.687V196.965C364.964 196.486 364.575 196.096 364.095 196.096C363.616 196.096 363.227 196.486 363.227 196.965V223.687C363.227 224.167 363.616 224.556 364.095 224.556Z" fill="#FFF4E9"/>
<path d="M522.554 139.575H331.444C317.992 139.575 307.068 150.499 307.068 163.951C307.068 177.404 317.992 188.328 331.444 188.328H522.554V139.575Z" fill="#FFF4E9"/>
<path d="M331.443 194.697H522.555V183.961H331.443C320.962 183.961 312.435 175.435 312.435 164.954C312.435 154.473 320.962 145.947 331.443 145.947H522.555V135.211H331.443C315.041 135.211 301.699 148.555 301.699 164.954C301.699 181.353 315.044 194.7 331.443 194.7V194.697Z" fill="#3A8AA2"/>
<path d="M383.556 365.304C383.556 365.304 403.31 370.628 403.35 370.64C405.945 371.339 408.336 373.164 409.69 375.488C410.587 377.026 410.975 379.097 410.616 380.849C409.945 384.146 406.083 383.73 403.552 383.277C398.701 382.41 393.862 381.507 388.997 380.693C383.42 379.76 377.845 378.826 372.268 377.893C372.261 377.893 372.195 377.874 372.19 377.879L383.556 365.306V365.304Z" fill="#FCA89B"/>
<path d="M383.556 365.304C383.556 365.304 403.31 370.628 403.35 370.64C405.945 371.339 408.336 373.164 409.69 375.488C410.587 377.026 410.975 379.097 410.616 380.849C409.945 384.146 406.083 383.73 403.552 383.277C398.701 382.41 393.862 381.507 388.997 380.693C383.42 379.76 377.845 378.826 372.268 377.893C372.261 377.893 372.195 377.874 372.19 377.879L383.556 365.306V365.304Z" fill="#FFBE97"/>
<path d="M406.759 383.523L356.005 394.02L374.629 365.09L406.759 383.523Z" fill="#FFBE97"/>
<path d="M302.131 336.738L243.748 350.647L328.848 398.711H347.441L365.731 389.783L380.688 379.425L383.433 365.397L348.066 350.504L302.131 336.738Z" fill="#FCA89B"/>
<path d="M302.131 336.738L243.748 350.647L328.848 398.711L348.268 398.289L365.731 389.783L380.688 379.425L383.433 365.397L348.066 350.504L302.131 336.738Z" fill="#FFBE97"/>
<path d="M307.279 344.943L347.861 335.993C347.861 335.993 385.492 343.157 385.515 343.161C389.221 343.867 392.706 347.828 390.313 351.518C388.621 354.127 385.113 355.932 382.076 356.265L352.558 359.525L307.276 344.943H307.279Z" fill="#FCA89B"/>
<path d="M307.279 344.943L347.861 335.993C347.861 335.993 385.492 343.157 385.515 343.161C389.221 343.867 392.706 347.828 390.313 351.518C388.621 354.127 385.113 355.932 382.076 356.265L352.558 359.525L307.276 344.943H307.279Z" fill="#FFBE97"/>
<path d="M355.726 380.307C355.85 380.387 355.997 380.44 356.156 380.452L399.242 383.748C399.748 383.787 400.19 383.408 400.229 382.902C400.268 382.397 399.891 381.951 399.383 381.916L356.296 378.619C355.791 378.58 355.349 378.96 355.31 379.465C355.282 379.813 355.453 380.128 355.726 380.307Z" fill="#FB8876"/>
<path d="M349.051 389.33C349.189 389.42 349.355 389.473 349.529 389.48L371.939 390.011C372.447 390.022 372.868 389.62 372.879 389.114C372.893 388.604 372.486 388.188 371.983 388.174L349.573 387.643C349.065 387.631 348.644 388.034 348.633 388.539C348.626 388.87 348.794 389.165 349.051 389.333V389.33Z" fill="#FB8876"/>
<path d="M341.16 397.011C341.28 397.089 341.418 397.14 341.57 397.156L349.666 397.963C350.172 398.013 350.62 397.643 350.671 397.14C350.722 396.636 350.356 396.183 349.848 396.133L341.751 395.326C341.245 395.275 340.797 395.645 340.747 396.149C340.712 396.503 340.88 396.829 341.16 397.011Z" fill="#FB8876"/>
<path d="M286.105 208.005C286.105 208.005 218.273 175.829 183.922 188.004C149.572 200.179 142.616 255.836 154.356 298.447C166.097 341.059 227.363 426.726 323.021 391.507L309.149 334.972C309.149 334.972 266.973 331.059 254.364 313.231C241.754 295.403 235.666 253.661 235.666 253.661L286.105 208.005Z" fill="#DF8711"/>
<path d="M250.945 218.024C256.742 225.092 265.547 229.621 275.388 229.621C292.8 229.621 306.902 215.501 306.902 198.089C306.902 196.891 306.83 195.692 306.706 194.527C295.79 200.324 290.656 208.162 290.656 208.162L270.988 210.758C270.988 210.758 262.469 213.836 250.945 218.024Z" fill="#FFBE97"/>
<path d="M301.22 214.663L250.946 218.027L235.021 176.071C252.322 189.727 273.005 198.442 295.631 199.293L301.22 214.663Z" fill="#FFBE97"/>
<path d="M283.668 166.397L295.631 199.29C273.005 198.442 252.322 189.724 235.021 176.068L231.502 166.394H283.668V166.397Z" fill="#FB8876"/>
<path d="M226.816 112.662C226.816 112.662 236.881 97.4151 265.441 97.0053C294.001 96.5955 306.846 120 302.002 149.602L224.383 176.844C224.383 176.844 209.976 166.377 204.107 155.924C198.238 145.472 206.241 109.942 226.816 112.662Z" fill="black"/>
<path d="M220.175 169.97C228.407 187.841 255.199 194.457 276.645 184.577C298.091 174.697 306.066 152.061 297.833 134.19C289.6 116.319 265.541 109.842 244.095 119.722C222.649 129.602 211.942 152.099 220.175 169.97Z" fill="#FFBE97"/>
<path d="M283.507 140.776C283.698 140.776 283.891 140.711 284.051 140.582C288.188 137.236 292.65 136.589 296.073 136.401C296.552 136.376 296.918 135.966 296.892 135.486C296.867 135.007 296.467 134.638 295.977 134.667C292.291 134.87 287.482 135.574 282.958 139.232C282.584 139.533 282.527 140.08 282.829 140.453C282.999 140.665 283.252 140.776 283.504 140.776H283.507Z" fill="black"/>
<path d="M244.665 152.641C244.856 152.641 245.049 152.579 245.209 152.45C253.078 146.117 261.139 146.537 263.422 146.815C263.91 146.882 264.332 146.534 264.389 146.06C264.448 145.583 264.108 145.15 263.634 145.093C261.18 144.789 252.524 144.335 244.121 151.099C243.747 151.401 243.688 151.947 243.99 152.321C244.162 152.535 244.412 152.646 244.668 152.646L244.665 152.641Z" fill="black"/>
<path d="M280.286 160.258C280.515 160.258 280.744 160.167 280.915 159.987C281.244 159.639 281.229 159.09 280.884 158.76C279.239 157.2 278.19 154.414 278.141 151.488C278.089 148.38 279.141 145.57 281.105 143.58C281.443 143.24 281.438 142.688 281.098 142.353C280.757 142.018 280.206 142.021 279.871 142.361C277.577 144.686 276.347 147.937 276.406 151.517C276.463 154.891 277.721 158.149 279.69 160.018C279.858 160.178 280.074 160.255 280.288 160.255L280.286 160.258Z" fill="#E8646A"/>
<path d="M261.992 161.53C262.868 161.242 263.347 160.296 263.059 159.419L262.213 156.852C261.925 155.976 260.979 155.496 260.102 155.785C259.226 156.074 258.746 157.02 259.035 157.896L259.881 160.463C260.169 161.34 261.115 161.819 261.992 161.53Z" fill="black"/>
<path d="M293.093 152.35C293.969 152.061 294.449 151.115 294.16 150.238L293.315 147.671C293.026 146.795 292.08 146.315 291.204 146.604C290.327 146.893 289.848 147.839 290.137 148.715L290.982 151.282C291.271 152.159 292.217 152.638 293.093 152.35Z" fill="black"/>
<path d="M248.598 171.55C249.152 173.457 252.477 174.171 256.026 173.14C259.576 172.109 262.004 169.727 261.45 167.817C260.896 165.91 257.57 165.196 254.021 166.227C250.472 167.258 248.044 169.64 248.598 171.55Z" fill="#FB8876"/>
<path d="M216.068 178.467C210.797 177.852 207.023 173.08 207.638 167.808C208.254 162.537 213.026 158.763 218.297 159.378C223.569 159.994 227.343 164.766 226.727 170.037C226.112 175.308 221.34 179.083 216.068 178.467Z" fill="#FFBE97"/>
<path d="M215.348 171.708L220.464 169.517C221.289 169.164 221.671 168.21 221.317 167.385C220.964 166.56 220.011 166.179 219.186 166.532L214.069 168.723C213.244 169.076 212.863 170.03 213.216 170.855C213.569 171.68 214.523 172.061 215.348 171.708Z" fill="#FB8876"/>
<path d="M235.832 130.442C235.832 130.442 244.621 139.451 265.616 134.585L259.775 128.2C259.775 128.2 303.736 136.304 306.938 114.801C281.674 114.154 279.29 107.906 265.629 109.133C258.324 109.791 250.011 111.817 243.817 115.882C241.324 117.516 239.018 119.575 237.533 122.192C236.762 123.552 234.437 129.007 235.832 130.437V130.442Z" fill="black"/>
<path d="M235.832 130.442C235.832 130.442 234.34 146.766 223.913 154.076C223.913 154.076 226.638 170.877 225.851 171.076C225.065 171.274 213.268 155.478 213.268 155.478C213.268 155.478 203.292 124.508 240.505 118.479L235.829 130.442H235.832Z" fill="black"/>
<path d="M229.473 119.426C229.669 119.426 229.865 119.359 230.027 119.224C239.98 110.925 253.566 107.174 266.369 109.2C271.921 110.077 277.291 111.999 281.812 113.762C286.17 115.464 290.521 117.335 294.746 119.328C295.179 119.534 295.697 119.346 295.901 118.913C296.105 118.48 295.919 117.961 295.486 117.758C291.225 115.75 286.838 113.86 282.441 112.146C277.832 110.35 272.352 108.391 266.64 107.489C253.347 105.39 239.248 109.28 228.914 117.894C228.545 118.201 228.496 118.748 228.803 119.116C228.973 119.322 229.221 119.428 229.471 119.428L229.473 119.426Z" fill="black"/>
<path d="M250.253 131.321C250.691 131.321 251.065 130.991 251.114 130.548C251.166 130.071 250.823 129.643 250.346 129.589C244.173 128.911 238.587 124.789 236.115 119.09C235.927 118.649 235.414 118.446 234.973 118.639C234.532 118.83 234.331 119.34 234.522 119.781C237.236 126.042 243.374 130.568 250.155 131.316C250.186 131.318 250.22 131.321 250.251 131.321H250.253Z" fill="black"/>
<path d="M272.399 124.351C272.726 124.351 273.051 124.346 273.376 124.338C273.855 124.325 274.234 123.928 274.224 123.449C274.211 122.969 273.822 122.572 273.334 122.601C265.545 122.81 257.621 120.629 251.004 116.523C250.597 116.27 250.061 116.396 249.808 116.804C249.556 117.211 249.68 117.747 250.089 118C256.711 122.111 264.596 124.351 272.399 124.351Z" fill="black"/>
<path d="M212.69 156.025C212.886 156.025 213.082 155.958 213.245 155.824C221.202 149.186 226.318 139.049 226.934 128.705C226.963 128.225 226.597 127.815 226.12 127.787C225.648 127.761 225.231 128.122 225.202 128.601C224.614 138.476 219.727 148.153 212.134 154.491C211.765 154.798 211.716 155.347 212.023 155.713C212.193 155.919 212.44 156.025 212.69 156.025Z" fill="black"/>
<path d="M275.289 173.733C276.068 173.733 276.854 173.653 277.627 173.488C280.661 172.844 283.355 170.936 284.659 168.508C284.886 168.085 284.729 167.56 284.306 167.333C283.883 167.106 283.357 167.266 283.131 167.686C282.079 169.645 279.777 171.256 277.267 171.787C274.758 172.323 272.024 171.782 270.291 170.418C269.913 170.122 269.369 170.189 269.072 170.563C268.776 170.939 268.84 171.485 269.217 171.782C270.82 173.045 273.016 173.73 275.289 173.73V173.733Z" fill="#E8646A"/>
<path d="M325.993 156.288H513.091C513.571 156.288 513.96 155.899 513.96 155.419C513.96 154.94 513.571 154.551 513.091 154.551H325.99C325.511 154.551 325.121 154.94 325.121 155.419C325.121 155.899 325.511 156.288 325.99 156.288H325.993Z" fill="#3A8AA2"/>
<path d="M325.993 164.791H513.091C513.571 164.791 513.96 164.402 513.96 163.922C513.96 163.443 513.571 163.054 513.091 163.054H325.99C325.511 163.054 325.121 163.443 325.121 163.922C325.121 164.402 325.511 164.791 325.99 164.791H325.993Z" fill="#3A8AA2"/>
<path d="M325.993 173.298H513.091C513.571 173.298 513.96 172.908 513.96 172.429C513.96 171.95 513.571 171.56 513.091 171.56H325.99C325.511 171.56 325.121 171.95 325.121 172.429C325.121 172.908 325.511 173.298 325.99 173.298H325.993Z" fill="#3A8AA2"/>
<path d="M303.726 334.672C304.143 334.672 304.512 334.371 304.581 333.945C304.659 333.471 304.336 333.025 303.865 332.948C303.46 332.881 263.172 326.073 243.6 304.689C224.026 283.303 220.515 246.654 220.484 246.286C220.44 245.809 220.015 245.469 219.541 245.5C219.064 245.541 218.711 245.963 218.754 246.443C218.788 246.817 222.348 284.04 242.322 305.862C262.301 327.692 303.174 334.595 303.586 334.659C303.633 334.667 303.679 334.672 303.728 334.672H303.726Z" fill="#4F2B2B"/>
</g>
</svg>
