<svg width="470" height="250" viewBox="0 0 470 250" fill="none" xmlns="http://www.w3.org/2000/svg">
<mask id="mask0_916_8533" style="mask-type:alpha" maskUnits="userSpaceOnUse" x="0" y="0" width="470" height="250">
<path d="M0 20C0 8.9543 8.9543 0 20 0H450C461.046 0 470 8.9543 470 20V250H0V20Z" fill="#F7FDFE"/>
</mask>
<g mask="url(#mask0_916_8533)">
<path d="M92.4604 150.058C129.822 82.0745 227.457 48.196 254.965 42.5815C275.193 38.4528 315.075 57.662 315.075 57.662C315.075 57.662 352.414 74.7759 346.765 94.9944C341.116 115.213 341.474 131.856 341.474 131.856C341.474 131.856 341.602 132.423 341.767 133.299C341.756 133.298 341.746 133.293 341.735 133.293C329.981 131.691 287.94 127.637 238.91 142.759C188.306 158.367 133.903 184.601 120.958 190.984C120.839 191.042 120.732 191.117 120.62 191.185L119.748 188.753C117.159 183.989 112.555 177.596 104.497 171.079C88.3828 158.044 92.4604 150.058 92.4604 150.058Z" fill="#2B6577"/>
<path d="M281.174 123.335C281.174 123.335 303.776 114.202 296.677 77.3825C296.677 77.3825 274.772 72.4169 270.067 64.9861C270.067 64.9861 259.97 82.4622 246.036 84.9986C246.036 84.9986 250.559 125.789 280.234 123.723L281.174 123.335Z" fill="#F3CB5B"/>
<path d="M281.174 123.335C281.174 123.335 303.776 114.202 296.677 77.3825C296.677 77.3825 274.772 72.4169 270.067 64.9861C270.067 64.9861 259.97 82.4622 246.036 84.9986C246.036 84.9986 250.559 125.789 280.234 123.723L281.174 123.335Z" fill="#F3CB5B"/>
<path d="M281.686 125.36C281.686 125.36 305.881 115.584 298.281 76.1698C298.281 76.1698 274.833 70.8549 269.796 62.8997C269.796 62.8997 258.988 81.6075 244.071 84.3225C244.071 84.3225 248.912 127.988 280.679 125.776L281.686 125.36V125.36Z" fill="#F5C07A"/>
<path d="M244.071 84.3225C258.987 81.6067 269.796 62.8997 269.796 62.8997C270.425 63.8928 271.342 64.8456 272.463 65.7511C269.305 70.3708 259.672 84.6976 247.594 86.9019C247.594 86.9019 252.201 125.808 282.516 124.964C281.99 125.236 281.685 125.36 281.685 125.36L280.678 125.776C248.912 127.988 244.07 84.3225 244.07 84.3225H244.071Z" fill="#DF8711"/>
<path d="M118.556 195.587C118.272 193.691 119.242 191.83 120.958 190.984C133.903 184.601 188.307 158.367 238.91 142.759C287.941 127.637 329.982 131.691 341.736 133.293C343.67 133.556 345.195 135.064 345.485 136.999L345.497 137.081C345.928 139.951 343.523 142.448 340.649 142.106C326.247 140.397 286.348 137.676 240.279 151.885C192.441 166.639 141.206 190.891 124.813 198.89C122.149 200.189 118.997 198.523 118.556 195.586V195.587Z" fill="black"/>
<path d="M240.279 151.885C286.349 137.676 326.248 140.398 340.649 142.107C340.939 142.141 341.22 142.14 341.498 142.119L377.09 173.665C377.09 173.665 381.716 181.214 372.996 180.789C364.275 180.364 333.911 175.789 295.98 183.708C258.05 191.627 225.11 206.36 225.11 206.36C225.11 206.36 215.794 210.944 204.512 200.017C194.327 190.153 178.97 177.95 176.075 175.666C195.739 167.397 218.365 158.645 240.28 151.885H240.279Z" fill="#141414"/>
<path d="M372.099 173.924L371.73 173.797L371.44 173.712C371.255 173.658 371.065 173.6 370.884 173.554C370.519 173.46 370.154 173.356 369.791 173.272C369.064 173.09 368.339 172.927 367.612 172.766C366.885 172.606 366.158 172.466 365.43 172.316L363.244 171.913C360.326 171.402 357.395 171.008 354.459 170.673C348.585 170.027 342.686 169.679 336.786 169.603C324.983 169.455 313.189 170.373 301.533 172.122C300.073 172.326 298.624 172.6 297.17 172.835L294.99 173.203L292.819 173.62L288.481 174.47L284.167 175.427C283.449 175.591 282.726 175.736 282.011 175.917L279.867 176.451C278.439 176.813 277.006 177.155 275.582 177.531L271.323 178.715L269.196 179.311L267.083 179.96L262.859 181.256C261.458 181.711 260.066 182.193 258.669 182.659C255.866 183.568 253.112 184.612 250.346 185.626C249.657 185.884 248.962 186.127 248.276 186.396L246.224 187.215L242.121 188.853C240.751 189.394 239.412 190.008 238.056 190.583L233.9 192.376L233.427 192.692L233.046 192.934L232.268 193.405C231.743 193.714 231.208 194.006 230.67 194.293C229.589 194.861 228.483 195.379 227.359 195.842C225.111 196.766 222.779 197.469 220.423 197.784C219.247 197.942 218.068 198.007 216.905 197.945C215.745 197.875 214.605 197.678 213.515 197.339C212.425 197.005 211.385 196.527 210.443 195.888C210.197 195.745 209.972 195.57 209.748 195.393C209.519 195.212 209.304 195.065 209.057 194.848L207.614 193.63C199.937 187.11 192.351 180.456 184.805 173.772C184.805 173.772 189.427 178.281 197.311 185.662C199.284 187.507 201.461 189.528 203.828 191.696C205.016 192.775 206.247 193.894 207.52 195.05C207.839 195.338 208.162 195.628 208.486 195.92C208.821 196.193 209.154 196.476 209.502 196.745C210.221 197.251 210.981 197.735 211.813 198.107C213.466 198.874 215.33 199.333 217.266 199.431C219.203 199.555 221.2 199.349 223.19 198.929C225.181 198.503 227.166 197.855 229.124 197.042C230.101 196.631 231.073 196.181 232.035 195.687C232.516 195.44 232.994 195.184 233.469 194.914L234.181 194.501L234.84 194.093C237.377 193.067 239.967 192.02 242.599 190.956C243.936 190.452 245.283 189.945 246.64 189.433C247.999 188.925 249.356 188.387 250.751 187.92C253.532 186.963 256.327 185.931 259.202 185.045C260.634 184.585 262.073 184.123 263.517 183.659C264.973 183.23 266.435 182.799 267.902 182.366C268.636 182.149 269.37 181.932 270.106 181.715C270.847 181.516 271.589 181.317 272.332 181.117C273.818 180.718 275.308 180.317 276.801 179.917C279.81 179.201 282.813 178.408 285.86 177.778L288.138 177.276L289.278 177.026L290.423 176.802L295.004 175.904C298.069 175.375 301.127 174.81 304.192 174.381C310.314 173.467 316.421 172.756 322.437 172.288C328.452 171.825 334.372 171.579 340.119 171.542C345.868 171.497 351.441 171.681 356.767 172.048C359.432 172.227 362.033 172.459 364.565 172.753C365.832 172.894 367.08 173.056 368.313 173.235C368.93 173.318 369.541 173.425 370.151 173.521C370.458 173.576 370.763 173.631 371.067 173.685C371.387 173.754 371.648 173.788 372.098 173.924L372.099 173.924Z" fill="#D6D6D6"/>
</g>
</svg>
