<svg width="100" height="100" viewBox="0 0 100 100" fill="none" xmlns="http://www.w3.org/2000/svg">
<path d="M98.4187 85.4834V91.9353C98.4187 95.5 95.5307 98.3872 91.965 98.3872H8.06698C4.50131 98.3872 1.61328 95.5 1.61328 91.9353V85.4834H37.1086C39.1738 87.548 41.9811 88.7093 44.9014 88.7093H55.1305C58.0508 88.7093 60.8582 87.548 62.9234 85.4834H98.4187Z" fill="#4F2B2B"/>
<path d="M88.7384 24.1914H62.9236V30.6433H73.6851L74.2176 27.4174H77.4444L77.9768 30.6433H87.1249C88.0123 30.6433 88.7384 31.3691 88.7384 32.2563V85.4844H95.1921V30.6433C95.1921 27.0786 92.304 24.1914 88.7384 24.1914Z" fill="#EE81B0"/>
<path d="M27.428 24.1914V30.6433H12.9072C12.0198 30.6433 11.2938 31.3691 11.2938 32.2563V85.4844H4.84009V30.6433C4.84009 27.0786 7.72812 24.1914 11.2938 24.1914H27.428Z" fill="#EE81B0"/>
<path d="M27.4282 32.2565C27.4282 34.9341 29.5902 37.0954 32.2685 37.0954H33.8819C33.8819 40.2246 35.1403 43.0312 37.1894 45.0797C37.6573 45.5474 38.1736 45.9829 38.7222 46.3539V51.6122L35.4953 52.5477L29.0416 54.4026L24.7499 55.6446C20.6034 56.8382 17.7476 60.6287 17.7476 64.9354V75.8068H72.604V64.9354C72.604 60.6287 69.7483 56.8382 65.6018 55.6446L61.3101 54.4026L54.8564 52.5477L51.6295 51.6122V46.3539C54.566 44.3216 56.4698 40.9343 56.4698 37.0954H58.0832C59.4224 37.0954 60.6324 36.547 61.5037 35.676C62.3749 34.805 62.9235 33.5953 62.9235 32.2565V30.6436H73.685L72.6525 36.8535C72.6202 37.0148 72.604 37.1761 72.604 37.3374C72.604 38.9826 73.9432 40.3214 75.5889 40.3214H76.0729C77.7186 40.3214 79.0577 38.9826 79.0577 37.3374C79.0577 37.1761 79.0416 37.0148 79.0093 36.8535L77.9768 30.6436H87.1249C88.0122 30.6436 88.7383 31.3694 88.7383 32.2565V85.4846H62.9235C60.8583 87.5492 58.051 88.7106 55.1307 88.7106H44.9016C41.9813 88.7106 39.1739 87.5492 37.1087 85.4846H11.2939V32.2565C11.2939 31.3694 12.02 30.6436 12.9074 30.6436H27.4282V32.2565Z" fill="#77DFF9"/>
<path d="M48.4027 60.2087V75.8062H41.949V60.2087L45.1758 58.0635L48.4027 60.2087Z" fill="#9F5656"/>
<path d="M72.604 64.9341V75.8055H61.3101V54.4014L65.6018 55.6434C69.7483 56.837 72.604 60.6274 72.604 64.9341Z" fill="#EE81B0"/>
<path d="M29.0415 54.4014V75.8055H17.7476V64.9341C17.7476 60.6274 20.6033 56.837 24.7498 55.6434L29.0415 54.4014Z" fill="#EE81B0"/>
<path d="M54.8563 64.5156V75.8064H48.4026V60.209L54.8563 64.5156Z" fill="#8FC6D7"/>
<path d="M41.9491 60.209V75.8064H35.4954V64.5156L41.9491 60.209Z" fill="#8FC6D7"/>
<path d="M61.3101 54.4018V75.8059H54.8564V64.5151V52.5469L61.3101 54.4018Z" fill="#FCD770"/>
<path d="M35.4954 64.5151V75.8059H29.0417V54.4018L35.4954 52.5469V64.5151Z" fill="#FCD770"/>
<path d="M54.8563 52.5469V64.5151L48.4026 60.2085L45.1758 58.0632L51.6295 51.6113L54.8563 52.5469Z" fill="#FADBE9"/>
<path d="M45.1759 58.0632L41.9491 60.2085L35.4954 64.5151V52.5469L38.7222 51.6113L45.1759 58.0632Z" fill="#FADBE9"/>
<path d="M79.0093 36.8529L77.9767 30.6429L77.4443 27.417H74.2174L73.685 30.6429L72.6524 36.8529C72.6201 37.0142 72.604 37.1755 72.604 37.3368C72.604 38.982 73.9431 40.3208 75.5888 40.3208H76.0729C77.7185 40.3208 79.0577 38.982 79.0577 37.3368C79.0577 37.1755 79.0416 37.0142 79.0093 36.8529Z" fill="#FCD770"/>
<path d="M69.3448 9.67424C69.3609 9.81941 69.3771 9.9807 69.3771 10.142C69.3771 10.884 69.0867 11.5775 68.5704 12.0937L64.5368 16.1261H25.8146L21.7811 12.0937C21.2648 11.5775 20.9744 10.884 20.9744 10.142C20.9744 8.91614 21.7972 7.83545 22.975 7.49673L42.0134 2.04488C43.046 1.75454 44.1109 1.60938 45.1757 1.60938C46.2406 1.60938 47.3054 1.75454 48.338 2.04488L67.3764 7.49673C68.409 7.78706 69.1512 8.64194 69.3448 9.67424Z" fill="#FADBE9"/>
<path d="M66.1504 17.7389V20.9649C66.1504 21.852 65.4244 22.5779 64.537 22.5779H25.8148C24.9275 22.5779 24.2014 21.852 24.2014 20.9649V17.7389C24.2014 16.8518 24.9275 16.126 25.8148 16.126H64.537C65.4244 16.126 66.1504 16.8518 66.1504 17.7389Z" fill="#E43A83"/>
<path d="M62.9237 30.643V32.256C62.9237 29.5784 60.7617 27.417 58.0834 27.417H56.47V22.5781H62.9237V30.643Z" fill="#6A3939"/>
<path d="M27.4282 22.5781H33.8819V27.417H32.2685C30.9294 27.417 29.7193 27.9655 28.848 28.8365C27.9768 29.7075 27.4282 30.9172 27.4282 32.256V22.5781Z" fill="#6A3939"/>
<path d="M38.7222 46.3525C43.272 48.272 44.2078 48.3849 45.1759 48.3849C47.5799 48.3849 49.8064 47.6429 51.6296 46.3525V51.6108L45.1759 58.0627L38.7222 51.6108V46.3525Z" fill="#F8D2A0"/>
<path d="M58.0834 27.417C60.7617 27.417 62.9237 29.5784 62.9237 32.2559C62.9237 33.5947 62.3751 34.8044 61.5038 35.6754C60.6326 36.5464 59.4225 37.0948 58.0834 37.0948H56.47V27.417H58.0834Z" fill="#F8D2A0"/>
<path d="M56.4698 27.417V37.0949C56.4698 40.9338 54.5659 44.321 51.6295 46.3533C49.8063 47.6437 47.5798 48.3857 45.1758 48.3857C44.2077 48.3857 43.272 48.2728 38.7221 46.3533C38.1735 45.9824 37.6572 45.5469 37.1893 45.0791C35.1403 43.0306 33.8818 40.224 33.8818 37.0949V22.5781H56.4698V27.417Z" fill="#F8D2A0"/>
<path d="M33.8819 27.417V37.0948H32.2685C29.5902 37.0948 27.4282 34.9334 27.4282 32.2559C27.4282 30.9171 27.9768 29.7074 28.848 28.8364C29.7193 27.9654 30.9294 27.417 32.2685 27.417H33.8819Z" fill="#F8D2A0"/>
<path d="M12.9075 90.3223H9.68066V93.5482H12.9075V90.3223Z" fill="black"/>
<path d="M19.3611 90.3223H16.1343V93.5482H19.3611V90.3223Z" fill="black"/>
<path d="M25.815 90.3223H22.5881V93.5482H25.815V90.3223Z" fill="black"/>
<path d="M90.3517 90.3223H77.4443V93.5482H90.3517V90.3223Z" fill="black"/>
<path d="M96.8054 85.4841H93.5785V30.643C93.5785 27.9816 91.4004 25.8041 88.7383 25.8041H80.6711V22.5781H88.7383C93.1913 22.5781 96.8054 26.1912 96.8054 30.643V85.4841Z" fill="black"/>
<path d="M6.45365 85.4841H3.22681V30.643C3.22681 26.1912 6.84088 22.5781 11.2939 22.5781H19.361V25.8041H11.2939C8.63178 25.8041 6.45365 27.9816 6.45365 30.643V85.4841Z" fill="black"/>
<path d="M91.9652 100H8.06712C3.61407 100 0 96.387 0 91.9352V83.8704H37.7702L38.2381 84.3381C39.9968 86.0802 42.4169 87.0963 44.8854 87.0963H55.1146C57.5831 87.0963 60.0194 86.0963 61.7619 84.3381L62.2297 83.8704H83.8658V87.0963H63.5366C61.2294 89.1609 58.1962 90.3223 55.0984 90.3223H44.8693C41.7715 90.3223 38.7383 89.1609 36.4311 87.0963H3.19457V91.9352C3.19457 94.5966 5.37269 96.7742 8.03484 96.7742H91.9329C94.595 96.7742 96.7732 94.5966 96.7732 91.9352V87.0963H87.0926V32.2552H77.9445V29.0293H87.0926C88.8674 29.0293 90.3195 30.481 90.3195 32.2552V83.8704H100V91.9352C100 96.387 96.3859 100 91.9329 100H91.9652Z" fill="black"/>
<path d="M12.9075 85.4834H9.68066V32.2552C9.68066 30.481 11.1327 29.0293 12.9075 29.0293H27.4283V32.2552H12.9075V85.4834Z" fill="black"/>
<path d="M58.0833 38.7075H56.002V35.4815H58.0833C59.858 35.4815 61.3101 34.0299 61.3101 32.2556C61.3101 30.4813 59.858 29.0297 58.0833 29.0297H56.4699V25.8037H58.0833C61.649 25.8037 64.537 28.6909 64.537 32.2556C64.537 35.8203 61.649 38.7075 58.0833 38.7075Z" fill="black"/>
<path d="M34.35 38.7075H32.2686C28.703 38.7075 25.8149 35.8203 25.8149 32.2556C25.8149 28.6909 28.703 25.8037 32.2686 25.8037H33.8821V29.0297H32.2686C30.4939 29.0297 29.0418 30.4813 29.0418 32.2556C29.0418 34.0299 30.4939 35.4815 32.2686 35.4815H34.35V38.7075Z" fill="black"/>
<path d="M36.3827 65.8536L34.6079 63.176L42.6428 57.8048L37.5766 52.7562L39.8677 50.4658L47.7089 58.321L36.3827 65.8536Z" fill="black"/>
<path d="M53.9691 65.8536L42.6428 58.321L50.4841 50.4658L52.7751 52.7562L47.709 57.8048L55.7438 63.176L53.9691 65.8536Z" fill="black"/>
<path d="M45.1759 49.9987C38.0607 49.9987 32.2686 44.2081 32.2686 37.0949V22.5781H35.4954V37.0949C35.4954 42.4338 39.8355 46.7727 45.1759 46.7727C50.5164 46.7727 54.8565 42.4338 54.8565 37.0949V22.5781H58.0833V37.0949C58.0833 44.2081 52.2911 49.9987 45.1759 49.9987Z" fill="black"/>
<path d="M64.5369 22.5781H61.3101V32.256H64.5369V22.5781Z" fill="black"/>
<path d="M29.0418 22.5781H25.8149V32.256H29.0418V22.5781Z" fill="black"/>
<path d="M65.6823 17.2709L63.4074 14.9966L67.441 10.9642C67.6507 10.7545 67.7798 10.448 67.7798 10.1577C67.7798 9.64155 67.441 9.18991 66.9408 9.06087L47.9024 3.62516C46.1277 3.12513 44.24 3.12513 42.4491 3.62516L23.4106 9.06087C22.9266 9.20604 22.5717 9.65768 22.5717 10.1577C22.5717 10.4642 22.7007 10.7545 22.9105 10.9642L26.944 14.9966L24.6691 17.2709L20.6356 13.2385C19.8289 12.432 19.361 11.3029 19.361 10.1416C19.361 8.206 20.6678 6.46399 22.5394 5.93171L41.5617 0.495989C43.9173 -0.16533 46.4181 -0.16533 48.7737 0.495989L67.8121 5.93171C69.6836 6.46399 70.9905 8.18987 70.9905 10.1416C70.9905 11.2868 70.5226 12.4159 69.7159 13.2385L65.6823 17.2709Z" fill="black"/>
<path d="M64.5372 24.1905H25.815C24.0402 24.1905 22.5881 22.7389 22.5881 20.9646V17.7386C22.5881 15.9644 24.0402 14.5127 25.815 14.5127H64.5372C66.3119 14.5127 67.764 15.9644 67.764 17.7386V20.9646C67.764 22.7389 66.3119 24.1905 64.5372 24.1905ZM25.815 17.7386V20.9646H64.5372V17.7386H25.815Z" fill="black"/>
<path d="M77.4443 27.4162H74.2175V12.8995C74.2175 12.0123 73.4914 11.2865 72.6041 11.2865H58.0833V8.06055H72.6041C75.2662 8.06055 77.4443 10.2381 77.4443 12.8995V27.4162Z" fill="black"/>
<path d="M76.073 41.933H75.5729C73.0398 41.933 70.9746 39.8684 70.9746 37.336C70.9746 37.0779 70.9908 36.836 71.0392 36.5779L72.8301 25.7871H78.7997L80.5906 36.5779C80.639 36.8198 80.6552 37.0779 80.6552 37.336C80.6552 39.8684 78.59 41.933 76.0569 41.933H76.073ZM75.5729 29.0292L74.2176 37.1102C74.2176 37.1102 74.2015 37.2553 74.2015 37.336C74.2015 38.0941 74.8146 38.707 75.5729 38.707H76.073C76.8313 38.707 77.4445 38.0941 77.4445 37.336C77.4445 37.2553 77.4444 37.1908 77.4283 37.1102L76.073 29.0292H75.589H75.5729Z" fill="black"/>
<path d="M62.9236 54.4014H59.6968V75.8055H62.9236V54.4014Z" fill="black"/>
<path d="M56.47 52.5469H53.2432V75.8059H56.47V52.5469Z" fill="black"/>
<path d="M74.2175 77.4184H16.1343V64.934C16.1343 59.9338 19.4902 55.4658 24.2982 54.0787L37.1088 50.385V46.3525H40.3356V52.8206L25.1856 57.1917C21.749 58.1756 19.3611 61.3693 19.3611 64.934V74.1925H70.9907V64.934C70.9907 61.3693 68.5867 58.1756 65.1662 57.1917L50.0162 52.8206V46.3525H53.243V50.385L66.0536 54.0787C70.8616 55.4658 74.2175 59.9176 74.2175 64.934V77.4184Z" fill="black"/>
<path d="M30.6551 54.4014H27.4282V75.8055H30.6551V54.4014Z" fill="black"/>
<path d="M37.1087 52.5469H33.8818V75.8059H37.1087V52.5469Z" fill="black"/>
<path d="M43.5625 60.209H40.3357V75.8064H43.5625V60.209Z" fill="black"/>
<path d="M50.0162 60.209H46.7893V75.8064H50.0162V60.209Z" fill="black"/>
</svg>
