<svg width="700" height="400" viewBox="0 0 700 400" fill="none" xmlns="http://www.w3.org/2000/svg">
<mask id="mask0_580_15744" style="mask-type:alpha" maskUnits="userSpaceOnUse" x="0" y="0" width="700" height="400">
<rect width="700" height="400" transform="matrix(-1 0 0 1 700 0)" fill="white"/>
</mask>
<g mask="url(#mask0_580_15744)">
<path d="M59.534 157.215C60.5054 157.861 61.7423 157.79 62.6279 157.131L104.256 203.537C104.159 203.641 104.068 203.754 103.986 203.875C103.164 205.115 103.502 206.785 104.74 207.608C105.978 208.431 107.649 208.093 108.473 206.854C108.604 206.656 108.703 206.447 108.777 206.232L142.455 214.305C142.313 215.302 142.734 216.337 143.629 216.93C144.867 217.754 146.539 217.415 147.362 216.177C147.725 215.628 147.861 214.996 147.795 214.389L185.053 206.716C185.23 207.293 185.598 207.815 186.14 208.176C186.728 208.566 187.411 208.691 188.055 208.589L210.445 295.654C209.917 295.841 209.443 296.195 209.108 296.696C208.285 297.934 208.623 299.606 209.862 300.429C211.1 301.253 212.771 300.914 213.595 299.676C213.833 299.314 213.971 298.917 214.02 298.516L322.652 301.79C322.021 302.996 322.392 304.509 323.55 305.279C324.788 306.102 326.46 305.764 327.283 304.525C327.358 304.412 327.42 304.296 327.475 304.176L365.082 317.682C364.804 318.763 365.217 319.946 366.198 320.597C366.692 320.925 367.254 321.065 367.805 321.041L374.641 371.119L373.996 370.9L374.709 371.602L374.75 371.904L374.911 371.8L435.943 431.926C435.888 431.995 435.834 432.066 435.783 432.141C434.96 433.379 435.299 435.051 436.537 435.874C437.775 436.697 439.447 436.359 440.27 435.12C441.093 433.882 440.754 432.211 439.516 431.387C439.056 431.081 438.534 430.937 438.019 430.94L434.355 392.607C434.4 392.551 434.444 392.493 434.486 392.43C434.692 392.122 434.823 391.785 434.889 391.441L499.94 397.63C499.939 398.505 500.36 399.36 501.143 399.88C502.381 400.704 504.052 400.365 504.876 399.127C505.699 397.889 505.36 396.217 504.122 395.394C503.633 395.068 503.073 394.927 502.528 394.95L496.585 350.028C497.234 349.88 497.833 349.495 498.231 348.894C498.766 348.089 498.807 347.103 498.436 346.286L526.421 330.22C526.608 330.487 526.845 330.725 527.132 330.915C528.371 331.738 530.042 331.399 530.865 330.161C531.689 328.923 531.35 327.252 530.112 326.428C529.359 325.93 528.449 325.86 527.664 326.157L511.905 294.038C512.231 293.841 512.52 293.572 512.746 293.232C513.484 292.12 513.286 290.662 512.342 289.778L536.031 261.854C537.268 262.654 538.92 262.313 539.737 261.083C540.56 259.845 540.221 258.173 538.983 257.35C538.767 257.207 538.538 257.1 538.301 257.026L543.35 230.042C544.304 230.13 545.275 229.705 545.841 228.85C545.989 228.628 546.097 228.391 546.17 228.149L587.03 236.65C586.922 237.621 587.344 238.618 588.215 239.195C589.453 240.018 591.124 239.679 591.948 238.441C592.771 237.203 592.432 235.532 591.194 234.708C591.103 234.648 591.01 234.597 590.915 234.548L613.413 177.251C614.513 177.57 615.739 177.157 616.405 176.154C617.228 174.916 616.889 173.244 615.651 172.421C614.413 171.598 612.742 171.936 611.918 173.175C611.683 173.528 611.546 173.918 611.495 174.312L521.468 170.789C521.384 170.023 520.974 169.299 520.282 168.84C519.044 168.016 517.373 168.355 516.549 169.593C515.726 170.832 516.065 172.503 517.303 173.326C517.426 173.407 517.555 173.474 517.686 173.535L509.03 204.019C507.983 203.799 506.858 204.216 506.231 205.162C506.027 205.469 505.895 205.804 505.829 206.145L431.061 201.203C431.038 200.357 430.618 199.535 429.861 199.03C428.622 198.207 426.951 198.546 426.127 199.784C425.304 201.022 425.643 202.693 426.881 203.517C427.165 203.706 427.474 203.83 427.786 203.9L423.433 238.284C422.532 238.253 421.635 238.675 421.1 239.484L421.222 239.268L344.465 195.976C344.995 194.795 344.612 193.373 343.5 192.634C342.926 192.253 342.26 192.125 341.628 192.215L333.059 156.379C333.604 156.194 334.095 155.838 334.437 155.32C335.259 154.08 334.921 152.411 333.683 151.587C332.445 150.764 330.773 151.103 329.95 152.341C329.629 152.823 329.486 153.373 329.505 153.912L274.273 160.715C274.129 160.054 273.742 159.449 273.134 159.045C271.896 158.222 270.225 158.561 269.401 159.799C269.059 160.315 268.919 160.905 268.963 161.478L235.339 167.005C235.178 166.386 234.799 165.823 234.226 165.441C232.988 164.618 231.316 164.957 230.493 166.195C230.405 166.326 230.335 166.463 230.273 166.601L170.643 147.976C170.842 146.941 170.419 145.844 169.488 145.225C168.786 144.76 167.946 144.666 167.199 144.898L150.036 105.608C150.421 105.405 150.763 105.104 151.023 104.716C151.846 103.478 151.507 101.807 150.269 100.983C149.029 100.161 147.36 100.499 146.536 101.737C146.531 101.747 146.526 101.757 146.519 101.764L115.967 89.3537L99.8174 82.7935C100.03 81.7493 99.6128 80.6334 98.6702 80.0067C97.4321 79.1833 95.7606 79.5222 94.9372 80.7603C94.2979 81.7239 94.361 82.9452 95.0012 83.8291L69.1356 112.207C69.1055 112.185 69.0759 112.161 69.0423 112.138C67.8042 111.315 66.1327 111.654 65.3093 112.892C64.4859 114.13 64.8248 115.802 66.0629 116.625C66.357 116.82 66.6752 116.949 67.0008 117.015L61.2116 152.287C60.2771 152.222 59.3351 152.645 58.7804 153.482C57.957 154.721 58.296 156.392 59.534 157.215ZM97.1735 84.9422C98.048 84.9429 98.9038 84.5226 99.4238 83.7397C99.5238 83.5878 99.605 83.4307 99.6724 83.2713L117.984 90.7089L146.288 102.205C146.188 102.448 146.127 102.7 146.102 102.955L96.0544 109.924L97.1749 84.9442L97.1735 84.9422ZM272.825 163.708L286.037 185.456L256.474 205.905C256.312 205.712 256.121 205.535 255.901 205.389C255.797 205.319 255.688 205.263 255.577 205.209L270.945 163.889C271.577 164.06 272.246 163.992 272.825 163.708ZM330.134 155.559C330.296 155.752 330.486 155.929 330.707 156.075C330.837 156.16 330.967 156.229 331.103 156.289L309.565 220.058C308.957 219.914 308.319 219.987 307.765 220.257L286.705 185.595L330.132 155.557L330.134 155.559ZM491.401 350.238L483.911 319.337L494.722 345.03C494.341 345.233 494.005 345.532 493.746 345.916C493.17 346.784 493.166 347.861 493.637 348.712L491.401 350.238ZM500.39 396.149C500.186 396.46 500.053 396.795 499.987 397.139L434.937 390.946C434.937 390.488 434.821 390.035 434.597 389.633L491.085 351.057L501.759 395.097C501.218 395.282 500.73 395.638 500.388 396.151L500.39 396.149ZM213.579 296.667C213.406 296.415 213.188 296.191 212.929 296.003L235.488 257.677C236.676 258.238 238.128 257.859 238.877 256.73L262.59 269.472L213.579 296.667ZM69.0572 116.619C69.104 116.587 69.1529 116.552 69.1969 116.516L92.2316 147.649C92.0641 147.799 91.9128 147.969 91.7821 148.164C91.44 148.676 91.3024 149.264 91.341 149.835L83.5994 151.083L69.0572 116.619ZM136.704 191.784L145.038 199.942C144.983 200.007 144.932 200.077 144.883 200.15C144.579 200.609 144.435 201.126 144.434 201.636L135.801 202.422L96.5805 152.503L136.704 191.784ZM145.384 199.587L116.243 171.058L96.1142 151.352C96.1685 151.286 96.2201 151.217 96.2687 151.143C96.5407 150.734 96.6834 150.279 96.7108 149.82L147.655 148.283L146.917 198.954C146.359 198.999 145.821 199.214 145.385 199.584L145.384 199.587ZM91.4205 150.326C91.5802 150.948 91.9587 151.515 92.5357 151.897C93.0931 152.268 93.7389 152.402 94.3558 152.325L105.412 202.782L83.7984 151.554L91.4225 150.324L91.4205 150.326ZM107.72 203.123C107.163 202.752 106.517 202.619 105.9 202.695L94.8403 152.219C95.0655 152.147 95.2832 152.046 95.4843 151.917L135.208 202.476L108.875 204.876C108.745 204.184 108.351 203.543 107.718 203.125L107.72 203.123ZM108.924 205.37L135.576 202.941L143.27 212.733C143.126 212.87 142.992 213.025 142.877 213.196C142.746 213.394 142.647 213.603 142.573 213.819L108.895 205.745C108.913 205.62 108.925 205.494 108.924 205.367L108.924 205.37ZM145.282 212.001C144.713 211.968 144.143 212.112 143.661 212.425L136.167 202.888L144.479 202.13C144.608 202.822 145.002 203.463 145.635 203.881C145.897 204.056 146.181 204.176 146.472 204.248L145.282 212.001ZM149.708 200.878L181.44 188.233L186.544 203.471C186.09 203.671 185.684 203.998 185.386 204.443C185.187 204.744 185.057 205.071 184.99 205.403L149.817 201.675C149.82 201.406 149.784 201.137 149.708 200.878ZM230.739 169.485C230.887 169.648 231.057 169.8 231.25 169.928C231.629 170.179 232.044 170.322 232.465 170.364L234.152 206.868L190.317 205.752C190.284 205.262 190.119 204.789 189.834 204.382L230.741 169.484L230.739 169.485ZM424.379 243.461L436.647 269.359C436.285 269.561 435.961 269.849 435.717 270.22C435.598 270.401 435.506 270.59 435.434 270.786L425.175 269.262L423.91 243.606C424.072 243.572 424.228 243.523 424.382 243.461L424.379 243.461ZM541.172 226.208C540.801 226.986 540.835 227.879 541.219 228.615L526.212 238.382L510.07 208.816C510.317 208.635 510.538 208.41 510.718 208.142L541.17 226.209L541.172 226.208ZM509.647 209.074L525.796 238.655L479.105 269.042C478.932 268.826 478.726 268.631 478.483 268.47C478.456 268.453 478.426 268.437 478.399 268.42L507.557 209.18C508.249 209.43 509.001 209.383 509.645 209.075L509.647 209.074ZM238.127 252.998C238.023 252.928 237.917 252.872 237.807 252.818L253.709 210.229C254.448 210.431 255.239 210.304 255.878 209.89L276.698 236.305L238.961 253.886C238.759 253.541 238.481 253.235 238.127 252.998ZM256.268 209.581C256.412 209.444 256.542 209.292 256.659 209.12C256.777 208.942 256.867 208.755 256.939 208.562L306.401 221.816C306.323 222.05 306.277 222.288 306.265 222.527L277.164 236.085L256.27 209.579L256.268 209.581ZM306.288 223.066C306.34 223.409 306.454 223.742 306.632 224.043L293.263 249.126L291.969 251.556C291.155 251.212 290.237 251.297 289.504 251.749L277.474 236.49L306.284 223.069L306.288 223.066ZM292.414 251.793C292.414 251.793 292.413 251.791 292.411 251.789L293.7 249.369L306.962 224.485C307.107 224.644 307.274 224.791 307.463 224.917C307.774 225.124 308.113 225.257 308.457 225.323L313.257 248.154L293.453 253.108C293.263 252.589 292.913 252.12 292.416 251.792L292.414 251.793ZM239.17 254.337L277.015 236.705L289.11 252.049C288.95 252.194 288.805 252.36 288.681 252.547C288.423 252.937 288.279 253.368 288.242 253.804L239.311 254.933C239.288 254.731 239.24 254.531 239.17 254.337ZM323.722 300.692L292.697 256.059C292.872 255.906 293.032 255.727 293.168 255.526C293.562 254.932 293.687 254.24 293.577 253.589L313.357 248.643L324.253 300.462C324.068 300.519 323.892 300.597 323.723 300.694L323.722 300.692ZM313.839 248.521L336.853 242.763C337.05 243.241 337.386 243.664 337.85 243.971C338.031 244.09 338.221 244.185 338.416 244.255L330.518 278.326L325.409 300.366C325.184 300.336 324.96 300.332 324.739 300.359L313.839 248.521ZM431.388 388.388L421.612 365.681L415.571 351.645C415.945 351.441 416.275 351.149 416.527 350.769C417.023 350.025 417.094 349.125 416.806 348.346L428.825 342.589L431.781 388.285C431.646 388.31 431.515 388.344 431.386 388.385L431.388 388.388ZM403.512 268.563L425.256 305.619C425 305.804 424.767 306.034 424.584 306.314C424.265 306.795 424.122 307.341 424.138 307.88L408.999 310.62L403 268.742C403.177 268.7 403.35 268.639 403.515 268.563L403.512 268.563ZM424.196 308.373C424.34 309.034 424.727 309.643 425.337 310.047C425.491 310.149 425.649 310.233 425.814 310.299L414.824 346.642C414.602 346.597 414.376 346.582 414.153 346.593L409.07 311.111L424.198 308.372L424.196 308.373ZM416.593 347.898C416.393 347.565 416.12 347.267 415.774 347.036C415.622 346.936 415.462 346.851 415.3 346.785L419.231 333.806L426.306 310.446C426.454 310.476 426.603 310.49 426.752 310.495L428.793 342.056L416.592 347.901L416.593 347.898ZM427.247 310.461C427.965 310.346 428.636 309.947 429.07 309.294C429.246 309.028 429.365 308.744 429.438 308.454L480.258 316.226C480.237 316.599 480.293 316.969 480.422 317.318L429.277 341.82L427.249 310.459L427.247 310.461ZM480.699 314.897C480.524 315.162 480.404 315.447 480.331 315.737L429.512 307.965C429.545 307.423 429.41 306.88 429.128 306.412L454.021 288.008L480.865 314.675C480.806 314.746 480.752 314.821 480.7 314.899L480.699 314.897ZM428.833 306.012C428.682 305.845 428.511 305.691 428.317 305.561C428.258 305.52 428.196 305.488 428.136 305.454L437.293 274.312C438.128 274.525 439.023 274.326 439.689 273.772L453.664 287.655L428.833 306.012ZM436.473 273.951C436.586 274.027 436.706 274.089 436.824 274.146L427.676 305.253C427.435 305.173 427.19 305.13 426.942 305.118L425.198 269.768L435.304 271.268C435.136 272.281 435.558 273.348 436.469 273.951L436.473 273.951ZM426.446 305.143C426.231 305.173 426.017 305.228 425.814 305.31L403.948 268.306C404.202 268.122 404.43 267.893 404.614 267.615C404.792 267.348 404.912 267.06 404.984 266.764L424.698 269.691L426.445 305.141L426.446 305.143ZM341.581 243.219C341.603 243.185 341.621 243.151 341.642 243.115L376.053 256.305L399.775 265.398C399.621 265.949 399.651 266.529 399.844 267.055L356.546 287.722L340.337 244.229C340.828 244.034 341.267 243.693 341.581 243.219ZM401.094 268.499C401.539 268.739 402.024 268.839 402.502 268.815L408.505 310.711L370.287 317.631C370.141 317.105 369.835 316.621 369.385 316.256L401.094 268.499ZM370.378 318.12L408.577 311.204L413.658 346.666C413.093 346.801 412.572 347.114 412.188 347.592L370.067 319.627C370.324 319.153 370.424 318.628 370.378 318.12ZM412.794 351.526C413.506 351.998 414.36 352.086 415.115 351.843L419.519 362.075L430.931 388.589C430.836 388.644 430.741 388.704 430.651 388.77L400.836 355.244L411.801 348.24C411.309 349.41 411.698 350.797 412.794 351.526ZM433.5 388.553C433.112 388.349 432.694 388.25 432.277 388.244L429.309 342.356L480.634 317.768C480.788 318.027 480.986 318.262 481.227 318.463L433.5 388.553ZM481.214 314.324L454.422 287.71L474.987 272.505C475.138 272.673 475.309 272.826 475.504 272.957C475.992 273.282 476.549 273.423 477.092 273.401L482.348 313.763C481.937 313.857 481.547 314.045 481.214 314.324ZM474.692 272.105L454.066 287.354L440.04 273.42C440.099 273.349 440.153 273.274 440.204 273.196C440.474 272.792 440.616 272.34 440.646 271.885L474.322 271.026C474.365 271.405 474.492 271.772 474.692 272.102L474.692 272.105ZM423.413 243.663L424.672 269.186L405.056 266.274C405.096 265.529 404.829 264.788 404.29 264.239L421.997 243.301C422.441 243.558 422.931 243.676 423.411 243.665L423.413 243.663ZM421.591 243.012L403.909 263.921C403.892 263.909 403.876 263.895 403.859 263.883C402.621 263.06 400.949 263.399 400.126 264.637C400.062 264.733 400.005 264.833 399.955 264.935L346.893 244.594L341.859 242.666C341.923 242.494 341.968 242.316 341.996 242.139L420.686 241.376C420.781 241.998 421.088 242.584 421.591 243.015L421.591 243.012ZM336.705 242.288L313.736 248.031L308.969 225.365C309.791 225.357 310.593 224.971 311.113 224.267L336.849 240.699C336.637 241.212 336.595 241.763 336.705 242.284L336.705 242.288ZM252.922 209.873C253.026 209.943 253.132 209.999 253.242 210.052L237.34 252.642C237.149 252.59 236.954 252.559 236.761 252.552L234.674 207.376L251.729 207.809C251.785 208.617 252.199 209.39 252.926 209.873L252.922 209.873ZM189.875 207.418C190.118 207.054 190.255 206.651 190.303 206.244L234.174 207.359L236.263 252.573C235.776 252.641 235.309 252.84 234.921 253.161L189.698 207.654C189.761 207.58 189.821 207.501 189.875 207.418ZM239.113 256.288C239.231 256.009 239.3 255.718 239.319 255.425L288.24 254.297C288.268 254.578 288.342 254.854 288.456 255.117L263.106 269.183L239.111 256.29L239.113 256.288ZM288.699 255.55C288.889 255.83 289.135 256.077 289.433 256.278C290.323 256.868 291.433 256.859 292.294 256.35L323.313 300.975C323.183 301.084 323.062 301.206 322.952 301.343L263.629 269.466L288.7 255.556L288.699 255.55ZM326.536 300.788C326.331 300.652 326.115 300.552 325.894 300.479L338.897 244.382C339.219 244.435 339.547 244.431 339.861 244.368L356.098 287.936L327.358 301.654C327.158 301.317 326.884 301.021 326.536 300.788ZM356.721 288.189L400.057 267.504C400.217 267.771 400.422 268.016 400.679 268.222L368.97 315.979C368.346 315.643 367.64 315.579 366.991 315.754L356.719 288.19L356.721 288.189ZM369.791 320.039L411.583 347.786L400.5 354.863L369.66 320.185C369.706 320.138 369.748 320.09 369.791 320.039ZM430.281 389.099C430.18 389.206 430.086 389.32 430.002 389.446C429.917 389.572 429.849 389.705 429.788 389.839L375.519 371.411L400.411 355.511L430.279 389.097L430.281 389.099ZM434.32 389.217C434.226 389.104 434.12 388.996 434.006 388.897L433.989 388.718L481.639 318.74C482.17 319.035 482.764 319.129 483.332 319.047L490.965 350.534L434.324 389.218L434.32 389.217ZM526.178 329.786L498.193 345.853C498.006 345.586 497.769 345.348 497.482 345.158C497.298 345.035 497.104 344.943 496.904 344.87L502.834 321.991L525.971 328.211C525.878 328.746 525.953 329.295 526.177 329.784L526.178 329.786ZM496.423 344.746C496.005 344.678 495.578 344.71 495.181 344.836L484.21 318.763C484.59 318.56 484.927 318.261 485.186 317.876C485.304 317.699 485.395 317.512 485.465 317.322L502.355 321.862L496.423 344.746ZM485.594 316.844C485.719 316.119 485.542 315.372 485.1 314.781L508.592 293.636C508.718 293.764 508.861 293.882 509.016 293.986C509.176 294.093 509.345 294.178 509.516 294.245L502.482 321.385L485.596 316.846L485.594 316.844ZM508.276 293.25L487.951 311.546L508.02 290.705C507.668 291.549 507.775 292.509 508.276 293.25ZM484.623 314.286C484.562 314.238 484.499 314.191 484.434 314.145C483.945 313.82 483.388 313.679 482.845 313.701L477.589 273.339C478.241 273.192 478.841 272.805 479.24 272.204C479.592 271.675 479.73 271.066 479.676 270.478L534.932 260.411C535.051 260.783 535.253 261.133 535.527 261.429L484.622 314.289L484.623 314.286ZM479.586 269.989C479.534 269.807 479.467 269.629 479.378 269.458L526.035 239.092L536.005 257.353C535.716 257.547 535.459 257.796 535.255 258.106C534.883 258.664 534.752 259.308 534.827 259.923L479.588 269.988L479.586 269.989ZM536.443 257.12L526.453 238.823L541.495 229.035C541.667 229.251 541.874 229.446 542.117 229.607C542.355 229.765 542.608 229.879 542.87 229.953L537.821 256.925C537.351 256.869 536.876 256.937 536.444 257.122L536.443 257.12ZM545.095 225.118C543.887 224.316 542.272 224.618 541.429 225.782L511.101 207.788L586.592 236.049L546.283 227.664C546.391 226.692 545.969 225.695 545.098 225.118L545.095 225.118ZM587.47 235.465C587.402 235.567 587.343 235.675 587.292 235.784L511.102 207.26C511.193 206.865 511.193 206.458 511.106 206.07L545.08 195.804L587.583 235.316C587.546 235.366 587.507 235.415 587.471 235.467L587.47 235.465ZM506.988 208.896C507.028 208.923 507.071 208.944 507.111 208.968L477.956 268.199C477.196 267.906 476.352 267.984 475.662 268.376L462.428 249.477L506.679 208.654C506.776 208.741 506.876 208.823 506.988 208.896ZM475.254 268.661C475.066 268.821 474.895 269.007 474.751 269.226C474.482 269.63 474.34 270.082 474.31 270.537L440.634 271.396C440.579 270.922 440.395 270.465 440.101 270.079L462.059 249.821L475.254 268.665L475.254 268.661ZM439.761 269.71C439.663 269.623 439.562 269.54 439.45 269.466C438.957 269.138 438.394 268.998 437.846 269.021L428.979 203.896C429.233 203.837 429.476 203.742 429.706 203.612L461.77 249.404L439.759 269.708L439.761 269.71ZM428.487 203.964L437.352 269.087C437.268 269.107 437.184 269.129 437.102 269.159L424.818 243.229C425.116 243.035 425.379 242.778 425.588 242.465C426.41 241.225 426.072 239.556 424.834 238.732C424.55 238.543 424.241 238.419 423.929 238.35L428.283 203.967C428.352 203.971 428.42 203.969 428.489 203.966L428.487 203.964ZM420.657 240.88L342.026 241.644C341.999 240.804 341.579 239.988 340.825 239.487C340.486 239.263 340.114 239.126 339.735 239.07L342.105 197.568C342.926 197.54 343.72 197.135 344.221 196.411L420.972 239.701C420.77 240.076 420.667 240.479 420.655 240.882L420.657 240.88ZM340.524 197.121C340.863 197.345 341.235 197.482 341.612 197.54L339.294 238.128L336.204 200.088L340.121 196.797C340.241 196.916 340.376 197.028 340.523 197.125L340.524 197.121ZM338.871 239.08C338.169 239.204 337.518 239.6 337.092 240.241C337.088 240.247 337.084 240.255 337.078 240.263L311.368 223.846C311.797 222.96 311.699 221.927 311.155 221.142L335.736 200.477L338.87 239.078L338.871 239.08ZM310.837 220.761C310.717 220.642 310.581 220.53 310.434 220.433C310.306 220.35 310.174 220.278 310.039 220.219L331.576 156.449C331.772 156.494 331.969 156.52 332.168 156.523L335.688 199.871L310.837 220.761ZM307.343 220.516C307.098 220.696 306.881 220.918 306.701 221.187C306.665 221.243 306.633 221.301 306.6 221.358L257.064 208.086C257.168 207.476 257.057 206.85 256.757 206.313L286.298 185.88L307.343 220.516ZM252.91 205.396C252.625 205.586 252.37 205.838 252.168 206.143C251.925 206.507 251.788 206.91 251.74 207.317L234.651 206.883L232.963 170.368C233.224 170.346 233.479 170.286 233.722 170.191L252.909 205.399L252.91 205.396ZM230.44 169.084L189.508 204.003C189.391 203.888 189.262 203.781 189.121 203.688C188.475 203.26 187.715 203.149 187.017 203.314L181.903 188.049L230.276 168.771C230.325 168.88 230.379 168.984 230.442 169.086L230.44 169.084ZM181.281 187.759L149.524 200.415C149.319 200.015 149.016 199.66 148.615 199.395C148.519 199.331 148.421 199.278 148.321 199.227L163.464 159.952L167.277 150.059C167.733 150.186 168.21 150.186 168.656 150.074L181.28 187.757L181.281 187.759ZM166.509 149.712C166.606 149.777 166.709 149.832 166.814 149.883L147.859 199.047C147.711 199.005 147.564 198.977 147.413 198.961L148.152 148.269L165.321 147.751C165.403 148.522 165.813 149.252 166.509 149.712ZM147.662 147.786L96.6947 149.325C96.6398 148.887 96.4785 148.465 96.2184 148.098L146.632 104.847C146.81 105.084 147.028 105.295 147.288 105.468C147.595 105.672 147.931 105.804 148.271 105.87L147.659 147.785L147.662 147.786ZM146.099 103.457C146.129 103.791 146.22 104.119 146.37 104.421L95.8974 147.722C95.7817 147.609 95.6538 147.504 95.5145 147.414C95.1644 147.182 94.7833 147.046 94.3931 146.991L96.0329 110.431L146.1 103.459L146.099 103.457ZM93.896 146.966C93.4496 146.987 93.016 147.118 92.6304 147.351L69.5622 116.175C69.6469 116.079 69.7267 115.981 69.7994 115.872C70.1761 115.305 70.308 114.648 70.2219 114.023L95.5303 110.498L93.896 146.966ZM68.6157 116.856L83.0909 151.163L63.6286 154.3C63.4689 153.677 63.0904 153.111 62.5134 152.729C62.2578 152.559 61.9841 152.441 61.7024 152.368L67.4959 117.072C67.8802 117.079 68.2606 117.007 68.6157 116.856ZM62.9969 156.8C63.0938 156.695 63.185 156.583 63.267 156.462C63.6091 155.949 63.7467 155.361 63.7081 154.79L83.2899 151.634L104.958 202.991C104.843 203.053 104.73 203.126 104.625 203.206L62.9969 156.8ZM147.696 213.901C147.519 213.323 147.15 212.802 146.609 212.44C146.347 212.265 146.063 212.146 145.772 212.073L146.963 204.321C147.888 204.377 148.818 203.953 149.367 203.126C149.566 202.825 149.695 202.498 149.763 202.165L184.936 205.894C184.934 206.004 184.939 206.115 184.95 206.226L147.692 213.9L147.696 213.901ZM188.536 208.461C188.826 208.359 189.099 208.207 189.343 208.006L234.566 253.513C234.503 253.587 234.443 253.666 234.389 253.749C233.585 254.958 233.891 256.58 235.06 257.421L212.501 295.747C211.998 295.51 211.452 295.441 210.928 295.525L188.538 208.46L188.536 208.461ZM214.039 298.014C214.02 297.7 213.944 297.388 213.817 297.098L263.108 269.749L321.751 301.262L214.037 298.015L214.039 298.014ZM327.648 303.703C327.787 303.168 327.753 302.609 327.568 302.102L356.268 288.403L366.524 315.926C366.102 316.131 365.726 316.443 365.448 316.861C365.373 316.975 365.312 317.091 365.256 317.211L327.649 303.705L327.648 303.703ZM368.301 320.97C368.653 320.887 368.989 320.734 369.286 320.517L400.072 355.136L375.138 371.062L368.299 320.971L368.301 320.97ZM437.524 430.983C437.077 431.068 436.65 431.267 436.293 431.569L375.895 372.065L429.628 390.308C429.374 391.376 429.789 392.536 430.755 393.179C431.748 393.838 433.012 393.75 433.902 393.057L437.528 430.983L437.524 430.983ZM501.773 393.036L491.524 350.753L493.914 349.122C494.078 349.32 494.273 349.499 494.498 349.647C494.987 349.973 495.547 350.114 496.094 350.093L501.774 393.038L501.773 393.036ZM527.218 326.373C526.892 326.571 526.601 326.841 526.377 327.18C526.259 327.357 526.171 327.543 526.098 327.734L502.956 321.511L509.988 294.382C510.484 294.479 510.992 294.429 511.459 294.254L527.218 326.373ZM511.949 289.471C511.148 288.961 510.176 288.925 509.369 289.299L532.261 265.528L511.951 289.47L511.949 289.471ZM590.455 234.364C589.569 234.108 588.606 234.327 587.913 234.945L545.623 195.633L611.664 175.677C611.861 176.161 612.201 176.594 612.668 176.907C612.759 176.968 612.854 177.02 612.947 177.067L590.453 234.365L590.455 234.364ZM611.475 174.808C611.482 174.94 611.496 175.072 611.523 175.202L545.205 195.24L520.948 172.689C520.978 172.65 521.008 172.611 521.036 172.569C521.301 172.172 521.443 171.729 521.477 171.283L611.475 174.808ZM518.153 173.696C519.021 173.908 519.947 173.675 520.613 173.06L544.651 195.407L510.946 205.59C510.747 205.123 510.415 204.706 509.961 204.405C509.814 204.307 509.661 204.227 509.503 204.161L518.153 173.696ZM505.78 206.637C505.778 207.228 505.97 207.81 506.336 208.285L462.134 249.061L430.108 203.324C430.297 203.164 430.467 202.978 430.611 202.759C430.831 202.427 430.966 202.065 431.026 201.695L505.779 206.635L505.78 206.637ZM339.766 193.386C339.138 194.332 339.188 195.529 339.798 196.41L336.152 199.476L332.705 157.03L341.144 192.329C340.599 192.514 340.108 192.87 339.765 193.389L339.766 193.386ZM329.567 154.403C329.624 154.663 329.719 154.915 329.851 155.147L286.447 185.169L273.249 163.448C273.493 163.267 273.713 163.044 273.89 162.777C274.211 162.295 274.354 161.745 274.335 161.206L329.567 154.403ZM269.042 161.969C269.202 162.588 269.582 163.151 270.155 163.532C270.259 163.602 270.368 163.659 270.478 163.712L255.111 205.032C254.519 204.873 253.898 204.922 253.345 205.158L234.164 169.964C234.479 169.768 234.761 169.503 234.978 169.172C235.321 168.656 235.46 168.067 235.417 167.493L269.041 161.967L269.042 161.969ZM230.115 167.072C230.02 167.479 230.023 167.899 230.117 168.297L181.744 187.575L169.128 149.911C169.566 149.71 169.958 149.39 170.244 148.956C170.351 148.793 170.437 148.627 170.506 148.451L230.119 167.07L230.115 167.072ZM166.739 145.086C166.353 145.29 166.011 145.59 165.752 145.978C165.489 146.374 165.346 146.811 165.312 147.253L148.158 147.77L148.77 105.915C149.043 105.915 149.316 105.875 149.574 105.794L166.739 145.086ZM95.3311 84.205C95.4411 84.3101 95.5599 84.406 95.6908 84.4933C95.999 84.6994 96.3344 84.8317 96.678 84.8976L95.5532 109.993L70.1094 113.537C69.9886 113.169 69.787 112.825 69.5114 112.535L95.3326 84.2071L95.3311 84.205Z" fill="#B06D6D"/>
<path d="M601.726 38.6445H364.037C358.915 38.6445 354.763 42.4917 354.763 47.2374V209.548C354.763 214.294 358.915 218.141 364.037 218.141H601.726C606.848 218.141 611 214.294 611 209.548V47.2374C611 42.4917 606.848 38.6445 601.726 38.6445Z" fill="#DF8711"/>
<path d="M592.073 51.6504H373.689C368.983 51.6504 365.168 54.9679 365.168 59.0602V199.023C365.168 203.116 368.983 206.433 373.689 206.433H592.073C596.779 206.433 600.594 203.116 600.594 199.023V59.0602C600.594 54.9679 596.779 51.6504 592.073 51.6504Z" fill="#FBE4C6"/>
<ellipse cx="483.932" cy="135.229" rx="47.9864" ry="73.1243" transform="rotate(-67.0739 483.932 135.229)" fill="#BF8888"/>
<path d="M501.356 79.0937L501.24 109.761L471.487 109.242L471.603 78.5742L501.356 79.0937Z" fill="#D4A99A"/>
<path d="M471.601 78.5742L471.486 109.242L466.899 111.703L467.015 81.0349L471.601 78.5742Z" fill="#91766D"/>
<path d="M496.653 112.223L466.899 111.703L471.486 109.242L501.239 109.762L496.653 112.223Z" fill="#6A554D"/>
<path d="M504.489 190.56L501.284 187.877L502.777 187.883L505.982 190.566L504.489 190.56Z" fill="#00302D"/>
<path d="M490.004 196.458L486.799 193.775L486.789 192.143L489.995 194.826L490.004 196.458Z" fill="#002926"/>
<path d="M488.504 194.818L485.298 192.135L485.273 187.811L488.479 190.494L488.504 194.818Z" fill="#002926"/>
<path d="M488.479 190.494L485.273 187.811L486.766 187.817L489.971 190.499L488.479 190.494Z" fill="#00302D"/>
<path d="M489.971 190.499L486.766 187.817L486.627 166.434L489.832 169.117L489.971 190.499Z" fill="#002926"/>
<path d="M489.832 169.118L486.627 166.435L501.156 165.623L504.361 168.306L489.832 169.118Z" fill="#00302D"/>
<path d="M504.361 168.307L504.489 190.561L505.982 190.567L506.007 194.892L504.514 194.885L504.523 196.518L490.006 196.459L489.997 194.827L488.504 194.82L488.479 190.496L489.972 190.502L489.833 169.119L504.361 168.307Z" fill="#004742"/>
<path d="M489.85 169.765L486.637 168.154L485.215 150.1L488.428 151.711L489.85 169.765Z" fill="#002926"/>
<path d="M488.428 151.713L485.215 150.102L498.888 149.021L502.101 150.633L488.428 151.713Z" fill="#002E2B"/>
<path d="M502.102 150.633L504.404 168.619L489.85 169.768L488.429 151.713L502.102 150.633Z" fill="#004743"/>
<path d="M506.068 190.64L504.5 189.252L504.594 190.63L506.068 190.64Z" fill="#DDDBDB"/>
<path d="M490.045 194.793L486.742 193.338L486.75 193.767L490.017 196.53L490.045 194.793Z" fill="#706F6F"/>
<path d="M488.542 190.532L485.216 187.76L485.196 192.091L488.483 194.922L488.542 190.532Z" fill="#898888"/>
<path d="M490.016 190.542L486.74 187.76H485.217L488.542 190.532L490.016 190.542Z" fill="#A3A2A2"/>
<path d="M504.548 194.919L504.578 196.547L490.015 196.532L490.044 194.855L504.548 194.919Z" fill="#B5B5B5"/>
<path d="M506.096 190.639L506.067 194.98L488.492 194.892L488.531 190.531L506.096 190.639Z" fill="#DDDBDB"/>
<path d="M513.137 132.911L518.452 129.693L521.714 148.779L516.398 151.997L513.137 132.911Z" fill="#00443F"/>
<path d="M503.233 111.12L508.549 107.902L518.451 129.691L513.136 132.909L503.233 111.12Z" fill="#004742"/>
<path d="M492.14 115.697L497.455 112.48L508.549 107.902L503.233 111.12L492.14 115.697Z" fill="#002926"/>
<path d="M503.233 111.121L513.135 132.91L516.396 151.996L504.422 153.701L501.48 136.251L492.14 115.698L503.233 111.121Z" fill="#003835"/>
<path d="M503.306 153.534L504.441 152.613L504.552 153.39L503.306 153.534Z" fill="#033D37"/>
<path d="M517.146 154.808L521.825 151.834L522.176 154.409L518.051 160.222L517.146 154.808Z" fill="#AA8277"/>
<path d="M517.831 151.702L522.65 147.816L523.008 151.12L518.387 154.936L517.831 151.702Z" fill="#01332D"/>
<path d="M517.174 154.793L518.057 160.228L505.767 161.522L504.923 156.121L517.174 154.793Z" fill="#D4A99A"/>
<path d="M516.651 151.859L521.379 148.028L522.623 147.873L517.9 151.703L516.651 151.859Z" fill="#033D37"/>
<path d="M516.645 151.851L517.868 151.699L518.385 154.937L503.762 156.814L503.306 153.537L504.53 153.396L516.645 151.851Z" fill="#00514C"/>
<path d="M507.213 108.588L497.701 112.605L498.598 112.843L505.066 110.106L507.213 108.588Z" fill="#9E9E9E"/>
<path d="M507.211 108.588L516.274 127.894L514.079 129.322L505.064 110.106L507.211 108.588Z" fill="#DDDBDB"/>
<path d="M461.223 190.636L466.538 187.418L467.861 187.464L462.545 190.681L461.223 190.636Z" fill="#002E2A"/>
<path d="M475.347 195.177L480.663 191.959L480.639 193.487L475.323 196.705L475.347 195.177Z" fill="#00332E"/>
<path d="M475.406 191.124L480.722 187.906L482.045 187.952L476.729 191.169L475.406 191.124Z" fill="#002E2A"/>
<path d="M476.731 191.171L482.047 187.953L481.984 192.002L476.668 195.22L476.731 191.171Z" fill="#00332E"/>
<path d="M475.729 170.288L481.045 167.07L480.722 187.906L475.406 191.124L475.729 170.288Z" fill="#00332E"/>
<path d="M462.865 169.846L468.181 166.629L481.044 167.071L475.728 170.289L462.865 169.846Z" fill="#002E2A"/>
<path d="M462.867 169.848L475.73 170.29L475.407 191.126L476.73 191.171L476.668 195.22L475.345 195.175L475.321 196.703L462.458 196.261L462.482 194.732L461.159 194.687L461.222 190.638L462.544 190.684L462.867 169.848Z" fill="#003D37"/>
<path d="M461.107 190.571L462.52 189.793L462.585 190.628L461.107 190.571Z" fill="#BAB9B9"/>
<path d="M475.21 195.123L480.851 192.461L480.777 193.616L475.225 196.767L475.21 195.123Z" fill="#706F6F"/>
<path d="M476.55 191.07L482.212 187.951L482.105 192.089L476.503 195.232L476.55 191.07Z" fill="#898888"/>
<path d="M474.121 195.077L475.243 195.116L475.232 196.778L462.284 196.267L462.303 194.686L463.387 194.727L474.121 195.077Z" fill="#B5B5B5"/>
<path d="M475.297 191.04L480.895 187.883L482.293 187.928L476.624 191.083L475.297 191.04Z" fill="#A3A2A2"/>
<path d="M475.291 191.027L476.591 191.072L476.503 195.232L461.009 194.682L461.107 190.572L462.408 190.628L475.291 191.027Z" fill="#DDDBDB"/>
<path d="M467.446 149.778L472.762 146.561L485.395 148.92L480.078 152.137L467.446 149.778Z" fill="#003532"/>
<path d="M480.078 152.14L485.394 148.922L481.009 168.958L475.693 172.176L480.078 152.14Z" fill="#00322F"/>
<path d="M467.446 149.779L480.078 152.139L475.694 172.175L462.885 169.789L467.446 149.779Z" fill="#00413D"/>
<path d="M471.187 150.185L465.849 148.574L466.188 111.225L471.526 112.836L471.187 150.185Z" fill="#002926"/>
<path d="M471.526 112.836L466.188 111.225H497.15L502.488 112.836H471.526Z" fill="#002F2C"/>
<path d="M502.489 112.836L502.149 150.185H471.188L471.527 112.836H502.489Z" fill="#004844"/>
<path d="M459.072 137.768L464.389 134.551L463.491 152.15L458.175 155.368L459.072 137.768Z" fill="#003532"/>
<path d="M465.975 116.63L471.291 113.412L464.387 134.555L459.071 137.772L465.975 116.63Z" fill="#00302D"/>
<path d="M454.404 112.849L459.72 109.631L471.291 113.411L465.975 116.629L454.404 112.849Z" fill="#003834"/>
<path d="M454.404 112.85L465.975 116.63L459.071 137.772L458.174 155.372L446.061 154.517L447.043 135.261L454.404 112.85Z" fill="#00413D"/>
<path d="M444.7 154.14L446.107 153.455L446.105 154.277L444.7 154.14Z" fill="#033D37"/>
<path d="M458.037 158.052L463.2 156.033L462.984 158.29L457.871 163.161L458.037 158.052Z" fill="#AA8277"/>
<path d="M459.308 155.136L464.784 152.25L464.5 155.561L459.231 158.416L459.308 155.136Z" fill="#01332D"/>
<path d="M458.072 158.041L457.881 163.166L445.545 162.232L445.794 156.988L458.072 158.041Z" fill="#D4A99A"/>
<path d="M458.118 155.064L463.495 152.213L464.746 152.3L459.374 155.15L458.118 155.064Z" fill="#033D37"/>
<path d="M458.115 155.051L459.344 155.138L459.229 158.415L444.518 157.444L444.7 154.141L445.929 154.238L458.115 155.051Z" fill="#00514C"/>
<path d="M463.524 110.852L457.881 113.97L461.459 115.111L466.853 111.93L463.524 110.852Z" fill="#CECCCC"/>
<path d="M457.882 113.971L451.281 133.215L454.793 134.408L461.461 115.112L457.882 113.971Z" fill="#DDDBDB"/>
<path d="M477.27 111.204L481.06 112.837L490.408 112.814L492.617 111.197L477.27 111.204Z" fill="#89625D"/>
<path d="M481.06 112.838L484.742 120.21L487.418 120.221L490.408 112.814L481.06 112.838Z" fill="#A37E74"/>
<path d="M482.387 115.58H489.342L487.417 120.217L484.742 120.206L482.387 115.58Z" fill="#DDDBDB"/>
<path d="M477.811 89.8789L484.752 90.059L484.655 95.3408H477.831L477.811 89.8789Z" fill="white"/>
<path d="M479.453 92.0762L483.361 92.132L483.354 95.3737L479.465 95.3637L479.453 92.0762Z" fill="#3D2823"/>
<path d="M481.906 92.5117L483.042 92.5279L483.04 93.4698L481.91 93.4671L481.906 92.5117Z" fill="white"/>
<path d="M481.606 93.8027L482.269 93.812L482.268 94.3618L481.608 94.3603L481.606 93.8027Z" fill="white"/>
<path d="M495.249 89.8789L488.308 90.059L488.293 95.522H495.117L495.249 89.8789Z" fill="white"/>
<path d="M493.6 92.2539L489.692 92.3097L489.699 95.5514L493.588 95.5414L493.6 92.2539Z" fill="#3D2823"/>
<path d="M493.225 92.5352L492.09 92.5513L492.092 93.4932L493.221 93.4906L493.225 92.5352Z" fill="white"/>
<path d="M492.471 93.8516L491.808 93.8612L491.809 94.411L492.468 94.4095L492.471 93.8516Z" fill="white"/>
<path d="M490.712 103.525H483.537C482.148 103.525 482.471 102.399 482.471 101.01H491.635C491.635 102.398 492.102 103.525 490.713 103.525H490.712Z" fill="#89625D"/>
<path d="M484.936 120.176L485.48 150.216L487.521 150.193L487.294 120.186L484.936 120.176Z" fill="#01332D"/>
<path d="M495.866 90.6956L495.275 91.0196L488.158 90.3724L488.749 90.0488L495.866 90.6956Z" fill="#1F1412"/>
<path d="M488.749 90.048L488.158 90.3716L488.236 87.9252L488.827 87.6016L488.749 90.048Z" fill="#1F1412"/>
<path d="M488.827 87.6016L495.945 88.2484L495.867 90.6948L488.75 90.048L488.827 87.6016Z" fill="#3A2621"/>
<path d="M485.21 90.1406L484.619 90.4642L477.523 90.6751L478.115 90.3511L485.21 90.1406Z" fill="#1F1412"/>
<path d="M478.114 90.3482L477.523 90.6722L477.322 88.1912L477.914 87.8672L478.114 90.3482Z" fill="#1F1412"/>
<path d="M485.01 87.6562L485.21 90.1373L478.115 90.3478L477.914 87.8667L485.01 87.6562Z" fill="#3A2621"/>
<path d="M502.118 85.264L501.526 85.5876L492.96 85.2767L493.551 84.9531L502.118 85.264Z" fill="#121212"/>
<path d="M493.551 84.9519L492.96 85.2755L492.896 82.058L493.488 81.7344L493.551 84.9519Z" fill="#121212"/>
<path d="M493.488 81.7344L502.055 82.0453L502.118 85.2628L493.551 84.9519L493.488 81.7344Z" fill="#212121"/>
<path d="M485.168 84.4116L484.577 84.7352L470.883 84.238L471.474 83.9141L485.168 84.4116Z" fill="#121212"/>
<path d="M471.473 83.9128L470.882 84.2368L470.819 81.0193L471.411 80.6953L471.473 83.9128Z" fill="#121212"/>
<path d="M471.411 80.6953L485.106 81.1928L485.168 84.4103L471.474 83.9128L471.411 80.6953Z" fill="#212121"/>
<path d="M471.061 77.668L472.104 77.8357L472.194 81.4992L471.15 81.3318L471.061 77.668Z" fill="#202020"/>
<path d="M471.148 81.334L472.192 81.5014L467.24 83.0751L466.196 82.9073L471.148 81.334Z" fill="#121212"/>
<path d="M471.06 77.668L471.149 81.3318L466.197 82.9052C466.196 82.7651 466.173 80.1017 466.17 79.9632L471.06 77.668Z" fill="#191919"/>
<path d="M470.265 84.7852L471.309 84.9529L471.383 88.0211L470.339 87.8534L470.265 84.7852Z" fill="#202020"/>
<path d="M470.338 87.8535L471.381 88.0213L467.245 88.2375L466.201 88.0698L470.338 87.8535Z" fill="#121212"/>
<path d="M470.263 84.7852L470.338 87.8534L466.201 88.0696C466.2 87.9522 466.181 85.7217 466.179 85.6059L470.263 84.7852Z" fill="#191919"/>
<path d="M470.175 87.4258L471.219 87.5935L471.292 90.6617L470.248 90.4944L470.175 87.4258Z" fill="#202020"/>
<path d="M470.246 90.4941L471.289 90.6615L467.425 90.8528L466.381 90.685L470.246 90.4941Z" fill="#121212"/>
<path d="M470.174 87.4258L470.248 90.494L466.383 90.6852C466.382 90.5679 466.361 88.3373 466.358 88.2215L470.174 87.4258Z" fill="#191919"/>
<path d="M470.669 90.3145L471.713 90.4822L471.589 93.5612L470.545 93.3938L470.669 90.3145Z" fill="#1F1F1F"/>
<path d="M470.547 93.3952L471.591 93.5626L467.402 93.4041L466.358 93.2363L470.547 93.3952Z" fill="#121212"/>
<path d="M470.671 90.3145L470.547 93.3938L466.358 93.2353C466.365 93.1175 466.49 90.882 466.495 90.7654L470.671 90.3145H470.671Z" fill="#191919"/>
<path d="M469.371 92.2246L470.415 92.3924L470.464 96.4337L469.42 96.2659L469.371 92.2246Z" fill="#1F1F1F"/>
<path d="M469.42 96.2676L470.464 96.4353L467.484 96.4477L466.44 96.2803L469.42 96.2676Z" fill="#121212"/>
<path d="M469.371 92.225L469.42 96.2663L466.44 96.2786C466.44 96.1239 466.429 93.1885 466.428 93.0361L469.371 92.2246L469.371 92.225Z" fill="#191919"/>
<path d="M470.639 81.7188L471.683 81.8865L471.428 84.9628L470.384 84.795L470.639 81.7188Z" fill="#1F1F1F"/>
<path d="M470.385 84.7969L471.429 84.9646L467.075 85.6484L466.031 85.4806L470.385 84.7969Z" fill="#121212"/>
<path d="M466.274 83.0139L470.64 81.7188L470.385 84.7954L466.031 85.4792C466.043 85.3618 466.264 83.1301 466.274 83.0139Z" fill="#191919"/>
<path d="M501.432 82.0461L500.84 82.3701L471.158 81.2927L471.75 80.9688L501.432 82.0461Z" fill="#121212"/>
<path d="M471.749 80.9675L471.157 81.2915L471.095 78.0736L471.686 77.75L471.749 80.9675Z" fill="#121212"/>
<path d="M471.687 77.75L501.369 78.8274L501.432 82.0449L471.75 80.9675L471.687 77.75Z" fill="#212121"/>
<path d="M500.409 119.123H489.561V125.247H500.409V119.123Z" fill="#01332D"/>
<path d="M492.934 120.094V122.781H493.227V123.482H492.934V124.207H491.904V123.482H490.682V122.781L491.571 120.094H492.934H492.934ZM491.904 122.781V121.031L491.45 122.781H491.904Z" fill="white"/>
<path d="M495.954 120.094V120.752H494.678V121.451C494.837 121.263 495.043 121.169 495.294 121.169C495.578 121.169 495.792 121.248 495.937 121.406C496.082 121.565 496.155 121.869 496.155 122.319V122.906C496.155 123.197 496.141 123.411 496.113 123.547C496.085 123.684 496.025 123.81 495.933 123.926C495.842 124.042 495.714 124.131 495.55 124.193C495.386 124.255 495.186 124.285 494.95 124.285C494.685 124.285 494.451 124.239 494.249 124.147C494.047 124.055 493.904 123.917 493.819 123.734C493.734 123.551 493.691 123.269 493.691 122.886V122.662H494.721V122.919C494.721 123.185 494.73 123.374 494.749 123.485C494.768 123.597 494.832 123.653 494.942 123.653C494.993 123.653 495.034 123.637 495.066 123.605C495.097 123.573 495.114 123.538 495.117 123.501C495.12 123.463 495.122 123.302 495.126 123.015V122.2C495.126 122.046 495.11 121.941 495.077 121.885C495.045 121.829 494.992 121.801 494.917 121.801C494.869 121.801 494.83 121.815 494.797 121.844C494.765 121.873 494.744 121.904 494.735 121.937C494.726 121.97 494.721 122.046 494.721 122.167H493.702L493.745 120.094H495.954L495.954 120.094Z" fill="white"/>
<path d="M499.245 121.186H498.216C498.216 120.995 498.213 120.874 498.209 120.824C498.205 120.774 498.184 120.732 498.148 120.699C498.111 120.665 498.062 120.648 497.999 120.648C497.946 120.648 497.903 120.664 497.869 120.696C497.835 120.728 497.815 120.769 497.81 120.82C497.805 120.871 497.803 120.973 497.803 121.128V121.783C497.855 121.673 497.933 121.59 498.035 121.535C498.137 121.48 498.262 121.452 498.412 121.452C498.6 121.452 498.767 121.503 498.911 121.605C499.056 121.706 499.147 121.828 499.186 121.971C499.226 122.113 499.245 122.305 499.245 122.547V122.875C499.245 123.163 499.234 123.377 499.212 123.518C499.19 123.658 499.131 123.788 499.035 123.908C498.939 124.027 498.807 124.12 498.64 124.186C498.473 124.252 498.278 124.285 498.055 124.285C497.778 124.285 497.551 124.247 497.375 124.17C497.198 124.094 497.062 123.985 496.966 123.841C496.87 123.698 496.814 123.548 496.798 123.39C496.782 123.233 496.773 122.927 496.773 122.474V121.904C496.773 121.415 496.781 121.088 496.795 120.922C496.809 120.757 496.868 120.601 496.972 120.454C497.075 120.306 497.217 120.196 497.396 120.122C497.575 120.049 497.782 120.012 498.016 120.012C498.305 120.012 498.542 120.058 498.727 120.151C498.912 120.245 499.044 120.376 499.124 120.545C499.204 120.714 499.244 120.928 499.244 121.185L499.245 121.186ZM498.216 122.469C498.216 122.323 498.199 122.224 498.167 122.17C498.135 122.115 498.082 122.088 498.009 122.088C497.936 122.088 497.885 122.114 497.852 122.166C497.819 122.217 497.803 122.318 497.803 122.469V123.213C497.803 123.395 497.818 123.513 497.85 123.569C497.881 123.625 497.933 123.653 498.006 123.653C498.051 123.653 498.096 123.631 498.144 123.588C498.192 123.545 498.215 123.429 498.215 123.239V122.469H498.216Z" fill="white"/>
<path d="M476.186 89.0411L475.595 89.3647L470.75 89.1888L471.341 88.8652L476.186 89.0411Z" fill="#121212"/>
<path d="M471.34 88.8657L470.749 89.1893L470.698 86.6009L471.29 86.2773L471.34 88.8657Z" fill="#121212"/>
<path d="M471.29 86.2773L476.134 86.4532L476.185 89.0416L471.34 88.8657L471.29 86.2773Z" fill="#212121"/>
<path d="M482.551 86.6635L481.96 86.9871L470.9 86.4138L471.491 86.0898L482.551 86.6635Z" fill="#121212"/>
<path d="M471.491 86.088L470.9 86.412L470.89 84.365L471.481 84.041L471.491 86.088Z" fill="#121212"/>
<path d="M471.481 84.041L482.542 84.6147L482.552 86.6617L471.492 86.088L471.481 84.041Z" fill="#212121"/>
<g style="mix-blend-mode:soft-light">
<mask id="mask1_580_15744" style="mask-type:luminance" maskUnits="userSpaceOnUse" x="470" y="128" width="33" height="26">
<path d="M502.211 153.896H470.891L471.008 128.408H502.211V153.896Z" fill="white"/>
</mask>
<g mask="url(#mask1_580_15744)">
<path d="M481.611 146.941H478.198V150.245H481.611V146.941Z" fill="#1E1E1E"/>
<path d="M478.174 146.941H474.762V150.245H478.174V146.941Z" fill="#424241"/>
<path d="M488.492 146.941H485.079V150.245H488.492V146.941Z" fill="#262423"/>
<path d="M485.054 146.941H481.642V150.245H485.054V146.941Z" fill="#333333"/>
<path d="M495.369 146.941H491.956V150.245H495.369V146.941Z" fill="#1E1E1E"/>
<path d="M491.932 146.941H488.52V150.245H491.932V146.941Z" fill="#333333"/>
<path d="M498.815 146.941H495.402V150.245H498.815V146.941Z" fill="#424241"/>
<path d="M474.739 143.637H471.326V146.941H474.739V143.637Z" fill="#666666"/>
<path d="M481.611 143.637H478.198V146.941H481.611V143.637Z" fill="#666666"/>
<path d="M478.174 143.637H474.762V146.941H478.174V143.637Z" fill="#999999"/>
<path d="M488.492 143.637H485.079V146.941H488.492V143.637Z" fill="#666666"/>
<path d="M485.054 143.637H481.642V146.941H485.054V143.637Z" fill="#A09A90"/>
<path d="M495.369 143.637H491.956V146.941H495.369V143.637Z" fill="#666666"/>
<path d="M491.932 143.637H488.52V146.941H491.932V143.637Z" fill="#7C7874"/>
<path d="M502.248 143.637H498.835V146.941H502.248V143.637Z" fill="#666666"/>
<path d="M498.815 143.637H495.402V146.941H498.815V143.637Z" fill="#999999"/>
<path d="M474.737 140.32H471.324V143.624H474.737V140.32Z" fill="#CCCCCC"/>
<path d="M481.609 140.32H478.196V143.624H481.609V140.32Z" fill="#999999"/>
<path d="M478.172 140.32H474.76V143.624H478.172V140.32Z" fill="#E0DFDE"/>
<path d="M488.49 140.32H485.077V143.624H488.49V140.32Z" fill="#CCCCCC"/>
<path d="M485.058 140.32H481.646V143.624H485.058V140.32Z" fill="#E0DFDE"/>
<path d="M478.246 137.061H474.833V140.365H478.246V137.061Z" fill="#CCCCCC"/>
<path d="M474.735 133.727H471.322V137.031H474.735V133.727Z" fill="#CCCCCC"/>
<path d="M474.81 137.061H471.397V140.365H474.81V137.061Z" fill="#E0DFDE"/>
<path d="M481.693 137.061H478.28V140.365H481.693V137.061Z" fill="#E0DFDE"/>
<path d="M498.77 137.111H495.357V140.415H498.77V137.111Z" fill="#999999"/>
<path d="M502.217 134.027H498.805V137.331H502.217V134.027Z" fill="#CCCCCC"/>
<path d="M502.217 137.111H498.805V140.415H502.217V137.111Z" fill="#E0DFDE"/>
<path d="M495.366 140.32H491.953V143.624H495.366V140.32Z" fill="#999999"/>
<path d="M491.93 140.32H488.518V143.624H491.93V140.32Z" fill="#E0DFDE"/>
<path d="M502.25 140.32H498.838V143.624H502.25V140.32Z" fill="#CCCCCC"/>
<path d="M498.813 140.32H495.4V143.624H498.813V140.32Z" fill="#E0DFDE"/>
</g>
</g>
<g style="mix-blend-mode:soft-light">
<mask id="mask2_580_15744" style="mask-type:luminance" maskUnits="userSpaceOnUse" x="471" y="109" width="32" height="24">
<path d="M471.576 109.322H502.633L502.517 132.953H471.576V109.322Z" fill="white"/>
</mask>
<g mask="url(#mask2_580_15744)">
<path d="M492.016 115.766H495.4V112.702H492.016V115.766Z" fill="#1E1E1E"/>
<path d="M495.422 115.766H498.806V112.702H495.422V115.766Z" fill="#424241"/>
<path d="M480.987 112.701H478.372V115.764H481.756" fill="#1E1E1E"/>
<path d="M474.954 115.766H478.338V112.702H474.954V115.766Z" fill="#424241"/>
<path d="M498.831 118.826H502.215V115.763H498.831V118.826Z" fill="#666666"/>
<path d="M492.016 118.826H495.4V115.763H492.016V118.826Z" fill="#666666"/>
<path d="M495.422 118.826H498.806V115.763H495.422V118.826Z" fill="#999999"/>
<path d="M488.599 118.826H491.983V115.763H488.599V118.826Z" fill="#A09A90"/>
<path d="M478.376 118.826H481.76V115.763H478.376V118.826Z" fill="#666666"/>
<path d="M471.548 118.826H474.932V115.763H471.548V118.826Z" fill="#666666"/>
<path d="M474.954 118.826H478.338V115.763H474.954V118.826Z" fill="#999999"/>
<path d="M475 124.879H478.384V121.816H475V124.879Z" fill="#999999"/>
<path d="M471.585 127.74H474.969V124.677H471.585V127.74Z" fill="#CCCCCC"/>
<path d="M471.581 124.879H474.965V121.816H471.581V124.879Z" fill="#E0DFDE"/>
<path d="M478.377 121.904H481.761V118.841H478.377V121.904Z" fill="#999999"/>
<path d="M471.549 121.904H474.933V118.841H471.549V121.904Z" fill="#CCCCCC"/>
<path d="M474.955 121.904H478.339V118.841H474.955V121.904Z" fill="#E0DFDE"/>
</g>
</g>
<g style="mix-blend-mode:soft-light">
<path d="M481.387 106.769L478.096 106.705L478.045 109.322L481.336 109.386L481.387 106.769Z" fill="#1E1E1E"/>
<path d="M478.074 106.7L474.783 106.637L474.732 109.254L478.024 109.318L478.074 106.7Z" fill="#424241"/>
<path d="M488.026 106.896L484.734 106.832L484.684 109.449L487.975 109.513L488.026 106.896Z" fill="#262423"/>
<path d="M484.713 106.829L481.422 106.766L481.371 109.383L484.662 109.447L484.713 106.829Z" fill="#333333"/>
<path d="M494.656 107.021L491.365 106.957L491.315 109.574L494.606 109.638L494.656 107.021Z" fill="#1E1E1E"/>
<path d="M491.34 106.958L488.049 106.895L487.998 109.512L491.289 109.575L491.34 106.958Z" fill="#333333"/>
<path d="M497.979 107.089L494.688 107.025L494.637 109.643L497.928 109.706L497.979 107.089Z" fill="#424241"/>
<path d="M474.808 104.021L471.517 103.957L471.466 106.574L474.757 106.638L474.808 104.021Z" fill="#666666"/>
<path d="M481.436 104.148L478.145 104.084L478.094 106.701L481.385 106.765L481.436 104.148Z" fill="#666666"/>
<path d="M478.12 104.083L474.829 104.02L474.778 106.637L478.07 106.7L478.12 104.083Z" fill="#999999"/>
<path d="M484.76 104.214L481.469 104.15L481.418 106.768L484.709 106.831L484.76 104.214Z" fill="#A09A90"/>
<path d="M494.703 104.406L491.412 104.342L491.361 106.959L494.653 107.023L494.703 104.406Z" fill="#666666"/>
<path d="M501.338 104.534L498.047 104.471L497.996 107.088L501.287 107.152L501.338 104.534Z" fill="#666666"/>
<path d="M498.027 104.472L494.736 104.408L494.686 107.025L497.977 107.089L498.027 104.472Z" fill="#999999"/>
<path d="M474.859 101.394L471.568 101.33L471.518 103.947L474.809 104.011L474.859 101.394Z" fill="#CCCCCC"/>
<path d="M478.173 101.456L474.882 101.393L474.831 104.01L478.122 104.073L478.173 101.456Z" fill="#E0DFDE"/>
<path d="M498.084 99.3001L494.793 99.2363L494.742 101.853L498.033 101.917L498.084 99.3001Z" fill="#999999"/>
<path d="M501.41 99.3626L498.119 99.2988L498.068 101.916L501.36 101.98L501.41 99.3626Z" fill="#E0DFDE"/>
<path d="M501.39 101.908L498.099 101.844L498.048 104.461L501.339 104.525L501.39 101.908Z" fill="#CCCCCC"/>
<path d="M498.077 101.843L494.786 101.779L494.735 104.396L498.027 104.46L498.077 101.843Z" fill="#E0DFDE"/>
</g>
<g style="mix-blend-mode:soft-light">
<path d="M467.703 146.663L465.899 146.172L465.963 148.716L467.766 149.207L467.703 146.663Z" fill="#1E1E1E"/>
<path d="M469.526 147.161L467.723 146.67L467.786 149.214L469.59 149.705L469.526 147.161Z" fill="#424241"/>
<path d="M467.647 144.12L465.843 143.629L465.906 146.173L467.71 146.664L467.647 144.12Z" fill="#666666"/>
<path d="M471.208 145.112L469.481 144.621L469.545 147.165L471.233 147.579L471.208 145.112Z" fill="#666666"/>
<path d="M469.468 144.614L467.664 144.123L467.728 146.667L469.531 147.158L469.468 144.614Z" fill="#999999"/>
<path d="M469.317 139.585L467.513 139.094L467.576 141.638L469.38 142.128L469.317 139.585Z" fill="#999999"/>
<path d="M471.272 137.719L469.275 137.215L469.339 139.759L471.335 140.25L471.272 137.719Z" fill="#CCCCCC"/>
<path d="M471.294 140.081L469.337 139.59L469.4 142.134L471.281 142.625L471.294 140.081Z" fill="#E0DFDE"/>
<path d="M467.581 141.567L465.777 141.076L465.84 143.62L467.644 144.111L467.581 141.567Z" fill="#999999"/>
<path d="M471.219 142.555L469.416 142.064L469.479 144.608L471.206 145.099L471.219 142.555Z" fill="#CCCCCC"/>
<path d="M469.402 142.063L467.599 141.572L467.662 144.116L469.466 144.607L469.402 142.063Z" fill="#E0DFDE"/>
</g>
<g style="mix-blend-mode:soft-light">
<path d="M469.977 107.113L468.456 107.983L468.425 110.886L469.946 110.055L469.977 107.113Z" fill="#424241"/>
<path d="M468.474 105.01L466.953 105.879L466.922 108.859L468.443 107.99L468.474 105.01Z" fill="#666666"/>
<path d="M471.54 103.258L470.019 104.128L469.988 107.108L471.509 106.238L471.54 103.258Z" fill="#666666"/>
<path d="M470.01 104.133L468.489 105.003L468.458 107.983L469.979 107.113L470.01 104.133Z" fill="#999999"/>
<path d="M470.054 98.2559L468.533 99.1258L468.502 102.106L470.023 101.236L470.054 98.2559Z" fill="#999999"/>
<path d="M468.507 102.02L466.986 102.89L466.955 105.87L468.476 105L468.507 102.02Z" fill="#999999"/>
<path d="M471.494 100.262L470.051 101.132L470.02 104.112L471.54 103.242L471.494 100.262Z" fill="#CCCCCC"/>
<path d="M470.04 101.139L468.52 102.009L468.488 104.989L470.009 104.119L470.04 101.139Z" fill="#E0DFDE"/>
</g>
<g style="mix-blend-mode:soft-light">
<path d="M470.466 187.402H467.86V190.791L470.466 190.868V187.402Z" fill="#1E1E1E"/>
<path d="M467.842 187.402H465.237V190.676L467.842 190.753V187.402Z" fill="#424241"/>
<path d="M475.72 187.402H473.115V190.906L475.72 190.868V187.402Z" fill="#262423"/>
<path d="M473.097 187.402H470.491V190.83L473.097 190.945V187.402Z" fill="#333333"/>
<path d="M480.774 187.402H478.361L478.323 189.297L480.715 187.985L480.774 187.402Z" fill="#1E1E1E"/>
<path d="M478.345 187.402H475.74L475.625 190.906L478.325 189.297L478.345 187.402Z" fill="#333333"/>
<path d="M465.219 183.709H462.614V187.406H465.219V183.709Z" fill="#666666"/>
<path d="M470.465 183.709H467.86V187.406H470.465V183.709Z" fill="#666666"/>
<path d="M467.842 183.709H465.237V187.406H467.842V183.709Z" fill="#999999"/>
<path d="M475.719 183.709H473.114V187.406H475.719V183.709Z" fill="#666666"/>
<path d="M473.096 183.709H470.491V187.406H473.096V183.709Z" fill="#A09A90"/>
<path d="M480.813 183.709H478.361V187.406H480.774L480.813 183.709Z" fill="#666666"/>
<path d="M478.343 183.709H475.738V187.406H478.343V183.709Z" fill="#7C7874"/>
<path d="M465.222 179.994H462.732L462.693 183.691H465.222V179.994Z" fill="#CCCCCC"/>
<path d="M470.463 179.994H467.858V183.691H470.463V179.994Z" fill="#999999"/>
<path d="M467.843 179.994H465.238V183.691H467.843V179.994Z" fill="#E0DFDE"/>
<path d="M475.72 179.994H473.115V183.691H475.72V179.994Z" fill="#CCCCCC"/>
<path d="M473.096 179.994H470.491V183.691H473.096V179.994Z" fill="#E0DFDE"/>
<path d="M467.896 176.35H465.291V180.046H467.896V176.35Z" fill="#CCCCCC"/>
<path d="M465.218 173.466L462.843 172.619L462.805 176.354H465.218V173.466Z" fill="#CCCCCC"/>
<path d="M465.275 176.35H462.786L462.747 180.046H465.275V176.35Z" fill="#E0DFDE"/>
<path d="M470.528 177.273L467.923 176.35V180.046H470.528V177.273Z" fill="#E0DFDE"/>
<path d="M480.852 179.994H478.362V183.691H480.814L480.852 179.994Z" fill="#999999"/>
<path d="M478.343 179.994H475.738V183.691H478.343V179.994Z" fill="#E0DFDE"/>
</g>
<g style="mix-blend-mode:soft-light">
<path d="M495.631 187.572L498.534 187.62L498.524 190.568L495.518 190.583L495.631 187.572Z" fill="#1E1E1E"/>
<path d="M498.552 187.619L501.454 187.668L501.401 190.601L498.498 190.588L498.552 187.619Z" fill="#424241"/>
<path d="M489.908 187.459L492.81 187.507L492.684 190.523L490.017 190.416L489.908 187.459Z" fill="#262423"/>
<path d="M492.7 187.521L495.602 187.57L495.517 190.581L492.64 190.518L492.7 187.521Z" fill="#333333"/>
<path d="M486.772 185.174L488.5 186.287L488.463 189.227L486.771 187.779L486.772 185.174Z" fill="#1E1E1E"/>
<path d="M488.511 186.357L489.898 187.363L489.942 190.499L488.498 189.225L488.511 186.357Z" fill="#00514C"/>
<path d="M501.467 187.673L504.369 187.721L504.428 184.19L501.526 184.142L501.467 187.673Z" fill="#666666"/>
<path d="M495.624 187.575L498.526 187.623L498.585 184.093L495.683 184.045L495.624 187.575Z" fill="#666666"/>
<path d="M498.547 187.626L501.449 187.674L501.508 184.144L498.606 184.095L498.547 187.626Z" fill="#999999"/>
<path d="M489.774 187.477L492.676 187.525L492.734 183.995L489.832 183.947L489.774 187.477Z" fill="#666666"/>
<path d="M492.695 187.528L495.597 187.576L495.655 184.046L492.753 183.998L492.695 187.528Z" fill="#A09A90"/>
<path d="M486.711 181.879L488.575 182.673L488.517 186.319L486.768 185.203L486.711 181.879Z" fill="#666666"/>
<path d="M488.501 186.365L489.922 187.25L489.975 190.463L488.463 189.228L488.501 186.365Z" fill="#666666"/>
<path d="M488.548 182.752L489.889 183.267L489.919 187.248L488.498 186.363L488.548 182.752Z" fill="#7C7874"/>
<path d="M501.591 180.594L504.365 180.64L504.349 184.171L501.532 184.124L501.591 180.594Z" fill="#CCCCCC"/>
<path d="M495.686 184.03L498.588 184.078L498.646 180.548L495.744 180.5L495.686 184.03Z" fill="#999999"/>
<path d="M498.609 184.079L501.511 184.127L501.569 180.597L498.667 180.549L498.609 184.079Z" fill="#E0DFDE"/>
<path d="M489.832 183.93L492.734 183.979L492.793 180.448L489.891 180.4L489.832 183.93Z" fill="#CCCCCC"/>
<path d="M492.752 183.981L495.654 184.029L495.713 180.499L492.811 180.451L492.752 183.981Z" fill="#E0DFDE"/>
<path d="M498.602 180.598L501.504 180.646L501.562 177.116L498.66 177.068L498.602 180.598Z" fill="#CCCCCC"/>
<path d="M501.707 173.548L501.648 177.078L504.293 177.122L504.352 173.592L501.707 173.548Z" fill="#CCCCCC"/>
<path d="M501.586 177.113L504.359 177.159L504.344 180.69L501.527 180.643L501.586 177.113Z" fill="#E0DFDE"/>
<path d="M495.674 180.548L498.576 180.596L498.635 177.065L495.733 177.017L495.674 180.548Z" fill="#E0DFDE"/>
<path d="M486.674 178.682L488.638 179.653L488.586 182.792L486.719 182.027L486.674 178.682Z" fill="#999999"/>
<path d="M488.62 179.656L489.868 180.359L489.855 183.384L488.567 182.796L488.62 179.656Z" fill="#E0DFDE"/>
</g>
<g style="mix-blend-mode:soft-light">
<path d="M453.614 151.096H451.083L451.058 154.521L453.614 154.638V151.096Z" fill="#1E1E1E"/>
<path d="M451.067 151.096H448.536L448.547 154.405L451.059 154.521L451.067 151.096Z" fill="#424241"/>
<path d="M458.49 151.096H456.189V154.792L458.259 154.985L458.49 151.096Z" fill="#262423"/>
<path d="M456.172 151.096H453.641V154.638L456.172 154.792V151.096Z" fill="#333333"/>
<path d="M463.553 151.08L461.285 151.096L461.22 153.384L463.496 152.21L463.553 151.08Z" fill="#1E1E1E"/>
<path d="M461.267 151.096L458.419 151.153L458.215 154.944L461.218 153.384L461.267 151.096Z" fill="#333333"/>
<path d="M448.515 147.395L446.438 147.393L446.24 151.093L448.515 151.091V147.395Z" fill="#666666"/>
<path d="M453.61 147.395H451.079V151.091H453.61V147.395Z" fill="#666666"/>
<path d="M451.064 147.395H448.533V151.091H451.064V147.395Z" fill="#999999"/>
<path d="M458.716 147.395H456.185V151.091H458.446L458.716 147.395Z" fill="#666666"/>
<path d="M456.167 147.395H453.636V151.091H456.167V147.395Z" fill="#A09A90"/>
<path d="M463.698 147.395H461.282V151.091L463.55 151.073L463.698 147.395Z" fill="#666666"/>
<path d="M461.268 147.395H458.737V151.091H461.268V147.395Z" fill="#7C7874"/>
<path d="M448.568 143.739L446.615 143.676L446.422 147.392L448.515 147.382L448.568 143.739Z" fill="#CCCCCC"/>
<path d="M453.612 143.686H451.081V147.382H453.612V143.686Z" fill="#999999"/>
<path d="M451.064 143.686H448.533V147.382H451.064V143.686Z" fill="#E0DFDE"/>
<path d="M458.717 143.686H456.186V147.382H458.717V143.686Z" fill="#CCCCCC"/>
<path d="M456.171 143.686H453.64V147.382H456.171V143.686Z" fill="#E0DFDE"/>
<path d="M451.119 140.041H448.588V143.738H451.119V140.041Z" fill="#CCCCCC"/>
<path d="M448.516 136.311L446.975 136.434L446.812 140.034L448.588 140.042L448.516 136.311Z" fill="#CCCCCC"/>
<path d="M448.573 140.044L446.813 140.035L446.62 143.677L448.573 143.74V140.044Z" fill="#E0DFDE"/>
<path d="M453.677 140.041H451.146V143.738H453.677V140.041Z" fill="#E0DFDE"/>
<path d="M463.854 143.686H461.284V147.382H463.7L463.854 143.686Z" fill="#999999"/>
<path d="M461.27 143.686H458.739V147.382H461.27V143.686Z" fill="#B2AFAD"/>
</g>
<g style="mix-blend-mode:soft-light">
<mask id="mask3_580_15744" style="mask-type:luminance" maskUnits="userSpaceOnUse" x="502" y="133" width="20" height="21">
<path d="M516.55 151.864L521.608 148.069L519.142 133.93L502.177 140.688L504.397 153.02L516.55 151.864Z" fill="white"/>
</mask>
<g mask="url(#mask3_580_15744)">
<path d="M514.822 152.854L517.334 152.391L516.662 148.748L514.15 149.211L514.822 152.854Z" fill="#1E1E1E"/>
<path d="M517.351 152.389L519.862 151.926L519.19 148.283L516.679 148.746L517.351 152.389Z" fill="#424241"/>
<path d="M509.756 153.787L512.268 153.324L511.596 149.681L509.084 150.145L509.756 153.787Z" fill="#262423"/>
<path d="M512.282 153.321L514.794 152.857L514.122 149.215L511.61 149.678L512.282 153.321Z" fill="#333333"/>
<path d="M504.695 154.719L507.207 154.256L506.535 150.613L504.023 151.076L504.695 154.719Z" fill="#1E1E1E"/>
<path d="M507.226 154.258L509.737 153.795L509.065 150.152L506.554 150.615L507.226 154.258Z" fill="#333333"/>
<path d="M502.157 155.19L504.669 154.727L503.997 151.084L501.485 151.547L502.157 155.19Z" fill="#424241"/>
<path d="M519.209 148.286L521.721 147.822L521.049 144.179L518.537 144.643L519.209 148.286Z" fill="#666666"/>
<path d="M514.15 149.217L516.662 148.754L515.99 145.111L513.478 145.574L514.15 149.217Z" fill="#666666"/>
<path d="M516.679 148.752L519.19 148.289L518.519 144.646L516.007 145.11L516.679 148.752Z" fill="#999999"/>
<path d="M509.084 150.151L511.596 149.688L510.924 146.045L508.412 146.508L509.084 150.151Z" fill="#666666"/>
<path d="M511.61 149.684L514.122 149.221L513.45 145.578L510.938 146.041L511.61 149.684Z" fill="#A09A90"/>
<path d="M504.023 151.082L506.535 150.619L505.863 146.976L503.352 147.44L504.023 151.082Z" fill="#666666"/>
<path d="M506.551 150.621L509.062 150.158L508.391 146.515L505.879 146.979L506.551 150.621Z" fill="#7C7874"/>
<path d="M501.485 151.553L503.997 151.09L503.325 147.447L500.813 147.91L501.485 151.553Z" fill="#999999"/>
<path d="M518.532 144.623L521.044 144.16L520.372 140.517L517.86 140.981L518.532 144.623Z" fill="#CCCCCC"/>
<path d="M513.478 145.559L515.99 145.096L515.318 141.453L512.807 141.916L513.478 145.559Z" fill="#999999"/>
<path d="M516.007 145.09L518.519 144.627L517.847 140.984L515.335 141.447L516.007 145.09Z" fill="#E0DFDE"/>
<path d="M508.412 146.491L510.924 146.027L510.252 142.385L507.74 142.848L508.412 146.491Z" fill="#CCCCCC"/>
<path d="M510.938 146.022L513.45 145.559L512.778 141.916L510.267 142.379L510.938 146.022Z" fill="#E0DFDE"/>
<path d="M515.292 141.508L517.804 141.045L517.132 137.402L514.62 137.865L515.292 141.508Z" fill="#CCCCCC"/>
<path d="M517.197 137.356L519.709 136.893L519.037 133.25L516.525 133.713L517.197 137.356Z" fill="#CCCCCC"/>
<path d="M517.82 141.045L520.332 140.582L519.66 136.939L517.148 137.402L517.82 141.045Z" fill="#E0DFDE"/>
<path d="M512.754 141.977L515.266 141.514L514.594 137.871L512.082 138.334L512.754 141.977Z" fill="#E0DFDE"/>
<path d="M500.194 144.344L502.706 143.881L502.034 140.238L499.522 140.701L500.194 144.344Z" fill="#999999"/>
<path d="M502.647 143.781L505.197 143.311L505.869 146.953L503.472 147.395L502.647 143.781Z" fill="#999999"/>
<path d="M505.88 146.955L508.392 146.492L507.72 142.849L505.208 143.313L505.88 146.955Z" fill="#B2AFAD"/>
<path d="M500.813 147.891L503.325 147.428L502.653 143.785L500.142 144.248L500.813 147.891Z" fill="#E0DFDE"/>
</g>
</g>
<g style="mix-blend-mode:soft-light">
<path d="M470.686 168.807L470.685 168.809L468.171 168.258L467.652 170.625L470.183 171.098L470.686 168.807Z" fill="#1E1E1E"/>
<path d="M468.159 168.252L468.159 168.254L465.645 167.703L465.109 170.148L467.64 170.621L468.159 168.252Z" fill="#424241"/>
<path d="M475.024 173.259L475.028 173.242L474.994 173.253L475.024 173.259Z" fill="#262423"/>
<path d="M475.628 170.514L475.758 169.918L475.758 169.92L473.244 169.369L472.76 171.58L475.24 172.043L475.628 170.514Z" fill="#262423"/>
<path d="M473.227 169.362L473.226 169.364L470.712 168.812L470.211 171.101L472.742 171.574L473.227 169.362Z" fill="#333333"/>
<path d="M474.927 173.278L474.997 173.255L474.936 173.242L474.927 173.278Z" fill="#333333"/>
<path d="M475.78 169.92L475.63 170.511L475.293 172.05L475.717 172.13L476.167 170.006L475.78 169.922L475.78 169.92Z" fill="#333333"/>
<path d="M475.238 172.043L475.289 172.053L475.627 170.514L475.238 172.043Z" fill="#333333"/>
<path d="M465.625 167.697L466.406 164.131L464.309 163.672L463.507 167.233L465.625 167.697Z" fill="#666666"/>
<path d="M463.507 167.234L465.625 167.698L465.625 167.696L463.507 167.232L463.507 167.234Z" fill="#666666"/>
<path d="M470.688 168.806L471.469 165.24L468.955 164.689L468.174 168.257L468.174 168.255L470.688 168.806Z" fill="#666666"/>
<path d="M468.172 168.258L468.172 168.26L470.686 168.811L470.686 168.809L468.172 168.258Z" fill="#666666"/>
<path d="M468.158 168.251L468.94 164.686L466.425 164.135L465.644 167.702L465.644 167.7L468.158 168.251Z" fill="#999999"/>
<path d="M465.644 167.701L465.644 167.703L468.158 168.254L468.158 168.252L465.644 167.701Z" fill="#999999"/>
<path d="M474.024 165.799L473.242 169.366L473.243 169.364L475.757 169.915L476.538 166.35L474.024 165.799Z" fill="#666666"/>
<path d="M473.245 169.367L473.244 169.369L475.758 169.92L475.759 169.918L473.245 169.367Z" fill="#666666"/>
<path d="M473.226 169.364L474.008 165.799L471.493 165.248L470.712 168.815L470.712 168.813L473.226 169.364Z" fill="#A09A90"/>
<path d="M470.712 168.815L470.712 168.816L473.226 169.367L473.226 169.365L470.712 168.815Z" fill="#A09A90"/>
<path d="M478.293 170.475L478.294 170.473L478.293 170.475Z" fill="#7C7874"/>
<path d="M475.777 169.919L476.164 170.004L476.921 166.433L476.559 166.354L475.777 169.919Z" fill="#7C7874"/>
<path d="M475.778 169.92L475.777 169.922L476.164 170.006L476.165 170.005L475.778 169.92Z" fill="#7C7874"/>
<path d="M467.181 160.596L465.105 160.141L464.313 163.653L466.411 164.112L467.181 160.596Z" fill="#CCCCCC"/>
<path d="M469.727 161.156L468.956 164.673L471.471 165.223L472.241 161.707L469.788 161.17L469.799 161.119L469.774 161.113L469.763 161.164L469.727 161.156Z" fill="#999999"/>
<path d="M467.198 160.602L466.428 164.118L468.942 164.669L469.712 161.152L467.251 160.613L467.262 160.562L467.245 160.559L467.234 160.609L467.198 160.602Z" fill="#E0DFDE"/>
<path d="M474.81 162.218L474.028 165.785L476.542 166.336L477.324 162.769L474.81 162.218Z" fill="#CCCCCC"/>
<path d="M472.27 161.715L471.5 165.231L474.014 165.782L474.796 162.215L472.317 161.672L472.306 161.723L472.27 161.715Z" fill="#E0DFDE"/>
<path d="M469.713 161.154L469.73 161.157L469.741 161.106L469.777 161.114L470.548 157.598L468.033 157.047L467.263 160.563L469.724 161.103L469.713 161.154Z" fill="#CCCCCC"/>
<path d="M469.741 161.109L469.729 161.16L469.765 161.168L469.777 161.117L469.741 161.109Z" fill="#CCCCCC"/>
<path d="M467.262 160.562L467.251 160.613L469.712 161.153L469.724 161.102L467.262 160.562Z" fill="#CCCCCC"/>
<path d="M467.961 157.029L468.571 154.244L466.697 153.074L465.908 156.579L467.961 157.029Z" fill="#CCCCCC"/>
<path d="M465.906 156.584L465.115 160.093L467.191 160.548L467.18 160.599L467.197 160.603L467.208 160.551L467.244 160.559L468.015 157.043L467.959 157.031L467.959 157.034L465.906 156.584Z" fill="#E0DFDE"/>
<path d="M465.115 160.094L465.104 160.145L467.18 160.6L467.191 160.549L465.115 160.094Z" fill="#E0DFDE"/>
<path d="M467.208 160.558L467.197 160.609L467.233 160.617L467.244 160.566L467.208 160.558Z" fill="#E0DFDE"/>
<path d="M465.909 156.583L465.908 156.586L467.962 157.036L467.962 157.033L465.909 156.583Z" fill="#E0DFDE"/>
<path d="M472.244 161.706L472.269 161.712L472.28 161.661L472.316 161.669L472.891 159.044L470.572 157.602L469.802 161.118L472.255 161.656L472.244 161.706Z" fill="#E0DFDE"/>
<path d="M469.802 161.119L469.791 161.17L472.244 161.707L472.255 161.656L469.802 161.119Z" fill="#E0DFDE"/>
<path d="M472.28 161.666L472.269 161.717L472.305 161.725L472.316 161.674L472.28 161.666Z" fill="#E0DFDE"/>
<path d="M476.562 166.339L476.925 166.418L477.683 162.845L477.344 162.771L476.562 166.339Z" fill="#E0DFDE"/>
</g>
<g style="mix-blend-mode:soft-light">
<path d="M495.961 167.257V167.259L498.788 166.912L499.115 169.574L496.277 169.834L495.961 167.257Z" fill="#1E1E1E"/>
<path d="M498.807 166.912L498.807 166.914L501.634 166.566L501.972 169.316L499.134 169.576L498.807 166.912Z" fill="#424241"/>
<path d="M490.721 171.72L490.719 171.701L490.754 171.717L490.721 171.72Z" fill="#262423"/>
<path d="M490.342 168.628L490.26 167.958V167.961L493.087 167.613L493.392 170.099L490.612 170.354L490.342 168.628Z" fill="#262423"/>
<path d="M493.105 167.611L493.106 167.613L495.933 167.266L496.249 169.839L493.411 170.099L493.105 167.611Z" fill="#333333"/>
<path d="M490.831 171.749L490.757 171.716L490.825 171.709L490.831 171.749Z" fill="#333333"/>
<path d="M490.239 167.961L490.343 168.628L490.556 170.359L489.873 170.437L489.804 168.017L490.239 167.963L490.239 167.961Z" fill="#333333"/>
<path d="M490.612 170.356L490.554 170.362L490.342 168.631L490.612 170.356Z" fill="#333333"/>
<path d="M501.652 166.561L501.159 162.551L503.517 162.262L504.033 166.268L501.652 166.561Z" fill="#666666"/>
<path d="M504.028 166.274L501.646 166.566L501.647 166.569L504.029 166.276L504.028 166.274Z" fill="#666666"/>
<path d="M495.96 167.259L495.468 163.249L498.295 162.902L498.788 166.914L498.787 166.911L495.96 167.259Z" fill="#666666"/>
<path d="M498.784 166.917L495.957 167.264L495.957 167.266L498.785 166.919L498.784 166.917Z" fill="#666666"/>
<path d="M498.808 166.909L498.315 162.9L501.142 162.553L501.635 166.564L501.635 166.562L498.808 166.909Z" fill="#999999"/>
<path d="M501.629 166.565L498.802 166.912L498.802 166.914L501.629 166.567L501.629 166.565Z" fill="#999999"/>
<path d="M492.594 163.602L493.086 167.613L493.086 167.611L490.259 167.958L489.767 163.949L492.594 163.602Z" fill="#666666"/>
<path d="M493.083 167.614L490.256 167.961L490.256 167.963L493.083 167.616L493.083 167.614Z" fill="#666666"/>
<path d="M493.105 167.613L492.612 163.603L495.439 163.256L495.932 167.268L495.932 167.265L493.105 167.613Z" fill="#A09A90"/>
<path d="M495.927 167.266L493.1 167.613L493.1 167.616L495.927 167.268L495.927 167.266Z" fill="#A09A90"/>
<path d="M490.239 167.964L489.804 168.018L489.339 164.005L489.746 163.955L490.239 167.964Z" fill="#7C7874"/>
<path d="M490.239 167.961L490.239 167.963L489.804 168.017V168.014L490.239 167.961Z" fill="#7C7874"/>
<path d="M500.67 158.578L503.005 158.291L503.514 162.242L501.156 162.532L500.67 158.578Z" fill="#CCCCCC"/>
<path d="M497.808 158.929L498.293 162.883L495.466 163.231L494.98 159.276L497.739 158.938L497.732 158.88L497.76 158.877L497.767 158.934L497.808 158.929Z" fill="#999999"/>
<path d="M500.653 158.578L501.139 162.532L498.312 162.879L497.826 158.925L500.594 158.585L500.587 158.528L500.606 158.525L500.613 158.583L500.653 158.578Z" fill="#E0DFDE"/>
<path d="M492.095 159.575L489.268 159.922L489.76 163.933L492.587 163.586L492.095 159.575Z" fill="#CCCCCC"/>
<path d="M494.951 159.281L495.437 163.235L492.61 163.582L492.117 159.571L494.904 159.229L494.911 159.285L494.951 159.281Z" fill="#E0DFDE"/>
<path d="M497.828 158.928L497.809 158.93L497.801 158.873L497.761 158.878L497.275 154.923L500.102 154.576L500.588 158.53L497.82 158.87L497.828 158.928Z" fill="#CCCCCC"/>
<path d="M497.8 158.876L497.759 158.881L497.766 158.939L497.807 158.934L497.8 158.876Z" fill="#CCCCCC"/>
<path d="M500.581 158.537L497.812 158.877L497.82 158.934L500.588 158.594L500.581 158.537Z" fill="#CCCCCC"/>
<path d="M500.18 154.567L499.796 151.436L501.981 150.34L502.489 154.283L500.18 154.567Z" fill="#CCCCCC"/>
<path d="M502.491 154.283L502.999 158.231L500.664 158.518L500.671 158.575L500.652 158.577L500.646 158.52L500.605 158.525L500.119 154.571L500.181 154.563L500.181 154.567L502.491 154.283Z" fill="#E0DFDE"/>
<path d="M502.998 158.232L503.006 158.29L500.67 158.576L500.663 158.519L502.998 158.232Z" fill="#E0DFDE"/>
<path d="M500.647 158.52L500.605 158.525L500.613 158.584L500.654 158.579L500.647 158.52Z" fill="#E0DFDE"/>
<path d="M502.487 154.289L500.178 154.572L500.178 154.576L502.487 154.292L502.487 154.289Z" fill="#E0DFDE"/>
<path d="M494.981 159.28L494.952 159.283L494.945 159.226L494.905 159.231L494.542 156.279L497.246 154.93L497.732 158.884L494.974 159.223L494.981 159.28Z" fill="#E0DFDE"/>
<path d="M497.728 158.886L494.97 159.225L494.977 159.282L497.735 158.943L497.728 158.886Z" fill="#E0DFDE"/>
<path d="M494.944 159.223L494.903 159.229L494.91 159.287L494.952 159.282L494.944 159.223Z" fill="#E0DFDE"/>
<path d="M489.741 163.933L489.334 163.983L489.044 159.997L489.249 159.922L489.741 163.933Z" fill="#E0DFDE"/>
</g>
<circle cx="384.177" cy="62.8561" r="3.40102" fill="#4F2B2B"/>
<circle cx="393.7" cy="62.8561" r="3.40102" fill="white"/>
<circle cx="403.223" cy="62.8561" r="3.40102" fill="white"/>
<path d="M448.411 63.3555L586.285 63.3555" stroke="#4F2B2B" stroke-width="5.44162" stroke-linecap="round"/>
<path d="M98.4795 107.386L98.7915 122.888L99.874 127.189L124.843 101.361L108.095 99.7746C103.366 99.3258 99.1251 102.684 98.4795 107.388V107.386Z" fill="#FFBE97"/>
<path d="M166.52 179.877C166.52 179.877 175.394 155.094 174.998 146.442C174.233 129.69 151.819 83.535 151.809 83.5055C150.167 79.1055 144.573 75.6589 140.546 79.3683C137.7 81.9909 136.221 86.676 136.445 90.4747L138.636 127.388L166.52 179.877Z" fill="#FFBE97"/>
<path d="M162.452 66.4466C163.161 66.0899 163.983 66.6623 163.895 67.4513L163.352 72.2969L158.43 68.4688L162.452 66.4466Z" fill="#4F2B2B"/>
<path d="M94.3766 171.087C93.301 172.533 91.7242 173.476 89.9408 173.737C88.181 173.996 86.4244 173.563 84.9883 172.518C84.9685 172.504 84.9497 172.491 84.9298 172.476C81.9419 170.254 81.3185 166.017 83.5404 163.03L91.4923 152.334L102.327 160.39L94.3756 171.085L94.3766 171.087Z" fill="#4F2B2B"/>
<path d="M91.5568 152.483L149.74 74.2262L158.429 68.4716L163.351 72.2987L160.07 82.6895L102.392 160.538L91.5568 152.483Z" fill="#8FC6D7"/>
<path d="M108.474 97.0403C108.446 97.582 108.456 98.1237 108.509 98.6632C108.632 99.9164 110.594 103.191 110.137 104.212L101.144 124.448L100.379 120.534L97.5363 125.095C96.2805 127.11 95.3055 129.289 94.6395 131.569L91.9505 140.778L94.0473 163.661L116.253 190.699L111.525 203.046C124.852 208.93 148.733 222.929 157.207 215.577L166.522 179.877L166.532 169.307L166.074 168.175L150.66 130.999L137.634 110.587L123.867 85.3454C121.788 83.874 119.052 83.6008 116.766 84.7259C113.431 86.3687 110.804 89.488 109.424 92.9095C108.894 94.2237 108.551 95.6239 108.476 97.0405L108.474 97.0403Z" fill="#FFBE97"/>
<path d="M116.251 124.061C116.532 124.299 116.93 124.388 117.306 124.26C117.876 124.066 118.181 123.445 117.987 122.876L110.291 100.287C110.09 99.7191 109.477 99.4098 108.907 99.6058C108.337 99.7994 108.032 100.42 108.226 100.99L115.922 123.579C115.989 123.773 116.104 123.936 116.251 124.061Z" fill="#4F2B2B"/>
<path d="M102.929 138.002C103.174 138.21 103.505 138.307 103.841 138.238C104.432 138.121 104.818 137.55 104.703 136.959L101.768 121.955C101.65 121.366 101.078 120.977 100.489 121.093C99.8972 121.21 99.5113 121.781 99.6266 122.372L102.561 137.376C102.611 137.629 102.744 137.847 102.929 138.002Z" fill="#4F2B2B"/>
<path d="M95.1577 149.3C95.4048 149.508 95.7379 149.605 96.0764 149.534C96.6681 149.414 97.0496 148.839 96.9293 148.249L95.3247 140.319C95.2068 139.73 94.6341 139.344 94.0399 139.466C93.4482 139.587 93.0667 140.162 93.187 140.751L94.7916 148.681C94.8412 148.932 94.9749 149.145 95.1577 149.3Z" fill="#4F2B2B"/>
<path d="M152.905 129.625C153.378 129.976 154.043 129.892 154.41 129.428C154.784 128.956 154.705 128.271 154.235 127.895C153.493 127.304 152.725 126.716 151.935 126.109C147.543 122.734 142.565 118.906 137.383 111.617C137.023 111.12 136.351 111.012 135.862 111.357C135.369 111.706 135.254 112.387 135.602 112.879C140.971 120.437 146.089 124.371 150.606 127.842C151.386 128.439 152.142 129.023 152.876 129.606C152.886 129.613 152.896 129.62 152.903 129.625H152.905Z" fill="#4F2B2B"/>
<path d="M251.047 217.266L243.669 255.038L288.106 263.719L293.626 238.443C279.467 234.185 266.226 225.935 253.903 217.369L251.049 217.264L251.047 217.266Z" fill="#FFBE97"/>
<path d="M253.9 217.373C266.225 225.937 279.464 234.189 293.623 238.447L297.871 218.988L253.897 217.373H253.9Z" fill="#4F2B2B"/>
<path d="M404.509 184.031L409.65 146.01C410.478 139.889 414.974 134.902 420.976 133.445L447.069 127.113L404.509 184.031Z" fill="#FFBE97"/>
<path d="M469.938 220.153C465.517 235.164 449.743 243.805 434.752 239.321C424.925 236.381 415.046 231.086 409.692 221.591C396.546 198.281 409.838 158.395 409.838 158.395L476.829 196.764L469.938 220.153Z" fill="#FFBE97"/>
<path d="M409.836 158.394L455.149 120.317C458.425 117.675 463.154 117.874 466.197 120.783C469.26 123.711 469.653 128.468 467.112 131.86L432.506 175.771L409.834 158.394H409.836Z" fill="#FFBE97"/>
<path d="M418.512 177.618L456.173 144.702C459.343 141.932 464.077 141.944 467.23 144.731C470.408 147.537 470.987 152.275 468.582 155.764L440.058 197.129L418.512 177.618Z" fill="#FFBE97"/>
<path d="M426.488 192.698L464.149 159.782C467.32 157.012 472.053 157.024 475.207 159.811C478.385 162.617 478.963 167.355 476.558 170.845L448.035 212.209L426.488 192.698Z" fill="#FFBE97"/>
<path d="M431.88 209.987L469.541 177.071C472.712 174.301 477.445 174.313 480.599 177.1C483.776 179.906 484.355 184.644 481.95 188.134L453.426 229.498L431.88 209.987Z" fill="#FFBE97"/>
<path d="M433.297 169.595L433.296 169.595C432.911 169.241 432.888 168.644 433.239 168.262L433.239 168.262L455.474 144.066C455.828 143.68 456.425 143.658 456.807 144.009L456.807 144.009C457.192 144.362 457.215 144.959 456.864 145.341L456.864 145.341L434.629 169.537C434.629 169.537 434.629 169.537 434.629 169.537C434.444 169.74 434.19 169.842 433.935 169.843L433.297 169.595ZM433.297 169.595C433.478 169.759 433.705 169.842 433.933 169.843L433.297 169.595Z" fill="#4F2B2B" stroke="#4F2B2B" stroke-width="0.3"/>
<path d="M448.915 177.233L448.914 177.233C448.529 176.879 448.506 176.282 448.857 175.9L448.857 175.9L467.6 155.503C467.954 155.118 468.553 155.095 468.933 155.446C469.318 155.8 469.341 156.397 468.99 156.779L468.99 156.779L450.247 177.175C450.247 177.175 450.247 177.175 450.247 177.175C450.062 177.378 449.809 177.48 449.553 177.481L448.915 177.233ZM448.915 177.233C449.096 177.397 449.323 177.48 449.551 177.481L448.915 177.233Z" fill="#4F2B2B" stroke="#4F2B2B" stroke-width="0.3"/>
<path d="M426.367 149.88L426.366 149.879C425.981 149.525 425.958 148.929 426.309 148.546L426.309 148.546L445.052 128.15C445.406 127.765 446.005 127.741 446.385 128.093C446.77 128.447 446.793 129.043 446.442 129.425L446.442 129.425L427.699 149.822C427.699 149.822 427.699 149.822 427.699 149.822C427.514 150.024 427.261 150.127 427.005 150.127L426.367 149.88ZM426.367 149.88C426.548 150.044 426.775 150.127 427.003 150.127L426.367 149.88Z" fill="#4F2B2B" stroke="#4F2B2B" stroke-width="0.3"/>
<path d="M460.688 188.583L460.688 188.582C460.302 188.228 460.28 187.632 460.631 187.249L460.631 187.249L473.196 173.575C473.196 173.575 473.196 173.575 473.196 173.575C473.549 173.19 474.148 173.167 474.528 173.518C474.914 173.872 474.936 174.469 474.585 174.851L474.585 174.851L462.021 188.525L460.688 188.583ZM460.688 188.583C460.87 188.747 461.097 188.83 461.324 188.83L460.688 188.583ZM461.327 188.83C461.582 188.83 461.835 188.727 462.02 188.525L461.327 188.83ZM461.327 188.83V188.68V188.83Z" fill="#4F2B2B" stroke="#4F2B2B" stroke-width="0.3"/>
<path d="M159.783 228.419C181.152 217.333 197.416 219.927 220.793 225.676L332.176 253.071C355.184 258.409 364.659 266.527 370.489 276.456L378.777 290.79L408.806 222.383L470.495 249.548C466.002 273.079 461.307 328.141 448.423 354.25C410.08 431.939 331.835 377.455 331.835 377.455L325.441 400.485H143.546L156.954 322.556C156.954 322.556 70.0555 329.195 71.4932 284.636C73.1902 232.003 103.187 196.346 103.187 196.346L164.877 198.609L159.783 228.417V228.419Z" fill="#E95D9A"/>
<path d="M277.362 182.505C295.41 180.805 309.171 170.177 308.096 158.767C307.021 147.356 291.519 139.484 273.47 141.184C255.421 142.884 241.661 153.512 242.736 164.922C243.81 176.333 259.313 184.205 277.362 182.505Z" fill="#4F2B2B"/>
<path d="M231.843 212.764C241.398 231.514 270.313 237.452 292.814 225.986C315.316 214.518 322.884 189.989 313.326 171.238C303.771 152.488 277.782 146.584 255.281 158.05C232.779 169.518 222.285 194.014 231.84 212.764H231.843Z" fill="#FFBE97"/>
<path d="M288.343 195.051C292.181 194.103 294.878 191.661 294.368 189.596C293.858 187.532 290.334 186.628 286.496 187.576C282.659 188.524 279.961 190.966 280.471 193.03C280.981 195.095 284.506 195.999 288.343 195.051Z" fill="#FB8876"/>
<path d="M308.404 172.688L321.036 179.775C322.668 180.692 322.923 182.936 321.538 184.194L314.916 190.204L308.404 172.688Z" fill="#FFBE97"/>
<path d="M296.871 201.247L296.871 201.247L296.87 201.247C296.375 201.107 295.847 201.391 295.704 201.895C295.561 202.396 295.849 202.919 296.352 203.062C300.174 204.153 304.115 204.705 308.084 204.705H308.087C308.407 204.705 308.728 204.7 309.048 204.693C309.567 204.681 309.981 204.25 309.969 203.728L309.969 203.728C309.958 203.217 309.573 202.781 309.003 202.806C304.888 202.899 300.816 202.373 296.871 201.247Z" fill="#4F2B2B" stroke="#4F2B2B" stroke-width="0.3"/>
<path d="M305.57 181.931C304.737 182.459 303.635 182.212 303.107 181.379L301.564 178.945C301.036 178.113 301.283 177.011 302.116 176.483C302.949 175.955 304.05 176.202 304.578 177.035L306.122 179.469C306.65 180.301 306.403 181.403 305.57 181.931Z" fill="#4F2B2B"/>
<path d="M293.877 178.198C293.979 178.275 294.092 178.329 294.209 178.358L294.181 178.387H294.422C294.689 178.387 294.954 178.268 295.13 178.041C297.115 175.48 299.891 173.468 302.94 172.373L302.94 172.373C303.405 172.206 303.648 171.695 303.481 171.23C303.313 170.763 302.8 170.522 302.338 170.69C298.971 171.896 295.91 174.118 293.719 176.943C293.413 177.333 293.487 177.895 293.876 178.198L293.876 178.198L293.877 178.198Z" fill="#4F2B2B" stroke="#4F2B2B" stroke-width="0.2"/>
<path d="M258.826 149.565C258.826 149.565 282.773 139.506 294.293 146.546C303.693 152.289 302.557 163.69 301.65 165.411L294.104 168.994V163.335L288.255 174.654L278.068 180.503L277.315 171.637C277.315 171.637 265.995 190.879 267.128 202.011L260.902 190.315L258.826 149.565Z" fill="#4F2B2B"/>
<path d="M268.825 150.511C268.825 150.511 255.826 143.596 238.83 153.717C222.041 163.716 212.608 185.222 218.832 205.22C225.055 225.218 208.079 252.95 208.079 252.95L232.604 257.1L237.131 245.97L238.828 258.799L255.43 258.989L264.109 187.867L268.825 150.513V150.511Z" fill="#4F2B2B"/>
<path d="M267.293 207.525C270.96 203.193 270.421 196.708 266.089 193.04C261.757 189.373 255.272 189.912 251.604 194.244C247.937 198.576 248.476 205.061 252.808 208.728C257.14 212.396 263.625 211.857 267.293 207.525Z" fill="#FFBE97"/>
<path d="M257.583 203.909L262.977 201.384C263.845 200.978 264.22 199.943 263.812 199.075C263.406 198.206 262.372 197.831 261.503 198.239L256.11 200.764C255.241 201.17 254.866 202.204 255.274 203.073C255.68 203.942 256.715 204.317 257.583 203.909Z" fill="#4F2B2B"/>
<path d="M156.586 320.722L156.734 320.744L156.586 320.722C156.509 321.236 156.861 321.719 157.377 321.794C157.427 321.803 157.476 321.806 157.519 321.806C157.979 321.806 158.381 321.469 158.452 321.002L158.453 321.001L164.112 283.081L164.112 283.081C164.189 282.566 163.836 282.083 163.319 282.008C162.808 281.926 162.323 282.289 162.246 282.801L162.246 282.802L156.586 320.722Z" fill="#4F2B2B" stroke="#4F2B2B" stroke-width="0.3"/>
<path d="M377.297 292.137L377.297 292.137C388.162 306.653 397.217 322.497 404.211 339.232C404.362 339.597 404.714 339.814 405.082 339.814C405.206 339.814 405.328 339.788 405.445 339.741L405.446 339.74C405.929 339.54 406.154 338.986 405.954 338.507L405.954 338.507C398.898 321.627 389.766 305.646 378.809 291.007C378.498 290.59 377.908 290.502 377.488 290.816L377.488 290.816L377.488 290.816C377.072 291.129 376.983 291.717 377.297 292.137Z" fill="#4F2B2B" stroke="#4F2B2B" stroke-width="0.3"/>
<path d="M108.734 254.903L108.734 254.903C108.309 255.208 108.212 255.796 108.514 256.221H108.514C108.697 256.479 108.989 256.615 109.282 256.615C109.473 256.615 109.664 256.558 109.829 256.441L109.83 256.441C121.776 247.911 142.465 235.964 157.274 230.627L157.223 230.486L157.274 230.627C157.765 230.45 158.018 229.908 157.842 229.417L157.841 229.417C157.664 228.928 157.125 228.678 156.636 228.849L156.636 228.849L156.634 228.849C141.496 234.306 121.08 246.087 108.734 254.903Z" fill="#4F2B2B" stroke="#4F2B2B" stroke-width="0.3"/>
</g>
</svg>
