<svg width="700" height="400" viewBox="0 0 700 400" fill="none" xmlns="http://www.w3.org/2000/svg">
<mask id="mask0_574_9219" style="mask-type:alpha" maskUnits="userSpaceOnUse" x="0" y="0" width="700" height="400">
<rect width="700" height="400" transform="matrix(-1 0 0 1 700 0)" fill="white"/>
</mask>
<g mask="url(#mask0_574_9219)">
<path d="M49.534 193.215C50.5054 193.861 51.7423 193.79 52.6279 193.131L94.2563 239.537C94.1593 239.641 94.0681 239.754 93.986 239.875C93.1641 241.115 93.5016 242.785 94.7397 243.608C95.9778 244.431 97.6493 244.093 98.4727 242.854C98.604 242.656 98.7034 242.447 98.777 242.232L132.455 250.305C132.313 251.302 132.734 252.337 133.629 252.93C134.867 253.754 136.539 253.415 137.362 252.177C137.725 251.628 137.861 250.996 137.795 250.389L175.053 242.716C175.23 243.293 175.598 243.815 176.14 244.176C176.728 244.566 177.411 244.691 178.055 244.589L200.445 331.654C199.917 331.841 199.443 332.195 199.108 332.696C198.285 333.934 198.623 335.606 199.862 336.429C201.1 337.253 202.771 336.914 203.595 335.676C203.833 335.314 203.971 334.917 204.02 334.516L312.652 337.79C312.021 338.996 312.392 340.509 313.55 341.279C314.788 342.102 316.46 341.764 317.283 340.525C317.358 340.412 317.42 340.296 317.475 340.176L355.082 353.682C354.804 354.763 355.217 355.946 356.198 356.597C356.692 356.925 357.254 357.065 357.805 357.041L364.641 407.119L363.996 406.9L364.709 407.602L364.75 407.904L364.911 407.8L425.943 467.926C425.888 467.995 425.834 468.066 425.783 468.141C424.96 469.379 425.299 471.051 426.537 471.874C427.775 472.697 429.447 472.359 430.27 471.12C431.093 469.882 430.754 468.211 429.516 467.387C429.056 467.081 428.534 466.937 428.019 466.94L424.355 428.607C424.4 428.551 424.444 428.493 424.486 428.43C424.692 428.122 424.823 427.785 424.889 427.441L489.94 433.63C489.939 434.505 490.36 435.36 491.143 435.88C492.381 436.704 494.052 436.365 494.876 435.127C495.699 433.889 495.36 432.217 494.122 431.394C493.633 431.068 493.073 430.927 492.528 430.95L486.585 386.028C487.234 385.88 487.833 385.495 488.231 384.894C488.766 384.089 488.807 383.103 488.436 382.286L516.421 366.22C516.608 366.487 516.845 366.725 517.132 366.915C518.371 367.738 520.042 367.399 520.865 366.161C521.689 364.923 521.35 363.252 520.112 362.428C519.359 361.93 518.449 361.86 517.664 362.157L501.905 330.038C502.231 329.841 502.52 329.572 502.746 329.232C503.484 328.12 503.286 326.662 502.342 325.778L526.031 297.854C527.268 298.654 528.92 298.313 529.737 297.083C530.56 295.845 530.221 294.173 528.983 293.35C528.767 293.207 528.538 293.1 528.301 293.026L533.35 266.042C534.304 266.13 535.275 265.705 535.841 264.85C535.989 264.628 536.097 264.391 536.17 264.149L577.03 272.65C576.922 273.621 577.344 274.618 578.215 275.195C579.453 276.018 581.124 275.679 581.948 274.441C582.771 273.203 582.432 271.532 581.194 270.708C581.103 270.648 581.01 270.597 580.915 270.548L603.413 213.251C604.513 213.57 605.739 213.157 606.405 212.154C607.228 210.916 606.889 209.244 605.651 208.421C604.413 207.598 602.742 207.936 601.918 209.175C601.683 209.528 601.546 209.918 601.495 210.312L511.468 206.789C511.384 206.023 510.974 205.299 510.282 204.84C509.044 204.016 507.373 204.355 506.549 205.593C505.726 206.832 506.065 208.503 507.303 209.326C507.426 209.407 507.555 209.474 507.686 209.535L499.03 240.019C497.983 239.799 496.858 240.216 496.231 241.162C496.027 241.469 495.895 241.804 495.829 242.145L421.061 237.203C421.038 236.357 420.618 235.535 419.861 235.03C418.622 234.207 416.951 234.546 416.127 235.784C415.304 237.022 415.643 238.693 416.881 239.517C417.165 239.706 417.474 239.83 417.786 239.9L413.433 274.284C412.532 274.253 411.635 274.675 411.1 275.484L411.222 275.268L334.465 231.976C334.995 230.795 334.612 229.373 333.5 228.634C332.926 228.253 332.26 228.125 331.628 228.215L323.059 192.379C323.604 192.194 324.095 191.838 324.437 191.32C325.259 190.08 324.921 188.411 323.683 187.587C322.445 186.764 320.773 187.103 319.95 188.341C319.629 188.823 319.486 189.373 319.505 189.912L264.273 196.715C264.129 196.054 263.742 195.449 263.134 195.045C261.896 194.222 260.225 194.561 259.401 195.799C259.059 196.315 258.919 196.905 258.963 197.478L225.339 203.005C225.178 202.386 224.799 201.823 224.226 201.441C222.988 200.618 221.316 200.957 220.493 202.195C220.405 202.326 220.335 202.463 220.273 202.601L160.643 183.976C160.842 182.941 160.419 181.844 159.488 181.225C158.786 180.76 157.946 180.666 157.199 180.898L140.036 141.608C140.421 141.405 140.763 141.104 141.023 140.716C141.846 139.478 141.507 137.807 140.269 136.983C139.029 136.161 137.36 136.499 136.536 137.737C136.531 137.747 136.526 137.757 136.519 137.764L105.967 125.354L89.8174 118.793C90.03 117.749 89.6128 116.633 88.6702 116.007C87.4321 115.183 85.7606 115.522 84.9372 116.76C84.2979 117.724 84.361 118.945 85.0012 119.829L59.1356 148.207C59.1055 148.185 59.0759 148.161 59.0423 148.138C57.8042 147.315 56.1327 147.654 55.3093 148.892C54.4859 150.13 54.8248 151.802 56.0629 152.625C56.357 152.82 56.6752 152.949 57.0008 153.015L51.2116 188.287C50.2771 188.222 49.3351 188.645 48.7804 189.482C47.957 190.721 48.296 192.392 49.534 193.215ZM87.1735 120.942C88.048 120.943 88.9038 120.523 89.4238 119.74C89.5238 119.588 89.605 119.431 89.6724 119.271L107.984 126.709L136.288 138.205C136.188 138.448 136.127 138.7 136.102 138.955L86.0544 145.924L87.1749 120.944L87.1735 120.942ZM262.825 199.708L276.037 221.456L246.474 241.905C246.312 241.712 246.121 241.535 245.901 241.389C245.797 241.319 245.688 241.263 245.577 241.209L260.945 199.889C261.577 200.06 262.246 199.992 262.825 199.708ZM320.134 191.559C320.296 191.752 320.486 191.929 320.707 192.075C320.837 192.16 320.967 192.229 321.103 192.289L299.565 256.058C298.957 255.914 298.319 255.987 297.765 256.257L276.705 221.595L320.132 191.557L320.134 191.559ZM481.401 386.238L473.911 355.337L484.722 381.03C484.341 381.233 484.005 381.532 483.746 381.916C483.17 382.784 483.166 383.861 483.637 384.712L481.401 386.238ZM490.39 432.149C490.186 432.46 490.053 432.795 489.987 433.139L424.937 426.946C424.937 426.488 424.821 426.035 424.597 425.633L481.085 387.057L491.759 431.097C491.218 431.282 490.73 431.638 490.388 432.151L490.39 432.149ZM203.579 332.667C203.406 332.415 203.188 332.191 202.929 332.003L225.488 293.677C226.676 294.238 228.128 293.859 228.877 292.73L252.59 305.472L203.579 332.667ZM59.0572 152.619C59.104 152.587 59.1529 152.552 59.1969 152.516L82.2316 183.649C82.0641 183.799 81.9128 183.969 81.7821 184.164C81.44 184.676 81.3024 185.264 81.341 185.835L73.5994 187.083L59.0572 152.619ZM126.704 227.784L135.038 235.942C134.983 236.007 134.932 236.077 134.883 236.15C134.579 236.609 134.435 237.126 134.434 237.636L125.801 238.422L86.5805 188.503L126.704 227.784ZM135.384 235.587L106.243 207.058L86.1142 187.352C86.1685 187.286 86.2201 187.217 86.2687 187.143C86.5407 186.734 86.6834 186.279 86.7108 185.82L137.655 184.283L136.917 234.954C136.359 234.999 135.821 235.214 135.385 235.584L135.384 235.587ZM81.4205 186.326C81.5802 186.948 81.9587 187.515 82.5357 187.897C83.0931 188.268 83.7389 188.402 84.3558 188.325L95.4121 238.782L73.7984 187.554L81.4225 186.324L81.4205 186.326ZM97.7205 239.123C97.163 238.752 96.5173 238.619 95.9004 238.695L84.8403 188.219C85.0655 188.147 85.2832 188.046 85.4843 187.917L125.208 238.476L98.875 240.876C98.7454 240.184 98.3515 239.543 97.7185 239.125L97.7205 239.123ZM98.9236 241.37L125.576 238.941L133.27 248.733C133.126 248.87 132.992 249.025 132.877 249.196C132.746 249.394 132.647 249.603 132.573 249.819L98.8949 241.745C98.9134 241.62 98.925 241.494 98.9242 241.367L98.9236 241.37ZM135.282 248.001C134.713 247.968 134.143 248.112 133.661 248.425L126.167 238.888L134.479 238.13C134.608 238.822 135.002 239.463 135.635 239.881C135.897 240.056 136.181 240.176 136.472 240.248L135.282 248.001ZM139.708 236.878L171.44 224.233L176.544 239.471C176.09 239.671 175.684 239.998 175.386 240.443C175.187 240.744 175.057 241.071 174.99 241.403L139.817 237.675C139.82 237.406 139.784 237.137 139.708 236.878ZM220.739 205.485C220.887 205.648 221.057 205.8 221.25 205.928C221.629 206.179 222.044 206.322 222.465 206.364L224.152 242.868L180.317 241.752C180.284 241.262 180.119 240.789 179.834 240.382L220.741 205.484L220.739 205.485ZM414.379 279.461L426.647 305.359C426.285 305.561 425.961 305.849 425.717 306.22C425.598 306.401 425.506 306.59 425.434 306.786L415.175 305.262L413.91 279.606C414.072 279.572 414.228 279.523 414.382 279.461L414.379 279.461ZM531.172 262.208C530.801 262.986 530.835 263.879 531.219 264.615L516.212 274.382L500.07 244.816C500.317 244.635 500.538 244.41 500.718 244.142L531.17 262.209L531.172 262.208ZM499.647 245.074L515.796 274.655L469.105 305.042C468.932 304.826 468.726 304.631 468.483 304.47C468.456 304.453 468.426 304.437 468.399 304.42L497.557 245.18C498.249 245.43 499.001 245.383 499.645 245.075L499.647 245.074ZM228.127 288.998C228.023 288.928 227.917 288.872 227.807 288.818L243.709 246.229C244.448 246.431 245.239 246.304 245.878 245.89L266.698 272.305L228.961 289.886C228.759 289.541 228.481 289.235 228.127 288.998ZM246.268 245.581C246.412 245.444 246.542 245.292 246.659 245.12C246.777 244.942 246.867 244.755 246.939 244.562L296.401 257.816C296.323 258.05 296.277 258.288 296.265 258.527L267.164 272.085L246.27 245.579L246.268 245.581ZM296.288 259.066C296.34 259.409 296.454 259.742 296.632 260.043L283.263 285.126L281.969 287.556C281.155 287.212 280.237 287.297 279.504 287.749L267.474 272.49L296.284 259.069L296.288 259.066ZM282.414 287.793C282.414 287.793 282.413 287.791 282.411 287.789L283.7 285.369L296.962 260.485C297.107 260.644 297.274 260.791 297.463 260.917C297.774 261.124 298.113 261.257 298.457 261.323L303.257 284.154L283.453 289.108C283.263 288.589 282.913 288.12 282.416 287.792L282.414 287.793ZM229.17 290.337L267.015 272.705L279.11 288.049C278.95 288.194 278.805 288.36 278.681 288.547C278.423 288.937 278.279 289.368 278.242 289.804L229.311 290.933C229.288 290.731 229.24 290.531 229.17 290.337ZM313.722 336.692L282.697 292.059C282.872 291.906 283.032 291.727 283.168 291.526C283.562 290.932 283.687 290.24 283.577 289.589L303.357 284.643L314.253 336.462C314.068 336.519 313.892 336.597 313.723 336.694L313.722 336.692ZM303.839 284.521L326.853 278.763C327.05 279.241 327.386 279.664 327.85 279.971C328.031 280.09 328.221 280.185 328.416 280.255L320.518 314.326L315.409 336.366C315.184 336.336 314.96 336.332 314.739 336.359L303.839 284.521ZM421.388 424.388L411.612 401.681L405.571 387.645C405.945 387.441 406.275 387.149 406.527 386.769C407.023 386.025 407.094 385.125 406.806 384.346L418.825 378.589L421.781 424.285C421.646 424.31 421.515 424.344 421.386 424.385L421.388 424.388ZM393.512 304.563L415.256 341.619C415 341.804 414.767 342.034 414.584 342.314C414.265 342.795 414.122 343.341 414.138 343.88L398.999 346.62L393 304.742C393.177 304.7 393.35 304.639 393.515 304.563L393.512 304.563ZM414.196 344.373C414.34 345.034 414.727 345.643 415.337 346.047C415.491 346.149 415.649 346.233 415.814 346.299L404.824 382.642C404.602 382.597 404.376 382.582 404.153 382.593L399.07 347.111L414.198 344.372L414.196 344.373ZM406.593 383.898C406.393 383.565 406.12 383.267 405.774 383.036C405.622 382.936 405.462 382.851 405.3 382.785L409.231 369.806L416.306 346.446C416.454 346.476 416.603 346.49 416.752 346.495L418.793 378.056L406.592 383.901L406.593 383.898ZM417.247 346.461C417.965 346.346 418.636 345.947 419.07 345.294C419.246 345.028 419.365 344.744 419.438 344.454L470.258 352.226C470.237 352.599 470.293 352.969 470.422 353.318L419.277 377.82L417.249 346.459L417.247 346.461ZM470.699 350.897C470.524 351.162 470.404 351.447 470.331 351.737L419.512 343.965C419.545 343.423 419.41 342.88 419.128 342.412L444.021 324.008L470.865 350.675C470.806 350.746 470.752 350.821 470.7 350.899L470.699 350.897ZM418.833 342.012C418.682 341.845 418.511 341.691 418.317 341.561C418.258 341.52 418.196 341.488 418.136 341.454L427.293 310.312C428.128 310.525 429.023 310.326 429.689 309.772L443.664 323.655L418.833 342.012ZM426.473 309.951C426.586 310.027 426.706 310.089 426.824 310.146L417.676 341.253C417.435 341.173 417.19 341.13 416.942 341.118L415.198 305.768L425.304 307.268C425.136 308.281 425.558 309.348 426.469 309.951L426.473 309.951ZM416.446 341.143C416.231 341.173 416.017 341.228 415.814 341.31L393.948 304.306C394.202 304.122 394.43 303.893 394.614 303.615C394.792 303.348 394.912 303.06 394.984 302.764L414.698 305.691L416.445 341.141L416.446 341.143ZM331.581 279.219C331.603 279.185 331.621 279.151 331.642 279.115L366.053 292.305L389.775 301.398C389.621 301.949 389.651 302.529 389.844 303.055L346.546 323.722L330.337 280.229C330.828 280.034 331.267 279.693 331.581 279.219ZM391.094 304.499C391.539 304.739 392.024 304.839 392.502 304.815L398.505 346.711L360.287 353.631C360.141 353.105 359.835 352.621 359.385 352.256L391.094 304.499ZM360.378 354.12L398.577 347.204L403.658 382.666C403.093 382.801 402.572 383.114 402.188 383.592L360.067 355.627C360.324 355.153 360.424 354.628 360.378 354.12ZM402.794 387.526C403.506 387.998 404.36 388.086 405.115 387.843L409.519 398.075L420.931 424.589C420.836 424.644 420.741 424.704 420.651 424.77L390.836 391.244L401.801 384.24C401.309 385.41 401.698 386.797 402.794 387.526ZM423.5 424.553C423.112 424.349 422.694 424.25 422.277 424.244L419.309 378.356L470.634 353.768C470.788 354.027 470.986 354.262 471.227 354.463L423.5 424.553ZM471.214 350.324L444.422 323.71L464.987 308.505C465.138 308.673 465.309 308.826 465.504 308.957C465.992 309.282 466.549 309.423 467.092 309.401L472.348 349.763C471.937 349.857 471.547 350.045 471.214 350.324ZM464.692 308.105L444.066 323.354L430.04 309.42C430.099 309.349 430.153 309.274 430.204 309.196C430.474 308.792 430.616 308.34 430.646 307.885L464.322 307.026C464.365 307.405 464.492 307.772 464.692 308.102L464.692 308.105ZM413.413 279.663L414.672 305.186L395.056 302.274C395.096 301.529 394.829 300.788 394.29 300.239L411.997 279.301C412.441 279.558 412.931 279.676 413.411 279.665L413.413 279.663ZM411.591 279.012L393.909 299.921C393.892 299.909 393.876 299.895 393.859 299.883C392.621 299.06 390.949 299.399 390.126 300.637C390.062 300.733 390.005 300.833 389.955 300.935L336.893 280.594L331.859 278.666C331.923 278.494 331.968 278.316 331.996 278.139L410.686 277.376C410.781 277.998 411.088 278.584 411.591 279.015L411.591 279.012ZM326.705 278.288L303.736 284.031L298.969 261.365C299.791 261.357 300.593 260.971 301.113 260.267L326.849 276.699C326.637 277.212 326.595 277.763 326.705 278.284L326.705 278.288ZM242.922 245.873C243.026 245.943 243.132 245.999 243.242 246.052L227.34 288.642C227.149 288.59 226.954 288.559 226.761 288.552L224.674 243.376L241.729 243.809C241.785 244.617 242.199 245.39 242.926 245.873L242.922 245.873ZM179.875 243.418C180.118 243.054 180.255 242.651 180.303 242.244L224.174 243.359L226.263 288.573C225.776 288.641 225.309 288.84 224.921 289.161L179.698 243.654C179.761 243.58 179.821 243.501 179.875 243.418ZM229.113 292.288C229.231 292.009 229.3 291.718 229.319 291.425L278.24 290.297C278.268 290.578 278.342 290.854 278.456 291.117L253.106 305.183L229.111 292.29L229.113 292.288ZM278.699 291.55C278.889 291.83 279.135 292.077 279.433 292.278C280.323 292.868 281.433 292.859 282.294 292.35L313.313 336.975C313.183 337.084 313.062 337.206 312.952 337.343L253.629 305.466L278.7 291.556L278.699 291.55ZM316.536 336.788C316.331 336.652 316.115 336.552 315.894 336.479L328.897 280.382C329.219 280.435 329.547 280.431 329.861 280.368L346.098 323.936L317.358 337.654C317.158 337.317 316.884 337.021 316.536 336.788ZM346.721 324.189L390.057 303.504C390.217 303.771 390.422 304.016 390.679 304.222L358.97 351.979C358.346 351.643 357.64 351.579 356.991 351.754L346.719 324.19L346.721 324.189ZM359.791 356.039L401.583 383.786L390.5 390.863L359.66 356.185C359.706 356.138 359.748 356.09 359.791 356.039ZM420.281 425.099C420.18 425.206 420.086 425.32 420.002 425.446C419.917 425.572 419.849 425.705 419.788 425.839L365.519 407.411L390.411 391.511L420.279 425.097L420.281 425.099ZM424.32 425.217C424.226 425.104 424.12 424.996 424.006 424.897L423.989 424.718L471.639 354.74C472.17 355.035 472.764 355.129 473.332 355.047L480.965 386.534L424.324 425.218L424.32 425.217ZM516.178 365.786L488.193 381.853C488.006 381.586 487.769 381.348 487.482 381.158C487.298 381.035 487.104 380.943 486.904 380.87L492.834 357.991L515.971 364.211C515.878 364.746 515.953 365.295 516.177 365.784L516.178 365.786ZM486.423 380.746C486.005 380.678 485.578 380.71 485.181 380.836L474.21 354.763C474.59 354.56 474.927 354.261 475.186 353.876C475.304 353.699 475.395 353.512 475.465 353.322L492.355 357.862L486.423 380.746ZM475.594 352.844C475.719 352.119 475.542 351.372 475.1 350.781L498.592 329.636C498.718 329.764 498.861 329.882 499.016 329.986C499.176 330.093 499.345 330.178 499.516 330.245L492.482 357.385L475.596 352.846L475.594 352.844ZM498.276 329.25L477.951 347.546L498.02 326.705C497.668 327.549 497.775 328.509 498.276 329.25ZM474.623 350.286C474.562 350.238 474.499 350.191 474.434 350.145C473.945 349.82 473.388 349.679 472.845 349.701L467.589 309.339C468.241 309.192 468.841 308.805 469.24 308.204C469.592 307.675 469.73 307.066 469.676 306.478L524.932 296.411C525.051 296.783 525.253 297.133 525.527 297.429L474.622 350.289L474.623 350.286ZM469.586 305.989C469.534 305.807 469.467 305.629 469.378 305.458L516.035 275.092L526.005 293.353C525.716 293.547 525.459 293.796 525.255 294.106C524.883 294.664 524.752 295.308 524.827 295.923L469.588 305.988L469.586 305.989ZM526.443 293.12L516.453 274.823L531.495 265.035C531.667 265.251 531.874 265.446 532.117 265.607C532.355 265.765 532.608 265.879 532.87 265.953L527.821 292.925C527.351 292.869 526.876 292.937 526.444 293.122L526.443 293.12ZM535.095 261.118C533.887 260.316 532.272 260.618 531.429 261.782L501.101 243.788L576.592 272.049L536.283 263.664C536.391 262.692 535.969 261.695 535.098 261.118L535.095 261.118ZM577.47 271.465C577.402 271.567 577.343 271.675 577.292 271.784L501.102 243.26C501.193 242.865 501.193 242.458 501.106 242.07L535.08 231.804L577.583 271.316C577.546 271.366 577.507 271.415 577.471 271.467L577.47 271.465ZM496.988 244.896C497.028 244.923 497.071 244.944 497.111 244.968L467.956 304.199C467.196 303.906 466.352 303.984 465.662 304.376L452.428 285.477L496.679 244.654C496.776 244.741 496.876 244.823 496.988 244.896ZM465.254 304.661C465.066 304.821 464.895 305.007 464.751 305.226C464.482 305.63 464.34 306.082 464.31 306.537L430.634 307.396C430.579 306.922 430.395 306.465 430.101 306.079L452.059 285.821L465.254 304.665L465.254 304.661ZM429.761 305.71C429.663 305.623 429.562 305.54 429.45 305.466C428.957 305.138 428.394 304.998 427.846 305.021L418.979 239.896C419.233 239.837 419.476 239.742 419.706 239.612L451.77 285.404L429.759 305.708L429.761 305.71ZM418.487 239.964L427.352 305.087C427.268 305.107 427.184 305.129 427.102 305.159L414.818 279.229C415.116 279.035 415.379 278.778 415.588 278.465C416.41 277.225 416.072 275.556 414.834 274.732C414.55 274.543 414.241 274.419 413.929 274.35L418.283 239.967C418.352 239.971 418.42 239.969 418.489 239.966L418.487 239.964ZM410.657 276.88L332.026 277.644C331.999 276.804 331.579 275.988 330.825 275.487C330.486 275.263 330.114 275.126 329.735 275.07L332.105 233.568C332.926 233.54 333.72 233.135 334.221 232.411L410.972 275.701C410.77 276.076 410.667 276.479 410.655 276.882L410.657 276.88ZM330.524 233.121C330.863 233.345 331.235 233.482 331.612 233.54L329.294 274.128L326.204 236.088L330.121 232.797C330.241 232.916 330.376 233.028 330.523 233.125L330.524 233.121ZM328.871 275.08C328.169 275.204 327.518 275.6 327.092 276.241C327.088 276.247 327.084 276.255 327.078 276.263L301.368 259.846C301.797 258.96 301.699 257.927 301.155 257.142L325.736 236.477L328.87 275.078L328.871 275.08ZM300.837 256.761C300.717 256.642 300.581 256.53 300.434 256.433C300.306 256.35 300.174 256.278 300.039 256.219L321.576 192.449C321.772 192.494 321.969 192.52 322.168 192.523L325.688 235.871L300.837 256.761ZM297.343 256.516C297.098 256.696 296.881 256.918 296.701 257.187C296.665 257.243 296.633 257.301 296.6 257.358L247.064 244.086C247.168 243.476 247.057 242.85 246.757 242.313L276.298 221.88L297.343 256.516ZM242.91 241.396C242.625 241.586 242.37 241.838 242.168 242.143C241.925 242.507 241.788 242.91 241.74 243.317L224.651 242.883L222.963 206.368C223.224 206.346 223.479 206.286 223.722 206.191L242.909 241.399L242.91 241.396ZM220.44 205.084L179.508 240.003C179.391 239.888 179.262 239.781 179.121 239.688C178.475 239.26 177.715 239.149 177.017 239.314L171.903 224.049L220.276 204.771C220.325 204.88 220.379 204.984 220.442 205.086L220.44 205.084ZM171.281 223.759L139.524 236.415C139.319 236.015 139.016 235.66 138.615 235.395C138.519 235.331 138.421 235.278 138.321 235.227L153.464 195.952L157.277 186.059C157.733 186.186 158.21 186.186 158.656 186.074L171.28 223.757L171.281 223.759ZM156.509 185.712C156.606 185.777 156.709 185.832 156.814 185.883L137.859 235.047C137.711 235.005 137.564 234.977 137.413 234.961L138.152 184.269L155.321 183.751C155.403 184.522 155.813 185.252 156.509 185.712ZM137.662 183.786L86.6947 185.325C86.6398 184.887 86.4785 184.465 86.2184 184.098L136.632 140.847C136.81 141.084 137.028 141.295 137.288 141.468C137.595 141.672 137.931 141.804 138.271 141.87L137.659 183.785L137.662 183.786ZM136.099 139.457C136.129 139.791 136.22 140.119 136.37 140.421L85.8974 183.722C85.7817 183.609 85.6538 183.504 85.5145 183.414C85.1644 183.182 84.7833 183.046 84.3931 182.991L86.0329 146.431L136.1 139.459L136.099 139.457ZM83.896 182.966C83.4496 182.987 83.016 183.118 82.6304 183.351L59.5622 152.175C59.6469 152.079 59.7267 151.981 59.7994 151.872C60.1761 151.305 60.308 150.648 60.2219 150.023L85.5303 146.498L83.896 182.966ZM58.6157 152.856L73.0909 187.163L53.6286 190.3C53.4689 189.677 53.0904 189.111 52.5134 188.729C52.2578 188.559 51.9841 188.441 51.7024 188.368L57.4959 153.072C57.8802 153.079 58.2606 153.007 58.6157 152.856ZM52.9969 192.8C53.0938 192.695 53.185 192.583 53.267 192.462C53.6091 191.949 53.7467 191.361 53.7081 190.79L73.2899 187.634L94.9575 238.991C94.8431 239.053 94.7303 239.126 94.6252 239.206L52.9969 192.8ZM137.696 249.901C137.519 249.323 137.15 248.802 136.609 248.44C136.347 248.265 136.063 248.146 135.772 248.073L136.963 240.321C137.888 240.377 138.818 239.953 139.367 239.126C139.566 238.825 139.695 238.498 139.763 238.165L174.936 241.894C174.934 242.004 174.939 242.115 174.95 242.226L137.692 249.9L137.696 249.901ZM178.536 244.461C178.826 244.359 179.099 244.207 179.343 244.006L224.566 289.513C224.503 289.587 224.443 289.666 224.389 289.749C223.585 290.958 223.891 292.58 225.06 293.421L202.501 331.747C201.998 331.51 201.452 331.441 200.928 331.525L178.538 244.46L178.536 244.461ZM204.039 334.014C204.02 333.7 203.944 333.388 203.817 333.098L253.108 305.749L311.751 337.262L204.037 334.015L204.039 334.014ZM317.648 339.703C317.787 339.168 317.753 338.609 317.568 338.102L346.268 324.403L356.524 351.926C356.102 352.131 355.726 352.443 355.448 352.861C355.373 352.975 355.312 353.091 355.256 353.211L317.649 339.705L317.648 339.703ZM358.301 356.97C358.653 356.887 358.989 356.734 359.286 356.517L390.072 391.136L365.138 407.062L358.299 356.971L358.301 356.97ZM427.524 466.983C427.077 467.068 426.65 467.267 426.293 467.569L365.895 408.065L419.628 426.308C419.374 427.376 419.789 428.536 420.755 429.179C421.748 429.838 423.012 429.75 423.902 429.057L427.528 466.983L427.524 466.983ZM491.773 429.036L481.524 386.753L483.914 385.122C484.078 385.32 484.273 385.499 484.498 385.647C484.987 385.973 485.547 386.114 486.094 386.093L491.774 429.038L491.773 429.036ZM517.218 362.373C516.892 362.571 516.601 362.841 516.377 363.18C516.259 363.357 516.171 363.543 516.098 363.734L492.956 357.511L499.988 330.382C500.484 330.479 500.992 330.429 501.459 330.254L517.218 362.373ZM501.949 325.471C501.148 324.961 500.176 324.925 499.369 325.299L522.261 301.528L501.951 325.47L501.949 325.471ZM580.455 270.364C579.569 270.108 578.606 270.327 577.913 270.945L535.623 231.633L601.664 211.677C601.861 212.161 602.201 212.594 602.668 212.907C602.759 212.968 602.854 213.02 602.947 213.067L580.453 270.365L580.455 270.364ZM601.475 210.808C601.482 210.94 601.496 211.072 601.523 211.202L535.205 231.24L510.948 208.689C510.978 208.65 511.008 208.611 511.036 208.569C511.301 208.172 511.443 207.729 511.477 207.283L601.475 210.808ZM508.153 209.696C509.021 209.908 509.947 209.675 510.613 209.06L534.651 231.407L500.946 241.59C500.747 241.123 500.415 240.706 499.961 240.405C499.814 240.307 499.661 240.227 499.503 240.161L508.153 209.696ZM495.78 242.637C495.778 243.228 495.97 243.81 496.336 244.285L452.134 285.061L420.108 239.324C420.297 239.164 420.467 238.978 420.611 238.759C420.831 238.427 420.966 238.065 421.026 237.695L495.779 242.635L495.78 242.637ZM329.766 229.386C329.138 230.332 329.188 231.529 329.798 232.41L326.152 235.476L322.705 193.03L331.144 228.329C330.599 228.514 330.108 228.87 329.765 229.389L329.766 229.386ZM319.567 190.403C319.624 190.663 319.719 190.915 319.851 191.147L276.447 221.169L263.249 199.448C263.493 199.267 263.713 199.044 263.89 198.777C264.211 198.295 264.354 197.745 264.335 197.206L319.567 190.403ZM259.042 197.969C259.202 198.588 259.582 199.151 260.155 199.532C260.259 199.602 260.368 199.659 260.478 199.712L245.111 241.032C244.519 240.873 243.898 240.922 243.345 241.158L224.164 205.964C224.479 205.768 224.761 205.503 224.978 205.172C225.321 204.656 225.46 204.067 225.417 203.493L259.041 197.967L259.042 197.969ZM220.115 203.072C220.02 203.479 220.023 203.899 220.117 204.297L171.744 223.575L159.128 185.911C159.566 185.71 159.958 185.39 160.244 184.956C160.351 184.793 160.437 184.627 160.506 184.451L220.119 203.07L220.115 203.072ZM156.739 181.086C156.353 181.29 156.011 181.59 155.752 181.978C155.489 182.374 155.346 182.811 155.312 183.253L138.158 183.77L138.77 141.915C139.043 141.915 139.316 141.875 139.574 141.794L156.739 181.086ZM85.3311 120.205C85.4411 120.31 85.5599 120.406 85.6908 120.493C85.999 120.699 86.3344 120.832 86.678 120.898L85.5532 145.993L60.1094 149.537C59.9886 149.169 59.787 148.825 59.5114 148.535L85.3326 120.207L85.3311 120.205Z" fill="#8FC6D7"/>
<rect x="438.566" y="44" width="216" height="118" rx="10.2268" fill="#9F5656"/>
<path fill-rule="evenodd" clip-rule="evenodd" d="M431.509 90.8548C412.304 86.5379 399.921 94.5966 379.005 111.083C392.886 81.5097 405.034 68.9314 433.663 56.3336C435.535 53.9316 438.455 52.3867 441.736 52.3867H637.449C643.097 52.3867 647.676 56.9654 647.676 62.6135V159.712C647.676 165.36 643.097 169.939 637.449 169.939H441.736C436.087 169.939 431.509 165.36 431.509 159.712V90.8548Z" fill="#F4C9C9"/>
<rect x="451.675" y="67.0605" width="75.4656" height="87.3445" rx="10" fill="#F7FDFE"/>
<mask id="mask1_574_9219" style="mask-type:alpha" maskUnits="userSpaceOnUse" x="451" y="67" width="77" height="88">
<rect x="451.675" y="67.0605" width="75.4656" height="87.3445" rx="10" fill="#F7FDFE"/>
</mask>
<g mask="url(#mask1_574_9219)">
<path d="M461.3 111.421C462.071 111.63 462.54 112.405 462.367 113.186V113.186C462.207 113.905 461.528 114.402 460.806 114.354L461.3 111.421ZM461.3 111.421C461.211 111.397 461.147 111.334 461.112 111.256L461.3 111.421ZM456.837 114.992C455.977 114.913 455.197 114.461 454.701 113.754L455.52 113.18L454.702 113.755C454.205 113.048 454.044 112.162 454.262 111.326L456.837 114.992ZM456.837 114.992L460.714 115.35L460.727 115.351L460.74 115.352C461.948 115.432 463.075 114.61 463.343 113.404L463.367 113.296V113.282C463.563 112.139 462.945 111.024 461.899 110.573L461.838 110.437L461.414 110.303L458.178 109.277L457.923 109.196L457.829 109.217C457.112 109.034 456.362 109.126 455.704 109.482L455.704 109.482L455.703 109.483C454.984 109.874 454.469 110.532 454.262 111.325L456.837 114.992Z" fill="#FFBE97" stroke="#FFBE97" stroke-width="2"/>
<path d="M464.378 110.137C464.981 108.836 464.51 107.305 463.31 106.561L463.27 106.497L463.06 106.374L459.759 104.431L459.758 104.43C459.7 104.396 459.638 104.354 459.569 104.302L459.331 104.122L459.186 104.112C458.422 103.712 457.545 103.622 456.709 103.863L456.709 103.863L456.708 103.864C455.812 104.123 455.079 104.729 454.658 105.562C454.212 106.438 454.176 107.461 454.556 108.366L455.478 107.979L454.555 108.365C454.934 109.272 455.691 109.963 456.627 110.26L456.627 110.26L461.009 111.651L461.019 111.654L461.028 111.656C462.359 112.05 463.794 111.396 464.378 110.137ZM464.378 110.137L463.47 109.717M464.378 110.137C464.378 110.137 464.378 110.137 464.378 110.137L463.47 109.717M463.47 109.717C463.095 110.528 462.165 110.949 461.312 110.697L463.123 106.455M463.47 109.717C463.879 108.835 463.524 107.791 462.661 107.342M462.661 107.342L462.796 107.082L463.123 106.455M462.661 107.342C462.614 107.317 462.579 107.278 462.553 107.235L463.123 106.455M462.661 107.342L462.796 107.082L463.123 106.455C463.123 106.455 463.123 106.455 463.123 106.455" fill="#FFBE97" stroke="#FFBE97" stroke-width="2"/>
<path d="M458.553 105.293C457.974 104.792 457.581 104.105 457.448 103.338C457.28 102.37 457.545 101.381 458.173 100.627L458.553 105.293ZM458.553 105.293V105.357L459.046 105.647L463.009 107.979L463.017 107.984L463.025 107.989C464.237 108.671 465.782 108.351 466.63 107.254C467.545 106.071 467.378 104.385 466.251 103.405L463.049 100.348C463.049 100.348 463.049 100.348 463.049 100.348C462.423 99.7506 461.608 99.4238 460.746 99.4238C460.687 99.4238 460.62 99.425 460.548 99.4296C459.617 99.4829 458.769 99.9111 458.173 100.627L458.553 105.293Z" fill="#FFBE97" stroke="#FFBE97" stroke-width="2"/>
<path d="M477.116 95.7162C476.362 95.6834 475.595 96.0869 475.104 96.7778C474.451 97.6951 473.241 99.3807 472.469 100.353C472.108 100.808 471.568 101.086 470.987 101.114C470.41 101.148 469.84 100.919 469.434 100.5L460.149 90.9061C459.695 90.5631 459.094 90.4083 458.487 90.5011C457.881 90.5939 457.353 90.921 457 91.4218C456.417 92.2492 456.464 93.368 457.115 94.1428L462.311 100.249C462.328 100.269 462.337 100.293 462.348 100.316C462.495 100.413 462.638 100.518 462.769 100.643L465.977 103.707C466.946 104.531 467.097 105.984 466.308 107.003C465.84 107.609 465.122 107.936 464.394 107.936C464.255 107.936 464.116 107.919 463.978 107.895C464.288 108.526 464.327 109.281 464.01 109.967C463.679 110.681 463.024 111.161 462.29 111.31C462.838 111.797 463.115 112.551 462.946 113.315C462.734 114.269 461.872 114.949 460.907 114.949C460.858 114.949 460.809 114.948 460.759 114.944L457.451 114.639C457.506 114.687 457.56 114.732 457.615 114.781C458.265 115.356 458.938 115.951 459.862 116.503L460.058 116.67C460.119 116.724 460.156 116.802 460.158 116.884L460.281 121.834L475.258 121.204L473.772 113.036C473.758 112.955 473.777 112.872 473.825 112.807C475.085 111.104 475.672 109.452 475.729 107.453C475.751 106.656 476.367 105.191 477.078 103.494C478.157 100.923 479.635 97.4018 478.709 96.4299C478.298 95.9991 477.733 95.746 477.117 95.7162H477.116ZM468.042 105.594C468.116 105.447 468.295 105.39 468.439 105.463C468.585 105.537 468.644 105.715 468.57 105.861C467.774 107.431 466.923 109.485 467.414 111.443C467.453 111.602 467.357 111.762 467.198 111.802C467.174 111.808 467.15 111.811 467.127 111.811C466.994 111.811 466.874 111.721 466.839 111.586C466.302 109.439 467.2 107.256 468.042 105.594ZM472.586 114.552C470.176 116.179 467.389 117.3 464.525 117.794C464.508 117.797 464.491 117.798 464.475 117.798C464.334 117.798 464.208 117.697 464.183 117.553C464.156 117.391 464.264 117.239 464.425 117.211C467.206 116.731 469.914 115.642 472.256 114.061C472.389 113.969 472.574 114.005 472.666 114.141C472.758 114.276 472.722 114.461 472.586 114.551V114.552Z" fill="#FFBE97"/>
<path d="M472.255 114.064C469.914 115.645 467.206 116.734 464.425 117.214C464.263 117.242 464.156 117.394 464.183 117.556C464.208 117.7 464.333 117.801 464.474 117.801C464.491 117.801 464.509 117.8 464.525 117.797C467.388 117.303 470.176 116.181 472.586 114.555C472.722 114.463 472.757 114.28 472.665 114.145C472.574 114.009 472.388 113.972 472.255 114.065V114.064Z" fill="#4F2B2B"/>
<path d="M467.127 111.809C467.151 111.809 467.175 111.806 467.198 111.8C467.357 111.761 467.453 111.6 467.414 111.441C466.923 109.483 467.774 107.429 468.57 105.859C468.644 105.714 468.585 105.535 468.44 105.461C468.295 105.388 468.116 105.445 468.042 105.592C467.2 107.254 466.302 109.437 466.839 111.584C466.874 111.719 466.994 111.809 467.127 111.809Z" fill="#4F2B2B"/>
<path d="M465.61 105.116C465.736 105.75 465.686 107.018 464.468 107.018C463.251 107.018 458.888 104.609 458 103.975" stroke="#4F2B2B" stroke-linecap="round"/>
<path d="M463.592 108.652C463.784 109.27 463.866 110.536 462.655 110.663C461.444 110.79 456.665 110.221 455.716 109.683" stroke="#4F2B2B" stroke-linecap="round"/>
<path d="M462.155 112.351C462.347 112.968 462.429 114.235 461.218 114.362C460.007 114.489 458.187 114.9 457.238 114.362" stroke="#4F2B2B" stroke-linecap="round"/>
<path d="M491.7 112.043L493.805 111.461L518.064 111.572C518.064 111.572 519.2 111.802 520.903 112.218L501.278 126.678L491.7 112.043V112.043Z" fill="#E95D9A"/>
<path d="M473.202 129.116C473.868 121.738 479.037 115.547 486.176 113.573L491.701 112.045L501.279 126.681L520.903 112.22C524.618 113.128 531.034 114.921 534.274 117.149C539.001 120.398 547.567 156.078 547.567 156.078H470.174L473.202 129.116Z" fill="#E95D9A"/>
<path d="M520.777 93.5183C523.744 93.5183 526.149 91.1129 526.149 88.1458C526.149 85.1787 523.744 82.7734 520.777 82.7734C517.81 82.7734 515.404 85.1787 515.404 88.1458C515.404 91.1129 517.81 93.5183 520.777 93.5183Z" fill="#4F2B2B"/>
<path d="M504.217 80.8871C505.991 79.1136 505.991 76.238 504.217 74.4644C502.443 72.6909 499.568 72.6909 497.794 74.4644C496.021 76.238 496.021 79.1136 497.794 80.8871C499.568 82.6607 502.443 82.6607 504.217 80.8871Z" fill="#4F2B2B"/>
<path d="M512.636 99.832H499.232V113.951H512.636V99.832Z" fill="#FFBE97"/>
<path d="M490.835 90.552C487.145 82.402 496.597 80.8609 496.597 80.8609C496.597 80.8609 501.186 75.9466 510.695 80.6956C519.914 85.2987 520.159 92.308 517.558 98.9843L490.835 90.552Z" fill="#4F2B2B"/>
<path d="M515.849 98.2789C515.673 98.2248 515.494 98.1905 515.317 98.1707C516.723 93.1686 514.902 86.9608 508.544 83.7569C502.16 80.5401 494.478 82.928 491.627 88.1585C488.775 93.3889 490.724 100.389 497.001 103.81C502.285 106.69 508.951 106.115 512.629 102.741C512.987 103.249 513.509 103.647 514.15 103.843C515.688 104.312 517.313 103.447 517.782 101.911C518.251 100.374 517.386 98.7479 515.849 98.2789Z" fill="#FFBE97"/>
<path d="M515.907 101.834L514.295 101.343C514.036 101.263 513.889 100.989 513.969 100.729C514.048 100.469 514.323 100.323 514.582 100.402L516.194 100.894C516.454 100.974 516.6 101.248 516.521 101.508C516.441 101.767 516.167 101.914 515.907 101.834Z" fill="#4F2B2B"/>
<path d="M495.73 93.7222C495.506 93.6552 495.379 93.4189 495.446 93.1946L495.665 92.459C495.732 92.2346 495.968 92.1071 496.193 92.1741C496.417 92.2411 496.544 92.4774 496.477 92.7017L496.258 93.4373C496.191 93.6616 495.955 93.7892 495.73 93.7222Z" fill="#4F2B2B"/>
<path d="M505.044 97.0737C504.82 97.0067 504.692 96.7705 504.759 96.5461L504.978 95.8106C505.045 95.5862 505.282 95.4586 505.506 95.5257C505.73 95.5927 505.858 95.8289 505.791 96.0533L505.572 96.7888C505.505 97.0132 505.268 97.1408 505.044 97.0737Z" fill="#4F2B2B"/>
<path d="M510.196 95.9635C510.079 95.9635 509.968 95.8935 509.922 95.7779C509.455 94.6144 506.143 93.4401 504.7 93.7041C504.542 93.7354 504.386 93.6277 504.355 93.4669C504.326 93.3061 504.433 93.1522 504.594 93.1224C506.179 92.8306 509.853 94.0193 510.471 95.5575C510.531 95.7094 510.458 95.8816 510.307 95.9421C510.27 95.9565 510.233 95.9635 510.196 95.9635Z" fill="#4F2B2B"/>
<path d="M498.472 91.4399C498.37 91.4399 498.271 91.3868 498.215 91.2925C497.795 90.5653 495.472 89.5826 493.408 90.1444C493.246 90.1891 493.087 90.0943 493.045 89.937C493.002 89.7791 493.095 89.6168 493.253 89.5736C495.546 88.9497 498.154 90.0064 498.727 90.9961C498.809 91.1376 498.761 91.3188 498.62 91.4002C498.573 91.4275 498.522 91.4399 498.472 91.4399Z" fill="#4F2B2B"/>
<path d="M495.74 96.1802C495.946 95.615 495.261 94.8458 494.21 94.4622C493.159 94.0786 492.139 94.2258 491.933 94.791C491.727 95.3562 492.412 96.1254 493.463 96.5091C494.514 96.8927 495.533 96.7455 495.74 96.1802Z" fill="#FF9D6C"/>
<path d="M509.441 101.116C509.647 100.551 508.962 99.7814 507.911 99.3977C506.86 99.0141 505.841 99.1613 505.634 99.7266C505.428 100.292 506.113 101.061 507.164 101.445C508.215 101.828 509.235 101.681 509.441 101.116Z" fill="#FF9D6C"/>
<path d="M499.396 96.0438C499.308 96.0438 499.22 96.0041 499.162 95.9282C499.062 95.7986 499.087 95.613 499.216 95.5132C499.65 95.1792 499.957 94.5379 500.016 93.8396C500.084 93.0415 499.837 92.2935 499.32 91.7326C499.209 91.6125 499.216 91.4254 499.336 91.3147C499.456 91.204 499.644 91.2114 499.754 91.3316C500.386 92.0155 500.688 92.9238 500.606 93.8897C500.532 94.7613 500.147 95.5435 499.577 95.9823C499.523 96.0235 499.459 96.0433 499.396 96.0433V96.0438Z" fill="#4F2B2B"/>
<path d="M500.771 100.307C499.245 100.307 497.857 99.8451 497.132 99.2033C497.01 99.0951 496.998 98.908 497.107 98.7854C497.215 98.6623 497.402 98.6519 497.524 98.7601C498.544 99.6629 501.755 100.431 504.258 98.6802C504.391 98.5874 504.576 98.6186 504.67 98.7531C504.764 98.8866 504.731 99.0713 504.597 99.1651C503.429 99.9821 502.051 100.307 500.771 100.307Z" fill="#4F2B2B"/>
<path d="M500.514 79.6856C500.514 79.6856 492.028 81.8377 490.824 87.9298L491.205 89.2531C491.205 89.2531 495.039 83.9105 501.859 84.1904C501.859 84.1904 498.807 87.5139 502.615 90.2264C503.131 90.5937 503.839 90.1788 503.752 89.5514C503.752 89.5514 504.496 90.7262 506.168 91.3938C506.789 91.642 507.459 91.1541 507.407 90.4875L507.401 90.4031C507.401 90.4031 512.781 97.6125 516.959 96.8094C516.959 96.8094 520.816 78.952 500.515 79.6861L500.514 79.6856Z" fill="#4F2B2B"/>
<path d="M470.126 87.3125C471.009 88.9673 471.855 89.8136 473.51 90.6966C471.855 91.5801 471.008 92.4263 470.126 94.0811C469.243 92.4258 468.397 91.5796 466.741 90.6966C468.396 89.8136 469.242 88.9678 470.126 87.3125Z" fill="#DF8711"/>
<path d="M476.472 118.938L482.902 156.077H463.155L458.361 121.956L476.472 118.938Z" fill="#E95D9A"/>
<path d="M485.266 155.775C485.115 155.775 484.987 155.662 484.972 155.508L482.478 130.252C482.462 130.09 482.581 129.945 482.743 129.928C482.911 129.919 483.051 130.031 483.067 130.194L485.56 155.45C485.577 155.613 485.458 155.757 485.295 155.774C485.285 155.774 485.275 155.775 485.266 155.775L485.266 155.775Z" fill="#4F2B2B"/>
<path d="M526.081 155.775C525.944 155.775 525.821 155.68 525.792 155.541L521.724 136.716C521.689 136.556 521.79 136.398 521.95 136.364C522.107 136.33 522.267 136.431 522.301 136.591L526.369 155.416C526.404 155.576 526.303 155.734 526.143 155.768C526.122 155.772 526.101 155.775 526.081 155.775Z" fill="#4F2B2B"/>
<path d="M518.062 111.577L512.856 106.703L502.609 113.954L506.92 119.597L518.062 111.577Z" fill="#E95D9A"/>
<path d="M493.806 111.461L499.048 107.387L502.722 113.948L497.735 118.017L493.806 111.461Z" fill="#E95D9A"/>
<path d="M515.109 139.738C517.172 139.738 518.845 138.065 518.845 136.002C518.845 133.938 517.172 132.266 515.109 132.266C513.046 132.266 511.373 133.938 511.373 136.002C511.373 138.065 513.046 139.738 515.109 139.738Z" fill="#F8D2A0"/>
</g>
<path d="M535.526 74.7441H626.714" stroke="#4F2B2B" stroke-width="2" stroke-linecap="round"/>
<path d="M535.526 85.2246H626.714" stroke="#4F2B2B" stroke-width="2" stroke-linecap="round"/>
<path d="M535.526 95.707H626.714" stroke="#4F2B2B" stroke-width="2" stroke-linecap="round"/>
<path d="M535.526 106.188H626.714" stroke="#4F2B2B" stroke-width="2" stroke-linecap="round"/>
<path d="M535.526 116.67H626.714" stroke="#4F2B2B" stroke-width="2" stroke-linecap="round"/>
<path d="M535.526 127.15H626.714" stroke="#4F2B2B" stroke-width="2" stroke-linecap="round"/>
<path d="M535.526 137.633H626.714" stroke="#4F2B2B" stroke-width="2" stroke-linecap="round"/>
<path d="M535.526 148.113H626.714" stroke="#4F2B2B" stroke-width="2" stroke-linecap="round"/>
<path d="M194.666 114.865C194.666 114.865 210.394 101.482 237.06 112.215C272.36 126.42 263.286 179.633 263.286 179.633L171.851 188.597C171.851 188.597 153.344 152.724 171.915 128.124C184.408 111.577 194.666 114.865 194.666 114.865Z" fill="#4F2B2B"/>
<path d="M114.17 399.387H277.17V288.693H114.17V399.387Z" fill="#DF8711"/>
<path d="M289.94 240.786C275.354 232.986 268.382 228.933 251.846 228.619L142.147 226.499C113.734 225.95 89.1426 246.157 84.1759 274.138L72.8096 344.79L133.022 347.831L134.635 323.359L277.013 315.226L299.209 250.517L292.981 243.219L289.94 240.786Z" fill="#DF8711"/>
<path d="M180.685 227.24L248.091 228.542C248.091 228.542 244.951 247.82 217.709 248.017C190.467 248.213 180.685 227.24 180.685 227.24Z" fill="#FFBE97"/>
<path d="M186.495 229.104H234.781L236.339 213.569L191.828 210.369L186.495 229.104Z" fill="#FFBE97"/>
<path d="M234.808 226.276L237.495 210.154L192.712 202.988C198.086 223.409 223.015 227.022 234.808 226.276Z" fill="#4F2B2B"/>
<path d="M178.53 166.082C172.143 189.907 188.3 216.652 212.008 219.937C237.371 223.451 259.253 212.411 262.951 188.023C266.478 164.773 260.183 142.158 237.064 135.967C213.945 129.771 184.923 142.256 178.536 166.088L178.53 166.082Z" fill="#FFBE97"/>
<path d="M216.823 190.3C216.876 188.596 214.349 187.134 211.179 187.036C208.009 186.938 205.397 188.241 205.344 189.945C205.292 191.65 207.819 193.111 210.988 193.209C214.158 193.307 216.77 192.004 216.823 190.3Z" fill="#FF9D6C"/>
<path d="M261.607 184.029C261.66 182.324 259.133 180.863 255.963 180.765C252.794 180.667 250.181 181.969 250.129 183.674C250.076 185.378 252.603 186.839 255.773 186.937C258.942 187.035 261.555 185.733 261.607 184.029Z" fill="#FF9D6C"/>
<path d="M203.636 172.479L203.636 172.479C203.458 172.791 203.181 173.001 202.871 173.074V173.107H202.621C202.383 173.107 202.145 173.026 201.941 172.869L201.94 172.868C201.395 172.444 201.261 171.613 201.607 171.001L201.607 171C202.351 169.691 203.675 168.628 205.287 167.804C206.901 166.977 208.824 166.379 210.797 166.009C212.77 165.639 214.801 165.496 216.634 165.584C218.463 165.671 220.113 165.99 221.313 166.558C221.939 166.852 222.202 167.648 221.97 168.316C221.735 169 221.035 169.382 220.384 169.076L220.383 169.076C219.377 168.6 217.957 168.339 216.343 168.281C214.733 168.223 212.949 168.369 211.227 168.694C209.504 169.018 207.853 169.519 206.505 170.167C205.15 170.819 204.133 171.604 203.636 172.479Z" fill="#4F2B2B" stroke="black" stroke-width="0.5"/>
<path d="M237.87 168.45L237.87 168.45C237.692 168.762 237.416 168.971 237.105 169.045V169.077H236.855C236.617 169.077 236.38 168.997 236.176 168.84L236.175 168.839C235.629 168.415 235.495 167.584 235.842 166.971L235.842 166.971C236.586 165.662 237.909 164.599 239.521 163.774C241.135 162.948 243.059 162.35 245.031 161.98C247.005 161.61 249.035 161.466 250.868 161.554C252.697 161.642 254.347 161.961 255.548 162.529C256.173 162.823 256.436 163.618 256.204 164.287C255.969 164.971 255.27 165.353 254.618 165.047L254.618 165.047C253.612 164.571 252.192 164.309 250.577 164.252C248.967 164.194 247.183 164.34 245.461 164.664C243.739 164.989 242.087 165.49 240.739 166.138C239.385 166.789 238.367 167.575 237.87 168.45Z" fill="#4F2B2B" stroke="black" stroke-width="0.5"/>
<path d="M226.596 203.322C226.365 203.101 226.082 202.973 225.807 202.989L225.79 202.948L225.558 203.042C225.356 203.123 225.201 203.287 225.107 203.501L225.107 203.502C224.982 203.789 224.982 204.129 225.061 204.44C225.14 204.754 225.305 205.064 225.545 205.295L225.546 205.295C227.605 207.276 231.01 207.693 234.173 207.213C235.762 206.972 237.31 206.503 238.626 205.876C239.938 205.25 241.038 204.46 241.713 203.565C241.899 203.32 241.952 202.991 241.919 202.68C241.886 202.364 241.762 202.035 241.554 201.762C241.348 201.49 241.081 201.305 240.797 201.254C240.503 201.202 240.213 201.302 240.017 201.559L240.016 201.56C239.47 202.285 238.544 202.938 237.393 203.465C236.247 203.99 234.896 204.379 233.524 204.586C232.15 204.793 230.764 204.816 229.544 204.614C228.322 204.412 227.289 203.989 226.596 203.322L226.596 203.322Z" fill="#4F2B2B" stroke="black" stroke-width="0.5"/>
<path d="M181.763 173.374C183.759 180.729 185.774 187.037 179.61 188.706C173.446 190.381 165.024 185.958 163.028 178.602C161.032 171.247 164.416 163.931 170.58 162.256C176.744 160.581 179.767 166.019 181.763 173.374Z" fill="#FFBE97"/>
<path d="M175.073 178.717L168.954 176.925C167.968 176.636 167.412 175.636 167.714 174.69C168.015 173.745 169.058 173.211 170.043 173.501L176.162 175.292C177.148 175.582 177.704 176.582 177.402 177.527C177.101 178.473 176.058 179.006 175.073 178.717Z" fill="#4F2B2B"/>
<path d="M220.833 175.634C221.14 178.119 220.329 180.368 219.007 180.656C217.692 180.952 216.37 179.174 216.062 176.689C215.755 174.204 216.566 171.955 217.888 171.667C219.203 171.371 220.525 173.149 220.833 175.634Z" fill="#562A2F"/>
<path d="M253.972 170.259C254.28 172.744 253.468 174.993 252.146 175.281C250.831 175.577 249.509 173.799 249.202 171.314C248.894 168.829 249.706 166.58 251.027 166.292C252.343 165.996 253.665 167.774 253.972 170.259Z" fill="#562A2F"/>
<path d="M239.925 169.834L236.136 176.148L228.859 157.996L239.925 169.834Z" fill="#FFBE97"/>
<path d="M236.749 195.351L236.993 195.405L237.002 195.366C237.329 195.367 237.653 195.233 237.888 194.966L237.888 194.966L242.944 189.186L242.945 189.186C243.275 188.806 243.327 188.255 243.066 187.816L243.066 187.816L235.346 174.82L235.346 174.82L235.345 174.818C235.01 174.262 234.293 174.078 233.735 174.408L233.735 174.408L233.733 174.409C233.177 174.745 232.993 175.461 233.323 176.019L233.323 176.019L240.608 188.283L236.115 193.427L236.114 193.429C235.692 193.922 235.744 194.656 236.227 195.084L236.229 195.086C236.382 195.219 236.558 195.31 236.749 195.351Z" fill="#562A2F" stroke="black" stroke-width="0.5"/>
<path d="M238.492 156.368C236.748 155.503 233.372 153.635 232.106 152.32C238.561 154.19 254.488 155.927 261.311 156.291C258.283 152.243 255.434 146.266 252.296 142.276C247.167 135.758 231.866 134.396 222.48 134.227C215.209 134.097 207.908 135.16 201.123 137.332C197.637 138.45 190.986 141.123 195.211 144.16C198.917 146.825 204.204 148.72 208.645 150.362C218.112 153.859 228.144 155.858 238.492 156.368Z" fill="#4F2B2B"/>
<path d="M274.788 289.814L274.788 289.814L274.788 289.815L275.835 315.276L276.085 315.266L275.835 315.276L275.835 315.276C275.86 315.91 276.385 316.399 277.007 316.399H277.008H277.008H277.008H277.008H277.008H277.008H277.008H277.008H277.008H277.008H277.008H277.008H277.008H277.009H277.009H277.009H277.009H277.009H277.009H277.009H277.009H277.009H277.009H277.009H277.009H277.009H277.01H277.01H277.01H277.01H277.01H277.01H277.01H277.01H277.01H277.01H277.01H277.01H277.01H277.011H277.011H277.011H277.011H277.011H277.011H277.011H277.011H277.011H277.011H277.011H277.011H277.011H277.012H277.012H277.012H277.012H277.012H277.012H277.012H277.012H277.012H277.012H277.012H277.012H277.012H277.013H277.013H277.013H277.013H277.013H277.013H277.013H277.013H277.013H277.013H277.013H277.013H277.013H277.014H277.014H277.014H277.014H277.014H277.014H277.014H277.014H277.014H277.014H277.014H277.014H277.014H277.015H277.015H277.015H277.015H277.015H277.015H277.015H277.015H277.015H277.015H277.015H277.015H277.015H277.016H277.016H277.016H277.016H277.016H277.016H277.016H277.016H277.016H277.016H277.016H277.016H277.016H277.017H277.017H277.017H277.017H277.017H277.017H277.017H277.017H277.017H277.017H277.017H277.017H277.017H277.018H277.018H277.018H277.018H277.018H277.018H277.018H277.018H277.018H277.018H277.018H277.018H277.018H277.019H277.019H277.019H277.019H277.019H277.019H277.019H277.019H277.019H277.019H277.019H277.019H277.019H277.02H277.02H277.02H277.02H277.02H277.02H277.02H277.02H277.02H277.02H277.02H277.02H277.02H277.021H277.021H277.021H277.021H277.021H277.021H277.021H277.021H277.021H277.021H277.021H277.021H277.021H277.022H277.022H277.022H277.022H277.022H277.022H277.022H277.022H277.022H277.022H277.022H277.022H277.022H277.023H277.023H277.023H277.023H277.023H277.023H277.023H277.023H277.023H277.023H277.023H277.023H277.023H277.024H277.024H277.024H277.024H277.024H277.024H277.024H277.024H277.024H277.024H277.024H277.024H277.024H277.025H277.025H277.025H277.025H277.025H277.025H277.025H277.025H277.025H277.025H277.025H277.025H277.025H277.026H277.026H277.026H277.026H277.026H277.026H277.026H277.026H277.026H277.026H277.026H277.026H277.026H277.026H277.027H277.027H277.027H277.027H277.027H277.027H277.027H277.027H277.027H277.027H277.027H277.027H277.027H277.028H277.028H277.028H277.028H277.028H277.028H277.028H277.028H277.028H277.028H277.028H277.028H277.028H277.029H277.029H277.029H277.029H277.029H277.029H277.029H277.029H277.029H277.029H277.029H277.029H277.029H277.03H277.03H277.03H277.03H277.03H277.03H277.03H277.03H277.03H277.03H277.03H277.03H277.03H277.031H277.031H277.031H277.031H277.031H277.031H277.031H277.031H277.031H277.031H277.031H277.031H277.031H277.032H277.032H277.032H277.032H277.032H277.032H277.032H277.032H277.032H277.032H277.032H277.032H277.032H277.033H277.033H277.033H277.033H277.033H277.033H277.033H277.033H277.033H277.033H277.033H277.033H277.033H277.034H277.034H277.034H277.034H277.034H277.034H277.034H277.034H277.034H277.034H277.034H277.034H277.034H277.035H277.035H277.035H277.035H277.035H277.035H277.035H277.035H277.035H277.035H277.035H277.035H277.035H277.036H277.036H277.036H277.036H277.036H277.036H277.036H277.036H277.036H277.036H277.036H277.036H277.036H277.037H277.037H277.037H277.037H277.037H277.037H277.037H277.037H277.037H277.037H277.037H277.037H277.037H277.038H277.038H277.038H277.038H277.038H277.038H277.038H277.038H277.038H277.038H277.038H277.038H277.038H277.039H277.039H277.039H277.039H277.039H277.039H277.039H277.039H277.039H277.039H277.039H277.039H277.039H277.04H277.04H277.04H277.04H277.04H277.04H277.04H277.04H277.04H277.04H277.04H277.04H277.04H277.041H277.041H277.041H277.041H277.041H277.041H277.041H277.041H277.041H277.041H277.041H277.041H277.041H277.042H277.042H277.042H277.042H277.042H277.042H277.042H277.042H277.042H277.042H277.042H277.042H277.042H277.043H277.043H277.043H277.043H277.043H277.043H277.043H277.043H277.043H277.043H277.043H277.043H277.043H277.044H277.044H277.044H277.044H277.044H277.044H277.044H277.044H277.044H277.044H277.044H277.044H277.044H277.045H277.045H277.045H277.045H277.045H277.045H277.045H277.045H277.045H277.045H277.045H277.045H277.045H277.046H277.046H277.046H277.046H277.046H277.046H277.046H277.046H277.046H277.046H277.046H277.046H277.046H277.047H277.047H277.047H277.047V316.4L277.056 316.399C277.707 316.374 278.205 315.824 278.18 315.178L278.18 315.177L277.133 289.716L276.883 289.726L277.133 289.716L277.133 289.716C277.108 289.077 276.574 288.545 275.907 288.593C275.258 288.62 274.763 289.17 274.788 289.814Z" fill="#4F2B2B" stroke="black" stroke-width="0.5"/>
<path d="M130.948 321.437L130.948 321.437L130.948 321.438L131.995 346.899L132.245 346.889L131.995 346.899L131.995 346.899C132.02 347.533 132.545 348.022 133.168 348.022H133.168H133.168H133.168H133.168H133.168H133.168H133.168H133.168H133.168H133.168H133.168H133.169H133.169H133.169H133.169H133.169H133.169H133.169H133.169H133.169H133.169H133.169H133.169H133.169H133.17H133.17H133.17H133.17H133.17H133.17H133.17H133.17H133.17H133.17H133.17H133.17H133.17H133.171H133.171H133.171H133.171H133.171H133.171H133.171H133.171H133.171H133.171H133.171H133.171H133.171H133.172H133.172H133.172H133.172H133.172H133.172H133.172H133.172H133.172H133.172H133.172H133.172H133.172H133.173H133.173H133.173H133.173H133.173H133.173H133.173H133.173H133.173H133.173H133.173H133.173H133.173H133.174H133.174H133.174H133.174H133.174H133.174H133.174H133.174H133.174H133.174H133.174H133.174H133.174H133.175H133.175H133.175H133.175H133.175H133.175H133.175H133.175H133.175H133.175H133.175H133.175H133.175H133.176H133.176H133.176H133.176H133.176H133.176H133.176H133.176H133.176H133.176H133.176H133.176H133.176H133.177H133.177H133.177H133.177H133.177H133.177H133.177H133.177H133.177H133.177H133.177H133.177H133.177H133.178H133.178H133.178H133.178H133.178H133.178H133.178H133.178H133.178H133.178H133.178H133.178H133.178H133.179H133.179H133.179H133.179H133.179H133.179H133.179H133.179H133.179H133.179H133.179H133.179H133.179H133.18H133.18H133.18H133.18H133.18H133.18H133.18H133.18H133.18H133.18H133.18H133.18H133.18H133.181H133.181H133.181H133.181H133.181H133.181H133.181H133.181H133.181H133.181H133.181H133.181H133.181H133.182H133.182H133.182H133.182H133.182H133.182H133.182H133.182H133.182H133.182H133.182H133.182H133.182H133.183H133.183H133.183H133.183H133.183H133.183H133.183H133.183H133.183H133.183H133.183H133.183H133.183H133.184H133.184H133.184H133.184H133.184H133.184H133.184H133.184H133.184H133.184H133.184H133.184H133.184H133.185H133.185H133.185H133.185H133.185H133.185H133.185H133.185H133.185H133.185H133.185H133.185H133.185H133.186H133.186H133.186H133.186H133.186H133.186H133.186H133.186H133.186H133.186H133.186H133.186H133.186H133.187H133.187H133.187H133.187H133.187H133.187H133.187H133.187H133.187H133.187H133.187H133.187H133.187H133.187H133.188H133.188H133.188H133.188H133.188H133.188H133.188H133.188H133.188H133.188H133.188H133.188H133.188H133.189H133.189H133.189H133.189H133.189H133.189H133.189H133.189H133.189H133.189H133.189H133.189H133.189H133.19H133.19H133.19H133.19H133.19H133.19H133.19H133.19H133.19H133.19H133.19H133.19H133.19H133.191H133.191H133.191H133.191H133.191H133.191H133.191H133.191H133.191H133.191H133.191H133.191H133.191H133.192H133.192H133.192H133.192H133.192H133.192H133.192H133.192H133.192H133.192H133.192H133.192H133.192H133.193H133.193H133.193H133.193H133.193H133.193H133.193H133.193H133.193H133.193H133.193H133.193H133.193H133.194H133.194H133.194H133.194H133.194H133.194H133.194H133.194H133.194H133.194H133.194H133.194H133.194H133.195H133.195H133.195H133.195H133.195H133.195H133.195H133.195H133.195H133.195H133.195H133.195H133.195H133.196H133.196H133.196H133.196H133.196H133.196H133.196H133.196H133.196H133.196H133.196H133.196H133.196H133.197H133.197H133.197H133.197H133.197H133.197H133.197H133.197H133.197H133.197H133.197H133.197H133.197H133.198H133.198H133.198H133.198H133.198H133.198H133.198H133.198H133.198H133.198H133.198H133.198H133.198H133.199H133.199H133.199H133.199H133.199H133.199H133.199H133.199H133.199H133.199H133.199H133.199H133.199H133.2H133.2H133.2H133.2H133.2H133.2H133.2H133.2H133.2H133.2H133.2H133.2H133.2H133.201H133.201H133.201H133.201H133.201H133.201H133.201H133.201H133.201H133.201H133.201H133.201H133.201H133.202H133.202H133.202H133.202H133.202H133.202H133.202H133.202H133.202H133.202H133.202H133.202H133.202H133.203H133.203H133.203H133.203H133.203H133.203H133.203H133.203H133.203H133.203H133.203H133.203H133.203H133.204H133.204H133.204H133.204H133.204H133.204H133.204H133.204H133.204H133.204H133.204H133.204H133.204H133.205H133.205H133.205H133.205H133.205H133.205H133.205H133.205H133.205H133.205H133.205H133.205H133.205H133.206H133.206H133.206H133.206H133.206H133.206H133.206H133.206H133.206H133.206H133.206H133.206H133.206H133.207H133.207H133.207H133.207H133.207H133.207V348.023L133.217 348.022C133.868 347.997 134.365 347.447 134.34 346.801L134.34 346.8L133.293 321.339L133.043 321.349L133.293 321.339L133.293 321.339C133.268 320.7 132.734 320.168 132.067 320.216C131.418 320.243 130.923 320.793 130.948 321.437Z" fill="#4F2B2B" stroke="black" stroke-width="0.5"/>
<path d="M357.696 216.319L382.39 176.927L341.142 160.945L322.259 185.729L331.985 210.61L357.696 216.319Z" fill="#FFBE97"/>
<path d="M321.567 203.078L299.063 251.23L341.141 274.499L357.695 216.315L321.567 203.078Z" fill="#FFBE97"/>
<path d="M341.141 274.499L299.063 251.23L276.56 314.989C294.198 356.347 322.783 333.235 329.474 314.38L341.141 274.499Z" fill="#FFBE97"/>
<path d="M321.67 205.198L314.782 188.272C313.417 184.921 313.295 181.193 314.442 177.763L319.708 161.955C320.496 159.597 322.956 158.231 325.37 158.814C327.677 159.368 329.229 161.531 329.015 163.893L327.626 179.333L333.349 191.119C335.371 195.281 335.721 200.062 334.328 204.476L332.394 210.604L321.67 205.193V205.198Z" fill="#FFBE97"/>
<rect x="330.894" y="131.92" width="47.4403" height="80.1247" rx="6.79059" transform="rotate(4.5 330.894 131.92)" fill="#2B6577"/>
<rect x="333.358" y="135.062" width="41.5352" height="74.2346" rx="6.79059" transform="rotate(4.5 333.358 135.062)" fill="#D8F5FD"/>
<path d="M337.528 164.125L361.991 150.144" stroke="#F7FDFE" stroke-width="2" stroke-linecap="round"/>
<path d="M335.121 180.598L364.062 162.684" stroke="#F7FDFE" stroke-width="2" stroke-linecap="round"/>
<path d="M341.392 193.135L364.959 178.804" stroke="#F7FDFE" stroke-width="2" stroke-linecap="round"/>
<circle cx="347.968" cy="205.321" r="3.23751" fill="#4F2B2B"/>
<path d="M372.973 182.867L366.087 181.7L364.685 181.408C364.41 181.351 364.137 181.339 363.865 181.324L361.64 180.947C359.054 180.509 357.208 177.972 357.438 175.171C357.648 172.599 359.55 170.598 361.885 170.325C362.246 170.396 362.616 170.437 362.994 170.437C363.108 170.437 363.223 170.434 363.337 170.426L365.058 170.324L373.984 170.507C375.385 170.536 376.672 171.168 377.608 172.287C378.544 173.406 378.992 174.849 378.87 176.347L378.732 178.032C378.608 179.532 377.933 180.868 376.83 181.794C375.728 182.719 374.36 183.104 372.974 182.868L372.973 182.867Z" fill="#FFBE97"/>
<path d="M366.792 194.095L362.397 192.369C362.157 192.275 361.912 192.219 361.667 192.167C359.612 191.176 358.472 188.716 359.063 186.337C359.613 184.121 361.496 182.625 363.563 182.625C363.573 182.625 363.583 182.628 363.593 182.628L365.882 183.016L375.017 184.923C376.297 185.19 377.384 185.991 378.075 187.179C378.767 188.366 378.963 189.766 378.626 191.12L378.246 192.654C377.911 194.007 377.092 195.116 375.941 195.777C374.792 196.436 373.482 196.55 372.244 196.098L366.792 194.096V194.095Z" fill="#FFBE97"/>
<path d="M365.046 168.99L362.537 168.939C362.366 168.936 362.202 168.97 362.033 168.982C359.979 168.539 358.305 166.731 358.033 164.396C357.71 161.606 359.468 158.999 362.038 158.462L373.3 156.103C373.624 156.036 373.949 156.002 374.272 156.002C375.315 156.002 376.324 156.353 377.19 157.027C378.324 157.911 379.043 159.219 379.217 160.712L379.411 162.39C379.584 163.884 379.184 165.341 378.286 166.497C377.389 167.651 376.125 168.333 374.727 168.416L365.047 168.991L365.046 168.99Z" fill="#FFBE97"/>
<path d="M357.228 195.779C357.848 194.282 359.232 193.375 360.685 193.375C360.88 193.375 361.077 193.396 361.273 193.43C361.402 193.489 361.52 193.567 361.656 193.616L366.358 195.343L370.402 196.932C371.396 197.322 372.171 198.113 372.583 199.16C372.996 200.207 372.986 201.355 372.555 202.393L372.055 203.602C371.625 204.639 370.837 205.416 369.837 205.786C368.834 206.156 367.771 206.068 366.837 205.535L358.907 201.015C357.16 200.021 356.423 197.721 357.228 195.781V195.779Z" fill="#FFBE97"/>
<path d="M359.519 192.198C358.004 190.645 357.295 188.287 357.864 185.991C358.297 184.249 359.392 182.88 360.778 182.076C357.913 181.231 355.936 178.298 356.202 175.053C356.406 172.563 357.911 170.507 359.917 169.541C358.261 168.524 357.053 166.723 356.802 164.561C356.398 161.078 358.593 157.825 361.8 157.153L373.061 154.795C374.773 154.436 376.5 154.844 377.916 155.947C379.332 157.049 380.23 158.683 380.445 160.546L380.639 162.225C380.855 164.088 380.357 165.908 379.236 167.349C378.358 168.48 377.193 169.23 375.892 169.559C376.89 169.921 377.8 170.524 378.528 171.395C379.696 172.792 380.256 174.591 380.104 176.462L379.966 178.147C379.811 180.017 378.969 181.685 377.592 182.841C377.081 183.27 376.519 183.594 375.932 183.832C377.252 184.284 378.379 185.183 379.128 186.468C380.004 187.972 380.252 189.744 379.827 191.459L379.446 192.992C379.02 194.707 377.984 196.11 376.528 196.946C375.657 197.446 374.713 197.699 373.76 197.699C373.578 197.699 373.396 197.668 373.213 197.65C373.414 197.957 373.587 198.287 373.725 198.636C374.265 200.006 374.252 201.571 373.689 202.929L373.188 204.138C372.624 205.498 371.55 206.555 370.24 207.04C369.712 207.237 369.16 207.333 368.609 207.333C367.796 207.333 366.984 207.122 366.255 206.706L358.325 202.187C356.005 200.864 355.024 197.809 356.094 195.233C356.749 193.652 358.046 192.574 359.52 192.195L359.519 192.198ZM378.283 166.496C379.182 165.341 379.581 163.882 379.408 162.389L379.214 160.711C379.041 159.218 378.321 157.91 377.187 157.026C376.322 156.352 375.312 156.001 374.269 156.001C373.947 156.001 373.621 156.035 373.297 156.102L362.036 158.461C359.467 158.998 357.708 161.605 358.03 164.395C358.301 166.73 359.977 168.538 362.031 168.981C362.199 168.969 362.363 168.935 362.534 168.938L365.043 168.989L374.723 168.415C376.122 168.332 377.385 167.65 378.282 166.495L378.283 166.496ZM376.827 181.792C377.929 180.866 378.605 179.53 378.729 178.03L378.867 176.345C378.989 174.847 378.541 173.404 377.605 172.285C376.669 171.166 375.382 170.534 373.981 170.505L365.055 170.322L363.334 170.424C363.219 170.432 363.104 170.435 362.991 170.435C362.613 170.435 362.243 170.395 361.881 170.323C359.548 170.596 357.645 172.597 357.435 175.168C357.205 177.97 359.051 180.507 361.637 180.945L363.861 181.322C364.134 181.336 364.407 181.348 364.682 181.406L366.084 181.698L372.97 182.865C374.356 183.102 375.724 182.717 376.826 181.791L376.827 181.792ZM375.942 195.774C377.092 195.113 377.91 194.004 378.246 192.651L378.627 191.117C378.964 189.764 378.768 188.364 378.076 187.176C377.383 185.989 376.298 185.188 375.018 184.92L365.882 183.013L363.594 182.625C363.585 182.625 363.574 182.622 363.564 182.622C361.497 182.622 359.613 184.117 359.063 186.334C358.472 188.713 359.612 191.174 361.667 192.164C361.912 192.217 362.156 192.273 362.398 192.367L366.793 194.092L372.245 196.094C373.483 196.547 374.794 196.432 375.942 195.773V195.774ZM358.905 201.013L366.836 205.533C367.77 206.065 368.834 206.154 369.836 205.784C370.836 205.413 371.624 204.637 372.053 203.599L372.554 202.39C372.985 201.352 372.994 200.204 372.581 199.158C372.169 198.111 371.395 197.32 370.401 196.929L366.356 195.34L361.654 193.614C361.519 193.564 361.401 193.486 361.272 193.428C361.076 193.394 360.879 193.373 360.684 193.373C359.231 193.373 357.845 194.279 357.226 195.777C356.421 197.717 357.159 200.016 358.905 201.012V201.013Z" fill="#FFBE97"/>
<path d="M382.793 177.551C385.77 158.241 380.265 156.618 376.084 157.301L365.876 204.209C365.584 205.576 366.578 208.48 373.811 206.43C381.045 204.379 381.462 186.18 382.793 177.551Z" fill="#FFBE97"/>
<path d="M359.896 169.4L373.397 169.911" stroke="#4F2B2B" stroke-width="1.35812" stroke-linecap="round"/>
<path d="M361.017 182.16L371.77 184.116" stroke="#4F2B2B" stroke-width="1.35812" stroke-linecap="round"/>
<path d="M359.896 192.254L369.39 194.817" stroke="#4F2B2B" stroke-width="1.35812" stroke-linecap="round"/>
<path d="M133.312 347.405L73.0996 342.54C71.275 348.419 73.7717 335.545 70.3657 364.253C66.1083 400.137 100.18 406.219 137.889 394.663C175.598 383.107 211.771 372.951 218.462 368.693C225.152 364.436 238.533 352.272 243.398 340.716C248.264 329.16 267.727 328.551 275.633 315.779C281.959 305.561 272.187 306.656 266.51 308.48C265.091 308.886 263.591 309.089 268.943 306.656C275.633 303.615 279.283 296.316 275.633 292.059C272.714 288.653 263.064 293.478 258.604 296.316L261.036 294.492C262.05 291.856 261.523 286.707 251.305 287.193C241.087 287.68 226.774 294.289 220.894 297.533C221.908 294.289 222.841 287.314 218.462 285.368C214.083 283.422 208.122 297.532 205.689 304.831L186.835 339.499L133.312 347.405Z" fill="#FFBE97"/>
<path d="M260.035 294.92L240.677 302.218" stroke="#4F2B2B" stroke-width="3" stroke-linecap="round"/>
<path d="M264.9 309.518L245.542 316.816" stroke="#4F2B2B" stroke-width="3" stroke-linecap="round"/>
<path d="M665.17 391H20.8299C14.0832 391 14 393.015 14 395.5C14 397.985 14.0832 400 20.8299 400H665.17C671.917 400 672 397.985 672 395.5C672 393.015 671.917 391 665.17 391Z" fill="#F5C07A"/>
<path d="M532.458 315.585C532.431 308.483 532.402 301.381 532.371 294.28C532.371 294.217 532.371 294.154 532.371 294.09C527.88 295.48 522.9 295.63 518.32 294.597C518.48 300.029 518.639 305.462 518.798 310.895C518.801 310.969 518.796 311.037 518.783 311.101C518.804 311.842 518.824 312.58 518.842 313.321C519.036 321.28 519.123 329.242 519.189 337.203C519.261 345.953 519.297 354.703 519.312 363.454C519.324 370.568 519.324 377.682 519.312 384.796C519.312 385.176 519.31 385.555 519.309 385.935C523.476 386.782 527.95 386.573 531.998 385.3C532.225 385.229 532.423 385.247 532.588 385.319C532.6 380.469 532.603 375.62 532.6 370.77C532.595 361.573 532.574 352.376 532.55 343.179C532.525 333.981 532.494 324.782 532.46 315.584L532.458 315.585Z" fill="#F5C07A"/>
<path d="M552.52 340.691C553.746 343.494 555.248 346.185 556.742 348.852C557.548 350.292 558.363 351.724 559.162 353.168C559.34 353.489 559.516 353.81 559.692 354.133C559.759 354.256 559.822 354.402 559.904 354.524C560.009 354.484 560.112 354.441 560.209 354.385C560.827 354.092 561.44 353.787 562.055 353.483C560.232 348.582 557.573 344.004 555.095 339.408C554.236 339.836 553.379 340.265 552.52 340.692V340.691Z" fill="white"/>
<path d="M546.187 328.83C546.979 328.304 547.694 327.791 548.371 327.127C548.236 326.378 548.101 325.63 547.968 324.882C546.12 314.505 544.335 304.103 542.937 293.654C539.316 295.049 535.819 296.742 532.175 298.083C532.203 304.745 532.231 311.407 532.255 318.069C532.273 323.038 532.287 328.006 532.302 332.975C534.359 332.918 536.4 332.681 538.404 332.191C541.167 331.514 543.815 330.406 546.187 328.83Z" fill="#FADBE9"/>
<path d="M575.105 378.811C572.842 374.75 570.608 370.674 568.388 366.59C565.598 361.454 562.834 356.303 560.111 351.13C557.513 346.196 554.944 341.244 552.473 336.245C550.911 333.083 549.349 329.897 548.009 326.629C543.559 330.344 537.771 332.129 532.031 332.418C533.154 334.383 534.174 336.425 535.253 338.406C537.952 343.351 540.649 348.296 543.348 353.241C546.457 358.939 549.566 364.638 552.676 370.336C555.257 375.066 557.838 379.797 560.419 384.526C561.428 386.374 562.436 388.223 563.446 390.071C566.856 390.568 570.404 388.735 573.2 386.997C574.807 385.997 576.368 384.876 577.802 383.627C577.605 383.29 577.425 382.939 577.237 382.609C576.518 381.348 575.81 380.081 575.103 378.812L575.105 378.811ZM554.484 354.406C553.496 354.888 552.518 355.422 551.509 355.853C550.604 356.239 549.762 356.041 549.223 355.196C548.255 353.677 547.456 352.011 546.572 350.44C544.692 347.098 542.796 343.744 541.317 340.2C541.276 340.102 541.266 339.999 541.276 339.897C541.268 339.62 541.399 339.345 541.733 339.179C541.752 339.169 541.772 339.159 541.791 339.15C541.792 339.15 541.793 339.149 541.795 339.147C543.15 338.471 544.504 337.796 545.861 337.12C546.284 336.909 546.858 336.993 547.098 337.445C549.874 342.65 552.932 347.802 554.903 353.385C555.027 353.739 554.822 354.242 554.488 354.406H554.484Z" fill="#3F97B1"/>
<path d="M574.047 360.366C573.879 359.728 573.569 359.012 573.5 358.351C573.439 358.227 573.382 358.1 573.322 357.974C572.602 356.452 571.883 354.928 571.164 353.403C568.166 347.047 565.175 340.688 562.191 334.327C558.431 326.313 554.681 318.296 550.954 310.267C548.773 305.567 544.953 298.368 542.806 293.652C542.613 292.414 542.989 294.892 542.806 293.652C544.096 301.997 546.605 318.566 548.121 326.874C547.99 326.556 548.245 327.195 548.121 326.874C546.301 323.23 549.607 330.494 548.121 326.874C545.506 321.929 550.622 331.878 548.121 326.874C549.897 332.392 574.21 379.123 577.688 383.683C575.536 379.829 579.8 387.56 577.688 383.683C577.304 383.003 578.069 384.364 577.688 383.683C577.494 380.428 577.251 374.039 576.576 370.874C575.825 367.35 574.969 363.848 574.048 360.366H574.047Z" fill="#3F97B1"/>
<path d="M455.658 389.731C455.613 389.634 455.594 389.779 455.66 389.752C455.66 389.752 455.66 389.75 455.66 389.749C455.66 389.749 455.658 389.749 455.658 389.748C455.609 389.716 455.64 389.721 455.658 389.731Z" fill="white"/>
<path d="M455.662 389.75C455.662 389.75 455.666 389.753 455.668 389.754C455.668 389.751 455.665 389.747 455.665 389.744C455.665 389.747 455.665 389.748 455.662 389.75Z" fill="white"/>
<path d="M462.56 308.48C462.601 316.764 462.56 325.049 462.494 333.333C462.463 337.172 462.426 341.011 462.377 344.85C465.297 345.084 468.235 344.947 471.154 345.182C471.159 343.419 471.164 341.656 471.168 339.893C471.191 330.789 471.216 321.685 471.241 312.582C471.254 307.184 471.269 301.783 471.283 296.385C468.325 296.484 465.367 296.583 462.408 296.682C462.503 300.614 462.541 304.548 462.56 308.481V308.48Z" fill="#8FC6D7"/>
<path d="M518.726 294.832C523.054 295.822 527.763 295.643 531.999 294.31C532.13 294.269 532.252 294.258 532.364 294.269C532.356 292.464 532.347 290.657 532.339 288.852C527.707 289.775 522.715 289.791 518.095 288.862C518.114 289.522 518.133 290.18 518.152 290.84C518.192 292.174 518.23 293.507 518.27 294.842C518.406 294.803 518.558 294.792 518.727 294.832H518.726Z" fill="#F29EC3"/>
<path d="M523.778 390.757C523.778 390.757 523.778 390.757 523.778 390.756C523.745 390.776 523.723 390.791 523.714 390.798C523.734 390.785 523.756 390.771 523.777 390.757H523.778Z" fill="white"/>
<path d="M497.791 369.951C497.832 374.367 497.874 378.782 497.915 383.199C497.941 386.022 497.967 388.846 497.993 391.67C499.271 392.102 500.573 392.456 501.899 392.711C506.798 393.656 512.042 393.391 516.816 391.922C517.479 391.717 518.169 391.483 518.773 391.205C518.994 391.102 519.206 390.989 519.419 390.871C519.425 390.867 519.43 390.863 519.436 390.86C519.438 390.824 519.44 390.785 519.44 390.75C519.454 386.81 519.462 382.871 519.466 378.931C519.471 375.877 519.461 372.823 519.461 369.77C512.389 371.654 504.901 371.714 497.792 369.953L497.791 369.951ZM514.021 388.001C510.816 389.13 507.287 389.217 504.024 388.274C502.907 387.95 503.385 386.206 504.505 386.53C507.482 387.39 510.621 387.285 513.541 386.257C514.004 386.094 514.531 386.442 514.652 386.888C514.789 387.382 514.482 387.838 514.021 387.999V388.001ZM514.021 382.641C510.816 383.771 507.287 383.858 504.024 382.915C502.907 382.592 503.385 380.847 504.505 381.171C507.482 382.031 510.621 381.926 513.541 380.897C514.004 380.735 514.531 381.083 514.652 381.528C514.789 382.023 514.482 382.479 514.021 382.64V382.641Z" fill="#854747"/>
<path d="M519.305 385.114C519.302 386.306 519.301 387.497 519.297 388.688C519.296 389.306 519.338 389.949 519.326 390.578C523.532 391.835 528.304 391.431 532.559 390.533C532.562 390.156 532.565 389.78 532.566 389.403C532.576 387.716 532.577 386.028 532.581 384.34C532.547 384.355 532.516 384.373 532.478 384.385C528.278 385.706 523.644 385.923 519.304 385.113L519.305 385.114Z" fill="#F29EC3"/>
<path d="M519.461 369.886C519.458 366.126 519.464 362.365 519.454 358.605C519.432 349.978 519.39 341.35 519.305 332.723C519.237 325.646 519.147 318.569 518.96 311.494C511.963 313.85 504.321 314.064 497.194 312.118C497.197 312.443 497.197 312.768 497.201 313.092C497.291 320.893 497.372 328.695 497.45 336.496C497.54 345.406 497.626 354.315 497.711 363.225C497.732 365.515 497.753 367.806 497.775 370.096C497.828 370.1 497.883 370.107 497.94 370.122C505.004 371.933 512.441 371.84 519.46 369.886H519.461Z" fill="#B06D6D"/>
<path d="M532.278 289.204C532.248 288.806 532.218 288.41 532.188 288.013C531.737 282.025 531.274 276.037 530.936 270.041H518.562C518.547 270.606 518.533 271.172 518.52 271.737C518.374 277.557 518.226 283.377 518.08 289.198C522.659 290.184 527.681 290.172 532.28 289.204H532.278Z" fill="#FBE4C6"/>
<path d="M478.697 298.747C478.697 293.475 478.701 288.203 478.695 282.932C476.41 283.182 474.117 283.347 471.823 283.453C466.162 283.716 460.463 283.711 454.798 283.434C454.816 284.198 454.833 284.962 454.85 285.726C455.045 294.818 455.134 303.912 455.186 313.006C455.24 322.506 455.253 332.006 455.274 341.508C455.296 350.961 455.326 360.416 455.419 369.87C455.464 374.363 455.523 378.855 455.606 383.348C455.646 385.499 455.732 387.651 455.743 389.802C455.784 389.827 455.824 389.853 455.866 389.876C456.252 390.095 456.49 390.172 456.916 390.319C459.889 391.343 463.122 391.746 466.247 391.934C470.359 392.183 474.519 391.944 478.527 390.965C478.499 390.179 478.571 389.361 478.572 388.595C478.576 386.482 478.582 384.368 478.586 382.255C478.6 375.439 478.613 368.621 478.626 361.805C478.642 352.887 478.656 343.967 478.668 335.049C478.68 325.619 478.691 316.187 478.697 306.757C478.697 304.278 478.695 301.798 478.697 299.319C478.635 299.14 478.638 298.939 478.697 298.748V298.747ZM471.777 385.274C468.407 385.758 465.026 385.694 461.68 385.059C461.198 384.968 460.927 384.389 461.049 383.947C461.185 383.45 461.681 383.225 462.16 383.317C465.161 383.886 468.271 383.967 471.296 383.531C471.781 383.461 472.265 383.643 472.408 384.162C472.525 384.591 472.26 385.204 471.777 385.274ZM473.077 301.723C473.053 310.827 473.029 319.929 473.006 329.033C472.991 334.743 472.976 340.455 472.961 346.165C472.961 346.611 472.544 347.122 472.057 347.069C468.537 346.681 464.985 346.966 461.464 346.577C460.982 346.524 460.553 346.202 460.56 345.673C460.579 344.22 460.595 342.767 460.612 341.312C460.69 334.096 460.744 326.878 460.762 319.66C460.782 311.71 460.792 303.755 460.584 295.806C460.574 295.403 460.785 295.143 461.065 295.02C461.184 294.953 461.323 294.908 461.489 294.902C465.056 294.783 468.623 294.663 472.189 294.544C472.678 294.528 473.094 294.972 473.093 295.449C473.088 297.539 473.082 299.63 473.077 301.723Z" fill="#2B6577"/>
<path d="M478.504 275.83C478.249 272.545 477.809 269.263 477.457 266C474.29 266.107 471.121 266.153 467.953 266.217C466.334 266.25 464.716 266.283 463.098 266.322C462.46 266.337 461.822 266.355 461.184 266.376C461.104 266.378 461.007 266.391 460.911 266.397C460.185 267.92 459.54 269.383 458.939 271.003C457.633 274.522 456.121 280.093 454.959 283.661C454.768 283.655 455.149 283.67 454.959 283.661C462.562 283.947 470.977 283.836 478.549 282.997C478.564 281.461 478.656 278.044 478.549 276.507C478.452 276.293 478.442 276.049 478.504 275.829V275.83Z" fill="#FBE4C6"/>
<path d="M498.715 277.108C498.715 277.108 498.71 277.105 498.708 277.104H498.705C498.743 277.125 498.762 277.137 498.715 277.108Z" fill="white"/>
<path d="M478.339 284.325C478.339 285.223 478.341 286.122 478.341 287.021C478.345 291.544 478.341 296.066 478.341 300.589C482.583 301.331 486.951 301.342 491.235 301.06C493.299 300.925 495.351 300.734 497.367 300.413C497.16 300.27 497.009 300.04 496.993 299.721C496.774 295.257 496.555 290.793 496.336 286.33C496.324 286.257 496.322 286.185 496.325 286.111C496.253 284.632 496.18 283.153 496.108 281.674C496.074 280.972 496.04 280.27 496.004 279.568C496.003 279.542 495.997 279.502 495.992 279.459C495.387 279.422 494.779 279.407 494.174 279.394C491.936 279.347 489.695 279.343 487.456 279.344C485.123 279.344 482.792 279.355 480.461 279.374C479.717 279.381 478.972 279.388 478.227 279.397C478.329 281.04 478.384 282.683 478.339 284.323V284.325Z" fill="#FADBE9"/>
<path d="M498.112 381.016C498.041 373.351 497.969 365.687 497.895 358.022C497.809 349.104 497.723 340.185 497.632 331.267C497.555 323.789 497.479 316.312 497.389 308.835C497.36 306.479 497.331 304.123 497.296 301.767C497.286 301.132 497.292 300.491 497.278 299.854C495.276 300.153 493.25 300.345 491.235 300.478C486.944 300.759 482.592 300.723 478.341 300.026C478.341 303.399 478.342 306.772 478.341 310.146C478.334 319.572 478.323 328.999 478.309 338.426C478.297 347.179 478.282 355.932 478.267 364.683C478.255 371.157 478.243 377.63 478.229 384.102C478.223 386.446 478.219 388.788 478.214 391.132C479.551 391.812 481.094 392.104 482.568 392.276C486.15 392.694 489.809 392.503 493.39 392.157C495.023 392 496.584 391.816 498.175 391.559C498.123 390.572 498.193 389.546 498.183 388.574C498.16 386.054 498.137 383.534 498.114 381.014L498.112 381.016ZM491.847 334.323C489.342 334.136 486.847 334.645 484.342 334.457C483.853 334.42 483.438 334.073 483.438 333.553C483.438 333.09 483.854 332.612 484.342 332.649C486.847 332.836 489.342 332.326 491.847 332.515C492.335 332.552 492.751 332.899 492.751 333.419C492.751 333.882 492.334 334.36 491.847 334.323ZM491.847 326.835C489.342 326.648 486.847 327.157 484.342 326.969C483.853 326.932 483.438 326.583 483.438 326.065C483.438 325.602 483.854 325.124 484.342 325.16C486.847 325.348 489.342 324.838 491.847 325.027C492.335 325.063 492.751 325.41 492.751 325.931C492.751 326.394 492.334 326.872 491.847 326.835ZM491.847 319.345C489.342 319.158 486.847 319.667 484.342 319.479C483.853 319.442 483.438 319.095 483.438 318.575C483.438 318.112 483.854 317.634 484.342 317.671C486.847 317.858 489.342 317.348 491.847 317.537C492.335 317.574 492.751 317.922 492.751 318.441C492.751 318.904 492.334 319.382 491.847 319.345ZM491.847 311.857C489.342 311.67 486.847 312.179 484.342 311.991C483.853 311.954 483.438 311.607 483.438 311.087C483.438 310.624 483.854 310.146 484.342 310.182C486.847 310.37 489.342 309.86 491.847 310.049C492.335 310.086 492.751 310.432 492.751 310.953C492.751 311.416 492.334 311.894 491.847 311.857Z" fill="#B4185C"/>
<path d="M497.581 312.382C504.599 314.318 512.068 314.032 518.927 311.624C518.904 310.806 518.879 309.989 518.854 309.171C518.647 302.108 518.439 295.044 518.232 287.98C517.045 288.043 515.857 288.084 514.67 288.125C508.499 288.338 502.326 288.497 496.153 288.648C496.361 292.883 496.569 297.119 496.776 301.354C496.791 301.664 496.956 301.209 496.776 301.354C497.07 301.486 496.988 302.448 497.016 302.838C497.023 302.935 497.025 303.033 497.029 303.13C497.161 306.201 497.163 309.283 497.178 312.36C497.299 312.338 497.434 312.344 497.579 312.383L497.581 312.382Z" fill="#FBE4C6"/>
<path d="M455.659 389.735C455.642 389.724 455.61 389.719 455.659 389.751C455.659 389.751 455.661 389.751 455.662 389.753C455.665 389.751 455.664 389.748 455.665 389.747C455.664 389.743 455.661 389.739 455.659 389.735Z" fill="#5A281C"/>
<path d="M513.542 386.255C510.622 387.284 507.482 387.388 504.506 386.528C503.386 386.204 502.908 387.948 504.026 388.272C507.288 389.216 510.817 389.128 514.023 387.999C514.483 387.836 514.79 387.381 514.654 386.887C514.531 386.44 514.005 386.092 513.542 386.256V386.255Z" fill="#5A281C"/>
<path d="M513.542 380.897C510.622 381.926 507.482 382.031 504.506 381.17C503.386 380.847 502.908 382.591 504.026 382.914C507.288 383.858 510.817 383.771 514.023 382.641C514.483 382.479 514.79 382.024 514.654 381.53C514.531 381.083 514.005 380.735 513.542 380.899V380.897Z" fill="#5A281C"/>
<path d="M472.19 294.543C468.623 294.664 465.055 294.782 461.489 294.901C461.324 294.907 461.185 294.952 461.066 295.019C460.786 295.143 460.574 295.402 460.585 295.805C460.793 303.754 460.783 311.708 460.763 319.659C460.745 326.877 460.69 334.095 460.613 341.311C460.598 342.764 460.581 344.219 460.561 345.672C460.554 346.201 460.983 346.523 461.465 346.576C464.984 346.964 468.536 346.679 472.057 347.068C472.545 347.121 472.96 346.61 472.961 346.164C472.976 340.454 472.991 334.742 473.006 329.032C473.03 319.928 473.054 310.826 473.077 301.722C473.083 299.631 473.088 297.54 473.094 295.448C473.095 294.971 472.679 294.527 472.19 294.543ZM471.241 312.579C471.217 321.683 471.193 330.787 471.168 339.89C471.164 341.653 471.159 343.416 471.155 345.179C468.235 344.944 465.297 345.082 462.377 344.847C462.426 341.008 462.464 337.169 462.494 333.33C462.561 325.046 462.6 316.761 462.56 308.477C462.541 304.543 462.501 300.61 462.408 296.678C465.367 296.578 468.325 296.48 471.283 296.38C471.269 301.779 471.254 307.179 471.241 312.578V312.579Z" fill="#8FC6D7"/>
<path d="M491.846 310.044C489.342 309.857 486.846 310.366 484.342 310.178C483.854 310.141 483.438 310.619 483.438 311.082C483.438 311.602 483.853 311.949 484.342 311.986C486.846 312.173 489.342 311.664 491.846 311.852C492.334 311.889 492.75 311.411 492.75 310.948C492.75 310.428 492.335 310.081 491.846 310.044Z" fill="#5A281C"/>
<path d="M491.846 317.534C489.342 317.347 486.846 317.857 484.342 317.668C483.854 317.631 483.438 318.109 483.438 318.572C483.438 319.093 483.853 319.439 484.342 319.476C486.846 319.663 489.342 319.154 491.846 319.342C492.334 319.379 492.75 318.901 492.75 318.438C492.75 317.919 492.335 317.571 491.846 317.534Z" fill="#5A281C"/>
<path d="M491.846 325.022C489.342 324.835 486.846 325.345 484.342 325.156C483.854 325.119 483.438 325.597 483.438 326.06C483.438 326.579 483.853 326.928 484.342 326.965C486.846 327.152 489.342 326.642 491.846 326.831C492.334 326.866 492.75 326.39 492.75 325.927C492.75 325.406 492.335 325.059 491.846 325.022Z" fill="#5A281C"/>
<path d="M491.846 332.513C489.342 332.326 486.846 332.835 484.342 332.647C483.854 332.61 483.438 333.088 483.438 333.551C483.438 334.071 483.853 334.418 484.342 334.455C486.846 334.642 489.342 334.132 491.846 334.321C492.334 334.358 492.75 333.88 492.75 333.417C492.75 332.897 492.335 332.55 491.846 332.513Z" fill="#5A281C"/>
<path d="M547.098 337.442C546.858 336.992 546.284 336.907 545.861 337.117C544.506 337.793 543.151 338.468 541.795 339.144C541.794 339.144 541.793 339.145 541.791 339.147C541.772 339.156 541.753 339.166 541.734 339.175C541.399 339.342 541.268 339.615 541.276 339.894C541.268 339.996 541.276 340.099 541.317 340.197C542.798 343.741 544.692 347.095 546.573 350.437C547.456 352.008 548.255 353.674 549.223 355.193C549.763 356.038 550.604 356.236 551.51 355.85C552.52 355.418 553.498 354.884 554.484 354.403C554.82 354.239 555.025 353.735 554.899 353.382C552.929 347.799 549.871 342.647 547.094 337.442H547.098ZM551.051 354.074C550.954 354.13 553.001 353.132 552.897 353.171C552.815 353.05 552.964 353.294 552.897 353.171C552.722 352.849 553.075 353.492 552.897 353.171C552.806 351.533 547.547 340.31 545.938 339.096C544.875 336.228 547.639 341.69 545.938 339.096C545.078 339.524 546.797 338.667 545.938 339.096C548.415 343.692 551.074 348.27 552.897 353.171C552.283 353.475 553.517 352.879 552.897 353.171L551.051 354.074Z" fill="#6A3939"/>
<path d="M471.296 383.531C468.27 383.967 465.161 383.886 462.16 383.317C461.681 383.225 461.185 383.451 461.049 383.948C460.927 384.389 461.197 384.968 461.679 385.059C465.026 385.695 468.407 385.759 471.776 385.274C472.26 385.204 472.526 384.59 472.407 384.162C472.264 383.643 471.78 383.46 471.296 383.531Z" fill="#5A281C"/>
<path d="M402.975 320.083C405.985 316.864 414.16 311.568 422.782 316.133C420.642 320.082 413.685 326.401 402.975 320.083Z" fill="#2B6577"/>
<path d="M403.166 320.014C404.4 320.015 410.228 320.053 412.523 318.643" stroke="#4F2B2B" stroke-linecap="round" stroke-linejoin="round"/>
<path d="M402.6 316.673C400.837 312.634 394.899 304.912 385.248 306.338C385.947 310.775 390.396 319.053 402.6 316.673Z" fill="#2B6577"/>
<path d="M402.443 316.543C401.28 316.132 395.774 314.222 394.081 312.127" stroke="#4F2B2B" stroke-linecap="round" stroke-linejoin="round"/>
<path d="M404.779 306.475C404.98 309.553 404.257 317.476 399.76 324.542C394.139 333.376 387.715 334.982 387.916 355.86" stroke="#4F2B2B" stroke-width="3.80899" stroke-linecap="round"/>
<path d="M412.235 277.204C410.468 274.956 408.822 276.268 408.22 277.204C395.171 291.257 399.989 296.677 401.394 299.889C402.799 303.101 413.038 308.522 418.659 299.889C424.28 291.257 414.443 280.015 412.235 277.204Z" fill="#B4185C"/>
<path d="M401.794 276.802C400.028 274.554 398.381 275.865 397.779 276.802C384.73 290.855 389.548 296.275 390.954 299.487C392.359 302.699 402.597 308.119 408.218 299.487C413.839 290.855 404.003 279.613 401.794 276.802Z" fill="#B4185C"/>
<path d="M422.212 283.753C422.358 280.897 420.255 280.804 419.185 281.114C400.115 283.13 400.184 290.382 399.132 293.726C398.08 297.071 402.235 307.885 412.144 305.073C422.054 302.261 422.029 287.323 422.212 283.753Z" fill="#E43A83"/>
<path d="M387.435 283.753C387.289 280.897 389.392 280.804 390.461 281.114C409.532 283.13 409.463 290.382 410.515 293.726C411.566 297.071 407.412 307.885 397.502 305.073C387.592 302.261 387.618 287.323 387.435 283.753Z" fill="#E43A83"/>
<path d="M407.189 279.777C405.422 277.528 403.776 278.84 403.174 279.777C390.125 293.829 394.943 299.25 396.348 302.462C397.753 305.674 407.992 311.094 413.613 302.462C419.234 293.829 409.397 282.587 407.189 279.777Z" fill="#E95D9A"/>
<path d="M404.262 332.33H381.876C380.022 332.33 378.612 333.995 378.917 335.824L380.375 344.57C380.585 345.824 380.553 347.106 380.281 348.349L371 390.833H414.745L405.504 348.531C405.207 347.171 405.197 345.764 405.475 344.4L407.201 335.929C407.58 334.07 406.159 332.33 404.262 332.33Z" fill="#9F5656"/>
<path d="M384.177 338.127H402.096" stroke="#4F2B2B" stroke-width="4" stroke-linecap="round"/>
</g>
</svg>
