<svg width="372" height="250" viewBox="0 0 372 250" fill="none" xmlns="http://www.w3.org/2000/svg">
<mask id="mask0_917_9872" style="mask-type:alpha" maskUnits="userSpaceOnUse" x="0" y="0" width="372" height="250">
<path d="M0 20C0 8.9543 8.95431 0 20 0H352C363.046 0 372 8.9543 372 20V250H0V20Z" fill="#F7FDFE"/>
</mask>
<g mask="url(#mask0_917_9872)">
<path d="M287.175 67.3488L204.579 50L204.393 60.5936L286.976 78.6965L287.175 67.3488Z" fill="#3F97B1"/>
<path d="M204.393 60.5938L202.302 179.266L284.899 196.616L286.976 78.6967L204.393 60.5938Z" fill="#F8D2A0"/>
<path d="M216.831 93.4086L218.455 86.2765M218.455 86.2765L221.123 74.5595C224.518 75.4479 229.964 78.7421 224.586 84.8116C223.905 85.6553 221.725 87.1295 218.455 86.2765ZM232.195 89.4915L241.87 92.1511C241.574 88.0622 239.226 81.7037 232.201 88.9808C225.175 96.2579 234.313 98.1967 239.76 98.2565M245.876 99.345L250.054 90.9642M256.067 101.5L255.149 92.0415M255.149 92.0415L254.231 82.5833L250.054 90.9642M255.149 92.0415L250.054 90.9642M266.47 84.2497L263.561 93.4105M260.651 102.571L263.561 93.4105M263.561 93.4105L268.799 104.704M263.561 93.4105L277.155 87.9419" stroke="#4F2B2B" stroke-width="3" stroke-linecap="round" stroke-linejoin="round"/>
<path d="M259.43 141.77L228.487 135.27C224.37 134.404 221.1 129.935 221.182 125.286C221.264 120.638 224.668 117.57 228.785 118.434L259.727 124.934C263.844 125.799 267.115 130.269 267.033 134.917C266.951 139.566 263.547 142.634 259.43 141.77Z" fill="#DF8711"/>
<path d="M250.052 151.626L246.929 155.82C246.763 156.043 246.45 156.087 246.229 155.923C246.007 155.758 245.962 155.444 246.126 155.223L249.257 151.018C249.465 150.752 249.707 150.531 249.961 150.332C249.969 150.32 249.97 150.306 249.979 150.296C250.986 149.01 250.801 147.176 249.566 146.208C248.331 145.237 246.505 145.499 245.498 146.785L242.376 150.979C242.278 151.112 242.127 151.181 241.975 151.181C241.871 151.181 241.766 151.148 241.676 151.082C241.455 150.917 241.409 150.604 241.573 150.382L244.703 146.177C245.082 145.693 245.553 145.331 246.064 145.071C246.376 143.791 245.92 142.45 244.879 141.633C244.173 141.08 243.294 140.827 242.407 140.943C241.518 141.051 240.723 141.498 240.17 142.204L236.698 146.875C236.6 147.008 236.449 147.078 236.297 147.078C236.193 147.078 236.088 147.045 235.999 146.979C235.778 146.814 235.731 146.502 235.896 146.28L239.376 141.599C239.467 141.483 239.575 141.391 239.675 141.285C239.691 141.229 239.714 141.175 239.75 141.125L245.837 132.942C246.248 132.214 246.342 131.278 246.065 130.426C245.787 129.573 245.16 128.873 244.342 128.504C243.146 127.962 241.76 128.203 240.814 129.112L228.718 140.742C228.023 141.412 227.435 142.18 226.97 143.025L221.348 171.069L239.861 180.887L244.526 178.409C247.164 177.006 249.095 174.539 249.819 171.64L252.671 160.232L254.452 155.273C254.9 153.83 255.211 151.904 254.116 151.047C252.883 150.079 251.057 150.337 250.05 151.623L250.052 151.626Z" fill="#FFBE97"/>
<path d="M254.736 150.263C253.777 149.511 252.562 149.319 251.443 149.605C251.907 148.1 251.462 146.423 250.184 145.421C249.297 144.726 248.189 144.509 247.141 144.705C247.287 143.237 246.686 141.778 245.498 140.847C244.583 140.13 243.446 139.812 242.288 139.952C242.116 139.973 241.955 140.023 241.79 140.064L246.675 133.49C247.258 132.466 247.382 131.238 247.018 130.119C246.654 129 245.829 128.08 244.757 127.595C243.182 126.887 241.368 127.2 240.123 128.395L228.027 140.025C227.238 140.784 226.575 141.656 226.057 142.619C226.033 142.663 226.017 142.71 226.006 142.757L220.297 171.241C220.252 171.458 220.358 171.678 220.552 171.781L239.628 181.897C239.702 181.936 239.783 181.956 239.862 181.956C239.942 181.956 240.024 181.936 240.096 181.897L244.996 179.294C247.884 177.759 249.997 175.059 250.791 171.884L253.628 160.525L255.401 155.593C256.391 152.395 255.586 150.93 254.734 150.263H254.736ZM254.455 155.275L252.674 160.234L249.821 171.642C249.096 174.542 247.167 177.008 244.528 178.411L239.863 180.889L221.351 171.072L226.972 143.027C227.437 142.182 228.025 141.414 228.721 140.744L240.817 129.114C241.763 128.205 243.148 127.964 244.345 128.506C245.162 128.875 245.79 129.575 246.067 130.428C246.345 131.281 246.25 132.216 245.839 132.944L239.752 141.127C239.716 141.176 239.694 141.231 239.677 141.287C239.578 141.391 239.469 141.485 239.379 141.601L235.899 146.283C235.733 146.504 235.78 146.817 236.002 146.982C236.091 147.048 236.195 147.08 236.299 147.08C236.451 147.08 236.601 147.011 236.701 146.877L240.172 142.206C240.725 141.5 241.519 141.053 242.409 140.945C243.297 140.829 244.175 141.082 244.881 141.635C245.922 142.451 246.379 143.793 246.066 145.073C245.555 145.333 245.085 145.695 244.705 146.18L241.575 150.384C241.41 150.606 241.456 150.92 241.678 151.085C241.768 151.151 241.873 151.183 241.977 151.183C242.129 151.183 242.279 151.114 242.379 150.982L245.5 146.787C246.507 145.502 248.332 145.24 249.568 146.21C250.804 147.178 250.989 149.012 249.982 150.298C249.972 150.309 249.971 150.322 249.963 150.334C249.709 150.533 249.468 150.754 249.259 151.02L246.128 155.225C245.963 155.446 246.009 155.76 246.231 155.925C246.451 156.089 246.765 156.046 246.931 155.822L250.054 151.628C251.061 150.341 252.888 150.083 254.121 151.052C255.216 151.909 254.904 153.834 254.457 155.278L254.455 155.275Z" fill="#FFBE97"/>
<path d="M173.361 126.01H138.801L128.112 146.675H162.673L173.361 126.01Z" fill="#FFBE97"/>
<path d="M165.793 140.621L169.813 132.581L143.013 133.474C152.661 142.408 162.071 140.472 165.793 140.621Z" fill="#4F2B2B"/>
<path d="M132.989 85.8261C148.837 71.8098 172.356 78.1072 172.356 78.1072C172.356 78.1072 181.27 72.0662 186.016 78.7114C190.76 85.3566 181.88 92.2078 181.88 92.2078L132.989 85.8249V85.8261Z" fill="#4F2B2B"/>
<path d="M128.706 122.902C133.783 136.547 153.181 142.924 169.555 136.83C185.93 130.737 193.079 114.48 188 100.836C182.923 87.1913 165.533 81.0695 149.159 87.1631C132.785 93.2568 123.627 109.257 128.706 122.902Z" fill="#FFBE97"/>
<path d="M168.942 115.209C171.654 114.862 173.701 113.398 173.515 111.939C173.328 110.481 170.978 109.58 168.266 109.926C165.554 110.273 163.506 111.737 163.693 113.196C163.88 114.655 166.23 115.556 168.942 115.209Z" fill="#FF9D6C"/>
<path d="M184.501 101.439L192.62 107.313C193.669 108.072 193.665 109.636 192.613 110.39L187.586 113.994L184.503 101.441L184.501 101.439Z" fill="#FFBE97"/>
<path d="M179.702 106.845C179.088 107.141 178.351 106.885 178.054 106.27L177.187 104.474C176.89 103.86 177.147 103.123 177.762 102.826C178.375 102.53 179.113 102.786 179.409 103.401L180.277 105.197C180.573 105.811 180.317 106.549 179.702 106.845Z" fill="#4F2B2B"/>
<path d="M171.832 101.854C171.705 101.854 171.58 101.806 171.483 101.711C171.285 101.518 171.283 101.202 171.475 101.004C173.191 99.2512 175.451 97.9795 177.836 97.4222C178.109 97.3601 178.374 97.5264 178.437 97.7957C178.5 98.0638 178.333 98.3332 178.065 98.3964C175.861 98.9093 173.774 100.084 172.19 101.703C172.092 101.804 171.963 101.853 171.833 101.853L171.832 101.854Z" fill="#4F2B2B"/>
<path d="M172.663 77.9499C172.663 77.9499 149.202 70.9699 133.354 84.9862C117.507 99.0025 117.584 115.426 125.504 125.979C133.425 136.532 142.914 136.816 142.914 136.816C142.914 136.816 152.978 105.511 153.964 106.35C154.95 107.19 172.663 77.9488 172.663 77.9488V77.9499Z" fill="#4F2B2B"/>
<path d="M158.747 118.375C159.878 114.615 157.746 110.65 153.985 109.519C150.224 108.389 146.26 110.521 145.129 114.282C143.999 118.042 146.131 122.007 149.892 123.138C153.652 124.268 157.617 122.136 158.747 118.375Z" fill="#FFBE97"/>
<path d="M149.826 117.594L153.941 117.771C154.604 117.799 155.164 117.285 155.193 116.622C155.221 115.959 154.707 115.398 154.044 115.37L149.929 115.193C149.266 115.165 148.705 115.679 148.677 116.342C148.649 117.005 149.163 117.566 149.826 117.594Z" fill="#4F2B2B"/>
<path d="M180.165 120.972C178.175 120.972 176.185 120.66 174.298 120.037C174.036 119.951 173.893 119.668 173.98 119.406C174.067 119.144 174.347 118.998 174.612 119.088C178.045 120.223 181.839 120.267 185.297 119.219C185.561 119.139 185.84 119.287 185.92 119.552C185.999 119.817 185.85 120.095 185.586 120.176C183.834 120.708 181.999 120.972 180.164 120.972H180.165Z" fill="#4F2B2B"/>
<path d="M171.17 81.623C174.071 83.5856 175.588 87.3947 174.833 90.8139C174.077 94.233 171.096 97.048 167.638 97.6042C167.363 97.6487 167.053 97.6967 166.886 97.9204C166.75 98.1007 166.748 98.3454 166.74 98.5714C166.48 105.978 153.934 112.467 147.991 107.55L171.17 81.623Z" fill="#4F2B2B"/>
<path d="M122.199 148.019L132.589 137.634C132.589 137.634 160.941 140.573 173.954 149.802L122.199 148.019Z" fill="#3F97B1"/>
<path d="M122.199 148.018C122.199 148.018 112.295 156.501 107.447 165.202C94.1451 189.073 85 248.931 85 248.931L174.786 250L177.28 223.278C177.28 223.278 185.832 238.954 203.29 237.529C223.316 235.895 239.94 180.821 239.94 180.821L222.073 165.634L202.934 177.315L189.709 159.458C183.659 153.408 175.859 149.427 167.414 148.047C153.398 145.758 132.107 143.4 122.198 148.018H122.199Z" fill="#2B6577"/>
<path d="M177.282 223.779C177.123 223.779 176.966 223.702 176.868 223.561L163.686 204.32C163.53 204.093 163.589 203.781 163.816 203.625C164.044 203.47 164.356 203.528 164.511 203.755L177.694 222.996C177.85 223.224 177.791 223.535 177.564 223.691C177.477 223.75 177.379 223.779 177.282 223.779Z" fill="#4F2B2B"/>
<path d="M191.315 195.164C191.252 195.164 191.188 195.152 191.126 195.127C190.871 195.023 190.748 194.731 190.853 194.475C193.54 187.909 197.629 181.801 202.676 176.815C202.873 176.621 203.189 176.623 203.383 176.819C203.578 177.016 203.575 177.332 203.38 177.526C198.428 182.42 194.416 188.41 191.779 194.854C191.7 195.047 191.513 195.164 191.317 195.164H191.315Z" fill="#4F2B2B"/>
<path d="M250.691 120.888L245.3 113.339L250.943 111.141L250.691 120.888Z" fill="#4F2B2B"/>
<path d="M254.511 120.66L255.125 111.405L260.883 113.282L254.511 120.66Z" fill="#4F2B2B"/>
<path d="M257.796 122.802L263.709 115.654L267.282 120.544L257.796 122.802Z" fill="#4F2B2B"/>
</g>
</svg>
