<svg width="101" height="100" viewBox="0 0 101 100" fill="none" xmlns="http://www.w3.org/2000/svg">
<path d="M98.6776 9.65626V14.4961C98.6776 15.3835 97.9518 16.1094 97.0647 16.1094H74.484C74.484 15.1092 73.9518 14.1896 73.0808 13.6895L63.1937 8.04297H97.0647C97.9518 8.04297 98.6776 8.76895 98.6776 9.65626Z" fill="#854747"/>
<path d="M98.6776 98.3876H69.6454C69.6454 95.516 71.5486 92.9992 74.2905 92.2248L80.9357 90.3212V87.8206C79.0164 86.6913 77.7099 84.6424 77.7099 82.2547V79.0281C77.7099 75.2691 80.9196 72.2684 84.7422 72.6072C88.1293 72.8976 90.6131 75.9628 90.6131 79.3669V82.2547C90.6131 84.6424 89.3067 86.6913 87.3873 87.8206V90.3212L94.0325 92.2248C95.4035 92.612 96.5647 93.4348 97.3873 94.5157C98.1938 95.6128 98.6776 96.9518 98.6776 98.3876Z" fill="#F8D2A0"/>
<path d="M82.5486 30.6299L85.7744 41.9229C85.7744 43.262 85.226 44.4719 84.3551 45.3431C83.4841 46.2143 82.2744 46.7628 80.9357 46.7628C79.597 46.7628 78.3873 46.2143 77.5163 45.3431C76.6454 44.4719 76.097 43.262 76.097 41.9229L79.3228 30.6299H82.5486Z" fill="#FCD770"/>
<path d="M74.4841 16.1095C74.4841 17.1097 73.9518 18.0293 73.0809 18.5294L68.0325 21.4172L53.3067 29.8225C52.3873 30.3549 51.355 30.6291 50.2905 30.6291C49.226 30.6291 48.1938 30.3549 47.2744 29.8225L32.5486 21.4172L27.5002 18.5294C26.6292 18.0293 26.097 17.1097 26.097 16.1095C26.097 15.1092 26.6292 14.1897 27.5002 13.6895L37.3873 8.04302L47.2744 2.39649C48.1938 1.8641 49.226 1.58984 50.2905 1.58984C51.355 1.58984 52.3873 1.8641 53.3067 2.39649L63.1938 8.04302L73.0809 13.6895C73.9518 14.1897 74.4841 15.1092 74.4841 16.1095Z" fill="#AAB2BD"/>
<path d="M68.0325 21.417V35.4688C68.0325 35.4688 64.5647 38.0662 58.2583 39.4536C55.9679 39.9699 53.3066 40.3087 50.2905 40.3087C47.2744 40.3087 44.6131 39.9699 42.3228 39.4536C36.0163 38.0662 32.5486 35.4688 32.5486 35.4688V21.417L47.2744 29.8222C48.1937 30.3546 49.226 30.6289 50.2905 30.6289C51.355 30.6289 52.3873 30.3546 53.3067 29.8222L68.0325 21.417Z" fill="#838F9B"/>
<path d="M64.8067 98.3876H35.7744C35.7744 95.516 37.6776 92.9992 40.4196 92.2248L47.0647 90.3212V87.8206C45.1454 86.6913 43.8389 84.6424 43.8389 82.2547V79.0281C43.8389 75.2691 47.0486 72.2684 50.8712 72.6072C54.2583 72.8976 56.7422 75.9628 56.7422 79.3669V82.2547C56.7422 84.6424 55.4357 86.6913 53.5163 87.8206V90.3212L60.1615 92.2248C61.5325 92.612 62.6938 93.4348 63.5163 94.5157C64.3228 95.6128 64.8067 96.9518 64.8067 98.3876Z" fill="#F8D2A0"/>
<path d="M58.2583 39.4541C62.1938 42.0515 64.8067 46.5203 64.8067 51.6022C64.8067 59.6203 58.3067 66.1218 50.2905 66.1218C42.2744 66.1218 35.7744 59.6203 35.7744 51.6022C35.7744 46.5203 38.3873 42.0515 42.3228 39.4541C44.6131 39.9704 47.2744 40.3091 50.2905 40.3091C53.3067 40.3091 55.968 39.9704 58.2583 39.4541Z" fill="#F2AE54"/>
<path d="M56.7421 51.6016L47.0647 56.4415V46.7617L56.7421 51.6016Z" fill="#E95D9A"/>
<path d="M77.7099 16.1094H74.4841C74.4841 17.1096 73.9518 18.0292 73.0809 18.5293L68.0325 21.4171V35.4689C68.0325 35.4689 64.5647 38.0663 58.2583 39.4537C62.1938 42.0511 64.8067 46.52 64.8067 51.6018C64.8067 59.6199 58.3067 66.1215 50.2905 66.1215C42.2744 66.1215 35.7744 59.6199 35.7744 51.6018C35.7744 46.52 38.3873 42.0511 42.3228 39.4537C36.0163 38.0663 32.5486 35.4689 32.5486 35.4689V21.4171L27.5002 18.5293C26.6292 18.0292 26.097 17.1096 26.097 16.1094H5.12924V67.7348H95.4518V16.1094H77.7099Z" fill="#D8F5FD"/>
<path d="M79.3228 30.6289L76.097 41.922C76.097 44.6 78.2583 46.7618 80.9357 46.7618C83.6131 46.7618 85.7744 44.6 85.7744 41.922L82.5486 30.6289H79.3228Z" fill="#F2AE54"/>
<path d="M80.9357 48.3752C77.3712 48.3752 74.4841 45.4874 74.4841 41.922L74.5486 41.4864L78.1131 29.0156H83.7744L87.4034 41.922C87.4034 45.4874 84.5163 48.3752 80.9518 48.3752H80.9357ZM77.7099 42.1317C77.8228 43.8095 79.226 45.1486 80.9357 45.1486C82.6454 45.1486 84.0486 43.8095 84.1615 42.1317L81.3389 32.2422H80.5486L77.726 42.1317H77.7099Z" fill="black"/>
<path d="M37.3873 8.04297L27.5002 13.6895C26.6292 14.1896 26.097 15.1092 26.097 16.1094H3.51635C2.62925 16.1094 1.90344 15.3835 1.90344 14.4961V9.65626C1.90344 8.76895 2.62925 8.04297 3.51635 8.04297H37.3873Z" fill="#854747"/>
<path d="M30.9357 98.3876H1.90344C1.90344 95.516 3.80667 92.9992 6.5486 92.2248L13.1938 90.3212V87.8206C11.2744 86.6913 9.96796 84.6424 9.96796 82.2547V79.0281C9.96796 75.2691 13.1776 72.2684 17.0002 72.6072C20.3873 72.8976 22.8712 75.9628 22.8712 79.3669V82.2547C22.8712 84.6424 21.5647 86.6913 19.6454 87.8206V90.3212L26.2905 92.2248C27.6615 92.612 28.8228 93.4348 29.6454 94.5157C30.4518 95.6128 30.9357 96.9518 30.9357 98.3876Z" fill="#F8D2A0"/>
<path d="M66.4195 100H34.1615V98.387C34.1615 94.8216 36.5486 91.6434 39.984 90.6593L45.4518 89.0944V88.6589C43.4357 87.1424 42.226 84.7547 42.226 82.2379V79.0114C42.226 76.7527 43.1776 74.5909 44.8389 73.0583C46.5002 71.5418 48.7421 70.7675 51.0002 70.9772C55.1131 71.3321 58.3389 75.0104 58.3389 79.3502V82.2379C58.3389 84.7547 57.1292 87.1424 55.1131 88.6589V89.0944L60.5808 90.6593C64.0163 91.6434 66.4034 94.8216 66.4034 98.387V100H66.4195ZM37.6615 96.7737H62.9034C62.3873 95.354 61.2099 94.2086 59.7099 93.773L51.9034 91.5467V86.9004L52.7099 86.4325C54.226 85.5452 55.1292 83.9965 55.1292 82.2702V79.3824C55.1292 76.7044 53.1937 74.4457 50.726 74.2199C49.355 74.1069 48.0324 74.5425 47.0163 75.4782C46.0163 76.3978 45.4518 77.6885 45.4518 79.0437V82.2702C45.4518 83.9965 46.355 85.5452 47.8711 86.4325L48.6776 86.9004V91.5467L40.8711 93.773C39.355 94.2086 38.1776 95.354 37.6776 96.7737H37.6615Z" fill="black"/>
<path d="M100.291 100H68.0325V98.387C68.0325 94.8216 70.4196 91.6434 73.8551 90.6593L79.3228 89.0944V88.6589C77.3067 87.1424 76.097 84.7547 76.097 82.2379V79.0114C76.097 76.7527 77.0486 74.5909 78.7099 73.0583C80.3712 71.5418 82.6131 70.7675 84.8712 70.9772C88.9841 71.3321 92.2099 75.0104 92.2099 79.3502V82.2379C92.2099 84.7547 91.0002 87.1424 88.9841 88.6589V89.0944L94.4518 90.6593C97.8873 91.6434 100.274 94.8216 100.274 98.387V100H100.291ZM71.5325 96.7737H96.7744C96.2583 95.354 95.0809 94.2086 93.5809 93.773L85.7744 91.5467V86.9004L86.5809 86.4325C88.097 85.5452 89.0002 83.9965 89.0002 82.2702V79.3824C89.0002 76.7044 87.0647 74.4457 84.597 74.2199C83.226 74.1069 81.9034 74.5425 80.8873 75.4782C79.8873 76.3978 79.3228 77.6885 79.3228 79.0437V82.2702C79.3228 83.9965 80.226 85.5452 81.7421 86.4325L82.5486 86.9004V91.5467L74.7421 93.773C73.226 94.2086 72.0486 95.354 71.5486 96.7737H71.5325Z" fill="black"/>
<path d="M32.5486 100H0.290527V98.387C0.290527 94.8216 2.67762 91.6434 6.11311 90.6593L11.5808 89.0944V88.6589C9.56472 87.1424 8.35504 84.7547 8.35504 82.2379V79.0114C8.35504 76.7527 9.30666 74.5909 10.9679 73.0583C12.6292 71.5418 14.8712 70.7675 17.1292 70.9772C21.2421 71.3321 24.4679 75.0104 24.4679 79.3502V82.2379C24.4679 84.7547 23.2583 87.1424 21.2421 88.6589V89.0944L26.7099 90.6593C30.1454 91.6434 32.5325 94.8216 32.5325 98.387V100H32.5486ZM3.79053 96.7737H29.0325C28.5163 95.354 27.3389 94.2086 25.8389 93.773L18.0325 91.5467V86.9004L18.8389 86.4325C20.355 85.5452 21.2583 83.9965 21.2583 82.2702V79.3824C21.2583 76.7044 19.3228 74.4457 16.855 74.2199C15.4841 74.1069 14.1615 74.5425 13.1454 75.4782C12.1454 76.3978 11.5808 77.6885 11.5808 79.0437V82.2702C11.5808 83.9965 12.4841 85.5452 14.0002 86.4325L14.8067 86.9004V91.5467L7.0002 93.773C5.48408 94.2086 4.30666 95.354 3.80666 96.7737H3.79053Z" fill="black"/>
<path d="M50.2905 32.2417C48.9518 32.2417 47.6292 31.8867 46.4841 31.2253L26.7099 19.9161C25.3389 19.1417 24.5002 17.6736 24.5002 16.1087C24.5002 14.5438 25.355 13.0758 26.7099 12.3014L46.4841 0.992176C48.8067 -0.330725 51.7905 -0.330725 54.1131 0.992176L73.8873 12.3014C75.2583 13.0758 76.097 14.5438 76.097 16.1087C76.097 17.6736 75.2421 19.1417 73.8873 19.9161L54.1131 31.2253C52.9518 31.8867 51.6292 32.2417 50.3067 32.2417H50.2905ZM50.2905 3.20238C49.5163 3.20238 48.7421 3.41209 48.0808 3.78314L28.3066 15.0923C27.9518 15.3021 27.726 15.6893 27.726 16.1087C27.726 16.5282 27.9518 16.9154 28.3066 17.1251L48.0808 28.4343C49.4196 29.2087 51.1615 29.2087 52.5002 28.4343L72.2744 17.1251C72.6292 16.9154 72.855 16.5282 72.855 16.1087C72.855 15.6893 72.6292 15.3021 72.2744 15.0923L52.5002 3.78314C51.8228 3.39595 51.0647 3.20238 50.2905 3.20238Z" fill="black"/>
<path d="M50.2905 41.921C38.597 41.921 31.8551 36.9681 31.5809 36.7584L30.9357 36.2744V21.416H34.1615V34.5966C36.0002 35.7259 41.6776 38.6944 50.2905 38.6944C58.9034 38.6944 64.5809 35.7259 66.4196 34.5966V21.416H69.6454V36.2744L69.0002 36.7584C68.726 36.9681 61.9841 41.921 50.2905 41.921Z" fill="black"/>
<path d="M82.5486 30.6281H79.3228V19.335C79.3228 18.4477 78.597 17.7217 77.7099 17.7217H50.2905V14.4951H77.7099C80.3712 14.4951 82.5486 16.6731 82.5486 19.335V30.6281Z" fill="black"/>
<path d="M80.9357 48.3752C77.3712 48.3752 74.4841 45.4874 74.4841 41.922L74.5486 41.4864L78.1131 29.0156H83.7744L87.4034 41.922C87.4034 45.4874 84.5163 48.3752 80.9518 48.3752H80.9357ZM77.7099 42.1317C77.8228 43.8095 79.226 45.1486 80.9357 45.1486C82.6454 45.1486 84.0486 43.8095 84.1615 42.1317L81.3389 32.2422H80.5486L77.726 42.1317H77.7099Z" fill="black"/>
<path d="M50.2905 67.7343C41.4034 67.7343 34.1615 60.4906 34.1615 51.6014C34.1615 46.1484 36.8873 41.115 41.4357 38.1143L43.2099 40.8084C39.5647 43.2122 37.3873 47.2455 37.3873 51.6014C37.3873 58.716 43.1776 64.5077 50.2905 64.5077C57.4034 64.5077 63.1937 58.716 63.1937 51.6014C63.1937 47.2455 61.0163 43.1961 57.3711 40.8084L59.1453 38.1143C63.7099 41.115 66.4357 46.1484 66.4357 51.6014C66.4357 60.4906 59.1937 67.7343 50.3066 67.7343H50.2905Z" fill="black"/>
<path d="M45.4518 59.0553V44.1484L60.355 51.6018L45.4518 59.0553ZM48.6776 49.3755V53.8282L53.1292 51.6018L48.6776 49.3755Z" fill="black"/>
<path d="M97.0647 17.7218H85.7744V14.4952H97.0647V9.6553H63.1937V6.42871H97.0647C98.8389 6.42871 100.29 7.88068 100.29 9.6553V14.4952C100.29 16.2698 98.8389 17.7218 97.0647 17.7218Z" fill="black"/>
<path d="M21.2421 17.7218H3.51633C1.74214 17.7218 0.290527 16.2698 0.290527 14.4952V9.6553C0.290527 7.88068 1.74214 6.42871 3.51633 6.42871H37.3873V9.6553H3.51633V14.4952H21.2421V17.7218Z" fill="black"/>
<path d="M97.0647 16.1084H93.8389V67.7338H97.0647V16.1084Z" fill="black"/>
<path d="M6.74213 16.1084H3.51633V67.7338H6.74213V16.1084Z" fill="black"/>
<path d="M21.2582 20.9482H9.96793V24.1748H21.2582V20.9482Z" fill="black"/>
<path d="M27.7099 27.4014H9.96793V30.628H27.7099V27.4014Z" fill="black"/>
<path d="M27.7099 33.8555H9.96793V37.0821H27.7099V33.8555Z" fill="black"/>
<path d="M27.7099 40.3086H9.96793V43.5352H27.7099V40.3086Z" fill="black"/>
<path d="M90.6131 64.5078H69.6454V67.7344H90.6131V64.5078Z" fill="black"/>
<path d="M90.6131 58.0547H69.6454V61.2813H90.6131V58.0547Z" fill="black"/>
<path d="M90.6131 51.6006H69.6454V54.8272H90.6131V51.6006Z" fill="black"/>
</svg>
