<svg width="101" height="100" viewBox="0 0 101 100" fill="none" xmlns="http://www.w3.org/2000/svg">
<path d="M63.4523 90.1616C64.2298 91.0164 64.7481 92.0164 64.9702 93.0809C64.3409 96.113 61.3234 98.3871 57.6766 98.3871H9.54633C5.45525 98.3871 2.14166 95.5001 2.14166 91.9357V85.4844H59.1576L63.4523 90.1616Z" fill="#4F2B2B"/>
<path d="M62.9155 3.50323L63.1376 3.82581C58.6948 6.09992 55.3812 9.98687 54.3631 14.519H2.14166V8.06759C2.14166 4.5032 5.45525 1.61621 9.54633 1.61621H57.6766C59.7129 1.61621 61.5641 2.34199 62.9155 3.50323Z" fill="#4F2B2B"/>
<path d="M68.7836 45.1634V77.4203C66.6363 77.4203 64.8036 76.0816 64.4149 74.243L61.9899 62.566C61.6381 60.8886 59.9536 59.679 58.0098 59.679C57.8988 59.679 57.7877 59.679 57.6766 59.6951V35.4863C57.6766 37.2605 59.3427 38.712 61.379 38.712C61.379 42.2764 64.6926 45.1634 68.7836 45.1634Z" fill="#77DFF9"/>
<path d="M58.8799 85.1782L59.1576 85.4846H2.14166V14.5195H54.3631C54.2705 14.826 54.215 15.1324 54.1594 15.455C53.8632 17.3743 53.9373 19.229 54.3631 20.9709H9.54633V79.0333H56.7511L57.3619 82.2106C57.5656 83.3073 58.0839 84.3234 58.8799 85.1782Z" fill="#77DFF9"/>
<path d="M60.4534 32.3725C59.8055 32.5016 59.2316 32.808 58.7688 33.2112C58.0839 33.7918 57.6766 34.5983 57.6766 35.4853V59.6941C55.6033 59.8392 53.9743 61.3553 53.9743 63.194V64.2262C53.9743 64.4197 53.9928 64.6133 54.0299 64.8068L56.7511 79.0321H9.54633V20.9697H54.3631C54.8629 23.1955 55.918 25.2438 57.3619 27.034C58.7133 28.6791 59.7685 30.4855 60.4534 32.3725Z" fill="#D8F5FD"/>
<path d="M76.1883 53.2271C76.1883 51.4529 77.8543 50.0014 79.8906 50.0014C80.9088 50.0014 81.8344 50.3562 82.5008 50.953C83.1857 51.5336 83.593 52.34 83.593 53.2271V56.4528C83.593 54.6786 85.259 53.2271 87.2953 53.2271C88.3134 53.2271 89.239 53.5819 89.9054 54.1786C90.5904 54.7593 90.9976 55.5657 90.9976 56.4528V59.6784C90.9976 57.9043 92.6637 56.4528 94.7 56.4528C95.7181 56.4528 96.6437 56.8076 97.3101 57.4043C97.995 57.985 98.4023 58.7914 98.4023 59.6784V81.6131C98.4023 83.0808 97.8284 84.5001 96.7733 85.6452L92.6267 90.1612C91.5715 91.3063 90.9976 92.7256 90.9976 94.1933V98.3867H65.0813V94.1933C65.0813 93.8223 65.0443 93.4353 64.9702 93.0804C64.7481 92.016 64.2298 91.016 63.4523 90.1612L59.1576 85.4839L58.8799 85.1775C58.0839 84.3227 57.5656 83.3066 57.3619 82.2099L56.7511 79.0326L54.0298 64.8073C53.9928 64.6137 53.9743 64.4202 53.9743 64.2267V63.1944C53.9743 61.3558 55.6033 59.8397 57.6766 59.6946C57.7877 59.6784 57.8988 59.6784 58.0098 59.6784C59.9536 59.6784 61.6381 60.8881 61.9899 62.5654L64.4149 74.2424C64.8036 76.0811 66.6363 77.4197 68.7836 77.4197V40.3243C68.7836 39.7437 68.9688 39.1792 69.2835 38.7115C69.9314 37.7438 71.1161 37.0986 72.486 37.0986C73.5041 37.0986 74.4297 37.4535 75.0961 38.0502C75.3368 38.2437 75.5219 38.4695 75.6885 38.7115C76.0032 39.1792 76.1883 39.7437 76.1883 40.3243V53.2271Z" fill="#F8D2A0"/>
<path d="M72.486 32.2607H61.379C61.0643 32.2607 60.7496 32.293 60.4534 32.3736C59.7685 30.4866 58.7133 28.6802 57.362 27.0351C55.9181 25.2448 54.8629 23.1965 54.3631 20.9708C53.9373 19.2289 53.8633 17.3742 54.1594 15.4549C54.215 15.1323 54.2705 14.8259 54.3631 14.5194C55.3812 9.98734 58.6948 6.10039 63.1376 3.82628C65.3035 2.71342 67.747 1.98763 70.3201 1.72958C81.5197 0.616717 90.9976 8.21321 90.9976 17.7451C90.9976 21.2611 89.7018 24.5029 87.4989 27.148C86.1846 28.7447 85.148 30.5027 84.463 32.3575C84.1854 32.293 83.8892 32.2607 83.593 32.2607H72.486Z" fill="#FBE4C6"/>
<path d="M84.463 32.3565C86.092 32.6952 87.2953 33.9694 87.2953 35.4855C87.2953 36.3725 86.888 37.1789 86.2031 37.7596C85.5367 38.3563 84.6111 38.7111 83.593 38.7111H75.6885C75.5219 38.4692 75.3368 38.2434 75.0961 38.0499C74.4297 37.4531 73.5041 37.0983 72.486 37.0983C71.1161 37.0983 69.9314 37.7434 69.2834 38.7111H61.379C59.3427 38.7111 57.6766 37.2596 57.6766 35.4855C57.6766 34.5984 58.0839 33.792 58.7688 33.2113C59.2316 32.8081 59.8055 32.5017 60.4534 32.3727C60.7496 32.292 61.0643 32.2598 61.379 32.2598H83.593C83.8891 32.2598 84.1853 32.292 84.463 32.3565Z" fill="#4F2B2B"/>
<path d="M75.6885 38.7119H83.593C83.593 42.2763 80.2794 45.1633 76.1884 45.1633V40.3248C76.1884 39.7441 76.0032 39.1796 75.6885 38.7119Z" fill="#9F5656"/>
<path d="M72.486 22.5833C75.5531 22.5833 78.0395 20.417 78.0395 17.7448C78.0395 15.0725 75.5531 12.9062 72.486 12.9062C69.4189 12.9062 66.9325 15.0725 66.9325 17.7448C66.9325 20.417 69.4189 22.5833 72.486 22.5833Z" fill="#BF8888"/>
<path d="M61.379 38.7119H69.2834C68.9687 39.1796 68.7836 39.7441 68.7836 40.3248V45.1633C64.6926 45.1633 61.379 42.2763 61.379 38.7119Z" fill="#9F5656"/>
<path d="M31.7604 46.7754H16.951V59.6781H31.7604V46.7754Z" fill="#EE81B0"/>
<path d="M31.7604 27.4219H16.951V40.3246H31.7604V27.4219Z" fill="#F2AE54"/>
<path d="M85.4442 75.807H81.7419V53.2272C81.7419 52.3401 80.9089 51.6144 79.8907 51.6144C78.8726 51.6144 78.0396 52.3401 78.0396 53.2272V75.807H74.3372V53.2272C74.3372 50.566 76.8363 48.3887 79.8907 48.3887C82.9451 48.3887 85.4442 50.566 85.4442 53.2272V75.807Z" fill="black"/>
<path d="M92.8488 75.8069H89.1465V56.4528C89.1465 55.5657 88.3135 54.8399 87.2953 54.8399C86.2772 54.8399 85.4442 55.5657 85.4442 56.4528V75.8069H81.7418V56.4528C81.7418 53.7916 84.2409 51.6143 87.2953 51.6143C90.3497 51.6143 92.8488 53.7916 92.8488 56.4528V75.8069Z" fill="black"/>
<path d="M92.8488 100H63.2302V94.1938C63.2302 93.0971 62.8044 92.0326 62.0084 91.1778L57.436 86.1941C56.4549 85.1297 55.7885 83.8394 55.5293 82.4846L52.1972 65.082C52.1417 64.8078 52.1232 64.5175 52.1232 64.2433V63.2111C52.1232 60.3886 54.7703 58.0823 58.0099 58.0823C60.8607 58.0823 63.2857 59.8564 63.804 62.2918L66.2476 73.9688C66.3401 74.4204 66.5993 74.8236 66.9325 75.13V40.3249C66.9325 37.6637 69.4316 35.4863 72.486 35.4863C75.5404 35.4863 78.0395 37.6637 78.0395 40.3249V69.356H74.3372V40.3249C74.3372 39.4378 73.5041 38.712 72.486 38.712C71.4679 38.712 70.6348 39.4378 70.6348 40.3249V79.0331H68.7837C65.7478 79.0331 63.1376 77.1461 62.6008 74.5333L60.1572 62.8563C59.9721 61.9531 59.065 61.2918 58.0099 61.2918C56.8066 61.2918 55.8255 62.1466 55.8255 63.195V64.2272C55.8255 64.3401 55.8255 64.4369 55.8625 64.5498L59.1946 81.9523C59.3427 82.7588 59.75 83.5329 60.3424 84.1781L64.9147 89.1618C66.2291 90.5811 66.951 92.3713 66.951 94.1938V96.7744H89.165V94.1938C89.165 92.3713 89.887 90.5811 91.2013 89.1618L95.3664 84.6297C96.1439 83.7749 96.5882 82.6943 96.5882 81.6137V59.679C96.5882 58.7919 95.7552 58.0661 94.737 58.0661C93.7189 58.0661 92.8858 58.7919 92.8858 59.679V75.8074H89.1835V59.679C89.1835 57.0178 91.6826 54.8405 94.737 54.8405C97.7914 54.8405 100.291 57.0178 100.291 59.679V81.6137C100.291 83.4362 99.5686 85.2264 98.2542 86.6457L94.0891 91.1778C93.3116 92.0326 92.8673 93.1132 92.8673 94.1938V100H92.8488Z" fill="black"/>
<path d="M76.1884 46.7761V43.5504C79.2428 43.5504 81.7419 41.3731 81.7419 38.7119H85.4442C85.4442 43.1634 81.2976 46.7761 76.1884 46.7761Z" fill="black"/>
<path d="M68.7837 46.7761C63.6744 46.7761 59.5278 43.1634 59.5278 38.7119H63.2302C63.2302 41.3731 65.7292 43.5504 68.7837 43.5504V46.7761Z" fill="black"/>
<path d="M58.6948 32.8732C58.0654 31.1636 57.1028 29.5185 55.8625 27.9701C52.8636 24.2929 51.6048 19.7608 52.3268 15.2287C53.567 7.37414 61.0643 1.01953 70.1165 0.11634C75.9106 -0.464284 81.7233 1.14856 86.0365 4.50328C90.3682 7.87412 92.8488 12.6965 92.8488 17.7447C92.8488 21.4865 91.516 25.067 88.9984 28.0992C87.7581 29.583 86.8325 31.1797 86.2216 32.8571L82.6859 31.8732C83.4079 29.8733 84.5371 27.9701 85.9995 26.2121C88.0543 23.7445 89.1465 20.8091 89.1465 17.7447C89.1465 13.6158 87.1102 9.66437 83.5745 6.90641C79.9832 4.11619 75.3368 2.84204 70.5237 3.32589C63.1191 4.05167 57.0102 9.24503 55.9736 15.6642C55.3812 19.3737 56.4178 23.0832 58.8614 26.0993C60.3423 27.9056 61.4715 29.8572 62.212 31.8732L58.6948 32.8571V32.8732Z" fill="black"/>
<path d="M83.593 40.3245H75.67V37.0988H83.593C84.6111 37.0988 85.4442 36.3731 85.4442 35.486C85.4442 34.5989 84.6111 33.8731 83.593 33.8731H61.379C60.3609 33.8731 59.5278 34.5989 59.5278 35.486C59.5278 36.3731 60.3609 37.0988 61.379 37.0988H69.302V40.3245H61.379C58.3246 40.3245 55.8255 38.1472 55.8255 35.486C55.8255 32.8248 58.3246 30.6475 61.379 30.6475H83.593C86.6474 30.6475 89.1465 32.8248 89.1465 35.486C89.1465 38.1472 86.6474 40.3245 83.593 40.3245Z" fill="black"/>
<path d="M72.486 24.1957C68.3949 24.1957 65.0814 21.3087 65.0814 17.7443C65.0814 14.18 68.3949 11.293 72.486 11.293C76.5771 11.293 79.8907 14.18 79.8907 17.7443C79.8907 21.3087 76.5771 24.1957 72.486 24.1957ZM72.486 14.5187C70.4497 14.5187 68.7837 15.9702 68.7837 17.7443C68.7837 19.5185 70.4497 20.97 72.486 20.97C74.5223 20.97 76.1884 19.5185 76.1884 17.7443C76.1884 15.9702 74.5223 14.5187 72.486 14.5187Z" fill="black"/>
<path d="M74.3372 22.583H70.6349V32.2601H74.3372V22.583Z" fill="black"/>
<path d="M57.6767 99.9992H9.54636C4.43714 99.9992 0.290527 96.3865 0.290527 91.935V8.06715C0.290527 3.6157 4.43714 0.00292969 9.54636 0.00292969H57.6767C60.1572 0.00292969 62.4712 0.841607 64.2298 2.35768L61.6012 4.63179C60.546 3.71247 59.1576 3.21248 57.6767 3.21248H9.54636C6.49193 3.21248 3.99286 5.38982 3.99286 8.05101V91.9189C3.99286 94.5801 6.49193 96.7574 9.54636 96.7574H57.6767C60.3794 96.7574 62.6748 95.0801 63.1376 92.7737L66.7844 93.3382C66.0069 97.1929 62.1565 99.9831 57.6767 99.9831V99.9992Z" fill="black"/>
<path d="M41.0162 6.45508H26.2068V9.68077H41.0162V6.45508Z" fill="black"/>
<path d="M48.4208 6.45508H44.7185V9.68077H48.4208V6.45508Z" fill="black"/>
<path d="M22.5045 6.45508H18.8022V9.68077H22.5045V6.45508Z" fill="black"/>
<path d="M54.3445 12.9062H2.14166V16.1319H54.3445V12.9062Z" fill="black"/>
<path d="M39.165 90.3223H28.058V93.548H39.165V90.3223Z" fill="black"/>
<path d="M59.1576 83.8721H2.14166V87.0978H59.1576V83.8721Z" fill="black"/>
<path d="M56.7511 80.6455H7.69519V19.3574H54.3631V22.5831H11.3975V77.4198H56.7511V80.6455Z" fill="black"/>
<path d="M59.5278 35.4863H55.8255V59.6951H59.5278V35.4863Z" fill="black"/>
<path d="M33.6115 41.938H15.0999V25.8096H33.6115V41.938ZM18.8022 38.7123H29.9092V29.0353H18.8022V38.7123Z" fill="black"/>
<path d="M33.6115 61.2915H15.0999V45.1631H33.6115V61.2915ZM18.8022 58.0658H29.9092V48.3888H18.8022V58.0658Z" fill="black"/>
<path d="M50.272 25.8096H37.3138V29.0353H50.272V25.8096Z" fill="black"/>
<path d="M52.1232 32.2598H37.3138V35.4855H52.1232V32.2598Z" fill="black"/>
<path d="M52.1232 38.7119H37.3138V41.9376H52.1232V38.7119Z" fill="black"/>
<path d="M52.1232 45.1631H37.3138V48.3888H52.1232V45.1631Z" fill="black"/>
<path d="M52.1232 51.6143H37.3138V54.8399H52.1232V51.6143Z" fill="black"/>
<path d="M48.4208 58.0654H37.3138V61.2911H48.4208V58.0654Z" fill="black"/>
<path d="M18.8022 64.5166H15.0999V67.7423H18.8022V64.5166Z" fill="black"/>
<path d="M48.4208 64.5166H22.5045V67.7423H48.4208V64.5166Z" fill="black"/>
<path d="M48.4208 70.9688H15.0999V74.1944H48.4208V70.9688Z" fill="black"/>
</svg>
