<svg width="101" height="100" viewBox="0 0 101 100" fill="none" xmlns="http://www.w3.org/2000/svg">
<path d="M63.9517 16.1284C64.3227 14.9349 64.8388 13.7897 65.4679 12.7413L63.355 9.56391L67.9195 4.99941L71.0969 7.11231C72.4033 6.33812 73.8389 5.74135 75.355 5.35425L76.0969 1.6123H82.5485L83.2904 5.35425C84.8066 5.74135 86.2421 6.33812 87.5485 7.11231L90.726 4.99941L95.2904 9.56391L93.1775 12.7413C93.9517 14.0478 94.5485 15.4833 94.9356 16.9994L98.6776 17.7413V24.1929L94.9356 24.9349C94.5485 26.451 93.9517 27.8865 93.1775 29.193L95.2904 32.3704L90.726 36.9349L87.5485 34.822C86.2421 35.5962 84.8066 36.1929 83.2904 36.58L82.5485 40.322H76.0969L75.355 36.58C73.8389 36.1929 72.4033 35.5962 71.0969 34.822L67.9195 36.9349L63.355 32.3704L65.4679 29.193C64.8388 28.1446 64.3227 26.9994 63.9517 25.8059V16.1284Z" fill="#F2AE54"/>
<path d="M71.2583 59.6442V87.0958H29.3228V59.6442C29.3228 56.7894 31.1938 54.2732 33.9196 53.4507L45.4518 49.999L50.2906 53.2248L55.1293 49.999L66.6615 53.4507C69.3873 54.2732 71.2583 56.7894 71.2583 59.6442Z" fill="#F29EC3"/>
<path d="M36.6292 25.8059C36.2583 26.9994 35.7421 28.1446 35.1131 29.193L37.226 32.3704L32.6615 36.9349L29.4841 34.822C28.1776 35.5962 26.7421 36.1929 25.226 36.58L24.4841 40.322H18.0325L17.2906 36.58C15.7744 36.1929 14.3389 35.5962 13.0325 34.822L9.85504 36.9349L5.29055 32.3704L7.40345 29.193C6.62925 27.8865 6.03249 26.451 5.64539 24.9349L1.90344 24.1929V17.7413L5.64539 16.9994C6.03249 15.4833 6.62925 14.0478 7.40345 12.7413L5.29055 9.56391L9.85504 4.99941L13.0325 7.11231C14.3389 6.33812 15.7744 5.74135 17.2906 5.35425L18.0325 1.6123H24.4841L25.226 5.35425C26.7421 5.74135 28.1776 6.33812 29.4841 7.11231L32.6615 4.99941L37.226 9.56391L35.1131 12.7413C35.7421 13.7897 36.2583 14.9349 36.6292 16.1284V25.8059Z" fill="#F2AE54"/>
<path d="M87.3873 17.7417V14.5158L82.5486 11.29H76.097L69.6453 16.1287H30.9357L24.484 11.29H18.0324L13.1937 14.5158V17.7417H21.2582V24.1933H13.1937V27.4191L18.0324 30.6449H24.484L30.9357 25.8062H43.097C44.855 23.8223 47.4357 22.5804 50.2905 22.5804C53.1453 22.5804 55.726 23.8223 57.484 25.8062H69.6453L76.097 30.6449H82.5486L87.3873 27.4191V24.1933H79.3228V17.7417H87.3873Z" fill="#FBE4C6"/>
<path d="M92.226 85.4508V98.3863H50.2905V85.4508C50.2905 82.596 52.1615 80.0799 54.8873 79.2573L66.4196 75.8057L71.2583 79.0315L76.097 75.8057L87.6292 79.2573C90.355 80.0799 92.226 82.596 92.226 85.4508Z" fill="#3F97B1"/>
<path d="M50.2905 85.4508V98.3863H8.35504V85.4508C8.35504 82.596 10.226 80.0799 12.9518 79.2573L24.4841 75.8057L29.3228 79.0315L34.1615 75.8057L45.6937 79.2573C48.4195 80.0799 50.2905 82.596 50.2905 85.4508Z" fill="#B06D6D"/>
<path d="M74.8712 58.0641C72.5002 58.0641 70.1615 57.5157 68.0325 56.4512C67.1615 57.3221 66.0486 57.8705 64.8551 57.9995C64.6131 58.0479 64.3873 58.0641 64.1454 58.0641H61.5809V62.9028C61.5809 65.3867 62.5164 67.6447 64.0648 69.3544C64.7422 70.1125 65.5325 70.7576 66.4196 71.2738V75.806L71.2583 79.0318L76.097 75.806V71.2738C78.9841 69.5963 80.9357 66.4834 80.9357 62.9028V58.0641H74.8712Z" fill="#F8D2A0"/>
<path d="M35.7744 58.0641H32.9357C30.5647 58.0641 28.226 57.5157 26.097 56.4512C25.0647 57.4834 23.6615 58.0641 22.2099 58.0641H19.6454V62.9028C19.6454 66.4834 21.597 69.5963 24.4841 71.2738V75.806L29.3228 79.0318L34.1615 75.806V71.2738C35.0486 70.7576 35.8389 70.1125 36.5163 69.3544C38.0647 67.6447 39.0002 65.3867 39.0002 62.9028V58.0641H35.7744Z" fill="#F8D2A0"/>
<path d="M71.2583 48.3867C68.0164 48.3867 65.1615 49.9835 63.4035 52.419C62.2583 53.9996 61.5809 55.9512 61.5809 58.0641H64.1454C64.3873 58.0641 64.6131 58.048 64.8551 57.9996C66.0486 57.8706 67.1615 57.3222 68.0325 56.4512C70.1615 57.5158 72.5002 58.0641 74.8712 58.0641H80.9357C80.9357 52.7254 76.597 48.3867 71.2583 48.3867Z" fill="#6A3939"/>
<path d="M37.1776 52.419C35.4196 49.9835 32.5647 48.3867 29.3228 48.3867C23.9841 48.3867 19.6454 52.7254 19.6454 58.0641H22.2099C23.6615 58.0641 25.0647 57.4835 26.097 56.4512C28.226 57.5158 30.5647 58.0641 32.9357 58.0641H39.0002C39.0002 55.9674 38.3228 54.0158 37.1776 52.419Z" fill="#6A3939"/>
<path d="M59.9679 32.2574V37.0961C59.9679 40.6768 58.0163 43.7897 55.1292 45.4671V49.9994L50.2905 53.2252L45.4518 49.9994V45.4671C42.5647 43.7897 40.6131 40.6768 40.6131 37.0961V32.2574H43.1776C44.6292 32.2574 46.0325 31.6768 47.0647 30.6445C49.1937 31.709 51.5324 32.2574 53.9034 32.2574H59.9679Z" fill="#F8D2A0"/>
<path d="M57.5002 25.8059H57.4841C55.726 23.822 53.1454 22.5801 50.2905 22.5801C47.4357 22.5801 44.855 23.822 43.097 25.8059H43.0808C41.5486 27.5156 40.6131 29.7736 40.6131 32.2575H43.1776C44.6292 32.2575 46.0325 31.6769 47.0647 30.6446C49.1937 31.7091 51.5324 32.2575 53.9034 32.2575H59.9679C59.9679 29.7736 59.0325 27.5156 57.5002 25.8059Z" fill="#6A3939"/>
<path d="M29.3228 80.9678L23.597 77.1451L25.3711 74.4678L29.3228 77.0968L33.2744 74.4678L35.0486 77.1451L29.3228 80.9678Z" fill="black"/>
<path d="M39.0002 59.6779H32.9357C30.6938 59.6779 28.4357 59.2263 26.3551 58.3392C25.1454 59.2102 23.7099 59.6779 22.2099 59.6779H19.6454V56.4521H22.2099C23.2422 56.4521 24.226 56.0489 24.9679 55.307L25.7905 54.4844L26.8228 55.0005C28.7099 55.936 30.8228 56.436 32.9357 56.436H39.0002V59.6618V59.6779Z" fill="black"/>
<path d="M93.8389 100H6.74213V85.4519C6.74213 81.8551 9.04857 78.7583 12.4841 77.726L22.8712 74.6131V72.1615C19.8712 70.0647 18.0324 66.597 18.0324 62.9034V58.0647C18.0324 51.8389 23.097 46.7744 29.3228 46.7744C35.5486 46.7744 40.6131 51.8389 40.6131 58.0647V62.9034C40.6131 66.597 38.7744 70.0647 35.7744 72.1615V74.6131L46.1615 77.726C47.8712 78.2422 49.2905 79.2583 50.2905 80.597C51.2905 79.2583 52.726 78.2422 54.4195 77.726L64.8066 74.6131V72.1615C61.8066 70.0647 59.9679 66.597 59.9679 62.9034V58.0647C59.9679 51.8389 65.0324 46.7744 71.2583 46.7744C77.4841 46.7744 82.5486 51.8389 82.5486 58.0647V62.9034C82.5486 66.597 80.7099 70.0647 77.7099 72.1615V74.6131L88.097 77.726C91.5324 78.7583 93.8389 81.8712 93.8389 85.4519V100ZM51.9034 96.7744H90.6131V85.4519C90.6131 83.3389 89.1937 81.4196 87.1615 80.8228L74.4841 77.0163V70.3551L75.2905 69.8873C77.7744 68.4518 79.3228 65.7744 79.3228 62.9034V58.0647C79.3228 53.6131 75.7099 50.0002 71.2583 50.0002C66.8066 50.0002 63.1937 53.6131 63.1937 58.0647V62.9034C63.1937 65.7744 64.7421 68.4357 67.226 69.8873L68.0324 70.3551V77.0163L55.355 80.8228C53.2905 81.4357 51.9034 83.3067 51.9034 85.4519V96.7744ZM9.96793 96.7744H48.6776V85.4519C48.6776 83.3389 47.2582 81.4196 45.226 80.8228L32.5486 77.0163V70.3551L33.355 69.8873C35.8389 68.4518 37.3873 65.7744 37.3873 62.9034V58.0647C37.3873 53.6131 33.7744 50.0002 29.3228 50.0002C24.8712 50.0002 21.2583 53.6131 21.2583 58.0647V62.9034C21.2583 65.7744 22.8066 68.4357 25.2905 69.8873L26.097 70.3551V77.0163L13.4196 80.8228C11.3551 81.4357 9.96793 83.3067 9.96793 85.4519V96.7744Z" fill="black"/>
<path d="M71.2583 80.9678L65.5325 77.1451L67.3066 74.4678L71.2583 77.0968L75.2099 74.4678L76.984 77.1451L71.2583 80.9678Z" fill="black"/>
<path d="M80.9357 59.6779H74.8712C72.6292 59.6779 70.3712 59.2263 68.2906 58.3392C67.0809 59.2102 65.6454 59.6779 64.1454 59.6779H61.5809V56.4521H64.1454C65.1776 56.4521 66.1615 56.0489 66.9034 55.307L67.726 54.4844L68.7583 55.0005C70.6454 55.936 72.7583 56.436 74.8712 56.436H80.9357V59.6618V59.6779Z" fill="black"/>
<path d="M62.726 53.9683L53.5163 51.2102V44.5489L54.3228 44.0812C56.8066 42.6457 58.355 39.9683 58.355 37.0973V32.2586C58.355 27.807 54.7421 24.1941 50.2905 24.1941C45.8389 24.1941 42.226 27.807 42.226 32.2586V37.0973C42.226 39.9683 43.7744 42.6296 46.2582 44.0812L47.0647 44.5489V51.2102L37.855 53.9683L36.9357 50.8715L43.855 48.7909V46.3393C40.855 44.2425 39.0163 40.7747 39.0163 37.0812V32.2425C39.0163 26.0167 44.0808 20.9521 50.3067 20.9521C56.5325 20.9521 61.597 26.0167 61.597 32.2425V37.0812C61.597 40.7747 59.7583 44.2425 56.7583 46.3393V48.7909L63.6776 50.8715L62.7583 53.9683H62.726Z" fill="black"/>
<path d="M50.2905 55.1611L44.5648 51.3385L46.3389 48.6611L50.2905 51.2901L54.2422 48.6611L56.0163 51.3385L50.2905 55.1611Z" fill="black"/>
<path d="M59.9679 33.8713H53.9034C51.6615 33.8713 49.4034 33.4197 47.3228 32.5326C46.1131 33.4036 44.6776 33.8713 43.1776 33.8713H40.6131V30.6455H43.1776C44.2099 30.6455 45.1937 30.2423 45.9357 29.5003L46.7583 28.6777L47.7905 29.1939C49.6776 30.1294 51.7905 30.6293 53.9034 30.6293H59.9679V33.8551V33.8713Z" fill="black"/>
<path d="M83.0324 32.2584H75.5647L69.1131 27.4197H57.5002V24.1939H70.1776L76.6292 29.0326H82.0647L85.7744 26.5487V25.8068H77.7099V16.1293H85.7744V15.3874L82.0647 12.9035H76.6292L70.1776 17.7423H58.355V14.5164H69.1131L75.5647 9.67773H83.0324L89.0002 13.6455V19.3552H80.9357V22.581H89.0002V28.2907L83.0324 32.2584Z" fill="black"/>
<path d="M83.8712 41.9355H74.7744L73.9519 37.871C72.9841 37.5645 72.0486 37.1774 71.1615 36.7097L67.7099 39.0161L61.2744 32.5807L63.5809 29.129C63.1131 28.2258 62.726 27.2742 62.4035 26.2903L65.4841 25.3226C65.8228 26.3871 66.2744 27.4193 66.855 28.371L67.3712 29.2419L65.4196 32.1613L68.1131 34.8548L71.0325 32.9032L71.9034 33.4194C73.097 34.129 74.3873 34.6613 75.726 35L76.7099 35.258L77.4034 38.6935H81.2099L81.9035 35.258L82.8873 35C84.2421 34.6613 85.5325 34.129 86.7099 33.4194L87.5809 32.9032L90.5002 34.8548L93.1938 32.1613L91.2422 29.2419L91.7583 28.371C92.468 27.1774 93.0002 25.8871 93.3389 24.5484L93.597 23.5645L97.0325 22.871V19.0645L93.597 18.371L93.3389 17.3871C93.0002 16.0323 92.468 14.7419 91.7583 13.5645L91.2422 12.6935L93.1938 9.77419L90.5002 7.08067L87.5809 9.03227L86.7099 8.51613C85.5163 7.80645 84.226 7.27417 82.8873 6.93546L81.9035 6.67744L81.2099 3.24195H77.4034L76.7099 6.67744L75.726 6.93546C74.3712 7.27417 73.0809 7.80645 71.9034 8.51613L71.0325 9.03227L68.1131 7.08067L65.4196 9.77419L67.3712 12.6935L66.855 13.5645C66.2905 14.5161 65.8228 15.5484 65.4841 16.6129L62.4035 15.6452C62.7099 14.6613 63.097 13.7097 63.5809 12.8065L61.2744 9.35482L67.7099 2.91935L71.1615 5.22579C72.0486 4.75805 72.9841 4.37095 73.9519 4.0645L74.7744 0H83.8712L84.6938 4.0645C85.6615 4.37095 86.597 4.75805 87.4841 5.22579L90.9357 2.91935L97.3712 9.35482L95.0648 12.8065C95.5325 13.6936 95.9196 14.6291 96.226 15.5968L100.291 16.4193V25.5161L96.226 26.3387C95.9196 27.3064 95.5325 28.2419 95.0648 29.129L97.3712 32.5807L90.9357 39.0161L87.4841 36.7097C86.597 37.1774 85.6615 37.5645 84.6938 37.871L83.8712 41.9355Z" fill="black"/>
<path d="M55.1292 14.5166H51.9034V17.7424H55.1292V14.5166Z" fill="black"/>
<path d="M25.0163 32.2584H17.5486L11.5809 28.2907V22.581H19.6454V19.3552H11.5809V13.6455L17.5486 9.67773H25.0163L31.4679 14.5164H42.226V17.7423H30.4035L23.9519 12.9035H18.5163L14.8067 15.3874V16.1293H22.8712V25.8068H14.8067V26.5487L18.5163 29.0326H23.9519L30.4035 24.1939H43.0809V27.4197H31.4679L25.0163 32.2584Z" fill="black"/>
<path d="M25.8067 41.9355H16.7099L15.8873 37.871C14.9196 37.5645 13.9841 37.1774 13.097 36.7097L9.64535 39.0161L3.20988 32.5807L5.51632 29.129C5.04858 28.2419 4.66148 27.3064 4.35503 26.3387L0.290527 25.5161V16.4193L4.35503 15.5968C4.66148 14.6291 5.04858 13.6936 5.51632 12.8065L3.20988 9.35482L9.64535 2.91935L13.097 5.22579C13.9841 4.75805 14.9196 4.37095 15.8873 4.0645L16.7099 0H25.8067L26.6292 4.0645C27.597 4.37095 28.5325 4.75805 29.4196 5.22579L32.8712 2.91935L39.3067 9.35482L37.0002 12.8065C37.468 13.7097 37.855 14.6613 38.1776 15.6452L35.097 16.6129C34.7582 15.5484 34.3067 14.5161 33.726 13.5645L33.2099 12.6935L35.1615 9.77419L32.468 7.08067L29.5486 9.03227L28.6776 8.51613C27.4841 7.80645 26.1938 7.27417 24.8551 6.93546L23.8712 6.67744L23.1776 3.24195H19.3712L18.6776 6.67744L17.6938 6.93546C16.3389 7.27417 15.0486 7.80645 13.8712 8.51613L13.0002 9.03227L10.0809 7.08067L7.38729 9.77419L9.33889 12.6935L8.8228 13.5645C8.11312 14.7581 7.58085 16.0484 7.24214 17.3871L6.98407 18.371L3.54857 19.0645V22.871L6.98407 23.5645L7.24214 24.5484C7.58085 25.9032 8.11312 27.1935 8.8228 28.371L9.33889 29.2419L7.38729 32.1613L10.0809 34.8548L13.0002 32.9032L13.8712 33.4194C15.0647 34.129 16.3551 34.6613 17.6938 35L18.6776 35.258L19.3712 38.6935H23.1776L23.8712 35.258L24.8551 35C26.2099 34.6613 27.5002 34.129 28.6776 33.4194L29.5486 32.9032L32.468 34.8548L35.1615 32.1613L33.2099 29.2419L33.726 28.371C34.2905 27.4193 34.7582 26.3871 35.097 25.3226L38.1776 26.2903C37.8712 27.2742 37.4841 28.2258 37.0002 29.129L39.3067 32.5807L32.8712 39.0161L29.4196 36.7097C28.5325 37.1774 27.597 37.5645 26.6292 37.871L25.8067 41.9355Z" fill="black"/>
<path d="M48.6776 14.5166H45.4518V17.7424H48.6776V14.5166Z" fill="black"/>
<path d="M48.6776 14.5166H45.4518V17.7424H48.6776V14.5166Z" fill="black"/>
<path d="M13.1938 64.5166H9.96796V67.7424H13.1938V64.5166Z" fill="black"/>
<path d="M9.96793 67.7422H6.74213V70.968H9.96793V67.7422Z" fill="black"/>
<path d="M13.1938 70.9678H9.96796V74.1936H13.1938V70.9678Z" fill="black"/>
<path d="M16.4195 67.7422H13.1937V70.968H16.4195V67.7422Z" fill="black"/>
<path d="M6.74216 45.1611H3.51636V48.3869H6.74216V45.1611Z" fill="black"/>
<path d="M3.51633 48.3867H0.290527V51.6125H3.51633V48.3867Z" fill="black"/>
<path d="M6.74216 51.6133H3.51636V54.8391H6.74216V51.6133Z" fill="black"/>
<path d="M9.96793 48.3867H6.74213V51.6125H9.96793V48.3867Z" fill="black"/>
<path d="M90.6131 64.5166H87.3873V67.7424H90.6131V64.5166Z" fill="black"/>
<path d="M93.8389 67.7422H90.6131V70.968H93.8389V67.7422Z" fill="black"/>
<path d="M90.6131 70.9678H87.3873V74.1936H90.6131V70.9678Z" fill="black"/>
<path d="M87.3873 67.7422H84.1615V70.968H87.3873V67.7422Z" fill="black"/>
<path d="M97.0647 45.1611H93.8389V48.3869H97.0647V45.1611Z" fill="black"/>
<path d="M100.291 48.3867H97.0647V51.6125H100.291V48.3867Z" fill="black"/>
<path d="M97.0647 51.6133H93.8389V54.8391H97.0647V51.6133Z" fill="black"/>
<path d="M93.8389 48.3867H90.6131V51.6125H93.8389V48.3867Z" fill="black"/>
</svg>
