<svg width="100" height="100" viewBox="0 0 100 100" fill="none" xmlns="http://www.w3.org/2000/svg">
<path d="M45.1613 98.3718H29.0322V70.9569L37.0967 75.7948L38.8709 66.9092L48.9516 69.2314C53.3387 70.2473 56.4516 74.1499 56.4516 78.6492V98.3718H45.1613Z" fill="#3F97B1"/>
<path d="M12.9036 98.3719H1.61328V78.6493C1.61328 74.15 4.72617 70.2474 9.11327 69.2314L19.4681 66.8447L20.9681 75.7949L29.0326 70.957V98.3719H12.9036Z" fill="#3F97B1"/>
<path d="M35.4838 66.1182L38.8709 66.9084L37.0967 75.794L29.0322 70.9561L35.4838 66.1182Z" fill="#357E94"/>
<path d="M29.0323 70.9561L20.9678 75.794L19.4678 66.8438L22.5807 66.1182L29.0323 70.9561Z" fill="#357E94"/>
<path d="M17.7426 41.9447C14.4846 42.0576 11.6297 44.4927 11.3233 47.7502C11.3072 47.9599 11.291 48.1695 11.291 48.3791V36.0585C11.291 31.4464 13.162 27.2696 16.1942 24.254C19.2104 21.2222 23.3878 19.3516 28.0007 19.3516C31.8071 19.3516 35.4846 20.6417 38.4523 23.0123L41.9362 25.8021C44.8233 26.7697 46.7749 29.4628 46.7749 32.5107V48.3791C46.7749 48.1695 46.7588 47.9599 46.7426 47.7502C46.4362 44.4927 43.5813 42.0576 40.3233 41.9447L37.0975 38.7033C35.033 40.7675 32.2265 41.9286 29.3071 41.9286H18.0168C17.92 41.9286 17.8394 41.9286 17.7426 41.9447Z" fill="#854747"/>
<path d="M29.0327 62.8937C31.3714 62.8937 33.5488 62.1841 35.3391 60.9746L35.4843 61.281V66.1189L29.0327 70.9569L22.5811 66.1189V61.281L22.7262 60.9746C27.4843 62.813 28.2585 62.8937 29.0327 62.8937Z" fill="#F8D2A0"/>
<path d="M46.7748 48.3798C46.7748 51.9276 43.8877 54.8303 40.3232 54.8303L39.8877 54.7174C40.178 53.7337 40.3232 52.6855 40.3232 51.605V41.9453C43.5813 42.0582 46.4361 44.4933 46.7425 47.7508C46.7587 47.9605 46.7748 48.1701 46.7748 48.3798Z" fill="#F8D2A0"/>
<path d="M40.3228 41.9455V51.6052C40.3228 52.6857 40.1777 53.7339 39.8873 54.7176C39.1454 57.2979 37.5164 59.5072 35.339 60.9747C33.5486 62.1842 31.3712 62.8938 29.0325 62.8938C28.2583 62.8938 27.4841 62.8131 22.7261 60.9747C22.1131 60.5554 21.5648 60.1039 21.0486 59.5878C19.7099 58.2493 18.7099 56.5883 18.1777 54.7176C17.8874 53.7339 17.7422 52.6857 17.7422 51.6052V41.9455C17.839 41.9294 17.9196 41.9294 18.0164 41.9294H29.3067C32.2261 41.9294 35.0325 40.7683 37.097 38.7041L40.3228 41.9294H40.0486C40.1454 41.9294 40.2261 41.9294 40.3228 41.9455Z" fill="#F8D2A0"/>
<path d="M17.7426 51.605C17.7426 52.6855 17.8878 53.7337 18.1781 54.7174L17.7426 54.8303C14.1781 54.8303 11.291 51.9276 11.291 48.3798C11.291 48.1701 11.3072 47.9605 11.3233 47.7508C11.6297 44.4933 14.4846 42.0582 17.7426 41.9453V51.605Z" fill="#F8D2A0"/>
<path d="M66.291 61.2812H82.0974C81.7749 62.8616 81.0007 64.2808 79.9039 65.3774C78.4362 66.8287 76.42 67.7318 74.1942 67.7318C70.291 67.7318 67.033 64.9581 66.291 61.2812Z" fill="#969FAA"/>
<path d="M82.2589 54.8301V59.668C82.2589 60.2163 82.2105 60.7646 82.0976 61.2807H66.2912C66.1783 60.7646 66.1299 60.2163 66.1299 59.668V54.8301H82.2589Z" fill="#F2AE54"/>
<path d="M73.3874 14.5302C63.2906 14.9334 55.0164 23.3998 54.839 33.511C54.71 40.8324 58.6616 47.2346 64.5648 50.6373C65.5487 51.2017 66.1293 52.25 66.1293 53.3949V54.8302H82.2584V53.3949C82.2584 52.25 82.8551 51.1856 83.839 50.6212C89.6455 47.283 93.5487 41.0421 93.5487 33.8658C93.5487 22.916 84.4519 14.0787 73.3874 14.5302Z" fill="#FBE4C6"/>
<path d="M82.9199 36.43C83.5167 37.0105 83.8715 37.8168 83.8715 38.7038C83.8715 40.4777 82.4199 41.9291 80.6457 41.9291H77.4199V38.7038C77.4199 37.8168 77.7748 37.0105 78.3715 36.43C78.9522 35.8333 79.7586 35.4785 80.6457 35.4785C81.5328 35.4785 82.3393 35.8333 82.9199 36.43Z" fill="#B4185C"/>
<path d="M70.9682 38.7038V41.9291H67.7424C66.8553 41.9291 66.0489 41.5743 65.4682 40.9776C64.8714 40.3971 64.5166 39.5908 64.5166 38.7038C64.5166 37.8168 64.8714 37.0105 65.4682 36.43C66.0489 35.8333 66.8553 35.4785 67.7424 35.4785C69.5166 35.4785 70.9682 36.9299 70.9682 38.7038Z" fill="#B4185C"/>
<path d="M46.7746 79.0195H43.5488V98.3713H46.7746V79.0195Z" fill="black"/>
<path d="M29.0321 64.5067C21.9192 64.5067 16.1289 58.7173 16.1289 51.6055V41.9297H19.3547V51.6055C19.3547 56.9434 23.6934 61.2814 29.0321 61.2814C34.3708 61.2814 38.7096 56.9434 38.7096 51.6055V41.9297H41.9354V51.6055C41.9354 58.7173 36.145 64.5067 29.0321 64.5067Z" fill="black"/>
<path d="M58.0646 88.6957H54.8388V78.6489C54.8388 74.8754 52.2743 71.6339 48.5808 70.7954L33.8711 67.3927V61.2646H37.0969V64.8125L49.3066 67.6346C54.4518 68.8279 58.0646 73.3433 58.0646 78.6328V88.6796V88.6957Z" fill="black"/>
<path d="M14.5158 79.0195H11.29V98.3713H14.5158V79.0195Z" fill="black"/>
<path d="M19.7578 78.3906L17.7578 66.3764L20.9514 65.8604L22.1772 73.1979L28.2094 69.5694L29.8546 72.3432L19.7578 78.3906Z" fill="black"/>
<path d="M23.5488 64.829L21.6133 67.4092L28.0649 72.2471L30.0004 69.6669L23.5488 64.829Z" fill="black"/>
<path d="M38.2251 78.358L28.209 72.3429L29.8541 69.5691L35.967 73.2298L37.1283 67.4082L40.2896 68.0533L38.2251 78.358Z" fill="black"/>
<path d="M34.5208 64.8185L28.0684 69.6553L30.0034 72.2358L36.4558 67.399L34.5208 64.8185Z" fill="black"/>
<path d="M40.323 56.4431V53.2178C41.6779 53.2178 42.9843 52.6373 43.9037 51.6374C44.8392 50.6215 45.2746 49.2829 45.1456 47.8961C44.9198 45.4449 42.6779 43.5419 40.0488 43.5419V42.2034L39.1779 43.0743L37.0166 40.9133C34.823 42.6066 32.0811 43.5419 29.3069 43.5419H18.0166C15.3875 43.5419 13.1617 45.461 12.9198 47.8961C12.7908 49.2829 13.2262 50.6053 14.1617 51.6374C15.0811 52.6373 16.3875 53.2178 17.7424 53.2178V56.4431C15.4682 56.4431 13.3069 55.4755 11.7746 53.7984C10.2585 52.1212 9.50045 49.8635 9.71013 47.5897C10.0972 43.5097 13.7424 40.3167 18.0166 40.3167H29.3069C31.7746 40.3167 34.2101 39.3168 35.952 37.559L37.0972 36.4141L41.0488 40.365C44.8714 40.8166 47.9843 43.8322 48.3553 47.5897C48.565 49.8635 47.823 52.1212 46.2908 53.7984C44.7585 55.4755 42.5972 56.4431 40.323 56.4431Z" fill="black"/>
<path d="M30.6448 70.957H27.4189V98.372H30.6448V70.957Z" fill="black"/>
<path d="M48.3874 48.3795H45.1616V32.5111C45.1616 30.1566 43.6616 28.0763 41.4197 27.3345L41.1455 27.2377L37.4358 24.2705C34.7745 22.1418 31.4197 20.9645 28.0003 20.9645C19.6777 20.9645 12.9035 27.7376 12.9035 36.0589V48.3795H9.67773V36.0589C9.67773 25.9476 17.9035 17.7393 28.0003 17.7393C32.1455 17.7393 36.21 19.1584 39.4519 21.7547L42.7261 24.3672C46.1294 25.6251 48.3874 28.8665 48.3874 32.5111V48.3795Z" fill="black"/>
<path d="M61.2903 99.9837H0V78.6484C0 73.359 3.59676 68.8436 8.75805 67.6502L20.9677 64.8281V61.2803H24.1936V67.4083L9.48388 70.811C5.80646 71.6657 3.22581 74.891 3.22581 78.6646V96.7745H61.2903V88.7113C61.2903 86.9374 62.7419 85.486 64.5161 85.486H93.5484V88.7113H64.5161V96.7745C64.5161 98.5485 63.0645 99.9998 61.2903 99.9998V99.9837Z" fill="black"/>
<path d="M37.0969 80.6318H33.8711V83.8571H37.0969V80.6318Z" fill="black"/>
<path d="M37.0969 87.083H33.8711V90.3083H37.0969V87.083Z" fill="black"/>
<path d="M100 85.4707H96.7744V88.696H100V85.4707Z" fill="black"/>
<path d="M99.9997 79.0195H61.29V82.2448H99.9997V79.0195Z" fill="black"/>
<path d="M93.5481 72.5693H61.29V75.7946H93.5481V72.5693Z" fill="black"/>
<path d="M100 72.5693H96.7744V75.7946H100V72.5693Z" fill="black"/>
<path d="M74.1934 69.3443C68.8547 69.3443 64.516 65.0063 64.516 59.6684V53.3952C64.516 52.8308 64.2257 52.3148 63.7579 52.0406C57.1289 48.2348 53.0966 41.123 53.2257 33.4952C53.4192 22.5937 62.4354 13.3694 73.3225 12.934C79.0644 12.6921 84.5482 14.7724 88.7095 18.7556C92.8708 22.7389 95.1611 28.109 95.1611 33.8822C95.1611 41.3488 91.1289 48.2993 84.645 52.0406C84.1773 52.3148 83.8708 52.8469 83.8708 53.4113V59.6845C83.8708 65.0224 79.5321 69.3604 74.1934 69.3604V69.3443ZM74.1934 16.127C73.9515 16.127 73.6934 16.127 73.4515 16.127C64.2418 16.4979 56.6128 24.3031 56.4515 33.5275C56.3386 39.978 59.7579 45.9932 65.3708 49.2185C66.8386 50.057 67.7418 51.6536 67.7418 53.3791V59.6523C67.7418 63.2162 70.6289 66.1029 74.1934 66.1029C77.7579 66.1029 80.645 63.2162 80.645 59.6523V53.3791C80.645 51.6697 81.5644 50.0732 83.0321 49.2185C88.5321 46.0577 91.9353 40.1715 91.9353 33.85C91.9353 28.9798 89.9999 24.4321 86.4837 21.0617C83.145 17.8526 78.8063 16.1109 74.2095 16.1109L74.1934 16.127Z" fill="black"/>
<path d="M82.2579 59.668H66.1289V62.8933H82.2579V59.668Z" fill="black"/>
<path d="M82.2579 53.2178H66.1289V56.4431H82.2579V53.2178Z" fill="black"/>
<path d="M79.0324 54.8296H75.8065V43.5411H72.5807V54.8296H69.3549V43.5411H67.742C65.0807 43.5411 62.9033 41.364 62.9033 38.7032C62.9033 36.0423 65.0807 33.8652 67.742 33.8652C70.4033 33.8652 72.5807 36.0423 72.5807 38.7032V40.3158H75.8065V38.7032C75.8065 36.0423 77.984 33.8652 80.6453 33.8652C83.3065 33.8652 85.484 36.0423 85.484 38.7032C85.484 41.364 83.3065 43.5411 80.6453 43.5411H79.0324V54.8296ZM79.0324 40.3158H80.6453C81.5324 40.3158 82.2582 39.5901 82.2582 38.7032C82.2582 37.8162 81.5324 37.0905 80.6453 37.0905C79.7582 37.0905 79.0324 37.8162 79.0324 38.7032V40.3158ZM67.742 37.0905C66.8549 37.0905 66.1291 37.8162 66.1291 38.7032C66.1291 39.5901 66.8549 40.3158 67.742 40.3158H69.3549V38.7032C69.3549 37.8162 68.6291 37.0905 67.742 37.0905Z" fill="black"/>
<path d="M88.7098 33.8652H85.484C85.484 29.8497 83.3227 26.0923 79.8389 24.0926L81.4518 21.3027C85.9356 23.883 88.7098 28.7048 88.7098 33.8652Z" fill="black"/>
<path d="M77.0159 22.9316C76.0966 22.6897 75.145 22.5768 74.1934 22.5768V19.3516C75.4192 19.3516 76.645 19.5128 77.8224 19.8031L77.0159 22.9316Z" fill="black"/>
<path d="M75.8069 0H72.5811V9.67586H75.8069V0Z" fill="black"/>
<path d="M51.3806 8.77602L49.0996 11.0566L55.9426 17.8985L58.2236 15.6179L51.3806 8.77602Z" fill="black"/>
<path d="M97.0119 8.77044L90.1689 15.6123L92.4499 17.8929L99.2929 11.0511L97.0119 8.77044Z" fill="black"/>
</svg>
