<svg width="700" height="400" viewBox="0 0 700 400" fill="none" xmlns="http://www.w3.org/2000/svg">
<mask id="mask0_759_3259" style="mask-type:alpha" maskUnits="userSpaceOnUse" x="0" y="0" width="700" height="400">
<path d="M0 0H700V400H0V0Z" fill="white"/>
</mask>
<g mask="url(#mask0_759_3259)">
<path d="M0 0H700V400H0V0Z" fill="white"/>
<path d="M605.165 402.588C604.343 401.655 603.05 401.387 601.956 401.822L571.899 342.559C572.027 342.478 572.152 342.387 572.27 342.285C573.459 341.235 573.572 339.423 572.524 338.234C571.477 337.045 569.662 336.933 568.473 337.98C568.283 338.148 568.123 338.336 567.988 338.537L535.54 320.934C535.962 319.946 535.814 318.765 535.056 317.907C534.009 316.718 532.194 316.606 531.005 317.654C530.48 318.118 530.165 318.732 530.066 319.374L489.589 316.996C489.566 316.353 489.331 315.714 488.873 315.193C488.375 314.63 487.707 314.312 487.015 314.239L487.982 218.422C488.577 218.375 489.163 218.142 489.646 217.718C490.835 216.67 490.947 214.856 489.9 213.666C488.852 212.477 487.038 212.365 485.848 213.412C485.503 213.719 485.252 214.089 485.09 214.489L374.148 181.149C375.13 180.081 375.166 178.422 374.186 177.309C373.138 176.12 371.324 176.008 370.135 177.055C370.026 177.151 369.931 177.254 369.84 177.363L334.847 153.082C335.431 152.046 335.333 150.714 334.503 149.773C334.085 149.299 333.544 148.999 332.971 148.872L339.748 95.4274L340.351 95.8309L339.811 94.9111L339.851 94.5889L339.657 94.6512L293.408 15.9093C293.483 15.8536 293.558 15.7954 293.631 15.7322C294.82 14.6847 294.932 12.8702 293.885 11.6809C292.837 10.4916 291.023 10.3794 289.834 11.427C288.644 12.4745 288.532 14.289 289.58 15.4783C289.969 15.9203 290.467 16.2126 290.997 16.3524L284.196 56.8297C284.133 56.875 284.072 56.9228 284.012 56.9756C283.715 57.236 283.487 57.5473 283.324 57.8829L218.056 33.5648C218.298 32.6647 218.101 31.6676 217.438 30.9162C216.391 29.7269 214.576 29.6147 213.387 30.6622C212.198 31.7098 212.086 33.5243 213.133 34.7136C213.547 35.1834 214.085 35.4839 214.652 35.6101L208.377 83.5005C207.668 83.4737 206.946 83.7055 206.37 84.2142C205.597 84.8958 205.283 85.8985 205.44 86.8422L172.194 95.6634C172.076 95.3372 171.898 95.0269 171.654 94.7519C170.606 93.5626 168.792 93.4504 167.603 94.498C166.413 95.5456 166.301 97.36 167.349 98.5493C167.986 99.2704 168.904 99.5931 169.794 99.5035L177.158 136.92C176.768 137.034 176.397 137.231 176.07 137.519C175.003 138.46 174.805 140.015 175.533 141.186L143.44 163.401C142.387 162.236 140.592 162.131 139.412 163.172C138.223 164.22 138.11 166.034 139.158 167.224C139.341 167.431 139.547 167.604 139.771 167.745L127.128 194.135C126.17 193.781 125.053 193.951 124.234 194.675C124.02 194.863 123.844 195.076 123.702 195.306L83.9785 175.281C84.3586 174.311 84.1991 173.168 83.4613 172.334C82.4137 171.145 80.5993 171.032 79.41 172.08C78.2206 173.128 78.1084 174.942 79.156 176.131C79.233 176.219 79.3148 176.296 79.399 176.373L40.429 229.159C39.3841 228.527 38.0084 228.613 37.0459 229.463C35.8566 230.51 35.7444 232.325 36.7919 233.514C37.8395 234.703 39.654 234.815 40.8433 233.768C41.183 233.469 41.4312 233.106 41.5932 232.714L133.311 261.177C133.186 261.989 133.409 262.847 133.994 263.511C135.042 264.7 136.856 264.813 138.045 263.765C139.235 262.717 139.347 260.903 138.299 259.714C138.195 259.597 138.08 259.492 137.963 259.393L155.285 230.396C156.301 230.911 157.575 230.791 158.481 229.991C158.776 229.731 159.005 229.422 159.166 229.09L234.783 254.804C234.573 255.682 234.779 256.644 235.419 257.373C236.467 258.562 238.281 258.674 239.471 257.627C240.66 256.579 240.772 254.765 239.725 253.575C239.484 253.302 239.201 253.089 238.898 252.932L252.866 218.731C253.785 219.011 254.825 218.824 255.6 218.139L255.415 218.328L322.498 284.076C321.627 285.146 321.629 286.715 322.57 287.783C323.055 288.334 323.706 288.649 324.381 288.731L323.317 327.991C322.706 328.03 322.102 328.261 321.608 328.701C320.419 329.751 320.306 331.563 321.354 332.752C322.401 333.941 324.216 334.054 325.405 333.006C325.868 332.598 326.167 332.072 326.296 331.511L385.039 339.744C385.005 340.464 385.237 341.194 385.751 341.777C386.798 342.966 388.613 343.079 389.802 342.031C390.297 341.594 390.604 341.026 390.717 340.423L426.86 344.009C426.855 344.691 427.09 345.375 427.575 345.926C428.622 347.115 430.437 347.228 431.626 346.18C431.752 346.069 431.863 345.947 431.964 345.823L488.22 381.449C487.73 382.459 487.862 383.705 488.651 384.6C489.245 385.272 490.084 385.601 490.918 385.568L497.749 430.755C497.296 430.858 496.861 431.073 496.487 431.401C495.297 432.448 495.185 434.263 496.233 435.452C497.283 436.641 499.095 436.754 500.284 435.706C500.292 435.697 500.3 435.689 500.309 435.683L528.341 456.889L543.159 468.099C542.652 469.115 542.773 470.379 543.571 471.284C544.619 472.474 546.433 472.586 547.622 471.538C548.546 470.723 548.818 469.448 548.403 468.361L582.863 446.28C582.888 446.31 582.911 446.344 582.94 446.376C583.987 447.565 585.802 447.677 586.991 446.63C588.18 445.582 588.293 443.768 587.245 442.578C586.996 442.297 586.704 442.076 586.387 441.918L602.078 407.2C603.022 407.524 604.109 407.349 604.911 406.64C606.1 405.592 606.212 403.778 605.165 402.588ZM546.474 466.616C545.574 466.374 544.576 466.57 543.825 467.233C543.68 467.362 543.553 467.501 543.44 467.647L526.638 454.937L500.669 435.292C500.839 435.07 500.971 434.827 501.067 434.572L554.518 441.203L546.473 466.613L546.474 466.616ZM387.356 337.062L379.752 311.026L415.831 298.128C415.945 298.371 416.093 298.605 416.279 298.817C416.367 298.917 416.464 299.006 416.563 299.091L389.341 337.394C388.737 337.044 388.03 336.929 387.356 337.062ZM326.104 329.642C325.99 329.398 325.842 329.164 325.656 328.953C325.546 328.83 325.431 328.722 325.307 328.623L365.074 268.909C365.661 269.226 366.337 269.326 366.983 269.201L379.103 310.698L326.104 329.644L326.104 329.642ZM213.773 84.7143L212.96 118.596L208.918 89.1605C209.365 89.0569 209.794 88.8415 210.166 88.5169C210.999 87.7826 211.301 86.6746 211.05 85.6688L213.773 84.7143ZM217.184 34.965C217.48 34.7021 217.709 34.3933 217.871 34.0577L283.138 58.3792C283.011 58.8512 283.006 59.3492 283.126 59.8246L214.324 83.9583L215.484 35.6712C216.092 35.6302 216.692 35.3976 217.186 34.9641L217.184 34.965ZM485.035 216.514C485.144 216.821 485.306 217.112 485.521 217.378L451.721 250.614C450.652 249.708 449.053 249.698 447.971 250.653L427.072 230.993L485.035 216.514ZM584.161 441.758C584.103 441.779 584.044 441.801 583.988 441.826L568.861 403.418C569.075 403.309 569.278 403.176 569.466 403.011C569.959 402.578 570.263 402.011 570.381 401.412L578.696 402.263L584.161 441.758ZM535.249 345.708L528.919 335.01C528.993 334.957 529.065 334.9 529.136 334.838C529.575 334.449 529.867 333.957 530.008 333.432L539.113 335.004L565.723 397.22L535.249 345.708ZM528.465 335.279L550.597 372.692L565.885 398.534C565.811 398.586 565.739 398.644 565.668 398.706C565.276 399.052 565.003 399.481 564.848 399.946L511.973 387.475L526.712 335.508C527.299 335.616 527.912 335.543 528.463 335.283L528.465 335.279ZM570.435 400.885C570.442 400.2 570.208 399.512 569.72 398.96C569.248 398.424 568.62 398.108 567.964 398.017L570.501 343.017L578.621 401.723L570.432 400.886L570.435 400.885ZM568.218 342.029C568.689 342.565 569.317 342.881 569.974 342.972L567.436 397.992C567.184 398.005 566.932 398.049 566.689 398.126L539.739 335.112L567.513 339.906C567.455 340.654 567.684 341.422 568.22 342.028L568.218 342.029ZM567.599 339.384L539.489 334.532L534.268 322.328C534.454 322.226 534.635 322.104 534.8 321.96C534.99 321.792 535.15 321.604 535.285 321.402L567.732 339.005C567.679 339.129 567.632 339.256 567.598 339.387L567.599 339.384ZM531.995 322.527C532.571 322.717 533.198 322.726 533.78 322.537L538.865 334.424L530.098 332.911C530.156 332.163 529.927 331.395 529.39 330.789C529.169 330.537 528.91 330.335 528.63 330.18L531.995 322.527ZM524.369 332.758L488.21 337.022L487.158 319.925C487.682 319.845 488.189 319.62 488.619 319.244C488.907 318.99 489.13 318.689 489.292 318.365L524.476 331.906C524.399 332.183 524.363 332.469 524.369 332.758ZM432.28 342.725C432.173 342.515 432.04 342.313 431.877 342.127C431.556 341.765 431.167 341.503 430.745 341.343L439.08 303.294L483.903 316.536C483.802 317.05 483.841 317.583 484.023 318.08L432.278 342.726L432.28 342.725ZM253.321 213.14L247.834 183.091C248.263 182.983 248.675 182.776 249.029 182.461C249.202 182.308 249.349 182.139 249.477 181.957L259.619 186.356L253.843 213.119C253.668 213.11 253.493 213.117 253.317 213.139L253.321 213.14ZM128.313 198.683C128.91 197.984 129.121 197.055 128.929 196.192L147.074 190.276L155.537 225.169C155.233 225.288 154.943 225.459 154.684 225.685L128.315 198.682L128.313 198.683ZM156.044 225.021L147.578 190.109L204.033 171.704C204.151 171.974 204.31 172.232 204.515 172.465C204.539 172.49 204.565 172.515 204.588 172.54L158.224 225.488C157.582 225.039 156.794 224.881 156.046 225.02L156.044 225.021ZM447.713 254.703C447.801 254.804 447.895 254.891 447.993 254.976L419.871 294.439C419.166 294.027 418.316 293.939 417.544 294.189L403.396 261.249L447.1 253.559C447.212 253.969 447.414 254.361 447.713 254.703ZM417.057 294.4C416.871 294.501 416.695 294.622 416.528 294.767C416.357 294.917 416.213 295.085 416.086 295.264L368.817 267.973C368.962 267.753 369.075 267.521 369.153 267.278L402.856 261.347L417.055 294.401L417.057 294.4ZM369.278 266.716C369.32 266.349 369.293 265.975 369.194 265.616L389.878 243.479L391.881 241.334C392.624 241.913 393.593 242.079 394.472 241.815L402.648 260.845L369.283 266.714L369.278 266.716ZM391.488 240.967C391.488 240.967 391.489 240.97 391.49 240.972L389.495 243.108L368.975 265.07C368.87 264.866 368.739 264.668 368.58 264.486C368.316 264.188 368.004 263.957 367.668 263.795L369.024 238.964L390.781 239.327C390.834 239.914 391.064 240.492 391.485 240.968L391.488 240.967ZM447.008 253.037L403.18 260.75L394.961 241.615C395.165 241.51 395.36 241.379 395.539 241.221C395.912 240.891 396.179 240.486 396.338 240.047L447.027 252.384C446.996 252.599 446.991 252.818 447.008 253.037ZM372.744 181.985L392.373 236.497C392.151 236.606 391.936 236.746 391.742 236.916C391.172 237.419 390.852 238.097 390.785 238.798L369.056 238.433L372.134 182.074C372.34 182.067 372.542 182.036 372.743 181.982L372.744 181.985ZM368.526 238.426L343.243 238.004C343.172 237.458 342.943 236.93 342.55 236.486C342.397 236.313 342.227 236.164 342.046 236.038L359.577 203.138L370.917 181.855C371.14 181.948 371.37 182.014 371.605 182.047L368.526 238.426ZM286.086 61.9927L289.886 88.0681L292.234 104.186C291.793 104.293 291.373 104.502 291.008 104.824C290.293 105.453 289.971 106.36 290.052 107.241L276.089 109.853L285.653 61.9894C285.799 62.0013 285.943 62.0024 286.087 61.9951L286.086 61.9927ZM281.73 193.052L269.565 148.901C269.88 148.781 270.184 148.609 270.45 148.371C270.91 147.963 271.208 147.441 271.34 146.882L287.683 148.237L282.306 193.009C282.112 193.003 281.917 193.018 281.726 193.051L281.73 193.052ZM271.417 146.358C271.451 145.638 271.221 144.904 270.703 144.32C270.574 144.172 270.434 144.043 270.282 143.929L291.623 109.543C291.84 109.65 292.068 109.728 292.301 109.778L287.746 147.712L271.415 146.359L271.417 146.358ZM290.149 107.762C290.263 108.16 290.461 108.542 290.754 108.875C290.883 109.02 291.024 109.152 291.172 109.264L283.545 121.543L269.816 143.641C269.672 143.57 269.522 143.514 269.37 143.468L275.976 110.41L290.15 107.758L290.149 107.762ZM268.851 143.367C268.08 143.286 267.28 143.513 266.652 144.066C266.398 144.29 266.197 144.55 266.042 144.829L215.863 122.807C215.987 122.429 216.032 122.032 215.995 121.637L275.413 110.52L268.848 143.368L268.851 143.367ZM215.042 124.053C215.296 123.828 215.497 123.569 215.652 123.29L265.831 145.312C265.647 145.861 265.636 146.457 265.797 147.016L235.091 159.097L214.81 124.237C214.89 124.179 214.966 124.117 215.041 124.051L215.042 124.053ZM265.991 147.509C266.1 147.724 266.234 147.929 266.398 148.117C266.448 148.175 266.503 148.226 266.555 148.277L248.536 177.814C247.735 177.364 246.758 177.321 245.92 177.708L235.361 159.56L265.991 147.509ZM249.28 178.411C249.184 178.302 249.079 178.205 248.972 178.114L266.972 148.61C267.199 148.759 267.44 148.871 267.692 148.952L259.735 185.829L249.744 181.496C250.196 180.5 250.055 179.285 249.284 178.413L249.28 178.411ZM268.209 149.062C268.439 149.091 268.674 149.093 268.906 149.065L281.21 193.197C280.898 193.316 280.6 193.489 280.333 193.724C280.077 193.95 279.874 194.213 279.718 194.498L260.228 186.046L268.209 149.065L268.209 149.062ZM338.501 236.231C338.469 236.26 338.441 236.29 338.41 236.321L306.619 213.248L284.704 197.342C285.014 196.817 285.144 196.211 285.091 195.616L335.37 186.283L340.06 235.534C339.501 235.6 338.955 235.829 338.501 236.231ZM284.202 193.785C283.81 193.415 283.338 193.178 282.839 193.072L288.217 148.279L329.474 151.699C329.48 152.28 329.661 152.863 330.023 153.363L284.202 193.785ZM329.516 151.17L288.279 147.752L292.831 109.839C293.449 109.857 294.072 109.678 294.6 109.291L330.251 149.704C329.856 150.122 329.608 150.635 329.516 151.17ZM295.061 105.074C294.457 104.392 293.603 104.065 292.758 104.108L291.047 92.3574L286.612 61.9112C286.725 61.8813 286.839 61.8455 286.95 61.8022L308.398 104.545L295.177 108.731C296.006 107.663 295.988 106.127 295.061 105.074ZM283.956 61.2394C284.3 61.5569 284.704 61.7739 285.131 61.8947L275.527 109.959L215.901 121.115C215.814 120.806 215.675 120.51 215.482 120.236L283.956 61.2394ZM214.353 124.501L234.596 159.294L209.228 169.275C209.119 169.061 208.985 168.856 208.821 168.667C208.407 168.198 207.873 167.899 207.308 167.772L213.031 124.765C213.48 124.783 213.934 124.696 214.353 124.501ZM209.422 169.768L234.864 159.758L245.461 177.974C245.381 178.031 245.304 178.093 245.23 178.16C244.841 178.501 244.57 178.927 244.414 179.387L209.505 170.981C209.565 170.579 209.536 170.167 209.42 169.772L209.422 169.768ZM254.371 213.198L260.115 186.573L279.508 194.983C279.262 195.738 279.332 196.576 279.736 197.289L255.729 213.961C255.343 213.575 254.871 213.318 254.373 213.197L254.371 213.198ZM256.067 214.371L280.04 197.722C280.055 197.739 280.067 197.758 280.082 197.775C281.129 198.964 282.944 199.076 284.133 198.029C284.225 197.947 284.311 197.86 284.391 197.768L333.411 233.349L338.063 236.723C337.949 236.883 337.853 237.054 337.776 237.228L256.548 216.305C256.621 215.639 256.466 214.95 256.068 214.368L256.067 214.371ZM343.265 238.535L368.497 238.958L367.153 263.61C366.303 263.392 365.372 263.567 364.642 264.149L342.678 240.13C343.037 239.661 343.233 239.105 343.263 238.539L343.265 238.535ZM420.583 295.023C420.496 294.922 420.402 294.835 420.303 294.749L448.425 255.287C448.607 255.393 448.799 255.478 448.996 255.539L438.682 302.627L421.242 297.476C421.407 296.629 421.195 295.719 420.58 295.021L420.583 295.023ZM484.818 314.943C484.467 315.251 484.215 315.628 484.053 316.034L439.192 302.782L449.515 255.655C450.035 255.719 450.571 255.643 451.059 255.42L485.066 314.749C484.98 314.808 484.896 314.872 484.818 314.943ZM447.605 251.043C447.408 251.298 447.256 251.579 447.155 251.875L396.476 239.541C396.525 239.243 396.524 238.939 396.479 238.637L426.46 231.148L447.608 251.042L447.605 251.043ZM396.349 238.123C396.23 237.783 396.046 237.461 395.794 237.172C395.04 236.318 393.895 236.022 392.868 236.308L373.243 181.806C373.407 181.73 373.565 181.638 373.716 181.527L425.999 230.712L396.349 238.118L396.349 238.123ZM369.873 181.109C370.046 181.306 370.241 181.469 370.448 181.605L341.586 235.774C341.268 235.63 340.93 235.545 340.589 235.522L335.891 186.186L369.266 179.991C369.378 180.393 369.579 180.774 369.873 181.109ZM335.319 185.754L284.994 195.096C284.903 194.776 284.76 194.468 284.553 194.185L330.374 153.762C330.924 154.281 331.634 154.542 332.35 154.54L335.321 185.753L335.319 185.754ZM330.649 149.356L295.276 109.259L308.639 105.03L330.824 149.242C330.764 149.278 330.707 149.315 330.649 149.356ZM287.422 61.5655C287.556 61.4831 287.683 61.3916 287.805 61.2852C287.927 61.1787 288.034 61.061 288.134 60.9401L338.924 94.8841L308.91 104.387L287.423 61.568L287.422 61.5655ZM283.295 60.3296C283.361 60.472 283.441 60.6123 283.531 60.7456L283.499 60.9351L215.135 119.838C214.669 119.387 214.083 119.126 213.476 119.054L214.304 84.5297L283.292 60.328L283.295 60.3296ZM172.325 96.177L205.571 87.3559C205.689 87.682 205.867 87.9923 206.111 88.2673C206.266 88.445 206.441 88.5927 206.626 88.7226L194.209 110.643L172.104 97.8561C172.347 97.3306 172.422 96.7452 172.326 96.1795L172.325 96.177ZM207.088 88.9833C207.499 89.169 207.948 89.254 208.391 89.2335L212.493 119.105C212.046 119.208 211.617 119.424 211.244 119.748C211.073 119.898 210.929 120.066 210.804 120.241L194.667 110.908L207.088 88.9833ZM210.539 120.699C210.211 121.41 210.187 122.228 210.479 122.959L180.458 138.248C180.364 138.082 180.249 137.921 180.118 137.771C179.983 137.617 179.833 137.483 179.675 137.366L194.404 111.364L210.538 120.696L210.539 120.699ZM180.677 138.732L206.651 125.503L180.238 141.424C180.834 140.652 180.988 139.634 180.677 138.732ZM210.833 123.6C210.883 123.667 210.935 123.732 210.99 123.797C211.403 124.267 211.938 124.566 212.503 124.693L206.779 167.699C206.067 167.671 205.342 167.903 204.766 168.412C204.258 168.859 203.948 169.448 203.841 170.068L144.173 165.19C144.154 164.774 144.042 164.358 143.841 163.977L210.835 123.597L210.833 123.6ZM203.799 170.597C203.802 170.799 203.822 171 203.867 171.201L147.452 189.594L142.225 168.042C142.576 167.922 142.909 167.736 143.205 167.474C143.741 167.002 144.054 166.375 144.146 165.721L203.796 170.598L203.799 170.597ZM141.71 168.161L146.947 189.755L128.76 195.684C128.642 195.414 128.484 195.156 128.278 194.923C128.076 194.695 127.847 194.507 127.598 194.358L140.237 167.981C140.706 168.169 141.213 168.23 141.709 168.159L141.71 168.161ZM123.973 198.723C124.996 199.882 126.742 200.016 127.93 199.051L154.191 225.943L84.2645 176.02L123.453 195.774C123.073 196.744 123.232 197.888 123.97 198.722L123.973 198.723ZM83.1997 176.38C83.2979 176.293 83.3875 176.198 83.4703 176.101L154.045 226.487C153.843 226.868 153.73 227.287 153.712 227.711L115.901 228.908L83.0412 176.502C83.0937 176.46 83.1472 176.421 83.1988 176.377L83.1997 176.38ZM158.732 225.938C158.698 225.899 158.66 225.865 158.625 225.83L204.983 172.89C205.685 173.401 206.575 173.554 207.394 173.34L215.805 196.449L158.983 226.272C158.907 226.156 158.827 226.044 158.732 225.938ZM207.892 173.159C208.131 173.047 208.357 172.902 208.566 172.716C208.955 172.374 209.226 171.949 209.382 171.489L244.291 179.894C244.217 180.398 244.28 180.919 244.477 181.397L216.28 196.197L207.894 173.155L207.892 173.159ZM244.725 181.871C244.801 181.987 244.883 182.101 244.978 182.207C245.395 182.681 245.936 182.981 246.507 183.109L237.669 252.606C237.392 252.597 237.115 252.627 236.842 252.699L216.463 196.706L244.726 181.873L244.725 181.871ZM238.195 252.672L247.033 183.176C247.125 183.18 247.218 183.18 247.311 183.171L252.805 213.258C252.444 213.375 252.103 213.567 251.801 213.831C250.613 214.882 250.5 216.694 251.547 217.883C251.788 218.156 252.071 218.369 252.374 218.527L238.406 252.725C238.335 252.702 238.265 252.686 238.194 252.669L238.195 252.672ZM256.441 216.824L337.608 237.729C337.404 238.601 337.611 239.558 338.25 240.282C338.537 240.606 338.882 240.849 339.257 241.012L325.367 283.088C324.514 282.891 323.585 283.088 322.87 283.695L255.791 217.951C256.102 217.621 256.319 217.234 256.443 216.823L256.441 216.824ZM326.872 283.984C326.585 283.66 326.24 283.416 325.867 283.253L339.451 242.103L332.138 282.121L327.198 284.429C327.107 284.273 326.998 284.121 326.874 283.98L326.872 283.984ZM340.149 241.24C340.906 241.305 341.686 241.078 342.301 240.536C342.308 240.53 342.313 240.523 342.322 240.517L364.264 264.512C363.577 265.306 363.393 266.397 363.736 267.355L332.727 281.85L340.15 241.242L340.149 241.24ZM363.959 267.835C364.049 267.991 364.158 268.143 364.283 268.284C364.392 268.405 364.508 268.515 364.631 268.613L324.864 328.328C324.675 328.227 324.479 328.146 324.275 328.088L332.61 282.488L363.959 267.835ZM367.489 269.051C367.79 268.933 368.075 268.764 368.334 268.537C368.387 268.49 368.436 268.438 368.486 268.389L415.826 295.719C415.551 296.319 415.492 296.994 415.653 297.629L379.601 310.517L367.489 269.051ZM419.36 299.635C419.707 299.518 420.039 299.329 420.331 299.071C420.681 298.763 420.933 298.386 421.096 297.98L438.57 303.141L430.235 341.202C429.96 341.153 429.681 341.144 429.404 341.175L419.362 299.632L419.36 299.635ZM432.477 343.22L484.254 318.56C484.342 318.711 484.446 318.857 484.565 318.991C485.112 319.61 485.864 319.934 486.629 319.957L487.683 337.084L432.56 343.587C432.54 343.462 432.513 343.339 432.476 343.217L432.477 343.22ZM488.243 337.554L524.431 333.285C524.531 333.753 524.745 334.203 525.085 334.586C525.166 334.678 525.253 334.759 525.341 334.84L498.915 371.099L492.26 380.232C491.826 379.976 491.335 379.844 490.845 379.837L488.244 337.557L488.243 337.554ZM492.956 380.803C492.874 380.708 492.783 380.623 492.689 380.542L525.768 335.153C525.908 335.237 526.052 335.306 526.203 335.364L511.457 387.352L493.638 383.149C493.766 382.332 493.545 381.468 492.956 380.803ZM511.828 387.984L564.728 400.461C564.664 400.927 564.714 401.405 564.88 401.855L501.043 432.477C500.925 432.185 500.759 431.907 500.539 431.657C500.279 431.363 499.97 431.134 499.638 430.973L511.832 387.986L511.828 387.984ZM501.209 434.056C501.27 433.703 501.267 433.341 501.195 432.989L565.107 402.331C565.195 402.479 565.298 402.622 565.416 402.754C565.713 403.089 566.067 403.335 566.454 403.498L554.68 440.688L501.208 434.053L501.209 434.056ZM566.959 403.662C567.424 403.763 567.907 403.748 568.368 403.614L583.518 442.077C583.404 442.152 583.295 442.231 583.19 442.323C582.646 442.803 582.329 443.443 582.245 444.11L555.216 440.758L566.959 403.662ZM584.68 441.637L579.242 402.321L600.145 404.461C600.138 405.146 600.371 405.833 600.86 406.386C601.076 406.631 601.325 406.828 601.595 406.981L585.893 441.722C585.499 441.609 585.088 441.578 584.68 441.637ZM601.485 402.061C601.356 402.142 601.231 402.232 601.114 402.334C600.62 402.768 600.316 403.335 600.198 403.934L579.166 401.782L571.026 342.927C571.161 342.895 571.297 342.851 571.428 342.798L601.485 402.061ZM530.034 319.905C530.056 320.548 530.292 321.187 530.749 321.708C530.971 321.96 531.23 322.162 531.509 322.317L528.145 329.97C527.208 329.657 526.134 329.837 525.34 330.537C525.052 330.792 524.829 331.093 524.667 331.417L489.483 317.875C489.515 317.762 489.54 317.646 489.56 317.529L530.037 319.906L530.034 319.905ZM486.484 314.238C486.158 314.264 485.835 314.344 485.528 314.484L451.521 255.156C451.607 255.096 451.691 255.032 451.769 254.961C452.931 253.938 453.062 252.184 452.091 250.995L485.891 217.759C486.343 218.142 486.886 218.364 487.449 218.422L486.482 314.239L486.484 314.238ZM484.932 215.001C484.866 215.33 484.857 215.671 484.908 216.005L426.614 230.565L374.93 181.942L484.935 215L484.932 215.001ZM369.532 177.802C369.242 178.314 369.122 178.899 369.173 179.472L335.845 185.659L332.879 154.492C333.369 154.398 333.843 154.18 334.244 153.826C334.353 153.73 334.448 153.627 334.538 153.518L369.531 177.799L369.532 177.802ZM332.44 148.809C332.055 148.797 331.667 148.862 331.301 149.003L309.155 104.868L339.22 95.3488L332.443 148.808L332.44 148.809ZM291.519 16.4446C292.003 16.48 292.498 16.3927 292.948 16.1809L338.718 94.1077L288.427 60.5004C288.984 59.4718 288.877 58.1629 288.059 57.2338C287.219 56.2819 285.893 56.0231 284.786 56.4909L291.515 16.443L291.519 16.4446ZM214.901 37.7893L213.788 84.1506L210.877 85.1706C210.764 84.9214 210.612 84.6833 210.421 84.4681C210.008 83.9983 209.47 83.6978 208.901 83.5691L214.9 37.7868L214.901 37.7893ZM170.313 99.4046C170.703 99.2908 171.077 99.0929 171.401 98.8057C171.572 98.6561 171.714 98.4887 171.842 98.3126L193.951 111.103L179.226 137.095C178.743 136.859 178.206 136.77 177.678 136.821L170.313 99.4046ZM175.854 141.61C176.537 142.357 177.528 142.662 178.461 142.499L148.335 160.658L175.851 141.611L175.854 141.61ZM79.8217 176.69C80.6638 177.198 81.716 177.238 82.5999 176.792L115.296 228.934L41.7949 231.262C41.7262 230.709 41.496 230.169 41.1006 229.718C41.0236 229.631 40.941 229.551 40.8576 229.477L79.8242 176.689L79.8217 176.69ZM41.7504 232.208C41.7793 232.071 41.8014 231.93 41.8093 231.789L115.618 229.454L134.371 259.364C134.329 259.396 134.287 259.428 134.247 259.463C133.864 259.8 133.596 260.216 133.438 260.665L41.7504 232.208ZM137.526 259.099C136.691 258.641 135.673 258.625 134.818 259.074L116.234 229.436L153.745 228.249C153.821 228.785 154.048 229.306 154.432 229.742C154.556 229.882 154.692 230.008 154.837 230.119L137.526 259.099ZM159.353 228.596C159.518 227.989 159.481 227.337 159.235 226.747L215.994 196.958L236.349 252.884C236.11 252.996 235.884 253.14 235.675 253.326C235.358 253.608 235.119 253.943 234.955 254.308L159.354 228.599L159.353 228.596ZM326.622 288.039C327.529 287.238 327.809 285.992 327.423 284.917L332.023 282.766L323.862 327.418L324.912 288.746C325.523 288.707 326.127 288.476 326.624 288.036L326.622 288.039ZM326.368 330.989C326.381 330.705 326.353 330.419 326.281 330.144L379.252 311.208L386.847 337.213C386.546 337.331 386.259 337.501 386.002 337.727C385.539 338.135 385.24 338.661 385.111 339.221L326.368 330.989ZM390.771 339.896C390.776 339.215 390.541 338.531 390.056 337.98C389.969 337.879 389.872 337.79 389.773 337.705L416.994 299.402C417.559 299.73 418.212 299.85 418.847 299.76L428.886 341.287C428.508 341.402 428.145 341.596 427.83 341.877C427.334 342.314 427.028 342.882 426.915 343.485L390.772 339.899L390.771 339.896ZM432.257 345.381C432.467 344.989 432.58 344.555 432.593 344.119L487.716 337.617L490.314 379.875C489.807 379.961 489.315 380.182 488.902 380.55C488.746 380.688 488.611 380.836 488.493 380.997L432.252 345.383L432.257 345.381ZM491.443 385.501C491.896 385.398 492.331 385.183 492.705 384.856C493.085 384.52 493.353 384.109 493.509 383.663L511.314 387.864L499.137 430.789C498.856 430.713 498.564 430.678 498.275 430.691L491.443 385.501ZM548.167 467.883C548.083 467.744 547.987 467.613 547.876 467.487C547.616 467.19 547.307 466.961 546.972 466.798L555.053 441.271L582.227 444.642C582.25 445.053 582.362 445.463 582.566 445.838L548.166 467.88L548.167 467.883Z" fill="#2B6577"/>
<path d="M255.201 242.158C277.907 243.113 287.847 234.313 292.154 227.235L276.217 223.264L220.284 216.144L210.962 218.227C217.295 227.522 230.682 241.124 255.199 242.158H255.201Z" fill="#FFBE97"/>
<path d="M358.622 271.335C349.564 251.671 332.069 237.184 311.065 231.949L292.154 227.235C287.847 234.313 277.907 243.113 255.201 242.158C230.682 241.124 217.297 227.522 210.964 218.227L168.57 227.701C142.72 233.478 123.204 254.746 119.663 280.995L106.382 379.499C103.227 402.898 119.965 422.045 143.575 422.045C157.748 422.045 171.471 417.071 182.353 407.992L191.896 400.069H327.737V355.969L343.559 394.88L415.75 395.345L358.624 271.337L358.622 271.335Z" fill="#9F5656"/>
<path d="M182.64 339.674C182.613 339.674 182.584 339.674 182.554 339.669C182.108 339.623 181.785 339.223 181.831 338.78C182.966 327.885 185.916 299.367 185.93 298.255C185.935 297.812 186.298 297.449 186.741 297.449H186.746C187.192 297.451 187.552 297.809 187.552 298.255C187.552 299.492 183.865 334.912 183.446 338.947C183.402 339.363 183.052 339.674 182.64 339.674Z" fill="#4F2B2B"/>
<path d="M327.363 393.307H327.355C326.907 393.302 326.549 392.937 326.552 392.488C326.561 391.53 327.478 296.599 327.478 295.386C327.478 294.938 327.84 294.575 328.289 294.575C328.737 294.575 329.1 294.938 329.1 295.386C329.1 296.606 328.21 388.588 328.174 392.503C328.169 392.949 327.806 393.307 327.363 393.307Z" fill="#4F2B2B"/>
<path d="M231.98 170.888L220.284 216.144L276.217 223.264V203.431L231.98 170.888Z" fill="#FFBE97"/>
<path d="M215.327 144.521C215.327 144.521 230.214 197.328 259.172 202.414C288.131 207.501 315.701 168.499 315.701 168.499C315.701 168.499 330.937 133.002 322.303 119.468C314.696 107.546 297.622 96.3182 286.127 92.8687C265.542 86.6898 243.485 99.3072 243.485 99.3072C243.485 99.3072 229.814 98.8245 220.178 115.389C213.397 127.051 215.325 144.521 215.325 144.521H215.327Z" fill="#4F2B2B"/>
<path d="M233.991 140.312C219.26 162.348 226.453 195.136 249.436 206.668C274.024 219.008 299.788 213.275 311.979 189.738C323.599 167.304 320.75 140.582 299.372 126.289C277.993 111.998 248.721 118.275 233.989 140.31L233.991 140.312Z" fill="#FFBE97"/>
<path d="M233.626 154.968C233.114 163.141 232.982 170.254 226.134 169.825C219.284 169.396 212.248 161.987 212.76 153.814C213.272 145.641 219.24 139.364 226.09 139.793C232.94 140.222 234.141 146.795 233.629 154.968H233.626Z" fill="#FFBE97"/>
<path d="M269.222 156.595C268.857 158.82 267.414 160.437 265.998 160.204C264.582 159.971 263.729 157.979 264.094 155.755C264.459 153.53 265.902 151.913 267.318 152.146C268.735 152.379 269.587 154.37 269.222 156.595Z" fill="#4F2B2B"/>
<path d="M303.987 162.862C303.622 165.087 302.179 166.704 300.763 166.471C299.347 166.238 298.495 164.246 298.86 162.022C299.225 159.797 300.668 158.18 302.084 158.413C303.5 158.646 304.352 160.637 303.987 162.862Z" fill="#4F2B2B"/>
<path d="M305.896 181.565C304.791 181.565 303.676 181.462 302.564 181.256C297.833 180.377 293.727 177.706 291.002 173.737C288.278 169.771 287.264 164.979 288.143 160.248C289.959 150.48 299.384 144.012 309.152 145.825C313.883 146.704 317.989 149.375 320.713 153.344C323.438 157.313 324.452 162.103 323.572 166.833C322.693 171.564 320.022 175.67 316.056 178.395C313.02 180.48 309.502 181.563 305.896 181.563V181.565ZM305.852 147.143C298.11 147.143 291.203 152.663 289.738 160.544C288.937 164.851 289.863 169.21 292.34 172.821C294.819 176.432 298.556 178.863 302.863 179.661C307.167 180.463 311.528 179.539 315.139 177.06C318.751 174.58 321.181 170.844 321.98 166.537C322.781 162.23 321.857 157.871 319.378 154.26C316.899 150.649 313.162 148.218 308.855 147.42C307.846 147.231 306.841 147.143 305.852 147.143Z" fill="black"/>
<path d="M263.599 173.703C262.494 173.703 261.38 173.6 260.267 173.394C255.537 172.515 251.428 169.844 248.706 165.875C245.982 161.909 244.967 157.117 245.847 152.386C247.662 142.618 257.085 136.15 266.855 137.963C271.586 138.842 275.692 141.513 278.417 145.482C281.141 149.451 282.156 154.241 281.276 158.971C280.396 163.702 277.726 167.809 273.759 170.533C270.724 172.618 267.206 173.701 263.599 173.701V173.703ZM263.555 139.281C255.813 139.281 248.907 144.803 247.439 152.682C246.638 156.989 247.564 161.348 250.041 164.959C252.521 168.57 256.257 171.001 260.564 171.8C264.869 172.601 269.229 171.677 272.841 169.198C276.452 166.718 278.882 162.982 279.681 158.675C280.482 154.368 279.559 150.009 277.079 146.398C274.6 142.787 270.864 140.357 266.557 139.558C265.547 139.369 264.543 139.281 263.553 139.281H263.555Z" fill="black"/>
<path d="M291.223 170.756L285.188 175.869L284.059 154.887L291.223 170.756Z" fill="#FFBE97"/>
<path d="M290.853 155.933C288.033 154.419 284.586 153.785 280.313 153.991L280.235 152.371C284.809 152.151 288.535 152.847 291.62 154.505L290.853 155.933Z" fill="black"/>
<path d="M245.947 112.439C245.947 112.439 261.233 133.582 269.173 136.971C277.113 140.359 285.556 139.791 285.556 139.791L282.795 133.112C282.795 133.112 286.781 139.56 292.534 141.55C298.288 143.539 306.694 143.649 306.694 143.649L302.909 135.459C302.909 135.459 310.658 148.01 320.417 148.081C320.417 148.081 307.591 112.682 286.475 109.872C265.358 107.061 245.945 112.434 245.945 112.434L245.947 112.439Z" fill="#4F2B2B"/>
<path d="M285.132 177.131C284.912 177.131 284.694 177.042 284.534 176.866C284.233 176.535 284.255 176.023 284.586 175.722L290.243 170.552L283.799 156.284C283.616 155.877 283.797 155.397 284.204 155.213C284.613 155.029 285.093 155.211 285.277 155.617L292.203 170.957L285.676 176.92C285.522 177.062 285.326 177.133 285.13 177.133L285.132 177.131Z" fill="#4F2B2B"/>
<path d="M282.432 191.649H282.41C282.29 191.647 270.288 191.191 266.512 179.492C266.375 179.066 266.608 178.608 267.034 178.473C267.463 178.334 267.916 178.569 268.053 178.995C271.481 189.616 282.342 190.027 282.452 190.03C282.9 190.042 283.253 190.414 283.241 190.863C283.229 191.304 282.868 191.652 282.432 191.652V191.649Z" fill="#4F2B2B"/>
<path d="M228.442 157.114C228.048 157.114 227.702 156.825 227.641 156.426C227.602 156.161 226.6 149.975 221.112 149.441C220.666 149.397 220.34 149.002 220.384 148.557C220.428 148.111 220.825 147.782 221.269 147.829C228.026 148.486 229.231 156.112 229.243 156.188C229.309 156.632 229.003 157.041 228.562 157.107C228.523 157.112 228.481 157.117 228.442 157.117V157.114Z" fill="#4F2B2B"/>
<path d="M389.945 388.397H239.303V400.142H389.945V388.397Z" fill="#357E94"/>
<path d="M287.546 314.895C287.546 314.895 296.635 329.963 301.91 335.142C307.528 340.659 314.772 344.212 313.209 349.183C311.646 354.154 299.487 353.313 292.392 343.969C285.297 334.625 287.546 314.895 287.546 314.895Z" fill="#FFBE97"/>
<path d="M219.716 298.088L142.63 346.542C123.831 358.358 119.766 384.038 133.998 401.08C146.846 416.466 169.667 418.684 185.237 406.059L231.088 368.873C231.088 368.873 247.261 367.869 249.948 367.263C252.636 366.658 253.537 363.723 253.537 363.723C253.537 363.723 256.156 367.232 262.019 366.232C267.88 365.232 269.207 362.111 269.207 362.111C269.207 362.111 271.748 365.21 275.646 365.046C279.544 364.882 282.557 364.478 282.557 364.478C282.557 364.478 297.541 384.641 304.935 380.741C310.543 377.781 301.738 364.368 297.865 352.463C295.278 344.511 292.125 321.108 292.125 321.108C288.92 306.84 276.859 296.28 262.291 294.989L240.567 293.066C233.254 292.419 225.929 294.183 219.713 298.091L219.716 298.088Z" fill="#FFBE97"/>
<path d="M279.149 365.465C278.731 365.465 278.375 365.144 278.341 364.718C278.307 364.272 278.64 363.882 279.086 363.846C280.705 363.718 282.163 362.956 283.192 361.697C284.221 360.438 284.677 358.858 284.478 357.246L280.774 327.155C280.72 326.711 281.036 326.307 281.479 326.251C281.925 326.187 282.327 326.511 282.383 326.956L286.088 357.047C286.34 359.103 285.759 361.119 284.449 362.724C283.138 364.328 281.281 365.301 279.216 365.463C279.194 365.463 279.174 365.463 279.152 365.463L279.149 365.465Z" fill="#4F2B2B"/>
<path d="M269.447 363.128C269.06 363.128 268.717 362.849 268.649 362.454L263.102 329.825C263.026 329.384 263.325 328.965 263.766 328.889C264.209 328.821 264.626 329.112 264.702 329.553L270.249 362.182C270.325 362.623 270.026 363.042 269.585 363.118C269.538 363.125 269.494 363.13 269.447 363.13V363.128Z" fill="#4F2B2B"/>
<path d="M253.932 365.291C253.555 365.291 253.217 365.024 253.138 364.64L246.555 331.915C246.467 331.477 246.751 331.05 247.19 330.96C247.626 330.867 248.055 331.156 248.145 331.594L254.728 364.319C254.816 364.757 254.532 365.183 254.094 365.274C254.04 365.286 253.986 365.289 253.932 365.289V365.291Z" fill="#4F2B2B"/>
<path d="M231.088 369.684C230.743 369.684 230.422 369.461 230.314 369.113L227.247 359.213C226.541 356.932 226.776 354.519 227.908 352.417C229.043 350.317 230.929 348.796 233.225 348.134L235.126 347.585C235.552 347.463 236.005 347.708 236.13 348.139C236.255 348.568 236.005 349.018 235.577 349.143L233.676 349.692C231.804 350.231 230.263 351.473 229.337 353.188C228.411 354.903 228.219 356.873 228.795 358.735L231.863 368.635C231.995 369.062 231.755 369.517 231.328 369.65C231.248 369.674 231.167 369.686 231.088 369.686V369.684Z" fill="#4F2B2B"/>
<path d="M237.101 355.7C236.731 355.7 236.395 355.445 236.312 355.067L231.75 334.86C231.652 334.424 231.926 333.99 232.362 333.89C232.801 333.792 233.232 334.066 233.333 334.502L237.894 354.71C237.992 355.146 237.718 355.579 237.282 355.68C237.221 355.695 237.162 355.7 237.103 355.7H237.101Z" fill="#4F2B2B"/>
<path d="M338.461 329.316C338.461 329.316 334.588 338.949 330.246 345.74C326.14 352.167 323.482 356.057 325.479 358.576C329.212 363.287 339.105 354.649 339.105 354.649L338.459 329.313L338.461 329.316Z" fill="#FFBE97"/>
<path d="M392.517 325.614L382.742 315.483C376.975 309.505 368.26 307.423 360.41 310.145L353.011 312.712C342.675 316.299 335.825 326.143 336.077 337.082C336.295 346.524 337.422 357.483 336.908 362.976C335.859 374.167 332.432 386.9 335.862 388.216C340.617 390.038 346.958 380.844 350.106 370.701L379.579 366.183L392.52 325.614H392.517Z" fill="#FFBE97"/>
<path d="M352.418 371.095C350.703 371.095 349.047 370.463 347.749 369.287C346.161 367.847 345.33 365.796 345.473 363.657L346.908 341.987C346.938 341.541 347.325 341.218 347.771 341.232C348.217 341.262 348.555 341.649 348.525 342.095L347.09 363.765C346.982 365.406 347.616 366.979 348.836 368.084C350.056 369.189 351.688 369.667 353.308 369.4C353.749 369.321 354.165 369.625 354.239 370.066C354.312 370.507 354.013 370.926 353.572 371C353.188 371.063 352.8 371.095 352.416 371.095H352.418Z" fill="#4F2B2B"/>
<path d="M361.758 369.574C361.733 369.574 361.709 369.574 361.684 369.571C361.239 369.532 360.91 369.138 360.949 368.689L363.343 342.369C363.382 341.923 363.779 341.59 364.223 341.637C364.669 341.676 364.997 342.073 364.958 342.519L362.564 368.839C362.525 369.26 362.172 369.576 361.758 369.576V369.574Z" fill="#4F2B2B"/>
<path d="M502.666 400.14H349.875L388.813 286.287H541.603L502.666 400.14Z" fill="#357E94"/>
<path d="M453.44 349.026C463.985 349.026 472.533 346.503 472.533 343.391C472.533 340.279 463.985 337.756 453.44 337.756C442.896 337.756 434.348 340.279 434.348 343.391C434.348 346.503 442.896 349.026 453.44 349.026Z" fill="white"/>
<path d="M272.571 213.795C256.475 213.795 244.779 202.836 244.252 202.334C243.929 202.025 243.916 201.513 244.225 201.189C244.534 200.866 245.048 200.854 245.372 201.16C245.504 201.287 258.908 213.829 276.148 211.982C276.589 211.937 276.994 212.256 277.04 212.702C277.089 213.148 276.766 213.547 276.32 213.594C275.046 213.731 273.796 213.795 272.569 213.795H272.571Z" fill="#4F2B2B"/>
<path d="M388.451 286.148L349.455 399.981L350.222 400.244L389.218 286.41L388.451 286.148Z" fill="white"/>
<path d="M543.009 170.671H448.712L480.191 74H574.489L543.009 170.671Z" fill="#E95D9A"/>
<path d="M484.391 235.269H386L425.524 117.406H523.912L484.391 235.269Z" fill="#FBE4C6"/>
<path d="M488.252 183.657L421.247 182.658L437.111 132.741L437.987 133.019L422.502 181.754L488.266 182.736L488.252 183.657Z" fill="black"/>
<path d="M428.239 171.355L427.68 170.624L450.837 152.929L456.143 159.582L478.221 139.915L484.451 152.692L495.042 159.129L494.563 159.916L483.741 153.338L477.926 141.412L456.029 160.918L450.678 154.206L428.239 171.355Z" fill="black"/>
<path d="M433.76 137.313L433.109 136.662L437.725 132.054L439.551 136.823L438.691 137.151L437.372 133.707L433.76 137.313Z" fill="black"/>
<path d="M483.492 186.273L483.041 185.472L487.487 182.964L484.524 180.766L485.072 180.029L489.174 183.07L483.492 186.273Z" fill="black"/>
<path d="M569.702 253.629H496.92L521.218 179.016H594L569.702 253.629Z" fill="#F2AE54"/>
<path d="M526.979 193.672C532.9 193.655 538.821 193.639 544.743 193.619C554.226 193.591 563.706 193.563 573.189 193.536C575.357 193.53 577.525 193.522 579.692 193.516C581.025 193.513 581.028 191.44 579.692 191.446C573.771 191.463 567.85 191.479 561.928 191.499C552.445 191.527 542.965 191.554 533.481 191.582C531.314 191.588 529.146 191.596 526.979 191.602C525.646 191.605 525.643 193.678 526.979 193.672Z" fill="white"/>
<path d="M523.603 204.705C528.392 204.688 533.181 204.669 537.972 204.652C545.602 204.624 553.232 204.597 560.862 204.569C562.609 204.563 564.357 204.555 566.102 204.549C567.435 204.544 567.437 202.473 566.102 202.479C561.313 202.496 556.524 202.515 551.732 202.532C544.102 202.56 536.472 202.587 528.842 202.615C527.095 202.621 525.347 202.629 523.603 202.635C522.27 202.64 522.267 204.711 523.603 204.705Z" fill="white"/>
<path d="M520.227 215.738C526.149 215.721 532.07 215.705 537.992 215.685C547.475 215.657 556.955 215.63 566.438 215.602C568.606 215.596 570.774 215.588 572.941 215.582C574.274 215.58 574.277 213.506 572.941 213.512C567.02 213.529 561.099 213.545 555.177 213.565C545.694 213.593 536.214 213.621 526.73 213.648C524.563 213.654 522.395 213.662 520.227 213.668C518.895 213.671 518.892 215.744 520.227 215.738Z" fill="white"/>
<path d="M516.85 226.771C522.724 226.696 528.601 226.618 534.475 226.543C543.844 226.421 553.21 226.301 562.579 226.179C564.733 226.151 566.89 226.123 569.043 226.095C570.376 226.078 570.379 224.005 569.043 224.025C563.169 224.1 557.292 224.178 551.418 224.253C542.049 224.375 532.683 224.495 523.314 224.617C521.16 224.645 519.003 224.673 516.85 224.701C515.517 224.718 515.514 226.791 516.85 226.771Z" fill="white"/>
<path d="M513.474 240.364C517.996 240.348 522.515 240.328 527.036 240.311C534.202 240.284 541.367 240.256 548.529 240.228C550.188 240.222 551.843 240.214 553.502 240.208C554.835 240.203 554.838 238.133 553.502 238.138C548.98 238.155 544.461 238.174 539.939 238.191C532.774 238.219 525.609 238.247 518.446 238.275C516.788 238.28 515.132 238.288 513.474 238.294C512.141 238.3 512.138 240.37 513.474 240.364Z" fill="white"/>
<path d="M418.086 196.858C424.008 196.841 429.929 196.825 435.85 196.805C445.334 196.777 454.814 196.75 464.297 196.722C466.465 196.716 468.632 196.708 470.8 196.702C471.688 196.702 471.691 195.319 470.8 195.322C464.879 195.339 458.957 195.355 453.036 195.375C443.553 195.403 434.072 195.431 424.589 195.458C422.422 195.464 420.254 195.472 418.086 195.478C417.199 195.478 417.196 196.861 418.086 196.858Z" fill="black"/>
<path d="M487.014 90.0084C489.9 89.9639 492.785 89.9194 495.674 89.8721C496.088 89.8665 496.506 89.8581 496.92 89.8526C497.666 89.8414 498.301 89.2265 498.301 88.4724C498.301 87.7183 497.669 87.0811 496.92 87.0922C494.035 87.1367 491.149 87.1813 488.261 87.2286C487.846 87.2341 487.429 87.2425 487.014 87.248C486.269 87.2592 485.634 87.8741 485.634 88.6282C485.634 89.3823 486.266 90.0195 487.014 90.0084Z" fill="white"/>
<path d="M485.077 97.7469C487.963 97.7023 490.848 97.6578 493.737 97.6105C494.151 97.6049 494.569 97.5966 494.983 97.591C495.729 97.5799 496.364 96.9649 496.364 96.2108C496.364 95.4568 495.732 94.8195 494.983 94.8307C492.098 94.8752 489.212 94.9197 486.324 94.967L485.077 94.9865C484.332 94.9976 483.697 95.6126 483.697 96.3667C483.697 97.1208 484.329 97.758 485.077 97.7469Z" fill="white"/>
<path d="M482.793 105.663C485.678 105.619 488.564 105.574 491.452 105.527C491.867 105.521 492.284 105.513 492.699 105.508C493.445 105.496 494.079 104.881 494.079 104.127C494.079 103.373 493.447 102.736 492.699 102.747C489.813 102.792 486.928 102.836 484.039 102.884C483.625 102.889 483.207 102.897 482.793 102.903C482.047 102.914 481.413 103.529 481.413 104.283C481.413 105.037 482.044 105.675 482.793 105.663Z" fill="white"/>
<path d="M530.495 144.063C533.381 144.019 536.266 143.974 539.155 143.927C539.569 143.922 539.987 143.913 540.401 143.908C541.147 143.897 541.782 143.282 541.782 142.527C541.782 141.773 541.15 141.136 540.401 141.147C537.516 141.192 534.63 141.236 531.742 141.284L530.495 141.303C529.75 141.314 529.115 141.929 529.115 142.683C529.115 143.437 529.747 144.075 530.495 144.063Z" fill="white"/>
<path d="M528.558 151.805C531.444 151.76 534.329 151.716 537.218 151.668C537.632 151.663 538.05 151.654 538.464 151.649C539.21 151.638 539.845 151.023 539.845 150.269C539.845 149.515 539.213 148.877 538.464 148.889C535.579 148.933 532.693 148.978 529.805 149.025C529.39 149.03 528.973 149.039 528.558 149.044C527.812 149.056 527.178 149.67 527.178 150.425C527.178 151.179 527.81 151.816 528.558 151.805Z" fill="white"/>
<path d="M526.271 159.721C529.157 159.677 532.042 159.632 534.931 159.585C535.345 159.579 535.763 159.571 536.177 159.565C536.923 159.554 537.557 158.939 537.557 158.185C537.557 157.431 536.926 156.794 536.177 156.805C533.292 156.85 530.406 156.894 527.518 156.941C527.103 156.947 526.686 156.955 526.271 156.961C525.525 156.972 524.891 157.587 524.891 158.341C524.891 159.095 525.523 159.732 526.271 159.721Z" fill="white"/>
<path d="M414.71 207.891C420.585 207.816 426.461 207.738 432.336 207.663C441.705 207.541 451.071 207.421 460.44 207.298C462.594 207.271 464.75 207.243 466.904 207.215C467.792 207.204 467.794 205.824 466.904 205.835C461.03 205.91 455.153 205.988 449.279 206.063C439.91 206.185 430.544 206.305 421.174 206.427C419.021 206.455 416.864 206.483 414.71 206.511C413.823 206.522 413.82 207.902 414.71 207.891Z" fill="black"/>
<path d="M411.336 221.484C415.857 221.468 420.376 221.448 424.898 221.431C432.063 221.404 439.229 221.376 446.391 221.348C448.049 221.342 449.705 221.334 451.364 221.328C452.251 221.326 452.254 219.945 451.364 219.948C446.842 219.965 442.323 219.984 437.801 220.001C430.636 220.029 423.471 220.057 416.308 220.085C414.65 220.09 412.994 220.099 411.336 220.104C410.448 220.107 410.445 221.487 411.336 221.484Z" fill="black"/>
<path d="M530.498 126.753C530.398 126.753 530.301 126.753 530.201 126.753C525.748 126.672 521.833 124.772 519.17 121.402C515.895 117.256 514.804 111.295 516.176 105.051C518.717 93.4839 528.937 84.1983 539.06 84.1983C539.161 84.1983 539.258 84.1983 539.355 84.1983C543.808 84.279 547.723 86.1795 550.386 89.5493C553.661 93.6954 554.752 99.6557 553.38 105.9C550.839 117.467 540.616 126.753 530.496 126.753H530.498ZM539.058 85.1166C529.346 85.1166 519.526 94.0794 517.075 105.249C515.764 111.223 516.791 116.902 519.894 120.831C522.381 123.981 526.046 125.757 530.217 125.832C530.312 125.832 530.406 125.832 530.501 125.832C540.212 125.832 550.032 116.869 552.484 105.7C553.794 99.7253 552.768 94.046 549.665 90.1169C547.177 86.967 543.513 85.1917 539.341 85.1166C539.247 85.1166 539.152 85.1166 539.06 85.1166H539.058Z" fill="white"/>
<path d="M534.099 106.248L539.82 84.3402L540.707 84.5739L535.457 104.701L552.879 97.5882L553.226 98.4397L534.099 106.248Z" fill="white"/>
<path d="M541.35 122.779L534.088 105.001L552.94 105.338L552.923 106.259L535.468 105.947L542.202 122.431L541.35 122.779Z" fill="white"/>
<path d="M526.046 99.3552L515.758 89.4797H504.892V88.5587H516.128L526.686 98.6929L526.046 99.3552Z" fill="white"/>
<path d="M545.391 135.059H530.095L530.437 122.401L531.358 122.426L531.041 134.141H545.391V135.059Z" fill="white"/>
</g>
</svg>
