<svg width="470" height="250" viewBox="0 0 470 250" fill="none" xmlns="http://www.w3.org/2000/svg">
<mask id="mask0_916_8638" style="mask-type:alpha" maskUnits="userSpaceOnUse" x="0" y="0" width="470" height="250">
<path d="M0 20C0 8.9543 8.9543 0 20 0H450C461.046 0 470 8.9543 470 20V250H0V20Z" fill="#F7FDFE"/>
</mask>
<g mask="url(#mask0_916_8638)">
<path d="M277.395 152.986H200.926V181.997H277.395V152.986Z" fill="#2B6577"/>
<path d="M215.43 181.997H185.637C172.748 181.997 162.299 192.617 162.299 205.718V205.718C162.299 218.819 172.748 229.439 185.637 229.439H215.43C228.319 229.439 238.768 218.819 238.768 205.718V205.718C238.768 192.617 228.319 181.997 215.43 181.997Z" fill="#8FC6D7"/>
<path d="M237.12 152.985C251.923 152.985 263.924 140.788 263.924 125.742C263.924 110.696 251.923 98.4988 237.12 98.4988C222.317 98.4988 210.316 110.696 210.316 125.742C210.316 140.788 222.317 152.985 237.12 152.985Z" fill="#BF8888"/>
<path d="M196.8 98.9811L188.983 97.6812L192.215 92.5564L187.174 95.8426L185.894 86.5376L184.615 95.8426L179.573 92.5564L182.807 97.6812L175.248 98.9811L182.807 100.282L179.573 105.406L184.615 102.12L185.894 111.425L187.174 102.12L192.215 105.406L188.983 100.282L196.8 98.9811Z" fill="#F29EC3"/>
<path d="M198.796 209.536L190.979 208.236L194.212 203.111L189.17 206.397L187.891 197.092L186.612 206.397L181.569 203.111L184.803 208.236L177.244 209.536L184.803 210.836L181.569 215.961L186.612 212.675L187.891 221.98L189.17 212.675L194.212 215.961L190.979 210.836L198.796 209.536Z" fill="#F8D2A0"/>
<path d="M173.38 110.812L173.942 115.243C174.114 116.595 175.161 117.659 176.491 117.833L180.851 118.405L176.491 118.977C175.161 119.152 174.114 120.216 173.942 121.568L173.38 125.999L172.817 121.568C172.645 120.216 171.598 119.152 170.268 118.977L165.908 118.405L170.268 117.833C171.598 117.659 172.645 116.595 172.817 115.243L173.38 110.812Z" fill="#3F97B1"/>
<path d="M297.075 110.086L297.618 114.366C297.784 115.672 298.795 116.7 300.081 116.869L304.292 117.421L300.081 117.974C298.795 118.142 297.784 119.17 297.618 120.477L297.075 124.757L296.531 120.477C296.365 119.17 295.354 118.142 294.069 117.974L289.857 117.421L294.069 116.869C295.354 116.7 296.365 115.672 296.531 114.366L297.075 110.086Z" fill="#357E94"/>
<path d="M228.284 50L209.129 104.074L264.78 93.8981L228.284 50Z" fill="#F5C07A"/>
<path d="M236.557 127.278C234.54 127.647 232.513 125.728 232.029 122.992C231.544 120.256 232.787 117.739 234.804 117.37C235.115 117.313 235.427 117.311 235.733 117.358H235.735C237.33 117.603 238.778 119.182 239.266 121.33C239.291 121.437 239.313 121.546 239.332 121.657C239.817 124.392 238.574 126.909 236.557 127.278Z" fill="white"/>
<path d="M236.987 125.288C235.378 125.582 233.759 124.05 233.373 121.867C232.986 119.683 233.978 117.674 235.588 117.38C235.637 117.371 235.687 117.363 235.736 117.357H235.737C237.333 117.603 238.781 119.182 239.269 121.329C239.423 123.3 238.466 125.017 236.987 125.288Z" fill="black"/>
<path d="M253.719 123.359C251.702 123.728 249.675 121.809 249.191 119.073C248.706 116.337 249.949 113.82 251.966 113.451C252.277 113.394 252.589 113.392 252.895 113.439H252.897C254.493 113.684 255.94 115.263 256.428 117.411C256.453 117.518 256.475 117.627 256.494 117.737C256.979 120.473 255.736 122.99 253.719 123.359Z" fill="white"/>
<path d="M254.149 121.368C252.54 121.663 250.921 120.131 250.535 117.947C250.148 115.763 251.14 113.755 252.75 113.46C252.799 113.451 252.849 113.444 252.898 113.438H252.9C254.495 113.683 255.943 115.263 256.431 117.41C256.585 119.381 255.628 121.097 254.149 121.368Z" fill="black"/>
<path d="M245.065 130.383C243.818 130.383 242.56 130.1 241.383 129.515L241.611 129.041C244.834 130.645 248.714 129.828 251.045 127.055L251.254 126.806L251.648 127.149L251.439 127.398C249.805 129.341 247.457 130.383 245.065 130.383V130.383Z" fill="black"/>
<path d="M269.972 182.01H243.225V228.49H269.972V182.01Z" fill="white"/>
<path d="M210.317 191.303L210.86 195.584C211.026 196.89 212.038 197.918 213.323 198.086L217.534 198.639L213.323 199.191C212.038 199.36 211.026 200.388 210.86 201.694L210.317 205.974L209.773 201.694C209.607 200.388 208.596 199.36 207.311 199.191L203.1 198.639L207.311 198.086C208.596 197.918 209.607 196.89 209.773 195.584L210.317 191.303Z" fill="#3A8AA2"/>
<path d="M346.384 249.999C346.384 249.999 297.676 208.104 291.652 206.346C285.627 204.589 262.401 197.62 260.576 192.141C258.751 186.662 260.654 181.22 267.438 181.469C273.193 181.68 285.229 188.171 286.285 186.683C289.073 182.752 273.913 148.303 272.848 140.256C271.613 130.916 280.926 129.446 284.208 134.468C288.835 141.55 292.755 150.896 292.755 150.896C292.755 150.896 300.004 149.691 302.415 152.981C302.415 152.981 308.96 151.355 313.028 156.098C313.028 156.098 318.299 156.019 321.418 159.655C324.537 163.292 328.914 192.141 328.914 192.141L405.483 249.999L369.751 249.999L346.384 249.999Z" fill="#FFBE97"/>
<path d="M300.955 170.365C300.993 170.448 301.076 170.501 301.167 170.501H301.168C301.203 170.501 301.237 170.493 301.268 170.478L301.738 170.254C301.853 170.199 301.903 170.061 301.849 169.945C300.589 167.215 293.277 150.857 293.203 150.691C293.178 150.634 293.131 150.59 293.072 150.568C293.014 150.546 292.949 150.548 292.892 150.574L292.42 150.793C292.304 150.846 292.252 150.983 292.304 151.1C292.378 151.264 299.692 167.628 300.955 170.365Z" fill="#4F2B2B" stroke="#4F2B2B" stroke-width="0.466942" stroke-linejoin="round"/>
<path d="M309.458 168.154C309.498 168.231 309.578 168.279 309.665 168.279H309.665C309.704 168.279 309.742 168.27 309.777 168.251L310.234 168.003C310.346 167.942 310.389 167.802 310.329 167.689C309.732 166.552 303.773 154.596 302.951 152.945C302.894 152.831 302.862 152.767 302.857 152.757C302.829 152.702 302.78 152.659 302.721 152.64C302.661 152.621 302.597 152.626 302.541 152.654L302.079 152.893C301.965 152.951 301.92 153.09 301.976 153.204C302.043 153.339 308.814 166.928 309.458 168.154Z" fill="#4F2B2B" stroke="#4F2B2B" stroke-width="0.466942" stroke-linejoin="round"/>
<path d="M319.484 168.466C319.507 168.546 319.571 168.607 319.651 168.627C319.697 168.638 319.745 168.636 319.788 168.62L320.273 168.473C320.396 168.435 320.466 168.306 320.429 168.183C320.377 168.005 320.227 167.684 320.022 167.28C319.812 166.868 319.532 166.348 319.208 165.76C318.559 164.583 317.725 163.126 316.895 161.695C315.234 158.832 313.585 156.067 313.451 155.841C313.418 155.788 313.366 155.749 313.306 155.734C313.245 155.72 313.181 155.73 313.127 155.762L312.684 156.036C312.575 156.103 312.541 156.245 312.606 156.354C313.739 158.253 315.395 161.06 316.802 163.508C317.505 164.732 318.146 165.866 318.627 166.751C318.868 167.194 319.068 167.573 319.217 167.87C319.368 168.173 319.457 168.373 319.484 168.466Z" fill="#4F2B2B" stroke="#4F2B2B" stroke-width="0.466942" stroke-linejoin="round"/>
<path d="M240.762 103.061C242.375 103.929 244.216 104.502 246.182 104.739C248.704 105.043 251.396 104.8 253.964 104.034C258.256 102.755 262.513 100.126 267.365 95.7368C272.081 91.471 276.606 86.451 279.778 81.9684L279.915 81.7749L280.107 81.9148L280.528 82.2226L280.713 82.3583L280.581 82.546C277.364 87.0905 272.788 92.1662 268.023 96.4768L267.873 96.3102L268.023 96.4768C263.082 100.948 258.702 103.659 254.244 104.988L254.178 104.768L254.244 104.988C251.551 105.79 248.724 106.046 246.066 105.727L246.094 105.495L246.066 105.727C243.929 105.469 241.925 104.836 240.17 103.869C240.022 104.06 239.871 104.247 239.715 104.432C236.89 107.796 232.823 110.427 227.644 112.262C223.22 113.829 218.506 114.614 213.751 114.614H213.605L213.604 114.612C209.288 114.597 204.94 113.936 200.745 112.627L200.524 112.558L200.591 112.337L200.743 111.833L200.812 111.607L201.036 111.678C209.703 114.383 219.037 114.255 227.316 111.322L227.394 111.542L227.316 111.322C232.349 109.539 236.263 107.001 238.963 103.787L238.963 103.787C239.082 103.646 239.199 103.502 239.313 103.357C239.027 103.171 238.748 102.977 238.478 102.773L238.478 102.773C235.627 100.619 233.62 97.3505 232.969 93.803L233.199 93.7608L232.969 93.8029C232.492 91.2039 233.281 88.1654 234.912 86.4012C235.967 85.2589 237.285 84.7352 238.716 84.9137L240.762 103.061ZM240.762 103.061C241.857 101.482 242.705 99.7389 243.245 97.9434L243.032 97.8791L243.245 97.9434C243.99 95.4695 244.131 92.9293 243.648 90.5976C243.365 89.2329 242.79 87.9361 242.022 86.9459L241.853 87.0774L242.022 86.9459C241.121 85.7832 239.979 85.0709 238.716 84.9137L240.762 103.061ZM234.096 90.0773L234.096 90.0772C234.404 88.877 234.953 87.8134 235.632 87.0782C236.374 86.2761 237.246 85.8733 238.179 85.8733H238.18C238.316 85.8733 238.455 85.8821 238.595 85.8994C239.573 86.0214 240.491 86.5838 241.246 87.5572L241.246 87.5572C241.916 88.4217 242.429 89.5734 242.683 90.7998C243.131 92.9617 243.001 95.3318 242.302 97.6533L242.302 97.6534C241.785 99.3732 240.966 101.045 239.906 102.559C239.618 102.375 239.339 102.181 239.069 101.977C236.416 99.9726 234.544 96.9263 233.938 93.6217C233.737 92.5239 233.791 91.2641 234.096 90.0773Z" fill="#4F2B2B" stroke="#4F2B2B" stroke-width="0.466942"/>
<path d="M65 250L125.952 183.3C125.952 183.3 146.012 147.432 148.763 145.365C152.68 142.422 179.11 135.304 182.291 137.793C185.473 140.281 188.315 145.277 188.315 145.277C188.315 145.277 199.559 163.708 199.232 168.6C198.904 173.493 194.204 172.324 191.85 171.144C191.85 171.144 188.18 182.79 184.784 184.359C181.389 185.928 179.8 185.086 179.8 185.086C179.8 185.086 175.568 192.822 171.934 193.676C168.3 194.53 166.848 193.703 166.848 193.703C166.848 193.703 163.666 198.65 161.523 200.45C157.53 203.806 146.549 209.993 146.549 209.993L119.722 250H110.431H90.0127H65Z" fill="#FFBE97"/>
<path d="M179.673 185.566C179.754 185.587 179.841 185.564 179.9 185.504L179.9 185.503C179.929 185.475 179.949 185.439 179.959 185.4L180.096 184.891C180.129 184.768 180.057 184.642 179.935 184.606C179.936 184.607 179.936 184.607 179.936 184.607C179.936 184.607 179.531 184.477 179.159 183.815L179.159 183.815C178.821 183.212 178.655 182.427 178.599 181.598C178.543 180.773 178.596 179.923 178.68 179.204L178.68 179.204C178.802 178.153 179.314 176.121 179.804 174.327C180.273 172.614 180.714 171.14 180.758 170.994C180.76 170.988 180.761 170.984 180.762 170.983C180.798 170.86 180.729 170.731 180.607 170.693L180.111 170.539C180.052 170.52 179.987 170.526 179.932 170.555C179.877 170.585 179.836 170.635 179.818 170.694C179.78 170.821 179.316 172.363 178.829 174.15C178.344 175.929 177.83 177.972 177.701 179.089C177.378 181.87 177.803 183.476 178.355 184.4C178.911 185.328 179.578 185.54 179.673 185.566Z" fill="#4F2B2B" stroke="#4F2B2B" stroke-width="0.466942" stroke-linejoin="round"/>
<path d="M161.245 160.127C162.619 160.642 164.265 161.411 165.438 162.441C165.461 162.464 165.489 162.482 165.521 162.494C165.613 162.528 165.716 162.501 165.78 162.426L166.119 162.028C166.202 161.931 166.192 161.785 166.096 161.701C164.809 160.567 163.073 159.75 161.651 159.213C160.224 158.674 159.091 158.409 158.994 158.387C158.934 158.373 158.87 158.384 158.817 158.417C158.765 158.451 158.728 158.503 158.714 158.564L158.6 159.078C158.587 159.139 158.598 159.202 158.631 159.254C158.665 159.307 158.718 159.344 158.778 159.357C158.778 159.357 158.779 159.357 158.779 159.357C158.782 159.358 158.799 159.362 158.83 159.369C158.863 159.377 158.912 159.389 158.975 159.406C159.1 159.438 159.279 159.486 159.501 159.55C159.945 159.678 160.558 159.87 161.245 160.127Z" fill="#4F2B2B" stroke="#4F2B2B" stroke-width="0.466942" stroke-linejoin="round"/>
<path d="M145.276 123.754C146.879 122.216 149.406 122.295 150.912 123.93L202.722 180.177L199.473 183.684L145.221 129.581C143.611 127.974 143.635 125.329 145.276 123.754V123.754Z" fill="#DF8711"/>
<path d="M199.822 183.305C199.822 183.305 200.33 185.437 201.65 186.469C202.97 187.501 208.246 188.905 210.02 191.681C211.792 194.456 208.056 182.482 202.278 180.655L199.823 183.305H199.822Z" fill="#FBE4C6"/>
<path d="M199.476 183.684L202.725 180.177L195.131 171.933L191.479 175.708L199.476 183.684Z" fill="#4F2B2B"/>
<path d="M156.621 166.955C157.98 165.123 166.492 161.694 166.492 161.694C166.492 161.694 184.565 146.171 188.019 144.776C191.474 143.381 196.302 146.109 195.661 150.845C195.02 155.58 177.78 173.604 176.849 175.12C175.918 176.636 166.85 193.702 166.85 193.702C166.85 193.702 148.286 178.192 156.621 166.955Z" fill="#FFBE97"/>
<path d="M160.559 164.607C160.562 164.62 160.566 164.632 160.572 164.645C160.621 164.758 160.75 164.813 160.866 164.771L160.867 164.77C160.977 164.73 162.184 164.288 163.497 163.744C164.156 163.471 164.844 163.172 165.433 162.884C166.016 162.6 166.525 162.317 166.809 162.074L166.809 162.074L167.126 161.802C169.777 159.521 174.27 155.694 178.495 152.276C180.607 150.568 182.651 148.963 184.362 147.705C186.083 146.442 187.444 145.547 188.203 145.238C188.321 145.189 188.379 145.055 188.332 144.936L188.139 144.447C188.116 144.389 188.071 144.342 188.014 144.318C187.956 144.293 187.891 144.292 187.834 144.316C187.046 144.637 185.716 145.489 183.874 146.837C182.024 148.191 179.637 150.06 176.728 152.434L176.876 152.615L176.728 152.434C173.711 154.898 170.265 157.795 166.487 161.045C166.443 161.083 166.403 161.118 166.367 161.149C166.278 161.225 166.213 161.281 166.173 161.315L166.172 161.315C165.958 161.499 165.51 161.749 164.93 162.028C164.359 162.302 163.684 162.593 163.035 162.86C161.766 163.382 160.605 163.809 160.534 163.835L160.531 163.836C160.411 163.88 160.349 164.012 160.391 164.133L160.559 164.607Z" fill="#4F2B2B" stroke="#4F2B2B" stroke-width="0.466942" stroke-linejoin="round"/>
<path d="M167.072 194.068C167.03 194.068 166.989 194.057 166.953 194.035L166.505 193.771C166.395 193.707 166.357 193.566 166.42 193.455L166.423 193.449C166.529 193.263 168.764 189.336 171.118 185.049C172.312 182.874 173.536 180.608 174.529 178.691C175.525 176.768 176.279 175.213 176.541 174.452L176.542 174.451L176.559 174.402C176.569 174.374 176.584 174.348 176.604 174.325L176.638 174.286L167.072 194.068ZM167.072 194.068H167.073C167.157 194.068 167.234 194.023 167.276 193.95C167.46 193.626 169.71 189.674 172.06 185.392C173.235 183.251 174.435 181.027 175.415 179.132C176.376 177.275 177.132 175.72 177.44 174.872C178.376 173.802 189.452 161.117 194.11 155.083C194.188 154.982 194.171 154.837 194.071 154.758L193.663 154.432C193.614 154.393 193.552 154.376 193.489 154.383M167.072 194.068L193.489 154.383M193.489 154.383C193.427 154.391 193.371 154.423 193.333 154.472M193.489 154.383L193.333 154.472M193.333 154.472C188.513 160.715 176.765 174.141 176.638 174.286L193.333 154.472Z" fill="#4F2B2B" stroke="#4F2B2B" stroke-width="0.466942" stroke-linejoin="round"/>
</g>
</svg>
