<svg width="700" height="400" viewBox="0 0 700 400" fill="none" xmlns="http://www.w3.org/2000/svg">
<mask id="mask0_580_17590" style="mask-type:alpha" maskUnits="userSpaceOnUse" x="0" y="0" width="700" height="400">
<rect width="700" height="400" transform="matrix(-1 0 0 1 700 0)" fill="white"/>
</mask>
<g mask="url(#mask0_580_17590)">
<path d="M49.534 193.215C50.5054 193.861 51.7423 193.79 52.6279 193.131L94.2563 239.537C94.1593 239.641 94.0681 239.754 93.986 239.875C93.1641 241.115 93.5016 242.785 94.7397 243.608C95.9778 244.431 97.6493 244.093 98.4727 242.854C98.604 242.656 98.7034 242.447 98.777 242.232L132.455 250.305C132.313 251.302 132.734 252.337 133.629 252.93C134.867 253.754 136.539 253.415 137.362 252.177C137.725 251.628 137.861 250.996 137.795 250.389L175.053 242.716C175.23 243.293 175.598 243.815 176.14 244.176C176.728 244.566 177.411 244.691 178.055 244.589L200.445 331.654C199.917 331.841 199.443 332.195 199.108 332.696C198.285 333.934 198.623 335.606 199.862 336.429C201.1 337.253 202.771 336.914 203.595 335.676C203.833 335.314 203.971 334.917 204.02 334.516L312.652 337.79C312.021 338.996 312.392 340.509 313.55 341.279C314.788 342.102 316.46 341.764 317.283 340.525C317.358 340.412 317.42 340.296 317.475 340.176L355.082 353.682C354.804 354.763 355.217 355.946 356.198 356.597C356.692 356.925 357.254 357.065 357.805 357.041L364.641 407.119L363.996 406.9L364.709 407.602L364.75 407.904L364.911 407.8L425.943 467.926C425.888 467.995 425.834 468.066 425.783 468.141C424.96 469.379 425.299 471.051 426.537 471.874C427.775 472.697 429.447 472.359 430.27 471.12C431.093 469.882 430.754 468.211 429.516 467.387C429.056 467.081 428.534 466.937 428.019 466.94L424.355 428.607C424.4 428.551 424.444 428.493 424.486 428.43C424.692 428.122 424.823 427.785 424.889 427.441L489.94 433.63C489.939 434.505 490.36 435.36 491.143 435.88C492.381 436.704 494.052 436.365 494.876 435.127C495.699 433.889 495.36 432.217 494.122 431.394C493.633 431.068 493.073 430.927 492.528 430.95L486.585 386.028C487.234 385.88 487.833 385.495 488.231 384.894C488.766 384.089 488.807 383.103 488.436 382.286L516.421 366.22C516.608 366.487 516.845 366.725 517.132 366.915C518.371 367.738 520.042 367.399 520.865 366.161C521.689 364.923 521.35 363.252 520.112 362.428C519.359 361.93 518.449 361.86 517.664 362.157L501.905 330.038C502.231 329.841 502.52 329.572 502.746 329.232C503.484 328.12 503.286 326.662 502.342 325.778L526.031 297.854C527.268 298.654 528.92 298.313 529.737 297.083C530.56 295.845 530.221 294.173 528.983 293.35C528.767 293.207 528.538 293.1 528.301 293.026L533.35 266.042C534.304 266.13 535.275 265.705 535.841 264.85C535.989 264.628 536.097 264.391 536.17 264.149L577.03 272.65C576.922 273.621 577.344 274.618 578.215 275.195C579.453 276.018 581.124 275.679 581.948 274.441C582.771 273.203 582.432 271.532 581.194 270.708C581.103 270.648 581.01 270.597 580.915 270.548L603.413 213.251C604.513 213.57 605.739 213.157 606.405 212.154C607.228 210.916 606.889 209.244 605.651 208.421C604.413 207.598 602.742 207.936 601.918 209.175C601.683 209.528 601.546 209.918 601.495 210.312L511.468 206.789C511.384 206.023 510.974 205.299 510.282 204.84C509.044 204.016 507.373 204.355 506.549 205.593C505.726 206.832 506.065 208.503 507.303 209.326C507.426 209.407 507.555 209.474 507.686 209.535L499.03 240.019C497.983 239.799 496.858 240.216 496.231 241.162C496.027 241.469 495.895 241.804 495.829 242.145L421.061 237.203C421.038 236.357 420.618 235.535 419.861 235.03C418.622 234.207 416.951 234.546 416.127 235.784C415.304 237.022 415.643 238.693 416.881 239.517C417.165 239.706 417.474 239.83 417.786 239.9L413.433 274.284C412.532 274.253 411.635 274.675 411.1 275.484L411.222 275.268L334.465 231.976C334.995 230.795 334.612 229.373 333.5 228.634C332.926 228.253 332.26 228.125 331.628 228.215L323.059 192.379C323.604 192.194 324.095 191.838 324.437 191.32C325.259 190.08 324.921 188.411 323.683 187.587C322.445 186.764 320.773 187.103 319.95 188.341C319.629 188.823 319.486 189.373 319.505 189.912L264.273 196.715C264.129 196.054 263.742 195.449 263.134 195.045C261.896 194.222 260.225 194.561 259.401 195.799C259.059 196.315 258.919 196.905 258.963 197.478L225.339 203.005C225.178 202.386 224.799 201.823 224.226 201.441C222.988 200.618 221.316 200.957 220.493 202.195C220.405 202.326 220.335 202.463 220.273 202.601L160.643 183.976C160.842 182.941 160.419 181.844 159.488 181.225C158.786 180.76 157.946 180.666 157.199 180.898L140.036 141.608C140.421 141.405 140.763 141.104 141.023 140.716C141.846 139.478 141.507 137.807 140.269 136.983C139.029 136.161 137.36 136.499 136.536 137.737C136.531 137.747 136.526 137.757 136.519 137.764L105.967 125.354L89.8174 118.793C90.03 117.749 89.6128 116.633 88.6702 116.007C87.4321 115.183 85.7606 115.522 84.9372 116.76C84.2979 117.724 84.361 118.945 85.0012 119.829L59.1356 148.207C59.1055 148.185 59.0759 148.161 59.0423 148.138C57.8042 147.315 56.1327 147.654 55.3093 148.892C54.4859 150.13 54.8248 151.802 56.0629 152.625C56.357 152.82 56.6752 152.949 57.0008 153.015L51.2116 188.287C50.2771 188.222 49.3351 188.645 48.7804 189.482C47.957 190.721 48.296 192.392 49.534 193.215ZM87.1735 120.942C88.048 120.943 88.9038 120.523 89.4238 119.74C89.5238 119.588 89.605 119.431 89.6724 119.271L107.984 126.709L136.288 138.205C136.188 138.448 136.127 138.7 136.102 138.955L86.0544 145.924L87.1749 120.944L87.1735 120.942ZM262.825 199.708L276.037 221.456L246.474 241.905C246.312 241.712 246.121 241.535 245.901 241.389C245.797 241.319 245.688 241.263 245.577 241.209L260.945 199.889C261.577 200.06 262.246 199.992 262.825 199.708ZM320.134 191.559C320.296 191.752 320.486 191.929 320.707 192.075C320.837 192.16 320.967 192.229 321.103 192.289L299.565 256.058C298.957 255.914 298.319 255.987 297.765 256.257L276.705 221.595L320.132 191.557L320.134 191.559ZM481.401 386.238L473.911 355.337L484.722 381.03C484.341 381.233 484.005 381.532 483.746 381.916C483.17 382.784 483.166 383.861 483.637 384.712L481.401 386.238ZM490.39 432.149C490.186 432.46 490.053 432.795 489.987 433.139L424.937 426.946C424.937 426.488 424.821 426.035 424.597 425.633L481.085 387.057L491.759 431.097C491.218 431.282 490.73 431.638 490.388 432.151L490.39 432.149ZM203.579 332.667C203.406 332.415 203.188 332.191 202.929 332.003L225.488 293.677C226.676 294.238 228.128 293.859 228.877 292.73L252.59 305.472L203.579 332.667ZM59.0572 152.619C59.104 152.587 59.1529 152.552 59.1969 152.516L82.2316 183.649C82.0641 183.799 81.9128 183.969 81.7821 184.164C81.44 184.676 81.3024 185.264 81.341 185.835L73.5994 187.083L59.0572 152.619ZM126.704 227.784L135.038 235.942C134.983 236.007 134.932 236.077 134.883 236.15C134.579 236.609 134.435 237.126 134.434 237.636L125.801 238.422L86.5805 188.503L126.704 227.784ZM135.384 235.587L106.243 207.058L86.1142 187.352C86.1685 187.286 86.2201 187.217 86.2687 187.143C86.5407 186.734 86.6834 186.279 86.7108 185.82L137.655 184.283L136.917 234.954C136.359 234.999 135.821 235.214 135.385 235.584L135.384 235.587ZM81.4205 186.326C81.5802 186.948 81.9587 187.515 82.5357 187.897C83.0931 188.268 83.7389 188.402 84.3558 188.325L95.4121 238.782L73.7984 187.554L81.4225 186.324L81.4205 186.326ZM97.7205 239.123C97.163 238.752 96.5173 238.619 95.9004 238.695L84.8403 188.219C85.0655 188.147 85.2832 188.046 85.4843 187.917L125.208 238.476L98.875 240.876C98.7454 240.184 98.3515 239.543 97.7185 239.125L97.7205 239.123ZM98.9236 241.37L125.576 238.941L133.27 248.733C133.126 248.87 132.992 249.025 132.877 249.196C132.746 249.394 132.647 249.603 132.573 249.819L98.8949 241.745C98.9134 241.62 98.925 241.494 98.9242 241.367L98.9236 241.37ZM135.282 248.001C134.713 247.968 134.143 248.112 133.661 248.425L126.167 238.888L134.479 238.13C134.608 238.822 135.002 239.463 135.635 239.881C135.897 240.056 136.181 240.176 136.472 240.248L135.282 248.001ZM139.708 236.878L171.44 224.233L176.544 239.471C176.09 239.671 175.684 239.998 175.386 240.443C175.187 240.744 175.057 241.071 174.99 241.403L139.817 237.675C139.82 237.406 139.784 237.137 139.708 236.878ZM220.739 205.485C220.887 205.648 221.057 205.8 221.25 205.928C221.629 206.179 222.044 206.322 222.465 206.364L224.152 242.868L180.317 241.752C180.284 241.262 180.119 240.789 179.834 240.382L220.741 205.484L220.739 205.485ZM414.379 279.461L426.647 305.359C426.285 305.561 425.961 305.849 425.717 306.22C425.598 306.401 425.506 306.59 425.434 306.786L415.175 305.262L413.91 279.606C414.072 279.572 414.228 279.523 414.382 279.461L414.379 279.461ZM531.172 262.208C530.801 262.986 530.835 263.879 531.219 264.615L516.212 274.382L500.07 244.816C500.317 244.635 500.538 244.41 500.718 244.142L531.17 262.209L531.172 262.208ZM499.647 245.074L515.796 274.655L469.105 305.042C468.932 304.826 468.726 304.631 468.483 304.47C468.456 304.453 468.426 304.437 468.399 304.42L497.557 245.18C498.249 245.43 499.001 245.383 499.645 245.075L499.647 245.074ZM228.127 288.998C228.023 288.928 227.917 288.872 227.807 288.818L243.709 246.229C244.448 246.431 245.239 246.304 245.878 245.89L266.698 272.305L228.961 289.886C228.759 289.541 228.481 289.235 228.127 288.998ZM246.268 245.581C246.412 245.444 246.542 245.292 246.659 245.12C246.777 244.942 246.867 244.755 246.939 244.562L296.401 257.816C296.323 258.05 296.277 258.288 296.265 258.527L267.164 272.085L246.27 245.579L246.268 245.581ZM296.288 259.066C296.34 259.409 296.454 259.742 296.632 260.043L283.263 285.126L281.969 287.556C281.155 287.212 280.237 287.297 279.504 287.749L267.474 272.49L296.284 259.069L296.288 259.066ZM282.414 287.793C282.414 287.793 282.413 287.791 282.411 287.789L283.7 285.369L296.962 260.485C297.107 260.644 297.274 260.791 297.463 260.917C297.774 261.124 298.113 261.257 298.457 261.323L303.257 284.154L283.453 289.108C283.263 288.589 282.913 288.12 282.416 287.792L282.414 287.793ZM229.17 290.337L267.015 272.705L279.11 288.049C278.95 288.194 278.805 288.36 278.681 288.547C278.423 288.937 278.279 289.368 278.242 289.804L229.311 290.933C229.288 290.731 229.24 290.531 229.17 290.337ZM313.722 336.692L282.697 292.059C282.872 291.906 283.032 291.727 283.168 291.526C283.562 290.932 283.687 290.24 283.577 289.589L303.357 284.643L314.253 336.462C314.068 336.519 313.892 336.597 313.723 336.694L313.722 336.692ZM303.839 284.521L326.853 278.763C327.05 279.241 327.386 279.664 327.85 279.971C328.031 280.09 328.221 280.185 328.416 280.255L320.518 314.326L315.409 336.366C315.184 336.336 314.96 336.332 314.739 336.359L303.839 284.521ZM421.388 424.388L411.612 401.681L405.571 387.645C405.945 387.441 406.275 387.149 406.527 386.769C407.023 386.025 407.094 385.125 406.806 384.346L418.825 378.589L421.781 424.285C421.646 424.31 421.515 424.344 421.386 424.385L421.388 424.388ZM393.512 304.563L415.256 341.619C415 341.804 414.767 342.034 414.584 342.314C414.265 342.795 414.122 343.341 414.138 343.88L398.999 346.62L393 304.742C393.177 304.7 393.35 304.639 393.515 304.563L393.512 304.563ZM414.196 344.373C414.34 345.034 414.727 345.643 415.337 346.047C415.491 346.149 415.649 346.233 415.814 346.299L404.824 382.642C404.602 382.597 404.376 382.582 404.153 382.593L399.07 347.111L414.198 344.372L414.196 344.373ZM406.593 383.898C406.393 383.565 406.12 383.267 405.774 383.036C405.622 382.936 405.462 382.851 405.3 382.785L409.231 369.806L416.306 346.446C416.454 346.476 416.603 346.49 416.752 346.495L418.793 378.056L406.592 383.901L406.593 383.898ZM417.247 346.461C417.965 346.346 418.636 345.947 419.07 345.294C419.246 345.028 419.365 344.744 419.438 344.454L470.258 352.226C470.237 352.599 470.293 352.969 470.422 353.318L419.277 377.82L417.249 346.459L417.247 346.461ZM470.699 350.897C470.524 351.162 470.404 351.447 470.331 351.737L419.512 343.965C419.545 343.423 419.41 342.88 419.128 342.412L444.021 324.008L470.865 350.675C470.806 350.746 470.752 350.821 470.7 350.899L470.699 350.897ZM418.833 342.012C418.682 341.845 418.511 341.691 418.317 341.561C418.258 341.52 418.196 341.488 418.136 341.454L427.293 310.312C428.128 310.525 429.023 310.326 429.689 309.772L443.664 323.655L418.833 342.012ZM426.473 309.951C426.586 310.027 426.706 310.089 426.824 310.146L417.676 341.253C417.435 341.173 417.19 341.13 416.942 341.118L415.198 305.768L425.304 307.268C425.136 308.281 425.558 309.348 426.469 309.951L426.473 309.951ZM416.446 341.143C416.231 341.173 416.017 341.228 415.814 341.31L393.948 304.306C394.202 304.122 394.43 303.893 394.614 303.615C394.792 303.348 394.912 303.06 394.984 302.764L414.698 305.691L416.445 341.141L416.446 341.143ZM331.581 279.219C331.603 279.185 331.621 279.151 331.642 279.115L366.053 292.305L389.775 301.398C389.621 301.949 389.651 302.529 389.844 303.055L346.546 323.722L330.337 280.229C330.828 280.034 331.267 279.693 331.581 279.219ZM391.094 304.499C391.539 304.739 392.024 304.839 392.502 304.815L398.505 346.711L360.287 353.631C360.141 353.105 359.835 352.621 359.385 352.256L391.094 304.499ZM360.378 354.12L398.577 347.204L403.658 382.666C403.093 382.801 402.572 383.114 402.188 383.592L360.067 355.627C360.324 355.153 360.424 354.628 360.378 354.12ZM402.794 387.526C403.506 387.998 404.36 388.086 405.115 387.843L409.519 398.075L420.931 424.589C420.836 424.644 420.741 424.704 420.651 424.77L390.836 391.244L401.801 384.24C401.309 385.41 401.698 386.797 402.794 387.526ZM423.5 424.553C423.112 424.349 422.694 424.25 422.277 424.244L419.309 378.356L470.634 353.768C470.788 354.027 470.986 354.262 471.227 354.463L423.5 424.553ZM471.214 350.324L444.422 323.71L464.987 308.505C465.138 308.673 465.309 308.826 465.504 308.957C465.992 309.282 466.549 309.423 467.092 309.401L472.348 349.763C471.937 349.857 471.547 350.045 471.214 350.324ZM464.692 308.105L444.066 323.354L430.04 309.42C430.099 309.349 430.153 309.274 430.204 309.196C430.474 308.792 430.616 308.34 430.646 307.885L464.322 307.026C464.365 307.405 464.492 307.772 464.692 308.102L464.692 308.105ZM413.413 279.663L414.672 305.186L395.056 302.274C395.096 301.529 394.829 300.788 394.29 300.239L411.997 279.301C412.441 279.558 412.931 279.676 413.411 279.665L413.413 279.663ZM411.591 279.012L393.909 299.921C393.892 299.909 393.876 299.895 393.859 299.883C392.621 299.06 390.949 299.399 390.126 300.637C390.062 300.733 390.005 300.833 389.955 300.935L336.893 280.594L331.859 278.666C331.923 278.494 331.968 278.316 331.996 278.139L410.686 277.376C410.781 277.998 411.088 278.584 411.591 279.015L411.591 279.012ZM326.705 278.288L303.736 284.031L298.969 261.365C299.791 261.357 300.593 260.971 301.113 260.267L326.849 276.699C326.637 277.212 326.595 277.763 326.705 278.284L326.705 278.288ZM242.922 245.873C243.026 245.943 243.132 245.999 243.242 246.052L227.34 288.642C227.149 288.59 226.954 288.559 226.761 288.552L224.674 243.376L241.729 243.809C241.785 244.617 242.199 245.39 242.926 245.873L242.922 245.873ZM179.875 243.418C180.118 243.054 180.255 242.651 180.303 242.244L224.174 243.359L226.263 288.573C225.776 288.641 225.309 288.84 224.921 289.161L179.698 243.654C179.761 243.58 179.821 243.501 179.875 243.418ZM229.113 292.288C229.231 292.009 229.3 291.718 229.319 291.425L278.24 290.297C278.268 290.578 278.342 290.854 278.456 291.117L253.106 305.183L229.111 292.29L229.113 292.288ZM278.699 291.55C278.889 291.83 279.135 292.077 279.433 292.278C280.323 292.868 281.433 292.859 282.294 292.35L313.313 336.975C313.183 337.084 313.062 337.206 312.952 337.343L253.629 305.466L278.7 291.556L278.699 291.55ZM316.536 336.788C316.331 336.652 316.115 336.552 315.894 336.479L328.897 280.382C329.219 280.435 329.547 280.431 329.861 280.368L346.098 323.936L317.358 337.654C317.158 337.317 316.884 337.021 316.536 336.788ZM346.721 324.189L390.057 303.504C390.217 303.771 390.422 304.016 390.679 304.222L358.97 351.979C358.346 351.643 357.64 351.579 356.991 351.754L346.719 324.19L346.721 324.189ZM359.791 356.039L401.583 383.786L390.5 390.863L359.66 356.185C359.706 356.138 359.748 356.09 359.791 356.039ZM420.281 425.099C420.18 425.206 420.086 425.32 420.002 425.446C419.917 425.572 419.849 425.705 419.788 425.839L365.519 407.411L390.411 391.511L420.279 425.097L420.281 425.099ZM424.32 425.217C424.226 425.104 424.12 424.996 424.006 424.897L423.989 424.718L471.639 354.74C472.17 355.035 472.764 355.129 473.332 355.047L480.965 386.534L424.324 425.218L424.32 425.217ZM516.178 365.786L488.193 381.853C488.006 381.586 487.769 381.348 487.482 381.158C487.298 381.035 487.104 380.943 486.904 380.87L492.834 357.991L515.971 364.211C515.878 364.746 515.953 365.295 516.177 365.784L516.178 365.786ZM486.423 380.746C486.005 380.678 485.578 380.71 485.181 380.836L474.21 354.763C474.59 354.56 474.927 354.261 475.186 353.876C475.304 353.699 475.395 353.512 475.465 353.322L492.355 357.862L486.423 380.746ZM475.594 352.844C475.719 352.119 475.542 351.372 475.1 350.781L498.592 329.636C498.718 329.764 498.861 329.882 499.016 329.986C499.176 330.093 499.345 330.178 499.516 330.245L492.482 357.385L475.596 352.846L475.594 352.844ZM498.276 329.25L477.951 347.546L498.02 326.705C497.668 327.549 497.775 328.509 498.276 329.25ZM474.623 350.286C474.562 350.238 474.499 350.191 474.434 350.145C473.945 349.82 473.388 349.679 472.845 349.701L467.589 309.339C468.241 309.192 468.841 308.805 469.24 308.204C469.592 307.675 469.73 307.066 469.676 306.478L524.932 296.411C525.051 296.783 525.253 297.133 525.527 297.429L474.622 350.289L474.623 350.286ZM469.586 305.989C469.534 305.807 469.467 305.629 469.378 305.458L516.035 275.092L526.005 293.353C525.716 293.547 525.459 293.796 525.255 294.106C524.883 294.664 524.752 295.308 524.827 295.923L469.588 305.988L469.586 305.989ZM526.443 293.12L516.453 274.823L531.495 265.035C531.667 265.251 531.874 265.446 532.117 265.607C532.355 265.765 532.608 265.879 532.87 265.953L527.821 292.925C527.351 292.869 526.876 292.937 526.444 293.122L526.443 293.12ZM535.095 261.118C533.887 260.316 532.272 260.618 531.429 261.782L501.101 243.788L576.592 272.049L536.283 263.664C536.391 262.692 535.969 261.695 535.098 261.118L535.095 261.118ZM577.47 271.465C577.402 271.567 577.343 271.675 577.292 271.784L501.102 243.26C501.193 242.865 501.193 242.458 501.106 242.07L535.08 231.804L577.583 271.316C577.546 271.366 577.507 271.415 577.471 271.467L577.47 271.465ZM496.988 244.896C497.028 244.923 497.071 244.944 497.111 244.968L467.956 304.199C467.196 303.906 466.352 303.984 465.662 304.376L452.428 285.477L496.679 244.654C496.776 244.741 496.876 244.823 496.988 244.896ZM465.254 304.661C465.066 304.821 464.895 305.007 464.751 305.226C464.482 305.63 464.34 306.082 464.31 306.537L430.634 307.396C430.579 306.922 430.395 306.465 430.101 306.079L452.059 285.821L465.254 304.665L465.254 304.661ZM429.761 305.71C429.663 305.623 429.562 305.54 429.45 305.466C428.957 305.138 428.394 304.998 427.846 305.021L418.979 239.896C419.233 239.837 419.476 239.742 419.706 239.612L451.77 285.404L429.759 305.708L429.761 305.71ZM418.487 239.964L427.352 305.087C427.268 305.107 427.184 305.129 427.102 305.159L414.818 279.229C415.116 279.035 415.379 278.778 415.588 278.465C416.41 277.225 416.072 275.556 414.834 274.732C414.55 274.543 414.241 274.419 413.929 274.35L418.283 239.967C418.352 239.971 418.42 239.969 418.489 239.966L418.487 239.964ZM410.657 276.88L332.026 277.644C331.999 276.804 331.579 275.988 330.825 275.487C330.486 275.263 330.114 275.126 329.735 275.07L332.105 233.568C332.926 233.54 333.72 233.135 334.221 232.411L410.972 275.701C410.77 276.076 410.667 276.479 410.655 276.882L410.657 276.88ZM330.524 233.121C330.863 233.345 331.235 233.482 331.612 233.54L329.294 274.128L326.204 236.088L330.121 232.797C330.241 232.916 330.376 233.028 330.523 233.125L330.524 233.121ZM328.871 275.08C328.169 275.204 327.518 275.6 327.092 276.241C327.088 276.247 327.084 276.255 327.078 276.263L301.368 259.846C301.797 258.96 301.699 257.927 301.155 257.142L325.736 236.477L328.87 275.078L328.871 275.08ZM300.837 256.761C300.717 256.642 300.581 256.53 300.434 256.433C300.306 256.35 300.174 256.278 300.039 256.219L321.576 192.449C321.772 192.494 321.969 192.52 322.168 192.523L325.688 235.871L300.837 256.761ZM297.343 256.516C297.098 256.696 296.881 256.918 296.701 257.187C296.665 257.243 296.633 257.301 296.6 257.358L247.064 244.086C247.168 243.476 247.057 242.85 246.757 242.313L276.298 221.88L297.343 256.516ZM242.91 241.396C242.625 241.586 242.37 241.838 242.168 242.143C241.925 242.507 241.788 242.91 241.74 243.317L224.651 242.883L222.963 206.368C223.224 206.346 223.479 206.286 223.722 206.191L242.909 241.399L242.91 241.396ZM220.44 205.084L179.508 240.003C179.391 239.888 179.262 239.781 179.121 239.688C178.475 239.26 177.715 239.149 177.017 239.314L171.903 224.049L220.276 204.771C220.325 204.88 220.379 204.984 220.442 205.086L220.44 205.084ZM171.281 223.759L139.524 236.415C139.319 236.015 139.016 235.66 138.615 235.395C138.519 235.331 138.421 235.278 138.321 235.227L153.464 195.952L157.277 186.059C157.733 186.186 158.21 186.186 158.656 186.074L171.28 223.757L171.281 223.759ZM156.509 185.712C156.606 185.777 156.709 185.832 156.814 185.883L137.859 235.047C137.711 235.005 137.564 234.977 137.413 234.961L138.152 184.269L155.321 183.751C155.403 184.522 155.813 185.252 156.509 185.712ZM137.662 183.786L86.6947 185.325C86.6398 184.887 86.4785 184.465 86.2184 184.098L136.632 140.847C136.81 141.084 137.028 141.295 137.288 141.468C137.595 141.672 137.931 141.804 138.271 141.87L137.659 183.785L137.662 183.786ZM136.099 139.457C136.129 139.791 136.22 140.119 136.37 140.421L85.8974 183.722C85.7817 183.609 85.6538 183.504 85.5145 183.414C85.1644 183.182 84.7833 183.046 84.3931 182.991L86.0329 146.431L136.1 139.459L136.099 139.457ZM83.896 182.966C83.4496 182.987 83.016 183.118 82.6304 183.351L59.5622 152.175C59.6469 152.079 59.7267 151.981 59.7994 151.872C60.1761 151.305 60.308 150.648 60.2219 150.023L85.5303 146.498L83.896 182.966ZM58.6157 152.856L73.0909 187.163L53.6286 190.3C53.4689 189.677 53.0904 189.111 52.5134 188.729C52.2578 188.559 51.9841 188.441 51.7024 188.368L57.4959 153.072C57.8802 153.079 58.2606 153.007 58.6157 152.856ZM52.9969 192.8C53.0938 192.695 53.185 192.583 53.267 192.462C53.6091 191.949 53.7467 191.361 53.7081 190.79L73.2899 187.634L94.9575 238.991C94.8431 239.053 94.7303 239.126 94.6252 239.206L52.9969 192.8ZM137.696 249.901C137.519 249.323 137.15 248.802 136.609 248.44C136.347 248.265 136.063 248.146 135.772 248.073L136.963 240.321C137.888 240.377 138.818 239.953 139.367 239.126C139.566 238.825 139.695 238.498 139.763 238.165L174.936 241.894C174.934 242.004 174.939 242.115 174.95 242.226L137.692 249.9L137.696 249.901ZM178.536 244.461C178.826 244.359 179.099 244.207 179.343 244.006L224.566 289.513C224.503 289.587 224.443 289.666 224.389 289.749C223.585 290.958 223.891 292.58 225.06 293.421L202.501 331.747C201.998 331.51 201.452 331.441 200.928 331.525L178.538 244.46L178.536 244.461ZM204.039 334.014C204.02 333.7 203.944 333.388 203.817 333.098L253.108 305.749L311.751 337.262L204.037 334.015L204.039 334.014ZM317.648 339.703C317.787 339.168 317.753 338.609 317.568 338.102L346.268 324.403L356.524 351.926C356.102 352.131 355.726 352.443 355.448 352.861C355.373 352.975 355.312 353.091 355.256 353.211L317.649 339.705L317.648 339.703ZM358.301 356.97C358.653 356.887 358.989 356.734 359.286 356.517L390.072 391.136L365.138 407.062L358.299 356.971L358.301 356.97ZM427.524 466.983C427.077 467.068 426.65 467.267 426.293 467.569L365.895 408.065L419.628 426.308C419.374 427.376 419.789 428.536 420.755 429.179C421.748 429.838 423.012 429.75 423.902 429.057L427.528 466.983L427.524 466.983ZM491.773 429.036L481.524 386.753L483.914 385.122C484.078 385.32 484.273 385.499 484.498 385.647C484.987 385.973 485.547 386.114 486.094 386.093L491.774 429.038L491.773 429.036ZM517.218 362.373C516.892 362.571 516.601 362.841 516.377 363.18C516.259 363.357 516.171 363.543 516.098 363.734L492.956 357.511L499.988 330.382C500.484 330.479 500.992 330.429 501.459 330.254L517.218 362.373ZM501.949 325.471C501.148 324.961 500.176 324.925 499.369 325.299L522.261 301.528L501.951 325.47L501.949 325.471ZM580.455 270.364C579.569 270.108 578.606 270.327 577.913 270.945L535.623 231.633L601.664 211.677C601.861 212.161 602.201 212.594 602.668 212.907C602.759 212.968 602.854 213.02 602.947 213.067L580.453 270.365L580.455 270.364ZM601.475 210.808C601.482 210.94 601.496 211.072 601.523 211.202L535.205 231.24L510.948 208.689C510.978 208.65 511.008 208.611 511.036 208.569C511.301 208.172 511.443 207.729 511.477 207.283L601.475 210.808ZM508.153 209.696C509.021 209.908 509.947 209.675 510.613 209.06L534.651 231.407L500.946 241.59C500.747 241.123 500.415 240.706 499.961 240.405C499.814 240.307 499.661 240.227 499.503 240.161L508.153 209.696ZM495.78 242.637C495.778 243.228 495.97 243.81 496.336 244.285L452.134 285.061L420.108 239.324C420.297 239.164 420.467 238.978 420.611 238.759C420.831 238.427 420.966 238.065 421.026 237.695L495.779 242.635L495.78 242.637ZM329.766 229.386C329.138 230.332 329.188 231.529 329.798 232.41L326.152 235.476L322.705 193.03L331.144 228.329C330.599 228.514 330.108 228.87 329.765 229.389L329.766 229.386ZM319.567 190.403C319.624 190.663 319.719 190.915 319.851 191.147L276.447 221.169L263.249 199.448C263.493 199.267 263.713 199.044 263.89 198.777C264.211 198.295 264.354 197.745 264.335 197.206L319.567 190.403ZM259.042 197.969C259.202 198.588 259.582 199.151 260.155 199.532C260.259 199.602 260.368 199.659 260.478 199.712L245.111 241.032C244.519 240.873 243.898 240.922 243.345 241.158L224.164 205.964C224.479 205.768 224.761 205.503 224.978 205.172C225.321 204.656 225.46 204.067 225.417 203.493L259.041 197.967L259.042 197.969ZM220.115 203.072C220.02 203.479 220.023 203.899 220.117 204.297L171.744 223.575L159.128 185.911C159.566 185.71 159.958 185.39 160.244 184.956C160.351 184.793 160.437 184.627 160.506 184.451L220.119 203.07L220.115 203.072ZM156.739 181.086C156.353 181.29 156.011 181.59 155.752 181.978C155.489 182.374 155.346 182.811 155.312 183.253L138.158 183.77L138.77 141.915C139.043 141.915 139.316 141.875 139.574 141.794L156.739 181.086ZM85.3311 120.205C85.4411 120.31 85.5599 120.406 85.6908 120.493C85.999 120.699 86.3344 120.832 86.678 120.898L85.5532 145.993L60.1094 149.537C59.9886 149.169 59.787 148.825 59.5114 148.535L85.3326 120.207L85.3311 120.205Z" fill="#4F2B2B"/>
<path d="M443.619 72.469C442.072 68.3886 438.127 65.4863 433.504 65.4863H123.817C119.195 65.4863 115.25 68.3886 113.703 72.469C113.25 73.6616 113 74.9522 113 76.3032V280.63C113 286.604 117.843 291.447 123.817 291.447H433.504C439.478 291.447 444.321 286.604 444.321 280.63V76.3032C444.321 74.9522 444.071 73.6616 443.619 72.469Z" fill="#2B6577"/>
<path d="M433.506 65.4863H123.818C119.196 65.4863 115.251 68.3886 113.704 72.469H443.62C442.073 68.3886 438.128 65.4863 433.506 65.4863Z" fill="#3F97B1"/>
<path d="M113 250.824V280.629C113 286.603 117.843 291.446 123.817 291.446H433.504C439.478 291.446 444.321 286.603 444.321 280.629V250.824H113Z" fill="#3F97B1"/>
<path d="M416.538 91.2188H141.23C138.145 91.2188 135.645 93.7195 135.645 96.8044V226.174C135.645 229.259 138.145 231.759 141.23 231.759H416.538C419.623 231.759 422.124 229.259 422.124 226.174V96.8044C422.124 93.7195 419.623 91.2188 416.538 91.2188Z" fill="#D8F5FD"/>
<path d="M279.743 119.521H382.67" stroke="#F7FDFE" stroke-width="4" stroke-linecap="round"/>
<path d="M280.772 139.592L403.256 138.536" stroke="#F7FDFE" stroke-width="4" stroke-linecap="round"/>
<path d="M280.772 159.174L403.256 158.118" stroke="#F7FDFE" stroke-width="4" stroke-linecap="round"/>
<path d="M152.113 177.676L404.285 177.676" stroke="#F7FDFE" stroke-width="4" stroke-linecap="round"/>
<path d="M152.113 195.172L404.285 195.172" stroke="#F7FDFE" stroke-width="4" stroke-linecap="round"/>
<path d="M153.143 213.699L405.314 213.699" stroke="#F7FDFE" stroke-width="4" stroke-linecap="round"/>
<rect x="151.084" y="110.773" width="120.425" height="55.5807" rx="6.5" fill="white"/>
<path d="M347.293 361.262C347.201 360.43 346.934 359.596 346.461 358.8L322.3 318.101H322.459V291.65H234.868V318.101H234.789L210.812 358.818C210.347 359.609 210.082 360.436 209.99 361.262C209.604 364.717 212.269 368.086 216.108 368.086H341.176C345.016 368.086 347.679 364.717 347.293 361.262Z" fill="#357E94"/>
<path d="M323.368 290.434H234.43V318.136H323.368V290.434Z" fill="#8FC6D7"/>
<path d="M209.99 361.264C209.604 364.718 212.269 368.088 216.108 368.088H341.176C345.016 368.088 347.679 364.718 347.293 361.264H209.99Z" fill="#3F97B1"/>
<path d="M138.713 265.738V328.576H184.038L201.55 311.064V265.738H138.713Z" fill="#FBE4C6"/>
<path d="M184.046 328.563L201.558 311.051H184.046V328.563Z" fill="#BF8888"/>
<path d="M190.023 278.882H150.235C149.659 278.882 149.192 278.415 149.192 277.839C149.192 277.264 149.659 276.797 150.235 276.797H190.023C190.598 276.797 191.065 277.264 191.065 277.839C191.065 278.415 190.598 278.882 190.023 278.882Z" fill="#35345F"/>
<path d="M172.254 288.925H150.235C149.659 288.925 149.192 288.458 149.192 287.882C149.192 287.307 149.659 286.84 150.235 286.84H172.254C172.83 286.84 173.297 287.307 173.297 287.882C173.297 288.458 172.83 288.925 172.254 288.925Z" fill="#35345F"/>
<path d="M488.436 110.115H429.66V121.979H488.436V110.115Z" fill="#BF8888"/>
<path d="M492.881 91.709H434.105V103.573H492.881V91.709Z" fill="#FBE4C6"/>
<path d="M307.596 296.855L291.452 288.398L285.689 267.644C285.689 267.644 270.357 265.577 270.343 265.577C268.413 265.318 266.524 266.007 265.146 267.364C262.909 269.56 262.015 272.698 262.424 275.767C263.195 281.482 268.59 286.311 272.028 290.581C273.501 292.054 289.488 312.256 289.522 312.222L307.582 296.849L307.596 296.855Z" fill="#FFBE97"/>
<path d="M260.673 174.795L231.892 194.207C228.194 196.702 227.217 201.729 229.711 205.427L235.943 214.666L278.13 186.211L271.898 176.972C269.404 173.274 264.376 172.297 260.679 174.791L260.673 174.795Z" fill="#DF8711"/>
<path d="M277.442 184.812L337.386 277.419L298.517 303.637L235.108 213.362L277.442 184.812Z" fill="#9F5656"/>
<path d="M324.255 283.761C324.398 283.761 324.535 283.72 324.664 283.638C324.998 283.413 325.087 282.963 324.862 282.629L268.13 198.514C267.905 198.179 267.455 198.091 267.121 198.316C266.787 198.541 266.698 198.991 266.923 199.325L323.655 283.441C323.798 283.652 324.023 283.761 324.262 283.761H324.255Z" fill="#4F2B2B"/>
<path d="M308.645 294.289C308.788 294.289 308.924 294.249 309.054 294.167C309.388 293.942 309.477 293.492 309.252 293.157L252.52 209.042C252.295 208.708 251.845 208.626 251.51 208.844C251.176 209.069 251.088 209.519 251.313 209.854L308.044 293.969C308.188 294.18 308.413 294.289 308.651 294.289H308.645Z" fill="#4F2B2B"/>
<path d="M239.848 216.656L278.718 190.438C280.3 189.368 280.716 187.219 279.652 185.637C278.581 184.054 276.433 183.638 274.851 184.702L235.981 210.92C234.399 211.991 233.983 214.139 235.047 215.721C236.118 217.304 238.266 217.72 239.848 216.656Z" fill="white"/>
<path d="M347.18 294.169L340.939 266.526C339.78 261.384 336.444 256.991 331.8 254.495L319.128 247.668L320.662 270.728L320.505 271.116C317.825 277.787 311.823 282.547 304.716 283.652L285.558 286.619L281.841 314.548L293.367 332.609L314.121 340.295L347.173 294.176L347.18 294.169Z" fill="#FFBE97"/>
<path d="M357.561 301.464L349.178 291.841C347.944 290.422 345.973 289.897 344.193 290.511C335.674 293.43 311.721 302.992 309.518 318.761C306.831 337.974 314.517 350.66 314.517 350.66L357.561 301.464Z" fill="#EF9C2E"/>
<path d="M425.458 225.34H453.121C444.473 234.786 435.361 243.912 428.097 254.197L425.458 225.34Z" fill="#4F2B2B"/>
<path d="M453.113 225.34H464.353L472.722 254.62L428.655 260.349L428.089 254.197C435.353 243.905 444.465 234.786 453.113 225.34Z" fill="#FFBE97"/>
<path d="M464.436 221.294C461.346 235.808 442.74 245.124 425.328 241.414C407.916 237.711 398.285 222.385 401.375 207.872C404.465 193.358 421.086 184.601 438.498 188.304C455.91 192.007 467.525 206.78 464.436 221.287V221.294Z" fill="#FFBE97"/>
<path d="M406.32 205.334C405.289 187.117 421.525 171.383 442.586 170.191C463.646 168.998 481.555 182.8 482.586 201.017C483.617 219.234 467.38 234.968 446.32 236.161C425.26 237.353 407.351 223.551 406.32 205.334Z" fill="#28151F"/>
<path d="M393.229 221.752C390.52 217.579 391.707 211.999 395.881 209.29C400.054 206.58 405.634 207.767 408.343 211.941C411.053 216.115 409.866 221.694 405.692 224.404C401.518 227.113 395.939 225.926 393.229 221.752Z" fill="#FFBE97"/>
<path d="M418.152 386.018V400.001L561.914 400.001C561.914 400.001 563.562 291.631 503.598 257.27C484.358 246.249 442.085 247.183 414.435 259.958C392.931 269.895 384.685 286.925 374.598 311.581L362.894 302.1C352.766 293.902 338.231 293.964 328.24 302.332C316.85 311.867 305.889 327.438 311.448 350.266C311.448 350.266 344.881 431.483 418.159 386.004L418.152 386.018Z" fill="#EF9C2E"/>
<path d="M418.152 386.749C418.363 386.749 418.568 386.66 418.711 386.483C418.861 386.299 433.757 368.061 443.926 344.156C444.083 343.787 443.912 343.358 443.544 343.201C443.176 343.044 442.746 343.215 442.589 343.583C432.502 367.284 417.736 385.371 417.586 385.555C417.334 385.862 417.374 386.326 417.688 386.578C417.825 386.687 417.988 386.742 418.152 386.742V386.749Z" fill="#4F2B2B"/>
<path d="M359.224 344.086C359.497 344.086 359.756 343.936 359.879 343.677L375.252 311.908C375.429 311.546 375.272 311.11 374.911 310.939C374.543 310.769 374.113 310.919 373.943 311.28L358.569 343.05C358.392 343.411 358.549 343.848 358.91 344.018C359.013 344.066 359.122 344.093 359.224 344.093V344.086Z" fill="#4F2B2B"/>
<path d="M467.341 233.447C467.341 233.447 496.518 205.108 478.103 180.412C461.195 157.734 440.441 167.733 440.441 167.733C440.441 167.733 415.076 160.046 401.245 181.953C386.826 204.781 407.178 222.896 421.051 233.76C425.852 237.518 431.704 239.694 437.802 239.865C445.713 240.09 457.09 239.128 467.347 233.454L467.341 233.447Z" fill="#4F2B2B"/>
<path d="M455.443 178.702C466.474 171.138 482.962 170.444 494.165 177.072C501.637 181.494 506.455 188.475 512.886 193.973C520.021 200.075 529.239 204.337 539.169 206.126C547.642 207.652 556.466 207.402 565.15 207.871C573.833 208.34 582.741 209.641 589.806 213.838C596.871 218.035 601.646 225.743 599.471 233.123C598.082 237.839 594.082 241.826 589.35 244.537C584.621 247.248 579.185 248.823 573.755 250.11C560.461 253.258 546.377 254.736 532.884 252.972C513.995 250.501 497.717 241.553 480.526 235.252C465.184 229.627 452.63 220.388 448.23 205.891L455.443 178.702Z" fill="#4F2B2B"/>
<path d="M266.346 278.665L266.121 294.209C266.1 295.607 266.448 296.984 267.13 298.205L281.364 323.727C283.874 328.229 288.185 331.441 293.218 332.559L293.382 332.594L292.741 310.045L266.353 278.658L266.346 278.665Z" fill="#FFBE97"/>
<path d="M281.977 308.983C282.107 308.983 282.243 308.948 282.366 308.867C282.707 308.655 282.809 308.205 282.591 307.864L267.348 283.781C267.136 283.44 266.686 283.338 266.345 283.556C266.004 283.768 265.902 284.218 266.12 284.559L281.363 308.642C281.5 308.86 281.739 308.983 281.977 308.983Z" fill="#4F2B2B"/>
<path d="M393.772 89.1582H518.604C524.738 89.1582 529.726 94.1257 529.726 100.28V126.284C529.726 132.418 524.758 137.406 518.604 137.406H425.126L398.8 147.863L406.362 137.406H393.792C387.658 137.406 382.671 132.438 382.671 126.284V100.28C382.671 94.1458 387.638 89.1582 393.792 89.1582H393.772Z" fill="#3A8AA2"/>
<path d="M453.947 103.275H512.873V107.8H453.947V103.275Z" fill="white"/>
<path d="M402.562 103.275H446.385V107.8H402.562V103.275Z" fill="white"/>
<path d="M467.542 118.379H512.873V122.904H467.542V118.379Z" fill="white"/>
<path d="M419.939 118.379H459.98V122.904H419.939V118.379Z" fill="white"/>
</g>
</svg>
