<svg width="700" height="400" viewBox="0 0 700 400" fill="none" xmlns="http://www.w3.org/2000/svg">
<mask id="mask0_736_59693" style="mask-type:alpha" maskUnits="userSpaceOnUse" x="0" y="0" width="700" height="400">
<rect width="700" height="400" transform="matrix(-1 0 0 1 700 0)" fill="white"/>
</mask>
<g mask="url(#mask0_736_59693)">
<path d="M49.534 159.215C50.5054 159.861 51.7423 159.79 52.6279 159.131L94.2563 205.537C94.1593 205.641 94.0681 205.754 93.986 205.875C93.1641 207.115 93.5016 208.785 94.7397 209.608C95.9778 210.431 97.6493 210.093 98.4727 208.854C98.604 208.656 98.7034 208.447 98.777 208.232L132.455 216.305C132.313 217.302 132.734 218.337 133.629 218.93C134.867 219.754 136.539 219.415 137.362 218.177C137.725 217.628 137.861 216.996 137.795 216.389L175.053 208.716C175.23 209.293 175.598 209.815 176.14 210.176C176.728 210.566 177.411 210.691 178.055 210.589L200.445 297.654C199.917 297.841 199.443 298.195 199.108 298.696C198.285 299.934 198.623 301.606 199.862 302.429C201.1 303.253 202.771 302.914 203.595 301.676C203.833 301.314 203.971 300.917 204.02 300.516L312.652 303.79C312.021 304.996 312.392 306.509 313.55 307.279C314.788 308.102 316.46 307.764 317.283 306.525C317.358 306.412 317.42 306.296 317.475 306.176L355.082 319.682C354.804 320.763 355.217 321.946 356.198 322.597C356.692 322.925 357.254 323.065 357.805 323.041L364.641 373.119L363.996 372.9L364.709 373.602L364.75 373.904L364.911 373.8L425.943 433.926C425.888 433.995 425.834 434.066 425.783 434.141C424.96 435.379 425.299 437.051 426.537 437.874C427.775 438.697 429.447 438.359 430.27 437.12C431.093 435.882 430.754 434.211 429.516 433.387C429.056 433.081 428.534 432.937 428.019 432.94L424.355 394.607C424.4 394.551 424.444 394.493 424.486 394.43C424.692 394.122 424.823 393.785 424.889 393.441L489.94 399.63C489.939 400.505 490.36 401.36 491.143 401.88C492.381 402.704 494.052 402.365 494.876 401.127C495.699 399.889 495.36 398.217 494.122 397.394C493.633 397.068 493.073 396.927 492.528 396.95L486.585 352.028C487.234 351.88 487.833 351.495 488.231 350.894C488.766 350.089 488.807 349.103 488.436 348.286L516.421 332.22C516.608 332.487 516.845 332.725 517.132 332.915C518.371 333.738 520.042 333.399 520.865 332.161C521.689 330.923 521.35 329.252 520.112 328.428C519.359 327.93 518.449 327.86 517.664 328.157L501.905 296.038C502.231 295.841 502.52 295.572 502.746 295.232C503.484 294.12 503.286 292.662 502.342 291.778L526.031 263.854C527.268 264.654 528.92 264.313 529.737 263.083C530.56 261.845 530.221 260.173 528.983 259.35C528.767 259.207 528.538 259.1 528.301 259.026L533.35 232.042C534.304 232.13 535.275 231.705 535.841 230.85C535.989 230.628 536.097 230.391 536.17 230.149L577.03 238.65C576.922 239.621 577.344 240.618 578.215 241.195C579.453 242.018 581.124 241.679 581.948 240.441C582.771 239.203 582.432 237.532 581.194 236.708C581.103 236.648 581.01 236.597 580.915 236.548L603.413 179.251C604.513 179.57 605.739 179.157 606.405 178.154C607.228 176.916 606.889 175.244 605.651 174.421C604.413 173.598 602.742 173.936 601.918 175.175C601.683 175.528 601.546 175.918 601.495 176.312L511.468 172.789C511.384 172.023 510.974 171.299 510.282 170.84C509.044 170.016 507.373 170.355 506.549 171.593C505.726 172.832 506.065 174.503 507.303 175.326C507.426 175.407 507.555 175.474 507.686 175.535L499.03 206.019C497.983 205.799 496.858 206.216 496.231 207.162C496.027 207.469 495.895 207.804 495.829 208.145L421.061 203.203C421.038 202.357 420.618 201.535 419.861 201.03C418.622 200.207 416.951 200.546 416.127 201.784C415.304 203.022 415.643 204.693 416.881 205.517C417.165 205.706 417.474 205.83 417.786 205.9L413.433 240.284C412.532 240.253 411.635 240.675 411.1 241.484L411.222 241.268L334.465 197.976C334.995 196.795 334.612 195.373 333.5 194.634C332.926 194.253 332.26 194.125 331.628 194.215L323.059 158.379C323.604 158.194 324.095 157.838 324.437 157.32C325.259 156.08 324.921 154.411 323.683 153.587C322.445 152.764 320.773 153.103 319.95 154.341C319.629 154.823 319.486 155.373 319.505 155.912L264.273 162.715C264.129 162.054 263.742 161.449 263.134 161.045C261.896 160.222 260.225 160.561 259.401 161.799C259.059 162.315 258.919 162.905 258.963 163.478L225.339 169.005C225.178 168.386 224.799 167.823 224.226 167.441C222.988 166.618 221.316 166.957 220.493 168.195C220.405 168.326 220.335 168.463 220.273 168.601L160.643 149.976C160.842 148.941 160.419 147.844 159.488 147.225C158.786 146.76 157.946 146.666 157.199 146.898L140.036 107.608C140.421 107.405 140.763 107.104 141.023 106.716C141.846 105.478 141.507 103.807 140.269 102.983C139.029 102.161 137.36 102.499 136.536 103.737C136.531 103.747 136.526 103.757 136.519 103.764L105.967 91.3537L89.8174 84.7935C90.03 83.7493 89.6128 82.6334 88.6702 82.0067C87.4321 81.1833 85.7606 81.5222 84.9372 82.7603C84.2979 83.7239 84.361 84.9452 85.0012 85.8291L59.1356 114.207C59.1055 114.185 59.0759 114.161 59.0423 114.138C57.8042 113.315 56.1327 113.654 55.3093 114.892C54.4859 116.13 54.8248 117.802 56.0629 118.625C56.357 118.82 56.6752 118.949 57.0008 119.015L51.2116 154.287C50.2771 154.222 49.3351 154.645 48.7804 155.482C47.957 156.721 48.296 158.392 49.534 159.215ZM87.1735 86.9422C88.048 86.9429 88.9038 86.5226 89.4238 85.7397C89.5238 85.5878 89.605 85.4307 89.6724 85.2713L107.984 92.7089L136.288 104.205C136.188 104.448 136.127 104.7 136.102 104.955L86.0544 111.924L87.1749 86.9442L87.1735 86.9422ZM262.825 165.708L276.037 187.456L246.474 207.905C246.312 207.712 246.121 207.535 245.901 207.389C245.797 207.319 245.688 207.263 245.577 207.209L260.945 165.889C261.577 166.06 262.246 165.992 262.825 165.708ZM320.134 157.559C320.296 157.752 320.486 157.929 320.707 158.075C320.837 158.16 320.967 158.229 321.103 158.289L299.565 222.058C298.957 221.914 298.319 221.987 297.765 222.257L276.705 187.595L320.132 157.557L320.134 157.559ZM481.401 352.238L473.911 321.337L484.722 347.03C484.341 347.233 484.005 347.532 483.746 347.916C483.17 348.784 483.166 349.861 483.637 350.712L481.401 352.238ZM490.39 398.149C490.186 398.46 490.053 398.795 489.987 399.139L424.937 392.946C424.937 392.488 424.821 392.035 424.597 391.633L481.085 353.057L491.759 397.097C491.218 397.282 490.73 397.638 490.388 398.151L490.39 398.149ZM203.579 298.667C203.406 298.415 203.188 298.191 202.929 298.003L225.488 259.677C226.676 260.238 228.128 259.859 228.877 258.73L252.59 271.472L203.579 298.667ZM59.0572 118.619C59.104 118.587 59.1529 118.552 59.1969 118.516L82.2316 149.649C82.0641 149.799 81.9128 149.969 81.7821 150.164C81.44 150.676 81.3024 151.264 81.341 151.835L73.5994 153.083L59.0572 118.619ZM126.704 193.784L135.038 201.942C134.983 202.007 134.932 202.077 134.883 202.15C134.579 202.609 134.435 203.126 134.434 203.636L125.801 204.422L86.5805 154.503L126.704 193.784ZM135.384 201.587L106.243 173.058L86.1142 153.352C86.1685 153.286 86.2201 153.217 86.2687 153.143C86.5407 152.734 86.6834 152.279 86.7108 151.82L137.655 150.283L136.917 200.954C136.359 200.999 135.821 201.214 135.385 201.584L135.384 201.587ZM81.4205 152.326C81.5802 152.948 81.9587 153.515 82.5357 153.897C83.0931 154.268 83.7389 154.402 84.3558 154.325L95.4121 204.782L73.7984 153.554L81.4225 152.324L81.4205 152.326ZM97.7205 205.123C97.163 204.752 96.5173 204.619 95.9004 204.695L84.8403 154.219C85.0655 154.147 85.2832 154.046 85.4843 153.917L125.208 204.476L98.875 206.876C98.7454 206.184 98.3515 205.543 97.7185 205.125L97.7205 205.123ZM98.9236 207.37L125.576 204.941L133.27 214.733C133.126 214.87 132.992 215.025 132.877 215.196C132.746 215.394 132.647 215.603 132.573 215.819L98.8949 207.745C98.9134 207.62 98.925 207.494 98.9242 207.367L98.9236 207.37ZM135.282 214.001C134.713 213.968 134.143 214.112 133.661 214.425L126.167 204.888L134.479 204.13C134.608 204.822 135.002 205.463 135.635 205.881C135.897 206.056 136.181 206.176 136.472 206.248L135.282 214.001ZM139.708 202.878L171.44 190.233L176.544 205.471C176.09 205.671 175.684 205.998 175.386 206.443C175.187 206.744 175.057 207.071 174.99 207.403L139.817 203.675C139.82 203.406 139.784 203.137 139.708 202.878ZM220.739 171.485C220.887 171.648 221.057 171.8 221.25 171.928C221.629 172.179 222.044 172.322 222.465 172.364L224.152 208.868L180.317 207.752C180.284 207.262 180.119 206.789 179.834 206.382L220.741 171.484L220.739 171.485ZM414.379 245.461L426.647 271.359C426.285 271.561 425.961 271.849 425.717 272.22C425.598 272.401 425.506 272.59 425.434 272.786L415.175 271.262L413.91 245.606C414.072 245.572 414.228 245.523 414.382 245.461L414.379 245.461ZM531.172 228.208C530.801 228.986 530.835 229.879 531.219 230.615L516.212 240.382L500.07 210.816C500.317 210.635 500.538 210.41 500.718 210.142L531.17 228.209L531.172 228.208ZM499.647 211.074L515.796 240.655L469.105 271.042C468.932 270.826 468.726 270.631 468.483 270.47C468.456 270.453 468.426 270.437 468.399 270.42L497.557 211.18C498.249 211.43 499.001 211.383 499.645 211.075L499.647 211.074ZM228.127 254.998C228.023 254.928 227.917 254.872 227.807 254.818L243.709 212.229C244.448 212.431 245.239 212.304 245.878 211.89L266.698 238.305L228.961 255.886C228.759 255.541 228.481 255.235 228.127 254.998ZM246.268 211.581C246.412 211.444 246.542 211.292 246.659 211.12C246.777 210.942 246.867 210.755 246.939 210.562L296.401 223.816C296.323 224.05 296.277 224.288 296.265 224.527L267.164 238.085L246.27 211.579L246.268 211.581ZM296.288 225.066C296.34 225.409 296.454 225.742 296.632 226.043L283.263 251.126L281.969 253.556C281.155 253.212 280.237 253.297 279.504 253.749L267.474 238.49L296.284 225.069L296.288 225.066ZM282.414 253.793C282.414 253.793 282.413 253.791 282.411 253.789L283.7 251.369L296.962 226.485C297.107 226.644 297.274 226.791 297.463 226.917C297.774 227.124 298.113 227.257 298.457 227.323L303.257 250.154L283.453 255.108C283.263 254.589 282.913 254.12 282.416 253.792L282.414 253.793ZM229.17 256.337L267.015 238.705L279.11 254.049C278.95 254.194 278.805 254.36 278.681 254.547C278.423 254.937 278.279 255.368 278.242 255.804L229.311 256.933C229.288 256.731 229.24 256.531 229.17 256.337ZM313.722 302.692L282.697 258.059C282.872 257.906 283.032 257.727 283.168 257.526C283.562 256.932 283.687 256.24 283.577 255.589L303.357 250.643L314.253 302.462C314.068 302.519 313.892 302.597 313.723 302.694L313.722 302.692ZM303.839 250.521L326.853 244.763C327.05 245.241 327.386 245.664 327.85 245.971C328.031 246.09 328.221 246.185 328.416 246.255L320.518 280.326L315.409 302.366C315.184 302.336 314.96 302.332 314.739 302.359L303.839 250.521ZM421.388 390.388L411.612 367.681L405.571 353.645C405.945 353.441 406.275 353.149 406.527 352.769C407.023 352.025 407.094 351.125 406.806 350.346L418.825 344.589L421.781 390.285C421.646 390.31 421.515 390.344 421.386 390.385L421.388 390.388ZM393.512 270.563L415.256 307.619C415 307.804 414.767 308.034 414.584 308.314C414.265 308.795 414.122 309.341 414.138 309.88L398.999 312.62L393 270.742C393.177 270.7 393.35 270.639 393.515 270.563L393.512 270.563ZM414.196 310.373C414.34 311.034 414.727 311.643 415.337 312.047C415.491 312.149 415.649 312.233 415.814 312.299L404.824 348.642C404.602 348.597 404.376 348.582 404.153 348.593L399.07 313.111L414.198 310.372L414.196 310.373ZM406.593 349.898C406.393 349.565 406.12 349.267 405.774 349.036C405.622 348.936 405.462 348.851 405.3 348.785L409.231 335.806L416.306 312.446C416.454 312.476 416.603 312.49 416.752 312.495L418.793 344.056L406.592 349.901L406.593 349.898ZM417.247 312.461C417.965 312.346 418.636 311.947 419.07 311.294C419.246 311.028 419.365 310.744 419.438 310.454L470.258 318.226C470.237 318.599 470.293 318.969 470.422 319.318L419.277 343.82L417.249 312.459L417.247 312.461ZM470.699 316.897C470.524 317.162 470.404 317.447 470.331 317.737L419.512 309.965C419.545 309.423 419.41 308.88 419.128 308.412L444.021 290.008L470.865 316.675C470.806 316.746 470.752 316.821 470.7 316.899L470.699 316.897ZM418.833 308.012C418.682 307.845 418.511 307.691 418.317 307.561C418.258 307.52 418.196 307.488 418.136 307.454L427.293 276.312C428.128 276.525 429.023 276.326 429.689 275.772L443.664 289.655L418.833 308.012ZM426.473 275.951C426.586 276.027 426.706 276.089 426.824 276.146L417.676 307.253C417.435 307.173 417.19 307.13 416.942 307.118L415.198 271.768L425.304 273.268C425.136 274.281 425.558 275.348 426.469 275.951L426.473 275.951ZM416.446 307.143C416.231 307.173 416.017 307.228 415.814 307.31L393.948 270.306C394.202 270.122 394.43 269.893 394.614 269.615C394.792 269.348 394.912 269.06 394.984 268.764L414.698 271.691L416.445 307.141L416.446 307.143ZM331.581 245.219C331.603 245.185 331.621 245.151 331.642 245.115L366.053 258.305L389.775 267.398C389.621 267.949 389.651 268.529 389.844 269.055L346.546 289.722L330.337 246.229C330.828 246.034 331.267 245.693 331.581 245.219ZM391.094 270.499C391.539 270.739 392.024 270.839 392.502 270.815L398.505 312.711L360.287 319.631C360.141 319.105 359.835 318.621 359.385 318.256L391.094 270.499ZM360.378 320.12L398.577 313.204L403.658 348.666C403.093 348.801 402.572 349.114 402.188 349.592L360.067 321.627C360.324 321.153 360.424 320.628 360.378 320.12ZM402.794 353.526C403.506 353.998 404.36 354.086 405.115 353.843L409.519 364.075L420.931 390.589C420.836 390.644 420.741 390.704 420.651 390.77L390.836 357.244L401.801 350.24C401.309 351.41 401.698 352.797 402.794 353.526ZM423.5 390.553C423.112 390.349 422.694 390.25 422.277 390.244L419.309 344.356L470.634 319.768C470.788 320.027 470.986 320.262 471.227 320.463L423.5 390.553ZM471.214 316.324L444.422 289.71L464.987 274.505C465.138 274.673 465.309 274.826 465.504 274.957C465.992 275.282 466.549 275.423 467.092 275.401L472.348 315.763C471.937 315.857 471.547 316.045 471.214 316.324ZM464.692 274.105L444.066 289.354L430.04 275.42C430.099 275.349 430.153 275.274 430.204 275.196C430.474 274.792 430.616 274.34 430.646 273.885L464.322 273.026C464.365 273.405 464.492 273.772 464.692 274.102L464.692 274.105ZM413.413 245.663L414.672 271.186L395.056 268.274C395.096 267.529 394.829 266.788 394.29 266.239L411.997 245.301C412.441 245.558 412.931 245.676 413.411 245.665L413.413 245.663ZM411.591 245.012L393.909 265.921C393.892 265.909 393.876 265.895 393.859 265.883C392.621 265.06 390.949 265.399 390.126 266.637C390.062 266.733 390.005 266.833 389.955 266.935L336.893 246.594L331.859 244.666C331.923 244.494 331.968 244.316 331.996 244.139L410.686 243.376C410.781 243.998 411.088 244.584 411.591 245.015L411.591 245.012ZM326.705 244.288L303.736 250.031L298.969 227.365C299.791 227.357 300.593 226.971 301.113 226.267L326.849 242.699C326.637 243.212 326.595 243.763 326.705 244.284L326.705 244.288ZM242.922 211.873C243.026 211.943 243.132 211.999 243.242 212.052L227.34 254.642C227.149 254.59 226.954 254.559 226.761 254.552L224.674 209.376L241.729 209.809C241.785 210.617 242.199 211.39 242.926 211.873L242.922 211.873ZM179.875 209.418C180.118 209.054 180.255 208.651 180.303 208.244L224.174 209.359L226.263 254.573C225.776 254.641 225.309 254.84 224.921 255.161L179.698 209.654C179.761 209.58 179.821 209.501 179.875 209.418ZM229.113 258.288C229.231 258.009 229.3 257.718 229.319 257.425L278.24 256.297C278.268 256.578 278.342 256.854 278.456 257.117L253.106 271.183L229.111 258.29L229.113 258.288ZM278.699 257.55C278.889 257.83 279.135 258.077 279.433 258.278C280.323 258.868 281.433 258.859 282.294 258.35L313.313 302.975C313.183 303.084 313.062 303.206 312.952 303.343L253.629 271.466L278.7 257.556L278.699 257.55ZM316.536 302.788C316.331 302.652 316.115 302.552 315.894 302.479L328.897 246.382C329.219 246.435 329.547 246.431 329.861 246.368L346.098 289.936L317.358 303.654C317.158 303.317 316.884 303.021 316.536 302.788ZM346.721 290.189L390.057 269.504C390.217 269.771 390.422 270.016 390.679 270.222L358.97 317.979C358.346 317.643 357.64 317.579 356.991 317.754L346.719 290.19L346.721 290.189ZM359.791 322.039L401.583 349.786L390.5 356.863L359.66 322.185C359.706 322.138 359.748 322.09 359.791 322.039ZM420.281 391.099C420.18 391.206 420.086 391.32 420.002 391.446C419.917 391.572 419.849 391.705 419.788 391.839L365.519 373.411L390.411 357.511L420.279 391.097L420.281 391.099ZM424.32 391.217C424.226 391.104 424.12 390.996 424.006 390.897L423.989 390.718L471.639 320.74C472.17 321.035 472.764 321.129 473.332 321.047L480.965 352.534L424.324 391.218L424.32 391.217ZM516.178 331.786L488.193 347.853C488.006 347.586 487.769 347.348 487.482 347.158C487.298 347.035 487.104 346.943 486.904 346.87L492.834 323.991L515.971 330.211C515.878 330.746 515.953 331.295 516.177 331.784L516.178 331.786ZM486.423 346.746C486.005 346.678 485.578 346.71 485.181 346.836L474.21 320.763C474.59 320.56 474.927 320.261 475.186 319.876C475.304 319.699 475.395 319.512 475.465 319.322L492.355 323.862L486.423 346.746ZM475.594 318.844C475.719 318.119 475.542 317.372 475.1 316.781L498.592 295.636C498.718 295.764 498.861 295.882 499.016 295.986C499.176 296.093 499.345 296.178 499.516 296.245L492.482 323.385L475.596 318.846L475.594 318.844ZM498.276 295.25L477.951 313.546L498.02 292.705C497.668 293.549 497.775 294.509 498.276 295.25ZM474.623 316.286C474.562 316.238 474.499 316.191 474.434 316.145C473.945 315.82 473.388 315.679 472.845 315.701L467.589 275.339C468.241 275.192 468.841 274.805 469.24 274.204C469.592 273.675 469.73 273.066 469.676 272.478L524.932 262.411C525.051 262.783 525.253 263.133 525.527 263.429L474.622 316.289L474.623 316.286ZM469.586 271.989C469.534 271.807 469.467 271.629 469.378 271.458L516.035 241.092L526.005 259.353C525.716 259.547 525.459 259.796 525.255 260.106C524.883 260.664 524.752 261.308 524.827 261.923L469.588 271.988L469.586 271.989ZM526.443 259.12L516.453 240.823L531.495 231.035C531.667 231.251 531.874 231.446 532.117 231.607C532.355 231.765 532.608 231.879 532.87 231.953L527.821 258.925C527.351 258.869 526.876 258.937 526.444 259.122L526.443 259.12ZM535.095 227.118C533.887 226.316 532.272 226.618 531.429 227.782L501.101 209.788L576.592 238.049L536.283 229.664C536.391 228.692 535.969 227.695 535.098 227.118L535.095 227.118ZM577.47 237.465C577.402 237.567 577.343 237.675 577.292 237.784L501.102 209.26C501.193 208.865 501.193 208.458 501.106 208.07L535.08 197.804L577.583 237.316C577.546 237.366 577.507 237.415 577.471 237.467L577.47 237.465ZM496.988 210.896C497.028 210.923 497.071 210.944 497.111 210.968L467.956 270.199C467.196 269.906 466.352 269.984 465.662 270.376L452.428 251.477L496.679 210.654C496.776 210.741 496.876 210.823 496.988 210.896ZM465.254 270.661C465.066 270.821 464.895 271.007 464.751 271.226C464.482 271.63 464.34 272.082 464.31 272.537L430.634 273.396C430.579 272.922 430.395 272.465 430.101 272.079L452.059 251.821L465.254 270.665L465.254 270.661ZM429.761 271.71C429.663 271.623 429.562 271.54 429.45 271.466C428.957 271.138 428.394 270.998 427.846 271.021L418.979 205.896C419.233 205.837 419.476 205.742 419.706 205.612L451.77 251.404L429.759 271.708L429.761 271.71ZM418.487 205.964L427.352 271.087C427.268 271.107 427.184 271.129 427.102 271.159L414.818 245.229C415.116 245.035 415.379 244.778 415.588 244.465C416.41 243.225 416.072 241.556 414.834 240.732C414.55 240.543 414.241 240.419 413.929 240.35L418.283 205.967C418.352 205.971 418.42 205.969 418.489 205.966L418.487 205.964ZM410.657 242.88L332.026 243.644C331.999 242.804 331.579 241.988 330.825 241.487C330.486 241.263 330.114 241.126 329.735 241.07L332.105 199.568C332.926 199.54 333.72 199.135 334.221 198.411L410.972 241.701C410.77 242.076 410.667 242.479 410.655 242.882L410.657 242.88ZM330.524 199.121C330.863 199.345 331.235 199.482 331.612 199.54L329.294 240.128L326.204 202.088L330.121 198.797C330.241 198.916 330.376 199.028 330.523 199.125L330.524 199.121ZM328.871 241.08C328.169 241.204 327.518 241.6 327.092 242.241C327.088 242.247 327.084 242.255 327.078 242.263L301.368 225.846C301.797 224.96 301.699 223.927 301.155 223.142L325.736 202.477L328.87 241.078L328.871 241.08ZM300.837 222.761C300.717 222.642 300.581 222.53 300.434 222.433C300.306 222.35 300.174 222.278 300.039 222.219L321.576 158.449C321.772 158.494 321.969 158.52 322.168 158.523L325.688 201.871L300.837 222.761ZM297.343 222.516C297.098 222.696 296.881 222.918 296.701 223.187C296.665 223.243 296.633 223.301 296.6 223.358L247.064 210.086C247.168 209.476 247.057 208.85 246.757 208.313L276.298 187.88L297.343 222.516ZM242.91 207.396C242.625 207.586 242.37 207.838 242.168 208.143C241.925 208.507 241.788 208.91 241.74 209.317L224.651 208.883L222.963 172.368C223.224 172.346 223.479 172.286 223.722 172.191L242.909 207.399L242.91 207.396ZM220.44 171.084L179.508 206.003C179.391 205.888 179.262 205.781 179.121 205.688C178.475 205.26 177.715 205.149 177.017 205.314L171.903 190.049L220.276 170.771C220.325 170.88 220.379 170.984 220.442 171.086L220.44 171.084ZM171.281 189.759L139.524 202.415C139.319 202.015 139.016 201.66 138.615 201.395C138.519 201.331 138.421 201.278 138.321 201.227L153.464 161.952L157.277 152.059C157.733 152.186 158.21 152.186 158.656 152.074L171.28 189.757L171.281 189.759ZM156.509 151.712C156.606 151.777 156.709 151.832 156.814 151.883L137.859 201.047C137.711 201.005 137.564 200.977 137.413 200.961L138.152 150.269L155.321 149.751C155.403 150.522 155.813 151.252 156.509 151.712ZM137.662 149.786L86.6947 151.325C86.6398 150.887 86.4785 150.465 86.2184 150.098L136.632 106.847C136.81 107.084 137.028 107.295 137.288 107.468C137.595 107.672 137.931 107.804 138.271 107.87L137.659 149.785L137.662 149.786ZM136.099 105.457C136.129 105.791 136.22 106.119 136.37 106.421L85.8974 149.722C85.7817 149.609 85.6538 149.504 85.5145 149.414C85.1644 149.182 84.7833 149.046 84.3931 148.991L86.0329 112.431L136.1 105.459L136.099 105.457ZM83.896 148.966C83.4496 148.987 83.016 149.118 82.6304 149.351L59.5622 118.175C59.6469 118.079 59.7267 117.981 59.7994 117.872C60.1761 117.305 60.308 116.648 60.2219 116.023L85.5303 112.498L83.896 148.966ZM58.6157 118.856L73.0909 153.163L53.6286 156.3C53.4689 155.677 53.0904 155.111 52.5134 154.729C52.2578 154.559 51.9841 154.441 51.7024 154.368L57.4959 119.072C57.8802 119.079 58.2606 119.007 58.6157 118.856ZM52.9969 158.8C53.0938 158.695 53.185 158.583 53.267 158.462C53.6091 157.949 53.7467 157.361 53.7081 156.79L73.2899 153.634L94.9575 204.991C94.8431 205.053 94.7303 205.126 94.6252 205.206L52.9969 158.8ZM137.696 215.901C137.519 215.323 137.15 214.802 136.609 214.44C136.347 214.265 136.063 214.146 135.772 214.073L136.963 206.321C137.888 206.377 138.818 205.953 139.367 205.126C139.566 204.825 139.695 204.498 139.763 204.165L174.936 207.894C174.934 208.004 174.939 208.115 174.95 208.226L137.692 215.9L137.696 215.901ZM178.536 210.461C178.826 210.359 179.099 210.207 179.343 210.006L224.566 255.513C224.503 255.587 224.443 255.666 224.389 255.749C223.585 256.958 223.891 258.58 225.06 259.421L202.501 297.747C201.998 297.51 201.452 297.441 200.928 297.525L178.538 210.46L178.536 210.461ZM204.039 300.014C204.02 299.7 203.944 299.388 203.817 299.098L253.108 271.749L311.751 303.262L204.037 300.015L204.039 300.014ZM317.648 305.703C317.787 305.168 317.753 304.609 317.568 304.102L346.268 290.403L356.524 317.926C356.102 318.131 355.726 318.443 355.448 318.861C355.373 318.975 355.312 319.091 355.256 319.211L317.649 305.705L317.648 305.703ZM358.301 322.97C358.653 322.887 358.989 322.734 359.286 322.517L390.072 357.136L365.138 373.062L358.299 322.971L358.301 322.97ZM427.524 432.983C427.077 433.068 426.65 433.267 426.293 433.569L365.895 374.065L419.628 392.308C419.374 393.376 419.789 394.536 420.755 395.179C421.748 395.838 423.012 395.75 423.902 395.057L427.528 432.983L427.524 432.983ZM491.773 395.036L481.524 352.753L483.914 351.122C484.078 351.32 484.273 351.499 484.498 351.647C484.987 351.973 485.547 352.114 486.094 352.093L491.774 395.038L491.773 395.036ZM517.218 328.373C516.892 328.571 516.601 328.841 516.377 329.18C516.259 329.357 516.171 329.543 516.098 329.734L492.956 323.511L499.988 296.382C500.484 296.479 500.992 296.429 501.459 296.254L517.218 328.373ZM501.949 291.471C501.148 290.961 500.176 290.925 499.369 291.299L522.261 267.528L501.951 291.47L501.949 291.471ZM580.455 236.364C579.569 236.108 578.606 236.327 577.913 236.945L535.623 197.633L601.664 177.677C601.861 178.161 602.201 178.594 602.668 178.907C602.759 178.968 602.854 179.02 602.947 179.067L580.453 236.365L580.455 236.364ZM601.475 176.808C601.482 176.94 601.496 177.072 601.523 177.202L535.205 197.24L510.948 174.689C510.978 174.65 511.008 174.611 511.036 174.569C511.301 174.172 511.443 173.729 511.477 173.283L601.475 176.808ZM508.153 175.696C509.021 175.908 509.947 175.675 510.613 175.06L534.651 197.407L500.946 207.59C500.747 207.123 500.415 206.706 499.961 206.405C499.814 206.307 499.661 206.227 499.503 206.161L508.153 175.696ZM495.78 208.637C495.778 209.228 495.97 209.81 496.336 210.285L452.134 251.061L420.108 205.324C420.297 205.164 420.467 204.978 420.611 204.759C420.831 204.427 420.966 204.065 421.026 203.695L495.779 208.635L495.78 208.637ZM329.766 195.386C329.138 196.332 329.188 197.529 329.798 198.41L326.152 201.476L322.705 159.03L331.144 194.329C330.599 194.514 330.108 194.87 329.765 195.389L329.766 195.386ZM319.567 156.403C319.624 156.663 319.719 156.915 319.851 157.147L276.447 187.169L263.249 165.448C263.493 165.267 263.713 165.044 263.89 164.777C264.211 164.295 264.354 163.745 264.335 163.206L319.567 156.403ZM259.042 163.969C259.202 164.588 259.582 165.151 260.155 165.532C260.259 165.602 260.368 165.659 260.478 165.712L245.111 207.032C244.519 206.873 243.898 206.922 243.345 207.158L224.164 171.964C224.479 171.768 224.761 171.503 224.978 171.172C225.321 170.656 225.46 170.067 225.417 169.493L259.041 163.967L259.042 163.969ZM220.115 169.072C220.02 169.479 220.023 169.899 220.117 170.297L171.744 189.575L159.128 151.911C159.566 151.71 159.958 151.39 160.244 150.956C160.351 150.793 160.437 150.627 160.506 150.451L220.119 169.07L220.115 169.072ZM156.739 147.086C156.353 147.29 156.011 147.59 155.752 147.978C155.489 148.374 155.346 148.811 155.312 149.253L138.158 149.77L138.77 107.915C139.043 107.915 139.316 107.875 139.574 107.794L156.739 147.086ZM85.3311 86.205C85.4411 86.3101 85.5599 86.406 85.6908 86.4933C85.999 86.6994 86.3344 86.8317 86.678 86.8976L85.5532 111.993L60.1094 115.537C59.9886 115.169 59.787 114.825 59.5114 114.535L85.3326 86.2071L85.3311 86.205Z" fill="#E95D9A"/>
<path d="M352.544 313.6L346.521 342.705V343.304H341.549L347.564 313.052C347.604 312.849 347.693 312.659 347.823 312.498L349.789 310.06C350.468 309.219 351.82 309.547 352.037 310.606L352.544 313.084C352.579 313.255 352.579 313.43 352.544 313.6Z" fill="#FADBE9"/>
<path d="M354.427 342.754H314.101L320.177 393.024H348.903L354.427 342.754Z" fill="#D6D6D6"/>
<path d="M315.268 315.409L321.282 342.199V342.751H326.254L320.247 314.901C320.201 314.689 320.102 314.492 319.959 314.329L317.972 312.058C317.283 311.27 315.99 311.6 315.762 312.623L315.267 314.851C315.226 315.035 315.226 315.225 315.268 315.409Z" fill="#8FC6D7"/>
<path d="M329.871 305.133L330.6 341.713L330.43 343.169L335.412 343.169L334.897 305.182C334.895 305.003 334.855 304.826 334.78 304.663L333.305 301.467C332.817 300.409 331.283 300.502 330.927 301.612L329.932 304.717C329.889 304.851 329.868 304.992 329.871 305.133Z" fill="#BF8888"/>
<path d="M345.236 316.276L343.503 342.669L343.206 342.754L338.234 342.754L339.9 316.736C339.914 316.51 339.989 316.291 340.116 316.103L341.955 313.378C342.515 312.548 343.769 312.656 344.18 313.568L345.126 315.667C345.212 315.858 345.249 316.067 345.236 316.276Z" fill="#FBE4C6"/>
<path d="M319.625 349.934H348.904" stroke="#4F2B2B" stroke-width="3" stroke-linecap="round"/>
<path d="M551.119 220.037H514.639V246.502H551.119V220.037Z" fill="#FFBE97"/>
<path d="M523.757 231.088C536.594 232.871 544.219 225.967 551.165 225.473V228.942C547.696 232.508 531.736 236.793 523.757 231.088Z" fill="#4F2B2B"/>
<path d="M640.776 293.968C638.116 274.11 623.987 257.691 604.748 252.1L551.286 238.715L534.273 246.147L514.424 238.715L480.182 246.147L459.697 252.1C440.457 257.691 426.328 274.11 423.667 293.968L410.783 390.135H653.66L640.776 293.968Z" fill="#9F5656"/>
<path d="M516.834 137.225C516.834 137.225 526.507 128.539 552.279 137.393C586.394 149.114 578.41 190.133 578.41 190.133L490.943 206.458C490.943 206.458 471.707 172.135 489.128 149.951C500.847 135.026 516.834 137.225 516.834 137.225Z" fill="#4F2B2B"/>
<path d="M578.829 190.483C578.07 189.022 577.022 187.799 575.779 186.916C574.289 185.858 572.523 185.291 570.653 185.399C570.054 185.434 569.481 185.56 568.924 185.725C568.84 185.75 568.752 185.766 568.669 185.792C566.392 168.053 554.665 151.02 533.988 148.065C511.927 144.913 491.965 162.586 489.131 184.044C489.089 184.371 489.062 184.697 489.024 185.021C488.973 185.021 488.92 185.012 488.868 185.012C483.589 185.012 479.309 190.029 479.309 196.219C479.309 202.409 483.588 207.426 488.868 207.426C489.992 207.426 491.067 207.187 492.068 206.768C492.071 206.774 492.072 206.779 492.075 206.784C492.995 209.027 494.097 211.179 495.369 213.219C495.408 213.283 495.447 213.347 495.487 213.409C495.898 214.059 496.323 214.697 496.768 215.323C496.775 215.334 496.784 215.346 496.792 215.359C497.714 216.653 498.711 217.89 499.777 219.065C499.845 219.141 499.916 219.214 499.984 219.289C500.436 219.778 500.899 220.258 501.375 220.724C501.478 220.826 501.578 220.925 501.682 221.024C502.19 221.513 502.71 221.99 503.245 222.451C503.289 222.49 503.333 222.531 503.377 222.57C503.977 223.082 504.594 223.578 505.226 224.055C505.276 224.094 505.331 224.128 505.379 224.165C505.931 224.575 506.492 224.97 507.068 225.351C507.233 225.461 507.401 225.567 507.567 225.674C508.054 225.986 508.547 226.287 509.049 226.578C509.227 226.682 509.404 226.787 509.584 226.888C510.18 227.22 510.785 227.537 511.402 227.838C511.476 227.875 511.548 227.914 511.623 227.952C512.318 228.285 513.027 228.595 513.75 228.889C513.93 228.962 514.113 229.026 514.294 229.097C514.837 229.308 515.385 229.508 515.941 229.694C516.185 229.776 516.428 229.854 516.673 229.93C517.207 230.097 517.748 230.253 518.296 230.396C518.525 230.458 518.755 230.524 518.988 230.58C519.761 230.77 520.54 230.944 521.335 231.087C540.852 234.629 560.807 223.064 567.005 205.393C567.128 205.467 567.261 205.522 567.386 205.589C568.652 206.272 570.051 206.662 571.54 206.577C576.529 206.29 580.374 201.314 580.129 195.466C580.052 193.638 579.585 191.942 578.826 190.481L578.829 190.483Z" fill="#FFBE97"/>
<path d="M543.17 194.229C543.135 195.818 543.929 197.122 544.941 197.145C545.953 197.167 546.8 195.897 546.831 194.309C546.867 192.72 546.073 191.415 545.061 191.393C544.049 191.371 543.201 192.64 543.17 194.229Z" fill="#4F2B2B"/>
<path d="M512.08 194.229C512.044 195.818 512.839 197.122 513.851 197.145C514.862 197.167 515.71 195.897 515.741 194.309C515.777 192.72 514.982 191.415 513.97 191.393C512.958 191.371 512.111 192.64 512.08 194.229Z" fill="#4F2B2B"/>
<path d="M513.822 206.641C506.836 206.641 501.156 200.96 501.156 193.975C501.156 186.989 506.836 181.309 513.822 181.309C520.807 181.309 526.488 186.989 526.488 193.975C526.488 200.96 520.807 206.641 513.822 206.641ZM513.822 182.391C507.436 182.391 502.243 187.588 502.243 193.97C502.243 200.352 507.44 205.549 513.822 205.549C520.204 205.549 525.401 200.352 525.401 193.97C525.401 187.588 520.204 182.391 513.822 182.391Z" fill="white"/>
<path d="M544.134 206.641C537.148 206.641 531.468 200.96 531.468 193.975C531.468 186.989 537.148 181.309 544.134 181.309C551.12 181.309 556.8 186.989 556.8 193.975C556.8 200.96 551.12 206.641 544.134 206.641ZM544.134 182.391C537.748 182.391 532.555 187.588 532.555 193.97C532.555 200.352 537.752 205.549 544.134 205.549C550.516 205.549 555.713 200.352 555.713 193.97C555.713 187.588 550.516 182.391 544.134 182.391Z" fill="white"/>
<path d="M532.755 190.622C529.817 189.925 527.341 189.925 525.188 190.609L524.86 189.57C527.208 188.825 529.87 188.82 533.008 189.557L532.76 190.618L532.755 190.622Z" fill="white"/>
<path d="M521.957 202.04L521.853 202.189L521.963 202.334L525.703 207.286C525.703 207.286 525.704 207.286 525.704 207.286C525.804 207.42 525.94 207.514 526.088 207.563V207.612H526.338C526.505 207.612 526.675 207.561 526.819 207.45C527.166 207.185 527.239 206.688 526.973 206.337C526.973 206.337 526.972 206.337 526.972 206.337L523.816 202.155L530.023 193.232L530.023 193.232L530.025 193.23C530.268 192.871 530.187 192.379 529.823 192.125L529.823 192.125L529.821 192.124C529.461 191.88 528.969 191.962 528.716 192.325L528.716 192.325L521.957 202.04Z" fill="#4F2B2B" stroke="#4F2B2B" stroke-width="0.5"/>
<path d="M524.509 217.399L524.507 217.399C524.078 217.335 523.667 217.623 523.602 218.062C523.537 218.494 523.829 218.896 524.261 218.967L524.261 218.967C524.344 218.981 524.875 219.05 525.691 219.05C528.296 219.05 533.914 218.321 537.072 212.479C537.28 212.096 537.137 211.611 536.748 211.403C536.362 211.197 535.882 211.338 535.674 211.727C533.843 215.108 531.131 216.534 528.834 217.113C526.531 217.694 524.647 217.421 524.509 217.399Z" fill="#4F2B2B" stroke="#4F2B2B" stroke-width="0.5"/>
<path d="M520.739 188.318L520.74 188.319C521.09 188.576 521.588 188.511 521.85 188.153C522.108 187.801 522.037 187.31 521.687 187.046L521.687 187.046C521.62 186.995 521.183 186.687 520.46 186.307C518.154 185.096 512.841 183.129 507.329 186.832C506.967 187.075 506.867 187.571 507.115 187.936C507.361 188.297 507.852 188.396 508.217 188.148C511.41 186.007 514.474 186.005 516.776 186.56C519.086 187.117 520.626 188.235 520.739 188.318Z" fill="#4F2B2B" stroke="#4F2B2B" stroke-width="0.5"/>
<path d="M550.988 189.158L550.99 189.159C551.34 189.415 551.838 189.351 552.1 188.993C552.358 188.641 552.287 188.15 551.937 187.886L551.937 187.886C551.87 187.835 551.432 187.527 550.71 187.147C548.404 185.936 543.091 183.969 537.578 187.672C537.216 187.915 537.117 188.411 537.365 188.775C537.611 189.137 538.101 189.236 538.467 188.988C541.659 186.847 544.723 186.845 547.026 187.4C549.336 187.957 550.876 189.075 550.988 189.158Z" fill="#4F2B2B" stroke="#4F2B2B" stroke-width="0.5"/>
<path d="M513.183 210.7C513.299 208.82 510.559 207.122 507.063 206.907C503.567 206.692 500.64 208.041 500.524 209.921C500.409 211.801 503.149 213.499 506.644 213.714C510.14 213.929 513.068 212.579 513.183 210.7Z" fill="#FF9D6C"/>
<path d="M558.758 211.905C558.874 210.025 556.134 208.327 552.638 208.112C549.143 207.897 546.215 209.246 546.099 211.126C545.984 213.006 548.724 214.704 552.22 214.919C555.715 215.134 558.643 213.784 558.758 211.905Z" fill="#FF9D6C"/>
<path d="M575.576 197.977L570.685 198.177C569.898 198.209 569.227 197.703 569.189 197.046C569.151 196.388 569.757 195.829 570.545 195.797L575.437 195.597C576.225 195.565 576.895 196.071 576.933 196.728C576.971 197.385 576.365 197.945 575.576 197.977Z" fill="#4F2B2B"/>
<path d="M487.994 197.977L483.919 198.177C483.263 198.209 482.703 197.703 482.671 197.046C482.64 196.388 483.145 195.829 483.802 195.797L487.878 195.597C488.535 195.565 489.093 196.071 489.125 196.728C489.157 197.385 488.652 197.945 487.994 197.977Z" fill="#4F2B2B"/>
<path d="M512.035 155.977C512.035 155.977 510.351 168.994 489.03 190.003L488.473 175.214L494.756 159.372L506.908 150.732L512.035 155.977Z" fill="#4F2B2B"/>
<path d="M503.789 153.479L519.497 146.803L540.986 146.018L566.949 166.778L572.513 190.001C561.077 187.89 547.168 180.148 547.168 180.148L553.35 186.833C536.902 185.393 523.364 184.988 511.934 170.295C509.881 167.657 504.442 159.808 505.359 156.228" fill="#4F2B2B"/>
<path d="M491.092 186.62C490.75 186.62 490.427 186.381 490.292 185.989C490.119 185.475 490.336 184.895 490.777 184.693C500.424 180.272 507.37 162.263 507.439 162.081C507.633 161.579 508.14 161.348 508.571 161.572C509.004 161.793 509.201 162.386 509.009 162.888C508.716 163.658 501.711 181.828 491.406 186.549C491.303 186.599 491.196 186.62 491.092 186.62Z" fill="#4F2B2B"/>
<path d="M464.559 383.075C464.124 383.075 463.749 382.748 463.7 382.305L456.303 314.907C456.251 314.432 456.593 314.005 457.068 313.952C457.542 313.902 457.969 314.243 458.023 314.718L465.42 382.116C465.472 382.591 465.13 383.017 464.655 383.071C464.623 383.074 464.591 383.075 464.559 383.075Z" fill="#4F2B2B"/>
<path d="M603.321 374.037C603.29 374.037 603.258 374.035 603.228 374.032C602.753 373.982 602.409 373.556 602.459 373.081L608.624 314.723C608.674 314.248 609.099 313.904 609.575 313.954C610.05 314.004 610.394 314.431 610.344 314.905L604.179 373.263C604.132 373.708 603.757 374.037 603.321 374.037Z" fill="#4F2B2B"/>
<path d="M603.819 334.138L589.934 339.348C589.489 339.513 588.988 339.289 588.819 338.841C588.652 338.394 588.879 337.894 589.326 337.727L603.212 332.517C603.836 332.282 604.466 332.086 605.099 331.902L592.503 329.735C586.451 328.719 580.501 331.102 577.322 335.868C576.604 336.949 576.024 338.115 575.602 339.337L571.212 352.02L574.216 349.029C574.557 348.693 575.101 348.693 575.439 349.032C575.776 349.372 575.776 349.918 575.436 350.256L561.673 363.962C560.642 365.568 560.501 367.553 561.295 369.291C561.953 370.733 563.146 371.795 564.653 372.281C566.162 372.771 567.748 372.607 569.127 371.823L579.947 363.775C579.985 363.747 580.029 363.738 580.068 363.717C580.44 363.195 580.858 362.697 581.37 362.265L590.086 354.928C590.451 354.622 591.001 354.672 591.305 355.033C591.611 355.398 591.564 355.945 591.2 356.252L582.484 363.589C579.928 365.74 579.597 369.571 581.749 372.129C582.79 373.366 584.264 374.114 585.868 374.263C587.48 374.403 589.049 373.904 590.287 372.862C590.41 372.76 590.553 372.71 590.699 372.686C590.737 372.652 590.763 372.611 590.803 372.579L597.807 367.609C598.196 367.334 598.737 367.424 599.012 367.815C599.288 368.206 598.822 367.763 598.432 368.038L594.898 370.787L591.2 373.929C588.701 376.037 589.031 379.884 591.183 382.442C593.584 385.296 596.899 385.087 601.034 381.849C601.271 381.565 601.539 381.298 601.834 381.056L606.963 376.843C607.331 376.538 607.879 376.593 608.179 376.963C608.482 377.331 608.43 377.876 608.059 378.179L602.93 382.393C602.78 382.516 602.653 382.658 602.524 382.796C602.471 382.897 602.396 382.988 602.302 383.064C602.291 383.073 602.28 383.079 602.27 383.088C601.171 384.506 601.04 386.494 602.05 388.057C602.679 389.031 603.653 389.695 604.787 389.931C605.937 390.171 607.081 389.943 608.051 389.301L615.359 384.434C615.359 384.434 615.359 384.434 615.362 384.433L625.876 377.516C637 370.2 640.223 355.114 633.062 343.889C626.882 334.197 614.584 330.093 603.816 334.133L603.819 334.138Z" fill="#FFBE97"/>
<path d="M574.759 341.784C573.371 344.837 571.636 351.614 570.942 354.621L571.289 355.315L606.33 334.152C607.256 333.92 608.273 333.18 604.943 332.07C600.779 330.682 576.493 337.968 574.759 341.784Z" fill="#FFBE97"/>
<path d="M403.642 373.578H511.006C521.666 373.578 530.321 382.233 530.321 392.893H403.642V373.578Z" fill="#FBE4C6"/>
<path d="M657 392.891H530.321C530.321 382.231 538.977 373.575 549.636 373.575H657V392.891Z" fill="#FBE4C6"/>
<path d="M413.524 360.911L417.67 374.977C418.595 378.108 421.855 380.019 425.091 379.325C428.328 378.634 430.495 375.559 430.007 372.335C429.985 372.189 430.003 372.053 430.042 371.923C429.96 371.618 429.859 371.32 429.811 371L427.888 357.939C427.88 357.906 427.858 357.877 427.853 357.841C427.595 356.114 426.654 354.615 425.195 353.622C423.737 352.628 421.982 352.285 420.25 352.655L418.256 353.081C416.523 353.451 415.07 354.482 414.164 355.982C413.258 357.481 413.029 359.232 413.524 360.908V360.911Z" fill="#FFBE97"/>
<path d="M427.155 357.735L429.291 372.229C429.767 375.456 432.728 377.791 436.031 377.546C439.333 377.3 441.902 374.552 441.878 371.291L441.775 356.645C441.775 356.584 441.775 356.521 441.772 356.459C441.711 354.784 440.992 353.245 439.734 352.104C438.429 350.921 436.738 350.344 434.97 350.475L432.935 350.626C431.167 350.759 429.584 351.582 428.476 352.945C427.367 354.306 426.899 356.008 427.154 357.735H427.155Z" fill="#FFBE97"/>
<path d="M407.282 377.2C407.282 377.2 407.282 377.2 407.282 377.202L407.332 377.326C408.483 380.138 411.677 381.605 414.605 380.668C417.53 379.731 419.244 376.695 418.49 373.754C418.48 373.713 418.49 373.673 418.485 373.63L414.891 361.438C414.822 361.206 414.776 360.968 414.729 360.731C414.278 358.985 413.173 357.519 411.689 356.711C410.398 356.008 408.976 355.873 407.573 356.323L405.753 356.905C404.185 357.408 402.94 358.492 402.244 359.963C401.547 361.433 401.503 363.07 402.116 364.576L407.28 377.199L407.282 377.2Z" fill="#FFBE97"/>
<path d="M408.191 377.881C408.191 377.881 408.191 377.878 408.191 377.876L403.802 367.147C403.738 367.071 403.677 366.993 403.64 366.897C403.182 365.727 402.362 364.88 401.27 364.445C400.105 363.984 398.764 364.051 397.489 364.638L396.044 365.303C394.842 365.857 393.953 366.845 393.542 368.089C393.133 369.335 393.261 370.65 393.902 371.794L399.537 381.818C400.737 383.958 403.441 384.824 405.69 383.789C407.982 382.736 409.08 380.14 408.194 377.879L408.191 377.881Z" fill="#FFBE97"/>
<path d="M392.572 368.291L395.22 374.321C399.912 368.667 428.335 363.196 442.133 361.364L441.698 355.411C441.534 353.172 440.601 351.014 438.841 349.62C423.028 337.101 400.537 345.993 392.555 361.498C391.465 363.615 391.614 366.111 392.572 368.291Z" fill="#FFBE97"/>
<path d="M409.018 380.613L403.498 368.047" stroke="#4F2B2B" stroke-width="1.86946" stroke-linecap="round"/>
<path d="M418.677 377.471L415.917 364.119" stroke="#4F2B2B" stroke-width="1.86946" stroke-linecap="round"/>
<path d="M430.405 375.113L428.336 361.761" stroke="#4F2B2B" stroke-width="1.86946" stroke-linecap="round"/>
<path d="M594.505 352.332L579.353 365.211C578.982 365.526 578.588 365.811 578.173 366.065L571.728 370.004" stroke="#4F2B2B" stroke-width="1.86946" stroke-linecap="round"/>
<path d="M591.362 372.754L604.714 363.329" stroke="#4F2B2B" stroke-width="1.86946" stroke-linecap="round"/>
<path d="M611.784 373.537L619.638 368.039" stroke="#4F2B2B" stroke-width="1.86946" stroke-linecap="round"/>
<path d="M641.522 393.02H49.2777C43.0765 393.02 43 394.604 43 396.558C43 398.513 43.0765 400.097 49.2777 400.097H641.522C647.723 400.097 647.799 398.513 647.799 396.558C647.799 394.604 647.723 393.02 641.522 393.02Z" fill="#307286"/>
<rect x="116.132" y="79.5547" width="273.766" height="148.875" rx="12.6612" fill="#8FC6D7"/>
<path fill-rule="evenodd" clip-rule="evenodd" d="M118.071 88.8457C111.079 88.8457 105.41 94.5143 105.41 101.507V225.059C105.41 232.052 111.079 237.72 118.071 237.72H274.874C276.207 251.071 270.174 257.729 261.094 267.75C260.215 268.719 259.308 269.72 258.376 270.762C291.29 265.615 307.033 258.409 326.659 237.72H366.515C373.508 237.72 379.176 232.052 379.176 225.059V101.507C379.176 94.5143 373.508 88.8457 366.515 88.8457H118.071Z" fill="#B1EDFC"/>
<mask id="mask1_736_59693" style="mask-type:alpha" maskUnits="userSpaceOnUse" x="105" y="88" width="275" height="150">
<rect x="105.41" y="88.8457" width="273.766" height="148.875" rx="12.6612" fill="#D9D9D9"/>
</mask>
<g mask="url(#mask1_736_59693)">
<path d="M261.95 126.018H334.859" stroke="#4F2B2B" stroke-width="3" stroke-linecap="round"/>
<path d="M261.95 146.018H334.859" stroke="#4F2B2B" stroke-width="3" stroke-linecap="round"/>
<path d="M261.95 166.018H334.859" stroke="#4F2B2B" stroke-width="3" stroke-linecap="round"/>
<path d="M261.95 186.018H334.859" stroke="#4F2B2B" stroke-width="3" stroke-linecap="round"/>
<path d="M195.361 165.721L201.9 189.917L192.745 178.8L195.361 165.721Z" fill="#F2AE54"/>
<path d="M171.164 159.834L148.603 178.471L153.181 250.406L207.786 246.483L201.901 189.916C201.901 189.916 186.211 168.369 171.165 159.834H171.164Z" fill="#F2AE54"/>
<path d="M173.884 192.058L163.192 211.304C168.752 216.935 179.958 228.54 180.3 229.908" stroke="#4F2B2B" stroke-width="1.5" stroke-linecap="round"/>
<path d="M181.006 145.16L199.583 153.697L192.484 169.147L173.906 160.61L181.006 145.16Z" fill="#FFBE97"/>
<path d="M195.474 162.472L197.619 157.826L184.752 150.32C187.326 154.895 192.377 160.804 195.474 162.472Z" fill="#4F2B2B"/>
<path d="M197.909 111.785C213.065 111.478 222.007 123.294 222.007 123.294C222.007 123.294 229.528 123.813 229.039 129.643C228.549 135.473 221.018 135.066 221.018 135.066L197.909 111.784V111.785Z" fill="#4F2B2B"/>
<path d="M179.039 129.604C175.483 140.394 183.127 154.124 194.903 158.817C206.679 163.509 218.129 157.387 221.685 146.596C225.24 135.805 218.577 123.253 206.8 118.561C195.024 113.87 182.595 118.814 179.039 129.605V129.604Z" fill="#FFBE97"/>
<path d="M202.618 146.301C200.976 145.233 200.11 143.651 200.684 142.768C201.259 141.885 203.056 142.035 204.698 143.103C206.341 144.171 207.207 145.753 206.632 146.636C206.058 147.519 204.261 147.369 202.618 146.301Z" fill="#FF9D6C"/>
<path d="M219.67 146.508L221.38 153.48C221.601 154.381 220.875 155.233 219.951 155.158L215.534 154.795L219.671 146.508H219.67Z" fill="#FFBE97"/>
<path d="M214.488 145.543C214.016 145.421 213.732 144.938 213.855 144.465L214.213 143.082C214.336 142.61 214.819 142.326 215.291 142.448C215.763 142.571 216.047 143.054 215.925 143.526L215.566 144.91C215.444 145.382 214.961 145.666 214.488 145.543Z" fill="#4F2B2B"/>
<path d="M217.675 140.541C217.925 140.541 218.166 140.405 218.288 140.167C218.462 139.828 218.328 139.414 217.99 139.241C216.373 138.409 214.482 138.046 212.673 138.211C212.295 138.245 212.015 138.58 212.051 138.959C212.086 139.338 212.407 139.618 212.799 139.581C214.354 139.436 215.973 139.752 217.361 140.464C217.462 140.516 217.569 140.541 217.675 140.541Z" fill="#4F2B2B"/>
<path d="M208.7 155.848C208.921 155.966 209.068 156.2 209.063 156.467C209.054 156.848 208.741 157.149 208.361 157.141C206.543 157.107 204.706 156.529 203.191 155.526C202.875 155.316 202.788 154.888 202.999 154.572C203.209 154.254 203.625 154.161 203.953 154.379C205.252 155.245 206.828 155.734 208.387 155.766C208.501 155.768 208.607 155.797 208.7 155.848Z" fill="#4F2B2B"/>
<path d="M222.597 123.001C222.597 123.001 213.653 111.185 198.498 111.492C183.343 111.8 174.705 119.203 174.137 128.64C173.57 138.077 180.514 145.44 180.514 145.44C180.514 145.44 198.35 128.915 198.498 129.83C198.647 130.745 222.597 123.002 222.597 123.002V123.001Z" fill="#4F2B2B"/>
<circle cx="11.5476" cy="11.5476" r="11.5476" transform="matrix(-1 0 0 1 198.263 115.932)" fill="#4F2B2B"/>
<path d="M179.077 142.049C179.311 142.049 179.54 141.93 179.669 141.714C179.864 141.389 179.758 140.967 179.434 140.77C179.215 140.637 174.317 137.537 174.849 128.682C175.435 118.938 184.733 112.461 198.538 112.181C213.092 111.867 221.986 123.304 222.074 123.418C222.193 123.576 222.376 123.674 222.573 123.69C222.61 123.692 226.224 123.972 228.006 126.054C228.762 126.937 229.076 127.998 228.968 129.294C228.54 134.384 222.281 134.116 221.999 134.108C221.639 134.061 221.805 134.371 221.786 134.749C221.765 135.128 222.194 138.579 222.573 138.599C225.414 138.761 229.908 134.545 230.339 129.409C230.479 127.748 230.045 126.315 229.048 125.153C227.203 123.003 223.989 122.466 222.979 122.346C221.594 120.666 212.868 110.799 199.095 110.799C198.901 110.799 198.707 110.8 198.51 110.804C183.933 111.1 174.107 118.085 173.476 128.599C172.891 138.342 178.486 141.808 178.724 141.951C178.835 142.018 178.957 142.05 179.077 142.05V142.049Z" fill="#4F2B2B"/>
<path d="M189.88 139.699C189.795 136.887 192.005 134.539 194.817 134.454C197.629 134.369 199.977 136.579 200.062 139.391C200.147 142.203 197.936 144.551 195.125 144.636C192.313 144.721 189.965 142.511 189.88 139.699Z" fill="#FFBE97"/>
<path d="M192.377 139.383L194.542 141.387C194.891 141.71 195.436 141.689 195.759 141.34C196.081 140.992 196.061 140.447 195.712 140.124L193.547 138.12C193.198 137.797 192.653 137.818 192.33 138.166C192.007 138.515 192.028 139.06 192.377 139.383Z" fill="#4F2B2B"/>
<path d="M222.353 124.561C222.353 124.561 219.431 133.8 209.528 132.064C199.625 130.329 195.927 127.309 195.927 127.309L209.816 119.217L222.352 124.561H222.353Z" fill="#4F2B2B"/>
<path d="M210.771 133.217C212.499 133.217 214.117 132.959 215.625 132.442C220.413 130.801 222.218 127.139 222.293 126.984C222.456 126.641 222.313 126.233 221.972 126.067C221.63 125.901 221.219 126.046 221.053 126.386C221.037 126.419 219.393 129.71 215.146 131.151C210.857 132.606 205.495 131.754 199.204 128.616C198.862 128.445 198.449 128.587 198.281 128.924C198.111 129.264 198.25 129.678 198.59 129.847C203.086 132.089 207.163 133.216 210.771 133.216V133.217Z" fill="#4F2B2B"/>
<path d="M176.404 138.871C176.775 138.871 177.08 138.576 177.092 138.202C177.257 132.643 179.08 127.055 182.224 122.471C182.438 122.157 182.359 121.729 182.046 121.515C181.733 121.3 181.304 121.381 181.089 121.692C177.797 126.493 175.889 132.342 175.715 138.163C175.705 138.542 176.002 138.86 176.384 138.872H176.404V138.871Z" fill="#4F2B2B"/>
<path d="M171.165 159.835L178.031 151.988L195.361 165.721L192.745 178.8L171.165 159.835Z" fill="#F2AE54"/>
<path d="M171.164 159.836C171.164 159.836 160.701 159.182 156.123 161.798C151.545 164.414 123.504 199.49 127.186 215.34C129.91 227.067 155.632 242.562 155.632 242.562L178.03 231.117L158.82 206.267L175.741 179.128L171.163 159.836H171.164Z" fill="#F2AE54"/>
<path d="M173.061 229.237L175.599 229.73C177.952 230.183 180.11 231.349 181.679 233.009C184.366 235.853 185.642 239.143 185.473 242.783C185.268 247.213 182.858 251.877 178.847 255.762L178.433 250.506L179.294 245.89C179.364 245.517 179.117 245.158 178.745 245.088C178.378 245.016 178.013 245.262 177.942 245.637L177.064 250.343C177.052 250.402 177.048 250.462 177.054 250.522L177.943 261.799C177.99 262.783 177.314 263.669 176.332 263.886C175.796 264.005 175.244 263.907 174.78 263.61C174.316 263.314 173.996 262.852 173.879 262.314L171.636 251.97L171.63 246.305C171.63 245.926 171.321 245.619 170.942 245.619H170.941C170.562 245.619 170.254 245.927 170.254 246.307L170.261 252.044C170.261 252.093 170.266 252.141 170.277 252.19L172.523 262.548C172.507 262.609 172.49 262.671 172.493 262.738C172.544 263.797 172.095 264.439 171.157 264.648C170.62 264.769 170.068 264.669 169.604 264.371C169.14 264.074 168.82 263.615 168.703 263.075L165.949 252.958L166.328 247.258C166.354 246.878 166.066 246.551 165.687 246.525C165.281 246.484 164.981 246.787 164.955 247.167L164.568 252.983C164.563 253.059 164.57 253.135 164.591 253.21L166.858 261.535C166.858 261.548 166.852 261.56 166.853 261.573C166.958 263.72 166.249 263.877 165.982 263.936C165.443 264.056 164.892 263.957 164.428 263.661C163.965 263.365 163.645 262.903 163.528 262.366L161.284 252.023L161.315 246.831C161.317 246.45 161.012 246.142 160.632 246.138C160.196 246.131 159.943 246.442 159.939 246.822L159.908 252.09C159.908 252.14 159.913 252.191 159.924 252.241L162.026 261.927C161.217 262.097 160.608 261.915 160.237 261.698C159.725 261.398 159.362 260.909 159.242 260.351L158.243 257.791C157.422 255.702 156.84 253.516 156.513 251.292L156.094 248.44C155.708 245.827 155.995 243.148 156.923 240.69C159.087 234.95 163.667 228.318 173.06 229.239L173.061 229.237Z" fill="#FFBE97"/>
<path d="M154.732 248.642L155.151 251.492C155.494 253.82 156.103 256.108 156.964 258.294L157.93 260.748C158.099 261.575 158.7 262.393 159.543 262.887C160.11 263.217 160.754 263.385 161.427 263.385C161.739 263.385 162.058 263.336 162.379 263.264C162.645 263.899 163.093 264.44 163.685 264.82C164.244 265.179 164.881 265.363 165.53 265.363C165.778 265.363 166.03 265.336 166.28 265.281C166.909 265.141 167.379 264.797 167.706 264.271C167.977 264.769 168.362 265.209 168.861 265.529C169.421 265.887 170.057 266.073 170.706 266.073C170.954 266.073 171.205 266.046 171.453 265.99C172.448 265.769 173.173 265.203 173.557 264.39C173.706 264.528 173.864 264.658 174.038 264.769C174.597 265.127 175.233 265.311 175.881 265.311C176.129 265.311 176.38 265.284 176.63 265.229C178.268 264.866 179.398 263.386 179.316 261.71L178.986 257.526C183.746 253.26 186.614 247.925 186.848 242.843C187.032 238.872 185.59 235.143 182.679 232.06C180.915 230.193 178.492 228.883 175.859 228.376L173.259 227.875C162.346 226.795 157.548 235.133 155.636 240.2C154.626 242.876 154.313 245.794 154.731 248.639L154.732 248.642Z" fill="#FFBE97"/>
<path d="M232.194 174.84L238.253 163.092L249.042 156.033L259.817 176.531L239.874 187.688L232.194 174.84Z" fill="#FFBE97"/>
<path d="M249.042 156.035L268.483 152.03C269.799 151.758 271.104 152.545 271.479 153.834C271.845 155.084 271.221 156.408 270.025 156.926L249.725 165.696L249.036 156.035H249.042Z" fill="#FFBE97"/>
<path d="M261.718 159.266L262.62 161.955C263.034 163.191 262.579 164.556 261.5 165.292L261.389 165.368L262.222 167.706C262.623 168.828 262.299 170.081 261.405 170.869L261.326 170.937L261.8 172.871C262.094 174.07 261.609 175.326 260.585 176.015L259.817 176.533L246.14 168.534L245.781 163.284L261.718 159.268V159.266Z" fill="#FFBE97"/>
<path d="M255.643 162.743L262.193 160.935L262.194 160.935C262.477 160.856 262.653 160.564 262.572 160.272C262.494 159.979 262.193 159.817 261.91 159.891L261.91 159.891L261.908 159.892L255.353 161.701L255.353 161.701L255.352 161.701C255.069 161.781 254.892 162.073 254.974 162.366C254.974 162.366 254.974 162.366 254.974 162.366L255.215 162.299C255.25 162.427 255.367 162.511 255.495 162.511L255.643 162.743ZM255.643 162.743C255.587 162.76 255.534 162.764 255.495 162.764H255.245V162.7L255.643 162.743Z" fill="#4F2B2B" stroke="#4F2B2B" stroke-width="0.5"/>
<path d="M256.21 167.105L256.21 167.105C256.281 167.337 256.493 167.49 256.727 167.49C256.785 167.49 256.84 167.479 256.884 167.466L256.884 167.466C257.097 167.401 258.143 167.085 259.206 166.74C259.738 166.568 260.275 166.388 260.716 166.228C261.145 166.073 261.513 165.927 261.68 165.822L261.68 165.822C261.931 165.663 262.005 165.33 261.849 165.078L261.849 165.078L261.848 165.076C261.689 164.825 261.356 164.752 261.104 164.908L261.104 164.908L261.103 164.908C261.037 164.95 260.833 165.036 260.506 165.157C260.19 165.273 259.784 165.412 259.337 165.56C258.443 165.855 257.391 166.184 256.571 166.431L256.57 166.431C256.285 166.518 256.124 166.821 256.21 167.105ZM261.547 165.611C260.988 165.962 257.237 167.098 256.812 167.226L261.236 165.12C261.372 165.036 261.552 165.077 261.637 165.21C261.721 165.346 261.68 165.526 261.547 165.611Z" fill="#4F2B2B" stroke="#4F2B2B" stroke-width="0.5"/>
<path d="M257.065 172.405L257.065 172.406C257.142 172.631 257.355 172.771 257.577 172.771C257.636 172.771 257.697 172.761 257.756 172.741L261.503 171.447L261.503 171.447L261.505 171.446C261.786 171.346 261.934 171.042 261.838 170.76L261.838 170.76L261.836 170.756C261.736 170.475 261.432 170.328 261.15 170.424L261.15 170.424L261.149 170.424L257.4 171.718L257.4 171.718L257.398 171.719C257.117 171.819 256.969 172.123 257.065 172.405Z" fill="#4F2B2B" stroke="#4F2B2B" stroke-width="0.5"/>
<path d="M232.902 172.129C232.902 172.129 215.638 180.719 206.822 179.313C200.932 178.373 196.63 174.692 193.502 170.129C183.234 173.635 173.274 178.174 165.079 185.421C165.534 186.797 166.046 188.213 166.637 189.69C180.355 223.984 230.505 210.447 242.214 191.286L232.9 172.126L232.902 172.129Z" fill="#F2AE54"/>
</g>
<path d="M100.263 284.227H284.516L277.537 400.272H107.242L100.263 284.227Z" fill="#357E94"/>
<path d="M192.736 353.923C204.576 353.923 214.174 351.09 214.174 347.595C214.174 344.101 204.576 341.268 192.736 341.268C180.896 341.268 171.298 344.101 171.298 347.595C171.298 351.09 180.896 353.923 192.736 353.923Z" fill="#FFF4E9"/>
</g>
</svg>
