<svg width="470" height="250" viewBox="0 0 470 250" fill="none" xmlns="http://www.w3.org/2000/svg">
<mask id="mask0_926_10521" style="mask-type:alpha" maskUnits="userSpaceOnUse" x="0" y="0" width="470" height="250">
<path d="M0 20C0 8.9543 8.9543 0 20 0H450C461.046 0 470 8.9543 470 20V250H0V20Z" fill="#F7FDFE"/>
</mask>
<g mask="url(#mask0_926_10521)">
<path d="M270.219 104.043L301.056 84.3614L292.015 82.779L307.647 69.0939L294.479 68.3901L308.55 54.1629L281.387 55.2604L269.613 75.8867L283.464 74.1089L272.248 85.1533L283.829 85.2612L270.219 104.043Z" fill="#EF9C2E"/>
<path d="M281.385 55.4438L268.701 76.0548L279.037 75.2332L271.638 85.8228L281.83 86.2127L275.478 94.8789" stroke="#4F2B2B" stroke-width="1.5" stroke-linecap="round"/>
<path d="M279.295 107.868L298.411 115.739L296.207 111.044L307.613 113.83L303.662 107.511L314.812 109.398L305.483 97.192L292.12 98.4443L297.44 104.273L288.69 102.672L292.401 108.064L279.295 107.868Z" fill="#EF9C2E"/>
<path d="M303.988 96.2124L291.037 98.362L295.761 103.427L288.087 102.517L291.195 107.391L285.137 106.672" stroke="#4F2B2B" stroke-width="1.5" stroke-linecap="round"/>
<path d="M213.922 127.106L207.863 129.309L210.894 249.998H258.542L256.004 127.106L254.358 126.626L213.922 127.106Z" fill="#FBE4C6"/>
<path d="M249.22 116.757L249.372 126.108L253.032 126.657C253.032 126.657 252.357 136.712 236.936 150.423C233.771 153.235 229.107 153.244 225.899 150.485C220.279 145.651 212.76 137.155 214.16 127.136L220.903 126.657V118.381L249.217 116.754L249.22 116.757Z" fill="#FFBE97"/>
<path d="M249.372 124.888V118.787L223.75 123.261C235.463 128.792 246.118 125.972 249.372 124.888Z" fill="#4F2B2B"/>
<path d="M231.302 71.4617C231.302 71.4617 224.054 70.5052 231.302 71.4625C240.172 68.5424 252.177 72.4442 256.769 75.9058C256.769 75.9058 266.867 82.1796 269.062 94.2032C271.256 106.227 258.086 118.338 236.133 119.904C214.181 121.474 204.082 104.658 203.533 102.479C203.533 102.479 196.289 99.0806 199.472 89.9319C199.472 89.9319 202.356 97.2265 198.952 96.7025C198.952 96.7025 196.728 89.4078 202.544 81.9161C208.361 74.4245 217.474 67.7144 231.302 71.4617Z" fill="#4F2B2B"/>
<path d="M260.444 103.204C260.444 103.204 263.664 101.964 265.034 104.719C267.611 109.669 261.901 116.602 255.788 114.307C251.101 114.597 255.788 104.611 260.444 103.208V103.204Z" fill="#FFBE97"/>
<path d="M208.292 105.046C208.292 105.046 204.854 103.957 202.963 104.829C198.813 106.743 203.454 115.574 209.516 116.754C214.606 117.456 210.255 107.319 208.295 105.048L208.292 105.046Z" fill="#FFBE97"/>
<path d="M241.092 124.931C241.092 124.931 252.18 122.847 256.049 115.235C259.918 107.622 260.828 103.281 260.144 100.846C259.459 98.4103 258.094 97.1927 254.34 95.5939C250.585 93.9951 242.762 90.2114 242.537 87.4717C242.537 87.4717 237.81 95.9582 230.981 94.2059C224.153 92.4537 228.51 88.6641 219.292 91.6314C210.074 94.6013 205.542 100.85 206.907 105.57C208.272 110.29 208.938 112.72 210.758 115.537C212.578 118.353 215.767 121.551 223.161 124.293C230.555 127.032 241.092 124.931 241.092 124.931Z" fill="#FFBE97"/>
<path d="M208.631 111.616L205.185 111.444C204.63 111.417 204.202 110.945 204.23 110.39C204.257 109.835 204.729 109.407 205.284 109.435L208.73 109.607C209.285 109.634 209.713 110.106 209.685 110.661C209.658 111.216 209.185 111.644 208.631 111.616Z" fill="#4F2B2B"/>
<path d="M261.6 109.005L258.154 109.175C257.6 109.202 257.127 108.775 257.1 108.219C257.072 107.664 257.5 107.192 258.056 107.164L261.502 106.994C262.057 106.967 262.529 107.394 262.556 107.95C262.584 108.505 262.156 108.977 261.6 109.005Z" fill="#4F2B2B"/>
<path d="M222.122 103.67C221.643 103.674 221.251 103.288 221.247 102.809L221.235 101.238C221.232 100.758 221.617 100.367 222.097 100.362C222.576 100.359 222.968 100.744 222.972 101.224L222.984 102.795C222.987 103.275 222.602 103.666 222.122 103.67Z" fill="#4F2B2B"/>
<path d="M242.392 103.67C241.912 103.674 241.521 103.288 241.517 102.809L241.505 101.238C241.502 100.758 241.887 100.367 242.366 100.362C242.846 100.359 243.237 100.744 243.242 101.224L243.253 102.795C243.257 103.275 242.871 103.666 242.392 103.67Z" fill="#4F2B2B"/>
<path d="M249.822 98.7872C249.617 98.7872 249.416 98.6875 249.293 98.5039C247.88 96.3715 240.778 95.3922 237.998 96.5168C237.673 96.6473 237.306 96.4924 237.175 96.1678C237.045 95.8442 237.2 95.476 237.524 95.3445C240.593 94.1021 248.468 94.9689 250.349 97.8048C250.542 98.0965 250.462 98.488 250.171 98.6811C250.063 98.7522 249.941 98.7862 249.822 98.7862V98.7872Z" fill="#4F2B2B"/>
<path d="M216.76 98.8478C216.595 98.8478 216.431 98.7841 216.307 98.6568C216.063 98.4065 216.068 98.0065 216.317 97.7625C218.79 95.352 222.961 95.0804 225.788 95.8464C226.126 95.9376 226.324 96.2846 226.233 96.622C226.142 96.9593 225.794 97.1609 225.457 97.0665C222.882 96.3673 219.223 96.6941 217.201 98.6674C217.078 98.7873 216.919 98.8467 216.76 98.8467V98.8478Z" fill="#4F2B2B"/>
<path d="M222.557 108.941C222.562 107.709 220.71 106.703 218.42 106.693C216.129 106.683 214.268 107.673 214.263 108.905C214.257 110.136 216.11 111.143 218.4 111.153C220.691 111.163 222.552 110.173 222.557 108.941Z" fill="#FF9D6C"/>
<path d="M252.366 108.939C252.371 107.707 250.519 106.701 248.228 106.691C245.938 106.681 244.077 107.671 244.071 108.903C244.066 110.134 245.918 111.141 248.209 111.151C250.499 111.161 252.36 110.171 252.366 108.939Z" fill="#FF9D6C"/>
<path d="M232.727 111.596C232.61 111.596 232.492 111.564 232.386 111.496C232.091 111.307 232.006 110.917 232.195 110.623C232.797 109.684 232.941 108.244 232.573 106.865C232.153 105.289 231.162 104.025 229.783 103.308C229.474 103.147 229.354 102.765 229.515 102.455C229.675 102.145 230.057 102.022 230.368 102.186C232.064 103.069 233.281 104.615 233.795 106.539C234.259 108.277 234.059 110.059 233.259 111.305C233.139 111.494 232.934 111.597 232.727 111.597V111.596Z" fill="#4F2B2B"/>
<path d="M234.783 118.774C231.458 118.774 228.124 117.591 225.597 115.425C225.332 115.198 225.302 114.799 225.529 114.534C225.758 114.269 226.156 114.239 226.421 114.466C229.428 117.045 233.695 118.093 237.557 117.197C237.901 117.121 238.237 117.33 238.316 117.67C238.394 118.011 238.182 118.35 237.843 118.429C236.84 118.661 235.811 118.773 234.783 118.773V118.774Z" fill="#4F2B2B"/>
<path d="M211.429 128.016C211.429 128.016 211.915 163.597 214.46 190.183C217.005 216.769 223.395 249.999 223.395 249.999H182.495C182.495 249.999 181.471 207.692 185.307 192.483C185.307 192.483 174.562 217.536 156.045 225.9C138.913 233.64 134.948 216.64 134.181 202.581C133.414 188.521 135.331 165.131 135.331 165.131L167.56 161.063C167.56 161.063 172.269 139.695 211.429 128.016Z" fill="#3F97B1"/>
<path d="M256.003 127.106C256.003 127.106 247.735 192.739 253.14 249.998H287.427C287.427 249.998 286.148 215.106 283.336 193.377C283.336 193.377 293.688 214.21 305.577 222.517C317.462 230.824 332.929 229.674 335.867 213.569C338.807 197.465 333.438 157.779 333.438 157.779L302.891 162.06C302.891 162.06 302.024 148.564 289.726 141.864C269.212 130.694 256.003 127.1 256.003 127.1V127.106Z" fill="#3F97B1"/>
<path d="M333.439 157.786C333.439 157.786 329.413 161.909 311.678 164.785C296.942 167.175 298.025 161.12 302.573 159.896C315.034 156.54 330.373 157.31 333.439 157.786Z" fill="#2B6577"/>
<path d="M311.681 164.781C316.355 164.024 320.056 163.18 323.003 162.346C322.958 162.24 313.881 140.708 311.633 135.161C309.382 129.602 300.994 121.118 298.308 118.96C295.625 116.802 291.934 118 285.224 120.493C278.515 122.986 275.542 124.519 276.07 126.387C276.599 128.256 280.335 132.713 280.335 132.713C277.269 137.744 282.11 139.039 282.11 139.039C281.056 142.682 284.603 144.312 284.603 144.312C282.445 145.272 282.351 148.145 287.096 150.113C291.84 152.078 291.937 149.826 291.937 149.826C293.232 156.056 298.424 156.313 298.424 156.313L299.616 162.981C299.664 163.145 299.728 163.277 299.777 163.438C300.537 164.939 303.877 166.044 311.684 164.778L311.681 164.781Z" fill="#FFBE97"/>
<path d="M280.334 132.716C280.334 132.716 285.413 128.451 293.034 128.02" stroke="#4F2B2B" stroke-width="1.5" stroke-linecap="round" stroke-linejoin="round"/>
<path d="M282.107 139.042C282.107 139.042 285.464 136.069 293.803 134.729" stroke="#4F2B2B" stroke-width="1.5" stroke-linecap="round" stroke-linejoin="round"/>
<path d="M284.6 144.314C284.6 144.314 289.653 142.063 294.027 141.821" stroke="#4F2B2B" stroke-width="1.5" stroke-linecap="round" stroke-linejoin="round"/>
<path d="M291.933 149.824C291.933 149.824 292.555 148.674 288.818 147.189" stroke="#4F2B2B" stroke-width="1.5" stroke-linecap="round" stroke-linejoin="round"/>
<path d="M135.331 165.131C135.331 165.131 139.412 168.416 157.346 167.363C172.25 166.487 169.876 160.815 165.17 160.609C152.276 160.048 138.22 163.994 135.331 165.131Z" fill="#2B6577"/>
<path d="M183.123 120.492C176.414 117.999 172.723 116.801 170.04 118.959C167.356 121.117 158.969 129.601 156.714 135.16C154.469 140.697 144.024 167.08 143.943 167.276C147.18 167.589 151.522 167.708 157.346 167.363C165.395 166.89 168.397 165.019 168.719 163.363C168.735 163.25 168.745 163.173 168.751 163.141C168.751 163.131 168.748 163.118 168.748 163.108H168.758L169.924 156.312C169.924 156.312 175.116 156.058 176.411 149.825C176.411 149.825 176.507 152.077 181.252 150.112C185.996 148.147 185.899 145.271 183.745 144.311C183.745 144.311 187.291 142.681 186.238 139.038C186.238 139.038 191.079 137.743 188.012 132.712C188.012 132.712 191.752 128.255 192.277 126.386C192.805 124.518 189.832 122.982 183.123 120.492Z" fill="#FFBE97"/>
<path d="M188.01 132.717C188.01 132.717 182.93 128.452 175.31 128.021" stroke="#4F2B2B" stroke-width="1.5" stroke-linecap="round" stroke-linejoin="round"/>
<path d="M186.238 139.04C186.238 139.04 182.882 136.067 174.543 134.728" stroke="#4F2B2B" stroke-width="1.5" stroke-linecap="round" stroke-linejoin="round"/>
<path d="M183.745 144.312C183.745 144.312 178.691 142.061 174.317 141.819" stroke="#4F2B2B" stroke-width="1.5" stroke-linecap="round" stroke-linejoin="round"/>
<path d="M176.411 149.827C176.411 149.827 175.789 148.677 179.525 147.192" stroke="#4F2B2B" stroke-width="1.5" stroke-linecap="round" stroke-linejoin="round"/>
<path d="M168.574 165.385L166.136 199.388" stroke="#4F2B2B" stroke-width="1.5" stroke-linecap="round" stroke-linejoin="round"/>
<path d="M299.773 165.816L302.254 198.95" stroke="#4F2B2B" stroke-width="1.5" stroke-linecap="round" stroke-linejoin="round"/>
<path d="M185.308 192.484L190.931 161.553" stroke="#4F2B2B" stroke-width="1.5" stroke-linecap="round" stroke-linejoin="round"/>
<path d="M283.337 193.379L277.713 160.555" stroke="#4F2B2B" stroke-width="1.5" stroke-linecap="round" stroke-linejoin="round"/>
<path d="M199.718 145.225C199.718 145.225 202.977 151.361 207.004 153.468C207.004 153.468 200.868 161.571 200.581 165.334C200.391 167.804 209.593 183.113 215.536 200.696C213.191 174.433 211.429 128.016 211.429 128.016C211.429 128.016 207.867 137.459 199.718 145.225Z" fill="#2B6577"/>
<path d="M265.828 155.417L257.904 150.689L265.828 141.587C265.828 141.587 262.439 139.042 259.325 134.327C256.967 130.758 256.007 127.108 256.007 127.108C256.007 127.108 250.451 167.019 251.443 202.43L265.831 155.421L265.828 155.417Z" fill="#2B6577"/>
<path d="M216.029 144.729C216.029 144.729 224.945 154.882 231.88 157.606C236.392 159.378 241.784 151.416 248.719 143.74" stroke="#4F2B2B" stroke-width="1.5" stroke-linecap="round" stroke-linejoin="round"/>
</g>
</svg>
