<svg width="101" height="100" viewBox="0 0 101 100" fill="none" xmlns="http://www.w3.org/2000/svg">
<path d="M88.8011 54.8311H82.0215V98.3724H88.8011H98.9706V54.8311H88.8011Z" fill="#DF8711"/>
<path d="M78.8362 38.7046C79.3277 34.4794 80.7176 30.3994 82.9379 26.6903C83.7006 25.4164 84.8023 24.3843 86.0904 23.6747C86.226 23.6102 89.3955 22.6266 89.3955 22.6266L90.3955 22.5781C95.1243 22.5781 98.9718 26.2388 98.9718 30.7381V54.831H78.6328V45.1551L78.8362 38.7046Z" fill="#F5C07A"/>
<path d="M91.1929 23.5291C91.82 24.1096 92.1929 24.9159 92.1929 25.8028V41.9293C92.1929 43.7032 90.6674 45.1546 88.803 45.1546H68.464C66.5996 45.1546 65.0742 43.7032 65.0742 41.9293C65.0742 41.0423 65.4471 40.236 66.0742 39.6555C66.6844 39.0588 67.5318 38.704 68.464 38.704H85.4132V25.8028C85.4132 24.8836 85.82 24.045 86.481 23.4645C87.3454 23.1097 87.3963 23.0936 89.3963 22.626C90.0912 22.7389 90.7183 23.0614 91.1929 23.5291Z" fill="#F8D2A0"/>
<path d="M97.2773 9.67649V14.5144C97.2773 18.9653 93.4807 22.5776 88.8027 22.5776C84.1247 22.5776 80.3281 18.9653 80.3281 14.5144V9.67649C80.3281 5.2256 84.1247 1.61328 88.8027 1.61328C91.1417 1.61328 93.2603 2.51635 94.8027 3.96773C96.3281 5.43523 97.2773 7.45105 97.2773 9.67649Z" fill="#F8D2A0"/>
<path d="M46.4297 1.61328H73.5483V14.5144H63.3788V19.3524L54.9043 14.5144H46.4297V1.61328Z" fill="#E4E4E4"/>
<path d="M37.9551 27.416H58.2941V40.3172H53.2093L48.1246 43.5424V40.3172H37.9551V27.416Z" fill="#E4E4E4"/>
<path d="M68.4632 66.1191V98.372H36.2598V88.6961V82.2456V75.795V69.3444V66.1191H68.4632Z" fill="#141414"/>
<path d="M71.853 59.6689V66.1195H68.4632H36.2598V59.6689H43.0394H44.7343H71.853Z" fill="#D6D6D6"/>
<path d="M15.9199 75.7951H21.0046L18.6656 82.0198L16.1572 88.6962L13.225 96.5336C12.8013 97.6302 11.6996 98.3721 10.4792 98.3721H10.3606C8.7504 98.3721 7.44531 97.1304 7.44531 95.5984C7.44531 95.292 7.49615 95.0016 7.59785 94.7275L14.225 75.7951L14.2758 75.6016C14.8012 75.7306 15.3606 75.7951 15.9199 75.7951Z" fill="#DF8711"/>
<path d="M36.2599 82.2453V88.6959H16.1582L18.6666 82.0195L19.3107 82.2453H36.2599Z" fill="#DF8711"/>
<path d="M36.2596 69.3436V75.7942H15.9206C15.3613 75.7942 14.802 75.7297 14.2766 75.6007C11.3274 74.9072 9.14099 72.3592 9.14099 69.3436V53.2172H5.75116C4.81896 53.2172 3.97149 52.8623 3.36132 52.2657C2.7342 51.6851 2.36133 50.8788 2.36133 49.9919C2.36133 48.218 3.88675 46.7666 5.75116 46.7666H15.9206L16.4461 46.8634C16.0901 48.6695 15.9206 50.5079 15.9206 52.3624V67.731C15.9206 68.6179 16.6834 69.3436 17.6156 69.3436H36.2596Z" fill="#D6D6D6"/>
<path d="M36.2589 66.1184V69.3437H17.6148C16.6826 69.3437 15.9199 68.618 15.9199 67.7311V52.3625C15.9199 50.508 16.0894 48.6696 16.4453 46.8635C16.9369 44.3155 17.7674 41.832 18.9369 39.4775C20.0725 40.0097 21.3437 40.3161 22.6996 40.3161C23.0386 40.3161 23.3775 40.3001 23.6996 40.2517V40.3806C22.3267 40.9773 22.1572 41.1225 22.0047 41.2676C21.3775 41.8482 21.0047 42.6545 21.0047 43.5414V56.4426C21.0047 58.2165 22.5301 59.6679 24.3945 59.6679H36.2589V66.1184Z" fill="#B06D6D"/>
<path d="M21.0059 43.5417C21.0059 42.6547 21.3787 41.8485 22.0059 41.2679C22.1584 41.1228 22.3279 40.9776 23.7177 40.3809C23.9381 40.3325 24.1584 40.3164 24.3957 40.3164C26.2601 40.3164 27.7855 41.7678 27.7855 43.5417V53.2175H44.7347C45.6669 53.2175 46.5143 53.5724 47.1245 54.1691C47.7516 54.7496 48.1245 55.5559 48.1245 56.4428C48.1245 58.2167 46.5991 59.6681 44.7347 59.6681H24.3957C22.5313 59.6681 21.0059 58.2167 21.0059 56.4428V43.5417Z" fill="#F8D2A0"/>
<path d="M18.9365 39.4783C16.1399 38.1559 14.2246 35.4145 14.2246 32.2537V27.4158C14.2246 22.9649 18.0212 19.3525 22.6992 19.3525C25.0382 19.3525 27.1568 20.2557 28.6992 21.707C30.2246 23.1745 31.1738 25.1903 31.1738 27.4158V32.2537C31.1738 36.382 27.9026 39.7848 23.6992 40.2524C23.3771 40.3008 23.0382 40.3169 22.6992 40.3169C21.3433 40.3169 20.0721 40.0105 18.9365 39.4783Z" fill="#F8D2A0"/>
<path d="M22.7007 41.9289C17.0906 41.9289 12.5312 37.5909 12.5312 32.253V27.4151C12.5312 22.0773 17.0906 17.7393 22.7007 17.7393C28.3109 17.7393 32.8702 22.0773 32.8702 27.4151V32.253C32.8702 37.5909 28.3109 41.9289 22.7007 41.9289ZM22.7007 20.9645C18.955 20.9645 15.9211 23.8512 15.9211 27.4151V32.253C15.9211 35.817 18.955 38.7036 22.7007 38.7036C26.4465 38.7036 29.4804 35.817 29.4804 32.253V27.4151C29.4804 23.8512 26.4465 20.9645 22.7007 20.9645Z" fill="black"/>
<path d="M88.8023 24.1896C83.1921 24.1896 78.6328 19.8516 78.6328 14.5138V9.67586C78.6328 4.33801 83.1921 0 88.8023 0C94.4125 0 98.9718 4.33801 98.9718 9.67586V14.5138C98.9718 19.8516 94.4125 24.1896 88.8023 24.1896ZM88.8023 3.22529C85.0565 3.22529 82.0226 6.11192 82.0226 9.67586V14.5138C82.0226 18.0777 85.0565 20.9644 88.8023 20.9644C92.5481 20.9644 95.582 18.0777 95.582 14.5138V9.67586C95.582 6.11192 92.5481 3.22529 88.8023 3.22529Z" fill="black"/>
<path d="M44.7353 61.2801H24.3963C21.5997 61.2801 19.3115 59.1031 19.3115 56.4422V43.5411C19.3115 40.8802 21.5997 38.7031 24.3963 38.7031C27.1929 38.7031 29.481 40.8802 29.481 43.5411V51.6043H44.7353C47.5319 51.6043 49.82 53.7813 49.82 56.4422C49.82 59.1031 47.5319 61.2801 44.7353 61.2801ZM24.3963 41.9284C23.4641 41.9284 22.7014 42.6541 22.7014 43.5411V56.4422C22.7014 57.3291 23.4641 58.0548 24.3963 58.0548H44.7353C45.6675 58.0548 46.4302 57.3291 46.4302 56.4422C46.4302 55.5552 45.6675 54.8296 44.7353 54.8296H26.0912V43.5411C26.0912 42.6541 25.3285 41.9284 24.3963 41.9284Z" fill="black"/>
<path d="M88.8026 46.7671H68.4637C65.667 46.7671 63.3789 44.5901 63.3789 41.9292C63.3789 39.2683 65.667 37.0913 68.4637 37.0913H83.7179V25.8028C83.7179 23.1419 86.006 20.9648 88.8026 20.9648C91.5992 20.9648 93.8874 23.1419 93.8874 25.8028V41.9292C93.8874 44.5901 91.5992 46.7671 88.8026 46.7671ZM68.4637 40.3166C67.5314 40.3166 66.7687 41.0422 66.7687 41.9292C66.7687 42.8162 67.5314 43.5418 68.4637 43.5418H88.8026C89.7348 43.5418 90.4976 42.8162 90.4976 41.9292V25.8028C90.4976 24.9158 89.7348 24.1901 88.8026 24.1901C87.8704 24.1901 87.1077 24.9158 87.1077 25.8028V40.3166H68.4637Z" fill="black"/>
<path d="M36.2595 70.9561H17.6154C15.751 70.9561 14.2256 69.5047 14.2256 67.7308V52.3623C14.2256 47.3953 15.4628 42.4284 17.8018 37.9775L20.8357 39.4128C18.7341 43.4122 17.6324 47.8792 17.6324 52.3462V67.7147H36.2765V70.94L36.2595 70.9561Z" fill="black"/>
<path d="M36.2602 77.4062H15.9212C11.2433 77.4062 7.44665 73.7939 7.44665 69.343V54.8292H5.75174C2.95513 54.8292 0.666992 52.6521 0.666992 49.9912C0.666992 47.3304 2.95513 45.1533 5.75174 45.1533H15.9212V48.3786H5.75174C4.81953 48.3786 4.05682 49.1043 4.05682 49.9912C4.05682 50.8782 4.81953 51.6039 5.75174 51.6039H10.8365V69.343C10.8365 72.0038 13.1246 74.1809 15.9212 74.1809H36.2602V77.4062Z" fill="black"/>
<path d="M70.1586 99.984H34.5654V59.668H37.9553V96.7588H66.7688V66.1185H70.1586V99.984Z" fill="black"/>
<path d="M73.5479 67.7315H36.2598V64.5062H70.1581V61.2809H43.0394V58.0557H73.5479V67.7315Z" fill="black"/>
<path d="M10.4808 99.9841C7.81976 99.9841 5.75195 98.0167 5.75195 95.5977C5.75195 95.1301 5.83672 94.6623 5.98927 94.2108L12.6163 75.2784L15.8367 76.2944L9.20959 95.2268C9.1757 95.3396 9.14178 95.4687 9.14178 95.5977C9.14178 96.2428 9.68416 96.7588 10.3621 96.7588C10.9892 96.7588 11.4469 96.4524 11.6333 95.9848L19.413 75.2461L22.5994 76.3266L14.8198 97.0652C14.1587 98.8069 12.413 99.9841 10.4808 99.9841Z" fill="black"/>
<path d="M36.2599 87.083H15.9209V90.3083H36.2599V87.083Z" fill="black"/>
<path d="M36.2607 80.6328H19.3115V83.8581H36.2607V80.6328Z" fill="black"/>
<path d="M90.4982 54.8301H87.1084V98.3714H90.4982V54.8301Z" fill="black"/>
<path d="M98.9714 56.4418H76.9375V45.1533H80.3273V53.2165H98.9714V56.4418Z" fill="black"/>
<path d="M100.667 99.9838H80.3281V54.8298H83.7179V96.7585H97.2772V30.7369C97.2772 27.1246 94.1925 24.1896 90.3959 24.1896C87.9382 24.1896 85.6331 25.4475 84.4128 27.4955C82.2942 31.0111 80.989 34.8492 80.5145 38.8808L77.1416 38.526C77.667 34.0429 79.1247 29.8016 81.4637 25.899C83.2942 22.8672 86.7009 20.9805 90.3789 20.9805C96.0399 20.9805 100.65 25.3669 100.65 30.7531V100L100.667 99.9838Z" fill="black"/>
<path d="M68.464 6.4502H65.0742V9.67548H68.464V6.4502Z" fill="black"/>
<path d="M61.6838 6.4502H58.2939V9.67548H61.6838V6.4502Z" fill="black"/>
<path d="M54.9045 6.4502H51.5146V9.67548H54.9045V6.4502Z" fill="black"/>
<path d="M65.0734 22.2061L54.4293 16.1264H44.7344V0H75.2429V16.1264H65.0734V22.2061ZM48.1242 12.9011H55.3784L61.6835 16.4974V12.9011H71.853V3.22529H48.1242V12.9011Z" fill="black"/>
<path d="M46.4299 32.2529H43.04V35.4782H46.4299V32.2529Z" fill="black"/>
<path d="M53.2101 32.2529H49.8203V35.4782H53.2101V32.2529Z" fill="black"/>
<path d="M46.4293 46.5574V41.9292H36.2598V25.8027H59.9886V41.9292H53.7174L46.4293 46.5574ZM39.6496 38.7039H49.8191V40.5262L52.7005 38.7039H56.5987V29.028H39.6496V38.7039Z" fill="black"/>
</svg>
