<svg width="470" height="250" viewBox="0 0 470 250" fill="none" xmlns="http://www.w3.org/2000/svg">
<mask id="mask0_926_10570" style="mask-type:alpha" maskUnits="userSpaceOnUse" x="0" y="0" width="470" height="250">
<path d="M0 20C0 8.9543 8.9543 0 20 0H450C461.046 0 470 8.9543 470 20V250H0V20Z" fill="#F7FDFE"/>
</mask>
<g mask="url(#mask0_926_10570)">
<path d="M188.385 261.097C188.385 261.097 180.151 277.686 180.296 300.427C180.441 323.167 201.422 346.454 211.984 359.9L311.893 320.085C311.893 320.085 301.469 282.658 292.083 266.747C282.697 250.837 198.526 232.617 188.381 261.093L188.385 261.097Z" fill="#DF8711"/>
<path d="M289.01 187.163L313.215 169.409C313.215 169.409 299.231 142.533 268.097 137.187C268.097 137.168 268.12 137.149 268.12 137.126C267.883 129.213 241.949 105.884 211.249 111.276C180.55 116.667 175.818 131.521 176.833 139.224C177.848 146.928 186.139 150.526 186.139 150.526C186.139 150.526 186.158 150.526 186.162 150.526C186.162 150.526 167.31 159.95 166.573 185.549C166.573 185.549 180.656 190.059 204.095 189.62L181.98 251.126C181.98 251.126 187.295 273.352 232.174 278.415C277.048 283.474 294.141 264.919 294.141 264.919C294.141 264.919 295.465 255.823 291.207 247.314C286.949 238.806 285.782 215.772 289.006 187.163H289.01Z" fill="#FBE4C6"/>
<path d="M267.479 158.811C267.479 158.811 281.974 165.855 292.993 164.092C304.008 162.333 308.282 152.978 308.282 152.978" stroke="#4F2B2B" stroke-width="1.41258" stroke-miterlimit="10" stroke-linecap="round"/>
<path d="M311.588 145.321L306.579 151.647L309.974 154.336L314.984 148.009L311.588 145.321Z" fill="#4F2B2B"/>
<path d="M231.715 167.839C231.715 167.839 227.835 191.961 236.305 216.388" stroke="#4F2B2B" stroke-width="1.41258" stroke-miterlimit="10" stroke-linecap="round"/>
<path d="M237.947 215.379L234.255 217.643L238.473 224.523L242.165 222.259L237.947 215.379Z" fill="#4F2B2B"/>
<path d="M254.305 148.216C258.639 143.226 259.803 138.822 259.612 136.258L259.15 130.081L227.123 130.543L225.555 136.476C225.555 136.476 221.037 136.915 214.509 138.479C222.514 140.997 233.64 145.24 248.879 159.949C248.879 159.949 249.97 153.199 254.301 148.212L254.305 148.216Z" fill="#FFBE97"/>
<path d="M183.443 123.538C187.106 96.0181 191.858 81.3315 214.872 59.1862C218.731 56.1778 223.909 55.4737 228.431 57.3431C228.467 57.3584 228.504 57.3729 228.54 57.3882C233.473 59.4773 236.248 64.773 235.516 70.0793L235.038 73.539C219.469 86.237 212.915 94.312 208.905 112.007C196.302 114.321 191.474 117.465 183.443 123.538Z" fill="#4F2B2B"/>
<path d="M228.085 108.127H257.813V139.442H228.085V108.127Z" fill="#FFBE97"/>
<path d="M257.818 127.951V119.303L230.915 115.94C240.523 129.392 252.854 129.552 257.818 127.951Z" fill="#4F2B2B"/>
<path d="M280.54 99.9053C293.843 85.1816 274.915 75.5399 274.915 75.5399C274.915 75.5399 268.541 62.0582 245.243 65.665C222.658 69.1615 217.404 83.8028 218.389 99.6645L280.54 99.9066V99.9053Z" fill="#4F2B2B"/>
<path d="M222.476 99.3247C222.885 99.3297 223.286 99.3779 223.675 99.4565C224.084 87.9391 232.124 76.0555 247.721 73.583C263.38 71.1016 277.997 81.3364 280.486 94.3124C282.975 107.288 274.129 120.76 258.558 123.747C245.449 126.261 231.754 120.542 226.265 110.928C225.164 111.758 223.793 112.247 222.306 112.228C218.742 112.182 215.892 109.255 215.939 105.692C215.986 102.128 218.914 99.2778 222.476 99.3247Z" fill="#FFBE97"/>
<path d="M270.812 104.215C271.332 104.225 271.761 103.812 271.772 103.292L271.805 101.59C271.815 101.071 271.401 100.641 270.882 100.631C270.362 100.621 269.933 101.034 269.923 101.554L269.89 103.256C269.879 103.775 270.293 104.205 270.812 104.215Z" fill="#4F2B2B"/>
<path d="M248.866 104.215C249.386 104.225 249.815 103.812 249.825 103.292L249.858 101.59C249.868 101.071 249.455 100.641 248.936 100.631C248.416 100.621 247.986 101.034 247.976 101.554L247.943 103.256C247.933 103.775 248.346 104.205 248.866 104.215Z" fill="#4F2B2B"/>
<path d="M238.932 95.3603C239.1 95.3603 239.268 95.288 239.384 95.1473C241.172 92.9878 249.012 92.7344 251.904 94.278C252.184 94.4288 252.544 94.3236 252.699 94.0372C252.851 93.7508 252.743 93.3959 252.457 93.2426C249.32 91.5646 240.809 91.5862 238.481 94.3984C238.273 94.648 238.308 95.0181 238.559 95.2246C238.668 95.3146 238.801 95.359 238.933 95.359L238.932 95.3603Z" fill="#4F2B2B"/>
<path d="M263.455 113.082C261.373 114.363 256.249 115.868 252.405 111.641" stroke="#4F2B2B" stroke-width="1.41258" stroke-linecap="round"/>
<path d="M261.583 109.542C261.698 109.466 261.792 109.357 261.852 109.221C262.017 108.842 261.844 108.402 261.466 108.238C260.259 107.711 259.171 106.392 258.627 104.796C258.004 102.972 258.147 101.081 259.03 99.4714C259.228 99.1096 259.095 98.6559 258.733 98.4576C258.372 98.2586 257.916 98.3886 257.719 98.7542C256.633 100.735 256.453 103.052 257.213 105.279C257.899 107.29 259.265 108.908 260.869 109.607C261.111 109.713 261.379 109.68 261.584 109.543L261.583 109.542Z" fill="#4F2B2B"/>
<path d="M278.491 94.4825C278.683 94.4825 278.871 94.3887 278.984 94.2151C279.159 93.9439 279.083 93.5789 278.811 93.4027C274.413 90.5525 268.23 91.0126 266.366 92.7006C266.126 92.9186 266.107 93.2899 266.325 93.5307C266.543 93.7715 266.914 93.788 267.154 93.5713C268.547 92.309 274.155 91.7856 278.169 94.3874C278.269 94.4521 278.38 94.4825 278.489 94.4825H278.491Z" fill="#4F2B2B"/>
<path d="M236.865 109.827C236.812 108.494 238.778 107.331 241.258 107.231C243.738 107.131 245.792 108.131 245.846 109.465C245.9 110.799 243.933 111.961 241.453 112.061C238.973 112.161 236.919 111.161 236.865 109.827Z" fill="#FF9D6C"/>
<path d="M267.433 70.4006C267.433 70.4006 283.907 80.6811 282.335 94.3643L280.636 96.9027C280.636 96.9027 276.146 83.0256 261.549 79.0082C261.549 79.0082 265.753 88.0923 255.874 91.2492C254.536 91.6763 253.322 90.3215 253.928 89.0555C253.928 89.0555 251.564 91.035 247.58 91.3151C246.101 91.419 245.016 89.9363 245.575 88.5625L245.646 88.3889C245.646 88.3889 229.409 99.9836 221.126 95.4643C221.126 95.4643 225.043 55.1333 267.433 70.4006Z" fill="#4F2B2B"/>
<path d="M186.166 150.525C186.166 150.525 190.313 153.124 202.229 153.345C214.145 153.566 219.178 154.608 223.444 155.985C239.347 161.121 244.482 162.147 244.482 162.147" stroke="#4F2B2B" stroke-width="1.41258" stroke-miterlimit="10" stroke-linecap="round"/>
<path d="M268.12 137.13C268.12 137.13 269.18 140.991 264.232 145.722C259.413 150.328 255.032 155.994 254.304 159.661" stroke="#4F2B2B" stroke-width="1.41258" stroke-miterlimit="10" stroke-linecap="round"/>
<path d="M204.1 189.621C204.1 189.621 204.432 181.918 205.694 176.694" stroke="#4F2B2B" stroke-width="1.41258" stroke-miterlimit="10" stroke-linecap="round"/>
<path d="M310.594 171.337C310.594 171.337 325.245 191.052 330.198 203.925C335.15 216.799 327.668 231.874 311.162 224.17C294.656 216.467 281.672 201.552 281.672 201.552L288.383 181.807L292.993 184.241L310.594 171.333V171.337Z" fill="#FFBE97"/>
<path d="M292.99 184.248C292.99 184.248 316.219 196.393 317.707 198.537" stroke="#4F2B2B" stroke-width="1.41258" stroke-miterlimit="10" stroke-linecap="round"/>
<path d="M280.071 193.691L255.931 196.317L260.803 150.153L284.944 147.531L280.071 193.691Z" fill="#854747"/>
<path d="M284.942 147.533L282.759 146.007L258.615 148.632L253.742 194.796L255.928 196.318L260.801 150.154L284.942 147.533Z" fill="#BF8888"/>
<path d="M259.629 178.727C259.629 178.727 264.341 178.422 264.341 175.343C264.341 172.264 258.015 172.291 258.015 172.291C258.015 172.291 262.8 171.852 262.472 169.704C262.14 167.559 259.774 166.346 253.616 167.006C247.454 167.666 245.363 167.83 241.788 171.024C238.212 174.214 231.94 182.028 227.373 184.89C222.805 187.751 203.88 197.488 203.663 197.542L204.102 189.621C187.722 189.93 175.932 187.82 170.304 186.523C170.304 186.523 166.584 204.807 167.683 219.882C168.781 234.957 175.493 241.558 192.331 236.166C209.165 230.775 235.099 205.138 239.903 204.257C244.706 203.376 248.556 201.823 251.475 197.931C254.898 193.364 258.187 191.273 260.499 190.723C262.708 190.197 264.879 185.843 260.167 185.504C260.167 185.504 263.303 184.371 263.742 182.303C264.295 179.7 259.637 178.727 259.637 178.727H259.629Z" fill="#FFBE97"/>
<path d="M203.66 197.544L186.494 206.236" stroke="#4F2B2B" stroke-width="1.41258" stroke-miterlimit="10" stroke-linecap="round"/>
<path d="M260.161 185.501C260.161 185.501 255.22 184.818 250.478 188.683" stroke="#4F2B2B" stroke-width="1.41258" stroke-miterlimit="10" stroke-linecap="round"/>
<path d="M259.629 178.728C259.629 178.728 253.173 178.507 248.057 183.158" stroke="#4F2B2B" stroke-width="1.41258" stroke-miterlimit="10" stroke-linecap="round"/>
<path d="M258.016 172.295C258.016 172.295 250.481 171.746 245.967 176.863" stroke="#4F2B2B" stroke-width="1.41258" stroke-miterlimit="10" stroke-linecap="round"/>
<path d="M289.815 194.892C288.96 197.734 284.381 203.782 276.83 200.794C269.184 197.769 268.535 195.567 268.909 193.972C268.909 193.972 269.199 192.396 273.694 192.816C273.694 192.816 268.261 189.577 268.577 187.074C269.073 183.159 279.692 188.413 279.692 188.413C280.184 182.415 268.215 181.797 268.215 176.486C268.215 172.964 275.502 175.043 282.439 178.355C282.439 178.355 282.882 176.676 279.028 175.097C276.987 174.261 272.866 172.567 273.385 170.072C274.098 166.657 282.386 170.312 283.622 170.858C286.236 172.014 289.307 174.12 290.692 179.111C292.161 184.391 291.932 187.844 289.811 194.884L289.815 194.892Z" fill="#FFBE97"/>
<path d="M282.441 178.357C282.441 178.357 284.258 179.544 284.807 181.086" stroke="#4F2B2B" stroke-width="1.41258" stroke-miterlimit="10" stroke-linecap="round"/>
<path d="M273.694 192.816L279.696 195.4" stroke="#4F2B2B" stroke-width="1.41258" stroke-miterlimit="10" stroke-linecap="round"/>
<path d="M297.72 91.4932H350.431C353.127 91.4932 355.313 93.6791 355.313 96.3745V124.344C355.313 127.039 353.127 129.225 350.431 129.225H312.614L299.901 136.225L301.784 129.225C299.089 129.225 292.838 127.039 292.838 124.344V96.3745C292.838 93.6791 295.023 91.4932 297.719 91.4932H297.72Z" fill="#F29EC3"/>
<path d="M320.416 108.425H301.057C300.622 108.425 300.271 108.073 300.271 107.638V100.625C300.271 100.19 300.622 99.8379 301.057 99.8379H320.416C320.851 99.8379 321.203 100.19 321.203 100.625V107.638C321.203 108.073 320.851 108.425 320.416 108.425ZM301.844 106.851H319.629V101.412H301.844V106.851Z" fill="#4F2B2B"/>
<path d="M304.424 120.487C302.288 120.487 300.552 118.749 300.552 116.614C300.552 114.479 302.289 112.74 304.424 112.74C306.56 112.74 308.297 114.478 308.297 116.614C308.297 118.751 306.56 120.487 304.424 120.487ZM304.424 114.314C303.157 114.314 302.126 115.345 302.126 116.614C302.126 117.883 303.157 118.913 304.424 118.913C305.692 118.913 306.723 117.882 306.723 116.614C306.723 115.346 305.692 114.314 304.424 114.314Z" fill="#4F2B2B"/>
<path d="M327.429 117.682H311.437C311.002 117.682 310.65 117.33 310.65 116.895C310.65 116.46 311.002 116.108 311.437 116.108H327.429C327.864 116.108 328.216 116.46 328.216 116.895C328.216 117.33 327.864 117.682 327.429 117.682Z" fill="#4F2B2B"/>
<path d="M340.613 117.682H332.196C331.761 117.682 331.409 117.33 331.409 116.895C331.409 116.46 331.761 116.108 332.196 116.108H340.613C341.048 116.108 341.4 116.46 341.4 116.895C341.4 117.33 341.048 117.682 340.613 117.682Z" fill="#4F2B2B"/>
</g>
</svg>
