<?xml version="1.0" encoding="utf-8"?>
<!-- Generator: Adobe Illustrator 27.7.0, SVG Export Plug-In . SVG Version: 6.00 Build 0)  -->
<svg version="1.0" id="Layer_1" xmlns="http://www.w3.org/2000/svg" xmlns:xlink="http://www.w3.org/1999/xlink" x="0px" y="0px"
	 viewBox="0 0 690 250" style="enable-background:new 0 0 690 250;" xml:space="preserve">
<style type="text/css">
	.st0{fill:#EF9C2E;}
	.st1{fill:#4F2B2B;}
	.st2{fill:#FFBE97;}
	.st3{fill:#F8D2A0;}
	.st4{fill:#FBE4C6;}
	.st5{fill:#FFFFFF;}
	.st6{fill:#BF8888;}
	.st7{fill:#F48D60;}
</style>
<path class="st0" d="M368.68,145.02l4.79-4.06c11.15-9.46,27.17-10.55,39.49-2.69c12.71,8.11,18.39,23.74,13.86,38.12l-10.61,33.65
	l-118.34,12.23l-16.47-44.12c-4.62-12.38,0-26.3,11.1-33.46c7.65-4.93,17.22-5.86,25.67-2.48l26.01,10.39L368.68,145.02
	L368.68,145.02z"/>
<path class="st1" d="M373.6,109.78c0,0-10.07,31.97-27.84,34.54c-17.78,2.57-33.89-21.76-33.89-21.76s-8.65-21.96-3.12-30.06
	c4.86-7.14,15.5-13.68,22.58-15.57c12.68-3.39,25.92,4.72,25.92,4.72s8.35-0.04,13.93,10.25C375.1,99.15,373.6,109.78,373.6,109.78
	L373.6,109.78z"/>
<polygon class="st2" points="368.68,145.02 344.19,152.59 341.25,143.06 363.3,134.38 "/>
<path class="st2" d="M371.45,143.08l-27.26,9.51l-3.8-1.52c0,0-6.36,13.06,8.72,12.33C369.38,162.43,371.45,143.08,371.45,143.08z"
	/>
<path class="st2" d="M362.28,106.86c8.59,13.73,3.59,33.62-10.66,40.23c-15.24,7.08-30.87,3.1-37.87-11.5
	c-6.68-13.91-4.44-30.18,8.87-38.51C335.94,88.76,353.7,93.14,362.28,106.86L362.28,106.86z"/>
<path class="st1" d="M344.41,153.42c1.27-0.2,2.37-1.1,3.58-1.53c2.42-0.87,4.12,0.07,6.13-1.53c1.03-0.82,2.8-7.92,2.8-7.92
	s-0.62-0.04-0.81,0.21c-1.35,1.82-3.27,3.25-5.23,4.34c-1.88,1.05-3.93,1.81-6.02,2.34c-0.41,0.1-0.81,0.2-1.23,0.26
	c-0.32,0.05-0.49,0.44-0.41,0.73C343.31,150.65,344.09,153.47,344.41,153.42z"/>
<path class="st2" d="M362.23,115.82c0.16,5,0.11,9.35,4.3,9.21s8.62-4.53,8.46-9.53c-0.16-5-3.69-8.94-7.88-8.81
	S362.07,110.82,362.23,115.82L362.23,115.82z"/>
<path class="st1" d="M340.47,116.15c0.18,1.36,1.03,2.38,1.9,2.26c0.87-0.12,1.43-1.32,1.24-2.68s-1.03-2.38-1.9-2.26
	C340.84,113.59,340.29,114.79,340.47,116.15z"/>
<path class="st1" d="M319.13,119.34c0.18,1.36,1.03,2.38,1.9,2.26c0.87-0.12,1.43-1.32,1.24-2.68s-1.03-2.38-1.9-2.26
	C319.5,116.77,318.95,117.97,319.13,119.34z"/>
<polygon class="st2" points="326.77,124.39 330.36,127.63 331.44,114.84 "/>
<path class="st1" d="M355.5,89.62c0,0-9.73,12.63-14.63,14.55c-4.91,1.92-10.06,1.42-10.06,1.42l1.81-4.03c0,0-2.55,3.86-6.1,4.97
	c-3.55,1.11-8.68,1.02-8.68,1.02l2.46-4.93c0,0-4.96,7.52-10.92,7.38c0,0,8.49-21.38,21.43-22.7
	C343.75,85.98,355.51,89.62,355.5,89.62L355.5,89.62z"/>
<path class="st1" d="M330.39,128.42c-0.13,0-0.26-0.05-0.36-0.15l-3.88-3.77l4.52-9.25c0.12-0.25,0.43-0.36,0.69-0.24
	c0.25,0.12,0.36,0.43,0.24,0.69l-4.19,8.58l3.35,3.25c0.2,0.2,0.21,0.52,0.01,0.73C330.66,128.37,330.53,128.42,330.39,128.42
	L330.39,128.42z"/>
<path class="st1" d="M331.77,137.33c-0.28,0-0.51-0.23-0.51-0.51c0-0.28,0.23-0.51,0.51-0.51c0.29,0,6.7-0.08,8.98-6.46
	c0.09-0.26,0.39-0.41,0.65-0.31s0.41,0.39,0.31,0.65C339.19,137.26,331.87,137.33,331.77,137.33L331.77,137.33z"/>
<path class="st1" d="M365.37,117.24c-0.03,0-0.06,0-0.09-0.01c-0.28-0.05-0.46-0.32-0.41-0.59c0.01-0.05,0.89-4.69,5.04-4.97
	c0.28-0.03,0.53,0.2,0.54,0.48c0.02,0.28-0.2,0.53-0.48,0.54c-3.35,0.22-4.07,3.97-4.1,4.13
	C365.83,117.07,365.62,117.24,365.37,117.24L365.37,117.24z"/>
<path class="st3" d="M378.42,55.71l-5.81,11.1c-0.62,1.18-0.81,2.55-0.53,3.85l0.7,3.31c0.42,1.98,1.61,3.65,3.29,4.62
	c1.69,0.98,3.73,1.18,5.65,0.56l3.22-1.04c1.27-0.41,2.36-1.25,3.08-2.37l6.74-10.56L378.42,55.71L378.42,55.71z"/>
<path class="st4" d="M406.34,27.07c-12.67-7.35-22.16,2.17-24.65,6.47s-3.05,10.95-3.25,13.73c-0.32,4.42-2.26,9.59,1.07,11.52
	l12.63,7.33c3.32,1.93,6.85-2.33,10.53-4.79c2.31-1.55,7.81-5.34,10.3-9.64C415.46,47.38,419.01,34.42,406.34,27.07z"/>
<path class="st1" d="M378.89,70.96c-5.21-3.02-5.96-5.92-5.99-6.05c-0.1-0.42,0.16-0.83,0.59-0.92c0.42-0.09,0.85,0.18,0.95,0.59
	c0.02,0.07,0.9,2.96,6.78,5.88c5.88,2.91,8.66,1.43,8.69,1.42c0.37-0.21,0.86-0.08,1.08,0.29c0.23,0.37,0.12,0.84-0.25,1.05
	c-0.14,0.08-3.45,1.96-10.2-1.38C379.94,71.55,379.39,71.25,378.89,70.96L378.89,70.96z"/>
<path class="st1" d="M380.26,68.59c-5.21-3.02-5.96-5.92-5.99-6.05c-0.1-0.42,0.16-0.83,0.59-0.92c0.42-0.09,0.85,0.18,0.95,0.59
	c0.02,0.07,0.9,2.96,6.78,5.88c5.88,2.91,8.66,1.43,8.69,1.42c0.37-0.21,0.86-0.08,1.08,0.29c0.23,0.37,0.12,0.84-0.25,1.05
	c-0.14,0.08-3.45,1.96-10.2-1.38C381.31,69.18,380.76,68.89,380.26,68.59L380.26,68.59z"/>
<path class="st1" d="M381.63,66.23c-5.21-3.02-5.96-5.92-5.99-6.05c-0.1-0.42,0.16-0.83,0.59-0.92c0.42-0.09,0.85,0.18,0.95,0.59
	c0.02,0.07,0.91,2.97,6.78,5.88c5.88,2.91,8.66,1.43,8.69,1.42c0.37-0.21,0.86-0.08,1.08,0.29c0.23,0.37,0.12,0.84-0.25,1.05
	c-0.14,0.08-3.45,1.96-10.2-1.38C382.68,66.81,382.13,66.52,381.63,66.23L381.63,66.23z"/>
<path class="st1" d="M377.51,73.33c-5.21-3.02-5.96-5.92-5.99-6.05c-0.1-0.42,0.16-0.83,0.59-0.92c0.42-0.09,0.85,0.18,0.95,0.59
	c0.02,0.07,0.9,2.96,6.78,5.88c5.88,2.91,8.66,1.43,8.69,1.42c0.37-0.21,0.86-0.08,1.08,0.29c0.23,0.37,0.12,0.84-0.25,1.05
	c-0.14,0.08-3.45,1.96-10.2-1.38C378.56,73.91,378.02,73.62,377.51,73.33L377.51,73.33z"/>
<path class="st1" d="M382.42,59.56c0.37-3.26,0.87-6.51,1.76-9.68c0.81-2.87,1.95-5.87,4.23-7.91c1.08-0.96,2.39-1.63,3.81-1.94
	c1.43-0.31,3.08-0.28,4.36,0.51c1.2,0.74,1.8,2.14,1.87,3.51c0.09,1.5-0.18,3.09-0.72,4.49c-0.43,1.11-1.15,2.38-2.38,2.75
	c-1.19,0.36-2.09-0.63-2.59-1.6c-0.96-1.84-0.64-4.28,0.71-5.84c1.79-2.07,4.66-1.83,7.02-1.02c1.17,0.4,2.32,1.07,3,2.13
	c0.76,1.18,0.67,2.61,0.3,3.91c-0.42,1.44-1.24,2.68-2.18,3.82c-0.97,1.17-2.06,2.25-3.22,3.24c-2.34,2-4.97,3.63-7.69,5.06
	c-0.67,0.35-1.35,0.7-2.03,1.03c-0.36,0.17-0.05,0.71,0.3,0.54c3.05-1.49,6.02-3.17,8.7-5.25c1.34-1.04,2.61-2.19,3.75-3.46
	c1.08-1.2,2.06-2.48,2.67-3.98c0.54-1.34,0.87-2.99,0.34-4.39c-0.47-1.25-1.51-2.19-2.69-2.78c-2.39-1.2-5.74-1.71-7.99,0.04
	c-1.82,1.42-2.56,3.98-1.97,6.18c0.3,1.08,0.98,2.33,2.03,2.85c1.1,0.54,2.3,0.06,3.12-0.76c1.09-1.09,1.63-2.72,1.9-4.19
	c0.27-1.48,0.39-3.11-0.16-4.54c-0.55-1.44-1.7-2.45-3.2-2.83c-1.51-0.38-3.17-0.19-4.61,0.34c-3.12,1.15-5.06,3.91-6.27,6.89
	c-1.32,3.25-1.99,6.76-2.47,10.21c-0.12,0.89-0.23,1.79-0.34,2.68C381.77,59.96,382.38,59.96,382.42,59.56L382.42,59.56z"/>
<path class="st5" d="M321.87,166.57c0,0,6.05-7.54,20.63-13.43c7.81-3.15,23.27-6.03,36.56-8.63c11.51-2.26,21.35-6.25,21.35-6.25
	l1.79,15.61L321.87,166.57L321.87,166.57z"/>
<path class="st4" d="M415.37,142.62h-10.68c0,0-54.14,10.63-63.04,13.17c-13.95,3.98-19.79,10.78-19.79,10.78s-2.81-5.53-12.28-9.62
	c-5.81-2.51-42.92-13.76-42.92-13.76l-10.16-0.74l66.9,36.84L415.37,142.62L415.37,142.62z"/>
<polygon class="st6" points="421.18,229.38 341.93,249.68 325.27,171.69 416.21,142.21 "/>
<polygon class="st6" points="285.77,230.41 334.09,249.13 317.23,170.66 256.51,142.46 "/>
<polygon class="st6" points="325.27,171.69 317.23,170.66 334.09,249.13 341.93,249.68 "/>
<path class="st1" d="M341.66,248.89c-0.24,0-0.45-0.16-0.5-0.41l-16.39-76.68c-0.06-0.28,0.12-0.55,0.4-0.61
	c0.28-0.06,0.55,0.12,0.61,0.4l16.39,76.68c0.06,0.28-0.12,0.55-0.4,0.61C341.73,248.89,341.69,248.89,341.66,248.89z"/>
<path class="st1" d="M333.33,247.76c-0.24,0-0.45-0.17-0.5-0.41l-16.1-76.59c-0.06-0.28,0.12-0.55,0.4-0.61
	c0.28-0.06,0.55,0.12,0.61,0.4l16.1,76.59c0.06,0.28-0.12,0.55-0.4,0.61C333.4,247.76,333.36,247.76,333.33,247.76z"/>
<path class="st7" d="M325.27,172.21c-0.02,0-0.04,0-0.07,0l-8.04-1.03c-0.05-0.01-0.1-0.02-0.15-0.04l-60.72-28.21
	c-0.26-0.12-0.37-0.42-0.25-0.68c0.12-0.26,0.42-0.37,0.68-0.25l60.65,28.17l7.84,1.01l90.84-29.45c0.27-0.09,0.56,0.06,0.65,0.33
	c0.09,0.27-0.06,0.56-0.33,0.65l-90.95,29.49C325.37,172.2,325.32,172.21,325.27,172.21z"/>
<path class="st2" d="M418.37,180.07l7.23,3.41c3.33,1.57,5.64,4.73,6.12,8.38l1.74,13.25c0.68,5.19-2.45,10.13-7.43,11.72
	l-13.47,4.31c-1.94,0.62-4-0.48-4.57-2.43c-0.47-1.63,0.25-3.37,1.74-4.18l10.44-5.68l-8.82,3.41c-2.26,0.87-4.8-0.33-5.55-2.64
	c-0.63-1.93,0.21-4.03,1.99-5.01l11.35-6.24l-9.9,3.78c-2.14,0.82-4.53-0.28-5.31-2.43c-0.62-1.7-0.05-3.6,1.4-4.69l13.44-10.06
	L418.37,180.07L418.37,180.07z"/>
<path class="st1" d="M411.16,202.66c-0.18,0-0.36-0.1-0.45-0.27c-0.13-0.25-0.04-0.56,0.21-0.69l11.59-6.2
	c0.25-0.13,0.56-0.04,0.69,0.21c0.13,0.25,0.04,0.56-0.21,0.69l-11.59,6.2C411.32,202.64,411.24,202.66,411.16,202.66L411.16,202.66
	z"/>
<path class="st1" d="M413.99,212.37c-0.18,0-0.36-0.1-0.45-0.27c-0.13-0.25-0.04-0.56,0.21-0.69l11.59-6.2
	c0.25-0.13,0.56-0.04,0.69,0.21c0.13,0.25,0.04,0.56-0.21,0.69l-11.59,6.2C414.16,212.35,414.07,212.37,413.99,212.37L413.99,212.37
	z"/>
<path class="st2" d="M266.47,172.03l-5.46,5.83c-2.52,2.69-3.5,6.48-2.59,10.05l3.27,12.95c1.28,5.08,6.01,8.51,11.23,8.15
	l14.11-0.96c2.03-0.14,3.54-1.92,3.35-3.95c-0.16-1.69-1.48-3.04-3.16-3.24l-11.8-1.43l9.46-0.09c2.43-0.02,4.34-2.08,4.18-4.5
	c-0.13-2.03-1.68-3.67-3.7-3.93l-12.85-1.61l10.6-0.14c2.29-0.03,4.11-1.93,4.05-4.22c-0.05-1.81-1.28-3.37-3.03-3.84l-16.21-4.39
	L266.47,172.03L266.47,172.03z"/>
<path class="st1" d="M281.32,190.39c-0.02,0-0.04,0-0.06,0l-13.06-1.49c-0.28-0.03-0.48-0.29-0.45-0.57s0.29-0.49,0.57-0.45
	l13.06,1.49c0.28,0.03,0.48,0.29,0.45,0.57C281.8,190.21,281.58,190.4,281.32,190.39L281.32,190.39z"/>
<path class="st1" d="M282.27,200.46c-0.02,0-0.04,0-0.06,0l-13.06-1.49c-0.28-0.03-0.48-0.29-0.45-0.57s0.29-0.49,0.57-0.45
	l13.06,1.49c0.28,0.03,0.48,0.29,0.45,0.57C282.75,200.28,282.53,200.47,282.27,200.46L282.27,200.46z"/>
<path class="st1" d="M364.83,35.76c-1.73,7.96-3.16,15.98-4.28,24.04c-0.32,2.26-0.61,4.52-0.88,6.79c-0.07,0.58,0.84,0.57,0.9,0
	c0.95-8,2.2-15.96,3.74-23.87c0.44-2.25,0.9-4.49,1.39-6.73C365.82,35.43,364.95,35.19,364.83,35.76L364.83,35.76z"/>
<path class="st1" d="M344.39,46.52c1.87,5.78,3.92,11.5,6.17,17.15c0.64,1.6,1.29,3.2,1.96,4.8c0.23,0.54,1.01,0.08,0.79-0.45
	c-2.32-5.55-4.46-11.17-6.41-16.86c-0.55-1.62-1.1-3.24-1.62-4.87C345.09,45.74,344.21,45.97,344.39,46.52z"/>
<path class="st1" d="M418.61,66.91c-6.55,5.13-13.03,10.36-19.42,15.68c-1.79,1.49-3.58,2.98-5.35,4.49
	c-0.44,0.38,0.19,1.02,0.64,0.65c6.36-5.37,12.79-10.65,19.29-15.83c1.82-1.45,3.64-2.89,5.48-4.33
	C419.71,67.2,419.07,66.56,418.61,66.91L418.61,66.91z"/>
<path class="st1" d="M422.55,88.61c-4.42,0.7-8.8,1.59-13.17,2.55c-3.4,0.74-6.8,1.53-10.19,2.35c-0.64,0.16-1.28,0.31-1.92,0.47
	c-0.56,0.14-0.33,1.02,0.23,0.87c1.86-0.47,3.72-0.92,5.59-1.35c4.09-0.96,8.19-1.87,12.31-2.69c2.45-0.49,4.9-0.94,7.37-1.33
	C423.36,89.39,423.12,88.51,422.55,88.61z"/>
</svg>
