<svg width="65" height="65" viewBox="0 0 65 65" fill="none" xmlns="http://www.w3.org/2000/svg">
<path d="M30.4032 1.04834V22.0161H15.7258V5.24189C15.7258 2.92495 17.6024 1.04834 19.9193 1.04834H30.4032Z" fill="#F2AE54"/>
<path d="M15.7258 5.24189V22.0161H1.04834V1.04834H11.5322C13.8491 1.04834 15.7258 2.92495 15.7258 5.24189Z" fill="#F2AE54"/>
<path d="M57.6613 12.5806V19.9193C57.6613 19.0491 57.3048 18.2629 56.7387 17.6967C56.1725 17.1306 55.3863 16.7741 54.5161 16.7741H53.4677C50.7838 16.7741 48.2048 15.7048 46.3072 13.8072L46.129 13.629L45.9508 13.8072C44.0532 15.7048 41.4742 16.7741 38.7903 16.7741H37.7419C36.0016 16.7741 34.5967 18.179 34.5967 19.9193V12.5806C34.5967 6.2064 39.7548 1.04834 46.129 1.04834C49.3161 1.04834 52.1992 2.33786 54.2854 4.42415C56.3717 6.51044 57.6613 9.3935 57.6613 12.5806Z" fill="#DF8711"/>
<path d="M41.9355 26.9854C44.8919 28.2329 45.5 28.3063 46.129 28.3063C47.6911 28.3063 49.1379 27.8241 50.3226 26.9854V30.4031L46.129 34.5966L41.9355 30.4031V26.9854Z" fill="#F0D0B4"/>
<path d="M56.7387 17.6965C57.3048 18.2626 57.6613 19.0489 57.6613 19.9191C57.6613 21.6594 56.2564 23.0642 54.5161 23.0642H53.1637C53.3629 22.4038 53.4677 21.7013 53.4677 20.9675V16.7739H54.5161C55.3863 16.7739 56.1726 17.1304 56.7387 17.6965Z" fill="#F0D0B4"/>
<path d="M53.4677 16.7746V20.9681C53.4677 21.702 53.3629 22.4044 53.1637 23.0649C52.6814 24.6794 51.675 26.0528 50.3225 26.9859C49.1379 27.8246 47.6911 28.3068 46.129 28.3068C45.5 28.3068 44.8919 28.2334 41.9354 26.9859C41.579 26.7447 41.2435 26.4616 40.9395 26.1576C40.0903 25.3084 39.4403 24.2496 39.0943 23.0649C38.8951 22.4044 38.7903 21.702 38.7903 20.9681V16.7746C41.4742 16.7746 44.0532 15.7052 45.9508 13.8076L46.129 13.6294L46.3072 13.8076C48.2048 15.7052 50.7838 16.7746 53.4677 16.7746Z" fill="#F0D0B4"/>
<path d="M39.0943 23.0642H37.7419C36.8717 23.0642 36.0855 22.7078 35.5193 22.1417C34.9532 21.5755 34.5967 20.7892 34.5967 19.9191C34.5967 18.1788 36.0016 16.7739 37.7419 16.7739H38.7903V20.9675C38.7903 21.7013 38.8951 22.4038 39.0943 23.0642Z" fill="#F0D0B4"/>
<path d="M36.6935 38.7906C36.6935 36.4736 34.8169 34.597 32.5 34.597H30.2355V34.5341C30.9484 33.8422 31.8395 33.318 32.8564 33.0244L37.8048 31.5986L40.8871 38.7906L46.129 34.597L51.371 38.7906L54.4532 31.5986L59.4016 33.0244C62.096 33.8002 63.9516 36.264 63.9516 39.0631V46.1293H36.6935V38.7906Z" fill="#8FC6D7"/>
<path d="M54.4532 31.5985L51.371 38.7904L46.129 34.5969L50.3226 30.4033L54.4532 31.5985Z" fill="#357E94"/>
<path d="M46.129 34.5969L40.8871 38.7904L37.8048 31.5985L41.9355 30.4033L46.129 34.5969Z" fill="#357E94"/>
<path d="M36.6935 46.1284V53.4672C36.6935 55.7841 34.8169 57.6607 32.5 57.6607H23.0645L22.0161 51.3704H15.7258L14.6774 57.6607H5.24189C2.92495 57.6607 1.04834 55.7841 1.04834 53.4672V38.7897C1.04834 36.4728 2.92495 34.5962 5.24189 34.5962H32.5C34.8169 34.5962 36.6935 36.4728 36.6935 38.7897V46.1284Z" fill="#BF8888"/>
<path d="M23.0645 57.6609L24.1129 63.9513H13.629L14.6774 57.6609L15.7258 51.3706H22.0161L23.0645 57.6609Z" fill="#9F5656"/>
<path d="M23.0749 64.1195L21.1249 52.4195H16.6169L14.6669 64.1195L12.5911 63.784L14.8346 50.3228H22.9072L25.1507 63.784L23.0749 64.1195Z" fill="black"/>
<path d="M32.5001 58.7094H23.0646V56.6126H32.5001C34.2299 56.6126 35.6452 55.1973 35.6452 53.4675V49.2739H37.742V53.4675C37.742 56.361 35.3936 58.7094 32.5001 58.7094Z" fill="black"/>
<path d="M29.3548 62.9033H8.38708V65.0001H29.3548V62.9033Z" fill="black"/>
<path d="M14.6774 58.71H5.24194C2.34839 58.71 0 56.3616 0 53.4681V38.7907C0 35.8971 2.34839 33.5487 5.24194 33.5487H32.5C35.3935 33.5487 37.7419 35.8971 37.7419 38.7907V45.081H62.9032V39.0632C62.9032 36.7463 61.3411 34.6705 59.1185 34.031L49.2742 31.1899V26.9858H51.371V29.6068L59.6952 32.0076C62.8194 32.9092 65 35.8028 65 39.0632V47.1778H35.6452V38.7907C35.6452 37.0608 34.2298 35.6455 32.5 35.6455H5.24194C3.5121 35.6455 2.09677 37.0608 2.09677 38.7907V53.4681C2.09677 55.1979 3.5121 56.6133 5.24194 56.6133H14.6774V58.71Z" fill="black"/>
<path d="M30.9589 35.2888L29.5016 33.7792C30.3613 32.9509 31.4201 32.3429 32.5629 32.0179L40.8871 29.6171V26.9961H42.9839V31.2001L33.1395 34.0413C32.3217 34.2719 31.5669 34.7122 30.9589 35.2993V35.2888Z" fill="black"/>
<path d="M53.4677 17.8224C50.7419 17.8224 48.1629 16.8474 46.129 15.0756C44.0951 16.8474 41.5161 17.8224 38.7903 17.8224V15.7256C41.2121 15.7256 43.4975 14.7821 45.2064 13.0627L46.129 12.1401L47.0516 13.0627C48.7605 14.7716 51.0459 15.7256 53.4677 15.7256V17.8224Z" fill="black"/>
<path d="M46.129 29.3552C41.5057 29.3552 37.7419 25.5915 37.7419 20.9681V13.6294H39.8387V20.9681C39.8387 24.4383 42.6589 27.2584 46.129 27.2584C49.5992 27.2584 52.4194 24.4383 52.4194 20.9681V13.6294H54.5161V20.9681C54.5161 25.5915 50.7524 29.3552 46.129 29.3552Z" fill="black"/>
<path d="M54.5161 24.1132H53.1637V22.0164H54.5161C55.6694 22.0164 56.6129 21.0728 56.6129 19.9196C56.6129 18.7664 55.6694 17.8228 54.5161 17.8228H53.4677V15.7261H54.5161C56.8331 15.7261 58.7097 17.6027 58.7097 19.9196C58.7097 22.2366 56.8331 24.1132 54.5161 24.1132Z" fill="black"/>
<path d="M39.0944 24.1132H37.7419C35.425 24.1132 33.5484 22.2366 33.5484 19.9196C33.5484 17.6027 35.425 15.7261 37.7419 15.7261H38.7903V17.8228H37.7419C36.5887 17.8228 35.6452 18.7664 35.6452 19.9196C35.6452 21.0728 36.5887 22.0164 37.7419 22.0164H39.0944V24.1132Z" fill="black"/>
<path d="M40.4677 40.4681L36.7774 31.8608L38.7064 31.0431L41.3064 37.1132L44.5565 34.5132L41.1911 31.1479L42.6798 29.6592L47.7016 34.681L40.4677 40.4681Z" fill="black"/>
<path d="M51.7903 40.4681L44.5565 34.681L49.5782 29.6592L51.0669 31.1479L47.7016 34.5132L50.9516 37.1132L53.5516 31.0431L55.4806 31.8608L51.7903 40.4681Z" fill="black"/>
<path d="M58.7097 39.8389H56.6129V46.1292H58.7097V39.8389Z" fill="black"/>
<path d="M58.7097 19.9194H56.6129V12.5806C56.6129 6.80403 51.9057 2.09677 46.129 2.09677C40.3524 2.09677 35.6452 6.80403 35.6452 12.5806V19.9194H33.5484V12.5806C33.5484 5.64032 39.1887 0 46.129 0C53.0694 0 58.7097 5.64032 58.7097 12.5806V19.9194Z" fill="black"/>
<path d="M16.7742 23.0645H0V0H11.5323C14.4258 0 16.7742 2.34839 16.7742 5.24194V23.0645ZM2.09677 20.9677H14.6774V5.24194C14.6774 3.5121 13.2621 2.09677 11.5323 2.09677H2.09677V20.9677Z" fill="black"/>
<path d="M31.4516 23.0645H14.6774V5.24194C14.6774 2.34839 17.0258 0 19.9194 0H31.4516V23.0645ZM16.7742 20.9677H29.3548V2.09677H19.9194C18.1895 2.09677 16.7742 3.5121 16.7742 5.24194V20.9677Z" fill="black"/>
<path d="M12.5807 4.19336H4.1936V6.29013H12.5807V4.19336Z" fill="black"/>
<path d="M12.5807 8.38721H4.1936V10.484H12.5807V8.38721Z" fill="black"/>
<path d="M27.2581 4.19336H18.871V6.29013H27.2581V4.19336Z" fill="black"/>
<path d="M27.2581 8.38721H18.871V10.484H27.2581V8.38721Z" fill="black"/>
<path d="M6.29038 12.5806H4.1936V14.6773H6.29038V12.5806Z" fill="black"/>
<path d="M12.5806 12.5806H8.38708V14.6773H12.5806V12.5806Z" fill="black"/>
<path d="M23.0645 12.5806H18.871V14.6773H23.0645V12.5806Z" fill="black"/>
<path d="M27.258 12.5806H25.1613V14.6773H27.258V12.5806Z" fill="black"/>
</svg>
