<svg width="100" height="100" viewBox="0 0 100 100" fill="none" xmlns="http://www.w3.org/2000/svg">
<path d="M95.1612 40.3224V34.0643C95.1612 31.0966 93.1451 28.5159 90.2741 27.8063L82.258 25.8063V22.8869C85.1451 21.2095 87.0967 18.0966 87.0967 14.5159V11.6934C87.0967 6.3869 83.0161 1.774 77.7096 1.61271C72.2257 1.45142 67.7419 5.83851 67.7419 11.2901V14.5159C67.7419 18.0966 69.6935 21.2095 72.5806 22.8869V25.8063L64.5645 27.8063C61.6935 28.5321 59.6774 31.1127 59.6774 34.0643V40.3224H95.1612Z" fill="#357E94"/>
<path d="M95.1614 37.0967H59.6775V43.5483H95.1614V37.0967Z" fill="#2B6577"/>
<path d="M95.1614 46.7744V75.8067H80.6291H67.742H59.6775V46.7744H95.1614Z" fill="#F5C07A"/>
<path d="M19.3548 87.097V84.597C21.2742 83.4841 22.5807 81.4196 22.5807 79.0325V76.1454C22.5807 72.7422 20.0968 69.6776 16.7097 69.3873C12.8871 69.0486 9.67743 72.0647 9.67743 75.8067V79.0325C9.67743 81.4196 10.9839 83.468 12.9032 84.597V87.097L6.29032 88.9841C3.51613 89.7744 1.61292 92.3067 1.61292 95.1938V98.3873H30.6452V95.1938C30.6452 92.3067 28.742 89.7744 25.9678 88.9841L19.3548 87.097Z" fill="#357E94"/>
<path d="M48.3872 87.097V84.597C50.3066 83.4841 51.613 81.4196 51.613 79.0325V76.1454C51.613 72.7422 49.1291 69.6776 45.742 69.3873C41.9194 69.0486 38.7098 72.0647 38.7098 75.8067V79.0325C38.7098 81.4196 40.0162 83.468 41.9356 84.597V87.097L35.3227 88.9841C32.5485 89.7744 30.6453 92.3067 30.6453 95.1938V98.3873H59.6775V95.1938C59.6775 92.3067 57.7743 89.7744 55.0001 88.9841L48.3872 87.097Z" fill="#357E94"/>
<path d="M75.0484 66.1612C74.758 66.1289 74.4677 66.1289 74.1935 66.1289C68.8548 66.1289 64.5161 70.4676 64.5161 75.8063H83.8548C83.6935 70.7902 79.8871 66.5805 75.0484 66.1612Z" fill="#CF9E76"/>
<path d="M77.4194 87.097V84.597C79.3388 83.4841 80.6452 81.4196 80.6452 79.0325V76.1454C80.6452 72.7422 78.1613 69.6776 74.7742 69.3873C70.9517 69.0486 67.742 72.0647 67.742 75.8067V79.0325C67.742 81.4196 69.0485 83.468 70.9678 84.597V87.097L64.3549 88.9841C61.5807 89.7744 59.6775 92.3067 59.6775 95.1938V98.3873H88.7097V95.1938C88.7097 92.3067 86.8065 89.7744 84.0323 88.9841L77.4194 87.097Z" fill="#357E94"/>
<path d="M53.2258 1.61328H1.61292V8.06489H53.2258V1.61328Z" fill="#DF8711"/>
<path d="M50 8.06445H4.83875V40.3225H50V8.06445Z" fill="#D8F5FD"/>
<path d="M27.4194 62.903C30.0917 62.903 32.2581 60.7366 32.2581 58.0643C32.2581 55.392 30.0917 53.2256 27.4194 53.2256C24.7471 53.2256 22.5807 55.392 22.5807 58.0643C22.5807 60.7366 24.7471 62.903 27.4194 62.903Z" fill="#F5C07A"/>
<path d="M43.5484 14.5166H37.0968V33.8714H43.5484V14.5166Z" fill="#BF8888"/>
<path d="M30.6452 17.7412H24.1936V33.8702H30.6452V17.7412Z" fill="#BF8888"/>
<path d="M17.742 24.1934H11.2904V33.8708H17.742V24.1934Z" fill="#BF8888"/>
<path d="M95.1614 46.7744H59.6775V50.0002H95.1614V46.7744Z" fill="#CF9E76"/>
<path d="M98.3871 40.3223H56.4517V46.7739H98.3871V40.3223Z" fill="#DF8711"/>
<path d="M50 8.06445H4.83875V11.2903H50V8.06445Z" fill="#B1EDFC"/>
<path d="M96.7742 40.322H93.5484V34.0639C93.5484 31.8381 92.0484 29.9026 89.8871 29.3704L80.6451 27.0639V21.951L81.4516 21.4833C83.9355 20.0478 85.4838 17.3704 85.4838 14.4994V11.6768C85.4838 7.14456 81.9838 3.33811 77.6612 3.20907C75.4677 3.14456 73.371 3.95099 71.7903 5.48325C70.2097 7.01551 69.3387 9.06391 69.3387 11.2736V14.4994C69.3387 17.3704 70.887 20.0317 73.3709 21.4833L74.1774 21.951V27.0639L64.9355 29.3704C62.7742 29.9026 61.2741 31.8381 61.2741 34.0639V40.322H58.0483V34.0639C58.0483 30.3542 60.5645 27.1446 64.1613 26.2413L70.9516 24.5478V23.7736C67.9516 21.6768 66.1129 18.2091 66.1129 14.5155V11.2897C66.1129 8.20907 67.3225 5.33809 69.5483 3.19293C71.758 1.04777 74.6612 -0.0812656 77.758 0.0155086C83.7903 0.192928 88.7096 5.43486 88.7096 11.7091V14.5316C88.7096 18.2252 86.8709 21.6929 83.8709 23.7897V24.5639L90.6612 26.2575C94.258 27.1607 96.7742 30.3704 96.7742 34.08V40.3381V40.322Z" fill="black"/>
<path d="M99.9999 48.3874H54.8386V38.71H99.9999V48.3874ZM58.0644 45.1616H96.7741V41.9358H58.0644V45.1616Z" fill="black"/>
<path d="M67.7419 77.4196H58.0645V46.7744H61.2903V74.1938H67.7419V77.4196Z" fill="black"/>
<path d="M96.7741 77.4196H80.6289V74.1938H93.5483V46.7744H96.7741V77.4196Z" fill="black"/>
<path d="M32.2581 99.9998H0V95.1934C0 91.6128 2.40323 88.4192 5.85485 87.4353L11.2903 85.8869V85.4515C9.27419 83.9353 8.06452 81.5482 8.06452 79.0321V75.8063C8.06452 73.5482 9.01612 71.3869 10.6774 69.8547C12.3387 68.3386 14.5806 67.5644 16.8387 67.774C20.9516 68.1289 24.1774 71.8063 24.1774 76.145V79.0321C24.1774 81.5482 22.9677 83.9353 20.9516 85.4515V85.8869L26.3871 87.4353C29.8387 88.4192 32.2419 91.6128 32.2419 95.1934V99.9998H32.2581ZM3.22581 96.774H29.0323V95.1934C29.0323 93.0482 27.5968 91.1289 25.5161 90.5482L17.7419 88.3224V83.6773L18.5484 83.2095C20.0645 82.3224 20.9677 80.774 20.9677 79.0482V76.1611C20.9677 73.4837 19.0322 71.2257 16.5645 70.9999C15.1935 70.887 13.871 71.3224 12.8548 72.2579C11.8548 73.1773 11.2903 74.4676 11.2903 75.8224V79.0482C11.2903 80.774 12.1935 82.3224 13.7097 83.2095L14.5161 83.6773V88.3224L6.74192 90.5482C4.67741 91.145 3.22581 93.0482 3.22581 95.1934V96.774Z" fill="black"/>
<path d="M61.2903 99.9998H29.0322V95.1934C29.0322 91.6128 31.4355 88.4192 34.8871 87.4353L40.3225 85.8869V85.4515C38.3064 83.9353 37.0967 81.5482 37.0967 79.0321V75.8063C37.0967 73.5482 38.0483 71.3869 39.7096 69.8547C41.3709 68.3386 43.6129 67.5644 45.8709 67.774C49.9838 68.1289 53.2096 71.8063 53.2096 76.145V79.0321C53.2096 81.5482 52 83.9353 49.9838 85.4515V85.8869L55.4193 87.4353C58.8709 88.4192 61.2741 91.6128 61.2741 95.1934V99.9998H61.2903ZM32.258 96.774H58.0645V95.1934C58.0645 93.0482 56.629 91.1289 54.5484 90.5482L46.7742 88.3224V83.6773L47.5806 83.2095C49.0967 82.3224 50 80.774 50 79.0482V76.1611C50 73.4837 48.0645 71.2257 45.5967 70.9999C44.2258 70.887 42.9032 71.3224 41.8871 72.2579C40.8871 73.1773 40.3225 74.4676 40.3225 75.8224V79.0482C40.3225 80.774 41.2258 82.3224 42.7419 83.2095L43.5484 83.6773V88.3224L35.7742 90.5482C33.7096 91.145 32.258 93.0482 32.258 95.1934V96.774Z" fill="black"/>
<path d="M90.3225 99.9998H58.0645V95.1934C58.0645 91.6128 60.4677 88.4192 63.9193 87.4353L69.3548 85.8869V85.4515C67.3386 83.9353 66.129 81.5482 66.129 79.0321V75.8063C66.129 73.5482 67.0806 71.3869 68.7419 69.8547C70.4032 68.3386 72.6451 67.5644 74.9032 67.774C79.0161 68.1289 82.2419 71.8063 82.2419 76.145V79.0321C82.2419 81.5482 81.0322 83.9353 79.0161 85.4515V85.8869L84.4515 87.4353C87.9031 88.4192 90.3064 91.6128 90.3064 95.1934V99.9998H90.3225ZM61.2903 96.774H87.0967V95.1934C87.0967 93.0482 85.6612 91.1289 83.5806 90.5482L75.8064 88.3224V83.6773L76.6128 83.2095C78.129 82.3224 79.0322 80.774 79.0322 79.0482V76.1611C79.0322 73.4837 77.0967 71.2257 74.629 70.9999C73.258 70.887 71.9354 71.3224 70.9193 72.2579C69.9193 73.1773 69.3548 74.4676 69.3548 75.8224V79.0482C69.3548 80.774 70.258 82.3224 71.7741 83.2095L72.5806 83.6773V88.3224L64.8064 90.5482C62.7419 91.145 61.2903 93.0482 61.2903 95.1934V96.774Z" fill="black"/>
<path d="M54.8387 9.67742H0V0H54.8387V9.67742ZM3.22581 6.45161H51.6129V3.22581H3.22581V6.45161Z" fill="black"/>
<path d="M51.6129 41.935H3.22583V6.45117H51.6129V41.935ZM6.45164 38.7092H48.3871V9.67698H6.45164V38.7092Z" fill="black"/>
<path d="M29.0323 40.3232H25.8065V53.2265H29.0323V40.3232Z" fill="black"/>
<path d="M27.4194 64.5165C23.8549 64.5165 20.9678 61.6294 20.9678 58.0649C20.9678 54.5004 23.8549 51.6133 27.4194 51.6133C30.9839 51.6133 33.871 54.5004 33.871 58.0649C33.871 61.6294 30.9839 64.5165 27.4194 64.5165ZM27.4194 54.8391C25.6452 54.8391 24.1936 56.2907 24.1936 58.0649C24.1936 59.8391 25.6452 61.2907 27.4194 61.2907C29.1936 61.2907 30.6452 59.8391 30.6452 58.0649C30.6452 56.2907 29.1936 54.8391 27.4194 54.8391Z" fill="black"/>
<path d="M45.1613 35.484H35.4839V12.9033H45.1613V35.484ZM38.7097 32.2582H41.9355V16.1291H38.7097V32.2582Z" fill="black"/>
<path d="M32.2581 35.4837H22.5807V16.1289H32.2581V35.4837ZM25.8065 32.2579H29.0323V19.3547H25.8065V32.2579Z" fill="black"/>
<path d="M19.3549 35.4843H9.67749V22.5811H19.3549V35.4843ZM12.9033 32.2585H16.1291V25.8069H12.9033V32.2585Z" fill="black"/>
</svg>
