<svg width="372" height="250" viewBox="0 0 372 250" fill="none" xmlns="http://www.w3.org/2000/svg">
<mask id="mask0_917_9763" style="mask-type:alpha" maskUnits="userSpaceOnUse" x="0" y="0" width="372" height="250">
<path d="M0 20C0 8.9543 8.95431 0 20 0H352C363.046 0 372 8.9543 372 20V250H0V20Z" fill="#F7FDFE"/>
</mask>
<g mask="url(#mask0_917_9763)">
<path d="M237.384 68.3729C237.973 64.069 240.671 60.104 244.459 57.9764C250.216 54.743 257.993 55.6336 262.859 51.1709C261.568 53.2786 260.686 55.6358 260.277 58.0735C265.287 56.5153 269.908 53.7178 273.611 50C273.148 53.2985 272.683 56.597 272.22 59.8955C272.907 59.7752 273.556 59.4408 274.053 58.9508C273.725 66.499 270.992 74.343 264.634 78.4239L237.384 68.3729Z" fill="#EE81B0"/>
<path d="M247.163 65.8224C249.039 63.9056 251.345 62.4125 253.861 61.4855C253.582 62.2381 253.506 63.0658 253.645 63.8559C257.661 63.4653 261.601 62.3055 265.188 60.457C265.096 62.8175 265.001 65.2067 264.338 67.4744C263.675 69.7422 262.968 71.6679 260.951 72.9006L247.163 65.8224Z" fill="#FADBE9"/>
<path d="M186.18 197.117V248.586C186.18 248.653 186.161 248.713 186.142 248.773H272.599L250.927 197.117H186.18ZM233.451 217.346H244.269C244.608 217.346 244.883 217.62 244.883 217.96C244.883 218.3 244.609 218.573 244.269 218.573H233.451C233.112 218.573 232.838 218.3 232.838 217.96C232.838 217.62 233.111 217.346 233.451 217.346ZM232.15 213.73C231.811 213.73 231.537 213.456 231.537 213.116C231.537 212.776 231.81 212.503 232.15 212.503H242.675C243.013 212.503 243.288 212.776 243.288 213.116C243.288 213.456 243.014 213.73 242.675 213.73H232.15ZM225.478 217.911C225.564 218.296 225.467 218.689 225.205 219.015C224.756 219.575 223.838 219.91 222.752 219.91C221.342 219.91 219.724 219.296 219.503 218.161C219.43 217.778 219.533 217.39 219.796 217.073C220.249 216.522 221.162 216.194 222.237 216.194C223.661 216.194 225.231 216.784 225.479 217.912L225.478 217.911ZM218.845 212.268C219.287 211.731 220.184 211.411 221.246 211.411C222.636 211.411 224.17 211.979 224.41 213.063C224.491 213.434 224.399 213.812 224.147 214.124C223.709 214.669 222.807 214.995 221.735 214.995C220.321 214.995 218.778 214.416 218.564 213.311C218.493 212.943 218.593 212.572 218.845 212.267V212.268ZM216.566 217.959C216.566 218.297 216.292 218.572 215.952 218.572H205.134C204.795 218.572 204.521 218.299 204.521 217.959C204.521 217.619 204.794 217.345 205.134 217.345H215.952C216.291 217.345 216.566 217.619 216.566 217.959ZM204.603 212.503H215.128C215.467 212.503 215.742 212.776 215.742 213.116C215.742 213.456 215.468 213.73 215.128 213.73H204.603C204.265 213.73 203.99 213.456 203.99 213.116C203.99 212.776 204.264 212.503 204.603 212.503ZM261.978 238.489L263.671 242.93C263.742 243.117 263.717 243.329 263.602 243.496C263.487 243.661 263.299 243.761 263.098 243.761H232.958C232.673 243.761 232.426 243.564 232.361 243.286L231.327 238.845C231.284 238.663 231.327 238.471 231.444 238.326C231.56 238.179 231.737 238.094 231.924 238.094H261.406C261.661 238.094 261.888 238.251 261.979 238.489H261.978ZM253.783 217.825C253.936 218.228 253.887 218.645 253.643 218.998C253.244 219.576 252.383 219.909 251.282 219.909C249.906 219.909 248.239 219.326 247.857 218.247C247.717 217.846 247.774 217.434 248.019 217.088C248.423 216.52 249.279 216.192 250.371 216.192C251.726 216.192 253.382 216.765 253.784 217.825H253.783ZM251.943 212.977C252.09 213.366 252.042 213.766 251.807 214.107C251.418 214.671 250.57 214.995 249.482 214.995C248.139 214.995 246.514 214.435 246.147 213.4C246.012 213.015 246.068 212.62 246.304 212.285C246.698 211.73 247.541 211.411 248.619 211.411C249.976 211.411 251.554 211.949 251.943 212.977Z" fill="#FBE4C6"/>
<path d="M174.187 212.639C173.046 212.639 172.413 213.088 172.398 213.245C172.424 213.373 172.959 213.77 174.03 213.77C175.158 213.77 175.809 213.315 175.819 213.164C175.798 213.043 175.248 212.639 174.187 212.639Z" fill="#FCE9CC"/>
<path d="M249.24 208.516L245.889 199.728H225.185L227.325 208.516H249.24Z" fill="#F5C07A"/>
<path d="M220.741 217.853L220.104 218.043L220.705 217.926C220.757 218.194 221.574 218.685 222.751 218.685C223.539 218.685 224.08 218.458 224.249 218.249C224.221 217.91 223.4 217.42 222.235 217.42C221.452 217.42 220.912 217.644 220.739 217.854L220.741 217.853Z" fill="#FCE9CC"/>
<path d="M221.734 213.771C222.678 213.771 223.174 213.451 223.213 213.324C223.167 213.129 222.424 212.639 221.245 212.639C220.308 212.639 219.814 212.952 219.767 213.081C219.81 213.282 220.546 213.77 221.734 213.77V213.771Z" fill="#FCE9CC"/>
<path d="M184.954 197.117H120.207L98.5342 248.773H184.991C184.971 248.713 184.954 248.653 184.954 248.586V197.117ZM175.83 243.18C175.813 243.506 175.544 243.762 175.217 243.762H145.077C144.893 243.762 144.72 243.679 144.603 243.538C144.487 243.395 144.439 243.209 144.476 243.029L145.36 238.588C145.417 238.302 145.668 238.095 145.961 238.095H175.443C175.611 238.095 175.772 238.164 175.888 238.286C176.004 238.408 176.065 238.572 176.056 238.739L175.83 243.18ZM138.955 217.346C139.293 217.346 139.568 217.62 139.568 217.96C139.568 218.3 139.295 218.573 138.955 218.573H128.137C127.798 218.573 127.523 218.3 127.523 217.96C127.523 217.62 127.797 217.346 128.137 217.346H138.955ZM129.085 213.117C129.085 212.779 129.358 212.504 129.698 212.504H140.222C140.56 212.504 140.835 212.778 140.835 213.117C140.835 213.457 140.561 213.731 140.222 213.731H129.698C129.359 213.731 129.085 213.457 129.085 213.117ZM145.737 216.194C146.812 216.194 147.72 216.523 148.168 217.076C148.429 217.398 148.528 217.788 148.446 218.172C148.208 219.302 146.583 219.912 145.178 219.912C144.091 219.912 143.177 219.576 142.733 219.016C142.474 218.687 142.382 218.292 142.475 217.902C142.742 216.781 144.318 216.195 145.737 216.195V216.194ZM143.63 213.055C143.888 211.976 145.425 211.412 146.813 211.412C147.875 211.412 148.768 211.734 149.204 212.271C149.455 212.58 149.55 212.953 149.473 213.324C149.24 214.422 147.693 214.997 146.283 214.997C145.21 214.997 144.311 214.67 143.88 214.124C143.63 213.808 143.542 213.429 143.631 213.055H143.63ZM167.272 217.347C167.61 217.347 167.885 217.621 167.885 217.961C167.885 218.301 167.611 218.574 167.272 218.574H156.454C156.115 218.574 155.84 218.301 155.84 217.961C155.84 217.621 156.114 217.347 156.454 217.347H167.272ZM156.632 213.119C156.632 212.78 156.906 212.505 157.246 212.505H167.769C168.108 212.505 168.383 212.779 168.383 213.119C168.383 213.458 168.109 213.732 167.769 213.732H157.246C156.907 213.732 156.632 213.458 156.632 213.119ZM170.791 217.995C170.872 216.969 172.196 216.194 173.871 216.194C174.936 216.194 175.875 216.514 176.382 217.049C176.667 217.348 176.807 217.705 176.788 218.077C176.733 219.122 175.408 219.911 173.706 219.911C172.627 219.911 171.681 219.585 171.177 219.039C170.893 218.732 170.76 218.371 170.791 217.995ZM174.031 214.997C172.965 214.997 172.037 214.679 171.547 214.149C171.275 213.856 171.147 213.51 171.176 213.149C171.255 212.144 172.522 211.414 174.186 211.414C175.238 211.414 176.161 211.724 176.655 212.245C176.928 212.531 177.062 212.874 177.045 213.23C176.992 214.238 175.696 214.998 174.031 214.998V214.997Z" fill="#FCE9CC"/>
<path d="M145.824 242.537H174.634L174.798 239.322H146.463L145.824 242.537Z" fill="#F5C07A"/>
<path d="M145.176 218.684C146.359 218.684 147.188 218.187 147.246 217.916C147.049 217.64 146.515 217.419 145.737 217.419C144.566 217.419 143.732 217.914 143.667 218.185C143.663 218.197 143.661 218.21 143.694 218.253C143.859 218.461 144.392 218.684 145.176 218.684Z" fill="#FCE9CC"/>
<path d="M116.588 235.242H175.005L175.62 223.17H120.888L116.588 235.242Z" fill="#F5C07A"/>
<path d="M148.271 213.07C148.234 212.953 147.743 212.639 146.812 212.639C145.61 212.639 144.872 213.13 144.823 213.339L144.227 213.197L144.823 213.342C144.861 213.456 145.352 213.77 146.283 213.77C147.479 213.77 148.229 213.273 148.272 213.069L148.271 213.07Z" fill="#FCE9CC"/>
<path d="M175.564 218.011C175.566 217.984 175.539 217.939 175.493 217.89C175.27 217.655 174.682 217.418 173.871 217.418C172.699 217.418 172.028 217.895 172.014 218.09C172.012 218.115 172.037 218.16 172.079 218.205C172.299 218.443 172.887 218.683 173.707 218.683C174.841 218.683 175.554 218.216 175.564 218.009V218.011Z" fill="#FCE9CC"/>
<path d="M249.006 217.819L248.433 218.043L249.011 217.838C249.129 218.175 250.096 218.683 251.28 218.683C252.219 218.683 252.619 218.369 252.642 218.285C252.504 217.918 251.557 217.42 250.368 217.42C249.427 217.42 249.028 217.734 249.005 217.819H249.006Z" fill="#FCE9CC"/>
<path d="M247.304 212.994C247.4 213.259 248.253 213.77 249.481 213.77C250.358 213.77 250.762 213.497 250.802 213.403C250.679 213.105 249.751 212.639 248.619 212.639C247.775 212.639 247.368 212.891 247.304 212.994Z" fill="#FCE9CC"/>
<path d="M262.206 242.537L260.981 239.322H232.694L233.442 242.537H262.206Z" fill="#F5C07A"/>
<path d="M259.426 235.242L254.825 223.17H200.099L201.015 235.242H259.426Z" fill="#F5C07A"/>
<path d="M251.899 196.268C251.804 196.041 251.58 195.892 251.334 195.892H119.8C119.553 195.892 119.33 196.041 119.235 196.268L97.048 249.15C96.9686 249.338 96.9884 249.556 97.1021 249.726C97.2158 249.897 97.4078 249.999 97.613 249.999H273.521C273.726 249.999 273.918 249.897 274.032 249.726C274.145 249.556 274.166 249.339 274.086 249.15L251.899 196.268ZM98.5345 248.773L120.207 197.118H184.954V248.587C184.954 248.653 184.973 248.714 184.991 248.773H98.5345ZM186.141 248.773C186.161 248.714 186.179 248.653 186.179 248.587V197.118H250.926L272.598 248.773H186.141Z" fill="#FBE4C6"/>
<path d="M231.442 238.327C231.326 238.473 231.283 238.665 231.325 238.847L232.359 243.288C232.424 243.566 232.671 243.762 232.956 243.762H263.096C263.298 243.762 263.486 243.663 263.6 243.498C263.715 243.331 263.74 243.119 263.668 242.931L261.976 238.491C261.885 238.252 261.657 238.096 261.403 238.096H231.921C231.734 238.096 231.557 238.181 231.441 238.327H231.442ZM260.981 239.322L262.207 242.536H233.444L232.694 239.322H260.981Z" fill="#F5C07A"/>
<path d="M248.018 217.089C247.773 217.437 247.714 217.848 247.856 218.247C248.237 219.327 249.905 219.91 251.281 219.91C252.382 219.91 253.243 219.578 253.641 219C253.885 218.647 253.935 218.228 253.782 217.827C253.38 216.766 251.723 216.193 250.368 216.193C249.278 216.193 248.421 216.52 248.017 217.089H248.018ZM252.643 218.286C252.62 218.37 252.22 218.684 251.281 218.684C250.097 218.684 249.131 218.175 249.012 217.839L248.434 218.044L249.007 217.82C249.03 217.735 249.428 217.42 250.369 217.42C251.558 217.42 252.506 217.918 252.644 218.286H252.643Z" fill="#4F2B2B"/>
<path d="M233.45 218.573H244.268C244.607 218.573 244.882 218.299 244.882 217.959C244.882 217.619 244.608 217.346 244.268 217.346H233.45C233.111 217.346 232.837 217.619 232.837 217.959C232.837 218.299 233.11 218.573 233.45 218.573Z" fill="#4F2B2B"/>
<path d="M219.794 217.071C219.531 217.39 219.428 217.776 219.502 218.158C219.722 219.296 221.341 219.908 222.75 219.908C223.837 219.908 224.754 219.574 225.204 219.013C225.465 218.688 225.561 218.295 225.476 217.91C225.228 216.782 223.657 216.191 222.234 216.191C221.159 216.191 220.246 216.519 219.793 217.07L219.794 217.071ZM224.248 218.247C224.079 218.457 223.538 218.683 222.75 218.683C221.573 218.683 220.756 218.192 220.704 217.925L220.103 218.042L220.74 217.851C220.912 217.641 221.453 217.417 222.235 217.417C223.4 217.417 224.221 217.907 224.249 218.246L224.248 218.247Z" fill="#4F2B2B"/>
<path d="M204.521 217.959C204.521 218.298 204.795 218.573 205.135 218.573H215.953C216.291 218.573 216.566 218.299 216.566 217.959C216.566 217.619 216.292 217.346 215.953 217.346H205.135C204.796 217.346 204.521 217.619 204.521 217.959Z" fill="#4F2B2B"/>
<path d="M246.303 212.287C246.067 212.621 246.012 213.017 246.146 213.401C246.513 214.438 248.137 214.996 249.481 214.996C250.569 214.996 251.418 214.673 251.807 214.109C252.042 213.768 252.09 213.366 251.942 212.979C251.553 211.951 249.975 211.413 248.618 211.413C247.54 211.413 246.696 211.732 246.303 212.287ZM250.803 213.404C250.763 213.498 250.358 213.77 249.482 213.77C248.254 213.77 247.401 213.259 247.305 212.994C247.37 212.892 247.776 212.639 248.62 212.639C249.752 212.639 250.68 213.106 250.803 213.404Z" fill="#4F2B2B"/>
<path d="M243.287 213.118C243.287 212.78 243.013 212.505 242.673 212.505H232.149C231.81 212.505 231.535 212.779 231.535 213.118C231.535 213.458 231.809 213.732 232.149 213.732H242.673C243.012 213.732 243.287 213.458 243.287 213.118Z" fill="#4F2B2B"/>
<path d="M221.734 214.996C222.806 214.996 223.709 214.671 224.146 214.126C224.398 213.813 224.49 213.436 224.409 213.065C224.17 211.98 222.636 211.413 221.245 211.413C220.184 211.413 219.286 211.733 218.843 212.269C218.592 212.575 218.491 212.946 218.563 213.313C218.777 214.419 220.32 214.997 221.734 214.997V214.996ZM221.245 212.639C222.423 212.639 223.167 213.129 223.212 213.324C223.174 213.451 222.678 213.771 221.734 213.771C220.546 213.771 219.81 213.284 219.767 213.083C219.813 212.954 220.308 212.64 221.245 212.64V212.639Z" fill="#4F2B2B"/>
<path d="M204.603 213.73H215.127C215.466 213.73 215.741 213.456 215.741 213.117C215.741 212.777 215.467 212.503 215.127 212.503H204.603C204.264 212.503 203.989 212.777 203.989 213.117C203.989 213.456 204.263 213.73 204.603 213.73Z" fill="#4F2B2B"/>
<path d="M175.443 238.096H145.961C145.669 238.096 145.417 238.303 145.36 238.589L144.476 243.03C144.439 243.21 144.487 243.396 144.603 243.538C144.72 243.68 144.893 243.762 145.077 243.762H175.217C175.544 243.762 175.813 243.506 175.83 243.181L176.056 238.74C176.065 238.572 176.004 238.408 175.888 238.287C175.772 238.165 175.612 238.096 175.443 238.096ZM174.636 242.536H145.826L146.464 239.322H174.799L174.636 242.536Z" fill="#F5C07A"/>
<path d="M176.789 218.076C176.807 217.704 176.667 217.348 176.383 217.049C175.875 216.513 174.936 216.193 173.871 216.193C172.196 216.193 170.872 216.968 170.791 217.994C170.761 218.371 170.895 218.732 171.177 219.038C171.682 219.585 172.626 219.91 173.707 219.91C175.408 219.91 176.734 219.121 176.789 218.076ZM172.013 218.093C172.028 217.896 172.698 217.419 173.87 217.419C174.681 217.419 175.269 217.657 175.492 217.892C175.537 217.939 175.565 217.986 175.563 218.012C175.552 218.218 174.839 218.685 173.705 218.685C172.885 218.685 172.297 218.446 172.078 218.207C172.035 218.162 172.01 218.118 172.013 218.094V218.093Z" fill="#4F2B2B"/>
<path d="M155.842 217.959C155.842 218.298 156.115 218.573 156.455 218.573H167.273C167.612 218.573 167.887 218.299 167.887 217.959C167.887 217.619 167.613 217.346 167.273 217.346H156.455C156.116 217.346 155.842 217.619 155.842 217.959Z" fill="#4F2B2B"/>
<path d="M142.475 217.9C142.383 218.289 142.474 218.684 142.734 219.013C143.176 219.574 144.09 219.909 145.178 219.909C146.584 219.909 148.208 219.3 148.447 218.169C148.528 217.785 148.429 217.395 148.169 217.073C147.722 216.521 146.813 216.191 145.737 216.191C144.318 216.191 142.742 216.778 142.475 217.899V217.9ZM145.737 217.419C146.515 217.419 147.05 217.64 147.246 217.915C147.189 218.186 146.36 218.683 145.177 218.683C144.392 218.683 143.859 218.46 143.695 218.253C143.662 218.21 143.664 218.197 143.667 218.184C143.732 217.914 144.567 217.419 145.737 217.419Z" fill="#4F2B2B"/>
<path d="M127.524 217.959C127.524 218.298 127.798 218.573 128.138 218.573H138.956C139.295 218.573 139.57 218.299 139.57 217.959C139.57 217.619 139.296 217.346 138.956 217.346H128.138C127.799 217.346 127.524 217.619 127.524 217.959Z" fill="#4F2B2B"/>
<path d="M174.187 211.413C172.522 211.413 171.256 212.144 171.176 213.149C171.148 213.51 171.276 213.855 171.547 214.149C172.037 214.68 172.965 214.996 174.031 214.996C175.696 214.996 176.992 214.236 177.045 213.229C177.064 212.872 176.929 212.53 176.655 212.243C176.161 211.722 175.238 211.412 174.187 211.412V211.413ZM174.031 213.77C172.96 213.77 172.424 213.373 172.399 213.245C172.412 213.088 173.047 212.639 174.188 212.639C175.249 212.639 175.799 213.044 175.82 213.165C175.81 213.316 175.16 213.77 174.031 213.77Z" fill="#4F2B2B"/>
<path d="M167.769 213.73C168.107 213.73 168.382 213.456 168.382 213.117C168.382 212.777 168.108 212.503 167.769 212.503H157.245C156.906 212.503 156.632 212.777 156.632 213.117C156.632 213.456 156.905 213.73 157.245 213.73H167.769Z" fill="#4F2B2B"/>
<path d="M149.472 213.324C149.55 212.955 149.455 212.581 149.204 212.272C148.768 211.734 147.874 211.413 146.812 211.413C145.425 211.413 143.887 211.977 143.63 213.055C143.54 213.429 143.63 213.809 143.878 214.124C144.309 214.671 145.208 214.997 146.281 214.997C147.691 214.997 149.238 214.422 149.471 213.324H149.472ZM144.822 213.342L144.227 213.198L144.822 213.34C144.872 213.13 145.609 212.639 146.812 212.639C147.742 212.639 148.234 212.953 148.271 213.071C148.228 213.274 147.478 213.771 146.281 213.771C145.351 213.771 144.86 213.458 144.821 213.343L144.822 213.342Z" fill="#4F2B2B"/>
<path d="M140.222 213.73C140.561 213.73 140.835 213.456 140.835 213.117C140.835 212.777 140.562 212.503 140.222 212.503H129.699C129.36 212.503 129.085 212.777 129.085 213.117C129.085 213.456 129.359 213.73 129.699 213.73H140.222Z" fill="#4F2B2B"/>
<path d="M126.709 208.516H176.366L176.54 205.076H127.92L126.709 208.516Z" fill="#F5C07A"/>
<path d="M191.87 142.585L221.046 108.163C221.013 108.153 220.981 108.144 220.947 108.132C220.756 108.073 220.567 108.016 220.383 107.958C220.327 107.94 220.274 107.925 220.218 107.907C220.056 107.858 219.895 107.808 219.739 107.761C219.681 107.743 219.625 107.725 219.567 107.709C219.405 107.659 219.244 107.611 219.088 107.564C219.055 107.554 219.024 107.544 218.991 107.534C218.831 107.486 218.675 107.439 218.522 107.393C218.473 107.379 218.425 107.364 218.375 107.349C218.234 107.307 218.095 107.265 217.962 107.225C217.923 107.214 217.886 107.203 217.848 107.191C217.706 107.149 217.565 107.107 217.432 107.069C217.408 107.062 217.383 107.054 217.36 107.048C217.216 107.006 217.077 106.965 216.943 106.926C216.93 106.923 216.917 106.919 216.904 106.915C216.776 106.878 216.654 106.842 216.537 106.808C216.507 106.799 216.477 106.791 216.448 106.783C216.354 106.756 216.266 106.731 216.179 106.706C216.135 106.693 216.091 106.68 216.049 106.668C215.965 106.644 215.885 106.621 215.809 106.6C215.785 106.593 215.761 106.586 215.739 106.58C215.666 106.559 215.6 106.54 215.535 106.522C215.499 106.512 215.461 106.501 215.428 106.493C215.382 106.479 215.339 106.467 215.297 106.456C215.266 106.447 215.234 106.439 215.206 106.431C215.153 106.416 215.107 106.403 215.064 106.391C215.046 106.387 215.025 106.38 215.01 106.376C215.004 106.375 215.001 106.373 214.995 106.371C214.851 106.332 214.775 106.311 214.775 106.311L163.612 107.123C163.612 107.123 163.585 107.13 163.545 107.142C163.538 107.144 163.53 107.146 163.523 107.148C163.491 107.157 163.439 107.171 163.392 107.186C163.351 107.197 163.312 107.208 163.261 107.223C163.253 107.225 163.24 107.23 163.232 107.232C162.2 107.528 159.154 108.425 155.196 109.826L191.875 142.586L191.87 142.585Z" fill="#FBE4C6"/>
<path d="M215.061 106.393C215.104 106.405 215.15 106.418 215.203 106.432C215.15 106.417 215.104 106.405 215.061 106.393Z" fill="#FFB8BD"/>
<path d="M216.176 106.708C216.262 106.732 216.351 106.758 216.444 106.785C216.352 106.759 216.262 106.733 216.176 106.708Z" fill="#FFB8BD"/>
<path d="M215.293 106.459C215.335 106.471 215.377 106.482 215.425 106.495C215.377 106.482 215.336 106.47 215.293 106.459Z" fill="#FFB8BD"/>
<path d="M217.96 107.229C218.094 107.269 218.233 107.31 218.374 107.353C218.232 107.311 218.093 107.269 217.96 107.229Z" fill="#FFB8BD"/>
<path d="M214.991 106.373C214.991 106.373 214.999 106.375 215.004 106.377C214.999 106.376 214.995 106.375 214.991 106.373Z" fill="#FFB8BD"/>
<path d="M216.534 106.811C216.652 106.845 216.773 106.88 216.901 106.918C216.773 106.88 216.651 106.845 216.534 106.811Z" fill="#FFB8BD"/>
<path d="M217.43 107.072C217.563 107.112 217.704 107.153 217.846 107.195C217.702 107.153 217.563 107.112 217.43 107.072Z" fill="#FFB8BD"/>
<path d="M218.521 107.396C218.674 107.441 218.83 107.488 218.99 107.537C218.83 107.488 218.674 107.442 218.521 107.396Z" fill="#FFB8BD"/>
<path d="M219.087 107.566C219.243 107.614 219.404 107.662 219.566 107.711C219.403 107.661 219.243 107.613 219.087 107.566Z" fill="#FFB8BD"/>
<path d="M163.256 107.223C163.307 107.209 163.345 107.198 163.386 107.186C163.345 107.197 163.308 107.208 163.256 107.223Z" fill="#FFB8BD"/>
<path d="M257.324 125.64C252.379 118.596 231.634 111.444 221.046 108.163L191.87 142.585L155.19 109.825C159.148 108.425 162.194 107.526 163.226 107.23C159.982 108.157 136.33 115.176 127.714 125.151C112.844 142.368 114.396 196.291 114.396 196.291L228.468 196.723C228.468 196.723 259.077 196.769 265.418 191.092C288.157 170.735 266.991 139.406 257.324 125.638V125.64Z" fill="#DF8711"/>
<path d="M220.383 107.96C220.567 108.016 220.756 108.075 220.947 108.134C220.756 108.075 220.567 108.017 220.383 107.96Z" fill="#FFB8BD"/>
<path d="M215.805 106.603C215.882 106.625 215.962 106.648 216.046 106.671C215.961 106.647 215.883 106.625 215.805 106.603Z" fill="#FFB8BD"/>
<path d="M163.519 107.149C163.525 107.147 163.534 107.145 163.54 107.143C163.532 107.145 163.527 107.146 163.519 107.149Z" fill="#FFB8BD"/>
<path d="M215.532 106.526C215.597 106.545 215.663 106.564 215.736 106.584C215.664 106.563 215.597 106.544 215.532 106.526Z" fill="#FFB8BD"/>
<path d="M219.74 107.764C219.896 107.811 220.058 107.861 220.219 107.91C220.056 107.861 219.895 107.811 219.74 107.764Z" fill="#FFB8BD"/>
<path d="M215.425 106.495C215.458 106.505 215.497 106.515 215.532 106.525C215.495 106.515 215.459 106.504 215.425 106.495Z" fill="#FCE9CC"/>
<path d="M163.226 107.231C163.234 107.229 163.246 107.226 163.253 107.223C163.245 107.225 163.234 107.228 163.226 107.231Z" fill="#FCE9CC"/>
<path d="M215.736 106.583C215.759 106.59 215.782 106.596 215.804 106.603C215.782 106.596 215.758 106.59 215.736 106.583Z" fill="#FCE9CC"/>
<path d="M163.387 107.187C163.436 107.174 163.488 107.158 163.519 107.149C163.484 107.159 163.441 107.171 163.387 107.187Z" fill="#FCE9CC"/>
<path d="M215.007 106.376C215.023 106.38 215.042 106.386 215.06 106.391C215.041 106.386 215.023 106.381 215.007 106.376Z" fill="#FCE9CC"/>
<path d="M215.203 106.433C215.23 106.44 215.262 106.449 215.292 106.458C215.263 106.449 215.23 106.44 215.203 106.433Z" fill="#FCE9CC"/>
<path d="M221.046 108.165C221.012 108.155 220.981 108.145 220.947 108.134C220.98 108.144 221.012 108.154 221.046 108.165Z" fill="#FCE9CC"/>
<path d="M219.568 107.71C219.625 107.728 219.681 107.744 219.74 107.762C219.681 107.744 219.625 107.727 219.568 107.71Z" fill="#FCE9CC"/>
<path d="M214.771 106.312C214.771 106.312 214.848 106.333 214.991 106.373C214.849 106.333 214.771 106.312 214.771 106.312Z" fill="#FCE9CC"/>
<path d="M220.219 107.909C220.274 107.926 220.327 107.942 220.383 107.96C220.327 107.942 220.274 107.927 220.219 107.909Z" fill="#FCE9CC"/>
<path d="M218.375 107.352C218.423 107.366 218.472 107.38 218.521 107.396C218.472 107.381 218.424 107.367 218.375 107.352Z" fill="#FCE9CC"/>
<path d="M217.846 107.195C217.884 107.206 217.922 107.217 217.96 107.23C217.921 107.218 217.884 107.207 217.846 107.195Z" fill="#FCE9CC"/>
<path d="M216.444 106.785C216.474 106.794 216.503 106.803 216.532 106.81C216.503 106.801 216.474 106.793 216.444 106.785Z" fill="#FCE9CC"/>
<path d="M216.046 106.671C216.088 106.683 216.132 106.695 216.176 106.708C216.132 106.696 216.089 106.683 216.046 106.671Z" fill="#FCE9CC"/>
<path d="M216.901 106.917C216.914 106.92 216.926 106.924 216.939 106.928C216.926 106.924 216.913 106.92 216.901 106.917Z" fill="#FCE9CC"/>
<path d="M215.294 161.036C219.599 161.036 223.09 157.546 223.09 153.24C223.09 148.934 219.599 145.443 215.294 145.443C210.988 145.443 207.497 148.934 207.497 153.24C207.497 157.546 210.988 161.036 215.294 161.036Z" fill="#FBE4C6"/>
<path d="M262.959 196.758H110.119C109.723 196.758 109.403 196.564 109.403 196.323C109.403 196.081 109.723 195.887 110.119 195.887H262.959C263.355 195.887 263.675 196.081 263.675 196.323C263.675 196.564 263.355 196.758 262.959 196.758Z" fill="#4F2B2B"/>
<path d="M229.55 162.617C229.275 162.617 229.04 162.408 229.012 162.128C228.983 161.831 229.2 161.565 229.498 161.537L244.874 160.02C245.166 160.006 245.436 160.209 245.465 160.507C245.494 160.804 245.277 161.07 244.979 161.098L229.603 162.615C229.585 162.615 229.567 162.617 229.549 162.617H229.55Z" fill="#4F2B2B"/>
<path d="M235.296 131.283C236.687 127.91 235.08 124.049 231.708 122.659C228.335 121.268 224.474 122.875 223.084 126.247L217.346 140.162L229.559 145.197L235.296 131.283Z" fill="#BF8888"/>
<path d="M217.356 140.174L201.587 178.413L213.799 183.449L229.568 145.21L217.356 140.174Z" fill="#9F5656"/>
<path d="M259.799 98.6813C267.22 91.2602 267.22 79.2281 259.799 71.807C252.378 64.3859 240.346 64.3859 232.925 71.807C225.504 79.2281 225.504 91.2602 232.925 98.6813C240.346 106.102 252.378 106.102 259.799 98.6813Z" fill="#FBE4C6"/>
<path d="M254.563 91.7944C254.515 91.7944 254.464 91.7878 254.414 91.7735L245.319 89.1746C245.087 89.1095 244.927 88.8965 244.927 88.6549V74.6862C244.927 74.3872 245.169 74.1455 245.468 74.1455C245.767 74.1455 246.008 74.3872 246.008 74.6862V88.2466L254.712 90.7328C255 90.8145 255.166 91.1147 255.083 91.4016C255.016 91.6399 254.798 91.7933 254.563 91.7933V91.7944Z" fill="#4F2B2B"/>
<path d="M166.476 90.125C162.077 90.818 157.747 92.8452 155.038 96.3799C152.328 99.9134 151.56 105.075 153.831 108.904C154.845 110.612 156.402 112.026 157.002 113.92C157.803 116.448 156.468 119.471 154.059 120.581C158.398 121.158 162.937 121.089 166.995 119.448C171.053 117.807 174.562 114.385 175.462 110.101L166.475 90.125H166.476Z" fill="#4F2B2B"/>
<path d="M212.66 91.1133C217.025 91.9939 221.265 94.2054 223.821 97.8515C226.375 101.498 226.922 106.688 224.488 110.416C223.402 112.079 221.787 113.426 221.106 115.292C220.197 117.784 221.402 120.861 223.761 122.073C219.401 122.464 214.87 122.201 210.885 120.388C206.9 118.575 203.541 115.005 202.826 110.687L212.66 91.1133Z" fill="#4F2B2B"/>
<path d="M179.148 69.9692C179.148 69.9692 188.047 63.9229 203.135 68.7718C223.108 75.19 217.954 96.0448 217.954 96.0448L166.241 103.281C166.241 103.281 155.769 87.073 166.276 75.9603C173.344 68.4838 179.149 69.9692 179.149 69.9692H179.148Z" fill="#4F2B2B"/>
<path d="M218.027 96.461C217.593 95.7128 216.985 95.0805 216.258 94.6181C215.386 94.0641 214.346 93.7551 213.235 93.786C212.88 93.796 212.539 93.8522 212.207 93.9295C212.156 93.9405 212.104 93.9482 212.055 93.9604C210.897 84.961 204.13 76.1989 191.905 74.4432C178.861 72.5693 166.836 81.2531 164.925 92.0667C164.896 92.2311 164.876 92.3956 164.851 92.56C164.82 92.56 164.789 92.5534 164.758 92.5534C161.628 92.4861 159.037 94.969 158.97 98.0987C158.903 101.228 161.385 103.819 164.515 103.887C165.182 103.901 165.821 103.794 166.419 103.595C166.421 103.598 166.421 103.601 166.423 103.603C166.944 104.749 167.574 105.851 168.306 106.898C168.329 106.931 168.351 106.963 168.374 106.997C168.61 107.331 168.855 107.659 169.112 107.981C169.117 107.986 169.122 107.993 169.126 107.999C169.659 108.664 170.236 109.303 170.855 109.911C170.895 109.95 170.936 109.988 170.975 110.027C171.238 110.281 171.507 110.529 171.784 110.771C171.844 110.823 171.902 110.874 171.963 110.926C172.259 111.18 172.562 111.427 172.874 111.668C172.901 111.688 172.925 111.71 172.952 111.73C173.302 111.997 173.662 112.255 174.031 112.504C174.061 112.524 174.092 112.543 174.12 112.562C174.443 112.776 174.771 112.983 175.108 113.183C175.204 113.24 175.302 113.297 175.4 113.353C175.685 113.517 175.974 113.675 176.269 113.829C176.374 113.884 176.478 113.939 176.582 113.992C176.932 114.167 177.288 114.335 177.649 114.495C177.693 114.515 177.736 114.536 177.78 114.555C178.188 114.731 178.606 114.898 179.031 115.056C179.137 115.095 179.245 115.13 179.351 115.167C179.67 115.281 179.992 115.389 180.321 115.49C180.465 115.535 180.608 115.577 180.753 115.62C181.067 115.711 181.386 115.796 181.709 115.876C181.845 115.91 181.981 115.945 182.118 115.977C182.573 116.083 183.034 116.18 183.504 116.264C195.035 118.303 206.989 112.708 210.855 103.851C210.927 103.89 211.005 103.92 211.079 103.955C211.822 104.316 212.647 104.531 213.531 104.507C216.492 104.425 218.825 101.958 218.743 98.9969C218.718 98.0711 218.458 97.2081 218.025 96.4599L218.027 96.461Z" fill="#FFBE97"/>
<path d="M188.092 103.293C187.979 103.293 187.863 103.257 187.766 103.183C187.526 103.002 187.48 102.663 187.661 102.424C188.272 101.618 188.505 100.327 188.272 99.0554C188.005 97.602 187.2 96.3903 186.007 95.6454C185.753 95.4865 185.676 95.1544 185.835 94.9006C185.995 94.6456 186.329 94.5695 186.579 94.7284C188.034 95.6366 189.013 97.1043 189.336 98.8601C189.627 100.446 189.324 102.023 188.523 103.079C188.416 103.219 188.255 103.293 188.091 103.293H188.092Z" fill="#4F2B2B"/>
<path d="M176.434 89.8586C175.279 89.8586 174.128 90.087 173.072 90.566C172.799 90.6885 172.679 91.0085 172.803 91.2822C172.925 91.5536 173.249 91.6728 173.519 91.5514C176.429 90.2349 180.171 91.0902 182.219 93.54C182.413 93.7696 182.754 93.7982 182.983 93.6073C183.211 93.4153 183.242 93.0732 183.05 92.8437C181.443 90.9235 178.931 89.8586 176.436 89.8586H176.434Z" fill="#4F2B2B"/>
<path d="M187.169 109.987C186.013 109.987 184.862 109.759 183.806 109.28C183.534 109.157 183.413 108.837 183.537 108.564C183.659 108.292 183.983 108.173 184.253 108.294C187.163 109.611 190.905 108.756 192.953 106.306C193.148 106.076 193.489 106.047 193.717 106.238C193.945 106.43 193.976 106.772 193.784 107.002C192.178 108.922 189.665 109.987 187.17 109.987H187.169Z" fill="#4F2B2B"/>
<path d="M202.517 89.3014C199.899 89.3014 197.263 90.4899 195.664 92.5756C195.482 92.8128 195.526 93.1516 195.764 93.3337C195.997 93.5169 196.34 93.4717 196.522 93.2333C198.465 90.6996 202.166 89.6865 205.13 90.8761C205.407 90.9876 205.722 90.8541 205.834 90.576C205.946 90.2979 205.811 89.9834 205.534 89.8719C204.574 89.4857 203.546 89.3025 202.517 89.3025V89.3014Z" fill="#4F2B2B"/>
<path d="M214.965 100.122L211.859 100.208C211.36 100.222 210.942 99.8273 210.928 99.3274C210.914 98.8275 211.309 98.4104 211.809 98.396L214.914 98.3099C215.414 98.2956 215.831 98.6907 215.845 99.1906C215.86 99.6905 215.465 100.108 214.965 100.122Z" fill="#4F2B2B"/>
<path d="M165.778 99.0673L162.672 99.1534C162.172 99.1677 161.755 98.7726 161.741 98.2727C161.727 97.7728 162.122 97.3557 162.621 97.3413L165.727 97.2553C166.227 97.2409 166.644 97.636 166.658 98.1359C166.673 98.6358 166.278 99.0529 165.778 99.0673Z" fill="#4F2B2B"/>
<path d="M175.517 101.66C175.302 101.66 175.099 101.531 175.014 101.318C174.904 101.041 175.041 100.727 175.319 100.616L180.503 98.5638L175.507 96.5179C175.23 96.4053 175.098 96.0886 175.212 95.8116C175.325 95.5346 175.645 95.4033 175.918 95.5158L182.158 98.0705C182.363 98.1544 182.496 98.3542 182.495 98.5749C182.495 98.7956 182.358 98.9931 182.153 99.0748L175.718 101.623C175.654 101.649 175.586 101.66 175.519 101.66H175.517Z" fill="#4F2B2B"/>
<path d="M201.738 102.222C201.665 102.222 201.59 102.207 201.518 102.175L195.198 99.3534C194.997 99.2629 194.87 99.0599 194.878 98.8381C194.887 98.6174 195.028 98.4231 195.235 98.3481L201.578 96.0627C201.861 95.9656 202.17 96.1079 202.271 96.3882C202.373 96.6696 202.227 96.9797 201.946 97.0812L196.867 98.9109L201.96 101.184C202.233 101.307 202.355 101.627 202.234 101.9C202.145 102.101 201.946 102.22 201.74 102.22L201.738 102.222Z" fill="#4F2B2B"/>
<path d="M164.648 92.6322C172.492 90.9846 181.275 79.3698 181.275 79.3698C181.275 79.3698 193.064 88.5204 214.928 93.5283C214.928 93.5283 217.8 78.1548 208.046 75.7668C198.291 73.3787 176.612 68.1932 170.621 76.5989C164.63 85.0045 164.649 92.6322 164.649 92.6322H164.648Z" fill="#4F2B2B"/>
<path d="M210.332 158.633L196.425 162.236C194.693 162.45 193.366 163.701 193.066 165.361C192.875 166.422 193.142 167.52 193.802 168.375C194.461 169.228 195.455 169.766 196.53 169.85C196.668 169.861 196.783 169.935 196.858 170.039L208.454 167.695C208.694 167.644 208.94 167.804 208.99 168.051C209.04 168.297 208.88 168.538 208.634 168.588L195.384 171.262C193.305 171.429 191.788 173.207 191.947 175.232C192.024 176.213 192.479 177.106 193.228 177.745C193.975 178.384 194.928 178.685 195.911 178.617C196.027 178.606 196.145 178.648 196.235 178.724L208.916 177.002C209.167 176.958 209.394 177.142 209.429 177.392C209.463 177.641 209.289 177.871 209.04 177.905L196.02 179.672C195.014 179.752 194.122 180.207 193.483 180.955C192.844 181.703 192.534 182.656 192.611 183.638C192.689 184.619 193.143 185.512 193.893 186.15C194.641 186.788 195.592 187.091 196.575 187.022L208.05 185.449C208.306 185.414 208.53 185.589 208.563 185.837C208.597 186.088 208.423 186.317 208.175 186.35L196.673 187.926C194.622 188.089 193.105 189.866 193.263 191.892C193.344 192.898 193.825 193.904 194.586 194.65C195.366 195.418 196.313 195.793 197.262 195.725L205.919 196.407C206.127 196.445 221.787 199.46 228.933 196.311C229.31 196.144 230.305 195.378 231.408 191.864C233.771 184.341 234.68 170.037 230.244 162.748C228.706 160.221 213.629 158.232 210.332 158.633Z" fill="#FFBE97"/>
<path d="M210.163 157.738L196.256 161.341C194.184 161.592 192.542 163.142 192.17 165.198C191.933 166.512 192.265 167.873 193.081 168.93C193.589 169.587 194.257 170.092 195.008 170.406C192.612 170.731 190.848 172.864 191.04 175.302C191.136 176.527 191.703 177.639 192.637 178.436C193.086 178.819 193.596 179.099 194.139 179.285C192.568 180.117 191.554 181.825 191.703 183.706C191.847 185.529 193.042 187.016 194.644 187.633C194.198 187.891 193.786 188.211 193.441 188.615C192.644 189.549 192.258 190.737 192.355 191.961C192.451 193.183 193.032 194.399 193.947 195.298C194.919 196.253 196.12 196.73 197.261 196.63L205.794 197.305C206.219 197.388 212.856 198.669 219.493 198.669C223.093 198.669 226.695 198.291 229.301 197.141C230.647 196.548 231.662 194.09 232.277 192.134C234.692 184.446 235.599 169.79 231.021 162.272C229.2 159.281 213.495 157.325 210.162 157.736L210.163 157.738ZM231.409 191.863C230.305 195.378 229.31 196.144 228.933 196.31C221.787 199.46 206.128 196.445 205.919 196.406L197.262 195.724C196.312 195.792 195.366 195.417 194.586 194.649C193.824 193.902 193.343 192.897 193.264 191.892C193.105 189.866 194.622 188.089 196.674 187.926L208.175 186.35C208.424 186.315 208.598 186.086 208.563 185.837C208.529 185.587 208.306 185.414 208.05 185.448L196.575 187.022C195.593 187.091 194.642 186.789 193.893 186.15C193.144 185.511 192.69 184.618 192.611 183.637C192.534 182.655 192.843 181.704 193.483 180.954C194.122 180.206 195.014 179.752 196.02 179.671L209.04 177.904C209.289 177.87 209.464 177.641 209.429 177.391C209.395 177.142 209.167 176.957 208.916 177.002L196.235 178.723C196.145 178.647 196.027 178.605 195.911 178.616C194.929 178.686 193.976 178.384 193.228 177.744C192.48 177.105 192.025 176.213 191.947 175.232C191.788 173.207 193.305 171.43 195.385 171.261L208.634 168.587C208.88 168.537 209.041 168.297 208.99 168.051C208.94 167.804 208.693 167.644 208.454 167.694L196.858 170.038C196.782 169.935 196.668 169.861 196.53 169.85C195.455 169.765 194.461 169.227 193.802 168.374C193.142 167.521 192.875 166.422 193.066 165.36C193.366 163.701 194.692 162.449 196.425 162.235L210.332 158.632C213.628 158.231 228.705 160.22 230.244 162.747C234.681 170.036 233.771 184.34 231.409 191.863Z" fill="#FFBE97"/>
<path d="M193.076 167.561C192.931 168.723 193.599 170.785 197.434 169.74C201.269 168.694 206.876 167.851 209.2 167.561" stroke="#4F2B2B" stroke-width="1.5" stroke-linecap="round"/>
<path d="M191.768 175.841C191.623 177.003 193.617 179.937 197.452 178.891C201.287 177.845 206.894 177.003 209.218 176.712" stroke="#4F2B2B" stroke-width="1.5" stroke-linecap="round"/>
<path d="M192.212 184.557C192.067 185.719 194.06 188.653 197.895 187.607C201.73 186.561 207.338 185.719 209.662 185.428" stroke="#4F2B2B" stroke-width="1.5" stroke-linecap="round"/>
<path d="M193.083 193.272C192.938 194.435 194.932 197.369 198.767 196.323C202.602 195.277 209.055 197.921 211.379 197.63" stroke="#4F2B2B" stroke-width="1.5" stroke-linecap="round"/>
<path d="M143.575 196.51C143.303 196.51 143.068 196.303 143.038 196.025L139.14 159.318C139.108 159.021 139.325 158.754 139.621 158.723C139.911 158.689 140.185 158.906 140.216 159.204L144.114 195.912C144.146 196.208 143.93 196.475 143.633 196.506C143.614 196.509 143.594 196.51 143.574 196.51H143.575Z" fill="#4F2B2B"/>
</g>
</svg>
