<svg width="470" height="251" viewBox="0 0 470 251" fill="none" xmlns="http://www.w3.org/2000/svg">
<path d="M221.863 136.306C221.863 136.306 216.947 156.616 212.939 159.074L220.959 161.273L223.288 158.299L223.029 161.919C223.029 161.919 252.913 164.635 258.087 161.532L257.442 156.616L260.287 161.403L267.274 158.944C267.274 158.944 259.512 144.976 259.9 138.635L221.867 136.306H221.863Z" fill="#4F2B2B"/>
<path d="M270.101 107.09C268.124 99.4751 270.105 91.7715 274.759 86.1341L243.842 73.1404L222.588 123.704L273.151 144.953L282.64 122.377C276.642 119.464 271.904 114.045 270.096 107.085L270.101 107.09Z" fill="#F8D2A0"/>
<path d="M273.152 145.434C273.09 145.434 273.027 145.421 272.97 145.399L222.406 124.149C222.291 124.1 222.197 124.007 222.152 123.891C222.103 123.775 222.103 123.646 222.152 123.526L243.406 72.9624C243.509 72.7219 243.789 72.6106 244.03 72.7086C244.27 72.811 244.386 73.0871 244.284 73.332L223.217 123.459L273.344 144.526C273.584 144.628 273.7 144.904 273.597 145.149C273.522 145.332 273.344 145.439 273.161 145.439L273.152 145.434Z" fill="#0151A1"/>
<path d="M315.762 95.2357C312.489 82.625 299.615 75.0594 287.004 78.3323C282.008 79.6281 277.809 82.438 274.754 86.1339L294.405 94.3941L282.641 122.381C287.508 124.745 293.207 125.458 298.854 123.993C311.465 120.72 319.03 107.847 315.757 95.2357H315.762Z" fill="#F7FDFE"/>
<path d="M278.491 172.255C265.854 159.568 214.52 159.568 201.883 172.255C189.601 184.585 211.483 250.012 211.483 250.012H268.886C268.886 250.012 290.772 184.585 278.487 172.255H278.491Z" fill="#B4185C"/>
<path d="M248.487 154.754L248.037 144.829H232.144L231.387 161.581C237.43 162.053 243.53 159.158 248.487 154.759V154.754Z" fill="#4F2B2B"/>
<path d="M231.388 161.577L231.228 170.153H248.959L248.487 154.75C243.531 159.154 237.431 162.049 231.388 161.572V161.577Z" fill="#FFBE97"/>
<path d="M240.44 157.888C251.591 157.718 260.517 150.046 260.376 140.751C260.235 131.456 251.08 124.058 239.929 124.227C228.777 124.397 219.851 132.069 219.992 141.364C220.134 150.659 229.288 158.057 240.44 157.888Z" fill="#FFBE97"/>
<path d="M241.242 121.741L244.541 128.344H234.838L238.138 121.741C238.779 120.463 240.601 120.463 241.242 121.741Z" fill="#FFBE97"/>
<path d="M241.429 134.823C240.783 134.823 240.124 134.721 239.478 134.507C239.229 134.422 239.095 134.155 239.176 133.906C239.26 133.656 239.527 133.523 239.777 133.603C242.52 134.516 245.494 133.024 246.407 130.281C246.492 130.032 246.759 129.898 247.008 129.978C247.258 130.063 247.391 130.33 247.311 130.579C246.447 133.176 244.025 134.819 241.429 134.819V134.823Z" fill="#4F2B2B"/>
<path d="M223.889 143.079H218.198C216.866 143.079 215.784 141.997 215.784 140.666C215.784 139.334 216.866 138.252 218.198 138.252H223.889C225.22 138.252 226.302 139.334 226.302 140.666C226.302 141.997 225.22 143.079 223.889 143.079Z" fill="#FFBE97"/>
<path d="M262.18 143.079H256.489C255.158 143.079 254.076 141.997 254.076 140.666C254.076 139.335 255.158 138.252 256.489 138.252H262.18C263.511 138.252 264.594 139.335 264.594 140.666C264.594 141.997 263.511 143.079 262.18 143.079Z" fill="#FFBE97"/>
<path d="M192.949 68.5232C192.949 66.8266 193.181 65.1835 193.617 63.6249L153.679 57.658L173.396 115.542L200.461 83.1066C195.924 79.847 192.963 74.5347 192.949 68.5232Z" fill="#3A8AA2"/>
<path d="M210.904 50.4883C202.666 50.5061 195.737 56.0634 193.617 63.6245L214.159 66.6926L200.461 83.1062C203.423 85.2347 207.056 86.486 210.984 86.4771C220.923 86.4548 228.96 78.3816 228.938 68.4426C228.916 58.5036 220.843 50.4661 210.904 50.4883Z" fill="#BF8888"/>
<path d="M210.939 86.9492C207.056 86.9492 203.338 85.7514 200.181 83.4893C199.967 83.3379 199.918 83.0395 200.074 82.8258C200.225 82.612 200.524 82.5631 200.738 82.7189C203.73 84.8652 207.257 86.0007 210.939 86.0007H210.979C220.638 85.9785 228.484 78.1056 228.462 68.4427C228.439 58.7932 220.584 50.9604 210.944 50.9604H210.904C203.098 50.9783 196.178 56.2372 194.071 63.7493C194 64.0031 193.737 64.1501 193.488 64.0788C193.234 64.0076 193.087 63.7449 193.159 63.4955C195.381 55.5737 202.675 50.0298 210.904 50.012H210.944C221.11 50.012 229.392 58.2722 229.415 68.4427C229.437 78.6266 221.168 86.9314 210.984 86.9537H210.944L210.939 86.9492Z" fill="#4F2B2B"/>
<path d="M193.617 63.6204C193.181 65.1789 192.945 66.822 192.949 68.5186C192.963 74.5301 195.924 79.8469 200.461 83.102L214.159 66.6884L193.617 63.6204Z" fill="#3A8AA2"/>
<path d="M198.003 123.343C197.861 123.343 197.727 123.281 197.633 123.165L191.943 116.094C191.778 115.889 191.809 115.591 192.014 115.426C192.219 115.261 192.517 115.292 192.682 115.497L197.469 121.442L196.841 106.671C196.832 106.449 196.974 106.253 197.188 106.195L216.679 100.847C216.928 100.78 217.191 100.927 217.262 101.181C217.333 101.435 217.182 101.693 216.928 101.764L197.803 107.01L198.475 122.844C198.484 123.049 198.359 123.236 198.168 123.308C198.114 123.33 198.056 123.339 197.999 123.339L198.003 123.343Z" fill="#DF8711"/>
<path d="M206.424 119.678C206.317 119.678 206.206 119.643 206.121 119.567C205.956 119.429 205.903 119.193 205.996 118.997C206.794 117.309 207.702 115.395 208.138 113.431C208.468 111.948 208.673 109.766 207.751 107.771C207.555 107.348 207.39 107.237 207.288 107.215C207.163 107.188 206.976 107.264 206.736 107.433C205.182 108.515 204.456 110.692 205.044 112.491C205.124 112.741 204.99 113.008 204.741 113.088C204.491 113.173 204.224 113.035 204.144 112.785C203.418 110.568 204.282 107.989 206.197 106.653C206.495 106.444 206.954 106.177 207.484 106.284C208.183 106.426 208.512 107.139 208.619 107.375C209.648 109.606 209.434 112.015 209.069 113.636C208.744 115.092 208.187 116.499 207.595 117.813C209.96 116.236 212.476 114.878 215.085 113.76C215.325 113.654 215.606 113.769 215.708 114.01C215.811 114.25 215.699 114.531 215.459 114.633C212.373 115.956 209.43 117.621 206.704 119.585C206.62 119.647 206.522 119.674 206.428 119.674L206.424 119.678Z" fill="#DF8711"/>
<path d="M240.187 170.197L231.134 159.074L223.243 164.248L229.192 180.546L240.187 170.197Z" fill="#FADBE9"/>
<path d="M240.186 170.197L249.243 159.074L257.134 164.248L251.185 180.546L240.186 170.197Z" fill="#FADBE9"/>
<path d="M190.117 157.292C188.946 153.908 185.882 151.535 182.311 151.245L178.049 150.898L172.194 150.07L150.57 152.742L155.575 134.547C156.159 132.427 155.228 130.103 153.238 129.163C150.922 128.068 148.259 129.101 147.231 131.327L138.765 149.678C137.416 152.608 137.875 156.055 139.95 158.522L143.566 162.828C146.309 166.092 150.04 168.376 154.195 169.329L170.39 173.047L172.67 180.755L196.948 176.81L192.562 164.35L190.117 157.292Z" fill="#FFBE97"/>
<path d="M143.522 153.753L154.2 130.606C155.117 128.616 157.339 127.583 159.454 128.166C161.841 128.82 163.239 131.287 162.585 133.674L156.774 154.803L143.517 153.757L143.522 153.753Z" fill="#FFBE97"/>
<path d="M151.096 155.836L161.774 132.69C162.691 130.699 164.913 129.666 167.028 130.25C169.415 130.904 170.813 133.371 170.159 135.758L164.348 156.887L151.091 155.841L151.096 155.836Z" fill="#FFBE97"/>
<path d="M158.221 160.432L168.899 137.286C169.816 135.295 172.038 134.262 174.153 134.845C176.54 135.5 177.938 137.967 177.284 140.354L171.473 161.483L158.216 160.436L158.221 160.432Z" fill="#FFBE97"/>
<path d="M145.672 149.562C145.605 149.562 145.539 149.549 145.472 149.518C145.231 149.406 145.129 149.126 145.24 148.885L153.104 131.844C153.215 131.603 153.496 131.501 153.736 131.612C153.977 131.724 154.079 132.004 153.968 132.245L146.104 149.286C146.024 149.46 145.85 149.562 145.672 149.562Z" fill="#4F2B2B"/>
<path d="M153.452 151.7C153.385 151.7 153.323 151.687 153.256 151.66C153.016 151.553 152.909 151.272 153.016 151.032L161.343 132.499C161.449 132.258 161.73 132.156 161.97 132.258C162.211 132.365 162.318 132.646 162.211 132.886L153.884 151.419C153.804 151.593 153.63 151.7 153.452 151.7Z" fill="#4F2B2B"/>
<path d="M164.019 152.061C163.961 152.061 163.903 152.052 163.845 152.03C163.6 151.936 163.48 151.66 163.574 151.415L169.719 135.585C169.812 135.34 170.088 135.22 170.333 135.313C170.578 135.407 170.698 135.683 170.605 135.928L164.46 151.758C164.389 151.945 164.206 152.061 164.019 152.061Z" fill="#4F2B2B"/>
<path d="M171.753 173.096C171.499 173.096 171.286 172.892 171.277 172.633C171.268 172.371 171.477 172.152 171.74 172.143C175.739 172.032 179.755 170.456 182.765 167.82C182.961 167.646 183.264 167.668 183.433 167.864C183.607 168.06 183.585 168.363 183.389 168.532C180.218 171.311 175.979 172.972 171.766 173.092H171.753V173.096Z" fill="#4F2B2B"/>
<path d="M196.895 171.796L166.29 181.606L175.939 223.695C178.531 235.001 190.242 241.667 201.285 238.127C212.333 234.587 217.984 222.35 213.518 211.645L196.895 171.791V171.796Z" fill="#B4185C"/>
<path d="M206.967 235.713C206.82 235.713 206.677 235.646 206.584 235.517C206.428 235.308 206.472 235.01 206.686 234.854C213.9 229.564 216.527 220.092 213.081 211.828L198.804 177.593C198.702 177.353 198.818 177.072 199.058 176.974C199.299 176.872 199.579 176.988 199.677 177.228L213.953 211.463C217.569 220.132 214.813 230.067 207.243 235.62C207.158 235.682 207.06 235.713 206.962 235.713H206.967Z" fill="#0151A1"/>
<path d="M325.777 164.885L314.671 176.886L311.474 185.538L289.213 165.21L295.029 140.318L322.967 139.383L325.777 164.885Z" fill="#FFBE97"/>
<path d="M312.712 174.405C308.829 175.411 304.852 173.127 303.77 169.266L291.271 127.244L305.534 123.543L317.953 165.285C319.071 169.257 316.706 173.372 312.712 174.41V174.405Z" fill="#9F5656"/>
<path d="M321.774 93.6776C317.641 77.7494 301.375 68.1889 285.446 72.3213C269.518 76.4536 259.958 92.7203 264.09 108.648C268.222 124.577 284.489 134.137 300.417 130.005C316.345 125.873 325.906 109.606 321.774 93.6776ZM298.859 123.993C286.248 127.266 273.374 119.696 270.102 107.09C266.829 94.4792 274.399 81.6057 287.005 78.3328C299.616 75.0598 312.489 82.6299 315.762 95.2362C319.035 107.847 311.465 120.72 298.859 123.993Z" fill="#DF8711"/>
<path d="M322.063 135.687L312.022 137.544C308.878 138.122 305.832 136.154 305.071 133.05C304.309 129.947 306.104 126.79 309.158 125.855L318.919 122.862C322.232 121.847 325.715 123.828 326.538 127.19L326.814 128.326C327.638 131.692 325.461 135.059 322.054 135.687H322.063Z" fill="#FFBE97"/>
<path d="M323.59 146.685L313.428 147.696C310.249 148.012 307.377 145.795 306.878 142.638C306.379 139.48 308.432 136.484 311.553 135.807L321.532 133.638C324.917 132.903 328.225 135.166 328.764 138.59L328.947 139.743C329.485 143.168 327.036 146.338 323.59 146.681V146.685Z" fill="#FFBE97"/>
<path d="M325.736 155.636L315.575 156.647C312.395 156.963 309.523 154.746 309.024 151.589C308.526 148.431 310.578 145.435 313.7 144.758L323.679 142.589C327.063 141.854 330.372 144.116 330.911 147.541L331.093 148.694C331.632 152.118 329.183 155.289 325.736 155.632V155.636Z" fill="#FFBE97"/>
<path d="M322.918 165.999L314.016 165.055C311.233 164.761 309.163 162.343 309.296 159.546C309.43 156.75 311.727 154.546 314.524 154.519L323.474 154.439C326.511 154.412 328.947 156.946 328.8 159.978L328.751 161.002C328.604 164.035 325.937 166.319 322.918 165.999Z" fill="#FFBE97"/>
<path d="M311.474 147.376C311.247 147.376 311.042 147.211 311.006 146.979C310.966 146.721 311.14 146.476 311.398 146.436L327.073 143.885C327.335 143.845 327.576 144.018 327.616 144.277C327.656 144.535 327.482 144.78 327.224 144.82L311.549 147.371C311.523 147.371 311.496 147.376 311.474 147.376Z" fill="#4F2B2B"/>
<path d="M310.517 136.689C310.289 136.689 310.089 136.524 310.049 136.293C310.004 136.034 310.178 135.789 310.436 135.745L323.181 133.563C323.448 133.518 323.684 133.692 323.728 133.95C323.773 134.209 323.599 134.453 323.341 134.498L310.597 136.68C310.57 136.684 310.543 136.689 310.517 136.689Z" fill="#4F2B2B"/>
<path d="M311.38 156.175C311.117 156.175 310.908 155.966 310.903 155.703C310.903 155.44 311.113 155.226 311.375 155.226L325.732 155.164C325.994 155.164 326.204 155.373 326.208 155.636C326.208 155.899 325.999 156.113 325.736 156.113L311.38 156.175Z" fill="#4F2B2B"/>
<path d="M286.034 176.107L289.213 165.21C289.213 165.21 282.418 157.337 283.077 154.051C283.447 152.225 285.059 146.33 286.417 141.458C287.624 137.13 291.266 133.924 295.715 133.269L307.203 131.586C307.203 131.586 310.361 137.424 307.8 140.723C305.244 144.023 298.195 147.02 298.195 147.02L300.902 160.624L311.474 185.542L286.034 176.107Z" fill="#FFBE97"/>
<path d="M300.586 160.753C300.332 160.753 300.123 160.552 300.114 160.294C299.949 155.481 299.411 151.299 297.327 146.521C297.264 146.379 297.278 146.218 297.353 146.085C297.433 145.951 297.572 145.867 297.727 145.858C298.916 145.773 300.546 145.657 301.953 144.615C302.163 144.459 302.461 144.504 302.617 144.713C302.773 144.923 302.728 145.221 302.519 145.377C301.161 146.383 299.642 146.641 298.458 146.748C300.114 150.743 300.876 154.719 301.063 160.259C301.072 160.521 300.867 160.739 300.604 160.748C300.6 160.748 300.595 160.748 300.586 160.748V160.753Z" fill="#4F2B2B"/>
<path d="M307.203 142.068C307.061 142.068 306.918 142.006 306.825 141.881C306.664 141.672 306.709 141.374 306.918 141.218C310.116 138.786 310.378 135.082 310.249 133.087C310.222 132.65 309.88 132.294 309.408 132.325L305.15 132.432C304.901 132.423 304.67 132.232 304.665 131.969C304.661 131.706 304.865 131.488 305.128 131.484L309.385 131.377C310.334 131.386 311.14 132.076 311.198 133.024C311.34 135.206 311.046 139.276 307.497 141.975C307.413 142.042 307.31 142.073 307.212 142.073L307.203 142.068Z" fill="#4F2B2B"/>
<path d="M322.352 167.485C318.598 167.485 314.324 167.285 311.144 164.907C310.935 164.751 310.89 164.453 311.046 164.244C311.202 164.034 311.5 163.99 311.71 164.146C314.658 166.35 318.745 166.532 322.348 166.532C322.611 166.532 322.824 166.746 322.824 167.009C322.824 167.272 322.611 167.485 322.348 167.485H322.352Z" fill="#4F2B2B"/>
<path d="M284.4 170.278L314.034 182.719L300.755 223.807C297.189 234.845 284.943 240.465 274.247 235.976C263.551 231.488 258.987 218.806 264.37 208.533L284.4 170.278Z" fill="#B4185C"/>
<path d="M240.186 180.119C238.784 180.119 237.644 178.979 237.644 177.576C237.644 176.173 238.784 175.033 240.186 175.033C241.589 175.033 242.729 176.173 242.729 177.576C242.729 178.979 241.589 180.119 240.186 180.119ZM240.186 175.977C239.309 175.977 238.592 176.694 238.592 177.572C238.592 178.449 239.309 179.166 240.186 179.166C241.063 179.166 241.78 178.449 241.78 177.572C241.78 176.694 241.063 175.977 240.186 175.977Z" fill="#FADBE9"/>
<path d="M240.186 190.725C238.784 190.725 237.644 189.585 237.644 188.183C237.644 186.78 238.784 185.64 240.186 185.64C241.589 185.64 242.729 186.78 242.729 188.183C242.729 189.585 241.589 190.725 240.186 190.725ZM240.186 186.584C239.309 186.584 238.592 187.301 238.592 188.178C238.592 189.055 239.309 189.772 240.186 189.772C241.063 189.772 241.78 189.055 241.78 188.178C241.78 187.301 241.063 186.584 240.186 186.584Z" fill="#FADBE9"/>
<path d="M206.967 235.713C206.82 235.713 206.678 235.646 206.584 235.517C206.428 235.308 206.473 235.01 206.687 234.854C213.9 229.564 216.528 220.092 213.081 211.828L198.805 177.593C198.703 177.353 198.818 177.072 199.059 176.974C199.299 176.872 199.58 176.988 199.678 177.228L213.954 211.463C217.57 220.132 214.813 230.067 207.243 235.62C207.159 235.682 207.061 235.713 206.963 235.713H206.967Z" fill="#4F2B2B"/>
<path d="M272.782 235.713C272.684 235.713 272.586 235.682 272.501 235.62C264.936 230.067 262.175 220.132 265.791 211.463L280.067 177.228C280.169 176.988 280.446 176.872 280.686 176.974C280.926 177.077 281.042 177.353 280.94 177.593L266.664 211.828C263.217 220.092 265.849 229.559 273.058 234.854C273.267 235.01 273.316 235.308 273.161 235.517C273.067 235.642 272.925 235.713 272.778 235.713H272.782Z" fill="#4F2B2B"/>
<path d="M274.754 86.1343C270.101 91.7673 268.124 99.4753 270.096 107.09C271.904 114.05 276.638 119.469 282.64 122.381L294.405 94.3945L274.754 86.1343Z" fill="#F8D2A0"/>
<path d="M292.887 125.236C288.652 125.236 284.48 124.109 280.735 121.905C275.196 118.645 271.255 113.427 269.638 107.206C266.303 94.3635 274.042 81.2051 286.885 77.8698C299.723 74.539 312.885 82.2738 316.221 95.1161C319.552 107.958 311.817 121.117 298.974 124.452C296.962 124.973 294.918 125.236 292.887 125.236ZM292.923 78.0479C291.008 78.0479 289.062 78.2884 287.121 78.7916C274.786 81.9932 267.354 94.6352 270.556 106.97C272.105 112.946 275.89 117.96 281.212 121.086C286.533 124.216 292.758 125.084 298.73 123.53C311.064 120.329 318.496 107.687 315.295 95.3521C312.596 84.9544 303.191 78.0435 292.918 78.0435L292.923 78.0479Z" fill="#4F2B2B"/>
</svg>
