<svg width="700" height="400" viewBox="0 0 700 400" fill="none" xmlns="http://www.w3.org/2000/svg">
<mask id="mask0_759_3431" style="mask-type:alpha" maskUnits="userSpaceOnUse" x="0" y="0" width="700" height="400">
<path d="M700 0H0V400H700V0Z" fill="white"/>
</mask>
<g mask="url(#mask0_759_3431)">
<path d="M700 0H0V400H700V0Z" fill="white"/>
<path d="M574.152 91.6785C573.509 92.6821 573.604 93.9443 574.293 94.8371L527.635 138.184C527.527 138.087 527.411 137.996 527.285 137.914C526.004 137.097 524.305 137.471 523.486 138.751C522.667 140.03 523.043 141.731 524.322 142.55C524.527 142.681 524.742 142.779 524.964 142.85L517.318 177.393C516.297 177.266 515.247 177.715 514.657 178.639C513.838 179.919 514.214 181.62 515.494 182.439C516.06 182.799 516.709 182.928 517.327 182.849L525.829 220.768C525.243 220.959 524.716 221.345 524.357 221.904C523.97 222.512 523.853 223.211 523.969 223.868L435.439 248.289C435.238 247.754 434.869 247.275 434.35 246.943C433.071 246.124 431.37 246.5 430.551 247.779C429.732 249.058 430.108 250.759 431.387 251.578C431.76 251.816 432.168 251.949 432.58 251.993L431.172 363.009C429.929 362.387 428.39 362.792 427.624 363.989C426.805 365.268 427.181 366.969 428.46 367.788C428.578 367.863 428.697 367.924 428.821 367.978L415.696 406.632C414.587 406.367 413.386 406.809 412.738 407.823C412.412 408.333 412.279 408.91 412.313 409.472L361.285 417.347L361.498 416.684L360.793 417.426L360.485 417.473L360.594 417.636L300.268 481.046C300.197 480.991 300.124 480.938 300.046 480.887C298.767 480.068 297.066 480.444 296.247 481.724C295.428 483.003 295.804 484.704 297.083 485.523C298.362 486.342 300.064 485.966 300.883 484.687C301.187 484.212 301.325 483.675 301.313 483.15L340.401 478.723C340.46 478.769 340.52 478.813 340.584 478.854C340.903 479.059 341.25 479.187 341.602 479.248L336.44 545.803C335.547 545.818 334.68 546.262 334.163 547.071C333.344 548.35 333.72 550.052 334.999 550.871C336.279 551.69 337.98 551.314 338.799 550.034C339.123 549.529 339.257 548.954 339.224 548.398L385.002 541.528C385.165 542.188 385.569 542.792 386.19 543.188C387.022 543.72 388.029 543.745 388.857 543.351L405.766 571.649C405.497 571.845 405.258 572.091 405.069 572.388C404.25 573.667 404.626 575.369 405.905 576.188C407.185 577.007 408.886 576.631 409.705 575.351C410.201 574.574 410.256 573.642 409.938 572.847L442.464 556.177C442.672 556.507 442.951 556.796 443.303 557.021C444.452 557.756 445.937 557.528 446.823 556.548L475.768 580.246C474.973 581.523 475.35 583.205 476.621 584.017C477.901 584.836 479.602 584.46 480.421 583.181C480.563 582.958 480.668 582.722 480.739 582.479L508.392 587.155C508.319 588.13 508.77 589.115 509.654 589.678C509.883 589.825 510.126 589.931 510.375 590.001L502.421 631.888C501.427 631.794 500.416 632.243 499.842 633.143C499.023 634.423 499.399 636.124 500.679 636.943C501.958 637.762 503.659 637.386 504.478 636.107C504.539 636.013 504.588 635.917 504.636 635.819L563.562 657.777C563.256 658.906 563.699 660.151 564.736 660.813C566.015 661.632 567.717 661.256 568.535 659.977C569.354 658.698 568.978 656.996 567.699 656.177C567.334 655.943 566.934 655.811 566.53 655.765L568.523 563.748C569.304 563.648 570.036 563.216 570.493 562.502C571.312 561.222 570.936 559.521 569.657 558.702C568.377 557.883 566.676 558.259 565.857 559.538C565.777 559.666 565.71 559.799 565.651 559.933L534.36 551.635C534.566 550.563 534.12 549.421 533.142 548.797C532.825 548.594 532.48 548.465 532.132 548.404L535.846 471.946C536.71 471.908 537.542 471.464 538.044 470.682C538.863 469.402 538.487 467.701 537.208 466.882C535.928 466.063 534.227 466.439 533.408 467.718C533.22 468.012 533.099 468.329 533.033 468.65L497.835 464.817C497.85 463.896 497.403 462.987 496.568 462.454L496.79 462.575L539.641 383.403C540.857 383.923 542.303 383.506 543.037 382.357C543.417 381.765 543.536 381.082 543.432 380.438L579.883 371.047C580.081 371.6 580.453 372.095 580.989 372.435C582.27 373.252 583.969 372.878 584.788 371.598C585.607 370.319 585.231 368.618 583.952 367.799C583.453 367.48 582.89 367.343 582.339 367.373L574.405 311.079C575.078 310.92 575.69 310.513 576.091 309.886C576.91 308.607 576.534 306.906 575.254 306.087C574.721 305.746 574.117 305.614 573.532 305.668L567.287 271.423C567.917 271.248 568.485 270.851 568.864 270.258C569.683 268.979 569.307 267.278 568.028 266.459C567.893 266.372 567.751 266.302 567.61 266.242L585.57 205.003C586.63 205.187 587.743 204.736 588.359 203.774C588.821 203.049 588.903 202.189 588.653 201.429L628.478 183.198C628.692 183.589 629.005 183.933 629.406 184.191C630.685 185.01 632.387 184.634 633.206 183.354C634.023 182.073 633.649 180.374 632.369 179.555C632.359 179.55 632.349 179.544 632.341 179.538L644.473 148.11L650.886 131.498C651.956 131.696 653.088 131.25 653.712 130.276C654.531 128.997 654.155 127.296 652.875 126.477C651.88 125.841 650.634 125.927 649.742 126.597L620.296 100.683C620.317 100.652 620.342 100.621 620.364 100.587C621.182 99.3074 620.806 97.6062 619.527 96.7872C618.248 95.9683 616.547 96.3442 615.728 97.6235C615.534 97.9274 615.408 98.2546 615.346 98.5885L579.216 93.3042C579.265 92.3484 578.817 91.3938 577.951 90.8422C576.672 90.0233 574.971 90.3992 574.152 91.6785ZM648.644 128.835C648.659 129.729 649.103 130.595 649.912 131.113C650.069 131.212 650.231 131.292 650.395 131.358L643.125 150.195L631.886 179.309C631.637 179.212 631.378 179.154 631.118 179.133L623.107 128.138L648.642 128.837L648.644 128.835ZM571.323 309.653L549.345 323.536L527.931 293.704C528.125 293.535 528.302 293.338 528.447 293.11C528.517 293.003 528.573 292.89 528.625 292.776L571.104 307.736C570.942 308.385 571.023 309.067 571.323 309.653ZM580.668 368.044C580.474 368.213 580.297 368.411 580.152 368.639C580.067 368.773 579.998 368.907 579.94 369.047L514.421 348.185C514.558 347.561 514.472 346.911 514.186 346.35L549.214 324.221L580.67 368.043L580.668 368.044ZM384.695 536.236L416.125 528.034L390.074 539.535C389.86 539.15 389.548 538.812 389.151 538.554C388.254 537.981 387.154 537.996 386.294 538.492L384.695 536.236ZM337.961 546.236C337.64 546.033 337.295 545.904 336.943 545.842L342.108 479.288C342.577 479.28 343.037 479.153 343.443 478.918L383.853 535.928L339.06 547.616C338.862 547.066 338.489 546.575 337.959 546.234L337.961 546.236ZM434.46 251.509C434.714 251.327 434.939 251.101 435.127 250.833L474.676 273.192C474.124 274.415 474.537 275.892 475.703 276.636L463.111 301.084L434.46 251.509ZM615.787 100.682C615.821 100.729 615.857 100.778 615.896 100.823L584.506 124.906C584.349 124.737 584.173 124.586 583.972 124.456C583.442 124.116 582.839 123.985 582.257 124.035L580.844 116.15L615.787 100.682ZM540.218 171.117L532.035 179.775C531.967 179.721 531.895 179.669 531.819 179.621C531.345 179.319 530.814 179.18 530.293 179.188L529.337 170.385L579.626 129.434L540.218 171.117ZM532.403 180.123L561.024 149.849L580.793 128.938C580.861 128.992 580.933 129.043 581.009 129.092C581.432 129.362 581.899 129.5 582.368 129.52L584.847 181.528L533.077 181.677C533.022 181.108 532.792 180.562 532.407 180.123L532.403 180.123ZM581.757 124.125C581.124 124.299 580.552 124.696 580.173 125.292C579.803 125.868 579.678 126.53 579.768 127.159L528.427 139.351L580.367 116.362L581.759 124.127L581.757 124.125ZM528.12 141.715C528.489 141.139 528.614 140.477 528.524 139.849L579.884 127.652C579.963 127.881 580.07 128.101 580.205 128.304L529.271 169.78L526.35 142.926C527.055 142.781 527.702 142.367 528.118 141.713L528.12 141.715ZM525.846 142.984L528.803 170.164L518.938 178.197C518.795 178.053 518.635 177.918 518.458 177.805C518.254 177.674 518.038 177.577 517.817 177.505L525.462 142.962C525.591 142.978 525.72 142.988 525.85 142.985L525.846 142.984ZM519.722 180.239C519.745 179.658 519.588 179.078 519.259 178.592L528.867 170.767L529.79 179.243C529.085 179.388 528.438 179.802 528.022 180.456C527.848 180.727 527.731 181.019 527.662 181.317L519.722 180.239ZM531.162 184.562L544.643 216.748L529.17 222.234C528.957 221.773 528.617 221.364 528.156 221.068C527.846 220.869 527.509 220.743 527.169 220.68L530.349 184.688C530.624 184.686 530.898 184.644 531.162 184.562ZM564.672 266.769C564.507 266.923 564.356 267.099 564.228 267.299C563.979 267.69 563.84 268.117 563.805 268.548L526.549 270.921L526.908 226.128C527.407 226.085 527.888 225.909 528.299 225.61L564.673 266.771L564.672 266.769ZM492.564 465.875L466.33 478.867C466.117 478.501 465.817 478.176 465.434 477.933C465.247 477.814 465.053 477.723 464.851 477.653L466.224 467.148L492.407 465.399C492.445 465.563 492.498 465.722 492.564 465.878L492.564 465.875ZM512.269 584.862C511.467 584.496 510.555 584.547 509.811 584.952L499.567 569.798L529.478 552.784C529.668 553.032 529.902 553.255 530.179 553.433L512.268 584.86L512.269 584.862ZM529.208 552.356L499.281 569.378L467.41 522.229C467.628 522.049 467.824 521.834 467.984 521.583C468.001 521.555 468.016 521.525 468.034 521.497L529.062 550.224C528.818 550.934 528.88 551.702 529.206 552.354L529.208 552.356ZM479.502 275.804C479.572 275.696 479.627 275.587 479.68 275.474L523.465 290.957C523.272 291.715 523.415 292.522 523.849 293.167L497.24 314.904L478.61 276.671C478.958 276.459 479.266 276.17 479.502 275.804ZM524.172 293.56C524.315 293.704 524.472 293.835 524.651 293.95C524.834 294.068 525.027 294.157 525.225 294.227L512.569 344.985C512.329 344.908 512.085 344.866 511.84 344.858L497.473 315.375L524.174 293.562L524.172 293.56ZM511.29 344.891C510.94 344.95 510.603 345.073 510.299 345.259L484.44 332.052L481.935 330.773C482.271 329.935 482.169 328.999 481.693 328.259L497.065 315.7L511.287 344.887L511.29 344.891ZM481.7 331.232C481.7 331.232 481.702 331.231 481.705 331.229L484.199 332.503L509.853 345.605C509.693 345.756 509.546 345.929 509.42 346.124C509.215 346.446 509.085 346.794 509.024 347.146L485.789 352.457L480.376 332.317C480.903 332.113 481.375 331.748 481.702 331.234L481.7 331.232ZM478.153 276.893L496.837 315.234L481.38 327.862C481.229 327.701 481.057 327.556 480.864 327.433C480.461 327.176 480.018 327.037 479.572 327.006L477.547 277.048C477.753 277.021 477.956 276.968 478.153 276.893ZM432.313 364.082L477.348 331.597C477.508 331.774 477.693 331.934 477.901 332.069C478.515 332.46 479.224 332.576 479.887 332.452L485.292 352.567L432.556 364.621C432.495 364.433 432.413 364.254 432.311 364.084L432.313 364.082ZM485.425 353.057L491.716 376.462C491.232 376.672 490.805 377.023 490.5 377.502C490.382 377.688 490.289 377.885 490.221 378.085L455.279 370.625L432.675 365.8C432.703 365.569 432.703 365.34 432.671 365.115L485.425 353.057ZM344.658 475.618L367.677 465.228L381.906 458.807C382.121 459.185 382.425 459.517 382.818 459.768C383.587 460.261 384.507 460.317 385.297 460.01L391.392 472.184L344.77 476.017C344.742 475.88 344.705 475.747 344.661 475.616L344.658 475.618ZM466.553 445.008L429.09 467.879C428.897 467.621 428.657 467.387 428.368 467.204C427.871 466.888 427.311 466.752 426.761 466.777L423.692 451.363L466.36 444.489C466.406 444.669 466.471 444.845 466.552 445.012L466.553 445.008ZM426.258 466.845C425.586 467.004 424.97 467.41 424.569 468.041C424.467 468.199 424.385 468.363 424.32 468.532L387.003 457.955C387.044 457.727 387.056 457.496 387.041 457.268L423.192 451.444L426.259 466.847L426.258 466.845ZM385.751 459.784C386.088 459.573 386.388 459.29 386.617 458.932C386.717 458.775 386.801 458.61 386.865 458.444L400.193 462.227L424.178 469.037C424.15 469.189 424.139 469.342 424.137 469.494L391.936 472.141L385.748 459.783L385.751 459.784ZM424.18 469.999C424.31 470.73 424.73 471.408 425.405 471.84C425.679 472.015 425.971 472.132 426.27 472.201L419.237 524.248C418.856 524.233 418.478 524.297 418.124 524.435L392.185 472.631L424.182 470.001L424.18 469.999ZM420.602 524.675C420.328 524.5 420.036 524.383 419.737 524.314L426.77 472.267C427.324 472.292 427.877 472.144 428.349 471.848L447.591 496.946L420.832 524.84C420.758 524.781 420.681 524.727 420.6 524.676L420.602 524.675ZM428.752 471.54C428.921 471.383 429.074 471.205 429.204 471.004C429.245 470.943 429.277 470.879 429.31 470.817L461.282 479.615C461.079 480.472 461.299 481.383 461.876 482.053L447.946 496.575L428.752 471.54ZM461.636 478.771C461.561 478.889 461.5 479.012 461.444 479.134L429.507 470.345C429.584 470.097 429.624 469.845 429.632 469.592L465.708 467.181L464.356 477.53C463.319 477.376 462.236 477.827 461.637 478.768L461.636 478.771ZM429.597 469.086C429.563 468.866 429.503 468.65 429.416 468.443L466.823 445.449C467.015 445.705 467.253 445.934 467.541 446.117C467.816 446.294 468.112 446.412 468.416 446.48L465.778 466.668L429.599 469.085L429.597 469.086ZM491.335 381.299C491.37 381.321 491.405 381.339 491.442 381.36L478.584 416.743L469.719 441.136C469.153 440.988 468.561 441.029 468.027 441.235L446.145 397.379L490.281 380.047C490.489 380.545 490.845 380.987 491.335 381.299ZM466.575 442.537C466.337 442.996 466.243 443.494 466.277 443.981L423.59 450.859L415.841 411.947C416.376 411.788 416.864 411.467 417.229 411.001L466.575 442.537ZM415.343 412.048L423.088 450.942L386.957 456.764C386.81 456.19 386.48 455.663 385.985 455.279L413.799 411.758C414.287 412.012 414.826 412.104 415.343 412.048ZM381.978 455.968C381.508 456.705 381.434 457.578 381.696 458.345L371.322 463.025L344.445 475.155C344.387 475.058 344.324 474.963 344.255 474.872L377.968 443.821L385.317 454.895C384.113 454.414 382.703 454.836 381.978 455.968ZM344.527 477.778C344.729 477.378 344.822 476.949 344.82 476.523L391.638 472.674L417.668 524.659C417.406 524.821 417.17 525.027 416.969 525.277L344.527 477.778ZM421.197 525.191L447.903 497.35L463.8 518.085C463.631 518.242 463.478 518.419 463.348 518.62C463.024 519.125 462.89 519.697 462.922 520.251L421.789 526.339C421.686 525.921 421.487 525.526 421.197 525.191ZM464.203 517.776L448.26 496.981L462.242 482.405C462.316 482.464 462.393 482.518 462.474 482.569C462.892 482.837 463.356 482.974 463.821 482.997L465.299 517.378C464.913 517.43 464.54 517.566 464.207 517.776L464.203 517.776ZM492.34 464.892L466.293 466.633L468.918 446.545C469.679 446.573 470.432 446.286 470.982 445.726L492.685 463.439C492.43 463.897 492.318 464.399 492.338 464.89L492.34 464.892ZM492.973 463.019L471.301 445.331C471.313 445.313 471.327 445.297 471.339 445.279C472.157 444 471.782 442.299 470.502 441.48C470.403 441.417 470.299 441.36 470.194 441.311L490.025 386.749L491.904 381.573C492.082 381.636 492.264 381.679 492.445 381.704L494.628 462.065C493.994 462.174 493.401 462.498 492.969 463.019L492.973 463.019ZM492.199 376.302L485.923 352.944L508.99 347.67C509.013 348.51 509.421 349.322 510.15 349.841L493.824 376.421C493.297 376.214 492.733 376.181 492.203 376.302L492.199 376.302ZM523.815 290.147C523.745 290.254 523.69 290.364 523.637 290.477L479.852 274.994C479.901 274.798 479.929 274.599 479.933 274.401L526.039 271.464L525.901 288.892C525.077 288.963 524.295 289.399 523.814 290.151L523.815 290.147ZM525.198 225.706C525.574 225.948 525.988 226.08 526.405 226.123L526.048 270.953L479.903 273.893C479.825 273.397 479.613 272.923 479.278 272.532L524.953 225.529C525.031 225.592 525.112 225.652 525.198 225.706ZM476.159 276.87C476.446 276.985 476.745 277.05 477.044 277.065L479.069 327.014C478.782 327.047 478.502 327.128 478.235 327.249L463.416 301.607L476.157 276.868L476.159 276.87ZM477.796 327.505C477.514 327.704 477.266 327.959 477.067 328.268C476.479 329.187 476.509 330.321 477.044 331.191L432.016 363.67C431.902 363.539 431.776 363.417 431.634 363.307L463.136 302.146L477.791 327.506L477.796 327.505ZM432.264 366.958C432.4 366.747 432.499 366.524 432.569 366.297L490.099 378.578C490.05 378.908 490.061 379.243 490.13 379.563L445.919 396.925L431.395 367.813C431.735 367.603 432.033 367.318 432.264 366.958ZM445.672 397.566L467.573 441.461C467.302 441.629 467.056 441.843 466.85 442.108L417.504 410.572C417.837 409.929 417.89 409.206 417.7 408.547L445.671 397.563L445.672 397.566ZM413.373 411.483L385.777 454.664L378.35 443.471L413.221 411.352C413.27 411.398 413.32 411.44 413.373 411.483ZM343.912 474.499C343.801 474.398 343.683 474.305 343.553 474.221C343.422 474.136 343.286 474.069 343.148 474.009L361.002 418.25L377.687 443.391L343.914 474.498L343.912 474.499ZM343.864 478.628C343.977 478.53 344.086 478.419 344.184 478.301L344.368 478.281L416.694 525.703C416.402 526.251 416.316 526.859 416.41 527.438L384.384 535.796L343.863 478.631L343.864 478.628ZM406.205 571.393L389.295 543.095C389.564 542.899 389.803 542.654 389.992 542.356C390.115 542.167 390.205 541.966 390.276 541.761L413.75 547.41L407.81 571.153C407.262 571.068 406.703 571.154 406.207 571.392L406.205 571.393ZM390.394 541.267C390.456 540.839 390.416 540.403 390.28 540L416.716 528.33C416.93 528.715 417.241 529.053 417.639 529.311C417.822 529.429 418.015 529.517 418.21 529.586L413.874 546.919L390.394 541.267ZM418.701 529.71C419.443 529.824 420.203 529.629 420.799 529.168L442.815 552.786C442.687 552.917 442.569 553.065 442.466 553.225C442.36 553.39 442.276 553.564 442.21 553.741L414.364 547.04L418.699 529.711L418.701 529.71ZM443.204 552.457L424.154 532.022L445.8 552.15C444.931 551.805 443.952 551.932 443.204 552.457ZM421.296 528.672C421.344 528.608 421.391 528.543 421.436 528.476C421.76 527.971 421.894 527.399 421.862 526.845L462.995 520.757C463.157 521.421 463.563 522.027 464.183 522.423C464.73 522.773 465.355 522.903 465.954 522.838L477.222 579.098C476.844 579.225 476.49 579.438 476.192 579.724L421.293 528.671L421.296 528.672ZM466.452 522.737C466.637 522.681 466.817 522.61 466.991 522.515L498.839 569.63L480.364 580.139C480.162 579.847 479.902 579.59 479.582 579.386C479.006 579.017 478.345 578.894 477.719 578.982L466.453 522.739L466.452 522.737ZM480.611 580.582L499.121 570.053L509.387 585.242C509.17 585.422 508.974 585.636 508.814 585.887C508.657 586.133 508.545 586.394 508.473 586.662L480.834 581.986C480.883 581.505 480.805 581.022 480.609 580.583L480.611 580.582ZM513.452 588.849C514.25 587.601 513.912 585.956 512.709 585.117L530.547 553.819L503.026 631.43L510.873 590.108C511.867 590.201 512.878 589.752 513.452 588.852L513.452 588.849ZM503.639 632.316C503.533 632.248 503.422 632.19 503.31 632.14L531.087 553.809C531.491 553.895 531.907 553.888 532.302 553.793L543.394 588.311L503.793 632.429C503.741 632.392 503.691 632.353 503.637 632.317L503.639 632.316ZM529.342 549.637C529.316 549.678 529.294 549.722 529.271 549.764L468.251 521.04C468.537 520.258 468.442 519.398 468.029 518.7L487.097 504.846L529.584 549.317C529.497 549.418 529.415 549.521 529.342 549.637ZM467.731 518.289C467.565 518.099 467.372 517.929 467.145 517.785C466.728 517.517 466.264 517.38 465.798 517.358L464.321 482.976C464.804 482.911 465.267 482.715 465.656 482.408L486.74 504.475L467.727 518.288L467.731 518.289ZM466.027 482.054C466.114 481.953 466.197 481.848 466.27 481.733C466.597 481.222 466.73 480.645 466.697 480.086L533.059 469.868C533.123 470.126 533.224 470.373 533.362 470.605L487.16 504.173L466.029 482.052L466.027 482.054ZM532.98 469.367L466.62 479.583C466.599 479.497 466.574 479.412 466.542 479.328L492.808 466.319C493.012 466.62 493.279 466.884 493.602 467.092C494.884 467.909 496.583 467.535 497.402 466.255C497.59 465.962 497.711 465.644 497.777 465.324L532.973 469.158C532.971 469.229 532.974 469.299 532.978 469.368L532.98 469.367ZM495.134 462.027L492.951 381.726C493.809 381.684 494.635 381.24 495.133 380.461C495.356 380.111 495.489 379.728 495.54 379.34L537.973 381.021C538.017 381.859 538.444 382.663 539.192 383.161L496.344 462.328C495.957 462.129 495.544 462.03 495.132 462.025L495.134 462.027ZM538.401 379.398C538.178 379.748 538.045 380.13 537.993 380.517L496.494 378.873L535.293 375.039L538.725 378.98C538.605 379.105 538.494 379.245 538.397 379.397L538.401 379.398ZM495.514 378.458C495.375 377.743 494.959 377.084 494.297 376.661C494.29 376.657 494.282 376.653 494.274 376.647L510.584 350.093C511.497 350.516 512.55 350.398 513.342 349.829L534.888 374.567L495.516 378.456L495.514 378.458ZM513.726 349.497C513.845 349.372 513.957 349.231 514.054 349.079C514.136 348.947 514.207 348.811 514.265 348.671L579.785 369.533C579.742 369.734 579.719 369.936 579.72 370.139L535.507 374.507L513.726 349.497ZM513.914 345.923C513.725 345.677 513.494 345.458 513.217 345.28C513.159 345.243 513.099 345.212 513.04 345.179L525.713 294.346C526.338 294.441 526.976 294.317 527.519 294.001L548.916 323.81L513.914 345.923ZM528.387 290.055C528.187 289.767 527.926 289.511 527.611 289.31C527.234 289.069 526.821 288.936 526.404 288.894L526.543 271.431L563.81 269.056C563.837 269.322 563.903 269.581 564.004 269.828L528.384 290.054L528.387 290.055ZM565.076 266.457L528.68 225.27C528.795 225.149 528.902 225.015 528.994 224.869C529.42 224.202 529.519 223.423 529.339 222.713L544.84 217.218L565.392 266.283C565.282 266.335 565.177 266.393 565.074 266.458L565.076 266.457ZM545.125 216.577L531.631 184.366C532.036 184.15 532.394 183.834 532.657 183.419C532.72 183.32 532.773 183.219 532.824 183.116L573.21 197.883L583.382 201.602C583.26 202.07 583.269 202.556 583.391 203.01L545.127 216.576L545.125 216.577ZM583.724 200.81C583.659 200.911 583.604 201.017 583.554 201.125L532.999 182.641C533.039 182.489 533.065 182.338 533.079 182.184L584.87 182.035L585.705 199.562C584.918 199.66 584.181 200.092 583.724 200.81ZM585.354 181.526L582.874 129.494C583.321 129.431 583.748 129.258 584.118 128.986L629.194 179.708C628.956 179.894 628.744 180.121 628.572 180.39C628.369 180.707 628.24 181.052 628.179 181.4L585.355 181.523L585.354 181.526ZM630.604 179.139C630.264 179.176 629.93 179.274 629.625 179.433L584.497 128.651C584.61 128.531 584.715 128.399 584.805 128.255C585.035 127.893 585.168 127.501 585.217 127.102L622.589 128.125L630.602 179.14L630.604 179.139ZM585.233 126.594C585.204 126.138 585.063 125.698 584.817 125.308L616.25 101.19C616.349 101.275 616.451 101.354 616.563 101.427C617.15 101.801 617.823 101.924 618.46 101.825L622.512 127.613L585.233 126.594ZM615.538 100.235L580.754 115.632L577.203 95.8088C577.836 95.6345 578.408 95.2379 578.787 94.6417C578.957 94.3776 579.072 94.0959 579.142 93.8069L615.296 99.0952C615.296 99.4878 615.377 99.8751 615.538 100.235ZM574.638 95.2081C574.746 95.3052 574.863 95.3964 574.988 95.478C575.518 95.8183 576.121 95.9484 576.703 95.8988L580.276 115.844L528.205 138.891C528.14 138.775 528.063 138.661 527.98 138.555L574.638 95.2081ZM517.824 182.739C518.411 182.548 518.937 182.162 519.297 181.603C519.471 181.332 519.588 181.04 519.657 180.742L527.597 181.819C527.556 182.766 528.005 183.708 528.86 184.254C529.17 184.452 529.507 184.578 529.848 184.641L526.667 220.634C526.554 220.634 526.44 220.641 526.327 220.654L517.825 182.735L517.824 182.739ZM524.108 224.357C524.218 224.651 524.378 224.927 524.588 225.173L478.913 272.176C478.836 272.113 478.754 272.053 478.668 271.999C477.419 271.199 475.768 271.541 474.929 272.75L435.38 250.391C435.613 249.873 435.675 249.314 435.579 248.781L524.11 224.359L524.108 224.357ZM433.093 252.003C433.413 251.977 433.73 251.895 434.024 251.76L462.838 301.619L431.695 362.079L433.091 252.001L433.093 252.003ZM429.307 368.146C429.856 368.278 430.426 368.234 430.941 368.036L445.445 397.106L417.515 408.072C417.299 407.645 416.973 407.267 416.541 406.991C416.424 406.916 416.304 406.855 416.18 406.801L429.305 368.148L429.307 368.146ZM412.395 409.978C412.486 410.336 412.648 410.676 412.875 410.975L378.064 443.038L361.352 417.854L412.394 409.976L412.395 409.978ZM301.261 482.645C301.165 482.19 300.954 481.757 300.64 481.398L360.342 418.645L342.665 473.855C341.571 473.614 340.393 474.058 339.753 475.057C339.098 476.082 339.21 477.373 339.933 478.269L301.26 482.649L301.261 482.645ZM341.165 547.593L384.171 536.371L385.88 538.783C385.681 538.953 385.501 539.156 385.353 539.389C385.03 539.894 384.895 540.469 384.927 541.027L341.163 547.595L341.165 547.593ZM409.71 572.394C409.502 572.065 409.221 571.773 408.871 571.55C408.688 571.432 408.496 571.345 408.3 571.274L414.243 547.526L442.078 554.226C441.989 554.733 442.049 555.252 442.235 555.725L409.71 572.394ZM447.129 556.14C447.637 555.313 447.656 554.32 447.26 553.503L471.947 576.461L447.131 556.142L447.129 556.14ZM504.817 635.346C505.063 634.436 504.822 633.456 504.177 632.759L543.577 588.862L565.139 655.963C564.647 656.172 564.211 656.527 563.9 657.01C563.84 657.104 563.788 657.202 563.742 657.298L504.815 635.344L504.817 635.346ZM566.023 655.754C565.888 655.763 565.753 655.78 565.621 655.81L543.971 588.428L566.573 563.25C566.614 563.28 566.654 563.31 566.697 563.338C567.108 563.602 567.563 563.739 568.018 563.766L566.023 655.754ZM565.495 560.414C565.294 561.304 565.548 562.246 566.188 562.914L543.792 587.865L532.789 553.621C533.263 553.409 533.683 553.063 533.983 552.594C534.079 552.442 534.159 552.283 534.223 552.121L565.495 560.414ZM531.627 548.363C531.024 548.371 530.434 548.577 529.955 548.96L487.517 504.538L533.663 471.011C533.829 471.201 534.022 471.372 534.249 471.515C534.592 471.733 534.964 471.865 535.343 471.919L531.629 548.361L531.627 548.363ZM542.203 378.556C541.226 377.933 540.003 378.004 539.115 378.644L535.918 374.974L579.211 370.697L543.307 379.946C543.109 379.393 542.736 378.897 542.199 378.556L542.203 378.556ZM581.839 367.444C581.574 367.508 581.318 367.609 581.084 367.748L549.645 323.949L571.596 310.081C571.785 310.328 572.017 310.548 572.293 310.724C572.791 311.043 573.355 311.18 573.905 311.151L581.839 367.444ZM573.032 305.758C572.403 305.933 571.834 306.33 571.455 306.923C571.385 307.03 571.329 307.143 571.277 307.256L528.798 292.296C528.95 291.689 528.889 291.056 528.638 290.495L564.244 270.275C564.45 270.594 564.725 270.877 565.067 271.093C565.6 271.434 566.205 271.566 566.79 271.511L573.034 305.757L573.032 305.758ZM567.125 266.088C566.708 265.999 566.279 266.009 565.874 266.112L545.321 217.047L583.567 203.489C583.78 203.934 584.114 204.328 584.561 204.612C584.73 204.719 584.902 204.804 585.082 204.871L567.128 266.093L567.125 266.088ZM588.452 200.963C588.237 200.573 587.925 200.228 587.524 199.97C587.114 199.709 586.665 199.571 586.213 199.545L585.38 182.032L628.142 181.911C628.147 182.19 628.192 182.468 628.279 182.73L588.452 200.963ZM649.364 126.941C649.259 127.055 649.163 127.178 649.076 127.313C648.871 127.632 648.742 127.976 648.681 128.329L623.028 127.627L618.954 101.702C619.328 101.572 619.676 101.36 619.967 101.073L649.362 126.942L649.364 126.941Z" fill="#DF8711"/>
<path d="M51.6902 138.609C52.38 139.581 53.5857 139.966 54.6717 139.661L77.3843 199.16C77.2537 199.224 77.1256 199.298 77.0029 199.383C75.765 200.265 75.4757 201.981 76.355 203.219C77.2344 204.458 78.9526 204.747 80.1912 203.867C80.389 203.726 80.5603 203.563 80.7095 203.385L109.873 223.414C109.373 224.313 109.395 225.454 110.032 226.348C110.911 227.586 112.629 227.875 113.868 226.995C114.414 226.605 114.776 226.052 114.935 225.45L153.278 231.771C153.235 232.386 153.396 233.019 153.78 233.562C154.198 234.148 154.803 234.518 155.455 234.657L144.935 325.889C144.363 325.875 143.781 326.038 143.278 326.394C142.039 327.273 141.751 328.991 142.63 330.23C143.509 331.469 145.228 331.757 146.466 330.878C146.826 330.621 147.103 330.293 147.297 329.927L249.702 372.82C248.659 373.74 248.459 375.318 249.282 376.477C250.161 377.715 251.879 378.004 253.118 377.124C253.231 377.044 253.332 376.956 253.429 376.861L284.351 403.51C283.69 404.439 283.65 405.719 284.348 406.699C284.698 407.193 285.184 407.532 285.718 407.711L273.904 457.973L273.369 457.528L273.792 458.459L273.721 458.762L273.913 458.722L310.107 538.409C310.03 538.455 309.952 538.503 309.877 538.556C308.638 539.435 308.349 541.153 309.229 542.392C310.108 543.63 311.826 543.919 313.065 543.04C314.303 542.16 314.592 540.442 313.713 539.204C313.386 538.743 312.94 538.415 312.449 538.228L322.987 500.328C323.051 500.291 323.115 500.252 323.177 500.208C323.486 499.989 323.735 499.715 323.923 499.412L383.699 529.13C383.378 529.963 383.465 530.933 384.022 531.716C384.901 532.955 386.619 533.243 387.858 532.364C389.096 531.485 389.385 529.766 388.506 528.528C388.159 528.039 387.676 527.698 387.148 527.521L397.926 482.502C398.599 482.599 399.311 482.45 399.911 482.023C400.716 481.451 401.116 480.527 401.061 479.611L433.633 474.534C433.714 474.857 433.852 475.171 434.057 475.457C434.936 476.696 436.654 476.984 437.893 476.105C439.132 475.226 439.42 473.507 438.541 472.269C438.006 471.518 437.163 471.118 436.306 471.114L433.035 434.713C433.418 434.643 433.791 434.493 434.132 434.251C435.243 433.461 435.588 431.998 435.011 430.81L467.827 412.85C468.713 414.066 470.414 414.346 471.643 413.471C472.882 412.592 473.17 410.874 472.291 409.635C472.138 409.42 471.958 409.234 471.759 409.077L486.454 385.19C487.331 385.623 488.413 385.573 489.266 384.965C489.488 384.807 489.678 384.621 489.836 384.417L525.693 407.483C525.234 408.37 525.271 409.475 525.891 410.344C526.77 411.583 528.489 411.871 529.727 410.992C530.966 410.113 531.254 408.394 530.375 407.156C530.31 407.065 530.24 406.983 530.168 406.901L572.6 360.492C573.533 361.199 574.853 361.254 575.856 360.541C577.094 359.662 577.383 357.944 576.503 356.705C575.624 355.466 573.906 355.178 572.667 356.057C572.314 356.308 572.041 356.629 571.847 356.987L487.277 320.668C487.477 319.907 487.351 319.066 486.859 318.375C485.98 317.137 484.262 316.848 483.023 317.727C481.784 318.607 481.496 320.325 482.375 321.563C482.463 321.685 482.562 321.797 482.664 321.902L463.248 347.807C462.331 347.214 461.105 347.2 460.161 347.872C459.854 348.09 459.605 348.362 459.418 348.662L389.918 316.577C390.207 315.762 390.107 314.823 389.57 314.065C388.69 312.826 386.972 312.538 385.733 313.417C384.495 314.296 384.206 316.015 385.085 317.253C385.287 317.538 385.536 317.769 385.809 317.95L369.069 349.149C368.221 348.79 367.211 348.864 366.404 349.439L366.599 349.278L309.245 279.889C310.182 278.957 310.337 277.46 309.547 276.348C309.14 275.775 308.551 275.409 307.916 275.263L312.863 237.949C313.45 237.972 314.049 237.813 314.564 237.443C315.802 236.562 316.091 234.846 315.212 233.607C314.333 232.369 312.614 232.08 311.376 232.959C310.893 233.302 310.555 233.774 310.376 234.295L255.21 220.563C255.314 219.88 255.166 219.16 254.735 218.554C253.856 217.315 252.138 217.026 250.899 217.906C250.383 218.272 250.034 218.783 249.866 219.346L215.775 212.307C215.849 211.658 215.693 210.983 215.286 210.409C214.406 209.17 212.688 208.882 211.45 209.761C211.318 209.854 211.201 209.959 211.092 210.067L161.04 170.474C161.608 169.56 161.607 168.359 160.945 167.428C160.446 166.728 159.68 166.33 158.881 166.278L156.897 122.523C157.339 122.47 157.775 122.309 158.165 122.034C159.403 121.155 159.692 119.436 158.813 118.198C157.931 116.96 156.215 116.671 154.976 117.55C154.968 117.557 154.959 117.565 154.95 117.57L130.355 94.5483L117.355 82.3793C117.94 81.4614 117.951 80.2443 117.281 79.3016C116.402 78.063 114.684 77.7743 113.445 78.6537C112.483 79.3386 112.096 80.5264 112.383 81.6039L77.325 99.1988C77.3041 99.1673 77.285 99.1328 77.261 99.0996C76.3816 97.861 74.6634 97.5723 73.4248 98.4517C72.1863 99.3311 71.8976 101.049 72.7769 102.288C72.9862 102.581 73.2422 102.821 73.5285 103.003L55.0945 134.523C54.2269 134.119 53.1737 134.178 52.3381 134.773C51.0995 135.653 50.8108 137.371 51.6902 138.609ZM114.047 83.4606C114.881 83.7814 115.851 83.694 116.633 83.1377C116.784 83.0294 116.919 82.9094 117.042 82.782L131.783 96.5792L154.568 117.906C154.384 118.101 154.234 118.319 154.117 118.552L103.834 106.877L114.047 83.4631L114.047 83.4606ZM252.733 222.887L257.372 248.465L221.691 257.145C221.606 256.901 221.49 256.663 221.333 256.443C221.259 256.339 221.176 256.244 221.09 256.153L250.874 222.372C251.415 222.766 252.077 222.946 252.733 222.887ZM310.373 236.096C310.457 236.34 310.574 236.577 310.731 236.797C310.823 236.926 310.922 237.04 311.03 237.147L267.143 290.08C266.616 289.719 265.981 289.556 265.354 289.61L257.958 248.843L310.372 236.094L310.373 236.096ZM392.905 480.805L397.074 448.591L397.978 477.053C397.542 477.107 397.111 477.27 396.723 477.542C395.856 478.158 395.458 479.184 395.596 480.168L392.905 480.805ZM384.67 527.882C384.361 528.103 384.112 528.375 383.924 528.678L324.15 498.957C324.319 498.52 324.373 498.046 324.307 497.581L392.304 481.47L386.361 527.38C385.777 527.358 385.182 527.519 384.668 527.883L384.67 527.882ZM147.553 328.003C147.48 327.699 147.354 327.406 147.176 327.131L182.722 298.838C183.65 299.808 185.173 299.978 186.301 299.176L204.251 320.009L147.553 328.003ZM75.6347 103.379C75.6914 103.364 75.7506 103.35 75.806 103.331L86.3769 141.456C86.1619 141.538 85.9555 141.645 85.7595 141.783C85.2456 142.146 84.8992 142.657 84.727 143.215L76.8868 141.571L75.6347 103.379ZM112.633 199.83L117.595 210.661C117.519 210.704 117.444 210.751 117.371 210.803C116.913 211.129 116.586 211.57 116.398 212.056L107.877 209.645L88.7473 147.678L112.633 199.83ZM118.055 210.45L100.707 172.572L88.7241 146.409C88.7999 146.366 88.8745 146.319 88.9478 146.267C89.3569 145.976 89.6596 145.595 89.8539 145.167L139.003 162.351L119.748 210.407C119.2 210.245 118.608 210.254 118.057 210.447L118.055 210.45ZM84.6232 143.712C84.5476 144.364 84.7012 145.043 85.1116 145.619C85.5073 146.177 86.0744 146.541 86.6908 146.693L78.7629 198.863L76.9043 142.093L84.6257 143.712L84.6232 143.712ZM80.8397 200.034C80.444 199.475 79.877 199.112 79.2606 198.959L87.1915 146.77C87.4329 146.783 87.6775 146.767 87.9164 146.717L107.292 209.48L81.2991 202.128C81.4289 201.42 81.2877 200.665 80.8372 200.034L80.8397 200.034ZM81.1645 202.617L107.472 210.057L111.226 222.213C111.038 222.291 110.853 222.39 110.682 222.511C110.484 222.652 110.313 222.815 110.164 222.993L80.9998 202.964C81.0633 202.852 81.1207 202.735 81.1664 202.614L81.1645 202.617ZM113.413 222.251C112.882 222.012 112.286 221.941 111.712 222.063L108.056 210.223L116.261 212.543C116.131 213.251 116.272 214.006 116.722 214.637C116.908 214.9 117.135 215.118 117.386 215.293L113.413 222.251ZM121.706 213.264L156.599 212.821L155.888 229.223C155.381 229.247 154.875 229.41 154.428 229.726C154.127 229.939 153.885 230.204 153.698 230.496L121.518 214.064C121.62 213.809 121.683 213.539 121.706 213.264ZM210.48 212.989C210.561 213.199 210.668 213.405 210.805 213.599C211.074 213.977 211.418 214.265 211.804 214.459L200.049 249.891L158.651 232.779C158.799 232.3 158.815 231.788 158.692 231.295L210.482 212.988L210.48 212.989ZM368.076 354.432L370.295 383.624C369.875 383.684 369.461 383.84 369.093 384.104C368.913 384.233 368.756 384.379 368.615 384.54L359.389 379.331L367.575 354.4C367.742 354.426 367.909 354.437 368.079 354.434L368.076 354.432ZM485.78 380.736C485.141 381.342 484.846 382.206 484.943 383.048L467.055 386.87L462.485 352.763C462.786 352.68 463.08 352.547 463.349 352.356L485.778 380.736L485.78 380.736ZM461.986 352.853L466.558 386.978L410.904 398.865C410.818 398.596 410.693 398.334 410.52 398.092C410.5 398.065 410.478 398.04 410.458 398.013L459.955 352.19C460.522 352.682 461.258 352.912 461.984 352.854L461.986 352.853ZM186.952 295.342C186.878 295.237 186.798 295.144 186.712 295.053L217.47 260.257C218.101 260.72 218.903 260.889 219.663 260.728L229.85 293.542L187.422 296.494C187.356 296.091 187.203 295.698 186.952 295.342ZM220.149 260.575C220.336 260.497 220.516 260.4 220.69 260.278C220.868 260.153 221.022 260.007 221.161 259.849L263.482 290.598C263.322 290.792 263.191 291.003 263.092 291.226L230.374 293.503L220.151 260.575L220.149 260.575ZM262.916 291.749C262.84 292.095 262.828 292.454 262.887 292.806L240.953 311.834L238.83 313.678C238.179 313.052 237.273 312.796 236.408 312.96L230.522 294.002L262.911 291.75L262.916 291.749ZM239.168 314.067C239.168 314.067 239.167 314.065 239.166 314.062L241.281 312.226L263.04 293.349C263.12 293.554 263.225 293.755 263.359 293.944C263.58 294.255 263.855 294.506 264.159 294.695L260.379 318.227L239.677 315.701C239.686 315.137 239.524 314.562 239.17 314.066L239.168 314.067ZM187.457 297.001L230.005 294.04L235.922 313.102C235.717 313.182 235.518 313.286 235.332 313.419C234.943 313.697 234.647 314.056 234.452 314.458L187.373 297.621C187.425 297.419 187.452 297.211 187.457 297.001ZM251.125 372.164L237.876 318.239C238.099 318.157 238.317 318.045 238.52 317.903C239.113 317.481 239.486 316.867 239.62 316.205L260.294 318.729L251.715 372.14C251.518 372.127 251.322 372.136 251.125 372.167L251.125 372.164ZM260.799 318.789L284.855 321.724C284.869 322.252 285.035 322.779 285.364 323.241C285.493 323.421 285.64 323.58 285.8 323.718L265.794 353.322L252.853 372.472C252.65 372.36 252.437 372.274 252.217 372.219L260.799 318.789ZM321.703 495.218L320.693 469.983L320.07 454.385C320.5 454.328 320.922 454.17 321.302 453.9C322.047 453.371 322.444 452.54 322.455 451.691L336.026 450.601L322.115 495.264C321.977 495.238 321.84 495.223 321.702 495.215L321.703 495.218ZM338.985 370.733L346.156 414.035C345.844 414.118 345.538 414.252 345.26 414.452C344.78 414.794 344.444 415.263 344.262 415.782L328.821 412.853L338.431 370.717C338.615 370.742 338.802 370.747 338.988 370.735L338.985 370.733ZM344.136 416.274C344.032 416.957 344.178 417.679 344.612 418.288C344.721 418.442 344.842 418.579 344.975 418.703L321.188 449.34C320.993 449.216 320.783 449.12 320.566 449.048L328.708 413.347L344.139 416.273L344.136 416.274ZM322.415 451.186C322.347 450.795 322.196 450.411 321.95 450.064C321.842 449.913 321.72 449.773 321.59 449.651L330.091 438.711L345.39 419.023C345.52 419.106 345.658 419.174 345.798 419.233L336.189 450.081L322.414 451.189L322.415 451.186ZM346.283 419.382C347.009 419.536 347.795 419.4 348.449 418.936C348.713 418.747 348.931 418.52 349.107 418.269L394.729 444.287C394.573 444.635 394.49 445.009 394.486 445.389L336.737 450.033L346.285 419.381L346.283 419.382ZM395.637 443.181C395.372 443.37 395.154 443.597 394.978 443.848L349.356 417.83C349.586 417.326 349.656 416.758 349.559 416.209L380.037 407.77L395.876 443.03C395.794 443.077 395.715 443.128 395.637 443.184L395.637 443.181ZM349.424 415.72C349.341 415.505 349.234 415.296 349.096 415.1C349.055 415.04 349.008 414.986 348.963 414.932L369.097 388.584C369.816 389.093 370.743 389.231 371.58 388.946L379.826 407.302L349.424 415.72ZM368.447 387.94C368.528 388.053 368.619 388.156 368.711 388.253L348.598 414.572C348.398 414.408 348.179 414.276 347.947 414.175L359.226 379.822L368.315 384.952C367.784 385.857 367.796 387.029 368.444 387.938L368.447 387.94ZM347.466 414.017C347.249 413.967 347.025 413.941 346.801 413.945L339.495 370.648C339.804 370.566 340.105 370.43 340.383 370.233C340.65 370.043 340.87 369.813 341.047 369.557L358.777 379.565L347.465 414.015L347.466 414.017ZM289.198 323.889C289.231 323.865 289.262 323.84 289.294 323.813L317.284 348.99L336.58 366.347C336.231 366.816 336.047 367.38 336.038 367.953L287.178 371.812L287.642 324.398C288.182 324.391 288.725 324.227 289.198 323.889ZM336.702 369.787C337.038 370.179 337.465 370.453 337.929 370.604L328.316 412.759L289.334 405.367C289.387 404.812 289.272 404.239 288.977 403.726L336.702 369.787ZM289.241 405.866L328.204 413.256L320.067 448.937C319.48 448.858 318.868 448.966 318.326 449.282L288.393 407.19C288.812 406.832 289.099 406.368 289.241 405.866ZM317.464 453.255C317.971 453.966 318.753 454.363 319.562 454.407L320.016 465.778L321.193 495.243C321.082 495.26 320.97 495.283 320.86 495.313L304.699 452.423L317.72 449.758C316.823 450.693 316.686 452.159 317.464 453.255ZM323.657 496.149C323.361 495.812 322.998 495.565 322.603 495.407L336.572 450.556L394.523 445.896C394.575 446.199 394.678 446.496 394.834 446.776L323.657 496.149ZM396.338 442.823L380.528 407.632L405.708 400.66C405.791 400.875 405.898 401.084 406.036 401.28C406.383 401.769 406.862 402.108 407.388 402.286L397.624 442.704C397.198 442.643 396.757 442.679 396.338 442.823ZM405.573 400.171L380.32 407.163L372.044 388.739C372.126 388.692 372.205 388.641 372.283 388.585C372.688 388.298 372.988 387.92 373.184 387.497L405.615 399.006C405.518 399.383 405.505 399.779 405.575 400.168L405.573 400.171ZM367.08 354.272L358.938 379.075L341.295 369.115C341.606 368.42 341.623 367.615 341.31 366.895L365.863 353.408C366.192 353.816 366.615 354.108 367.078 354.273L367.08 354.272ZM365.581 352.984L341.063 366.451C341.051 366.434 341.041 366.415 341.029 366.397C340.149 365.159 338.431 364.87 337.192 365.749C337.097 365.818 337.006 365.893 336.921 365.971L293.761 327.146L289.665 323.464C289.79 323.323 289.898 323.17 289.99 323.012L365.316 351.092C365.18 351.72 365.258 352.392 365.58 352.987L365.581 352.984ZM284.888 321.216L260.88 318.285L264.631 294.923C265.419 295.216 266.324 295.142 267.079 294.661L285.607 319.754C285.218 320.165 284.976 320.676 284.89 321.213L284.888 321.216ZM216.85 259.629C216.924 259.733 217.004 259.826 217.09 259.917L186.332 294.714C186.169 294.595 185.994 294.494 185.813 294.416L200.361 250.567L216.468 257.224C216.226 258.015 216.337 258.903 216.854 259.63L216.85 259.629ZM157.62 234.206C157.985 233.948 158.263 233.614 158.458 233.243L199.89 250.368L185.33 294.254C184.841 294.14 184.322 294.16 183.834 294.323L157.364 234.367C157.452 234.319 157.538 234.266 157.62 234.206ZM186.688 298.841C186.902 298.618 187.075 298.365 187.2 298.093L234.271 314.927C234.193 315.205 234.164 315.495 234.176 315.788L204.85 319.922L186.686 298.842L186.688 298.841ZM234.249 316.291C234.328 316.627 234.472 316.952 234.683 317.253C235.316 318.142 236.378 318.539 237.385 318.369L250.631 372.285C250.467 372.341 250.307 372.413 250.152 372.504L205.245 320.384L234.248 316.296L234.249 316.291ZM253.773 373.286C253.628 373.082 253.459 372.907 253.275 372.756L286.212 324.016C286.5 324.185 286.814 324.301 287.137 324.356L286.673 371.852L254.24 374.413C254.173 374.019 254.02 373.636 253.773 373.286ZM287.174 372.321L336.078 368.459C336.132 368.772 336.238 369.081 336.407 369.371L288.682 403.31C288.21 402.76 287.56 402.441 286.878 402.37L287.172 372.322L287.174 372.321ZM287.979 407.482L317.678 449.244L304.518 451.937L287.801 407.573C287.862 407.545 287.92 407.515 287.979 407.482ZM320.386 495.491C320.251 495.556 320.12 495.631 319.993 495.72C319.866 495.809 319.753 495.911 319.646 496.016L274.635 458.574L304.195 452.522L320.386 495.489L320.386 495.491ZM324.196 497.083C324.147 496.94 324.086 496.799 324.013 496.662L324.063 496.485L395.126 447.19C395.525 447.666 396.057 447.973 396.628 448.103L392.38 480.928L324.199 497.085L324.196 497.083ZM433.56 474.031L400.988 479.109C400.907 478.786 400.769 478.472 400.564 478.186C400.434 478.001 400.282 477.843 400.118 477.7L414.15 458.051L433.939 472.453C433.654 472.93 433.525 473.48 433.559 474.029L433.56 474.031ZM399.705 477.406C399.331 477.187 398.912 477.061 398.487 477.037L397.57 448.154C398.007 448.1 398.437 447.937 398.825 447.665C399.003 447.54 399.158 447.394 399.294 447.24L413.74 457.753L399.705 477.406ZM399.593 446.83C399.976 446.185 400.081 445.408 399.876 444.681L430.022 433.116C430.095 433.284 430.189 433.449 430.299 433.605C430.412 433.765 430.542 433.908 430.681 434.036L414.036 457.344L399.593 446.833L399.593 446.83ZM429.862 432.633L403.78 442.64L430.55 430.111C429.905 430.787 429.656 431.742 429.862 432.633ZM399.603 444.035C399.562 443.967 399.519 443.899 399.473 443.832C399.126 443.342 398.647 443.004 398.121 442.826L407.885 402.408C408.561 402.506 409.275 402.357 409.875 401.93C410.404 401.555 410.759 401.024 410.923 400.444L467.307 411.071C467.284 411.47 467.349 411.878 467.502 412.261L399.601 444.038L399.603 444.035ZM411.016 399.944C411.033 399.752 411.034 399.558 411.012 399.362L466.626 387.482L469.45 408.548C469.103 408.627 468.767 408.771 468.459 408.992C467.9 409.387 467.539 409.954 467.386 410.568L411.018 399.944L411.016 399.944ZM469.952 408.486L467.124 387.379L485.053 383.55C485.138 383.819 485.264 384.081 485.437 384.323C485.606 384.561 485.805 384.762 486.027 384.93L471.338 408.805C470.91 408.579 470.433 408.471 469.953 408.488L469.952 408.486ZM489.92 381.132C489.062 379.925 487.41 379.622 486.181 380.424L463.844 352.16L525.495 406.75L490.121 383.995C490.58 383.109 490.543 382.003 489.923 381.134L489.92 381.132ZM526.546 406.514C526.443 406.587 526.348 406.668 526.26 406.753L464.038 351.656C464.269 351.313 464.419 350.925 464.478 350.523L500.638 353.17L526.709 406.413C526.655 406.448 526.6 406.48 526.546 406.517L526.546 406.514ZM459.516 351.71C459.544 351.75 459.577 351.787 459.607 351.824L410.117 397.64C409.499 397.082 408.665 396.848 407.863 396.969L402.162 374.1L459.31 351.367C459.371 351.485 459.436 351.599 459.516 351.71ZM407.371 397.092C407.132 397.175 406.902 397.29 406.684 397.447C406.279 397.733 405.979 398.112 405.783 398.535L373.352 387.026C373.472 386.553 373.465 386.05 373.325 385.575L401.683 374.293L407.369 397.095L407.371 397.092ZM373.136 385.098C373.075 384.98 373.009 384.863 372.929 384.752C372.578 384.258 372.093 383.919 371.562 383.74L386.948 318.383C387.211 318.419 387.478 318.418 387.745 318.378L401.561 373.79L373.135 385.096L373.136 385.098ZM386.453 318.268L371.066 383.623C370.98 383.61 370.891 383.601 370.802 383.6L368.579 354.372C368.934 354.297 369.279 354.148 369.593 353.926C370.831 353.044 371.12 351.328 370.241 350.09C370.039 349.805 369.79 349.574 369.517 349.393L386.258 318.196C386.322 318.225 386.388 318.247 386.454 318.27L386.453 318.268ZM365.471 350.609L290.199 322.551C290.481 321.74 290.38 320.807 289.844 320.054C289.602 319.716 289.298 319.449 288.957 319.257L306.411 280.543C307.204 280.817 308.109 280.722 308.852 280.215L366.203 349.599C365.873 349.883 365.627 350.229 365.468 350.609L365.471 350.609ZM305.066 279.539C305.308 279.876 305.612 280.143 305.951 280.336L288.881 318.197L299.86 280.787L304.801 279.081C304.871 279.239 304.96 279.395 305.065 279.542L305.066 279.539ZM288.129 318.95C287.414 318.812 286.648 318.951 286.007 319.406C286.001 319.41 285.994 319.417 285.985 319.422L267.476 294.352C268.209 293.664 268.494 292.643 268.263 291.696L299.272 280.986L288.128 318.948L288.129 318.95ZM268.099 291.216C268.028 291.058 267.94 290.902 267.835 290.755C267.743 290.629 267.644 290.513 267.536 290.406L311.423 237.473C311.593 237.587 311.771 237.684 311.96 237.76L299.447 280.39L268.099 291.216ZM264.856 289.703C264.557 289.785 264.268 289.917 263.999 290.108C263.943 290.148 263.892 290.192 263.839 290.234L221.455 259.441C221.777 258.898 221.901 258.26 221.811 257.638L257.465 248.966L264.856 289.703ZM218.478 255.355C218.136 255.432 217.801 255.578 217.497 255.796C217.132 256.054 216.854 256.388 216.658 256.758L200.519 250.088L212.277 214.645C212.534 214.72 212.8 214.756 213.066 214.755L218.476 255.358L218.478 255.355ZM210.342 212.497L158.52 230.815C158.451 230.662 158.366 230.513 158.266 230.373C157.807 229.728 157.122 229.344 156.396 229.245L157.108 212.815L210.299 212.139C210.306 212.26 210.32 212.38 210.342 212.5L210.342 212.497ZM156.621 212.311L121.7 212.755C121.651 212.298 121.492 211.849 121.207 211.449C121.138 211.353 121.064 211.267 120.988 211.181L149.809 179.268L157.067 171.229C157.455 171.517 157.91 171.692 158.377 171.748L156.62 212.308L156.621 212.311ZM156.461 170.616C156.53 170.714 156.608 170.805 156.689 170.891L120.613 210.841C120.487 210.746 120.357 210.666 120.219 210.596L139.482 162.519L156.046 168.312C155.842 169.077 155.966 169.923 156.461 170.616ZM139.192 161.88L90.0199 144.688C90.1279 144.25 90.1282 143.79 90.0146 143.344L153.929 120.551C154.012 120.842 154.143 121.124 154.328 121.384C154.546 121.69 154.817 121.939 155.118 122.126L139.189 161.878L139.192 161.88ZM153.93 119.031C153.836 119.36 153.802 119.706 153.835 120.049L89.8461 142.868C89.7772 142.718 89.6935 142.571 89.5938 142.434C89.3446 142.085 89.0313 141.815 88.6791 141.62L103.628 107.352L153.93 119.033L153.93 119.031ZM88.2143 141.414C87.7807 141.271 87.3194 141.237 86.866 141.318L76.2792 103.139C76.395 103.079 76.5071 103.015 76.6162 102.938C77.1831 102.534 77.5493 101.956 77.6963 101.328L103.124 107.232L88.2143 141.414ZM75.1272 103.442L76.3725 141.461L56.6627 137.328C56.7382 136.676 56.5847 135.997 56.1742 135.421C55.9927 135.165 55.7748 134.953 55.5328 134.78L73.9799 103.239C74.3438 103.386 74.733 103.457 75.1272 103.442ZM55.1449 139.481C55.2756 139.417 55.4037 139.343 55.5263 139.257C56.0402 138.894 56.3867 138.383 56.5589 137.825L76.39 141.983L78.2529 198.896C78.1211 198.913 77.9868 198.942 77.8575 198.979L55.1449 139.481ZM115.019 224.947C115.062 224.332 114.902 223.699 114.518 223.156C114.332 222.894 114.105 222.676 113.854 222.5L117.828 215.542C118.69 215.934 119.731 215.871 120.558 215.282C120.858 215.069 121.101 214.804 121.287 214.512L153.467 230.944C153.425 231.049 153.389 231.157 153.359 231.267L115.016 224.945L115.019 224.947ZM155.961 234.711C156.275 234.719 156.591 234.675 156.897 234.572L183.367 294.529C183.28 294.577 183.194 294.63 183.112 294.689C181.902 295.548 181.601 297.207 182.408 298.437L146.861 326.731C146.468 326.321 145.973 326.054 145.443 325.943L155.964 234.711L155.961 234.711ZM147.499 329.456C147.595 329.149 147.637 328.825 147.622 328.501L204.644 320.463L249.036 371.986L147.496 329.456L147.499 329.456ZM253.767 376.473C254.095 376.015 254.268 375.469 254.276 374.917L286.663 372.359L286.368 402.364C285.891 402.404 285.418 402.564 285.001 402.862C284.887 402.942 284.786 403.03 284.689 403.125L253.767 376.476L253.767 376.473ZM286.217 407.824C286.583 407.874 286.959 407.851 287.322 407.753L304.009 452.04L274.399 458.101L286.215 407.825L286.217 407.824ZM311.961 538.088C311.504 538.006 311.023 538.04 310.572 538.196L274.754 459.334L319.321 496.406C318.688 497.33 318.659 498.589 319.345 499.556C320.05 500.548 321.289 500.927 322.391 500.592L311.964 538.09L311.961 538.088ZM387.129 525.419L392.834 481.341L395.711 480.66C395.794 480.909 395.914 481.151 396.075 481.375C396.422 481.865 396.905 482.205 397.434 482.385L387.129 525.421L387.129 525.419ZM435.801 471.157C435.418 471.226 435.042 471.377 434.704 471.618C434.526 471.744 434.374 471.889 434.235 472.044L414.442 457.638L431.081 434.339C431.518 434.612 432.021 434.751 432.53 434.755L435.801 471.157ZM434.748 430.373C434.171 429.593 433.258 429.203 432.352 429.264L462.886 414.974L434.751 430.372L434.748 430.373ZM529.796 406.557C529.045 405.988 528.046 405.844 527.159 406.181L501.218 353.206L571.509 358.351C571.519 358.885 571.685 359.422 572.016 359.891C572.081 359.983 572.152 360.067 572.224 360.146L529.794 406.557L529.796 406.557ZM571.646 357.453C571.605 357.581 571.57 357.713 571.548 357.846L500.963 352.678L486.084 322.29C486.127 322.264 486.171 322.237 486.213 322.208C486.611 321.926 486.909 321.556 487.104 321.143L571.646 357.453ZM483.051 322.227C483.801 322.747 484.77 322.864 485.629 322.521L500.374 352.634L464.501 350.007C464.482 349.488 464.318 348.969 463.996 348.515C463.891 348.369 463.774 348.236 463.647 348.115L483.051 322.227ZM459.191 349.114C458.972 349.676 458.942 350.301 459.117 350.889L402.033 373.596L388.234 318.25C388.472 318.168 388.703 318.052 388.92 317.896C389.251 317.659 389.513 317.364 389.705 317.033L459.19 349.112L459.191 349.114ZM305.711 275.698C304.766 276.371 304.375 277.531 304.635 278.594L300.035 280.183L312.287 238.44L307.412 275.195C306.825 275.172 306.226 275.331 305.709 275.701L305.711 275.698ZM310.255 234.785C310.215 235.055 310.213 235.33 310.254 235.6L257.867 248.342L253.233 222.794C253.531 222.711 253.823 222.579 254.09 222.389C254.572 222.046 254.91 221.575 255.089 221.054L310.255 234.785ZM249.762 219.843C249.688 220.492 249.844 221.168 250.251 221.742C250.324 221.846 250.408 221.941 250.494 222.032L220.71 255.814C220.204 255.445 219.594 255.265 218.979 255.287L213.571 214.7C213.943 214.628 214.309 214.479 214.637 214.243C215.153 213.876 215.502 213.365 215.67 212.802L249.761 219.841L249.762 219.843ZM210.768 210.46C210.529 210.812 210.378 211.214 210.321 211.628L157.129 212.304L158.886 171.765C159.378 171.734 159.869 171.572 160.3 171.263C160.462 171.147 160.605 171.02 160.735 170.877L210.773 210.458L210.768 210.46ZM158.374 166.289C157.932 166.342 157.495 166.503 157.106 166.778C156.71 167.06 156.414 167.424 156.22 167.834L139.67 162.046L155.577 122.352C155.837 122.452 156.112 122.514 156.389 122.532L158.374 166.289ZM112.56 82.0832C112.626 82.2236 112.704 82.3585 112.797 82.4898C113.016 82.7991 113.287 83.0481 113.591 83.2368L103.33 106.759L77.7668 100.824C77.7862 100.429 77.7199 100.027 77.5631 99.6498L112.56 82.0856L112.56 82.0832Z" fill="#4F2B2B"/>
<path d="M392.638 83.9999H201.59V346.468H392.638V83.9999Z" fill="#FBE4C6"/>
<path d="M378.801 202.469H215.427C215.081 202.469 214.801 202.189 214.801 201.843V102.748C214.801 102.401 215.081 102.122 215.427 102.122H378.801C379.147 102.122 379.427 102.401 379.427 102.748V201.843C379.427 202.189 379.147 202.469 378.801 202.469ZM216.053 201.217H378.175V103.374H216.053V201.217Z" fill="black"/>
<path d="M320.327 220.323H218.553C218.207 220.323 217.927 220.044 217.927 219.697C217.927 219.351 218.207 219.071 218.553 219.071H320.327C320.673 219.071 320.953 219.351 320.953 219.697C320.953 220.044 320.673 220.323 320.327 220.323Z" fill="black"/>
<path d="M363.179 220.323H328.361C328.015 220.323 327.735 220.044 327.735 219.697C327.735 219.351 328.015 219.071 328.361 219.071H363.179C363.526 219.071 363.805 219.351 363.805 219.697C363.805 220.044 363.526 220.323 363.179 220.323Z" fill="black"/>
<path d="M288.187 237.286H218.553C218.207 237.286 217.927 237.007 217.927 236.66C217.927 236.314 218.207 236.034 218.553 236.034H288.189C288.535 236.034 288.815 236.314 288.815 236.66C288.815 237.007 288.535 237.286 288.189 237.286H288.187Z" fill="black"/>
<path d="M337.288 237.286H296.222C295.875 237.286 295.596 237.007 295.596 236.66C295.596 236.314 295.875 236.034 296.222 236.034H337.288C337.634 236.034 337.914 236.314 337.914 236.66C337.914 237.007 337.634 237.286 337.288 237.286Z" fill="black"/>
<path d="M263.189 254.248H218.551C218.205 254.248 217.925 253.968 217.925 253.622C217.925 253.275 218.205 252.996 218.551 252.996H263.189C263.535 252.996 263.815 253.275 263.815 253.622C263.815 253.968 263.535 254.248 263.189 254.248Z" fill="black"/>
<path d="M351.572 254.248H271.226C270.879 254.248 270.6 253.968 270.6 253.622C270.6 253.275 270.879 252.996 271.226 252.996H351.572C351.919 252.996 352.198 253.275 352.198 253.622C352.198 253.968 351.919 254.248 351.572 254.248Z" fill="black"/>
<path d="M298.007 271.211H218.553C218.207 271.211 217.927 270.931 217.927 270.585C217.927 270.238 218.207 269.959 218.553 269.959H298.009C298.355 269.959 298.635 270.238 298.635 270.585C298.635 270.931 298.355 271.211 298.009 271.211H298.007Z" fill="black"/>
<path d="M342.644 271.211H306.041C305.695 271.211 305.415 270.931 305.415 270.585C305.415 270.238 305.695 269.959 306.041 269.959H342.644C342.991 269.959 343.27 270.238 343.27 270.585C343.27 270.931 342.991 271.211 342.644 271.211Z" fill="black"/>
<path d="M272.117 288.172H218.553C218.207 288.172 217.927 287.892 217.927 287.546C217.927 287.2 218.207 286.92 218.553 286.92H272.119C272.466 286.92 272.745 287.2 272.745 287.546C272.745 287.892 272.466 288.172 272.119 288.172H272.117Z" fill="black"/>
<path d="M372.106 288.172H280.152C279.806 288.172 279.526 287.892 279.526 287.546C279.526 287.2 279.806 286.92 280.152 286.92H372.106C372.452 286.92 372.732 287.2 372.732 287.546C372.732 287.892 372.452 288.172 372.106 288.172Z" fill="black"/>
<path d="M259.619 305.135H218.553C218.207 305.135 217.927 304.856 217.927 304.509C217.927 304.163 218.207 303.883 218.553 303.883H259.619C259.966 303.883 260.245 304.163 260.245 304.509C260.245 304.856 259.966 305.135 259.619 305.135Z" fill="black"/>
<path d="M332.824 305.135H267.654C267.308 305.135 267.028 304.856 267.028 304.509C267.028 304.163 267.308 303.883 267.654 303.883H332.824C333.171 303.883 333.451 304.163 333.451 304.509C333.451 304.856 333.171 305.135 332.824 305.135Z" fill="black"/>
<path d="M284.617 322.096H218.553C218.207 322.096 217.927 321.817 217.927 321.47C217.927 321.124 218.207 320.844 218.553 320.844H284.617C284.964 320.844 285.243 321.124 285.243 321.47C285.243 321.817 284.964 322.096 284.617 322.096Z" fill="black"/>
<path d="M328.361 322.096H292.65C292.304 322.096 292.024 321.817 292.024 321.47C292.024 321.124 292.304 320.844 292.65 320.844H328.361C328.708 320.844 328.987 321.124 328.987 321.47C328.987 321.817 328.708 322.096 328.361 322.096Z" fill="black"/>
<path d="M267.206 116.139H241.317V184.882H267.206V116.139Z" fill="#9F5656"/>
<path d="M310.059 141.135H284.169V184.879H310.059V141.135Z" fill="#F2AE54"/>
<path d="M352.912 161.668H327.022V184.879H352.912V161.668Z" fill="#2B6577"/>
<path d="M576.739 181.64L475.521 236.255C473.394 237.402 472.734 240.038 474.083 241.985L500.793 280.522L602.762 225.358L582.625 183.463C581.597 181.326 578.883 180.485 576.741 181.64H576.739Z" fill="black"/>
<path d="M607.443 242.554L579.965 184.657L476.105 239.402L509.665 288.616L607.443 242.554Z" fill="#FBE4C6"/>
<path d="M592.323 210.536L581.914 188.763L477.541 241.508L501.786 277.062L592.323 210.536Z" fill="white"/>
<path d="M479.656 241.065C479.429 241.065 479.211 240.941 479.099 240.724C478.941 240.416 479.061 240.04 479.369 239.882L580.155 188.009C580.463 187.851 580.838 187.971 580.998 188.279C581.156 188.587 581.036 188.964 580.728 189.122L479.942 240.994C479.851 241.042 479.752 241.063 479.656 241.063V241.065Z" fill="black"/>
<path d="M602.372 311.821C595.075 302.262 593.602 289.092 598.62 278.269C601.017 273.099 604.68 268.707 608.221 264.458C609.497 262.927 610.816 261.344 612.036 259.77C614.141 257.054 616.511 253.492 616.163 250.03C616.007 248.474 614.854 246.81 613.359 245.984C612.682 245.609 611.659 245.257 610.642 245.7L608.567 241.336C610.877 240.329 613.468 240.508 615.865 241.833C618.764 243.435 620.836 246.472 621.148 249.572C621.661 254.659 618.699 259.219 616.059 262.627C614.787 264.27 613.44 265.887 612.135 267.451C608.638 271.646 605.334 275.611 603.197 280.218C598.891 289.501 600.156 300.798 606.416 308.997L602.372 311.825V311.821Z" fill="#9F5656"/>
<path d="M481.721 274.787C479.006 272.645 479.33 268.573 482.355 266.851L595.931 202.134C597.428 201.265 599.384 201.863 600.076 203.403L612.479 244.308C612.905 245.71 612.268 247.21 610.943 247.933L514.401 300.573L481.721 274.787Z" fill="#FBE4C6"/>
<path d="M515.949 253.103C515.735 253.103 515.526 252.992 515.409 252.793C515.234 252.493 515.336 252.11 515.633 251.936L594.262 205.98C595.443 205.339 596.914 205.755 597.55 206.889C597.57 206.926 597.589 206.966 597.601 207.007L608.18 240.374C608.286 240.704 608.101 241.055 607.773 241.16C607.439 241.267 607.09 241.083 606.987 240.753L596.43 207.452C596.116 206.956 595.417 206.778 594.876 207.072L516.266 253.018C516.166 253.077 516.057 253.103 515.949 253.103Z" fill="black"/>
<path d="M586.705 251.261C586.645 251.261 586.584 251.253 586.523 251.235C585.698 250.986 585.064 250.37 584.734 249.505C584.337 248.46 584.448 247.228 585.024 246.286C585.121 246.128 585.226 245.976 585.34 245.832C584.335 245.583 583.286 245.254 582.378 244.647C580.99 243.717 580.251 242.242 580.49 240.889C580.652 239.969 581.189 239.27 581.896 238.731C580.255 237.854 578.853 236.555 577.921 234.999C577.649 234.545 577.354 233.94 577.481 233.275C577.591 232.72 577.945 232.315 578.312 231.96C578.399 231.875 578.49 231.792 578.579 231.709C575.862 231.008 573.336 229.639 571.416 227.7C571.172 227.455 571.174 227.057 571.42 226.814C571.665 226.571 572.062 226.573 572.305 226.818C574.288 228.82 576.975 230.161 579.823 230.712C581.61 229.458 583.721 228.654 585.933 228.405C586.57 228.334 587.307 228.312 587.943 228.692C588.375 228.95 588.685 229.418 588.754 229.912C588.81 230.335 588.689 230.731 588.409 231.024C588.154 231.29 587.832 231.411 587.55 231.504C585.188 232.278 582.617 232.43 580.137 232.035C579.803 232.293 579.481 232.568 579.177 232.862C578.956 233.075 578.747 233.301 578.705 233.514C578.658 233.761 578.833 234.094 578.991 234.357C579.937 235.939 581.442 237.218 583.186 237.969C583.871 237.653 584.594 237.422 585.236 237.242C585.559 237.153 585.923 237.039 586.314 236.92C589.007 236.093 591.154 235.526 592.315 236.34C592.613 236.549 592.974 236.95 593.01 237.675C593.044 238.356 592.795 238.942 592.289 239.369C590.516 240.87 585.95 240.026 584.59 239.73C584.132 239.63 583.681 239.499 583.243 239.339C582.467 239.768 581.851 240.338 581.715 241.107C581.541 242.092 582.268 243.073 583.069 243.607C584.029 244.252 585.236 244.531 586.405 244.801C587.293 244.138 588.344 243.688 589.323 243.303C590.721 242.756 592.5 242.252 593.891 243.204C594.13 243.368 594.226 243.674 594.12 243.946C593.61 245.273 592.159 246.269 590.423 246.484C589.155 246.64 587.886 246.415 586.73 246.158C586.478 246.393 586.26 246.652 586.083 246.942C585.711 247.55 585.638 248.383 585.897 249.061C586.031 249.412 586.308 249.866 586.88 250.04C587.21 250.139 587.396 250.489 587.297 250.82C587.216 251.089 586.967 251.263 586.697 251.263L586.705 251.261ZM588.2 245.163C588.897 245.271 589.592 245.321 590.279 245.238C591.31 245.111 592.192 244.645 592.678 243.998C591.809 243.759 590.702 244.108 589.789 244.466C589.264 244.671 588.719 244.898 588.2 245.165V245.163ZM585.166 238.565C587.607 239.059 590.538 239.215 591.489 238.409C591.697 238.233 591.782 238.024 591.768 237.73C591.756 237.497 591.679 237.412 591.604 237.359C590.856 236.833 588.249 237.633 586.691 238.111C586.288 238.235 585.911 238.35 585.581 238.443C585.445 238.482 585.305 238.522 585.164 238.565H585.166ZM581.807 230.963C583.624 231.081 585.455 230.87 587.167 230.309C587.266 230.277 587.451 230.216 587.51 230.153C587.501 229.959 587.412 229.827 587.307 229.764C586.987 229.572 586.505 229.594 586.079 229.645C584.574 229.813 583.121 230.267 581.807 230.961V230.963Z" fill="black"/>
<path d="M579.043 307.501L572.661 270.261C572.112 267.06 569.223 264.707 565.834 264.703C562.007 264.699 558.901 267.663 558.897 271.324L558.851 303.764L579.043 307.501Z" fill="#FFBE97"/>
<path d="M568.948 303.725L562.566 266.484C562.017 263.283 559.128 260.931 555.739 260.927C551.912 260.923 548.806 263.887 548.802 267.548L548.755 299.987L568.948 303.725Z" fill="#FFBE97"/>
<path d="M556.794 303.709L550.413 266.468C549.864 263.267 546.975 260.915 543.585 260.911C539.758 260.907 536.653 263.871 536.648 267.532L536.602 299.971L556.794 303.709Z" fill="#FFBE97"/>
<path d="M544.278 307.455L537.896 270.214C537.347 267.013 534.458 264.661 531.068 264.657C527.241 264.653 524.136 267.617 524.132 271.278L524.085 303.717L544.278 307.455Z" fill="#FFBE97"/>
<path d="M579.043 307.502L556.77 322.167L506.45 320.048L491.466 299.501L498.022 290.392C501.166 286.025 506.709 283.847 512.153 284.843L518.652 286.033L527.72 287.161L579.043 307.504V307.502Z" fill="#FFBE97"/>
<path d="M567.659 296.841C567.361 296.841 567.096 296.626 567.043 296.32L562.345 268.903C562.288 268.563 562.517 268.239 562.858 268.18C563.192 268.121 563.522 268.35 563.581 268.693L568.279 296.11C568.336 296.45 568.107 296.774 567.767 296.833C567.73 296.839 567.696 296.841 567.659 296.841Z" fill="#4F2B2B"/>
<path d="M555.184 296.823C554.882 296.823 554.616 296.604 554.566 296.296L549.795 266.567C549.74 266.227 549.973 265.905 550.315 265.85C550.647 265.801 550.978 266.028 551.032 266.371L555.803 296.099C555.858 296.44 555.625 296.762 555.283 296.817C555.25 296.821 555.216 296.825 555.181 296.825L555.184 296.823Z" fill="#4F2B2B"/>
<path d="M536.818 293.002C536.474 293.002 536.194 292.724 536.192 292.38L536.024 267.536C536.022 267.191 536.3 266.908 536.646 266.906H536.65C536.995 266.906 537.274 267.183 537.276 267.528L537.444 292.372C537.446 292.716 537.169 293 536.822 293.002H536.818Z" fill="#4F2B2B"/>
<path d="M443.972 280.427L341.305 280.415L345.025 216.231C353.595 192.692 379.597 179.379 404.814 185.621C427.928 191.344 443.297 211.743 442.286 234.025C441.901 242.515 442.239 251.02 442.74 259.507L443.974 280.427H443.972Z" fill="#4F2B2B"/>
<path d="M439.211 391.489C438.615 389.781 491.29 299.428 491.29 299.428L533.843 320.573L517.177 391.489H439.211Z" fill="#B4185C"/>
<path d="M215.428 391.489C215.428 391.489 185.31 385.636 194.895 354.749C204.82 322.763 254.873 265.538 279.707 255.636C322.559 238.547 456.472 262.471 473.731 275.573C490.99 288.675 506.466 391.489 506.466 391.489H215.428Z" fill="#B4185C"/>
<path d="M388.919 275.003C399.273 275.003 407.667 266.97 407.667 257.06C407.667 247.15 399.273 239.116 388.919 239.116C378.565 239.116 370.171 247.15 370.171 257.06C370.171 266.97 378.565 275.003 388.919 275.003Z" fill="#FFBE97"/>
<path d="M396.397 267.104C382.03 268.109 370.826 257.907 370.321 257.439C370.011 257.151 369.964 256.641 370.217 256.299C370.47 255.957 370.929 255.913 371.239 256.198C371.366 256.317 384.204 267.991 399.463 265.072C399.853 265.001 400.236 265.293 400.309 265.735C400.384 266.177 400.123 266.596 399.728 266.67C398.601 266.886 397.49 267.028 396.394 267.104L396.397 267.104Z" fill="#4F2B2B"/>
<path d="M431.611 240.762C434.938 223.661 420.322 206.428 398.964 202.273C377.607 198.118 357.596 208.613 354.268 225.714C350.941 242.816 365.557 260.048 386.915 264.204C408.272 268.359 428.284 257.864 431.611 240.762Z" fill="#FFBE97"/>
<path d="M432.229 250.542C437.129 250.542 441.101 246.741 441.101 242.052C441.101 237.362 437.129 233.561 432.229 233.561C427.33 233.561 423.358 237.362 423.358 242.052C423.358 246.741 427.33 250.542 432.229 250.542Z" fill="#FFBE97"/>
<path d="M352.403 232.013C357.303 232.013 361.275 228.212 361.275 223.522C361.275 218.833 357.303 215.032 352.403 215.032C347.504 215.032 343.532 218.833 343.532 223.522C343.532 228.212 347.504 232.013 352.403 232.013Z" fill="#FFBE97"/>
<path d="M418.347 231.417C418.23 231.417 418.112 231.385 418.009 231.318C414.869 229.294 410.687 228.749 407.097 229.894C406.763 230.003 406.417 229.817 406.309 229.489C406.204 229.16 406.386 228.806 406.714 228.703C410.657 227.446 415.242 228.046 418.686 230.267C418.977 230.455 419.061 230.842 418.872 231.132C418.753 231.318 418.552 231.419 418.345 231.419L418.347 231.417Z" fill="#4F2B2B"/>
<path d="M383.862 224.74C383.741 224.74 383.617 224.703 383.508 224.63C380.485 222.556 376.631 221.565 372.926 221.914C372.588 221.948 372.276 221.693 372.243 221.348C372.211 221.004 372.464 220.698 372.809 220.666C376.806 220.295 380.959 221.361 384.219 223.599C384.504 223.796 384.575 224.185 384.381 224.47C384.259 224.647 384.065 224.742 383.864 224.742L383.862 224.74Z" fill="#4F2B2B"/>
<path d="M393.096 241.782C392.758 241.782 392.48 241.515 392.47 241.176C392.324 236.59 394.326 230.824 400.442 229.669C400.775 229.604 401.111 229.827 401.174 230.167C401.239 230.508 401.016 230.834 400.675 230.899C395.341 231.906 393.587 236.849 393.724 241.138C393.735 241.484 393.463 241.772 393.119 241.782C393.113 241.782 393.104 241.782 393.098 241.782H393.096Z" fill="#4F2B2B"/>
<path d="M418.927 255.279C419.313 253.562 416.932 251.565 413.61 250.819C410.288 250.074 407.282 250.862 406.897 252.579C406.511 254.296 408.892 256.293 412.214 257.038C415.536 257.784 418.542 256.996 418.927 255.279Z" fill="#EE898E"/>
<path d="M377.697 245.712C378.083 243.995 375.702 241.998 372.38 241.253C369.058 240.507 366.052 241.295 365.667 243.012C365.281 244.729 367.662 246.726 370.984 247.471C374.306 248.217 377.312 247.429 377.697 245.712Z" fill="#EE898E"/>
<path d="M418.927 255.279C419.313 253.562 416.932 251.565 413.61 250.819C410.288 250.074 407.282 250.862 406.897 252.579C406.511 254.296 408.892 256.293 412.214 257.038C415.536 257.784 418.542 256.996 418.927 255.279Z" fill="#FB8876"/>
<path d="M377.697 245.712C378.083 243.995 375.702 241.998 372.38 241.253C369.058 240.507 366.052 241.295 365.667 243.012C365.281 244.729 367.662 246.726 370.984 247.471C374.306 248.217 377.312 247.429 377.697 245.712Z" fill="#FB8876"/>
<path d="M349.508 224.511L354.504 225.67C355.308 225.856 356.119 225.384 356.313 224.614C356.508 223.844 356.013 223.069 355.209 222.882L350.213 221.723C349.409 221.537 348.598 222.009 348.404 222.779C348.209 223.549 348.704 224.325 349.508 224.511Z" fill="#4F2B2B"/>
<path d="M408.514 246.059C407.635 245.854 407.094 245.005 407.306 244.165L407.93 241.699C408.143 240.856 409.03 240.34 409.91 240.544C410.789 240.749 411.33 241.598 411.117 242.438L410.493 244.904C410.28 245.747 409.393 246.263 408.514 246.059Z" fill="#4F2B2B"/>
<path d="M377.701 238.907C376.822 238.703 376.281 237.854 376.494 237.013L377.118 234.547C377.33 233.705 378.218 233.188 379.097 233.393C379.976 233.597 380.517 234.446 380.305 235.287L379.681 237.752C379.468 238.595 378.581 239.112 377.701 238.907Z" fill="#4F2B2B"/>
<path d="M390.953 257.418C390.169 257.418 389.377 257.333 388.591 257.155C383.814 256.077 380.44 251.879 380.574 247.177C380.594 246.519 380.906 245.909 381.433 245.5C381.974 245.08 382.675 244.926 383.35 245.078L398.872 248.581C399.549 248.733 400.106 249.173 400.4 249.785C400.688 250.384 400.686 251.073 400.392 251.673C398.664 255.224 394.918 257.418 390.955 257.418H390.953ZM382.837 246.274C382.608 246.274 382.385 246.349 382.203 246.49C381.974 246.669 381.838 246.932 381.828 247.214C381.711 251.318 384.673 254.987 388.868 255.933C393.07 256.883 397.446 254.862 399.265 251.126C399.391 250.866 399.393 250.583 399.269 250.328C399.142 250.062 398.897 249.872 398.595 249.805L383.072 246.302C382.993 246.284 382.914 246.276 382.835 246.276L382.837 246.274Z" fill="#4F2B2B"/>
<path d="M431.281 243.49L436.277 244.649C437.081 244.835 437.892 244.363 438.086 243.593C438.281 242.823 437.786 242.047 436.982 241.861L431.986 240.702C431.182 240.516 430.371 240.988 430.177 241.758C429.983 242.528 430.477 243.304 431.281 243.49Z" fill="#4F2B2B"/>
<path d="M393.273 217.216C396.747 220.258 400.71 223.149 405.374 223.79C407.645 224.102 410.019 223.865 412.189 224.582C413.717 225.086 415.033 226.028 416.399 226.855C422.529 230.564 430.1 232.039 437.258 230.919C437.677 229.347 436.792 227.752 435.919 226.363C430.647 217.971 424.448 209.878 416.111 204.203C409.213 199.509 397.274 194.732 388.615 197.513C378.119 200.884 388.49 213.026 393.275 217.218L393.273 217.216Z" fill="#4F2B2B"/>
<path d="M458.256 357.939C458.153 357.939 458.048 357.913 457.953 357.86C457.651 357.692 457.541 357.311 457.709 357.009L487.171 304.035C487.337 303.731 487.722 303.626 488.022 303.792C488.323 303.96 488.433 304.341 488.265 304.643L458.803 357.617C458.69 357.822 458.475 357.939 458.256 357.939Z" fill="#4F2B2B"/>
<path d="M275.243 372.463C275.18 372.463 275.116 372.453 275.053 372.435C274.725 372.329 274.542 371.977 274.648 371.647L297.859 299.021C297.964 298.693 298.317 298.514 298.647 298.616C298.975 298.721 299.157 299.074 299.052 299.404L275.841 372.03C275.756 372.295 275.509 372.465 275.243 372.465V372.463Z" fill="#4F2B2B"/>
<path d="M242.818 328.709L274.954 314.049C280.128 311.689 286.283 312.607 290.462 316.359L308.631 332.674L242.818 328.709Z" fill="#4F2B2B"/>
<path d="M326.2 357.824L316.473 350.53L314.998 352.331L324.725 359.625C325.245 360.014 325.997 359.927 326.404 359.43C326.812 358.932 326.72 358.213 326.2 357.824Z" fill="black"/>
<path d="M233.957 282.667L228.519 278.589C226.903 277.376 224.563 277.647 223.296 279.195L220.347 282.799C219.078 284.347 219.364 286.586 220.981 287.797L226.418 291.875L233.959 282.667H233.957Z" fill="black"/>
<path d="M323.296 352.09L307.715 336.691L298.864 347.501L318.211 358.3C320.006 359.554 322.518 359.221 323.89 357.546C325.262 355.871 324.998 353.458 323.296 352.09Z" fill="black"/>
<path d="M253.868 324.321L218.722 297.961L225.282 289.949L231.99 294.979L230.685 296.573L259.123 317.9L253.868 324.321Z" fill="black"/>
<path d="M307.924 336.847L234.088 281.474L225.237 292.285L299.075 347.658L307.924 336.847Z" fill="#FBE4C6"/>
<path d="M293.254 340.129L234.269 295.893L235.319 294.608L294.304 338.845L293.254 340.129Z" fill="black"/>
<path d="M297.843 334.523L238.857 290.287L239.909 289.003L298.894 333.239L297.843 334.523Z" fill="black"/>
<path d="M243.515 295.222L236.084 289.649L234.336 291.784L241.767 297.358L243.515 295.222Z" fill="black"/>
<path d="M248.536 298.986L245.1 296.409L243.351 298.545L246.787 301.122L248.536 298.986Z" fill="black"/>
<path d="M247.997 394.896C234.095 398.906 219.374 391.383 215.243 378.063C212.535 369.331 211.629 359.416 216.283 350.82C227.707 329.72 265.432 320.21 265.432 320.21L269.66 388.648L247.997 394.896Z" fill="#FFBE97"/>
<path d="M265.432 320.21L318.013 335.38C321.729 336.531 323.978 340.141 323.262 343.816C322.543 347.518 319.05 350.121 315.124 349.88L263.451 345.506L265.43 320.21H265.432Z" fill="#FFBE97"/>
<path d="M254.909 336L299.597 347.99C303.357 348.999 305.752 352.522 305.191 356.221C304.626 359.947 301.24 362.68 297.31 362.587L250.703 361.495L254.911 335.998L254.909 336Z" fill="#FFBE97"/>
<path d="M247.251 349.26L291.939 361.25C295.699 362.258 298.094 365.782 297.533 369.481C296.968 373.207 293.582 375.94 289.652 375.846L243.045 374.754L247.253 349.258L247.251 349.26Z" fill="#FFBE97"/>
<path d="M236.564 361.669L281.252 373.658C285.013 374.667 287.407 378.19 286.846 381.89C286.281 385.616 282.895 388.349 278.965 388.255L232.358 387.163L236.566 361.667L236.564 361.669Z" fill="#FFBE97"/>
<path d="M299.597 348.618C299.565 348.618 299.53 348.616 299.498 348.61L269.417 343.845C269.076 343.79 268.841 343.47 268.896 343.128C268.951 342.787 269.277 342.554 269.613 342.607L299.694 347.372C300.035 347.427 300.27 347.747 300.215 348.089C300.166 348.397 299.899 348.618 299.597 348.618Z" fill="#4F2B2B"/>
<path d="M296.872 363.188C296.84 363.188 296.806 363.186 296.773 363.18L271.414 359.165C271.074 359.11 270.839 358.79 270.894 358.448C270.948 358.105 271.275 357.876 271.611 357.927L296.97 361.942C297.31 361.997 297.545 362.317 297.49 362.66C297.442 362.968 297.174 363.188 296.872 363.188Z" fill="#4F2B2B"/>
<path d="M285.681 376.13C285.649 376.13 285.614 376.128 285.582 376.122L268.582 373.43C268.242 373.375 268.007 373.055 268.062 372.712C268.116 372.37 268.441 372.139 268.779 372.192L285.779 374.884C286.119 374.939 286.354 375.259 286.299 375.601C286.251 375.909 285.983 376.13 285.681 376.13Z" fill="#4F2B2B"/>
<path d="M368.621 378.008H276.795L277.806 374.999C280.624 366.61 288.779 360.919 297.987 360.919H347.43C356.637 360.919 364.794 366.608 367.61 374.999L368.621 378.008Z" fill="#FBE4C6"/>
<path d="M355.503 378.008H447.329L446.318 374.999C443.5 366.61 435.345 360.919 426.137 360.919H376.694C367.486 360.919 359.33 366.608 356.514 374.999L355.503 378.008Z" fill="#FBE4C6"/>
<path d="M453.569 376.298H270.555V387.406H453.569V376.298Z" fill="#2B6577"/>
<path d="M185.075 400.034C185.075 392.956 191.07 387.218 198.467 387.218H521.642C529.039 387.218 535.034 392.956 535.034 400.034H185.075Z" fill="#3F97B1"/>
<path d="M353.358 372.242H286.402C286.056 372.242 285.776 371.962 285.776 371.616C285.776 371.27 286.056 370.99 286.402 370.99H353.358C353.704 370.99 353.984 371.27 353.984 371.616C353.984 371.962 353.704 372.242 353.358 372.242Z" fill="#2B6577"/>
<path d="M436.383 372.242H369.428C369.081 372.242 368.802 371.962 368.802 371.616C368.802 371.27 369.081 370.99 369.428 370.99H436.383C436.729 370.99 437.009 371.27 437.009 371.616C437.009 371.962 436.729 372.242 436.383 372.242Z" fill="#2B6577"/>
<path d="M412.81 213.014C412.679 213.014 412.55 212.976 412.436 212.896C406.148 208.496 400.98 202.561 397.486 195.728C396.342 193.491 395.08 190.533 395.468 187.494C395.515 187.135 395.848 186.884 396.198 186.931C396.557 186.977 396.808 187.304 396.762 187.661C396.416 190.345 397.587 193.065 398.646 195.135C402.041 201.778 407.068 207.551 413.183 211.828C413.476 212.035 413.55 212.442 413.341 212.736C413.215 212.917 413.012 213.014 412.807 213.014H412.81Z" fill="#4F2B2B"/>
<path d="M434.858 218.781C434.727 218.781 434.597 218.743 434.483 218.663C426.578 213.086 419.583 206.365 413.693 198.688C412.073 196.578 410.615 194.27 410.904 191.702C410.944 191.343 411.288 191.09 411.625 191.126C411.984 191.166 412.242 191.489 412.202 191.847C411.963 193.957 413.276 196 414.73 197.893C420.539 205.464 427.439 212.094 435.236 217.595C435.529 217.802 435.601 218.209 435.392 218.505C435.265 218.684 435.063 218.781 434.86 218.781H434.858Z" fill="#4F2B2B"/>
</g>
</svg>
