<svg width="101" height="100" viewBox="0 0 101 100" fill="none" xmlns="http://www.w3.org/2000/svg">
<path d="M40.6131 82.2455C37.0486 82.2455 34.1615 85.1322 34.1615 88.6961C34.1615 85.1322 31.2744 82.2455 27.7099 82.2455H18.0325V91.9214H14.8067V98.372H1.90344V84.7129C1.90344 80.391 4.77442 76.5851 8.91958 75.4079L9.06474 75.3595L24.4841 70.957L34.1615 79.0202L43.8389 70.957L59.2583 75.3595L59.4034 75.4079C63.5486 76.5851 66.4196 80.391 66.4196 84.7129V98.372H53.5163V91.9214H50.2905V82.2455H40.6131Z" fill="#F2AE54"/>
<path d="M18.0324 91.9209H21.2583C24.8228 91.9209 27.7099 94.8075 27.7099 98.3715H14.8066V91.9209H18.0324Z" fill="#F8D2A0"/>
<path d="M53.5164 91.9209V98.3715H40.6132C40.6132 94.8075 43.5003 91.9209 47.0648 91.9209H53.5164Z" fill="#F8D2A0"/>
<path d="M50.2905 82.2451V91.921H47.0647C43.5002 91.921 40.6131 94.8076 40.6131 98.3715H34.1615V88.6957C34.1615 85.1317 37.0486 82.2451 40.6131 82.2451H50.2905Z" fill="#DF8711"/>
<path d="M34.1615 88.6957V98.3715H27.7099C27.7099 94.8076 24.8228 91.921 21.2583 91.921H18.0325V82.2451H27.7099C31.2744 82.2451 34.1615 85.1317 34.1615 88.6957Z" fill="#DF8711"/>
<path d="M34.1614 69.3444C37.7905 69.3444 41.1453 68.1349 43.8388 66.1191V70.9571L34.1614 79.0203L24.484 70.9571V66.1191C30.2582 68.9896 32.1776 69.3444 34.1614 69.3444Z" fill="#F8D2A0"/>
<path d="M79.3228 37.0908H63.1937V46.7667H79.3228V37.0908Z" fill="#2B6577"/>
<path d="M56.7421 30.6406H98.6776C98.6776 34.2046 95.7905 37.0912 92.226 37.0912H56.7421V32.2533C56.7421 31.705 56.726 31.1728 56.6776 30.6406H56.7421Z" fill="#307286"/>
<path d="M98.6777 24.1903V30.6409H56.6777C56.2906 25.0611 53.8551 20.0297 50.1293 16.2883C48.3067 14.4822 46.1777 12.9663 43.839 11.8536V8.06385C43.839 4.49991 46.7261 1.61328 50.2906 1.61328H92.2261C95.7906 1.61328 98.6777 4.49991 98.6777 8.06385V24.1903Z" fill="#77DFF9"/>
<path d="M59.968 72.5695C59.968 73.779 59.6777 74.6176 59.2745 75.3272V75.3594L43.839 70.9569V66.119C47.3551 63.4742 49.7584 59.4426 50.21 54.8305H50.2906C53.8551 54.8305 56.7422 51.9438 56.7422 48.3799C56.7422 52.4115 59.968 52.4115 59.968 56.4431C59.968 60.4747 56.7422 60.4586 56.7422 64.4902C56.7422 68.5218 59.968 68.5379 59.968 72.5695Z" fill="#854747"/>
<path d="M11.5808 48.3799C11.5808 50.1538 12.3066 51.7664 13.4679 52.9437C14.6453 54.1048 16.2582 54.8305 18.0324 54.8305H18.113C18.484 58.6363 20.1937 62.0551 22.7582 64.6192C23.2905 65.1514 23.8711 65.6513 24.484 66.119V70.9569L9.06466 75.3594C8.66144 74.6498 8.35498 73.7951 8.35498 72.5695C8.35498 68.5379 11.5808 68.5379 11.5808 64.4902C11.5808 60.4425 8.35498 60.4586 8.35498 56.4431C8.35498 52.4276 11.5808 52.4115 11.5808 48.3799Z" fill="#854747"/>
<path d="M18.0324 41.9286C14.4679 41.9286 11.5808 44.8153 11.5808 48.3792V32.2528C11.5808 19.7871 21.6937 9.67578 34.1615 9.67578C37.6131 9.67578 40.9034 10.4498 43.8389 11.8528C46.1776 12.9656 48.3066 14.4815 50.1292 16.2876C53.855 20.0289 56.2905 25.0604 56.6776 30.6401C56.726 31.1723 56.7421 31.7045 56.7421 32.2528V48.3792C56.7421 46.6053 56.0163 44.9927 54.855 43.8154C53.6776 42.6543 52.0647 41.9286 50.2905 41.9286V38.7034H40.3389C37.2582 38.7034 34.226 38.2841 31.2743 37.4777C28.3389 36.6553 25.5163 35.4458 22.8711 33.8654C19.984 34.833 18.0324 37.5261 18.0324 40.574V41.9286Z" fill="#854747"/>
<path d="M54.855 43.8165C56.0162 44.9937 56.7421 46.6064 56.7421 48.3803C56.7421 51.9442 53.855 54.8308 50.2905 54.8308H50.2098C50.2582 54.2987 50.2905 53.7665 50.2905 53.2182V41.9297C52.0647 41.9297 53.6775 42.6554 54.855 43.8165Z" fill="#F8D2A0"/>
<path d="M40.3389 38.7041C37.2583 38.7041 34.226 38.2849 31.2744 37.4785C28.3389 36.6561 25.5163 35.4466 22.8712 33.8662C19.9841 34.8338 18.0325 37.5269 18.0325 40.5748V43.5421H29.3228C30.2099 43.5421 30.9357 44.2678 30.9357 45.1547V49.9926C30.9357 50.8796 30.2099 51.6053 29.3228 51.6053H18.0325V53.2179C18.0325 53.7662 18.0647 54.2984 18.1131 54.8306C18.4841 58.6364 20.1937 62.0552 22.7583 64.6193C23.2905 65.1515 23.8712 65.6514 24.4841 66.1191C30.2583 68.9896 32.1776 69.3444 34.1615 69.3444C37.7905 69.3444 41.1454 68.1349 43.8389 66.1191C47.3551 63.4743 49.7583 59.4427 50.2099 54.8306C50.2583 54.2984 50.2905 53.7662 50.2905 53.2179V51.6053H39.0002C38.1131 51.6053 37.3873 50.8796 37.3873 49.9926V45.1547C37.3873 44.2678 38.1131 43.5421 39.0002 43.5421H50.2905V38.7041H40.3389Z" fill="#F8D2A0"/>
<path d="M18.0324 51.6055V53.2182C18.0324 53.7665 18.0647 54.2987 18.113 54.8308H18.0324C16.2582 54.8308 14.6453 54.1051 13.4679 52.944C12.3066 51.7668 11.5808 50.1542 11.5808 48.3803C11.5808 44.8163 14.4679 41.9297 18.0324 41.9297V51.6055Z" fill="#F8D2A0"/>
<path d="M50.2906 43.542V51.6052H39.0002C38.1131 51.6052 37.3873 50.8795 37.3873 49.9926V45.1546C37.3873 44.2677 38.1131 43.542 39.0002 43.542H50.2906Z" fill="#77DFF9"/>
<path d="M30.9357 48.3799V49.9926C30.9357 50.8795 30.2099 51.6052 29.3228 51.6052H18.0325V43.542H29.3228C30.2099 43.542 30.9357 44.2677 30.9357 45.1546V48.3799Z" fill="#77DFF9"/>
<path d="M34.1615 62.893C30.5969 62.893 27.7098 60.0063 27.7098 56.4424H30.9356C30.9356 58.2163 32.3873 59.6677 34.1615 59.6677C35.9356 59.6677 37.3873 58.2163 37.3873 56.4424H40.6131C40.6131 60.0063 37.726 62.893 34.1615 62.893Z" fill="black"/>
<path d="M50.2905 56.4428L50.2098 53.2176H50.2905C52.9518 53.2176 55.1292 51.0405 55.1292 48.3796C55.1292 45.7188 52.9518 43.5417 50.2905 43.5417V40.3164C54.7421 40.3164 58.355 43.9287 58.355 48.3796C58.355 52.8305 54.7421 56.4428 50.2905 56.4428Z" fill="black"/>
<path d="M18.113 56.4428C13.5808 56.4428 9.9679 52.8305 9.9679 48.3796C9.9679 43.9287 13.5808 40.3164 18.0324 40.3164V43.5417C15.3711 43.5417 13.1937 45.7188 13.1937 48.3796C13.1937 51.0405 15.3711 53.2176 18.0324 53.2176L18.113 56.4428Z" fill="black"/>
<path d="M34.1615 70.9565C24.3712 70.9565 16.4196 63.0062 16.4196 53.2174V40.5743C16.4196 36.833 18.8066 33.5109 22.355 32.3337L23.0647 32.0918L23.6938 32.4788C28.726 35.4945 34.4679 37.091 40.3389 37.091H48.6776V33.8657H51.9034V53.2174C51.9034 63.0062 43.9518 70.9565 34.1615 70.9565ZM22.7422 35.6557C20.8712 36.5588 19.6454 38.4617 19.6454 40.5743V53.2174C19.6454 61.2161 26.1615 67.7312 34.1615 67.7312C42.1615 67.7312 48.6776 61.2161 48.6776 53.2174V40.3163H40.3389C34.1615 40.3163 28.097 38.7036 22.7422 35.6557Z" fill="black"/>
<path d="M29.3228 99.9837H0.290527V84.7119C0.290527 79.6966 3.66147 75.2296 8.48405 73.8589L22.8712 69.7466V66.1182H26.097V72.1656L9.37118 76.939C5.9357 77.9227 3.51633 81.1158 3.51633 84.6958V96.7423H25.8228C25.1615 94.8716 23.355 93.517 21.2583 93.517H6.74214V90.2917H21.2583C25.7099 90.2917 29.3228 93.904 29.3228 98.3549V99.9676V99.9837Z" fill="black"/>
<path d="M35.7744 98.3709H32.5486V88.6951C32.5486 86.0342 30.3712 83.8571 27.7099 83.8571H19.6454V91.9203H16.4196V80.6318H27.7099C32.1615 80.6318 35.7744 84.2442 35.7744 88.6951V98.3709Z" fill="black"/>
<path d="M35.7744 98.3709H32.5486V88.6951C32.5486 84.2442 36.1615 80.6318 40.6131 80.6318H51.9034V91.9203H48.6776V83.8571H40.6131C37.9518 83.8571 35.7744 86.0342 35.7744 88.6951V98.3709Z" fill="black"/>
<path d="M34.1615 81.1162L23.4518 72.1983L25.5163 69.7148L34.1615 76.9234L42.8066 69.7148L44.8712 72.1983L34.1615 81.1162Z" fill="black"/>
<path d="M50.2905 96.7588H18.0325V99.9841H50.2905V96.7588Z" fill="black"/>
<path d="M13.1937 82.2451H9.9679V91.921H13.1937V82.2451Z" fill="black"/>
<path d="M68.0325 99.9842H39.0002V98.3715C39.0002 93.9206 42.6131 90.3083 47.0648 90.3083H61.5809V93.5336H47.0648C44.968 93.5336 43.1616 94.8882 42.5003 96.7589H64.8067V84.7124C64.8067 81.1324 62.4035 77.9393 58.9518 76.9556L42.2261 72.1822V66.1348H45.4519V69.7632L59.839 73.8755C64.6616 75.2462 68.0325 79.7132 68.0325 84.7285V100V99.9842Z" fill="black"/>
<path d="M58.3551 82.2451H55.1293V91.921H58.3551V82.2451Z" fill="black"/>
<path d="M60.6615 76.1335L57.8712 74.5208C58.097 74.1338 58.3551 73.5694 58.3551 72.5695C58.3551 71.1182 57.8551 70.4892 57.097 69.5378C56.226 68.4412 55.1293 67.0704 55.1293 64.4902C55.1293 61.91 56.226 60.5392 57.097 59.4587C57.8551 58.5073 58.3551 57.8784 58.3551 56.427C58.3551 54.9756 57.8551 54.3467 57.097 53.4113C56.226 52.3147 55.1293 50.9601 55.1293 48.3799H58.3551C58.3551 49.8313 58.8551 50.4602 59.6131 51.3955C60.4841 52.4921 61.5809 53.8468 61.5809 56.427C61.5809 59.0072 60.4841 60.378 59.6131 61.4584C58.8551 62.4099 58.3551 63.0388 58.3551 64.4741C58.3551 65.9093 58.8873 66.5866 59.6131 67.5058C60.4841 68.6024 61.5809 69.957 61.5809 72.5373C61.5809 73.8919 61.2906 75.0208 60.6615 76.1012V76.1335Z" fill="black"/>
<path d="M7.67765 76.1818C7.03249 75.0852 6.74219 73.9403 6.74219 72.5695C6.74219 69.9893 7.83896 68.6185 8.70993 67.5381C9.43574 66.6189 9.96799 65.9577 9.96799 64.5063C9.96799 63.0549 9.468 62.426 8.70993 61.4907C7.83896 60.3941 6.74219 59.0394 6.74219 56.4592C6.74219 53.879 7.83896 52.5244 8.70993 51.4278C9.468 50.4763 9.96799 49.8635 9.96799 48.4121H13.1938C13.1938 50.9923 12.097 52.347 11.2261 53.4436C10.468 54.395 9.96799 55.0078 9.96799 56.4592C9.96799 57.9106 10.468 58.5395 11.2261 59.491C12.097 60.5876 13.1938 61.9422 13.1938 64.5224C13.1938 67.1026 12.097 68.4734 11.2261 69.57C10.468 70.5215 9.96799 71.1504 9.96799 72.6018C9.96799 73.6016 10.2261 74.166 10.468 74.5853L7.67765 76.2141V76.1818Z" fill="black"/>
<path d="M58.355 48.3786H55.1292V32.2521C55.1292 20.6895 45.726 11.2878 34.1614 11.2878C22.5969 11.2878 13.1937 20.6895 13.1937 32.2521V48.3786H9.9679V32.2521C9.9679 18.9156 20.8227 8.0625 34.1614 8.0625C47.5002 8.0625 58.355 18.9156 58.355 32.2521V48.3786Z" fill="black"/>
<path d="M29.3228 53.2172H18.0325V49.9919H29.3228V45.154H18.0325V41.9287H29.3228C31.097 41.9287 32.5486 43.3801 32.5486 45.154V49.9919C32.5486 51.7658 31.097 53.2172 29.3228 53.2172Z" fill="black"/>
<path d="M50.2904 53.2172H39.0001C37.2259 53.2172 35.7743 51.7658 35.7743 49.9919V45.154C35.7743 43.3801 37.2259 41.9287 39.0001 41.9287H50.2904V45.154H39.0001V49.9919H50.2904V53.2172Z" fill="black"/>
<path d="M37.3873 46.7666H30.9357V49.9919H37.3873V46.7666Z" fill="black"/>
<path d="M64.8066 37.0908H61.5808V46.7667H64.8066V37.0908Z" fill="black"/>
<path d="M80.9356 37.0908H77.7098V46.7667H80.9356V37.0908Z" fill="black"/>
<path d="M92.226 38.7034H56.7422V35.4782H92.226C94.8873 35.4782 97.0647 33.3011 97.0647 30.6402V8.06322C97.0647 5.40236 94.8873 3.22529 92.226 3.22529H50.2906C47.6293 3.22529 45.4518 5.40236 45.4518 8.06322V11.8529H42.226V8.06322C42.226 3.61232 45.8389 0 50.2906 0H92.226C96.6777 0 100.291 3.61232 100.291 8.06322V30.6402C100.291 35.0911 96.6777 38.7034 92.226 38.7034Z" fill="black"/>
<path d="M87.3873 45.1543H56.7422V48.3796H87.3873V45.1543Z" fill="black"/>
<path d="M98.6777 29.0273H56.7422V32.2526H98.6777V29.0273Z" fill="black"/>
<path d="M84.1614 25.8019H76.0969V21.9154L80.4679 17.5451C80.7743 17.2387 80.9356 16.8356 80.9356 16.4002V16.126C80.9356 15.2391 80.2098 14.5134 79.3227 14.5134C78.4356 14.5134 77.7098 15.2391 77.7098 16.126H74.484C74.484 13.4652 76.6614 11.2881 79.3227 11.2881C81.984 11.2881 84.1614 13.4652 84.1614 16.126V16.4002C84.1614 17.6903 83.6614 18.8998 82.7421 19.819L79.984 22.5766H84.1614V25.8019Z" fill="black"/>
<path d="M66.8873 27.351L58.7098 17.1269L61.226 15.1272L65.9518 21.0295L71.7744 6.45117H85.7744V9.67646H73.9679L66.8873 27.351Z" fill="black"/>
<path d="M16.4195 91.9199H13.1937V98.3705H16.4195V91.9199Z" fill="black"/>
<path d="M55.1292 91.9199H51.9034V98.3705H55.1292V91.9199Z" fill="black"/>
</svg>
