<svg width="450" height="250" viewBox="0 0 450 250" fill="none" xmlns="http://www.w3.org/2000/svg">
<path d="M125.996 103.609C124.293 105.781 122.566 107.993 121.569 110.565C120.732 112.725 120.444 115.05 120.067 117.335C119.107 123.153 117.528 128.868 115.365 134.353C143.282 141.332 171.511 147.056 199.94 151.503C200.51 151.593 201.107 151.678 201.651 151.488C203.341 150.895 203.147 148.516 203.384 146.742C204.071 141.581 210.503 139.132 212.361 134.268C214.029 129.9 211.54 125.024 212.05 120.375C212.375 117.408 213.922 114.623 213.896 111.637C213.868 108.446 212.062 105.576 210.294 102.92C208.416 100.097 206.472 97.249 203.848 95.1002C199.388 91.4463 193.488 90.1978 187.835 89.0654C181.011 87.6964 174.189 86.3288 167.366 84.9613C161.857 83.8568 179.803 74.7791 153.673 79.5871C144.176 81.3352 131.372 96.757 125.996 103.61V103.609Z" fill="#4F2B2B"/>
<path d="M336.371 250H205.406C205.406 250 196.326 159.54 199.458 150.761C202.36 142.635 246.785 129.948 253.4 128.099C253.946 127.941 254.228 127.87 254.228 127.87C260.931 125.882 279.615 124.598 298.986 124.563C322.264 124.51 346.508 126.252 352.158 130.704C362.502 138.851 338.048 250 338.048 250H336.371Z" fill="#9F5656"/>
<path d="M299.377 128.715C299.377 141.417 289.083 151.71 276.381 151.71C263.678 151.71 253.385 141.417 253.385 128.715C253.385 128.503 253.385 128.293 253.402 128.098C253.948 127.94 254.229 127.869 254.229 127.869C260.932 125.881 279.617 124.597 298.988 124.562C299.253 125.898 299.377 127.289 299.377 128.714V128.715Z" fill="#FFBE97"/>
<path d="M231.444 156.724L206.675 250H80.7943L57.418 213.782C57.418 213.782 68.0628 153.592 87.8208 136.649C101 125.353 131.947 126.479 145.582 127.624C149.682 127.957 152.214 128.292 152.214 128.292C162.877 128.487 174.277 131.125 185.029 134.749C210.029 143.123 231.443 156.724 231.443 156.724H231.444Z" fill="#EE81B0"/>
<path d="M185.244 137.703C185.244 149.35 175.795 158.816 164.131 158.816C152.467 158.816 143.018 149.35 143.018 137.703C143.018 134.062 143.949 130.63 145.586 127.623C149.685 127.956 152.217 128.291 152.217 128.291C162.881 128.486 174.281 131.124 185.032 134.748C185.173 135.715 185.244 136.702 185.244 137.703Z" fill="#FFBE97"/>
<path d="M352.158 130.696C352.158 130.696 360.937 135.087 367.523 147.942C374.108 160.797 402.641 213.163 392.921 229.782C383.202 246.401 345.574 260.197 335.227 215.358L352.158 130.696Z" fill="#9F5656"/>
<path d="M84.0637 178.044L63.246 202.94C55.064 212.724 53.5371 226.706 60.0716 237.66C61.3293 239.769 62.8314 241.698 64.6228 243.265C74.6565 252.044 98.8529 250.474 104.549 246.609C122.421 234.486 115.105 203.442 115.105 203.442L84.0637 178.044Z" fill="#EE81B0"/>
<path d="M100.568 155.995L132.888 159.511C135.666 159.813 137.818 162.082 137.973 164.873C138.148 168.023 135.736 170.718 132.586 170.894L104.685 172.446L100.568 155.997V155.995Z" fill="#FFBE97"/>
<path d="M101.125 165.999L133.445 169.515C136.223 169.817 138.375 172.086 138.529 174.877C138.704 178.027 136.293 180.722 133.143 180.898L105.242 182.45L101.125 166.001V165.999Z" fill="#FFBE97"/>
<path d="M98.4609 176.479L130.781 179.995C133.559 180.296 135.711 182.566 135.865 185.357C136.04 188.506 133.629 191.201 130.479 191.378L102.577 192.929L98.4609 176.48V176.479Z" fill="#FFBE97"/>
<path d="M134.158 155.853C133.646 153.4 131.485 151.627 128.991 151.356L106.543 148.913C100.639 148.271 94.8939 151.096 91.7969 156.164L88.4012 161.721C87.3462 163.449 86.5742 165.321 86.0978 167.265C80.4234 181.44 81.9457 207.518 103.818 207.518C122.319 207.518 120.396 189.262 120.396 189.262C120.396 189.262 116.764 184.533 111.846 179.115L104.655 164.106L128.889 162.757C132.331 162.567 134.893 159.366 134.158 155.852V155.853Z" fill="#FFBE97"/>
<path d="M130.884 160.17C130.851 160.17 130.82 160.169 130.788 160.166L106.992 157.578C106.509 157.525 106.16 157.09 106.212 156.608C106.265 156.125 106.686 155.772 107.182 155.828L130.978 158.416C131.461 158.469 131.81 158.903 131.758 159.386C131.708 159.836 131.328 160.17 130.884 160.17Z" fill="#4F2B2B"/>
<path d="M133.444 170.395C133.416 170.395 133.387 170.394 133.357 170.39L107.571 167.849C107.086 167.801 106.734 167.371 106.782 166.888C106.83 166.404 107.247 166.051 107.742 166.099L133.529 168.641C134.013 168.689 134.366 169.119 134.318 169.601C134.273 170.056 133.891 170.395 133.444 170.395Z" fill="#4F2B2B"/>
<path d="M133.143 181.778C133.131 181.778 133.118 181.778 133.106 181.778L110.051 180.805C109.566 180.784 109.188 180.374 109.21 179.889C109.23 179.403 109.669 179.021 110.126 179.047L133.18 180.02C133.666 180.04 134.044 180.45 134.022 180.936C134.002 181.408 133.612 181.779 133.143 181.779V181.778Z" fill="#4F2B2B"/>
<path d="M113.459 193.081C112.74 193.081 112.019 193.064 111.303 193.03C110.817 193.007 110.443 192.595 110.466 192.11C110.489 191.624 110.941 191.259 111.386 191.273C113.939 191.393 116.527 191.29 119.073 190.965C119.565 190.911 119.995 191.245 120.057 191.726C120.117 192.209 119.779 192.648 119.296 192.71C117.364 192.956 115.408 193.079 113.461 193.079L113.459 193.081Z" fill="#4F2B2B"/>
<path d="M60.6511 209.025C60.4376 209.025 60.2226 208.947 60.054 208.791C59.6981 208.462 59.6749 207.905 60.0044 207.547L80.4911 185.39C80.8207 185.031 81.3776 185.011 81.7349 185.341C82.0923 185.67 82.1139 186.227 81.7844 186.584L61.2977 208.742C61.1245 208.929 60.8878 209.025 60.6511 209.025Z" fill="#4F2B2B"/>
<path d="M102.724 248.591C102.562 248.564 102.405 248.492 102.273 248.369C101.867 248.002 101.819 247.33 102.168 246.87C106.343 241.341 109.068 234.702 110.046 227.67L113.058 205.993C113.14 205.408 113.633 204.991 114.161 205.06C114.707 205.184 115.05 205.661 114.97 206.246L111.958 227.921C110.924 235.348 108.046 242.358 103.637 248.199C103.403 248.506 103.054 248.642 102.725 248.587L102.724 248.591Z" fill="#4F2B2B"/>
<path d="M380.164 189.717C379.905 189.717 379.648 189.602 379.471 189.381C373.834 182.209 367.396 175.645 360.338 169.872C359.962 169.564 359.907 169.009 360.215 168.634C360.522 168.257 361.075 168.204 361.452 168.509C368.612 174.364 375.14 181.021 380.857 188.293C381.156 188.676 381.091 189.229 380.707 189.529C380.548 189.656 380.355 189.718 380.164 189.718V189.717Z" fill="#4F2B2B"/>
<path d="M341.93 233.601C341.545 233.601 341.191 233.347 341.083 232.957C339.512 227.325 336.94 222.091 333.439 217.402C333.148 217.012 333.227 216.462 333.618 216.171C334.005 215.877 334.559 215.959 334.848 216.349C338.482 221.214 341.149 226.644 342.778 232.485C342.908 232.954 342.636 233.438 342.167 233.568C342.09 233.59 342.009 233.601 341.932 233.601H341.93Z" fill="#4F2B2B"/>
<path d="M351.547 167.019L319.062 165.732C316.269 165.621 313.807 167.548 313.242 170.285C312.605 173.374 314.593 176.395 317.682 177.034L345.049 182.684L351.547 167.021V167.019Z" fill="#FFBE97"/>
<path d="M349.519 176.834L317.034 175.547C314.242 175.435 311.779 177.363 311.215 180.099C310.577 183.189 312.565 186.21 315.654 186.849L343.022 192.498L349.519 176.835V176.834Z" fill="#FFBE97"/>
<path d="M350.611 187.591L318.126 186.303C315.334 186.192 312.871 188.12 312.306 190.856C311.669 193.946 313.657 196.967 316.746 197.606L344.114 203.255L350.611 187.592V187.591Z" fill="#FFBE97"/>
<path d="M318.344 161.926C319.212 159.575 321.611 158.139 324.117 158.241L346.68 159.134C352.614 159.369 357.88 163.009 360.195 168.479L362.733 174.475C363.522 176.341 364.009 178.306 364.195 180.3C367.718 195.157 362.367 220.726 340.733 217.5C322.436 214.773 327.03 197 327.03 197C327.03 197 331.32 192.858 336.982 188.225L346.307 174.441L322.538 169.534C319.162 168.838 317.1 165.294 318.344 161.928V161.926Z" fill="#FFBE97"/>
<path d="M344.992 167.64C344.979 167.64 344.97 167.64 344.958 167.64L321.043 166.691C320.557 166.673 320.178 166.263 320.198 165.777C320.217 165.291 320.65 164.919 321.112 164.934L345.027 165.882C345.513 165.901 345.892 166.311 345.872 166.797C345.853 167.27 345.463 167.641 344.992 167.641V167.64Z" fill="#4F2B2B"/>
<path d="M342.913 177.714C342.9 177.714 342.884 177.714 342.87 177.714L316.991 176.424C316.505 176.399 316.132 175.986 316.155 175.502C316.18 175.017 316.593 174.624 317.076 174.666L342.955 175.956C343.441 175.981 343.814 176.394 343.791 176.878C343.769 177.349 343.378 177.714 342.912 177.714H342.913Z" fill="#4F2B2B"/>
<path d="M338.603 190.163C338.572 190.163 338.539 190.162 338.508 190.159L315.562 187.722C315.079 187.671 314.728 187.238 314.781 186.755C314.832 186.271 315.268 185.921 315.747 185.974L338.694 188.41C339.177 188.462 339.528 188.895 339.475 189.377C339.427 189.829 339.045 190.165 338.603 190.165V190.163Z" fill="#4F2B2B"/>
<path d="M335.559 202.072C335.528 202.072 335.498 202.07 335.469 202.067C332.819 201.8 330.177 201.297 327.61 200.573C327.143 200.44 326.869 199.954 327.002 199.487C327.135 199.02 327.624 198.744 328.088 198.879C330.557 199.575 333.099 200.059 335.645 200.316C336.13 200.366 336.482 200.796 336.433 201.28C336.388 201.733 336.004 202.07 335.56 202.07L335.559 202.072Z" fill="#4F2B2B"/>
<path d="M258.731 77.0007C258.731 77.0007 262.971 69.6308 272.813 70.0145C282.655 70.3997 304.022 74.8999 310.693 87.9471C317.363 100.994 308.012 119.315 308.012 119.315L240.24 112.273C240.24 112.273 232.709 96.539 243.749 83.3294C250.224 75.5821 258.733 76.9976 258.733 76.9976L258.731 77.0007Z" fill="#4F2B2B"/>
<path d="M305.982 116.187C305.487 130.37 289.509 142.243 272.489 141.649C255.47 141.055 243.852 128.222 244.345 114.038C244.84 99.8554 258.658 86.573 275.689 86.6163C295.471 86.6674 306.475 102.003 305.98 116.187H305.982Z" fill="#FFBE97"/>
<path d="M283.586 92.5889C283.608 92.6258 283.638 92.6504 283.655 92.6935C283.6 92.6474 283.585 92.6166 283.586 92.5889Z" fill="#FFBE97"/>
<path d="M260.59 116.513C259.758 116.489 259.104 115.793 259.128 114.959L259.209 112.231C259.233 111.399 259.928 110.744 260.763 110.768C261.595 110.792 262.249 111.487 262.225 112.322L262.144 115.05C262.12 115.882 261.424 116.537 260.59 116.513Z" fill="#241C2D"/>
<path d="M288.662 115.493C287.83 115.469 287.176 114.774 287.2 113.94L287.281 111.211C287.305 110.379 288.001 109.725 288.835 109.749C289.667 109.773 290.321 110.468 290.298 111.302L290.216 114.031C290.192 114.863 289.497 115.517 288.662 115.493Z" fill="#241C2D"/>
<path d="M283.586 92.5898C283.608 92.6268 283.638 92.6514 283.655 92.6945C283.6 92.6483 283.585 92.6175 283.586 92.5898Z" fill="#5A5A5A"/>
<path d="M245.979 122.658C249.518 121.2 251.206 117.15 249.749 113.61C248.291 110.071 244.241 108.383 240.701 109.841C237.162 111.298 235.474 115.349 236.932 118.888C238.389 122.427 242.44 124.115 245.979 122.658Z" fill="#FFBE97"/>
<path d="M243.796 117.549L239.782 117.585C239.135 117.591 238.606 117.071 238.6 116.425C238.593 115.778 239.113 115.249 239.76 115.243L243.774 115.207C244.421 115.201 244.95 115.721 244.956 116.367C244.962 117.014 244.443 117.543 243.796 117.549Z" fill="#FF9D6C"/>
<path d="M308.245 119.11C312.043 118.637 314.738 115.174 314.265 111.375C313.791 107.577 310.328 104.882 306.53 105.356C302.731 105.83 300.036 109.293 300.51 113.091C300.984 116.889 304.447 119.584 308.245 119.11Z" fill="#FFBE97"/>
<path d="M309.527 113.313L305.535 113.745C304.892 113.814 304.315 113.35 304.245 112.707C304.176 112.063 304.64 111.486 305.283 111.417L309.274 110.983C309.918 110.914 310.495 111.378 310.565 112.021C310.634 112.665 310.17 113.242 309.527 113.312V113.313Z" fill="#FF9D6C"/>
<path d="M295.845 108.559C295.581 108.559 295.319 108.44 295.146 108.213C292.805 105.143 284.142 105.204 280.473 107.563C280.065 107.823 279.52 107.707 279.257 107.297C278.994 106.888 279.113 106.344 279.522 106.081C283.618 103.454 293.379 102.995 296.546 107.145C296.842 107.532 296.766 108.083 296.379 108.378C296.221 108.5 296.034 108.559 295.847 108.559H295.845Z" fill="#4F2B2B"/>
<path d="M252.234 111.68C251.952 111.68 251.674 111.544 251.504 111.292C251.233 110.89 251.338 110.342 251.742 110.071L251.903 109.962C255.456 107.565 259.876 104.58 265.153 106.13C265.618 106.267 265.886 106.755 265.748 107.222C265.612 107.687 265.128 107.954 264.658 107.819C260.178 106.502 256.301 109.117 252.887 111.422L252.723 111.532C252.571 111.634 252.401 111.682 252.231 111.682L252.234 111.68Z" fill="#4F2B2B"/>
<path d="M255.877 124.216C258.539 124.092 260.644 122.83 260.576 121.398C260.509 119.965 258.297 118.906 255.634 119.03C252.971 119.155 250.867 120.417 250.934 121.849C251.001 123.281 253.214 124.341 255.877 124.216Z" fill="#FF9D6C"/>
<path d="M255.877 124.216C258.539 124.092 260.644 122.83 260.576 121.398C260.509 119.965 258.297 118.906 255.634 119.03C252.971 119.155 250.867 120.417 250.934 121.849C251.001 123.281 253.214 124.341 255.877 124.216Z" fill="#FF9D6C"/>
<path d="M292.523 121.629C295.186 121.505 297.29 120.243 297.223 118.811C297.156 117.379 294.943 116.319 292.28 116.443C289.618 116.568 287.513 117.83 287.58 119.262C287.647 120.694 289.86 121.754 292.523 121.629Z" fill="#FF9D6C"/>
<path d="M292.523 121.629C295.186 121.505 297.29 120.243 297.223 118.811C297.156 117.379 294.943 116.319 292.28 116.443C289.618 116.568 287.513 117.83 287.58 119.262C287.647 120.694 289.86 121.754 292.523 121.629Z" fill="#FF9D6C"/>
<path d="M255.877 124.218C258.539 124.093 260.644 122.832 260.576 121.399C260.509 119.967 258.297 118.907 255.634 119.032C252.971 119.157 250.867 120.419 250.934 121.851C251.001 123.283 253.214 124.343 255.877 124.218Z" fill="#FF9D6C"/>
<path d="M292.523 121.629C295.186 121.505 297.29 120.243 297.223 118.811C297.156 117.379 294.943 116.319 292.28 116.443C289.618 116.568 287.513 117.83 287.58 119.262C287.647 120.694 289.86 121.754 292.523 121.629Z" fill="#FF9D6C"/>
<path d="M274.207 120.268C274.099 120.268 273.991 120.247 273.884 120.207C273.432 120.028 273.211 119.519 273.389 119.067C274.427 116.433 273.182 111.044 269.399 109.284C268.96 109.08 268.767 108.557 268.974 108.116C269.18 107.674 269.701 107.485 270.142 107.691C274.645 109.785 276.495 115.982 275.026 119.712C274.89 120.059 274.559 120.269 274.207 120.269V120.268Z" fill="#4F2B2B"/>
<path d="M275.459 133.241C270.722 133.241 266.536 130.467 265.343 126.445C265.16 125.831 265.275 125.169 265.651 124.63C266.081 124.019 266.806 123.626 267.599 123.578L283.562 122.61C284.38 122.565 285.124 122.865 285.622 123.419C286.062 123.908 286.255 124.55 286.148 125.179C285.414 129.531 281.227 132.911 276.195 133.218C275.948 133.233 275.702 133.239 275.459 133.239V133.241ZM283.732 124.364C283.712 124.364 283.69 124.364 283.67 124.366L267.707 125.334C267.445 125.351 267.216 125.464 267.093 125.64C267.022 125.741 267.001 125.845 267.031 125.945C268.053 129.398 271.888 131.719 276.088 131.462C280.312 131.205 283.814 128.44 284.413 124.889C284.43 124.785 284.397 124.687 284.315 124.595C284.182 124.448 283.969 124.364 283.73 124.364H283.732Z" fill="#4F2B2B"/>
<path d="M258.547 99.7295C261.951 102.171 266.605 102.76 270.511 101.244C270.119 99.2268 269.728 97.2095 269.338 95.1922C273.195 100.348 280.447 102.675 286.582 100.723C286.315 99.2886 286.049 97.8546 285.781 96.4205C287.047 99.9956 290.848 102.107 294.582 102.769C298.316 103.431 302.15 102.97 305.94 103.119C304.826 99.6491 303.497 96.2488 301.967 92.9414C300.563 89.9077 298.946 86.8958 296.533 84.583C290.442 78.7478 280.984 78.6906 272.575 79.3264C268.511 79.6327 264.394 80.0302 260.578 81.4658C257.151 82.7545 252.441 85.3055 252.569 89.4746C252.679 93.0806 255.736 97.7138 258.547 99.7295Z" fill="#4F2B2B"/>
<path d="M193.002 85.5621C193.002 85.5621 189.873 77.6554 180.079 76.6143C170.285 75.5732 148.491 76.9376 140.006 88.8834C131.519 100.829 138.125 120.31 138.125 120.31L206.203 123.14C206.203 123.14 215.93 108.659 206.916 93.9931C201.628 85.3903 193.004 85.5621 193.004 85.5621H193.002Z" fill="#4F2B2B"/>
<path d="M140.585 117.508C139.024 131.613 153.117 145.671 170.044 147.544C186.971 149.417 200.322 138.398 201.884 124.293C203.445 110.187 191.691 95.0471 174.834 92.6276C155.251 89.8183 142.148 103.402 140.585 117.508Z" fill="#FFBE97"/>
<path d="M159.479 118.594C158.667 118.411 158.157 117.604 158.34 116.789L158.94 114.127C159.122 113.315 159.93 112.805 160.744 112.988C161.556 113.17 162.066 113.977 161.883 114.792L161.283 117.454C161.101 118.267 160.293 118.776 159.479 118.594Z" fill="#241C2D"/>
<path d="M186.18 124.315C185.368 124.133 184.858 123.326 185.041 122.511L185.641 119.848C185.824 119.036 186.631 118.526 187.445 118.709C188.258 118.892 188.767 119.699 188.585 120.513L187.984 123.176C187.802 123.988 186.994 124.498 186.18 124.315Z" fill="#241C2D"/>
<path d="M166.157 97.3965C166.131 97.4303 166.097 97.4504 166.074 97.4904C166.136 97.4534 166.154 97.4242 166.157 97.3965Z" fill="#FFBE97"/>
<path d="M166.159 97.3965C166.133 97.4303 166.099 97.4504 166.076 97.4904C166.138 97.4534 166.156 97.4242 166.159 97.3965Z" fill="#5A5A5A"/>
<path d="M205.212 133.012C208.749 131.549 210.43 127.496 208.967 123.959C207.504 120.422 203.451 118.741 199.914 120.204C196.377 121.667 194.696 125.72 196.159 129.257C197.622 132.794 201.675 134.475 205.212 133.012Z" fill="#FFBE97"/>
<path d="M201.923 127.844L205.891 128.46C206.53 128.559 207.129 128.121 207.228 127.482C207.327 126.843 206.889 126.244 206.25 126.145L202.282 125.53C201.643 125.431 201.045 125.868 200.946 126.507C200.847 127.146 201.284 127.745 201.923 127.844Z" fill="#FF9D6C"/>
<path d="M146.61 114.511C147.23 110.734 144.672 107.169 140.895 106.549C137.118 105.928 133.553 108.487 132.932 112.264C132.312 116.041 134.87 119.606 138.647 120.226C142.424 120.847 145.989 118.288 146.61 114.511Z" fill="#FFBE97"/>
<path d="M137.495 114.15L141.382 115.155C142.009 115.318 142.648 114.94 142.809 114.315C142.971 113.689 142.594 113.05 141.969 112.889L138.081 111.883C137.455 111.721 136.816 112.098 136.655 112.723C136.492 113.35 136.87 113.989 137.495 114.15Z" fill="#FF9D6C"/>
<path d="M167.651 112.875C167.445 112.875 167.241 112.804 167.074 112.66C163.781 109.795 155.221 108.481 152.461 111.182C152.115 111.524 151.556 111.515 151.217 111.168C150.877 110.822 150.885 110.263 151.231 109.925C154.964 106.275 164.559 108.141 168.228 111.332C168.595 111.651 168.633 112.206 168.315 112.573C168.14 112.773 167.897 112.875 167.651 112.875Z" fill="#4F2B2B"/>
<path d="M194.545 120.825C194.105 120.825 193.726 120.496 193.673 120.047C193.603 119.451 192.972 118.639 191.982 117.877C189.81 116.2 185.916 114.744 182.683 115.199C182.199 115.27 181.757 114.931 181.688 114.45C181.62 113.969 181.956 113.523 182.437 113.455C186.325 112.905 190.67 114.639 193.059 116.483C194.047 117.245 195.259 118.447 195.421 119.843C195.477 120.325 195.132 120.762 194.649 120.817C194.615 120.822 194.581 120.824 194.547 120.824L194.545 120.825Z" fill="#4F2B2B"/>
<path d="M194.241 131.061C194.514 129.654 192.615 128.101 189.998 127.592C187.381 127.084 185.038 127.812 184.765 129.219C184.491 130.627 186.391 132.18 189.007 132.689C191.624 133.197 193.967 132.469 194.241 131.061Z" fill="#FF9D6C"/>
<path d="M194.241 131.061C194.514 129.654 192.615 128.101 189.998 127.592C187.381 127.084 185.038 127.812 184.765 129.219C184.491 130.627 186.391 132.18 189.007 132.689C191.624 133.197 193.967 132.469 194.241 131.061Z" fill="#FF9D6C"/>
<path d="M158.348 123.2C158.622 121.793 156.722 120.24 154.105 119.731C151.489 119.222 149.146 119.951 148.872 121.358C148.599 122.765 150.498 124.319 153.115 124.827C155.732 125.336 158.075 124.607 158.348 123.2Z" fill="#FF9D6C"/>
<path d="M158.348 123.2C158.622 121.793 156.722 120.24 154.105 119.731C151.489 119.222 149.146 119.951 148.872 121.358C148.599 122.765 150.498 124.319 153.115 124.827C155.732 125.336 158.075 124.607 158.348 123.2Z" fill="#FF9D6C"/>
<path d="M194.239 131.06C194.512 129.653 192.613 128.1 189.996 127.591C187.379 127.083 185.036 127.811 184.763 129.218C184.489 130.626 186.389 132.179 189.005 132.688C191.622 133.196 193.965 132.468 194.239 131.06Z" fill="#FF9D6C"/>
<path d="M158.348 123.2C158.622 121.793 156.722 120.24 154.105 119.731C151.489 119.222 149.146 119.951 148.872 121.358C148.599 122.765 150.498 124.319 153.115 124.827C155.732 125.336 158.075 124.607 158.348 123.2Z" fill="#FF9D6C"/>
<path d="M171.562 126.149C171.163 126.149 170.803 125.875 170.707 125.47C169.793 121.564 172.518 115.703 177.277 114.279C177.738 114.14 178.233 114.405 178.371 114.87C178.51 115.334 178.245 115.826 177.78 115.966C173.784 117.16 171.773 122.311 172.419 125.068C172.531 125.541 172.237 126.015 171.763 126.126C171.695 126.142 171.627 126.149 171.561 126.149H171.562Z" fill="#4F2B2B"/>
<path d="M170.061 138.921C169.249 138.921 168.425 138.838 167.597 138.666C162.659 137.636 159.007 133.687 158.911 129.276C158.897 128.636 159.18 128.028 159.684 127.608C160.258 127.132 161.067 126.945 161.841 127.107L177.496 130.373C178.271 130.535 178.936 131.029 179.27 131.696C179.566 132.283 179.581 132.953 179.312 133.533C177.77 136.867 174.094 138.923 170.058 138.923L170.061 138.921ZM161.281 128.806C161.098 128.806 160.929 128.858 160.809 128.959C160.714 129.038 160.666 129.132 160.67 129.236C160.748 132.836 163.811 136.078 167.956 136.943C172.105 137.803 176.204 136.061 177.717 132.792C177.761 132.698 177.754 132.594 177.7 132.483C177.603 132.293 177.394 132.146 177.137 132.093L161.48 128.826C161.412 128.812 161.346 128.806 161.281 128.806Z" fill="#4F2B2B"/>
<path d="M190.046 103.208C184.38 105.716 177.503 107.179 168.187 106.994C169.448 105.742 170.708 104.491 171.968 103.239C162.643 105.476 153.111 106.841 143.533 107.312C143.912 105.439 144.333 103.573 144.799 101.719C145.32 99.6363 145.934 97.4937 147.326 95.8601C148.692 94.2574 150.662 93.3169 152.6 92.4939C160.48 89.1493 168.871 87.0114 177.392 86.1745C182.814 85.6423 190.99 85.435 194.87 90.1301C198.982 95.1036 193.615 101.627 190.046 103.207V103.208Z" fill="#4F2B2B"/>
<path d="M177.936 109.184C177.512 109.184 177.138 108.876 177.068 108.444C176.991 107.965 177.316 107.513 177.795 107.436C184.09 106.418 190.137 103.476 194.823 99.1501C195.179 98.8191 195.737 98.8423 196.067 99.1996C196.396 99.557 196.374 100.114 196.017 100.443C191.079 105.001 184.709 108.101 178.077 109.175C178.029 109.182 177.981 109.185 177.934 109.185L177.936 109.184Z" fill="#4F2B2B"/>
<path d="M165.119 145.829C163.916 145.306 163.238 144.891 163.215 144.881C163.005 144.751 162.952 144.434 163.097 144.174C163.242 143.914 163.534 143.81 163.74 143.938C163.825 143.99 172.145 149.048 182.974 146.081C183.228 146.008 183.454 146.183 183.482 146.466C183.507 146.746 183.323 147.032 183.069 147.105C174.988 149.32 168.26 147.199 165.118 145.833L165.119 145.829Z" fill="#4F2B2B"/>
<path d="M255.532 137.085C254.424 136.382 253.819 135.867 253.797 135.854C253.61 135.693 253.606 135.372 253.79 135.137C253.973 134.903 254.277 134.845 254.461 135.004C254.537 135.068 261.977 141.35 273.134 140.091C273.396 140.059 273.592 140.267 273.576 140.55C273.558 140.831 273.332 141.085 273.069 141.118C264.743 142.058 258.423 138.924 255.53 137.089L255.532 137.085Z" fill="#4F2B2B"/>
</svg>
