<?xml version="1.0" encoding="utf-8"?>
<!-- Generator: Adobe Illustrator 28.1.0, SVG Export Plug-In . SVG Version: 6.00 Build 0)  -->
<svg version="1.1" id="Layer_1" xmlns="http://www.w3.org/2000/svg" xmlns:xlink="http://www.w3.org/1999/xlink" x="0px" y="0px"
	 viewBox="0 0 470 250" style="enable-background:new 0 0 470 250;" xml:space="preserve">
<style type="text/css">
	.st0{fill:#4F2B2B;}
	.st1{fill:#EF9C2E;}
	.st2{fill:#FFBE97;}
	.st3{fill:#F7FDFE;}
	.st4{opacity:0.6;fill:#B1EDFC;enable-background:new    ;}
	.st5{fill:#FBE4C6;}
	.st6{fill:#DF8711;}
</style>
<path class="st0" d="M209.9,99.2c0,0-10.4,12.3-10.7,28.6s1.4,26.9,1.4,26.9h25.2l3.1-42.3L209.9,99.2z"/>
<path class="st1" d="M277.8,138c-6.7-1.4-11.9-2.2-11.9-2.2l-50.5-2.3c0,0-7.6,1.6-17.3,4.3l50.7,44.2L277.8,138L277.8,138z"/>
<path class="st1" d="M307.3,148.3c-4.8-4.4-19.1-8.1-29.5-10.3l-29,44l-50.7-44.2c-13.5,3.8-31,9.7-37.2,16.4
	c-13.3,14.2-18.9,95.1-18.9,95.1h186.2C328.2,249.3,322.7,162.5,307.3,148.3z"/>
<path class="st0" d="M204.3,94c0,0-7.3-18.9,10.7-34.8c24.1-21.3,52.4,0.8,52.4,0.8s4.2-3.4,10.4,5.9s9,37-5.3,49.9l1.7-16.6
	L204.3,94z"/>
<rect x="225.7" y="111" class="st2" width="30.5" height="28.3"/>
<path class="st0" d="M256.2,124v-14.4l-32.7,1.9C229.7,123.1,247.9,124.7,256.2,124z"/>
<path class="st2" d="M209.3,87.8c0.6,0,1.1,0.1,1.7,0.3c1.9-12.7,11.8-24.9,29.1-27c18.5-2.3,35.3,10.4,37.7,25.8
	s-8.6,30.9-27.1,33.7c-16.4,2.5-33.2-5.8-38.4-18.4c-1.1,0.6-2.4,0.9-3.8,0.8c-4.2-0.2-7.4-3.8-7.2-8
	C201.6,90.9,205.1,87.6,209.3,87.8L209.3,87.8z"/>
<path class="st0" d="M206.7,96.8l4.4,0.2c0.7,0,1.3-0.5,1.4-1.2c0-0.7-0.5-1.3-1.2-1.3l-4.4-0.2c-0.7,0-1.3,0.5-1.4,1.2
	C205.4,96.1,206,96.7,206.7,96.8z"/>
<path class="st0" d="M248.3,102c-0.2,0-0.4-0.1-0.5-0.3c-1.1-1.5-1.5-3.7-1-5.9c0.5-2.4,1.9-4.5,4-5.7c0.3-0.2,0.7-0.1,0.9,0.2
	s0.1,0.7-0.2,0.9c-1.7,1-2.9,2.8-3.4,4.8c-0.4,1.8-0.1,3.7,0.8,4.9c0.2,0.3,0.1,0.7-0.1,0.9C248.6,101.9,248.5,102,248.3,102
	L248.3,102z"/>
<path class="st0" d="M246.6,110.3c-2.6,0-5.7-0.7-8.4-3c-0.3-0.2-0.3-0.7-0.1-0.9c0.2-0.3,0.7-0.3,0.9-0.1c3.8,3.3,8.5,2.9,11,2.3
	c0.4-0.1,0.7,0.1,0.8,0.5s-0.1,0.7-0.5,0.8C249.3,110.1,248,110.3,246.6,110.3L246.6,110.3z"/>
<path class="st0" d="M262.3,64.1c0,0-9.9,16.5-32,16L217,82.3l-7,6.4c0,0-1.4-27.6,19.7-28.6S262.3,64.1,262.3,64.1z"/>
<path class="st0" d="M253,67.3c0,0,3.6,12.8,25.7,24.2l0.1-14.2l-19.7-14.5L253,67.3z"/>
<path class="st3" d="M261.9,87.3c-5,0-9,4-9,9l16.6-5C267.8,88.9,265,87.3,261.9,87.3z"/>
<path class="st4" d="M252.9,96.3C252.9,96.3,252.9,96.3,252.9,96.3c0,5,4.1,9.1,9.1,9.1s9-4.1,9-9.1c0-1.9-0.6-3.6-1.5-5L252.9,96.3
	L252.9,96.3z"/>
<path d="M261.9,88c-4.6,0-8.4,3.8-8.4,8.4c0,4.6,3.8,8.4,8.4,8.4s8.4-3.8,8.4-8.4C270.3,91.7,266.5,88,261.9,88z M261.9,106.1
	c-5.4,0-9.7-4.4-9.7-9.7s4.4-9.7,9.7-9.7c5.4,0,9.7,4.4,9.7,9.7C271.6,101.7,267.3,106.1,261.9,106.1z"/>
<path d="M252.9,95.7h-9.5c-0.4,0-0.7-0.3-0.7-0.7s0.3-0.7,0.7-0.7h9.5c0.4,0,0.7,0.3,0.7,0.7S253.2,95.7,252.9,95.7z"/>
<path class="st3" d="M233.8,87.3c-5,0-9,4-9,9l16.6-5C239.7,88.9,236.9,87.3,233.8,87.3z"/>
<path class="st4" d="M224.8,96.3C224.8,96.3,224.8,96.3,224.8,96.3c0,5,4.1,9.1,9.1,9.1s9-4.1,9-9.1c0-1.9-0.6-3.6-1.5-5L224.8,96.3
	L224.8,96.3z"/>
<path d="M233.8,88c-4.6,0-8.4,3.8-8.4,8.4c0,4.6,3.8,8.4,8.4,8.4c4.6,0,8.4-3.8,8.4-8.4C242.2,91.7,238.4,88,233.8,88z M233.8,106.1
	c-5.4,0-9.7-4.4-9.7-9.7s4.4-9.7,9.7-9.7c5.4,0,9.7,4.4,9.7,9.7C243.5,101.7,239.2,106.1,233.8,106.1z"/>
<path class="st0" d="M265.7,86.7c-0.2,0-0.4-0.1-0.5-0.3c-0.5-0.6-1.5-1.1-2.8-1.2c-1.4-0.1-2.8,0.2-3.5,0.9c-0.3,0.2-0.7,0.2-0.9,0
	c-0.2-0.3-0.2-0.7,0-0.9c1-0.9,2.7-1.4,4.5-1.2c1.7,0.1,3,0.8,3.7,1.7c0.2,0.3,0.2,0.7-0.1,0.9C266,86.7,265.8,86.7,265.7,86.7z"/>
<path class="st0" d="M240.1,85.5c-0.2,0-0.4-0.1-0.5-0.2c-1.5-1.6-6.6-1.9-8.6-0.6c-0.3,0.2-0.7,0.1-0.9-0.2
	c-0.2-0.3-0.1-0.7,0.2-0.9c2.5-1.7,8.4-1.3,10.3,0.8c0.2,0.3,0.2,0.7,0,0.9C240.5,85.4,240.3,85.5,240.1,85.5z"/>
<polygon class="st5" points="245.4,138.1 225.9,122.5 215.5,133.4 231.6,153.4 "/>
<polygon class="st5" points="245.4,138.1 256.6,123.6 266,135.6 260.1,151.1 "/>
<path class="st6" d="M295.1,90.4c-1.9,3.6-3.7,5.4-7.3,7.3c3.6,1.9,5.4,3.7,7.3,7.3c1.9-3.6,3.7-5.4,7.3-7.3
	C298.8,95.8,297,93.9,295.1,90.4z"/>
<path class="st2" d="M280.8,118.6c1.6-0.4,3.2-0.2,4.7,0.3l-5-24.7c-0.5-2.2-2.5-3.8-4.8-3.6c-2.5,0.2-4.3,2.4-4.1,4.9l2,24.7
	L280.8,118.6L280.8,118.6z"/>
<path class="st2" d="M287.5,121.8c-1.7-1.7-4.1-2.4-6.5-1.9l-11.7,2.7c-3.1,0.7-5.5,3.3-5.9,6.5l-0.5,5.1c-0.1,1.3,0.6,2.9,1.5,4
	l0.2-2.6c0.4-3.8,3.2-6.9,6.9-7.7l15.9-3.7c0.4-0.1,0.7,0.1,0.8,0.5s-0.1,0.7-0.5,0.8l-15.9,3.7c-3.1,0.7-5.5,3.4-5.9,6.5l-0.5,5.1
	c-0.1,1.7,0.5,3.3,1.8,4.4l2.7,1.7l0.4-4.3c0.4-3.8,3.2-6.9,6.9-7.7l15.9-3.7c0.4-0.1,0.7,0.1,0.8,0.5s-0.1,0.7-0.5,0.8l-15.9,3.7
	c-3.1,0.7-5.5,3.4-5.9,6.5l-0.5,5.1c0,0.1,0.1,0.2,0,0.4c0.2,0.6,1,1.6,3.3,3.4c1.2,1,2.8,1.3,4.4,1l1.5-0.4c1-0.2,1.8-1.1,1.9-2.1
	c0.2-1.2-0.6-2.4-1.7-2.7l-1.5-0.5c-0.4-0.1-0.5-0.5-0.4-0.8c0.1-0.4,0.5-0.6,0.8-0.4l1.5,0.5c0.2,0.1,0.5,0.2,0.7,0.3
	c0,0,0.1-0.1,0.1-0.1l5.9-1.9c0.4-0.1,0.7,0.1,0.8,0.4c0.1,0.4-0.1,0.7-0.4,0.8l-5.3,1.7c0.6,0.8,0.9,1.8,0.8,2.9
	c-0.1,0.9-0.5,1.7-1.2,2.3c0,0,0,0,0,0.1l-2.8,7.3c-1.3,3.3-1,7.1,0.9,10.1c0.2,0.3,0.1,0.7-0.2,0.9c-0.1,0.1-0.2,0.1-0.4,0.1
	c-0.2,0-0.4-0.1-0.6-0.3c-2.1-3.4-2.4-7.6-1-11.2l2.3-5.9l-1.5,0.4c-0.5,0.1-1.1,0.2-1.6,0.2c-1.4,0-2.8-0.5-3.9-1.4
	c-1.7-1.3-3.4-2.8-3.8-4.2l-3.5-2.2c-1.7-1.4-2.5-3.5-2.3-5.6l0.1-0.8c-1.5-1.3-2.9-3.8-2.7-5.9l0.5-5.1c0.4-3.8,3.2-6.8,6.9-7.7
	l1.5-0.3l-2.3-5.4c-1.1-1.6-2.9-2.5-4.7-2.5c-0.9,0-1.7,0.2-2.6,0.5c-2.4,1.1-3.8,3.7-3.4,6.3c3.4,22.4,6.1,37.2,7.4,39.6
	c0.8,1.4,5.4,5.8,7.1,7.4c0.1,0.1,0.2,0.2,0.2,0.4l0.7,5.3l25.6-1.1l3.5-30.6c0.3-2.4-0.5-4.7-2.2-6.4L287.5,121.8L287.5,121.8z"/>
<path class="st2" d="M301.9,140.8l-3.5,30.6l-25.6,1.1l-0.7-5.3c0-0.1-0.1-0.3-0.2-0.4c-1.7-1.6-6.3-6-7.1-7.4
	c-1.3-2.4-4.1-17.2-7.4-39.6c-0.4-2.6,1-5.2,3.4-6.3c0.8-0.4,1.7-0.5,2.6-0.5c1.9,0,3.7,0.9,4.7,2.5l2.3,5.4l-1.5,0.3
	c-3.7,0.8-6.4,3.9-6.9,7.7l-0.5,5.1c-0.2,2.2,1.2,4.6,2.7,5.9l-0.1,0.8c-0.2,2.1,0.6,4.2,2.3,5.6l3.5,2.2c0.4,1.4,2.1,2.9,3.8,4.2
	c1.1,0.9,2.5,1.4,3.9,1.4c0.5,0,1.1-0.1,1.6-0.2l1.5-0.4l-2.3,5.9c-1.4,3.7-1.1,7.9,1,11.2c0.1,0.2,0.3,0.3,0.6,0.3
	c0.1,0,0.2,0,0.4-0.1c0.3-0.2,0.4-0.6,0.2-0.9c-1.9-3-2.2-6.8-0.9-10.1l2.8-7.3c0,0,0,0,0-0.1c0.6-0.6,1-1.4,1.2-2.3
	c0.1-1.1-0.2-2.1-0.8-2.9l5.3-1.7c0.4-0.1,0.5-0.5,0.4-0.8c-0.1-0.4-0.5-0.5-0.8-0.4l-5.9,1.9c0,0-0.1,0-0.1,0.1
	c-0.2-0.1-0.4-0.2-0.7-0.3l-1.5-0.5c-0.4-0.1-0.7,0.1-0.8,0.4s0.1,0.7,0.4,0.8l1.5,0.5c1.2,0.4,1.9,1.5,1.7,2.7
	c-0.1,1-0.9,1.9-1.9,2.1l-1.5,0.4c-1.5,0.4-3.1,0-4.4-1c-2.3-1.8-3.1-2.9-3.3-3.4c0-0.1,0-0.3,0-0.4l0.5-5.1
	c0.4-3.2,2.7-5.8,5.9-6.5l15.9-3.7c0.4-0.1,0.6-0.4,0.5-0.8s-0.4-0.6-0.8-0.5l-15.9,3.7c-3.7,0.9-6.4,3.9-6.9,7.7l-0.4,4.3l-2.7-1.7
	c-1.3-1.1-2-2.7-1.8-4.4l0.5-5.1c0.4-3.2,2.7-5.8,5.9-6.5l15.9-3.7c0.4-0.1,0.6-0.4,0.5-0.8s-0.4-0.6-0.8-0.5l-15.9,3.7
	c-3.7,0.9-6.4,3.9-6.9,7.7l-0.2,2.6c-0.9-1.1-1.6-2.7-1.5-4l0.5-5.1c0.4-3.2,2.7-5.8,5.9-6.5l11.7-2.7c2.3-0.5,4.8,0.2,6.5,1.9
	l12.2,12.6C301.4,136.1,302.2,138.5,301.9,140.8L301.9,140.8z M271.6,95.6c-0.2-2.5,1.6-4.7,4.1-4.9c2.3-0.2,4.4,1.3,4.8,3.6l5,24.7
	c-1.5-0.6-3.1-0.7-4.7-0.3l-7.2,1.7L271.6,95.6L271.6,95.6z M288.5,120.9c-0.5-0.5-1-0.9-1.5-1.2c0,0,0-0.1,0-0.1L281.8,94
	c-0.6-2.9-3.3-4.9-6.3-4.6c-3.2,0.3-5.6,3.1-5.3,6.4l2,24.9l-0.4,0.1l-2.5-5.7c-2-2.9-5.8-4-9-2.6c-3,1.3-4.7,4.5-4.2,7.7
	c2,13.4,5.7,36.5,7.6,40c0.9,1.7,6,6.5,7.2,7.6l0.8,5.7c0,0.3,0.3,0.6,0.6,0.6c0,0,0,0,0,0l26.7-1.2c0.3,0,0.6-0.3,0.6-0.6l3.5-31.1
	c0.3-2.8-0.6-5.5-2.6-7.5L288.5,120.9L288.5,120.9z"/>
<path class="st0" d="M270.4,94.1c-0.2,0.9-0.3,2.6-0.2,4.6c0,2.1,0.2,4.6,0.4,7.2c0.4,5.3,0.9,11.2,1.3,14.9l1.5-0.2
	c-0.4-3.8-1-9.6-1.3-14.9c-0.2-2.6-0.3-5.1-0.3-7.1c0-2.1,0-3.5,0.2-4.2L270.4,94.1z M274.5,89.6c-1.2,0-3.3,1.1-4.1,4.4l1.5,0.4
	c0.7-2.8,2.3-3.3,2.6-3.3L274.5,89.6L274.5,89.6z M271.8,120.8c0,0.4,0.4,0.7,0.8,0.7c0.4,0,0.7-0.4,0.7-0.8L271.8,120.8z
	 M274.5,91.1c0.4,0,0.8-0.3,0.8-0.8s-0.3-0.8-0.8-0.8V91.1z"/>
<path class="st0" d="M258.4,115.2c0.4-0.8,1.3-1.9,2.8-2.5c1.4-0.5,3.3-0.6,5.8,0.9l0.7-1.3c-2.9-1.6-5.3-1.7-7.1-1
	c-1.8,0.7-3,2.1-3.5,3.2L258.4,115.2z M266.9,113.6c0.4,0.2,0.8,0.1,1-0.3c0.2-0.4,0.1-0.8-0.3-1L266.9,113.6z M257,114.6
	c-0.2,0.4,0,0.8,0.3,1s0.8,0,1-0.3L257,114.6z"/>
<path class="st0" d="M276,121.4H287v-1.5H276V121.4z M264,127.9c0.4-0.4,2.3-2.1,4.7-3.6c2.4-1.6,5.1-2.9,7.3-2.9v-1.5
	c-2.6,0-5.7,1.6-8.1,3.1c-2.4,1.6-4.4,3.3-4.9,3.8L264,127.9z M263.7,134.4c-0.3-0.9-0.4-2.4-0.3-3.8c0-0.7,0.1-1.3,0.3-1.8
	c0.1-0.2,0.1-0.4,0.2-0.6c0.1-0.2,0.1-0.2,0.1-0.2l-1.1-1.1c-0.2,0.2-0.3,0.4-0.4,0.7c-0.1,0.2-0.2,0.5-0.3,0.8
	c-0.1,0.6-0.2,1.3-0.3,2.1c-0.1,1.5,0,3.2,0.3,4.4L263.7,134.4z M287,121.4c0.4,0,0.8-0.3,0.8-0.8s-0.3-0.8-0.8-0.8V121.4z
	 M262.2,134.8c0.1,0.4,0.5,0.6,0.9,0.5s0.6-0.5,0.5-0.9L262.2,134.8z"/>
<path class="st0" d="M267,136.2c0-0.5,0.3-0.9,0.6-1.3l-1-1.1c-0.6,0.6-1,1.4-1,2.2L267,136.2z M278.1,127.6
	c2.2-0.7,5.2-0.7,7.7-0.5c1.2,0.1,2.4,0.2,3.1,0.3c0.4,0.1,0.7,0.1,0.9,0.1c0.1,0,0.2,0,0.2,0c0,0,0,0,0.1,0s0,0,0,0l0,0l0,0l0,0
	c0,0,0,0,0.1-0.7s0.1-0.7,0.1-0.7l0,0l0,0c0,0,0,0,0,0c0,0,0,0,0,0c0,0,0,0-0.1,0c-0.1,0-0.1,0-0.3,0c-0.2,0-0.6-0.1-1-0.1
	c-0.8-0.1-2-0.2-3.2-0.3c-2.5-0.2-5.8-0.2-8.3,0.6L278.1,127.6z M267.6,134.9c0.9-0.9,2.5-2.4,4.4-3.9c1.9-1.5,4.1-2.8,6.1-3.4
	l-0.4-1.4c-2.2,0.7-4.6,2.2-6.6,3.7c-2,1.5-3.7,3.1-4.6,4L267.6,134.9z M266.1,144.3l0.9-8.1l-1.5-0.2l-0.9,8.1L266.1,144.3z
	 M267,134.4l-0.5-0.5L267,134.4z M290.2,127.7c0.4,0.1,0.8-0.2,0.9-0.6s-0.2-0.8-0.6-0.9L290.2,127.7z M277.9,126.9l-0.2-0.7
	L277.9,126.9z M264.6,144.1c0,0.4,0.3,0.8,0.7,0.8c0.4,0,0.8-0.3,0.8-0.7L264.6,144.1z"/>
<path class="st0" d="M274.8,137.8c0,0,0.1-0.1,0.1-0.1c0,0,0.1-0.1,0.1-0.1s0.1-0.1,0.2-0.1l-0.8-1.3c0,0-0.1,0.1-0.1,0.1
	c0,0-0.1,0.1-0.2,0.1c-0.1,0.1-0.3,0.2-0.5,0.4L274.8,137.8z M286,133.4c2.2,0,4-0.3,5.2-0.6c0.7-0.1,1.1-0.3,1.5-0.3
	c0.2,0,0.3-0.1,0.3-0.1c0,0,0,0,0,0s-0.2,0-0.3-0.2l1.1-1.1c-0.2-0.2-0.3-0.2-0.5-0.2c-0.1,0-0.2,0-0.3,0c-0.2,0-0.4,0-0.6,0.1
	c-0.4,0.1-0.9,0.2-1.5,0.4c-1.2,0.3-2.9,0.6-4.9,0.6L286,133.4L286,133.4z M275.2,137.4c1.2-0.8,3-1.8,4.9-2.6
	c1.9-0.8,4-1.4,5.9-1.4v-1.5c-2.2,0-4.4,0.7-6.5,1.5c-2,0.9-3.9,1.9-5.1,2.7L275.2,137.4z M271.9,147.7c0.1-1.5,0.6-3.7,1.2-5.7
	c0.3-1,0.6-1.9,0.9-2.7c0.3-0.8,0.6-1.3,0.8-1.5l-1.1-1c-0.4,0.4-0.7,1.2-1.1,1.9c-0.3,0.8-0.7,1.8-1,2.9c-0.6,2.1-1.1,4.4-1.2,6
	L271.9,147.7z M274.8,136.8l-0.4-0.6L274.8,136.8z M274.2,137.3l0.6,0.5L274.2,137.3z M292.7,132.3c0.3,0.3,0.8,0.3,1.1,0
	s0.3-0.8,0-1.1L292.7,132.3z M270.4,147.5c0,0.4,0.3,0.8,0.7,0.8c0.4,0,0.8-0.3,0.8-0.7L270.4,147.5z"/>
<path class="st0" d="M281,147.4l12.5-4.3l-0.5-1.4l-12.5,4.3L281,147.4z M278.9,154.1c0.5,0,1.2-0.1,1.8-0.3s1.3-0.5,1.8-1.1
	c0.5-0.6,0.6-1.5,0.5-2.6c-0.2-1-0.6-2.3-1.5-3.9l-1.3,0.7c0.8,1.5,1.2,2.6,1.4,3.4c0.1,0.8,0,1.2-0.2,1.4c-0.2,0.3-0.5,0.4-1,0.6
	c-0.5,0.1-1,0.2-1.5,0.2L278.9,154.1z M293.5,143c0.4-0.1,0.6-0.6,0.5-0.9s-0.6-0.6-1-0.5L293.5,143z M280.8,146.6l-0.2-0.7
	c-0.2,0.1-0.4,0.2-0.5,0.4s-0.1,0.4,0,0.6L280.8,146.6z M278.8,152.6c-0.4,0-0.7,0.4-0.7,0.8s0.4,0.7,0.8,0.7L278.8,152.6z"/>
<polygon class="st1" points="269.4,172.2 271.3,249.3 321.1,249.3 299.9,171.8 "/>
<path class="st0" d="M271.3,250c-0.4,0-0.7-0.3-0.7-0.6l-1.9-77.1c0-0.2,0.1-0.4,0.2-0.5c0.1-0.1,0.3-0.2,0.5-0.2l30.5-0.3
	c0.3,0,0.5,0.2,0.6,0.5l19.3,57.8c0.1,0.4-0.1,0.7-0.4,0.9c-0.3,0.1-0.7-0.1-0.9-0.4l-19.2-57.3l-29.4,0.3l1.9,76.5
	C272,249.7,271.7,250,271.3,250L271.3,250L271.3,250z"/>
<path class="st0" d="M196,250c-0.4,0-0.6-0.3-0.7-0.6l-1.9-51.4c0-0.4,0.3-0.7,0.6-0.7c0.4,0,0.7,0.3,0.7,0.6l1.9,51.4
	C196.6,249.7,196.4,250,196,250L196,250z"/>
</svg>
