<svg width="470" height="250" viewBox="0 0 470 250" fill="none" xmlns="http://www.w3.org/2000/svg">
<path d="M286.959 123.273L278.445 136.14L297.745 149.385L308.341 133.68L286.959 123.273Z" fill="#FFBE97"/>
<path d="M307.049 135.486L326.754 110.334L298.435 98.1541L284.896 113.753L290.281 130.624L307.049 135.486Z" fill="#FFBE97"/>
<path d="M297.452 117.351C290.43 108.291 276.512 106.447 262.857 103.817L282.233 67.6638C292.704 68.7187 309.996 68.9148 313.311 79.8404L297.449 117.351L297.452 117.351Z" fill="#FBE4C6"/>
<path d="M297.452 117.351C308.845 116.078 320.243 123.845 331.641 131.809L347.503 94.2989C339.45 87.5196 323.464 74.6062 313.314 79.8405L297.452 117.351Z" fill="#FBE4C6"/>
<path d="M297.452 117.352C306.055 113.758 317.652 116.619 329.049 124.583L344.911 87.0729C336.859 80.2935 322.314 73.8616 313.314 79.841L297.452 117.352Z" fill="#FBE4C6"/>
<path d="M297.452 117.352C301.978 113.081 318.273 112.362 326.924 117.566L342.786 80.0559C334.4 73.6577 318.41 73.8109 313.314 79.8412L297.452 117.352Z" fill="#FBE4C6"/>
<path d="M297.44 117.543C297.393 117.54 297.345 117.518 297.31 117.482C297.238 117.403 297.239 117.282 297.318 117.21C301.904 112.881 318.14 112.211 326.834 117.288L342.608 79.9825C342.649 79.8829 342.763 79.8375 342.859 79.8808C342.959 79.9212 343.004 80.0356 342.961 80.1319L327.012 117.847L326.821 117.733C318.294 112.604 302.112 113.213 297.579 117.493C297.539 117.531 297.486 117.549 297.433 117.545L297.44 117.543Z" fill="#F8D2A0"/>
<path d="M329.038 124.803C328.998 124.8 328.958 124.788 328.926 124.765C317.359 116.681 305.915 114.053 297.538 117.555C297.426 117.601 297.3 117.549 297.251 117.438C297.205 117.327 297.257 117.2 297.368 117.151C305.838 113.615 317.337 116.203 328.955 124.253L344.712 86.9922C344.759 86.8807 344.886 86.8269 344.998 86.8773C345.109 86.9247 345.16 87.0517 345.113 87.1633L329.25 124.674C329.225 124.734 329.172 124.78 329.109 124.798C329.084 124.806 329.059 124.807 329.035 124.806L329.038 124.803Z" fill="#F8D2A0"/>
<path d="M347.503 94.2998L348.669 95.6187L331.833 135.435L331.641 131.807L347.503 94.2998Z" fill="#FBE4C6"/>
<path d="M297.451 117.351C292.186 105.983 276.511 106.447 262.857 103.818L262.055 105.574C275.709 108.204 289.624 110.048 296.649 119.108C308.042 117.835 320.435 127.473 331.833 135.438L333.105 132.43C321.707 124.465 307.948 112.65 297.454 117.355L297.451 117.351Z" fill="#F8D2A0"/>
<path d="M297.439 117.567C297.414 117.566 297.389 117.561 297.369 117.55C297.257 117.503 297.206 117.376 297.254 117.264L313.116 79.7539C313.163 79.6424 313.29 79.5917 313.402 79.6391C313.513 79.6864 313.564 79.8135 313.517 79.925L297.654 117.436C297.618 117.523 297.528 117.573 297.439 117.567Z" fill="#F8D2A0"/>
<path d="M331.806 135.873C331.726 135.868 331.65 135.841 331.585 135.794C330.595 135.102 329.597 134.398 328.592 133.69C317.946 126.172 306.935 118.399 296.699 119.542C296.547 119.56 296.399 119.495 296.304 119.377C290.009 111.255 278.167 109.042 265.631 106.694C264.413 106.465 263.192 106.238 261.972 106.003C261.737 105.957 261.581 105.727 261.627 105.491C261.673 105.256 261.906 105.104 262.138 105.146C263.355 105.382 264.576 105.608 265.79 105.837C278.397 108.196 290.313 110.426 296.843 118.65C307.341 117.614 318.396 125.424 329.093 132.979C329.946 133.581 330.796 134.18 331.638 134.772L348.265 95.4502C348.36 95.2272 348.614 95.1257 348.837 95.2174C349.06 95.3121 349.162 95.5662 349.07 95.7894L332.231 135.609C332.18 135.729 332.075 135.822 331.949 135.857C331.902 135.873 331.849 135.876 331.8 135.872L331.806 135.873Z" fill="#4F2B2B"/>
<path d="M286.76 126.805L282.918 115.317C282.156 113.042 282.233 110.571 283.136 108.35L287.287 98.1142C287.908 96.5874 289.593 95.7879 291.166 96.2752C292.669 96.7394 293.604 98.2355 293.363 99.7896L291.792 109.945L295.081 117.984C296.243 120.823 296.273 124.001 295.165 126.862L293.626 130.834L286.761 126.802L286.76 126.805Z" fill="#FFBE97"/>
<path d="M204.557 109.828H175.796V131.021H204.557V109.828Z" fill="#FFBE97"/>
<path d="M196.815 68.5454C182.008 66.6295 168.611 77.3742 166.71 90.4202C166.511 91.7952 166.435 93.1691 166.467 94.533C165.944 94.4453 165.403 94.4208 164.851 94.4853C161.519 94.8718 159.112 98.0539 159.477 101.594C159.84 105.132 162.837 107.689 166.169 107.302C167.429 107.157 168.554 106.611 169.451 105.798C173.03 112.45 179.64 117.596 188.323 119.023C203.064 121.447 218.191 112.242 220.092 99.1945C221.994 86.1485 214.015 70.7712 196.815 68.5454Z" fill="#FFBE97"/>
<path d="M195.083 110.259C194.834 110.119 194.749 109.801 194.888 109.556C195.028 109.308 195.342 109.22 195.591 109.361C195.846 109.505 201.514 112.624 206.68 108.152C206.895 107.966 207.223 107.988 207.409 108.202C207.594 108.416 207.573 108.745 207.358 108.93C201.635 113.882 195.172 110.31 195.079 110.257L195.083 110.259Z" fill="#4F2B2B"/>
<path d="M167.144 103.222L163.644 103.604C163.08 103.666 162.572 103.259 162.512 102.695C162.45 102.132 162.857 101.624 163.42 101.563L166.921 101.181C167.484 101.119 167.992 101.527 168.053 102.09C168.115 102.653 167.707 103.161 167.144 103.222Z" fill="#4F2B2B"/>
<path d="M184.17 105.821C184.285 104.569 182.491 103.38 180.163 103.166C177.835 102.953 175.855 103.794 175.74 105.046C175.625 106.298 177.419 107.486 179.747 107.7C182.074 107.914 184.055 107.073 184.17 105.821Z" fill="#FF9D6C"/>
<path d="M201.655 100.798C201.494 100.798 201.334 100.74 201.204 100.625C200.287 99.7996 199.732 98.4195 199.718 96.9304C199.704 95.2854 200.335 93.7858 201.494 92.7083C201.768 92.456 202.194 92.4696 202.449 92.7429C202.703 93.0162 202.688 93.4434 202.414 93.6968C201.229 94.7984 201.063 96.189 201.069 96.9189C201.078 98.0184 201.476 99.053 202.107 99.6195C202.385 99.8687 202.407 100.296 202.158 100.572C202.025 100.721 201.841 100.796 201.655 100.796V100.798Z" fill="#4F2B2B"/>
<path d="M189.689 104.141C186.156 104.141 183.281 101.266 183.281 97.732C183.281 94.1979 186.156 91.3235 189.689 91.3235C193.222 91.3235 196.098 94.1979 196.098 97.732C196.098 101.266 193.222 104.141 189.689 104.141ZM189.689 92.6733C186.9 92.6733 184.631 94.9424 184.631 97.732C184.631 100.522 186.9 102.791 189.689 102.791C192.479 102.791 194.748 100.522 194.748 97.732C194.748 94.9424 192.479 92.6733 189.689 92.6733Z" fill="white"/>
<path d="M190.799 99.5566C190.314 99.6247 189.866 99.2875 189.798 98.8027L189.574 97.2141C189.506 96.7293 189.843 96.2811 190.328 96.2131C190.813 96.145 191.261 96.4822 191.329 96.967L191.553 98.5555C191.621 99.0404 191.284 99.4885 190.799 99.5566Z" fill="#4F2B2B"/>
<path d="M210.608 96.9284C210.123 96.9965 209.675 96.6593 209.607 96.1745L209.383 94.586C209.315 94.1011 209.652 93.653 210.137 93.5849C210.622 93.5168 211.07 93.854 211.138 94.3388L211.362 95.9274C211.43 96.4122 211.093 96.8604 210.608 96.9284Z" fill="#4F2B2B"/>
<path d="M209.449 101.16C205.915 101.16 203.04 98.2856 203.04 94.7515C203.04 91.2174 205.915 88.343 209.449 88.343C212.982 88.343 215.857 91.2174 215.857 94.7515C215.857 98.2856 212.982 101.16 209.449 101.16ZM209.449 89.6928C206.659 89.6928 204.39 91.9619 204.39 94.7515C204.39 97.5411 206.659 99.8103 209.449 99.8103C212.238 99.8103 214.507 97.5411 214.507 94.7515C214.507 91.9619 212.238 89.6928 209.449 89.6928Z" fill="white"/>
<path d="M195.422 97.3811C195.245 97.3811 195.069 97.312 194.935 97.1738C194.677 96.9057 194.685 96.4795 194.952 96.2209C194.997 96.1769 199.482 91.9339 204.175 95.3392C204.477 95.558 204.543 95.9811 204.324 96.2816C204.105 96.5853 203.682 96.6492 203.381 96.4324C199.619 93.7025 196.039 97.0502 195.889 97.1937C195.758 97.3193 195.59 97.3811 195.421 97.3811H195.422Z" fill="white"/>
<path d="M184.494 91.6749C184.373 91.6749 184.251 91.6424 184.141 91.5754C183.824 91.3806 183.725 90.9639 183.919 90.6466C185.429 88.1889 188.967 87.258 191.488 88.6633C191.814 88.8444 191.931 89.256 191.749 89.5816C191.569 89.9073 191.153 90.0225 190.832 89.8434C188.945 88.7931 186.2 89.5146 185.069 91.3534C184.943 91.5607 184.722 91.6749 184.494 91.6749Z" fill="#4F2B2B"/>
<path d="M204.948 88.4382C204.77 88.4382 204.592 88.368 204.46 88.2287C204.201 87.9596 204.212 87.5324 204.481 87.2738C206.553 85.2957 210.385 84.7564 213.026 86.0695C213.36 86.236 213.495 86.6413 213.329 86.9743C213.163 87.3094 212.756 87.4434 212.425 87.2779C210.287 86.2161 207.08 86.6612 205.415 88.2507C205.283 88.3753 205.116 88.4371 204.948 88.4371V88.4382Z" fill="#4F2B2B"/>
<path d="M235.973 195.013L237.574 166.381C237.595 166.01 237.778 165.805 238.142 165.846C238.513 165.868 238.732 166.01 238.709 166.381L237.006 194.796C240.204 196.432 262.386 207.293 269.544 203.985C283.511 197.508 300.358 150.071 302.222 144.718L281.037 130.44L262.338 154.17C262.193 154.353 261.962 154.444 261.732 154.423C261.5 154.397 261.299 154.253 261.198 154.042C261.095 153.824 250.753 132.193 244.414 127.675C239.406 124.107 220.771 123.949 217.54 123.949H215.814L200.522 157.987C200.44 158.165 200.286 158.301 200.098 158.357C199.913 158.411 199.707 158.383 199.541 158.277L154.697 129.516C151.839 130.674 129.443 140.115 125.563 146.407C118.049 158.587 118.714 239.766 119.382 248.466L155.613 248.947L159.764 174.242C159.786 173.87 160.106 173.562 160.478 173.61C160.85 173.632 161.133 173.952 161.11 174.324L156.574 248.787L232.946 248.467L235.962 195.164C235.959 195.114 235.962 195.066 235.972 195.014L235.973 195.013Z" fill="#B06D6D"/>
<path d="M171.915 125.922C168.585 125.922 159.049 128.319 154.697 129.517L200.676 165.468C206.542 151.655 217.781 124.03 215.814 124.03C213.846 124.03 204.902 125.291 200.676 125.922H171.915Z" fill="#B06D6D"/>
<path d="M160.479 173.609C160.107 173.561 159.787 173.869 159.765 174.241L155.476 246.701L155.378 248.309C155.356 248.68 155.639 249.001 156.011 249.023C156.024 249.024 156.038 249.024 156.051 249.024C156.406 249.024 156.704 248.748 156.725 248.389L156.827 246.7L161.112 174.322C161.134 173.95 160.852 173.629 160.48 173.608L160.479 173.609Z" fill="#4F2B2B"/>
<path d="M238.135 165.662C237.763 165.614 237.443 165.922 237.421 166.294L233.132 238.754L232.499 247.819C232.477 248.191 232.76 248.511 233.132 248.533C233.145 248.534 233.159 248.534 233.173 248.534C233.528 248.534 233.825 248.259 233.846 247.9L234.484 238.753L238.768 166.375C238.79 166.003 238.508 165.682 238.136 165.66L238.135 165.662Z" fill="#4F2B2B"/>
<path d="M187.633 117.141C194.634 118.087 200.685 117.782 204.474 117.519V120.867C201.936 121.339 191.985 120.168 187.633 117.141Z" fill="#4F2B2B"/>
<path d="M161.025 86.0674C154.622 94.92 160.007 97.652 166.062 96.1382C169.742 98.0747 174.447 100.783 174.009 90.2725C173.442 76.649 181.096 84.5086 187.444 84.7853C192.522 85.0066 196.757 83.0584 198.229 82.1362C203.473 86.5626 209.294 79.8244 212.231 81.3794C215.448 83.0823 227.264 75.2782 223.952 65.319C221.303 57.3516 209.969 55.5442 204.633 55.6364C203.749 51.8741 200.769 50.0113 199.389 49.5502C191.219 46.6731 183.841 56.2819 181.173 61.446C172.562 55.2491 167.281 61.9993 165.717 66.149C163.325 65.8723 157.879 67.1449 155.229 74.4483C152.58 81.7517 157.989 85.2374 161.025 86.0674Z" fill="#4F2B2B"/>
</svg>
