<svg width="372" height="250" viewBox="0 0 372 250" fill="none" xmlns="http://www.w3.org/2000/svg">
<mask id="mask0_934_10921" style="mask-type:alpha" maskUnits="userSpaceOnUse" x="0" y="0" width="372" height="250">
<path d="M0 20C0 8.9543 8.95431 0 20 0H352C363.046 0 372 8.9543 372 20V250H0V20Z" fill="#F7FDFE"/>
</mask>
<g mask="url(#mask0_934_10921)">
<path d="M143.699 140.593C143.699 140.593 158.79 169.494 160.875 181.025C160.875 181.025 121.863 191.969 92.0065 189.951C75.5759 188.839 53.8276 173.952 56.063 145.844C56.063 145.844 95.0749 148.888 143.698 140.597L143.699 140.593Z" fill="#FFBE97"/>
<path d="M79.8395 62.515L62.9349 85.0235L57.5925 225.306C57.5925 225.306 56.2348 231.465 61.0272 231.783C65.8189 232.098 83.5642 232.213 83.5642 232.213C83.5642 232.213 88.1081 233.34 88.0413 226.031C87.9737 218.72 92.283 85.9837 92.283 85.9837L79.8395 62.515Z" fill="#DF8711"/>
<path d="M79.8395 62.515L62.9349 85.0235L71.2387 91.8323L77.7322 85.7375L84.548 91.918L92.283 85.9837L79.8395 62.515Z" fill="#FBE4C6"/>
<path d="M79.839 62.5144L72.9496 71.6886L84.8493 71.9631L79.839 62.5144Z" fill="#4F2B2B"/>
<path d="M84.79 92.3867L80.8726 201.995" stroke="#4F2B2B" stroke-width="1.3457" stroke-miterlimit="10" stroke-linecap="round"/>
<path d="M71.2383 91.832L67.3192 201.444" stroke="#4F2B2B" stroke-width="1.3457" stroke-miterlimit="10" stroke-linecap="round"/>
<path d="M57.5929 225.307C57.5929 225.307 56.2352 231.467 61.0276 231.784C65.8193 232.1 83.5646 232.214 83.5646 232.214C83.5646 232.214 88.1085 233.341 88.0417 226.032C88.0332 225.138 88.0913 222.358 88.1978 218.184L57.9225 216.685L57.5929 225.307Z" fill="#FBE4C6"/>
<path d="M51.1213 216.969L51.0287 216.346L50.7821 216.334L51.1213 216.969Z" fill="#998A80"/>
<path d="M58.5258 200.851L88.6552 201.806L88.1983 218.182L57.9231 216.683L58.5258 200.851Z" fill="#3F97B1"/>
<path d="M61.8872 206.976L85.5324 207.704" stroke="#4F2B2B" stroke-width="1.3457" stroke-miterlimit="10" stroke-linecap="round"/>
<path d="M62.5604 213.251L85.386 212.882" stroke="#4F2B2B" stroke-width="1.3457" stroke-miterlimit="10" stroke-linecap="round"/>
<path d="M46.4467 183.515C49.6666 163.576 55.8552 141.976 59.6348 133.925L64.1132 136.235L64.8744 149.682L90.3497 149.77L92.1659 154.89L75.3457 160.794L91.661 169.211L87.7534 173.641L86.9981 181.387L83.4282 183.598L82.5042 189.312L75.2819 191.01L46.442 183.508L46.4467 183.515Z" fill="#FFBE97"/>
<path d="M71.3965 168.187L85.8997 175.668" stroke="#4F2B2B" stroke-width="1.3457" stroke-linecap="round" stroke-linejoin="round"/>
<path d="M67.0947 176.527L81.5979 184.009" stroke="#4F2B2B" stroke-width="1.3457" stroke-linecap="round" stroke-linejoin="round"/>
<path d="M235.182 177.214L246.775 193.576C246.775 193.576 296.411 192.363 299.894 189.207C307.037 182.73 312.432 172.388 313.884 169.011C316.679 162.512 321.44 166.253 320.079 172.09C318.606 178.411 317.551 183.242 317.551 183.242C317.551 183.242 336.011 186.981 339.173 187.455C344.616 188.273 343.18 196.464 339.068 196.331C343.163 197.048 343.526 204.117 338.218 204.535C341.642 205.997 341.353 213.221 336.177 213.291C338.844 213.812 340.222 222.683 327.711 220.668C325.339 220.287 320.621 219.834 317.921 216.064C309.963 217.223 302.758 215.817 302.758 215.817C302.758 215.817 283.407 221.554 270.415 225.079C258.196 228.395 236.633 233.413 224.273 224.496C213.686 216.856 202.101 191.154 202.101 191.154C202.101 191.154 196.319 149.4 235.184 177.21L235.182 177.214Z" fill="#FFBE97"/>
<path d="M326.503 193.871L338.761 196.088" stroke="#4F2B2B" stroke-width="1.3457" stroke-linecap="round" stroke-linejoin="round"/>
<path d="M325.178 202.299L337.808 204.583" stroke="#4F2B2B" stroke-width="1.3457" stroke-linecap="round" stroke-linejoin="round"/>
<path d="M323.245 211.291L336.178 213.291" stroke="#4F2B2B" stroke-width="1.3457" stroke-linecap="round" stroke-linejoin="round"/>
<path d="M317.248 183.523C317.248 183.523 317.234 193.226 310.082 198.113" stroke="#4F2B2B" stroke-width="1.3457" stroke-linecap="round" stroke-linejoin="round"/>
<path d="M269.42 253.362C249.633 237.103 218.861 217.149 218.861 217.149L218.885 210.643L151.334 217.613L151.154 223.633C149.514 242.191 177.825 283.624 177.825 283.624L92.9914 299.494C125.58 324.992 116.88 353.585 116.88 353.585L215.098 322.208C206.37 334.043 190.381 360.91 190.381 360.91C190.381 360.91 199.857 359.926 224.59 370.212C249.323 380.498 250.655 389.768 250.655 389.768C250.655 389.768 275.223 329.269 283.773 293.125C288.195 274.428 284.321 265.605 269.423 253.363L269.42 253.362ZM234.375 287.853L229.072 272.163L237.292 279.949L234.375 287.853Z" fill="#BF8888"/>
<path d="M215.382 241.615L227.958 270.164" stroke="#4F2B2B" stroke-width="1.3457" stroke-miterlimit="10" stroke-linecap="round"/>
<path d="M171.032 225.25C171.032 225.25 171.691 242.268 160.037 248.796" stroke="#4F2B2B" stroke-width="1.3457" stroke-miterlimit="10" stroke-linecap="round"/>
<path d="M143.698 140.594C143.698 140.594 166.638 137.115 182.238 140.308C199.552 143.854 214.715 147.863 235.184 177.208L223.772 182.903C223.785 193.607 224.237 205.263 228.314 223.208L150.224 232.43C148.417 215.319 150.545 198.275 154.172 182.427L160.871 181.021C160.871 181.021 151.954 157.588 143.696 140.589L143.698 140.594Z" fill="#F2AE54"/>
<path d="M219.564 133.574L194.096 122.616L186.021 141.382C196.507 143.645 202.027 145.57 211.466 151.996L219.564 133.574Z" fill="#FFBE97"/>
<path d="M228.438 94.0677C216.056 86.7296 200.099 91.1397 193.446 101.968C192.745 103.109 192.155 104.297 191.663 105.517C191.233 105.24 190.764 105.013 190.25 104.859C187.152 103.932 183.808 105.832 182.783 109.106C181.757 112.378 183.436 115.784 186.534 116.711C187.705 117.062 188.91 117.007 190.013 116.629C190.648 123.884 194.54 130.959 201.686 135.531C213.816 143.294 230.718 140.906 237.373 130.077C244.027 119.249 242.821 102.592 228.438 94.0677Z" fill="#FFBE97"/>
<path d="M211.01 130.347C210.844 130.128 210.889 129.814 211.105 129.65C211.324 129.484 211.636 129.526 211.802 129.745C211.973 129.97 215.804 134.891 222.083 132.9C222.343 132.817 222.626 132.961 222.709 133.222C222.791 133.482 222.647 133.765 222.386 133.847C215.432 136.051 211.07 130.426 211.008 130.344L211.01 130.347Z" fill="#4F2B2B"/>
<path d="M188.952 113.471L185.706 112.475C185.184 112.315 184.889 111.761 185.05 111.239C185.21 110.717 185.764 110.422 186.286 110.583L189.532 111.579C190.054 111.738 190.349 112.293 190.188 112.815C190.028 113.337 189.474 113.632 188.952 113.471Z" fill="#4F2B2B"/>
<path d="M203.037 122.259C203.616 121.194 202.48 119.458 200.5 118.382C198.521 117.306 196.446 117.296 195.868 118.361C195.289 119.426 196.424 121.162 198.404 122.238C200.384 123.314 202.458 123.324 203.037 122.259Z" fill="#FF9D6C"/>
<path d="M220.435 124.473C220.292 124.411 220.172 124.299 220.101 124.148C219.603 123.068 219.638 121.634 220.193 120.31C220.808 118.849 221.937 117.761 223.374 117.248C223.713 117.13 224.086 117.304 224.207 117.643C224.328 117.982 224.151 118.354 223.813 118.474C222.343 118.998 221.666 120.166 221.394 120.815C220.983 121.792 220.941 122.86 221.283 123.602C221.435 123.929 221.292 124.315 220.966 124.465C220.791 124.546 220.599 124.543 220.435 124.472L220.435 124.473Z" fill="#4F2B2B"/>
<path d="M208.565 122.873C205.436 121.527 203.985 117.886 205.332 114.757C206.678 111.627 210.32 110.178 213.448 111.524C216.577 112.87 218.028 116.511 216.681 119.64C215.335 122.77 211.693 124.219 208.565 122.873ZM212.934 112.719C210.464 111.656 207.59 112.801 206.527 115.271C205.464 117.741 206.609 120.615 209.079 121.678C211.549 122.741 214.423 121.596 215.486 119.126C216.549 116.656 215.404 113.782 212.934 112.719Z" fill="white"/>
<path d="M211.295 119.237C210.84 119.113 210.571 118.644 210.696 118.188L211.102 116.696C211.227 116.241 211.696 115.973 212.152 116.097C212.607 116.222 212.875 116.691 212.751 117.146L212.344 118.638C212.219 119.093 211.75 119.362 211.295 119.237Z" fill="#4F2B2B"/>
<path d="M229.837 124.457C229.382 124.333 229.113 123.863 229.238 123.408L229.644 121.916C229.769 121.461 230.238 121.192 230.694 121.317C231.149 121.441 231.417 121.911 231.293 122.366L230.886 123.858C230.761 124.313 230.292 124.582 229.837 124.457Z" fill="#4F2B2B"/>
<path d="M227.198 127.762C224.069 126.416 222.618 122.775 223.965 119.645C225.311 116.516 228.952 115.066 232.081 116.412C235.21 117.759 236.661 121.399 235.314 124.529C233.968 127.658 230.326 129.108 227.198 127.762ZM231.567 117.608C229.097 116.545 226.223 117.69 225.16 120.16C224.097 122.63 225.242 125.504 227.712 126.567C230.182 127.63 233.056 126.485 234.119 124.015C235.182 121.544 234.037 118.671 231.567 117.608Z" fill="white"/>
<path d="M216.218 119.072C216.061 119.005 215.932 118.876 215.866 118.703C215.74 118.367 215.908 117.993 216.243 117.866C216.3 117.844 221.888 115.795 224.747 120.599C224.93 120.908 224.827 121.307 224.519 121.49C224.21 121.676 223.811 121.571 223.627 121.265C221.336 117.414 216.89 119.014 216.703 119.084C216.539 119.145 216.366 119.136 216.217 119.072L216.218 119.072Z" fill="white"/>
<path d="M208.715 109.855C208.607 109.809 208.512 109.734 208.44 109.632C208.233 109.339 208.304 108.932 208.598 108.725C210.871 107.124 214.358 107.648 216.055 109.853C216.275 110.137 216.222 110.547 215.936 110.766C215.653 110.985 215.241 110.929 215.024 110.648C213.754 108.999 211.048 108.592 209.346 109.789C209.155 109.925 208.916 109.942 208.715 109.855Z" fill="#4F2B2B"/>
<path d="M228.06 114.782C227.902 114.715 227.771 114.585 227.708 114.411C227.581 114.074 227.753 113.7 228.09 113.573C230.679 112.611 234.277 113.594 236.115 115.763C236.348 116.037 236.313 116.448 236.039 116.679C235.764 116.913 235.353 116.876 235.123 116.604C233.635 114.849 230.625 114.021 228.545 114.794C228.381 114.854 228.209 114.845 228.06 114.781L228.06 114.782Z" fill="#4F2B2B"/>
<path d="M201.791 133.602C207.63 137.107 213.104 139.142 216.559 140.353L215.284 143.317C212.857 142.769 204.491 137.941 201.791 133.602Z" fill="#4F2B2B"/>
<path d="M190.069 95.9481C181.026 101.347 184.754 105.819 190.692 106.785C193.213 109.902 196.347 114.093 199.964 104.619C204.652 92.3389 208.435 102.215 213.951 104.879C218.364 107.009 222.856 106.898 224.511 106.642C227.468 112.56 235.19 108.811 237.198 111.307C239.398 114.04 252.835 111.632 253.697 101.551C254.386 93.4867 245.038 87.5677 240.278 85.6163C240.93 81.9482 239 79.163 237.954 78.2289C231.816 72.5685 221.621 78.266 217.291 81.8222C212.027 73.054 204.779 77.0192 201.813 80.0979C199.8 78.9416 194.493 77.9933 189.364 83.451C184.235 88.9087 187.697 94.0564 190.069 95.9481Z" fill="#4F2B2B"/>
<path d="M223.476 171.897L223.634 182.441" stroke="#4F2B2B" stroke-width="1.3457" stroke-miterlimit="10" stroke-linecap="round"/>
<path d="M161.302 180.774L171.938 178.375" stroke="#4F2B2B" stroke-width="1.3457" stroke-miterlimit="10" stroke-linecap="round"/>
<path d="M325.244 185.483C320.763 185.809 320.23 191.555 323.24 193.063C319.283 193.582 317.858 199.595 322.023 201.726C317.113 202.688 316.356 207.955 321.155 210.519C315.85 210.938 316.251 216.83 320.085 218.245" stroke="#4F2B2B" stroke-width="1.3457" stroke-linecap="round" stroke-linejoin="round"/>
</g>
</svg>
