<svg width="470" height="250" viewBox="0 0 470 250" fill="none" xmlns="http://www.w3.org/2000/svg">
<mask id="mask0_916_8676" style="mask-type:alpha" maskUnits="userSpaceOnUse" x="0" y="0" width="470" height="250">
<path d="M0 20C0 8.9543 8.9543 0 20 0H450C461.046 0 470 8.9543 470 20V250H0V20Z" fill="#F7FDFE"/>
</mask>
<g mask="url(#mask0_916_8676)">
<path d="M269.945 150.418C270.337 141.318 269.842 132.051 266.645 130.045C266.637 130.04 266.633 130.034 266.625 130.029C264.517 128.64 262.433 127.222 260.886 126.16C259.375 125.119 258.378 124.415 258.378 124.415L227.012 121.921C225.721 122.259 224.254 122.992 222.641 123.931C219.369 125.823 215.467 128.567 210.978 130.621C210.976 130.621 210.976 130.621 210.976 130.621L210.978 130.627C206.926 132.966 205.705 139.356 205.576 146.312C205.905 155.694 269.955 159.986 269.945 150.418Z" fill="#B4185C"/>
<path d="M210.977 130.627L210.975 130.622C198.685 136.244 183.413 143.399 172.238 149.249C172.27 149.233 172.295 149.225 172.326 149.209C178.849 145.876 192.037 171.406 185.468 173.333C195.534 170.556 206.855 167.854 206.855 167.854L206.846 168.017C206.847 167.964 206.859 167.913 206.859 167.86C206.859 160.673 202.036 135.79 210.977 130.627V130.627Z" fill="#E95D9A"/>
<path d="M172.327 149.209C172.296 149.226 172.27 149.234 172.239 149.249C165.073 153.001 159.586 156.217 157.666 158.143C151.123 164.685 165.28 179.694 175.432 176.319C178.177 175.403 181.737 174.364 185.469 173.334C192.039 171.407 178.85 145.877 172.327 149.209Z" fill="#FBE4C6"/>
<path d="M296.533 145.873C289.461 141.956 283.567 171.546 289.093 172.176C300.153 173.573 311.856 173.254 313.757 166.168C315.605 159.246 306.641 151.885 296.533 145.874V145.873Z" fill="#FBE4C6"/>
<path d="M296.536 145.873C286.272 139.768 274.829 135.055 272.331 133.613C270.711 132.678 268.657 131.367 266.627 130.029C266.634 130.034 266.639 130.04 266.646 130.045C272.33 133.612 269.477 160.125 268.269 167.854C268.288 167.86 278.39 170.822 289.097 172.174C283.571 171.546 289.465 141.955 296.536 145.872L296.536 145.873Z" fill="#E95D9A"/>
<path d="M239.894 138.689C226.148 138.689 217.404 133.203 222.48 124.415C222.48 124.415 222.538 124.239 222.641 123.931C224.255 122.992 225.722 122.259 227.012 121.922L258.378 124.415C258.378 124.415 259.375 125.119 260.887 126.161C263.894 135.608 253.655 138.689 239.894 138.689Z" fill="#FBE4C6"/>
<path d="M229.598 126.144C234.27 135.323 249.224 142.666 259.637 120.637L229.598 126.144Z" fill="#4F2B2B"/>
<path d="M204.692 209.952L204.184 219.861C204.184 232.551 258.229 240.576 260.166 223.675C260.418 221.471 260.744 218.887 261.117 216.07C259.765 225.872 204.378 216.07 204.692 209.952Z" fill="#FADBE9"/>
<path d="M268.259 167.883C268.26 167.878 268.264 167.854 268.264 167.854H268.265C268.794 164.473 269.637 157.496 269.943 150.418C269.954 159.986 205.903 155.694 205.574 146.312C205.476 151.641 206.016 157.293 206.428 161.724C206.695 162.281 206.858 163.162 206.858 164.492C206.858 172.502 267.016 177.203 268.259 167.883Z" fill="#FADBE9"/>
<path d="M206.86 164.492C206.86 163.162 206.697 162.281 206.429 161.724C206.666 164.274 206.86 166.423 206.86 167.859C206.86 167.912 206.848 167.963 206.847 168.016L206.16 181.388C206.16 186.885 264.064 195.139 265.325 186.885C266.911 176.414 268.214 168.174 268.261 167.883C267.017 177.201 206.86 172.501 206.86 164.492V164.492Z" fill="#B4185C"/>
<path d="M205.445 195.341L204.695 209.951C204.381 216.068 259.767 225.872 261.119 216.069C261.701 211.672 262.401 206.698 263.134 201.651C261.932 209.756 205.445 202.106 205.445 195.341Z" fill="#B4185C"/>
<path d="M206.16 181.389L205.443 195.341C205.443 202.106 261.931 209.757 263.132 201.651C263.861 196.627 264.62 191.541 265.325 186.885C264.065 195.14 206.16 186.885 206.16 181.389H206.16Z" fill="#FADBE9"/>
<path d="M266.666 102.982C265.096 109.481 263.071 116.023 259.155 121.437C255.238 126.851 249.091 131.017 242.401 131.105C235.931 131.164 229.931 127.438 225.427 122.787C225.222 122.567 225.017 122.347 224.811 122.127C212.635 108.704 206.018 76.869 225.236 67.3333C230.928 64.5165 237.428 63.7683 243.779 63.9007C248.782 63.9887 253.858 64.6197 258.479 66.5857C258.758 66.7029 259.022 66.8207 259.286 66.9525C273.369 73.6276 269.79 90.102 266.665 102.983L266.666 102.982Z" fill="#FBE4C6"/>
<path d="M295.393 50.7405C295.393 50.7405 294.659 41.0141 278.903 43.1264C263.147 45.2539 268.781 78.1006 268.781 78.1006C265.128 74.4621 251.03 71.8658 238.061 72.0419C228.07 72.1591 218.754 73.9197 215.336 78.1006C215.336 78.1006 214.896 72.8047 213.444 67.2441C212.167 62.3587 210.114 57.2535 206.857 55.3908C193.389 47.6158 184.309 63.8849 184.309 63.8849C184.309 63.1075 184.352 62.2269 184.456 61.2734C185.145 54.5545 188.519 44.3587 197.424 41.0136C215.587 34.2066 225.239 49.4931 225.723 50.285C225.357 49.3024 214.647 19.8294 233.91 17.1595C237.43 16.6755 240.276 17.3211 242.58 18.7149C253.128 25.0669 252.38 46.9405 252.38 46.9405C252.38 46.9405 253.348 44.4467 255.402 41.2923C259.26 35.3654 266.962 27.1063 279.285 28.7637C285.344 29.5703 289.187 32.1381 291.578 35.2336C291.593 35.2336 291.608 35.2482 291.608 35.2482C296.669 41.7909 295.393 50.7399 295.393 50.7399V50.7405Z" fill="#BF8888"/>
<path d="M225.594 50.0439L227.596 56.0519" stroke="black" stroke-width="1.40278" stroke-linecap="round"/>
<path d="M251.955 48.041L250.889 54.2836" stroke="black" stroke-width="1.40278" stroke-linecap="round"/>
<path d="M242.113 36.0251C242.173 48.3359 242.42 54.152 239.61 58.5551" stroke="black" stroke-width="1.40278" stroke-linecap="round"/>
<path d="M186.306 70.4494C189.199 69.3474 190.651 66.1085 189.549 63.2151C188.447 60.3217 185.209 58.8695 182.315 59.9715C179.422 61.0735 177.97 64.3124 179.072 67.2058C180.173 70.0992 183.412 71.5514 186.306 70.4494Z" fill="#DF8711"/>
<path d="M186.98 60.3108C187.421 61.1117 187.694 62.0176 187.694 62.9963C187.694 66.0924 185.184 68.6024 182.088 68.6024C181.115 68.6024 180.214 68.3321 179.416 67.8962C180.37 69.6288 182.191 70.8168 184.308 70.8168C187.404 70.8168 189.914 68.3068 189.914 65.2107C189.914 63.0878 188.72 61.2626 186.98 60.3114V60.3108Z" fill="#DF8711"/>
<path d="M244.116 61.0582C244.116 63.2704 242.323 65.0633 240.111 65.0633C237.899 65.0633 236.105 63.27 236.105 61.0582C236.105 58.8465 237.899 57.0527 240.111 57.0527C242.323 57.0527 244.116 58.8461 244.116 61.0582Z" fill="#F8D2A0"/>
<path d="M242.157 58.0544C242.452 58.5888 242.634 59.1932 242.634 59.8465C242.634 61.9121 240.958 63.5867 238.891 63.5867C238.242 63.5867 237.64 63.4063 237.107 63.1156C237.744 64.2715 238.96 65.0637 240.374 65.0637C242.441 65.0637 244.117 63.3891 244.117 61.3235C244.117 59.9071 243.319 58.6895 242.158 58.0548L242.157 58.0544Z" fill="#F8D2A0"/>
<path d="M295.059 55.9164C298.152 55.7668 300.538 53.1385 300.388 50.046C300.238 46.9534 297.61 44.5677 294.517 44.7174C291.425 44.867 289.039 47.4953 289.189 50.5878C289.339 53.6803 291.967 56.066 295.059 55.9164Z" fill="#DF8711"/>
<path d="M297.463 45.416C297.903 46.217 298.177 47.1228 298.177 48.1015C298.177 51.1977 295.667 53.7076 292.571 53.7076C291.597 53.7076 290.696 53.4373 289.898 53.0015C290.852 54.7341 292.673 55.922 294.791 55.922C297.887 55.922 300.397 53.412 300.397 50.3159C300.397 48.193 299.202 46.3678 297.463 45.4166V45.416Z" fill="#DF8711"/>
<path d="M231.516 88.8977C231.516 92.0813 228.934 94.6777 225.736 94.6777C224.063 94.6777 222.567 93.9732 221.51 92.829C220.542 91.802 219.955 90.4082 219.955 88.8971C219.955 85.699 222.537 83.1172 225.735 83.1172C226.366 83.1172 226.982 83.2198 227.539 83.4105C229.858 84.1588 231.515 86.33 231.515 88.8971L231.516 88.8977Z" fill="#2B6577"/>
<path d="M257.894 88.8984C257.894 92.2582 255.18 94.9723 251.82 94.9723C250.089 94.9723 248.519 94.2532 247.419 93.0799C246.377 91.9945 245.746 90.5127 245.746 88.899C245.746 85.5393 248.46 82.8105 251.819 82.8105C252.494 82.8105 253.154 82.9278 253.771 83.1482C256.176 83.9553 257.893 86.2292 257.893 88.899L257.894 88.8984Z" fill="#2B6577"/>
<path d="M223.705 84.602C225.022 85.4887 223.913 88.209 223.034 89.0016C222.7 89.3033 222.259 89.5456 221.816 89.466C221.38 89.388 221.047 89.0077 220.899 88.5904C220.578 87.6874 220.728 86.8119 221.197 86.0075C221.47 85.5403 221.754 85.0596 222.19 84.7394C222.625 84.4191 223.257 84.2996 223.706 84.602H223.705Z" fill="#8FC6D7"/>
<path d="M249.838 84.602C251.155 85.4887 250.046 88.209 249.168 89.0016C248.833 89.3033 248.392 89.5456 247.949 89.466C247.514 89.388 247.18 89.0077 247.032 88.5904C246.711 87.6874 246.861 86.8119 247.33 86.0075C247.603 85.5403 247.887 85.0596 248.322 84.7394C248.758 84.4191 249.39 84.2996 249.838 84.602H249.838Z" fill="#8FC6D7"/>
</g>
</svg>
