<svg width="1300" height="400" viewBox="0 0 1300 400" fill="none" xmlns="http://www.w3.org/2000/svg">
<mask id="mask0_736_54187" style="mask-type:alpha" maskUnits="userSpaceOnUse" x="0" y="0" width="1300" height="400">
<path d="M0 20C0 8.95431 8.95431 0 20 0H1280C1291.05 0 1300 8.95431 1300 20V380C1300 391.046 1291.05 400 1280 400H20C8.9543 400 0 391.046 0 380V20Z" fill="#F7FDFE"/>
</mask>
<g mask="url(#mask0_736_54187)">
<path d="M963.438 160.842C962.251 161.313 960.942 160.955 960.143 160.047L904.974 200.286C905.054 200.42 905.127 200.561 905.187 200.709C905.785 202.225 905.043 203.937 903.529 204.537C902.015 205.137 900.302 204.394 899.701 202.88C899.606 202.637 899.547 202.391 899.517 202.143L861.596 203.123C861.521 204.224 860.834 205.237 859.74 205.669C858.226 206.269 856.513 205.525 855.913 204.011C855.649 203.341 855.647 202.632 855.856 201.998L817.685 185.291C817.364 185.87 816.851 186.345 816.189 186.609C815.47 186.892 814.709 186.871 814.042 186.615L770.226 274.797C770.749 275.118 771.177 275.605 771.421 276.218C772.022 277.732 771.278 279.446 769.764 280.046C768.25 280.646 766.536 279.902 765.936 278.388C765.763 277.947 765.705 277.49 765.744 277.049L648.611 255.818C649.012 257.254 648.27 258.79 646.854 259.351C645.34 259.952 643.626 259.208 643.026 257.694C642.971 257.555 642.932 257.417 642.9 257.275L599.532 263.182C599.584 264.403 598.872 265.577 597.673 266.051C597.069 266.29 596.435 266.312 595.85 266.161L577.122 318.257L577.863 318.169L576.939 318.759L576.826 319.073L576.677 318.925L497.595 369.445C497.639 369.532 497.68 369.62 497.717 369.712C498.317 371.226 497.574 372.939 496.06 373.54C494.546 374.14 492.832 373.396 492.232 371.882C491.631 370.368 492.375 368.654 493.889 368.054C494.452 367.831 495.045 367.796 495.595 367.915L508.251 327.681C508.215 327.61 508.181 327.538 508.151 327.461C508 327.084 507.937 326.693 507.945 326.31L436.839 318.126C436.641 319.063 435.996 319.885 435.038 320.263C433.524 320.864 431.811 320.12 431.21 318.606C430.61 317.092 431.354 315.378 432.868 314.778C433.466 314.541 434.099 314.516 434.677 314.666L451.274 267.89C450.612 267.583 450.059 267.034 449.769 266.3C449.379 265.315 449.559 264.25 450.144 263.459L423.819 239.873C423.558 240.116 423.25 240.317 422.899 240.455C421.385 241.055 419.671 240.312 419.071 238.798C418.471 237.284 419.214 235.57 420.728 234.97C421.648 234.607 422.64 234.74 423.412 235.237L447.611 204.414C447.307 204.128 447.059 203.774 446.894 203.358C446.356 201.998 446.9 200.482 448.113 199.75L429.092 164.437C427.585 165.012 425.892 164.271 425.298 162.767C424.697 161.253 425.441 159.54 426.955 158.939C427.219 158.835 427.489 158.773 427.759 158.748L428.495 128.687C427.453 128.564 426.51 127.887 426.097 126.842C425.989 126.571 425.928 126.293 425.905 126.017L380.191 125.819C380.087 126.885 379.407 127.857 378.343 128.276C376.829 128.877 375.115 128.133 374.515 126.619C373.915 125.105 374.658 123.391 376.172 122.791C376.284 122.747 376.395 122.714 376.508 122.683L365.452 56.1713C364.201 56.2624 362.982 55.5417 362.497 54.3149C361.896 52.8009 362.64 51.0872 364.154 50.487C365.668 49.8868 367.382 50.6305 367.982 52.1445C368.154 52.5763 368.211 53.0253 368.177 53.4594L465.433 70.1872C465.698 69.3854 466.302 68.7033 467.148 68.3688C468.662 67.7685 470.375 68.5123 470.975 70.0263C471.576 71.5403 470.832 73.254 469.318 73.8542C469.168 73.9125 469.014 73.9553 468.86 73.9904L471.192 108.622C472.363 108.624 473.473 109.328 473.93 110.484C474.079 110.859 474.144 111.249 474.137 111.628L555.369 123.362C555.586 122.46 556.224 121.675 557.15 121.307C558.664 120.706 560.377 121.45 560.978 122.964C561.578 124.478 560.834 126.192 559.32 126.792C558.972 126.93 558.614 126.993 558.263 126.996L555.096 164.826C556.069 164.999 556.934 165.655 557.323 166.644L557.242 166.385L649.337 137.482C649.039 136.096 649.773 134.659 651.133 134.121C651.834 133.843 652.577 133.857 653.233 134.098L670.575 97.6546C670.033 97.3332 669.588 96.8399 669.341 96.207C668.742 94.6912 669.484 92.9794 670.998 92.3791C672.512 91.7789 674.226 92.5227 674.826 94.0367C675.06 94.6267 675.088 95.248 674.945 95.8209L732.571 115.688C732.876 115.013 733.429 114.453 734.171 114.159C735.685 113.558 737.399 114.302 737.999 115.816C738.249 116.447 738.264 117.11 738.087 117.715L772.853 131.293C773.165 130.667 773.7 130.15 774.401 129.872C775.915 129.272 777.629 130.015 778.229 131.529C778.293 131.689 778.337 131.853 778.372 132.014L846.501 125.639C846.524 124.486 847.226 123.406 848.365 122.955C849.222 122.617 850.144 122.707 850.892 123.126L878.228 84.9395C877.861 84.6339 877.563 84.2343 877.373 83.7595C876.773 82.2455 877.517 80.5318 879.031 79.9316C880.547 79.3334 882.259 80.0752 882.859 81.5892C882.862 81.6009 882.866 81.6125 882.871 81.6223L918.431 75.2833L937.227 71.9325C937.237 70.7653 937.938 69.6647 939.091 69.208C940.605 68.6077 942.319 69.3515 942.919 70.8655C943.384 72.0435 943.039 73.3376 942.152 74.1388L963.401 110.433C963.438 110.417 963.476 110.397 963.517 110.381C965.031 109.781 966.744 110.525 967.345 112.039C967.945 113.553 967.201 115.266 965.687 115.867C965.328 116.008 964.957 116.074 964.593 116.071L962.763 155.179C963.78 155.323 964.692 155.99 965.096 157.014C965.696 158.528 964.952 160.241 963.438 160.842ZM939.571 74.8367C938.634 74.6382 937.812 73.9931 937.433 73.0359C937.361 72.8503 937.31 72.6636 937.274 72.4774L915.961 76.2759L883.019 82.1476C883.07 82.4307 883.078 82.7142 883.047 82.9924L935.08 101.857L939.569 74.8385L939.571 74.8367ZM733.441 119.225L714.333 139.516L741.35 168.157C741.568 167.988 741.812 167.842 742.081 167.736C742.208 167.684 742.339 167.649 742.469 167.617L735.414 119.847C734.697 119.885 733.996 119.66 733.441 119.225ZM673.896 97.443C673.678 97.6127 673.434 97.7583 673.165 97.8645C673.006 97.9264 672.851 97.971 672.692 98.004L681.245 171.231C681.929 171.215 682.596 171.438 683.128 171.854L713.585 139.513L673.898 97.4412L673.896 97.443ZM456.781 269.296L471.843 237.893L454.409 262.959C454.77 263.263 455.063 263.66 455.252 264.131C455.672 265.192 455.431 266.347 454.733 267.151L456.781 269.296ZM436.694 316.437C436.843 316.816 436.908 317.206 436.9 317.589L508.006 325.769C508.11 325.277 508.338 324.819 508.669 324.439L456.933 270.245L435.467 314.998C436.005 315.319 436.446 315.812 436.696 316.439L436.694 316.437ZM766.638 275.169C766.881 274.938 767.165 274.748 767.486 274.605L752.044 228.405C750.643 228.736 749.174 227.999 748.629 226.619L720.321 234.871L766.638 275.169ZM962.48 115.179C962.438 115.133 962.393 115.085 962.354 115.035L930.585 143.146C930.73 143.345 930.854 143.561 930.949 143.8C931.199 144.427 931.213 145.088 931.041 145.691L939.051 148.791L962.48 115.179ZM872.887 180.305L862.1 187.147C862.143 187.229 862.183 187.315 862.218 187.405C862.439 187.966 862.477 188.553 862.361 189.1L871.431 191.907L924.82 147.356L872.887 180.305ZM861.81 186.688L899.529 162.758L925.582 146.229C925.539 146.146 925.499 146.06 925.464 145.97C925.266 145.47 925.216 144.95 925.292 144.452L871.06 131.203L860.312 185.66C860.899 185.835 861.426 186.189 861.81 186.684L861.81 186.688ZM930.844 146.199C930.532 146.829 929.997 147.35 929.292 147.628C928.61 147.899 927.888 147.895 927.244 147.672L903.908 199.214L938.731 149.25L930.843 146.197L930.844 146.199ZM901.357 199.054C902.039 198.783 902.761 198.787 903.404 199.01L926.749 147.448C926.525 147.319 926.314 147.162 926.128 146.978L872.055 192.101L899.721 200.669C900.017 199.957 900.585 199.36 901.359 199.056L901.357 199.054ZM899.556 201.187L871.555 192.515L861.081 201.254C861.204 201.433 861.313 201.63 861.396 201.839C861.492 202.081 861.551 202.328 861.58 202.575L899.502 201.595C899.51 201.457 899.527 201.319 899.556 201.183L899.556 201.187ZM859.092 200.011C859.709 200.106 860.287 200.39 860.732 200.835L870.933 192.323L862.2 189.618C861.904 190.33 861.336 190.927 860.562 191.231C860.242 191.359 859.91 191.422 859.582 191.434L859.092 200.011ZM856.883 187.086L825.765 166.312L816.826 181.476C817.268 181.793 817.628 182.236 817.846 182.781C817.991 183.148 818.055 183.528 818.052 183.9L856.584 187.915C856.643 187.626 856.743 187.347 856.883 187.086ZM777.216 134.998C777.02 135.14 776.804 135.263 776.568 135.357C776.105 135.539 775.627 135.598 775.166 135.547L765.046 174.273L812.265 183.06C812.412 182.543 812.696 182.073 813.094 181.702L777.214 134.996L777.216 134.998ZM552.905 170.157L533.862 195.111C534.204 195.41 534.486 195.792 534.663 196.245C534.749 196.466 534.805 196.689 534.838 196.916L546.176 197.62L553.373 170.42C553.208 170.347 553.051 170.259 552.901 170.157L552.905 170.157ZM431.702 125.075C431.922 125.994 431.683 126.943 431.103 127.643L444.958 141.526L468.984 113.525C468.762 113.275 468.576 112.983 468.445 112.655L431.704 125.077L431.702 125.075ZM469.38 113.897L445.341 141.913L488.445 185.103C488.679 184.91 488.945 184.748 489.242 184.631C489.275 184.619 489.31 184.609 489.343 184.596L471.594 114.487C470.796 114.598 470.001 114.375 469.382 113.899L469.38 113.897ZM750.282 222.791C750.409 222.74 750.536 222.704 750.666 222.672L743.328 173.42C742.49 173.468 741.67 173.152 741.08 172.564L712.758 196.122L749.187 223.553C749.481 223.23 749.849 222.965 750.282 222.791ZM740.733 172.143C740.61 171.963 740.505 171.771 740.42 171.56C740.333 171.343 740.279 171.121 740.246 170.899L684.234 173.834C684.265 174.103 684.26 174.369 684.218 174.627L712.31 195.781L740.731 172.141L740.733 172.143ZM684.071 175.2C683.937 175.556 683.739 175.886 683.481 176.168L692.091 206.087L692.925 208.985C693.875 208.802 694.839 209.102 695.522 209.753L711.885 196.144L684.075 175.204L684.071 175.2ZM692.393 209.138C692.393 209.138 692.395 209.136 692.397 209.134L691.568 206.248L683.025 176.566C682.834 176.704 682.622 176.824 682.391 176.916C682.01 177.066 681.617 177.132 681.234 177.124L670.891 200.492L690.981 210.31C691.303 209.797 691.784 209.374 692.391 209.136L692.393 209.138ZM748.859 223.988L712.328 196.479L695.875 210.165C696.013 210.356 696.131 210.567 696.221 210.795C696.409 211.272 696.465 211.767 696.406 212.243L748.572 224.595C748.643 224.383 748.741 224.181 748.859 223.988ZM647.715 254.398L691.119 213.643C690.966 213.44 690.835 213.212 690.736 212.965C690.449 212.239 690.472 211.469 690.738 210.796L670.673 200.993L647.198 254.031C647.383 254.134 647.554 254.257 647.713 254.399L647.715 254.398ZM670.184 200.752L646.838 189.343C646.518 189.81 646.061 190.187 645.495 190.41C645.274 190.496 645.049 190.554 644.824 190.585L645.527 228.887L645.981 253.665C646.229 253.683 646.47 253.73 646.701 253.809L670.184 200.752ZM512.391 323.835L528.035 301.733L537.704 288.071C537.35 287.768 537.063 287.38 536.879 286.915C536.518 286.005 536.647 285.025 537.132 284.256L525.566 275.35L511.993 323.637C512.132 323.693 512.264 323.76 512.393 323.833L512.391 323.835ZM569.545 201.804L537.809 236.554C538.041 236.81 538.239 237.11 538.371 237.452C538.603 238.04 538.632 238.657 538.492 239.23L554.088 245.614L570.052 202.112C569.872 202.027 569.7 201.923 569.541 201.804L569.545 201.804ZM538.318 239.746C538.013 240.422 537.46 240.986 536.714 241.28C536.526 241.354 536.338 241.407 536.146 241.441L539.644 282.881C539.892 282.884 540.138 282.92 540.374 282.982L553.901 246.124L538.316 239.744L538.318 239.746ZM537.463 283.824C537.753 283.513 538.113 283.256 538.537 283.087C538.722 283.015 538.913 282.96 539.101 282.926L537.845 268.125L535.585 241.487C535.42 241.485 535.257 241.466 535.096 241.437L525.722 274.787L537.463 283.828L537.463 283.824ZM534.573 241.288C533.83 241.002 533.203 240.421 532.886 239.622C532.759 239.298 532.695 238.966 532.683 238.638L476.465 235.392C476.403 235.797 476.258 236.181 476.04 236.526L525.257 274.424L534.571 241.286L534.573 241.288ZM476.295 233.868C476.422 234.192 476.486 234.524 476.498 234.852L532.716 238.098C532.804 237.51 533.071 236.959 533.48 236.522L511.001 211.135L476.168 233.592C476.215 233.682 476.256 233.774 476.293 233.87L476.295 233.868ZM533.887 236.161C534.087 236.015 534.305 235.89 534.543 235.794C534.616 235.764 534.69 235.744 534.762 235.721L532.043 200.271C531.099 200.309 530.185 199.892 529.599 199.147L511.464 210.838L533.887 236.161ZM533.003 200.071C532.865 200.126 532.723 200.165 532.583 200.199L535.299 235.611C535.576 235.58 535.849 235.59 536.117 235.634L546.036 198.157L534.867 197.462C534.816 198.585 534.121 199.632 533.007 200.071L533.003 200.071ZM536.642 235.773C536.867 235.854 537.083 235.962 537.282 236.096L569.136 201.429C568.906 201.174 568.714 200.877 568.579 200.537C568.45 200.211 568.387 199.875 568.377 199.542L546.589 198.187L536.644 235.771L536.642 235.773ZM641.669 188.754C641.653 188.713 641.641 188.672 641.627 188.629L601.756 194.924L574.269 199.264C574.308 199.889 574.144 200.504 573.818 201.024L615.5 233.027L642.771 190.12C642.289 189.799 641.897 189.334 641.669 188.754ZM572.15 202.286C571.618 202.442 571.075 202.439 570.57 202.304L554.597 245.825L593.967 261.941C594.244 261.412 594.681 260.963 595.246 260.674L572.15 202.286ZM593.759 262.445L554.408 246.336L540.888 283.173C541.462 283.446 541.949 283.9 542.252 284.5L593.748 264.13C593.581 263.563 593.594 262.978 593.759 262.445ZM540.707 288.577C539.836 288.92 538.901 288.82 538.147 288.387L531.099 298.348L512.834 324.155C512.924 324.235 513.011 324.321 513.093 324.413L552.671 295.283L542.519 285.282C542.78 286.647 542.047 288.045 540.707 288.577ZM510.089 323.532C510.552 323.401 511.023 323.391 511.471 323.48L525.101 274.991L475.711 236.959C475.487 237.202 475.222 237.408 474.917 237.569L510.089 323.532ZM475.873 233.137L510.64 210.724L492.069 189.751C491.869 189.896 491.651 190.021 491.412 190.117C490.815 190.354 490.186 190.378 489.609 190.231L474.786 232.278C475.205 232.472 475.58 232.762 475.873 233.137ZM492.476 189.389L511.101 210.424L529.302 198.69C529.256 198.599 529.214 198.507 529.177 198.412C528.981 197.917 528.931 197.401 529.003 196.907L493.119 188.317C492.985 188.713 492.766 189.078 492.476 189.385L492.476 189.389ZM553.893 170.595L546.731 197.653L568.412 199C568.538 198.193 568.993 197.459 569.695 196.995L555.492 170.529C554.959 170.703 554.407 170.718 553.895 170.597L553.893 170.595ZM555.993 170.312L570.176 196.74C570.198 196.731 570.217 196.72 570.239 196.711C571.753 196.111 573.467 196.855 574.067 198.369C574.113 198.486 574.151 198.607 574.181 198.727L635.664 189.018L641.497 188.099C641.468 187.899 641.459 187.699 641.47 187.503L557.336 168.765C557.092 169.41 556.629 169.968 555.993 170.315L555.993 170.312ZM647.106 188.867L670.406 200.251L680.675 177.052C679.796 176.856 679.025 176.261 678.628 175.388L647.313 187.133C647.423 187.73 647.342 188.33 647.106 188.863L647.106 188.867ZM744.252 173.218C744.125 173.269 743.998 173.305 743.868 173.337L751.207 222.589C751.423 222.577 751.638 222.588 751.847 222.624L764.371 174.698L745.999 171.279C745.756 172.131 745.137 172.865 744.248 173.217L744.252 173.218ZM812.359 184.945C812.182 184.5 812.127 184.038 812.167 183.59L764.911 174.794L752.376 222.76C752.882 222.944 753.337 223.264 753.68 223.696L812.495 185.239C812.444 185.145 812.398 185.047 812.359 184.945ZM748.476 226.092C748.414 225.766 748.406 225.438 748.452 225.12L696.295 212.77C696.202 213.066 696.059 213.344 695.877 213.6L719.833 234.443L748.478 226.094L748.476 226.092ZM695.518 214.009C695.25 214.266 694.931 214.474 694.566 214.621C693.478 215.051 692.29 214.788 691.484 214.047L648.088 254.794C648.202 254.941 648.305 255.098 648.391 255.271L719.209 234.627L695.515 214.015L695.518 214.009ZM644.678 253.86C644.928 253.761 645.182 253.702 645.436 253.675L644.28 190.612C643.922 190.596 643.573 190.516 643.25 190.377L615.932 233.358L643.6 254.601C643.891 254.285 644.252 254.03 644.678 253.86ZM615.207 233.487L573.487 201.456C573.255 201.706 572.979 201.922 572.658 202.084L595.754 260.472C596.5 260.254 597.271 260.346 597.926 260.681L615.208 233.489L615.207 233.487ZM593.95 264.634L542.856 284.845L553.118 294.951L594.057 264.821C594.019 264.76 593.984 264.699 593.95 264.634ZM513.415 324.85C513.499 324.988 513.573 325.131 513.635 325.285C513.697 325.44 513.739 325.597 513.774 325.754L576.114 318.37L553.066 295.666L513.417 324.848L513.415 324.85ZM509.06 324.056C509.186 323.957 509.325 323.865 509.47 323.785L509.528 323.597L474.413 237.771C473.776 237.967 473.119 237.932 472.529 237.715L457.181 269.712L509.056 324.056L509.06 324.056ZM424.178 239.463L450.503 263.05C450.764 262.807 451.071 262.606 451.423 262.468C451.647 262.377 451.877 262.324 452.107 262.291L450.964 236.428L424.759 237.823C424.736 238.418 424.532 238.988 424.18 239.462L424.178 239.463ZM452.651 262.268C453.115 262.29 453.565 262.421 453.961 262.647L471.653 237.21C471.292 236.907 470.999 236.509 470.809 236.039C470.723 235.822 470.669 235.6 470.636 235.381L451.507 236.399L452.651 262.268ZM470.607 234.839C470.639 234.035 470.998 233.275 471.607 232.741L451.252 204.737C451.088 204.845 450.908 204.939 450.718 205.015C450.523 205.093 450.323 205.146 450.123 205.18L451.479 235.859L470.605 234.841L470.607 234.839ZM451.678 204.396L469.288 228.626L452.532 201.727C452.718 202.712 452.384 203.715 451.678 204.396ZM472.23 232.32C472.307 232.282 472.385 232.246 472.465 232.212C473.063 231.975 473.692 231.951 474.268 232.098L489.091 190.051C488.426 189.745 487.871 189.194 487.581 188.459C487.324 187.813 487.315 187.128 487.506 186.511L430.598 163.141C430.386 163.513 430.09 163.842 429.728 164.097L472.23 232.324L472.23 232.32ZM487.714 186.008C487.811 185.824 487.923 185.649 488.058 185.486L444.986 142.327L430.145 159.621C430.411 159.894 430.629 160.22 430.777 160.599C431.048 161.28 431.042 162.001 430.821 162.642L487.713 186.006L487.714 186.008ZM429.729 159.271L444.598 141.943L430.712 128.03C430.478 128.223 430.213 128.385 429.916 128.502C429.625 128.617 429.328 128.681 429.03 128.702L428.297 158.749C428.813 158.796 429.306 158.977 429.727 159.273L429.729 159.271ZM427.747 123.014C429.224 122.43 430.886 123.122 431.523 124.56L468.114 112.188L380.798 125.276L425.895 125.471C425.999 124.406 426.679 123.433 427.743 123.014L427.747 123.014ZM379.991 124.45C380.04 124.575 380.078 124.704 380.108 124.832L468.234 111.622C468.226 111.179 468.319 110.743 468.5 110.347L434.439 91.6105L379.903 124.264C379.931 124.327 379.962 124.387 379.989 124.452L379.991 124.45ZM472.269 114.312C472.22 114.332 472.169 114.345 472.121 114.361L489.868 184.461C490.75 184.32 491.636 184.596 492.286 185.173L510.768 167.938L472.655 114.123C472.531 114.194 472.405 114.259 472.269 114.312ZM492.658 185.571C492.824 185.785 492.964 186.023 493.068 186.291C493.265 186.785 493.314 187.301 493.243 187.796L529.127 196.385C529.294 195.89 529.595 195.442 529.998 195.096L511.086 168.391L492.658 185.575L492.658 185.571ZM530.447 194.778C530.57 194.707 530.698 194.641 530.835 194.588C531.438 194.349 532.073 194.326 532.655 194.476L556.986 126.72C556.728 126.599 556.489 126.443 556.272 126.25L511.49 168.01L530.449 194.776L530.447 194.778ZM557.497 126.906L533.169 194.659C533.254 194.699 533.34 194.742 533.421 194.793L552.487 169.81C552.212 169.534 551.988 169.199 551.836 168.816C551.238 167.3 551.98 165.588 553.494 164.988C553.841 164.85 554.2 164.787 554.551 164.784L557.715 126.956C557.641 126.943 557.568 126.925 557.495 126.907L557.497 126.906ZM557.48 168.24L641.55 186.966C641.77 186.072 642.406 185.293 643.328 184.928C643.742 184.765 644.172 184.703 644.591 184.729L651.503 139.725C650.63 139.507 649.872 138.893 649.5 138.004L557.411 166.905C557.541 167.352 557.56 167.808 557.482 168.242L557.48 168.24ZM653.299 139.606C652.885 139.769 652.455 139.831 652.038 139.807L645.278 183.821L657.251 143.769L653.805 139.35C653.649 139.451 653.479 139.539 653.299 139.61L653.299 139.606ZM645.515 184.937C646.238 185.23 646.846 185.802 647.156 186.586C647.16 186.594 647.161 186.603 647.167 186.613L678.451 174.879C678.193 173.831 678.533 172.747 679.294 172.03L657.665 144.292L645.517 184.935L645.515 184.937ZM679.722 171.694C679.878 171.594 680.048 171.505 680.228 171.435C680.384 171.374 680.542 171.328 680.701 171.295L672.148 98.0678C671.928 98.0717 671.711 98.0545 671.497 98.0123L657.855 143.653L679.722 171.694ZM683.522 172.228C683.742 172.476 683.925 172.764 684.056 173.092C684.083 173.16 684.103 173.231 684.126 173.299L740.221 170.36C740.248 169.683 740.51 169.037 740.953 168.531L713.957 139.912L683.522 172.228ZM745.284 168.424C745.546 168.693 745.762 169.02 745.909 169.393C746.086 169.839 746.141 170.301 746.101 170.749L764.508 174.175L774.633 135.438C774.358 135.355 774.098 135.232 773.859 135.076L745.284 168.428L745.284 168.424ZM777.627 134.637L813.53 181.37C813.682 181.273 813.844 181.188 814.016 181.121C814.805 180.81 815.645 180.864 816.356 181.199L825.311 166.009L777.875 134.339C777.798 134.444 777.715 134.544 777.625 134.639L777.627 134.637ZM826.044 165.84L857.186 186.632C857.496 186.25 857.902 185.938 858.392 185.746C858.509 185.7 858.626 185.665 858.745 185.633L851.465 140.105L849.632 128.638C849.115 128.67 848.604 128.562 848.152 128.34L826.046 165.838L826.044 165.84ZM850.535 128.44C850.416 128.488 850.293 128.524 850.169 128.555L859.281 185.546C859.449 185.534 859.613 185.538 859.778 185.555L870.531 131.075L852.254 126.611C851.991 127.418 851.385 128.106 850.535 128.44ZM871.166 130.669L925.422 143.925C925.58 143.468 925.849 143.053 926.211 142.719L882.048 84.8995C881.803 85.1125 881.522 85.2895 881.203 85.4152C880.828 85.5639 880.439 85.6293 880.059 85.6218L871.169 130.669L871.166 130.669ZM882.936 83.5318C882.827 83.8825 882.655 84.2137 882.426 84.5024L926.641 142.389C926.791 142.294 926.951 142.211 927.121 142.146C927.549 141.978 927.989 141.918 928.419 141.949L934.988 102.405L882.934 83.5337L882.936 83.5318ZM928.957 142.035C929.431 142.159 929.866 142.398 930.226 142.736L962.041 114.587C961.972 114.465 961.909 114.342 961.855 114.209C961.581 113.515 961.589 112.782 961.824 112.131L935.511 102.591L928.957 142.035ZM962.9 115.532L939.578 148.993L959.715 156.785C960.028 156.155 960.563 155.634 961.268 155.356C961.581 155.232 961.901 155.168 962.219 155.154L964.05 116.019C963.637 115.939 963.246 115.776 962.9 115.532ZM959.823 159.608C959.743 159.474 959.671 159.333 959.611 159.184C959.361 158.557 959.347 157.896 959.519 157.293L939.258 149.451L904.347 199.541C904.456 199.634 904.56 199.738 904.654 199.847L959.823 159.608ZM856.074 201.497C856.394 200.918 856.908 200.443 857.57 200.179C857.891 200.052 858.222 199.988 858.55 199.977L859.04 191.399C858.036 191.249 857.137 190.584 856.737 189.572C856.591 189.204 856.528 188.825 856.531 188.453L817.998 184.437C817.975 184.556 817.944 184.674 817.907 184.79L856.077 201.497L856.074 201.497ZM813.556 186.368C813.269 186.193 813.011 185.968 812.795 185.696L753.98 224.154C754.031 224.248 754.077 224.346 754.116 224.447C754.702 225.926 754.004 227.593 752.56 228.229L768.003 274.428C768.595 274.289 769.196 274.339 769.738 274.549L813.554 186.366L813.556 186.368ZM765.838 276.507C765.93 276.175 766.082 275.858 766.285 275.576L719.702 235.049L649.697 255.457L765.84 276.509L765.838 276.507ZM642.823 256.729C642.796 256.125 642.959 255.534 643.273 255.032L615.644 233.82L598.388 260.973C598.793 261.287 599.125 261.707 599.327 262.219C599.381 262.358 599.421 262.496 599.453 262.638L642.821 256.731L642.823 256.729ZM595.335 265.971C594.977 265.803 594.652 265.562 594.383 265.262L553.515 295.341L576.602 318.083L595.337 265.973L595.335 265.971ZM496.116 368.074C496.575 368.267 496.988 368.578 497.301 368.982L575.563 318.985L513.838 326.294C513.868 327.495 513.159 328.644 511.977 329.113C510.764 329.593 509.429 329.211 508.633 328.266L496.112 368.074L496.116 368.074ZM435.922 312.787L456.531 269.819L454.342 267.527C454.122 267.702 453.872 267.849 453.597 267.957C452.999 268.194 452.366 268.219 451.786 268.071L435.92 312.788L435.922 312.787ZM423.842 235.57C424.146 235.856 424.395 236.211 424.558 236.625C424.645 236.842 424.697 237.062 424.732 237.283L450.943 235.886L449.586 205.219C449.034 205.209 448.5 205.04 448.04 204.747L423.842 235.57ZM448.605 199.511C449.579 199.146 450.628 199.329 451.407 199.913L432.294 169.232L448.603 199.509L448.605 199.511ZM377.043 122.59C378.051 122.518 379.033 122.972 379.634 123.792L433.896 91.3045L367.684 54.8833C367.363 55.3576 366.901 55.744 366.328 55.9726C366.217 56.0169 366.104 56.0514 365.993 56.0803L377.044 122.592L377.043 122.59ZM368.085 53.9957C368.047 54.135 368.002 54.274 367.943 54.4068L434.434 90.9784L465.558 72.3416C465.535 72.2926 465.512 72.2436 465.49 72.1928C465.297 71.7064 465.245 71.1998 465.311 70.7147L368.085 53.9957ZM468.323 74.0564C467.345 74.0858 466.405 73.6254 465.833 72.8155L434.989 91.283L468.781 109.869C469.101 109.414 469.551 109.043 470.106 108.823C470.286 108.752 470.469 108.701 470.653 108.667L468.323 74.0564ZM474.077 112.167C473.946 112.801 473.607 113.38 473.107 113.806L511.178 167.56L555.906 125.85C555.741 125.636 555.6 125.398 555.496 125.131C555.337 124.724 555.275 124.306 555.295 123.896L474.079 112.166L474.077 112.167ZM654.963 135.777C655.419 136.933 655.094 138.205 654.239 139.009L657.447 143.124L670.806 98.4332L653.726 134.331C654.268 134.652 654.713 135.146 654.962 135.78L654.963 135.777ZM674.767 96.3329C674.646 96.5985 674.487 96.8472 674.293 97.0658L713.959 139.116L733.046 118.849C732.825 118.6 732.641 118.311 732.512 117.985C732.278 117.395 732.25 116.773 732.393 116.2L674.767 96.3329ZM737.89 118.222C737.577 118.849 737.043 119.366 736.342 119.644C736.214 119.696 736.084 119.731 735.954 119.763L743.009 167.533C743.679 167.497 744.333 167.691 744.873 168.07L773.438 134.731C773.145 134.45 772.903 134.102 772.746 133.698C772.496 133.067 772.481 132.404 772.658 131.799L737.892 118.221L737.89 118.222ZM778.434 132.556C778.443 133.013 778.345 133.462 778.153 133.867L825.59 165.537L847.684 128.058C847.259 127.742 846.912 127.31 846.705 126.781C846.628 126.582 846.573 126.383 846.54 126.18L778.43 132.552L778.434 132.556ZM851.342 123.433C851.709 123.738 852.007 124.138 852.197 124.613C852.388 125.097 852.442 125.598 852.377 126.079L870.638 130.539L879.515 85.5566C879.222 85.4944 878.939 85.3901 878.68 85.2442L851.342 123.433ZM941.712 74.4665C941.571 74.5539 941.422 74.6296 941.261 74.6934C940.884 74.844 940.495 74.9094 940.112 74.9018L935.602 102.045L962.055 111.636C962.268 111.27 962.563 110.947 962.924 110.699L941.71 74.4683L941.712 74.4665Z" fill="#4F2B2B"/>
<path d="M644.66 331.406H598L605.031 389.572H638.269L644.66 331.406Z" fill="#DF8711"/>
<path d="M599.341 299.725L606.309 330.766V331.405H612.062L605.101 299.13C605.055 298.918 604.956 298.721 604.813 298.558L602.219 295.593C601.529 294.805 600.236 295.135 600.009 296.158L599.34 299.167C599.3 299.351 599.3 299.541 599.341 299.725Z" fill="#8FC6D7"/>
<path d="M616.247 287.844L617.091 330.203L616.894 331.888L622.658 331.888L622.062 287.892C622.06 287.713 622.02 287.536 621.945 287.374L620.005 283.168C619.516 282.11 617.982 282.203 617.626 283.313L616.307 287.429C616.264 287.563 616.244 287.703 616.247 287.844Z" fill="#BF8888"/>
<path d="M642.489 297.635L635.511 331.351V332.045H629.759L636.728 296.992C636.769 296.789 636.857 296.6 636.987 296.439L639.561 293.248C640.24 292.407 641.591 292.735 641.808 293.794L642.489 297.119C642.524 297.289 642.524 297.465 642.489 297.635Z" fill="#FADBE9"/>
<path d="M634.028 300.722L632.02 331.31L631.676 331.408L625.923 331.408L627.855 301.25C627.869 301.024 627.944 300.805 628.071 300.617L630.43 297.121C630.991 296.291 632.244 296.398 632.656 297.311L633.918 300.113C634.004 300.304 634.042 300.513 634.028 300.722Z" fill="#FBE4C6"/>
<path d="M604.392 339.717H638.269" stroke="#4F2B2B" stroke-width="3" stroke-linecap="round"/>
<path d="M911.461 183.092H868.047V214.588H911.461V183.092Z" fill="#FFBE97"/>
<path d="M878.898 196.243C894.175 198.365 903.25 190.149 911.517 189.561V193.69C907.388 197.934 888.395 203.033 878.898 196.243Z" fill="#4F2B2B"/>
<path d="M1018.16 271.076C1015 247.442 998.182 227.902 975.285 221.248L911.66 205.318L891.413 214.163L867.792 205.318L827.039 214.163L802.661 221.248C779.763 227.902 762.948 247.442 759.781 271.076L744.448 385.523H1033.5L1018.16 271.076Z" fill="#77DFF9"/>
<path d="M870.659 84.5351C870.659 84.5351 882.171 74.1987 912.842 84.7356C953.443 98.6846 943.941 147.502 943.941 147.502L839.846 166.93C839.846 166.93 816.953 126.081 837.686 99.6806C851.633 81.9187 870.659 84.5351 870.659 84.5351Z" fill="#4F2B2B"/>
<path d="M886.903 147.622C895.26 144.448 904.829 145.982 912.896 149.83C920.963 153.678 927.801 159.644 934.437 165.633C941.072 171.622 947.699 177.77 955.523 182.094C959.915 184.52 965.533 186.283 969.765 183.584C969.765 183.584 951.847 197.404 925.485 191.198C899.122 184.992 881.763 155.702 881.763 155.702" fill="#4F2B2B"/>
<path d="M924.086 192.447C897.984 185.674 881.143 157.694 880.431 156.49C879.995 155.755 880.236 154.805 880.971 154.369C881.707 153.941 882.659 154.183 883.091 154.914C883.26 155.195 900.011 183.002 924.884 189.456C925.203 189.539 925.517 189.618 925.838 189.691C941.78 193.443 954.634 189.603 962.003 186.218C959.384 185.705 956.864 184.608 954.771 183.448C947.206 179.267 940.721 173.403 934.451 167.732L933.396 166.782C926.381 160.452 919.944 154.91 912.226 151.228C903.652 147.133 894.616 146.347 887.451 149.072C886.654 149.369 885.76 148.973 885.454 148.173C885.15 147.377 885.551 146.482 886.35 146.175C894.303 143.159 904.219 143.984 913.559 148.432C921.642 152.287 928.535 158.224 935.468 164.482L936.525 165.436C942.664 170.989 949.014 176.73 956.265 180.737C959.284 182.404 964.938 184.822 968.927 182.277C969.626 181.834 970.551 182.014 971.024 182.693C971.5 183.371 971.359 184.303 970.704 184.808C969.949 185.39 951.895 199.005 925.124 192.704C924.775 192.623 924.428 192.535 924.083 192.446L924.086 192.447Z" fill="#4F2B2B"/>
<path d="M892.553 147.622C884.197 144.448 874.628 145.982 866.561 149.83C858.494 153.678 851.656 159.644 845.02 165.633C838.385 171.622 831.757 177.77 823.934 182.094C819.541 184.52 813.924 186.283 809.692 183.584C809.692 183.584 827.61 197.404 853.972 191.198C880.335 184.992 897.694 155.702 897.694 155.702" fill="#4F2B2B"/>
<path d="M855.371 192.447C881.473 185.674 898.314 157.694 899.026 156.49C899.462 155.755 899.221 154.805 898.486 154.369C897.75 153.941 896.798 154.183 896.366 154.914C896.197 155.195 879.446 183.002 854.573 189.456C854.254 189.539 853.94 189.618 853.619 189.691C837.677 193.443 824.823 189.603 817.454 186.218C820.073 185.705 822.593 184.608 824.686 183.448C832.251 179.267 838.736 173.403 845.006 167.732L846.061 166.782C853.076 160.452 859.513 154.91 867.231 151.228C875.805 147.133 884.841 146.347 892.005 149.072C892.802 149.369 893.697 148.973 894.003 148.173C894.307 147.377 893.906 146.482 893.107 146.175C885.154 143.159 875.238 143.984 865.898 148.432C857.815 152.287 850.922 158.224 843.989 164.482L842.932 165.436C836.793 170.989 830.443 176.73 823.192 180.737C820.173 182.404 814.519 184.822 810.53 182.277C809.831 181.834 808.906 182.014 808.433 182.693C807.957 183.371 808.098 184.303 808.753 184.808C809.508 185.39 827.562 199.005 854.333 192.704C854.682 192.623 855.029 192.535 855.373 192.446L855.371 192.447Z" fill="#4F2B2B"/>
<path d="M944.439 147.917C943.536 146.179 942.289 144.723 940.809 143.672C939.037 142.413 936.935 141.738 934.709 141.866C933.996 141.909 933.314 142.058 932.652 142.255C932.551 142.284 932.447 142.303 932.348 142.335C929.638 121.223 915.682 100.952 891.075 97.435C864.819 93.684 841.062 114.717 837.69 140.255C837.64 140.643 837.607 141.031 837.562 141.417C837.501 141.417 837.438 141.406 837.377 141.406C831.095 141.406 826 147.377 826 154.744C826 162.111 831.093 168.081 837.377 168.081C838.714 168.081 839.994 167.796 841.185 167.298C841.188 167.305 841.19 167.311 841.194 167.317C842.288 169.986 843.6 172.547 845.113 174.975C845.16 175.051 845.207 175.127 845.254 175.201C845.743 175.975 846.249 176.735 846.778 177.479C846.787 177.492 846.798 177.507 846.807 177.522C847.904 179.062 849.09 180.534 850.359 181.933C850.44 182.024 850.525 182.11 850.606 182.199C851.144 182.781 851.694 183.353 852.261 183.908C852.384 184.028 852.502 184.146 852.627 184.264C853.231 184.846 853.85 185.414 854.487 185.962C854.54 186.009 854.592 186.057 854.644 186.104C855.358 186.713 856.093 187.304 856.845 187.872C856.904 187.918 856.969 187.958 857.027 188.002C857.683 188.49 858.351 188.96 859.037 189.414C859.233 189.545 859.433 189.671 859.631 189.798C860.21 190.169 860.797 190.528 861.394 190.874C861.606 190.998 861.817 191.123 862.031 191.243C862.74 191.637 863.46 192.015 864.194 192.374C864.282 192.418 864.369 192.464 864.457 192.509C865.285 192.905 866.129 193.274 866.989 193.625C867.203 193.711 867.421 193.787 867.637 193.871C868.283 194.123 868.934 194.361 869.597 194.582C869.886 194.679 870.176 194.772 870.468 194.863C871.103 195.061 871.747 195.247 872.399 195.418C872.672 195.492 872.946 195.57 873.223 195.637C874.142 195.863 875.069 196.07 876.016 196.241C899.243 200.456 922.992 186.692 930.368 165.661C930.514 165.75 930.672 165.815 930.822 165.895C932.328 166.708 933.993 167.172 935.765 167.07C941.702 166.729 946.278 160.807 945.987 153.847C945.895 151.672 945.339 149.653 944.436 147.915L944.439 147.917Z" fill="#FFBE97"/>
<path d="M902.001 152.375C901.959 154.266 902.905 155.819 904.109 155.845C905.313 155.872 906.322 154.361 906.359 152.47C906.401 150.58 905.456 149.027 904.251 149C903.047 148.974 902.038 150.485 902.001 152.375Z" fill="#4F2B2B"/>
<path d="M865.001 152.375C864.959 154.266 865.905 155.819 867.109 155.845C868.313 155.872 869.322 154.361 869.359 152.47C869.401 150.58 868.456 149.027 867.251 149C866.047 148.974 865.038 150.485 865.001 152.375Z" fill="#4F2B2B"/>
<path d="M867.074 167.148C858.761 167.148 852 160.388 852 152.074C852 143.761 858.761 137 867.074 137C875.388 137 882.148 143.761 882.148 152.074C882.148 160.388 875.388 167.148 867.074 167.148ZM867.074 138.289C859.474 138.289 853.294 144.474 853.294 152.069C853.294 159.664 859.479 165.849 867.074 165.849C874.669 165.849 880.854 159.664 880.854 152.069C880.854 144.474 874.669 138.289 867.074 138.289Z" fill="white"/>
<path d="M903.148 167.148C894.835 167.148 888.074 160.388 888.074 152.074C888.074 143.761 894.835 137 903.148 137C911.462 137 918.222 143.761 918.222 152.074C918.222 160.388 911.462 167.148 903.148 167.148ZM903.148 138.289C895.548 138.289 889.368 144.474 889.368 152.069C889.368 159.664 895.553 165.849 903.148 165.849C910.743 165.849 916.928 159.664 916.928 152.069C916.928 144.474 910.743 138.289 903.148 138.289Z" fill="white"/>
<path d="M889.606 148.083C886.109 147.254 883.162 147.254 880.601 148.068L880.21 146.832C883.004 145.944 886.173 145.939 889.907 146.816L889.611 148.078L889.606 148.083Z" fill="white"/>
<path d="M876.795 161.697L876.691 161.846L876.801 161.991L881.253 167.884C881.253 167.884 881.253 167.885 881.253 167.885C881.374 168.046 881.54 168.155 881.72 168.207V168.254H881.97C882.159 168.254 882.35 168.195 882.513 168.07C882.906 167.771 882.988 167.208 882.687 166.812C882.687 166.812 882.687 166.812 882.687 166.812L878.909 161.808L886.316 151.16L886.316 151.16L886.318 151.158C886.594 150.752 886.501 150.195 886.09 149.909L886.09 149.909L886.088 149.908C885.681 149.632 885.125 149.725 884.839 150.135L884.839 150.135L876.795 161.697Z" fill="#4F2B2B" stroke="#4F2B2B" stroke-width="0.5"/>
<path d="M879.786 179.998L879.784 179.998C879.298 179.925 878.834 180.251 878.76 180.747C878.687 181.235 879.016 181.689 879.506 181.77L879.506 181.77C879.597 181.785 880.226 181.868 881.199 181.868C884.293 181.868 890.956 181.002 894.703 174.073C894.937 173.64 894.776 173.092 894.336 172.857C893.9 172.624 893.357 172.783 893.122 173.223C890.936 177.26 887.695 178.965 884.952 179.656C882.202 180.35 879.953 180.024 879.786 179.998Z" fill="#4F2B2B" stroke="#4F2B2B" stroke-width="0.5"/>
<path d="M875.334 145.305L875.336 145.306C875.732 145.596 876.295 145.523 876.59 145.119C876.882 144.72 876.802 144.165 876.406 143.866L876.406 143.866C876.332 143.811 875.814 143.444 874.952 142.992C872.214 141.553 865.912 139.221 859.373 143.613C858.964 143.888 858.851 144.448 859.132 144.861C859.41 145.27 859.965 145.381 860.377 145.101C864.19 142.543 867.851 142.541 870.601 143.204C873.359 143.869 875.198 145.203 875.334 145.305Z" fill="#4F2B2B" stroke="#4F2B2B" stroke-width="0.5"/>
<path d="M911.334 146.305L911.336 146.306C911.732 146.596 912.295 146.523 912.59 146.119C912.882 145.72 912.802 145.165 912.406 144.866L912.406 144.866C912.332 144.811 911.814 144.444 910.952 143.992C908.214 142.553 901.912 140.221 895.373 144.613C894.964 144.888 894.851 145.448 895.132 145.861C895.41 146.27 895.965 146.381 896.377 146.101C900.19 143.543 903.851 143.541 906.601 144.204C909.359 144.869 911.198 146.203 911.334 146.305Z" fill="#4F2B2B" stroke="#4F2B2B" stroke-width="0.5"/>
<path d="M866.315 171.976C866.452 169.739 863.191 167.718 859.031 167.462C854.871 167.207 851.387 168.812 851.249 171.049C851.112 173.286 854.373 175.307 858.533 175.563C862.693 175.819 866.177 174.213 866.315 171.976Z" fill="#FF9D6C"/>
<path d="M920.553 173.41C920.691 171.173 917.43 169.152 913.27 168.896C909.109 168.64 905.625 170.246 905.488 172.483C905.35 174.72 908.611 176.741 912.771 176.997C916.932 177.252 920.416 175.647 920.553 173.41Z" fill="#FF9D6C"/>
<path d="M940.569 156.833L934.748 157.072C933.811 157.11 933.012 156.508 932.967 155.725C932.921 154.943 933.643 154.278 934.581 154.24L940.402 154.002C941.341 153.964 942.138 154.566 942.183 155.348C942.229 156.129 941.507 156.796 940.569 156.833Z" fill="#4F2B2B"/>
<path d="M836.337 156.833L831.486 157.072C830.705 157.11 830.04 156.508 830.002 155.725C829.964 154.943 830.565 154.278 831.347 154.24L836.198 154.002C836.98 153.964 837.644 154.566 837.682 155.348C837.72 156.129 837.119 156.796 836.337 156.833Z" fill="#4F2B2B"/>
<path d="M864.948 106.85C864.948 106.85 862.943 122.343 837.569 147.346L836.906 129.745L844.384 110.891L858.846 100.609L864.948 106.85Z" fill="#4F2B2B"/>
<path d="M855.134 103.88L873.828 95.9347L899.403 95L930.301 119.707L936.923 147.345C923.313 144.832 906.76 135.619 906.76 135.619L914.117 143.575C894.542 141.86 878.43 141.379 864.828 123.893C862.385 120.754 855.911 111.412 857.003 107.152" fill="#4F2B2B"/>
<path d="M840.022 143.322C839.616 143.322 839.231 143.037 839.071 142.571C838.864 141.96 839.123 141.269 839.648 141.029C851.129 135.767 859.395 114.334 859.478 114.118C859.708 113.52 860.312 113.246 860.825 113.512C861.341 113.775 861.574 114.48 861.346 115.079C860.997 115.995 852.661 137.619 840.396 143.238C840.274 143.296 840.146 143.322 840.022 143.322Z" fill="#4F2B2B"/>
<path d="M808.446 377.121C807.928 377.121 807.482 376.731 807.424 376.204L798.62 295.993C798.558 295.428 798.966 294.921 799.531 294.857C800.095 294.798 800.604 295.203 800.667 295.769L809.471 375.98C809.533 376.545 809.125 377.052 808.56 377.115C808.522 377.119 808.484 377.121 808.446 377.121Z" fill="#4F2B2B"/>
<path d="M973.587 366.364C973.551 366.364 973.513 366.362 973.476 366.358C972.911 366.299 972.502 365.791 972.561 365.226L979.898 295.774C979.958 295.209 980.464 294.8 981.031 294.859C981.596 294.919 982.005 295.426 981.945 295.992L974.609 365.444C974.552 365.973 974.107 366.364 973.587 366.364Z" fill="#4F2B2B"/>
<path d="M974.18 318.882L957.654 325.083C957.126 325.278 956.53 325.012 956.328 324.48C956.129 323.947 956.399 323.353 956.932 323.154L973.457 316.953C974.2 316.674 974.95 316.44 975.703 316.221L960.712 313.643C953.51 312.433 946.428 315.27 942.646 320.942C941.791 322.228 941.1 323.615 940.599 325.07L935.374 340.164L938.948 336.604C939.354 336.204 940.003 336.204 940.405 336.608C940.805 337.012 940.805 337.662 940.401 338.065L924.021 354.376C922.794 356.287 922.626 358.649 923.572 360.718C924.354 362.434 925.774 363.698 927.568 364.276C929.363 364.859 931.251 364.664 932.892 363.731L945.769 354.153C945.814 354.12 945.867 354.11 945.914 354.084C946.356 353.463 946.854 352.871 947.463 352.356L957.836 343.624C958.27 343.26 958.924 343.32 959.287 343.749C959.651 344.184 959.595 344.834 959.162 345.2L948.789 353.932C945.747 356.492 945.352 361.052 947.914 364.095C949.153 365.568 950.906 366.457 952.816 366.635C954.734 366.801 956.602 366.207 958.075 364.968C958.222 364.847 958.392 364.787 958.566 364.758C958.611 364.718 958.642 364.669 958.689 364.631L967.024 358.716C967.488 358.389 968.131 358.495 968.459 358.961C968.787 359.427 968.232 358.899 967.769 359.227L963.562 362.499L959.162 366.238C956.187 368.747 956.58 373.325 959.142 376.368C961.999 379.765 965.944 379.517 970.864 375.664C971.147 375.325 971.466 375.008 971.817 374.72L977.921 369.705C978.359 369.343 979.011 369.408 979.368 369.849C979.728 370.287 979.667 370.935 979.225 371.296L973.122 376.31C972.942 376.457 972.792 376.626 972.638 376.791C972.575 376.91 972.486 377.019 972.374 377.109C972.361 377.12 972.348 377.127 972.335 377.138C971.028 378.825 970.872 381.191 972.075 383.051C972.823 384.211 973.982 385.001 975.332 385.281C976.7 385.568 978.062 385.296 979.216 384.531L987.913 378.74C987.913 378.74 987.913 378.74 987.917 378.738L1000.43 370.506C1013.67 361.8 1017.5 343.845 1008.98 330.487C1001.63 318.952 986.991 314.068 974.176 318.876L974.18 318.882Z" fill="#FFBE97"/>
<path d="M939.594 327.982C937.943 331.616 935.878 339.681 935.052 343.259L935.465 344.085L977.168 318.899C978.269 318.623 979.48 317.742 975.516 316.421C970.561 314.77 941.659 323.44 939.594 327.982Z" fill="#FFBE97"/>
<path d="M735.949 365.822H863.723C876.41 365.822 886.71 376.123 886.71 388.809H735.949V365.822Z" fill="#FBE4C6"/>
<path d="M1037.47 388.805H886.71C886.71 376.118 897.011 365.818 909.697 365.818H1037.47V388.805Z" fill="#FBE4C6"/>
<path d="M747.709 350.75L752.644 367.49C753.744 371.217 757.624 373.49 761.475 372.665C765.327 371.842 767.907 368.183 767.325 364.346C767.299 364.172 767.321 364.01 767.367 363.856C767.269 363.493 767.149 363.138 767.093 362.757L764.804 347.213C764.794 347.174 764.768 347.14 764.762 347.097C764.455 345.042 763.335 343.258 761.599 342.075C759.863 340.893 757.775 340.484 755.714 340.924L753.341 341.432C751.279 341.872 749.549 343.1 748.471 344.884C747.392 346.668 747.12 348.753 747.709 350.746V350.75Z" fill="#FFBE97"/>
<path d="M763.932 346.968L766.473 364.217C767.041 368.058 770.564 370.837 774.495 370.545C778.425 370.253 781.482 366.982 781.454 363.102L781.332 345.671C781.332 345.598 781.331 345.523 781.327 345.45C781.255 343.456 780.399 341.625 778.902 340.267C777.349 338.859 775.337 338.172 773.232 338.328L770.811 338.508C768.706 338.666 766.822 339.645 765.503 341.267C764.184 342.888 763.627 344.913 763.93 346.968H763.932Z" fill="#FFBE97"/>
<path d="M740.281 370.133C740.281 370.133 740.281 370.133 740.281 370.135L740.341 370.283C741.71 373.628 745.512 375.375 748.995 374.26C752.477 373.145 754.517 369.531 753.619 366.031C753.607 365.982 753.619 365.935 753.613 365.883L749.336 351.374C749.254 351.097 749.2 350.815 749.144 350.533C748.607 348.454 747.292 346.71 745.526 345.748C743.989 344.911 742.297 344.752 740.627 345.286L738.461 345.979C736.595 346.577 735.113 347.868 734.286 349.619C733.456 351.368 733.404 353.316 734.133 355.108L740.279 370.131L740.281 370.133Z" fill="#FFBE97"/>
<path d="M741.362 370.944C741.362 370.944 741.362 370.94 741.362 370.938L736.139 358.17C736.063 358.079 735.99 357.986 735.946 357.871C735.401 356.48 734.425 355.471 733.126 354.954C731.739 354.405 730.144 354.484 728.627 355.183L726.907 355.975C725.476 356.634 724.417 357.81 723.928 359.291C723.441 360.773 723.594 362.338 724.357 363.7L731.064 375.63C732.491 378.176 735.71 379.206 738.386 377.975C741.113 376.721 742.42 373.632 741.366 370.942L741.362 370.944Z" fill="#FFBE97"/>
<path d="M722.491 358.884L725.926 366.705C731.509 359.976 765.337 353.465 781.758 351.284L781.191 343.54C781.027 341.301 780.088 339.151 778.354 337.724C759.301 322.042 731.729 333.064 722.438 352.075C721.392 354.214 721.533 356.704 722.491 358.884Z" fill="#FFBE97"/>
<path d="M742.347 374.193L735.779 359.238" stroke="#4F2B2B" stroke-width="1.86946" stroke-linecap="round"/>
<path d="M753.841 370.453L750.557 354.563" stroke="#4F2B2B" stroke-width="1.86946" stroke-linecap="round"/>
<path d="M767.8 367.646L765.337 351.756" stroke="#4F2B2B" stroke-width="1.86946" stroke-linecap="round"/>
<path d="M963.095 340.535L944.957 355.952C944.587 356.267 944.192 356.553 943.777 356.806L935.988 361.566" stroke="#4F2B2B" stroke-width="1.86946" stroke-linecap="round"/>
<path d="M959.356 364.838L975.246 353.621" stroke="#4F2B2B" stroke-width="1.86946" stroke-linecap="round"/>
<path d="M983.66 365.771L993.007 359.228" stroke="#4F2B2B" stroke-width="1.86946" stroke-linecap="round"/>
<rect x="292" y="19" width="383" height="208.276" rx="12.6612" fill="#854747"/>
<path fill-rule="evenodd" clip-rule="evenodd" d="M289.661 32C282.669 32 277 37.6686 277 44.6612V227.615C277 234.607 282.669 240.276 289.661 240.276H514.08C515.944 258.953 507.504 268.268 494.801 282.286C493.572 283.642 492.303 285.043 491 286.5C537.045 279.3 559.069 269.219 586.527 240.276H647.339C654.331 240.276 660 234.607 660 227.615V44.6612C660 37.6686 654.331 32 647.339 32H289.661Z" fill="#FBE4C6"/>
<mask id="mask1_736_54187" style="mask-type:alpha" maskUnits="userSpaceOnUse" x="277" y="32" width="383" height="209">
<rect x="277" y="32" width="383" height="208.276" rx="12.6612" fill="#D9D9D9"/>
</mask>
<g mask="url(#mask1_736_54187)">
<path d="M496 84H598" stroke="#4F2B2B" stroke-width="3" stroke-linecap="round"/>
<path d="M496 104H598" stroke="#4F2B2B" stroke-width="3" stroke-linecap="round"/>
<path d="M496 124H598" stroke="#4F2B2B" stroke-width="3" stroke-linecap="round"/>
<path d="M496 144H598" stroke="#4F2B2B" stroke-width="3" stroke-linecap="round"/>
<path d="M402.842 139.547L411.991 173.398L399.182 157.845L402.842 139.547Z" fill="#E95D9A"/>
<path d="M368.99 131.312L337.427 157.386L343.832 258.024L420.224 252.535L411.99 173.398C411.99 173.398 390.04 143.253 368.992 131.312H368.99Z" fill="#E95D9A"/>
<path d="M372.796 176.391L357.838 203.316C365.616 211.194 381.293 227.429 381.771 229.344" stroke="#4F2B2B" stroke-width="1.5" stroke-linecap="round"/>
<path d="M382.758 110.783L408.749 122.727L398.816 144.341L372.826 132.397L382.758 110.783Z" fill="#FFBE97"/>
<path d="M403 135L406 128.5L388 118C391.6 124.4 398.667 132.667 403 135Z" fill="#4F2B2B"/>
<path d="M406.406 64.0883C427.61 63.6579 440.12 80.1889 440.12 80.1889C440.12 80.1889 450.642 80.9148 449.957 89.0711C449.272 97.2275 438.736 96.6576 438.736 96.6576L406.406 64.0868V64.0883Z" fill="#4F2B2B"/>
<path d="M380.007 89.0174C375.032 104.114 385.725 123.322 402.2 129.887C418.675 136.451 434.694 127.886 439.668 112.79C444.642 97.6936 435.32 80.1326 418.845 73.5692C402.37 67.0057 384.982 73.9227 380.007 89.019V89.0174Z" fill="#FFBE97"/>
<path d="M412.994 112.378C410.696 110.883 409.485 108.67 410.288 107.434C411.092 106.199 413.606 106.409 415.904 107.903C418.202 109.398 419.413 111.611 418.61 112.847C417.806 114.082 415.292 113.872 412.994 112.378Z" fill="#FF9D6C"/>
<path d="M436.849 112.666L439.242 122.42C439.552 123.681 438.535 124.873 437.242 124.767L431.063 124.259L436.851 112.666H436.849Z" fill="#FFBE97"/>
<path d="M429.601 111.319C428.94 111.148 428.543 110.472 428.714 109.811L429.216 107.876C429.387 107.215 430.063 106.818 430.723 106.989C431.384 107.16 431.781 107.836 431.61 108.497L431.108 110.432C430.937 111.093 430.261 111.49 429.601 111.319Z" fill="#4F2B2B"/>
<path d="M434.059 104.32C434.409 104.32 434.745 104.13 434.917 103.797C435.159 103.323 434.973 102.744 434.5 102.501C432.237 101.337 429.591 100.83 427.06 101.06C426.532 101.109 426.141 101.577 426.191 102.107C426.239 102.638 426.689 103.029 427.238 102.977C429.412 102.774 431.678 103.217 433.619 104.212C433.76 104.285 433.91 104.32 434.059 104.32Z" fill="#4F2B2B"/>
<path d="M421.503 125.735C421.811 125.901 422.017 126.227 422.01 126.602C421.998 127.134 421.559 127.556 421.028 127.545C418.484 127.496 415.914 126.688 413.795 125.284C413.353 124.991 413.231 124.393 413.526 123.95C413.821 123.506 414.402 123.375 414.861 123.681C416.679 124.891 418.883 125.576 421.065 125.621C421.223 125.624 421.372 125.664 421.503 125.735Z" fill="#4F2B2B"/>
<path d="M440.945 79.7806C440.945 79.7806 428.433 63.2497 407.231 63.6801C386.028 64.1105 373.943 74.4674 373.149 87.6703C372.357 100.872 382.07 111.174 382.07 111.174C382.07 111.174 407.023 88.054 407.231 89.3346C407.439 90.6152 440.945 79.7822 440.945 79.7822V79.7806Z" fill="#4F2B2B"/>
<path d="M375.471 74.8117C370.664 81.4581 374.707 83.5092 379.253 82.3727C382.016 83.8266 385.548 85.8599 385.22 77.9689C384.793 67.7406 390.54 73.6414 395.306 73.8491C399.118 74.0153 402.298 72.5527 403.403 71.8603C407.34 75.1835 411.71 70.1246 413.915 71.2921C416.33 72.5706 425.202 66.7115 422.716 59.2343C420.726 53.2526 412.217 51.8957 408.211 51.9649C407.548 49.1402 405.31 47.7416 404.274 47.3955C398.14 45.2354 392.601 52.4495 390.598 56.3265C384.133 51.6741 380.168 56.742 378.994 59.8574C377.198 59.6497 373.109 60.6052 371.12 66.0884C369.131 71.5716 373.192 74.1886 375.471 74.8117Z" fill="#4F2B2B"/>
<circle cx="16.1551" cy="16.1551" r="16.1551" transform="matrix(-1 0 0 1 406.902 69.8906)" fill="#4F2B2B"/>
<path d="M380.061 106.428C380.388 106.428 380.708 106.261 380.888 105.959C381.161 105.505 381.012 104.914 380.559 104.639C380.253 104.453 373.402 100.116 374.146 87.7281C374.965 74.0963 387.973 65.0337 407.286 64.6427C427.647 64.2032 440.09 80.2037 440.213 80.3629C440.38 80.5841 440.636 80.722 440.912 80.7433C440.963 80.7463 446.019 81.1388 448.512 84.0516C449.57 85.2867 450.009 86.7703 449.858 88.5844C449.259 95.7041 440.503 95.3304 440.109 95.3183C439.604 95.2531 439.837 95.6869 439.81 96.2158C439.781 96.7462 440.381 101.574 440.912 101.601C444.885 101.828 451.173 95.9299 451.776 88.745C451.972 86.4203 451.364 84.4168 449.97 82.7907C447.389 79.7824 442.893 79.0308 441.479 78.8641C439.542 76.5135 427.335 62.709 408.065 62.709C407.794 62.709 407.523 62.7105 407.247 62.7166C386.854 63.1303 373.108 72.9021 372.224 87.6114C371.406 101.242 379.233 106.091 379.567 106.291C379.721 106.385 379.892 106.429 380.061 106.429V106.428Z" fill="#4F2B2B"/>
<path d="M395.173 103.14C395.055 99.206 398.147 95.9209 402.081 95.802C406.015 95.6832 409.3 98.7758 409.419 102.709C409.537 106.643 406.445 109.928 402.511 110.047C398.577 110.166 395.292 107.073 395.173 103.14Z" fill="#FFBE97"/>
<path d="M398.666 102.699L401.696 105.503C402.184 105.954 402.946 105.925 403.398 105.438C403.849 104.95 403.821 104.187 403.333 103.736L400.303 100.932C399.815 100.48 399.053 100.509 398.601 100.997C398.15 101.485 398.178 102.247 398.666 102.699Z" fill="#4F2B2B"/>
<path d="M440.603 81.9642C440.603 81.9642 436.516 94.8897 422.661 92.4619C408.807 90.0341 403.633 85.809 403.633 85.809L423.065 74.4883L440.602 81.9642H440.603Z" fill="#4F2B2B"/>
<path d="M424.4 94.0718C426.817 94.0718 429.081 93.7112 431.191 92.9883C437.889 90.6923 440.414 85.5685 440.518 85.3517C440.747 84.8728 440.547 84.3015 440.07 84.0696C439.591 83.8363 439.017 84.0393 438.785 84.5152C438.762 84.5622 436.461 89.1662 430.521 91.1818C424.519 93.2171 417.018 92.0259 408.217 87.6356C407.738 87.3961 407.161 87.5947 406.926 88.066C406.688 88.5418 406.882 89.1208 407.358 89.3572C413.649 92.4942 419.352 94.0703 424.4 94.0703V94.0718Z" fill="#4F2B2B"/>
<path d="M376.321 101.982C376.84 101.982 377.267 101.57 377.284 101.047C377.514 93.2697 380.065 85.4528 384.462 79.0393C384.763 78.5998 384.652 78.0012 384.214 77.7011C383.776 77.4011 383.176 77.5147 382.876 77.9497C378.27 84.6663 375.6 92.8484 375.357 100.993C375.342 101.523 375.759 101.967 376.293 101.984H376.321V101.982Z" fill="#4F2B2B"/>
<path d="M368.99 131.314L378.597 120.336L402.842 139.548L399.182 157.846L368.99 131.314Z" fill="#E95D9A"/>
<path d="M368.99 131.313C368.99 131.313 354.352 130.397 347.948 134.057C341.543 137.717 302.314 186.789 307.465 208.963C311.276 225.368 347.261 247.046 347.261 247.046L378.596 231.035L351.721 196.269L375.393 158.302L368.989 131.313H368.99Z" fill="#E95D9A"/>
<path d="M371.644 228.408L375.195 229.098C378.486 229.731 381.505 231.362 383.701 233.685C387.459 237.663 389.245 242.266 389.008 247.358C388.722 253.556 385.35 260.08 379.738 265.516L379.159 258.163L380.364 251.706C380.462 251.183 380.117 250.681 379.596 250.583C379.082 250.483 378.571 250.827 378.473 251.351L377.244 257.934C377.227 258.018 377.222 258.101 377.23 258.186L378.474 273.962C378.539 275.338 377.594 276.578 376.221 276.881C375.47 277.048 374.698 276.911 374.049 276.496C373.4 276.081 372.952 275.435 372.788 274.682L369.651 260.211L369.642 252.286C369.642 251.756 369.21 251.325 368.68 251.325H368.678C368.148 251.325 367.717 251.757 367.717 252.289L367.726 260.315C367.726 260.383 367.734 260.45 367.749 260.518L370.891 275.009C370.869 275.096 370.845 275.182 370.85 275.276C370.921 276.757 370.292 277.655 368.98 277.948C368.229 278.118 367.457 277.977 366.808 277.56C366.158 277.145 365.711 276.502 365.547 275.747L361.695 261.593L362.225 253.618C362.261 253.088 361.858 252.63 361.328 252.594C360.76 252.536 360.34 252.961 360.303 253.491L359.762 261.628C359.755 261.735 359.765 261.841 359.794 261.946L362.966 273.592C362.966 273.611 362.957 273.627 362.959 273.645C363.106 276.649 362.114 276.869 361.74 276.952C360.987 277.119 360.216 276.981 359.567 276.567C358.918 276.152 358.471 275.506 358.308 274.755L355.167 260.285L355.211 253.021C355.214 252.489 354.787 252.057 354.255 252.053C353.646 252.042 353.291 252.477 353.287 253.009L353.243 260.379C353.243 260.449 353.25 260.52 353.266 260.589L356.206 274.141C355.074 274.379 354.222 274.124 353.704 273.821C352.987 273.401 352.479 272.716 352.311 271.936L350.914 268.355C349.765 265.431 348.951 262.373 348.493 259.262L347.907 255.273C347.367 251.616 347.769 247.869 349.066 244.43C352.094 236.399 358.502 227.122 371.642 228.41L371.644 228.408Z" fill="#FFBE97"/>
<path d="M346.002 255.554L346.588 259.541C347.067 262.798 347.919 265.999 349.124 269.057L350.476 272.491C350.712 273.647 351.553 274.792 352.732 275.483C353.525 275.945 354.427 276.18 355.368 276.18C355.804 276.18 356.251 276.112 356.7 276.01C357.073 276.898 357.699 277.656 358.527 278.188C359.309 278.689 360.201 278.947 361.108 278.947C361.455 278.947 361.807 278.909 362.157 278.832C363.038 278.636 363.695 278.154 364.153 277.419C364.532 278.117 365.07 278.732 365.768 279.179C366.552 279.681 367.442 279.94 368.349 279.94C368.696 279.94 369.048 279.902 369.395 279.825C370.786 279.515 371.8 278.723 372.338 277.586C372.546 277.779 372.767 277.96 373.011 278.117C373.793 278.617 374.683 278.874 375.589 278.874C375.936 278.874 376.287 278.836 376.638 278.759C378.929 278.251 380.51 276.181 380.394 273.837L379.934 267.983C386.593 262.015 390.604 254.551 390.932 247.442C391.189 241.886 389.172 236.67 385.1 232.357C382.631 229.744 379.243 227.912 375.558 227.202L371.921 226.501C356.654 224.99 349.941 236.654 347.266 243.744C345.853 247.487 345.415 251.57 346 255.55L346.002 255.554Z" fill="#FFBE97"/>
<path d="M454.371 152.304L462.848 135.869L477.941 125.994L493.015 154.671L465.116 170.279L454.371 152.304Z" fill="#FFBE97"/>
<path d="M477.941 125.996L505.14 120.394C506.981 120.012 508.806 121.114 509.332 122.917C509.843 124.666 508.97 126.519 507.297 127.243L478.898 139.512L477.934 125.996H477.941Z" fill="#FFBE97"/>
<path d="M495.676 130.516L496.937 134.277C497.517 136.008 496.88 137.917 495.371 138.946L495.215 139.053L496.381 142.323C496.941 143.894 496.488 145.647 495.237 146.748L495.127 146.844L495.79 149.55C496.202 151.227 495.523 152.984 494.09 153.948L493.015 154.672L473.882 143.482L473.379 136.137L495.676 130.519V130.516Z" fill="#FFBE97"/>
<path d="M487.149 135.284L496.314 132.755L496.315 132.754C496.659 132.658 496.873 132.304 496.775 131.949C496.68 131.594 496.315 131.396 495.97 131.487L495.97 131.487L495.967 131.488L486.797 134.018L486.797 134.018L486.796 134.019C486.451 134.115 486.238 134.471 486.337 134.826C486.393 135.029 486.54 135.182 486.72 135.257V135.31H486.97C487.019 135.31 487.083 135.305 487.149 135.284Z" fill="#4F2B2B" stroke="#4F2B2B" stroke-width="0.5"/>
<path d="M495.436 139.392C495.622 139.274 495.679 139.022 495.561 138.832C495.443 138.645 495.192 138.588 495.001 138.706L495.436 139.392ZM495.436 139.392C494.654 139.884 489.406 141.473 488.811 141.652C488.773 141.664 488.731 141.671 488.693 141.671C488.518 141.671 488.358 141.557 488.304 141.382L495.436 139.392ZM488.065 141.454L488.065 141.455C488.151 141.736 488.409 141.921 488.693 141.921C488.762 141.921 488.828 141.908 488.883 141.892L488.883 141.892C489.181 141.802 490.644 141.359 492.13 140.877C492.874 140.636 493.624 140.385 494.239 140.163C494.842 139.945 495.346 139.744 495.569 139.604L495.569 139.603C495.874 139.411 495.963 139.006 495.774 138.7L495.774 138.7L495.773 138.698C495.58 138.394 495.175 138.304 494.869 138.494L494.869 138.494L494.868 138.494C494.764 138.559 494.469 138.684 494.014 138.851C493.57 139.014 493.001 139.209 492.376 139.416C491.124 139.83 489.65 140.289 488.503 140.635L488.502 140.636C488.157 140.741 487.96 141.109 488.065 141.454Z" fill="#4F2B2B" stroke="#4F2B2B" stroke-width="0.5"/>
<path d="M489.261 148.867L489.261 148.867C489.354 149.14 489.612 149.311 489.883 149.311C489.955 149.311 490.029 149.299 490.099 149.274L495.342 147.464L495.342 147.464L495.345 147.463C495.686 147.341 495.865 146.972 495.749 146.629L495.749 146.629L495.747 146.625C495.625 146.284 495.256 146.105 494.913 146.221L494.912 146.221L489.668 148.032L489.668 148.032L489.665 148.033C489.324 148.155 489.144 148.524 489.261 148.867Z" fill="#4F2B2B" stroke="#4F2B2B" stroke-width="0.5"/>
<path d="M455.362 148.51C455.362 148.51 431.209 160.528 418.876 158.561C410.635 157.246 404.617 152.097 400.242 145.713C385.877 150.618 371.942 156.968 360.477 167.106C361.114 169.031 361.83 171.013 362.657 173.079C381.848 221.057 452.008 202.118 468.39 175.312L455.358 148.507L455.362 148.51Z" fill="#E95D9A"/>
</g>
<path d="M269 266H482.192L474.116 400.271H277.075L269 266Z" fill="#357E94"/>
<path d="M375.997 346.643C389.696 346.643 400.802 343.365 400.802 339.321C400.802 335.278 389.696 332 375.997 332C362.297 332 351.192 335.278 351.192 339.321C351.192 343.365 362.297 346.643 375.997 346.643Z" fill="#FFF4E9"/>
<path d="M1110.24 389H189.757C180.119 389 180 391.462 180 394.5C180 397.538 180.119 400 189.757 400H1110.24C1119.88 400 1120 397.538 1120 394.5C1120 391.462 1119.88 389 1110.24 389Z" fill="#F2AE54"/>
</g>
</svg>
