<svg width="100" height="100" viewBox="0 0 100 100" fill="none" xmlns="http://www.w3.org/2000/svg">
<path d="M95.1614 20.9678V27.4194H69.355V20.9678H72.5808H95.1614Z" fill="#2B6577"/>
<path d="M69.3547 1.61328H37.0967V8.06488H69.3547V1.61328Z" fill="#2B6577"/>
<path d="M95.1612 27.4199H69.3547H66.1289V53.2263H82.2579L91.9354 72.5811H88.7096V82.2585H98.387V27.4199H95.1612Z" fill="#8FC6D7"/>
<path d="M72.5805 8.06445V20.9676H69.3547V27.4192H66.1289V53.2256H59.0321L49.9999 41.9353L40.9676 53.2256H40.3225V30.645H37.0967V24.1934H33.8708V8.06445H72.5805Z" fill="#3A8AA2"/>
<path d="M40.3225 30.6455V53.2261H17.7418L8.06441 72.5809H11.2902V88.7099H1.61279V30.6455H40.3225Z" fill="#8FC6D7"/>
<path d="M91.9355 46.7744H85.4839V53.226H91.9355V46.7744Z" fill="#FBE4C6"/>
<path d="M91.9355 33.8711H85.4839V40.3227H91.9355V33.8711Z" fill="#FBE4C6"/>
<path d="M82.2581 53.2256L91.9355 72.5804H88.7097H66.129V66.1288H69.3548L59.0322 53.2256H66.129H72.5807H79.0323H82.2581Z" fill="#854747"/>
<path d="M88.7096 82.2585V98.3874H66.1289V72.5811H88.7096V82.2585Z" fill="#2B6577"/>
<path d="M82.258 79.0322H72.5806V91.9354H82.258V79.0322Z" fill="#F8D2A0"/>
<path d="M79.0322 46.7744H72.5806V53.226H79.0322V46.7744Z" fill="#FBE4C6"/>
<path d="M79.0322 33.8711H72.5806V40.3227H79.0322V33.8711Z" fill="#FBE4C6"/>
<path d="M59.0323 53.2258L69.3549 66.129H66.1291H33.8711H30.6453L40.9678 53.2258L50.0001 41.9355L59.0323 53.2258Z" fill="#BF8888"/>
<path d="M66.1289 72.5805V98.3869H59.6773V75.8063H40.3225V98.3869H33.8708V72.5805V66.1289H66.1289V72.5805Z" fill="#8FC6D7"/>
<path d="M59.6774 75.8066V98.3872L53.2258 93.5485V80.6453L59.6774 75.8066Z" fill="#F2AE54"/>
<path d="M59.6774 27.4199H46.7742V33.8715H59.6774V27.4199Z" fill="#FBE4C6"/>
<path d="M59.6774 14.5166H46.7742V20.9682H59.6774V14.5166Z" fill="#FBE4C6"/>
<path d="M59.6773 75.8066L53.2257 80.6453V93.5485L59.6773 98.3872H40.3225L46.7741 93.5485V80.6453L40.3225 75.8066H59.6773Z" fill="#AAB2BD"/>
<path d="M46.7741 80.6453V93.5485L40.3225 98.3872V75.8066L46.7741 80.6453Z" fill="#F2AE54"/>
<path d="M40.9677 53.2256L30.6451 66.1288H33.8709V72.5804H11.2903H8.06445L12.9032 62.903L17.7419 53.2256H40.3225H40.9677Z" fill="#854747"/>
<path d="M37.0967 24.1943V30.6459H4.83862V24.1943H33.8709H37.0967Z" fill="#2B6577"/>
<path d="M33.8709 72.5811V98.3874H11.2903V72.5811H33.8709Z" fill="#2B6577"/>
<path d="M33.871 37.0967H27.4194V46.7741H33.871V37.0967Z" fill="#FBE4C6"/>
<path d="M27.4194 79.0322H17.7419V91.9354H27.4194V79.0322Z" fill="#F8D2A0"/>
<path d="M27.4194 37.0967H20.9678V46.7741H27.4194V37.0967Z" fill="#FBE4C6"/>
<path d="M20.9677 37.0967H14.5161V46.7741H20.9677V37.0967Z" fill="#FBE4C6"/>
<path d="M17.7419 53.2256L12.9032 62.903H8.06445V53.2256H17.7419Z" fill="#FBE4C6"/>
<path d="M14.5161 37.0967H8.06445V46.7741H14.5161V37.0967Z" fill="#FBE4C6"/>
<path d="M72.7097 67.7425H27.2903L50 39.3555L72.7097 67.7425ZM34 64.5167H66L50 44.5167L34 64.5167Z" fill="black"/>
<path d="M94.5484 74.1929H66.129V70.9671H89.3226L81.2581 54.8381H59.0322V51.6123H83.2581L94.5484 74.1929Z" fill="black"/>
<path d="M33.871 74.1929H5.45166L16.742 51.6123H40.9678V54.8381H18.742L10.6775 70.9671H33.871V74.1929Z" fill="black"/>
<path d="M67.7419 66.1289H64.5161V98.3869H67.7419V66.1289Z" fill="black"/>
<path d="M35.4839 66.1289H32.2581V98.3869H35.4839V66.1289Z" fill="black"/>
<path d="M90.3225 72.5801H87.0967V98.3865H90.3225V72.5801Z" fill="black"/>
<path d="M12.9033 72.5801H9.67749V98.3865H12.9033V72.5801Z" fill="black"/>
<path d="M100 96.7744H96.7742V100H100V96.7744Z" fill="black"/>
<path d="M93.5482 96.7744H6.45142V100H93.5482V96.7744Z" fill="black"/>
<path d="M3.22581 96.7744H0V100H3.22581V96.7744Z" fill="black"/>
<path d="M11.2903 90.3224H0V29.0322H41.9355V53.2257H38.7097V32.258H3.22581V87.0966H11.2903V90.3224Z" fill="black"/>
<path d="M38.7097 30.6456H35.4839V25.8069H6.45164V30.6456H3.22583V22.5811H38.7097V30.6456Z" fill="black"/>
<path d="M35.4839 24.194H32.2581V6.45215H74.1935V20.9682H70.9677V9.67795H35.4839V24.194Z" fill="black"/>
<path d="M70.9678 8.0645H67.742V3.2258H38.7097V8.0645H35.4839V0H70.9678V8.0645Z" fill="black"/>
<path d="M100 83.871H88.7097V80.6452H96.7742V29.0324H67.7419V53.2259H64.5161V25.8066H100V83.871Z" fill="black"/>
<path d="M96.7742 27.419H93.5484V22.5803H70.9677V27.419H67.7419V19.3545H96.7742V27.419Z" fill="black"/>
<path d="M61.2904 98.3868H58.0646V77.4192H41.9355V98.3868H38.7097V74.1934H61.2904V98.3868Z" fill="black"/>
<path d="M41.2902 99.6769L39.3547 97.0962L45.1612 92.7414V81.4511L39.3547 77.0963L41.2902 74.5156L48.387 79.8382V94.3543L41.2902 99.6769Z" fill="black"/>
<path d="M58.7096 99.6769L51.6128 94.3543V79.8382L58.7096 74.5156L60.645 77.0963L54.8386 81.4511V92.7414L60.645 97.0962L58.7096 99.6769Z" fill="black"/>
<path d="M83.871 93.5479H70.9678V77.4189H83.871V93.5479ZM74.1936 90.3221H80.6452V80.6447H74.1936V90.3221Z" fill="black"/>
<path d="M29.0321 93.5479H16.1289V77.4189H29.0321V93.5479ZM19.3547 90.3221H25.8063V80.6447H19.3547V90.3221Z" fill="black"/>
<path d="M35.4837 48.3866H6.45142V35.4834H35.4837V48.3866ZM9.67722 45.1608H32.2579V38.7092H9.67722V45.1608Z" fill="black"/>
<path d="M12.903 64.5155H6.45142V51.6123H17.7417V54.8381H9.67722V61.2897H12.903V64.5155Z" fill="black"/>
<path d="M16.1291 37.0967H12.9033V46.7741H16.1291V37.0967Z" fill="black"/>
<path d="M22.5805 37.0967H19.3547V46.7741H22.5805V37.0967Z" fill="black"/>
<path d="M29.0322 37.0967H25.8064V46.7741H29.0322V37.0967Z" fill="black"/>
<path d="M80.6452 41.9352H70.9678V32.2578H80.6452V41.9352ZM74.1936 38.7094H77.4194V35.4836H74.1936V38.7094Z" fill="black"/>
<path d="M93.5485 41.9352H83.8711V32.2578H93.5485V41.9352ZM87.0969 38.7094H90.3227V35.4836H87.0969V38.7094Z" fill="black"/>
<path d="M80.6452 54.8385H70.9678V45.1611H80.6452V54.8385ZM74.1936 51.6127H77.4194V48.3869H74.1936V51.6127Z" fill="black"/>
<path d="M93.5485 54.8385H83.8711V45.1611H93.5485V54.8385ZM87.0969 51.6127H90.3227V48.3869H87.0969V51.6127Z" fill="black"/>
<path d="M61.2904 22.5807H45.1614V12.9033H61.2904V22.5807ZM48.3872 19.3549H58.0646V16.1291H48.3872V19.3549Z" fill="black"/>
<path d="M61.2904 35.484H45.1614V25.8066H61.2904V35.484ZM48.3872 32.2582H58.0646V29.0324H48.3872V32.2582Z" fill="black"/>
</svg>
