<svg width="700" height="400" viewBox="0 0 700 400" fill="none" xmlns="http://www.w3.org/2000/svg">
<mask id="mask0_580_14360" style="mask-type:alpha" maskUnits="userSpaceOnUse" x="0" y="0" width="700" height="400">
<rect width="700" height="400" transform="matrix(-1 0 0 1 700 0)" fill="white"/>
</mask>
<g mask="url(#mask0_580_14360)">
<path d="M93.4921 248.31C94.6083 248.649 95.7724 248.225 96.4305 247.338L149.66 279.789C149.597 279.917 149.542 280.051 149.498 280.191C149.068 281.615 149.872 283.117 151.295 283.549C152.718 283.98 154.221 283.175 154.653 281.752C154.722 281.524 154.757 281.295 154.765 281.068L189.341 279.1C189.493 280.096 190.194 280.965 191.222 281.276C192.644 281.708 194.148 280.902 194.58 279.479C194.769 278.85 194.717 278.204 194.479 277.643L227.949 259.564C228.284 260.066 228.787 260.46 229.41 260.65C230.085 260.853 230.776 260.777 231.363 260.494L277.879 337.422C277.427 337.753 277.075 338.228 276.898 338.805C276.467 340.228 277.272 341.731 278.695 342.163C280.118 342.595 281.621 341.789 282.053 340.366C282.178 339.951 282.195 339.531 282.127 339.132L387.099 310.983C386.842 312.32 387.633 313.662 388.964 314.065C390.387 314.497 391.89 313.692 392.322 312.269C392.361 312.138 392.387 312.01 392.405 311.878L432.308 313.982C432.353 315.097 433.089 316.111 434.216 316.452C434.784 316.624 435.363 316.597 435.883 316.415L456.851 362.402L456.17 362.378L457.056 362.845L457.182 363.122L457.307 362.976L533.068 402.979C533.035 403.06 533.004 403.144 532.977 403.23C532.546 404.653 533.351 406.156 534.774 406.588C536.197 407.02 537.7 406.214 538.132 404.791C538.564 403.368 537.758 401.865 536.335 401.433C535.807 401.273 535.265 401.285 534.773 401.436L520.224 365.783C520.251 365.716 520.277 365.647 520.298 365.576C520.407 365.221 520.435 364.86 520.399 364.512L584.477 351.705C584.728 352.542 585.377 353.241 586.277 353.513C587.699 353.945 589.203 353.139 589.634 351.716C590.066 350.294 589.26 348.791 587.838 348.359C587.276 348.188 586.698 348.214 586.183 348.393L567.555 307.085C568.134 306.757 568.596 306.216 568.805 305.525C569.085 304.6 568.841 303.645 568.25 302.97L590.423 279.524C590.678 279.726 590.973 279.886 591.304 279.985C592.727 280.417 594.23 279.611 594.662 278.188C595.093 276.765 594.288 275.262 592.865 274.83C592 274.569 591.108 274.765 590.443 275.275L566.102 249.056C566.357 248.773 566.555 248.432 566.674 248.041C567.061 246.764 566.452 245.425 565.293 244.85L579.936 211.287C581.351 211.697 582.835 210.895 583.263 209.481C583.695 208.059 582.889 206.556 581.466 206.124C581.218 206.048 580.968 206.013 580.72 206.01L577.784 178.715C578.722 178.524 579.53 177.838 579.826 176.856C579.904 176.6 579.939 176.343 579.939 176.09L621.516 172.463C621.692 173.425 622.383 174.258 623.383 174.559C624.806 174.991 626.309 174.185 626.741 172.763C627.173 171.34 626.367 169.837 624.945 169.405C624.84 169.373 624.736 169.351 624.631 169.332L629.674 107.983C630.82 107.971 631.875 107.224 632.224 106.071C632.656 104.648 631.85 103.145 630.427 102.713C629.004 102.281 627.501 103.087 627.069 104.51C626.945 104.916 626.927 105.328 626.991 105.721L539.764 128.274C539.463 127.565 538.862 126.99 538.067 126.749C536.644 126.317 535.141 127.123 534.709 128.546C534.277 129.969 535.083 131.472 536.506 131.904C536.647 131.946 536.79 131.973 536.933 131.993L537.423 163.679C536.357 163.769 535.4 164.493 535.072 165.579C534.965 165.932 534.935 166.291 534.97 166.636L461.946 183.437C461.681 182.633 461.041 181.967 460.171 181.701C458.748 181.269 457.245 182.075 456.813 183.498C456.381 184.921 457.187 186.424 458.61 186.856C458.937 186.955 459.268 186.985 459.587 186.962L465.321 221.143C464.449 221.373 463.711 222.036 463.432 222.964L463.486 222.722L377.514 203.37C377.681 202.086 376.905 200.835 375.627 200.448C374.968 200.248 374.293 200.317 373.714 200.585L355.188 168.735C355.656 168.402 356.024 167.919 356.202 167.325C356.632 165.901 355.828 164.399 354.405 163.967C352.982 163.535 351.479 164.341 351.047 165.764C350.879 166.318 350.9 166.886 351.074 167.396L300.141 189.818C299.813 189.227 299.267 188.758 298.57 188.547C297.147 188.115 295.644 188.921 295.212 190.344C295.032 190.937 295.068 191.541 295.275 192.078L264.668 207.054C264.336 206.507 263.811 206.077 263.152 205.877C261.729 205.445 260.226 206.251 259.794 207.674C259.748 207.824 259.72 207.976 259.7 208.126L197.233 207.463C197.125 206.415 196.405 205.486 195.334 205.161C194.529 204.918 193.697 205.07 193.048 205.508L165.297 172.825C165.608 172.519 165.849 172.133 165.985 171.687C166.417 170.264 165.611 168.761 164.189 168.329C162.764 167.899 161.263 168.703 160.831 170.126C160.829 170.137 160.826 170.148 160.822 170.157L127.99 167.071L110.636 165.44C110.539 164.379 109.818 163.43 108.735 163.101C107.312 162.669 105.809 163.475 105.377 164.898C105.042 166.005 105.454 167.156 106.322 167.818L89.7246 202.443C89.6896 202.431 89.6542 202.416 89.6156 202.404C88.1929 201.973 86.6898 202.779 86.2579 204.201C85.8259 205.624 86.6318 207.127 88.0546 207.559C88.3923 207.661 88.7342 207.693 89.0651 207.663L93.6792 243.107C92.7656 243.314 91.9853 243.99 91.6953 244.952C91.2634 246.375 92.0693 247.878 93.4921 248.31ZM108.723 168.259C109.56 168.008 110.259 167.359 110.531 166.459C110.583 166.285 110.616 166.111 110.634 165.939L130.312 167.788L160.728 170.646C160.702 170.908 160.716 171.166 160.766 171.417L114.846 192.505L108.725 168.26L108.723 168.259ZM299.616 193.101L318.532 210.122L296.11 238.219C295.899 238.081 295.666 237.967 295.413 237.89C295.294 237.853 295.172 237.83 295.051 237.811L297.868 193.816C298.523 193.797 299.144 193.539 299.616 193.101ZM352.15 168.793C352.361 168.931 352.594 169.045 352.848 169.121C352.996 169.166 353.141 169.195 353.288 169.213L351.028 236.483C350.404 236.52 349.815 236.773 349.362 237.191L319.212 210.063L352.148 168.791L352.15 168.793ZM562.651 308.78L546.579 281.344L564.331 302.836C564.025 303.139 563.789 303.523 563.652 303.966C563.35 304.963 563.657 305.996 564.353 306.674L562.651 308.78ZM584.482 350.157C584.375 350.513 584.345 350.872 584.381 351.22L520.303 364.025C520.171 363.585 519.929 363.185 519.599 362.865L562.584 309.655L585.49 348.755C585.025 349.088 584.66 349.569 584.48 350.159L584.482 350.157ZM281.172 337.489C280.933 337.298 280.66 337.146 280.357 337.04L290.924 293.841C292.223 294.037 293.504 293.255 293.896 291.959L320.274 297.332L281.172 337.489ZM90.9204 206.691C90.9558 206.646 90.9927 206.6 91.0242 206.552L122.049 229.732C121.932 229.924 121.836 230.13 121.767 230.355C121.587 230.944 121.625 231.547 121.826 232.082L114.772 235.507L90.9204 206.691ZM177.348 259.19L187.678 264.602C187.645 264.68 187.616 264.761 187.59 264.846C187.431 265.372 187.442 265.909 187.588 266.398L179.547 269.637L127.612 233.128L177.348 259.19ZM187.908 264.162L151.785 245.234L126.834 232.16C126.867 232.081 126.896 232 126.922 231.916C127.064 231.446 127.07 230.969 126.964 230.521L175.307 214.377L189.193 263.115C188.672 263.318 188.219 263.679 187.907 264.159L187.908 264.162ZM122.043 232.529C122.376 233.079 122.901 233.513 123.564 233.712C124.205 233.908 124.861 233.849 125.43 233.598L150.549 278.734L115.098 235.9L122.045 232.527L122.043 232.529ZM152.858 278.395C152.217 278.2 151.561 278.259 150.992 278.51L125.864 233.357C126.058 233.223 126.238 233.064 126.393 232.882L178.995 269.86L154.469 279.742C154.145 279.116 153.583 278.616 152.857 278.397L152.858 278.395ZM154.657 280.201L179.481 270.199L189.669 277.36C189.571 277.533 189.486 277.72 189.426 277.916C189.358 278.144 189.323 278.373 189.314 278.6L154.738 280.568C154.72 280.443 154.694 280.319 154.657 280.197L154.657 280.201ZM191.385 276.079C190.831 276.212 190.326 276.514 189.955 276.953L180.032 269.978L187.773 266.858C188.097 267.483 188.658 267.983 189.385 268.202C189.686 268.294 189.993 268.327 190.292 268.312L191.385 276.079ZM192.42 264.153L219.166 242.905L228.443 256.028C228.065 256.35 227.77 256.78 227.613 257.292C227.509 257.637 227.479 257.988 227.511 258.326L192.754 264.885C192.68 264.627 192.567 264.38 192.42 264.153ZM260.977 210.754C261.166 210.868 261.372 210.964 261.594 211.031C262.029 211.162 262.468 211.179 262.883 211.098L275.011 245.57L232.712 257.125C232.539 256.666 232.245 256.26 231.855 255.952L260.979 210.752L260.977 210.754ZM467.717 225.828L486.925 247.096C486.636 247.394 486.409 247.763 486.282 248.188C486.22 248.396 486.186 248.603 486.173 248.812L475.91 250.307L467.311 226.103C467.455 226.024 467.591 225.931 467.721 225.828L467.717 225.828ZM574.594 175.67C574.462 176.523 574.752 177.368 575.332 177.962L563.773 191.638L539.801 167.973C539.985 167.728 540.132 167.449 540.227 167.14L574.592 175.672L574.594 175.67ZM539.469 168.341L563.454 192.019L527.492 234.565C527.265 234.408 527.011 234.28 526.732 234.196C526.701 234.188 526.668 234.181 526.637 234.172L537.499 169.045C538.233 169.086 538.94 168.823 539.468 168.343L539.469 168.341ZM292.103 288.601C291.983 288.564 291.866 288.54 291.745 288.521L294.708 243.156C295.474 243.137 296.195 242.788 296.688 242.207L324.233 261.506L293.157 289.211C292.865 288.939 292.511 288.726 292.103 288.601ZM296.972 241.798C297.07 241.626 297.151 241.443 297.213 241.244C297.276 241.04 297.308 240.835 297.321 240.63L348.505 239.077C348.497 239.324 348.522 239.565 348.579 239.797L324.615 261.162L296.974 241.797L296.972 241.798ZM348.756 240.307C348.905 240.621 349.11 240.906 349.366 241.143L343.788 269.014L343.248 271.714C342.37 271.619 341.515 271.964 340.943 272.609L325.029 261.46L348.753 240.311L348.756 240.307ZM343.743 271.813C343.743 271.813 343.741 271.811 343.739 271.81L344.277 269.121L349.811 241.471C349.995 241.582 350.197 241.675 350.414 241.742C350.772 241.85 351.135 241.879 351.483 241.844L362.655 262.325L345.117 272.773C344.785 272.33 344.316 271.982 343.745 271.811L343.743 271.813ZM293.488 289.582L324.651 261.799L340.653 273.01C340.542 273.194 340.45 273.395 340.386 273.609C340.251 274.057 340.237 274.512 340.327 274.94L293.795 290.113C293.714 289.926 293.61 289.749 293.488 289.582ZM387.807 309.623L345.243 275.816C345.367 275.619 345.468 275.402 345.54 275.17C345.746 274.488 345.667 273.789 345.374 273.197L362.891 262.764L388.25 309.25C388.089 309.358 387.943 309.483 387.809 309.625L387.807 309.623ZM363.318 262.509L383.699 250.367C384.026 250.768 384.469 251.076 385.001 251.237C385.209 251.299 385.418 251.334 385.625 251.345L387.874 286.248L389.329 308.826C389.105 308.861 388.889 308.922 388.685 309.011L363.318 262.509ZM516.167 362.596L500.267 343.667L490.439 331.965C490.738 331.662 490.97 331.288 491.103 330.851C491.363 329.996 491.172 329.114 490.672 328.451L500.524 319.476L516.514 362.385C516.392 362.448 516.277 362.518 516.165 362.595L516.167 362.596ZM454.964 255.876L486.458 285.1C486.267 285.351 486.11 285.639 486.015 285.96C485.848 286.512 485.869 287.076 486.039 287.587L472.331 294.572L454.525 256.195C454.683 256.104 454.831 255.996 454.967 255.876L454.964 255.876ZM486.236 288.043C486.565 288.635 487.111 289.107 487.812 289.318C487.988 289.371 488.164 289.405 488.341 289.421L488.283 327.39C488.057 327.411 487.836 327.462 487.626 327.536L472.54 295.021L486.238 288.042L486.236 288.043ZM490.338 328.083C490.051 327.821 489.704 327.615 489.306 327.493C489.131 327.441 488.954 327.406 488.78 327.389L488.806 313.828L488.854 289.421C489.005 289.407 489.151 289.377 489.296 289.339L500.339 318.975L490.339 328.086L490.338 328.083ZM489.76 289.164C490.415 288.847 490.941 288.272 491.169 287.521C491.261 287.216 491.294 286.91 491.28 286.61L542.185 279.418C542.272 279.781 542.432 280.119 542.657 280.417L500.735 318.61L489.761 289.162L489.76 289.164ZM542.225 278.018C542.133 278.323 542.1 278.629 542.114 278.928L491.209 286.121C491.085 285.593 490.8 285.111 490.395 284.745L508.933 259.952L542.32 277.757C542.284 277.843 542.253 277.93 542.227 278.02L542.225 278.018ZM489.997 284.447C489.805 284.33 489.597 284.232 489.373 284.163C489.305 284.141 489.236 284.128 489.169 284.113L488.969 251.653C489.83 251.617 490.631 251.168 491.108 250.447L508.489 259.716L489.997 284.447ZM488.08 251.544C488.21 251.584 488.343 251.609 488.472 251.629L488.671 284.053C488.417 284.046 488.169 284.075 487.929 284.135L476.078 250.785L486.188 249.311C486.319 250.329 487.03 251.229 488.077 251.545L488.08 251.544ZM487.462 284.302C487.263 284.393 487.075 284.507 486.904 284.644L455.307 255.504C455.497 255.255 455.65 254.97 455.746 254.651C455.839 254.344 455.872 254.034 455.855 253.73L475.577 250.855L487.46 284.301L487.462 284.302ZM388.358 249.442C388.369 249.403 388.377 249.365 388.386 249.325L425.138 252.045L450.474 253.921C450.485 254.494 450.681 255.04 451.017 255.489L415.506 287.75L387.458 250.768C387.872 250.439 388.194 249.987 388.358 249.442ZM452.63 256.511C453.125 256.614 453.619 256.57 454.069 256.408L471.883 294.801L437.278 312.434C436.986 311.973 436.554 311.597 436.019 311.377L452.63 256.511ZM437.505 312.876L472.094 295.253L487.173 327.749C486.671 328.04 486.262 328.49 486.032 329.059L437.642 314.409C437.752 313.881 437.696 313.349 437.505 312.876ZM487.745 332.652C488.564 332.898 489.407 332.737 490.06 332.286L497.224 340.817L515.788 362.921C515.712 363 515.639 363.085 515.572 363.175L477.365 339.655L485.848 329.791C485.714 331.053 486.486 332.269 487.745 332.652ZM518.238 362.146C517.807 362.063 517.378 362.089 516.978 362.203L500.92 319.114L542.989 280.786C543.211 280.99 543.468 281.158 543.757 281.281L518.238 362.146ZM542.553 277.321L509.231 259.55L524.546 239.067C524.739 239.184 524.947 239.282 525.171 239.351C525.733 239.522 526.307 239.497 526.82 239.319L543.478 276.458C543.111 276.665 542.791 276.958 542.553 277.321ZM524.148 238.769L508.788 259.312L491.343 250.008C491.379 249.922 491.409 249.836 491.436 249.746C491.578 249.281 491.584 248.808 491.482 248.363L523.483 237.842C523.634 238.193 523.86 238.508 524.148 238.766L524.148 238.769ZM466.851 226.3L475.407 250.379L455.783 253.239C455.607 252.515 455.138 251.882 454.464 251.512L465.391 226.361C465.89 226.479 466.393 226.452 466.849 226.302L466.851 226.3ZM464.919 226.201L454.007 251.316C453.987 251.31 453.968 251.301 453.948 251.295C452.525 250.863 451.022 251.669 450.59 253.092C450.557 253.202 450.532 253.315 450.513 253.427L393.841 249.229L388.464 248.833C388.476 248.649 388.469 248.466 388.444 248.288L463.58 224.896C463.851 225.464 464.314 225.936 464.919 226.205L464.919 226.201ZM383.42 249.954L363.078 262.07L351.985 241.737C352.771 241.492 353.427 240.892 353.723 240.067L383.101 248.392C383.045 248.944 383.164 249.484 383.419 249.951L383.42 249.954ZM293.852 243.042C293.971 243.079 294.089 243.102 294.21 243.121L291.247 288.486C291.049 288.492 290.854 288.518 290.667 288.567L275.658 245.906L292.115 241.409C292.401 242.167 293.02 242.788 293.855 243.041L293.852 243.042ZM232.769 258.848C232.896 258.429 232.912 258.004 232.841 257.6L275.174 246.034L290.196 288.731C289.749 288.936 289.359 289.261 289.08 289.68L232.667 259.125C232.706 259.036 232.741 258.943 232.769 258.848ZM293.996 291.468C294.027 291.167 294.01 290.868 293.944 290.582L340.468 275.412C340.575 275.674 340.725 275.916 340.911 276.135L320.685 296.906L293.994 291.47L293.996 291.468ZM341.268 276.481C341.531 276.694 341.837 276.859 342.18 276.966C343.203 277.275 344.263 276.946 344.941 276.211L387.497 310.012C387.404 310.154 387.323 310.305 387.257 310.469L321.268 297.027L341.271 276.486L341.268 276.481ZM390.53 308.905C390.295 308.834 390.059 308.8 389.826 308.793L386.122 251.329C386.446 251.287 386.759 251.188 387.042 251.038L415.138 288.083L391.566 309.498C391.278 309.233 390.93 309.028 390.53 308.905ZM415.808 288.146L451.351 255.857C451.581 256.067 451.848 256.242 452.152 256.366L435.541 311.232C434.846 311.089 434.152 311.231 433.581 311.586L415.806 288.148L415.808 288.146ZM437.496 314.882L485.508 329.418L476.933 339.388L437.413 315.06C437.443 315.002 437.47 314.944 437.496 314.882ZM515.312 363.596C515.246 363.728 515.19 363.864 515.145 364.009C515.1 364.154 515.073 364.301 515.053 364.447L457.776 362.429L477.034 340.034L515.31 363.595L515.312 363.596ZM519.215 362.546C519.092 362.465 518.959 362.392 518.821 362.331L518.754 362.163L544.231 281.427C544.825 281.557 545.421 281.476 545.941 281.234L562.319 309.189L519.218 362.546L519.215 362.546ZM590.065 279.179L567.892 302.624C567.636 302.422 567.341 302.263 567.011 302.164C566.8 302.098 566.587 302.067 566.375 302.055L565.465 278.437L589.413 277.73C589.478 278.269 589.707 278.773 590.063 279.177L590.065 279.179ZM565.878 302.074C565.458 302.129 565.059 302.283 564.715 302.518L546.7 280.709C547.006 280.405 547.242 280.022 547.379 279.579C547.442 279.375 547.474 279.17 547.488 278.968L564.969 278.451L565.878 302.074ZM547.473 278.472C547.384 277.743 546.999 277.079 546.405 276.639L562.813 249.625C562.97 249.711 563.141 249.783 563.32 249.838C563.503 249.894 563.689 249.927 563.874 249.942L564.953 277.958L547.475 278.474L547.473 278.472ZM562.4 249.346L548.204 272.72L561.421 246.982C561.327 247.893 561.706 248.781 562.4 249.346ZM545.806 276.303C545.734 276.274 545.66 276.247 545.584 276.223C545.023 276.052 544.449 276.077 543.935 276.255L527.278 239.116C527.86 238.787 528.323 238.244 528.532 237.554C528.717 236.946 528.673 236.323 528.453 235.776L578.469 210.221C578.689 210.544 578.984 210.821 579.332 211.026L545.807 276.306L545.806 276.303ZM528.226 235.333C528.123 235.174 528.008 235.023 527.873 234.885L563.808 192.368L578.615 206.984C578.394 207.253 578.22 207.566 578.114 207.922C577.918 208.562 577.978 209.217 578.227 209.784L528.227 235.331L528.226 235.333ZM578.967 206.635L564.132 191.99L575.717 178.285C575.944 178.442 576.198 178.569 576.477 178.653C576.751 178.736 577.026 178.772 577.298 178.769L580.231 206.052C579.764 206.133 579.33 206.335 578.969 206.636L578.967 206.635ZM578.036 173.497C576.648 173.077 575.189 173.832 574.717 175.188L540.492 166.691L620.923 172.014L579.907 175.593C579.731 174.631 579.04 173.798 578.04 173.497L578.036 173.497ZM621.596 171.202C621.56 171.32 621.535 171.439 621.517 171.558L540.34 166.185C540.314 165.781 540.197 165.392 540.002 165.045L569.58 145.429L621.662 171.026C621.64 171.085 621.617 171.143 621.598 171.204L621.596 171.202ZM536.872 168.937C536.918 168.951 536.965 168.959 537.011 168.97L526.149 234.088C525.337 234.027 524.551 234.344 524.003 234.919L505.888 220.632L536.507 168.794C536.625 168.849 536.744 168.899 536.872 168.937ZM523.695 235.309C523.56 235.516 523.451 235.743 523.376 235.995C523.234 236.459 523.228 236.933 523.33 237.377L491.329 247.898C491.139 247.46 490.832 247.075 490.439 246.791L505.633 221.067L523.695 235.313L523.695 235.309ZM490.007 246.536C489.889 246.481 489.768 246.429 489.64 246.391C489.072 246.22 488.493 246.247 487.975 246.427L460.729 186.615C460.954 186.485 461.16 186.325 461.342 186.133L505.236 220.751L490.005 246.534L490.007 246.536ZM460.277 186.822L487.521 246.633C487.447 246.675 487.372 246.721 487.302 246.774L468.071 225.48C468.301 225.209 468.479 224.887 468.588 224.527C469.018 223.103 468.214 221.601 466.792 221.169C466.465 221.07 466.134 221.04 465.814 221.063L460.082 186.884C460.149 186.867 460.214 186.845 460.279 186.823L460.277 186.822ZM463.41 224.429L388.331 247.806C388.063 247.009 387.426 246.348 386.559 246.086C386.17 245.969 385.775 245.945 385.395 246L375.713 205.574C376.49 205.311 377.135 204.695 377.405 203.857L463.372 223.209C463.287 223.626 463.304 224.041 463.409 224.431L463.41 224.429ZM374.07 205.602C374.459 205.719 374.855 205.743 375.232 205.689L384.702 245.226L370.788 209.687L373.59 205.407C373.739 205.487 373.901 205.554 374.07 205.605L374.07 205.602ZM384.571 246.259C383.934 246.58 383.424 247.147 383.202 247.883C383.199 247.89 383.198 247.899 383.194 247.908L353.845 239.591C354.001 238.619 353.61 237.658 352.863 237.063L370.451 210.194L384.569 246.257L384.571 246.259ZM352.449 236.789C352.3 236.71 352.138 236.642 351.969 236.591C351.822 236.548 351.675 236.518 351.528 236.5L353.788 169.23C353.988 169.217 354.184 169.185 354.376 169.13L370.23 209.627L352.449 236.789ZM349.032 237.561C348.85 237.804 348.705 238.08 348.611 238.388C348.592 238.452 348.578 238.518 348.563 238.581L297.303 240.138C297.227 239.524 296.941 238.956 296.499 238.529L318.904 210.454L349.032 237.561ZM292.551 238.758C292.333 239.023 292.161 239.337 292.055 239.687C291.928 240.106 291.912 240.531 291.983 240.935L275.493 245.441L263.361 210.959C263.604 210.863 263.831 210.732 264.037 210.571L292.551 238.761L292.551 238.758ZM260.576 210.456L231.434 255.683C231.289 255.607 231.134 255.542 230.973 255.494C230.231 255.27 229.471 255.382 228.849 255.741L219.556 242.596L260.328 210.204C260.406 210.294 260.488 210.378 260.578 210.458L260.576 210.456ZM218.877 242.497L192.11 263.763C191.799 263.439 191.407 263.186 190.946 263.047C190.836 263.014 190.727 262.992 190.617 262.971L193.807 220.999L194.61 210.428C195.083 210.418 195.539 210.281 195.934 210.045L218.875 242.495L218.877 242.497ZM193.773 210.316C193.885 210.35 194 210.374 194.115 210.392L190.122 262.932C189.968 262.935 189.82 262.95 189.671 262.979L175.779 214.221L192.071 208.781C192.372 209.496 192.975 210.076 193.773 210.316ZM175.171 213.9L126.806 230.051C126.627 229.648 126.351 229.291 125.997 229.014L161.818 173.077C162.057 173.252 162.326 173.392 162.626 173.482C162.978 173.589 163.337 173.619 163.682 173.584L175.167 213.9L175.171 213.9ZM160.908 171.899C161.033 172.21 161.214 172.499 161.445 172.744L125.581 228.746C125.437 228.671 125.285 228.608 125.125 228.561C124.723 228.441 124.319 228.419 123.93 228.48L114.971 192.996L160.909 171.901L160.908 171.899ZM123.446 228.599C123.025 228.747 122.647 228.997 122.345 229.332L91.2759 206.12C91.3295 206.004 91.3776 205.887 91.4159 205.762C91.6133 205.11 91.5504 204.443 91.2879 203.869L114.509 193.205L123.446 228.599ZM90.5657 207.045L114.308 235.73L96.5735 244.339C96.2413 243.788 95.7157 243.355 95.0531 243.155C94.7594 243.066 94.4633 243.032 94.1726 243.043L89.5557 207.575C89.9257 207.471 90.2692 207.292 90.5657 207.045ZM96.6885 246.915C96.7513 246.787 96.8062 246.653 96.8499 246.513C97.0298 245.924 96.9923 245.321 96.791 244.786L114.634 236.123L150.174 279.065C150.083 279.157 149.996 279.259 149.918 279.366L96.6885 246.915ZM194.243 277.204C193.908 276.702 193.405 276.308 192.782 276.118C192.481 276.026 192.175 275.993 191.875 276.007L190.783 268.24C191.685 268.028 192.453 267.354 192.741 266.404C192.845 266.058 192.875 265.708 192.844 265.37L227.6 258.811C227.63 258.917 227.667 259.022 227.709 259.125L194.24 277.204L194.243 277.204ZM231.787 260.233C232.035 260.051 232.253 259.827 232.429 259.564L288.841 290.119C288.802 290.209 288.767 290.301 288.74 290.397C288.318 291.786 289.079 293.25 290.44 293.72L279.874 336.919C279.325 336.837 278.781 336.928 278.304 337.159L231.789 260.231L231.787 260.233ZM282 338.646C281.891 338.351 281.729 338.075 281.524 337.834L320.85 297.448L386.084 310.737L281.999 338.648L282 338.646ZM392.434 311.376C392.413 310.824 392.22 310.298 391.896 309.866L415.435 288.482L433.183 311.886C432.838 312.203 432.568 312.61 432.423 313.091C432.383 313.221 432.358 313.35 432.34 313.481L392.436 311.377L392.434 311.376ZM436.337 316.204C436.651 316.023 436.928 315.78 437.15 315.486L476.602 339.772L457.311 362.204L436.336 316.205L436.337 316.204ZM534.311 401.619C533.908 401.83 533.555 402.144 533.301 402.535L458.324 362.946L515.036 364.942C515.1 366.038 515.831 367.029 516.942 367.367C518.082 367.712 519.268 367.264 519.92 366.344L534.315 401.619L534.311 401.619ZM584.909 346.777L562.917 309.237L564.737 306.987C564.95 307.129 565.188 307.245 565.447 307.322C566.009 307.493 566.586 307.467 567.103 307.289L584.911 346.779L584.909 346.777ZM590.077 275.611C589.822 275.894 589.622 276.236 589.505 276.625C589.442 276.829 589.412 277.033 589.397 277.236L565.443 277.942L564.365 249.937C564.867 249.887 565.34 249.693 565.736 249.391L590.077 275.611ZM564.828 244.67C563.914 244.411 562.973 244.657 562.308 245.247L577.384 215.891L564.829 244.668L564.828 244.67ZM624.138 169.288C623.215 169.298 622.356 169.785 621.87 170.577L570.05 145.11L627.547 106.979C627.875 107.386 628.324 107.703 628.863 107.868C628.967 107.9 629.073 107.923 629.176 107.941L624.136 169.29L624.138 169.288ZM627.115 106.202C627.16 106.326 627.212 106.449 627.275 106.565L569.537 144.854L539.813 130.244C539.83 130.198 539.848 130.151 539.864 130.104C540.003 129.646 540.011 129.182 539.915 128.745L627.115 106.202ZM537.427 132.013C538.319 131.966 539.139 131.476 539.599 130.696L569.054 145.173L539.711 164.631C539.385 164.241 538.947 163.937 538.426 163.78C538.257 163.729 538.087 163.696 537.917 163.679L537.427 132.013ZM535.065 167.122C535.233 167.688 535.584 168.19 536.071 168.539L505.486 220.318L461.645 185.742C461.78 185.535 461.889 185.307 461.964 185.056C462.078 184.674 462.103 184.289 462.054 183.918L535.063 167.12L535.065 167.122ZM372.268 202.243C371.939 203.329 372.332 204.462 373.17 205.129L370.561 209.116L355.036 169.461L373.284 200.834C372.815 201.168 372.447 201.65 372.268 202.246L372.268 202.243ZM351.274 167.849C351.404 168.081 351.568 168.295 351.761 168.48L318.841 209.73L299.947 192.729C300.129 192.487 300.275 192.209 300.368 191.903C300.536 191.348 300.515 190.781 300.342 190.27L351.274 167.849ZM295.493 192.525C295.825 193.071 296.35 193.501 297.009 193.701C297.128 193.739 297.249 193.761 297.37 193.781L294.553 237.776C293.941 237.794 293.361 238.02 292.899 238.405L264.395 210.226C264.64 209.947 264.834 209.613 264.946 209.233C265.126 208.64 265.09 208.036 264.883 207.499L295.491 192.523L295.493 192.525ZM259.685 208.623C259.711 209.039 259.834 209.441 260.039 209.795L219.267 242.187L196.339 209.753C196.701 209.434 196.984 209.014 197.133 208.517C197.188 208.33 197.223 208.145 197.238 207.958L259.688 208.619L259.685 208.623ZM192.662 205.82C192.351 206.126 192.11 206.512 191.973 206.959C191.836 207.414 191.825 207.873 191.92 208.306L175.641 213.741L164.173 173.484C164.434 173.405 164.684 173.289 164.909 173.136L192.662 205.82ZM106.746 168.083C106.882 168.152 107.023 168.21 107.173 168.256C107.528 168.365 107.887 168.395 108.235 168.359L114.386 192.715L91.0403 203.436C90.8187 203.119 90.5264 202.847 90.1791 202.649L106.748 168.085L106.746 168.083Z" fill="#4F2B2B"/>
<path d="M257.158 78.0569C257.158 72.4088 252.58 67.8301 246.931 67.8301H47.2266C41.5785 67.8301 36.9998 72.4088 36.9998 78.0569V210.788C36.9998 216.436 41.5785 221.015 47.2266 221.015H246.931C252.58 221.015 257.158 216.436 257.158 210.788V78.0569Z" fill="#BF8888"/>
<path fill-rule="evenodd" clip-rule="evenodd" d="M256.907 75.666C262.555 75.666 267.134 80.2447 267.134 85.8928V178.986C275.243 187.856 285.774 188.259 310.951 181.658C296.124 198.477 286.433 206.064 267.134 212.787V218.624C267.134 224.272 262.555 228.851 256.907 228.851H57.2022C51.5542 228.851 46.9755 224.272 46.9755 218.624V85.8928C46.9755 80.2447 51.5542 75.666 57.2022 75.666H256.907Z" fill="#F4C9C9"/>
<path d="M98.5015 136.697H97.0215V147.418L98.5015 147.062V136.697Z" fill="#F6D6B3"/>
<path d="M90.5868 135.074C90.4277 135.074 90.2812 135.129 90.1631 135.22H91.0093C90.8923 135.129 90.7458 135.074 90.5856 135.074H90.5868Z" fill="#D8B694"/>
<path d="M91.3267 136.697H89.8467V149.145L91.3267 148.788V136.697Z" fill="#F6D6B3"/>
<path d="M97.7616 135.074C97.6025 135.074 97.456 135.129 97.3379 135.22H98.1841C98.0671 135.129 97.9206 135.074 97.7604 135.074H97.7616Z" fill="#D8B694"/>
<path d="M102.72 147.566L92.3569 150.061C92.283 150.092 92.2024 150.112 92.1172 150.119L89.8467 150.665V205.003H102.72V147.566Z" fill="#FBE4C6"/>
<path d="M132.237 147.369H104.196V205.005H132.237V147.369ZM124.068 197.753C124.068 198.161 123.738 198.492 123.33 198.492H112.362C111.955 198.492 111.624 198.161 111.624 197.753V185.978C111.624 184.158 112.813 182.563 114.582 182.011C115.068 181.859 115.531 181.645 115.958 181.375L117.452 180.432C117.693 180.28 118 180.28 118.24 180.432L119.734 181.375C120.161 181.645 120.624 181.859 121.111 182.011C122.88 182.564 124.068 184.159 124.068 185.978V197.753ZM124.068 172.156C124.068 172.564 123.738 172.895 123.33 172.895H112.362C111.955 172.895 111.624 172.564 111.624 172.156V160.381C111.624 158.56 112.813 156.966 114.582 156.414C115.068 156.262 115.531 156.048 115.958 155.778L117.452 154.835C117.693 154.683 118 154.683 118.24 154.835L119.734 155.778C120.161 156.048 120.624 156.262 121.111 156.414C122.88 156.967 124.068 158.562 124.068 160.381V172.156Z" fill="#FBE4C6"/>
<path d="M120.671 183.417C120.062 183.227 119.482 182.959 118.945 182.62L117.847 181.926L116.749 182.62C116.213 182.958 115.632 183.226 115.023 183.417C113.874 183.776 113.102 184.804 113.102 185.976V197.013H122.593V185.976C122.593 184.805 121.82 183.777 120.671 183.417Z" fill="#FBE4C6"/>
<path d="M120.671 157.821C120.062 157.632 119.482 157.363 118.945 157.024L117.847 156.33L116.748 157.024C116.211 157.363 115.631 157.631 115.023 157.821C113.874 158.18 113.102 159.208 113.102 160.38V171.417H122.593V160.38C122.593 159.209 121.82 158.181 120.671 157.821Z" fill="#FBE4C6"/>
<path d="M74.8964 117.83H82.7575L83.2311 116.794C84.1296 114.831 83.8104 112.27 82.4883 110.835C81.9715 110.275 81.4956 109.969 80.9902 109.645C80.2473 109.168 79.4818 108.676 78.8264 107.469C78.1699 108.676 77.4043 109.168 76.6626 109.645C76.1583 109.97 75.6813 110.275 75.1645 110.835C73.8424 112.27 73.5221 114.831 74.4216 116.794L74.8953 117.829L74.8964 117.83Z" fill="#FBE4C6"/>
<path d="M75.1501 119.307L75.1455 122.454H82.6465L82.642 119.307H75.1501Z" fill="#FBE4C6"/>
<path d="M75.0728 172.875H82.7146L82.6806 147.369H75.1091L75.0728 172.875Z" fill="#FBE4C6"/>
<path d="M244.509 206.479H235.299H235.298H83.4972H74.2868H74.2856H68.4009V213.188H247.132V206.479H244.51H244.509Z" fill="#FBE4C6"/>
<path d="M75.0269 205H82.7585L82.7176 174.348H75.0712L75.0269 205Z" fill="#FBE4C6"/>
<path d="M75.1113 145.89H82.6782L82.6487 123.932H75.1431L75.1113 145.89Z" fill="#FBE4C6"/>
<path d="M235.909 117.83H243.77L244.244 116.794C245.142 114.831 244.823 112.27 243.501 110.835C242.984 110.275 242.508 109.969 242.003 109.645C241.26 109.168 240.494 108.676 239.839 107.469C239.183 108.676 238.417 109.168 237.675 109.645C237.171 109.97 236.694 110.275 236.177 110.835C234.855 112.27 234.535 114.831 235.434 116.794L235.908 117.829L235.909 117.83Z" fill="#FBE4C6"/>
<path d="M236.162 119.307L236.157 122.454H243.658L243.655 119.307H236.162Z" fill="#FBE4C6"/>
<path d="M236.084 172.875H243.726L243.692 147.369H236.12L236.084 172.875Z" fill="#FBE4C6"/>
<path d="M236.123 145.89H243.69L243.66 123.932H236.155L236.123 145.89Z" fill="#FBE4C6"/>
<path d="M187.035 138.291L185.707 136.346V145.894H187.091V138.363C187.072 138.34 187.052 138.316 187.035 138.291Z" fill="#FBE4C6"/>
<path d="M185.707 205.005H214.197V147.369H185.707V205.005ZM193.77 160.382C193.77 158.562 194.959 156.967 196.728 156.415C197.214 156.263 197.676 156.049 198.104 155.779L199.598 154.836C199.839 154.684 200.145 154.684 200.386 154.836L201.88 155.779C202.307 156.049 202.77 156.263 203.256 156.415C205.026 156.968 206.214 158.563 206.214 160.382V172.158C206.214 172.565 205.883 172.896 205.476 172.896H194.508C194.1 172.896 193.77 172.565 193.77 172.158V160.382ZM193.77 185.979C193.77 184.159 194.959 182.564 196.728 182.012C197.214 181.86 197.676 181.646 198.104 181.376L199.597 180.433C199.837 180.281 200.144 180.281 200.385 180.433L201.879 181.376C202.306 181.646 202.769 181.86 203.255 182.012C205.025 182.565 206.213 184.16 206.213 185.979V197.755C206.213 198.162 205.882 198.493 205.475 198.493H194.507C194.099 198.493 193.769 198.162 193.769 197.755V185.979H193.77Z" fill="#FBE4C6"/>
<path d="M210.165 145.886V139.021H188.566V145.886H189.451V142.432C189.451 140.893 190.704 139.641 192.243 139.641H192.368C193.907 139.641 195.16 140.893 195.16 142.432V145.886H196.51V142.432C196.51 140.893 197.763 139.641 199.302 139.641H199.427C200.966 139.641 202.219 140.893 202.219 142.432V145.886H203.471V142.432C203.471 140.893 204.724 139.641 206.263 139.641H206.388C207.927 139.641 209.179 140.893 209.179 142.432V145.886H210.163H210.165Z" fill="#FBE4C6"/>
<path d="M204.738 185.976C204.738 184.805 203.966 183.777 202.816 183.417C202.207 183.227 201.627 182.959 201.091 182.62L199.993 181.926L198.894 182.62C198.358 182.958 197.778 183.226 197.169 183.417C196.019 183.776 195.247 184.804 195.247 185.976V197.013H204.738V185.976Z" fill="#FBE4C6"/>
<path d="M236.039 205H243.771L243.73 174.348H236.083L236.039 205Z" fill="#FBE4C6"/>
<path d="M219.86 135.238C219.701 135.238 219.554 135.293 219.436 135.384H220.282C220.165 135.293 220.019 135.238 219.859 135.238H219.86Z" fill="#D8B694"/>
<path d="M227.774 136.857H226.295V149.566L227.774 150.05V136.857Z" fill="#F6D6B3"/>
<path d="M227.034 135.238C226.875 135.238 226.728 135.293 226.61 135.384H227.457C227.34 135.293 227.193 135.238 227.033 135.238H227.034Z" fill="#D8B694"/>
<path d="M220.599 136.857H219.12V147.22L220.599 147.703V136.857Z" fill="#FBE4C6"/>
<path d="M204.738 160.38C204.738 159.209 203.966 158.181 202.816 157.821C202.207 157.632 201.627 157.363 201.091 157.024L199.993 156.33L198.894 157.024C198.358 157.363 197.778 157.631 197.169 157.821C196.019 158.18 195.247 159.208 195.247 160.38V171.417H204.738V160.38Z" fill="#FBE4C6"/>
<path d="M227.788 151.609L218.407 148.541C218.398 148.541 218.388 148.542 218.379 148.542C218.205 148.542 218.046 148.482 217.919 148.381L215.67 147.645V204.999H227.787V151.607L227.788 151.609Z" fill="#FBE4C6"/>
<path d="M107.158 137.55H129.276C129.292 137.518 129.309 137.488 129.329 137.457L131.192 134.729C131.259 134.63 131.324 134.529 131.387 134.428L128.225 129.795C126.458 127.205 125.337 124.333 124.9 121.371C124.862 121.354 124.823 121.337 124.785 121.321C124.769 121.314 124.753 121.308 124.737 121.301H111.699C111.683 121.308 111.667 121.314 111.651 121.321C110.292 121.907 108.887 122.513 107.401 123.594C105.586 124.915 104.369 126.77 103.976 128.819C103.584 130.858 104.035 132.957 105.244 134.727L107.106 137.456C107.127 137.485 107.144 137.517 107.16 137.549L107.158 137.55Z" fill="#FBE4C6"/>
<path d="M173.742 172.442C173.742 168.537 171.177 165.111 167.36 163.919C165.752 163.417 164.218 162.708 162.8 161.813L158.973 159.395L155.145 161.813C153.727 162.708 152.194 163.417 150.586 163.919C146.768 165.111 144.205 168.536 144.205 172.442V183.593H154.73V176.756C154.73 175.476 155.565 174.353 156.808 173.966C157.096 173.876 157.371 173.749 157.624 173.589L158.579 172.986C158.819 172.834 159.126 172.834 159.367 172.986L160.321 173.589C160.575 173.749 160.849 173.876 161.138 173.966C162.38 174.355 163.215 175.476 163.215 176.756V183.593H173.741V172.442H173.742Z" fill="#FBE4C6"/>
<path d="M173.74 185.07H167.832V205.001H173.74V185.07Z" fill="#FBE4C6"/>
<path d="M166.355 205.001V185.07H151.588V205.001H154.728V198.215C154.728 196.935 155.563 195.813 156.806 195.426C157.094 195.336 157.369 195.209 157.623 195.049L158.577 194.445C158.817 194.293 159.124 194.293 159.365 194.445L160.319 195.049C160.572 195.209 160.847 195.336 161.136 195.426C162.378 195.814 163.213 196.935 163.213 198.215V205.001H166.354H166.355Z" fill="#FBE4C6"/>
<path d="M184.229 205.002V143.197H133.713V205.002H137.477V153.297C137.477 152.889 137.808 152.559 138.215 152.559H179.725C180.133 152.559 180.464 152.889 180.464 153.297V205.002H184.228H184.229Z" fill="#FBE4C6"/>
<path d="M178.989 205.002V154.035H138.956V205.002H142.727V172.444C142.727 167.889 145.708 163.898 150.145 162.511C151.63 162.047 153.047 161.392 154.355 160.565L158.577 157.898C158.818 157.746 159.125 157.746 159.365 157.898L163.587 160.565C164.896 161.392 166.313 162.046 167.798 162.511C172.234 163.896 175.216 167.888 175.216 172.444V205.002H178.987H178.989Z" fill="#FBE4C6"/>
<path d="M118.92 117.074L118.216 116.074L117.513 117.074C116.625 118.336 115.666 119.178 114.657 119.824H121.776C120.766 119.178 119.807 118.337 118.92 117.074Z" fill="#FBE4C6"/>
<path d="M160.695 175.374C160.284 175.246 159.892 175.065 159.53 174.836L158.97 174.482L158.41 174.836C158.048 175.065 157.656 175.246 157.245 175.374C156.622 175.568 156.203 176.124 156.203 176.754V183.592H161.735V176.754C161.735 176.123 161.317 175.568 160.693 175.374H160.695Z" fill="#FBE4C6"/>
<path d="M159.531 196.297L158.971 195.943L158.412 196.297C158.049 196.525 157.657 196.707 157.246 196.835C156.624 197.029 156.205 197.585 156.205 198.215V205H161.736V198.215C161.736 197.583 161.318 197.029 160.695 196.835C160.283 196.707 159.891 196.526 159.529 196.297H159.531Z" fill="#FBE4C6"/>
<path d="M184.229 136.697H133.713V141.72H184.229V136.697Z" fill="#FBE4C6"/>
<path d="M150.113 185.07H144.205V205.001H150.113V185.07Z" fill="#FBE4C6"/>
<path d="M130.493 138.36V145.891H132.237V135.959C132.237 135.898 132.245 135.84 132.259 135.783L130.548 138.289C130.531 138.314 130.512 138.338 130.493 138.36Z" fill="#FBE4C6"/>
<path d="M161.252 88.7875L158.959 85.5254L156.665 88.7875C153.759 92.9185 150.461 94.9585 146.956 96.6032H170.961C167.456 94.9585 164.158 92.9185 161.252 88.7875Z" fill="#FBE4C6"/>
<path d="M186.36 134.681C186.372 134.697 186.382 134.714 186.392 134.73L188.254 137.458C188.274 137.487 188.291 137.519 188.307 137.551H210.425C210.441 137.519 210.458 137.488 210.479 137.458L212.341 134.73C213.55 132.959 214.001 130.86 213.609 128.821C213.216 126.772 211.999 124.916 210.184 123.596C208.785 122.578 207.458 121.982 206.175 121.427L193.016 121.393C192.579 124.348 191.459 127.213 189.695 129.797L186.36 134.682V134.681Z" fill="#FBE4C6"/>
<path d="M200.069 117.074L199.366 116.074L198.662 117.074C197.73 118.4 196.718 119.264 195.651 119.92L203.11 119.939C202.032 119.28 201.01 118.413 200.067 117.073L200.069 117.074Z" fill="#FBE4C6"/>
<path d="M129.017 145.886V139.021H107.418V145.886H108.304V142.432C108.304 140.893 109.557 139.641 111.096 139.641H111.221C112.76 139.641 114.013 140.893 114.013 142.432V145.886H115.363V142.432C115.363 140.893 116.616 139.641 118.155 139.641H118.28C119.819 139.641 121.072 140.893 121.072 142.432V145.886H122.325V142.432C122.325 140.893 123.577 139.641 125.116 139.641H125.241C126.78 139.641 128.033 140.893 128.033 142.432V145.886H129.017Z" fill="#FBE4C6"/>
<path d="M132.744 133.801C132.855 133.891 132.934 134.011 132.977 134.141L133.573 135.014C133.619 135.079 133.65 135.15 133.672 135.223H184.247C184.269 135.15 184.301 135.079 184.346 135.014L184.881 134.23L186.672 131.607H175.514C175.106 131.607 174.775 131.277 174.775 130.869C174.775 130.461 175.106 130.131 175.514 130.131H187.681L188.477 128.964C191.295 124.837 192.343 119.943 191.429 115.184C191.146 113.709 190.679 112.277 190.047 110.912H171.501C171.093 110.912 170.763 110.582 170.763 110.174C170.763 109.766 171.093 109.436 171.501 109.436H189.28C188.69 108.409 188.001 107.429 187.221 106.506H167.094C166.686 106.506 166.356 106.176 166.356 105.768C166.356 105.36 166.686 105.03 167.094 105.03H185.842C185.113 104.32 184.324 103.654 183.479 103.04C180.256 100.694 177.229 99.3462 174.302 98.082H143.617C140.69 99.3462 137.663 100.696 134.44 103.04C130.229 106.103 127.407 110.416 126.491 115.185C125.578 119.945 126.626 124.838 129.443 128.965L132.745 133.802L132.744 133.801ZM165.116 130.131H171.274C171.681 130.131 172.012 130.461 172.012 130.869C172.012 131.277 171.681 131.607 171.274 131.607H165.116C164.709 131.607 164.378 131.277 164.378 130.869C164.378 130.461 164.709 130.131 165.116 130.131Z" fill="#FBE4C6"/>
<path d="M121.112 156.412C120.626 156.26 120.162 156.046 119.735 155.776L118.242 154.833C118.001 154.681 117.694 154.681 117.453 154.833L115.96 155.776C115.533 156.046 115.069 156.26 114.583 156.412C112.814 156.965 111.625 158.56 111.625 160.379V172.154C111.625 172.562 111.956 172.893 112.364 172.893H123.331C123.739 172.893 124.07 172.562 124.07 172.154V160.379C124.07 158.558 122.88 156.964 121.112 156.412ZM122.593 171.416H113.102V160.379C113.102 159.208 113.874 158.18 115.024 157.82C115.633 157.63 116.213 157.361 116.748 157.023L117.848 156.329L118.946 157.023C119.482 157.361 120.062 157.629 120.671 157.82C121.821 158.179 122.593 159.207 122.593 160.379V171.416Z" fill="#3A312B"/>
<path d="M121.112 182.009C120.626 181.857 120.162 181.644 119.735 181.373L118.242 180.431C118.001 180.278 117.694 180.278 117.453 180.431L115.96 181.373C115.533 181.644 115.069 181.857 114.583 182.009C112.814 182.563 111.625 184.157 111.625 185.977V197.752C111.625 198.16 111.956 198.49 112.364 198.49H123.331C123.739 198.49 124.07 198.16 124.07 197.752V185.977C124.07 184.156 122.88 182.561 121.112 182.009ZM122.593 197.014H113.102V185.977C113.102 184.806 113.874 183.778 115.024 183.418C115.633 183.228 116.213 182.96 116.749 182.62L117.848 181.926L118.946 182.62C119.482 182.959 120.062 183.227 120.671 183.418C121.821 183.777 122.593 184.805 122.593 185.977V197.014Z" fill="#3A312B"/>
<path d="M194.507 172.893H205.475C205.883 172.893 206.213 172.562 206.213 172.154V160.379C206.213 158.558 205.024 156.964 203.256 156.412C202.769 156.26 202.306 156.046 201.879 155.776L200.385 154.833C200.144 154.681 199.838 154.681 199.597 154.833L198.103 155.776C197.676 156.046 197.213 156.26 196.727 156.412C194.957 156.965 193.769 158.56 193.769 160.379V172.154C193.769 172.562 194.1 172.893 194.507 172.893ZM195.246 160.379C195.246 159.208 196.018 158.18 197.167 157.82C197.776 157.63 198.357 157.362 198.893 157.023L199.991 156.329L201.089 157.023C201.626 157.361 202.206 157.629 202.815 157.82C203.964 158.179 204.737 159.207 204.737 160.379V171.416H195.246V160.379Z" fill="#3A312B"/>
<path d="M194.507 198.49H205.474C205.882 198.49 206.213 198.16 206.213 197.752V185.977C206.213 184.156 205.023 182.561 203.255 182.009C202.769 181.857 202.305 181.644 201.878 181.373L200.385 180.431C200.144 180.278 199.837 180.278 199.596 180.431L198.104 181.373C197.676 181.644 197.213 181.857 196.727 182.009C194.958 182.563 193.77 184.157 193.77 185.977V197.752C193.77 198.16 194.1 198.49 194.508 198.49H194.507ZM195.245 185.977C195.245 184.806 196.017 183.778 197.167 183.418C197.776 183.228 198.355 182.96 198.892 182.62L199.99 181.926L201.089 182.62C201.625 182.959 202.205 183.227 202.814 183.418C203.964 183.777 204.736 184.805 204.736 185.977V197.014H195.245V185.977Z" fill="#3A312B"/>
<path d="M165.117 131.604H171.274C171.682 131.604 172.012 131.273 172.012 130.865C172.012 130.457 171.682 130.127 171.274 130.127H165.117C164.709 130.127 164.378 130.457 164.378 130.865C164.378 131.273 164.709 131.604 165.117 131.604Z" fill="#4F2B2B"/>
<path d="M247.87 205.001H245.246L245.206 174.349H245.712C246.12 174.349 246.45 174.018 246.45 173.611C246.45 173.203 246.12 172.872 245.712 172.872H245.204L245.17 147.366H245.713C246.121 147.366 246.452 147.035 246.452 146.628C246.452 146.22 246.121 145.889 245.713 145.889H245.169L245.14 123.581C245.209 123.468 245.25 123.335 245.25 123.193C245.25 123.051 245.209 122.917 245.138 122.805L245.133 118.567C245.133 118.522 245.128 118.478 245.12 118.435L245.591 117.41C246.741 114.897 246.321 111.711 244.591 109.836C243.947 109.137 243.34 108.748 242.807 108.404C242.056 107.921 241.513 107.572 241 106.485L240.511 105.45C240.39 105.191 240.129 105.027 239.843 105.027C239.557 105.027 239.297 105.191 239.175 105.45L238.687 106.485C238.175 107.572 237.632 107.921 236.88 108.404C236.345 108.747 235.739 109.136 235.095 109.836C233.366 111.712 232.945 114.897 234.096 117.41L234.69 118.706L234.684 122.791C234.609 122.907 234.565 123.044 234.565 123.193C234.565 123.342 234.608 123.477 234.683 123.593L234.651 145.889H234.102C233.694 145.889 233.363 146.22 233.363 146.628C233.363 147.035 233.694 147.366 234.102 147.366H234.649L234.613 172.872H234.102C233.694 172.872 233.363 173.203 233.363 173.611C233.363 174.018 233.694 174.349 234.102 174.349H234.61L234.566 205.001H229.271V151.075C229.271 151.025 229.264 150.977 229.255 150.929V136.12C229.255 136.027 229.237 135.938 229.205 135.857C229.174 134.951 228.588 134.188 227.776 133.893V132.044C227.776 131.636 227.446 131.305 227.038 131.305C226.63 131.305 226.3 131.636 226.3 132.044V133.893C225.489 134.188 224.903 134.951 224.871 135.857C224.839 135.938 224.821 136.028 224.821 136.121V149.086L222.079 148.188V136.121C222.079 136.028 222.061 135.94 222.029 135.857C221.998 134.953 221.412 134.188 220.6 133.893V132.044C220.6 131.636 220.269 131.305 219.862 131.305C219.454 131.305 219.123 131.636 219.123 132.044V133.893C218.312 134.188 217.726 134.951 217.695 135.857C217.663 135.938 217.645 136.028 217.645 136.121V146.739L215.165 145.928C215.165 145.928 215.164 145.928 215.163 145.928C215.145 145.922 215.126 145.918 215.108 145.913C215.103 145.912 215.096 145.91 215.09 145.909C215.076 145.905 215.063 145.904 215.049 145.902C215.038 145.9 215.026 145.897 215.015 145.896C215.007 145.896 214.998 145.896 214.99 145.895C214.973 145.894 214.956 145.893 214.94 145.893C214.939 145.893 214.938 145.893 214.937 145.893H211.645V138.362C211.664 138.34 211.684 138.316 211.701 138.291L213.564 135.562C216.511 131.244 215.433 125.586 211.056 122.403C209.481 121.258 207.975 120.594 206.638 120.017C206.628 120.013 206.618 120.008 206.608 120.004C206.579 119.991 206.55 119.979 206.521 119.966C204.511 119.1 202.774 118.35 201.28 116.226L199.973 114.368C199.835 114.171 199.61 114.054 199.369 114.054C199.128 114.054 198.903 114.171 198.765 114.368L197.459 116.226C196.215 117.996 194.802 118.81 193.203 119.535C193.28 117.997 193.175 116.444 192.88 114.905C192.546 113.168 191.979 111.489 191.2 109.899C191.188 109.868 191.173 109.837 191.156 109.807C190.363 108.211 189.357 106.706 188.157 105.325C188.133 105.294 188.107 105.263 188.078 105.236C186.986 103.994 185.739 102.855 184.35 101.844C180.991 99.401 177.883 98.0164 174.877 96.7193C174.812 96.6784 174.741 96.6466 174.665 96.6273C174.599 96.5989 174.533 96.5705 174.468 96.5421C169.884 94.5646 165.924 92.8575 162.465 87.9382L159.567 83.8174C159.429 83.6209 159.204 83.5039 158.963 83.5039C158.722 83.5039 158.497 83.6209 158.359 83.8174L155.461 87.9382C152.001 92.8575 148.042 94.5646 143.458 96.5421C143.367 96.5819 143.275 96.6205 143.183 96.6602C143.181 96.6602 143.179 96.6614 143.177 96.6625C140.132 97.9767 136.981 99.3658 133.575 101.844C129.06 105.128 126.031 109.767 125.045 114.905C124.739 116.495 124.637 118.099 124.73 119.688C122.99 118.923 121.464 118.122 120.131 116.227L118.825 114.369C118.686 114.172 118.462 114.055 118.221 114.055C117.98 114.055 117.755 114.172 117.616 114.369L116.31 116.227C114.864 118.282 113.192 119.051 111.265 119.883C111.263 119.883 111.26 119.886 111.257 119.887C111.194 119.914 111.132 119.941 111.068 119.969C109.702 120.558 108.154 121.226 106.534 122.404C102.157 125.589 101.079 131.246 104.026 135.564L105.889 138.292C105.906 138.317 105.925 138.341 105.945 138.363V145.894H103.462C103.462 145.894 103.456 145.894 103.453 145.894C103.438 145.894 103.423 145.895 103.408 145.896C103.397 145.896 103.386 145.897 103.375 145.9C103.364 145.901 103.353 145.903 103.342 145.904C103.328 145.906 103.313 145.909 103.299 145.912C103.296 145.912 103.294 145.912 103.29 145.914L99.9827 146.711V135.962C99.9827 135.869 99.9645 135.781 99.9327 135.698C99.902 134.794 99.3159 134.029 98.5038 133.734V131.885C98.5038 131.477 98.1733 131.146 97.7655 131.146C97.3578 131.146 97.0272 131.477 97.0272 131.885V133.734C96.2163 134.029 95.6302 134.792 95.5984 135.698C95.5666 135.779 95.5484 135.869 95.5484 135.962V147.777L92.8065 148.437V135.962C92.8065 135.869 92.7883 135.781 92.7565 135.698C92.7259 134.794 92.1398 134.029 91.3276 133.734V131.885C91.3276 131.477 90.9971 131.146 90.5894 131.146C90.1816 131.146 89.8511 131.477 89.8511 131.885V133.734C89.0401 134.029 88.454 134.792 88.4222 135.698C88.3904 135.779 88.3722 135.869 88.3722 135.962V205.005H84.2367L84.1958 174.352H84.7023C85.1101 174.352 85.4406 174.022 85.4406 173.614C85.4406 173.206 85.1101 172.876 84.7023 172.876H84.1946L84.1606 147.369H84.7035C85.1112 147.369 85.4418 147.039 85.4418 146.631C85.4418 146.223 85.1112 145.893 84.7035 145.893H84.1594L84.1299 123.583C84.1992 123.47 84.2401 123.339 84.2401 123.196C84.2401 123.052 84.1992 122.92 84.1287 122.807L84.1231 118.569C84.1231 118.524 84.1185 118.481 84.1106 118.438L84.5808 117.412C85.7314 114.899 85.3111 111.713 83.5813 109.838C82.9373 109.14 82.3307 108.75 81.7969 108.406C81.0461 107.923 80.5032 107.574 79.9898 106.487L79.5014 105.453C79.3798 105.194 79.1197 105.029 78.8335 105.029C78.5473 105.029 78.2872 105.194 78.1656 105.453L77.6772 106.487C77.165 107.574 76.622 107.923 75.8701 108.406C75.3351 108.749 74.7297 109.138 74.0857 109.838C72.3559 111.715 71.9356 114.899 73.0862 117.412L73.6802 118.708L73.6746 122.793C73.5996 122.909 73.5553 123.047 73.5553 123.196C73.5553 123.344 73.5985 123.479 73.6734 123.595L73.6416 145.892H73.0919C72.6841 145.892 72.3536 146.222 72.3536 146.63C72.3536 147.038 72.6841 147.368 73.0919 147.368H73.6405L73.6041 172.875H73.093C72.6853 172.875 72.3547 173.205 72.3547 173.613C72.3547 174.021 72.6853 174.351 73.093 174.351H73.6019L73.5576 205.004H67.6626C67.2548 205.004 66.9243 205.334 66.9243 205.742V213.928C66.9243 214.336 67.2548 214.666 67.6626 214.666H247.87C248.278 214.666 248.608 214.336 248.608 213.928V205.742C248.608 205.334 248.278 205.004 247.87 205.004V205.001ZM236.178 110.837C236.695 110.277 237.171 109.97 237.676 109.646C238.419 109.169 239.184 108.677 239.84 107.47C240.496 108.677 241.262 109.169 242.004 109.646C242.508 109.971 242.985 110.277 243.502 110.837C244.824 112.271 245.144 114.832 244.245 116.795L243.771 117.831H235.91L235.436 116.796C234.538 114.834 234.857 112.272 236.179 110.838L236.178 110.837ZM243.661 123.932L243.69 145.889H236.123L236.155 123.932H243.661ZM236.157 122.455L236.162 119.306H243.655L243.66 122.455H236.159H236.157ZM243.693 147.366L243.727 172.872H236.085L236.121 147.366H243.691H243.693ZM243.729 174.349L243.77 205.001H236.039L236.084 174.349H243.729ZM227.034 135.236C227.193 135.236 227.34 135.291 227.458 135.382H226.612C226.729 135.291 226.875 135.236 227.036 135.236H227.034ZM226.295 136.858H227.775V150.051L226.295 149.567V136.858ZM219.861 135.236C220.02 135.236 220.166 135.291 220.284 135.382H219.438C219.555 135.291 219.702 135.236 219.862 135.236H219.861ZM219.121 136.858H220.601V147.704L219.121 147.221V136.858ZM215.674 147.647L217.923 148.383C218.049 148.484 218.208 148.544 218.383 148.544C218.392 148.544 218.402 148.544 218.411 148.543L227.792 151.611V205.003H215.675V147.648L215.674 147.647ZM214.197 147.367V205.003H185.707V147.367H214.197ZM185.707 145.891V136.343L187.036 138.288C187.053 138.313 187.073 138.337 187.092 138.36V145.891H185.707ZM206.392 139.643H206.267C204.728 139.643 203.475 140.896 203.475 142.435V145.889H202.223V142.435C202.223 140.896 200.971 139.643 199.432 139.643H199.307C197.768 139.643 196.515 140.896 196.515 142.435V145.889H195.164V142.435C195.164 140.896 193.911 139.643 192.372 139.643H192.247C190.708 139.643 189.456 140.896 189.456 142.435V145.889H188.571V139.024H210.17V145.889H209.186V142.435C209.186 140.896 207.933 139.643 206.394 139.643H206.392ZM207.707 142.435V145.889H204.951V142.435C204.951 141.71 205.541 141.12 206.266 141.12H206.391C207.117 141.12 207.706 141.711 207.706 142.435H207.707ZM200.746 142.435V145.889H197.989V142.435C197.989 141.71 198.58 141.12 199.304 141.12H199.429C200.155 141.12 200.745 141.711 200.745 142.435H200.746ZM193.686 142.435V145.889H190.93V142.435C190.93 141.71 191.52 141.12 192.245 141.12H192.37C193.096 141.12 193.685 141.711 193.685 142.435H193.686ZM198.665 117.073L199.368 116.074L200.071 117.073C201.013 118.413 202.036 119.28 203.114 119.94L195.655 119.921C196.721 119.263 197.732 118.4 198.666 117.075L198.665 117.073ZM193.017 121.39L206.176 121.424C207.46 121.979 208.786 122.575 210.186 123.593C212.001 124.914 213.217 126.769 213.61 128.818C214.002 130.857 213.551 132.956 212.342 134.726L210.48 137.455C210.459 137.484 210.442 137.516 210.426 137.548H188.308C188.292 137.516 188.275 137.485 188.255 137.455L186.393 134.726C186.382 134.711 186.372 134.694 186.362 134.678L189.696 129.792C191.46 127.208 192.58 124.344 193.017 121.388V121.39ZM156.665 88.7867L158.96 85.5245L161.253 88.7867C164.158 92.9177 167.457 94.9576 170.962 96.6023H146.956C150.461 94.9576 153.76 92.9177 156.665 88.7867ZM126.491 115.182C127.406 110.413 130.229 106.1 134.439 103.037C137.663 100.691 140.69 99.3431 143.617 98.0789H174.301C177.228 99.3431 180.255 100.692 183.479 103.037C184.324 103.651 185.112 104.318 185.841 105.027H167.093C166.686 105.027 166.355 105.357 166.355 105.765C166.355 106.173 166.686 106.503 167.093 106.503H187.22C188.001 107.426 188.689 108.406 189.279 109.433H171.5C171.093 109.433 170.762 109.763 170.762 110.171C170.762 110.579 171.093 110.909 171.5 110.909H190.046C190.679 112.275 191.146 113.706 191.428 115.181C192.342 119.94 191.293 124.833 188.476 128.961L187.68 130.128H175.513C175.105 130.128 174.775 130.458 174.775 130.866C174.775 131.274 175.105 131.604 175.513 131.604H186.672L184.88 134.227L184.345 135.01C184.3 135.076 184.268 135.147 184.247 135.219H133.671C133.65 135.147 133.618 135.076 133.573 135.01L132.976 134.138C132.933 134.008 132.855 133.888 132.743 133.797L129.442 128.961C126.624 124.833 125.575 119.94 126.49 115.181L126.491 115.182ZM179.726 152.558H138.216C137.808 152.558 137.478 152.888 137.478 153.296V205.001H133.713V143.196H184.23V205.001H180.465V153.296C180.465 152.888 180.135 152.558 179.727 152.558H179.726ZM167.799 162.511C166.313 162.048 164.897 161.392 163.588 160.566L159.366 157.899C159.125 157.746 158.819 157.746 158.578 157.899L154.356 160.566C153.048 161.392 151.63 162.047 150.146 162.511C145.709 163.897 142.727 167.888 142.727 172.444V205.003H138.956V154.036H178.99V205.003H175.219V172.444C175.219 167.889 172.237 163.898 167.801 162.511H167.799ZM163.213 183.594V176.757C163.213 175.477 162.378 174.355 161.136 173.967C160.847 173.877 160.572 173.75 160.319 173.59L159.365 172.987C159.124 172.835 158.818 172.835 158.577 172.987L157.623 173.59C157.369 173.75 157.095 173.877 156.806 173.967C155.563 174.356 154.729 175.477 154.729 176.757V183.594H144.203V172.443C144.203 168.538 146.768 165.112 150.584 163.92C152.191 163.418 153.726 162.709 155.143 161.814L158.971 159.396L162.799 161.814C164.216 162.709 165.75 163.418 167.358 163.92C171.175 165.112 173.74 168.537 173.74 172.443V183.594H163.214H163.213ZM173.739 185.071V205.001H167.83V185.071H173.739ZM161.136 195.426C160.847 195.337 160.572 195.21 160.319 195.049L159.365 194.446C159.124 194.294 158.818 194.294 158.577 194.446L157.623 195.049C157.368 195.21 157.093 195.337 156.806 195.426C155.563 195.815 154.729 196.936 154.729 198.216V205.001H151.588V185.071H166.355V205.001H163.214V198.216C163.214 196.936 162.38 195.814 161.137 195.426H161.136ZM161.737 198.216V205.001H156.205V198.216C156.205 197.585 156.623 197.03 157.247 196.836C157.657 196.708 158.049 196.527 158.412 196.298L158.972 195.944L159.532 196.298C159.894 196.526 160.286 196.708 160.697 196.836C161.32 197.03 161.739 197.586 161.739 198.216H161.737ZM156.205 183.594V176.757C156.205 176.125 156.623 175.571 157.247 175.377C157.658 175.248 158.05 175.068 158.412 174.838L158.972 174.485L159.532 174.838C159.894 175.068 160.286 175.248 160.697 175.377C161.32 175.571 161.739 176.126 161.739 176.757V183.594H156.207H156.205ZM150.111 185.071V205.001H144.203V185.071H150.111ZM133.713 141.72V136.697H184.23V141.72H133.713ZM117.514 117.075L118.217 116.075L118.92 117.075C119.809 118.336 120.767 119.179 121.777 119.824H114.658C115.667 119.179 116.627 118.338 117.514 117.075ZM105.243 134.729C104.033 132.958 103.583 130.859 103.975 128.82C104.368 126.771 105.585 124.915 107.4 123.595C108.886 122.514 110.291 121.907 111.65 121.323C111.666 121.316 111.682 121.309 111.698 121.302H124.736C124.752 121.309 124.768 121.316 124.784 121.323C124.822 121.34 124.861 121.357 124.899 121.373C125.334 124.335 126.455 127.206 128.224 129.796L131.386 134.429C131.323 134.53 131.259 134.631 131.191 134.73L129.328 137.458C129.308 137.488 129.291 137.519 129.275 137.551H107.157C107.141 137.519 107.124 137.489 107.103 137.458L105.24 134.73L105.243 134.729ZM132.26 135.783C132.246 135.84 132.238 135.899 132.238 135.959V145.891H130.493V138.36C130.513 138.337 130.532 138.313 130.549 138.288L132.26 135.783ZM125.241 139.643H125.116C123.577 139.643 122.324 140.896 122.324 142.435V145.889H121.072V142.435C121.072 140.896 119.819 139.643 118.28 139.643H118.155C116.616 139.643 115.363 140.896 115.363 142.435V145.889H114.012V142.435C114.012 140.896 112.76 139.643 111.221 139.643H111.096C109.557 139.643 108.304 140.896 108.304 142.435V145.889H107.418V139.024H129.017V145.889H128.033V142.435C128.033 140.896 126.78 139.643 125.241 139.643ZM126.557 142.435V145.889H123.801V142.435C123.801 141.71 124.392 141.12 125.116 141.12H125.241C125.967 141.12 126.557 141.711 126.557 142.435ZM119.595 142.435V145.889H116.838V142.435C116.838 141.71 117.429 141.12 118.154 141.12H118.279C119.004 141.12 119.594 141.711 119.594 142.435H119.595ZM112.536 142.435V145.889H109.78V142.435C109.78 141.71 110.371 141.12 111.096 141.12H111.221C111.946 141.12 112.536 141.711 112.536 142.435ZM104.197 147.366H132.238V205.001H104.197V147.366ZM97.761 135.074C97.92 135.074 98.0665 135.129 98.1847 135.219H97.3385C97.4555 135.129 97.602 135.074 97.7621 135.074H97.761ZM97.0216 136.696H98.5016V147.06L97.0216 147.416V136.695V136.696ZM90.586 135.074C90.745 135.074 90.8915 135.129 91.0096 135.219H90.1634C90.2804 135.129 90.4269 135.074 90.5871 135.074H90.586ZM89.8465 136.696H91.3265V148.787L89.8465 149.142V136.695V136.696ZM89.8465 150.662L92.1171 150.116C92.2011 150.11 92.2817 150.09 92.3567 150.058L102.72 147.564V205H89.8465V150.662ZM75.1659 110.837C75.6827 110.277 76.1586 109.97 76.6641 109.646C77.4069 109.169 78.1725 108.676 78.8278 107.47C79.4843 108.677 80.2499 109.169 80.9916 109.646C81.4959 109.971 81.9729 110.277 82.4897 110.837C83.8119 112.271 84.1322 114.832 83.2326 116.795L82.7589 117.831H74.8979L74.4242 116.796C73.5258 114.834 73.8449 112.272 75.167 110.838L75.1659 110.837ZM82.6488 123.932L82.6783 145.889H75.1114L75.1432 123.932H82.6488ZM75.1455 122.455L75.15 119.306H82.6431L82.6476 122.455H75.1466H75.1455ZM82.6806 147.366L82.7146 172.872H75.0728L75.1091 147.366H82.6794H82.6806ZM82.7169 174.349L82.7578 205.001H75.0273L75.0716 174.349H82.7169ZM247.132 213.186H68.4009V206.477H247.132V213.186Z" fill="#4F2B2B"/>
<path d="M569.785 268.678C569.785 268.678 618.145 270.971 644.126 312.221C670.108 353.471 661.351 399.636 661.351 399.636H448.262L439.157 263.369L569.785 268.678Z" fill="#357E94"/>
<path d="M636.017 373.592C635.801 373.592 635.584 373.53 635.394 373.402L582.029 337.559C581.516 337.216 581.379 336.521 581.723 336.009C582.07 335.496 582.769 335.364 583.274 335.703L636.639 371.546C637.152 371.889 637.289 372.584 636.944 373.097C636.728 373.417 636.375 373.59 636.017 373.59V373.592Z" fill="#4F2B2B"/>
<path d="M512.836 216.603C512.836 216.603 513.458 153.574 564.961 157.308C616.463 161.04 627.442 192.782 628.037 205.438C628.037 205.438 646.232 211.759 642.462 238.635C638.802 264.726 612.123 280.793 592.836 287.288L512.838 216.603H512.836Z" fill="#4F2B2B"/>
<path d="M621.223 261.248C620.252 260.836 619.258 260.565 618.26 260.401C624.222 239.639 617.936 214.186 593.257 198.305C566.449 181.051 531.258 188.048 516.169 209.913C501.076 231.778 506.446 263.735 532.682 281.844C556.335 298.17 588.865 297.66 606.101 281.384C607.394 282.97 609.073 284.277 611.086 285.133C617.682 287.932 625.298 284.855 628.098 278.26C630.897 271.664 627.818 264.048 621.223 261.248Z" fill="#FFBE97"/>
<path d="M618.65 276.925L611.732 273.989C610.617 273.516 610.098 272.23 610.571 271.115C611.044 270.001 612.331 269.481 613.445 269.954L620.363 272.89C621.478 273.364 621.997 274.65 621.524 275.764C621.051 276.879 619.765 277.399 618.65 276.925Z" fill="#4F2B2B"/>
<path d="M535.77 243.383C536.949 240.973 534.272 237.242 529.79 235.049C525.309 232.856 520.719 233.032 519.54 235.443C518.361 237.853 521.038 241.584 525.52 243.777C530.002 245.969 534.591 245.793 535.77 243.383Z" fill="#FF9D6C"/>
<path d="M595.096 269.873C596.275 267.463 593.598 263.732 589.116 261.539C584.634 259.346 580.045 259.523 578.866 261.933C577.687 264.343 580.364 268.074 584.846 270.267C589.328 272.46 593.917 272.283 595.096 269.873Z" fill="#FF9D6C"/>
<path d="M560.287 178.831C546.166 180.361 528.654 165.537 528.654 165.537C521.516 192.178 545.557 201.879 545.557 201.879C545.557 201.879 552.683 210.712 607.64 215.169C607.64 215.169 600.777 241.85 611.658 253.732L610.848 269.26L628.591 250.551C628.591 250.551 626.106 171.702 560.285 178.831H560.287Z" fill="#4F2B2B"/>
<path d="M578.455 237.233C577.683 240.243 578.24 242.896 579.696 243.146C581.159 243.398 582.965 241.158 583.736 238.148C584.508 235.138 583.952 232.485 582.495 232.235C581.033 231.983 579.227 234.223 578.455 237.233Z" fill="#4F2B2B"/>
<path d="M538.636 225.572C537.94 228.375 538.552 230.873 540.002 231.141C541.458 231.411 543.198 229.354 543.894 226.551C544.59 223.748 543.978 221.25 542.528 220.982C541.078 220.714 539.332 222.769 538.636 225.572Z" fill="#4F2B2B"/>
<path d="M556.702 253.717C556.489 253.717 556.27 253.638 556.105 253.474L549.594 247.151L557.176 231.64C557.383 231.214 557.901 231.038 558.326 231.245C558.752 231.452 558.929 231.969 558.722 232.395L551.688 246.792L557.304 252.251C557.645 252.579 557.651 253.127 557.322 253.468C557.152 253.644 556.933 253.73 556.708 253.73L556.702 253.717Z" fill="#4F2B2B"/>
<path d="M548.864 266.538C548.443 266.319 548.282 265.796 548.499 265.38C548.718 264.959 549.235 264.796 549.656 265.016C550.088 265.24 559.69 270.095 568.017 262.362C568.362 262.041 568.909 262.058 569.23 262.404C569.551 262.749 569.534 263.296 569.188 263.617C559.963 272.179 549.015 266.616 548.858 266.535L548.864 266.538Z" fill="#4F2B2B"/>
<path d="M575.191 223.486C574.77 223.705 574.61 224.227 574.826 224.643C575.045 225.064 575.563 225.227 575.984 225.008C576.415 224.783 586.017 219.929 594.344 227.661C594.69 227.982 595.236 227.965 595.557 227.62C595.878 227.274 595.861 226.727 595.516 226.406C586.291 217.845 575.342 223.407 575.186 223.489L575.191 223.486Z" fill="#4F2B2B"/>
<path d="M532.563 212.187C532.108 212.323 531.852 212.806 531.986 213.255C532.122 213.71 532.599 213.967 533.054 213.831C533.521 213.692 543.866 210.735 550.585 219.9C550.864 220.28 551.404 220.366 551.784 220.088C552.164 219.809 552.251 219.269 551.972 218.888C544.527 208.741 532.726 212.138 532.557 212.189L532.563 212.187Z" fill="#4F2B2B"/>
<path d="M486.897 367.977L440.436 365.816V347.268L486.897 349.428V367.977Z" fill="#69ABDD"/>
<path d="M486.897 369.097C486.88 369.097 486.863 369.097 486.844 369.097L440.382 366.936C439.787 366.907 439.317 366.416 439.317 365.819V347.271C439.317 346.966 439.443 346.674 439.662 346.463C439.885 346.253 440.171 346.127 440.487 346.157L486.948 348.317C487.543 348.346 488.013 348.837 488.013 349.434V367.982C488.013 368.287 487.888 368.579 487.669 368.79C487.459 368.989 487.182 369.098 486.897 369.098V369.097ZM441.554 364.751L485.779 366.807V350.495L441.554 348.439V364.751Z" fill="#775340"/>
<path d="M505.294 152.222L531.132 138.703L529.6 386.484L503.762 400.001L505.294 152.222Z" fill="#F8D2A0"/>
<path d="M319.804 145.462L345.642 131.943L531.13 138.7L505.292 152.218L319.804 145.462Z" fill="#F8D2A0"/>
<path d="M523.227 390.067H523.22C522.603 390.062 522.105 389.559 522.109 388.944L523.635 144.553L348.977 137.838C348.361 137.815 347.881 137.296 347.904 136.678C347.928 136.063 348.367 135.555 349.065 135.605L524.803 142.362C525.405 142.384 525.882 142.881 525.876 143.485L524.345 388.956C524.34 389.571 523.841 390.067 523.227 390.067Z" fill="#4F2B2B"/>
<path d="M514.731 394.846H514.724C514.107 394.84 513.61 394.338 513.613 393.722L515.139 148.8L339.022 142.085C338.406 142.062 337.926 141.543 337.948 140.926C337.973 140.31 338.386 139.782 339.109 139.852L516.309 146.609C516.911 146.631 517.388 147.128 517.382 147.732L515.851 393.734C515.846 394.35 515.347 394.846 514.733 394.846H514.731Z" fill="#4F2B2B"/>
<path d="M505.292 152.218L503.761 399.997L318.273 393.24L319.805 145.461L505.292 152.218Z" fill="#F5C07A"/>
<path d="M478.984 236.022L341.983 229.65V174.957L478.984 181.328V236.022Z" fill="white"/>
<path d="M405.124 267.354L341.983 264.416V239.211L405.124 242.147V267.354Z" fill="white"/>
<path d="M406.091 192.386C406.074 192.386 406.054 192.386 406.035 192.386L350.28 189.597C349.665 189.567 349.191 189.042 349.222 188.426C349.251 187.809 349.713 187.339 350.393 187.366L406.148 190.155C406.763 190.186 407.237 190.71 407.206 191.326C407.177 191.925 406.683 192.388 406.091 192.388V192.386Z" fill="#4F2B2B"/>
<path d="M381.399 206.323C381.374 206.323 381.35 206.323 381.326 206.321L350.265 204.33C349.649 204.291 349.183 203.759 349.222 203.144C349.261 202.526 349.807 202.072 350.409 202.101L381.471 204.092C382.086 204.131 382.553 204.663 382.513 205.279C382.475 205.87 381.983 206.325 381.399 206.325V206.323Z" fill="#4F2B2B"/>
<path d="M379.286 247.35C379.262 247.35 379.238 247.35 379.214 247.349L348.152 245.358C347.537 245.318 347.07 244.787 347.11 244.171C347.149 243.554 347.695 243.099 348.296 243.128L379.358 245.119C379.974 245.159 380.44 245.69 380.401 246.306C380.363 246.898 379.871 247.352 379.286 247.352V247.35Z" fill="#4F2B2B"/>
<path d="M468.619 227.224C468.6 227.224 468.579 227.224 468.56 227.224L450.24 226.241C449.623 226.207 449.151 225.682 449.184 225.064C449.215 224.449 449.767 223.994 450.358 224.008L468.679 224.991C469.296 225.025 469.768 225.55 469.735 226.167C469.704 226.762 469.212 227.225 468.62 227.225L468.619 227.224Z" fill="#4F2B2B"/>
<path d="M393.861 260.505C393.842 260.505 393.821 260.505 393.802 260.505L375.482 259.522C374.865 259.488 374.393 258.963 374.426 258.346C374.457 257.73 375.009 257.276 375.601 257.289L393.921 258.272C394.538 258.306 395.01 258.831 394.977 259.448C394.946 260.043 394.454 260.506 393.862 260.506L393.861 260.505Z" fill="#4F2B2B"/>
<path d="M484.062 318.301C485.468 314.382 489.205 311.748 493.365 311.745L528.421 311.716C529.038 311.716 529.539 311.213 529.539 310.597C529.539 309.982 529.04 309.479 528.421 309.479L493.365 309.508C493.161 309.508 492.966 309.546 492.765 309.557C492.724 309.541 492.693 309.514 492.65 309.503C490.069 308.879 488.096 307.416 486.941 305.276C485.671 302.92 485.542 300.023 486.583 297.118C487.984 293.2 491.723 290.566 495.885 290.561L530.94 290.532C531.558 290.532 532.058 290.029 532.058 289.413C532.058 288.798 531.559 288.295 530.94 288.295L495.885 288.324C495.025 288.324 494.19 288.448 493.371 288.625C492.506 286.757 492.362 284.998 492.947 282.703C493.972 278.668 497.445 275.694 501.588 275.298L536.485 271.961C546.222 271.025 555.937 275.315 561.812 283.147C577.652 304.259 583.361 326.68 578.781 349.791C576.083 363.395 569.661 374.27 561.599 378.879C555.981 382.089 549.533 382.458 542.432 379.984L541.749 380.927L542.128 379.876C541.725 379.731 541.346 379.581 540.998 379.433C531.125 375.184 518.164 353.005 518.036 352.784C517.875 352.504 517.598 352.31 517.283 352.247L494.319 347.78C491.884 347.188 489.764 345.554 488.552 343.304C487.338 341.054 487.137 338.385 487.998 335.983C488.396 334.87 489.02 333.889 489.776 333.04C489.977 332.951 490.159 332.819 490.28 332.618C490.315 332.56 490.323 332.495 490.345 332.433C491.981 330.909 494.158 329.998 496.486 329.996L523.309 329.971C523.925 329.971 524.424 329.468 524.424 328.852C524.424 328.237 523.925 327.734 523.306 327.734L496.485 327.76C493.708 327.76 491.112 328.815 489.104 330.567C486.326 328.684 481.831 324.526 484.059 318.299L484.062 318.301Z" fill="#FFBE97"/>
<path d="M487.563 332.177C486.863 333.087 486.296 334.113 485.894 335.231C484.821 338.232 485.071 341.562 486.586 344.368C488.098 347.174 490.742 349.214 493.841 349.967L516.363 354.347C518.316 357.643 530.255 377.246 540.119 381.49C540.51 381.658 540.927 381.821 541.369 381.984L541.697 382.099C545.038 383.267 548.255 383.85 551.331 383.85C555.38 383.85 559.184 382.841 562.709 380.825C575.125 373.723 579.615 357.067 580.971 350.233C585.682 326.47 579.836 303.451 563.601 281.812C557.26 273.358 546.764 268.752 536.271 269.739L501.375 273.077C496.295 273.562 492.037 277.21 490.782 282.157C490.094 284.86 490.259 287.051 491.238 289.299C488.156 290.591 485.648 293.1 484.48 296.368C483.223 299.877 483.399 303.416 484.975 306.339C485.896 308.045 487.299 309.389 488.99 310.372C485.785 311.626 483.164 314.186 481.959 317.549C480.011 322.995 482.132 328.363 487.563 332.175V332.177ZM484.063 318.303C485.469 314.385 489.206 311.751 493.366 311.747L528.422 311.718C529.039 311.718 529.54 311.216 529.54 310.6C529.54 309.984 529.041 309.482 528.422 309.482L493.366 309.511C493.162 309.511 492.967 309.549 492.766 309.559C492.725 309.544 492.694 309.516 492.651 309.506C490.07 308.882 488.096 307.419 486.942 305.279C485.672 302.923 485.543 300.026 486.584 297.121C487.985 293.203 491.723 290.568 495.885 290.563L530.941 290.534C531.558 290.534 532.059 290.032 532.059 289.416C532.059 288.8 531.56 288.298 530.941 288.298L495.885 288.327C495.026 288.327 494.191 288.451 493.371 288.627C492.507 286.76 492.363 285 492.948 282.706C493.973 278.671 497.446 275.697 501.589 275.301L536.485 271.964C546.223 271.027 555.937 275.318 561.813 283.15C577.653 304.262 583.362 326.682 578.781 349.794C576.084 363.398 569.662 374.272 561.6 378.882C555.982 382.092 549.534 382.461 542.433 379.986L541.75 380.929L542.129 379.878C541.726 379.734 541.347 379.583 540.999 379.436C531.126 375.186 518.165 353.008 518.037 352.786C517.875 352.507 517.599 352.313 517.284 352.25L494.32 347.782C491.885 347.191 489.765 345.556 488.553 343.306C487.338 341.057 487.138 338.388 487.999 335.986C488.396 334.873 489.021 333.892 489.777 333.043C489.978 332.954 490.159 332.822 490.281 332.621C490.315 332.563 490.324 332.498 490.346 332.436C491.982 330.911 494.158 330.001 496.487 329.999L523.31 329.973C523.926 329.973 524.425 329.471 524.425 328.855C524.425 328.239 523.926 327.737 523.306 327.737L496.486 327.763C493.709 327.763 491.113 328.817 489.105 330.57C486.327 328.687 481.832 324.528 484.06 318.302L484.063 318.303Z" fill="#FFBE97"/>
<path d="M531.747 271.961C541.527 269.938 563.111 271.658 571.204 294.725" stroke="#4F2B2B" stroke-width="1.5" stroke-linecap="round" stroke-linejoin="round"/>
<path d="M487.938 332.324L524.657 334.386C526.527 334.491 528.25 335.434 529.346 336.952L533.408 342.576" stroke="#4F2B2B" stroke-width="1.5" stroke-linecap="round"/>
<path d="M489.764 310.253L526.483 312.316C528.353 312.421 530.075 313.363 531.172 314.882L535.234 320.506" stroke="#4F2B2B" stroke-width="1.5" stroke-linecap="round"/>
<path d="M491.503 289.526L528.376 292.627C530.183 292.779 531.832 293.712 532.894 295.181L537.017 300.891" stroke="#4F2B2B" stroke-width="1.5" stroke-linecap="round"/>
<path d="M309.68 315.681L322.091 313.724L324.618 313.233C325.114 313.137 325.606 313.119 326.097 313.093L330.106 312.46C334.767 311.726 338.094 307.47 337.679 302.771C337.302 298.456 333.874 295.1 329.665 294.642C329.014 294.761 328.346 294.829 327.666 294.829C327.46 294.829 327.252 294.824 327.047 294.812L323.946 294.641L307.857 294.948C305.333 294.996 303.012 296.055 301.325 297.933C299.637 299.811 298.83 302.231 299.051 304.745L299.3 307.571C299.523 310.087 300.74 312.328 302.728 313.882C304.714 315.434 307.18 316.078 309.678 315.682L309.68 315.681Z" fill="#FFBE97"/>
<path d="M320.816 334.511L328.737 331.616C329.17 331.458 329.611 331.364 330.054 331.276C333.758 329.615 335.812 325.487 334.747 321.496C333.756 317.778 330.361 315.27 326.636 315.27C326.617 315.27 326.6 315.275 326.581 315.275L322.457 315.925L305.99 319.125C303.684 319.572 301.725 320.917 300.479 322.909C299.232 324.9 298.879 327.248 299.486 329.52L300.172 332.093C300.775 334.363 302.252 336.224 304.325 337.332C306.397 338.438 308.758 338.63 310.989 337.87L320.816 334.512V334.511Z" fill="#FFBE97"/>
<path d="M323.966 292.401L328.488 292.315C328.797 292.31 329.092 292.367 329.395 292.387C333.098 291.645 336.116 288.611 336.606 284.694C337.188 280.014 334.019 275.641 329.387 274.739L309.089 270.783C308.505 270.67 307.918 270.613 307.337 270.613C305.457 270.613 303.638 271.201 302.077 272.333C300.033 273.815 298.737 276.01 298.424 278.514L298.075 281.33C297.763 283.835 298.483 286.28 300.102 288.218C301.719 290.154 303.996 291.298 306.517 291.439L323.964 292.403L323.966 292.401Z" fill="#FFBE97"/>
<path d="M338.057 337.34C336.939 334.828 334.444 333.307 331.825 333.307C331.474 333.307 331.119 333.343 330.766 333.399C330.532 333.499 330.32 333.629 330.076 333.711L321.601 336.608L314.311 339.273C312.519 339.928 311.123 341.255 310.381 343.011C309.637 344.767 309.654 346.693 310.431 348.434L311.333 350.462C312.108 352.203 313.528 353.506 315.33 354.127C317.137 354.746 319.053 354.599 320.737 353.705L335.031 346.124C338.179 344.455 339.508 340.597 338.057 337.343V337.34Z" fill="#FFBE97"/>
<path d="M333.925 331.332C336.656 328.727 337.935 324.771 336.908 320.919C336.127 317.997 334.155 315.701 331.657 314.353C336.82 312.935 340.384 308.015 339.904 302.572C339.537 298.394 336.824 294.946 333.209 293.325C336.193 291.619 338.37 288.597 338.823 284.97C339.55 279.128 335.594 273.671 329.815 272.544L309.517 268.588C306.432 267.986 303.318 268.67 300.766 270.521C298.215 272.369 296.596 275.11 296.208 278.236L295.858 281.052C295.469 284.178 296.368 287.23 298.388 289.648C299.971 291.545 302.07 292.804 304.414 293.354C302.617 293.963 300.976 294.973 299.664 296.434C297.558 298.778 296.549 301.797 296.824 304.935L297.073 307.761C297.35 310.899 298.868 313.696 301.351 315.636C302.272 316.356 303.284 316.9 304.342 317.298C301.963 318.057 299.933 319.565 298.582 321.72C297.004 324.243 296.556 327.216 297.323 330.092L298.009 332.665C298.777 335.541 300.645 337.895 303.268 339.298C304.838 340.136 306.54 340.56 308.257 340.56C308.586 340.56 308.914 340.509 309.243 340.478C308.881 340.994 308.569 341.546 308.32 342.133C307.346 344.43 307.37 347.056 308.386 349.333L309.288 351.362C310.305 353.643 312.241 355.416 314.602 356.231C315.554 356.56 316.548 356.721 317.541 356.721C319.008 356.721 320.47 356.368 321.784 355.67L336.078 348.088C340.259 345.869 342.027 340.745 340.099 336.424C338.917 333.771 336.58 331.963 333.924 331.327L333.925 331.332ZM300.104 288.216C298.486 286.279 297.765 283.831 298.077 281.328L298.427 278.512C298.739 276.008 300.036 273.813 302.08 272.331C303.641 271.2 305.46 270.611 307.34 270.611C307.921 270.611 308.507 270.668 309.092 270.781L329.39 274.737C334.02 275.639 337.189 280.012 336.609 284.692C336.121 288.609 333.101 291.643 329.398 292.385C329.095 292.365 328.8 292.308 328.491 292.313L323.969 292.399L306.522 291.435C304.001 291.296 301.723 290.153 300.106 288.215L300.104 288.216ZM302.73 313.876C300.742 312.323 299.525 310.081 299.302 307.566L299.053 304.739C298.832 302.225 299.64 299.806 301.327 297.928C303.015 296.05 305.333 294.99 307.859 294.942L323.948 294.635L327.049 294.807C327.256 294.819 327.464 294.824 327.668 294.824C328.349 294.824 329.016 294.757 329.667 294.637C333.874 295.095 337.304 298.451 337.681 302.764C338.096 307.464 334.769 311.721 330.108 312.455L326.099 313.087C325.608 313.111 325.116 313.132 324.62 313.228L322.093 313.719L309.682 315.675C307.183 316.073 304.717 315.428 302.732 313.875L302.73 313.876ZM304.325 337.331C302.251 336.223 300.777 334.362 300.171 332.092L299.485 329.52C298.878 327.249 299.232 324.901 300.478 322.909C301.727 320.916 303.683 319.573 305.99 319.124L322.456 315.924L326.581 315.274C326.598 315.274 326.617 315.269 326.635 315.269C330.36 315.269 333.756 317.776 334.747 321.496C335.812 325.486 333.757 329.614 330.053 331.276C329.613 331.365 329.172 331.457 328.736 331.615L320.815 334.51L310.989 337.868C308.756 338.627 306.395 338.435 304.325 337.329V337.331ZM335.032 346.12L320.738 353.701C319.054 354.595 317.137 354.744 315.331 354.123C313.529 353.501 312.107 352.199 311.334 350.458L310.431 348.43C309.655 346.689 309.637 344.763 310.382 343.007C311.124 341.251 312.52 339.924 314.312 339.269L321.602 336.604L330.077 333.707C330.321 333.623 330.533 333.493 330.767 333.395C331.12 333.339 331.475 333.303 331.826 333.303C334.445 333.303 336.942 334.824 338.058 337.336C339.509 340.591 338.18 344.448 335.032 346.118V346.12Z" fill="#FFBE97"/>
<path d="M291.977 306.761C286.612 274.368 296.534 271.645 304.069 272.791L322.469 351.48C322.995 353.773 321.204 358.645 308.166 355.205C295.128 351.765 294.375 321.237 291.977 306.761Z" fill="#FFBE97"/>
<path d="M333.248 293.094L308.912 293.95" stroke="#4F2B2B" stroke-width="1.5" stroke-linecap="round"/>
<path d="M331.231 314.49L311.85 317.771" stroke="#4F2B2B" stroke-width="1.5" stroke-linecap="round"/>
<path d="M333.248 331.43L316.135 335.73" stroke="#4F2B2B" stroke-width="1.5" stroke-linecap="round"/>
</g>
</svg>
