<svg width="372" height="250" viewBox="0 0 372 250" fill="none" xmlns="http://www.w3.org/2000/svg">
<mask id="mask0_917_9921" style="mask-type:alpha" maskUnits="userSpaceOnUse" x="0" y="0" width="372" height="250">
<path d="M0 20C0 8.9543 8.95431 0 20 0H352C363.046 0 372 8.9543 372 20V250H0V20Z" fill="#F7FDFE"/>
</mask>
<g mask="url(#mask0_917_9921)">
<path d="M126.297 53.1318H172.282C174.633 53.1318 176.539 55.0378 176.539 57.3895V71.4082C176.539 73.7599 174.632 75.6659 172.282 75.6659H163.281L154.416 81.0618V75.6659H126.298C123.946 75.6659 122.041 73.7599 122.041 71.4082V57.3906C122.041 55.0388 123.946 53.1329 126.298 53.1329L126.297 53.1318Z" fill="#BF8888"/>
<path d="M208.685 81.4482H257.582C260.082 81.4482 262.11 83.476 262.11 85.9763V111.922C262.11 114.422 260.082 116.45 257.582 116.45H248.011L238.584 122.188V116.45H208.684C206.184 116.45 204.156 114.422 204.156 111.922V85.9763C204.156 83.476 206.183 81.4482 208.684 81.4482H208.685Z" fill="#DF8711"/>
<path d="M229.738 97.1548H211.781C211.377 97.1548 211.051 96.8284 211.051 96.4249V89.9194C211.051 89.5159 211.377 89.1895 211.781 89.1895H229.738C230.142 89.1895 230.468 89.5159 230.468 89.9194V96.4249C230.468 96.8284 230.142 97.1548 229.738 97.1548ZM212.511 95.6949H229.008V90.6494H212.511V95.6949Z" fill="#4F2B2B"/>
<path d="M214.904 108.345C212.922 108.345 211.312 106.733 211.312 104.753C211.312 102.772 212.923 101.159 214.904 101.159C216.885 101.159 218.497 102.771 218.497 104.753C218.497 106.735 216.885 108.345 214.904 108.345ZM214.904 102.619C213.728 102.619 212.772 103.576 212.772 104.753C212.772 105.93 213.728 106.885 214.904 106.885C216.08 106.885 217.037 105.929 217.037 104.753C217.037 103.577 216.08 102.619 214.904 102.619Z" fill="#4F2B2B"/>
<path d="M236.244 105.742H221.41C221.006 105.742 220.68 105.416 220.68 105.012C220.68 104.609 221.006 104.282 221.41 104.282H236.244C236.647 104.282 236.974 104.609 236.974 105.012C236.974 105.416 236.647 105.742 236.244 105.742Z" fill="#4F2B2B"/>
<path d="M248.475 105.742H240.667C240.264 105.742 239.937 105.416 239.937 105.012C239.937 104.609 240.264 104.282 240.667 104.282H248.475C248.879 104.282 249.205 104.609 249.205 105.012C249.205 105.416 248.879 105.742 248.475 105.742Z" fill="#4F2B2B"/>
<path d="M213.227 158.152L231.154 161.819L232.172 184.023H211.801L213.227 158.152Z" fill="#FFBE97"/>
<path d="M213.848 165.018C221.591 165.487 227.38 164.245 231.344 163.245L231.344 166.772C228.745 167.757 219.037 167.395 213.848 165.018Z" fill="#4F2B2B"/>
<path d="M174.475 192.227C175.253 183.315 181.601 175.88 190.279 173.713L212.616 170.627L218.727 176.893L231.561 170.627V170.627C240.067 170.627 248.524 171.919 256.642 174.46L261.25 175.902C269.079 178.62 274.572 185.697 275.263 193.956L278.798 236.205H170.637L174.475 192.228V192.227Z" fill="#EE81B0"/>
<path d="M280.242 152.896C281.529 152.666 282.793 153.475 283.11 154.748L285.698 165.129C285.772 165.428 286.039 165.626 286.333 165.626C286.386 165.626 286.44 165.619 286.492 165.606C286.843 165.517 287.057 165.163 286.97 164.811L284.382 154.43C284.103 153.311 283.34 152.438 282.371 151.956C282.356 150.756 283.21 149.684 284.41 149.466C285.698 149.236 286.96 150.045 287.278 151.318L291.091 164.686C291.173 164.973 291.435 165.161 291.72 165.161C291.78 165.161 291.841 165.154 291.901 165.135C292.248 165.036 292.451 164.673 292.352 164.326L288.783 151.813C289.153 151.178 289.768 150.735 290.492 150.605C291.781 150.373 293.043 151.184 293.36 152.457L298.11 167.238C299.098 170.39 298.773 173.877 297.217 176.797L290.433 190.543L271.488 188.506C271.04 187.042 268.505 181.481 269.789 178.928C271.371 175.782 275.641 170.88 275.683 170.832C275.802 170.697 275.859 170.518 275.842 170.34L274.701 158.053C274.777 157.324 275.447 156.634 276.292 156.532C276.652 156.49 277.75 156.356 278.348 158.391L280.672 166.595C280.772 166.942 281.138 167.142 281.481 167.047C281.829 166.948 282.031 166.584 281.933 166.237L279.607 158.028C279.305 157 278.815 156.236 278.187 155.763C278.196 155.708 278.21 155.655 278.204 155.597C278.076 154.313 278.972 153.124 280.242 152.894V152.896Z" fill="#FFBE97"/>
<path d="M288.396 152.245C290.351 148.823 292.606 151.227 293.488 152.653L298.377 168.135L275.969 170.375L274.747 158.357C274.747 155.749 276.852 155.844 278.007 156.319C278.007 155.179 278.482 154.554 278.618 154.282C279.758 151.838 281.945 153.264 282.896 154.282C282.217 153.332 281.429 151.105 283.71 149.801C285.992 148.497 287.785 150.751 288.396 152.245Z" fill="#FFBE97"/>
<path d="M291.248 161.208L288.552 152.245" stroke="#4F2B2B" stroke-width="0.567344" stroke-linecap="round"/>
<path d="M286.359 165.689L282.441 153.467" stroke="#4F2B2B" stroke-width="0.567344" stroke-linecap="round"/>
<path d="M280.247 165.689L278.21 156.726" stroke="#4F2B2B" stroke-width="0.567344" stroke-linecap="round"/>
<path d="M290.309 190.533L291.574 217.973C292.291 228.224 282.853 237.797 272.646 236.596C261.233 235.252 255.144 223.703 260.474 213.523L269.892 188.13L290.309 190.533Z" fill="#EE81B0"/>
<path d="M290.229 190.542L291.655 218.45C291.655 221.03 291.044 226.68 288.599 228.636C285.544 231.08 284.729 231.284 280.247 233.117" stroke="#4F2B2B" stroke-width="0.932765" stroke-linecap="round"/>
<path d="M188.986 234.543L186.29 200.727" stroke="#4F2B2B" stroke-width="0.932765" stroke-linecap="round"/>
<path d="M260.284 231.691L264.433 200.254" stroke="#4F2B2B" stroke-width="0.932765" stroke-linecap="round"/>
<path d="M147.031 154.713C147.114 154.702 147.195 154.695 147.276 154.692C148.069 154.658 148.83 155.013 149.306 155.653L154.759 167.256C154.808 167.36 154.883 167.45 154.978 167.515L161.427 171.989C161.488 172.031 161.553 172.063 161.623 172.082L172.83 175.309C174.908 176.132 176.335 177.338 176.896 178.777C177.372 180 177.229 181.388 176.471 182.904L174.013 187.968L157.729 188.505L147.083 170.947L145.195 158.061C145.188 158.011 145.175 157.96 145.154 157.913C144.884 157.239 144.939 156.494 145.307 155.866C145.673 155.239 146.304 154.818 147.031 154.713Z" fill="#FFBE97"/>
<path d="M157.461 188.517L156.331 213.04C155.462 221.807 162.009 236.177 172.276 235.734C183.757 235.238 190.199 223.568 185.637 213.021L174.115 187.894L157.461 188.516V188.517Z" fill="#EE81B0"/>
<path d="M157.819 188.505L156.393 216.413C156.393 219.265 157.819 224.154 159.448 226.598C161.619 229.854 161.078 231.08 165.559 232.913" stroke="#4F2B2B" stroke-width="0.932765" stroke-linecap="round"/>
<path d="M248.28 153.011C257.318 136.075 240.88 130.323 240.88 130.323C240.88 130.323 239.651 128.059 239.4 127.696C238.017 125.685 236.218 123.936 234.083 122.737C226.489 118.472 215.834 121.753 209.137 126.333C205.711 128.675 203.231 132.802 206.537 136.502L248.279 153.012L248.28 153.011Z" fill="#4F2B2B"/>
<path d="M228.538 124.729C239.668 125.577 245.105 134.479 245.093 144.812C245.091 145.902 243.758 147.861 243.587 148.905C243.983 148.919 244.384 148.986 244.783 149.123C247.2 149.943 248.63 152.768 247.977 155.433C247.325 158.098 244.837 159.595 242.421 158.775C241.507 158.465 240.736 157.868 240.164 157.102C236.802 161.658 226.365 166.573 219.805 166.309C208.669 165.86 203.511 154.412 203.524 144.078C203.535 133.745 215.609 123.742 228.538 124.729Z" fill="#FFBE97"/>
<path d="M242.461 155.236L244.982 155.967C245.388 156.085 245.813 155.851 245.93 155.445C246.048 155.039 245.814 154.614 245.408 154.497L242.887 153.767C242.481 153.649 242.056 153.882 241.939 154.288C241.821 154.694 242.055 155.119 242.461 155.236Z" fill="#4F2B2B"/>
<path d="M231.273 156.839C229.555 156.546 228.29 155.56 228.447 154.637C228.604 153.713 230.125 153.202 231.843 153.494C233.561 153.787 234.826 154.773 234.669 155.697C234.511 156.62 232.991 157.132 231.273 156.839Z" fill="#FF9D6C"/>
<path d="M217.321 152.419C217.407 152.405 217.49 152.375 217.567 152.327C218.382 151.817 218.994 150.836 219.202 149.703C219.431 148.455 219.151 147.229 218.412 146.256C218.193 145.968 217.786 145.912 217.494 146.13C217.205 146.348 217.149 146.759 217.367 147.048C218.06 147.962 218.006 148.956 217.912 149.467C217.772 150.233 217.373 150.903 216.871 151.216C216.564 151.408 216.471 151.813 216.663 152.12C216.807 152.349 217.07 152.459 217.321 152.42L217.321 152.419Z" fill="#4F2B2B"/>
<path d="M225.341 150.844C225.688 150.957 226.061 150.766 226.172 150.419L226.541 149.282C226.654 148.935 226.464 148.562 226.116 148.45C225.77 148.338 225.396 148.528 225.285 148.875L224.916 150.012C224.803 150.359 224.993 150.732 225.341 150.844Z" fill="#4F2B2B"/>
<path d="M211.133 146.37C211.48 146.483 211.853 146.293 211.965 145.945L212.334 144.808C212.447 144.461 212.256 144.088 211.909 143.977C211.562 143.864 211.189 144.054 211.077 144.402L210.708 145.539C210.596 145.885 210.786 146.259 211.133 146.37Z" fill="#4F2B2B"/>
<path d="M231.17 146.019C231.218 146.012 231.264 145.999 231.311 145.981C231.647 145.847 231.812 145.466 231.679 145.13C230.857 143.06 228.294 141.889 226.184 142.614C225.842 142.733 225.662 143.107 225.78 143.448C225.9 143.79 226.266 143.966 226.615 143.852C228.058 143.347 229.894 144.19 230.46 145.614C230.575 145.904 230.875 146.066 231.17 146.019Z" fill="#4F2B2B"/>
<path d="M216.57 141.016C216.671 141 216.769 140.96 216.857 140.896C217.148 140.682 217.21 140.27 216.995 139.98C215.692 138.213 212.865 137.289 210.71 137.943C210.363 138.046 210.165 138.411 210.269 138.757C210.372 139.104 210.735 139.313 211.084 139.199C212.723 138.719 214.955 139.423 215.941 140.757C216.091 140.962 216.336 141.053 216.571 141.016L216.57 141.016Z" fill="#4F2B2B"/>
<path d="M221.428 158.565C221.517 158.614 221.596 158.686 221.657 158.776C221.858 159.076 221.775 159.484 221.475 159.684C219.648 160.901 216.674 160.806 214.872 159.457C214.58 159.242 214.519 158.831 214.734 158.541C214.949 158.251 215.362 158.178 215.651 158.404C217.028 159.413 219.366 159.512 220.748 158.594C220.959 158.453 221.221 158.451 221.429 158.565L221.428 158.565Z" fill="#4F2B2B"/>
<path d="M247.835 153.517C248.032 153.487 248.757 153.509 248.858 153.32C251.769 147.864 252.408 142.949 250.755 138.712C248.475 132.868 242.624 130.299 241.338 129.795C241.013 129.198 240.162 127.648 239.939 127.325C238.436 125.141 236.521 123.356 234.403 122.166C226.691 117.834 215.97 120.865 208.767 125.793C206.245 127.517 204.642 129.801 204.367 132.061C204.155 133.812 204.158 135.505 205.486 136.991C205.728 137.259 206.702 137.235 206.973 136.991C207.243 136.75 207.266 136.336 207.025 136.065C205.959 134.874 205.502 133.579 205.668 132.219C205.895 130.362 207.329 128.364 209.507 126.875C216.155 122.33 226.581 119.276 233.761 123.309C235.707 124.401 237.47 126.048 238.861 128.068C239.029 128.312 239.836 129.773 240.304 130.638C240.381 130.78 240.509 130.889 240.663 130.943C240.729 130.966 247.25 133.32 249.538 139.199C251.04 143.06 250.692 146.421 247.97 151.521C247.8 151.84 247.516 152.038 247.835 152.207C247.965 152.277 247.7 153.539 247.835 153.517Z" fill="#4F2B2B"/>
<path d="M202.846 139.104C201.273 139.886 223.429 128.962 223.555 132.318C223.446 134.556 224.316 136.898 226.096 138.259C227.875 139.62 230.582 139.783 232.331 138.382C231.992 139.921 232.463 141.614 233.548 142.757C234.633 143.9 236.301 144.457 237.854 144.196L238.92 147.972L242.304 149.375L242.876 149.079L243.681 148.953L247.872 143.73L244.957 135.201L236.702 125.51L226.571 124.53L214.135 124.928L204.882 132.978C204.882 132.978 204.419 138.322 202.846 139.104Z" fill="#4F2B2B"/>
<path d="M241.951 150.21C242.198 150.171 242.411 149.994 242.482 149.738C242.578 149.389 242.374 149.028 242.026 148.931C240.317 148.456 239.184 147.703 238.661 146.693C238.073 145.557 238.465 144.434 238.47 144.423C238.548 144.204 238.505 143.958 238.357 143.779C238.209 143.602 237.98 143.514 237.753 143.55C237.742 143.55 237.723 143.554 237.71 143.556C236.388 143.764 234.945 143.275 234.024 142.305C233.094 141.326 232.682 139.843 232.972 138.525C233.032 138.252 232.914 137.973 232.678 137.827C232.441 137.679 232.139 137.7 231.922 137.871C230.482 139.022 228.097 138.965 226.493 137.738C224.979 136.581 224.104 134.517 224.21 132.351C224.328 129.936 225.543 127.879 226.542 126.577C226.762 126.29 226.708 125.879 226.42 125.658C226.133 125.438 225.722 125.493 225.501 125.78C223.906 127.858 223.006 130.108 222.9 132.287C222.774 134.878 218.902 135.067 220.754 136.483C222.459 137.788 229.732 140.361 231.57 139.588C231.616 140.922 228.126 140.748 229.053 141.725C230.08 142.806 235.563 144.906 237.045 144.917C236.989 145.538 234.721 146.09 235.168 146.966C235.86 148.327 239.586 149.614 241.675 150.195C241.769 150.22 241.862 150.225 241.951 150.211L241.951 150.21Z" fill="#4F2B2B"/>
<path d="M210.809 133.134C210.93 133.115 211.047 133.062 211.145 132.974C214.114 130.3 217.936 128.632 221.914 128.277C222.267 128.255 222.541 127.926 222.508 127.566C222.476 127.205 222.157 126.94 221.797 126.971C217.543 127.357 213.445 129.138 210.267 131.999C209.998 132.241 209.977 132.657 210.219 132.924C210.373 133.095 210.597 133.166 210.809 133.133L210.809 133.134Z" fill="#4F2B2B"/>
<path d="M156.695 233.78H294.991L294.285 243.675C294.03 247.24 291.065 250 287.491 250H164.194C160.621 250 157.655 247.239 157.4 243.675L156.694 233.78H156.695Z" fill="#4F2B2B"/>
<path d="M153.735 236.672H297.951C300.187 236.672 302 234.859 302 232.623C302 230.386 300.187 228.573 297.951 228.573H153.736C151.5 228.573 149.687 230.386 149.687 232.623C149.687 234.859 151.5 236.672 153.736 236.672H153.735Z" fill="#307286"/>
<path d="M139.766 208.99L149.527 250.001H85.6737C85.6737 250.001 85.3658 230.4 94.0866 211.089L139.766 208.99Z" fill="#2B6577"/>
<path d="M111.837 124.81L90.3452 142.564L94.7061 211.089L140.386 211.611C140.785 182.114 143.815 166.377 132.087 133.427C132.32 133.001 129.205 132.787 114.615 125.128L111.837 124.81Z" fill="#3A8AA2"/>
<path d="M114.429 155.505L104.243 173.839C109.54 179.203 120.214 190.258 120.54 191.562" stroke="#4F2B2B" stroke-width="0.932765" stroke-linecap="round"/>
<path d="M121.212 110.828L138.909 118.96L132.146 133.677L114.449 125.545L121.212 110.828Z" fill="#FFBE97"/>
<path d="M134.271 129.059L137.328 122.507L123.788 113.771C124.138 119.013 130.922 126.147 134.271 129.059Z" fill="#4F2B2B"/>
<path d="M137.315 79.033C151.752 78.7399 160.271 89.9961 160.271 89.9961C160.271 89.9961 167.435 90.4904 166.969 96.0442C166.502 101.598 159.329 101.21 159.329 101.21L137.315 79.0319V79.033Z" fill="#4F2B2B"/>
<path d="M119.339 96.007C115.952 106.286 123.232 119.366 134.451 123.836C145.669 128.305 156.576 122.473 159.963 112.194C163.35 101.915 157.003 89.9572 145.784 85.488C134.566 81.0188 122.726 85.7287 119.339 96.0081V96.007Z" fill="#FFBE97"/>
<path d="M146.326 120.066C146.391 120.145 146.437 120.24 146.46 120.346C146.535 120.7 146.307 121.048 145.954 121.122C143.805 121.573 141.08 120.381 139.908 118.459C139.717 118.151 139.812 117.747 140.12 117.557C140.427 117.368 140.838 117.453 141.022 117.77C141.926 119.219 144.06 120.18 145.684 119.84C145.932 119.788 146.176 119.883 146.326 120.066L146.326 120.066Z" fill="#4F2B2B"/>
<path d="M141.8 111.912C140.235 110.894 139.411 109.387 139.958 108.546C140.505 107.705 142.217 107.848 143.782 108.865C145.346 109.883 146.171 111.39 145.624 112.231C145.077 113.073 143.365 112.93 141.8 111.912Z" fill="#FF9D6C"/>
<path d="M158.044 112.11L159.673 118.752C159.884 119.61 159.191 120.422 158.311 120.35L154.104 120.005L158.045 112.11H158.044Z" fill="#FFBE97"/>
<path d="M153.108 111.192C152.658 111.075 152.388 110.615 152.504 110.165L152.846 108.848C152.962 108.398 153.423 108.127 153.873 108.244C154.323 108.361 154.593 108.821 154.476 109.271L154.135 110.588C154.018 111.038 153.558 111.309 153.108 111.192Z" fill="#4F2B2B"/>
<path d="M156.144 106.427C156.382 106.427 156.611 106.298 156.728 106.071C156.893 105.748 156.766 105.354 156.444 105.189C154.903 104.397 153.102 104.051 151.378 104.208C151.018 104.241 150.752 104.56 150.786 104.921C150.819 105.282 151.125 105.548 151.499 105.513C152.98 105.375 154.522 105.676 155.844 106.354C155.94 106.404 156.042 106.427 156.144 106.427Z" fill="#4F2B2B"/>
<path d="M160.832 89.7207C160.832 89.7207 152.313 78.4645 137.876 78.7576C123.438 79.0506 115.21 86.1028 114.669 95.0929C114.129 104.082 118.547 116.829 118.547 116.829C118.547 116.829 137.735 95.3542 137.876 96.2261C138.017 97.0981 160.832 89.7217 160.832 89.7217V89.7207Z" fill="#4F2B2B"/>
<circle cx="11.0003" cy="11.0003" r="11.0003" transform="matrix(-1 0 0 1 137.652 82.9844)" fill="#4F2B2B"/>
<path d="M119.375 107.865C119.598 107.865 119.816 107.751 119.939 107.546C120.124 107.236 120.023 106.834 119.715 106.647C119.506 106.52 114.841 103.567 115.348 95.1317C115.906 85.8495 124.763 79.6787 137.914 79.4124C151.777 79.1132 160.25 90.0082 160.334 90.1165C160.448 90.2672 160.622 90.3611 160.81 90.3755C160.845 90.3776 164.287 90.6449 165.985 92.6282C166.705 93.4692 167.004 94.4795 166.901 95.7147C166.494 100.563 160.531 100.308 160.263 100.3C159.919 100.256 158.313 95.9398 158.294 96.2999C158.274 96.6611 157.933 105.017 158.294 105.036C161 105.19 167.797 100.716 168.208 95.8241C168.341 94.2411 167.927 92.8769 166.978 91.7697C165.22 89.7213 162.159 89.2095 161.196 89.096C159.877 87.4955 151.565 78.0957 138.444 78.0957C138.259 78.0957 138.075 78.0967 137.887 78.1009C124.001 78.3826 114.641 85.0364 114.039 95.0522C113.482 104.333 118.812 107.635 119.039 107.772C119.144 107.836 119.261 107.866 119.375 107.866V107.865Z" fill="#4F2B2B"/>
<path d="M129.666 105.629C129.585 102.95 131.691 100.713 134.369 100.632C137.048 100.551 139.285 102.657 139.365 105.336C139.446 108.014 137.341 110.251 134.662 110.332C131.984 110.413 129.747 108.307 129.666 105.629Z" fill="#FFBE97"/>
<path d="M132.044 105.327L134.107 107.236C134.439 107.543 134.958 107.524 135.266 107.192C135.573 106.859 135.553 106.34 135.221 106.033L133.158 104.124C132.826 103.816 132.307 103.836 132 104.168C131.692 104.5 131.712 105.019 132.044 105.327Z" fill="#4F2B2B"/>
<path d="M160.6 91.2057C160.6 91.2057 157.817 100.007 148.383 98.3538C138.949 96.7007 135.426 93.8237 135.426 93.8237L148.657 86.1152L160.599 91.2057H160.6Z" fill="#4F2B2B"/>
<path d="M149.566 99.449C151.212 99.449 152.754 99.2034 154.191 98.7112C158.752 97.1478 160.471 93.6589 160.542 93.5113C160.698 93.1852 160.562 92.7962 160.237 92.6383C159.91 92.4794 159.519 92.6177 159.361 92.9417C159.346 92.9737 157.78 96.1087 153.734 97.4811C149.648 98.867 144.54 98.0559 138.548 95.0664C138.222 94.9034 137.828 95.0386 137.668 95.3595C137.506 95.6835 137.639 96.0777 137.963 96.2387C142.246 98.3747 146.129 99.4479 149.566 99.4479V99.449Z" fill="#4F2B2B"/>
<path d="M116.829 104.837C117.182 104.837 117.473 104.557 117.484 104.201C117.641 98.9047 119.378 93.5821 122.373 89.215C122.577 88.9157 122.502 88.5081 122.203 88.3038C121.905 88.0995 121.497 88.1769 121.292 88.473C118.156 93.0465 116.338 98.6178 116.173 104.163C116.163 104.525 116.446 104.827 116.81 104.838H116.829V104.837Z" fill="#4F2B2B"/>
<path d="M111.837 124.81C111.837 124.81 101.87 124.186 97.5092 126.678C93.1483 129.17 66.436 162.584 69.9435 177.683C72.5388 188.854 97.0417 203.614 97.0417 203.614L118.378 192.712L100.079 169.04L116.197 143.187L111.836 124.81H111.837Z" fill="#3A8AA2"/>
<path d="M113.644 190.923L116.062 191.392C118.303 191.824 120.359 192.934 121.854 194.516C124.413 197.225 125.629 200.359 125.468 203.826C125.273 208.047 122.977 212.489 119.156 216.19L118.761 211.184L119.582 206.787C119.649 206.431 119.414 206.089 119.059 206.022C118.709 205.954 118.361 206.188 118.294 206.545L117.457 211.028C117.446 211.085 117.443 211.141 117.448 211.199L118.295 221.941C118.339 222.878 117.695 223.722 116.76 223.929C116.25 224.042 115.723 223.949 115.282 223.667C114.84 223.384 114.535 222.944 114.423 222.432L112.287 212.578L112.281 207.182C112.281 206.821 111.987 206.528 111.626 206.528H111.625C111.263 206.528 110.97 206.822 110.97 207.184L110.977 212.649C110.977 212.695 110.982 212.741 110.992 212.787L113.131 222.654C113.117 222.713 113.1 222.772 113.103 222.836C113.152 223.844 112.724 224.456 111.83 224.655C111.319 224.771 110.793 224.675 110.351 224.391C109.909 224.108 109.604 223.671 109.493 223.157L106.87 213.519L107.231 208.089C107.255 207.728 106.981 207.416 106.62 207.391C106.233 207.352 105.947 207.641 105.922 208.002L105.554 213.543C105.549 213.616 105.556 213.688 105.575 213.759L107.735 221.69C107.735 221.702 107.729 221.713 107.73 221.726C107.83 223.771 107.155 223.921 106.9 223.977C106.388 224.091 105.862 223.997 105.421 223.715C104.979 223.432 104.675 222.993 104.563 222.481L102.425 212.628L102.455 207.682C102.457 207.32 102.166 207.026 101.804 207.023C101.389 207.016 101.148 207.312 101.144 207.674L101.115 212.692C101.115 212.74 101.12 212.788 101.13 212.836L103.132 222.063C102.361 222.225 101.781 222.052 101.428 221.845C100.94 221.56 100.594 221.093 100.48 220.562L99.5284 218.123C98.7462 216.133 98.1921 214.05 97.8805 211.932L97.4811 209.216C97.1137 206.726 97.3872 204.174 98.2705 201.832C100.332 196.364 104.695 190.047 113.643 190.924L113.644 190.923Z" fill="#FFBE97"/>
<path d="M96.184 209.406L96.5833 212.121C96.9094 214.339 97.4894 216.518 98.3097 218.6L99.2302 220.939C99.3912 221.726 99.9639 222.505 100.767 222.976C101.306 223.291 101.92 223.45 102.561 223.45C102.858 223.45 103.163 223.404 103.468 223.335C103.722 223.94 104.148 224.456 104.713 224.818C105.245 225.159 105.852 225.335 106.47 225.335C106.706 225.335 106.946 225.309 107.184 225.256C107.784 225.123 108.232 224.795 108.543 224.295C108.801 224.769 109.168 225.188 109.643 225.493C110.177 225.834 110.783 226.011 111.401 226.011C111.637 226.011 111.876 225.985 112.113 225.932C113.06 225.722 113.75 225.182 114.117 224.408C114.258 224.539 114.409 224.663 114.575 224.769C115.107 225.11 115.713 225.285 116.33 225.285C116.566 225.285 116.806 225.259 117.044 225.207C118.605 224.861 119.681 223.452 119.602 221.855L119.289 217.869C123.823 213.805 126.554 208.723 126.777 203.882C126.953 200.099 125.579 196.547 122.806 193.61C121.125 191.831 118.818 190.584 116.31 190.101L113.833 189.623C103.437 188.594 98.8659 196.537 97.0446 201.364C96.0829 203.913 95.7846 206.693 96.183 209.403L96.184 209.406Z" fill="#FFBE97"/>
<path d="M103.429 223.137L102.614 215.396" stroke="#4F2B2B" stroke-width="0.932765" stroke-linecap="round"/>
<path d="M108.725 224.358L108.318 216.617" stroke="#4F2B2B" stroke-width="0.932765" stroke-linecap="round"/>
<path d="M114.366 223.953L114.429 217.839" stroke="#4F2B2B" stroke-width="0.932765" stroke-linecap="round"/>
<path d="M119.256 220.287L118.887 217.088C118.633 214.889 118.758 212.663 119.256 210.506V210.506" stroke="#4F2B2B" stroke-width="0.932765" stroke-linecap="round"/>
<path d="M114.021 225.58C112.256 228.025 107.136 233.932 100.78 238.006" stroke="#4F2B2B" stroke-width="0.932765" stroke-linecap="round"/>
<path d="M166.518 69.1428C168.908 69.1428 170.852 67.1987 170.852 64.8088C170.852 62.4189 168.908 60.4727 166.518 60.4727C164.128 60.4727 162.183 62.4168 162.183 64.8088C162.183 67.2008 164.127 69.1428 166.518 69.1428ZM166.518 61.7832C168.186 61.7832 169.542 63.1402 169.542 64.8077C169.542 66.4753 168.186 67.8313 166.518 67.8313C164.851 67.8313 163.494 66.4743 163.494 64.8077C163.494 63.1412 164.851 61.7832 166.518 61.7832Z" fill="#4F2B2B"/>
<path d="M142.865 65.4629H156.181C156.543 65.4629 156.836 65.1698 156.836 64.8076C156.836 64.4454 156.543 64.1523 156.181 64.1523H142.865C142.503 64.1523 142.209 64.4454 142.209 64.8076C142.209 65.1698 142.503 65.4629 142.865 65.4629Z" fill="#4F2B2B"/>
<path d="M131.885 65.4629H138.894C139.256 65.4629 139.55 65.1698 139.55 64.8076C139.55 64.4454 139.256 64.1523 138.894 64.1523H131.885C131.523 64.1523 131.23 64.4454 131.23 64.8076C131.23 65.1698 131.523 65.4629 131.885 65.4629Z" fill="#4F2B2B"/>
<path d="M163.737 68.1307C163.576 68.1307 163.419 68.0718 163.298 67.9635L157.068 62.3571C156.8 62.1135 156.777 61.7008 157.02 61.4304C157.263 61.1631 157.676 61.1394 157.945 61.3819L163.626 66.4951L175.037 50.2774C175.246 49.9833 175.655 49.9111 175.949 50.1185C176.245 50.327 176.317 50.7356 176.108 51.0328L164.272 67.8531C164.165 68.0058 163.997 68.1049 163.81 68.1265C163.785 68.1286 163.76 68.1307 163.737 68.1307Z" fill="#FF9D6C"/>
</g>
</svg>
