<?xml version="1.0" encoding="utf-8"?>
<!-- Generator: Adobe Illustrator 28.1.0, SVG Export Plug-In . SVG Version: 6.00 Build 0)  -->
<svg version="1.1" id="Layer_1" xmlns="http://www.w3.org/2000/svg" xmlns:xlink="http://www.w3.org/1999/xlink" x="0px" y="0px"
	 viewBox="0 0 470 250" style="enable-background:new 0 0 470 250;" xml:space="preserve">
<style type="text/css">
	.st0{fill:#F2AE54;}
	.st1{fill:#FBE4C6;}
	.st2{fill:#4F2B2B;}
	.st3{fill:#FCA89B;}
	.st4{fill:#FFBE97;}
	.st5{fill:#FB8876;}
	.st6{fill:#F29EC3;}
	.st7{fill:#DF8711;}
	.st8{fill:#9F5656;}
	.st9{fill:#FFFFFF;}
	.st10{fill:#EF9C2E;}
	.st11{fill:#28151F;}
	.st12{fill:#3A8AA2;}
</style>
<path class="st0" d="M338.7,57.5c1-3.8-1.8-7.5-5.8-7.5H219.4c-3.7,0-6.9,2.5-7.9,6.1l-1.2,4.4h127.6L338.7,57.5z"/>
<path class="st1" d="M210.4,60.4l-23.9,88.9c-1.4,5.2,2.5,10.3,7.9,10.3H305c3.7,0,7-2.5,7.9-6.1l25-93.1L210.4,60.4L210.4,60.4z"/>
<path class="st2" d="M305,160.1H194.4c-0.3,0-0.5-0.2-0.5-0.5s0.2-0.5,0.5-0.5H305c3.5,0,6.5-2.3,7.4-5.7l25-93.1
	c0.1-0.3,0.4-0.4,0.6-0.4s0.4,0.3,0.4,0.6l-25,93.1C312.4,157.5,308.9,160.1,305,160.1z"/>
<path class="st3" d="M319.1,100.4c0,0,4.8,4.4,4.3,6.7c-0.4,2-5,6.5-6.7,6.2c-1.6-0.3-4.8-3.1-4.8-3.1s0.1-4,2.3-3.3l2.2,0.6
	l0.2-4.8L319.1,100.4z"/>
<path class="st4" d="M314,96.3c0,0,6.2,3,6.4,5.5c0.2,2.1-3.1,8.2-4.9,8.3c-1.8,0.2-5.9-1.7-5.9-1.7s-1.1-4.1,1.3-4.1l2.4-0.1
	l-1.3-5L314,96.3L314,96.3z"/>
<path class="st5" d="M313,106.9c-0.2,0-0.3-0.1-0.4-0.2c-0.2-0.2-0.1-0.6,0.1-0.7l1.9-1.3l0.2-6.8c0-0.3,0.2-0.5,0.5-0.5h0
	c0.3,0,0.5,0.2,0.5,0.5l-0.2,7.1c0,0.2-0.1,0.3-0.2,0.4l-2.1,1.5C313.2,106.9,313.1,106.9,313,106.9L313,106.9z"/>
<path class="st5" d="M313.8,112.3C313.8,112.3,313.8,112.3,313.8,112.3c-0.1,0-1.4-0.1-1.9-1.8c-0.1-0.3,0.1-0.6,0.4-0.6
	c0.3-0.1,0.5,0.1,0.6,0.3c0.2,0.7,0.7,0.9,0.9,1l3.9-1.5c0.6-0.2,1-0.7,1.2-1.3l1.3-5.5c0.1-0.3,0.3-0.4,0.6-0.4
	c0.3,0.1,0.4,0.3,0.4,0.6l-1.3,5.5c-0.2,0.9-0.9,1.7-1.8,2.1l-4.1,1.6C313.9,112.3,313.9,112.3,313.8,112.3z"/>
<path class="st5" d="M315.9,113.6C315.9,113.6,315.9,113.6,315.9,113.6c-0.4,0-0.9-0.2-1.2-0.6c-0.3-0.3-0.4-0.8-0.4-1.2
	c0-0.3,0.3-0.5,0.6-0.4s0.5,0.3,0.4,0.6c0,0.1,0,0.3,0.1,0.4c0.1,0.1,0.3,0.2,0.4,0.2c0.3,0,0.5,0.2,0.5,0.5
	C316.4,113.3,316.1,113.6,315.9,113.6L315.9,113.6z"/>
<path class="st2" d="M260.1,80.8c-5.5,0-10,4.5-10,10v10.3c0,5.5,4.5,10,10,10c5.5,0,10-4.5,10-10V90.8
	C270.1,85.3,265.7,80.8,260.1,80.8z"/>
<path class="st6" d="M293.5,140.4c-0.1,1.3-1.9,19.5-3.4,19.5h-84.6l11.9-41.3c2.7-9.5,13.4-12.6,23-13.2c0.9-0.1,1.7-0.1,2.5-0.1
	c4.5-0.2,9.1,0.1,13.6,0.5c2.2,0.2,4.4,0.3,6.6,0.4c3.2,0.2,6.4,0.4,9.5,1c1.9,0.3,3.8,0.8,5.7,1.3
	C293.1,113,294.4,128.2,293.5,140.4L293.5,140.4z"/>
<path class="st4" d="M245.6,108.6h14.7v-9.6c-4,3-9.1,4.8-14.7,5L245.6,108.6L245.6,108.6z"/>
<path class="st2" d="M245.6,96.8v7.2c5.6-0.2,10.7-2,14.7-5v-2.2H245.6L245.6,96.8z"/>
<path class="st2" d="M270.9,88c-1.2,7.7-9.7,12.6-19,11.2c-9.3-1.5-15.8-8.9-14.6-16.5c0.8-4.9,4-9.6,9-11.3c2.8-1,7-1.3,10,0.1
	C267.7,71.8,272.1,80.3,270.9,88L270.9,88z"/>
<path class="st4" d="M267.8,92.9c-2.1,7.1-13.4,9.9-21.8,7.4c-8.4-2.6-10.8-9.6-8.7-16.7c2.1-7.1,10.7-10.7,19.1-8.2
	C264.8,78.1,269.9,85.9,267.8,92.9L267.8,92.9z"/>
<path class="st2" d="M244.2,87.3c-0.1,0-0.2,0-0.3-0.1c-2.2-1.7-3.8-1.6-5.1-1.2c-0.3,0.1-0.6-0.1-0.6-0.4s0.1-0.6,0.4-0.6
	c1.5-0.3,3.4-0.6,6,1.4c0.2,0.2,0.3,0.5,0.1,0.7C244.5,87.2,244.3,87.3,244.2,87.3L244.2,87.3z"/>
<path class="st2" d="M257.7,89.5c-0.1,0-0.2,0-0.3-0.1c-2.7-2.2-4.9-1.6-5.7-1.3c-0.3,0.1-0.6,0-0.7-0.2c-0.1-0.3,0-0.6,0.2-0.7
	c1-0.4,3.6-1.2,6.8,1.4c0.2,0.2,0.2,0.5,0.1,0.7C258,89.4,257.9,89.5,257.7,89.5L257.7,89.5z"/>
<path class="st2" d="M245.6,92.4c-0.1,0-0.2,0-0.3-0.1c-0.2-0.2-0.3-0.5-0.1-0.7c0.8-0.9,0.6-2.4-0.2-3.3c-0.2-0.2-0.2-0.5,0-0.7
	c0.2-0.2,0.5-0.2,0.7,0c1.3,1.2,1.4,3.3,0.3,4.6C245.9,92.3,245.8,92.4,245.6,92.4z"/>
<path class="st2" d="M251.9,92.3c-0.3-0.1-0.6-0.4-0.5-0.8l0.2-1c0.1-0.3,0.4-0.6,0.8-0.5c0.3,0.1,0.6,0.4,0.5,0.8l-0.2,1
	C252.6,92.2,252.2,92.4,251.9,92.3z"/>
<path class="st2" d="M241.2,90.7c-0.3-0.1-0.6-0.4-0.5-0.7l0.1-1c0.1-0.3,0.4-0.6,0.7-0.5c0.3,0.1,0.6,0.4,0.5,0.7l-0.1,1
	C241.8,90.5,241.5,90.8,241.2,90.7z"/>
<path class="st5" d="M259.2,95.4c0,0.8-1.2,1.3-2.6,1.2c-1.4-0.1-2.4-0.8-2.4-1.5s1.2-1.3,2.6-1.2C258.2,94,259.3,94.7,259.2,95.4z"
	/>
<path class="st5" d="M242.4,93.1c-0.2,0.7-1.4,1.1-2.7,0.8c-1.3-0.3-2.3-1.1-2.1-1.9c0.2-0.7,1.4-1.1,2.7-0.8S242.5,92.4,242.4,93.1
	z"/>
<path class="st2" d="M249.9,76.9l17.7,14.6c0,0,2.2-2,2.2-2.1c0.1-0.1,0.4-0.1,0.6-0.2c0.2-0.2,0.3-0.7,0.4-1
	c0.2-0.9,0.3-1.8,0.3-2.7c0-4.7-1.9-8.7-5.7-11.2c-3.6-2.3-8.7-2.6-12.4,0.1C251.8,75.3,250.7,75.7,249.9,76.9L249.9,76.9z"/>
<path class="st4" d="M272.4,93.1c-0.1,2-1.9,3.5-3.8,3.4c-2-0.1-3.5-1.9-3.3-3.8c0.1-2,1.9-3.5,3.8-3.4S272.5,91.1,272.4,93.1z"/>
<path class="st2" d="M269.8,93.6l-2.1-0.1c-0.3,0-0.6-0.3-0.6-0.7s0.3-0.6,0.6-0.6l2.1,0.1c0.3,0,0.6,0.3,0.6,0.7
	S270.1,93.6,269.8,93.6z"/>
<path class="st2" d="M237.5,83.2c0,0,0.1-6.2,6.3-9.5c8.3-4.4,13-0.4,13-0.4l-7.7,3.2C249.1,76.5,241.2,74.6,237.5,83.2L237.5,83.2z
	"/>
<path class="st2" d="M249.9,76.9c0,0,0.5,5.6,9.4,12c0,0-0.5-1.3-1.1-2.6c0,0,2.6,3.1,4,4.5l1.2,3.9L267,89L249.9,76.9z"/>
<path class="st2" d="M249,74.6c-1.4-0.2-6.2,0.3-7.6,0.4c-2,0.1-4.2,0.7-5.2,2.4c-0.7,1.1-0.8,2.4-0.5,3.6c0.2,1,0.6,1.9,1.1,2.8
	c0.2,0.3,0.6,0.3,0.8,0c1.1-1.6,2.8-2.8,4.6-3.8c1.9-1,6.3-2,8.1-3C252.7,75.9,250.2,74.7,249,74.6L249,74.6z"/>
<path class="st2" d="M245.2,95.1c-0.2,0-0.4,0.1-0.5,0.3c-0.1,0.1-0.1,0.3,0,0.5c0.5,0.9,1.4,1.4,2.4,1.4s1.9-0.6,2.4-1.4
	c0.1-0.2,0-0.4,0-0.5c-0.1-0.2-0.3-0.3-0.5-0.3H245.2z M247.1,98.3c-1.4,0-2.7-0.8-3.3-2c-0.3-0.5-0.2-1.1,0-1.5
	c0.3-0.5,0.8-0.8,1.4-0.8h3.9c0.6,0,1.1,0.3,1.4,0.8c0.3,0.5,0.3,1,0,1.5C249.8,97.6,248.5,98.3,247.1,98.3z"/>
<path class="st4" d="M316.2,111.1l-0.9,3.9c-0.4,1.9-1.9,3.3-3.8,3.7l-4,0.8l-1.4,4l-11.2-5.6l2.1-6.5l4.5-6.7l7.8-6.7L316.2,111.1
	L316.2,111.1z"/>
<path class="st4" d="M307.2,93.9c0,0,6.9,0.5,8,2.7c1,1.9,0.2,8.8-1.4,9.6c-1.6,0.8-6.1,0.6-6.1,0.6s-2.5-3.3-0.3-4.3l2.2-1l-3-4.2
	L307.2,93.9L307.2,93.9z"/>
<path class="st4" d="M298.8,104.2l9-0.7l2-18.2c0.2-1.4-0.8-2.8-2.3-3c-1.4-0.2-2.7,0.7-3,2.1L298.8,104.2L298.8,104.2z"/>
<path class="st4" d="M301.3,102.6l8-1.5l4.8,6.7c0,0-0.5,2.6-3.2,2.4s-4.3-2.2-4.3-2.2s-1.1,3.7-3.2,4.5c-2.1,0.8-6.5-1-6.5-1
	l1.7-6.3C298.9,103.8,300,102.8,301.3,102.6z"/>
<path class="st2" d="M306.3,114.3c-0.1,0-0.2,0-0.4-0.1c-0.2-0.2-0.2-0.5,0-0.7c0.8-0.9,0.5-3.8,0.2-5.4c0-0.2,0.1-0.5,0.3-0.6
	s0.5,0,0.6,0.2c0,0,1,1.2,3.4,1.9c1.8,0.5,2.8-1.1,3.1-1.7L310,103c-0.6-0.8-1.6-1.2-2.5-1l-6.5,1.3c-0.3,0.1-0.5-0.1-0.6-0.4
	c0-0.3,0.1-0.6,0.4-0.6l6.5-1.3c1.4-0.3,2.8,0.3,3.6,1.4l3.6,5.1c0.1,0.1,0.1,0.3,0,0.5c-0.5,1.2-2.1,3.2-4.5,2.5
	c-1.2-0.3-2.1-0.8-2.7-1.2c0.2,1.5,0.3,3.9-0.7,4.9C306.6,114.3,306.4,114.3,306.3,114.3L306.3,114.3z"/>
<path class="st2" d="M309.2,102c-0.3,0-0.5-0.2-0.5-0.5l-0.6-6.7c0-0.3,0.2-0.5,0.5-0.6c0.3,0,0.5,0.2,0.5,0.5l0.6,6.7
	C309.7,101.7,309.5,102,309.2,102C309.2,102,309.2,102,309.2,102L309.2,102z"/>
<polygon class="st6" points="279.6,159.9 294.9,116.5 312.2,123.2 302.2,159.9 "/>
<path class="st4" d="M263.2,106.1c-0.5,4.4-4.8,7.9-10.1,7.9c-5.6,0-10.1-3.9-10.1-8.8v-0.1c4.5-0.2,9.1,0.1,13.6,0.5
	C258.8,105.9,261,106,263.2,106.1z"/>
<circle class="st2" cx="218.5" cy="55.6" r="2.3"/>
<circle class="st2" cx="225.9" cy="55.6" r="2.3"/>
<ellipse class="st2" cx="233.3" cy="55.6" rx="2.3" ry="2.3"/>
<path class="st4" d="M295.4,177.7l11.3-5.9l4-14.6c0,0,10.8-1.4,10.8-1.4c1.4-0.2,2.7,0.3,3.6,1.2c1.6,1.5,2.2,3.7,1.9,5.9
	c-0.5,4-4.3,7.4-6.7,10.4c-1,1-12.2,15.2-12.3,15.2L295.4,177.7L295.4,177.7z"/>
<path class="st7" d="M328.3,92.1l20.2,13.6c2.6,1.8,3.3,5.3,1.5,7.9l-4.4,6.5l-29.6-20l4.4-6.5C322.1,91,325.7,90.3,328.3,92.1
	L328.3,92.1z"/>
<polygon class="st8" points="316.5,99.1 274.5,164 301.7,182.4 346.2,119.1 "/>
<path class="st2" d="M283.7,168.5c-0.1,0-0.2,0-0.3-0.1c-0.2-0.2-0.3-0.5-0.1-0.7l39.8-59c0.2-0.2,0.5-0.3,0.7-0.1
	c0.2,0.2,0.3,0.5,0.1,0.7l-39.8,59C284,168.4,283.8,168.5,283.7,168.5L283.7,168.5z"/>
<path class="st2" d="M294.6,175.9c-0.1,0-0.2,0-0.3-0.1c-0.2-0.2-0.3-0.5-0.1-0.7l39.8-59c0.2-0.2,0.5-0.3,0.7-0.1
	c0.2,0.2,0.3,0.5,0.1,0.7l-39.8,59C294.9,175.8,294.8,175.9,294.6,175.9L294.6,175.9z"/>
<path class="st9" d="M342.9,121.4L315.6,103c-1.1-0.8-1.4-2.3-0.7-3.4c0.8-1.1,2.3-1.4,3.4-0.7l27.3,18.4c1.1,0.8,1.4,2.3,0.7,3.4
	C345.5,121.9,344,122.2,342.9,121.4z"/>
<path class="st4" d="M267.6,175.8l4.4-19.4c0.8-3.6,3.1-6.7,6.4-8.4l8.9-4.8l-1.1,16.2l0.1,0.3c1.9,4.7,6.1,8,11.1,8.8l13.4,2.1
	l2.6,19.6l-8.1,12.7l-14.6,5.4L267.6,175.8L267.6,175.8z"/>
<path class="st10" d="M260.3,180.9l5.9-6.8c0.9-1,2.2-1.4,3.5-0.9c6,2.1,22.8,8.8,24.3,19.8c1.9,13.5-3.5,22.4-3.5,22.4L260.3,180.9
	z"/>
<path class="st2" d="M212.7,127.5h-19.4c6.1,6.6,12.5,13,17.6,20.2L212.7,127.5z"/>
<path class="st4" d="M193.3,127.5h-7.9l-5.9,20.5l30.9,4l0.4-4.3C205.8,140.5,199.4,134.1,193.3,127.5z"/>
<path class="st4" d="M185.4,124.7c2.2,10.2,15.2,16.7,27.4,14.1c12.2-2.6,19-13.3,16.8-23.5c-2.2-10.2-13.8-16.3-26-13.7
	C191.3,104.1,183.2,114.5,185.4,124.7L185.4,124.7z"/>
<ellipse transform="matrix(5.650015e-02 -0.9984 0.9984 5.650015e-02 76.3227 304.6874)" class="st11" cx="199.4" cy="112" rx="23.2" ry="26.8"/>
<ellipse transform="matrix(0.7866 -0.6175 0.6175 0.7866 -25.9638 167.9633)" class="st4" cx="230" cy="121.5" rx="6.3" ry="6.3"/>
<path class="st10" d="M217.8,240.2v9.8H117c0,0-1.2-76,40.9-100.1c13.5-7.7,43.1-7.1,62.5,1.9c15.1,7,20.9,18.9,27.9,36.2l8.2-6.6
	c7.1-5.8,17.3-5.7,24.3,0.2c8,6.7,15.7,17.6,11.8,33.6C292.7,215.1,269.2,272.1,217.8,240.2L217.8,240.2z"/>
<path class="st2" d="M217.8,240.7c-0.1,0-0.3-0.1-0.4-0.2c-0.1-0.1-10.6-12.9-17.7-29.7c-0.1-0.3,0-0.6,0.3-0.7
	c0.3-0.1,0.6,0,0.7,0.3c7.1,16.6,17.4,29.3,17.5,29.4c0.2,0.2,0.1,0.5-0.1,0.7C218.1,240.7,217.9,240.7,217.8,240.7L217.8,240.7z"/>
<path class="st2" d="M259.1,210.8c-0.2,0-0.4-0.1-0.5-0.3l-10.8-22.3c-0.1-0.2,0-0.6,0.2-0.7c0.3-0.1,0.6,0,0.7,0.2l10.8,22.3
	c0.1,0.2,0,0.6-0.2,0.7C259.3,210.8,259.2,210.8,259.1,210.8L259.1,210.8z"/>
<path class="st2" d="M183.3,133.2c0,0-20.5-19.9-7.6-37.2c11.9-15.9,26.4-8.9,26.4-8.9s17.8-5.4,27.5,10c10.1,16-4.2,28.7-13.9,36.3
	c-3.4,2.6-7.5,4.2-11.8,4.3C198.5,137.9,190.5,137.2,183.3,133.2L183.3,133.2z"/>
<path class="st4" d="M324.3,164.9l0.2,10.9c0,1-0.2,1.9-0.7,2.8l-10,17.9c-1.8,3.2-4.8,5.4-8.3,6.2l-0.1,0l0.5-15.8L324.3,164.9
	L324.3,164.9z"/>
<path class="st2" d="M313.3,186.2c-0.1,0-0.2,0-0.3-0.1c-0.2-0.1-0.3-0.5-0.2-0.7l10.7-16.9c0.1-0.2,0.5-0.3,0.7-0.2
	c0.2,0.1,0.3,0.5,0.2,0.7l-10.7,16.9C313.7,186.1,313.5,186.2,313.3,186.2z"/>
<path class="st12" d="M229.1,70.5h-29.7c-1.5,0-2.6,1.2-2.6,2.7v6.2c0,1.5,1.2,2.7,2.6,2.7h22.2l6.3,2.5l-1.8-2.5h3
	c1.5,0,2.6-1.2,2.6-2.7v-6.2C231.7,71.7,230.5,70.5,229.1,70.5L229.1,70.5z"/>
<rect x="200.8" y="73.9" class="st9" width="14" height="1.1"/>
<rect x="216.6" y="73.9" class="st9" width="10.4" height="1.1"/>
<rect x="200.8" y="77.5" class="st9" width="10.8" height="1.1"/>
<rect x="213.3" y="77.5" class="st9" width="9.5" height="1.1"/>
</svg>
