<svg width="372" height="250" viewBox="0 0 372 250" fill="none" xmlns="http://www.w3.org/2000/svg">
<mask id="mask0_917_9689" style="mask-type:alpha" maskUnits="userSpaceOnUse" x="0" y="0" width="372" height="250">
<path d="M0 20C0 8.9543 8.95431 0 20 0H352C363.046 0 372 8.9543 372 20V250H0V20Z" fill="#F7FDFE"/>
</mask>
<g mask="url(#mask0_917_9689)">
<path d="M92.3872 200.659L180.642 177.61L180.255 50L92 73.0488L92.3872 200.659Z" fill="#BF8888"/>
<path d="M159.433 94.4896C158.245 93.5726 157.589 92.1183 157.583 90.3955L157.541 76.2152C157.53 72.8406 160.117 69.4174 163.306 68.5855C164.887 68.1702 166.395 68.4341 167.547 69.3251C168.734 70.2421 169.391 71.6964 169.396 73.4192L169.439 87.5983C169.45 90.9741 166.863 94.3973 163.674 95.2291C163.185 95.3569 162.703 95.4208 162.236 95.4208C161.194 95.4208 160.23 95.1061 159.432 94.4908L159.433 94.4896ZM163.597 69.7073C160.887 70.4149 158.689 73.3328 158.698 76.2117L158.74 90.3908C158.745 91.7492 159.241 92.878 160.139 93.5702C161.003 94.2352 162.153 94.4245 163.382 94.1062C166.091 93.3986 168.289 90.4795 168.281 87.6006L168.237 73.4216C168.234 72.0643 167.738 70.9355 166.84 70.2433C166.251 69.7889 165.528 69.5558 164.737 69.5558C164.37 69.5558 163.988 69.6067 163.597 69.7073Z" fill="#4F2B2B"/>
<path d="M145.342 99.4175C148.296 98.646 150.683 95.482 150.674 92.3487L150.631 78.1696C150.622 75.0375 148.219 73.123 145.266 73.8945C142.312 74.6659 139.925 77.83 139.934 80.9633L139.977 95.1424C139.986 98.2745 142.389 100.189 145.342 99.4175Z" fill="#F2AE54"/>
<path d="M141.247 99.2398C140.059 98.3228 139.403 96.8686 139.398 95.1457L139.356 80.9666C139.344 77.5908 141.93 74.1676 145.12 73.3358C146.701 72.9216 148.209 73.1855 149.361 74.0753C150.548 74.9912 151.205 76.4454 151.211 78.1694L151.253 92.3485C151.264 95.7243 148.677 99.1487 145.487 99.9794C144.999 100.107 144.517 100.171 144.05 100.171C143.008 100.171 142.043 99.8563 141.246 99.241L141.247 99.2398ZM145.411 74.4575C142.701 75.1651 140.503 78.083 140.513 80.9619L140.555 95.1422C140.559 96.4982 141.055 97.627 141.953 98.3204C142.816 98.9854 143.966 99.1736 145.195 98.8564C147.904 98.1488 150.102 95.2297 150.094 92.3508L150.051 78.173C150.047 76.8146 149.551 75.6857 148.652 74.9935C148.063 74.5391 147.34 74.306 146.549 74.306C146.182 74.306 145.8 74.3569 145.41 74.4575H145.411Z" fill="#4F2B2B"/>
<path d="M123.061 103.988C121.873 103.071 121.217 101.617 121.212 99.8939L121.17 85.7137C121.159 82.339 123.746 78.9158 126.934 78.0828C128.516 77.6687 130.022 77.9325 131.176 78.8235C132.363 79.7406 133.02 81.1948 133.025 82.9176L133.067 97.0955C133.079 100.471 130.492 103.895 127.303 104.728C126.814 104.855 126.332 104.919 125.865 104.919C124.822 104.919 123.858 104.603 123.06 103.989L123.061 103.988ZM127.225 79.2045C124.517 79.9133 122.318 82.8312 122.327 85.7101L122.369 99.8904C122.373 101.246 122.87 102.375 123.767 103.069C124.631 103.735 125.778 103.922 127.01 103.605C129.719 102.896 131.917 99.978 131.908 97.0991L131.865 82.92C131.862 81.564 131.366 80.4351 130.468 79.7417C129.878 79.2862 129.154 79.0543 128.361 79.0543C127.996 79.0543 127.613 79.104 127.223 79.2045H127.225Z" fill="#4F2B2B"/>
<path d="M104.876 108.738C103.688 107.821 103.032 106.366 103.026 104.643L102.984 90.4632C102.973 87.0886 105.56 83.6654 108.749 82.8323C110.332 82.417 111.838 82.6821 112.99 83.5731C114.177 84.4901 114.834 85.9443 114.839 87.6672L114.881 101.845C114.893 105.221 112.306 108.644 109.117 109.477C108.628 109.605 108.146 109.669 107.679 109.669C106.637 109.669 105.673 109.354 104.875 108.739L104.876 108.738ZM109.04 83.9541C106.33 84.6629 104.132 87.582 104.141 90.4597L104.183 104.639C104.188 105.997 104.684 107.126 105.582 107.818C106.445 108.484 107.595 108.673 108.824 108.354C111.533 107.645 113.731 104.727 113.722 101.849L113.679 87.6695C113.676 86.3123 113.18 85.1835 112.282 84.4913C111.692 84.0357 110.969 83.8038 110.177 83.8038C109.811 83.8038 109.428 83.8535 109.039 83.9541H109.04Z" fill="#4F2B2B"/>
<path d="M159.543 130.787C158.355 129.87 157.699 128.416 157.694 126.693L157.652 112.515C157.64 109.138 160.226 105.715 163.416 104.883C164.993 104.47 166.502 104.732 167.657 105.623C168.844 106.54 169.5 107.994 169.506 109.717L169.549 123.897C169.56 127.273 166.973 130.696 163.783 131.527C163.294 131.655 162.812 131.719 162.345 131.719C161.303 131.719 160.338 131.404 159.542 130.789L159.543 130.787ZM163.706 106.005C160.997 106.713 158.799 109.632 158.808 112.511L158.851 126.69C158.854 128.047 159.35 129.176 160.249 129.868C161.112 130.533 162.258 130.722 163.49 130.404C166.2 129.696 168.398 126.778 168.39 123.9L168.347 109.721C168.342 108.362 167.847 107.233 166.948 106.541C166.359 106.087 165.635 105.854 164.844 105.854C164.477 105.854 164.095 105.904 163.705 106.005H163.706Z" fill="#4F2B2B"/>
<path d="M141.357 135.538C140.169 134.621 139.513 133.166 139.508 131.444L139.465 117.264C139.455 113.889 142.041 110.464 145.23 109.634C146.81 109.219 148.318 109.483 149.472 110.373C150.659 111.29 151.316 112.744 151.32 114.467L151.363 128.646C151.375 132.022 148.788 135.445 145.598 136.277C145.11 136.405 144.628 136.469 144.16 136.469C143.118 136.469 142.154 136.153 141.356 135.539L141.357 135.538ZM145.52 110.755C142.812 111.463 140.614 114.382 140.622 117.261L140.665 131.44C140.668 132.796 141.165 133.925 142.063 134.618C142.927 135.283 144.074 135.473 145.306 135.154C148.015 134.447 150.213 131.529 150.204 128.65L150.161 114.47C150.158 113.114 149.661 111.985 148.763 111.291C148.174 110.837 147.451 110.604 146.658 110.604C146.291 110.604 145.91 110.655 145.519 110.755H145.52Z" fill="#4F2B2B"/>
<path d="M127.267 140.463C130.221 139.692 132.608 136.528 132.598 133.395L132.556 119.215C132.546 116.083 130.144 114.169 127.19 114.94C124.237 115.712 121.85 118.876 121.859 122.009L121.902 136.188C121.911 139.32 124.313 141.235 127.267 140.463Z" fill="#F2AE54"/>
<path d="M123.172 140.286C121.984 139.369 121.328 137.915 121.322 136.192L121.279 122.012C121.269 118.637 123.855 115.214 127.045 114.382C128.628 113.967 130.133 114.231 131.286 115.122C132.473 116.039 133.13 117.493 133.134 119.216L133.178 133.395C133.189 136.771 130.602 140.194 127.412 141.026C126.924 141.154 126.442 141.218 125.974 141.218C124.933 141.218 123.969 140.903 123.171 140.288L123.172 140.286ZM127.336 115.504C124.626 116.212 122.428 119.13 122.436 122.009L122.479 136.188C122.484 137.546 122.979 138.675 123.878 139.367C124.741 140.032 125.889 140.22 127.12 139.903C129.829 139.196 132.027 136.276 132.019 133.397L131.975 119.218C131.972 117.861 131.476 116.732 130.577 116.04C129.988 115.586 129.266 115.353 128.475 115.353C128.108 115.353 127.725 115.404 127.334 115.504H127.336Z" fill="#4F2B2B"/>
<path d="M104.986 145.036C103.798 144.118 103.142 142.664 103.137 140.941L103.095 126.762C103.083 123.386 105.669 119.963 108.859 119.131C110.439 118.716 111.947 118.98 113.1 119.871C114.287 120.787 114.944 122.241 114.95 123.965L114.992 138.144C115.003 141.519 112.416 144.943 109.226 145.775C108.738 145.903 108.256 145.967 107.788 145.967C106.747 145.967 105.782 145.652 104.985 145.037L104.986 145.036ZM109.15 120.253C106.44 120.961 104.242 123.879 104.252 126.758L104.294 140.938C104.298 142.294 104.793 143.423 105.692 144.116C106.555 144.782 107.705 144.969 108.934 144.652C111.643 143.943 113.841 141.025 113.833 138.147L113.79 123.969C113.786 122.61 113.29 121.481 112.391 120.789C111.802 120.335 111.079 120.102 110.288 120.102C109.92 120.102 109.539 120.153 109.148 120.253H109.15Z" fill="#4F2B2B"/>
<path d="M163.749 167.264C166.703 166.493 169.09 163.329 169.08 160.195L169.038 146.016C169.028 142.884 166.626 140.97 163.672 141.741C160.719 142.513 158.332 145.677 158.341 148.81L158.383 162.989C158.393 166.121 160.795 168.036 163.749 167.264Z" fill="#F2AE54"/>
<path d="M159.653 167.086C158.465 166.169 157.809 164.715 157.804 162.992L157.761 148.813C157.751 145.438 160.337 142.015 163.526 141.182C165.104 140.767 166.613 141.032 167.768 141.922C168.955 142.839 169.612 144.293 169.616 146.016L169.659 160.195C169.671 163.571 167.084 166.994 163.894 167.827C163.405 167.955 162.924 168.018 162.458 168.018C161.415 168.018 160.449 167.703 159.651 167.087L159.653 167.086ZM163.603 166.704C166.312 165.995 168.51 163.076 168.501 160.198L168.458 146.018C168.455 144.662 167.958 143.533 167.06 142.84C166.197 142.174 165.045 141.985 163.817 142.304C161.109 143.013 158.911 145.93 158.919 148.809L158.962 162.988C158.966 164.344 159.461 165.473 160.36 166.167C161.222 166.834 162.374 167.023 163.603 166.704Z" fill="#4F2B2B"/>
<path d="M141.468 171.836C140.28 170.92 139.624 169.466 139.618 167.742L139.575 153.563C139.565 150.187 142.151 146.764 145.341 145.932C146.917 145.519 148.426 145.781 149.581 146.672C150.769 147.589 151.425 149.043 151.431 150.766L151.474 164.946C151.484 168.321 148.898 171.744 145.708 172.576C145.219 172.704 144.737 172.767 144.27 172.767C143.229 172.767 142.263 172.453 141.466 171.837L141.468 171.836ZM145.631 147.054C142.922 147.761 140.724 150.681 140.732 153.559L140.775 167.737C140.779 169.096 141.275 170.225 142.174 170.917C143.037 171.582 144.186 171.77 145.415 171.453C148.125 170.745 150.323 167.827 150.314 164.948L150.272 150.769C150.267 149.411 149.771 148.282 148.873 147.59C148.284 147.136 147.56 146.902 146.769 146.902C146.402 146.902 146.02 146.953 145.63 147.054H145.631Z" fill="#4F2B2B"/>
<path d="M123.282 176.586C122.094 175.669 121.438 174.214 121.433 172.492L121.39 158.314C121.379 154.937 123.965 151.514 127.155 150.682C128.732 150.268 130.241 150.53 131.395 151.421C132.583 152.338 133.239 153.793 133.245 155.515L133.288 169.696C133.298 173.071 130.712 176.495 127.523 177.325C127.033 177.453 126.552 177.517 126.085 177.517C125.043 177.517 124.077 177.202 123.28 176.587L123.282 176.586ZM127.445 151.803C124.736 152.511 122.538 155.43 122.547 158.309L122.59 172.488C122.593 173.845 123.089 174.973 123.988 175.666C124.851 176.331 126.003 176.521 127.23 176.202C129.939 175.495 132.137 172.577 132.129 169.698L132.086 155.519C132.081 154.161 131.585 153.032 130.687 152.339C130.098 151.885 129.374 151.652 128.583 151.652C128.216 151.652 127.834 151.703 127.444 151.803H127.445Z" fill="#775340"/>
<path d="M105.096 181.334C103.908 180.417 103.252 178.963 103.247 177.24L103.204 163.06C103.194 159.684 105.78 156.261 108.969 155.43C110.55 155.015 112.058 155.279 113.211 156.17C114.398 157.087 115.055 158.541 115.059 160.264L115.102 174.442C115.114 177.819 112.527 181.242 109.337 182.074C108.848 182.202 108.367 182.266 107.899 182.266C106.857 182.266 105.892 181.95 105.094 181.336L105.096 181.334ZM109.259 156.552C106.551 157.26 104.353 160.178 104.361 163.056L104.404 177.237C104.407 178.593 104.904 179.722 105.802 180.415C106.666 181.08 107.814 181.269 109.044 180.951C111.754 180.243 113.952 177.324 113.942 174.445L113.9 160.266C113.896 158.91 113.401 157.781 112.502 157.088C111.913 156.634 111.189 156.401 110.399 156.401C110.031 156.401 109.649 156.451 109.258 156.552H109.259Z" fill="#4F2B2B"/>
<path d="M180.644 76.5257C180.644 76.5257 179.137 78.3727 174.089 82.1403C169.041 85.9066 164.36 79.6649 164.36 79.6649L174.088 66.9495L185.422 62.3359L190.957 65.7437L180.642 76.5257H180.644Z" fill="#FFBE97"/>
<path d="M170.701 83.9199C171.909 83.9199 173.176 83.5459 174.435 82.6064C179.482 78.8401 181.028 76.9717 181.092 76.8936C181.294 76.6451 181.257 76.2819 181.011 76.0784C180.765 75.876 180.4 75.9103 180.196 76.1576C180.182 76.1754 178.646 78.0165 173.745 81.674C169.817 84.605 166.125 80.8528 165.098 79.6542L174.453 67.4263L183.255 63.8446C184.607 63.2932 186.114 63.3878 187.388 64.1037L196.823 69.4024C197.104 69.5586 197.455 69.4592 197.611 69.1787C197.768 68.8995 197.668 68.5457 197.389 68.3883L187.955 63.0896C186.372 62.2022 184.499 62.0839 182.819 62.769L173.872 66.4099C173.776 66.4489 173.693 66.5116 173.63 66.5933L163.902 79.3087C163.744 79.5157 163.743 79.8033 163.899 80.0115C165.135 81.6598 167.736 83.9175 170.702 83.9175L170.701 83.9199Z" fill="#FFBE97"/>
<path d="M215.108 78.8584L231.647 105.813L202.617 111.828L199.029 100.887L189.722 89.6226L215.108 78.8584Z" fill="#FFBE97"/>
<path d="M202.067 112.009L198.514 101.173L189.277 89.9927C189.16 89.8507 189.116 89.6626 189.16 89.4851C189.203 89.3064 189.329 89.1597 189.496 89.0875L214.881 78.3233C215.143 78.2157 215.45 78.3103 215.6 78.5541L232.138 105.509C232.237 105.67 232.251 105.87 232.177 106.043C232.103 106.216 231.948 106.343 231.763 106.38L202.732 112.394C202.693 112.404 202.653 112.407 202.614 112.407C202.369 112.407 202.144 112.25 202.064 112.009H202.067ZM214.875 79.5859L190.664 89.8507L199.475 100.517C199.521 100.573 199.557 100.637 199.579 100.706L203.005 111.154L230.72 105.412L214.875 79.5871V79.5859Z" fill="#FFBE97"/>
<path d="M192.327 64.0459L206.916 71.801L185.294 77.2606L192.327 64.0459Z" fill="#FFBE97"/>
<path d="M159.745 88.833L146.823 92.2728C145.763 92.5544 145.132 93.6453 145.413 94.7067C145.694 95.7693 146.783 96.4012 147.842 96.1196L160.764 92.6798L159.745 88.833Z" fill="#4F2B2B"/>
<path d="M146.045 96.4195C145.452 96.074 145.029 95.5191 144.854 94.8553C144.49 93.4862 145.307 92.0746 146.674 91.7113L159.597 88.2728C159.745 88.2349 159.903 88.2538 160.036 88.3319C160.169 88.4088 160.265 88.5354 160.305 88.6857L161.324 92.5325C161.406 92.8425 161.223 93.1596 160.912 93.2425L147.989 96.681C147.771 96.739 147.548 96.7686 147.327 96.7686C146.882 96.7686 146.441 96.6503 146.045 96.4207V96.4195ZM159.335 89.5424L146.971 92.8331C146.223 93.033 145.774 93.8069 145.974 94.5583C146.069 94.9227 146.302 95.2256 146.627 95.4149C146.951 95.6043 147.329 95.654 147.694 95.5581L160.058 92.2686L159.336 89.5424H159.335Z" fill="#4F2B2B"/>
<path d="M172.134 81.8291L150.927 89.6694L152.693 96.3383L174.988 92.6016L172.134 81.8291Z" fill="#FBE4C6"/>
<path d="M152.134 96.4875L150.367 89.8186C150.29 89.5299 150.446 89.2293 150.727 89.1264L171.934 81.2861C172.085 81.2269 172.256 81.2399 172.401 81.3157C172.546 81.3902 172.653 81.5227 172.694 81.6813L175.548 92.4537C175.59 92.6111 175.564 92.7791 175.475 92.9164C175.387 93.0548 175.245 93.1471 175.084 93.1743L152.79 96.9111C152.758 96.917 152.726 96.9194 152.696 96.9194C152.437 96.9194 152.205 96.7454 152.136 96.4875H152.134ZM171.736 82.5948L151.621 90.0316L153.117 95.6793L174.265 92.1343L171.736 82.5948Z" fill="#FBE4C6"/>
<path d="M245.15 61.7119L248.092 60.9288C249.857 60.459 251.671 61.514 252.14 63.2832L253.634 68.926C254.103 70.6952 253.05 72.513 251.285 72.9827L248.343 73.7659L245.15 61.7119Z" fill="#EE81B0"/>
<path d="M247.784 73.9117L244.59 61.8565C244.552 61.7086 244.573 61.5489 244.65 61.4164C244.727 61.2838 244.854 61.1868 245.001 61.1466L247.944 60.3633C250.014 59.8119 252.151 61.0543 252.701 63.1309L254.195 68.7739C254.745 70.8505 253.508 72.9887 251.435 73.5401L248.492 74.3234C248.443 74.3364 248.392 74.3424 248.343 74.3424C248.087 74.3424 247.853 74.1708 247.784 73.9105V73.9117ZM248.242 61.4862L245.86 62.1204L248.755 73.055L251.139 72.4207C251.844 72.2338 252.434 71.7818 252.8 71.1499C253.166 70.5169 253.264 69.7809 253.077 69.0733L251.583 63.4303C251.258 62.2056 250.151 61.3951 248.942 61.3951C248.711 61.3951 248.476 61.4247 248.243 61.4874L248.242 61.4862Z" fill="#EE81B0"/>
<path d="M244.468 73.6066C243.081 73.9758 242.254 75.4028 242.623 76.7943L243.246 79.149L230.917 82.4302C229.529 82.7994 228.703 84.2264 229.071 85.6179C229.44 87.0083 230.863 87.8366 232.252 87.4674L247.093 83.5165C248.48 83.1473 249.307 81.7203 248.939 80.3287L247.647 75.4549C247.279 74.0645 245.855 73.2362 244.467 73.6054L244.468 73.6066Z" fill="#F9D59E"/>
<path d="M228.511 85.7659C228.062 84.068 229.074 82.3203 230.768 81.8694L242.538 78.7373L242.062 76.9435C241.613 75.2455 242.625 73.4978 244.319 73.047C246.013 72.595 247.758 73.6091 248.208 75.3094L249.499 80.1821C249.949 81.8789 248.936 83.6278 247.242 84.0786L232.4 88.0295C232.128 88.1017 231.855 88.136 231.585 88.136C230.179 88.136 228.89 87.193 228.512 85.7671L228.511 85.7659ZM244.615 74.1676C243.539 74.4539 242.895 75.565 243.181 76.6441L243.806 78.9988C243.845 79.1479 243.823 79.3065 243.747 79.4402C243.669 79.5727 243.542 79.6698 243.395 79.71L231.065 82.9912C229.989 83.2775 229.345 84.3886 229.631 85.4689C229.917 86.5481 231.023 87.1977 232.103 86.9066L246.945 82.9557C248.021 82.6693 248.666 81.5583 248.379 80.4779L247.087 75.6052C246.848 74.7 246.027 74.1001 245.134 74.1001C244.963 74.1001 244.789 74.1214 244.615 74.1676Z" fill="#F8D2A0"/>
<path d="M219.339 68.7193L164.321 83.3613L167.447 95.1602L222.464 80.5182L219.339 68.7193Z" fill="#EE81B0"/>
<path d="M166.887 95.3051L163.761 83.5068C163.721 83.3589 163.743 83.1991 163.82 83.0666C163.897 82.9341 164.023 82.837 164.173 82.7968L219.19 68.1527C219.341 68.1125 219.498 68.1338 219.629 68.2119C219.763 68.2888 219.858 68.4154 219.898 68.5657L223.023 80.364C223.105 80.674 222.921 80.9911 222.613 81.074L167.595 95.7169C167.546 95.7299 167.496 95.7358 167.446 95.7358C167.19 95.7358 166.955 95.5642 166.887 95.3039V95.3051ZM218.927 69.4247L165.029 83.7706L167.857 94.4472L221.755 80.1025L218.927 69.4247Z" fill="#EE81B0"/>
<path d="M245.545 60.0974L207.929 70.1084L211.87 84.9848L249.486 74.9739L245.545 60.0974Z" fill="#F8D2A0"/>
<path d="M211.578 85.4837C211.445 85.4068 211.349 85.2802 211.309 85.1299L207.367 70.2539C207.328 70.106 207.35 69.9462 207.426 69.8137C207.504 69.6812 207.63 69.5842 207.778 69.5439L245.394 59.5323C245.701 59.4471 246.021 59.6341 246.103 59.9453L250.045 74.8201C250.083 74.968 250.062 75.1278 249.985 75.2603C249.908 75.3928 249.781 75.4898 249.634 75.5301L212.017 85.5429C211.968 85.5559 211.918 85.5618 211.869 85.5618C211.767 85.5618 211.667 85.5358 211.578 85.4837ZM245.132 60.8032L208.635 70.5166L212.279 84.272L248.777 74.5574L245.132 60.8032Z" fill="#F8D2A0"/>
<path d="M206.831 99.3846L192.564 101.939L181.887 98.6936C179.987 98.1161 178.686 96.3649 178.678 94.3758C178.667 91.7549 180.871 89.6712 183.481 89.8345L189.319 90.2001L194.053 89.0615L206.831 99.3834V99.3846Z" fill="#FFBE97"/>
<path d="M185.294 77.2594C185.294 77.2594 183.507 78.8355 177.911 81.7227C172.315 84.6099 168.718 77.6842 168.718 77.6842L180.392 66.7366L192.327 64.0459L185.294 77.2606V77.2594Z" fill="#FFBE97"/>
<path d="M262.216 202.283C262.028 201.717 263.324 173.713 262.248 157.261C261.682 148.616 258.886 140.272 254.134 133.036L232.771 100.507L199.474 108.506L215.16 142.431L219.563 187.389L262.216 202.283Z" fill="#9F5656"/>
<path d="M222.349 145.49L198.584 152.334L204.262 172.143L228.027 165.299L222.349 145.49Z" fill="#FFBE97"/>
<path d="M200.66 159.538L198.898 153.371L223.125 151.609C213.963 163.238 204.478 160.419 200.66 159.538Z" fill="#4F2B2B"/>
<path d="M198.925 162.29H232.222L237.726 174.701H198.374L198.925 162.29Z" fill="#F5C07A"/>
<path d="M109.564 165.124C109.57 165.131 109.573 165.138 109.579 165.145C109.629 165.209 109.689 165.259 109.755 165.296C109.847 165.384 109.941 165.472 110.023 165.575L112.794 169.058C112.993 169.308 113.357 169.352 113.609 169.15C113.858 168.95 113.899 168.585 113.699 168.333L110.929 164.851C110.768 164.648 110.591 164.465 110.402 164.302C108.277 161.5 108.169 159.274 110.104 157.69C111.834 156.27 114.397 156.529 115.814 158.265L119.015 162.935C119.196 163.199 119.557 163.265 119.82 163.084C120.084 162.903 120.151 162.541 119.969 162.277L116.739 157.568C116.71 157.531 116.672 157.505 116.641 157.468C116.627 157.367 116.595 157.266 116.527 157.181C115.11 155.444 115.368 152.876 117.101 151.457C117.94 150.769 118.995 150.449 120.074 150.559C121.146 150.669 122.125 151.19 122.81 152.032L127.638 157.954C127.843 158.202 128.206 158.238 128.454 158.036C128.702 157.833 128.737 157.467 128.536 157.219L123.708 151.298C123.425 150.951 123.095 150.663 122.747 150.405C122.734 150.379 122.729 150.352 122.712 150.329L117.39 142.93C116.918 142.058 116.823 140.99 117.164 139.983C117.505 138.976 118.229 138.186 119.201 137.756C120.371 137.24 121.699 137.356 122.766 138.062L135.161 150.906C136.78 152.583 137.998 154.547 138.786 156.744L146.814 179.171L121.758 194.687L108.538 173.898C108.538 173.898 108.538 173.896 108.537 173.894L105.35 168.941C104.928 168.287 104.79 167.508 104.959 166.748C105.129 165.988 105.583 165.343 106.241 164.929C107.299 164.264 108.628 164.373 109.565 165.124H109.564Z" fill="#FFBE97"/>
<path d="M105.625 163.946C104.703 164.524 104.064 165.431 103.827 166.495C103.589 167.56 103.784 168.652 104.374 169.57L107.562 174.524C107.562 174.524 107.563 174.524 107.563 174.525L121.086 195.792C121.18 195.941 121.33 196.031 121.491 196.055C121.621 196.074 121.758 196.049 121.878 195.975L147.82 179.911C148.053 179.767 148.153 179.479 148.061 179.221L139.874 156.35C139.031 153.998 137.726 151.895 135.993 150.099L123.554 137.211C123.527 137.183 123.497 137.157 123.465 137.135C122.06 136.172 120.291 136.008 118.733 136.694C117.478 137.247 116.507 138.309 116.066 139.61C115.627 140.91 115.752 142.344 116.411 143.548L120.692 149.504C120.524 149.471 120.362 149.421 120.189 149.405C118.802 149.265 117.444 149.675 116.366 150.558C115.287 151.442 114.617 152.695 114.477 154.085C114.411 154.751 114.477 155.407 114.653 156.032C114.187 155.838 113.702 155.689 113.191 155.636C111.803 155.496 110.446 155.906 109.367 156.789C108.131 157.802 106.574 159.913 108.421 163.38C107.48 163.226 106.485 163.403 105.621 163.945L105.625 163.946ZM104.958 166.748C105.128 165.988 105.582 165.343 106.24 164.929C107.297 164.264 108.627 164.373 109.564 165.124C109.57 165.132 109.573 165.139 109.579 165.146C109.629 165.21 109.689 165.259 109.755 165.296C109.847 165.385 109.941 165.472 110.023 165.575L112.794 169.059C112.993 169.308 113.357 169.352 113.609 169.15C113.858 168.95 113.899 168.585 113.699 168.333L110.929 164.851C110.768 164.649 110.591 164.465 110.402 164.302C108.277 161.5 108.169 159.274 110.104 157.69C111.834 156.27 114.397 156.529 115.814 158.265L119.015 162.935C119.196 163.199 119.557 163.265 119.82 163.084C120.084 162.903 120.151 162.541 119.969 162.277L116.739 157.568C116.71 157.531 116.672 157.505 116.641 157.469C116.627 157.367 116.595 157.266 116.527 157.181C115.11 155.444 115.368 152.876 117.101 151.458C117.94 150.769 118.995 150.45 120.074 150.56C121.146 150.67 122.125 151.19 122.81 152.033L127.638 157.954C127.843 158.202 128.206 158.238 128.454 158.037C128.702 157.833 128.737 157.467 128.536 157.219L123.708 151.298C123.425 150.951 123.095 150.664 122.747 150.406C122.734 150.38 122.729 150.353 122.712 150.329L117.39 142.93C116.918 142.058 116.823 140.991 117.164 139.984C117.505 138.977 118.229 138.186 119.201 137.757C120.371 137.241 121.699 137.357 122.766 138.062L135.161 150.906C136.78 152.583 137.998 154.547 138.786 156.745L146.814 179.171L121.758 194.687L108.538 173.898C108.538 173.898 108.538 173.896 108.537 173.895L105.35 168.942C104.928 168.287 104.79 167.509 104.959 166.748H104.958Z" fill="#FFBE97"/>
<path d="M170.781 182.191C174.716 176.274 181.247 172.614 188.336 172.351L221.627 171.115L231.005 171.455C245.863 171.993 255.828 181.363 260.014 195.663L276.112 249.31L192.87 250L189.293 228.486C189.293 228.486 172.028 241.342 160.124 238.967C147.708 236.491 121.048 194.56 121.048 194.56L149.391 176.219L166.315 189.183L170.781 182.192V182.191Z" fill="#9F5656"/>
<path d="M232.996 119.258C235.286 115.024 239.723 112.285 244.359 111.02C248.995 109.754 253.874 109.786 258.677 109.898C263.481 110.011 268.339 110.191 273.042 109.205C275.683 108.651 278.589 107.395 279.367 104.806C279.367 104.806 276.917 116.748 264 123.485C251.084 130.221 233.738 124.366 233.738 124.366" fill="#4F2B2B"/>
<path d="M224.139 112.107C209.093 101.61 192.168 107.516 192.168 107.516C192.168 107.516 184.251 102.983 180.833 109.194C177.416 115.404 185.268 120.057 185.268 120.057L224.139 112.109V112.107Z" fill="#4F2B2B"/>
<path d="M234.111 141.186C231.11 153.467 215.053 160.919 200.35 157.309C185.646 153.699 177.863 140.395 180.864 128.113C183.865 115.832 198.218 108.803 212.921 112.413C227.625 116.023 237.112 128.905 234.11 141.186H234.111Z" fill="#FFBE97"/>
<path d="M203.028 136.337C203.042 135.06 201.133 134.003 198.764 133.977C196.395 133.95 194.463 134.964 194.449 136.241C194.434 137.518 196.343 138.574 198.713 138.601C201.082 138.627 203.014 137.614 203.028 136.337Z" fill="#FF9D6C"/>
<path d="M183.936 128.282L177.539 134.165C176.712 134.925 176.872 136.274 177.853 136.819L182.541 139.423L183.935 128.283L183.936 128.282Z" fill="#FFBE97"/>
<path d="M188.61 132.462C189.168 132.656 189.777 132.36 189.971 131.801L190.537 130.164C190.731 129.604 190.436 128.994 189.877 128.8C189.319 128.606 188.71 128.902 188.516 129.461L187.95 131.098C187.756 131.657 188.051 132.268 188.61 132.462Z" fill="#4F2B2B"/>
<path d="M189.648 147.645C191.41 148.819 195.462 149.847 197.577 144.562" stroke="#4F2B2B" stroke-width="1.5" stroke-linecap="round"/>
<path d="M194.831 127.516C195 127.516 195.167 127.442 195.282 127.3C195.484 127.051 195.445 126.686 195.196 126.484C193.521 125.127 191.422 124.246 189.285 124.002C188.968 123.968 188.68 124.196 188.645 124.514C188.608 124.832 188.837 125.121 189.155 125.156C191.076 125.374 192.962 126.167 194.467 127.385C194.575 127.473 194.703 127.514 194.831 127.514V127.516Z" fill="#4F2B2B"/>
<path d="M191.769 106.83C191.769 106.83 208.694 100.923 223.74 111.421C238.786 121.919 242.514 135.195 236.755 145.094C230.996 154.995 223.277 154.621 223.277 154.621C223.277 154.621 211.475 128.627 210.71 129.45C209.946 130.274 191.769 106.83 191.769 106.83Z" fill="#4F2B2B"/>
<path d="M217.81 142.224C220.216 139.813 220.216 135.904 217.81 133.493C215.404 131.081 211.504 131.081 209.098 133.493C206.693 135.904 206.693 139.813 209.098 142.224C211.504 144.635 215.404 144.635 217.81 142.224Z" fill="#FFBE97"/>
<path d="M215.4 138.733L211.877 139.298C211.309 139.389 210.775 139.002 210.684 138.433C210.593 137.864 210.979 137.329 211.547 137.238L215.071 136.672C215.639 136.581 216.173 136.968 216.263 137.537C216.354 138.107 215.968 138.641 215.4 138.733Z" fill="#4F2B2B"/>
<path d="M190.968 108.567C190.968 108.567 187.712 119.851 198.841 124.758C209.971 129.665 215.718 129.104 215.718 129.104L207.166 111.605L190.967 108.569L190.968 108.567Z" fill="#4F2B2B"/>
</g>
</svg>
