<svg width="700" height="400" viewBox="0 0 700 400" fill="none" xmlns="http://www.w3.org/2000/svg">
<mask id="mask0_574_11121" style="mask-type:alpha" maskUnits="userSpaceOnUse" x="0" y="0" width="700" height="400">
<rect width="700" height="400" transform="matrix(-1 0 0 1 700 0)" fill="white"/>
</mask>
<g mask="url(#mask0_574_11121)">
<path d="M46.8666 230.193C47.9094 230.716 49.1285 230.495 49.9271 229.733L96.9006 270.72C96.8171 270.835 96.7403 270.958 96.6736 271.088C96.0089 272.419 96.5473 274.035 97.8766 274.701C99.2058 275.368 100.824 274.828 101.49 273.498C101.596 273.286 101.669 273.066 101.716 272.843L136.127 276.752C136.108 277.759 136.652 278.735 137.612 279.214C138.941 279.881 140.559 279.341 141.226 278.012C141.519 277.423 141.577 276.778 141.437 276.185L177.483 264.028C177.728 264.579 178.158 265.052 178.739 265.345C179.37 265.66 180.063 265.701 180.691 265.521L213.524 349.209C213.023 349.459 212.595 349.868 212.324 350.406C211.658 351.735 212.198 353.353 213.527 354.02C214.856 354.686 216.474 354.146 217.14 352.817C217.333 352.429 217.422 352.018 217.422 351.613L325.642 341.624C325.164 342.898 325.716 344.355 326.959 344.978C328.288 345.644 329.906 345.104 330.573 343.775C330.633 343.653 330.68 343.531 330.72 343.404L369.693 352.227C369.549 353.334 370.103 354.458 371.156 354.985C371.686 355.25 372.261 355.321 372.805 355.229L385.693 404.101L385.026 403.962L385.819 404.572L385.897 404.866L386.044 404.744L453.948 456.984C453.902 457.059 453.858 457.136 453.816 457.217C453.15 458.546 453.69 460.164 455.019 460.83C456.349 461.496 457.966 460.956 458.633 459.627C459.299 458.298 458.759 456.68 457.43 456.014C456.936 455.766 456.4 455.687 455.889 455.752L447.58 418.151C447.619 418.09 447.655 418.027 447.689 417.96C447.856 417.629 447.945 417.278 447.968 416.929L513.289 415.144C513.395 416.012 513.916 416.81 514.757 417.231C516.086 417.897 517.704 417.357 518.37 416.028C519.037 414.699 518.496 413.081 517.167 412.415C516.642 412.151 516.069 412.079 515.531 412.169L504.158 368.306C504.784 368.08 505.331 367.624 505.654 366.979C506.086 366.115 506.007 365.132 505.539 364.367L531.358 345.009C531.576 345.251 531.839 345.459 532.148 345.612C533.477 346.279 535.095 345.738 535.762 344.409C536.428 343.08 535.888 341.462 534.559 340.796C533.751 340.393 532.838 340.435 532.096 340.825L512.541 310.866C512.84 310.63 513.093 310.329 513.276 309.963C513.874 308.769 513.5 307.347 512.455 306.585L532.564 275.982C533.889 276.625 535.487 276.085 536.148 274.765C536.814 273.436 536.274 271.818 534.945 271.151C534.714 271.035 534.473 270.958 534.229 270.913L535.952 243.515C536.909 243.486 537.821 242.945 538.279 242.028C538.399 241.789 538.477 241.542 538.52 241.292L580.112 244.75C580.122 245.727 580.663 246.666 581.597 247.132C582.927 247.798 584.544 247.258 585.211 245.929C585.877 244.6 585.337 242.982 584.008 242.316C583.91 242.266 583.812 242.228 583.712 242.191L599.059 182.578C600.19 182.761 601.356 182.203 601.895 181.125C602.561 179.796 602.021 178.178 600.692 177.512C599.363 176.846 597.745 177.386 597.078 178.715C596.888 179.094 596.8 179.498 596.797 179.895L507.012 187.37C506.835 186.62 506.34 185.952 505.597 185.58C504.268 184.914 502.65 185.454 501.984 186.783C501.317 188.112 501.858 189.73 503.187 190.396C503.319 190.461 503.455 190.513 503.592 190.557L498.716 221.868C497.65 221.777 496.585 222.329 496.077 223.344C495.912 223.673 495.822 224.023 495.798 224.368L420.985 228.576C420.859 227.738 420.342 226.974 419.529 226.565C418.199 225.899 416.582 226.439 415.915 227.768C415.249 229.097 415.789 230.715 417.118 231.381C417.424 231.535 417.745 231.62 418.063 231.651L417.933 266.309C417.035 266.389 416.196 266.917 415.763 267.785L415.858 267.556L334.398 233.941C334.779 232.704 334.226 231.339 333.032 230.741C332.417 230.433 331.74 230.387 331.124 230.553L318.251 196.029C318.769 195.779 319.214 195.366 319.489 194.81C320.154 193.479 319.615 191.863 318.286 191.197C316.957 190.531 315.339 191.071 314.673 192.4C314.413 192.918 314.338 193.481 314.423 194.013L260.432 207.497C260.208 206.859 259.75 206.305 259.098 205.979C257.769 205.312 256.151 205.852 255.485 207.181C255.207 207.735 255.141 208.337 255.254 208.901L222.554 218.485C222.319 217.89 221.874 217.377 221.259 217.068C219.929 216.402 218.312 216.942 217.645 218.271C217.575 218.412 217.521 218.557 217.477 218.701L156.022 207.482C156.092 206.431 155.54 205.394 154.54 204.892C153.787 204.517 152.941 204.525 152.227 204.847L130.404 167.941C130.762 167.693 131.065 167.353 131.275 166.936C131.942 165.607 131.402 163.989 130.073 163.323C128.741 162.658 127.126 163.197 126.459 164.526C126.455 164.536 126.451 164.546 126.445 164.555L94.6086 155.96L77.7799 151.417C77.8637 150.355 77.3136 149.298 76.3017 148.791C74.9725 148.124 73.3547 148.664 72.6883 149.994C72.1712 151.028 72.3826 152.232 73.1258 153.032L50.9114 184.35C50.8789 184.333 50.8465 184.311 50.8105 184.294C49.4813 183.627 47.8635 184.168 47.1972 185.497C46.5308 186.826 47.0709 188.444 48.4001 189.11C48.7157 189.267 49.0472 189.357 49.3785 189.383L47.931 225.097C46.9955 225.147 46.1121 225.681 45.6637 226.58C44.9973 227.909 45.5374 229.527 46.8666 230.193ZM75.4175 153.872C76.2856 153.766 77.0839 153.244 77.5046 152.404C77.5853 152.241 77.6468 152.075 77.6943 151.909L96.7759 157.059L126.27 165.021C126.2 165.274 126.171 165.531 126.177 165.787L77.3514 178.804L75.4192 153.874L75.4175 153.872ZM259.359 210.644L275.123 230.62L248.272 254.519C248.088 254.347 247.877 254.195 247.641 254.077C247.529 254.02 247.414 253.977 247.298 253.938L257.515 211.053C258.164 211.145 258.819 210.996 259.359 210.644ZM315.248 195.572C315.432 195.744 315.643 195.895 315.879 196.013C316.018 196.082 316.156 196.135 316.298 196.178L302.693 262.097C302.071 262.027 301.448 262.178 300.93 262.513L275.803 230.676L315.246 195.57L315.248 195.572ZM499.038 369.146L487.838 339.388L501.699 363.572C501.346 363.819 501.049 364.158 500.839 364.571C500.373 365.502 500.5 366.572 501.071 367.359L499.038 369.146ZM513.556 413.62C513.39 413.952 513.3 414.301 513.276 414.651L447.956 416.432C447.9 415.977 447.729 415.542 447.458 415.17L498.824 369.998L514.786 412.408C514.271 412.657 513.831 413.071 513.554 413.621L513.556 413.62ZM216.758 349.832C216.555 349.603 216.312 349.408 216.032 349.252L233.752 308.463C235 308.875 236.395 308.321 237 307.11L262.089 316.867L216.758 349.832ZM51.3713 188.739C51.4138 188.701 51.4582 188.661 51.4973 188.619L78.1546 216.713C78.0066 216.883 77.8771 217.07 77.7711 217.279C77.4941 217.83 77.4292 218.43 77.537 218.992L70.0052 221.174L51.3713 188.739ZM127.674 255.1L136.94 262.181C136.894 262.253 136.851 262.328 136.812 262.407C136.566 262.899 136.486 263.43 136.547 263.937L128.074 265.768L83.0626 221.001L127.674 255.1ZM137.241 261.787L104.84 237.021L82.4594 219.915C82.5054 219.844 82.5481 219.769 82.5874 219.69C82.8076 219.251 82.8937 218.782 82.865 218.322L133.242 210.588L138.684 260.972C138.136 261.084 137.629 261.364 137.241 261.783L137.241 261.787ZM77.6757 219.469C77.9101 220.068 78.3548 220.584 78.9741 220.893C79.5726 221.193 80.2299 221.247 80.8328 221.096L97.9559 269.83L70.2601 221.617L77.6776 219.468L77.6757 219.469ZM100.289 269.887C99.6901 269.586 99.0328 269.532 98.43 269.684L81.3008 220.932C81.5154 220.832 81.7192 220.706 81.9032 220.553L127.492 265.895L101.648 271.486C101.435 270.815 100.966 270.227 100.287 269.888L100.289 269.887ZM101.757 271.97L127.914 266.311L136.744 275.092C136.618 275.246 136.503 275.416 136.411 275.599C136.305 275.812 136.232 276.032 136.185 276.255L101.774 272.346C101.777 272.22 101.773 272.093 101.757 271.967L101.757 271.97ZM138.652 274.12C138.083 274.158 137.535 274.37 137.095 274.739L128.494 266.187L136.652 264.421C136.865 265.092 137.334 265.68 138.013 266.018C138.295 266.16 138.591 266.244 138.888 266.281L138.652 274.12ZM141.69 262.541L171.644 246.123L178.567 260.626C178.14 260.88 177.778 261.253 177.536 261.732C177.375 262.054 177.287 262.395 177.26 262.733L141.895 263.319C141.865 263.052 141.796 262.789 141.69 262.541ZM218.291 221.507C218.457 221.651 218.644 221.781 218.852 221.885C219.258 222.087 219.688 222.179 220.111 222.169L226.234 258.195L182.59 262.43C182.497 261.948 182.276 261.498 181.943 261.128L218.293 221.505L218.291 221.507ZM419.502 271.332L434.836 295.543C434.501 295.788 434.214 296.112 434.018 296.51C433.921 296.704 433.853 296.903 433.805 297.107L423.437 296.845L419.055 271.534C419.211 271.481 419.361 271.413 419.506 271.333L419.502 271.332ZM533.323 239.974C533.049 240.793 533.191 241.675 533.662 242.358L519.957 253.882L500.333 226.503C500.556 226.293 500.748 226.043 500.894 225.755L533.321 239.976L533.323 239.974ZM499.944 226.81L519.578 254.203L476.938 290.054C476.741 289.86 476.512 289.692 476.251 289.562C476.222 289.548 476.191 289.536 476.162 289.522L497.883 227.17C498.6 227.335 499.341 227.196 499.942 226.812L499.944 226.81ZM235.801 303.497C235.689 303.44 235.577 303.397 235.461 303.358L246.055 259.148C246.813 259.258 247.583 259.036 248.167 258.548L272.051 282.228L236.737 304.277C236.495 303.959 236.182 303.69 235.801 303.497ZM248.516 258.193C248.642 258.039 248.753 257.872 248.847 257.687C248.943 257.497 249.01 257.3 249.058 257.1L299.767 264.226C299.717 264.469 299.701 264.711 299.718 264.949L272.486 281.953L248.518 258.191L248.516 258.193ZM299.806 265.482C299.9 265.816 300.054 266.132 300.266 266.409L290.054 292.935L289.066 295.504C288.216 295.262 287.315 295.458 286.643 295.997L272.843 282.317L299.803 265.485L299.806 265.482ZM289.537 295.685C289.537 295.685 289.535 295.683 289.534 295.682L290.518 293.123L300.649 266.807C300.812 266.948 300.996 267.074 301.198 267.176C301.532 267.343 301.885 267.434 302.234 267.457L309.781 289.533L290.728 296.864C290.476 296.372 290.072 295.949 289.539 295.684L289.537 295.685ZM237 304.699L272.414 282.586L286.288 296.342C286.148 296.506 286.024 296.688 285.924 296.888C285.715 297.307 285.625 297.753 285.641 298.19L237.213 305.273C237.165 305.075 237.092 304.883 237 304.699ZM326.571 340.404L290.338 299.885C290.493 299.712 290.63 299.515 290.74 299.299C291.058 298.661 291.099 297.959 290.91 297.326L309.939 290.006L327.07 340.112C326.893 340.19 326.728 340.289 326.572 340.406L326.571 340.404ZM310.403 289.826L332.544 281.307C332.798 281.757 333.183 282.136 333.681 282.384C333.875 282.481 334.075 282.551 334.277 282.597L330.59 317.377L328.205 339.875C327.978 339.872 327.755 339.896 327.54 339.95L310.403 289.826ZM444.121 414.325L431.651 392.979L423.945 379.783C424.291 379.536 424.583 379.206 424.787 378.798C425.188 377.999 425.149 377.097 424.769 376.359L435.997 369.18L444.499 414.176C444.368 414.216 444.242 414.266 444.12 414.323L444.121 414.325ZM401.85 298.79L427.948 332.92C427.717 333.135 427.513 333.392 427.366 333.693C427.108 334.209 427.033 334.768 427.114 335.301L412.422 339.866L401.364 299.031C401.535 298.967 401.699 298.886 401.854 298.79L401.85 298.79ZM427.231 335.784C427.455 336.422 427.913 336.979 428.569 337.306C428.733 337.388 428.901 337.452 429.073 337.498L422.594 374.909C422.367 374.892 422.141 374.905 421.921 374.942L412.552 340.344L427.233 335.782L427.231 335.784ZM424.502 375.94C424.263 375.634 423.956 375.371 423.584 375.184C423.421 375.104 423.252 375.039 423.084 374.993L425.403 361.631L429.578 337.584C429.729 337.596 429.879 337.591 430.028 337.578L435.899 368.655L424.502 375.944L424.502 375.94ZM430.515 337.484C431.214 337.283 431.83 336.804 432.182 336.103C432.324 335.818 432.408 335.522 432.445 335.224L483.833 336.745C483.857 337.118 483.958 337.479 484.129 337.81L436.351 368.362L430.517 337.482L430.515 337.484ZM484.109 335.373C483.967 335.657 483.883 335.954 483.846 336.251L432.458 334.73C432.425 334.188 432.225 333.666 431.889 333.236L454.353 311.936L484.246 335.132C484.197 335.21 484.152 335.29 484.111 335.374L484.109 335.373ZM431.547 332.875C431.377 332.727 431.188 332.596 430.979 332.49C430.916 332.456 430.85 332.432 430.786 332.406L436.08 300.38C436.935 300.49 437.8 300.183 438.392 299.552L453.955 311.628L431.547 332.875ZM435.222 300.122C435.344 300.183 435.47 300.23 435.595 300.272L430.306 332.262C430.057 332.212 429.808 332.199 429.56 332.218L423.522 297.344L433.735 297.601C433.692 298.627 434.241 299.634 435.219 300.122L435.222 300.122ZM429.072 332.303C428.861 332.359 428.656 332.44 428.464 332.546L402.252 298.482C402.481 298.269 402.68 298.014 402.829 297.715C402.972 297.429 403.057 297.129 403.092 296.826L423.016 297.328L429.07 332.302L429.072 332.303ZM337.292 281.183C337.31 281.147 337.324 281.111 337.34 281.073L373.102 289.97L397.756 296.104C397.67 296.67 397.77 297.242 398.026 297.741L357.57 323.531L336.181 282.337C336.645 282.084 337.039 281.692 337.292 281.183ZM399.443 299.021C399.913 299.206 400.408 299.246 400.878 299.164L411.942 340.017L374.853 351.542C374.644 351.038 374.281 350.595 373.791 350.287L399.443 299.021ZM375.003 352.016L412.074 340.497L421.439 375.076C420.895 375.278 420.416 375.652 420.093 376.174L374.878 353.55C375.075 353.048 375.11 352.515 375.003 352.016ZM421.174 380.004C421.939 380.386 422.797 380.369 423.516 380.036L429.134 389.655L443.693 414.581C443.605 414.646 443.518 414.717 443.437 414.794L409.758 385.151L419.787 376.864C419.442 378.085 419.997 379.415 421.174 380.004ZM446.239 414.232C445.828 414.076 445.401 414.029 444.986 414.074L436.448 368.89L484.394 338.23C484.579 338.469 484.803 338.678 485.067 338.848L446.239 414.232ZM484.55 334.741L454.714 311.59L473.273 293.993C473.443 294.141 473.632 294.272 473.841 294.378C474.366 294.642 474.936 294.714 475.472 294.626L485.608 334.047C485.211 334.189 484.847 334.424 484.55 334.741ZM472.931 293.632L454.318 311.281L438.698 299.16C438.748 299.082 438.793 299.001 438.834 298.917C439.052 298.483 439.138 298.018 439.113 297.562L472.432 292.606C472.522 292.977 472.692 293.325 472.931 293.628L472.931 293.632ZM418.569 271.651L422.929 296.831L403.104 296.33C403.053 295.586 402.698 294.883 402.096 294.404L417.119 271.464C417.591 271.665 418.091 271.723 418.567 271.653L418.569 271.651ZM416.681 271.227L401.679 294.134C401.66 294.125 401.643 294.113 401.624 294.103C400.295 293.437 398.677 293.977 398.011 295.306C397.96 295.409 397.915 295.516 397.878 295.623L342.732 281.901L337.501 280.601C337.543 280.422 337.567 280.24 337.573 280.06L415.583 269.714C415.754 270.319 416.13 270.863 416.681 271.23L416.681 271.227ZM332.339 280.853L310.241 289.353L302.747 267.437C303.563 267.328 304.311 266.848 304.742 266.085L332.289 279.259C332.141 279.793 332.166 280.346 332.339 280.849L332.339 280.853ZM245.23 258.89C245.342 258.947 245.454 258.99 245.57 259.029L234.977 303.239C234.781 303.211 234.584 303.205 234.391 303.221L226.815 258.636L243.795 256.988C243.949 257.783 244.454 258.499 245.234 258.89L245.23 258.89ZM182.354 264.137C182.551 263.746 182.638 263.33 182.636 262.92L226.316 258.68L233.9 303.302C233.425 303.429 232.985 303.684 232.639 304.05L182.207 264.393C182.261 264.312 182.311 264.226 182.354 264.137ZM237.181 306.643C237.264 306.351 237.297 306.054 237.28 305.761L285.699 298.679C285.761 298.955 285.868 299.219 286.014 299.466L262.567 316.517L237.18 306.644L237.181 306.643ZM286.308 299.867C286.53 300.122 286.804 300.337 287.125 300.5C288.08 300.978 289.181 300.833 289.973 300.223L326.199 340.735C326.084 340.859 325.978 340.994 325.886 341.144L263.12 316.734L286.309 299.873L286.308 299.867ZM329.375 340.157C329.156 340.047 328.929 339.973 328.701 339.928L334.77 282.665C335.096 282.678 335.421 282.634 335.725 282.534L357.151 323.798L330.296 340.916C330.057 340.606 329.749 340.345 329.375 340.157ZM357.8 323.972L398.293 298.16C398.484 298.406 398.717 298.624 398.997 298.797L373.345 350.063C372.684 349.805 371.975 349.828 371.353 350.08L357.798 323.974L357.8 323.972ZM374.654 353.992L419.516 376.439L409.378 384.815L374.542 354.153C374.582 354.101 374.618 354.048 374.654 353.992ZM443.109 415.166C443.022 415.285 442.943 415.409 442.875 415.544C442.806 415.68 442.755 415.82 442.71 415.96L386.6 404.284L409.369 385.469L443.108 415.164L443.109 415.166ZM447.133 414.791C447.026 414.69 446.908 414.596 446.782 414.512L446.744 414.336L485.51 339.072C486.073 339.3 486.674 339.321 487.228 339.171L498.641 369.493L447.137 414.791L447.133 414.791ZM531.064 344.608L505.245 363.966C505.027 363.724 504.763 363.516 504.454 363.363C504.257 363.263 504.053 363.196 503.846 363.148L506.943 339.717L530.666 343.07C530.639 343.613 530.78 344.148 531.062 344.607L531.064 344.608ZM503.353 363.083C502.93 363.066 502.51 363.15 502.131 363.324L488.065 338.782C488.418 338.534 488.715 338.196 488.925 337.783C489.021 337.593 489.088 337.396 489.135 337.199L506.452 339.647L503.353 363.083ZM489.205 336.708C489.24 335.974 488.973 335.254 488.463 334.721L509.203 310.871C509.343 310.982 509.5 311.082 509.666 311.166C509.838 311.253 510.016 311.317 510.195 311.363L506.52 339.157L489.207 336.71L489.205 336.708ZM508.843 310.527L490.899 331.163L508.278 308.031C508.031 308.912 508.255 309.851 508.843 310.527ZM487.929 334.288C487.862 334.247 487.794 334.209 487.724 334.172C487.199 333.908 486.629 333.836 486.093 333.924L475.957 294.503C476.587 294.278 477.135 293.82 477.458 293.176C477.743 292.608 477.805 291.986 477.681 291.409L531.298 274.683C531.46 275.038 531.704 275.361 532.012 275.622L487.929 334.291L487.929 334.288ZM477.531 290.935C477.458 290.761 477.37 290.592 477.26 290.433L519.868 254.608L531.99 271.518C531.726 271.745 531.502 272.024 531.337 272.356C531.036 272.955 530.984 273.61 531.134 274.212L477.533 290.933L477.531 290.935ZM532.396 271.233L520.251 254.29L533.987 242.741C534.185 242.934 534.414 243.103 534.674 243.233C534.93 243.361 535.195 243.443 535.464 243.486L533.74 270.872C533.266 270.873 532.804 270.999 532.397 271.234L532.396 271.233ZM537.083 238.415C535.787 237.766 534.22 238.263 533.526 239.52L501.231 225.357L579.603 244.208L538.572 240.797C538.562 239.819 538.022 238.881 537.087 238.415L537.083 238.415ZM580.403 243.521C580.348 243.631 580.303 243.744 580.266 243.859L501.167 224.833C501.209 224.43 501.16 224.026 501.027 223.651L533.496 209.321L580.498 243.358C580.467 243.413 580.434 243.466 580.405 243.523L580.403 243.521ZM497.284 226.958C497.327 226.979 497.372 226.996 497.415 227.014L475.695 289.357C474.905 289.159 474.077 289.339 473.44 289.812L458.002 272.667L496.948 226.755C497.055 226.83 497.164 226.899 497.284 226.958ZM473.07 290.145C472.902 290.326 472.756 290.532 472.64 290.767C472.422 291.201 472.336 291.666 472.361 292.122L439.041 297.078C438.928 296.615 438.69 296.183 438.351 295.836L457.677 273.053L473.07 290.149L473.07 290.145ZM437.969 295.512C437.862 295.437 437.751 295.367 437.631 295.307C437.101 295.042 436.526 294.971 435.984 295.061L419.247 231.502C419.491 231.412 419.721 231.289 419.934 231.131L457.34 272.675L437.967 295.51L437.969 295.512ZM418.767 231.63L435.502 295.187C435.421 295.216 435.34 295.249 435.263 295.289L419.91 271.049C420.182 270.821 420.412 270.533 420.581 270.197C421.246 268.866 420.707 267.25 419.378 266.584C419.073 266.431 418.752 266.345 418.433 266.314L418.565 231.658C418.634 231.653 418.701 231.642 418.769 231.632L418.767 231.63ZM415.494 269.225L337.542 279.566C337.413 278.736 336.897 277.976 336.087 277.571C335.724 277.39 335.338 277.3 334.955 277.29L332.249 235.808C333.06 235.68 333.799 235.182 334.208 234.403L415.663 268.016C415.508 268.412 415.455 268.825 415.492 269.226L415.494 269.225ZM330.625 235.558C330.989 235.739 331.375 235.83 331.757 235.841L334.402 276.409L326.7 239.029L330.186 235.285C330.319 235.389 330.467 235.483 330.625 235.561L330.625 235.558ZM334.098 277.405C333.417 277.614 332.818 278.086 332.474 278.774C332.47 278.781 332.468 278.79 332.462 278.798L304.943 265.637C305.261 264.705 305.038 263.691 304.403 262.979L326.282 239.472L334.097 277.403L334.098 277.405ZM304.041 262.639C303.907 262.535 303.759 262.441 303.601 262.363C303.464 262.296 303.324 262.241 303.182 262.198L316.788 196.279C316.987 196.3 317.186 196.302 317.384 196.281L326.16 238.876L304.041 262.639ZM300.542 262.822C300.322 263.03 300.133 263.278 299.988 263.566C299.958 263.626 299.934 263.688 299.908 263.748L249.124 256.612C249.152 255.994 248.966 255.386 248.603 254.89L275.434 231.009L300.542 262.822ZM244.673 254.448C244.413 254.672 244.191 254.953 244.027 255.28C243.831 255.671 243.744 256.087 243.745 256.498L226.731 258.149L220.605 222.112C220.862 222.059 221.108 221.968 221.338 221.844L244.673 254.451L244.673 254.448ZM217.945 221.146L181.574 260.792C181.444 260.692 181.302 260.602 181.151 260.527C180.458 260.181 179.69 260.164 179.017 260.412L172.081 245.884L217.744 220.855C217.806 220.957 217.873 221.054 217.947 221.147L217.945 221.146ZM171.428 245.672L141.45 262.104C141.199 261.732 140.854 261.416 140.424 261.202C140.321 261.151 140.217 261.11 140.112 261.071L150.356 220.244L152.935 209.96C153.403 210.031 153.876 209.973 154.305 209.807L171.427 245.67L171.428 245.672ZM152.129 209.709C152.234 209.762 152.343 209.804 152.453 209.842L139.631 260.949C139.479 260.925 139.33 260.916 139.178 260.918L133.734 210.513L150.712 207.908C150.887 208.663 151.383 209.337 152.129 209.709ZM133.189 210.094L82.7886 217.833C82.6808 217.405 82.4693 217.006 82.1664 216.674L126.933 167.601C127.139 167.814 127.381 167.998 127.66 168.137C127.99 168.302 128.339 168.393 128.684 168.416L133.185 210.094L133.189 210.094ZM126.235 166.286C126.306 166.614 126.435 166.929 126.621 167.21L81.8019 216.339C81.6733 216.241 81.5336 216.153 81.3843 216.08C81.0086 215.893 80.6137 215.804 80.2198 215.797L77.3918 179.31L126.237 166.288L126.235 166.286ZM79.7233 215.833C79.2828 215.908 78.8684 216.091 78.5141 216.369L51.8184 188.237C51.8908 188.131 51.958 188.024 52.0169 187.907C52.3217 187.298 52.3725 186.63 52.2109 186.02L76.9011 179.437L79.7233 215.833ZM50.962 189.028L69.5102 221.315L50.5753 226.801C50.3409 226.202 49.8962 225.686 49.277 225.377C49.0026 225.24 48.7165 225.156 48.4281 225.118L49.8769 189.379C50.2591 189.339 50.6279 189.222 50.962 189.028ZM50.2529 229.359C50.3364 229.244 50.4132 229.121 50.4799 228.991C50.757 228.44 50.8219 227.84 50.714 227.278L69.7651 221.758L97.5302 270.092C97.4241 270.168 97.3211 270.254 97.2265 270.346L50.2529 229.359ZM141.279 275.712C141.033 275.161 140.604 274.687 140.023 274.395C139.742 274.253 139.445 274.169 139.148 274.132L139.384 266.293C140.31 266.235 141.181 265.702 141.625 264.813C141.786 264.491 141.875 264.151 141.901 263.812L177.266 263.226C177.278 263.336 177.297 263.446 177.321 263.555L141.276 275.712L141.279 275.712ZM181.153 265.336C181.427 265.199 181.68 265.015 181.898 264.785L232.33 304.442C232.276 304.523 232.226 304.609 232.182 304.698C231.532 305.996 232.034 307.568 233.296 308.261L215.576 349.051C215.048 348.877 214.497 348.874 213.988 349.022L181.154 265.334L181.153 265.336ZM217.379 351.113C217.321 350.804 217.209 350.504 217.047 350.231L262.638 317.079L324.684 341.21L217.377 351.115L217.379 351.113ZM330.834 342.914C330.907 342.367 330.805 341.816 330.56 341.335L357.376 324.241L370.91 350.309C370.516 350.563 370.181 350.918 369.957 351.368C369.896 351.49 369.849 351.612 369.809 351.739L330.836 342.916L330.834 342.914ZM373.289 355.098C373.628 354.973 373.942 354.78 374.211 354.529L408.986 385.137L386.179 403.983L373.287 355.1L373.289 355.098ZM455.403 455.855C454.97 455.994 454.57 456.244 454.253 456.586L387.053 404.886L442.609 416.446C442.487 417.536 443.04 418.637 444.078 419.158C445.143 419.691 446.387 419.45 447.186 418.654L455.407 455.855L455.403 455.855ZM514.548 410.361L499.223 369.642L501.397 367.731C501.583 367.908 501.798 368.062 502.04 368.182C502.565 368.446 503.139 368.518 503.678 368.43L514.55 410.363L514.548 410.361ZM531.679 341.094C531.38 341.33 531.125 341.633 530.944 341.997C530.847 342.187 530.783 342.383 530.733 342.581L507.006 339.225L510.68 311.441C511.183 311.476 511.682 311.365 512.123 311.135L531.679 341.094ZM512.027 306.328C511.17 305.919 510.201 306.002 509.446 306.471L529.27 280.088L512.029 306.326L512.027 306.328ZM583.233 242.064C582.321 241.917 581.392 242.252 580.78 242.951L534.014 209.086L597.131 181.23C597.386 181.686 597.775 182.075 598.278 182.328C598.376 182.377 598.476 182.418 598.574 182.453L583.231 242.065L583.233 242.064ZM596.837 180.39C596.861 180.52 596.891 180.65 596.933 180.776L533.551 208.746L506.727 189.32C506.752 189.277 506.777 189.234 506.8 189.19C507.015 188.763 507.102 188.306 507.081 187.86L596.837 180.39ZM504.076 190.66C504.963 190.764 505.854 190.42 506.439 189.729L533.021 208.979L500.81 223.194C500.554 222.755 500.174 222.381 499.687 222.138C499.53 222.059 499.367 221.998 499.202 221.952L504.076 190.66ZM495.809 224.863C495.879 225.45 496.14 226.004 496.562 226.431L457.659 272.29L420.298 230.796C420.466 230.615 420.612 230.41 420.728 230.175C420.905 229.818 420.995 229.442 421.01 229.068L495.808 224.861L495.809 224.863ZM329.417 231.943C328.91 232.958 329.105 234.14 329.818 234.94L326.573 238.428L317.979 196.718L330.657 230.726C330.139 230.975 329.695 231.388 329.417 231.946L329.417 231.943ZM314.544 194.493C314.633 194.744 314.757 194.983 314.917 195.197L275.495 230.285L259.748 210.334C259.968 210.125 260.159 209.877 260.303 209.59C260.562 209.072 260.637 208.509 260.553 207.977L314.544 194.493ZM255.392 209.379C255.627 209.974 256.072 210.486 256.687 210.795C256.799 210.852 256.915 210.895 257.03 210.934L246.813 253.819C246.207 253.733 245.596 253.857 245.075 254.159L221.748 221.565C222.037 221.332 222.285 221.035 222.46 220.68C222.737 220.126 222.804 219.524 222.691 218.96L255.391 209.377L255.392 209.379ZM217.377 219.188C217.333 219.603 217.387 220.02 217.528 220.404L171.865 245.433L154.753 209.587C155.164 209.334 155.514 208.969 155.744 208.504C155.831 208.329 155.897 208.153 155.943 207.97L217.381 219.185L217.377 219.188ZM151.794 205.09C151.436 205.339 151.133 205.678 150.923 206.095C150.71 206.52 150.622 206.972 150.642 207.415L133.679 210.018L129.185 168.4C129.456 168.367 129.722 168.295 129.969 168.183L151.794 205.09ZM73.4991 153.365C73.6211 153.456 73.7506 153.536 73.8913 153.607C74.2222 153.774 74.5713 153.864 74.9203 153.888L76.8624 178.933L52.0401 185.552C51.8754 185.202 51.6332 184.884 51.3244 184.63L73.5008 153.367L73.4991 153.365Z" fill="#BF8888"/>
<path d="M424.31 268.879L428.812 274.118C429.051 274.396 429.467 274.425 429.744 274.189C430.02 273.951 430.051 273.533 429.815 273.257L425.302 268.005C425.003 267.674 424.665 267.404 424.311 267.165C424.3 267.151 424.297 267.132 424.283 267.119C422.838 265.518 422.913 263.085 424.451 261.695C425.99 260.302 428.419 260.48 429.865 262.081L434.364 267.32C434.506 267.485 434.712 267.562 434.912 267.548C435.05 267.539 435.184 267.486 435.297 267.391C435.573 267.153 435.604 266.736 435.368 266.459L430.856 261.207C430.312 260.603 429.658 260.17 428.961 259.874C428.432 258.217 428.91 256.408 430.206 255.235C431.086 254.442 432.219 254.028 433.4 254.099C434.581 254.159 435.669 254.675 436.463 255.554L441.468 261.389C441.61 261.554 441.815 261.633 442.016 261.619C442.153 261.609 442.287 261.556 442.399 261.462C442.675 261.224 442.708 260.808 442.47 260.531L437.453 254.683C437.324 254.539 437.172 254.427 437.031 254.297C437.004 254.225 436.97 254.156 436.917 254.093L428.143 243.872C427.535 242.95 427.323 241.726 427.611 240.577C427.898 239.428 428.66 238.448 429.703 237.887C431.23 237.062 433.077 237.252 434.408 238.362L451.418 252.572C452.396 253.39 453.241 254.348 453.931 255.419L463.923 291.854L440.434 306.495L434.059 303.66C430.454 302.055 427.682 298.982 426.461 295.229L421.652 280.46L418.848 274.09C418.126 272.229 417.538 269.721 418.902 268.491C420.437 267.102 422.868 267.273 424.313 268.876L424.31 268.879Z" fill="#FFBE97"/>
<path d="M418.013 267.514C419.207 266.435 420.789 266.07 422.291 266.343C421.541 264.403 421.973 262.153 423.564 260.714C424.669 259.718 426.109 259.329 427.508 259.491C427.18 257.57 427.837 255.592 429.317 254.256C430.456 253.228 431.925 252.703 433.464 252.782C433.693 252.793 433.91 252.843 434.131 252.882L427.089 244.67C426.226 243.376 425.949 241.769 426.326 240.26C426.703 238.753 427.704 237.464 429.073 236.727C431.083 235.648 433.502 235.893 435.252 237.354L452.261 251.563C453.371 252.49 454.325 253.579 455.097 254.799C455.132 254.856 455.158 254.916 455.176 254.977L465.324 291.983C465.403 292.264 465.284 292.564 465.037 292.718L440.834 307.805C440.74 307.862 440.636 307.896 440.531 307.903C440.426 307.911 440.316 307.892 440.217 307.848L433.522 304.869C429.574 303.113 426.542 299.749 425.203 295.64L420.418 280.934L417.628 274.598C416.028 270.476 416.954 268.471 418.014 267.514L418.013 267.514ZM418.845 274.093L421.649 280.463L426.458 295.231C427.68 298.986 430.45 302.058 434.056 303.663L440.431 306.498L463.92 291.856L453.928 255.422C453.238 254.351 452.393 253.393 451.414 252.574L434.405 238.365C433.074 237.255 431.227 237.065 429.7 237.889C428.657 238.45 427.894 239.431 427.607 240.58C427.32 241.73 427.531 242.953 428.14 243.874L436.914 254.095C436.966 254.157 437.001 254.227 437.027 254.3C437.168 254.428 437.32 254.541 437.45 254.686L442.467 260.534C442.705 260.81 442.672 261.226 442.395 261.464C442.284 261.56 442.15 261.612 442.012 261.621C441.812 261.635 441.608 261.558 441.465 261.391L436.46 255.557C435.666 254.677 434.579 254.161 433.396 254.101C432.216 254.03 431.082 254.444 430.203 255.238C428.906 256.409 428.428 258.219 428.958 259.877C429.655 260.172 430.308 260.606 430.853 261.209L435.365 266.462C435.603 266.738 435.571 267.156 435.293 267.394C435.181 267.49 435.046 267.541 434.909 267.551C434.708 267.565 434.505 267.488 434.361 267.322L429.861 262.083C428.416 260.482 425.988 260.306 424.448 261.698C422.91 263.087 422.835 265.521 424.28 267.122C424.294 267.136 424.296 267.153 424.308 267.168C424.661 267.407 425 267.676 425.299 268.007L429.812 273.259C430.05 273.536 430.019 273.953 429.741 274.192C429.466 274.428 429.048 274.4 428.808 274.12L424.307 268.881C422.862 267.278 420.431 267.107 418.896 268.497C417.532 269.727 418.12 272.235 418.842 274.096L418.845 274.093Z" fill="#FFBE97"/>
<path d="M427.104 242.416L442.86 262.551M427.979 260.365L436.295 270.431M422.289 266.492L429.292 276.997" stroke="#4F2B2B" stroke-width="1.5" stroke-linecap="round" stroke-linejoin="round"/>
<path d="M528.308 235.922H573.958L588.076 263.217H542.426L528.308 235.922Z" fill="#FFBE97"/>
<path d="M538.305 255.221L532.996 244.602L568.395 245.782C555.651 257.581 543.222 255.025 538.305 255.221Z" fill="#4F2B2B"/>
<path d="M581.633 182.841C560.7 164.327 529.634 172.645 529.634 172.645C529.634 172.645 517.861 164.666 511.592 173.443C505.325 182.221 517.055 191.27 517.055 191.27L581.633 182.839V182.841Z" fill="#4F2B2B"/>
<path d="M587.292 231.811C580.585 249.835 554.963 258.258 533.334 250.209C511.706 242.16 502.264 220.688 508.971 202.666C515.678 184.643 538.647 176.557 560.276 184.605C581.903 192.654 593.999 213.788 587.292 231.811Z" fill="#FFBE97"/>
<path d="M524.024 211.132C524.338 211.193 524.655 211.006 524.743 210.693C524.839 210.358 524.648 210.013 524.315 209.913L516.42 207.616L523.798 205.998C524.139 205.923 524.353 205.589 524.278 205.249C524.204 204.909 523.869 204.699 523.53 204.769L513.746 206.917C513.467 206.98 513.262 207.221 513.255 207.509C513.245 207.797 513.43 208.055 513.709 208.131L523.964 211.116C523.964 211.116 524.003 211.124 524.021 211.127L524.024 211.132Z" fill="#4F2B2B"/>
<path d="M534.144 221.65C530.562 221.191 527.858 219.258 528.104 217.331C528.351 215.404 531.455 214.214 535.037 214.672C538.619 215.13 541.324 217.064 541.077 218.991C540.831 220.917 537.727 222.108 534.144 221.65Z" fill="#FF9D6C"/>
<path d="M513.594 203.461L502.871 211.219C501.485 212.221 501.49 214.288 502.88 215.284L509.52 220.044L513.592 203.462L513.594 203.461Z" fill="#FFBE97"/>
<path d="M530.327 204.012C530.494 204.012 530.659 203.948 530.788 203.823C531.049 203.568 531.052 203.15 530.799 202.889C528.531 200.574 525.546 198.894 522.396 198.158C522.035 198.076 521.686 198.295 521.602 198.651C521.519 199.005 521.74 199.361 522.094 199.445C525.005 200.122 527.761 201.673 529.854 203.812C529.983 203.945 530.154 204.01 530.325 204.01L530.327 204.012Z" fill="#4F2B2B"/>
<path d="M529.23 172.44C529.23 172.44 560.219 163.221 581.152 181.734C602.084 200.248 601.982 221.941 591.52 235.88C581.059 249.818 568.525 250.194 568.525 250.194C568.525 250.194 555.231 208.844 553.929 209.953C552.626 211.062 529.23 172.439 529.23 172.439V172.44Z" fill="#4F2B2B"/>
<path d="M580.36 203.128C574.281 196.98 573.494 187.901 578.603 182.849C583.711 177.797 592.781 178.685 598.861 184.833C604.941 190.981 605.728 200.06 600.619 205.112C595.51 210.164 586.44 209.276 580.36 203.128Z" fill="#4F2B2B"/>
<path d="M592.182 192.52C592.182 192.52 607.368 174.032 634.441 188.558C661.513 203.085 650.948 229.167 680.001 232.138C680.001 232.138 634.441 253.267 603.737 215.631L592.182 192.52Z" fill="#4F2B2B"/>
<path d="M547.61 225.837C546.117 220.87 548.933 215.633 553.9 214.14C558.867 212.647 564.104 215.463 565.597 220.43C567.09 225.397 564.274 230.634 559.307 232.127C554.34 233.62 549.103 230.804 547.61 225.837Z" fill="#FFBE97"/>
<path d="M559.393 224.807L553.958 225.04C553.083 225.078 552.342 224.399 552.305 223.523C552.268 222.648 552.947 221.907 553.822 221.87L559.257 221.636C560.133 221.599 560.874 222.278 560.911 223.153C560.948 224.029 560.269 224.77 559.393 224.807Z" fill="#4F2B2B"/>
<path d="M519.32 229.264C521.949 229.264 524.577 228.851 527.07 228.028C527.417 227.915 527.605 227.541 527.489 227.195C527.375 226.85 527.005 226.656 526.656 226.775C522.121 228.274 517.11 228.333 512.542 226.949C512.193 226.842 511.825 227.038 511.719 227.388C511.614 227.738 511.811 228.106 512.16 228.212C514.474 228.915 516.898 229.264 519.321 229.264H519.32Z" fill="#4F2B2B"/>
<path d="M531.202 177.289C527.371 179.881 525.367 184.913 526.364 189.429C527.363 193.945 531.301 197.663 535.868 198.398C536.232 198.457 536.64 198.52 536.861 198.816C537.041 199.054 537.044 199.377 537.055 199.676C537.398 209.458 553.969 218.03 561.818 211.535L531.202 177.289Z" fill="#4F2B2B"/>
<path d="M595.887 264.991L582.163 251.273C582.163 251.273 544.714 255.156 527.526 267.346L595.887 264.991Z" fill="#FADBE9"/>
<path d="M595.886 264.989C595.886 264.989 608.967 276.193 615.371 287.687C632.941 319.217 645.072 399.11 645.072 399.11L526.425 399.693L523.131 364.397C523.131 364.397 511.835 385.103 488.776 383.221C462.323 381.062 440.366 308.317 440.366 308.317L463.965 288.257L489.246 303.687L506.714 280.1C514.706 272.108 525.008 266.85 536.163 265.028C554.676 262.004 582.798 258.889 595.887 264.989H595.886Z" fill="#E95D9A"/>
<path d="M523.13 365.055C523.34 365.055 523.547 364.955 523.676 364.768L541.088 339.353C541.294 339.053 541.216 338.641 540.916 338.436C540.615 338.23 540.203 338.307 539.998 338.607L522.585 364.022C522.379 364.322 522.457 364.733 522.757 364.939C522.871 365.018 523.001 365.055 523.13 365.055Z" fill="#4F2B2B"/>
<path d="M504.591 327.261C504.675 327.261 504.76 327.246 504.842 327.212C505.179 327.074 505.341 326.689 505.202 326.35C501.652 317.678 496.252 309.611 489.585 303.025C489.326 302.768 488.908 302.771 488.651 303.029C488.394 303.289 488.398 303.707 488.656 303.964C495.197 310.427 500.496 318.34 503.979 326.851C504.084 327.106 504.33 327.261 504.59 327.261H504.591Z" fill="#4F2B2B"/>
<path d="M267.146 98.0478C268.575 84.7364 276.662 72.7183 291.264 72.0578C293.175 71.9715 295.081 72.0579 296.981 72.2878C297.508 66.8484 297.855 60.4207 300.923 55.8138C308.422 44.5806 318.924 38.2048 331.87 36.3999C344.811 34.5963 358.375 39.7852 367.523 50.2428C371.591 35.0134 391.353 25.356 406.289 26.4301C419.682 27.3888 434.951 38.2204 437.085 57.7051C442.276 53.3886 449.301 52.6775 456.035 53.6911C466.218 55.2256 474.87 63.1511 480.223 72.722C486.952 84.7395 488.412 99.8874 483.548 112.438C478.689 124.987 471.865 132.64 459.391 135.47C452.406 137.052 444.474 137.146 437.279 132.852C437.297 143.46 429.692 151.386 420.927 155.971C412.163 160.555 400.166 161.618 390.644 158.31C382.647 155.536 374.84 150.1 371.395 141.845C362.917 151.658 351.038 158.537 338.33 158.685C325.621 158.832 312.341 151.447 306.465 139.114C305.369 136.82 304.594 134.372 304.115 131.865C299.575 134.074 294.367 134.823 289.347 133.869C272.817 130.724 265.487 113.511 267.149 98.0409L267.146 98.0478Z" fill="#FBE4C6"/>
<g filter="url(#filter0_bf_574_11121)">
<ellipse cx="379.914" cy="119.3" rx="26.6988" ry="2.62611" fill="black"/>
</g>
<path d="M375.707 62.7866C374.497 62.7866 375.203 63.7946 375.707 64.2986L377.761 77.1993H381.39L379.941 64.2986C380.445 63.593 380.243 62.3059 379.033 62.7897C377.521 63.3946 377.219 62.7866 375.707 62.7866Z" fill="#82633F"/>
<path d="M369.577 70.2511C370.861 71.7769 374.779 72.9587 375.52 72.982L378.8 72.9308L377.997 71.9362C376.185 68.612 373.954 67.6468 373.134 67.3829C372.914 67.2218 372.019 66.8493 370.193 66.6491C368.368 66.4489 366.565 67.3743 365.892 67.862C366.633 67.9854 367.826 68.1722 369.577 70.2511Z" fill="#4A7431"/>
<path d="M371.713 75.3831C360.342 72.4799 353.87 78.4072 352.056 81.7337C336.028 99.2735 361.873 125.707 369.299 123.124C378.326 119.984 380.327 126.18 393.633 121.946C406.939 117.713 411.933 95.6447 406.792 85.0603C401.651 74.4759 393.789 74.4761 390.764 73.8712C387.74 73.2664 385.926 79.012 371.713 75.3831Z" fill="#87B743"/>
<path d="M494.642 121.294C488.031 120.651 481.723 128.625 485.757 135.772C488.688 140.965 495.306 142.771 499.804 138.973C505.278 134.351 503.491 125.636 497.4 122.203C496.461 121.672 495.537 121.385 494.645 121.298L494.642 121.294Z" fill="#FBE4C6"/>
<path d="M517.076 134.574C514.666 133.611 511.736 135.106 510.071 137.45C508.35 139.873 509.203 142.027 511.11 143.816C512.96 145.558 515.733 146.425 518.147 145.618C520.554 144.808 522.31 142.123 521.699 139.657C521.2 137.634 519.191 135.42 517.078 134.579L517.076 134.574Z" fill="#FBE4C6"/>
<path d="M262.772 126.494C269.238 124.971 276.558 132.026 273.519 139.649C271.312 145.189 264.995 147.867 260.029 144.706C253.984 140.86 254.585 131.984 260.161 127.765C261.021 127.113 261.897 126.704 262.77 126.499L262.772 126.494Z" fill="#FBE4C6"/>
<path d="M242.322 142.664C244.581 141.386 247.685 142.474 249.649 144.573C251.68 146.744 251.123 148.992 249.473 151.022C247.874 152.995 245.243 154.227 242.742 153.751C240.248 153.271 238.148 150.846 238.422 148.32C238.646 146.249 240.339 143.785 242.32 142.669L242.322 142.664Z" fill="#FBE4C6"/>
<path d="M302.913 323.867L350.806 312.668C356.025 311.309 361.407 314.235 363.109 319.361C364.853 324.636 362.077 330.339 356.844 332.211L312.012 347.803L279.867 371.298L274.82 383.671L223.381 371.077L302.913 323.86V323.867Z" fill="#FFBE97"/>
<path d="M279.54 319.859L309.541 314.249C314.561 313.309 319.459 316.378 320.805 321.304C322.107 326.067 319.665 331.051 315.109 332.952L289.642 343.539L274.542 361.929L223.381 371.091L227.318 343.745L230.308 335.287C230.322 335.252 230.337 335.209 230.351 335.173C232.537 329.072 238.147 324.85 244.583 324.081L279.547 319.873L279.54 319.859Z" fill="#FFBE97"/>
<path d="M283.726 346.821C283.427 346.821 283.15 346.643 283.028 346.351C282.865 345.967 283.05 345.518 283.434 345.362L314.817 332.254C319.011 330.51 321.275 325.89 320.071 321.511C319.965 321.105 320.2 320.692 320.605 320.578C321.011 320.472 321.431 320.707 321.538 321.112C322.941 326.231 320.299 331.621 315.401 333.657L284.018 346.764C283.926 346.807 283.826 346.821 283.726 346.821Z" fill="#4F2B2B"/>
<path d="M359.152 323.518L321.133 336.981L273.361 375.761L347.675 353.092L365.744 342.114C370.885 340.292 373.569 334.653 371.753 329.52C369.931 324.379 364.292 321.695 359.159 323.511L359.152 323.518Z" fill="#FFBE97"/>
<path d="M312.305 351.093C311.985 351.093 311.686 350.886 311.586 350.566C311.458 350.167 311.671 349.74 312.07 349.605L338.256 341.033C338.313 340.99 355.912 331.664 356.93 331.094C363.509 327.399 362.398 324.43 362.384 324.402C362.227 324.017 362.405 323.576 362.783 323.412C363.167 323.241 363.601 323.412 363.772 323.782C363.851 323.953 365.581 327.969 357.671 332.418C356.638 333.002 339.566 342.044 338.84 342.428L312.533 351.05C312.455 351.079 312.376 351.086 312.298 351.086L312.305 351.093Z" fill="#4F2B2B"/>
<path d="M300.955 330.342C300.72 330.342 300.492 330.235 300.343 330.029C298.833 327.971 298.136 325.337 298.413 322.809C298.456 322.389 298.84 322.09 299.253 322.14C299.673 322.183 299.972 322.56 299.923 322.98C299.681 325.138 300.286 327.387 301.567 329.139C301.816 329.473 301.745 329.95 301.403 330.2C301.268 330.299 301.112 330.349 300.955 330.349V330.342Z" fill="#4F2B2B"/>
<path d="M273.773 371.246C273.716 371.246 273.652 371.239 273.595 371.225C265.237 369.167 257.17 366.027 249.616 361.891C249.246 361.692 249.111 361.229 249.317 360.859C249.517 360.488 249.987 360.353 250.35 360.56C257.79 364.632 265.735 367.722 273.965 369.751C274.371 369.851 274.62 370.264 274.521 370.669C274.435 371.018 274.122 371.246 273.78 371.246H273.773Z" fill="#4F2B2B"/>
<path d="M128.32 258.751L135.824 229.945L94.3383 219.145L93.9609 220.583C99.9058 237.527 112.942 249.467 128.32 258.758V258.751Z" fill="#4F2B2B"/>
<path d="M94.04 220.447L77.3945 265.571H126.712L128.563 258.508C113.106 249.246 100.013 237.342 94.04 220.447Z" fill="#FFBE97"/>
<path d="M127.05 245.39C149.294 248.337 166.93 231.804 169.062 210.519C169.506 206.167 169.167 201.913 168.165 197.839C168.116 197.578 168.052 197.341 167.975 197.096C167.961 197.063 167.946 197.023 167.946 196.99C167.834 196.557 167.714 196.141 167.572 195.724C167.488 195.365 167.368 195.014 167.248 194.671C166.253 191.634 164.87 188.752 163.133 186.041C163.133 186.041 163.129 186.03 163.119 186.009C162.371 184.841 161.574 183.706 160.72 182.62C154.136 174.211 144.213 168.177 132.675 166.642C110.43 163.695 90.6561 178.554 88.5177 199.823C86.3724 221.108 104.82 242.442 127.064 245.39H127.05Z" fill="#FFBE97"/>
<path d="M171.389 224.621C171.162 225.96 162.029 229.27 162.029 229.27L166.197 209.615C166.197 209.615 171.611 223.287 171.384 224.626L171.389 224.621Z" fill="#FFBE97"/>
<path d="M146.41 208.975C146.023 208.917 145.735 208.571 145.761 208.174C145.786 207.749 146.147 207.429 146.573 207.449L156.614 208.025L148.768 203.146C148.406 202.921 148.295 202.448 148.52 202.086C148.744 201.724 149.216 201.619 149.579 201.839L159.984 208.31C160.28 208.498 160.418 208.859 160.308 209.194C160.202 209.53 159.883 209.751 159.53 209.726L146.486 208.98C146.486 208.98 146.438 208.973 146.417 208.97L146.41 208.975Z" fill="#4F2B2B"/>
<path d="M133.217 219.751C133.175 221.644 135.994 223.239 139.518 223.31C143.042 223.382 145.919 221.915 145.961 220.021C146.004 218.127 143.185 216.533 139.66 216.461C136.136 216.39 133.26 217.857 133.217 219.751Z" fill="#FB8876"/>
<path d="M129.548 186.37L92.8158 225.505C92.8158 225.505 80.1953 201.294 91.8286 182.154C112.496 148.134 157.779 167.754 160.585 183.306L129.548 186.37Z" fill="#4F2B2B"/>
<path d="M153.267 286.527L145.543 398.417H19C28.1059 361.944 46.7876 290.25 56.4345 274.936C64.0524 262.875 81.2034 261.074 81.2034 261.074H130.278L153.26 286.519L153.267 286.527Z" fill="#9F5656"/>
<path d="M218.07 398.417H135.155L101.793 302.517C96.1974 286.527 103.032 269.184 117.229 261.074C119.044 260.028 120.966 259.131 123.017 258.419C126.79 257.087 130.656 256.461 134.451 256.461C148.747 256.461 162.139 265.389 167.115 279.656L209.483 377.92L218.312 398.425" fill="#9F5656"/>
<path d="M131.959 399.181C131.646 399.181 131.354 398.989 131.24 398.676L118.745 362.972C118.603 362.573 118.817 362.146 119.208 362.003C119.607 361.861 120.034 362.074 120.176 362.466L132.671 398.171C132.814 398.569 132.6 398.996 132.208 399.139C132.123 399.167 132.038 399.181 131.959 399.181Z" fill="#4F2B2B"/>
<path d="M100.604 276.568C100.426 276.568 100.255 276.504 100.112 276.383C99.792 276.105 99.7564 275.628 100.027 275.315C105.345 269.121 111.61 263.895 118.659 259.787C119.022 259.574 119.485 259.695 119.698 260.058C119.912 260.421 119.784 260.884 119.428 261.097C112.529 265.12 106.392 270.239 101.187 276.304C101.038 276.482 100.824 276.568 100.611 276.568H100.604Z" fill="#4F2B2B"/>
<path d="M199.664 398.418L209.475 377.92L219.449 356.996L225.131 358.954L236.985 363.005L247.764 366.714L273.579 375.592L273.757 375.642L277.566 376.959L281.831 378.426L276.306 398.418H199.664Z" fill="#9F5656"/>
<path d="M218.069 399.178C217.777 399.178 217.499 399.008 217.378 398.723L208.764 379.201C208.593 378.816 208.763 378.368 209.148 378.197C209.532 378.026 209.981 378.197 210.152 378.582L218.766 398.103C218.937 398.488 218.766 398.936 218.382 399.107C218.282 399.15 218.176 399.171 218.076 399.171L218.069 399.178Z" fill="#4F2B2B"/>
<path d="M96.8584 215.04C96.9296 219.633 100.71 223.299 105.302 223.228C109.894 223.157 113.561 219.376 113.49 214.784C113.418 210.192 109.638 206.526 105.046 206.597C100.454 206.668 96.7872 210.448 96.8584 215.04Z" fill="#FFBE97"/>
<path d="M102.789 216.529L107.609 216.458C108.385 216.443 109.005 215.81 108.99 215.034C108.976 214.258 108.343 213.638 107.567 213.653L102.747 213.724C101.971 213.738 101.351 214.372 101.365 215.148C101.38 215.924 102.013 216.543 102.789 216.529Z" fill="#4F2B2B"/>
<path d="M136.516 187.245C136.516 187.245 162.161 196.656 176.478 176.05C176.478 176.05 165.264 177.386 155.248 168.824C150.947 165.15 109.686 150.09 99.9062 181.131L136.523 187.237L136.516 187.245Z" fill="#4F2B2B"/>
<path d="M117.075 196.339C110.13 205.941 115.971 208.905 122.539 207.263C126.531 209.363 131.634 212.301 131.159 200.9C130.543 186.123 138.846 194.648 145.731 194.948C151.24 195.189 155.833 193.075 157.43 192.075C163.118 196.876 169.432 189.567 172.618 191.254C176.107 193.101 188.924 184.636 185.332 173.834C182.458 165.192 170.164 163.231 164.376 163.331C163.418 159.25 160.185 157.23 158.688 156.73C149.826 153.609 141.823 164.031 138.929 169.633C129.589 162.911 123.861 170.233 122.165 174.734C119.57 174.434 113.663 175.814 110.789 183.736C107.915 191.658 113.782 195.439 117.075 196.339Z" fill="#4F2B2B"/>
<path d="M134.579 182.162L121.921 208.457L115.592 212.502L112.835 219.726L105.684 198.053L134.579 182.162Z" fill="#4F2B2B"/>
<path d="M147.316 228.603C146.967 228.603 146.654 228.845 146.575 229.201C146.483 229.614 146.746 230.019 147.152 230.105C150.292 230.795 153.616 230.81 156.763 230.141C157.176 230.055 157.432 229.649 157.347 229.243C157.262 228.831 156.849 228.574 156.45 228.66C153.517 229.279 150.413 229.265 147.479 228.624C147.422 228.61 147.373 228.603 147.316 228.603Z" fill="#4F2B2B"/>
<path d="M368.412 212.298C368.992 212.795 370.015 218.489 370.455 221.274C370.511 221.627 361.478 240.905 358.037 248.949C355.284 255.384 331.262 287.873 319.595 303.313C336.321 303.832 371.947 297.059 380.641 265.815C389.335 234.571 380.353 222.43 374.775 220.266L374.232 213.204C374.025 210.514 367.688 211.678 368.412 212.298Z" fill="#F5CD57"/>
<path d="M368.273 212.212C369.732 211.483 373 210.636 374.401 213.087C373.234 213.817 370.374 214.663 368.273 212.212Z" fill="#4F2B2B"/>
<path d="M374.838 220.529C374.254 221.113 372.562 222.105 370.461 221.405" stroke="#4F2B2B" stroke-linecap="round"/>
<path d="M376.588 228.844C379.798 238.619 382.453 260.532 367.396 269.986" stroke="#4F2B2B" stroke-linecap="round"/>
<path d="M371.001 228.613C372.552 238.784 371.553 260.835 355.143 267.673" stroke="#4F2B2B" stroke-linecap="round"/>
<path d="M331.117 210.21C329.772 210.313 330.642 211.374 331.246 211.891L334.631 226.06L338.666 225.75L335.953 211.529C336.453 210.702 336.119 209.288 334.816 209.929C333.186 210.731 332.798 210.081 331.117 210.21Z" fill="#82633F"/>
<path d="M324.937 219.029C326.496 220.616 330.953 221.595 331.779 221.558L335.421 221.221L334.444 220.184C332.145 216.642 329.581 215.76 328.647 215.536C328.389 215.376 327.362 215.038 325.315 214.972C323.268 214.905 321.343 216.088 320.636 216.688C321.47 216.761 322.813 216.867 324.937 219.029Z" fill="#4A7431"/>
<path d="M327.752 224.556C314.861 222.299 308.171 229.442 306.438 233.296C290.115 254.167 321.331 281.872 329.143 277.89C336.955 273.908 341.118 279.676 355.552 273.832C369.985 267.988 374.204 243.649 367.583 232.319C360.963 220.99 352.221 221.661 348.806 221.247C345.392 220.833 343.865 227.377 327.752 224.556Z" fill="#87B743"/>
<path d="M283.341 214.186C281.996 214.29 282.867 215.35 283.47 215.868L285.797 224.145L289.832 223.835L288.178 215.506C288.678 214.678 288.344 213.264 287.04 213.906C285.411 214.707 285.023 214.057 283.341 214.186Z" fill="#82633F"/>
<path d="M284.374 223.245C273.696 225.148 273.027 234.038 274.026 238.246C274.646 246.316 282.713 276.476 297.792 283.435C309.855 289.003 319.907 282.188 323.425 278.084C327.305 274.291 332.531 264.532 322.393 255.84C309.72 244.975 306.772 237.422 305.143 229.429C303.514 221.437 293.919 219.806 291.047 222.056C288.75 223.856 285.641 223.599 284.374 223.245Z" fill="#80944B"/>
<path d="M307.14 252.193C291.703 259.061 293.085 267.366 295.706 270.66C299.972 282.17 319.94 286.725 323.406 283.415C326.179 280.767 326.425 274.276 326.201 271.361C326.279 262.11 322.577 245.325 307.14 252.193Z" fill="#FF2C2C"/>
<path d="M299.004 266.214L299.275 266.897C299.073 266.731 298.881 266.539 298.725 266.347C298.532 266.108 298.421 265.902 298.39 265.766C298.382 265.732 298.382 265.711 298.382 265.7C298.385 265.699 298.389 265.697 298.394 265.695C298.556 265.629 298.633 265.637 298.66 265.644C298.682 265.649 298.707 265.662 298.742 265.709C298.782 265.763 298.816 265.835 298.861 265.938C298.862 265.942 298.864 265.945 298.865 265.949C298.884 265.992 298.908 266.045 298.932 266.094C298.95 266.128 298.973 266.171 299.004 266.214Z" stroke="#FBE4C6" stroke-width="0.693108"/>
<path d="M306.161 263.874L306.457 264.546C306.249 264.388 306.05 264.203 305.887 264.017C305.685 263.786 305.566 263.584 305.531 263.449C305.522 263.415 305.52 263.394 305.52 263.383C305.523 263.382 305.527 263.38 305.532 263.378C305.691 263.305 305.769 263.311 305.796 263.317C305.818 263.321 305.843 263.333 305.88 263.379C305.922 263.432 305.958 263.502 306.007 263.604C306.009 263.607 306.011 263.61 306.012 263.614C306.033 263.657 306.058 263.709 306.084 263.756C306.103 263.79 306.128 263.832 306.161 263.874Z" stroke="#FBE4C6" stroke-width="0.693108"/>
<path d="M310.318 259.422L310.456 260.144C310.289 259.943 310.136 259.718 310.02 259.5C309.875 259.229 309.805 259.006 309.8 258.866C309.799 258.831 309.802 258.811 309.805 258.8C309.808 258.799 309.812 258.798 309.817 258.797C309.989 258.763 310.064 258.785 310.089 258.797C310.109 258.806 310.131 258.824 310.156 258.876C310.186 258.938 310.205 259.014 310.23 259.124C310.231 259.128 310.232 259.131 310.232 259.135C310.243 259.182 310.256 259.238 310.271 259.29C310.281 259.328 310.296 259.374 310.318 259.422Z" stroke="#FBE4C6" stroke-width="0.693108"/>
<path d="M314.845 255.466L315.304 256.04C315.063 255.941 314.823 255.813 314.617 255.675C314.363 255.503 314.196 255.338 314.127 255.217C314.11 255.187 314.103 255.167 314.101 255.156C314.103 255.154 314.106 255.151 314.11 255.148C314.246 255.037 314.322 255.023 314.35 255.021C314.372 255.02 314.399 255.025 314.447 255.06C314.501 255.1 314.555 255.159 314.628 255.245C314.63 255.247 314.633 255.25 314.635 255.253C314.666 255.289 314.704 255.333 314.741 255.372C314.768 255.4 314.803 255.434 314.845 255.466Z" stroke="#FBE4C6" stroke-width="0.693108"/>
<path d="M310.771 271.068L311.204 271.662C310.968 271.551 310.733 271.413 310.534 271.266C310.288 271.083 310.129 270.912 310.065 270.788C310.049 270.756 310.043 270.736 310.041 270.725C310.043 270.723 310.047 270.721 310.051 270.718C310.191 270.613 310.268 270.602 310.296 270.601C310.318 270.601 310.345 270.607 310.391 270.644C310.444 270.687 310.494 270.748 310.564 270.837C310.566 270.84 310.568 270.842 310.571 270.845C310.6 270.883 310.636 270.929 310.672 270.969C310.697 270.999 310.731 271.034 310.771 271.068Z" stroke="#FBE4C6" stroke-width="0.693108"/>
<path d="M315.83 261.98L316.187 262.623C315.965 262.484 315.75 262.317 315.571 262.147C315.349 261.935 315.212 261.745 315.164 261.614C315.152 261.581 315.149 261.56 315.148 261.549C315.151 261.548 315.154 261.545 315.159 261.543C315.311 261.456 315.389 261.455 315.417 261.458C315.439 261.461 315.465 261.47 315.506 261.512C315.553 261.561 315.595 261.628 315.653 261.725C315.655 261.728 315.657 261.731 315.659 261.734C315.684 261.775 315.713 261.825 315.744 261.87C315.766 261.902 315.794 261.941 315.83 261.98Z" stroke="#FBE4C6" stroke-width="0.693108"/>
<path d="M320.903 264.634L321.259 265.277C321.038 265.138 320.822 264.972 320.643 264.801C320.421 264.589 320.284 264.399 320.237 264.268C320.225 264.235 320.221 264.215 320.22 264.204C320.223 264.202 320.227 264.2 320.231 264.197C320.384 264.111 320.461 264.109 320.489 264.112C320.511 264.115 320.537 264.124 320.578 264.167C320.625 264.215 320.667 264.282 320.725 264.379C320.727 264.382 320.729 264.385 320.731 264.388C320.756 264.43 320.785 264.479 320.816 264.524C320.838 264.556 320.867 264.595 320.903 264.634Z" stroke="#FBE4C6" stroke-width="0.693108"/>
<path d="M319.55 269.11L320.015 269.679C319.773 269.582 319.531 269.456 319.324 269.32C319.068 269.152 318.9 268.989 318.83 268.868C318.812 268.838 318.805 268.818 318.802 268.808C318.805 268.805 318.808 268.803 318.812 268.799C318.946 268.687 319.023 268.672 319.05 268.67C319.072 268.669 319.1 268.673 319.147 268.708C319.202 268.747 319.256 268.806 319.33 268.89C319.333 268.893 319.335 268.896 319.338 268.899C319.369 268.935 319.407 268.978 319.445 269.017C319.473 269.045 319.508 269.078 319.55 269.11Z" stroke="#FBE4C6" stroke-width="0.693108"/>
<path d="M313.762 266.419L314.138 267.05C313.913 266.918 313.692 266.759 313.508 266.594C313.279 266.39 313.136 266.204 313.084 266.075C313.071 266.042 313.067 266.021 313.066 266.01C313.069 266.009 313.072 266.006 313.076 266.004C313.226 265.912 313.304 265.908 313.331 265.911C313.354 265.912 313.38 265.921 313.422 265.962C313.471 266.009 313.515 266.075 313.576 266.17C313.578 266.173 313.58 266.176 313.582 266.179C313.608 266.219 313.64 266.268 313.672 266.312C313.695 266.343 313.724 266.381 313.762 266.419Z" stroke="#FBE4C6" stroke-width="0.693108"/>
<path d="M304.726 268.862L305.063 269.515C304.845 269.37 304.635 269.197 304.461 269.021C304.245 268.803 304.115 268.609 304.071 268.476C304.06 268.443 304.057 268.422 304.057 268.411C304.059 268.41 304.063 268.408 304.067 268.405C304.222 268.323 304.3 268.324 304.328 268.328C304.35 268.331 304.376 268.342 304.415 268.385C304.461 268.435 304.501 268.503 304.556 268.602C304.558 268.605 304.56 268.608 304.562 268.611C304.585 268.653 304.613 268.704 304.642 268.749C304.663 268.782 304.691 268.822 304.726 268.862Z" stroke="#FBE4C6" stroke-width="0.693108"/>
<path d="M301.425 252.628C299.046 253.352 297.399 257.447 296.872 259.404C297.829 258.654 298.166 258.629 298.476 258.267C298.787 257.905 298.967 260.258 299.95 259.845C300.933 259.431 299.071 257.206 301.824 257.821C304.577 258.436 304.555 258.138 304.865 257.776C305.175 257.414 303.675 255.5 306.029 255.319C308.383 255.138 307.969 254.155 306.883 253.224C306.014 252.479 307.987 251.448 309.082 251.025C307.685 250.456 304.4 251.723 301.425 252.628Z" fill="#4A7431"/>
<path d="M222.427 236.03C225.096 242.59 230.832 245.644 233.367 246.351L249.222 250.207C245.788 237.212 239.723 230.755 237.119 229.151C236.499 228.41 233.726 226.368 227.601 224.133C221.477 221.897 214.479 223.562 211.746 224.674C214.194 225.726 219.758 229.47 222.427 236.03Z" fill="#4A7431"/>
<path d="M248.979 218.318C254.002 223.31 257.039 237.518 256.905 240.146L255.765 251.734L252.481 248.603C241.248 241.221 238.486 233.043 237.792 230.065C237.285 229.241 236.229 225.964 236.055 219.446C235.88 212.929 239.68 206.822 241.603 204.583C241.823 207.239 242.135 211.516 248.979 218.318Z" fill="#4A7431"/>
<path d="M269.229 217.692C270.935 224.565 266.164 238.288 264.687 240.466L257.704 249.783L256.519 245.404C250.742 233.267 252.62 224.842 253.571 221.935C253.566 220.968 254.362 217.618 257.592 211.955C260.822 206.291 267.238 203.04 270.043 202.123C268.854 204.508 266.904 208.327 269.229 217.692Z" fill="#4A7431"/>
<path d="M234.474 212.799C240.156 217.026 241.675 223.345 241.724 225.976L241.484 242.292C229.764 235.711 225.033 228.221 224.133 225.298C223.571 224.512 222.289 221.316 221.66 214.826C221.03 208.337 224.396 201.98 226.157 199.613C226.562 202.247 228.792 208.572 234.474 212.799Z" fill="#4A7431"/>
<path d="M257 210.105C260.557 216.229 259.667 226.469 258.676 228.907L252.027 243.808C243.847 233.142 242.45 224.394 242.774 221.353C242.567 220.409 242.648 216.966 244.626 210.754C246.605 204.541 251.278 196.386 253.83 194.904C253.164 197.485 253.444 203.981 257 210.105Z" fill="#4A7431"/>
<path d="M257.758 238.05C251.094 242.891 242.462 244.411 238.979 244.566C231.038 246.867 232.072 247.126 228.062 260.964C224.051 274.801 229.689 286.544 243.603 295.961C254.735 303.494 271.555 297.309 278.573 293.275C283.514 290.076 293.266 280.24 292.75 266.48C292.106 249.279 277.109 242.165 276.225 240.69C275.449 239.396 266.087 231.998 257.758 238.05Z" fill="#F7D150"/>
<path d="M247.472 248.105L239.594 271.301" stroke="#4F2B2B" stroke-linecap="round"/>
<path d="M264.585 245.99L277.83 266.597" stroke="#4F2B2B" stroke-linecap="round"/>
<path d="M237.843 252.918L230.84 271.299" stroke="#4F2B2B" stroke-linecap="round"/>
<path d="M275.093 248.335L286.326 264.482" stroke="#4F2B2B" stroke-linecap="round"/>
<path d="M267.604 242.854L257.1 273.054" stroke="#4F2B2B" stroke-linecap="round"/>
<path d="M243.781 245.751L261.265 272.522" stroke="#4F2B2B" stroke-linecap="round"/>
<path d="M258.852 242.854L248.348 273.054" stroke="#4F2B2B" stroke-linecap="round"/>
<path d="M252.275 243.637L269.759 270.409" stroke="#4F2B2B" stroke-linecap="round"/>
<path d="M275.921 248.982L267.605 273.055" stroke="#4F2B2B" stroke-linecap="round"/>
<path d="M237.19 253.707L251.071 275.06" stroke="#4F2B2B" stroke-linecap="round"/>
<path d="M284.237 252.48L277.234 272.176" stroke="#4F2B2B" stroke-linecap="round"/>
<path d="M229.964 259.112L241.514 276.535" stroke="#4F2B2B" stroke-linecap="round"/>
<path d="M231.551 288.77L376.139 277.662L362.892 316.562L249.911 325.241L231.551 288.77Z" fill="#F5C07A"/>
<path d="M230.775 287.477L376.571 276.277L375.596 279.396L232.379 290.736L230.775 287.477Z" fill="#141414"/>
<rect x="224" y="278.525" width="158.504" height="10.7917" rx="5.39587" transform="rotate(-4.39276 224 278.525)" fill="#F5C07A"/>
</g>
<defs>
<filter id="filter0_bf_574_11121" x="333.215" y="96.6738" width="93.3984" height="45.252" filterUnits="userSpaceOnUse" color-interpolation-filters="sRGB">
<feFlood flood-opacity="0" result="BackgroundImageFix"/>
<feGaussianBlur in="BackgroundImageFix" stdDeviation="2"/>
<feComposite in2="SourceAlpha" operator="in" result="effect1_backgroundBlur_574_11121"/>
<feBlend mode="normal" in="SourceGraphic" in2="effect1_backgroundBlur_574_11121" result="shape"/>
<feGaussianBlur stdDeviation="10" result="effect2_foregroundBlur_574_11121"/>
</filter>
</defs>
</svg>
