<?xml version="1.0" encoding="utf-8"?>
<!-- Generator: Adobe Illustrator 28.1.0, SVG Export Plug-In . SVG Version: 6.00 Build 0)  -->
<svg version="1.1" id="Layer_1" xmlns="http://www.w3.org/2000/svg" xmlns:xlink="http://www.w3.org/1999/xlink" x="0px" y="0px"
	 viewBox="0 0 470 250" style="enable-background:new 0 0 470 250;" xml:space="preserve">
<style type="text/css">
	.st0{fill:#FFBE97;}
	.st1{fill:#4F2B2B;}
	.st2{fill:#8FC6D7;}
	.st3{fill:#BF8888;}
	.st4{fill:#3F97B1;}
	.st5{fill:#FF9D6C;}
	.st6{fill:#DF8711;}
	.st7{fill:#69ABDD;}
</style>
<path class="st0" d="M145,148.9L145,148.9h-4l0,0H145z M139.2,153.6c2.7,0.2,5.2-1.6,5.8-4.3l-3.9-0.9c-0.2,0.7-0.9,1.2-1.6,1.2
	L139.2,153.6z M130,152.8l9.1,0.8l0.4-4l-9.1-0.8L130,152.8z M125.2,150c1.1,1.6,2.9,2.6,4.8,2.8l0.4-4c-0.8-0.1-1.4-0.5-1.9-1.1
	L125.2,150z M124.2,144.6c-0.5,1.9-0.1,3.9,1,5.4l3.3-2.3c-0.4-0.6-0.6-1.4-0.4-2.1L124.2,144.6z M127.4,140.4
	c-1.6,0.9-2.8,2.4-3.2,4.1l3.9,1c0.2-0.7,0.6-1.3,1.3-1.6L127.4,140.4z M132.6,140c-1.7-0.6-3.6-0.4-5.2,0.5l1.9,3.5
	c0.6-0.4,1.4-0.4,2-0.2L132.6,140z M132,139.9c0.1,0,0.4-0.1,0.7,0.1l-1.2,3.8c0.6,0.2,1.1,0.1,1.4,0.1L132,139.9z M140.6,142.4
	L133,140l-1.2,3.8l7.6,2.4L140.6,142.4z M141,142.8c0.4,0.1,0.7,0.4,0.9,0.7l-3.6,1.7c0.3,0.6,0.9,1.3,1.7,1.5L141,142.8z
	 M144.9,149.3c0.6-2.9-1.1-5.8-3.9-6.5l-1.1,3.9c0.8,0.2,1.3,1,1.1,1.8L144.9,149.3z M143,148.9l1.9,0.4l0.1-0.2v-0.2L143,148.9
	L143,148.9z M139.3,151.6l-0.2,2h0h0L139.3,151.6z M130.1,150.8l0.2-2l0,0L130.1,150.8z M126.8,148.9l1.6-1.1l0,0L126.8,148.9z
	 M126.2,145.1l1.9,0.5l0,0L126.2,145.1z M128.4,142.2l-0.9-1.8l0,0L128.4,142.2z M132,141.9l-0.6,1.9h0L132,141.9z M132.4,141.9
	l0.6-1.9l-0.5-0.2l-0.5,0.1L132.4,141.9z M140,144.3l1.8-0.8l-0.4-0.8l-0.9-0.3L140,144.3z M140.5,144.7l0.5-1.9l0,0L140.5,144.7z
	 M143,148.9l-1.9-0.4l-0.1,0.2v0.2L143,148.9L143,148.9z"/>
<path class="st0" d="M143,148.9c0.4-1.8-0.7-3.7-2.5-4.2c-0.2-0.1-0.4-0.2-0.4-0.4l-7.6-2.4c-0.1,0-0.2,0-0.4,0
	c-1.2-0.4-2.5-0.3-3.6,0.3c-1.1,0.6-1.9,1.6-2.2,2.9c-0.3,1.3-0.1,2.7,0.7,3.8s2,1.8,3.3,1.9l9.1,0.8
	C141,151.7,142.6,150.6,143,148.9L143,148.9z"/>
<path class="st0" d="M129.6,141.6l10.3,3.3l1.2-3.8l-10.3-3.3L129.6,141.6z M124.9,137.4c0.8,2,2.6,3.6,4.7,4.3l1.2-3.8
	c-1-0.3-1.8-1-2.2-2L124.9,137.4z M125.1,131.1c-1,2-1.1,4.3-0.2,6.3l3.7-1.6c-0.4-1-0.4-2,0.1-2.9L125.1,131.1z M129.7,127.2
	c-2,0.6-3.7,2-4.6,3.8l3.6,1.8c0.4-0.9,1.2-1.5,2.2-1.8L129.7,127.2z M135.7,128c-1.8-1.1-3.9-1.3-5.9-0.8l1.1,3.8
	c1-0.3,1.9-0.1,2.8,0.4L135.7,128z M135.1,127.8c0.1,0,0.3,0,0.6,0.2l-2.1,3.4c0.5,0.3,0.9,0.4,1.2,0.4L135.1,127.8z M136.6,128.5
	c-0.1-0.1-0.3-0.2-0.5-0.3l-2.4,3.2c0.3,0.2,0.6,0.4,0.9,0.6L136.6,128.5z M144.4,133.1l-7.8-4.6l-2,3.4l7.8,4.6L144.4,133.1z
	 M144.6,133.3c0.3,0.2,0.5,0.4,0.5,0.5l-3.4,2.1c0.2,0.3,0.5,0.7,1,1L144.6,133.3z M147.4,141.5c1.4-3.1,0.2-6.7-2.8-8.2l-1.9,3.6
	c1.1,0.6,1.5,1.9,1,3L147.4,141.5z M139.9,144.9c3,0.9,6.2-0.6,7.5-3.4l-3.6-1.7c-0.5,1-1.6,1.6-2.7,1.2L139.9,144.9z M130.2,139.7
	l-0.6,1.9l0,0L130.2,139.7z M126.7,136.6l1.8-0.8l0,0L126.7,136.6z M126.9,132l1.8,0.9l0,0L126.9,132z M130.3,129.2l-0.6-1.9l0,0
	L130.3,129.2z M134.6,129.7l1-1.7l0,0l0,0L134.6,129.7z M135,129.8l1.2-1.6l-0.5-0.4l-0.6,0L135,129.8z M135.6,130.3l1-1.7l0,0
	L135.6,130.3z M143.4,134.8l1.7-1.1l-0.3-0.4l-0.4-0.2L143.4,134.8z M143.7,135.1l-0.9,1.8l0,0L143.7,135.1z M145.6,140.7l-1.8-0.8
	l0,0L145.6,140.7z M140.5,143l-0.6,1.9l0,0l0,0L140.5,143z"/>
<path class="st0" d="M140.5,143c2,0.6,4.2-0.4,5.1-2.3c1-2.1,0.1-4.5-1.9-5.6c-0.1-0.1-0.2-0.1-0.3-0.2l-7.8-4.6
	c-0.2-0.1-0.5-0.3-0.7-0.4c-0.1,0-0.2,0-0.3-0.1c-1.3-0.8-2.9-1-4.4-0.6c-1.5,0.4-2.7,1.4-3.4,2.8c-0.7,1.4-0.8,3.1-0.2,4.6
	c0.6,1.5,1.9,2.6,3.4,3.1L140.5,143z"/>
<path class="st0" d="M134.3,129.1L134.3,129.1h4l0,0H134.3z M131.7,125.6c0.4,2.2,1.7,4.1,3.6,5.2l2-3.4c-0.9-0.5-1.5-1.4-1.7-2.4
	L131.7,125.6z M133.4,119.5c-1.4,1.7-2,3.9-1.6,6.1l3.9-0.7c-0.2-1,0.1-2.1,0.8-2.9L133.4,119.5z M138.7,116.8
	c-2.1,0.1-4,1.1-5.4,2.7l3.1,2.6c0.6-0.8,1.5-1.2,2.5-1.3L138.7,116.8z M139.1,116.8c-0.1,0-0.3,0-0.4,0l0.3,4c0.1,0,0.1,0,0.2,0
	L139.1,116.8L139.1,116.8z M144.3,118.9c-1.4-1.3-3.2-2.1-5.2-2.1v4c0.9,0,1.8,0.3,2.4,1L144.3,118.9z M151.9,126.1l-7.6-7.2
	l-2.8,2.9l7.6,7.2L151.9,126.1z M152.7,134.7c2.1-2.7,1.7-6.4-0.9-8.6l-2.6,3c0.9,0.8,1.1,2.2,0.3,3.1L152.7,134.7z M144.7,136.3
	c2.7,1.5,6.1,0.8,8-1.6l-3.2-2.4c-0.7,0.9-1.9,1.1-2.9,0.6L144.7,136.3z M135.3,130.8l9.3,5.5l2-3.4l-9.3-5.5L135.3,130.8z
	 M136.3,129.1h2v-1.1l-1-0.6L136.3,129.1z M133.7,125.2l2-0.3l0,0L133.7,125.2z M134.9,120.8l1.5,1.3l0,0L134.9,120.8z M138.8,118.8
	l0.1,2h0h0L138.8,118.8z M143,120.3l-1.4,1.4l0,0L143,120.3z M150.6,127.6l-1.4,1.4l0,0l0,0L150.6,127.6z M151.2,133.4l-1.6-1.2l0,0
	L151.2,133.4z M145.7,134.6l-1,1.7l0,0l0,0L145.7,134.6z M136.3,129.1h-2v1.1l1,0.6L136.3,129.1z"/>
<path class="st0" d="M136.3,129.1l9.3,5.5c1.8,1,4.2,0.6,5.5-1.1c1.4-1.8,1.1-4.4-0.6-5.9l-7.6-7.2c-1-1-2.4-1.5-3.8-1.5
	c-0.1,0-0.2,0-0.3,0c-1.5,0.1-2.9,0.8-3.9,2c-1,1.2-1.5,2.9-1.2,4.5C134,126.8,134.9,128.2,136.3,129.1L136.3,129.1z"/>
<path class="st0" d="M167.1,152.1c-5.7,3.8-12.2,6.5-19,7.6c0,0-0.1,0-0.1,0c-0.3,0-0.6-0.2-0.7-0.6c-0.1-0.4,0.2-0.7,0.6-0.8
	c6.6-1.1,12.9-3.7,18.5-7.4c0.3-0.2,0.8-0.1,1,0.2C167.5,151.4,167.4,151.9,167.1,152.1L167.1,152.1z M156.4,131
	c0.2-0.4,0.6-0.5,0.9-0.3s0.5,0.6,0.3,0.9c-1.9,3.7-3.9,8.5-2.7,13.2c0.1,0.4-0.1,0.8-0.5,0.9c-0.1,0-0.1,0-0.2,0
	c-0.3,0-0.6-0.2-0.7-0.5C152.2,140,154.4,134.9,156.4,131z M177.8,107.7c-1.8-0.1-3.6,0.9-4.7,2.5c-1.5,2.2-4.4,6.1-6.2,8.4
	c-0.9,1.1-2.1,1.7-3.5,1.8c-1.4,0.1-2.7-0.5-3.7-1.4l-21.9-22.6c-1.1-0.8-2.5-1.2-3.9-0.9s-2.7,1-3.5,2.2c-1.4,1.9-1.3,4.6,0.3,6.4
	l12.2,14.4c0,0.1,0.1,0.1,0.1,0.2c0.4,0.2,0.7,0.5,1,0.8l7.6,7.2c2.3,1.9,2.6,5.4,0.8,7.8c-1.1,1.4-2.8,2.2-4.5,2.2
	c-0.3,0-0.7,0-1-0.1c0.7,1.5,0.8,3.3,0.1,4.9c-0.8,1.7-2.3,2.8-4.1,3.2c1.3,1.1,1.9,2.9,1.6,4.7c-0.5,2.2-2.5,3.9-4.8,3.9
	c-0.1,0-0.2,0-0.4,0l-7.8-0.7c0.1,0.1,0.3,0.2,0.4,0.3c1.5,1.4,3.1,2.8,5.3,4.1l0.5,0.4c0.1,0.1,0.2,0.3,0.2,0.5l0.3,11.7l35.3-1.5
	l-3.5-19.3c0-0.2,0-0.4,0.1-0.5c3-4,4.4-7.9,4.5-12.6c0.1-1.9,1.5-5.3,3.2-9.3c2.5-6.1,6-14.4,3.9-16.7
	C180.5,108.3,179.2,107.8,177.8,107.7L177.8,107.7z"/>
<path class="st1" d="M166.3,150.9c-5.5,3.7-11.9,6.3-18.5,7.4c-0.4,0.1-0.6,0.4-0.6,0.8c0.1,0.3,0.4,0.6,0.7,0.6c0,0,0.1,0,0.1,0
	c6.8-1.2,13.3-3.8,19-7.6c0.3-0.2,0.4-0.6,0.2-1C167,150.8,166.6,150.7,166.3,150.9L166.3,150.9z"/>
<path class="st1" d="M154.2,145.6c0.1,0,0.1,0,0.2,0c0.4-0.1,0.6-0.5,0.5-0.9c-1.2-4.6,0.9-9.5,2.7-13.2c0.2-0.3,0-0.8-0.3-0.9
	c-0.3-0.2-0.8,0-0.9,0.3c-2,3.9-4.1,9.1-2.8,14.1C153.6,145.4,153.9,145.6,154.2,145.6z"/>
<path class="st1" d="M147.9,133.6c-0.3,0-0.6-0.1-1.2-0.2c-0.5-0.1-1.1-0.4-1.8-0.6c-1.4-0.5-3-1.3-4.6-2.1
	c-3.2-1.6-6.2-3.4-7.2-4.1l-0.9,1.2c1.1,0.8,4.2,2.6,7.4,4.2c1.6,0.8,3.2,1.6,4.7,2.1c0.7,0.3,1.4,0.5,2,0.7
	c0.6,0.2,1.1,0.3,1.6,0.3L147.9,133.6L147.9,133.6z M149.9,130c0.1,0.7,0.2,1.6-0.1,2.4c-0.1,0.4-0.3,0.6-0.6,0.9
	c-0.3,0.2-0.6,0.3-1.2,0.3v1.5c0.9,0,1.6-0.2,2.1-0.6c0.6-0.4,0.9-1,1.1-1.5c0.4-1.1,0.4-2.4,0.2-3.2L149.9,130z M133.1,126.5
	c-0.3-0.2-0.8-0.2-1.1,0.2c-0.2,0.3-0.2,0.8,0.2,1.1L133.1,126.5z M151.4,129.7c-0.1-0.4-0.5-0.7-0.9-0.6s-0.7,0.5-0.6,0.9
	L151.4,129.7z"/>
<path class="st1" d="M143.6,142.2c-0.6,0.1-1.8,0-3.3-0.1c-1.5-0.1-3.2-0.3-4.9-0.5c-1.7-0.2-3.4-0.5-4.8-0.8
	c-1.4-0.3-2.4-0.6-2.9-0.9l-0.7,1.3c0.7,0.4,1.9,0.7,3.3,1c1.4,0.3,3.2,0.6,4.9,0.8s3.5,0.4,5,0.5c1.5,0.1,2.8,0.1,3.6,0.1
	L143.6,142.2z M145.1,138.4c0.2,0.6,0.3,1.6,0.1,2.4c-0.1,0.4-0.3,0.7-0.5,0.9c-0.2,0.2-0.6,0.4-1.2,0.5l0.2,1.5
	c0.9-0.1,1.5-0.4,2-0.9c0.5-0.5,0.8-1.1,0.9-1.6c0.3-1.1,0.1-2.4-0.1-3.2L145.1,138.4z M127.7,140c-0.4-0.2-0.8-0.1-1,0.3
	s-0.1,0.8,0.3,1L127.7,140z M146.6,137.9c-0.1-0.4-0.5-0.6-0.9-0.5c-0.4,0.1-0.6,0.5-0.5,0.9L146.6,137.9z"/>
<path class="st1" d="M140.2,150.9c-0.7,0.1-1.6,0.2-2.4,0.3c-0.8,0.1-1.7,0.2-2.5,0.3c-1.7,0.1-3.1,0-4-0.5l-0.7,1.3
	c1.3,0.8,3.2,0.8,4.9,0.7c0.9-0.1,1.8-0.2,2.6-0.3c0.9-0.1,1.6-0.2,2.3-0.3L140.2,150.9z M141.8,147.1c0.2,0.6,0.3,1.6,0.1,2.4
	c-0.1,0.4-0.3,0.7-0.5,0.9c-0.2,0.2-0.6,0.4-1.2,0.5l0.2,1.5c0.9-0.1,1.5-0.4,2-0.9c0.5-0.5,0.8-1.1,0.9-1.6
	c0.3-1.1,0.1-2.4-0.1-3.2L141.8,147.1z M131.2,151c-0.4-0.2-0.8-0.1-1,0.3s-0.1,0.8,0.3,1L131.2,151z M143.2,146.7
	c-0.1-0.4-0.5-0.6-0.9-0.5c-0.4,0.1-0.6,0.5-0.5,0.9L143.2,146.7z"/>
<path class="st2" d="M212.1,146.2l5-1.4l57.2,0.3c0,0,2.7,0.5,6.7,1.5l-46.3,34.1L212.1,146.2L212.1,146.2z"/>
<polygon class="st3" points="244.6,151.9 230.7,148.5 231,162.1 242.1,163.7 "/>
<polygon class="st3" points="242.1,163.7 244.6,200.5 222.3,196.8 231,162.1 "/>
<path class="st4" d="M168.5,186.4c1.6-17.4,13.8-32,30.6-36.6l13-3.6l22.6,34.5l46.3-34.1c8.8,2.1,23.9,6.4,31.5,11.6
	c11.1,7.7,31.3,91.8,31.3,91.8H161.4L168.5,186.4z"/>
<ellipse transform="matrix(0.9239 -0.3827 0.3827 0.9239 -13.007 114.2624)" class="st1" cx="280.7" cy="89.8" rx="12.7" ry="12.7"/>
<ellipse class="st1" cx="234.1" cy="65.1" rx="10.7" ry="10.7"/>
<rect x="229.9" y="117.4" class="st0" width="31.6" height="33.3"/>
<path class="st1" d="M210.1,95.5c-8.7-19.2,13.6-22.8,13.6-22.8s10.8-11.6,33.2-0.4c21.7,10.8,22.3,27.4,16.2,43.1L210.1,95.5z"/>
<path class="st0" d="M269.1,113.7c-0.4-0.1-0.8-0.2-1.3-0.3c3.3-11.8-1-26.4-16-34c-15.1-7.6-33.2-1.9-39.9,10.4
	s-2.1,28.8,12.7,36.9c12.5,6.8,28.2,5.4,36.9-2.5c0.9,1.2,2.1,2.1,3.6,2.6c3.6,1.1,7.5-0.9,8.6-4.6
	C274.7,118.7,272.7,114.8,269.1,113.7z"/>
<path class="st1" d="M269.2,122.1l-3.8-1.2c-0.6-0.2-1-0.8-0.8-1.4s0.8-1,1.5-0.8l3.8,1.2c0.6,0.2,1,0.8,0.8,1.4
	S269.8,122.3,269.2,122.1z"/>
<path class="st1" d="M221.6,103c-0.5-0.2-0.8-0.7-0.7-1.2l0.5-1.7c0.2-0.5,0.7-0.8,1.2-0.7c0.5,0.2,0.8,0.7,0.7,1.2l-0.5,1.7
	C222.7,102.8,222.2,103.1,221.6,103z"/>
<path class="st1" d="M243.6,110.9c-0.5-0.2-0.8-0.7-0.7-1.2l0.5-1.7c0.2-0.5,0.7-0.8,1.2-0.7s0.8,0.7,0.7,1.2l-0.5,1.7
	C244.7,110.7,244.1,111,243.6,110.9z"/>
<path class="st1" d="M255.8,108.3c-0.3,0-0.5-0.2-0.6-0.4c-1.1-2.7-8.9-5.5-12.3-4.9c-0.4,0.1-0.7-0.2-0.8-0.6
	c-0.1-0.4,0.2-0.7,0.6-0.8c3.7-0.7,12.4,2.1,13.9,5.7c0.1,0.4,0,0.8-0.4,0.9C255.9,108.2,255.8,108.3,255.8,108.3z"/>
<path class="st1" d="M228.1,97.6c-0.2,0-0.5-0.1-0.6-0.3c-1-1.7-6.5-4-11.3-2.7c-0.4,0.1-0.8-0.1-0.9-0.5c-0.1-0.4,0.1-0.8,0.5-0.9
	c5.4-1.5,11.6,1,12.9,3.3c0.2,0.3,0.1,0.8-0.2,0.9C228.3,97.6,228.2,97.6,228.1,97.6z"/>
<ellipse transform="matrix(0.3428 -0.9394 0.9394 0.3428 42.0786 274.4146)" class="st5" cx="217.2" cy="107.1" rx="2.6" ry="4.8"/>
<ellipse transform="matrix(0.3428 -0.9394 0.9394 0.3428 52.3918 312.4027)" class="st5" cx="249.5" cy="118.8" rx="2.6" ry="4.8"/>
<path class="st1" d="M230.3,108.4c-0.2,0-0.4-0.1-0.6-0.3c-0.2-0.3-0.2-0.7,0.1-1c1-0.8,1.8-2.3,1.9-3.9c0.2-1.9-0.4-3.7-1.6-5
	c-0.3-0.3-0.2-0.7,0-1c0.3-0.3,0.7-0.2,1,0c1.5,1.6,2.2,3.8,2,6c-0.2,2.1-1.1,3.9-2.4,4.9C230.6,108.4,230.4,108.4,230.3,108.4
	L230.3,108.4z"/>
<path class="st1" d="M233.5,118.5c-3.6,0-6.9-1.1-8.6-2.6c-0.3-0.3-0.3-0.7-0.1-1c0.3-0.3,0.7-0.3,1-0.1c2.4,2.1,10,3.9,15.9-0.2
	c0.3-0.2,0.8-0.2,1,0.2c0.2,0.3,0.1,0.8-0.2,1C239.8,117.7,236.5,118.5,233.5,118.5z"/>
<path class="st1" d="M232.9,69.9c0,0-20,5.1-22.9,19.4l0.9,3.1c0,0,9-12.6,25.1-11.9c0,0-7.2,7.8,1.8,14.2c1.2,0.9,2.9-0.1,2.7-1.6
	c0,0,1.8,2.8,5.7,4.3c1.5,0.6,3-0.6,2.9-2.1l0-0.2c0,0,12.7,17,22.5,15.1C271.7,110.2,280.8,68.2,232.9,69.9L232.9,69.9z"/>
<path class="st6" d="M161.3,87.9c2.1,3.9,4.1,5.9,8,8c-3.9,2.1-5.9,4.1-8,8c-2.1-3.9-4.1-5.9-8-8C157.2,93.8,159.2,91.8,161.3,87.9z
	"/>
<polygon class="st4" points="176.2,162.4 191.4,250 144.8,250 133.5,169.6 "/>
<path class="st1" d="M197,249.3c-0.4,0-0.7-0.3-0.7-0.6l-5.9-59.6c0-0.4,0.2-0.7,0.6-0.8c0.4,0,0.7,0.2,0.8,0.6l5.9,59.6
	C197.7,248.9,197.4,249.2,197,249.3C197,249.3,197,249.3,197,249.3L197,249.3z"/>
<path class="st1" d="M293.2,249.3c-0.3,0-0.6-0.2-0.7-0.6l-9.6-44.4c-0.1-0.4,0.2-0.8,0.5-0.8s0.8,0.2,0.8,0.5l9.6,44.4
	c0.1,0.4-0.2,0.8-0.5,0.8C293.3,249.3,293.2,249.3,293.2,249.3z"/>
<polygon class="st2" points="274.3,145.1 262,133.6 237.9,150.7 248,164 "/>
<polygon class="st2" points="217.1,144.8 229.5,135.2 238.1,150.7 226.4,160.3 "/>
<ellipse class="st7" cx="267.3" cy="202.7" rx="8.8" ry="8.8"/>
</svg>
