<?xml version="1.0" encoding="utf-8"?>
<!-- Generator: Adobe Illustrator 27.7.0, SVG Export Plug-In . SVG Version: 6.00 Build 0)  -->
<svg version="1.0" id="Layer_1" xmlns="http://www.w3.org/2000/svg" xmlns:xlink="http://www.w3.org/1999/xlink" x="0px" y="0px"
	 viewBox="0 0 470 250" style="enable-background:new 0 0 470 250;" xml:space="preserve">
<style type="text/css">
	.st0{fill:#EF9C2E;}
	.st1{fill:#DF8711;}
	.st2{fill:#FBE4C6;}
	.st3{fill:#4F2B2B;}
	.st4{fill:#FFBE97;}
	.st5{fill:#854747;}
	.st6{fill:#562A2F;}
	.st7{fill:#2B6577;}
</style>
<polygon class="st0" points="291.72,54.77 286.77,38.14 304.29,41.06 314.51,25 320.35,41.55 339.82,40.82 330.09,57.36 
	340.79,70.75 316.84,75.28 "/>
<rect x="147.42" y="55.38" class="st1" width="59.09" height="21.46"/>
<polygon class="st2" points="206.51,55.38 203.22,60.43 203.22,72.05 206.51,76.84 209.79,71.47 209.79,60.74 "/>
<ellipse class="st3" cx="206.51" cy="66.11" rx="1.16" ry="4.32"/>
<rect x="147.42" y="70.79" class="st3" width="55.8" height="1.25"/>
<rect x="147.41" y="60.42" class="st3" width="55.8" height="1.25"/>
<path class="st2" d="M152.14,60.64l-4.72-5.26l-15.72,7.23c0.18,1.09,0.29,2.27,0.29,3.49c0,1.23-0.11,2.4-0.29,3.49l15.72,7.23
	l4.72-5.36l-4.72-5.36L152.14,60.64L152.14,60.64z"/>
<path class="st3" d="M131.7,62.61l-2.07,0.95c-2.17,1-2.17,4.08,0,5.08l2.07,0.95c0.18-1.09,0.29-2.27,0.29-3.49
	S131.88,63.71,131.7,62.61L131.7,62.61z"/>
<polygon class="st4" points="228,146 259,146 257.48,121.43 229.67,119 "/>
<path class="st3" d="M258.5,137l-1-10.5L235,134C237.8,138.8,253.83,137.17,258.5,137z"/>
<polygon class="st5" points="308.1,115.46 265.91,136.34 240.78,142.66 219.25,136.34 178.02,121.58 184.61,238.07 301.52,238.07 
	"/>
<path class="st3" d="M275.17,101.75c0,0-14.25,28.86-31.49,28.69c-17.25-0.17-29.58-14.94-30.9-32.87
	c-0.65-8.89,2.17-19.35,6.18-23.41c4.57-4.63,14.36-8.96,23.1-9.91c12.53-1.36,21.72,8.4,21.72,8.4s8.66,2.47,12.22,11.55
	C278.35,90.17,275.17,101.74,275.17,101.75L275.17,101.75z"/>
<path class="st4" d="M268.81,97.32c2.96,6.89,1.78,21.47-4.65,29.39c-6.89,8.49-13.89,9.63-22.64,9.63s-18.92-5.9-22.9-17.46
	c-5.07-14.7,0.13-30.69,13.99-36.64C246.46,76.28,262.67,83.04,268.81,97.32z"/>
<path class="st3" d="M226.47,105.75c-0.27,0-0.5-0.21-0.53-0.48c-0.03-0.29,0.19-0.55,0.48-0.58l6.93-0.64l-5.87-2.54
	c-0.27-0.12-0.39-0.43-0.28-0.7c0.12-0.27,0.43-0.39,0.7-0.28l7.79,3.36c0.22,0.1,0.35,0.33,0.31,0.57
	c-0.04,0.24-0.23,0.43-0.48,0.44l-9.01,0.83C226.52,105.74,226.49,105.74,226.47,105.75L226.47,105.75z"/>
<path class="st6" d="M258.47,105.75c0,0-0.03,0-0.05,0l-9.01-0.83c-0.24-0.02-0.44-0.21-0.48-0.44c-0.04-0.24,0.09-0.47,0.31-0.57
	l7.79-3.36c0.27-0.12,0.58,0.01,0.7,0.28s-0.01,0.58-0.28,0.7l-5.87,2.54l6.93,0.64c0.29,0.03,0.51,0.29,0.48,0.58
	C258.98,105.55,258.75,105.75,258.47,105.75L258.47,105.75z"/>
<path class="st4" d="M267.45,107.27c-0.58,4.77-1.27,8.88,2.73,9.37c3.99,0.49,8.85-3.03,9.43-7.8c0.58-4.77-2.19-9.03-6.18-9.52
	C269.42,98.84,268.02,102.5,267.45,107.27z"/>
<polygon class="st4" points="238.24,108.87 241.17,112.46 244.07,100.49 "/>
<path class="st4" d="M219.75,107.52c0.58,4.77,1.29,8.64-2.7,9.13s-8.85-3.03-9.43-7.8c-0.58-4.77,2.19-9.03,6.18-9.52
	C217.79,98.84,219.16,102.75,219.75,107.52z"/>
<path class="st6" d="M264.9,79.97c0,0-11.08,10.55-16.02,11.66c-4.94,1.1-9.75-0.13-9.75-0.13l2.31-3.55c0,0-2.99,3.29-6.52,3.82
	c-3.53,0.53-8.39-0.31-8.39-0.31l3.06-4.32c0,0-5.82,6.41-11.45,5.4c0,0,11.19-19.04,23.67-18.4
	C254.28,74.78,264.9,79.96,264.9,79.97L264.9,79.97z"/>
<path class="st3" d="M240.54,113.24c-0.16,0-0.32-0.07-0.43-0.21l-3.15-4.17l5.66-8.14c0.17-0.24,0.5-0.3,0.74-0.13
	c0.24,0.17,0.3,0.5,0.13,0.74l-5.22,7.5l2.69,3.55c0.18,0.23,0.13,0.57-0.11,0.74C240.76,113.21,240.65,113.24,240.54,113.24
	L240.54,113.24z"/>
<path class="st3" d="M270.1,109.41c-0.06,0-0.12-0.01-0.17-0.03c-0.28-0.1-0.43-0.4-0.33-0.67c0.52-1.5,2.34-4.29,5.55-4
	c0.29,0.03,0.51,0.28,0.48,0.58s-0.28,0.51-0.58,0.48c-3.17-0.28-4.4,3.14-4.46,3.29C270.53,109.27,270.32,109.41,270.1,109.41z"/>
<path class="st3" d="M216.37,109.41c-0.22,0-0.43-0.14-0.5-0.36c-0.05-0.15-1.28-3.57-4.46-3.29c-0.29,0.03-0.55-0.19-0.58-0.48
	c-0.03-0.29,0.19-0.55,0.48-0.58c3.21-0.28,5.04,2.5,5.55,4c0.09,0.28-0.05,0.58-0.33,0.67
	C216.48,109.4,216.42,109.41,216.37,109.41z"/>
<path class="st3" d="M237.09,116.17c-0.06,0-0.12,0.01-0.19,0.03c-0.27,0.1-0.41,0.41-0.31,0.68c0.06,0.17,1.63,4.25,5.18,4.25h0.02
	c2.99-0.01,5.37-3.64,5.47-3.8c0.16-0.24,0.09-0.58-0.16-0.73c-0.25-0.16-0.58-0.09-0.73,0.16c-0.02,0.03-2.16,3.3-4.58,3.31h-0.02
	c-2.81,0-4.18-3.53-4.19-3.56C237.5,116.3,237.3,116.17,237.09,116.17L237.09,116.17z"/>
<polygon class="st4" points="322.67,89.39 332.31,153.44 283.86,155.98 283.99,144.23 283.88,144.22 284.07,136.93 285.37,87.19 "/>
<path class="st5" d="M332.31,153.44l3.04,20.2c2.46,16.34-10.75,30.8-27.24,29.83c-13.85-0.82-24.63-12.37-24.48-26.24l0.23-21.25
	L332.31,153.44z"/>
<path class="st3" d="M308.1,204.01c0,0-0.02,0-0.03,0c-14.16-0.84-25.13-12.6-24.98-26.78l0.23-21.25c0-0.29,0.24-0.52,0.54-0.53
	c0.29,0,0.53,0.24,0.53,0.54l-0.23,21.25c-0.15,13.62,10.38,24.91,23.98,25.71c0.29,0.02,0.52,0.27,0.5,0.56
	C308.62,203.79,308.39,204.01,308.1,204.01L308.1,204.01z"/>
<path class="st4" d="M322.67,89.39l5.28-15.63c0.87-2.56,0.7-5.36-0.47-7.8l-4.81-10.03c-1.29-3.84-4.94-6.38-8.99-6.27l-20.65,0.58
	c-5.16,0.14-9.19,4.49-8.95,9.65l1.3,27.3L322.67,89.39L322.67,89.39z"/>
<path class="st3" d="M321.5,69.65c0,0-0.03,0-0.05,0c-0.29-0.03-0.51-0.28-0.49-0.57l1-11.92c0.03-0.29,0.28-0.51,0.57-0.49
	c0.29,0.03,0.51,0.28,0.49,0.58l-1,11.92C322,69.44,321.77,69.65,321.5,69.65L321.5,69.65z"/>
<path class="st3" d="M310.56,60.87c-0.02,0-0.04,0-0.06,0c-0.29-0.03-0.5-0.3-0.47-0.59l1.17-9.96c0.03-0.29,0.3-0.5,0.59-0.47
	c0.29,0.03,0.5,0.3,0.47,0.59l-1.17,9.96C311.06,60.68,310.83,60.88,310.56,60.87L310.56,60.87z"/>
<path class="st3" d="M301.71,60.87c-0.02,0-0.04,0-0.06,0c-0.29-0.03-0.5-0.3-0.47-0.59l1.17-9.96c0.03-0.29,0.3-0.5,0.59-0.47
	c0.29,0.03,0.5,0.3,0.47,0.59l-1.17,9.96C302.21,60.68,301.98,60.88,301.71,60.87L301.71,60.87z"/>
<path class="st3" d="M293.35,61.25c-0.02,0-0.04,0-0.06,0c-0.29-0.03-0.5-0.3-0.47-0.59l1.17-9.96c0.03-0.29,0.3-0.5,0.59-0.47
	c0.29,0.03,0.5,0.3,0.47,0.59l-1.17,9.96C293.85,61.06,293.62,61.26,293.35,61.25L293.35,61.25z"/>
<polygon class="st4" points="160.36,89.39 150.72,153.44 199.17,155.98 199.04,144.23 199.15,144.22 198.96,136.93 197.66,87.19 "/>
<path class="st5" d="M150.72,153.44l-3.04,20.2c-2.46,16.34,10.75,30.8,27.24,29.83c13.85-0.82,24.63-12.37,24.48-26.24l-0.23-21.25
	L150.72,153.44z"/>
<path class="st3" d="M174.93,204.01c-0.28,0-0.51-0.22-0.53-0.5c-0.02-0.29,0.21-0.55,0.5-0.56c13.59-0.8,24.13-12.09,23.98-25.71
	l-0.23-21.25c0-0.29,0.23-0.53,0.53-0.54h0.01c0.29,0,0.53,0.23,0.53,0.53l0.23,21.25c0.15,14.18-10.81,25.95-24.98,26.78
	C174.95,204.01,174.94,204.01,174.93,204.01L174.93,204.01z"/>
<path class="st4" d="M160.36,89.39l-5.28-15.63c-0.87-2.56-0.7-5.36,0.47-7.8l4.81-10.03c1.29-3.84,4.94-6.38,8.99-6.27l20.65,0.58
	c5.16,0.14,9.19,4.49,8.95,9.65l-1.3,27.3L160.36,89.39L160.36,89.39z"/>
<path class="st3" d="M161.46,69.36c-0.27,0-0.5-0.21-0.53-0.49l-1-11.92c-0.02-0.29,0.19-0.55,0.49-0.57
	c0.29-0.03,0.55,0.19,0.58,0.49l1,11.92c0.02,0.29-0.19,0.55-0.49,0.57C161.49,69.36,161.48,69.36,161.46,69.36z"/>
<path class="st3" d="M172.47,60.87c-0.27,0-0.5-0.2-0.53-0.47l-1.17-9.96c-0.03-0.29,0.17-0.56,0.47-0.59
	c0.29-0.04,0.56,0.17,0.59,0.47l1.17,9.96c0.03,0.29-0.17,0.56-0.47,0.59C172.51,60.87,172.49,60.87,172.47,60.87L172.47,60.87z"/>
<path class="st3" d="M181.32,60.87c-0.27,0-0.5-0.2-0.53-0.47l-1.17-9.96c-0.03-0.29,0.17-0.56,0.47-0.59
	c0.29-0.04,0.56,0.17,0.59,0.47l1.17,9.96c0.03,0.29-0.17,0.56-0.47,0.59C181.36,60.87,181.34,60.87,181.32,60.87L181.32,60.87z"/>
<path class="st3" d="M189.47,61.25c-0.27,0-0.5-0.2-0.53-0.47l-1.17-9.96c-0.03-0.29,0.17-0.56,0.47-0.59
	c0.29-0.04,0.56,0.17,0.59,0.47l1.17,9.96c0.03,0.29-0.17,0.56-0.47,0.59C189.51,61.25,189.49,61.25,189.47,61.25L189.47,61.25z"/>
<path class="st4" d="M221.91,137.12l21.15,3.65l22.85-4.43c0,0-3.95,16.9-20.99,17.02S221.91,137.12,221.91,137.12L221.91,137.12z"
	/>
<path class="st2" d="M328.08,215.99h-58.87c-10.85,0-20.46,7-23.79,17.32l-1.26,3.9l-1.26-3.9c-3.33-10.32-12.94-17.32-23.79-17.32
	h-58.05l-12.33,23.95l74.84,1.06l3.87,3.87h33.44l3.87-3.87l75.66-1.06L328.08,215.99z"/>
<path class="st3" d="M240.5,234.85c-0.06,0-0.12-0.03-0.14-0.09c-4.02-8.83-12.9-14.53-22.61-14.53H159.7
	c-0.09,0-0.16-0.07-0.16-0.16c0-0.09,0.07-0.16,0.16-0.16h58.05c9.83,0,18.82,5.78,22.89,14.71c0.04,0.08,0,0.17-0.08,0.21
	C240.54,234.84,240.52,234.85,240.5,234.85L240.5,234.85z"/>
<path class="st3" d="M237.6,236.64c-0.06,0-0.11-0.03-0.14-0.08c-4.39-7.85-12.7-12.72-21.69-12.72h-58.05
	c-0.09,0-0.16-0.07-0.16-0.16s0.07-0.16,0.16-0.16h58.05c9.11,0,17.52,4.94,21.96,12.88c0.04,0.08,0.02,0.17-0.06,0.21
	C237.65,236.63,237.62,236.64,237.6,236.64z"/>
<path class="st3" d="M234.36,238.23c-0.05,0-0.1-0.02-0.13-0.07c-4.64-6.71-12.28-10.71-20.44-10.71h-58.05
	c-0.09,0-0.16-0.07-0.16-0.16s0.07-0.16,0.16-0.16h58.05c8.26,0,15.99,4.05,20.69,10.84c0.05,0.07,0.03,0.17-0.04,0.22
	C234.42,238.22,234.39,238.22,234.36,238.23L234.36,238.23z"/>
<path class="st3" d="M231.03,240.07c-0.05,0-0.09-0.02-0.12-0.06c-4.74-5.69-11.7-8.95-19.1-8.95h-58.05
	c-0.09,0-0.16-0.07-0.16-0.16c0-0.09,0.07-0.16,0.16-0.16h58.05c7.49,0,14.54,3.3,19.34,9.06c0.06,0.07,0.05,0.17-0.02,0.22
	C231.11,240.05,231.07,240.07,231.03,240.07L231.03,240.07z"/>
<path class="st3" d="M209.84,234.67h-58.05c-0.09,0-0.16-0.07-0.16-0.16s0.07-0.16,0.16-0.16h58.05c0.09,0,0.16,0.07,0.16,0.16
	S209.93,234.67,209.84,234.67L209.84,234.67z"/>
<path class="st3" d="M248.68,234.85c-0.02,0-0.05,0-0.06-0.02c-0.08-0.04-0.11-0.13-0.08-0.21c4.07-8.94,13.06-14.71,22.89-14.71
	h58.05c0.09,0,0.16,0.07,0.16,0.16s-0.07,0.16-0.16,0.16h-58.05c-9.71,0-18.58,5.71-22.61,14.53
	C248.79,234.82,248.73,234.85,248.68,234.85L248.68,234.85z"/>
<path class="st3" d="M251.58,236.64c-0.03,0-0.05-0.01-0.08-0.02c-0.08-0.04-0.1-0.14-0.06-0.21c4.44-7.94,12.85-12.88,21.96-12.88
	h58.05c0.09,0,0.16,0.07,0.16,0.16s-0.07,0.16-0.16,0.16H273.4c-8.99,0-17.3,4.87-21.69,12.72
	C251.69,236.61,251.64,236.64,251.58,236.64L251.58,236.64z"/>
<path class="st3" d="M254.82,238.23c-0.03,0-0.06-0.01-0.09-0.03c-0.07-0.05-0.09-0.15-0.04-0.22c4.7-6.79,12.44-10.84,20.69-10.84
	h58.05c0.09,0,0.16,0.07,0.16,0.16s-0.07,0.16-0.16,0.16h-58.05c-8.15,0-15.79,4-20.44,10.71
	C254.91,238.21,254.86,238.23,254.82,238.23L254.82,238.23z"/>
<path class="st3" d="M258.14,240.07c-0.03,0-0.07-0.01-0.1-0.04c-0.07-0.06-0.08-0.15-0.02-0.22c4.8-5.76,11.84-9.06,19.34-9.06
	h58.05c0.09,0,0.16,0.07,0.16,0.16c0,0.09-0.07,0.16-0.16,0.16h-58.05c-7.4,0-14.36,3.26-19.1,8.95
	C258.23,240.05,258.19,240.07,258.14,240.07z"/>
<path class="st3" d="M337.39,234.67h-58.05c-0.09,0-0.16-0.07-0.16-0.16s0.07-0.16,0.16-0.16h58.05c0.09,0,0.16,0.07,0.16,0.16
	S337.47,234.67,337.39,234.67z"/>
<path class="st7" d="M338.76,238h-71.83c-3.3,0-5.97,2.67-5.97,5.97h-33.45c0-3.3-2.67-5.97-5.97-5.97h-71.83
	c-1.66,0-3.01,1.35-3.01,3.01s1.35,3.01,3.01,3.01h70.71c1.62,0,2.95,1.32,2.95,2.95c0,1.62,1.32,2.95,2.95,2.95h35.84
	c1.62,0,2.95-1.32,2.95-2.95c0-1.62,1.32-2.95,2.95-2.95h70.71c1.66,0,3.01-1.35,3.01-3.01S340.41,238,338.76,238L338.76,238z"/>
</svg>
