<svg width="101" height="100" viewBox="0 0 101 100" fill="none" xmlns="http://www.w3.org/2000/svg">
<path d="M37.7641 72.5799C57.3613 72.5799 73.248 56.6933 73.248 37.0961C73.248 17.4989 57.3613 1.6123 37.7641 1.6123C18.1669 1.6123 2.28027 17.4989 2.28027 37.0961C2.28027 56.6933 18.1669 72.5799 37.7641 72.5799Z" fill="#BF8888"/>
<path d="M73.2481 37.096C73.2481 32.5638 72.3933 28.2251 70.8288 24.2412C65.3772 24.467 60.2159 26.9993 56.732 31.1928C53.0546 32.838 50.6514 36.4993 50.6514 40.5799V61.2895H51.3288C52.5062 63.9831 55.1191 65.8863 58.1998 66.0798C67.2965 59.6605 73.232 49.0637 73.232 37.096H73.2481Z" fill="#BF8888"/>
<path d="M37.7637 66.1279C53.7978 66.1279 66.796 53.1297 66.796 37.0957C66.796 21.0616 53.7978 8.06348 37.7637 8.06348C21.7296 8.06348 8.73145 21.0616 8.73145 37.0957C8.73145 53.1297 21.7296 66.1279 37.7637 66.1279Z" fill="#F5F5F5"/>
<path d="M66.7965 37.2734C66.7965 33.1927 65.9417 29.3218 64.4256 25.8057C61.4739 26.9992 58.7965 28.8863 56.732 31.3702C53.0546 33.0153 50.6514 36.6766 50.6514 40.7573V58.2411C50.6514 59.8379 51.1352 61.3217 51.9417 62.5798C60.7965 57.6121 66.7804 48.1443 66.7804 37.2734H66.7965Z" fill="#E4E4E4"/>
<path d="M53.8926 58.0641V40.5802C53.8926 37.5318 55.8442 34.8222 58.7313 33.8705C61.7797 29.806 66.5539 27.4189 71.6345 27.4189C81.441 27.4189 89.3764 35.3544 89.3764 45.1608V58.0641H53.8926Z" fill="#6A3939"/>
<path d="M65.1836 68.9346V74.1926L51.2158 78.2249C47.0707 79.4184 44.2158 83.2087 44.2158 87.5313V98.4023H99.0545V87.5313C99.0545 83.2249 96.1997 79.4345 92.0545 78.2249L78.0868 74.1926V68.9346H65.1836Z" fill="#E43A83"/>
<path d="M78.0868 66.1289H65.1836V80.645H78.0868V66.1289Z" fill="#F8D2A0"/>
<path d="M65.1836 72.6612C67.1352 73.6289 69.3126 74.1934 71.6352 74.1934C73.9578 74.1934 76.1352 73.6289 78.0868 72.6612V66.1289H65.1836V72.6612Z" fill="#F8D2A0"/>
<path d="M60.3447 50.6928V59.6766C60.3447 65.9186 65.3931 70.9669 71.635 70.9669C77.877 70.9669 82.9254 65.9186 82.9254 59.6766V53.225C82.9254 51.4508 81.4738 49.9992 79.6996 49.9992H73.9254C72.4254 49.9992 70.9415 49.6444 69.6028 48.9831L66.0221 47.1928C65.4738 46.9186 64.877 46.7734 64.2641 46.7734C62.1028 46.7734 60.3447 48.5315 60.3447 50.6928Z" fill="#F8D2A0"/>
<path d="M82.9896 75.6127L78.0864 74.1934L71.6348 80.645L79.6993 87.0966L82.9896 75.6127Z" fill="#EE81B0"/>
<path d="M63.5711 87.0966L71.6356 80.645L65.184 74.1934L60.2646 75.6127L63.5711 87.0966Z" fill="#EE81B0"/>
<path d="M60.3442 53.2256H58.7313C56.0539 53.2256 53.8926 55.3869 53.8926 58.0643C53.8926 60.7417 56.0539 62.903 58.7313 62.903H84.5377C87.2152 62.903 89.3764 60.7417 89.3764 58.0643C89.3764 55.3869 87.2152 53.2256 84.5377 53.2256H60.3442Z" fill="#F8D2A0"/>
<path d="M53.8938 98.3864V88.709L50.668 98.3864H53.8938Z" fill="#E4E4E4"/>
<path d="M66.2637 84.951L70.0217 88.709L66.7959 98.3864H76.4734L73.2475 88.709L76.4734 85.4832L77.0056 84.951L71.6346 80.6445L66.2637 84.951Z" fill="#3A8AA2"/>
<path d="M89.377 98.3864V88.709L92.6028 98.3864H89.377Z" fill="#E4E4E4"/>
<path d="M37.7639 40.3217C39.5455 40.3217 40.9897 38.8775 40.9897 37.0959C40.9897 35.3144 39.5455 33.8701 37.7639 33.8701C35.9823 33.8701 34.5381 35.3144 34.5381 37.0959C34.5381 38.8775 35.9823 40.3217 37.7639 40.3217Z" fill="#8FC6D7"/>
<path d="M100.667 100H42.6025V87.5162C42.6025 82.5162 45.9574 78.0484 50.7638 76.6613L63.5703 72.9678V68.9355H66.7961V75.4033L51.6509 79.7742C48.2154 80.7581 45.8283 83.9516 45.8283 87.5162V96.7742H97.4412V87.5162C97.4412 83.9516 95.038 80.7581 91.6187 79.7742L76.4735 75.4033V68.9355H79.6993V72.9678L92.5058 76.6613C97.3122 78.0484 100.667 82.5 100.667 87.5162V100Z" fill="black"/>
<path d="M71.6347 72.5804C64.5218 72.5804 58.7314 66.7901 58.7314 59.6772V50.6934C58.7314 47.645 61.2153 45.1611 64.2637 45.1611C65.1185 45.1611 65.9734 45.3547 66.7314 45.7418L70.3121 47.5321C71.425 48.0966 72.6669 48.3869 73.925 48.3869H79.6992C82.3605 48.3869 84.5379 50.5643 84.5379 53.2256V59.6772C84.5379 66.7901 78.7476 72.5804 71.6347 72.5804ZM64.2637 48.3869C62.9895 48.3869 61.9573 49.4192 61.9573 50.6934V59.6772C61.9573 65.0159 66.296 69.3546 71.6347 69.3546C76.9734 69.3546 81.3121 65.0159 81.3121 59.6772V53.2256C81.3121 52.3385 80.5863 51.6127 79.6992 51.6127H73.925C72.1831 51.6127 70.4411 51.1934 68.8766 50.4192L65.296 48.6289C64.9734 48.4676 64.6185 48.3869 64.2637 48.3869Z" fill="black"/>
<path d="M90.9895 58.0646H87.7637V45.1614C87.7637 36.2744 80.5217 29.0324 71.6346 29.0324C67.0863 29.0324 62.7475 31.2099 60.0217 34.8389L59.7153 35.2421L59.2314 35.4034C56.9895 36.1453 55.4895 38.226 55.4895 40.5808V58.0646H52.2637V40.5808C52.2637 37.0002 54.4411 33.8228 57.7153 32.5163C61.0701 28.3066 66.2153 25.8066 71.6185 25.8066C82.2959 25.8066 90.9734 34.484 90.9734 45.1614V58.0646H90.9895Z" fill="black"/>
<path d="M80.5868 89.8704L69.2158 80.7736L76.9416 73.0479L79.2319 75.3382L74.0545 80.5156L78.8126 84.322L81.3771 75.3704L84.4739 76.2414L80.5868 89.8704Z" fill="black"/>
<path d="M62.683 89.8704L58.7959 76.2414L61.8927 75.3704L64.4572 84.322L69.2153 80.5156L64.0378 75.3382L66.3282 73.0479L74.054 80.7736L62.683 89.8704Z" fill="black"/>
<path d="M84.5387 64.5165H82.458V61.2907H84.5387C86.3128 61.2907 87.7645 59.8391 87.7645 58.0649C87.7645 56.2907 86.3128 54.8391 84.5387 54.8391H82.9258V51.6133H84.5387C88.1032 51.6133 90.9903 54.5004 90.9903 58.0649C90.9903 61.6294 88.1032 64.5165 84.5387 64.5165Z" fill="black"/>
<path d="M60.8116 64.5165H58.7309C55.1664 64.5165 52.2793 61.6294 52.2793 58.0649C52.2793 54.5004 55.1664 51.6133 58.7309 51.6133H60.3438V54.8391H58.7309C56.9567 54.8391 55.5051 56.2907 55.5051 58.0649C55.5051 59.8391 56.9567 61.2907 58.7309 61.2907H60.8116V64.5165Z" fill="black"/>
<path d="M55.5051 88.71H52.2793V98.3874H55.5051V88.71Z" fill="black"/>
<path d="M68.3278 98.9034L65.2633 97.8711L68.1827 89.1453L65.1182 86.0808L67.3924 83.8066L71.8601 88.2744L68.3278 98.9034Z" fill="black"/>
<path d="M74.9405 98.9034L71.4082 88.2744L75.8759 83.8066L78.1501 86.0808L75.0856 89.1453L78.005 97.8711L74.9405 98.9034Z" fill="black"/>
<path d="M73.2473 87.0967H70.0215V90.3225H73.2473V87.0967Z" fill="black"/>
<path d="M90.9895 88.71H87.7637V98.3874H90.9895V88.71Z" fill="black"/>
<path d="M37.7635 41.9352C35.1022 41.9352 32.9248 39.7578 32.9248 37.0965C32.9248 34.4352 35.1022 32.2578 37.7635 32.2578C40.4248 32.2578 42.6022 34.4352 42.6022 37.0965C42.6022 39.7578 40.4248 41.9352 37.7635 41.9352ZM37.7635 35.4836C36.8764 35.4836 36.1506 36.2094 36.1506 37.0965C36.1506 37.9836 36.8764 38.7094 37.7635 38.7094C38.6506 38.7094 39.3764 37.9836 39.3764 37.0965C39.3764 36.2094 38.6506 35.4836 37.7635 35.4836Z" fill="black"/>
<path d="M39.3762 12.9033H36.1504V33.871H39.3762V12.9033Z" fill="black"/>
<path d="M34.923 37.6524L23.6387 50.5605L26.0673 52.6837L37.3516 39.7755L34.923 37.6524Z" fill="black"/>
<path d="M37.7638 74.1934C17.3122 74.1934 0.666992 57.5483 0.666992 37.0967C0.666992 16.6451 17.3122 0 37.7638 0C54.296 0 68.9734 11.0968 73.4573 27L70.3605 27.8709C66.2638 13.3548 52.8605 3.2258 37.7638 3.2258C19.0863 3.2258 3.8928 18.4193 3.8928 37.0967C3.8928 55.7741 19.0863 70.9676 37.7638 70.9676C45.9896 70.9676 53.9089 67.9837 60.0863 62.5483L62.2154 64.9676C55.4412 70.9192 46.7638 74.1773 37.7638 74.1773V74.1934Z" fill="black"/>
<path d="M37.7633 67.7414C20.8601 67.7414 7.11816 53.9995 7.11816 37.0963C7.11816 20.1931 20.8601 6.45117 37.7633 6.45117C51.344 6.45117 63.1343 15.177 67.0859 28.1769L64.0053 29.1124C60.473 17.4834 49.9246 9.67697 37.7795 9.67697C22.6504 9.67697 10.344 21.9834 10.344 37.0963C10.344 52.2092 22.6504 64.5156 37.7633 64.5156C43.5053 64.5156 49.0214 62.7253 53.7149 59.3543L55.602 61.9672C50.3601 65.7414 44.1827 67.7253 37.7633 67.7253V67.7414Z" fill="black"/>
<path d="M37.7638 80.6448C24.4573 80.6448 12.1186 74.677 3.8928 64.4674V69.3545H0.666992V53.8545L3.65086 58.5803C11.1025 70.3867 23.8444 77.419 37.7638 77.419V80.6448Z" fill="black"/>
<path d="M49.0539 35.4834H45.8281V38.7092H49.0539V35.4834Z" fill="black"/>
<path d="M29.6994 35.4834H26.4736V38.7092H29.6994V35.4834Z" fill="black"/>
</svg>
