<?xml version="1.0" encoding="utf-8"?>
<!-- Generator: Adobe Illustrator 27.7.0, SVG Export Plug-In . SVG Version: 6.00 Build 0)  -->
<svg version="1.0" id="Layer_1" xmlns="http://www.w3.org/2000/svg" xmlns:xlink="http://www.w3.org/1999/xlink" x="0px" y="0px"
	 viewBox="0 0 470 250" style="enable-background:new 0 0 470 250;" xml:space="preserve">
<style type="text/css">
	.st0{fill:#77DFF9;}
	.st1{fill:#FFBE97;}
	.st2{fill:#4F2B2B;}
	.st3{fill:#562A2F;}
	.st4{fill:#FFFFFF;}
	.st5{fill:#DF8711;}
	.st6{fill:#FFE5B6;}
	.st7{fill:#FBE4C6;}
	.st8{fill:#F8D2A0;}
	.st9{fill:#2B6577;}
	.st10{fill:#D8C4BC;}
</style>
<polygon class="st0" points="156.68,137.15 124.14,212.43 257.63,212.43 255.12,161.6 "/>
<path class="st1" d="M87.59,62.76l-3.82-2.35l-4.34,2.63c-3.66,2.22-4.93,6.91-2.9,10.68l8.9-4.5L87.59,62.76L87.59,62.76z"/>
<path class="st1" d="M92.25,59.39l-3.82-2.35l-4.34,2.63c-3.66,2.22-4.93,6.91-2.9,10.68l8.9-4.5L92.25,59.39L92.25,59.39z"/>
<path class="st1" d="M103.32,99.11l-5.42-0.34c-3.36-0.21-6.39-2.12-8.04-5.06l-7.39-13.2l24.55-13.43L103.32,99.11L103.32,99.11z"
	/>
<polygon class="st1" points="351.77,135.04 374.17,102.36 338.16,89.52 322.63,109.89 330.63,130.35 "/>
<polyline class="st1" points="100.16,166.59 140.99,140.41 126.71,81.51 101.74,95.58 98.87,157.41 "/>
<path class="st0" d="M257.63,200.51l2.1-6.17l35.1,19.63c14.77,9.64,34.65,1.98,39.12-15.08l4.2-16.02l-34.59-19.13l-5.53,9.34
	l-15.12-23.63c-4.94-7.72-12.13-13.73-20.59-17.24l-71.81-29.71c-14.31-5.92-30.67-4.02-43.24,5.02l-12.1,8.86l5.35,22.08
	l-41.65,18.95c-0.15,3.17,0.31,6.28,1.29,9.18c2.03,6.01,6.3,11.16,12.13,14.21c9.78,5.13,21.76,3.26,29.52-4.6l14.46-14.65
	L257.63,200.51z"/>
<path class="st2" d="M257.63,201.05c-0.02,0-0.05,0-0.07,0c-0.3-0.04-0.5-0.31-0.46-0.61l3.29-24.18c0.04-0.3,0.31-0.5,0.61-0.46
	c0.3,0.04,0.5,0.31,0.46,0.61l-3.29,24.18C258.12,200.85,257.89,201.05,257.63,201.05z"/>
<polygon class="st1" points="325.97,125.9 303.57,163.74 338.16,182.87 351.77,135.04 "/>
<polygon class="st1" points="205.07,109.53 233.41,121.96 236.5,110.38 213.56,97.99 "/>
<path class="st1" d="M199.72,106.32l39.72,16.43c0,0-8.08,14.21-26.99,6.47C196.52,122.7,199.72,106.32,199.72,106.32z"/>
<path class="st1" d="M239.43,122.75c0,0-8.08,14.21-26.99,6.47c-15.93-6.52-12.73-22.9-12.73-22.9"/>
<path class="st2" d="M232.4,106.93c-14.94-2.38-24.27-17.16-24.95-26.49c-0.69-9.34,0.01-12.94,3.77-18.71
	c4.92-7.56,13.3-7.93,13.3-7.93s8.16-8,21.01-4.45c5.95,1.65,15.12,6.35,19.73,13.39c4.57,6.98,3.95,14.78,3.95,14.78l-16.59-3.57
	l-2.78-2.5L232.4,106.93L232.4,106.93z"/>
<path class="st1" d="M217.91,75.34c-8.11,11.93-3.5,29.61,9.84,35.77c14.27,6.59,27.58,3.62,34.21-9.12
	c6.32-12.14,6.88-27.93-5.58-35.58C243.93,58.75,226.02,63.41,217.91,75.34z"/>
<path class="st1" d="M227,110.49c1.61,1.39,3.4,2.54,5.36,3.36c0.75,0.31,1.54,0.61,2.34,0.75c0.34,0.06,0.69-0.09,0.79-0.44
	c0.08-0.31-0.1-0.72-0.44-0.79c-0.75-0.13-1.49-0.4-2.18-0.69c-1.81-0.74-3.48-1.83-4.96-3.1
	C227.28,109.05,226.38,109.95,227,110.49L227,110.49z"/>
<path class="st3" d="M251.89,109.1c-0.23,0-0.44-0.14-0.51-0.37c-0.03-0.08-0.61-1.91,1.18-3.47c1.7-1.48,4.34-1.18,4.45-1.16
	c0.3,0.04,0.51,0.31,0.47,0.6s-0.31,0.51-0.6,0.47c-0.02,0-2.28-0.26-3.61,0.9c-1.23,1.07-0.88,2.26-0.86,2.31
	c0.09,0.28-0.07,0.59-0.35,0.68C252.01,109.1,251.95,109.1,251.89,109.1L251.89,109.1z"/>
<path class="st2" d="M209.05,66.16c7.62-17.41,24.17-11.62,35.25-6.96l0.44,14.08l-8.1,12.31c-5.05,4.31-9.71,9.18-15.16,11.82
	c-5.44,2.64-8.37,3.28-12.05,3.58c0,0,1.03-3.21-0.92-9.43C206.36,84.68,205.05,75.29,209.05,66.16L209.05,66.16z"/>
<path class="st3" d="M259.78,87.56c-0.18,1.2-0.94,2.08-1.7,1.97c-0.77-0.11-1.24-1.18-1.07-2.38c0.18-1.2,0.94-2.08,1.7-1.97
	C259.48,85.29,259.96,86.36,259.78,87.56z"/>
<path class="st1" d="M269.81,94.78c-0.16,0.93-6.48,3.22-6.48,3.22l2.88-13.6C266.22,84.39,269.96,93.85,269.81,94.78L269.81,94.78z
	"/>
<path class="st4" d="M253.17,86.71c-0.39,2.34-0.16,4.63,0.66,6.46c0.79,1.75,2.03,2.85,3.48,3.1c1.46,0.25,2.98-0.39,4.31-1.78
	c1.38-1.45,2.36-3.54,2.75-5.88c0.8-4.75-1.06-9.03-4.15-9.55C257.14,78.53,253.97,81.96,253.17,86.71z M257.94,97.4
	c-0.27,0-0.54-0.02-0.81-0.07c-1.82-0.31-3.34-1.63-4.29-3.72c-0.91-2.02-1.17-4.53-0.74-7.08c0.9-5.33,4.63-9.16,8.31-8.54
	c3.68,0.62,5.93,5.47,5.03,10.8c-0.43,2.55-1.51,4.83-3.03,6.44C261.07,96.64,259.5,97.4,257.94,97.4z"/>
<path class="st2" d="M233.04,79.8l5.78,4.47c4.03-5.55,8.75-11.07,17.63-14.54c0,0,4.33,7.85,12.76,7.77c0,0-5.57-17.21-26.91-19.21
	L233.04,79.8L233.04,79.8z"/>
<path class="st4" d="M252.92,85.5c-0.04,0-0.08,0-0.12-0.02l-13.35-3.07c-0.29-0.07-0.47-0.36-0.41-0.65
	c0.07-0.29,0.36-0.48,0.65-0.41l13.35,3.07c0.29,0.07,0.47,0.36,0.41,0.65C253.38,85.33,253.16,85.5,252.92,85.5z"/>
<path class="st1" d="M240.21,88.39c-0.21,4.41-0.21,8.24-3.91,8.07c-3.69-0.17-7.55-4.1-7.34-8.51c0.21-4.41,2.85-7.84,6.54-7.67
	C239.19,80.45,240.41,83.98,240.21,88.39L240.21,88.39z"/>
<path class="st4" d="M265.14,86.5c-0.2,0-0.38-0.11-0.48-0.29c-0.14-0.26-0.04-0.59,0.23-0.73c0.03-0.02,0.83-0.43,2.04-0.54
	c0.3-0.03,0.56,0.2,0.59,0.49c0.03,0.3-0.2,0.56-0.49,0.59c-0.98,0.08-1.62,0.41-1.63,0.42C265.31,86.48,265.23,86.5,265.14,86.5z"
	/>
<path class="st3" d="M237.34,89.11c-0.27,0-0.5-0.2-0.54-0.47c-0.02-0.13-0.46-3.33-2.9-3.5c-0.3-0.02-0.52-0.28-0.5-0.58
	c0.02-0.3,0.29-0.51,0.58-0.5c2.67,0.18,3.72,2.99,3.9,4.44c0.04,0.3-0.17,0.57-0.47,0.6C237.39,89.1,237.37,89.1,237.34,89.11
	L237.34,89.11z"/>
<rect x="78.14" y="56.27" transform="matrix(0.8386 -0.5448 0.5448 0.8386 -18.6032 66.644)" class="st5" width="50.04" height="16.89"/>
<polygon class="st6" points="119.53,44 119.66,48.95 124.27,56.03 128.73,58.16 128.6,53.21 124,46.13 "/>
<path class="st2" d="M124.9,50.58c1.02,1.57,1.51,3.07,1.09,3.35c-0.42,0.28-1.59-0.78-2.62-2.35s-1.51-3.07-1.09-3.35
	C122.7,47.95,123.88,49.01,124.9,50.58z"/>
<rect x="80.64" y="68.69" transform="matrix(0.8383 -0.5452 0.5452 0.8383 -20.7194 68.0538)" class="st2" width="47.45" height="0.54"/>
<rect x="76.19" y="61.83" transform="matrix(0.8383 -0.5452 0.5452 0.8383 -17.6994 64.5176)" class="st2" width="47.45" height="0.54"/>
<path class="st6" d="M82.95,72.71l-5.37-1.45L70.3,82.78c0.59,0.64,1.16,1.37,1.69,2.18s0.96,1.63,1.31,2.43l13.48-1.97l0.81-5.56
	l-5.41-1.52L82.95,72.71L82.95,72.71z"/>
<path class="st2" d="M70.3,82.78l-0.96,1.51c-1,1.59,0.32,3.63,2.18,3.36l1.77-0.26c-0.35-0.8-0.78-1.62-1.31-2.43
	C71.47,84.15,70.9,83.42,70.3,82.78L70.3,82.78z"/>
<path class="st7" d="M338.46,113.36c-9.41-10.66-26.78-11.84-43.88-14.02l21.13-46.27c13.04,0.48,34.46-0.64,39.42,12.62
	L338.46,113.36L338.46,113.36z"/>
<path class="st7" d="M338.46,113.36c14-2.47,28.72,6.24,43.45,15.19l16.67-47.68c-10.5-7.75-31.3-22.47-43.45-15.19L338.46,113.36z"
	/>
<path class="st7" d="M338.46,113.36c10.36-5.13,24.94-2.5,39.68,6.46l16.67-47.68c-10.5-7.75-29.01-14.57-39.68-6.46L338.46,113.36z
	"/>
<path class="st7" d="M338.46,113.36c5.26-5.64,25.37-7.82,36.49-2.06l16.67-47.68c-10.88-7.26-30.66-5.8-36.49,2.06L338.46,113.36z"
	/>
<path class="st8" d="M338.46,113.59c-0.06,0-0.12-0.02-0.16-0.07c-0.1-0.09-0.1-0.24-0.01-0.34c5.33-5.72,25.37-7.83,36.53-2.23
	l16.58-47.41c0.04-0.13,0.18-0.19,0.3-0.15c0.13,0.04,0.19,0.18,0.15,0.3l-16.76,47.94l-0.25-0.13
	c-10.96-5.67-30.94-3.64-36.21,2.01C338.58,113.57,338.51,113.6,338.46,113.59L338.46,113.59z"/>
<path class="st8" d="M378.13,120.08c-0.05,0-0.1-0.01-0.14-0.04c-14.95-9.09-29.32-11.44-39.42-6.44c-0.13,0.07-0.3,0.01-0.36-0.12
	c-0.07-0.13-0.01-0.29,0.12-0.36c10.2-5.05,24.64-2.75,39.65,6.29l16.56-47.36c0.05-0.14,0.2-0.22,0.34-0.16
	c0.14,0.05,0.21,0.2,0.16,0.34l-16.67,47.68c-0.03,0.08-0.09,0.14-0.16,0.16C378.19,120.08,378.16,120.09,378.13,120.08
	L378.13,120.08z"/>
<polygon class="st7" points="398.58,80.88 400.13,82.42 382.43,133.02 381.91,128.55 "/>
<path class="st8" d="M338.46,113.36c-7.41-13.65-26.78-11.84-43.88-14.02l-0.85,2.24c17.11,2.18,34.47,3.36,43.88,14.02
	c14-2.47,30.1,8.47,44.83,17.43l1.34-3.82C369.04,120.24,351.08,106.71,338.46,113.36L338.46,113.36z"/>
<path class="st8" d="M338.46,113.62c-0.03,0-0.06,0-0.09-0.02c-0.14-0.05-0.21-0.2-0.16-0.34l16.67-47.68
	c0.05-0.14,0.2-0.21,0.34-0.16s0.21,0.2,0.16,0.34l-16.67,47.68C338.67,113.56,338.57,113.62,338.46,113.62z"/>
<path class="st2" d="M382.43,133.57c-0.1,0-0.2-0.03-0.28-0.08c-1.28-0.78-2.57-1.57-3.87-2.37c-13.77-8.46-28.01-17.21-40.59-14.99
	c-0.19,0.03-0.38-0.03-0.5-0.17c-8.43-9.55-23.26-11.36-38.96-13.28c-1.52-0.19-3.05-0.37-4.58-0.57c-0.3-0.04-0.51-0.31-0.47-0.61
	c0.04-0.3,0.31-0.5,0.61-0.47c1.52,0.2,3.05,0.38,4.57,0.57c15.79,1.92,30.71,3.74,39.44,13.41c12.91-2.11,27.21,6.68,41.04,15.19
	c1.1,0.68,2.2,1.35,3.29,2.02l17.47-49.98c0.1-0.28,0.41-0.43,0.69-0.33c0.28,0.1,0.43,0.41,0.33,0.69l-17.7,50.61
	c-0.05,0.15-0.18,0.28-0.33,0.33C382.55,133.56,382.49,133.57,382.43,133.57L382.43,133.57z"/>
<path class="st2" d="M143.26,149.43c-0.24,0-0.46-0.16-0.52-0.41l-8.1-32.5c-0.07-0.29,0.1-0.58,0.39-0.66
	c0.29-0.07,0.58,0.1,0.66,0.39l8.1,32.5c0.07,0.29-0.1,0.58-0.39,0.66C143.35,149.43,143.3,149.43,143.26,149.43z"/>
<path class="st2" d="M291.59,184.01c-0.1,0-0.2-0.03-0.28-0.08c-0.25-0.16-0.33-0.49-0.17-0.74l6.44-10.39
	c0.16-0.25,0.49-0.33,0.74-0.17c0.25,0.16,0.33,0.49,0.17,0.74l-6.44,10.39C291.95,183.92,291.77,184.01,291.59,184.01
	L291.59,184.01z"/>
<path class="st1" d="M325.97,125.9l-5.66-13.91c-1.12-2.75-1.22-5.82-0.28-8.64l4.33-13c0.65-1.94,2.67-3.06,4.65-2.58
	c1.9,0.46,3.17,2.23,3,4.18l-1.14,12.69l4.7,9.69c1.66,3.42,1.95,7.35,0.8,10.98l-1.59,5.04L325.97,125.9L325.97,125.9z"/>
<path class="st1" d="M103.16,54.63l-9.29-1.3c-4.16-0.58-8.02,2.24-8.74,6.38l-1.78,10.28c-0.34,1.96,1.05,3.8,3.03,4
	c1.53,0.16,2.98-0.72,3.56-2.15l4.59-11.59L103.16,54.63L103.16,54.63z"/>
<path class="st1" d="M126.71,81.51l-2.55-11.78c-0.83-3.82-3.79-6.82-7.61-7.68l-10.64-2.41c-2.74-0.62-5.6-0.07-7.91,1.52
	l-8.87,6.1c-1.79,1.23-2.33,3.64-1.22,5.51c1.12,1.9,3.53,2.58,5.48,1.56l9.46-4.95l-4.02,14.47l2.9,11.73L126.71,81.51
	L126.71,81.51z"/>
<path class="st2" d="M88.28,73.82c-0.17,0-0.33-0.08-0.44-0.23c-1.5-2.08-1.05-5.03,1-6.56l3.54-2.65c0.24-0.18,0.58-0.13,0.76,0.11
	c0.18,0.24,0.13,0.58-0.11,0.76l-3.54,2.65c-1.59,1.19-1.93,3.46-0.77,5.06c0.18,0.24,0.12,0.58-0.12,0.75
	C88.5,73.78,88.39,73.82,88.28,73.82L88.28,73.82z"/>
<path class="st2" d="M102.86,91.48c-0.23,0-0.44-0.15-0.52-0.38l-1.6-5.25c-0.86-2.82-0.95-5.83-0.28-8.7l1.87-7.88
	c0.07-0.29,0.36-0.47,0.65-0.4c0.29,0.07,0.47,0.36,0.4,0.65l-1.87,7.88c-0.64,2.69-0.55,5.5,0.26,8.14l1.6,5.25
	c0.09,0.29-0.07,0.59-0.36,0.67C102.96,91.47,102.91,91.48,102.86,91.48z"/>
<path class="st2" d="M83.29,67.6c-0.04,0-0.09,0-0.13-0.02c-0.29-0.07-0.47-0.37-0.39-0.66l1.83-7.36c0.07-0.29,0.36-0.47,0.66-0.39
	s0.47,0.37,0.39,0.66l-1.83,7.36C83.75,67.44,83.53,67.6,83.29,67.6z"/>
<path class="st2" d="M80.23,69.58c-0.3,0-0.54-0.24-0.54-0.54v-5.95c0-0.3,0.24-0.54,0.54-0.54c0.3,0,0.54,0.24,0.54,0.54v5.95
	C80.77,69.34,80.53,69.58,80.23,69.58z"/>
<path class="st2" d="M138,179.91c-0.11,0-0.21-0.03-0.31-0.1c-0.25-0.17-0.31-0.51-0.14-0.75l18.13-26.37
	c0.17-0.25,0.51-0.31,0.75-0.14c0.25,0.17,0.31,0.51,0.14,0.75l-18.13,26.37C138.35,179.83,138.17,179.91,138,179.91L138,179.91z"/>
<path class="st8" d="M302.09,239.8c0,0-28.08-15.73-58.8-19.3c-30.71-3.57-40.98,16.48-40.98,16.48s-10.26-20.04-40.98-16.48
	c-30.71,3.57-57.64,16.48-57.64,16.48l-3.65,10.04c27.98-6.31,57.67-8.47,86.11-5.09c4.88,4.24,9.4,5.95,16.15,6.07
	c6.75-0.13,11.27-1.84,16.15-6.07c28.45-3.38,58.13-1.22,86.11,5.09L302.09,239.8L302.09,239.8z"/>
<path class="st9" d="M303.78,249.57c-0.17,0-0.35-0.03-0.52-0.09c-33.15-11.58-78.45-6.8-84.55-6.08
	c-2.21,3.09-5.76,6.17-16.39,6.17s-13.73-2.74-16.36-6.17c-5.95-0.7-51.37-5.52-84.59,6.08c-0.82,0.28-1.72-0.15-2-0.97
	s0.15-1.72,0.97-2c36.15-12.62,86.19-6.21,86.69-6.15c0.43,0.06,0.81,0.28,1.06,0.62c1.97,2.67,4,5.43,14.23,5.43
	s12.37-2.65,14.19-5.38c0.25-0.38,0.65-0.62,1.1-0.69c0.5-0.07,50.54-6.47,86.69,6.15c0.82,0.29,1.25,1.18,0.97,2
	C305.03,249.16,304.42,249.57,303.78,249.57L303.78,249.57z"/>
<path class="st7" d="M288.84,201.92c0,0-21.36-12.31-49.28-15.87s-37.25,16.48-37.25,16.48s-9.33-20.04-37.25-16.48
	s-49.28,15.87-49.28,15.87l-12.09,35.06c0,0,26.93-12.91,57.64-16.48s40.98,16.48,40.98,16.48s10.26-20.04,40.98-16.48
	s58.8,19.3,58.8,19.3L288.84,201.92L288.84,201.92z"/>
<path class="st10" d="M202.31,242.29c-0.35,0-0.63-0.28-0.63-0.63v-39.14c0-0.35,0.28-0.63,0.63-0.63s0.63,0.28,0.63,0.63v39.14
	C202.94,242.01,202.66,242.29,202.31,242.29z"/>
</svg>
