<svg width="451" height="250" viewBox="0 0 451 250" fill="none" xmlns="http://www.w3.org/2000/svg">
<path d="M213.744 233.725H317.908V250H213.744V233.725Z" fill="#4F2B2B"/>
<path d="M235.367 52.0605H109.666V145.836H235.367V52.0605Z" fill="#F8D2A0"/>
<path d="M212.775 74.0579C212.506 74.0579 212.235 74.028 211.974 73.9681C211.053 73.7548 210.362 73.2074 210.026 72.424C209.795 71.8802 209.76 71.3028 209.758 70.7578C209.747 68.3572 210.285 65.9411 211.312 63.7694C211.443 63.4903 211.778 63.3717 212.057 63.5023C212.336 63.634 212.456 63.9682 212.324 64.2473C212.169 64.5732 212.028 64.9038 211.897 65.2404C212.22 64.9708 212.612 64.772 213.049 64.6654C213.824 64.4725 214.618 64.6055 215.225 65.0224C216.1 65.6261 216.607 66.7042 216.732 68.2291C216.907 70.3565 216.312 72.1784 215.1 73.229C214.486 73.7596 213.629 74.0555 212.774 74.0555L212.775 74.0579ZM211.12 68.0098C210.956 68.9154 210.873 69.8354 210.878 70.753C210.88 71.2453 210.912 71.643 211.056 71.9832C211.313 72.5845 211.9 72.8013 212.226 72.8768C212.979 73.0517 213.821 72.8576 214.369 72.3845C215.382 71.5052 215.617 70.0965 215.64 69.1047C215.43 69.3155 215.183 69.4964 214.905 69.6378C214.194 70.0031 213.392 70.0582 212.704 69.7923C212.016 69.5252 211.46 68.9442 211.181 68.1955C211.158 68.1332 211.138 68.0721 211.119 68.0098H211.12ZM213.752 65.7003C213.609 65.7003 213.463 65.7183 213.316 65.7543C212.85 65.8692 212.47 66.1472 212.275 66.5161C212.079 66.885 212.063 67.3558 212.232 67.805C212.399 68.2542 212.719 68.598 213.11 68.7501C213.5 68.8987 213.968 68.8615 214.396 68.6435C214.823 68.4255 215.127 68.0673 215.232 67.6625C215.267 67.5259 215.35 67.4145 215.457 67.3402C215.285 66.6922 214.995 66.225 214.591 65.9471C214.355 65.7842 214.062 65.7003 213.752 65.7003Z" fill="#4F2B2B"/>
<path d="M217.242 98.9377C217.01 98.9377 216.793 98.7928 216.713 98.5592C216.612 98.2669 216.768 97.9495 217.06 97.8489C218.221 97.45 219.358 96.9541 220.442 96.3743C220.755 96.2054 221.072 96.0221 221.217 95.7754C221.332 95.5813 221.342 95.3681 221.249 95.1177C221.079 94.6578 220.575 94.1954 220.051 94.0181C219.609 93.8684 219.13 93.8061 218.624 93.7378C217.986 93.6551 217.329 93.5677 216.695 93.2982C216.094 93.0418 215.913 92.6669 215.867 92.3986C215.815 92.0835 215.922 91.8164 216.035 91.5948C217.332 89.0337 220.333 87.4909 223.173 87.9185C223.479 87.964 223.688 88.2491 223.641 88.5558C223.595 88.8613 223.307 89.0685 223.004 89.0242C220.636 88.6648 218.118 89.9561 217.033 92.1003C217.01 92.1458 216.996 92.1782 216.987 92.1997C217.011 92.2057 217.057 92.2345 217.133 92.268C217.626 92.4764 218.182 92.5495 218.77 92.6274C219.308 92.698 219.865 92.7711 220.41 92.9568C221.253 93.2419 222.011 93.9534 222.299 94.7284C222.507 95.2902 222.464 95.8652 222.179 96.3456C221.885 96.8391 221.4 97.1278 220.969 97.3601C219.832 97.9687 218.639 98.4897 217.423 98.9066C217.363 98.927 217.301 98.9377 217.241 98.9377H217.242Z" fill="#4F2B2B"/>
<path d="M202.969 100.84C201.835 100.84 200.712 100.508 199.796 99.8465C197.959 98.5229 197.176 95.9666 197.972 93.9015C198.793 91.7717 201.233 90.4456 203.415 90.9451C203.717 91.0134 203.905 91.3141 203.836 91.6147C203.768 91.9166 203.462 92.1059 203.166 92.0352C201.535 91.6651 199.635 92.7012 199.016 94.3028C198.406 95.8828 199.036 97.9191 200.45 98.9385C201.843 99.9435 203.933 99.9723 205.422 99.0104C205.682 98.8403 206.028 98.9158 206.196 99.1769C206.363 99.4356 206.289 99.783 206.029 99.9507C205.112 100.544 204.035 100.84 202.967 100.84H202.969Z" fill="#4F2B2B"/>
<path d="M210.199 99.2739C209.563 99.2739 208.957 99.1301 208.434 98.8438C207.454 98.3084 206.873 97.3573 206.797 96.1654C206.706 94.7423 207.377 93.2558 208.466 92.4652C208.719 92.2819 209.004 92.1298 209.312 92.0136C210.757 91.4685 212.422 91.7261 213.55 92.6748C214.506 93.481 214.912 94.6776 214.664 95.9558C214.437 97.1297 213.533 98.191 212.248 98.7959C211.573 99.1134 210.869 99.2727 210.198 99.2727L210.199 99.2739ZM210.862 92.8545C210.471 92.8545 210.077 92.9228 209.707 93.0617C209.493 93.1432 209.296 93.2462 209.124 93.372C208.345 93.9362 207.849 95.055 207.915 96.0947C207.951 96.6565 208.163 97.4208 208.97 97.8628C209.722 98.2724 210.796 98.2425 211.772 97.7837C212.735 97.3309 213.406 96.5679 213.565 95.7449C213.784 94.6141 213.285 93.917 212.829 93.5313C212.303 93.0881 211.588 92.8533 210.862 92.8533V92.8545Z" fill="#4F2B2B"/>
<path d="M128.619 81.7817C128.386 81.7817 128.17 81.6367 128.089 81.4031C127.989 81.1109 128.146 80.7934 128.438 80.6928C130.416 80.0136 132.351 79.1703 134.192 78.1845C134.766 77.8766 135.352 77.5328 135.648 77.0333C135.899 76.6081 135.929 76.1241 135.733 75.5959C135.403 74.707 134.476 73.8506 133.478 73.5128C132.697 73.248 131.873 73.1402 130.999 73.024C129.952 72.8863 128.869 72.7425 127.85 72.3101C127.166 72.019 126.773 71.607 126.684 71.0847C126.613 70.6666 126.761 70.3001 126.93 69.9671C129.043 65.7937 133.929 63.2698 138.56 63.9765C138.865 64.022 139.075 64.3071 139.028 64.6138C138.983 64.9192 138.7 65.1301 138.391 65.0821C134.236 64.4545 129.83 66.7184 127.928 70.4726C127.881 70.566 127.769 70.7864 127.789 70.8978C127.803 70.9865 127.943 71.1338 128.287 71.2799C129.166 71.6525 130.128 71.7794 131.146 71.9136C132.035 72.031 132.954 72.152 133.838 72.4515C135.155 72.8971 136.339 74.0039 136.785 75.2054C137.098 76.0535 137.04 76.8836 136.613 77.6023C136.17 78.3498 135.436 78.7858 134.723 79.1691C132.829 80.1837 130.838 81.0522 128.803 81.7493C128.743 81.7697 128.682 81.7805 128.622 81.7805L128.619 81.7817Z" fill="#4F2B2B"/>
<path d="M149.605 103.91C149.372 103.91 149.156 103.765 149.075 103.531C148.976 103.239 149.132 102.92 149.424 102.821C150.766 102.361 152.084 101.786 153.343 101.113C153.73 100.906 154.093 100.694 154.273 100.389C154.418 100.146 154.432 99.8646 154.317 99.5544C154.109 98.9914 153.517 98.4487 152.88 98.2319C152.361 98.057 151.804 97.9828 151.214 97.9049C150.483 97.8091 149.728 97.7097 149.007 97.4018C148.349 97.1251 148.153 96.7202 148.104 96.4291C148.04 96.047 148.208 95.714 148.288 95.5559C149.77 92.6271 153.198 90.853 156.446 91.3537C156.751 91.3993 156.961 91.6844 156.914 91.991C156.868 92.2965 156.584 92.5061 156.277 92.4594C153.498 92.0401 150.557 93.5518 149.287 96.0602C149.222 96.1908 149.21 96.2375 149.21 96.2542C149.212 96.2483 149.279 96.3022 149.444 96.3716C150.028 96.6196 150.675 96.7046 151.361 96.7957C151.979 96.8771 152.616 96.961 153.239 97.1718C154.189 97.4928 155.044 98.2954 155.368 99.1663C155.599 99.7904 155.552 100.428 155.236 100.959C154.909 101.51 154.383 101.824 153.872 102.099C152.56 102.802 151.186 103.401 149.787 103.879C149.727 103.899 149.666 103.91 149.606 103.91H149.605Z" fill="#4F2B2B"/>
<path d="M146.29 79.8673C146.089 79.8673 145.895 79.7595 145.795 79.569C145.65 79.2959 145.754 78.9581 146.028 78.8132C146.708 78.4538 147.191 77.7123 147.32 76.8307C147.449 75.9478 147.198 75.0986 146.648 74.5583C146.545 74.4577 146.495 74.4373 146.485 74.4337C146.507 74.4409 146.454 74.4829 146.339 74.6134C145.375 75.7107 144.524 76.9109 143.809 78.1819C143.797 78.2046 143.784 78.2274 143.771 78.2502C143.617 78.5185 143.276 78.6131 143.01 78.461C142.742 78.31 142.646 77.9699 142.796 77.7015C142.808 77.68 142.82 77.6584 142.832 77.638C143.632 76.1826 143.656 74.3032 142.888 72.831C142.792 72.6477 142.708 72.5687 142.677 72.5495C142.692 72.5663 142.634 72.619 142.521 72.7867C141.306 74.5691 140.216 76.4629 139.28 78.4143C139.155 78.6766 138.854 78.8 138.58 78.697C138.31 78.5975 138.159 78.3077 138.234 78.0285C138.709 76.2437 138.73 74.3511 138.294 72.5567C138.221 72.256 138.406 71.9529 138.706 71.8799C139.003 71.8128 139.309 71.9925 139.382 72.2919C139.609 73.2287 139.724 74.1906 139.726 75.1513C140.31 74.1271 140.934 73.1257 141.595 72.1578C141.732 71.9565 142.052 71.4858 142.604 71.4355C142.894 71.4103 143.451 71.4882 143.881 72.3159C144.312 73.1436 144.539 74.0768 144.563 75.0171C144.862 74.6254 145.175 74.2457 145.499 73.8755C145.649 73.7054 145.962 73.3485 146.441 73.3197C146.958 73.3006 147.313 73.6455 147.433 73.7617C148.238 74.5523 148.609 75.7598 148.429 76.9948C148.25 78.2286 147.548 79.2791 146.553 79.8062C146.47 79.8493 146.38 79.8709 146.292 79.8709L146.29 79.8673Z" fill="#4F2B2B"/>
<path d="M154.351 80.6337C154.236 80.6337 154.12 80.5989 154.021 80.5259C151.667 78.8009 151.115 75.7464 151.382 73.4632C151.671 70.9896 152.791 68.74 154.011 66.4617C154.156 66.1909 154.496 66.0831 154.768 66.2329C155.04 66.3778 155.143 66.718 154.997 66.9899C153.829 69.1688 152.758 71.313 152.492 73.5914C152.202 76.0686 153.063 78.4344 154.681 79.6215C154.931 79.8035 154.984 80.1545 154.802 80.4037C154.692 80.5534 154.522 80.6325 154.35 80.6325L154.351 80.6337Z" fill="#4F2B2B"/>
<path d="M154.246 74.7195C153.984 74.7195 153.749 74.5339 153.698 74.2655C153.639 73.9625 153.837 73.669 154.141 73.6091L159.415 72.5897C159.715 72.5298 160.012 72.7299 160.07 73.0329C160.129 73.336 159.932 73.6295 159.627 73.6894L154.353 74.7087C154.317 74.7147 154.281 74.7183 154.246 74.7183V74.7195Z" fill="#4F2B2B"/>
<path d="M164.677 77.2074C164.407 77.2074 164.138 77.1775 163.876 77.1176C162.955 76.9044 162.263 76.3558 161.929 75.5723C161.697 75.0285 161.663 74.4511 161.66 73.9061C161.65 71.5044 162.187 69.0883 163.214 66.9189C163.347 66.6386 163.682 66.5236 163.959 66.6518C164.238 66.7836 164.358 67.119 164.226 67.3969C164.072 67.7227 163.93 68.0533 163.8 68.3899C164.122 68.1216 164.515 67.9215 164.95 67.8149C165.725 67.6257 166.519 67.7562 167.127 68.1731C168.002 68.7756 168.51 69.8537 168.634 71.3798C168.809 73.5084 168.214 75.3304 167.003 76.3785C166.39 76.9104 165.532 77.2062 164.677 77.2062V77.2074ZM163.021 71.1594C162.857 72.065 162.776 72.9837 162.779 73.9013C162.782 74.3936 162.813 74.7913 162.958 75.1315C163.214 75.7341 163.801 75.9497 164.127 76.0251C164.881 76.1988 165.722 76.006 166.27 75.5316C167.284 74.6536 167.518 73.2437 167.541 72.253C167.331 72.4627 167.083 72.6448 166.805 72.7861C166.094 73.1503 165.291 73.2066 164.605 72.9406C163.917 72.6735 163.362 72.0925 163.083 71.3439C163.061 71.2828 163.039 71.2205 163.021 71.1582V71.1594ZM165.652 68.8499C165.509 68.8499 165.363 68.8679 165.217 68.9038C164.751 69.0176 164.372 69.2955 164.176 69.6644C163.981 70.0346 163.964 70.5054 164.133 70.9546C164.3 71.4038 164.62 71.7475 165.011 71.8997C165.4 72.0494 165.868 72.0123 166.296 71.7931C166.724 71.5751 167.028 71.2157 167.133 70.812C167.168 70.6755 167.251 70.564 167.359 70.491C167.186 69.8429 166.896 69.3758 166.494 69.0979C166.257 68.9349 165.963 68.8511 165.653 68.8511L165.652 68.8499Z" fill="#4F2B2B"/>
<path d="M171.019 80.2141C170.9 80.2141 170.78 80.177 170.679 80.0979C170.433 79.9099 170.386 79.5589 170.574 79.3145C173.374 75.661 173.716 70.3281 171.406 66.3464C171.25 66.078 171.342 65.7367 171.609 65.5809C171.878 65.4252 172.22 65.5162 172.375 65.7846C174.906 70.1484 174.531 75.9916 171.463 79.9937C171.353 80.1375 171.186 80.2129 171.019 80.2129V80.2141Z" fill="#4F2B2B"/>
<path d="M161.726 104.869C161.611 104.869 161.495 104.835 161.396 104.761C159.042 103.037 158.49 99.9819 158.757 97.6988C159.046 95.224 160.166 92.9744 161.386 90.6972C161.531 90.4253 161.871 90.3187 162.143 90.4685C162.415 90.6134 162.518 90.9536 162.372 91.2255C161.204 93.4044 160.134 95.5474 159.867 97.827C159.577 100.304 160.438 102.67 162.056 103.857C162.306 104.039 162.359 104.39 162.177 104.639C162.067 104.789 161.897 104.868 161.725 104.868L161.726 104.869Z" fill="#4F2B2B"/>
<path d="M161.623 98.9525C161.361 98.9525 161.126 98.7668 161.075 98.4985C161.016 98.1942 161.215 97.9019 161.518 97.8432L166.793 96.8251C167.094 96.7652 167.39 96.9652 167.449 97.2683C167.507 97.5713 167.31 97.8648 167.005 97.9235L161.73 98.9417C161.694 98.9477 161.658 98.9513 161.623 98.9513V98.9525Z" fill="#4F2B2B"/>
<path d="M172.052 101.442C171.782 101.442 171.513 101.412 171.251 101.352C170.33 101.139 169.638 100.59 169.304 99.8065C169.072 99.2639 169.038 98.6853 169.035 98.1403C169.025 95.7386 169.561 93.3236 170.589 91.1531C170.722 90.874 171.057 90.7578 171.334 90.886C171.613 91.0177 171.733 91.3532 171.601 91.6311C171.447 91.9569 171.305 92.2875 171.175 92.6241C171.497 92.3558 171.89 92.1557 172.325 92.0491C173.1 91.8598 173.894 91.9904 174.504 92.4073C175.378 93.0098 175.885 94.0879 176.011 95.614C176.185 97.7414 175.591 99.5634 174.379 100.613C173.766 101.145 172.908 101.44 172.053 101.44L172.052 101.442ZM170.396 95.3924C170.232 96.298 170.149 97.2179 170.154 98.1355C170.157 98.629 170.188 99.0267 170.333 99.3657C170.589 99.9682 171.176 100.184 171.503 100.259C172.255 100.434 173.1 100.24 173.645 99.7658C174.659 98.8866 174.893 97.4779 174.916 96.4872C174.706 96.6969 174.458 96.8789 174.18 97.0203C173.469 97.3868 172.667 97.4419 171.981 97.1748C171.293 96.9089 170.739 96.3267 170.458 95.578C170.436 95.5158 170.415 95.4535 170.396 95.3912V95.3924ZM173.025 93.0841C172.883 93.0841 172.737 93.102 172.589 93.138C172.125 93.2518 171.746 93.5297 171.55 93.8986C171.354 94.2688 171.338 94.7383 171.507 95.1887C171.674 95.6379 171.994 95.9817 172.385 96.1339C172.774 96.2824 173.242 96.2453 173.67 96.0272C174.098 95.808 174.402 95.4499 174.507 95.0462C174.542 94.9096 174.625 94.7982 174.732 94.7252C174.56 94.0759 174.27 93.6099 173.868 93.332C173.63 93.1691 173.337 93.0853 173.025 93.0853V93.0841Z" fill="#4F2B2B"/>
<path d="M178.394 104.449C178.275 104.449 178.155 104.412 178.054 104.332C177.808 104.146 177.761 103.793 177.949 103.549C180.748 99.8956 181.09 94.5615 178.781 90.5809C178.625 90.3126 178.717 89.9712 178.984 89.8155C179.254 89.661 179.594 89.752 179.75 90.0191C182.28 94.3818 181.906 100.225 178.838 104.228C178.728 104.372 178.562 104.447 178.394 104.447V104.449Z" fill="#4F2B2B"/>
<path d="M178.136 71.2492C177.83 71.2492 177.581 71.0048 177.576 70.6994C177.571 70.3903 177.817 70.1352 178.126 70.1304C180.443 70.092 182.768 69.8369 185.038 69.3745C185.341 69.3134 185.637 69.5075 185.698 69.8117C185.76 70.1148 185.564 70.4095 185.261 70.4718C182.924 70.9473 180.529 71.2085 178.144 71.2492H178.134H178.136Z" fill="#4F2B2B"/>
<path d="M182.284 74.481C181.697 74.481 181.11 74.4475 180.529 74.3768C180.222 74.3409 180.003 74.0618 180.039 73.7563C180.076 73.4497 180.349 73.2185 180.661 73.2664C182.695 73.5048 184.802 73.2892 186.745 72.6315C187.038 72.5369 187.356 72.689 187.454 72.9825C187.553 73.276 187.396 73.5922 187.103 73.6916C185.558 74.2139 183.918 74.481 182.283 74.481H182.284Z" fill="#4F2B2B"/>
<path d="M185.862 96.1851C185.557 96.1851 185.308 95.9407 185.303 95.6353C185.298 95.3262 185.544 95.0711 185.853 95.0663C188.167 95.028 190.493 94.774 192.764 94.3116C193.071 94.2517 193.363 94.4458 193.424 94.7488C193.487 95.0519 193.29 95.3466 192.987 95.4089C190.648 95.8844 188.253 96.1444 185.871 96.1851H185.861H185.862Z" fill="#4F2B2B"/>
<path d="M190.01 99.4171C189.423 99.4171 188.836 99.3836 188.256 99.3129C187.949 99.277 187.73 98.9978 187.766 98.6924C187.803 98.3845 188.079 98.1593 188.387 98.2025C190.422 98.442 192.527 98.224 194.471 97.5676C194.765 97.4742 195.082 97.6251 195.18 97.9186C195.279 98.212 195.123 98.5283 194.829 98.6277C193.284 99.15 191.644 99.4171 190.009 99.4171H190.01Z" fill="#4F2B2B"/>
<path d="M186.917 121.825C186.614 121.825 186.365 121.582 186.358 121.278C186.352 120.97 186.596 120.712 186.905 120.706C188.625 120.668 190.349 120.418 192.029 119.961C192.325 119.88 192.636 120.056 192.716 120.354C192.797 120.652 192.621 120.96 192.323 121.041C190.555 121.521 188.741 121.784 186.93 121.825H186.918H186.917Z" fill="#4F2B2B"/>
<path d="M189.309 125.058C188.722 125.058 188.135 125.024 187.554 124.953C187.248 124.918 187.028 124.638 187.064 124.333C187.102 124.026 187.379 123.796 187.686 123.843C189.722 124.083 191.827 123.866 193.77 123.208C194.065 123.112 194.381 123.266 194.479 123.559C194.579 123.853 194.422 124.169 194.128 124.268C192.583 124.791 190.943 125.058 189.308 125.058H189.309Z" fill="#4F2B2B"/>
<path d="M191.761 78.0748C191.088 78.0748 190.416 77.9238 189.807 77.6076C189.533 77.465 189.426 77.1272 189.569 76.8529C189.711 76.5774 190.049 76.4684 190.324 76.6146C191.656 77.3081 193.48 76.8985 194.39 75.7042C195.301 74.5111 195.211 72.6436 194.19 71.5416C193.461 70.7546 192.401 70.3665 191.278 69.9556C190.913 69.8226 190.548 69.6873 190.194 69.5411C189.992 69.4561 189.616 69.298 189.395 68.941C189.141 68.5301 189.208 68.0737 189.28 67.7671C189.58 66.5009 190.492 65.4193 191.785 64.8C193.077 64.1819 194.492 64.1435 195.667 64.7041C195.946 64.8359 196.065 65.1701 195.932 65.4492C195.799 65.7283 195.466 65.8481 195.186 65.7139C194.33 65.3079 193.242 65.3438 192.269 65.8086C191.297 66.2757 190.588 67.1035 190.369 68.0258C190.308 68.2858 190.345 68.3516 190.348 68.354C190.368 68.3876 190.463 68.4403 190.625 68.5098C190.963 68.6499 191.313 68.7781 191.663 68.9051C192.861 69.3435 194.099 69.7975 195.011 70.7821C196.408 72.289 196.525 74.7495 195.279 76.3846C194.449 77.4746 193.104 78.076 191.76 78.076L191.761 78.0748Z" fill="#4F2B2B"/>
<path d="M200.368 76.4765C200.107 76.4765 199.876 76.2944 199.821 76.0333C199.248 73.3285 199.112 70.5614 199.415 67.8111C199.448 67.5044 199.715 67.2816 200.033 67.3164C200.339 67.3499 200.562 67.6266 200.527 67.9345C200.415 68.9527 200.366 69.9744 200.38 70.9938C200.518 70.4045 200.68 69.8211 200.866 69.2437C201.14 68.3957 201.839 67.3463 202.727 67.0457C203.201 66.8863 203.672 66.9498 204.084 67.2361C204.622 67.6098 204.806 68.2196 204.889 68.8149C205.271 67.9488 205.759 67.1295 206.343 66.3808C206.457 66.2347 206.633 66.1484 206.822 66.1664C207.008 66.1796 207.174 66.2838 207.268 66.4443C208.489 68.5478 209.083 71.0429 208.94 73.471C208.886 74.3886 208.315 74.5515 208.141 74.5791C207.823 74.6342 207.521 74.4617 207.388 74.161C207.262 73.8771 207.286 73.4674 207.575 73.2351C207.644 73.1788 207.737 73.144 207.837 73.1284C207.898 71.2981 207.505 69.4402 206.713 67.7871C205.755 69.2593 205.178 70.9663 205.046 72.7188C205.04 72.9667 205.029 73.2147 205.016 73.4626C205 73.7669 204.75 74.0029 204.441 73.9933C204.138 73.9849 203.896 73.7346 203.897 73.4303C203.897 73.174 203.909 72.9176 203.927 72.6625C203.957 71.5053 203.916 70.3386 203.805 69.1874C203.764 68.7718 203.69 68.325 203.445 68.1561C203.327 68.0746 203.223 68.0591 203.085 68.1058C202.667 68.2483 202.148 68.9119 201.93 69.5863C201.268 71.6347 200.931 73.7645 200.928 75.9183C200.928 76.2046 200.711 76.4441 200.426 76.4741C200.406 76.4765 200.386 76.4777 200.367 76.4777L200.368 76.4765Z" fill="#4F2B2B"/>
<path d="M133.111 106.109C131.82 106.109 130.54 105.729 129.497 104.977C127.408 103.469 126.515 100.559 127.421 98.21C128.354 95.7879 131.135 94.2786 133.609 94.8475C133.911 94.9158 134.099 95.2165 134.029 95.5172C133.961 95.8178 133.657 96.0059 133.36 95.9376C131.436 95.5052 129.194 96.7222 128.464 98.6113C127.735 100.503 128.46 102.848 130.151 104.069C131.788 105.251 134.245 105.287 135.993 104.154C136.253 103.987 136.599 104.06 136.767 104.32C136.934 104.579 136.86 104.926 136.6 105.094C135.554 105.771 134.326 106.109 133.109 106.109H133.111Z" fill="#4F2B2B"/>
<path d="M141.465 104.298C140.745 104.298 140.06 104.137 139.469 103.814C138.364 103.21 137.708 102.136 137.623 100.79C137.52 99.1732 138.28 97.4866 139.515 96.5906C139.802 96.3845 140.123 96.2121 140.471 96.0791C142.113 95.4562 144.002 95.7521 145.282 96.8302C146.361 97.7405 146.819 99.0917 146.538 100.538C146.282 101.866 145.257 103.069 143.796 103.755C143.029 104.117 142.227 104.298 141.464 104.298H141.465ZM140.868 97.126C140.611 97.2231 140.378 97.3476 140.172 97.4974C139.25 98.1658 138.661 99.4894 138.739 100.718C138.774 101.268 138.985 102.273 140.005 102.831C140.898 103.317 142.167 103.284 143.321 102.743C144.459 102.207 145.252 101.303 145.441 100.326C145.645 99.2726 145.332 98.3359 144.561 97.6854C143.602 96.8793 142.118 96.6517 140.868 97.126Z" fill="#4F2B2B"/>
<path d="M126.534 122.99C126.278 122.99 126.047 122.813 125.988 122.551C125.921 122.25 126.111 121.95 126.413 121.883L136.901 119.554C137.2 119.491 137.501 119.677 137.569 119.98C137.636 120.282 137.446 120.581 137.144 120.648L126.656 122.977C126.616 122.985 126.575 122.99 126.534 122.99Z" fill="#4F2B2B"/>
<path d="M135.678 132.039C135.327 132.039 135.013 131.975 134.74 131.882C132.365 131.065 130.918 127.155 130.891 123.846L130.826 115.985C130.824 115.677 131.072 115.423 131.381 115.421C131.696 115.405 131.943 115.665 131.945 115.976L132.01 123.838C132.034 126.706 133.282 130.198 135.103 130.823C136.423 131.276 137.763 130.03 138.657 128.903C138.85 128.659 139.202 128.619 139.444 128.812C139.686 129.003 139.726 129.355 139.535 129.597C138.028 131.5 136.699 132.04 135.679 132.04L135.678 132.039Z" fill="#4F2B2B"/>
<path d="M144.352 129.936C143.883 129.936 143.385 129.814 142.869 129.57C140.996 128.692 139.792 126.638 139.942 124.575C140.092 122.513 141.579 120.653 143.559 120.055C143.852 119.965 144.166 120.132 144.256 120.428C144.346 120.723 144.178 121.036 143.882 121.125C142.361 121.585 141.172 123.071 141.057 124.656C140.944 126.242 141.904 127.883 143.343 128.557C143.772 128.759 144.162 128.839 144.504 128.809C145.509 128.707 146.178 127.532 146.175 126.498C146.17 125.29 145.533 124.108 144.97 123.066C144.826 122.8 144.919 122.471 145.179 122.317C145.44 122.166 145.772 122.245 145.935 122.501C146.818 123.894 148.133 125.034 149.637 125.716C149.743 125.762 150.02 125.891 150.177 125.853C150.074 125.622 150.137 125.344 150.345 125.184C150.589 124.992 150.941 125.038 151.13 125.282C151.323 125.529 151.375 125.85 151.274 126.164C151.159 126.524 150.867 126.815 150.511 126.921C150.024 127.066 149.562 126.909 149.175 126.735C148.471 126.416 147.804 126.008 147.192 125.528C147.255 125.843 147.292 126.166 147.294 126.494C147.3 128.012 146.278 129.755 144.618 129.923C144.53 129.932 144.44 129.937 144.35 129.937L144.352 129.936Z" fill="#4F2B2B"/>
<path d="M160.2 129.186C160.182 129.186 160.164 129.186 160.146 129.184C159.839 129.154 159.613 128.881 159.643 128.573C159.89 125.994 159.642 123.318 158.923 120.831C158.734 120.175 158.469 119.46 157.948 119.134C157.307 118.736 156.402 119.022 155.874 119.496C155.21 120.091 154.854 121.003 154.593 121.816C153.895 123.988 153.588 126.244 153.679 128.523C153.691 128.807 153.487 129.053 153.208 129.099C152.933 129.141 152.658 128.97 152.582 128.698C151.573 125.126 151.416 121.31 152.128 117.666C152.187 117.361 152.481 117.168 152.784 117.223C153.087 117.283 153.285 117.578 153.226 117.88C152.831 119.905 152.717 121.984 152.881 124.042C153.041 123.175 153.256 122.318 153.528 121.473C153.835 120.517 154.265 119.436 155.127 118.662C155.98 117.896 157.426 117.489 158.541 118.184C159.383 118.709 159.751 119.66 159.999 120.52C160.756 123.14 161.018 125.961 160.757 128.68C160.73 128.97 160.487 129.185 160.201 129.185L160.2 129.186Z" fill="#4F2B2B"/>
<path d="M194.671 121.612C194.415 121.612 194.183 121.434 194.125 121.173C194.058 120.871 194.248 120.572 194.55 120.505L203.378 118.545C203.68 118.48 203.98 118.667 204.047 118.97C204.114 119.272 203.923 119.57 203.621 119.639L194.793 121.598C194.752 121.607 194.712 121.612 194.671 121.612Z" fill="#4F2B2B"/>
<path d="M202.37 129.229C202.063 129.229 201.789 129.172 201.551 129.091C199.514 128.391 198.274 125.061 198.25 122.244L198.195 115.627C198.193 115.318 198.441 115.065 198.751 115.062H198.756C199.063 115.062 199.313 115.309 199.315 115.618L199.37 122.235C199.39 124.619 200.417 127.518 201.915 128.032C202.971 128.394 204.073 127.371 204.808 126.443C205 126.2 205.351 126.16 205.595 126.352C205.837 126.544 205.877 126.896 205.686 127.138C204.397 128.765 203.254 129.229 202.371 129.229H202.37Z" fill="#4F2B2B"/>
<path d="M209.672 127.456C209.264 127.456 208.831 127.349 208.384 127.141C206.776 126.386 205.742 124.622 205.87 122.849C205.998 121.077 207.276 119.479 208.976 118.964C209.272 118.873 209.585 119.042 209.675 119.338C209.764 119.633 209.597 119.945 209.301 120.035C208.054 120.414 207.08 121.629 206.985 122.929C206.892 124.229 207.679 125.574 208.859 126.126C209.205 126.289 209.515 126.353 209.79 126.331C210.586 126.25 211.118 125.306 211.116 124.474C211.112 123.479 210.581 122.494 210.113 121.627C209.969 121.362 210.063 121.032 210.323 120.878C210.583 120.726 210.917 120.806 211.078 121.062C211.813 122.22 212.905 123.169 214.156 123.733C214.282 123.79 214.381 123.826 214.454 123.841C214.417 123.642 214.49 123.429 214.66 123.297C214.906 123.105 215.257 123.152 215.446 123.395C215.626 123.625 215.675 123.926 215.582 124.217C215.477 124.547 215.209 124.815 214.883 124.914C214.382 125.066 213.899 124.846 213.695 124.752C213.164 124.513 212.658 124.213 212.189 123.865C212.219 124.062 212.236 124.265 212.236 124.47C212.24 125.787 211.349 127.299 209.903 127.444C209.827 127.451 209.75 127.456 209.672 127.456Z" fill="#4F2B2B"/>
<path d="M223.01 126.826C222.992 126.826 222.975 126.826 222.957 126.824C222.649 126.794 222.423 126.521 222.453 126.213C222.661 124.053 222.452 121.811 221.85 119.729C221.695 119.192 221.481 118.61 221.066 118.35C220.567 118.037 219.848 118.269 219.426 118.645C218.883 119.132 218.589 119.887 218.372 120.56C217.789 122.377 217.531 124.268 217.607 126.176C217.619 126.459 217.415 126.706 217.136 126.751C216.851 126.793 216.587 126.621 216.51 126.35C215.658 123.328 215.525 120.103 216.126 117.023C216.185 116.717 216.477 116.525 216.783 116.58C217.086 116.64 217.283 116.934 217.225 117.236C216.936 118.715 216.826 120.228 216.894 121.734C217.008 121.224 217.146 120.718 217.306 120.216C217.569 119.401 217.936 118.476 218.679 117.811C219.422 117.145 220.684 116.789 221.658 117.4C222.394 117.859 222.711 118.677 222.924 119.417C223.573 121.666 223.79 123.987 223.566 126.32C223.539 126.609 223.296 126.825 223.01 126.825V126.826Z" fill="#4F2B2B"/>
<path d="M165.761 129.694C165.646 129.694 165.53 129.659 165.431 129.586C163.246 127.985 162.732 125.15 162.979 123.034C163.247 120.745 164.281 118.668 165.409 116.563C165.554 116.291 165.894 116.186 166.166 116.334C166.438 116.479 166.541 116.819 166.395 117.091C165.32 119.096 164.334 121.069 164.09 123.162C163.825 125.431 164.611 127.598 166.092 128.683C166.341 128.865 166.395 129.216 166.213 129.465C166.103 129.615 165.932 129.694 165.761 129.694Z" fill="#4F2B2B"/>
<path d="M175.281 126.532C175.028 126.532 174.777 126.504 174.531 126.449C173.669 126.249 173.019 125.734 172.707 125C172.49 124.492 172.458 123.953 172.455 123.446C172.446 121.226 172.943 118.991 173.891 116.983C174.023 116.703 174.357 116.586 174.637 116.716C174.916 116.848 175.035 117.182 174.904 117.461C174.785 117.713 174.674 117.967 174.571 118.226C174.847 118.023 175.171 117.872 175.523 117.786C176.248 117.608 176.995 117.73 177.565 118.123C178.383 118.686 178.858 119.691 178.974 121.113C179.136 123.089 178.582 124.782 177.455 125.759C176.88 126.256 176.08 126.53 175.281 126.53V126.532ZM173.768 121.089C173.636 121.867 173.572 122.655 173.575 123.442C173.578 123.89 173.606 124.253 173.737 124.56C173.966 125.097 174.492 125.291 174.784 125.358C175.458 125.513 176.236 125.335 176.722 124.915C177.61 124.146 177.841 122.926 177.876 122.028C177.696 122.194 177.491 122.337 177.263 122.454C176.595 122.797 175.843 122.848 175.2 122.598C174.554 122.348 174.033 121.801 173.77 121.099C173.77 121.096 173.768 121.093 173.767 121.09L173.768 121.089ZM176.181 118.826C176.052 118.826 175.922 118.843 175.79 118.874C175.373 118.977 175.033 119.225 174.859 119.554C174.684 119.883 174.671 120.304 174.822 120.706C174.972 121.11 175.258 121.418 175.607 121.553C175.955 121.687 176.372 121.652 176.756 121.457C177.138 121.261 177.411 120.94 177.505 120.579C177.538 120.454 177.611 120.348 177.705 120.275C177.549 119.704 177.29 119.292 176.933 119.045C176.722 118.9 176.46 118.825 176.182 118.825L176.181 118.826Z" fill="#4F2B2B"/>
<path d="M181.13 129.305C181.012 129.305 180.892 129.268 180.79 129.189C180.544 129.001 180.498 128.65 180.686 128.405C183.258 125.05 183.571 120.152 181.449 116.495C181.293 116.227 181.385 115.885 181.652 115.73C181.922 115.575 182.262 115.666 182.418 115.933C184.761 119.971 184.415 125.38 181.575 129.085C181.464 129.228 181.298 129.304 181.13 129.304V129.305Z" fill="#4F2B2B"/>
<path d="M165.666 124.237C165.404 124.237 165.169 124.051 165.118 123.783C165.059 123.48 165.257 123.187 165.561 123.127L170.426 122.186C170.73 122.126 171.023 122.327 171.082 122.63C171.141 122.933 170.943 123.226 170.639 123.285L165.775 124.225C165.739 124.231 165.703 124.235 165.669 124.235L165.666 124.237Z" fill="#4F2B2B"/>
<path d="M241.035 50H104V57.2124H241.035V50Z" fill="#DF8711"/>
<path d="M241.035 140.67H104V147.882H241.035V140.67Z" fill="#DF8711"/>
<path d="M338.767 204.464C335.203 207.863 327.727 215.797 318.802 224.101L317.788 233.592H308.023C297.126 242.583 285.607 250.015 276.998 249.905C269.306 249.819 258.321 242.583 247.609 233.592H213.303C213.303 233.592 202.341 146.359 220.68 134.416C230.87 127.791 246.768 126.995 259.257 127.67C269.958 128.247 278.164 129.893 278.164 129.893C278.164 129.893 287.252 131.026 299.119 133.424C316.686 136.977 326.09 138.281 335.363 147.794C350.893 163.715 348.104 195.529 338.765 204.465L338.767 204.464Z" fill="#3A8AA2"/>
<path d="M156.696 166.378L158.767 180.615L188.029 174.405C185.752 164.676 188.3 152.513 178.732 146.979C172.917 143.615 163.792 143.798 157.757 145.037C155.549 145.49 148.389 146.224 146.362 145.274L128.604 137.276C127.311 136.583 125.748 136.631 124.5 137.399C122.092 138.881 121.858 142.291 124.041 144.088L126.624 146.214L113.191 143.802C112.013 143.59 110.824 144.105 110.172 145.109L109.151 146.678C108.111 148.28 108.828 150.433 110.622 151.09L140.37 163.709L156.696 166.378Z" fill="#FFBE97"/>
<path d="M217.187 138.175L198.901 179.39L186.501 160.186L151.932 169.896C151.932 169.896 162.807 232.044 191.162 230.49C222.587 228.769 250.591 200.97 250.591 200.97L217.187 138.175Z" fill="#3A8AA2"/>
<path d="M299.121 133.424L270.66 149.958C270.66 149.958 262.735 137.587 259.258 127.67C269.96 128.247 278.165 129.893 278.165 129.893C278.165 129.893 287.253 131.026 299.121 133.424Z" fill="#FFBE97"/>
<path d="M246.929 186.536L239.089 162.882L221.068 146.575L194.99 181.589L228.861 208.214L246.929 186.536Z" fill="#FFBE97"/>
<path d="M221.067 146.575L186.032 133.418C183.659 132.527 181 133.607 179.919 135.9C178.873 138.121 179.646 140.773 181.721 142.085L216.954 164.367L221.067 146.575Z" fill="#FFBE97"/>
<path d="M196.51 148.872L194.042 153.614C192.905 155.798 193.358 158.471 195.149 160.16L195.333 160.333L193.097 164.441C192.022 166.415 192.258 168.844 193.694 170.574L193.82 170.726L192.369 174.191C191.469 176.338 192.006 178.819 193.713 180.401L194.992 181.588L222.807 170.698L225.018 161.026L196.512 148.873L196.51 148.872Z" fill="#FFBE97"/>
<path d="M207.234 156.763C207.155 156.763 207.076 156.746 206.999 156.711L195.569 151.42C195.289 151.29 195.166 150.958 195.296 150.676C195.426 150.396 195.758 150.274 196.038 150.403L207.469 155.694C207.749 155.825 207.871 156.157 207.742 156.437C207.647 156.642 207.445 156.761 207.234 156.761V156.763Z" fill="#4F2B2B"/>
<path d="M203.633 165.209C203.55 165.209 203.465 165.189 203.386 165.151C202.647 164.788 196.134 161.574 195.214 160.752C194.983 160.546 194.964 160.193 195.17 159.962C195.376 159.731 195.731 159.713 195.961 159.918C196.567 160.46 201.14 162.8 203.881 164.147C204.158 164.283 204.273 164.618 204.136 164.896C204.039 165.094 203.84 165.209 203.633 165.209Z" fill="#4F2B2B"/>
<path d="M200.567 174.795C200.477 174.795 200.386 174.774 200.301 174.727L193.836 171.218C193.564 171.071 193.463 170.731 193.611 170.46C193.759 170.188 194.098 170.087 194.369 170.235L200.834 173.743C201.106 173.891 201.207 174.231 201.059 174.502C200.957 174.689 200.766 174.795 200.567 174.795Z" fill="#4F2B2B"/>
<path d="M338.762 204.467C329.829 213.013 296.171 250.141 277.004 249.912C256.547 249.668 212.914 199.029 212.914 199.029L242.434 171.84L268.07 183.881L297.201 164.848L338.762 204.467Z" fill="#3A8AA2"/>
<path d="M268.07 184.44C267.988 184.44 267.908 184.422 267.832 184.386L242.197 172.345C241.917 172.214 241.797 171.88 241.929 171.601C242.06 171.322 242.396 171.202 242.672 171.332L268.025 183.24L296.895 164.379C297.154 164.21 297.501 164.284 297.67 164.542C297.839 164.8 297.767 165.148 297.507 165.317L268.376 184.348C268.284 184.408 268.177 184.44 268.071 184.44H268.07Z" fill="#4F2B2B"/>
<path d="M245.835 232.651C245.705 232.651 245.576 232.607 245.471 232.516C228.563 217.987 212.649 199.579 212.491 199.393C212.289 199.16 212.316 198.806 212.549 198.604C212.782 198.403 213.136 198.427 213.339 198.663C213.497 198.846 229.357 217.194 246.2 231.666C246.435 231.868 246.461 232.221 246.26 232.456C246.149 232.585 245.993 232.65 245.836 232.65L245.835 232.651Z" fill="#4F2B2B"/>
<path d="M284.372 212.025C284.072 212.025 283.824 211.789 283.813 211.487C283.622 206.571 281.797 201.481 278.391 196.36C275.348 191.787 271.448 187.763 267.676 183.871C267.46 183.65 267.466 183.295 267.688 183.079C267.909 182.865 268.263 182.87 268.479 183.092C272.287 187.02 276.224 191.081 279.323 195.74C282.845 201.035 284.733 206.318 284.932 211.444C284.944 211.753 284.703 212.013 284.396 212.025H284.373H284.372Z" fill="#4F2B2B"/>
<path d="M294.069 113.872V112.911H265.189V130.436C277.21 128.734 286.437 122.414 294.069 113.872Z" fill="#F77649"/>
<path d="M265.189 130.436V135.427H294.069V113.872C286.437 122.414 277.21 128.734 265.189 130.436Z" fill="#FFBE97"/>
<path d="M291.931 79.9501C291.931 79.9501 289.812 73.9751 282.542 72.9342C275.272 71.8944 258.995 72.3232 252.351 80.997C245.705 89.6696 250.102 104.364 250.102 104.364L301.432 106.098C301.432 106.098 308.392 97.7792 302.07 86.6078C298.362 80.0555 291.931 79.9501 291.931 79.9501Z" fill="#4F2B2B"/>
<path d="M295.583 110.324C293.314 120.66 280.001 127.22 267.598 124.497C255.195 121.774 248.398 110.801 250.667 100.465C252.936 90.129 264.856 82.2459 277.34 84.5661C291.843 87.2613 297.851 99.9875 295.583 110.324Z" fill="#FFBE97"/>
<path d="M270.439 119.342C267.975 119.342 265.797 117.9 265.177 115.808C265.082 115.488 265.142 115.144 265.337 114.864C265.561 114.546 265.938 114.341 266.35 114.317L274.653 113.813C275.079 113.79 275.466 113.946 275.725 114.234C275.954 114.488 276.054 114.822 275.999 115.149C275.616 117.413 273.439 119.171 270.822 119.33C270.693 119.338 270.565 119.341 270.439 119.341V119.342ZM274.742 114.725C274.731 114.725 274.72 114.725 274.71 114.726L266.407 115.23C266.271 115.239 266.152 115.297 266.087 115.389C266.05 115.441 266.04 115.495 266.055 115.548C266.587 117.344 268.582 118.55 270.766 118.417C272.963 118.283 274.784 116.845 275.096 114.998C275.105 114.944 275.088 114.893 275.045 114.845C274.976 114.769 274.865 114.725 274.741 114.725H274.742Z" fill="#4F2B2B"/>
<path d="M252.954 109.575C254.972 107.557 254.972 104.285 252.954 102.267C250.936 100.249 247.664 100.249 245.646 102.267C243.628 104.285 243.628 107.557 245.646 109.575C247.664 111.593 250.936 111.593 252.954 109.575Z" fill="#FFBE97"/>
<path d="M249.52 106.932L246.545 106.597C246.066 106.543 245.721 106.11 245.775 105.631C245.829 105.152 246.261 104.807 246.741 104.861L249.715 105.196C250.194 105.25 250.539 105.683 250.485 106.162C250.431 106.641 249.999 106.986 249.52 106.932Z" fill="#F77649"/>
<path d="M299.225 113.417C301.819 112.226 302.956 109.159 301.766 106.565C300.575 103.971 297.507 102.834 294.913 104.025C292.319 105.215 291.182 108.283 292.373 110.877C293.564 113.471 296.632 114.608 299.225 113.417Z" fill="#FFBE97"/>
<path d="M298.554 109.725L295.561 109.685C295.078 109.679 294.693 109.283 294.699 108.8C294.705 108.317 295.102 107.933 295.585 107.939L298.578 107.978C299.061 107.984 299.445 108.381 299.439 108.863C299.433 109.346 299.037 109.731 298.554 109.725Z" fill="#F77649"/>
<path d="M261.081 107.479C260.665 107.467 260.338 107.119 260.35 106.703L260.391 105.339C260.403 104.924 260.75 104.597 261.167 104.609C261.583 104.621 261.91 104.968 261.898 105.385L261.857 106.748C261.845 107.164 261.497 107.491 261.081 107.479Z" fill="black"/>
<path d="M278.641 108.525C278.226 108.513 277.898 108.165 277.91 107.748L277.951 106.385C277.963 105.97 278.311 105.643 278.727 105.655C279.143 105.667 279.47 106.014 279.458 106.431L279.417 107.794C279.405 108.21 279.058 108.537 278.641 108.525Z" fill="black"/>
<path d="M261.544 112.75C261.588 111.682 260.014 110.749 258.028 110.668C256.043 110.586 254.397 111.385 254.353 112.454C254.309 113.522 255.883 114.454 257.869 114.536C259.854 114.618 261.5 113.818 261.544 112.75Z" fill="#FF9D6C"/>
<path d="M288.934 113.227C288.979 112.159 287.404 111.227 285.419 111.145C283.433 111.063 281.788 111.863 281.744 112.931C281.7 113.999 283.274 114.932 285.259 115.013C287.245 115.095 288.89 114.296 288.934 113.227Z" fill="#FF9D6C"/>
<path d="M261.544 112.75C261.588 111.682 260.014 110.749 258.028 110.668C256.043 110.586 254.397 111.385 254.353 112.454C254.309 113.522 255.883 114.454 257.869 114.536C259.854 114.618 261.5 113.818 261.544 112.75Z" fill="#F77649"/>
<path d="M288.934 113.227C288.979 112.159 287.404 111.227 285.419 111.145C283.433 111.063 281.788 111.863 281.744 112.931C281.7 113.999 283.274 114.932 285.259 115.013C287.245 115.095 288.89 114.296 288.934 113.227Z" fill="#F77649"/>
<path d="M269.298 108.758C269.197 108.758 269.094 108.73 269.003 108.674C268.741 108.51 268.661 108.166 268.824 107.902C269.984 106.037 269.809 101.924 267.187 100.063C266.935 99.8838 266.876 99.534 267.054 99.2825C267.233 99.0297 267.584 98.9722 267.834 99.1495C270.814 101.265 271.332 105.991 269.774 108.495C269.667 108.664 269.485 108.759 269.298 108.759V108.758Z" fill="#4F2B2B"/>
<path d="M269.813 92.4845C273.753 94.7018 278.191 95.8566 282.601 96.8472C281.649 95.7871 280.942 94.5089 280.552 93.1386C284.102 97.839 290.14 99.7772 295.788 101.454C295.983 101.512 296.208 101.567 296.379 101.454C296.502 101.374 296.561 101.229 296.613 101.091C298.948 94.7425 295.579 87.3109 290.08 83.3723C284.58 79.4337 277.475 78.4275 270.716 78.7066C267.539 78.8384 261.671 79.3523 261.887 83.7592C262.068 87.4679 266.939 90.8662 269.814 92.4833L269.813 92.4845Z" fill="#4F2B2B"/>
<path d="M289.408 79.7074L292.155 72.7969L296.449 75.225L294.331 77.356L296.877 76.5881L297.851 77.6902L289.898 82.6086L289.408 79.7074Z" fill="#4F2B2B"/>
<path d="M255.147 101.231C255.039 101.231 254.93 101.2 254.834 101.135C254.578 100.963 254.511 100.615 254.684 100.358C256.482 97.6986 260.471 96.817 263.224 98.4724C263.489 98.6318 263.574 98.9768 263.415 99.2403C263.255 99.505 262.91 99.5877 262.647 99.4319C260.379 98.0652 257.092 98.7911 255.612 100.986C255.504 101.145 255.328 101.231 255.148 101.231H255.147Z" fill="#4F2B2B"/>
<path d="M284.367 101.241C284.27 101.241 284.173 101.216 284.083 101.163C282.807 100.411 281.487 99.6337 280.051 99.333C278.878 99.0887 277.257 99.1821 276.221 100.187C276 100.402 275.645 100.397 275.43 100.174C275.214 99.9523 275.22 99.5978 275.442 99.3821C276.59 98.2705 278.398 97.8405 280.28 98.2382C281.896 98.5772 283.358 99.4396 284.651 100.2C284.917 100.356 285.005 100.7 284.848 100.967C284.744 101.144 284.557 101.242 284.366 101.242L284.367 101.241Z" fill="#4F2B2B"/>
<path d="M143.619 155.173C143.556 155.173 143.492 155.163 143.429 155.141C137.609 153.036 131.969 150.381 126.662 147.246C126.396 147.089 126.307 146.745 126.464 146.479C126.622 146.213 126.965 146.127 127.231 146.282C132.478 149.382 138.055 152.009 143.808 154.087C144.099 154.194 144.249 154.513 144.145 154.804C144.062 155.032 143.848 155.173 143.619 155.173Z" fill="#4F2B2B"/>
<path d="M309.036 233.72C308.891 233.72 308.748 233.664 308.638 233.552C308.421 233.333 308.423 232.978 308.644 232.76L317.395 224.136C317.617 223.92 317.97 223.922 318.187 224.142C318.404 224.361 318.401 224.715 318.181 224.933L309.429 233.558C309.32 233.665 309.179 233.719 309.036 233.719V233.72Z" fill="#4F2B2B"/>
<path d="M212.181 224.827C211.918 224.827 211.682 224.639 211.631 224.371L206.137 195.062C206.079 194.758 206.279 194.467 206.584 194.41C206.891 194.351 207.18 194.553 207.236 194.856L212.731 224.165C212.789 224.469 212.589 224.76 212.284 224.818C212.25 224.823 212.215 224.827 212.18 224.827H212.181Z" fill="#4F2B2B"/>
</svg>
