<svg width="470" height="250" viewBox="0 0 470 250" fill="none" xmlns="http://www.w3.org/2000/svg">
<mask id="mask0_926_10640" style="mask-type:alpha" maskUnits="userSpaceOnUse" x="0" y="0" width="470" height="250">
<path d="M0 20C0 8.9543 8.9543 0 20 0H450C461.046 0 470 8.9543 470 20V250H0V20Z" fill="#F7FDFE"/>
</mask>
<g mask="url(#mask0_926_10640)">
<path d="M335.46 115.948H133.684C128.888 115.948 125 119.836 125 124.633V241.316C125 246.113 128.888 250.001 133.684 250.001H335.46C340.257 250.001 344.145 246.113 344.145 241.316V124.633C344.145 119.836 340.257 115.948 335.46 115.948Z" fill="#2B6577"/>
<path d="M327.579 129.147H141.568V236.8H327.579V129.147Z" fill="#8FC6D7"/>
<path d="M327.579 227.486H141.568V236.799H327.579V227.486Z" fill="#3A8AA2"/>
<path d="M173.406 128.87C173.406 128.87 172.421 117.879 169.67 109.483C166.917 101.087 164.76 98.9357 157.059 96.3329C157.059 96.3329 152.006 89.5891 147.431 91.0155C144.988 91.7748 145.393 95.3747 145.393 95.3747C145.393 95.3747 138.569 94.3777 137.773 97.359C136.706 101.366 142.334 102.946 148.069 103.53L148.779 106.143C144.927 103.984 140.088 102.987 138.179 105.444C136.318 107.836 138.605 110.759 138.605 110.759C138.605 110.759 134.19 111.928 136.114 117.711C136.114 117.711 134.37 119.237 134.113 121.505C133.771 124.545 137.521 127.543 137.521 127.543C139.115 129.928 141.165 138.307 151.11 139.878C161.056 141.446 174.898 136.672 173.408 128.873L173.406 128.87Z" fill="#FFBE97"/>
<path d="M141.873 50L140.173 50.245C140.173 50.245 147.533 106.946 147.928 108.671C148.387 110.679 151.858 110.698 151.858 110.698L141.873 50Z" fill="#4F2B2B"/>
<path d="M150.659 108.169C144.963 98.8009 145.392 95.3756 145.392 95.3756C145.392 95.3756 144.987 91.7733 147.43 91.0165C152.005 89.5901 157.058 96.3338 157.058 96.3338C157.058 96.3338 156.003 122.816 152.944 128.49C149.885 134.164 147.095 134.458 147.095 134.458C145.504 129.526 145.48 121.14 147.835 117.167C150.188 113.191 152.012 110.401 150.661 108.169H150.659Z" fill="#FFBE97"/>
<path d="M145.393 95.377C145.393 95.377 144.966 98.8022 150.659 108.171C152.013 110.4 150.186 113.192 147.833 117.168C145.478 121.141 145.502 129.525 147.093 134.459" stroke="#4F2B2B" stroke-width="1.5" stroke-miterlimit="10" stroke-linecap="round"/>
<path d="M251.534 133.202C251.534 133.202 242.828 133.813 235.771 136.661C230.032 138.978 202.074 148.737 188.708 171.806L174.394 127.434C174.394 127.434 155.397 129.808 141.216 139.036C141.216 139.036 154.039 192.387 160.916 211.473C167.791 230.559 182.445 234.271 196.376 224.953C210.308 215.636 218.269 208.128 218.269 208.128C218.269 208.128 219.717 211.294 220.258 213.375C220.802 215.456 220.891 224.412 220.62 227.488H327.578V144.669C327.578 144.669 308.786 134.99 290.755 133.474C272.724 131.958 251.534 133.202 251.534 133.202Z" fill="#EE81B0"/>
<path d="M325.882 116.138C322.427 114.766 318.287 106.894 317.244 103.741C315.745 99.2081 314.703 94.544 313.53 89.9207C312.242 84.8475 310.365 79.8956 307.528 75.4673C296.289 57.9127 270.089 42.6642 250.695 57.1885C250.695 57.1885 232.964 55.4347 224.916 73.6617C218.798 87.5205 224.35 112.254 211.744 123.535C211.98 123.424 216.728 127.021 216.959 127.152C218.987 128.298 221.05 129.385 223.146 130.405C228.578 133.052 233.68 134.815 239.67 135.771C252.049 137.747 264.627 138.357 277.152 138.062C287.109 137.828 297.906 137.622 307.394 134.309C313.213 132.279 318.931 128.527 322.007 123.073C322.349 122.469 325.512 115.983 325.881 116.137L325.882 116.138Z" fill="#4F2B2B"/>
<path d="M286.619 139.045V110.739H250.095V139.045" fill="#FFBE97"/>
<path d="M249.182 127.762L249.749 109.826L286.619 111.107C274.367 130.068 256.367 130.538 249.182 127.762Z" fill="#4F2B2B"/>
<path d="M301.009 86.9575C300.396 86.9874 299.81 87.0975 299.245 87.2538C297.221 73.9521 286.794 61.1819 268.407 58.9665C248.79 56.603 231.04 69.8544 228.521 85.9436C226.001 102.033 237.626 118.229 257.156 121.218C274.511 123.874 292.255 115.203 297.767 101.953C298.977 102.564 300.342 102.911 301.798 102.84C306.235 102.624 309.653 98.8946 309.436 94.5087C309.217 90.1228 305.445 86.7427 301.008 86.9588L301.009 86.9575Z" fill="#FFBE97"/>
<path d="M303.6 96.7555L298.989 97.04C298.247 97.0859 297.615 96.3706 297.578 95.4407C297.541 94.5124 298.113 93.7222 298.857 93.6762L303.468 93.3917C304.21 93.3458 304.843 94.0611 304.879 94.991C304.916 95.9193 304.344 96.7095 303.6 96.7555Z" fill="#4F2B2B"/>
<path d="M245.549 96.1299C245.051 96.1383 244.642 95.6072 244.635 94.9453L244.616 92.7772C244.61 92.1154 245.01 91.573 245.509 91.5646C246.008 91.5561 246.417 92.0873 246.423 92.7491L246.442 94.9172C246.449 95.5791 246.048 96.1214 245.549 96.1299Z" fill="#4F2B2B"/>
<path d="M276.594 95.2168C276.095 95.2252 275.687 94.6941 275.68 94.0322L275.661 91.8641C275.655 91.2023 276.055 90.6599 276.554 90.6515C277.053 90.643 277.462 91.1742 277.468 91.836L277.487 94.0041C277.494 94.666 277.093 95.2084 276.594 95.2168Z" fill="#4F2B2B"/>
<path d="M247.965 102.943C248.067 101.286 245.653 99.7897 242.573 99.6003C239.493 99.4108 236.913 100.6 236.811 102.257C236.71 103.913 239.124 105.409 242.204 105.599C245.284 105.788 247.864 104.599 247.965 102.943Z" fill="#FF9D6C"/>
<path d="M288.123 102.945C288.225 101.288 285.81 99.7917 282.73 99.6022C279.65 99.4128 277.071 100.602 276.969 102.258C276.867 103.915 279.281 105.411 282.361 105.601C285.441 105.79 288.021 104.601 288.123 102.945Z" fill="#FF9D6C"/>
<path d="M259.76 101.608C259.563 101.608 259.364 101.554 259.191 101.442C258.758 101.162 258.66 100.62 258.975 100.231C259.934 99.0448 260.266 97.163 259.842 95.323C259.357 93.2191 258.009 91.4841 256.047 90.4382C255.587 90.1932 255.436 89.6602 255.71 89.2483C255.984 88.8377 256.581 88.7005 257.039 88.9468C259.475 90.2444 261.145 92.3846 261.742 94.9717C262.28 97.3097 261.832 99.6559 260.545 101.248C260.355 101.482 260.059 101.606 259.758 101.606L259.76 101.608Z" fill="#4F2B2B"/>
<path d="M238.224 87.9121C240.447 86.534 246.116 84.6047 251.007 87.9121" stroke="#4F2B2B" stroke-width="1.5" stroke-linecap="round"/>
<path d="M270.183 87.9121C272.247 86.534 277.511 84.6047 282.053 87.9121" stroke="#4F2B2B" stroke-width="1.5" stroke-linecap="round"/>
<path d="M262.881 109.824C261.361 109.824 260.007 109.616 258.987 109.393C258.522 109.29 258.229 108.839 258.334 108.385C258.44 107.932 258.904 107.647 259.368 107.749C261.898 108.307 266.718 108.751 270.574 105.469C270.934 105.162 271.48 105.197 271.795 105.548C272.109 105.899 272.073 106.43 271.714 106.738C268.867 109.159 265.607 109.825 262.881 109.825V109.824Z" fill="#4F2B2B"/>
<path d="M244.616 62.0985C244.616 62.0985 262.84 84.6723 277.885 83.4182L292.295 80.2825L300.293 87.9117C300.293 87.9117 301.83 58.9628 279.368 57.9175C256.906 56.8723 244.616 62.0985 244.616 62.0985Z" fill="#4F2B2B"/>
<path d="M254.66 65.2273C254.66 65.2273 250.86 78.7239 227.425 90.651L227.267 75.7419L248.168 60.5186L254.66 65.226V65.2273Z" fill="#4F2B2B"/>
<path d="M218.267 208.129C218.267 208.129 215.428 201.162 215.157 194.015C214.885 186.869 216.185 179.089 221.794 169.139" stroke="#4F2B2B" stroke-width="1.5" stroke-miterlimit="10"/>
<path d="M296.193 134.177L271.614 137.476L267.408 145.008L263.405 137.275L249.501 133.408C246.512 133.762 240.739 134.657 235.771 136.664C234.943 136.998 233.641 137.493 232.001 138.153L269.174 176.081L305.149 136.149C302.26 135.363 299.249 134.684 296.193 134.18V134.177Z" fill="#F8D2A0"/>
<path d="M247.662 126.076L263.406 137.271L254.993 150.366L239.026 135.522L247.662 126.076Z" fill="#F5C07A"/>
<path d="M271.618 137.476L279.691 151.114L296.255 134.17L290.384 127.436L271.618 137.476Z" fill="#F5C07A"/>
<path d="M157.059 96.333C157.059 96.333 161.905 101.175 165.001 108.384" stroke="#4F2B2B" stroke-width="1.5" stroke-miterlimit="10" stroke-linecap="round"/>
<path d="M138.605 110.759C138.605 110.759 145.063 118.017 148.316 116.358" stroke="#4F2B2B" stroke-width="1.5" stroke-miterlimit="10" stroke-linecap="round"/>
<path d="M136.115 117.71C136.115 117.71 143.131 125.114 146.199 122.656" stroke="#4F2B2B" stroke-width="1.5" stroke-miterlimit="10" stroke-linecap="round"/>
<path d="M137.519 127.539C137.519 127.539 142.877 131.197 146.004 127.726" stroke="#4F2B2B" stroke-width="1.5" stroke-miterlimit="10" stroke-linecap="round"/>
</g>
</svg>
